<svg width="34" height="23" viewBox="0 0 34 23" fill="none" xmlns="http://www.w3.org/2000/svg">
<path d="M16.3588 12.7554H31.4463V14.9905H18.1408L17.0729 19.6655L29.3986 19.8249L29.3697 22.0601L14.2791 21.8647L16.3588 12.7554Z" fill="white"/>
<path d="M16.3588 12.7554H31.4463V14.9905H18.1408L17.0729 19.6655L29.3986 19.8249L29.3697 22.0601L14.2791 21.8647L16.3588 12.7554Z" fill="white"/>
<path d="M18.6764 0.295166H33.7646V2.53032H20.4584L19.3912 7.2061L31.7162 7.36548L31.6873 9.59985L16.5967 9.40454L18.6764 0.295166Z" fill="white"/>
<path d="M18.6764 0.295166H33.7646V2.53032H20.4584L19.3912 7.2061L31.7162 7.36548L31.6873 9.59985L16.5967 9.40454L18.6764 0.295166Z" fill="white"/>
<path d="M18.951 4.14448L18.9775 6.37886L7.27676 6.52026L5.20801 16.0375L16.8244 16.2039L16.7924 18.4382L2.44395 18.2328L5.47051 4.30776L18.951 4.14448Z" fill="white"/>
<path d="M18.951 4.14448L18.9775 6.37886L7.27676 6.52026L5.20801 16.0375L16.8244 16.2039L16.7924 18.4382L2.44395 18.2328L5.47051 4.30776L18.951 4.14448Z" fill="white"/>
<path d="M0.0330076 12.5295H5.80957V10.2952H0.0330076V12.5295Z" fill="white"/>
<path d="M0.0330076 12.5295H5.80957V10.2952H0.0330076V12.5295Z" fill="white"/>
</svg>