<svg width="37" height="27" viewBox="0 0 37 27" fill="none" xmlns="http://www.w3.org/2000/svg">
<path d="M36.3934 3.09731C35.0544 3.62314 33.6153 3.97727 32.105 4.13689C33.6472 3.31998 34.8315 2.02552 35.388 0.482906C33.9459 1.23946 32.3476 1.78943 30.6462 2.08589C29.286 0.80216 27.3435 0 25.1963 0C20.3757 0 16.8334 3.97861 17.9222 8.1088C11.7187 7.83381 6.2172 5.20465 2.53389 1.20861C0.577745 4.17714 1.51942 8.0605 4.84335 10.027C3.62114 9.99213 2.46868 9.69568 1.46332 9.2007C1.38143 12.2604 3.86073 15.123 7.45154 15.7602C6.40068 16.0124 5.24974 16.0714 4.07909 15.8728C5.02835 18.4966 7.78515 20.4055 11.0545 20.4591C7.91556 22.6362 3.96081 23.6087 0 23.1956C3.30421 25.0695 7.23015 26.1628 11.4457 26.1628C25.3085 26.1628 33.1407 15.8058 32.6676 6.51655C34.1264 5.58427 35.3925 4.42127 36.3934 3.09731Z" fill="#021631"/>
</svg>
