<svg width="32" height="32" viewBox="0 0 32 32" fill="none" xmlns="http://www.w3.org/2000/svg">
<g clip-path="url(#clip0_15253_1556)">
<path d="M2.89453 9.72614V22.2701C2.89453 23.0765 3.31693 23.8061 4.02093 24.2157L14.8881 30.4877C15.5793 30.8845 16.4369 30.8845 17.1281 30.4877L27.9953 24.2157C28.6865 23.8189 29.1217 23.0765 29.1217 22.2701V9.72614C29.1217 8.91974 28.6993 8.19014 27.9953 7.78054L17.1281 1.50854C16.4369 1.11174 15.5793 1.11174 14.8881 1.50854L4.02093 7.78054C3.32973 8.17734 2.90733 8.91974 2.90733 9.72614H2.89453Z" fill="#213147"/>
<path d="M18.3686 18.4306L16.8198 22.6802C16.7814 22.7954 16.7814 22.9234 16.8198 23.0514L19.4822 30.3602L22.567 28.581L18.8678 18.4306C18.7782 18.2002 18.4582 18.2002 18.3686 18.4306Z" fill="#12AAFF"/>
<path d="M21.4791 11.29C21.3895 11.0596 21.0695 11.0596 20.9799 11.29L19.4311 15.5396C19.3927 15.6548 19.3927 15.7828 19.4311 15.9108L23.7959 27.8788L26.8807 26.0996L21.4791 11.3028V11.29Z" fill="#12AAFF"/>
<path d="M16.0008 1.984C16.0776 1.984 16.1544 2.0096 16.2184 2.048L27.9688 8.832C28.1096 8.9088 28.1864 9.0624 28.1864 9.216V22.784C28.1864 22.9376 28.0968 23.0912 27.9688 23.168L16.2184 29.952C16.1544 29.9904 16.0776 30.016 16.0008 30.016C15.924 30.016 15.8472 29.9904 15.7832 29.952L4.03276 23.168C3.89196 23.0912 3.81516 22.9376 3.81516 22.784V9.2032C3.81516 9.0496 3.90476 8.896 4.03276 8.8192L15.7832 2.0352C15.8472 1.9968 15.924 1.9712 16.0008 1.9712V1.984ZM16.0008 0C15.5784 0 15.1688 0.1024 14.7848 0.32L3.03436 7.104C2.27916 7.5392 1.81836 8.3328 1.81836 9.2032V22.7712C1.81836 23.6416 2.27916 24.4352 3.03436 24.8704L14.7848 31.6544C15.156 31.872 15.5784 31.9744 16.0008 31.9744C16.4232 31.9744 16.8328 31.872 17.2168 31.6544L28.9672 24.8704C29.7224 24.4352 30.1832 23.6416 30.1832 22.7712V9.2032C30.1832 8.3328 29.7224 7.5392 28.9672 7.104L17.204 0.32C16.8328 0.1024 16.4104 0 15.988 0H16.0008Z" fill="#9DCCED"/>
<path d="M8.21875 27.8915L9.30675 24.9219L11.4827 26.7267L9.44755 28.5955L8.21875 27.8915Z" fill="#213147"/>
<path d="M15.0016 8.23936H12.0192C11.8016 8.23936 11.5968 8.38016 11.52 8.58496L5.13281 26.0954L8.21761 27.8746L15.2576 8.58496C15.3216 8.40576 15.1936 8.22656 15.0144 8.22656L15.0016 8.23936Z" fill="white"/>
<path d="M20.2249 8.23936H17.2425C17.0249 8.23936 16.8201 8.38016 16.7433 8.58496L9.44727 28.5786L12.5321 30.3578L20.4681 8.58496C20.5321 8.40576 20.4041 8.22656 20.2249 8.22656V8.23936Z" fill="white"/>
</g>
<defs>
<clipPath id="clip0_15253_1556">
<rect width="32" height="32" fill="white"/>
</clipPath>
</defs>
</svg>
