<svg width="563" height="395" viewBox="0 0 563 395" fill="none" xmlns="http://www.w3.org/2000/svg">
<path fill-rule="evenodd" clip-rule="evenodd" d="M311.999 143.029L563 0.420677L562.86 0.56091L394.28 165.955C394.3 173.832 394.31 184.06 394.31 197.155C394.31 305.969 305.969 394.31 197.155 394.31C88.3412 394.31 0 305.969 0 197.155C0 88.3412 88.201 0 197.155 0L422.636 0.56091L310.036 35.3365L197.155 70.2523C127.183 70.2523 70.5327 126.903 70.5327 196.875C70.5327 266.847 140.224 323.497 197.155 323.497C254.086 323.497 302.183 286.057 318.169 234.455C321.955 222.676 323.918 216.226 323.918 196.875C323.918 177.524 319.711 159.295 311.999 143.029ZM392.207 167.989L392.701 167.503C392.548 168.828 392.383 169.184 392.207 167.989ZM510.971 0.429835L298.811 121.163L298.531 121.303C285.35 103.495 267.541 89.332 246.929 80.4978L510.971 0.429835Z" fill="white" fill-opacity="0.06"/>
</svg>
