<svg width="215" height="30" viewBox="0 0 215 30" fill="none" xmlns="http://www.w3.org/2000/svg">
<g clip-path="url(#clip0_13618_4645)">
<path fill-rule="evenodd" clip-rule="evenodd" d="M129.95 0H139.116V5.23345H129.95V29.7765H123.729V5.23345H114.532V0H123.729H129.95ZM24.0425 17.9262C22.8404 21.8362 19.2039 24.6635 14.9064 24.6635C10.6087 24.6635 5.31939 20.3624 5.31939 15.0688C5.31939 9.77524 9.61701 5.47421 14.9064 5.47421L23.4414 2.82741L31.9464 0.18061L14.9064 0.120456C6.67179 0.120456 0 6.79759 0 15.0388C0 23.2799 6.67179 29.957 14.9064 29.957C23.1409 29.957 29.8127 23.2799 29.8127 15.0388C29.8127 14.0754 29.8119 13.3171 29.8103 12.728L42.5252 0.240243L23.5726 11.0317L23.5616 11.0079V11.038L23.5726 11.0317C24.1369 12.2589 24.4632 13.6339 24.4632 15.0683C24.4632 16.512 24.313 17.0238 24.0425 17.9262ZM29.6662 12.8694C29.6745 12.9168 29.6825 12.9031 29.6902 12.846L29.6662 12.8694ZM54.0656 0.210799L47.9347 21.2348L48.0249 26.2577L41.5336 4.60207L36.5748 9.9859L43.3366 29.9872H50.8499L60.7675 0.210799H54.0656ZM143.083 0.210799V29.9872H149.304V0.210799H143.083ZM215 5.50438H196.788L201.506 7.39924V12.4823H214.219V17.415H201.506V24.6636H215V29.9872H195.285V0.210799H215V5.50438ZM108.882 16.8736C108.221 17.415 107.44 17.8962 106.598 18.227H106.629L112.909 29.9872H105.847L97.8829 14.4072H100.678C102.241 14.4072 103.473 14.0162 104.345 13.2042C105.216 12.3921 105.637 11.2792 105.637 9.83552C105.637 9.14373 105.516 8.5121 105.276 7.94066C105.066 7.36917 104.705 6.88793 104.284 6.49693C103.834 6.07586 103.323 5.77507 102.691 5.56455C102.06 5.354 101.369 5.23369 100.588 5.23369H95.1782V29.9872H88.9573V0.210799H101.459C103.112 0.210799 104.585 0.421341 105.877 0.8725C107.17 1.32366 108.281 1.95528 109.183 2.76736C110.115 3.60952 110.806 4.60207 111.287 5.77507C111.768 6.9481 112.008 8.30159 112.008 9.77535C112.008 10.7378 111.888 11.6401 111.647 12.5124C111.407 13.3846 111.046 14.1967 110.595 14.9186C110.115 15.6705 109.544 16.3021 108.882 16.8736ZM180.74 0.210799L173.106 18.7083L174.248 25.4155L172.114 20.2422L163.88 0.210799H156.547V29.9872H162.317V10.0761H162.647L170.221 28.2729H174.368L181.942 10.0761H182.272V29.9872H188.042V0.210799H180.74ZM84.239 5.50438H66.0267L70.745 7.39924V12.4823H83.4576V17.415H70.745V24.6636H84.239V29.9872H64.5241V0.210799H84.239V5.50438ZM22.5399 9.38373L38.5884 0.240243L18.633 6.28576C20.1957 6.94745 21.5481 8.03024 22.5399 9.38373Z" fill="white"/>
</g>
<defs>
<clipPath id="clip0_13618_4645">
<rect width="215" height="30" fill="white"/>
</clipPath>
</defs>
</svg>
