<svg xmlns="http://www.w3.org/2000/svg" fill="none" viewBox="15.84 10.545454545454545 200.64 31.876033057851238" style="max-height: 500px" width="200.64" height="31.876033057851238">
<g clip-path="url(#clip0_11914_19462)">
<path fill="#EF9115" d="M53.6808 76.8129C54.5548 76.8129 55.33 77.3337 55.6532 78.13L64.4201 99.9693L73.3366 78.106C73.6599 77.3367 74.4351 76.8129 75.2851 76.8129C76.7338 76.8129 77.7335 78.2527 77.1828 79.5967L66.7158 104.839C66.5153 105.336 66.1411 105.684 65.6922 105.884C65.342 106.082 64.9169 106.207 64.468 106.207H64.3692C64.046 106.207 63.7436 106.133 63.4443 106.034C62.8697 105.884 62.3698 105.462 62.1214 104.866L51.7562 79.6476C51.1815 78.2796 52.1812 76.8159 53.6808 76.8159V76.8129ZM35.3449 11.7827H35.4437C36.3925 11.8576 37.1408 12.6269 37.1408 13.5967C37.1408 14.5665 36.3925 15.3358 35.4437 15.4107H35.2432C29.0743 15.4107 24.1028 20.3796 24.1028 26.492C24.1028 32.6044 29.0983 37.5733 35.2432 37.5733C41.388 37.5733 46.3836 32.6044 46.3836 26.492V26.4171C46.3836 25.4234 47.2067 24.6032 48.2064 24.6032C49.2061 24.6032 50.0292 25.4234 50.0292 26.4171V26.492C50.0292 34.6159 43.4084 41.2012 35.2402 41.2012C27.0719 41.2012 20.4512 34.6159 20.4512 26.492C20.4512 18.3681 27.0719 11.7827 35.2402 11.7827H35.3449ZM40.4662 15.5603C41.4659 15.5603 42.289 14.7402 42.289 13.7464C42.289 12.7526 41.4659 11.9324 40.4662 11.9324C39.4665 11.9324 38.6434 12.7526 38.6434 13.7464C38.6434 14.7402 39.4665 15.5603 40.4662 15.5603ZM50.0322 21.1249C50.0322 22.1187 49.2091 22.9389 48.2094 22.9389C47.2097 22.9389 46.3865 22.1187 46.3865 21.1249C46.3865 20.1311 47.2097 19.311 48.2094 19.311C49.2091 19.3349 50.0322 20.1311 50.0322 21.1249ZM45.6383 17.97C46.638 17.97 47.4611 17.1498 47.4611 16.156C47.4611 15.1622 46.638 14.342 45.6383 14.342C44.6386 14.342 43.8155 15.1622 43.8155 16.156C43.8155 17.1498 44.6146 17.97 45.6383 17.97ZM84.0041 25.9681C84.0041 25.124 84.6775 24.4535 85.5276 24.4535H94.8182C95.6683 24.4535 96.3417 25.124 96.3417 25.9681V26.5399C96.3417 27.384 95.6683 28.0545 94.8182 28.0545H85.5276C84.6775 28.0545 84.0041 27.384 84.0041 26.5399V25.9681ZM81.1307 37.4236H94.7943C95.6443 37.4236 96.3178 38.0941 96.3178 38.9383V39.6836C96.3178 40.5277 95.6443 41.1982 94.7943 41.1982H78.8589C78.0089 41.1982 77.3354 40.5277 77.3354 39.6836V13.2974C77.3354 12.4532 78.0089 11.7827 78.8589 11.7827H94.7943C95.6443 11.7827 96.3178 12.4532 96.3178 13.2974V14.0427C96.3178 14.8868 95.6443 15.5573 94.7943 15.5573H81.1307V37.4206V37.4236ZM198.407 24.4535C197.557 24.4535 196.884 25.124 196.884 25.9681V26.5399C196.884 27.384 197.557 28.0545 198.407 28.0545H207.698C208.548 28.0545 209.221 27.384 209.221 26.5399V25.9681C209.221 25.124 208.548 24.4535 207.698 24.4535H198.407ZM194.01 37.4236H207.674C208.524 37.4236 209.197 38.0941 209.197 38.9383V39.6836C209.197 40.5277 208.524 41.1982 207.674 41.1982H191.735C190.885 41.1982 190.212 40.5277 190.212 39.6836V13.2974C190.212 12.4532 190.885 11.7827 191.735 11.7827H207.674C208.524 11.7827 209.197 12.4532 209.197 13.2974V14.0427C209.197 14.8868 208.524 15.5573 207.674 15.5573H194.01V37.4206V37.4236ZM174.498 106.519C174.824 106.27 175.222 106.172 175.597 106.219H176.647C177.497 106.219 178.171 106.89 178.171 107.734V134.144C178.171 134.988 177.497 135.659 176.647 135.659H175.746C174.896 135.659 174.223 134.988 174.223 134.144V111.338L168.778 115.487C168.105 115.984 167.18 115.861 166.68 115.187L166.306 114.667C165.806 113.996 165.956 113.026 166.605 112.529L174.498 106.516V106.519ZM122.097 11.7827C121.247 11.7827 120.574 12.4532 120.574 13.2974V13.9918C120.574 14.8359 121.247 15.5064 122.097 15.5064H130.592V39.7075C130.592 40.5517 131.265 41.2222 132.115 41.2222H133.016C133.866 41.2222 134.54 40.5517 134.54 39.7075V15.5094H139.736C139.838 15.5094 139.913 15.4855 139.987 15.4346L144.109 12.6269C144.483 12.3784 144.309 11.8067 143.857 11.8067H123.923L122.1 11.7827H122.097ZM173.753 34.6668C173.328 35.0649 172.777 35.3133 172.178 35.3133C171.58 35.3133 170.978 35.0409 170.556 34.6189C170.532 34.5949 170.505 34.568 170.505 34.568C170.49 34.553 170.472 34.5351 170.454 34.5171C170.254 34.2926 170.08 34.0442 169.978 33.7478L162.011 20.3796V39.6836C162.011 40.5277 161.337 41.1982 160.487 41.1982H159.586C158.736 41.1982 158.063 40.5277 158.063 39.6836V13.2974C158.063 12.4532 158.736 11.7827 159.586 11.7827H160.535C161.083 11.7319 161.61 12.0072 161.909 12.5041L172.151 29.6978L182.319 12.6029C182.37 12.5281 182.418 12.4532 182.469 12.3784C182.792 11.9324 183.319 11.7079 183.843 11.7827H184.591C185.441 11.7827 186.114 12.4532 186.114 13.2974V39.7075C186.114 40.5517 185.441 41.2222 184.591 41.2222H183.69C182.84 41.2222 182.166 40.5517 182.166 39.7075V20.652L174.348 33.7718C174.223 34.0442 174.073 34.2926 173.899 34.4932C173.849 34.568 173.798 34.6189 173.75 34.6668H173.753ZM106.387 28.4047V28.0814C106.387 26.4171 107.737 25.0761 109.41 25.0761H110.658C112.355 25.0761 113.654 24.6301 114.555 23.7591C115.48 22.888 115.929 21.6967 115.929 20.206C115.929 18.7153 115.48 17.6227 114.555 16.6768C113.681 15.7339 112.406 15.3837 110.709 15.3837H104.713C104.54 15.3837 104.363 15.3598 104.19 15.3089V39.7315C104.19 40.5756 103.516 41.2461 102.666 41.2461H101.768C100.918 41.2461 100.245 40.5756 100.245 39.7315V13.2974C100.245 12.4532 100.918 11.7827 101.768 11.7827H110.834C112.657 11.7827 114.256 12.1569 115.605 12.8753C116.955 13.5698 118.003 14.5635 118.727 15.8058C119.476 17.048 119.853 18.4878 119.853 20.0803C119.853 21.6727 119.479 23.2113 118.727 24.4535C118.003 25.6958 116.979 26.6656 115.605 27.384C114.405 27.9797 113.007 28.3269 111.433 28.3778C111.484 28.4287 111.532 28.4766 111.559 28.5274L119.251 38.0672C120.275 39.3334 119.377 41.1982 117.752 41.1982C117.177 41.1982 116.626 40.9498 116.252 40.4768L106.387 28.4017V28.4047Z"/>
<path fill="#EF9115" d="M45.1717 21.9603L47.1112 20.9635L46.9346 20.6163L44.7616 21.7328C43.0376 21.634 41.6338 20.7659 40.5922 19.1316C39.9936 18.1947 39.6883 17.2547 39.5626 16.8087C40.0684 15.4468 40.5742 14.0818 41.0801 12.7199C40.9244 12.6271 40.7718 12.5313 40.6161 12.4385L39.359 16.243L39.1645 16.4495C36.4347 19.3172 31.9481 18.2216 31.1788 18.0061L30.0983 16.0574L29.7571 16.246L30.8077 18.1378C30.7748 18.3353 29.9666 23.2324 27.2728 25.5463L27.177 25.6301L22.6844 25.223L22.6484 25.6091L24.5221 25.7798L24.3695 25.9264C24.4144 25.9743 28.943 30.7128 28.8382 33.8199L27.4644 35.3195L27.7517 35.5829L30.7568 32.3052H30.7718C30.8256 32.3052 36.2851 32.1675 37.1142 34.5412L37.2249 34.8615C37.9972 38.4236 38.1139 38.4835 38.1947 38.5224L38.3773 38.5164L38.2815 38.3398L38.2905 38.3069L38.4312 38.232C38.3294 38.0434 37.9732 36.4839 37.5332 34.4215C37.7906 33.8288 39.0238 31.2875 41.3524 30.9612L46.4138 34.667L46.6443 34.3527L43.9535 32.3801L44.0403 32.3172C43.6571 31.1498 43.0645 28.797 43.6332 25.9444C43.9804 24.1993 44.6449 22.8523 45.1806 21.9633L45.1717 21.9603ZM44.1331 22.0561L41.999 23.1546C41.7655 23.0708 38.1618 21.7388 38.4641 19.9248L38.509 19.6554L39.347 17.3984C39.8259 18.7784 41.1519 21.5562 44.139 22.0561H44.1331ZM30.9484 31.518C30.7897 29.285 28.9998 27.0938 28.072 26.1L30.8855 26.3545V26.3605C30.9065 26.3724 33.2201 27.4411 32.9747 29.3089L30.9484 31.518ZM37.3806 22.6876C37.617 23.5916 38.4312 24.3968 38.8562 24.768L36.0786 26.1958L37.3806 22.6847V22.6876ZM35.6835 26.1479L33.7499 22.6547C34.8993 23.3522 36.2641 22.8942 37.0304 22.517L35.6835 26.1479ZM37.2369 21.9603C36.6832 22.2835 34.8843 23.1905 33.6452 22.098L33.4237 21.9034L33.3907 22.0022L32.84 21.0054C34.2797 21.182 36.8568 20.5055 37.8894 20.2092L37.2399 21.9603H37.2369ZM35.3752 26.3724L31.8253 26.0522C32.5197 25.3697 33.1483 23.8401 33.4746 22.9511L35.3722 26.3754L35.3752 26.3724ZM31.7804 26.4383L35.3123 26.7586L33.3758 28.8719C33.3069 27.7135 32.4389 26.8963 31.7804 26.4383ZM35.6086 27.013C35.8271 28.1026 36.0247 29.0874 36.2043 29.9794C35.444 29.255 34.3336 29.1233 33.6781 29.1173L35.6086 27.013ZM36.0127 27.0519L38.3803 28.7851C37.632 28.9677 36.9885 29.6022 36.6173 30.0423C36.4078 29.0126 36.2013 27.9918 36.0127 27.0519ZM36.0905 26.6299L38.6826 25.2978C38.1977 26.3275 38.4042 27.7045 38.5808 28.4528L36.0905 26.6299ZM39.0807 28.818C38.9669 28.4498 38.2995 26.0671 39.374 24.9626L39.4159 24.9177L41.1519 24.0257C39.8679 26.118 40.6401 29.0485 41.0531 30.2638L39.0807 28.818ZM39.2333 24.5764C38.8382 24.2472 37.5781 23.1037 37.7128 22.0411L37.7607 21.6699L38.1408 20.6462C38.5718 22.062 40.691 23.0498 41.538 23.3941L39.2363 24.5764H39.2333ZM39.0388 17.1021L38.054 19.7542C37.2908 19.9817 33.9265 20.9395 32.5946 20.5684L31.4332 18.473C32.7562 18.7813 36.4557 19.365 39.0358 17.1021H39.0388ZM31.104 18.6736L33.2261 22.4961C32.849 23.5737 32.0079 25.6331 31.2926 25.9773C31.2716 25.9863 31.2566 25.9923 31.2387 25.9983L27.7098 25.678C29.9427 23.6096 30.8436 19.9847 31.107 18.6736H31.104ZM24.7825 25.8037L27.4793 26.0492C28.2186 26.8005 30.6341 29.4436 30.5712 31.9281L29.2123 33.4098C28.9789 30.4553 25.5308 26.6059 24.7825 25.8037ZM31.11 31.9161L33.3099 29.5184C33.7828 29.4885 35.5488 29.4646 36.2761 30.6858L36.3809 30.8624C36.5934 31.9011 36.779 32.7991 36.9436 33.5714C35.5218 32.0747 32.2055 31.9221 31.11 31.9161ZM37.3925 33.7899C37.177 32.7692 36.9466 31.6557 36.7161 30.5392C37.0184 30.1351 37.9074 29.0814 38.8412 29.1263L40.9154 30.6439C39.0148 31.0989 37.8804 32.841 37.3925 33.7899ZM43.3369 31.9341L41.6278 30.6828L41.6218 30.6709C41.6009 30.623 39.6763 25.9983 41.9541 23.6156L44.585 22.2626C44.2767 22.9062 43.6751 24.2562 43.2471 25.8277C42.5407 28.4079 42.5706 30.4583 43.3369 31.937V31.9341Z"/>
<path fill="#EF9115" d="M41.1144 25.0016C41.1144 25.0016 40.7791 23.1547 39.6896 23.7983C38.5971 24.4418 39.534 25.5733 39.534 25.5733C39.534 25.5733 38.7139 28.5816 41.8686 28.6475C41.8686 28.6475 43.446 26.8365 41.1144 25.0016Z"/>
<path fill="#EF9115" d="M39.4075 25.8155C38.8418 25.5192 37.2674 24.729 36.7915 24.6452C36.3814 24.5733 35.8097 24.9505 35.6391 25.0912L35.2949 24.6721C35.3817 24.6003 36.1569 23.9836 36.8843 24.1123C37.5308 24.2261 39.4434 25.2229 39.6589 25.3366L39.4075 25.8185V25.8155Z"/>
<path fill="#EF9115" d="M36.4118 27.9319L35.873 27.881C35.891 27.6864 36.0886 25.9623 37.1391 25.7348C38.082 25.5252 39.5366 25.9353 39.5965 25.9533L39.4498 26.4771C39.4498 26.4771 38.061 26.094 37.2529 26.2676C36.6872 26.3903 36.4507 27.5427 36.4118 27.9349V27.9319Z"/>
<path fill="#EF9115" d="M37.1979 30.1861L36.6621 30.1083C36.7399 29.5725 37.1739 26.8994 38.4131 26.7108C39.2841 26.5791 39.775 26.6659 39.8707 26.9742L39.3529 27.1359C39.3709 27.1957 39.4068 27.2257 39.4158 27.2347C39.4098 27.2317 39.2362 27.1359 38.4939 27.2466H38.4849C37.8803 27.3574 37.3685 29.0277 37.1979 30.1861Z"/>
<path fill="#EF9115" d="M38.2319 30.9584C38.2049 30.8716 37.6153 28.8301 38.9772 28.1746L40.1475 27.6118L40.3809 28.1027L39.2106 28.6655C38.2648 29.1205 38.7467 30.7877 38.7497 30.8057L38.2289 30.9614L38.2319 30.9584Z"/>
<path fill="#EF9115" d="M41.4852 25.1901L40.9434 25.2261C40.7309 22.0441 42.5088 21.0234 42.5836 20.9785L42.847 21.4515C42.7842 21.4874 41.2966 22.3704 41.4822 25.1871L41.4852 25.1901Z"/>
<path fill="#EF9115" d="M41.635 25.9892L41.1172 25.8275C41.1381 25.7557 41.6769 24.0285 42.1738 23.3131C42.7604 22.466 44.7299 23.4718 45.119 23.6813L44.8616 24.1603C43.9636 23.6753 42.8203 23.3341 42.6197 23.6244C42.1708 24.271 41.641 25.9742 41.635 25.9922V25.9892Z"/>
<path fill="#EF9115" d="M45.3669 25.9684C44.6186 25.5314 43.3794 25.0465 42.9724 25.3308C42.2899 25.8098 41.7332 26.606 41.7272 26.615L41.2812 26.3067C41.3052 26.2707 41.8978 25.4236 42.6611 24.8878C43.4902 24.3041 45.289 25.2949 45.6422 25.5014L45.3699 25.9714L45.3669 25.9684Z"/>
<path fill="#EF9115" d="M45.2953 27.1807C45.2205 27.1328 43.4695 26.0462 42.1346 27.2166L41.7754 26.8095C43.4186 25.3697 45.5647 26.7107 45.5856 26.7257L45.2923 27.1836L45.2953 27.1807Z"/>
<path fill="#EF9115" d="M75.343 22.5408C68.0488 17.521 74.5708 11.3428 74.5708 11.3428C65.8189 13.5728 65.5615 21.125 65.5615 21.125C71.3113 25.8455 67.0192 33.7389 67.0192 33.7389C67.7914 31.4221 66.2469 30.3055 66.2469 30.3055C64.7025 31.2484 64.9599 33.7389 64.9599 33.7389C64.1009 33.0534 63.2448 33.7389 63.2448 33.7389C63.3316 30.8204 61.443 30.3055 61.443 30.3055C60.2427 31.4221 61.443 33.7389 61.443 33.7389C56.6959 28.1683 60.7575 21.3824 60.7575 21.3824C55.9536 13.489 50.0332 13.1448 50.0332 13.1448C55.8668 17.3504 51.407 22.5827 51.407 22.5827C60.2457 24.2979 54.1517 32.1943 54.1517 32.1943C59.2131 30.563 60.9102 35.8851 60.9102 35.8851C60.8054 39.2317 63.9332 39.9171 63.9332 39.9171L64.4481 42.4046L65.0497 39.9171C67.8812 39.058 67.6238 35.3703 67.6238 35.3703C68.0518 31.3382 73.0293 32.0237 73.0293 32.0237C67.7106 24.6451 75.346 22.5408 75.346 22.5408H75.343ZM61.874 34.6399C63.2029 34.2478 63.8913 35.5858 63.8913 35.5858C62.284 35.7175 61.874 34.6399 61.874 34.6399ZM64.6636 35.5828C64.6636 35.5828 65.0497 34.2537 66.636 34.4663C66.636 34.4663 66.0793 35.6247 64.6636 35.5828Z"/>
<path fill="#EF9115" d="M150.325 40.5669C150.164 40.2556 150.562 40.8243 150.912 40.498C151.262 40.1717 151.172 39.5312 150.9 39.5282C150.726 39.5282 150.574 39.6299 150.484 39.7048C150.598 39.5671 150.762 39.2348 150.448 38.6122C150.014 37.7501 149.412 37.3999 149.191 37.7441C148.969 38.0914 148.82 38.7469 148.82 38.7469C148.82 38.7469 148.766 38.3069 148.568 38.0674C148.467 37.9477 148.419 37.9806 148.389 38.0584C148.473 36.463 148.479 33.7391 147.757 31.6467C146.671 28.4918 148.784 22.0022 150.068 19.7991C151.352 17.596 152.609 20.4157 154.531 18.2845C156.452 16.1502 155.617 15.4767 155.022 14.6685C154.423 13.8603 154.677 16.5094 154.842 16.6771C155.007 16.8447 154.058 19.386 152.154 18.3384C150.251 17.2877 150.011 12.4625 152.394 11.7411C154.776 11.0167 152.337 10.1995 151.223 11.3998C151.223 11.3998 151.867 10.1306 151.903 9.56192C151.939 8.99318 150.02 10.7922 149.775 12.4295C149.532 14.0699 149.628 14.8751 149.628 14.8751C149.628 14.8751 148.598 13.4293 148.709 11.7201C148.82 10.0109 147.844 10.7772 147.898 12.9893C147.952 15.2014 148.957 15.0397 149.224 15.5097C149.49 15.9796 146.913 16.1502 146.563 14.6296C146.213 13.109 145.183 15.1834 147.12 16.3328C149.056 17.4823 149.499 15.9796 149.499 15.9796C149.499 15.9796 150.448 18.2276 150.274 18.8981C150.104 19.5686 145.566 28.1864 145.219 30.3596C144.872 32.5357 146.246 32.6435 146.276 32.9129C146.303 33.1314 146.042 36.6785 145.925 38.3727C145.752 38.0584 145.378 37.5586 144.749 37.5556C143.98 37.5526 144.306 38.265 144.429 38.4895C144.333 38.3368 144.064 37.9926 143.63 38.1333C143.079 38.3129 142.944 39.4833 143.549 39.4683C144.154 39.4533 144.408 39.3097 144.408 39.3097C144.408 39.3097 144.878 40.1897 144.112 40.1687C143.342 40.1448 144.764 41.417 144.875 41.1985C144.986 40.9799 144.567 40.6297 144.824 40.7584C145.081 40.8871 145.59 40.965 145.737 41.0368C145.884 41.1087 144.914 41.2164 145.222 41.5098C145.53 41.8031 147.153 43.1292 147.65 42.3269C148.149 41.5247 147.856 41.2853 147.856 41.2853C147.856 41.2853 148.55 41.3631 148.553 40.8123C148.556 40.2645 148.739 40.2645 148.868 40.3753C148.996 40.486 148.883 41.1625 149.173 41.3092C149.463 41.4559 150.493 40.8782 150.328 40.5669H150.325Z"/>
<path fill="#EF9115" d="M150.732 40.8959C150.732 40.8959 149.433 41.1803 150.241 41.8029C151.05 42.4255 151.071 40.8241 150.732 40.8959Z"/>
<path fill="#EF9115" d="M151.89 39.9324C151.89 39.9324 150.541 40.7376 151.702 41.2644C152.863 41.7912 152.779 39.4385 151.89 39.9324Z"/>
<path fill="#EF9115" d="M140.459 37.0556C140.459 37.0556 140.16 38.4864 141.172 37.8129C142.183 37.1394 140.597 36.3043 140.459 37.0556Z"/>
</g>
<defs>
<clipPath id="clip0_11914_19462">
<rect transform="translate(-21 -8)" fill="white" height="66" width="261"/>
</clipPath>
</defs>
</svg>