<svg width="940" height="765" viewBox="0 0 940 765" fill="none" xmlns="http://www.w3.org/2000/svg">
<path fill-rule="evenodd" clip-rule="evenodd" d="M89.9743 143.878C80.0197 143.878 70.7377 142.064 62.1283 138.437C55.4959 135.539 49.5021 131.804 44.1471 127.232L30.858 140.383H6L32.6088 114.589C29.3462 110.016 26.6082 105.069 24.3948 99.7471C20.8972 91.015 19.1484 81.6785 19.1484 71.7373C19.1484 61.6619 20.8972 52.3253 24.3948 43.7275C28.0269 34.9955 33.0042 27.3381 39.3268 20.7555C45.7838 14.1728 53.2498 9.06792 61.7247 5.44075C70.3341 1.81359 79.6161 0 89.5708 0C99.5254 0 108.74 1.81359 117.215 5.44075C123.549 8.10931 129.301 11.5777 134.47 15.846L149.299 1.47066L170.892 1.47067L170.889 1.46224H191.471L233.962 110.234L276.825 1.46224H297.205L240.706 141.31H226.985L170.989 1.71176L145.34 27.0933C149.224 32.1199 152.427 37.6647 154.949 43.7275C158.581 52.4596 160.397 61.8634 160.397 71.9388C160.397 81.88 158.581 91.2166 154.949 99.9486C151.316 108.681 146.272 116.338 139.815 122.921C133.492 129.503 126.026 134.675 117.417 138.437C108.942 142.064 99.7945 143.878 89.9743 143.878ZM68.9889 121.712C64.5998 119.806 60.6168 117.393 57.0399 114.474L131.908 40.3861C133.902 43.4568 135.596 46.7872 136.99 50.3773C139.546 56.8256 140.824 63.9456 140.824 71.7373C140.824 82.2158 138.604 91.5524 134.165 99.7471C129.726 107.807 123.672 114.189 116.004 118.89C108.471 123.458 99.6599 125.742 89.5708 125.742C82.1721 125.742 75.3114 124.398 68.9889 121.712ZM121.266 28.6456L46.1479 101.464C44.711 98.9691 43.4462 96.3145 42.3535 93.5003C39.9321 86.7833 38.7214 79.529 38.7214 71.7373C38.7214 61.2588 40.8738 51.9894 45.1785 43.929C49.6177 35.8687 55.6039 29.5547 63.1372 24.9872C70.8049 20.4196 79.6161 18.1358 89.5708 18.1358C97.104 18.1358 103.965 19.4792 110.153 22.166C114.203 23.8367 117.907 25.9965 121.266 28.6456ZM302.826 1.46224V141.31H315.74H321.794H396.05V123.98H321.794V18.792H395.041V1.46224H321.794H315.74H302.826ZM445.282 80.4539V64.5347H466.065C474.271 64.5347 480.594 62.4524 485.033 58.2879C489.472 54.1233 491.692 48.4811 491.692 41.3611C491.692 34.6441 489.472 29.069 485.033 24.6358C480.728 20.2026 474.473 17.986 466.267 17.986H434.385V141.31H415.418V1.46224H428.13H434.385H466.873C475.751 1.46224 483.486 3.20865 490.078 6.70147C496.669 10.06 501.714 14.6947 505.211 20.6056C508.843 26.5166 510.659 33.3007 510.659 40.9581C510.659 48.8841 508.843 55.8026 505.211 61.7135C501.714 67.6245 496.669 72.2592 490.078 75.6177C484.232 78.4767 477.488 80.0681 469.845 80.3919L520.143 141.31H496.131L445.282 80.4539ZM608.452 20.4653H582.112V141.863H563.144V20.4653H514.869V1.45619H634.772L608.452 20.4653ZM656.727 1.54034V1.46224H675.695V141.31H656.727V25.8682L627.453 48.0217L615.746 32.5526L656.727 1.54034ZM694.704 1.46224V141.31H713.671V42.8698L756.248 112.695H769.567L811.942 43.2008V141.31H830.91V1.46224H817.592L762.806 91.3423L708.021 1.46224H694.704ZM846.777 141.31V1.46224H859.691H865.744H938.992V18.792H865.744V123.98H940V141.31H865.744H859.691H846.777ZM884.791 78.9607V61.512H938.992V78.9607H884.791ZM394.955 62.865H335.003V80.4118H394.955V62.865Z" fill="white"/>
<path d="M308.65 747.55C304.85 747.55 301.6 746.8 298.9 745.3C296.2 743.8 294.117 741.7 292.65 739C291.217 736.267 290.5 733.05 290.5 729.35C290.5 726.583 290.9 724.1 291.7 721.9C292.533 719.667 293.733 717.767 295.3 716.2C296.867 714.6 298.767 713.367 301 712.5C303.267 711.633 305.817 711.2 308.65 711.2C310.317 711.2 312 711.417 313.7 711.85C315.433 712.25 316.933 712.833 318.2 713.6C319.033 714.067 319.6 714.65 319.9 715.35C320.2 716.05 320.283 716.75 320.15 717.45C320.05 718.15 319.767 718.75 319.3 719.25C318.867 719.75 318.317 720.067 317.65 720.2C316.983 720.333 316.233 720.183 315.4 719.75C314.4 719.15 313.35 718.717 312.25 718.45C311.15 718.183 310.033 718.05 308.9 718.05C306.667 718.05 304.783 718.5 303.25 719.4C301.75 720.267 300.617 721.533 299.85 723.2C299.083 724.867 298.7 726.917 298.7 729.35C298.7 731.75 299.083 733.8 299.85 735.5C300.617 737.2 301.75 738.5 303.25 739.4C304.783 740.267 306.667 740.7 308.9 740.7C309.967 740.7 311.05 740.567 312.15 740.3C313.283 740.033 314.367 739.617 315.4 739.05C316.267 738.617 317.033 738.467 317.7 738.6C318.4 738.7 318.967 739 319.4 739.5C319.867 739.967 320.15 740.533 320.25 741.2C320.383 741.867 320.317 742.533 320.05 743.2C319.783 743.867 319.283 744.433 318.55 744.9C317.317 745.733 315.8 746.383 314 746.85C312.2 747.317 310.417 747.55 308.65 747.55ZM340.908 747.55C337.441 747.55 334.391 746.8 331.758 745.3C329.158 743.767 327.124 741.633 325.658 738.9C324.224 736.167 323.508 732.983 323.508 729.35C323.508 726.583 323.908 724.1 324.708 721.9C325.541 719.667 326.724 717.767 328.258 716.2C329.791 714.6 331.624 713.367 333.758 712.5C335.924 711.633 338.308 711.2 340.908 711.2C344.441 711.2 347.508 711.95 350.108 713.45C352.708 714.95 354.724 717.067 356.158 719.8C357.624 722.5 358.358 725.667 358.358 729.3C358.358 732.067 357.941 734.567 357.108 736.8C356.274 739.033 355.091 740.95 353.558 742.55C352.024 744.15 350.191 745.383 348.058 746.25C345.924 747.117 343.541 747.55 340.908 747.55ZM340.908 740.95C342.874 740.95 344.541 740.5 345.908 739.6C347.308 738.667 348.374 737.333 349.108 735.6C349.874 733.833 350.258 731.75 350.258 729.35C350.258 725.683 349.441 722.85 347.808 720.85C346.174 718.817 343.874 717.8 340.908 717.8C338.974 717.8 337.308 718.25 335.908 719.15C334.508 720.05 333.441 721.367 332.708 723.1C331.974 724.833 331.608 726.917 331.608 729.35C331.608 732.983 332.424 735.833 334.058 737.9C335.691 739.933 337.974 740.95 340.908 740.95ZM367.953 747.45C366.819 747.45 365.953 747.133 365.353 746.5C364.753 745.867 364.453 744.983 364.453 743.85V714.9C364.453 713.767 364.769 712.883 365.403 712.25C366.069 711.617 366.969 711.3 368.103 711.3C369.103 711.3 369.886 711.5 370.453 711.9C371.053 712.267 371.603 712.917 372.103 713.85L383.653 734.95H381.953L393.503 713.85C394.003 712.917 394.536 712.267 395.103 711.9C395.703 711.5 396.486 711.3 397.453 711.3C398.586 711.3 399.453 711.617 400.053 712.25C400.686 712.883 401.003 713.767 401.003 714.9V743.85C401.003 744.983 400.703 745.867 400.103 746.5C399.503 747.133 398.636 747.45 397.503 747.45C396.369 747.45 395.486 747.133 394.853 746.5C394.253 745.867 393.953 744.983 393.953 743.85V723.6H395.053L385.753 740.25C385.353 740.883 384.919 741.367 384.453 741.7C384.019 742 383.436 742.15 382.703 742.15C381.969 742.15 381.369 741.983 380.903 741.65C380.436 741.317 380.019 740.85 379.653 740.25L370.253 723.55H371.453V743.85C371.453 744.983 371.153 745.867 370.553 746.5C369.986 747.133 369.119 747.45 367.953 747.45ZM412.052 747.45C410.785 747.45 409.818 747.1 409.152 746.4C408.485 745.7 408.152 744.717 408.152 743.45V715.3C408.152 714.033 408.485 713.05 409.152 712.35C409.818 711.65 410.785 711.3 412.052 711.3C413.285 711.3 414.235 711.65 414.902 712.35C415.568 713.05 415.902 714.033 415.902 715.3V743.45C415.902 744.717 415.568 745.7 414.902 746.4C414.268 747.1 413.318 747.45 412.052 747.45ZM426.595 747.45C425.429 747.45 424.529 747.133 423.895 746.5C423.295 745.833 422.995 744.9 422.995 743.7V715.2C422.995 713.933 423.295 712.967 423.895 712.3C424.529 711.633 425.362 711.3 426.395 711.3C427.295 711.3 427.979 711.483 428.445 711.85C428.945 712.183 429.512 712.75 430.145 713.55L447.695 735.9H446.345V715C446.345 713.833 446.645 712.933 447.245 712.3C447.879 711.633 448.779 711.3 449.945 711.3C451.112 711.3 451.995 711.633 452.595 712.3C453.229 712.933 453.545 713.833 453.545 715V743.85C453.545 744.95 453.262 745.833 452.695 746.5C452.129 747.133 451.362 747.45 450.395 747.45C449.462 747.45 448.712 747.267 448.145 746.9C447.612 746.533 447.029 745.95 446.395 745.15L428.895 722.8H430.195V743.7C430.195 744.9 429.895 745.833 429.295 746.5C428.695 747.133 427.795 747.45 426.595 747.45ZM478.092 747.55C474.125 747.55 470.758 746.8 467.992 745.3C465.258 743.8 463.175 741.7 461.742 739C460.308 736.3 459.592 733.133 459.592 729.5C459.592 726.7 460.008 724.183 460.842 721.95C461.708 719.683 462.942 717.767 464.542 716.2C466.175 714.6 468.142 713.367 470.442 712.5C472.775 711.633 475.408 711.2 478.342 711.2C480.142 711.2 481.942 711.4 483.742 711.8C485.542 712.2 487.275 712.867 488.942 713.8C489.642 714.2 490.108 714.717 490.342 715.35C490.608 715.95 490.675 716.6 490.542 717.3C490.442 717.967 490.175 718.567 489.742 719.1C489.342 719.6 488.808 719.933 488.142 720.1C487.508 720.233 486.775 720.1 485.942 719.7C484.842 719.1 483.675 718.667 482.442 718.4C481.208 718.1 479.858 717.95 478.392 717.95C476.025 717.95 474.042 718.4 472.442 719.3C470.842 720.167 469.642 721.467 468.842 723.2C468.075 724.9 467.692 727 467.692 729.5C467.692 733.267 468.592 736.117 470.392 738.05C472.225 739.983 474.925 740.95 478.492 740.95C479.692 740.95 480.925 740.833 482.192 740.6C483.458 740.367 484.708 740.033 485.942 739.6L484.492 742.75V733.15H479.992C478.992 733.15 478.225 732.9 477.692 732.4C477.158 731.9 476.892 731.217 476.892 730.35C476.892 729.45 477.158 728.767 477.692 728.3C478.225 727.8 478.992 727.55 479.992 727.55H487.842C488.842 727.55 489.592 727.817 490.092 728.35C490.625 728.883 490.892 729.65 490.892 730.65V742.25C490.892 743.117 490.725 743.85 490.392 744.45C490.058 745.05 489.492 745.483 488.692 745.75C487.192 746.283 485.508 746.717 483.642 747.05C481.775 747.383 479.925 747.55 478.092 747.55ZM524.316 747.55C522.916 747.55 521.483 747.433 520.016 747.2C518.583 747 517.199 746.7 515.866 746.3C514.566 745.9 513.399 745.4 512.366 744.8C511.633 744.4 511.116 743.883 510.816 743.25C510.516 742.583 510.399 741.917 510.466 741.25C510.566 740.583 510.816 740 511.216 739.5C511.649 738.967 512.183 738.633 512.816 738.5C513.483 738.333 514.216 738.45 515.016 738.85C516.383 739.617 517.866 740.183 519.466 740.55C521.099 740.917 522.716 741.1 524.316 741.1C526.749 741.1 528.483 740.733 529.516 740C530.549 739.233 531.066 738.283 531.066 737.15C531.066 736.183 530.699 735.417 529.966 734.85C529.233 734.283 527.949 733.8 526.116 733.4L520.466 732.2C517.266 731.533 514.883 730.4 513.316 728.8C511.783 727.167 511.016 725.033 511.016 722.4C511.016 720.733 511.366 719.217 512.066 717.85C512.766 716.483 513.749 715.3 515.016 714.3C516.283 713.3 517.783 712.533 519.516 712C521.283 711.467 523.216 711.2 525.316 711.2C527.183 711.2 529.016 711.433 530.816 711.9C532.616 712.333 534.199 712.983 535.566 713.85C536.233 714.25 536.683 714.767 536.916 715.4C537.183 716 537.266 716.617 537.166 717.25C537.099 717.85 536.849 718.383 536.416 718.85C536.016 719.317 535.499 719.617 534.866 719.75C534.233 719.883 533.466 719.733 532.566 719.3C531.466 718.733 530.299 718.317 529.066 718.05C527.833 717.783 526.566 717.65 525.266 717.65C523.866 717.65 522.666 717.833 521.666 718.2C520.699 718.567 519.949 719.083 519.416 719.75C518.916 720.417 518.666 721.183 518.666 722.05C518.666 723.017 519.016 723.8 519.716 724.4C520.416 725 521.633 725.483 523.366 725.85L529.016 727.05C532.283 727.75 534.716 728.883 536.316 730.45C537.916 731.983 538.716 734.017 538.716 736.55C538.716 738.217 538.383 739.733 537.716 741.1C537.049 742.433 536.083 743.583 534.816 744.55C533.549 745.517 532.033 746.267 530.266 746.8C528.499 747.3 526.516 747.55 524.316 747.55ZM560.097 747.55C556.631 747.55 553.581 746.8 550.947 745.3C548.347 743.767 546.314 741.633 544.847 738.9C543.414 736.167 542.697 732.983 542.697 729.35C542.697 726.583 543.097 724.1 543.897 721.9C544.731 719.667 545.914 717.767 547.447 716.2C548.981 714.6 550.814 713.367 552.947 712.5C555.114 711.633 557.497 711.2 560.097 711.2C563.631 711.2 566.697 711.95 569.297 713.45C571.897 714.95 573.914 717.067 575.347 719.8C576.814 722.5 577.547 725.667 577.547 729.3C577.547 732.067 577.131 734.567 576.297 736.8C575.464 739.033 574.281 740.95 572.747 742.55C571.214 744.15 569.381 745.383 567.247 746.25C565.114 747.117 562.731 747.55 560.097 747.55ZM560.097 740.95C562.064 740.95 563.731 740.5 565.097 739.6C566.497 738.667 567.564 737.333 568.297 735.6C569.064 733.833 569.447 731.75 569.447 729.35C569.447 725.683 568.631 722.85 566.997 720.85C565.364 718.817 563.064 717.8 560.097 717.8C558.164 717.8 556.497 718.25 555.097 719.15C553.697 720.05 552.631 721.367 551.897 723.1C551.164 724.833 550.797 726.917 550.797 729.35C550.797 732.983 551.614 735.833 553.247 737.9C554.881 739.933 557.164 740.95 560.097 740.95ZM599.892 747.55C596.426 747.55 593.376 746.8 590.742 745.3C588.142 743.767 586.109 741.633 584.642 738.9C583.209 736.167 582.492 732.983 582.492 729.35C582.492 726.583 582.892 724.1 583.692 721.9C584.526 719.667 585.709 717.767 587.242 716.2C588.776 714.6 590.609 713.367 592.742 712.5C594.909 711.633 597.292 711.2 599.892 711.2C603.426 711.2 606.492 711.95 609.092 713.45C611.692 714.95 613.709 717.067 615.142 719.8C616.609 722.5 617.342 725.667 617.342 729.3C617.342 732.067 616.926 734.567 616.092 736.8C615.259 739.033 614.076 740.95 612.542 742.55C611.009 744.15 609.176 745.383 607.042 746.25C604.909 747.117 602.526 747.55 599.892 747.55ZM599.892 740.95C601.859 740.95 603.526 740.5 604.892 739.6C606.292 738.667 607.359 737.333 608.092 735.6C608.859 733.833 609.242 731.75 609.242 729.35C609.242 725.683 608.426 722.85 606.792 720.85C605.159 718.817 602.859 717.8 599.892 717.8C597.959 717.8 596.292 718.25 594.892 719.15C593.492 720.05 592.426 721.367 591.692 723.1C590.959 724.833 590.592 726.917 590.592 729.35C590.592 732.983 591.409 735.833 593.042 737.9C594.676 739.933 596.959 740.95 599.892 740.95ZM626.937 747.45C625.77 747.45 624.87 747.133 624.237 746.5C623.637 745.833 623.337 744.9 623.337 743.7V715.2C623.337 713.933 623.637 712.967 624.237 712.3C624.87 711.633 625.704 711.3 626.737 711.3C627.637 711.3 628.32 711.483 628.787 711.85C629.287 712.183 629.854 712.75 630.487 713.55L648.037 735.9H646.687V715C646.687 713.833 646.987 712.933 647.587 712.3C648.22 711.633 649.12 711.3 650.287 711.3C651.454 711.3 652.337 711.633 652.937 712.3C653.57 712.933 653.887 713.833 653.887 715V743.85C653.887 744.95 653.604 745.833 653.037 746.5C652.47 747.133 651.704 747.45 650.737 747.45C649.804 747.45 649.054 747.267 648.487 746.9C647.954 746.533 647.37 745.95 646.737 745.15L629.237 722.8H630.537V743.7C630.537 744.9 630.237 745.833 629.637 746.5C629.037 747.133 628.137 747.45 626.937 747.45Z" fill="white"/>
<path d="M11.8045 202.324C10.6754 202.324 9.57033 202.228 8.48928 202.036C7.40823 201.844 6.39924 201.568 5.46233 201.207C4.54944 200.847 3.72064 200.39 2.97591 199.838C2.68763 199.622 2.48344 199.381 2.36332 199.117C2.26722 198.829 2.2432 198.553 2.29125 198.288C2.36332 198 2.48344 197.76 2.6516 197.568C2.84379 197.376 3.07201 197.267 3.33626 197.243C3.60052 197.219 3.8888 197.303 4.20111 197.496C5.28216 198.264 6.43528 198.829 7.66047 199.189C8.88566 199.526 10.267 199.694 11.8045 199.694C13.9666 199.694 15.5642 199.297 16.5972 198.505C17.6542 197.688 18.1827 196.619 18.1827 195.297C18.1827 194.216 17.7983 193.376 17.0296 192.775C16.2849 192.15 15.0236 191.658 13.2459 191.298L9.49826 190.541C7.24006 190.06 5.54641 189.28 4.41732 188.199C3.31224 187.094 2.7597 185.628 2.7597 183.802C2.7597 182.673 2.98793 181.652 3.44437 180.739C3.90081 179.802 4.53743 179.01 5.35423 178.361C6.17102 177.688 7.14397 177.172 8.27307 176.811C9.40216 176.451 10.6514 176.271 12.0207 176.271C13.5342 176.271 14.9396 176.487 16.2368 176.92C17.5581 177.328 18.7473 177.953 19.8043 178.793C20.0685 179.01 20.2487 179.262 20.3448 179.55C20.4409 179.814 20.4529 180.079 20.3808 180.343C20.3088 180.583 20.1766 180.787 19.9845 180.956C19.8163 181.124 19.5881 181.22 19.2998 181.244C19.0355 181.268 18.7352 181.172 18.3989 180.956C17.438 180.235 16.441 179.718 15.408 179.406C14.375 179.07 13.2339 178.902 11.9847 178.902C10.7114 178.902 9.60636 179.094 8.66945 179.478C7.75656 179.862 7.03586 180.427 6.50735 181.172C6.00286 181.892 5.75061 182.733 5.75061 183.694C5.75061 184.847 6.09895 185.76 6.79563 186.433C7.51633 187.106 8.68146 187.598 10.291 187.91L14.0387 188.703C16.465 189.208 18.2548 189.976 19.4079 191.009C20.585 192.018 21.1736 193.4 21.1736 195.153C21.1736 196.21 20.9574 197.183 20.525 198.072C20.0926 198.961 19.468 199.73 18.6512 200.378C17.8344 201.003 16.8494 201.483 15.6963 201.82C14.5432 202.156 13.2459 202.324 11.8045 202.324ZM27.2359 202.252C26.7555 202.252 26.3831 202.12 26.1189 201.856C25.8786 201.568 25.7585 201.183 25.7585 200.703V178.109C25.7585 177.604 25.8906 177.232 26.1549 176.992C26.4192 176.727 26.7915 176.595 27.272 176.595H35.8123C38.5269 176.595 40.617 177.268 42.0824 178.613C43.5478 179.935 44.2805 181.808 44.2805 184.235C44.2805 186.637 43.5478 188.511 42.0824 189.856C40.617 191.201 38.5269 191.874 35.8123 191.874H28.7134V200.703C28.7134 201.183 28.5933 201.568 28.353 201.856C28.1128 202.12 27.7404 202.252 27.2359 202.252ZM28.7134 189.388H35.4519C37.3978 189.388 38.8633 188.955 39.8482 188.09C40.8572 187.202 41.3617 185.916 41.3617 184.235C41.3617 182.529 40.8572 181.244 39.8482 180.379C38.8633 179.49 37.3978 179.046 35.4519 179.046H28.7134V189.388ZM58.9468 202.324C56.5925 202.324 54.5385 201.796 52.7848 200.739C51.0551 199.658 49.7098 198.144 48.7489 196.198C47.812 194.252 47.3435 191.946 47.3435 189.28C47.3435 187.262 47.6078 185.46 48.1363 183.874C48.6888 182.265 49.4696 180.907 50.4786 179.802C51.4875 178.673 52.7007 177.808 54.1181 177.208C55.5595 176.583 57.1691 176.271 58.9468 176.271C61.3491 176.271 63.4151 176.799 65.1448 177.857C66.8985 178.914 68.2438 180.415 69.1808 182.361C70.1417 184.283 70.6222 186.577 70.6222 189.244C70.6222 191.262 70.3459 193.075 69.7933 194.685C69.2408 196.294 68.46 197.664 67.4511 198.793C66.4421 199.922 65.2169 200.799 63.7755 201.423C62.3581 202.024 60.7485 202.324 58.9468 202.324ZM58.9468 199.694C60.7726 199.694 62.3101 199.285 63.5593 198.469C64.8325 197.652 65.8055 196.463 66.4781 194.901C67.1508 193.34 67.4871 191.466 67.4871 189.28C67.4871 185.988 66.7424 183.442 65.2529 181.64C63.7875 179.814 61.6855 178.902 58.9468 178.902C57.1691 178.902 55.6436 179.31 54.3703 180.127C53.1211 180.944 52.1602 182.133 51.4875 183.694C50.8149 185.232 50.4786 187.094 50.4786 189.28C50.4786 192.547 51.2233 195.105 52.7127 196.955C54.2022 198.781 56.2802 199.694 58.9468 199.694ZM77.3824 202.252C76.9019 202.252 76.5296 202.12 76.2653 201.856C76.0251 201.568 75.9049 201.183 75.9049 200.703V178.109C75.9049 177.604 76.0371 177.232 76.3013 176.992C76.5656 176.727 76.938 176.595 77.4184 176.595H85.9587C88.6734 176.595 90.7634 177.232 92.2288 178.505C93.6943 179.778 94.427 181.592 94.427 183.946C94.427 185.436 94.0906 186.733 93.418 187.838C92.7694 188.919 91.8084 189.748 90.5352 190.325C89.2619 190.877 87.7365 191.153 85.9587 191.153L86.3191 190.685H87.0398C87.9767 190.685 88.7935 190.925 89.4902 191.406C90.1868 191.886 90.8235 192.655 91.4 193.712L94.8594 200.162C95.0516 200.499 95.1357 200.835 95.1116 201.171C95.1116 201.483 95.0035 201.748 94.7873 201.964C94.5711 202.156 94.2588 202.252 93.8504 202.252C93.442 202.252 93.1057 202.156 92.8414 201.964C92.5772 201.772 92.3489 201.496 92.1568 201.135L88.2289 193.856C87.6764 192.823 87.0398 192.138 86.3191 191.802C85.5984 191.442 84.6495 191.262 83.4723 191.262H78.8598V200.703C78.8598 201.183 78.7397 201.568 78.4995 201.856C78.2592 202.12 77.8869 202.252 77.3824 202.252ZM78.8598 188.919H85.5263C87.4962 188.919 88.9857 188.511 89.9947 187.694C91.0036 186.853 91.5081 185.604 91.5081 183.946C91.5081 182.337 91.0036 181.124 89.9947 180.307C88.9857 179.466 87.4962 179.046 85.5263 179.046H78.8598V188.919ZM107.018 202.252C106.562 202.252 106.201 202.12 105.937 201.856C105.673 201.568 105.541 201.183 105.541 200.703V179.154H97.4328C97.0004 179.154 96.664 179.034 96.4238 178.793C96.1836 178.553 96.0635 178.241 96.0635 177.857C96.0635 177.448 96.1836 177.136 96.4238 176.92C96.664 176.703 97.0004 176.595 97.4328 176.595H116.639C117.072 176.595 117.408 176.703 117.648 176.92C117.889 177.136 118.009 177.448 118.009 177.857C118.009 178.265 117.889 178.589 117.648 178.829C117.408 179.046 117.072 179.154 116.639 179.154H108.532V200.703C108.532 201.183 108.399 201.568 108.135 201.856C107.895 202.12 107.523 202.252 107.018 202.252ZM128.32 202.324C127.191 202.324 126.086 202.228 125.005 202.036C123.924 201.844 122.915 201.568 121.978 201.207C121.065 200.847 120.236 200.39 119.492 199.838C119.203 199.622 118.999 199.381 118.879 199.117C118.783 198.829 118.759 198.553 118.807 198.288C118.879 198 118.999 197.76 119.167 197.568C119.359 197.376 119.588 197.267 119.852 197.243C120.116 197.219 120.404 197.303 120.717 197.496C121.798 198.264 122.951 198.829 124.176 199.189C125.401 199.526 126.783 199.694 128.32 199.694C130.482 199.694 132.08 199.297 133.113 198.505C134.17 197.688 134.698 196.619 134.698 195.297C134.698 194.216 134.314 193.376 133.545 192.775C132.801 192.15 131.539 191.658 129.762 191.298L126.014 190.541C123.756 190.06 122.062 189.28 120.933 188.199C119.828 187.094 119.275 185.628 119.275 183.802C119.275 182.673 119.504 181.652 119.96 180.739C120.416 179.802 121.053 179.01 121.87 178.361C122.687 177.688 123.66 177.172 124.789 176.811C125.918 176.451 127.167 176.271 128.536 176.271C130.05 176.271 131.455 176.487 132.752 176.92C134.074 177.328 135.263 177.953 136.32 178.793C136.584 179.01 136.764 179.262 136.86 179.55C136.957 179.814 136.969 180.079 136.897 180.343C136.824 180.583 136.692 180.787 136.5 180.956C136.332 181.124 136.104 181.22 135.815 181.244C135.551 181.268 135.251 181.172 134.915 180.956C133.954 180.235 132.957 179.718 131.924 179.406C130.891 179.07 129.75 178.902 128.5 178.902C127.227 178.902 126.122 179.094 125.185 179.478C124.272 179.862 123.552 180.427 123.023 181.172C122.519 181.892 122.266 182.733 122.266 183.694C122.266 184.847 122.615 185.76 123.311 186.433C124.032 187.106 125.197 187.598 126.807 187.91L130.554 188.703C132.981 189.208 134.77 189.976 135.924 191.009C137.101 192.018 137.689 193.4 137.689 195.153C137.689 196.21 137.473 197.183 137.041 198.072C136.608 198.961 135.984 199.73 135.167 200.378C134.35 201.003 133.365 201.483 132.212 201.82C131.059 202.156 129.762 202.324 128.32 202.324ZM153.006 202.252C152.573 202.252 152.237 202.132 151.997 201.892C151.757 201.628 151.637 201.267 151.637 200.811V177.784C151.637 177.304 151.757 176.944 151.997 176.703C152.237 176.463 152.573 176.343 153.006 176.343C153.39 176.343 153.691 176.427 153.907 176.595C154.147 176.739 154.363 176.992 154.555 177.352L164.429 195.946H163.348L173.186 177.352C173.378 176.992 173.582 176.739 173.798 176.595C174.014 176.427 174.327 176.343 174.735 176.343C175.143 176.343 175.468 176.463 175.708 176.703C175.948 176.944 176.068 177.304 176.068 177.784V200.811C176.068 201.267 175.948 201.628 175.708 201.892C175.492 202.132 175.155 202.252 174.699 202.252C174.267 202.252 173.93 202.132 173.69 201.892C173.45 201.628 173.33 201.267 173.33 200.811V180.559H174.194L165.186 197.46C165.018 197.772 164.837 198 164.645 198.144C164.477 198.264 164.225 198.324 163.888 198.324C163.552 198.324 163.288 198.252 163.096 198.108C162.904 197.964 162.735 197.748 162.591 197.46L153.474 180.523H154.339V200.811C154.339 201.267 154.219 201.628 153.979 201.892C153.763 202.132 153.438 202.252 153.006 202.252ZM181.851 202.252C181.466 202.252 181.154 202.168 180.914 202C180.698 201.808 180.566 201.568 180.518 201.279C180.493 200.967 180.566 200.619 180.734 200.234L190.643 177.676C190.86 177.196 191.112 176.86 191.4 176.667C191.712 176.451 192.049 176.343 192.409 176.343C192.769 176.343 193.094 176.451 193.382 176.667C193.694 176.86 193.947 177.196 194.139 177.676L204.084 200.234C204.277 200.619 204.349 200.967 204.301 201.279C204.277 201.592 204.157 201.832 203.94 202C203.724 202.168 203.424 202.252 203.039 202.252C202.607 202.252 202.259 202.144 201.994 201.928C201.73 201.688 201.514 201.351 201.346 200.919L198.679 194.757L200.121 195.514H184.626L186.103 194.757L183.472 200.919C183.256 201.375 183.028 201.712 182.788 201.928C182.547 202.144 182.235 202.252 181.851 202.252ZM192.373 180.055L186.571 193.712L185.707 193.027H199.04L198.247 193.712L192.445 180.055H192.373ZM210.121 202.252C209.64 202.252 209.268 202.12 209.004 201.856C208.764 201.568 208.643 201.183 208.643 200.703V178.109C208.643 177.604 208.776 177.232 209.04 176.992C209.304 176.727 209.676 176.595 210.157 176.595H218.697C221.412 176.595 223.502 177.232 224.967 178.505C226.433 179.778 227.165 181.592 227.165 183.946C227.165 185.436 226.829 186.733 226.156 187.838C225.508 188.919 224.547 189.748 223.274 190.325C222 190.877 220.475 191.153 218.697 191.153L219.058 190.685H219.778C220.715 190.685 221.532 190.925 222.229 191.406C222.925 191.886 223.562 192.655 224.138 193.712L227.598 200.162C227.79 200.499 227.874 200.835 227.85 201.171C227.85 201.483 227.742 201.748 227.526 201.964C227.31 202.156 226.997 202.252 226.589 202.252C226.18 202.252 225.844 202.156 225.58 201.964C225.316 201.772 225.087 201.496 224.895 201.135L220.967 193.856C220.415 192.823 219.778 192.138 219.058 191.802C218.337 191.442 217.388 191.262 216.211 191.262H211.598V200.703C211.598 201.183 211.478 201.568 211.238 201.856C210.998 202.12 210.625 202.252 210.121 202.252ZM211.598 188.919H218.265C220.235 188.919 221.724 188.511 222.733 187.694C223.742 186.853 224.247 185.604 224.247 183.946C224.247 182.337 223.742 181.124 222.733 180.307C221.724 179.466 220.235 179.046 218.265 179.046H211.598V188.919ZM234.226 202.252C233.746 202.252 233.374 202.12 233.109 201.856C232.869 201.568 232.749 201.183 232.749 200.703V177.857C232.749 177.352 232.869 176.98 233.109 176.739C233.374 176.475 233.746 176.343 234.226 176.343C234.707 176.343 235.067 176.475 235.307 176.739C235.572 176.98 235.704 177.352 235.704 177.857V188.127H235.776L247.523 177.172C247.812 176.884 248.1 176.679 248.388 176.559C248.676 176.415 248.989 176.343 249.325 176.343C249.781 176.343 250.106 176.451 250.298 176.667C250.514 176.884 250.598 177.148 250.55 177.46C250.502 177.772 250.334 178.073 250.046 178.361L237.758 189.748L237.794 188.163L250.622 200.018C250.983 200.354 251.175 200.703 251.199 201.063C251.223 201.399 251.115 201.688 250.875 201.928C250.658 202.144 250.322 202.252 249.866 202.252C249.505 202.252 249.193 202.168 248.929 202C248.688 201.856 248.412 201.628 248.1 201.315L235.776 190.036H235.704V200.703C235.704 201.183 235.584 201.568 235.343 201.856C235.103 202.12 234.731 202.252 234.226 202.252ZM256.892 202C256.364 202 255.955 201.868 255.667 201.604C255.403 201.315 255.271 200.907 255.271 200.378V178.217C255.271 177.688 255.403 177.292 255.667 177.028C255.955 176.739 256.364 176.595 256.892 176.595H270.297C270.706 176.595 271.018 176.703 271.234 176.92C271.451 177.136 271.559 177.436 271.559 177.82C271.559 178.229 271.451 178.541 271.234 178.757C271.018 178.974 270.706 179.082 270.297 179.082H258.154V187.874H269.541C269.949 187.874 270.261 187.982 270.478 188.199C270.694 188.391 270.802 188.691 270.802 189.099C270.802 189.508 270.694 189.82 270.478 190.036C270.261 190.253 269.949 190.361 269.541 190.361H258.154V199.514H270.297C270.706 199.514 271.018 199.622 271.234 199.838C271.451 200.054 271.559 200.354 271.559 200.739C271.559 201.147 271.451 201.459 271.234 201.676C271.018 201.892 270.706 202 270.297 202H256.892ZM283.534 202.252C283.077 202.252 282.717 202.12 282.453 201.856C282.188 201.568 282.056 201.183 282.056 200.703V179.154H273.948C273.516 179.154 273.179 179.034 272.939 178.793C272.699 178.553 272.579 178.241 272.579 177.857C272.579 177.448 272.699 177.136 272.939 176.92C273.179 176.703 273.516 176.595 273.948 176.595H293.155C293.587 176.595 293.924 176.703 294.164 176.92C294.404 177.136 294.524 177.448 294.524 177.857C294.524 178.265 294.404 178.589 294.164 178.829C293.924 179.046 293.587 179.154 293.155 179.154H285.047V200.703C285.047 201.183 284.915 201.568 284.651 201.856C284.41 202.12 284.038 202.252 283.534 202.252ZM304.836 202.324C303.707 202.324 302.601 202.228 301.52 202.036C300.439 201.844 299.43 201.568 298.493 201.207C297.581 200.847 296.752 200.39 296.007 199.838C295.719 199.622 295.515 199.381 295.394 199.117C295.298 198.829 295.274 198.553 295.322 198.288C295.394 198 295.515 197.76 295.683 197.568C295.875 197.376 296.103 197.267 296.367 197.243C296.632 197.219 296.92 197.303 297.232 197.496C298.313 198.264 299.466 198.829 300.692 199.189C301.917 199.526 303.298 199.694 304.836 199.694C306.998 199.694 308.595 199.297 309.628 198.505C310.685 197.688 311.214 196.619 311.214 195.297C311.214 194.216 310.829 193.376 310.061 192.775C309.316 192.15 308.055 191.658 306.277 191.298L302.529 190.541C300.271 190.06 298.578 189.28 297.448 188.199C296.343 187.094 295.791 185.628 295.791 183.802C295.791 182.673 296.019 181.652 296.475 180.739C296.932 179.802 297.569 179.01 298.385 178.361C299.202 177.688 300.175 177.172 301.304 176.811C302.433 176.451 303.683 176.271 305.052 176.271C306.565 176.271 307.971 176.487 309.268 176.92C310.589 177.328 311.778 177.953 312.835 178.793C313.1 179.01 313.28 179.262 313.376 179.55C313.472 179.814 313.484 180.079 313.412 180.343C313.34 180.583 313.208 180.787 313.016 180.956C312.847 181.124 312.619 181.22 312.331 181.244C312.067 181.268 311.766 181.172 311.43 180.956C310.469 180.235 309.472 179.718 308.439 179.406C307.406 179.07 306.265 178.902 305.016 178.902C303.743 178.902 302.637 179.094 301.701 179.478C300.788 179.862 300.067 180.427 299.538 181.172C299.034 181.892 298.782 182.733 298.782 183.694C298.782 184.847 299.13 185.76 299.827 186.433C300.547 187.106 301.713 187.598 303.322 187.91L307.07 188.703C309.496 189.208 311.286 189.976 312.439 191.009C313.616 192.018 314.205 193.4 314.205 195.153C314.205 196.21 313.989 197.183 313.556 198.072C313.124 198.961 312.499 199.73 311.682 200.378C310.865 201.003 309.881 201.483 308.727 201.82C307.574 202.156 306.277 202.324 304.836 202.324ZM328.717 202.324C328.044 202.324 327.492 202.168 327.059 201.856C326.651 201.544 326.386 201.123 326.266 200.595C326.17 200.066 326.278 199.478 326.591 198.829L335.816 178.613C336.2 177.796 336.656 177.208 337.185 176.848C337.713 176.463 338.326 176.271 339.023 176.271C339.719 176.271 340.332 176.463 340.861 176.848C341.389 177.208 341.833 177.796 342.194 178.613L351.491 198.829C351.803 199.478 351.911 200.078 351.815 200.631C351.743 201.159 351.503 201.58 351.094 201.892C350.686 202.18 350.158 202.324 349.509 202.324C348.692 202.324 348.056 202.132 347.599 201.748C347.167 201.363 346.782 200.763 346.446 199.946L344.284 194.937L346.518 196.487H331.491L333.726 194.937L331.6 199.946C331.239 200.787 330.855 201.399 330.446 201.784C330.062 202.144 329.485 202.324 328.717 202.324ZM338.951 182.541L334.338 193.532L333.365 192.126H344.644L343.671 193.532L339.023 182.541H338.951ZM357.722 202.324C356.906 202.324 356.281 202.096 355.849 201.64C355.416 201.183 355.2 200.547 355.2 199.73V178.865C355.2 178.049 355.428 177.412 355.885 176.956C356.365 176.499 357.014 176.271 357.831 176.271C358.551 176.271 359.116 176.415 359.524 176.703C359.957 176.968 360.353 177.436 360.713 178.109L369.037 193.316H367.812L376.136 178.109C376.497 177.436 376.881 176.968 377.289 176.703C377.722 176.415 378.286 176.271 378.983 176.271C379.8 176.271 380.424 176.499 380.857 176.956C381.313 177.412 381.542 178.049 381.542 178.865V199.73C381.542 200.547 381.325 201.183 380.893 201.64C380.461 202.096 379.836 202.324 379.019 202.324C378.202 202.324 377.566 202.096 377.109 201.64C376.677 201.183 376.461 200.547 376.461 199.73V185.136H377.253L370.551 197.135C370.263 197.592 369.95 197.94 369.614 198.18C369.302 198.396 368.881 198.505 368.353 198.505C367.824 198.505 367.392 198.384 367.055 198.144C366.719 197.904 366.419 197.568 366.155 197.135L359.38 185.1H360.245V199.73C360.245 200.547 360.029 201.183 359.596 201.64C359.188 202.096 358.563 202.324 357.722 202.324ZM389.288 202.324C388.471 202.324 387.847 202.096 387.414 201.64C386.982 201.183 386.766 200.547 386.766 199.73V178.865C386.766 178.049 386.994 177.412 387.45 176.956C387.931 176.499 388.58 176.271 389.396 176.271C390.117 176.271 390.682 176.415 391.09 176.703C391.522 176.968 391.919 177.436 392.279 178.109L400.603 193.316H399.378L407.702 178.109C408.063 177.436 408.447 176.968 408.855 176.703C409.288 176.415 409.852 176.271 410.549 176.271C411.366 176.271 411.99 176.499 412.423 176.956C412.879 177.412 413.107 178.049 413.107 178.865V199.73C413.107 200.547 412.891 201.183 412.459 201.64C412.026 202.096 411.402 202.324 410.585 202.324C409.768 202.324 409.132 202.096 408.675 201.64C408.243 201.183 408.026 200.547 408.026 199.73V185.136H408.819L402.117 197.135C401.828 197.592 401.516 197.94 401.18 198.18C400.868 198.396 400.447 198.505 399.919 198.505C399.39 198.505 398.958 198.384 398.621 198.144C398.285 197.904 397.985 197.568 397.72 197.135L390.946 185.1H391.811V199.73C391.811 200.547 391.595 201.183 391.162 201.64C390.754 202.096 390.129 202.324 389.288 202.324ZM430.241 202C429.712 202 429.304 201.868 429.016 201.604C428.751 201.315 428.619 200.907 428.619 200.378V178.217C428.619 177.688 428.751 177.292 429.016 177.028C429.304 176.739 429.712 176.595 430.241 176.595H438.781C440.535 176.595 442.012 176.86 443.213 177.388C444.439 177.893 445.375 178.637 446.024 179.622C446.673 180.607 446.997 181.808 446.997 183.226C446.997 184.811 446.529 186.133 445.592 187.19C444.679 188.247 443.43 188.943 441.844 189.28V188.775C443.646 188.991 445.051 189.64 446.06 190.721C447.093 191.802 447.61 193.231 447.61 195.009C447.61 197.267 446.877 198.997 445.411 200.198C443.946 201.399 441.88 202 439.213 202H430.241ZM431.502 199.622H438.925C440.847 199.622 442.288 199.237 443.249 198.469C444.21 197.7 444.691 196.535 444.691 194.973C444.691 193.388 444.21 192.222 443.249 191.478C442.288 190.709 440.847 190.325 438.925 190.325H431.502V199.622ZM431.502 187.946H438.349C440.222 187.946 441.64 187.562 442.601 186.793C443.586 186.024 444.078 184.919 444.078 183.478C444.078 181.989 443.586 180.871 442.601 180.127C441.64 179.358 440.222 178.974 438.349 178.974H431.502V187.946ZM462.989 202.324C461.307 202.324 459.83 202.108 458.556 201.676C457.307 201.219 456.25 200.559 455.385 199.694C454.52 198.805 453.872 197.712 453.439 196.415C453.007 195.117 452.791 193.628 452.791 191.946V177.857C452.791 177.352 452.911 176.98 453.151 176.739C453.415 176.475 453.788 176.343 454.268 176.343C454.749 176.343 455.109 176.475 455.349 176.739C455.613 176.98 455.746 177.352 455.746 177.857V191.802C455.746 194.445 456.358 196.427 457.583 197.748C458.809 199.045 460.61 199.694 462.989 199.694C465.367 199.694 467.157 199.045 468.358 197.748C469.559 196.427 470.16 194.445 470.16 191.802V177.857C470.16 177.352 470.292 176.98 470.556 176.739C470.82 176.475 471.193 176.343 471.673 176.343C472.13 176.343 472.478 176.475 472.718 176.739C472.982 176.98 473.115 177.352 473.115 177.857V191.946C473.115 194.18 472.73 196.078 471.961 197.64C471.217 199.201 470.088 200.378 468.574 201.171C467.061 201.94 465.199 202.324 462.989 202.324ZM480.665 202.252C480.185 202.252 479.812 202.12 479.548 201.856C479.308 201.568 479.188 201.183 479.188 200.703V177.893C479.188 177.388 479.308 177.004 479.548 176.739C479.812 176.475 480.185 176.343 480.665 176.343C481.146 176.343 481.506 176.475 481.746 176.739C482.011 177.004 482.143 177.388 482.143 177.893V200.703C482.143 201.183 482.023 201.568 481.782 201.856C481.542 202.12 481.17 202.252 480.665 202.252ZM489.956 202C489.476 202 489.104 201.868 488.839 201.604C488.575 201.315 488.443 200.931 488.443 200.45V177.965C488.443 177.46 488.563 177.076 488.803 176.811C489.068 176.547 489.44 176.415 489.92 176.415C490.401 176.415 490.761 176.547 491.001 176.811C491.266 177.076 491.398 177.46 491.398 177.965V199.405H503.217C503.65 199.405 503.986 199.526 504.226 199.766C504.466 199.982 504.587 200.294 504.587 200.703C504.587 201.111 504.466 201.435 504.226 201.676C503.986 201.892 503.65 202 503.217 202H489.956ZM511.146 202.252C510.689 202.252 510.329 202.12 510.065 201.856C509.8 201.568 509.668 201.183 509.668 200.703V179.154H501.56C501.128 179.154 500.791 179.034 500.551 178.793C500.311 178.553 500.191 178.241 500.191 177.857C500.191 177.448 500.311 177.136 500.551 176.92C500.791 176.703 501.128 176.595 501.56 176.595H520.767C521.199 176.595 521.536 176.703 521.776 176.92C522.016 177.136 522.136 177.448 522.136 177.857C522.136 178.265 522.016 178.589 521.776 178.829C521.536 179.046 521.199 179.154 520.767 179.154H512.659V200.703C512.659 201.183 512.527 201.568 512.263 201.856C512.022 202.12 511.65 202.252 511.146 202.252ZM545.068 202.324C542.714 202.324 540.66 201.796 538.906 200.739C537.176 199.658 535.831 198.144 534.87 196.198C533.933 194.252 533.465 191.946 533.465 189.28C533.465 187.262 533.729 185.46 534.258 183.874C534.81 182.265 535.591 180.907 536.6 179.802C537.609 178.673 538.822 177.808 540.239 177.208C541.681 176.583 543.29 176.271 545.068 176.271C547.47 176.271 549.536 176.799 551.266 177.857C553.02 178.914 554.365 180.415 555.302 182.361C556.263 184.283 556.743 186.577 556.743 189.244C556.743 191.262 556.467 193.075 555.915 194.685C555.362 196.294 554.581 197.664 553.572 198.793C552.563 199.922 551.338 200.799 549.897 201.423C548.479 202.024 546.87 202.324 545.068 202.324ZM545.068 199.694C546.894 199.694 548.431 199.285 549.681 198.469C550.954 197.652 551.927 196.463 552.599 194.901C553.272 193.34 553.608 191.466 553.608 189.28C553.608 185.988 552.864 183.442 551.374 181.64C549.909 179.814 547.807 178.902 545.068 178.902C543.29 178.902 541.765 179.31 540.492 180.127C539.242 180.944 538.281 182.133 537.609 183.694C536.936 185.232 536.6 187.094 536.6 189.28C536.6 192.547 537.345 195.105 538.834 196.955C540.323 198.781 542.401 199.694 545.068 199.694ZM563.432 202.252C562.975 202.252 562.627 202.132 562.387 201.892C562.146 201.628 562.026 201.255 562.026 200.775V177.857C562.026 177.376 562.146 177.004 562.387 176.739C562.627 176.475 562.939 176.343 563.323 176.343C563.708 176.343 563.984 176.415 564.152 176.559C564.344 176.679 564.561 176.908 564.801 177.244L580.512 198.18H579.647V177.784C579.647 177.328 579.767 176.98 580.008 176.739C580.248 176.475 580.596 176.343 581.053 176.343C581.485 176.343 581.809 176.475 582.026 176.739C582.266 176.98 582.386 177.328 582.386 177.784V200.811C582.386 201.267 582.278 201.628 582.062 201.892C581.869 202.132 581.581 202.252 581.197 202.252C580.836 202.252 580.548 202.18 580.332 202.036C580.116 201.892 579.888 201.664 579.647 201.351L563.972 180.415H564.801V200.775C564.801 201.255 564.681 201.628 564.441 201.892C564.2 202.132 563.864 202.252 563.432 202.252ZM606.772 202.324C605.859 202.324 605.162 202.072 604.682 201.568C604.201 201.063 603.961 200.354 603.961 199.442V181.208H597.583C596.838 181.208 596.261 181.004 595.853 180.595C595.445 180.187 595.24 179.622 595.24 178.902C595.24 178.157 595.445 177.592 595.853 177.208C596.261 176.799 596.838 176.595 597.583 176.595H615.925C616.669 176.595 617.246 176.799 617.654 177.208C618.063 177.592 618.267 178.157 618.267 178.902C618.267 179.622 618.063 180.187 617.654 180.595C617.246 181.004 616.669 181.208 615.925 181.208H609.546V199.442C609.546 200.354 609.306 201.063 608.826 201.568C608.369 202.072 607.685 202.324 606.772 202.324ZM623.486 202.324C622.573 202.324 621.876 202.072 621.396 201.568C620.915 201.063 620.675 200.354 620.675 199.442V179.154C620.675 178.241 620.915 177.532 621.396 177.028C621.876 176.523 622.573 176.271 623.486 176.271C624.375 176.271 625.059 176.523 625.54 177.028C626.02 177.532 626.261 178.241 626.261 179.154V186.793H638.08V179.154C638.08 178.241 638.32 177.532 638.801 177.028C639.281 176.523 639.966 176.271 640.855 176.271C641.768 176.271 642.464 176.523 642.945 177.028C643.425 177.532 643.666 178.241 643.666 179.154V199.442C643.666 200.354 643.425 201.063 642.945 201.568C642.464 202.072 641.768 202.324 640.855 202.324C639.966 202.324 639.281 202.072 638.801 201.568C638.32 201.063 638.08 200.354 638.08 199.442V191.442H626.261V199.442C626.261 200.354 626.02 201.063 625.54 201.568C625.083 202.072 624.399 202.324 623.486 202.324ZM649.513 202.324C648.84 202.324 648.288 202.168 647.855 201.856C647.447 201.544 647.183 201.123 647.063 200.595C646.967 200.066 647.075 199.478 647.387 198.829L656.612 178.613C656.996 177.796 657.453 177.208 657.981 176.848C658.51 176.463 659.122 176.271 659.819 176.271C660.516 176.271 661.128 176.463 661.657 176.848C662.185 177.208 662.63 177.796 662.99 178.613L672.287 198.829C672.6 199.478 672.708 200.078 672.612 200.631C672.539 201.159 672.299 201.58 671.891 201.892C671.482 202.18 670.954 202.324 670.305 202.324C669.489 202.324 668.852 202.132 668.395 201.748C667.963 201.363 667.579 200.763 667.242 199.946L665.08 194.937L667.314 196.487H652.288L654.522 194.937L652.396 199.946C652.036 200.787 651.651 201.399 651.243 201.784C650.858 202.144 650.282 202.324 649.513 202.324ZM659.747 182.541L655.135 193.532L654.162 192.126H665.441L664.468 193.532L659.819 182.541H659.747ZM678.771 202C677.858 202 677.15 201.748 676.645 201.243C676.165 200.739 675.924 200.042 675.924 199.153V179.37C675.924 178.433 676.165 177.724 676.645 177.244C677.126 176.763 677.822 176.523 678.735 176.523C679.624 176.523 680.309 176.763 680.789 177.244C681.27 177.724 681.51 178.433 681.51 179.37V197.279H691.167C691.936 197.279 692.524 197.484 692.933 197.892C693.365 198.3 693.582 198.877 693.582 199.622C693.582 200.39 693.365 200.979 692.933 201.387C692.524 201.796 691.936 202 691.167 202H678.771ZM699.5 202C698.563 202 697.842 201.748 697.338 201.243C696.833 200.739 696.581 200.018 696.581 199.081V179.514C696.581 178.577 696.833 177.857 697.338 177.352C697.842 176.848 698.563 176.595 699.5 176.595H712.076C712.797 176.595 713.337 176.787 713.698 177.172C714.082 177.532 714.274 178.061 714.274 178.757C714.274 179.478 714.082 180.031 713.698 180.415C713.337 180.775 712.797 180.956 712.076 180.956H701.914V186.901H711.247C711.992 186.901 712.545 187.094 712.905 187.478C713.289 187.838 713.482 188.379 713.482 189.099C713.482 189.82 713.289 190.373 712.905 190.757C712.545 191.117 711.992 191.298 711.247 191.298H701.914V197.64H712.076C712.797 197.64 713.337 197.832 713.698 198.216C714.082 198.577 714.274 199.105 714.274 199.802C714.274 200.523 714.082 201.075 713.698 201.459C713.337 201.82 712.797 202 712.076 202H699.5ZM727.128 202.396C726.119 202.396 725.086 202.312 724.029 202.144C722.996 202 721.999 201.784 721.038 201.496C720.101 201.207 719.26 200.847 718.516 200.414C717.987 200.126 717.615 199.754 717.399 199.297C717.182 198.817 717.098 198.336 717.146 197.856C717.218 197.376 717.399 196.955 717.687 196.595C717.999 196.21 718.384 195.97 718.84 195.874C719.32 195.754 719.849 195.838 720.426 196.126C721.411 196.679 722.48 197.087 723.633 197.351C724.81 197.616 725.975 197.748 727.128 197.748C728.882 197.748 730.131 197.484 730.876 196.955C731.62 196.403 731.993 195.718 731.993 194.901C731.993 194.204 731.729 193.652 731.2 193.243C730.672 192.835 729.747 192.487 728.425 192.198L724.353 191.334C722.047 190.853 720.329 190.036 719.2 188.883C718.095 187.706 717.543 186.169 717.543 184.271C717.543 183.07 717.795 181.977 718.3 180.992C718.804 180.007 719.513 179.154 720.426 178.433C721.338 177.712 722.42 177.16 723.669 176.775C724.942 176.391 726.335 176.199 727.849 176.199C729.194 176.199 730.515 176.367 731.813 176.703C733.11 177.016 734.251 177.484 735.236 178.109C735.716 178.397 736.041 178.769 736.209 179.226C736.401 179.658 736.461 180.103 736.389 180.559C736.341 180.992 736.161 181.376 735.849 181.712C735.56 182.049 735.188 182.265 734.731 182.361C734.275 182.457 733.723 182.349 733.074 182.037C732.281 181.628 731.44 181.328 730.551 181.136C729.663 180.944 728.75 180.847 727.813 180.847C726.804 180.847 725.939 180.98 725.218 181.244C724.522 181.508 723.981 181.88 723.597 182.361C723.236 182.841 723.056 183.394 723.056 184.019C723.056 184.715 723.308 185.28 723.813 185.712C724.317 186.145 725.194 186.493 726.443 186.757L730.515 187.622C732.87 188.127 734.623 188.943 735.777 190.072C736.93 191.177 737.506 192.643 737.506 194.469C737.506 195.67 737.266 196.763 736.785 197.748C736.305 198.709 735.608 199.538 734.695 200.234C733.783 200.931 732.69 201.471 731.416 201.856C730.143 202.216 728.714 202.396 727.128 202.396ZM752.969 202.252C752.489 202.252 752.116 202.12 751.852 201.856C751.612 201.568 751.492 201.183 751.492 200.703V178.109C751.492 177.604 751.624 177.232 751.888 176.992C752.152 176.727 752.525 176.595 753.005 176.595H761.546C764.26 176.595 766.35 177.268 767.816 178.613C769.281 179.935 770.014 181.808 770.014 184.235C770.014 186.637 769.281 188.511 767.816 189.856C766.35 191.201 764.26 191.874 761.546 191.874H754.447V200.703C754.447 201.183 754.326 201.568 754.086 201.856C753.846 202.12 753.474 202.252 752.969 202.252ZM754.447 189.388H761.185C763.131 189.388 764.596 188.955 765.581 188.09C766.59 187.202 767.095 185.916 767.095 184.235C767.095 182.529 766.59 181.244 765.581 180.379C764.596 179.49 763.131 179.046 761.185 179.046H754.447V189.388ZM775.773 202.252C775.292 202.252 774.92 202.12 774.656 201.856C774.415 201.568 774.295 201.183 774.295 200.703V178.109C774.295 177.604 774.427 177.232 774.692 176.992C774.956 176.727 775.328 176.595 775.809 176.595H784.349C787.064 176.595 789.154 177.232 790.619 178.505C792.085 179.778 792.817 181.592 792.817 183.946C792.817 185.436 792.481 186.733 791.808 187.838C791.16 188.919 790.199 189.748 788.925 190.325C787.652 190.877 786.127 191.153 784.349 191.153L784.709 190.685H785.43C786.367 190.685 787.184 190.925 787.88 191.406C788.577 191.886 789.214 192.655 789.79 193.712L793.25 200.162C793.442 200.499 793.526 200.835 793.502 201.171C793.502 201.483 793.394 201.748 793.178 201.964C792.961 202.156 792.649 202.252 792.241 202.252C791.832 202.252 791.496 202.156 791.232 201.964C790.967 201.772 790.739 201.496 790.547 201.135L786.619 193.856C786.067 192.823 785.43 192.138 784.709 191.802C783.989 191.442 783.04 191.262 781.863 191.262H777.25V200.703C777.25 201.183 777.13 201.568 776.89 201.856C776.649 202.12 776.277 202.252 775.773 202.252ZM777.25 188.919H783.917C785.886 188.919 787.376 188.511 788.385 187.694C789.394 186.853 789.898 185.604 789.898 183.946C789.898 182.337 789.394 181.124 788.385 180.307C787.376 179.466 785.886 179.046 783.917 179.046H777.25V188.919ZM808.891 202.324C806.537 202.324 804.483 201.796 802.729 200.739C800.999 199.658 799.654 198.144 798.693 196.198C797.756 194.252 797.288 191.946 797.288 189.28C797.288 187.262 797.552 185.46 798.081 183.874C798.633 182.265 799.414 180.907 800.423 179.802C801.432 178.673 802.645 177.808 804.062 177.208C805.504 176.583 807.113 176.271 808.891 176.271C811.293 176.271 813.359 176.799 815.089 177.857C816.843 178.914 818.188 180.415 819.125 182.361C820.086 184.283 820.566 186.577 820.566 189.244C820.566 191.262 820.29 193.075 819.738 194.685C819.185 196.294 818.404 197.664 817.395 198.793C816.386 199.922 815.161 200.799 813.72 201.423C812.302 202.024 810.693 202.324 808.891 202.324ZM808.891 199.694C810.717 199.694 812.254 199.285 813.504 198.469C814.777 197.652 815.75 196.463 816.422 194.901C817.095 193.34 817.431 191.466 817.431 189.28C817.431 185.988 816.687 183.442 815.197 181.64C813.732 179.814 811.63 178.902 808.891 178.902C807.113 178.902 805.588 179.31 804.315 180.127C803.065 180.944 802.104 182.133 801.432 183.694C800.759 185.232 800.423 187.094 800.423 189.28C800.423 192.547 801.168 195.105 802.657 196.955C804.146 198.781 806.224 199.694 808.891 199.694ZM831.977 202.252C831.521 202.252 831.16 202.12 830.896 201.856C830.632 201.568 830.5 201.183 830.5 200.703V179.154H822.392C821.959 179.154 821.623 179.034 821.383 178.793C821.143 178.553 821.023 178.241 821.023 177.857C821.023 177.448 821.143 177.136 821.383 176.92C821.623 176.703 821.959 176.595 822.392 176.595H841.599C842.031 176.595 842.367 176.703 842.608 176.92C842.848 177.136 842.968 177.448 842.968 177.857C842.968 178.265 842.848 178.589 842.608 178.829C842.367 179.046 842.031 179.154 841.599 179.154H833.491V200.703C833.491 201.183 833.359 201.568 833.094 201.856C832.854 202.12 832.482 202.252 831.977 202.252ZM855.026 202.324C852.672 202.324 850.618 201.796 848.864 200.739C847.134 199.658 845.789 198.144 844.828 196.198C843.891 194.252 843.423 191.946 843.423 189.28C843.423 187.262 843.687 185.46 844.215 183.874C844.768 182.265 845.549 180.907 846.558 179.802C847.567 178.673 848.78 177.808 850.197 177.208C851.638 176.583 853.248 176.271 855.026 176.271C857.428 176.271 859.494 176.799 861.224 177.857C862.978 178.914 864.323 180.415 865.26 182.361C866.221 184.283 866.701 186.577 866.701 189.244C866.701 191.262 866.425 193.075 865.872 194.685C865.32 196.294 864.539 197.664 863.53 198.793C862.521 199.922 861.296 200.799 859.854 201.423C858.437 202.024 856.828 202.324 855.026 202.324ZM855.026 199.694C856.852 199.694 858.389 199.285 859.638 198.469C860.912 197.652 861.884 196.463 862.557 194.901C863.23 193.34 863.566 191.466 863.566 189.28C863.566 185.988 862.821 183.442 861.332 181.64C859.866 179.814 857.764 178.902 855.026 178.902C853.248 178.902 851.723 179.31 850.449 180.127C849.2 180.944 848.239 182.133 847.567 183.694C846.894 185.232 846.558 187.094 846.558 189.28C846.558 192.547 847.302 195.105 848.792 196.955C850.281 198.781 852.359 199.694 855.026 199.694ZM882.975 202.324C880.476 202.324 878.338 201.796 876.56 200.739C874.783 199.682 873.413 198.18 872.452 196.234C871.515 194.288 871.047 191.97 871.047 189.28C871.047 187.262 871.311 185.46 871.84 183.874C872.392 182.265 873.173 180.907 874.182 179.802C875.215 178.673 876.476 177.808 877.966 177.208C879.455 176.583 881.125 176.271 882.975 176.271C884.464 176.271 885.881 176.487 887.227 176.92C888.572 177.328 889.737 177.941 890.722 178.757C891.034 178.998 891.239 179.274 891.335 179.586C891.455 179.874 891.467 180.163 891.371 180.451C891.299 180.715 891.155 180.944 890.938 181.136C890.746 181.304 890.506 181.388 890.218 181.388C889.929 181.388 889.605 181.268 889.245 181.028C888.38 180.331 887.431 179.814 886.398 179.478C885.365 179.142 884.248 178.974 883.047 178.974C881.149 178.974 879.539 179.382 878.218 180.199C876.897 180.992 875.9 182.157 875.227 183.694C874.554 185.232 874.218 187.094 874.218 189.28C874.218 191.466 874.554 193.34 875.227 194.901C875.9 196.439 876.897 197.616 878.218 198.433C879.539 199.225 881.149 199.622 883.047 199.622C884.224 199.622 885.341 199.454 886.398 199.117C887.455 198.757 888.428 198.228 889.317 197.532C889.677 197.291 890.001 197.183 890.29 197.207C890.578 197.207 890.818 197.291 891.01 197.46C891.203 197.628 891.335 197.844 891.407 198.108C891.503 198.372 891.503 198.649 891.407 198.937C891.335 199.225 891.155 199.478 890.866 199.694C889.857 200.559 888.668 201.219 887.299 201.676C885.954 202.108 884.512 202.324 882.975 202.324ZM906.158 202.324C903.803 202.324 901.749 201.796 899.996 200.739C898.266 199.658 896.921 198.144 895.96 196.198C895.023 194.252 894.554 191.946 894.554 189.28C894.554 187.262 894.818 185.46 895.347 183.874C895.9 182.265 896.68 180.907 897.689 179.802C898.698 178.673 899.911 177.808 901.329 177.208C902.77 176.583 904.38 176.271 906.158 176.271C908.56 176.271 910.626 176.799 912.356 177.857C914.109 178.914 915.455 180.415 916.391 182.361C917.352 184.283 917.833 186.577 917.833 189.244C917.833 191.262 917.557 193.075 917.004 194.685C916.452 196.294 915.671 197.664 914.662 198.793C913.653 199.922 912.428 200.799 910.986 201.423C909.569 202.024 907.959 202.324 906.158 202.324ZM906.158 199.694C907.983 199.694 909.521 199.285 910.77 198.469C912.043 197.652 913.016 196.463 913.689 194.901C914.361 193.34 914.698 191.466 914.698 189.28C914.698 185.988 913.953 183.442 912.464 181.64C910.998 179.814 908.896 178.902 906.158 178.902C904.38 178.902 902.854 179.31 901.581 180.127C900.332 180.944 899.371 182.133 898.698 183.694C898.026 185.232 897.689 187.094 897.689 189.28C897.689 192.547 898.434 195.105 899.923 196.955C901.413 198.781 903.491 199.694 906.158 199.694ZM924.629 202C924.149 202 923.776 201.868 923.512 201.604C923.248 201.315 923.116 200.931 923.116 200.45V177.965C923.116 177.46 923.236 177.076 923.476 176.811C923.74 176.547 924.113 176.415 924.593 176.415C925.074 176.415 925.434 176.547 925.674 176.811C925.939 177.076 926.071 177.46 926.071 177.965V199.405H937.89C938.323 199.405 938.659 199.526 938.899 199.766C939.139 199.982 939.259 200.294 939.259 200.703C939.259 201.111 939.139 201.435 938.899 201.676C938.659 201.892 938.323 202 937.89 202H924.629Z" fill="white"/>
</svg>
