<svg width="305" height="510" viewBox="0 0 305 510" fill="none" xmlns="http://www.w3.org/2000/svg">
<path d="M53.39 499.33C51.11 499.33 49.16 498.88 47.54 497.98C45.92 497.08 44.67 495.82 43.79 494.2C42.93 492.56 42.5 490.63 42.5 488.41C42.5 486.75 42.74 485.26 43.22 483.94C43.72 482.6 44.44 481.46 45.38 480.52C46.32 479.56 47.46 478.82 48.8 478.3C50.16 477.78 51.69 477.52 53.39 477.52C54.39 477.52 55.4 477.65 56.42 477.91C57.46 478.15 58.36 478.5 59.12 478.96C59.62 479.24 59.96 479.59 60.14 480.01C60.32 480.43 60.37 480.85 60.29 481.27C60.23 481.69 60.06 482.05 59.78 482.35C59.52 482.65 59.19 482.84 58.79 482.92C58.39 483 57.94 482.91 57.44 482.65C56.84 482.29 56.21 482.03 55.55 481.87C54.89 481.71 54.22 481.63 53.54 481.63C52.2 481.63 51.07 481.9 50.15 482.44C49.25 482.96 48.57 483.72 48.11 484.72C47.65 485.72 47.42 486.95 47.42 488.41C47.42 489.85 47.65 491.08 48.11 492.1C48.57 493.12 49.25 493.9 50.15 494.44C51.07 494.96 52.2 495.22 53.54 495.22C54.18 495.22 54.83 495.14 55.49 494.98C56.17 494.82 56.82 494.57 57.44 494.23C57.96 493.97 58.42 493.88 58.82 493.96C59.24 494.02 59.58 494.2 59.84 494.5C60.12 494.78 60.29 495.12 60.35 495.52C60.43 495.92 60.39 496.32 60.23 496.72C60.07 497.12 59.77 497.46 59.33 497.74C58.59 498.24 57.68 498.63 56.6 498.91C55.52 499.19 54.45 499.33 53.39 499.33ZM72.7447 499.33C70.6647 499.33 68.8347 498.88 67.2547 497.98C65.6947 497.06 64.4747 495.78 63.5947 494.14C62.7347 492.5 62.3047 490.59 62.3047 488.41C62.3047 486.75 62.5447 485.26 63.0247 483.94C63.5247 482.6 64.2347 481.46 65.1547 480.52C66.0747 479.56 67.1747 478.82 68.4547 478.3C69.7547 477.78 71.1847 477.52 72.7447 477.52C74.8647 477.52 76.7047 477.97 78.2647 478.87C79.8247 479.77 81.0347 481.04 81.8947 482.68C82.7747 484.3 83.2147 486.2 83.2147 488.38C83.2147 490.04 82.9647 491.54 82.4647 492.88C81.9647 494.22 81.2547 495.37 80.3347 496.33C79.4147 497.29 78.3147 498.03 77.0347 498.55C75.7547 499.07 74.3247 499.33 72.7447 499.33ZM72.7447 495.37C73.9247 495.37 74.9247 495.1 75.7447 494.56C76.5847 494 77.2247 493.2 77.6647 492.16C78.1247 491.1 78.3547 489.85 78.3547 488.41C78.3547 486.21 77.8647 484.51 76.8847 483.31C75.9047 482.09 74.5247 481.48 72.7447 481.48C71.5847 481.48 70.5847 481.75 69.7447 482.29C68.9047 482.83 68.2647 483.62 67.8247 484.66C67.3847 485.7 67.1647 486.95 67.1647 488.41C67.1647 490.59 67.6547 492.3 68.6347 493.54C69.6147 494.76 70.9847 495.37 72.7447 495.37ZM88.9716 499.27C88.2916 499.27 87.7716 499.08 87.4116 498.7C87.0516 498.32 86.8716 497.79 86.8716 497.11V479.74C86.8716 479.06 87.0616 478.53 87.4416 478.15C87.8416 477.77 88.3816 477.58 89.0616 477.58C89.6616 477.58 90.1316 477.7 90.4716 477.94C90.8316 478.16 91.1616 478.55 91.4616 479.11L98.3916 491.77H97.3716L104.302 479.11C104.602 478.55 104.922 478.16 105.262 477.94C105.622 477.7 106.092 477.58 106.672 477.58C107.352 477.58 107.872 477.77 108.232 478.15C108.612 478.53 108.802 479.06 108.802 479.74V497.11C108.802 497.79 108.622 498.32 108.262 498.7C107.902 499.08 107.382 499.27 106.702 499.27C106.022 499.27 105.492 499.08 105.112 498.7C104.752 498.32 104.572 497.79 104.572 497.11V484.96H105.232L99.6516 494.95C99.4116 495.33 99.1516 495.62 98.8716 495.82C98.6116 496 98.2616 496.09 97.8216 496.09C97.3816 496.09 97.0216 495.99 96.7416 495.79C96.4616 495.59 96.2116 495.31 95.9916 494.95L90.3516 484.93H91.0716V497.11C91.0716 497.79 90.8916 498.32 90.5316 498.7C90.1916 499.08 89.6716 499.27 88.9716 499.27ZM115.431 499.27C114.671 499.27 114.091 499.06 113.691 498.64C113.291 498.22 113.091 497.63 113.091 496.87V479.98C113.091 479.22 113.291 478.63 113.691 478.21C114.091 477.79 114.671 477.58 115.431 477.58C116.171 477.58 116.741 477.79 117.141 478.21C117.541 478.63 117.741 479.22 117.741 479.98V496.87C117.741 497.63 117.541 498.22 117.141 498.64C116.761 499.06 116.191 499.27 115.431 499.27ZM124.157 499.27C123.457 499.27 122.917 499.08 122.537 498.7C122.177 498.3 121.997 497.74 121.997 497.02V479.92C121.997 479.16 122.177 478.58 122.537 478.18C122.917 477.78 123.417 477.58 124.037 477.58C124.577 477.58 124.987 477.69 125.267 477.91C125.567 478.11 125.907 478.45 126.287 478.93L136.817 492.34H136.007V479.8C136.007 479.1 136.187 478.56 136.547 478.18C136.927 477.78 137.467 477.58 138.167 477.58C138.867 477.58 139.397 477.78 139.757 478.18C140.137 478.56 140.327 479.1 140.327 479.8V497.11C140.327 497.77 140.157 498.3 139.817 498.7C139.477 499.08 139.017 499.27 138.437 499.27C137.877 499.27 137.427 499.16 137.087 498.94C136.767 498.72 136.417 498.37 136.037 497.89L125.537 484.48H126.317V497.02C126.317 497.74 126.137 498.3 125.777 498.7C125.417 499.08 124.877 499.27 124.157 499.27ZM155.055 499.33C152.675 499.33 150.655 498.88 148.995 497.98C147.355 497.08 146.105 495.82 145.245 494.2C144.385 492.58 143.955 490.68 143.955 488.5C143.955 486.82 144.205 485.31 144.705 483.97C145.225 482.61 145.965 481.46 146.925 480.52C147.905 479.56 149.085 478.82 150.465 478.3C151.865 477.78 153.445 477.52 155.205 477.52C156.285 477.52 157.365 477.64 158.445 477.88C159.525 478.12 160.565 478.52 161.565 479.08C161.985 479.32 162.265 479.63 162.405 480.01C162.565 480.37 162.605 480.76 162.525 481.18C162.465 481.58 162.305 481.94 162.045 482.26C161.805 482.56 161.485 482.76 161.085 482.86C160.705 482.94 160.265 482.86 159.765 482.62C159.105 482.26 158.405 482 157.665 481.84C156.925 481.66 156.115 481.57 155.235 481.57C153.815 481.57 152.625 481.84 151.665 482.38C150.705 482.9 149.985 483.68 149.505 484.72C149.045 485.74 148.815 487 148.815 488.5C148.815 490.76 149.355 492.47 150.435 493.63C151.535 494.79 153.155 495.37 155.295 495.37C156.015 495.37 156.755 495.3 157.515 495.16C158.275 495.02 159.025 494.82 159.765 494.56L158.895 496.45V490.69H156.195C155.595 490.69 155.135 490.54 154.815 490.24C154.495 489.94 154.335 489.53 154.335 489.01C154.335 488.47 154.495 488.06 154.815 487.78C155.135 487.48 155.595 487.33 156.195 487.33H160.905C161.505 487.33 161.955 487.49 162.255 487.81C162.575 488.13 162.735 488.59 162.735 489.19V496.15C162.735 496.67 162.635 497.11 162.435 497.47C162.235 497.83 161.895 498.09 161.415 498.25C160.515 498.57 159.505 498.83 158.385 499.03C157.265 499.23 156.155 499.33 155.055 499.33ZM182.79 499.33C181.95 499.33 181.09 499.26 180.21 499.12C179.35 499 178.52 498.82 177.72 498.58C176.94 498.34 176.24 498.04 175.62 497.68C175.18 497.44 174.87 497.13 174.69 496.75C174.51 496.35 174.44 495.95 174.48 495.55C174.54 495.15 174.69 494.8 174.93 494.5C175.19 494.18 175.51 493.98 175.89 493.9C176.29 493.8 176.73 493.87 177.21 494.11C178.03 494.57 178.92 494.91 179.88 495.13C180.86 495.35 181.83 495.46 182.79 495.46C184.25 495.46 185.29 495.24 185.91 494.8C186.53 494.34 186.84 493.77 186.84 493.09C186.84 492.51 186.62 492.05 186.18 491.71C185.74 491.37 184.97 491.08 183.87 490.84L180.48 490.12C178.56 489.72 177.13 489.04 176.19 488.08C175.27 487.1 174.81 485.82 174.81 484.24C174.81 483.24 175.02 482.33 175.44 481.51C175.86 480.69 176.45 479.98 177.21 479.38C177.97 478.78 178.87 478.32 179.91 478C180.97 477.68 182.13 477.52 183.39 477.52C184.51 477.52 185.61 477.66 186.69 477.94C187.77 478.2 188.72 478.59 189.54 479.11C189.94 479.35 190.21 479.66 190.35 480.04C190.51 480.4 190.56 480.77 190.5 481.15C190.46 481.51 190.31 481.83 190.05 482.11C189.81 482.39 189.5 482.57 189.12 482.65C188.74 482.73 188.28 482.64 187.74 482.38C187.08 482.04 186.38 481.79 185.64 481.63C184.9 481.47 184.14 481.39 183.36 481.39C182.52 481.39 181.8 481.5 181.2 481.72C180.62 481.94 180.17 482.25 179.85 482.65C179.55 483.05 179.4 483.51 179.4 484.03C179.4 484.61 179.61 485.08 180.03 485.44C180.45 485.8 181.18 486.09 182.22 486.31L185.61 487.03C187.57 487.45 189.03 488.13 189.99 489.07C190.95 489.99 191.43 491.21 191.43 492.73C191.43 493.73 191.23 494.64 190.83 495.46C190.43 496.26 189.85 496.95 189.09 497.53C188.33 498.11 187.42 498.56 186.36 498.88C185.3 499.18 184.11 499.33 182.79 499.33ZM204.258 499.33C202.178 499.33 200.348 498.88 198.768 497.98C197.208 497.06 195.988 495.78 195.108 494.14C194.248 492.5 193.818 490.59 193.818 488.41C193.818 486.75 194.058 485.26 194.538 483.94C195.038 482.6 195.748 481.46 196.668 480.52C197.588 479.56 198.688 478.82 199.968 478.3C201.268 477.78 202.698 477.52 204.258 477.52C206.378 477.52 208.218 477.97 209.778 478.87C211.338 479.77 212.548 481.04 213.408 482.68C214.288 484.3 214.728 486.2 214.728 488.38C214.728 490.04 214.478 491.54 213.978 492.88C213.478 494.22 212.768 495.37 211.848 496.33C210.928 497.29 209.828 498.03 208.548 498.55C207.268 499.07 205.838 499.33 204.258 499.33ZM204.258 495.37C205.438 495.37 206.438 495.1 207.258 494.56C208.098 494 208.738 493.2 209.178 492.16C209.638 491.1 209.868 489.85 209.868 488.41C209.868 486.21 209.378 484.51 208.398 483.31C207.418 482.09 206.038 481.48 204.258 481.48C203.098 481.48 202.098 481.75 201.258 482.29C200.418 482.83 199.778 483.62 199.338 484.66C198.898 485.7 198.678 486.95 198.678 488.41C198.678 490.59 199.168 492.3 200.148 493.54C201.128 494.76 202.498 495.37 204.258 495.37ZM228.135 499.33C226.055 499.33 224.225 498.88 222.645 497.98C221.085 497.06 219.865 495.78 218.985 494.14C218.125 492.5 217.695 490.59 217.695 488.41C217.695 486.75 217.935 485.26 218.415 483.94C218.915 482.6 219.625 481.46 220.545 480.52C221.465 479.56 222.565 478.82 223.845 478.3C225.145 477.78 226.575 477.52 228.135 477.52C230.255 477.52 232.095 477.97 233.655 478.87C235.215 479.77 236.425 481.04 237.285 482.68C238.165 484.3 238.605 486.2 238.605 488.38C238.605 490.04 238.355 491.54 237.855 492.88C237.355 494.22 236.645 495.37 235.725 496.33C234.805 497.29 233.705 498.03 232.425 498.55C231.145 499.07 229.715 499.33 228.135 499.33ZM228.135 495.37C229.315 495.37 230.315 495.1 231.135 494.56C231.975 494 232.615 493.2 233.055 492.16C233.515 491.1 233.745 489.85 233.745 488.41C233.745 486.21 233.255 484.51 232.275 483.31C231.295 482.09 229.915 481.48 228.135 481.48C226.975 481.48 225.975 481.75 225.135 482.29C224.295 482.83 223.655 483.62 223.215 484.66C222.775 485.7 222.555 486.95 222.555 488.41C222.555 490.59 223.045 492.3 224.025 493.54C225.005 494.76 226.375 495.37 228.135 495.37ZM244.362 499.27C243.662 499.27 243.122 499.08 242.742 498.7C242.382 498.3 242.202 497.74 242.202 497.02V479.92C242.202 479.16 242.382 478.58 242.742 478.18C243.122 477.78 243.622 477.58 244.242 477.58C244.782 477.58 245.192 477.69 245.472 477.91C245.772 478.11 246.112 478.45 246.492 478.93L257.022 492.34H256.212V479.8C256.212 479.1 256.392 478.56 256.752 478.18C257.132 477.78 257.672 477.58 258.372 477.58C259.072 477.58 259.602 477.78 259.962 478.18C260.342 478.56 260.532 479.1 260.532 479.8V497.11C260.532 497.77 260.362 498.3 260.022 498.7C259.682 499.08 259.222 499.27 258.642 499.27C258.082 499.27 257.632 499.16 257.292 498.94C256.972 498.72 256.622 498.37 256.242 497.89L245.742 484.48H246.522V497.02C246.522 497.74 246.342 498.3 245.982 498.7C245.622 499.08 245.082 499.27 244.362 499.27Z" fill="#EAEBF1"/>
<path fill-rule="evenodd" clip-rule="evenodd" d="M27.4216 46.9836C24.1708 46.9836 21.1398 46.3914 18.3283 45.2069C16.1627 44.2607 14.2055 43.0412 12.4569 41.5483L8.11744 45.8426H0L8.68894 37.4196C7.62343 35.9262 6.72925 34.3105 6.00639 32.5727C4.86424 29.7212 4.29317 26.6723 4.29317 23.426C4.29317 20.1358 4.86424 17.0869 6.00639 14.2793C7.19246 11.4279 8.81781 8.92733 10.8825 6.77775C12.991 4.62817 15.4291 2.96115 18.1966 1.77669C21.008 0.592231 24.0391 0 27.2898 0C30.5405 0 33.5496 0.592231 36.3171 1.77669C38.3856 2.64817 40.2639 3.78089 41.952 5.17483L46.7947 0.480384L53.8456 0.480385L53.8444 0.477497H60.5655L74.4412 35.9972L88.4381 0.477497H95.0933L76.6433 46.145H72.1626L53.8773 0.55942L45.5017 8.84773C46.7698 10.4891 47.8156 12.2996 48.639 14.2793C49.8251 17.1308 50.4182 20.2016 50.4182 23.4918C50.4182 26.7381 49.8251 29.787 48.639 32.6385C47.453 35.49 45.8057 37.9905 43.6971 40.1401C41.6324 42.2896 39.1944 43.9786 36.383 45.2069C33.6155 46.3914 30.6283 46.9836 27.4216 46.9836ZM20.5687 39.7452C19.1356 39.123 17.835 38.3353 16.6671 37.382L41.1152 13.1886C41.7663 14.1912 42.3194 15.2786 42.7746 16.4508C43.6092 18.5566 44.0265 20.8816 44.0265 23.426C44.0265 26.8478 43.3017 29.8967 41.8521 32.5727C40.4024 35.2048 38.4257 37.2886 35.9217 38.824C33.4617 40.3155 30.5844 41.0613 27.2898 41.0613C24.8737 41.0613 22.6333 40.6226 20.5687 39.7452ZM37.6403 9.35455L13.1101 33.1338C12.6408 32.3189 12.2277 31.4519 11.8708 30.5328C11.0801 28.3393 10.6848 25.9704 10.6848 23.426C10.6848 20.0042 11.3876 16.9773 12.7933 14.3451C14.243 11.713 16.1978 9.65117 18.6578 8.15962C21.1617 6.66808 24.0391 5.92231 27.2898 5.92231C29.7498 5.92231 31.9901 6.36099 34.0108 7.23837C35.3336 7.78398 36.5434 8.48938 37.6403 9.35455ZM96.9289 0.477497V46.145H101.146H103.123H127.371V40.486H103.123V6.13658H127.042V0.477497H103.123H101.146H96.9289ZM143.448 26.2724V21.074H150.235C152.915 21.074 154.979 20.394 156.429 19.0341C157.879 17.6741 158.603 15.8316 158.603 13.5066C158.603 11.3131 157.879 9.49256 156.429 8.04488C155.023 6.59721 152.981 5.87337 150.301 5.87337H139.89V46.145H133.696V0.477497H137.847H139.89H150.499C153.398 0.477497 155.924 1.04779 158.076 2.18838C160.229 3.28511 161.876 4.79858 163.018 6.72882C164.204 8.65905 164.797 10.8744 164.797 13.375C164.797 15.9632 164.204 18.2225 163.018 20.1527C161.876 22.0829 160.229 23.5964 158.076 24.6931C156.168 25.6268 153.965 26.1465 151.469 26.2522L167.894 46.145H160.053L143.448 26.2724ZM196.732 6.68233H188.13V46.3256H181.936V6.68233H166.172V0.474871H205.327L196.732 6.68233ZM212.496 0.50323V0.477497L212.53 0.477491L218.69 0.477497V46.145H212.496V8.44756L202.937 15.6811L199.115 10.6296L212.496 0.50323ZM224.897 0.477497V46.145H231.091V13.9992L244.995 36.801H249.344L263.182 14.1074V46.145H269.376V0.477497H265.027L247.137 29.8281L229.246 0.477497H224.897ZM274.557 46.145V0.477497H278.774H280.751H304.67V6.13658H280.751V40.486H305V46.145H280.751H278.774H274.557ZM286.971 25.7848V20.0869H304.67V25.7848H286.971ZM127.014 20.5282H107.437V26.2582H127.014V20.5282Z" fill="white"/>
<path d="M41.0949 71.428C40.4683 71.428 39.8549 71.3747 39.2549 71.268C38.6549 71.1614 38.0949 71.008 37.5749 70.808C37.0683 70.608 36.6083 70.3547 36.1949 70.048C36.0349 69.928 35.9216 69.7947 35.8549 69.648C35.8016 69.488 35.7883 69.3347 35.8149 69.188C35.8549 69.028 35.9216 68.8947 36.0149 68.788C36.1216 68.6814 36.2483 68.6214 36.3949 68.608C36.5416 68.5947 36.7016 68.6414 36.8749 68.748C37.4749 69.1747 38.1149 69.488 38.7949 69.688C39.4749 69.8747 40.2416 69.968 41.0949 69.968C42.2949 69.968 43.1816 69.748 43.7549 69.308C44.3416 68.8547 44.6349 68.2614 44.6349 67.528C44.6349 66.928 44.4216 66.4614 43.9949 66.128C43.5816 65.7814 42.8816 65.508 41.8949 65.308L39.8149 64.888C38.5616 64.6214 37.6216 64.188 36.9949 63.588C36.3816 62.9747 36.0749 62.1614 36.0749 61.148C36.0749 60.5214 36.2016 59.9547 36.4549 59.448C36.7083 58.928 37.0616 58.488 37.5149 58.128C37.9683 57.7547 38.5083 57.468 39.1349 57.268C39.7616 57.068 40.4549 56.968 41.2149 56.968C42.0549 56.968 42.8349 57.088 43.5549 57.328C44.2883 57.5547 44.9483 57.9014 45.5349 58.368C45.6816 58.488 45.7816 58.628 45.8349 58.788C45.8883 58.9347 45.8949 59.0814 45.8549 59.228C45.8149 59.3614 45.7416 59.4747 45.6349 59.568C45.5416 59.6614 45.4149 59.7147 45.2549 59.728C45.1083 59.7414 44.9416 59.688 44.7549 59.568C44.2216 59.168 43.6683 58.8814 43.0949 58.708C42.5216 58.5214 41.8883 58.428 41.1949 58.428C40.4883 58.428 39.8749 58.5347 39.3549 58.748C38.8483 58.9614 38.4483 59.2747 38.1549 59.688C37.8749 60.088 37.7349 60.5547 37.7349 61.088C37.7349 61.728 37.9283 62.2347 38.3149 62.608C38.7149 62.9814 39.3616 63.2547 40.2549 63.428L42.3349 63.868C43.6816 64.148 44.6749 64.5747 45.3149 65.148C45.9683 65.708 46.2949 66.4747 46.2949 67.448C46.2949 68.0347 46.1749 68.5747 45.9349 69.068C45.6949 69.5614 45.3483 69.988 44.8949 70.348C44.4416 70.6947 43.8949 70.9614 43.2549 71.148C42.6149 71.3347 41.8949 71.428 41.0949 71.428ZM49.6596 71.388C49.3929 71.388 49.1863 71.3147 49.0396 71.168C48.9063 71.008 48.8396 70.7947 48.8396 70.528V57.988C48.8396 57.708 48.9129 57.5014 49.0596 57.368C49.2063 57.2214 49.4129 57.148 49.6796 57.148H54.4196C55.9263 57.148 57.0863 57.5214 57.8996 58.268C58.7129 59.0014 59.1196 60.0414 59.1196 61.388C59.1196 62.7214 58.7129 63.7614 57.8996 64.508C57.0863 65.2547 55.9263 65.628 54.4196 65.628H50.4796V70.528C50.4796 70.7947 50.4129 71.008 50.2796 71.168C50.1463 71.3147 49.9396 71.388 49.6596 71.388ZM50.4796 64.248H54.2196C55.2996 64.248 56.1129 64.008 56.6596 63.528C57.2196 63.0347 57.4996 62.3214 57.4996 61.388C57.4996 60.4414 57.2196 59.728 56.6596 59.248C56.1129 58.7547 55.2996 58.508 54.2196 58.508H50.4796V64.248ZM67.2596 71.428C65.9529 71.428 64.8129 71.1347 63.8396 70.548C62.8796 69.948 62.1329 69.108 61.5996 68.028C61.0796 66.948 60.8196 65.668 60.8196 64.188C60.8196 63.068 60.9663 62.068 61.2596 61.188C61.5663 60.2947 61.9996 59.5414 62.5596 58.928C63.1196 58.3014 63.7929 57.8214 64.5796 57.488C65.3796 57.1414 66.2729 56.968 67.2596 56.968C68.5929 56.968 69.7396 57.2614 70.6996 57.848C71.6729 58.4347 72.4196 59.268 72.9396 60.348C73.4729 61.4147 73.7396 62.688 73.7396 64.168C73.7396 65.288 73.5863 66.2947 73.2796 67.188C72.9729 68.0814 72.5396 68.8414 71.9796 69.468C71.4196 70.0947 70.7396 70.5814 69.9396 70.928C69.1529 71.2614 68.2596 71.428 67.2596 71.428ZM67.2596 69.968C68.2729 69.968 69.1263 69.7414 69.8196 69.288C70.5263 68.8347 71.0663 68.1747 71.4396 67.308C71.8129 66.4414 71.9996 65.4014 71.9996 64.188C71.9996 62.3614 71.5863 60.948 70.7596 59.948C69.9463 58.9347 68.7796 58.428 67.2596 58.428C66.2729 58.428 65.4263 58.6547 64.7196 59.108C64.0263 59.5614 63.4929 60.2214 63.1196 61.088C62.7463 61.9414 62.5596 62.9747 62.5596 64.188C62.5596 66.0014 62.9729 67.4214 63.7996 68.448C64.6263 69.4614 65.7796 69.968 67.2596 69.968ZM77.4916 71.388C77.225 71.388 77.0183 71.3147 76.8716 71.168C76.7383 71.008 76.6716 70.7947 76.6716 70.528V57.988C76.6716 57.708 76.745 57.5014 76.8916 57.368C77.0383 57.2214 77.245 57.148 77.5116 57.148H82.2516C83.7583 57.148 84.9183 57.5014 85.7316 58.208C86.545 58.9147 86.9516 59.9214 86.9516 61.228C86.9516 62.0547 86.765 62.7747 86.3916 63.388C86.0316 63.988 85.4983 64.448 84.7916 64.768C84.085 65.0747 83.2383 65.228 82.2516 65.228L82.4516 64.968H82.8516C83.3716 64.968 83.825 65.1014 84.2116 65.368C84.5983 65.6347 84.9516 66.0614 85.2716 66.648L87.1916 70.228C87.2983 70.4147 87.345 70.6014 87.3316 70.788C87.3316 70.9614 87.2716 71.108 87.1516 71.228C87.0316 71.3347 86.8583 71.388 86.6316 71.388C86.405 71.388 86.2183 71.3347 86.0716 71.228C85.925 71.1214 85.7983 70.968 85.6916 70.768L83.5116 66.728C83.205 66.1547 82.8516 65.7747 82.4516 65.588C82.0516 65.388 81.525 65.288 80.8716 65.288H78.3116V70.528C78.3116 70.7947 78.245 71.008 78.1116 71.168C77.9783 71.3147 77.7716 71.388 77.4916 71.388ZM78.3116 63.988H82.0116C83.105 63.988 83.9316 63.7614 84.4916 63.308C85.0516 62.8414 85.3316 62.148 85.3316 61.228C85.3316 60.3347 85.0516 59.6614 84.4916 59.208C83.9316 58.7414 83.105 58.508 82.0116 58.508H78.3116V63.988ZM93.9399 71.388C93.6866 71.388 93.4866 71.3147 93.3399 71.168C93.1933 71.008 93.1199 70.7947 93.1199 70.528V58.568H88.6199C88.3799 58.568 88.1933 58.5014 88.0599 58.368C87.9266 58.2347 87.8599 58.0614 87.8599 57.848C87.8599 57.6214 87.9266 57.448 88.0599 57.328C88.1933 57.208 88.3799 57.148 88.6199 57.148H99.2799C99.5199 57.148 99.7066 57.208 99.8399 57.328C99.9733 57.448 100.04 57.6214 100.04 57.848C100.04 58.0747 99.9733 58.2547 99.8399 58.388C99.7066 58.508 99.5199 58.568 99.2799 58.568H94.7799V70.528C94.7799 70.7947 94.7066 71.008 94.5599 71.168C94.4266 71.3147 94.2199 71.388 93.9399 71.388ZM105.763 71.428C105.136 71.428 104.523 71.3747 103.923 71.268C103.323 71.1614 102.763 71.008 102.243 70.808C101.736 70.608 101.276 70.3547 100.863 70.048C100.703 69.928 100.59 69.7947 100.523 69.648C100.47 69.488 100.456 69.3347 100.483 69.188C100.523 69.028 100.59 68.8947 100.683 68.788C100.79 68.6814 100.916 68.6214 101.063 68.608C101.21 68.5947 101.37 68.6414 101.543 68.748C102.143 69.1747 102.783 69.488 103.463 69.688C104.143 69.8747 104.91 69.968 105.763 69.968C106.963 69.968 107.85 69.748 108.423 69.308C109.01 68.8547 109.303 68.2614 109.303 67.528C109.303 66.928 109.09 66.4614 108.663 66.128C108.25 65.7814 107.55 65.508 106.563 65.308L104.483 64.888C103.23 64.6214 102.29 64.188 101.663 63.588C101.05 62.9747 100.743 62.1614 100.743 61.148C100.743 60.5214 100.87 59.9547 101.123 59.448C101.376 58.928 101.73 58.488 102.183 58.128C102.636 57.7547 103.176 57.468 103.803 57.268C104.43 57.068 105.123 56.968 105.883 56.968C106.723 56.968 107.503 57.088 108.223 57.328C108.956 57.5547 109.616 57.9014 110.203 58.368C110.35 58.488 110.45 58.628 110.503 58.788C110.556 58.9347 110.563 59.0814 110.523 59.228C110.483 59.3614 110.41 59.4747 110.303 59.568C110.21 59.6614 110.083 59.7147 109.923 59.728C109.776 59.7414 109.61 59.688 109.423 59.568C108.89 59.168 108.336 58.8814 107.763 58.708C107.19 58.5214 106.556 58.428 105.863 58.428C105.156 58.428 104.543 58.5347 104.023 58.748C103.516 58.9614 103.116 59.2747 102.823 59.688C102.543 60.088 102.403 60.5547 102.403 61.088C102.403 61.728 102.596 62.2347 102.983 62.608C103.383 62.9814 104.03 63.2547 104.923 63.428L107.003 63.868C108.35 64.148 109.343 64.5747 109.983 65.148C110.636 65.708 110.963 66.4747 110.963 67.448C110.963 68.0347 110.843 68.5747 110.603 69.068C110.363 69.5614 110.016 69.988 109.563 70.348C109.11 70.6947 108.563 70.9614 107.923 71.148C107.283 71.3347 106.563 71.428 105.763 71.428ZM119.464 71.388C119.224 71.388 119.037 71.3214 118.904 71.188C118.77 71.0414 118.704 70.8414 118.704 70.588V57.808C118.704 57.5414 118.77 57.3414 118.904 57.208C119.037 57.0747 119.224 57.008 119.464 57.008C119.677 57.008 119.844 57.0547 119.964 57.148C120.097 57.228 120.217 57.368 120.324 57.568L125.804 67.888H125.204L130.664 57.568C130.77 57.368 130.884 57.228 131.004 57.148C131.124 57.0547 131.297 57.008 131.524 57.008C131.75 57.008 131.93 57.0747 132.064 57.208C132.197 57.3414 132.264 57.5414 132.264 57.808V70.588C132.264 70.8414 132.197 71.0414 132.064 71.188C131.944 71.3214 131.757 71.388 131.504 71.388C131.264 71.388 131.077 71.3214 130.944 71.188C130.81 71.0414 130.744 70.8414 130.744 70.588V59.348H131.224L126.224 68.728C126.13 68.9014 126.03 69.028 125.924 69.108C125.83 69.1747 125.69 69.208 125.504 69.208C125.317 69.208 125.17 69.168 125.064 69.088C124.957 69.008 124.864 68.888 124.784 68.728L119.724 59.328H120.204V70.588C120.204 70.8414 120.137 71.0414 120.004 71.188C119.884 71.3214 119.704 71.388 119.464 71.388ZM135.473 71.388C135.26 71.388 135.087 71.3414 134.953 71.248C134.833 71.1414 134.76 71.008 134.733 70.848C134.72 70.6747 134.76 70.4814 134.853 70.268L140.353 57.748C140.473 57.4814 140.613 57.2947 140.773 57.188C140.947 57.068 141.133 57.008 141.333 57.008C141.533 57.008 141.713 57.068 141.873 57.188C142.047 57.2947 142.187 57.4814 142.293 57.748L147.813 70.268C147.92 70.4814 147.96 70.6747 147.933 70.848C147.92 71.0214 147.853 71.1547 147.733 71.248C147.613 71.3414 147.447 71.388 147.233 71.388C146.993 71.388 146.8 71.328 146.653 71.208C146.507 71.0747 146.387 70.888 146.293 70.648L144.813 67.228L145.613 67.648H137.013L137.833 67.228L136.373 70.648C136.253 70.9014 136.127 71.088 135.993 71.208C135.86 71.328 135.687 71.388 135.473 71.388ZM141.313 59.068L138.093 66.648L137.613 66.268H145.013L144.573 66.648L141.353 59.068H141.313ZM151.164 71.388C150.897 71.388 150.69 71.3147 150.544 71.168C150.41 71.008 150.344 70.7947 150.344 70.528V57.988C150.344 57.708 150.417 57.5014 150.564 57.368C150.71 57.2214 150.917 57.148 151.184 57.148H155.924C157.43 57.148 158.59 57.5014 159.404 58.208C160.217 58.9147 160.624 59.9214 160.624 61.228C160.624 62.0547 160.437 62.7747 160.064 63.388C159.704 63.988 159.17 64.448 158.464 64.768C157.757 65.0747 156.91 65.228 155.924 65.228L156.124 64.968H156.524C157.044 64.968 157.497 65.1014 157.884 65.368C158.27 65.6347 158.624 66.0614 158.944 66.648L160.864 70.228C160.97 70.4147 161.017 70.6014 161.004 70.788C161.004 70.9614 160.944 71.108 160.824 71.228C160.704 71.3347 160.53 71.388 160.304 71.388C160.077 71.388 159.89 71.3347 159.744 71.228C159.597 71.1214 159.47 70.968 159.364 70.768L157.184 66.728C156.877 66.1547 156.524 65.7747 156.124 65.588C155.724 65.388 155.197 65.288 154.544 65.288H151.984V70.528C151.984 70.7947 151.917 71.008 151.784 71.168C151.65 71.3147 151.444 71.388 151.164 71.388ZM151.984 63.988H155.684C156.777 63.988 157.604 63.7614 158.164 63.308C158.724 62.8414 159.004 62.148 159.004 61.228C159.004 60.3347 158.724 59.6614 158.164 59.208C157.604 58.7414 156.777 58.508 155.684 58.508H151.984V63.988ZM164.542 71.388C164.276 71.388 164.069 71.3147 163.922 71.168C163.789 71.008 163.722 70.7947 163.722 70.528V57.848C163.722 57.568 163.789 57.3614 163.922 57.228C164.069 57.0814 164.276 57.008 164.542 57.008C164.809 57.008 165.009 57.0814 165.142 57.228C165.289 57.3614 165.362 57.568 165.362 57.848V63.548H165.402L171.922 57.468C172.082 57.308 172.242 57.1947 172.402 57.128C172.562 57.048 172.736 57.008 172.922 57.008C173.176 57.008 173.356 57.068 173.462 57.188C173.582 57.308 173.629 57.4547 173.602 57.628C173.576 57.8014 173.482 57.968 173.322 58.128L166.502 64.448L166.522 63.568L173.642 70.148C173.842 70.3347 173.949 70.528 173.962 70.728C173.976 70.9147 173.916 71.0747 173.782 71.208C173.662 71.328 173.476 71.388 173.222 71.388C173.022 71.388 172.849 71.3414 172.702 71.248C172.569 71.168 172.416 71.0414 172.242 70.868L165.402 64.608H165.362V70.528C165.362 70.7947 165.296 71.008 165.162 71.168C165.029 71.3147 164.822 71.388 164.542 71.388ZM177.122 71.248C176.829 71.248 176.602 71.1747 176.442 71.028C176.296 70.868 176.222 70.6414 176.222 70.348V58.048C176.222 57.7547 176.296 57.5347 176.442 57.388C176.602 57.228 176.829 57.148 177.122 57.148H184.562C184.789 57.148 184.962 57.208 185.082 57.328C185.202 57.448 185.262 57.6147 185.262 57.828C185.262 58.0547 185.202 58.228 185.082 58.348C184.962 58.468 184.789 58.528 184.562 58.528H177.822V63.408H184.142C184.369 63.408 184.542 63.468 184.662 63.588C184.782 63.6947 184.842 63.8614 184.842 64.088C184.842 64.3147 184.782 64.488 184.662 64.608C184.542 64.728 184.369 64.788 184.142 64.788H177.822V69.868H184.562C184.789 69.868 184.962 69.928 185.082 70.048C185.202 70.168 185.262 70.3347 185.262 70.548C185.262 70.7747 185.202 70.948 185.082 71.068C184.962 71.188 184.789 71.248 184.562 71.248H177.122ZM191.909 71.388C191.655 71.388 191.455 71.3147 191.309 71.168C191.162 71.008 191.089 70.7947 191.089 70.528V58.568H186.589C186.349 58.568 186.162 58.5014 186.029 58.368C185.895 58.2347 185.829 58.0614 185.829 57.848C185.829 57.6214 185.895 57.448 186.029 57.328C186.162 57.208 186.349 57.148 186.589 57.148H197.249C197.489 57.148 197.675 57.208 197.809 57.328C197.942 57.448 198.009 57.6214 198.009 57.848C198.009 58.0747 197.942 58.2547 197.809 58.388C197.675 58.508 197.489 58.568 197.249 58.568H192.749V70.528C192.749 70.7947 192.675 71.008 192.529 71.168C192.395 71.3147 192.189 71.388 191.909 71.388ZM203.732 71.428C203.105 71.428 202.492 71.3747 201.892 71.268C201.292 71.1614 200.732 71.008 200.212 70.808C199.705 70.608 199.245 70.3547 198.832 70.048C198.672 69.928 198.558 69.7947 198.492 69.648C198.438 69.488 198.425 69.3347 198.452 69.188C198.492 69.028 198.558 68.8947 198.652 68.788C198.758 68.6814 198.885 68.6214 199.032 68.608C199.178 68.5947 199.338 68.6414 199.512 68.748C200.112 69.1747 200.752 69.488 201.432 69.688C202.112 69.8747 202.878 69.968 203.732 69.968C204.932 69.968 205.818 69.748 206.392 69.308C206.978 68.8547 207.272 68.2614 207.272 67.528C207.272 66.928 207.058 66.4614 206.632 66.128C206.218 65.7814 205.518 65.508 204.532 65.308L202.452 64.888C201.198 64.6214 200.258 64.188 199.632 63.588C199.018 62.9747 198.712 62.1614 198.712 61.148C198.712 60.5214 198.838 59.9547 199.092 59.448C199.345 58.928 199.698 58.488 200.152 58.128C200.605 57.7547 201.145 57.468 201.772 57.268C202.398 57.068 203.092 56.968 203.852 56.968C204.692 56.968 205.472 57.088 206.192 57.328C206.925 57.5547 207.585 57.9014 208.172 58.368C208.318 58.488 208.418 58.628 208.472 58.788C208.525 58.9347 208.532 59.0814 208.492 59.228C208.452 59.3614 208.378 59.4747 208.272 59.568C208.178 59.6614 208.052 59.7147 207.892 59.728C207.745 59.7414 207.578 59.688 207.392 59.568C206.858 59.168 206.305 58.8814 205.732 58.708C205.158 58.5214 204.525 58.428 203.832 58.428C203.125 58.428 202.512 58.5347 201.992 58.748C201.485 58.9614 201.085 59.2747 200.792 59.688C200.512 60.088 200.372 60.5547 200.372 61.088C200.372 61.728 200.565 62.2347 200.952 62.608C201.352 62.9814 201.998 63.2547 202.892 63.428L204.972 63.868C206.318 64.148 207.312 64.5747 207.952 65.148C208.605 65.708 208.932 66.4747 208.932 67.448C208.932 68.0347 208.812 68.5747 208.572 69.068C208.332 69.5614 207.985 69.988 207.532 70.348C207.078 70.6947 206.532 70.9614 205.892 71.148C205.252 71.3347 204.532 71.428 203.732 71.428ZM216.986 71.428C216.613 71.428 216.306 71.3414 216.066 71.168C215.839 70.9947 215.693 70.7614 215.626 70.468C215.573 70.1747 215.633 69.848 215.806 69.488L220.926 58.268C221.139 57.8147 221.393 57.488 221.686 57.288C221.979 57.0747 222.319 56.968 222.706 56.968C223.093 56.968 223.433 57.0747 223.726 57.288C224.019 57.488 224.266 57.8147 224.466 58.268L229.626 69.488C229.799 69.848 229.859 70.1814 229.806 70.488C229.766 70.7814 229.633 71.0147 229.406 71.188C229.179 71.348 228.886 71.428 228.526 71.428C228.073 71.428 227.719 71.3214 227.466 71.108C227.226 70.8947 227.013 70.5614 226.826 70.108L225.626 67.328L226.866 68.188H218.526L219.766 67.328L218.586 70.108C218.386 70.5747 218.173 70.9147 217.946 71.128C217.733 71.328 217.413 71.428 216.986 71.428ZM222.666 60.448L220.106 66.548L219.566 65.768H225.826L225.286 66.548L222.706 60.448H222.666ZM233.085 71.428C232.631 71.428 232.285 71.3014 232.045 71.048C231.805 70.7947 231.685 70.4414 231.685 69.988V58.408C231.685 57.9547 231.811 57.6014 232.065 57.348C232.331 57.0947 232.691 56.968 233.145 56.968C233.545 56.968 233.858 57.048 234.085 57.208C234.325 57.3547 234.545 57.6147 234.745 57.988L239.365 66.428H238.685L243.305 57.988C243.505 57.6147 243.718 57.3547 243.945 57.208C244.185 57.048 244.498 56.968 244.885 56.968C245.338 56.968 245.685 57.0947 245.925 57.348C246.178 57.6014 246.305 57.9547 246.305 58.408V69.988C246.305 70.4414 246.185 70.7947 245.945 71.048C245.705 71.3014 245.358 71.428 244.905 71.428C244.451 71.428 244.098 71.3014 243.845 71.048C243.605 70.7947 243.485 70.4414 243.485 69.988V61.888H243.925L240.205 68.548C240.045 68.8014 239.871 68.9947 239.685 69.128C239.511 69.248 239.278 69.308 238.985 69.308C238.691 69.308 238.451 69.2414 238.265 69.108C238.078 68.9747 237.911 68.788 237.765 68.548L234.005 61.868H234.485V69.988C234.485 70.4414 234.365 70.7947 234.125 71.048C233.898 71.3014 233.551 71.428 233.085 71.428ZM250.604 71.428C250.151 71.428 249.804 71.3014 249.564 71.048C249.324 70.7947 249.204 70.4414 249.204 69.988V58.408C249.204 57.9547 249.331 57.6014 249.584 57.348C249.851 57.0947 250.211 56.968 250.664 56.968C251.064 56.968 251.377 57.048 251.604 57.208C251.844 57.3547 252.064 57.6147 252.264 57.988L256.884 66.428H256.204L260.824 57.988C261.024 57.6147 261.237 57.3547 261.464 57.208C261.704 57.048 262.017 56.968 262.404 56.968C262.857 56.968 263.204 57.0947 263.444 57.348C263.697 57.6014 263.824 57.9547 263.824 58.408V69.988C263.824 70.4414 263.704 70.7947 263.464 71.048C263.224 71.3014 262.877 71.428 262.424 71.428C261.971 71.428 261.617 71.3014 261.364 71.048C261.124 70.7947 261.004 70.4414 261.004 69.988V61.888H261.444L257.724 68.548C257.564 68.8014 257.391 68.9947 257.204 69.128C257.031 69.248 256.797 69.308 256.504 69.308C256.211 69.308 255.971 69.2414 255.784 69.108C255.597 68.9747 255.431 68.788 255.284 68.548L251.524 61.868H252.004V69.988C252.004 70.4414 251.884 70.7947 251.644 71.048C251.417 71.3014 251.071 71.428 250.604 71.428ZM12.7279 94.248C12.4346 94.248 12.2079 94.1747 12.0479 94.028C11.9012 93.868 11.8279 93.6414 11.8279 93.348V81.048C11.8279 80.7547 11.9012 80.5347 12.0479 80.388C12.2079 80.228 12.4346 80.148 12.7279 80.148H17.4679C18.4412 80.148 19.2612 80.2947 19.9279 80.588C20.6079 80.868 21.1279 81.2814 21.4879 81.828C21.8479 82.3747 22.0279 83.0414 22.0279 83.828C22.0279 84.708 21.7679 85.4414 21.2479 86.028C20.7412 86.6147 20.0479 87.0014 19.1679 87.188V86.908C20.1679 87.028 20.9479 87.388 21.5079 87.988C22.0812 88.588 22.3679 89.3814 22.3679 90.368C22.3679 91.6214 21.9612 92.5814 21.1479 93.248C20.3346 93.9147 19.1879 94.248 17.7079 94.248H12.7279ZM13.4279 92.928H17.5479C18.6146 92.928 19.4146 92.7147 19.9479 92.288C20.4812 91.8614 20.7479 91.2147 20.7479 90.348C20.7479 89.468 20.4812 88.8214 19.9479 88.408C19.4146 87.9814 18.6146 87.768 17.5479 87.768H13.4279V92.928ZM13.4279 86.448H17.2279C18.2679 86.448 19.0546 86.2347 19.5879 85.808C20.1346 85.3814 20.4079 84.768 20.4079 83.968C20.4079 83.1414 20.1346 82.5214 19.5879 82.108C19.0546 81.6814 18.2679 81.468 17.2279 81.468H13.4279V86.448ZM30.9035 94.428C29.9702 94.428 29.1502 94.308 28.4435 94.068C27.7502 93.8147 27.1635 93.448 26.6835 92.968C26.2035 92.4747 25.8435 91.868 25.6035 91.148C25.3635 90.428 25.2435 89.6014 25.2435 88.668V80.848C25.2435 80.568 25.3102 80.3614 25.4435 80.228C25.5902 80.0814 25.7968 80.008 26.0635 80.008C26.3302 80.008 26.5302 80.0814 26.6635 80.228C26.8102 80.3614 26.8835 80.568 26.8835 80.848V88.588C26.8835 90.0547 27.2235 91.1547 27.9035 91.888C28.5835 92.608 29.5835 92.968 30.9035 92.968C32.2235 92.968 33.2168 92.608 33.8835 91.888C34.5502 91.1547 34.8835 90.0547 34.8835 88.588V80.848C34.8835 80.568 34.9568 80.3614 35.1035 80.228C35.2502 80.0814 35.4568 80.008 35.7235 80.008C35.9768 80.008 36.1702 80.0814 36.3035 80.228C36.4502 80.3614 36.5235 80.568 36.5235 80.848V88.668C36.5235 89.908 36.3102 90.9614 35.8835 91.828C35.4702 92.6947 34.8435 93.348 34.0035 93.788C33.1635 94.2147 32.1302 94.428 30.9035 94.428ZM40.7143 94.388C40.4476 94.388 40.241 94.3147 40.0943 94.168C39.961 94.008 39.8943 93.7947 39.8943 93.528V80.868C39.8943 80.588 39.961 80.3747 40.0943 80.228C40.241 80.0814 40.4476 80.008 40.7143 80.008C40.981 80.008 41.181 80.0814 41.3143 80.228C41.461 80.3747 41.5343 80.588 41.5343 80.868V93.528C41.5343 93.7947 41.4676 94.008 41.3343 94.168C41.201 94.3147 40.9943 94.388 40.7143 94.388ZM45.871 94.248C45.6043 94.248 45.3977 94.1747 45.251 94.028C45.1043 93.868 45.031 93.6547 45.031 93.388V80.908C45.031 80.628 45.0977 80.4147 45.231 80.268C45.3777 80.1214 45.5843 80.048 45.851 80.048C46.1177 80.048 46.3177 80.1214 46.451 80.268C46.5977 80.4147 46.671 80.628 46.671 80.908V92.808H53.231C53.471 92.808 53.6577 92.8747 53.791 93.008C53.9243 93.128 53.991 93.3014 53.991 93.528C53.991 93.7547 53.9243 93.9347 53.791 94.068C53.6577 94.188 53.471 94.248 53.231 94.248H45.871ZM57.6313 94.388C57.378 94.388 57.178 94.3147 57.0313 94.168C56.8847 94.008 56.8113 93.7947 56.8113 93.528V81.568H52.3113C52.0713 81.568 51.8847 81.5014 51.7513 81.368C51.618 81.2347 51.5513 81.0614 51.5513 80.848C51.5513 80.6214 51.618 80.448 51.7513 80.328C51.8847 80.208 52.0713 80.148 52.3113 80.148H62.9713C63.2113 80.148 63.398 80.208 63.5313 80.328C63.6647 80.448 63.7313 80.6214 63.7313 80.848C63.7313 81.0747 63.6647 81.2547 63.5313 81.388C63.398 81.508 63.2113 81.568 62.9713 81.568H58.4713V93.528C58.4713 93.7947 58.398 94.008 58.2513 94.168C58.118 94.3147 57.9113 94.388 57.6313 94.388ZM76.4588 94.428C75.1522 94.428 74.0122 94.1347 73.0388 93.548C72.0788 92.948 71.3322 92.108 70.7988 91.028C70.2788 89.948 70.0188 88.668 70.0188 87.188C70.0188 86.068 70.1655 85.068 70.4588 84.188C70.7655 83.2947 71.1988 82.5414 71.7588 81.928C72.3188 81.3014 72.9922 80.8214 73.7788 80.488C74.5788 80.1414 75.4722 79.968 76.4588 79.968C77.7922 79.968 78.9388 80.2614 79.8988 80.848C80.8722 81.4347 81.6188 82.268 82.1388 83.348C82.6722 84.4147 82.9388 85.688 82.9388 87.168C82.9388 88.288 82.7855 89.2947 82.4788 90.188C82.1722 91.0814 81.7388 91.8414 81.1788 92.468C80.6188 93.0947 79.9388 93.5814 79.1388 93.928C78.3522 94.2614 77.4588 94.428 76.4588 94.428ZM76.4588 92.968C77.4722 92.968 78.3255 92.7414 79.0188 92.288C79.7255 91.8347 80.2655 91.1747 80.6388 90.308C81.0122 89.4414 81.1988 88.4014 81.1988 87.188C81.1988 85.3614 80.7855 83.948 79.9588 82.948C79.1455 81.9347 77.9788 81.428 76.4588 81.428C75.4722 81.428 74.6255 81.6547 73.9188 82.108C73.2255 82.5614 72.6922 83.2214 72.3188 84.088C71.9455 84.9414 71.7588 85.9747 71.7588 87.188C71.7588 89.0014 72.1722 90.4214 72.9988 91.448C73.8255 92.4614 74.9788 92.968 76.4588 92.968ZM86.6509 94.388C86.3975 94.388 86.2042 94.3214 86.0709 94.188C85.9375 94.0414 85.8709 93.8347 85.8709 93.568V80.848C85.8709 80.5814 85.9375 80.3747 86.0709 80.228C86.2042 80.0814 86.3775 80.008 86.5909 80.008C86.8042 80.008 86.9575 80.048 87.0509 80.128C87.1575 80.1947 87.2775 80.3214 87.4109 80.508L96.1309 92.128H95.6509V80.808C95.6509 80.5547 95.7175 80.3614 95.8509 80.228C95.9842 80.0814 96.1775 80.008 96.4309 80.008C96.6709 80.008 96.8509 80.0814 96.9709 80.228C97.1042 80.3614 97.1709 80.5547 97.1709 80.808V93.588C97.1709 93.8414 97.1109 94.0414 96.9909 94.188C96.8842 94.3214 96.7242 94.388 96.5109 94.388C96.3109 94.388 96.1509 94.348 96.0309 94.268C95.9109 94.188 95.7842 94.0614 95.6509 93.888L86.9509 82.268H87.4109V93.568C87.4109 93.8347 87.3442 94.0414 87.2109 94.188C87.0775 94.3214 86.8909 94.388 86.6509 94.388ZM110.705 94.428C110.199 94.428 109.812 94.288 109.545 94.008C109.279 93.728 109.145 93.3347 109.145 92.828V82.708H105.605C105.192 82.708 104.872 82.5947 104.645 82.368C104.419 82.1414 104.305 81.828 104.305 81.428C104.305 81.0147 104.419 80.7014 104.645 80.488C104.872 80.2614 105.192 80.148 105.605 80.148H115.785C116.199 80.148 116.519 80.2614 116.745 80.488C116.972 80.7014 117.085 81.0147 117.085 81.428C117.085 81.828 116.972 82.1414 116.745 82.368C116.519 82.5947 116.199 82.708 115.785 82.708H112.245V92.828C112.245 93.3347 112.112 93.728 111.845 94.008C111.592 94.288 111.212 94.428 110.705 94.428ZM119.982 94.428C119.475 94.428 119.089 94.288 118.822 94.008C118.555 93.728 118.422 93.3347 118.422 92.828V81.568C118.422 81.0614 118.555 80.668 118.822 80.388C119.089 80.108 119.475 79.968 119.982 79.968C120.475 79.968 120.855 80.108 121.122 80.388C121.389 80.668 121.522 81.0614 121.522 81.568V85.808H128.082V81.568C128.082 81.0614 128.215 80.668 128.482 80.388C128.749 80.108 129.129 79.968 129.622 79.968C130.129 79.968 130.515 80.108 130.782 80.388C131.049 80.668 131.182 81.0614 131.182 81.568V92.828C131.182 93.3347 131.049 93.728 130.782 94.008C130.515 94.288 130.129 94.428 129.622 94.428C129.129 94.428 128.749 94.288 128.482 94.008C128.215 93.728 128.082 93.3347 128.082 92.828V88.388H121.522V92.828C121.522 93.3347 121.389 93.728 121.122 94.008C120.869 94.288 120.489 94.428 119.982 94.428ZM134.427 94.428C134.054 94.428 133.747 94.3414 133.507 94.168C133.281 93.9947 133.134 93.7614 133.067 93.468C133.014 93.1747 133.074 92.848 133.247 92.488L138.367 81.268C138.581 80.8147 138.834 80.488 139.127 80.288C139.421 80.0747 139.761 79.968 140.147 79.968C140.534 79.968 140.874 80.0747 141.167 80.288C141.461 80.488 141.707 80.8147 141.907 81.268L147.067 92.488C147.241 92.848 147.301 93.1814 147.247 93.488C147.207 93.7814 147.074 94.0147 146.847 94.188C146.621 94.348 146.327 94.428 145.967 94.428C145.514 94.428 145.161 94.3214 144.907 94.108C144.667 93.8947 144.454 93.5614 144.267 93.108L143.067 90.328L144.307 91.188H135.967L137.207 90.328L136.027 93.108C135.827 93.5747 135.614 93.9147 135.387 94.128C135.174 94.328 134.854 94.428 134.427 94.428ZM140.107 83.448L137.547 89.548L137.007 88.768H143.267L142.727 89.548L140.147 83.448H140.107ZM150.666 94.248C150.159 94.248 149.766 94.108 149.486 93.828C149.219 93.548 149.086 93.1614 149.086 92.668V81.688C149.086 81.168 149.219 80.7747 149.486 80.508C149.753 80.2414 150.139 80.108 150.646 80.108C151.139 80.108 151.519 80.2414 151.786 80.508C152.053 80.7747 152.186 81.168 152.186 81.688V91.628H157.546C157.973 91.628 158.299 91.7414 158.526 91.968C158.766 92.1947 158.886 92.5147 158.886 92.928C158.886 93.3547 158.766 93.6814 158.526 93.908C158.299 94.1347 157.973 94.248 157.546 94.248H150.666ZM162.171 94.248C161.651 94.248 161.251 94.108 160.971 93.828C160.691 93.548 160.551 93.148 160.551 92.628V81.768C160.551 81.248 160.691 80.848 160.971 80.568C161.251 80.288 161.651 80.148 162.171 80.148H169.151C169.551 80.148 169.851 80.2547 170.051 80.468C170.264 80.668 170.371 80.9614 170.371 81.348C170.371 81.748 170.264 82.0547 170.051 82.268C169.851 82.468 169.551 82.568 169.151 82.568H163.511V85.868H168.691C169.104 85.868 169.411 85.9747 169.611 86.188C169.824 86.388 169.931 86.688 169.931 87.088C169.931 87.488 169.824 87.7947 169.611 88.008C169.411 88.208 169.104 88.308 168.691 88.308H163.511V91.828H169.151C169.551 91.828 169.851 91.9347 170.051 92.148C170.264 92.348 170.371 92.6414 170.371 93.028C170.371 93.428 170.264 93.7347 170.051 93.948C169.851 94.148 169.551 94.248 169.151 94.248H162.171ZM177.505 94.468C176.945 94.468 176.372 94.4214 175.785 94.328C175.212 94.248 174.658 94.128 174.125 93.968C173.605 93.808 173.138 93.608 172.725 93.368C172.432 93.208 172.225 93.0014 172.105 92.748C171.985 92.4814 171.938 92.2147 171.965 91.948C172.005 91.6814 172.105 91.448 172.265 91.248C172.438 91.0347 172.652 90.9014 172.905 90.848C173.172 90.7814 173.465 90.828 173.785 90.988C174.332 91.2947 174.925 91.5214 175.565 91.668C176.218 91.8147 176.865 91.888 177.505 91.888C178.478 91.888 179.172 91.7414 179.585 91.448C179.998 91.1414 180.205 90.7614 180.205 90.308C180.205 89.9214 180.058 89.6147 179.765 89.388C179.472 89.1614 178.958 88.968 178.225 88.808L175.965 88.328C174.685 88.0614 173.732 87.608 173.105 86.968C172.492 86.3147 172.185 85.4614 172.185 84.408C172.185 83.7414 172.325 83.1347 172.605 82.588C172.885 82.0414 173.278 81.568 173.785 81.168C174.292 80.768 174.892 80.4614 175.585 80.248C176.292 80.0347 177.065 79.928 177.905 79.928C178.652 79.928 179.385 80.0214 180.105 80.208C180.825 80.3814 181.458 80.6414 182.005 80.988C182.272 81.148 182.452 81.3547 182.545 81.608C182.652 81.848 182.685 82.0947 182.645 82.348C182.618 82.588 182.518 82.8014 182.345 82.988C182.185 83.1747 181.978 83.2947 181.725 83.348C181.472 83.4014 181.165 83.3414 180.805 83.168C180.365 82.9414 179.898 82.7747 179.405 82.668C178.912 82.5614 178.405 82.508 177.885 82.508C177.325 82.508 176.845 82.5814 176.445 82.728C176.058 82.8747 175.758 83.0814 175.545 83.348C175.345 83.6147 175.245 83.9214 175.245 84.268C175.245 84.6547 175.385 84.968 175.665 85.208C175.945 85.448 176.432 85.6414 177.125 85.788L179.385 86.268C180.692 86.548 181.665 87.0014 182.305 87.628C182.945 88.2414 183.265 89.0547 183.265 90.068C183.265 90.7347 183.132 91.3414 182.865 91.888C182.598 92.4214 182.212 92.8814 181.705 93.268C181.198 93.6547 180.592 93.9547 179.885 94.168C179.178 94.368 178.385 94.468 177.505 94.468ZM191.847 94.388C191.58 94.388 191.374 94.3147 191.227 94.168C191.094 94.008 191.027 93.7947 191.027 93.528V80.988C191.027 80.708 191.1 80.5014 191.247 80.368C191.394 80.2214 191.6 80.148 191.867 80.148H196.607C198.114 80.148 199.274 80.5214 200.087 81.268C200.9 82.0014 201.307 83.0414 201.307 84.388C201.307 85.7214 200.9 86.7614 200.087 87.508C199.274 88.2547 198.114 88.628 196.607 88.628H192.667V93.528C192.667 93.7947 192.6 94.008 192.467 94.168C192.334 94.3147 192.127 94.388 191.847 94.388ZM192.667 87.248H196.407C197.487 87.248 198.3 87.008 198.847 86.528C199.407 86.0347 199.687 85.3214 199.687 84.388C199.687 83.4414 199.407 82.728 198.847 82.248C198.3 81.7547 197.487 81.508 196.407 81.508H192.667V87.248ZM204.503 94.388C204.237 94.388 204.03 94.3147 203.883 94.168C203.75 94.008 203.683 93.7947 203.683 93.528V80.988C203.683 80.708 203.757 80.5014 203.903 80.368C204.05 80.2214 204.257 80.148 204.523 80.148H209.263C210.77 80.148 211.93 80.5014 212.743 81.208C213.557 81.9147 213.963 82.9214 213.963 84.228C213.963 85.0547 213.777 85.7747 213.403 86.388C213.043 86.988 212.51 87.448 211.803 87.768C211.097 88.0747 210.25 88.228 209.263 88.228L209.463 87.968H209.863C210.383 87.968 210.837 88.1014 211.223 88.368C211.61 88.6347 211.963 89.0614 212.283 89.648L214.203 93.228C214.31 93.4147 214.357 93.6014 214.343 93.788C214.343 93.9614 214.283 94.108 214.163 94.228C214.043 94.3347 213.87 94.388 213.643 94.388C213.417 94.388 213.23 94.3347 213.083 94.228C212.937 94.1214 212.81 93.968 212.703 93.768L210.523 89.728C210.217 89.1547 209.863 88.7747 209.463 88.588C209.063 88.388 208.537 88.288 207.883 88.288H205.323V93.528C205.323 93.7947 205.257 94.008 205.123 94.168C204.99 94.3147 204.783 94.388 204.503 94.388ZM205.323 86.988H209.023C210.117 86.988 210.943 86.7614 211.503 86.308C212.063 85.8414 212.343 85.148 212.343 84.228C212.343 83.3347 212.063 82.6614 211.503 82.208C210.943 81.7414 210.117 81.508 209.023 81.508H205.323V86.988ZM222.885 94.428C221.578 94.428 220.438 94.1347 219.465 93.548C218.505 92.948 217.758 92.108 217.225 91.028C216.705 89.948 216.445 88.668 216.445 87.188C216.445 86.068 216.591 85.068 216.885 84.188C217.191 83.2947 217.625 82.5414 218.185 81.928C218.745 81.3014 219.418 80.8214 220.205 80.488C221.005 80.1414 221.898 79.968 222.885 79.968C224.218 79.968 225.365 80.2614 226.325 80.848C227.298 81.4347 228.045 82.268 228.565 83.348C229.098 84.4147 229.365 85.688 229.365 87.168C229.365 88.288 229.211 89.2947 228.905 90.188C228.598 91.0814 228.165 91.8414 227.605 92.468C227.045 93.0947 226.365 93.5814 225.565 93.928C224.778 94.2614 223.885 94.428 222.885 94.428ZM222.885 92.968C223.898 92.968 224.751 92.7414 225.445 92.288C226.151 91.8347 226.691 91.1747 227.065 90.308C227.438 89.4414 227.625 88.4014 227.625 87.188C227.625 85.3614 227.211 83.948 226.385 82.948C225.571 81.9347 224.405 81.428 222.885 81.428C221.898 81.428 221.051 81.6547 220.345 82.108C219.651 82.5614 219.118 83.2214 218.745 84.088C218.371 84.9414 218.185 85.9747 218.185 87.188C218.185 89.0014 218.598 90.4214 219.425 91.448C220.251 92.4614 221.405 92.968 222.885 92.968ZM235.698 94.388C235.444 94.388 235.244 94.3147 235.098 94.168C234.951 94.008 234.878 93.7947 234.878 93.528V81.568H230.378C230.138 81.568 229.951 81.5014 229.818 81.368C229.684 81.2347 229.618 81.0614 229.618 80.848C229.618 80.6214 229.684 80.448 229.818 80.328C229.951 80.208 230.138 80.148 230.378 80.148H241.038C241.278 80.148 241.464 80.208 241.598 80.328C241.731 80.448 241.798 80.6214 241.798 80.848C241.798 81.0747 241.731 81.2547 241.598 81.388C241.464 81.508 241.278 81.568 241.038 81.568H236.538V93.528C236.538 93.7947 236.464 94.008 236.318 94.168C236.184 94.3147 235.978 94.388 235.698 94.388ZM248.49 94.428C247.183 94.428 246.043 94.1347 245.07 93.548C244.11 92.948 243.363 92.108 242.83 91.028C242.31 89.948 242.05 88.668 242.05 87.188C242.05 86.068 242.197 85.068 242.49 84.188C242.797 83.2947 243.23 82.5414 243.79 81.928C244.35 81.3014 245.023 80.8214 245.81 80.488C246.61 80.1414 247.503 79.968 248.49 79.968C249.823 79.968 250.97 80.2614 251.93 80.848C252.903 81.4347 253.65 82.268 254.17 83.348C254.703 84.4147 254.97 85.688 254.97 87.168C254.97 88.288 254.817 89.2947 254.51 90.188C254.203 91.0814 253.77 91.8414 253.21 92.468C252.65 93.0947 251.97 93.5814 251.17 93.928C250.383 94.2614 249.49 94.428 248.49 94.428ZM248.49 92.968C249.503 92.968 250.357 92.7414 251.05 92.288C251.757 91.8347 252.297 91.1747 252.67 90.308C253.043 89.4414 253.23 88.4014 253.23 87.188C253.23 85.3614 252.817 83.948 251.99 82.948C251.177 81.9347 250.01 81.428 248.49 81.428C247.503 81.428 246.657 81.6547 245.95 82.108C245.257 82.5614 244.723 83.2214 244.35 84.088C243.977 84.9414 243.79 85.9747 243.79 87.188C243.79 89.0014 244.203 90.4214 245.03 91.448C245.857 92.4614 247.01 92.968 248.49 92.968ZM264.002 94.428C262.615 94.428 261.429 94.1347 260.442 93.548C259.455 92.9614 258.695 92.128 258.162 91.048C257.642 89.968 257.382 88.6814 257.382 87.188C257.382 86.068 257.529 85.068 257.822 84.188C258.129 83.2947 258.562 82.5414 259.122 81.928C259.695 81.3014 260.395 80.8214 261.222 80.488C262.049 80.1414 262.975 79.968 264.002 79.968C264.829 79.968 265.615 80.088 266.362 80.328C267.109 80.5547 267.755 80.8947 268.302 81.348C268.475 81.4814 268.589 81.6347 268.642 81.808C268.709 81.968 268.715 82.128 268.662 82.288C268.622 82.4347 268.542 82.5614 268.422 82.668C268.315 82.7614 268.182 82.808 268.022 82.808C267.862 82.808 267.682 82.7414 267.482 82.608C267.002 82.2214 266.475 81.9347 265.902 81.748C265.329 81.5614 264.709 81.468 264.042 81.468C262.989 81.468 262.095 81.6947 261.362 82.148C260.629 82.588 260.075 83.2347 259.702 84.088C259.329 84.9414 259.142 85.9747 259.142 87.188C259.142 88.4014 259.329 89.4414 259.702 90.308C260.075 91.1614 260.629 91.8147 261.362 92.268C262.095 92.708 262.989 92.928 264.042 92.928C264.695 92.928 265.315 92.8347 265.902 92.648C266.489 92.448 267.029 92.1547 267.522 91.768C267.722 91.6347 267.902 91.5747 268.062 91.588C268.222 91.588 268.355 91.6347 268.462 91.728C268.569 91.8214 268.642 91.9414 268.682 92.088C268.735 92.2347 268.735 92.388 268.682 92.548C268.642 92.708 268.542 92.848 268.382 92.968C267.822 93.448 267.162 93.8147 266.402 94.068C265.655 94.308 264.855 94.428 264.002 94.428ZM276.869 94.428C275.562 94.428 274.422 94.1347 273.449 93.548C272.489 92.948 271.742 92.108 271.209 91.028C270.689 89.948 270.429 88.668 270.429 87.188C270.429 86.068 270.576 85.068 270.869 84.188C271.176 83.2947 271.609 82.5414 272.169 81.928C272.729 81.3014 273.402 80.8214 274.189 80.488C274.989 80.1414 275.882 79.968 276.869 79.968C278.202 79.968 279.349 80.2614 280.309 80.848C281.282 81.4347 282.029 82.268 282.549 83.348C283.082 84.4147 283.349 85.688 283.349 87.168C283.349 88.288 283.196 89.2947 282.889 90.188C282.582 91.0814 282.149 91.8414 281.589 92.468C281.029 93.0947 280.349 93.5814 279.549 93.928C278.762 94.2614 277.869 94.428 276.869 94.428ZM276.869 92.968C277.882 92.968 278.736 92.7414 279.429 92.288C280.136 91.8347 280.676 91.1747 281.049 90.308C281.422 89.4414 281.609 88.4014 281.609 87.188C281.609 85.3614 281.196 83.948 280.369 82.948C279.556 81.9347 278.389 81.428 276.869 81.428C275.882 81.428 275.036 81.6547 274.329 82.108C273.636 82.5614 273.102 83.2214 272.729 84.088C272.356 84.9414 272.169 85.9747 272.169 87.188C272.169 89.0014 272.582 90.4214 273.409 91.448C274.236 92.4614 275.389 92.968 276.869 92.968ZM287.121 94.248C286.854 94.248 286.648 94.1747 286.501 94.028C286.354 93.868 286.281 93.6547 286.281 93.388V80.908C286.281 80.628 286.348 80.4147 286.481 80.268C286.628 80.1214 286.834 80.048 287.101 80.048C287.368 80.048 287.568 80.1214 287.701 80.268C287.848 80.4147 287.921 80.628 287.921 80.908V92.808H294.481C294.721 92.808 294.908 92.8747 295.041 93.008C295.174 93.128 295.241 93.3014 295.241 93.528C295.241 93.7547 295.174 93.9347 295.041 94.068C294.908 94.188 294.721 94.248 294.481 94.248H287.121Z" fill="white"/>
</svg>
