<svg width="821" height="354" viewBox="0 0 821 354" fill="none" xmlns="http://www.w3.org/2000/svg">
<path fill-rule="evenodd" clip-rule="evenodd" d="M73.742 217.228C65.0002 217.228 56.8491 215.636 49.2887 212.45C43.4646 209.906 38.2013 206.626 33.4988 202.611L21.8293 214.159H0L23.3662 191.508C20.501 187.492 18.0965 183.148 16.1527 178.475C13.0813 170.807 11.5456 162.607 11.5456 153.878C11.5456 145.03 13.0813 136.831 16.1527 129.281C19.3423 121.612 23.7132 114.888 29.2654 109.107C34.9357 103.327 41.492 98.8439 48.9343 95.6587C56.4947 92.4735 64.6458 90.8809 73.3876 90.8809C82.1293 90.8809 90.2214 92.4735 97.6637 95.6587C103.226 98.0022 108.277 101.048 112.816 104.796L125.839 92.1723L144.801 92.1723L144.798 92.1649H162.872L200.186 187.684L237.827 92.1649H255.724L206.108 214.973H194.059L144.886 92.3846L122.362 114.673C125.773 119.088 128.585 123.957 130.8 129.281C133.989 136.949 135.584 145.207 135.584 154.055C135.584 162.784 133.989 170.983 130.8 178.652C127.61 186.32 123.18 193.044 117.51 198.825C111.958 204.605 105.401 209.147 97.8409 212.45C90.3986 215.636 82.3656 217.228 73.742 217.228ZM55.3134 197.763C51.4593 196.09 47.9617 193.971 44.8207 191.407L110.566 126.347C112.317 129.043 113.805 131.968 115.029 135.12C117.274 140.783 118.396 147.035 118.396 153.878C118.396 163.079 116.447 171.278 112.548 178.475C108.65 185.553 103.334 191.157 96.6005 195.286C89.9851 199.297 82.2475 201.302 73.3876 201.302C66.8903 201.302 60.8656 200.122 55.3134 197.763ZM101.221 116.037L35.2557 179.983C33.9937 177.792 32.883 175.46 31.9233 172.989C29.797 167.09 28.7338 160.72 28.7338 153.878C28.7338 144.676 30.6239 136.536 34.4041 129.458C38.3024 122.379 43.5593 116.835 50.1747 112.824C56.9082 108.813 64.6458 106.807 73.3876 106.807C80.003 106.807 86.0277 107.987 91.4618 110.346C95.0187 111.813 98.2719 113.71 101.221 116.037ZM260.66 92.1649V214.973H272H277.316H342.525V199.755H277.316V107.383H341.639V92.1649H277.316H272H260.66ZM385.758 161.532V147.553H404.01C411.216 147.553 416.768 145.724 420.666 142.067C424.565 138.41 426.514 133.455 426.514 127.202C426.514 121.304 424.565 116.408 420.666 112.515C416.886 108.622 411.393 106.675 404.187 106.675H376.19V214.973H359.533V92.1649H370.696H376.19H404.718C412.515 92.1649 419.308 93.6986 425.096 96.7658C430.885 99.7151 435.315 103.785 438.386 108.976C441.576 114.167 443.17 120.124 443.17 126.849C443.17 133.809 441.576 139.884 438.386 145.075C435.315 150.266 430.885 154.336 425.096 157.285C419.963 159.796 414.04 161.193 407.328 161.478L451.499 214.973H430.412L385.758 161.532ZM529.048 108.851H505.917V215.459H489.26V108.851H446.867V92.1581H552.161L529.048 108.851ZM571.441 92.2329V92.1649H588.097V214.973H571.441V113.597L545.733 133.051L535.453 119.467L571.441 92.2329ZM604.79 92.1649V214.973H621.447V128.527L658.836 189.845H670.532L707.744 128.818V214.973H724.401V92.1649H712.706L664.595 171.094L616.485 92.1649H604.79ZM738.335 214.973V92.1649H749.675H754.991H819.314V107.383H754.991V199.755H820.2V214.973H754.991H749.675H738.335ZM771.717 160.221V144.898H819.314V160.221H771.717ZM341.564 146.086H288.917V161.494H341.564V146.086Z" fill="white"/>
<path d="M252.442 47.3681C249.343 47.3681 246.69 46.7086 244.481 45.3894C242.272 44.0396 240.57 42.1223 239.373 39.6374C238.208 37.1526 237.625 34.1922 237.625 30.7563C237.625 28.1794 237.947 25.8786 238.591 23.8539C239.266 21.7985 240.232 20.0652 241.49 18.6541C242.779 17.2122 244.343 16.1078 246.184 15.3409C248.055 14.574 250.141 14.1905 252.442 14.1905C254.467 14.1905 256.353 14.4819 258.102 15.0648C259.851 15.6477 261.354 16.5067 262.611 17.6417C262.918 17.9178 263.118 18.2092 263.21 18.516C263.302 18.8228 263.302 19.1142 263.21 19.3903C263.148 19.6357 263.01 19.8505 262.796 20.0346C262.581 20.1879 262.32 20.2646 262.013 20.2646C261.737 20.234 261.43 20.0806 261.093 19.8045C259.927 18.7921 258.623 18.0405 257.182 17.5497C255.77 17.0588 254.206 16.8134 252.488 16.8134C249.942 16.8134 247.779 17.3656 246 18.47C244.251 19.5437 242.917 21.1236 241.996 23.2097C241.107 25.2957 240.662 27.8113 240.662 30.7563C240.662 33.732 241.107 36.2629 241.996 38.349C242.917 40.435 244.251 42.0303 246 43.1346C247.779 44.2084 249.942 44.7452 252.488 44.7452C254.175 44.7452 255.74 44.4998 257.182 44.009C258.623 43.4874 259.943 42.7205 261.139 41.7081C261.476 41.432 261.783 41.294 262.059 41.294C262.366 41.294 262.611 41.386 262.796 41.5701C263.01 41.7235 263.164 41.9382 263.256 42.2143C263.348 42.4597 263.348 42.7205 263.256 42.9966C263.194 43.2727 263.026 43.5335 262.75 43.7789C261.43 44.9753 259.897 45.8803 258.148 46.4938C256.43 47.0767 254.528 47.3681 252.442 47.3681ZM282.003 47.3681C279.058 47.3681 276.497 46.6932 274.319 45.3434C272.141 43.9936 270.453 42.0763 269.257 39.5914C268.091 37.1065 267.508 34.1615 267.508 30.7563C267.508 28.1794 267.83 25.8786 268.475 23.8539C269.149 21.7985 270.116 20.0652 271.374 18.6541C272.631 17.2122 274.15 16.1078 275.929 15.3409C277.739 14.574 279.764 14.1905 282.003 14.1905C285.01 14.1905 287.602 14.8654 289.78 16.2152C291.958 17.5343 293.63 19.4363 294.796 21.9212C295.962 24.3754 296.544 27.3051 296.544 30.7103C296.544 33.2872 296.207 35.6033 295.532 37.6587C294.857 39.7141 293.891 41.4627 292.633 42.9046C291.375 44.3464 289.841 45.4508 288.031 46.2177C286.252 46.9847 284.243 47.3681 282.003 47.3681ZM282.003 44.7912C284.458 44.7912 286.544 44.239 288.262 43.1346C289.979 42.0303 291.283 40.435 292.173 38.349C293.093 36.2629 293.553 33.732 293.553 30.7563C293.553 26.3081 292.541 22.8722 290.516 20.4487C288.522 17.9945 285.685 16.7674 282.003 16.7674C279.58 16.7674 277.509 17.3196 275.791 18.424C274.073 19.5284 272.754 21.1236 271.834 23.2097C270.944 25.2957 270.499 27.8113 270.499 30.7563C270.499 35.1739 271.512 38.6251 273.536 41.1099C275.561 43.5641 278.383 44.7912 282.003 44.7912ZM305.094 47.2761C304.695 47.2761 304.373 47.1534 304.127 46.908C303.913 46.6625 303.805 46.3251 303.805 45.8956V15.663C303.805 15.2029 303.913 14.8654 304.127 14.6507C304.373 14.4052 304.68 14.2825 305.048 14.2825C305.446 14.2825 305.753 14.3592 305.968 14.5126C306.183 14.666 306.382 14.9114 306.566 15.2489L319.727 40.2356H318.438L331.507 15.2489C331.722 14.9114 331.921 14.666 332.105 14.5126C332.32 14.3592 332.627 14.2825 333.025 14.2825C333.394 14.2825 333.685 14.4052 333.9 14.6507C334.145 14.8654 334.268 15.2029 334.268 15.663V45.8956C334.268 46.3251 334.161 46.6625 333.946 46.908C333.731 47.1534 333.409 47.2761 332.979 47.2761C332.55 47.2761 332.213 47.1534 331.967 46.908C331.752 46.6625 331.645 46.3251 331.645 45.8956V17.9638H332.749L320.417 41.34C320.264 41.6468 320.095 41.8769 319.911 42.0303C319.727 42.1836 319.466 42.2603 319.129 42.2603C318.76 42.2603 318.469 42.1836 318.254 42.0303C318.07 41.8462 317.902 41.6161 317.748 41.34L305.278 17.9178H306.382V45.8956C306.382 46.3251 306.275 46.6625 306.06 46.908C305.845 47.1534 305.523 47.2761 305.094 47.2761ZM344.144 47.2761C343.715 47.2761 343.378 47.1534 343.132 46.908C342.887 46.6319 342.764 46.2637 342.764 45.8036V15.7551C342.764 15.2642 342.887 14.8961 343.132 14.6507C343.378 14.4052 343.715 14.2825 344.144 14.2825C344.605 14.2825 344.957 14.4052 345.203 14.6507C345.448 14.8961 345.571 15.2642 345.571 15.7551V45.8036C345.571 46.2637 345.448 46.6319 345.203 46.908C344.988 47.1534 344.635 47.2761 344.144 47.2761ZM355.378 47.2761C354.948 47.2761 354.611 47.1534 354.365 46.908C354.151 46.6625 354.043 46.3098 354.043 45.8496V15.7551C354.043 15.2642 354.151 14.8961 354.365 14.6507C354.58 14.4052 354.872 14.2825 355.24 14.2825C355.639 14.2825 355.93 14.3439 356.114 14.4666C356.298 14.5893 356.498 14.8194 356.712 15.1568L377.88 43.6408H376.821V15.663C376.821 15.2029 376.929 14.8654 377.143 14.6507C377.389 14.4052 377.726 14.2825 378.156 14.2825C378.555 14.2825 378.861 14.4052 379.076 14.6507C379.322 14.8654 379.444 15.2029 379.444 15.663V45.8496C379.444 46.3098 379.337 46.6625 379.122 46.908C378.938 47.1534 378.662 47.2761 378.294 47.2761C377.956 47.2761 377.68 47.1994 377.466 47.046C377.251 46.9233 377.021 46.7086 376.775 46.4018L355.654 17.9178H356.666V45.8496C356.666 46.3098 356.544 46.6625 356.298 46.908C356.083 47.1534 355.777 47.2761 355.378 47.2761ZM402.329 47.3681C398.924 47.3681 396.056 46.7239 393.724 45.4355C391.393 44.1163 389.629 42.2143 388.432 39.7295C387.236 37.2446 386.638 34.2535 386.638 30.7563C386.638 28.1794 386.975 25.8786 387.65 23.8539C388.325 21.7985 389.291 20.0652 390.549 18.6541C391.838 17.2122 393.402 16.1078 395.243 15.3409C397.114 14.574 399.231 14.1905 401.593 14.1905C403.648 14.1905 405.596 14.4819 407.437 15.0648C409.278 15.6477 410.873 16.568 412.223 17.8258C412.499 18.0712 412.668 18.332 412.729 18.6081C412.79 18.8535 412.775 19.1142 412.683 19.3903C412.591 19.6357 412.438 19.8505 412.223 20.0346C412.039 20.1879 411.809 20.28 411.533 20.3107C411.287 20.3107 411.011 20.2033 410.704 19.9885C409.446 18.8535 408.051 18.0405 406.517 17.5497C405.014 17.0588 403.357 16.8134 401.547 16.8134C399.001 16.8134 396.838 17.3656 395.059 18.47C393.28 19.5437 391.93 21.1236 391.009 23.2097C390.089 25.2957 389.629 27.8113 389.629 30.7563C389.629 35.3272 390.687 38.8091 392.804 41.202C394.921 43.5948 398.111 44.7912 402.375 44.7912C403.971 44.7912 405.504 44.6378 406.977 44.3311C408.449 44.0243 409.83 43.5948 411.118 43.0426L410.428 44.9753V32.781H403.158C402.728 32.781 402.391 32.6736 402.145 32.4589C401.931 32.2135 401.823 31.9067 401.823 31.5386C401.823 31.1705 401.931 30.8944 402.145 30.7103C402.391 30.4956 402.728 30.3882 403.158 30.3882H411.671C412.1 30.3882 412.422 30.5109 412.637 30.7563C412.852 30.9711 412.959 31.2778 412.959 31.6766V44.055C412.959 44.4231 412.898 44.7299 412.775 44.9753C412.683 45.2207 412.499 45.4048 412.223 45.5275C410.996 46.049 409.462 46.4938 407.621 46.862C405.811 47.1994 404.047 47.3681 402.329 47.3681ZM442.853 47.3681C441.38 47.3681 439.954 47.2454 438.573 47C437.193 46.7546 435.904 46.3865 434.708 45.8956C433.542 45.3741 432.484 44.7452 431.533 44.009C431.226 43.7942 431.011 43.5488 430.888 43.2727C430.796 42.9659 430.781 42.6898 430.842 42.4444C430.934 42.1683 431.073 41.9382 431.257 41.7542C431.471 41.5701 431.717 41.4781 431.993 41.4781C432.269 41.4474 432.56 41.5394 432.867 41.7542C434.278 42.7972 435.766 43.5641 437.331 44.055C438.926 44.5458 440.767 44.7912 442.853 44.7912C445.767 44.7912 447.945 44.2237 449.387 43.0886C450.859 41.9536 451.596 40.4657 451.596 38.6251C451.596 37.0912 451.059 35.8948 449.985 35.0358C448.942 34.1768 447.209 33.5019 444.785 33.0111L440.138 32.0448C437.223 31.4619 435.061 30.4802 433.649 29.0997C432.238 27.7192 431.533 25.8786 431.533 23.5778C431.533 22.1666 431.809 20.8935 432.361 19.7585C432.913 18.5927 433.695 17.5957 434.708 16.7674C435.72 15.9391 436.917 15.3102 438.297 14.8807C439.708 14.4206 441.257 14.1905 442.945 14.1905C444.939 14.1905 446.764 14.4666 448.421 15.0188C450.108 15.571 451.642 16.4453 453.022 17.6417C453.298 17.8565 453.482 18.1172 453.574 18.424C453.666 18.7001 453.666 18.9762 453.574 19.2523C453.482 19.4977 453.344 19.6971 453.16 19.8505C452.976 20.0039 452.746 20.0959 452.47 20.1266C452.194 20.1266 451.902 20.0039 451.596 19.7585C450.307 18.7154 448.957 17.9638 447.546 17.5037C446.166 17.0128 444.632 16.7674 442.945 16.7674C441.227 16.7674 439.724 17.0435 438.435 17.5957C437.177 18.1479 436.196 18.9302 435.49 19.9425C434.784 20.9549 434.432 22.1513 434.432 23.5318C434.432 25.127 434.923 26.4001 435.904 27.3511C436.886 28.3021 438.466 28.9924 440.644 29.4218L445.338 30.3882C448.436 31.0324 450.737 31.9987 452.24 33.2872C453.743 34.545 454.495 36.2782 454.495 38.487C454.495 39.8061 454.219 41.0179 453.666 42.1223C453.145 43.196 452.378 44.1317 451.366 44.9293C450.353 45.7269 449.126 46.3404 447.684 46.7699C446.273 47.1687 444.663 47.3681 442.853 47.3681ZM473.887 47.3681C470.942 47.3681 468.38 46.6932 466.202 45.3434C464.024 43.9936 462.337 42.0763 461.14 39.5914C459.975 37.1065 459.392 34.1615 459.392 30.7563C459.392 28.1794 459.714 25.8786 460.358 23.8539C461.033 21.7985 461.999 20.0652 463.257 18.6541C464.515 17.2122 466.033 16.1078 467.813 15.3409C469.623 14.574 471.647 14.1905 473.887 14.1905C476.893 14.1905 479.486 14.8654 481.664 16.2152C483.842 17.5343 485.514 19.4363 486.679 21.9212C487.845 24.3754 488.428 27.3051 488.428 30.7103C488.428 33.2872 488.091 35.6033 487.416 37.6587C486.741 39.7141 485.774 41.4627 484.517 42.9046C483.259 44.3464 481.725 45.4508 479.915 46.2177C478.136 46.9847 476.126 47.3681 473.887 47.3681ZM473.887 44.7912C476.341 44.7912 478.427 44.239 480.145 43.1346C481.863 42.0303 483.167 40.435 484.056 38.349C484.977 36.2629 485.437 33.732 485.437 30.7563C485.437 26.3081 484.425 22.8722 482.4 20.4487C480.406 17.9945 477.568 16.7674 473.887 16.7674C471.463 16.7674 469.393 17.3196 467.675 18.424C465.957 19.5284 464.638 21.1236 463.717 23.2097C462.828 25.2957 462.383 27.8113 462.383 30.7563C462.383 35.1739 463.395 38.6251 465.42 41.1099C467.445 43.5641 470.267 44.7912 473.887 44.7912ZM508.803 47.3681C505.858 47.3681 503.297 46.6932 501.119 45.3434C498.941 43.9936 497.253 42.0763 496.057 39.5914C494.891 37.1065 494.308 34.1615 494.308 30.7563C494.308 28.1794 494.63 25.8786 495.275 23.8539C495.95 21.7985 496.916 20.0652 498.174 18.6541C499.432 17.2122 500.95 16.1078 502.729 15.3409C504.539 14.574 506.564 14.1905 508.803 14.1905C511.81 14.1905 514.402 14.8654 516.58 16.2152C518.758 17.5343 520.43 19.4363 521.596 21.9212C522.762 24.3754 523.345 27.3051 523.345 30.7103C523.345 33.2872 523.007 35.6033 522.332 37.6587C521.657 39.7141 520.691 41.4627 519.433 42.9046C518.175 44.3464 516.642 45.4508 514.832 46.2177C513.052 46.9847 511.043 47.3681 508.803 47.3681ZM508.803 44.7912C511.258 44.7912 513.344 44.239 515.062 43.1346C516.78 42.0303 518.083 40.435 518.973 38.349C519.893 36.2629 520.353 33.732 520.353 30.7563C520.353 26.3081 519.341 22.8722 517.316 20.4487C515.322 17.9945 512.485 16.7674 508.803 16.7674C506.38 16.7674 504.309 17.3196 502.591 18.424C500.873 19.5284 499.554 21.1236 498.634 23.2097C497.744 25.2957 497.299 27.8113 497.299 30.7563C497.299 35.1739 498.312 38.6251 500.336 41.1099C502.361 43.5641 505.184 44.7912 508.803 44.7912ZM531.848 47.2761C531.418 47.2761 531.081 47.1534 530.835 46.908C530.621 46.6625 530.513 46.3098 530.513 45.8496V15.7551C530.513 15.2642 530.621 14.8961 530.835 14.6507C531.05 14.4052 531.342 14.2825 531.71 14.2825C532.109 14.2825 532.4 14.3439 532.584 14.4666C532.768 14.5893 532.968 14.8194 533.182 15.1568L554.35 43.6408H553.291V15.663C553.291 15.2029 553.399 14.8654 553.613 14.6507C553.859 14.4052 554.196 14.2825 554.626 14.2825C555.025 14.2825 555.331 14.4052 555.546 14.6507C555.792 14.8654 555.914 15.2029 555.914 15.663V45.8496C555.914 46.3098 555.807 46.6625 555.592 46.908C555.408 47.1534 555.132 47.2761 554.764 47.2761C554.426 47.2761 554.15 47.1994 553.936 47.046C553.721 46.9233 553.491 46.7086 553.245 46.4018L532.124 17.9178H533.136V45.8496C533.136 46.3098 533.014 46.6625 532.768 46.908C532.553 47.1534 532.247 47.2761 531.848 47.2761Z" fill="white"/>
<path d="M207.566 287.403C206.093 287.403 204.667 287.281 203.286 287.035C201.906 286.79 200.617 286.422 199.421 285.931C198.255 285.409 197.197 284.78 196.246 284.044C195.939 283.829 195.724 283.584 195.602 283.308C195.51 283.001 195.494 282.725 195.556 282.48C195.648 282.203 195.786 281.973 195.97 281.789C196.184 281.605 196.43 281.513 196.706 281.513C196.982 281.483 197.273 281.575 197.58 281.789C198.991 282.832 200.479 283.599 202.044 284.09C203.639 284.581 205.48 284.826 207.566 284.826C210.48 284.826 212.658 284.259 214.1 283.124C215.573 281.989 216.309 280.501 216.309 278.66C216.309 277.126 215.772 275.93 214.698 275.071C213.655 274.212 211.922 273.537 209.498 273.046L204.851 272.08C201.936 271.497 199.774 270.515 198.363 269.135C196.951 267.754 196.246 265.914 196.246 263.613C196.246 262.202 196.522 260.929 197.074 259.794C197.626 258.628 198.409 257.631 199.421 256.803C200.433 255.974 201.63 255.345 203.01 254.916C204.421 254.456 205.971 254.226 207.658 254.226C209.652 254.226 211.477 254.502 213.134 255.054C214.821 255.606 216.355 256.48 217.735 257.677C218.011 257.892 218.195 258.152 218.288 258.459C218.38 258.735 218.38 259.011 218.288 259.287C218.195 259.533 218.057 259.732 217.873 259.886C217.689 260.039 217.459 260.131 217.183 260.162C216.907 260.162 216.616 260.039 216.309 259.794C215.02 258.751 213.671 257.999 212.259 257.539C210.879 257.048 209.345 256.803 207.658 256.803C205.94 256.803 204.437 257.079 203.148 257.631C201.89 258.183 200.909 258.965 200.203 259.978C199.498 260.99 199.145 262.186 199.145 263.567C199.145 265.162 199.636 266.435 200.617 267.386C201.599 268.337 203.179 269.028 205.357 269.457L210.051 270.423C213.149 271.068 215.45 272.034 216.953 273.322C218.456 274.58 219.208 276.313 219.208 278.522C219.208 279.841 218.932 281.053 218.38 282.157C217.858 283.231 217.091 284.167 216.079 284.964C215.066 285.762 213.839 286.376 212.397 286.805C210.986 287.204 209.376 287.403 207.566 287.403ZM226.774 287.311C226.344 287.311 226.007 287.189 225.762 286.943C225.516 286.667 225.393 286.299 225.393 285.839V256.066C225.393 255.575 225.516 255.207 225.762 254.962C226.038 254.717 226.39 254.594 226.82 254.594H237.634C241.07 254.594 243.708 255.422 245.548 257.079C247.389 258.735 248.309 261.097 248.309 264.165C248.309 267.202 247.389 269.564 245.548 271.252C243.708 272.908 241.07 273.736 237.634 273.736H228.2V285.839C228.2 286.299 228.078 286.667 227.832 286.943C227.618 287.189 227.265 287.311 226.774 287.311ZM228.2 271.252H237.404C240.073 271.252 242.082 270.653 243.432 269.457C244.782 268.261 245.456 266.497 245.456 264.165C245.456 261.834 244.782 260.07 243.432 258.873C242.082 257.646 240.073 257.033 237.404 257.033H228.2V271.252ZM266.911 287.403C263.966 287.403 261.404 286.728 259.226 285.379C257.048 284.029 255.361 282.111 254.164 279.627C252.999 277.142 252.416 274.197 252.416 270.791C252.416 268.215 252.738 265.914 253.382 263.889C254.057 261.834 255.023 260.1 256.281 258.689C257.539 257.247 259.057 256.143 260.837 255.376C262.647 254.609 264.671 254.226 266.911 254.226C269.917 254.226 272.509 254.901 274.687 256.25C276.866 257.57 278.537 259.472 279.703 261.956C280.869 264.411 281.452 267.34 281.452 270.745C281.452 273.322 281.114 275.638 280.439 277.694C279.765 279.749 278.798 281.498 277.54 282.94C276.283 284.382 274.749 285.486 272.939 286.253C271.16 287.02 269.15 287.403 266.911 287.403ZM266.911 284.826C269.365 284.826 271.451 284.274 273.169 283.17C274.887 282.065 276.191 280.47 277.08 278.384C278.001 276.298 278.461 273.767 278.461 270.791C278.461 266.343 277.448 262.907 275.424 260.484C273.43 258.03 270.592 256.803 266.911 256.803C264.487 256.803 262.416 257.355 260.699 258.459C258.981 259.564 257.661 261.159 256.741 263.245C255.852 265.331 255.407 267.846 255.407 270.791C255.407 275.209 256.419 278.66 258.444 281.145C260.468 283.599 263.291 284.826 266.911 284.826ZM290.001 287.311C289.572 287.311 289.234 287.189 288.989 286.943C288.743 286.667 288.621 286.299 288.621 285.839V256.066C288.621 255.575 288.743 255.207 288.989 254.962C289.265 254.717 289.618 254.594 290.047 254.594H300.861C304.297 254.594 306.935 255.391 308.776 256.987C310.616 258.582 311.537 260.852 311.537 263.797C311.537 265.699 311.123 267.34 310.294 268.721C309.466 270.071 308.239 271.098 306.613 271.804C305.018 272.509 303.1 272.862 300.861 272.862L301.367 272.264H302.011C303.177 272.264 304.189 272.571 305.048 273.184C305.938 273.798 306.736 274.795 307.441 276.175L312.319 285.241C312.534 285.578 312.626 285.915 312.595 286.253C312.595 286.56 312.488 286.82 312.273 287.035C312.058 287.219 311.782 287.311 311.445 287.311C311.046 287.311 310.708 287.219 310.432 287.035C310.187 286.851 309.972 286.59 309.788 286.253L304.634 276.636C303.837 275.163 302.947 274.197 301.965 273.736C300.984 273.246 299.664 273 298.008 273H291.428V285.839C291.428 286.299 291.305 286.667 291.059 286.943C290.845 287.189 290.492 287.311 290.001 287.311ZM291.428 270.607H300.493C303.223 270.607 305.263 270.04 306.613 268.905C307.993 267.739 308.684 266.036 308.684 263.797C308.684 261.588 307.993 259.916 306.613 258.781C305.263 257.616 303.223 257.033 300.493 257.033H291.428V270.607ZM327.578 287.311C327.118 287.311 326.765 287.189 326.52 286.943C326.274 286.667 326.151 286.299 326.151 285.839V257.125H315.154C314.724 257.125 314.387 257.002 314.141 256.757C313.896 256.511 313.773 256.204 313.773 255.836C313.773 255.437 313.896 255.131 314.141 254.916C314.387 254.701 314.724 254.594 315.154 254.594H340.048C340.478 254.594 340.8 254.701 341.015 254.916C341.26 255.131 341.383 255.437 341.383 255.836C341.383 256.235 341.26 256.557 341.015 256.803C340.8 257.017 340.478 257.125 340.048 257.125H329.004V285.839C329.004 286.299 328.882 286.667 328.636 286.943C328.422 287.189 328.069 287.311 327.578 287.311ZM354.422 287.403C352.949 287.403 351.523 287.281 350.142 287.035C348.762 286.79 347.473 286.422 346.277 285.931C345.111 285.409 344.053 284.78 343.102 284.044C342.795 283.829 342.58 283.584 342.458 283.308C342.366 283.001 342.35 282.725 342.412 282.48C342.504 282.203 342.642 281.973 342.826 281.789C343.041 281.605 343.286 281.513 343.562 281.513C343.838 281.483 344.13 281.575 344.436 281.789C345.848 282.832 347.335 283.599 348.9 284.09C350.495 284.581 352.336 284.826 354.422 284.826C357.336 284.826 359.514 284.259 360.956 283.124C362.429 281.989 363.165 280.501 363.165 278.66C363.165 277.126 362.628 275.93 361.554 275.071C360.511 274.212 358.778 273.537 356.355 273.046L351.707 272.08C348.793 271.497 346.63 270.515 345.219 269.135C343.807 267.754 343.102 265.914 343.102 263.613C343.102 262.202 343.378 260.929 343.93 259.794C344.482 258.628 345.265 257.631 346.277 256.803C347.289 255.974 348.486 255.345 349.866 254.916C351.277 254.456 352.827 254.226 354.514 254.226C356.508 254.226 358.333 254.502 359.99 255.054C361.677 255.606 363.211 256.48 364.591 257.677C364.868 257.892 365.052 258.152 365.144 258.459C365.236 258.735 365.236 259.011 365.144 259.287C365.052 259.533 364.914 259.732 364.729 259.886C364.545 260.039 364.315 260.131 364.039 260.162C363.763 260.162 363.472 260.039 363.165 259.794C361.876 258.751 360.527 257.999 359.116 257.539C357.735 257.048 356.201 256.803 354.514 256.803C352.796 256.803 351.293 257.079 350.004 257.631C348.747 258.183 347.765 258.965 347.059 259.978C346.354 260.99 346.001 262.186 346.001 263.567C346.001 265.162 346.492 266.435 347.473 267.386C348.455 268.337 350.035 269.028 352.213 269.457L356.907 270.423C360.005 271.068 362.306 272.034 363.809 273.322C365.312 274.58 366.064 276.313 366.064 278.522C366.064 279.841 365.788 281.053 365.236 282.157C364.714 283.231 363.947 284.167 362.935 284.964C361.923 285.762 360.695 286.376 359.254 286.805C357.842 287.204 356.232 287.403 354.422 287.403ZM385.224 287.311C384.825 287.311 384.503 287.189 384.258 286.943C384.043 286.698 383.935 286.36 383.935 285.931V255.698C383.935 255.238 384.043 254.901 384.258 254.686C384.503 254.44 384.81 254.318 385.178 254.318C385.577 254.318 385.883 254.394 386.098 254.548C386.313 254.701 386.512 254.947 386.696 255.284L399.857 280.271H398.569L411.637 255.284C411.852 254.947 412.051 254.701 412.235 254.548C412.45 254.394 412.757 254.318 413.156 254.318C413.524 254.318 413.815 254.44 414.03 254.686C414.275 254.901 414.398 255.238 414.398 255.698V285.931C414.398 286.36 414.291 286.698 414.076 286.943C413.861 287.189 413.539 287.311 413.11 287.311C412.68 287.311 412.343 287.189 412.097 286.943C411.883 286.698 411.775 286.36 411.775 285.931V257.999H412.88L400.547 281.375C400.394 281.682 400.225 281.912 400.041 282.065C399.857 282.219 399.596 282.295 399.259 282.295C398.891 282.295 398.599 282.219 398.385 282.065C398.2 281.881 398.032 281.651 397.878 281.375L385.408 257.953H386.512V285.931C386.512 286.36 386.405 286.698 386.19 286.943C385.976 287.189 385.653 287.311 385.224 287.311ZM421.744 287.311C421.345 287.311 421.023 287.219 420.777 287.035C420.563 286.882 420.44 286.652 420.409 286.345C420.409 286.038 420.486 285.701 420.639 285.333L433.57 255.606C433.785 255.146 434.045 254.824 434.352 254.64C434.659 254.425 434.966 254.318 435.273 254.318C435.641 254.318 435.963 254.425 436.239 254.64C436.546 254.824 436.791 255.146 436.975 255.606L449.906 285.333C450.09 285.701 450.166 286.038 450.136 286.345C450.136 286.652 450.028 286.882 449.814 287.035C449.63 287.219 449.338 287.311 448.939 287.311C448.51 287.311 448.157 287.204 447.881 286.989C447.636 286.744 447.421 286.422 447.237 286.023L443.694 277.694L445.212 278.384H425.287L426.852 277.694L423.308 286.023C423.124 286.483 422.894 286.82 422.618 287.035C422.373 287.219 422.081 287.311 421.744 287.311ZM435.227 258.091L427.404 276.497L426.345 275.945H444.154L443.187 276.497L435.319 258.091H435.227ZM457.484 287.311C457.054 287.311 456.717 287.189 456.471 286.943C456.226 286.667 456.103 286.299 456.103 285.839V256.066C456.103 255.575 456.226 255.207 456.471 254.962C456.747 254.717 457.1 254.594 457.53 254.594H468.343C471.779 254.594 474.418 255.391 476.258 256.987C478.099 258.582 479.019 260.852 479.019 263.797C479.019 265.699 478.605 267.34 477.777 268.721C476.948 270.071 475.721 271.098 474.095 271.804C472.5 272.509 470.583 272.862 468.343 272.862L468.85 272.264H469.494C470.66 272.264 471.672 272.571 472.531 273.184C473.421 273.798 474.218 274.795 474.924 276.175L479.801 285.241C480.016 285.578 480.108 285.915 480.078 286.253C480.078 286.56 479.97 286.82 479.755 287.035C479.541 287.219 479.265 287.311 478.927 287.311C478.528 287.311 478.191 287.219 477.915 287.035C477.669 286.851 477.455 286.59 477.271 286.253L472.117 276.636C471.319 275.163 470.429 274.197 469.448 273.736C468.466 273.246 467.147 273 465.49 273H458.91V285.839C458.91 286.299 458.787 286.667 458.542 286.943C458.327 287.189 457.974 287.311 457.484 287.311ZM458.91 270.607H467.975C470.706 270.607 472.746 270.04 474.095 268.905C475.476 267.739 476.166 266.036 476.166 263.797C476.166 261.588 475.476 259.916 474.095 258.781C472.746 257.616 470.706 257.033 467.975 257.033H458.91V270.607ZM487.906 287.311C487.477 287.311 487.139 287.189 486.894 286.943C486.649 286.667 486.526 286.299 486.526 285.839V255.744C486.526 255.284 486.649 254.931 486.894 254.686C487.139 254.44 487.477 254.318 487.906 254.318C488.367 254.318 488.719 254.44 488.965 254.686C489.21 254.931 489.333 255.284 489.333 255.744V269.503H489.425L505.208 255.146C505.546 254.87 505.868 254.67 506.175 254.548C506.482 254.394 506.804 254.318 507.141 254.318C507.571 254.318 507.877 254.425 508.061 254.64C508.276 254.824 508.368 255.069 508.338 255.376C508.307 255.652 508.138 255.928 507.831 256.204L491.081 271.344L491.174 269.595L508.614 285.148C508.982 285.486 509.181 285.823 509.212 286.161C509.243 286.498 509.135 286.774 508.89 286.989C508.675 287.204 508.353 287.311 507.923 287.311C507.555 287.311 507.233 287.235 506.957 287.081C506.712 286.928 506.42 286.713 506.083 286.437L489.425 271.62H489.333V285.839C489.333 286.299 489.21 286.667 488.965 286.943C488.75 287.189 488.397 287.311 487.906 287.311ZM516.042 287.035C515.551 287.035 515.167 286.897 514.891 286.621C514.615 286.345 514.477 285.946 514.477 285.425V256.204C514.477 255.683 514.615 255.284 514.891 255.008C515.167 254.732 515.551 254.594 516.042 254.594H533.436C533.865 254.594 534.187 254.701 534.402 254.916C534.617 255.131 534.724 255.422 534.724 255.79C534.724 256.22 534.617 256.542 534.402 256.757C534.187 256.941 533.865 257.033 533.436 257.033H517.238V269.365H532.515C532.945 269.365 533.267 269.472 533.482 269.687C533.696 269.871 533.804 270.163 533.804 270.561C533.804 270.96 533.696 271.267 533.482 271.482C533.267 271.696 532.945 271.804 532.515 271.804H517.238V284.596H533.436C533.865 284.596 534.187 284.704 534.402 284.918C534.617 285.102 534.724 285.394 534.724 285.793C534.724 286.192 534.617 286.498 534.402 286.713C534.187 286.928 533.865 287.035 533.436 287.035H516.042ZM549.705 287.311C549.244 287.311 548.892 287.189 548.646 286.943C548.401 286.667 548.278 286.299 548.278 285.839V257.125H537.28C536.851 257.125 536.513 257.002 536.268 256.757C536.022 256.511 535.9 256.204 535.9 255.836C535.9 255.437 536.022 255.131 536.268 254.916C536.513 254.701 536.851 254.594 537.28 254.594H562.175C562.604 254.594 562.927 254.701 563.141 254.916C563.387 255.131 563.509 255.437 563.509 255.836C563.509 256.235 563.387 256.557 563.141 256.803C562.927 257.017 562.604 257.125 562.175 257.125H551.131V285.839C551.131 286.299 551.008 286.667 550.763 286.943C550.548 287.189 550.195 287.311 549.705 287.311ZM576.548 287.403C575.076 287.403 573.649 287.281 572.269 287.035C570.889 286.79 569.6 286.422 568.404 285.931C567.238 285.409 566.18 284.78 565.229 284.044C564.922 283.829 564.707 283.584 564.584 283.308C564.492 283.001 564.477 282.725 564.538 282.48C564.63 282.203 564.768 281.973 564.952 281.789C565.167 281.605 565.413 281.513 565.689 281.513C565.965 281.483 566.256 281.575 566.563 281.789C567.974 282.832 569.462 283.599 571.027 284.09C572.622 284.581 574.462 284.826 576.548 284.826C579.463 284.826 581.641 284.259 583.083 283.124C584.555 281.989 585.292 280.501 585.292 278.66C585.292 277.126 584.755 275.93 583.681 275.071C582.638 274.212 580.905 273.537 578.481 273.046L573.834 272.08C570.919 271.497 568.756 270.515 567.345 269.135C565.934 267.754 565.229 265.914 565.229 263.613C565.229 262.202 565.505 260.929 566.057 259.794C566.609 258.628 567.391 257.631 568.404 256.803C569.416 255.974 570.612 255.345 571.993 254.916C573.404 254.456 574.953 254.226 576.641 254.226C578.635 254.226 580.46 254.502 582.116 255.054C583.804 255.606 585.338 256.48 586.718 257.677C586.994 257.892 587.178 258.152 587.27 258.459C587.362 258.735 587.362 259.011 587.27 259.287C587.178 259.533 587.04 259.732 586.856 259.886C586.672 260.039 586.442 260.131 586.166 260.162C585.89 260.162 585.598 260.039 585.292 259.794C584.003 258.751 582.653 257.999 581.242 257.539C579.862 257.048 578.328 256.803 576.641 256.803C574.923 256.803 573.419 257.079 572.131 257.631C570.873 258.183 569.891 258.965 569.186 259.978C568.48 260.99 568.128 262.186 568.128 263.567C568.128 265.162 568.618 266.435 569.6 267.386C570.582 268.337 572.162 269.028 574.34 269.457L579.033 270.423C582.132 271.068 584.433 272.034 585.936 273.322C587.439 274.58 588.191 276.313 588.191 278.522C588.191 279.841 587.914 281.053 587.362 282.157C586.841 283.231 586.074 284.167 585.061 284.964C584.049 285.762 582.822 286.376 581.38 286.805C579.969 287.204 578.358 287.403 576.548 287.403ZM78.5515 341.035C78.0606 341.035 77.6772 340.897 77.4011 340.621C77.125 340.345 76.9869 339.946 76.9869 339.425V310.204C76.9869 309.683 77.125 309.284 77.4011 309.008C77.6772 308.732 78.0606 308.594 78.5515 308.594H89.3653C91.6047 308.594 93.4914 308.931 95.0253 309.606C96.5591 310.25 97.7402 311.201 98.5685 312.459C99.3968 313.717 99.8109 315.266 99.8109 317.107C99.8109 319.131 99.1974 320.819 97.9703 322.169C96.7739 323.518 95.148 324.408 93.0926 324.837V324.193C95.3934 324.439 97.2033 325.267 98.5225 326.678C99.8723 328.059 100.547 329.899 100.547 332.2C100.547 335.084 99.6269 337.277 97.7862 338.78C95.9456 340.284 93.338 341.035 89.9635 341.035H78.5515ZM79.7479 338.642H89.7334C92.4023 338.642 94.3964 338.121 95.7155 337.078C97.0346 336.004 97.6942 334.393 97.6942 332.246C97.6942 330.037 97.0346 328.411 95.7155 327.368C94.3964 326.325 92.4023 325.804 89.7334 325.804H79.7479V338.642ZM79.7479 323.411H89.0432C91.6201 323.411 93.5834 322.889 94.9332 321.846C96.283 320.773 96.9579 319.224 96.9579 317.199C96.9579 315.174 96.283 313.64 94.9332 312.597C93.5834 311.523 91.6201 310.987 89.0432 310.987H79.7479V323.411ZM120.283 341.403C118.228 341.403 116.403 341.127 114.808 340.575C113.212 340.023 111.878 339.195 110.804 338.09C109.761 336.986 108.963 335.621 108.411 333.995C107.89 332.369 107.629 330.497 107.629 328.381V309.744C107.629 309.253 107.752 308.901 107.997 308.686C108.243 308.44 108.58 308.318 109.009 308.318C109.47 308.318 109.822 308.44 110.068 308.686C110.313 308.901 110.436 309.253 110.436 309.744V328.151C110.436 331.74 111.264 334.424 112.921 336.203C114.608 337.952 117.062 338.826 120.283 338.826C123.535 338.826 125.989 337.952 127.646 336.203C129.303 334.424 130.131 331.74 130.131 328.151V309.744C130.131 309.253 130.254 308.901 130.499 308.686C130.744 308.44 131.097 308.318 131.557 308.318C131.987 308.318 132.324 308.44 132.57 308.686C132.815 308.901 132.938 309.253 132.938 309.744V328.381C132.938 331.203 132.462 333.596 131.511 335.559C130.56 337.492 129.134 338.949 127.232 339.931C125.361 340.912 123.044 341.403 120.283 341.403ZM142.538 341.311C142.109 341.311 141.771 341.189 141.526 340.943C141.281 340.667 141.158 340.299 141.158 339.839V309.79C141.158 309.299 141.281 308.931 141.526 308.686C141.771 308.44 142.109 308.318 142.538 308.318C142.998 308.318 143.351 308.44 143.597 308.686C143.842 308.931 143.965 309.299 143.965 309.79V339.839C143.965 340.299 143.842 340.667 143.597 340.943C143.382 341.189 143.029 341.311 142.538 341.311ZM153.864 341.035C153.434 341.035 153.081 340.912 152.805 340.667C152.56 340.391 152.437 340.023 152.437 339.563V309.836C152.437 309.345 152.56 308.977 152.805 308.732C153.051 308.486 153.388 308.364 153.818 308.364C154.278 308.364 154.631 308.486 154.876 308.732C155.121 308.977 155.244 309.345 155.244 309.836V338.504H171.074C171.534 338.504 171.871 338.612 172.086 338.826C172.331 339.041 172.454 339.348 172.454 339.747C172.454 340.176 172.331 340.498 172.086 340.713C171.871 340.928 171.534 341.035 171.074 341.035H153.864ZM180.699 341.311C180.239 341.311 179.886 341.189 179.641 340.943C179.396 340.667 179.273 340.299 179.273 339.839V311.125H168.275C167.846 311.125 167.508 311.002 167.263 310.757C167.017 310.511 166.895 310.204 166.895 309.836C166.895 309.437 167.017 309.131 167.263 308.916C167.508 308.701 167.846 308.594 168.275 308.594H193.17C193.599 308.594 193.921 308.701 194.136 308.916C194.381 309.131 194.504 309.437 194.504 309.836C194.504 310.235 194.381 310.557 194.136 310.803C193.921 311.017 193.599 311.125 193.17 311.125H182.126V339.839C182.126 340.299 182.003 340.667 181.758 340.943C181.543 341.189 181.19 341.311 180.699 341.311ZM223.389 341.403C220.444 341.403 217.882 340.728 215.704 339.379C213.526 338.029 211.839 336.111 210.642 333.627C209.476 331.142 208.894 328.197 208.894 324.791C208.894 322.215 209.216 319.914 209.86 317.889C210.535 315.834 211.501 314.1 212.759 312.689C214.017 311.247 215.535 310.143 217.315 309.376C219.124 308.609 221.149 308.226 223.389 308.226C226.395 308.226 228.987 308.901 231.165 310.25C233.343 311.57 235.015 313.472 236.181 315.956C237.347 318.411 237.93 321.34 237.93 324.745C237.93 327.322 237.592 329.638 236.917 331.694C236.242 333.749 235.276 335.498 234.018 336.94C232.761 338.382 231.227 339.486 229.417 340.253C227.637 341.02 225.628 341.403 223.389 341.403ZM223.389 338.826C225.843 338.826 227.929 338.274 229.647 337.17C231.365 336.065 232.669 334.47 233.558 332.384C234.479 330.298 234.939 327.767 234.939 324.791C234.939 320.343 233.926 316.907 231.902 314.484C229.908 312.03 227.07 310.803 223.389 310.803C220.965 310.803 218.894 311.355 217.176 312.459C215.459 313.564 214.139 315.159 213.219 317.245C212.329 319.331 211.885 321.846 211.885 324.791C211.885 329.209 212.897 332.66 214.922 335.145C216.946 337.599 219.769 338.826 223.389 338.826ZM246.433 341.311C246.004 341.311 245.666 341.189 245.421 340.943C245.206 340.698 245.099 340.345 245.099 339.885V309.79C245.099 309.299 245.206 308.931 245.421 308.686C245.635 308.44 245.927 308.318 246.295 308.318C246.694 308.318 246.985 308.379 247.169 308.502C247.353 308.624 247.553 308.855 247.767 309.192L268.935 337.676H267.877V309.698C267.877 309.238 267.984 308.901 268.199 308.686C268.444 308.44 268.782 308.318 269.211 308.318C269.61 308.318 269.917 308.44 270.131 308.686C270.377 308.901 270.499 309.238 270.499 309.698V339.885C270.499 340.345 270.392 340.698 270.177 340.943C269.993 341.189 269.717 341.311 269.349 341.311C269.012 341.311 268.735 341.235 268.521 341.081C268.306 340.958 268.076 340.744 267.831 340.437L246.709 311.953H247.721V339.885C247.721 340.345 247.599 340.698 247.353 340.943C247.139 341.189 246.832 341.311 246.433 341.311ZM300.929 341.449C299.763 341.449 298.874 341.127 298.26 340.483C297.647 339.839 297.34 338.934 297.34 337.768V314.484H289.195C288.244 314.484 287.508 314.223 286.986 313.702C286.465 313.18 286.204 312.459 286.204 311.539C286.204 310.588 286.465 309.867 286.986 309.376C287.508 308.855 288.244 308.594 289.195 308.594H312.617C313.568 308.594 314.304 308.855 314.826 309.376C315.347 309.867 315.608 310.588 315.608 311.539C315.608 312.459 315.347 313.18 314.826 313.702C314.304 314.223 313.568 314.484 312.617 314.484H304.472V337.768C304.472 338.934 304.166 339.839 303.552 340.483C302.969 341.127 302.095 341.449 300.929 341.449ZM322.273 341.449C321.107 341.449 320.218 341.127 319.604 340.483C318.99 339.839 318.684 338.934 318.684 337.768V311.861C318.684 310.695 318.99 309.79 319.604 309.146C320.218 308.502 321.107 308.18 322.273 308.18C323.408 308.18 324.282 308.502 324.896 309.146C325.509 309.79 325.816 310.695 325.816 311.861V321.616H340.909V311.861C340.909 310.695 341.216 309.79 341.83 309.146C342.443 308.502 343.318 308.18 344.453 308.18C345.618 308.18 346.508 308.502 347.122 309.146C347.735 309.79 348.042 310.695 348.042 311.861V337.768C348.042 338.934 347.735 339.839 347.122 340.483C346.508 341.127 345.618 341.449 344.453 341.449C343.318 341.449 342.443 341.127 341.83 340.483C341.216 339.839 340.909 338.934 340.909 337.768V327.552H325.816V337.768C325.816 338.934 325.509 339.839 324.896 340.483C324.313 341.127 323.439 341.449 322.273 341.449ZM355.509 341.449C354.65 341.449 353.945 341.25 353.392 340.851C352.871 340.452 352.533 339.915 352.38 339.241C352.257 338.566 352.395 337.814 352.794 336.986L364.574 311.171C365.065 310.128 365.648 309.376 366.323 308.916C366.998 308.425 367.78 308.18 368.67 308.18C369.559 308.18 370.342 308.425 371.017 308.916C371.692 309.376 372.259 310.128 372.719 311.171L384.591 336.986C384.99 337.814 385.128 338.581 385.006 339.287C384.913 339.961 384.607 340.498 384.085 340.897C383.564 341.265 382.889 341.449 382.06 341.449C381.017 341.449 380.204 341.204 379.622 340.713C379.069 340.222 378.579 339.455 378.149 338.412L375.388 332.016L378.241 333.995H359.052L361.905 332.016L359.19 338.412C358.73 339.486 358.239 340.268 357.718 340.759C357.227 341.219 356.491 341.449 355.509 341.449ZM368.578 316.186L362.688 330.221L361.445 328.427H375.848L374.606 330.221L368.67 316.186H368.578ZM392.871 341.035C391.705 341.035 390.8 340.713 390.156 340.069C389.543 339.425 389.236 338.535 389.236 337.4V312.137C389.236 310.941 389.543 310.036 390.156 309.422C390.77 308.809 391.659 308.502 392.825 308.502C393.96 308.502 394.834 308.809 395.448 309.422C396.061 310.036 396.368 310.941 396.368 312.137V335.007H408.701C409.682 335.007 410.434 335.268 410.955 335.789C411.508 336.311 411.784 337.047 411.784 337.998C411.784 338.98 411.508 339.731 410.955 340.253C410.434 340.774 409.682 341.035 408.701 341.035H392.871ZM419.341 341.035C418.145 341.035 417.225 340.713 416.58 340.069C415.936 339.425 415.614 338.504 415.614 337.308V312.321C415.614 311.125 415.936 310.204 416.58 309.56C417.225 308.916 418.145 308.594 419.341 308.594H435.401C436.321 308.594 437.012 308.839 437.472 309.33C437.963 309.79 438.208 310.465 438.208 311.355C438.208 312.275 437.963 312.981 437.472 313.472C437.012 313.932 436.321 314.162 435.401 314.162H422.425V321.754H434.343C435.294 321.754 435.999 322 436.459 322.491C436.95 322.951 437.196 323.641 437.196 324.561C437.196 325.482 436.95 326.187 436.459 326.678C435.999 327.138 435.294 327.368 434.343 327.368H422.425V335.467H435.401C436.321 335.467 437.012 335.713 437.472 336.203C437.963 336.664 438.208 337.339 438.208 338.228C438.208 339.148 437.963 339.854 437.472 340.345C437.012 340.805 436.321 341.035 435.401 341.035H419.341ZM454.622 341.541C453.334 341.541 452.015 341.434 450.665 341.219C449.346 341.035 448.073 340.759 446.845 340.391C445.649 340.023 444.575 339.563 443.624 339.01C442.949 338.642 442.474 338.167 442.198 337.584C441.922 336.97 441.814 336.357 441.876 335.743C441.968 335.13 442.198 334.593 442.566 334.133C442.965 333.642 443.456 333.335 444.038 333.212C444.652 333.059 445.327 333.166 446.063 333.535C447.321 334.24 448.686 334.762 450.159 335.099C451.662 335.437 453.15 335.605 454.622 335.605C456.862 335.605 458.457 335.268 459.408 334.593C460.359 333.887 460.834 333.013 460.834 331.97C460.834 331.08 460.497 330.375 459.822 329.853C459.147 329.332 457.966 328.887 456.279 328.519L451.079 327.414C448.134 326.801 445.94 325.758 444.499 324.285C443.087 322.782 442.382 320.819 442.382 318.395C442.382 316.861 442.704 315.466 443.348 314.208C443.992 312.95 444.897 311.861 446.063 310.941C447.229 310.02 448.609 309.315 450.205 308.824C451.831 308.333 453.61 308.088 455.542 308.088C457.26 308.088 458.948 308.302 460.604 308.732C462.261 309.131 463.718 309.729 464.976 310.526C465.589 310.895 466.003 311.37 466.218 311.953C466.464 312.505 466.54 313.073 466.448 313.656C466.387 314.208 466.157 314.699 465.758 315.128C465.39 315.558 464.914 315.834 464.332 315.956C463.749 316.079 463.043 315.941 462.215 315.542C461.202 315.021 460.129 314.637 458.994 314.392C457.859 314.146 456.693 314.024 455.496 314.024C454.208 314.024 453.104 314.192 452.183 314.53C451.294 314.867 450.603 315.343 450.113 315.956C449.652 316.57 449.422 317.275 449.422 318.073C449.422 318.963 449.744 319.684 450.389 320.236C451.033 320.788 452.153 321.233 453.748 321.57L458.948 322.675C461.954 323.319 464.194 324.362 465.666 325.804C467.139 327.215 467.875 329.086 467.875 331.418C467.875 332.952 467.568 334.347 466.954 335.605C466.341 336.832 465.451 337.891 464.286 338.78C463.12 339.67 461.724 340.36 460.098 340.851C458.472 341.311 456.647 341.541 454.622 341.541ZM486.446 341.311C486.016 341.311 485.679 341.189 485.434 340.943C485.188 340.667 485.065 340.299 485.065 339.839V310.066C485.065 309.575 485.188 309.207 485.434 308.962C485.71 308.717 486.062 308.594 486.492 308.594H497.306C500.742 308.594 503.38 309.422 505.22 311.079C507.061 312.735 507.981 315.097 507.981 318.165C507.981 321.202 507.061 323.564 505.22 325.252C503.38 326.908 500.742 327.736 497.306 327.736H487.872V339.839C487.872 340.299 487.75 340.667 487.504 340.943C487.29 341.189 486.937 341.311 486.446 341.311ZM487.872 325.252H497.076C499.745 325.252 501.754 324.653 503.104 323.457C504.454 322.261 505.128 320.497 505.128 318.165C505.128 315.834 504.454 314.07 503.104 312.873C501.754 311.646 499.745 311.033 497.076 311.033H487.872V325.252ZM515.161 341.311C514.732 341.311 514.394 341.189 514.149 340.943C513.903 340.667 513.781 340.299 513.781 339.839V310.066C513.781 309.575 513.903 309.207 514.149 308.962C514.425 308.717 514.778 308.594 515.207 308.594H526.021C529.457 308.594 532.095 309.391 533.936 310.987C535.776 312.582 536.697 314.852 536.697 317.797C536.697 319.699 536.282 321.34 535.454 322.721C534.626 324.071 533.399 325.098 531.773 325.804C530.178 326.509 528.26 326.862 526.021 326.862L526.527 326.264H527.171C528.337 326.264 529.349 326.571 530.208 327.184C531.098 327.798 531.896 328.795 532.601 330.175L537.479 339.241C537.694 339.578 537.786 339.915 537.755 340.253C537.755 340.56 537.648 340.82 537.433 341.035C537.218 341.219 536.942 341.311 536.605 341.311C536.206 341.311 535.868 341.219 535.592 341.035C535.347 340.851 535.132 340.59 534.948 340.253L529.794 330.636C528.997 329.163 528.107 328.197 527.125 327.736C526.144 327.246 524.824 327 523.168 327H516.588V339.839C516.588 340.299 516.465 340.667 516.219 340.943C516.005 341.189 515.652 341.311 515.161 341.311ZM516.588 324.607H525.653C528.383 324.607 530.423 324.04 531.773 322.905C533.153 321.739 533.844 320.036 533.844 317.797C533.844 315.588 533.153 313.916 531.773 312.781C530.423 311.616 528.383 311.033 525.653 311.033H516.588V324.607ZM557.185 341.403C554.24 341.403 551.679 340.728 549.501 339.379C547.322 338.029 545.635 336.111 544.439 333.627C543.273 331.142 542.69 328.197 542.69 324.791C542.69 322.215 543.012 319.914 543.657 317.889C544.331 315.834 545.298 314.1 546.556 312.689C547.813 311.247 549.332 310.143 551.111 309.376C552.921 308.609 554.946 308.226 557.185 308.226C560.192 308.226 562.784 308.901 564.962 310.25C567.14 311.57 568.812 313.472 569.978 315.956C571.143 318.411 571.726 321.34 571.726 324.745C571.726 327.322 571.389 329.638 570.714 331.694C570.039 333.749 569.073 335.498 567.815 336.94C566.557 338.382 565.023 339.486 563.213 340.253C561.434 341.02 559.425 341.403 557.185 341.403ZM557.185 338.826C559.639 338.826 561.726 338.274 563.443 337.17C565.161 336.065 566.465 334.47 567.355 332.384C568.275 330.298 568.735 327.767 568.735 324.791C568.735 320.343 567.723 316.907 565.698 314.484C563.704 312.03 560.867 310.803 557.185 310.803C554.762 310.803 552.691 311.355 550.973 312.459C549.255 313.564 547.936 315.159 547.016 317.245C546.126 319.331 545.681 321.846 545.681 324.791C545.681 329.209 546.694 332.66 548.718 335.145C550.743 337.599 553.565 338.826 557.185 338.826ZM586.261 341.311C585.801 341.311 585.448 341.189 585.203 340.943C584.958 340.667 584.835 340.299 584.835 339.839V311.125H573.837C573.407 311.125 573.07 311.002 572.825 310.757C572.579 310.511 572.456 310.204 572.456 309.836C572.456 309.437 572.579 309.131 572.825 308.916C573.07 308.701 573.407 308.594 573.837 308.594H598.732C599.161 308.594 599.483 308.701 599.698 308.916C599.943 309.131 600.066 309.437 600.066 309.836C600.066 310.235 599.943 310.557 599.698 310.803C599.483 311.017 599.161 311.125 598.732 311.125H587.688V339.839C587.688 340.299 587.565 340.667 587.32 340.943C587.105 341.189 586.752 341.311 586.261 341.311ZM615.29 341.403C612.345 341.403 609.783 340.728 607.605 339.379C605.427 338.029 603.74 336.111 602.543 333.627C601.377 331.142 600.795 328.197 600.795 324.791C600.795 322.215 601.117 319.914 601.761 317.889C602.436 315.834 603.402 314.1 604.66 312.689C605.918 311.247 607.436 310.143 609.215 309.376C611.025 308.609 613.05 308.226 615.29 308.226C618.296 308.226 620.888 308.901 623.066 310.25C625.244 311.57 626.916 313.472 628.082 315.956C629.248 318.411 629.831 321.34 629.831 324.745C629.831 327.322 629.493 329.638 628.818 331.694C628.143 333.749 627.177 335.498 625.919 336.94C624.662 338.382 623.128 339.486 621.318 340.253C619.538 341.02 617.529 341.403 615.29 341.403ZM615.29 338.826C617.744 338.826 619.83 338.274 621.548 337.17C623.266 336.065 624.57 334.47 625.459 332.384C626.379 330.298 626.84 327.767 626.84 324.791C626.84 320.343 625.827 316.907 623.803 314.484C621.809 312.03 618.971 310.803 615.29 310.803C612.866 310.803 610.795 311.355 609.077 312.459C607.359 313.564 606.04 315.159 605.12 317.245C604.23 319.331 603.786 321.846 603.786 324.791C603.786 329.209 604.798 332.66 606.823 335.145C608.847 337.599 611.67 338.826 615.29 338.826ZM650.528 341.403C647.43 341.403 644.776 340.744 642.567 339.425C640.359 338.075 638.656 336.157 637.46 333.673C636.294 331.188 635.711 328.227 635.711 324.791C635.711 322.215 636.033 319.914 636.677 317.889C637.352 315.834 638.319 314.1 639.576 312.689C640.865 311.247 642.429 310.143 644.27 309.376C646.141 308.609 648.227 308.226 650.528 308.226C652.553 308.226 654.44 308.517 656.188 309.1C657.937 309.683 659.44 310.542 660.698 311.677C661.005 311.953 661.204 312.244 661.296 312.551C661.388 312.858 661.388 313.149 661.296 313.425C661.235 313.671 661.097 313.886 660.882 314.07C660.667 314.223 660.406 314.3 660.1 314.3C659.823 314.269 659.517 314.116 659.179 313.84C658.014 312.827 656.71 312.076 655.268 311.585C653.857 311.094 652.292 310.849 650.574 310.849C648.028 310.849 645.865 311.401 644.086 312.505C642.337 313.579 641.003 315.159 640.083 317.245C639.193 319.331 638.748 321.846 638.748 324.791C638.748 327.767 639.193 330.298 640.083 332.384C641.003 334.47 642.337 336.065 644.086 337.17C645.865 338.244 648.028 338.78 650.574 338.78C652.261 338.78 653.826 338.535 655.268 338.044C656.71 337.523 658.029 336.756 659.225 335.743C659.563 335.467 659.869 335.329 660.146 335.329C660.452 335.329 660.698 335.421 660.882 335.605C661.097 335.759 661.25 335.973 661.342 336.249C661.434 336.495 661.434 336.756 661.342 337.032C661.281 337.308 661.112 337.569 660.836 337.814C659.517 339.01 657.983 339.915 656.234 340.529C654.516 341.112 652.614 341.403 650.528 341.403ZM680.09 341.403C677.145 341.403 674.583 340.728 672.405 339.379C670.227 338.029 668.54 336.111 667.343 333.627C666.177 331.142 665.595 328.197 665.595 324.791C665.595 322.215 665.917 319.914 666.561 317.889C667.236 315.834 668.202 314.1 669.46 312.689C670.718 311.247 672.236 310.143 674.016 309.376C675.825 308.609 677.85 308.226 680.09 308.226C683.096 308.226 685.688 308.901 687.866 310.25C690.044 311.57 691.716 313.472 692.882 315.956C694.048 318.411 694.631 321.34 694.631 324.745C694.631 327.322 694.293 329.638 693.618 331.694C692.943 333.749 691.977 335.498 690.719 336.94C689.462 338.382 687.928 339.486 686.118 340.253C684.338 341.02 682.329 341.403 680.09 341.403ZM680.09 338.826C682.544 338.826 684.63 338.274 686.348 337.17C688.066 336.065 689.37 334.47 690.259 332.384C691.18 330.298 691.64 327.767 691.64 324.791C691.64 320.343 690.627 316.907 688.603 314.484C686.609 312.03 683.771 310.803 680.09 310.803C677.666 310.803 675.595 311.355 673.877 312.459C672.16 313.564 670.84 315.159 669.92 317.245C669.03 319.331 668.586 321.846 668.586 324.791C668.586 329.209 669.598 332.66 671.623 335.145C673.647 337.599 676.47 338.826 680.09 338.826ZM703.226 341.035C702.797 341.035 702.444 340.912 702.168 340.667C701.922 340.391 701.8 340.023 701.8 339.563V309.836C701.8 309.345 701.922 308.977 702.168 308.732C702.413 308.486 702.751 308.364 703.18 308.364C703.64 308.364 703.993 308.486 704.238 308.732C704.484 308.977 704.607 309.345 704.607 309.836V338.504H720.436C720.896 338.504 721.234 338.612 721.448 338.826C721.694 339.041 721.817 339.348 721.817 339.747C721.817 340.176 721.694 340.498 721.448 340.713C721.234 340.928 720.896 341.035 720.436 341.035H703.226Z" fill="white"/>
</svg>
