<svg width="1746" height="291" viewBox="0 0 1746 291" fill="none" xmlns="http://www.w3.org/2000/svg">
<path fill-rule="evenodd" clip-rule="evenodd" d="M75.7936 129.859C66.8089 129.859 58.4312 128.222 50.6606 124.949C44.6743 122.333 39.2645 118.962 34.4311 114.835L22.436 126.706H0L24.0171 103.424C21.0725 99.2963 18.6014 94.8313 16.6036 90.0285C13.4469 82.1472 11.8685 73.7203 11.8685 64.7477C11.8685 55.654 13.4469 47.2271 16.6036 39.467C19.8819 31.5857 24.3742 24.6745 30.0807 18.7332C35.9087 12.7919 42.6472 8.18441 50.2964 4.91065C58.067 1.63688 66.4446 0 75.4293 0C84.4141 0 92.731 1.63688 100.38 4.91065C106.097 7.31915 111.288 10.4495 115.953 14.3018L129.337 1.3279L148.828 1.32791L148.824 1.31977H167.401L205.752 99.4935L244.439 1.31977H262.833L211.839 127.541H199.455L148.915 1.54458L125.765 24.4532C129.27 28.9902 132.161 33.9948 134.437 39.467C137.715 47.3483 139.354 55.8358 139.354 64.9296C139.354 73.9022 137.715 82.3291 134.437 90.2104C131.159 98.0916 126.606 105.003 120.778 110.944C115.071 116.885 108.333 121.554 100.562 124.949C92.9131 128.222 84.6569 129.859 75.7936 129.859ZM56.8528 109.853C52.8912 108.133 49.2962 105.955 46.0677 103.32L113.641 36.4508C115.441 39.2224 116.97 42.2284 118.228 45.4689C120.535 51.2889 121.689 57.7152 121.689 64.7477C121.689 74.2053 119.685 82.6322 115.679 90.0285C111.672 97.3035 106.208 103.063 99.2874 107.307C92.4882 111.429 84.5355 113.49 75.4293 113.49C68.7515 113.49 62.5593 112.278 56.8528 109.853ZM104.036 25.8543L36.2371 91.5778C34.9403 89.326 33.7988 86.9302 32.8126 84.3903C30.6271 78.3278 29.5344 71.7803 29.5344 64.7477C29.5344 55.2902 31.477 46.9239 35.3623 39.6489C39.369 32.3739 44.772 26.6751 51.5712 22.5526C58.4919 18.4301 66.4446 16.3688 75.4293 16.3688C82.2286 16.3688 88.4208 17.5813 94.0059 20.0063C97.6614 21.5142 101.005 23.4635 104.036 25.8543ZM267.907 1.31977V127.541H279.562H285.026H352.047V111.9H285.026V16.9611H351.137V1.31977H285.026H279.562H267.907ZM396.482 72.615V58.2469H415.241C422.647 58.2469 428.354 56.3675 432.361 52.6087C436.367 48.8499 438.371 43.7574 438.371 37.3311C438.371 31.2686 436.367 26.2367 432.361 22.2355C428.475 18.2342 422.829 16.2336 415.423 16.2336H386.648V127.541H369.528V1.31977H381.002H386.648H415.97C423.983 1.31977 430.964 2.89602 436.914 6.04853C442.863 9.07979 447.416 13.2629 450.573 18.5979C453.851 23.933 455.49 30.0561 455.49 36.9674C455.49 44.1212 453.851 50.3656 450.573 55.7006C447.416 61.0356 442.863 65.2188 436.914 68.25C431.638 70.8305 425.551 72.2669 418.652 72.5591L464.05 127.541H442.377L396.482 72.615ZM543.756 18.4689H519.98V128.04H502.861V18.4689H459.291V1.31198H567.512L543.756 18.4689ZM587.326 1.38879V1.31977H604.445V127.541H587.326V23.3463L560.903 43.3421L550.337 29.3802L587.326 1.38879ZM621.602 1.31977V127.541H638.722V38.6928L677.15 101.715H689.172L727.418 38.9916V127.541H744.537V1.31977H732.517L683.07 82.4426L633.622 1.31977H621.602ZM758.858 127.541V1.31977H770.514H775.978H842.089V16.9611H775.978V111.9H842.999V127.541H775.978H770.514H758.858ZM793.169 71.2673V55.5187H842.089V71.2673H793.169ZM351.059 56.7379H296.948V72.5751H351.059V56.7379Z" fill="white"/>
<path d="M562.621 177.443C559.562 177.443 556.946 176.839 554.773 175.632C552.6 174.424 550.923 172.734 549.743 170.561C548.589 168.361 548.012 165.772 548.012 162.794C548.012 160.567 548.334 158.568 548.978 156.798C549.649 155 550.615 153.471 551.876 152.21C553.137 150.922 554.666 149.929 556.463 149.232C558.288 148.534 560.34 148.185 562.621 148.185C563.962 148.185 565.317 148.36 566.685 148.709C568.08 149.03 569.288 149.5 570.307 150.117C570.978 150.493 571.434 150.962 571.676 151.526C571.917 152.089 571.984 152.652 571.877 153.216C571.796 153.779 571.568 154.262 571.193 154.665C570.844 155.067 570.401 155.322 569.865 155.429C569.328 155.537 568.724 155.416 568.054 155.067C567.249 154.584 566.404 154.235 565.518 154.021C564.633 153.806 563.734 153.699 562.822 153.699C561.024 153.699 559.509 154.061 558.274 154.785C557.067 155.483 556.155 156.502 555.538 157.844C554.921 159.185 554.612 160.835 554.612 162.794C554.612 164.726 554.921 166.376 555.538 167.744C556.155 169.112 557.067 170.159 558.274 170.883C559.509 171.58 561.024 171.929 562.822 171.929C563.68 171.929 564.552 171.822 565.438 171.607C566.35 171.393 567.222 171.057 568.054 170.601C568.751 170.252 569.368 170.132 569.905 170.239C570.468 170.32 570.924 170.561 571.273 170.963C571.649 171.339 571.877 171.795 571.957 172.332C572.065 172.868 572.011 173.405 571.796 173.941C571.582 174.478 571.179 174.934 570.589 175.31C569.596 175.98 568.376 176.504 566.927 176.879C565.478 177.255 564.043 177.443 562.621 177.443ZM588.584 177.443C585.794 177.443 583.339 176.839 581.22 175.632C579.127 174.398 577.49 172.68 576.31 170.48C575.156 168.28 574.579 165.718 574.579 162.794C574.579 160.567 574.901 158.568 575.545 156.798C576.216 155 577.168 153.471 578.403 152.21C579.637 150.922 581.112 149.929 582.829 149.232C584.573 148.534 586.492 148.185 588.584 148.185C591.428 148.185 593.897 148.789 595.989 149.996C598.082 151.204 599.705 152.907 600.859 155.107C602.039 157.28 602.629 159.829 602.629 162.754C602.629 164.98 602.294 166.993 601.623 168.79C600.953 170.588 600 172.13 598.766 173.418C597.532 174.706 596.056 175.699 594.339 176.396C592.622 177.094 590.704 177.443 588.584 177.443ZM588.584 172.13C590.167 172.13 591.509 171.768 592.609 171.044C593.736 170.293 594.594 169.22 595.184 167.824C595.801 166.402 596.11 164.726 596.11 162.794C596.11 159.843 595.453 157.562 594.138 155.952C592.823 154.316 590.972 153.498 588.584 153.498C587.028 153.498 585.687 153.86 584.56 154.584C583.433 155.309 582.575 156.368 581.984 157.763C581.394 159.159 581.099 160.835 581.099 162.794C581.099 165.718 581.756 168.012 583.071 169.676C584.386 171.312 586.223 172.13 588.584 172.13ZM610.352 177.362C609.44 177.362 608.742 177.107 608.26 176.598C607.777 176.088 607.535 175.377 607.535 174.465V151.163C607.535 150.251 607.79 149.54 608.3 149.03C608.836 148.521 609.561 148.266 610.473 148.266C611.278 148.266 611.908 148.427 612.364 148.749C612.847 149.044 613.29 149.567 613.692 150.318L622.989 167.301H621.62L630.917 150.318C631.319 149.567 631.749 149.044 632.205 148.749C632.688 148.427 633.318 148.266 634.096 148.266C635.008 148.266 635.706 148.521 636.189 149.03C636.699 149.54 636.953 150.251 636.953 151.163V174.465C636.953 175.377 636.712 176.088 636.229 176.598C635.746 177.107 635.049 177.362 634.136 177.362C633.224 177.362 632.513 177.107 632.003 176.598C631.52 176.088 631.279 175.377 631.279 174.465V158.166H632.164L624.679 171.567C624.357 172.077 624.008 172.466 623.633 172.734C623.284 172.976 622.814 173.096 622.224 173.096C621.634 173.096 621.151 172.962 620.775 172.694C620.4 172.426 620.064 172.05 619.769 171.567L612.203 158.126H613.169V174.465C613.169 175.377 612.928 176.088 612.445 176.598C611.989 177.107 611.291 177.362 610.352 177.362ZM645.846 177.362C644.827 177.362 644.049 177.08 643.512 176.517C642.976 175.954 642.707 175.162 642.707 174.143V151.485C642.707 150.466 642.976 149.674 643.512 149.111C644.049 148.548 644.827 148.266 645.846 148.266C646.839 148.266 647.604 148.548 648.14 149.111C648.677 149.674 648.945 150.466 648.945 151.485V174.143C648.945 175.162 648.677 175.954 648.14 176.517C647.631 177.08 646.866 177.362 645.846 177.362ZM657.552 177.362C656.613 177.362 655.889 177.107 655.379 176.598C654.896 176.061 654.655 175.31 654.655 174.344V151.405C654.655 150.385 654.896 149.607 655.379 149.071C655.889 148.534 656.56 148.266 657.391 148.266C658.116 148.266 658.666 148.413 659.041 148.709C659.444 148.977 659.9 149.433 660.41 150.077L674.535 168.066H673.449V151.244C673.449 150.305 673.69 149.58 674.173 149.071C674.683 148.534 675.407 148.266 676.346 148.266C677.285 148.266 677.996 148.534 678.479 149.071C678.989 149.58 679.244 150.305 679.244 151.244V174.465C679.244 175.35 679.016 176.061 678.56 176.598C678.104 177.107 677.486 177.362 676.708 177.362C675.957 177.362 675.354 177.215 674.897 176.92C674.468 176.624 673.999 176.155 673.489 175.511L659.404 157.522H660.45V174.344C660.45 175.31 660.208 176.061 659.725 176.598C659.243 177.107 658.518 177.362 657.552 177.362ZM699.001 177.443C695.808 177.443 693.098 176.839 690.871 175.632C688.671 174.424 686.995 172.734 685.841 170.561C684.687 168.388 684.11 165.839 684.11 162.915C684.11 160.661 684.446 158.635 685.117 156.838C685.814 155.013 686.807 153.471 688.095 152.21C689.409 150.922 690.992 149.929 692.843 149.232C694.721 148.534 696.841 148.185 699.202 148.185C700.651 148.185 702.1 148.346 703.548 148.668C704.997 148.99 706.392 149.527 707.734 150.278C708.297 150.6 708.673 151.016 708.86 151.526C709.075 152.009 709.129 152.532 709.021 153.095C708.941 153.632 708.726 154.115 708.378 154.544C708.056 154.946 707.626 155.215 707.09 155.349C706.58 155.456 705.99 155.349 705.319 155.027C704.434 154.544 703.495 154.195 702.502 153.98C701.509 153.739 700.423 153.618 699.242 153.618C697.337 153.618 695.741 153.98 694.453 154.705C693.165 155.402 692.2 156.449 691.556 157.844C690.939 159.212 690.63 160.902 690.63 162.915C690.63 165.946 691.354 168.24 692.803 169.796C694.279 171.352 696.452 172.13 699.323 172.13C700.289 172.13 701.281 172.037 702.301 171.849C703.32 171.661 704.326 171.393 705.319 171.044L704.152 173.579V165.852H700.53C699.725 165.852 699.108 165.651 698.679 165.249C698.25 164.846 698.035 164.296 698.035 163.599C698.035 162.874 698.25 162.324 698.679 161.949C699.108 161.546 699.725 161.345 700.53 161.345H706.848C707.653 161.345 708.257 161.56 708.659 161.989C709.089 162.418 709.303 163.035 709.303 163.84V173.177C709.303 173.874 709.169 174.465 708.901 174.948C708.632 175.43 708.176 175.779 707.532 175.994C706.325 176.423 704.97 176.772 703.468 177.04C701.965 177.309 700.476 177.443 699.001 177.443ZM736.206 177.443C735.079 177.443 733.925 177.349 732.745 177.161C731.591 177 730.478 176.759 729.404 176.437C728.358 176.115 727.419 175.712 726.587 175.229C725.997 174.907 725.581 174.491 725.34 173.982C725.098 173.445 725.004 172.909 725.058 172.372C725.139 171.835 725.34 171.366 725.662 170.963C726.01 170.534 726.44 170.266 726.949 170.159C727.486 170.024 728.076 170.118 728.72 170.44C729.82 171.057 731.014 171.513 732.302 171.809C733.617 172.104 734.918 172.251 736.206 172.251C738.164 172.251 739.559 171.956 740.391 171.366C741.223 170.749 741.639 169.984 741.639 169.072C741.639 168.294 741.343 167.677 740.753 167.221C740.163 166.765 739.13 166.376 737.654 166.054L733.107 165.088C730.531 164.551 728.613 163.639 727.352 162.351C726.118 161.037 725.501 159.32 725.501 157.2C725.501 155.859 725.782 154.638 726.346 153.538C726.909 152.438 727.701 151.485 728.72 150.68C729.74 149.876 730.947 149.259 732.342 148.829C733.764 148.4 735.32 148.185 737.01 148.185C738.513 148.185 739.989 148.373 741.437 148.749C742.886 149.098 744.16 149.621 745.26 150.318C745.797 150.64 746.159 151.056 746.347 151.566C746.562 152.049 746.629 152.545 746.548 153.055C746.495 153.538 746.293 153.967 745.945 154.343C745.623 154.718 745.207 154.96 744.697 155.067C744.187 155.174 743.57 155.054 742.846 154.705C741.96 154.249 741.021 153.913 740.029 153.699C739.036 153.484 738.017 153.377 736.97 153.377C735.843 153.377 734.878 153.524 734.073 153.82C733.295 154.115 732.691 154.53 732.262 155.067C731.859 155.604 731.658 156.221 731.658 156.918C731.658 157.696 731.94 158.327 732.503 158.81C733.067 159.293 734.046 159.682 735.441 159.977L739.989 160.943C742.618 161.506 744.576 162.418 745.864 163.679C747.152 164.913 747.796 166.55 747.796 168.589C747.796 169.93 747.528 171.151 746.991 172.251C746.454 173.324 745.676 174.25 744.657 175.028C743.637 175.806 742.417 176.41 740.995 176.839C739.573 177.241 737.976 177.443 736.206 177.443ZM765.005 177.443C762.215 177.443 759.76 176.839 757.64 175.632C755.548 174.398 753.911 172.68 752.731 170.48C751.577 168.28 751 165.718 751 162.794C751 160.567 751.322 158.568 751.966 156.798C752.637 155 753.589 153.471 754.823 152.21C756.058 150.922 757.533 149.929 759.25 149.232C760.994 148.534 762.912 148.185 765.005 148.185C767.849 148.185 770.317 148.789 772.41 149.996C774.503 151.204 776.126 152.907 777.28 155.107C778.46 157.28 779.05 159.829 779.05 162.754C779.05 164.98 778.715 166.993 778.044 168.79C777.373 170.588 776.421 172.13 775.187 173.418C773.953 174.706 772.477 175.699 770.76 176.396C769.043 177.094 767.125 177.443 765.005 177.443ZM765.005 172.13C766.588 172.13 767.93 171.768 769.03 171.044C770.156 170.293 771.015 169.22 771.605 167.824C772.222 166.402 772.531 164.726 772.531 162.794C772.531 159.843 771.873 157.562 770.559 155.952C769.244 154.316 767.393 153.498 765.005 153.498C763.449 153.498 762.108 153.86 760.981 154.584C759.854 155.309 758.995 156.368 758.405 157.763C757.815 159.159 757.52 160.835 757.52 162.794C757.52 165.718 758.177 168.012 759.492 169.676C760.806 171.312 762.644 172.13 765.005 172.13ZM797.035 177.443C794.245 177.443 791.79 176.839 789.671 175.632C787.578 174.398 785.941 172.68 784.761 170.48C783.607 168.28 783.03 165.718 783.03 162.794C783.03 160.567 783.352 158.568 783.996 156.798C784.667 155 785.619 153.471 786.853 152.21C788.088 150.922 789.563 149.929 791.28 149.232C793.024 148.534 794.943 148.185 797.035 148.185C799.879 148.185 802.347 148.789 804.44 149.996C806.533 151.204 808.156 152.907 809.31 155.107C810.49 157.28 811.08 159.829 811.08 162.754C811.08 164.98 810.745 166.993 810.074 168.79C809.403 170.588 808.451 172.13 807.217 173.418C805.983 174.706 804.507 175.699 802.79 176.396C801.073 177.094 799.155 177.443 797.035 177.443ZM797.035 172.13C798.618 172.13 799.96 171.768 801.06 171.044C802.186 170.293 803.045 169.22 803.635 167.824C804.252 166.402 804.561 164.726 804.561 162.794C804.561 159.843 803.903 157.562 802.589 155.952C801.274 154.316 799.423 153.498 797.035 153.498C795.479 153.498 794.138 153.86 793.011 154.584C791.884 155.309 791.025 156.368 790.435 157.763C789.845 159.159 789.55 160.835 789.55 162.794C789.55 165.718 790.207 168.012 791.522 169.676C792.836 171.312 794.674 172.13 797.035 172.13ZM818.803 177.362C817.864 177.362 817.14 177.107 816.63 176.598C816.147 176.061 815.905 175.31 815.905 174.344V151.405C815.905 150.385 816.147 149.607 816.63 149.071C817.14 148.534 817.81 148.266 818.642 148.266C819.366 148.266 819.916 148.413 820.292 148.709C820.694 148.977 821.151 149.433 821.66 150.077L835.786 168.066H834.699V151.244C834.699 150.305 834.941 149.58 835.424 149.071C835.934 148.534 836.658 148.266 837.597 148.266C838.536 148.266 839.247 148.534 839.73 149.071C840.24 149.58 840.495 150.305 840.495 151.244V174.465C840.495 175.35 840.266 176.061 839.81 176.598C839.354 177.107 838.737 177.362 837.959 177.362C837.208 177.362 836.604 177.215 836.148 176.92C835.719 176.624 835.249 176.155 834.74 175.511L820.654 157.522H821.701V174.344C821.701 175.31 821.459 176.061 820.976 176.598C820.493 177.107 819.769 177.362 818.803 177.362Z" fill="white"/>
<path d="M974.783 283.269C973.844 283.269 972.926 283.19 972.028 283.03C971.13 282.87 970.291 282.641 969.513 282.341C968.754 282.042 968.066 281.663 967.447 281.203C967.207 281.024 967.038 280.824 966.938 280.605C966.858 280.365 966.838 280.136 966.878 279.916C966.938 279.676 967.038 279.477 967.177 279.317C967.337 279.157 967.527 279.068 967.746 279.048C967.966 279.028 968.205 279.098 968.465 279.257C969.363 279.896 970.321 280.365 971.339 280.665C972.357 280.944 973.505 281.084 974.783 281.084C976.579 281.084 977.907 280.754 978.765 280.096C979.643 279.417 980.082 278.529 980.082 277.431C980.082 276.533 979.763 275.834 979.124 275.335C978.505 274.816 977.457 274.407 975.98 274.107L972.866 273.479C970.99 273.079 969.583 272.431 968.645 271.532C967.726 270.614 967.267 269.396 967.267 267.879C967.267 266.941 967.457 266.093 967.836 265.334C968.215 264.556 968.744 263.897 969.423 263.358C970.102 262.799 970.91 262.37 971.848 262.071C972.786 261.771 973.824 261.622 974.962 261.622C976.22 261.622 977.388 261.801 978.465 262.161C979.563 262.5 980.551 263.019 981.43 263.718C981.649 263.897 981.799 264.107 981.879 264.346C981.959 264.566 981.969 264.785 981.909 265.005C981.849 265.205 981.739 265.374 981.579 265.514C981.44 265.654 981.25 265.734 981.01 265.754C980.791 265.774 980.541 265.694 980.262 265.514C979.463 264.915 978.635 264.486 977.777 264.227C976.918 263.947 975.97 263.807 974.932 263.807C973.874 263.807 972.956 263.967 972.178 264.286C971.419 264.606 970.82 265.075 970.381 265.694C969.962 266.293 969.752 266.991 969.752 267.79C969.752 268.748 970.042 269.506 970.621 270.065C971.22 270.624 972.188 271.033 973.525 271.293L976.639 271.951C978.655 272.371 980.142 273.009 981.1 273.868C982.078 274.706 982.567 275.854 982.567 277.311C982.567 278.189 982.388 278.998 982.029 279.736C981.669 280.475 981.15 281.114 980.472 281.653C979.793 282.172 978.974 282.571 978.016 282.85C977.058 283.13 975.98 283.269 974.783 283.269ZM987.605 283.21C987.205 283.21 986.896 283.1 986.676 282.88C986.477 282.641 986.377 282.321 986.377 281.922V263.149C986.377 262.729 986.487 262.42 986.706 262.22C986.926 262.001 987.235 261.891 987.635 261.891H994.731C996.986 261.891 998.723 262.45 999.941 263.568C1001.16 264.666 1001.77 266.223 1001.77 268.239C1001.77 270.235 1001.16 271.792 999.941 272.91C998.723 274.027 996.986 274.586 994.731 274.586H988.832V281.922C988.832 282.321 988.732 282.641 988.533 282.88C988.333 283.1 988.024 283.21 987.605 283.21ZM988.832 272.52H994.431C996.048 272.52 997.266 272.161 998.084 271.442C998.923 270.704 999.342 269.636 999.342 268.239C999.342 266.821 998.923 265.754 998.084 265.035C997.266 264.296 996.048 263.927 994.431 263.927H988.832V272.52ZM1013.95 283.269C1012 283.269 1010.29 282.83 1008.83 281.952C1007.4 281.054 1006.28 279.796 1005.48 278.179C1004.7 276.563 1004.31 274.646 1004.31 272.431C1004.31 270.754 1004.53 269.257 1004.97 267.939C1005.43 266.602 1006.08 265.474 1006.92 264.556C1007.76 263.618 1008.76 262.899 1009.94 262.4C1011.14 261.881 1012.48 261.622 1013.95 261.622C1015.95 261.622 1017.67 262.061 1019.1 262.939C1020.56 263.817 1021.68 265.065 1022.46 266.682C1023.26 268.279 1023.65 270.185 1023.65 272.401C1023.65 274.077 1023.42 275.584 1022.97 276.922C1022.51 278.259 1021.86 279.397 1021.02 280.335C1020.18 281.273 1019.16 282.002 1017.97 282.521C1016.79 283.02 1015.45 283.269 1013.95 283.269ZM1013.95 281.084C1015.47 281.084 1016.75 280.744 1017.79 280.066C1018.84 279.387 1019.65 278.399 1020.21 277.101C1020.77 275.804 1021.05 274.247 1021.05 272.431C1021.05 269.696 1020.43 267.58 1019.19 266.083C1017.98 264.566 1016.23 263.807 1013.95 263.807C1012.48 263.807 1011.21 264.147 1010.15 264.825C1009.11 265.504 1008.31 266.492 1007.76 267.79C1007.2 269.067 1006.92 270.614 1006.92 272.431C1006.92 275.145 1007.54 277.271 1008.77 278.808C1010.01 280.325 1011.74 281.084 1013.95 281.084ZM1029.27 283.21C1028.87 283.21 1028.56 283.1 1028.34 282.88C1028.14 282.641 1028.04 282.321 1028.04 281.922V263.149C1028.04 262.729 1028.15 262.42 1028.37 262.22C1028.59 262.001 1028.9 261.891 1029.3 261.891H1036.4C1038.65 261.891 1040.39 262.42 1041.61 263.478C1042.83 264.536 1043.43 266.043 1043.43 267.999C1043.43 269.237 1043.15 270.315 1042.6 271.233C1042.06 272.131 1041.26 272.82 1040.2 273.299C1039.14 273.758 1037.87 273.988 1036.4 273.988L1036.7 273.598H1037.3C1038.07 273.598 1038.75 273.798 1039.33 274.197C1039.91 274.596 1040.44 275.235 1040.92 276.113L1043.79 281.473C1043.95 281.752 1044.02 282.032 1044 282.311C1044 282.571 1043.91 282.79 1043.73 282.97C1043.55 283.13 1043.29 283.21 1042.96 283.21C1042.62 283.21 1042.34 283.13 1042.12 282.97C1041.9 282.81 1041.71 282.581 1041.55 282.281L1038.28 276.233C1037.83 275.375 1037.3 274.806 1036.7 274.526C1036.1 274.227 1035.31 274.077 1034.33 274.077H1030.5V281.922C1030.5 282.321 1030.4 282.641 1030.2 282.88C1030 283.1 1029.69 283.21 1029.27 283.21ZM1030.5 272.131H1036.04C1037.68 272.131 1038.91 271.792 1039.75 271.113C1040.59 270.414 1041.01 269.377 1041.01 267.999C1041.01 266.662 1040.59 265.654 1039.75 264.975C1038.91 264.276 1037.68 263.927 1036.04 263.927H1030.5V272.131ZM1053.9 283.21C1053.52 283.21 1053.22 283.1 1053 282.88C1052.78 282.641 1052.67 282.321 1052.67 281.922V264.017H1045.93C1045.57 264.017 1045.29 263.917 1045.09 263.718C1044.89 263.518 1044.79 263.258 1044.79 262.939C1044.79 262.6 1044.89 262.34 1045.09 262.161C1045.29 261.981 1045.57 261.891 1045.93 261.891H1061.89C1062.25 261.891 1062.53 261.981 1062.73 262.161C1062.93 262.34 1063.03 262.6 1063.03 262.939C1063.03 263.278 1062.93 263.548 1062.73 263.747C1062.53 263.927 1062.25 264.017 1061.89 264.017H1055.15V281.922C1055.15 282.321 1055.04 282.641 1054.82 282.88C1054.62 283.1 1054.32 283.21 1053.9 283.21ZM1071.6 283.269C1070.66 283.269 1069.74 283.19 1068.84 283.03C1067.94 282.87 1067.1 282.641 1066.33 282.341C1065.57 282.042 1064.88 281.663 1064.26 281.203C1064.02 281.024 1063.85 280.824 1063.75 280.605C1063.67 280.365 1063.65 280.136 1063.69 279.916C1063.75 279.676 1063.85 279.477 1063.99 279.317C1064.15 279.157 1064.34 279.068 1064.56 279.048C1064.78 279.028 1065.02 279.098 1065.28 279.257C1066.18 279.896 1067.13 280.365 1068.15 280.665C1069.17 280.944 1070.32 281.084 1071.6 281.084C1073.39 281.084 1074.72 280.754 1075.58 280.096C1076.46 279.417 1076.9 278.529 1076.9 277.431C1076.9 276.533 1076.58 275.834 1075.94 275.335C1075.32 274.816 1074.27 274.407 1072.79 274.107L1069.68 273.479C1067.8 273.079 1066.4 272.431 1065.46 271.532C1064.54 270.614 1064.08 269.396 1064.08 267.879C1064.08 266.941 1064.27 266.093 1064.65 265.334C1065.03 264.556 1065.56 263.897 1066.24 263.358C1066.92 262.799 1067.72 262.37 1068.66 262.071C1069.6 261.771 1070.64 261.622 1071.78 261.622C1073.03 261.622 1074.2 261.801 1075.28 262.161C1076.38 262.5 1077.36 263.019 1078.24 263.718C1078.46 263.897 1078.61 264.107 1078.69 264.346C1078.77 264.566 1078.78 264.785 1078.72 265.005C1078.66 265.205 1078.55 265.374 1078.39 265.514C1078.25 265.654 1078.06 265.734 1077.82 265.754C1077.6 265.774 1077.35 265.694 1077.08 265.514C1076.28 264.915 1075.45 264.486 1074.59 264.227C1073.73 263.947 1072.78 263.807 1071.75 263.807C1070.69 263.807 1069.77 263.967 1068.99 264.286C1068.23 264.606 1067.63 265.075 1067.19 265.694C1066.78 266.293 1066.57 266.991 1066.57 267.79C1066.57 268.748 1066.86 269.506 1067.43 270.065C1068.03 270.624 1069 271.033 1070.34 271.293L1073.45 271.951C1075.47 272.371 1076.96 273.009 1077.91 273.868C1078.89 274.706 1079.38 275.854 1079.38 277.311C1079.38 278.189 1079.2 278.998 1078.84 279.736C1078.48 280.475 1077.96 281.114 1077.29 281.653C1076.61 282.172 1075.79 282.571 1074.83 282.85C1073.87 283.13 1072.79 283.269 1071.6 283.269ZM1092.11 283.21C1091.75 283.21 1091.47 283.11 1091.27 282.91C1091.07 282.691 1090.97 282.391 1090.97 282.012V262.879C1090.97 262.48 1091.07 262.181 1091.27 261.981C1091.47 261.781 1091.75 261.681 1092.11 261.681C1092.43 261.681 1092.68 261.751 1092.86 261.891C1093.06 262.011 1093.24 262.22 1093.4 262.52L1101.6 277.97H1100.7L1108.88 262.52C1109.03 262.22 1109.2 262.011 1109.38 261.891C1109.56 261.751 1109.82 261.681 1110.16 261.681C1110.5 261.681 1110.77 261.781 1110.97 261.981C1111.17 262.181 1111.27 262.48 1111.27 262.879V282.012C1111.27 282.391 1111.17 282.691 1110.97 282.91C1110.79 283.11 1110.51 283.21 1110.13 283.21C1109.77 283.21 1109.49 283.11 1109.29 282.91C1109.09 282.691 1108.99 282.391 1108.99 282.012V265.185H1109.71L1102.23 279.227C1102.09 279.487 1101.94 279.676 1101.78 279.796C1101.64 279.896 1101.43 279.946 1101.15 279.946C1100.87 279.946 1100.65 279.886 1100.49 279.766C1100.33 279.647 1100.19 279.467 1100.07 279.227L1092.5 265.155H1093.22V282.012C1093.22 282.391 1093.12 282.691 1092.92 282.91C1092.74 283.11 1092.47 283.21 1092.11 283.21ZM1116.08 283.21C1115.76 283.21 1115.5 283.14 1115.3 283C1115.12 282.84 1115.01 282.641 1114.97 282.401C1114.95 282.142 1115.01 281.852 1115.15 281.533L1123.38 262.789C1123.56 262.39 1123.77 262.111 1124.01 261.951C1124.27 261.771 1124.55 261.681 1124.85 261.681C1125.15 261.681 1125.42 261.771 1125.66 261.951C1125.92 262.111 1126.13 262.39 1126.29 262.789L1134.55 281.533C1134.71 281.852 1134.77 282.142 1134.73 282.401C1134.71 282.661 1134.61 282.86 1134.43 283C1134.25 283.14 1134 283.21 1133.68 283.21C1133.32 283.21 1133.03 283.12 1132.81 282.94C1132.59 282.741 1132.41 282.461 1132.27 282.102L1130.06 276.982L1131.26 277.61H1118.38L1119.61 276.982L1117.42 282.102C1117.24 282.481 1117.05 282.76 1116.85 282.94C1116.65 283.12 1116.39 283.21 1116.08 283.21ZM1124.82 264.765L1120 276.113L1119.28 275.545H1130.36L1129.7 276.113L1124.88 264.765H1124.82ZM1139.56 283.21C1139.17 283.21 1138.86 283.1 1138.64 282.88C1138.44 282.641 1138.34 282.321 1138.34 281.922V263.149C1138.34 262.729 1138.45 262.42 1138.67 262.22C1138.89 262.001 1139.2 261.891 1139.59 261.891H1146.69C1148.95 261.891 1150.68 262.42 1151.9 263.478C1153.12 264.536 1153.73 266.043 1153.73 267.999C1153.73 269.237 1153.45 270.315 1152.89 271.233C1152.35 272.131 1151.55 272.82 1150.49 273.299C1149.44 273.758 1148.17 273.988 1146.69 273.988L1146.99 273.598H1147.59C1148.37 273.598 1149.05 273.798 1149.63 274.197C1150.2 274.596 1150.73 275.235 1151.21 276.113L1154.09 281.473C1154.25 281.752 1154.32 282.032 1154.3 282.311C1154.3 282.571 1154.21 282.79 1154.03 282.97C1153.85 283.13 1153.59 283.21 1153.25 283.21C1152.91 283.21 1152.63 283.13 1152.41 282.97C1152.19 282.81 1152 282.581 1151.84 282.281L1148.58 276.233C1148.12 275.375 1147.59 274.806 1146.99 274.526C1146.39 274.227 1145.6 274.077 1144.62 274.077H1140.79V281.922C1140.79 282.321 1140.69 282.641 1140.49 282.88C1140.29 283.1 1139.98 283.21 1139.56 283.21ZM1140.79 272.131H1146.33C1147.97 272.131 1149.21 271.792 1150.04 271.113C1150.88 270.414 1151.3 269.377 1151.3 267.999C1151.3 266.662 1150.88 265.654 1150.04 264.975C1149.21 264.276 1147.97 263.927 1146.33 263.927H1140.79V272.131ZM1159.59 283.21C1159.2 283.21 1158.89 283.1 1158.67 282.88C1158.47 282.641 1158.37 282.321 1158.37 281.922V262.939C1158.37 262.52 1158.47 262.21 1158.67 262.011C1158.89 261.791 1159.2 261.681 1159.59 261.681C1159.99 261.681 1160.29 261.791 1160.49 262.011C1160.71 262.21 1160.82 262.52 1160.82 262.939V271.472H1160.88L1170.64 262.37C1170.88 262.131 1171.12 261.961 1171.36 261.861C1171.6 261.741 1171.86 261.681 1172.14 261.681C1172.52 261.681 1172.79 261.771 1172.95 261.951C1173.13 262.131 1173.2 262.35 1173.16 262.61C1173.12 262.869 1172.98 263.119 1172.74 263.358L1162.53 272.82L1162.56 271.502L1173.22 281.353C1173.52 281.633 1173.68 281.922 1173.7 282.222C1173.72 282.501 1173.63 282.741 1173.43 282.94C1173.25 283.12 1172.97 283.21 1172.59 283.21C1172.29 283.21 1172.03 283.14 1171.81 283C1171.61 282.88 1171.38 282.691 1171.12 282.431L1160.88 273.059H1160.82V281.922C1160.82 282.321 1160.72 282.641 1160.52 282.88C1160.32 283.1 1160.01 283.21 1159.59 283.21ZM1178.43 283C1177.99 283 1177.65 282.89 1177.41 282.671C1177.19 282.431 1177.08 282.092 1177.08 281.653V263.238C1177.08 262.799 1177.19 262.47 1177.41 262.25C1177.65 262.011 1177.99 261.891 1178.43 261.891H1189.57C1189.91 261.891 1190.16 261.981 1190.34 262.161C1190.52 262.34 1190.61 262.59 1190.61 262.909C1190.61 263.248 1190.52 263.508 1190.34 263.688C1190.16 263.867 1189.91 263.957 1189.57 263.957H1179.48V271.263H1188.94C1189.28 271.263 1189.54 271.353 1189.72 271.532C1189.9 271.692 1189.99 271.942 1189.99 272.281C1189.99 272.62 1189.9 272.88 1189.72 273.059C1189.54 273.239 1189.28 273.329 1188.94 273.329H1179.48V280.934H1189.57C1189.91 280.934 1190.16 281.024 1190.34 281.203C1190.52 281.383 1190.61 281.633 1190.61 281.952C1190.61 282.291 1190.52 282.551 1190.34 282.731C1190.16 282.91 1189.91 283 1189.57 283H1178.43ZM1200.56 283.21C1200.18 283.21 1199.89 283.1 1199.67 282.88C1199.45 282.641 1199.34 282.321 1199.34 281.922V264.017H1192.6C1192.24 264.017 1191.96 263.917 1191.76 263.718C1191.56 263.518 1191.46 263.258 1191.46 262.939C1191.46 262.6 1191.56 262.34 1191.76 262.161C1191.96 261.981 1192.24 261.891 1192.6 261.891H1208.56C1208.92 261.891 1209.2 261.981 1209.4 262.161C1209.6 262.34 1209.7 262.6 1209.7 262.939C1209.7 263.278 1209.6 263.548 1209.4 263.747C1209.2 263.927 1208.92 264.017 1208.56 264.017H1201.82V281.922C1201.82 282.321 1201.71 282.641 1201.49 282.88C1201.29 283.1 1200.98 283.21 1200.56 283.21ZM1218.26 283.269C1217.33 283.269 1216.41 283.19 1215.51 283.03C1214.61 282.87 1213.77 282.641 1212.99 282.341C1212.24 282.042 1211.55 281.663 1210.93 281.203C1210.69 281.024 1210.52 280.824 1210.42 280.605C1210.34 280.365 1210.32 280.136 1210.36 279.916C1210.42 279.676 1210.52 279.477 1210.66 279.317C1210.82 279.157 1211.01 279.068 1211.23 279.048C1211.45 279.028 1211.69 279.098 1211.95 279.257C1212.84 279.896 1213.8 280.365 1214.82 280.665C1215.84 280.944 1216.99 281.084 1218.26 281.084C1220.06 281.084 1221.39 280.754 1222.25 280.096C1223.12 279.417 1223.56 278.529 1223.56 277.431C1223.56 276.533 1223.24 275.834 1222.61 275.335C1221.99 274.816 1220.94 274.407 1219.46 274.107L1216.35 273.479C1214.47 273.079 1213.06 272.431 1212.13 271.532C1211.21 270.614 1210.75 269.396 1210.75 267.879C1210.75 266.941 1210.94 266.093 1211.32 265.334C1211.7 264.556 1212.23 263.897 1212.9 263.358C1213.58 262.799 1214.39 262.37 1215.33 262.071C1216.27 261.771 1217.31 261.622 1218.44 261.622C1219.7 261.622 1220.87 261.801 1221.95 262.161C1223.04 262.5 1224.03 263.019 1224.91 263.718C1225.13 263.897 1225.28 264.107 1225.36 264.346C1225.44 264.566 1225.45 264.785 1225.39 265.005C1225.33 265.205 1225.22 265.374 1225.06 265.514C1224.92 265.654 1224.73 265.734 1224.49 265.754C1224.27 265.774 1224.02 265.694 1223.74 265.514C1222.94 264.915 1222.12 264.486 1221.26 264.227C1220.4 263.947 1219.45 263.807 1218.41 263.807C1217.36 263.807 1216.44 263.967 1215.66 264.286C1214.9 264.606 1214.3 265.075 1213.86 265.694C1213.44 266.293 1213.23 266.991 1213.23 267.79C1213.23 268.748 1213.52 269.506 1214.1 270.065C1214.7 270.624 1215.67 271.033 1217.01 271.293L1220.12 271.951C1222.14 272.371 1223.62 273.009 1224.58 273.868C1225.56 274.706 1226.05 275.854 1226.05 277.311C1226.05 278.189 1225.87 278.998 1225.51 279.736C1225.15 280.475 1224.63 281.114 1223.95 281.653C1223.27 282.172 1222.46 282.571 1221.5 282.85C1220.54 283.13 1219.46 283.269 1218.26 283.269ZM1238.11 283.269C1237.55 283.269 1237.09 283.14 1236.73 282.88C1236.39 282.621 1236.17 282.271 1236.07 281.832C1235.99 281.393 1236.08 280.904 1236.34 280.365L1244.01 263.568C1244.32 262.889 1244.7 262.4 1245.14 262.101C1245.58 261.781 1246.09 261.622 1246.67 261.622C1247.25 261.622 1247.76 261.781 1248.2 262.101C1248.64 262.4 1249.01 262.889 1249.31 263.568L1257.03 280.365C1257.29 280.904 1257.38 281.403 1257.3 281.862C1257.24 282.301 1257.04 282.651 1256.7 282.91C1256.36 283.15 1255.92 283.269 1255.38 283.269C1254.7 283.269 1254.18 283.11 1253.8 282.79C1253.44 282.471 1253.12 281.972 1252.84 281.293L1251.04 277.131L1252.9 278.419H1240.41L1242.27 277.131L1240.5 281.293C1240.2 281.992 1239.88 282.501 1239.54 282.82C1239.22 283.12 1238.75 283.269 1238.11 283.269ZM1246.61 266.831L1242.78 275.964L1241.97 274.796H1251.34L1250.53 275.964L1246.67 266.831H1246.61ZM1262.21 283.269C1261.53 283.269 1261.01 283.08 1260.65 282.701C1260.29 282.321 1260.11 281.792 1260.11 281.114V263.777C1260.11 263.099 1260.3 262.57 1260.68 262.19C1261.08 261.811 1261.62 261.622 1262.3 261.622C1262.9 261.622 1263.37 261.741 1263.7 261.981C1264.06 262.2 1264.39 262.59 1264.69 263.149L1271.61 275.784H1270.59L1277.51 263.149C1277.81 262.59 1278.13 262.2 1278.47 261.981C1278.83 261.741 1279.29 261.622 1279.87 261.622C1280.55 261.622 1281.07 261.811 1281.43 262.19C1281.81 262.57 1282 263.099 1282 263.777V281.114C1282 281.792 1281.82 282.321 1281.46 282.701C1281.1 283.08 1280.58 283.269 1279.9 283.269C1279.22 283.269 1278.7 283.08 1278.32 282.701C1277.96 282.321 1277.78 281.792 1277.78 281.114V268.987H1278.44L1272.87 278.958C1272.63 279.337 1272.37 279.627 1272.09 279.826C1271.83 280.006 1271.48 280.096 1271.04 280.096C1270.6 280.096 1270.24 279.996 1269.96 279.796C1269.68 279.597 1269.43 279.317 1269.21 278.958L1263.59 268.957H1264.3V281.114C1264.3 281.792 1264.12 282.321 1263.76 282.701C1263.43 283.08 1262.91 283.269 1262.21 283.269ZM1288.44 283.269C1287.76 283.269 1287.24 283.08 1286.88 282.701C1286.52 282.321 1286.34 281.792 1286.34 281.114V263.777C1286.34 263.099 1286.53 262.57 1286.91 262.19C1287.31 261.811 1287.85 261.622 1288.53 261.622C1289.12 261.622 1289.59 261.741 1289.93 261.981C1290.29 262.2 1290.62 262.59 1290.92 263.149L1297.84 275.784H1296.82L1303.74 263.149C1304.04 262.59 1304.36 262.2 1304.69 261.981C1305.05 261.741 1305.52 261.622 1306.1 261.622C1306.78 261.622 1307.3 261.811 1307.66 262.19C1308.04 262.57 1308.23 263.099 1308.23 263.777V281.114C1308.23 281.792 1308.05 282.321 1307.69 282.701C1307.33 283.08 1306.81 283.269 1306.13 283.269C1305.45 283.269 1304.92 283.08 1304.54 282.701C1304.19 282.321 1304.01 281.792 1304.01 281.114V268.987H1304.66L1299.1 278.958C1298.86 279.337 1298.6 279.627 1298.32 279.826C1298.06 280.006 1297.71 280.096 1297.27 280.096C1296.83 280.096 1296.47 279.996 1296.19 279.796C1295.91 279.597 1295.66 279.317 1295.44 278.958L1289.81 268.957H1290.53V281.114C1290.53 281.792 1290.35 282.321 1289.99 282.701C1289.65 283.08 1289.13 283.269 1288.44 283.269ZM1322.46 283C1322.02 283 1321.69 282.89 1321.45 282.671C1321.23 282.431 1321.12 282.092 1321.12 281.653V263.238C1321.12 262.799 1321.23 262.47 1321.45 262.25C1321.69 262.011 1322.02 261.891 1322.46 261.891H1329.56C1331.02 261.891 1332.24 262.111 1333.24 262.55C1334.26 262.969 1335.04 263.588 1335.58 264.406C1336.12 265.225 1336.39 266.223 1336.39 267.4C1336.39 268.718 1336 269.816 1335.22 270.694C1334.46 271.572 1333.42 272.151 1332.1 272.431V272.011C1333.6 272.191 1334.77 272.73 1335.61 273.628C1336.47 274.526 1336.9 275.714 1336.9 277.191C1336.9 279.068 1336.29 280.505 1335.07 281.503C1333.85 282.501 1332.13 283 1329.92 283H1322.46ZM1323.51 281.024H1329.68C1331.28 281.024 1332.47 280.704 1333.27 280.066C1334.07 279.427 1334.47 278.459 1334.47 277.161C1334.47 275.844 1334.07 274.876 1333.27 274.257C1332.47 273.618 1331.28 273.299 1329.68 273.299H1323.51V281.024ZM1323.51 271.323H1329.2C1330.76 271.323 1331.94 271.003 1332.73 270.365C1333.55 269.726 1333.96 268.808 1333.96 267.61C1333.96 266.372 1333.55 265.444 1332.73 264.825C1331.94 264.187 1330.76 263.867 1329.2 263.867H1323.51V271.323ZM1349.67 283.269C1348.28 283.269 1347.05 283.09 1345.99 282.731C1344.95 282.351 1344.08 281.802 1343.36 281.084C1342.64 280.345 1342.1 279.437 1341.74 278.359C1341.38 277.281 1341.2 276.044 1341.2 274.646V262.939C1341.2 262.52 1341.3 262.21 1341.5 262.011C1341.72 261.791 1342.03 261.681 1342.43 261.681C1342.83 261.681 1343.13 261.791 1343.33 262.011C1343.55 262.21 1343.66 262.52 1343.66 262.939V274.526C1343.66 276.722 1344.16 278.369 1345.18 279.467C1346.2 280.545 1347.7 281.084 1349.67 281.084C1351.65 281.084 1353.14 280.545 1354.14 279.467C1355.13 278.369 1355.63 276.722 1355.63 274.526V262.939C1355.63 262.52 1355.74 262.21 1355.96 262.011C1356.18 261.791 1356.49 261.681 1356.89 261.681C1357.27 261.681 1357.56 261.791 1357.76 262.011C1357.98 262.21 1358.09 262.52 1358.09 262.939V274.646C1358.09 276.503 1357.77 278.08 1357.13 279.377C1356.51 280.675 1355.57 281.653 1354.32 282.311C1353.06 282.95 1351.51 283.269 1349.67 283.269ZM1364.36 283.21C1363.96 283.21 1363.65 283.1 1363.43 282.88C1363.23 282.641 1363.13 282.321 1363.13 281.922V262.969C1363.13 262.55 1363.23 262.23 1363.43 262.011C1363.65 261.791 1363.96 261.681 1364.36 261.681C1364.76 261.681 1365.06 261.791 1365.26 262.011C1365.48 262.23 1365.59 262.55 1365.59 262.969V281.922C1365.59 282.321 1365.49 282.641 1365.29 282.88C1365.09 283.1 1364.78 283.21 1364.36 283.21ZM1372.08 283C1371.68 283 1371.37 282.89 1371.15 282.671C1370.93 282.431 1370.82 282.112 1370.82 281.713V263.029C1370.82 262.61 1370.92 262.29 1371.12 262.071C1371.34 261.851 1371.65 261.741 1372.05 261.741C1372.45 261.741 1372.75 261.851 1372.95 262.071C1373.17 262.29 1373.28 262.61 1373.28 263.029V280.844H1383.1C1383.46 280.844 1383.74 280.944 1383.94 281.144C1384.14 281.323 1384.24 281.583 1384.24 281.922C1384.24 282.261 1384.14 282.531 1383.94 282.731C1383.74 282.91 1383.46 283 1383.1 283H1372.08ZM1389.69 283.21C1389.31 283.21 1389.01 283.1 1388.79 282.88C1388.57 282.641 1388.46 282.321 1388.46 281.922V264.017H1381.72C1381.36 264.017 1381.08 263.917 1380.89 263.718C1380.69 263.518 1380.59 263.258 1380.59 262.939C1380.59 262.6 1380.69 262.34 1380.89 262.161C1381.08 261.981 1381.36 261.891 1381.72 261.891H1397.68C1398.04 261.891 1398.32 261.981 1398.52 262.161C1398.72 262.34 1398.82 262.6 1398.82 262.939C1398.82 263.278 1398.72 263.548 1398.52 263.747C1398.32 263.927 1398.04 264.017 1397.68 264.017H1390.95V281.922C1390.95 282.321 1390.84 282.641 1390.62 282.88C1390.42 283.1 1390.11 283.21 1389.69 283.21ZM1417.87 283.269C1415.92 283.269 1414.21 282.83 1412.75 281.952C1411.32 281.054 1410.2 279.796 1409.4 278.179C1408.62 276.563 1408.23 274.646 1408.23 272.431C1408.23 270.754 1408.45 269.257 1408.89 267.939C1409.35 266.602 1410 265.474 1410.84 264.556C1411.68 263.618 1412.68 262.899 1413.86 262.4C1415.06 261.881 1416.4 261.622 1417.87 261.622C1419.87 261.622 1421.59 262.061 1423.02 262.939C1424.48 263.817 1425.6 265.065 1426.38 266.682C1427.18 268.279 1427.58 270.185 1427.58 272.401C1427.58 274.077 1427.35 275.584 1426.89 276.922C1426.43 278.259 1425.78 279.397 1424.94 280.335C1424.1 281.273 1423.08 282.002 1421.89 282.521C1420.71 283.02 1419.37 283.269 1417.87 283.269ZM1417.87 281.084C1419.39 281.084 1420.67 280.744 1421.71 280.066C1422.76 279.387 1423.57 278.399 1424.13 277.101C1424.69 275.804 1424.97 274.247 1424.97 272.431C1424.97 269.696 1424.35 267.58 1423.11 266.083C1421.9 264.566 1420.15 263.807 1417.87 263.807C1416.4 263.807 1415.13 264.147 1414.07 264.825C1413.03 265.504 1412.24 266.492 1411.68 267.79C1411.12 269.067 1410.84 270.614 1410.84 272.431C1410.84 275.145 1411.46 277.271 1412.69 278.808C1413.93 280.325 1415.66 281.084 1417.87 281.084ZM1433.13 283.21C1432.75 283.21 1432.46 283.11 1432.26 282.91C1432.06 282.691 1431.97 282.381 1431.97 281.982V262.939C1431.97 262.54 1432.06 262.23 1432.26 262.011C1432.46 261.791 1432.72 261.681 1433.04 261.681C1433.36 261.681 1433.59 261.741 1433.73 261.861C1433.89 261.961 1434.07 262.151 1434.27 262.43L1447.33 279.826H1446.61V262.879C1446.61 262.5 1446.71 262.21 1446.91 262.011C1447.11 261.791 1447.4 261.681 1447.77 261.681C1448.13 261.681 1448.4 261.791 1448.58 262.011C1448.78 262.21 1448.88 262.5 1448.88 262.879V282.012C1448.88 282.391 1448.79 282.691 1448.61 282.91C1448.45 283.11 1448.21 283.21 1447.89 283.21C1447.59 283.21 1447.36 283.15 1447.18 283.03C1447 282.91 1446.81 282.721 1446.61 282.461L1433.58 265.065H1434.27V281.982C1434.27 282.381 1434.17 282.691 1433.97 282.91C1433.77 283.11 1433.49 283.21 1433.13 283.21ZM1469.14 283.269C1468.39 283.269 1467.81 283.06 1467.41 282.641C1467.01 282.222 1466.81 281.633 1466.81 280.874V265.724H1461.51C1460.89 265.724 1460.41 265.554 1460.07 265.215C1459.73 264.875 1459.56 264.406 1459.56 263.807C1459.56 263.189 1459.73 262.719 1460.07 262.4C1460.41 262.061 1460.89 261.891 1461.51 261.891H1476.75C1477.37 261.891 1477.85 262.061 1478.19 262.4C1478.53 262.719 1478.7 263.189 1478.7 263.807C1478.7 264.406 1478.53 264.875 1478.19 265.215C1477.85 265.554 1477.37 265.724 1476.75 265.724H1471.45V280.874C1471.45 281.633 1471.25 282.222 1470.85 282.641C1470.47 283.06 1469.9 283.269 1469.14 283.269ZM1483.03 283.269C1482.27 283.269 1481.69 283.06 1481.3 282.641C1480.9 282.222 1480.7 281.633 1480.7 280.874V264.017C1480.7 263.258 1480.9 262.67 1481.3 262.25C1481.69 261.831 1482.27 261.622 1483.03 261.622C1483.77 261.622 1484.34 261.831 1484.74 262.25C1485.14 262.67 1485.34 263.258 1485.34 264.017V270.365H1495.16V264.017C1495.16 263.258 1495.36 262.67 1495.76 262.25C1496.16 261.831 1496.73 261.622 1497.46 261.622C1498.22 261.622 1498.8 261.831 1499.2 262.25C1499.6 262.67 1499.8 263.258 1499.8 264.017V280.874C1499.8 281.633 1499.6 282.222 1499.2 282.641C1498.8 283.06 1498.22 283.269 1497.46 283.269C1496.73 283.269 1496.16 283.06 1495.76 282.641C1495.36 282.222 1495.16 281.633 1495.16 280.874V274.227H1485.34V280.874C1485.34 281.633 1485.14 282.222 1484.74 282.641C1484.36 283.06 1483.79 283.269 1483.03 283.269ZM1504.66 283.269C1504.1 283.269 1503.64 283.14 1503.28 282.88C1502.94 282.621 1502.72 282.271 1502.62 281.832C1502.54 281.393 1502.63 280.904 1502.89 280.365L1510.56 263.568C1510.88 262.889 1511.26 262.4 1511.69 262.101C1512.13 261.781 1512.64 261.622 1513.22 261.622C1513.8 261.622 1514.31 261.781 1514.75 262.101C1515.19 262.4 1515.56 262.889 1515.86 263.568L1523.58 280.365C1523.84 280.904 1523.93 281.403 1523.85 281.862C1523.79 282.301 1523.59 282.651 1523.25 282.91C1522.91 283.15 1522.47 283.269 1521.93 283.269C1521.26 283.269 1520.73 283.11 1520.35 282.79C1519.99 282.471 1519.67 281.972 1519.39 281.293L1517.59 277.131L1519.45 278.419H1506.96L1508.82 277.131L1507.05 281.293C1506.75 281.992 1506.44 282.501 1506.1 282.82C1505.78 283.12 1505.3 283.269 1504.66 283.269ZM1513.16 266.831L1509.33 275.964L1508.52 274.796H1517.89L1517.08 275.964L1513.22 266.831H1513.16ZM1528.97 283C1528.21 283 1527.62 282.79 1527.2 282.371C1526.8 281.952 1526.6 281.373 1526.6 280.635V264.197C1526.6 263.418 1526.8 262.829 1527.2 262.43C1527.6 262.031 1528.18 261.831 1528.94 261.831C1529.68 261.831 1530.25 262.031 1530.65 262.43C1531.05 262.829 1531.24 263.418 1531.24 264.197V279.078H1539.27C1539.91 279.078 1540.4 279.247 1540.74 279.587C1541.1 279.926 1541.28 280.405 1541.28 281.024C1541.28 281.663 1541.1 282.152 1540.74 282.491C1540.4 282.83 1539.91 283 1539.27 283H1528.97ZM1546.19 283C1545.41 283 1544.82 282.79 1544.4 282.371C1543.98 281.952 1543.77 281.353 1543.77 280.575V264.316C1543.77 263.538 1543.98 262.939 1544.4 262.52C1544.82 262.101 1545.41 261.891 1546.19 261.891H1556.64C1557.24 261.891 1557.69 262.051 1557.99 262.37C1558.31 262.67 1558.47 263.109 1558.47 263.688C1558.47 264.286 1558.31 264.746 1557.99 265.065C1557.69 265.364 1557.24 265.514 1556.64 265.514H1548.2V270.454H1555.95C1556.57 270.454 1557.03 270.614 1557.33 270.933C1557.65 271.233 1557.81 271.682 1557.81 272.281C1557.81 272.88 1557.65 273.339 1557.33 273.658C1557.03 273.958 1556.57 274.107 1555.95 274.107H1548.2V279.377H1556.64C1557.24 279.377 1557.69 279.537 1557.99 279.856C1558.31 280.156 1558.47 280.595 1558.47 281.174C1558.47 281.772 1558.31 282.231 1557.99 282.551C1557.69 282.85 1557.24 283 1556.64 283H1546.19ZM1569.15 283.329C1568.31 283.329 1567.45 283.259 1566.57 283.12C1565.72 283 1564.89 282.82 1564.09 282.581C1563.31 282.341 1562.61 282.042 1561.99 281.683C1561.55 281.443 1561.24 281.134 1561.07 280.754C1560.89 280.355 1560.82 279.956 1560.86 279.557C1560.92 279.157 1561.07 278.808 1561.3 278.509C1561.56 278.189 1561.88 277.99 1562.26 277.91C1562.66 277.81 1563.1 277.88 1563.58 278.119C1564.4 278.579 1565.29 278.918 1566.24 279.138C1567.22 279.357 1568.19 279.467 1569.15 279.467C1570.61 279.467 1571.64 279.247 1572.26 278.808C1572.88 278.349 1573.19 277.78 1573.19 277.101C1573.19 276.523 1572.97 276.063 1572.53 275.724C1572.09 275.385 1571.33 275.095 1570.23 274.856L1566.84 274.137C1564.93 273.738 1563.5 273.059 1562.56 272.101C1561.64 271.123 1561.18 269.846 1561.18 268.269C1561.18 267.271 1561.39 266.362 1561.81 265.544C1562.23 264.726 1562.82 264.017 1563.58 263.418C1564.34 262.819 1565.24 262.36 1566.27 262.041C1567.33 261.721 1568.49 261.562 1569.75 261.562C1570.87 261.562 1571.96 261.701 1573.04 261.981C1574.12 262.24 1575.07 262.63 1575.89 263.149C1576.29 263.388 1576.55 263.698 1576.69 264.077C1576.85 264.436 1576.9 264.805 1576.84 265.185C1576.8 265.544 1576.65 265.863 1576.4 266.143C1576.16 266.422 1575.85 266.602 1575.47 266.682C1575.09 266.762 1574.63 266.672 1574.09 266.412C1573.43 266.073 1572.73 265.823 1571.99 265.664C1571.26 265.504 1570.5 265.424 1569.72 265.424C1568.88 265.424 1568.16 265.534 1567.56 265.754C1566.98 265.973 1566.53 266.283 1566.21 266.682C1565.92 267.081 1565.77 267.54 1565.77 268.059C1565.77 268.638 1565.98 269.107 1566.39 269.466C1566.81 269.826 1567.54 270.115 1568.58 270.335L1571.96 271.053C1573.92 271.472 1575.38 272.151 1576.34 273.089C1577.29 274.007 1577.77 275.225 1577.77 276.742C1577.77 277.74 1577.57 278.648 1577.17 279.467C1576.77 280.265 1576.2 280.954 1575.44 281.533C1574.68 282.112 1573.77 282.561 1572.71 282.88C1571.65 283.18 1570.47 283.329 1569.15 283.329ZM1590.62 283.21C1590.22 283.21 1589.91 283.1 1589.69 282.88C1589.49 282.641 1589.39 282.321 1589.39 281.922V263.149C1589.39 262.729 1589.5 262.42 1589.72 262.22C1589.94 262.001 1590.25 261.891 1590.65 261.891H1597.75C1600 261.891 1601.74 262.45 1602.96 263.568C1604.17 264.666 1604.78 266.223 1604.78 268.239C1604.78 270.235 1604.17 271.792 1602.96 272.91C1601.74 274.027 1600 274.586 1597.75 274.586H1591.85V281.922C1591.85 282.321 1591.75 282.641 1591.55 282.88C1591.35 283.1 1591.04 283.21 1590.62 283.21ZM1591.85 272.52H1597.45C1599.06 272.52 1600.28 272.161 1601.1 271.442C1601.94 270.704 1602.36 269.636 1602.36 268.239C1602.36 266.821 1601.94 265.754 1601.1 265.035C1600.28 264.296 1599.06 263.927 1597.45 263.927H1591.85V272.52ZM1609.57 283.21C1609.17 283.21 1608.86 283.1 1608.64 282.88C1608.44 282.641 1608.34 282.321 1608.34 281.922V263.149C1608.34 262.729 1608.45 262.42 1608.67 262.22C1608.89 262.001 1609.2 261.891 1609.6 261.891H1616.69C1618.95 261.891 1620.69 262.42 1621.9 263.478C1623.12 264.536 1623.73 266.043 1623.73 267.999C1623.73 269.237 1623.45 270.315 1622.89 271.233C1622.35 272.131 1621.55 272.82 1620.5 273.299C1619.44 273.758 1618.17 273.988 1616.69 273.988L1616.99 273.598H1617.59C1618.37 273.598 1619.05 273.798 1619.63 274.197C1620.21 274.596 1620.74 275.235 1621.22 276.113L1624.09 281.473C1624.25 281.752 1624.32 282.032 1624.3 282.311C1624.3 282.571 1624.21 282.79 1624.03 282.97C1623.85 283.13 1623.59 283.21 1623.25 283.21C1622.91 283.21 1622.63 283.13 1622.41 282.97C1622.19 282.81 1622 282.581 1621.84 282.281L1618.58 276.233C1618.12 275.375 1617.59 274.806 1616.99 274.526C1616.39 274.227 1615.61 274.077 1614.63 274.077H1610.8V281.922C1610.8 282.321 1610.7 282.641 1610.5 282.88C1610.3 283.1 1609.99 283.21 1609.57 283.21ZM1610.8 272.131H1616.34C1617.97 272.131 1619.21 271.792 1620.05 271.113C1620.89 270.414 1621.31 269.377 1621.31 267.999C1621.31 266.662 1620.89 265.654 1620.05 264.975C1619.21 264.276 1617.97 263.927 1616.34 263.927H1610.8V272.131ZM1637.09 283.269C1635.13 283.269 1633.42 282.83 1631.97 281.952C1630.53 281.054 1629.41 279.796 1628.61 278.179C1627.83 276.563 1627.45 274.646 1627.45 272.431C1627.45 270.754 1627.66 269.257 1628.1 267.939C1628.56 266.602 1629.21 265.474 1630.05 264.556C1630.89 263.618 1631.9 262.899 1633.07 262.4C1634.27 261.881 1635.61 261.622 1637.09 261.622C1639.08 261.622 1640.8 262.061 1642.24 262.939C1643.69 263.817 1644.81 265.065 1645.59 266.682C1646.39 268.279 1646.79 270.185 1646.79 272.401C1646.79 274.077 1646.56 275.584 1646.1 276.922C1645.64 278.259 1644.99 279.397 1644.15 280.335C1643.31 281.273 1642.3 282.002 1641.1 282.521C1639.92 283.02 1638.58 283.269 1637.09 283.269ZM1637.09 281.084C1638.6 281.084 1639.88 280.744 1640.92 280.066C1641.98 279.387 1642.79 278.399 1643.34 277.101C1643.9 275.804 1644.18 274.247 1644.18 272.431C1644.18 269.696 1643.56 267.58 1642.33 266.083C1641.11 264.566 1639.36 263.807 1637.09 263.807C1635.61 263.807 1634.34 264.147 1633.28 264.825C1632.25 265.504 1631.45 266.492 1630.89 267.79C1630.33 269.067 1630.05 270.614 1630.05 272.431C1630.05 275.145 1630.67 277.271 1631.91 278.808C1633.14 280.325 1634.87 281.084 1637.09 281.084ZM1656.27 283.21C1655.89 283.21 1655.59 283.1 1655.37 282.88C1655.15 282.641 1655.04 282.321 1655.04 281.922V264.017H1648.3C1647.95 264.017 1647.67 263.917 1647.47 263.718C1647.27 263.518 1647.17 263.258 1647.17 262.939C1647.17 262.6 1647.27 262.34 1647.47 262.161C1647.67 261.981 1647.95 261.891 1648.3 261.891H1664.26C1664.62 261.891 1664.9 261.981 1665.1 262.161C1665.3 262.34 1665.4 262.6 1665.4 262.939C1665.4 263.278 1665.3 263.548 1665.1 263.747C1664.9 263.927 1664.62 264.017 1664.26 264.017H1657.53V281.922C1657.53 282.321 1657.42 282.641 1657.2 282.88C1657 283.1 1656.69 283.21 1656.27 283.21ZM1675.42 283.269C1673.46 283.269 1671.76 282.83 1670.3 281.952C1668.86 281.054 1667.75 279.796 1666.95 278.179C1666.17 276.563 1665.78 274.646 1665.78 272.431C1665.78 270.754 1666 269.257 1666.44 267.939C1666.9 266.602 1667.55 265.474 1668.38 264.556C1669.22 263.618 1670.23 262.899 1671.41 262.4C1672.61 261.881 1673.94 261.622 1675.42 261.622C1677.42 261.622 1679.13 262.061 1680.57 262.939C1682.03 263.817 1683.15 265.065 1683.92 266.682C1684.72 268.279 1685.12 270.185 1685.12 272.401C1685.12 274.077 1684.89 275.584 1684.43 276.922C1683.97 278.259 1683.32 279.397 1682.49 280.335C1681.65 281.273 1680.63 282.002 1679.43 282.521C1678.25 283.02 1676.92 283.269 1675.42 283.269ZM1675.42 281.084C1676.94 281.084 1678.21 280.744 1679.25 280.066C1680.31 279.387 1681.12 278.399 1681.68 277.101C1682.24 275.804 1682.52 274.247 1682.52 272.431C1682.52 269.696 1681.9 267.58 1680.66 266.083C1679.44 264.566 1677.7 263.807 1675.42 263.807C1673.94 263.807 1672.68 264.147 1671.62 264.825C1670.58 265.504 1669.78 266.492 1669.22 267.79C1668.66 269.067 1668.38 270.614 1668.38 272.431C1668.38 275.145 1669 277.271 1670.24 278.808C1671.48 280.325 1673.2 281.084 1675.42 281.084ZM1698.64 283.269C1696.57 283.269 1694.79 282.83 1693.31 281.952C1691.84 281.074 1690.7 279.826 1689.9 278.209C1689.12 276.592 1688.73 274.666 1688.73 272.431C1688.73 270.754 1688.95 269.257 1689.39 267.939C1689.85 266.602 1690.5 265.474 1691.34 264.556C1692.2 263.618 1693.24 262.899 1694.48 262.4C1695.72 261.881 1697.11 261.622 1698.64 261.622C1699.88 261.622 1701.06 261.801 1702.18 262.161C1703.29 262.5 1704.26 263.009 1705.08 263.688C1705.34 263.887 1705.51 264.117 1705.59 264.376C1705.69 264.616 1705.7 264.855 1705.62 265.095C1705.56 265.314 1705.44 265.504 1705.26 265.664C1705.1 265.803 1704.9 265.873 1704.66 265.873C1704.42 265.873 1704.15 265.774 1703.85 265.574C1703.13 264.995 1702.35 264.566 1701.49 264.286C1700.63 264.007 1699.7 263.867 1698.7 263.867C1697.13 263.867 1695.79 264.207 1694.69 264.885C1693.59 265.544 1692.76 266.512 1692.21 267.79C1691.65 269.067 1691.37 270.614 1691.37 272.431C1691.37 274.247 1691.65 275.804 1692.21 277.101C1692.76 278.379 1693.59 279.357 1694.69 280.036C1695.79 280.694 1697.13 281.024 1698.7 281.024C1699.68 281.024 1700.61 280.884 1701.49 280.605C1702.37 280.305 1703.17 279.866 1703.91 279.287C1704.21 279.088 1704.48 278.998 1704.72 279.018C1704.96 279.018 1705.16 279.088 1705.32 279.227C1705.48 279.367 1705.59 279.547 1705.65 279.766C1705.73 279.986 1705.73 280.215 1705.65 280.455C1705.59 280.694 1705.44 280.904 1705.2 281.084C1704.36 281.802 1703.37 282.351 1702.24 282.731C1701.12 283.09 1699.92 283.269 1698.64 283.269ZM1717.91 283.269C1715.95 283.269 1714.24 282.83 1712.79 281.952C1711.35 281.054 1710.23 279.796 1709.43 278.179C1708.65 276.563 1708.26 274.646 1708.26 272.431C1708.26 270.754 1708.48 269.257 1708.92 267.939C1709.38 266.602 1710.03 265.474 1710.87 264.556C1711.71 263.618 1712.72 262.899 1713.89 262.4C1715.09 261.881 1716.43 261.622 1717.91 261.622C1719.9 261.622 1721.62 262.061 1723.06 262.939C1724.51 263.817 1725.63 265.065 1726.41 266.682C1727.21 268.279 1727.61 270.185 1727.61 272.401C1727.61 274.077 1727.38 275.584 1726.92 276.922C1726.46 278.259 1725.81 279.397 1724.97 280.335C1724.13 281.273 1723.12 282.002 1721.92 282.521C1720.74 283.02 1719.4 283.269 1717.91 283.269ZM1717.91 281.084C1719.42 281.084 1720.7 280.744 1721.74 280.066C1722.8 279.387 1723.6 278.399 1724.16 277.101C1724.72 275.804 1725 274.247 1725 272.431C1725 269.696 1724.38 267.58 1723.15 266.083C1721.93 264.566 1720.18 263.807 1717.91 263.807C1716.43 263.807 1715.16 264.147 1714.1 264.825C1713.07 265.504 1712.27 266.492 1711.71 267.79C1711.15 269.067 1710.87 270.614 1710.87 272.431C1710.87 275.145 1711.49 277.271 1712.73 278.808C1713.96 280.325 1715.69 281.084 1717.91 281.084ZM1733.25 283C1732.85 283 1732.55 282.89 1732.33 282.671C1732.11 282.431 1732 282.112 1732 281.713V263.029C1732 262.61 1732.1 262.29 1732.3 262.071C1732.52 261.851 1732.82 261.741 1733.22 261.741C1733.62 261.741 1733.92 261.851 1734.12 262.071C1734.34 262.29 1734.45 262.61 1734.45 263.029V280.844H1744.27C1744.63 280.844 1744.91 280.944 1745.11 281.144C1745.31 281.323 1745.41 281.583 1745.41 281.922C1745.41 282.261 1745.31 282.531 1745.11 282.731C1744.91 282.91 1744.63 283 1744.27 283H1733.25Z" fill="white"/>
</svg>
