<svg width="1026" height="944" viewBox="0 0 1026 944" fill="none" xmlns="http://www.w3.org/2000/svg">
<path fill-rule="evenodd" clip-rule="evenodd" d="M92.2167 544C81.285 544 71.0918 542.008 61.6374 538.025C54.3541 534.843 47.7721 530.742 41.8915 525.721L27.2979 540.163H0L29.2206 511.837C25.6377 506.815 22.6309 501.382 20.2002 495.538C16.3593 485.949 14.4388 475.696 14.4388 464.779C14.4388 453.714 16.3593 443.461 20.2002 434.02C24.1888 424.43 29.6546 416.021 36.5978 408.793C43.6886 401.564 51.8874 395.958 61.1942 391.975C70.6487 387.992 80.8418 386 91.7735 386C102.705 386 112.825 387.992 122.131 391.975C129.087 394.905 135.403 398.714 141.08 403.402L157.365 387.615L181.077 387.615L181.073 387.606H203.676L250.338 507.054L297.408 387.606H319.788L257.743 541.18H242.675L181.183 387.88L153.017 415.753C157.282 421.273 160.799 427.362 163.568 434.02C167.557 443.609 169.551 453.936 169.551 465C169.551 475.917 167.557 486.17 163.568 495.759C159.58 505.348 154.04 513.757 146.949 520.986C140.006 528.215 131.807 533.895 122.353 538.025C113.046 542.008 103.001 544 92.2167 544ZM69.1714 519.658C64.3516 517.566 59.9778 514.916 56.0498 511.71L138.266 430.351C140.456 433.723 142.316 437.38 143.847 441.322C146.654 448.403 148.057 456.222 148.057 464.779C148.057 476.286 145.62 486.539 140.745 495.538C135.87 504.389 129.222 511.397 120.802 516.56C112.529 521.576 102.853 524.084 91.7735 524.084C83.6486 524.084 76.1145 522.609 69.1714 519.658ZM126.58 417.458L44.0887 497.424C42.5106 494.684 41.1216 491.768 39.9216 488.678C37.2625 481.302 35.933 473.335 35.933 464.779C35.933 453.272 38.2966 443.092 43.0239 434.241C47.8988 425.389 54.4726 418.456 62.7453 413.44C71.1657 408.424 80.8418 405.916 91.7735 405.916C100.046 405.916 107.58 407.391 114.376 410.342C118.824 412.176 122.892 414.548 126.58 417.458ZM325.961 387.606V541.18H340.143H346.79H428.335V522.149H346.79V406.637H427.227V387.606H346.79H340.143H325.961ZM482.399 474.351V456.869H505.223C514.234 456.869 521.178 454.582 526.052 450.009C530.927 445.436 533.365 439.24 533.365 431.421C533.365 424.045 530.927 417.922 526.052 413.054C521.325 408.186 514.456 405.751 505.445 405.751H470.434V541.18H449.604V387.606H463.564H470.434H506.109C515.859 387.606 524.354 389.524 531.592 393.359C538.831 397.047 544.37 402.137 548.211 408.628C552.2 415.119 554.194 422.569 554.194 430.978C554.194 439.682 552.2 447.28 548.211 453.771C544.37 460.262 538.831 465.352 531.592 469.04C525.173 472.18 517.767 473.927 509.373 474.283L564.609 541.18H538.24L482.399 474.351ZM661.585 408.472H632.66V541.787H611.83V408.472H558.816V387.598H690.489L661.585 408.472ZM714.599 387.692V387.606H735.428V541.18H714.599V414.408L682.451 438.736L669.596 421.748L714.599 387.692ZM756.303 387.606V541.18H777.133V433.078L823.889 509.757H838.515L885.049 433.441V541.18H905.879V387.606H891.254L831.091 486.308L770.928 387.606H756.303ZM923.303 541.18V387.606H937.485H944.132H1024.57V406.637H944.132V522.149H1025.68V541.18H944.132H937.485H923.303ZM965.049 472.711V453.55H1024.57V472.711H965.049ZM427.132 455.035H361.296V474.304H427.132V455.035Z" fill="white"/>
<path d="M272.441 859.48C270.521 859.48 268.661 859.32 266.861 859C265.061 858.68 263.381 858.2 261.821 857.56C260.301 856.88 258.921 856.06 257.681 855.1C257.281 854.82 257.001 854.5 256.841 854.14C256.721 853.74 256.701 853.38 256.781 853.06C256.901 852.7 257.081 852.4 257.321 852.16C257.601 851.92 257.921 851.8 258.281 851.8C258.641 851.76 259.021 851.88 259.421 852.16C261.261 853.52 263.201 854.52 265.241 855.16C267.321 855.8 269.721 856.12 272.441 856.12C276.241 856.12 279.081 855.38 280.961 853.9C282.881 852.42 283.841 850.48 283.841 848.08C283.841 846.08 283.141 844.52 281.741 843.4C280.381 842.28 278.121 841.4 274.961 840.76L268.901 839.5C265.101 838.74 262.281 837.46 260.441 835.66C258.601 833.86 257.681 831.46 257.681 828.46C257.681 826.62 258.041 824.96 258.761 823.48C259.481 821.96 260.501 820.66 261.821 819.58C263.141 818.5 264.701 817.68 266.501 817.12C268.341 816.52 270.361 816.22 272.561 816.22C275.161 816.22 277.541 816.58 279.701 817.3C281.901 818.02 283.901 819.16 285.701 820.72C286.061 821 286.301 821.34 286.421 821.74C286.541 822.1 286.541 822.46 286.421 822.82C286.301 823.14 286.121 823.4 285.881 823.6C285.641 823.8 285.341 823.92 284.981 823.96C284.621 823.96 284.241 823.8 283.841 823.48C282.161 822.12 280.401 821.14 278.561 820.54C276.761 819.9 274.761 819.58 272.561 819.58C270.321 819.58 268.361 819.94 266.681 820.66C265.041 821.38 263.761 822.4 262.841 823.72C261.921 825.04 261.461 826.6 261.461 828.4C261.461 830.48 262.101 832.14 263.381 833.38C264.661 834.62 266.721 835.52 269.561 836.08L275.681 837.34C279.721 838.18 282.721 839.44 284.681 841.12C286.641 842.76 287.621 845.02 287.621 847.9C287.621 849.62 287.261 851.2 286.541 852.64C285.861 854.04 284.861 855.26 283.541 856.3C282.221 857.34 280.621 858.14 278.741 858.7C276.901 859.22 274.801 859.48 272.441 859.48ZM297.486 859.36C296.926 859.36 296.486 859.2 296.166 858.88C295.846 858.52 295.686 858.04 295.686 857.44V818.62C295.686 817.98 295.846 817.5 296.166 817.18C296.526 816.86 296.986 816.7 297.546 816.7H311.646C316.126 816.7 319.566 817.78 321.966 819.94C324.366 822.1 325.566 825.18 325.566 829.18C325.566 833.14 324.366 836.22 321.966 838.42C319.566 840.58 316.126 841.66 311.646 841.66H299.346V857.44C299.346 858.04 299.186 858.52 298.866 858.88C298.586 859.2 298.126 859.36 297.486 859.36ZM299.346 838.42H311.346C314.826 838.42 317.446 837.64 319.206 836.08C320.966 834.52 321.846 832.22 321.846 829.18C321.846 826.14 320.966 823.84 319.206 822.28C317.446 820.68 314.826 819.88 311.346 819.88H299.346V838.42ZM349.82 859.48C345.98 859.48 342.64 858.6 339.8 856.84C336.96 855.08 334.76 852.58 333.2 849.34C331.68 846.1 330.92 842.26 330.92 837.82C330.92 834.46 331.34 831.46 332.18 828.82C333.06 826.14 334.32 823.88 335.96 822.04C337.6 820.16 339.58 818.72 341.9 817.72C344.26 816.72 346.9 816.22 349.82 816.22C353.74 816.22 357.12 817.1 359.96 818.86C362.8 820.58 364.98 823.06 366.5 826.3C368.02 829.5 368.78 833.32 368.78 837.76C368.78 841.12 368.34 844.14 367.46 846.82C366.58 849.5 365.32 851.78 363.68 853.66C362.04 855.54 360.04 856.98 357.68 857.98C355.36 858.98 352.74 859.48 349.82 859.48ZM349.82 856.12C353.02 856.12 355.74 855.4 357.98 853.96C360.22 852.52 361.92 850.44 363.08 847.72C364.28 845 364.88 841.7 364.88 837.82C364.88 832.02 363.56 827.54 360.92 824.38C358.32 821.18 354.62 819.58 349.82 819.58C346.66 819.58 343.96 820.3 341.72 821.74C339.48 823.18 337.76 825.26 336.56 827.98C335.4 830.7 334.82 833.98 334.82 837.82C334.82 843.58 336.14 848.08 338.78 851.32C341.42 854.52 345.1 856.12 349.82 856.12ZM379.927 859.36C379.367 859.36 378.927 859.2 378.607 858.88C378.287 858.52 378.127 858.04 378.127 857.44V818.62C378.127 817.98 378.287 817.5 378.607 817.18C378.967 816.86 379.427 816.7 379.987 816.7H394.087C398.567 816.7 402.007 817.74 404.407 819.82C406.807 821.9 408.007 824.86 408.007 828.7C408.007 831.18 407.467 833.32 406.387 835.12C405.307 836.88 403.707 838.22 401.587 839.14C399.507 840.06 397.007 840.52 394.087 840.52L394.747 839.74H395.587C397.107 839.74 398.427 840.14 399.547 840.94C400.707 841.74 401.747 843.04 402.667 844.84L409.027 856.66C409.307 857.1 409.427 857.54 409.387 857.98C409.387 858.38 409.247 858.72 408.967 859C408.687 859.24 408.327 859.36 407.887 859.36C407.367 859.36 406.927 859.24 406.567 859C406.247 858.76 405.967 858.42 405.727 857.98L399.007 845.44C397.967 843.52 396.807 842.26 395.527 841.66C394.247 841.02 392.527 840.7 390.367 840.7H381.787V857.44C381.787 858.04 381.627 858.52 381.307 858.88C381.027 859.2 380.567 859.36 379.927 859.36ZM381.787 837.58H393.607C397.167 837.58 399.827 836.84 401.587 835.36C403.387 833.84 404.287 831.62 404.287 828.7C404.287 825.82 403.387 823.64 401.587 822.16C399.827 820.64 397.167 819.88 393.607 819.88H381.787V837.58ZM428.924 859.36C428.324 859.36 427.864 859.2 427.544 858.88C427.224 858.52 427.064 858.04 427.064 857.44V820H412.724C412.164 820 411.724 819.84 411.404 819.52C411.084 819.2 410.924 818.8 410.924 818.32C410.924 817.8 411.084 817.4 411.404 817.12C411.724 816.84 412.164 816.7 412.724 816.7H445.184C445.744 816.7 446.164 816.84 446.444 817.12C446.764 817.4 446.924 817.8 446.924 818.32C446.924 818.84 446.764 819.26 446.444 819.58C446.164 819.86 445.744 820 445.184 820H430.784V857.44C430.784 858.04 430.624 858.52 430.304 858.88C430.024 859.2 429.564 859.36 428.924 859.36ZM463.925 859.48C462.005 859.48 460.145 859.32 458.345 859C456.545 858.68 454.865 858.2 453.305 857.56C451.785 856.88 450.405 856.06 449.165 855.1C448.765 854.82 448.485 854.5 448.325 854.14C448.205 853.74 448.185 853.38 448.265 853.06C448.385 852.7 448.565 852.4 448.805 852.16C449.085 851.92 449.405 851.8 449.765 851.8C450.125 851.76 450.505 851.88 450.905 852.16C452.745 853.52 454.685 854.52 456.725 855.16C458.805 855.8 461.205 856.12 463.925 856.12C467.725 856.12 470.565 855.38 472.445 853.9C474.365 852.42 475.325 850.48 475.325 848.08C475.325 846.08 474.625 844.52 473.225 843.4C471.865 842.28 469.605 841.4 466.445 840.76L460.385 839.5C456.585 838.74 453.765 837.46 451.925 835.66C450.085 833.86 449.165 831.46 449.165 828.46C449.165 826.62 449.525 824.96 450.245 823.48C450.965 821.96 451.985 820.66 453.305 819.58C454.625 818.5 456.185 817.68 457.985 817.12C459.825 816.52 461.845 816.22 464.045 816.22C466.645 816.22 469.025 816.58 471.185 817.3C473.385 818.02 475.385 819.16 477.185 820.72C477.545 821 477.785 821.34 477.905 821.74C478.025 822.1 478.025 822.46 477.905 822.82C477.785 823.14 477.605 823.4 477.365 823.6C477.125 823.8 476.825 823.92 476.465 823.96C476.105 823.96 475.725 823.8 475.325 823.48C473.645 822.12 471.885 821.14 470.045 820.54C468.245 819.9 466.245 819.58 464.045 819.58C461.805 819.58 459.845 819.94 458.165 820.66C456.525 821.38 455.245 822.4 454.325 823.72C453.405 825.04 452.945 826.6 452.945 828.4C452.945 830.48 453.585 832.14 454.865 833.38C456.145 834.62 458.205 835.52 461.045 836.08L467.165 837.34C471.205 838.18 474.205 839.44 476.165 841.12C478.125 842.76 479.105 845.02 479.105 847.9C479.105 849.62 478.745 851.2 478.025 852.64C477.345 854.04 476.345 855.26 475.025 856.3C473.705 857.34 472.105 858.14 470.225 858.7C468.385 859.22 466.285 859.48 463.925 859.48ZM504.088 859.36C503.568 859.36 503.148 859.2 502.828 858.88C502.548 858.56 502.408 858.12 502.408 857.56V818.14C502.408 817.54 502.548 817.1 502.828 816.82C503.148 816.5 503.548 816.34 504.028 816.34C504.548 816.34 504.948 816.44 505.228 816.64C505.508 816.84 505.768 817.16 506.008 817.6L523.168 850.18H521.488L538.528 817.6C538.808 817.16 539.068 816.84 539.308 816.64C539.588 816.44 539.988 816.34 540.508 816.34C540.988 816.34 541.368 816.5 541.648 816.82C541.968 817.1 542.128 817.54 542.128 818.14V857.56C542.128 858.12 541.988 858.56 541.708 858.88C541.428 859.2 541.008 859.36 540.448 859.36C539.888 859.36 539.448 859.2 539.128 858.88C538.848 858.56 538.708 858.12 538.708 857.56V821.14H540.148L524.068 851.62C523.868 852.02 523.648 852.32 523.408 852.52C523.168 852.72 522.828 852.82 522.388 852.82C521.908 852.82 521.528 852.72 521.248 852.52C521.008 852.28 520.788 851.98 520.588 851.62L504.328 821.08H505.768V857.56C505.768 858.12 505.628 858.56 505.348 858.88C505.068 859.2 504.648 859.36 504.088 859.36ZM551.706 859.36C551.186 859.36 550.766 859.24 550.446 859C550.166 858.8 550.006 858.5 549.966 858.1C549.966 857.7 550.066 857.26 550.266 856.78L567.126 818.02C567.406 817.42 567.746 817 568.146 816.76C568.546 816.48 568.946 816.34 569.346 816.34C569.826 816.34 570.246 816.48 570.606 816.76C571.006 817 571.326 817.42 571.566 818.02L588.426 856.78C588.666 857.26 588.766 857.7 588.726 858.1C588.726 858.5 588.586 858.8 588.306 859C588.066 859.24 587.686 859.36 587.166 859.36C586.606 859.36 586.146 859.22 585.786 858.94C585.466 858.62 585.186 858.2 584.946 857.68L580.326 846.82L582.306 847.72H556.326L558.366 846.82L553.746 857.68C553.506 858.28 553.206 858.72 552.846 859C552.526 859.24 552.146 859.36 551.706 859.36ZM569.286 821.26L559.086 845.26L557.706 844.54H580.926L579.666 845.26L569.406 821.26H569.286ZM598.306 859.36C597.746 859.36 597.306 859.2 596.986 858.88C596.666 858.52 596.506 858.04 596.506 857.44V818.62C596.506 817.98 596.666 817.5 596.986 817.18C597.346 816.86 597.806 816.7 598.366 816.7H612.466C616.946 816.7 620.386 817.74 622.786 819.82C625.186 821.9 626.386 824.86 626.386 828.7C626.386 831.18 625.846 833.32 624.766 835.12C623.686 836.88 622.086 838.22 619.966 839.14C617.886 840.06 615.386 840.52 612.466 840.52L613.126 839.74H613.966C615.486 839.74 616.806 840.14 617.926 840.94C619.086 841.74 620.126 843.04 621.046 844.84L627.406 856.66C627.686 857.1 627.806 857.54 627.766 857.98C627.766 858.38 627.626 858.72 627.346 859C627.066 859.24 626.706 859.36 626.266 859.36C625.746 859.36 625.306 859.24 624.946 859C624.626 858.76 624.346 858.42 624.106 857.98L617.386 845.44C616.346 843.52 615.186 842.26 613.906 841.66C612.626 841.02 610.906 840.7 608.746 840.7H600.166V857.44C600.166 858.04 600.006 858.52 599.686 858.88C599.406 859.2 598.946 859.36 598.306 859.36ZM600.166 837.58H611.986C615.546 837.58 618.206 836.84 619.966 835.36C621.766 833.84 622.666 831.62 622.666 828.7C622.666 825.82 621.766 823.64 619.966 822.16C618.206 820.64 615.546 819.88 611.986 819.88H600.166V837.58ZM637.974 859.36C637.414 859.36 636.974 859.2 636.654 858.88C636.334 858.52 636.174 858.04 636.174 857.44V818.2C636.174 817.6 636.334 817.14 636.654 816.82C636.974 816.5 637.414 816.34 637.974 816.34C638.574 816.34 639.034 816.5 639.354 816.82C639.674 817.14 639.834 817.6 639.834 818.2V836.14H639.954L660.534 817.42C660.974 817.06 661.394 816.8 661.794 816.64C662.194 816.44 662.614 816.34 663.054 816.34C663.614 816.34 664.014 816.48 664.254 816.76C664.534 817 664.654 817.32 664.614 817.72C664.574 818.08 664.354 818.44 663.954 818.8L642.114 838.54L642.234 836.26L664.974 856.54C665.454 856.98 665.714 857.42 665.754 857.86C665.794 858.3 665.654 858.66 665.334 858.94C665.054 859.22 664.634 859.36 664.074 859.36C663.594 859.36 663.174 859.26 662.814 859.06C662.494 858.86 662.114 858.58 661.674 858.22L639.954 838.9H639.834V857.44C639.834 858.04 639.674 858.52 639.354 858.88C639.074 859.2 638.614 859.36 637.974 859.36ZM674.66 859C674.02 859 673.52 858.82 673.16 858.46C672.8 858.1 672.62 857.58 672.62 856.9V818.8C672.62 818.12 672.8 817.6 673.16 817.24C673.52 816.88 674.02 816.7 674.66 816.7H697.34C697.9 816.7 698.32 816.84 698.6 817.12C698.88 817.4 699.02 817.78 699.02 818.26C699.02 818.82 698.88 819.24 698.6 819.52C698.32 819.76 697.9 819.88 697.34 819.88H676.22V835.96H696.14C696.7 835.96 697.12 836.1 697.4 836.38C697.68 836.62 697.82 837 697.82 837.52C697.82 838.04 697.68 838.44 697.4 838.72C697.12 839 696.7 839.14 696.14 839.14H676.22V855.82H697.34C697.9 855.82 698.32 855.96 698.6 856.24C698.88 856.48 699.02 856.86 699.02 857.38C699.02 857.9 698.88 858.3 698.6 858.58C698.32 858.86 697.9 859 697.34 859H674.66ZM718.552 859.36C717.952 859.36 717.492 859.2 717.172 858.88C716.852 858.52 716.692 858.04 716.692 857.44V820H702.352C701.792 820 701.352 819.84 701.032 819.52C700.712 819.2 700.552 818.8 700.552 818.32C700.552 817.8 700.712 817.4 701.032 817.12C701.352 816.84 701.792 816.7 702.352 816.7H734.812C735.372 816.7 735.792 816.84 736.072 817.12C736.392 817.4 736.552 817.8 736.552 818.32C736.552 818.84 736.392 819.26 736.072 819.58C735.792 819.86 735.372 820 734.812 820H720.412V857.44C720.412 858.04 720.252 858.52 719.932 858.88C719.652 859.2 719.192 859.36 718.552 859.36ZM753.554 859.48C751.634 859.48 749.774 859.32 747.974 859C746.174 858.68 744.494 858.2 742.934 857.56C741.414 856.88 740.034 856.06 738.794 855.1C738.394 854.82 738.114 854.5 737.954 854.14C737.834 853.74 737.814 853.38 737.894 853.06C738.014 852.7 738.194 852.4 738.434 852.16C738.714 851.92 739.034 851.8 739.394 851.8C739.754 851.76 740.134 851.88 740.534 852.16C742.374 853.52 744.314 854.52 746.354 855.16C748.434 855.8 750.834 856.12 753.554 856.12C757.354 856.12 760.194 855.38 762.074 853.9C763.994 852.42 764.954 850.48 764.954 848.08C764.954 846.08 764.254 844.52 762.854 843.4C761.494 842.28 759.234 841.4 756.074 840.76L750.014 839.5C746.214 838.74 743.394 837.46 741.554 835.66C739.714 833.86 738.794 831.46 738.794 828.46C738.794 826.62 739.154 824.96 739.874 823.48C740.594 821.96 741.614 820.66 742.934 819.58C744.254 818.5 745.814 817.68 747.614 817.12C749.454 816.52 751.474 816.22 753.674 816.22C756.274 816.22 758.654 816.58 760.814 817.3C763.014 818.02 765.014 819.16 766.814 820.72C767.174 821 767.414 821.34 767.534 821.74C767.654 822.1 767.654 822.46 767.534 822.82C767.414 823.14 767.234 823.4 766.994 823.6C766.754 823.8 766.454 823.92 766.094 823.96C765.734 823.96 765.354 823.8 764.954 823.48C763.274 822.12 761.514 821.14 759.674 820.54C757.874 819.9 755.874 819.58 753.674 819.58C751.434 819.58 749.474 819.94 747.794 820.66C746.154 821.38 744.874 822.4 743.954 823.72C743.034 825.04 742.574 826.6 742.574 828.4C742.574 830.48 743.214 832.14 744.494 833.38C745.774 834.62 747.834 835.52 750.674 836.08L756.794 837.34C760.834 838.18 763.834 839.44 765.794 841.12C767.754 842.76 768.734 845.02 768.734 847.9C768.734 849.62 768.374 851.2 767.654 852.64C766.974 854.04 765.974 855.26 764.654 856.3C763.334 857.34 761.734 858.14 759.854 858.7C758.014 859.22 755.914 859.48 753.554 859.48ZM96.6616 929C96.0216 929 95.5216 928.82 95.1616 928.46C94.8016 928.1 94.6216 927.58 94.6216 926.9V888.8C94.6216 888.12 94.8016 887.6 95.1616 887.24C95.5216 886.88 96.0216 886.7 96.6616 886.7H110.762C113.682 886.7 116.142 887.14 118.142 888.02C120.142 888.86 121.682 890.1 122.762 891.74C123.842 893.38 124.382 895.4 124.382 897.8C124.382 900.44 123.582 902.64 121.982 904.4C120.422 906.16 118.302 907.32 115.622 907.88V907.04C118.622 907.36 120.982 908.44 122.702 910.28C124.462 912.08 125.342 914.48 125.342 917.48C125.342 921.24 124.142 924.1 121.742 926.06C119.342 928.02 115.942 929 111.542 929H96.6616ZM98.2216 925.88H111.242C114.722 925.88 117.322 925.2 119.042 923.84C120.762 922.44 121.622 920.34 121.622 917.54C121.622 914.66 120.762 912.54 119.042 911.18C117.322 909.82 114.722 909.14 111.242 909.14H98.2216V925.88ZM98.2216 906.02H110.342C113.702 906.02 116.262 905.34 118.022 903.98C119.782 902.58 120.662 900.56 120.662 897.92C120.662 895.28 119.782 893.28 118.022 891.92C116.262 890.52 113.702 889.82 110.342 889.82H98.2216V906.02ZM151.075 929.48C148.395 929.48 146.015 929.12 143.935 928.4C141.855 927.68 140.115 926.6 138.715 925.16C137.355 923.72 136.315 921.94 135.595 919.82C134.915 917.7 134.575 915.26 134.575 912.5V888.2C134.575 887.56 134.735 887.1 135.055 886.82C135.375 886.5 135.815 886.34 136.375 886.34C136.975 886.34 137.435 886.5 137.755 886.82C138.075 887.1 138.235 887.56 138.235 888.2V912.2C138.235 916.88 139.315 920.38 141.475 922.7C143.675 924.98 146.875 926.12 151.075 926.12C155.315 926.12 158.515 924.98 160.675 922.7C162.835 920.38 163.915 916.88 163.915 912.2V888.2C163.915 887.56 164.075 887.1 164.395 886.82C164.715 886.5 165.175 886.34 165.775 886.34C166.335 886.34 166.775 886.5 167.095 886.82C167.415 887.1 167.575 887.56 167.575 888.2V912.5C167.575 916.18 166.955 919.3 165.715 921.86C164.475 924.38 162.615 926.28 160.135 927.56C157.695 928.84 154.675 929.48 151.075 929.48ZM180.093 929.36C179.533 929.36 179.093 929.2 178.773 928.88C178.453 928.52 178.293 928.04 178.293 927.44V888.26C178.293 887.62 178.453 887.14 178.773 886.82C179.093 886.5 179.533 886.34 180.093 886.34C180.693 886.34 181.153 886.5 181.473 886.82C181.793 887.14 181.953 887.62 181.953 888.26V927.44C181.953 928.04 181.793 928.52 181.473 928.88C181.193 929.2 180.733 929.36 180.093 929.36ZM194.86 929C194.3 929 193.84 928.84 193.48 928.52C193.16 928.16 193 927.68 193 927.08V888.32C193 887.68 193.16 887.2 193.48 886.88C193.8 886.56 194.24 886.4 194.8 886.4C195.4 886.4 195.86 886.56 196.18 886.88C196.5 887.2 196.66 887.68 196.66 888.32V925.7H217.3C217.9 925.7 218.34 925.84 218.62 926.12C218.94 926.4 219.1 926.8 219.1 927.32C219.1 927.88 218.94 928.3 218.62 928.58C218.34 928.86 217.9 929 217.3 929H194.86ZM229.851 929.36C229.251 929.36 228.791 929.2 228.471 928.88C228.151 928.52 227.991 928.04 227.991 927.44V890H213.651C213.091 890 212.651 889.84 212.331 889.52C212.011 889.2 211.851 888.8 211.851 888.32C211.851 887.8 212.011 887.4 212.331 887.12C212.651 886.84 213.091 886.7 213.651 886.7H246.111C246.671 886.7 247.091 886.84 247.371 887.12C247.691 887.4 247.851 887.8 247.851 888.32C247.851 888.84 247.691 889.26 247.371 889.58C247.091 889.86 246.671 890 246.111 890H231.711V927.44C231.711 928.04 231.551 928.52 231.231 928.88C230.951 929.2 230.491 929.36 229.851 929.36ZM285.513 929.48C281.673 929.48 278.333 928.6 275.493 926.84C272.653 925.08 270.453 922.58 268.893 919.34C267.373 916.1 266.613 912.26 266.613 907.82C266.613 904.46 267.033 901.46 267.873 898.82C268.753 896.14 270.013 893.88 271.653 892.04C273.293 890.16 275.273 888.72 277.593 887.72C279.953 886.72 282.593 886.22 285.513 886.22C289.433 886.22 292.813 887.1 295.653 888.86C298.493 890.58 300.673 893.06 302.193 896.3C303.713 899.5 304.473 903.32 304.473 907.76C304.473 911.12 304.033 914.14 303.153 916.82C302.273 919.5 301.013 921.78 299.373 923.66C297.733 925.54 295.733 926.98 293.373 927.98C291.053 928.98 288.433 929.48 285.513 929.48ZM285.513 926.12C288.713 926.12 291.433 925.4 293.673 923.96C295.913 922.52 297.613 920.44 298.773 917.72C299.973 915 300.573 911.7 300.573 907.82C300.573 902.02 299.253 897.54 296.613 894.38C294.013 891.18 290.313 889.58 285.513 889.58C282.353 889.58 279.653 890.3 277.413 891.74C275.173 893.18 273.453 895.26 272.253 897.98C271.093 900.7 270.513 903.98 270.513 907.82C270.513 913.58 271.833 918.08 274.473 921.32C277.113 924.52 280.793 926.12 285.513 926.12ZM315.561 929.36C315.001 929.36 314.561 929.2 314.241 928.88C313.961 928.56 313.821 928.1 313.821 927.5V888.26C313.821 887.62 313.961 887.14 314.241 886.82C314.521 886.5 314.901 886.34 315.381 886.34C315.901 886.34 316.281 886.42 316.521 886.58C316.761 886.74 317.021 887.04 317.301 887.48L344.901 924.62H343.521V888.14C343.521 887.54 343.661 887.1 343.941 886.82C344.261 886.5 344.701 886.34 345.261 886.34C345.781 886.34 346.181 886.5 346.461 886.82C346.781 887.1 346.941 887.54 346.941 888.14V927.5C346.941 928.1 346.801 928.56 346.521 928.88C346.281 929.2 345.921 929.36 345.441 929.36C345.001 929.36 344.641 929.26 344.361 929.06C344.081 928.9 343.781 928.62 343.461 928.22L315.921 891.08H317.241V927.5C317.241 928.1 317.081 928.56 316.761 928.88C316.481 929.2 316.081 929.36 315.561 929.36ZM386.618 929.54C385.098 929.54 383.938 929.12 383.138 928.28C382.338 927.44 381.938 926.26 381.938 924.74V894.38H371.318C370.078 894.38 369.118 894.04 368.438 893.36C367.758 892.68 367.418 891.74 367.418 890.54C367.418 889.3 367.758 888.36 368.438 887.72C369.118 887.04 370.078 886.7 371.318 886.7H401.858C403.098 886.7 404.058 887.04 404.738 887.72C405.418 888.36 405.758 889.3 405.758 890.54C405.758 891.74 405.418 892.68 404.738 893.36C404.058 894.04 403.098 894.38 401.858 894.38H391.238V924.74C391.238 926.26 390.838 927.44 390.038 928.28C389.278 929.12 388.138 929.54 386.618 929.54ZM414.448 929.54C412.928 929.54 411.768 929.12 410.968 928.28C410.168 927.44 409.768 926.26 409.768 924.74V890.96C409.768 889.44 410.168 888.26 410.968 887.42C411.768 886.58 412.928 886.16 414.448 886.16C415.928 886.16 417.068 886.58 417.868 887.42C418.668 888.26 419.068 889.44 419.068 890.96V903.68H438.748V890.96C438.748 889.44 439.148 888.26 439.948 887.42C440.748 886.58 441.888 886.16 443.368 886.16C444.888 886.16 446.048 886.58 446.848 887.42C447.648 888.26 448.048 889.44 448.048 890.96V924.74C448.048 926.26 447.648 927.44 446.848 928.28C446.048 929.12 444.888 929.54 443.368 929.54C441.888 929.54 440.748 929.12 439.948 928.28C439.148 927.44 438.748 926.26 438.748 924.74V911.42H419.068V924.74C419.068 926.26 418.668 927.44 417.868 928.28C417.108 929.12 415.968 929.54 414.448 929.54ZM457.784 929.54C456.664 929.54 455.744 929.28 455.024 928.76C454.344 928.24 453.904 927.54 453.704 926.66C453.544 925.78 453.724 924.8 454.244 923.72L469.604 890.06C470.244 888.7 471.004 887.72 471.884 887.12C472.764 886.48 473.784 886.16 474.944 886.16C476.104 886.16 477.124 886.48 478.004 887.12C478.884 887.72 479.624 888.7 480.224 890.06L495.704 923.72C496.224 924.8 496.404 925.8 496.244 926.72C496.124 927.6 495.724 928.3 495.044 928.82C494.364 929.3 493.484 929.54 492.404 929.54C491.044 929.54 489.984 929.22 489.224 928.58C488.504 927.94 487.864 926.94 487.304 925.58L483.704 917.24L487.424 919.82H462.404L466.124 917.24L462.584 925.58C461.984 926.98 461.344 928 460.664 928.64C460.024 929.24 459.064 929.54 457.784 929.54ZM474.824 896.6L467.144 914.9L465.524 912.56H484.304L482.684 914.9L474.944 896.6H474.824ZM506.5 929C504.98 929 503.8 928.58 502.96 927.74C502.16 926.9 501.76 925.74 501.76 924.26V891.32C501.76 889.76 502.16 888.58 502.96 887.78C503.76 886.98 504.92 886.58 506.44 886.58C507.92 886.58 509.06 886.98 509.86 887.78C510.66 888.58 511.06 889.76 511.06 891.32V921.14H527.14C528.42 921.14 529.4 921.48 530.08 922.16C530.8 922.84 531.16 923.8 531.16 925.04C531.16 926.32 530.8 927.3 530.08 927.98C529.4 928.66 528.42 929 527.14 929H506.5ZM541.015 929C539.455 929 538.255 928.58 537.415 927.74C536.575 926.9 536.155 925.7 536.155 924.14V891.56C536.155 890 536.575 888.8 537.415 887.96C538.255 887.12 539.455 886.7 541.015 886.7H561.955C563.155 886.7 564.055 887.02 564.655 887.66C565.295 888.26 565.615 889.14 565.615 890.3C565.615 891.5 565.295 892.42 564.655 893.06C564.055 893.66 563.155 893.96 561.955 893.96H545.035V903.86H560.575C561.815 903.86 562.735 904.18 563.335 904.82C563.975 905.42 564.295 906.32 564.295 907.52C564.295 908.72 563.975 909.64 563.335 910.28C562.735 910.88 561.815 911.18 560.575 911.18H545.035V921.74H561.955C563.155 921.74 564.055 922.06 564.655 922.7C565.295 923.3 565.615 924.18 565.615 925.34C565.615 926.54 565.295 927.46 564.655 928.1C564.055 928.7 563.155 929 561.955 929H541.015ZM587.017 929.66C585.337 929.66 583.617 929.52 581.857 929.24C580.137 929 578.477 928.64 576.877 928.16C575.317 927.68 573.917 927.08 572.677 926.36C571.797 925.88 571.177 925.26 570.817 924.5C570.457 923.7 570.317 922.9 570.397 922.1C570.517 921.3 570.817 920.6 571.297 920C571.817 919.36 572.457 918.96 573.217 918.8C574.017 918.6 574.897 918.74 575.857 919.22C577.497 920.14 579.277 920.82 581.197 921.26C583.157 921.7 585.097 921.92 587.017 921.92C589.937 921.92 592.017 921.48 593.257 920.6C594.497 919.68 595.117 918.54 595.117 917.18C595.117 916.02 594.677 915.1 593.797 914.42C592.917 913.74 591.377 913.16 589.177 912.68L582.397 911.24C578.557 910.44 575.697 909.08 573.817 907.16C571.977 905.2 571.057 902.64 571.057 899.48C571.057 897.48 571.477 895.66 572.317 894.02C573.157 892.38 574.337 890.96 575.857 889.76C577.377 888.56 579.177 887.64 581.257 887C583.377 886.36 585.697 886.04 588.217 886.04C590.457 886.04 592.657 886.32 594.817 886.88C596.977 887.4 598.877 888.18 600.517 889.22C601.317 889.7 601.857 890.32 602.137 891.08C602.457 891.8 602.557 892.54 602.437 893.3C602.357 894.02 602.057 894.66 601.537 895.22C601.057 895.78 600.437 896.14 599.677 896.3C598.917 896.46 597.997 896.28 596.917 895.76C595.597 895.08 594.197 894.58 592.717 894.26C591.237 893.94 589.717 893.78 588.157 893.78C586.477 893.78 585.037 894 583.837 894.44C582.677 894.88 581.777 895.5 581.137 896.3C580.537 897.1 580.237 898.02 580.237 899.06C580.237 900.22 580.657 901.16 581.497 901.88C582.337 902.6 583.797 903.18 585.877 903.62L592.657 905.06C596.577 905.9 599.497 907.26 601.417 909.14C603.337 910.98 604.297 913.42 604.297 916.46C604.297 918.46 603.897 920.28 603.097 921.92C602.297 923.52 601.137 924.9 599.617 926.06C598.097 927.22 596.277 928.12 594.157 928.76C592.037 929.36 589.657 929.66 587.017 929.66ZM628.511 929.36C627.951 929.36 627.511 929.2 627.191 928.88C626.871 928.52 626.711 928.04 626.711 927.44V888.62C626.711 887.98 626.871 887.5 627.191 887.18C627.551 886.86 628.011 886.7 628.571 886.7H642.671C647.151 886.7 650.591 887.78 652.991 889.94C655.391 892.1 656.591 895.18 656.591 899.18C656.591 903.14 655.391 906.22 652.991 908.42C650.591 910.58 647.151 911.66 642.671 911.66H630.371V927.44C630.371 928.04 630.211 928.52 629.891 928.88C629.611 929.2 629.151 929.36 628.511 929.36ZM630.371 908.42H642.371C645.851 908.42 648.471 907.64 650.231 906.08C651.991 904.52 652.871 902.22 652.871 899.18C652.871 896.14 651.991 893.84 650.231 892.28C648.471 890.68 645.851 889.88 642.371 889.88H630.371V908.42ZM665.953 929.36C665.393 929.36 664.953 929.2 664.633 928.88C664.313 928.52 664.153 928.04 664.153 927.44V888.62C664.153 887.98 664.313 887.5 664.633 887.18C664.993 886.86 665.453 886.7 666.013 886.7H680.113C684.593 886.7 688.033 887.74 690.433 889.82C692.833 891.9 694.033 894.86 694.033 898.7C694.033 901.18 693.493 903.32 692.413 905.12C691.333 906.88 689.733 908.22 687.613 909.14C685.533 910.06 683.033 910.52 680.113 910.52L680.773 909.74H681.613C683.133 909.74 684.453 910.14 685.573 910.94C686.733 911.74 687.773 913.04 688.693 914.84L695.053 926.66C695.333 927.1 695.453 927.54 695.413 927.98C695.413 928.38 695.273 928.72 694.993 929C694.713 929.24 694.353 929.36 693.913 929.36C693.393 929.36 692.953 929.24 692.593 929C692.273 928.76 691.993 928.42 691.753 927.98L685.033 915.44C683.993 913.52 682.833 912.26 681.553 911.66C680.273 911.02 678.553 910.7 676.393 910.7H667.813V927.44C667.813 928.04 667.653 928.52 667.333 928.88C667.053 929.2 666.593 929.36 665.953 929.36ZM667.813 907.58H679.633C683.193 907.58 685.853 906.84 687.613 905.36C689.413 903.84 690.313 901.62 690.313 898.7C690.313 895.82 689.413 893.64 687.613 892.16C685.853 890.64 683.193 889.88 679.633 889.88H667.813V907.58ZM720.748 929.48C716.908 929.48 713.568 928.6 710.728 926.84C707.888 925.08 705.688 922.58 704.128 919.34C702.608 916.1 701.848 912.26 701.848 907.82C701.848 904.46 702.268 901.46 703.108 898.82C703.988 896.14 705.248 893.88 706.888 892.04C708.528 890.16 710.508 888.72 712.828 887.72C715.188 886.72 717.828 886.22 720.748 886.22C724.668 886.22 728.048 887.1 730.888 888.86C733.728 890.58 735.908 893.06 737.428 896.3C738.948 899.5 739.708 903.32 739.708 907.76C739.708 911.12 739.268 914.14 738.388 916.82C737.508 919.5 736.248 921.78 734.608 923.66C732.968 925.54 730.968 926.98 728.608 927.98C726.288 928.98 723.668 929.48 720.748 929.48ZM720.748 926.12C723.948 926.12 726.668 925.4 728.908 923.96C731.148 922.52 732.848 920.44 734.008 917.72C735.208 915 735.808 911.7 735.808 907.82C735.808 902.02 734.488 897.54 731.848 894.38C729.248 891.18 725.548 889.58 720.748 889.58C717.588 889.58 714.888 890.3 712.648 891.74C710.408 893.18 708.688 895.26 707.488 897.98C706.328 900.7 705.748 903.98 705.748 907.82C705.748 913.58 707.068 918.08 709.708 921.32C712.348 924.52 716.028 926.12 720.748 926.12ZM758.66 929.36C758.06 929.36 757.6 929.2 757.28 928.88C756.96 928.52 756.8 928.04 756.8 927.44V890H742.46C741.9 890 741.46 889.84 741.14 889.52C740.82 889.2 740.66 888.8 740.66 888.32C740.66 887.8 740.82 887.4 741.14 887.12C741.46 886.84 741.9 886.7 742.46 886.7H774.92C775.48 886.7 775.9 886.84 776.18 887.12C776.5 887.4 776.66 887.8 776.66 888.32C776.66 888.84 776.5 889.26 776.18 889.58C775.9 889.86 775.48 890 774.92 890H760.52V927.44C760.52 928.04 760.36 928.52 760.04 928.88C759.76 929.2 759.3 929.36 758.66 929.36ZM796.51 929.48C792.67 929.48 789.33 928.6 786.49 926.84C783.65 925.08 781.45 922.58 779.89 919.34C778.37 916.1 777.61 912.26 777.61 907.82C777.61 904.46 778.03 901.46 778.87 898.82C779.75 896.14 781.01 893.88 782.65 892.04C784.29 890.16 786.27 888.72 788.59 887.72C790.95 886.72 793.59 886.22 796.51 886.22C800.43 886.22 803.81 887.1 806.65 888.86C809.49 890.58 811.67 893.06 813.19 896.3C814.71 899.5 815.47 903.32 815.47 907.76C815.47 911.12 815.03 914.14 814.15 916.82C813.27 919.5 812.01 921.78 810.37 923.66C808.73 925.54 806.73 926.98 804.37 927.98C802.05 928.98 799.43 929.48 796.51 929.48ZM796.51 926.12C799.71 926.12 802.43 925.4 804.67 923.96C806.91 922.52 808.61 920.44 809.77 917.72C810.97 915 811.57 911.7 811.57 907.82C811.57 902.02 810.25 897.54 807.61 894.38C805.01 891.18 801.31 889.58 796.51 889.58C793.35 889.58 790.65 890.3 788.41 891.74C786.17 893.18 784.45 895.26 783.25 897.98C782.09 900.7 781.51 903.98 781.51 907.82C781.51 913.58 782.83 918.08 785.47 921.32C788.11 924.52 791.79 926.12 796.51 926.12ZM842.457 929.48C838.417 929.48 834.957 928.62 832.077 926.9C829.197 925.14 826.977 922.64 825.417 919.4C823.897 916.16 823.137 912.3 823.137 907.82C823.137 904.46 823.557 901.46 824.397 898.82C825.277 896.14 826.537 893.88 828.177 892.04C829.857 890.16 831.897 888.72 834.297 887.72C836.737 886.72 839.457 886.22 842.457 886.22C845.097 886.22 847.557 886.6 849.837 887.36C852.117 888.12 854.077 889.24 855.717 890.72C856.117 891.08 856.377 891.46 856.497 891.86C856.617 892.26 856.617 892.64 856.497 893C856.417 893.32 856.237 893.6 855.957 893.84C855.677 894.04 855.337 894.14 854.937 894.14C854.577 894.1 854.177 893.9 853.737 893.54C852.217 892.22 850.517 891.24 848.637 890.6C846.797 889.96 844.757 889.64 842.517 889.64C839.197 889.64 836.377 890.36 834.057 891.8C831.777 893.2 830.037 895.26 828.837 897.98C827.677 900.7 827.097 903.98 827.097 907.82C827.097 911.7 827.677 915 828.837 917.72C830.037 920.44 831.777 922.52 834.057 923.96C836.377 925.36 839.197 926.06 842.517 926.06C844.717 926.06 846.757 925.74 848.637 925.1C850.517 924.42 852.237 923.42 853.797 922.1C854.237 921.74 854.637 921.56 854.997 921.56C855.397 921.56 855.717 921.68 855.957 921.92C856.237 922.12 856.437 922.4 856.557 922.76C856.677 923.08 856.677 923.42 856.557 923.78C856.477 924.14 856.257 924.48 855.897 924.8C854.177 926.36 852.177 927.54 849.897 928.34C847.657 929.1 845.177 929.48 842.457 929.48ZM881.002 929.48C877.162 929.48 873.822 928.6 870.982 926.84C868.142 925.08 865.942 922.58 864.382 919.34C862.862 916.1 862.102 912.26 862.102 907.82C862.102 904.46 862.522 901.46 863.362 898.82C864.242 896.14 865.502 893.88 867.142 892.04C868.782 890.16 870.762 888.72 873.082 887.72C875.442 886.72 878.082 886.22 881.002 886.22C884.922 886.22 888.302 887.1 891.142 888.86C893.982 890.58 896.162 893.06 897.682 896.3C899.202 899.5 899.962 903.32 899.962 907.76C899.962 911.12 899.522 914.14 898.642 916.82C897.762 919.5 896.502 921.78 894.862 923.66C893.222 925.54 891.222 926.98 888.862 927.98C886.542 928.98 883.922 929.48 881.002 929.48ZM881.002 926.12C884.202 926.12 886.922 925.4 889.162 923.96C891.402 922.52 893.102 920.44 894.262 917.72C895.462 915 896.062 911.7 896.062 907.82C896.062 902.02 894.742 897.54 892.102 894.38C889.502 891.18 885.802 889.58 881.002 889.58C877.842 889.58 875.142 890.3 872.902 891.74C870.662 893.18 868.942 895.26 867.742 897.98C866.582 900.7 866.002 903.98 866.002 907.82C866.002 913.58 867.322 918.08 869.962 921.32C872.602 924.52 876.282 926.12 881.002 926.12ZM911.169 929C910.609 929 910.149 928.84 909.789 928.52C909.469 928.16 909.309 927.68 909.309 927.08V888.32C909.309 887.68 909.469 887.2 909.789 886.88C910.109 886.56 910.549 886.4 911.109 886.4C911.709 886.4 912.169 886.56 912.489 886.88C912.809 887.2 912.969 887.68 912.969 888.32V925.7H933.609C934.209 925.7 934.649 925.84 934.929 926.12C935.249 926.4 935.409 926.8 935.409 927.32C935.409 927.88 935.249 928.3 934.929 928.58C934.649 928.86 934.209 929 933.609 929H911.169Z" fill="white"/>
<path d="M323.16 61.48C319.12 61.48 315.66 60.62 312.78 58.9C309.9 57.14 307.68 54.64 306.12 51.4C304.6 48.16 303.84 44.3 303.84 39.82C303.84 36.46 304.26 33.46 305.1 30.82C305.98 28.14 307.24 25.88 308.88 24.04C310.56 22.16 312.6 20.72 315 19.72C317.44 18.72 320.16 18.22 323.16 18.22C325.8 18.22 328.26 18.6 330.54 19.36C332.82 20.12 334.78 21.24 336.42 22.72C336.82 23.08 337.08 23.46 337.2 23.86C337.32 24.26 337.32 24.64 337.2 25C337.12 25.32 336.94 25.6 336.66 25.84C336.38 26.04 336.04 26.14 335.64 26.14C335.28 26.1 334.88 25.9 334.44 25.54C332.92 24.22 331.22 23.24 329.34 22.6C327.5 21.96 325.46 21.64 323.22 21.64C319.9 21.64 317.08 22.36 314.76 23.8C312.48 25.2 310.74 27.26 309.54 29.98C308.38 32.7 307.8 35.98 307.8 39.82C307.8 43.7 308.38 47 309.54 49.72C310.74 52.44 312.48 54.52 314.76 55.96C317.08 57.36 319.9 58.06 323.22 58.06C325.42 58.06 327.46 57.74 329.34 57.1C331.22 56.42 332.94 55.42 334.5 54.1C334.94 53.74 335.34 53.56 335.7 53.56C336.1 53.56 336.42 53.68 336.66 53.92C336.94 54.12 337.14 54.4 337.26 54.76C337.38 55.08 337.38 55.42 337.26 55.78C337.18 56.14 336.96 56.48 336.6 56.8C334.88 58.36 332.88 59.54 330.6 60.34C328.36 61.1 325.88 61.48 323.16 61.48ZM361.705 61.48C357.865 61.48 354.525 60.6 351.685 58.84C348.845 57.08 346.645 54.58 345.085 51.34C343.565 48.1 342.805 44.26 342.805 39.82C342.805 36.46 343.225 33.46 344.065 30.82C344.945 28.14 346.205 25.88 347.845 24.04C349.485 22.16 351.465 20.72 353.785 19.72C356.145 18.72 358.785 18.22 361.705 18.22C365.625 18.22 369.005 19.1 371.845 20.86C374.685 22.58 376.865 25.06 378.385 28.3C379.905 31.5 380.665 35.32 380.665 39.76C380.665 43.12 380.225 46.14 379.345 48.82C378.465 51.5 377.205 53.78 375.565 55.66C373.925 57.54 371.925 58.98 369.565 59.98C367.245 60.98 364.625 61.48 361.705 61.48ZM361.705 58.12C364.905 58.12 367.625 57.4 369.865 55.96C372.105 54.52 373.805 52.44 374.965 49.72C376.165 47 376.765 43.7 376.765 39.82C376.765 34.02 375.445 29.54 372.805 26.38C370.205 23.18 366.505 21.58 361.705 21.58C358.545 21.58 355.845 22.3 353.605 23.74C351.365 25.18 349.645 27.26 348.445 29.98C347.285 32.7 346.705 35.98 346.705 39.82C346.705 45.58 348.025 50.08 350.665 53.32C353.305 56.52 356.985 58.12 361.705 58.12ZM391.812 61.36C391.292 61.36 390.872 61.2 390.552 60.88C390.272 60.56 390.132 60.12 390.132 59.56V20.14C390.132 19.54 390.272 19.1 390.552 18.82C390.872 18.5 391.272 18.34 391.752 18.34C392.272 18.34 392.672 18.44 392.952 18.64C393.232 18.84 393.492 19.16 393.732 19.6L410.892 52.18H409.212L426.252 19.6C426.532 19.16 426.792 18.84 427.032 18.64C427.312 18.44 427.712 18.34 428.232 18.34C428.712 18.34 429.092 18.5 429.372 18.82C429.692 19.1 429.852 19.54 429.852 20.14V59.56C429.852 60.12 429.712 60.56 429.432 60.88C429.152 61.2 428.732 61.36 428.172 61.36C427.612 61.36 427.172 61.2 426.852 60.88C426.572 60.56 426.432 60.12 426.432 59.56V23.14H427.872L411.792 53.62C411.592 54.02 411.372 54.32 411.132 54.52C410.892 54.72 410.552 54.82 410.112 54.82C409.632 54.82 409.252 54.72 408.972 54.52C408.732 54.28 408.512 53.98 408.312 53.62L392.052 23.08H393.492V59.56C393.492 60.12 393.352 60.56 393.072 60.88C392.792 61.2 392.372 61.36 391.812 61.36ZM442.73 61.36C442.17 61.36 441.73 61.2 441.41 60.88C441.09 60.52 440.93 60.04 440.93 59.44V20.26C440.93 19.62 441.09 19.14 441.41 18.82C441.73 18.5 442.17 18.34 442.73 18.34C443.33 18.34 443.79 18.5 444.11 18.82C444.43 19.14 444.59 19.62 444.59 20.26V59.44C444.59 60.04 444.43 60.52 444.11 60.88C443.83 61.2 443.37 61.36 442.73 61.36ZM457.377 61.36C456.817 61.36 456.377 61.2 456.057 60.88C455.777 60.56 455.637 60.1 455.637 59.5V20.26C455.637 19.62 455.777 19.14 456.057 18.82C456.337 18.5 456.717 18.34 457.197 18.34C457.717 18.34 458.097 18.42 458.337 18.58C458.577 18.74 458.837 19.04 459.117 19.48L486.717 56.62H485.337V20.14C485.337 19.54 485.477 19.1 485.757 18.82C486.077 18.5 486.517 18.34 487.077 18.34C487.597 18.34 487.997 18.5 488.277 18.82C488.597 19.1 488.757 19.54 488.757 20.14V59.5C488.757 60.1 488.617 60.56 488.337 60.88C488.097 61.2 487.737 61.36 487.257 61.36C486.817 61.36 486.457 61.26 486.177 61.06C485.897 60.9 485.597 60.62 485.277 60.22L457.737 23.08H459.057V59.5C459.057 60.1 458.897 60.56 458.577 60.88C458.297 61.2 457.897 61.36 457.377 61.36ZM518.597 61.48C514.157 61.48 510.417 60.64 507.377 58.96C504.337 57.24 502.037 54.76 500.477 51.52C498.917 48.28 498.137 44.38 498.137 39.82C498.137 36.46 498.577 33.46 499.457 30.82C500.337 28.14 501.597 25.88 503.237 24.04C504.917 22.16 506.957 20.72 509.357 19.72C511.797 18.72 514.557 18.22 517.637 18.22C520.317 18.22 522.857 18.6 525.257 19.36C527.657 20.12 529.737 21.32 531.497 22.96C531.857 23.28 532.077 23.62 532.157 23.98C532.237 24.3 532.217 24.64 532.097 25C531.977 25.32 531.777 25.6 531.497 25.84C531.257 26.04 530.957 26.16 530.597 26.2C530.277 26.2 529.917 26.06 529.517 25.78C527.877 24.3 526.057 23.24 524.057 22.6C522.097 21.96 519.937 21.64 517.577 21.64C514.257 21.64 511.437 22.36 509.117 23.8C506.797 25.2 505.037 27.26 503.837 29.98C502.637 32.7 502.037 35.98 502.037 39.82C502.037 45.78 503.417 50.32 506.177 53.44C508.937 56.56 513.097 58.12 518.657 58.12C520.737 58.12 522.737 57.92 524.657 57.52C526.577 57.12 528.377 56.56 530.057 55.84L529.157 58.36V42.46H519.677C519.117 42.46 518.677 42.32 518.357 42.04C518.077 41.72 517.937 41.32 517.937 40.84C517.937 40.36 518.077 40 518.357 39.76C518.677 39.48 519.117 39.34 519.677 39.34H530.777C531.337 39.34 531.757 39.5 532.037 39.82C532.317 40.1 532.457 40.5 532.457 41.02V57.16C532.457 57.64 532.377 58.04 532.217 58.36C532.097 58.68 531.857 58.92 531.497 59.08C529.897 59.76 527.897 60.34 525.497 60.82C523.137 61.26 520.837 61.48 518.597 61.48ZM571.435 61.48C569.515 61.48 567.655 61.32 565.855 61C564.055 60.68 562.375 60.2 560.815 59.56C559.295 58.88 557.915 58.06 556.675 57.1C556.275 56.82 555.995 56.5 555.835 56.14C555.715 55.74 555.695 55.38 555.775 55.06C555.895 54.7 556.075 54.4 556.315 54.16C556.595 53.92 556.915 53.8 557.275 53.8C557.635 53.76 558.015 53.88 558.415 54.16C560.255 55.52 562.195 56.52 564.235 57.16C566.315 57.8 568.715 58.12 571.435 58.12C575.235 58.12 578.075 57.38 579.955 55.9C581.875 54.42 582.835 52.48 582.835 50.08C582.835 48.08 582.135 46.52 580.735 45.4C579.375 44.28 577.115 43.4 573.955 42.76L567.895 41.5C564.095 40.74 561.275 39.46 559.435 37.66C557.595 35.86 556.675 33.46 556.675 30.46C556.675 28.62 557.035 26.96 557.755 25.48C558.475 23.96 559.495 22.66 560.815 21.58C562.135 20.5 563.695 19.68 565.495 19.12C567.335 18.52 569.355 18.22 571.555 18.22C574.155 18.22 576.535 18.58 578.695 19.3C580.895 20.02 582.895 21.16 584.695 22.72C585.055 23 585.295 23.34 585.415 23.74C585.535 24.1 585.535 24.46 585.415 24.82C585.295 25.14 585.115 25.4 584.875 25.6C584.635 25.8 584.335 25.92 583.975 25.96C583.615 25.96 583.235 25.8 582.835 25.48C581.155 24.12 579.395 23.14 577.555 22.54C575.755 21.9 573.755 21.58 571.555 21.58C569.315 21.58 567.355 21.94 565.675 22.66C564.035 23.38 562.755 24.4 561.835 25.72C560.915 27.04 560.455 28.6 560.455 30.4C560.455 32.48 561.095 34.14 562.375 35.38C563.655 36.62 565.715 37.52 568.555 38.08L574.675 39.34C578.715 40.18 581.715 41.44 583.675 43.12C585.635 44.76 586.615 47.02 586.615 49.9C586.615 51.62 586.255 53.2 585.535 54.64C584.855 56.04 583.855 57.26 582.535 58.3C581.215 59.34 579.615 60.14 577.735 60.7C575.895 61.22 573.795 61.48 571.435 61.48ZM611.9 61.48C608.06 61.48 604.72 60.6 601.88 58.84C599.04 57.08 596.84 54.58 595.28 51.34C593.76 48.1 593 44.26 593 39.82C593 36.46 593.42 33.46 594.26 30.82C595.14 28.14 596.4 25.88 598.04 24.04C599.68 22.16 601.66 20.72 603.98 19.72C606.34 18.72 608.98 18.22 611.9 18.22C615.82 18.22 619.2 19.1 622.04 20.86C624.88 22.58 627.06 25.06 628.58 28.3C630.1 31.5 630.86 35.32 630.86 39.76C630.86 43.12 630.42 46.14 629.54 48.82C628.66 51.5 627.4 53.78 625.76 55.66C624.12 57.54 622.12 58.98 619.76 59.98C617.44 60.98 614.82 61.48 611.9 61.48ZM611.9 58.12C615.1 58.12 617.82 57.4 620.06 55.96C622.3 54.52 624 52.44 625.16 49.72C626.36 47 626.96 43.7 626.96 39.82C626.96 34.02 625.64 29.54 623 26.38C620.4 23.18 616.7 21.58 611.9 21.58C608.74 21.58 606.04 22.3 603.8 23.74C601.56 25.18 599.84 27.26 598.64 29.98C597.48 32.7 596.9 35.98 596.9 39.82C596.9 45.58 598.22 50.08 600.86 53.32C603.5 56.52 607.18 58.12 611.9 58.12ZM657.428 61.48C653.588 61.48 650.248 60.6 647.408 58.84C644.568 57.08 642.368 54.58 640.808 51.34C639.288 48.1 638.528 44.26 638.528 39.82C638.528 36.46 638.948 33.46 639.788 30.82C640.668 28.14 641.928 25.88 643.568 24.04C645.208 22.16 647.188 20.72 649.508 19.72C651.868 18.72 654.508 18.22 657.428 18.22C661.348 18.22 664.728 19.1 667.568 20.86C670.408 22.58 672.588 25.06 674.108 28.3C675.628 31.5 676.388 35.32 676.388 39.76C676.388 43.12 675.948 46.14 675.068 48.82C674.188 51.5 672.928 53.78 671.288 55.66C669.648 57.54 667.648 58.98 665.288 59.98C662.968 60.98 660.348 61.48 657.428 61.48ZM657.428 58.12C660.628 58.12 663.348 57.4 665.588 55.96C667.828 54.52 669.528 52.44 670.688 49.72C671.888 47 672.488 43.7 672.488 39.82C672.488 34.02 671.168 29.54 668.528 26.38C665.928 23.18 662.228 21.58 657.428 21.58C654.268 21.58 651.568 22.3 649.328 23.74C647.088 25.18 645.368 27.26 644.168 29.98C643.008 32.7 642.428 35.98 642.428 39.82C642.428 45.58 643.748 50.08 646.388 53.32C649.028 56.52 652.708 58.12 657.428 58.12ZM687.475 61.36C686.915 61.36 686.475 61.2 686.155 60.88C685.875 60.56 685.735 60.1 685.735 59.5V20.26C685.735 19.62 685.875 19.14 686.155 18.82C686.435 18.5 686.815 18.34 687.295 18.34C687.815 18.34 688.195 18.42 688.435 18.58C688.675 18.74 688.935 19.04 689.215 19.48L716.815 56.62H715.435V20.14C715.435 19.54 715.575 19.1 715.855 18.82C716.175 18.5 716.615 18.34 717.175 18.34C717.695 18.34 718.095 18.5 718.375 18.82C718.695 19.1 718.855 19.54 718.855 20.14V59.5C718.855 60.1 718.715 60.56 718.435 60.88C718.195 61.2 717.835 61.36 717.355 61.36C716.915 61.36 716.555 61.26 716.275 61.06C715.995 60.9 715.695 60.62 715.375 60.22L687.835 23.08H689.155V59.5C689.155 60.1 688.995 60.56 688.675 60.88C688.395 61.2 687.995 61.36 687.475 61.36Z" fill="white"/>
</svg>
