<svg width="941" height="789" viewBox="0 0 941 789" fill="none" xmlns="http://www.w3.org/2000/svg">
<path fill-rule="evenodd" clip-rule="evenodd" d="M85.4667 144.795C75.4486 144.795 66.1074 142.97 57.4431 139.319C50.7684 136.403 44.7365 132.644 39.3473 128.043L25.9735 141.278H0.957031L27.7355 115.319C24.4521 110.717 21.6966 105.738 19.4691 100.383C15.9492 91.5952 14.1893 82.1991 14.1893 72.1946C14.1893 62.0549 15.9492 52.6588 19.4691 44.0063C23.1243 35.2185 28.1334 27.5124 34.4962 20.8878C40.9944 14.2632 48.508 9.12572 57.0369 5.47543C65.7012 1.82515 75.0424 0 85.0605 0C95.0786 0 104.352 1.82515 112.881 5.47543C119.255 8.161 125.044 11.6515 130.246 15.947L145.17 1.48004L166.9 1.48005L166.897 1.47156H187.61L230.373 110.937L273.508 1.47156H294.018L237.159 142.21H223.35L166.998 1.72268L141.185 27.266C145.094 32.3247 148.317 37.9048 150.855 44.0063C154.51 52.794 156.338 62.2577 156.338 72.3974C156.338 82.4019 154.51 91.798 150.855 100.586C147.2 109.373 142.123 117.08 135.625 123.704C129.262 130.329 121.748 135.534 113.084 139.319C104.555 142.97 95.3494 144.795 85.4667 144.795ZM64.3474 122.487C59.9304 120.57 55.922 118.142 52.3222 115.204L127.667 40.6435C129.674 43.7338 131.379 47.0854 132.782 50.6985C135.354 57.1879 136.64 64.3532 136.64 72.1946C136.64 82.7399 134.406 92.136 129.939 100.383C125.471 108.495 119.379 114.916 111.663 119.648C104.081 124.245 95.214 126.543 85.0605 126.543C77.6146 126.543 70.7103 125.191 64.3474 122.487ZM116.958 28.8282L41.3609 102.111C39.9148 99.6 38.6419 96.9285 37.5423 94.0963C35.1054 87.3365 33.887 80.0359 33.887 72.1946C33.887 61.6493 36.0531 52.3208 40.3852 44.209C44.8528 36.0973 50.8772 29.7431 58.4584 25.1464C66.1751 20.5498 75.0424 18.2514 85.0605 18.2514C92.6418 18.2514 99.5461 19.6034 105.774 22.3073C109.85 23.9886 113.578 26.1622 116.958 28.8282ZM299.675 1.47156V142.21H312.672H318.764H393.493V124.77H318.764V18.9118H392.478V1.47156H318.764H312.672H299.675ZM443.039 80.9667V64.946H463.955C472.213 64.946 478.576 62.8505 483.044 58.6594C487.511 54.4683 489.745 48.7901 489.745 41.6247C489.745 34.8649 487.511 29.2543 483.044 24.7928C478.711 20.3314 472.416 18.1006 464.158 18.1006H432.073V142.21H412.985V1.47156H425.778H432.073H464.767C473.702 1.47156 481.487 3.2291 488.12 6.74419C494.754 10.1241 499.831 14.7883 503.35 20.737C507.006 26.6856 508.833 33.513 508.833 41.2191C508.833 49.1957 507.006 56.1583 503.35 62.1069C499.831 68.0555 494.754 72.7198 488.12 76.0997C482.238 78.977 475.451 80.5785 467.758 80.9043L518.378 142.21H494.212L443.039 80.9667ZM607.25 20.595H580.741V142.767H561.652V20.595H513.07V1.46477H633.738L607.25 20.595ZM655.832 1.55014V1.47156H674.92V142.21H655.832V26.0331L626.371 48.3278L614.59 32.7601L655.832 1.55014ZM694.051 1.47156V142.21H713.139V43.143L755.987 113.414H769.391L812.036 43.4762V142.21H831.125V1.47156H817.722L762.587 91.9245L707.453 1.47156H694.051ZM847.093 142.21V1.47156H860.09H866.181H939.896V18.9118H866.181V124.77H940.911V142.21H866.181H860.09H847.093ZM885.35 79.464V61.9041H939.896V79.464H885.35ZM392.392 63.265H332.058V80.9237H392.392V63.265Z" fill="white"/>
<path d="M306.65 771.55C302.85 771.55 299.6 770.8 296.9 769.3C294.2 767.8 292.117 765.7 290.65 763C289.217 760.267 288.5 757.05 288.5 753.35C288.5 750.583 288.9 748.1 289.7 745.9C290.533 743.667 291.733 741.767 293.3 740.2C294.867 738.6 296.767 737.367 299 736.5C301.267 735.633 303.817 735.2 306.65 735.2C308.317 735.2 310 735.417 311.7 735.85C313.433 736.25 314.933 736.833 316.2 737.6C317.033 738.067 317.6 738.65 317.9 739.35C318.2 740.05 318.283 740.75 318.15 741.45C318.05 742.15 317.767 742.75 317.3 743.25C316.867 743.75 316.317 744.067 315.65 744.2C314.983 744.333 314.233 744.183 313.4 743.75C312.4 743.15 311.35 742.717 310.25 742.45C309.15 742.183 308.033 742.05 306.9 742.05C304.667 742.05 302.783 742.5 301.25 743.4C299.75 744.267 298.617 745.533 297.85 747.2C297.083 748.867 296.7 750.917 296.7 753.35C296.7 755.75 297.083 757.8 297.85 759.5C298.617 761.2 299.75 762.5 301.25 763.4C302.783 764.267 304.667 764.7 306.9 764.7C307.967 764.7 309.05 764.567 310.15 764.3C311.283 764.033 312.367 763.617 313.4 763.05C314.267 762.617 315.033 762.467 315.7 762.6C316.4 762.7 316.967 763 317.4 763.5C317.867 763.967 318.15 764.533 318.25 765.2C318.383 765.867 318.317 766.533 318.05 767.2C317.783 767.867 317.283 768.433 316.55 768.9C315.317 769.733 313.8 770.383 312 770.85C310.2 771.317 308.417 771.55 306.65 771.55ZM338.908 771.55C335.441 771.55 332.391 770.8 329.758 769.3C327.158 767.767 325.124 765.633 323.658 762.9C322.224 760.167 321.508 756.983 321.508 753.35C321.508 750.583 321.908 748.1 322.708 745.9C323.541 743.667 324.724 741.767 326.258 740.2C327.791 738.6 329.624 737.367 331.758 736.5C333.924 735.633 336.308 735.2 338.908 735.2C342.441 735.2 345.508 735.95 348.108 737.45C350.708 738.95 352.724 741.067 354.158 743.8C355.624 746.5 356.358 749.667 356.358 753.3C356.358 756.067 355.941 758.567 355.108 760.8C354.274 763.033 353.091 764.95 351.558 766.55C350.024 768.15 348.191 769.383 346.058 770.25C343.924 771.117 341.541 771.55 338.908 771.55ZM338.908 764.95C340.874 764.95 342.541 764.5 343.908 763.6C345.308 762.667 346.374 761.333 347.108 759.6C347.874 757.833 348.258 755.75 348.258 753.35C348.258 749.683 347.441 746.85 345.808 744.85C344.174 742.817 341.874 741.8 338.908 741.8C336.974 741.8 335.308 742.25 333.908 743.15C332.508 744.05 331.441 745.367 330.708 747.1C329.974 748.833 329.608 750.917 329.608 753.35C329.608 756.983 330.424 759.833 332.058 761.9C333.691 763.933 335.974 764.95 338.908 764.95ZM365.953 771.45C364.819 771.45 363.953 771.133 363.353 770.5C362.753 769.867 362.453 768.983 362.453 767.85V738.9C362.453 737.767 362.769 736.883 363.403 736.25C364.069 735.617 364.969 735.3 366.103 735.3C367.103 735.3 367.886 735.5 368.453 735.9C369.053 736.267 369.603 736.917 370.103 737.85L381.653 758.95H379.953L391.503 737.85C392.003 736.917 392.536 736.267 393.103 735.9C393.703 735.5 394.486 735.3 395.453 735.3C396.586 735.3 397.453 735.617 398.053 736.25C398.686 736.883 399.003 737.767 399.003 738.9V767.85C399.003 768.983 398.703 769.867 398.103 770.5C397.503 771.133 396.636 771.45 395.503 771.45C394.369 771.45 393.486 771.133 392.853 770.5C392.253 769.867 391.953 768.983 391.953 767.85V747.6H393.053L383.753 764.25C383.353 764.883 382.919 765.367 382.453 765.7C382.019 766 381.436 766.15 380.703 766.15C379.969 766.15 379.369 765.983 378.903 765.65C378.436 765.317 378.019 764.85 377.653 764.25L368.253 747.55H369.453V767.85C369.453 768.983 369.153 769.867 368.553 770.5C367.986 771.133 367.119 771.45 365.953 771.45ZM410.052 771.45C408.785 771.45 407.818 771.1 407.152 770.4C406.485 769.7 406.152 768.717 406.152 767.45V739.3C406.152 738.033 406.485 737.05 407.152 736.35C407.818 735.65 408.785 735.3 410.052 735.3C411.285 735.3 412.235 735.65 412.902 736.35C413.568 737.05 413.902 738.033 413.902 739.3V767.45C413.902 768.717 413.568 769.7 412.902 770.4C412.268 771.1 411.318 771.45 410.052 771.45ZM424.595 771.45C423.429 771.45 422.529 771.133 421.895 770.5C421.295 769.833 420.995 768.9 420.995 767.7V739.2C420.995 737.933 421.295 736.967 421.895 736.3C422.529 735.633 423.362 735.3 424.395 735.3C425.295 735.3 425.979 735.483 426.445 735.85C426.945 736.183 427.512 736.75 428.145 737.55L445.695 759.9H444.345V739C444.345 737.833 444.645 736.933 445.245 736.3C445.879 735.633 446.779 735.3 447.945 735.3C449.112 735.3 449.995 735.633 450.595 736.3C451.229 736.933 451.545 737.833 451.545 739V767.85C451.545 768.95 451.262 769.833 450.695 770.5C450.129 771.133 449.362 771.45 448.395 771.45C447.462 771.45 446.712 771.267 446.145 770.9C445.612 770.533 445.029 769.95 444.395 769.15L426.895 746.8H428.195V767.7C428.195 768.9 427.895 769.833 427.295 770.5C426.695 771.133 425.795 771.45 424.595 771.45ZM476.092 771.55C472.125 771.55 468.758 770.8 465.992 769.3C463.258 767.8 461.175 765.7 459.742 763C458.308 760.3 457.592 757.133 457.592 753.5C457.592 750.7 458.008 748.183 458.842 745.95C459.708 743.683 460.942 741.767 462.542 740.2C464.175 738.6 466.142 737.367 468.442 736.5C470.775 735.633 473.408 735.2 476.342 735.2C478.142 735.2 479.942 735.4 481.742 735.8C483.542 736.2 485.275 736.867 486.942 737.8C487.642 738.2 488.108 738.717 488.342 739.35C488.608 739.95 488.675 740.6 488.542 741.3C488.442 741.967 488.175 742.567 487.742 743.1C487.342 743.6 486.808 743.933 486.142 744.1C485.508 744.233 484.775 744.1 483.942 743.7C482.842 743.1 481.675 742.667 480.442 742.4C479.208 742.1 477.858 741.95 476.392 741.95C474.025 741.95 472.042 742.4 470.442 743.3C468.842 744.167 467.642 745.467 466.842 747.2C466.075 748.9 465.692 751 465.692 753.5C465.692 757.267 466.592 760.117 468.392 762.05C470.225 763.983 472.925 764.95 476.492 764.95C477.692 764.95 478.925 764.833 480.192 764.6C481.458 764.367 482.708 764.033 483.942 763.6L482.492 766.75V757.15H477.992C476.992 757.15 476.225 756.9 475.692 756.4C475.158 755.9 474.892 755.217 474.892 754.35C474.892 753.45 475.158 752.767 475.692 752.3C476.225 751.8 476.992 751.55 477.992 751.55H485.842C486.842 751.55 487.592 751.817 488.092 752.35C488.625 752.883 488.892 753.65 488.892 754.65V766.25C488.892 767.117 488.725 767.85 488.392 768.45C488.058 769.05 487.492 769.483 486.692 769.75C485.192 770.283 483.508 770.717 481.642 771.05C479.775 771.383 477.925 771.55 476.092 771.55ZM522.316 771.55C520.916 771.55 519.483 771.433 518.016 771.2C516.583 771 515.199 770.7 513.866 770.3C512.566 769.9 511.399 769.4 510.366 768.8C509.633 768.4 509.116 767.883 508.816 767.25C508.516 766.583 508.399 765.917 508.466 765.25C508.566 764.583 508.816 764 509.216 763.5C509.649 762.967 510.183 762.633 510.816 762.5C511.483 762.333 512.216 762.45 513.016 762.85C514.383 763.617 515.866 764.183 517.466 764.55C519.099 764.917 520.716 765.1 522.316 765.1C524.749 765.1 526.483 764.733 527.516 764C528.549 763.233 529.066 762.283 529.066 761.15C529.066 760.183 528.699 759.417 527.966 758.85C527.233 758.283 525.949 757.8 524.116 757.4L518.466 756.2C515.266 755.533 512.883 754.4 511.316 752.8C509.783 751.167 509.016 749.033 509.016 746.4C509.016 744.733 509.366 743.217 510.066 741.85C510.766 740.483 511.749 739.3 513.016 738.3C514.283 737.3 515.783 736.533 517.516 736C519.283 735.467 521.216 735.2 523.316 735.2C525.183 735.2 527.016 735.433 528.816 735.9C530.616 736.333 532.199 736.983 533.566 737.85C534.233 738.25 534.683 738.767 534.916 739.4C535.183 740 535.266 740.617 535.166 741.25C535.099 741.85 534.849 742.383 534.416 742.85C534.016 743.317 533.499 743.617 532.866 743.75C532.233 743.883 531.466 743.733 530.566 743.3C529.466 742.733 528.299 742.317 527.066 742.05C525.833 741.783 524.566 741.65 523.266 741.65C521.866 741.65 520.666 741.833 519.666 742.2C518.699 742.567 517.949 743.083 517.416 743.75C516.916 744.417 516.666 745.183 516.666 746.05C516.666 747.017 517.016 747.8 517.716 748.4C518.416 749 519.633 749.483 521.366 749.85L527.016 751.05C530.283 751.75 532.716 752.883 534.316 754.45C535.916 755.983 536.716 758.017 536.716 760.55C536.716 762.217 536.383 763.733 535.716 765.1C535.049 766.433 534.083 767.583 532.816 768.55C531.549 769.517 530.033 770.267 528.266 770.8C526.499 771.3 524.516 771.55 522.316 771.55ZM558.097 771.55C554.631 771.55 551.581 770.8 548.947 769.3C546.347 767.767 544.314 765.633 542.847 762.9C541.414 760.167 540.697 756.983 540.697 753.35C540.697 750.583 541.097 748.1 541.897 745.9C542.731 743.667 543.914 741.767 545.447 740.2C546.981 738.6 548.814 737.367 550.947 736.5C553.114 735.633 555.497 735.2 558.097 735.2C561.631 735.2 564.697 735.95 567.297 737.45C569.897 738.95 571.914 741.067 573.347 743.8C574.814 746.5 575.547 749.667 575.547 753.3C575.547 756.067 575.131 758.567 574.297 760.8C573.464 763.033 572.281 764.95 570.747 766.55C569.214 768.15 567.381 769.383 565.247 770.25C563.114 771.117 560.731 771.55 558.097 771.55ZM558.097 764.95C560.064 764.95 561.731 764.5 563.097 763.6C564.497 762.667 565.564 761.333 566.297 759.6C567.064 757.833 567.447 755.75 567.447 753.35C567.447 749.683 566.631 746.85 564.997 744.85C563.364 742.817 561.064 741.8 558.097 741.8C556.164 741.8 554.497 742.25 553.097 743.15C551.697 744.05 550.631 745.367 549.897 747.1C549.164 748.833 548.797 750.917 548.797 753.35C548.797 756.983 549.614 759.833 551.247 761.9C552.881 763.933 555.164 764.95 558.097 764.95ZM597.892 771.55C594.426 771.55 591.376 770.8 588.742 769.3C586.142 767.767 584.109 765.633 582.642 762.9C581.209 760.167 580.492 756.983 580.492 753.35C580.492 750.583 580.892 748.1 581.692 745.9C582.526 743.667 583.709 741.767 585.242 740.2C586.776 738.6 588.609 737.367 590.742 736.5C592.909 735.633 595.292 735.2 597.892 735.2C601.426 735.2 604.492 735.95 607.092 737.45C609.692 738.95 611.709 741.067 613.142 743.8C614.609 746.5 615.342 749.667 615.342 753.3C615.342 756.067 614.926 758.567 614.092 760.8C613.259 763.033 612.076 764.95 610.542 766.55C609.009 768.15 607.176 769.383 605.042 770.25C602.909 771.117 600.526 771.55 597.892 771.55ZM597.892 764.95C599.859 764.95 601.526 764.5 602.892 763.6C604.292 762.667 605.359 761.333 606.092 759.6C606.859 757.833 607.242 755.75 607.242 753.35C607.242 749.683 606.426 746.85 604.792 744.85C603.159 742.817 600.859 741.8 597.892 741.8C595.959 741.8 594.292 742.25 592.892 743.15C591.492 744.05 590.426 745.367 589.692 747.1C588.959 748.833 588.592 750.917 588.592 753.35C588.592 756.983 589.409 759.833 591.042 761.9C592.676 763.933 594.959 764.95 597.892 764.95ZM624.937 771.45C623.77 771.45 622.87 771.133 622.237 770.5C621.637 769.833 621.337 768.9 621.337 767.7V739.2C621.337 737.933 621.637 736.967 622.237 736.3C622.87 735.633 623.704 735.3 624.737 735.3C625.637 735.3 626.32 735.483 626.787 735.85C627.287 736.183 627.854 736.75 628.487 737.55L646.037 759.9H644.687V739C644.687 737.833 644.987 736.933 645.587 736.3C646.22 735.633 647.12 735.3 648.287 735.3C649.454 735.3 650.337 735.633 650.937 736.3C651.57 736.933 651.887 737.833 651.887 739V767.85C651.887 768.95 651.604 769.833 651.037 770.5C650.47 771.133 649.704 771.45 648.737 771.45C647.804 771.45 647.054 771.267 646.487 770.9C645.954 770.533 645.37 769.95 644.737 769.15L627.237 746.8H628.537V767.7C628.537 768.9 628.237 769.833 627.637 770.5C627.037 771.133 626.137 771.45 624.937 771.45Z" fill="white"/>
<path d="M12.8045 196.324C11.6754 196.324 10.5703 196.228 9.48928 196.036C8.40823 195.844 7.39924 195.568 6.46233 195.207C5.54944 194.847 4.72064 194.39 3.97591 193.838C3.68763 193.622 3.48344 193.381 3.36332 193.117C3.26722 192.829 3.2432 192.553 3.29125 192.288C3.36332 192 3.48344 191.76 3.6516 191.568C3.84379 191.376 4.07201 191.267 4.33626 191.243C4.60052 191.219 4.8888 191.303 5.20111 191.496C6.28216 192.264 7.43528 192.829 8.66047 193.189C9.88566 193.526 11.267 193.694 12.8045 193.694C14.9666 193.694 16.5642 193.297 17.5972 192.505C18.6542 191.688 19.1827 190.619 19.1827 189.297C19.1827 188.216 18.7983 187.376 18.0296 186.775C17.2849 186.15 16.0236 185.658 14.2459 185.298L10.4983 184.541C8.24006 184.06 6.54641 183.28 5.41732 182.199C4.31224 181.094 3.7597 179.628 3.7597 177.802C3.7597 176.673 3.98793 175.652 4.44437 174.739C4.90081 173.802 5.53743 173.01 6.35423 172.361C7.17102 171.688 8.14397 171.172 9.27307 170.811C10.4022 170.451 11.6514 170.271 13.0207 170.271C14.5342 170.271 15.9396 170.487 17.2368 170.92C18.5581 171.328 19.7473 171.953 20.8043 172.793C21.0685 173.01 21.2487 173.262 21.3448 173.55C21.4409 173.814 21.4529 174.079 21.3808 174.343C21.3088 174.583 21.1766 174.787 20.9845 174.956C20.8163 175.124 20.5881 175.22 20.2998 175.244C20.0355 175.268 19.7352 175.172 19.3989 174.956C18.438 174.235 17.441 173.718 16.408 173.406C15.375 173.07 14.2339 172.902 12.9847 172.902C11.7114 172.902 10.6064 173.094 9.66945 173.478C8.75656 173.862 8.03586 174.427 7.50735 175.172C7.00286 175.892 6.75061 176.733 6.75061 177.694C6.75061 178.847 7.09895 179.76 7.79563 180.433C8.51633 181.106 9.68146 181.598 11.291 181.91L15.0387 182.703C17.465 183.208 19.2548 183.976 20.4079 185.009C21.585 186.018 22.1736 187.4 22.1736 189.153C22.1736 190.21 21.9574 191.183 21.525 192.072C21.0926 192.961 20.468 193.73 19.6512 194.378C18.8344 195.003 17.8494 195.483 16.6963 195.82C15.5432 196.156 14.2459 196.324 12.8045 196.324ZM28.2359 196.252C27.7555 196.252 27.3831 196.12 27.1189 195.856C26.8786 195.568 26.7585 195.183 26.7585 194.703V172.109C26.7585 171.604 26.8906 171.232 27.1549 170.992C27.4192 170.727 27.7915 170.595 28.272 170.595H36.8123C39.5269 170.595 41.617 171.268 43.0824 172.613C44.5478 173.935 45.2805 175.808 45.2805 178.235C45.2805 180.637 44.5478 182.511 43.0824 183.856C41.617 185.201 39.5269 185.874 36.8123 185.874H29.7134V194.703C29.7134 195.183 29.5933 195.568 29.353 195.856C29.1128 196.12 28.7404 196.252 28.2359 196.252ZM29.7134 183.388H36.4519C38.3978 183.388 39.8633 182.955 40.8482 182.09C41.8572 181.202 42.3617 179.916 42.3617 178.235C42.3617 176.529 41.8572 175.244 40.8482 174.379C39.8633 173.49 38.3978 173.046 36.4519 173.046H29.7134V183.388ZM59.9468 196.324C57.5925 196.324 55.5385 195.796 53.7848 194.739C52.0551 193.658 50.7098 192.144 49.7489 190.198C48.812 188.252 48.3435 185.946 48.3435 183.28C48.3435 181.262 48.6078 179.46 49.1363 177.874C49.6888 176.265 50.4696 174.907 51.4786 173.802C52.4875 172.673 53.7007 171.808 55.1181 171.208C56.5595 170.583 58.1691 170.271 59.9468 170.271C62.3491 170.271 64.4151 170.799 66.1448 171.857C67.8985 172.914 69.2438 174.415 70.1808 176.361C71.1417 178.283 71.6222 180.577 71.6222 183.244C71.6222 185.262 71.3459 187.075 70.7933 188.685C70.2408 190.294 69.46 191.664 68.4511 192.793C67.4421 193.922 66.2169 194.799 64.7755 195.423C63.3581 196.024 61.7485 196.324 59.9468 196.324ZM59.9468 193.694C61.7726 193.694 63.3101 193.285 64.5593 192.469C65.8325 191.652 66.8055 190.463 67.4781 188.901C68.1508 187.34 68.4871 185.466 68.4871 183.28C68.4871 179.988 67.7424 177.442 66.2529 175.64C64.7875 173.814 62.6855 172.902 59.9468 172.902C58.1691 172.902 56.6436 173.31 55.3703 174.127C54.1211 174.944 53.1602 176.133 52.4875 177.694C51.8149 179.232 51.4786 181.094 51.4786 183.28C51.4786 186.547 52.2233 189.105 53.7127 190.955C55.2022 192.781 57.2802 193.694 59.9468 193.694ZM78.3824 196.252C77.9019 196.252 77.5296 196.12 77.2653 195.856C77.0251 195.568 76.9049 195.183 76.9049 194.703V172.109C76.9049 171.604 77.0371 171.232 77.3013 170.992C77.5656 170.727 77.938 170.595 78.4184 170.595H86.9587C89.6734 170.595 91.7634 171.232 93.2288 172.505C94.6943 173.778 95.427 175.592 95.427 177.946C95.427 179.436 95.0906 180.733 94.418 181.838C93.7694 182.919 92.8084 183.748 91.5352 184.325C90.2619 184.877 88.7365 185.153 86.9587 185.153L87.3191 184.685H88.0398C88.9767 184.685 89.7935 184.925 90.4902 185.406C91.1868 185.886 91.8235 186.655 92.4 187.712L95.8594 194.162C96.0516 194.499 96.1357 194.835 96.1116 195.171C96.1116 195.483 96.0035 195.748 95.7873 195.964C95.5711 196.156 95.2588 196.252 94.8504 196.252C94.442 196.252 94.1057 196.156 93.8414 195.964C93.5772 195.772 93.3489 195.496 93.1568 195.135L89.2289 187.856C88.6764 186.823 88.0398 186.138 87.3191 185.802C86.5984 185.442 85.6495 185.262 84.4723 185.262H79.8598V194.703C79.8598 195.183 79.7397 195.568 79.4995 195.856C79.2592 196.12 78.8869 196.252 78.3824 196.252ZM79.8598 182.919H86.5263C88.4962 182.919 89.9857 182.511 90.9947 181.694C92.0036 180.853 92.5081 179.604 92.5081 177.946C92.5081 176.337 92.0036 175.124 90.9947 174.307C89.9857 173.466 88.4962 173.046 86.5263 173.046H79.8598V182.919ZM108.018 196.252C107.562 196.252 107.201 196.12 106.937 195.856C106.673 195.568 106.541 195.183 106.541 194.703V173.154H98.4328C98.0004 173.154 97.664 173.034 97.4238 172.793C97.1836 172.553 97.0635 172.241 97.0635 171.857C97.0635 171.448 97.1836 171.136 97.4238 170.92C97.664 170.703 98.0004 170.595 98.4328 170.595H117.639C118.072 170.595 118.408 170.703 118.648 170.92C118.889 171.136 119.009 171.448 119.009 171.857C119.009 172.265 118.889 172.589 118.648 172.829C118.408 173.046 118.072 173.154 117.639 173.154H109.532V194.703C109.532 195.183 109.399 195.568 109.135 195.856C108.895 196.12 108.523 196.252 108.018 196.252ZM129.32 196.324C128.191 196.324 127.086 196.228 126.005 196.036C124.924 195.844 123.915 195.568 122.978 195.207C122.065 194.847 121.236 194.39 120.492 193.838C120.203 193.622 119.999 193.381 119.879 193.117C119.783 192.829 119.759 192.553 119.807 192.288C119.879 192 119.999 191.76 120.167 191.568C120.359 191.376 120.588 191.267 120.852 191.243C121.116 191.219 121.404 191.303 121.717 191.496C122.798 192.264 123.951 192.829 125.176 193.189C126.401 193.526 127.783 193.694 129.32 193.694C131.482 193.694 133.08 193.297 134.113 192.505C135.17 191.688 135.698 190.619 135.698 189.297C135.698 188.216 135.314 187.376 134.545 186.775C133.801 186.15 132.539 185.658 130.762 185.298L127.014 184.541C124.756 184.06 123.062 183.28 121.933 182.199C120.828 181.094 120.275 179.628 120.275 177.802C120.275 176.673 120.504 175.652 120.96 174.739C121.416 173.802 122.053 173.01 122.87 172.361C123.687 171.688 124.66 171.172 125.789 170.811C126.918 170.451 128.167 170.271 129.536 170.271C131.05 170.271 132.455 170.487 133.752 170.92C135.074 171.328 136.263 171.953 137.32 172.793C137.584 173.01 137.764 173.262 137.86 173.55C137.957 173.814 137.969 174.079 137.897 174.343C137.824 174.583 137.692 174.787 137.5 174.956C137.332 175.124 137.104 175.22 136.815 175.244C136.551 175.268 136.251 175.172 135.915 174.956C134.954 174.235 133.957 173.718 132.924 173.406C131.891 173.07 130.75 172.902 129.5 172.902C128.227 172.902 127.122 173.094 126.185 173.478C125.272 173.862 124.552 174.427 124.023 175.172C123.519 175.892 123.266 176.733 123.266 177.694C123.266 178.847 123.615 179.76 124.311 180.433C125.032 181.106 126.197 181.598 127.807 181.91L131.554 182.703C133.981 183.208 135.77 183.976 136.924 185.009C138.101 186.018 138.689 187.4 138.689 189.153C138.689 190.21 138.473 191.183 138.041 192.072C137.608 192.961 136.984 193.73 136.167 194.378C135.35 195.003 134.365 195.483 133.212 195.82C132.059 196.156 130.762 196.324 129.32 196.324ZM154.006 196.252C153.573 196.252 153.237 196.132 152.997 195.892C152.757 195.628 152.637 195.267 152.637 194.811V171.784C152.637 171.304 152.757 170.944 152.997 170.703C153.237 170.463 153.573 170.343 154.006 170.343C154.39 170.343 154.691 170.427 154.907 170.595C155.147 170.739 155.363 170.992 155.555 171.352L165.429 189.946H164.348L174.186 171.352C174.378 170.992 174.582 170.739 174.798 170.595C175.014 170.427 175.327 170.343 175.735 170.343C176.143 170.343 176.468 170.463 176.708 170.703C176.948 170.944 177.068 171.304 177.068 171.784V194.811C177.068 195.267 176.948 195.628 176.708 195.892C176.492 196.132 176.155 196.252 175.699 196.252C175.267 196.252 174.93 196.132 174.69 195.892C174.45 195.628 174.33 195.267 174.33 194.811V174.559H175.194L166.186 191.46C166.018 191.772 165.837 192 165.645 192.144C165.477 192.264 165.225 192.324 164.888 192.324C164.552 192.324 164.288 192.252 164.096 192.108C163.904 191.964 163.735 191.748 163.591 191.46L154.474 174.523H155.339V194.811C155.339 195.267 155.219 195.628 154.979 195.892C154.763 196.132 154.438 196.252 154.006 196.252ZM182.851 196.252C182.466 196.252 182.154 196.168 181.914 196C181.698 195.808 181.566 195.568 181.518 195.279C181.493 194.967 181.566 194.619 181.734 194.234L191.643 171.676C191.86 171.196 192.112 170.86 192.4 170.667C192.712 170.451 193.049 170.343 193.409 170.343C193.769 170.343 194.094 170.451 194.382 170.667C194.694 170.86 194.947 171.196 195.139 171.676L205.084 194.234C205.277 194.619 205.349 194.967 205.301 195.279C205.277 195.592 205.157 195.832 204.94 196C204.724 196.168 204.424 196.252 204.039 196.252C203.607 196.252 203.259 196.144 202.994 195.928C202.73 195.688 202.514 195.351 202.346 194.919L199.679 188.757L201.121 189.514H185.626L187.103 188.757L184.472 194.919C184.256 195.375 184.028 195.712 183.788 195.928C183.547 196.144 183.235 196.252 182.851 196.252ZM193.373 174.055L187.571 187.712L186.707 187.027H200.04L199.247 187.712L193.445 174.055H193.373ZM211.121 196.252C210.64 196.252 210.268 196.12 210.004 195.856C209.764 195.568 209.643 195.183 209.643 194.703V172.109C209.643 171.604 209.776 171.232 210.04 170.992C210.304 170.727 210.676 170.595 211.157 170.595H219.697C222.412 170.595 224.502 171.232 225.967 172.505C227.433 173.778 228.165 175.592 228.165 177.946C228.165 179.436 227.829 180.733 227.156 181.838C226.508 182.919 225.547 183.748 224.274 184.325C223 184.877 221.475 185.153 219.697 185.153L220.058 184.685H220.778C221.715 184.685 222.532 184.925 223.229 185.406C223.925 185.886 224.562 186.655 225.138 187.712L228.598 194.162C228.79 194.499 228.874 194.835 228.85 195.171C228.85 195.483 228.742 195.748 228.526 195.964C228.31 196.156 227.997 196.252 227.589 196.252C227.18 196.252 226.844 196.156 226.58 195.964C226.316 195.772 226.087 195.496 225.895 195.135L221.967 187.856C221.415 186.823 220.778 186.138 220.058 185.802C219.337 185.442 218.388 185.262 217.211 185.262H212.598V194.703C212.598 195.183 212.478 195.568 212.238 195.856C211.998 196.12 211.625 196.252 211.121 196.252ZM212.598 182.919H219.265C221.235 182.919 222.724 182.511 223.733 181.694C224.742 180.853 225.247 179.604 225.247 177.946C225.247 176.337 224.742 175.124 223.733 174.307C222.724 173.466 221.235 173.046 219.265 173.046H212.598V182.919ZM235.226 196.252C234.746 196.252 234.374 196.12 234.109 195.856C233.869 195.568 233.749 195.183 233.749 194.703V171.857C233.749 171.352 233.869 170.98 234.109 170.739C234.374 170.475 234.746 170.343 235.226 170.343C235.707 170.343 236.067 170.475 236.307 170.739C236.572 170.98 236.704 171.352 236.704 171.857V182.127H236.776L248.523 171.172C248.812 170.884 249.1 170.679 249.388 170.559C249.676 170.415 249.989 170.343 250.325 170.343C250.781 170.343 251.106 170.451 251.298 170.667C251.514 170.884 251.598 171.148 251.55 171.46C251.502 171.772 251.334 172.073 251.046 172.361L238.758 183.748L238.794 182.163L251.622 194.018C251.983 194.354 252.175 194.703 252.199 195.063C252.223 195.399 252.115 195.688 251.875 195.928C251.658 196.144 251.322 196.252 250.866 196.252C250.505 196.252 250.193 196.168 249.929 196C249.688 195.856 249.412 195.628 249.1 195.315L236.776 184.036H236.704V194.703C236.704 195.183 236.584 195.568 236.343 195.856C236.103 196.12 235.731 196.252 235.226 196.252ZM257.892 196C257.364 196 256.955 195.868 256.667 195.604C256.403 195.315 256.271 194.907 256.271 194.378V172.217C256.271 171.688 256.403 171.292 256.667 171.028C256.955 170.739 257.364 170.595 257.892 170.595H271.297C271.706 170.595 272.018 170.703 272.234 170.92C272.451 171.136 272.559 171.436 272.559 171.82C272.559 172.229 272.451 172.541 272.234 172.757C272.018 172.974 271.706 173.082 271.297 173.082H259.154V181.874H270.541C270.949 181.874 271.261 181.982 271.478 182.199C271.694 182.391 271.802 182.691 271.802 183.099C271.802 183.508 271.694 183.82 271.478 184.036C271.261 184.253 270.949 184.361 270.541 184.361H259.154V193.514H271.297C271.706 193.514 272.018 193.622 272.234 193.838C272.451 194.054 272.559 194.354 272.559 194.739C272.559 195.147 272.451 195.459 272.234 195.676C272.018 195.892 271.706 196 271.297 196H257.892ZM284.534 196.252C284.077 196.252 283.717 196.12 283.453 195.856C283.188 195.568 283.056 195.183 283.056 194.703V173.154H274.948C274.516 173.154 274.179 173.034 273.939 172.793C273.699 172.553 273.579 172.241 273.579 171.857C273.579 171.448 273.699 171.136 273.939 170.92C274.179 170.703 274.516 170.595 274.948 170.595H294.155C294.587 170.595 294.924 170.703 295.164 170.92C295.404 171.136 295.524 171.448 295.524 171.857C295.524 172.265 295.404 172.589 295.164 172.829C294.924 173.046 294.587 173.154 294.155 173.154H286.047V194.703C286.047 195.183 285.915 195.568 285.651 195.856C285.41 196.12 285.038 196.252 284.534 196.252ZM305.836 196.324C304.707 196.324 303.601 196.228 302.52 196.036C301.439 195.844 300.43 195.568 299.493 195.207C298.581 194.847 297.752 194.39 297.007 193.838C296.719 193.622 296.515 193.381 296.394 193.117C296.298 192.829 296.274 192.553 296.322 192.288C296.394 192 296.515 191.76 296.683 191.568C296.875 191.376 297.103 191.267 297.367 191.243C297.632 191.219 297.92 191.303 298.232 191.496C299.313 192.264 300.466 192.829 301.692 193.189C302.917 193.526 304.298 193.694 305.836 193.694C307.998 193.694 309.595 193.297 310.628 192.505C311.685 191.688 312.214 190.619 312.214 189.297C312.214 188.216 311.829 187.376 311.061 186.775C310.316 186.15 309.055 185.658 307.277 185.298L303.529 184.541C301.271 184.06 299.578 183.28 298.448 182.199C297.343 181.094 296.791 179.628 296.791 177.802C296.791 176.673 297.019 175.652 297.475 174.739C297.932 173.802 298.569 173.01 299.385 172.361C300.202 171.688 301.175 171.172 302.304 170.811C303.433 170.451 304.683 170.271 306.052 170.271C307.565 170.271 308.971 170.487 310.268 170.92C311.589 171.328 312.778 171.953 313.835 172.793C314.1 173.01 314.28 173.262 314.376 173.55C314.472 173.814 314.484 174.079 314.412 174.343C314.34 174.583 314.208 174.787 314.016 174.956C313.847 175.124 313.619 175.22 313.331 175.244C313.067 175.268 312.766 175.172 312.43 174.956C311.469 174.235 310.472 173.718 309.439 173.406C308.406 173.07 307.265 172.902 306.016 172.902C304.743 172.902 303.637 173.094 302.701 173.478C301.788 173.862 301.067 174.427 300.538 175.172C300.034 175.892 299.782 176.733 299.782 177.694C299.782 178.847 300.13 179.76 300.827 180.433C301.547 181.106 302.713 181.598 304.322 181.91L308.07 182.703C310.496 183.208 312.286 183.976 313.439 185.009C314.616 186.018 315.205 187.4 315.205 189.153C315.205 190.21 314.989 191.183 314.556 192.072C314.124 192.961 313.499 193.73 312.682 194.378C311.865 195.003 310.881 195.483 309.727 195.82C308.574 196.156 307.277 196.324 305.836 196.324ZM329.717 196.324C329.044 196.324 328.492 196.168 328.059 195.856C327.651 195.544 327.386 195.123 327.266 194.595C327.17 194.066 327.278 193.478 327.591 192.829L336.816 172.613C337.2 171.796 337.656 171.208 338.185 170.848C338.713 170.463 339.326 170.271 340.023 170.271C340.719 170.271 341.332 170.463 341.861 170.848C342.389 171.208 342.833 171.796 343.194 172.613L352.491 192.829C352.803 193.478 352.911 194.078 352.815 194.631C352.743 195.159 352.503 195.58 352.094 195.892C351.686 196.18 351.158 196.324 350.509 196.324C349.692 196.324 349.056 196.132 348.599 195.748C348.167 195.363 347.782 194.763 347.446 193.946L345.284 188.937L347.518 190.487H332.491L334.726 188.937L332.6 193.946C332.239 194.787 331.855 195.399 331.446 195.784C331.062 196.144 330.485 196.324 329.717 196.324ZM339.951 176.541L335.338 187.532L334.365 186.126H345.644L344.671 187.532L340.023 176.541H339.951ZM358.722 196.324C357.906 196.324 357.281 196.096 356.849 195.64C356.416 195.183 356.2 194.547 356.2 193.73V172.865C356.2 172.049 356.428 171.412 356.885 170.956C357.365 170.499 358.014 170.271 358.831 170.271C359.551 170.271 360.116 170.415 360.524 170.703C360.957 170.968 361.353 171.436 361.713 172.109L370.037 187.316H368.812L377.136 172.109C377.497 171.436 377.881 170.968 378.289 170.703C378.722 170.415 379.286 170.271 379.983 170.271C380.8 170.271 381.424 170.499 381.857 170.956C382.313 171.412 382.542 172.049 382.542 172.865V193.73C382.542 194.547 382.325 195.183 381.893 195.64C381.461 196.096 380.836 196.324 380.019 196.324C379.202 196.324 378.566 196.096 378.109 195.64C377.677 195.183 377.461 194.547 377.461 193.73V179.136H378.253L371.551 191.135C371.263 191.592 370.95 191.94 370.614 192.18C370.302 192.396 369.881 192.505 369.353 192.505C368.824 192.505 368.392 192.384 368.055 192.144C367.719 191.904 367.419 191.568 367.155 191.135L360.38 179.1H361.245V193.73C361.245 194.547 361.029 195.183 360.596 195.64C360.188 196.096 359.563 196.324 358.722 196.324ZM390.288 196.324C389.471 196.324 388.847 196.096 388.414 195.64C387.982 195.183 387.766 194.547 387.766 193.73V172.865C387.766 172.049 387.994 171.412 388.45 170.956C388.931 170.499 389.58 170.271 390.396 170.271C391.117 170.271 391.682 170.415 392.09 170.703C392.522 170.968 392.919 171.436 393.279 172.109L401.603 187.316H400.378L408.702 172.109C409.063 171.436 409.447 170.968 409.855 170.703C410.288 170.415 410.852 170.271 411.549 170.271C412.366 170.271 412.99 170.499 413.423 170.956C413.879 171.412 414.107 172.049 414.107 172.865V193.73C414.107 194.547 413.891 195.183 413.459 195.64C413.026 196.096 412.402 196.324 411.585 196.324C410.768 196.324 410.132 196.096 409.675 195.64C409.243 195.183 409.026 194.547 409.026 193.73V179.136H409.819L403.117 191.135C402.828 191.592 402.516 191.94 402.18 192.18C401.868 192.396 401.447 192.505 400.919 192.505C400.39 192.505 399.958 192.384 399.621 192.144C399.285 191.904 398.985 191.568 398.72 191.135L391.946 179.1H392.811V193.73C392.811 194.547 392.595 195.183 392.162 195.64C391.754 196.096 391.129 196.324 390.288 196.324ZM431.241 196C430.712 196 430.304 195.868 430.016 195.604C429.751 195.315 429.619 194.907 429.619 194.378V172.217C429.619 171.688 429.751 171.292 430.016 171.028C430.304 170.739 430.712 170.595 431.241 170.595H439.781C441.535 170.595 443.012 170.86 444.213 171.388C445.439 171.893 446.375 172.637 447.024 173.622C447.673 174.607 447.997 175.808 447.997 177.226C447.997 178.811 447.529 180.133 446.592 181.19C445.679 182.247 444.43 182.943 442.844 183.28V182.775C444.646 182.991 446.051 183.64 447.06 184.721C448.093 185.802 448.61 187.231 448.61 189.009C448.61 191.267 447.877 192.997 446.411 194.198C444.946 195.399 442.88 196 440.213 196H431.241ZM432.502 193.622H439.925C441.847 193.622 443.288 193.237 444.249 192.469C445.21 191.7 445.691 190.535 445.691 188.973C445.691 187.388 445.21 186.222 444.249 185.478C443.288 184.709 441.847 184.325 439.925 184.325H432.502V193.622ZM432.502 181.946H439.349C441.222 181.946 442.64 181.562 443.601 180.793C444.586 180.024 445.078 178.919 445.078 177.478C445.078 175.989 444.586 174.871 443.601 174.127C442.64 173.358 441.222 172.974 439.349 172.974H432.502V181.946ZM463.989 196.324C462.307 196.324 460.83 196.108 459.556 195.676C458.307 195.219 457.25 194.559 456.385 193.694C455.52 192.805 454.872 191.712 454.439 190.415C454.007 189.117 453.791 187.628 453.791 185.946V171.857C453.791 171.352 453.911 170.98 454.151 170.739C454.415 170.475 454.788 170.343 455.268 170.343C455.749 170.343 456.109 170.475 456.349 170.739C456.613 170.98 456.746 171.352 456.746 171.857V185.802C456.746 188.445 457.358 190.427 458.583 191.748C459.809 193.045 461.61 193.694 463.989 193.694C466.367 193.694 468.157 193.045 469.358 191.748C470.559 190.427 471.16 188.445 471.16 185.802V171.857C471.16 171.352 471.292 170.98 471.556 170.739C471.82 170.475 472.193 170.343 472.673 170.343C473.13 170.343 473.478 170.475 473.718 170.739C473.982 170.98 474.115 171.352 474.115 171.857V185.946C474.115 188.18 473.73 190.078 472.961 191.64C472.217 193.201 471.088 194.378 469.574 195.171C468.061 195.94 466.199 196.324 463.989 196.324ZM481.665 196.252C481.185 196.252 480.812 196.12 480.548 195.856C480.308 195.568 480.188 195.183 480.188 194.703V171.893C480.188 171.388 480.308 171.004 480.548 170.739C480.812 170.475 481.185 170.343 481.665 170.343C482.146 170.343 482.506 170.475 482.746 170.739C483.011 171.004 483.143 171.388 483.143 171.893V194.703C483.143 195.183 483.023 195.568 482.782 195.856C482.542 196.12 482.17 196.252 481.665 196.252ZM490.956 196C490.476 196 490.104 195.868 489.839 195.604C489.575 195.315 489.443 194.931 489.443 194.45V171.965C489.443 171.46 489.563 171.076 489.803 170.811C490.068 170.547 490.44 170.415 490.92 170.415C491.401 170.415 491.761 170.547 492.001 170.811C492.266 171.076 492.398 171.46 492.398 171.965V193.405H504.217C504.65 193.405 504.986 193.526 505.226 193.766C505.466 193.982 505.587 194.294 505.587 194.703C505.587 195.111 505.466 195.435 505.226 195.676C504.986 195.892 504.65 196 504.217 196H490.956ZM512.146 196.252C511.689 196.252 511.329 196.12 511.065 195.856C510.8 195.568 510.668 195.183 510.668 194.703V173.154H502.56C502.128 173.154 501.791 173.034 501.551 172.793C501.311 172.553 501.191 172.241 501.191 171.857C501.191 171.448 501.311 171.136 501.551 170.92C501.791 170.703 502.128 170.595 502.56 170.595H521.767C522.199 170.595 522.536 170.703 522.776 170.92C523.016 171.136 523.136 171.448 523.136 171.857C523.136 172.265 523.016 172.589 522.776 172.829C522.536 173.046 522.199 173.154 521.767 173.154H513.659V194.703C513.659 195.183 513.527 195.568 513.263 195.856C513.022 196.12 512.65 196.252 512.146 196.252ZM546.068 196.324C543.714 196.324 541.66 195.796 539.906 194.739C538.176 193.658 536.831 192.144 535.87 190.198C534.933 188.252 534.465 185.946 534.465 183.28C534.465 181.262 534.729 179.46 535.258 177.874C535.81 176.265 536.591 174.907 537.6 173.802C538.609 172.673 539.822 171.808 541.239 171.208C542.681 170.583 544.29 170.271 546.068 170.271C548.47 170.271 550.536 170.799 552.266 171.857C554.02 172.914 555.365 174.415 556.302 176.361C557.263 178.283 557.743 180.577 557.743 183.244C557.743 185.262 557.467 187.075 556.915 188.685C556.362 190.294 555.581 191.664 554.572 192.793C553.563 193.922 552.338 194.799 550.897 195.423C549.479 196.024 547.87 196.324 546.068 196.324ZM546.068 193.694C547.894 193.694 549.431 193.285 550.681 192.469C551.954 191.652 552.927 190.463 553.599 188.901C554.272 187.34 554.608 185.466 554.608 183.28C554.608 179.988 553.864 177.442 552.374 175.64C550.909 173.814 548.807 172.902 546.068 172.902C544.29 172.902 542.765 173.31 541.492 174.127C540.242 174.944 539.281 176.133 538.609 177.694C537.936 179.232 537.6 181.094 537.6 183.28C537.6 186.547 538.345 189.105 539.834 190.955C541.323 192.781 543.401 193.694 546.068 193.694ZM564.432 196.252C563.975 196.252 563.627 196.132 563.387 195.892C563.146 195.628 563.026 195.255 563.026 194.775V171.857C563.026 171.376 563.146 171.004 563.387 170.739C563.627 170.475 563.939 170.343 564.323 170.343C564.708 170.343 564.984 170.415 565.152 170.559C565.344 170.679 565.561 170.908 565.801 171.244L581.512 192.18H580.647V171.784C580.647 171.328 580.767 170.98 581.008 170.739C581.248 170.475 581.596 170.343 582.053 170.343C582.485 170.343 582.809 170.475 583.026 170.739C583.266 170.98 583.386 171.328 583.386 171.784V194.811C583.386 195.267 583.278 195.628 583.062 195.892C582.869 196.132 582.581 196.252 582.197 196.252C581.836 196.252 581.548 196.18 581.332 196.036C581.116 195.892 580.888 195.664 580.647 195.351L564.972 174.415H565.801V194.775C565.801 195.255 565.681 195.628 565.441 195.892C565.2 196.132 564.864 196.252 564.432 196.252ZM607.772 196.324C606.859 196.324 606.162 196.072 605.682 195.568C605.201 195.063 604.961 194.354 604.961 193.442V175.208H598.583C597.838 175.208 597.261 175.004 596.853 174.595C596.445 174.187 596.24 173.622 596.24 172.902C596.24 172.157 596.445 171.592 596.853 171.208C597.261 170.799 597.838 170.595 598.583 170.595H616.925C617.669 170.595 618.246 170.799 618.654 171.208C619.063 171.592 619.267 172.157 619.267 172.902C619.267 173.622 619.063 174.187 618.654 174.595C618.246 175.004 617.669 175.208 616.925 175.208H610.546V193.442C610.546 194.354 610.306 195.063 609.826 195.568C609.369 196.072 608.685 196.324 607.772 196.324ZM624.486 196.324C623.573 196.324 622.876 196.072 622.396 195.568C621.915 195.063 621.675 194.354 621.675 193.442V173.154C621.675 172.241 621.915 171.532 622.396 171.028C622.876 170.523 623.573 170.271 624.486 170.271C625.375 170.271 626.059 170.523 626.54 171.028C627.02 171.532 627.261 172.241 627.261 173.154V180.793H639.08V173.154C639.08 172.241 639.32 171.532 639.801 171.028C640.281 170.523 640.966 170.271 641.855 170.271C642.768 170.271 643.464 170.523 643.945 171.028C644.425 171.532 644.666 172.241 644.666 173.154V193.442C644.666 194.354 644.425 195.063 643.945 195.568C643.464 196.072 642.768 196.324 641.855 196.324C640.966 196.324 640.281 196.072 639.801 195.568C639.32 195.063 639.08 194.354 639.08 193.442V185.442H627.261V193.442C627.261 194.354 627.02 195.063 626.54 195.568C626.083 196.072 625.399 196.324 624.486 196.324ZM650.513 196.324C649.84 196.324 649.288 196.168 648.855 195.856C648.447 195.544 648.183 195.123 648.063 194.595C647.967 194.066 648.075 193.478 648.387 192.829L657.612 172.613C657.996 171.796 658.453 171.208 658.981 170.848C659.51 170.463 660.122 170.271 660.819 170.271C661.516 170.271 662.128 170.463 662.657 170.848C663.185 171.208 663.63 171.796 663.99 172.613L673.287 192.829C673.6 193.478 673.708 194.078 673.612 194.631C673.539 195.159 673.299 195.58 672.891 195.892C672.482 196.18 671.954 196.324 671.305 196.324C670.489 196.324 669.852 196.132 669.395 195.748C668.963 195.363 668.579 194.763 668.242 193.946L666.08 188.937L668.314 190.487H653.288L655.522 188.937L653.396 193.946C653.036 194.787 652.651 195.399 652.243 195.784C651.858 196.144 651.282 196.324 650.513 196.324ZM660.747 176.541L656.135 187.532L655.162 186.126H666.441L665.468 187.532L660.819 176.541H660.747ZM679.771 196C678.858 196 678.15 195.748 677.645 195.243C677.165 194.739 676.924 194.042 676.924 193.153V173.37C676.924 172.433 677.165 171.724 677.645 171.244C678.126 170.763 678.822 170.523 679.735 170.523C680.624 170.523 681.309 170.763 681.789 171.244C682.27 171.724 682.51 172.433 682.51 173.37V191.279H692.167C692.936 191.279 693.524 191.484 693.933 191.892C694.365 192.3 694.582 192.877 694.582 193.622C694.582 194.39 694.365 194.979 693.933 195.387C693.524 195.796 692.936 196 692.167 196H679.771ZM700.5 196C699.563 196 698.842 195.748 698.338 195.243C697.833 194.739 697.581 194.018 697.581 193.081V173.514C697.581 172.577 697.833 171.857 698.338 171.352C698.842 170.848 699.563 170.595 700.5 170.595H713.076C713.797 170.595 714.337 170.787 714.698 171.172C715.082 171.532 715.274 172.061 715.274 172.757C715.274 173.478 715.082 174.031 714.698 174.415C714.337 174.775 713.797 174.956 713.076 174.956H702.914V180.901H712.247C712.992 180.901 713.545 181.094 713.905 181.478C714.289 181.838 714.482 182.379 714.482 183.099C714.482 183.82 714.289 184.373 713.905 184.757C713.545 185.117 712.992 185.298 712.247 185.298H702.914V191.64H713.076C713.797 191.64 714.337 191.832 714.698 192.216C715.082 192.577 715.274 193.105 715.274 193.802C715.274 194.523 715.082 195.075 714.698 195.459C714.337 195.82 713.797 196 713.076 196H700.5ZM728.128 196.396C727.119 196.396 726.086 196.312 725.029 196.144C723.996 196 722.999 195.784 722.038 195.496C721.101 195.207 720.26 194.847 719.516 194.414C718.987 194.126 718.615 193.754 718.399 193.297C718.182 192.817 718.098 192.336 718.146 191.856C718.218 191.376 718.399 190.955 718.687 190.595C718.999 190.21 719.384 189.97 719.84 189.874C720.32 189.754 720.849 189.838 721.426 190.126C722.411 190.679 723.48 191.087 724.633 191.351C725.81 191.616 726.975 191.748 728.128 191.748C729.882 191.748 731.131 191.484 731.876 190.955C732.62 190.403 732.993 189.718 732.993 188.901C732.993 188.204 732.729 187.652 732.2 187.243C731.672 186.835 730.747 186.487 729.425 186.198L725.353 185.334C723.047 184.853 721.329 184.036 720.2 182.883C719.095 181.706 718.543 180.169 718.543 178.271C718.543 177.07 718.795 175.977 719.3 174.992C719.804 174.007 720.513 173.154 721.426 172.433C722.338 171.712 723.42 171.16 724.669 170.775C725.942 170.391 727.335 170.199 728.849 170.199C730.194 170.199 731.515 170.367 732.813 170.703C734.11 171.016 735.251 171.484 736.236 172.109C736.716 172.397 737.041 172.769 737.209 173.226C737.401 173.658 737.461 174.103 737.389 174.559C737.341 174.992 737.161 175.376 736.849 175.712C736.56 176.049 736.188 176.265 735.731 176.361C735.275 176.457 734.723 176.349 734.074 176.037C733.281 175.628 732.44 175.328 731.551 175.136C730.663 174.944 729.75 174.847 728.813 174.847C727.804 174.847 726.939 174.98 726.218 175.244C725.522 175.508 724.981 175.88 724.597 176.361C724.236 176.841 724.056 177.394 724.056 178.019C724.056 178.715 724.308 179.28 724.813 179.712C725.317 180.145 726.194 180.493 727.443 180.757L731.515 181.622C733.87 182.127 735.623 182.943 736.777 184.072C737.93 185.177 738.506 186.643 738.506 188.469C738.506 189.67 738.266 190.763 737.785 191.748C737.305 192.709 736.608 193.538 735.695 194.234C734.783 194.931 733.69 195.471 732.416 195.856C731.143 196.216 729.714 196.396 728.128 196.396ZM753.969 196.252C753.489 196.252 753.116 196.12 752.852 195.856C752.612 195.568 752.492 195.183 752.492 194.703V172.109C752.492 171.604 752.624 171.232 752.888 170.992C753.152 170.727 753.525 170.595 754.005 170.595H762.546C765.26 170.595 767.35 171.268 768.816 172.613C770.281 173.935 771.014 175.808 771.014 178.235C771.014 180.637 770.281 182.511 768.816 183.856C767.35 185.201 765.26 185.874 762.546 185.874H755.447V194.703C755.447 195.183 755.326 195.568 755.086 195.856C754.846 196.12 754.474 196.252 753.969 196.252ZM755.447 183.388H762.185C764.131 183.388 765.596 182.955 766.581 182.09C767.59 181.202 768.095 179.916 768.095 178.235C768.095 176.529 767.59 175.244 766.581 174.379C765.596 173.49 764.131 173.046 762.185 173.046H755.447V183.388ZM776.773 196.252C776.292 196.252 775.92 196.12 775.656 195.856C775.415 195.568 775.295 195.183 775.295 194.703V172.109C775.295 171.604 775.427 171.232 775.692 170.992C775.956 170.727 776.328 170.595 776.809 170.595H785.349C788.064 170.595 790.154 171.232 791.619 172.505C793.085 173.778 793.817 175.592 793.817 177.946C793.817 179.436 793.481 180.733 792.808 181.838C792.16 182.919 791.199 183.748 789.925 184.325C788.652 184.877 787.127 185.153 785.349 185.153L785.709 184.685H786.43C787.367 184.685 788.184 184.925 788.88 185.406C789.577 185.886 790.214 186.655 790.79 187.712L794.25 194.162C794.442 194.499 794.526 194.835 794.502 195.171C794.502 195.483 794.394 195.748 794.178 195.964C793.961 196.156 793.649 196.252 793.241 196.252C792.832 196.252 792.496 196.156 792.232 195.964C791.967 195.772 791.739 195.496 791.547 195.135L787.619 187.856C787.067 186.823 786.43 186.138 785.709 185.802C784.989 185.442 784.04 185.262 782.863 185.262H778.25V194.703C778.25 195.183 778.13 195.568 777.89 195.856C777.649 196.12 777.277 196.252 776.773 196.252ZM778.25 182.919H784.917C786.886 182.919 788.376 182.511 789.385 181.694C790.394 180.853 790.898 179.604 790.898 177.946C790.898 176.337 790.394 175.124 789.385 174.307C788.376 173.466 786.886 173.046 784.917 173.046H778.25V182.919ZM809.891 196.324C807.537 196.324 805.483 195.796 803.729 194.739C801.999 193.658 800.654 192.144 799.693 190.198C798.756 188.252 798.288 185.946 798.288 183.28C798.288 181.262 798.552 179.46 799.081 177.874C799.633 176.265 800.414 174.907 801.423 173.802C802.432 172.673 803.645 171.808 805.062 171.208C806.504 170.583 808.113 170.271 809.891 170.271C812.293 170.271 814.359 170.799 816.089 171.857C817.843 172.914 819.188 174.415 820.125 176.361C821.086 178.283 821.566 180.577 821.566 183.244C821.566 185.262 821.29 187.075 820.738 188.685C820.185 190.294 819.404 191.664 818.395 192.793C817.386 193.922 816.161 194.799 814.72 195.423C813.302 196.024 811.693 196.324 809.891 196.324ZM809.891 193.694C811.717 193.694 813.254 193.285 814.504 192.469C815.777 191.652 816.75 190.463 817.422 188.901C818.095 187.34 818.431 185.466 818.431 183.28C818.431 179.988 817.687 177.442 816.197 175.64C814.732 173.814 812.63 172.902 809.891 172.902C808.113 172.902 806.588 173.31 805.315 174.127C804.065 174.944 803.104 176.133 802.432 177.694C801.759 179.232 801.423 181.094 801.423 183.28C801.423 186.547 802.168 189.105 803.657 190.955C805.146 192.781 807.224 193.694 809.891 193.694ZM832.977 196.252C832.521 196.252 832.16 196.12 831.896 195.856C831.632 195.568 831.5 195.183 831.5 194.703V173.154H823.392C822.959 173.154 822.623 173.034 822.383 172.793C822.143 172.553 822.023 172.241 822.023 171.857C822.023 171.448 822.143 171.136 822.383 170.92C822.623 170.703 822.959 170.595 823.392 170.595H842.599C843.031 170.595 843.367 170.703 843.608 170.92C843.848 171.136 843.968 171.448 843.968 171.857C843.968 172.265 843.848 172.589 843.608 172.829C843.367 173.046 843.031 173.154 842.599 173.154H834.491V194.703C834.491 195.183 834.359 195.568 834.094 195.856C833.854 196.12 833.482 196.252 832.977 196.252ZM856.026 196.324C853.672 196.324 851.618 195.796 849.864 194.739C848.134 193.658 846.789 192.144 845.828 190.198C844.891 188.252 844.423 185.946 844.423 183.28C844.423 181.262 844.687 179.46 845.215 177.874C845.768 176.265 846.549 174.907 847.558 173.802C848.567 172.673 849.78 171.808 851.197 171.208C852.638 170.583 854.248 170.271 856.026 170.271C858.428 170.271 860.494 170.799 862.224 171.857C863.978 172.914 865.323 174.415 866.26 176.361C867.221 178.283 867.701 180.577 867.701 183.244C867.701 185.262 867.425 187.075 866.872 188.685C866.32 190.294 865.539 191.664 864.53 192.793C863.521 193.922 862.296 194.799 860.854 195.423C859.437 196.024 857.828 196.324 856.026 196.324ZM856.026 193.694C857.852 193.694 859.389 193.285 860.638 192.469C861.912 191.652 862.884 190.463 863.557 188.901C864.23 187.34 864.566 185.466 864.566 183.28C864.566 179.988 863.821 177.442 862.332 175.64C860.866 173.814 858.764 172.902 856.026 172.902C854.248 172.902 852.723 173.31 851.449 174.127C850.2 174.944 849.239 176.133 848.567 177.694C847.894 179.232 847.558 181.094 847.558 183.28C847.558 186.547 848.302 189.105 849.792 190.955C851.281 192.781 853.359 193.694 856.026 193.694ZM883.975 196.324C881.476 196.324 879.338 195.796 877.56 194.739C875.783 193.682 874.413 192.18 873.452 190.234C872.515 188.288 872.047 185.97 872.047 183.28C872.047 181.262 872.311 179.46 872.84 177.874C873.392 176.265 874.173 174.907 875.182 173.802C876.215 172.673 877.476 171.808 878.966 171.208C880.455 170.583 882.125 170.271 883.975 170.271C885.464 170.271 886.881 170.487 888.227 170.92C889.572 171.328 890.737 171.941 891.722 172.757C892.034 172.998 892.239 173.274 892.335 173.586C892.455 173.874 892.467 174.163 892.371 174.451C892.299 174.715 892.155 174.944 891.938 175.136C891.746 175.304 891.506 175.388 891.218 175.388C890.929 175.388 890.605 175.268 890.245 175.028C889.38 174.331 888.431 173.814 887.398 173.478C886.365 173.142 885.248 172.974 884.047 172.974C882.149 172.974 880.539 173.382 879.218 174.199C877.897 174.992 876.9 176.157 876.227 177.694C875.554 179.232 875.218 181.094 875.218 183.28C875.218 185.466 875.554 187.34 876.227 188.901C876.9 190.439 877.897 191.616 879.218 192.433C880.539 193.225 882.149 193.622 884.047 193.622C885.224 193.622 886.341 193.454 887.398 193.117C888.455 192.757 889.428 192.228 890.317 191.532C890.677 191.291 891.001 191.183 891.29 191.207C891.578 191.207 891.818 191.291 892.01 191.46C892.203 191.628 892.335 191.844 892.407 192.108C892.503 192.372 892.503 192.649 892.407 192.937C892.335 193.225 892.155 193.478 891.866 193.694C890.857 194.559 889.668 195.219 888.299 195.676C886.954 196.108 885.512 196.324 883.975 196.324ZM907.158 196.324C904.803 196.324 902.749 195.796 900.996 194.739C899.266 193.658 897.921 192.144 896.96 190.198C896.023 188.252 895.554 185.946 895.554 183.28C895.554 181.262 895.818 179.46 896.347 177.874C896.9 176.265 897.68 174.907 898.689 173.802C899.698 172.673 900.911 171.808 902.329 171.208C903.77 170.583 905.38 170.271 907.158 170.271C909.56 170.271 911.626 170.799 913.356 171.857C915.109 172.914 916.455 174.415 917.391 176.361C918.352 178.283 918.833 180.577 918.833 183.244C918.833 185.262 918.557 187.075 918.004 188.685C917.452 190.294 916.671 191.664 915.662 192.793C914.653 193.922 913.428 194.799 911.986 195.423C910.569 196.024 908.959 196.324 907.158 196.324ZM907.158 193.694C908.983 193.694 910.521 193.285 911.77 192.469C913.043 191.652 914.016 190.463 914.689 188.901C915.361 187.34 915.698 185.466 915.698 183.28C915.698 179.988 914.953 177.442 913.464 175.64C911.998 173.814 909.896 172.902 907.158 172.902C905.38 172.902 903.854 173.31 902.581 174.127C901.332 174.944 900.371 176.133 899.698 177.694C899.026 179.232 898.689 181.094 898.689 183.28C898.689 186.547 899.434 189.105 900.923 190.955C902.413 192.781 904.491 193.694 907.158 193.694ZM925.629 196C925.149 196 924.776 195.868 924.512 195.604C924.248 195.315 924.116 194.931 924.116 194.45V171.965C924.116 171.46 924.236 171.076 924.476 170.811C924.74 170.547 925.113 170.415 925.593 170.415C926.074 170.415 926.434 170.547 926.674 170.811C926.939 171.076 927.071 171.46 927.071 171.965V193.405H938.89C939.323 193.405 939.659 193.526 939.899 193.766C940.139 193.982 940.259 194.294 940.259 194.703C940.259 195.111 940.139 195.435 939.899 195.676C939.659 195.892 939.323 196 938.89 196H925.629Z" fill="white"/>
</svg>
