<svg width="895" height="484" viewBox="0 0 895 484" fill="none" xmlns="http://www.w3.org/2000/svg">
<rect x="652.329" y="31.7188" width="36.0025" height="174.012" fill="white"/>
<path fill-rule="evenodd" clip-rule="evenodd" d="M135.442 31.7188V67.7213L36.0069 67.7213V100.295L135.442 100.295V136.297L36.0069 136.297V169.728H135.442V205.731L36.0069 205.731H0.00439453V169.728V31.7188L0.861588 31.7188L36.0069 31.7188H135.442Z" fill="white"/>
<path fill-rule="evenodd" clip-rule="evenodd" d="M882.004 169.646C865.815 193.493 838.479 209.161 807.483 209.161C757.774 209.161 717.477 168.864 717.477 119.155C717.477 69.4456 757.774 29.1484 807.483 29.1484C838.219 29.1484 865.356 44.5543 881.595 68.0653L849.225 90.8859C840.044 77.4205 824.582 68.5797 807.055 68.5797C778.886 68.5797 756.051 91.4148 756.051 119.583C756.051 147.752 778.886 170.587 807.055 170.587C824.758 170.587 840.355 161.567 849.501 147.872L882.004 169.646Z" fill="white"/>
<path fill-rule="evenodd" clip-rule="evenodd" d="M216.834 119.551L151.731 31.7188H196.545L239.058 89.0743L280.884 31.7188H325.443L261.519 119.377L325.526 205.731H280.712L239.294 149.853L198.546 205.731H153.987L216.834 119.551Z" fill="white"/>
<path fill-rule="evenodd" clip-rule="evenodd" d="M512.677 21.2131L483.588 0L456.924 36.5637C445.443 31.2521 432.655 28.2882 419.173 28.2882C369.464 28.2882 329.167 68.5854 329.167 118.294C329.167 141.786 338.166 163.175 352.906 179.203L325.738 216.457L354.828 237.67L382.065 200.319C393.38 205.446 405.943 208.301 419.173 208.301C468.883 208.301 509.18 168.004 509.18 118.294C509.18 95.0574 500.374 73.877 485.917 57.9083L512.677 21.2131ZM432.778 69.6745C428.32 68.4013 423.612 67.7196 418.745 67.7196C390.576 67.7196 367.741 90.5546 367.741 118.723C367.741 129.213 370.908 138.963 376.338 147.07L432.778 69.6745ZM405.618 168.021L461.668 91.1616C466.782 99.1094 469.748 108.57 469.748 118.723C469.748 146.892 446.913 169.727 418.745 169.727C414.206 169.727 409.806 169.134 405.618 168.021Z" fill="white"/>
<path fill-rule="evenodd" clip-rule="evenodd" d="M614.604 31.7385L614.604 31.7188L578.609 31.7237L513.461 88.2838L537.077 115.459L578.602 79.3408V205.751H614.605V31.7385H614.604Z" fill="white"/>
<path d="M10.1259 401.581H0.00439453V251.53H15.9458L70.855 388.93L125.511 251.53H141.453V401.581H131.331V263.17L75.4097 401.581H66.0473L10.1259 263.17V401.581Z" fill="white"/>
<path d="M167.257 401.581H155.871L215.335 251.53H227.987L286.691 401.581H275.052L255.821 353.504H186.488L167.257 401.581ZM189.525 343.889H252.025L221.154 263.17L189.525 343.889Z" fill="white"/>
<path d="M310.903 401.581H300.782V251.53H372.391C382.681 251.53 391.453 255.41 398.707 263.17C405.961 270.761 409.588 280.039 409.588 291.004C409.588 300.619 407.395 308.97 403.009 316.055C398.454 323.14 392.803 327.273 386.055 328.453C392.297 330.14 397.358 335.454 401.238 344.395C405.118 353.336 407.057 364.132 407.057 376.784C407.057 383.869 407.226 389.183 407.564 392.725C407.901 396.942 408.576 399.894 409.588 401.581H399.466C397.779 399.557 396.683 395.846 396.177 390.448L395.418 368.94C395.418 358.818 392.972 350.13 388.08 342.877C383.356 335.792 377.536 332.249 370.62 332.249H310.903V401.581ZM310.903 322.887H370.62C378.549 322.887 385.381 319.85 391.116 313.777C396.683 307.873 399.466 300.619 399.466 292.016C399.466 283.581 396.683 276.328 391.116 270.255C385.381 264.351 378.549 261.398 370.62 261.398H310.903V322.887Z" fill="white"/>
<path d="M442.295 401.581H432.173V251.53H442.295V334.273L529.846 251.53H542.751L478.226 314.03L545.534 401.581H533.135L470.635 320.862L442.295 346.672V401.581Z" fill="white"/>
<path d="M657.114 401.581H559.188V251.53H657.114V261.398H569.31V319.091H649.523V328.453H569.31V391.966H657.114V401.581Z" fill="white"/>
<path d="M718.386 401.581H708.265V261.398H656.898V251.53H770.259V261.398H718.386V401.581Z" fill="white"/>
<path d="M825.891 405.377C811.384 405.377 799.069 400.485 788.948 390.701C778.657 381.085 773.512 369.361 773.512 355.529H783.634C783.634 366.662 787.767 376.193 796.033 384.122C804.299 392.05 814.251 396.015 825.891 396.015C838.543 396.015 849.424 392.641 858.533 385.893C867.474 379.145 871.944 370.964 871.944 361.348C871.944 353.082 867.98 346.166 860.051 340.599C852.291 335.032 841.833 331.659 828.675 330.478C812.649 329.128 799.828 324.574 790.213 316.814C780.597 309.054 775.79 299.523 775.79 288.22C775.79 277.087 780.682 267.556 790.466 259.627C800.25 251.699 812.058 247.734 825.891 247.734C840.736 247.734 853.472 251.867 864.1 260.133C874.559 268.399 879.788 278.352 879.788 289.992H869.667C869.667 281.051 865.365 273.376 856.762 266.965C848.327 260.555 838.037 257.35 825.891 257.35C814.926 257.35 805.479 260.386 797.551 266.459C789.791 272.363 785.911 279.617 785.911 288.22C785.911 296.655 789.96 303.74 798.057 309.476C806.323 315.211 817.204 318.669 830.699 319.85C846.219 321.2 858.702 325.67 868.149 333.261C877.427 340.852 882.066 350.215 882.066 361.348C882.066 373.494 876.583 383.869 865.618 392.472C854.653 401.075 841.411 405.377 825.891 405.377Z" fill="white"/>
<path d="M0.955566 440.735H12.5483C17.7713 440.735 21.5873 441.554 23.9965 443.193C26.4249 444.831 27.6391 447.442 27.6391 451.027C27.6391 452.646 27.321 454.12 26.685 455.45C26.0683 456.78 25.1432 457.898 23.9097 458.804C22.6955 459.69 21.1922 460.297 19.3998 460.625V460.827C21.5391 461.155 23.3026 461.752 24.6903 462.62C26.0972 463.468 27.138 464.595 27.8125 466.002C28.5063 467.39 28.8533 469.047 28.8533 470.975C28.8533 473.75 28.2172 476.024 26.9452 477.797C25.6925 479.57 23.9483 480.881 21.7126 481.729C19.4769 482.577 16.8943 483.001 13.9649 483.001H0.955566V440.735ZM3.93325 459.526H13.2999C17.2702 459.526 20.1419 458.833 21.915 457.445C23.6881 456.057 24.5746 454.005 24.5746 451.287C24.5746 448.473 23.6206 446.45 21.7126 445.216C19.8046 443.983 16.7498 443.366 12.5483 443.366H3.93325V459.526ZM3.93325 462.128V480.37H13.8781C17.7905 480.37 20.7393 479.58 22.7244 478C24.7096 476.4 25.7021 474.02 25.7021 470.859C25.7021 468.777 25.2396 467.101 24.3145 465.829C23.3894 464.537 22.0017 463.603 20.1515 463.024C18.3206 462.427 16.0367 462.128 13.2999 462.128H3.93325Z" fill="white"/>
<path d="M69.2109 440.735V468.084C69.2109 471.379 68.5749 474.184 67.3029 476.496C66.0309 478.79 64.2 480.544 61.8101 481.758C59.4395 482.972 56.5968 483.579 53.2818 483.579C48.2515 483.579 44.3873 482.22 41.6891 479.503C38.9909 476.766 37.6417 472.921 37.6417 467.968V440.735H40.5905V467.968C40.5905 472.208 41.6891 475.436 43.8862 477.653C46.1026 479.85 49.2826 480.948 53.4263 480.948C56.1438 480.948 58.4566 480.467 60.3646 479.503C62.2727 478.52 63.7278 477.094 64.73 475.224C65.7322 473.336 66.2333 471.052 66.2333 468.373V440.735H69.2109Z" fill="white"/>
<path d="M80.688 483.001V440.735H83.6657V483.001H80.688Z" fill="white"/>
<path d="M95.6053 483.001V440.735H98.583V480.283H118.704V483.001H95.6053Z" fill="white"/>
<path d="M137.004 483.001H133.997V443.424H120.294V440.735H150.707V443.424H137.004V483.001Z" fill="white"/>
<path d="M203.525 440.735V468.084C203.525 471.379 202.889 474.184 201.617 476.496C200.345 478.79 198.514 480.544 196.124 481.758C193.753 482.972 190.91 483.579 187.595 483.579C182.565 483.579 178.701 482.22 176.003 479.503C173.304 476.766 171.955 472.921 171.955 467.968V440.735H174.904V467.968C174.904 472.208 176.003 475.436 178.2 477.653C180.416 479.85 183.596 480.948 187.74 480.948C190.457 480.948 192.77 480.467 194.678 479.503C196.586 478.52 198.041 477.094 199.044 475.224C200.046 473.336 200.547 471.052 200.547 468.373V440.735H203.525Z" fill="white"/>
<path d="M238.274 472.102C238.274 474.627 237.638 476.747 236.366 478.462C235.094 480.158 233.369 481.44 231.191 482.307C229.013 483.155 226.546 483.579 223.79 483.579C222.075 483.579 220.514 483.492 219.107 483.319C217.719 483.165 216.457 482.953 215.32 482.683C214.202 482.413 213.18 482.105 212.255 481.758V478.78C213.759 479.358 215.493 479.869 217.459 480.312C219.444 480.736 221.603 480.948 223.935 480.948C226.132 480.948 228.078 480.63 229.774 479.994C231.49 479.358 232.839 478.395 233.822 477.103C234.805 475.812 235.296 474.184 235.296 472.218C235.296 470.483 234.882 469.067 234.053 467.968C233.244 466.85 232.02 465.896 230.382 465.106C228.743 464.296 226.681 463.477 224.195 462.649C222.46 462.051 220.88 461.425 219.454 460.77C218.047 460.095 216.842 459.324 215.84 458.457C214.838 457.57 214.067 456.51 213.527 455.277C213.007 454.024 212.747 452.55 212.747 450.854C212.747 448.522 213.335 446.565 214.51 444.985C215.705 443.385 217.314 442.181 219.338 441.371C221.381 440.543 223.675 440.128 226.219 440.128C228.242 440.128 230.16 440.321 231.972 440.706C233.802 441.073 235.566 441.631 237.262 442.383L236.221 444.956C234.525 444.224 232.829 443.684 231.133 443.337C229.437 442.99 227.76 442.817 226.103 442.817C224.118 442.817 222.345 443.115 220.784 443.713C219.242 444.291 218.018 445.168 217.112 446.344C216.206 447.519 215.753 449.003 215.753 450.796C215.753 452.646 216.168 454.14 216.996 455.277C217.844 456.414 219.039 457.358 220.581 458.11C222.142 458.862 223.983 459.594 226.103 460.307C228.608 461.155 230.767 462.051 232.579 462.996C234.39 463.921 235.788 465.096 236.771 466.523C237.773 467.949 238.274 469.809 238.274 472.102Z" fill="white"/>
<path d="M247.323 483.001V440.735H250.3V483.001H247.323Z" fill="white"/>
<path d="M293 483.001H289.964L264.986 445.621H264.842C264.88 446.662 264.909 447.722 264.928 448.801C264.967 449.861 264.996 450.96 265.015 452.097C265.054 453.215 265.073 454.371 265.073 455.566V483.001H262.24V440.735H265.304L290.195 478H290.34C290.321 477.152 290.292 476.169 290.253 475.051C290.234 473.933 290.205 472.786 290.166 471.611C290.147 470.435 290.138 469.327 290.138 468.286V440.735H293V483.001Z" fill="white"/>
<path d="M321.649 461.666H337.173V481.064C335.15 481.912 332.991 482.548 330.698 482.972C328.404 483.377 325.966 483.579 323.383 483.579C318.893 483.579 315.106 482.731 312.022 481.035C308.958 479.32 306.635 476.843 305.055 473.605C303.474 470.367 302.684 466.474 302.684 461.926C302.684 457.686 303.542 453.918 305.257 450.622C306.992 447.327 309.468 444.744 312.687 442.875C315.906 441.005 319.76 440.07 324.251 440.07C326.563 440.07 328.741 440.282 330.784 440.706C332.847 441.13 334.803 441.766 336.653 442.614L335.468 445.274C333.637 444.426 331.767 443.79 329.859 443.366C327.97 442.942 326.053 442.73 324.106 442.73C320.29 442.73 317.004 443.549 314.248 445.187C311.511 446.806 309.411 449.061 307.946 451.952C306.5 454.824 305.778 458.139 305.778 461.897C305.778 466.156 306.481 469.693 307.888 472.507C309.295 475.321 311.347 477.431 314.046 478.838C316.763 480.245 320.059 480.948 323.933 480.948C326.053 480.948 327.951 480.794 329.628 480.486C331.324 480.177 332.856 479.773 334.225 479.272V464.383H321.649V461.666Z" fill="white"/>
<path d="M378.861 483.001H369.899V448.194H358.422V440.735H390.338V448.194H378.861V483.001Z" fill="white"/>
<path d="M431.476 483.001H422.543V464.759H405.805V483.001H396.843V440.735H405.805V457.3H422.543V440.735H431.476V483.001Z" fill="white"/>
<path d="M468.047 483.001L464.982 472.94H449.574L446.509 483.001H436.853L451.771 440.562H462.727L477.702 483.001H468.047ZM462.843 465.424L459.779 455.595C459.586 454.939 459.326 454.101 458.998 453.08C458.69 452.039 458.372 450.988 458.044 449.928C457.736 448.849 457.485 447.914 457.292 447.124C457.1 447.914 456.83 448.897 456.483 450.073C456.155 451.229 455.837 452.328 455.529 453.369C455.221 454.409 454.999 455.151 454.864 455.595L451.828 465.424H462.843Z" fill="white"/>
<path d="M483.051 483.001V440.735H492.013V475.6H509.156V483.001H483.051Z" fill="white"/>
<path d="M540.87 483.001H516.528V440.735H540.87V448.078H525.49V457.358H539.8V464.701H525.49V475.6H540.87V483.001Z" fill="white"/>
<path d="M574.665 471.264C574.665 473.769 574.058 475.947 572.844 477.797C571.629 479.647 569.856 481.074 567.524 482.076C565.212 483.078 562.398 483.579 559.083 483.579C557.618 483.579 556.182 483.483 554.775 483.29C553.388 483.097 552.048 482.818 550.757 482.452C549.485 482.066 548.271 481.594 547.114 481.035V472.709C549.119 473.596 551.2 474.396 553.359 475.109C555.517 475.822 557.657 476.178 559.777 476.178C561.241 476.178 562.417 475.986 563.304 475.6C564.209 475.215 564.865 474.685 565.269 474.01C565.674 473.336 565.877 472.565 565.877 471.697C565.877 470.637 565.52 469.731 564.807 468.98C564.094 468.228 563.111 467.525 561.858 466.869C560.625 466.214 559.227 465.511 557.666 464.759C556.683 464.296 555.614 463.738 554.457 463.082C553.301 462.408 552.202 461.589 551.162 460.625C550.121 459.661 549.263 458.495 548.589 457.127C547.933 455.739 547.606 454.082 547.606 452.154C547.606 449.63 548.184 447.471 549.34 445.679C550.497 443.886 552.145 442.518 554.284 441.574C556.442 440.61 558.986 440.128 561.916 440.128C564.113 440.128 566.204 440.388 568.189 440.909C570.194 441.41 572.285 442.142 574.463 443.106L571.572 450.073C569.625 449.283 567.881 448.676 566.339 448.252C564.797 447.808 563.226 447.587 561.627 447.587C560.509 447.587 559.555 447.77 558.765 448.136C557.975 448.483 557.377 448.984 556.972 449.639C556.568 450.275 556.365 451.017 556.365 451.865C556.365 452.868 556.654 453.716 557.233 454.409C557.83 455.084 558.717 455.739 559.892 456.375C561.087 457.011 562.571 457.753 564.344 458.601C566.503 459.623 568.343 460.692 569.866 461.81C571.408 462.909 572.593 464.21 573.422 465.713C574.251 467.197 574.665 469.047 574.665 471.264Z" fill="white"/>
<path d="M608.72 440.735C613.751 440.735 617.519 441.699 620.024 443.626C622.53 445.553 623.782 448.55 623.782 452.617C623.782 454.699 623.445 456.549 622.77 458.168C622.115 459.767 621.123 461.116 619.793 462.215C618.463 463.314 616.796 464.142 614.791 464.701C612.806 465.26 610.484 465.54 607.824 465.54H601.32V483.001H598.342V440.735H608.72ZM608.402 443.366H601.32V462.909H607.535C610.272 462.909 612.623 462.6 614.589 461.984C616.555 461.348 618.068 460.288 619.128 458.804C620.188 457.32 620.718 455.296 620.718 452.733C620.718 449.476 619.716 447.105 617.711 445.621C615.707 444.118 612.604 443.366 608.402 443.366Z" fill="white"/>
<path d="M643.238 440.735C646.592 440.735 649.386 441.101 651.622 441.834C653.877 442.566 655.573 443.771 656.71 445.447C657.847 447.124 658.416 449.389 658.416 452.241C658.416 454.381 658.021 456.221 657.231 457.763C656.46 459.286 655.39 460.538 654.022 461.521C652.653 462.504 651.073 463.256 649.28 463.776L660.873 483.001H657.346L646.447 464.614H635.953V483.001H632.976V440.735H643.238ZM642.949 443.366H635.953V461.984H644.366C647.816 461.984 650.504 461.155 652.432 459.498C654.378 457.84 655.352 455.46 655.352 452.357C655.352 448.946 654.33 446.594 652.287 445.303C650.244 444.012 647.132 443.366 642.949 443.366Z" fill="white"/>
<path d="M703.746 461.81C703.746 465.029 703.351 467.968 702.561 470.628C701.771 473.287 700.585 475.581 699.005 477.508C697.424 479.435 695.449 480.929 693.078 481.989C690.727 483.049 687.981 483.579 684.839 483.579C681.678 483.579 678.913 483.049 676.542 481.989C674.172 480.929 672.196 479.435 670.616 477.508C669.055 475.562 667.879 473.258 667.089 470.599C666.299 467.92 665.903 464.971 665.903 461.752C665.903 457.474 666.626 453.706 668.072 450.449C669.536 447.192 671.685 444.648 674.518 442.817C677.371 440.986 680.888 440.07 685.07 440.07C689.079 440.07 692.471 440.947 695.247 442.701C698.041 444.436 700.152 446.932 701.578 450.189C703.023 453.427 703.746 457.3 703.746 461.81ZM669.026 461.781C669.026 465.559 669.594 468.893 670.731 471.784C671.868 474.656 673.613 476.901 675.964 478.52C678.315 480.139 681.283 480.948 684.868 480.948C688.491 480.948 691.469 480.149 693.801 478.549C696.133 476.949 697.858 474.714 698.976 471.842C700.094 468.97 700.653 465.626 700.653 461.81C700.653 455.778 699.332 451.094 696.692 447.76C694.071 444.426 690.197 442.759 685.07 442.759C681.466 442.759 678.469 443.559 676.08 445.158C673.709 446.758 671.936 448.984 670.76 451.836C669.604 454.689 669.026 458.004 669.026 461.781Z" fill="white"/>
<path d="M724.503 483.001H721.496V443.424H707.793V440.735H738.206V443.424H724.503V483.001Z" fill="white"/>
<path d="M780.067 461.81C780.067 465.029 779.672 467.968 778.882 470.628C778.092 473.287 776.906 475.581 775.326 477.508C773.746 479.435 771.77 480.929 769.399 481.989C767.048 483.049 764.302 483.579 761.16 483.579C758 483.579 755.234 483.049 752.863 481.989C750.493 480.929 748.517 479.435 746.937 477.508C745.376 475.562 744.2 473.258 743.41 470.599C742.62 467.92 742.225 464.971 742.225 461.752C742.225 457.474 742.947 453.706 744.393 450.449C745.858 447.192 748.006 444.648 750.84 442.817C753.692 440.986 757.209 440.07 761.392 440.07C765.4 440.07 768.792 440.947 771.568 442.701C774.362 444.436 776.473 446.932 777.899 450.189C779.344 453.427 780.067 457.3 780.067 461.81ZM745.347 461.781C745.347 465.559 745.915 468.893 747.052 471.784C748.19 474.656 749.934 476.901 752.285 478.52C754.636 480.139 757.604 480.948 761.189 480.948C764.813 480.948 767.79 480.149 770.122 478.549C772.454 476.949 774.179 474.714 775.297 471.842C776.415 468.97 776.974 465.626 776.974 461.81C776.974 455.778 775.654 451.094 773.013 447.76C770.392 444.426 766.518 442.759 761.392 442.759C757.787 442.759 754.791 443.559 752.401 445.158C750.03 446.758 748.257 448.984 747.081 451.836C745.925 454.689 745.347 458.004 745.347 461.781Z" fill="white"/>
<path d="M807.734 442.817C805.035 442.817 802.626 443.279 800.506 444.204C798.386 445.11 796.594 446.401 795.129 448.078C793.664 449.755 792.546 451.759 791.776 454.091C791.005 456.404 790.619 458.958 790.619 461.752C790.619 465.607 791.226 468.98 792.44 471.871C793.655 474.742 795.476 476.969 797.904 478.549C800.352 480.129 803.397 480.919 807.04 480.919C809.16 480.919 811.087 480.765 812.822 480.457C814.556 480.129 816.166 479.715 817.65 479.214V481.816C816.243 482.336 814.653 482.76 812.879 483.088C811.126 483.415 809.083 483.579 806.751 483.579C802.53 483.579 798.984 482.673 796.112 480.862C793.26 479.05 791.111 476.506 789.665 473.23C788.22 469.953 787.497 466.127 787.497 461.752C787.497 458.611 787.95 455.73 788.856 453.109C789.761 450.468 791.082 448.184 792.816 446.257C794.57 444.31 796.7 442.807 799.205 441.747C801.711 440.668 804.563 440.128 807.762 440.128C809.786 440.128 811.713 440.33 813.544 440.735C815.395 441.121 817.129 441.689 818.748 442.441L817.592 445.043C816.031 444.272 814.431 443.713 812.793 443.366C811.155 443 809.468 442.817 807.734 442.817Z" fill="white"/>
<path d="M862.112 461.81C862.112 465.029 861.717 467.968 860.927 470.628C860.137 473.287 858.952 475.581 857.371 477.508C855.791 479.435 853.815 480.929 851.445 481.989C849.093 483.049 846.347 483.579 843.206 483.579C840.045 483.579 837.279 483.049 834.909 481.989C832.538 480.929 830.562 479.435 828.982 477.508C827.421 475.562 826.245 473.258 825.455 470.599C824.665 467.92 824.27 464.971 824.27 461.752C824.27 457.474 824.993 453.706 826.438 450.449C827.903 447.192 830.052 444.648 832.885 442.817C835.737 440.986 839.255 440.07 843.437 440.07C847.446 440.07 850.838 440.947 853.613 442.701C856.408 444.436 858.518 446.932 859.944 450.189C861.39 453.427 862.112 457.3 862.112 461.81ZM827.392 461.781C827.392 465.559 827.961 468.893 829.098 471.784C830.235 474.656 831.979 476.901 834.33 478.52C836.682 480.139 839.65 480.948 843.234 480.948C846.858 480.948 849.835 480.149 852.167 478.549C854.5 476.949 856.224 474.714 857.342 471.842C858.46 468.97 859.019 465.626 859.019 461.81C859.019 455.778 857.699 451.094 855.058 447.76C852.437 444.426 848.563 442.759 843.437 442.759C839.833 442.759 836.836 443.559 834.446 445.158C832.075 446.758 830.302 448.984 829.127 451.836C827.97 454.689 827.392 458.004 827.392 461.781Z" fill="white"/>
<path d="M871.826 483.001V440.735H874.804V480.283H894.925V483.001H871.826Z" fill="white"/>
</svg>
