<svg width="305" height="575" viewBox="0 0 305 575" fill="none" xmlns="http://www.w3.org/2000/svg">
<path d="M53.39 564.33C51.11 564.33 49.16 563.88 47.54 562.98C45.92 562.08 44.67 560.82 43.79 559.2C42.93 557.56 42.5 555.63 42.5 553.41C42.5 551.75 42.74 550.26 43.22 548.94C43.72 547.6 44.44 546.46 45.38 545.52C46.32 544.56 47.46 543.82 48.8 543.3C50.16 542.78 51.69 542.52 53.39 542.52C54.39 542.52 55.4 542.65 56.42 542.91C57.46 543.15 58.36 543.5 59.12 543.96C59.62 544.24 59.96 544.59 60.14 545.01C60.32 545.43 60.37 545.85 60.29 546.27C60.23 546.69 60.06 547.05 59.78 547.35C59.52 547.65 59.19 547.84 58.79 547.92C58.39 548 57.94 547.91 57.44 547.65C56.84 547.29 56.21 547.03 55.55 546.87C54.89 546.71 54.22 546.63 53.54 546.63C52.2 546.63 51.07 546.9 50.15 547.44C49.25 547.96 48.57 548.72 48.11 549.72C47.65 550.72 47.42 551.95 47.42 553.41C47.42 554.85 47.65 556.08 48.11 557.1C48.57 558.12 49.25 558.9 50.15 559.44C51.07 559.96 52.2 560.22 53.54 560.22C54.18 560.22 54.83 560.14 55.49 559.98C56.17 559.82 56.82 559.57 57.44 559.23C57.96 558.97 58.42 558.88 58.82 558.96C59.24 559.02 59.58 559.2 59.84 559.5C60.12 559.78 60.29 560.12 60.35 560.52C60.43 560.92 60.39 561.32 60.23 561.72C60.07 562.12 59.77 562.46 59.33 562.74C58.59 563.24 57.68 563.63 56.6 563.91C55.52 564.19 54.45 564.33 53.39 564.33ZM72.7447 564.33C70.6647 564.33 68.8347 563.88 67.2547 562.98C65.6947 562.06 64.4747 560.78 63.5947 559.14C62.7347 557.5 62.3047 555.59 62.3047 553.41C62.3047 551.75 62.5447 550.26 63.0247 548.94C63.5247 547.6 64.2347 546.46 65.1547 545.52C66.0747 544.56 67.1747 543.82 68.4547 543.3C69.7547 542.78 71.1847 542.52 72.7447 542.52C74.8647 542.52 76.7047 542.97 78.2647 543.87C79.8247 544.77 81.0347 546.04 81.8947 547.68C82.7747 549.3 83.2147 551.2 83.2147 553.38C83.2147 555.04 82.9647 556.54 82.4647 557.88C81.9647 559.22 81.2547 560.37 80.3347 561.33C79.4147 562.29 78.3147 563.03 77.0347 563.55C75.7547 564.07 74.3247 564.33 72.7447 564.33ZM72.7447 560.37C73.9247 560.37 74.9247 560.1 75.7447 559.56C76.5847 559 77.2247 558.2 77.6647 557.16C78.1247 556.1 78.3547 554.85 78.3547 553.41C78.3547 551.21 77.8647 549.51 76.8847 548.31C75.9047 547.09 74.5247 546.48 72.7447 546.48C71.5847 546.48 70.5847 546.75 69.7447 547.29C68.9047 547.83 68.2647 548.62 67.8247 549.66C67.3847 550.7 67.1647 551.95 67.1647 553.41C67.1647 555.59 67.6547 557.3 68.6347 558.54C69.6147 559.76 70.9847 560.37 72.7447 560.37ZM88.9716 564.27C88.2916 564.27 87.7716 564.08 87.4116 563.7C87.0516 563.32 86.8716 562.79 86.8716 562.11V544.74C86.8716 544.06 87.0616 543.53 87.4416 543.15C87.8416 542.77 88.3816 542.58 89.0616 542.58C89.6616 542.58 90.1316 542.7 90.4716 542.94C90.8316 543.16 91.1616 543.55 91.4616 544.11L98.3916 556.77H97.3716L104.302 544.11C104.602 543.55 104.922 543.16 105.262 542.94C105.622 542.7 106.092 542.58 106.672 542.58C107.352 542.58 107.872 542.77 108.232 543.15C108.612 543.53 108.802 544.06 108.802 544.74V562.11C108.802 562.79 108.622 563.32 108.262 563.7C107.902 564.08 107.382 564.27 106.702 564.27C106.022 564.27 105.492 564.08 105.112 563.7C104.752 563.32 104.572 562.79 104.572 562.11V549.96H105.232L99.6516 559.95C99.4116 560.33 99.1516 560.62 98.8716 560.82C98.6116 561 98.2616 561.09 97.8216 561.09C97.3816 561.09 97.0216 560.99 96.7416 560.79C96.4616 560.59 96.2116 560.31 95.9916 559.95L90.3516 549.93H91.0716V562.11C91.0716 562.79 90.8916 563.32 90.5316 563.7C90.1916 564.08 89.6716 564.27 88.9716 564.27ZM115.431 564.27C114.671 564.27 114.091 564.06 113.691 563.64C113.291 563.22 113.091 562.63 113.091 561.87V544.98C113.091 544.22 113.291 543.63 113.691 543.21C114.091 542.79 114.671 542.58 115.431 542.58C116.171 542.58 116.741 542.79 117.141 543.21C117.541 543.63 117.741 544.22 117.741 544.98V561.87C117.741 562.63 117.541 563.22 117.141 563.64C116.761 564.06 116.191 564.27 115.431 564.27ZM124.157 564.27C123.457 564.27 122.917 564.08 122.537 563.7C122.177 563.3 121.997 562.74 121.997 562.02V544.92C121.997 544.16 122.177 543.58 122.537 543.18C122.917 542.78 123.417 542.58 124.037 542.58C124.577 542.58 124.987 542.69 125.267 542.91C125.567 543.11 125.907 543.45 126.287 543.93L136.817 557.34H136.007V544.8C136.007 544.1 136.187 543.56 136.547 543.18C136.927 542.78 137.467 542.58 138.167 542.58C138.867 542.58 139.397 542.78 139.757 543.18C140.137 543.56 140.327 544.1 140.327 544.8V562.11C140.327 562.77 140.157 563.3 139.817 563.7C139.477 564.08 139.017 564.27 138.437 564.27C137.877 564.27 137.427 564.16 137.087 563.94C136.767 563.72 136.417 563.37 136.037 562.89L125.537 549.48H126.317V562.02C126.317 562.74 126.137 563.3 125.777 563.7C125.417 564.08 124.877 564.27 124.157 564.27ZM155.055 564.33C152.675 564.33 150.655 563.88 148.995 562.98C147.355 562.08 146.105 560.82 145.245 559.2C144.385 557.58 143.955 555.68 143.955 553.5C143.955 551.82 144.205 550.31 144.705 548.97C145.225 547.61 145.965 546.46 146.925 545.52C147.905 544.56 149.085 543.82 150.465 543.3C151.865 542.78 153.445 542.52 155.205 542.52C156.285 542.52 157.365 542.64 158.445 542.88C159.525 543.12 160.565 543.52 161.565 544.08C161.985 544.32 162.265 544.63 162.405 545.01C162.565 545.37 162.605 545.76 162.525 546.18C162.465 546.58 162.305 546.94 162.045 547.26C161.805 547.56 161.485 547.76 161.085 547.86C160.705 547.94 160.265 547.86 159.765 547.62C159.105 547.26 158.405 547 157.665 546.84C156.925 546.66 156.115 546.57 155.235 546.57C153.815 546.57 152.625 546.84 151.665 547.38C150.705 547.9 149.985 548.68 149.505 549.72C149.045 550.74 148.815 552 148.815 553.5C148.815 555.76 149.355 557.47 150.435 558.63C151.535 559.79 153.155 560.37 155.295 560.37C156.015 560.37 156.755 560.3 157.515 560.16C158.275 560.02 159.025 559.82 159.765 559.56L158.895 561.45V555.69H156.195C155.595 555.69 155.135 555.54 154.815 555.24C154.495 554.94 154.335 554.53 154.335 554.01C154.335 553.47 154.495 553.06 154.815 552.78C155.135 552.48 155.595 552.33 156.195 552.33H160.905C161.505 552.33 161.955 552.49 162.255 552.81C162.575 553.13 162.735 553.59 162.735 554.19V561.15C162.735 561.67 162.635 562.11 162.435 562.47C162.235 562.83 161.895 563.09 161.415 563.25C160.515 563.57 159.505 563.83 158.385 564.03C157.265 564.23 156.155 564.33 155.055 564.33ZM182.79 564.33C181.95 564.33 181.09 564.26 180.21 564.12C179.35 564 178.52 563.82 177.72 563.58C176.94 563.34 176.24 563.04 175.62 562.68C175.18 562.44 174.87 562.13 174.69 561.75C174.51 561.35 174.44 560.95 174.48 560.55C174.54 560.15 174.69 559.8 174.93 559.5C175.19 559.18 175.51 558.98 175.89 558.9C176.29 558.8 176.73 558.87 177.21 559.11C178.03 559.57 178.92 559.91 179.88 560.13C180.86 560.35 181.83 560.46 182.79 560.46C184.25 560.46 185.29 560.24 185.91 559.8C186.53 559.34 186.84 558.77 186.84 558.09C186.84 557.51 186.62 557.05 186.18 556.71C185.74 556.37 184.97 556.08 183.87 555.84L180.48 555.12C178.56 554.72 177.13 554.04 176.19 553.08C175.27 552.1 174.81 550.82 174.81 549.24C174.81 548.24 175.02 547.33 175.44 546.51C175.86 545.69 176.45 544.98 177.21 544.38C177.97 543.78 178.87 543.32 179.91 543C180.97 542.68 182.13 542.52 183.39 542.52C184.51 542.52 185.61 542.66 186.69 542.94C187.77 543.2 188.72 543.59 189.54 544.11C189.94 544.35 190.21 544.66 190.35 545.04C190.51 545.4 190.56 545.77 190.5 546.15C190.46 546.51 190.31 546.83 190.05 547.11C189.81 547.39 189.5 547.57 189.12 547.65C188.74 547.73 188.28 547.64 187.74 547.38C187.08 547.04 186.38 546.79 185.64 546.63C184.9 546.47 184.14 546.39 183.36 546.39C182.52 546.39 181.8 546.5 181.2 546.72C180.62 546.94 180.17 547.25 179.85 547.65C179.55 548.05 179.4 548.51 179.4 549.03C179.4 549.61 179.61 550.08 180.03 550.44C180.45 550.8 181.18 551.09 182.22 551.31L185.61 552.03C187.57 552.45 189.03 553.13 189.99 554.07C190.95 554.99 191.43 556.21 191.43 557.73C191.43 558.73 191.23 559.64 190.83 560.46C190.43 561.26 189.85 561.95 189.09 562.53C188.33 563.11 187.42 563.56 186.36 563.88C185.3 564.18 184.11 564.33 182.79 564.33ZM204.258 564.33C202.178 564.33 200.348 563.88 198.768 562.98C197.208 562.06 195.988 560.78 195.108 559.14C194.248 557.5 193.818 555.59 193.818 553.41C193.818 551.75 194.058 550.26 194.538 548.94C195.038 547.6 195.748 546.46 196.668 545.52C197.588 544.56 198.688 543.82 199.968 543.3C201.268 542.78 202.698 542.52 204.258 542.52C206.378 542.52 208.218 542.97 209.778 543.87C211.338 544.77 212.548 546.04 213.408 547.68C214.288 549.3 214.728 551.2 214.728 553.38C214.728 555.04 214.478 556.54 213.978 557.88C213.478 559.22 212.768 560.37 211.848 561.33C210.928 562.29 209.828 563.03 208.548 563.55C207.268 564.07 205.838 564.33 204.258 564.33ZM204.258 560.37C205.438 560.37 206.438 560.1 207.258 559.56C208.098 559 208.738 558.2 209.178 557.16C209.638 556.1 209.868 554.85 209.868 553.41C209.868 551.21 209.378 549.51 208.398 548.31C207.418 547.09 206.038 546.48 204.258 546.48C203.098 546.48 202.098 546.75 201.258 547.29C200.418 547.83 199.778 548.62 199.338 549.66C198.898 550.7 198.678 551.95 198.678 553.41C198.678 555.59 199.168 557.3 200.148 558.54C201.128 559.76 202.498 560.37 204.258 560.37ZM228.135 564.33C226.055 564.33 224.225 563.88 222.645 562.98C221.085 562.06 219.865 560.78 218.985 559.14C218.125 557.5 217.695 555.59 217.695 553.41C217.695 551.75 217.935 550.26 218.415 548.94C218.915 547.6 219.625 546.46 220.545 545.52C221.465 544.56 222.565 543.82 223.845 543.3C225.145 542.78 226.575 542.52 228.135 542.52C230.255 542.52 232.095 542.97 233.655 543.87C235.215 544.77 236.425 546.04 237.285 547.68C238.165 549.3 238.605 551.2 238.605 553.38C238.605 555.04 238.355 556.54 237.855 557.88C237.355 559.22 236.645 560.37 235.725 561.33C234.805 562.29 233.705 563.03 232.425 563.55C231.145 564.07 229.715 564.33 228.135 564.33ZM228.135 560.37C229.315 560.37 230.315 560.1 231.135 559.56C231.975 559 232.615 558.2 233.055 557.16C233.515 556.1 233.745 554.85 233.745 553.41C233.745 551.21 233.255 549.51 232.275 548.31C231.295 547.09 229.915 546.48 228.135 546.48C226.975 546.48 225.975 546.75 225.135 547.29C224.295 547.83 223.655 548.62 223.215 549.66C222.775 550.7 222.555 551.95 222.555 553.41C222.555 555.59 223.045 557.3 224.025 558.54C225.005 559.76 226.375 560.37 228.135 560.37ZM244.362 564.27C243.662 564.27 243.122 564.08 242.742 563.7C242.382 563.3 242.202 562.74 242.202 562.02V544.92C242.202 544.16 242.382 543.58 242.742 543.18C243.122 542.78 243.622 542.58 244.242 542.58C244.782 542.58 245.192 542.69 245.472 542.91C245.772 543.11 246.112 543.45 246.492 543.93L257.022 557.34H256.212V544.8C256.212 544.1 256.392 543.56 256.752 543.18C257.132 542.78 257.672 542.58 258.372 542.58C259.072 542.58 259.602 542.78 259.962 543.18C260.342 543.56 260.532 544.1 260.532 544.8V562.11C260.532 562.77 260.362 563.3 260.022 563.7C259.682 564.08 259.222 564.27 258.642 564.27C258.082 564.27 257.632 564.16 257.292 563.94C256.972 563.72 256.622 563.37 256.242 562.89L245.742 549.48H246.522V562.02C246.522 562.74 246.342 563.3 245.982 563.7C245.622 564.08 245.082 564.27 244.362 564.27Z" fill="#EAEBF1"/>
<path fill-rule="evenodd" clip-rule="evenodd" d="M27.4216 46.9836C24.1708 46.9836 21.1398 46.3914 18.3283 45.2069C16.1627 44.2607 14.2055 43.0412 12.4569 41.5483L8.11744 45.8426H0L8.68894 37.4196C7.62343 35.9262 6.72925 34.3105 6.00639 32.5727C4.86424 29.7212 4.29317 26.6723 4.29317 23.426C4.29317 20.1358 4.86424 17.0869 6.00639 14.2793C7.19246 11.4279 8.81781 8.92733 10.8825 6.77775C12.991 4.62817 15.4291 2.96115 18.1966 1.77669C21.008 0.592231 24.0391 0 27.2898 0C30.5405 0 33.5496 0.592231 36.3171 1.77669C38.3856 2.64817 40.2639 3.78089 41.952 5.17483L46.7947 0.480384L53.8456 0.480385L53.8444 0.477497H60.5655L74.4412 35.9972L88.4381 0.477497H95.0933L76.6433 46.145H72.1626L53.8773 0.55942L45.5017 8.84773C46.7698 10.4891 47.8156 12.2996 48.639 14.2793C49.8251 17.1308 50.4182 20.2016 50.4182 23.4918C50.4182 26.7381 49.8251 29.787 48.639 32.6385C47.453 35.49 45.8057 37.9905 43.6971 40.1401C41.6324 42.2896 39.1944 43.9786 36.383 45.2069C33.6155 46.3914 30.6283 46.9836 27.4216 46.9836ZM20.5687 39.7452C19.1356 39.123 17.835 38.3353 16.6671 37.382L41.1152 13.1886C41.7663 14.1912 42.3194 15.2786 42.7746 16.4508C43.6092 18.5566 44.0265 20.8816 44.0265 23.426C44.0265 26.8478 43.3017 29.8967 41.8521 32.5727C40.4024 35.2048 38.4257 37.2886 35.9217 38.824C33.4617 40.3155 30.5844 41.0613 27.2898 41.0613C24.8737 41.0613 22.6333 40.6226 20.5687 39.7452ZM37.6403 9.35455L13.1101 33.1338C12.6408 32.3189 12.2277 31.4519 11.8708 30.5328C11.0801 28.3393 10.6848 25.9704 10.6848 23.426C10.6848 20.0042 11.3876 16.9773 12.7933 14.3451C14.243 11.713 16.1978 9.65117 18.6578 8.15962C21.1617 6.66808 24.0391 5.92231 27.2898 5.92231C29.7498 5.92231 31.9901 6.36099 34.0108 7.23837C35.3336 7.78398 36.5434 8.48938 37.6403 9.35455ZM96.9289 0.477497V46.145H101.146H103.123H127.371V40.486H103.123V6.13658H127.042V0.477497H103.123H101.146H96.9289ZM143.448 26.2724V21.074H150.235C152.915 21.074 154.979 20.394 156.429 19.0341C157.879 17.6741 158.603 15.8316 158.603 13.5066C158.603 11.3131 157.879 9.49256 156.429 8.04488C155.023 6.59721 152.981 5.87337 150.301 5.87337H139.89V46.145H133.696V0.477497H137.847H139.89H150.499C153.398 0.477497 155.924 1.04779 158.076 2.18838C160.229 3.28511 161.876 4.79858 163.018 6.72882C164.204 8.65905 164.797 10.8744 164.797 13.375C164.797 15.9632 164.204 18.2225 163.018 20.1527C161.876 22.0829 160.229 23.5964 158.076 24.6931C156.168 25.6268 153.965 26.1465 151.469 26.2522L167.894 46.145H160.053L143.448 26.2724ZM196.732 6.68233H188.13V46.3256H181.936V6.68233H166.172V0.474871H205.327L196.732 6.68233ZM212.496 0.50323V0.477497L212.53 0.477491L218.69 0.477497V46.145H212.496V8.44756L202.937 15.6811L199.115 10.6296L212.496 0.50323ZM224.897 0.477497V46.145H231.091V13.9992L244.995 36.801H249.344L263.182 14.1074V46.145H269.376V0.477497H265.027L247.137 29.8281L229.246 0.477497H224.897ZM274.557 46.145V0.477497H278.774H280.751H304.67V6.13658H280.751V40.486H305V46.145H280.751H278.774H274.557ZM286.971 25.7848V20.0869H304.67V25.7848H286.971ZM127.014 20.5282H107.437V26.2582H127.014V20.5282Z" fill="white"/>
<path d="M41.0958 71.4271C40.4691 71.4271 39.8558 71.3737 39.2558 71.2671C38.6558 71.1604 38.0958 71.0071 37.5758 70.8071C37.0691 70.6071 36.6091 70.3537 36.1958 70.0471C36.0358 69.9271 35.9224 69.7937 35.8558 69.6471C35.8024 69.4871 35.7891 69.3337 35.8158 69.1871C35.8558 69.0271 35.9224 68.8937 36.0158 68.7871C36.1224 68.6804 36.2491 68.6204 36.3958 68.6071C36.5424 68.5937 36.7024 68.6404 36.8758 68.7471C37.4758 69.1737 38.1158 69.4871 38.7958 69.6871C39.4758 69.8737 40.2424 69.9671 41.0958 69.9671C42.2958 69.9671 43.1824 69.7471 43.7558 69.3071C44.3424 68.8537 44.6358 68.2604 44.6358 67.5271C44.6358 66.9271 44.4224 66.4604 43.9958 66.1271C43.5824 65.7804 42.8824 65.5071 41.8958 65.3071L39.8158 64.8871C38.5624 64.6204 37.6224 64.1871 36.9958 63.5871C36.3824 62.9737 36.0758 62.1604 36.0758 61.1471C36.0758 60.5204 36.2024 59.9537 36.4558 59.4471C36.7091 58.9271 37.0624 58.4871 37.5158 58.1271C37.9691 57.7537 38.5091 57.4671 39.1358 57.2671C39.7624 57.0671 40.4558 56.9671 41.2158 56.9671C42.0558 56.9671 42.8358 57.0871 43.5558 57.3271C44.2891 57.5537 44.9491 57.9004 45.5358 58.3671C45.6824 58.4871 45.7824 58.6271 45.8358 58.7871C45.8891 58.9337 45.8958 59.0804 45.8558 59.2271C45.8158 59.3604 45.7424 59.4737 45.6358 59.5671C45.5424 59.6604 45.4158 59.7137 45.2558 59.7271C45.1091 59.7404 44.9424 59.6871 44.7558 59.5671C44.2224 59.1671 43.6691 58.8804 43.0958 58.7071C42.5224 58.5204 41.8891 58.4271 41.1958 58.4271C40.4891 58.4271 39.8758 58.5337 39.3558 58.7471C38.8491 58.9604 38.4491 59.2737 38.1558 59.6871C37.8758 60.0871 37.7358 60.5537 37.7358 61.0871C37.7358 61.7271 37.9291 62.2337 38.3158 62.6071C38.7158 62.9804 39.3624 63.2537 40.2558 63.4271L42.3358 63.8671C43.6824 64.1471 44.6758 64.5737 45.3158 65.1471C45.9691 65.7071 46.2958 66.4737 46.2958 67.4471C46.2958 68.0337 46.1758 68.5737 45.9358 69.0671C45.6958 69.5604 45.3491 69.9871 44.8958 70.3471C44.4424 70.6937 43.8958 70.9604 43.2558 71.1471C42.6158 71.3337 41.8958 71.4271 41.0958 71.4271ZM49.6605 71.3871C49.3938 71.3871 49.1871 71.3137 49.0405 71.1671C48.9071 71.0071 48.8405 70.7937 48.8405 70.5271V57.9871C48.8405 57.7071 48.9138 57.5004 49.0605 57.3671C49.2071 57.2204 49.4138 57.1471 49.6805 57.1471H54.4205C55.9271 57.1471 57.0871 57.5204 57.9005 58.2671C58.7138 59.0004 59.1205 60.0404 59.1205 61.3871C59.1205 62.7204 58.7138 63.7604 57.9005 64.5071C57.0871 65.2537 55.9271 65.6271 54.4205 65.6271H50.4805V70.5271C50.4805 70.7937 50.4138 71.0071 50.2805 71.1671C50.1471 71.3137 49.9405 71.3871 49.6605 71.3871ZM50.4805 64.2471H54.2205C55.3005 64.2471 56.1138 64.0071 56.6605 63.5271C57.2205 63.0337 57.5005 62.3204 57.5005 61.3871C57.5005 60.4404 57.2205 59.7271 56.6605 59.2471C56.1138 58.7537 55.3005 58.5071 54.2205 58.5071H50.4805V64.2471ZM67.2605 71.4271C65.9538 71.4271 64.8138 71.1337 63.8405 70.5471C62.8805 69.9471 62.1338 69.1071 61.6005 68.0271C61.0805 66.9471 60.8205 65.6671 60.8205 64.1871C60.8205 63.0671 60.9671 62.0671 61.2605 61.1871C61.5671 60.2937 62.0005 59.5404 62.5605 58.9271C63.1205 58.3004 63.7938 57.8204 64.5805 57.4871C65.3805 57.1404 66.2738 56.9671 67.2605 56.9671C68.5938 56.9671 69.7405 57.2604 70.7005 57.8471C71.6738 58.4337 72.4205 59.2671 72.9405 60.3471C73.4738 61.4137 73.7405 62.6871 73.7405 64.1671C73.7405 65.2871 73.5871 66.2937 73.2805 67.1871C72.9738 68.0804 72.5405 68.8404 71.9805 69.4671C71.4205 70.0937 70.7405 70.5804 69.9405 70.9271C69.1538 71.2604 68.2605 71.4271 67.2605 71.4271ZM67.2605 69.9671C68.2738 69.9671 69.1271 69.7404 69.8205 69.2871C70.5271 68.8337 71.0671 68.1737 71.4405 67.3071C71.8138 66.4404 72.0005 65.4004 72.0005 64.1871C72.0005 62.3604 71.5871 60.9471 70.7605 59.9471C69.9471 58.9337 68.7805 58.4271 67.2605 58.4271C66.2738 58.4271 65.4271 58.6537 64.7205 59.1071C64.0271 59.5604 63.4938 60.2204 63.1205 61.0871C62.7471 61.9404 62.5605 62.9737 62.5605 64.1871C62.5605 66.0004 62.9738 67.4204 63.8005 68.4471C64.6271 69.4604 65.7805 69.9671 67.2605 69.9671ZM77.4925 71.3871C77.2258 71.3871 77.0192 71.3137 76.8725 71.1671C76.7392 71.0071 76.6725 70.7937 76.6725 70.5271V57.9871C76.6725 57.7071 76.7458 57.5004 76.8925 57.3671C77.0392 57.2204 77.2458 57.1471 77.5125 57.1471H82.2525C83.7592 57.1471 84.9192 57.5004 85.7325 58.2071C86.5458 58.9137 86.9525 59.9204 86.9525 61.2271C86.9525 62.0537 86.7658 62.7737 86.3925 63.3871C86.0325 63.9871 85.4992 64.4471 84.7925 64.7671C84.0858 65.0737 83.2392 65.2271 82.2525 65.2271L82.4525 64.9671H82.8525C83.3725 64.9671 83.8258 65.1004 84.2125 65.3671C84.5992 65.6337 84.9525 66.0604 85.2725 66.6471L87.1925 70.2271C87.2992 70.4137 87.3458 70.6004 87.3325 70.7871C87.3325 70.9604 87.2725 71.1071 87.1525 71.2271C87.0325 71.3337 86.8592 71.3871 86.6325 71.3871C86.4058 71.3871 86.2192 71.3337 86.0725 71.2271C85.9258 71.1204 85.7992 70.9671 85.6925 70.7671L83.5125 66.7271C83.2058 66.1537 82.8525 65.7737 82.4525 65.5871C82.0525 65.3871 81.5258 65.2871 80.8725 65.2871H78.3125V70.5271C78.3125 70.7937 78.2458 71.0071 78.1125 71.1671C77.9792 71.3137 77.7725 71.3871 77.4925 71.3871ZM78.3125 63.9871H82.0125C83.1058 63.9871 83.9325 63.7604 84.4925 63.3071C85.0525 62.8404 85.3325 62.1471 85.3325 61.2271C85.3325 60.3337 85.0525 59.6604 84.4925 59.2071C83.9325 58.7404 83.1058 58.5071 82.0125 58.5071H78.3125V63.9871ZM93.9408 71.3871C93.6874 71.3871 93.4874 71.3137 93.3408 71.1671C93.1941 71.0071 93.1208 70.7937 93.1208 70.5271V58.5671H88.6208C88.3808 58.5671 88.1941 58.5004 88.0608 58.3671C87.9274 58.2337 87.8608 58.0604 87.8608 57.8471C87.8608 57.6204 87.9274 57.4471 88.0608 57.3271C88.1941 57.2071 88.3808 57.1471 88.6208 57.1471H99.2808C99.5208 57.1471 99.7074 57.2071 99.8408 57.3271C99.9741 57.4471 100.041 57.6204 100.041 57.8471C100.041 58.0737 99.9741 58.2537 99.8408 58.3871C99.7074 58.5071 99.5208 58.5671 99.2808 58.5671H94.7808V70.5271C94.7808 70.7937 94.7074 71.0071 94.5608 71.1671C94.4274 71.3137 94.2208 71.3871 93.9408 71.3871ZM105.764 71.4271C105.137 71.4271 104.524 71.3737 103.924 71.2671C103.324 71.1604 102.764 71.0071 102.244 70.8071C101.737 70.6071 101.277 70.3537 100.864 70.0471C100.704 69.9271 100.59 69.7937 100.524 69.6471C100.47 69.4871 100.457 69.3337 100.484 69.1871C100.524 69.0271 100.59 68.8937 100.684 68.7871C100.79 68.6804 100.917 68.6204 101.064 68.6071C101.21 68.5937 101.37 68.6404 101.544 68.7471C102.144 69.1737 102.784 69.4871 103.464 69.6871C104.144 69.8737 104.91 69.9671 105.764 69.9671C106.964 69.9671 107.85 69.7471 108.424 69.3071C109.01 68.8537 109.304 68.2604 109.304 67.5271C109.304 66.9271 109.09 66.4604 108.664 66.1271C108.25 65.7804 107.55 65.5071 106.564 65.3071L104.484 64.8871C103.23 64.6204 102.29 64.1871 101.664 63.5871C101.05 62.9737 100.744 62.1604 100.744 61.1471C100.744 60.5204 100.87 59.9537 101.124 59.4471C101.377 58.9271 101.73 58.4871 102.184 58.1271C102.637 57.7537 103.177 57.4671 103.804 57.2671C104.43 57.0671 105.124 56.9671 105.884 56.9671C106.724 56.9671 107.504 57.0871 108.224 57.3271C108.957 57.5537 109.617 57.9004 110.204 58.3671C110.35 58.4871 110.45 58.6271 110.504 58.7871C110.557 58.9337 110.564 59.0804 110.524 59.2271C110.484 59.3604 110.41 59.4737 110.304 59.5671C110.21 59.6604 110.084 59.7137 109.924 59.7271C109.777 59.7404 109.61 59.6871 109.424 59.5671C108.89 59.1671 108.337 58.8804 107.764 58.7071C107.19 58.5204 106.557 58.4271 105.864 58.4271C105.157 58.4271 104.544 58.5337 104.024 58.7471C103.517 58.9604 103.117 59.2737 102.824 59.6871C102.544 60.0871 102.404 60.5537 102.404 61.0871C102.404 61.7271 102.597 62.2337 102.984 62.6071C103.384 62.9804 104.03 63.2537 104.924 63.4271L107.004 63.8671C108.35 64.1471 109.344 64.5737 109.984 65.1471C110.637 65.7071 110.964 66.4737 110.964 67.4471C110.964 68.0337 110.844 68.5737 110.604 69.0671C110.364 69.5604 110.017 69.9871 109.564 70.3471C109.11 70.6937 108.564 70.9604 107.924 71.1471C107.284 71.3337 106.564 71.4271 105.764 71.4271ZM119.465 71.3871C119.225 71.3871 119.038 71.3204 118.905 71.1871C118.771 71.0404 118.705 70.8404 118.705 70.5871V57.8071C118.705 57.5404 118.771 57.3404 118.905 57.2071C119.038 57.0737 119.225 57.0071 119.465 57.0071C119.678 57.0071 119.845 57.0537 119.965 57.1471C120.098 57.2271 120.218 57.3671 120.325 57.5671L125.805 67.8871H125.205L130.665 57.5671C130.771 57.3671 130.885 57.2271 131.005 57.1471C131.125 57.0537 131.298 57.0071 131.525 57.0071C131.751 57.0071 131.931 57.0737 132.065 57.2071C132.198 57.3404 132.265 57.5404 132.265 57.8071V70.5871C132.265 70.8404 132.198 71.0404 132.065 71.1871C131.945 71.3204 131.758 71.3871 131.505 71.3871C131.265 71.3871 131.078 71.3204 130.945 71.1871C130.811 71.0404 130.745 70.8404 130.745 70.5871V59.3471H131.225L126.225 68.7271C126.131 68.9004 126.031 69.0271 125.925 69.1071C125.831 69.1737 125.691 69.2071 125.505 69.2071C125.318 69.2071 125.171 69.1671 125.065 69.0871C124.958 69.0071 124.865 68.8871 124.785 68.7271L119.725 59.3271H120.205V70.5871C120.205 70.8404 120.138 71.0404 120.005 71.1871C119.885 71.3204 119.705 71.3871 119.465 71.3871ZM135.474 71.3871C135.261 71.3871 135.087 71.3404 134.954 71.2471C134.834 71.1404 134.761 71.0071 134.734 70.8471C134.721 70.6737 134.761 70.4804 134.854 70.2671L140.354 57.7471C140.474 57.4804 140.614 57.2937 140.774 57.1871C140.947 57.0671 141.134 57.0071 141.334 57.0071C141.534 57.0071 141.714 57.0671 141.874 57.1871C142.047 57.2937 142.187 57.4804 142.294 57.7471L147.814 70.2671C147.921 70.4804 147.961 70.6737 147.934 70.8471C147.921 71.0204 147.854 71.1537 147.734 71.2471C147.614 71.3404 147.447 71.3871 147.234 71.3871C146.994 71.3871 146.801 71.3271 146.654 71.2071C146.507 71.0737 146.387 70.8871 146.294 70.6471L144.814 67.2271L145.614 67.6471H137.014L137.834 67.2271L136.374 70.6471C136.254 70.9004 136.127 71.0871 135.994 71.2071C135.861 71.3271 135.687 71.3871 135.474 71.3871ZM141.314 59.0671L138.094 66.6471L137.614 66.2671H145.014L144.574 66.6471L141.354 59.0671H141.314ZM151.164 71.3871C150.898 71.3871 150.691 71.3137 150.544 71.1671C150.411 71.0071 150.344 70.7937 150.344 70.5271V57.9871C150.344 57.7071 150.418 57.5004 150.564 57.3671C150.711 57.2204 150.918 57.1471 151.184 57.1471H155.924C157.431 57.1471 158.591 57.5004 159.404 58.2071C160.218 58.9137 160.624 59.9204 160.624 61.2271C160.624 62.0537 160.438 62.7737 160.064 63.3871C159.704 63.9871 159.171 64.4471 158.464 64.7671C157.758 65.0737 156.911 65.2271 155.924 65.2271L156.124 64.9671H156.524C157.044 64.9671 157.498 65.1004 157.884 65.3671C158.271 65.6337 158.624 66.0604 158.944 66.6471L160.864 70.2271C160.971 70.4137 161.018 70.6004 161.004 70.7871C161.004 70.9604 160.944 71.1071 160.824 71.2271C160.704 71.3337 160.531 71.3871 160.304 71.3871C160.078 71.3871 159.891 71.3337 159.744 71.2271C159.598 71.1204 159.471 70.9671 159.364 70.7671L157.184 66.7271C156.878 66.1537 156.524 65.7737 156.124 65.5871C155.724 65.3871 155.198 65.2871 154.544 65.2871H151.984V70.5271C151.984 70.7937 151.918 71.0071 151.784 71.1671C151.651 71.3137 151.444 71.3871 151.164 71.3871ZM151.984 63.9871H155.684C156.778 63.9871 157.604 63.7604 158.164 63.3071C158.724 62.8404 159.004 62.1471 159.004 61.2271C159.004 60.3337 158.724 59.6604 158.164 59.2071C157.604 58.7404 156.778 58.5071 155.684 58.5071H151.984V63.9871ZM164.543 71.3871C164.277 71.3871 164.07 71.3137 163.923 71.1671C163.79 71.0071 163.723 70.7937 163.723 70.5271V57.8471C163.723 57.5671 163.79 57.3604 163.923 57.2271C164.07 57.0804 164.277 57.0071 164.543 57.0071C164.81 57.0071 165.01 57.0804 165.143 57.2271C165.29 57.3604 165.363 57.5671 165.363 57.8471V63.5471H165.403L171.923 57.4671C172.083 57.3071 172.243 57.1937 172.403 57.1271C172.563 57.0471 172.737 57.0071 172.923 57.0071C173.177 57.0071 173.357 57.0671 173.463 57.1871C173.583 57.3071 173.63 57.4537 173.603 57.6271C173.577 57.8004 173.483 57.9671 173.323 58.1271L166.503 64.4471L166.523 63.5671L173.643 70.1471C173.843 70.3337 173.95 70.5271 173.963 70.7271C173.977 70.9137 173.917 71.0737 173.783 71.2071C173.663 71.3271 173.477 71.3871 173.223 71.3871C173.023 71.3871 172.85 71.3404 172.703 71.2471C172.57 71.1671 172.417 71.0404 172.243 70.8671L165.403 64.6071H165.363V70.5271C165.363 70.7937 165.297 71.0071 165.163 71.1671C165.03 71.3137 164.823 71.3871 164.543 71.3871ZM177.123 71.2471C176.83 71.2471 176.603 71.1737 176.443 71.0271C176.297 70.8671 176.223 70.6404 176.223 70.3471V58.0471C176.223 57.7537 176.297 57.5337 176.443 57.3871C176.603 57.2271 176.83 57.1471 177.123 57.1471H184.563C184.79 57.1471 184.963 57.2071 185.083 57.3271C185.203 57.4471 185.263 57.6137 185.263 57.8271C185.263 58.0537 185.203 58.2271 185.083 58.3471C184.963 58.4671 184.79 58.5271 184.563 58.5271H177.823V63.4071H184.143C184.37 63.4071 184.543 63.4671 184.663 63.5871C184.783 63.6937 184.843 63.8604 184.843 64.0871C184.843 64.3137 184.783 64.4871 184.663 64.6071C184.543 64.7271 184.37 64.7871 184.143 64.7871H177.823V69.8671H184.563C184.79 69.8671 184.963 69.9271 185.083 70.0471C185.203 70.1671 185.263 70.3337 185.263 70.5471C185.263 70.7737 185.203 70.9471 185.083 71.0671C184.963 71.1871 184.79 71.2471 184.563 71.2471H177.123ZM191.91 71.3871C191.656 71.3871 191.456 71.3137 191.31 71.1671C191.163 71.0071 191.09 70.7937 191.09 70.5271V58.5671H186.59C186.35 58.5671 186.163 58.5004 186.03 58.3671C185.896 58.2337 185.83 58.0604 185.83 57.8471C185.83 57.6204 185.896 57.4471 186.03 57.3271C186.163 57.2071 186.35 57.1471 186.59 57.1471H197.25C197.49 57.1471 197.676 57.2071 197.81 57.3271C197.943 57.4471 198.01 57.6204 198.01 57.8471C198.01 58.0737 197.943 58.2537 197.81 58.3871C197.676 58.5071 197.49 58.5671 197.25 58.5671H192.75V70.5271C192.75 70.7937 192.676 71.0071 192.53 71.1671C192.396 71.3137 192.19 71.3871 191.91 71.3871ZM203.732 71.4271C203.106 71.4271 202.492 71.3737 201.892 71.2671C201.292 71.1604 200.732 71.0071 200.212 70.8071C199.706 70.6071 199.246 70.3537 198.832 70.0471C198.672 69.9271 198.559 69.7937 198.492 69.6471C198.439 69.4871 198.426 69.3337 198.452 69.1871C198.492 69.0271 198.559 68.8937 198.652 68.7871C198.759 68.6804 198.886 68.6204 199.032 68.6071C199.179 68.5937 199.339 68.6404 199.512 68.7471C200.112 69.1737 200.752 69.4871 201.432 69.6871C202.112 69.8737 202.879 69.9671 203.732 69.9671C204.932 69.9671 205.819 69.7471 206.392 69.3071C206.979 68.8537 207.272 68.2604 207.272 67.5271C207.272 66.9271 207.059 66.4604 206.632 66.1271C206.219 65.7804 205.519 65.5071 204.532 65.3071L202.452 64.8871C201.199 64.6204 200.259 64.1871 199.632 63.5871C199.019 62.9737 198.712 62.1604 198.712 61.1471C198.712 60.5204 198.839 59.9537 199.092 59.4471C199.346 58.9271 199.699 58.4871 200.152 58.1271C200.606 57.7537 201.146 57.4671 201.772 57.2671C202.399 57.0671 203.092 56.9671 203.852 56.9671C204.692 56.9671 205.472 57.0871 206.192 57.3271C206.926 57.5537 207.586 57.9004 208.172 58.3671C208.319 58.4871 208.419 58.6271 208.472 58.7871C208.526 58.9337 208.532 59.0804 208.492 59.2271C208.452 59.3604 208.379 59.4737 208.272 59.5671C208.179 59.6604 208.052 59.7137 207.892 59.7271C207.746 59.7404 207.579 59.6871 207.392 59.5671C206.859 59.1671 206.306 58.8804 205.732 58.7071C205.159 58.5204 204.526 58.4271 203.832 58.4271C203.126 58.4271 202.512 58.5337 201.992 58.7471C201.486 58.9604 201.086 59.2737 200.792 59.6871C200.512 60.0871 200.372 60.5537 200.372 61.0871C200.372 61.7271 200.566 62.2337 200.952 62.6071C201.352 62.9804 201.999 63.2537 202.892 63.4271L204.972 63.8671C206.319 64.1471 207.312 64.5737 207.952 65.1471C208.606 65.7071 208.932 66.4737 208.932 67.4471C208.932 68.0337 208.812 68.5737 208.572 69.0671C208.332 69.5604 207.986 69.9871 207.532 70.3471C207.079 70.6937 206.532 70.9604 205.892 71.1471C205.252 71.3337 204.532 71.4271 203.732 71.4271ZM216.987 71.4271C216.614 71.4271 216.307 71.3404 216.067 71.1671C215.84 70.9937 215.694 70.7604 215.627 70.4671C215.574 70.1737 215.634 69.8471 215.807 69.4871L220.927 58.2671C221.14 57.8137 221.394 57.4871 221.687 57.2871C221.98 57.0737 222.32 56.9671 222.707 56.9671C223.094 56.9671 223.434 57.0737 223.727 57.2871C224.02 57.4871 224.267 57.8137 224.467 58.2671L229.627 69.4871C229.8 69.8471 229.86 70.1804 229.807 70.4871C229.767 70.7804 229.634 71.0137 229.407 71.1871C229.18 71.3471 228.887 71.4271 228.527 71.4271C228.074 71.4271 227.72 71.3204 227.467 71.1071C227.227 70.8937 227.014 70.5604 226.827 70.1071L225.627 67.3271L226.867 68.1871H218.527L219.767 67.3271L218.587 70.1071C218.387 70.5737 218.174 70.9137 217.947 71.1271C217.734 71.3271 217.414 71.4271 216.987 71.4271ZM222.667 60.4471L220.107 66.5471L219.567 65.7671H225.827L225.287 66.5471L222.707 60.4471H222.667ZM233.085 71.4271C232.632 71.4271 232.285 71.3004 232.045 71.0471C231.805 70.7937 231.685 70.4404 231.685 69.9871V58.4071C231.685 57.9537 231.812 57.6004 232.065 57.3471C232.332 57.0937 232.692 56.9671 233.145 56.9671C233.545 56.9671 233.859 57.0471 234.085 57.2071C234.325 57.3537 234.545 57.6137 234.745 57.9871L239.365 66.4271H238.685L243.305 57.9871C243.505 57.6137 243.719 57.3537 243.945 57.2071C244.185 57.0471 244.499 56.9671 244.885 56.9671C245.339 56.9671 245.685 57.0937 245.925 57.3471C246.179 57.6004 246.305 57.9537 246.305 58.4071V69.9871C246.305 70.4404 246.185 70.7937 245.945 71.0471C245.705 71.3004 245.359 71.4271 244.905 71.4271C244.452 71.4271 244.099 71.3004 243.845 71.0471C243.605 70.7937 243.485 70.4404 243.485 69.9871V61.8871H243.925L240.205 68.5471C240.045 68.8004 239.872 68.9937 239.685 69.1271C239.512 69.2471 239.279 69.3071 238.985 69.3071C238.692 69.3071 238.452 69.2404 238.265 69.1071C238.079 68.9737 237.912 68.7871 237.765 68.5471L234.005 61.8671H234.485V69.9871C234.485 70.4404 234.365 70.7937 234.125 71.0471C233.899 71.3004 233.552 71.4271 233.085 71.4271ZM250.605 71.4271C250.152 71.4271 249.805 71.3004 249.565 71.0471C249.325 70.7937 249.205 70.4404 249.205 69.9871V58.4071C249.205 57.9537 249.332 57.6004 249.585 57.3471C249.852 57.0937 250.212 56.9671 250.665 56.9671C251.065 56.9671 251.378 57.0471 251.605 57.2071C251.845 57.3537 252.065 57.6137 252.265 57.9871L256.885 66.4271H256.205L260.825 57.9871C261.025 57.6137 261.238 57.3537 261.465 57.2071C261.705 57.0471 262.018 56.9671 262.405 56.9671C262.858 56.9671 263.205 57.0937 263.445 57.3471C263.698 57.6004 263.825 57.9537 263.825 58.4071V69.9871C263.825 70.4404 263.705 70.7937 263.465 71.0471C263.225 71.3004 262.878 71.4271 262.425 71.4271C261.972 71.4271 261.618 71.3004 261.365 71.0471C261.125 70.7937 261.005 70.4404 261.005 69.9871V61.8871H261.445L257.725 68.5471C257.565 68.8004 257.392 68.9937 257.205 69.1271C257.032 69.2471 256.798 69.3071 256.505 69.3071C256.212 69.3071 255.972 69.2404 255.785 69.1071C255.598 68.9737 255.432 68.7871 255.285 68.5471L251.525 61.8671H252.005V69.9871C252.005 70.4404 251.885 70.7937 251.645 71.0471C251.418 71.3004 251.072 71.4271 250.605 71.4271ZM12.7287 94.2471C12.4354 94.2471 12.2087 94.1737 12.0487 94.0271C11.9021 93.8671 11.8287 93.6404 11.8287 93.3471V81.0471C11.8287 80.7537 11.9021 80.5337 12.0487 80.3871C12.2087 80.2271 12.4354 80.1471 12.7287 80.1471H17.4687C18.4421 80.1471 19.2621 80.2937 19.9287 80.5871C20.6087 80.8671 21.1287 81.2804 21.4887 81.8271C21.8487 82.3737 22.0287 83.0404 22.0287 83.8271C22.0287 84.7071 21.7687 85.4404 21.2487 86.0271C20.7421 86.6137 20.0487 87.0004 19.1687 87.1871V86.9071C20.1687 87.0271 20.9487 87.3871 21.5087 87.9871C22.0821 88.5871 22.3687 89.3804 22.3687 90.3671C22.3687 91.6204 21.9621 92.5804 21.1487 93.2471C20.3354 93.9137 19.1887 94.2471 17.7087 94.2471H12.7287ZM13.4287 92.9271H17.5487C18.6154 92.9271 19.4154 92.7137 19.9487 92.2871C20.4821 91.8604 20.7487 91.2137 20.7487 90.3471C20.7487 89.4671 20.4821 88.8204 19.9487 88.4071C19.4154 87.9804 18.6154 87.7671 17.5487 87.7671H13.4287V92.9271ZM13.4287 86.4471H17.2287C18.2687 86.4471 19.0554 86.2337 19.5887 85.8071C20.1354 85.3804 20.4087 84.7671 20.4087 83.9671C20.4087 83.1404 20.1354 82.5204 19.5887 82.1071C19.0554 81.6804 18.2687 81.4671 17.2287 81.4671H13.4287V86.4471ZM30.9044 94.4271C29.971 94.4271 29.151 94.3071 28.4444 94.0671C27.751 93.8137 27.1644 93.4471 26.6844 92.9671C26.2044 92.4737 25.8444 91.8671 25.6044 91.1471C25.3644 90.4271 25.2444 89.6004 25.2444 88.6671V80.8471C25.2444 80.5671 25.311 80.3604 25.4444 80.2271C25.591 80.0804 25.7977 80.0071 26.0644 80.0071C26.331 80.0071 26.531 80.0804 26.6644 80.2271C26.811 80.3604 26.8844 80.5671 26.8844 80.8471V88.5871C26.8844 90.0537 27.2244 91.1537 27.9044 91.8871C28.5844 92.6071 29.5844 92.9671 30.9044 92.9671C32.2244 92.9671 33.2177 92.6071 33.8844 91.8871C34.551 91.1537 34.8844 90.0537 34.8844 88.5871V80.8471C34.8844 80.5671 34.9577 80.3604 35.1044 80.2271C35.251 80.0804 35.4577 80.0071 35.7244 80.0071C35.9777 80.0071 36.171 80.0804 36.3044 80.2271C36.451 80.3604 36.5244 80.5671 36.5244 80.8471V88.6671C36.5244 89.9071 36.311 90.9604 35.8844 91.8271C35.471 92.6937 34.8444 93.3471 34.0044 93.7871C33.1644 94.2137 32.131 94.4271 30.9044 94.4271ZM40.7152 94.3871C40.4485 94.3871 40.2418 94.3137 40.0952 94.1671C39.9618 94.0071 39.8952 93.7937 39.8952 93.5271V80.8671C39.8952 80.5871 39.9618 80.3737 40.0952 80.2271C40.2418 80.0804 40.4485 80.0071 40.7152 80.0071C40.9818 80.0071 41.1818 80.0804 41.3152 80.2271C41.4618 80.3737 41.5352 80.5871 41.5352 80.8671V93.5271C41.5352 93.7937 41.4685 94.0071 41.3352 94.1671C41.2018 94.3137 40.9952 94.3871 40.7152 94.3871ZM45.8719 94.2471C45.6052 94.2471 45.3985 94.1737 45.2519 94.0271C45.1052 93.8671 45.0319 93.6537 45.0319 93.3871V80.9071C45.0319 80.6271 45.0985 80.4137 45.2319 80.2671C45.3785 80.1204 45.5852 80.0471 45.8519 80.0471C46.1185 80.0471 46.3185 80.1204 46.4519 80.2671C46.5985 80.4137 46.6719 80.6271 46.6719 80.9071V92.8071H53.2319C53.4719 92.8071 53.6585 92.8737 53.7919 93.0071C53.9252 93.1271 53.9919 93.3004 53.9919 93.5271C53.9919 93.7537 53.9252 93.9337 53.7919 94.0671C53.6585 94.1871 53.4719 94.2471 53.2319 94.2471H45.8719ZM57.6322 94.3871C57.3788 94.3871 57.1788 94.3137 57.0322 94.1671C56.8855 94.0071 56.8122 93.7937 56.8122 93.5271V81.5671H52.3122C52.0722 81.5671 51.8855 81.5004 51.7522 81.3671C51.6188 81.2337 51.5522 81.0604 51.5522 80.8471C51.5522 80.6204 51.6188 80.4471 51.7522 80.3271C51.8855 80.2071 52.0722 80.1471 52.3122 80.1471H62.9722C63.2122 80.1471 63.3988 80.2071 63.5322 80.3271C63.6655 80.4471 63.7322 80.6204 63.7322 80.8471C63.7322 81.0737 63.6655 81.2537 63.5322 81.3871C63.3988 81.5071 63.2122 81.5671 62.9722 81.5671H58.4722V93.5271C58.4722 93.7937 58.3988 94.0071 58.2522 94.1671C58.1188 94.3137 57.9122 94.3871 57.6322 94.3871ZM76.4597 94.4271C75.153 94.4271 74.013 94.1337 73.0397 93.5471C72.0797 92.9471 71.333 92.1071 70.7997 91.0271C70.2797 89.9471 70.0197 88.6671 70.0197 87.1871C70.0197 86.0671 70.1663 85.0671 70.4597 84.1871C70.7663 83.2937 71.1997 82.5404 71.7597 81.9271C72.3197 81.3004 72.993 80.8204 73.7797 80.4871C74.5797 80.1404 75.473 79.9671 76.4597 79.9671C77.793 79.9671 78.9397 80.2604 79.8997 80.8471C80.873 81.4337 81.6197 82.2671 82.1397 83.3471C82.673 84.4137 82.9397 85.6871 82.9397 87.1671C82.9397 88.2871 82.7863 89.2937 82.4797 90.1871C82.173 91.0804 81.7397 91.8404 81.1797 92.4671C80.6197 93.0937 79.9397 93.5804 79.1397 93.9271C78.353 94.2604 77.4597 94.4271 76.4597 94.4271ZM76.4597 92.9671C77.473 92.9671 78.3263 92.7404 79.0197 92.2871C79.7263 91.8337 80.2663 91.1737 80.6397 90.3071C81.013 89.4404 81.1997 88.4004 81.1997 87.1871C81.1997 85.3604 80.7863 83.9471 79.9597 82.9471C79.1463 81.9337 77.9797 81.4271 76.4597 81.4271C75.473 81.4271 74.6263 81.6537 73.9197 82.1071C73.2263 82.5604 72.693 83.2204 72.3197 84.0871C71.9463 84.9404 71.7597 85.9737 71.7597 87.1871C71.7597 89.0004 72.173 90.4204 72.9997 91.4471C73.8263 92.4604 74.9797 92.9671 76.4597 92.9671ZM86.6517 94.3871C86.3984 94.3871 86.205 94.3204 86.0717 94.1871C85.9384 94.0404 85.8717 93.8337 85.8717 93.5671V80.8471C85.8717 80.5804 85.9384 80.3737 86.0717 80.2271C86.205 80.0804 86.3784 80.0071 86.5917 80.0071C86.805 80.0071 86.9584 80.0471 87.0517 80.1271C87.1584 80.1937 87.2784 80.3204 87.4117 80.5071L96.1317 92.1271H95.6517V80.8071C95.6517 80.5537 95.7184 80.3604 95.8517 80.2271C95.985 80.0804 96.1784 80.0071 96.4317 80.0071C96.6717 80.0071 96.8517 80.0804 96.9717 80.2271C97.105 80.3604 97.1717 80.5537 97.1717 80.8071V93.5871C97.1717 93.8404 97.1117 94.0404 96.9917 94.1871C96.885 94.3204 96.725 94.3871 96.5117 94.3871C96.3117 94.3871 96.1517 94.3471 96.0317 94.2671C95.9117 94.1871 95.785 94.0604 95.6517 93.8871L86.9517 82.2671H87.4117V93.5671C87.4117 93.8337 87.345 94.0404 87.2117 94.1871C87.0784 94.3204 86.8917 94.3871 86.6517 94.3871ZM110.706 94.4271C110.199 94.4271 109.813 94.2871 109.546 94.0071C109.279 93.7271 109.146 93.3337 109.146 92.8271V82.7071H105.606C105.193 82.7071 104.873 82.5937 104.646 82.3671C104.419 82.1404 104.306 81.8271 104.306 81.4271C104.306 81.0137 104.419 80.7004 104.646 80.4871C104.873 80.2604 105.193 80.1471 105.606 80.1471H115.786C116.199 80.1471 116.519 80.2604 116.746 80.4871C116.973 80.7004 117.086 81.0137 117.086 81.4271C117.086 81.8271 116.973 82.1404 116.746 82.3671C116.519 82.5937 116.199 82.7071 115.786 82.7071H112.246V92.8271C112.246 93.3337 112.113 93.7271 111.846 94.0071C111.593 94.2871 111.213 94.4271 110.706 94.4271ZM119.983 94.4271C119.476 94.4271 119.089 94.2871 118.823 94.0071C118.556 93.7271 118.423 93.3337 118.423 92.8271V81.5671C118.423 81.0604 118.556 80.6671 118.823 80.3871C119.089 80.1071 119.476 79.9671 119.983 79.9671C120.476 79.9671 120.856 80.1071 121.123 80.3871C121.389 80.6671 121.523 81.0604 121.523 81.5671V85.8071H128.083V81.5671C128.083 81.0604 128.216 80.6671 128.483 80.3871C128.749 80.1071 129.129 79.9671 129.623 79.9671C130.129 79.9671 130.516 80.1071 130.783 80.3871C131.049 80.6671 131.183 81.0604 131.183 81.5671V92.8271C131.183 93.3337 131.049 93.7271 130.783 94.0071C130.516 94.2871 130.129 94.4271 129.623 94.4271C129.129 94.4271 128.749 94.2871 128.483 94.0071C128.216 93.7271 128.083 93.3337 128.083 92.8271V88.3871H121.523V92.8271C121.523 93.3337 121.389 93.7271 121.123 94.0071C120.869 94.2871 120.489 94.4271 119.983 94.4271ZM134.428 94.4271C134.055 94.4271 133.748 94.3404 133.508 94.1671C133.282 93.9937 133.135 93.7604 133.068 93.4671C133.015 93.1737 133.075 92.8471 133.248 92.4871L138.368 81.2671C138.582 80.8137 138.835 80.4871 139.128 80.2871C139.422 80.0737 139.762 79.9671 140.148 79.9671C140.535 79.9671 140.875 80.0737 141.168 80.2871C141.462 80.4871 141.708 80.8137 141.908 81.2671L147.068 92.4871C147.242 92.8471 147.302 93.1804 147.248 93.4871C147.208 93.7804 147.075 94.0137 146.848 94.1871C146.622 94.3471 146.328 94.4271 145.968 94.4271C145.515 94.4271 145.162 94.3204 144.908 94.1071C144.668 93.8937 144.455 93.5604 144.268 93.1071L143.068 90.3271L144.308 91.1871H135.968L137.208 90.3271L136.028 93.1071C135.828 93.5737 135.615 93.9137 135.388 94.1271C135.175 94.3271 134.855 94.4271 134.428 94.4271ZM140.108 83.4471L137.548 89.5471L137.008 88.7671H143.268L142.728 89.5471L140.148 83.4471H140.108ZM150.667 94.2471C150.16 94.2471 149.767 94.1071 149.487 93.8271C149.22 93.5471 149.087 93.1604 149.087 92.6671V81.6871C149.087 81.1671 149.22 80.7737 149.487 80.5071C149.754 80.2404 150.14 80.1071 150.647 80.1071C151.14 80.1071 151.52 80.2404 151.787 80.5071C152.054 80.7737 152.187 81.1671 152.187 81.6871V91.6271H157.547C157.974 91.6271 158.3 91.7404 158.527 91.9671C158.767 92.1937 158.887 92.5137 158.887 92.9271C158.887 93.3537 158.767 93.6804 158.527 93.9071C158.3 94.1337 157.974 94.2471 157.547 94.2471H150.667ZM162.172 94.2471C161.652 94.2471 161.252 94.1071 160.972 93.8271C160.692 93.5471 160.552 93.1471 160.552 92.6271V81.7671C160.552 81.2471 160.692 80.8471 160.972 80.5671C161.252 80.2871 161.652 80.1471 162.172 80.1471H169.152C169.552 80.1471 169.852 80.2537 170.052 80.4671C170.265 80.6671 170.372 80.9604 170.372 81.3471C170.372 81.7471 170.265 82.0537 170.052 82.2671C169.852 82.4671 169.552 82.5671 169.152 82.5671H163.512V85.8671H168.692C169.105 85.8671 169.412 85.9737 169.612 86.1871C169.825 86.3871 169.932 86.6871 169.932 87.0871C169.932 87.4871 169.825 87.7937 169.612 88.0071C169.412 88.2071 169.105 88.3071 168.692 88.3071H163.512V91.8271H169.152C169.552 91.8271 169.852 91.9337 170.052 92.1471C170.265 92.3471 170.372 92.6404 170.372 93.0271C170.372 93.4271 170.265 93.7337 170.052 93.9471C169.852 94.1471 169.552 94.2471 169.152 94.2471H162.172ZM177.506 94.4671C176.946 94.4671 176.372 94.4204 175.786 94.3271C175.212 94.2471 174.659 94.1271 174.126 93.9671C173.606 93.8071 173.139 93.6071 172.726 93.3671C172.432 93.2071 172.226 93.0004 172.106 92.7471C171.986 92.4804 171.939 92.2137 171.966 91.9471C172.006 91.6804 172.106 91.4471 172.266 91.2471C172.439 91.0337 172.652 90.9004 172.906 90.8471C173.172 90.7804 173.466 90.8271 173.786 90.9871C174.332 91.2937 174.926 91.5204 175.566 91.6671C176.219 91.8137 176.866 91.8871 177.506 91.8871C178.479 91.8871 179.172 91.7404 179.586 91.4471C179.999 91.1404 180.206 90.7604 180.206 90.3071C180.206 89.9204 180.059 89.6137 179.766 89.3871C179.472 89.1604 178.959 88.9671 178.226 88.8071L175.966 88.3271C174.686 88.0604 173.732 87.6071 173.106 86.9671C172.492 86.3137 172.186 85.4604 172.186 84.4071C172.186 83.7404 172.326 83.1337 172.606 82.5871C172.886 82.0404 173.279 81.5671 173.786 81.1671C174.292 80.7671 174.892 80.4604 175.586 80.2471C176.292 80.0337 177.066 79.9271 177.906 79.9271C178.652 79.9271 179.386 80.0204 180.106 80.2071C180.826 80.3804 181.459 80.6404 182.006 80.9871C182.272 81.1471 182.452 81.3537 182.546 81.6071C182.652 81.8471 182.686 82.0937 182.646 82.3471C182.619 82.5871 182.519 82.8004 182.346 82.9871C182.186 83.1737 181.979 83.2937 181.726 83.3471C181.472 83.4004 181.166 83.3404 180.806 83.1671C180.366 82.9404 179.899 82.7737 179.406 82.6671C178.912 82.5604 178.406 82.5071 177.886 82.5071C177.326 82.5071 176.846 82.5804 176.446 82.7271C176.059 82.8737 175.759 83.0804 175.546 83.3471C175.346 83.6137 175.246 83.9204 175.246 84.2671C175.246 84.6537 175.386 84.9671 175.666 85.2071C175.946 85.4471 176.432 85.6404 177.126 85.7871L179.386 86.2671C180.692 86.5471 181.666 87.0004 182.306 87.6271C182.946 88.2404 183.266 89.0537 183.266 90.0671C183.266 90.7337 183.132 91.3404 182.866 91.8871C182.599 92.4204 182.212 92.8804 181.706 93.2671C181.199 93.6537 180.592 93.9537 179.886 94.1671C179.179 94.3671 178.386 94.4671 177.506 94.4671ZM191.848 94.3871C191.581 94.3871 191.375 94.3137 191.228 94.1671C191.095 94.0071 191.028 93.7937 191.028 93.5271V80.9871C191.028 80.7071 191.101 80.5004 191.248 80.3671C191.395 80.2204 191.601 80.1471 191.868 80.1471H196.608C198.115 80.1471 199.275 80.5204 200.088 81.2671C200.901 82.0004 201.308 83.0404 201.308 84.3871C201.308 85.7204 200.901 86.7604 200.088 87.5071C199.275 88.2537 198.115 88.6271 196.608 88.6271H192.668V93.5271C192.668 93.7937 192.601 94.0071 192.468 94.1671C192.335 94.3137 192.128 94.3871 191.848 94.3871ZM192.668 87.2471H196.408C197.488 87.2471 198.301 87.0071 198.848 86.5271C199.408 86.0337 199.688 85.3204 199.688 84.3871C199.688 83.4404 199.408 82.7271 198.848 82.2471C198.301 81.7537 197.488 81.5071 196.408 81.5071H192.668V87.2471ZM204.504 94.3871C204.238 94.3871 204.031 94.3137 203.884 94.1671C203.751 94.0071 203.684 93.7937 203.684 93.5271V80.9871C203.684 80.7071 203.758 80.5004 203.904 80.3671C204.051 80.2204 204.258 80.1471 204.524 80.1471H209.264C210.771 80.1471 211.931 80.5004 212.744 81.2071C213.558 81.9137 213.964 82.9204 213.964 84.2271C213.964 85.0537 213.778 85.7737 213.404 86.3871C213.044 86.9871 212.511 87.4471 211.804 87.7671C211.098 88.0737 210.251 88.2271 209.264 88.2271L209.464 87.9671H209.864C210.384 87.9671 210.838 88.1004 211.224 88.3671C211.611 88.6337 211.964 89.0604 212.284 89.6471L214.204 93.2271C214.311 93.4137 214.358 93.6004 214.344 93.7871C214.344 93.9604 214.284 94.1071 214.164 94.2271C214.044 94.3337 213.871 94.3871 213.644 94.3871C213.418 94.3871 213.231 94.3337 213.084 94.2271C212.938 94.1204 212.811 93.9671 212.704 93.7671L210.524 89.7271C210.218 89.1537 209.864 88.7737 209.464 88.5871C209.064 88.3871 208.538 88.2871 207.884 88.2871H205.324V93.5271C205.324 93.7937 205.258 94.0071 205.124 94.1671C204.991 94.3137 204.784 94.3871 204.504 94.3871ZM205.324 86.9871H209.024C210.118 86.9871 210.944 86.7604 211.504 86.3071C212.064 85.8404 212.344 85.1471 212.344 84.2271C212.344 83.3337 212.064 82.6604 211.504 82.2071C210.944 81.7404 210.118 81.5071 209.024 81.5071H205.324V86.9871ZM222.885 94.4271C221.579 94.4271 220.439 94.1337 219.465 93.5471C218.505 92.9471 217.759 92.1071 217.225 91.0271C216.705 89.9471 216.445 88.6671 216.445 87.1871C216.445 86.0671 216.592 85.0671 216.885 84.1871C217.192 83.2937 217.625 82.5404 218.185 81.9271C218.745 81.3004 219.419 80.8204 220.205 80.4871C221.005 80.1404 221.899 79.9671 222.885 79.9671C224.219 79.9671 225.365 80.2604 226.325 80.8471C227.299 81.4337 228.045 82.2671 228.565 83.3471C229.099 84.4137 229.365 85.6871 229.365 87.1671C229.365 88.2871 229.212 89.2937 228.905 90.1871C228.599 91.0804 228.165 91.8404 227.605 92.4671C227.045 93.0937 226.365 93.5804 225.565 93.9271C224.779 94.2604 223.885 94.4271 222.885 94.4271ZM222.885 92.9671C223.899 92.9671 224.752 92.7404 225.445 92.2871C226.152 91.8337 226.692 91.1737 227.065 90.3071C227.439 89.4404 227.625 88.4004 227.625 87.1871C227.625 85.3604 227.212 83.9471 226.385 82.9471C225.572 81.9337 224.405 81.4271 222.885 81.4271C221.899 81.4271 221.052 81.6537 220.345 82.1071C219.652 82.5604 219.119 83.2204 218.745 84.0871C218.372 84.9404 218.185 85.9737 218.185 87.1871C218.185 89.0004 218.599 90.4204 219.425 91.4471C220.252 92.4604 221.405 92.9671 222.885 92.9671ZM235.699 94.3871C235.445 94.3871 235.245 94.3137 235.099 94.1671C234.952 94.0071 234.879 93.7937 234.879 93.5271V81.5671H230.379C230.139 81.5671 229.952 81.5004 229.819 81.3671C229.685 81.2337 229.619 81.0604 229.619 80.8471C229.619 80.6204 229.685 80.4471 229.819 80.3271C229.952 80.2071 230.139 80.1471 230.379 80.1471H241.039C241.279 80.1471 241.465 80.2071 241.599 80.3271C241.732 80.4471 241.799 80.6204 241.799 80.8471C241.799 81.0737 241.732 81.2537 241.599 81.3871C241.465 81.5071 241.279 81.5671 241.039 81.5671H236.539V93.5271C236.539 93.7937 236.465 94.0071 236.319 94.1671C236.185 94.3137 235.979 94.3871 235.699 94.3871ZM248.491 94.4271C247.184 94.4271 246.044 94.1337 245.071 93.5471C244.111 92.9471 243.364 92.1071 242.831 91.0271C242.311 89.9471 242.051 88.6671 242.051 87.1871C242.051 86.0671 242.198 85.0671 242.491 84.1871C242.798 83.2937 243.231 82.5404 243.791 81.9271C244.351 81.3004 245.024 80.8204 245.811 80.4871C246.611 80.1404 247.504 79.9671 248.491 79.9671C249.824 79.9671 250.971 80.2604 251.931 80.8471C252.904 81.4337 253.651 82.2671 254.171 83.3471C254.704 84.4137 254.971 85.6871 254.971 87.1671C254.971 88.2871 254.818 89.2937 254.511 90.1871C254.204 91.0804 253.771 91.8404 253.211 92.4671C252.651 93.0937 251.971 93.5804 251.171 93.9271C250.384 94.2604 249.491 94.4271 248.491 94.4271ZM248.491 92.9671C249.504 92.9671 250.358 92.7404 251.051 92.2871C251.758 91.8337 252.298 91.1737 252.671 90.3071C253.044 89.4404 253.231 88.4004 253.231 87.1871C253.231 85.3604 252.818 83.9471 251.991 82.9471C251.178 81.9337 250.011 81.4271 248.491 81.4271C247.504 81.4271 246.658 81.6537 245.951 82.1071C245.258 82.5604 244.724 83.2204 244.351 84.0871C243.978 84.9404 243.791 85.9737 243.791 87.1871C243.791 89.0004 244.204 90.4204 245.031 91.4471C245.858 92.4604 247.011 92.9671 248.491 92.9671ZM264.003 94.4271C262.616 94.4271 261.43 94.1337 260.443 93.5471C259.456 92.9604 258.696 92.1271 258.163 91.0471C257.643 89.9671 257.383 88.6804 257.383 87.1871C257.383 86.0671 257.53 85.0671 257.823 84.1871C258.13 83.2937 258.563 82.5404 259.123 81.9271C259.696 81.3004 260.396 80.8204 261.223 80.4871C262.05 80.1404 262.976 79.9671 264.003 79.9671C264.83 79.9671 265.616 80.0871 266.363 80.3271C267.11 80.5537 267.756 80.8937 268.303 81.3471C268.476 81.4804 268.59 81.6337 268.643 81.8071C268.71 81.9671 268.716 82.1271 268.663 82.2871C268.623 82.4337 268.543 82.5604 268.423 82.6671C268.316 82.7604 268.183 82.8071 268.023 82.8071C267.863 82.8071 267.683 82.7404 267.483 82.6071C267.003 82.2204 266.476 81.9337 265.903 81.7471C265.33 81.5604 264.71 81.4671 264.043 81.4671C262.99 81.4671 262.096 81.6937 261.363 82.1471C260.63 82.5871 260.076 83.2337 259.703 84.0871C259.33 84.9404 259.143 85.9737 259.143 87.1871C259.143 88.4004 259.33 89.4404 259.703 90.3071C260.076 91.1604 260.63 91.8137 261.363 92.2671C262.096 92.7071 262.99 92.9271 264.043 92.9271C264.696 92.9271 265.316 92.8337 265.903 92.6471C266.49 92.4471 267.03 92.1537 267.523 91.7671C267.723 91.6337 267.903 91.5737 268.063 91.5871C268.223 91.5871 268.356 91.6337 268.463 91.7271C268.57 91.8204 268.643 91.9404 268.683 92.0871C268.736 92.2337 268.736 92.3871 268.683 92.5471C268.643 92.7071 268.543 92.8471 268.383 92.9671C267.823 93.4471 267.163 93.8137 266.403 94.0671C265.656 94.3071 264.856 94.4271 264.003 94.4271ZM276.87 94.4271C275.563 94.4271 274.423 94.1337 273.45 93.5471C272.49 92.9471 271.743 92.1071 271.21 91.0271C270.69 89.9471 270.43 88.6671 270.43 87.1871C270.43 86.0671 270.577 85.0671 270.87 84.1871C271.177 83.2937 271.61 82.5404 272.17 81.9271C272.73 81.3004 273.403 80.8204 274.19 80.4871C274.99 80.1404 275.883 79.9671 276.87 79.9671C278.203 79.9671 279.35 80.2604 280.31 80.8471C281.283 81.4337 282.03 82.2671 282.55 83.3471C283.083 84.4137 283.35 85.6871 283.35 87.1671C283.35 88.2871 283.197 89.2937 282.89 90.1871C282.583 91.0804 282.15 91.8404 281.59 92.4671C281.03 93.0937 280.35 93.5804 279.55 93.9271C278.763 94.2604 277.87 94.4271 276.87 94.4271ZM276.87 92.9671C277.883 92.9671 278.737 92.7404 279.43 92.2871C280.137 91.8337 280.677 91.1737 281.05 90.3071C281.423 89.4404 281.61 88.4004 281.61 87.1871C281.61 85.3604 281.197 83.9471 280.37 82.9471C279.557 81.9337 278.39 81.4271 276.87 81.4271C275.883 81.4271 275.037 81.6537 274.33 82.1071C273.637 82.5604 273.103 83.2204 272.73 84.0871C272.357 84.9404 272.17 85.9737 272.17 87.1871C272.17 89.0004 272.583 90.4204 273.41 91.4471C274.237 92.4604 275.39 92.9671 276.87 92.9671ZM287.122 94.2471C286.855 94.2471 286.649 94.1737 286.502 94.0271C286.355 93.8671 286.282 93.6537 286.282 93.3871V80.9071C286.282 80.6271 286.349 80.4137 286.482 80.2671C286.629 80.1204 286.835 80.0471 287.102 80.0471C287.369 80.0471 287.569 80.1204 287.702 80.2671C287.849 80.4137 287.922 80.6271 287.922 80.9071V92.8071H294.482C294.722 92.8071 294.909 92.8737 295.042 93.0071C295.175 93.1271 295.242 93.3004 295.242 93.5271C295.242 93.7537 295.175 93.9337 295.042 94.0671C294.909 94.1871 294.722 94.2471 294.482 94.2471H287.122Z" fill="white"/>
</svg>
