<svg width="229" height="178" viewBox="0 0 229 178" fill="none" xmlns="http://www.w3.org/2000/svg">
<path d="M105.144 172.19C103.83 172.19 102.705 171.93 101.771 171.411C100.837 170.892 100.117 170.166 99.6092 169.232C99.1133 168.286 98.8654 167.173 98.8654 165.893C98.8654 164.936 99.0038 164.077 99.2805 163.316C99.5688 162.543 99.984 161.886 100.526 161.344C101.068 160.791 101.725 160.364 102.498 160.064C103.282 159.764 104.164 159.614 105.144 159.614C105.721 159.614 106.303 159.689 106.891 159.839C107.491 159.978 108.01 160.179 108.448 160.445C108.736 160.606 108.932 160.808 109.036 161.05C109.14 161.292 109.169 161.534 109.123 161.777C109.088 162.019 108.99 162.226 108.829 162.399C108.679 162.572 108.488 162.682 108.258 162.728C108.027 162.774 107.768 162.722 107.479 162.572C107.134 162.365 106.77 162.215 106.39 162.123C106.009 162.03 105.623 161.984 105.231 161.984C104.458 161.984 103.807 162.14 103.276 162.451C102.757 162.751 102.365 163.189 102.1 163.766C101.835 164.342 101.702 165.052 101.702 165.893C101.702 166.724 101.835 167.433 102.1 168.021C102.365 168.609 102.757 169.059 103.276 169.37C103.807 169.67 104.458 169.82 105.231 169.82C105.6 169.82 105.975 169.774 106.355 169.681C106.747 169.589 107.122 169.445 107.479 169.249C107.779 169.099 108.045 169.047 108.275 169.093C108.517 169.128 108.713 169.232 108.863 169.405C109.025 169.566 109.123 169.762 109.157 169.993C109.203 170.223 109.18 170.454 109.088 170.685C108.996 170.915 108.823 171.111 108.569 171.273C108.143 171.561 107.618 171.786 106.995 171.947C106.372 172.109 105.756 172.19 105.144 172.19ZM116.304 172.19C115.105 172.19 114.049 171.93 113.138 171.411C112.239 170.881 111.536 170.143 111.028 169.197C110.532 168.252 110.284 167.15 110.284 165.893C110.284 164.936 110.423 164.077 110.699 163.316C110.988 162.543 111.397 161.886 111.928 161.344C112.458 160.791 113.092 160.364 113.83 160.064C114.58 159.764 115.404 159.614 116.304 159.614C117.526 159.614 118.587 159.874 119.486 160.393C120.386 160.912 121.084 161.644 121.579 162.59C122.087 163.524 122.341 164.619 122.341 165.876C122.341 166.833 122.196 167.698 121.908 168.471C121.62 169.243 121.21 169.906 120.68 170.46C120.15 171.013 119.515 171.44 118.777 171.74C118.039 172.04 117.215 172.19 116.304 172.19ZM116.304 169.906C116.984 169.906 117.561 169.751 118.034 169.439C118.518 169.116 118.887 168.655 119.141 168.055C119.406 167.444 119.538 166.724 119.538 165.893C119.538 164.625 119.256 163.645 118.691 162.953C118.126 162.249 117.33 161.898 116.304 161.898C115.635 161.898 115.058 162.053 114.574 162.365C114.09 162.676 113.721 163.132 113.467 163.731C113.213 164.331 113.086 165.052 113.086 165.893C113.086 167.15 113.369 168.136 113.934 168.851C114.499 169.555 115.289 169.906 116.304 169.906ZM125.66 172.155C125.268 172.155 124.968 172.045 124.76 171.826C124.553 171.607 124.449 171.302 124.449 170.91V160.894C124.449 160.502 124.559 160.197 124.778 159.978C125.008 159.759 125.32 159.649 125.712 159.649C126.058 159.649 126.329 159.718 126.525 159.857C126.732 159.983 126.923 160.208 127.096 160.531L131.091 167.831H130.503L134.499 160.531C134.672 160.208 134.856 159.983 135.052 159.857C135.26 159.718 135.531 159.649 135.865 159.649C136.257 159.649 136.557 159.759 136.765 159.978C136.984 160.197 137.093 160.502 137.093 160.894V170.91C137.093 171.302 136.99 171.607 136.782 171.826C136.574 172.045 136.275 172.155 135.883 172.155C135.491 172.155 135.185 172.045 134.966 171.826C134.758 171.607 134.654 171.302 134.654 170.91V163.904H135.035L131.818 169.664C131.679 169.883 131.529 170.05 131.368 170.166C131.218 170.27 131.016 170.321 130.763 170.321C130.509 170.321 130.301 170.264 130.14 170.148C129.978 170.033 129.834 169.872 129.707 169.664L126.456 163.887H126.871V170.91C126.871 171.302 126.767 171.607 126.559 171.826C126.363 172.045 126.063 172.155 125.66 172.155ZM140.916 172.155C140.477 172.155 140.143 172.034 139.912 171.792C139.682 171.55 139.566 171.209 139.566 170.771V161.033C139.566 160.595 139.682 160.254 139.912 160.012C140.143 159.77 140.477 159.649 140.916 159.649C141.342 159.649 141.671 159.77 141.902 160.012C142.132 160.254 142.248 160.595 142.248 161.033V170.771C142.248 171.209 142.132 171.55 141.902 171.792C141.683 172.034 141.354 172.155 140.916 172.155ZM145.947 172.155C145.543 172.155 145.232 172.045 145.013 171.826C144.805 171.596 144.702 171.273 144.702 170.858V160.998C144.702 160.56 144.805 160.226 145.013 159.995C145.232 159.764 145.52 159.649 145.878 159.649C146.189 159.649 146.426 159.712 146.587 159.839C146.76 159.955 146.956 160.151 147.175 160.427L153.246 168.159H152.779V160.929C152.779 160.525 152.883 160.214 153.091 159.995C153.31 159.764 153.621 159.649 154.025 159.649C154.428 159.649 154.734 159.764 154.942 159.995C155.161 160.214 155.27 160.525 155.27 160.929V170.91C155.27 171.29 155.172 171.596 154.976 171.826C154.78 172.045 154.515 172.155 154.181 172.155C153.858 172.155 153.598 172.092 153.402 171.965C153.218 171.838 153.016 171.636 152.797 171.359L146.743 163.627H147.192V170.858C147.192 171.273 147.089 171.596 146.881 171.826C146.674 172.045 146.362 172.155 145.947 172.155ZM163.762 172.19C162.39 172.19 161.225 171.93 160.268 171.411C159.322 170.892 158.602 170.166 158.106 169.232C157.61 168.298 157.362 167.202 157.362 165.945C157.362 164.977 157.506 164.106 157.794 163.333C158.094 162.549 158.521 161.886 159.074 161.344C159.64 160.791 160.32 160.364 161.116 160.064C161.923 159.764 162.834 159.614 163.849 159.614C164.471 159.614 165.094 159.684 165.717 159.822C166.339 159.96 166.939 160.191 167.516 160.514C167.758 160.652 167.919 160.831 168 161.05C168.092 161.258 168.115 161.483 168.069 161.725C168.034 161.955 167.942 162.163 167.792 162.347C167.654 162.52 167.469 162.636 167.239 162.693C167.02 162.739 166.766 162.693 166.478 162.555C166.097 162.347 165.694 162.197 165.267 162.105C164.84 162.001 164.373 161.95 163.866 161.95C163.047 161.95 162.361 162.105 161.807 162.417C161.254 162.716 160.839 163.166 160.562 163.766C160.297 164.354 160.164 165.08 160.164 165.945C160.164 167.248 160.476 168.234 161.098 168.903C161.732 169.572 162.667 169.906 163.9 169.906C164.316 169.906 164.742 169.866 165.18 169.785C165.619 169.704 166.051 169.589 166.478 169.439L165.976 170.529V167.208H164.419C164.073 167.208 163.808 167.121 163.624 166.948C163.439 166.775 163.347 166.539 163.347 166.239C163.347 165.928 163.439 165.692 163.624 165.53C163.808 165.357 164.073 165.271 164.419 165.271H167.135C167.481 165.271 167.74 165.363 167.913 165.547C168.098 165.732 168.19 165.997 168.19 166.343V170.356C168.19 170.656 168.132 170.91 168.017 171.117C167.902 171.325 167.706 171.475 167.429 171.567C166.91 171.751 166.328 171.901 165.682 172.017C165.036 172.132 164.396 172.19 163.762 172.19ZM179.753 172.19C179.269 172.19 178.773 172.149 178.266 172.068C177.77 171.999 177.291 171.895 176.83 171.757C176.38 171.619 175.977 171.446 175.619 171.238C175.365 171.1 175.187 170.921 175.083 170.702C174.979 170.471 174.939 170.241 174.962 170.01C174.996 169.779 175.083 169.578 175.221 169.405C175.371 169.22 175.556 169.105 175.775 169.059C176.005 169.001 176.259 169.041 176.536 169.18C177.009 169.445 177.522 169.641 178.075 169.768C178.64 169.895 179.2 169.958 179.753 169.958C180.595 169.958 181.195 169.831 181.552 169.578C181.91 169.312 182.088 168.984 182.088 168.592C182.088 168.257 181.961 167.992 181.708 167.796C181.454 167.6 181.01 167.433 180.376 167.294L178.421 166.879C177.314 166.649 176.49 166.257 175.948 165.703C175.417 165.138 175.152 164.4 175.152 163.489C175.152 162.912 175.273 162.388 175.515 161.915C175.757 161.442 176.098 161.033 176.536 160.687C176.974 160.341 177.493 160.076 178.093 159.891C178.704 159.707 179.373 159.614 180.099 159.614C180.745 159.614 181.379 159.695 182.002 159.857C182.624 160.006 183.172 160.231 183.645 160.531C183.876 160.67 184.031 160.848 184.112 161.067C184.204 161.275 184.233 161.488 184.199 161.707C184.175 161.915 184.089 162.099 183.939 162.261C183.801 162.422 183.622 162.526 183.403 162.572C183.184 162.618 182.919 162.566 182.607 162.417C182.227 162.221 181.823 162.076 181.396 161.984C180.97 161.892 180.531 161.846 180.082 161.846C179.597 161.846 179.182 161.909 178.836 162.036C178.502 162.163 178.242 162.342 178.058 162.572C177.885 162.803 177.799 163.068 177.799 163.368C177.799 163.702 177.92 163.973 178.162 164.181C178.404 164.388 178.825 164.556 179.424 164.683L181.379 165.098C182.509 165.34 183.351 165.732 183.904 166.274C184.458 166.804 184.735 167.508 184.735 168.384C184.735 168.961 184.619 169.485 184.389 169.958C184.158 170.419 183.824 170.817 183.386 171.152C182.947 171.486 182.423 171.746 181.811 171.93C181.2 172.103 180.514 172.19 179.753 172.19ZM192.132 172.19C190.932 172.19 189.877 171.93 188.966 171.411C188.067 170.881 187.363 170.143 186.856 169.197C186.36 168.252 186.112 167.15 186.112 165.893C186.112 164.936 186.25 164.077 186.527 163.316C186.815 162.543 187.225 161.886 187.755 161.344C188.286 160.791 188.92 160.364 189.658 160.064C190.408 159.764 191.232 159.614 192.132 159.614C193.354 159.614 194.415 159.874 195.314 160.393C196.214 160.912 196.911 161.644 197.407 162.59C197.915 163.524 198.168 164.619 198.168 165.876C198.168 166.833 198.024 167.698 197.736 168.471C197.448 169.243 197.038 169.906 196.508 170.46C195.977 171.013 195.343 171.44 194.605 171.74C193.867 172.04 193.042 172.19 192.132 172.19ZM192.132 169.906C192.812 169.906 193.388 169.751 193.861 169.439C194.346 169.116 194.715 168.655 194.968 168.055C195.233 167.444 195.366 166.724 195.366 165.893C195.366 164.625 195.084 163.645 194.519 162.953C193.953 162.249 193.158 161.898 192.132 161.898C191.463 161.898 190.886 162.053 190.402 162.365C189.917 162.676 189.548 163.132 189.295 163.731C189.041 164.331 188.914 165.052 188.914 165.893C188.914 167.15 189.197 168.136 189.762 168.851C190.327 169.555 191.117 169.906 192.132 169.906ZM205.898 172.19C204.699 172.19 203.644 171.93 202.733 171.411C201.834 170.881 201.13 170.143 200.623 169.197C200.127 168.252 199.879 167.15 199.879 165.893C199.879 164.936 200.017 164.077 200.294 163.316C200.582 162.543 200.992 161.886 201.522 161.344C202.053 160.791 202.687 160.364 203.425 160.064C204.174 159.764 204.999 159.614 205.898 159.614C207.121 159.614 208.182 159.874 209.081 160.393C209.981 160.912 210.678 161.644 211.174 162.59C211.681 163.524 211.935 164.619 211.935 165.876C211.935 166.833 211.791 167.698 211.503 168.471C211.214 169.243 210.805 169.906 210.275 170.46C209.744 171.013 209.11 171.44 208.372 171.74C207.634 172.04 206.809 172.19 205.898 172.19ZM205.898 169.906C206.579 169.906 207.155 169.751 207.628 169.439C208.112 169.116 208.481 168.655 208.735 168.055C209 167.444 209.133 166.724 209.133 165.893C209.133 164.625 208.85 163.645 208.285 162.953C207.72 162.249 206.925 161.898 205.898 161.898C205.23 161.898 204.653 162.053 204.169 162.365C203.684 162.676 203.315 163.132 203.062 163.731C202.808 164.331 202.681 165.052 202.681 165.893C202.681 167.15 202.964 168.136 203.529 168.851C204.094 169.555 204.884 169.906 205.898 169.906ZM215.254 172.155C214.851 172.155 214.54 172.045 214.32 171.826C214.113 171.596 214.009 171.273 214.009 170.858V160.998C214.009 160.56 214.113 160.226 214.32 159.995C214.54 159.764 214.828 159.649 215.185 159.649C215.497 159.649 215.733 159.712 215.894 159.839C216.067 159.955 216.263 160.151 216.483 160.427L222.554 168.159H222.087V160.929C222.087 160.525 222.191 160.214 222.398 159.995C222.617 159.764 222.929 159.649 223.332 159.649C223.736 159.649 224.042 159.764 224.249 159.995C224.468 160.214 224.578 160.525 224.578 160.929V170.91C224.578 171.29 224.48 171.596 224.284 171.826C224.088 172.045 223.822 172.155 223.488 172.155C223.165 172.155 222.906 172.092 222.71 171.965C222.525 171.838 222.323 171.636 222.104 171.359L216.05 163.627H216.5V170.858C216.5 171.273 216.396 171.596 216.189 171.826C215.981 172.045 215.67 172.155 215.254 172.155Z" fill="white"/>
<path fill-rule="evenodd" clip-rule="evenodd" d="M16.0947 27.5733C14.1869 27.5733 12.408 27.2257 10.758 26.5306C9.48629 25.975 8.33707 25.2587 7.31038 24.3819L4.76457 26.9012H0.000549316L5.09943 21.9584C4.4747 21.0825 3.95038 20.1349 3.52645 19.1157C2.85614 17.4422 2.52099 15.6529 2.52099 13.7477C2.52099 11.8167 2.85614 10.0274 3.52645 8.37961C4.22254 6.70612 5.17644 5.23859 6.38815 3.97704C7.62564 2.71548 9.05649 1.73713 10.6807 1.04198C12.3307 0.34684 14.1096 -0.000732422 16.0174 -0.000732422C17.9252 -0.000732422 19.6912 0.34684 21.3154 1.04198C22.5286 1.55313 23.6304 2.21741 24.6206 3.03481L27.4637 0.278745L31.6673 0.278746L31.6665 0.279504H35.5464L43.6899 21.1255L51.9045 0.279504H55.8103L44.9823 27.0812H42.3526L31.6203 0.325236L26.7043 5.19002C27.4492 6.15381 28.0634 7.21701 28.547 8.37961C29.2431 10.0531 29.5911 11.8553 29.5911 13.7863C29.5911 15.6915 29.2431 17.4809 28.547 19.1543C27.8509 20.8278 26.8841 22.2954 25.6466 23.5569C24.4349 24.8185 23.004 25.8097 21.3541 26.5306C19.7299 27.2257 17.9767 27.5733 16.0947 27.5733ZM12.0729 23.3252C11.2311 22.9597 10.4672 22.4969 9.78124 21.9368L24.13 7.73746C24.5127 8.32644 24.8378 8.9653 25.1052 9.65405C25.595 10.8899 25.84 12.2544 25.84 13.7477C25.84 15.7559 25.4146 17.5452 24.5638 19.1157C23.713 20.6605 22.5529 21.8834 21.0834 22.7845C19.6396 23.6599 17.951 24.0976 16.0174 24.0976C14.5994 24.0976 13.2846 23.8401 12.0729 23.3252ZM22.0901 5.48786L7.69435 19.4429C7.41941 18.9653 7.17737 18.4572 6.96822 17.9185C6.50416 16.6312 6.27213 15.2409 6.27213 13.7477C6.27213 11.7395 6.68463 9.963 7.50963 8.41823C8.3604 6.87347 9.50766 5.6634 10.9514 4.78804C12.4209 3.91267 14.1096 3.47499 16.0174 3.47499C17.4611 3.47499 18.776 3.73245 19.9619 4.24737C20.7374 4.56727 21.4468 4.98077 22.0901 5.48786ZM56.8876 0.279504V27.0812H59.3626H60.5227H74.7539V23.7599H60.5227V3.60074H74.5605V0.279504H60.5227H59.3626H56.8876ZM84.1891 15.4182V12.3673H88.1723C89.7449 12.3673 90.9566 11.9682 91.8074 11.1701C92.6582 10.372 93.0836 9.29063 93.0836 7.92609C93.0836 6.63878 92.6582 5.57032 91.8074 4.7207C90.9824 3.87108 89.7836 3.44627 88.2109 3.44627H82.1008V27.0812H78.4657V0.279504H80.902H82.1008H88.327C90.0285 0.279504 91.5109 0.614203 92.7742 1.2836C94.0375 1.92725 95.0043 2.81549 95.6746 3.94832C96.3707 5.08115 96.7187 6.38132 96.7187 7.84885C96.7187 9.36787 96.3707 10.6938 95.6746 11.8266C95.0043 12.9594 94.0375 13.8477 92.7742 14.4913C91.654 15.0393 90.3614 15.3443 88.8966 15.4063L98.5363 27.0812H93.9344L84.1891 15.4182ZM115.459 3.92023H110.412V27.1871H106.777V3.92023H97.5243V0.277162H120.504L115.459 3.92023ZM124.712 0.29438V0.279504H128.348V27.0812H124.712V4.95681L119.102 9.20253L116.858 6.2379L124.712 0.29438ZM131.991 0.279504V27.0812H135.626V8.21522L143.786 21.5973H146.338L154.459 8.27868V27.0812H158.094V0.279504H155.542L145.042 17.505L134.543 0.279504H131.991ZM161.135 27.0812V0.279504H163.61H164.77H178.808V3.60074H164.77V23.7599H179.002V27.0812H164.77H163.61H161.135ZM168.421 15.132V11.788H178.808V15.132H168.421ZM74.5422 12.0457H63.0525V15.4085H74.5422V12.0457Z" fill="white"/>
<path d="M52.241 76.1375C51.7596 76.1375 51.2885 76.0966 50.8277 76.0146C50.3668 75.9327 49.9367 75.8149 49.5372 75.6613C49.1481 75.5077 48.7947 75.3131 48.4772 75.0775C48.3543 74.9854 48.2673 74.8829 48.2161 74.7703C48.1751 74.6474 48.1649 74.5296 48.1853 74.4169C48.2161 74.2941 48.2673 74.1916 48.339 74.1097C48.4209 74.0278 48.5182 73.9817 48.6309 73.9714C48.7435 73.9612 48.8664 73.997 48.9996 74.079C49.4604 74.4067 49.952 74.6474 50.4743 74.801C50.9967 74.9444 51.5855 75.0161 52.241 75.0161C53.1627 75.0161 53.8438 74.8471 54.2842 74.5091C54.7348 74.1609 54.9601 73.7052 54.9601 73.1419C54.9601 72.681 54.7963 72.3226 54.4685 72.0665C54.151 71.8002 53.6134 71.5903 52.8555 71.4367L51.2578 71.114C50.2951 70.9092 49.5731 70.5764 49.0917 70.1155C48.6206 69.6444 48.3851 69.0197 48.3851 68.2413C48.3851 67.7599 48.4824 67.3247 48.6769 66.9355C48.8715 66.5361 49.1429 66.1981 49.4911 65.9216C49.8394 65.6348 50.2541 65.4146 50.7355 65.261C51.2168 65.1074 51.7494 65.0306 52.3332 65.0306C52.9784 65.0306 53.5775 65.1227 54.1306 65.3071C54.6939 65.4812 55.2008 65.7475 55.6514 66.1059C55.7641 66.1981 55.8409 66.3056 55.8819 66.4285C55.9228 66.5412 55.928 66.6539 55.8972 66.7665C55.8665 66.8689 55.8102 66.956 55.7282 67.0277C55.6566 67.0994 55.5593 67.1403 55.4364 67.1506C55.3237 67.1608 55.1957 67.1198 55.0523 67.0277C54.6426 66.7204 54.2176 66.5002 53.7772 66.3671C53.3368 66.2237 52.8504 66.152 52.3178 66.152C51.775 66.152 51.3039 66.234 50.9045 66.3978C50.5153 66.5617 50.2081 66.8024 49.9827 67.1198C49.7677 67.4271 49.6601 67.7855 49.6601 68.1952C49.6601 68.6868 49.8086 69.076 50.1056 69.3627C50.4129 69.6495 50.9096 69.8595 51.5958 69.9926L53.1935 70.3306C54.2279 70.5456 54.9909 70.8734 55.4825 71.3138C55.9843 71.7439 56.2352 72.3328 56.2352 73.0804C56.2352 73.5311 56.143 73.9458 55.9587 74.3248C55.7743 74.7037 55.5081 75.0314 55.1598 75.308C54.8116 75.5742 54.3917 75.7791 53.9001 75.9225C53.4085 76.0658 52.8555 76.1375 52.241 76.1375ZM58.8197 76.1068C58.6148 76.1068 58.4561 76.0505 58.3434 75.9378C58.241 75.8149 58.1898 75.6511 58.1898 75.4462V65.814C58.1898 65.599 58.2461 65.4402 58.3588 65.3378C58.4715 65.2252 58.6302 65.1688 58.835 65.1688H62.4759C63.6332 65.1688 64.5242 65.4556 65.1489 66.0291C65.7737 66.5924 66.0861 67.3912 66.0861 68.4256C66.0861 69.4498 65.7737 70.2486 65.1489 70.8222C64.5242 71.3957 63.6332 71.6825 62.4759 71.6825H59.4495V75.4462C59.4495 75.6511 59.3983 75.8149 59.2959 75.9378C59.1935 76.0505 59.0347 76.1068 58.8197 76.1068ZM59.4495 70.6225H62.3223C63.1518 70.6225 63.7766 70.4381 64.1965 70.0694C64.6266 69.6905 64.8417 69.1426 64.8417 68.4256C64.8417 67.6985 64.6266 67.1506 64.1965 66.7819C63.7766 66.4029 63.1518 66.2135 62.3223 66.2135H59.4495V70.6225ZM72.3385 76.1375C71.3348 76.1375 70.4592 75.9122 69.7116 75.4616C68.9742 75.0007 68.4006 74.3555 67.991 73.5259C67.5916 72.6964 67.3918 71.7132 67.3918 70.5764C67.3918 69.7161 67.5045 68.948 67.7298 68.272C67.9654 67.5858 68.2982 67.0072 68.7284 66.5361C69.1585 66.0547 69.6757 65.686 70.28 65.43C70.8945 65.1637 71.5806 65.0306 72.3385 65.0306C73.3627 65.0306 74.2434 65.2559 74.9808 65.7065C75.7285 66.1571 76.302 66.7972 76.7014 67.6268C77.1111 68.4461 77.3159 69.4242 77.3159 70.561C77.3159 71.4213 77.1981 72.1945 76.9626 72.8807C76.727 73.5669 76.3942 74.1507 75.964 74.632C75.5339 75.1134 75.0116 75.4872 74.3971 75.7535C73.7928 76.0095 73.1066 76.1375 72.3385 76.1375ZM72.3385 75.0161C73.1169 75.0161 73.7723 74.842 74.3049 74.4938C74.8477 74.1455 75.2625 73.6386 75.5492 72.9729C75.836 72.3072 75.9794 71.5083 75.9794 70.5764C75.9794 69.1733 75.6619 68.0877 75.0269 67.3196C74.4022 66.5412 73.5061 66.152 72.3385 66.152C71.5806 66.152 70.9303 66.3261 70.3875 66.6743C69.8549 67.0226 69.4453 67.5295 69.1585 68.1952C68.8718 68.8507 68.7284 69.6444 68.7284 70.5764C68.7284 71.9692 69.0459 73.0599 69.6808 73.8485C70.3158 74.6269 71.2017 75.0161 72.3385 75.0161ZM80.1979 76.1068C79.9931 76.1068 79.8343 76.0505 79.7217 75.9378C79.6193 75.8149 79.568 75.6511 79.568 75.4462V65.814C79.568 65.599 79.6244 65.4402 79.737 65.3378C79.8497 65.2252 80.0084 65.1688 80.2133 65.1688H83.8541C85.0114 65.1688 85.9024 65.4402 86.5272 65.983C87.1519 66.5258 87.4643 67.2991 87.4643 68.3027C87.4643 68.9377 87.3209 69.4908 87.0341 69.9619C86.7576 70.4227 86.3479 70.7761 85.8051 71.0219C85.2623 71.2574 84.612 71.3752 83.8541 71.3752L84.0078 71.1755H84.315C84.7144 71.1755 85.0626 71.2779 85.3596 71.4827C85.6566 71.6876 85.928 72.0153 86.1738 72.4659L87.6486 75.2158C87.7306 75.3592 87.7664 75.5026 87.7562 75.6459C87.7562 75.7791 87.7101 75.8917 87.6179 75.9839C87.5257 76.0658 87.3926 76.1068 87.2185 76.1068C87.0444 76.1068 86.901 76.0658 86.7883 75.9839C86.6757 75.902 86.5784 75.7842 86.4965 75.6306L84.822 72.5274C84.5864 72.087 84.315 71.7951 84.0078 71.6517C83.7005 71.4981 83.296 71.4213 82.7941 71.4213H80.8278V75.4462C80.8278 75.6511 80.7765 75.8149 80.6741 75.9378C80.5717 76.0505 80.413 76.1068 80.1979 76.1068ZM80.8278 70.4227H83.6698C84.5096 70.4227 85.1446 70.2486 85.5747 69.9004C86.0049 69.542 86.2199 69.0094 86.2199 68.3027C86.2199 67.6166 86.0049 67.0994 85.5747 66.7512C85.1446 66.3927 84.5096 66.2135 83.6698 66.2135H80.8278V70.4227ZM92.8321 76.1068C92.6375 76.1068 92.4839 76.0505 92.3712 75.9378C92.2586 75.8149 92.2022 75.6511 92.2022 75.4462V66.2596H88.7457C88.5614 66.2596 88.418 66.2083 88.3156 66.1059C88.2132 66.0035 88.1619 65.8704 88.1619 65.7065C88.1619 65.5324 88.2132 65.3993 88.3156 65.3071C88.418 65.2149 88.5614 65.1688 88.7457 65.1688H96.9338C97.1182 65.1688 97.2616 65.2149 97.364 65.3071C97.4664 65.3993 97.5176 65.5324 97.5176 65.7065C97.5176 65.8806 97.4664 66.0189 97.364 66.1213C97.2616 66.2135 97.1182 66.2596 96.9338 66.2596H93.4773V75.4462C93.4773 75.6511 93.421 75.8149 93.3083 75.9378C93.2059 76.0505 93.0472 76.1068 92.8321 76.1068ZM101.913 76.1375C101.432 76.1375 100.961 76.0966 100.5 76.0146C100.039 75.9327 99.6092 75.8149 99.2097 75.6613C98.8206 75.5077 98.4672 75.3131 98.1497 75.0775C98.0268 74.9854 97.9398 74.8829 97.8886 74.7703C97.8476 74.6474 97.8374 74.5296 97.8578 74.4169C97.8886 74.2941 97.9398 74.1916 98.0115 74.1097C98.0934 74.0278 98.1907 73.9817 98.3034 73.9714C98.416 73.9612 98.5389 73.997 98.672 74.079C99.1329 74.4067 99.6245 74.6474 100.147 74.801C100.669 74.9444 101.258 75.0161 101.913 75.0161C102.835 75.0161 103.516 74.8471 103.957 74.5091C104.407 74.1609 104.633 73.7052 104.633 73.1419C104.633 72.681 104.469 72.3226 104.141 72.0665C103.824 71.8002 103.286 71.5903 102.528 71.4367L100.93 71.114C99.9676 70.9092 99.2456 70.5764 98.7642 70.1155C98.2931 69.6444 98.0576 69.0197 98.0576 68.2413C98.0576 67.7599 98.1549 67.3247 98.3494 66.9355C98.544 66.5361 98.8154 66.1981 99.1636 65.9216C99.5119 65.6348 99.9266 65.4146 100.408 65.261C100.889 65.1074 101.422 65.0306 102.006 65.0306C102.651 65.0306 103.25 65.1227 103.803 65.3071C104.366 65.4812 104.873 65.7475 105.324 66.1059C105.437 66.1981 105.513 66.3056 105.554 66.4285C105.595 66.5412 105.6 66.6539 105.57 66.7665C105.539 66.8689 105.483 66.956 105.401 67.0277C105.329 67.0994 105.232 67.1403 105.109 67.1506C104.996 67.1608 104.868 67.1198 104.725 67.0277C104.315 66.7204 103.89 66.5002 103.45 66.3671C103.009 66.2237 102.523 66.152 101.99 66.152C101.448 66.152 100.976 66.234 100.577 66.3978C100.188 66.5617 99.8806 66.8024 99.6552 67.1198C99.4402 67.4271 99.3326 67.7855 99.3326 68.1952C99.3326 68.6868 99.4811 69.076 99.7781 69.3627C100.085 69.6495 100.582 69.8595 101.268 69.9926L102.866 70.3306C103.9 70.5456 104.663 70.8734 105.155 71.3138C105.657 71.7439 105.908 72.3328 105.908 73.0804C105.908 73.5311 105.816 73.9458 105.631 74.3248C105.447 74.7037 105.181 75.0314 104.832 75.308C104.484 75.5742 104.064 75.7791 103.573 75.9225C103.081 76.0658 102.528 76.1375 101.913 76.1375ZM112.437 76.1068C112.253 76.1068 112.11 76.0556 112.007 75.9532C111.905 75.8405 111.854 75.6869 111.854 75.4923V65.6758C111.854 65.471 111.905 65.3173 112.007 65.2149C112.11 65.1125 112.253 65.0613 112.437 65.0613C112.601 65.0613 112.729 65.0971 112.821 65.1688C112.924 65.2303 113.016 65.3378 113.098 65.4914L117.307 73.4184H116.846L121.04 65.4914C121.122 65.3378 121.209 65.2303 121.301 65.1688C121.394 65.0971 121.527 65.0613 121.701 65.0613C121.875 65.0613 122.013 65.1125 122.116 65.2149C122.218 65.3173 122.269 65.471 122.269 65.6758V75.4923C122.269 75.6869 122.218 75.8405 122.116 75.9532C122.023 76.0556 121.88 76.1068 121.686 76.1068C121.501 76.1068 121.358 76.0556 121.255 75.9532C121.153 75.8405 121.102 75.6869 121.102 75.4923V66.8587H121.47L117.63 74.0636C117.558 74.1968 117.481 74.2941 117.399 74.3555C117.328 74.4067 117.22 74.4323 117.077 74.4323C116.933 74.4323 116.821 74.4016 116.739 74.3401C116.657 74.2787 116.585 74.1865 116.524 74.0636L112.637 66.8433H113.006V75.4923C113.006 75.6869 112.955 75.8405 112.852 75.9532C112.76 76.0556 112.622 76.1068 112.437 76.1068ZM124.734 76.1068C124.571 76.1068 124.437 76.071 124.335 75.9993C124.243 75.9173 124.187 75.8149 124.166 75.692C124.156 75.5589 124.187 75.4104 124.258 75.2465L128.483 65.6297C128.575 65.4249 128.683 65.2815 128.805 65.1996C128.939 65.1074 129.082 65.0613 129.236 65.0613C129.389 65.0613 129.528 65.1074 129.65 65.1996C129.784 65.2815 129.891 65.4249 129.973 65.6297L134.213 75.2465C134.295 75.4104 134.326 75.5589 134.305 75.692C134.295 75.8252 134.244 75.9276 134.152 75.9993C134.059 76.071 133.931 76.1068 133.768 76.1068C133.583 76.1068 133.435 76.0607 133.322 75.9685C133.209 75.8661 133.117 75.7227 133.045 75.5384L131.909 72.9114L132.523 73.2341H125.917L126.547 72.9114L125.426 75.5384C125.334 75.733 125.236 75.8764 125.134 75.9685C125.031 76.0607 124.898 76.1068 124.734 76.1068ZM129.22 66.6436L126.747 72.4659L126.378 72.174H132.062L131.724 72.4659L129.251 66.6436H129.22ZM136.786 76.1068C136.582 76.1068 136.423 76.0505 136.31 75.9378C136.208 75.8149 136.157 75.6511 136.157 75.4462V65.814C136.157 65.599 136.213 65.4402 136.326 65.3378C136.438 65.2252 136.597 65.1688 136.802 65.1688H140.443C141.6 65.1688 142.491 65.4402 143.116 65.983C143.74 66.5258 144.053 67.2991 144.053 68.3027C144.053 68.9377 143.909 69.4908 143.623 69.9619C143.346 70.4227 142.936 70.7761 142.394 71.0219C141.851 71.2574 141.201 71.3752 140.443 71.3752L140.596 71.1755H140.904C141.303 71.1755 141.651 71.2779 141.948 71.4827C142.245 71.6876 142.517 72.0153 142.762 72.4659L144.237 75.2158C144.319 75.3592 144.355 75.5026 144.345 75.6459C144.345 75.7791 144.299 75.8917 144.206 75.9839C144.114 76.0658 143.981 76.1068 143.807 76.1068C143.633 76.1068 143.49 76.0658 143.377 75.9839C143.264 75.902 143.167 75.7842 143.085 75.6306L141.411 72.5274C141.175 72.087 140.904 71.7951 140.596 71.6517C140.289 71.4981 139.885 71.4213 139.383 71.4213H137.416V75.4462C137.416 75.6511 137.365 75.8149 137.263 75.9378C137.16 76.0505 137.002 76.1068 136.786 76.1068ZM137.416 70.4227H140.258C141.098 70.4227 141.733 70.2486 142.163 69.9004C142.593 69.542 142.808 69.0094 142.808 68.3027C142.808 67.6166 142.593 67.0994 142.163 66.7512C141.733 66.3927 141.098 66.2135 140.258 66.2135H137.416V70.4227ZM147.063 76.1068C146.858 76.1068 146.699 76.0505 146.587 75.9378C146.484 75.8149 146.433 75.6511 146.433 75.4462V65.7065C146.433 65.4914 146.484 65.3327 146.587 65.2303C146.699 65.1176 146.858 65.0613 147.063 65.0613C147.268 65.0613 147.421 65.1176 147.524 65.2303C147.637 65.3327 147.693 65.4914 147.693 65.7065V70.0848H147.724L152.732 65.4146C152.855 65.2917 152.977 65.2047 153.1 65.1535C153.223 65.092 153.356 65.0613 153.5 65.0613C153.694 65.0613 153.833 65.1074 153.915 65.1996C154.007 65.2917 154.043 65.4044 154.022 65.5375C154.002 65.6707 153.93 65.7987 153.807 65.9216L148.569 70.7761L148.584 70.1001L154.053 75.1543C154.206 75.2977 154.288 75.4462 154.299 75.5998C154.309 75.7432 154.263 75.8661 154.16 75.9685C154.068 76.0607 153.925 76.1068 153.73 76.1068C153.577 76.1068 153.443 76.071 153.331 75.9993C153.228 75.9378 153.111 75.8405 152.977 75.7074L147.724 70.899H147.693V75.4462C147.693 75.6511 147.642 75.8149 147.539 75.9378C147.437 76.0505 147.278 76.1068 147.063 76.1068ZM156.726 75.9993C156.501 75.9993 156.326 75.9429 156.204 75.8303C156.091 75.7074 156.035 75.5333 156.035 75.308V65.8601C156.035 65.6348 156.091 65.4658 156.204 65.3532C156.326 65.2303 156.501 65.1688 156.726 65.1688H162.441C162.615 65.1688 162.748 65.2149 162.84 65.3071C162.932 65.3993 162.978 65.5273 162.978 65.6912C162.978 65.8653 162.932 65.9984 162.84 66.0906C162.748 66.1827 162.615 66.2288 162.441 66.2288H157.264V69.9772H162.118C162.292 69.9772 162.425 70.0233 162.517 70.1155C162.61 70.1974 162.656 70.3255 162.656 70.4996C162.656 70.6737 162.61 70.8068 162.517 70.899C162.425 70.9912 162.292 71.0372 162.118 71.0372H157.264V74.9393H162.441C162.615 74.9393 162.748 74.9854 162.84 75.0775C162.932 75.1697 162.978 75.2977 162.978 75.4616C162.978 75.6357 162.932 75.7688 162.84 75.861C162.748 75.9532 162.615 75.9993 162.441 75.9993H156.726ZM168.083 76.1068C167.889 76.1068 167.735 76.0505 167.623 75.9378C167.51 75.8149 167.454 75.6511 167.454 75.4462V66.2596H163.997C163.813 66.2596 163.669 66.2083 163.567 66.1059C163.465 66.0035 163.413 65.8704 163.413 65.7065C163.413 65.5324 163.465 65.3993 163.567 65.3071C163.669 65.2149 163.813 65.1688 163.997 65.1688H172.185C172.37 65.1688 172.513 65.2149 172.615 65.3071C172.718 65.3993 172.769 65.5324 172.769 65.7065C172.769 65.8806 172.718 66.0189 172.615 66.1213C172.513 66.2135 172.37 66.2596 172.185 66.2596H168.729V75.4462C168.729 75.6511 168.672 75.8149 168.56 75.9378C168.457 76.0505 168.299 76.1068 168.083 76.1068ZM177.165 76.1375C176.684 76.1375 176.212 76.0966 175.752 76.0146C175.291 75.9327 174.861 75.8149 174.461 75.6613C174.072 75.5077 173.719 75.3131 173.401 75.0775C173.278 74.9854 173.191 74.8829 173.14 74.7703C173.099 74.6474 173.089 74.5296 173.109 74.4169C173.14 74.2941 173.191 74.1916 173.263 74.1097C173.345 74.0278 173.442 73.9817 173.555 73.9714C173.667 73.9612 173.79 73.997 173.923 74.079C174.384 74.4067 174.876 74.6474 175.398 74.801C175.921 74.9444 176.509 75.0161 177.165 75.0161C178.087 75.0161 178.768 74.8471 179.208 74.5091C179.659 74.1609 179.884 73.7052 179.884 73.1419C179.884 72.681 179.72 72.3226 179.392 72.0665C179.075 71.8002 178.537 71.5903 177.779 71.4367L176.182 71.114C175.219 70.9092 174.497 70.5764 174.016 70.1155C173.544 69.6444 173.309 69.0197 173.309 68.2413C173.309 67.7599 173.406 67.3247 173.601 66.9355C173.795 66.5361 174.067 66.1981 174.415 65.9216C174.763 65.6348 175.178 65.4146 175.659 65.261C176.141 65.1074 176.673 65.0306 177.257 65.0306C177.902 65.0306 178.501 65.1227 179.054 65.3071C179.618 65.4812 180.125 65.7475 180.575 66.1059C180.688 66.1981 180.765 66.3056 180.806 66.4285C180.847 66.5412 180.852 66.6539 180.821 66.7665C180.79 66.8689 180.734 66.956 180.652 67.0277C180.58 67.0994 180.483 67.1403 180.36 67.1506C180.248 67.1608 180.12 67.1198 179.976 67.0277C179.567 66.7204 179.141 66.5002 178.701 66.3671C178.261 66.2237 177.774 66.152 177.242 66.152C176.699 66.152 176.228 66.234 175.828 66.3978C175.439 66.5617 175.132 66.8024 174.907 67.1198C174.692 67.4271 174.584 67.7855 174.584 68.1952C174.584 68.6868 174.732 69.076 175.029 69.3627C175.337 69.6495 175.833 69.8595 176.52 69.9926L178.117 70.3306C179.152 70.5456 179.915 70.8734 180.406 71.3138C180.908 71.7439 181.159 72.3328 181.159 73.0804C181.159 73.5311 181.067 73.9458 180.883 74.3248C180.698 74.7037 180.432 75.0314 180.084 75.308C179.735 75.5742 179.316 75.7791 178.824 75.9225C178.332 76.0658 177.779 76.1375 177.165 76.1375ZM187.346 76.1375C187.059 76.1375 186.823 76.071 186.639 75.9378C186.465 75.8047 186.352 75.6255 186.301 75.4001C186.26 75.1748 186.306 74.9239 186.439 74.6474L190.372 66.0291C190.536 65.6809 190.731 65.43 190.956 65.2764C191.181 65.1125 191.442 65.0306 191.739 65.0306C192.036 65.0306 192.298 65.1125 192.523 65.2764C192.748 65.43 192.938 65.6809 193.091 66.0291L197.055 74.6474C197.188 74.9239 197.234 75.1799 197.193 75.4155C197.162 75.6408 197.06 75.82 196.886 75.9532C196.712 76.0761 196.486 76.1375 196.21 76.1375C195.862 76.1375 195.59 76.0556 195.396 75.8917C195.211 75.7279 195.047 75.4718 194.904 75.1236L193.982 72.9883L194.935 73.6488H188.529L189.481 72.9883L188.575 75.1236C188.421 75.4821 188.257 75.7432 188.083 75.9071C187.919 76.0607 187.673 76.1375 187.346 76.1375ZM191.709 67.7036L189.742 72.3891L189.327 71.79H194.136L193.721 72.3891L191.739 67.7036H191.709ZM199.711 76.1375C199.363 76.1375 199.097 76.0402 198.912 75.8456C198.728 75.6511 198.636 75.3797 198.636 75.0314V66.1367C198.636 65.7884 198.733 65.517 198.928 65.3225C199.133 65.1279 199.409 65.0306 199.757 65.0306C200.065 65.0306 200.305 65.092 200.479 65.2149C200.664 65.3276 200.833 65.5273 200.986 65.814L204.535 72.2969H204.013L207.561 65.814C207.715 65.5273 207.879 65.3276 208.053 65.2149C208.237 65.092 208.478 65.0306 208.775 65.0306C209.123 65.0306 209.39 65.1279 209.574 65.3225C209.769 65.517 209.866 65.7884 209.866 66.1367V75.0314C209.866 75.3797 209.774 75.6511 209.589 75.8456C209.405 76.0402 209.139 76.1375 208.79 76.1375C208.442 76.1375 208.171 76.0402 207.976 75.8456C207.792 75.6511 207.7 75.3797 207.7 75.0314V68.8097H208.038L205.18 73.9254C205.057 74.1199 204.924 74.2684 204.781 74.3709C204.648 74.463 204.469 74.5091 204.243 74.5091C204.018 74.5091 203.834 74.4579 203.69 74.3555C203.547 74.2531 203.419 74.1097 203.306 73.9254L200.418 68.7943H200.787V75.0314C200.787 75.3797 200.695 75.6511 200.51 75.8456C200.336 76.0402 200.07 76.1375 199.711 76.1375ZM213.168 76.1375C212.82 76.1375 212.554 76.0402 212.37 75.8456C212.185 75.6511 212.093 75.3797 212.093 75.0314V66.1367C212.093 65.7884 212.19 65.517 212.385 65.3225C212.59 65.1279 212.866 65.0306 213.214 65.0306C213.522 65.0306 213.762 65.092 213.936 65.2149C214.121 65.3276 214.29 65.5273 214.443 65.814L217.992 72.2969H217.47L221.019 65.814C221.172 65.5273 221.336 65.3276 221.51 65.2149C221.694 65.092 221.935 65.0306 222.232 65.0306C222.58 65.0306 222.847 65.1279 223.031 65.3225C223.226 65.517 223.323 65.7884 223.323 66.1367V75.0314C223.323 75.3797 223.231 75.6511 223.046 75.8456C222.862 76.0402 222.596 76.1375 222.248 76.1375C221.899 76.1375 221.628 76.0402 221.433 75.8456C221.249 75.6511 221.157 75.3797 221.157 75.0314V68.8097H221.495L218.637 73.9254C218.514 74.1199 218.381 74.2684 218.238 74.3709C218.105 74.463 217.926 74.5091 217.7 74.5091C217.475 74.5091 217.291 74.4579 217.147 74.3555C217.004 74.2531 216.876 74.1097 216.763 73.9254L213.875 68.7943H214.244V75.0314C214.244 75.3797 214.152 75.6511 213.967 75.8456C213.793 76.0402 213.527 76.1375 213.168 76.1375ZM103.82 93.9993C103.595 93.9993 103.421 93.9429 103.298 93.8303C103.185 93.7074 103.129 93.5333 103.129 93.308V83.8601C103.129 83.6348 103.185 83.4658 103.298 83.3532C103.421 83.2303 103.595 83.1688 103.82 83.1688H107.461C108.209 83.1688 108.839 83.2815 109.351 83.5068C109.873 83.7219 110.273 84.0394 110.549 84.4593C110.826 84.8792 110.964 85.3912 110.964 85.9955C110.964 86.6714 110.764 87.2347 110.365 87.6854C109.976 88.136 109.443 88.433 108.767 88.5764V88.3613C109.535 88.4535 110.134 88.73 110.564 89.1909C111.005 89.6517 111.225 90.2611 111.225 91.019C111.225 91.9817 110.913 92.7191 110.288 93.2312C109.663 93.7432 108.782 93.9993 107.646 93.9993H103.82ZM104.358 92.9854H107.523C108.342 92.9854 108.957 92.8215 109.366 92.4938C109.776 92.166 109.981 91.6693 109.981 91.0036C109.981 90.3277 109.776 89.831 109.366 89.5135C108.957 89.1857 108.342 89.0219 107.523 89.0219H104.358V92.9854ZM104.358 88.008H107.277C108.076 88.008 108.68 87.8441 109.09 87.5164C109.51 87.1886 109.72 86.7175 109.72 86.103C109.72 85.4681 109.51 84.9918 109.09 84.6743C108.68 84.3466 108.076 84.1827 107.277 84.1827H104.358V88.008ZM117.781 94.1375C117.064 94.1375 116.435 94.0454 115.892 93.861C115.359 93.6664 114.909 93.3848 114.54 93.0161C114.171 92.6371 113.895 92.1712 113.71 91.6181C113.526 91.0651 113.434 90.4301 113.434 89.7132V83.7065C113.434 83.4914 113.485 83.3327 113.587 83.2303C113.7 83.1176 113.859 83.0613 114.064 83.0613C114.269 83.0613 114.422 83.1176 114.525 83.2303C114.637 83.3327 114.694 83.4914 114.694 83.7065V89.6517C114.694 90.7783 114.955 91.6232 115.477 92.1865C115.999 92.7396 116.767 93.0161 117.781 93.0161C118.795 93.0161 119.558 92.7396 120.07 92.1865C120.582 91.6232 120.838 90.7783 120.838 89.6517V83.7065C120.838 83.4914 120.895 83.3327 121.007 83.2303C121.12 83.1176 121.279 83.0613 121.484 83.0613C121.678 83.0613 121.827 83.1176 121.929 83.2303C122.042 83.3327 122.098 83.4914 122.098 83.7065V89.7132C122.098 90.6656 121.934 91.4747 121.607 92.1404C121.289 92.8061 120.808 93.308 120.163 93.6459C119.517 93.9737 118.724 94.1375 117.781 94.1375ZM125.317 94.1068C125.112 94.1068 124.954 94.0505 124.841 93.9378C124.739 93.8149 124.687 93.6511 124.687 93.4462V83.7219C124.687 83.5068 124.739 83.3429 124.841 83.2303C124.954 83.1176 125.112 83.0613 125.317 83.0613C125.522 83.0613 125.676 83.1176 125.778 83.2303C125.891 83.3429 125.947 83.5068 125.947 83.7219V93.4462C125.947 93.6511 125.896 93.8149 125.793 93.9378C125.691 94.0505 125.532 94.1068 125.317 94.1068ZM129.278 93.9993C129.073 93.9993 128.915 93.9429 128.802 93.8303C128.689 93.7074 128.633 93.5435 128.633 93.3387V83.7526C128.633 83.5375 128.684 83.3737 128.787 83.261C128.899 83.1483 129.058 83.092 129.263 83.092C129.468 83.092 129.621 83.1483 129.724 83.261C129.836 83.3737 129.893 83.5375 129.893 83.7526V92.8932H134.932C135.116 92.8932 135.259 92.9444 135.362 93.0468C135.464 93.139 135.515 93.2721 135.515 93.4462C135.515 93.6203 135.464 93.7586 135.362 93.861C135.259 93.9532 135.116 93.9993 134.932 93.9993H129.278ZM138.311 94.1068C138.117 94.1068 137.963 94.0505 137.851 93.9378C137.738 93.8149 137.682 93.6511 137.682 93.4462V84.2596H134.225C134.041 84.2596 133.897 84.2083 133.795 84.1059C133.693 84.0035 133.641 83.8704 133.641 83.7065C133.641 83.5324 133.693 83.3993 133.795 83.3071C133.897 83.2149 134.041 83.1688 134.225 83.1688H142.413C142.598 83.1688 142.741 83.2149 142.843 83.3071C142.946 83.3993 142.997 83.5324 142.997 83.7065C142.997 83.8806 142.946 84.0189 142.843 84.1213C142.741 84.2135 142.598 84.2596 142.413 84.2596H138.957V93.4462C138.957 93.6511 138.9 93.8149 138.788 93.9378C138.685 94.0505 138.527 94.1068 138.311 94.1068ZM152.773 94.1375C151.769 94.1375 150.894 93.9122 150.146 93.4616C149.409 93.0007 148.835 92.3555 148.426 91.5259C148.026 90.6964 147.826 89.7132 147.826 88.5764C147.826 87.7161 147.939 86.948 148.164 86.272C148.4 85.5858 148.733 85.0072 149.163 84.5361C149.593 84.0547 150.11 83.686 150.715 83.43C151.329 83.1637 152.015 83.0306 152.773 83.0306C153.797 83.0306 154.678 83.2559 155.415 83.7065C156.163 84.1571 156.737 84.7972 157.136 85.6268C157.546 86.4461 157.751 87.4242 157.751 88.561C157.751 89.4213 157.633 90.1945 157.397 90.8807C157.162 91.5669 156.829 92.1507 156.399 92.632C155.969 93.1134 155.446 93.4872 154.832 93.7535C154.227 94.0095 153.541 94.1375 152.773 94.1375ZM152.773 93.0161C153.552 93.0161 154.207 92.842 154.74 92.4938C155.282 92.1455 155.697 91.6386 155.984 90.9729C156.271 90.3072 156.414 89.5083 156.414 88.5764C156.414 87.1733 156.097 86.0877 155.462 85.3196C154.837 84.5412 153.941 84.152 152.773 84.152C152.015 84.152 151.365 84.3261 150.822 84.6743C150.29 85.0226 149.88 85.5295 149.593 86.1952C149.306 86.8507 149.163 87.6444 149.163 88.5764C149.163 89.9692 149.481 91.0599 150.115 91.8485C150.75 92.6269 151.636 93.0161 152.773 93.0161ZM160.602 94.1068C160.407 94.1068 160.259 94.0556 160.156 93.9532C160.054 93.8405 160.003 93.6818 160.003 93.4769V83.7065C160.003 83.5017 160.054 83.3429 160.156 83.2303C160.259 83.1176 160.392 83.0613 160.556 83.0613C160.72 83.0613 160.837 83.092 160.909 83.1535C160.991 83.2047 161.083 83.302 161.186 83.4454L167.884 92.3709H167.515V83.6758C167.515 83.4812 167.566 83.3327 167.668 83.2303C167.771 83.1176 167.919 83.0613 168.114 83.0613C168.298 83.0613 168.437 83.1176 168.529 83.2303C168.631 83.3327 168.682 83.4812 168.682 83.6758V93.4923C168.682 93.6869 168.636 93.8405 168.544 93.9532C168.462 94.0556 168.339 94.1068 168.175 94.1068C168.022 94.1068 167.899 94.0761 167.807 94.0146C167.715 93.9532 167.617 93.8559 167.515 93.7227L160.832 84.7972H161.186V93.4769C161.186 93.6818 161.134 93.8405 161.032 93.9532C160.93 94.0556 160.786 94.1068 160.602 94.1068ZM69.5018 112.138C69.1126 112.138 68.8156 112.03 68.6108 111.815C68.406 111.6 68.3036 111.298 68.3036 110.909V103.135H65.5844C65.2669 103.135 65.0212 103.048 64.847 102.874C64.6729 102.7 64.5859 102.459 64.5859 102.152C64.5859 101.835 64.6729 101.594 64.847 101.43C65.0212 101.256 65.2669 101.169 65.5844 101.169H73.4039C73.7213 101.169 73.9671 101.256 74.1412 101.43C74.3154 101.594 74.4024 101.835 74.4024 102.152C74.4024 102.459 74.3154 102.7 74.1412 102.874C73.9671 103.048 73.7213 103.135 73.4039 103.135H70.6847V110.909C70.6847 111.298 70.5823 111.6 70.3775 111.815C70.1829 112.03 69.891 112.138 69.5018 112.138ZM76.6274 112.138C76.2382 112.138 75.9412 112.03 75.7364 111.815C75.5316 111.6 75.4292 111.298 75.4292 110.909V102.26C75.4292 101.87 75.5316 101.568 75.7364 101.353C75.9412 101.138 76.2382 101.031 76.6274 101.031C77.0064 101.031 77.2982 101.138 77.5031 101.353C77.7079 101.568 77.8103 101.87 77.8103 102.26V105.516H82.8492V102.26C82.8492 101.87 82.9516 101.568 83.1564 101.353C83.3612 101.138 83.6531 101.031 84.0321 101.031C84.4212 101.031 84.7182 101.138 84.9231 101.353C85.1279 101.568 85.2303 101.87 85.2303 102.26V110.909C85.2303 111.298 85.1279 111.6 84.9231 111.815C84.7182 112.03 84.4212 112.138 84.0321 112.138C83.6531 112.138 83.3612 112.03 83.1564 111.815C82.9516 111.6 82.8492 111.298 82.8492 110.909V107.498H77.8103V110.909C77.8103 111.298 77.7079 111.6 77.5031 111.815C77.3085 112.03 77.0166 112.138 76.6274 112.138ZM87.7232 112.138C87.4365 112.138 87.2009 112.071 87.0166 111.938C86.8424 111.805 86.7298 111.625 86.6786 111.4C86.6376 111.175 86.6837 110.924 86.8168 110.647L90.7496 102.029C90.9135 101.681 91.1081 101.43 91.3334 101.276C91.5587 101.113 91.8198 101.031 92.1168 101.031C92.4138 101.031 92.675 101.113 92.9003 101.276C93.1256 101.43 93.3151 101.681 93.4687 102.029L97.4322 110.647C97.5653 110.924 97.6114 111.18 97.5705 111.415C97.5397 111.641 97.4373 111.82 97.2632 111.953C97.0891 112.076 96.8638 112.138 96.5873 112.138C96.2391 112.138 95.9677 112.056 95.7731 111.892C95.5887 111.728 95.4249 111.472 95.2815 111.124L94.3597 108.988L95.3122 109.649H88.9061L89.8586 108.988L88.9522 111.124C88.7986 111.482 88.6347 111.743 88.4606 111.907C88.2967 112.061 88.0509 112.138 87.7232 112.138ZM92.0861 103.704L90.1197 108.389L89.705 107.79H94.5134L94.0986 108.389L92.1168 103.704H92.0861ZM100.196 111.999C99.8072 111.999 99.505 111.892 99.29 111.677C99.0851 111.462 98.9827 111.165 98.9827 110.786V102.352C98.9827 101.952 99.0851 101.65 99.29 101.445C99.4948 101.241 99.7918 101.138 100.181 101.138C100.56 101.138 100.852 101.241 101.057 101.445C101.261 101.65 101.364 101.952 101.364 102.352V109.987H105.481C105.809 109.987 106.06 110.074 106.234 110.248C106.418 110.422 106.51 110.668 106.51 110.985C106.51 111.313 106.418 111.564 106.234 111.738C106.06 111.912 105.809 111.999 105.481 111.999H100.196ZM109.033 111.999C108.634 111.999 108.327 111.892 108.112 111.677C107.897 111.462 107.789 111.154 107.789 110.755V102.413C107.789 102.014 107.897 101.707 108.112 101.491C108.327 101.276 108.634 101.169 109.033 101.169H114.395C114.702 101.169 114.933 101.251 115.086 101.415C115.25 101.568 115.332 101.794 115.332 102.091C115.332 102.398 115.25 102.633 115.086 102.797C114.933 102.951 114.702 103.028 114.395 103.028H110.063V105.562H114.042C114.359 105.562 114.595 105.644 114.748 105.808C114.912 105.962 114.994 106.192 114.994 106.5C114.994 106.807 114.912 107.042 114.748 107.206C114.595 107.36 114.359 107.437 114.042 107.437H110.063V110.14H114.395C114.702 110.14 114.933 110.222 115.086 110.386C115.25 110.54 115.332 110.765 115.332 111.062C115.332 111.369 115.25 111.605 115.086 111.769C114.933 111.922 114.702 111.999 114.395 111.999H109.033ZM120.812 112.168C120.382 112.168 119.941 112.132 119.491 112.061C119.05 111.999 118.625 111.907 118.215 111.784C117.816 111.661 117.458 111.508 117.14 111.323C116.915 111.2 116.756 111.042 116.664 110.847C116.572 110.642 116.536 110.437 116.556 110.233C116.587 110.028 116.664 109.849 116.787 109.695C116.92 109.531 117.084 109.429 117.278 109.388C117.483 109.336 117.709 109.372 117.954 109.495C118.374 109.731 118.83 109.905 119.322 110.018C119.823 110.13 120.32 110.187 120.812 110.187C121.559 110.187 122.092 110.074 122.409 109.849C122.727 109.613 122.886 109.321 122.886 108.973C122.886 108.676 122.773 108.44 122.548 108.266C122.322 108.092 121.928 107.944 121.365 107.821L119.629 107.452C118.646 107.247 117.913 106.899 117.432 106.407C116.961 105.906 116.725 105.25 116.725 104.441C116.725 103.929 116.833 103.463 117.048 103.043C117.263 102.623 117.565 102.26 117.954 101.952C118.344 101.645 118.804 101.41 119.337 101.246C119.88 101.082 120.474 101 121.119 101C121.693 101 122.256 101.072 122.809 101.215C123.362 101.348 123.848 101.548 124.268 101.814C124.473 101.937 124.611 102.096 124.683 102.29C124.765 102.475 124.791 102.664 124.76 102.859C124.739 103.043 124.663 103.207 124.529 103.35C124.407 103.494 124.248 103.586 124.053 103.627C123.859 103.668 123.623 103.622 123.347 103.489C123.009 103.314 122.65 103.186 122.271 103.104C121.892 103.023 121.503 102.982 121.104 102.982C120.673 102.982 120.305 103.038 119.998 103.151C119.701 103.263 119.47 103.422 119.306 103.627C119.153 103.832 119.076 104.067 119.076 104.333C119.076 104.63 119.183 104.871 119.398 105.055C119.613 105.24 119.987 105.388 120.52 105.501L122.256 105.87C123.259 106.085 124.007 106.433 124.499 106.914C124.99 107.385 125.236 108.01 125.236 108.789C125.236 109.301 125.134 109.767 124.929 110.187C124.724 110.596 124.427 110.95 124.038 111.247C123.649 111.544 123.183 111.774 122.64 111.938C122.097 112.091 121.488 112.168 120.812 112.168ZM131.828 112.107C131.623 112.107 131.465 112.05 131.352 111.938C131.25 111.815 131.198 111.651 131.198 111.446V101.814C131.198 101.599 131.255 101.44 131.367 101.338C131.48 101.225 131.639 101.169 131.844 101.169H135.484C136.642 101.169 137.533 101.456 138.157 102.029C138.782 102.592 139.095 103.391 139.095 104.426C139.095 105.45 138.782 106.249 138.157 106.822C137.533 107.396 136.642 107.682 135.484 107.682H132.458V111.446C132.458 111.651 132.407 111.815 132.304 111.938C132.202 112.05 132.043 112.107 131.828 112.107ZM132.458 106.622H135.331C136.16 106.622 136.785 106.438 137.205 106.069C137.635 105.69 137.85 105.143 137.85 104.426C137.85 103.698 137.635 103.151 137.205 102.782C136.785 102.403 136.16 102.213 135.331 102.213H132.458V106.622ZM141.55 112.107C141.345 112.107 141.186 112.05 141.073 111.938C140.971 111.815 140.92 111.651 140.92 111.446V101.814C140.92 101.599 140.976 101.44 141.089 101.338C141.201 101.225 141.36 101.169 141.565 101.169H145.206C146.363 101.169 147.254 101.44 147.879 101.983C148.504 102.526 148.816 103.299 148.816 104.303C148.816 104.938 148.673 105.491 148.386 105.962C148.109 106.423 147.7 106.776 147.157 107.022C146.614 107.257 145.964 107.375 145.206 107.375L145.36 107.175H145.667C146.066 107.175 146.414 107.278 146.711 107.483C147.008 107.688 147.28 108.015 147.526 108.466L149 111.216C149.082 111.359 149.118 111.503 149.108 111.646C149.108 111.779 149.062 111.892 148.97 111.984C148.877 112.066 148.744 112.107 148.57 112.107C148.396 112.107 148.253 112.066 148.14 111.984C148.027 111.902 147.93 111.784 147.848 111.631L146.174 108.527C145.938 108.087 145.667 107.795 145.36 107.652C145.052 107.498 144.648 107.421 144.146 107.421H142.18V111.446C142.18 111.651 142.128 111.815 142.026 111.938C141.923 112.05 141.765 112.107 141.55 112.107ZM142.18 106.423H145.022C145.861 106.423 146.496 106.249 146.926 105.9C147.357 105.542 147.572 105.009 147.572 104.303C147.572 103.617 147.357 103.099 146.926 102.751C146.496 102.393 145.861 102.213 145.022 102.213H142.18V106.423ZM155.669 112.138C154.665 112.138 153.789 111.912 153.042 111.462C152.304 111.001 151.731 110.355 151.321 109.526C150.922 108.696 150.722 107.713 150.722 106.576C150.722 105.716 150.835 104.948 151.06 104.272C151.295 103.586 151.628 103.007 152.058 102.536C152.489 102.055 153.006 101.686 153.61 101.43C154.225 101.164 154.911 101.031 155.669 101.031C156.693 101.031 157.574 101.256 158.311 101.707C159.059 102.157 159.632 102.797 160.031 103.627C160.441 104.446 160.646 105.424 160.646 106.561C160.646 107.421 160.528 108.195 160.293 108.881C160.057 109.567 159.724 110.151 159.294 110.632C158.864 111.113 158.342 111.487 157.727 111.753C157.123 112.01 156.437 112.138 155.669 112.138ZM155.669 111.016C156.447 111.016 157.102 110.842 157.635 110.494C158.178 110.146 158.593 109.639 158.879 108.973C159.166 108.307 159.309 107.508 159.309 106.576C159.309 105.173 158.992 104.088 158.357 103.32C157.732 102.541 156.836 102.152 155.669 102.152C154.911 102.152 154.26 102.326 153.718 102.674C153.185 103.023 152.775 103.53 152.489 104.195C152.202 104.851 152.058 105.644 152.058 106.576C152.058 107.969 152.376 109.06 153.011 109.849C153.646 110.627 154.532 111.016 155.669 111.016ZM165.511 112.107C165.316 112.107 165.162 112.05 165.05 111.938C164.937 111.815 164.881 111.651 164.881 111.446V102.26H161.424C161.24 102.26 161.096 102.208 160.994 102.106C160.892 102.004 160.84 101.87 160.84 101.707C160.84 101.532 160.892 101.399 160.994 101.307C161.096 101.215 161.24 101.169 161.424 101.169H169.612C169.797 101.169 169.94 101.215 170.042 101.307C170.145 101.399 170.196 101.532 170.196 101.707C170.196 101.881 170.145 102.019 170.042 102.121C169.94 102.213 169.797 102.26 169.612 102.26H166.156V111.446C166.156 111.651 166.099 111.815 165.987 111.938C165.884 112.05 165.726 112.107 165.511 112.107ZM175.337 112.138C174.333 112.138 173.457 111.912 172.71 111.462C171.972 111.001 171.399 110.355 170.989 109.526C170.59 108.696 170.39 107.713 170.39 106.576C170.39 105.716 170.503 104.948 170.728 104.272C170.963 103.586 171.296 103.007 171.726 102.536C172.157 102.055 172.674 101.686 173.278 101.43C173.893 101.164 174.579 101.031 175.337 101.031C176.361 101.031 177.241 101.256 177.979 101.707C178.727 102.157 179.3 102.797 179.699 103.627C180.109 104.446 180.314 105.424 180.314 106.561C180.314 107.421 180.196 108.195 179.961 108.881C179.725 109.567 179.392 110.151 178.962 110.632C178.532 111.113 178.01 111.487 177.395 111.753C176.791 112.01 176.105 112.138 175.337 112.138ZM175.337 111.016C176.115 111.016 176.77 110.842 177.303 110.494C177.846 110.146 178.261 109.639 178.547 108.973C178.834 108.307 178.977 107.508 178.977 106.576C178.977 105.173 178.66 104.088 178.025 103.32C177.4 102.541 176.504 102.152 175.337 102.152C174.579 102.152 173.928 102.326 173.386 102.674C172.853 103.023 172.443 103.53 172.157 104.195C171.87 104.851 171.726 105.644 171.726 106.576C171.726 107.969 172.044 109.06 172.679 109.849C173.314 110.627 174.2 111.016 175.337 111.016ZM187.252 112.138C186.186 112.138 185.275 111.912 184.517 111.462C183.759 111.011 183.175 110.371 182.766 109.541C182.366 108.712 182.167 107.723 182.167 106.576C182.167 105.716 182.279 104.948 182.505 104.272C182.74 103.586 183.073 103.007 183.503 102.536C183.944 102.055 184.481 101.686 185.116 101.43C185.751 101.164 186.463 101.031 187.252 101.031C187.887 101.031 188.491 101.123 189.064 101.307C189.638 101.481 190.135 101.742 190.555 102.091C190.688 102.193 190.775 102.311 190.816 102.444C190.867 102.567 190.872 102.69 190.831 102.813C190.8 102.925 190.739 103.023 190.647 103.104C190.565 103.176 190.462 103.212 190.339 103.212C190.217 103.212 190.078 103.161 189.925 103.058C189.556 102.761 189.151 102.541 188.711 102.398C188.271 102.254 187.794 102.183 187.282 102.183C186.473 102.183 185.787 102.357 185.224 102.705C184.661 103.043 184.235 103.54 183.949 104.195C183.662 104.851 183.519 105.644 183.519 106.576C183.519 107.508 183.662 108.307 183.949 108.973C184.235 109.628 184.661 110.13 185.224 110.478C185.787 110.816 186.473 110.985 187.282 110.985C187.784 110.985 188.26 110.914 188.711 110.77C189.162 110.617 189.576 110.391 189.955 110.094C190.109 109.992 190.247 109.946 190.37 109.956C190.493 109.956 190.595 109.992 190.677 110.064C190.759 110.135 190.816 110.227 190.846 110.34C190.887 110.453 190.887 110.571 190.846 110.693C190.816 110.816 190.739 110.924 190.616 111.016C190.186 111.385 189.679 111.666 189.095 111.861C188.522 112.045 187.907 112.138 187.252 112.138ZM197.135 112.138C196.131 112.138 195.256 111.912 194.508 111.462C193.771 111.001 193.197 110.355 192.787 109.526C192.388 108.696 192.188 107.713 192.188 106.576C192.188 105.716 192.301 104.948 192.526 104.272C192.762 103.586 193.095 103.007 193.525 102.536C193.955 102.055 194.472 101.686 195.076 101.43C195.691 101.164 196.377 101.031 197.135 101.031C198.159 101.031 199.04 101.256 199.777 101.707C200.525 102.157 201.098 102.797 201.498 103.627C201.907 104.446 202.112 105.424 202.112 106.561C202.112 107.421 201.994 108.195 201.759 108.881C201.523 109.567 201.191 110.151 200.76 110.632C200.33 111.113 199.808 111.487 199.193 111.753C198.589 112.01 197.903 112.138 197.135 112.138ZM197.135 111.016C197.913 111.016 198.569 110.842 199.101 110.494C199.644 110.146 200.059 109.639 200.346 108.973C200.632 108.307 200.776 107.508 200.776 106.576C200.776 105.173 200.458 104.088 199.823 103.32C199.199 102.541 198.302 102.152 197.135 102.152C196.377 102.152 195.727 102.326 195.184 102.674C194.651 103.023 194.242 103.53 193.955 104.195C193.668 104.851 193.525 105.644 193.525 106.576C193.525 107.969 193.842 109.06 194.477 109.849C195.112 110.627 195.998 111.016 197.135 111.016ZM205.01 111.999C204.805 111.999 204.646 111.943 204.533 111.83C204.421 111.707 204.364 111.544 204.364 111.339V101.753C204.364 101.538 204.416 101.374 204.518 101.261C204.631 101.148 204.789 101.092 204.994 101.092C205.199 101.092 205.353 101.148 205.455 101.261C205.568 101.374 205.624 101.538 205.624 101.753V110.893H210.663C210.847 110.893 210.991 110.944 211.093 111.047C211.195 111.139 211.247 111.272 211.247 111.446C211.247 111.62 211.195 111.759 211.093 111.861C210.991 111.953 210.847 111.999 210.663 111.999H205.01Z" fill="white"/>
</svg>
