<svg width="132" height="36" viewBox="0 0 132 36" fill="none" xmlns="http://www.w3.org/2000/svg">
<rect x="96.8884" y="4.71094" width="5.34729" height="25.8453" fill="white"/>
<path fill-rule="evenodd" clip-rule="evenodd" d="M0.127314 4.71094H0.001055V25.2089H0V30.5562H20.116V25.2089H5.34835V20.2429H20.116V14.8956L5.34835 14.8956V10.0582L20.116 10.0582V4.71094H5.34835H0.127314Z" fill="white"/>
<path fill-rule="evenodd" clip-rule="evenodd" d="M131.001 25.1977C128.597 28.7385 124.537 31.0646 119.934 31.0646C112.551 31.0646 106.566 25.0794 106.566 17.6964C106.566 10.3133 112.551 4.32812 119.934 4.32812C124.499 4.32812 128.53 6.61624 130.942 10.1081L126.133 13.4982C124.77 11.4982 122.473 10.1851 119.87 10.1851C115.686 10.1851 112.294 13.5767 112.294 17.7604C112.294 21.9442 115.686 25.3358 119.87 25.3358C122.499 25.3358 124.815 23.9967 126.173 21.9634L131.001 25.1977Z" fill="white"/>
<path fill-rule="evenodd" clip-rule="evenodd" d="M32.2065 17.7549L22.5381 4.71094H29.1941L35.5075 13.2284L41.7188 4.71094H48.3369L38.8435 17.7291L48.3506 30.5555H41.6946L35.5425 22.2556L29.4899 30.5555H22.8718L32.2065 17.7549Z" fill="white"/>
<path fill-rule="evenodd" clip-rule="evenodd" d="M76.147 3.15069L71.8265 0L67.8677 5.42862C66.1628 4.63989 64.2635 4.1998 62.2615 4.1998C54.8784 4.1998 48.8932 10.185 48.8932 17.568C48.8932 21.0568 50.2297 24.2334 52.4185 26.6139L48.3818 32.1494L52.7023 35.3L56.7493 29.7505C58.4299 30.5122 60.2962 30.9363 62.2615 30.9363C69.6445 30.9363 75.6297 24.9511 75.6297 17.568C75.6297 14.1165 74.3216 10.9704 72.1742 8.5986L76.147 3.15069ZM64.281 10.3471C63.6189 10.158 62.9197 10.0568 62.1969 10.0568C58.0132 10.0568 54.6216 13.4484 54.6216 17.6321C54.6216 19.1901 55.0919 20.6382 55.8983 21.8422L64.281 10.3471ZM60.247 24.9541L68.5719 13.5383C69.3315 14.7188 69.7722 16.124 69.7722 17.6321C69.7722 21.8159 66.3806 25.2075 62.1969 25.2075C61.5227 25.2075 60.8692 25.1194 60.247 24.9541Z" fill="white"/>
<path fill-rule="evenodd" clip-rule="evenodd" d="M91.2859 6.499L91.2864 4.71094L85.9402 4.71168L76.2642 13.1123L79.7717 17.1485L85.9387 11.7845V30.5587H91.2859V6.499Z" fill="white"/>
</svg>
