<svg width="21" height="21" viewBox="0 0 21 21" fill="none" xmlns="http://www.w3.org/2000/svg">
<circle cx="10.5" cy="10.5" r="10.5" fill="#D14253"/>
<path d="M5.98235 14.3518C5.23981 14.3518 4.59285 14.2158 4.04146 13.9437C3.49007 13.6644 3.05999 13.2674 2.75122 12.7527C2.44979 12.2308 2.29908 11.6022 2.29908 10.867C2.29908 10.198 2.39833 9.58778 2.59683 9.0364C2.80268 8.47766 3.0894 7.99611 3.45699 7.59176C3.83193 7.18741 4.27672 6.87863 4.79135 6.66543C5.31333 6.44487 5.89045 6.3346 6.52271 6.3346C7.27259 6.3346 7.92323 6.47428 8.47462 6.75365C9.02601 7.02567 9.45241 7.42267 9.75384 7.94465C10.0553 8.45928 10.206 9.08051 10.206 9.80834C10.206 10.4847 10.1067 11.1023 9.90823 11.661C9.70973 12.2124 9.42301 12.6903 9.04806 13.0946C8.67312 13.499 8.22466 13.8114 7.70268 14.032C7.18805 14.2452 6.6146 14.3518 5.98235 14.3518ZM6.0044 12.6535C6.45286 12.6535 6.83148 12.5359 7.14026 12.3006C7.44904 12.0654 7.68797 11.7382 7.85707 11.3191C8.02616 10.8927 8.1107 10.4038 8.1107 9.85245C8.1107 9.2349 7.96367 8.77908 7.66959 8.48501C7.38287 8.18358 6.98955 8.03287 6.48962 8.03287C6.05587 8.03287 5.68092 8.1505 5.36479 8.38576C5.05602 8.62102 4.81708 8.94817 4.64799 9.36723C4.48625 9.78628 4.40538 10.2752 4.40538 10.8339C4.40538 11.4441 4.54874 11.8999 4.83546 12.2014C5.12218 12.5028 5.51183 12.6535 6.0044 12.6535ZM11.801 14.3297C11.4776 14.3297 11.2423 14.2268 11.0953 14.0209C10.9482 13.8151 10.9041 13.5247 10.9629 13.1497L11.8672 7.45943C11.9187 7.12124 12.0436 6.87128 12.2421 6.70954C12.4406 6.54045 12.7053 6.4559 13.0361 6.4559H15.3079C16.2489 6.4559 16.951 6.65808 17.4142 7.06243C17.8847 7.45943 18.1199 8.00714 18.1199 8.70556C18.1199 9.61719 17.8442 10.3193 17.2929 10.8119C16.7415 11.3044 15.9364 11.5507 14.8778 11.5507H13.2457L12.959 13.3262C12.9075 13.6644 12.7825 13.918 12.584 14.0871C12.3929 14.2488 12.1319 14.3297 11.801 14.3297ZM13.4883 9.99581H14.955C15.3593 9.99581 15.6644 9.90024 15.8703 9.70909C16.0835 9.51794 16.1901 9.24225 16.1901 8.88201C16.1901 8.58058 16.0945 8.36003 15.9034 8.22034C15.7196 8.08066 15.4292 8.01082 15.0322 8.01082H13.7971L13.4883 9.99581Z" fill="white"/>
</svg>
