<svg width="29" height="29" viewBox="0 0 29 29" fill="none" xmlns="http://www.w3.org/2000/svg">
<path fill-rule="evenodd" clip-rule="evenodd" d="M16.0403 1.75061C16.0403 2.67297 15.327 3.42873 14.4219 3.49631V3.5032C14.3569 3.50204 14.2917 3.50145 14.2264 3.50145C8.30453 3.50145 3.50391 8.30208 3.50391 14.2239C3.50391 20.1458 8.30453 24.9464 14.2264 24.9464C20.1074 24.9464 24.8826 20.2119 24.9482 14.3464C24.9411 14.2825 24.9375 14.2175 24.9375 14.1517C24.9375 13.1849 25.7213 12.4011 26.6881 12.4011C27.6549 12.4011 28.4387 13.1849 28.4387 14.1517C28.4387 14.177 28.4382 14.2021 28.4371 14.2272H28.4474C28.4462 22.0817 22.0785 28.4486 14.2237 28.4486C6.36817 28.4486 0 22.0805 0 14.2249C0 6.36938 6.36817 0.00120792 14.2237 0.00120792L14.224 0.00120792C14.2458 0.000404993 14.2677 0 14.2897 0C14.3179 0 14.3459 0.000665865 14.3737 0.00198272L14.4219 0.00256012V0.00491681C15.327 0.0724938 16.0403 0.828249 16.0403 1.75061ZM21.0051 1.89489C21.0051 2.86172 20.2214 3.6455 19.2545 3.6455C18.2877 3.6455 17.5039 2.86172 17.5039 1.89489C17.5039 0.92805 18.2877 0.144274 19.2545 0.144274C20.2214 0.144274 21.0051 0.92805 21.0051 1.89489ZM26.692 10.7937C27.6589 10.7937 28.4426 10.0099 28.4426 9.04308C28.4426 8.07624 27.6589 7.29247 26.692 7.29247C25.7252 7.29247 24.9414 8.07624 24.9414 9.04308C24.9414 10.0099 25.7252 10.7937 26.692 10.7937ZM25.9622 4.22936C25.9622 5.19619 25.1784 5.97997 24.2115 5.97997C23.2447 5.97997 22.4609 5.19619 22.4609 4.22936C22.4609 3.26252 23.2447 2.47875 24.2115 2.47875C25.1784 2.47875 25.9622 3.26252 25.9622 4.22936ZM14.1591 23.2082C14.3561 23.4033 14.6094 23.5009 14.9189 23.5009C15.2285 23.5009 15.4817 23.4033 15.6787 23.2082C15.8757 23.0262 15.9742 22.7985 15.9742 22.5254V21.1321C16.7512 21.0236 17.4407 20.8248 18.0426 20.5354C18.7602 20.1843 19.323 19.7225 19.731 19.1502C20.1391 18.565 20.3431 17.8951 20.3431 17.1408C20.3431 16.1783 20.0265 15.4044 19.3933 14.8191C18.7602 14.2208 17.7682 13.7851 16.4174 13.512L14.1169 13.0437C13.3711 12.8877 12.8435 12.6796 12.5339 12.4194C12.2244 12.1463 12.0696 11.7886 12.0696 11.3464C12.0696 10.7481 12.3229 10.2669 12.8294 9.9027C13.35 9.52552 14.0606 9.33692 14.9611 9.33692C15.6646 9.33692 16.2697 9.40846 16.7762 9.55153C17.2828 9.68159 17.7401 9.85718 18.1481 10.0783C18.4436 10.2344 18.7039 10.3059 18.929 10.2929C19.1682 10.2669 19.3652 10.1888 19.52 10.0588C19.6748 9.92871 19.7803 9.77264 19.8366 9.59055C19.8929 9.39545 19.8858 9.20036 19.8155 9.00526C19.7451 8.79716 19.6044 8.61507 19.3933 8.45899C18.8727 8.08181 18.2466 7.78916 17.5149 7.58106C16.9687 7.42267 16.4552 7.32079 15.9742 7.27542V5.92275C15.9742 5.64961 15.8687 5.422 15.6576 5.23991C15.4606 5.04481 15.2144 4.94727 14.9189 4.94727C14.6094 4.94727 14.3561 5.04481 14.1591 5.23991C13.9621 5.422 13.8636 5.64961 13.8636 5.92275V7.30682C13.0536 7.39959 12.336 7.60156 11.7108 7.91272C10.9791 8.2769 10.4093 8.76464 10.0012 9.37594C9.59319 9.97424 9.38916 10.6571 9.38916 11.4245C9.38916 12.4129 9.70575 13.2128 10.3389 13.8241C10.9721 14.4354 11.9289 14.8711 13.2093 15.1313L15.4465 15.58C15.9953 15.684 16.4315 15.8206 16.7551 15.9897C17.0787 16.1458 17.3109 16.3344 17.4516 16.5555C17.5923 16.7636 17.6627 17.0107 17.6627 17.2968C17.6627 17.648 17.5571 17.9602 17.3461 18.2333C17.1491 18.5064 16.8325 18.721 16.3963 18.8771C15.9601 19.0332 15.3903 19.1112 14.6867 19.1112C13.7862 19.1112 13.0123 19.0202 12.3651 18.8381C11.7319 18.643 11.2183 18.4414 10.8244 18.2333C10.5289 18.0772 10.2686 18.0252 10.0434 18.0772C9.81832 18.1162 9.62836 18.2203 9.47359 18.3894C9.33288 18.5455 9.24846 18.734 9.22032 18.9552C9.19218 19.1763 9.22735 19.3974 9.32585 19.6185C9.42434 19.8266 9.60022 20.0022 9.85349 20.1452C10.3741 20.4184 11.0073 20.659 11.753 20.8671C12.3838 21.0399 13.0873 21.1499 13.8636 21.1971V22.5254C13.8636 22.7985 13.9621 23.0262 14.1591 23.2082Z" fill="#64D9FE"/>
</svg>
