<svg width="180" height="27" viewBox="0 0 180 27" fill="none" xmlns="http://www.w3.org/2000/svg">
<path fill-rule="evenodd" clip-rule="evenodd" d="M15.072 26.2499C13.2558 26.2499 11.5624 25.919 9.99161 25.2572C8.9034 24.7818 7.90942 24.1828 7.00968 23.4603L4.50939 25.9453H0L4.83375 21.2161C4.13712 20.2966 3.56164 19.2907 3.1073 18.1984C2.46919 16.6053 2.15013 14.9019 2.15013 13.0882C2.15013 11.2499 2.46919 9.54652 3.1073 7.9779C3.76996 6.38477 4.67805 4.98772 5.83158 3.78675C7.00964 2.58577 8.37178 1.6544 9.91798 0.992642C11.4887 0.330881 13.1822 0 14.9984 0C16.8146 0 18.4958 0.330881 20.042 0.992642C21.2802 1.51432 22.3965 2.20355 23.3907 3.06033L26.0402 0.468112L29.3836 0.447002L29.3517 0.367647H33.1068L40.8592 20.2126L48.6793 0.367647H52.3976L42.0895 25.8822H39.5861L29.6061 1.00186L25.3733 5.20888C25.9925 6.05458 26.5102 6.97759 26.9263 7.9779C27.5889 9.57103 27.9203 11.2867 27.9203 13.1249C27.9203 14.9387 27.5889 16.6421 26.9263 18.2352C26.2636 19.8283 25.3433 21.2254 24.1652 22.4264C23.0117 23.6273 21.6495 24.571 20.0788 25.2572C18.5326 25.919 16.8637 26.2499 15.072 26.2499ZM11.2433 22.2058C10.5635 21.9106 9.93708 21.5488 9.36406 21.1203L22.9055 7.66161C23.1911 8.13896 23.4392 8.6488 23.6498 9.19113C24.1161 10.3676 24.3493 11.6666 24.3493 13.0882C24.3493 14.9999 23.9443 16.7033 23.1344 18.1984C22.3245 19.669 21.22 20.8332 19.8211 21.6911C18.4467 22.5244 16.8391 22.9411 14.9984 22.9411C13.6485 22.9411 12.3968 22.696 11.2433 22.2058ZM20.9969 5.40238L7.26941 18.8331C6.926 18.2863 6.6308 17.6949 6.38379 17.0587C5.94202 15.8333 5.72113 14.5097 5.72113 13.0882C5.72113 11.1764 6.11382 9.48524 6.8992 8.01466C7.70911 6.54408 8.80128 5.39213 10.1757 4.5588C11.5746 3.72547 13.1822 3.30881 14.9984 3.30881C16.3728 3.30881 17.6245 3.5539 18.7535 4.0441C19.5802 4.38513 20.328 4.83789 20.9969 5.40238ZM58.9313 0.367647H56.5752V25.8822H58.9313H60.0357H73.5835V22.7205H60.0357V3.52939H73.3994V0.367647H60.0357H58.9313ZM62.9163 11.3602V14.3382H72.3686V11.3235L62.9163 11.3602ZM83.7385 14.7793V11.8749H87.5304C89.0275 11.8749 90.1811 11.495 90.991 10.7352C91.8009 9.97544 92.2059 8.94603 92.2059 7.64702C92.2059 6.42154 91.8009 5.40438 90.991 4.59556C90.2056 3.78674 89.0643 3.38234 87.5672 3.38234H81.7505V25.8822H78.29V0.367647H80.6093H81.7505H87.6777C89.2975 0.367647 90.7087 0.686272 91.9113 1.32352C93.1139 1.93627 94.0343 2.78185 94.6724 3.86027C95.3351 4.9387 95.6664 6.17644 95.6664 7.57349C95.6664 9.01956 95.3351 10.2818 94.6724 11.3602C94.0343 12.4387 93.1139 13.2842 91.9113 13.897C90.8449 14.4186 89.6144 14.709 88.2199 14.768L97.3967 25.8822H93.0158L83.7385 14.7793ZM107.091 3.52939V25.8822H110.551V3.52939V1.10294V0.367647H98.4027V3.52939H107.091ZM122.619 0.367647H126.079V25.8822H122.618V4.69241L117.205 8.78925L115.069 5.96698L122.564 0.29496L122.619 0.367647ZM134.539 0.367647H132.11V25.8822H135.57V7.9223L143.338 20.6617H145.768L153.499 7.98266V25.8822H156.959V0.367647H154.53L144.534 16.7659L134.539 0.367647ZM162.992 0.367647H165.348H166.453H179.816V3.52939H166.453V22.7205H180V25.8822H166.453H165.348H162.992V0.367647ZM169.928 14.3382V11.3235H178.785V14.3382H169.928Z" fill="white"/>
</svg>
