<svg width="180" height="27" viewBox="0 0 154 26" fill="none" xmlns="http://www.w3.org/2000/svg">
<path fill-rule="evenodd" clip-rule="evenodd" d="M70.1145 14.5309V14.2589C70.1145 12.8918 71.2227 11.7835 72.5898 11.7835H73.6024C74.9795 11.7835 76.0406 11.4242 76.7856 10.7054C77.5306 9.98673 77.9031 9.01298 77.9031 7.78421C77.9031 6.62499 77.5306 5.66283 76.7856 4.89775C76.0632 4.13266 75.0237 3.83189 73.6466 3.83189H68.7513C68.6014 3.83189 68.4567 3.80938 68.3204 3.76753V23.797C68.3204 24.4805 67.7662 25.0347 67.0827 25.0347H66.3401C65.6565 25.0347 65.1024 24.4805 65.1024 23.797V2.1374C65.1024 1.45384 65.6565 0.899703 66.3401 0.899703H67.0827C67.1136 0.899703 67.1443 0.900838 67.1746 0.903067H68.6338C68.6725 0.9 68.7117 0.898438 68.7513 0.898438H73.7379C75.2279 0.898438 76.526 1.19983 77.6322 1.80263C78.7384 2.38224 79.585 3.1821 80.172 4.20221C80.7815 5.22233 81.0863 6.39314 81.0863 7.71465C81.0863 9.08254 80.7815 10.2765 80.172 11.2966C79.585 12.3168 78.7384 13.1166 77.6322 13.6962C76.6494 14.1906 75.5152 14.4653 74.2296 14.5205C74.2674 14.5616 74.3041 14.6042 74.3395 14.6482L80.6237 22.4751C81.4505 23.5048 80.7175 25.0334 79.3969 25.0334C78.9232 25.0334 78.4746 24.8199 78.1759 24.4522L70.1145 14.5309ZM25.5608 0.900008C26.2713 0.899853 26.9131 1.33299 27.1751 1.98938L34.3251 19.9011L41.6072 1.96249C41.8669 1.32273 42.494 0.901782 43.1874 0.901782C44.378 0.901782 45.18 2.09226 44.7278 3.18834L36.1885 23.8867C36.0213 24.2919 35.7077 24.5947 35.3339 24.7593C35.0462 24.9189 34.7152 25.0098 34.3629 25.0098H34.2749C34.0147 25.0098 33.7662 24.9602 33.5381 24.87C33.0598 24.7407 32.6446 24.3982 32.4443 23.9079L23.9897 3.22079C23.5343 2.10646 24.3508 0.900271 25.5608 0.900008ZM12.2381 3.86832C13.0074 3.81248 13.6142 3.17062 13.6142 2.38703C13.6142 1.60344 13.0074 0.961583 12.2381 0.905745V0.903416L12.1835 0.902781C12.1654 0.902129 12.1472 0.901801 12.129 0.901801C12.1166 0.901801 12.1041 0.901954 12.0918 0.902259L12.0675 0.902235C5.4028 0.902235 0 6.30503 0 12.9697C0 19.6344 5.4028 25.0372 12.0675 25.0372C18.7316 25.0372 24.134 19.6354 24.135 12.9715H24.1339C24.1348 12.9504 24.1352 12.9293 24.1352 12.908C24.1352 12.0878 23.4703 11.4228 22.65 11.4228C21.8297 11.4228 21.1648 12.0878 21.1648 12.908C21.1648 12.9293 21.1652 12.9504 21.1661 12.9715H21.164C21.1628 17.9946 17.0904 22.0663 12.067 22.0663C7.04284 22.0663 2.96997 17.9934 2.96997 12.9692C2.96997 7.94508 7.04284 3.8722 12.067 3.8722C12.1241 3.8722 12.1812 3.87273 12.2381 3.87378V3.86832ZM16.3367 3.99461C17.157 3.99461 17.822 3.32965 17.822 2.50938C17.822 1.68911 17.157 1.02415 16.3367 1.02415C15.5165 1.02415 14.8515 1.68911 14.8515 2.50938C14.8515 3.32965 15.5165 3.99461 16.3367 3.99461ZM24.1352 8.57376C24.1352 9.39403 23.4703 10.059 22.65 10.059C21.8297 10.059 21.1648 9.39403 21.1648 8.57376C21.1648 7.75349 21.8297 7.08853 22.65 7.08853C23.4703 7.08853 24.1352 7.75349 24.1352 8.57376ZM20.5445 5.97571C21.3647 5.97571 22.0297 5.31075 22.0297 4.49048C22.0297 3.67021 21.3647 3.00525 20.5445 3.00525C19.7242 3.00525 19.0592 3.67021 19.0592 4.49048C19.0592 5.31075 19.7242 5.97571 20.5445 5.97571ZM51.8583 12.5381C51.8583 11.8546 52.4125 11.3005 53.096 11.3005H60.6773C61.3609 11.3005 61.915 11.8546 61.915 12.5381V13.0062C61.915 13.6897 61.3609 14.2439 60.6773 14.2439H53.096C52.4125 14.2439 51.8583 13.6897 51.8583 13.0062V12.5381ZM46.4129 23.1802L46.413 23.1585V2.7788L46.4129 2.75707V2.13823C46.4129 1.45467 46.967 0.900535 47.6505 0.900535H60.6463C61.3299 0.900535 61.884 1.45467 61.884 2.13823V2.75707C61.884 3.44063 61.3299 3.99476 60.6463 3.99476H49.5073V21.9426H60.6463C61.3299 21.9426 61.884 22.4967 61.884 23.1802V23.7991C61.884 24.4826 61.3299 25.0368 60.6463 25.0368H47.6505C46.967 25.0368 46.4129 24.4826 46.4129 23.7991V23.1802ZM145.182 11.3005C144.498 11.3005 143.944 11.8546 143.944 12.5381V13.0062C143.944 13.6897 144.498 14.2439 145.182 14.2439H152.763C153.447 14.2439 154.001 13.6897 154.001 13.0062V12.5381C154.001 11.8546 153.447 11.3005 152.763 11.3005H145.182ZM138.497 23.1802C138.497 23.1572 138.498 23.1343 138.499 23.1115V2.82582C138.498 2.80306 138.497 2.78014 138.497 2.75707V2.13823C138.497 1.45467 139.051 0.900535 139.735 0.900535H152.73C153.414 0.900535 153.968 1.45467 153.968 2.13823V2.75707C153.968 3.44063 153.414 3.99476 152.73 3.99476H141.593V21.9426H152.73C153.414 21.9426 153.968 22.4967 153.968 23.1802V23.7991C153.968 24.4826 153.414 25.0368 152.73 25.0368H139.735C139.051 25.0368 138.497 24.4826 138.497 23.7991V23.1802ZM105.803 1.15579C106.067 0.954284 106.382 0.87661 106.683 0.913059C106.726 0.908578 106.77 0.906282 106.814 0.906282L107.556 0.906282C108.24 0.906282 108.794 1.46042 108.794 2.14397V23.7972C108.794 24.4807 108.24 25.0349 107.556 25.0349H106.814C106.13 25.0349 105.576 24.4807 105.576 23.7972V5.09865L101.141 8.49544C100.598 8.91106 99.832 8.79988 99.4299 8.24711L99.1254 7.82863C98.7233 7.27586 98.8373 6.49083 99.38 6.07521L105.803 1.15579ZM82.9252 0.905919C82.2416 0.905919 81.6875 1.46005 81.6875 2.14361V2.71605C81.6875 3.39961 82.2416 3.95374 82.9252 3.95374H84.4099H89.8566V23.7959C89.8566 24.4795 90.4107 25.0336 91.0943 25.0336H91.8369C92.5205 25.0336 93.0746 24.4795 93.0746 23.7959V3.95374H97.3132C97.3883 3.95374 97.4617 3.93096 97.5236 3.8884L100.876 1.58319C101.177 1.3766 101.031 0.905919 100.666 0.905919H90.4751H84.4099H82.9252ZM125.034 19.7025C124.691 20.0222 124.25 20.2145 123.77 20.2145C123.27 20.2145 122.814 20.007 122.465 19.6646C122.426 19.6281 122.389 19.5887 122.354 19.5464C122.2 19.3702 122.073 19.1655 121.978 18.94L115.476 7.96712V23.8007C115.476 24.4843 114.922 25.0384 114.238 25.0384H113.496C112.812 25.0384 112.258 24.4843 112.258 23.8007V2.14752C112.258 1.46396 112.812 0.909826 113.496 0.909826L114.238 0.909826C114.26 0.909826 114.281 0.910379 114.303 0.911471C114.739 0.885392 115.172 1.09853 115.413 1.5046L123.77 15.6088L132.056 1.61877C132.111 1.50235 132.184 1.3959 132.271 1.30287C132.532 1.01195 132.912 0.870988 133.289 0.909826L133.918 0.909826C134.602 0.909826 135.156 1.46396 135.156 2.14752V23.8007C135.156 24.4843 134.602 25.0384 133.918 25.0384H133.175C132.492 25.0384 131.938 24.4843 131.938 23.8007V8.17634L125.558 18.9486C125.469 19.1563 125.353 19.3462 125.214 19.5122C125.16 19.5832 125.1 19.6467 125.034 19.7025Z" fill="white"/>
</svg>
