<svg width="624" height="87" viewBox="0 0 624 87" fill="none" xmlns="http://www.w3.org/2000/svg">
<path fill-rule="evenodd" clip-rule="evenodd" d="M377.156 0H403.76V15.177H377.156V86.3517H359.101V15.177H332.41V0H359.101H377.156ZM69.7791 51.9859C66.2902 63.325 55.7361 71.524 43.2631 71.524C30.79 71.524 15.4386 59.051 15.4386 43.6996C15.4386 28.3482 27.9117 15.8752 43.2631 15.8752L68.0347 8.19948L92.719 0.523768L43.2631 0.349323C19.3637 0.349323 0 19.713 0 43.6124C0 67.5117 19.3637 86.8754 43.2631 86.8754C67.1624 86.8754 86.5261 67.5117 86.5261 43.6124C86.5261 40.8187 86.5238 38.6197 86.5191 36.9113L123.422 0.696706L68.4154 31.9919L68.3835 31.9229V32.0101L68.4154 31.9919C70.0531 35.5507 71.0003 39.5383 71.0003 43.6981C71.0003 47.8848 70.5641 49.3676 69.7791 51.9844L69.7805 51.9831L69.7791 51.9859ZM86.1011 37.3214C86.1251 37.4588 86.1482 37.419 86.1706 37.2533L86.1011 37.3214ZM156.916 0.611316L139.122 61.5808L139.384 76.1472L120.544 13.346L106.152 28.9591L125.777 86.963H147.583L176.367 0.611316H156.916ZM415.273 0.611316V86.963H433.328V0.611316H415.273ZM624 15.9627H571.142L584.836 21.4578V36.1987H621.732V50.5034H584.836V71.5244H624V86.963H566.781V0.611316H624V15.9627ZM316.012 48.9334C314.093 50.5034 311.826 51.899 309.383 52.8584H309.471L327.7 86.963H307.203L284.088 41.781H292.2C296.736 41.781 300.312 40.6471 302.842 38.2921C305.371 35.937 306.592 32.7097 306.592 28.523C306.592 26.5168 306.243 24.6851 305.545 23.0279C304.935 21.3706 303.888 19.975 302.667 18.8411C301.359 17.62 299.876 16.7477 298.044 16.1372C296.212 15.5266 294.206 15.1777 291.939 15.1777H276.238V86.963H258.183V0.611316H294.468C299.265 0.611316 303.539 1.22189 307.29 2.53025C311.041 3.83861 314.268 5.6703 316.885 8.02535C319.589 10.4676 321.595 13.346 322.99 16.7477C324.386 20.1495 325.084 24.0746 325.084 28.3485C325.084 31.1397 324.735 33.7564 324.037 36.2859C323.339 38.8154 322.292 41.1704 320.984 43.2638C319.589 45.4444 317.931 47.2761 316.012 48.9334ZM524.565 0.611316L502.41 54.254L505.724 73.705L499.531 58.7025L475.632 0.611316H454.349V86.963H471.096V29.2208H472.056L494.036 81.9913H506.073L528.054 29.2208H529.013V86.963H545.76V0.611316H524.565ZM244.489 15.9627H191.631L205.325 21.4578V36.1987H242.221V50.5034H205.325V71.5244H244.489V86.963H187.27V0.611316H244.489V15.9627ZM65.418 27.2128L111.996 0.696706L54.0789 18.2287C58.6145 20.1476 62.5396 23.2877 65.418 27.2128Z" fill="white"/>
</svg>
