<svg width="232" height="55" viewBox="0 0 232 55" fill="none" xmlns="http://www.w3.org/2000/svg">
<g id="overtime_zebra_redesigned 1" clip-path="url(#clip0_12330_6606)">
<path id="Vector" d="M33.531 13.8878C34.331 13.8878 35.0396 14.3699 35.3367 15.1044L43.3596 35.2818L51.5196 15.0815C51.8167 14.3699 52.5253 13.8878 53.3024 13.8878C54.6282 13.8878 55.5424 15.2192 55.0396 16.4588L45.4624 39.781C45.2796 40.2401 44.9367 40.5614 44.5253 40.7451C44.2053 40.9287 43.8167 41.0435 43.4053 41.0435H43.3139C43.0167 41.0435 42.7425 40.9746 42.4682 40.8828C41.9425 40.7451 41.4853 40.3548 41.2567 39.8039L31.771 16.5047C31.2453 15.2421 32.1596 13.8878 33.531 13.8878ZM18.491 13.8878C18.5139 13.8878 18.5139 13.8878 18.5367 13.8878C18.5596 13.8878 18.5596 13.8878 18.5825 13.8878C19.451 13.9567 20.1367 14.6683 20.1367 15.5635C20.1367 16.4358 19.451 17.1704 18.5825 17.2392C18.5139 17.2392 18.4453 17.2392 18.3996 17.2392C12.7539 17.2392 8.20531 21.8302 8.20531 27.4771C8.20531 33.147 12.7767 37.715 18.3996 37.715C24.0453 37.715 28.5939 33.124 28.5939 27.4771C28.5939 27.4542 28.5939 27.4312 28.5939 27.4083C28.5939 26.4901 29.3482 25.7325 30.2624 25.7325C31.1767 25.7325 31.931 26.4901 31.931 27.4083C31.931 27.4312 31.931 27.4542 31.931 27.4771C31.931 34.9834 25.8739 41.0664 18.3996 41.0664C10.9253 41.0664 4.86816 34.9834 4.86816 27.4771C4.86816 19.9709 10.9253 13.8878 18.3996 13.8878C18.4225 13.8878 18.4224 13.8878 18.4453 13.8878C18.4682 13.8878 18.491 13.8878 18.491 13.8878ZM23.1767 17.377C24.091 17.377 24.8453 16.6194 24.8453 15.7012C24.8453 14.783 24.091 14.0255 23.1767 14.0255C22.2625 14.0255 21.5082 14.783 21.5082 15.7012C21.5082 16.6194 22.2625 17.377 23.1767 17.377ZM31.931 22.5189C31.931 23.4371 31.1767 24.1946 30.2624 24.1946C29.3482 24.1946 28.5939 23.4371 28.5939 22.5189C28.5939 21.6007 29.3482 20.8431 30.2624 20.8431C31.1767 20.8661 31.931 21.6007 31.931 22.5189ZM27.9082 19.6036C28.8225 19.6036 29.5767 18.8461 29.5767 17.9279C29.5767 17.0097 28.8225 16.2522 27.9082 16.2522C26.9939 16.2522 26.2396 17.0097 26.2396 17.9279C26.2396 18.8461 26.971 19.6036 27.9082 19.6036ZM63.0167 26.9951C63.0167 26.2146 63.6339 25.5948 64.411 25.5948H72.9139C73.691 25.5948 74.3082 26.2146 74.3082 26.9951V27.523C74.3082 28.3035 73.691 28.9233 72.9139 28.9233H64.411C63.6339 28.9233 63.0167 28.3035 63.0167 27.523V26.9951ZM60.3882 37.5773H72.891C73.6682 37.5773 74.2853 38.1971 74.2853 38.9775V39.6662C74.2853 40.4467 73.6682 41.0664 72.891 41.0664H58.3082C57.531 41.0664 56.9139 40.4467 56.9139 39.6662V39.1153V38.9775V15.9767V15.5635V15.2881C56.9139 14.5076 57.531 13.8878 58.3082 13.8878H72.891C73.6682 13.8878 74.2853 14.5076 74.2853 15.2881V15.9767C74.2853 16.7572 73.6682 17.377 72.891 17.377H60.3882V37.5773ZM167.702 25.5948C166.925 25.5948 166.308 26.2146 166.308 26.9951V27.523C166.308 28.3035 166.925 28.9233 167.702 28.9233H176.205C176.982 28.9233 177.6 28.3035 177.6 27.523V26.9951C177.6 26.2146 176.982 25.5948 176.205 25.5948H167.702ZM163.68 37.5773H176.182C176.96 37.5773 177.577 38.1971 177.577 38.9775V39.6662C177.577 40.4467 176.96 41.0664 176.182 41.0664H161.6C160.822 41.0664 160.205 40.4467 160.205 39.6662V39.1153V38.9775V15.9767V15.5635V15.2881C160.205 14.5076 160.822 13.8878 161.6 13.8878H176.182C176.96 13.8878 177.577 14.5076 177.577 15.2881V15.9767C177.577 16.7572 176.96 17.377 176.182 17.377H163.68V37.5773ZM123.542 14.1633C123.84 13.9337 124.205 13.8419 124.548 13.8878C124.594 13.8878 124.64 13.8878 124.685 13.8878H125.508C126.285 13.8878 126.902 14.5076 126.902 15.2881V39.6891C126.902 40.4696 126.285 41.0894 125.508 41.0894H124.685C123.908 41.0894 123.291 40.4696 123.291 39.6891V18.6165L118.308 22.45C117.691 22.9091 116.845 22.7943 116.388 22.1745L116.045 21.6925C115.588 21.0727 115.725 20.1775 116.32 19.7184L123.542 14.1633ZM97.8739 13.8878C97.0967 13.8878 96.4796 14.5076 96.4796 15.2881V15.9308C96.4796 16.7113 97.0967 17.331 97.8739 17.331H99.5424H105.645V39.6891C105.645 40.4696 106.262 41.0894 107.04 41.0894H107.862C108.64 41.0894 109.257 40.4696 109.257 39.6891V17.331H114.011C114.102 17.331 114.171 17.3081 114.24 17.2622L118.011 14.6683C118.354 14.4387 118.194 13.9108 117.782 13.9108H106.354H99.5424L97.8739 13.8878ZM145.142 35.0293C144.754 35.3966 144.251 35.6261 143.702 35.6261C143.131 35.6261 142.605 35.3736 142.217 34.9834C142.194 34.9604 142.171 34.9375 142.171 34.9375C142.148 34.9145 142.148 34.9145 142.125 34.8916C141.942 34.685 141.782 34.4554 141.691 34.18L134.4 21.8302V39.6662C134.4 40.4467 133.782 41.0664 133.005 41.0664H132.182C131.405 41.0664 130.788 40.4467 130.788 39.6662V15.2881C130.788 14.5076 131.405 13.8878 132.182 13.8878H133.005H133.028H133.051C133.554 13.8419 134.034 14.0944 134.308 14.5535L143.68 30.4383L152.982 14.6453C153.028 14.5765 153.074 14.5076 153.12 14.4387C153.417 14.0255 153.897 13.8189 154.377 13.8878H155.062C155.84 13.8878 156.457 14.5076 156.457 15.2881V39.6891C156.457 40.4696 155.84 41.0894 155.062 41.0894H154.24C153.462 41.0894 152.845 40.4696 152.845 39.6891V22.0827L145.691 34.2029C145.577 34.4554 145.44 34.685 145.28 34.8686C145.234 34.9375 145.188 34.9834 145.142 35.0293ZM83.4967 29.2446V28.9462C83.4967 27.4083 84.731 26.1687 86.2625 26.1687H87.4053C88.9596 26.1687 90.1482 25.7555 90.971 24.9521C91.8167 24.1487 92.2282 23.0468 92.2282 21.6695C92.2282 20.3611 91.8167 19.2822 90.971 18.4099C90.171 17.5376 89.0053 17.2163 87.451 17.2163H81.9653C81.8053 17.2163 81.6453 17.1933 81.4853 17.1474V39.7121C81.4853 40.4926 80.8682 41.1123 80.091 41.1123H79.2682C78.491 41.1123 77.8739 40.4926 77.8739 39.7121V35.5113V18.9379V15.2881C77.8739 14.5076 78.491 13.8878 79.2682 13.8878H80.091C80.1367 13.8878 80.1824 13.8878 80.2053 13.8878H81.8282C81.8739 13.8878 81.9196 13.8878 81.9653 13.8878H87.5653C89.2339 13.8878 90.6967 14.2321 91.931 14.8978C93.1653 15.5406 94.1253 16.4588 94.7882 17.6065C95.4739 18.7542 95.8167 20.0856 95.8167 21.5548C95.8167 23.0927 95.4739 24.4471 94.7882 25.5948C94.1253 26.7426 93.1882 27.6378 91.931 28.3035C90.8339 28.8544 89.5539 29.1758 88.1139 29.2217C88.1596 29.2676 88.2053 29.3135 88.2282 29.3594L95.2682 38.1741C96.2053 39.3448 95.3825 41.0664 93.8967 41.0664C93.371 41.0664 92.8682 40.8369 92.5253 40.4007L83.4967 29.2446Z" fill="#111325"/>
<path id="Vector_2" d="M226.286 32.1829C226.286 32.5043 224.983 36.9116 221.646 40.9287C218.812 44.349 212.229 45.2442 212.229 45.2442L216.275 37.4166C222.515 34.9375 222.012 27.7985 222.012 27.7985L227.086 25.2046C227.063 25.021 227.04 24.8373 227.018 24.6537C226.858 23.2764 226.606 22.0827 226.378 21.0727C226.035 19.6725 225.669 18.6624 225.486 18.2033C225.418 18.0427 225.349 17.859 225.258 17.6754C224.938 16.9179 224.435 15.839 223.726 14.6224C223.703 14.5765 223.658 14.5076 223.635 14.4617L216.275 22.6566C217.92 30.3006 210.903 33.1929 210.903 33.1929L205.44 44.6015C203.932 44.4638 201.303 43.9817 199.635 42.1683L205.44 31.0351C214.469 27.546 212.183 20.407 212.183 20.407L220.938 10.5823C220.526 10.1003 220.092 9.59525 219.635 9.11319C218.789 8.24091 217.829 7.41453 216.8 6.65702C216.412 6.38156 216 6.1061 215.566 5.85359L213.372 11.3857L206.492 15.2651L203.909 19.5806L198.995 20.8432L196.503 24.3782L194.629 23.1846L195.955 17.377L198.995 16.826L200.32 13.0614L206.652 10.9496L210.126 3.78765C210.08 3.78765 210.058 3.76469 210.012 3.76469C208.96 3.58106 200.892 2.52513 193.098 5.55518L197.212 9.75593L193.143 13.268L190.355 19.8791L187.955 25.5948L189.509 29.2447L194.652 29.1987L196.663 26.8114L197.875 25.3882L198.652 24.47L201.166 23.7125L202.263 23.3682L204.595 22.6796L205.143 21.4629L205.738 20.1316L206.035 19.4888L206.126 19.2822C206.218 19.5577 206.309 19.8561 206.378 20.1775C206.4 20.2463 206.4 20.2922 206.423 20.3611C206.446 20.4759 206.469 20.5907 206.492 20.7054C206.606 21.2563 206.652 21.8761 206.583 22.5418C206.583 22.5877 206.583 22.6107 206.56 22.6566C206.56 22.7025 206.56 22.7255 206.538 22.7714C206.515 22.8402 206.515 22.9321 206.492 23.0239C206.469 23.0927 206.469 23.1386 206.446 23.2075C206.309 23.6896 206.035 24.1716 205.623 24.6078C205.509 24.7225 205.395 24.8373 205.258 24.9521C204.389 25.6407 203.063 26.1457 201.098 26.1687L199.269 28.2576L199.2 28.3494L198.698 28.9233L198.675 28.9692L198.172 29.5431L198.058 29.6578L197.349 30.4613L197.28 30.5301L196.618 31.2876L196.572 31.3336L195.498 32.5731L195.429 32.642L194.218 34.0193L194.035 34.2259L192.64 35.8327L192.343 36.177L187.863 41.319C188.092 41.6174 188.298 41.9158 188.526 42.1912C188.96 42.7422 189.395 43.2472 189.852 43.7522C190.56 44.5097 191.269 45.1983 192 45.8181C192.618 46.3461 193.235 46.8052 193.852 47.2413C195.452 48.3432 197.075 49.1925 198.698 49.8352C199.795 50.2714 200.846 50.5927 201.898 50.8682C205.098 51.6487 207.955 51.6716 209.875 51.4421C209.989 51.4191 210.08 51.4191 210.172 51.3962C212.16 51.0977 213.852 50.5927 215.292 49.9959C216.298 49.5598 217.189 49.0777 217.966 48.5957C218.035 48.5497 218.126 48.5038 218.195 48.435C218.743 48.0677 219.223 47.7004 219.658 47.3331C220.64 46.5068 221.349 45.7033 221.852 45.0606C221.943 44.9458 222.012 44.854 222.103 44.7392C222.72 43.9129 223.269 43.0635 223.772 42.2142C224.458 41.0205 225.006 39.8039 225.44 38.6103C225.806 37.6462 226.08 36.705 226.309 35.8098C226.309 35.7868 226.309 35.7639 226.332 35.7639C226.675 34.4325 226.88 33.2159 227.018 32.137C227.063 31.8156 227.086 31.4942 227.132 31.2188L226.286 32.1829Z" fill="#111325"/>
</g>
<defs>
<clipPath id="clip0_12330_6606">
<rect width="232" height="55" fill="white"/>
</clipPath>
</defs>
</svg>
