<?xml version="1.0" encoding="UTF-8"?>
<svg id="Layer_1" data-name="Layer 1" xmlns="http://www.w3.org/2000/svg" viewBox="0 0 500 500">
  <defs>
    <style>
      .cls-1 {
        fill: #3fffff;
        fill-rule: evenodd;
        isolation: isolate;
        opacity: .8;
      }
    </style>
  </defs>
  <path class="cls-1" d="M35.28,216.91c19.65-8.95,188.4-91.25,320.37-156.24,40.06-19.73,50.55-22.87,58.84-17.6,2.35,1.49,11.53,19.09,20.41,39.11,15.96,36.01,16.06,36.45,8.94,41.44-8.27,5.79-9.36,17.96-2.45,27.4,3.52,4.82,7.45,5.96,15.19,4.41,10.17-2.04,10.76-1.37,22.14,24.98,16.36,37.85,20.87,47.7,19.39,48.71-.68.46-2.62-.93-5.25-2.34-4.07-2.18-13.24-16.13-20.37-31-7.13-14.87-15.35-27.25-18.25-27.51-2.9-.26-7.2-.65-9.54-.88-15.48-1.47-24.62-33.71-13.15-46.38,4.99-5.52,4.24-8.76-8.59-37.17-7.73-17.12-15.39-31.57-17-32.11-1.62-.54-63.9,28.85-138.4,65.31-74.5,36.46-162.78,79.51-196.18,95.68-33.4,16.16-60.73,31.31-60.73,33.65s4.06,13.13,9.02,23.97c5.81,12.69,8.63,24.29,7.92,32.61-1.05,12.39-1.64,11.64-14.37-18.4C5.9,267.33-.04,249.92,0,245.87c.1-9.97,8.19-16.62,35.28-28.96ZM359.29,97.87c-4.98,4.98-12.28-2.6-9.5-9.86,1.17-3.03,3.58-5.52,5.37-5.52,5.11,0,8.15,11.34,4.12,15.37ZM367.46,124.14c-3.54-.68-7-4.14-7.68-7.68-.9-4.65.55-6.1,5.2-5.2,3.54.68,7,4.14,7.68,7.68.9,4.65-.55,6.1-5.2,5.2ZM378.91,152.91c-5.5,0-10.26-9.48-7.22-14.4,4.16-6.73,12.13-3.05,12.13,5.6,0,5.18-2.02,8.8-4.9,8.8ZM390.86,177.55c-6.85,0-9.95-10-4.72-15.23,3.17-3.17,11.77,4.4,11.77,10.37,0,2.67-3.17,4.85-7.04,4.85ZM401.42,203.96c-2.9,0-5.81-3.71-6.45-8.24-.91-6.39.28-7.96,5.28-6.99,7.75,1.49,8.8,15.23,1.17,15.23ZM412.28,223.32c-7.31,0-9.51-3.7-4.91-8.29,3.26-3.26,9.14-1.04,10.85,4.11.78,2.33-1.84,4.18-5.94,4.18ZM39.68,239.84c4.02-5.43,20.55-6.02,190.99-6.83,243.45-1.16,259.32-.75,264.93,6.83,2.94,3.97,4.4,19.79,4.4,47.53,0,39.06-.42,41.57-6.96,41.57-3.83,0-9.56,3.96-12.73,8.8-5.34,8.15-5.34,9.45,0,17.6,3.17,4.84,8.9,8.8,12.73,8.8,6.53,0,6.96,2.51,6.96,41.09,0,33.29-1.11,42.31-5.83,47.53-5.53,6.11-17.17,6.44-225.92,6.44s-220.69-.54-226.54-5.83c-5.55-5.02-6.44-11.6-6.44-47.53,0-39.19.42-41.7,6.96-41.7,9.18,0,18.96-15.1,15.93-24.62-1.41-4.44-6.41-8.17-12.61-9.41l-10.28-2.06v-41.14c0-27.39,1.47-43.12,4.4-47.08ZM489.71,311.56l-1.01-32.68-1.01-32.67-218.55-.91c-120.2-.5-219.61.16-220.92,1.47s-2.37,16.48-2.37,33.71c0,31.25.03,31.37,12.32,42.96,9.19,8.67,12.32,14.54,12.32,23.11s-3.13,14.44-12.32,23.11c-12.17,11.48-12.32,11.97-12.27,40.9.03,16.1,1.32,31.27,2.87,33.71,2.22,3.49,48.75,4.24,220.87,3.52l218.05-.91,1-36.09c.67-24.12-.26-36.09-2.8-36.09-2.09,0-7.69-3.89-12.45-8.64-12.97-12.97-11.61-28.21,3.81-42.76l12.46-11.74ZM423.86,268.08c-4.55,1.5-9.37-8.59-6.4-13.39,1.09-1.76,4.37-3.2,7.3-3.2,6.19,0,5.4,14.52-.9,16.6ZM425.76,295.68c-5.38,3.33-11.61-3.89-9.07-10.52,1.17-3.03,4.54-5.52,7.51-5.52,6.15,0,7.36,12.44,1.56,16.03ZM424.76,325.42c-6.85,0-10.45-5.9-7.81-12.78,2.87-7.47,10.63-4.15,12,5.14.73,4.97-.74,7.65-4.19,7.65ZM429.59,346.54c0,9-5.3,11.62-10.59,5.24-3.45-4.16-3.45-6.32,0-10.48,5.3-6.38,10.59-3.76,10.59,5.24ZM425.76,383.7c-5.38,3.33-11.61-3.89-9.07-10.52,1.17-3.03,4.54-5.52,7.51-5.52,6.15,0,7.36,12.45,1.56,16.03ZM425.76,411.86c-5.38,3.33-11.61-3.89-9.07-10.52,1.17-3.03,4.54-5.52,7.51-5.52,6.15,0,7.36,12.44,1.56,16.03ZM425.76,440.03c-5.38,3.33-11.61-3.89-9.07-10.52,1.17-3.03,4.54-5.52,7.51-5.52,6.15,0,7.36,12.45,1.56,16.03Z"/>
  <path class="cls-1" d="M275.88,324.56h14.14v8.08h-14.14v37.87h-9.6v-37.87h-14.19v-8.08h23.79ZM112.45,352.22c-1.85,6.03-7.47,10.4-14.1,10.4s-14.79-6.64-14.79-14.81,6.63-14.81,14.79-14.81l13.17-4.08,13.12-4.08-26.29-.09c-12.71,0-23,10.3-23,23.02s10.3,23.02,23,23.02,23-10.3,23-23.02c0-1.49,0-2.66,0-3.57l19.62-19.27-29.25,16.65-.02-.04v.05h.02c.87,1.88,1.37,4.01,1.37,6.22s-.23,3.02-.65,4.41h0s0,0,0,0ZM121.13,344.42c.01.07.02.05.04-.04l-.04.04ZM158.78,324.89l-9.46,32.44.14,7.75-10.02-33.42-7.65,8.31,10.43,30.86h11.59l15.3-45.95h-10.34ZM296.14,324.89v45.95h9.6v-45.95h-9.6ZM407.12,333.05h-28.1l7.28,2.92v7.84h19.62v7.61h-19.62v11.19h20.82v8.21h-30.42v-45.95h30.42v8.17ZM243.37,350.6c-1.02.84-2.23,1.58-3.52,2.09h.05l9.69,18.15h-10.9l-12.29-24.04h4.31c2.41,0,4.31-.6,5.66-1.86,1.34-1.25,1.99-2.97,1.99-5.2,0-1.07-.18-2.04-.56-2.92-.33-.88-.88-1.62-1.53-2.23-.7-.65-1.48-1.11-2.46-1.44-.97-.32-2.04-.51-3.25-.51h-8.35v38.2h-9.6v-45.95h19.29c2.55,0,4.82.32,6.82,1.02,1.99.7,3.71,1.67,5.1,2.92,1.44,1.3,2.5,2.83,3.25,4.64.74,1.81,1.11,3.9,1.11,6.17,0,1.49-.19,2.88-.56,4.22-.37,1.35-.93,2.6-1.62,3.71-.74,1.16-1.62,2.13-2.64,3.02ZM354.25,324.89l-11.78,28.54,1.76,10.35-3.29-7.98-12.71-30.91h-11.31v45.95h8.9v-30.72h.51l11.69,28.08h6.4l11.69-28.08h.51v30.72h8.9v-45.95h-11.27ZM205.34,333.05h-28.1l7.28,2.92v7.84h19.62v7.61h-19.62v11.19h20.82v8.21h-30.42v-45.95h30.42v8.17ZM110.13,339.04l24.76-14.11-30.79,9.33c2.41,1.02,4.5,2.69,6.03,4.78Z"/>
</svg>