<svg width="232" height="61" viewBox="0 0 232 61" fill="none" xmlns="http://www.w3.org/2000/svg">
<path d="M191.865 46.979C193.466 46.979 194.765 45.6974 194.765 44.1165C194.765 42.5355 193.466 41.2539 191.865 41.2539C190.263 41.2539 188.965 42.5355 188.965 44.1165C188.965 45.6974 190.263 46.979 191.865 46.979Z" fill="#5F6180"/>
<path d="M196.58 50.6157C198.181 50.6157 199.48 49.3341 199.48 47.7532C199.48 46.1722 198.181 44.8906 196.58 44.8906C194.978 44.8906 193.68 46.1722 193.68 47.7532C193.68 49.3341 194.978 50.6157 196.58 50.6157Z" fill="#5F6180"/>
<path d="M202.148 52.6001C203.75 52.6001 205.048 51.3185 205.048 49.7376C205.048 48.1566 203.75 46.875 202.148 46.875C200.546 46.875 199.248 48.1566 199.248 49.7376C199.248 51.3185 200.546 52.6001 202.148 52.6001Z" fill="#5F6180"/>
<path d="M208.185 52.6001C209.787 52.6001 211.085 51.3185 211.085 49.7376C211.085 48.1566 209.787 46.875 208.185 46.875C206.584 46.875 205.285 48.1566 205.285 49.7376C205.285 51.3185 206.584 52.6001 208.185 52.6001Z" fill="#5F6180"/>
<path d="M213.986 50.8814C215.588 50.8814 216.886 49.5998 216.886 48.0188C216.886 46.4379 215.588 45.1562 213.986 45.1562C212.384 45.1562 211.086 46.4379 211.086 48.0188C211.086 49.5998 212.384 50.8814 213.986 50.8814Z" fill="#5F6180"/>
<path d="M218.761 47.4204C220.363 47.4204 221.661 46.1388 221.661 44.5579C221.661 42.9769 220.363 41.6953 218.761 41.6953C217.16 41.6953 215.861 42.9769 215.861 44.5579C215.861 46.1388 217.16 47.4204 218.761 47.4204Z" fill="#5F6180"/>
<path d="M222.377 42.6118C223.978 42.6118 225.277 41.3302 225.277 39.7493C225.277 38.1683 223.978 36.8867 222.377 36.8867C220.775 36.8867 219.477 38.1683 219.477 39.7493C219.477 41.3302 220.775 42.6118 222.377 42.6118Z" fill="#5F6180"/>
<path d="M224.345 37.1157C225.947 37.1157 227.245 35.8341 227.245 34.2532C227.245 32.6722 225.947 31.3906 224.345 31.3906C222.744 31.3906 221.445 32.6722 221.445 34.2532C221.445 35.8341 222.744 37.1157 224.345 37.1157Z" fill="#5F6180"/>
<path d="M224.345 31.0025C225.947 31.0025 227.245 29.7209 227.245 28.1399C227.245 26.559 225.947 25.2773 224.345 25.2773C222.744 25.2773 221.445 26.559 221.445 28.1399C221.445 29.7209 222.744 31.0025 224.345 31.0025Z" fill="#5F6180"/>
<path d="M222.742 25.2759C224.343 25.2759 225.642 23.9943 225.642 22.4133C225.642 20.8324 224.343 19.5508 222.742 19.5508C221.14 19.5508 219.842 20.8324 219.842 22.4133C219.842 23.9943 221.14 25.2759 222.742 25.2759Z" fill="#5F6180"/>
<path d="M219.263 20.522C220.865 20.522 222.163 19.2404 222.163 17.6594C222.163 16.0785 220.865 14.7969 219.263 14.7969C217.662 14.7969 216.363 16.0785 216.363 17.6594C216.363 19.2404 217.662 20.522 219.263 20.522Z" fill="#5F6180"/>
<path d="M214.504 16.8579C216.105 16.8579 217.404 15.5763 217.404 13.9954C217.404 12.4144 216.105 11.1328 214.504 11.1328C212.902 11.1328 211.604 12.4144 211.604 13.9954C211.604 15.5763 212.902 16.8579 214.504 16.8579Z" fill="#5F6180"/>
<path d="M208.888 15.0259C210.49 15.0259 211.788 13.7443 211.788 12.1633C211.788 10.5824 210.49 9.30078 208.888 9.30078C207.287 9.30078 205.988 10.5824 205.988 12.1633C205.988 13.7443 207.287 15.0259 208.888 15.0259Z" fill="#5F6180"/>
<path d="M202.832 14.7954C204.433 14.7954 205.732 13.5138 205.732 11.9329C205.732 10.3519 204.433 9.07031 202.832 9.07031C201.23 9.07031 199.932 10.3519 199.932 11.9329C199.932 13.5138 201.23 14.7954 202.832 14.7954Z" fill="#5F6180"/>
<path d="M197.201 16.5454C198.802 16.5454 200.101 15.2638 200.101 13.6829C200.101 12.1019 198.802 10.8203 197.201 10.8203C195.599 10.8203 194.301 12.1019 194.301 13.6829C194.301 15.2638 195.599 16.5454 197.201 16.5454Z" fill="#5F6180"/>
<path d="M192.304 20.0689C193.906 20.0689 195.204 18.7873 195.204 17.2063C195.204 15.6254 193.906 14.3438 192.304 14.3438C190.703 14.3438 189.404 15.6254 189.404 17.2063C189.404 18.7873 190.703 20.0689 192.304 20.0689Z" fill="#5F6180"/>
<path d="M196.892 40.6097C197.899 40.6097 198.715 39.8069 198.715 38.8165C198.715 37.8262 197.899 37.0234 196.892 37.0234C195.885 37.0234 195.068 37.8262 195.068 38.8165C195.068 39.8069 195.885 40.6097 196.892 40.6097Z" fill="#5F6180"/>
<path d="M199.857 42.887C200.864 42.887 201.68 42.0842 201.68 41.0939C201.68 40.1036 200.864 39.3008 199.857 39.3008C198.85 39.3008 198.033 40.1036 198.033 41.0939C198.033 42.0842 198.85 42.887 199.857 42.887Z" fill="#5F6180"/>
<path d="M203.359 44.1292C204.366 44.1292 205.182 43.3264 205.182 42.3361C205.182 41.3458 204.366 40.543 203.359 40.543C202.352 40.543 201.535 41.3458 201.535 42.3361C201.535 43.3264 202.352 44.1292 203.359 44.1292Z" fill="#5F6180"/>
<path d="M207.158 44.1292C208.165 44.1292 208.981 43.3264 208.981 42.3361C208.981 41.3458 208.165 40.543 207.158 40.543C206.15 40.543 205.334 41.3458 205.334 42.3361C205.334 43.3264 206.15 44.1292 207.158 44.1292Z" fill="#5F6180"/>
<path d="M210.804 43.0511C211.811 43.0511 212.628 42.2483 212.628 41.258C212.628 40.2676 211.811 39.4648 210.804 39.4648C209.797 39.4648 208.98 40.2676 208.98 41.258C208.98 42.2483 209.797 43.0511 210.804 43.0511Z" fill="#5F6180"/>
<path d="M213.808 40.8831C214.815 40.8831 215.631 40.0803 215.631 39.09C215.631 38.0997 214.815 37.2969 213.808 37.2969C212.801 37.2969 211.984 38.0997 211.984 39.09C211.984 40.0803 212.801 40.8831 213.808 40.8831Z" fill="#5F6180"/>
<path d="M216.083 37.8753C217.09 37.8753 217.907 37.0725 217.907 36.0822C217.907 35.0919 217.09 34.2891 216.083 34.2891C215.076 34.2891 214.26 35.0919 214.26 36.0822C214.26 37.0725 215.076 37.8753 216.083 37.8753Z" fill="#5F6180"/>
<path d="M217.32 34.4339C218.327 34.4339 219.143 33.6311 219.143 32.6408C219.143 31.6505 218.327 30.8477 217.32 30.8477C216.313 30.8477 215.496 31.6505 215.496 32.6408C215.496 33.6311 216.313 34.4339 217.32 34.4339Z" fill="#5F6180"/>
<path d="M217.32 30.6057C218.327 30.6057 219.143 29.8029 219.143 28.8126C219.143 27.8223 218.327 27.0195 217.32 27.0195C216.313 27.0195 215.496 27.8223 215.496 28.8126C215.496 29.8029 216.313 30.6057 217.32 30.6057Z" fill="#5F6180"/>
<path d="M216.312 27.0237C217.319 27.0237 218.135 26.2209 218.135 25.2306C218.135 24.2403 217.319 23.4375 216.312 23.4375C215.305 23.4375 214.488 24.2403 214.488 25.2306C214.488 26.2209 215.305 27.0237 216.312 27.0237Z" fill="#5F6180"/>
<path d="M214.124 24.0432C215.131 24.0432 215.948 23.2404 215.948 22.2501C215.948 21.2598 215.131 20.457 214.124 20.457C213.117 20.457 212.301 21.2598 212.301 22.2501C212.301 23.2404 213.117 24.0432 214.124 24.0432Z" fill="#5F6180"/>
<path d="M211.13 21.7542C212.137 21.7542 212.954 20.9514 212.954 19.9611C212.954 18.9708 212.137 18.168 211.13 18.168C210.123 18.168 209.307 18.9708 209.307 19.9611C209.307 20.9514 210.123 21.7542 211.13 21.7542Z" fill="#5F6180"/>
<path d="M207.599 20.6018C208.606 20.6018 209.422 19.799 209.422 18.8087C209.422 17.8184 208.606 17.0156 207.599 17.0156C206.592 17.0156 205.775 17.8184 205.775 18.8087C205.775 19.799 206.592 20.6018 207.599 20.6018Z" fill="#5F6180"/>
<path d="M203.788 20.4612C204.795 20.4612 205.612 19.6584 205.612 18.6681C205.612 17.6778 204.795 16.875 203.788 16.875C202.781 16.875 201.965 17.6778 201.965 18.6681C201.965 19.6584 202.781 20.4612 203.788 20.4612Z" fill="#5F6180"/>
<path d="M200.249 21.555C201.256 21.555 202.073 20.7522 202.073 19.7619C202.073 18.7716 201.256 17.9688 200.249 17.9688C199.242 17.9688 198.426 18.7716 198.426 19.7619C198.426 20.7522 199.242 21.555 200.249 21.555Z" fill="#5F6180"/>
<path d="M197.167 23.762C198.174 23.762 198.991 22.9592 198.991 21.9689C198.991 20.9786 198.174 20.1758 197.167 20.1758C196.16 20.1758 195.344 20.9786 195.344 21.9689C195.344 22.9592 196.16 23.762 197.167 23.762Z" fill="#5F6180"/>
<path d="M200.239 35.9583C200.786 35.9583 201.229 35.5225 201.229 34.985C201.229 34.4475 200.786 34.0117 200.239 34.0117C199.692 34.0117 199.248 34.4475 199.248 34.985C199.248 35.5225 199.692 35.9583 200.239 35.9583Z" fill="#5F6180"/>
<path d="M201.846 37.1926C202.393 37.1926 202.837 36.7569 202.837 36.2194C202.837 35.6818 202.393 35.2461 201.846 35.2461C201.299 35.2461 200.855 35.6818 200.855 36.2194C200.855 36.7569 201.299 37.1926 201.846 37.1926Z" fill="#5F6180"/>
<path d="M203.747 37.8645C204.294 37.8645 204.737 37.4288 204.737 36.8912C204.737 36.3537 204.294 35.918 203.747 35.918C203.199 35.918 202.756 36.3537 202.756 36.8912C202.756 37.4288 203.199 37.8645 203.747 37.8645Z" fill="#5F6180"/>
<path d="M205.807 37.8645C206.354 37.8645 206.798 37.4288 206.798 36.8912C206.798 36.3537 206.354 35.918 205.807 35.918C205.26 35.918 204.816 36.3537 204.816 36.8912C204.816 37.4288 205.26 37.8645 205.807 37.8645Z" fill="#5F6180"/>
<path d="M207.786 37.2825C208.333 37.2825 208.776 36.8467 208.776 36.3092C208.776 35.7717 208.333 35.3359 207.786 35.3359C207.238 35.3359 206.795 35.7717 206.795 36.3092C206.795 36.8467 207.238 37.2825 207.786 37.2825Z" fill="#5F6180"/>
<path d="M209.414 36.1067C209.962 36.1067 210.405 35.6709 210.405 35.1334C210.405 34.5959 209.962 34.1602 209.414 34.1602C208.867 34.1602 208.424 34.5959 208.424 35.1334C208.424 35.6709 208.867 36.1067 209.414 36.1067Z" fill="#5F6180"/>
<path d="M210.649 34.4739C211.196 34.4739 211.639 34.0381 211.639 33.5006C211.639 32.9631 211.196 32.5273 210.649 32.5273C210.102 32.5273 209.658 32.9631 209.658 33.5006C209.658 34.0381 210.102 34.4739 210.649 34.4739Z" fill="#5F6180"/>
<path d="M211.321 32.6067C211.868 32.6067 212.311 32.1709 212.311 31.6334C212.311 31.0959 211.868 30.6602 211.321 30.6602C210.774 30.6602 210.33 31.0959 210.33 31.6334C210.33 32.1709 210.774 32.6067 211.321 32.6067Z" fill="#5F6180"/>
<path d="M211.321 30.5286C211.868 30.5286 212.311 30.0928 212.311 29.5553C212.311 29.0178 211.868 28.582 211.321 28.582C210.774 28.582 210.33 29.0178 210.33 29.5553C210.33 30.0928 210.774 30.5286 211.321 30.5286Z" fill="#5F6180"/>
<path d="M210.774 28.5872C211.321 28.5872 211.764 28.1514 211.764 27.6139C211.764 27.0764 211.321 26.6406 210.774 26.6406C210.227 26.6406 209.783 27.0764 209.783 27.6139C209.783 28.1514 210.227 28.5872 210.774 28.5872Z" fill="#5F6180"/>
<path d="M209.586 26.97C210.133 26.97 210.577 26.5342 210.577 25.9967C210.577 25.4592 210.133 25.0234 209.586 25.0234C209.039 25.0234 208.596 25.4592 208.596 25.9967C208.596 26.5342 209.039 26.97 209.586 26.97Z" fill="#5F6180"/>
<path d="M207.961 25.7278C208.508 25.7278 208.952 25.292 208.952 24.7545C208.952 24.217 208.508 23.7812 207.961 23.7812C207.414 23.7812 206.971 24.217 206.971 24.7545C206.971 25.292 207.414 25.7278 207.961 25.7278Z" fill="#5F6180"/>
<path d="M206.047 25.1028C206.594 25.1028 207.038 24.667 207.038 24.1295C207.038 23.592 206.594 23.1562 206.047 23.1562C205.5 23.1562 205.057 23.592 205.057 24.1295C205.057 24.667 205.5 25.1028 206.047 25.1028Z" fill="#5F6180"/>
<path d="M203.981 25.0247C204.528 25.0247 204.972 24.5889 204.972 24.0514C204.972 23.5139 204.528 23.0781 203.981 23.0781C203.434 23.0781 202.99 23.5139 202.99 24.0514C202.99 24.5889 203.434 25.0247 203.981 25.0247Z" fill="#5F6180"/>
<path d="M202.057 25.6184C202.604 25.6184 203.048 25.1827 203.048 24.6451C203.048 24.1076 202.604 23.6719 202.057 23.6719C201.51 23.6719 201.066 24.1076 201.066 24.6451C201.066 25.1827 201.51 25.6184 202.057 25.6184Z" fill="#5F6180"/>
<path d="M200.387 26.8137C200.934 26.8137 201.378 26.378 201.378 25.8405C201.378 25.3029 200.934 24.8672 200.387 24.8672C199.84 24.8672 199.396 25.3029 199.396 25.8405C199.396 26.378 199.84 26.8137 200.387 26.8137Z" fill="#5F6180"/>
<path d="M10.6653 25.3359C11.4796 25.3359 12.1733 25.4367 12.7463 25.6359C13.317 25.8352 13.7833 26.0985 14.1429 26.426C14.5025 26.7535 14.7624 27.1268 14.9271 27.5458C15.0918 27.9649 15.173 28.4 15.173 28.8512C15.173 29.3023 15.0918 29.7237 14.9271 30.1473C14.7624 30.571 14.5002 30.9488 14.1429 31.274C13.7833 31.6015 13.4098 31.9725 12.8623 32.2404C12.3565 32.49 11.6513 32.6984 10.8369 32.6984L7.65622 32.7145V36.2915H4.79102V25.3359H10.6676H10.6653ZM9.8811 30.4908C10.2105 30.4908 10.5261 30.4702 10.83 30.429C11.1339 30.3878 11.4007 30.3099 11.6327 30.1908C11.8647 30.074 12.0503 29.9069 12.1895 29.6916C12.3287 29.4763 12.3983 29.1947 12.3983 28.8466C12.3983 28.4985 12.3287 28.2168 12.1895 28.0038C12.0503 27.7886 11.8647 27.6237 11.6327 27.5046C11.4007 27.3878 11.1339 27.3077 10.83 27.2664C10.5261 27.2252 10.2105 27.2046 9.8811 27.2046H7.6539V30.4885H9.8811V30.4908Z" fill="#5F6180"/>
<path d="M22.68 25.3359L27.1507 36.2915H24.4224L23.5176 33.8526H19.0469L18.1096 36.2915H15.4648L19.9865 25.3359H22.6824H22.68ZM22.8308 32.0549L21.3228 28.0359H21.2904L19.7336 32.0549H22.8308Z" fill="#5F6180"/>
<path d="M35.395 25.3359C35.9564 25.3359 36.4622 25.4161 36.9123 25.5741C37.3624 25.7321 37.7475 25.9497 38.07 26.2268C38.3901 26.5039 38.636 26.8222 38.8054 27.1863C38.9748 27.5504 39.0606 27.9397 39.0606 28.3611C39.0606 29.0046 38.9052 29.5634 38.5966 30.0328C38.2857 30.5023 37.7823 30.8618 37.0793 31.1069V31.1366C37.418 31.2191 37.6988 31.3427 37.9215 31.5122C38.1442 31.6817 38.3252 31.8809 38.4644 32.1099C38.6036 32.3389 38.7056 32.5931 38.7706 32.8702C38.8356 33.1473 38.8796 33.4221 38.9028 33.6992C38.9144 33.8732 38.926 34.077 38.9376 34.3129C38.9492 34.5488 38.9701 34.7893 38.998 35.0343C39.0281 35.2793 39.0745 35.5129 39.1372 35.7328C39.2021 35.9526 39.2972 36.1404 39.4272 36.2938H36.6756C36.5225 35.9457 36.4297 35.5312 36.3949 35.0503C36.3601 34.5694 36.3068 34.1091 36.2372 33.6694C36.1444 33.0969 35.9448 32.6778 35.6409 32.4122C35.337 32.1465 34.8405 32.0137 34.1515 32.0137H31.4V36.2938H28.6484V25.3382H35.3973L35.395 25.3359ZM34.4136 30.2916C35.0447 30.2916 35.518 30.1679 35.8335 29.9229C36.149 29.6779 36.3068 29.2794 36.3068 28.7252C36.3068 28.171 36.149 27.8069 35.8335 27.5664C35.518 27.326 35.0447 27.2069 34.4136 27.2069H31.3976V30.2916H34.4136Z" fill="#5F6180"/>
<path d="M40.1758 27.3603V25.3359H49.7759V27.3603H46.2635V36.2892H43.6883V27.3603H40.1758Z" fill="#5F6180"/>
<path d="M53.8684 25.3359V36.2915H51.4277V25.3359H53.8684Z" fill="#5F6180"/>
<path d="M65.0191 28.3464C64.8428 28.1243 64.6247 27.9273 64.3602 27.7602C64.0958 27.593 63.7988 27.4602 63.467 27.3663C63.1353 27.2724 62.7873 27.2243 62.423 27.2243C61.7572 27.2243 61.1934 27.3251 60.7294 27.5289C60.2654 27.7327 59.8896 28.0052 59.6019 28.3464C59.3142 28.6876 59.1031 29.0769 58.9709 29.512C58.8386 29.9494 58.7737 30.3983 58.7737 30.8655C58.7737 31.3326 58.8386 31.7448 58.9709 32.1662C59.1031 32.5876 59.3119 32.9654 59.6019 33.3021C59.8896 33.6387 60.2654 33.9089 60.7294 34.1128C61.1934 34.3166 61.7572 34.4173 62.423 34.4173C63.3255 34.4173 64.0308 34.1998 64.5389 33.7624C65.0469 33.3273 65.3578 32.7525 65.4692 32.038H68.3274C68.2532 32.7021 68.0583 33.3021 67.7451 33.8357C67.4319 34.3715 67.0166 34.8272 66.5039 35.2028C65.9889 35.5784 65.388 35.8669 64.6989 36.0639C64.0099 36.2608 63.2513 36.3616 62.423 36.3616C61.3953 36.3616 60.4696 36.2196 59.6483 35.9379C58.827 35.6562 58.1334 35.2669 57.5696 34.7723C57.0058 34.2776 56.572 33.6937 56.2727 33.025C55.9711 32.3563 55.8203 31.6349 55.8203 30.8632C55.8203 30.0914 55.9711 29.3357 56.2727 28.6556C56.5743 27.9777 57.0058 27.3846 57.5696 26.8808C58.1334 26.3747 58.827 25.9785 59.6483 25.6922C60.4696 25.406 61.393 25.2617 62.423 25.2617C63.1631 25.2617 63.8614 25.3465 64.5203 25.5136C65.1792 25.6831 65.7685 25.9281 66.2882 26.2487C66.8078 26.5716 67.237 26.9701 67.5757 27.4441C67.9145 27.9205 68.1279 28.4655 68.2161 29.0792H65.3578C65.3068 28.8113 65.1954 28.5663 65.0191 28.3441V28.3464Z" fill="#5F6180"/>
<path d="M72.866 25.3343V34.2632H78.2763V36.2876H70.4277V25.332H72.8684L72.866 25.3343Z" fill="#5F6180"/>
<path d="M89.7585 25.3343V27.3587H83.2068V29.706H89.2203V31.577H83.2068V34.2632H89.8977V36.2876H80.4785V25.332H89.7585V25.3343Z" fill="#5F6180"/>
<path d="M100.243 25.3359L105.689 32.6847H105.726V25.3359H108.412V36.2915H105.545L100.118 28.9565H100.081V36.2915H97.3945V25.3359H100.246H100.243Z" fill="#5F6180"/>
<path d="M120.404 25.3343V27.3587H113.919V29.706H119.87V31.577H113.919V34.2632H120.541V36.2876H111.219V25.332H120.404V25.3343Z" fill="#5F6180"/>
<path d="M121.061 27.3983V25.3945H131.079V27.3983H127.413V36.2333H124.724V27.3983H121.059H121.061Z" fill="#5F6180"/>
<path d="M141.815 36.2915L139.664 28.8351H139.629L137.513 36.2915H134.687L131.328 25.3359H134.119L136.128 32.7923H136.163L138.367 25.3359H140.979L143.149 32.8839H143.183L145.262 25.3359H148L144.587 36.2915H141.815Z" fill="#5F6180"/>
<path d="M149.566 28.5881C149.851 27.8873 150.264 27.2759 150.8 26.7538C151.336 26.2316 151.997 25.824 152.779 25.5263C153.561 25.2309 154.44 25.082 155.419 25.082C156.398 25.082 157.292 25.2309 158.069 25.5263C158.844 25.824 159.5 26.2316 160.038 26.7538C160.577 27.2759 160.987 27.8873 161.273 28.5881C161.558 29.2888 161.702 30.0491 161.702 30.8667C161.702 31.6842 161.558 32.4079 161.273 33.0995C160.987 33.7911 160.574 34.3911 160.038 34.9018C159.502 35.4124 158.846 35.8155 158.069 36.1063C157.294 36.3972 156.41 36.5437 155.419 36.5437C154.429 36.5437 153.561 36.3972 152.779 36.1063C151.997 35.8155 151.338 35.4124 150.8 34.9018C150.262 34.3911 149.851 33.7888 149.566 33.0995C149.281 32.4102 149.137 31.6659 149.137 30.8667C149.137 30.0675 149.281 29.2888 149.566 28.5881ZM152.134 32.2087C152.259 32.6438 152.459 33.0354 152.733 33.3812C153.006 33.7293 153.366 34.0086 153.807 34.217C154.248 34.4277 154.786 34.5308 155.417 34.5308C156.048 34.5308 156.586 34.4254 157.027 34.217C157.468 34.0063 157.827 33.7293 158.101 33.3812C158.375 33.0331 158.574 32.6415 158.7 32.2087C158.825 31.7735 158.888 31.327 158.888 30.8667C158.888 30.4064 158.825 29.9209 158.7 29.4698C158.574 29.0209 158.375 28.6179 158.101 28.2652C157.827 27.9125 157.468 27.6309 157.027 27.4202C156.586 27.2095 156.048 27.1064 155.417 27.1064C154.786 27.1064 154.248 27.2118 153.807 27.4202C153.366 27.6309 153.006 27.9102 152.733 28.2652C152.459 28.6202 152.259 29.0186 152.134 29.4698C152.009 29.9209 151.946 30.3858 151.946 30.8667C151.946 31.3476 152.009 31.7735 152.134 32.2087Z" fill="#5F6180"/>
<path d="M170.55 25.3359C171.116 25.3359 171.629 25.4161 172.084 25.5741C172.539 25.7321 172.928 25.9497 173.253 26.2268C173.578 26.5039 173.826 26.8222 173.998 27.1863C174.17 27.5504 174.255 27.9397 174.255 28.3611C174.255 29.0046 174.098 29.5634 173.787 30.0328C173.474 30.5023 172.963 30.8618 172.253 31.1069V31.1366C172.597 31.2191 172.88 31.3427 173.105 31.5122C173.33 31.6817 173.513 31.8809 173.655 32.1099C173.796 32.3389 173.9 32.5931 173.965 32.8702C174.03 33.1473 174.074 33.4221 174.098 33.6992C174.109 33.8732 174.121 34.077 174.132 34.3129C174.144 34.5488 174.165 34.7893 174.195 35.0343C174.225 35.2793 174.272 35.5129 174.337 35.7328C174.402 35.9526 174.499 36.1404 174.629 36.2938H171.845C171.692 35.9457 171.597 35.5312 171.562 35.0503C171.527 34.5694 171.474 34.1091 171.402 33.6694C171.307 33.0969 171.107 32.6778 170.799 32.4122C170.49 32.1465 169.989 32.0137 169.291 32.0137H166.507V36.2938H163.723V25.3382H170.548L170.55 25.3359ZM169.557 30.2916C170.195 30.2916 170.673 30.1679 170.994 29.9229C171.314 29.6779 171.471 29.2794 171.471 28.7252C171.471 28.171 171.311 27.8069 170.994 27.5664C170.673 27.326 170.195 27.2069 169.557 27.2069H166.509V30.2916H169.557Z" fill="#5F6180"/>
<path d="M179.192 25.3343V29.8755L183.76 25.3343H186.968L182.4 29.6602L187.409 36.2876H184.184L180.665 31.3617L179.192 32.7587V36.2876H176.621V25.332H179.192V25.3343Z" fill="#5F6180"/>
<path d="M74.9205 16.4545V7.45455H75.892V8.49432H76.0114C76.0852 8.38068 76.1875 8.2358 76.3182 8.05966C76.4517 7.88068 76.642 7.72159 76.8892 7.58239C77.1392 7.44034 77.4773 7.36932 77.9034 7.36932C78.4545 7.36932 78.9403 7.5071 79.3608 7.78267C79.7813 8.05824 80.1094 8.44886 80.3452 8.95455C80.581 9.46023 80.6989 10.0568 80.6989 10.7443C80.6989 11.4375 80.581 12.0384 80.3452 12.5469C80.1094 13.0526 79.7827 13.4446 79.3651 13.723C78.9474 13.9986 78.4659 14.1364 77.9205 14.1364C77.5 14.1364 77.1634 14.0668 76.9105 13.9276C76.6577 13.7855 76.4631 13.625 76.3267 13.446C76.1903 13.2642 76.0852 13.1136 76.0114 12.9943H75.9261V16.4545H74.9205ZM75.9091 10.7273C75.9091 11.2216 75.9815 11.6577 76.1264 12.0355C76.2713 12.4105 76.483 12.7045 76.7614 12.9176C77.0398 13.1278 77.3807 13.233 77.7841 13.233C78.2045 13.233 78.5554 13.1222 78.8366 12.9006C79.1207 12.6761 79.3338 12.375 79.4759 11.9972C79.6207 11.6165 79.6932 11.1932 79.6932 10.7273C79.6932 10.267 79.6222 9.85227 79.4801 9.48295C79.3409 9.1108 79.1293 8.81676 78.8452 8.60085C78.5639 8.3821 78.2102 8.27273 77.7841 8.27273C77.375 8.27273 77.0313 8.37642 76.7528 8.58381C76.4744 8.78835 76.2642 9.07528 76.1222 9.4446C75.9801 9.81108 75.9091 10.2386 75.9091 10.7273ZM84.892 14.1364C84.3011 14.1364 83.7827 13.9957 83.3366 13.7145C82.8935 13.4332 82.5469 13.0398 82.2969 12.5341C82.0497 12.0284 81.9261 11.4375 81.9261 10.7614C81.9261 10.0795 82.0497 9.48437 82.2969 8.97585C82.5469 8.46733 82.8935 8.07244 83.3366 7.79119C83.7827 7.50994 84.3011 7.36932 84.892 7.36932C85.483 7.36932 86 7.50994 86.4432 7.79119C86.8892 8.07244 87.2358 8.46733 87.483 8.97585C87.733 9.48437 87.858 10.0795 87.858 10.7614C87.858 11.4375 87.733 12.0284 87.483 12.5341C87.2358 13.0398 86.8892 13.4332 86.4432 13.7145C86 13.9957 85.483 14.1364 84.892 14.1364ZM84.892 13.233C85.3409 13.233 85.7102 13.1179 86 12.8878C86.2898 12.6577 86.5043 12.3551 86.6435 11.9801C86.7827 11.6051 86.8523 11.1989 86.8523 10.7614C86.8523 10.3239 86.7827 9.91619 86.6435 9.53835C86.5043 9.16051 86.2898 8.85511 86 8.62216C85.7102 8.3892 85.3409 8.27273 84.892 8.27273C84.4432 8.27273 84.0739 8.3892 83.7841 8.62216C83.4943 8.85511 83.2798 9.16051 83.1406 9.53835C83.0014 9.91619 82.9318 10.3239 82.9318 10.7614C82.9318 11.1989 83.0014 11.6051 83.1406 11.9801C83.2798 12.3551 83.4943 12.6577 83.7841 12.8878C84.0739 13.1179 84.4432 13.233 84.892 13.233ZM90.6534 14L88.6591 7.45455H89.7159L91.1307 12.4659H91.1989L92.5966 7.45455H93.6705L95.0511 12.4489H95.1193L96.5341 7.45455H97.5909L95.5966 14H94.608L93.1761 8.97159H93.0739L91.642 14H90.6534ZM101.442 14.1364C100.811 14.1364 100.267 13.9972 99.81 13.7188C99.3555 13.4375 99.0046 13.0455 98.7575 12.5426C98.5131 12.0369 98.391 11.4489 98.391 10.7784C98.391 10.108 98.5131 9.51705 98.7575 9.00568C99.0046 8.49148 99.3484 8.09091 99.7887 7.80398C100.232 7.5142 100.749 7.36932 101.34 7.36932C101.681 7.36932 102.017 7.42614 102.35 7.53977C102.682 7.65341 102.985 7.83807 103.257 8.09375C103.53 8.34659 103.748 8.68182 103.909 9.09943C104.071 9.51705 104.152 10.0312 104.152 10.642V11.0682H99.1069V10.1989H103.13C103.13 9.82955 103.056 9.5 102.908 9.21023C102.763 8.92045 102.556 8.69176 102.286 8.52415C102.019 8.35653 101.703 8.27273 101.34 8.27273C100.939 8.27273 100.593 8.37216 100.3 8.57102C100.01 8.76705 99.7873 9.02273 99.631 9.33807C99.4748 9.65341 99.3967 9.99148 99.3967 10.3523V10.9318C99.3967 11.4261 99.4819 11.8452 99.6523 12.1889C99.8256 12.5298 100.066 12.7898 100.373 12.9688C100.679 13.1449 101.036 13.233 101.442 13.233C101.706 13.233 101.945 13.196 102.158 13.1222C102.374 13.0455 102.56 12.9318 102.716 12.7812C102.873 12.6278 102.993 12.4375 103.078 12.2102L104.05 12.483C103.948 12.8125 103.776 13.1023 103.534 13.3523C103.293 13.5994 102.995 13.7926 102.64 13.9318C102.284 14.0682 101.885 14.1364 101.442 14.1364ZM105.682 14V7.45455H106.654V8.44318H106.722C106.841 8.11932 107.057 7.85653 107.37 7.65483C107.682 7.45312 108.034 7.35227 108.426 7.35227C108.5 7.35227 108.593 7.35369 108.703 7.35653C108.814 7.35937 108.898 7.36364 108.955 7.36932V8.39205C108.921 8.38352 108.843 8.37074 108.721 8.35369C108.601 8.33381 108.475 8.32386 108.341 8.32386C108.023 8.32386 107.739 8.39062 107.489 8.52415C107.242 8.65483 107.046 8.83665 106.901 9.0696C106.759 9.29972 106.688 9.5625 106.688 9.85795V14H105.682ZM112.692 14.1364C112.061 14.1364 111.517 13.9972 111.06 13.7188C110.605 13.4375 110.255 13.0455 110.007 12.5426C109.763 12.0369 109.641 11.4489 109.641 10.7784C109.641 10.108 109.763 9.51705 110.007 9.00568C110.255 8.49148 110.598 8.09091 111.039 7.80398C111.482 7.5142 111.999 7.36932 112.59 7.36932C112.931 7.36932 113.267 7.42614 113.6 7.53977C113.932 7.65341 114.235 7.83807 114.507 8.09375C114.78 8.34659 114.998 8.68182 115.159 9.09943C115.321 9.51705 115.402 10.0312 115.402 10.642V11.0682H110.357V10.1989H114.38C114.38 9.82955 114.306 9.5 114.158 9.21023C114.013 8.92045 113.806 8.69176 113.536 8.52415C113.269 8.35653 112.953 8.27273 112.59 8.27273C112.189 8.27273 111.843 8.37216 111.55 8.57102C111.26 8.76705 111.037 9.02273 110.881 9.33807C110.725 9.65341 110.647 9.99148 110.647 10.3523V10.9318C110.647 11.4261 110.732 11.8452 110.902 12.1889C111.076 12.5298 111.316 12.7898 111.623 12.9688C111.929 13.1449 112.286 13.233 112.692 13.233C112.956 13.233 113.195 13.196 113.408 13.1222C113.624 13.0455 113.81 12.9318 113.966 12.7812C114.123 12.6278 114.243 12.4375 114.328 12.2102L115.3 12.483C115.198 12.8125 115.026 13.1023 114.784 13.3523C114.543 13.5994 114.245 13.7926 113.89 13.9318C113.534 14.0682 113.135 14.1364 112.692 14.1364ZM119.404 14.1364C118.858 14.1364 118.377 13.9986 117.959 13.723C117.542 13.4446 117.215 13.0526 116.979 12.5469C116.743 12.0384 116.625 11.4375 116.625 10.7443C116.625 10.0568 116.743 9.46023 116.979 8.95455C117.215 8.44886 117.543 8.05824 117.963 7.78267C118.384 7.5071 118.87 7.36932 119.421 7.36932C119.847 7.36932 120.184 7.44034 120.431 7.58239C120.681 7.72159 120.871 7.88068 121.002 8.05966C121.135 8.2358 121.239 8.38068 121.313 8.49432H121.398V5.27273H122.404V14H121.432V12.9943H121.313C121.239 13.1136 121.134 13.2642 120.998 13.446C120.861 13.625 120.667 13.7855 120.414 13.9276C120.161 14.0668 119.824 14.1364 119.404 14.1364ZM119.54 13.233C119.944 13.233 120.284 13.1278 120.563 12.9176C120.841 12.7045 121.053 12.4105 121.198 12.0355C121.343 11.6577 121.415 11.2216 121.415 10.7273C121.415 10.2386 121.344 9.81108 121.202 9.4446C121.06 9.07528 120.85 8.78835 120.571 8.58381C120.293 8.37642 119.949 8.27273 119.54 8.27273C119.114 8.27273 118.759 8.3821 118.475 8.60085C118.194 8.81676 117.982 9.1108 117.84 9.48295C117.701 9.85227 117.631 10.267 117.631 10.7273C117.631 11.1932 117.702 11.6165 117.844 11.9972C117.989 12.375 118.202 12.6761 118.483 12.9006C118.767 13.1222 119.12 13.233 119.54 13.233ZM127.897 14V5.27273H128.902V8.49432H128.988C129.061 8.38068 129.164 8.2358 129.294 8.05966C129.428 7.88068 129.618 7.72159 129.865 7.58239C130.115 7.44034 130.453 7.36932 130.88 7.36932C131.431 7.36932 131.917 7.5071 132.337 7.78267C132.757 8.05824 133.086 8.44886 133.321 8.95455C133.557 9.46023 133.675 10.0568 133.675 10.7443C133.675 11.4375 133.557 12.0384 133.321 12.5469C133.086 13.0526 132.759 13.4446 132.341 13.723C131.924 13.9986 131.442 14.1364 130.897 14.1364C130.476 14.1364 130.14 14.0668 129.887 13.9276C129.634 13.7855 129.439 13.625 129.303 13.446C129.167 13.2642 129.061 13.1136 128.988 12.9943H128.868V14H127.897ZM128.885 10.7273C128.885 11.2216 128.958 11.6577 129.103 12.0355C129.248 12.4105 129.459 12.7045 129.738 12.9176C130.016 13.1278 130.357 13.233 130.76 13.233C131.181 13.233 131.532 13.1222 131.813 12.9006C132.097 12.6761 132.31 12.375 132.452 11.9972C132.597 11.6165 132.669 11.1932 132.669 10.7273C132.669 10.267 132.598 9.85227 132.456 9.48295C132.317 9.1108 132.105 8.81676 131.821 8.60085C131.54 8.3821 131.186 8.27273 130.76 8.27273C130.351 8.27273 130.007 8.37642 129.729 8.58381C129.451 8.78835 129.24 9.07528 129.098 9.4446C128.956 9.81108 128.885 10.2386 128.885 10.7273ZM135.627 16.4545C135.456 16.4545 135.304 16.4403 135.171 16.4119C135.037 16.3864 134.945 16.3608 134.894 16.3352L135.15 15.4489C135.394 15.5114 135.61 15.5341 135.797 15.517C135.985 15.5 136.151 15.4162 136.296 15.2656C136.444 15.1179 136.578 14.8778 136.701 14.5455L136.888 14.0341L134.468 7.45455H135.559L137.365 12.6705H137.434L139.24 7.45455H140.331L137.553 14.9545C137.428 15.2926 137.273 15.5724 137.088 15.794C136.904 16.0185 136.689 16.1847 136.445 16.2926C136.203 16.4006 135.931 16.4545 135.627 16.4545Z" fill="#5F6180"/>
</svg>
