<svg width="45" height="55" viewBox="0 0 45 55" fill="none" xmlns="http://www.w3.org/2000/svg">
<path id="Vector" d="M5.57212 5.48077H0V0H44.5769V5.48077H39.0048V10.9615C39.0048 15.3884 36.7308 18.9489 33.8676 21.8591C31.9093 23.8496 29.5266 25.6829 27.1108 27.4038C29.5266 29.1248 31.9093 30.9581 33.8676 32.9485C36.7308 35.8588 39.0048 39.4193 39.0048 43.8462V49.3269H44.5769V54.8077H0V49.3269H5.57212V43.8462C5.57212 39.4193 7.84598 35.8588 10.7093 32.9485C12.6677 30.9581 15.0503 29.1248 17.4661 27.4038C15.0503 25.6829 12.6677 23.8496 10.7093 21.8591C7.84598 18.9489 5.57212 15.3884 5.57212 10.9615V5.48077ZM11.1442 5.48077V10.9615C11.1442 12.8391 11.8693 14.6199 13.2931 16.4423H31.2838C32.7075 14.6199 33.4327 12.8391 33.4327 10.9615V5.48077H11.1442ZM22.2885 30.7523C19.3765 32.7755 16.7386 34.7015 14.7135 36.7601C14.1813 37.301 13.7076 37.8348 13.2931 38.3654H31.2838C30.8692 37.8348 30.3956 37.301 29.8635 36.7601C27.8383 34.7015 25.2004 32.7755 22.2885 30.7523Z" fill="#E9B008"/>
</svg>
