<svg width="133" height="41" viewBox="0 0 133 41" fill="none" xmlns="http://www.w3.org/2000/svg">
<path fill-rule="evenodd" clip-rule="evenodd" d="M79.1076 21.2438C80.7912 18.3188 82.5806 15.21 82.5806 11.458C82.5806 4.07342 76.6219 0 70.6632 0C64.7113 0 58.7594 4.06832 58.7594 11.458C58.7594 15.2089 60.5486 18.3176 62.2321 21.2427L62.2321 21.2427C63.7278 23.8415 65.1401 26.2953 65.1401 28.9257H68.5278C68.5261 25.3883 66.8331 22.4157 65.1809 19.5453L65.1806 19.5448C63.629 16.8481 62.1624 14.2993 62.1624 11.458C62.1624 6.16968 66.4383 3.40302 70.6632 3.40302C74.8949 3.40302 79.1776 6.16968 79.1776 11.458C79.1776 14.2993 77.711 16.8481 76.1594 19.5448L76.1591 19.5453C74.5069 22.4157 72.8122 25.3883 72.8105 28.9257H76.1999C76.1999 26.2954 77.612 23.8421 79.1076 21.2438ZM74.9238 32.3287C75.3934 32.3287 75.7745 31.9476 75.7745 31.478C75.7745 31.0084 75.3934 30.6272 74.9238 30.6272H66.4162C65.9466 30.6272 65.5655 31.0084 65.5655 31.478C65.5655 31.9476 65.9466 32.3287 66.4162 32.3287H74.9238ZM74.9238 35.7318C75.3934 35.7318 75.7745 35.3506 75.7745 34.881C75.7745 34.4114 75.3934 34.0302 74.9238 34.0302H66.4162C65.9466 34.0302 65.5655 34.4114 65.5655 34.881C65.5655 35.3506 65.9466 35.7318 66.4162 35.7318H74.9238ZM71.599 40.8363C72.0891 40.8363 72.557 40.6236 72.8803 40.2561L75.3492 37.4333H65.9908L68.4597 40.2561C68.783 40.6236 69.2492 40.8363 69.7393 40.8363H71.599ZM68.9062 18.5V17.0409C68.9062 16.5195 69.0008 16.0604 69.1899 15.6635C69.379 15.2666 69.6154 14.9047 69.8991 14.5779C70.1907 14.2511 70.5019 13.9476 70.8329 13.6674C71.1717 13.3795 71.483 13.0877 71.7666 12.792C72.0582 12.4885 72.2985 12.1694 72.4876 11.8348C72.6768 11.5002 72.7713 11.1189 72.7713 10.6909C72.7713 10.364 72.724 10.0566 72.6295 9.7687C72.5428 9.48077 72.4049 9.22786 72.2158 9.00997C72.0346 8.79208 71.8021 8.62088 71.5184 8.49637C71.2426 8.37185 70.9117 8.3096 70.5256 8.3096C70.171 8.3096 69.8439 8.39909 69.5445 8.57807C69.2451 8.74928 68.985 8.99441 68.7644 9.31346C68.5438 9.62474 68.3665 9.99827 68.2325 10.4341C68.1317 10.762 68.0621 11.1165 68.0238 11.4973C68.0354 11.5602 68.0415 11.6247 68.0415 11.6904C68.0415 12.3454 67.4413 12.8763 66.7009 12.8763C66.034 12.8763 65.4809 12.4456 65.3776 11.8815H65.3603C65.3615 11.849 65.3629 11.8166 65.3644 11.7843C65.3617 11.7533 65.3603 11.722 65.3603 11.6904C65.3603 11.61 65.3693 11.5314 65.3866 11.4554C65.4461 10.7722 65.5871 10.1399 65.8094 9.55859C66.0774 8.85822 66.4398 8.25902 66.8969 7.76098C67.3539 7.25515 67.8897 6.86606 68.5044 6.59369C69.119 6.31355 69.7927 6.17347 70.5256 6.17347C71.4239 6.17347 72.1843 6.30187 72.8068 6.55867C73.4372 6.81548 73.9494 7.15788 74.3434 7.58588C74.7374 8.00611 75.021 8.48858 75.1944 9.03331C75.3756 9.57026 75.4662 10.1228 75.4662 10.6909C75.4662 11.1733 75.3796 11.613 75.2062 12.0099C75.0329 12.399 74.8161 12.7647 74.5561 13.1071C74.2961 13.4495 74.0124 13.7764 73.7051 14.0877C73.3978 14.3911 73.1141 14.7024 72.8541 15.0215C72.594 15.3328 72.3773 15.6596 72.204 16.002C72.0306 16.3444 71.9439 16.7179 71.9439 17.1226V18.5H68.9062ZM72.4749 21.9504C72.4749 23.0325 71.6208 23.9097 70.5671 23.9097C69.5135 23.9097 68.6594 23.0325 68.6594 21.9504C68.6594 20.8683 69.5135 19.9911 70.5671 19.9911C71.6208 19.9911 72.4749 20.8683 72.4749 21.9504ZM3.37662 25.0568C3.79457 25.1233 4.20301 25.1565 4.60196 25.1565C5.22888 25.1565 5.79406 25.0853 6.2975 24.9428C6.80093 24.7908 7.23313 24.5771 7.59408 24.3016C7.95503 24.0262 8.2305 23.6985 8.42047 23.3185C8.61045 22.9291 8.70544 22.4969 8.70544 22.0219C8.70544 21.3 8.47747 20.7206 8.02152 20.2836C7.56558 19.8372 6.87217 19.5142 5.94129 19.3148L4.33125 18.9728C3.83731 18.8683 3.49061 18.7306 3.29113 18.5596C3.09166 18.3886 2.99192 18.1654 2.99192 17.8899C2.99192 17.643 3.06316 17.4245 3.20564 17.2345C3.35762 17.0446 3.57135 16.8973 3.84681 16.7928C4.13177 16.6884 4.47373 16.6361 4.87268 16.6361C5.24313 16.6361 5.60408 16.6741 5.95554 16.7501C6.30699 16.8261 6.63945 16.9448 6.95291 17.1063C7.20938 17.2298 7.42785 17.2725 7.60833 17.2345C7.78881 17.1965 7.93604 17.111 8.05002 16.9781C8.17351 16.8451 8.24475 16.6931 8.26374 16.5221C8.29224 16.3416 8.26849 16.1659 8.1925 15.9949C8.12601 15.8145 7.99778 15.6672 7.8078 15.5532C7.41835 15.3063 6.96716 15.1211 6.45423 14.9976C5.94129 14.8646 5.41886 14.7981 4.88693 14.7981C4.2885 14.7981 3.73757 14.8741 3.23414 15.0261C2.7402 15.178 2.31276 15.3965 1.9518 15.6815C1.59085 15.9664 1.31063 16.3037 1.11116 16.6931C0.911686 17.0826 0.811948 17.5147 0.811948 17.9897C0.811948 18.7401 1.03042 19.348 1.46736 19.8135C1.91381 20.2694 2.59297 20.5924 3.50485 20.7823L5.1149 21.1243C5.63733 21.2383 6.00303 21.376 6.21201 21.5375C6.42098 21.699 6.52547 21.9174 6.52547 22.1929C6.52547 22.5159 6.37824 22.7866 6.08377 23.005C5.78931 23.214 5.29537 23.3185 4.60196 23.3185C4.14602 23.3185 3.68533 23.2663 3.21989 23.1618C2.76395 23.0573 2.34125 22.8958 1.9518 22.6773C1.72383 22.5634 1.51486 22.5301 1.32488 22.5776C1.14441 22.6156 0.992425 22.7106 0.868941 22.8626C0.754956 23.005 0.683715 23.1713 0.655218 23.3612C0.636221 23.5512 0.669467 23.7412 0.754956 23.9312C0.840445 24.1117 0.987676 24.2589 1.19665 24.3729C1.49111 24.5438 1.82357 24.6863 2.19402 24.8003C2.57397 24.9143 2.96817 24.9998 3.37662 25.0568ZM10.4241 24.8288C10.6141 25.0283 10.8896 25.128 11.2505 25.128C11.6115 25.128 11.8822 25.0283 12.0627 24.8288C12.2526 24.6293 12.3476 24.3491 12.3476 23.9882V21.3808H14.7271C15.8479 21.3808 16.7123 21.0958 17.3202 20.5259C17.9282 19.9559 18.2321 19.1675 18.2321 18.1607C18.2321 17.1538 17.9282 16.3701 17.3202 15.8097C16.7123 15.2398 15.8479 14.9548 14.7271 14.9548H11.2648C10.9038 14.9548 10.6236 15.0498 10.4241 15.2398C10.2341 15.4298 10.1392 15.71 10.1392 16.0804V23.9882C10.1392 24.3491 10.2341 24.6293 10.4241 24.8288ZM14.3566 19.671H12.3476V16.6789H14.3566C14.9265 16.6789 15.3587 16.8023 15.6532 17.0493C15.9572 17.2963 16.1091 17.6667 16.1091 18.1607C16.1091 18.6546 15.9572 19.0298 15.6532 19.2863C15.3587 19.5427 14.9265 19.671 14.3566 19.671ZM24.2183 25.1565C23.2304 25.1565 22.3612 24.9428 21.6108 24.5154C20.8699 24.0784 20.2905 23.4705 19.8726 22.6916C19.4641 21.9127 19.2599 21.0056 19.2599 19.9702C19.2599 19.1818 19.3739 18.4741 19.6018 17.8472C19.8393 17.2108 20.1765 16.6694 20.6135 16.2229C21.0504 15.767 21.5728 15.4155 22.1808 15.1685C22.7982 14.9216 23.4773 14.7981 24.2183 14.7981C25.2251 14.7981 26.099 15.0118 26.8399 15.4393C27.5808 15.8667 28.1555 16.4699 28.5639 17.2488C28.9819 18.0182 29.1909 18.9206 29.1909 19.9559C29.1909 20.7443 29.0721 21.4567 28.8347 22.0932C28.5972 22.7296 28.26 23.2758 27.823 23.7317C27.3861 24.1876 26.8637 24.5391 26.2557 24.7861C25.6478 25.033 24.9687 25.1565 24.2183 25.1565ZM24.2183 23.2758C24.7787 23.2758 25.2536 23.1475 25.6431 22.8911C26.042 22.6251 26.346 22.2451 26.555 21.7512C26.7734 21.2478 26.8827 20.6541 26.8827 19.9702C26.8827 18.9253 26.6499 18.1179 26.1845 17.548C25.7191 16.9686 25.0636 16.6789 24.2183 16.6789C23.6673 16.6789 23.1924 16.8071 22.7934 17.0636C22.3945 17.32 22.0905 17.6952 21.8815 18.1892C21.6726 18.6831 21.5681 19.2768 21.5681 19.9702C21.5681 21.0056 21.8008 21.8177 22.2663 22.4066C22.7317 22.986 23.3824 23.2758 24.2183 23.2758ZM31.1842 24.8288C31.3741 25.0283 31.6496 25.128 32.0106 25.128C32.3715 25.128 32.6422 25.0283 32.8227 24.8288C33.0127 24.6293 33.1077 24.3491 33.1077 23.9882V21.11H34.1905C34.485 21.11 34.732 21.1575 34.9314 21.2525C35.1404 21.3475 35.3161 21.528 35.4586 21.7939L36.8264 24.3159C36.9784 24.5913 37.1494 24.7956 37.3394 24.9285C37.5388 25.0615 37.7953 25.128 38.1088 25.128C38.4222 25.128 38.6597 25.0568 38.8212 24.9143C38.9827 24.7718 39.0681 24.5866 39.0776 24.3586C39.0871 24.1307 39.0254 23.8979 38.8924 23.6605L38.009 22.0219C37.7906 21.623 37.5294 21.3285 37.2254 21.1385C37.091 21.0475 36.9458 20.9773 36.7896 20.9278C37.0022 20.8712 37.1996 20.7989 37.3821 20.7111C37.9045 20.4641 38.3035 20.1127 38.579 19.6567C38.8544 19.2008 38.9922 18.6594 38.9922 18.0324C38.9922 17.0636 38.6882 16.3084 38.0803 15.767C37.4724 15.2255 36.608 14.9548 35.4871 14.9548H32.0248C31.6639 14.9548 31.3836 15.0498 31.1842 15.2398C30.9942 15.4298 30.8992 15.71 30.8992 16.0804V23.9882C30.8992 24.3491 30.9942 24.6293 31.1842 24.8288ZM35.0882 19.5142H33.1077V16.6789H35.0882C35.6771 16.6789 36.1188 16.7976 36.4132 17.0351C36.7172 17.2725 36.8692 17.624 36.8692 18.0894C36.8692 18.5644 36.7172 18.9206 36.4132 19.158C36.1188 19.3955 35.6771 19.5142 35.0882 19.5142ZM44.0468 25.128C43.6859 25.128 43.4104 25.0283 43.2204 24.8288C43.0304 24.6293 42.9355 24.3491 42.9355 23.9882V16.7786H40.4135C40.1191 16.7786 39.8911 16.6979 39.7296 16.5364C39.5681 16.3749 39.4874 16.1517 39.4874 15.8667C39.4874 15.5722 39.5681 15.349 39.7296 15.197C39.8911 15.0356 40.1191 14.9548 40.4135 14.9548H47.6658C47.9603 14.9548 48.1883 15.0356 48.3498 15.197C48.5112 15.349 48.592 15.5722 48.592 15.8667C48.592 16.1517 48.5112 16.3749 48.3498 16.5364C48.1883 16.6979 47.9603 16.7786 47.6658 16.7786H45.1439V23.9882C45.1439 24.3491 45.0489 24.6293 44.859 24.8288C44.6785 25.0283 44.4078 25.128 44.0468 25.128ZM51.5894 25.0568C52.0074 25.1233 52.4158 25.1565 52.8148 25.1565C53.4417 25.1565 54.0069 25.0853 54.5103 24.9428C55.0138 24.7908 55.4459 24.5771 55.8069 24.3016C56.1679 24.0262 56.4433 23.6985 56.6333 23.3185C56.8233 22.9291 56.9183 22.4969 56.9183 22.0219C56.9183 21.3 56.6903 20.7206 56.2343 20.2836C55.7784 19.8372 55.085 19.5142 54.1541 19.3148L52.5441 18.9728C52.0501 18.8683 51.7034 18.7306 51.5039 18.5596C51.3045 18.3886 51.2047 18.1654 51.2047 17.8899C51.2047 17.643 51.276 17.4245 51.4185 17.2345C51.5704 17.0446 51.7842 16.8973 52.0596 16.7928C52.3446 16.6884 52.6865 16.6361 53.0855 16.6361C53.4559 16.6361 53.8169 16.6741 54.1684 16.7501C54.5198 16.8261 54.8523 16.9448 55.1657 17.1063C55.4222 17.2298 55.6407 17.2725 55.8211 17.2345C56.0016 17.1965 56.1489 17.111 56.2628 16.9781C56.3863 16.8451 56.4576 16.6931 56.4766 16.5221C56.5051 16.3416 56.4813 16.1659 56.4053 15.9949C56.3388 15.8145 56.2106 15.6672 56.0206 15.5532C55.6312 15.3063 55.18 15.1211 54.667 14.9976C54.1541 14.8646 53.6317 14.7981 53.0997 14.7981C52.5013 14.7981 51.9504 14.8741 51.447 15.0261C50.953 15.178 50.5256 15.3965 50.1646 15.6815C49.8037 15.9664 49.5235 16.3037 49.324 16.6931C49.1245 17.0826 49.0248 17.5147 49.0248 17.9897C49.0248 18.7401 49.2432 19.348 49.6802 19.8135C50.1266 20.2694 50.8058 20.5924 51.7177 20.7823L53.3277 21.1243C53.8502 21.2383 54.2159 21.376 54.4248 21.5375C54.6338 21.699 54.7383 21.9174 54.7383 22.1929C54.7383 22.5159 54.5911 22.7866 54.2966 23.005C54.0021 23.214 53.5082 23.3185 52.8148 23.3185C52.3588 23.3185 51.8982 23.2663 51.4327 23.1618C50.9768 23.0573 50.5541 22.8958 50.1646 22.6773C49.9366 22.5634 49.7277 22.5301 49.5377 22.5776C49.3572 22.6156 49.2052 22.7106 49.0818 22.8626C48.9678 23.005 48.8965 23.1713 48.868 23.3612C48.849 23.5512 48.8823 23.7412 48.9678 23.9312C49.0533 24.1117 49.2005 24.2589 49.4095 24.3729C49.7039 24.5438 50.0364 24.6863 50.4068 24.8003C50.7868 24.9143 51.181 24.9998 51.5894 25.0568ZM88.7133 25.128C88.3524 25.128 88.0769 25.0283 87.8869 24.8288C87.697 24.6293 87.602 24.3491 87.602 23.9882V16.7786H85.08C84.7856 16.7786 84.5576 16.6979 84.3961 16.5364C84.2346 16.3749 84.1539 16.1517 84.1539 15.8667C84.1539 15.5722 84.2346 15.349 84.3961 15.197C84.5576 15.0356 84.7856 14.9548 85.08 14.9548H92.3324C92.6268 14.9548 92.8548 15.0356 93.0163 15.197C93.1777 15.349 93.2585 15.5722 93.2585 15.8667C93.2585 16.1517 93.1777 16.3749 93.0163 16.5364C92.8548 16.6979 92.6268 16.7786 92.3324 16.7786H89.8104V23.9882C89.8104 24.3491 89.7154 24.6293 89.5255 24.8288C89.345 25.0283 89.0743 25.128 88.7133 25.128ZM94.6052 24.8288C94.7952 25.0283 95.0707 25.128 95.4316 25.128C95.7926 25.128 96.0633 25.0283 96.2438 24.8288C96.4338 24.6293 96.5287 24.3491 96.5287 23.9882V21.11H97.6116C97.9061 21.11 98.153 21.1575 98.3525 21.2525C98.5615 21.3475 98.7372 21.528 98.8797 21.7939L100.248 24.3159C100.399 24.5913 100.57 24.7956 100.76 24.9285C100.96 25.0615 101.216 25.128 101.53 25.128C101.843 25.128 102.081 25.0568 102.242 24.9143C102.404 24.7718 102.489 24.5866 102.499 24.3586C102.508 24.1307 102.446 23.8979 102.313 23.6605L101.43 22.0219C101.212 21.623 100.95 21.3285 100.646 21.1385C100.512 21.0475 100.367 20.9773 100.211 20.9278C100.423 20.8712 100.621 20.7989 100.803 20.7111C101.326 20.4641 101.725 20.1127 102 19.6567C102.276 19.2008 102.413 18.6594 102.413 18.0324C102.413 17.0636 102.109 16.3084 101.501 15.767C100.893 15.2255 100.029 14.9548 98.9082 14.9548H95.4459C95.0849 14.9548 94.8047 15.0498 94.6052 15.2398C94.4153 15.4298 94.3203 15.71 94.3203 16.0804V23.9882C94.3203 24.3491 94.4153 24.6293 94.6052 24.8288ZM98.5092 19.5142H96.5287V16.6789H98.5092C99.0982 16.6789 99.5399 16.7976 99.8343 17.0351C100.138 17.2725 100.29 17.624 100.29 18.0894C100.29 18.5644 100.138 18.9206 99.8343 19.158C99.5399 19.3955 99.0982 19.5142 98.5092 19.5142ZM105.462 25.128C105.101 25.128 104.826 25.0283 104.636 24.8288C104.446 24.6293 104.351 24.3491 104.351 23.9882V15.9664C104.351 15.6055 104.446 15.3253 104.636 15.1258C104.826 14.9263 105.101 14.8266 105.462 14.8266C105.813 14.8266 106.084 14.9263 106.274 15.1258C106.464 15.3253 106.559 15.6055 106.559 15.9664V23.9882C106.559 24.3491 106.464 24.6293 106.274 24.8288C106.094 25.0283 105.823 25.128 105.462 25.128ZM112.11 24.9285C112.309 25.0615 112.561 25.128 112.865 25.128C113.178 25.128 113.425 25.0615 113.606 24.9285C113.796 24.7861 113.957 24.5723 114.09 24.2874L117.681 16.3084C117.804 16.0234 117.842 15.7717 117.795 15.5532C117.757 15.3253 117.652 15.1496 117.481 15.0261C117.32 14.8931 117.111 14.8266 116.854 14.8266C116.55 14.8266 116.313 14.8978 116.142 15.0403C115.971 15.1828 115.824 15.3965 115.7 15.6815L112.907 22.1521L110.115 15.6957C110.001 15.4108 109.858 15.197 109.687 15.0546C109.516 14.9026 109.269 14.8266 108.946 14.8266C108.69 14.8266 108.472 14.8931 108.291 15.0261C108.111 15.1496 107.992 15.3253 107.935 15.5532C107.878 15.7717 107.916 16.0234 108.049 16.3084L111.639 24.2874C111.763 24.5723 111.92 24.7861 112.11 24.9285ZM120.263 25.128C119.902 25.128 119.627 25.0283 119.437 24.8288C119.247 24.6293 119.152 24.3491 119.152 23.9882V15.9664C119.152 15.6055 119.247 15.3253 119.437 15.1258C119.627 14.9263 119.902 14.8266 120.263 14.8266C120.615 14.8266 120.885 14.9263 121.075 15.1258C121.265 15.3253 121.36 15.6055 121.36 15.9664V23.9882C121.36 24.3491 121.265 24.6293 121.075 24.8288C120.895 25.0283 120.624 25.128 120.263 25.128ZM123.121 24.9428C123.292 25.0663 123.51 25.128 123.776 25.128C124.08 25.128 124.308 25.0568 124.46 24.9143C124.621 24.7623 124.773 24.5201 124.916 24.1876L125.497 22.8198H130.196L130.786 24.1876C130.919 24.5106 131.071 24.7481 131.242 24.9001C131.423 25.052 131.674 25.128 131.997 25.128C132.254 25.128 132.463 25.071 132.624 24.957C132.786 24.8336 132.881 24.6673 132.909 24.4584C132.947 24.2399 132.904 24.0024 132.781 23.746L129.105 15.7527C128.962 15.4298 128.787 15.197 128.578 15.0546C128.369 14.9026 128.127 14.8266 127.851 14.8266C127.576 14.8266 127.333 14.9026 127.124 15.0546C126.915 15.197 126.735 15.4298 126.583 15.7527L122.935 23.746C122.812 24.0024 122.769 24.2351 122.807 24.4441C122.855 24.6531 122.959 24.8193 123.121 24.9428ZM126.232 21.0958L127.823 17.3058H127.851L129.454 21.0958H126.232Z" fill="#50CE99"/>
</svg>
