<svg width="57" height="28" viewBox="0 0 57 28" fill="none" xmlns="http://www.w3.org/2000/svg">
<path fill-rule="evenodd" clip-rule="evenodd" d="M38.8769 4.71078C38.8769 4.56677 38.8529 4.43836 38.8049 4.32554C38.7569 4.21273 38.6777 4.11192 38.5672 4.02311C38.4592 3.9319 38.3128 3.84789 38.128 3.77108C37.9456 3.69187 37.7175 3.61387 37.4439 3.53706C37.1823 3.46265 36.9459 3.38104 36.7346 3.29223C36.5234 3.20342 36.3422 3.10141 36.191 2.9862C36.0422 2.87098 35.9282 2.73657 35.8489 2.58295C35.7697 2.42694 35.7301 2.24572 35.7301 2.03929C35.7301 1.83767 35.7733 1.65405 35.8597 1.48843C35.9462 1.32282 36.0674 1.18 36.2234 1.05999C36.3818 0.939974 36.5678 0.847565 36.7814 0.782758C36.9975 0.71795 37.2339 0.685547 37.4907 0.685547C37.858 0.685547 38.1748 0.755154 38.4412 0.89437C38.7101 1.03358 38.9177 1.22201 39.0641 1.45963C39.2129 1.69486 39.2873 1.95889 39.2873 2.25172H38.8445C38.8445 2.02369 38.7905 1.82087 38.6824 1.64325C38.5768 1.46323 38.4232 1.32282 38.2216 1.22201C38.0224 1.11879 37.7788 1.06719 37.4907 1.06719C37.2027 1.06719 36.9603 1.11159 36.7634 1.2004C36.569 1.28681 36.4214 1.40322 36.3206 1.54964C36.2222 1.69366 36.173 1.85447 36.173 2.03209C36.173 2.15691 36.197 2.27212 36.245 2.37773C36.293 2.48094 36.371 2.57815 36.479 2.66936C36.5894 2.75817 36.7346 2.84218 36.9147 2.92139C37.0947 2.9982 37.3167 3.07141 37.5807 3.14101C37.8592 3.21782 38.1064 3.30303 38.3224 3.39664C38.5384 3.49025 38.7209 3.59826 38.8697 3.72068C39.0185 3.84069 39.1313 3.98111 39.2081 4.14192C39.2849 4.30274 39.3233 4.48996 39.3233 4.70358C39.3233 4.91721 39.2777 5.10923 39.1865 5.27965C39.0977 5.44766 38.9717 5.59048 38.8085 5.70809C38.6476 5.82571 38.4568 5.91572 38.236 5.97812C38.0176 6.04053 37.7788 6.07173 37.5195 6.07173C37.2867 6.07173 37.0551 6.04173 36.8246 5.98172C36.5942 5.92172 36.383 5.82931 36.191 5.70449C36.0014 5.57728 35.8489 5.41406 35.7337 5.21484C35.6209 5.01562 35.5645 4.77799 35.5645 4.50196H36.0038C36.0038 4.72279 36.0482 4.90881 36.137 5.06002C36.2258 5.21124 36.3434 5.33365 36.4898 5.42726C36.6386 5.52087 36.8018 5.58928 36.9795 5.63248C37.1595 5.67329 37.3395 5.69369 37.5195 5.69369C37.7956 5.69369 38.0344 5.65289 38.236 5.57128C38.44 5.48967 38.5972 5.37566 38.7077 5.22924C38.8205 5.08042 38.8769 4.90761 38.8769 4.71078ZM11.2007 3.47945H11.6435H12.5616C12.8352 3.47945 13.0609 3.52626 13.2385 3.61987C13.4161 3.71108 13.5481 3.83589 13.6345 3.99431C13.7209 4.15272 13.7641 4.33154 13.7641 4.53077C13.7641 4.75639 13.7149 4.95081 13.6165 5.11403C13.5181 5.27725 13.3765 5.40326 13.1917 5.49207C13.0093 5.57848 12.7884 5.62168 12.5292 5.62168H11.2007V3.47945ZM11.2007 3.10501V1.1392H12.3024C12.5856 1.1392 12.8208 1.174 13.0081 1.24361C13.1953 1.31322 13.3357 1.42123 13.4293 1.56764C13.5229 1.71166 13.5697 1.89408 13.5697 2.1149C13.5697 2.33093 13.5217 2.51335 13.4257 2.66216C13.3321 2.80858 13.1941 2.91899 13.0117 2.9934C12.8292 3.06781 12.6084 3.10501 12.3492 3.10501H11.6507H11.2007ZM13.1943 3.26411C13.2925 3.23116 13.3829 3.18893 13.4653 3.13741C13.6405 3.027 13.7761 2.88539 13.8722 2.71257C13.9682 2.53735 14.0162 2.34173 14.0162 2.1257C14.0162 1.88808 13.9766 1.68406 13.8974 1.51364C13.8205 1.34082 13.7077 1.198 13.5589 1.08519C13.4101 0.972378 13.2301 0.889569 13.0189 0.836763C12.8076 0.783958 12.5688 0.757555 12.3024 0.757555H10.7578V5.99972H10.945H11.2007H12.5292C12.8628 5.99972 13.1545 5.94332 13.4041 5.83051C13.6561 5.71529 13.8517 5.54848 13.991 5.33005C14.1326 5.10923 14.2034 4.8404 14.2034 4.52356C14.2034 4.30274 14.1542 4.09992 14.0558 3.9151C13.9598 3.73028 13.8229 3.57786 13.6453 3.45785C13.5123 3.3649 13.3619 3.30032 13.1943 3.26411ZM18.8875 0.757555H18.4446V4.30754C18.4446 4.61237 18.3846 4.868 18.2646 5.07442C18.1446 5.28085 17.979 5.43566 17.7678 5.53887C17.5566 5.64209 17.3153 5.69369 17.0441 5.69369C16.7705 5.69369 16.528 5.64209 16.3168 5.53887C16.1056 5.43566 15.94 5.28085 15.82 5.07442C15.7 4.868 15.6399 4.61237 15.6399 4.30754V0.757555H15.2007V4.30754C15.2007 4.70118 15.2811 5.02882 15.4419 5.29045C15.6051 5.55208 15.826 5.7477 16.1044 5.87731C16.3828 6.00693 16.6961 6.07173 17.0441 6.07173C17.3825 6.07173 17.691 6.00693 17.9694 5.87731C18.2502 5.7477 18.4735 5.55208 18.6391 5.29045C18.8047 5.02882 18.8875 4.70118 18.8875 4.30754V0.757555ZM20.6733 0.757555V5.99972H20.2304V0.757555H20.6733ZM25.1306 5.99972V5.62168H22.5419V0.757555H22.099V5.99972H22.4123H22.5419H25.1306ZM26.7508 1.1392V5.99972H26.3115V1.1392H24.5185V0.757555H26.3115H26.7508H28.5473V1.1392H26.7508ZM34.6644 0.757555H34.2216V4.30754C34.2216 4.61237 34.1616 4.868 34.0415 5.07442C33.9215 5.28085 33.7559 5.43566 33.5447 5.53887C33.3335 5.64209 33.0922 5.69369 32.821 5.69369C32.5474 5.69369 32.305 5.64209 32.0937 5.53887C31.8825 5.43566 31.7169 5.28085 31.5969 5.07442C31.4769 4.868 31.4169 4.61237 31.4169 4.30754V0.757555H30.9776V4.30754C30.9776 4.70118 31.058 5.02882 31.2188 5.29045C31.3821 5.55208 31.6029 5.7477 31.8813 5.87731C32.1597 6.00693 32.473 6.07173 32.821 6.07173C33.1594 6.07173 33.4679 6.00693 33.7463 5.87731C34.0271 5.7477 34.2504 5.55208 34.416 5.29045C34.5816 5.02882 34.6644 4.70118 34.6644 4.30754V0.757555ZM40.8211 5.99972V0.757555H40.3782V5.99972H40.8211ZM46.1497 0.757555V5.99972H45.7032L42.6897 1.52084V5.99972H42.2468V0.757555H42.6897L45.7104 5.23644V0.757555H46.1497ZM51.2694 5.37326V3.50825H49.4224V3.88629H50.8302V5.23644C50.7798 5.29885 50.697 5.36606 50.5817 5.43806C50.4689 5.50767 50.3189 5.56768 50.1317 5.61808C49.9445 5.66849 49.7176 5.69369 49.4512 5.69369C49.2016 5.69369 48.9748 5.64689 48.7707 5.55328C48.5667 5.45727 48.3915 5.32045 48.2451 5.14283C48.0987 4.96521 47.9859 4.75279 47.9067 4.50556C47.8298 4.25834 47.7914 3.98111 47.7914 3.67387V3.033C47.7914 2.73777 47.8262 2.47014 47.8959 2.23011C47.9655 1.98769 48.0675 1.78007 48.2019 1.60725C48.3363 1.43443 48.5019 1.30121 48.6987 1.2076C48.898 1.11399 49.1248 1.06719 49.3792 1.06719C49.696 1.06719 49.9541 1.12119 50.1533 1.22921C50.3549 1.33722 50.5085 1.48003 50.6141 1.65765C50.7198 1.83287 50.7894 2.02489 50.823 2.23372H51.2658C51.2298 1.93848 51.1362 1.67445 50.985 1.44163C50.8362 1.2064 50.6285 1.02158 50.3621 0.887169C50.0957 0.752754 49.7681 0.685547 49.3792 0.685547C49.0672 0.685547 48.7851 0.740753 48.5331 0.851165C48.2835 0.959177 48.0699 1.11639 47.8923 1.32282C47.7146 1.52924 47.579 1.77767 47.4854 2.0681C47.3918 2.35613 47.345 2.68016 47.345 3.0402V3.67387C47.345 4.04111 47.3954 4.37235 47.4962 4.66758C47.5994 4.96281 47.7446 5.21604 47.9319 5.42726C48.1215 5.63609 48.3447 5.7957 48.6015 5.90611C48.8584 6.01653 49.1404 6.07173 49.4476 6.07173C49.8149 6.07173 50.1221 6.03213 50.3693 5.95292C50.6165 5.87131 50.8134 5.7765 50.9598 5.66849C51.1062 5.56048 51.2094 5.46207 51.2694 5.37326ZM14.8875 24.8647H13.5481V26.9997H13.1053V21.7576H14.8875C15.2715 21.7576 15.5943 21.8236 15.856 21.9556C16.12 22.0876 16.3192 22.2712 16.4536 22.5064C16.588 22.7417 16.6553 23.0129 16.6553 23.3201C16.6553 23.6418 16.588 23.919 16.4536 24.1518C16.3192 24.3822 16.1212 24.5587 15.8596 24.6811C15.5979 24.8035 15.2739 24.8647 14.8875 24.8647ZM13.5481 22.1392V24.4867H14.8875C15.1995 24.4867 15.4527 24.4362 15.6471 24.3354C15.844 24.2322 15.9868 24.093 16.0756 23.9178C16.1668 23.7426 16.2124 23.5457 16.2124 23.3273C16.2124 23.1137 16.1668 22.9169 16.0756 22.7369C15.9868 22.5568 15.844 22.4128 15.6471 22.3048C15.4527 22.1944 15.1995 22.1392 14.8875 22.1392H13.5481ZM19.3411 21.7576H17.6382V26.9997H18.081V24.8143H19.6093L20.8749 26.9997H21.3466V26.9529L20.0344 24.723C20.2194 24.6692 20.3855 24.588 20.5329 24.4795C20.7153 24.3426 20.8581 24.1734 20.9613 23.9718C21.0669 23.7702 21.1197 23.5457 21.1197 23.2985C21.1197 22.9649 21.0465 22.6841 20.9001 22.456C20.7561 22.2256 20.5509 22.0516 20.2844 21.934C20.018 21.8164 19.7036 21.7576 19.3411 21.7576ZM18.081 24.4362H19.442C19.7156 24.4362 19.9436 24.3834 20.126 24.2778C20.3085 24.1722 20.4453 24.033 20.5365 23.8602C20.6301 23.685 20.6769 23.4977 20.6769 23.2985C20.6769 23.0609 20.6253 22.8557 20.5221 22.6829C20.4213 22.5076 20.2712 22.3732 20.072 22.2796C19.8728 22.186 19.6292 22.1392 19.3411 22.1392H18.081V24.4362ZM26.2071 24.0978V24.6595C26.2071 25.0267 26.1591 25.3591 26.0631 25.6568C25.9695 25.952 25.8326 26.2052 25.6526 26.4165C25.475 26.6277 25.2614 26.7897 25.0118 26.9025C24.7621 27.0153 24.4813 27.0717 24.1693 27.0717C23.8644 27.0717 23.586 27.0153 23.334 26.9025C23.0844 26.7897 22.8695 26.6277 22.6895 26.4165C22.5095 26.2052 22.3703 25.952 22.2719 25.6568C22.1735 25.3591 22.1242 25.0267 22.1242 24.6595V24.0978C22.1242 23.7306 22.1723 23.3993 22.2683 23.1041C22.3667 22.8065 22.5059 22.552 22.6859 22.3408C22.8659 22.1296 23.0807 21.9676 23.3304 21.8548C23.58 21.742 23.8572 21.6855 24.1621 21.6855C24.4741 21.6855 24.7549 21.742 25.0046 21.8548C25.2542 21.9676 25.469 22.1296 25.649 22.3408C25.8291 22.552 25.9671 22.8065 26.0631 23.1041C26.1591 23.3993 26.2071 23.7306 26.2071 24.0978ZM25.7678 24.6595V24.0906C25.7678 23.781 25.7318 23.5025 25.6598 23.2553C25.5902 23.0081 25.4858 22.7969 25.3466 22.6216C25.2098 22.4464 25.0418 22.312 24.8425 22.2184C24.6433 22.1248 24.4165 22.078 24.1621 22.078C23.9148 22.078 23.6928 22.1248 23.496 22.2184C23.2992 22.312 23.1312 22.4464 22.9919 22.6216C22.8551 22.7969 22.7495 23.0081 22.6751 23.2553C22.6031 23.5025 22.5671 23.781 22.5671 24.0906V24.6595C22.5671 24.9715 22.6031 25.2523 22.6751 25.502C22.7495 25.7492 22.8563 25.9616 22.9955 26.1392C23.1348 26.3145 23.3028 26.4489 23.4996 26.5425C23.6988 26.6361 23.922 26.6829 24.1693 26.6829C24.4261 26.6829 24.6529 26.6361 24.8497 26.5425C25.0466 26.4489 25.2134 26.3145 25.3502 26.1392C25.487 25.9616 25.5902 25.7492 25.6598 25.502C25.7318 25.2523 25.7678 24.9715 25.7678 24.6595ZM28.983 26.9997V22.1392H30.7796V21.7576H28.983H28.5437H26.7507V22.1392H28.5437V26.9997H28.983ZM35.4025 24.0978V24.6595C35.4025 25.0267 35.3545 25.3591 35.2585 25.6568C35.1649 25.952 35.028 26.2052 34.848 26.4165C34.6704 26.6277 34.4568 26.7897 34.2072 26.9025C33.9575 27.0153 33.6767 27.0717 33.3647 27.0717C33.0598 27.0717 32.7814 27.0153 32.5294 26.9025C32.2798 26.7897 32.0649 26.6277 31.8849 26.4165C31.7049 26.2052 31.5657 25.952 31.4673 25.6568C31.3689 25.3591 31.3196 25.0267 31.3196 24.6595V24.0978C31.3196 23.7306 31.3677 23.3993 31.4637 23.1041C31.5621 22.8065 31.7013 22.552 31.8813 22.3408C32.0613 22.1296 32.2761 21.9676 32.5258 21.8548C32.7754 21.742 33.0526 21.6855 33.3575 21.6855C33.6695 21.6855 33.9503 21.742 34.2 21.8548C34.4496 21.9676 34.6644 22.1296 34.8444 22.3408C35.0245 22.552 35.1625 22.8065 35.2585 23.1041C35.3545 23.3993 35.4025 23.7306 35.4025 24.0978ZM34.9632 24.6595V24.0906C34.9632 23.781 34.9272 23.5025 34.8552 23.2553C34.7856 23.0081 34.6812 22.7969 34.542 22.6216C34.4052 22.4464 34.2372 22.312 34.0379 22.2184C33.8387 22.1248 33.6119 22.078 33.3575 22.078C33.1102 22.078 32.8882 22.1248 32.6914 22.2184C32.4946 22.312 32.3266 22.4464 32.1873 22.6216C32.0505 22.7969 31.9449 23.0081 31.8705 23.2553C31.7985 23.5025 31.7625 23.781 31.7625 24.0906V24.6595C31.7625 24.9715 31.7985 25.2523 31.8705 25.502C31.9449 25.7492 32.0517 25.9616 32.1909 26.1392C32.3302 26.3145 32.4982 26.4489 32.695 26.5425C32.8942 26.6361 33.1174 26.6829 33.3647 26.6829C33.6215 26.6829 33.8483 26.6361 34.0451 26.5425C34.242 26.4489 34.4088 26.3145 34.5456 26.1392C34.6824 25.9616 34.7856 25.7492 34.8552 25.502C34.9272 25.2523 34.9632 24.9715 34.9632 24.6595ZM40.2306 25.3651H39.7878C39.7518 25.658 39.6762 25.9028 39.5609 26.0996C39.4457 26.2964 39.2837 26.4453 39.0749 26.5461C38.8685 26.6445 38.6104 26.6937 38.3008 26.6937C38.0584 26.6937 37.8424 26.6445 37.6527 26.5461C37.4631 26.4477 37.3023 26.3097 37.1703 26.132C37.0407 25.9544 36.9423 25.7444 36.8751 25.502C36.8078 25.2595 36.7742 24.9943 36.7742 24.7063V24.0438C36.7742 23.7462 36.809 23.4761 36.8787 23.2337C36.9507 22.9913 37.0539 22.7837 37.1883 22.6108C37.3227 22.4356 37.4859 22.3012 37.6779 22.2076C37.87 22.114 38.0884 22.0672 38.3332 22.0672C38.6332 22.0672 38.8841 22.12 39.0857 22.2256C39.2897 22.3288 39.4493 22.4788 39.5645 22.6757C39.6798 22.8725 39.7542 23.1125 39.7878 23.3957H40.2306C40.1946 23.0357 40.0974 22.7285 39.939 22.474C39.783 22.2196 39.5693 22.0252 39.2981 21.8908C39.0269 21.754 38.7052 21.6855 38.3332 21.6855C38.026 21.6855 37.7499 21.742 37.5051 21.8548C37.2603 21.9676 37.0503 22.1284 36.8751 22.3372C36.6998 22.546 36.5654 22.7957 36.4718 23.0861C36.3782 23.3741 36.3314 23.6958 36.3314 24.051V24.7063C36.3314 25.0615 36.3782 25.3843 36.4718 25.6748C36.5654 25.9652 36.6986 26.2148 36.8715 26.4237C37.0443 26.6301 37.2507 26.7897 37.4907 26.9025C37.7331 27.0153 38.0032 27.0717 38.3008 27.0717C38.6872 27.0717 39.0173 27.0033 39.2909 26.8665C39.5645 26.7297 39.7806 26.5341 39.939 26.2796C40.0974 26.0228 40.1946 25.718 40.2306 25.3651ZM45.1812 24.0978V24.6595C45.1812 25.0267 45.1332 25.3591 45.0371 25.6568C44.9435 25.952 44.8067 26.2052 44.6267 26.4165C44.4491 26.6277 44.2355 26.7897 43.9858 26.9025C43.7362 27.0153 43.4554 27.0717 43.1433 27.0717C42.8385 27.0717 42.5601 27.0153 42.308 26.9025C42.0584 26.7897 41.8436 26.6277 41.6636 26.4165C41.4836 26.2052 41.3443 25.952 41.2459 25.6568C41.1475 25.3591 41.0983 25.0267 41.0983 24.6595V24.0978C41.0983 23.7306 41.1463 23.3993 41.2423 23.1041C41.3407 22.8065 41.4799 22.552 41.66 22.3408C41.84 22.1296 42.0548 21.9676 42.3044 21.8548C42.5541 21.742 42.8313 21.6855 43.1361 21.6855C43.4482 21.6855 43.729 21.742 43.9786 21.8548C44.2283 21.9676 44.4431 22.1296 44.6231 22.3408C44.8031 22.552 44.9411 22.8065 45.0371 23.1041C45.1332 23.3993 45.1812 23.7306 45.1812 24.0978ZM44.7419 24.6595V24.0906C44.7419 23.781 44.7059 23.5025 44.6339 23.2553C44.5643 23.0081 44.4599 22.7969 44.3207 22.6216C44.1838 22.4464 44.0158 22.312 43.8166 22.2184C43.6174 22.1248 43.3906 22.078 43.1361 22.078C42.8889 22.078 42.6669 22.1248 42.4701 22.2184C42.2732 22.312 42.1052 22.4464 41.966 22.6216C41.8292 22.7969 41.7236 23.0081 41.6492 23.2553C41.5772 23.5025 41.5412 23.781 41.5412 24.0906V24.6595C41.5412 24.9715 41.5772 25.2523 41.6492 25.502C41.7236 25.7492 41.8304 25.9616 41.9696 26.1392C42.1088 26.3145 42.2768 26.4489 42.4737 26.5425C42.6729 26.6361 42.8961 26.6829 43.1433 26.6829C43.4002 26.6829 43.627 26.6361 43.8238 26.5425C44.0206 26.4489 44.1875 26.3145 44.3243 26.1392C44.4611 25.9616 44.5643 25.7492 44.6339 25.502C44.7059 25.2523 44.7419 24.9715 44.7419 24.6595ZM49.3324 26.9997V26.6217H46.7437V21.7576H46.3009V26.9997H46.6141H46.7437H49.3324ZM5.10612 9.05665C6.28566 9.05659 7.42869 9.46579 8.34024 10.2145C9.2475 10.9571 9.86791 11.9924 10.0949 13.1427C10.3219 14.2931 10.1414 15.4865 9.58428 16.5182C9.07517 17.4636 8.27481 18.2196 7.30202 18.6739C7.29099 18.7236 7.27997 18.775 7.27078 18.8302C7.22902 19.0823 7.20629 19.3373 7.20279 19.5929C7.1936 19.8557 7.20463 20.1221 7.21933 20.3905C7.2393 20.6724 7.32691 20.9454 7.47475 21.1862C7.57696 21.3527 7.63382 21.5431 7.63967 21.7384C7.64552 21.9336 7.60016 22.127 7.50809 22.2994C7.41603 22.4717 7.28047 22.6169 7.1149 22.7205C6.94932 22.8242 6.7595 22.8827 6.5643 22.8903C6.36911 22.8978 6.17534 22.8541 6.00226 22.7635C5.82918 22.673 5.68282 22.5387 5.57773 22.374C5.47265 22.2093 5.4125 22.0199 5.40326 21.8248C5.39403 21.6296 5.43603 21.4355 5.52509 21.2616C5.6536 20.9971 5.72439 20.7083 5.73274 20.4144C5.7341 20.3096 5.73624 20.2046 5.73838 20.0994C5.74198 19.9221 5.7456 19.744 5.7456 19.5653L5.75846 18.6868C5.76397 18.5324 5.77132 18.3781 5.78786 18.1943C5.80134 18.0879 5.82097 17.9823 5.84666 17.8782C5.85668 17.8407 5.86895 17.8039 5.88342 17.7679L5.91649 17.7017L5.92935 17.6705L5.95508 17.6227C5.99606 17.5426 6.04939 17.4694 6.11311 17.4058C6.13567 17.3824 6.1596 17.3603 6.18478 17.3397L6.24358 17.2937C6.2693 17.2772 6.29503 17.2607 6.32259 17.246L6.40528 17.2055H6.41815C7.10015 16.8883 7.65644 16.352 7.99846 15.682C8.33498 15.0163 8.43168 14.2549 8.27225 13.5262C8.16964 13.0866 7.97525 12.6737 7.70184 12.3146C7.42842 11.9555 7.08216 11.6582 6.68578 11.4424C6.2894 11.2265 5.85186 11.0969 5.40187 11.0621C4.95189 11.0273 4.49963 11.0881 4.07478 11.2404C3.64993 11.3927 3.26208 11.6332 2.9367 11.946C2.61133 12.2588 2.35576 12.6369 2.18679 13.0555C2.01782 13.4741 1.93926 13.9236 1.95627 14.3747C1.97327 14.8258 2.08545 15.2681 2.28546 15.6728C2.62814 16.3282 3.18439 16.8469 3.86209 17.143H3.89149C4.03073 17.2056 4.15237 17.3016 4.24565 17.4225C4.33893 17.5433 4.40095 17.6853 4.42622 17.8359C4.46924 18.0596 4.49383 18.2864 4.49973 18.5141C4.50874 18.7511 4.48712 18.9883 4.43541 19.2198C4.41256 19.3153 4.37106 19.4054 4.31329 19.4849C4.25553 19.5644 4.18264 19.6317 4.09881 19.6829C4.01497 19.7341 3.92185 19.7683 3.82478 19.7834C3.72772 19.7986 3.62861 19.7944 3.53317 19.7711C3.35864 19.7302 3.20506 19.627 3.10134 19.4807C2.96484 19.2867 2.85484 19.0753 2.77425 18.8522C2.7522 18.786 2.73382 18.7272 2.71545 18.6684C1.97206 18.2753 1.33744 17.7043 0.868102 17.0065C0.398762 16.3086 0.109273 15.5055 0.0254173 14.6686C-0.0584384 13.8318 0.0659427 12.9872 0.387483 12.21C0.709023 11.4329 1.21774 10.7474 1.86833 10.2145C2.78017 9.46378 3.92509 9.05436 5.10612 9.05665ZM5.11949 14.1736L6.41681 15.4711L6.52155 15.5759C6.1468 15.935 5.64632 16.1329 5.12737 16.1274C4.60843 16.1218 4.1123 15.9131 3.74533 15.5461C3.37836 15.1791 3.16974 14.6829 3.16418 14.1639C3.15862 13.6449 3.35656 13.1443 3.71558 12.7695L3.82033 12.8743L5.11949 14.1736ZM40.5831 17.2945H36.9116V11.0165C36.9116 10.7971 36.8245 10.5868 36.6694 10.4317C36.5144 10.2766 36.304 10.1895 36.0847 10.1895C35.8654 10.1895 35.6551 10.2766 35.5 10.4317C35.3449 10.5868 35.2578 10.7971 35.2578 11.0165V18.1215C35.2583 18.3407 35.3456 18.5507 35.5005 18.7057C35.6555 18.8607 35.8656 18.948 36.0847 18.9485H40.5831C40.8024 18.9485 41.0127 18.8614 41.1678 18.7063C41.3229 18.5512 41.41 18.3408 41.41 18.1215C41.41 17.9021 41.3229 17.6918 41.1678 17.5367C41.0127 17.3816 40.8024 17.2945 40.5831 17.2945ZM43.1863 10.1895H47.7967H47.8059C48.0252 10.1895 48.2356 10.2766 48.3906 10.4317C48.5457 10.5868 48.6328 10.7971 48.6328 11.0165C48.6328 11.2358 48.5457 11.4462 48.3906 11.6013C48.2356 11.7564 48.0252 11.8435 47.8059 11.8435H43.1863C42.967 11.8435 42.7566 11.7564 42.6016 11.6013C42.4465 11.4462 42.3594 11.2358 42.3594 11.0165C42.3594 10.7971 42.4465 10.5868 42.6016 10.4317C42.7566 10.2766 42.967 10.1895 43.1863 10.1895ZM46.7162 15.3943C46.9355 15.3943 47.1458 15.3071 47.3009 15.152C47.456 14.9969 47.5431 14.7866 47.5431 14.5673C47.5431 14.3479 47.456 14.1376 47.3009 13.9825C47.1458 13.8274 46.9355 13.7402 46.7162 13.7402H44.2722C44.0529 13.7402 43.8426 13.8274 43.6875 13.9825C43.5324 14.1376 43.4453 14.3479 43.4453 14.5673C43.4453 14.7866 43.5324 14.9969 43.6875 15.152C43.8426 15.3071 44.0529 15.3943 44.2722 15.3943H46.7162ZM43.1863 17.2949H47.7967H47.8059C48.0252 17.2949 48.2356 17.3821 48.3906 17.5371C48.5457 17.6922 48.6328 17.9026 48.6328 18.1219C48.6328 18.3413 48.5457 18.5516 48.3906 18.7067C48.2356 18.8618 48.0252 18.949 47.8059 18.949H43.1863C42.967 18.949 42.7566 18.8618 42.6016 18.7067C42.4465 18.5516 42.3594 18.3413 42.3594 18.1219C42.3594 17.9026 42.4465 17.6922 42.6016 17.5371C42.7566 17.3821 42.967 17.2949 43.1863 17.2949ZM24.951 10.1895C24.7317 10.1895 24.5214 10.2766 24.3663 10.4317C24.2112 10.5868 24.1241 10.7971 24.1241 11.0165V13.7181H20.5941V11.0165C20.5944 10.9078 20.5731 10.8001 20.5317 10.6997C20.4902 10.5993 20.4293 10.508 20.3525 10.4311C20.2756 10.3543 20.1844 10.2934 20.0839 10.2519C19.9835 10.2104 19.8759 10.1892 19.7672 10.1895H12.2957C12.0763 10.1895 11.866 10.2766 11.7109 10.4317C11.5559 10.5868 11.4687 10.7971 11.4687 11.0165C11.4687 11.2358 11.5559 11.4462 11.7109 11.6013C11.866 11.7564 12.0763 11.8435 12.2957 11.8435H14.6257V18.1215C14.6257 18.2301 14.6471 18.3376 14.6886 18.438C14.7302 18.5383 14.7911 18.6295 14.8679 18.7063C14.9447 18.7831 15.0358 18.844 15.1362 18.8855C15.2365 18.9271 15.344 18.9485 15.4526 18.9485C15.5612 18.9485 15.6687 18.9271 15.769 18.8855C15.8694 18.844 15.9605 18.7831 16.0373 18.7063C16.1141 18.6295 16.175 18.5383 16.2166 18.438C16.2581 18.3376 16.2795 18.2301 16.2795 18.1215V11.8435H18.9403V18.1215C18.9403 18.3408 19.0274 18.5512 19.1825 18.7063C19.3376 18.8614 19.5479 18.9485 19.7672 18.9485C19.9865 18.9485 20.1968 18.8614 20.3519 18.7063C20.507 18.5512 20.5941 18.3408 20.5941 18.1215V15.3647H24.1241V18.1215C24.1241 18.3408 24.2112 18.5512 24.3663 18.7063C24.5214 18.8614 24.7317 18.9485 24.951 18.9485C25.1703 18.9485 25.3806 18.8614 25.5357 18.7063C25.6908 18.5512 25.7779 18.3408 25.7779 18.1215V11.0165C25.7781 10.9078 25.7569 10.8001 25.7154 10.6997C25.674 10.5993 25.6131 10.508 25.5362 10.4311C25.4594 10.3543 25.3682 10.2934 25.2677 10.2519C25.1673 10.2104 25.0596 10.1892 24.951 10.1895ZM51.8384 13.7438H54.7785C55.363 13.7438 55.9236 13.9759 56.337 14.3891C56.7505 14.8023 56.9831 15.3627 56.9835 15.9473V16.7468C56.9835 17.3317 56.7512 17.8926 56.3377 18.3062C55.9242 18.7198 55.3633 18.9522 54.7785 18.9522H50.4694C50.2501 18.9522 50.0397 18.865 49.8847 18.7099C49.7296 18.5548 49.6425 18.3445 49.6425 18.1251C49.6425 17.9058 49.7296 17.6954 49.8847 17.5404C50.0397 17.3853 50.2501 17.2981 50.4694 17.2981H54.7858C54.932 17.2981 55.0722 17.24 55.1756 17.1366C55.279 17.0332 55.3371 16.893 55.3371 16.7468V15.9492C55.3371 15.8029 55.279 15.6627 55.1756 15.5593C55.0722 15.4559 54.932 15.3978 54.7858 15.3978H51.8457C51.2609 15.3978 50.7 15.1655 50.2865 14.7519C49.8729 14.3383 49.6406 13.7773 49.6406 13.1924V12.3948C49.6406 11.8099 49.8729 11.249 50.2865 10.8354C50.7 10.4218 51.2609 10.1895 51.8457 10.1895H54.8961C55.1154 10.1895 55.3257 10.2766 55.4808 10.4317C55.6359 10.5868 55.723 10.7971 55.723 11.0165C55.723 11.2358 55.6359 11.4462 55.4808 11.6013C55.3257 11.7564 55.1154 11.8435 54.8961 11.8435H51.8384C51.6922 11.8435 51.5519 11.9016 51.4486 12.005C51.3452 12.1084 51.2871 12.2486 51.2871 12.3948V13.1924C51.2871 13.3387 51.3452 13.4789 51.4486 13.5823C51.5519 13.6857 51.6922 13.7438 51.8384 13.7438ZM31.1943 10.6943C31.1307 10.5451 31.0247 10.4179 30.8895 10.3285C30.7542 10.2391 30.5957 10.1914 30.4335 10.1914C30.2714 10.1914 30.1128 10.2391 29.9776 10.3285C29.8423 10.4179 29.7363 10.5451 29.6728 10.6943L26.6518 17.7993C26.5984 17.925 26.5769 18.0621 26.5894 18.1981C26.6018 18.3342 26.6478 18.465 26.7231 18.579C26.7985 18.6929 26.9009 18.7864 27.0212 18.8511C27.1415 18.9158 27.276 18.9497 27.4126 18.9498H33.4508C33.5874 18.9497 33.7219 18.9158 33.8422 18.8511C33.9625 18.7864 34.0649 18.6929 34.1402 18.579C34.2156 18.465 34.2615 18.3342 34.274 18.1981C34.2864 18.0621 34.265 17.925 34.2116 17.7993L31.1943 10.6943ZM28.6731 17.2957L30.439 13.1331L32.2049 17.2957H28.6731Z"/>
</svg>
