<svg width="19" height="18" viewBox="0 0 19 18" fill="none" xmlns="http://www.w3.org/2000/svg">
<path d="M1.85366 0C0.834749 0 0 0.90065 0 2V16.25C0 17.2108 0.731407 18 1.62195 18H17.378C18.2686 18 19 17.2108 19 16.25V4.75C19 3.78915 18.2686 3 17.378 3L14.7723 3.02328L16.2195 0.5C16.2195 0.241699 15.9987 2.5e-05 15.7561 0H1.85366ZM2.58341 1.6875H14.166L13.4661 3H2.58341C2.06193 3 1.85366 2.69398 1.85366 2.33796C1.85366 1.98193 2.06193 1.6875 2.58341 1.6875ZM1.85366 4.5C1.85366 4.5 1.8983 4.5 2.23529 4.5C7.45429 4.495 12.8923 4.5 17.378 4.5V7.75H11.3537C10.7198 7.75 10.1951 8.31615 10.1951 9V12C10.1951 12.6838 10.7198 13.25 11.3537 13.25H17.378V16.3125L1.85366 16.25V4.5ZM11.3537 8.97803L17.3235 9V12.25H11.3537V9V8.97803Z" fill="white"/>
</svg>
