<svg width="162" height="43" viewBox="0 0 162 43" fill="none" xmlns="http://www.w3.org/2000/svg">
<path d="M30.1823 11.837C30.9128 11.837 31.5601 12.2593 31.8298 12.9037L39.1551 30.569L46.6063 12.8859C46.8782 12.2615 47.5233 11.8415 48.2336 11.8415C49.4451 11.8415 50.279 13.006 49.8182 14.0927L41.0746 34.5114C40.9061 34.9114 40.5959 35.1936 40.2205 35.3559C39.9306 35.5159 39.5732 35.6181 39.1978 35.6181H39.1146C38.8427 35.6181 38.5932 35.5581 38.3414 35.4781C37.8627 35.3559 37.4446 35.0158 37.2356 34.5336L28.5729 14.1349C28.0941 13.0282 28.9258 11.8437 30.18 11.8437V11.8392L30.1823 11.837ZM15.7587 11.7837H15.8419C16.6353 11.8437 17.2602 12.4659 17.2602 13.2504C17.2602 14.0349 16.6331 14.6571 15.8419 14.7171H15.6733C10.5171 14.7171 6.36557 18.7373 6.36557 23.6798C6.36557 28.6222 10.5396 32.6424 15.6733 32.6424C20.8071 32.6424 24.9811 28.6222 24.9811 23.6798V23.6198C24.9811 22.8153 30.3171 33.8247 15.6711 35.5781C8.89649 36.3892 3.31543 30.2512 3.31543 23.6798C3.31543 17.1084 8.84479 11.7815 15.6711 11.7815H15.7565L15.7587 11.7837ZM28.0335 19.3396C28.0335 20.1441 27.3434 20.8063 26.5118 20.8063C25.6801 20.8063 24.9901 20.1441 24.9901 19.3396C24.9901 18.5351 25.6801 17.8728 26.5118 17.8728C27.3479 17.8928 28.0335 18.5351 28.0335 19.3396ZM56.4152 23.2598C56.4152 22.5775 56.9794 22.0353 57.6897 22.0353H65.4533C66.1635 22.0353 66.7277 22.5775 66.7277 23.2598V23.722C66.7277 24.4042 66.1635 24.9465 65.4533 24.9465H57.6897C56.9794 24.9465 56.4152 24.4042 56.4152 23.722V23.2598ZM54.0147 32.5246H65.4308C66.1411 32.5246 66.7052 33.0669 66.7052 33.7491V34.3536C66.7052 35.0358 66.1411 35.5781 65.4308 35.5781H52.1176C51.4074 35.5781 50.8432 35.0358 50.8432 34.3536V13.0126C50.8432 12.3304 51.4074 11.7881 52.1176 11.7881H65.4308C66.1411 11.7881 66.7052 12.3304 66.7052 13.0126V13.6171C66.7052 14.2993 66.1411 14.8416 65.4308 14.8416H54.0147V32.5246ZM151.999 22.0353C151.289 22.0353 150.725 22.5775 150.725 23.2598V23.722C150.725 24.4042 151.289 24.9465 151.999 24.9465H159.763C160.473 24.9465 161.037 24.4042 161.037 23.722V23.2598C161.037 22.5775 160.473 22.0353 159.763 22.0353H151.999ZM148.326 32.5246H159.742C160.453 32.5246 161.017 33.0669 161.017 33.7491V34.3536C161.017 35.0358 160.453 35.5781 159.742 35.5781H146.425C145.714 35.5781 145.15 35.0358 145.15 34.3536V13.0126C145.15 12.3304 145.714 11.7881 146.425 11.7881H159.742C160.453 11.7881 161.017 12.3304 161.017 13.0126V13.6171C161.017 14.2993 160.453 14.8416 159.742 14.8416H148.326V32.5246ZM111.677 12.0281C111.949 11.8281 112.282 11.7459 112.594 11.7881H113.473C114.184 11.7881 114.748 12.3304 114.748 13.0126V34.3758C114.748 35.0581 114.184 35.6003 113.473 35.6003H112.72C112.01 35.6003 111.446 35.0581 111.446 34.3758V15.9261L106.896 19.284C106.332 19.684 105.559 19.5863 105.143 19.044L104.831 18.6218C104.415 18.0795 104.541 17.295 105.083 16.8928L111.677 12.0281ZM88.2428 11.7837C87.5325 11.7837 86.9683 12.3259 86.9683 13.0082V13.5704C86.9683 14.2527 87.5325 14.7949 88.2428 14.7949H95.341V34.3691C95.341 35.0514 95.9052 35.5936 96.6155 35.5936H97.3685C98.0787 35.5936 98.6429 35.0514 98.6429 34.3691V14.7949H102.983C103.066 14.7949 103.129 14.7749 103.192 14.7349L106.636 12.4637C106.948 12.2637 106.804 11.8015 106.427 11.8015H89.7735L88.2518 11.7815H88.2473L88.2428 11.7837ZM131.401 30.2934C131.048 30.6156 130.585 30.8156 130.088 30.8156C129.592 30.8156 129.088 30.5956 128.731 30.2534C128.71 30.2334 128.688 30.2134 128.688 30.2134C128.675 30.2001 128.661 30.1867 128.645 30.1734C128.477 29.9934 128.333 29.7934 128.25 29.5489L121.592 18.7373V34.3514C121.592 35.0336 121.028 35.5759 120.318 35.5759H119.565C118.854 35.5759 118.29 35.0336 118.29 34.3514V13.0126C118.29 12.3304 118.854 11.7881 119.565 11.7881H120.358C120.817 11.7481 121.255 11.9681 121.507 12.3726L130.064 26.2799L138.558 12.4526C138.6 12.3926 138.641 12.3304 138.684 12.2726C138.953 11.9103 139.394 11.7303 139.832 11.7903H140.459C141.17 11.7903 141.734 12.3326 141.734 13.0148V34.378C141.734 35.0603 141.17 35.6025 140.459 35.6025H139.706C138.996 35.6025 138.432 35.0603 138.432 34.378V18.964L131.898 29.5756C131.792 29.7956 131.671 29.9978 131.522 30.1601C131.48 30.2201 131.439 30.2623 131.396 30.3001L131.401 30.2934ZM75.1139 25.2287V24.9665C75.1139 23.6198 76.24 22.5353 77.6381 22.5353H78.681C80.0993 22.5353 81.1872 22.173 81.9357 21.4686C82.7089 20.7663 83.0843 19.8018 83.0843 18.5929C83.0843 17.3839 82.7089 16.5017 81.9357 15.7394C81.2052 14.9749 80.1398 14.6949 78.7215 14.6949H73.7136C73.5675 14.6949 73.4236 14.6749 73.2753 14.6349V34.3891C73.2753 35.0714 72.7111 35.6136 72.0008 35.6136H71.2479C70.5376 35.6136 69.9734 35.0714 69.9734 34.3891V13.0126C69.9734 12.3304 70.5376 11.7881 71.2479 11.7881H78.8249C80.3466 11.7881 81.684 12.0904 82.8123 12.6704C83.9384 13.2326 84.815 14.0371 85.4197 15.0438C86.0468 16.0483 86.3569 17.2128 86.3569 18.4995C86.3569 19.7863 86.0445 21.0308 85.4197 22.0375C84.815 23.042 83.9609 23.8264 82.8123 24.4109C81.8121 24.8932 80.6433 25.1754 79.3261 25.2154C79.3688 25.2554 79.4093 25.2976 79.4318 25.3376L85.8602 33.0535C86.7143 34.078 85.9658 35.5848 84.6082 35.5848C84.1295 35.5848 83.6709 35.3847 83.3563 35.0003L75.1139 25.2332V25.2287Z" fill="white"/>
<path d="M10.2654 42.9729C20.8566 43.513 20.5104 36.1748 20.5104 36.1748C21.2477 37.5127 21.124 38.9216 21.124 38.9216C22.5558 37.1593 22.639 35.3281 22.639 35.3281C23.0481 36.0326 22.884 37.0549 22.884 37.0549C24.6844 35.2926 24.9721 32.7925 24.9721 32.7925C25.2576 33.6036 25.2576 34.6948 25.2576 34.6948C26.9771 32.1235 26.7321 29.1301 26.7321 29.1301C27.1816 29.9412 27.3727 30.9924 27.3727 30.9924C29.6946 24.6477 24.5068 21.9453 24.5068 21.9453C24.5068 21.9453 25.5992 26.35 22.2546 26.35C18.9101 26.35 17.5457 22.472 15.5318 22.472C13.5178 22.472 12.1535 26.35 8.80886 26.35C5.46428 26.35 6.55666 21.9453 6.55666 21.9453C6.55666 21.9453 1.36896 24.6477 3.69084 30.9924C3.69084 30.9924 3.88189 29.939 4.33143 29.1301C4.33143 29.1301 4.08643 32.1235 5.80593 34.6948C5.80593 34.6948 5.80593 33.6036 6.09139 32.7925C6.09139 32.7925 6.37684 35.2926 8.17951 37.0549C8.17951 37.0549 8.01542 36.0326 8.4245 35.3281C8.4245 35.3281 8.50542 37.1593 9.93946 38.9216C9.93946 38.9216 9.81583 37.5127 10.5531 36.1748C10.5531 36.1748 13.9089 38.9572 10.2676 42.9729H10.2654Z" fill="white"/>
<path d="M24.5696 15.1639L3.06357 20.2486C1.92173 20.5197 0.768661 19.8419 0.489946 18.7352C0.21123 17.6285 0.910266 16.5129 2.0521 16.244L23.5582 11.1593C24.7 10.8882 25.8531 11.566 26.1318 12.6727C26.4105 13.7794 25.7115 14.895 24.5696 15.1639Z" fill="#F9F8F7"/>
<path d="M23.5581 11.1566C23.5581 11.1566 24.2346 9.72766 22.6545 7.57422C22.6545 7.57422 25.2371 8.59649 27.8444 13.5323L30.3147 12.9478C30.3147 12.9478 25.7293 -2.85514 11.5576 0.498347C-1.67245 3.62738 2.05425 16.2435 2.05425 16.2435L23.5603 11.1588L23.5581 11.1566Z" fill="#CC0000"/>
<path d="M31.2205 13.6525C31.4992 14.7592 30.8001 15.8748 29.6583 16.1437C28.5165 16.4126 27.3634 15.737 27.0847 14.6303C26.806 13.5236 27.505 12.408 28.6468 12.1391C29.7887 11.8702 30.9417 12.5458 31.2205 13.6525Z" fill="#F9F8F7"/>
<g style="mix-blend-mode:multiply">
<path d="M2.05432 16.2429L12.8073 13.7006L9.62235 1.06445C-1.29027 4.91352 2.05432 16.2429 2.05432 16.2429Z" fill="#E6E7E8"/>
</g>
<path d="M15.4665 30.4149C17.0511 30.4149 18.3368 29.1704 18.3368 27.6348H12.5962C12.5962 29.1704 13.8819 30.4149 15.4665 30.4149Z" fill="#343844"/>
<path d="M26.0757 9.34857C26.0757 9.34857 25.8936 9.11522 25.6194 8.76632C25.5542 8.67965 25.4733 8.59298 25.4014 8.49519C25.3227 8.40186 25.2395 8.30185 25.1541 8.19962C25.071 8.0974 24.9765 7.99517 24.8844 7.89072C24.7945 7.78405 24.6978 7.68182 24.6012 7.5796C24.5113 7.4707 24.4034 7.37736 24.3112 7.27292C24.2123 7.17291 24.1179 7.07513 24.0235 6.98179C23.8302 6.79956 23.6526 6.61955 23.4908 6.47288C23.4099 6.40176 23.3402 6.32398 23.2728 6.2662C23.2054 6.20842 23.1492 6.15064 23.0997 6.1062C23.0053 6.01286 22.9536 5.95508 22.9536 5.95508C22.9536 5.95508 23.03 5.97063 23.1604 6.00841C23.2908 6.04619 23.4796 6.10175 23.6841 6.20398C23.7875 6.25287 23.9066 6.30398 24.0145 6.37732C24.1269 6.44843 24.2505 6.5151 24.3629 6.604C24.4753 6.69289 24.6012 6.77734 24.7113 6.87956C24.8215 6.98179 24.9361 7.08402 25.0395 7.19958C25.2485 7.42403 25.4306 7.67071 25.5767 7.91517C25.6576 8.03295 25.7115 8.16184 25.7722 8.27518C25.8262 8.39297 25.8756 8.5063 25.9116 8.61298C26.0689 9.03966 26.0689 9.35079 26.0689 9.35079L26.0757 9.34857Z" fill="#CC0000"/>
</svg>
