<?xml version="1.0" encoding="UTF-8"?>
<svg xmlns="http://www.w3.org/2000/svg" viewBox="0 0 252 59">
  <defs>
    <style>
      .cls-1 {
        fill: #343844;
      }

      .cls-2 {
        isolation: isolate;
      }

      .cls-3 {
        fill: #c00;
      }

      .cls-4 {
        mix-blend-mode: multiply;
      }

      .cls-5 {
        fill: #f9f8f7;
      }

      .cls-6 {
        fill: #fff;
      }

      .cls-7 {
        fill: #e6e7e8;
      }
    </style>
  </defs>
  <g class="cls-2">
    <g id="Layer_1" data-name="Layer 1">
      <g>
        <path class="cls-6" d="M250.16,7.87c-.09-.07-.21-.11-.38-.11h.03c-.12.02-.24.05-.36.09l-.35.13c-.25.09-.39.13-.41.11-.03-.02-.04-.12-.02-.31-.01-.15-.03-.29-.04-.44-.01-.15,0-.3.01-.46-.07-.64-.47-1.08-1.2-1.3-.1-.05-.21-.1-.32-.13-.11-.03-.24-.09-.39-.15l.27-.1c.3-.05.52-.08.63-.09.33-.09.5-.28.52-.56.02-.16.01-.27-.03-.33-.04-.06-.14-.09-.31-.09-.38-.04-.74-.11-1.07-.18-.33-.08-.71-.09-1.13-.02l-.08-.06c.19-.13.31-.2.35-.22l.75-.27c.52-.13.84-.4.98-.81.05-.08.05-.2-.01-.36,0-.03-.05-.04-.11-.05-.06,0-.12-.02-.16-.03-.02.07-.04.11-.07.14-.03.03-.04.07-.02.12.07.19-.01.36-.24.5-.1.07-.25.14-.47.22.02-.07.02-.13.02-.19,0-.06,0-.12.02-.19.02-.07,0-.14-.02-.22-.14.05-.21.09-.2.12-.06.05-.1.11-.12.16-.02.06-.06.12-.11.2-.07.15-.23.3-.47.45-.25.15-.47.23-.67.24.05-.08.11-.16.18-.25.07-.09.13-.17.18-.25.28-.44.28-.84,0-1.19-.02-.05-.11-.08-.27-.08,0,.03,0,.06,0,.09,0,.04,0,.08.02.13l.04.12c.04.23,0,.47-.13.73s-.32.48-.58.67c-.37.2-.78.19-1.22-.01-.15-.07-.25-.17-.32-.3-.07-.13-.04-.26.07-.39.05-.08.12-.17.21-.26.09-.09.16-.18.21-.26.24-.24.41-.44.51-.6.13-.2.09-.31-.12-.32-.05-.01-.13.08-.26.28-.05.08-.1.16-.13.23-.03.07-.08.14-.14.19-.24.24-.42.24-.54.01-.03-.08-.04-.17-.04-.28,0-.11-.02-.21-.06-.32l-.07-.2s-.07.06-.13.07c-.06,0-.1.04-.11.11-.02.07-.03.12-.03.17,0,.05-.01.1-.03.17l.22.61c0,.09,0,.19.02.29.02.1-.04.21-.16.31-.19-.08-.25-.25-.18-.49-.01-.36-.08-.67-.22-.93-.09-.15-.25-.18-.46-.11.03.08.07.16.12.23s.06.15.05.21c.01.15.03.29.06.41.03.13.02.26,0,.39.02.05,0,.1-.07.14s-.13.09-.19.14c-.05-.04-.11-.08-.16-.1-.05-.03-.07-.07-.05-.14,0-.12,0-.23.03-.33.02-.1.06-.2.1-.31.08-.12.11-.21.09-.26-.01-.03-.09-.06-.22-.1l-.12.18c-.06.27-.13.46-.21.58,0,.03,0,.06-.06.09-.05.03-.08.04-.09,0-.09-.03-.14-.06-.15-.08.01-.19.03-.36.05-.52l-.04-.12-.21.08c-.22.29-.27.54-.15.74.17.36.56.6,1.17.72.22.04.43.09.63.14.2.05.4.11.59.2.45.23.95.34,1.51.32.16,0,.31.01.43.03.13.02.27.02.44.02l-.23.36c-.49.09-1.03.24-1.6.44-.08,0-.17.02-.25.05-.09.03-.17.05-.26.05-.03.04-.03.07-.02.1.33.12.64.24.94.34.3.1.65.1,1.05-.02.16.1.31.19.47.29.16.1.31.19.47.29.06.04.09.07.12.07.02,0,.06.03.12.07.29.23.31.45.06.66-.14.17-.35.31-.64.42-.28.13-.56.21-.85.24-.29.03-.6.04-.93.04-.44,0-.87.04-1.3.09-.43.05-.84.18-1.25.39-.53.22-.87.12-1.02-.31-.02-.05-.08-.12-.19-.2-.06.05-.11.09-.15.1-.04.01-.08.06-.13.14-.09.09-.15.19-.19.3-.01.19.02.34.11.46-1.23-.04-2.74.04-4.52.23.03-.13.05-.25.06-.34,0-.09.03-.21.06-.34.02-.16-.03-.27-.15-.33-.12-.06-.28-.06-.45,0-.14.05-.27.11-.39.19-.12.07-.24.15-.37.23-.27.16-.42.23-.47.22-.04-.01-.11-.13-.19-.34-.06-.16-.11-.33-.15-.5s-.1-.31-.19-.43c-.29-.69-.93-1.06-1.93-1.13-.16,0-.31-.02-.44-.05-.13-.03-.3-.05-.51-.07.1-.07.16-.11.19-.14.03-.03.06-.05.1-.06l.7-.25c.35-.16.48-.4.4-.74-.02-.17-.07-.29-.15-.33-.08-.05-.23-.06-.47-.04-.43.04-.87.06-1.31.07-.44,0-.89.1-1.36.27l-.08-.06c.06-.05.11-.1.16-.15.04-.04.1-.1.16-.15.12-.11.25-.19.39-.26.14-.07.27-.14.41-.22.58-.3.86-.68.86-1.14.02-.16-.03-.29-.15-.4-.05-.01-.19,0-.42.02.02.06.02.1,0,.14-.03.04-.03.09,0,.14.19.18.18.38-.02.6-.05.08-.13.14-.24.18-.11.04-.2.11-.29.2,0-.09,0-.17-.03-.24s-.03-.15-.03-.24c-.03-.08-.07-.14-.13-.18-.03.04-.07.07-.12.09-.05.02-.09.05-.12.09-.01.07-.02.14-.01.21,0,.07,0,.14-.01.21-.02.16-.15.35-.4.58s-.47.38-.68.46c.06-.27.11-.48.13-.64.25-.55.11-.97-.4-1.27-.06-.04-.11-.05-.16-.03s-.12.03-.2.03c.01.03.01.06,0,.09,0,.04.02.07.07.11.03.08.07.13.11.14.16.22.21.49.15.82-.06.33-.21.61-.45.85-.15.15-.36.25-.64.32-.28.07-.55.08-.81.02-.48-.1-.67-.34-.56-.71.03-.13.08-.25.15-.35s.14-.21.21-.33c.04-.11.1-.23.17-.36.07-.13.12-.27.16-.4.06-.27-.03-.37-.29-.31-.05-.01-.08.02-.11.11-.03.09-.07.17-.12.25-.04.11-.07.21-.07.3,0,.09-.04.18-.09.26-.18.28-.37.32-.57.12-.11-.08-.18-.18-.22-.29l-.13-.36s-.07-.04-.08-.06c0-.03-.04-.06-.1-.1-.16.12-.23.19-.22.22-.01.19.02.33.09.42.07.1.15.19.22.29.07.1.15.19.22.29.08.12.14.23.18.32.03.1,0,.22-.1.38-.16,0-.26-.06-.3-.16l-.1-.28c-.09-.36-.31-.7-.66-.99-.14-.16-.32-.16-.54.01.06.07.13.14.19.2.06.07.13.15.21.24.08.12.15.26.21.4l.17.46c.02.06,0,.11-.06.16-.06.05-.12.12-.17.2-.06-.04-.13-.07-.22-.1-.09-.03-.15-.07-.17-.12-.05-.14-.06-.26-.05-.37.02-.12.03-.23.02-.35-.02-.05-.03-.1-.03-.15,0-.05,0-.1-.03-.15-.06-.04-.17-.06-.33-.06,0,.03,0,.11-.03.24.03.3.02.51,0,.64-.08.12-.14.19-.17.2-.14-.04-.21-.08-.22-.1l-.25-.69c-.07.03-.13.08-.18.16-.21.32-.17.6.12.83.38.38.92.53,1.62.46.28-.01.56-.02.84-.03.28,0,.53.02.76.09.48.1.97.12,1.48.06.5-.06,1.01-.16,1.53-.28-.03.13-.07.23-.11.29-.04.06-.07.12-.08.19-.13.08-.25.14-.36.18-.11.04-.23.1-.36.18-.17.09-.34.18-.51.26-.17.08-.34.18-.5.3-.25.09-.44.18-.57.25l.03.08c.43.09.86.13,1.29.13s.84-.11,1.25-.32c.23.07.45.14.66.22.21.08.43.15.66.22.14.04.25.06.33.06.48.1.59.35.33.75-.13.2-.32.39-.58.58-.29.2-.61.36-.95.48-.34.12-.7.22-1.07.3-.27.04-.53.08-.77.14-.24.06-.49.13-.74.22-.46.17-.92.43-1.36.77-.51.37-.96.35-1.35-.06-.02-.05-.06-.1-.1-.12-.05-.03-.1-.06-.16-.1-.05.08-.1.14-.15.17-.05.03-.1.09-.15.17-.08.12-.1.24-.06.34-.01.52.41.74,1.26.64-1.77.58-3.5,1.35-5.19,2.31-1.69.95-3.38,2-5.07,3.13-.49-.46-1.22-.68-2.18-.67-.2.01-.39,0-.58-.02-.19-.02-.39-.04-.6-.06.1-.07.16-.11.19-.14.03-.03.08-.07.14-.12.21-.08.49-.21.83-.39.38-.17.53-.49.45-.94-.08-.22-.17-.34-.26-.39s-.3-.04-.6.01c-.57.09-1.15.16-1.71.21-.57.05-1.13.21-1.68.47v-.04s-.1-.06-.1-.06c.13-.2.24-.33.34-.4.16-.12.32-.23.48-.34.16-.11.32-.22.48-.34.64-.35.94-.85.92-1.48-.01-.15-.11-.3-.28-.45-.06-.04-.13-.04-.22-.01-.09.03-.17.05-.25.05-.02.07-.03.13-.05.2-.02.07,0,.12.06.16.2.23.21.47.02.72-.05.08-.14.16-.25.23-.12.07-.23.16-.36.27-.08-.22-.13-.4-.14-.55-.02-.05-.05-.1-.08-.13-.03-.03-.06-.08-.08-.13-.19.13-.29.21-.28.24-.03.13-.04.32-.04.56,0,.21-.14.48-.41.79-.27.31-.55.52-.83.62.02-.16.05-.3.09-.42.04-.12.07-.26.09-.42.12-.68-.15-1.19-.8-1.54-.06-.04-.13-.04-.22-.01-.09.03-.17.05-.25.05.05.14.1.22.16.26.02.05.04.08.06.09.02,0,.04.04.06.09.25.25.37.57.35.97-.02.4-.16.78-.44,1.12-.11.13-.31.25-.6.36-.43.16-.83.21-1.21.17-.63-.07-.92-.35-.85-.83.03-.13.09-.27.16-.4.07-.13.14-.27.21-.42.15-.36.25-.7.29-1.02.04-.11.03-.2-.02-.29-.05-.09-.17-.11-.36-.07-.07.03-.13.1-.16.22-.04.12-.06.21-.08.28-.03.14-.05.26-.04.38,0,.12-.02.22-.07.3-.15.36-.41.44-.76.23-.12-.11-.21-.23-.28-.36-.07-.13-.14-.25-.23-.37-.06-.07-.15-.14-.26-.22-.06.05-.13.1-.19.14-.07.04-.09.09-.07.14-.01.19.05.36.19.53.09.12.19.24.31.35.12.11.24.22.36.33.12.11.22.23.28.35.07.13.03.29-.09.49-.2.01-.34-.04-.42-.15-.08-.11-.14-.23-.19-.36-.17-.46-.49-.83-.95-1.12-.23-.19-.47-.18-.72.03.12.11.22.19.31.26.08.06.19.15.31.26.1.18.2.35.31.51.1.16.18.34.25.53.02.06,0,.12-.05.2-.05.08-.1.16-.16.24-.09-.03-.19-.06-.31-.09-.11-.03-.18-.08-.2-.13-.09-.12-.13-.26-.15-.4-.01-.15-.03-.29-.04-.44.02-.16-.02-.28-.13-.36-.02-.06-.06-.08-.12-.07-.06,0-.13,0-.22-.03-.03.13-.03.24,0,.32-.02.16-.02.3,0,.41.02.12.04.25.05.39-.03.14-.08.21-.16.24-.21-.02-.32-.04-.33-.06-.09-.12-.14-.23-.15-.33-.02-.1-.07-.21-.15-.33-.03-.08-.07-.14-.13-.18-.16.12-.23.19-.22.22-.17.43-.08.78.26,1.05.55.41,1.29.54,2.2.39.3-.05.63-.09.99-.11.35-.02.7-.02,1.03.01.85.12,1.67.05,2.47-.21l1.33-.35-.14.6c-.17.09-.32.17-.46.24-.14.06-.27.14-.41.22-.45.32-.86.59-1.22.81-.1.07-.21.13-.33.19-.12.06-.23.12-.32.19l.04.12c.58.03,1.13.05,1.65.04.52,0,1.04-.18,1.57-.53.31.07.6.14.87.21.27.07.55.13.85.17.09.03.16.04.2.04.04,0,.11.01.2.04.26.06.45.16.56.3.11.14.11.33-.01.55-.14.27-.35.53-.63.78-.35.28-.73.51-1.17.7-.44.19-.87.35-1.31.48-.63.17-1.24.38-1.83.62-.6.25-1.15.6-1.67,1.07-.09.09-.26.19-.51.28-.43.16-.82.07-1.18-.25-.06-.04-.12-.07-.19-.09-.07-.02-.13-.05-.19-.09-.05.08-.12.15-.2.21-.08.06-.14.13-.2.21-.01.19-.02.34-.01.46.15.62.72.82,1.74.6.34-.06.56-.07.66-.01.1.06.14.22.12.51,0,.03,0,.04-.01.05-.02,0-.02.02-.01.05-1.22.87-2.51,1.72-3.87,2.53-1.36.82-2.77,1.49-4.23,2.02-2.6.95-4.91,1.1-6.92.46-.21-.23-.42-.3-.66-.22s-.57.19-1.01.32c-.19.04-.37.14-.55.31-.18.17-.32.35-.41.54-.16.21-.24.41-.24.59,0,.18-.1.41-.33.67-.13.2-.28.33-.46.4-.18.06-.38.17-.61.31-.14-.04-.24-.11-.32-.2-.22-.16-.33-.46-.32-.89,0-.24-.07-.45-.19-.62s-.24-.31-.36-.42c-.17-.12-.37-.23-.6-.33-.76-.64-1.65-.77-2.69-.39-.18.07-.37.15-.57.25-.2.11-.42.23-.65.38-.56.36-1.03.61-1.43.75s-.85.23-1.36.27c-.31.05-.5.18-.58.4-.15.27-.06.5.25.69.12.11.25.14.39.09.14-.05.24-.12.29-.2.17-.31.4-.51.68-.62.18-.06.37-.11.58-.14.21-.03.43-.07.65-.12l.13-.05c.05-.02.17-.05.36-.09-.16.55-.22.99-.18,1.33.04.33.18.66.41.97-.52.34-.9.63-1.14.87-.24.24-.51.58-.83,1.04-.02-.05-.13-.17-.34-.34-.2-.17-.36-.3-.47-.38-.08-.09-.17-.18-.28-.27-.11-.08-.23-.12-.34-.1-.15.03-.3.09-.44.21-.14.11-.27.22-.4.33-.16.12-.27.25-.34.4-.07.15-.18.29-.33.44-.24.24-.34.47-.3.68.04.22.13.42.28.61.16.22.34.28.55.19.21-.09.42-.16.65-.21.11-.04.21-.08.31-.14.1-.05.24-.11.42-.18-.08.55-.14,1.06-.17,1.53-.03.47.08.95.34,1.43.04.02.08.05.1.1-.05.3-.08.56-.07.81-1.1.19-2.19.33-3.28.43-.14-.04-.27-.08-.43-.08h-7.63c-1.13-.12-2.11-.27-2.89-.45-1.02-.24-1.58-.36-1.72-.38v-18.13h12.23c.76,0,1.37-.58,1.37-1.31v-.65c0-.73-.6-1.31-1.37-1.31h-14.27c-.76,0-1.37.58-1.37,1.31v22.87c0,.73.6,1.31,1.37,1.31h14.27c.2,0,.39-.04.56-.12,2.1,0,4.21-.15,6.36-.51.12.11.22.25.3.42.08.17.17.33.26.48-.26.06-.49.15-.7.25-.18.07-.33.15-.46.24-.13.09-.17.19-.13.3.02.06.07.1.17.12.25.03.58-.03.97-.17.87-.29,1.71-.55,2.52-.81.82-.25,1.66-.52,2.52-.81l3.32-1.21c1.21-.44,2.31-.87,3.29-1.29.76-.34,1.44-.64,2.01-.89.57-.26,1.13-.59,1.67-1,.63-.48,1.03-1.02,1.2-1.63.16-.61.02-1.09-.44-1.44-.11-.08-.23-.14-.37-.19-.21-.14-.4-.14-.56-.03-.32.24-.4.47-.24.68.54.48.63,1.02.29,1.63-.3.51-.71.64-1.24.41-.77-.33-1.06-.86-.89-1.6.07-.36.1-.72.09-1.09-.01-.36-.02-.72-.03-1.09-.02-.51,0-.91.08-1.2.08-.29.31-.5.7-.65.22-.08.5-.13.85-.17.13.02.26,0,.4-.05.3-.05.5-.18.58-.4.03-.13.02-.25-.04-.35-.06-.1-.14-.18-.24-.23-.11-.08-.26-.15-.44-.21-.46-.14-.93-.12-1.43.06-.53.2-1.05.55-1.55,1.07-.24.24-.39.42-.47.54-.08.12-.22.29-.42.52-.19-.3-.39-.47-.61-.51-.22-.04-.43-.03-.65.05-.39.14-.77.37-1.12.68-.35.31-.72.49-1.11.54-.06-.38-.27-.67-.66-.88-.38-.21-.63-.36-.74-.44.23-.24.41-.43.52-.58.11-.15.2-.29.26-.44.07-.15.15-.32.23-.52.09-.2.24-.46.44-.78l.08-.12c.07-.03.14-.07.2-.12.07-.03.2-.1.4-.24,1.58.56,3.3.77,5.18.65,1.88-.12,3.71-.44,5.5-.97-.02.07-.08.19-.17.36-.1.17-.18.29-.24.34-.51.28-.78.51-.8.71-.03.19.01.45.13.78.04.11.09.2.16.28.07.08.15.18.23.31.12-.11.24-.21.34-.33.1-.11.19-.23.27-.35.32-.45.63-.9.93-1.35.3-.45.61-.9.93-1.35,2.53-.92,5.08-2.19,7.65-3.8,1.42-.88,2.79-1.79,4.13-2.72,1.34-.93,2.68-1.87,4.03-2.82-.03.25-.06.5-.09.74-.03.24-.06.49-.09.74-.09.19-.17.32-.22.4-.13.2-.25.37-.36.52-.11.15-.23.31-.37.48-.08.12-.13.26-.15.42-.02.16-.02.32.02.47.04.16.06.31.07.45.04.11.08.17.13.18.16,0,.27-.04.32-.12.14-.17.28-.34.42-.5.14-.16.28-.34.41-.54.37-.65.61-1.32.73-1.98.12-.67.22-1.34.3-2.01.63-.48,1.27-.89,1.91-1.25.03.08.11.19.24.33.05-.08.13-.16.25-.23.11-.07.2-.15.25-.23.08-.12.17-.24.27-.35.1-.11.19-.23.27-.35,1.23-.72,2.51-1.41,3.83-2.06,1.32-.65,2.66-1.22,4.01-1.72,1.64-.6,3.36-1.09,5.16-1.47-.02.16-.02.39,0,.68-.05.08-.03.13.06.16.09.03.18,0,.27-.1.12-.1.24-.22.36-.34.12-.12.23-.26.33-.42.06-.05.13-.14.21-.26.56-.12,1.14-.22,1.73-.31.59-.09,1.2-.18,1.82-.25-.32.33-.69.59-1.11.77-.13.08-.24.17-.33.26-.09.09-.19.19-.32.3-.05.08-.13.14-.24.18-.41.09-.65.2-.7.32-.06.13-.1.3-.14.53,0,.09,0,.18.03.26s.04.16.02.22c.1-.07.2-.12.31-.16.11-.04.19-.1.24-.18.41-.3.82-.6,1.22-.9.4-.3.78-.59,1.16-.88.25-.21.53-.38.85-.49.39-.14.76-.17,1.12-.09,0,.03.07.02.18-.02.54.05,1.03,0,1.46-.16.32-.12.61-.31.88-.59.36-.34.68-.57.97-.67.32-.12.75-.15,1.29-.11.94.15,1.88,0,2.81-.43.08.12.19.17.33.15.13-.02.27-.05.42-.11l.99-.36c.13-.05.27-.11.44-.21-.12.23-.23.44-.35.63-.11.19-.23.39-.36.59-.03.04-.1.11-.22.22l-.71.54c-.07.03-.15.1-.22.22-.09.19-.15.41-.18.66l-.02.1v.04c.14.01.22,0,.24-.04.13-.08.27-.16.4-.24.13-.08.26-.17.38-.28.53-.44.94-.91,1.24-1.43.3-.52.57-1.04.83-1.56.08-.12.07-.22-.02-.29ZM173.43,43.45c-.4.01-.81,0-1.21,0,.17-.22.3-.48.3-.78v-.63c.91-.11,1.82-.23,2.74-.4.23.31.55.57.95.78.4.21.84.4,1.31.6-1.33.24-2.69.39-4.08.44ZM182.1,43.01c-.51.2-1.03.42-1.56.64-.79.38-1.3.26-1.52-.36.76-.12,1.47-.29,2.13-.48.66-.19,1.3-.37,1.92-.54.12-.01.23-.01.33,0,.1,0,.2.03.29.05-.55.26-1.08.49-1.6.7ZM190.08,39.14c.27-.2.54-.48.82-.83.15.19.31.36.49.51.18.15.38.32.61.51-.38.17-.72.32-1.02.44-.3.13-.6.27-.9.44-.37.2-.65.24-.83.14-.18-.1-.29-.27-.33-.5h0c.51-.27.89-.51,1.16-.72ZM186.21,41.15c.51-.2,1.13-.46,1.86-.79l.18.48c-.97.44-1.79.75-2.45.92-.67.17-1.11.17-1.33,0,.65-.21,1.24-.41,1.75-.61ZM198.93,28.17c-.25.38-.56.76-.94,1.15l-.05.02c-1.16.36-2.42.65-3.77.87-1.36.22-2.63.29-3.83.21,1.35-.07,2.75-.36,4.21-.9.93-.34,1.8-.72,2.62-1.14.82-.42,1.64-.89,2.46-1.4-.21.41-.44.81-.69,1.19ZM209.71,23.22c-.94.63-1.94,1.28-2.99,1.94-2.3,1.45-4.6,2.63-6.9,3.53.46-.72,1.02-1.2,1.66-1.43.29-.1.57-.16.85-.17.14-.05.24-.07.28-.06.66-.18,1.26-.43,1.79-.75.53-.31.92-.75,1.16-1.3.42-.85,1.05-1.44,1.91-1.75.29-.1.62-.18,1.01-.23.53-.1,1.01-.23,1.44-.39.86-.31,1.65-.79,2.39-1.42.06.04.13.08.22.1-.94.65-1.88,1.29-2.82,1.92ZM219.58,15.71c-.12.11-.21.22-.27.35-.06.13-.14.26-.25.39-.08.12-.15.19-.22.22-.34.19-.55.33-.63.44-.08.11-.11.25-.09.42-.3.17-.6.36-.89.55-.29.2-.58.4-.88.59.02-.07.02-.11.02-.12,0-.01,0-.05.02-.12.01-.19-.07-.32-.26-.39-.19-.07-.4-.04-.64.07h0c-.17.09-.32.18-.45.25-.13.08-.28.18-.44.3-.28.23-.45.33-.52.33-.06,0-.16-.14-.3-.4l-.6-1.15v-.04c1.67-1.13,3.38-2.18,5.11-3.15,1.73-.97,3.46-1.72,5.21-2.27-.02.07-.06.16-.14.28-.46.5-1,.87-1.6,1.09-.31.05-.51.2-.62.46-.2.35-.42.68-.67,1-.25.32-.54.62-.89.9ZM233.61,10.04c-.05.14-.09.28-.12.41-.02.07-.08.18-.18.34-.09.09-.18.2-.28.31-.1.11-.19.22-.28.31-1.88.38-3.73.9-5.55,1.57h0c-1.18.43-2.33.92-3.46,1.47-1.13.55-2.26,1.12-3.38,1.71.15-.15.27-.29.36-.43.09-.14.21-.28.36-.43.39-.48.82-.8,1.28-.97.29-.1.57-.16.85-.17.05.01.1,0,.18-.02.19-.04.36-.08.5-.12.15-.04.31-.09.49-.16.71-.26,1.22-.64,1.52-1.15.39-.6.87-1,1.44-1.21.28-.1.6-.17.95-.21.58-.06,1.13-.18,1.63-.36.57-.21,1.09-.49,1.57-.85.23.19.54.15.93-.11.06-.05.13-.1.19-.14.07-.04.13-.09.19-.14.16,0,.32-.02.47-.06.15-.04.3-.06.46-.06-.02.16-.06.31-.11.45ZM240.31,9.29s-.02.02-.01.05c-.05.08-.14.17-.26.28-.47.38-.98.59-1.54.61-.27.04-.47.14-.61.31l-.05.02c-1.39.17-2.67.37-3.85.58.14-.27.26-.53.34-.81.08-.27.17-.55.27-.83,1.17-.12,2.21-.2,3.13-.23.92-.03,1.78-.04,2.6-.03,0,.03,0,.04-.01.05Z"/>
        <path class="cls-6" d="M51.66,18.55c-.76,0-1.45.45-1.74,1.12l-7.99,18.95-7.85-18.93c-.29-.69-.98-1.14-1.77-1.14h0c-1.34,0-2.24,1.28-1.72,2.46l9.28,21.86c.22.52.67.88,1.19,1.01.27.09.54.15.83.15h.09c.4,0,.79-.11,1.1-.28.4-.17.73-.48.92-.91l9.37-21.88c.49-1.16-.4-2.41-1.7-2.41Z"/>
        <path class="cls-6" d="M70.09,40.71h-12.23v-18.95h12.23c.76,0,1.37-.58,1.37-1.31v-.65c0-.73-.6-1.31-1.37-1.31h-14.27c-.76,0-1.37.58-1.37,1.31v22.87c0,.73.6,1.31,1.37,1.31h14.27c.76,0,1.37-.58,1.37-1.31v-.65c0-.73-.6-1.31-1.37-1.31Z"/>
        <path class="cls-6" d="M26.74,31.17v.06c0,5.3-4.47,9.6-9.97,9.6s-9.97-4.31-9.97-9.6,4.45-9.6,9.97-9.6h.18c.85-.06,1.52-.73,1.52-1.57s-.67-1.51-1.52-1.57h-.09s-.09,0-.09,0c-7.32,0-13.24,5.71-13.24,12.75s5.98,13.62,13.24,12.75c15.7-1.88,9.98-13.68,9.98-12.82Z"/>
        <path class="cls-6" d="M70.11,29.47h-8.32c-.76,0-1.37.58-1.37,1.31v.5c0,.73.6,1.31,1.37,1.31h8.32c.76,0,1.37-.58,1.37-1.31v-.5c0-.73-.6-1.31-1.37-1.31Z"/>
        <path class="cls-6" d="M28.38,25.01c-.89,0-1.63.71-1.63,1.57s.74,1.57,1.63,1.57,1.63-.71,1.63-1.57-.73-1.55-1.63-1.57Z"/>
        <path class="cls-6" d="M114.02,18.5h-17.85l-1.63-.02h0c-.76,0-1.37.58-1.37,1.31v.6c0,.73.6,1.31,1.37,1.31h7.61v20.98c0,.73.6,1.31,1.37,1.31h.81c.76,0,1.37-.58,1.37-1.31v-20.98h4.65c.09,0,.16-.02.22-.06l3.69-2.43c.33-.21.18-.71-.22-.71Z"/>
        <path class="cls-6" d="M91.51,29.47c.67-1.08,1-2.41,1-3.79s-.33-2.63-1-3.7c-.65-1.08-1.59-1.94-2.79-2.54-1.21-.62-2.64-.95-4.27-.95h-8.12c-.76,0-1.37.58-1.37,1.31v22.91c0,.73.6,1.31,1.37,1.31h.81c.76,0,1.37-.58,1.37-1.31v-21.17c.16.04.31.06.47.06h5.37c1.52,0,2.66.3,3.44,1.12.83.82,1.23,1.76,1.23,3.06s-.4,2.33-1.23,3.08c-.8.76-1.97,1.14-3.49,1.14h-1.12c-1.5,0-2.71,1.16-2.71,2.61v.28h0s8.83,10.47,8.83,10.47c.34.41.83.63,1.34.63,1.45,0,2.26-1.61,1.34-2.71l-6.89-8.27s-.07-.09-.11-.13c1.41-.04,2.66-.35,3.74-.86,1.23-.63,2.15-1.47,2.79-2.54Z"/>
        <path class="cls-6" d="M150.49,18.49h-.67c-.47-.06-.94.13-1.23.52-.05.06-.09.13-.14.19l-9.1,14.82-9.17-14.9c-.27-.43-.74-.67-1.23-.63h-.85c-.76,0-1.37.58-1.37,1.31v22.87c0,.73.6,1.31,1.37,1.31h.81c.76,0,1.37-.58,1.37-1.31v-16.73l7.13,11.59c.09.26.24.48.42.67.02.01.03.03.05.04,0,0,.02.02.05.04.38.37.92.6,1.45.6s1.03-.21,1.41-.56h0s.09-.08.14-.14c.16-.17.29-.39.4-.63l7-11.37v16.52c0,.73.6,1.31,1.37,1.31h.81c.76,0,1.37-.58,1.37-1.31v-22.89c0-.73-.6-1.31-1.37-1.31Z"/>
        <path class="cls-6" d="M161.41,29.68c-.76,0-1.37.58-1.37,1.31v.5c0,.73.6,1.31,1.37,1.31h8.32c.76,0,1.37-.58,1.37-1.31v-.5c0-.73-.6-1.31-1.37-1.31h-8.32Z"/>
        <path class="cls-6" d="M121.57,18.49h-.94c-.33-.05-.69.04-.98.26l-7.07,5.21c-.58.43-.72,1.27-.27,1.85l.33.45c.45.58,1.27.69,1.88.26l4.88-3.6v19.77c0,.73.6,1.31,1.37,1.31h.81c.76,0,1.37-.58,1.37-1.31v-22.89c0-.73-.6-1.31-1.37-1.31Z"/>
      </g>
      <g>
        <path class="cls-6" d="M10.97,51.91c11.35.58,10.98-7.29,10.98-7.29.79,1.43.66,2.94.66,2.94,1.53-1.89,1.62-3.85,1.62-3.85.44.75.26,1.85.26,1.85,1.93-1.89,2.24-4.57,2.24-4.57.31.87.31,2.04.31,2.04,1.84-2.76,1.58-5.96,1.58-5.96.48.87.69,2,.69,2,2.49-6.8-3.07-9.7-3.07-9.7,0,0,1.17,4.72-2.41,4.72s-5.05-4.16-7.2-4.16-3.62,4.16-7.2,4.16-2.41-4.72-2.41-4.72c0,0-5.56,2.9-3.07,9.7,0,0,.2-1.13.69-2,0,0-.26,3.21,1.58,5.96,0,0,0-1.17.31-2.04,0,0,.31,2.68,2.24,4.57,0,0-.18-1.1.26-1.85,0,0,.09,1.96,1.62,3.85,0,0-.13-1.51.66-2.94,0,0,3.6,2.98-.31,7.29h0Z"/>
        <path class="cls-5" d="M26.3,22.11L3.25,27.56c-1.22.29-2.46-.44-2.76-1.62-.3-1.19.45-2.38,1.67-2.67l23.05-5.45c1.22-.29,2.46.44,2.76,1.62.3,1.19-.45,2.38-1.67,2.67Z"/>
        <path class="cls-3" d="M25.22,17.81s.72-1.53-.97-3.84c0,0,2.77,1.1,5.56,6.38l2.65-.63S27.54,2.8,12.35,6.39C-1.82,9.74,2.17,23.26,2.17,23.26l23.05-5.45h0Z"/>
        <path class="cls-5" d="M33.43,20.49c.3,1.19-.45,2.38-1.67,2.67s-2.46-.44-2.76-1.62c-.3-1.19.45-2.38,1.67-2.67,1.22-.29,2.46.44,2.76,1.62Z"/>
        <g class="cls-4">
          <path class="cls-7" d="M2.17,23.26l11.52-2.72-3.41-13.54C-1.41,11.12,2.17,23.26,2.17,23.26Z"/>
        </g>
        <path class="cls-1" d="M16.54,38.45c1.7,0,3.08-1.33,3.08-2.98h-6.15c0,1.65,1.38,2.98,3.08,2.98Z"/>
        <path class="cls-3" d="M27.91,15.88s-.2-.25-.49-.62c-.07-.09-.16-.19-.23-.29-.08-.1-.17-.21-.27-.32-.09-.11-.19-.22-.29-.33-.1-.11-.2-.22-.3-.33-.1-.12-.21-.22-.31-.33-.11-.11-.21-.21-.31-.31-.21-.2-.4-.39-.57-.55-.09-.08-.16-.16-.23-.22-.07-.06-.13-.12-.19-.17-.1-.1-.16-.16-.16-.16,0,0,.08.02.22.06.14.04.34.1.56.21.11.05.24.11.35.19.12.08.25.15.37.24.12.1.26.19.37.3.12.11.24.22.35.34.22.24.42.5.58.77.09.13.14.26.21.39.06.13.11.25.15.36.17.46.17.79.17.79h0Z"/>
      </g>
    </g>
  </g>
</svg>