<svg width="252" height="59" viewBox="0 0 252 59" fill="none" xmlns="http://www.w3.org/2000/svg">
<path d="M30.1823 25.3937C30.9128 25.3937 31.5601 25.8159 31.8298 26.4604L39.1551 44.1256L46.6063 26.4426C46.8782 25.8181 47.5233 25.3981 48.2336 25.3981C49.4451 25.3981 50.279 26.5626 49.8182 27.6493L41.0746 48.068C40.9061 48.468 40.5959 48.7503 40.2205 48.9125C39.9306 49.0725 39.5732 49.1747 39.1978 49.1747H39.1146C38.8427 49.1747 38.5932 49.1147 38.3414 49.0347C37.8627 48.9125 37.4446 48.5725 37.2356 48.0902L28.5729 27.6915C28.0941 26.5848 28.9258 25.4003 30.18 25.4003V25.3959L30.1823 25.3937ZM15.7587 25.3403H15.8419C16.6353 25.4003 17.2602 26.0226 17.2602 26.8071C17.2602 27.5915 16.6331 28.2138 15.8419 28.2738H15.6733C10.5171 28.2738 6.36557 32.294 6.36557 37.2364C6.36557 42.1789 10.5396 46.199 15.6733 46.199C20.8071 46.199 24.9811 42.1789 24.9811 37.2364V37.1764C24.9811 36.3719 30.3171 47.3813 15.6711 49.1347C8.89649 49.9459 3.31543 43.8078 3.31543 37.2364C3.31543 30.665 8.84479 25.3381 15.6711 25.3381H15.7565L15.7587 25.3403ZM28.0335 32.8962C28.0335 33.7007 27.3434 34.3629 26.5118 34.3629C25.6801 34.3629 24.9901 33.7007 24.9901 32.8962C24.9901 32.0917 25.6801 31.4295 26.5118 31.4295C27.3479 31.4495 28.0335 32.0917 28.0335 32.8962ZM56.4152 36.8164C56.4152 36.1341 56.9794 35.5919 57.6897 35.5919H65.4533C66.1635 35.5919 66.7277 36.1341 66.7277 36.8164V37.2786C66.7277 37.9609 66.1635 38.5031 65.4533 38.5031H57.6897C56.9794 38.5031 56.4152 37.9609 56.4152 37.2786V36.8164ZM54.0147 46.0813H65.4308C66.1411 46.0813 66.7052 46.6235 66.7052 47.3058V47.9102C66.7052 48.5925 66.1411 49.1347 65.4308 49.1347H52.1176C51.4074 49.1347 50.8432 48.5925 50.8432 47.9102V26.5693C50.8432 25.887 51.4074 25.3448 52.1176 25.3448H65.4308C66.1411 25.3448 66.7052 25.887 66.7052 26.5693V27.1737C66.7052 27.856 66.1411 28.3982 65.4308 28.3982H54.0147V46.0813ZM151.999 35.5919C151.289 35.5919 150.725 36.1341 150.725 36.8164V37.2786C150.725 37.9609 151.289 38.5031 151.999 38.5031H159.763C160.473 38.5031 161.037 37.9609 161.037 37.2786V36.8164C161.037 36.1341 160.473 35.5919 159.763 35.5919H151.999ZM148.326 46.0813H159.742C160.453 46.0813 161.017 46.6235 161.017 47.3058V47.9102C161.017 48.5925 160.453 49.1347 159.742 49.1347H146.425C145.714 49.1347 145.15 48.5925 145.15 47.9102V26.5693C145.15 25.887 145.714 25.3448 146.425 25.3448H159.742C160.453 25.3448 161.017 25.887 161.017 26.5693V27.1737C161.017 27.856 160.453 28.3982 159.742 28.3982H148.326V46.0813ZM111.677 25.5848C111.949 25.3848 112.282 25.3025 112.594 25.3448H113.473C114.184 25.3448 114.748 25.887 114.748 26.5693V47.9325C114.748 48.6147 114.184 49.157 113.473 49.157H112.72C112.01 49.157 111.446 48.6147 111.446 47.9325V29.4827L106.896 32.8407C106.332 33.2407 105.559 33.1429 105.143 32.6006L104.831 32.1784C104.415 31.6362 104.541 30.8517 105.083 30.4494L111.677 25.5848ZM88.2428 25.3403C87.5325 25.3403 86.9683 25.8826 86.9683 26.5648V27.1271C86.9683 27.8093 87.5325 28.3516 88.2428 28.3516H95.341V47.9258C95.341 48.608 95.9052 49.1503 96.6155 49.1503H97.3685C98.0787 49.1503 98.6429 48.608 98.6429 47.9258V28.3516H102.983C103.066 28.3516 103.129 28.3316 103.192 28.2916L106.636 26.0203C106.948 25.8203 106.804 25.3581 106.427 25.3581H89.7735L88.2518 25.3381H88.2473L88.2428 25.3403ZM131.401 43.85C131.048 44.1723 130.585 44.3723 130.088 44.3723C129.592 44.3723 129.088 44.1523 128.731 43.81C128.71 43.79 128.688 43.77 128.688 43.77C128.675 43.7567 128.661 43.7434 128.645 43.73C128.477 43.55 128.333 43.35 128.25 43.1056L121.592 32.294V47.908C121.592 48.5903 121.028 49.1325 120.318 49.1325H119.565C118.854 49.1325 118.29 48.5903 118.29 47.908V26.5693C118.29 25.887 118.854 25.3448 119.565 25.3448H120.358C120.817 25.3048 121.255 25.5248 121.507 25.9292L130.064 39.8365L138.558 26.0092C138.6 25.9492 138.641 25.887 138.684 25.8292C138.953 25.467 139.394 25.287 139.832 25.347H140.459C141.17 25.347 141.734 25.8892 141.734 26.5715V47.9347C141.734 48.6169 141.17 49.1592 140.459 49.1592H139.706C138.996 49.1592 138.432 48.6169 138.432 47.9347V32.5206L131.898 43.1322C131.792 43.3522 131.671 43.5545 131.522 43.7167C131.48 43.7767 131.439 43.8189 131.396 43.8567L131.401 43.85ZM75.1139 38.7854V38.5231C75.1139 37.1764 76.24 36.0919 77.6381 36.0919H78.681C80.0993 36.0919 81.1872 35.7297 81.9357 35.0252C82.7089 34.3229 83.0843 33.3585 83.0843 32.1495C83.0843 30.9406 82.7089 30.0583 81.9357 29.2961C81.2052 28.5316 80.1398 28.2516 78.7215 28.2516H73.7136C73.5675 28.2516 73.4236 28.2316 73.2753 28.1916V47.9458C73.2753 48.628 72.7111 49.1703 72.0008 49.1703H71.2479C70.5376 49.1703 69.9734 48.628 69.9734 47.9458V26.5693C69.9734 25.887 70.5376 25.3448 71.2479 25.3448H78.8249C80.3466 25.3448 81.684 25.647 82.8123 26.227C83.9384 26.7893 84.815 27.5938 85.4197 28.6005C86.0468 29.605 86.3569 30.7695 86.3569 32.0562C86.3569 33.3429 86.0445 34.5874 85.4197 35.5941C84.815 36.5986 83.9609 37.3831 82.8123 37.9676C81.8121 38.4498 80.6433 38.732 79.3261 38.772C79.3688 38.812 79.4093 38.8543 79.4318 38.8943L85.8602 46.6102C86.7143 47.6347 85.9658 49.1414 84.6082 49.1414C84.1295 49.1414 83.6709 48.9414 83.3563 48.5569L75.1139 38.7898V38.7854Z" fill="white"/>
<path d="M10.2654 56.5296C20.8566 57.0696 20.5104 49.7315 20.5104 49.7315C21.2477 51.0693 21.124 52.4783 21.124 52.4783C22.5558 50.716 22.639 48.8848 22.639 48.8848C23.0481 49.5893 22.884 50.6115 22.884 50.6115C24.6844 48.8492 24.9721 46.3491 24.9721 46.3491C25.2576 47.1603 25.2576 48.2514 25.2576 48.2514C26.9771 45.6802 26.7321 42.6867 26.7321 42.6867C27.1816 43.4979 27.3727 44.549 27.3727 44.549C29.6945 38.2043 24.5068 35.502 24.5068 35.502C24.5068 35.502 25.5992 39.9066 22.2546 39.9066C18.9101 39.9066 17.5457 36.0286 15.5318 36.0286C13.5178 36.0286 12.1535 39.9066 8.80886 39.9066C5.46428 39.9066 6.55666 35.502 6.55666 35.502C6.55666 35.502 1.36896 38.2043 3.69084 44.549C3.69084 44.549 3.88189 43.4956 4.33143 42.6867C4.33143 42.6867 4.08643 45.6802 5.80593 48.2514C5.80593 48.2514 5.80593 47.1603 6.09139 46.3491C6.09139 46.3491 6.37684 48.8492 8.17951 50.6115C8.17951 50.6115 8.01542 49.5893 8.4245 48.8848C8.4245 48.8848 8.50542 50.716 9.93946 52.4783C9.93946 52.4783 9.81583 51.0693 10.5531 49.7315C10.5531 49.7315 13.9089 52.5138 10.2676 56.5296H10.2654Z" fill="white"/>
<path d="M24.5696 28.7206L3.06357 33.8053C1.92173 34.0764 0.768661 33.3986 0.489946 32.2919C0.21123 31.1851 0.910266 30.0695 2.0521 29.8006L23.5582 24.716C24.7 24.4448 25.8531 25.1226 26.1318 26.2294C26.4105 27.3361 25.7115 28.4517 24.5696 28.7206Z" fill="#F9F8F7"/>
<path d="M23.5581 24.7133C23.5581 24.7133 24.2346 23.2843 22.6545 21.1309C22.6545 21.1309 25.2371 22.1531 27.8444 27.0889L30.3147 26.5044C30.3147 26.5044 25.7293 10.7015 11.5576 14.055C-1.67245 17.184 2.05425 29.8001 2.05425 29.8001L23.5603 24.7155L23.5581 24.7133Z" fill="#CC0000"/>
<path d="M31.2205 27.2091C31.4992 28.3158 30.8001 29.4314 29.6583 29.7003C28.5165 29.9692 27.3634 29.2937 27.0847 28.1869C26.806 27.0802 27.505 25.9646 28.6468 25.6957C29.7887 25.4268 30.9417 26.1024 31.2205 27.2091Z" fill="#F9F8F7"/>
<g style="mix-blend-mode:multiply">
<path d="M2.05432 29.7996L12.8073 27.2572L9.62234 14.6211C-1.29027 18.4702 2.05432 29.7996 2.05432 29.7996Z" fill="#E6E7E8"/>
</g>
<path d="M15.4665 43.9715C17.0511 43.9715 18.3368 42.727 18.3368 41.1914H12.5962C12.5962 42.727 13.8819 43.9715 15.4665 43.9715Z" fill="#343844"/>
<path d="M26.0757 22.9052C26.0757 22.9052 25.8936 22.6719 25.6194 22.323C25.5542 22.2363 25.4733 22.1496 25.4014 22.0518C25.3227 21.9585 25.2395 21.8585 25.1541 21.7563C25.071 21.654 24.9765 21.5518 24.8844 21.4474C24.7945 21.3407 24.6978 21.2385 24.6012 21.1362C24.5113 21.0273 24.4034 20.934 24.3112 20.8296C24.2123 20.7296 24.1179 20.6318 24.0235 20.5384C23.8302 20.3562 23.6526 20.1762 23.4908 20.0295C23.4099 19.9584 23.3402 19.8806 23.2728 19.8228C23.2054 19.7651 23.1492 19.7073 23.0997 19.6628C23.0053 19.5695 22.9536 19.5117 22.9536 19.5117C22.9536 19.5117 23.03 19.5273 23.1604 19.5651C23.2908 19.6028 23.4796 19.6584 23.6841 19.7606C23.7875 19.8095 23.9066 19.8606 24.0145 19.934C24.1269 20.0051 24.2505 20.0717 24.3629 20.1606C24.4753 20.2495 24.6012 20.334 24.7113 20.4362C24.8215 20.5384 24.9361 20.6407 25.0395 20.7562C25.2485 20.9807 25.4306 21.2274 25.5767 21.4718C25.6576 21.5896 25.7115 21.7185 25.7722 21.8318C25.8262 21.9496 25.8756 22.0629 25.9116 22.1696C26.0689 22.5963 26.0689 22.9074 26.0689 22.9074L26.0757 22.9052Z" fill="#CC0000"/>
<path d="M247.74 13.5493C247.907 13.5506 248.037 13.5913 248.127 13.6677C248.217 13.7459 248.222 13.8455 248.143 13.9683C247.878 14.5059 247.596 15.0424 247.291 15.5794C246.987 16.1158 246.56 16.6091 246.016 17.0597C245.889 17.1704 245.757 17.2655 245.621 17.3463C245.483 17.4277 245.347 17.5108 245.209 17.5904C245.181 17.6318 245.104 17.6442 244.972 17.6298L244.957 17.5884L244.981 17.484C245.01 17.2217 245.073 16.9938 245.169 16.8005C245.249 16.6777 245.326 16.6009 245.4 16.574L246.137 16.0219C246.262 15.9136 246.34 15.8385 246.367 15.7954C246.5 15.5906 246.624 15.3873 246.74 15.187C246.855 14.9868 246.973 14.7719 247.097 14.5372C246.922 14.6324 246.771 14.7031 246.642 14.75L245.62 15.1229C245.473 15.1767 245.329 15.2136 245.19 15.233C245.052 15.2523 244.938 15.2003 244.851 15.0739C243.886 15.5195 242.919 15.6694 241.947 15.5185C241.388 15.4708 240.942 15.5064 240.611 15.6272C240.316 15.7348 239.985 15.9669 239.613 16.3213C239.343 16.6092 239.042 16.8126 238.71 16.934C238.267 17.0954 237.768 17.1529 237.208 17.1034C237.098 17.1435 237.036 17.1503 237.026 17.1228C236.66 17.0357 236.275 17.0668 235.871 17.2145C235.54 17.3353 235.247 17.5066 234.994 17.7239C234.602 18.0249 234.202 18.329 233.793 18.6345C233.382 18.9424 232.964 19.251 232.537 19.5651C232.484 19.6489 232.401 19.7085 232.291 19.7486C232.181 19.7886 232.075 19.8431 231.975 19.9107C231.991 19.8424 231.984 19.7649 231.954 19.6822C231.924 19.5995 231.912 19.5082 231.918 19.4123C231.957 19.1776 232.004 18.9942 232.062 18.8639C232.118 18.7343 232.359 18.6229 232.785 18.5297C232.895 18.4897 232.977 18.4284 233.031 18.3463C233.158 18.2374 233.267 18.1353 233.358 18.0378C233.447 17.9426 233.561 17.8543 233.698 17.7712C234.128 17.5829 234.512 17.318 234.845 16.974C234.204 17.0496 233.579 17.1371 232.969 17.2328C232.358 17.3309 231.761 17.4373 231.179 17.556C231.099 17.6788 231.028 17.7694 230.964 17.8239C230.857 17.9897 230.742 18.1331 230.62 18.2558C230.498 18.3786 230.374 18.4961 230.248 18.6044C230.159 18.7013 230.066 18.7351 229.972 18.7052C229.878 18.6769 229.858 18.6218 229.911 18.538C229.884 18.2337 229.881 17.9983 229.904 17.8319C228.047 18.2265 226.271 18.732 224.577 19.3502C223.178 19.8608 221.798 20.4502 220.437 21.1204C219.075 21.7912 217.76 22.4996 216.489 23.2462C216.41 23.3689 216.318 23.4902 216.214 23.6061C216.111 23.7219 216.019 23.8433 215.939 23.966C215.886 24.0481 215.8 24.128 215.682 24.2025C215.563 24.277 215.477 24.3553 215.424 24.4391C215.29 24.2988 215.208 24.1879 215.178 24.1035C214.519 24.4708 213.861 24.9 213.207 25.3907C213.125 26.0824 213.023 26.7735 212.9 27.4646C212.777 28.1556 212.525 28.8391 212.145 29.5127C212.01 29.7198 211.87 29.9039 211.722 30.0691C211.573 30.2348 211.427 30.4052 211.284 30.5841C211.231 30.6679 211.12 30.7085 210.953 30.7049C210.905 30.6911 210.863 30.6284 210.822 30.5164C210.808 30.3654 210.782 30.209 210.745 30.0487C210.708 29.8885 210.7 29.7275 210.724 29.5604C210.747 29.394 210.8 29.2499 210.879 29.1254C211.022 28.9482 211.15 28.7824 211.262 28.6304C211.372 28.4807 211.495 28.3012 211.63 28.094C211.683 28.012 211.757 27.8737 211.854 27.6821C211.883 27.4198 211.916 27.1637 211.95 26.9152C211.983 26.6667 212.016 26.4107 212.045 26.1484C210.65 27.1297 209.264 28.1021 207.885 29.0604C206.504 30.021 205.083 30.9572 203.622 31.869C200.975 33.528 198.343 34.8358 195.73 35.7893C195.399 36.2574 195.078 36.7201 194.766 37.1813C194.455 37.6425 194.134 38.1052 193.803 38.5733C193.724 38.696 193.632 38.8173 193.528 38.9332C193.426 39.0508 193.309 39.1635 193.182 39.2724C193.095 39.146 193.015 39.0426 192.943 38.9575C192.87 38.8748 192.814 38.776 192.774 38.664C192.652 38.3297 192.607 38.063 192.639 37.8621C192.669 37.6618 192.947 37.4195 193.469 37.1336C193.532 37.0791 193.615 36.9633 193.716 36.7837C193.816 36.6047 193.876 36.4813 193.894 36.4124C192.05 36.9604 190.159 37.295 188.224 37.4174C186.288 37.5421 184.506 37.3177 182.88 36.7435C182.68 36.8811 182.542 36.9607 182.47 36.987C182.406 37.0415 182.337 37.0822 182.264 37.1091L182.185 37.2335C181.971 37.5634 181.818 37.8319 181.728 38.0384C181.637 38.2456 181.556 38.4252 181.487 38.5755C181.418 38.7275 181.325 38.8785 181.215 39.0299C181.104 39.1819 180.925 39.3798 180.683 39.6263C180.798 39.7114 181.051 39.8629 181.443 40.081C181.836 40.3007 182.062 40.6049 182.119 40.9919C182.517 40.9425 182.897 40.7549 183.26 40.4332C183.622 40.1115 184.006 39.878 184.412 39.7298C184.633 39.649 184.854 39.6327 185.08 39.6754C185.304 39.7204 185.514 39.8958 185.709 40.2014C185.915 39.968 186.06 39.7901 186.139 39.6657C186.219 39.5429 186.38 39.3571 186.624 39.1099C187.138 38.5749 187.671 38.2086 188.223 38.0072C188.738 37.8195 189.231 37.7976 189.701 37.9405C189.889 37.9987 190.039 38.0706 190.153 38.154C190.257 38.2098 190.338 38.2917 190.398 38.3945C190.456 38.5002 190.469 38.6205 190.438 38.7588C190.351 38.9797 190.151 39.1173 189.837 39.1674C189.69 39.2212 189.551 39.2406 189.42 39.2238C189.059 39.2618 188.768 39.3195 188.546 39.4002C188.142 39.5479 187.9 39.7706 187.82 40.0673C187.742 40.3634 187.713 40.7759 187.738 41.3018C187.75 41.6761 187.76 42.0511 187.772 42.4236C187.784 42.7979 187.753 43.1722 187.679 43.5448C187.498 44.3041 187.801 44.855 188.594 45.1963C189.141 45.438 189.569 45.2973 189.878 44.7746C190.23 44.1424 190.13 43.5797 189.576 43.0888C189.411 42.8658 189.493 42.6311 189.819 42.3852C189.982 42.2632 190.174 42.2714 190.392 42.4123C190.533 42.4567 190.661 42.5194 190.775 42.6044C191.243 42.9706 191.391 43.4672 191.225 44.0938C191.058 44.7229 190.646 45.283 189.992 45.7737C189.437 46.1968 188.864 46.5403 188.271 46.8037C187.679 47.0666 186.987 47.3756 186.198 47.726C185.188 48.1589 184.056 48.6032 182.806 49.0593L179.384 50.3081C178.491 50.6028 177.622 50.8788 176.779 51.1397C175.935 51.4005 175.067 51.6783 174.174 51.9729C173.769 52.1206 173.435 52.18 173.175 52.1481C173.081 52.1198 173.025 52.0778 173.004 52.021C172.964 51.9107 173.01 51.8063 173.142 51.7111C173.273 51.6166 173.431 51.5335 173.616 51.4659C173.827 51.3576 174.066 51.2707 174.335 51.2037C174.236 51.0504 174.146 50.8881 174.062 50.7117C173.977 50.5377 173.873 50.3961 173.748 50.2834C170.213 50.8806 166.74 50.9901 163.329 50.6125C159.918 50.235 156.78 49.4338 153.915 48.2107C153.418 48.1092 153.161 48.029 153.141 47.9739C152.916 47.9312 152.774 47.8248 152.713 47.6577C152.652 47.4905 152.67 47.312 152.767 47.1187C153.06 46.6643 153.446 46.5235 153.926 46.6957C153.962 46.6826 154.574 46.8147 155.759 47.091C156.943 47.3673 158.52 47.5728 160.486 47.7065C162.119 47.8369 163.763 47.858 165.422 47.7737C167.079 47.6883 168.75 47.4964 170.434 47.198C170.427 46.9489 170.451 46.6728 170.506 46.3674C170.486 46.3123 170.452 46.2778 170.406 46.2616C170.139 45.7596 170.022 45.2675 170.055 44.783C170.087 44.2991 170.146 43.7738 170.23 43.2061C170.045 43.2737 169.902 43.3338 169.795 43.3882C169.691 43.4421 169.582 43.4896 169.472 43.5297C169.241 43.5828 169.019 43.656 168.803 43.7505C168.586 43.845 168.396 43.7817 168.233 43.5564C168.078 43.361 167.98 43.1525 167.942 42.9303C167.902 42.7087 168.006 42.4757 168.249 42.2268C168.402 42.0771 168.514 41.9251 168.585 41.7742C168.655 41.6239 168.772 41.4856 168.935 41.3635C169.062 41.2546 169.198 41.1425 169.344 41.025C169.49 40.9092 169.641 40.8384 169.799 40.8122C169.918 40.7997 170.037 40.8366 170.151 40.9199C170.265 41.005 170.361 41.097 170.439 41.1935C170.553 41.2786 170.715 41.4071 170.925 41.5841C171.135 41.7595 171.251 41.8753 171.271 41.9304C171.602 41.464 171.888 41.1079 172.132 40.8607C172.376 40.6135 172.767 40.3149 173.306 39.9601C173.064 39.6383 172.921 39.304 172.878 38.9584C172.836 38.6127 172.898 38.1547 173.067 37.5894C172.872 37.6294 172.748 37.6588 172.694 37.6788L172.555 37.7295C172.323 37.7826 172.098 37.8257 171.883 37.8576C171.665 37.8901 171.464 37.9401 171.28 38.0071C170.985 38.1147 170.75 38.3274 170.574 38.6435C170.521 38.7273 170.419 38.7938 170.273 38.847C170.127 38.9002 169.991 38.8719 169.866 38.7592C169.544 38.5626 169.457 38.3248 169.608 38.0494C169.694 37.8284 169.893 37.6932 170.208 37.6407C170.738 37.6057 171.204 37.5139 171.61 37.3656C172.016 37.2173 172.504 36.9613 173.081 36.5927C173.318 36.4438 173.543 36.3148 173.753 36.2048C173.964 36.0965 174.16 36.0095 174.345 35.942C175.412 35.5528 176.337 35.6876 177.119 36.3469C177.364 36.4471 177.572 36.5604 177.743 36.6875C177.867 36.8002 177.993 36.9435 178.119 37.1182C178.245 37.2929 178.313 37.5045 178.32 37.7536C178.314 38.1968 178.426 38.5035 178.655 38.672C178.731 38.7708 178.84 38.8404 178.982 38.8824C179.219 38.7335 179.43 38.6252 179.614 38.5582C179.797 38.4913 179.955 38.3554 180.09 38.1483C180.324 37.8735 180.438 37.6426 180.432 37.4554C180.426 37.2683 180.509 37.066 180.678 36.8463C180.775 36.653 180.915 36.4689 181.101 36.29C181.287 36.1128 181.475 36.0051 181.67 35.9651C182.121 35.8319 182.467 35.7211 182.707 35.6335C182.947 35.5459 183.171 35.6223 183.384 35.859C185.458 36.5193 187.841 36.3606 190.527 35.3801C192.036 34.8296 193.492 34.1325 194.895 33.2907C196.298 32.449 197.627 31.5772 198.884 30.6773C198.874 30.6497 198.878 30.6328 198.897 30.6259C198.914 30.6197 198.919 30.6021 198.909 30.5746C198.928 30.2847 198.886 30.1107 198.781 30.0532C198.677 29.9974 198.449 30.0005 198.098 30.0662C197.053 30.2895 196.457 30.0833 196.307 29.443C196.303 29.3196 196.307 29.16 196.322 28.9654C196.375 28.8833 196.442 28.8119 196.524 28.7489C196.605 28.6881 196.674 28.6161 196.727 28.5324C196.784 28.5761 196.848 28.6074 196.918 28.6288C196.988 28.6501 197.052 28.6832 197.11 28.7245C197.483 29.0608 197.89 29.1485 198.332 28.9871C198.59 28.8932 198.763 28.7987 198.854 28.7012C199.389 28.223 199.962 27.8557 200.579 27.5991C201.195 27.3432 201.824 27.1292 202.472 26.9554C202.923 26.8221 203.374 26.6576 203.825 26.4617C204.274 26.2664 204.676 26.0261 205.032 25.7382C205.312 25.4779 205.528 25.2118 205.677 24.9346C205.8 24.7006 205.804 24.5097 205.688 24.3626C205.573 24.2155 205.378 24.1145 205.108 24.055C205.014 24.0268 204.947 24.0124 204.904 24.0124C204.861 24.0123 204.794 23.9979 204.7 23.9697C204.392 23.924 204.098 23.8651 203.822 23.7942C203.545 23.7216 203.246 23.6489 202.929 23.5774C202.39 23.9322 201.852 24.113 201.312 24.1204C200.773 24.1278 200.205 24.1146 199.609 24.08L199.564 23.9542C199.663 23.8866 199.776 23.8222 199.899 23.7614C200.023 23.7007 200.135 23.6363 200.235 23.5687C200.609 23.3366 201.028 23.0586 201.494 22.7307C201.629 22.65 201.771 22.5749 201.912 22.5079C202.054 22.4403 202.211 22.3596 202.386 22.2644L202.534 21.6423L201.163 22.0002C200.344 22.2679 199.494 22.3416 198.617 22.2206C198.271 22.1887 197.916 22.1854 197.55 22.208C197.183 22.2322 196.841 22.2692 196.528 22.321C195.584 22.4761 194.827 22.3444 194.255 21.9207C193.902 21.6396 193.811 21.2784 193.985 20.8383C193.975 20.8107 194.05 20.7362 194.215 20.6117C194.272 20.6555 194.316 20.7175 194.346 20.8002C194.433 20.9266 194.486 21.04 194.503 21.1451C194.519 21.2502 194.571 21.3642 194.659 21.49C194.669 21.5176 194.78 21.5396 194.996 21.5564C195.07 21.5295 195.122 21.4481 195.157 21.3086C195.142 21.1559 195.124 21.0218 195.102 20.903C195.081 20.7858 195.079 20.6438 195.104 20.4767C195.074 20.394 195.074 20.2826 195.108 20.1454C195.202 20.1754 195.28 20.1861 195.339 20.1781C195.399 20.1719 195.439 20.1963 195.46 20.2532C195.574 20.3383 195.619 20.4623 195.597 20.6288C195.611 20.7815 195.625 20.9348 195.639 21.0858C195.652 21.2391 195.703 21.3787 195.791 21.5028C195.812 21.5596 195.88 21.6047 195.998 21.6399C196.114 21.6756 196.22 21.7093 196.315 21.737C196.369 21.6549 196.422 21.5729 196.475 21.4891C196.529 21.4071 196.545 21.3388 196.524 21.2819C196.453 21.0873 196.367 20.9081 196.264 20.7386C196.16 20.5714 196.056 20.3967 195.949 20.2152C195.824 20.1025 195.719 20.016 195.633 19.9516C195.548 19.8872 195.442 19.8007 195.318 19.6881C195.572 19.4702 195.817 19.459 196.056 19.6551C196.539 19.9513 196.868 20.3368 197.04 20.8089C197.09 20.9485 197.155 21.0731 197.239 21.1852C197.321 21.2978 197.463 21.3474 197.668 21.3349C197.801 21.1284 197.833 20.9605 197.765 20.8272C197.696 20.6963 197.599 20.5736 197.474 20.461C197.35 20.3483 197.226 20.2374 197.101 20.1247C196.976 20.0121 196.871 19.8942 196.783 19.7684C196.638 19.6006 196.572 19.4197 196.585 19.2257C196.565 19.1706 196.588 19.123 196.656 19.0806C196.725 19.0399 196.79 18.9929 196.855 18.9378C196.969 19.0229 197.06 19.0994 197.127 19.1683C197.214 19.2947 197.293 19.4243 197.362 19.5552C197.43 19.6885 197.526 19.8095 197.651 19.9221C198.02 20.135 198.282 20.0549 198.439 19.6813C198.493 19.5993 198.518 19.4965 198.514 19.3708C198.51 19.2474 198.524 19.1154 198.559 18.9758C198.575 18.9076 198.602 18.8117 198.642 18.686C198.68 18.5626 198.734 18.4864 198.81 18.4588C199.003 18.4195 199.128 18.4463 199.182 18.5359C199.234 18.6278 199.24 18.7275 199.198 18.8364C199.152 19.1694 199.051 19.5206 198.895 19.8918C198.826 20.0439 198.752 20.1879 198.678 20.3262C198.604 20.4644 198.549 20.6016 198.516 20.7405C198.447 21.2382 198.74 21.5255 199.394 21.6014C199.786 21.6478 200.203 21.5891 200.644 21.4283C200.939 21.3207 201.143 21.1993 201.26 21.061C201.546 20.7049 201.698 20.3175 201.714 19.9019C201.729 19.4862 201.608 19.1537 201.349 18.9008C201.329 18.8457 201.306 18.815 201.283 18.8074C201.26 18.8005 201.238 18.7692 201.218 18.7141C201.161 18.6727 201.108 18.5808 201.057 18.4412C201.141 18.4419 201.228 18.4256 201.32 18.3918C201.413 18.358 201.487 18.3624 201.544 18.4038C202.216 18.7582 202.492 19.2878 202.373 19.9909C202.351 20.1574 202.32 20.3015 202.282 20.4266C202.244 20.5517 202.213 20.6958 202.19 20.8622C202.485 20.7546 202.77 20.5411 203.049 20.2188C203.328 19.8965 203.468 19.6248 203.471 19.4032C203.463 19.154 203.476 18.96 203.509 18.8211C203.499 18.7935 203.594 18.7122 203.794 18.5746C203.815 18.6314 203.841 18.6766 203.875 18.711C203.909 18.7455 203.936 18.7923 203.956 18.8475C203.969 19.0008 204.018 19.188 204.099 19.4102C204.226 19.3013 204.348 19.2099 204.468 19.133C204.586 19.0585 204.673 18.9803 204.726 18.8965C204.922 18.6355 204.915 18.3864 204.704 18.149C204.646 18.1076 204.626 18.0525 204.643 17.9819C204.659 17.9136 204.676 17.8447 204.692 17.7747C204.775 17.7754 204.863 17.7591 204.955 17.7253C205.048 17.6915 205.121 17.696 205.179 17.7373C205.36 17.892 205.457 18.046 205.472 18.1987C205.499 18.8503 205.186 19.3592 204.526 19.7247C204.362 19.8491 204.195 19.9626 204.027 20.0726C203.857 20.1816 203.692 20.2985 203.529 20.4206C203.429 20.4882 203.312 20.6264 203.179 20.8312L203.264 20.8939L203.279 20.9352C203.847 20.6655 204.425 20.5016 205.009 20.4466C205.593 20.3916 206.182 20.319 206.775 20.2278C207.09 20.1753 207.296 20.1721 207.395 20.2141C207.494 20.2561 207.584 20.3895 207.665 20.6117C207.753 21.0832 207.599 21.4085 207.205 21.5837C206.856 21.7734 206.573 21.908 206.352 21.9887C206.288 22.0431 206.241 22.0838 206.208 22.1114C206.176 22.1389 206.111 22.1859 206.01 22.2541C206.224 22.2716 206.429 22.2905 206.625 22.3125C206.823 22.3362 207.021 22.342 207.226 22.3295C208.221 22.314 208.971 22.5439 209.479 23.0204C211.22 21.85 212.965 20.7724 214.712 19.7875C216.459 18.8026 218.245 18.0103 220.069 17.4072C219.187 17.5085 218.753 17.2898 218.766 16.7484C218.726 16.6381 218.745 16.5199 218.825 16.3948C218.879 16.3128 218.932 16.2545 218.981 16.2207C219.031 16.1869 219.084 16.1287 219.137 16.0466C219.194 16.0886 219.249 16.1231 219.301 16.1531C219.352 16.1813 219.389 16.2244 219.409 16.2795C219.813 16.7002 220.278 16.7179 220.806 16.3379C221.259 15.9831 221.726 15.7189 222.205 15.5444C222.462 15.4505 222.715 15.3736 222.966 15.3135C223.214 15.2541 223.478 15.2048 223.757 15.1671C224.145 15.0901 224.515 14.9863 224.865 14.8586C225.215 14.731 225.539 14.5658 225.841 14.36C226.106 14.1696 226.303 13.9707 226.438 13.7635C226.703 13.3523 226.59 13.0932 226.094 12.991C226.01 12.9903 225.897 12.969 225.757 12.9246C225.521 12.8543 225.297 12.778 225.08 12.6991C224.863 12.6202 224.638 12.5462 224.403 12.4736C223.982 12.6919 223.553 12.7996 223.116 12.8008C222.679 12.802 222.235 12.7611 221.787 12.671L221.756 12.5883C221.894 12.507 222.091 12.4193 222.348 12.3255C222.512 12.2034 222.683 12.102 222.863 12.0206C223.041 11.9399 223.217 11.8523 223.392 11.7554C223.529 11.6741 223.653 11.6133 223.762 11.5733C223.872 11.5333 223.996 11.4725 224.135 11.3905C224.151 11.3223 224.18 11.2571 224.219 11.194C224.259 11.1327 224.296 11.0331 224.329 10.8942C223.793 11.0274 223.265 11.1244 222.748 11.1881C222.229 11.2524 221.721 11.2329 221.225 11.129C220.988 11.057 220.729 11.0268 220.441 11.0362C220.153 11.0474 219.864 11.0574 219.576 11.0686C218.854 11.143 218.295 10.9856 217.901 10.5925C217.604 10.3534 217.565 10.0692 217.779 9.73928C217.832 9.65724 217.895 9.60104 217.969 9.57414L218.228 10.284C218.238 10.3116 218.313 10.3467 218.453 10.3911C218.489 10.3779 218.548 10.3097 218.629 10.1846C218.662 10.0474 218.663 9.82643 218.637 9.51978C218.67 9.38261 218.681 9.29883 218.671 9.27126C218.837 9.27493 218.95 9.29628 219.008 9.33765C219.028 9.39451 219.037 9.44415 219.034 9.49411C219.03 9.54234 219.039 9.59544 219.06 9.65058C219.063 9.77633 219.056 9.89598 219.035 10.0148C219.016 10.1331 219.031 10.2602 219.082 10.3998C219.103 10.4567 219.159 10.4987 219.253 10.5269C219.347 10.5568 219.422 10.592 219.48 10.6333C219.534 10.5513 219.592 10.483 219.655 10.4268C219.719 10.3724 219.74 10.3179 219.719 10.261L219.545 9.78203C219.489 9.62868 219.417 9.49084 219.33 9.36442C219.252 9.26791 219.18 9.18284 219.114 9.11327C219.046 9.04434 218.98 8.97305 218.913 8.90349C219.141 8.72693 219.325 8.722 219.472 8.88917C219.835 9.19785 220.063 9.54029 220.158 9.91526L220.265 10.2064C220.305 10.3184 220.409 10.3742 220.577 10.3756C220.684 10.2115 220.72 10.0795 220.684 9.98127C220.648 9.88306 220.586 9.77277 220.5 9.64635C220.422 9.54985 220.345 9.451 220.268 9.35214C220.19 9.25564 220.113 9.15678 220.036 9.05793C219.958 8.96143 219.926 8.81499 219.939 8.62095C219.929 8.59339 220.005 8.51887 220.169 8.39444C220.226 8.43816 220.26 8.47263 220.27 8.50019C220.28 8.52776 220.31 8.55017 220.356 8.5646L220.493 8.94021C220.534 9.0522 220.61 9.15105 220.724 9.23442C220.925 9.44421 221.12 9.4042 221.307 9.11566C221.36 9.03362 221.389 8.94295 221.397 8.84648C221.403 8.75064 221.427 8.64619 221.472 8.53596C221.526 8.45392 221.568 8.3664 221.597 8.27746C221.627 8.18852 221.666 8.15095 221.714 8.16476C221.981 8.09847 222.082 8.20422 222.017 8.47967C221.984 8.61856 221.929 8.75573 221.855 8.89399C221.781 9.03224 221.721 9.15562 221.678 9.26523C221.598 9.38797 221.524 9.50305 221.458 9.60513C221.392 9.70721 221.341 9.82918 221.308 9.96635C221.198 10.3538 221.392 10.5974 221.888 10.6995C222.16 10.7584 222.439 10.7504 222.725 10.6772C223.011 10.604 223.231 10.4926 223.384 10.343C223.628 10.0958 223.782 9.80348 223.845 9.46601C223.91 9.12792 223.858 8.84632 223.695 8.62276C223.647 8.60896 223.61 8.56009 223.579 8.47566C223.522 8.43429 223.498 8.39607 223.506 8.3599C223.515 8.32545 223.514 8.29475 223.503 8.26718C223.587 8.26785 223.657 8.25785 223.712 8.23783C223.767 8.21781 223.824 8.22848 223.881 8.26985C224.411 8.5822 224.551 9.01921 224.298 9.58383C224.275 9.75029 224.23 9.97187 224.165 10.2473C224.386 10.1666 224.621 10.0107 224.87 9.77733C225.119 9.54394 225.255 9.34604 225.278 9.17958C225.293 9.11131 225.298 9.03755 225.291 8.96174C225.285 8.88594 225.29 8.81391 225.305 8.74391C225.331 8.7032 225.373 8.67252 225.427 8.6525C225.482 8.63248 225.524 8.60181 225.551 8.56047C225.608 8.60419 225.652 8.66623 225.682 8.74893C225.676 8.84477 225.686 8.92919 225.711 8.99811C225.736 9.06703 225.745 9.15144 225.739 9.24728C225.829 9.1521 225.93 9.08215 226.04 9.04211C226.149 9.00206 226.232 8.94071 226.285 8.85867C226.492 8.62526 226.5 8.41916 226.309 8.23522C226.289 8.18009 226.291 8.13247 226.318 8.08942C226.344 8.04871 226.348 8.00048 226.327 7.94362C226.569 7.91977 226.712 7.91419 226.76 7.928C226.885 8.04065 226.935 8.17849 226.912 8.34495C226.917 8.81572 226.623 9.20805 226.027 9.51913C225.89 9.6005 225.75 9.67498 225.607 9.74258C225.465 9.81017 225.33 9.89844 225.205 10.0085C225.141 10.063 225.087 10.116 225.041 10.1619C224.996 10.2095 224.942 10.2625 224.878 10.3153L224.963 10.3797C225.442 10.2051 225.907 10.1132 226.365 10.1045C226.82 10.0964 227.271 10.0745 227.716 10.0372C227.957 10.0133 228.117 10.0253 228.199 10.0735C228.279 10.1224 228.331 10.2382 228.356 10.4185C228.44 10.7665 228.304 11.0212 227.947 11.1827L227.228 11.4448C227.192 11.458 227.157 11.4786 227.126 11.5056C227.093 11.5331 227.029 11.5801 226.927 11.6483C227.142 11.6658 227.317 11.6878 227.453 11.716C227.588 11.7449 227.74 11.7617 227.908 11.7631C228.933 11.8302 229.595 12.2191 229.896 12.9272C229.983 13.0536 230.048 13.2015 230.09 13.3755C230.132 13.5495 230.185 13.7198 230.246 13.8869C230.327 14.1109 230.391 14.2281 230.437 14.2425C230.484 14.2569 230.645 14.1825 230.92 14.0197C231.057 13.9383 231.184 13.8607 231.304 13.7856C231.423 13.7111 231.555 13.6473 231.703 13.5935C231.886 13.5265 232.043 13.5241 232.171 13.5885C232.298 13.6535 232.351 13.7669 232.328 13.9334C232.295 14.0723 232.275 14.1888 232.268 14.2853C232.26 14.3817 232.241 14.5 232.207 14.6372C234.052 14.4366 235.609 14.3585 236.875 14.4001C236.786 14.2743 236.75 14.1158 236.763 13.9217C236.806 13.8121 236.871 13.7083 236.963 13.6125C237.016 13.5305 237.061 13.4829 237.099 13.4691C237.137 13.4554 237.185 13.4222 237.25 13.3671C237.365 13.4522 237.431 13.5217 237.451 13.5769C237.613 14.0214 237.965 14.1291 238.507 13.9001C238.93 13.6836 239.359 13.5503 239.801 13.5002C240.242 13.4508 240.689 13.4203 241.144 13.4122C241.48 13.4166 241.797 13.4023 242.099 13.3705C242.4 13.3387 242.693 13.2572 242.977 13.1203C243.272 13.0127 243.49 12.8706 243.634 12.691C243.889 12.4731 243.868 12.2446 243.573 12.0049C243.515 11.9635 243.475 11.9391 243.453 11.9315C243.429 11.9246 243.389 11.9002 243.332 11.8565C243.172 11.7587 243.01 11.6598 242.849 11.5603C242.689 11.4608 242.527 11.3636 242.366 11.2641C241.952 11.3842 241.588 11.3898 241.279 11.2821C240.968 11.175 240.643 11.0572 240.305 10.9288C240.295 10.9012 240.304 10.8668 240.33 10.8261C240.414 10.8267 240.501 10.8105 240.594 10.7767C240.686 10.7429 240.774 10.7267 240.857 10.7273C241.445 10.5127 241.996 10.3589 242.505 10.2687L242.745 9.89814C242.577 9.89681 242.428 9.88861 242.296 9.87242C242.166 9.85733 242.016 9.84974 241.849 9.84607C241.272 9.86727 240.754 9.75756 240.292 9.5165C240.093 9.43074 239.892 9.36363 239.685 9.31232C239.478 9.26274 239.263 9.21457 239.038 9.16953C238.411 9.05289 238.008 8.80558 237.83 8.42933C237.711 8.22083 237.764 7.96543 237.988 7.66312L238.209 7.58241L238.255 7.70819C238.232 7.87465 238.214 8.05317 238.201 8.2472C238.211 8.27477 238.262 8.30298 238.357 8.33293C238.367 8.3605 238.397 8.35738 238.446 8.32358C238.496 8.28977 238.516 8.25909 238.506 8.23152C238.586 8.10877 238.658 7.90851 238.725 7.63243L238.845 7.44597C238.985 7.48863 239.062 7.52484 239.073 7.55241C239.093 7.60927 239.063 7.6982 238.982 7.82158C238.939 7.9329 238.904 8.03938 238.879 8.14211C238.855 8.24656 238.844 8.35993 238.847 8.48396C238.83 8.55459 238.847 8.60283 238.9 8.63042C238.951 8.65863 239.007 8.69484 239.063 8.73683C239.127 8.68236 239.193 8.63478 239.262 8.59409C239.331 8.5534 239.354 8.5058 239.334 8.45067C239.367 8.3135 239.369 8.17834 239.343 8.04505C239.315 7.91302 239.296 7.77144 239.281 7.61874C239.297 7.55047 239.282 7.47608 239.233 7.40026C239.184 7.32444 239.144 7.24313 239.114 7.16043C239.335 7.07972 239.495 7.11722 239.591 7.26948C239.729 7.53547 239.804 7.85357 239.816 8.22787C239.74 8.47637 239.801 8.6435 239.999 8.72925C240.124 8.62094 240.181 8.51447 240.164 8.40938C240.148 8.30601 240.142 8.20468 240.148 8.10884L239.92 7.48341C239.936 7.41513 239.945 7.35687 239.949 7.30691C239.952 7.25868 239.962 7.20043 239.978 7.13043C239.993 7.06216 240.032 7.02459 240.092 7.01835C240.152 7.01212 240.196 6.98833 240.223 6.947L240.299 7.15547C240.34 7.26747 240.359 7.37773 240.359 7.48908C240.357 7.60105 240.372 7.6969 240.403 7.7796C240.53 8.0163 240.717 8.01246 240.961 7.76529C241.024 7.71081 241.075 7.64569 241.109 7.56881C241.143 7.49365 241.187 7.41536 241.242 7.33098C241.375 7.12619 241.465 7.02867 241.512 7.0431C241.725 7.05885 241.766 7.17085 241.633 7.37735C241.527 7.54315 241.351 7.74792 241.108 7.99447C241.055 8.07823 240.983 8.16715 240.893 8.26233C240.804 8.35923 240.732 8.44815 240.678 8.53019C240.561 8.6667 240.536 8.80247 240.606 8.93515C240.676 9.06783 240.785 9.17045 240.937 9.24005C241.39 9.45356 241.807 9.45923 242.193 9.25408C242.458 9.06376 242.656 8.83347 242.787 8.56495C242.918 8.29642 242.962 8.04415 242.917 7.80875L242.872 7.68297C242.851 7.62784 242.845 7.58335 242.853 7.54718C242.86 7.51336 242.86 7.48204 242.85 7.45447C243.017 7.45815 243.112 7.48575 243.133 7.54089C243.432 7.90404 243.434 8.31341 243.142 8.76713C243.089 8.84917 243.026 8.93669 242.955 9.02498C242.883 9.11563 242.821 9.2008 242.767 9.28284C242.971 9.27275 243.201 9.18891 243.456 9.03131C243.712 8.87545 243.875 8.72032 243.945 8.57C243.998 8.48797 244.036 8.4197 244.058 8.36286C244.079 8.30837 244.121 8.25389 244.186 8.1988C244.176 8.17123 244.245 8.13054 244.393 8.07673C244.423 8.15943 244.43 8.23695 244.414 8.30523C244.396 8.37413 244.389 8.44099 244.392 8.50239C244.394 8.56613 244.387 8.63128 244.371 8.69955C244.592 8.61884 244.752 8.54499 244.853 8.47676C245.09 8.32777 245.173 8.15507 245.102 7.96037C245.082 7.90524 245.088 7.86389 245.119 7.83697C245.15 7.81004 245.175 7.76183 245.191 7.69183C245.237 7.70626 245.294 7.71865 245.36 7.72557C245.425 7.73312 245.463 7.7524 245.473 7.77824C245.534 7.94537 245.537 8.07113 245.485 8.15254C245.349 8.58065 245.013 8.86161 244.478 8.99246L243.704 9.27464C243.667 9.2884 243.548 9.36289 243.347 9.49874L243.433 9.56314C243.867 9.49819 244.257 9.50635 244.599 9.58653C244.941 9.6667 245.308 9.72998 245.7 9.77635C245.868 9.7794 245.973 9.8114 246.017 9.87343C246.061 9.93547 246.072 10.0506 246.049 10.217C246.03 10.5069 245.85 10.6996 245.509 10.7928C245.389 10.8053 245.17 10.8384 244.856 10.8885L244.58 10.9893C244.731 11.0612 244.864 11.1139 244.982 11.149C245.098 11.1848 245.209 11.2323 245.314 11.2875C246.064 11.5174 246.478 11.9656 246.554 12.6311C246.531 12.7975 246.527 12.9571 246.54 13.1087C246.553 13.262 246.568 13.4147 246.582 13.5657C246.569 13.7598 246.577 13.868 246.606 13.8869C246.633 13.9082 246.777 13.8713 247.034 13.7775L247.392 13.6467C247.521 13.5998 247.646 13.5698 247.766 13.5573L247.74 13.5493ZM173.175 49.9264C172.685 49.7267 172.235 49.5218 171.823 49.3089C171.412 49.0978 171.086 48.8305 170.844 48.5087C168.42 48.9521 166.033 49.1845 163.686 49.2054C161.338 49.2287 159.037 49.0668 156.786 48.721C157.933 49.1224 159.18 49.4538 160.528 49.7194C161.876 49.985 163.258 50.1737 164.675 50.2855C166.091 50.3991 167.52 50.4282 168.961 50.377C170.4 50.3241 171.805 50.1747 173.175 49.9264ZM176.293 50.5849C176.835 50.3559 177.369 50.1375 177.898 49.9268C178.427 49.7184 178.975 49.4793 179.544 49.209C179.451 49.1807 179.349 49.1632 179.242 49.1532C179.135 49.1457 179.021 49.1481 178.901 49.1606C178.255 49.3339 177.595 49.5202 176.915 49.7193C176.239 49.9195 175.506 50.0851 174.72 50.214C174.953 50.8549 175.476 50.9784 176.293 50.5849ZM184.061 47.184C183.309 47.523 182.668 47.7959 182.139 48.0025C181.611 48.2109 181.01 48.4224 180.336 48.6369C180.566 48.8071 181.023 48.8042 181.71 48.6316C182.397 48.459 183.242 48.143 184.242 47.6843L184.059 47.1829L184.061 47.184ZM184.939 46.6746C184.984 46.9117 185.097 47.0816 185.283 47.1874C185.467 47.2938 185.751 47.245 186.137 47.0416C186.448 46.8657 186.758 46.7136 187.064 46.5843C187.371 46.4566 187.722 46.3052 188.118 46.1293C187.88 45.9333 187.67 45.7579 187.488 45.6039C187.307 45.4493 187.138 45.2746 186.984 45.0792C186.697 45.4377 186.415 45.7201 186.136 45.9311C185.858 46.1438 185.459 46.3911 184.937 46.6752L184.939 46.6746ZM186.39 36.927C187.629 37.0117 188.947 36.9388 190.347 36.713C191.745 36.486 193.042 36.1864 194.24 35.8117L194.295 35.7917C194.692 35.3948 195.017 35.0011 195.27 34.6081C195.524 34.2169 195.76 33.8087 195.98 33.3806C195.131 33.9113 194.285 34.3938 193.442 34.8263C192.6 35.2605 191.699 35.6516 190.742 36.0007C189.233 36.5513 187.782 36.8603 186.388 36.9276L186.39 36.927ZM203.307 31.5115C204.394 30.8318 205.422 30.1659 206.393 29.5107C207.364 28.858 208.333 28.1959 209.3 27.5287C209.206 27.5005 209.131 27.4654 209.073 27.4223C208.312 28.0788 207.489 28.5681 206.605 28.891C206.164 29.0518 205.669 29.1856 205.124 29.2889C204.725 29.3407 204.378 29.4184 204.083 29.526C203.2 29.8482 202.544 30.4509 202.115 31.3316C201.86 31.8969 201.462 32.343 200.914 32.6679C200.365 32.9951 199.751 33.2504 199.067 33.4374C199.021 33.423 198.923 33.443 198.776 33.4968C198.488 33.5062 198.197 33.5656 197.902 33.6732C197.24 33.9148 196.667 34.4067 196.188 35.1496C198.56 34.2217 200.933 33.0084 203.307 31.5115ZM212.354 24.2397C212.601 24.1183 212.821 24.0927 213.014 24.1647C213.208 24.2367 213.296 24.3683 213.284 24.5623C213.267 24.6329 213.262 24.6736 213.267 24.6874C213.272 24.7012 213.266 24.7425 213.25 24.8108C213.551 24.6074 213.851 24.4022 214.153 24.1981C214.456 23.994 214.759 23.8032 215.072 23.6267C215.047 23.4465 215.078 23.3024 215.164 23.1911C215.248 23.0821 215.466 22.9325 215.814 22.7411C215.887 22.7142 215.965 22.6391 216.044 22.5146C216.159 22.377 216.246 22.2436 216.304 22.1133C216.359 21.9837 216.451 21.8624 216.578 21.7534C216.932 21.4662 217.237 21.1577 217.492 20.8284C217.747 20.4992 217.976 20.1562 218.179 19.797C218.292 19.5354 218.505 19.3795 218.821 19.3264C219.447 19.098 219.998 18.7232 220.475 18.2036C220.554 18.0791 220.603 17.9833 220.621 17.9144C218.824 18.4744 217.033 19.2546 215.249 20.2533C213.464 21.252 211.701 22.3365 209.961 23.5062L209.976 23.5476L210.598 24.7378C210.736 25.002 210.838 25.1385 210.903 25.146C210.968 25.1536 211.146 25.0415 211.436 24.8088C211.6 24.6867 211.751 24.5846 211.888 24.5015C212.024 24.4208 212.18 24.3325 212.355 24.2374L212.354 24.2397ZM224.431 18.9348C226.309 18.2497 228.217 17.7116 230.159 17.3171C230.249 17.2219 230.346 17.1143 230.449 16.9985C230.553 16.8827 230.65 16.7768 230.739 16.6799C230.845 16.5165 230.907 16.3983 230.924 16.3294C230.958 16.1922 230.999 16.0502 231.051 15.9044C231.102 15.761 231.138 15.6051 231.163 15.4381C230.995 15.4367 230.835 15.4561 230.684 15.4955C230.532 15.5355 230.372 15.5548 230.204 15.5535C230.141 15.608 230.074 15.6556 230.006 15.6963C229.937 15.7369 229.871 15.7845 229.807 15.839C229.407 16.1118 229.085 16.1494 228.848 15.9527C228.357 16.3213 227.816 16.6124 227.228 16.827C226.712 17.0153 226.153 17.141 225.55 17.2029C225.189 17.241 224.86 17.3124 224.567 17.4194C223.977 17.6346 223.483 18.0508 223.083 18.6692C222.773 19.1925 222.251 19.588 221.515 19.8564C221.33 19.924 221.163 19.9772 221.01 20.0172C220.858 20.0572 220.684 20.0972 220.49 20.1366C220.417 20.1635 220.357 20.1697 220.309 20.1559C220.022 20.1671 219.73 20.2247 219.435 20.3324C218.957 20.5069 218.515 20.8417 218.112 21.3344C217.958 21.4864 217.834 21.6329 217.741 21.7763C217.648 21.9215 217.523 22.0686 217.369 22.2183C218.523 21.6082 219.685 21.0181 220.854 20.4511C222.022 19.8823 223.215 19.3767 224.429 18.9337L224.431 18.9348ZM231.434 17.0412C232.646 16.8198 233.97 16.6215 235.407 16.4428L235.462 16.4228C235.605 16.2456 235.815 16.1356 236.093 16.0986C236.669 16.078 237.199 15.869 237.68 15.4729C237.807 15.3639 237.897 15.2688 237.95 15.185C237.94 15.1574 237.943 15.1405 237.962 15.1336C237.979 15.1274 237.985 15.1098 237.975 15.0823C237.136 15.0739 236.244 15.0832 235.296 15.1149C234.348 15.1466 233.27 15.2235 232.066 15.3484C231.963 15.64 231.871 15.9254 231.785 16.2084C231.7 16.4913 231.584 16.7699 231.434 17.0453L231.434 17.0412Z" fill="white"/>
</svg>
