<svg width="872" height="221" viewBox="0 0 872 221" fill="none" xmlns="http://www.w3.org/2000/svg">
<g clip-path="url(#clip0_12363_3979)">
<path d="M174.32 57.7607C177.57 57.7607 180.45 59.6607 181.65 62.5607L214.24 142.051L247.39 62.4807C248.6 59.6707 251.47 57.7807 254.63 57.7807C260.02 57.7807 263.73 63.0207 261.68 67.9107L222.78 159.791C222.03 161.591 220.65 162.861 218.98 163.591C217.69 164.311 216.1 164.771 214.43 164.771H214.06C212.85 164.771 211.74 164.501 210.62 164.141C208.49 163.591 206.63 162.061 205.7 159.891L167.16 68.1007C165.03 63.1207 168.73 57.7907 174.31 57.7907V57.7707L174.32 57.7607ZM110.15 57.5207H110.52C114.05 57.7907 116.83 60.5907 116.83 64.1207C116.83 67.6507 114.04 70.4507 110.52 70.7207H109.77C86.83 70.7207 68.36 88.8107 68.36 111.051C68.36 133.291 86.93 151.381 109.77 151.381C132.61 151.381 151.18 133.291 151.18 111.051V110.781C151.18 107.161 174.92 156.701 109.76 164.591C79.62 168.241 54.79 140.621 54.79 111.051C54.79 81.4807 79.39 57.5107 109.76 57.5107H110.14L110.15 57.5207ZM164.76 91.5207C164.76 95.1407 161.69 98.1207 157.99 98.1207C154.29 98.1207 151.22 95.1407 151.22 91.5207C151.22 87.9007 154.29 84.9207 157.99 84.9207C161.71 85.0107 164.76 87.9007 164.76 91.5207ZM291.03 109.161C291.03 106.091 293.54 103.651 296.7 103.651H331.24C334.4 103.651 336.91 106.091 336.91 109.161V111.241C336.91 114.311 334.4 116.751 331.24 116.751H296.7C293.54 116.751 291.03 114.311 291.03 111.241V109.161ZM280.35 150.851H331.14C334.3 150.851 336.81 153.291 336.81 156.361V159.081C336.81 162.151 334.3 164.591 331.14 164.591H271.91C268.75 164.591 266.24 162.151 266.24 159.081V63.0507C266.24 59.9807 268.75 57.5407 271.91 57.5407H331.14C334.3 57.5407 336.81 59.9807 336.81 63.0507V65.7707C336.81 68.8407 334.3 71.2807 331.14 71.2807H280.35V150.851ZM716.28 103.651C713.12 103.651 710.61 106.091 710.61 109.161V111.241C710.61 114.311 713.12 116.751 716.28 116.751H750.82C753.98 116.751 756.49 114.311 756.49 111.241V109.161C756.49 106.091 753.98 103.651 750.82 103.651H716.28ZM699.94 150.851H750.73C753.89 150.851 756.4 153.291 756.4 156.361V159.081C756.4 162.151 753.89 164.591 750.73 164.591H691.48C688.32 164.591 685.81 162.151 685.81 159.081V63.0507C685.81 59.9807 688.32 57.5407 691.48 57.5407H750.73C753.89 57.5407 756.4 59.9807 756.4 63.0507V65.7707C756.4 68.8407 753.89 71.2807 750.73 71.2807H699.94V150.851ZM536.89 58.6207C538.1 57.7207 539.58 57.3507 540.97 57.5407H544.88C548.04 57.5407 550.55 59.9807 550.55 63.0507V159.181C550.55 162.251 548.04 164.691 544.88 164.691H541.53C538.37 164.691 535.86 162.251 535.86 159.181V76.1607L515.62 91.2707C513.11 93.0707 509.67 92.6307 507.82 90.1907L506.43 88.2907C504.58 85.8507 505.14 82.3207 507.55 80.5107L536.89 58.6207ZM432.63 57.5207C429.47 57.5207 426.96 59.9607 426.96 63.0307V65.5607C426.96 68.6307 429.47 71.0707 432.63 71.0707H464.21V159.151C464.21 162.221 466.72 164.661 469.88 164.661H473.23C476.39 164.661 478.9 162.221 478.9 159.151V71.0707H498.21C498.58 71.0707 498.86 70.9807 499.14 70.8007L514.46 60.5807C515.85 59.6807 515.21 57.6007 513.53 57.6007H439.44L432.67 57.5107H432.65L432.63 57.5207ZM624.64 140.811C623.07 142.261 621.01 143.161 618.8 143.161C616.59 143.161 614.35 142.171 612.76 140.631C612.67 140.541 612.57 140.451 612.57 140.451C612.51 140.391 612.45 140.331 612.38 140.271C611.63 139.461 610.99 138.561 610.62 137.461L581 88.8107V159.071C581 162.141 578.49 164.581 575.33 164.581H571.98C568.82 164.581 566.31 162.141 566.31 159.071V63.0507C566.31 59.9807 568.82 57.5407 571.98 57.5407H575.51C577.55 57.3607 579.5 58.3507 580.62 60.1707L618.69 122.751L656.48 60.5307C656.67 60.2607 656.85 59.9807 657.04 59.7207C658.24 58.0907 660.2 57.2807 662.15 57.5507H664.94C668.1 57.5507 670.61 59.9907 670.61 63.0607V159.191C670.61 162.261 668.1 164.701 664.94 164.701H661.59C658.43 164.701 655.92 162.261 655.92 159.191V89.8307L626.85 137.581C626.38 138.571 625.84 139.481 625.18 140.211C624.99 140.481 624.81 140.671 624.62 140.841L624.64 140.811ZM374.22 118.021V116.841C374.22 110.781 379.23 105.901 385.45 105.901H390.09C396.4 105.901 401.24 104.271 404.57 101.101C408.01 97.9407 409.68 93.6007 409.68 88.1607C409.68 82.7207 408.01 78.7507 404.57 75.3207C401.32 71.8807 396.58 70.6207 390.27 70.6207H367.99C367.34 70.6207 366.7 70.5307 366.04 70.3507V159.241C366.04 162.311 363.53 164.751 360.37 164.751H357.02C353.86 164.751 351.35 162.311 351.35 159.241V63.0507C351.35 59.9807 353.86 57.5407 357.02 57.5407H390.73C397.5 57.5407 403.45 58.9007 408.47 61.5107C413.48 64.0407 417.38 67.6607 420.07 72.1907C422.86 76.7107 424.24 81.9507 424.24 87.7407C424.24 93.5307 422.85 99.1307 420.07 103.661C417.38 108.181 413.58 111.711 408.47 114.341C404.02 116.511 398.82 117.781 392.96 117.961C393.15 118.141 393.33 118.331 393.43 118.511L422.03 153.231C425.83 157.841 422.5 164.621 416.46 164.621C414.33 164.621 412.29 163.721 410.89 161.991L374.22 118.041V118.021Z" fill="white"/>
<path d="M85.7101 197.87C132.83 200.3 131.29 167.28 131.29 167.28C134.57 173.3 134.02 179.64 134.02 179.64C140.39 171.71 140.76 163.47 140.76 163.47C142.58 166.64 141.85 171.24 141.85 171.24C149.86 163.31 151.14 152.06 151.14 152.06C152.41 155.71 152.41 160.62 152.41 160.62C160.06 149.05 158.97 135.58 158.97 135.58C160.97 139.23 161.82 143.96 161.82 143.96C172.15 115.41 149.07 103.25 149.07 103.25C149.07 103.25 153.93 123.07 139.05 123.07C124.17 123.07 118.1 105.62 109.14 105.62C100.18 105.62 94.1101 123.07 79.2301 123.07C64.3501 123.07 69.2101 103.25 69.2101 103.25C69.2101 103.25 46.1301 115.41 56.4601 143.96C56.4601 143.96 57.3101 139.22 59.3101 135.58C59.3101 135.58 58.2201 149.05 65.8701 160.62C65.8701 160.62 65.8701 155.71 67.1401 152.06C67.1401 152.06 68.4101 163.31 76.4301 171.24C76.4301 171.24 75.7001 166.64 77.5201 163.47C77.5201 163.47 77.8801 171.71 84.2601 179.64C84.2601 179.64 83.7101 173.3 86.9901 167.28C86.9901 167.28 101.92 179.8 85.7201 197.87H85.7101Z" fill="white"/>
<path d="M149.35 72.7301L53.6702 95.6101C48.5902 96.8301 43.4602 93.7801 42.2202 88.8001C40.9802 83.8201 44.0902 78.8001 49.1702 77.5901L144.85 54.7101C149.93 53.4901 155.06 56.5401 156.3 61.5201C157.54 66.5001 154.43 71.5201 149.35 72.7301Z" fill="#F9F8F7"/>
<path d="M144.85 54.7005C144.85 54.7005 147.86 48.2705 140.83 38.5805C140.83 38.5805 152.32 43.1805 163.92 65.3905L174.91 62.7605C174.91 62.7605 154.51 -8.34949 91.4604 6.74051C32.6004 20.8205 49.1804 77.5905 49.1804 77.5905L144.86 54.7105L144.85 54.7005Z" fill="#CC0000"/>
<path d="M178.94 65.9309C180.18 70.9109 177.07 75.9309 171.99 77.1409C166.91 78.3509 161.78 75.3109 160.54 70.3309C159.3 65.3509 162.41 60.3309 167.49 59.1209C172.57 57.9109 177.7 60.9509 178.94 65.9309Z" fill="#F9F8F7"/>
<g style="mix-blend-mode:multiply">
<path d="M49.1802 77.591L97.0202 66.151L82.8502 9.29102C34.3002 26.611 49.1802 77.591 49.1802 77.591Z" fill="#E6E7E8"/>
</g>
<path d="M108.85 141.36C115.9 141.36 121.62 135.76 121.62 128.85H96.0801C96.0801 135.76 101.8 141.36 108.85 141.36Z" fill="#343844"/>
<path d="M156.05 46.561C156.05 46.561 155.24 45.511 154.02 43.941C153.73 43.551 153.37 43.161 153.05 42.721C152.7 42.301 152.33 41.851 151.95 41.391C151.58 40.931 151.16 40.471 150.75 40.001C150.35 39.521 149.92 39.061 149.49 38.601C149.09 38.111 148.61 37.691 148.2 37.221C147.76 36.771 147.34 36.331 146.92 35.911C146.06 35.091 145.27 34.281 144.55 33.621C144.19 33.301 143.88 32.951 143.58 32.691C143.28 32.431 143.03 32.171 142.81 31.971C142.39 31.551 142.16 31.291 142.16 31.291C142.16 31.291 142.5 31.361 143.08 31.531C143.66 31.701 144.5 31.951 145.41 32.411C145.87 32.631 146.4 32.861 146.88 33.191C147.38 33.511 147.93 33.811 148.43 34.211C148.93 34.611 149.49 34.991 149.98 35.451C150.47 35.911 150.98 36.371 151.44 36.891C152.37 37.901 153.18 39.011 153.83 40.111C154.19 40.641 154.43 41.221 154.7 41.731C154.94 42.261 155.16 42.771 155.32 43.251C156.02 45.171 156.02 46.571 156.02 46.571L156.05 46.561Z" fill="#CC0000"/>
</g>
<defs>
<clipPath id="clip0_12363_3979">
<rect width="872" height="220.49" fill="white"/>
</clipPath>
</defs>
</svg>
