<svg width="95" height="53" viewBox="0 0 95 53" fill="none" xmlns="http://www.w3.org/2000/svg">
<path fill-rule="evenodd" clip-rule="evenodd" d="M18.3605 7.94683L19.7605 7.02214C19.7286 6.99697 19.6965 6.97199 19.6641 6.94703C19.4784 6.80078 19.2889 6.66177 19.0981 6.52565C19.0371 6.48286 18.9731 6.43891 18.9107 6.39623C18.8451 6.351 18.7781 6.30588 18.7111 6.26215C18.6597 6.227 18.6083 6.19325 18.5555 6.16098C18.4949 6.12235 18.4358 6.08499 18.3753 6.04773C18.296 5.99795 18.2169 5.94956 18.1364 5.90266C18.0451 5.8496 17.9537 5.79655 17.8625 5.74487C17.2581 5.40429 16.6384 5.11773 16.0126 4.88869L16.0126 4.88867L16.0125 4.88864L16.0124 4.88861C15.9394 4.86206 15.8664 4.83551 15.7936 4.81172C15.6674 4.76683 15.5399 4.7262 15.4141 4.68685C15.3141 4.6567 15.2126 4.62667 15.1128 4.59929C15.013 4.57192 14.9119 4.54604 14.8123 4.52143C14.6357 4.47749 14.4566 4.43931 14.2793 4.40517C14.2313 4.39622 14.1848 4.38854 14.1383 4.38087C14.0616 4.36569 13.9852 4.35328 13.9088 4.34226C13.8085 4.32745 13.7082 4.31402 13.6081 4.30198C12.9505 4.22283 12.2954 4.21587 11.6546 4.28299C11.5356 4.29601 11.4166 4.30903 11.2977 4.32344C11.2341 4.33079 11.1718 4.33927 11.1085 4.34791L11.1084 4.34792L11.1083 4.34793L11.0967 4.34951L10.8811 4.37807C10.2816 4.463 9.69285 4.57218 9.11781 4.70679C9.02899 4.72731 8.94174 4.7491 8.8545 4.7709C8.44721 4.87077 8.04684 4.98404 7.65497 5.11198L7.64112 5.08518L6.06394 2L5.04283 5.75711C5.04283 5.75711 5.19247 5.85733 5.41765 6.01734L5.4208 6.01989C5.16369 6.14756 4.91309 6.2831 4.66595 6.42534L4.66447 6.42545C4.56801 6.48128 4.47313 6.53839 4.37824 6.5955L4.3782 6.59552L4.37817 6.59554L4.37813 6.59556L4.37809 6.59558L4.37805 6.5956L4.37802 6.59562L4.37798 6.59565L4.37794 6.59567C4.37191 6.59935 4.36589 6.60324 4.35979 6.60718L4.35978 6.60719L4.35977 6.60719C4.35012 6.61343 4.34026 6.6198 4.32982 6.62569C4.28022 6.65582 4.23209 6.68584 4.18259 6.71736L4.18257 6.71737L4.18255 6.71738L4.18253 6.7174L4.18251 6.71741L4.18249 6.71743L4.18247 6.71744L4.18244 6.71746L4.18242 6.71747C4.0679 6.78997 3.95338 6.86247 3.84064 6.93902C3.81242 6.95781 3.78419 6.97661 3.75744 6.9953C3.74515 7.00349 3.73342 7.01163 3.72188 7.01965C3.70691 7.03004 3.69225 7.04022 3.67708 7.04999L3.64619 7.07185C3.63049 7.08304 3.6151 7.094 3.59967 7.10446C3.51804 7.16202 3.4421 7.21638 3.37058 7.27041L3.35143 7.28478C3.33169 7.29957 3.31256 7.3139 3.29348 7.32902C3.1141 7.46623 2.96914 7.58834 2.85891 7.69953C2.85275 7.70625 2.84656 7.71263 2.84037 7.719C2.83418 7.72538 2.82798 7.73175 2.82182 7.73847C2.68988 7.87632 2.61121 7.99351 2.58316 8.09441C2.5783 8.10869 2.57638 8.12275 2.57446 8.13681L2.57446 8.13681C2.57309 8.1383 2.57309 8.13831 2.5732 8.13969L5.30296 8.55886L5.30296 8.55887L5.30295 8.55887L5.30294 8.55888L5.30294 8.55889L5.30293 8.55889L5.30292 8.5589L5.30291 8.5589L5.30291 8.55891C5.2335 8.62112 5.16408 8.68333 5.09478 8.74692C3.90772 9.81357 2.81931 10.8924 2.81931 10.8924L0 18.6523L1.18268 20.7939L4.52891 20.5201L6.45736 18.0302L6.45726 18.0289L6.90595 17.4499L6.93195 17.441L8.52396 16.8606L9.22049 16.607L10.6899 16.0705C10.6899 16.0705 10.8372 15.7409 11.0116 15.3173L11.0115 15.3159C11.1192 15.0518 11.2389 14.7493 11.3394 14.4676L11.3393 14.4663C11.3933 14.3161 11.4435 14.1746 11.4813 14.0451C11.4827 14.0436 11.4827 14.0436 11.4812 14.0437L11.4811 14.0424C11.4857 14.0267 11.4904 14.0115 11.4949 13.9967L11.4949 13.9967L11.4949 13.9967C11.5032 13.9698 11.5111 13.9442 11.5178 13.9185C11.6006 14.0961 11.671 14.2662 11.7306 14.4302L11.7307 14.4316L11.7422 14.4634L11.7423 14.4635L11.7423 14.4637C11.7514 14.4885 11.7601 14.5126 11.7682 14.5374C11.7833 14.5808 11.7967 14.6215 11.8087 14.6638C11.8168 14.687 11.8238 14.7114 11.8307 14.7351L11.8341 14.7468C11.8343 14.7496 11.8345 14.7523 11.8362 14.755L11.8363 14.7564C11.9543 15.1679 11.9947 15.5323 11.9758 15.8552C11.9747 15.8804 11.9735 15.9041 11.9708 15.928L11.9709 15.9294C11.9648 16.0064 11.9539 16.0795 11.9414 16.1501C11.934 16.1896 11.9264 16.2277 11.9159 16.2647L11.916 16.2661C11.8337 16.6146 11.6731 16.9035 11.4658 17.1443L11.4644 17.1444L11.4645 17.1458C11.4645 17.1458 11.463 17.1459 11.4631 17.1473C11.4289 17.186 11.3947 17.2234 11.3603 17.2593C11.326 17.2953 11.2914 17.3285 11.254 17.3633L11.2526 17.3648C11.2512 17.3649 11.2512 17.3649 11.2498 17.3664C10.2444 18.2664 8.55801 18.3347 8.55801 18.3347L7.42076 19.7526L7.42087 19.754C7.42003 19.754 7.4197 19.7545 7.4193 19.7549L7.41869 19.7554L7.41802 19.7556L7.41676 19.7585L7.12812 20.1195L7.12665 20.1196L7.12401 20.124L6.79595 20.5325L6.79447 20.5326L6.79458 20.534L6.75937 20.5784L6.75789 20.5785L6.758 20.5799L6.32293 21.123L6.32146 21.1231L6.32156 21.1245L6.29447 21.1585L6.293 21.1586L6.2931 21.16L5.88914 21.6632L5.88767 21.6633L5.88777 21.6647L5.86753 21.6913L5.86605 21.6914L5.86616 21.6928L5.22363 22.4935L5.22216 22.4936L5.22226 22.495L5.18705 22.5393L5.18558 22.5394L5.18568 22.5408L4.45903 23.4452L4.45756 23.4453L4.45766 23.4467L4.34792 23.5843L4.34645 23.5844L4.34655 23.5858L3.51828 24.6174L3.51839 24.6188L3.33528 24.8454L3.33538 24.8467L0.635299 28.2137C0.790802 28.3928 0.950313 28.5661 1.11709 28.7374C1.12034 28.7413 1.12349 28.7439 1.12821 28.7477L1.12822 28.7477C1.18619 28.8102 1.24552 28.8712 1.30633 28.9321C1.3977 29.0255 1.49034 29.116 1.58592 29.2064C1.59705 29.2167 1.60784 29.2273 1.61864 29.238C1.62943 29.2487 1.64022 29.2594 1.65135 29.2697C1.65359 29.2732 1.65714 29.2767 1.66069 29.2801L1.66584 29.2853C1.67456 29.293 1.6829 29.3007 1.69125 29.3085C1.6996 29.3162 1.70796 29.3239 1.71668 29.3316C1.76122 29.3729 1.80576 29.4141 1.85019 29.4539L1.85029 29.4553L1.86372 29.4672C1.87254 29.4749 1.88156 29.4828 1.89 29.4913C1.93454 29.5325 1.98044 29.5723 2.02782 29.6119C2.1358 29.7096 2.248 29.8043 2.36167 29.8988C2.37506 29.9097 2.38809 29.9205 2.40112 29.9314C2.41414 29.9423 2.42717 29.9531 2.44057 29.964C2.52734 30.0354 2.61549 30.1054 2.70511 30.1753C2.72317 30.1893 2.74086 30.2033 2.75855 30.2172L2.75861 30.2173C2.7763 30.2313 2.794 30.2453 2.81206 30.2592C2.91103 30.3354 3.01295 30.4113 3.11329 30.486C3.12191 30.4923 3.13055 30.4989 3.13919 30.5056C3.14784 30.5123 3.15648 30.5189 3.16509 30.5252C3.29192 30.6174 3.42138 30.7052 3.55231 30.7929C3.5656 30.8024 3.57924 30.8114 3.59287 30.8205C3.60651 30.8296 3.62014 30.8387 3.63343 30.8481C3.6927 30.8882 3.75333 30.9269 3.81239 30.9642C3.83898 30.9831 3.86546 31.0007 3.89184 31.0168C3.96035 31.0618 4.03182 31.1066 4.1016 31.1487C4.1327 31.1687 4.16381 31.1886 4.19481 31.2072C4.23799 31.2353 4.28099 31.261 4.32398 31.2868L4.36706 31.3127L4.38478 31.3233L4.40195 31.3338C4.41359 31.3409 4.42523 31.348 4.43684 31.3548L4.46932 31.3733C4.4987 31.3899 4.5281 31.4068 4.5575 31.4238C4.5869 31.4407 4.6163 31.4577 4.64568 31.4743C4.6936 31.5014 4.74153 31.5284 4.79093 31.5554L4.79098 31.5554C4.79716 31.5591 4.80335 31.5628 4.80943 31.5651C4.93145 31.6326 5.05485 31.6986 5.17951 31.7617C5.18566 31.7647 5.19144 31.7677 5.19722 31.7708C5.203 31.7738 5.20878 31.7769 5.21493 31.7799C5.33192 31.8394 5.45038 31.8988 5.57011 31.9553C5.577 31.9583 5.58354 31.9616 5.59009 31.965C5.59663 31.9683 5.60317 31.9716 5.61005 31.9746C5.73903 32.036 5.86938 32.0959 6.0011 32.1543L6.1159 32.2042C6.14648 32.2173 6.17692 32.2305 6.20736 32.2437C6.26824 32.2701 6.32912 32.2965 6.39122 32.3215L6.39125 32.3216L6.3913 32.3216C6.4493 32.3451 6.50731 32.3686 6.56521 32.3907L6.64002 32.4203C6.68986 32.4401 6.73971 32.4599 6.78945 32.4784C6.85043 32.5017 6.91131 32.5237 6.97366 32.5455C7.0482 32.5733 7.12265 32.5997 7.1971 32.6261L7.19739 32.6262L7.3797 32.6878C7.45719 32.7141 7.53468 32.7403 7.61354 32.7651C7.67273 32.7844 7.73035 32.8023 7.78944 32.8202L8.03486 32.8938L8.035 32.8939C8.06376 32.9029 8.09253 32.9118 8.12119 32.9194L8.12723 32.9211L8.13328 32.9227C8.14514 32.9265 8.15788 32.9298 8.17078 32.9331L8.18409 32.9365L8.20131 32.9413L8.25425 32.9558C8.28953 32.9655 8.3248 32.9753 8.35999 32.9838C8.39223 32.9935 8.42532 33.0022 8.45787 33.0108L8.45794 33.0108L8.48396 33.0177L8.51142 33.0249C8.5406 33.0326 8.57044 33.0404 8.60016 33.0467C8.61835 33.0523 8.63801 33.0578 8.65757 33.0619L8.65803 33.062C8.71971 33.0768 8.78139 33.0917 8.84297 33.1052C8.95612 33.1329 9.07064 33.1592 9.18642 33.1826L9.2858 33.2044C9.36099 33.2197 9.43766 33.2349 9.51432 33.2501L9.5158 33.25C9.51732 33.2506 9.51919 33.2508 9.52106 33.251L9.5232 33.2512C9.52431 33.2514 9.52538 33.2516 9.52631 33.252C9.66755 33.2791 9.80859 33.3034 9.95099 33.3262C9.96003 33.3283 9.96897 33.329 9.97802 33.3311C10.0311 33.3395 10.0845 33.3474 10.1382 33.3554L10.1383 33.3554C10.1816 33.3618 10.2251 33.3682 10.2686 33.3749C10.2716 33.3747 10.2746 33.3759 10.2776 33.3757L10.2963 33.3784L10.315 33.3812L10.3153 33.3813L10.3155 33.3813C10.4021 33.3929 10.4887 33.4045 10.5767 33.4147L10.7456 33.4355C10.8307 33.4445 10.9158 33.4535 11.0008 33.4611C11.0306 33.4637 11.0601 33.4668 11.0895 33.4698C11.119 33.4728 11.1485 33.4758 11.1783 33.4785C11.2369 33.4839 11.2953 33.4879 11.3542 33.492L11.3543 33.492L11.3544 33.492L11.3547 33.492L11.43 33.4974C11.4583 33.4991 11.4866 33.5012 11.515 33.5033C11.548 33.5057 11.5811 33.5081 11.6146 33.5101C11.6897 33.5145 11.7658 33.5178 11.841 33.521L11.8658 33.522C11.897 33.5232 11.9279 33.5247 11.9587 33.5262C11.9896 33.5278 12.0204 33.5293 12.0516 33.5305C12.1377 33.5338 12.2236 33.5344 12.3095 33.535H12.3096L12.4921 33.5381C12.5757 33.5384 12.6605 33.5374 12.7442 33.5364L12.76 33.5363C12.8178 33.5361 12.8755 33.536 12.9346 33.5344C13.0002 33.5332 13.0663 33.5308 13.1323 33.5283L13.1325 33.5283C13.1661 33.5271 13.1997 33.5258 13.2331 33.5247C13.2575 33.5236 13.2818 33.5229 13.3062 33.5221C13.3306 33.5213 13.355 33.5206 13.3793 33.5194C13.5284 33.5125 13.6773 33.5029 13.8261 33.4918C14.0028 33.4787 14.1778 33.4615 14.3512 33.443L14.454 33.4312C14.7874 33.3939 15.1173 33.3485 15.4433 33.2908L15.4477 33.2905L15.4696 33.2866C15.5415 33.2736 15.6143 33.2605 15.6859 33.2464C15.7706 33.2303 15.8538 33.2144 15.9384 33.197L15.9388 33.1969L15.9388 33.1969L15.939 33.1969C16.0045 33.1837 16.0699 33.1705 16.1353 33.1559C16.1879 33.145 16.2403 33.1328 16.2912 33.1206C16.3451 33.1083 16.3975 33.096 16.4499 33.0838C16.5402 33.0632 16.6289 33.0413 16.7175 33.018C16.8208 32.9922 16.9253 32.9636 17.0283 32.935C17.13 32.908 17.23 32.8783 17.33 32.8486C17.3967 32.8297 17.4489 32.8147 17.5269 32.788C17.9536 32.6428 18.4974 32.3723 18.8126 32.2156L18.9029 32.1708C18.9044 32.1706 18.9043 32.1693 18.9057 32.1692C18.9329 32.156 18.9601 32.1428 18.9857 32.1284L18.9911 32.1258C19.5741 31.8475 21.2033 30.9543 20.9377 30.8818C13.3133 28.8012 10.6307 20.3535 10.6307 20.3535C11.8795 27.1967 15.226 30.0027 17.4726 31.4069C17.0706 31.539 16.6207 31.6677 16.1341 31.7811C11.5012 32.1771 8.74512 24.7272 8.74512 24.7272C9.5852 29.2236 10.8915 31.2336 12.0447 32.1637C11.5365 32.1351 11.0219 32.0744 10.5079 31.9744C10.1893 31.9125 9.87266 31.8382 9.55934 31.7537C6.30502 30.1394 6.06972 25.3511 6.06972 25.3511C5.58897 28.2288 6.12567 29.8199 6.79304 30.7352C4.83309 29.8305 3.24087 28.7202 2.48082 28.0817L9.19244 19.4505C10.1858 19.4639 12.3952 18.9914 13.2865 16.9941C14.4007 14.4973 11.2865 11.8798 11.2865 11.8798L9.97099 14.9403L6.69572 16.0947L5.04466 18.4304L2.93721 18.6586L2.15866 16.3632L3.63522 11.8798L7.68904 8.18845L5.43393 7.54413C6.4124 6.96934 9.01901 5.83089 11.7424 5.787C10.812 6.25676 9.75072 7.21107 8.73786 9.11799C8.73786 9.11799 11.4108 6.02681 14.7384 6.22806C15.1882 6.36176 15.6169 6.51721 16.0154 6.68201C14.8534 6.90354 13.4495 7.51131 12.2285 8.87123C12.2285 8.87123 15.3749 7.35259 18.2135 7.84347C18.2659 7.8793 18.315 7.91382 18.3605 7.94683ZM4.33444 12.7403C4.56711 12.8387 5.14252 12.9765 5.5828 12.7403C6.02309 12.504 6.04367 11.219 5.99893 10.606C5.4441 11.1743 4.33444 12.3967 4.33444 12.7403ZM21.8237 7.31097C24.0293 5.53609 26.7982 4.3688 29.5369 4.05951C30.3707 3.96531 32.0755 3.97712 32.9351 4.08308C37.2704 4.61724 41.1513 6.998 43.5363 10.5864C45.069 12.8926 45.9108 15.5517 45.9931 18.3477C46.0569 20.5139 45.745 22.3026 44.9646 24.2458C42.9913 29.1588 38.6145 32.6102 33.3498 33.4047C31.646 33.6618 29.5571 33.5727 27.8546 33.1702C22.9525 32.0112 19.0153 28.5389 17.2884 23.8516C16.1199 20.6799 16.097 17.1662 17.2233 13.8901C17.4874 13.1221 18.1469 11.7234 18.569 11.0365C19.3652 9.74071 20.6927 8.22119 21.8237 7.31097ZM30.4046 5.35175C30.722 5.26676 30.997 5.18183 31.0158 5.16309C31.0494 5.12948 30.9277 5.13114 30.2987 5.17287C29.1157 5.25145 27.3914 5.63481 26.3145 6.05869C25.4812 6.38672 23.9993 7.13641 24.0614 7.19854C24.0732 7.21035 24.2646 7.16341 24.4868 7.09417C25.0538 6.91764 25.9547 6.78101 26.5532 6.78088C27.0534 6.78075 27.0731 6.77459 27.8611 6.36887C28.7923 5.88953 29.5948 5.56862 30.4046 5.35175ZM36.81 7.77456C36.1698 7.29204 35.3065 6.73826 34.552 6.32625C34.3076 6.19272 34.0933 6.0855 34.0759 6.08785C34.0584 6.0902 33.6156 6.18682 33.0919 6.30255C30.8925 6.78844 28.8617 7.3804 28.1528 7.74216L27.848 7.89773L27.2793 9.16539C26.9665 9.86261 26.7181 10.4638 26.7271 10.5015C26.7396 10.553 31.6037 14.7563 32.1841 15.217C32.2722 15.2869 32.6757 15.2379 34.6892 14.9131C36.0093 14.7001 37.1072 14.5054 37.129 14.4804C37.1733 14.4295 38.5197 9.5159 38.5197 9.40493C38.5197 9.27903 37.44 8.24945 36.81 7.77456ZM42.0547 10.6523C41.9784 10.6193 41.4464 10.4635 40.8724 10.3062C40.2985 10.1488 39.8102 10.0201 39.7874 10.0201C39.7646 10.0201 39.4324 11.1707 39.0491 12.5769L38.3522 15.1337L38.9164 16.3089C39.2267 16.9552 39.7143 17.9557 40 18.5322L40.5194 19.5803L41.2177 19.6613C41.6018 19.7059 42.3388 19.7937 42.8556 19.8565C43.3724 19.9192 43.8048 19.9542 43.8165 19.9342C43.8282 19.9142 43.9108 19.5692 44 19.1674C44.2374 18.0983 44.3601 17.0341 44.3601 16.0433C44.3601 15.2061 44.3503 15.1398 44.1296 14.4843C43.8537 13.6647 43.4263 12.6939 43.0732 12.0846C42.6323 11.3238 42.1994 10.715 42.0547 10.6523ZM20.4804 12.4452C20.4104 12.2469 20.3 11.8313 20.235 11.5218C20.1699 11.2121 20.1044 10.9465 20.0893 10.9314C20.0743 10.9163 19.9098 11.1411 19.7239 11.4308C18.7262 12.9852 18.0866 14.6546 17.7209 16.6582C17.6285 17.1646 17.6058 17.6028 17.609 18.818C17.6126 20.2015 17.6286 20.4219 17.7818 21.2001C17.8747 21.6718 17.9887 22.1831 18.0352 22.3364L18.1198 22.6152L18.7391 21.8626C19.2865 21.1974 19.3541 21.0883 19.3212 20.9239C19.3008 20.8216 19.2525 20.3278 19.214 19.8267C19.0522 17.7257 19.4509 15.3996 20.2985 13.4989L20.6075 12.8059L20.4804 12.4452ZM31.324 16.2459L28.5963 13.9111C27.0962 12.627 25.8358 11.5569 25.7955 11.5329C25.7552 11.509 24.8549 11.8839 23.7947 12.366C22.4741 12.9665 22.0386 13.1288 21.7927 13.4406C21.6293 13.6478 21.5497 13.9209 21.3499 14.4324C20.4746 16.673 20.2386 19.5181 20.7859 21.2319C20.992 21.8776 21.3881 22.5349 21.8919 23.0675C22.4561 23.6639 23.5235 24.5033 23.7177 24.5033C23.8212 24.5033 29.2391 22.1747 30.2001 21.7172L30.4189 21.613L30.8714 18.9294L31.324 16.2459ZM43.6935 21.2977L42.2652 21.1264C41.4796 21.0321 40.7309 20.9416 40.6015 20.9252C40.3671 20.8954 40.3612 20.9007 38.9182 22.3976C38.1216 23.2238 37.2913 24.0887 37.073 24.3194L36.6761 24.7391L36.5829 27.1462C36.5316 28.4701 36.4894 29.656 36.4889 29.7815L36.4882 30.0097L37.0437 30.1774C38.0425 30.4788 38.1355 30.4884 38.4243 30.319C39.8818 29.4642 41.504 27.8914 42.547 26.3219C42.8197 25.9114 42.9364 25.6489 43.1157 25.0427C43.5403 23.6068 43.6777 22.8882 43.686 22.0588L43.6935 21.2977ZM35.3051 25.0059C35.2953 24.9854 34.3043 24.4923 33.1028 23.9102C31.9014 23.328 30.9075 22.8542 30.8942 22.8573C30.8809 22.8603 30.1701 23.1722 29.3147 23.5503C28.4593 23.9285 27.0023 24.5677 26.0771 24.9708L24.3948 25.7038L24.3739 26.0088C24.3469 26.4028 24.4692 27.5906 24.5935 28.1394C24.6811 28.5265 24.7218 28.5952 25.0187 28.856C26.5483 30.2 29.1059 31.2502 31.3597 31.4597C31.8179 31.5023 31.8954 31.49 32.5659 31.2678C33.3652 31.0029 34.4777 30.5216 34.8782 30.2673L35.1411 30.1006L35.1858 28.9376C35.2734 26.6663 35.3226 25.0427 35.3051 25.0059ZM23.1543 29.0444C22.8589 28.9461 22.4205 28.7846 22.18 28.6854C21.9395 28.5863 21.7274 28.5052 21.7087 28.5052C21.5466 28.5052 23.0213 29.7128 23.7917 30.2108C25.1247 31.0726 27.2358 31.9459 28.2037 32.0359C28.5836 32.0712 28.5416 32.0464 27.6007 31.6802C26.4187 31.2201 25.2693 30.5383 24.2652 29.7015C23.7785 29.2959 23.6097 29.1961 23.1543 29.0444Z" fill="white"/>
<path d="M56.2764 14.0034V15H50.0176V14.0034H56.2764ZM56.0732 6.64648L50.3096 15H49.5542V14.0859L55.3115 5.75781H56.0732V6.64648ZM55.5527 5.75781V6.76074H49.6367V5.75781H55.5527ZM63.7412 14.0034V15H58.8472V14.0034H63.7412ZM59.0947 5.75781V15H57.8696V5.75781H59.0947ZM63.0938 9.73145V10.728H58.8472V9.73145H63.0938ZM63.6777 5.75781V6.76074H58.8472V5.75781H63.6777ZM68.5527 10.6772H66.2104L66.1978 9.69336H68.3242C68.6755 9.69336 68.9823 9.63411 69.2446 9.51562C69.507 9.39714 69.7101 9.22786 69.854 9.00781C70.0021 8.78353 70.0762 8.51693 70.0762 8.20801C70.0762 7.86947 70.0106 7.5944 69.8794 7.38281C69.7524 7.16699 69.5557 7.01042 69.2891 6.91309C69.0267 6.81152 68.6924 6.76074 68.2861 6.76074H66.4834V15H65.2583V5.75781H68.2861C68.7601 5.75781 69.1833 5.80648 69.5557 5.90381C69.9281 5.99691 70.2433 6.14502 70.5015 6.34814C70.7638 6.54704 70.9627 6.80094 71.0981 7.10986C71.2336 7.41878 71.3013 7.78906 71.3013 8.2207C71.3013 8.60156 71.2039 8.94645 71.0093 9.25537C70.8146 9.56006 70.5438 9.80973 70.1968 10.0044C69.854 10.1991 69.452 10.3239 68.9907 10.3789L68.5527 10.6772ZM68.4956 15H65.728L66.4199 14.0034H68.4956C68.8849 14.0034 69.215 13.9357 69.4858 13.8003C69.7609 13.6649 69.9704 13.4744 70.1143 13.229C70.2581 12.9793 70.3301 12.6852 70.3301 12.3467C70.3301 12.0039 70.2687 11.7077 70.146 11.458C70.0233 11.2083 69.8307 11.0158 69.5684 10.8804C69.306 10.745 68.9674 10.6772 68.5527 10.6772H66.8071L66.8198 9.69336H69.2065L69.4668 10.0488C69.9111 10.0869 70.2878 10.2139 70.5967 10.4297C70.9056 10.6413 71.1405 10.9121 71.3013 11.2422C71.4663 11.5723 71.5488 11.9362 71.5488 12.334C71.5488 12.9095 71.4219 13.3962 71.168 13.7939C70.9183 14.1875 70.5649 14.488 70.1079 14.6953C69.6509 14.8984 69.1134 15 68.4956 15ZM73.3579 5.75781H76.4175C77.1115 5.75781 77.6976 5.86361 78.1758 6.0752C78.6582 6.28678 79.0243 6.59993 79.2739 7.01465C79.5278 7.42513 79.6548 7.93083 79.6548 8.53174C79.6548 8.95492 79.568 9.34212 79.3945 9.69336C79.2253 10.0404 78.9798 10.3366 78.6582 10.582C78.3408 10.8232 77.96 11.0031 77.5156 11.1216L77.1729 11.2549H74.2974L74.2847 10.2583H76.4556C76.8957 10.2583 77.2617 10.1821 77.5537 10.0298C77.8457 9.87321 78.0658 9.66374 78.2139 9.40137C78.362 9.139 78.436 8.84912 78.436 8.53174C78.436 8.17627 78.3662 7.86523 78.2266 7.59863C78.0869 7.33203 77.8669 7.12679 77.5664 6.98291C77.2702 6.8348 76.8872 6.76074 76.4175 6.76074H74.583V15H73.3579V5.75781ZM78.7598 15L76.5127 10.8105L77.7886 10.8042L80.0674 14.9238V15H78.7598ZM88.4844 10.0869V10.6709C88.4844 11.3649 88.3976 11.987 88.2241 12.5371C88.0506 13.0872 87.8009 13.5549 87.4751 13.9399C87.1493 14.325 86.7578 14.6191 86.3008 14.8223C85.848 15.0254 85.3402 15.127 84.7773 15.127C84.2314 15.127 83.73 15.0254 83.2729 14.8223C82.8201 14.6191 82.4266 14.325 82.0923 13.9399C81.7622 13.5549 81.5062 13.0872 81.3242 12.5371C81.1423 11.987 81.0513 11.3649 81.0513 10.6709V10.0869C81.0513 9.3929 81.1401 8.77295 81.3179 8.22705C81.4998 7.67692 81.7559 7.20931 82.0859 6.82422C82.416 6.4349 82.8075 6.13867 83.2603 5.93555C83.7173 5.73242 84.2188 5.63086 84.7646 5.63086C85.3275 5.63086 85.8353 5.73242 86.2881 5.93555C86.7451 6.13867 87.1366 6.4349 87.4624 6.82422C87.7925 7.20931 88.0443 7.67692 88.2178 8.22705C88.3955 8.77295 88.4844 9.3929 88.4844 10.0869ZM87.272 10.6709V10.0742C87.272 9.52409 87.2148 9.03743 87.1006 8.61426C86.9906 8.19108 86.8276 7.83561 86.6118 7.54785C86.396 7.26009 86.1315 7.04215 85.8184 6.89404C85.5094 6.74593 85.1582 6.67188 84.7646 6.67188C84.3838 6.67188 84.0389 6.74593 83.73 6.89404C83.4253 7.04215 83.1629 7.26009 82.9429 7.54785C82.7271 7.83561 82.5599 8.19108 82.4414 8.61426C82.3229 9.03743 82.2637 9.52409 82.2637 10.0742V10.6709C82.2637 11.2253 82.3229 11.7161 82.4414 12.1436C82.5599 12.5667 82.7292 12.9243 82.9492 13.2163C83.1735 13.5041 83.438 13.722 83.7427 13.8701C84.0516 14.0182 84.3965 14.0923 84.7773 14.0923C85.1751 14.0923 85.5285 14.0182 85.8374 13.8701C86.1463 13.722 86.4066 13.5041 86.6182 13.2163C86.834 12.9243 86.9969 12.5667 87.1069 12.1436C87.217 11.7161 87.272 11.2253 87.272 10.6709ZM53.793 17.3594V33H50.291V17.3594H53.793ZM59.9482 23.9551V26.6621H52.8154V23.9551H59.9482ZM60.6357 17.3594V20.0771H52.8154V17.3594H60.6357ZM66.0713 17.3594V33H62.5801V17.3594H66.0713ZM72.3984 17.3594V33H68.8965V17.3594H72.3984ZM78.5537 23.9551V26.6621H71.4209V23.9551H78.5537ZM79.2412 17.3594V20.0771H71.4209V17.3594H79.2412ZM85.4287 20.335L81.3896 33H77.6514L83.4414 17.3594H85.8047L85.4287 20.335ZM88.7803 33L84.7305 20.335L84.3115 17.3594H86.707L92.5186 33H88.7803ZM88.6084 27.1777V29.8848H80.4551V27.1777H88.6084Z" fill="white"/>
<path d="M7.16406 43.835H8.47656C8.4082 44.4639 8.22819 45.0267 7.93652 45.5234C7.64486 46.0202 7.23242 46.4144 6.69922 46.7061C6.16602 46.9932 5.50065 47.1367 4.70312 47.1367C4.11979 47.1367 3.58887 47.0273 3.11035 46.8086C2.63639 46.5898 2.22852 46.2799 1.88672 45.8789C1.54492 45.4733 1.2806 44.988 1.09375 44.4229C0.911458 43.8532 0.820312 43.2197 0.820312 42.5225V41.5312C0.820312 40.834 0.911458 40.2028 1.09375 39.6377C1.2806 39.068 1.5472 38.5804 1.89355 38.1748C2.24447 37.7692 2.66602 37.457 3.1582 37.2383C3.65039 37.0195 4.2041 36.9102 4.81934 36.9102C5.57129 36.9102 6.20703 37.0514 6.72656 37.334C7.24609 37.6165 7.64941 38.0085 7.93652 38.5098C8.22819 39.0065 8.4082 39.583 8.47656 40.2393H7.16406C7.10026 39.7744 6.98177 39.3757 6.80859 39.043C6.63542 38.7057 6.38932 38.446 6.07031 38.2637C5.7513 38.0814 5.33431 37.9902 4.81934 37.9902C4.37728 37.9902 3.98763 38.0745 3.65039 38.2432C3.31771 38.4118 3.03743 38.651 2.80957 38.9609C2.58626 39.2708 2.41764 39.6423 2.30371 40.0752C2.18978 40.5081 2.13281 40.9889 2.13281 41.5176V42.5225C2.13281 43.0101 2.18294 43.4681 2.2832 43.8965C2.38802 44.3249 2.54525 44.7008 2.75488 45.0244C2.96452 45.348 3.23112 45.6032 3.55469 45.79C3.87826 45.9723 4.26107 46.0635 4.70312 46.0635C5.26367 46.0635 5.71029 45.9746 6.04297 45.7969C6.37565 45.6191 6.6263 45.3639 6.79492 45.0312C6.9681 44.6986 7.09115 44.2998 7.16406 43.835ZM16.959 37.9287L13.6641 47H12.3174L16.1113 37.0469H16.9795L16.959 37.9287ZM19.7207 47L16.4189 37.9287L16.3984 37.0469H17.2666L21.0742 47H19.7207ZM19.5498 43.3154V44.3955H13.958V43.3154H19.5498ZM25.8242 37.0469H27.1025L30.3633 45.1611L33.6172 37.0469H34.9023L30.8555 47H29.8574L25.8242 37.0469ZM25.4072 37.0469H26.5352L26.7197 43.1172V47H25.4072V37.0469ZM34.1846 37.0469H35.3125V47H34V43.1172L34.1846 37.0469ZM44.3008 43.0967H41.6416V42.0234H44.3008C44.8158 42.0234 45.2327 41.9414 45.5518 41.7773C45.8708 41.6133 46.1032 41.3854 46.249 41.0938C46.3994 40.8021 46.4746 40.4694 46.4746 40.0957C46.4746 39.7539 46.3994 39.4326 46.249 39.1318C46.1032 38.8311 45.8708 38.5895 45.5518 38.4072C45.2327 38.2204 44.8158 38.127 44.3008 38.127H41.9492V47H40.6299V37.0469H44.3008C45.0527 37.0469 45.6885 37.1768 46.208 37.4365C46.7275 37.6963 47.1217 38.0563 47.3906 38.5166C47.6595 38.9723 47.7939 39.4941 47.7939 40.082C47.7939 40.7201 47.6595 41.2646 47.3906 41.7158C47.1217 42.167 46.7275 42.5111 46.208 42.748C45.6885 42.9805 45.0527 43.0967 44.3008 43.0967ZM55.2031 37.9287L51.9082 47H50.5615L54.3555 37.0469H55.2236L55.2031 37.9287ZM57.9648 47L54.6631 37.9287L54.6426 37.0469H55.5107L59.3184 47H57.9648ZM57.7939 43.3154V44.3955H52.2021V43.3154H57.7939ZM65.0664 37.0469V47H63.7471V37.0469H65.0664ZM77.8213 42.0439V45.6875C77.6982 45.8698 77.5023 46.0749 77.2334 46.3027C76.9645 46.526 76.5931 46.722 76.1191 46.8906C75.6497 47.0547 75.0436 47.1367 74.3008 47.1367C73.6947 47.1367 73.1364 47.0319 72.626 46.8223C72.1201 46.6081 71.6803 46.2982 71.3066 45.8926C70.9375 45.4824 70.6504 44.9857 70.4453 44.4023C70.2448 43.8145 70.1445 43.1491 70.1445 42.4062V41.6338C70.1445 40.891 70.2311 40.2279 70.4043 39.6445C70.582 39.0612 70.8418 38.5667 71.1836 38.1611C71.5254 37.751 71.9447 37.4411 72.4414 37.2314C72.9382 37.0173 73.5078 36.9102 74.1504 36.9102C74.9115 36.9102 75.5472 37.0423 76.0576 37.3066C76.5726 37.5664 76.9736 37.9264 77.2607 38.3867C77.5524 38.847 77.7393 39.3711 77.8213 39.959H76.502C76.4427 39.599 76.3242 39.2708 76.1465 38.9746C75.9733 38.6784 75.7249 38.4414 75.4014 38.2637C75.0778 38.0814 74.6608 37.9902 74.1504 37.9902C73.6901 37.9902 73.2913 38.0745 72.9541 38.2432C72.6169 38.4118 72.3389 38.6533 72.1201 38.9678C71.9014 39.2822 71.7373 39.6628 71.6279 40.1094C71.5231 40.556 71.4707 41.0596 71.4707 41.6201V42.4062C71.4707 42.9805 71.5368 43.4932 71.6689 43.9443C71.8057 44.3955 71.9993 44.7806 72.25 45.0996C72.5007 45.4141 72.7992 45.6533 73.1455 45.8174C73.4964 45.9814 73.8838 46.0635 74.3076 46.0635C74.777 46.0635 75.1576 46.0247 75.4492 45.9473C75.7409 45.8652 75.9688 45.7695 76.1328 45.6602C76.2969 45.5462 76.4222 45.4391 76.5088 45.3389V43.1104H74.2051V42.0439H77.8213ZM90.665 37.0469V47H89.3389L84.3281 39.3232V47H83.0088V37.0469H84.3281L89.3594 44.7441V37.0469H90.665Z" fill="white"/>
</svg>
