<svg width="29" height="29" viewBox="0 0 29 29" fill="none" xmlns="http://www.w3.org/2000/svg">
<g clip-path="url(#clip0_7966_7361)">
<path d="M2.62109 8.81602V20.184C2.62109 20.9148 3.00389 21.576 3.64189 21.9472L13.4903 27.6312C14.1167 27.9908 14.8939 27.9908 15.5203 27.6312L25.3687 21.9472C25.9951 21.5876 26.3895 20.9148 26.3895 20.184V8.81602C26.3895 8.08522 26.0067 7.42402 25.3687 7.05282L15.5203 1.36882C14.8939 1.00922 14.1167 1.00922 13.4903 1.36882L3.64189 7.05282C3.01549 7.41242 2.63269 8.08522 2.63269 8.81602H2.62109Z" fill="#213147"/>
<path d="M16.6445 16.704L15.2409 20.5552C15.2061 20.6596 15.2061 20.7756 15.2409 20.8916L17.6537 27.5152L20.4493 25.9028L17.0969 16.704C17.0157 16.4952 16.7257 16.4952 16.6445 16.704Z" fill="#12AAFF"/>
<path d="M19.4641 10.2313C19.3829 10.0225 19.0929 10.0225 19.0117 10.2313L17.6081 14.0825C17.5733 14.1869 17.5733 14.3029 17.6081 14.4189L21.5637 25.2649L24.3593 23.6525L19.4641 10.2429V10.2313Z" fill="#12AAFF"/>
<path d="M14.4993 1.798C14.5689 1.798 14.6385 1.8212 14.6965 1.856L25.3453 8.004C25.4729 8.0736 25.5425 8.2128 25.5425 8.352V20.648C25.5425 20.7872 25.4613 20.9264 25.3453 20.996L14.6965 27.144C14.6385 27.1788 14.5689 27.202 14.4993 27.202C14.4297 27.202 14.3601 27.1788 14.3021 27.144L3.65328 20.996C3.52568 20.9264 3.45608 20.7872 3.45608 20.648V8.3404C3.45608 8.2012 3.53728 8.062 3.65328 7.9924L14.3021 1.8444C14.3601 1.8096 14.4297 1.7864 14.4993 1.7864V1.798ZM14.4993 0C14.1165 0 13.7453 0.0928 13.3973 0.29L2.74848 6.438C2.06408 6.8324 1.64648 7.5516 1.64648 8.3404V20.6364C1.64648 21.4252 2.06408 22.1444 2.74848 22.5388L13.3973 28.6868C13.7337 28.884 14.1165 28.9768 14.4993 28.9768C14.8821 28.9768 15.2533 28.884 15.6013 28.6868L26.2501 22.5388C26.9345 22.1444 27.3521 21.4252 27.3521 20.6364V8.3404C27.3521 7.5516 26.9345 6.8324 26.2501 6.438L15.5897 0.29C15.2533 0.0928 14.8705 0 14.4877 0H14.4993Z" fill="#9DCCED"/>
<path d="M7.44727 25.2762L8.43327 22.585L10.4053 24.2206L8.56087 25.9142L7.44727 25.2762Z" fill="#213147"/>
<path d="M13.594 7.47058H10.8912C10.694 7.47058 10.5084 7.59818 10.4388 7.78378L4.65039 23.6526L7.44599 25.265L13.826 7.78378C13.884 7.62138 13.768 7.45898 13.6056 7.45898L13.594 7.47058Z" fill="white"/>
<path d="M18.3277 7.47058H15.6249C15.4277 7.47058 15.2421 7.59818 15.1725 7.78378L8.56055 25.903L11.3561 27.5154L18.5481 7.78378C18.6061 7.62138 18.4901 7.45898 18.3277 7.45898V7.47058Z" fill="white"/>
</g>
<defs>
<clipPath id="clip0_7966_7361">
<rect width="29" height="29" fill="white"/>
</clipPath>
</defs>
</svg>
