<svg width="37" height="37" viewBox="0 0 37 37" fill="none" xmlns="http://www.w3.org/2000/svg">
<g id="Group 48096049">
<g id="Layer_x0020_1">
<g id="_2405588477232">
<g id="Group">
<g id="Group_2">
<path id="Vector" d="M3.33594 11.2064V25.6571C3.33594 26.586 3.82254 27.4265 4.63354 27.8984L17.1525 35.1237C17.9488 35.5808 18.9367 35.5808 19.733 35.1237L32.2519 27.8984C33.0482 27.4413 33.5495 26.586 33.5495 25.6571V11.2064C33.5495 10.2775 33.0629 9.43697 32.2519 8.96512L19.733 1.73981C18.9367 1.28269 17.9488 1.28269 17.1525 1.73981L4.63354 8.96512C3.83729 9.42223 3.35068 10.2775 3.35068 11.2064H3.33594Z" fill="#1F274D"/>
<g id="Group_3">
<g id="Group_4">
<g id="Group_5">
<path id="Vector_2" d="M21.165 21.2337L19.3808 26.1292C19.3366 26.262 19.3366 26.4094 19.3808 26.5569L22.4479 34.9766L26.0016 32.9269L21.7401 21.2337C21.6369 20.9683 21.2683 20.9683 21.165 21.2337Z" fill="#7983A9"/>
</g>
<g id="Group_6">
<path id="Vector_3" d="M24.744 13.0052C24.6408 12.7398 24.2722 12.7398 24.1689 13.0052L22.3847 17.9007C22.3405 18.0334 22.3405 18.1809 22.3847 18.3284L27.413 32.1154L30.9666 30.0658L24.744 13.02V13.0052Z" fill="#7983A9"/>
</g>
</g>
</g>
<g id="Group_7">
<path id="Vector_4" d="M18.4357 2.28556C18.5242 2.28556 18.6126 2.31505 18.6864 2.35928L32.2228 10.1744C32.385 10.2629 32.4734 10.4398 32.4734 10.6168V26.247C32.4734 26.424 32.3702 26.6009 32.2228 26.6894L18.6864 34.5045C18.6126 34.5488 18.5242 34.5783 18.4357 34.5783C18.3472 34.5783 18.2588 34.5488 18.185 34.5045L4.64863 26.6894C4.48643 26.6009 4.39796 26.424 4.39796 26.247V10.602C4.39796 10.4251 4.50118 10.2481 4.64863 10.1597L18.185 2.34454C18.2588 2.3003 18.3472 2.27081 18.4357 2.27081V2.28556ZM18.4357 0C17.9491 0 17.4772 0.117964 17.0349 0.368638L3.49848 8.18377C2.6285 8.68512 2.09766 9.59934 2.09766 10.602V26.2323C2.09766 27.235 2.6285 28.1492 3.49848 28.6506L17.0349 36.4657C17.4625 36.7164 17.9491 36.8343 18.4357 36.8343C18.9223 36.8343 19.3942 36.7164 19.8365 36.4657L33.3729 28.6506C34.2429 28.1492 34.7737 27.235 34.7737 26.2323V10.602C34.7737 9.59934 34.2429 8.68512 33.3729 8.18377L19.8218 0.368638C19.3942 0.117964 18.9076 0 18.421 0H18.4357Z" fill="#7983A9"/>
</g>
<path id="Vector_5" d="M9.4707 32.1304L10.7241 28.7095L13.2308 30.7886L10.8863 32.9414L9.4707 32.1304Z" fill="#1F274D"/>
<g id="Group_8">
<path id="Vector_6" d="M17.2848 9.4957H13.8491C13.5984 9.4957 13.3625 9.6579 13.274 9.89383L5.91602 30.0657L9.46969 32.1153L17.5797 9.89383C17.6535 9.68739 17.506 9.48096 17.2996 9.48096L17.2848 9.4957Z" fill="#7983A9"/>
<path id="Vector_7" d="M23.3005 9.4957H19.8648C19.6141 9.4957 19.3782 9.6579 19.2897 9.89383L10.8848 32.9263L14.4384 34.976L23.5807 9.89383C23.6544 9.68739 23.5069 9.48096 23.3005 9.48096V9.4957Z" fill="#7983A9"/>
</g>
</g>
</g>
</g>
</g>
</g>
</svg>
