<svg width="37" height="37" viewBox="0 0 37 37" fill="none" xmlns="http://www.w3.org/2000/svg">
<g id="Group 48096047">
<path id="Vector" d="M18.4319 36.8638C28.6116 36.8638 36.8638 28.6116 36.8638 18.4319C36.8638 8.25225 28.6116 0 18.4319 0C8.25225 0 0 8.25225 0 18.4319C0 28.6116 8.25225 36.8638 18.4319 36.8638Z" fill="#7983A9"/>
<path id="Vector_2" d="M13.0583 23.3273C11.9598 23.3273 11.0603 23.0693 10.3599 22.5532C9.66683 22.0297 9.32031 21.2777 9.32031 20.3118C9.32031 20.1054 9.34243 19.8621 9.38667 19.5672C9.50463 18.9036 9.6742 18.1074 9.89539 17.171C10.5221 14.6348 12.1441 13.3667 14.754 13.3667C15.4618 13.3667 16.1033 13.4847 16.6636 13.728C17.2239 13.9565 17.6663 14.3104 17.9907 14.7823C18.3151 15.2468 18.4773 15.7997 18.4773 16.4411C18.4773 16.6328 18.4552 16.8761 18.4109 17.171C18.2708 17.9894 18.1086 18.7931 17.9096 19.5672C17.5852 20.8279 17.0322 21.779 16.236 22.4057C15.4471 23.025 14.3854 23.3273 13.0583 23.3273ZM13.2574 21.3367C13.7735 21.3367 14.2085 21.1818 14.5697 20.8795C14.9384 20.5773 15.2038 20.1128 15.3586 19.4787C15.5724 18.6087 15.7346 17.8567 15.8452 17.2079C15.8821 17.0162 15.9042 16.8172 15.9042 16.6107C15.9042 15.7702 15.4692 15.35 14.5918 15.35C14.0757 15.35 13.6334 15.5048 13.2647 15.8071C12.9035 16.1094 12.6454 16.5739 12.4906 17.2079C12.321 17.8272 12.1588 18.5792 11.9893 19.4787C11.9524 19.663 11.9303 19.8547 11.9303 20.0612C11.9229 20.9164 12.3726 21.3367 13.2574 21.3367Z" fill="#1F274D"/>
<path id="Vector_3" d="M19.1177 23.1951C19.0145 23.1951 18.9408 23.1656 18.8818 23.0993C18.8376 23.0256 18.8228 22.9445 18.8376 22.8486L20.7471 13.8538C20.7619 13.7506 20.8135 13.6695 20.9019 13.6032C20.983 13.5368 21.0715 13.5073 21.1674 13.5073H24.8464C25.8712 13.5073 26.6896 13.7211 27.3089 14.1414C27.9356 14.569 28.2526 15.1809 28.2526 15.9846C28.2526 16.2131 28.2231 16.4564 28.1715 16.7071C27.9429 17.7688 27.4784 18.5503 26.7707 19.059C26.0776 19.5677 25.1265 19.8184 23.9174 19.8184H22.0521L21.418 22.8486C21.3959 22.9518 21.3517 23.0329 21.2632 23.0993C21.1821 23.1656 21.0936 23.1951 20.9978 23.1951H19.1177ZM24.0132 17.9089C24.404 17.9089 24.7358 17.8056 25.0233 17.5918C25.3182 17.378 25.5099 17.0757 25.6058 16.6776C25.6352 16.5228 25.65 16.3827 25.65 16.2647C25.65 15.9993 25.5689 15.7929 25.4141 15.6528C25.2592 15.5053 24.9864 15.4316 24.6104 15.4316H22.9516L22.4281 17.9089H24.0132Z" fill="#1F274D"/>
</g>
</svg>
