<svg width="26" height="26" viewBox="0 0 26 26" fill="none" xmlns="http://www.w3.org/2000/svg">
<path fill-rule="evenodd" clip-rule="evenodd" d="M13.2923 25.6877C20.3109 25.6877 26.0007 19.9979 26.0007 12.9793C26.0007 5.96071 20.3109 0.270996 13.2923 0.270996C6.2737 0.270996 0.583984 5.96071 0.583984 12.9793C0.583984 19.9979 6.2737 25.6877 13.2923 25.6877ZM9.58793 16.357C8.83123 16.357 8.21126 16.179 7.72799 15.8229C7.25107 15.4604 7.01261 14.9454 7.01261 14.2777C7.01261 14.1378 7.02852 13.9661 7.0603 13.7626C7.143 13.3048 7.26063 12.7547 7.41323 12.1125C7.84562 10.3638 8.96161 9.4895 10.7612 9.4895C11.2508 9.4895 11.6895 9.57216 12.0774 9.73747C12.4654 9.89642 12.7706 10.1381 12.9931 10.4624C13.2157 10.7803 13.327 11.1619 13.327 11.607C13.327 11.7405 13.3111 11.909 13.2792 12.1125C13.1839 12.6784 13.0694 13.2285 12.9359 13.7626C12.7133 14.6338 12.3286 15.2856 11.7817 15.718C11.2349 16.144 10.5036 16.357 9.58793 16.357ZM9.72147 14.9835C10.0776 14.9835 10.3796 14.8786 10.6276 14.6688C10.882 14.4589 11.0632 14.1378 11.1713 13.7054C11.3175 13.1077 11.4289 12.5862 11.5052 12.1411C11.5306 12.0076 11.5433 11.8709 11.5433 11.7309C11.5433 11.1523 11.2412 10.863 10.6372 10.863C10.281 10.863 9.97584 10.9679 9.72147 11.1777C9.47351 11.3876 9.29544 11.7087 9.18737 12.1411C9.07289 12.5672 8.95841 13.0886 8.84399 13.7054C8.81852 13.8325 8.80581 13.9661 8.80581 14.106C8.80581 14.691 9.11106 14.9835 9.72147 14.9835ZM13.6044 16.1938C13.6425 16.2384 13.6966 16.2606 13.7665 16.2606H15.0638C15.1273 16.2606 15.1877 16.2384 15.245 16.1938C15.3022 16.1493 15.3371 16.0921 15.3499 16.0222L15.7886 13.9333H17.0763C17.9093 13.9333 18.5643 13.7584 19.0412 13.4087C19.5245 13.0589 19.8456 12.5184 20.0046 11.7871C20.0427 11.6155 20.0618 11.4501 20.0618 11.2912C20.0618 10.7379 19.8456 10.3151 19.4132 10.0226C18.9871 9.73007 18.4212 9.58382 17.7154 9.58382H15.1782C15.1146 9.58382 15.0542 9.60609 14.997 9.65057C14.9397 9.6951 14.9047 9.75233 14.892 9.82228L13.5758 16.0222C13.5631 16.0858 13.5726 16.143 13.6044 16.1938ZM17.8394 12.3976C17.6422 12.5438 17.4101 12.617 17.1431 12.617H16.0462L16.4086 10.9097H17.5532C17.8139 10.9097 17.9983 10.9605 18.1064 11.0623C18.2146 11.1576 18.2686 11.2975 18.2686 11.4819C18.2686 11.5646 18.259 11.66 18.24 11.7681C18.1764 12.0415 18.0428 12.2514 17.8394 12.3976Z" fill="#E40606"/>
</svg>
