<svg width="52" height="37" viewBox="0 0 52 37" fill="none" xmlns="http://www.w3.org/2000/svg">
    <path id="Union" fill-rule="evenodd" clip-rule="evenodd"
        d="M28.9544 13.2735L52.248 0.03904L52.235 0.052054L36.5903 15.4011C36.5922 16.1321 36.5931 17.0813 36.5931 18.2966C36.5931 28.3948 28.3948 36.5931 18.2966 36.5931C8.19832 36.5931 0 28.3948 0 18.2966C0 8.19832 8.18531 0 18.2966 0L39.2218 0.052054L28.7722 3.27933L18.2966 6.51962C11.803 6.51962 6.54564 11.777 6.54564 18.2705C6.54564 24.7641 13.0132 30.0215 18.2966 30.0215C23.5799 30.0215 28.0435 26.5469 29.527 21.7581C29.8783 20.665 30.0605 20.0664 30.0605 18.2705C30.0605 16.4747 29.6701 14.783 28.9544 13.2735ZM36.3979 15.5898L36.4438 15.5448C36.4296 15.6677 36.4143 15.7008 36.3979 15.5898ZM47.4199 0.0392398L27.7309 11.2436L27.7049 11.2566C26.4817 9.60395 24.829 8.28962 22.916 7.46978L47.4199 0.0392398Z"
        fill="#7983A9" />
</svg>