<svg width="43" height="37" viewBox="0 0 43 37" fill="none" xmlns="http://www.w3.org/2000/svg">
<g id="Group 48096046">
<path id="Vector" fill-rule="evenodd" clip-rule="evenodd" d="M7.75861 0.181054L0.0317668 16.4113C0.00236392 16.4717 -0.00695365 16.5398 0.00517665 16.6059C0.0173069 16.6719 0.0502488 16.7324 0.0991847 16.7783L20.9675 36.7752C21.0268 36.8321 21.1057 36.8638 21.1879 36.8638C21.27 36.8638 21.349 36.8321 21.4082 36.7752L42.2766 16.7796C42.3255 16.7336 42.3584 16.6732 42.3706 16.6071C42.3827 16.5411 42.3734 16.4729 42.344 16.4125L34.6171 0.182302C34.5922 0.127794 34.5521 0.081619 34.5016 0.0492952C34.4511 0.0169714 34.3924 -0.000133711 34.3325 2.4161e-05H8.04576C7.98553 -0.000725129 7.92637 0.015968 7.87542 0.0480897C7.82447 0.0802114 7.7839 0.12639 7.75861 0.181054Z" fill="#7983A9"/>
<path id="Vector_2" fill-rule="evenodd" clip-rule="evenodd" d="M23.8696 18.0778C23.7198 18.089 22.9457 18.1352 21.2191 18.1352C19.8457 18.1352 18.8707 18.094 18.5286 18.0778C13.2213 17.8443 9.25988 16.9205 9.25988 15.8143C9.25988 14.7082 13.2213 13.7855 18.5286 13.5483V17.1577C18.8757 17.1826 19.8695 17.2413 21.2428 17.2413C22.8908 17.2413 23.716 17.1727 23.8646 17.1589V13.5508C29.1606 13.7868 33.1133 14.7107 33.1133 15.8143C33.1133 16.918 29.1619 17.8418 23.8646 18.0766L23.8696 18.0778ZM23.8696 13.1775V9.94771H31.2606V5.02246H11.1376V9.94771H18.5273V13.1763C12.5209 13.4522 8.00391 14.642 8.00391 16.0678C8.00391 17.4935 12.5209 18.6821 18.5273 18.9592V29.3091H23.8683V18.9555C29.861 18.6796 34.3705 17.491 34.3705 16.0665C34.3705 14.642 29.8648 13.4534 23.8683 13.1763L23.8696 13.1775Z" fill="#1F274D"/>
</g>
</svg>
