<svg width="38" height="37" viewBox="0 0 38 37" fill="none" xmlns="http://www.w3.org/2000/svg">
<path id="Union" fill-rule="evenodd" clip-rule="evenodd" d="M6.86838 30.5033C2.70195 27.4252 0 22.4786 0 16.9009C0 7.56679 7.56679 0 16.9009 0C20.9625 0 24.6894 1.43271 27.604 3.82031L27.6057 3.81742L27.6519 3.85973C28.1062 4.23467 28.5405 4.63287 28.9531 5.05254L31.9006 7.75433L31.8912 7.75404C35.0802 10.8281 37.0639 15.1441 37.0639 19.9233C37.0639 29.2574 29.4971 36.8242 20.163 36.8242C19.9667 36.8242 19.7712 36.8208 19.5765 36.8142L19.7293 36.8637H7.16302C5.1084 36.6118 0.959395 35.6309 0.800328 33.7221C0.648126 31.8957 4.61008 30.846 6.86838 30.5033ZM25.8906 4.01761C23.3438 2.23738 20.2447 1.19303 16.9016 1.19303C9.34789 1.19303 3.03948 6.52494 1.53469 13.6305L4.0305 14.87C6.17887 8.00437 12.5891 3.0224 20.163 3.0224C22.1735 3.0224 24.102 3.37345 25.8906 4.01761ZM1.19375 16.9009C1.19375 16.3241 1.22484 15.7546 1.28543 15.1939L3.63792 16.3623C3.48882 17.0576 3.38247 17.7687 3.32179 18.4929L1.20285 17.4405C1.1968 17.2614 1.19375 17.0815 1.19375 16.9009ZM4.50837 19.0822L4.47455 19.1503C4.46214 19.4064 4.45586 19.6641 4.45586 19.9233C4.45586 28.5985 11.4885 35.6312 20.1637 35.6312C28.839 35.6312 35.8716 28.5985 35.8716 19.9233C35.8716 11.2481 28.839 4.21543 20.1637 4.21543C11.7757 4.21543 4.92321 10.7902 4.47878 19.0675L4.50837 19.0822ZM1.36179 19.2067L3.26361 20.1512C3.29508 22.5322 3.81892 24.7944 4.73794 26.8406C2.98285 24.6954 1.78406 22.0773 1.36179 19.2067ZM8.34302 23.5418L6.43728 17.08H8.39351L9.27696 21.0555H9.32744L10.375 17.08H11.9147L12.9622 21.0682H13.0127L13.8962 17.08H15.8524L13.9467 23.5418H12.2681L11.1701 19.9323H11.1196L10.0216 23.5418H8.34302ZM16.4208 17.08V23.5418H21.0652V22.1283H18.175V21.0177H20.838V19.6042H18.175V18.4935H21.0778V17.08H16.4208ZM21.7703 18.4935V17.08H27.3866V18.4935H25.443V23.5418H23.7139V18.4935H21.7703ZM28.0473 23.5418V17.08H29.8015V19.6042H32.1238V17.08H33.8781V23.5418H32.1238V21.0177H29.8015V23.5418H28.0473Z" fill="#7983A9"/>
</svg>
