<svg width="22" height="20" viewBox="0 0 22 20" fill="none" xmlns="http://www.w3.org/2000/svg">
<path d="M18.4668 7.69379L18.7134 7.12811C19.1529 6.11947 19.9445 5.31641 20.9323 4.87708L21.6919 4.53922C22.1027 4.35653 22.1027 3.75881 21.6919 3.57612L20.9748 3.25714C19.9616 2.80651 19.1558 1.97373 18.7238 0.930831L18.4706 0.319531C18.2942 -0.10651 17.7058 -0.10651 17.5293 0.319531L17.2761 0.930831C16.8442 1.97373 16.0384 2.80651 15.0252 3.25714L14.308 3.57612C13.8973 3.75881 13.8973 4.35653 14.308 4.53922L15.0677 4.87708C16.0555 5.31641 16.8471 6.11947 17.2866 7.12811L17.5331 7.69379C17.7136 8.10792 18.2864 8.10792 18.4668 7.69379ZM3.79993 15H5.95399L6.55399 13.5H9.4459L10.0459 15H12.1999L8.9999 7H6.99993L3.79993 15ZM7.99993 9.8852L8.6459 11.5H7.35399L7.99993 9.8852ZM13 15V7H15V15H13ZM1 2C0.44772 2 0 2.44772 0 3V19C0 19.5523 0.44772 20 1 20H19C19.5523 20 20 19.5523 20 19V10H18V18H2V4H12V2H1Z" fill="white"/>
</svg>
