<svg width="17" height="21" viewBox="0 0 17 21" fill="none" xmlns="http://www.w3.org/2000/svg">
    <g id="Group 48096006">
        <path id="Vector"
            d="M10.7583 11.0406V13.3681C10.7583 15.3077 9.9825 16.0835 8.04292 16.0835H5.71542C3.77583 16.0835 3 15.3077 3 13.3681V11.0406C3 9.10101 3.77583 8.3252 5.71542 8.3252H8.04292C9.9825 8.3252 10.7583 9.10101 10.7583 11.0406Z"
            fill="#5E8DF0" />
        <path id="Vector_2"
            d="M11.369 5H9.04145C7.13354 5 6.35773 5.76 6.33398 7.62833H8.04395C10.3715 7.62833 11.4481 8.71292 11.4481 11.0325V12.7425C13.3244 12.7187 14.0765 11.9429 14.0765 10.035V7.71542C14.0844 5.77583 13.3085 5 11.369 5Z"
            fill="#5E8DF0" />
        <path id="Vector_3"
            d="M8.7896 21C8.50393 21 8.23942 20.8414 8.10187 20.5981C7.96433 20.3443 7.96433 20.0482 8.11245 19.7944L9.2234 17.9436C9.44559 17.5629 9.94287 17.4465 10.3132 17.6686C10.6941 17.8907 10.8105 18.3772 10.5883 18.7579L10.3026 19.2338C13.2228 18.5464 15.4129 15.9236 15.4129 12.7932C15.4129 12.3596 15.7727 12 16.2065 12C16.6403 12 17 12.3596 17 12.7932C16.9894 17.3196 13.3074 21 8.7896 21Z"
            fill="#5E8DF0" />
        <path id="Vector_4"
            d="M0.794465 9C0.360157 9 0 8.64 0 8.20588C0 3.68471 3.68632 0 8.20947 0C8.49548 0 8.7603 0.158824 8.89801 0.402353C9.03571 0.656471 9.03572 0.952941 8.88741 1.20706L7.77516 3.06C7.55271 3.43059 7.06544 3.55765 6.6841 3.32471C6.31335 3.10235 6.18623 2.61529 6.41928 2.23412L6.70528 1.75765C3.77106 2.44588 1.58893 5.07176 1.58893 8.20588C1.58893 8.64 1.22877 9 0.794465 9Z"
            fill="#5E8DF0" />
    </g>
</svg>