<?xml version="1.0" encoding="UTF-8"?>
<svg version="1.1" viewBox="0 0 80 80" xmlns="http://www.w3.org/2000/svg">
<title>1 – Fundamentals/Logos/Clubs/Union Berlin FCU</title>
<g fill="none" fill-rule="evenodd">
<rect width="80" height="80"/>
<g transform="translate(0 25)" fill-rule="nonzero">
<path id="Path" d="m75.2 8.8418c-0.051192-0.17261-0.20843-0.29207-0.38844-0.29511h-32.628c-0.83459-0.81404-1.7932-1.4903-2.84-2.0036h20.395s0.30667 0 0.22489-0.296l-1.6524-5.952c-0.050994-0.17199-0.20731-0.2913-0.38667-0.29511h-57.686s-0.30667 0-0.224 0.29511l1.6507 5.9556c0.050872 0.17296 0.20819 0.29284 0.38844 0.296h2.8116c0.18001 0.003045 0.33725 0.1225 0.38844 0.29511l5.3422 19.262c0.051192 0.17261 0.20843 0.29207 0.38844 0.29511h13.999s0.30667 0 0.35556 0.043556c0.048889 0.043556 3.1849 2.7129 8.0427 2.7129 4.9084 0 7.9111-2.6747 7.9609-2.7173 0 0 0.048-0.043556 0.35556-0.043556h38.064s0.30578 0 0.224-0.29511l-4.7858-17.258z" fill="#fff"/>
<path id="Path" d="m27.93 25.908c3.7618 2.1956 8.2569 1.616 11.007 0h1.5351c-4.3102 3.1556-10.103 2.7991-14.056 0h1.5138z" fill="#FFDC00"/>
<path id="Shape" d="m26.416 25.908c-3.4942-2.4738-5.5511-6.8569-3.8747-12.411h-3.2373l3.2267 11.886h-10.982l-5.5529-20h-3.4124l-1.2196-4.3733h56.236l1.1991 4.5271h-41.644l1.0436 3.8667h7.032c5.6667-5.3556 13.567-3.2844 16.628 0.168h32.572l4.4258 15.752h-37.65c-0.24 0.20622-0.48444 0.40178-0.73422 0.584h-1.5387c0.35794-0.20911 0.69832-0.44693 1.0178-0.71111-0.23822-0.85778-0.46578-1.7262-0.70311-2.6044-1.5164 1.408-4.536 3.008-8.8071 1.1138-3.7431-1.9129-6.2871-7.5156-1.344-12.053 1.8613-1.5582 4.5493-2.1333 6.6382-1.4987-0.248-0.95733-0.46489-1.9138-0.71111-2.8711-4.9324-0.63111-9.5858 1.6889-11.592 6.5493-1.272 3.1467-0.78578 8.2667 3.7333 11.58 0.25244 0.17778 0.50815 0.34252 0.76711 0.49422l-1.5164 8.889e-4zm4.1729-3.9431-0.1 0.44978c0.035-0.152 0.067-0.30044 0.1-0.44978zm-3.5-5.2222c0.56889 0.95644 1.6 1.6276 3.2 1.9627 0.062222-0.21689 0.12356-0.424 0.18578-0.64089-1.3751-0.27644-2.3369-0.81867-2.792-1.6569-0.19644 0.10844-0.39289 0.22667-0.58933 0.33511h-0.0044444zm9.1822-5.2373c0.76533-1.5387 1.872-2.4 3.144-2.9102-0.082667-0.20711-0.17778-0.41422-0.26667-0.61156-1.4373 0.56267-2.6569 1.5387-3.4951 3.2551l0.62222 0.26667h-0.0044445zm5.6569-0.88889c-2.9147 1.3129-4.5173 2.8951-5.376 6.184 0.21778 0.058667 0.43467 0.128 0.64178 0.18756 0.072-0.22756 0.15467-0.464 0.22756-0.69067 2.016 1.528 2.9058 3.6791 3.3289 5.6613 0.23822-0.039111 0.42489-0.088889 0.66222-0.11822-0.60978-2.8311-1.8507-4.912-3.7849-6.2044 0.38098-1.0663 1.0288-2.0171 1.8818-2.7618 2.6373 2.0027 3.9298 4.7547 4.0951 8.1378 0.22756 0 0.45511 0.0097777 0.68267 0.0097777-0.23733-3.8373-1.7271-6.6382-4.2604-8.5813 0.65907-0.49369 1.3783-0.90141 2.1404-1.2133-0.057862-0.021006-0.11731-0.037354-0.17778-0.048889 0.13511-0.18756 0.26667-0.36533 0.39378-0.55289-0.067173-0.021475-0.13673-0.034611-0.20711-0.039111-0.08345 0.0013094-0.16655 0.011138-0.248 0.029333v8.889e-4zm-25.778 13.898h1.4169c-0.088889-0.32533-0.18578-0.67022-0.27911-1.016-0.41422 0.23644-0.83822 0.41422-1.3031 0.45422l0.16533 0.56178zm26.483-14.075c3.3227 4.1724 3.2338 10.11-0.51733 14.017h35.556l-3.944-14.017h-31.094zm-33.783-8.5618h-6.3111l0.73422 2.6338h3.416l5.5627 20h2.9573c-0.061333-0.20711-0.12356-0.43378-0.18578-0.65067-2.0987-0.65067-2.4818-2.9333-1.1893-4.232l-4.984-17.751zm6.9182 17.834c-0.97778 0-1.7778 0.76-1.7778 1.6889s0.8 1.696 1.7778 1.696 1.768-0.75911 1.768-1.696-0.8-1.6889-1.768-1.6889zm-3.6089-17.834 4.8498 17.272c1.3236 0.72978 1.8818 2.12 1.0133 3.6196 0.15467 0.592 0.32 1.1742 0.48622 1.7458h2.8444l-3.2196-11.892h4.7769c0.39607-0.84378 0.90438-1.6302 1.5111-2.3378h-6.9369l-1.5111-5.6222h41.653l-0.74489-2.7822-44.723-0.0026667zm21.674 11.048c-0.248-0.0097777-0.46578-0.020444-0.64089-0.0097777-0.1905 0.00627-0.38114-0.0071343-0.56889-0.04-0.082667-0.048889-0.13422-0.16711-0.13422-0.34489-0.0013815-0.019098-0.012895-0.035989-0.030165-0.044257-0.017271-0.0082678-0.037648-0.006643-0.05339 0.0042573-0.13611 0.095694-0.18022 0.27745-0.10311 0.42489 0.079406 0.11951 0.20153 0.20411 0.34133 0.23644 0.040594 0.011269 0.08235 0.01783 0.12444 0.019556 0.072 0 0.15467 0 0.31022 0.0097777 0.13422 0 0.26667 0 0.39289-0.0097777 0.152-0.0097778 0.28356-0.0097778 0.39644-0.019556l-0.021333-0.14756c-0.0053333-0.026667-0.0097778-0.052444-0.013333-0.079111zm-17.879 5.928-4.736-16.978h-1.44l4.8391 17.222c0.42229-0.17455 0.87655-0.25844 1.3333-0.24622l0.0035556 0.0017777z" fill="#FFDC00"/>
<path id="Shape" d="m35.105 11.86c0.084564-0.031644 0.16735-0.067845 0.248-0.10844 0.010667-0.0097778 0.062222-0.019556 0.22756-0.019556v-0.049778c0.0025323-0.015958-0.0015281-0.03226-0.011249-0.045166s-0.024269-0.021308-0.040306-0.023279c-0.031111 0-0.072889-0.0097777-0.11378-0.0097777-0.093333 0-0.17778 0.0097777-0.20711 0.048889-0.051556 0.059556-0.10311 0.10844-0.14489 0.15822 0.011419 0.018282 0.0255 0.034759 0.041778 0.048889zm-0.97156 0.32533c-0.064934-0.13319-0.14454-0.25871-0.23733-0.37422-0.052221-0.049891-0.13445-0.049891-0.18667 0-0.052224 0.090421-0.082659 0.19177-0.088889 0.296-0.010667 0.018101-0.010667 0.040566 0 0.058667 0.020444 0.0097778 0.030222 0.030222 0.051556 0.04 0.021333 0.0097778 0.040889 0.0097778 0.062222 0 0.040588-0.045785 0.055897-0.10868 0.040889-0.168l0.062222-0.029333c0.023064 0.035484 0.037101 0.076071 0.040889 0.11822v0.051556c-0.0097778 0.030222 0.021333 0.049778 0.062222 0.049778 0.062222-0.0097778 0.12444-0.029333 0.19644-0.04l-0.0035556-0.0026667zm-0.23733 1.1644-0.029333-0.19378c-0.0026811-0.049724-0.0098208-0.099108-0.021333-0.14756l-0.013333-0.088889c-0.040889-0.049778-0.10311-0.099556-0.13422-0.14844-0.31022-0.058667-0.58933-0.128-0.88889-0.19733-0.043131-0.0071663-0.082926-0.027686-0.11378-0.058667-0.11056-0.10813-0.20087-0.23517-0.26667-0.37511-0.051556-0.13778 0.020444-0.21689 0.18578-0.24622 0.21778-0.030222 0.44444-0.059556 0.672-0.079111 0.050145-0.0052776 0.097386-0.026101 0.13511-0.059556 0.32-0.30578 0.76444-0.36444 1.2302-0.32533 0.14489 0.0097778 0.41333 0.069333 0.56889 0.019556 0.48622-0.029333 0.62222 0.17778 0.54756 0.50311-0.015132 0.074798-0.015132 0.15187 0 0.22667 0.14489 0.38489 0.23822 0.76978 0.12444 1.1742-0.14489 0.33511-0.28978 0.68089-0.16533 0.90756 0.15467 0.34489 0.248 0.68978 0.14489 1.0062-0.104 0.46311-0.36178 1.0062-0.23822 1.4222 0.11378 0.27556 0.32089 1.1244 0.46578 1.5387 0.084822 0.25833 0.22189 0.49646 0.40267 0.69956 0.12321 0.17613 0.22077 0.36887 0.28978 0.57244-0.082667 0-0.15467 0.0097777-0.23822 0.0097777 0.15556 0.87822 0.25867 2.1333 0.49689 2.3378-0.020444 0.058667-0.031111 0.128-0.051556 0.18756 0 0.058667-0.11378 0.088889-0.15556 0.15733-0.29956 0.67111-0.73422 1.056-1.5822 1.2827v-0.029333c-0.088889-0.23467-0.24533-0.55644-0.38844-0.83111 0.26522-0.1523 0.51038-0.33714 0.72978-0.55022-1.2444-1.0844-1.2818-1.4302-1.4996-2.584 0-0.049778-0.020444-0.069333-0.051556-0.069333-0.031111 0-0.082667 0.0097777-0.12356 0.0097777 0.10311 0.37511 0.19644 0.75022 0.29956 1.1147-0.776 0.56267-1.2302 1.016-1.3956 2.2391-0.013216 0.087878-0.06499 0.16526-0.14118 0.21101-0.076187 0.045746-0.16882 0.055075-0.2526 0.025438-0.24071-0.092784-0.4967-0.13952-0.75467-0.13778-0.4238-0.066221-0.82898-0.22066-1.1893-0.45333 0.062222-0.30667 0.11378-0.60178 0.17778-0.90756 0.10123 0.04575 0.20999 0.072563 0.32089 0.079111 0.077148 0.0040597 0.1503 0.03559 0.20622 0.088889 0.052609 0.049366 0.12538 0.071098 0.19644 0.058667 0.062222 0 0.31111 0.13778 0.39378 0.069333-0.22756-1.6773 0.248-2.3111 1.4578-3.1271 0.040889-0.019556 0.062222-0.0097778 0.11378 0.019556 0.051556 0.048889 0.088889 0.098667 0.14489 0.14844 0.10311 0.039111 0.11378-0.030222 0.051556-0.088889-0.424-0.23644-0.6-0.67111-0.68267-1.1742-0.010667-0.019556 0.010667-0.058667-0.082667-0.019556-1.7893 0.60178-2.12 0.36533-3.2987-0.62222l0.30222-0.49156c0.076444-0.12089 0.15378-0.24089 0.23289-0.36267 0.30657 0.15756 0.5621 0.39892 0.73689 0.696 0.040889 0.059556 0.072 0.049778 0.11378 0.020444 0.54756-0.31556 1.1067-0.60178 1.6649-0.87822-0.01108-0.035212-0.017943-0.071615-0.020444-0.10844-0.12444 0.069333-0.24889 0.13778-0.37244 0.19733-1.4053-0.81778-2.2009-0.72-2.656-2.5884 0.013355 0.0029315 0.027325 7.09e-4 0.039111-0.0062222 0.248-0.13156 0.47822-0.24711 0.73333-0.37778l0.032-0.016c0.17778 0.21689 0.28978 0.54222 0.37244 0.90756-0.020444 0.029333 0.020444 0.078222 0.041778 0.088889 0.64089 0.168 1.272 0.336 1.9022 0.48356-0.14096 0.21726-0.25865 0.44876-0.35111 0.69067-0.037258 0.14672-0.06634 0.29539-0.087111 0.44533h0.11378c0.18578-1.016 0.43378-1.3804 1.4578-1.8347 0-0.068444-0.010667-0.14756-0.010667-0.21689-0.14301 0.030225-0.29076 0.030225-0.43378 0-0.083821-0.025723-0.17099-0.038903-0.25867-0.039111-0.248-0.079111-0.16533-0.30578-0.041778-0.28622 0.1561-0.025798 0.31617-0.012357 0.46578 0.039111 0.051556 0.030222 0.21689 0.04 0.424 0.04l0.0017778 0.0026666z" fill="#000"/>
<path id="Path" d="m27.091 16.742c0.19644-0.10844 0.39289-0.22667 0.58933-0.33511 0.45511 0.83822 1.4169 1.3804 2.792 1.6569-0.062222 0.21689-0.12356 0.424-0.18578 0.64089-1.5929-0.33511-2.6267-1.0062-3.2-1.9627h0.0044445z" fill="#000"/>
<path id="Path" d="m36.273 11.505-0.62222-0.26667c0.83822-1.7164 2.0578-2.6924 3.4951-3.2551 0.088889 0.19733 0.18667 0.40444 0.26667 0.61156-1.272 0.51289-2.3787 1.3716-3.144 2.9102h0.0044445z" fill="#000"/>
<path id="Path" d="m41.93 10.617c0.081452-0.018195 0.16455-0.028024 0.248-0.029333 0.070379 0.0045002 0.13994 0.017636 0.20711 0.039111-0.12444 0.18756-0.25867 0.36533-0.39378 0.55289 0.060467 0.011535 0.11992 0.027883 0.17778 0.048889-0.76286 0.31262-1.4827 0.72125-2.1422 1.216 2.5333 1.9431 4.0231 4.744 4.2604 8.5813-0.22756 0-0.45511-0.0097778-0.68267-0.0097778-0.16533-3.3831-1.4578-6.1333-4.0951-8.1378-0.85293 0.74468-1.5008 1.6955-1.8818 2.7618 1.9342 1.2924 3.1751 3.3778 3.7849 6.2044-0.23733 0.029333-0.424 0.079111-0.66222 0.11822-0.42311-1.9822-1.3129-4.1333-3.3289-5.6613-0.072889 0.22667-0.15556 0.46311-0.22756 0.69067-0.20711-0.059556-0.424-0.12889-0.64178-0.18756 0.85867-3.2951 2.4613-4.8729 5.3778-6.1849v-0.0026667z" fill="#000"/>
<path id="Shape" d="m44.773 11.289 2.8124 10.366c0.248 0.97778 0.73422 1.736 2.0444 1.7263h2.5129c0.704 0 1.1378-0.26676 0.85867-1.273-0.97067-3.5982-1.9452-7.2047-2.9236-10.82h-1.4898l2.9058 10.554c0.083556 0.24622 0 0.35556-0.18578 0.36444h-0.81956c-0.15288 0.0042532-0.28538-0.10509-0.31022-0.256-0.97156-3.5511-1.9556-7.1013-2.9262-10.662h-2.4791zm8.7689 0h-2.52l3.3298 12.089h1.52l-1.944-7.072 3.7609 7.072h2.4889l-3.3058-12.089h-1.3858l1.8409 6.6382-3.7849-6.6382zm16.297 0h-2.5333l3.3396 12.089h1.5111l-1.944-7.072 3.7733 7.072h2.4818l-3.2987-12.089h-1.3858l1.8409 6.6382-3.7849-6.6382zm-12.036 0 3.3529 12.089h1.9129l-3.3529-12.089h-1.9129zm3.4018 1.3333c0.6 2.9982 1.6133 6.2533 2.5227 9.232 0.34133 1.0951 1.0036 1.5884 1.6658 1.5289 0.075687-0.001624 0.1514 0.0016421 0.22667 0.0097778 0.848 0 1.6756 0 2.5022-0.0097778 0.75556 0.019556 1.2204-0.27644 1.2827-0.98667v-0.34489c-0.014996-0.15916-0.039035-0.31735-0.072-0.47378l-2.5769-9.3822c-0.17778-0.58222-0.58933-0.81956-1.1378-0.87822-0.15088-0.019878-0.30292-0.029678-0.45511-0.029333-0.82667-0.0097778-1.7164-0.0097778-2.7084 0-0.8 0.019556-1.2204 0.37422-1.2516 1.0453v0.28889h0.0017777zm-18.572-2.1831h31.094l3.9396 14.017h-35.551c3.7511-3.9067 3.84-9.8444 0.51733-14.017zm22.987 4.3404c0.65156 2.3769 1.2924 4.7244 1.9556 7.1111 0.031111 0.17778-0.051556 0.26667-0.25867 0.28533h-0.64978c-0.38222-0.019556-0.60978-0.49244-0.75467-0.97778-0.088889-0.35556-0.18578-0.72-0.28978-1.0756-0.69244-2.4951-1.4578-5.0498-1.9556-7.4471-0.021333-0.17778 0.020444-0.26667 0.21689-0.26667 0.31022 0 0.63111-0.0097778 0.93067-0.0097778 0.082667 0 0.16533 0.0097778 0.17778 0.098667 0.21689 0.76889 0.424 1.5182 0.63022 2.2782l-0.0026666 0.0035556z" fill="#fff"/>
<path id="Path" d="m8.8498 1.8773 4.984 17.755c-1.2924 1.3022-0.90933 3.5813 1.1893 4.232 0.062222 0.21689 0.12444 0.44444 0.18578 0.65067h-2.9573l-5.5627-20h-3.4124l-0.73422-2.6373h6.3076z" fill="#E30613"/>
<path id="Path" d="m15.768 19.711c0.97156 0 1.768 0.76 1.768 1.6889s-0.8 1.696-1.768 1.696-1.7778-0.75911-1.7778-1.696 0.8-1.6889 1.7778-1.6889z" fill="#E30613"/>
<path id="Path" d="m12.159 1.8773h44.723l0.74489 2.7822h-41.652l1.5111 5.6222h6.9387c-0.60673 0.70762-1.115 1.494-1.5111 2.3378h-4.7796l3.216 11.895h-2.8444c-0.16622-0.57156-0.33156-1.1556-0.48622-1.7458 0.86844-1.4996 0.31022-2.8898-1.0133-3.6196l-4.8462-17.272z" fill="#E30613"/>
<path id="Path" d="m35.733 10.154c-2.0889-0.632-4.7769-0.059556-6.6382 1.4987-4.9431 4.5333-2.4 10.14 1.344 12.053 4.2711 1.8942 7.2889 0.296 8.8107-1.1147 0.23733 0.87822 0.46489 1.7467 0.70311 2.6044-2.6889 2.2489-8.3964 3.3333-12.792 0.21689-4.5182-3.3138-5.0044-8.4338-3.7333-11.58 2.0062-4.8622 6.6596-7.1804 11.592-6.5493 0.248 0.95733 0.46489 1.9138 0.71111 2.8711h0.0026666z" fill="#E30613"/>
<path id="Path" d="m33.881 13.156-0.031-0.14756c0.011 0.051556 0.024 0.10133 0.031 0.14756z" fill="#EB1C24"/>
<path id="Path" d="m33.833 12.925c0 0.026667 8e-3 0.052444 0.013333 0.079111l0.020444 0.15111c-0.11289 0.0097777-0.24444 0.0097777-0.39644 0.019556-0.12444 0.0097778-0.25867 0.0097778-0.39289 0.0097778-0.15556-0.0097778-0.23822-0.0097778-0.31022-0.0097778-0.042094-0.001725-0.08385-0.0082866-0.12444-0.019556-0.1398-0.032331-0.26193-0.11693-0.34133-0.23644-0.07711-0.14744-0.033002-0.32919 0.10311-0.42489 0.015742-0.0109 0.03612-0.012525 0.05339-0.0042572 0.017271 0.0082679 0.028784 0.02516 0.030165 0.044257 0 0.17778 0.051556 0.296 0.13422 0.34489 0.18775 0.032866 0.37839 0.04627 0.56889 0.04 0.17778-0.010667 0.39289 0 0.64089 0.0097778l8.889e-4 -0.0035556z" fill="#E30613"/>
<path id="Path" d="m29.492 13.422c0.25689-0.12889 0.51467-0.25244 0.77333-0.384-0.256 0.13067-0.48533 0.24533-0.73422 0.37778-0.011786 0.0069312-0.025756 0.0091536-0.039111 0.0062222z" fill="#EB1C24"/>
<path id="Path" d="m30.286 12.955c0.0074618 0.022321 0.010776 0.045819 0.0097778 0.069333-0.26667 0.13778-0.53778 0.26667-0.80622 0.39378-0.093333-0.048889-0.19644-0.10844-0.26667-0.15733-0.051556-0.049778 0-0.10844 0.062222-0.079111 0.062222 0.029333 0.14489 0.04 0.22756 0.059556h0.041778c-0.079801-0.10462-0.17373-0.19765-0.27911-0.27644l0.031111-0.059556c0.082667 0.04 0.17778 0.079111 0.26667 0.11911l-0.15556-0.23733c0.010667-0.0097778 0.031111-0.019556 0.052444-0.039111 0.10613 0.11837 0.22542 0.22424 0.35556 0.31556-0.032636-0.15596-0.081187-0.30817-0.14489-0.45422l0.062222-0.029333c0.081052 0.14832 0.17823 0.28724 0.28978 0.41422-0.059288-0.12598-0.13201-0.24519-0.21689-0.35556-0.041778-0.088889 0.072-0.098667 0.10311-0.079111 0.14371 0.11162 0.26933 0.24474 0.37244 0.39467l-0.0053334 8.889e-4z" fill="#E30613"/>
<path id="Path" d="m30.017 16.081c-0.071111 0.12622-0.14844 0.24622-0.22489 0.36711l0.22489-0.36711z" fill="#EB1C24"/>
<path id="b" d="m29.873 16.444c-0.11493 0.16178-0.22687 0.32356-0.3398 0.49244l0.3398-0.49244zm0.26184-0.36178c-0.090946 0.12444-0.1769 0.24356-0.26184 0.36178l0.26184-0.36178zm0-0.0044445-0.26184 0.36622-0.3398 0.49244c-0.046972-0.029333-0.081951-0.059556-0.12792-0.088889-0.022986-0.019556-0.1749-0.088889-0.25585-0.13778-0.022986-0.029333-0.011993-0.059556 0.034979-0.069333 0.080952-0.0097778 0.1629-0.0097778 0.24386-0.019556-0.092945-0.039111-0.18589-0.088889-0.27883-0.128-0.0019199-0.023619 0.0021796-0.047319 0.011993-0.069333 0.099941 0 0.20888-0.0097778 0.31381-0.0097778-0.089425-0.05083-0.1749-0.10696-0.25585-0.168-0.046972-0.068444 0.034979-0.098667 0.069958-0.079111 0.11124 0.01665 0.22405 0.023498 0.3368 0.020444l-0.22087-0.18756c0.012844-0.018288 0.028297-0.03502 0.045973-0.049778 0.10494 0.030222 0.22187 0.069333 0.32581 0.10844-0.045973-0.058667-0.092945-0.128-0.13892-0.18756 0.010994-0.019556 0.022986-0.019556 0.045973-0.039111 0.15774 0.072212 0.30938 0.1545 0.45373 0.24622h-0.0029982z" fill="#E30613"/>
<path id="Path" d="m35.26 23.44c-0.08-0.15467-0.15644-0.31644-0.23289-0.48178l-0.13156-0.29156c0.13522 0.25199 0.25687 0.51103 0.36444 0.776v-0.0026667z" fill="#EB1C24"/>
<path id="Path" d="m35.027 22.958c-0.052444-0.11467-0.10489-0.23111-0.16-0.34756l0.028444 0.053333 0.13156 0.29422z" fill="#EB1C24"/>
<path id="Path" d="m34.867 22.601c0.13333 0.29422 0.25689 0.57867 0.39022 0.86222-0.10044 0.055111-0.19378 0.095111-0.27644 0.13422 0.051556-0.088889 0.10311-0.17778 0.14489-0.26667-0.10311 0.068444-0.20711 0.14756-0.31022 0.22667 0.072-0.10844 0.13422-0.21689 0.19644-0.32622-0.12444 0.020444-0.25867 0.049778-0.38222 0.079111 0.10311-0.097778 0.20622-0.18756 0.31022-0.28622-0.11378 0.04-0.21778 0.088889-0.32089 0.12889 0.062222-0.098667 0.13422-0.18756 0.19644-0.27644-0.10367 0.001335-0.20721 0.0078617-0.31022 0.019556 0.11378-0.098667 0.23822-0.19733 0.36178-0.296v8.889e-4z" fill="#E30613"/>
<polygon id="Path" points="30.493 22.414 30.224 22.434 30.462 22.246 30.079 22.148 30.472 22 30.162 21.822 30.514 21.772 30.213 21.526 30.617 21.556 30.369 21.428 30.668 21.507" fill="#E30613"/>
<path id="Path" d="m44.773 11.289h2.4818c0.97156 3.5609 1.9556 7.1111 2.9262 10.667 0.024837 0.15091 0.15735 0.26025 0.31022 0.256h0.81689c0.18578-0.0097778 0.26667-0.11822 0.18578-0.36444l-2.9058-10.558h1.4898c0.97126 3.6101 1.9467 7.2166 2.9262 10.82 0.27911 1.0027-0.15467 1.2694-0.85867 1.2694h-2.5129c-1.3129 0.0096844-1.7991-0.74943-2.0444-1.7263l-2.8151-10.363z" fill="#E30613"/>
<polygon id="Path" points="53.542 11.288 57.327 17.926 55.486 11.288 56.872 11.288 60.18 23.38 57.689 23.38 53.924 16.308 55.868 23.38 54.348 23.38 51.019 11.288" fill="#E30613"/>
<polygon id="Path" points="69.839 11.288 73.623 17.926 71.783 11.288 73.168 11.288 76.468 23.38 73.986 23.38 70.212 16.308 72.156 23.38 70.645 23.38 67.305 11.288" fill="#E30613"/>
<polygon id="Path" points="57.802 11.288 59.716 11.288 63.066 23.38 61.153 23.38" fill="#E30613"/>
<path d="m65.62 14.78c-0.20622-0.76-0.41333-1.5111-0.63022-2.2782-0.010667-0.088889-0.088889-0.098667-0.17778-0.098667-0.29956 0-0.62222 0.0097777-0.93067 0.0097777-0.19644 0-0.23822 0.088889-0.21689 0.26667 0.496 2.4 1.2613 4.952 1.9556 7.4471 0.104 0.35556 0.19733 0.72 0.28978 1.0756 0.14489 0.48356 0.37244 0.95644 0.75467 0.97778h0.65156c0.20711-0.019556 0.28978-0.10844 0.25867-0.28533-0.66222-2.3876-1.3031-4.7351-1.9556-7.1111l8.889e-4 -0.0035555zm-4.4151-2.1573v-0.28622c0.031111-0.67111 0.45511-1.0258 1.2516-1.0453 0.992-0.0097778 1.8818-0.0097778 2.7084 0 0.15219-3.447e-4 0.30423 0.0094548 0.45511 0.029333 0.54844 0.058667 0.96178 0.296 1.1378 0.87822l2.5778 9.3796c0.032965 0.15643 0.057004 0.31461 0.072 0.47378v0.34489c-0.062222 0.71111-0.52711 1.0062-1.2827 0.98667-0.82667 0.0097778-1.6542 0.0097778-2.5022 0.0097778-0.075266-0.0081357-0.15098-0.011402-0.22667-0.0097778-0.66222 0.059556-1.3244-0.43378-1.6658-1.5289-0.912-2.9813-1.9253-6.2364-2.5253-9.232z" fill="#E30613"/>
<path id="a" d="m35.105 11.86c-0.016278-0.01413-0.030359-0.030607-0.041778-0.048889 0.041778-0.049778 0.093333-0.098667 0.14489-0.15822 0.031111-0.039111 0.11378-0.048889 0.20711-0.048889 0.040889 0 0.082667 0.0097777 0.11378 0.0097777 0.016037 0.0019708 0.030585 0.010373 0.040306 0.023279s0.013782 0.029208 0.011249 0.045166v0.051556c-0.16533 0-0.21689 0.0097778-0.22756 0.019556-0.080648 0.040599-0.16344 0.0768-0.248 0.10844v-0.0017777z" fill="#fff"/>
<path d="m34.133 12.185c-0.072 0.010667-0.13422 0.030222-0.19644 0.04-0.040889 0-0.072-0.019556-0.062222-0.049778v-0.048889c-0.0037876-0.042152-0.017825-0.082738-0.040889-0.11822l-0.062222 0.029333c0.015008 0.059316-3.008e-4 0.12222-0.040889 0.168-0.021333 0.0097778-0.041778 0.019556-0.062222 0-0.020444-0.019556-0.031111-0.030222-0.051556-0.04-0.010667-0.018101-0.010667-0.040566 0-0.058667 0.0062302-0.10423 0.036665-0.20558 0.088889-0.296 0.052221-0.049891 0.13445-0.049891 0.18667 0 0.092795 0.11552 0.1724 0.24104 0.23733 0.37422h0.0035555z" fill="#fff"/>
</g>
</g>
</svg>
