<?xml version="1.0" encoding="utf-8"?>
<!-- Generator: Adobe Illustrator 25.0.1, SVG Export Plug-In . SVG Version: 6.00 Build 0)  -->
<svg version="1.0" id="Ebene_1" xmlns="http://www.w3.org/2000/svg" xmlns:xlink="http://www.w3.org/1999/xlink" x="0px" y="0px"
	 viewBox="0 0 901.2 678" style="enable-background:new 0 0 901.2 678;" xml:space="preserve">
<style type="text/css">
	.st0{fill:#B1B3B4;}
	.st1{fill:#003B79;}
	.st2{fill:#FFFFFF;}
	.st3{fill:#E2001A;}
</style>
<path class="st0" d="M450.6,622C577.1,622,680,519.1,680,392.6V75.4c0-7.8-6.1-14.1-13.7-14.5C596,57.6,523.5,56,450.6,56
	c-72.9,0-145.4,1.6-215.6,4.9c-7.7,0.4-13.7,6.8-13.7,14.5v317.2C221.2,519.1,324.1,622,450.6,622"/>
<path class="st1" d="M450.6,610.1c119.9,0,217.5-97.6,217.5-217.5V75.4l0,0.1c0-1.5-1.2-2.7-2.7-2.7c-70-3.2-142.2-4.9-214.8-4.9
	s-144.8,1.6-214.8,4.9c-1.5,0-2.7,1.2-2.7,2.7l0-0.1v317.2C233.1,512.5,330.7,610.1,450.6,610.1"/>
<circle class="st2" cx="450.6" cy="393.7" r="190"/>
<path class="st3" d="M505.8,570.6c-5.7,1.1-11.8-1.5-14.9-6.9c-1.3-2.3-1.9-4.7-1.9-7.2l0-1.6l0,0c0-0.1,0-0.2-0.1-0.3
	c-0.2-0.3-0.5-0.4-0.8-0.2c-0.1,0-0.1,0.1-0.2,0.2l0,0l-0.6,0.8c-3.1,3.9-11,8-24,10.5c-0.3,0.1-0.6,0.1-0.9,0.2c0,0-0.1,0-0.1,0
	c-1.4,0.2-2.8,0.5-4.2,0.7c-0.3,0-0.6,0.1-0.9,0.1c-5.4,0.8-11.3,1.3-17.3,1.4c-56.9,0.8-96.3-22.4-120.4-43.5
	c-11.4-11.4-21.3-24.3-29.5-38.4c-16.2-28.2-24.8-60.2-24.8-92.7c0-13.7,1.6-27.4,4.6-40.7c1.9-5.5,7.2-9.5,13.4-9.5
	c2.6,0,5.1,0.7,7.2,2l1.4,0.8l0,0c0.1,0.1,0.2,0.1,0.3,0.1c0.3,0,0.6-0.3,0.6-0.6c0-0.1,0-0.2-0.1-0.2l0,0l-0.4-0.9
	c-1.8-4.6-1.4-13.5,2.9-26c0.1-0.3,0.2-0.6,0.3-0.9c0,0,0-0.1,0.1-0.1c0.5-1.3,1-2.6,1.5-4c0.1-0.3,0.2-0.6,0.3-0.8
	c2.1-5.1,4.5-10.4,7.4-15.6c27.8-49.6,67.5-72.2,97.9-82.5c15.6-4.2,31.7-6.3,48-6.4c32.5,0.1,64.5,8.6,92.6,24.8
	c11.9,6.9,22.9,15.1,33,24.3c3.8,4.4,4.6,11,1.5,16.3c-1.3,2.3-3.2,4-5.3,5.2l-1.4,0.8l0,0c-0.1,0-0.2,0.1-0.2,0.2
	c-0.2,0.3-0.1,0.7,0.2,0.8c0.1,0,0.2,0.1,0.2,0.1l0,0l1,0.1c4.9,0.8,12.4,5.5,21.1,15.6c0.2,0.2,0.4,0.5,0.6,0.7
	c0,0,0.1,0.1,0.1,0.1c0.9,1.1,1.8,2.2,2.7,3.3c0.2,0.2,0.4,0.5,0.6,0.7c3.4,4.3,6.8,9.1,9.8,14.2c29.1,48.9,28.8,94.6,22.5,126
	c-4.2,15.6-10.4,30.6-18.5,44.7c-16.3,28.1-39.7,51.5-67.8,67.8C531.4,561.1,518.8,566.5,505.8,570.6"/>
<polygon class="st2" points="282.8,125.5 281.8,99 276.2,101.4 275,95.5 283.4,92.4 288,92.2 289.2,125.3 "/>
<path class="st2" d="M304.2,121.3c0.1,2.2-1.6,4.1-3.8,4.2c-2.2,0.1-4.1-1.7-4.2-3.9c-0.1-2.2,1.7-4.1,3.9-4.2
	C302.3,117.4,304.1,119.1,304.2,121.3"/>
<polygon class="st2" points="326.8,96.3 327.1,104.9 337.8,104.6 337.9,109.8 327.2,110.1 327.6,124 321.2,124.2 320.3,91.1 
	338,90.6 338.2,96 "/>
<path class="st2" d="M356.9,123.8c-7.7,0.2-11.5-3.4-11.6-9.2L345,98.1l6.3-0.1l0.3,15.1c0.1,3.9,2,5.6,5.6,5.5
	c3.9-0.1,5.4-2.3,5.3-5.9l-0.3-14.9l6.2-0.1l0.3,15.6C368.8,118.9,365.3,123.6,356.9,123.8"/>
<path class="st2" d="M381.7,123.4c-1.6,0-3.6-0.2-5-0.5l0.2-5.6c1.5,0.6,3.4,0.9,5.4,0.9c2.1,0,3.9-1,3.8-3
	c-0.1-3.9-10.3-1.6-10.4-9.9c-0.1-5,3.6-8.4,10.7-8.5c1.4,0,3.3,0.1,4.7,0.3l-0.1,5.3c-1.4-0.4-3.3-0.6-4.7-0.6
	c-2.7,0-3.8,1.1-3.8,2.7c0.1,3.6,10.5,2,10.6,9.8C393.1,119.6,388.8,123.3,381.7,123.4"/>
<path class="st2" d="M404.6,123.1c-1.6,0-3.6-0.2-5-0.5l0.2-5.6c1.5,0.6,3.4,0.9,5.4,0.9c2.1,0,3.9-1,3.9-2.9
	c0-3.9-10.3-1.6-10.4-10c0-5,3.7-8.4,10.7-8.4c1.4,0,3.2,0.2,4.7,0.4l-0.1,5.3c-1.4-0.4-3.2-0.6-4.7-0.6c-2.7,0-3.8,1.1-3.8,2.6
	c0,3.6,10.5,2,10.5,9.8C416,119.4,411.7,123,404.6,123.1"/>
<path class="st2" d="M431.8,111.2c-0.5,0-1.5,0-2.2,0.1l0,6.5c0.7,0.1,1.7,0.1,2.7,0.1c3.1,0,4.5-1.4,4.5-3.5
	C436.8,112.1,434.9,111.2,431.8,111.2 M432.2,101.1c-0.8,0-1.8,0.1-2.6,0.1l0,6.1c0.7,0,1.5,0,1.8,0c3,0,5-1.1,5-3.3
	C436.4,102.3,435.4,101.1,432.2,101.1 M432.5,122.4c-1.9,0-5.2-0.1-9.1-0.1l-0.1-25.5c2.6,0,6.8-0.2,10.1-0.2c6.9,0,9.7,2.3,9.7,6.3
	c0,2.5-1.4,4.6-3.9,5.6v0.1c2.8,0.8,4.3,2.9,4.3,5.7C443.5,118.2,440.9,122.4,432.5,122.4"/>
<path class="st2" d="M461.7,107.3c-0.4-1.2-0.9-2.7-1.2-3.8h0c-0.3,1.1-0.7,2.5-1.1,3.6l-2.3,6.2l6.9,0L461.7,107.3z M466.9,122.3
	l-1.6-4.5l-9.8,0l-1.6,4.5l-6.4,0l9.5-25.5l7.5,0l9.4,25.5L466.9,122.3z"/>
<polygon class="st2" points="479.8,122.4 480,96.9 486.3,96.9 486.1,116.9 494.4,116.9 494.4,122.5 "/>
<polygon class="st2" points="500.4,122.6 500.8,97.1 507.1,97.2 506.8,117.1 515.1,117.2 515,122.8 "/>
<path class="st2" d="M534.4,123.5c-11.6-0.2-15.1-8-15-16.2c0.2-10.5,5.8-17.7,16.9-17.6c2.3,0,4.8,0.4,7,1l-0.8,5.8
	c-2.1-0.7-4.4-1.1-6.6-1.1c-6.2-0.1-9.3,4.5-9.4,10.9c-0.1,7.2,2.8,11.3,9.5,11.4c2,0,4.7-0.5,6.4-1.3l0.6,5.7
	C540.5,123.1,537.5,123.6,534.4,123.5"/>
<polygon class="st2" points="550.1,123.4 550.7,97.9 557,98.1 556.6,118 564.8,118.2 564.7,123.8 "/>
<path class="st2" d="M581.5,124.7c-7.7-0.2-11.3-4-11.1-9.7l0.5-16.5l6.3,0.2l-0.5,15.1c-0.1,3.9,1.7,5.6,5.3,5.7
	c3.9,0.1,5.5-2,5.6-5.7l0.4-14.9l6.2,0.2l-0.5,15.6C593.6,120.4,589.9,124.9,581.5,124.7"/>
<path class="st2" d="M612,104c-0.8,0-1.8,0-2.7,0l-0.2,6.1c0.7,0.1,1.5,0.1,1.8,0.1c3,0.1,5-0.9,5.1-3.1
	C616.1,105.3,615.2,104.1,612,104 M611.2,114.1c-0.5,0-1.5-0.1-2.2,0l-0.3,6.5c0.7,0.1,1.7,0.2,2.7,0.2c3.1,0.1,4.6-1.3,4.6-3.4
	C616.2,115.2,614.3,114.2,611.2,114.1 M611.4,125.3c-1.9-0.1-5.2-0.3-9.1-0.4l0.9-25.5c2.6,0.1,6.8,0.1,10.1,0.2
	c6.9,0.3,9.6,2.7,9.4,6.7c-0.1,2.5-1.5,4.6-4.1,5.4l0,0.1c2.8,0.9,4.2,3.1,4.1,5.8C622.6,121.5,619.8,125.6,611.4,125.3"/>
<polygon class="st2" points="278.6,178.3 278,164 264,164.6 264.6,178.9 258.2,179.2 256.8,146.1 263.2,145.8 263.7,159.1 
	277.7,158.5 277.2,145.3 283.6,145 284.9,178.1 "/>
<polygon class="st2" points="293.4,177.8 292.5,152.3 308.2,151.8 308.4,156.7 299,157 299.2,162.1 308.1,161.8 308.3,166.6 
	299.4,166.9 299.6,172.5 308.9,172.2 309.1,177.2 "/>
<polygon class="st2" points="317.3,177 316.5,151.5 322.9,151.3 323.6,176.8 "/>
<path class="st2" d="M341.6,155.8c-0.9,0-2.1,0.1-3,0.2l0.4,15c0.6,0.1,1.7,0.1,2.9,0.1c4.5-0.1,7.8-2.8,7.7-7.9
	C349.4,158.2,346.7,155.7,341.6,155.8 M341.3,176.5c-3.4,0.1-6.2,0.1-8.5,0l-0.6-25.4c2.3-0.1,6.8-0.3,9.9-0.4
	c8.3-0.2,13.9,3.2,14.1,12.1C356.4,172,349.9,176.2,341.3,176.5"/>
<polygon class="st2" points="363.2,175.8 362.8,150.3 378.5,150 378.6,155 369.2,155.2 369.3,160.3 378.2,160.1 378.3,164.9 
	369.4,165.1 369.5,170.7 378.8,170.5 378.9,175.5 "/>
<path class="st2" d="M403.2,175.2l-7.8-12.4c-0.9-1.4-1.8-3.2-2.4-4.6h0c0.1,1.2,0.2,2.5,0.2,4.5l0.2,12.6l-6.1,0.1l-0.3-25.5
	l8.5-0.1l7.5,12.1c1,1.5,1.9,3.1,2.7,4.8h0c-0.1-1.5-0.2-3.6-0.2-6.3l-0.2-10.7l6.1-0.1l0.3,25.5L403.2,175.2z"/>
<polygon class="st2" points="437.9,175 437.9,164.7 427.1,164.7 427.1,175 420.8,175 420.7,149.5 427,149.5 427.1,159.3 
	437.9,159.2 437.8,149.5 444.2,149.5 444.3,174.9 "/>
<polygon class="st2" points="453.4,175 453.5,149.5 469.2,149.5 469.2,154.4 459.8,154.4 459.8,159.5 468.7,159.5 468.7,164.3 
	459.8,164.3 459.8,169.9 469.1,169.9 469.1,175 "/>
<polygon class="st2" points="477.3,175 477.5,149.5 483.8,149.6 483.6,175.1 "/>
<path class="st2" d="M519.4,175.5l-1.6-12.3c-0.3-2.2-0.5-4.1-0.6-5.6h-0.1c-0.4,1.6-0.8,3.4-1.3,5l-4.3,12.7l-6.6-0.1l-3.5-11.9
	c-0.6-1.8-1.1-4.1-1.5-6l0,0c-0.1,1.9-0.3,3.8-0.7,5.8l-1.7,11.9l-6.3-0.1l4.3-25.4l7.9,0.1l4,13c0.4,1.4,0.8,3.1,1.2,4.8h0
	c0.4-1.8,0.8-3.2,1.3-4.7l4.5-13l8.1,0.1l3.5,25.5L519.4,175.5z"/>
<polygon class="st2" points="549.3,176 549.9,149.5 544.2,151.6 543.4,145.6 552,143 556.6,143.1 555.8,176.2 "/>
<path class="st2" d="M575,147.9c-2.9-0.1-4.6,1.4-4.7,3.5c-0.1,2.2,1.7,3.6,4.7,5.2c2.9-1.7,4.3-3.2,4.4-5
	C579.4,149.8,578.1,148,575,147.9 M574,162.5c-2.5,1.5-4.5,3-4.6,5.3c-0.1,2.5,1.8,4.2,4.9,4.3c2.8,0.1,5-1.3,5.1-3.8
	C579.5,165.7,577,164.1,574,162.5 M573.6,177.2c-7-0.2-10.9-3.8-10.8-9c0.1-3.8,3-6.4,6.2-8.3c-3.3-2-5.3-4.6-5.2-7.9
	c0.2-5.7,5.1-9.2,11.7-9c6.4,0.2,10.3,3.8,10.2,8.4c-0.1,3.7-2.7,6.1-5.9,8c3.5,2.1,6.2,4.7,6.1,8.7
	C585.8,174.3,580.1,177.4,573.6,177.2"/>
<path class="st2" d="M605.3,150.6L605.3,150.6l-8.8,13.3c2.2,0,6.8,0.1,8.3,0.2L605.3,150.6z M610.7,169.9l-0.3,7.9l-6.2-0.2
	l0.3-7.9l-13.4-0.5l-0.7-5l13.2-19.8l7.9,0.3l-0.7,19.4l4.9,0.2l-0.2,5.7L610.7,169.9z"/>
<path class="st2" d="M632.8,162.7c-3.2-0.1-5.4,2.1-5.5,5.1c-0.1,3.3,1.6,5.9,4.8,6c3.6,0.1,5.6-2.2,5.7-5.5
	C637.9,165.1,636.2,162.8,632.8,162.7 M631.4,179.2c-6.9-0.3-11.3-5.1-10.9-14.5c0.6-13.5,8.3-19.7,17.9-19.3
	c1.6,0.1,2.9,0.2,3.8,0.4l-0.2,5.6c-1.3-0.3-2.4-0.5-3.9-0.6c-5.1-0.2-8.7,2.4-10.3,7.7c-0.1,0.4-0.3,1-0.5,1.7l0,0
	c1.7-1.7,4.1-2.7,7.3-2.6c6.3,0.3,10,4.5,9.8,10.2C644.1,175.1,638.8,179.5,631.4,179.2"/>
<path class="st2" d="M452,471.1c-48.4,0-53.7-34.1-53.7-70.6c0-44.8,10.2-79.1,59.3-79.1c10.4,0,12.8,1.3,22.4,3.9l-3,25.6
	c-9.5-2.8-10.9-4.4-20.9-4.4c-24.6,0-26.7,23.8-26.7,49.1c0,27.4,2.5,49.8,28.7,49.8c8.9,0,12.2-2.6,19.8-6.1l3.3,25.2
	C470.3,468.5,465.7,471.1,452,471.1"/>
<path class="st2" d="M554.3,469.1h0.3h0.5c22.6-0.1,27.4-15.9,27.5-36.6V322.5h-28.2v58.7h-32.8v-58.7h-28.3v146.7h28.3v-63.7h32.8
	L554.3,469.1L554.3,469.1z"/>
<path class="st2" d="M352.2,357.5c0-6.3,1.5-11.2,8.4-11.2h32.2v-23.9h-41.2c-22.8,0-27.6,15.8-27.7,36.6v110.1h28.2v-61.7h34.3
	v-23.2h-34.3V357.5L352.2,357.5z"/>
</svg>
