<?xml version="1.0" encoding="UTF-8"?>
<svg version="1.1" viewBox="0 0 80 80" xmlns="http://www.w3.org/2000/svg">
<title>1 – Fundamentals/Logos/Clubs/Leverkusen B04</title>
<g fill="none" fill-rule="evenodd">
<rect width="80" height="80"/>
<g transform="translate(7 14)" fill-rule="nonzero">
<path d="m18.889 2.8516c0.34941-0.36671 1.1273-1.1236 2.5638-1.0752 0.8988-0.41512 1.9265-0.25157 2.3089-0.027137 0 0 0.64681-0.015402 1.0644 0.18556 5.2836-1.7651 10.997-1.7651 16.28 0 0.4168-0.20096 1.0636-0.18556 1.0636-0.18556 0.38238-0.22443 1.4101-0.38798 2.3089 0.027137 1.4343-0.048406 2.2122 0.71142 2.5638 1.0752 0.19778-0.55594 0.54353-1.0268 1.3552-1.3004 0.29301-1.505 2.2459-2.1849 5.0031-0.79577 1.2306-1.1163 3.0356 0.073343 3.6267 1.6869 0.90832-0.22956 2.3485 0.61681 2.2518 3.329 0.92004 0.048406 1.2775 1.018 1.0167 2.589 0.54719-0.11661 3.2348-0.61681 5.1606 1.8336 0.91858 1.1691 0.38531 2.6623-0.59188 3.3914-0.065194 0.18189-0.47394 1.8138-1.7075 2.479-0.073252 0.82731 1.3581 2.5956 1.8965 3.7588 1.5134 3.2718 0.76109 8.829-4.8485 9.7795 0.24832 0.23323 0.81822 1.0158 1.005 1.6656 0.241 0.84051 0.059334 1.6524-0.36626 2.347-0.46295 0.76276-2.1976 1.846-2.6246 2.3902 0.80577 0.47599 1.7141 1.4485 1.3061 3.2836l-1.594 7.1781c-0.26151 1.1691-1.0402 2.1585-2.3104 2.4152-0.64388 0.12982-1.3185-0.0066009-1.7222-0.11368-2.788-0.73929-4.8053-0.16575-7.8958 0.83684-1.6115 0.5222-3.3652 1.1001-5.447 1.5527-5.006 1.0542-10.176 1.0542-15.182 0-2.0796-0.44886-3.8377-1.0283-5.4492-1.5505-3.0905-1.0026-5.1079-1.5761-7.8958-0.83684-0.40582 0.10708-1.0783 0.2435-1.7222 0.11368-1.2702-0.2567-2.0511-1.2468-2.3104-2.4152l-1.5932-7.1781c-0.40801-1.8336 0.50397-2.8076 1.3061-3.2836-0.42999-0.5442-2.1617-1.6275-2.6246-2.3902-0.42266-0.69602-0.60433-1.5079-0.36626-2.347 0.18679-0.64982 0.75669-1.4324 1.005-1.6656-5.6067-0.95199-6.359-6.5092-4.8442-9.781 0.5384-1.1632 1.9697-2.9337 1.8965-3.7588-1.2372-0.66302-1.6438-2.2971-1.709-2.479-0.97718-0.72903-1.5105-2.2223-0.59188-3.3914 1.9258-2.4504 4.6149-1.9502 5.1606-1.8336-0.26078-1.571 0.096693-2.5406 1.0167-2.589-0.096693-2.7137 1.3434-3.5586 2.2518-3.329 0.59114-1.6135 2.3961-2.8039 3.6267-1.6869 2.7572-1.3898 4.7138-0.70996 5.0031 0.79504 0.81163 0.27724 1.1574 0.74443 1.3552 1.3004z" fill="#fff"/>
<path id="Shape" d="m25.941 48.471c-1.9844-0.42979-3.6553-0.98573-5.1906-1.4837-3.0033-0.97472-5.6404-1.7881-9.095-0.97179-0.70615 0.17529-0.95228 0.17089-1.1076-0.5464l-1.4335-6.4608c-0.13112-0.60141 0.045416-0.72683 0.62484-0.85738 4.2706-0.91752 7.7918-0.28604 11.334 0.61828 1.8562 0.47379 3.6985 1.0158 5.6287 1.4397 1.9639 0.43126 4.0171 0.74076 6.2616 0.74076s4.2977-0.30951 6.2616-0.74076c1.9302-0.42392 3.7725-0.96592 5.6287-1.4397 3.5425-0.90432 7.0637-1.5358 11.334-0.61828 0.57942 0.13055 0.75596 0.25597 0.62484 0.85738l-1.4343 6.4644c-0.15749 0.71803-0.40215 0.72169-1.1105 0.54567-3.456-0.81484-6.0872 0-9.092 0.97252-1.5383 0.498-3.2062 1.0539-5.1906 1.4837-4.6313 0.97301-9.414 0.97301-14.045 0l7.325e-4 -0.0036672zm-0.07838-37.038-0.18679-0.11295 0.046881-0.21416c0.12453-0.56621 0.047614-1.0708-0.82335-1.1001l-0.21536-0.0073343-0.65927-2.0756 0.18166-0.12908c0.59774-0.42465 0.45929-0.95859-0.35161-1.2468l-0.20144-0.073343v-0.21343c0-0.34544 0.20804-0.53687 0.356-0.67182l0.11354-0.10341c0.035161-0.033738 0.073252-0.073343 0.10915-0.11075 0.081379-0.088652 0.15127-0.18722 0.20804-0.29337l0.052741-0.099013 0.10402-0.041072c5.3802-2.1054 11.355-2.1054 16.735 0l0.10402 0.041072 0.052741 0.099013c0.056761 0.10615 0.12666 0.20472 0.20804 0.29337 0.037358 0.041072 0.073252 0.073343 0.10915 0.11075l0.11354 0.10341c0.1465 0.13495 0.356 0.32638 0.356 0.67182v0.21489l-0.20144 0.073343c-0.8109 0.29337-0.95228 0.82584-0.35161 1.2468l0.18166 0.12908-0.65927 2.0756-0.21536 0.0073342c-0.87097 0.02787-0.94788 0.53247-0.82335 1.1001l0.046881 0.21416-0.18679 0.11295c-0.26151 0.15842-0.49079 0.7877-0.33916 1.2468l0.22635 0.68282-0.64974-0.30877c-4.0088-1.9216-8.6711-1.9216-12.68 0l-0.64828 0.31171 0.22635-0.68282c0.15163-0.46059-0.07838-1.0899-0.33916-1.2483v-0.0029337z" fill="#ff0"/>
<path id="a" d="m56.732 16.955c-0.019177 0.027111-0.040228 0.052844-0.062997 0.07701-0.2366 0.2479-0.70395 0.49213-1.1127 0.47966l-0.34428-0.010268 0.030766 0.34324c0.13478 1.4845 1.0153 3.472 1.9046 4.5018 0.90393 1.0444 1.383 2.179 1.3332 3.1985l-0.01465 0.29337 0.29301 0.02787c1.7163 0.16062 2.9132-0.65422 3.341-1.8262 0.65121-1.7822-0.61751-3.7089-1.4797-5.013-1.1369-1.7199-0.94715-3.6715-0.6871-4.9037l0.042486-0.20169-0.17068-0.11515c-0.34355-0.23103-0.52522-0.62195-0.52522-1.0693 0-0.49726 0.12306-1.04 0.61751-1.5358 0.52302-0.52293 1.0819-0.58674 1.8936-0.58674 0.39922 0 1.3918 0.44006 1.6848 0.87351 0.0080543 0.010691 0.010506 0.024599 0.0065926 0.037405 0 0.011735-0.019778 0.047673-0.086437 0.083611-0.33623 0.17896-0.52302 0.47379-0.64974 0.7613-0.11574 0.2633-0.19632 0.56401-0.304 0.84711-0.18679 0.4892-0.42486 0.85151-1.2006 0.85151h-0.23148l-0.062264 0.22003c-0.1121 0.40662-0.1753 0.8252-0.18826 1.2468-0.047614 1.274 0.26883 2.1394 0.73691 2.911 0.15969 0.26257 0.40801 0.63588 0.66879 1.0561 0.26622 0.41878 0.5074 0.85299 0.72226 1.3004 1.1112 2.4005 0.36626 5.354-2.3441 6.2143-0.43365 0.13788-1.4079 0.2743-2.4393 0.097546l-0.17287-0.03007-0.11208 0.13422c-0.060799 0.073343-0.12599 0.14302-0.19485 0.21196-0.10329 0.10341-0.22855 0.21416-0.36626 0.33151l-0.066659 0.057941-0.025638 0.083611c-0.23294 0.76717-0.15896 1.6641 0.61605 2.5611 0.30619 0.35425 0.5721 0.64248 0.77574 0.89185s0.30839 0.42025 0.34795 0.55667c0.052009 0.18189 0.016848 0.41732-0.72666 0.95346-1.8936 1.3612-2.659 2.5186-3.0766 3.3481-0.19265 0.38505-0.30033 0.68869-0.42266 0.89551-0.08717 0.14669-0.13771 0.17309-0.241 0.17382-0.37285-0.013202-0.91785-0.077743-1.3185-0.24643l-0.24539-0.10415-0.13332 0.22663c-0.2432 0.40925-1.2145 0.4848-1.6064 0.2281l-0.12892-0.084344-0.1465 0.054274c-0.80577 0.2985-1.3442 0.25377-1.6701 0.15622-0.12563-0.035644-0.24498-0.09057-0.35381-0.16282-0.025619-0.017474-0.050087-0.036582-0.073252-0.057207-1.4277-0.10855-1.531-1.571-0.91052-2.3646 0.13698-0.17529 0.5655-0.69896 1.4592-0.69896 0.60872 0 3.489-1.8086 3.489-2.765 0-0.22003-0.1465-0.37845-0.25199-0.47453-0.13874-0.1164-0.28754-0.22022-0.44464-0.31024-0.3267-0.19583-0.76182-0.42319-1.1969-0.70702-0.86437-0.56254-1.6167-1.2784-1.6167-2.3279 0-0.84271 0.2366-2.292 2.5946-2.292h0.30546v-0.30584c0-1.7089-1.7141-3.4156-2.5638-4.0632-0.46075-0.36315-0.82839-0.83105-1.0724-1.3649l-0.054939-0.11661-0.12087-0.042539c-0.8739-0.30657-1.6533-1.3011-2.3887-2.468-0.36626-0.57647-0.70029-1.1683-1.0189-1.692-0.31865-0.52367-0.63509-1.0063-0.95228-1.3348l-0.092297-0.096079h-0.13185c-0.38531 0.0044005-0.87536-0.14669-1.2914-0.30584l-0.1509-0.059408-0.13405 0.092412c-0.7523 0.52-1.5742 0.18336-1.6115-0.2567l-0.026371-0.2765h-0.27762c-0.42999 0-0.60872-0.26183-0.62484-0.65642-0.01758-0.44006 0.18752-0.85444 0.38531-0.97472l0.18679-0.11295-0.046881-0.21416c-0.11647-0.52953-0.33037-2.1321 4.1944-0.15035 0.12526 0.055007 0.25345 0.11662 0.38457 0.18262l0.5743 0.28897-0.13991-0.62855c-0.17507-0.79063-0.52888-1.5351-1.2702-2.1805l-0.15529-0.13495-0.18166 0.097546c-0.2974 0.15182-0.50471 0.12615-0.75816 0-0.16577-0.090522-0.32445-0.1935-0.47467-0.30804-0.18679-0.13568-0.39043-0.29337-0.62411-0.44886-0.63876-0.43566-0.49445-0.97766 0.32158-1.2718l0.20144-0.073343v-0.21929c0.0018258-0.15272-0.044014-0.30221-0.13112-0.42759-0.035566-0.052407-0.075772-0.1015-0.12013-0.14669-0.037358-0.038138-0.07838-0.073343-0.12233-0.11588s-0.073252-0.068942-0.1172-0.10781-0.073252-0.073343-0.11281-0.11735c-0.08395-0.098109-0.15464-0.20686-0.21023-0.32344-0.22781-0.46939 0.29301-1.0165 0.95228-0.71656l0.42852-0.24276c0.022977-0.013591 0.047594-0.024189 0.073252-0.031537 0.13536-0.045202 0.27797-0.064606 0.42047-0.057207 0.39556 0.0095346 0.67392 0.13862 0.7208 0.20903l0.51276-0.010268c-0.016439 0.010098-0.029458 0.024922-0.037358 0.042539 0.018693-0.0077896 0.038446-0.012734 0.058602-0.014669 0.106-0.0077225 0.21219 0.011978 0.30839 0.057207 0.26224 0.11221 0.64095 0.42539 0.96326 1.2021l0.10329 0.24863 0.25931-0.073343c0.2214-0.063005 0.44714-0.10958 0.67538-0.13935 0.1465-0.016869 0.66806-0.05574 0.79259-0.073343 0.13373-0.021539 0.25977-0.076816 0.36626-0.16062 0.083432-0.066429 0.16089-0.14005 0.23148-0.22003l0.09303-0.098279c0.027836-0.02787 0.057136-0.056474 0.087902-0.082144 0.04957-0.045157 0.10657-0.081385 0.16848-0.10708 0.15091-0.038154 0.30442-0.06512 0.45929-0.080677l0.34648-0.045472-0.090832-0.33811c-0.024906-0.092412-0.056404-0.22003-0.073252-0.33518-0.0087272-0.048508-0.014598-0.097488-0.01758-0.14669-0.0013795-0.012675-0.0013795-0.025463 0-0.038138 0.01465-0.047673 0.073252-0.11808 0.29301-0.18702 0.23367-0.073343 0.49225-0.10708 0.65487-0.16355 0.097425-0.033004 0.19925-0.067475 0.29301-0.10488 0.10851-0.039885 0.21142-0.093625 0.30619-0.15989 0.23634-0.15602 0.31984-0.46371 0.19485-0.71803 0.060799 0.0058674 0.1465 0.019069 0.25565 0.038138 0.21193 0.038135 0.41953 0.097347 0.61971 0.17676 0.075854 0.029209 0.14933 0.064275 0.21976 0.10488 0.010336 0.0060932 0.02036 0.012702 0.030033 0.019803-0.0034237 0.029416-0.0098046 0.058411-0.019046 0.086544-0.025638 0.080677-0.33842 0.65202-0.33842 0.65202s0.62704-0.059408 0.70615-0.060141c0.10175-0.0014163 0.20343 0.0056984 0.304 0.021269 0.16115 0.026403 0.31279 0.058674 0.4461 0.079944 0.14741 0.030223 0.29909 0.033206 0.44757 0.0088011 0.20092-0.038552 0.35815-0.19569 0.39703-0.39678 0.021613-0.12159 0.018624-0.2463-0.0087903-0.36671 0.15211 0.031891 0.29972 0.082388 0.43951 0.15035 0.51276 0.2457 0.70468 0.5486 0.6285 0.7591-0.060799 0.16795-0.29301 0.33224-0.30107 0.33811l-0.35893 0.24056s0.36626 0.2721 0.37432 0.28017c0.025654 0.019279 0.050116 0.040097 0.073252 0.062341 0.078986 0.084512 0.14558 0.17983 0.19778 0.2831 0.21976 0.40852 0.67612 0.2655 0.86144 0.15842 0.23087-0.12813 0.39826-0.34646 0.46222-0.60288 0.241 0.25303 0.47028 0.67035 0.49811 0.97546 0.024906 0.26697-0.042486 0.57061-0.16555 0.66522-0.042486 0.033004-0.27836 0.073343-0.31718 0.073343l-0.43951 0.049873s0.23074 0.44959 0.25272 0.52733c0.039789 0.14711 0.056106 0.29958 0.048346 0.45179-0.019778 0.5134 0.46954 0.60361 0.73252 0.56034 0.22711-0.039673 0.43585-0.15033 0.59627-0.31611 0.019778 0.038138 0.039556 0.082144 0.060067 0.13128 0.13845 0.33811 0.21243 0.78183 0.12013 1.1001-0.054206 0.18556-0.32011 0.44006-0.40655 0.45766-0.035787 0.0061894-0.072202 0.0079139-0.10841 0.005134-0.056404 0-0.11208-0.0095346-0.16042-0.015402-0.063046-0.0092347-0.12675-0.01316-0.19046-0.011735-0.27909 0.016135-0.35747 0.18262-0.33403 0.37698 0.0093263 0.066078 0.013734 0.13276 0.013185 0.19949 0 0.073343-0.0073252 0.15109-0.016116 0.27357-0.073252 0.94539 0.72739 0.94465 1.2453 0.66449 0.026161 0.16043 0.035734 0.32313 0.028568 0.48553-0.0028203 0.23936-0.050013 0.47612-0.13918 0.69822-0.08424 0.18776-0.18093 0.25817-0.27323 0.2743-0.21976 0.036671-0.30839-0.0044006-0.33623-0.018336-0.40655-0.20609-0.51276-0.064542-0.56331 0.17309-0.0087902 0.040338-0.01465 0.07921-0.030033 0.12982-0.021631 0.068734-0.048572 0.13568-0.080577 0.20023-0.22562 0.47819-0.016848 0.84784 0.40142 0.93072 0.21107 0.033671 0.42707 0.017343 0.6307-0.047673-0.0045123 0.15202-0.027136 0.30295-0.067392 0.44959-0.13332 0.4914-0.39263 0.78697-0.73691 0.75763-0.015334-0.0032859-0.03013-0.0087177-0.043951-0.016135-0.037358-0.019803-0.073252-0.045472-0.10841-0.068942-0.053867-0.039124-0.11041-0.074415-0.16921-0.10561-0.084822-0.046331-0.17955-0.07149-0.27616-0.073343-0.10255 0-0.27543 0.059408-0.35088 0.29337-0.026626 0.092634-0.043806 0.18773-0.051276 0.28384-0.019022 0.24456-0.011655 0.49045 0.021976 0.73343 0.029465 0.26909 0.10766 0.53055 0.23074 0.77157 0.12746 0.22956 0.34941 0.45839 0.69443 0.45839 0.032231 0.0029337 0.058602 0.0044006 0.080577 0.0066008zm-41.815-14.509c-0.11919 0.25288-0.03422 0.55503 0.19925 0.70849 0.094741 0.066885 0.19764 0.12136 0.30619 0.16209 0.094495 0.037405 0.19632 0.073343 0.29301 0.10488 0.16262 0.056474 0.4212 0.090212 0.65487 0.16355 0.21976 0.068942 0.28202 0.13935 0.29301 0.18702 0.0013796 0.012675 0.0013796 0.025463 0 0.038138-0.002983 0.049198-0.0088533 0.098178-0.01758 0.14669-0.019778 0.11808-0.051276 0.24276-0.073252 0.33518l-0.090832 0.33591 0.34648 0.045472c0.15487 0.015557 0.30838 0.042523 0.45929 0.080677 0.06357 0.025686 0.1221 0.062435 0.17287 0.10855 0.030766 0.02567 0.060067 0.054274 0.087902 0.082144l0.09303 0.098279c0.070589 0.079974 0.14804 0.1536 0.23148 0.22003 0.10649 0.083804 0.23253 0.13908 0.36626 0.16062 0.12453 0.019803 0.64242 0.058674 0.79259 0.073343 0.22824 0.029769 0.45398 0.076346 0.67538 0.13935l0.25931 0.073343 0.10329-0.24863c0.32231-0.7767 0.70102-1.0899 0.96326-1.2021 0.096197-0.04523 0.2024-0.06493 0.30839-0.057207 0.020155 0.0019346 0.039908 0.0068789 0.058602 0.014669-0.0079002-0.017616-0.020919-0.03244-0.037358-0.042539l0.51276 0.010268c0.046881-0.073343 0.32524-0.19949 0.7208-0.20903 0.14249-0.0073982 0.28511 0.012006 0.42047 0.057207 0.026873 0.0094395 0.051725 0.023872 0.073252 0.042539 1.0885-0.068209 1.6071 0.47893 1.3793 0.94832-0.05634 0.11752-0.12802 0.22702-0.21316 0.32564-0.038091 0.043272-0.073252 0.082144-0.11281 0.11735-0.039556 0.035205-0.080577 0.073343-0.1172 0.10781-0.036626 0.034471-0.084972 0.077743-0.12233 0.11588-0.044361 0.045186-0.084568 0.094279-0.12013 0.14669-0.087107 0.12538-0.13295 0.27487-0.13112 0.42759v0.21489l0.20144 0.073343c0.81603 0.29337 0.96033 0.83611 0.32158 1.2718-0.23367 0.15842-0.43951 0.31317-0.62411 0.44886-0.15022 0.11454-0.3089 0.21752-0.47467 0.30804-0.25345 0.12908-0.46075 0.15475-0.75816 0l-0.18386-0.093145-0.15529 0.13495c-0.74131 0.64542-1.0951 1.3935-1.2702 2.1805l-0.13991 0.62855 0.5743-0.28897c0.13112-0.066008 0.25931-0.12762 0.38457-0.18262 4.5248-1.9803 4.3109-0.37918 4.1944 0.15035l-0.046881 0.21416 0.18679 0.11295c0.19778 0.12028 0.40289 0.5376 0.38531 0.97472-0.015383 0.39458-0.19485 0.65642-0.62484 0.65642h-0.27762l-0.025638 0.2765c-0.041754 0.44006-0.86364 0.7767-1.6159 0.2567l-0.13405-0.092412-0.1509 0.059408c-0.41607 0.16282-0.90613 0.31024-1.2914 0.30584h-0.13185l-0.09303 0.092412c-0.31425 0.32858-0.6307 0.81117-0.95228 1.3348-0.32158 0.52367-0.65927 1.1155-1.0189 1.692-0.73252 1.1669-1.5149 2.1614-2.3887 2.468l-0.12087 0.042539-0.054939 0.11661c-0.24402 0.53386-0.61165 1.0018-1.0724 1.3649-0.84826 0.64762-2.5638 2.3543-2.5638 4.0632v0.30584h0.30546c2.358 0 2.5946 1.4493 2.5946 2.292 0 1.0495-0.75156 1.7654-1.6167 2.3279-0.43512 0.28384-0.87023 0.5134-1.1969 0.70702-0.1571 0.090022-0.3059 0.19384-0.44464 0.31024-0.10622 0.096079-0.25199 0.25597-0.25199 0.47453 0 0.95346 2.8803 2.765 3.489 2.765 0.89367 0 1.3185 0.52367 1.4592 0.69896 0.62044 0.79357 0.51716 2.256-0.67538 2.256h-0.10548l-0.1216 0.10855c-0.023165 0.020625-0.047633 0.039734-0.073252 0.057207-0.10882 0.072251-0.22818 0.12718-0.35381 0.16282-0.32597 0.097546-0.86804 0.14228-1.6701-0.15622l-0.1465-0.054274-0.12892 0.084344c-0.3919 0.2567-1.3632 0.18116-1.6064-0.2281l-0.13625-0.22883-0.24979 0.10635c-0.39849 0.16869-0.94348 0.23323-1.3185 0.24643-0.10329 0-0.15383-0.02567-0.241-0.17382-0.12233-0.20683-0.23001-0.5134-0.42266-0.89551-0.41534-0.82951-1.1808-1.9869-3.0766-3.3481-0.74351-0.53467-0.77867-0.7701-0.72666-0.95346 0.039556-0.13642 0.1465-0.30804 0.34795-0.55667 0.20144-0.24863 0.46954-0.5376 0.77574-0.89185 0.77501-0.89698 0.84899-1.794 0.61605-2.5611l-0.025638-0.083611-0.065927-0.057941c-0.13552-0.11735-0.26078-0.2281-0.36626-0.33151-0.068857-0.068942-0.13405-0.14008-0.19485-0.21196l-0.11208-0.13422-0.17287 0.03007c-1.0314 0.17676-2.0056 0.040338-2.4393-0.097546-2.7103-0.86031-3.4575-3.8138-2.3441-6.2143 0.21486-0.44737 0.45604-0.88159 0.72226-1.3004 0.26078-0.42025 0.51276-0.79357 0.66879-1.0561 0.46808-0.77157 0.78526-1.637 0.73691-2.911-0.012956-0.42163-0.076156-0.8402-0.18826-1.2468l-0.062264-0.22003h-0.22342c-0.77574 0-1.0138-0.36231-1.2006-0.85151-0.10768-0.2831-0.18752-0.58674-0.304-0.84711-0.12673-0.2875-0.31352-0.58234-0.64974-0.7613-0.066659-0.035938-0.082775-0.073343-0.086437-0.083611-0.0039129-0.012806-0.0014616-0.026714 0.0065927-0.037405 0.29301-0.43566 1.2856-0.87351 1.6848-0.87351 0.81163 0 1.3705 0.063075 1.8936 0.58674 0.49518 0.4958 0.61751 1.0385 0.61751 1.5358 0 0.44739-0.18166 0.83831-0.52522 1.0693l-0.17068 0.11515 0.042486 0.20169c0.25638 1.2307 0.44977 3.186-0.69077 4.9022-0.86218 1.304-2.1309 3.2307-1.4797 5.013 0.42779 1.1735 1.6247 1.9869 3.341 1.8262l0.29301-0.02787-0.01465-0.29337c-0.049811-1.0195 0.42926-2.1541 1.3339-3.1985 0.89148-1.0268 1.772-3.0173 1.9046-4.5018l0.030766-0.34324-0.34428 0.010268c-0.40875 0.012468-0.87902-0.23176-1.1127-0.47966-0.024249-0.025086-0.046765-0.051796-0.067392-0.079944h0.083507c0.34502 0 0.56697-0.22883 0.69443-0.45839 0.12309-0.24102 0.20128-0.50248 0.23074-0.77157 0.03363-0.24297 0.040998-0.48887 0.021976-0.73343-0.0074702-0.096104-0.02465-0.1912-0.051276-0.28384-0.073252-0.23616-0.24832-0.29337-0.35088-0.29337-0.096605 0.0018527-0.19134 0.027012-0.27616 0.073343-0.058802 0.031198-0.11534 0.06649-0.16921 0.10561-0.035161 0.02347-0.073252 0.04914-0.10841 0.068942-0.013821 0.0074178-0.028617 0.01285-0.043951 0.016135-0.34428 0.029337-0.6036-0.26623-0.73691-0.75763-0.040255-0.14664-0.06288-0.29758-0.067392-0.44959 0.20362 0.065016 0.41963 0.081343 0.6307 0.047673 0.41827-0.082877 0.62704-0.45252 0.40142-0.93072-0.032006-0.064548-0.058946-0.13149-0.080577-0.20023-0.015383-0.050606-0.021243-0.089478-0.030033-0.12982-0.049079-0.23763-0.15676-0.37918-0.56331-0.17309-0.027836 0.013935-0.11867 0.055007-0.33623 0.018336-0.092297-0.016135-0.18899-0.086544-0.27323-0.2743-0.089165-0.22211-0.13636-0.45886-0.13918-0.69822-0.0071658-0.1624 0.0024076-0.3251 0.028568-0.48553 0.52009 0.28017 1.3185 0.2809 1.2453-0.66449-0.0087902-0.12248-0.015383-0.20243-0.016115-0.27357-5.4817e-4 -0.066733 0.0038591-0.13341 0.013185-0.19949 0.023441-0.19436-0.054939-0.36085-0.33403-0.37698-0.063701-0.0014252-0.12741 0.0025001-0.19046 0.011735-0.048346 0.0058674-0.10402 0.013202-0.15969 0.015402-0.036454 0.0027955-0.073114 0.0010711-0.10915-0.005134-0.086437-0.019803-0.35234-0.2721-0.40655-0.45766-0.092297-0.31977-0.018313-0.7635 0.12013-1.1001 0.020511-0.04914 0.040289-0.093145 0.060067-0.13128 0.16043 0.16578 0.36916 0.27643 0.59627 0.31611 0.26151 0.043272 0.75083-0.043272 0.73252-0.56034-0.0077594-0.15221 0.0085574-0.30469 0.048346-0.45179 0.021976-0.077743 0.25272-0.52733 0.25272-0.52733l-0.43951-0.049873c-0.038824-0.0044006-0.27469-0.041805-0.31718-0.073343-0.12306-0.094612-0.19046-0.39825-0.16555-0.66522 0.027836-0.30511 0.25711-0.72243 0.49079-0.96812 0.071471 0.25299 0.24036 0.4672 0.46954 0.59554 0.18533 0.10708 0.64462 0.2501 0.86144-0.15842 0.054906-0.10382 0.12448-0.19917 0.20657-0.2831 0.021954-0.02213 0.04519-0.042947 0.069589-0.062341 0.0065926-0.5266-0.22488-0.69089-0.28568-0.85884-0.073252-0.21049 0.11574-0.5134 0.6285-0.7591 0.14006-0.069595 0.28817-0.12157 0.44098-0.15475-0.027414 0.12042-0.030403 0.24512-0.0087903 0.36671 0.038876 0.20109 0.19611 0.35823 0.39703 0.39678 0.14848 0.024405 0.30016 0.021422 0.44757-0.0088011 0.13332-0.021269 0.28495-0.05354 0.4461-0.079944 0.10056-0.015571 0.20225-0.022686 0.304-0.021269 0.079112 0 0.70615 0.060141 0.70615 0.060141s-0.31425-0.56987-0.34209-0.65128c-0.011555-0.031628-0.018703-0.064698-0.021243-0.098279 0.0087902-0.0073343 0.0058601 0.0080677 0.032231-0.0080677 0.070429-0.040606 0.1439-0.075671 0.21976-0.10488 0.20018-0.079409 0.40778-0.13862 0.61971-0.17676 0.082561-0.014642 0.16601-0.023708 0.24979-0.027137z" fill="#f00"/>
<path d="m3.741 13.119c0.21976 0.56034 0.35747 0.73343 1.3867 0.69456 0.17653 0.5545 0.28188 1.1292 0.31352 1.7104 0.049811 1.3356-0.28495 2.2531-0.77647 3.0643-0.16042 0.26403-0.40875 0.63808-0.67026 1.0591-0.26065 0.40898-0.4967 0.83316-0.70688 1.2703-1.0636 2.2978-0.32524 5.0416 2.18 5.8373 0.37065 0.11735 1.1889 0.23543 2.0796 0.12248-0.12896-0.23483-0.22579-0.48596-0.28788-0.74663-1.8489 0.19509-3.2033-0.66008-3.6912-1.9979-0.36626-0.99379-0.17507-2.0008 0.17507-2.8824s0.89148-1.7089 1.3332-2.377c1.0753-1.6253 0.94055-3.5256 0.5699-5.1479 0.35747-0.18996 0.72666-0.33664 0.72519-0.99013 0-0.46353-0.098158-0.92852-0.52375-1.3282-0.96033-0.90212-2.4745-0.32784-3.0033 0.073343 0.26089 0.20268 0.46317 0.47127 0.58602 0.77817 0.11867 0.2677 0.20071 0.57207 0.31059 0.86031zm12.462 5.808c0.17947 0.18262 0.43512 0.29337 0.79259 0.29337 0.78306 0 1.5705-0.7613 2.4261-2.0536 0.41021-0.61975 0.78673-1.2806 1.1398-1.8688 0.35307-0.58821 0.72226-1.1735 1.0988-1.5651l0.19265-0.20096c0.69003 0.085078 1.758-0.40338 1.758-0.40338l0.28129 0.19362c0.2427 0.15739 0.5344 0.22075 0.82042 0.17822 0.16103-0.0090048 0.28982-0.13732 0.2996-0.2985 0.043219-0.32417-0.2432-0.56767-0.41827-0.66008-0.36626-0.17602-0.10402-0.72756 0.26371-0.55154 0 0 0.42413 0.17309 0.70468 0.73929 0.30473 0.029337 0.3333-0.13495 0.35234-0.32491 0.037358-0.36671-0.1824-1.0121-1.1588-1.0187-0.40582 0.029337-0.44977-0.58014-0.043951-0.60948 0 0 0.42852-0.024203 0.70835 0.10121 0.049811-0.2897-0.058602-0.42612-0.178-0.47233-0.35161-0.13642-1.3119-0.14228-3.582 0.86031-0.51276 0.2259-1.5903 0.88011-2.6202 1.2754 0.22708 0.27137 0.58602 0.42685 0.92517 0.14669 0.55232-0.45619 0.43951 1.8812-0.41534 2.0059-0.20136 0.024013-0.40441-0.028316-0.56917-0.14669-0.021512 0.15328-0.062626 0.30315-0.12233 0.44592-0.19119 0.36671-0.11208 0.81337 0.48566 0.78037 0.0080577 0.72096-0.63509 1.7294-1.6767 1.3473-0.73252-0.26917-0.43219-1.3854-1.2563-1.2512-0.023441 0.0044006-0.10915 0.40705-0.068124 0.91458 0.12233 1.5197 0.72593 1.1735 0.75962 1.3429 0.07545 0.37038-0.3626 0.70629-0.89953 0.80017zm0.65194 0.93292c-0.81603-0.042539-1.257-0.45766-1.479-1.0004-0.43219-0.16209-0.79405-0.55154-0.86584-1.2784-0.067392-0.68062 0.3267-1.5637-0.36626-1.5637-0.11354 0-0.24393 0.5288-0.2996 0.78843-0.35234 1.6282 0.43219 1.2043 0.13625 1.5497-0.50397 0.58674-2.2342 0.46059-2.043-1.2424 0.054206-0.48626 0.53108-1.4096 0.033696-1.4096-0.35381 0-0.30912 1.3202-0.93396 1.8673-0.041754 1.7258-1.1449 3.9957-2.0056 4.9873-1.465 1.6942-1.665 3.4471-0.48859 4.6257 0.17361 0.17382 0.41094 0.36671 0.65267 0.58234 0.28701 0.24333 0.55221 0.51132 0.79259 0.8009 0.49445 0.62268 0.86877 1.5673 0.021976 2.4856-0.20364 0.22003-0.38018 0.43052-0.54206 0.60728-0.38091 0.41732-0.1216 0.56767 0.21097 0.8009 1.3918 0.97252 2.2115 1.8409 2.7579 2.6176 0.23642 0.33786 0.44701 0.69311 0.62997 1.0627 0.1509 0.30144 0.2725 0.57794 0.40142 0.83244 0.084972 0.16795 0.81896 0.42979 1.3383 0 0.012453-0.34104-0.12746-0.73343-0.3289-1.0217-0.2432-0.35205 0.28422-0.71729 0.52741-0.36671 0.27469 0.39752 0.50178 1.0334 0.43585 1.5343 0.58602 0.20463 1.0607 0.18409 1.465-0.052073 0.059334-0.60141-0.10402-1.0356-0.30546-1.3011-0.25858-0.34031 0.25199-0.72903 0.51276-0.38872 0.3011 0.42214 0.46064 0.92907 0.45563 1.4478 0.34941-0.036671 0.47614-0.26623 0.51716-0.5332 0.064462-0.42245-0.089367-0.93072-0.27469-1.1676-0.11501-0.14669-0.45709-0.56987-1.1947-0.56987-0.68564 0-3.8252-1.8658-3.8252-3.1009 0-0.37185 0.24539-0.61828 0.36626-0.72463 0.15443-0.13092 0.32042-0.24752 0.49592-0.34838 0.32377-0.19436 0.75523-0.41952 1.1874-0.70042 0.84972-0.553 1.465-1.1816 1.465-2.0463 0-0.75323-0.22635-1.7888-1.7624-1.9282-0.3289-0.03007-1.4497-0.13935-2.1631 0.22516-0.38091 0.19436-0.71933-0.27724-0.37065-0.5244 0 0 0.39776-0.29337 1.3969-0.38725 0.010988-1.8798 1.8481-3.6671 2.6942-4.3133 0.29902-0.23554 0.55419-0.52205 0.75376-0.84638zm-7.6753 8.7373c0.016848 0.66008-0.20071 1.3671-0.80577 2.0675-0.304 0.35131-0.57063 0.63515-0.76988 0.88525-0.36626 0.45986-0.39263 0.5486 0.32011 1.0671 1.9258 1.4001 2.7323 2.5846 3.1689 3.4596 0.28935 0.58014 0.36626 0.91165 0.48346 0.90138 0.25203-0.01749 0.50232-0.054517 0.74863-0.11075 0.12313-0.027921 0.24369-0.066195 0.3604-0.11441-0.4527-0.95346-1.0907-2.1783-3.3359-3.7581-1.2328-0.87058-0.6329-1.4353 0.22855-2.3682 0.66952-0.72609 0.21316-1.428-0.39849-2.0294zm10.249-18.949h-1.9954v-1.5519s1.5742 0.0073343 2.0511-0.049873c0.17722-0.018971 0.35622-0.013046 0.53181 0.017602 0.030766 0.005134 0.10915-0.0095346 0.11134-0.058674 0.045416-0.2743 0.027103-0.89478 0.027103-0.89478 0.23337-0.26068 0.36021-0.59975 0.35527-0.94979-0.53401-0.20023-1.0827-0.36671-1.5105-0.42025-0.15163-0.017602-0.67538-0.057207-0.80211-0.07701-0.17104-0.024739-0.33305-0.092351-0.47101-0.19656-0.090832-0.068942-0.37871-0.45326-0.52888-0.48626-1.1413-0.2523-2.4334-0.13275-2.733-0.065275-0.23249 0.054879-0.41976 0.22683-0.49445 0.45399-0.21536 0-0.68857 0-0.88781 0.038138-0.23148 0.048406-0.31791 0.063075-0.32377 0.22003-0.010255 0.27577 0.67758 0.71069 0.67758 0.71069-0.095724 0.51503-0.22866 1.0224-0.39776 1.5182-0.054939 0.15329-0.057869 0.2809 0.073252 0.58674 0.18533 0.42832 0.63436 0.66008 1.2453 0.75763 0.44464 0.073343 1.0065 0.7745 1.2819 0.88525 0.16775 0.067475 1.2248 0.057941 1.6328 0.041805 0.81676-0.032271 1.6555-0.095346 1.936-0.15842 0.085705-0.017602 0.17434-0.21049 0.22122-0.32124zm-1.6987 1.0099c-0.98084 0.055007-2.0789 0.066008-2.3441-0.078477-0.55012-0.2985-0.86364-0.78403-1.1361-0.83684-0.63363-0.12248-1.3405-0.38212-1.6416-1.0789-0.35893-0.83171 0.010988-0.99599 0.22415-2.0947-0.78013-0.60214-0.7457-1.1735-0.35307-1.516 0.16701-0.14669 0.69589-0.22956 1.1955-0.22956 0.13771-0.55814 1.55-0.59261 2.6004-0.5134 0.022708-0.082144 0.050544-0.18042 0.073252-0.2567 0.043951-0.14669 0.043951-0.18776-0.18533-0.2347-0.49152-0.10121-0.76988-0.17969-1.1105-0.37772-0.29301-0.17162-0.46588-0.47819-0.40875-0.63221 0.065194-0.17162-0.4527 0.0036671-0.50251 0.099013-0.084972 0.16135 0.35747 0.81997 0.35747 0.81997-0.32768-0.027004-0.65653-0.037041-0.98524-0.030071-0.53327 0.028604-0.85558 0.16722-1.2328 0.12615-0.4505-0.049873-0.70029-0.40485-0.66806-0.66008 0.019778-0.15695-0.58602 0.2743-0.56917 0.45472 0.013918 0.14008 0.21463 0.38432 0.71201 0.70849-0.86511 0.50533-0.64901 1.1192-1.3918 1.1485-0.21976 0.0080677-0.80577-0.15989-0.86584-0.47746-0.037358-0.19069-0.44464 0.52147-0.20218 0.88011 0.12673 0.18776 0.26224 0.16869 0.87902 0.20903-0.24906 0.49213-0.28935 0.72536-0.28935 1.139 0 0.39752-0.12819 0.54567-0.43072 0.73343-0.21976 0.13568-0.71421 0.22003-1.0299-0.093879-0.08717-0.087278-0.17068 0.55961-0.093762 0.75396s0.1824 0.29337 0.49006 0.28384c0.46515-0.013935 0.72812-0.10855 0.7208-0.020536-0.027981 0.4398-0.023329 0.88106 0.013918 1.3202 0.051276 0.73343-0.74058 1.0635-1.2819 0.7767-0.13845-0.073343-0.010255 0.85591 0.24539 0.88011 0.4776 0.047673 0.92224-0.39018 0.94202-0.26257 0.11867 0.7525 0.28422 0.83097 0.32963 1.1926 0.10768 0.84931-0.71787 1.0701-1.0094 0.94319-0.20144-0.087278 0.060799 0.82877 0.48493 0.66008 0.1465-0.059408 0.35014-0.24276 0.54499-0.24276 0.30986 0 0.49811 0.10855 0.62557 0.5134 0.065194 0.20536 0.09889 0.64908 0.031498 1.1001-0.032034 0.29309-0.1177 0.57776-0.25272 0.83977-0.088635 0.15915-0.25492 0.33591-0.40801 0.37478-0.28568 0.073343 0.46295 0.41292 0.83214 0.19656 0.2974-0.17456 0.51862-1.307 0.58089-1.4617 0.18093-0.45252 0.49006-0.58674 0.74863-0.58674 0.36391-0.011952 0.68652 0.23275 0.77354 0.58674 0.043396 0.21191 0.037632 0.43096-0.016848 0.64028-0.034428 0.15695-0.19485 0.73343-0.21463 0.82731-0.20584 0.99673 0.89294 1.0334 0.77281 0.90872-0.16848-0.18042-0.1465-0.7767-0.0087903-1.4067 0.031498-0.14669 0.1531-0.66008 0.26957-0.85518 0.17947-0.30657 0.43219-0.39092 0.597-0.39092 0.86218 0 0.99403 0.68942 0.98963 1.084 0 0.16795-0.045416 0.86691-0.045416 1.0026 0 1.1786 1.4936 0.87645 1.2394 0.7613-0.29301-0.13128-0.47321-0.59481-0.55891-1.4559-0.073252-0.71362 0.11794-1.425 0.17507-1.4427 0.59993-0.18262 1.2109-0.19949 1.5808 0.5398 0.09303 0.18556 0.1758 0.50973 0.29301 0.60801 0.24466 0.20316 0.74351-0.0066009 0.85851-0.33298-0.5428-0.20389-0.56624-0.98866-0.31059-1.5109 0.1349-0.29692 0.2321-0.6096 0.28935-0.93072 0.085705 0.094612 0.597 0.47966 0.85412 0.39458 0.19192-0.063075 0.39263-0.88451 0.19192-0.77157-0.43072 0.2413-0.95228-0.30291-1.1427-0.55814-0.21958-0.27868-0.34387-0.62066-0.35454-0.97546-0.021243-0.37992-0.055671-0.85371-0.47174-1.1911zm2.5917 0.56841c0.14284-1.0048 0.49225-1.9971 1.457-2.8362l0.31059-0.27063 0.36626 0.18702c0.19851 0.10121 0.30253 0.088011 0.48127 0 0.15114-0.08384 0.29606-0.17845 0.43365-0.2831 0.18899-0.13788 0.40289-0.29337 0.64022-0.45693 0.46222-0.31097 0.27616-0.5464-0.22415-0.71729l-0.43951-0.16502v-0.35425c0-0.553 0.25418-0.7899 0.47614-0.98719 0.041021-0.036671 0.46661-0.38138 0.40435-0.61315-0.073252-0.28384-0.65927-0.18922-0.65927-0.18922-0.26297 0.073343-0.47174 0.46499-0.55159 0.66008-0.16335 0.39532-0.75596 0.14669-0.59261-0.2457 0.099647-0.22713 0.23165-0.4386 0.3919-0.62781-0.013185-0.13495-0.54133-0.091678-0.70468 0.029337-0.13899 0.18787-0.23866 0.40191-0.29301 0.62928-0.076914 0.42172-0.70761 0.30657-0.6307-0.11441 0.029445-0.13312 0.072399-0.26287 0.12819-0.38725-0.29301-0.016869-0.65927 0.35645-0.95228 1.0393 0.22415 0.077743 0.44464 0.16135 0.65341 0.24423 0.10548 0.55594 0 1.1273-0.31645 1.5321 0 0.58674 0.036626 1.4309-0.61825 1.3312-0.17684-0.03202-0.3566-0.045051-0.5362-0.038872-0.49372 0.059408-1.2182 0.047673-1.5647 0.049873v0.45619h2.0159c0.21976 0.21563-0.13039 1.3202-0.69589 1.4184-0.15236 0.027137-0.45929 0.060874-0.83727 0.091678 0.27836 0.45179 0.30546 1.0129 0.33842 1.3348 0.52105-0.20643 1.0285-0.44576 1.5192-0.71656zm25.282 0c0.49195 0.27094 1.0006 0.51027 1.5229 0.71656 0.032963-0.32197 0.060067-0.88011 0.33842-1.3348-0.37798-0.030804-0.68491-0.064542-0.83727-0.091678-0.5655-0.099746-0.91418-1.2028-0.69589-1.4184h2.0093v-0.45619c-0.34648 0-1.0709 0.0095346-1.5647-0.049873-0.17961-0.0061796-0.35936 0.0068514-0.5362 0.038872-0.65487 0.099746-0.61825-0.74076-0.61825-1.3312-0.31938-0.40559-0.4212-0.97619-0.31938-1.5321 0.20877-0.082877 0.42926-0.16649 0.65341-0.24423-0.29301-0.68282-0.65927-1.0561-0.95228-1.0393 0.055996 0.12411 0.099194 0.25362 0.12892 0.38652 0.073252 0.42099-0.55378 0.53614-0.6307 0.11441-0.054352-0.22737-0.15401-0.44142-0.29301-0.62928-0.16262-0.12102-0.6915-0.16429-0.70468-0.029337 0.16078 0.18817 0.29352 0.39864 0.3941 0.62488 0.16335 0.39532-0.42926 0.64102-0.59261 0.2457-0.079845-0.19142-0.28788-0.58674-0.55159-0.66008 0 0-0.58602-0.094612-0.65927 0.18922-0.062264 0.23176 0.36626 0.57647 0.40435 0.61315 0.21976 0.19729 0.47614 0.43419 0.47614 0.98719v0.35498l-0.43951 0.16502c-0.50031 0.17089-0.68637 0.40632-0.22415 0.71729 0.23734 0.15989 0.45123 0.31904 0.64022 0.45693 0.13759 0.10465 0.28251 0.19926 0.43365 0.2831 0.17873 0.090945 0.28275 0.10415 0.48127 0l0.36626-0.18702 0.31059 0.27063c0.96766 0.84197 1.3171 1.8343 1.4599 2.8391zm2.5953-0.56841c-0.41607 0.33738-0.4505 0.81117-0.47248 1.1911-0.010667 0.3548-0.13496 0.69678-0.35454 0.97546-0.19339 0.25523-0.71201 0.79944-1.1427 0.55814-0.20071-0.11295 0 0.70849 0.19192 0.77157 0.25711 0.085078 0.76841-0.29997 0.85412-0.39458 0.057243 0.32112 0.15445 0.6338 0.28935 0.93072 0.25565 0.5222 0.23221 1.307-0.31059 1.5109 0.11501 0.32638 0.61385 0.53614 0.85851 0.33298 0.11794-0.098279 0.20071-0.42245 0.29301-0.60801 0.36992-0.73929 0.98084-0.72243 1.5808-0.5398 0.057136 0.017602 0.24686 0.72903 0.17507 1.4427-0.085705 0.86104-0.26737 1.3246-0.55891 1.4559-0.25711 0.11515 1.2336 0.41732 1.2336-0.7613 0-0.13568-0.043951-0.83464-0.045416-1.0026-0.0043951-0.39458 0.12746-1.084 0.98963-1.084 0.16482 0 0.41754 0.084344 0.597 0.39092 0.11647 0.19803 0.23807 0.70996 0.26957 0.85518 0.13625 0.63001 0.15969 1.2263-0.0087903 1.4067-0.1172 0.12468 0.98084 0.088011 0.77281-0.91238-0.019778-0.093145-0.1802-0.67035-0.21463-0.82731-0.05448-0.20932-0.060244-0.42838-0.016848-0.64028 0.087024-0.35399 0.40963-0.59869 0.77354-0.58674 0.25858 0 0.5677 0.13568 0.74863 0.58674 0.062264 0.15475 0.28349 1.2872 0.58089 1.4617 0.36626 0.21636 1.1178-0.12322 0.83287-0.19656-0.15383-0.038872-0.32011-0.21563-0.40875-0.37478-0.13502-0.26202-0.22069-0.54669-0.25272-0.83977-0.067392-0.45326-0.033696-0.89698 0.031498-1.1001 0.12746-0.40338 0.31572-0.5134 0.62557-0.5134 0.19485 0 0.39703 0.18336 0.54499 0.24276 0.42413 0.16795 0.68637-0.7481 0.48493-0.66008-0.29301 0.12688-1.1171-0.093879-1.0094-0.94319 0.045416-0.36158 0.21097-0.44006 0.32963-1.1926 0.019778-0.12762 0.46442 0.31024 0.94202 0.26257 0.25565-0.024936 0.38384-0.95346 0.24613-0.88011-0.54206 0.28677-1.3339-0.044006-1.2826-0.7767 0.037247-0.43911 0.041899-0.88037 0.013918-1.3202-0.0073252-0.088011 0.25565 0.0066008 0.7208 0.020536 0.30766 0.0088011 0.41607-0.094612 0.49006-0.28384 0.073984-0.18922-0.0036626-0.84197-0.089367-0.7547-0.31572 0.31391-0.81236 0.22956-1.0299 0.093879-0.30253-0.18849-0.43072-0.33664-0.43072-0.73343 0-0.41365-0.040289-0.64688-0.28935-1.139 0.61898-0.040338 0.7545-0.021269 0.87902-0.20903 0.24246-0.35718-0.16408-1.0693-0.20218-0.88011-0.062264 0.31757-0.64681 0.48553-0.86584 0.47746-0.74497-0.029337-0.52888-0.64322-1.3918-1.1485 0.49738-0.32417 0.69809-0.56841 0.71201-0.70849 0.018313-0.18042-0.58602-0.61168-0.56917-0.45472 0.032231 0.25817-0.21976 0.61315-0.66806 0.66008-0.37725 0.041072-0.69956-0.097546-1.2328-0.12615-0.32871-0.0069707-0.65756 0.0030662-0.98524 0.030071 0 0 0.43951-0.66008 0.35747-0.81997-0.049811-0.095346-0.5677-0.27063-0.50251-0.099013 0.057136 0.15402-0.11281 0.46059-0.40875 0.63221-0.34062 0.19803-0.61898 0.2765-1.1105 0.37772-0.22928 0.046939-0.22928 0.087278-0.18533 0.2347 0.022708 0.073343 0.050544 0.17456 0.073252 0.2567 1.0504-0.078477 2.4627-0.044006 2.6004 0.5134 0.49958 0 1.0255 0.085078 1.1955 0.22956 0.39263 0.33884 0.42706 0.91385-0.35307 1.516 0.21316 1.1001 0.58602 1.263 0.22415 2.0947-0.30107 0.69676-1.0079 0.95346-1.6416 1.0789-0.2725 0.052807-0.58602 0.53834-1.1361 0.83684-0.2659 0.14889-1.3647 0.13788-2.3419 0.082877zm-1.6987-1.0099c0.046881 0.11075 0.13552 0.30364 0.22415 0.32344 0.28056 0.063075 1.1193 0.12615 1.936 0.15842 0.40801 0.016135 1.465 0.02567 1.6328-0.041805 0.27176-0.11368 0.8358-0.81484 1.2753-0.88525 0.60726-0.095346 1.0563-0.32931 1.2453-0.75763 0.13332-0.30804 0.13112-0.43566 0.073252-0.58674-0.16974-0.49499-0.30341-1.0016-0.39996-1.516 0 0 0.68784-0.43492 0.67758-0.71069-0.0058602-0.15915-0.092298-0.17382-0.32377-0.22003-0.19925-0.041805-0.67245-0.038138-0.88781-0.038138-0.072708-0.22905-0.25965-0.40343-0.49299-0.45986-0.2996-0.067475-1.5918-0.18702-2.733 0.065275-0.15017 0.033004-0.43951 0.41732-0.52888 0.48626-0.13782 0.10383-0.29957 0.17118-0.47028 0.19583-0.12673 0.019803-0.65048 0.059408-0.80577 0.07701-0.42779 0.049873-0.97645 0.22003-1.5105 0.42025-0.0056584 0.3514 0.1215 0.69196 0.356 0.95346 0 0-0.018313 0.62048 0.027103 0.89478 0 0.04914 0.080577 0.063808 0.11134 0.058674 0.17558-0.030649 0.35459-0.036573 0.53181-0.017602 0.47467 0.057207 2.0511 0.049873 2.0511 0.049873v1.5519l-1.9888-0.0014669zm10.246 18.949c-0.61165 0.60141-1.068 1.3033-0.39849 2.0294 0.86071 0.93292 1.465 1.5006 0.22855 2.3682-2.2452 1.5798-2.8832 2.8024-3.3359 3.7581 0.11671 0.048219 0.23727 0.086493 0.3604 0.11441 0.24727 0.05638 0.49855 0.093408 0.75156 0.11075 0.12013 0.010268 0.19412-0.32124 0.48346-0.90138 0.43951-0.87498 1.2453-2.0595 3.1689-3.4596 0.71274-0.51853 0.68564-0.60728 0.32011-1.0671-0.19925-0.2501-0.46588-0.53394-0.76988-0.88525-0.60726-0.70042-0.82482-1.4104-0.8087-2.0675zm-7.6753-8.7373c0.20142 0.32709 0.45939 0.61567 0.76182 0.85224 0.84606 0.64468 2.6832 2.4335 2.6942 4.3133 0.99916 0.096812 1.3969 0.38725 1.3969 0.38725 0.34868 0.24716 0.010255 0.71876-0.37065 0.5244-0.71347-0.36671-1.8313-0.25523-2.1631-0.22516-1.5383 0.13935-1.7624 1.1735-1.7624 1.9282 0 0.86471 0.61312 1.4933 1.465 2.0463 0.43219 0.2809 0.86364 0.50606 1.1874 0.70042 0.1755 0.10086 0.34148 0.21746 0.49592 0.34838 0.11867 0.10635 0.36626 0.35278 0.36626 0.72463 0 1.2351-3.1396 3.1009-3.8252 3.1009-0.73691 0-1.0797 0.42245-1.1947 0.56987-0.18459 0.2369-0.33916 0.74516-0.27469 1.1676 0.041021 0.26697 0.16775 0.49653 0.51716 0.5332-0.00501-0.51872 0.15452-1.0256 0.45563-1.4478 0.25858-0.34031 0.76915 0.048406 0.51276 0.38872-0.20144 0.2655-0.36626 0.69969-0.30546 1.3011 0.40435 0.23616 0.87902 0.2567 1.465 0.052073-0.065927-0.50093 0.16115-1.1368 0.43585-1.5343 0.2432-0.35205 0.77061 0.013202 0.52741 0.36671-0.20144 0.29337-0.34135 0.68062-0.3289 1.0217 0.51936 0.42759 1.2533 0.16575 1.3383 0 0.12892-0.2545 0.25052-0.531 0.40142-0.83244 0.18296-0.36962 0.39355-0.72488 0.62997-1.0627 0.54719-0.7767 1.3676-1.6451 2.7579-2.6176 0.33256-0.23323 0.59188-0.38358 0.21097-0.8009-0.16189-0.17676-0.33842-0.38578-0.54206-0.60728-0.84679-0.91825-0.47248-1.8629 0.021976-2.4856 0.24038-0.28959 0.50558-0.55758 0.79259-0.8009 0.24173-0.21343 0.47907-0.40852 0.65267-0.58234 1.1764-1.1772 0.97938-2.9337-0.48859-4.6257-0.86071-0.99379-1.9639-3.2638-2.0056-4.9873-0.62484-0.54494-0.58016-1.8673-0.93396-1.8673-0.49738 0-0.02051 0.92338 0.033696 1.4096 0.19119 1.703-1.5383 1.8299-2.043 1.2424-0.29301-0.34544 0.48859 0.078477 0.13625-1.5497-0.055672-0.25963-0.18606-0.78843-0.2996-0.78843-0.69443 0-0.30033 0.88011-0.36626 1.5637-0.073252 0.72683-0.43365 1.1163-0.86584 1.2784-0.23001 0.53687-0.67392 0.95199-1.487 0.99453zm0.65194-0.93292c-0.53694-0.093879-0.97498-0.42979-0.90173-0.80164 0.033696-0.16942 0.63729 0.17676 0.75962-1.3429 0.041021-0.50753-0.044684-0.91018-0.068124-0.91458-0.82408-0.13422-0.52155 0.98206-1.2563 1.2512-1.0416 0.38212-1.6848-0.62635-1.6767-1.3473 0.59774 0.033004 0.67685-0.41072 0.48566-0.78037-0.059705-0.14277-0.10082-0.29265-0.12233-0.44592-0.16476 0.11837-0.3678 0.1707-0.56917 0.14669-0.85632-0.12468-0.96766-2.4621-0.41534-2.0059 0.33916 0.28017 0.69809 0.12468 0.92517-0.14669-1.0299-0.39532-2.1089-1.0495-2.6202-1.2754-2.2708-1.0026-3.2304-0.99673-3.582-0.86031-0.1194 0.046206-0.22781 0.18262-0.178 0.47233 0.27982-0.12542 0.70835-0.10121 0.70835-0.10121 0.40582 0.029337 0.36186 0.63882-0.043951 0.60948-0.97645 0.0066009-1.1962 0.65275-1.1588 1.0187 0.019046 0.18996 0.047614 0.35425 0.35234 0.32491 0.28055-0.56621 0.70468-0.73929 0.70468-0.73929 0.36626-0.17602 0.6307 0.37551 0.26371 0.55154-0.17507 0.092412-0.46149 0.33591-0.41827 0.66008 0.0097829 0.16119 0.13857 0.2895 0.2996 0.2985 0.28625 0.042439 0.57815-0.020914 0.82115-0.17822l0.28055-0.19362s1.0695 0.48846 1.758 0.40339l0.19265 0.20096c0.37725 0.39385 0.74644 0.97839 1.0988 1.5651s0.73252 1.2468 1.1398 1.8688c0.85558 1.293 1.643 2.0537 2.4261 2.0537 0.35967 0.0028775 0.61532-0.10934 0.79478-0.29196zm12.462-5.808c0.10988-0.28824 0.19192-0.59261 0.30986-0.86031 0.12285-0.30689 0.32512-0.57549 0.58602-0.77817-0.53034-0.40118-2.0445-0.97546-3.0033-0.073343-0.42486 0.40118-0.52448 0.86471-0.52448 1.3282 0 0.65348 0.36626 0.80017 0.72519 0.99013-0.37065 1.6223-0.50544 3.5205 0.5699 5.1479 0.43951 0.66815 0.98377 1.4984 1.3332 2.377 0.34941 0.87865 0.5384 1.8886 0.1758 2.8824-0.48859 1.3356-1.843 2.1929-3.6919 1.9979-0.060936 0.26049-0.15653 0.51161-0.28422 0.74663 0.89074 0.11295 1.709-0.005134 2.0796-0.12248 2.5052-0.79577 3.2436-3.5395 2.18-5.8373-0.21018-0.43713-0.44623-0.86132-0.70688-1.2703-0.26078-0.42099-0.51276-0.79504-0.67026-1.0591-0.49152-0.81117-0.82628-1.7287-0.77647-3.0643 0.030922-0.58103 0.13554-1.1558 0.31132-1.7104 1.0292 0.040338 1.172-0.13422 1.3867-0.69456zm-29.222 35.777c2.3389 0.011393 4.6722-0.23108 6.9589-0.72316 1.9734-0.42759 3.634-0.98059 5.1613-1.4757 3.0033-0.97472 5.7137-1.8167 9.259-0.97839 0.63363 0.15695 0.63583 0.15475 0.73911-0.31464l1.4328-6.4586c0.083507-0.38285 0.083507-0.38578-0.3919-0.49286-4.2017-0.90285-7.6665-0.28457-11.194 0.61608-1.8599 0.47453-3.7051 1.0173-5.6404 1.4419-1.9851 0.43566-4.0596 0.7481-6.3275 0.7481-2.2679 0-4.3424-0.31244-6.3275-0.7481-1.9331-0.42465-3.7783-0.96739-5.6404-1.4419-3.5278-0.90065-6.9926-1.5189-11.194-0.61608-0.47541 0.10708-0.47541 0.11001-0.3919 0.49286l1.4335 6.4615c0.10329 0.46939 0.10548 0.47159 0.73911 0.31464 3.5483-0.83831 6.2528 0 9.259 0.97839 1.5324 0.49213 3.1931 1.0466 5.1657 1.4727 2.2867 0.49208 4.62 0.73455 6.9589 0.72316zm-7.3442-9.5668c-4.445-2.5093-7.3058-7.1142-7.5889-12.216-0.2831-5.1013 2.0505-9.9952 6.1905-12.982-0.24741-0.043166-0.48285-0.13841-0.69077-0.27944-0.4212 0.16502-0.95814 0.33224-1.4064 0.32638-1.1471 1.197-2.4796 4.8179-4.4281 5.5513-0.26523 0.5858-0.6672 1.0992-1.172 1.4969-0.84899 0.64688-2.4422 2.2736-2.4422 3.8204 2.6026 0 2.9 1.6729 2.9 2.5971 0 2.435-3.5102 3.1838-3.5102 3.8204 0 0.70262 2.6444 2.4584 3.1835 2.4584 1.035 0 1.5434 0.61535 1.7002 0.8163 0.5384 0.68942 0.74717 2.3888-0.48713 2.7005 2.6356 0.45179 5.1335 1.2461 7.7515 1.8893zm22.3-13.048c0.0023643 5.4066-2.9075 10.394-7.6123 13.048 2.6217-0.64322 5.1166-1.4375 7.753-1.8864-1.2343-0.31171-1.0255-2.0111-0.48713-2.7005 0.15676-0.20096 0.66513-0.8163 1.7002-0.8163 0.53913 0 3.1835-1.7558 3.1835-2.4584 0-0.63662-3.5102-1.3854-3.5102-3.8204 0-0.92412 0.2974-2.5971 2.9-2.5971 0-1.5475-1.5932-3.1735-2.4422-3.8204-0.50483-0.39773-0.9068-0.91113-1.172-1.4969-1.9485-0.73343-3.281-4.3573-4.4281-5.5542-0.4483 0.0058675-0.98524-0.16135-1.4064-0.32638-0.20792 0.14103-0.44336 0.23627-0.69077 0.27944 3.9037 2.8124 6.2161 7.3347 6.2125 12.15zm-28.526 0c0 4.8541 2.5864 9.3394 6.785 11.766 4.1985 2.427 9.3714 2.427 13.57 0 4.1985-2.427 6.785-6.9124 6.785-11.766 0-7.5052-6.0755-13.587-13.57-13.587s-13.57 6.0816-13.57 13.587zm22.934-17.672-0.37871 1.1889c0.65121 0.13202 1.4921 0.40705 2.5726 0.88011 0.13039 0.057207 0.26297 0.12102 0.39922 0.18922-0.16482-0.73929-0.49006-1.4206-1.172-2.0155-0.54792 0.27797-0.9325 0.10048-1.4211-0.24276zm-18.349 1.1889-0.37871-1.1889c-0.48859 0.34324-0.87316 0.52073-1.4196 0.24276-0.68344 0.59481-1.0087 1.2762-1.172 2.0155 0.13625-0.068209 0.26883-0.13202 0.39922-0.18922 1.0812-0.47306 1.9199-0.7481 2.5711-0.88011zm17.241-4.5729c-5.3082-2.0771-11.203-2.0771-16.511 0-0.31498 0.59114-0.7501 0.63515-0.7501 1.0349 0.86437 0.31171 1.3618 1.1214 0.42413 1.7874l0.52741 1.6568c1.1632 0.038138 1.2519 0.83244 1.1112 1.4705 0.40948 0.2479 0.65927 1.0415 0.47028 1.6033 4.0927-1.9612 8.8523-1.9612 12.945 0-0.18606-0.56254 0.060799-1.3561 0.47028-1.604-0.14064-0.63808-0.052009-1.4324 1.1112-1.4705l0.52741-1.6568c-0.93762-0.66595-0.43951-1.4757 0.42413-1.7874 0-0.39898-0.43512-0.44299-0.7501-1.0341zm-16.555-0.96592c5.3496-2.0116 11.246-2.0116 16.596 0 0.2974-0.31757 0.88269-0.41072 1.2753-0.23323 0.061532-0.52 1.4914-0.43052 1.7705-0.013935 0.13185-0.21563 1.1486-0.32344 1.8313 1.3297 0.2364-0.066297 0.4773-0.11532 0.7208-0.14669 0.1465-0.016869 0.65927-0.055007 0.78087-0.073343 0.34282-0.05354 0.48053-0.49286 0.88415-0.65128 0.17422-0.047729 0.3521-0.080848 0.53181-0.099013-0.054939-0.20096-0.13478-0.54274-0.093762-0.68429 0.12306-0.42099 0.82408-0.44006 1.1457-0.55374 0.37652-0.12615 0.81822-0.25817 0.58382-0.63955-0.43585-0.71069 1.5185-0.19509 1.7104 0.12322 0.10915 0.18042-0.08717 0.53467-0.08717 0.53467 0.17105-0.01403 0.34315-0.0078762 0.51276 0.018336 0.64095 0.10488 1.1398 0.31024 0.87902-0.5134-0.16848-0.5376 2.0511 0.18849 1.7031 1.1522-0.099623 0.2743-0.419 0.48773-0.419 0.48773 0.16478 0.12438 0.29886 0.28497 0.3919 0.46939 0.15603 0.29337 0.76402-0.046939 0.76402-0.44812 0-0.81997 1.0189 0.30511 1.0922 1.0943 0.026371 0.27577-0.022708 0.73343-0.28349 0.93585-0.12673 0.097546-0.46881 0.13568-0.46881 0.13568s0.1509 0.25963 0.13259 0.73343c-0.015383 0.41365 0.71274 0.29704 0.92371-0.15402 0.17507-0.37405 0.81163 0.88011 0.5721 1.7045-0.073252 0.26403-0.41094 0.62121-0.6329 0.67035-0.23807 0.05354-0.5677-0.073343-0.55671 0.019803 0.021712 0.17707 0.021712 0.35613 0 0.5332-0.043219 0.58674 0.5406 0.66815 0.98744 0.23836 0.34062-0.32711 0.55671 2.0052-0.37798 2.1629-0.55305 0.093145-0.62923-0.19069-0.65121-0.084344-0.024208 0.1387-0.069152 0.27296-0.13332 0.39825-0.29301 0.62415 0.49079 0.58674 0.88928 0.36671 0.35747-0.19436 0.2139 1.9957-0.96326 1.8944-0.22415-0.019069-0.38384-0.26183-0.5721-0.26183s-0.20071 1.9436 0.55012 1.9436c1.0988 0-0.11208 1.2336-1.1464 1.1691 0.12746 1.4184 0.98231 3.3481 1.8313 4.3272 0.93543 1.0796 1.465 2.2868 1.4079 3.4097 1.6196 0.16649 2.6891-0.58674 3.0663-1.6223 0.58602-1.6084-0.55671-3.3921-1.4475-4.7394-1.2072-1.8248-0.99623-3.8806-0.73252-5.134-0.43951-0.29777-0.65927-0.7921-0.65927-1.3202 0-0.5552 0.12233-1.2028 0.70761-1.7514 1.465-1.373 3.6919-0.20096 4.0479 0.33371 0.1172 0.17529 0.065927 0.42319-0.19046 0.5596-0.99989 0.53394-0.40069 2.4937-2.2979 2.4937-0.10495 0.38283-0.16445 0.77671-0.17727 1.1735-0.045416 1.2072 0.25199 2.014 0.69296 2.7408 0.31791 0.52513 0.9911 1.4889 1.4072 2.3866 1.1647 2.5149 0.40508 5.7024-2.5309 6.6346-0.48566 0.15402-1.5266 0.29337-2.6188 0.10121-0.067392 0.080677-0.14064 0.15989-0.21976 0.23763-0.09303 0.093145-0.20364 0.19289-0.32377 0.29777-0.21976 0.68209-0.17947 1.4867 0.53987 2.3198 1.2343 1.428 1.8137 1.7925 0.34428 2.8494-2.8378 2.0404-3.048 3.5791-3.4355 4.1886 0.60018 0.087033 1.2145 0.20463 1.843 0.35278 0.30253 0.073343 0.92004 0.24056 0.71714 1.1522l-1.5962 7.1876c-0.23807 1.0627-1.0255 0.80677-1.4072 0.70262-6.8974-1.8314-10.227 3.1127-21.512 3.1127s-14.614-4.944-21.516-3.1149c-0.37871 0.10048-1.172 0.36011-1.4072-0.70262l-1.5962-7.1876c-0.20291-0.91165 0.41461-1.0803 0.71714-1.1522 0.62997-0.14669 1.2443-0.26428 1.843-0.35278-0.3875-0.60948-0.59774-2.1482-3.4355-4.1886-1.4694-1.0569-0.89001-1.4214 0.34428-2.8494 0.71933-0.83317 0.76109-1.6377 0.53987-2.3198-0.12013-0.10488-0.23074-0.20463-0.32377-0.29777-0.077647-0.077743-0.1509-0.15695-0.21976-0.23763-1.0922 0.19436-2.1331 0.052807-2.6188-0.10121-2.9337-0.93219-3.6934-4.1197-2.5287-6.6346 0.41607-0.89772 1.0893-1.8614 1.4072-2.3866 0.43951-0.72683 0.73838-1.5336 0.69296-2.7408-0.011855-0.39565-0.070124-0.78853-0.17361-1.1706-1.8972 0-1.298-1.9627-2.2979-2.4937-0.25638-0.13642-0.30766-0.38432-0.19046-0.55961 0.35234-0.54054 2.5829-1.714 4.0442-0.33811 0.58602 0.5486 0.70761 1.1962 0.70761 1.7514 0 0.531-0.21976 1.0268-0.65927 1.3202 0.26444 1.2549 0.47541 3.3107-0.73252 5.134-0.89074 1.3473-2.0349 3.131-1.4475 4.7394 0.37725 1.0371 1.4467 1.7932 3.0663 1.6267-0.053474-1.1229 0.47248-2.3301 1.4079-3.4097 0.85119-0.98279 1.706-2.9124 1.8313-4.3272-1.0343 0.064542-2.2422-1.1691-1.1464-1.1691 0.75083 0 0.73252-1.9311 0.54499-1.9311-0.18752 0-0.34795 0.24276-0.5721 0.26183-1.1772 0.10121-1.3185-2.0888-0.96326-1.8944 0.39849 0.21636 1.1838 0.2545 0.88928-0.36671-0.064167-0.12529-0.10911-0.25955-0.13332-0.39825-0.021976-0.10635-0.098158 0.17749-0.65121 0.084344-0.93469-0.15769-0.7186-2.4937-0.37798-2.1629 0.44684 0.42979 1.0307 0.34838 0.98744-0.23836-0.021712-0.17707-0.021712-0.35613 0-0.5332 0.010988-0.092412-0.31865 0.033738-0.55671-0.019803-0.21976-0.04914-0.55598-0.40632-0.6329-0.67035-0.23953-0.82657 0.39703-2.0785 0.5721-1.7045 0.21097 0.45106 0.93982 0.56767 0.92371 0.15402-0.018313-0.47746 0.13332-0.73343 0.13332-0.73343s-0.34282-0.038138-0.46954-0.13568c-0.26078-0.20096-0.30912-0.66008-0.28349-0.93585 0.073252-0.78917 1.0922-1.9142 1.0922-1.0943 0 0.40118 0.60872 0.7415 0.76402 0.44812 0.093042-0.18443 0.22712-0.34501 0.3919-0.46939 0 0-0.31938-0.21343-0.419-0.48773-0.34941-0.96372 1.8716-1.6869 1.7031-1.1522-0.25931 0.82364 0.23953 0.61828 0.87902 0.5134 0.16961-0.026212 0.34172-0.032366 0.51276-0.018336 0 0-0.19632-0.35425-0.08717-0.53467 0.19192-0.31831 2.1463-0.83391 1.7104-0.12322-0.23148 0.37845 0.21023 0.5068 0.58162 0.63441 0.32158 0.11075 1.0255 0.13275 1.1457 0.55374 0.041021 0.14155-0.038824 0.48333-0.093762 0.68429 0.17971 0.018165 0.35759 0.051284 0.53181 0.099013 0.40362 0.15842 0.54133 0.59774 0.88415 0.65128 0.12306 0.019069 0.6329 0.057207 0.78087 0.073343 0.24351 0.031303 0.48441 0.080328 0.7208 0.14669 0.68637-1.6531 1.7031-1.5453 1.835-1.3297 0.27909-0.41659 1.709-0.50606 1.7705 0.013935 0.39703-0.18556 0.98231-0.092412 1.2797 0.22516h-0.001465zm12.287 4.0566 1.0512 0.28164 0.2703-1.0092c0.063729-0.2391 0.13918-0.48113 0.21976-0.73343l-0.022708-0.0080677c-0.20511 0.22736-0.37871 0.42759-0.58016 0.63441l-0.9325 0.82364-0.0058602 0.011001zm1.4584 2.1724-0.85046-0.2281 0.26664-0.99746-1.9046-0.5134 0.15383-0.57501 2.3096-2.047 1.1127 0.2985-0.64242 2.3998 0.51936 0.13935-0.17727 0.66008-0.51936-0.13935-0.2681 1.0026zm-4.5768-1.4405c0.45489 0.024203 0.72812-0.48333 0.7794-1.4617 0.049811-0.95859-0.16042-1.4889-0.61751-1.5131-0.419-0.022003-0.72593 0.47159-0.77574 1.4397-0.060067 0.98939 0.19192 1.5087 0.61385 1.5336v0.0014668zm-0.038091 0.68429c-1.0717-0.05574-1.5522-1.0033-1.4943-2.2494 0.065927-1.2593 0.67245-2.1533 1.7522-2.0969 1.1054 0.057941 1.5537 1.0217 1.4907 2.2348-0.067392 1.2798-0.63949 2.1687-1.7485 2.1101v0.0014668zm-3.8824-3.453c-0.38824 0.054274-0.61825 0.42245-0.55452 0.86838 0.053474 0.37992 0.33256 0.66595 0.77134 0.60434 0.31498-0.044739 0.51276-0.21563 0.6014-0.40779 0.025298-0.066626 0.031885-0.13892 0.019046-0.20903-0.063729-0.47599-0.32084-0.92999-0.83873-0.85738l0.001465 0.0014668zm-0.67685 3.7874-0.099623-0.70996c0.14816-0.0066125 0.29534-0.027489 0.43951-0.062341 0.31765-0.055468 0.61349-0.19874 0.85412-0.41365 0.25597-0.23337 0.41167-0.55697 0.43438-0.90285h-0.016115c-0.1758 0.24937-0.46002 0.41219-0.86877 0.47013-0.74717 0.10488-1.4145-0.31977-1.5258-1.1148-0.11574-0.82364 0.46588-1.5989 1.3918-1.7294 1.0768-0.15182 1.7229 0.58674 1.8621 1.5747 0.1216 0.86911-0.073252 1.5402-0.47174 2.0162-0.35527 0.41805-0.88635 0.69309-1.5332 0.80677-0.15411 0.033542-0.31062 0.054877-0.46808 0.063808l0.0014651 0.0014669zm-1.4973 0.40852-0.98963-3.2381h-0.012453l-0.65267 0.60214-0.35014-0.61461 0.901-0.81337 0.72593-0.22003 1.2277 4.0206-0.84972 0.2633zm-11.287-4.7181c-0.031498 0-0.21976 0.16282-0.29814 0.36011 0.1172-0.027137 0.40362-0.11588 0.65927-0.20096-0.099234-0.091963-0.22637-0.148-0.36113-0.15915zm0.94715 0.30951s-1.2988 0.5134-1.5295 0.30071c-0.27689-0.25303 0.30619-0.93952 0.54573-0.93952 0.58821 0 0.98377 0.63882 0.98377 0.63882zm31.132 0s0.39556-0.63882 0.98377-0.63882c0.23953 0 0.82262 0.68942 0.54573 0.94245-0.23074 0.20756-1.5295-0.30364-1.5295-0.30364zm0.94715-0.30951c-0.13656 0.01003-0.26568 0.066138-0.36626 0.15915 0.25785 0.085078 0.54426 0.17382 0.65927 0.20096-0.074717-0.19729-0.26151-0.36011-0.29301-0.36011zm-0.33256 38.478v-2.4584c0-0.44006-0.012453-0.80677-0.029301-1.1214h0.91199l0.049079 0.53394h0.024173c0.25661-0.39633 0.70043-0.63074 1.172-0.61901 0.69077 0 1.3442 0.44006 1.3442 1.582v2.0829h-1.0468v-1.9487c0-0.5134-0.19558-0.87205-0.6644-0.87205-0.3047 0.0037559-0.5739 0.19951-0.67172 0.48846-0.028482 0.087283-0.041618 0.17885-0.038824 0.27063v2.0617h-1.0504zm-35.799 0.054274-0.17214-4.9382 1.0482-0.036671 0.14138 4.0603 2.1331-0.073343 0.030033 0.88011-3.1806 0.10781zm7.1325-0.7547-2.4056-0.56327c-0.084972 0.5134 0.34721 0.88011 0.9032 1.0048 0.34608 0.086245 0.70458 0.11107 1.0592 0.073343l-0.015383 0.72316c-0.45358 0.066011-0.91568 0.042591-1.3603-0.068942-1.205-0.2787-1.7471-1.1456-1.498-2.223 0.20071-0.87131 0.9933-1.7404 2.24-1.4522 1.2087 0.27944 1.3867 1.3297 1.2065 2.1123-0.029732 0.13536-0.073176 0.26732-0.12966 0.39385zm-2.2503-1.2674 1.4951 0.34544c0.059334-0.24643 0.053474-0.78477-0.53474-0.92045-0.53108-0.12175-0.85119 0.27724-0.96033 0.57501zm3.3645-0.55961 1.0702 0.39165-0.061532 1.8336c-0.010255 0.32564-0.037358 0.61094-0.073252 0.89111l0.021976 0.0088011c0.15749-0.2457 0.31791-0.47306 0.51276-0.73343l1.1112-1.4515 1.046 0.38138-2.5638 2.8758-0.98963-0.35865-0.073984-3.8388zm6.8769 4.1373-2.4232-0.47893c-0.067392 0.51707 0.37725 0.86398 0.93689 0.97252 0.34888 0.07447 0.70804 0.087623 1.0614 0.038872l0.010255 0.72316c-0.45125 0.081693-0.9141 0.074219-1.3625-0.022003-1.2138-0.23616-1.7851-1.0833-1.5749-2.1695 0.17068-0.88011 0.9325-1.7734 2.1888-1.5292 1.2174 0.2369 1.4321 1.2806 1.279 2.069-0.025239 0.13556-0.064013 0.26825-0.11574 0.39605zm-2.2935-1.1874 1.5061 0.29337c0.051276-0.2479 0.027103-0.7855-0.5655-0.90065-0.53547-0.10488-0.84166 0.30511-0.94056 0.60728zm3.3198 2.8604 0.21463-2.3785c0.046881-0.5354 0.068857-0.88011 0.073252-1.1896l0.89807 0.078477-0.024906 0.69896h0.026371c0.23367-0.5244 0.70615-0.72463 1.0863-0.69089 0.078631 0.0039296 0.15643 0.01798 0.23148 0.041805l-0.084972 0.97326c-0.09993-0.030582-0.20281-0.050495-0.30693-0.059408-0.45416-0.039605-0.76548 0.18922-0.8717 0.55667-0.020114 0.077897-0.03335 0.15741-0.039556 0.23763l-0.15896 1.8211-1.0431-0.089478zm4.3585-5.1406 0.11061 3.1779h0.01465c0.083507-0.13935 0.1802-0.29337 0.27103-0.42465l0.80577-1.1412 1.2768-0.044739-1.3332 1.4947 1.6679 2.0749-1.3053 0.046206-1.0644-1.4859-0.30326 0.37845 0.040288 1.1537-1.0475 0.036671-0.1824-5.2286 1.049-0.037405zm6.5604 0.77157 0.46881 2.4115c0.08717 0.45179 0.17141 0.8163 0.24246 1.1001l-0.89514 0.17382-0.15163-0.53027-0.023441 0.0044005c-0.095228 0.25817-0.36626 0.71803-1.0475 0.85078-0.68124 0.13275-1.3683-0.15402-1.591-1.2996l-0.39703-2.047 1.0255-0.20023 0.36626 1.8688c0.10841 0.55814 0.36626 0.86178 0.81529 0.7745 0.28951-0.058436 0.51383-0.28827 0.5655-0.57941 0.014932-0.082602 0.013438-0.16734-0.0043951-0.24937l-0.40289-2.0807 1.0292-0.19729zm1.6247 2.911-0.016116-0.77743c0.34033 0.078557 0.69429 0.076297 1.0336-0.0066009 0.36626-0.10561 0.48346-0.2831 0.42852-0.47599-0.058602-0.20389-0.2139-0.2633-0.67905-0.2721-0.78966-0.0088011-1.1969-0.30877-1.3134-0.73343-0.18093-0.63221 0.22415-1.2718 1.0885-1.5204 0.34178-0.10412 0.7027-0.1292 1.0556-0.073343l0.013918 0.74516c-0.28046-0.056996-0.57015-0.049976-0.84752 0.020536-0.29301 0.082877-0.4234 0.25083-0.36626 0.44592s0.24539 0.24056 0.73252 0.25377c0.73252 0.016869 1.1178 0.2567 1.2724 0.7789 0.178 0.62195-0.178 1.2468-1.1823 1.5351-0.395 0.12157-0.81292 0.14895-1.2204 0.079944zm6.2711-3.1259-2.4261 0.46499c0.13112 0.5046 0.67319 0.66008 1.2328 0.55007 0.35135-0.061608 0.68924-0.18422 0.99842-0.36231l0.27982 0.66669c-0.38783 0.24472-0.81948 0.41162-1.2709 0.4914-1.2138 0.23616-2.0613-0.33518-2.2708-1.4214-0.17068-0.88011 0.19998-1.9942 1.457-2.2384 1.2167-0.2369 1.8064 0.64982 1.9595 1.4383 0.027424 0.13541 0.040924 0.27328 0.040288 0.41145v-7.335e-4zm-2.5704-0.2413 1.5061-0.29337c-0.046149-0.24937-0.26957-0.73856-0.86218-0.62341-0.53474 0.10341-0.66513 0.60068-0.64388 0.91752v-7.335e-4zm-13.677-26.923h1.739c0.19217 0 0.34795-0.15597 0.34795-0.34838s-0.15578-0.34838-0.34795-0.34838h-1.739v0.69676zm0 1.692h1.7903c0.21968 0 0.39776-0.1783 0.39776-0.39825 0-0.21995-0.17808-0.39825-0.39776-0.39825h-1.7903v0.7965zm2.796-1.282c0.36906 0.35948 0.48419 0.9068 0.2913 1.3848-0.19289 0.47798-0.65544 0.7916-1.1703 0.79349h-2.9118v-4.1805h2.8605c0.47291 7.371e-4 0.90261 0.27561 1.102 0.70496 0.19941 0.42935 0.13245 0.93547-0.17173 1.298v-7.334e-4zm0.66879 7.1583h-1.0673l-0.33549-0.69676h-2.3331l-0.33623 0.69676h-1.0709l2.0877-4.1805h0.96766l2.0877 4.1805zm-2.5711-3.1105-0.73252 1.5189h1.465l-0.73252-1.5189zm1.4182 4.0067h1.1962l-2.117 2.7217v1.4588h-0.99476v-1.4588l-2.117-2.7217h1.1962l1.4182 1.9069 1.4182-1.9069zm5.5671 0v0.89625h-2.7836v0.69676h2.684v0.89551h-2.6854v0.7965h2.7836v0.89551h-3.7776v-4.1805h3.7791zm3.1308 2.5883h-0.74644v1.5923h-0.99403v-4.1805h2.5396c0.64226 0.0022152 1.1856 0.47589 1.2762 1.1125 0.090598 0.63663-0.29902 1.2434-0.91511 1.4251l1.2248 1.6429h-1.1925l-1.1925-1.5923zm0.69809-1.692h-1.4445v0.7965h1.4438c0.21968 0 0.39776-0.1783 0.39776-0.39825s-0.17808-0.39825-0.39776-0.39825h7.325e-4zm-12.966 3.2843h-1.0644l-0.33623-0.69749h-2.3367l-0.33623 0.69749h-1.0687l2.0877-4.1805h0.96473l2.0899 4.1805zm-2.5704-3.1105-0.73252 1.5182h1.465l-0.73252-1.5182zm-6.3048 0.52587h1.739c0.18616-0.00855 0.3327-0.16216 0.3327-0.34874 0-0.18659-0.14654-0.34019-0.3327-0.34874h-1.739v0.69749zm0 1.692h1.7903c0.21968 0 0.39776-0.1783 0.39776-0.39825s-0.17808-0.39825-0.39776-0.39825h-1.7903v0.7965zm2.796-1.2828c0.36929 0.36015 0.48405 0.9083 0.29029 1.3866s-0.65746 0.79156-1.173 0.7924h-2.9081v-4.1805h2.8568c0.47291 7.372e-4 0.90261 0.27561 1.102 0.70496 0.19941 0.42935 0.13245 0.93547-0.17173 1.298l0.0036626-0.0014668zm10.12 3.0709v0.89625h-2.7836v0.69676h2.684v0.89551h-2.684v0.79724h2.7836v0.89551h-3.7776v-4.1805l3.7776-7.334e-4zm-0.69809 6.471c4.11e-4 -0.21881-0.17557-0.39697-0.3941-0.39898h-1.6914v0.79577h1.6914c0.21784-0.0016094 0.3937-0.17867 0.3941-0.39678zm-3.0766 2.8853v-4.1805h2.7887c0.61511 0.0065323 1.1407 0.44562 1.2572 1.0504 0.11654 0.60475-0.20813 1.2081-0.77666 1.4433l1.2541 1.6869h-1.1962l-1.1933-1.5923h-1.1427v1.5923h-0.9911z" fill="#000"/>
</g>
</g>
</svg>
