<?xml version="1.0" encoding="UTF-8"?>
<svg version="1.1" viewBox="0 0 80 80" xmlns="http://www.w3.org/2000/svg">
<title>1 – Fundamentals/Logos/Clubs/Mönchengladbach BMG</title>
<g fill="none" fill-rule="evenodd">
<rect width="80" height="80"/>
<g transform="translate(20 8)" fill-rule="nonzero">
<polygon id="Path" points="19.968 0 0 32.033 0 32.034 19.991 64 39.981 32.033" fill="#fff"/>
<polygon id="Path" points="19.969 2.0338 1.2695 32.033 19.991 61.97 38.711 32.033" fill="#000"/>
<polygon id="Path" points="19.972 6.8779 4.295 32.028 19.991 57.126 35.685 32.028" fill="#fff"/>
<polygon id="Path" points="19.974 9.0994 5.683 32.026 19.99 54.905 34.298 32.026" fill="#000"/>
<polygon id="Path" points="19.975 10.879 6.795 32.023 19.991 53.124 33.185 32.023" fill="#fff"/>
<polygon id="Path" points="19.969 10.394 15.999 16.366 24.072 16.366" fill="#000"/>
<polygon id="Path" points="27.117 42.665 13.014 42.665 7.7355 34.291 32.154 34.291" fill="#000"/>
<polygon id="Path" points="13.147 21.132 26.927 21.132 31.964 29.506 7.8681 29.506" fill="#000"/>
<polygon id="Path" points="19.969 53.962 15.864 47.345 24.34 47.345" fill="#000"/>
<path id="Path" d="m13.368 42.572h9.922c2.8369 0 5.3482-2.7172 5.3482-6.4562 0-2.112-0.93617-3.397-1.434-4.0903 0.56738-0.59093 1.4234-1.3753 1.4234-4.3726 0-2.1412-1.8135-6.3289-6.0496-6.3289h-9.2099v21.248z" fill="#000"/>
<path id="Path" d="m14.099 41.876h8.2567c2.6532 0 5.4801-1.7273 5.4801-5.7038 0-1.9733-0.90071-3.1787-1.566-4.0939 0.53191-0.55182 1.6369-1.43 1.6369-4.2297 0-1.9982-1.1383-5.8247-5.978-5.8247h-7.8298v19.852z" fill="#fff"/>
<path id="Path" d="m14.816 41.163h6.9702c3.0603 0 5.3369-1.6021 5.3369-5.2935 0-1.8318-1.2716-3.4361-1.9206-3.8009 0.5773-0.34844 1.9858-1.3269 1.9858-3.9268 0-2.0786-1.1255-5.4044-5.6177-5.4044h-6.7546v18.426z" fill="#000"/>
<path id="Path" d="m17.891 33.556h3.5461c1.1723 0 2.2823 0.6848 2.2823 1.9349 0 1.531-1.0674 2.0238-2.4823 2.0238h-3.3461v-3.9588z" fill="#fff"/>
<path id="Path" d="m17.891 26.155h3.0496c1.0142 0 2.422 0.19484 2.422 1.9072 0 1.8745-1.3532 1.9911-2.422 1.9911h-3.0496v-3.8983z" fill="#fff"/>
<path id="a" d="m18.626 26.862h2.2099c0.7156 0 1.7099 0.029867 1.7099 1.2395 0 1.1868-0.95461 1.2423-1.7099 1.2423h-2.2099v-2.4818z" fill="#000"/>
<path d="m18.672 34.261h2.4113c0.78014 0 1.773 0.4544 1.773 1.2857 0 1.0866-0.96738 1.2622-1.9092 1.2622h-2.2752v-2.5479z" fill="#000"/>
</g>
</g>
</svg>
