<?xml version="1.0" encoding="UTF-8"?>
<svg width="80px" height="80px" viewBox="0 0 80 80" version="1.1" xmlns="http://www.w3.org/2000/svg" xmlns:xlink="http://www.w3.org/1999/xlink">
    <title>1 - Fundamentals/1 - Logos/Clubs/Color/Frankfurt SGE</title>
    <g id="1---Fundamentals/1---Logos/Clubs/Color/Frankfurt-SGE" stroke="none" stroke-width="1" fill="none" fill-rule="evenodd">
        <rect id="Area" x="0" y="0" width="80" height="80"></rect>
        <g id="Frankfurt" transform="translate(11.000000, 11.000000)">
            <path d="M57.8224556,29 C57.8224556,44.9173267 44.9187444,57.8224556 29,57.8224556 C13.0812556,57.8224556 0.177544444,44.9173267 0.177544444,29 C0.177544444,13.0826733 13.0812556,0.177544444 29,0.177544444 C44.9187444,0.177544444 57.8224556,13.0826733 57.8224556,29" id="Fill-1" fill="#FFFFFE"></path>
            <path d="M38.3525,25.1031733 C38.0639822,24.9680978 37.8150333,24.8037644 37.6281444,24.6338889 C35.9005178,27.8299467 33.9840044,28.6019911 32.9432267,28.6019911 L32.9432267,27.9636689 C34.0296956,27.8503756 35.7341222,27.2720511 37.3287356,24.5063533 C37.0866178,24.4702 36.8158222,24.3870022 36.54232,24.2594667 C36.0355933,24.0234711 35.6515689,23.6954489 35.50702,23.4075756 C35.8200911,23.3332711 36.3186333,23.41576 36.82536,23.6517556 C37.1180022,23.7881844 37.3710111,23.9559978 37.5592533,24.1292244 C37.5115,23.7752311 37.5927,23.3100711 37.8089111,22.8469733 C38.0708133,22.2849533 38.4623133,21.8723156 38.8224289,21.7318267 C38.94584,22.09742 38.8810733,22.6628556 38.6198156,23.2248111 C38.4043133,23.6872644 38.1001356,24.0487333 37.7986644,24.2403911 C38.0523822,24.2737733 38.3428978,24.3590333 38.63554,24.4954622 C39.1429756,24.7314578 39.5269356,25.0601889 39.6715489,25.3479978 C39.3584778,25.4216578 38.8592267,25.3391689 38.3525,25.1031733 Z M28.9996778,34.8747556 C26.7625533,32.37096 26.3342556,27.5878289 26.3342556,25.9448178 L31.6651,25.9448178 C31.6651,27.5878289 31.2374467,32.37096 28.9996778,34.8747556 Z M27.0367644,15.6480133 C27.7774244,15.2619911 28.6354378,15.4979867 28.6354378,15.4979867 L27.2870667,16.58858 L27.0367644,15.6480133 Z M25.0561289,28.6019911 C24.0159956,28.6019911 22.0994822,27.8299467 20.3718556,24.6338889 C20.1843222,24.8037644 19.9353733,24.9680978 19.6468556,25.1031733 C19.1400644,25.3391689 18.6408133,25.4216578 18.3284511,25.3479978 C18.4723556,25.0601889 18.8570244,24.7314578 19.36446,24.4954622 C19.6563933,24.3590333 19.9476178,24.2737733 20.2006911,24.2403911 C19.89922,24.0487333 19.5956867,23.6872644 19.3801844,23.2248111 C19.1182822,22.6628556 19.0534511,22.09742 19.1769267,21.7318267 C19.5370422,21.8723156 19.9285422,22.2849533 20.1904444,22.8469733 C20.4066556,23.3100711 20.4885,23.7752311 20.4400378,24.1292244 C20.6289889,23.9559978 20.8813533,23.7881844 21.17464,23.6517556 C21.6813667,23.41576 22.1799733,23.3332711 22.4923356,23.4075756 C22.3484311,23.6954489 21.9644067,24.0234711 21.45768,24.2594667 C21.1834689,24.3870022 20.9127378,24.4702 20.6712644,24.5063533 C22.2651689,27.2720511 23.9703044,27.8503756 25.0561289,27.9636689 L25.0561289,28.6019911 Z M40.1162156,30.2259267 C41.7087667,30.8589 44.0673044,31.8028178 47.3096978,31.8028178 C49.1136911,31.8028178 50.2069911,30.9277911 50.2069911,30.3466956 C50.2069911,30.2669133 50.1790222,30.0650089 49.9273667,29.9913489 C48.6656089,29.6230489 43.8858933,28.2821533 42.4289978,27.8442533 C41.8895333,27.6819822 41.3002533,27.3341111 42.3090022,27.3129733 C43.1594756,27.2945422 45.8241889,27.3497711 47.0996089,26.7229844 C48.5653333,26.0027533 48.69564,25.0970511 48.69564,24.7716711 C48.69564,24.6953044 48.6369311,24.6509667 48.5693933,24.6543822 C45.1381133,24.8269644 42.3198933,24.7573644 42.1275911,24.7464733 C41.8165822,24.7293956 41.6794444,24.6168756 41.99664,24.3331267 C42.3492156,24.0228267 44.4826489,22.2426778 44.9826089,21.75638 C45.6769333,21.0825489 45.8528667,20.4680067 45.8528667,19.9387244 C45.8528667,19.2117267 45.6325956,18.8133956 45.5043511,18.6422311 C45.4607222,18.5842311 45.3768156,18.5774 45.3242933,18.62786 C43.1758444,20.71354 40.5724822,22.1192667 40.4245178,22.19428 C40.1476,22.33406 40.0316644,22.1526489 40.3331356,21.6118311 C40.5043,21.3041733 40.7314022,21.0259022 41.1174889,20.3397622 C41.6978756,19.30994 41.7899667,18.1961467 41.7599356,17.3224733 C41.7313222,16.5115044 41.4550489,15.6194 40.5316244,15.2108867 C40.4470089,15.1740244 40.3467333,15.1978689 40.2887978,15.2708844 C40.1967067,15.3888822 40.0555089,15.6098622 39.9163733,15.9877 C39.6422267,16.7311311 39.6176733,17.7235111 38.3033933,18.4826022 C37.5783289,18.9013622 36.5675822,19.6311311 36.5675822,20.2900111 C36.5675822,20.5635133 36.6412422,20.8131067 36.6412422,21.1480244 C36.6412422,21.4351244 36.5068756,21.5442933 36.2231267,21.5230911 C35.8821511,21.4986022 35.6645222,21.40374 35.3692378,21.69432 C34.5255311,22.5236556 33.42134,23.9102422 32.2809311,23.9102422 C31.8062333,23.9102422 31.5607,23.2977622 31.44412,22.54344 C31.3779356,22.1233267 31.3520289,21.6602289 31.3492578,21.2346378 C31.3444889,20.4421 31.4338733,19.7812222 31.4338733,19.7812222 C31.4338733,19.7812222 31.7926356,19.87602 32.1718267,19.8009422 C32.9875644,19.6379622 33.2030667,18.9702533 33.2030667,18.5092178 C33.2030667,18.3693733 33.1662689,18.2629756 33.1464844,18.2309467 C33.1464844,18.2309467 32.7576911,18.6265067 32.2529622,18.6265067 C31.7237444,18.6265067 31.5545778,17.9928889 31.5545778,17.58502 C31.5545778,16.58858 32.2209333,16.1022822 32.5585578,15.8813022 C33.0598711,15.5525711 33.0946067,15.2326689 33.0946067,14.92166 C33.0946067,14.5295156 33.0284867,14.2648422 33.0284867,14.2648422 C32.81292,14.6754178 32.60354,15.0758111 31.7898644,15.0758111 C30.8752689,15.0758111 29.6626178,14.9427978 29.2294867,14.4108089 C29.1544733,14.3187178 29.0269378,14.2539511 28.6852533,14.2539511 C27.0367644,14.2539511 24.9872378,14.5110844 23.0734311,15.6003244 C22.81836,15.7455822 22.8347289,15.9393022 22.8654044,16.0252067 C22.9315244,16.2079711 23.0624756,16.5579044 23.0624756,16.5579044 C23.0624756,16.5579044 24.1974067,15.7694267 24.9695156,15.7694267 C25.3479978,15.7694267 25.4605822,15.98364 25.6610689,16.9964489 C25.3057222,17.1239844 24.5418622,17.1703844 23.6886178,17.1703844 C22.1226822,17.1703844 22.0837578,16.6308556 22.0837578,16.2844022 C22.0837578,16.2639089 22.0783444,16.2454778 22.0380667,16.2454778 C21.9016378,16.2454778 21.50814,16.3682444 21.50814,16.9521111 C21.50814,17.3674556 21.8361622,17.9431378 23.5679133,17.9431378 C24.6148133,17.9431378 25.4871333,17.5918511 25.7661133,17.48816 C25.9093089,18.1095333 25.9400489,18.3168511 24.7621333,18.3168511 C24.0999022,18.3168511 23.7493244,18.1900244 23.7493244,18.1900244 C23.7493244,18.1900244 23.6722489,18.4287267 23.6722489,18.5985378 C23.6722489,18.7417978 23.7472622,18.8052111 23.9723667,18.9109 C24.2737733,19.0528067 24.8262556,19.2607689 25.7756511,19.2607689 C26.2005978,19.2607689 26.3806556,19.1455422 26.5081911,19.1455422 C26.7646156,19.1455422 26.9521489,19.9401422 26.9521489,20.1856756 C26.9521489,20.38004 26.7066156,20.3895778 26.0845978,20.3895778 C25.5601489,20.3895778 25.57104,20.4550533 25.56698,20.4870822 C25.5464867,20.6344667 26.2551178,21.2189133 26.3833622,21.2189133 C26.5723133,21.2189133 26.9985489,20.7278467 27.0149178,20.7121867 C27.0149178,20.7121867 27.0681489,21.0150111 27.0681489,21.5947533 C27.0681489,22.8428489 26.4992978,23.9102422 25.7190689,23.9102422 C24.5780156,23.9102422 23.4744689,22.5236556 22.6301178,21.69432 C22.3354778,21.40374 22.1172044,21.4986022 21.7768733,21.5230911 C21.4924156,21.5442933 21.3587578,21.4351244 21.3587578,21.1480244 C21.3587578,20.8131067 21.4317733,20.5635133 21.4317733,20.2900111 C21.4317733,19.6311311 20.4216711,18.9013622 19.6966711,18.4826022 C18.3823267,17.7235111 18.3571289,16.7311311 18.0829178,15.9877 C17.9437822,15.6098622 17.8032933,15.3888822 17.7105578,15.2708844 C17.6532667,15.1978689 17.5529911,15.1740244 17.4677311,15.2108867 C16.5449511,15.6194 16.2680333,16.5115044 16.2393556,17.3224733 C16.2093889,18.1961467 16.3021244,19.30994 16.8825756,20.3397622 C17.2678889,21.0259022 17.4949911,21.3041733 17.6668644,21.6118311 C17.9683356,22.1526489 17.8524,22.33406 17.5754822,22.19428 C17.4275178,22.1192667 14.8241556,20.71354 12.6757067,18.62786 C12.6231844,18.5774 12.5386333,18.5842311 12.4950044,18.6422311 C12.3674044,18.8133956 12.1464244,19.2117267 12.1464244,19.9387244 C12.1464244,20.4680067 12.3231311,21.0825489 13.0167467,21.75638 C13.5173511,22.2426778 15.6507844,24.0228267 16.00336,24.3331267 C16.3198467,24.6168756 16.1834822,24.7293956 15.8717644,24.7464733 C15.6801067,24.7573644 12.8612422,24.8269644 9.42989778,24.6543822 C9.36236,24.6509667 9.30436,24.7034889 9.30371556,24.7716711 C9.3003,25.0970511 9.43466667,26.0027533 10.8996822,26.7229844 C12.1758111,27.3497711 14.8405244,27.2945422 15.6903533,27.3129733 C16.6997467,27.3341111 16.1131733,27.69152 15.5702933,27.8442533 C14.1134622,28.2827978 9.33374667,29.6230489 8.07192444,29.9919933 C7.82097778,30.0656533 7.7923,30.2675578 7.7923,30.3466956 C7.7923,30.9284356 8.88630889,31.8028178 10.6895933,31.8028178 C13.9320511,31.8028178 16.2905244,30.8596089 17.8830756,30.2259267 C17.8837844,30.2259267 17.8837844,30.2259267 17.8837844,30.2259267 C18.6319844,29.91698 18.7533978,30.2027911 18.0235644,30.7190556 C16.69704,31.6582689 12.6764156,34.3823356 10.6187044,35.7252289 C10.4461222,35.8378133 10.4038467,36.0751622 10.5313822,36.2367889 C12.0223044,38.1198556 15.1474089,36.1269756 16.2298178,35.5219711 C17.2426267,34.9579533 19.3624622,33.40974 20.3909311,32.8191067 C21.1187022,32.4002822 21.0791333,32.80132 20.7565244,33.3735867 C20.5014533,33.8257933 20.0083244,34.5446711 18.9320378,35.7388911 L19.5977489,36.2831889 C19.5977489,36.2831889 18.9797911,37.0647711 18.34076,37.7665711 C18.0808556,38.0489667 17.3722244,38.9124578 16.9998644,38.9124578 C16.6322089,38.9124578 16.2236956,38.2488089 15.8267178,38.0564422 C15.5512178,37.9227844 15.1167333,38.2522244 15.1167333,38.2522244 C15.1167333,38.2522244 14.8411689,38.0823489 14.3896711,38.0823489 C14.1359533,38.0823489 13.8986044,38.1130889 13.63464,38.33336 C13.2827089,38.6273556 13.3802778,39.2616178 13.3802778,39.2616178 C13.4668911,38.8864867 13.7212533,38.7487044 13.9838644,38.7487044 C14.7184022,38.7487044 14.9380289,39.2582022 15.3452533,39.5126289 C15.7128444,39.7431467 16.1384356,39.8468378 16.1384356,39.8468378 C15.7857956,40.1611978 14.9319067,40.2894422 14.5847444,40.6106978 C14.4530844,40.7321111 14.4769933,41.0192111 14.4769933,41.0192111 C13.9770333,41.1965622 13.7628844,41.3568356 13.7628844,41.7005822 C13.7628844,42.2053111 14.0677711,42.6486244 14.0677711,42.6486244 C14.1107556,42.3198933 14.1721067,41.8459044 14.8097844,41.7074133 C14.8097844,41.7074133 14.9326156,41.8151644 15.0799356,41.8151644 C15.3970667,41.8151644 16.3798444,41.1577022 16.5490111,40.9407822 C16.5490111,40.9407822 16.6308556,41.09764 16.4835356,41.3868667 C16.2032022,41.9392844 16.0948067,42.3171867 16.0948067,42.5790889 C16.0948067,42.7740978 16.1152356,42.8853289 16.1527422,42.9371422 C16.2229867,43.0332933 16.4037533,43.0135089 16.4037533,43.0135089 C16.7836533,44.1811778 17.6013889,44.5365244 17.6013889,44.5365244 C17.3838244,44.1170556 17.2685978,43.4636533 17.2665356,43.1294444 C17.2665356,43.0599089 17.2740111,42.9794178 17.2740111,42.9794178 C17.3981311,42.9964956 17.5366222,42.98554 17.6191111,42.9344356 C17.7418778,42.85736 17.8469222,42.6793 17.8469222,42.2810333 C17.8469222,41.8984267 17.6334822,41.6310467 17.6334822,41.3848044 C17.6334822,41.0635489 17.79034,40.8555867 17.79034,40.8555867 C17.9949511,41.2054556 18.5528467,42.1957733 18.9061311,42.1957733 C19.0139467,42.1957733 19.1223422,42.1527889 19.2574178,42.0798378 C19.2574178,42.0798378 19.6154711,42.3219556 20.0362933,43.1929222 C20.0362933,43.1929222 20.1999822,42.8825578 20.1999822,42.4392444 C20.1999822,42.0007 19.8323911,41.7380889 19.7395911,41.644 C19.7395911,41.644 19.8985111,41.3950511 19.8985111,41.2306533 C19.8985111,40.7511867 18.4614644,40.3269489 18.4614644,39.6306267 C18.4614644,39.3870911 18.8270578,38.8987956 19.2253244,38.41862 C20.1024778,37.3607644 20.4529911,36.9815733 20.4529911,36.9815733 L21.0825489,37.4964844 C22.0551444,36.0580844 23.1375533,34.3202756 24.3386044,34.3202756 C24.8330867,34.3202756 25.1052356,34.6292222 25.1052356,35.1059822 C25.1052356,35.9680556 23.7227089,37.5872222 23.1033978,38.2678844 C22.2051711,39.2547867 20.8356622,40.2396911 20.8356622,41.6862756 C20.8356622,42.3969689 21.1275311,43.38864 21.1275311,43.38864 C21.3969733,42.4188156 21.4924156,42.0668844 21.6084156,42.0668844 C21.7489044,42.0668844 21.7993644,42.69844 22.56258,44.0345667 C22.7582978,44.3776044 22.8565111,44.5078467 22.8565111,44.5078467 C22.8128822,42.7141 22.8319578,41.9106711 22.9895244,41.9106711 C23.0700156,41.9106711 23.1532133,42.1609733 23.3776089,42.5599489 C23.6981556,43.1294444 24.0030422,43.5502667 24.0030422,43.5502667 C24.0030422,40.5343311 25.3487067,39.0311 26.1712111,39.0311 C26.7360022,39.0311 26.8846756,39.6640089 26.8846756,40.29492 C26.8846756,42.0375622 25.4810111,43.0646778 25.4810111,44.7977178 C25.4810111,46.4101178 26.6036333,47.1351178 26.6036333,47.1351178 C26.6050511,47.0245956 26.8239689,45.4954578 27.0660867,45.05962 C27.1635911,44.88504 27.2672822,44.7970733 27.37774,44.7970733 C27.5421378,44.7970733 27.6403511,44.95464 28.0823111,45.7478222 C28.3728911,46.2695644 28.77322,46.8131533 28.9996778,47.0389022 C29.2260711,46.8131533 29.6271089,46.2695644 29.91698,45.7478222 C30.35894,44.95464 30.4578622,44.7970733 30.6215511,44.7970733 C30.7320733,44.7970733 30.8357,44.88504 30.9332689,45.05962 C31.1753867,45.4954578 31.3943044,47.0245956 31.3956578,47.1351178 C31.3956578,47.1351178 32.51828,46.4101178 32.51828,44.7977178 C32.51828,43.0646778 31.11468,42.0375622 31.11468,40.29492 C31.11468,39.6640089 31.2633533,39.0311 31.82808,39.0311 C32.6506489,39.0311 33.9963133,40.5343311 33.9963133,43.5502667 C33.9963133,43.5502667 34.3018444,43.1294444 34.6223911,42.5599489 C34.8460778,42.1609733 34.9299844,41.9106711 35.0104756,41.9106711 C35.1680422,41.9106711 35.1864089,42.7141 35.1434889,44.5078467 C35.1434889,44.5078467 35.2417022,44.3776044 35.43742,44.0345667 C36.1999911,42.69844 36.2504511,42.0668844 36.3915844,42.0668844 C36.5068756,42.0668844 36.6023822,42.4188156 36.8724689,43.38864 C36.8724689,43.38864 37.1643378,42.3969689 37.1643378,41.6862756 C37.1643378,40.2396911 35.79412,39.2547867 34.8966022,38.2678844 C34.2772911,37.5872222 32.89412,35.9680556 32.89412,35.1059822 C32.89412,34.6292222 33.1669133,34.3202756 33.6613956,34.3202756 C34.8618022,34.3202756 35.9448556,36.0580844 36.9174511,37.4964844 L37.5470089,36.9815733 C37.5470089,36.9815733 37.8968778,37.3607644 38.7746756,38.41862 C39.1722978,38.8987956 39.5385356,39.3870911 39.5385356,39.6306267 C39.5385356,40.3269489 38.10078,40.7511867 38.10078,41.2306533 C38.10078,41.3950511 38.2604089,41.644 38.2604089,41.644 C38.1669644,41.7380889 37.7993089,42.0007 37.7993089,42.4392444 C37.7993089,42.8825578 37.9637067,43.1929222 37.9637067,43.1929222 C38.3845289,42.3219556 38.7425822,42.0798378 38.7425822,42.0798378 C38.8776578,42.1527889 38.9861178,42.1957733 39.09316,42.1957733 C39.4464444,42.1957733 40.0044044,41.2054556 40.2090156,40.8555867 C40.2090156,40.8555867 40.3665178,41.0635489 40.3665178,41.3848044 C40.3665178,41.6310467 40.1523689,41.8984267 40.1523689,42.2810333 C40.1523689,42.6793 40.2581222,42.85736 40.3808889,42.9344356 C40.4633778,42.98554 40.6018689,42.9964956 40.7259889,42.9794178 C40.7259889,42.9794178 40.73282,43.0599089 40.73282,43.1294444 C40.7307578,43.4636533 40.6161756,44.1170556 40.3986111,44.5365244 C40.3986111,44.5365244 41.2157022,44.1811778 41.5962467,43.0135089 C41.5962467,43.0135089 41.7770133,43.0332933 41.8465489,42.9371422 C41.8840556,42.8853289 41.9051933,42.7740978 41.9051933,42.5790889 C41.9051933,42.3171867 41.7960889,41.9392844 41.5157556,41.3868667 C41.3684356,41.09764 41.45028,40.9407822 41.45028,40.9407822 C41.6194467,41.1577022 42.6029333,41.8151644 42.91942,41.8151644 C43.06674,41.8151644 43.1902156,41.7074133 43.1902156,41.7074133 C43.8278933,41.8459044 43.8886,42.3198933 43.9322289,42.6486244 C43.9322289,42.6486244 44.2364067,42.2053111 44.2364067,41.7005822 C44.2364067,41.3568356 44.0222578,41.1965622 43.5223622,41.0192111 C43.5223622,41.0192111 43.5462067,40.7321111 43.4152556,40.6106978 C43.0674489,40.2894422 42.2134956,40.1611978 41.86092,39.8468378 C41.86092,39.8468378 42.2871556,39.7431467 42.6541022,39.5126289 C43.0619711,39.2582022 43.2808889,38.7487044 44.0154267,38.7487044 C44.2780378,38.7487044 44.5331089,38.8864867 44.6197222,39.2616178 C44.6197222,39.2616178 44.7172911,38.6273556 44.36536,38.33336 C44.1013956,38.1130889 43.8640467,38.0823489 43.60962,38.0823489 C43.1588311,38.0823489 42.8825578,38.2522244 42.8825578,38.2522244 C42.8825578,38.2522244 42.4487822,37.9227844 42.1725733,38.0564422 C41.7763044,38.2488089 41.3677911,38.9124578 41.0001356,38.9124578 C40.6270667,38.9124578 39.9191444,38.0489667 39.6585956,37.7665711 C39.0195,37.0647711 38.4016067,36.2831889 38.4016067,36.2831889 L39.0679622,35.7388911 C37.9909667,34.5446711 37.4979022,33.8257933 37.2428311,33.3735867 C36.9208667,32.80132 36.8806533,32.4002822 37.60836,32.8191067 C38.6368933,33.40974 40.7573733,34.9579533 41.7701822,35.5219711 C42.8525911,36.1269756 45.9769867,38.1198556 47.4679089,36.2367889 C47.5961533,36.0751622 47.5538778,35.8378133 47.3806511,35.7252289 C45.32294,34.3823356 41.3023156,31.6582689 39.9764356,30.7190556 C39.2459578,30.2027911 39.3639556,29.9265178 40.1162156,30.2259267 Z M27.7213578,31.5795822 L27.7213578,27.0209756 L30.2780622,27.0209756 L30.2780622,27.7212933 L28.7551111,27.7212933 L28.7551111,28.8467511 L30.0611422,28.8467511 L30.0611422,29.5455867 L28.7551111,29.5455867 L28.7551111,30.8792644 L30.2780622,30.8792644 L30.2780622,31.5795822 L27.7213578,31.5795822 Z M32.6007689,10.0465022 C32.6007689,10.0465022 32.18884,10.6624622 31.8037844,11.2522578 C31.5135911,11.6959578 31.3587956,12.2139622 31.3587956,12.7444689 L31.3587956,12.9978644 L26.1425978,12.9978644 L26.1425978,12.7444689 C26.1425978,12.2139622 25.9878022,11.6959578 25.6976089,11.2522578 C25.3125533,10.6624622 24.9006244,10.0465022 24.9006244,10.0465022 L27.2072844,11.0874733 L28.7506644,9.72196 L30.2941089,11.0874733 L32.6007689,10.0465022 Z M28.9996778,51.2641378 C16.7243,51.2641378 6.73721556,41.2757 6.73721556,28.9989689 C6.73721556,16.7229467 16.7243,6.73721556 28.9996778,6.73721556 C41.2757,6.73721556 51.2641378,16.7229467 51.2641378,28.9989689 C51.2641378,41.2757 41.2757,51.2641378 28.9996778,51.2641378 Z M28.9996778,2.22616889 C14.2375822,2.22616889 2.22616889,14.2382911 2.22616889,28.9989689 C2.22616889,43.7617089 14.2375822,55.7731222 28.9996778,55.7731222 C43.7637711,55.7731222 55.7731222,43.7617089 55.7731222,28.9989689 C55.7731222,14.2382911 43.7637711,2.22616889 28.9996778,2.22616889 Z M28.9989689,57.0458356 C13.5357822,57.0458356 0.952811111,44.4655711 0.952811111,28.9996778 C0.952811111,13.5343644 13.5357822,0.952811111 28.9989689,0.952811111 C44.4628644,0.952811111 57.0451267,13.5343644 57.0451267,28.9996778 C57.0451267,44.4655711 44.4628644,57.0458356 28.9989689,57.0458356 Z M28.9989689,0 C13.0085622,0 0,13.0106244 0,28.9996778 C0,44.9893756 13.0085622,58 28.9989689,58 C44.9907933,58 58,44.9893756 58,28.9996778 C58,13.0106244 44.9907933,0 28.9989689,0 L28.9989689,0 Z" id="Fill-2" fill="#D8252C"></path>
        </g>
    </g>
</svg>