<?xml version="1.0" encoding="UTF-8"?>
<svg version="1.1" viewBox="0 0 80 80" xmlns="http://www.w3.org/2000/svg">
<title>1 – Fundamentals/Logos/Clubs/Bayern FCB</title>
<g fill="none" fill-rule="evenodd">
<rect width="80" height="80"/>
<g transform="translate(11 11)" fill-rule="nonzero">
<path id="Path" d="m29 0c-16.016 0-29 12.984-29 29s12.984 29 29 29 29-12.984 29-29-12.984-29-29-29z" fill="#0066B2"/>
<path id="Path" d="m29 1.45c-15.215 0-27.55 12.335-27.55 27.55s12.335 27.55 27.55 27.55 27.55-12.335 27.55-27.55-12.335-27.55-27.55-27.55z" fill="#fff"/>
<path id="Shape" d="m29 2.755c-14.495 0-26.245 11.75-26.245 26.245s11.75 26.245 26.245 26.245 26.245-11.75 26.245-26.245-11.75-26.245-26.245-26.245zm0 42.63c-9.0493 0-16.385-7.3351-16.385-16.385s7.3357-16.385 16.385-16.385 16.385 7.3357 16.385 16.385-7.3351 16.385-16.385 16.385z" fill="#DC052D"/>
<path id="Shape" d="m14.594 33.458c0.66199 2.149 1.7982 4.1218 3.3247 5.7729v-6.8015l-3.8422-5.6131c-0.3276 2.2246-0.15142 4.4943 0.51556 6.6416m7.7572 5.3863v-7.7868l-4.3983-6.4251v-5.8947c-0.81076 0.87571-1.5149 1.8444-2.0977 2.8858l2.0667 3.0192v7.7868l4.3983 6.4251v3.6585c1.07 0.52966 2.199 0.93072 3.3634 1.1948l-3.3324-4.8636zm4.4325-9.1588 4.3983 6.4258v7.7868l-4.3983-6.4258v-7.7868l-4.3983-6.4251v-7.7868l4.3983 6.4258v7.7862zm4.4325-1.3714-4.3983-6.4258v-7.7862l4.3983 6.4251v7.7868l4.3983 6.4251v7.7868l-4.3983-6.4251v-7.7868zm-6.6726-13.72c-2.171 0.66854-4.1621 1.8209-5.8232 3.3704l3.6327 5.3064v7.7868l4.3983 6.4258v6.4309c4.5499 0.68222 9.1627-0.74533 12.532-3.8783l-3.6327-5.307v-7.7868l-4.3983-6.4251v-6.4316c-2.2459-0.33968-4.5396-0.16583-6.7087 0.50847m15.543 18.763v-7.7868l-4.3983-6.4251v-3.6585c-1.0703-0.52957-2.1995-0.93063-3.364-1.1948l3.3292 4.8643v7.7862l4.3983 6.4258v5.8941c0.81053-0.87574 1.5144-1.8444 2.097-2.8858l-2.0622-3.0192zm3.324-8.8154c-0.66223-2.1487-1.7981-4.1215-3.324-5.7729v6.8015l3.8415 5.6131c0.32789-2.2245 0.1517-4.4943-0.51556-6.6416" fill="#0066B2"/>
<path id="Path" d="m11.454 34.421 0.74498 1.586-1.2109 2.2891c-0.18238 0.34091-0.34027 0.61931-0.34027 0.61931l0.016111 0.030289s0.32222 0.019333 0.70438 0.0522l2.5778 0.23264 0.92413 1.488-5.5738 3.257-0.88998-1.4294 2.3329-1.3617c0.54391-0.31513 0.95442-0.53747 0.95442-0.53747l-0.016111-0.030289s-0.28227-0.020622-0.87-0.10698l-2.3748-0.3538-0.016111-0.029644 0.9976-2.1834c0.24811-0.54069 0.38667-0.78816 0.38667-0.78816l-0.016111-0.029644s-0.41051 0.22233-0.97053 0.50718l-2.416 1.2135-0.71211-1.526 5.7678-2.8987z" fill="#fff"/>
<path id="Shape" d="m15.724 41.458 1.2889 1.1394-2.5778 3.0701c-0.4234 0.50976-0.40213 1.0459 0.23844 1.5499s1.1664 0.39956 1.5628-0.12889l2.3799-3.228 1.4107 0.98084-2.4431 3.3086c-1.1194 1.5177-2.57 1.2186-3.8248 0.23071-1.2547-0.98793-1.8895-2.3277-0.67731-3.7719l2.6422-3.1507zm2.5707 2.0893-1.586 1.1078-0.027067-0.020622 0.70567-1.8044 0.90738 0.71727z" fill="#fff"/>
<path id="Path" d="m21.017 45.402 1.6756 0.61222 0.94798 3.239c0.20558 0.70051 0.28871 1.0711 0.28871 1.0711l0.048978 0.014822s0.10956-0.4814 0.27002-1.0717l0.68827-2.5778 1.6388 0.38667-1.6672 6.2376-1.74-0.41696-1.0756-3.384c-0.20944-0.65733-0.29709-1.0743-0.29709-1.0743l-0.048978-0.014822s-0.14371 0.50653-0.32673 1.055l-0.87967 2.6255-1.5808-0.58 2.0577-6.1222z" fill="#fff"/>
<path id="Path" d="m33.579 50.988c0.035444 1.5299-0.92349 2.5823-2.7537 2.7067-1.7116 0.11536-3.3137-0.6612-3.4059-3.1578-0.095378-2.5307 1.305-3.48 2.949-3.5883 1.7793-0.12051 2.8085 0.87387 2.9851 2.224l-1.7284 0.11729c-0.15918-0.58516-0.47173-0.92993-1.2341-0.87838-0.70889 0.048333-1.2122 0.70373-1.16 2.0023 0.057356 1.3578 0.6206 1.8818 1.4178 1.8276 0.79718-0.054133 1.1471-0.43436 1.1864-1.1368l1.7439-0.11664z" fill="#fff"/>
<polygon id="Path" points="33.962 46.529 35.566 45.91 36.476 48.087 38.473 47.175 37.425 45.059 38.944 44.255 41.806 50.043 40.29 50.847 39.157 48.544 37.063 49.499 38.057 51.864 36.454 52.483 33.966 46.533" fill="#fff"/>
<polygon id="Path" points="39.961 43.496 43.049 40.536 44.043 41.512 42.108 43.371 42.848 44.191 44.724 42.391 45.696 43.342 43.758 45.199 44.561 46.101 46.744 44.009 47.738 44.982 44.28 48.298" fill="#fff"/>
<path id="Path" d="m43.822 39.619 0.8874-1.5505 3.3511-0.38667c0.725-0.084422 1.1046-0.10376 1.1046-0.10376l0.0232-0.045756s-0.45627-0.18947-1.0111-0.4466l-2.4218-1.1142 0.65927-1.5505 5.8644 2.6983-0.70502 1.6414-3.52 0.49364c-0.68311 0.095378-1.1084 0.11084-1.1084 0.11084l-0.022556 0.045756s0.47496 0.22749 0.98407 0.50009l2.4392 1.3121-0.84164 1.459-5.6827-3.063z" fill="#fff"/>
<polygon id="Path" points="6.9001 18.246 8.1954 18.758 7.1643 21.626 8.3733 22.026 9.3399 19.342 10.603 19.844 9.6634 22.447 11.922 23.182 11.436 24.83 5.2516 22.813" fill="#fff"/>
<path id="Path" d="m14.809 13.984c1.1162 1.0118 1.3089 2.398 0.19333 3.81-1.0182 1.2921-2.5932 1.9121-4.6271 0.40278-2.0049-1.4874-1.74-3.2461-0.67667-4.593 1.1265-1.4262 2.563-1.5467 3.6778-0.75207l-1.0736 1.3591c-0.52458-0.29516-1.0163-0.26164-1.5054 0.35831-0.48913 0.61996-0.38151 1.3868 0.70567 2.2021 1.0401 0.77849 1.8528 0.75013 2.3058 0.17722 0.48398-0.61287 0.38667-1.1097-0.084422-1.5924l1.0846-1.372z" fill="#fff"/>
<path id="Shape" d="m19.054 6.6758c1.1407-0.52716 2.2556-0.64444 2.7498 0.52522 0.40342 0.95442 0.14758 1.372-0.35187 1.7903l0.018044 0.038667c0.53231-0.12438 1.2457-0.0986 1.6994 0.96667 0.54649 1.2812-0.29129 2.021-1.4313 2.5481l-2.4128 1.1175-2.8916-5.7755 2.6203-1.2109zm0.96667 2.34c0.44724-0.20687 0.57549-0.41567 0.39504-0.8468-0.17336-0.41567-0.46916-0.44724-0.90222-0.24811l-0.96344 0.44531 0.54456 1.0769 0.92607-0.42727zm1.0904 2.3587c0.493-0.22813 0.62833-0.42147 0.41953-0.91447-0.19333-0.46142-0.53618-0.47238-1.0311-0.24424l-0.83262 0.38667 0.58709 1.169 0.85711-0.39698z" fill="#fff"/>
<path id="b" d="m30.799 10.918-1.8328-0.0038666-0.52587-1.1568-2.2169 0.19333-0.32222 1.229-1.8044 0.31707 1.7903-6.7531 1.9978-0.17207 2.9142 6.3465zm-2.8575-2.4051-0.55293-1.2567c-0.19011-0.42662-0.33318-0.8062-0.33318-0.8062h-0.034156s-0.076689 0.39891-0.19333 0.85196l-0.3248 1.334 1.4384-0.12309z" fill="#fff"/>
<path id="Path" d="m32.43 9.0222-1.4964-4.5826 1.9333 0.36798 0.5858 1.9436c0.1102 0.3712 0.20751 0.76624 0.20751 0.76624l0.032867 0.0070889s0.25198-0.32222 0.50653-0.61093l1.3398-1.526 1.9146 0.46787-3.2648 3.5496-0.49944 2.1421-1.693-0.36798 0.43307-2.157z" fill="#fff"/>
<polygon id="a" points="38.739 6.4122 42.803 8.6433 42.094 9.8439 39.586 8.4667 39.084 9.4508 41.399 10.722 40.708 11.892 38.468 10.662 37.919 11.735 40.36 13.076 39.651 14.276 35.812 12.167" fill="#fff"/>
<path d="m45.051 10.392 1.9714 2.1106c1.0086 1.0794 1.2496 2.1209 0.048333 3.1739-0.76753 0.67087-1.3263 0.85582-2.0023 0.59289l-1.0311 2.6023-1.2174-1.4887 0.94282-2.1267-0.56196-0.60127-1.517 1.5106-1.2457-1.1838 4.6129-4.5897zm-0.88676 3.3041 0.667 0.7134c0.37056 0.39698 0.68247 0.40793 1.0956 0.043178 0.41309-0.36476 0.40213-0.70116 0.030933-1.0956l-0.70116-0.75078-1.0923 1.0898z" fill="#fff"/>
<path d="m46.679 24.817-0.58902-1.6859 1.9056-2.7853c0.40729-0.5916 0.64444-0.90222 0.64444-0.90222l-0.019333-0.047044s-0.44144 0.21976-1.0002 0.4698l-2.4296 1.1001-0.73724-1.5138 5.8825-2.6609 0.7772 1.6079-1.9333 2.9812c-0.3712 0.56776-0.64444 0.90996-0.64444 0.90996l0.019333 0.047044s0.48333-0.20944 1.0234-0.41502l2.5887-0.98213 0.54842 1.5924-6.0365 2.2839z" fill="#fff"/>
</g>
</g>
</svg>
