<?xml version="1.0" encoding="UTF-8"?>
<svg version="1.1" viewBox="0 0 80 80" xmlns="http://www.w3.org/2000/svg">
<title>1 – Fundamentals/Logos/Clubs/Augsburg FCA</title>
<g fill="none" fill-rule="evenodd">
<rect width="80" height="80"/>
<g transform="translate(18 12)" fill-rule="nonzero">
<path id="Path" d="m0 0v35.054c0 12.12 9.8502 21.946 22.001 21.946 12.15 0 21.999-9.8255 21.999-21.946v-35.054h-44z" fill="#fff"/>
<path id="Shape" d="m0 0v35.054c0 12.12 9.8502 21.946 22.001 21.946 12.15 0 21.999-9.8255 21.999-21.946v-35.054h-44zm42.148 35.054c0 8.1286-4.9089 15.457-12.437 18.568-7.5286 3.1107-16.194 1.3915-21.957-4.3561-3.7906-3.761-5.9155-8.8783-5.901-14.211v-17.286h40.295v17.286zm-40.295-19.134v-14.073h40.295v14.073h-40.295z" fill="#fd0"/>
<path id="Path" d="m22 55.152v-37.383h-20.147v17.286c0 5.3301 2.1224 10.442 5.9008 14.211 3.7784 3.769 8.903 5.8865 14.247 5.8865z" fill="#CD1719"/>
<path id="Shape" d="m0.61778 0.61623v34.438c0.0069388 10.145 7.1743 18.882 17.142 20.896 9.9676 2.0142 19.979-3.2513 23.943-12.593 1.1143-2.6265 1.6857-5.4503 1.68-8.3024v-34.438h-42.765zm42.148 0.6156v15.304h-41.531v-15.304h41.531zm-6.0819 48.47c-5.939 5.9238-14.871 7.6958-22.63 4.4897-7.7595-3.2061-12.819-10.759-12.819-19.137v-17.902h41.531v17.902c0.014526 5.4966-2.1754 10.771-6.082 14.647z" fill="#CD1719"/>
<g transform="translate(5.8413 3.61)">
<path id="Path" d="m10.681 8.0794s1.8883 0.40343 6.5822 0.16087c0 0 2.1587-0.017733 2.1587-1.6859v-1.5428h-2.6724v0.69667s0.020318 0.50667-0.35873 0.50667h-3.9067s-0.77778-0.074733-0.88889-0.80117v-2.5815s0.054603-0.5738 0.75492-0.61877c0 0 1.1251-0.1615 3.5892-0.027233 0 0 0.84444-0.0532 0.83492 0.94177h2.5175l-0.017143-1.4883s-0.12698-1.444-1.9048-1.5523c0 0-4.153-0.1615-5.9873 0.027233 0 0-2.3746 0.053833-2.32 1.8563v4.3858s-0.08127 1.5067 1.6184 1.7227z" fill="#CD1719"/>
<polygon id="Path" points="2.5257 5.6126 8.3137 5.6113 8.3162 3.6398 2.5257 3.6398 2.4895 2.2135 8.6038 2.2046 8.6038 0.1957 0.008254 0.1957 0.008254 8.4468 2.5613 8.4449" fill="#CD1719"/>
<path id="Shape" d="m27.564 0.063333h-3.9835l-4.5968 8.8977v1.71h2.0952l1.9397-3.921 5.0978-0.0063333 1.8895 3.9267h3.2343l-5.6762-10.607zm-3.6724 4.8716 1.4413-2.9083h0.39619l1.4025 2.9064-3.24 0.0019z" fill="#CD1719"/>
<rect id="Rectangle" x=".008254" y="8.7736" width="6.3625" height="1.8987" fill="#CD1719"/>
<rect id="b" x="6.3708" y="8.7736" width="6.3625" height="1.8987" fill="#006139"/>
<rect x="12.733" y="8.7736" width="6.3625" height="1.8987" fill="#fff"/>
<path id="Shape" d="m18.886 8.9832v1.4795h-5.9422v-1.4795h5.9422m0.21016-0.20963h-6.3625v1.9h6.3625v-1.9z" fill="#CC1719"/>
</g>
<g transform="translate(15.492 49.147)">
<polygon id="c" points="0.033016 2.8563 0.033016 2.6106 0.56063 2.4599 0.56063 0.5662 0.033016 0.4028 0.033016 0.1634 1.7124 0.1634 1.7124 0.4028 1.1848 0.55923 1.1848 2.4599 1.7124 2.6106 1.7124 2.8563" fill="#fff"/>
<path id="a" d="m4.1625 0.074733c-0.78794 0-1.2876 0.60863-1.2876 1.3395 0 0.8949 0.5346 1.33 1.2267 1.33 0.19331-0.011741 0.38327-0.055846 0.5619-0.13047-0.26095 0.58837-0.75429 1.0254-1.4946 1.3129l0.16444 0.34833c1.4324-0.40343 2.1867-1.5656 2.1663-2.66-0.013968-0.836-0.45905-1.5403-1.3371-1.5403zm0.64444 2.1255c-0.15048 0.054467-0.43175 0.1501-0.66413 0.1501-0.41841 0-0.65143-0.43763-0.66476-0.95633-0.014603-0.54657 0.21841-0.9025 0.61651-0.91643 0.41778-0.020267 0.76698 0.45093 0.78159 1.0184 0.0066994 0.23672-0.016553 0.47335-0.069206 0.70427z" fill="#fff"/>
<path d="m8.6673 0.0475c-0.83619 0-1.5143 0.64917-1.5143 1.4484 0 0.79927 0.6781 1.4567 1.5143 1.4567 0.83619 0 1.5238-0.64917 1.5238-1.4567 0-0.8075-0.68762-1.4484-1.5238-1.4484zm0 2.4402c-0.55492 0-0.91111-0.43827-0.91111-0.9918 0-0.55353 0.35619-0.98357 0.91111-0.98357 0.55492 0 0.92 0.43763 0.92 0.98357 0 0.54593-0.36508 0.9918-0.92 0.9918z" fill="#CC1719"/>
<path d="m11.463 4.1008h-0.51365c0.17778-0.8816 0.67048-2.1742 1.4521-3.4384h-1.7956v-0.49907h2.4762v0.3895c-0.55048 0.80623-1.3657 2.4548-1.619 3.5479z" fill="#CC1719"/>
</g>
<g transform="translate(14.159 19.507)">
<path d="m15.683 19.228-2.4286-2.1799c-1.1179 0.18949-2.2446 0.32287-3.3759 0.39963l-0.025397-1.71c2.0317-0.18177 3.0038-0.72643 3.8927-1.5624 1.0667-1.0133 1.5657-2.3243 1.5657-4.2136 0-3.1964-1.8863-6.2111-3.4997-7.809-1.0657-1.0857-2.4304-1.8316-3.9213-2.1432h-0.091429c-1.4907 0.31262-2.8551 1.0586-3.9213 2.1438-1.6133 1.6004-3.4965 4.6151-3.4965 7.8115 0 1.8892 0.49524 3.1971 1.5625 4.2136 0.88889 0.836 1.8603 1.3807 3.8965 1.5624l-0.029206 1.71c-1.1429-0.0722-2.2686-0.21787-3.3759-0.39963l-2.4286 2.1768 0.99048 1.0893c-0.098452 0.22946-0.14797 0.47685-0.1454 0.72643-0.0021949 0.36454 0.1411 0.71497 0.39826 0.97399 0.25717 0.25902 0.60707 0.40534 0.97253 0.40668 0.2254 0 0.64762-0.072833 0.92127-0.39963 0.082032-0.1091 0.14218-0.23296 0.17714-0.3648 0.62603 1.3078 1.0013 3.3782 1.1651 6.4296l0.010794 0.21787h6.6965l0.014603-0.21787c0.16064-3.0514 0.53905-5.1218 1.1657-6.4296 0.032572 0.13185 0.092006 0.25559 0.1746 0.36353 0.27302 0.3268 0.69524 0.39963 0.92508 0.39963 0.75994-0.0048826 1.3724-0.62262 1.3689-1.3807 0.0010065-0.24943-0.048446-0.49651-0.1454-0.72643l0.98603-1.0881" fill="#000"/>
<polyline points="8.2438 15.304 9.7143 14.433 7.8502 13.343 5.9816 14.433 7.4495 15.304 8.247 15.304" fill="#006139"/>
<path d="m10.563 3.61 1.8648 1.1261 0.53524-0.32743c-0.34098-0.54187-0.72983-1.0523-1.1619-1.5251l-1.2381 0.72643" fill="#006139"/>
<path d="m3.2622 13.343-0.89587 0.5453c0.55453 0.48529 1.2081 0.84465 1.9156 1.0532l0.84825-0.50667-1.8679-1.09" fill="#006139"/>
<path d="m4.8889 15.087c0.46984 0.10893 1.0121 0.14567 1.6603 0.18177l-0.99429-0.5814-0.66603 0.39963" fill="#006139"/>
<path d="m9.1429 15.268c0.64825-0.0361 1.1949-0.072833 1.661-0.18177l-0.66667-0.39963-0.99429 0.5814" fill="#006139"/>
<path d="m13.641 13.561c0.38095-0.43573 0.65905-0.87147 0.84825-1.4529l-1.6349 0.98103 0.78667 0.47183" fill="#006139"/>
<path d="m14.703 8.7666c-0.1033-0.64459-0.27025-1.2774-0.49841-1.8892l-1.3511 0.79927 1.8495 1.09" fill="#006139"/>
<path d="m14.737 9.2752h-0.018413l-1.8641 1.0893 1.8127 1.09c0.094822-0.49078 0.13992-0.98982 0.1346-1.4896 0-0.21787-0.018413-0.47183-0.04-0.6897h-0.025397" fill="#006139"/>
<path d="m10.563 14.433 0.84508 0.50667c0.70781-0.20769 1.3616-0.56716 1.9156-1.0532l-0.89587-0.5453-1.8648 1.09" fill="#006139"/>
<path d="m1.2063 12.108c0.17631 0.5381 0.46425 1.0331 0.84508 1.4529l0.78667-0.47183-1.6317-0.98103" fill="#006139"/>
<path d="m9.4343 1.0659c-0.64063-0.2907-1.2013-0.47247-1.5873-0.54467-0.38984 0.0722-0.95238 0.25333-1.5917 0.54467l1.5917 0.9443 1.5873-0.9443" fill="#006139"/>
<path d="m7.421 2.2648-1.6133-0.94493c-0.56947 0.33542-1.0964 0.73795-1.5695 1.1989-0.014603 0-0.029206 0.0361-0.04 0.0361l1.3543 0.8018 1.8686-1.0893" fill="#006139"/>
<path d="m10.137 3.3567 1.3581-0.79927c-0.013968 0-0.028571-0.0361-0.043175-0.0361-0.47247-0.46168-0.99952-0.86427-1.5695-1.1989l-1.6133 0.94493 1.8679 1.0893" fill="#006139"/>
<path d="m5.1302 3.61-1.2381-0.72643c-0.43319 0.47143-0.82212 0.9815-1.1619 1.5238l0.53143 0.32743 1.8686-1.1248" fill="#006139"/>
<path d="m0.97143 9.2752h-0.043175c-0.022222 0.21787-0.036825 0.47183-0.036825 0.6897-0.0046869 0.49961 0.03933 0.99849 0.13143 1.4896l1.8133-1.09-1.8648-1.0893" fill="#006139"/>
<path d="m1.4851 6.8774c-0.22888 0.61136-0.39482 1.2444-0.49524 1.8892l1.8463-1.09-1.3511-0.79927" fill="#006139"/>
<path d="m2.501 4.7709c-0.11619 0.18177-0.23302 0.39963-0.33841 0.5814l0.67365-0.39963-0.33524-0.18177" fill="#006139"/>
<path d="m3.2622 7.4227 1.8679-1.0893-1.8679-1.1261-1.4457 0.87273c-0.066972 0.1288-0.12427 0.26238-0.17143 0.39963l1.6171 0.9443" fill="#006139"/>
<polyline points="5.9784 9.0206 7.847 10.147 9.7143 9.0206 7.8502 7.9312 5.9816 9.0206" fill="#006139"/>
<polyline points="3.2622 10.619 1.3968 11.745 3.2616 12.834 5.1295 11.745 3.2616 10.619" fill="#006139"/>
<polyline points="3.6883 13.089 5.5524 14.178 7.421 13.089 5.5524 11.999 3.6883 13.089" fill="#006139"/>
<polyline points="5.1302 9.0206 3.2622 7.9312 1.3968 9.0206 3.2616 10.147 5.1295 9.0206" fill="#006139"/>
<polyline points="7.421 4.9527 5.5524 3.8633 3.6883 4.9527 5.5524 6.08 7.421 4.9539" fill="#006139"/>
<polyline points="7.421 7.6766 5.5524 6.5867 3.6883 7.676 5.5524 8.766 7.421 7.676" fill="#006139"/>
<polyline points="7.847 10.619 5.9784 11.745 7.847 12.834 9.7143 11.745 7.8502 10.619" fill="#006139"/>
<polyline points="8.2692 13.089 10.137 14.178 12 13.089 10.135 11.999 8.2673 13.089" fill="#006139"/>
<polyline points="8.2692 7.6766 10.137 8.7666 12 7.6766 10.137 6.5867 8.2692 7.676" fill="#006139"/>
<polyline points="12.428 10.147 14.292 9.0206 12.428 7.9312 10.563 9.0206 12.428 10.147" fill="#006139"/>
<polyline points="10.563 11.745 12.428 12.834 14.292 11.745 12.428 10.619 10.563 11.745" fill="#006139"/>
<polyline points="8.2692 4.9527 10.137 6.08 12 4.9527 10.137 3.8633 8.2692 4.9527" fill="#006139"/>
<polyline points="9.7143 3.61 7.8502 2.52 5.9784 3.61 7.847 4.7361 9.7143 3.61" fill="#006139"/>
<path d="m13.531 5.3523c-0.10984-0.18177-0.22222-0.39963-0.34286-0.5814l-0.3346 0.18177 0.67746 0.39963" fill="#006139"/>
<path d="m12.428 5.2066-1.8648 1.1267 1.8648 1.09 1.6165-0.9443c-0.04597-0.13713-0.10199-0.2707-0.16762-0.39963l-1.4489-0.8721" fill="#006139"/>
<polyline points="3.6883 10.364 5.5524 11.491 7.421 10.364 5.5524 9.2752 3.6883 10.364" fill="#006139"/>
<polyline points="7.847 5.2066 5.9784 6.3333 7.847 7.4233 9.7143 6.3333 7.8502 5.2073" fill="#006139"/>
<polyline points="12 10.364 10.135 9.2752 8.2673 10.364 10.135 11.491 12 10.364" fill="#006139"/>
<path d="m3.6775 19.01h2.1117l0.018413-1.1261c-1.0959-0.0722-2.1778-0.18113-3.2381-0.399-0.79175 0.72643-1.4902 1.38-1.9473 1.7797l0.60444 0.6536c0.45143-0.58077 1.2997-0.9082 2.4508-0.9082" fill="#fd0"/>
<path d="m13.119 17.484c-1.0702 0.18879-2.1496 0.32197-3.2337 0.399l0.018413 1.1261h2.1086c1.1505 0 1.9994 0.32743 2.454 0.9082l0.60127-0.6536c-0.45524-0.39963-1.1543-1.0532-1.9486-1.7797" fill="#fd0"/>
<path d="m7.847 19.046h-1.6248l0.050794-3.2693c0.46984 0.0361 0.99048 0.0361 1.5733 0.0361 0.58286 0 1.1029 0 1.5727-0.0361l0.051429 3.2693h-1.6235" fill="#fd0"/>
<path d="m3.1454 19.443c-1.1905 0.14503-1.8603 0.72643-1.8603 1.5979 0.0016632 0.51756 0.41835 0.93856 0.93714 0.94683 0.14921 0 0.42603-0.0361 0.58603-0.21787 0.14222-0.18113 0.17143-0.47183 0.090794-0.83537l0.38984-0.18177c0.79746 1.1261 1.2781 2.9425 1.5238 5.8482l1.2781-3.1236c-0.88444-1.9253-1.8781-3.5232-2.9454-4.0343" fill="#fd0"/>
<path d="m6.3175 22.933 1.4349-3.451-3.8019-0.038633c0.77206 0.6175 1.5403 1.7436 2.367 3.4871" fill="#fd0"/>
<path d="m11.74 19.443-3.7981 0.0361 1.4343 3.451c0.8254-1.7436 1.5917-2.8696 2.3638-3.4871" fill="#fd0"/>
<path d="m6.5613 23.478c0.41143 0.9443 0.83746 1.9975 1.2857 3.23 0.44762-1.235 0.86984-2.2882 1.2819-3.23-0.60508-1.4529-1.1429-2.7607-1.2819-3.0875-0.14222 0.3268-0.67746 1.6346-1.2857 3.0875" fill="#fd0"/>
<path d="m6.3352 24.022c-0.53841 1.311-1.0959 2.6518-1.4463 3.5232 0.0038095 0.10957 0.010794 0.2185 0.018413 0.32743h2.8908l-0.15302-0.43637c-0.4-1.1261-0.83746-2.3243-1.3073-3.4143" fill="#fd0"/>
<path d="m12.544 19.443c-1.0629 0.50667-2.061 2.1065-2.946 4.0318l1.2781 3.1249c0.24762-2.9057 0.73206-4.7221 1.5238-5.8482l0.38921 0.18177c-0.08 0.36353-0.046984 0.65423 0.094603 0.83537 0.16063 0.18177 0.43365 0.21787 0.58667 0.21787 0.51731-0.0089368 0.93285-0.42821 0.93587-0.9443 0-0.87147-0.67365-1.4529-1.8648-1.5979" fill="#fd0"/>
<path d="m8.0508 27.437-0.15683 0.43637h2.8914c0.0076191-0.10893 0.014603-0.21787 0.021587-0.32743-0.35683-0.87147-0.91365-2.2167-1.4489-3.5232-0.47365 1.09-0.91048 2.2882-1.3073 3.4143" fill="#fd0"/>
</g>
</g>
</g>
</svg>
