<?xml version="1.0" encoding="UTF-8"?>
<svg version="1.1" viewBox="0 0 80 80" xmlns="http://www.w3.org/2000/svg">
<title>1 – Fundamentals/Logos/Clubs/Köln KOE</title>
<g fill="none" fill-rule="evenodd">
<rect width="80" height="80"/>
<g transform="translate(13.5 10)" fill-rule="nonzero">
<path id="a" d="m52.37 30.011c0.010617-0.020667 0.0079624-0.031333 0.021233-0.054667 0.063368-0.13496 0.096872-0.28212 0.098203-0.43133 6.315e-4 -0.12613-0.027754-0.25071-0.082942-0.364-0.035431-0.058581-0.079-0.11178-0.12939-0.158l0.12342-0.36c0.017045-0.067332 0.025737-0.13652 0.025878-0.206 0.0012713-0.25435-0.12299-0.49281-0.33177-0.63667-0.28623-0.19462-0.66288-0.1893-0.94355 0.013333-0.21963 0.142-0.37224 0.4-0.5169 0.65533-0.090974-0.11785-0.24677-0.16403-0.38684-0.11467-0.24816 0.061333-0.21631 0.10867-0.41803 0.4-0.71728 1.05-1.6695 2.702-2.7656 2.7587-0.23622-0.028667-0.30921-0.097333-0.59718-0.54733-2.3695-3.7933-5.2818-6.04-9.1382-8.8-0.22428-0.19267-0.7133-0.958-1.1864-1.6967-0.81814-1.2793-1.7458-2.728-2.6833-3.3913-0.71728-0.52067-1.4823-0.8-2.2215-1.0667-0.89445-0.324-1.7405-0.63-2.5009-1.3593-0.30324-0.29867-0.57728-0.69933-0.89312-1.1633-0.64429-0.94467-1.4664-2.0987-3.0324-3.1173 0.056278-0.30257 0.08581-0.60954 0.08825-0.91733 0-0.46667-0.12806-1.1933-0.33575-1.58-0.13058-0.25751-0.36339-0.44758-0.64098-0.52333-0.42732-0.104-1.1141 0.053333-1.5759 0.262 0.91303-2.7087 3.0523-4.498 4.165-5.4233 0.61842-0.514 0.97075-0.80733 0.97075-1.204-2.139e-4 -0.067539-0.0091353-0.13476-0.026542-0.2-0.15991-0.726-0.96744-0.76467-1.3125-0.78067h-0.066354c-0.47111-0.012-1.9767 0.04-3.0675 0.87467-0.30512 0.083057-0.59595 0.21208-0.8626 0.38267-0.006198-0.047293-0.016636-0.093927-0.031186-0.13933-0.13271-0.28533-0.47775-0.56533-1.053-0.492-1.0802 0.16267-1.6874 0.444-2.0994 0.67067l-0.10816 0.066667c-0.62507 0.35071-1.1277 0.88599-1.4399 1.5333-0.43196 0.32067-0.91435 0.81267-1.0982 1.552-0.52245 0.35082-0.84744 0.9306-0.8752 1.5613-0.26811 0.30898-0.45494 0.68051-0.54344 1.0807-0.46724-0.41599-1.0425-0.68997-1.6588-0.79l-0.046448-0.0073333h-0.047111c-0.20304-4e-3 -0.62572-0.012-0.9462 0.31267l-0.081615 0.082667-0.048438 0.106c-0.043981 0.09783-0.066606 0.20399-0.066354 0.31133 0.0083342 0.19685 0.075892 0.38653 0.19375 0.544l0.035831 0.054c0.008626 0.02 0.11346 0.52933 0.11346 0.52933l0.066354 0.55933c0.16987 0.92067 0.56334 1.4 1.0617 1.8293-0.10209 0.28462-0.15896 0.58361-0.16854 0.886 0 0.44533 0.11745 0.80933 0.22096 1.1333 0 0 0.027205 0.086 0.045784 0.146 0.0069538 0.056846 0.010499 0.11406 0.010616 0.17133 0 0.632-0.24352 1.8667-0.43263 2.5933l-0.073653 0.24133c-0.14266 0.44467-0.39812 1.244-0.39812 2.1247-0.0018647 0.3276 0.037146 0.65415 0.11612 0.972 0.16588 0.556 0.59187 1.2207 1.1851 1.5067l0.33177 0.13333c0.29859 0.11333 0.38817 0.14733 0.51557 0.35267 0.10948 0.172 0.15527 0.722 0.15527 1.2967 0.0029547 0.39103-0.019209 0.78184-0.066354 1.17l-0.0059718 0.042667v0.047333c0.0032908 0.31372 0.19569 0.59406 0.48637 0.70867 0.25082 0.1 0.63036 0.086 0.9409-0.252 0.20067-0.20764 0.37862-0.43628 0.53083-0.682 0.041139 0.06 0.049765 0.142 0.10749 0.192l0.025878 0.024 0.029859 0.02c0.10821 0.069216 0.23278 0.10833 0.36096 0.11333-0.38286 0.26133-0.84999 0.55733-1.479 0.93333-3.6163 0.57267-6.0136 1.896-6.4635 3.5167-5.7436 2.8073-9.4501 8.704-9.4501 15.135 0 9.2887 7.5205 16.847 16.764 16.847 9.2437 0 16.775-7.558 16.775-16.847-0.0065725-2.1665-0.4297-4.3114-1.2461-6.3167l0.21631-0.102c0.055074 0.060667 0.11147 0.12133 0.11147 0.12133 0.21034 0.25333 0.62771 0.55933 0.96478 0.56867 0.18381 0.0072443 0.36787-0.0041466 0.54941-0.034l0.038485-0.010667c0.028532 0.048667 0.18712 0.326 0.18712 0.326 0.33177 0.51067 0.86724 0.49667 1.1552 0.48933 0.17849-0.0046666 0.30655-8e-3 0.46448 0.060667 0.15792 0.068667 0.22494 0.30467 0.30324 0.82133l0.066354 0.37733c0.062838 0.2831 0.22604 0.53357 0.45917 0.70467l0.0046448 0.0046667c0.025878 0.128 0.10617 0.54267 0.10617 0.54267 0.059718 0.44733 0.12806 0.95467 0.59718 1.1553-0.010617-0.0046667 0.012607-0.0046667 0.044457-4e-3 0.07498 0.37467 0.091568 0.83 0.52618 1.0927 0.11069 0.053948 0.23197 0.082417 0.35499 0.083333 0.0046447 0.02 0.011944 0.042667 0.011944 0.042667 0.1128 0.57533 0.56732 0.72067 0.73918 0.776h0.0079624c0.025878 0.043333 0.28466 0.46667 0.28466 0.46667 0.18247 0.33 0.35234 0.64267 0.58059 0.83l0.10351 0.086667 0.13271 0.037333c0.064929 0.017569 0.13182 0.026754 0.19906 0.027333 0.55273 0.708 2.0676 2.9787 2.0676 5.0867 0 0.1-0.0033177 0.2-0.010617 0.3-0.098867 1.4347-0.68278 2.1673-1.0696 2.652-0.44324 0.55467-0.46448 1.204-0.46448 1.4593v0.035333c0.05441 0.61933 0.37755 0.824 0.61244 0.97333 0.25015 0.13333 0.95549 0.432 1.9448 0.017333 0.81681-0.34267 0.99066-0.95733 1.1048-1.364 0.053083-0.18533 0.08825-0.302 0.14731-0.36 0.37689-0.368 0.81748-0.90067 0.87388-1.7687 0.0059718-0.070667 0.0086259-0.14333 0.0086259-0.21867 0-0.73333-0.23423-1.6527-0.4585-2.4727-0.092895-0.348-0.21764-1.1687-0.24352-1.9167 0.31982 0.444 0.58789 0.88867 0.74648 1.1627l0.079624 0.13333c0.21167 0.36 0.81615 1.3913 0.81615 2.396 3.715e-4 0.11001-0.0076141 0.21988-0.023887 0.32867-0.11015 0.676-0.32182 1.0667-0.56732 1.516-0.2548 0.46667-0.5441 1-0.70269 1.8547-0.019556 0.11317-0.029545 0.2278-0.029859 0.34267 0 0.46667 0.17517 0.87467 0.5023 1.1533 0.45784 0.39133 1.1459 0.46667 1.8851 0.208 0.91568-0.33333 1.5441-1.3753 1.7424-2.7927 0.11811-0.084 0.23887-0.172 0.23887-0.172 0.20037-0.22822 0.30813-0.52374 0.30191-0.828-0.0014583-0.16505-0.023754-0.32925-0.066354-0.48867-0.48903-1.9767-0.57462-2.9427-0.57462-3.72 0-0.20867 0.0053083-0.40467 0.012607-0.6l-0.039149-1.6847c-0.043869-0.42335-0.22556-0.82032-0.5169-1.1293l-0.36229-0.416c-0.26541-0.27333-0.59718-0.61133-0.66354-0.91-0.092895-0.38867-0.13271-0.872-0.13271-1.4127 0-0.94333 0.10948-2.062 0.21631-3.1567 0.11612-1.1753 0.22892-2.314 0.22892-3.3213-1.889e-4 -0.40598-0.026787-0.81151-0.079624-1.214 2.7265 0.085333 3.964-2.7367 4.3847-3.6993l0.071662-0.162c0.06811-0.16972 0.1052-0.35039 0.10974-0.53333 0.0051734-0.21155-0.075036-0.41627-0.22254-0.56733zm-33.092-9.6667c0.037158-0.292 0.071662-0.492 0.1055-0.71267 0.073315 0.027153 0.14944 0.045938 0.22693 0.056 0.059246 0.34765 0.26319 0.65343 0.56069 0.84067l0.13271 0.53667c0.0072989 0.016 0.025214 0.036667 0.033177 0.053333-0.17982 0.14467-0.37822 0.31333-0.63102 0.53867l-0.3749 0.33333c-0.34438 0.308-0.62306 0.55533-0.89909 0.78667 0.41936-0.69 0.74913-1.6893 0.84601-2.43v-0.0026666z" fill="#fff"/>
<path id="Path" d="m0.64297 43.153c0-8.948 7.2226-16.2 16.124-16.2 8.9086 0 16.132 7.2547 16.132 16.2 0 8.9453-7.2233 16.2-16.132 16.2-8.9013 0-16.124-7.2513-16.124-16.2z" fill="#f00"/>
<path id="Path" d="m2.5958 43.153c0-7.8667 6.3547-14.247 14.187-14.247 7.8324 0 14.182 6.3793 14.182 14.247s-6.354 14.243-14.182 14.243c-7.8284 0-14.187-6.3753-14.187-14.243z" fill="#fff"/>
<path id="Path" d="m3.6495 43.152c0-7.2873 5.8829-13.196 13.138-13.196 7.2551 0 13.125 5.9107 13.125 13.196s-5.8823 13.194-13.13 13.194c-7.2478 0-13.133-5.906-13.133-13.194z" fill="#f00"/>
<path id="Path" d="m51.869 30.407c-0.041784-0.018531-0.08864-0.022062-0.13271-0.01-0.037158 6e-3 -0.072326 0.011333-0.090241-0.0046666-0.017952-0.024275-0.025372-0.054812-0.02057-0.084667 0.023846-0.22976 0.097695-0.45144 0.21631-0.64933 0.031683-0.068254 0.034082-0.14658 0.0066354-0.21667-0.018205-0.038627-0.053736-0.066145-0.095549-0.074-0.078905-0.011673-0.15797 0.020152-0.20702 0.083333-0.016588 0.02-0.037158 0.031333-0.047775 0.027333-0.010616-4e-3 -0.0086259-0.018667-0.0086259-0.024667 0.0079624-0.14733 0.082278-0.34067 0.16124-0.54533 0.056239-0.13918 0.1054-0.28114 0.14731-0.42533 0.019537-0.061185-0.0034359-0.12798-0.056401-0.164-0.068983-0.043853-0.15762-0.040946-0.22361 0.0073334-0.13271 0.086-0.2548 0.30333-0.37224 0.51333-0.14067 0.25-0.28532 0.50867-0.43329 0.50867h-0.017252c-0.04313-0.0046667-0.053746-0.05-0.066354-0.12333-0.0041885-0.068312-0.03296-0.13276-0.080952-0.18133-0.023207-0.019544-0.053691-0.028052-0.083606-0.023333-0.045544 0.011344-0.084283 0.041322-0.10683 0.082667-0.96478 1.564-2.0324 3.0167-3.2998 3.0493-0.61377-0.056-0.81283-0.36933-1.1147-0.84467-1.1021-1.7653-2.3887-3.2873-4.0423-4.7887-1.4903-1.3507-3.114-2.5333-4.9281-3.834-0.34504-0.28533-0.80951-1.0187-1.3563-1.872-0.78695-1.23-1.6794-2.624-2.5168-3.2173-0.65093-0.472-1.3417-0.722-2.0729-0.986-0.91701-0.33333-1.8645-0.67533-2.7205-1.496-0.35367-0.34733-0.65624-0.792-0.97673-1.2627-0.6569-0.964-1.4744-2.164-3.1664-3.1633-0.034504-0.021333-0.009953-0.16333 0.02057-0.34267 0.078961-0.45667 0.22494-1.306-0.18712-2.2-0.033143-0.074686-0.093432-0.13383-0.16854-0.16533h-0.0039812c-0.89909-0.14867-1.775 0.496-2.1963 0.80533-0.076162 0.063625-0.15892 0.11883-0.24684 0.16467v-8e-3c0.55206-3.7553 3.3781-6.1027 4.7363-7.2307 0.495-0.41133 0.76771-0.638 0.73653-0.756-0.066354-0.28733-0.42201-0.30467-0.73719-0.32l-0.071662-0.0033333c-0.2966-0.0053333-1.8201 0-2.7716 0.81467-0.8553 0.18467-1.4598 0.8-1.7424 1.3147-0.52021 0.25867-1.2441 0.69267-1.55 1.4853-0.50562 0.24333-0.90573 0.71467-1.1147 1.0347 0.65624-1.7607 2.1233-3.2307 2.5964-3.6167 0.092232-0.085333 0.12541-0.192 0.085596-0.278-0.050429-0.10933-0.19906-0.158-0.40741-0.13333-0.96412 0.14867-1.5076 0.4-1.8732 0.6l-0.088914 0.054c-0.35964 0.21667-0.90307 0.54467-1.2813 1.412-0.66354 0.46667-0.98336 0.938-1.0378 1.526-0.52734 0.23874-0.84674 0.78642-0.79624 1.3653-0.46448 0.45933-0.66354 0.918-0.63301 1.4433-0.15966 0.15818-0.29058 0.34319-0.38684 0.54667-0.41416-0.68929-1.1125-1.1573-1.905-1.2767-0.15925 0-0.35831-0.0066667-0.48969 0.126v0.0053333c-0.037158 0.081333 0.013271 0.154 0.070998 0.238 0.040354 0.055573 0.074406 0.1155 0.10152 0.17867 0.097964 0.22619 0.15115 0.46938 0.15659 0.716 0.0096806 0.16433 0.028956 0.32794 0.057728 0.49 0.16522 0.892 0.55936 1.2533 1.1393 1.7013 0.063036 0.066667 0.034504 0.11933-0.024551 0.21733l-0.0066354 0.011333c-0.34371 0.80667-0.17451 1.33-0.01128 1.836 0.023224 0.072667 0.046448 0.14533 0.066354 0.21667 0.12143 0.86667-0.42864 3.0253-0.43395 3.0473-0.017916 0.066667-0.048438 0.16533-0.084269 0.276-0.18911 0.59133-0.54078 1.692-0.27072 2.7467 0.11944 0.4 0.44921 0.902 0.84933 1.0953 0.10152 0.044 0.19442 0.079333 0.28466 0.11333 0.32712 0.12467 0.58657 0.22333 0.82478 0.60867 0.38684 0.59667 0.22361 2.5527 0.17716 2.89 0.0012287 0.055328 0.036347 0.10414 0.08825 0.12267 0.036494 0.014667 0.13271 0.034667 0.25082-0.092667 0.42302-0.43628 0.73132-0.97147 0.8971-1.5573 0.10189-0.35676 0.16092-0.72448 0.17584-1.0953 0-0.033333 0-0.066667 0.0053082-0.086 0.20437 0.33333 0.23556 0.87333 0.26541 1.35 0.023887 0.4 0.043793 0.742 0.1692 0.85133 0.037953 0.024793 0.086406 0.026586 0.12607 0.0046666 0.35831-0.15933 0.98602-1.5087 1.138-2.6667 0.21963-1.6893 0.43926-2.546 0.65358-2.546h0.0079625c0.11479 0.0093333 0.12806 0.364 0.13802 0.62333 0 0.053333 0.0039812 0.10467 0.0066354 0.15133 0.033177 0.61 0.12873 0.634 0.42267 0.61933h0.078961c0.21565 0.017333 0.23157 0.248 0.24352 0.416v0.014c0.021897 0.28267 0.19906 0.4 0.37423 0.508 0.031186 0.02 0.061709 0.04 0.089578 0.059333 0.089577 0.083333 0.10484 0.21333 0.12143 0.35133 0.0082418 0.11603 0.035131 0.22995 0.079624 0.33733 0.067855 0.17541 0.2029 0.31614 0.3749 0.39067h0.0059718c0.041139 0 0.075643 0.021333 0.078297 0.037333 0.0026541 0.016-0.011944 0.022-0.032513 0.031333-0.22096 0.045333-0.54078 0.306-1.1751 0.87133-0.13271 0.12-0.26011 0.23267-0.37822 0.338-1.1605 1.038-1.5958 1.4273-3.601 2.628-3.6249 0.54933-6.0442 1.8667-6.1629 3.3567v0.010667l0.010617 0.0053333c0.71197 0.346 1.8513 0.13933 2.4989-0.25 0.28267-0.17 0.44391-0.362 0.45651-0.54267 0.27802-0.17333 0.91303-0.39067 1.1798-0.46667 0.021154-0.0092761 0.045199-0.0092761 0.066354 0 0.025214 0.017333 0.029196 0.066667 0.03384 0.13 0.0099531 0.12933 0.023224 0.306 0.26541 0.32133h0.057064c0.48571-0.024667 0.98801-0.05 1.4631-0.30133l0.081615-0.046c0.25812-0.14733 0.46448-0.26667 0.65358-0.30333h0.0059718l0.027205-0.034c5.3028 3.793e-4 10.266 2.6229 13.271 7.0127 0.15326 0.23648 0.32618 0.4595 0.5169 0.66667 0.16235 0.17368 0.33711 0.33522 0.52287 0.48333 0.059718 0.084 0.12143 0.044 0.17053 0.011333 0.037158-0.024667 0.072326-0.048 0.11015-0.033333 0.36295 0.13667 0.50296 0.54 0.60581 0.83467 0.062372 0.17933 0.10749 0.30933 0.18579 0.30933 0.084496-0.014531 0.16011-0.061358 0.211-0.13067 0.039446-0.042733 0.086768-0.077372 0.13934-0.102h0.023224c0.20968 0 0.39812 0.224 0.56069 0.42267 0.14664 0.17667 0.28598 0.344 0.42864 0.344h0.012607 0.0072989c0.097874-0.062473 0.16378-0.16471 0.18048-0.28 0.014598-0.062667 0.023224-0.095333 0.059055-0.106 0.11147-0.034 0.18513 0.042667 0.27869 0.14 0.063244 0.07401 0.13893 0.13629 0.22361 0.184h0.0059719c0.28598 0.03 0.35632 0.192 0.43196 0.36333 0.028647 0.075228 0.067499 0.14612 0.11546 0.21067 0.17716 0.27067 0.38751 0.26667 0.65358 0.258 0.20968-0.0053333 0.44656-0.011333 0.72989 0.11267 0.51026 0.236 0.59254 0.77933 0.67283 1.3047 0.018579 0.12067 0.035831 0.23467 0.058391 0.34533 0.03402 0.14029 0.11959 0.26246 0.23954 0.342 0.091756 0.060429 0.16159 0.14907 0.19906 0.25267 0.068955 0.22872 0.11584 0.46358 0.14001 0.70133 0.04512 0.33333 0.080952 0.6 0.21897 0.658 0.044931 0.016867 0.094412 0.016867 0.13934 0 0.049745-0.016672 0.10353-0.016672 0.15328 0 0.031186 0.017333 0.059718 0.16867 0.087587 0.31533 0.057064 0.296 0.13271 0.70133 0.33641 0.86 0.049613 0.022275 0.10632 0.022275 0.15593 0 0.048648-0.021239 0.10424-0.019279 0.15129 0.0053333 0.20503 0.108 0.27006 0.376 0.29129 0.52733 0.034504 0.17267 0.17385 0.21733 0.30921 0.26067 0.09754 0.031333 0.19906 0.066667 0.26011 0.148 0.12474 0.13333 0.25944 0.38 0.39016 0.61733 0.15195 0.27667 0.29527 0.538 0.43064 0.64933h0.0059718c0.042768 0.018978 0.092915 0.0033226 0.11745-0.036667 0.021897-0.027333 0.040476-0.050667 0.11678-0.033333 0.076307 0.017333 0.74117 0.83133 1.3702 2.012 0.56268 1.0553 1.211 2.6273 1.1028 4.124-0.1128 1.628-0.79624 2.4867-1.2043 3-0.29328 0.36733-0.3258 0.8-0.32447 1.1 0.02256 0.254 0.12209 0.31667 0.31982 0.442l0.011944 0.0073333c0.13271 0.066667 0.61908 0.27067 1.3563-0.038667 0.53813-0.22533 0.64297-0.596 0.74382-0.95467 0.066354-0.23733 0.13271-0.462 0.31452-0.64067 0.31452-0.30733 0.64164-0.70867 0.68411-1.358 0.045784-0.63133-0.17915-1.566-0.42931-2.482-0.11944-0.44533-0.45983-2.432-0.15129-3.4133 0.016588-0.048667 0.041803-0.078667 0.072326-0.084s0.080952 0.020667 0.12806 0.078667c0.71529 0.66667 1.3111 1.684 1.5971 2.1733l0.080288 0.13733v4e-3c0.26541 0.45 1.0617 1.8193 0.87122 3.1333-0.13271 0.79333-0.38817 1.2667-0.63832 1.7273-0.24418 0.44733-0.49633 0.91-0.63567 1.6667-0.066354 0.38133 0.027205 0.70133 0.26077 0.9 0.18362 0.14572 0.41316 0.22046 0.64695 0.21067 0.21424-0.0035047 0.42639-0.042936 0.62771-0.11667 0.71662-0.26067 1.2421-1.2187 1.3702-2.498 0.015812-0.065952 0.067065-0.11745 0.13271-0.13333 0.081872-0.031862 0.1546-0.08363 0.21167-0.15067 0.15527-0.17667 0.18446-0.4 0.096213-0.74667-0.64098-2.6-0.61178-3.5207-0.58059-4.4973 0.02613-0.53782 0.016599-1.0768-0.028532-1.6133-0.030972-0.28171-0.1515-0.54588-0.34371-0.75333-0.10852-0.14528-0.22881-0.2813-0.35964-0.40667-0.31916-0.32733-0.71596-0.73333-0.82743-1.2-0.28001-1.1713-0.10019-3.0047 0.072989-4.778 0.18513-1.9 0.37755-3.8667 0.019906-5.074-0.029859-0.11133-0.037158-0.17467-0.021233-0.18867 0.015925-0.014 0.070335 0.011333 0.13271 0.036667 0.093264 0.044212 0.19152 0.076895 0.29262 0.097333 2.5606 0.37067 3.7231-2.296 4.161-3.3l0.073653-0.168c0.06569-0.18067 0.1128-0.37333-0.043793-0.44533z" fill="#000"/>
<path id="Path" d="m16.335 6.496c0.25413-0.31933 0.76638-0.46667 0.74382-0.568-0.044457-0.093333-0.23489-0.0093333-0.37689 0-0.060382 0.0093333-0.14133-0.0053333-0.13271-0.076667 0.2402-0.84333 1.0617-0.99467 1.3092-1.262 0.029196-0.052 0-0.052-0.066354-0.088-0.13271-0.0053333-0.33708 0.13733-0.33708 0.013333 0.099531-0.84133 1.1194-1.248 1.3111-1.3147 0.049102-0.044 0.0046448-0.102-0.059055-0.11267-0.086923 0.010667-0.15726 0.066667-0.1692-0.043333 0.098867-0.41667 0.65226-0.75133 1.0092-0.92933 0.36428-0.15 1.0849-0.37267 1.0849-0.26133 0 0.044-0.56533 0.32-0.75179 0.6-0.15527 0.23133-0.2966 0.382-0.30788 0.74667-0.57993 0.28533-0.8626 0.92933-0.9044 1.5433-0.41007 0.212-0.72458 0.95933-0.58988 1.2667-0.47244 0.462-0.70534 1.128-0.67946 1.796-1.0238 1.346-0.7206 1.858 0.40808 2.2747 0.16721 0.054 0.3258 0.066667 0.35765-0.016667 0.03185-0.083333-0.09754-0.12933-0.14797-0.246-0.61444-1.3733 0.15925-2.0613 1.2395-2.524 0.084933-0.040667 0.021233-0.13733-0.1055-0.13333-0.29196 0-0.55405 0.072-0.58988-0.022-0.15792-0.44867 1.0019-1.378 1.5732-1.5547 0.24219-0.072 0.14001-0.19533 0.039812-0.178-0.15261-0.014-0.38883 0.075333-0.46448-0.12467 0.14598-0.50667 1.5361-1.178 1.7405-1.2987 0.12607-0.079333 0.17849-0.22333-0.43594-0.097333-0.057728 8e-3 -0.12076 8e-3 -0.094222-0.076 0.11678-0.36467 1.418-0.876 2.0795-1.1067 0.10418-0.048667 0.13271-0.21267-0.17783-0.15133-0.1128 0.017333-0.31982 0.092667-0.35964 0.0093333 0.039812-0.49467 1.4777-0.87533 1.9906-0.988 0.11612-0.038667 0.13735-0.10533 0.036495-0.15467-0.16389-0.049333-0.42201 0.08-0.32381-0.092667 0.38684-0.24533 1.4107-0.24933 1.7657-0.19133 0.098867 0.018 0.12209 0.04 0.13271 0.061333-0.11015 0.25867-1.8307 0.76467-2.0437 1.8047-0.5169 0.216-1.0212 0.70933-1.0809 1.1333-0.27139 0.14667-0.81416 0.59533-0.84601 1.214-0.29594 0.22133-1.0729 0.91467-0.81482 1.7553-0.41471 0.39133-0.7352 0.79067-0.71927 1.888 0.0059719 0.378-0.48305 0.992-0.98668 1.1333-0.14266 0.057333-0.08626 0.17267 0.015925 0.2 0.84535 0.25 1.6303-0.21 1.9369-0.50333 0.9754-0.93333 1.6257-1.27 2.0643-1.3247 0.079624-0.021333 0.079624 0.036667 0.092895 0.081333 0.14713 0.54844 0.14713 1.1262 0 1.6747-0.27736 1.0447-1.0729 1.5293-1.2985 1.8147-0.039812 0.04 0.11147 0.484 0.030523 0.71133-0.091568 0.28867 0.011944 0.46667 0.11745 0.51067 0.28797 0.10733 0.49234-0.97333 0.66354-0.946 0.13934 0.0073333 0.11546 0.244 0.28134 0.32867 0.08825 0.030667 0.21631 4e-3 0.23157-0.094667 0.021233-0.30133 0.13271-1.0393 0.2057-1.1187 0.052419-0.066667 0.21631 0.26667 0.2256 0.47067 0.011944 0.84067-0.4585 1.5553-0.18247 2.1333 0.061045 0.12467 0.19906 0.11467 0.2966 0.022667 0.25214-0.272 0.42533-1.2587 0.98668-1.3833 0.7571-0.168 1.5056 1.916 0.97208 2.4727-0.25812 0.22067-0.58391 0.026-0.90506 0.20467-0.34504 0.20333-0.31584 0.97667-0.55206 1.2973-0.14001 0.142-0.30655 0.16533-0.63102 0.19133-0.68676 0.053333-0.47708 2.0227-0.37158 2.374 0.066354 0.20867 0.21366 0.168 0.31054 0.097333 0.098203-0.084 0.17385-0.48933 0.19375-0.86667 0.027868-0.11933 0.23622-0.16667 0.38551-0.314 0.16124-0.12533 0.076307-0.26333 0.17385-0.386 0.14001-0.15733 0.27736-0.018667 0.39149-0.194 0.29594-0.24667 0.085596-0.63467 0.32447-0.8 0.35101-0.232 0.66354-0.116 0.97407-0.458 0.19044-0.21267 0.21499-0.66267 0.48173-0.73867 1.4213-0.034667 2.8346 1.61 3.0768 2.0987 0.70269 1.4613-0.42201 3.6667 0.34703 4.09 0.96744 0.56467 0.75776 1.662 0.65226 1.9373-0.20503 0.55933-1.7551 1.274-1.9541 2.5707-0.10019 1.2453 0.54609 0.98733 0.59187 0.832 0.045784-0.15533 0.092895-0.36 0.1692-0.51533 0.061709-0.138 0.25082-0.077333 0.27271 0.056667 0.036494 0.11667 0.30257 0.44933 0.69605-0.284 0.24816-0.46667 0.91568-1.0667 1.416-1.4133 0.50031-0.34667 0.61045-1.4487 0.69605-1.6993 0.066354-0.216 0.24551-0.216 0.27271-0.44867s-0.43064-1.0347-0.16323-1.6047c0.12408-0.19 0.424-0.32467 0.64828-0.062667 0.23489 0.27333-0.14531 1.1667 0.28001 1.1873 0.36295 0.01 0.40277-0.418 0.71662-0.39 0.32115 0.062-0.25613 1.2407 0.060382 1.422 0.19375 0.08 0.43661-0.013333 0.53547 0.18133 0.089577 0.32533-0.48969 0.91733 0.0092895 0.91733 5.2924-0.094 7.2259 4.0893 6.8862 4.8533-0.15859 0.29-0.79624-0.142-0.88848 0.15133-0.48305 1.6367 0.60846 2.8767 0.92497 3.09 0.092895 0.053333 0.25944-0.022 0.24684-0.22733-0.053083-0.46667-0.31054-0.716-0.25878-1.1773 0.089578-0.814 1.8971-0.312 1.9906 0.30667 0.035168 0.232 0.048438 0.422 0.25148 0.61733 0.25745 0.24467 0.87454-0.031333 0.93426 0.51 0.078961 1.0513-1.2256 1.1113-2.128 1.762-0.43064 0.33333-0.33177 0.56467 0.031186 0.684 0.43395 0.116 1.128-0.0086667 1.479 0.50733 0.49832 0.71667-0.15659 2.2133-0.19442 2.8447-0.037822 0.63133 1.1048 2.512 1.128 3.4667 0.082278 0.47667-0.24485 0.73333-0.64761 0.342-0.3895-0.40867-0.79624-1.0393-1.0982-1.512-0.087587-0.14867-0.3185-0.15867-0.31319 0.14733-0.0053082 0.828 3.8943 5.926 3.9932 6.7613 0.089577 0.44067-0.15394 0.81333-0.050429 1.2407 0.03384 0.12533 0.19375 0.054 0.20702 0.15333 0.021233 0.28333-0.26541 0.71267 0.142 0.918 0.20238 0.56 0 0.794 0.1055 1.258 0.053083 0.462 0.27072 1.1027 0.31982 1.57-0.10948 1.3153-0.61112 1.8273-1.0106 2.0233-0.34438 0.17267-0.48637-0.138-0.45519-0.40667 0.090904-0.79533 0.96876-2.2073 0.61842-3.8-0.89777-4.0887-5.2579-6.992-5.9858-8.5473-0.23356-0.58667-1.0696-0.65267-1.1174-1.3413-0.083606-0.22267-0.30324-0.156-0.49035-0.36-0.15726-0.17867-0.15129-0.716-0.32049-1.1093-0.049765-0.12333-0.19906-0.061333-0.31518-0.18-0.61908-0.81933-0.48637-4.8193-1.0391-5.366-0.40741-0.22867-0.72392 0.40667-1.2315 0.46067-0.38751 0.04-1.0291-0.92867-1.2647-0.684-0.19044 0.19133-0.10816 0.684-0.092895 0.76067 0.015261 0.076667 0.11678 0.40933-0.015261 0.40933-0.11877 0.0046667-0.28864-0.24067-0.78032-0.44133-0.32779-0.11933-0.63832 0-0.78961-0.098667-0.33509-0.36267 0.011944-1.1273-0.5514-1.3453-0.15726-0.061333-0.18579-0.46667-0.26541-0.62733-0.077634-0.11467-0.23821-0.106-0.3112-0.19533-0.1611-0.25692-0.27232-0.54217-0.32779-0.84067-0.057728-0.22333-0.57131 0.054667-0.61112-0.29733-0.049765-0.236-0.32447-0.31-0.53746-0.34667-0.25944-0.031333-0.15062-0.604-0.37623-0.69867-0.096213-0.044-0.13271 0.066667-0.23224 0.014667-0.10351-0.12933-0.084933-0.25333-0.21631-0.34667-0.11147-0.076667-0.22096 0.052-0.30191-0.040667-0.32845-0.4-0.066354-1.0727-0.23755-1.2707-0.1128-0.124-0.30655 0.013333-0.47708-0.13333-0.16721-0.12733-0.19442-0.338-0.29395-0.368-0.29129-0.0053333-0.39348-0.058667-0.51225-0.20467-0.53083-0.74667-0.47177-1.6053-0.65358-1.9113-0.11877-0.2-0.29726-0.32533-0.4313 0.052667-0.26541 0.64933-0.23887 3.072-1.0119 3.4-0.59718 0.29333-1.128-0.738-1.4213-0.92133-0.13271-0.07-0.1546 0.148-0.24883 0.15667-0.27139-0.10667-0.21034-0.43133-0.42997-0.56-0.213-0.093333-0.12275 0.20867-0.24485 0.182-0.21167-0.19533-0.21167-0.71933-0.39812-0.81267-0.15129-0.058667-0.24086 0.11933-0.32779 0.044-0.30589-0.26667-0.091568-0.86267-0.46116-1.05-0.15925-0.052-0.13602 0.21867-0.30058 0.142-0.15726-0.058-0.13271-0.902-0.62173-0.82133-0.072989 0.0086667-0.049102-0.10733-0.09953-0.15133-0.14598-0.018667-0.24684 0.18533-0.39812 0.053333-0.14067-0.19454-0.30901-0.36727-0.49964-0.51267-0.20636-0.176-0.51358 0.046667-0.76838-0.14467-0.89777-0.39667-2.9554 1.182-3.883 2.1067-0.33774-0.31667-0.79624 0.017333-1.1778 0.056667-0.13802 0.032-0.57064 0.014-0.23157-0.456 0.84136-0.89533 1.4558-0.85067 3.0403-1.9887 1.1592-0.85333 2.1983-1.6847 2.5719-1.9293 0.30788-0.15933 0.79624-0.29333 1.209 0.25 0.57993 0.76 1.8738 2.0353 2.4246 2.2853 1.1333 0.49267 1.1897-0.37933 1.3271-0.68133 0.12076-0.306 0.19906-0.052667 0.18911 0.23733 0 0.18933 0.066354 0.45533 0.22228 0.482 0.30987 0.036667 0.31385-0.2 0.35831-0.35 0.35367-1.4 1.7252-3.084 2.2673-2.738 0.39812 0.25333 0.63102 0.25333 0.72458-0.22667 0.10351-0.61867-0.37092-1.1867-0.49898-1.8373-0.13271-0.75467-0.050429-1.746-0.33774-1.8833-0.16655-0.072667-0.39812 0.092-0.52618 0.27467-0.17252 0.23133-0.17252 0.476-0.23157 0.75667-0.028532 0.15467-0.65358 0.32467-0.72392 1.138-0.0059718 0.14667-0.24352-0.14667-0.41272 0-0.34769 0.26667-0.28532 1.5867-0.39812 1.662-0.13271 0.013333-0.28731-0.13333-0.33973 0.057333 0.027869 0.214-0.089577 0.72933-0.19176 0.76933-0.085596 0.026-0.1765-0.079333-0.29726-8e-3 -0.29992 0.25267-0.17849 0.6-0.46779 0.93733-0.1765 0.21867-0.29726 0.066667-0.31717-0.126-0.042466-0.326-0.30257-0.81667-0.53083-1.0487-0.66752-0.692-0.25546-1.848-1.199-2.3287-0.28333-0.142-0.29992-0.28-0.33177-0.53333-0.010616-0.28133-0.17186-0.476-0.31717-0.51333-0.26011-0.075333-0.30456-0.21733-0.31518-0.4 0.023224-0.49333-0.34238-0.51467-0.53746-0.556-0.46049-0.044-0.47576-0.13333-0.33177-1.2893 0.042466-0.27867 0.044457-0.6-0.044457-0.862-0.24086-0.35667-0.76904-0.12867-0.69605-0.71067 0.055074-0.38267 0.73719-0.88067 1.0285-1.196 0.17584-0.2 0.28864-0.71533-0.31982-0.59067-1.3821 0.36933-2.4843 2.83-2.7444 3.302-0.99995 1.8407-1.8685 2.5747-2.682 2.858-0.38021 0.13333-1.6973 0.25733-1.9661-1.0387-0.13868-0.68133 0.027869-1.3213 0.33575-2.388 1.335-4.6627-0.15593-3.774 0.57396-5.3273 0.46978-0.52733 1.1373-0.45533 1.8141-0.53733 0.14996-0.02 0.096876-0.216 0.060382-0.274-0.036494-0.058-0.18446-0.12067-0.39281-0.15933-0.20835-0.038667-0.65093-0.432-0.69008-0.85867-0.038485-0.46667 0.26143-0.75667 0.45983-0.96 0.28333-0.28133 0.48704-0.312 0.49168-0.37333-0.017252-0.24867-0.53879 0.10067-0.58458 0-0.10882-0.39 0.211-0.74533 0.42201-0.99533z" fill="#fff"/>
<path id="Path" d="m14.893 8.9233c-0.017916 0.16933-0.017916 0.43133 0.20702 0.97467-0.22494 0.030667-0.36096 0.23-0.55803 0.12-0.61377-0.33733-0.95881-0.966-1.1579-1.6-0.12873-0.36533-0.11678-0.8-0.31916-1.1287 1.0617 0.07 1.84 1.5107 1.828 1.634z" fill="#fff"/>
<path id="Path" d="m23.468 9.0927c0.056401-0.017333 0.076307 0.021333 0.076307 0.044667-0.044457 0.76067-0.84734 2.2807-1.8924 2.5513-0.061045 0.013333-0.09953 0.0053333-0.12076-0.052667-0.094886-0.52933 0.23622-1.428 1.0862-1.756 0.42068-0.164 0.61908-0.44533 0.85065-0.78733z" fill="#000"/>
<path id="Path" d="m19.951 12.08c0.049102 0.19533 0.012607 0.20867-0.15261 0.098-0.54675-0.57467-1.0119-0.42733-1.3437-0.25267-0.16124 0.066667-0.21034 0.061333-0.16323-0.085333 0.50296-0.77333 1.4193-0.39133 1.6595 0.24z" fill="#000"/>
<path id="Path" d="m17.113 12.186c0.27537 0.4 0.15527 1.0147-0.082942 1.4773-0.18911 0.35467-0.49964 0.92467-0.62041 1.1733-0.050429 0.14933-0.15859 0.16-0.24949 0.11933-0.090241-0.018 0.33177-0.72933 0.45585-1.5633 0.048438-0.342-0.041803-0.842 0.2057-1.2147 0.08626-0.124 0.213-0.084 0.29129 8e-3z" fill="#000"/>
<path id="Path" d="m19.424 12.56c0.19906 0.46333-0.28864 0.69-0.57462 0.74667-0.19906 0.036-0.35035-0.021333-0.51955-0.13333-0.093559-0.066667-0.04313-0.11667-0.11745-0.15133-0.15261-0.0093333-0.11612 0.088667-0.28134 0.12733-0.11346 0.014-0.12342-0.038667-0.046448-0.15467 0.18579-0.31067 0.28665-0.52933 0.59254-0.65333 0.28532-0.11467 0.69937-0.23467 0.94687 0.21867z" fill="#000"/>
<path id="Path" d="m17.822 14.507c0.23755 0.93333 0.062372 1.29-0.15062 1.512-0.078961 0.072-0.57661 0.16067-0.64164-0.48 0.24883-0.30133 0.40144-0.75933 0.55074-1.0847 0.10418-0.20867 0.16987-0.22267 0.24153 0.052667z" fill="#000"/>
<path id="Path" d="m15.978 17.077c-0.10749 0.58267-0.3457 0.87933-0.75842 0.97267-0.4804 0.058667-0.68543-0.476-0.62372-0.47267 0.46846 0.086 0.96213-0.18133 1.2574-0.56267 0.071662-0.102 0.142-0.031333 0.12474 0.062667z" fill="#000"/>
<path id="Path" d="m39.571 26.11c0.26541 0.085333 0.37623 0.35933 0.28333 0.51533-0.10948 0.25333-0.33177 0.42667-0.33973 0.67067-0.0046448 0.20467-0.041139 0.32933-0.20304 0.382-0.29859 0.032-0.47244-0.59133-0.74051-0.15867-0.14598 0.222-0.44656 0.070667-0.48571-0.053333-0.052419-0.192-0.16787-0.38733-0.35964-0.396-0.6224-0.018-0.77634-1-0.67681-1.262 0.47974-1.1347 1.6608 0.0033333 2.5221 0.302z" fill="#000"/>
<path id="Path" d="m15.074 25.923c-0.307 0.23918-0.55647 0.54473-0.72989 0.894-0.39281 0.062-1.0278 0.32933-1.4817 0.53333-0.16721 0.088-0.80553 0.13667-1.3815 0.204-0.08825-0.0086667-0.10948-0.062667-0.10948-0.13333-0.045784-0.44 2.6634-1.5507 3.7025-1.658 0.094222 6.666e-4 0.15129 0.045333 0 0.16z" fill="#fff"/>
<path id="Path" d="m50.827 31.551c0.084269 0.222-0.1493 0.502-0.39281 0.77267s-1.274 1.014-2.1366 0.974c-0.23821-0.035333-0.49699-0.29933-0.41604-0.618 0.083606-0.27133 0.91568-0.342 1.5547-0.564 0.46448-0.16 0.68809-0.25867 1.057-0.54333 0.22892-0.17667 0.282-0.070667 0.33376-0.021333z" fill="#fff"/>
<path id="Path" d="m43.465 47.781c0.15659 0.0053333 0.13271-0.048 0.27072 0 0.12076 0.0053333 0.11745 0.53 0.10086 0.8-0.029196 0.16933-0.066354 0.454 0.10816 0.58333 0.15859 0.13733-0.20901 0.64 0.056401 0.884 0.14664 0.20467-0.16456 0.74067 0.073653 1.036 0.10636-0.0090662 0.20882 0.042408 0.26541 0.13333-0.10152 0.62067 0.17517 1.6 0.077634 1.8813-0.27072 0.42733-0.47377 0.384-0.70401 1.0867-0.34836 0.67867-1.3271 0.25533-1.1366-0.29267 0.6934-1.18 0.94819-2.492 0.98469-3.0667 0.11546-1.488-0.66354-3.8547-0.75112-4.184-0.018579-0.29733 0.04512-0.476 0.27869-0.20867 0.34504 0.54267 0.22029 1.3167 0.37556 1.3473z" fill="#fff"/>
<path id="Path" d="m18.168 35.129-0.03185 0.14267-0.90905-1.36c-0.025878 0.32933-0.3822 4.752-0.3822 4.752h-0.12342s-0.34703-4.4213-0.37291-4.752c-0.15726 0.236-0.91037 1.36-0.91037 1.36s-1.5573-7.2-1.6688-7.722c-0.11346 0.52-1.6701 7.722-1.6701 7.722s-0.75245-1.1253-0.91037-1.36c-0.027868 0.348-1.6005 20.2-1.6005 20.2v0.024c2.1326 1.4148 4.6325 2.1677 7.1881 2.1647h0.019243c2.5562 0.0030473 5.0566-0.75079 7.1888-2.1673v-0.028l-1.5925-20.194c-0.15859 0.236-0.91104 1.36-0.91104 1.36l-1.6761-7.722c-0.11147 0.51733-1.6369 7.58-1.6369 7.58z" fill="#fff"/>
<path id="Path" d="m24.046 54.106-1.6097-20.377-0.92895 1.3867-1.7026-7.8587-1.698 7.8587-0.92895-1.3867-0.39812 4.93-0.38618-4.93-0.92895 1.3867-1.6947-7.8587-1.7006 7.8587-0.92895-1.3867-1.6144 20.377v0.066667c2.1491 1.4318 4.6712 2.1941 7.2498 2.1914h0.019242c2.5793 0.0045397 5.1023-0.75792 7.2511-2.1914v-0.066667z" fill="#000"/>
<polygon id="Path" points="30.486 42.43 28.416 35.237 2.8691 42.455 4.4497 49.781" fill="#fff"/>
<polygon id="Path" points="7.6751 42.029 11.025 40.984 10.435 47.317 8.0951 47.977 8.4933 43.67 7.4867 44.02" fill="#f00"/>
<path id="Path" d="m13.921 45.417c-0.059718 0.65667-0.75311 1.216-1.3788 1.408-0.637 0.166-1.2508-0.017333-1.1891-0.68067 0.062372-0.688 0.75643-1.2667 1.3855-1.432 0.62439-0.17933 1.2421 0.024667 1.1824 0.70467z" fill="#f00"/>
<polygon id="Path" points="15.464 39.733 19.805 38.499 19.641 40.325 17.665 40.867 17.609 41.533 19.344 41.049 19.186 42.681 17.454 43.175 17.244 45.391 14.863 46.067" fill="#f00"/>
<path id="Path" d="m25.397 39.432c-0.34703-0.234-0.79624-0.38733-1.3317-0.23933-0.70733 0.2-1.3377 0.90333-1.4047 1.5947-0.067017 0.69133 0.49964 1.0587 1.2037 0.85867 0.5441-0.15067 0.99531-0.49733 1.408-0.97l-0.29262 2.3907c-0.39149 0.28333-1.2773 0.60467-1.6987 0.724-1.8546 0.52133-3.1717-0.472-3.0025-2.272 0.17053-1.8493 1.8042-3.748 3.7112-4.2907 0.50447-0.15064 1.0314-0.21089 1.5567-0.178l-0.1493 2.382z" fill="#f00"/>
<path d="m15.168 47.867c-0.023887 0.252-0.19906 0.496-0.39812 0.57-0.18513 0.044-0.3185-0.12467-0.29926-0.37867 0.019242-0.254 0.18844-0.502 0.37954-0.54067 0.19773-0.078667 0.3384 0.096 0.31783 0.34933zm1.0079-0.29267c-0.017916 0.25733-0.19309 0.50133-0.38684 0.56733-0.19375 0.066-0.32049-0.11467-0.30324-0.35933 0.017252-0.24467 0.18844-0.49733 0.38419-0.55733 0.19574-0.06 0.33177 0.098667 0.30589 0.348v0.0013333zm0.66354 2.6667c-0.11081 1.3413-0.95947 2.3767-1.9243 2.6413s-1.6821-0.32667-1.5686-1.6667c0.10749-1.3093 0.96412-2.378 1.9243-2.6507 0.96014-0.27267 1.6741 0.36867 1.5693 1.6753l-6.636e-4 6.667e-4zm-2.3416 0.674c-0.041803 0.48467 0.17982 0.738 0.52154 0.65067 0.34504-0.098 0.61908-0.498 0.66022-0.964 0.041139-0.466-0.15991-0.766-0.52154-0.658-0.36163 0.108-0.61842 0.53667-0.65956 0.97067l-6.635e-4 6.667e-4z" fill="#fff"/>
<polygon id="Path" points="17.415 48.029 18.56 47.719 18.326 50.549 19.285 50.283 19.176 51.626 17.069 52.203" fill="#fff"/>
<path id="b" d="m19.82 47.354 1.1028-0.294 0.83672 2.0287h0.025878c-0.021152-0.35075-0.022703-0.70241-0.0046447-1.0533l0.11015-1.2493 1.0942-0.304-0.34637 4.17-1.0982 0.30333-0.82146-1.9067-0.044457 8e-3c0.019907 0.27364 0.019907 0.54836 0 0.822l-0.11147 1.3613-1.0862 0.29667 0.34305-4.1827z" fill="#fff"/>
<path d="m10.55 49.951 1.1121-0.312-0.18314 1.822 0.026542-0.0073333c0.051303-0.17899 0.1179-0.3532 0.19906-0.52067l0.66354-1.4947 1.2508-0.34667-1.1532 2.308 0.91833 1.8453-1.3271 0.37333-0.44523-1.122c-0.053083-0.13733-0.13735-0.26667-0.14067-0.42533l-0.031186 8e-3 -0.12408 1.746-1.1121 0.30333 0.34637-4.1773z" fill="#fff"/>
</g>
</g>
</svg>
