<?xml version="1.0" encoding="UTF-8"?>
<svg version="1.1" viewBox="0 0 80 80" xmlns="http://www.w3.org/2000/svg">
<title>1 – Fundamentals/Logos/Clubs/Berlin BSC</title>
<g fill="none" fill-rule="evenodd">
<rect width="80" height="80"/>
<g transform="translate(9 12)" fill-rule="nonzero">
<path id="Path" d="m58.819 19.899c0.091622-0.80467 0.27556-2.5689 0.27556-3.8118 0-1.7282-0.33411-3.3984-0.99613-6.0662-0.65307-2.6159-1.5211-4.826-2.117-6.0219-0.66891-1.3501-1.5314-1.8098-2.4311-2.1983-0.8122-0.34911-3.2474-0.45695-8.2302-0.60489l-0.40438-0.012443c-0.13778-0.0048391-0.27556-0.0062217-0.42367-0.0062217-1.9771 0-4.6156 0.39611-7.0212 0.75559-1.8717 0.28067-3.6394 0.54544-4.6459 0.54544h-0.15293c-2.2616-0.06913-4.8987-0.58415-7.6997-1.1317-2.4662-0.48391-5.0165-0.98095-7.5902-1.234-0.73711-0.075352-1.5273-0.11268-2.3484-0.11268-3.7841 0-7.4331 0.76527-8.9597 1.131-0.35202-0.42031-0.97616-0.86896-2.0267-0.86896-0.5084 0-1.0809 0.10992-1.7002 0.32629-1.3544 0.47423-2.2044 1.4517-2.3312 2.6892-0.11573 1.1061 0.41333 2.2488 1.2868 2.779 0.42869 0.24971 0.90446 0.40721 1.3971 0.46248 1.2958 4.9234 5.1536 19.543 8.3459 31.606-0.14191 0.20048-0.3038 0.40994-0.47464 0.63116-0.94653 1.2243-2.1245 2.75-1.7911 5.1626 0.43882 3.2014 2.8637 4.4851 5.2108 5.305 1.5094 5.6687 1.7615 6.5798 1.8125 6.7346 0.43813 1.3211 1.1367 1.9917 2.0777 1.9917 0.11557 6.102e-4 0.23093-0.01004 0.34444-0.031827l0.11918-0.020048c0.2604-0.036639 0.80187-0.11406 1.1504-0.64291 0.36236-0.55304 0.34444-1.3245-0.068889-2.8475-0.22733-0.83371-0.40162-1.4172-0.58487-2.031-0.17291-0.57654-0.34996-1.1669-0.58418-2.0241 1.4749 0.35878 1.7222 0.64775 1.6871 1.6992-0.048222 1.5112 0.31207 2.8177 0.96444 3.4938 0.41333 0.42861 0.84733 0.51847 1.138 0.51847 0.88453 0 1.9392-0.68577 1.9392-3.9535 0-4.49-2.9319-5.2387-6.0884-6.044-0.25833-0.06913-0.52287-0.13411-0.79291-0.20739l-1.57-6.1671c1.7877-1.0466 4.4089-1.3404 6.7511-1.4863 0.16212-0.0106 0.32516-0.01567 0.48911-0.015209 1.4253 0 2.9443 0.36985 4.597 0.77149 1.9537 0.47561 3.9735 0.96782 6.2372 0.96782 2.314 0 3.5822-0.47008 5.0475-1.0141 1.7456-0.64775 3.7234-1.3826 8.4168-1.5713 0.24249-0.011061 0.48222-0.014517 0.71713-0.014517 6.572 0 11.148 3.5381 11.193 3.574 0.17595 0.13722 0.39234 0.21187 0.61518 0.21223 0.11211-1.059e-4 0.22341-0.019032 0.32929-0.055995 0.32149-0.1114 0.56326-0.38092 0.63998-0.71342 0.048911-0.20739 1.2028-5.1847 1.4205-11.292 0.18462-5.173-2.0928-8.0792-3.1696-9.1549z" fill="#fff"/>
<path id="Path" d="m15.102 3.1053c-4.9187 0.30002-8.2529 1.2561-8.282 1.2651-0.022594 0.21292 2.733 3.0936 4.2347 6.7975 1.5025 3.7192 2.9112 8.8673 2.9278 8.9178l0.028244 0.10715 0.10747-0.029034c0.063378-0.017282 6.284-1.7047 10.57-1.2084l4.887 0.85514c2.2733 0.47423 4.2339 0.88279 6.1628 0.76043 1.4012-0.085721 3.2529-0.46524 5.2135-0.86412 2.6178-0.53437 5.58-1.1406 8.3356-1.2533 4.7492-0.1984 6.7428 0.7867 6.7601 0.79499 0.16464-0.13826 0.25076-4.9276-0.80738-8.8611-0.9982-3.7296-2.5151-5.7889-2.5324-5.8069-0.095067-0.051156-3.8826-0.98026-9.5032-0.36501l-4.7272 0.60834-5.8824 0.52055c-1.9998 0.0477-4.805-0.49151-7.7714-1.0584-3.463-0.66157-7.0453-1.3432-9.7216-1.1814" fill="#0069B4"/>
<path id="Path" d="m13.885 22.294s0.92104 4.4775 1.1229 6.5971c0.20184 2.1195 0 7.7025 0 7.7025s4.1437-1.628 7.0721-1.5257c2.9285 0.10231 8.286 2.0324 11.719 1.7324 3.4327-0.30002 6.0698-2.5398 12.547-2.4431 6.4776 0.096782 11.711 2.3394 11.711 2.3394s0.90864-4.9774 0.60691-8.3246c-0.30173-3.3473-1.1925-5.8588-2.7177-6.6828s-4.2711-1.4282-7.0956-1.2284c-2.8244 0.19979-9.9028 2.235-13.647 2.1347-3.7441-0.10024-7.2554-1.6287-12.32-1.6287s-9.0038 1.3259-9.0038 1.3259" fill="#fff"/>
<path id="Shape" d="m5.5738 2.2875s6.231-1.7282 11.711-1.1842c5.4801 0.54405 11.006 2.2391 15.357 2.3705 2.3615 0.073969 8.6979-1.3999 12.243-1.292 3.545 0.10784 7.5178 0.21223 8.2715 0.53714 0.75364 0.32491 1.3957 0.64636 1.9289 1.7282 0.5332 1.0819 1.404 3.2263 2.046 5.8166 0.64204 2.5903 0.96444 4.2038 0.96444 5.8235 0 1.6197-0.32516 4.2024-0.32516 4.2024s3.4362 2.6919 3.2233 8.7283c-0.21287 6.0364-1.395 11.099-1.395 11.099s-5.1432-4.0683-12.566-3.7717c-8.6869 0.35256-8.5877 2.5862-13.424 2.5862-4.3014 0-7.9484-1.9356-11.386-1.722-2.8809 0.18043-5.9107 0.58622-7.8292 2.0462 0.82667 3.2539 1.5038 5.9016 1.8876 7.4149 3.8268 1.0708 6.7063 1.18 6.7063 5.4391 0 4.5294-2.1604 3.3141-2.0536-0.027652 0.077844-2.4431-1.6912-2.5129-4.0644-3.0583 0.78809 3.0583 1.0216 3.554 1.5913 5.6479 0.6448 2.3684 0.10884 2.1562-0.42711 2.264-0.53596 0.10784-0.96444-0.32422-1.2882-1.2934-0.073711-0.22605-0.81978-3.0175-1.9337-7.1957-2.5117-0.81435-4.6679-1.8907-5.0482-4.6656-0.36442-2.6491 1.5204-4.0655 2.3615-5.4834-3.368-12.727-7.524-28.482-8.6297-32.679-0.57316-0.096091-1.1091-0.076043-1.6774-0.41824-1.032-0.62493-1.4315-2.8675 0.85698-3.6701 2.6012-0.90422 2.8995 0.76043 2.8995 0.76043m7.2781 38.754c-1.1263 1.8236-1.355 3.733 1.3034 4.9269l-1.3034-4.9269zm0.088867-7.4812c0.12882-2.9235-0.095067-7.0678-1.4625-11.768-1.8207-6.2722-3.2894-10.853-5.0365-13.633 1.3254 5.1896 4.1574 16.246 6.499 25.401m0.94378-11.268s0.92036 4.4775 1.1222 6.5971c0.20184 2.1195 0 7.7025 0 7.7025s4.1444-1.6287 7.0728-1.5264c2.9285 0.10231 8.286 2.0324 11.72 1.7282 3.4341-0.30417 6.0684-2.5357 12.546-2.4389 6.4776 0.096782 11.711 2.3394 11.711 2.3394s0.90864-4.9774 0.60691-8.3239c-0.30173-3.3466-1.1925-5.8595-2.7177-6.6828s-4.2711-1.4289-7.0956-1.2291c-2.8244 0.19979-9.9028 2.235-13.647 2.1347-3.7441-0.10024-7.2554-1.6287-12.32-1.6287s-9.0038 1.3259-9.0038 1.3259m0.20184-2.237s6.253-1.7144 10.609-1.2105c4.3558 0.50396 7.8168 1.8181 11.04 1.6169s8.6834-1.9184 13.546-2.1195c4.8422-0.20255 6.6712 0.70858 6.6712 0.70858s0.24249-4.6711-0.82184-8.6329c-1.003-3.751-2.5138-5.7696-2.5138-5.7696s-3.7386-0.94501-9.404-0.32215-6.2689 1.0259-10.616 1.1289c-4.3469 0.103-12.524-2.5412-17.485-2.2364-4.9614 0.30486-8.1978 1.225-8.1978 1.225s2.7197 2.9124 4.2449 6.6807c1.5252 3.7683 2.9333 8.9323 2.9333 8.9323" fill="#000"/>
<path id="Shape" d="m46.871 26.863s0.32378-0.96782 0.32378-2.4265c0-1.0764-0.27073-1.9356-0.91347-2.2619-0.6076-0.30417-1.3971 0.054613-2.0984 0.2143s-1.5534 0.27306-1.5534 0.27306v1.2388s0.75158 1.1821 1.0726 3.3397 0.75158 5.9818 0.75158 5.9818c0.56243 0.13223 1.1431 0.16776 1.7174 0.10508 0.91484-0.10508 2.9705-0.5323 2.635-3.8775-0.27004-2.6401-1.9351-2.5868-1.9351-2.5868zm-1.7153-0.21638s-0.37682-0.21361-0.42987-1.3999c-0.022733-0.49843 0.10402-1.1849 0.10402-1.1849s0.26729-0.16107 0.53527-0.054613c0.26798 0.10646 0.21976 0.26753 0.21976 1.346s-0.42918 1.2934-0.42918 1.2934zm1.7684 2.9643c-0.053044 0.86343-0.26798 1.5105-0.75296 1.5105s-0.6448-0.43206-0.6448-1.7766c0-1.1365 0.32516-1.0798 0.75778-1.1365 0.43262-0.056687 0.69784 0.54267 0.63998 1.4026z" fill="#0069B4"/>
<path id="Path" d="m49.397 24.495c-0.10678-0.54267 0.15707-0.70582 0.58969-0.70582 0.43262 0 0.32309 0.54198 0.58762 0.86205 0.26453 0.32007 0.1674 0.70167 0.64824 0.59521 0.48084-0.10646 0.48222-0.59521 0.48222-1.2395s-0.53733-1.8852-1.7181-1.8852c-1.1808 0-2.2968 0.52954-2.1466 2.1009 0.16258 1.7234 0.50978 2.1852 1.2324 3.0708 0.96444 1.1877 1.8814 2.0518 2.3622 3.0175 0.48084 0.96574 0.27073 1.5651-0.10264 1.5098-0.58969-0.084338-0.59038-0.26822-0.7006-0.75006-0.18738-0.85306-0.6448-0.96782-0.96444-0.8662-0.31964 0.10162-0.68889 0.58968-0.48222 1.507 0.26729 1.1849 0.59244 1.778 1.8249 1.8354 1.6106 0.06913 2.4166-0.81228 2.3098-2.3165s-1.076-2.535-2.2038-3.8837c-1.1277-1.3487-1.5693-2.114-1.7188-2.8516z" fill="#0069B4"/>
<path id="Path" d="m20.449 23.413c-0.21562-0.91459 0-1.292-0.85698-1.1842-0.66064 0.083647-1.1291 0.15969-0.96444 0.91459 0.16464 0.7549 0.2666 1.2443 0.2666 1.7815 0 0.53714 0.10609 1.1275-0.48222 1.1275s-0.75227 0.38021-0.96789-0.80605c-0.21562-1.1863-0.21493-1.4013-0.32102-1.8866s-0.21149-0.75421-0.85767-0.59313c-0.64618 0.16107-1.0209 0.16176-0.96444 1.0784s0.26798 2.75 0.69509 4.7416 0.80807 4.0959 1.1284 4.9594c0.32033 0.86343 0.48222 0.91459 0.96789 0.80813 0.48567-0.10646 0.85973 0 0.64204-1.0777s-0.48222-2.8025-0.69371-3.6639c-0.21149-0.86136-0.43193-1.8313 0.32102-1.9909 0.75296-0.15969 1.0182-0.16522 1.2352 0.69959 0.217 0.86482 0.59107 3.556 0.80462 4.2563 0.21356 0.70029 0.21149 1.4013 1.1222 1.189 0.91071-0.21223 0.75778-0.21845 0.54147-1.4082-0.21631-1.1897-1.3984-8.0246-1.6161-8.9454z" fill="#0069B4"/>
<path id="Path" d="m28.989 26.323c0.097822-0.47838-0.15913-1.1275-0.53802-1.1275s-0.64618 0.53714-1.127 0.58691c-0.48084 0.049774-0.64136-0.53645-1.0189-0.37745s-0.69991 0.59659-0.5394 1.2409c0.16051 0.64429 0.27004 1.0784 0.48222 1.9951 0.21218 0.91666 0.38027 2.105 0.59038 3.0148s0.36511 1.7974 0.75089 2.2661c0.5394 0.64636 1.1298 0.75352 1.1814-0.052539 0.059933-0.87173-0.10471-1.2941-0.37269-2.1043-0.26798-0.8102-0.7006-1.507-0.86042-2.6926-0.15982-1.1856-0.10678-1.7801 0.26591-1.8326 0.37269-0.052539 0.69922 0.16107 0.69922 0.59383s-0.10471 1.5644 0.32584 1.4517c0.43056-0.11268 1.0919-0.060143 0.53251-1.0217-0.372-0.64429-0.589-0.86274-0.372-1.9405z" fill="#0069B4"/>
<path id="a" d="m25.661 30.474c-0.37682-0.21569-0.54078-0.16384-0.64756 0.37468-0.10678 0.53852 0 1.0812-0.43193 1.0812-0.43193 0-0.69647-0.27652-0.80393-0.91666-0.10747-0.64014 0.0558-0.96782 0.37682-1.0777 0.32102-0.10992 1.0244 0.16384 1.074-0.64913 0.0496-0.81297 0.21631-1.507-0.10816-2.6912-0.32447-1.1842-0.37407-1.4573-0.8556-1.8319-0.40369-0.31662-1.2359-0.37883-1.6106-0.21845-0.37476 0.16038-0.59382 0.32422-0.59382 1.2941s0.10953 2.4804 0.21562 3.6107c0.10609 1.1303 0.3782 2.6961 0.80118 3.3908 0.43469 0.70582 0.75778 0.92427 1.3495 0.86551 0.59176-0.05876 1.1787 0.10853 1.3936-0.48391 0.21493-0.59244 0.37613-1.0266 0.32171-1.5112-0.054422-0.4846-0.10609-1.0217-0.48084-1.2367zm-2.1493-3.2367c0-0.37745-0.053733-0.43068 0.21493-0.5399 0.26867-0.10923 0.32171 0.27099 0.32171 0.59244s0 0.59452-0.21493 0.64636c-0.21493 0.051847-0.32171-0.31662-0.32171-0.6989z" fill="#0069B4"/>
<path d="m42.36 29.286c-0.2666-0.96782-0.53802-2.0988-0.59038-2.6401-0.052356-0.54129-0.052356-1.1835-1.1291-1.2409-1.0767-0.057378-1.4467 0-1.8242 0.5399-0.33662 0.51292-0.52216 1.1108-0.53527 1.7248 0 0.59452 0 1.3135 0.42504 1.2443 0.64824-0.10646 0.59313-0.43137 0.7006-0.91874s0.1612-0.70029 0.53527-0.64636c0.37407 0.053921 0.75778 0.37814 0.6448 0.75421-0.11298 0.37607-0.75227 0.97197-1.2875 1.5098-0.53527 0.53783-0.75778 1.4026-0.59313 2.4292 0.16464 1.0266 0.54078 2.2605 1.6161 1.9916 1.0754-0.26892 1.2331-0.54267 1.7711-0.48391s0.75089 0.26822 0.96444 0c0.21356-0.26822 0.15844-0.26961 0.10402-0.86343-0.054422-0.59383-0.53182-2.4285-0.80187-3.4005zm-1.663 2.8592c-0.32309 0-0.43056-0.32491-0.21218-1.1317 0.21838-0.80675 0.74744-1.0777 0.69302 0.056686 0.10884 0.69476-0.15982 1.075-0.48084 1.075z" fill="#0069B4"/>
<path id="Path" d="m57.347 29.716c-0.53871-0.16107-0.52424 0.52815-0.64824 0.97266-0.16258 0.59175-0.60416 1.1918-1.3378-0.21499-0.59451-1.1296-0.91553-2.3732-0.97409-3.8789-0.055111-1.619 0.32447-2.264 0.70198-2.264s0.3782 0.16384 0.53596 0.53783c0.15776 0.37399 0.23284 0.97335 0.70267 0.86412 0.69302-0.16315 0.64204-0.75697 0.31758-1.8879-0.32447-1.131-0.96444-1.9426-1.8786-1.8872-0.91416 0.055304-2.0398 0.80882-1.9874 3.6639 0.052356 2.8551 0.62 4.7008 1.3978 6.1989 0.69991 1.3487 1.1842 2.4804 2.2044 2.5343 1.0202 0.053921 1.665-1.2416 1.665-2.535s-0.16258-1.9398-0.69922-2.1036z" fill="#0069B4"/>
<path id="b" d="m37.155 27.834c-0.26936-0.97128-0.26936-1.1877-1.1263-1.1337-0.85698 0.053921-1.24 0.053921-1.24 0.053921s-0.26798-1.6716-0.42987-2.423-0.37751-1.1317-0.91347-1.0805c-0.53596 0.051156-0.80324 0.53852-0.64342 1.5126 0.15982 0.97404 0.69784 2.4769 0.96927 4.3642 0.27142 1.8872 0.58762 4.0413 0.68889 4.7423 0.10127 0.70098 0.16602 1.7234 0.97478 1.3985 0.80876-0.32491 0.74607-1.0736 0.64136-1.9412-0.22182-1.7753-0.37544-2.3138-0.69853-3.283-0.32309-0.9692-0.21356-1.6702 0.11091-1.7794s0.69233 0.37676 0.80531 1.2395 0.10816 2.4258 0.31964 3.2844c0.21149 0.85859 0.54009 2.1589 1.2903 1.8872 0.7502-0.27168 0.69578-0.26753 0.26729-2.1548-0.42849-1.8872-0.75158-3.7157-1.0161-4.687z" fill="#0069B4"/>
<path d="m32.102 30.849c-0.13391-0.8031-0.22451-1.6129-0.27142-2.4258 0 0 1.1828-0.53576 1.0781-1.3446s-1.3413-0.80882-1.4956-1.3453c-0.15431-0.53645-0.1116-1.1337-0.43331-1.8326-0.32171-0.6989-0.42573-1.0245-0.69784-0.97197-0.27211 0.052539-0.48222 0.5406-0.42987 1.0238 0.052356 0.48322 0.32516 2.3712 0.32516 2.3712s-0.86456 0.43068-0.86456 0.86412c0 0.80536 1.0244 1.0204 1.0244 1.0204s0.15844 1.2962 0.42711 3.0728c0.26867 1.7766 0.21562 2.208 0.75158 3.18 0.53596 0.97197 0.69853 1.2962 1.3991 1.2962s1.1277-0.050465 1.0692-0.37952c-0.058556-0.32906-0.75158-1.133-1.1828-2.264-0.43124-1.131-0.48222-1.0231-0.69922-2.2647z" fill="#0069B4"/>
</g>
</g>
</svg>
