<?xml version="1.0" encoding="UTF-8"?>
<svg version="1.1" viewBox="0 0 80 80" xmlns="http://www.w3.org/2000/svg">
<title>1 – Fundamentals/Logos/Clubs/Leipzig RBL</title>
<g fill="none" fill-rule="evenodd">
<rect width="80" height="80"/>
<g transform="translate(1.5 15.5)" fill-rule="nonzero">
<path id="b" d="m76.021 20.79c-2.1389-1.0367-5.8683-2.2325-5.8683-2.2325-0.15999-0.041468-0.48168-0.14556-0.48168-0.14556 0.0884-0.12919 0.1589-0.26951 0.20961-0.41722 0.12833-0.45699 0.10267-0.991-0.19592-1.1577 0 0 1.6256 0.08886 1.978-0.046546 1.0001-0.38591 1.3834-1.712 1.0318-2.6514-0.18394-0.49169-0.96678-0.79889-1.1268-1.2102-0.15314-0.38929-0.25667-0.69565-0.67076-0.90553-0.67589-0.33851-2.3853-0.63302-3.1382-0.56786-0.63482 0.055009-0.75717 0.78028-1.149 0.94699-1.5699 0.66941-2.2698 0.35544-2.2552 2.6726 4.878e-4 0.067508 0.0064962 0.13487 0.017967 0.20142-0.56809-0.2725-1.9883-0.96138-2.6471-1.2508v-14.026h-46.452v14.026c-0.65878 0.28943-2.079 0.97831-2.6471 1.2508 0.01147-0.06655 0.017479-0.13391 0.017967-0.20142 0.014544-2.3171-0.68444-2.0032-2.2552-2.6726-0.39184-0.16926-0.51333-0.89199-1.149-0.94699-0.75289-0.065164-2.4623 0.23104-3.1382 0.56786-0.41837 0.20988-0.51333 0.51623-0.67076 0.90553-0.15999 0.4113-0.94111 0.7185-1.1268 1.2102-0.35163 0.93938 0.031656 2.2655 1.0318 2.6514 0.35249 0.13541 1.978 0.050777 1.978 0.050777-0.29859 0.16926-0.32426 0.70073-0.19592 1.1577 0.050713 0.14771 0.12121 0.28803 0.20961 0.41722 0 0-0.32169 0.10409-0.48168 0.14556 0 0-3.7251 1.1958-5.8683 2.2325 0 0-2.5667 1.195 0.61686 0.96646 0.154 0 2.5419-0.1828 5.0324-0.54924l-0.0154 0.13879c0 0.7972 0.17111 0.79212 0.84187 1.0206l-0.022244 0.14048c-0.8393 0.16926-2.5068 0.33259-3.0877 0.71596-0.63568 0.42314-2.3742 0.09563-3.4171 1.4996-0.27463 0.36898-0.73064 1.4895-0.462 1.8551 0.43976 0.5924 2.9594 1.4675 3.2879 1.4742 0.78797 0.016926 0.86839-0.62117 1.4245-0.99862 0.26693-0.1828 0.58606-0.060086 0.88208-0.1371 0.44574-0.11679 0.693-0.51793 1.0848-0.71934 0.22843-0.11679 0.71952-0.22934 1.0327-0.048238 1.3834 0.84206 5.6244-0.2268 7.1011-1.0875v7.6013c0 2.7081 0.34736 3.7406 1.1781 5.1708l0.068444 0.11256c4.7269 6.992 12.738 11.002 21.979 11.002s17.24-3.997 21.953-10.97l0.071011-0.10832c0.84529-1.4565 1.1978-2.5016 1.1978-5.2064v-7.5997c1.4724 0.86067 5.7134 1.9295 7.0968 1.0875 0.31313-0.18111 0.80422-0.068549 1.0327 0.048238 0.39184 0.20142 0.6391 0.60256 1.0848 0.71934 0.29602 0.077012 0.61514-0.0457 0.88208 0.1371 0.55611 0.37744 0.63739 1.0155 1.4245 0.99862 0.32853-0.0067703 2.8481-0.87845 3.2879-1.4742 0.26864-0.3656-0.18737-1.4861-0.462-1.8551-1.0429-1.404-2.7814-1.079-3.4171-1.4996-0.58092-0.37998-2.2493-0.54924-3.0877-0.7185l-0.022244-0.14725c0.6699-0.2285 0.84529-0.22342 0.84187-1.0206l-0.0154-0.13879c2.4905 0.36644 4.8767 0.54924 5.0324 0.54924 3.1861 0.2285 0.61686-0.96646 0.61686-0.96646v0.0025389z" fill="#fff"/>
<path d="m36.234 27.441c-2.3789 0.002228-4.71-0.66048-6.7247-1.9118 2.371 3.0166 6.1259 4.6391 9.9744 4.31 3.8485-0.32906 7.2663-2.5649 9.0788-5.9391l-0.013689-0.0042314c-0.22501-0.060933-0.55953-0.19126-0.9471-0.34275-0.43462-0.16926-1.2277-0.47815-1.4972-0.50777-0.076574 0.050289-0.15 0.10512-0.21988 0.16418-0.15163 0.12428-0.31077 0.23931-0.47654 0.34444-2.3898 2.4853-5.7065 3.8909-9.1741 3.8878v-8.463e-4z" fill="#DADADA"/>
<path id="a" d="m71.621 15.463c0.13689-0.20142 0.1386-0.57209 0.032511-0.78874-0.1232-0.25389-0.49793-0.32328-0.73492-0.41045-0.29773 0.064318 0.032511 0.32074-0.2233 0.43161l-0.57408-0.073627c-0.36104-0.36898 0.39356-0.3182 0.43548-0.51539 0.0616-0.28689-0.21047-0.55093-0.031656-0.8319-0.024685-0.073874-0.078318-0.13485-0.14887-0.16926-0.29602-0.10494-2.0645-0.52385-2.31-0.50777l-0.074433 0.084629c0.071011 0.097323 0.3696 0.36475 0.38243 0.38929 0.11807 0.21073-0.67674 0.36136-0.8085 0.38929-0.63482 0.13202-2.3331 0.33344-2.0841 1.3253 0.11636 0.46715 1.8044 1.6536 2.0106 2.1673 0.044489 0.11086 0.26437 0.34359 0.11721 0.44261-0.31057 0.20819-1.8737-0.070242-1.9584 0.16926 0.085556 0.32328 1.0173 0.56786 1.3193 0.68295 0.35677 0.13456 0.68444 0.23527 1.0635 0.053316 0.42008-0.20396 0.69386-0.75404 0.61771-1.211-0.084121-0.31608-0.21686-0.61749-0.39356-0.89368-0.12234-0.16164-1.1499-0.96561-0.86154-1.0739 0.3465 0.10917 0.81962 0.011002 1.0635 0.33851 0.6468 0.18111 1.3381 0.29282 1.9994 0.41045 0.42778 0.07532 0.90946-0.040622 1.1601-0.41045l0.0017111 0.0016926zm-14.149 7.8942c0.062726-0.1218 0.066809-0.26503 0.011122-0.39014-0.047414-0.062098-0.11464-0.10653-0.19079-0.1261-0.29859 0.064318-0.59889 0.19972-0.93598 0.11594-0.30971 0-0.80936-0.27335-0.9471 0.1371-0.053044 0.2632-0.20277 0.48492-0.26693 0.73712 0 0.13625 0.12833 0.2632 0.25667 0.32582 0.19079 0.041468 0.42778 0.14725 0.59889 0.11594 0.31912-0.22088 0.29773-0.62117 0.61686-0.85221 0.17111 0.041468 0.19164 0.27335 0.38329 0.25389 0.20176-0.022205 0.38008-0.1399 0.47826-0.31566l-0.0042778-0.0016925zm7.7556-4.8924c0.055611-0.29789-0.28404-0.34528-0.48938-0.4113-0.49194-0.15741-0.98047-0.31143-1.4775-0.45107-0.36447-0.1024-0.73064-0.29366-1.0968-0.36898-0.46114-0.094784-0.82647-0.10409-1.149-0.50777l0.074433-0.042314c0.43719 0.16926 1.1396 0.54332 1.5965 0.24204 0.21646-0.14302 0.44318-0.52724 0.34222-0.78789-0.077-0.19718-0.32083-0.22342-0.48938-0.2962-0.71696-0.30889-1.4194-0.68888-2.1201-1.0342-1.4818-0.73176-2.9602-1.4672-4.4352-2.2063-0.67076-0.33851-1.4331-0.72442-2.1705-0.88352-0.59889-0.12948-1.2833 0.034698-1.8078 0.34698-0.52446 0.31228-0.50649 1.035-0.89406 0.958-0.061193-0.057526-0.095834-0.13738-0.095822-0.22088-0.15657-0.24542-0.64594 0.4443-1.0421 0.64149-0.88464 0.44007-2.4366 2.1157-3.0749 2.9146-0.40297 0.50777-0.56381 1.1467-0.71268 1.7577l0.085556 0.1151c0.19336 0.046546 0.37217-0.032159 0.54242-0.1151 0.16084 0.040622 0.1463 0.24119 0.23442 0.35713 0.64509 0.85983 2.3596 0.36052 3.2973 0.67703 0.013689 0.057548 0 0.10832-0.064167 0.1151-0.42008 0.053316-0.97619-0.033005-1.4065-0.044853-0.99159-0.025389-1.9849-0.037237-2.9756-0.091399l-0.11807 0.063472c-0.091544 0.20057-0.63653 1.3541-0.72294 1.4514-0.13261 0.14472-0.32939 0.25389-0.47056 0.41214-0.38414 0.42314-0.66306 0.94022-1.1464 1.2694-0.14459 0.099016-0.43548 0.15318-0.49964 0.31566l0.074433 0.084629c1.4656 0.11848 1.6136-1.4023 2.5958-1.7459 0.024222 0.0066438 0.044663 0.022762 0.056608 0.044638 0.011946 0.021876 0.014366 0.047623 0.0067027 0.071303-0.26409 0.26317-0.48622 0.5645-0.65878 0.89368-0.57322 1.1484-0.98132 0.79889-1.5323 1.3261l0.085556 0.12694c1.6256-0.047392 1.9173-0.94953 2.446-1.0215 0.45173-0.062625 2.1389 0.72104 2.7018 0.87337 0.28062 0.076166 0.55782 0.16926 0.85556 0.16926 0.099244 0 0.23271-0.054162 0.31741-0.049931 0.21731 0.0067703 0.25667 0.39014 0.73492 0.16926 0.2849-0.13456 0.30372-0.53655 0.34222-0.81159 0.042778-0.32921-0.37046-0.61017-0.34222-0.78959 0.041067-0.25389 0.3619 0.084629 0.43548-0.1371 0.044489-0.13287-0.12234-0.40283-0.20191-0.50777-0.21389-0.26997-0.81706-0.73204-0.73407-1.1256 0.035441-0.057789 0.092715-0.099213 0.15913-0.1151l1.9678 0.24119c0.068444 0.0084629 0.36789 0.69903 0.37217 0.76843 0.0051333 0.10494-0.28148 0.81751-0.34222 0.958-0.16427 0.38675-0.45173 0.66772-0.4466 1.1154 0.0051333 0.54924 0.37987 1.0604 0.65963 1.5149 0.30971 0.50777 0.80593 0.26404 1.2551 0.4096 0.1848 0.060933 0.38414 0.18703 0.56552 0.26743 0.58624 0.26644 1.1941 0.48358 1.8172 0.6491 0.33196 0.078705 0.84614-0.031313 1.0421-0.33851 0.14373-0.22427-0.34222-0.29112-0.12748-0.53739 0.11379-0.13033 0.25667-0.12271 0.41494-0.10494 0.34222 0.037237 2.0935 0.24796 2.2758 0.05247 0.062456-0.065164-0.0308-0.15318-0.085556-0.17941-0.35334-0.16926-0.89919-0.24965-1.2833-0.35629-0.4697-0.13117-0.95566-0.16418-1.4254-0.30551-0.4004-0.12102-0.37473 0.28351-0.65963 0.46292-0.42778 0.27166-1.5836-0.26997-1.7231-0.76166-0.13432-0.46884 0.29773-1.0621 0.60573-1.3778 0.24298-0.24881 0.53814-0.2852 0.77684-0.47392 0.15143-0.12017 0.043633-0.35883 0.042778-0.51539 0.23613-0.29366 1.1242 0.16926 1.4887 0.073627 0.39441-0.10832 0.1001-0.62456 0.43633-0.72527 0.29688 0.084629 0.53044 0.29366 0.81962 0.3986 0.21474 0.077858 0.5929 0.11763 0.73407 0.30466 0.11208 0.14979 0 0.35798-0.032511 0.51539 0.10438 0.19549 0.43548 0.25389 0.6391 0.2852 0.32682 0.046546 0.68444 0.027928 1.0173 0.062625 0.33281 0.034698 0.66648 0.12864 0.99244 0.15826l1.1045 0.10748c0.26693 0.12694-0.065022 0.3529 0.18052 0.86321-0.26266-0.038083-1.3441-0.35629-1.4681 0 0.9548 0.88098 3.1245 1.5064 4.4078 1.6833 0.78454 0.11171 1.6161 0.084629 2.4041 0.021157 0.10541 0.0011042 0.20857-0.030245 0.29517-0.089706 0 0.0050777 0.42179-0.34613 0.64766-0.31059 0.30886 0.050777 0.66819 0.63556 1.3099 0.87845 0.43719 0.24373 0.85556-0.17941 1.1918 0.011002 0.41666 0.23188 0.67674 1.4048 1.3398 1.2203 0.13432-0.037237 0.71011-0.23442 0.78882-0.31059 0.21902-0.17772-0.15058-0.64487-0.34222-0.9563-0.067589-0.09563-0.11464-0.16926-0.19421-0.18703-0.77-0.19465-0.40724-1.0646-1.5092-1.2694-0.49622-0.091399-0.61771-0.13287-1.1122-0.22427-0.13518-0.026235-0.43804 0.040622-0.4543-0.15064 0 0 0.085556-0.092245 0.085556-0.092245l0.88293-0.020311-0.020533-0.1151c-1.4134-0.17603-2.7985-0.57294-4.2128-0.73796-0.10609-0.061779-0.24041-0.38421-0.22416-0.48408 0.042778-0.25389 0.45002 0.21919 0.66049-0.28435 0.12149-0.29197-0.17111-0.54078 0.063311-0.68465 0.62113 0.079551 1.2414 0.15656 1.8625 0.24288-3.5078-0.82851-7.0472-1.5233-10.555-2.3459-0.75973-0.17857-1.54-0.29705-2.286-0.52639l0.011122-0.084629c3.0945 0.42822 6.16 1.167 9.2657 1.4928v-0.077858c-1.7188-0.32413-3.4222-0.75658-5.1393-1.0629-2.5667-0.45615-5.1479-0.83613-7.724-1.2271-1.6803-0.25389-3.3889-0.56532-5.0837-0.70834l-0.053044 0.11594c0.11379 0.13794 0.27207 0.20226 0.42778 0.28351 0.024383 0.032683 0.019957 0.078288-0.010267 0.10579-0.21646-0.02285-1.1807 0.038083-1.1815-0.18872 0.35848-0.33851 0.4466-0.50777 0.96763-0.46377 0.81107 0.074473 1.6256 0.19295 2.4375 0.29451 4.6542 0.5924 9.3427 1.2077 13.967 1.9998 4.8767 0.83444 7.4579 1.2085 11.464 1.971-1.3612-0.48323-7.5024-2.186-10.636-2.7191-0.14716-0.026235-0.33281 0-0.40382-0.16926l-0.0085555 0.0076165zm-1.1464 5.4061c0.23357 0.0088373 0.46612 0.035433 0.69557 0.079551 0.52103 0.10579 1.0421 0.14725 1.5734 0.29535 0.095665 0.045576 0.165 0.13193 0.18822 0.23442-0.036083 0.044962-0.091739 0.070129-0.14972 0.067703l-2.0747-0.52554-0.23271-0.15149zm-11.446-0.84629 0.57408-1.3363c0.020282-0.10135 0.10864-0.17541 0.21303-0.17857 0.12748 0.041468 0.28747 0.062625 0.33024 0.20988l-0.49194 1.0452c-0.34222 0.44261-0.095822 1.0528 0.021389 1.4945-0.01686 0.057918-0.0677 0.099826-0.12833 0.10579-0.34222-0.33851-0.64851-0.8099-0.52103-1.3371l0.0025666-0.0033851zm-4.3719-0.93515c-0.13004 0.097323-0.36019 0.043161-0.52446 0.022003-0.19763-0.10832-0.24127-0.33851-0.26351-0.55263-0.0043386-0.058102 0.02025-0.11464 0.065878-0.15149 0.23014 0 0.46029 0.055009 0.61343 0.23865 0.065878 0.14048 0.18651 0.29197 0.10866 0.44345zm6.9796-5.4552 0.28576 0.13033s-4.2119-0.5924-6.2456-0.88437c-0.085556-0.010155-0.34907-0.035544-0.30543-0.18364 0.053267-0.034635 0.11728-0.049339 0.18052-0.041468l6.0839 0.97915h8.556e-4zm1.084-1.8618-0.042778 0.042314c-1.0746-0.20565-2.18-0.45615-3.234-0.74642-0.081278-0.022003-0.26864-0.038083-0.24469-0.15741 0.38586-0.073627 2.1526 0.3876 2.5958 0.5357 0.19678 0.06601 0.31313 0.021157 0.51333 0 0.15563 0.085081 0.29586 0.19519 0.41494 0.32582h-0.0025666zm-36.809 8.1921c-0.055687 0.1251-0.051604 0.26834 0.011122 0.39014 0.098176 0.17577 0.27649 0.29346 0.47826 0.31566 0.19164 0.021157 0.21218-0.21073 0.38329-0.25389 0.31912 0.23104 0.29773 0.63133 0.61686 0.85221 0.17111 0.031313 0.40468-0.074473 0.59889-0.11594 0.12662-0.062625 0.25667-0.18957 0.25667-0.32582-0.064167-0.25389-0.21389-0.47392-0.26693-0.73712-0.13774-0.41045-0.63739-0.1371-0.9471-0.1371-0.34222 0.084629-0.63739-0.051624-0.93512-0.11594-0.076485 0.019329-0.14406 0.063792-0.19164 0.1261l-0.0042778 0.0016925zm14.467-0.24204 0.074433-0.084629c-0.064167-0.16249-0.35506-0.21665-0.49964-0.31566-0.48253-0.3309-0.7623-0.84629-1.1464-1.2694-0.14117-0.15572-0.34222-0.26743-0.47056-0.41214-0.085556-0.094784-0.6314-1.2508-0.72294-1.4514l-0.11721-0.063472c-0.99159 0.054162-1.9849 0.06601-2.9765 0.091399-0.42778 0.011848-0.98646 0.098169-1.4065 0.044853-0.064167-0.0067703-0.077856-0.057548-0.064167-0.1151 0.94111-0.31313 2.6522 0.18618 3.2973-0.67703 0.085556-0.11594 0.073578-0.31651 0.23442-0.35713 0.17111 0.084629 0.34907 0.16164 0.54242 0.1151l0.085556-0.1151c-0.14887-0.61102-0.30971-1.2542-0.71268-1.7577-0.63824-0.7972-2.1902-2.4745-3.074-2.9146-0.39698-0.19718-0.88636-0.88691-1.0429-0.64149 1.13e-5 0.083505-0.034629 0.16335-0.095822 0.22088-0.38757 0.077012-0.37559-0.6491-0.89406-0.958-0.51847-0.30889-1.2106-0.47392-1.8095-0.34444-0.73749 0.1591-1.4998 0.54755-2.1705 0.88352-1.4738 0.73909-2.9508 1.4754-4.4309 2.2088-0.7007 0.34528-1.4031 0.72527-2.1201 1.0342-0.17111 0.072781-0.41238 0.099016-0.48938 0.2962-0.10352 0.26066 0.1232 0.64487 0.34222 0.78789 0.45687 0.30128 1.1593-0.070242 1.5965-0.24204l0.074433 0.042314c-0.32254 0.40114-0.68444 0.41045-1.149 0.50777-0.36618 0.07532-0.73236 0.26658-1.0968 0.36898-0.49708 0.13964-0.9856 0.29366-1.4775 0.45107-0.20533 0.06601-0.54499 0.1134-0.48938 0.4113-0.071011 0.16926-0.25667 0.14133-0.40297 0.16926-3.1348 0.53316-9.2759 2.2359-10.637 2.7191 4.0083-0.76166 6.5878-1.1366 11.464-1.971 4.6243-0.79212 9.3127-1.4091 13.967-1.9998 0.80936-0.10155 1.6256-0.22003 2.4375-0.29451 0.52189-0.048238 0.60916 0.12694 0.96763 0.46377 0 0.2268-0.96507 0.16926-1.1815 0.18872-0.030224-0.027498-0.03465-0.073102-0.010267-0.10579 0.154-0.084629 0.31313-0.14556 0.42778-0.28351l-0.053044-0.11594c-1.6949 0.14302-3.4034 0.45361-5.0837 0.70834-2.5761 0.39098-5.1599 0.77097-7.724 1.2271-1.7205 0.30636-3.4222 0.73881-5.1393 1.0629v0.073627c3.1074-0.32582 6.1711-1.0646 9.2657-1.4928l0.011122 0.084629c-0.74861 0.22427-1.5297 0.33936-2.2886 0.51793-3.5078 0.82344-7.0464 1.5174-10.554 2.3459 0.62028-0.084629 1.2414-0.16333 1.8617-0.24288 0.23528 0.14387-0.058178 0.39268 0.063311 0.68465 0.21047 0.50354 0.61771 0.02962 0.66049 0.28435 0.016256 0.099862-0.11807 0.42314-0.22416 0.48408-1.4134 0.16503-2.7994 0.56193-4.2128 0.73796l-0.020533 0.11509 0.88293 0.020311s0.085556 0.092245 0.085556 0.092245c-0.016256 0.19126-0.31912 0.1244-0.4543 0.15064-0.49793 0.091399-0.61942 0.13287-1.1122 0.22427-1.102 0.20734-0.73834 1.0773-1.5092 1.2694-0.079567 0.019465-0.12662 0.091399-0.19421 0.18703-0.18908 0.31143-0.55868 0.77858-0.34222 0.9563 0.078711 0.076166 0.6545 0.27335 0.78882 0.31059 0.66306 0.18449 0.92314-0.98846 1.3398-1.2203 0.34222-0.19041 0.7546 0.23273 1.1918-0.011002 0.64167-0.24288 1.001-0.82767 1.3099-0.87845 0.22587-0.035544 0.64594 0.31566 0.64766 0.31059 0.086601 0.059461 0.18975 0.090811 0.29517 0.089706 0.78797 0.064318 1.6196 0.090553 2.405-0.021157 1.2833-0.18111 3.4487-0.80228 4.4035-1.6833-0.12406-0.35629-1.2055-0.038083-1.4681 0 0.24554-0.50777-0.085556-0.73627 0.18052-0.86321l1.1071-0.10494c0.32682-0.02962 0.66049-0.1244 0.99244-0.15826 0.33196-0.033851 0.69043-0.016079 1.0173-0.062625 0.20362-0.02962 0.53472-0.089706 0.6391-0.2852-0.029089-0.15741-0.14459-0.3656-0.032511-0.51539 0.14117-0.18703 0.51932-0.2268 0.73407-0.30466 0.28918-0.10494 0.52274-0.31566 0.81962-0.3986 0.33623 0.10071 0.041922 0.61694 0.43633 0.72527 0.36361 0.099016 1.2525-0.36729 1.4887-0.073627 0 0.15656-0.10866 0.39522 0.042778 0.51539 0.2387 0.18872 0.53472 0.22511 0.77684 0.47392 0.308 0.31566 0.74091 0.90891 0.60573 1.3778-0.13946 0.48831-1.2927 1.0299-1.7231 0.76166-0.2849-0.17941-0.25667-0.58394-0.65963-0.46292-0.4697 0.14133-0.95566 0.17434-1.4254 0.30551-0.38842 0.10663-0.93427 0.18788-1.2876 0.35629-0.053044 0.026235-0.1463 0.11425-0.085556 0.17941 0.18223 0.19549 1.9344-0.015233 2.2758-0.05247 0.15999-0.017772 0.30116-0.025389 0.41494 0.10494 0.21303 0.24627-0.27121 0.31313-0.12748 0.53739 0.19592 0.30551 0.71011 0.41553 1.0421 0.33851 0.62308-0.16552 1.231-0.38266 1.8172-0.6491 0.18223-0.080397 0.38072-0.20649 0.56552-0.26743 0.44917-0.14556 0.94539 0.094784 1.2551-0.4096 0.28062-0.45446 0.6545-0.96561 0.65963-1.5149 0.0051334-0.44769-0.28233-0.72865-0.4466-1.1154-0.059033-0.14048-0.34222-0.85306-0.34222-0.958 0.0042778-0.069396 0.30372-0.76166 0.37217-0.76843l1.9678-0.24119c0.066418 0.015882 0.12369 0.057306 0.15913 0.1151 0.085556 0.39352-0.52018 0.8556-0.73407 1.1256-0.079567 0.10155-0.2464 0.37152-0.20106 0.50777 0.073578 0.22257 0.39356-0.1151 0.43462 0.1371 0.0308 0.17941-0.38243 0.46038-0.34222 0.78959 0.035933 0.27504 0.054756 0.67703 0.34222 0.81159 0.47483 0.22173 0.51761-0.16164 0.73492-0.16926 0.085556-0.0042315 0.21817 0.048238 0.31741 0.049931 0.29602 0.0042314 0.57237-0.090553 0.85556-0.16926 0.55868-0.15233 2.2501-0.93599 2.7018-0.87337 0.52873 0.071934 0.82476 0.97408 2.446 1.0215l0.085556-0.12694c-0.55098-0.52724-0.95908-0.17772-1.5323-1.3261-0.17256-0.32918-0.39469-0.63051-0.65878-0.89368-0.0076634-0.02368-0.0052432-0.049426 0.0067027-0.071303 0.011946-0.021876 0.032386-0.037995 0.056608-0.044638 0.98218 0.34359 1.1302 1.8618 2.5958 1.7459l-0.0034222-0.0025389zm-21.065 1.1484-0.23271 0.15149-2.0747 0.52554c-0.057983 0.0024257-0.11364-0.022741-0.14972-0.067703 0.02322-0.10249 0.092557-0.18885 0.18822-0.23442 0.5313-0.1481 1.0523-0.18957 1.5734-0.29535 0.22945-0.044118 0.46199-0.070714 0.69557-0.079551zm11.446-0.84629c0.12833 0.52724-0.18138 1.0003-0.52103 1.3371-0.060633-0.00596-0.11147-0.047868-0.12833-0.10579 0.11721-0.44176 0.36276-1.0519 0.021389-1.4945l-0.48938-1.0418c0.042778-0.14725 0.20277-0.16926 0.33024-0.20988 0.1044 0.0031596 0.19275 0.07722 0.21303 0.17857l0.57408 1.3363zm-0.17111-9.1111c0.023956 0.11933-0.16427 0.13541-0.24469 0.15741-1.054 0.29028-2.1594 0.54078-3.234 0.74642l-0.042778-0.042314c0.11908-0.13063 0.25931-0.24074 0.41494-0.32582 0.19763 0.021157 0.31399 0.06601 0.51333 0 0.44232-0.1481 2.209-0.60933 2.5949-0.5357h-0.0017111zm3.5257 1.9702c-2.0319 0.29535-6.2456 0.88437-6.2456 0.88437l0.28576-0.13033 6.0839-0.98169c0.063242-0.0077957 0.12723 0.0069021 0.18052 0.041468 0.043633 0.1481-0.22073 0.16926-0.30629 0.18364l0.0017111 0.0025389zm1.8095 5.6786c-0.022244 0.2175-0.065878 0.4443-0.26351 0.55263-0.16427 0.021157-0.39356 0.07532-0.52446-0.022004-0.077-0.15149 0.042778-0.30297 0.10866-0.44345 0.15314-0.18364 0.38329-0.23865 0.61343-0.23865 0.045627 0.036841 0.070216 0.093383 0.065878 0.15149zm-18.011-6.7703c0.24897-0.99185-1.4493-1.1933-2.0841-1.3253-0.13176-0.027928-0.92571-0.17857-0.8085-0.38929 0.012833-0.024542 0.31228-0.29197 0.38243-0.38929l-0.074433-0.084629c-0.24383-0.018618-2.0123 0.40029-2.31 0.50777-0.070549 0.034404-0.12418 0.095384-0.14887 0.16926 0.17881 0.28097-0.093256 0.54501-0.031656 0.8319 0.041922 0.19718 0.79738 0.14641 0.43548 0.51539l-0.57408 0.073627c-0.25667-0.11086 0.074433-0.36729-0.2233-0.43161-0.23699 0.084629-0.61172 0.16079-0.73492 0.41045-0.10609 0.21665-0.10438 0.58732 0.032511 0.78874 0.25068 0.36983 0.73407 0.48577 1.1601 0.41045 0.66134-0.11763 1.3526-0.22934 1.9994-0.41045 0.24383-0.32582 0.71696-0.22765 1.0635-0.33851 0.28832 0.10832-0.7392 0.9123-0.86154 1.0739-0.17638 0.27514-0.30911 0.57539-0.39356 0.89029-0.076144 0.45699 0.19763 1.0071 0.61771 1.211 0.37559 0.18195 0.70754 0.084629 1.0635-0.053316 0.30201-0.1151 1.2311-0.35967 1.3193-0.68295-0.085556-0.2395-1.6478 0.038929-1.9584-0.16926-0.14716-0.099016 0.073578-0.33174 0.11721-0.44261 0.20619-0.5137 1.8942-1.7002 2.0106-2.1673l0.0017111 0.0016926zm-7.8266 9.508c-0.053044-0.16926-1.1028 0.018618-1.161 0.21919-0.085556 0.29451 0.78797 0.68211 1.161-0.21919zm-2.3485 1.806c0.060798 0.049656 0.12676 0.092777 0.19678 0.12864 0.22244 0.11933 0.43377 0.32836 0.58263 0.13879 0.077-0.096477 0.48767-0.7972 0.56552-1.0621 0.0308-0.10663-0.041067-0.25896-0.29859-0.26912h-0.051333c-0.66819 0.06601-0.87951 0.63641-0.99672 1.0672l0.0017111-0.0033851zm73.126-1.5868c-0.058178-0.20057-1.1079-0.38506-1.161-0.21919 0.37302 0.9013 1.2457 0.5137 1.161 0.21919zm-0.15828 0.78874c0.077 0.26489 0.48767 0.96561 0.56467 1.0621 0.14887 0.18957 0.36019-0.019465 0.58263-0.13879 0.070456-0.034686 0.13699-0.076672 0.19849-0.12525-0.11721-0.43076-0.32853-1.0012-0.99672-1.0672h-0.051333c-0.25667 0.010156-0.32939 0.16249-0.29773 0.26912z" fill="#DD0741"/>
<path d="m60.502 32.667v-6.7542h-1.2739v6.7542c0 2.4001-0.28148 2.962-0.84529 3.9395-4.312 6.3852-11.611 9.8736-19.883 9.8736s-15.566-3.4884-19.881-9.8728c-0.56467-0.97408-0.847-1.5394-0.847-3.9395v-6.7711h-1.2748v6.7703c0 2.5507 0.30886 3.3513 1.0155 4.5699l0.0462 0.073627c4.715 6.9742 12.543 10.433 20.941 10.433s16.226-3.4588 20.942-10.434l0.044489-0.072781c0.70669-1.2161 1.0155-2.0175 1.0155-4.5699zm-31.593-19.041c0.48298-1.0532 1.0257-2.0785 1.6256-3.0712-0.93236 0.90215-1.7018 1.9555-2.2749 3.1143 0.12149 0.10155 0.24298 0.20734 0.36532 0.3199 0.094111-0.12102 0.18908-0.24204 0.28747-0.36306h-0.0034222zm19.712 26.56 2.1175-1.3126-0.4774-0.75404-1.3235 0.82259-1.9002-5.9088-0.45601-0.72273-2.1175 1.3126 0.4774 0.75404 1.3261-0.82259 1.9002 5.9088 0.45687 0.72273h-0.0034222zm-1.0429-25.444c-1.1122-0.76166-2.766-1.5766-2.766-1.5766-1.1764 1.6393-2.1551 3.6644-2.1551 3.6644 0.57921 1.1966 1.4459 2.5482 1.9224 3.3851 0.64167-0.93092 0.90432-1.8077 1.3039-3.0653 0.29003-0.91314 0.68444-1.4074 1.6949-2.406v-0.0016926zm-9.7944 2.1326s-1.4219-2.2393-2.9089-3.9098c0 0-3.1339 1.3828-4.2889 1.9778l-0.050478 0.84629c0.017967 0.057548 0.42778 0.64656 0.60573 1.2872l0.35249 1.1086c0.041067 0.12525 0.079567 0.23865 0.079567 0.23865 0.078711 0.22765 0.18651 0.50777 0.31741 0.80143 0.11943 0.27112 0.25543 0.5348 0.40724 0.78959 0.11959 0.20059 0.2703 0.38136 0.4466 0.5357l0.014544 0.011848c0.15786 0.13514 0.34441 0.23348 0.54584 0.28774 0.54242 0.14895 1.1516 0.3072 1.8138 0.46546 0 0 1.9772-3.1194 2.6651-4.4396v-8.463e-4zm0.7161-9.536c-1.2486-5.0682e-4 -2.4887 0.20279-3.6703 0.60171l2.168 1.6926s2.6462-0.24796 5.023 0.054162c0.25545-0.41195 0.4567-0.85447 0.59889-1.3168 2.5208 1.1835 4.4968 3.2648 5.5329 5.8275 0.19592-0.18618 0.39356-0.3639 0.58862-0.52724-1.9095-3.8735-5.8844-6.3311-10.241-6.3319zm14.707 29.705 0.63739-0.62541-5.4815-5.4662-0.034222-0.033851-0.63739 0.62541 5.4815 5.4662 0.034222 0.033852zm0.44746-5.9748 2.1705 1.3541-0.37473 0.58817-5.1034-3.1837 0.37559-0.58817 0.68444 0.42907 0.47826-0.75066-0.44403-0.27758c-0.37749-0.23568-0.85342-0.25425-1.2485-0.048718s-0.64931 0.60395-0.66691 1.0452 0.20411 0.8582 0.5816 1.0939l4.62 2.8774c0.58379 0.36386 1.3552 0.19071 1.7231-0.38675 0.36785-0.57746 0.1928-1.3406-0.39099-1.7044l-2.6882-1.6773-0.66391 1.0409 0.76059 0.47477 0.1848-0.29028 0.0017112 0.0042314zm-9.1861 10.777-1.0121-3.2794 0.71867-0.21665c0.21604-0.064616 0.39707-0.21185 0.50292-0.40903 0.10585-0.19718 0.12777-0.42799 0.060887-0.64122l-0.77856-2.5169c-0.10787-0.353-0.4374-0.59395-0.81021-0.59241-0.084678 1.222e-4 -0.16887 0.012671-0.24982 0.037244l-1.5768 0.47054 2.2741 7.3627 0.014544 0.045699 0.85556-0.25896 8.556e-4 -0.0016926zm-1.2756-4.1299-0.74861-2.4255 0.67161-0.20311 0.75032 2.428-0.67332 0.20311v-0.0025389zm-2.3571 4.8458-0.6776-7.719-0.89491 0.077012 0.6776 7.719 0.89491-0.077012zm-3.3837-0.75489-1.5896-0.18703 0.30201-2.5211 1.1926 0.14048 0.10609-0.88352-1.1926-0.14048 0.30287-2.5219 1.5896 0.18957 0.10609-0.88268-1.6384-0.19295c-0.46538-0.053599-0.88663 0.27597-0.94111 0.73627l-0.72209 6.023c-0.053252 0.45948 0.27846 0.8753 0.74262 0.93092l1.6384 0.19211 0.10352-0.88268zm1.0481-11.926c4.2142 7.353e-4 8.0845-2.2997 10.062-5.9807l-0.013689-0.0042314c-0.22501-0.060933-0.55953-0.19126-0.9471-0.34275l-0.055611-0.021157c-0.99314 1.7686-2.4611 3.2312-4.2418 4.2264l-0.9086-2.5279-4.9331 0.13202-1.9318 2.681s0.80764 0.60086 2.2578 1.1078c-2.295-0.020536-4.5256-0.75382-6.3765-2.0963 0.057409-0.047604 0.1117-0.098766 0.16256-0.15318 0 0-1.3364-1.9041-2.1543-3.3555l-0.021389 0.0076166c-0.38757 0.15149-0.72209 0.28181-0.9471 0.34275l-0.013689 0.0042314c1.9779 3.6807 5.8482 5.9808 10.062 5.9799zm-5.2925 11.256-1.5126-0.51454 2.2612-6.4817-0.84614-0.28858-2.5573 7.3204 2.3622 0.80397 0.2926-0.84036v8.463e-4zm-5.3404-5.7708c0.036293 0.0051787 0.072857 0.0082868 0.10951 0.0093091 0.19592 0 0.36276-0.084629 0.5236-0.27081l1.5982-1.8347c0.14781-0.1682 0.22186-0.38767 0.20581-0.60996s-0.12089-0.42913-0.29137-0.57484l-1.25-1.0663-5.1128 5.8698 1.2465 1.0638c0.17029 0.14636 0.39266 0.21931 0.61762 0.20262s0.43384-0.12163 0.58016-0.29148l1.5349-1.7611c0.24383-0.28012 0.32083-0.50777 0.24041-0.73458l-0.0025666-0.0016925zm-0.7007-0.047392-0.021389 0.024542-1.6983 1.9465-0.58178-0.49677 1.7188-1.9727 0.58263 0.49677v0.0016926zm0.54071-0.67026-0.53301-0.45446 1.676-1.9236 0.53301 0.45361-1.676 1.9245zm-3.8697-2.9121 0.40297 0.56955-2.3297 1.613c-0.16484 0.12956-0.29695 0.29529-0.38586 0.48408l-0.013689 0.025389 0.53558 0.75743 0.036789-0.073627c0.085556-0.17772 0.17111-0.34613 0.34222-0.46546l2.1124-1.4624c0.30543-0.21157 0.43719-0.41722 0.4158-0.65333 0.078888 0.032799 0.1634 0.050323 0.24897 0.051624 0.15537-0.005834 0.30497-0.059701 0.42778-0.15402l2.0037-1.3888c0.18511-0.1274 0.31128-0.32249 0.35062-0.54213 0.039336-0.21964-0.011406-0.44574-0.141-0.62828l-0.94624-1.3371-6.4167 4.443 0.51333 0.72781 2.843-1.9668zm0.69043-0.51793 0.026522-0.018618 2.1303-1.4751 0.44061 0.62287-0.027378 0.018618-2.1295 1.4751-0.44061-0.62287zm34.7-18.333 1.2748 0.58648v-12.261h-44.005v12.25l1.2748-0.5924v-10.393h41.455v10.409 8.463e-4z" fill="#001F47"/>
</g>
</g>
</svg>
