<?xml version="1.0" encoding="UTF-8"?>
<svg version="1.1" viewBox="0 0 80 80" xmlns="http://www.w3.org/2000/svg">
<title>1 – Fundamentals/Logos/Clubs/Freiburg SCF</title>
<g fill="none" fill-rule="evenodd">
<rect width="80" height="80"/>
<g transform="translate(20 11)">
<path id="Path" d="m0.72635 29c0-15.609 8.6273-28.263 19.27-28.263 10.643 0 19.27 12.654 19.27 28.263s-8.6273 28.263-19.27 28.263c-10.643 0-19.27-12.654-19.27-28.263z" fill="#fff" fill-rule="nonzero"/>
<path id="a" d="m19.996 58c-11.026 0-19.996-13.009-19.996-29s8.9702-29 19.996-29c11.026 0 19.996 13.009 19.996 29s-8.9702 29-19.996 29zm0-56.526c-10.225 0-18.543 12.348-18.543 27.526s8.3175 27.526 18.543 27.526c10.226 0 18.543-12.348 18.543-27.526s-8.3175-27.526-18.543-27.526z" fill="#000" fill-rule="nonzero"/>
<path id="Path" d="m2.4362 28.953c0-14.668 7.8775-26.558 17.595-26.558s17.595 11.89 17.595 26.558c0 14.668-7.8768 26.557-17.595 26.557s-17.595-11.89-17.595-26.557z" fill="#000" fill-rule="nonzero"/>
<path id="Path" d="m20.031 2.3954c-9.7143 0-17.595 11.89-17.595 26.558 0 9.7015 3.447 18.186 8.593 22.82l17.19-46.331c-2.4457-1.9443-5.2311-3.0469-8.1879-3.0469z" fill="#fff" fill-rule="nonzero"/>
<path d="m20.031 55.744c-9.8279 0-17.823-12.02-17.823-26.791 0-14.771 7.9956-26.79 17.823-26.79s17.824 12.018 17.824 26.79c0 14.772-7.9962 26.791-17.824 26.791zm0-53.114c-9.5759-0.0025778-17.364 11.805-17.364 26.322s7.7905 26.324 17.366 26.324 17.364-11.809 17.364-26.324c0-14.515-7.7898-26.325-17.366-26.325v0.0025778z" fill="#000" fill-rule="nonzero"/>
<path id="Path" d="m21.326 11.144c0.69333 0.91576 1.0083 2.1756 0.7873 3.2944-0.15429 0.81136-0.60571 1.497-0.58159 2.3844-0.1054 0.72564 0.13079 1.4139-0.15746 2.0654-0.060318 0.0928-0.20254 0.23973-0.31746 0.11084-0.17206-0.11084-0.30857-0.40858-0.54476-0.41824-0.37524 0.3016-0.47683 0.76947-0.58159 1.2296-0.20889 0.78364 0.13016 1.5828 0.085079 2.3728-0.020952 0.16627-0.04254 0.33189-0.13333 0.46722-0.040871 0.045006-0.098426 0.070609-0.15873 0.070609s-0.11786-0.025602-0.15873-0.070609c-0.25397-0.24876-0.26349-0.64831-0.59365-0.8236-0.1727 0.030933-0.31175 0.21524-0.36317 0.38087-0.19048 0.16047-0.22159 1.1632-0.23048 1.7703-0.027302 0.66442 0.20317 1.3282 0.085079 1.9675-0.13651 0.11987-0.30286-0.064444-0.46032-0.073467-0.099683-0.064444-0.20635-0.037378-0.30286 0.0116-0.5873 0.94411-0.72381 2.0751-1.0292 3.1352-0.26327 1.4406-0.41969 2.8992-0.46794 4.3635-0.084444 0.12889-0.25397 0.22427-0.41143 0.14758-0.63937-0.44596-0.76635-1.2418-0.8254-1.9552-0.057778-1.131 0.10603-2.2897 0.048254-3.344-0.030476-0.2146-0.0063492-0.5626-0.25397-0.62704-0.0057143 0.030933-0.048254 0.064444-0.072381 0.037378-0.38095 0.28871-0.5181 0.75916-0.73905 1.1677-0.89651 2.164-1.7143 4.3648-2.4952 6.5772-0.063492 0.18431-0.090794 0.43951-0.31746 0.49236-0.39048-0.095378-0.40254-0.54778-0.44762-0.88547-0.33079-2.3883 0.62921-4.6471 1.2229-6.8111-0.039365-0.17851 0.04254-0.33833-0.12127-0.44273l-0.29016 0.024489c-1.7778 1.5892-3.1676 3.498-4.6756 5.3115-0.10349 0.064444-0.20952-0.012244-0.29079-0.074111-0.19048-0.22427-0.10286-0.56518-0.072381-0.83778 0.65651-2.2865 2.1587-4.3062 3.6698-6.1474 0.2-0.33511 0.63492-0.65476 0.37524-1.0569-0.19048-0.13211-0.45143-0.11407-0.65397-0.064444-1.1771 0.46787-2.2959 1.0852-3.4387 1.6569-0.10857 0.018044-0.12698-0.11084-0.16952-0.17207 0.054603-0.71662 0.58159-1.2483 0.99302-1.7709 1.3022-1.238 2.8978-1.9424 4.3968-2.8272 1.5873-0.75013 3.1403-1.5647 4.6273-2.5456 0.22095-0.261 0.43873-0.6264 0.27873-1.0079-0.3454-0.48527-1.021-0.29516-1.5384-0.36862-1.3143 0.015467-2.8165 0.043178-3.8883-0.76238-0.16405-0.15295-0.24135-0.37937-0.20571-0.60256l0.072381-0.048978c1.4781 0.11987 3.0432-0.018689 4.4578-0.012244 0.39619-0.088933 0.88889 0.058 1.2356-0.27067 0.029841-0.27969-0.26349-0.30418-0.41206-0.45498-1.0267-0.4118-2.1587-0.56518-3.2825-0.74949-0.027302-0.043178-0.060318-0.11407-0.012064-0.15982 0.24825-0.28613 0.66286-0.16304 0.99302-0.24618 0.69841-0.039956 1.3511 0.24618 2.0108 0.18431 0.11257-0.058208 0.20218-0.1537 0.25397-0.27067 0.0015435-0.16243-0.03594-0.3228-0.10921-0.46722-0.73905-0.5742-1.699-0.65476-2.6032-0.78622-0.7181 0.0090222-1.4902 0.18109-2.2895 0.13533-0.5327-0.021911-1.0476-0.074111-1.5505 0.048978-0.36952 0.11664-0.48762 0.51556-0.52063 0.86033-0.033651 0.16304 0.22667 0.32222 0.012063 0.44273-0.43937 0.039956-0.88444-0.070889-1.1994-0.38087-0.27556-0.67344-0.24508-1.4448-0.12127-2.1763 0.19048-0.5626 0.87238-0.406 1.2356-0.78687 0.23937-0.59031 0.98095-0.14758 1.2838-0.66378 0.28444-0.28613 0.53333-0.63027 0.92064-0.79911 1.8895 0.1102 3.7702 0.092156 5.6203-0.22169 1.6565-0.3596 3.4521-0.021267 4.421 1.4758l0.0025397-0.0025778z" fill="#000" fill-rule="nonzero"/>
<path id="Path" d="m17.389 11.561c0.10286 0.15724 0.16381 0.41824 0.085079 0.60256-0.19683 0.45111-0.7327 0.40278-1.1263 0.46722-0.2273-0.10762-0.56381-0.14113-0.67873-0.43049-0.090794-0.14113-0.03619-0.34413 0-0.49171 0.15429-0.31642 0.5181-0.47947 0.83619-0.50396 0.31746 0.030933 0.71429 0.012244 0.88381 0.35638z" fill="#fff" fill-rule="nonzero"/>
<path id="Path" d="m10.316 11.832c-0.04254 0.12889-0.22413 0.070889-0.31746 0.048978-0.073016-0.097956-0.32698-0.1566-0.18159-0.3074 0.06673-0.055021 0.14559-0.09283 0.22984-0.1102 0.13651 0.095378 0.24508 0.18689 0.26667 0.36862h0.0025397z" fill="#fff" fill-rule="nonzero"/>
<path id="Path" d="m16.808 11.648c0.1454 0.15982 0.32444 0.23329 0.35111 0.44209-0.26603 0.049622-0.55937 0.25778-0.79937 0.037378-0.11492-0.12309-0.3054-0.26744-0.25397-0.44273 0.0057143-0.070889 0.072381-0.095378 0.13333-0.0986 0.19258-0.0076241 0.3852 0.014099 0.57143 0.064444l-0.0025397-0.0025778z" fill="#1D1D1B" fill-rule="nonzero"/>
<path id="Path" d="m9.6737 12.36c0.23923 0.15141 0.52341 0.21234 0.80254 0.17207 0.13905 0.0064445 0.2146-0.22427 0.36317-0.12244l0.21841 0.27002c-0.69841 0.13533-1.614-0.058-2.1079 0.59031-0.075556 0.2088-0.29397 0.40536-0.27873 0.63929-0.063492-0.0090222-0.13333 0.039956-0.15746-0.048978-0.063492-0.4582-0.18159-0.94089-0.072381-1.4262 0.19683-0.31384 0.54794-0.34478 0.84762-0.45498 0.13333 0.083133 0.21206 0.3074 0.38794 0.38087h-0.0031746z" fill="#fff" fill-rule="nonzero"/>
<path id="Path" d="m20.623 14.328c0.020952 0.68504 0.045079 1.5705-0.53333 2.0036v-0.027067h0.012698c-0.14286-0.23973-0.048254-0.53038-0.036825-0.86033-0.0057142-0.45111-0.084444-0.85131-0.072381-1.2786 0.19048-0.14758 0.60571-0.11729 0.62984 0.15982v0.0025777z" fill="#fff"/>
<path id="Path" d="m19.218 17.045c0.11175 0.30096 0.10984 0.99438 0.10984 0.99438 0.015238 0.34736-0.070476 0.78493-0.25397 1.0092-0.1727-0.6728-0.18159-1.4075-0.46032-2.0777-0.030476-0.15016 0.13587-0.16884 0.20571-0.23329 0.086356-0.027388 0.17823-0.031606 0.26667-0.012244 0.12127 0.073467 0.051429 0.23071 0.13333 0.32222l-0.0012698-0.0025778z" fill="#fff" fill-rule="nonzero"/>
<path id="Path" d="m17.752 19.172c0.13079 0.203 0.16381 0.40278 0.24254 0.62704 0.04254 0.53167 0.10286 1.1097-0.1454 1.5737-0.10286-0.061222-0.093968-0.24296-0.15746-0.34413-0.1454-0.55938-0.27873-1.1864-0.49651-1.7458 0.13927-0.16101 0.36795-0.20653 0.55683-0.11084z" fill="#fff" fill-rule="nonzero"/>
<path id="Path" d="m14.168 22.298c-1.8622 0.68827-3.7613 1.4532-5.5238 2.3232 1.7403-1.7439 4.946-2.9335 5.3898-3.0244 0.16635 0.19656 0.18159 0.47302 0.13333 0.70116h6.35e-4z" fill="#fff" fill-rule="nonzero"/>
<path id="Path" d="m16.79 23.581c-0.26095 0.88547-0.77778 4.5756-0.92317 6.6545-0.27429-2.5372-0.41714-4.1476 0.21397-6.7976 0.24635-0.060578 0.61206 0.047044 0.70921 0.14307z" fill="#fff" fill-rule="nonzero"/>
<path id="Path" d="m13.791 23.819c-1.4438 1.557-3.7879 4.4679-5.6324 6.6507 1.0571-2.5707 3.7879-6.1319 5.0425-6.9851 0.28698-0.0696 0.50032 0.12438 0.58984 0.33447z" fill="#fff" fill-rule="nonzero"/>
<path id="Path" d="m14.939 24.394c-1.3022 2.9838-2.2571 5.1349-3.3765 8.5711 0.37778-3.7281 1.5238-6.8614 2.7467-8.8527 0.23873-0.0928 0.48127 0.11536 0.62984 0.28098v6.444e-4z" fill="#fff" fill-rule="nonzero"/>
<path id="Path" d="m32.851 34.752c-1.5934-3.0274-5.0533-4.5145-8.3041-3.5691-3.2508 0.94531-5.41 4.0663-5.1823 7.4909s2.7804 6.2228 6.1269 6.7163 6.5781-1.4519 7.7564-4.6692h1.1987c-1.2136 3.892-4.9943 6.3474-8.9844 5.8351-3.9901-0.51225-7.0494-3.8458-7.2701-7.9219-0.22069-4.0761 2.4603-7.7298 6.3711-8.6828 3.9108-0.95297 7.9338 1.0672 9.5603 4.8007h-1.2698-0.0025397z" fill="#fff" fill-rule="nonzero"/>
<path id="b" d="m25.258 35.049h5.2635v1.006h-4.2813v2.9h4.1562v1.0614h-4.1562v4.5897c-0.24635 0-0.76698 0.0045111-0.98222 0.0045111v-9.5616z" fill="#fff" fill-rule="nonzero"/>
<path d="m29.279 34.018c-0.48635-1.0614-1.7232-1.8264-2.866-1.8264-1.6286 0-3.0629 1.16-3.0629 2.8871 0 1.925 1.7505 2.5913 3.2819 3.1578 1.1187 0.3944 2.1886 0.83778 2.1886 2.2452 0.0046221 0.6832-0.26112 1.3397-0.73762 1.8223-0.4765 0.48256-1.1239 0.7508-1.797 0.74457-1.4832 0-2.3822-0.9628-2.7937-2.32l-1.0698 0.34542c0.46159 1.8508 1.9937 3.0108 3.8654 3.0108 2.0178 0 3.6229-1.4558 3.6229-3.5535 0-4.1244-5.4705-2.7892-5.4705-5.528 0-0.98664 0.9727-1.7767 1.9206-1.7767 0.87492 0 1.6044 0.49364 1.9683 1.2831l0.94794-0.493 0.0019048 0.0012889z" fill="#fff" fill-rule="nonzero"/>
</g>
</g>
</svg>
