<?xml version="1.0" encoding="UTF-8" standalone="no"?>
<svg
   xmlns:dc="http://purl.org/dc/elements/1.1/"
   xmlns:cc="http://creativecommons.org/ns#"
   xmlns:rdf="http://www.w3.org/1999/02/22-rdf-syntax-ns#"
   xmlns:svg="http://www.w3.org/2000/svg"
   xmlns="http://www.w3.org/2000/svg"
   xmlns:sodipodi="http://sodipodi.sourceforge.net/DTD/sodipodi-0.dtd"
   xmlns:inkscape="http://www.inkscape.org/namespaces/inkscape"
   version="1.1"
   id="svg2"
   xml:space="preserve"
   width="1333.3333"
   height="1333.3333"
   viewBox="0 0 1333.3333 1333.3333"
   sodipodi:docname="SVW_Standard_Logo_RGB.eps"><metadata
     id="metadata8"><rdf:RDF><cc:Work
         rdf:about=""><dc:format>image/svg+xml</dc:format><dc:type
           rdf:resource="http://purl.org/dc/dcmitype/StillImage" /></cc:Work></rdf:RDF></metadata><defs
     id="defs6" /><sodipodi:namedview
     pagecolor="#ffffff"
     bordercolor="#666666"
     borderopacity="1"
     objecttolerance="10"
     gridtolerance="10"
     guidetolerance="10"
     inkscape:pageopacity="0"
     inkscape:pageshadow="2"
     inkscape:window-width="640"
     inkscape:window-height="480"
     id="namedview4" /><g
     id="g10"
     inkscape:groupmode="layer"
     inkscape:label="ink_ext_XXXXXX"
     transform="matrix(1.3333333,0,0,-1.3333333,0,1333.3333)"><g
       id="g12"
       transform="scale(0.1)"><path
         d="M 5000,9500 2000,5000 5000,500 8000,5000 5000,9500"
         style="fill:#28844a;fill-opacity:1;fill-rule:nonzero;stroke:none"
         id="path14" /><path
         d="m 3377.98,5617.86 c 0,214.17 25.27,500.36 160.33,768.12 91.96,182.49 265.9,364.45 535.41,350.32 97.95,-5.1 395.86,-74.39 398.1,-405.83 0.73,-154.65 -92.44,-437.59 -510.29,-437.59 0,0 -51.88,-413.7 -51.88,-629.32 0,-191.73 3.89,-1052.44 321.54,-1729.21 l 759.72,1686.98 723.84,-1691.14 c 0,0 306,752.36 306,1398.9 0,637.16 -177.52,1066.83 -326.04,1294.33 -212.21,325.45 -485.3,438.49 -611.52,429.68 0,0 -136.84,-133.78 -345.91,-119.05 -254.54,18 -410.38,198.18 -413.67,433.67 -3.14,195.66 129.07,413.9 329.61,542.11 188.59,120.6 524.04,109.13 739.84,41.99 347.72,-108.16 645.64,-486.77 799.66,-762.07 145.67,-260.21 298.21,-781.76 299.27,-1462.69 1.19,-566.49 -205.04,-1428.18 -467.37,-2083.65 -256.64,-640.96 -407.84,-903.18 -407.84,-903.18 L 4990.91,3603.92 4371.46,2339.07 c 0,0 -594.17,1254.72 -751.65,1828.44 -157.63,573.83 -241.83,1246.69 -241.83,1450.35"
         style="fill:#ffffff;fill-opacity:1;fill-rule:nonzero;stroke:none"
         id="path16" /><path
         d="M 2384.26,5000 4999.99,1076.44 7615.73,5000 4999.99,8923.57 Z M 4999.99,758.441 2172.29,5000 4999.99,9241.55 7827.71,5000 4999.99,758.441"
         style="fill:#ffffff;fill-opacity:1;fill-rule:nonzero;stroke:none"
         id="path18" /></g></g></svg>
