<?xml version="1.0" encoding="UTF-8"?>
<svg version="1.1" viewBox="0 0 80 80" xmlns="http://www.w3.org/2000/svg">
<title>1 – Fundamentals/Logos/Clubs/Hoffenheim TSG</title>
<g fill="none" fill-rule="evenodd">
<rect width="80" height="80"/>
<g transform="translate(15 11)" fill-rule="nonzero">
<path id="Path" d="m49.576 34.982-0.011273-0.082489-0.48475-0.49944c-4.319-4.562-6.3588-9.0532-6.0511-13.356 0.39191-5.4823 4.5756-8.8437 4.6154-8.8766l0.57029-0.44402-3.1578-7.5986-0.98408 0.58644c-0.027852 0.016756-2.8594 1.662-6.817 1.662-4.1611 0-8.0564-1.74-11.578-5.1665l-0.69164-0.67409-0.69164 0.67409c-3.5212 3.4278-7.4164 5.1665-11.578 5.1665-3.9735 0-6.7865-1.644-6.8156-1.6601l-0.98475-0.59353-2.8846 6.9445-0.27188 0.65798 0.56698 0.44467c0.04244 0.032867 4.2248 3.3885 4.6167 8.8772 0.313 4.3726-1.7905 8.9404-6.2613 13.576l-0.28117 0.29709 0.023873 0.23458c-0.013926 0.10633 1.5133 11.373 12.064 14.07 9.1359 2.3348 11.615 6.4341 11.637 6.4722l0.84814 1.5248 0.86804-1.5196c0.023873-0.0406 2.5093-4.1244 11.642-6.4773 5.3714-1.3836 8.3641-5.0267 9.9317-7.8448 1.6479-2.9593 2.2122-5.992 2.1592-6.3942z" fill="#fff"/>
<path id="Shape" d="m24.971 58-1.1817-2.1267c-0.027188-0.043822-0.65517-1.0388-2.3455-2.2949-1.5749-1.1703-4.4244-2.8143-9.0524-3.9956-2.4189-0.60532-4.6496-1.7746-6.4987-3.4065-1.4748-1.3031-2.7328-2.9142-3.7387-4.7895-1.5955-2.9696-2.061-5.6776-2.1088-6.2002h-0.005305l-0.040451-0.40084 0.39788-0.42082c4.3939-4.5588 6.4655-9.0312 6.1605-13.296-0.37865-5.2999-4.4363-8.5788-4.4748-8.6111l-0.78846-0.61867 0.37798-0.91576 3.057-7.3596 1.3767 0.82876c0.024536 0.014178 2.7772 1.6034 6.6107 1.6034 4.0544 0 7.8574-1.7007 11.304-5.0563l0.96618-0.94024 0.96485 0.94089c3.4483 3.355 7.2493 5.0557 11.304 5.0557 3.8196 0 6.5895-1.5911 6.6174-1.6072l1.3707-0.81909 3.4377 8.2714-0.79576 0.61867c-0.037798 0.030289-4.0942 3.3279-4.4715 8.6098-0.29973 4.1953 1.7023 8.5943 5.9496 13.074l0.5683 0.5858 0.026525 0.203c0.073608 0.55358-0.56897 3.6888-2.2016 6.621-1.6034 2.8807-4.6704 6.6114-10.172 8.0298-2.555 0.65798-6.2003 1.8876-9.0564 4.0072-1.687 1.2528-2.3176 2.2427-2.3495 2.2936l-1.2076 2.1151zm-24.156-22.841c0.07626 0.57356 1.7241 11.13 11.774 13.698 2.6412 0.67538 6.4125 1.9456 9.3733 4.1631 1.8442 1.3804 2.4954 2.476 2.502 2.4869l0.0033156 0.0064444 0.5126 0.92091 0.5252-0.91898c0.0086207-0.014822 0.66313-1.1084 2.5073-2.4869 1.6353-1.2244 4.5889-2.9387 9.374-4.1715 5.2347-1.3495 8.1565-4.9107 9.6903-7.6605 1.5192-2.7279 2.122-5.6112 2.1167-6.1325l-0.39791-0.40664c-4.4012-4.64-6.4708-9.2297-6.1558-13.64 0.20889-2.9206 1.4788-5.24 2.508-6.6713 1.134-1.5776 2.2374-2.4618 2.2487-2.4708l0.34881-0.27131-2.876-6.9278-0.59682 0.35444c-0.031167 0.018689-2.9609 1.7174-7.0199 1.7174-4.2672 0-8.2546-1.7754-11.851-5.2767l-0.41777-0.40729-0.41777 0.40729c-3.5968 3.5013-7.5842 5.2767-11.851 5.2767-4.069 0-6.9834-1.6975-7.0113-1.7149l-0.59682-0.3596-2.7149 6.5308-0.16512 0.39891 0.34416 0.27002c0.043103 0.033511 4.3548 3.4684 4.7599 9.144 0.32095 4.4808-1.821 9.144-6.366 13.859l-0.1618 0.17013 0.011273 0.1102 0.0013263 0.0019334z" fill="#1F5DA6"/>
<path id="b" d="m36.955 24.957-1.6333-1.3288c-0.091512-0.074756-0.31565-0.28871-0.31499-0.47882 0-0.17271 0.03382-0.21847 0.15849-0.36282 0.26525-0.30804 0.54841-0.18947 0.79576 0.010311l1.6797 1.3694 0.33156-0.38216-1.8455-1.5009c-0.57162-0.46529-0.97215-0.11664-1.1857 0.12889-0.18568 0.21396-0.3183 0.47109-0.17175 0.81329-0.29775-0.091511-0.60279 0.0812-0.78846 0.29516-0.2374 0.27518-0.31963 0.54971-0.15716 0.87258l-0.0079575 0.0096667-0.30239-0.24682-0.3508 0.40536c0.18037 0.12309 0.3561 0.25069 0.52454 0.38667l1.9231 1.5641 0.33156-0.38216-1.634-1.3288c-0.12453-0.10107-0.2206-0.23124-0.27918-0.37829-0.04244-0.12889 0.022546-0.34736 0.12334-0.46336 0.26525-0.30804 0.54841-0.18947 0.79576 0.010311l1.6771 1.3694 0.33024-0.38216zm-5.3004 0.12889 0.37069-0.42856-0.42241-0.34413-0.37135 0.42856 0.42308 0.34413zm0.97149 0.096022-0.33156 0.38216 2.4271 1.9739 0.33156-0.38216-2.4271-1.9739zm0.5504 2.0042-0.2069-0.1682c-0.80239-0.65282-1.3263-0.7946-1.9078-0.12309-0.70557 0.81522-0.18767 1.3714 0.52321 1.9501 1.0716 0.87193 1.5683 0.60062 2 0.10182s0.46021-1.0144-0.073607-1.4571l-0.3634 0.41953c0.23342 0.21331 0.33156 0.52458 0.10676 0.78493-0.25796 0.29838-0.54576 0.36604-1.2235-0.18496l1.1452-1.323zm-1.443 1.0807c-0.6691-0.55229-0.61605-0.85002-0.40584-1.0923 0.24204-0.27969 0.49403-0.4002 1.2003 0.174l-0.79443 0.91833zm0.64191 1.983-1.7202-1.3997c-0.54775-0.44531-0.94828-0.38989-1.2951 0.010956-0.26525 0.3074-0.34284 0.54713-0.19231 0.93122l-0.015915 0.018689-1.3548-1.1026-0.33156 0.38216 3.4695 2.8227 0.33156-0.38216-1.4277-1.16c-0.40849-0.33189-0.64058-0.68762-0.31034-1.0698 0.28249-0.32609 0.57427-0.24747 0.87268-0.0051556l1.6432 1.3372 0.3309-0.38344zm-1.9377 2.2362-1.6817-1.3682c-0.48077-0.39053-0.90186-0.51878-1.3375-0.016111-0.26194 0.30289-0.33156 0.55036-0.18369 0.9222l-0.016578 0.018689-0.31233-0.25391-0.3508 0.40536c0.18037 0.12244 0.35676 0.25004 0.52454 0.38667l1.9231 1.5634 0.33156-0.38216-1.437-1.1684c-0.33156-0.27002-0.66313-0.64444-0.3004-1.0627 0.28183-0.32609 0.57029-0.24231 0.82958-0.031578l1.6797 1.3669 0.33156-0.38022zm-2.9894 1.316-0.20623-0.1682c-0.80305-0.65282-1.3263-0.79396-1.9085-0.12309-0.70557 0.81522-0.18767 1.3714 0.52321 1.9501 1.0716 0.87193 1.5683 0.60127 2 0.10247s0.45889-1.015-0.071618-1.4571l-0.36273 0.41889c0.23276 0.21331 0.33156 0.52458 0.1061 0.78558-0.25796 0.29838-0.54576 0.3654-1.2235-0.1856l1.1432-1.323zm-1.443 1.0807c-0.6691-0.55229-0.61538-0.85002-0.40584-1.0923 0.24204-0.27969 0.49337-0.4002 1.2003 0.17464l-0.79443 0.91769zm-2.6598 1.0202 0.29775 0.24231 0.31499-0.36347 2.1286 1.7316 0.33156-0.38216-2.1293-1.7316 0.41114-0.47496-0.29708-0.24231-0.41114 0.47496-0.41313-0.3364c-0.19894-0.15982-0.31432-0.37442 0.066313-0.75658l-0.28448-0.23136c-0.062592 0.051374-0.12009 0.10833-0.17175 0.17013-0.29443 0.34027-0.48873 0.75336 0 1.1523l0.47082 0.38667-0.31432 0.36089zm-1.1207 1.2953 0.29775 0.24231 0.31432-0.36347 2.1293 1.7316 0.33156-0.38216-2.1286-1.7316 0.41114-0.4756-0.29775-0.24167-0.4118 0.47496-0.41313-0.3364c-0.19894-0.16047-0.31432-0.37507 0.066313-0.75658l-0.28382-0.23071c-0.06243 0.051543-0.11992 0.10849-0.17175 0.17013-0.29443 0.34027-0.48873 0.754 0 1.1523l0.47082 0.38667-0.31432 0.36024zm1.4304 3.2222c0.43103-0.49816 0.62003-1.0195-0.45159-1.8914-0.71088-0.58-1.366-0.97633-2.0716-0.16111s-0.18767 1.372 0.52321 1.9507c1.0716 0.87193 1.5683 0.60062 2 0.10182m-0.32228-0.26164c-0.34284 0.39633-0.71088 0.26358-1.4987-0.37829-0.66313-0.5394-0.63395-0.85647-0.37997-1.1503 0.25398-0.29387 0.57162-0.37636 1.2347 0.16304 0.7878 0.64444 0.98674 0.96667 0.6439 1.3656m-2.3117 3.2119-1.5855-1.2889 1.0199-1.1787 1.5862 1.2889 0.37069-0.42856-3.4695-2.8227-0.37533 0.42791 1.4993 1.2199-1.0206 1.1787-1.4993-1.2199-0.37069 0.42856 3.4695 2.8227 0.37533-0.42791z" fill="#1F5DA6"/>
<path id="Path" d="m29.645 17.439c-0.2931-0.23844-0.63859-0.26551-0.88462 0.018689-0.28581 0.3306-0.11671 0.67473 0.13793 0.8816 0.11538 0.094089 0.55637 0.39762 0.90716-0.0077333 0.3004-0.34478 0.074934-0.70116-0.16048-0.89256z" fill="#1F5DA6"/>
<path id="Path" d="m26.438 23.844c-0.12534-0.10999-0.29192-0.1647-0.46023-0.15116-0.16831 0.013549-0.32335 0.09415-0.42836 0.22269-0.23408 0.27002-0.19164 0.638 0.091512 0.86807 0.34151 0.27776 0.71353 0.15982 0.90716-0.064444 0.1691-0.19784 0.26459-0.57291-0.11008-0.87516z" fill="#1F5DA6"/>
<path id="a" d="m27.321 20.123c-0.2931-0.23844-0.63859-0.26551-0.88462 0.018689-0.28647 0.33124-0.11737 0.67473 0.13727 0.88224 0.11538 0.094089 0.55703 0.39762 0.90782-0.0077333 0.30371-0.34478 0.076923-0.7018-0.16048-0.8932z" fill="#1F5DA6"/>
<path d="m24.131 22.742c-0.19894 0.23264-0.20358 0.5568 0.051061 0.76367 0.11268 0.098217 0.26219 0.14668 0.41298 0.13386 0.15079-0.012822 0.28937-0.085781 0.38278-0.20152 0.20557-0.23716 0.21552-0.57033-0.053714-0.78944-0.26923-0.21911-0.60345-0.12567-0.7931 0.093444z" fill="#1F5DA6"/>
<path d="m44.527 5.6956-0.35477 0.174c-0.9622 0.47173-3.5617 1.5692-6.9164 1.5692-4.3263 0-8.3687-1.7348-12.015-5.1556l-0.25398-0.2378-0.25199 0.23716c-3.6472 3.4214-7.6883 5.1556-12.015 5.1556-3.3647 0-5.9582-1.0956-6.9171-1.5692l-0.35477-0.17464-2.366 5.6917 0.18634 0.16627c1.0272 0.9164 4.4058 4.303 4.7706 9.4173 0.33156 4.6162-1.8117 9.387-6.366 14.181l-0.12334 0.12889 0.032493 0.174c0.2805 1.5164 1.8866 8.421 8.2122 11.624l35.179-40.311-0.44562-1.0711zm-29.059 32.733-2.8979-2.3574-0.86671 1.0015-0.57692-0.46916 2.3634-2.7299 0.57626 0.46916-0.86671 1.0015 2.8979 2.3561-0.62931 0.72822zm2.8919-3.181c-1.1167 1.2889-1.9801 0.60384-2.321 0.33511l0.63727-0.73596c0.16313 0.13276 0.64987 0.54456 1.1863-0.0754 0.33886-0.39118 0.36008-0.7946 0.066313-1.0311-0.30769-0.25004-0.54178-0.083133-1.0186 0.25778-0.89987 0.63349-1.5252 0.87193-2.122 0.38667-0.57228-0.46529-0.73408-1.2721 0.07626-2.2085 0.30239-0.34929 0.74337-0.69729 1.2878-0.68311 0.41512 0.012244 0.69363 0.23909 0.80902 0.33253l-0.6008 0.69471c-0.12798-0.088933-0.5683-0.38344-1 0.11471-0.29045 0.33576-0.29244 0.70889-0.0092838 0.93767 0.32228 0.26164 0.59682 0.064444 1.1379-0.32222 0.64788-0.46529 1.3077-0.90222 1.9854-0.35444 0.62334 0.50589 0.68966 1.4197-0.11472 2.3516zm3.1916-3.6985c-0.66313 0.76882-1.2003 1.0079-1.6989 1.055-0.70623 0.068311-1.3196-0.31127-1.685-0.60836-1.2301-1.0008-1.2427-2.282-0.36008-3.3021 0.37533-0.43371 0.88727-0.77913 1.429-0.79073 0.45822-0.0083778 0.74403 0.20042 0.93568 0.348l-0.64788 0.74949c-0.12241-0.10249-0.272-0.16948-0.4317-0.19333-0.35146-0.047689-0.61936 0.18624-0.75663 0.34478-0.71021 0.82038-0.062997 1.624 0.47016 2.0584 0.23607 0.19333 0.687 0.50267 1.1744 0.47882 0.33753-0.010956 0.6366-0.14887 0.98342-0.54971 0.30239-0.34929 0.36406-0.50589 0.40849-0.60449l-0.72944-0.59418-0.56499 0.65218-0.57626-0.46916 1.1877-1.3727 1.7361 1.4094c-0.10942 0.27067-0.2878 0.71276-0.87401 1.3888zm3.4483-4.1302-2.6127-2.1228c-0.029807 0.37675-0.10686 0.74856-0.22944 1.1072l-0.66777-0.54327c0.12814-0.4144 0.20909-0.84121 0.24138-1.2728l0.51989-0.60062 3.3541 2.7286-0.60544 0.70373zm2.0252-2.2362c-0.57228 0.6612-1.4045 0.76238-1.943 0.32222-0.22543-0.17499-0.36379-0.43478-0.38064-0.71469-0.013286-0.21699 0.028382-0.43384 0.12135-0.63156-0.1943 0.11987-0.72944 0.45433-1.2487 0.032222-0.40849-0.33189-0.65053-1.0956 0.035146-1.885 0.56432-0.65218 1.3395-0.79138 1.8634-0.3654 0.40385 0.32867 0.41645 0.86291 0.18302 1.2367 0.15119-0.099244 0.39788-0.27131 0.79576-0.24038 0.23233 0.019138 0.45243 0.10939 0.62865 0.25778 0.61406 0.50202 0.4947 1.3495-0.058355 1.9881h0.0033156zm2.244-2.5739c-0.15716 0.18173-0.87135 1.0066-1.7507 0.29129l0.60942-0.70373c0.21751 0.14564 0.45159 0.12116 0.62069-0.074111 0.4191-0.48462-0.066313-0.94411-0.54111-1.3056 0.019444 0.28366-0.080612 0.5628-0.27719 0.77333-0.68966 0.79653-1.5206 0.4698-1.9191 0.145-0.62467-0.50782-0.72546-1.3282-0.10477-2.0461 0.96817-1.1181 2.0875-0.25778 2.626 0.18302 1.4145 1.1555 1.4145 1.9494 0.73342 2.737h0.0033157zm2.321-2.6835c-0.15782 0.18173-0.87268 1.0066-1.7493 0.29129l0.60875-0.70373c0.21817 0.145 0.45159 0.12116 0.62135-0.074111 0.4191-0.48527-0.066313-0.94411-0.54111-1.3056 0.01911 0.28373-0.081169 0.56283-0.27785 0.77333-0.68899 0.79653-1.5199 0.4698-1.9191 0.14564-0.62467-0.50847-0.72546-1.3288-0.10411-2.0461 0.96751-1.1181 2.0875-0.25778 2.626 0.18302 1.4145 1.1548 1.4151 1.9514 0.73342 2.7363h0.0019894z" fill="#1F5DA6"/>
</g>
</g>
</svg>
