<?xml version="1.0" encoding="UTF-8"?>
<svg version="1.1" viewBox="0 0 80 80" xmlns="http://www.w3.org/2000/svg">
<title>1 – Fundamentals/Logos/Clubs/Stuttgart VFB</title>
<g fill="none" fill-rule="evenodd">
<rect width="80" height="80"/>
<g transform="translate(14 11)" fill-rule="nonzero">
<path id="Path" d="m0.017376 0v1.0382c-0.0032178 0.56904-0.0064356 1.1529-0.0090099 1.7548-0.0083663 2.273-0.022525 4.8488 0.044406 7.5735 0.1152 4.6619 0.40995 10.068 1.7248 14.808 1.6334 5.8876 4.0332 11.075 7.3418 15.866 3.9792 5.7633 9.445 11.308 16.247 16.482l0.62812 0.47818 0.62876-0.47818c6.8005-5.1723 12.266-10.718 16.246-16.481 3.3086-4.7914 5.7103-9.9812 7.3424-15.866 1.3862-5.0002 1.6495-10.546 1.7241-14.816 0.032822-1.8418 0.02703-3.576 0.021881-5.2529-0.0051486-1.4287-0.0090099-2.7782 0.01094-4.0465l0.017376-1.0595h-1.0561-49.876-1.0361z" fill="#fff"/>
<path id="Path" d="m25.994 56.694c-7.2131-5.4868-12.356-10.938-16.019-16.245-3.7095-5.3702-5.8268-10.611-7.197-15.552-1.264-4.5588-1.5671-9.7227-1.6842-14.555-0.084307-3.4156-0.043762-6.543-0.037327-9.3006h49.876c-0.043762 2.7569 0.02703 5.8825-0.032822 9.298-0.084307 4.8333-0.42282 9.9966-1.6868 14.555-1.3701 4.9397-3.4868 10.182-7.1957 15.553-3.6677 5.3089-8.8098 10.76-16.023 16.247z" fill="#D30029"/>
<path id="Path" d="m2.0903 2.0835c0.21238 13.215-2.8182 33.028 23.904 53.355 26.722-20.324 23.692-40.137 23.904-53.352h-47.808v-0.0025778z" fill="#fff"/>
<path id="Shape" d="m36.112 29.04 0.68411-0.082489c0.01081 0.1498 0.073124 0.29122 0.17634 0.4002 0.097588 0.093112 0.22866 0.14271 0.36335 0.13749 0.13469-0.0052203 0.26154-0.064811 0.35165-0.1652 0.10534-0.12583 0.15875-0.28718 0.14931-0.45111 0.0082367-0.15405-0.042906-0.30538-0.14287-0.42276-0.088255-0.10045-0.21585-0.1574-0.34946-0.15596-0.10914 0.0031503-0.21736 0.020923-0.32178 0.052844l0.077871-0.57678c0.19307 0.0051556 0.33658-0.036089 0.43762-0.12438 0.10053-0.08834 0.15586-0.2174 0.15059-0.35122 0.0078576-0.10996-0.032168-0.21795-0.10977-0.29614-0.077598-0.078198-0.18518-0.11896-0.29504-0.11179-0.11626-0.0012543-0.22794 0.045341-0.30891 0.12889-0.093155 0.10048-0.14825 0.23043-0.15574 0.36733l-0.65129-0.11084c0.032318-0.19017 0.10211-0.372 0.2053-0.53489 0.096348-0.13773 0.22826-0.24665 0.38163-0.31513 0.17239-0.077953 0.35983-0.1169 0.54896-0.11407 0.34795 0 0.62683 0.11084 0.83663 0.33253 0.16431 0.16205 0.25701 0.38322 0.25743 0.61416 0 0.32351-0.17698 0.58129-0.53094 0.77333 0.1998 0.038142 0.37955 0.14618 0.50713 0.30482 0.1276 0.16239 0.19432 0.36443 0.18856 0.57098 0.0047171 0.3137-0.12369 0.61467-0.35332 0.82811-0.47989 0.43664-1.2054 0.45958-1.7119 0.054133-0.22159-0.1916-0.36006-0.462-0.38614-0.754l6.435e-4 0.0019334zm-1.2228-1.4178c0-0.22813-0.053416-0.40536-0.15767-0.53167-0.085601-0.11568-0.21986-0.18517-0.36361-0.18818-0.12537-0.0010383-0.24417 0.056064-0.32178 0.15467-0.085808 0.10397-0.12871 0.27303-0.12871 0.50718 0 0.23415 0.04698 0.40922 0.14094 0.52522 0.084614 0.10469 0.21152 0.16605 0.34601 0.1673s0.26251-0.057746 0.34904-0.16085c0.092673-0.10762 0.1403-0.26551 0.1403-0.47367h-0.0045049zm-1.5999 1.5467 0.68411-0.0754c0.005732 0.11495 0.05124 0.22432 0.12871 0.30933 0.076009 0.069434 0.17655 0.10562 0.27931 0.10053 0.14945-0.0017779 0.28849-0.076935 0.37198-0.20107 0.10211-0.13447 0.16754-0.41373 0.19629-0.83778-0.16356 0.19947-0.40903 0.31335-0.66673 0.30933-0.28676 0.0016002-0.56027-0.12078-0.7504-0.33576-0.21066-0.22427-0.31578-0.51599-0.31535-0.87516 0-0.37378 0.11091-0.67452 0.33272-0.90222 0.24085-0.23519 0.56876-0.35908 0.90473-0.34184 0.33597 0.017249 0.64951 0.17408 0.86507 0.4327 0.23941 0.28957 0.35911 0.76581 0.35911 1.4287 0 0.67409-0.12485 1.1606-0.37455 1.4597-0.23735 0.29462-0.59841 0.46145-0.97629 0.45111-0.28703 0-0.52064-0.077333-0.69827-0.23071-0.17762-0.15338-0.29218-0.3828-0.34238-0.68827l0.0019307-0.0032223zm-16.501-0.26938c-0.0099013 0.16547 0.043744 0.32847 0.14995 0.45562 0.095054 0.1055 0.23141 0.16412 0.37327 0.16047 0.13789 0.0032489 0.27021-0.054512 0.36168-0.15789 0.096106-0.10483 0.14394-0.25627 0.14351-0.45433 0.0072503-0.15271-0.045145-0.30225-0.14609-0.41696-0.094398-0.10377-0.22928-0.16119-0.36941-0.15724-0.15076-0.010714-0.2965 0.056658-0.38614 0.17851-0.082653 0.11202-0.12772 0.24739-0.12871 0.38667l0.0019307 0.0051556zm0.064356-1.5808c-0.0070481 0.12147 0.035991 0.24051 0.11906 0.32931 0.08558 0.081401 0.20067 0.12424 0.31856 0.11858 0.1191 0.0056787 0.23534-0.037624 0.32178-0.11987 0.084105-0.089017 0.12767-0.20892 0.12035-0.33124 0.0073648-0.11788-0.036008-0.23327-0.11916-0.31703s-0.19813-0.12787-0.31589-0.12119c-0.11921-0.0048836-0.23531 0.03883-0.32178 0.12116-0.083093 0.085991-0.1267 0.20273-0.12035 0.32222l-0.0025743-0.0019334zm-0.14609 0.71211c-0.3195-0.11552-0.52978-0.4223-0.52257-0.76238-0.0072062-0.25864 0.097698-0.50774 0.28767-0.68311 0.19178-0.17916 0.46465-0.26873 0.81861-0.26873s0.62576 0.089578 0.8154 0.26873c0.19159 0.17448 0.29779 0.42387 0.29089 0.68311 0.0022579 0.16232-0.044391 0.32154-0.13386 0.45691-0.09234 0.1363-0.22256 0.24251-0.37455 0.30547 0.18842 0.069907 0.35115 0.19555 0.46658 0.36024 0.10738 0.16102 0.16327 0.35096 0.16025 0.54456 0.012076 0.31029-0.106 0.61149-0.32564 0.83069-0.2171 0.21481-0.50584 0.32222-0.86624 0.32222-0.30105 0.011043-0.59664-0.082538-0.83663-0.26487-0.26515-0.21009-0.39772-0.49644-0.39772-0.85904-0.0017088-0.19342 0.04972-0.38359 0.14866-0.54971 0.10975-0.17621 0.27374-0.31192 0.46723-0.38667l0.0019307 0.0025778zm-1.6623 1.992h-0.70792v-2.6693c-0.26118 0.24366-0.57276 0.42672-0.91257 0.53618v-0.64444c0.21805-0.079788 0.42106-0.19592 0.60045-0.34349 0.20185-0.15014 0.3566-0.35497 0.44599-0.59031h0.57213v3.7062l0.0019307 0.0051555z" fill="#D30029"/>
<path id="b" d="m39.005 4.274c-1.9352-0.81007-3.9862-0.7656-5.4845 0.10053-1.3219 0.76431-2.2151 2.1679-2.2267 4.1889-0.026324 0.43163-0.12827 0.85526-0.30119 1.2515l-0.011584-0.015467c-0.6545 1.0833-1.746 2.166-2.9694 2.0738-0.21881-1.0923-0.93896-2.5816-1.6308-3.5322 0.7446 0.038667 1.9667 0.8236 2.2312 1.3888 0.61203-0.66571 1.4802-2.32 1.2826-3.6585-1.2163 0-2.3986-0.28356-3.6149-0.80491 0 0.81973-1.4261 2.7956-2.414 3.2422 0.4949 0.73467 0.91064 2.331 0.89069 3.761-0.73238 0.60062-1.6977 0.70889-2.4758 0.696-0.59594-0.92736-1.3991-1.6111-1.41-2.775-0.010941-1.2077 1.179-2.9445 2.4603-4.0703l-0.63649-0.79524c-0.80188 0.27711-1.4873 0.73918-2.0929 1.3462l-0.032822-0.0464c-0.73109-1.0608-1.988-2.9644-3.8112-3.4001-0.52257 0.18044-1.2395 1.2779-1.773 2.4012-1.9642 0.40213-3.5242 1.8264-4.1729 3.0289-0.67703-0.56647-1.1629-1.16-1.1983-1.9082-0.095891-2.0429 2.564-1.7078 3.8672-1.1213l0.010941-1.4822c-1.9391-0.81071-3.9869-0.76624-5.4851 0.099889-1.3212 0.76431-2.2139 2.1679-2.2267 4.1882 0 1.3785-0.8495 2.4863-2.6322 3.0701 0.7755 0.34027 1.8438 0.079911 3.27-0.34478-0.69505 0.97698-1.5336 1.4822-3.2732 1.856 1.087 0.37507 2.7738 0.2262 4.3029-0.2726-0.39579 0.86162-1.7061 1.6047-4.1658 1.8921 2.1476 0.71662 3.185 0.48462 5.3976-0.17336 3.0949-0.92027 5.1048 1.6021 1.4937 2.4779-0.87653 0.21267-1.9494-0.18109-3.0286-0.6322l-1.0297 1.258c1.4126 0.73402 3.8376 1.3069 4.9889 1.285 3.5357-0.064444 4.9953-2.8671 4.1143-5.6834-0.56119-1.7941-2.1469-2.8459-3.4894-3.8112 1.1816-1.6111 5.431-3.4678 6.9428 0.28871-0.67767 1.6034-0.98208 3.3157-0.91708 4.5756 0.11649 2.2556 2.4327 4.3629 0.95891 5.4965-0.35847 0.25327-1.2871 0.63091-1.995 0.85711-3.0737-0.1798-4.9336-1.7593-7.2813-1.8689-1.7595-0.083778-3.1593 0.070889-4.0609 1.3952-1.2781 1.8786-0.12292 5.0215 2.6901 5.0769 0.030891-1.1168 0.30569-1.7129 0.51035-2.1228-0.86431 0-2.7712 0.14758-2.7673-1.1001 0-0.63542 0.53995-0.841 1.1539-0.85518 3.0827-0.068956 5.7869 3.9794 9.4263 4.2237 0.024456-1.8044 2.6888-3.9195 4.7553-2.4798 0.99688-1.4642 0.83149-2.7402 0.1995-3.7758 1.0741-1.1884 1.5503-2.5423 1.5722-3.9775 0.0067019-0.32578-0.030752-0.65097-0.11134-0.96667 0.66545-0.097311 1.5072-0.3132 1.9571-0.63542v13.023c0.60495-0.084422 0.77743-0.18753 1.3348-0.63413v-2.1363c0.61139-0.076689 1.2871-0.10504 1.9307-0.64444v-10.026c1.143-0.051556 2.8529-0.64122 3.9315-1.8547l0.01802-0.0051555c-0.325 1.1787-1.2459 2.2465-2.9855 2.6216 1.2929 0.41631 2.8561-0.095378 4.0545-0.957-0.31342 0.86162-1.5832 2.2897-3.9193 2.5778 2.1482 0.71662 3.0202-0.039311 5.2328-0.69729 3.0955-0.92027 4.9406 1.441 1.3296 2.32-0.87653 0.21267-1.9494-0.18109-3.0299-0.63413l-1.0297 1.2599c1.412 0.73338 3.8363 1.3024 4.9902 1.2805 3.4205-0.064444 4.8975-2.6873 4.1922-5.4082 3.0479 0.21911 5.4935 5.3354 2.9443 6.6777-1.0297 0.54198-1.9223 0.37893-2.9424 0.17207-2.2525-0.45691-3.9309-1.4925-5.8629-1.5847-1.7614-0.081844-3.158 0.066378-4.059 1.3907-1.282 1.8786-0.12871 5.0215 2.6862 5.0769 0.031535-1.1175 0.30569-1.7129 0.51099-2.1228-0.86495 0-2.7718 0.14693-2.7673-1.1007 0-0.63542 0.53995-0.841 1.1539-0.85453 3.0827-0.068956 5.7869 3.9794 9.4269 4.2237 0.024455-1.8044 2.6888-3.9195 4.7553-2.4805 1.0213-1.5009 0.82119-2.8046 0.15059-3.8538 1.1185-1.4635 1.8078-2.9683 1.6128-4.2276-0.14609-2.1267-2.0182-2.784-2.035-4.5652-0.012871-1.2077 1.1739-2.9451 2.461-4.0703l-0.63713-0.7946c-0.79123 0.27908-1.5191 0.71305-2.1411 1.2766-0.73366-1.0653-1.9854-2.9425-3.797-3.3775-0.52322 0.18109-1.2401 1.2786-1.7737 2.4012-1.9635 0.40278-3.5184 1.7922-4.1671 2.996-0.78901-0.66056-1.8219-2.0326-0.82312-2.9941 0.76842-0.73982 2.5099-0.44144 3.4868 0l0.010941-1.4822-6.435e-4 -0.0025778zm1.2228 7.54c-0.74139-1.171-2.0749-1.9772-3.1033-2.6119 0.68347-0.93316 2.5099-2.0661 4.1265-2.0281 2.3168 0.055422 4.1767 2.7846 1.9629 4.4299-0.50906 0.37893-1.3515 0.39633-2.9861 0.21009z" fill="#D30029"/>
<path id="a" d="m25.994 54.182c-9.3568-7.1166-14.886-14.167-18.202-21 8.6141-0.26744 14.26-2.7331 18.202-5.7394 4.7045 3.2583 10.948 5.9231 18.203 5.7356-3.3169 6.8311-8.8458 13.884-18.203 21.002v0.0012889z" fill="#000"/>
<path d="m25.994 52.926c-8.4783-6.447-13.252-12.587-16.386-18.713 6.3713-0.52522 12.089-2.2929 16.386-5.4507 4.2984 3.1578 10.016 4.9236 16.387 5.4494-3.1374 6.1222-7.9081 12.266-16.387 18.714z" fill="#FFDC00"/>
<path d="m22.774 45.571c0.28617-0.038237 0.57814-0.074326 0.87589-0.10827-0.87589-1.6917 0.29668-3.1249 1.8605-3.1578-1.1893 1.1362-1.1552 2.3741-0.29218 3.0038 0.56505-0.045756 0.69248-0.064444 1.273-0.090867-1.0149-1.5241 0.10426-2.851 1.6469-3.0289-0.74589 0.74433-1.1282 2.1267-0.21302 2.9728 0.52386-0.012889 0.79094-0.018044 1.309-0.015467-0.5953-1.5686 0.59079-2.5481 1.8837-2.5945-0.70792 0.63284-1.2504 1.9037-0.41574 2.737 0.40351 0.083133 0.82569 0.0754 1.5047 0.27647 0.44406 0.2262 0.8051 0.58 0.91 0.85904-5.4832-0.66571-6.296-0.49751-10.358 0.17529-1.6404 0.86033-2.4108 1.0898-3.23 0.32222-0.14094-0.20236-0.021238-0.73402 0.54317-0.85324-0.0064356-0.37313 0.2645-0.58 0.56376-0.67087 0.77871-0.23716 1.1784 0.41953 2.1379 0.17336zm-2.5099-4.7386c0.30634-0.042963 0.61868-0.083993 0.93703-0.12309-1.0349-1.6975 0.12035-3.3427 1.7936-3.3788-1.1745 1.305-1.0394 2.4805-0.11649 3.2042 0.60495-0.052844 1.2228-0.096022 1.8425-0.12889-1.2305-1.4545 0.2098-3.1262 1.8586-3.3273-0.79609 0.85518-1.3039 2.2916-0.32178 3.2641 0.56054-0.014822 1.1204-0.021267 1.6733-0.018044-0.83663-1.6111 0.63134-2.9329 2.015-2.9864-0.75876 0.72693-1.3148 2.0622-0.42218 3.0205 0.59208 0.022556 1.1726 0.056067 1.7376 0.10182-0.52322-1.1368 0.21302-2.0796 1.6334-2.3535-0.61074 0.67796-0.96213 1.6317-0.34495 2.4824 0.77936 0.094089 1.7061 0.4466 2.3664 0.59547 0.6545 0.37764 0.8495 0.49493 1.3734 0.87322-6.101-0.93896-12.737-0.72629-16.036-0.0464-1.755 0.98729-2.5781 1.2515-3.4547 0.36927-0.15059-0.232-0.022525-0.84293 0.57921-0.97956-0.012228-0.76109 0.6397-0.79847 1.2775-0.79847 0.51871 0.4814 1.0297 0.38667 1.6089 0.22684v0.0025778zm-2.0794-4.4789c0.3797-0.048978 1.0136-0.24231 1.4075-0.28484-1.1584-2.146 0.39386-4.3307 2.5189-4.1244-1.5787 1.441-1.6816 2.9844-0.53609 3.7829 0.7504-0.058 1.2691-0.15531 2.0395-0.19333-1.1372-1.827 0.30569-4.194 2.2338-3.9582-1.0883 0.99309-1.4969 2.8633-0.28252 3.9401 0.69505-0.016111 1.3895-0.022556 2.0774-0.019333-0.79351-1.9978 0.68475-4.0497 2.795-3.4188-1.0883 0.3132-1.9281 2.4006-0.81797 3.4594 0.73431 0.024489 1.4545 0.064444 2.1514 0.11213-0.4653-1.5273 0.41252-3.1578 2.3715-2.523-0.90614 0.60062-1.5381 1.7265-0.77228 2.6654 0.96535 0.1044 2.1173 0.32222 2.9353 0.4872 0.81475 0.37636 1.5323 0.98149 1.8522 1.16-7.5677-1.0363-14.837-0.92542-19.844 0.097311-2.1772 1.0898-3.3465 1.3321-4.4335 0.35831-0.18663-0.25778-0.028317-0.93058 0.72015-1.082-0.014802-0.83778 0.79351-0.8816 1.5851-0.8816 0.64356 0.53231 1.2788 0.59869 2.0002 0.42211l-0.0019306 6.444e-4z" fill="#000"/>
</g>
</g>
</svg>
