<?xml version="1.0" encoding="UTF-8"?>
<svg version="1.1" viewBox="0 0 80 80" xmlns="http://www.w3.org/2000/svg">
<title>1 – Fundamentals/Logos/Clubs/Wolfsburg WOB</title>
<g fill="none" fill-rule="evenodd">
<rect width="80" height="80"/>
<g transform="translate(11 11)" fill-rule="nonzero">
<path id="Path" d="m58 29.051c0 15.986-12.987 28.949-29 28.949s-29-12.963-29-28.949 12.98-29.051 29-29.051 29 11.576 29 29.051z" fill="#fff"/>
<path id="a" d="m0.51556 29.018c0.56904-17.658 12.727-24.857 20.71-27.364 3.6488-1.1465 6.8446-1.1845 6.8311-0.77333-0.012244 0.36218-2.7492 0.060578-6.6242 1.4564-6.7551 2.4379-16.319 8.4899-16.901 23.988 0 14.251 11.581 25.8 25.869 25.8s25.87-11.55 25.87-25.8c0.036089-3.0456-0.51556-5.4552-1.2058-7.54-1.2116-3.6624-2.7756-5.3592-2.097-5.3753 0.46529-0.0083778 1.8753 2.8678 2.8562 5.5506 1.1426 3.123 1.6678 5.9611 1.6545 10.053 0 15.692-12.753 28.41-28.485 28.41s-28.479-12.713-28.479-28.405z" fill="#64B42D"/>
<path d="m26.164 20.075c0-5.0518 8.3004-4.5756 8.3004-4.5756v18.019c0 1.2586 0.79782 2.0165 2.2336 2.0165 2.2923 0 2.135-2.0165 2.135-2.0165 0 1.2586-0.0070889-13.093-0.0070889-18.534 0-4.5246 8.2489-4.5246 8.2489-4.5246v23.98l-0.035444 1.4893c-0.70438 4.5266-4.6355 7.9892-9.2794 7.9892-3.0521 0-5.7588-1.4938-7.4575-3.8022-1.6988 2.3078-4.408 3.8022-7.4556 3.8022-4.6445 0-8.4957-3.4626-9.1994-7.9911l-0.11149-1.4893s-0.0096667-13.224-0.0096667-19.456c0-4.5246 8.2579-4.5246 8.2579-4.5246v23.063c0 1.2734 0.90609 2.012 2.137 2.012 1.2161 0 2.2556-0.77333 2.2556-2.012 0 0-0.0116-9.2046-0.0116-13.448l-0.0012889 0.0019333z" fill="#64B42D"/>
</g>
</g>
</svg>
