<svg xmlns="http://www.w3.org/2000/svg" width="21" height="20" viewBox="0 0 21 20" fill="none">
    <g clip-path="url(#clip0_12515_6756)">
        <path
            d="M3.1875 1.25C1.80859 1.25 0.6875 2.37109 0.6875 3.75V16.25C0.6875 17.6289 1.80859 18.75 3.1875 18.75H18.1875C19.5664 18.75 20.6875 17.6289 20.6875 16.25V7.5C20.6875 6.12109 19.5664 5 18.1875 5H3.8125C3.46875 5 3.1875 4.71875 3.1875 4.375C3.1875 4.03125 3.46875 3.75 3.8125 3.75H18.1875C18.8789 3.75 19.4375 3.19141 19.4375 2.5C19.4375 1.80859 18.8789 1.25 18.1875 1.25H3.1875ZM16.9375 10.625C17.269 10.625 17.587 10.7567 17.8214 10.9911C18.0558 11.2255 18.1875 11.5435 18.1875 11.875C18.1875 12.2065 18.0558 12.5245 17.8214 12.7589C17.587 12.9933 17.269 13.125 16.9375 13.125C16.606 13.125 16.288 12.9933 16.0536 12.7589C15.8192 12.5245 15.6875 12.2065 15.6875 11.875C15.6875 11.5435 15.8192 11.2255 16.0536 10.9911C16.288 10.7567 16.606 10.625 16.9375 10.625Z"
            fill="#3B82F6" />
    </g>
    <defs>
        <clipPath id="clip0_12515_6756">
            <path d="M0.6875 0H20.6875V20H0.6875V0Z" fill="white" />
        </clipPath>
    </defs>
</svg>