<svg xmlns="http://www.w3.org/2000/svg" width="26" height="20" viewBox="0 0 26 20" fill="none">
    <path
        d="M20.5364 2.72799C20.53 2.71562 20.5194 2.70593 20.5065 2.70065C19.0173 2.01739 17.4458 1.53018 15.8313 1.2512C15.8166 1.24847 15.8015 1.25044 15.788 1.25682C15.7745 1.2632 15.7634 1.27367 15.7562 1.28674C15.5422 1.67514 15.3479 2.07408 15.1741 2.48205C13.4338 2.21787 11.6635 2.21787 9.92312 2.48205C9.74819 2.07304 9.55082 1.674 9.33191 1.28674C9.3244 1.27395 9.31322 1.26372 9.29981 1.25738C9.2864 1.25104 9.2714 1.24889 9.25675 1.2512C7.64206 1.52959 6.07043 2.01684 4.58144 2.70069C4.56869 2.70609 4.55794 2.71532 4.55066 2.72709C1.57296 7.17389 0.75726 11.5114 1.15742 15.7951C1.15854 15.8056 1.16177 15.8158 1.1669 15.825C1.17203 15.8342 1.17897 15.8423 1.1873 15.8488C2.92118 17.1326 4.86055 18.1126 6.92265 18.7468C6.93717 18.7512 6.95268 18.751 6.96709 18.7463C6.98149 18.7415 6.99411 18.7325 7.00324 18.7204C7.44613 18.1178 7.83857 17.4797 8.17656 16.8125C8.1812 16.8034 8.18385 16.7933 8.18434 16.7831C8.18482 16.7728 8.18313 16.7626 8.17937 16.753C8.17561 16.7435 8.16986 16.7348 8.16252 16.7277C8.15517 16.7205 8.14639 16.715 8.13675 16.7114C7.51791 16.4746 6.91879 16.1892 6.34503 15.8578C6.33461 15.8517 6.32586 15.8431 6.31955 15.8328C6.31323 15.8224 6.30956 15.8107 6.30885 15.7987C6.30813 15.7866 6.3104 15.7745 6.31545 15.7636C6.3205 15.7526 6.32818 15.743 6.33781 15.7357C6.4582 15.6455 6.57867 15.5517 6.69363 15.4569C6.70384 15.4485 6.7162 15.4431 6.72931 15.4413C6.74243 15.4396 6.75577 15.4415 6.76785 15.4469C10.5268 17.1624 14.5964 17.1624 18.3108 15.4469C18.3229 15.4411 18.3364 15.4389 18.3497 15.4406C18.363 15.4422 18.3756 15.4475 18.386 15.456C18.501 15.5508 18.6214 15.6455 18.7427 15.7357C18.7524 15.7429 18.7601 15.7524 18.7652 15.7634C18.7704 15.7743 18.7727 15.7864 18.7721 15.7984C18.7715 15.8105 18.7679 15.8222 18.7617 15.8326C18.7554 15.8429 18.7467 15.8516 18.7364 15.8578C18.1639 16.192 17.5642 16.4773 16.9438 16.7105C16.9341 16.7142 16.9254 16.7199 16.9181 16.7271C16.9108 16.7344 16.9051 16.7432 16.9014 16.7528C16.8977 16.7624 16.8961 16.7727 16.8967 16.783C16.8973 16.7933 16.9 16.8034 16.9047 16.8125C17.2484 17.476 17.6402 18.1133 18.0771 18.7194C18.086 18.7318 18.0986 18.7411 18.113 18.746C18.1275 18.7509 18.1431 18.7512 18.1577 18.7467C20.2235 18.1146 22.1663 17.1346 23.9023 15.8488C23.9108 15.8426 23.9178 15.8347 23.923 15.8256C23.9281 15.8165 23.9313 15.8064 23.9322 15.796C24.4113 10.8435 23.1302 6.54162 20.5364 2.72799ZM8.73792 13.1867C7.60621 13.1867 6.67371 12.1482 6.67371 10.8727C6.67371 9.59725 7.58812 8.55862 8.73792 8.55862C9.89671 8.55862 10.8202 9.60627 10.8021 10.8726C10.8021 12.1482 9.88765 13.1867 8.73792 13.1867ZM16.37 13.1867C15.2383 13.1867 14.3058 12.1482 14.3058 10.8727C14.3058 9.59725 15.2202 8.55862 16.37 8.55862C17.5288 8.55862 18.4523 9.60627 18.4342 10.8726C18.4342 12.1482 17.5288 13.1867 16.37 13.1867Z"
        fill="#4F46E5" />
</svg>