<svg fill="none" xmlns="http://www.w3.org/2000/svg" viewBox="6.83 7.67 57.33 53.18">
<path d="M61.0735 7.91016L38.8999 24.3788L43.0003 14.6625L61.0735 7.91016Z" fill="#E2761B" stroke="#E2761B" stroke-width="0.200139" stroke-linecap="round" stroke-linejoin="round"/>
<path d="M9.8877 7.91016L31.883 24.5348L27.9831 14.6625L9.8877 7.91016Z" fill="#E4761B" stroke="#E4761B" stroke-width="0.200139" stroke-linecap="round" stroke-linejoin="round"/>
<path d="M53.1013 46.082L47.1958 55.1297L59.8314 58.6062L63.4638 46.2826L53.1013 46.082Z" fill="#E4761B" stroke="#E4761B" stroke-width="0.200139" stroke-linecap="round" stroke-linejoin="round"/>
<path d="M7.54395 46.2826L11.1541 58.6062L23.7897 55.1297L17.8842 46.082L7.54395 46.2826Z" fill="#E4761B" stroke="#E4761B" stroke-width="0.200139" stroke-linecap="round" stroke-linejoin="round"/>
<path d="M23.0757 30.7945L19.5547 36.1206L32.1011 36.6777L31.6554 23.1953L23.0757 30.7945Z" fill="#E4761B" stroke="#E4761B" stroke-width="0.200139" stroke-linecap="round" stroke-linejoin="round"/>
<path d="M47.8773 30.7942L39.1862 23.0391L38.8965 36.6775L51.4207 36.1204L47.8773 30.7942Z" fill="#E4761B" stroke="#E4761B" stroke-width="0.200139" stroke-linecap="round" stroke-linejoin="round"/>
<path d="M23.7915 55.133L31.3238 51.456L24.8166 46.375L23.7915 55.133Z" fill="#E4761B" stroke="#E4761B" stroke-width="0.200139" stroke-linecap="round" stroke-linejoin="round"/>
<path d="M39.6304 51.456L47.185 55.133L46.1376 46.375L39.6304 51.456Z" fill="#E4761B" stroke="#E4761B" stroke-width="0.200139" stroke-linecap="round" stroke-linejoin="round"/>
<path d="M47.2001 55.1341L39.6455 51.457L40.2472 56.382L40.1803 58.4545L47.2001 55.1341Z" fill="#D7C1B3" stroke="#D7C1B3" stroke-width="0.200139" stroke-linecap="round" stroke-linejoin="round"/>
<path d="M23.7983 55.1341L30.8181 58.4545L30.7735 56.382L31.3307 51.457L23.7983 55.1341Z" fill="#D7C1B3" stroke="#D7C1B3" stroke-width="0.200139" stroke-linecap="round" stroke-linejoin="round"/>
<path d="M30.9304 43.1237L24.646 41.274L29.0807 39.2461L30.9304 43.1237Z" fill="#233447" stroke="#233447" stroke-width="0.200139" stroke-linecap="round" stroke-linejoin="round"/>
<path d="M40.0425 43.1237L41.8921 39.2461L46.3491 41.274L40.0425 43.1237Z" fill="#233447" stroke="#233447" stroke-width="0.200139" stroke-linecap="round" stroke-linejoin="round"/>
<path d="M23.7913 55.1336L24.8609 46.0859L17.8857 46.2865L23.7913 55.1336Z" fill="#CD6116" stroke="#CD6116" stroke-width="0.200139" stroke-linecap="round" stroke-linejoin="round"/>
<path d="M46.1191 46.0859L47.1888 55.1336L53.0943 46.2865L46.1191 46.0859Z" fill="#CD6116" stroke="#CD6116" stroke-width="0.200139" stroke-linecap="round" stroke-linejoin="round"/>
<path d="M51.4202 36.125L38.896 36.6821L40.0548 43.1225L41.9045 39.2449L46.3615 41.2728L51.4202 36.125Z" fill="#CD6116" stroke="#CD6116" stroke-width="0.200139" stroke-linecap="round" stroke-linejoin="round"/>
<path d="M24.6347 41.2728L29.0917 39.2449L30.9191 43.1225L32.1002 36.6821L19.5537 36.125L24.6347 41.2728Z" fill="#CD6116" stroke="#CD6116" stroke-width="0.200139" stroke-linecap="round" stroke-linejoin="round"/>
<path d="M19.5684 36.125L24.8276 46.3761L24.6493 41.2728L19.5684 36.125Z" fill="#E4751F" stroke="#E4751F" stroke-width="0.200139" stroke-linecap="round" stroke-linejoin="round"/>
<path d="M46.3815 41.2728L46.1587 46.3761L51.4402 36.125L46.3815 41.2728Z" fill="#E4751F" stroke="#E4751F" stroke-width="0.200139" stroke-linecap="round" stroke-linejoin="round"/>
<path d="M32.1093 36.6836L30.9282 43.124L32.399 50.7231L32.7333 40.7172L32.1093 36.6836Z" fill="#E4751F" stroke="#E4751F" stroke-width="0.200139" stroke-linecap="round" stroke-linejoin="round"/>
<path d="M38.9118 36.6836L38.3101 40.6949L38.5775 50.7231L40.0706 43.124L38.9118 36.6836Z" fill="#E4751F" stroke="#E4751F" stroke-width="0.200139" stroke-linecap="round" stroke-linejoin="round"/>
<path d="M40.0595 43.1231L38.5664 50.7223L39.6361 51.4577L46.1433 46.3767L46.3662 41.2734L40.0595 43.1231Z" fill="#F6851B" stroke="#F6851B" stroke-width="0.200139" stroke-linecap="round" stroke-linejoin="round"/>
<path d="M24.646 41.2734L24.8243 46.3767L31.3315 51.4577L32.4012 50.7223L30.9304 43.1231L24.646 41.2734Z" fill="#F6851B" stroke="#F6851B" stroke-width="0.200139" stroke-linecap="round" stroke-linejoin="round"/>
<path d="M40.1744 58.4533L40.2413 56.3808L39.6841 55.8905H31.2827L30.7701 56.3808L30.8147 58.4533L23.7949 55.1328L26.2463 57.1385L31.2158 60.5926H39.751L44.7428 57.1385L47.1942 55.1328L40.1744 58.4533Z" fill="#C0AD9E" stroke="#C0AD9E" stroke-width="0.200139" stroke-linecap="round" stroke-linejoin="round"/>
<path d="M39.6458 51.4542L38.5761 50.7188H32.4032L31.3335 51.4542L30.7764 56.3791L31.2889 55.8889H39.6904L40.2475 56.3791L39.6458 51.4542Z" fill="#161616" stroke="#161616" stroke-width="0.200139" stroke-linecap="round" stroke-linejoin="round"/>
<path d="M62.0236 25.4485L63.9178 16.3562L61.0876 7.91016L39.6494 23.8216L47.8949 30.7969L59.5499 34.2065L62.135 31.198L61.0207 30.3957L62.8035 28.7689L61.4219 27.6992L63.2047 26.3399L62.0236 25.4485Z" fill="#763D16" stroke="#763D16" stroke-width="0.200139" stroke-linecap="round" stroke-linejoin="round"/>
<path d="M7.0874 16.3562L8.98163 25.4485L7.77824 26.3399L9.56104 27.6992L8.20165 28.7689L9.98445 30.3957L8.8702 31.198L11.433 34.2065L23.088 30.7969L31.3335 23.8216L9.89531 7.91016L7.0874 16.3562Z" fill="#763D16" stroke="#763D16" stroke-width="0.200139" stroke-linecap="round" stroke-linejoin="round"/>
<path d="M59.5412 34.2065L47.8862 30.7969L51.4295 36.123L46.1479 46.3741L53.1009 46.2849H63.4634L59.5412 34.2065Z" fill="#F6851B" stroke="#F6851B" stroke-width="0.200139" stroke-linecap="round" stroke-linejoin="round"/>
<path d="M23.08 30.7969L11.425 34.2065L7.54736 46.2849H17.8876L24.8182 46.3741L19.559 36.123L23.08 30.7969Z" fill="#F6851B" stroke="#F6851B" stroke-width="0.200139" stroke-linecap="round" stroke-linejoin="round"/>
<path d="M38.9016 36.6816L39.637 23.8232L43.0243 14.6641H27.9819L31.3247 23.8232L32.1047 36.6816L32.3721 40.7375L32.3944 50.7212H38.5673L38.6119 40.7375L38.9016 36.6816Z" fill="#F6851B" stroke="#F6851B" stroke-width="0.200139" stroke-linecap="round" stroke-linejoin="round"/>
</svg>