<svg xmlns="http://www.w3.org/2000/svg" width="21" height="20" viewBox="0 0 21 20" fill="none">
    <g clip-path="url(#clip0_12515_6740)">
        <path
            d="M18.5848 5.92638C18.5975 6.10403 18.5975 6.28173 18.5975 6.45938C18.5975 11.8781 14.4731 18.1218 6.93504 18.1218C4.61269 18.1218 2.45535 17.4492 0.640625 16.2817C0.970586 16.3198 1.28781 16.3325 1.63047 16.3325C3.54668 16.3325 5.31066 15.6853 6.7193 14.5812C4.91727 14.5431 3.40711 13.3629 2.8868 11.7386C3.14062 11.7766 3.39441 11.802 3.66094 11.802C4.02895 11.802 4.39699 11.7512 4.73961 11.6624C2.86145 11.2817 1.45277 9.63196 1.45277 7.63958V7.58884C1.99844 7.89341 2.63301 8.08376 3.30555 8.10911C2.20148 7.37306 1.47816 6.11673 1.47816 4.6954C1.47816 3.93399 1.68117 3.23603 2.03652 2.62688C4.0543 5.11419 7.08731 6.73853 10.4883 6.91622C10.4248 6.61165 10.3868 6.29442 10.3868 5.97716C10.3868 3.71825 12.2142 1.87817 14.4857 1.87817C15.6659 1.87817 16.7319 2.3731 17.4807 3.17259C18.407 2.99493 19.2954 2.65228 20.0822 2.18274C19.7776 3.13454 19.1304 3.93403 18.2802 4.44161C19.105 4.35282 19.9045 4.12435 20.6405 3.80712C20.0823 4.61927 19.3843 5.34259 18.5848 5.92638Z"
            fill="#60A5FA" />
    </g>
    <defs>
        <clipPath id="clip0_12515_6740">
            <path d="M0.640625 0H20.6406V20H0.640625V0Z" fill="white" />
        </clipPath>
    </defs>
</svg>