<svg xmlns="http://www.w3.org/2000/svg" width="21" height="20" viewBox="0 0 21 20" fill="none">
    <g clip-path="url(#clip0_12515_6761)">
        <path
            d="M3.42188 1.25C2.04297 1.25 0.921875 2.37109 0.921875 3.75V16.25C0.921875 17.6289 2.04297 18.75 3.42188 18.75H18.4219C19.8008 18.75 20.9219 17.6289 20.9219 16.25V7.5C20.9219 6.12109 19.8008 5 18.4219 5H4.04688C3.70312 5 3.42188 4.71875 3.42188 4.375C3.42188 4.03125 3.70312 3.75 4.04688 3.75H18.4219C19.1133 3.75 19.6719 3.19141 19.6719 2.5C19.6719 1.80859 19.1133 1.25 18.4219 1.25H3.42188ZM17.1719 10.625C17.5034 10.625 17.8213 10.7567 18.0558 10.9911C18.2902 11.2255 18.4219 11.5435 18.4219 11.875C18.4219 12.2065 18.2902 12.5245 18.0558 12.7589C17.8213 12.9933 17.5034 13.125 17.1719 13.125C16.8404 13.125 16.5224 12.9933 16.288 12.7589C16.0536 12.5245 15.9219 12.2065 15.9219 11.875C15.9219 11.5435 16.0536 11.2255 16.288 10.9911C16.5224 10.7567 16.8404 10.625 17.1719 10.625Z"
            fill="#A855F7" />
    </g>
    <defs>
        <clipPath id="clip0_12515_6761">
            <path d="M0.921875 0H20.9219V20H0.921875V0Z" fill="white" />
        </clipPath>
    </defs>
</svg>