<svg id="Layer_1" data-name="Layer 1" xmlns="http://www.w3.org/2000/svg" viewBox="0 0 240 240"><defs><style>.cls-1{fill:#fff;}.cls-2{fill:#d20a11;}.cls-3{fill:#03506b;}</style></defs><path class="cls-1" d="M120,203l3.82-2.81a158,158,0,0,0,14.7-12.15,162.45,162.45,0,0,0,46.84-12.23l1.64-.71L179,157l3.51.11,7.33-7.21-3.61-3.9,5-7.39L186.67,136l5-9.88-11-2.51-2.7,1.46a86.93,86.93,0,0,0,3.2-22.58V68.15l-24.81-6.64-2.91-4.64a28.71,28.71,0,0,0,7.75-8.42l2-3.36-3.29.62a35,35,0,0,0,3-5.42L164.28,37l-3.48.93-5.63,1.49A38.27,38.27,0,0,1,146,40.53a23.69,23.69,0,0,1-5.49-.72C136.89,39,131.91,38,120,38S103.11,39,99.47,39.81a23.69,23.69,0,0,1-5.49.72,38.27,38.27,0,0,1-9.15-1.14L79.2,37.9,75.72,37l1.39,3.32a35,35,0,0,0,3,5.42l-3.29-.62,2,3.36a28.71,28.71,0,0,0,7.75,8.42l-2.91,4.64L58.81,68.15v34.33A86.93,86.93,0,0,0,62,125.06l-2.7-1.46-11,2.51,5,9.88-4.52,2.63,5,7.39-3.61,3.9,7.33,7.21L61,157l-8,18.12,1.64.71a162.45,162.45,0,0,0,46.84,12.23,158,158,0,0,0,14.7,12.15Z"/><path d="M188.68,139.2l-4.73,7,3.4,3.67-5.56,5.47-13.2-.38,8.39,1.94,7.7,17.34a160.85,160.85,0,0,1-46.94,12.16,154.35,154.35,0,0,1-15,12.41l-2.78,2-2.78-2a154.33,154.33,0,0,1-15-12.42,160.41,160.41,0,0,1-46.91-12.15L63,156.88l8.4-1.94-13.2.38-5.57-5.47,3.4-3.67-4.73-7,4.31-2.52L51,127.33l8.11-1.86,5.83,3.15a88.49,88.49,0,0,1-4.31-26.14v-33L84.75,63,89,56.25c-5-2.32-8.72-8.7-8.72-8.7l4.7.88c-3.57-2.44-6.25-8.82-6.25-8.82l5.62,1.49A40.26,40.26,0,0,0,94,42.3a25.27,25.27,0,0,0,5.86-.76c3.56-.75,8.44-1.79,20.16-1.79s16.6,1,20.16,1.79a25.27,25.27,0,0,0,5.86.76,40.26,40.26,0,0,0,9.61-1.2l5.62-1.49S158.57,46,155,48.43l4.7-.88s-3.76,6.38-8.72,8.7L155.25,63l24.17,6.47v33a88.67,88.67,0,0,1-4.31,26.16l5.85-3.17,8.12,1.86-4.7,9.35Z"/><path class="cls-1" d="M91.2,154.56l-.23,1a.8.8,0,0,1,.07.7l0,.06-.17.71,0,.14-.15,0-.79-.19-.15,0,0-.15.17-.7V156a.8.8,0,0,1,.38-.6l.24-1-2.22-.53-.23,1a.76.76,0,0,1,.06.7v.06l-.72,3v.06a.82.82,0,0,1-.38.6l-.23,1,2.21.53.24-1a.77.77,0,0,1-.07-.7V159l.24-1,0-.15.15,0,.79.19.15,0,0,.15-.23,1,0,.06a.82.82,0,0,1-.38.6l-.23,1,2.22.53.23-1a.8.8,0,0,1-.07-.7l0-.06.71-3,0-.06a.8.8,0,0,1,.38-.6l.23-1Z"/><path class="cls-1" d="M99.72,156.13a2.65,2.65,0,0,0-2,.22,1.87,1.87,0,0,0-.69,1.31l-.47,2.82c-.23,1.36.36,2,2,2.31a2.59,2.59,0,0,0,2-.22,1.89,1.89,0,0,0,.69-1.31l.47-2.82C102,157.08,101.39,156.41,99.72,156.13ZM100,158l-.51,3a.68.68,0,0,1-.26.49.56.56,0,0,1-.41.09.54.54,0,0,1-.36-.22.74.74,0,0,1-.08-.55l.5-3a.75.75,0,0,1,.26-.48.59.59,0,0,1,.77.13A.7.7,0,0,1,100,158Z"/><path class="cls-1" d="M109.19,157.53l-.1.91c0,.32-.07.39-.48.92l-.58.73-.33.41.06-.52.09-.86v-.06a.85.85,0,0,1,.3-.65l.11-1L106,157.2l-.1,1a.81.81,0,0,1,.16.69v.06l-.32,3V162a.8.8,0,0,1-.29.64l-.11,1,2.27.24.1-1a.83.83,0,0,1-.16-.69v-.06l.11-1.07,0-.16.15,0h.11l0,.09.43,1.08,0,.12a1.88,1.88,0,0,1,.16,1.08l-.07.65,2.12.23.1-1a1,1,0,0,1-.39-.56v0l-.79-2.08,0-.08,0-.06,1-1.36a1,1,0,0,1,.47-.37l.1-.95Z"/><path class="cls-1" d="M118.14,158.86c0,.32,0,.4-.41,1l-.53.77-.29.43v-.52l0-.87v-.06a.86.86,0,0,1,.25-.67l0-1-2.29-.07,0,1a.79.79,0,0,1,.21.68v.06l-.1,3v.06a.77.77,0,0,1-.25.66l0,1,2.28.07,0-1a.82.82,0,0,1-.21-.68v-.06l0-1.07v-.16h.26l0,.08.51,1.05,0,.11a1.86,1.86,0,0,1,.23,1.08l0,.65,2.13.07,0-1a1,1,0,0,1-.43-.53l0,0-.94-2,0-.08,0-.07,1-1.43a.89.89,0,0,1,.43-.4l0-1-2-.06Z"/><path class="cls-1" d="M125.75,162.88a1,1,0,0,1,0-.24l0-.12h.12l1-.06h.11l0,.11a.78.78,0,0,1,0,.23.53.53,0,0,1-.22.48l.06,1,2.38-.15-.06-1a1.11,1.11,0,0,1-.4-.71l-1.26-4.73-2.77.17c-.09.74-.59,4.74-.59,4.74l0,.16a1.16,1.16,0,0,1-.24.65l.06,1,2-.12,0-.95A.51.51,0,0,1,125.75,162.88Zm.07-1.56.21-2,0-.13h.27l0,.13.47,2,0,.18h-.18l-.7,0h-.18Z"/><path class="cls-1" d="M133.07,158.94V159l.36,3v.06a.87.87,0,0,1-.15.7l.11,1,2.27-.27-.12-1a.82.82,0,0,1-.31-.64v-.06l-.36-3v-.05a.8.8,0,0,1,.15-.7l-.11-1-2.27.27.12,1A.82.82,0,0,1,133.07,158.94Z"/><path class="cls-1" d="M144.26,161.69a1.83,1.83,0,0,0,.22-1.62l-.43-2.5a1.78,1.78,0,0,0-.82-1.46,2.58,2.58,0,0,0-1.67-.06l-2.75.47.16,1a.7.7,0,0,1,.38.56l.56,3.26a.7.7,0,0,1-.16.65l.17,1,2.81-.49A2.21,2.21,0,0,0,144.26,161.69Zm-2.16-.31-.17,0-.15,0,0-.15-.67-3.82,0-.15.15,0,.16,0a.76.76,0,0,1,.6.08.88.88,0,0,1,.29.59l.43,2.52C142.8,161,142.63,161.29,142.1,161.38Z"/><path class="cls-1" d="M153.2,159.68a2,2,0,0,0,.1-1.48l-.72-2.77c-.34-1.33-1.15-1.71-2.79-1.29a2.68,2.68,0,0,0-1.73,1,1.89,1.89,0,0,0-.1,1.47l.71,2.77c.35,1.34,1.16,1.71,2.8,1.29A2.63,2.63,0,0,0,153.2,159.68Zm-1.68-.37a.49.49,0,0,1-.34.25.54.54,0,0,1-.42-.05.71.71,0,0,1-.3-.47l-.76-3a.67.67,0,0,1,0-.55.59.59,0,0,1,.76-.19.63.63,0,0,1,.29.46l.77,3A.71.71,0,0,1,151.52,159.31Z"/><path class="cls-1" d="M69.5,163.66,68.21,167l-2-.78.5-1.27s.37-1-.3-1.22-1.06.74-1.06.74l-2.42,6.2s-.49,1.1.17,1.41,1.2-1,1.2-1l.67-1.68,2,.78-1.6,4.07a3.55,3.55,0,0,1-3.27.13c-1.8-.84-2-2.42-1.32-4.32l2.61-6.66s1.14-3.1,3.65-2.23A4.17,4.17,0,0,1,69.5,163.66Z"/><path class="cls-1" d="M70,165.76a9.38,9.38,0,0,1,1-1.57,2.48,2.48,0,0,1,2.9-.57c1.74.61,1.89,1.75,1.89,1.75a5.2,5.2,0,0,1-.1,2.27l-2.24,6.67a9.37,9.37,0,0,1-1,1.85c-.43.5-1.16,1.52-3.19.77s-1.88-2.21-1.88-2.21a9.13,9.13,0,0,1,.4-2.45Zm-.2,7.57s-.28,1,.31,1.19c.84.26,1.12-.78,1.12-.78l2.18-6.46s.3-1-.37-1.23-1,.72-1,.72Z"/><path class="cls-1" d="M77.56,165.14l2.42.66-.27,6.5.38.11.91-3.2a1.22,1.22,0,0,0,0-.89l.6-2.08,2.21.61-.6,2.1a1.7,1.7,0,0,0-.51.76l-2.84,10.12-2.13-.61.16-6.45-.4-.13-.87,3.13a1.34,1.34,0,0,0,0,.89l-.6,2.09-2.13-.62.58-2.07s.28,0,.49-.72l2-7.09a1.56,1.56,0,0,0,0-1.05Z"/><path class="cls-1" d="M90.24,169.33l-.67,2.89-2-.44.15-.73s.27-1-.5-1.15-.95.82-.95.82a1.52,1.52,0,0,0,.5,1.77c.93.64,2.38,1.5,2.12,3.58A8.47,8.47,0,0,1,87.73,180a2.63,2.63,0,0,1-3.19,1.19,3.28,3.28,0,0,1-2.4-1.91l.77-3.37,2.11.48-.23,1.06s-.23,1.11.51,1.26,1-.82,1-.82.65-1.66-.55-2.39-2.53-1.63-1.79-4.62,1.76-4,4.19-3.32A3.67,3.67,0,0,1,90.24,169.33Z"/><path class="cls-1" d="M134.85,171.45l.22,3-2,.18-.08-.75s0-1-.81-1-.67,1.07-.67,1.07a1.53,1.53,0,0,0,1,1.54c1.08.33,2.72.73,3.09,2.79a8.5,8.5,0,0,1,0,4.05,2.64,2.64,0,0,1-2.7,2.08,3.26,3.26,0,0,1-2.85-1.12l-.27-3.44,2.16-.17.1,1.08s.11,1.13.86,1.06.66-1.07.66-1.07.13-1.77-1.24-2.12-2.89-.8-3.07-3.88.5-4.33,3-4.42A3.67,3.67,0,0,1,134.85,171.45Z"/><path class="cls-1" d="M92.7,168.82l3.35.59-.52,10.43s0,.88.21,1.08L95.38,183l-2.91-.51.36-2.13s.59-.18.51-1.41l-1.64-.31s-.47,1.17,0,1.57l-.37,2.08-2.49-.46.36-2.12s.26-.11.51-.9Zm-.51,7.62,1.37.26.32-4.63-.42-.07Z"/><path class="cls-1" d="M137.14,170.19l3.38-.43,2.61,10.12s.22.85.52,1l.27,2.12-2.92.38-.29-2.13s.51-.35.06-1.5l-1.66.19s-.09,1.26.47,1.5l.27,2.09-2.51.31-.28-2.13s.21-.19.21-1Zm1.79,7.44,1.38-.17L139.23,173l-.41.06Z"/><path class="cls-1" d="M98.31,169.72l3.94.5s2.28,0,1.84,3.65l-.84,6.62s-.31,3.46-2.73,3.16l-3.89-.49.27-2.11s.33,0,.47-1.07l.89-7s.15-.84-.21-1.18ZM99.5,181l.49.06c1,.13,1.09-1.2,1.09-1.2l.72-5.68c.18-1.54-.78-1.5-.78-1.5l-.45,0Z"/><path class="cls-1" d="M105.16,173.79s.11-3.59,3.14-3.42c3.34.18,2.81,3.6,2.81,3.6l-.51,6.95s0,3.78-3.27,3.57c-3-.2-2.69-3.82-2.69-3.82Zm1.73,7s-.19,1,.62,1.1.85-1.09.85-1.09l.51-6.81s-.06-1-.68-1.06-.79.94-.79.94Z"/><path class="cls-1" d="M157.43,170s-1.13-3.41,1.78-4.29c3.21-1,3.87,2.43,3.87,2.43l1.9,6.71s1.27,3.56-1.85,4.47c-2.91.84-3.84-2.68-3.84-2.68Zm4,6s.18,1,1,.82.43-1.31.43-1.31L161,168.92s-.4-.94-1-.77-.43,1.15-.43,1.15Z"/><path class="cls-1" d="M171.38,165.73s-1.49-3.26,1.31-4.46c3.07-1.31,4.11,2,4.11,2l2.61,6.46s1.65,3.4-1.36,4.65c-2.79,1.15-4.1-2.24-4.1-2.24Zm4.64,5.5s.29,1,1,.72.28-1.36.28-1.36l-2.55-6.33s-.5-.89-1.08-.65-.3,1.19-.3,1.19Z"/><path class="cls-1" d="M112.2,171l2.83.07,0,2.19s-.3.16-.33.92l-.22,7.93h.48s.86.1.92-1.11l.1-2.69,1.89,0-.17,6.33-5.83-.16,0-2.18s.32,0,.34-1l.22-7.23a1.39,1.39,0,0,0-.27-1Z"/><path class="cls-1" d="M118.9,171.1l6-.1,0,4.29-2,0,0-.85s0-.91-.81-.91h-.59l0,3,1.69,0,0,2.28-1.68,0,0,3.27h.49a1,1,0,0,0,.9-1l0-1.12,2,0,.07,4.61-6,.09,0-2.16s.29-.08.29-1.09l-.1-7.13a1.4,1.4,0,0,0-.33-1Z"/><path class="cls-1" d="M142.82,169.41l3.83-.71s2.06-.41,2.71,2.3a22.38,22.38,0,0,1,.68,3.55s.6,3.07-1.58,3.51l-1.5.3.15.79s.09.74.46,1l.4,2.12-2.77.49-.4-2.13s.25-.19.11-1.09l-1.26-7a1.7,1.7,0,0,0-.46-1Zm3.72,6.47.64-.13c.85-.18.55-1.43.55-1.43a20.41,20.41,0,0,0-.45-2.33.93.93,0,0,0-1-.7l-.57.12Z"/><path class="cls-1" d="M149.66,168.24l3.79-.89s2-.51,2.81,2.16a20.93,20.93,0,0,1,.85,3.52s.76,3-1.4,3.58l-1.48.37.17.78s.14.73.52,1l.5,2.11-2.75.62-.5-2.11s.25-.2.06-1.1l-1.59-6.92a1.7,1.7,0,0,0-.52-1Zm4,6.28.63-.16c.84-.22.49-1.45.49-1.45a20.72,20.72,0,0,0-.57-2.31.92.92,0,0,0-1-.65l-.56.14Z"/><path class="cls-1" d="M163.17,164.91l4-1.3a2,2,0,0,1,2.41,1.06,7.46,7.46,0,0,1,1,2.64s.49,1.51-.51,2.27l.11.33a1.53,1.53,0,0,1,1.56,1.19c.45,1.33.58,1.7.58,1.7s.24.75.65.87l.68,2-2.34.78a21.54,21.54,0,0,1-.89-2.25l-.58-1.74s-.45-1.12-1.26-.85l-.4.14.74,2.22s.21.64.57.8l.69,2.05-2.66.9-.71-2s.24-.17,0-1l-2.29-6.9a1.24,1.24,0,0,0-.58-.82Zm4.21,4.67.58-.19c.64-.23.54-1,.49-1.18a5.43,5.43,0,0,0-.54-1.48.88.88,0,0,0-1-.5l-.6.21Z"/><path class="cls-1" d="M56.91,138l-3,1.77,3.8,5.62,15.07,2.23c-1-1.87-1.87-3.74-2.72-5.63Z"/><path class="cls-1" d="M58.81,127.35l-5.26,1.2,3.87,7.7,11.63,3.54c-1.25-2.9-2.37-5.82-3.36-8.72Z"/><path class="cls-1" d="M73.75,149.53l-16.2-2.34-2.41,2.6,3.8,3.74,16.77-.48c-.22-.37-.43-.74-.64-1.11C74.62,151.14,74.18,150.34,73.75,149.53Z"/><path class="cls-1" d="M183.11,138l3,1.77-3.8,5.62-15.07,2.23c1-1.87,1.87-3.74,2.72-5.63Z"/><path class="cls-1" d="M181.21,127.35l5.26,1.2-3.87,7.7L171,139.79c1.26-2.9,2.37-5.82,3.36-8.72Z"/><path class="cls-1" d="M166.27,149.53l16.21-2.34,2.41,2.6-3.81,3.74-16.77-.48c.22-.37.43-.74.64-1.11C165.4,151.14,165.84,150.34,166.27,149.53Z"/><path class="cls-1" d="M77.37,155.86c-.07-.11-.14-.22-.2-.33L66,158.09q6.47,2.59,13.21,4.54l-2.81-4.53Z"/><path class="cls-1" d="M160.61,162.7a140,140,0,0,0,13.44-4.61l-11.2-2.56-.31.5.93,2.07Z"/><path class="cls-1" d="M87.56,161.84a83.24,83.24,0,0,1-8.84-2.94l2.76,4.34c2.56.68,5.36,1.35,8.34,2Z"/><path class="cls-1" d="M161.12,158.9a81.94,81.94,0,0,1-8.85,2.94l-2.28,3.4c3-.62,5.77-1.28,8.34-2Z"/><path class="cls-1" d="M153.7,65.13l-6.24-9.93A19.54,19.54,0,0,0,154,51.09a31.92,31.92,0,0,1-10.56,1c2.53-.7,10.42-4.46,12.82-8.63A42.22,42.22,0,0,1,146,44.73c-6.72,0-7.62-2.56-26-2.56s-19.3,2.56-26,2.56a42.22,42.22,0,0,1-10.23-1.29c2.4,4.17,10.29,7.93,12.82,8.63a31.92,31.92,0,0,1-10.56-1,19.54,19.54,0,0,0,6.53,4.11L86.3,65.13,63,71.37v31.11c0,14.93,5,32.08,14.16,48.27.46.81.93,1.6,1.4,2.4l1.16-2.59a122.24,122.24,0,0,1-7.08-14.36c-.49-1.2-1-2.4-1.41-3.59a98.86,98.86,0,0,1-4.55-16.17h0a75.46,75.46,0,0,1-1.37-14V73.14l22.53-6L120,85.67l32.16-18.56,22.26,6L120,104.47v4.41l54.68-31.55v18.8L120,127.68v4.41l54.68-31.55v1.94a78.83,78.83,0,0,1-2.26,18.15L120,150.88v4.41l51-29.44a115.63,115.63,0,0,1-10.74,24.69l1,2.76c.5-.84,1-1.69,1.49-2.55C172,134.56,177,117.41,177,102.48V71.37Z"/><path class="cls-1" d="M130,187q-4.75,4.13-10,8-5.25-3.83-10-8s-1.61-.08-3.8-.26a155.43,155.43,0,0,0,12.43,10.09l1.35,1,1.35-1a153.27,153.27,0,0,0,12.43-10.09C131.6,186.92,130,187,130,187Z"/><path class="cls-1" d="M135.09,165.09h0l-5,2.9c3.45-.24,6.79-.6,10-1l6.37-3.67C142.78,164,139,164.65,135.09,165.09Z"/><path class="cls-2" d="M116.85,62.42c-7,1.77-8.07,1.72-11.68.47s-4.21-4.54-2.33-8.27Z"/><path class="cls-2" d="M123.15,62.42c7,1.77,8.07,1.72,11.68.47s4.21-4.54,2.33-8.27Z"/><path class="cls-2" d="M174.43,73.07l-22.26-6L120,85.67,66.7,116.44a98.86,98.86,0,0,0,4.55,16.17c.45,1.19.92,2.39,1.41,3.59L120,108.88v-4.41Z"/><path class="cls-2" d="M130,187q-5,.3-10,.3t-10-.3q4.74,4.13,10,8Q125.26,191.14,130,187Z"/><path class="cls-2" d="M149.6,162.54c-1,.26-2.11.5-3.19.73l-6.5,3.75,1.31-.17.52-.08c1.31-.19,2.62-.4,3.92-.62l.16,0c.53-.09,1.05-.2,1.57-.3Z"/><path class="cls-2" d="M120,155.29v-4.41l52.42-30.25a78.83,78.83,0,0,0,2.26-18.15v-1.94L86.5,151.43a108.3,108.3,0,0,0,31.9,4.79Z"/><path class="cls-2" d="M103.35,164.91a117.18,117.18,0,0,1-13.12-2.37l2.19,3.24,1.78.34.13,0c1.26.22,2.53.42,3.8.61l.72.1c.3.05.61.08.92.12Z"/><path class="cls-3" d="M87.86,67.11l-22.53,6v29.34a75.46,75.46,0,0,0,1.37,14L120,85.67Z"/><path class="cls-3" d="M120,127.68l54.68-31.55V77.33l-102,58.87a122.24,122.24,0,0,0,7.08,14.36l.65-1.46c1.92.85,4,1.62,6.11,2.33L120,132.09Z"/><path class="cls-3" d="M118.4,156.22l1.54,0c14.5,0,28-2.35,38.31-6.63.4-.16,1-.47,1.41-.65l.63,1.58A115.63,115.63,0,0,0,171,125.85l-51,29.44h0Z"/><path class="cls-3" d="M119.94,165.92a135.51,135.51,0,0,1-16.59-1L99.77,167c.93.13,1.86.26,2.8.37l.46,0c1.31.15,2.63.28,4,.4h0c1.41.12,2.83.22,4.25.3h.1q4.3.24,8.67.24t8.67-.24h.08c.43,0,.85-.06,1.28-.09l5.05-2.92A133.51,133.51,0,0,1,119.94,165.92Z"/><path class="cls-1" d="M110,103.11c-.26-5.14-3.59-6.82-8.55-8.33-4.28-1.32-6.39-2.45-6.56-5.71a4.46,4.46,0,0,1,4.43-5c4.23-.21,6.35,3.61,7.52,5.94l1.09-.71-3.12-8.67c-.23,2.68-1.48,2.82-1.77,2.83a5.33,5.33,0,0,1-1.68-.3,9.34,9.34,0,0,0-2.47-.3c-3.34.17-6.5,3.29-6.26,8.09.3,6,5.3,7.61,7.76,8.37,4,1.29,6.82,2.42,7,5.56.13,2.61-1.68,5.55-4.79,5.7A25.4,25.4,0,0,1,92.42,109a23.43,23.43,0,0,0,5.92-6.71l-.66-.64A20.71,20.71,0,0,1,90.19,108a21.27,21.27,0,0,1-7.65-6.35l-.69.71a22.21,22.21,0,0,0,6,6.63,18.76,18.76,0,0,1-4.16.61c-5.85.32-9.26-6.8-9.7-13.27-.2-2.91.09-6.47,1.08-8.58A5.85,5.85,0,0,1,79.86,84a7.15,7.15,0,0,1,5,2.08A14,14,0,0,1,87.91,90l1.11-.7L85.7,80.67a3.39,3.39,0,0,1-.84,2.42,1.65,1.65,0,0,1-.87.39,4.42,4.42,0,0,1-1.76-.25,8.16,8.16,0,0,0-2.91-.34c-5.75.4-9.57,8.28-9,16.36.62,9.16,6.36,13.3,11.56,13.49a15.56,15.56,0,0,0,8.25-2,41.37,41.37,0,0,0,3.37,2.41,3.39,3.39,0,0,1,3.36-1.42A15.31,15.31,0,0,1,99,112a17.66,17.66,0,0,0,4,.1C106.38,111.94,110.23,108.47,110,103.11Z"/><polygon class="cls-1" points="86.55 139.31 82.62 139.77 82.02 136.03 81.43 139.77 77.49 139.31 81.06 140.9 79.22 144.63 82.02 141.6 84.83 144.63 82.99 140.9 86.55 139.31"/><polygon class="cls-1" points="95.18 134.33 91.24 134.79 90.65 131.06 90.06 134.79 86.12 134.33 89.68 135.92 87.84 139.65 90.65 136.62 93.46 139.65 91.62 135.92 95.18 134.33"/><polygon class="cls-1" points="103.81 129.35 99.87 129.81 99.28 126.08 98.68 129.81 94.75 129.35 98.31 130.94 96.47 134.67 99.28 131.64 102.08 134.67 100.24 130.94 103.81 129.35"/><polygon class="cls-1" points="112.43 124.37 108.5 124.83 107.9 121.1 107.31 124.83 103.37 124.37 106.94 125.96 105.09 129.69 107.9 126.66 110.71 129.69 108.87 125.96 112.43 124.37"/><polygon class="cls-1" points="121.06 119.39 117.12 119.85 116.53 116.12 115.94 119.85 112 119.39 115.56 120.98 113.72 124.71 116.53 121.68 119.34 124.71 117.5 120.98 121.06 119.39"/><polygon class="cls-1" points="129.69 114.41 125.75 114.87 125.16 111.14 124.56 114.87 120.63 114.41 124.19 116 122.35 119.73 125.16 116.7 127.97 119.73 126.12 116 129.69 114.41"/><polygon class="cls-1" points="138.31 109.43 134.38 109.89 133.78 106.16 133.19 109.89 129.25 109.43 132.82 111.02 130.97 114.75 133.78 111.73 136.59 114.75 134.75 111.02 138.31 109.43"/><polygon class="cls-1" points="146.94 104.45 143 104.91 142.41 101.18 141.81 104.91 137.88 104.45 141.44 106.05 139.6 109.77 142.41 106.75 145.22 109.77 143.38 106.05 146.94 104.45"/><polygon class="cls-1" points="155.56 99.48 151.63 99.93 151.04 96.2 150.44 99.93 146.51 99.48 150.07 101.07 148.23 104.8 151.04 101.77 153.84 104.8 152 101.07 155.56 99.48"/><polygon class="cls-1" points="164.19 94.5 160.26 94.95 159.66 91.22 159.07 94.95 155.13 94.5 158.7 96.09 156.85 99.82 159.66 96.79 162.47 99.82 160.63 96.09 164.19 94.5"/><polygon class="cls-1" points="172.82 89.52 168.88 89.98 168.29 86.24 167.69 89.98 163.76 89.52 167.32 91.11 165.48 94.84 168.29 91.81 171.1 94.84 169.25 91.11 172.82 89.52"/></svg>