<svg id="Layer_1" data-name="Layer 1" xmlns="http://www.w3.org/2000/svg" viewBox="0 0 240 240"><defs><style>.cls-1{fill:#fff;}.cls-2{fill:#d39e46;}.cls-3{fill:#27348b;}.cls-4{fill:#e4032e;}.cls-5{fill:#28348a;}</style></defs><path class="cls-1" d="M187.41,74.58c-1.86-18.5-6.32-30.26-6.51-30.75l-2.06-5.36-3.28,4.7A33.28,33.28,0,0,1,149.5,56.08a34,34,0,0,1-27-13.33L120,39.1s-2.51,3.66-2.51,3.66a34,34,0,0,1-27,13.32A33.3,33.3,0,0,1,64.44,43.17l-3.29-4.65s-2,5.31-2,5.31c-.19.49-4.65,12.25-6.51,30.75a152.82,152.82,0,0,0,9.75,71.27A97.63,97.63,0,0,0,97.1,189.79c11.88,8.34,21.61,11.34,22,11.47l.89.27.89-.27c.4-.13,10.13-3.13,22-11.47a97.63,97.63,0,0,0,34.76-43.94A152.82,152.82,0,0,0,187.41,74.58Z"/><path class="cls-1" d="M178.06,44.92A37.24,37.24,0,0,1,161.51,57c-.87-1.51-1.58-2.54-1.58-2.54a21.73,21.73,0,0,1-.29,3.16,34.68,34.68,0,0,1-10.14,1.49A37.3,37.3,0,0,1,120,44.47,37.3,37.3,0,0,1,90.5,59.13c-18.63,0-28.56-14.21-28.56-14.21S44,91.55,65.17,144.73a94.67,94.67,0,0,0,10.28,19.16l-.65,1.78h1.92C95.09,190.77,120,198.34,120,198.34s38.12-11.58,54.83-53.61C196,91.55,178.06,44.92,178.06,44.92Z"/><path class="cls-2" d="M147.57,161.86a3.48,3.48,0,0,1,.84,2.52,4.16,4.16,0,0,1-1,3,2.21,2.21,0,0,1-1.62.68,2.09,2.09,0,0,1-1.57-.57,3.33,3.33,0,0,1-.73-2.39,4.59,4.59,0,0,1,1.07-3.19,2.1,2.1,0,0,1,3,0Zm27.26-17.13c-16.71,42-54.83,53.61-54.83,53.61s-24.91-7.57-43.28-32.67h46.45l7.21-20,.48-1.34H121l7.31-20.16h24.36l1.49-4.14.49-1.34,4-11.2c9.49-4.79,13.45-11.78,15.1-16.81,1.85-5.65,1.48-8,1-10.33s-1.2-5.21-1.2-5.21a23.73,23.73,0,0,0,.65-4.27,65.31,65.31,0,0,0-.11-8.76s-3.46,5.81-6,8.3a11.91,11.91,0,0,1-3.8,2.5c.46-3.52,1.07-6.07-.17-10a28,28,0,0,0-1.75-4.11c-.32-.61-.64-1.19-.93-1.71a37.24,37.24,0,0,0,16.55-12.1S196,91.55,174.83,144.73Zm-42.54,38.5.09-.51,2.24-12-5.28.28-.06,1.17h2.07l-.1.5-1.9,10.22-.06.35h-2.36l-.22,1.09h7.5l.2-1.06h-2.12Zm18.54-20.09a4,4,0,0,0-2.82-2.6,5.91,5.91,0,0,0-7,3.39,3.47,3.47,0,0,0,1,4.46,4.57,4.57,0,0,0,5.15-.28l1-.69-.38,1.18c-.76,2.31-1.82,3.81-3.17,4.45a3.81,3.81,0,0,1-3.15,0l-.33-.13.07-.34.1-.57h-1.3l-.38,2h0c2.17.73,7.45.62,9.4-2.17C151.16,168.9,151.81,165.63,150.83,163.14Zm12.88-17a4,4,0,0,0-2.82-2.59,5.89,5.89,0,0,0-7,3.38,3.48,3.48,0,0,0,1,4.47,4.56,4.56,0,0,0,5.15-.29l1-.69-.38,1.18c-.76,2.31-1.82,3.81-3.16,4.45a3.79,3.79,0,0,1-3.16,0l-.33-.13.07-.34.1-.57H153l-.38,2c2.17.72,7.45.61,9.4-2.17C164,151.92,164.69,148.66,163.71,146.16Zm8.53-18.74a4,4,0,0,0-2.82-2.59,5.89,5.89,0,0,0-7,3.38,3.49,3.49,0,0,0,1,4.47,4.58,4.58,0,0,0,5.16-.29l1-.69-.39,1.18c-.75,2.31-1.82,3.81-3.16,4.45a3.79,3.79,0,0,1-3.16,0l-.32-.13.06-.34.11-.57h-1.31l-.37,2h0c2.16.73,7.45.62,9.39-2.16C172.57,133.18,173.23,129.92,172.24,127.42ZM159,144.26a2.08,2.08,0,0,0-1.52.64,4.61,4.61,0,0,0-1.07,3.19,3.36,3.36,0,0,0,.73,2.4,2.13,2.13,0,0,0,1.57.57,2.25,2.25,0,0,0,1.62-.68,4.17,4.17,0,0,0,1-3,3.52,3.52,0,0,0-.83-2.52A2.14,2.14,0,0,0,159,144.26Zm8.54-18.74a2,2,0,0,0-1.52.64,4.56,4.56,0,0,0-1.08,3.19,3.31,3.31,0,0,0,.74,2.4,2.09,2.09,0,0,0,1.56.57,2.29,2.29,0,0,0,1.63-.68,4.17,4.17,0,0,0,1-3,3.48,3.48,0,0,0-.84-2.52A2.14,2.14,0,0,0,167.49,125.52ZM91.35,144.28l7.37-20.16h-24l1.5-4.14.49-1.34L80.23,109,84,98.64l3.78-10.39h26.9a18.93,18.93,0,0,1,4.65-6.83c.42-.39.87-.76,1.34-1.12a21.6,21.6,0,0,1,6-3.18c7-2.41,7.58-3.56,8.61-6.92.82-2.71,2.88-8.46,3.65-10.61l.3-.83s.09.37.22,1c.41,1.77,1.28,5.53,1.77,7.55.65,2.71,1.17,4.22,1.41,5.72a21.07,21.07,0,0,1,6.19-2.39c7.47-1.5,9.17-7.82,9.81-9.32a12.14,12.14,0,0,0,.55-1.53,18.26,18.26,0,0,0,.47-2.13,34.68,34.68,0,0,1-10.14,1.49A37.3,37.3,0,0,1,120,44.47,37.3,37.3,0,0,1,90.5,59.13c-18.63,0-28.56-14.21-28.56-14.21S44,91.55,65.17,144.73a94.67,94.67,0,0,0,10.28,19.16l.81-2.23,6.29-17.38Zm8-68.79h.53l0-.18.94-5.08,0-.27h-.49l.1-.52H105a2.07,2.07,0,0,1,1.41.62,2,2,0,0,1,.48,1.52,4.57,4.57,0,0,1-1.28,3.4,3.49,3.49,0,0,1-2.71,1H99.28Zm-9.44-6h6.51l-.21,1.08h-.5l0-.3,0-.26h-2l0,.19-.94,5.07-.05.27h.53l-.1.5h-2.5l.07-.5h.57l0-.18.92-5.08,0-.27H90.39l0,.18-.08.38h-.53ZM80.46,74.9h.42l-.06.3,0,.21.21,0a4.74,4.74,0,0,0,.93.17H82c.32,0,1,0,1.22-.49l.06-.11c.26-.51.38-1-.69-1.79L82.28,73c-.89-.68-1.29-1-1.1-2,.24-1.29,1.56-1.75,2.72-1.75a7.82,7.82,0,0,1,1.54.13l-.21,1.14h-.46l0-.26,0-.16L84.66,70a2.36,2.36,0,0,0-1.39-.1.93.93,0,0,0-.81,1c0,.42.34.65.84,1,.2.14.42.29.67.49.89.7,1,1.11,1,1.57a1.84,1.84,0,0,1-.82,1.55,3,3,0,0,1-2.12.58h-.25A9.4,9.4,0,0,1,80.24,76Zm-9.72.59h.52l0-.18.95-5.08.05-.27h-.52l.11-.52h4.93l-.21,1.08h-.46l0-.29,0-.27H73.71l0,.19-.33,1.9,0,.27h2.25l-.09.53H73.19l0,.18-.42,2.19,0,.27h2.53l0-.19,0-.26h.46l-.17.95H70.65Zm31.71,0h-1.12l0-.27,1-5.07,0-.19h1a1.78,1.78,0,0,1,1.69.74,3.16,3.16,0,0,1-.2,3A2.57,2.57,0,0,1,102.45,75.49Z"/><path class="cls-3" d="M79.13,165.67h40.2V196.1A93.74,93.74,0,0,1,79.13,165.67Zm12.22-21.39,7.37-20.16h-24l1.5-4.14H59.77a141.89,141.89,0,0,0,7.17,24,91.5,91.5,0,0,0,9.32,17.63l6.29-17.38Zm35.31-67.16a21.6,21.6,0,0,0-6,3.18v-32a39.63,39.63,0,0,0,18.25,11.3c-.77,2.15-2.83,7.9-3.65,10.61C134.24,73.56,133.7,74.71,126.66,77.12Zm50.66-28.36a39.42,39.42,0,0,1-14.88,10,28,28,0,0,1,1.75,4.11c1.24,4,.63,6.5.17,10a11.91,11.91,0,0,0,3.8-2.5c2.49-2.49,6-8.3,6-8.3a65.31,65.31,0,0,1,.11,8.76,23.73,23.73,0,0,1-.65,4.27s.76,2.87,1.2,5.21.81,4.68-1,10.33c-1.65,5-5.61,12-15.1,16.81l-4,11.2h25.89A149.82,149.82,0,0,0,177.32,48.76ZM142.62,73a21.07,21.07,0,0,1,6.19-2.39c7.47-1.5,9.17-7.82,9.81-9.32a12.14,12.14,0,0,0,.55-1.53A36.93,36.93,0,0,1,149.5,61a39.24,39.24,0,0,1-10.06-1.29c.41,1.77,1.28,5.53,1.77,7.55C141.86,70,142.38,71.51,142.62,73Z"/><path class="cls-3" d="M57.33,77.87h62v3.55a18.93,18.93,0,0,0-4.65,6.83H56.83C56.89,84.62,57.06,81.15,57.33,77.87ZM58,109H80.23L84,98.64H57C57.23,102,57.53,105.46,58,109ZM90.5,61a36.83,36.83,0,0,1-16.66-3.92H60.48c-.67,3-1.36,6.46-1.95,10.38h60.8V57.11H107.56A38.25,38.25,0,0,1,90.5,61Zm81.15,64a5.44,5.44,0,0,1,1.39,2.06c1,2.57.48,5.82-1.39,8.84v11.44q.73-1.65,1.41-3.36a141.89,141.89,0,0,0,7.17-24h-8.58Zm-32.23,49.79-.35-.12-.35-.11.07-.37.06-.36.38-2,.06-.35.07-.35h1.34v-2.86a4.43,4.43,0,0,1-.47-4.72,8.59,8.59,0,0,1,.47-.91V124.12H130.38v20.16h.48l-.48,1.34v24.43l4.2-.23.54,0,.54,0-.1.53-.1.53-2.15,11.54h2.12l-.1.51-.09.5-.19,1.06-.06.35-.06.35h-4.55v6.51a95.26,95.26,0,0,0,10.32-6.44V175.14A9,9,0,0,1,139.42,174.84Zm12.88-17-.35-.11-.35-.12.07-.37.06-.36.38-2,.06-.35.07-.35h3l-.1.5-.09.51,0,.21a2.87,2.87,0,0,0,2.15-.12,5.26,5.26,0,0,0,2.32-2.89,5.22,5.22,0,0,1-5.07-.29,4.3,4.3,0,0,1-1.34-5.51,6.73,6.73,0,0,1,8-3.88l.26.07v-3.53c-.17-.05-.34-.09-.49-.15l-.36-.11-.35-.12.07-.37.07-.36.37-2,.07-.35.06-.35h.56v-4.38a4.55,4.55,0,0,1,0-2.26V120h-7.22l-1.49,4.14H151v37.55a5.48,5.48,0,0,1,.61,1.15,9.39,9.39,0,0,1-.61,7.41v6.45a91.22,91.22,0,0,0,10.32-11.62V156.7C158.68,158.6,154.4,158.57,152.3,157.86Zm7.55-12.37a2.63,2.63,0,0,1,.59,1.91c0,1.68-.71,2.8-1.78,2.8a1.25,1.25,0,0,1-1-.32,2.54,2.54,0,0,1-.49-1.79,3.8,3.8,0,0,1,.83-2.59,1.24,1.24,0,0,1,.91-.39A1.26,1.26,0,0,1,159.85,145.49Z"/><path class="cls-4" d="M130.38,124.12v20.16H121l7.31-20.16Zm-3.67,61h-1l.11-.51.1-.51.22-1.09.07-.34.07-.35h2.35l1.74-9.36h-1.95l0-.45,0-.45.06-1.17,0-.38,0-.38.38,0,.38,0,1.08-.06V145.62l-7.21,20h-2.5V196.1a79,79,0,0,0,9.71-4.45v-6.51Zm14-22.46V124.12H151v37.55a4.55,4.55,0,0,0-2.82-2C146.94,159.44,142.92,158.93,140.7,162.68Zm9.09,9.67c-1.92,2.75-6.29,3.23-9.09,2.79v10.07A96.09,96.09,0,0,0,151,176.68v-6.45A13.78,13.78,0,0,1,149.79,172.35Zm-3.72-10.26a1.24,1.24,0,0,0-.92.39,3.85,3.85,0,0,0-.82,2.59,2.57,2.57,0,0,0,.49,1.79,1.25,1.25,0,0,0,1,.32c1.06,0,1.78-1.13,1.78-2.8a2.67,2.67,0,0,0-.59-1.92A1.24,1.24,0,0,0,146.07,162.09Zm-4.18,9.09h.51l-.1.5-.09.5,0,.21a2.93,2.93,0,0,0,2.15-.11,5.26,5.26,0,0,0,2.32-2.89,5.25,5.25,0,0,1-5.07-.29,4.14,4.14,0,0,1-.87-.79v2.86h1.19Zm26.49-44.43a2.63,2.63,0,0,1,.59,1.91c0,1.68-.71,2.8-1.78,2.8a1.27,1.27,0,0,1-1-.32,2.54,2.54,0,0,1-.49-1.79,3.8,3.8,0,0,1,.83-2.59,1.26,1.26,0,0,1,1.81,0Zm2.82,9.89c-2.11,3-7.18,3.3-9.87,2.63v3.53a4.87,4.87,0,0,1,3.17,3c1.09,2.76.41,6.32-1.83,9.53a5.42,5.42,0,0,1-1.34,1.32v8.36a91.57,91.57,0,0,0,10.32-17.67V136Q171.44,136.3,171.2,136.64Zm-8.41-1.18h1l-.09.5-.09.51,0,.21a2.84,2.84,0,0,0,2.14-.12,5.31,5.31,0,0,0,2.33-2.89,5.25,5.25,0,0,1-5.08-.29,4,4,0,0,1-1.65-2.31v4.38h1.46Zm-1.14-7.59A6.72,6.72,0,0,1,169.6,124a4.49,4.49,0,0,1,2.05,1.06V120H161.33v8.83A5.8,5.8,0,0,1,161.65,127.87ZM56.83,88.25h31L84,98.64H57C56.85,95.05,56.79,91.58,56.83,88.25Zm2.68,30.39H76.74L80.23,109H58C58.37,112.16,58.87,115.37,59.51,118.64ZM57.33,77.87h62V67.49H58.53C58.05,70.68,57.63,74.15,57.33,77.87Zm41.45-1.68.16-1L99,75h.54l.86-4.62h-.49l.05-.27.18-1,0-.18H105a2.52,2.52,0,0,1,1.74.76,2.39,2.39,0,0,1,.61,1.86,5,5,0,0,1-1.42,3.69,3.89,3.89,0,0,1-3,1.15H98.74Zm-9.53-5.48.25-1.53,0-.19H97l-.06.27-.3,1.53,0,.18H95.18l0-.26,0-.29H94.14L93.29,75h.53l0,.27-.19,1,0,.18h-3.4l0-.26.14-1,0-.19h.57l.84-4.62h-1l-.08.37,0,.18H89.2Zm-9.51,5.44.31-1.52,0-.18h1.34l-.05.27-.07.35a3.2,3.2,0,0,0,.61.1H82c.25,0,.68,0,.8-.24l.06-.12c.18-.33.29-.54-.56-1.21L82,73.36c-.91-.7-1.51-1.16-1.27-2.45s1.46-2.12,3.17-2.12a6.2,6.2,0,0,1,1.88.21l.18.06,0,.2-.29,1.53,0,.18H84.28l0-.24,0-.33a1.94,1.94,0,0,0-1,0c-.37.09-.47.22-.46.57,0,.18.21.33.64.63.2.14.43.3.7.51.91.72,1.23,1.25,1.2,2a2.31,2.31,0,0,1-1,1.89,3.58,3.58,0,0,1-2.41.67h-.23a8.74,8.74,0,0,1-1.9-.18l-.21,0Zm-9.59,0,.17-1,0-.18h.52l.86-4.62h-.53l.06-.28.2-1,0-.18h5.86l-.06.27L77,70.79,77,71H75.59l0-.26,0-.29H74.1l-.26,1.44H76.1l0,.27-.17,1,0,.19H73.57L73.24,75h1.59l0-.26,0-.2h1.4l0,.27L76,76.26l0,.19H70.1Zm34.28-2.64a2.75,2.75,0,0,0,.24-2.59c-.24-.38-.62-.53-1.31-.53h-.62L101.88,75h.57A2.13,2.13,0,0,0,104.43,73.54ZM62.68,48.76c-.6,2-1.39,4.79-2.2,8.35H73.84A39.91,39.91,0,0,1,62.68,48.76Zm56.65-.47v8.82H107.56A40.07,40.07,0,0,0,119.33,48.29Z"/><path class="cls-1" d="M119.33,165.67h3.84l7.21-20,.48-1.34H121l7.31-20.16h24.36l1.49-4.14.49-1.34,4-11.2c9.49-4.79,13.45-11.78,15.1-16.81,1.85-5.65,1.48-8,1-10.33s-1.2-5.21-1.2-5.21a23.73,23.73,0,0,0,.65-4.27,65.31,65.31,0,0,0-.11-8.76s-3.46,5.81-6,8.3a11.91,11.91,0,0,1-3.8,2.5c.46-3.52,1.07-6.07-.17-10a28,28,0,0,0-1.75-4.11c-.32-.61-.64-1.19-.93-1.71-.87-1.51-1.58-2.54-1.58-2.54a21.73,21.73,0,0,1-.29,3.16,18.26,18.26,0,0,1-.47,2.13,12.14,12.14,0,0,1-.55,1.53c-.64,1.5-2.34,7.82-9.81,9.32A21.07,21.07,0,0,0,142.62,73c-.24-1.5-.76-3-1.41-5.72-.49-2-1.36-5.78-1.77-7.55-.13-.61-.22-1-.22-1l-.3.83c-.77,2.15-2.83,7.9-3.65,10.61-1,3.36-1.57,4.51-8.61,6.92a21.6,21.6,0,0,0-6,3.18c-.47.36-.92.73-1.34,1.12a18.93,18.93,0,0,0-4.65,6.83H87.78L84,98.64,80.23,109l-3.49,9.62L76.25,120l-1.5,4.14h24l-7.37,20.16h-8.8l-6.29,17.38-.81,2.23-.65,1.78h44.53Z"/><path class="cls-5" d="M155.94,105l-5.67,15.75H132.63l5.28-14.51h-6.74l-15,41.37h9.93l-5.29,14.69H79.58l5.32-14.69h8.8l15.12-41.37H102l-5.24,14.51H79.53L90.12,91.61h26.94a15.75,15.75,0,0,1,10.68-11.32c7.22-2.47,9.64-4.24,10.8-9.35,1.27,2,1.08,8.46,1.08,8.46a21.36,21.36,0,0,1,9.85-5.49c10-2,11.43-10.42,11.43-10.42.78,3.95.42,10.37-1,13.66,3.91-.22,8.09-1.49,10.81-4.57a34.48,34.48,0,0,1-6.14,14.17c5.13-1,7.06-6.25,7.06-6.25S174,96.71,155.94,105Zm-48.62,51.22-1.84-1.55-.45,1.24-1.82-1.54,1-2.81-1.58-1.33-1,2.82L100,151.66l.62-1.68,1,.84.88-2.41L99.64,146l-3.07,8.35,1.83,1.55.55-1.51,5.07,4.25-.38,1,1.84,1.55Zm1.21-3.29-1.84-1.54-.77,2.08,1.84,1.55Zm3-8.1-3.22-2.7-.89,2.44,1.37,1.16-.61,1.66-5.06-4.27.61-1.66,1,.85.86-2.34-2.82-2.39-1.59,4.34a3.23,3.23,0,0,0,1.13,4.1l5,4.24a1.39,1.39,0,0,0,2.42-.57Zm1.2-3.28L110.86,140l-.77,2.1,1.84,1.54Zm13.61-43.1c-1.21-1-5.22-4.42-5.22-4.42-1.29-1-2.12-.71-2.66.75l-1,2.7a2.84,2.84,0,0,0,.31,2.85l-1-.87-1.39,3.78s1.42,2.25,2.08,3.28a2.21,2.21,0,0,0,.35.44,6.16,6.16,0,0,0-.71-.32c-1-.37-2.62-1-2.62-1l-2.28,6.23,3,5.16L111.4,114l-3.63,9.89a3.08,3.08,0,0,0,.38,3.11L107,126l-3.56,9.71,2.8,2.43.71-1.94-1-.9.68-1.88,5.07,4.27-.35.93,1.85,1.55,1.68-4.61L113.06,134l-.34.92-5.06-4.27,1.11-3,.12.11,5.15,4.32a1.35,1.35,0,0,0,2.38-.64l1.11-3a3.09,3.09,0,0,0-1-3.53c-1.33-1.16-5.15-4.35-5.15-4.35l.82-2.24,5.06,4.26-.31.86,1.84,1.54,1.33-3.62-3.36-2.82.54-1.46,3.35,2.82,1.62-4.4-1.84-1.54-.62,1.69L116.71,113l-.63,1.74-1.49-3,.94-2.55,4,1,1.73,1.45-.33.89,1.84,1.55,1.64-4.46-1.84-1.55-.32.88-1.77-1.49-2.66-4.5.67-1.84,5.07,4.28c.91.75,2,1.15,2.62-.62.49-1.31,1.08-2.93,1.08-2.93A3.06,3.06,0,0,0,126.31,98.47ZM109.8,124.83l5.06,4.26.6-1.63-5.06-4.27Zm9.71-26.47,5.06,4.26.6-1.63-5.07-4.25Z"/></svg>