<svg id="Layer_1" data-name="Layer 1" xmlns="http://www.w3.org/2000/svg" viewBox="0 0 240 240"><defs><style>.cls-1{fill:#fff;}.cls-2{fill:#054582;}.cls-3{fill:#161412;}</style></defs><path class="cls-1" d="M57.86,40.51V129.6c0,31.26,20.94,55.23,60.54,69.32l1.6.57,1.6-.57c39.6-14.09,60.54-38.06,60.54-69.32V40.51Z"/><path class="cls-2" d="M120,120.89v19.38l31.86-10.67c0,10-3.83,18-12.07,25.29A76.29,76.29,0,0,1,120,167a76.29,76.29,0,0,1-19.79-12.13C92,147.62,88.14,139.58,88.14,129.6V107.17a4.25,4.25,0,0,0-2.9-4l-22.6-7.56v34c0,39.56,36.06,57.24,57.36,64.82,21.3-7.58,57.36-25.26,57.36-64.82v-34L125.8,112.83A8.51,8.51,0,0,0,120,120.89Z"/><path class="cls-3" d="M88.14,70.78h63.72V94l22.6-7.56a4.25,4.25,0,0,0,2.9-4V45.29H62.64V82.45a4.24,4.24,0,0,0,2.91,4L88.14,94Z"/></svg>