<svg id="Layer_1" data-name="Layer 1" xmlns="http://www.w3.org/2000/svg" viewBox="0 0 240 240"><defs><style>.cls-1{fill:#fff;}.cls-2{fill:#bfb1ac;}.cls-3{fill:#b71e3f;}</style></defs><path class="cls-1" d="M190.33,73c-3.58-1.35-7.13-2.72-10.78-4.18-.08-9.77-6.24-17.69-16.76-21.37l-14-4.9,12,8.74c5.07,3.7,8.17,8.5,8.72,13.39L158,59.81C141.58,52.76,131.7,48.5,120,48.5S98.42,52.76,82,59.81l-11.56,4.9c.54-4.89,3.64-9.7,8.71-13.4l12-8.74-14,4.9C66.65,51.15,60.5,59.08,60.42,68.85,56.77,70.3,53.24,71.68,49.67,73l-1.42.54V96.44c0,31.77,11.32,57.55,33.65,76.72l-10.66,3.18-2.39.72,1,2.27a4.1,4.1,0,0,0,4.3,2.06l.13,0,.14,0,3-.79c-2.61,2.19-5,4.25-5.75,4.92l-4.21,4,5.83-.27c4-.18,6.19-1.87,8.4-3.91l7.72-6.24c3.38,2.43,6.92,4.73,10.57,6.84,2.14,1.23,4.75,2.58,7.28,3.89,4.45,2.3,9,4.68,11.31,6.5l1.38,1.12,1.38-1.12c2.26-1.82,6.86-4.2,11.31-6.5,2.53-1.31,5.14-2.66,7.28-3.89a115.13,115.13,0,0,0,23.59-17.81L179,164.32l.8-.2.47-.66.92-1.31,3.26-4.6-5.51,1.19-6.23,1.34a6.64,6.64,0,0,0,.18-2.68c12.53-16.79,18.89-37.29,18.89-61V73.56Z"/><path class="cls-1" d="M168.66,159.3c15.19-18.58,20.9-40.46,20.9-62.86V75.07C150.8,60.49,137.23,50.69,120,50.69s-30.8,9.8-69.56,24.38V96.44c0,33.43,12.73,65.71,50.69,87.58,5.85,3.37,15.08,7.52,18.87,10.59,3.79-3.07,13-7.22,18.87-10.59a108.1,108.1,0,0,0,28-22.58Z"/><path d="M169.07,158.78c14.88-18.47,20.49-40.15,20.49-62.34V75.07C150.8,60.49,137.23,50.69,120,50.69s-30.8,9.8-69.56,24.38V96.44c0,33.43,12.73,65.71,50.69,87.58,5.85,3.37,15.08,7.52,18.87,10.59,3.79-3.07,13-7.22,18.87-10.59a108.1,108.1,0,0,0,28-22.58h-1a108.23,108.23,0,0,1-27.77,22.33c-5.5,3.17-14,7-18.11,10-4.15-3-12.61-6.85-18.11-10-38-21.87-50.68-54.15-50.68-87.57V75.44C89.67,61,103,51.21,120,51.35S150.33,61,188.79,75.44V96.2c0,22-5.49,43.43-20,61.78Z"/><path class="cls-2" d="M120,191.65c-3.25-2.83-7.74-4.81-13.73-8-39.4-20.6-53.13-54.31-53.13-85.91V76.51C75.63,69.75,100.84,53.3,120,53.3Z"/><path class="cls-3" d="M120,191.65c3.25-2.83,7.74-4.81,13.73-8,39.4-20.6,53.13-54.31,53.13-85.91V76.51C164.37,69.75,139.16,53.3,120,53.3Z"/><path d="M130.81,119.45,126,109a51.67,51.67,0,0,1,7.91-9.83c2.84-2.6,6.74-7.87,6.74-16.69,0-4.38-2.12-11.6-6.86-15.74,9.71,3.78,14.09,15.33,12.43,24.62,10.42-5.33,25.57-8.64,25.57-25.1,0-6.51-4-12.55-9.7-16.69,21.31,7.46,17.75,30.07,5.21,38.95,7.34,1.18,13.73,4.5,16.81,11.72-5.57-4.5-9.83-7-17.76-7C149.4,93.22,136,105.06,130.81,119.45Z"/><path d="M109.15,119.45,114,109a51.67,51.67,0,0,0-7.91-9.83c-2.84-2.6-6.74-7.87-6.74-16.69,0-4.38,2.12-11.6,6.85-15.74C96.49,70.49,92.11,82,93.76,91.33,83.35,86,68.19,82.69,68.19,66.23c0-6.51,4-12.55,9.71-16.69C56.59,57,60.14,79.61,72.69,88.49,65.35,89.67,59,93,55.88,100.21c5.57-4.5,9.83-7,17.76-7C90.57,93.22,104,105.06,109.15,119.45Z"/><polygon points="79.17 150.56 80.3 150.56 79.37 152.13 80.28 153.8 79.14 153.8 78.38 152.36 78.38 153.77 77.37 153.77 77.37 150.56 78.38 150.56 78.38 151.85 79.17 150.56"/><path d="M90.79,150.72a1.54,1.54,0,0,0-.91-.21c-.72,0-1.44.31-1.44,1.09a.88.88,0,0,0,.53.75c.29.12.81.25.8.4s-.22.2-.4.2a2,2,0,0,1-.85-.26v.91a1.89,1.89,0,0,0,1,.24c.65,0,1.49-.38,1.49-1.07,0-.48-.16-.61-.6-.83-.28-.14-.71-.16-.71-.36s.17-.23.45-.23a1.21,1.21,0,0,1,.63.23Z"/><path d="M83.89,153.21l-.15.58H82.65l.79-3.23h1.7l.79,3.23H84.85l-.15-.58Zm.14-.76h.53l-.27-1.12Z"/><path d="M111,153.21l-.15.58h-1.09l.78-3.23h1.71l.79,3.23h-1.08l-.16-.58Zm.14-.76h.52l-.26-1.12Z"/><polygon points="95.48 152.56 95.48 153.79 96.58 153.79 96.58 150.55 95.48 150.55 95.48 151.75 94.83 151.75 94.83 150.55 93.73 150.55 93.73 153.79 94.83 153.79 94.83 152.56 95.48 152.56"/><rect x="99.32" y="150.56" width="1.1" height="3.24"/><polygon points="105.46 153.8 106.05 151.88 106.05 153.8 107.07 153.8 107.07 150.56 105.52 150.56 105.13 152.25 104.74 150.56 103.18 150.56 103.18 153.8 104.21 153.8 104.21 151.88 104.8 153.8 105.46 153.8"/><path d="M123,153.72s.12-1.6.18-2.9a8.67,8.67,0,0,1,.71-3.14L128.23,137v-4.73l2.32-2.25v-5.33l-6.63-14.44h-7.84l-6.63,14.44V130l2.32,2.25V137l4.31,10.66a8.67,8.67,0,0,1,.71,3.14c.06,1.3.18,2.9.18,2.9Z"/><path d="M112.79,174.39c-.13.78.52.74.95.62l65.63-14.13-.92,1.31-68,16.73a4,4,0,0,1-2.7-.2c-.54-.39-.49-.94-.28-1.9,0,0,3.4-13.24,3.49-13.71s-.27-.59-.89-.49c-2.22.36-11.15,6.36-14.18,8.67l12.65-3.63-1,3-16.3,4.13-11,8.87c-2.12,2-3.82,3.25-7.07,3.39,1.56-1.49,13.23-11.12,13.23-11.12l-12.6,3.29c-.7.1-1.73-.14-2-.77l18.56-5.55c7-5.41,13.94-10.41,21.74-13.93,1.1-.5,2.9-1,3.86-.1a2.25,2.25,0,0,1,.35,2.21Z"/><path d="M170.67,157.45c-.3-1.75-2.27-3.39-3.79-4,0,0-2.08,4.2-2.94,5.55a11.74,11.74,0,0,1-2.31,2.65c-.2.12-.65.4-.65,0,.13-1.94,2.47-3.35,1.34-5.23-.56-.93-3.27-1-4.84-1.37-.83,3.19-2.14,6.19-5.11,8.28-.94.65-2.31,1.47-3,.83,1.39-.94,5.76-4,5.49-7a1.93,1.93,0,0,0-1.36-1.63,3.73,3.73,0,0,0-2.89.43,8.88,8.88,0,0,0-4.16,8.35c-.9.58-4.35,2.7-5.27.28,2.89-2.35,6.79-6.37,8-10.58a2.26,2.26,0,0,0-.65-2.25c-1.79-1.31-4.09-.2-5.52,1.25a17.85,17.85,0,0,0-5,12.24,7.77,7.77,0,0,1-3.43,2c-.45.1-.72-.33-.7-.78a13.12,13.12,0,0,1,1.87-6.22l2.66-.64a16.23,16.23,0,0,0,.72-1.72l-2.5.78a20.48,20.48,0,0,1,2.39-3.39c-3.05-.44-5.46,2.24-6.53,4.68-1.25.63-3.11.58-3.77,2.14l3.05-.7-.83,2.53c-1,1.38-4.07,4.54-4.63,4.59s0-1.07.17-1.66c.58-1.86,1.75-2.81,1.89-4.34,0-.54-.62-1-1.64-.69-3,.8-6.45,5.53-6.94,6a22.4,22.4,0,0,1,2.28-4.08c-4.89.49-5.93,6.36-7,9.54l2.39-.43c1.75-2.37,5.32-6.78,7-8.1a17,17,0,0,0-1.3,2.84c-.31.93-.78,2.82,0,3.61a1.49,1.49,0,0,0,1.38.26c2.1-.6,4.14-2.52,5.92-4.59,0,1.36.49,2.45,1.57,2.66,2,.39,5-1.56,6.57-2.77,1.87,2.47,6.18.1,8.57-1.14a3,3,0,0,0,.92.44c4.38,1,8.27-4.33,10.49-8a6,6,0,0,1,1.21.18c.12,0,.19.13.13.26-.6,1.4-2,3.06-1.33,4.51a1.66,1.66,0,0,0,1.72.81c3.25-.45,5-4.25,6.67-6.78a2.63,2.63,0,0,1,1.53,2,1.44,1.44,0,0,1-.81,1.46,2.13,2.13,0,0,1-1.72.07c-.39.52-1.19,1.66-1.66,2.22a7.91,7.91,0,0,0,5.32-1.83A3.9,3.9,0,0,0,170.67,157.45Zm-29,4.71a15.29,15.29,0,0,1,4.3-7.54c.29-.29.63-.61,1-.45s.35.5.15.93a16.31,16.31,0,0,1-1.76,2.87A35.34,35.34,0,0,1,141.63,162.16ZM153,158.25a10.09,10.09,0,0,1-3.84,4.31,6.57,6.57,0,0,1,3.21-4.74C152.88,157.6,153.08,157.88,153,158.25Z"/></svg>