<svg id="Layer_1" data-name="Layer 1" xmlns="http://www.w3.org/2000/svg" viewBox="0 0 240 240"><defs><style>.cls-1{fill:#fff;}.cls-2{fill:#ffed00;}.cls-3{fill:#d51130;}</style></defs><path class="cls-1" d="M202.52,120c0,1.71-1.87,1.83-2.55,1.9s-18.31,2.88-18.31,2.88c1.07.1,14.29,1,15.17,1,3.32,0,6.38,2.41,7.93,4.8,3.57,5.51,4.11,14.61-1.91,20.63-1.33,1.33-3.23,2.08-6.1,2.08h-9.4a75,75,0,0,1-134.7,0h-9.4c-2.87,0-4.77-.75-6.1-2.08-6-6-5.48-15.12-1.91-20.63,1.55-2.39,4.61-4.8,7.93-4.8.88,0,14.1-1,15.17-1,0,0-17.63-2.8-18.31-2.88s-2.55-.19-2.55-1.9,1.87-1.83,2.55-1.9,18.31-2.88,18.31-2.88c-1.07-.1-14.29-1-15.17-1-3.32,0-6.38-2.41-7.93-4.8-3.57-5.51-4.11-14.61,1.91-20.63,1.33-1.33,3.23-2.08,6.1-2.08h9.4a75,75,0,0,1,134.7,0h9.4c2.87,0,4.77.75,6.1,2.08,6,6,5.48,15.12,1.91,20.63-1.55,2.39-4.61,4.8-7.93,4.8-.88,0-14.1,1-15.17,1,0,0,17.63,2.8,18.31,2.88S202.52,118.29,202.52,120Z"/><path d="M189.89,120l-40,5c-.08.48-.18,1-.29,1.42,2,.17,4.31.74,5.63,2.15a21.7,21.7,0,0,1,2.52,3.65,5.57,5.57,0,0,0,3.15,2.1,7.75,7.75,0,0,0,4.41-.46,11.42,11.42,0,0,1-2.06,2.72,6.61,6.61,0,0,1-5.08,1.68,9.17,9.17,0,0,1-4.45-1.89A7.44,7.44,0,0,0,149.6,135a10.36,10.36,0,0,0-3.95.71c-.39.63-.82,1.25-1.26,1.84,3.77,2.07,4.76,4.88,4.89,7.1a6.29,6.29,0,0,0,6.49,6.13,8.15,8.15,0,0,1-5.48,2,8,8,0,0,1-5.52-3.53,7.75,7.75,0,0,0-2.22-2.75,10.81,10.81,0,0,0-5.48-2c-.53.36-1.07.7-1.63,1,2.68,3.4,2.5,6.38,1.73,8.48a6.31,6.31,0,0,0,3.57,8.19,8.09,8.09,0,0,1-5.83-.3,8,8,0,0,1-3.7-5.41,7.5,7.5,0,0,0-1-3.4,10.77,10.77,0,0,0-4.3-4l-.69.11-5.21,24.09-5.21-24.09-.69-.11a10.64,10.64,0,0,0-4.3,4,7.49,7.49,0,0,0-1,3.4,8,8,0,0,1-3.69,5.41,8.09,8.09,0,0,1-5.83.3,6.3,6.3,0,0,0,3.56-8.19c-.76-2.1-1-5.08,1.74-8.48-.56-.33-1.1-.67-1.63-1a10.78,10.78,0,0,0-5.48,2,7.64,7.64,0,0,0-2.22,2.75,8,8,0,0,1-5.53,3.53,8.16,8.16,0,0,1-5.48-2,6.3,6.3,0,0,0,6.5-6.13c.13-2.22,1.12-5,4.89-7.1-.44-.59-.87-1.21-1.27-1.84A10.28,10.28,0,0,0,90.5,135a7.42,7.42,0,0,0-4.07,1.34A9.17,9.17,0,0,1,82,138.24a6.61,6.61,0,0,1-5.08-1.68,11.16,11.16,0,0,1-2.06-2.72,7.75,7.75,0,0,0,4.41.46,5.57,5.57,0,0,0,3.15-2.1,21.7,21.7,0,0,1,2.52-3.65c1.31-1.41,3.61-2,5.63-2.15-.11-.47-.21-.94-.29-1.42L50.2,120l40.06-5c.08-.48.18-1,.29-1.42-2-.17-4.32-.74-5.63-2.15a21.7,21.7,0,0,1-2.52-3.65,5.57,5.57,0,0,0-3.15-2.1,7.75,7.75,0,0,0-4.41.46,11.35,11.35,0,0,1,2.06-2.72A6.61,6.61,0,0,1,82,101.76a9.17,9.17,0,0,1,4.45,1.89A7.5,7.5,0,0,0,90.5,105a10.28,10.28,0,0,0,3.94-.71c.4-.63.83-1.24,1.27-1.84-3.77-2.07-4.76-4.88-4.89-7.1a6.3,6.3,0,0,0-6.5-6.13,8.16,8.16,0,0,1,5.48-2,8,8,0,0,1,5.53,3.53,7.64,7.64,0,0,0,2.22,2.75,10.78,10.78,0,0,0,5.48,2c.53-.36,1.07-.7,1.63-1-2.69-3.4-2.5-6.38-1.74-8.48a6.3,6.3,0,0,0-3.56-8.19,8.09,8.09,0,0,1,5.83.3,8,8,0,0,1,3.69,5.41,7.49,7.49,0,0,0,1,3.4,10.64,10.64,0,0,0,4.3,4l.69-.11,5.21-24.09,5.21,24.09.69.11a10.77,10.77,0,0,0,4.3-4,7.5,7.5,0,0,0,1-3.4,8,8,0,0,1,3.7-5.41,8.09,8.09,0,0,1,5.83-.3,6.31,6.31,0,0,0-3.57,8.19c.77,2.1,1,5.08-1.73,8.48.56.33,1.1.67,1.63,1a10.81,10.81,0,0,0,5.48-2,7.75,7.75,0,0,0,2.22-2.75,8,8,0,0,1,5.52-3.53,8.15,8.15,0,0,1,5.48,2,6.29,6.29,0,0,0-6.49,6.13c-.13,2.22-1.12,5-4.89,7.1.44.6.87,1.21,1.26,1.84a10.36,10.36,0,0,0,3.95.71,7.53,7.53,0,0,0,4.07-1.34,9.17,9.17,0,0,1,4.45-1.89,6.61,6.61,0,0,1,5.08,1.68,11.62,11.62,0,0,1,2.06,2.72,7.75,7.75,0,0,0-4.41-.46,5.57,5.57,0,0,0-3.15,2.1,21.7,21.7,0,0,1-2.52,3.65c-1.32,1.41-3.61,2-5.63,2.15.11.47.21.94.29,1.42Z"/><ellipse class="cls-2" cx="119.81" cy="120" rx="27.85" ry="27.32"/><path class="cls-3" d="M104.6,86.71a8.17,8.17,0,0,0-.63-7.13c2.82,1.17,3.28,4.11,3.53,6.13.2,1.62,2.08,4.41,4.37,5.64a30,30,0,0,0-5.53,2.13A6.68,6.68,0,0,1,104.6,86.71Z"/><path class="cls-3" d="M92.68,95.41A8.19,8.19,0,0,0,89.3,89.1c3,0,4.62,2.49,5.65,4.25.82,1.4,3.62,3.23,6.2,3.47a30.1,30.1,0,0,0-4.25,4.12A6.67,6.67,0,0,1,92.68,95.41Z"/><path class="cls-3" d="M91,111.87a8.2,8.2,0,0,1-3.48-.84,7.92,7.92,0,0,1-2.9-3.14,7.57,7.57,0,0,0-2.22-2.61,7.31,7.31,0,0,0-3.07-1.3,5.06,5.06,0,0,1,2.14-.46c3,.31,3.78,2.08,6.68,3a8.87,8.87,0,0,0,5.16-.13A24.53,24.53,0,0,0,91,111.87Z"/><path class="cls-3" d="M135.5,86.71a8.17,8.17,0,0,1,.63-7.13c-2.82,1.17-3.28,4.11-3.53,6.13-.2,1.62-2.08,4.41-4.37,5.64a30,30,0,0,1,5.53,2.13A6.68,6.68,0,0,0,135.5,86.71Z"/><path class="cls-3" d="M147.42,95.41a8.19,8.19,0,0,1,3.38-6.31c-3.05,0-4.62,2.49-5.65,4.25-.82,1.4-3.62,3.23-6.2,3.47a30.1,30.1,0,0,1,4.25,4.12A6.68,6.68,0,0,0,147.42,95.41Z"/><path class="cls-3" d="M120.05,90.26a31.71,31.71,0,0,1,3.53.2l-3.53-15.54-3.53,15.54A31.71,31.71,0,0,1,120.05,90.26Z"/><path class="cls-3" d="M149.1,111.87a8.2,8.2,0,0,0,3.48-.84,7.92,7.92,0,0,0,2.9-3.14,7.46,7.46,0,0,1,2.22-2.61,7.31,7.31,0,0,1,3.07-1.3,5.08,5.08,0,0,0-2.15-.46c-3,.31-3.77,2.08-6.67,3a8.87,8.87,0,0,1-5.16-.13A24.53,24.53,0,0,1,149.1,111.87Z"/><path class="cls-3" d="M104.6,153.29a8.17,8.17,0,0,1-.63,7.13c2.82-1.17,3.28-4.11,3.53-6.13.2-1.62,2.08-4.41,4.37-5.64a30,30,0,0,1-5.53-2.13A6.68,6.68,0,0,0,104.6,153.29Z"/><path class="cls-3" d="M92.68,144.59a8.19,8.19,0,0,1-3.38,6.31c3,0,4.62-2.49,5.65-4.25.82-1.4,3.62-3.22,6.2-3.47a30.1,30.1,0,0,1-4.25-4.12A6.67,6.67,0,0,0,92.68,144.59Z"/><path class="cls-3" d="M89.78,120a24.07,24.07,0,0,0,.21,3.19L64.85,120,90,116.81A24.07,24.07,0,0,0,89.78,120Z"/><path class="cls-3" d="M91,128.13a8.2,8.2,0,0,0-3.48.84,7.92,7.92,0,0,0-2.9,3.14,7.57,7.57,0,0,1-2.22,2.61,7.31,7.31,0,0,1-3.07,1.3,5.06,5.06,0,0,0,2.14.46c3-.31,3.78-2.08,6.68-3a8.87,8.87,0,0,1,5.16.13A24.53,24.53,0,0,1,91,128.13Z"/><path class="cls-3" d="M135.5,153.29a8.17,8.17,0,0,0,.63,7.13c-2.82-1.17-3.28-4.11-3.53-6.13-.2-1.62-2.08-4.41-4.37-5.64a30,30,0,0,0,5.53-2.13A6.68,6.68,0,0,1,135.5,153.29Z"/><path class="cls-3" d="M147.42,144.59a8.19,8.19,0,0,0,3.38,6.31c-3.05,0-4.62-2.49-5.65-4.25-.82-1.4-3.62-3.22-6.2-3.47a30.1,30.1,0,0,0,4.25-4.12A6.68,6.68,0,0,1,147.42,144.59Z"/><path class="cls-3" d="M120.05,149.74a31.71,31.71,0,0,0,3.53-.2l-3.53,15.54-3.53-15.54A31.71,31.71,0,0,0,120.05,149.74Z"/><path class="cls-3" d="M175.25,120l-25.14,3.19a24.33,24.33,0,0,0,0-6.38Z"/><path class="cls-3" d="M149.1,128.13a8.2,8.2,0,0,1,3.48.84,7.92,7.92,0,0,1,2.9,3.14,7.46,7.46,0,0,0,2.22,2.61,7.31,7.31,0,0,0,3.07,1.3,5.08,5.08,0,0,1-2.15.46c-3-.31-3.77-2.08-6.67-3a8.87,8.87,0,0,0-5.16.13A24.53,24.53,0,0,0,149.1,128.13Z"/><path d="M120.16,103.17c1.8-1.3,6.86-3.62,8.59-3.48,4.56.37,8.83,5.22,9.75,9.12a9.37,9.37,0,0,1-.42,6.34,12.79,12.79,0,0,1-10.41,6.93,6.55,6.55,0,0,1,4.79,3.77,21.75,21.75,0,0,1,1.22,3.24c.67,2.39,2.08,2.71,3.19,2.35a5.3,5.3,0,0,0,2.47-2.56l1,.75c-.8,3.86-2.24,7.59-3.65,9.15a4.42,4.42,0,0,1-3.19,1.68,6.56,6.56,0,0,1-4.58-1.84,9.29,9.29,0,0,1-2.43-4.79,57.75,57.75,0,0,0-2.1-8.39c-.43-1-.93-2.61-2.81-2.48v9.29a6.21,6.21,0,0,0,1.55-1.25l1.39,1.05A111.07,111.07,0,0,1,115,139.9a2.59,2.59,0,0,1-1.81.29c-2.27-.5-3.19-2.6-5.12-2.77a4.82,4.82,0,0,0-4.83,2.35l-1.09-.76a11.58,11.58,0,0,1,.76-1.93,9.73,9.73,0,0,1,5.29-5.5,10.88,10.88,0,0,1,5.41-.49V122.4h-2.35l0-3.66h2.34v-3.85c0-.94-1.27-1.35-2.21-1.43v-.91l1-.05C115.21,112.32,119.36,109,120.16,103.17Z"/><path class="cls-2" d="M117.05,132.21c-.29-.13-.69-.31-1.17-.48a3,3,0,0,0,2-2.45V113.2l1.65-1.37v21A5.54,5.54,0,0,1,117.05,132.21Z"/><path class="cls-2" d="M125.16,118.2a9.57,9.57,0,0,1-3.57.32v-8.16a38.58,38.58,0,0,1,5.12-2.74c.52-.23,1.5.73,1.76,1.09.8,1.09,2.65,4,.88,6.59A7.16,7.16,0,0,1,125.16,118.2Z"/><path d="M108.62,117.23a8.62,8.62,0,0,0,2.54-.29l0-1.43a7.55,7.55,0,0,1-2.31.29c-1.51,0-4.44-1.36-3.78-3.92a2.44,2.44,0,0,1,2.54-1.47,14.64,14.64,0,0,0,3.53.57,5.68,5.68,0,0,0,4.3-1.77,9.13,9.13,0,0,0,2.9-5.29,5.43,5.43,0,0,1-5.54.47c-2.15-.8-3.32-2.31-5.76-2.31a6.23,6.23,0,0,0-4.11,2,8.49,8.49,0,0,0,.34,10.87A7.62,7.62,0,0,0,108.62,117.23Z"/><path d="M120,69.45c24.5,0,42.16,15.23,48.63,36.77a7.59,7.59,0,0,0,2.51,4c1.18.84,1.35,1.09,3.53,1s13.85-1.26,17.29-1.6a7.68,7.68,0,0,1-3.19-4.61,70.24,70.24,0,0,0-137.54,0A7.68,7.68,0,0,1,48,109.66c3.44.34,15.11,1.51,17.29,1.6s2.35-.17,3.53-1a7.59,7.59,0,0,0,2.51-4C77.84,84.68,95.5,69.45,120,69.45Z"/><path d="M50.14,101.54l.12-.46H42.08c.54-2.52-.15-6.93-.86-8.9-.16-.45-.44-.36-.72-.09-4.23,4.23-3.75,10.87-1.28,14.69.93,1.44,2.65,2.65,4,2.65a5.94,5.94,0,0,0,3.73-1.34C49.33,106,49.81,102.76,50.14,101.54Z"/><path d="M43.25,91.4c.67,1.6,1.35,5.59,1,7.35h6.71a73.43,73.43,0,0,1,2.66-7.35Z"/><path d="M189.91,101.54c0-.16-.09-.31-.13-.46H198c-.55-2.52.15-6.93.86-8.9.16-.45.44-.36.71-.09,4.23,4.23,3.76,10.87,1.28,14.69-.93,1.44-2.64,2.65-3.94,2.65a6,6,0,0,1-3.74-1.34C190.72,106,190.23,102.76,189.91,101.54Z"/><path d="M196.79,91.4a17.45,17.45,0,0,0-1,7.35h-6.71a76,76,0,0,0-2.67-7.35Z"/><path d="M120,170.44c24.5,0,42.16-15.23,48.63-36.77a7.59,7.59,0,0,1,2.51-4c1.18-.84,1.35-1.09,3.53-1s13.85,1.26,17.29,1.6a7.68,7.68,0,0,0-3.19,4.61,70.24,70.24,0,0,1-137.54,0A7.68,7.68,0,0,0,48,130.23c3.44-.34,15.11-1.51,17.29-1.6s2.35.17,3.53,1a7.59,7.59,0,0,1,2.51,4C77.84,155.21,95.5,170.44,120,170.44Z"/><path d="M50.14,138.35l.12.46H42.08c.54,2.52-.15,6.93-.86,8.9-.16.45-.44.36-.72.09-4.23-4.23-3.75-10.88-1.28-14.7.93-1.43,2.65-2.64,4-2.64a5.89,5.89,0,0,1,3.73,1.34C49.33,133.85,49.81,137.13,50.14,138.35Z"/><path d="M43.25,148.49c.67-1.6,1.35-5.59,1-7.35h6.71a73.43,73.43,0,0,0,2.66,7.35Z"/><path d="M189.91,138.35c0,.16-.09.31-.13.46H198c-.55,2.52.15,6.93.86,8.9.16.45.44.36.71.09,4.23-4.23,3.76-10.88,1.28-14.7-.93-1.43-2.64-2.64-3.94-2.64a5.89,5.89,0,0,0-3.74,1.34C190.72,133.85,190.23,137.13,189.91,138.35Z"/><path d="M196.79,148.49a17.45,17.45,0,0,1-1-7.35h-6.71a76,76,0,0,1-2.67,7.35Z"/><path class="cls-2" d="M70.51,93.57v.05a.67.67,0,0,0,.14.7l.21.25a.59.59,0,0,0,.51.24.54.54,0,0,0,.43-.3L74.64,90a.64.64,0,0,0,0-.65l0,0,0,0-.25-.32a.62.62,0,0,0-.45-.26.59.59,0,0,0-.48.22c-.54.53-.59.54-1.07.24l-2-1.24h3.72l.37-.05c1-.13,1.6-.23,2-.89l1.56-2.49.18-.3L78,84l-.47-.3a1.11,1.11,0,0,0-.87,0l-.3.08c-.78.15-4.06.52-6.5.65l-1-3a5.43,5.43,0,0,1-.26-1.75c0-.44,0-.82-.34-1l-.45-.28-.3-.19-.18.3-1.21,1.93-.08.14,0,.15L68,86.37l-2.07-1.29a.69.69,0,0,1-.35-.89h0v0a.67.67,0,0,0-.14-.7l-.21-.25a.62.62,0,0,0-.5-.25.6.6,0,0,0-.44.3l-2.85,4.57a.64.64,0,0,0-.05.65l0,0,0,0,.25.31a.57.57,0,0,0,.93,0c.54-.52.59-.54,1.07-.23l6.49,4a.68.68,0,0,1,.34.88Z"/><path class="cls-2" d="M92.28,72.58s-.09-.35-.09-.35v0a.58.58,0,0,0-.31-.34.66.66,0,0,0-.52,0c-.5.22-.68.19-1.38-.24-2.74-1.48-5.84-3.33-8.3-5l0,0a.83.83,0,0,0-1.06-.14l-2.86,2.2a.67.67,0,0,0-.3.8s.12.3.12.3l0-.06a.61.61,0,0,0,.28.43.85.85,0,0,0,.73,0,1,1,0,0,1,.47-.1l.08,0c.26,0,.54.09.75.7,0,0,2.13,6.94,2.13,6.94.26.89.23.92-.12,1.37a.83.83,0,0,0-.22.82l.08.24a.63.63,0,0,0,.4.45.77.77,0,0,0,.69-.25l.08-.06,2.15-1.65a.69.69,0,0,0,.2-.77v0l0-.22c-.11-.54-.65-.44-.83-.41s-.4.08-.51-.22c0,0-.26-.94-.39-1.39L85.9,73.8l1,.58c.35.24.31.34.2.62a1,1,0,0,0-.08.71l.11.39a.56.56,0,0,0,.93.28l3.88-3A.66.66,0,0,0,92.28,72.58ZM82.21,71.49l2,1.25-1.35,1Z"/><path class="cls-2" d="M99.83,61.1l-.18,0c-1.57-.29-2.28-.45-2.51-1.33a1.05,1.05,0,0,1,.58-1.19,1.15,1.15,0,0,1,1.27.18l.11.1c.6.51.88.71,1.15.66a.4.4,0,0,0,.27-.22l0,0,.43-.64,0-.05,0-.06v0a.58.58,0,0,0,0-.39L100.49,57l0,0c-.17-.57-.81-.55-1.27-.54a6.36,6.36,0,0,0-2.35.62c-3.48,1.51-4,3.62-3.4,5.09a3.63,3.63,0,0,0,3.11,2l.37.08,1,.19c1.58.29,2.3.45,2.63,1.3a1.62,1.62,0,0,1-1.06,2,1.44,1.44,0,0,1-1.35-.25c-.24-.18-.46-.39-.64-.55-.38-.34-.65-.58-.93-.35l-.52.51a.64.64,0,0,0,0,.79l0,.09.64,1.48c.28.64.55.62,1.43.52a11.48,11.48,0,0,0,2.72-.83,6,6,0,0,0,3.48-3,3.28,3.28,0,0,0-.16-2.63C103.54,62.06,102.09,61.52,99.83,61.1Z"/><path class="cls-2" d="M125.13,64.17c-.73-.17-.77-.21-.78-.78l-.13-7.64a.67.67,0,0,1,.55-.76h0l0,0a.66.66,0,0,0,.51-.5l.1-.31a.6.6,0,0,0-.07-.55.58.58,0,0,0-.49-.21l-5.38.1a.63.63,0,0,0-.58.31v.06l-.13.38a.63.63,0,0,0,0,.52.61.61,0,0,0,.45.28c.73.17.77.21.78.78,0,0,0,1.88,0,2.41l-3.06,0c0-.53,0-2.41,0-2.41a.68.68,0,0,1,.56-.77h0a.69.69,0,0,0,.52-.5l.09-.32a.6.6,0,0,0-.07-.55.55.55,0,0,0-.49-.2l-5.38.09a.61.61,0,0,0-.57.31l0,0v0l-.13.39a.57.57,0,0,0,0,.51.58.58,0,0,0,.44.29c.74.16.78.2.79.77l.12,7.64a.67.67,0,0,1-.55.76h0a.67.67,0,0,0-.52.5l-.09.31a.59.59,0,0,0,.07.56.56.56,0,0,0,.48.2l5.39-.09a.64.64,0,0,0,.57-.31l0,0v0l.12-.38a.59.59,0,0,0,0-.52.61.61,0,0,0-.45-.28c-.73-.17-.77-.2-.78-.77L117,60.14l3.06,0,.06,3.37a.68.68,0,0,1-.55.77h0l0,0a.65.65,0,0,0-.51.49l-.1.32a.55.55,0,0,0,.56.76l5.38-.1a.63.63,0,0,0,.58-.31v0l0,0,.12-.39a.57.57,0,0,0,0-.51A.56.56,0,0,0,125.13,64.17Z"/><path class="cls-2" d="M141.31,56.93l-5.17-1.49a.62.62,0,0,0-.64.13l0,0,0,0-.23.33a.58.58,0,0,0-.13.5.57.57,0,0,0,.34.4c.66.38.68.42.52,1l-2.11,7.34a.66.66,0,0,1-.75.57H133a.7.7,0,0,0-.64.33l-.18.27a.57.57,0,0,0-.09.55.56.56,0,0,0,.4.34l5.18,1.49a.64.64,0,0,0,.64-.13l0,0,0,0,.24-.33a.59.59,0,0,0,.12-.5.61.61,0,0,0-.34-.4c-.65-.37-.68-.42-.52-1L140,59a.68.68,0,0,1,.75-.57h.06a.68.68,0,0,0,.64-.32l.18-.28a.57.57,0,0,0,.09-.55A.55.55,0,0,0,141.31,56.93Z"/><path class="cls-2" d="M163.85,71.7a.86.86,0,0,0,.81,0l.36-.29a.51.51,0,0,0,.19-.41.77.77,0,0,0-.39-.53l-2.55-1.77a.62.62,0,0,0-.71,0l-.26.14c-.46.27-.2.73-.1.9l.09.17c.15.31.23.5-.12.79l-3.73,3.14,1.9-6.06a1.18,1.18,0,0,1,.07-.2c.11-.31.24-.69-.07-.9l-1.71-1.19c-.31-.21-.62,0-.92.25l-.14.11-5.29,3.91L153,65c.13-.37.27-.37.68-.33a1,1,0,0,0,.79-.12l.35-.27a.46.46,0,0,0,.2-.39.76.76,0,0,0-.39-.57l-4.08-2.83a.54.54,0,0,0-.73,0l0,0-.32.22c-.41.29-.18.75-.1.92l.05.09c.18.35.26.5,0,1.18,0,0-3.26,8.48-3.26,8.48-.12.37-.13,1,.23,1.28l1.84,1.28c.48.33,1-.06,1.24-.25l4.69-3.51-1.86,5.47c-.12.36-.13,1,.23,1.27l2,1.39c.52.36,1.07-.1,1.25-.25l6.91-6C163.25,71.55,163.42,71.57,163.85,71.7Z"/><path class="cls-2" d="M174.55,82.39l-2.05-3a.69.69,0,0,0-.79-.34l-.31.11.06,0a.58.58,0,0,0-.44.27.83.83,0,0,0,0,.72,1.06,1.06,0,0,1,.07.48.45.45,0,0,1,0,.08c0,.25-.12.53-.74.71l-7,1.8c-.9.21-.93.19-1.36-.18a.8.8,0,0,0-.82-.26l-.24.07a.62.62,0,0,0-.46.37.76.76,0,0,0,.21.7l.06.09,1.54,2.22a.69.69,0,0,0,.76.24h0l.22,0c.54-.09.47-.63.44-.81s-.06-.4.25-.5l1.41-.32,1.71,2.47-.63,1c-.26.33-.36.28-.62.16a1,1,0,0,0-.72-.11l-.38.09a.6.6,0,0,0-.44.36.64.64,0,0,0,.11.56l2.79,4a.66.66,0,0,0,.8.36l.36-.07h0a.58.58,0,0,0,.36-.29.68.68,0,0,0,0-.52c-.2-.51-.16-.69.31-1.37,1.6-2.67,3.6-5.67,5.34-8l0,0A.8.8,0,0,0,174.55,82.39Zm-5,1.33-1.35,2-1-1.4Z"/><path class="cls-2" d="M76.33,152.17a.63.63,0,0,0-.73-.15l-.37.15a.52.52,0,0,0-.32.31.77.77,0,0,0,.12.63c.33.53.3.79-.13,1.18l-5.53,5.06a.67.67,0,0,1-.94.09h0l0,0a.65.65,0,0,0-.71-.06l-.3.14a.61.61,0,0,0-.37.42.59.59,0,0,0,.17.5l3.63,4a.63.63,0,0,0,.62.22h0l0,0,.37-.16a.6.6,0,0,0,.37-.36.62.62,0,0,0-.09-.52c-.36-.66-.36-.71.06-1.1L74,160.76h0l-1.38,4.81,0,.06a.86.86,0,0,0,.12.89l2.44,2.67.23.25.26-.23.49-.45.15-.14,0-.2c-.15-.62.1-2.48.94-5.24a3.72,3.72,0,0,0,4.28-.75c1.55-1.45.84-3.68-.13-4.74Zm-1,7.4,2.91-2.66.52.56c.36.4.65,1-.39,2a2.69,2.69,0,0,1-1.89.89,1.07,1.07,0,0,1-.79-.38Z"/><path class="cls-2" d="M99,170.28a.85.85,0,0,0-.46-.55l-7.45-3.87a.65.65,0,0,0-.73.11l-.3.27a.54.54,0,0,0-.19.4.75.75,0,0,0,.32.55c.5.39.56.64.29,1.16l-3.84,7.4a1.43,1.43,0,0,0-.23,1.11c.18.54.77.85,2.22,1.6l.09,0,4.55,2.36a1.23,1.23,0,0,0,1,.16.62.62,0,0,0,.39-.32l.82-1.59a.5.5,0,0,0-.09-.6l-.29-.29c-.25-.24-.54-.07-.74.05a1.72,1.72,0,0,1-1.82.1l-1.19-.62c-.53-.28-.77-.4-.14-1.61l1.17-2.26,2.45,1.27a.94.94,0,0,0,.86.06h0l0,0,.69-.43,0,0a.48.48,0,0,0,.28-.42.58.58,0,0,0-.36-.51l-3.1-1.6,1.32-2.53,1.84,1c.42.22.5.63.56,1.11a.78.78,0,0,0,.23.61.45.45,0,0,0,.34.07l.39-.08a.55.55,0,0,0,.37-.28l.69-1.32,0,0A.64.64,0,0,0,99,170.28Z"/><path class="cls-2" d="M119,174.29l-3-.42a.56.56,0,0,0-.57.25l-.19.28c-.3.44.12.74.3.87l.18.13c.18.16.23.2,0,.53l-2.44,3.17L112,175.64c0-.43.07-.53.13-.58a1,1,0,0,1,.27-.16.77.77,0,0,0,.43-.36s.18-.38.18-.38a.51.51,0,0,0-.41-.75l-4.86-.67a.58.58,0,0,0-.67.31l-.19.34a.48.48,0,0,0-.06.39.81.81,0,0,0,.46.5c.22.15.44.31.72,1.14,0,0,1.6,4.83,1.82,5.48l-.3,2.16a.68.68,0,0,1-.67.67h-.05a.69.69,0,0,0-.59.42l-.14.29a.59.59,0,0,0,0,.56.56.56,0,0,0,.45.28l5.33.73a.62.62,0,0,0,.61-.21l0,0,0,0,.17-.34a.62.62,0,0,0,.07-.54.6.6,0,0,0-.4-.34c-.7-.28-.73-.33-.65-.89l.23-1.71a4.13,4.13,0,0,1,.59-1.35l2.91-3.86c.5-.74.8-.82,1-.89l.11,0a1,1,0,0,0,.69-.41h0v0l.13-.32a.57.57,0,0,0,0-.49A.54.54,0,0,0,119,174.29Z"/><path class="cls-2" d="M133.49,176.86l-.17-.06c-1.48-.61-2.13-.91-2.18-1.82a1.05,1.05,0,0,1,.81-1,1.15,1.15,0,0,1,1.2.44l.09.12c.49.62.71.88,1,.87a.39.39,0,0,0,.32-.15l0,0,.55-.54.05-.05,0,0,0,0a.56.56,0,0,0,.07-.39L135,173v0c0-.59-.67-.7-1.13-.78a5.92,5.92,0,0,0-2.42.13c-3.72.76-4.7,2.72-4.38,4.29s1.62,2.17,2.65,2.61l.34.15c.34.15.65.27,1,.39,1.49.61,2.16.91,2.31,1.81a1.61,1.61,0,0,1-1.46,1.77,1.39,1.39,0,0,1-1.26-.52,8.25,8.25,0,0,1-.52-.67c-.3-.4-.51-.7-.84-.53l-.61.39a.64.64,0,0,0-.17.77.58.58,0,0,1,0,.1l.33,1.58c.14.69.41.72,1.29.8a11.16,11.16,0,0,0,2.84-.26,6,6,0,0,0,4-2.28,3.24,3.24,0,0,0,.38-2.6C136.93,178.55,135.62,177.73,133.49,176.86Z"/><path class="cls-2" d="M148.08,165.73a6.47,6.47,0,0,0-2.74,8.93,6.18,6.18,0,0,0,8.48,2.44,6.54,6.54,0,0,0,2.65-9.07A6,6,0,0,0,148.08,165.73Zm5.23,9.53a1.48,1.48,0,0,1-1.22.24c-.69-.16-1.8-.86-3.18-3.3-1-1.75-1.37-4-.26-4.66a1.66,1.66,0,0,1,1.29-.16c.93.26,1.94,1.28,2.84,2.87C153.82,172.1,154.32,174.55,153.31,175.26Z"/><path class="cls-2" d="M171.68,157.25a.47.47,0,0,0-.6,0l-.35.22c-.28.19-.18.5-.11.73a1.72,1.72,0,0,1-.3,1.8l-.87,1c-.21.25-.37.37-.52.39s-.57-.18-1.08-.61l-5.17-4.35a.68.68,0,0,1-.22-.92h0l0,0a.69.69,0,0,0,0-.72l-.18-.27a.58.58,0,0,0-.46-.31.57.57,0,0,0-.47.23l-3.47,4.12a.64.64,0,0,0-.14.64v0l0,0,.21.35a.59.59,0,0,0,.4.32.61.61,0,0,0,.51-.15c.61-.45.66-.45,1.1-.09l5.84,4.92a.68.68,0,0,1,.22.92h0l0,0a.71.71,0,0,0,0,.72l.18.28a.61.61,0,0,0,.46.31.55.55,0,0,0,.47-.24l5.76-6.85c.53-.63.41-1.11.14-1.34Z"/></svg>