<svg id="Layer_1" data-name="Layer 1" xmlns="http://www.w3.org/2000/svg" viewBox="0 0 240 240"><defs><style>.cls-1{fill:#fff;}.cls-2{fill:#3ea3dc;}.cls-3{fill:#c09c71;}.cls-4{fill:#c1ad76;}</style></defs><path class="cls-1" d="M196,75.7l2.71-5.38-5.83,1.5a13.87,13.87,0,0,1-3.52.5,38.23,38.23,0,0,0,3.32-13.4l.13-5.72-4.53,3.5a52.16,52.16,0,0,1-11.42,6.45v-.84l-.58-.74-1-1.21,0,0-.56-.68V46.92l-1.17-.82-12.06-8.38-1.88-1.31L158,38l-2.24,2.23c-5.85,5.86-20.41,3.64-32.08-.39l-2.8-1-.9-.31-.9.31-2.8,1c-11.67,4-26.23,6.25-32.08.39L82,38l-1.61-1.62-1.88,1.31L66.43,46.1l-1.17.82V59.71l-.56.68,0,0c-.17.21-.45.56-1,1.21l-.59.74v.84A52.16,52.16,0,0,1,51.77,56.7l-4.53-3.5.13,5.72a38.23,38.23,0,0,0,3.32,13.4,13.87,13.87,0,0,1-3.52-.5l-5.83-1.5,2.71,5.38c.17.33,4,7.62,15.3,12.85a27.57,27.57,0,0,0-4.23,7.21l-.38-.27L51,92.83l-.53,4.58-.72,6.34c0,.47-.09.93-.12,1.39l-1.17-.27-.16,3.27-.23,4.52c0,.12,0,.35,0,.47a16.69,16.69,0,0,0,.16,2.21c0,.78,0,1.5,0,1.5l0,4.83c0,.12,0,.41,0,.82l-3.82-.86,1.31,4.45,1.81,6.17a30.55,30.55,0,0,0,1.5,3.84l-2.1,0,1.26,3.59,1.74,5a20.37,20.37,0,0,0,2.53,4.83l-.79.07L53,153l1.9,4.73a22.31,22.31,0,0,0,8.5,10.12l-1.29.8-2.73,1.7,2.13,2.42,3,3.36a20.73,20.73,0,0,0,11.82,6.33l-.06.09-2.78,4.3-2,3.1L75,191l4.92,1.4a28.39,28.39,0,0,0,14.18.13,29.89,29.89,0,0,0-.34,4.48s-.06,3.44-.06,3.44l0,2.36,2.33.38c7.83,1.28,12-.49,13.62-1.42A19.67,19.67,0,0,0,120,190.84a19.67,19.67,0,0,0,10.41,10.88c1.59.93,5.81,2.7,13.62,1.42l2.33-.38,0-2.36-.07-3.48a30.83,30.83,0,0,0-.32-4.44,28.35,28.35,0,0,0,14.17-.13L165,191l3.56-1-2-3.1-2.78-4.3-.06-.09a20.73,20.73,0,0,0,11.82-6.33l2.95-3.36,2.13-2.42-2.73-1.7-1.29-.8a22.31,22.31,0,0,0,8.5-10.12L187,153l1.36-3.42-.79-.07a20.12,20.12,0,0,0,2.53-4.82l1.74-5,1.26-3.59-2.1,0a29.68,29.68,0,0,0,1.5-3.85l1.81-6.16,1.31-4.45-3.82.86c0-.41,0-.7,0-.82l0-4.83v-1.5a16.69,16.69,0,0,0,.16-2.21,5,5,0,0,0,0-.52s-.22-4.47-.22-4.47l-.16-3.27-1.17.27c0-.46-.07-.92-.12-1.39l-.72-6.34L189,92.83l-3.76,2.66-.38.27a27.57,27.57,0,0,0-4.23-7.21C192,83.32,195.78,76,196,75.7Z"/><path d="M119.11,182.71c-.53,5.66-2.47,10.18-5.89,13.34A18.61,18.61,0,0,1,100,200.6l-3.47-.31v-3.47A26.15,26.15,0,0,1,98,188l-.09,0c-6.12,3.14-13.2,2.7-17.26,1.58l-4.93-1.39,2.75-4.29a35.69,35.69,0,0,1,3.1-4.09,18.29,18.29,0,0,1-15.06-5.65l-2.95-3.35,3.78-2.31a10.82,10.82,0,0,1,1.88-1.09,18.77,18.77,0,0,1-11.76-10.81l-1.93-4.79s1.33-.07,2.6-.2a19.2,19.2,0,0,1-5.63-8l-1.74-4.91s1.4-.09,2.83-.09a34.42,34.42,0,0,1-3.51-7.25l-1.74-6.17,3.27.75a17.44,17.44,0,0,1-.72-4.38l0-4.86a3.85,3.85,0,0,0,.37.13,13.6,13.6,0,0,1-.49-3.8v-.31l.19-4.53,1.46.28a13.17,13.17,0,0,1-.12-2.1,17.41,17.41,0,0,1,.12-2.38l.73-6.34s2,1.38,3.55,2.44c.47-3.14,2-6.9,5.72-11.08h-.11L64,87.46C50.6,82.58,46.5,74.4,46.5,74.4c5.75,1.49,8.23-.3,8.23-.3a35.51,35.51,0,0,1-4.64-15.27A57.06,57.06,0,0,0,66,67v-3.8l.88-1.16L68,60.68V48.34l12.07-8.46,2.19,2.35c8.53,8.43,28.86,2.3,34.9.23l1.56-.58,1.29-.42,2.8,1c6.08,2.07,26.35,8.2,34.86-.23l2.26-2.35L172,48.34V60.68c.36.48.78.91,1.15,1.38l.84,1.1V67a57.14,57.14,0,0,0,15.81-8.19,35.71,35.71,0,0,1-4.61,15.27s2.5,1.79,8.21.3c0,0-4.09,8.18-17.51,13.06l1.67,1.6h0c3.64,4.18,5.21,7.94,5.63,11.08,1.58-1.06,3.59-2.44,3.59-2.44l.76,6.34c.05.79.15,1.61.15,2.38s-.1,1.41-.15,2.1l1.46-.28.19,4.53v.31a13.6,13.6,0,0,1-.49,3.8,3.85,3.85,0,0,0,.37-.13l0,4.86a17.44,17.44,0,0,1-.72,4.38h0l3.29-.75-1.83,6.17a30.12,30.12,0,0,1-3.39,7.25c1.4,0,2.81.09,2.81.09l-1.74,4.91a19.7,19.7,0,0,1-5.66,8c1.34.13,2.61.2,2.61.2l-1.89,4.79a19.17,19.17,0,0,1-11.8,10.81,15.37,15.37,0,0,1,5.19,4.09,26.19,26.19,0,0,1-7.1,6.2,18.69,18.69,0,0,1-10.42,2.11,38.16,38.16,0,0,1,3,4.09l2.85,4.3-5,1.38A25.46,25.46,0,0,1,142,188a26.15,26.15,0,0,1,1.53,8.82v3.47l-3.47.31a18.6,18.6,0,0,1-13.27-4.55c-3.42-3.16-5.36-7.68-5.88-13.34a3.9,3.9,0,0,1-.89-.11A4.81,4.81,0,0,1,119.11,182.71Z"/><path class="cls-1" d="M120,49.15c.58,0,6,0,13.12.74a88.63,88.63,0,0,1-11.84-3.19L120,46.25l-1.37.46a88.36,88.36,0,0,1-11.69,3.17C114.05,49.16,119.41,49.15,120,49.15Z"/><path class="cls-1" d="M152.88,53.57a24.36,24.36,0,0,0,7.25-3l.43-.26,2,1.4,1.32.87v5.71a27.73,27.73,0,0,1,3.54,2.53V50.69l-7.06-4.92c-4.93,4.53-12.21,5.59-19.39,5.14A93.08,93.08,0,0,1,152.88,53.57Z"/><path class="cls-1" d="M76,58.22V52.53l1.24-.82,2.1-1.46.41.26a24.23,24.23,0,0,0,7.27,3.06,93.77,93.77,0,0,1,11.7-2.63c-7.1.42-14.29-.66-19.16-5.17l-7.09,4.92V60.74A26.61,26.61,0,0,1,76,58.22Z"/><path class="cls-1" d="M163.91,88.43v2.46c0,5.63-1.08,55.29-38.63,63.58-1.71.37-3.46.65-5.19.85h-.17a50.64,50.64,0,0,1-5.26-.85C98.43,150.88,87,139.32,80.77,120.1A102.31,102.31,0,0,1,76,91.24V88.43c-1.13-.28-2.31-.57-3.53-.91v3.65A104.39,104.39,0,0,0,77.3,121C84,141.6,96.3,154,113.92,157.92a41.81,41.81,0,0,0,6.08,1,40.62,40.62,0,0,0,6.08-1C143.65,154,156,141.6,162.65,121a104.31,104.31,0,0,0,4.8-29.81V87.51C166.23,87.85,165,88.15,163.91,88.43Z"/><path class="cls-2" d="M158.54,117.29h-4.18v11A73.39,73.39,0,0,0,158.54,117.29Z"/><path class="cls-2" d="M135.16,149.32a39.52,39.52,0,0,0,8.06-5.65V117.29h-8.06Z"/><path class="cls-2" d="M124,117.29h-8.07v35.92c1.31.26,2.67.46,4.06.62,1.35-.16,2.68-.36,4-.61Z"/><path class="cls-2" d="M85.63,117.29H81.46c.23.78.47,1.56.72,2.35a74,74,0,0,0,3.45,8.72Z"/><path class="cls-2" d="M96.73,143.72a38.85,38.85,0,0,0,8.08,5.64V117.29H96.73Z"/><path class="cls-2" d="M84.57,54.37A25.55,25.55,0,0,1,79.44,52c-.49.32-1.35.92-1.35.92l-.56.39v4.05A46.73,46.73,0,0,1,84.57,54.37Z"/><path class="cls-2" d="M162.42,57.39V53.33c-.28-.2-.64-.43-.64-.43s-.82-.57-1.29-.88a25.21,25.21,0,0,1-5.12,2.35A47.92,47.92,0,0,1,162.42,57.39Z"/><path class="cls-2" d="M157.56,89.78a4.59,4.59,0,0,1-1.3.21V75.28l.13-.25a22.32,22.32,0,0,1,2.27-3.65c-15.18-6.54-37.74-6.56-38.66-6.56s-23.48,0-38.67,6.56A21.56,21.56,0,0,1,83.58,75l.12.25V88.7c0,.51,0,1.36,0,1.36-.58-.1-.88-.22-1.33-.28-1.33-.25-3-.58-4.82-1v2.47c0,.18,0,1.75.17,4.26h84.57c.13-2.23.15-3.83.15-4.61V88.77C160.57,89.19,158.9,89.53,157.56,89.78Z"/><path class="cls-2" d="M169.22,64.38V76.91c-11.78-13.46-47.66-13.5-49.22-13.5s-37.45,0-49.24,13.5V64.38c11-13.82,48.86-13.8,49.24-13.8S158.2,50.56,169.22,64.38Z"/><path class="cls-2" d="M180.34,75.71l-.12-.19.14-.19a72.18,72.18,0,0,0,6-10.93c-3.55,3.39-10.11,6-16.27,7.95l0,6.29s-1,.24-1.06.24a20.65,20.65,0,0,0-11,9.43c7.23-1.44,22-5,28-11C184,77.71,181.68,77.62,180.34,75.71Z"/><path class="cls-2" d="M53.84,77.32c6,5.94,20.77,9.52,28,11a20.4,20.4,0,0,0-11-9.42l-1.1-.24-.06-6.3c-6.11-1.89-12.63-4.55-16.19-8a73,73,0,0,0,6,10.94l.14.19-.14.19C58.46,77.27,56.48,77.81,53.84,77.32Z"/><path class="cls-1" d="M150.3,83c-.47-.19-1.06-.62,0-1a2.78,2.78,0,0,0,2.33-1.46,4.94,4.94,0,0,0,.2-1.61c-.15-.21.39-1.19.31-1.77s-1.08-1-1.63-1.3-.49-1-.77-1.27a3.44,3.44,0,0,0-2.09-.68c-.9-.11-.85,1.13-1.1,1.63s-.19.12-.82,1.06a3.82,3.82,0,0,0-.27.86c-.52.52-.79-.63-.87-1.24a7.34,7.34,0,0,1,.08-.73c.06-.37.42-2.93-1.87-3.71s-2.3,1.23-2.34,1.68-.54.34-1.27.6-.73,1.21-.47,1.61-.83,1.66-.46,2.64c.11.36.23.55.44.62.52.75.09.72-.24.6a.46.46,0,0,0-.76.07c-.67.94-.72-.74-.72-.74s-.15-1.46-1.3-.24a7.59,7.59,0,0,0,.14-1.3c-.07-.2.53-1.21.38-1.78s-1-1-1.53-1.36-.47-1-.77-1.31a3.66,3.66,0,0,0-2-.74c-.83-.15-.83,1.07-1.16,1.61s-.21,0-.85,1a1.45,1.45,0,0,0-.3.77c-.53.56-.79-.61-.86-1.29,0-.29.08-.51.08-.67.13-.4.59-2.92-1.72-3.81s-2.28,1.14-2.33,1.55-.6.36-1.34.56a1.2,1.2,0,0,0-.54,1.64c.23.41-.9,1.6-.58,2.59a3.4,3.4,0,0,0,.42.68c.5.73.07.67-.24.54a.44.44,0,0,0-.75.07c-.72.9-.72-.81-.72-.81s-.07-1.18-.94-.58a4.85,4.85,0,0,0-1.48-1.55c-.66-.5-1.27.66-1.72.92s-.18,0-1.22.57a2,2,0,0,0-.68.6c-.7.2-.36-.89-.15-1.56.15-.22.31-.4.41-.56.26-.28,1.77-2.37.16-4.18s-2.51,0-2.83.39-.65,0-1.39-.15-1.21.77-1.21,1.19-1.53,1-1.67,2.08a1.28,1.28,0,0,0,0,.83c.17.9-.22.61-.46.34-.07-.27-.28-.47-.68-.27-1,.46-.32-1.08-.32-1.08s.94-2.11-2.76,0a3.93,3.93,0,0,0-1.31,2,3.09,3.09,0,0,0-1.94-1.2c-.82-.14-.86.29-1.41.29-.39,0-1.12-.4-1.32-.24,0,0-.4.24-.81.52s-.66.19-.7,0a1,1,0,0,0,.26-.81c-.08-.62-.68-1-.77-1.18s0-1.49-.54-1.43-1.12,1.22-1.47,1.22-1.73-.46-2-.21-1.18,1.14-.79,1.77.08.9-.07,1.08-.65.62-.41,1.22a4.37,4.37,0,0,0,.56.78c.71,1.9-.68,1.59-1.41,1.39-.64-.54-1-.54-1.38-.24s-.46.45-1.68,1-.62,1.25-.43,2.22-1.08.65-.38,1.65S90.63,85,91,85a1.25,1.25,0,0,0,.64-.32c.51-.21,1.2-.37.72.7a2.38,2.38,0,0,0-.66,2.6,4.35,4.35,0,0,0,1,1.3c.16.13.48,1.17.93,1.51s1.45,0,2.09-.14,1,.37,1.44.39a3.44,3.44,0,0,0,2-.93c.68-.51-.2-1.41-.37-2s.17-.17-.09-1.32a1.82,1.82,0,0,0-.36-.79c0-.72,1-.12,1.5.25a2.9,2.9,0,0,0,.41.62c.22.33,1.73,2.41,4,1.46,1.86-.88,1.09-2.08.64-2.63.46.23,1.34.53,1.73.07a.72.72,0,0,1,1-.26c.13,0,.79.46,1.23,0a3.22,3.22,0,0,0,.69-.75c1.52-1.27,1.73.2,1.73.93-.39.73-.26,1.18.15,1.39s.62.32,1.5,1.29,1.42.25,2.25-.32S116,89,116.8,88s.46-3.93.33-4.29c-.07-.13-.31-.28-.48-.47-.35-.39-.69-1,.44-.94a2.65,2.65,0,0,0,2.77-.1,2.16,2.16,0,0,0,.42-.49,1.6,1.6,0,0,1,.58.27c.23.27.47,1.07.72,1.13a5.79,5.79,0,0,0,1,.19c.63.18.63.38.51.54a1.22,1.22,0,0,0-.75.36,2.4,2.4,0,0,0-.36,1.42c0,.21-1.07,1-.62,1.33s1.62,0,1.85.31.9,1.46,1.29,1.51,1.63.06,1.86-.66.57-.65.73-.74.94.09,1.19-.52a2.63,2.63,0,0,0,.22-1c.82-1.8,1.59-.63,2,.07,0,.84.36,1.16.78,1.16a4.53,4.53,0,0,1,1.93.49c1.25.41,1.36-.44,1.88-1.33s1.24.39,1.44-.83a2.86,2.86,0,0,0-.21-1.49c.28.18.5.15.78.37s.62,1,.83,1.09a6,6,0,0,0,1,.13c.58.13.58.34.41.53-.34.13-.59.19-.7.41-.35.52-.2,1.18-.28,1.4s-1.06,1.09-.57,1.37,1.58-.06,1.87.19,1,1.47,1.35,1.52,1.67-.05,1.83-.76.53-.73.74-.73.87,0,1.08-.63a2.39,2.39,0,0,0,.17-1c.72-1.84,1.67-.72,1.95-.06.14.91.45,1.15.87,1.15a4.63,4.63,0,0,1,2,.38c1.27.45,1.32-.48,1.74-1.36s1.28.35,1.49-.88-1.52-3.73-1.76-4a1.7,1.7,0,0,0-.75-.14m-44.79-2.47a1.72,1.72,0,0,0-.85,0c-.52.25-.7.83-.87,1a2,2,0,0,0-.84-1.07,1.23,1.23,0,0,0-.74-.22c-.92-.15-.56-.39-.3-.55.34,0,.54-.12.52-.54-.17-1.16,1.09,0,1.09,0s.71.65,1,0a.33.33,0,0,0,.06.1s.31.29.74.62.39.56.22.63m29.33.89c-.16-.06-.39-.09-.67-.16-.44-.24-1.06-.64,0-1.07a2.79,2.79,0,0,0,1.67-.53c-.09.15-.19.3-.29.48a4.4,4.4,0,0,0-.32,1.81A3.2,3.2,0,0,0,134.84,81.4Z"/><path class="cls-2" d="M90,81.81c-.22-.22.21-.37.45-.43s.17-.41.33-.25.12.08-.09.19.09.17-.08.43A.42.42,0,0,1,90,81.81Z"/><path class="cls-2" d="M145.38,84.05a.59.59,0,0,1,.09-.23S144,81,144,79.93s.36-.2.36-.2l.52,1.62a6,6,0,0,0,.92,2.34c.31-.13.41.07.41.07.6,1,.44,1.38.31,1.44s-.66,0-.68,0S145.41,84.12,145.38,84.05Z"/><path class="cls-2" d="M145.91,82.69l.07-.14a11.16,11.16,0,0,1-1.86-2.62c-.16-.68.24-.2.24-.2s0,.09.66,1.16a5.31,5.31,0,0,0,1.09,1.53.27.27,0,0,1,.36-.06c.62.67.57.92.47,1s-.47,0-.51,0S146,82.79,145.91,82.69Z"/><path class="cls-2" d="M143.72,83.88a.25.25,0,0,0-.12-.19,13.45,13.45,0,0,0,.19-3.11c-.19-.7-.32-.09-.32-.09a9.29,9.29,0,0,0,0,1.32,3.52,3.52,0,0,1-.15,1.85c-.26,0-.26.16-.26.16-.2.88,0,1.06.14,1.18s.42-.24.43-.3A3.87,3.87,0,0,0,143.72,83.88Z"/><path class="cls-2" d="M145.56,80.89a2.93,2.93,0,0,0,4-1.64C150.9,76.34,148.77,82.18,145.56,80.89Z"/><path class="cls-2" d="M143.12,79.88s-1.59-.76-.91-3.56A4.55,4.55,0,0,0,143.12,79.88Z"/><path class="cls-2" d="M142.6,82s-3.88,3.81-5.81.6C136.79,82.55,138.85,85.2,142.6,82Z"/><path class="cls-2" d="M149.64,87a6.79,6.79,0,0,1-2.87-2.85A14.74,14.74,0,0,0,149.64,87Z"/><path class="cls-2" d="M143.33,85.49s-.24,2.88-2.87,3.41A5,5,0,0,0,143.33,85.49Z"/><path class="cls-2" d="M150,80.39c0,.34-.35.19-.57,0s-.45.14-.45,0,0-.17.27-.17,0-.15.25-.19S150,80.17,150,80.39Z"/><path class="cls-2" d="M149.58,86.09c-.09.36-.45.15-.63.08s-.4.07-.4-.08,0-.08.21-.08,0-.16.29-.2S149.58,85.9,149.58,86.09Z"/><path class="cls-2" d="M143.35,78c0,.36-.36.14-.56.06s-.39.08-.39-.06,0-.1.2-.1,0-.19.29-.23A.36.36,0,0,1,143.35,78Z"/><path class="cls-2" d="M147.09,81.49c0,.14-.15.32-.25.27s-.3.19-.36,0,0-.18.13-.19-.07-.17.09-.22S147.09,81.4,147.09,81.49Z"/><path class="cls-2" d="M148.34,84.53a.28.28,0,0,1-.27.27c-.06,0-.3.11-.35,0s-.06-.13.05-.22,0-.11.17-.14S148.34,84.47,148.34,84.53Z"/><path class="cls-2" d="M146.48,80.75c0,.2-.41.25-.31.15s-.18-.15-.1-.26.1-.06.15-.2.07-.27.25-.17.14.24.07.37Z"/><path class="cls-2" d="M149,79.9c-.2.27-.2,0-.42,0s-.48,0-.28-.06.46-.53.66-.27S149.07,79.88,149,79.9Z"/><path class="cls-2" d="M142,87.85c-.23.24-.23-.1-.44-.06s-.46,0-.27-.09.43-.46.59-.23S142.11,87.75,142,87.85Z"/><path class="cls-2" d="M141.53,83.76c-.31.29-.2-.07-.39-.07s-.59,0-.36-.09.42-.51.65-.25S141.6,83.69,141.53,83.76Z"/><path class="cls-2" d="M142.62,82.94c-.21.26-.21-.09-.41-.09s-.54.09-.31,0,.4-.55.62-.28S142.69,82.85,142.62,82.94Z"/><path class="cls-2" d="M149.25,78.88c0,.16,0,0-.12.14s-.25.27-.2.1.14-.25.22-.25S149.26,78.81,149.25,78.88Z"/><path class="cls-2" d="M139.69,83.09c0,.19,0,0-.11.13s-.29.25-.24.13.2-.3.26-.3S139.74,83,139.69,83.09Z"/><path class="cls-2" d="M147.88,81.51c-.06.19,0,0-.16.12s-.22.32-.2.13a.35.35,0,0,1,.25-.27S147.91,81.4,147.88,81.51Z"/><path class="cls-2" d="M143.79,86.29c-.07.17,0-.05-.13.16s-.31.18-.19.08a.7.7,0,0,1,.19-.29C143.77,86.24,143.79,86.22,143.79,86.29Z"/><path class="cls-2" d="M147.52,85.85c-.07.19,0,0-.14.16s-.23.21-.19,0a.35.35,0,0,1,.19-.24C147.5,85.81,147.52,85.73,147.52,85.85Z"/><path class="cls-2" d="M147.82,80.12c.29.15,0,.37-.28.46s-.22.37-.21.15,0-.09.12-.24S147.54,80,147.82,80.12Z"/><path class="cls-2" d="M143.12,87.44c.23.08-.07.31-.23.41s-.29.36-.27.13.07,0,.14-.23S142.89,87.28,143.12,87.44Z"/><path class="cls-2" d="M142.4,81.51c.24.12-.14.33-.29.45s-.3.39-.22.17,0-.09.12-.29S142.11,81.4,142.4,81.51Z"/><path class="cls-2" d="M141.33,82c.27.17-.11.39-.3.46s-.28.41-.25.16.11-.09.15-.23S141,81.84,141.33,82Z"/><path class="cls-2" d="M141.77,78.57c.27.12,0,.31-.24.44s-.33.4-.31.17.11-.14.17-.31S141.53,78.43,141.77,78.57Z"/><path class="cls-2" d="M143.6,78.62c.25.14-.1.39-.27.4s-.28.4-.24.17,0-.07.14-.21S143.29,78.47,143.6,78.62Z"/><path class="cls-2" d="M148.34,81.35c.08-.24.21-.24.21-.4s-.13-.35.21-.2.39.56.31.59h-.45C148.54,81.4,148.27,81.49,148.34,81.35Z"/><path class="cls-2" d="M141.77,86.83a.75.75,0,0,0,.15-.43c0-.16,0-.35.29-.17s.41.53.27.6a.91.91,0,0,0-.44,0C141.9,86.87,141.67,87,141.77,86.83Z"/><path class="cls-2" d="M142.24,80.49c.16-.27.17-.32.17-.45s-.11-.32.21-.16.47.56.32.61a1.39,1.39,0,0,0-.46,0C142.4,80.51,142.17,80.64,142.24,80.49Z"/><path class="cls-2" d="M94.46,80.49a1.22,1.22,0,0,1,.11.24s3.06,1,3.75,1.74-.13.38-.13.38A7.33,7.33,0,0,1,96.71,82,5.37,5.37,0,0,0,94.46,81c-.17.39-.4.29-.4.29-1.1-.34-1.13-.73-1.21-.85s.57-.35.6-.46A5.73,5.73,0,0,1,94.46,80.49Z"/><path class="cls-2" d="M95,81.82a1.34,1.34,0,0,1,.11.14,13,13,0,0,1,3.08.59c.66.43,0,.3,0,.3s-.07.09-1.22-.3a4.27,4.27,0,0,0-1.9-.37c0,.29-.19.24-.19.24-.89,0-1-.24-1.09-.38s.29-.41.37-.41S94.92,81.81,95,81.82Z"/><path class="cls-2" d="M95.85,79.48h.2A12,12,0,0,0,98,82c.67.32.29-.2.29-.2a4.9,4.9,0,0,0-.88-.87c-1.09-1-1.22-1.48-1.22-1.48a.46.46,0,0,0,.13-.39c-.47-.76-.82-.71-.86-.71s-.19.5-.19.51A7.68,7.68,0,0,0,95.85,79.48Z"/><path class="cls-2" d="M96.57,82.94a2.9,2.9,0,0,0-1.88,3.89C95.73,89.91,93.28,84.18,96.57,82.94Z"/><path class="cls-2" d="M99,82s1.65-.56,3.07,2A4.59,4.59,0,0,0,99,82Z"/><path class="cls-2" d="M98,80.08s.14-5.43,3.78-4.44C101.81,75.64,98.48,75.1,98,80.08Z"/><path class="cls-2" d="M89.37,81.24a7.06,7.06,0,0,1,4,.11A16.45,16.45,0,0,0,89.37,81.24Z"/><path class="cls-2" d="M95,78.08s-1.83-2.36-.21-4.51A5,5,0,0,0,95,78.08Z"/><path class="cls-2" d="M93.6,86.29c-.21-.25.17-.37.4-.44s.2-.34.29-.21.16.09,0,.21,0,.16-.13.38A.37.37,0,0,1,93.6,86.29Z"/><path class="cls-2" d="M100.09,83.53c-.19-.31.2-.44.42-.48s.18-.36.3-.22.11.11,0,.22,0,.15-.15.36S100.22,83.69,100.09,83.53Z"/><path class="cls-2" d="M95,83.53a.28.28,0,0,1,0-.41s.11-.27.19-.27.17.09.11.2.1.15,0,.26S95.05,83.56,95,83.53Z"/><path class="cls-2" d="M92,82.13c-.09-.09-.09-.31,0-.32s.12-.31.21-.3.13.1.08.19.15.11,0,.26S92.13,82.21,92,82.13Z"/><path class="cls-2" d="M95.89,83.66c0-.19.19-.54.16-.35s.19,0,.3.15-.09.1,0,.23.17.21-.09.27-.21-.08-.35-.2Z"/><path class="cls-2" d="M94.65,86c0-.37.21-.11.36-.28s.35-.39.29-.13,0,.63-.3.62S94.66,86.09,94.65,86Z"/><path class="cls-2" d="M94.33,75.44c0-.34.16-.12.33-.29S95,74.79,95,75s0,.69-.35.64S94.33,75.49,94.33,75.44Z"/><path class="cls-2" d="M97.53,78c0-.33.16-.09.33-.24s.33-.38.24-.13.07.61-.24.61S97.53,78.16,97.53,78Z"/><path class="cls-2" d="M97.25,79.41c0-.39.19-.12.36-.29s.36-.36.27-.11,0,.62-.27.62S97.25,79.48,97.25,79.41Z"/><path class="cls-2" d="M95.19,86.87c-.08-.14,0,0,0-.16s0-.34.11-.25a2.21,2.21,0,0,1,0,.37C95.22,86.91,95.22,87,95.19,86.87Z"/><path class="cls-2" d="M99.28,77.27c-.07-.16,0,0,0-.19s0-.34,0-.17.12.32,0,.36S99.28,77.4,99.28,77.27Z"/><path class="cls-2" d="M94.39,84c-.06-.08.06.09,0-.08s.06-.41.07-.28.11.36,0,.36S94.46,84.12,94.39,84Z"/><path class="cls-2" d="M94.06,77.73c0-.15.08,0,.08-.17s0-.33,0-.21.11.3,0,.34S94.14,77.85,94.06,77.73Z"/><path class="cls-2" d="M91.69,80.6c-.06-.11,0,0,0-.11s0-.41.11-.27a2.32,2.32,0,0,1,0,.38C91.75,80.64,91.75,80.73,91.69,80.6Z"/><path class="cls-2" d="M95.4,85c-.35.14-.21-.3-.1-.47s-.08-.48.06-.26,0,0,.13.26S95.68,84.91,95.4,85Z"/><path class="cls-2" d="M93.83,76.48c-.3.07-.23-.31-.07-.47a.73.73,0,0,0,0-.32c.17.17,0,.13.09.32S94.06,76.35,93.83,76.48Z"/><path class="cls-2" d="M98.42,80.22c-.32.12-.23-.32-.1-.49s0-.44.1-.25,0,.12,0,.25S98.7,80.12,98.42,80.22Z"/><path class="cls-2" d="M98.86,79.18c-.28.11-.18-.31,0-.49s-.13-.44,0-.28,0,.13,0,.28S99.09,79,98.86,79.18Z"/><path class="cls-2" d="M100.82,82c-.25.11-.13-.26,0-.45s0-.51,0-.27,0,.1.1.27S101.18,82,100.82,82Z"/><path class="cls-2" d="M99.5,83.2c-.29.11-.22-.35,0-.51s-.09-.46,0-.27,0,.07.06.27S99.77,83.09,99.5,83.2Z"/><path class="cls-2" d="M94.16,84.47c.11.29,0,.33.13.41s.33.26,0,.29-.68,0-.63-.17.3-.2.33-.32S94.14,84.31,94.16,84.47Z"/><path class="cls-2" d="M95.22,76c.09.22.08.33.14.39s.32.15,0,.28-.66-.13-.62-.18.23-.18.32-.33S95.19,75.82,95.22,76Z"/><path class="cls-2" d="M99.28,80.9c0,.29,0,.34.08.44s.34.17,0,.28-.65-.11-.63-.17a3.73,3.73,0,0,0,.35-.34C99.09,81,99.17,80.75,99.28,80.9Z"/><path class="cls-2" d="M111.79,81.76c0-.06.18-.14.18-.14s.06-3.24.53-4.07.49,0,.49,0a15.93,15.93,0,0,1-.43,1.63,7,7,0,0,0-.31,2.44.35.35,0,0,1,.39.33c0,1.14-.31,1.33-.42,1.4s-.58-.41-.58-.5S111.79,81.82,111.79,81.76Z"/><path class="cls-2" d="M112.91,80.9a.2.2,0,0,1,.1-.17,10.27,10.27,0,0,1-.35-3.15c.17-.67.33,0,.33,0a12.6,12.6,0,0,1,0,1.26,5.65,5.65,0,0,0,.2,1.92c.31-.09.32,0,.32,0,.2.92.09,1.06,0,1.18s-.49-.2-.51-.2S112.91,80.9,112.91,80.9Z"/><path class="cls-2" d="M110.46,80.75s-.11-.17-.11-.17a12.6,12.6,0,0,0,1.78-2.65c.12-.7-.29-.2-.29-.2s0,0-.64,1.14a5.65,5.65,0,0,1-1,1.62c-.2-.22-.36,0-.36,0-.56.67-.45.91-.39,1.06s.48,0,.49,0A4.19,4.19,0,0,0,110.46,80.75Z"/><path class="cls-2" d="M113.48,79a2.84,2.84,0,0,0,4.24.58C120.36,77.73,115.63,81.81,113.48,79Z"/><path class="cls-2" d="M111.81,77s-1-1.38,1-3.58A4.63,4.63,0,0,0,111.81,77Z"/><path class="cls-2" d="M110.35,78.54S105.18,80,105,76.32C105,76.32,105.45,79.6,110.35,78.54Z"/><path class="cls-2" d="M114,86.4A7.24,7.24,0,0,1,113,82.49,15,15,0,0,0,114,86.4Z"/><path class="cls-2" d="M109.32,82s-1.68,2.45-4.14,1.64A4.76,4.76,0,0,0,109.32,82Z"/><path class="cls-2" d="M117.65,80.78c-.24.33-.44,0-.59-.2s-.41-.09-.36-.24.1-.12.28-.07.11,0,.34,0S117.72,80.64,117.65,80.78Z"/><path class="cls-2" d="M114.39,85.6c-.14.3-.36,0-.54-.26s-.37-.14-.32-.18.09-.16.2,0,.15-.14.42,0S114.56,85.38,114.39,85.6Z"/><path class="cls-2" d="M113,75.49c-.19.33-.45,0-.57-.21s-.39-.13-.29-.21,0-.13.2-.07.09-.12.34,0S113.1,75.32,113,75.49Z"/><path class="cls-2" d="M114.56,80.39a.3.3,0,0,1-.4.1c0-.1-.31,0-.31-.15s0-.17.18-.12.08-.14.22-.14S114.57,80.27,114.56,80.39Z"/><path class="cls-2" d="M114.11,83.6a.34.34,0,0,1-.38.11c-.06,0-.3,0-.25-.11s0-.14.14-.14,0-.15.22-.11S114.15,83.53,114.11,83.6Z"/><path class="cls-2" d="M114.35,79.48c-.08.12-.5,0-.32-.06s-.15-.23,0-.3.12,0,.23-.1.18-.21.29,0,0,.24-.11.39Z"/><path class="cls-2" d="M117,79.9c-.33.14-.18-.17-.37-.2s-.44-.22-.22-.22.65-.29.7.07S117.06,79.88,117,79.9Z"/><path class="cls-2" d="M107,83.46c-.3.1-.12-.18-.34-.26s-.44-.22-.21-.22.68-.29.69.07S107.13,83.41,107,83.46Z"/><path class="cls-2" d="M108.54,79.63c-.31.09-.15-.15-.38-.22s-.43-.29-.19-.23.63-.3.63.08C108.75,79.55,108.6,79.6,108.54,79.63Z"/><path class="cls-2" d="M109.93,79.48c-.32.07-.17-.19-.44-.29-.1-.07-.39-.21-.17-.21s.62-.22.74.06S110,79.42,109.93,79.48Z"/><path class="cls-2" d="M117.66,79.18c-.13.11,0-.06-.15,0s-.38.1-.25,0a.63.63,0,0,1,.39-.15C117.66,79.12,117.72,79,117.66,79.18Z"/><path class="cls-2" d="M107.29,78.19c-.15.07,0,0-.16.06s-.35.06-.26-.06a1,1,0,0,1,.33-.11C107.29,78.13,107.37,78.13,107.29,78.19Z"/><path class="cls-2" d="M115.16,80.75c-.14.15,0,0-.14,0s-.32.12-.26,0,.26-.14.36,0S115.23,80.73,115.16,80.75Z"/><path class="cls-2" d="M109.28,83c-.13.07,0,0-.18,0s-.34.06-.23,0a.39.39,0,0,1,.38-.18S109.39,82.85,109.28,83Z"/><path class="cls-2" d="M112.76,84.33c-.1.17,0,0-.12.08s-.39.09-.25,0,.27-.14.28-.12S112.83,84.29,112.76,84.33Z"/><path class="cls-2" d="M115.8,79.55c.19.27-.21.33-.42.18s-.44.2-.3.09.13-.09.25-.19S115.63,79.29,115.8,79.55Z"/><path class="cls-2" d="M108.16,83.6c.21.28-.24.28-.43.22s-.44.23-.34.06.14-.06.27-.19S108,83.35,108.16,83.6Z"/><path class="cls-2" d="M110.35,78.13c.17.25-.24.25-.41.18s-.46.23-.33.07.15-.07.23-.19S110.2,77.85,110.35,78.13Z"/><path class="cls-2" d="M109.25,78c.2.29-.27.3-.49.29s-.39.16-.32,0,.16,0,.31-.12S109.06,77.78,109.25,78Z"/><path class="cls-2" d="M111.32,75.22c.19.27-.23.27-.42.22s-.44.2-.38,0,.16,0,.27-.17S111.18,75,111.32,75.22Z"/><path class="cls-2" d="M112.83,76.17c.2.23-.19.23-.41.18s-.45.2-.29.05.12-.05.26-.17S112.66,75.9,112.83,76.17Z"/><path class="cls-2" d="M115.63,80.89c.3-.16.33-.16.4-.31s.14-.31.27,0,.18.61,0,.61a2,2,0,0,1-.42-.24C115.79,81,115.57,81,115.63,80.89Z"/><path class="cls-2" d="M107.27,82.42a1.87,1.87,0,0,1,.37-.24c0-.14.09-.36.28-.05s.12.66,0,.66-.28-.21-.39-.24S107.13,82.49,107.27,82.42Z"/><path class="cls-2" d="M110.73,77.08a3.31,3.31,0,0,0,.45-.23c0-.15,0-.35.2-.07s.15.69,0,.63-.23-.14-.39-.18S110.67,77.23,110.73,77.08Z"/><path class="cls-2" d="M129.17,82.07a1.57,1.57,0,0,1,.13-.23A16.18,16.18,0,0,1,127.93,78c0-1,.4-.18.4-.18s.11.07.39,1.64a6.21,6.21,0,0,0,.83,2.34c.35-.13.47.08.47.08.55,1,.34,1.36.22,1.47s-.67-.11-.69-.11S129.17,82.18,129.17,82.07Z"/><path class="cls-2" d="M129.77,80.78s.07-.18.07-.18A12.7,12.7,0,0,1,128.05,78c-.11-.69.28-.18.28-.18s.11,0,.63,1.1A3.78,3.78,0,0,0,130,80.49a.26.26,0,0,1,.34,0c.56.66.49.91.44,1s-.49,0-.56,0A2.48,2.48,0,0,1,129.77,80.78Z"/><path class="cls-2" d="M127.48,81.82l-.1-.19a13.42,13.42,0,0,0,.42-3.09c-.25-.75-.36-.11-.36-.11a5.49,5.49,0,0,0-.06,1.3,4.07,4.07,0,0,1-.17,1.89.32.32,0,0,0-.33.19c-.23.86,0,1,.08,1.13s.42-.25.48-.26A2.74,2.74,0,0,0,127.48,81.82Z"/><path class="cls-2" d="M129.47,78.88a2.9,2.9,0,0,0,4.1-1.41C135,74.61,132.71,80.39,129.47,78.88Z"/><path class="cls-2" d="M127.1,77.79s-1.6-.8-.78-3.59A4.75,4.75,0,0,0,127.1,77.79Z"/><path class="cls-2" d="M126.45,79.88s-4,3.65-5.79.39C120.66,80.27,122.54,83,126.45,79.88Z"/><path class="cls-2" d="M133.3,85.2a6.6,6.6,0,0,1-2.73-3A14.79,14.79,0,0,0,133.3,85.2Z"/><path class="cls-2" d="M127.1,83.46s-.45,2.83-3,3.27A4.92,4.92,0,0,0,127.1,83.46Z"/><path class="cls-2" d="M134,78.67c0,.34-.4.14-.62,0s-.4.14-.4,0,0-.15.26-.15,0-.09.27-.16A.39.39,0,0,1,134,78.67Z"/><path class="cls-2" d="M133.27,84.31c0,.37-.41.16-.61,0s-.42.14-.42,0,0-.16.26-.16,0-.1.27-.19S133.3,84.12,133.27,84.31Z"/><path class="cls-2" d="M127.44,76c-.06.33-.4.11-.62,0s-.37,0-.37-.07,0-.12.17-.12.13-.13.34-.18S127.46,75.72,127.44,76Z"/><path class="cls-2" d="M131,79.63a.36.36,0,0,1-.24.25c-.16,0-.37.16-.38,0s0-.15.06-.16,0-.12.16-.17S131,79.55,131,79.63Z"/><path class="cls-2" d="M132.1,82.69c0,.16-.17.29-.21.25s-.38.15-.4,0-.07-.13.11-.15,0-.16.1-.25S132.09,82.58,132.1,82.69Z"/><path class="cls-2" d="M130.46,78.87c-.05.15-.44.25-.3.14s-.25-.14-.14-.32.14,0,.17-.15,0-.28.21-.13.15.21.06.35Z"/><path class="cls-2" d="M133,78.16c-.2.22-.18-.08-.42-.08s-.49,0-.29-.12.48-.49.71-.23S133.07,78.08,133,78.16Z"/><path class="cls-2" d="M125.66,85.76c-.19.25-.19-.1-.39-.1s-.53,0-.36-.11.47-.41.7-.21S125.73,85.66,125.66,85.76Z"/><path class="cls-2" d="M125.29,81.63c-.17.21-.17,0-.39,0s-.52,0-.29-.11.47-.55.68-.26S125.38,81.61,125.29,81.63Z"/><path class="cls-2" d="M126.45,80.9c-.22.21-.22-.12-.43-.12s-.52,0-.29,0,.45-.51.67-.24S126.52,80.78,126.45,80.9Z"/><path class="cls-2" d="M133.27,77.11c0,.17,0,0-.14.16s-.24.2-.18.08a.33.33,0,0,1,.26-.27S133.3,77,133.27,77.11Z"/><path class="cls-2" d="M123.55,81c0,.16,0,0-.14,0s-.25.31-.19.15a.31.31,0,0,1,.22-.26C123.55,80.89,123.56,80.78,123.55,81Z"/><path class="cls-2" d="M131.79,79.72c-.09.16,0,0-.15.1s-.26.22-.22.08a3.3,3.3,0,0,1,.22-.27C131.73,79.63,131.79,79.6,131.79,79.72Z"/><path class="cls-2" d="M127.46,84.29c0,.18,0,0-.08.12s-.28.2-.26.09.15-.23.26-.23S127.48,84.18,127.46,84.29Z"/><path class="cls-2" d="M131.24,84c-.06.19,0,0-.15.16s-.29.19-.21.06a.45.45,0,0,1,.29-.22S131.28,83.88,131.24,84Z"/><path class="cls-2" d="M131.79,78.31c.3.12-.09.36-.28.38s-.33.35-.27.18.07-.06.18-.25S131.51,78.16,131.79,78.31Z"/><path class="cls-2" d="M126.76,85.38c.28.13,0,.35-.26.38s-.32.41-.27.16.09-.07.14-.26S126.5,85.2,126.76,85.38Z"/><path class="cls-2" d="M126.31,79.48c.21.12-.13.34-.3.4s-.29.34-.28.16.07-.11.16-.31S126,79.31,126.31,79.48Z"/><path class="cls-2" d="M125.15,79.88c.32.16,0,.34-.24.39s-.3.37-.23.17.09,0,.12-.27S124.91,79.73,125.15,79.88Z"/><path class="cls-2" d="M125.8,76.48c.28.19-.07.37-.3.43s-.23.32-.21.08.06,0,.18-.25S125.56,76.34,125.8,76.48Z"/><path class="cls-2" d="M127.61,76.55c.32.19-.06.39-.25.44s-.34.41-.26.19.11-.1.11-.25S127.36,76.48,127.61,76.55Z"/><path class="cls-2" d="M132.24,79.55c.12-.26.26-.29.26-.43s-.14-.31.21-.14.4.5.24.57-.24-.07-.42,0S132.15,79.7,132.24,79.55Z"/><path class="cls-2" d="M125.47,84.7c.09-.23.19-.23.19-.39s-.1-.35.23-.16.42.55.28.61-.28-.06-.44-.06S125.35,84.88,125.47,84.7Z"/><path class="cls-2" d="M126.18,78.41c.14-.25.19-.28.19-.45s-.05-.31.25-.11.42.53.32.56-.34,0-.49,0S126.14,78.54,126.18,78.41Z"/><path d="M108.26,132s-.78.88-.78.88l1.16-.12a2.65,2.65,0,0,1,2.49,1.12,1.67,1.67,0,0,1,.24.86,1.74,1.74,0,0,1-.28.94,16.46,16.46,0,0,0-5,11v.09a9.42,9.42,0,0,0,2.66,6.71v.18c0,3.37,2.73,6.44,4.5,6.78l.26.06.14-.24s.12-.4.12-.4l0-.17-.28-.11c-.06,0-.23-.16-.23-1l.09-1.58.11-1.61a3.09,3.09,0,0,0-.15-.94,4.28,4.28,0,0,0,2.21-1.63c.49-.56.94-1.09,1.37-1.16l.33-.07.26-.05-.27-.54c-.49-1-1.84-.75-3.27-.55a6,6,0,0,1-3,0,2,2,0,0,1-.48-1.35,3.25,3.25,0,0,1,.19-1.09c.88-2.55,4.67-5.73,10-6.84-.52.68-1.23,1.6-1.67,2.1h0l-.29.3-.23.25.72.2c2.38.63,6-2,7.69-4,6.19.28,11.21-.73,11.59-1.57v0l.08-.3-.1-.43a6.4,6.4,0,0,0-3.39-2.72c-.61-1.71-2.24-3.21-4.63-4.24-3.62-1.53-8.12-1.65-11-.3C117.24,128.88,111.34,128.41,108.26,132Z"/><path class="cls-1" d="M111.48,135.88c1.14-1.82-.62-3.82-2.89-3.63,2.94-3.36,8.87-2.92,10.93-1.44,4.82-2.45,13.94-.15,15.31,4.38,2.17.84,3.58,2.38,3.34,2.94s-4.72,1.63-11.39,1.3c-1.53,2-5.19,4.6-7.35,4,.76-.87,2.42-3.11,2.42-3.11-8.35,1.17-13.76,7.6-11.06,10.39,1.68.89,5.41-.88,6,.37-1.5.26-2.49,3.75-4.65,2.67,1.94-.16-.26,5.58,1.17,6.16-1.53-.26-4.36-3.31-4.15-6.68C104.1,148.16,107.17,140.06,111.48,135.88Z"/><path class="cls-2" d="M130.84,136.75c-10.65-4.09-19.55,1.85-21.66,7.95v0c2.3-6.06,11.42-11.7,21.9-7.2C131.71,137.79,132.66,137.5,130.84,136.75Z"/><path class="cls-3" d="M183.71,104.39s-4.21,3-5,6.9l0,5.41S184.71,113.27,183.71,104.39Z"/><path class="cls-3" d="M178.36,124.08a12.14,12.14,0,0,0,7-11.16c-4,.91-6.6,5.79-6.6,5.79Z"/><path class="cls-3" d="M176.4,133.89c8.89-3.29,8.87-12.28,8.87-12.28-4.27,1.1-7.84,6.53-7.84,6.53Z"/><path class="cls-3" d="M175.36,137.07s4.57-5.32,10.83-6.78c0,0-3.62,12.3-12.45,12.87l-.59-.07Z"/><path class="cls-3" d="M169.14,151.84c11,1.12,14.74-9.39,14.74-9.39a20.84,20.84,0,0,0-12.21,4.11Z"/><path class="cls-3" d="M160.85,163.51c13.24,4,18.13-8.26,18.13-8.26-10.29-.94-13.63,2.71-13.63,2.71Z"/><path class="cls-3" d="M149.35,172.23c12.81,9.08,21.27-.52,21.27-.52-10.23-6.38-15.39-3.39-15.39-3.39Z"/><path class="cls-3" d="M142.61,175s8.26-.46,15.62,11c0,0-15.25,4.32-21.67-8.83Z"/><path class="cls-3" d="M128.88,178.51s10.84,4.61,10.84,18.39c0,0-15.55,1.34-15.23-18Z"/><path class="cls-3" d="M56.25,104.39s4.15,3,5,6.9l0,5.41S55.18,113.27,56.25,104.39Z"/><path class="cls-3" d="M61.61,124.08a12.26,12.26,0,0,1-7-11.16c4,.91,6.63,5.79,6.63,5.79Z"/><path class="cls-3" d="M63.54,133.89c-8.91-3.28-8.86-12.28-8.86-12.28,4.22,1.1,7.83,6.53,7.83,6.53Z"/><path class="cls-3" d="M64.54,137.07s-4.53-5.32-10.77-6.78c0,0,3.58,12.3,12.46,12.87l.61-.07Z"/><path class="cls-3" d="M70.79,151.84C59.72,153,56,142.45,56,142.45a20.94,20.94,0,0,1,12.26,4.11Z"/><path class="cls-3" d="M79,163.51c-13.2,4-18.07-8.26-18.07-8.26,10.26-.94,13.68,2.71,13.68,2.71Z"/><path class="cls-3" d="M90.54,172.23c-12.73,9.08-21.18-.52-21.18-.52,10.23-6.39,15.38-3.39,15.38-3.39Z"/><path class="cls-3" d="M97.38,175s-8.28-.46-15.71,11c0,0,15.32,4.32,21.73-8.83Z"/><path class="cls-3" d="M111.11,178.51s-10.83,4.62-10.83,18.39c0,0,15.49,1.34,15.2-18Z"/><path class="cls-4" d="M171.87,88.69s-3.49,11.54,5.73,18.54a85,85,0,0,1,.08,10.94c-.4-1.17-1.63-3.42-5.37-6.33,0,0-1.14,8,4.84,12.33-.17,1.37-.38,2.79-.63,4.24a17.75,17.75,0,0,0-6.53-8.93s-1.47,9.46,5.47,14c-.27,1.13-.58,2.27-.92,3.42a19.83,19.83,0,0,0-7.47-10.63s-1.33,11.41,5.66,15.94a59.38,59.38,0,0,1-2.83,6.22c.37-8.53-7.38-12.53-7.38-12.53s-1.62,12.32,5.54,15.73a50,50,0,0,1-3.21,4.6v-.07c.7-6.77-5.34-11.79-5.34-11.79-3.37,9.29-.12,15.24.9,16.78q-2,2-3.94,3.64a15.2,15.2,0,0,0-2-15.4s-7.23,8.73-3.44,19.41A39.73,39.73,0,0,1,145.2,172c6.3-10,2.81-17.09,2.81-17.09s-10.68,5.32-11.2,19.61c-2.38.44-4.57.65-6.57.85,9.1-8.17,6.2-16.18,6.2-16.18-12.71,4.94-13.16,14.79-13,17.43l-.36.15a9,9,0,0,0-3,.91,9.19,9.19,0,0,0-3.08-.91l-.3-.12c.11-2.6-.37-12.5-13.09-17.46,0,0-3,8,6.17,16.18-2-.2-4.17-.41-6.54-.85C102.63,160.18,92,154.86,92,154.86s-3.55,7.07,2.76,17.1a41.15,41.15,0,0,1-5.85-3.13c3.79-10.69-3.42-19.42-3.42-19.42a15.09,15.09,0,0,0-2,15.43c-1.3-1.1-2.64-2.33-4-3.69,1.06-1.59,4.31-7.52.92-16.76,0,0-6.06,5-5.3,11.79v.1a50.79,50.79,0,0,1-3.24-4.63c7.11-3.41,5.56-15.73,5.56-15.73s-7.79,4-7.35,12.6a60,60,0,0,1-2.88-6.29c7-4.53,5.67-15.94,5.67-15.94a19.53,19.53,0,0,0-7.49,10.58c-.33-1.14-.64-2.28-.91-3.4,6.87-4.56,5.44-14,5.44-14a17.38,17.38,0,0,0-6.48,9c-.25-1.45-.46-2.87-.63-4.25,6-4.35,4.82-12.35,4.82-12.35-3.73,2.88-4.95,5.1-5.35,6.29a82.13,82.13,0,0,1,.09-10.91c9.15-7,5.7-18.53,5.7-18.53-9.63,9-8,15.54-6.88,18-1.17,6.62-.33,16.94,1.53,25.11,1.79,8.72,8.89,30.93,27.28,40.53,14.8,7.82,26.16,7.11,30,6.55,3.78.56,15.12,1.27,30-6.55,18.35-9.6,25.36-31.81,27.28-40.53,1.71-8.13,2.63-18.39,1.46-25C179.87,104.41,181.67,97.78,171.87,88.69Z"/><path class="cls-1" d="M134.64,162.68s-3.76,1.36-5.08,3.89c-.91,1.81,0,3.45-.81,5A15.41,15.41,0,0,1,126,175s3.74-.84,4.78-3.17.07-3.11.89-5A19.64,19.64,0,0,1,134.64,162.68Z"/><path class="cls-1" d="M136.27,192.81s-3.87-1.1-5.33-3.58c-1.11-1.76-.22-3.39-1.11-4.9a15.19,15.19,0,0,0-2.9-3.35s3.75.65,5,2.88.29,3.19,1.14,4.88A20.34,20.34,0,0,0,136.27,192.81Z"/><path class="cls-1" d="M146.48,160.81s-3.26,1.59-4.15,4c-.62,1.74.34,3-.17,4.54a12.81,12.81,0,0,1-2.09,3.39s3.27-1.17,4-3.32-.31-2.83.22-4.52A17.14,17.14,0,0,1,146.48,160.81Z"/><path class="cls-1" d="M154.81,154.1s-2.28,2.39-2.31,4.69c-.08,1.71,1.17,2.54,1.17,3.89a13.62,13.62,0,0,1-.74,3.57s2.41-2,2.32-4-1-2.37-1.13-4A18.11,18.11,0,0,1,154.81,154.1Z"/><path class="cls-1" d="M160.85,147.69s-1.59,2.55-1.19,4.59c.3,1.5,1.54,2,1.83,3.27a12.24,12.24,0,0,1,0,3.28s1.75-2.25,1.31-4-1.37-1.93-1.74-3.35A14.67,14.67,0,0,1,160.85,147.69Z"/><path class="cls-1" d="M164.89,139.71s-.91,2.61-.14,4.37c.6,1.26,1.85,1.46,2.32,2.53a11.58,11.58,0,0,1,.68,3s1.1-2.36.35-3.92-1.64-1.39-2.28-2.57A13.8,13.8,0,0,1,164.89,139.71Z"/><path class="cls-1" d="M169.47,130.23s-.93,2.58-.15,4.42c.57,1.23,1.76,1.38,2.28,2.5a11,11,0,0,1,.7,2.92s1.08-2.39.3-3.88-1.58-1.43-2.21-2.63A12.46,12.46,0,0,1,169.47,130.23Z"/><path class="cls-1" d="M172,122.51s-.7,2.34.1,3.86c.53,1.16,1.63,1.19,2.14,2.1A10.06,10.06,0,0,1,175,131s.88-2.14.14-3.42-1.51-1.15-2.13-2.17A11.42,11.42,0,0,1,172,122.51Z"/><path class="cls-1" d="M173.69,113.84s-.68,2.39.16,3.9c.55,1.1,1.65,1.17,2.1,2.13a7.75,7.75,0,0,1,.72,2.49s.88-2.14.16-3.4-1.48-1.15-2.09-2.21A10.76,10.76,0,0,1,173.69,113.84Z"/><path class="cls-1" d="M154.5,184.14s-3.9.64-6.47-.84c-1.91-1.08-2-2.83-3.58-3.78a17.23,17.23,0,0,0-4.27-1.55s3.55-1,5.73.4,2,2.54,3.63,3.66A27.29,27.29,0,0,0,154.5,184.14Z"/><path class="cls-1" d="M165.82,172.45s-3,1.53-5.37,1c-1.74-.38-2.28-1.75-3.77-2.08a19.25,19.25,0,0,0-3.83-.2s2.69-1.62,4.7-1.11,2.2,1.57,3.85,2A17.27,17.27,0,0,0,165.82,172.45Z"/><path class="cls-1" d="M174.71,157.66s-1.76,2.44-3.91,3c-1.56.35-2.55-.43-3.83-.15a13.85,13.85,0,0,0-3.15,1.42s1.48-2.43,3.34-2.8,2.33.29,3.86,0A19.07,19.07,0,0,0,174.71,157.66Z"/><path class="cls-1" d="M180.42,145a8.17,8.17,0,0,1-3.08,3.1c-1.3.53-2.22-.09-3.38.28a13.83,13.83,0,0,0-2.56,1.59s.93-2.23,2.56-2.81,2.08,0,3.38-.42A17.85,17.85,0,0,0,180.42,145Z"/><path class="cls-1" d="M183,133.54a8,8,0,0,1-2.25,3.64c-1.22.85-2.25.49-3.22,1.12a13.51,13.51,0,0,0-2.15,2.17s.41-2.44,1.88-3.4,2-.46,3.15-1.15A18.49,18.49,0,0,0,183,133.54Z"/><path class="cls-1" d="M183.3,124.1a6.73,6.73,0,0,1-1.37,3.63c-.92.91-1.89.81-2.65,1.6a15.88,15.88,0,0,0-1.55,2.27s0-2.26,1.07-3.32,1.74-.75,2.61-1.6A12.25,12.25,0,0,0,183.3,124.1Z"/><path class="cls-1" d="M183.52,115.34a6,6,0,0,1-.88,3.1c-.64.81-1.47.8-2.1,1.48a8.4,8.4,0,0,0-1,1.93,4.13,4.13,0,0,1,.64-2.77c.8-.92,1.37-.74,2-1.5A12.55,12.55,0,0,0,183.52,115.34Z"/><path class="cls-1" d="M182.89,106.92a5.44,5.44,0,0,1-.54,3.13c-.56.92-1.42,1-1.88,1.66a10.42,10.42,0,0,0-.84,2.12,4.29,4.29,0,0,1,.27-2.82c.73-1,1.28-.93,1.89-1.72A15.13,15.13,0,0,0,182.89,106.92Z"/><path class="cls-1" d="M174.08,93.6a9,9,0,0,0,.16,4.85c.52,1.45,1.71,1.77,2.24,3a14.38,14.38,0,0,1,.79,3.27s.85-2.51.07-4.27-1.58-1.64-2.21-3.09A17.91,17.91,0,0,1,174.08,93.6Z"/><path class="cls-1" d="M105.26,162.68s3.85,1.36,5.17,3.89c.89,1.81,0,3.45.76,5A15.6,15.6,0,0,0,114,175s-3.74-.84-4.78-3.17-.14-3.11-.89-5A20.61,20.61,0,0,0,105.26,162.68Z"/><path class="cls-1" d="M103.73,192.8s3.85-1.09,5.27-3.57c1.06-1.76.21-3.39,1.06-4.9a19.42,19.42,0,0,1,3-3.35s-3.83.65-5,2.88-.29,3.19-1.22,4.88A20.24,20.24,0,0,1,103.73,192.8Z"/><path class="cls-1" d="M93.48,160.81s3.25,1.59,4.15,4c.68,1.74-.34,3,.19,4.54a14.1,14.1,0,0,0,2.08,3.39s-3.34-1.17-4-3.32.24-2.83-.27-4.52A18.14,18.14,0,0,0,93.48,160.81Z"/><path class="cls-1" d="M85.11,154.1s2.34,2.39,2.36,4.69c0,1.71-1.23,2.54-1.23,3.89a12.75,12.75,0,0,0,.8,3.57s-2.42-2-2.32-4,1-2.37,1.08-4A16.06,16.06,0,0,0,85.11,154.1Z"/><path class="cls-1" d="M79.08,147.69s1.58,2.55,1.2,4.59c-.23,1.5-1.55,2-1.84,3.27a13.21,13.21,0,0,0,0,3.28s-1.75-2.25-1.29-4,1.41-1.93,1.7-3.35A11.86,11.86,0,0,0,79.08,147.69Z"/><path class="cls-1" d="M75.08,139.71s.84,2.61.09,4.37c-.52,1.26-1.78,1.46-2.27,2.53a9.91,9.91,0,0,0-.65,3s-1.21-2.36-.38-3.92,1.57-1.39,2.21-2.57A16,16,0,0,0,75.08,139.71Z"/><path class="cls-1" d="M70.51,130.23s.9,2.58.12,4.42c-.53,1.23-1.82,1.38-2.26,2.5a8,8,0,0,0-.64,2.92s-1.19-2.39-.45-3.88,1.7-1.43,2.29-2.63A15.37,15.37,0,0,0,70.51,130.23Z"/><path class="cls-1" d="M68,122.51a6.6,6.6,0,0,1-.07,3.86c-.6,1.16-1.65,1.19-2.13,2.1a9.6,9.6,0,0,0-.82,2.56s-.84-2.14-.08-3.42,1.52-1.15,2.07-2.17A11.48,11.48,0,0,0,68,122.51Z"/><path class="cls-1" d="M66.23,113.84s.66,2.39-.11,3.9c-.53,1.1-1.62,1.17-2.13,2.13a8.45,8.45,0,0,0-.75,2.49s-.88-2.14-.1-3.4,1.47-1.15,2.07-2.21A12.35,12.35,0,0,0,66.23,113.84Z"/><path class="cls-1" d="M85.49,184.14s3.92.64,6.47-.84c1.84-1.08,2-2.83,3.53-3.78A18.2,18.2,0,0,1,99.81,178s-3.62-1-5.8.39-2,2.55-3.64,3.67A27.48,27.48,0,0,1,85.49,184.14Z"/><path class="cls-1" d="M74.17,172.45s2.92,1.53,5.32,1c1.7-.38,2.31-1.75,3.79-2.08a19,19,0,0,1,3.8-.2s-2.64-1.62-4.67-1.11-2.2,1.57-3.84,2A17.16,17.16,0,0,1,74.17,172.45Z"/><path class="cls-1" d="M65.27,157.66s1.77,2.44,3.94,3c1.49.35,2.46-.43,3.76-.15a13.79,13.79,0,0,1,3.16,1.42s-1.46-2.43-3.33-2.8-2.3.29-3.82,0A17.05,17.05,0,0,1,65.27,157.66Z"/><path class="cls-1" d="M59.49,145a8.53,8.53,0,0,0,3.11,3.1c1.3.53,2.27-.09,3.39.28a13,13,0,0,1,2.54,1.59s-.94-2.23-2.54-2.81-2.12,0-3.39-.42A21.17,21.17,0,0,1,59.49,145Z"/><path class="cls-1" d="M57,133.54a8,8,0,0,0,2.34,3.64c1.07.85,2.19.49,3.21,1.12a18.74,18.74,0,0,1,2.11,2.17s-.43-2.44-1.85-3.4-2-.46-3.16-1.15A15.47,15.47,0,0,1,57,133.54Z"/><path class="cls-1" d="M56.6,124.1A7.77,7.77,0,0,0,58,127.73c.87.91,1.89.81,2.66,1.6a9.93,9.93,0,0,1,1.48,2.27s.1-2.26-1-3.32-1.66-.75-2.58-1.6A14.55,14.55,0,0,1,56.6,124.1Z"/><path class="cls-1" d="M56.45,115.34a5.93,5.93,0,0,0,.89,3.1c.62.81,1.46.8,2.09,1.48a8.13,8.13,0,0,1,1,1.93,4.22,4.22,0,0,0-.54-2.77c-.86-.93-1.35-.74-2-1.5A10,10,0,0,1,56.45,115.34Z"/><path class="cls-1" d="M57.08,106.92a5.89,5.89,0,0,0,.53,3.13c.59.92,1.39,1,1.87,1.66a12.57,12.57,0,0,1,.88,2.12A4.06,4.06,0,0,0,60,111c-.7-1-1.25-.93-1.81-1.72A13.28,13.28,0,0,1,57.08,106.92Z"/><path class="cls-1" d="M65.93,93.6a10.17,10.17,0,0,1-.16,4.85c-.64,1.45-1.76,1.77-2.3,3a15.77,15.77,0,0,0-.82,3.27s-.84-2.51,0-4.27,1.58-1.64,2.25-3.09A20.28,20.28,0,0,0,65.93,93.6Z"/><path class="cls-1" d="M88.81,60.29c.13.36.13.36.44.25l1-.25c.73-.2.87-.25.79-.88v-.32a.57.57,0,0,1,.57-.1,9.07,9.07,0,0,0,.24,1.3c.13.39.22.8.32,1.14,0,.16-.32.22-.5.16l-.06-.27c-.35-.53-.48-.57-1.13-.39l-1,.27c-.35.08-.35.12-.31.41l.47,1.57c.25,1.07.27,1.18.9,1.07H91c.09,0,.2.31.09.37-.74.21-1.4.36-2.08.52s-1.18.32-2,.55a.27.27,0,0,1-.05-.42l.34-.19c.57-.23.63-.31.35-1.38l-1.1-4.35c-.2-1.15-.36-1.2-1-1.15l-.29.08c-.08-.08-.23-.35-.08-.47.57-.14,1.19-.28,1.87-.41l2.73-.68a7.49,7.49,0,0,0,1.73-.53A13.15,13.15,0,0,0,92.05,58c0,.15-.3.24-.46.15-.29-.43-.48-.73-.63-.74a1.57,1.57,0,0,0-1.34-.14l-1,.3c-.4,0-.4.13-.26.53Z"/><path class="cls-1" d="M95.75,56.63c-.1-.56-.1-.62.44-.69a1.7,1.7,0,0,1,2.09,1.51A2.41,2.41,0,0,1,98,58.82a1.69,1.69,0,0,1-1,.45c-.8.14-.84.14-.87-.28l-.41-2.36m-1,5.33c.22,1.09.11,1.22-.41,1.4L94,63.5c-.09.06,0,.3,0,.43.7-.18,1.26-.24,2-.39l1.94-.28a.44.44,0,0,0-.06-.41h-.4c-.6,0-.69,0-.9-1.2l-.21-1.46c0-.21,0-.26.47-.29.3-.1.48,0,.72.25a12.68,12.68,0,0,0,1.38,1.68,2.68,2.68,0,0,0,2.74.84,3.81,3.81,0,0,0,1-.32c0-.07,0-.24-.11-.29a1.25,1.25,0,0,1-1-.2,10.17,10.17,0,0,1-2.52-2.63c-.06,0-.13-.19,0-.24a1.89,1.89,0,0,0-.36-3.56,5.16,5.16,0,0,0-2.62,0,23,23,0,0,0-3.26.64c-.16.1-.09.4,0,.47l.35-.07c.54,0,.65.11.77,1.29Z"/><path class="cls-1" d="M109.21,57.92c.16,1.93-.34,3.51-2,3.69-2.2.22-3-2.06-3.11-3.52-.26-2,.55-3.5,2.15-3.62s2.79,1.38,3,3.45m-2.92-4.09c-2.78.34-4.54,2.35-4.36,4.73s2.34,3.91,5,3.67c2.84-.28,4.64-2.08,4.36-4.71C111.1,55.09,109,53.59,106.29,53.83Z"/><path class="cls-1" d="M120.75,59.19a11.5,11.5,0,0,0,.14,2,1.56,1.56,0,0,1-.86.27s-.42-.59-1.08-1.28l-3.19-3.33a12.88,12.88,0,0,0-1.52-1.57,4.27,4.27,0,0,0,0,.82l.1,2.32a7,7,0,0,0,.28,2.26c.06.19.41.28.76.32h.34c.14.12.14.4,0,.46H114c-.51,0-1,.1-1.51.12-.1-.12-.15-.35,0-.46h.2c.34-.11.61-.17.72-.43a9.6,9.6,0,0,0,.13-2.26l-.13-3c0-.7,0-.87-.11-1S113,54,112.49,54l-.36,0c-.08-.11-.08-.4.06-.4a17.07,17.07,0,0,0,1.81-.06c.45,0,.84,0,1.11,0a11,11,0,0,0,2.33,2.65l1.11,1.16,1.31,1.31A.84.84,0,0,0,120,58l-.13-1.65a6.37,6.37,0,0,0-.25-2.15c-.09-.33-.46-.35-.82-.4h-.32a.49.49,0,0,1,0-.47h1.75c.51,0,.94,0,1.52-.07a.44.44,0,0,1,0,.41l-.24,0c-.41.09-.63.14-.73.37a8.16,8.16,0,0,0-.13,2.26Z"/><path class="cls-1" d="M125.75,54.38c0-.22,0-.37-.33-.37l-.83,0c-1,0-1.3.39-1.7,1.26-.17.09-.47,0-.51-.16a9.36,9.36,0,0,0,.52-2h.23c.09,0,.16,0,.16.06s.16.26,1.11.29l5,.25c.87.09,1,.09,1.22-.21h.2s.12.06.12.1a9,9,0,0,0-.27,2.11.77.77,0,0,1-.52,0c-.2-.78-.34-1.48-1.27-1.5H128c-.36,0-.38,0-.41.33l-.23,5.3c-.11,1.13,0,1.17.61,1.36l.49.07c.06.09.06.36-.05.42-.82-.06-1.51-.1-2.12-.12a14.55,14.55,0,0,0-2.26-.1.35.35,0,0,1,.08-.46h.59c.55,0,.69-.13.69-1.26Z"/><path class="cls-1" d="M132.85,58.66c-.32-.1-.44-.12-.19-.39l.38-.88a5.28,5.28,0,0,1,.69-1.26c.09.26.19.69.35,1.32l.24.93c0,.33,0,.34-.35.33l-1.12-.05m1.12.74c.51,0,.57,0,.63.26l.23,1a7.52,7.52,0,0,1,.21.91s-.08.13-.4.15h-.47a.39.39,0,0,0,0,.44l1.82.14c.7.11,1.43.15,2.07.26a.39.39,0,0,0,.05-.42L137.6,62c-.47-.15-.57-.4-.8-1.1L135.52,56c-.28-.9-.34-1.32-.46-1.77,0-.15-.09-.18-.25-.2a2.56,2.56,0,0,1-1.25.6,4.48,4.48,0,0,1-.67,1.48l-1.52,2.82c-.43.82-.7,1.4-1,1.79a.94.94,0,0,1-.89.55h-.42c0,.09-.1.36,0,.42.67.07.91.07,1.39.09s1.1.12,1.59.22c.12,0,.12-.35,0-.41l-.38-.12c-.39-.11-.48-.2-.46-.23a.65.65,0,0,1,.16-.45l.57-1.34c.16-.22.18-.22.5-.18Z"/><path class="cls-1" d="M141.28,61.08a2.71,2.71,0,0,0,0,1.15c.16.23.4.35,1.3.5,1.24.24,1.65.24,2.61-1a.35.35,0,0,1,.47.14,12.25,12.25,0,0,1-.84,1.85c-.73-.15-2-.35-3.09-.53L140,62.87c-.63-.06-1.29-.17-2.09-.29-.15-.11-.09-.4,0-.42l.49,0c.59,0,.74-.07.89-1.21l.72-4.39c.19-1.13.12-1.21-.46-1.37l-.37-.15c-.1,0,0-.35.1-.42.7.17,1.34.27,2,.4s1.3.17,2,.21c.1.12.07.42-.07.48h-.37c-.61,0-.67,0-.85,1.15Z"/><path class="cls-1" d="M149.62,59.8c-.11.35-.11.39.25.49l.89.17c.7.19.88.1,1.12-.4l.19-.29c.05-.06.43,0,.43.16-.1.36-.21.75-.33,1.23s-.2.85-.27,1.27c-.12,0-.41,0-.44-.15V62c0-.53-.17-.68-.84-.87l-.91-.18c-.36-.12-.36-.12-.42.25l-.37,1.34c-.13.56-.18,1,0,1.21s.38.42,1.29.65c1.11.25,1.52.32,2.59-.82.16-.08.47,0,.5.17a7.81,7.81,0,0,1-1.05,1.78c-.67-.23-1.88-.52-2.93-.81l-1.72-.43-2.25-.46c-.1-.08,0-.42.16-.43l.58.1c.59.08.68,0,.93-1.11L148.08,58c.2-1,.17-1.14-.35-1.38l-.35-.11a.43.43,0,0,1,.14-.46c.64.17,1.22.38,1.83.55l2.77.66a12.14,12.14,0,0,0,1.75.39c0,.15-.14,1-.23,1.82-.15.16-.4,0-.49,0a3,3,0,0,0-.3-1.06,2.1,2.1,0,0,0-1.18-.68l-1-.21c-.42-.16-.42-.14-.52.31Z"/><path class="cls-1" d="M86.14,104.62c0,.62.08.64.24.64.36,0,1-.72,1.15-1.1a30.45,30.45,0,0,0,2.09-3.22,3,3,0,0,0,.24-.46c0-.09-.14-.16-.25-.27l-.37,0a.56.56,0,0,1,0-.73,13.87,13.87,0,0,0,1.87.13A10.92,10.92,0,0,0,93,99.44a.66.66,0,0,1,.13.73,3.51,3.51,0,0,0-1.29.31,8,8,0,0,0-2.3,2.39l-.69,1a.66.66,0,0,0-.22.44,8.27,8.27,0,0,0,.55,1.17c.74,1.38,1.64,3.22,2.7,4.93.42.69.71.81,1.12.87l.52.11c0,.15,0,.53-.09.63H88.81c-.19,0-.19-.51,0-.63l.43-.11c.09,0,.21-.16.21-.18a.77.77,0,0,0-.12-.45c-.09-.07-.74-1.33-.93-1.62l-.76-1.56c-.56-1-.8-1.47-1.08-1.47s-.42.26-.42,1.33v2c0,1.71.08,1.83.75,2l.44.11a.52.52,0,0,1,0,.63H82.76a.6.6,0,0,1,0-.63l.41-.11c.7-.16.81-.28.81-2v-7.06c0-1.76-.11-1.87-.81-2.05l-.41,0a.5.5,0,0,1,0-.73,17.75,17.75,0,0,0,2.32.13,17.48,17.48,0,0,0,2.25-.13.69.69,0,0,1,0,.73l-.44,0c-.67.18-.75.29-.75,2.05Z"/><path class="cls-1" d="M96.66,106.78c-.43,0-.5-.11-.31-.61l.31-1.39c.29-.88.52-1.67.64-2.09.16.38.33,1.19.56,2l.42,1.51c.1.5,0,.61-.36.61H96.66m1.37,1c.51,0,.64,0,.71.34l.44,1.64a5.18,5.18,0,0,1,.24,1.27c0,.11,0,.23-.38.29l-.5.11a.46.46,0,0,0,0,.63H103c.15-.1.15-.54.09-.63l-.61-.11c-.63-.17-.68-.57-1-1.68l-2-7.41a17.72,17.72,0,0,1-.74-2.61c-.09-.23-.13-.38-.33-.38A3.1,3.1,0,0,1,97,100.39a8.11,8.11,0,0,1-.62,2.44l-1.32,4.54c-.46,1.39-.69,2.29-1,3.06s-.53.88-.87.93l-.42.06c-.11.15-.15.53,0,.63h3.35c.2-.1.11-.51,0-.63l-.41-.11c-.47-.06-.62-.18-.62-.29a1.85,1.85,0,0,1,.13-.72l.54-2.19c.12-.34.12-.34.55-.34Z"/><path class="cls-1" d="M116.09,100.32a.85.85,0,0,0-.61.38,16.38,16.38,0,0,0-.86,2.15c-.73,2.18-2.43,6.9-3.19,9.35a1.36,1.36,0,0,1-.47.09,1.62,1.62,0,0,1-.47-.09c-.16-.46-.38-1.18-.54-1.7l-.6-1.77c-.24-.62-.43-1.18-.61-1.51-.15.37-.28.8-.45,1.33l-.78,2c-.28.63-.34,1.1-.64,1.75-.06.14-.28.15-.46.15a.47.47,0,0,1-.41-.15c-.28-.76-.86-2.49-1.36-3.91l-2.49-6.73c-.39-1.13-.53-1.27-1-1.36l-.41-.08a.71.71,0,0,1,0-.73,11.38,11.38,0,0,0,2,.13,10.68,10.68,0,0,0,1.82-.13.65.65,0,0,1,0,.73l-.24,0c-.32,0-.42.18-.42.27s.33,1,.8,2.37l1.5,4.18c.48,1.21.57,1.57.74,2a17.83,17.83,0,0,0,.76-1.82l.22-.57a5.4,5.4,0,0,0,.12-.81,2.7,2.7,0,0,0,0-.51l-1.44-4c-.36-1-.48-1.11-1.05-1.19h-.16a.59.59,0,0,1,.08-.73,12.18,12.18,0,0,0,1.89.13,8.58,8.58,0,0,0,1.77-.13.63.63,0,0,1,0,.73l-.23,0c-.2,0-.41.18-.41.27a1.34,1.34,0,0,0,.13.61l.48,1.28a3.08,3.08,0,0,0,.4,1.14,11,11,0,0,1,.48-1.15l.14-.41a7.07,7.07,0,0,0,.35-1.39c0-.1-.06-.17-.31-.24l-.4-.15c-.16-.16-.09-.56,0-.73a6.78,6.78,0,0,0,1.46.13,7.49,7.49,0,0,0,1.6-.13.79.79,0,0,1,0,.73l-.45.15c-.54.14-.61.16-1.15,1.29-.36.76-.7,1.66-.89,2.15a3.78,3.78,0,0,0-.37,1c0,.1,0,.14.14.5l.76,1.91c.33,1.09.52,1.58.62,1.85.72-2.19,1.41-4.54,2.15-6.87a8.15,8.15,0,0,0,.46-1.63c0-.11-.18-.16-.31-.25l-.38-.08a.82.82,0,0,1,0-.73,8,8,0,0,0,1.56.13,6.19,6.19,0,0,0,1.42-.13c.09.17.18.56,0,.73Z"/><path class="cls-1" d="M117.58,106.78c-.43,0-.52-.11-.39-.61l.42-1.39a18.66,18.66,0,0,1,.62-2.09c.16.38.32,1.19.52,2l.39,1.51c.13.5,0,.61-.28.61h-1.28m1.37,1c.51,0,.66,0,.71.34l.37,1.64a4.61,4.61,0,0,1,.34,1.27c0,.11-.08.23-.38.29l-.53.11a.43.43,0,0,0,.06.63h4.36a.83.83,0,0,0,.07-.63l-.66-.11c-.53-.17-.69-.57-.94-1.68l-2.13-7.41c-.37-1.35-.56-2-.68-2.61,0-.23-.11-.38-.39-.38a2.75,2.75,0,0,1-1.26,1.16,10.09,10.09,0,0,1-.62,2.44l-1.34,4.54c-.42,1.39-.68,2.29-.94,3.06s-.56.88-1,.93l-.33.06c-.13.15-.18.53,0,.63H117c.17-.1.13-.51,0-.63l-.49-.11c-.37-.06-.48-.18-.48-.29a3.32,3.32,0,0,1,.07-.72l.55-2.19c.12-.34.13-.34.54-.34Z"/><path class="cls-1" d="M126.93,112.29a4,4,0,0,1-2.59-.72,7.22,7.22,0,0,1-.5-3c.14-.27.5-.27.58-.06.31,1.26,1.33,3,2.63,3a1.74,1.74,0,0,0,1.66-1.94,3.76,3.76,0,0,0-2.1-3,4.17,4.17,0,0,1-2.27-3.66,3.34,3.34,0,0,1,3.49-3.63,6.21,6.21,0,0,1,1.73.34c.23,0,.38.09.54.12a12.13,12.13,0,0,1,.26,2.68.32.32,0,0,1-.57.09c-.26-.95-.9-2.32-2-2.32a1.53,1.53,0,0,0-1.57,1.69,2.58,2.58,0,0,0,1.38,2.18l1,.65a4.48,4.48,0,0,1,2.07,3.83A3.56,3.56,0,0,1,126.93,112.29Z"/><path class="cls-1" d="M134.73,106.78c-.4,0-.43-.11-.39-.61l.46-1.39a13.14,13.14,0,0,1,.6-2.09c.16.38.3,1.19.55,2l.38,1.51c.14.5,0,.61-.29.61h-1.31m1.37,1c.54,0,.69,0,.76.34l.38,1.64a8.25,8.25,0,0,1,.32,1.27c0,.11-.12.23-.43.29l-.49.11a.43.43,0,0,0,.05.63h4.38a.58.58,0,0,0,.05-.63l-.64-.11c-.55-.17-.69-.57-1-1.68l-2.09-7.41c-.39-1.35-.56-2-.7-2.61,0-.23-.12-.38-.39-.38a2.68,2.68,0,0,1-1.27,1.16,7.39,7.39,0,0,1-.58,2.44l-1.39,4.54c-.41,1.39-.68,2.29-.9,3.06s-.59.88-1,.93l-.36.06c-.12.15-.16.53,0,.63h3.29c.17-.1.16-.51.13-.63l-.53-.11c-.36-.06-.5-.18-.5-.29a3.86,3.86,0,0,1,.06-.72l.59-2.19c.05-.34.16-.34.51-.34Z"/><path class="cls-1" d="M144.58,104.62c0,.62.11.64.27.64.35,0,1-.72,1.18-1.1a30,30,0,0,0,2-3.22.68.68,0,0,0,.21-.46c0-.09,0-.16-.22-.27l-.4,0a.59.59,0,0,1,.1-.73,13.83,13.83,0,0,0,1.89.13,12.14,12.14,0,0,0,1.84-.13.59.59,0,0,1,0,.73,4.77,4.77,0,0,0-1.3.31,8.46,8.46,0,0,0-2.2,2.39l-.73,1a.65.65,0,0,0-.18.44,3.74,3.74,0,0,0,.52,1.17c.75,1.38,1.67,3.22,2.72,4.93.38.69.69.81,1.12.87l.44.11a.64.64,0,0,1,0,.63h-4.6c-.17,0-.17-.51,0-.63l.35-.11a.4.4,0,0,0,.29-.18.93.93,0,0,0-.14-.45c-.05-.07-.68-1.33-.89-1.62l-.77-1.56c-.6-1-.85-1.47-1.14-1.47s-.4.26-.4,1.33v2c0,1.71.11,1.83.8,2l.44.11a.77.77,0,0,1,0,.63h-4.6a.7.7,0,0,1,0-.63l.46-.11c.65-.16.77-.28.77-2v-7.06c0-1.76-.12-1.87-.77-2.05l-.46,0a.49.49,0,0,1,0-.73,17.39,17.39,0,0,0,2.29.13,18.82,18.82,0,0,0,2.31-.13,1,1,0,0,1,0,.73l-.44,0c-.69.18-.8.29-.8,2.05Z"/><path class="cls-1" d="M155.46,109.24c0,1.78.11,1.9.8,2.07l.42.11a.56.56,0,0,1,0,.63h-4.57a.6.6,0,0,1,0-.63l.41-.11c.65-.17.78-.29.78-2.07v-7c0-1.77-.13-1.88-.78-2l-.41-.08a.79.79,0,0,1,0-.73,20.32,20.32,0,0,0,4.59,0,.69.69,0,0,1,0,.73l-.42.08c-.69.14-.8.25-.8,2Z"/><path class="cls-1" d="M104.15,122.82c0,.21,0,.21.27.21H105c.51,0,.54,0,.71-.44v-.23a.47.47,0,0,1,.33,0v1.74a.22.22,0,0,1-.33,0v-.17c-.17-.36-.2-.48-.71-.48h-.59c-.27,0-.27,0-.27.28v1a1.39,1.39,0,0,0,.12.8,1.45,1.45,0,0,0,1,.23c.77,0,1.07-.12,1.58-1,.13,0,.36,0,.4.09a3.84,3.84,0,0,1-.41,1.29c-.5,0-1.36,0-2.14,0h-1.15c-.46,0-.87,0-1.58,0-.13,0-.13-.27,0-.32l.45,0c.33,0,.46-.13.46-.87v-3.07c0-.75-.13-.77-.46-.89l-.23-.06c-.08,0-.08-.21,0-.24h4.44a9.41,9.41,0,0,0,.19,1.31.93.93,0,0,1-.37,0,2.16,2.16,0,0,0-.36-.69c-.17-.18-.45-.21-.91-.21h-.72c-.27,0-.27,0-.27.27Z"/><path class="cls-1" d="M109.21,126.24a2.85,2.85,0,0,1-1.52-.36,2.24,2.24,0,0,1-.28-1.32c0-.08.25-.08.32,0a1.87,1.87,0,0,0,1.62,1.31.86.86,0,0,0,.93-.83c0-.68-.7-1.07-1.24-1.34a1.91,1.91,0,0,1-1.38-1.56c0-.92.82-1.58,2.14-1.58a6,6,0,0,1,1,.11.71.71,0,0,1,.28.11,2.87,2.87,0,0,1,.2,1.2.69.69,0,0,1-.35,0c-.17-.45-.53-1.07-1.21-1.07a.85.85,0,0,0-.93.8c0,.34.36.69.85.92l.55.3a1.85,1.85,0,0,1,1.31,1.63C111.53,125.58,110.62,126.24,109.21,126.24Z"/><path class="cls-1" d="M114.13,121.24c0-.17,0-.19-.25-.19h-.52c-.71,0-.89.34-1.14.9a.81.81,0,0,1-.36,0c.19-.62.2-1.12.33-1.48,0,0,0,0,.11,0s.07,0,.15,0,0,.17.7.17h3.41c.59,0,.71,0,.8-.17.08,0,.08,0,.12,0a.16.16,0,0,1,.16.11,6.33,6.33,0,0,0-.16,1.42.73.73,0,0,1-.33,0c-.17-.51-.25-.9-1-.9h-.54c-.2,0-.2,0-.2.19v3.65c0,.74,0,.86.4.89h.39c0,.1,0,.29,0,.32-.59,0-1.07,0-1.48,0s-.89,0-1.51,0c-.11,0-.11-.22,0-.32h.42c.33,0,.45-.15.45-.89Z"/><path class="cls-1" d="M117,125.58a.75.75,0,0,1,.8-.73.68.68,0,0,1,.69.73.64.64,0,0,1-.69.62C117.36,126.2,117,126,117,125.58Z"/><path class="cls-1" d="M122,125c0,.63,0,.76.44.78h.4c.09.1.09.29,0,.32-.38,0-.84,0-1.46,0s-1.15,0-1.49,0c-.07,0-.07-.22,0-.32h.37c.45,0,.51-.15.51-.78v-2.68c0-.54-.06-.68-.44-.71l-.44-.06c0-.06-.07-.23,0-.29.37-.05.78-.18,1.2-.21s.72-.3.8-.3a.17.17,0,0,1,.11.12V125Z"/><path class="cls-1" d="M128.13,122.93a3.18,3.18,0,0,1-1.32,2.51,5.85,5.85,0,0,1-2.67,1.19c-.14-.12-.14-.26-.08-.32a3.3,3.3,0,0,0,2.71-3.28c0-.67-.21-1.82-1-1.82-.4,0-.68.46-.68.92,0,.71.29,1.44.92,1.49h.27a.36.36,0,0,1,0,.17,1.25,1.25,0,0,1-.93.29,1.44,1.44,0,0,1-1.47-1.46,1.82,1.82,0,0,1,2-1.8A2.08,2.08,0,0,1,128.13,122.93Z"/><path class="cls-1" d="M132.84,122.93a3.19,3.19,0,0,1-1.27,2.51,6.15,6.15,0,0,1-2.69,1.19c-.13-.12-.17-.26-.11-.32a3.29,3.29,0,0,0,2.7-3.28c0-.67-.17-1.82-1-1.82-.4,0-.67.46-.67.92,0,.71.33,1.44,1,1.49h.24a.52.52,0,0,1,0,.17,1.27,1.27,0,0,1-.92.29,1.44,1.44,0,0,1-1.49-1.46,1.84,1.84,0,0,1,2-1.8A2.05,2.05,0,0,1,132.84,122.93Z"/><path class="cls-1" d="M136.33,120.93a7.82,7.82,0,0,0,1.43-.06.74.74,0,0,1,0,.18c-.24.27-.49.73-.9,1.31l-2.58,4.27a.62.62,0,0,1-.5-.32l2.45-3.72a1.77,1.77,0,0,0,.29-.64c0-.13-.12-.13-.29-.13h-1.94c-.51,0-.6,0-.79.36a.18.18,0,0,1-.32-.05c.11-.43.24-.92.34-1.26a5.3,5.3,0,0,0,1.08.06Z"/></svg>