<svg id="Layer_1" data-name="Layer 1" xmlns="http://www.w3.org/2000/svg" viewBox="0 0 240 240"><defs><style>.cls-1{fill:#fff;}.cls-2{fill:#0d0802;}.cls-3{fill:#aa845a;}.cls-4{fill:#d51317;}.cls-5{fill:#f39200;}</style></defs><path class="cls-1" d="M207.69,141.06a5.46,5.46,0,0,0-2.67-4.21s-.41-.24-.6-.33a9.56,9.56,0,0,0,.63-6.26c-.73-2.76-2.4-4.7-4.62-5.33-6.33-1.76-18-4.92-19.88-5.35a6.69,6.69,0,0,0-4.62.62q.49-3.53.76-6.78A214.51,214.51,0,0,0,177,80.07l-.69-8.1-4.22.71c-8.46,1.42-16.38,1-28.24-1.41,0-.72,0-1.78.08-2.19a32.2,32.2,0,0,1,.64-3.64A15,15,0,0,0,146.2,60c0-.12.48-1.55.77-2.37a54,54,0,0,1,5.44-10.47c.3-.88-2.4-1.91-4.34-2.34a6.42,6.42,0,0,0-5.25,1.3,4.52,4.52,0,0,0-.64,0,6.5,6.5,0,0,0-1.53-1.6,7,7,0,0,0-1.25-3,4.08,4.08,0,0,0-4.66-1.55,7.62,7.62,0,0,0-2.44,1.42,7.89,7.89,0,0,0-4.24-4,6.36,6.36,0,0,0-3.6-3.91A13.84,13.84,0,0,0,120,27.28a13.76,13.76,0,0,0-4.46,6.21,6.36,6.36,0,0,0-3.6,3.91,7.89,7.89,0,0,0-4.24,4,7.62,7.62,0,0,0-2.44-1.42,4.08,4.08,0,0,0-4.66,1.55,7,7,0,0,0-1.25,3,6.5,6.5,0,0,0-1.53,1.6,4.52,4.52,0,0,0-.64,0,6.42,6.42,0,0,0-5.25-1.3c-1.94.43-4.64,1.46-4.34,2.34A54,54,0,0,1,93,57.65c.29.82.77,2.25.77,2.37a15,15,0,0,0,1.59,5.42A32.2,32.2,0,0,1,96,69.08c0,.41.1,1.47.08,2.19-11.86,2.44-19.78,2.83-28.24,1.41L63.65,72,63,80.07a214.51,214.51,0,0,0,.35,33.35q.27,3.26.76,6.78a6.69,6.69,0,0,0-4.62-.62c-1.88.43-13.55,3.59-19.88,5.35-2.22.63-3.89,2.57-4.62,5.33a9.56,9.56,0,0,0,.63,6.26c-.19.09-.57.32-.6.33a5.46,5.46,0,0,0-2.67,4.21,8.66,8.66,0,0,0,3.23,7.64c2.32,2,5.14,1.66,7.65,1.08C47,168.61,57.84,186,72.74,196.94c18.63,13.62,33.71,15.63,47.24,15.78h0c13.53-.15,28.61-2.16,47.24-15.78,14.9-10.9,25.77-28.33,29.55-47.16,2.51.58,5.33.89,7.65-1.08A8.66,8.66,0,0,0,207.69,141.06Z"/><path class="cls-2" d="M204.36,141.68c-.32-1.69-.74-1.68-1.25-2s-2.48-.69-3.68-1.16c1.63-2.52,3-4.85,2.34-7.38a3.82,3.82,0,0,0-2.23-2.91c-6.64-1.84-18-4.91-19.73-5.31-1.5-.35-3.21.47-4.55,2.45s-.56,5.59-.51,8.42c.39,22.06-12.9,42.86-32,50.86a69.69,69.69,0,0,1-11.34,3.87A90.42,90.42,0,0,0,143.47,179c21.74-20.4,28.23-47.06,29.85-65.83a211,211,0,0,0,.35-32.77l-.33-3.84-.05-.58-.58.1c-8.91,1.5-17.18,1.09-29.5-1.44a41.07,41.07,0,0,1-5.06-1.39c1.12-.59,1.83-1,2.09-1.56a6,6,0,0,0,.45-2.57,31.23,31.23,0,0,1,.53-3.91,4.22,4.22,0,0,1,.89-2.13,5.44,5.44,0,0,0,.71-3,7.09,7.09,0,0,1,.53-2.4A51.2,51.2,0,0,1,147.61,49c.36-.45.54-.63-.26-.8a3.27,3.27,0,0,0-3.11,1.33c-.45.56-.42.62-.73.35a2.59,2.59,0,0,0-3.51,1,3.09,3.09,0,0,0,.09,3.09c.31.26.31.22.31.22,0-.62.38-1.23,1.2-.93.62.22.4,1.24-.44,1.24a3.84,3.84,0,0,1-2.27-.49c-.8-.35-1.86-.71-2.09-1.78,1-.15,2.89-.57,3-2.66a3,3,0,0,0-2.27-2.84c-.22,0-.33,0-.2-.31a4,4,0,0,0-.62-2.84c-.26-.36-.49-.49-.88-.36a3.79,3.79,0,0,0-2.22,2.09c-.05.18-.09.31-.4.13a2.66,2.66,0,0,0-2.89.58,2.85,2.85,0,0,0,.58,4.39,4.27,4.27,0,0,1-2.93.27,18.28,18.28,0,0,0-2.49-.4,3.54,3.54,0,0,1-1.6-.8c-.75-.57-.89-.66-1.06-1s-.27-.27.09-.63.48-.35.66-.17a4,4,0,0,0,3.69.93,3.88,3.88,0,0,0,2.19-5.42,4.68,4.68,0,0,0-3.77-2.93c-.35,0-.67,0-.62-.58a3.18,3.18,0,0,0-2.6-3.24c-.4,0-1.06.09-1-.4A5.12,5.12,0,0,0,120,32.38l0-.05,0,.05A5,5,0,0,0,118.58,36c0,.49-.62.4-1,.4a3.18,3.18,0,0,0-2.6,3.24c.05.58-.27.54-.62.58a4.68,4.68,0,0,0-3.77,2.93,3.88,3.88,0,0,0,2.19,5.42,4,4,0,0,0,3.69-.93c.18-.18.31-.18.66.17s.27.31.09.63-.31.4-1.06,1a3.54,3.54,0,0,1-1.6.8,18.28,18.28,0,0,0-2.49.4,4.27,4.27,0,0,1-2.93-.27A2.85,2.85,0,0,0,109.7,46a2.66,2.66,0,0,0-2.89-.58c-.31.18-.35,0-.4-.13a3.79,3.79,0,0,0-2.22-2.09c-.4-.13-.62,0-.88.36a4.08,4.08,0,0,0-.63,2.84c.14.31,0,.27-.19.31a3,3,0,0,0-2.27,2.84c.09,2.09,2,2.51,3,2.66-.23,1.07-1.29,1.43-2.09,1.78a3.84,3.84,0,0,1-2.27.49c-.84,0-1.06-1-.44-1.24.82-.3,1.16.31,1.2.93,0,0,0,0,.31-.22a3.09,3.09,0,0,0,.09-3.09,2.59,2.59,0,0,0-3.51-1c-.31.27-.28.21-.73-.35a3.27,3.27,0,0,0-3.11-1.33c-.8.17-.62.35-.26.8a51.2,51.2,0,0,1,4.26,8.65,7.09,7.09,0,0,1,.53,2.4,5.44,5.44,0,0,0,.71,3,4.22,4.22,0,0,1,.89,2.13,31.23,31.23,0,0,1,.53,3.91,6.1,6.1,0,0,0,.44,2.57,4.86,4.86,0,0,0,2.1,1.56,41.07,41.07,0,0,1-5.06,1.39C84.47,77.13,76.2,77.54,67.29,76l-.58-.1,0,.58-.33,3.84a211,211,0,0,0,.35,32.77C68.3,131.9,74.79,158.56,96.53,179a90.42,90.42,0,0,0,12.06,9.54,70,70,0,0,1-11.34-3.87c-19.1-8-32.39-28.8-32-50.86,0-2.83.82-6.44-.51-8.42s-3-2.8-4.55-2.45c-1.75.4-13.09,3.47-19.73,5.31a3.82,3.82,0,0,0-2.23,2.91c-.66,2.53.71,4.86,2.34,7.38-1.2.47-3.16.82-3.68,1.16s-.93.33-1.25,2a5.42,5.42,0,0,0,2.08,4.42c1.86,1.58,5.13.12,8.1-.47l.08,0c2.87,19,13.42,37.25,28.83,48.52,18.64,13.63,33.66,15,45.27,15.13h0c11.61-.13,26.63-1.5,45.27-15.13,15.4-11.27,26-29.52,28.83-48.52l.08,0c3,.59,6.24,2.05,8.1.47A5.42,5.42,0,0,0,204.36,141.68ZM110.87,63A35.17,35.17,0,0,1,120,61.46,35.17,35.17,0,0,1,129.13,63c2,.67-3.67,1.23-7.4,1.69-.88-.61-1.38-1-1.4-1l-.33-.25-.33.25s-.52.41-1.4,1C114.54,64.23,108.86,63.67,110.87,63Z"/><path class="cls-3" d="M120,50.83s-3.6.23-3.6,4.53c0,3.29,2,4.71,3.6,4.71s3.6-1.42,3.6-4.71C123.6,51.06,120,50.83,120,50.83Zm0,8.44c-1.15.07-3.25-1.16-3.11-4.09.18-3.73,3.08-3.82,3.11-3.82s2.93.09,3.11,3.82A3.61,3.61,0,0,1,120,59.27Z"/><path class="cls-3" d="M97.34,56.75a.17.17,0,0,1,.06-.24c5.4-3.26,11.85-5.19,19.73-5.89h0a.19.19,0,0,1,.19.17.18.18,0,0,1-.16.19c-7.82.69-14.23,2.6-19.58,5.83A.17.17,0,0,1,97.34,56.75Z"/><path class="cls-3" d="M115.65,57.4c.22.62.53.71-.89.89s-2.4.53-3.11.62-.44-.35-.44-.8a5,5,0,0,0-1.95-4.62c-.45-.26-.63-.44.26-.62s4.26-.8,5.77-.89c.62,0,1-.17.71.45S114.85,55.63,115.65,57.4Z"/><path class="cls-3" d="M105.88,59.35c.53.63,1,1,.27,1.16a57,57,0,0,0-5.42,2.69c-.62.39.09-2.16-2-5.27-.36-.44-.62-.53.09-1a50.6,50.6,0,0,1,5.59-2.49c.88-.32,1.07-.44.89.18A4.54,4.54,0,0,0,105.88,59.35Z"/><path class="cls-3" d="M99.22,63.37A5.44,5.44,0,0,0,98,59.29a.65.65,0,0,1-.18-.85c.18-.17.36-.22.62.05s1.2,1.42,1.47,4.13c0,.66.18,1.29-.4,1.33C99.22,63.86,99.22,63.86,99.22,63.37Z"/><path class="cls-3" d="M100.17,66h0a.33.33,0,0,1-.45-.07.31.31,0,0,1,.07-.45,34.21,34.21,0,0,1,16.86-6,.32.32,0,1,1,0,.64A34,34,0,0,0,100.17,66Z"/><path class="cls-3" d="M110.13,55.82a2.38,2.38,0,0,0-3.28-1.6h0a2.72,2.72,0,0,0-1.2,2.54A3.55,3.55,0,0,0,107,59.34a2,2,0,0,0,1.87.26C111,58.83,110.37,56.64,110.13,55.82Zm-1.3,3.31c-2.08.71-4.08-3.24-1.64-4.39A1.92,1.92,0,0,1,109.68,56C109.91,56.82,110.27,58.64,108.83,59.13Z"/><path class="cls-3" d="M142.66,56.75a.17.17,0,0,0-.06-.24c-5.4-3.26-11.85-5.19-19.73-5.89h0a.19.19,0,0,0-.19.17.18.18,0,0,0,.16.19c7.82.69,14.23,2.6,19.58,5.83A.17.17,0,0,0,142.66,56.75Z"/><path class="cls-3" d="M124.35,57.4c-.22.62-.53.71.89.89s2.4.53,3.11.62.44-.35.44-.8a5,5,0,0,1,2-4.62c.45-.26.63-.44-.26-.62s-4.26-.8-5.77-.89c-.62,0-1-.17-.71.45S125.15,55.63,124.35,57.4Z"/><path class="cls-3" d="M134.12,59.35c-.53.63-1,1-.27,1.16a57,57,0,0,1,5.42,2.69c.62.39-.09-2.16,2-5.27.36-.44.62-.53-.09-1a51.47,51.47,0,0,0-5.59-2.49c-.89-.32-1.07-.44-.89.18A4.54,4.54,0,0,1,134.12,59.35Z"/><path class="cls-3" d="M140.78,63.37A5.44,5.44,0,0,1,142,59.29a.65.65,0,0,0,.18-.85c-.18-.17-.36-.22-.62.05s-1.2,1.42-1.47,4.13c0,.66-.18,1.29.4,1.33C140.78,63.86,140.78,63.86,140.78,63.37Z"/><path class="cls-3" d="M139.83,66h0a.33.33,0,0,0,.45-.07.32.32,0,0,0-.07-.45,34.21,34.21,0,0,0-16.86-6,.32.32,0,0,0,0,.64A34,34,0,0,1,139.83,66Z"/><path class="cls-3" d="M131.1,59.6a2,2,0,0,0,1.87-.26,3.55,3.55,0,0,0,1.41-2.56,2.72,2.72,0,0,0-1.2-2.54h0a2.38,2.38,0,0,0-3.28,1.6C129.63,56.64,129,58.83,131.1,59.6ZM130.32,56a1.92,1.92,0,0,1,2.49-1.24c2.44,1.15.44,5.1-1.64,4.39C129.73,58.64,130.09,56.82,130.32,56Z"/><path class="cls-3" d="M102.17,50.34c0,.31.09.62-.35.18a1.88,1.88,0,0,1,2-3.11c.53.22.4-.09.13-.44s-.91-2.13,0-3.07c.93.23,1.69.89,1.82,2.76,0,.22.09.49.36,0a2.19,2.19,0,0,1,2.35-.71c.82.37,1.33.93,1.16,2.49,0,.31-.32.53-.52.09a1.36,1.36,0,0,0-1.62-.62,1.33,1.33,0,0,0,0,2.35c.62.42.67.6.93.73s.49.27,0,.45-2.69.75-3.49,1-.84.22-.66-.22a4.66,4.66,0,0,0,.35-2.31c-.22-.71-1.37-1.16-1.91-.62S102.17,50,102.17,50.34Z"/><path class="cls-3" d="M108.41,50.05a1.16,1.16,0,0,1-.35-.35c-.32-.4-.45-.71-.14-1s.67-.09.8.4S109.08,50.32,108.41,50.05Z"/><path class="cls-3" d="M103,50.85c-.13-.53.13-.93.49-.93s.44.22.4.53S103.66,52.1,103,50.85Z"/><path class="cls-3" d="M96.74,55c-1-2-2.58-5-2.93-5.68a2.47,2.47,0,0,1,1.77,1.42c.27.53.33.86.69.24a2.06,2.06,0,0,1,2.4-.44c.84.44,1.17,1.62.46,1.44A1.62,1.62,0,0,0,97.25,53a1.71,1.71,0,0,0,.55,1.75c.36.18.45.45-.09.71S97.09,55.76,96.74,55Z"/><path class="cls-3" d="M128.9,44.44c-.18-3.91-4.31-3.87-5.19-3.24-.23.13-.58.4-.67-.14s-.27-.66-.62-.66-.44,0-.31.49a1.39,1.39,0,0,1-.22,1.46,5.26,5.26,0,0,0-1,1.64c-.18.45-.23.4-.23-.24s-.17-3.66,1.16-4.37,1.82.17,1.91.31.53.49.53-.67a2.08,2.08,0,0,0-2.66-1.73c-1.07.49-.87.53-.6-1a3.13,3.13,0,0,0-.8-2.66.19.19,0,0,0-.36,0,3.13,3.13,0,0,0-.8,2.66c.27,1.51.47,1.47-.6,1A2.08,2.08,0,0,0,115.76,39c0,1.16.44.8.53.67s.58-1,1.91-.31,1.16,3.73,1.16,4.37,0,.69-.23.24a5.26,5.26,0,0,0-1-1.64,1.39,1.39,0,0,1-.22-1.46c.13-.45,0-.49-.31-.49s-.53.13-.62.66-.45.27-.67.14c-.89-.63-5-.67-5.19,3.24s4.08,3.9,4.93,2.39a2.15,2.15,0,0,0-.27-2.75c-.31-.4-.71-.26-.62.16s0,.64-.27.73c-1.06.36-1.46-.67-1.15-1.82s1.86-1.42,2.71-1.15.77.62.66.71a.84.84,0,0,0-.46.48c-.14.36-.14.67.35.45a1.85,1.85,0,0,1,1.73.58c.49.44.05.57-.26.57-1.38,0-1.42,1.27-1,2.13.35.54.13-.26.35-.62s1.29-.53,1.29.36c0,1.06-1.11,2-1.64,2.75s-.27.62.44.53a12.93,12.93,0,0,1,4.18,0c.71.09,1,.18.44-.53s-1.64-1.69-1.64-2.75c0-.89,1-.76,1.29-.36s0,1.16.35.62c.44-.86.4-2.13-1-2.13-.31,0-.75-.13-.26-.57a1.85,1.85,0,0,1,1.73-.58c.49.22.49-.09.35-.45a.84.84,0,0,0-.46-.48c-.11-.09-.18-.45.66-.71s2.4,0,2.71,1.15-.09,2.18-1.15,1.82c-.22-.09-.36-.31-.27-.73s-.31-.56-.62-.16a2.15,2.15,0,0,0-.27,2.75C124.82,48.34,129.08,48.38,128.9,44.44ZM120.2,47c-.11.19-.2.22-.2.22s-.09,0-.2-.22a3.24,3.24,0,0,1,.18-2.76,0,0,0,0,0,0,0A3.24,3.24,0,0,1,120.2,47Z"/><path class="cls-3" d="M137.83,50.34c0,.31-.09.62.35.18a1.88,1.88,0,0,0-2-3.11c-.53.22-.4-.09-.13-.44s.91-2.13,0-3.07c-.93.23-1.69.89-1.82,2.76-.05.22-.09.49-.36,0a2.19,2.19,0,0,0-2.35-.71c-.82.37-1.33.93-1.16,2.49,0,.31.32.53.52.09a1.36,1.36,0,0,1,1.62-.62,1.33,1.33,0,0,1,0,2.35c-.62.42-.67.6-.93.73s-.49.27,0,.45,2.69.75,3.49,1,.84.22.66-.22a4.66,4.66,0,0,1-.35-2.31c.22-.71,1.37-1.16,1.91-.62S137.83,50,137.83,50.34Z"/><path class="cls-3" d="M131.59,50.05a1.16,1.16,0,0,0,.35-.35c.32-.4.45-.71.14-1s-.67-.09-.8.4S130.92,50.32,131.59,50.05Z"/><path class="cls-3" d="M137,50.85c.13-.53-.13-.93-.49-.93s-.44.22-.4.53S136.34,52.1,137,50.85Z"/><path class="cls-3" d="M143.26,55c1-2,2.58-5,2.93-5.68a2.47,2.47,0,0,0-1.77,1.42c-.27.53-.33.86-.69.24a2.06,2.06,0,0,0-2.4-.44c-.84.44-1.17,1.62-.46,1.44A1.62,1.62,0,0,1,142.75,53a1.71,1.71,0,0,1-.55,1.75c-.36.18-.45.45.09.71S142.91,55.76,143.26,55Z"/><path class="cls-3" d="M116.55,65.84a45.43,45.43,0,0,1-6.39-1.19c-1-.35-1.19-.35-1.78-.12a59.38,59.38,0,0,0-5.44,2.73c-1.54.94-1.66,1.42,0,1.89,1.47.42,2.12.71,4.82,1.65A73,73,0,0,0,116,66.18Z"/><path class="cls-3" d="M137.06,69.15c1.66-.47,1.54-1,0-1.89a59.38,59.38,0,0,0-5.44-2.73c-.59-.23-.83-.23-1.78.12a45.43,45.43,0,0,1-6.39,1.19l.51.34a73,73,0,0,0,8.28,4.62C134.94,69.86,135.59,69.57,137.06,69.15Z"/><path class="cls-3" d="M65.62,167A3.33,3.33,0,1,0,69,170.35,3.33,3.33,0,0,0,65.62,167Z"/><polygon class="cls-3" points="78.48 185.87 79.66 183.39 77.43 185 78.48 185.87"/><path class="cls-3" d="M105.28,194.28l-.55,2.56s2.46.87,2.8-.71S105.28,194.28,105.28,194.28Z"/><path class="cls-3" d="M138.64,193.12l.8,2.49s2.57-.47,2.07-2S138.64,193.12,138.64,193.12Z"/><polygon class="cls-3" points="115.11 200.04 116.47 200.12 115.95 197.42 115.11 200.04"/><polygon class="cls-3" points="56.81 152.65 59.2 151.29 56.45 151.34 56.81 152.65"/><path class="cls-3" d="M195.35,127.59l-.35-.18c-4.73-1.24-9.42-2.55-14.14-3.73a4,4,0,0,0-3,1.64c-1.42,2.17-.78,5.63-.67,7.78a58.06,58.06,0,0,1-4.37,23.62c-5.59,13.16-15.26,23.5-26.92,29.09a60,60,0,0,1-19.8,5.92c-1.29.73-2.61,1.44-3.94,2.11l-1.95,1.06L120,195l-.26-.14-1.93-1.05q-2-1-4-2.12a59.92,59.92,0,0,1-19.8-5.92c-11.66-5.59-21.33-15.93-26.92-29.09a58.06,58.06,0,0,1-4.37-23.62c.11-2.15.75-5.61-.67-7.78a4,4,0,0,0-3-1.64c-4.72,1.18-9.41,2.49-14.14,3.73l-.35.18a4.27,4.27,0,0,1,2.87,3.7c-.08,13.59,1.85,23.19,6.51,33.24,8.34,19.29,27.91,35.55,47.91,40.17A64.76,64.76,0,0,0,120,206.91a64.76,64.76,0,0,0,18.06-2.21c20-4.62,39.57-20.88,47.91-40.17,4.66-10.05,6.58-19.65,6.5-33.24A4.28,4.28,0,0,1,195.35,127.59ZM51.49,141.35l-1.55,1.19-.39-4.26,1.74.84,7.91-.73,1.58-1.28.26,2.83-4.34,3.9,3.16-.29,1.39-1.31.39,4.28-1.59-.9-9.93.91,6-5.6Zm1.6,16.87-1.19-4.35,2,.41s1.1.31.72-1.08l-.26-1.07c-.38-1.37-1.19-.62-1.19-.62L51.65,153l-1.15-4.19,2.16.51,7.79-.27,1.55-1.5,1.12,4.08-8.39,5.1Zm2.17,5.57a5.73,5.73,0,0,1,2.7-7.5c3.19-1.47,6.5-.55,7.79,2.28a6.42,6.42,0,0,1,.61,2l1.33,1-4.15,1.91a4.23,4.23,0,0,0-.08-3.9,3.26,3.26,0,0,0-4.52-.81c-1,.71-2.81,2.35-.78,5l1.91-.87,1.08-1.47,1.28,2.78-4.59,2.12S56.31,166.09,55.26,163.79Zm4.52,6.56a5.84,5.84,0,1,1,5.84,5.84A5.85,5.85,0,0,1,59.78,170.35Zm9.63,14.06-1.63-1.77,0-.06-1.63-1.76,2.23-.13,2-1.84,2.6-7.36,2.7,2.9L74,175l-1.06,2.89,3.09-.71.59-1.67,2.63,3-7.53,1.88-2,1.84Zm9.67,6-.48,2.19-3.46-2.89,1.87-.79s1.08-.37,0-1.3l-.82-.73c-1.09-.91-1.33.17-1.33.17l-.4,2.05-3.35-2.78,2.07-.82,6.24-4.67.42-2.12,3.25,2.71ZM96.44,199l.69-2-.31-1.8,2.9,1L98.05,201s-1.23.94-3.61.1A5.74,5.74,0,0,1,90.92,194c1.15-3.31,4.11-5,7-4a6.17,6.17,0,0,1,1.85,1l1.62-.29-1.5,4.31a4.26,4.26,0,0,0-2.88-2.65,3.25,3.25,0,0,0-3.71,2.7C93.16,196.14,93.09,198.59,96.44,199Zm13.74-2.18a2.71,2.71,0,0,1-2.57,2.39l1.87,5.32-4.34-.93,1.2-1.52L105.19,199l-.72-.15-.58,2.73.75,1.94-4.52-1,1.29-1.51,1.63-7.58-.59-1.82,5.9,1.27S110.85,193.68,110.18,196.81Zm5.86,8.36,1-1.75s.65-.94-.8-1l-1.09-.09c-1.41-.09-1,.92-1,.92l.89,1.89-4.34-.26,1.18-1.89,2.26-7.45-.92-2,4.23.26,2.11,9.59.92,2Zm14.5-.73.66-1.81-.53-4.86-1.74,4.95-.05-.05-2.69-4.39.53,4.86,1,1.63-4.1.44.43-1.79-.88-8.07-.82-1.43,3.75-.41,2.17,3.15,1.43-3.56,3.75-.41-.5,1.58.88,8.07.8,1.66Zm9.45-6.87.85,2.64,1.63,1.31-4.41,1.42.37-1.95-2.38-7.38-1.42-1.28,5.75-1.85s2.55-.58,3.53,2.46S142,196.91,140,197.57Zm12.21-.18-.09.05c-3,1.65-4.49-.77-4.49-.77l-3.34-6.07-1.51-.89,3.5-1.93-.08,1.77,2.85,5.18c.9,1.63,2,.75,2,.75s1.35-.49.46-2.13-2.86-5.17-2.86-5.17l-1.54-.87,3.5-1.93,0,1.75,3.34,6.07S155.2,195.74,152.2,197.39Zm9.21-5.49a6.69,6.69,0,0,1-3.31,1.38l-.39,1.05-2.63-3.61a11.56,11.56,0,0,0,3.4.18c1.31-.24,2.23-1.46,1.44-2.25s-2.59-.13-2.59-.13c-.89.13-4.27,1.28-5-2-.76-3.62,3.64-4.23,3.64-4.23l.25-1.22,2.45,3.36a7.77,7.77,0,0,0-1.61-.09h-.58a1.86,1.86,0,0,0-1.52.85,1,1,0,0,0,.32,1.31c.16.15,1-.09,1.13-.11s4.32-1.61,5.7.87A3.64,3.64,0,0,1,161.41,191.9Zm14.51-14.07-1.43,1.81-1.38,1.74-.7-1.91-6.37-5-1.79-.17,2.73-3.45,0,.05,1.91-2.42,3.5,2.76-3.15-.22-1.37,1.74,1.75,1.39.28.22.39-2.28,2.6,2-2,1,.48.38,2.09,1.65,1.4-1.78-1.14-3.19,4.08,3.22Zm3.45-4.79-.92-1.81L171.51,167l-1.8.05L172,163.3l.8,1.58,2.24,1.36,1.93,1.18,2.77,1.69,2,.06Zm5.54-10.29a5.75,5.75,0,0,1-7.39,3c-3.22-1.39-4.75-4.46-3.52-7.31a6.2,6.2,0,0,1,1.08-1.78l-.17-1.64,4.19,1.81a4.25,4.25,0,0,0-2.85,2.67,3.26,3.26,0,0,0,2.43,3.9c1.19.27,3.62.52,4.26-2.79l-1.92-.83-1.82.17,1.21-2.81,4.65,2S185.91,160.43,184.91,162.75Zm3.19-10.62-1.42-1.45-3.15-.79-.68,2.76,3.14.79,1.92-.53-1.1,4.39-1.42-1.45-7.89-2-1.7.58,1.07-4.27,1.24,1.28,2.54.63.69-2.76-2.54-.63-1.7.58,1.06-4.27,1.24,1.28,7.88,2,1.92-.53Zm1.84-8.46-1.64-1.3-7.33-.81-.11,1,1.84,2-4.2-.47.42-3.79,0-.35.42-3.8,4.19.46-2.22,1.55-.12,1.05,7.33.81,1.89-1Z"/><path class="cls-3" d="M44,145.38c0-.25.26-.36.52-.83a6,6,0,0,0-.85-5.68c-6.46-6.3-2.54-10.16-1.92-10.26,1.21-.19,2.22,1.32,2.73,2.48s.37,3.58.57,5.83a73.66,73.66,0,0,0,.73,8A9.77,9.77,0,0,1,44,145.38Z"/><path class="cls-3" d="M40.92,139.14c.27.08.69.74,1,1.35a2.73,2.73,0,0,1,.43,2c-.08.1-.39.11-.44-.05s0-.46-.05-.79a4.42,4.42,0,0,0-1.22-2.25C40.37,139.19,40.66,139.06,40.92,139.14Z"/><path class="cls-3" d="M42.23,143c.17,0,.2,0,.19.3a3.55,3.55,0,0,1-.55,2c-.53.62-.57.88-1.58.38A4.92,4.92,0,0,1,37.87,143a5.66,5.66,0,0,1-.27-2.51c.1-.46.2-.56.68-.2a2.31,2.31,0,0,1,1,1.95,11.47,11.47,0,0,1-.09,1.68,6.19,6.19,0,0,0,1.51-.39C41.48,143.28,42.07,143.08,42.23,143Z"/><path class="cls-3" d="M194.2,144.94a73.66,73.66,0,0,0,.73-8c.2-2.25.07-4.71.57-5.83s1.52-2.67,2.73-2.48c.62.1,4.54,4-1.92,10.26a6,6,0,0,0-.85,5.68c.26.47.49.58.52.83A9.77,9.77,0,0,1,194.2,144.94Z"/><path class="cls-3" d="M199.32,139.4a4.42,4.42,0,0,0-1.22,2.25c0,.33,0,.63,0,.79s-.36.15-.44.05a2.73,2.73,0,0,1,.43-2c.35-.61.77-1.27,1-1.35S199.63,139.19,199.32,139.4Z"/><path class="cls-3" d="M199.3,143.49a6.19,6.19,0,0,0,1.51.39,11.47,11.47,0,0,1-.09-1.68,2.31,2.31,0,0,1,1-1.95c.48-.36.58-.26.68.2a5.66,5.66,0,0,1-.27,2.51,4.92,4.92,0,0,1-2.42,2.79c-1,.5-1.05.24-1.58-.38a3.55,3.55,0,0,1-.55-2c0-.33,0-.33.19-.3S198.52,143.28,199.3,143.49Z"/><path class="cls-2" d="M173.67,80.36l-.33-3.84-.05-.58-.58.1c-8.91,1.5-17.18,1.09-29.5-1.44-11.86-2.44-22.77-10.84-22.88-10.93l-.33-.25-.33.25c-.11.09-11,8.49-22.88,10.93C84.47,77.13,76.2,77.54,67.29,76l-.58-.1,0,.58-.33,3.84a211,211,0,0,0,.35,32.77C68.3,131.9,74.79,158.56,96.53,179a90.57,90.57,0,0,0,21.28,14.89l1.93,1.05.26.14.26-.14,1.95-1.06A90.54,90.54,0,0,0,143.47,179c21.74-20.4,28.23-47.06,29.85-65.83A211,211,0,0,0,173.67,80.36Z"/><path class="cls-3" d="M120,64.1s11,8.53,23.1,11c11.88,2.44,20.39,3,29.7,1.44l.33,3.83a209.38,209.38,0,0,1-.34,32.68c-1.62,18.68-8.08,45.21-29.69,65.49A89.87,89.87,0,0,1,122,193.37l-2,1.06-2-1.06a89.87,89.87,0,0,1-21.15-14.8c-21.61-20.28-28.07-46.81-29.69-65.49a209.38,209.38,0,0,1-.34-32.68l.33-3.83c9.31,1.56,17.82,1,29.7-1.44C109,72.63,120,64.1,120,64.1Z"/><path class="cls-2" d="M171.16,80.25l-.16-2-2,.34c-9.41,1.62-21.08.08-27.95-2A75.72,75.72,0,0,1,121.09,67L120,66.21l-1.09.77A75.72,75.72,0,0,1,99,76.5c-6.87,2.12-18.54,3.66-27.95,2l-2-.34-.16,2a206.62,206.62,0,0,0,.34,32.36c1.58,18.33,7.91,44.36,29.07,64.22,4.93,4.63,11.73,9.47,20.8,14.79l1,.56,1-.56c9.07-5.32,15.87-10.16,20.8-14.79,21.16-19.86,27.49-45.89,29.07-64.22A206.62,206.62,0,0,0,171.16,80.25Z"/><path class="cls-4" d="M70.71,80.4a206,206,0,0,0,.34,32c1.4,16.22,7.06,42.91,28.48,63V78.3C91.83,80.67,79.87,82,70.71,80.4Z"/><path class="cls-4" d="M169.29,80.4a206,206,0,0,1-.34,32c-1.4,16.22-7.06,42.91-28.49,63V78.3C148.17,80.67,160.13,82,169.29,80.4Z"/><path class="cls-5" d="M120,68.51a77,77,0,0,0,20.46,9.79v97.16c-5.49,5.15-12.81,10-20.46,14.54-7.65-4.49-15-9.39-20.47-14.54V78.3A77,77,0,0,0,120,68.51Z"/><path class="cls-2" d="M156.28,102.68a13.12,13.12,0,0,0-1.45.42c.74-5.63,4-10.24,7-15,.94-1.35,2-2.63,2.91-4,.07-.13.25-.27-.21-.07a48.78,48.78,0,0,0-9.29,7c-2.07,1.77-3.68,4.39-6,5.74a17.85,17.85,0,0,0-5.23-.86,2,2,0,0,1-.1-1.35,2.45,2.45,0,0,1,1.37-1.73h0a.85.85,0,0,0,.66.31.88.88,0,1,0-.87-.88v.13h0a3.94,3.94,0,0,0-3,1.66,6.24,6.24,0,0,1-.74-1.46,1.16,1.16,0,0,0,.36-.85,1.18,1.18,0,0,0-1.08-1.19h-.13a1.19,1.19,0,0,0-.33,2.31l0,1.62a4.24,4.24,0,0,0-1.78-.42,4,4,0,0,0-1.25.14.89.89,0,0,0-.84-.67.86.86,0,0,0-.86.81h0v0a.87.87,0,0,0,.87.87.86.86,0,0,0,.84-.69,1.58,1.58,0,0,1,.93.21A2.44,2.44,0,0,1,139.24,97c-3.79,2-3.82,4.57-3.82,4.57a4.52,4.52,0,0,0-1.91,2c-.12.37-1.12,4.63,8.25,5.17a3.68,3.68,0,0,1-2,2.09,2.37,2.37,0,0,0-1.33-1.41,2,2,0,0,0-1.82.39,1.91,1.91,0,0,0-.63,2c.34,1.33,2.46,2.19,4,2a6.2,6.2,0,0,0,4.49-2.84l0,0a38.08,38.08,0,0,0,3.13,3.36c-3.11,1.42-6.5,3.14-8.78,6,0,.11-.11.25,0,.32,2.56.6,5.26,0,7.74-.52s4.88-1.34,7.26-2c1.82,2.48,4.56,4.28,7,5.94.11.07.28.18.42,0a51.17,51.17,0,0,0-4.81-17.08,3,3,0,0,1,1.58-1.4c.24-.09.85-.28,1.2,0a2,2,0,0,0-.17,1.61,1.79,1.79,0,0,0,1.34,1.06,1.53,1.53,0,0,0,1.76-.82,3.17,3.17,0,0,0-.28-2.94C161.05,102.84,158.39,102.25,156.28,102.68Z"/><path class="cls-1" d="M145.19,98.69a39.69,39.69,0,0,0-6.76,2.24c-.14-.29-.18-.86-.33-1.19l.22-.08A26,26,0,0,1,145.19,98.69Z"/><path class="cls-1" d="M147,105.31c1.09-.81,2.35-2.06,3.79-1.1,1.58,1.42,1.12,4,1.72,5.51a7.1,7.1,0,0,0,1.15,2.3.74.74,0,0,0,.88-.1c.37-.32.13-1.55.94-1.59s.61.86.55,2.1a14.2,14.2,0,0,1-.5,3c-.14.43-.41.48-.81.57s-.74-.32-1.06-.53a10,10,0,0,0-3.25-1.89c-.32-.13-.09.17,0,.34s1.3,1.2,1.22,2.38c0,.37-.74.39-1,.16a40.8,40.8,0,0,1-7.62-7.91,20.73,20.73,0,0,1-2.72-.16c-1.56-.18-5.31-.77-6.36-3.15,0-.19-.2-.54.75-1.17C137.64,102.18,143.54,103.47,147,105.31Z"/><path class="cls-2" d="M118.37,82.74H78.1l1.32,1.73L82.86,89v30.68l-4.45,5.25-1.5,1.77H97.27l-1.41-1.75-4.24-5.25v-17.4l18.92,31.61,2,3.33V89.06l4.17-4.51ZM98.77,84.5l.77-.92.73.91L103.89,89v13.86L95.44,88.54Z"/><polygon class="cls-1" points="115.92 83.82 101.11 83.82 104.97 88.62 104.97 106.8 94.13 88.43 97.95 83.82 80.27 83.82 83.94 88.61 83.94 120.04 79.23 125.6 95.02 125.6 90.54 120.05 90.54 98.38 111.47 133.32 111.47 88.64 115.92 83.82"/><polygon class="cls-2" points="96.42 84.53 81.72 84.53 84.65 88.36 84.65 120.31 80.78 124.88 93.52 124.88 89.82 120.31 89.82 95.79 110.75 130.73 110.75 88.36 114.28 84.53 102.61 84.53 105.69 88.36 105.69 109.42 93.26 88.36 96.42 84.53"/><path class="cls-2" d="M132.1,150.69V137.51l5.23-6.64H125.25a6,6,0,0,0-1.5-2.47,6,6,0,0,0-4.27-1.77,6,6,0,1,0,0,12.07h2.58v10.83c-9,0-11.69-3.32-12.88-4.77l-.17-.21c-2-2.42-3.62-8.18-2.78-12.89,1.1-6.23,4.14-10,9.31-11.4a11.62,11.62,0,0,1,10.15,1.91l1.47,6.64L137,114.91l-6.55.34a23.29,23.29,0,0,0-18.17-3.32c-5.88,1.15-17.41,9-17.41,22a23.08,23.08,0,0,0,6.76,16.44,21.87,21.87,0,0,0,15.27,6.53h19.77Z"/><path class="cls-1" d="M131,151v-13.9l4.08-5.19H124.39a4.85,4.85,0,0,0-1.4-2.79,4.91,4.91,0,0,0-3.51-1.46,5,5,0,0,0,0,9.93h.09l3.57,0v13c-10.33.29-13.45-3.51-14.79-5.15l-.17-.21c-2.16-2.59-3.93-8.59-3-13.76,1.18-6.67,4.48-10.68,10.08-12.24a12.63,12.63,0,0,1,11.41,2.34l1,4.64,7.13-10.1-4.68.25A22.26,22.26,0,0,0,112.47,113c-5.59,1.1-16.54,8.59-16.54,20.92a22,22,0,0,0,6.44,15.68,20.78,20.78,0,0,0,14.51,6.21h17.64Z"/><path class="cls-2" d="M130.31,136.89l3.33-4.23h-9.91a4.25,4.25,0,1,0-4.25,4.25,4.7,4.7,0,0,0,.53,0h3.85v14.39c-11.72.51-14.94-4.05-16.23-5.6-2.42-2.9-4.07-9.22-3.17-14.34s3.36-10.79,10.59-12.81a13.49,13.49,0,0,1,12.26,2.65l.73,3.28,5.34-7.57-3.44.18a21.66,21.66,0,0,0-17.33-3.38c-4.82.94-16,8-16,20.21s9.91,21.18,20.24,21.18h16.23l-2.8-3.8Z"/><path class="cls-2" d="M140.47,171.49,136.41,177h-11.9V165.61h6.72l5.69,4.55V153.72l-5.64,4.06h-6.77v-7.14h11.55l3.47,4.92,8.11-12.21H109.31l5,6.14V158c-1.7.59-5,2.17-6.46,5-1.56,3.11-.72,7.83-.72,7.83a10.25,10.25,0,0,1,7.18-5.1V178l-7.15,6.49h40.64Z"/><path class="cls-1" d="M140.33,173.46l-3.39,4.63h-13.5V164.53h8.17l4.24,3.39v-12.1l-4.22,3h-8.19v-9.29h13.18l2.88,4.08,6.14-9.22H111.57l3.81,4.67v9.65c-8.29,2.35-7.42,9.15-7.42,9.15a11.28,11.28,0,0,1,7.42-3.36v14l-5.45,4.94h36Z"/><path class="cls-2" d="M144.3,145.14H113.08l3,3.71v10.46s-6.58,1.19-7.24,6.88a11.8,11.8,0,0,1,7.24-2.38v15l-4.3,3.9h33l-4.51-7.94-2.94,4H122.72v-15h9.14l3.27,2.62v-9.21l-3.27,2.35h-9.14V148.85H137l2.49,3.53Z"/></svg>