<svg id="Layer_1" data-name="Layer 1" xmlns="http://www.w3.org/2000/svg" viewBox="0 0 240 240"><defs><style>.cls-1{fill:#fff;}.cls-2{fill:#e73137;}.cls-3{fill:#009e59;}.cls-4{fill:#ffe100;}.cls-5{fill:#0078bf;}.cls-6{fill:#ea5599;}.cls-7{fill:#009dcc;}</style></defs><path class="cls-1" d="M167.76,67a121,121,0,0,0-21.5-5.53,160.4,160.4,0,0,0-52.47,0A121.47,121.47,0,0,0,72.29,67l-.82-.58a16.9,16.9,0,0,0-6.32-2.89A14.56,14.56,0,0,0,57,61l-.66-.3a14.59,14.59,0,0,0-9.83-1.16c-5.47-1.17-7.9-.16-8.52.17-6.09-.66-8.85.52-9.9,1.2-.11.07-.26.19-.26.19l-.57.38c-8.64-.29-12.14,3.58-12.14,3.58l5.47,1.31s-2.27.24-2.88.33A14.13,14.13,0,0,0,8.1,72.55l4.78.36c9.91.74,21,1.83,31.15,3.39-1.17.39-5.28,2.2-5.28,2.2l13,1.42c-5.94,6.53-8.95,14.66-8.95,24.2,0,1.68.08,3.41.24,5.15-1.16.79-2.31,2.38-2.31,5.62v1.91a8.36,8.36,0,0,0,.84,4l-1.26-.48,1.13,8.26h6.39c8.31,22.28,23.71,39.21,32.2,47.36,12.36,11.87,32.93,24.42,40,24.42s27.63-12.55,40-24.42c8.49-8.15,23.88-25.08,32.19-47.36h7.55l-.63-2.7a12.9,12.9,0,0,1-.23-3V108.44h-1.83q.18-2.2.18-4.32c0-9.53-3-17.65-8.94-24.19h0l13-1.42s-4.11-1.81-5.28-2.2c10.14-1.56,21.24-2.65,31.15-3.39l4.78-.36a14.13,14.13,0,0,0-9.56-5.86c-.61-.09-2.88-.33-2.88-.33l5.47-1.31s-3.5-3.87-12.14-3.58l-.57-.38s-.15-.12-.26-.19c-1.05-.68-3.81-1.86-9.91-1.2-.61-.33-3-1.34-8.51-.17a14.59,14.59,0,0,0-9.83,1.16l-.66.3a14.56,14.56,0,0,0-8.2,2.57,16.9,16.9,0,0,0-6.32,2.89l-.82.58Z"/><path class="cls-2" d="M57.94,109.42c-.61-2-1.12-4-1.53-6.08-.22-1.1-.35-2.25-.51-3.36,0-.3-.15-.23-.24.71a7.49,7.49,0,0,0,.08,2c.38,2.3.88,4.56,1.47,6.78h.73Z"/><path class="cls-2" d="M173.86,127.6c-16.89,28-48,47.71-53.84,47.86h0c-5.81-.15-36.95-19.82-53.84-47.86H64.52C81.14,158.29,113.83,177.65,120,178c6.2-.31,38.9-19.68,55.51-50.37h-1.67Z"/><path class="cls-2" d="M184.3,102.64a7.49,7.49,0,0,0,.09-2c-.1-.94-.21-1-.25-.71-.16,1.11-.28,2.26-.5,3.36-.41,2-.93,4.07-1.54,6.08h.73c.59-2.22,1.09-4.48,1.47-6.78Z"/><path class="cls-2" d="M179.55,116.47l-.15.35c0,.12.11.23.15.35v-.7Z"/><path class="cls-2" d="M59.7,114.83l0,.37-.6-.22h0v0l-.26-.09c.2.57.41,1.14.62,1.71a4.41,4.41,0,0,1,.62-1l-.3-.77-.11,0Z"/><path class="cls-3" d="M60.89,109.42a61.2,61.2,0,0,1-1.76-6.1c-.25-1.09-.46-2.21-.65-3.3-.06-.39-.18-.17-.22.64a8.37,8.37,0,0,0,.18,2,64.71,64.71,0,0,0,1.66,6.76h.79Z"/><path class="cls-3" d="M120,169.61h0c-6.72-.07-33.75-17.86-49.88-42H68.35c16,26.42,44.56,44.33,51.67,44.54,7.12-.21,35.69-18.12,51.68-44.54h-1.8c-16.13,24.15-43.16,41.94-49.88,42Z"/><path class="cls-3" d="M181.61,102.66a8.37,8.37,0,0,0,.17-2c0-.81-.16-1-.22-.64-.18,1.09-.4,2.21-.65,3.3a58.64,58.64,0,0,1-1.76,6.1h.79a67.37,67.37,0,0,0,1.67-6.76Z"/><path class="cls-3" d="M177.26,114.27c-.06.13-.11.27-.17.41a4.62,4.62,0,0,1,.87.4c.08-.19.16-.39.23-.59a3.26,3.26,0,0,0-.93-.22Z"/><path class="cls-3" d="M66.27,122.68h.79c-.27-.46-.53-.92-.79-1.38v1.38Z"/><path class="cls-4" d="M77.83,127.6h-.92c.82,1.08,1.66,2.14,2.53,3.19l1.68-.55q-1.91-2.19-3.71-4.45l.06.28.36,1.53Z"/><path class="cls-4" d="M176.2,102.66a9.42,9.42,0,0,0,.36-2c0-.66-.05-1.12-.18-.57-.2.85-.46,1.7-.72,2.56-.07.22-.15.45-.22.68a52.35,52.35,0,0,1-2.42,6.11h.87a54,54,0,0,0,2.31-6.76Z"/><path class="cls-4" d="M64.6,103.31l-.21-.68c-.26-.86-.52-1.71-.72-2.56-.13-.55-.21-.09-.18.57a9.4,9.4,0,0,0,.35,2,55.71,55.71,0,0,0,2.32,6.76H67a52.44,52.44,0,0,1-2.43-6.11Z"/><path class="cls-4" d="M120,160.48c8.57-.09,29-14.39,43.12-32.88h-.5l-.2-1.56,0,0c-14,17.56-34,31.83-42.39,31.84h0c-7.14,0-22.76-10.39-35.88-24.34H81.79c13.59,15.51,30.62,26.83,38.23,26.91Z"/><polygon class="cls-4" points="170.53 114.2 170.44 114.37 171.58 114.37 171.67 114.2 170.53 114.2 170.53 114.2"/><path class="cls-4" d="M166.35,122.31a4.63,4.63,0,0,1-1-.11h0l-.41.57h0c.4,0,.9,0,1.63,0h0l.35-.51h-.56Z"/><path class="cls-5" d="M120,154.65h0c8.91-.05,25.67-12.12,38.38-27.06h-1.93c-12.39,13.5-28,24.45-36.45,24.45h0c-7.16,0-19.47-7.87-30.6-18.48H87.07c11.74,12.05,25.26,21,33,21.08Z"/><path class="cls-5" d="M84.87,129l-1.31-1.41H81.64c.55.65,1.1,1.29,1.67,1.92l1.56-.51Z"/><path class="cls-5" d="M173.51,102.64a8.75,8.75,0,0,0,.42-2c.06-.65,0-1.18-.16-.56-.35,1.07-.66,2.15-1.06,3.21a52.71,52.71,0,0,1-2.85,6.11h.85a51.76,51.76,0,0,0,2.8-6.78Z"/><path class="cls-5" d="M67.34,103.31c-.41-1.06-.72-2.14-1.06-3.21-.2-.62-.23-.09-.17.56a8.78,8.78,0,0,0,.43,2,51.67,51.67,0,0,0,2.79,6.78h.85a51,51,0,0,1-2.84-6.11Z"/><path class="cls-5" d="M162.74,120.19l0,.06v1.88l.06,0c.24-.31.47-.63.7-.94a4,4,0,0,1-.72-1Z"/><path class="cls-6" d="M131.74,114.63l2.6,3.5v-1.7l-2.61-2.08a2.62,2.62,0,0,1,0,.28Z"/><path class="cls-6" d="M144.15,122.16v-7.48a3.65,3.65,0,0,1-2.38.3v12.74h-7.43v-6.81l-.28.19c-.53.29-1.48-.06-2.31-.56v2.29a13.35,13.35,0,0,0,.26,3.28l.34,1.49h-8.63l.35-1.49a14.14,14.14,0,0,0,.25-3.28v-3.39l-.67-1.61,0,6.35c0,1-1,3.34-2.23,3.41H99.57a3.86,3.86,0,0,1-4.11-2.74v3c0,2.8-.94,4.23-2,5,9.88,9.4,20.23,15.89,26.57,15.9,7.47,0,20.48-9,31.75-21.15h-3c-2.1,0-4.6-.94-4.6-5.44Z"/><path class="cls-6" d="M107.35,105.87a26.65,26.65,0,0,1-.16-7.5,72.71,72.71,0,0,1,1.51-8.06,51.61,51.61,0,0,0-2.78,10.23,2.91,2.91,0,0,1-3.48,2.49c-2-.45-2.6-3.7-2.6-3.7s-2.24,1.43-4.21.45c-1.74-.85-2.16-3.7-2.16-3.7s-2.78.31-4-.72c-1.69-1.45-.9-3.33-1-4-2.61.06-3.36-1-3.61-1.32s.44-.85,1.38-1.48c-2.33.15-4.79,0-5.6-1.06-.14-.18,1.87-1,2.58-1.49-2.37.67-5,.46-5.67-.67-.1-.16,2.08-.91,2.62-1.33-2.47.11-4.92.06-6.12-1.2-.12-.13,3-.4,3.43-.78a29.33,29.33,0,0,1-6.6-1.27A17.79,17.79,0,0,0,68.1,94.59a60.14,60.14,0,0,0,6.65,15.16,4,4,0,0,1,2.4,2.93,4.12,4.12,0,0,1,4.36-3.27h9.38a2,2,0,0,1,1.36-1.09l15.08-2.52,0,.07Z"/><path class="cls-6" d="M102.4,119.16v3.52h3.7v-1.56l-.12,0a1.69,1.69,0,0,1-.94-1.94Z"/><path class="cls-6" d="M155.1,114.33h-3.36a.18.18,0,0,0-.17.17v8a.17.17,0,0,0,.17.16h3.36a.18.18,0,0,0,.17-.17v-8a.18.18,0,0,0-.17-.17Z"/><path class="cls-6" d="M87.87,114.33H84.5a.18.18,0,0,0-.17.17v8a.17.17,0,0,0,.17.16h3.37a.17.17,0,0,0,.16-.17v-8a.17.17,0,0,0-.16-.17Z"/><path class="cls-6" d="M95.46,117a4.12,4.12,0,0,1,1.45-2,2.46,2.46,0,0,1-.9-.25l-.55.17v2Z"/><path class="cls-6" d="M169.18,80.8a29.12,29.12,0,0,1-6.6,1.27c.48.38,3.56.65,3.43.78-1.2,1.26-3.64,1.31-6.12,1.2.54.42,2.72,1.17,2.63,1.33-.66,1.13-3.31,1.34-5.67.67.71.53,2.71,1.31,2.57,1.49-.81,1-3.27,1.21-5.6,1.06,1,.63,1.55,1.27,1.39,1.48s-1,1.38-3.62,1.32c-.14.63.65,2.51-1,4-1.19,1-4,.72-4,.72s-.42,2.85-2.15,3.7c-2,1-4.22-.45-4.22-.45s-.63,3.25-2.6,3.7a2.9,2.9,0,0,1-3.47-2.49,51.64,51.64,0,0,0-2.79-10.24,73.15,73.15,0,0,1,1.52,8.07,26.72,26.72,0,0,1-.16,7.51s0,0,0-.08l15.08,2.52a2,2,0,0,1,1.36,1.09h8.94a4.09,4.09,0,0,1,4.28,3,3.74,3.74,0,0,1,3.08-2.93,60.09,60.09,0,0,0,6.5-14.9A17.81,17.81,0,0,0,169.18,80.8Z"/><path class="cls-6" d="M80.47,76.14c.4.29,1.33.87,1.6,1a10.22,10.22,0,0,0,5.85,1.35c1-.07,4.75-.12,6.74,0a98.73,98.73,0,0,1,10.68,1.62l.2,0c.4.08.59.14.59.14l.51.14h0c1.9-.94,4.65-3.31,8.45-3.68h0a8.27,8.27,0,0,1,4.6-1.65H120a8.33,8.33,0,0,1,4.9,1.66h0c3.81.37,6.56,2.74,8.46,3.68l.5-.14c.48-.12.92-.21,1.36-.29a93.33,93.33,0,0,1,10.12-1.51c2-.15,5.74-.1,6.75,0A10.25,10.25,0,0,0,158,77.15,17.42,17.42,0,0,0,159.75,76c.12-.11,1.7-1.37,2.14-1.72l.33-.26h0c-7.53-5-20.4-8.9-42.2-8.9S85.35,69,77.82,74l2.05,1.63.37.3.23.17Z"/><path class="cls-7" d="M76.7,69.75a109.29,109.29,0,0,1,20.23-6.09c.88-.14.83-.58-.19-.43A117.41,117.41,0,0,0,72,69.52L74,71c.89-.44,1.79-.87,2.74-1.28Z"/><path class="cls-7" d="M52.16,122.31H48c0,.17.1.34.16.51h4v-.51Z"/><path class="cls-7" d="M49,114.2v.17h5.81a6.2,6.2,0,0,1,1,.08c0-.08-.05-.16-.08-.25H49Z"/><path class="cls-7" d="M143.3,63.23c-1-.16-1.06.29-.19.43a109.6,109.6,0,0,1,20.23,6.08c1,.42,1.86.85,2.74,1.29l2-1.51a117.44,117.44,0,0,0-24.79-6.29Z"/><path class="cls-7" d="M45,104.12h0a51.83,51.83,0,0,0,.28,5.34,5.81,5.81,0,0,1,.72,0h8.48q-.67-2.91-1.1-5.91h0c-.77-5.51.4-15.77,9.36-24.61l-6.08-.6C48.73,85.1,45,93.9,45,104.12Z"/><path class="cls-7" d="M183.4,78.29l-6.08.6c9,8.84,10.12,19.1,9.35,24.61-.28,2-.65,4-1.09,5.91H187v13.27h3.53v-8.5a13.78,13.78,0,0,0-.26-3.28l-.35-1.5h4.88c.18-1.81.27-3.58.27-5.29,0-10.22-3.73-19-11.65-25.83Z"/><path class="cls-7" d="M77.82,160a.46.46,0,0,0-.37-.18,2.71,2.71,0,0,0-1.41.83,3.5,3.5,0,0,0-.91,1.07.55.55,0,0,0,.05.64.51.51,0,0,0,.4.2c.31,0,.76-.26,1.4-.83a3.45,3.45,0,0,0,.89-1.06.58.58,0,0,0-.05-.67Z"/><path class="cls-7" d="M156.75,165.87a.61.61,0,0,0-.44.21.59.59,0,0,0-.2.43c0,.33.29.78.93,1.41s1.08.93,1.41.93a.61.61,0,0,0,.44-.21.57.57,0,0,0,.16-.66,3.45,3.45,0,0,0-.89-1.18c-.63-.63-1.08-.93-1.41-.93Z"/><path class="cls-7" d="M70.67,154a4.68,4.68,0,0,1-.52-.37,1.09,1.09,0,0,0-.64-.34,1,1,0,0,0-.57.25.87.87,0,0,0-.36.45.48.48,0,0,0,.12.41.74.74,0,0,0,.61.28,1.71,1.71,0,0,0,1-.39l.37-.29Z"/><path class="cls-7" d="M171.54,151.49c.17-.22.26-.48-.52-1.06a1.65,1.65,0,0,0-.82-.39.42.42,0,0,0-.34.21.39.39,0,0,0-.08.43,1.84,1.84,0,0,0,.6.62,1.71,1.71,0,0,0,.82.41.4.4,0,0,0,.34-.22Z"/><path class="cls-7" d="M169.6,154.23l-.37-.29a3.9,3.9,0,0,1-.23.61c-.21.47-.34.75.23,1.19a.89.89,0,0,0,.51.24.5.5,0,0,0,.38-.23c.31-.42.1-1-.52-1.52Z"/><path class="cls-7" d="M162.31,161.15a1.32,1.32,0,0,0-.77-.4.44.44,0,0,0-.35.17c-.35.38,0,.94.4,1.36l.88-1-.16-.15Z"/><path class="cls-7" d="M111.15,187.68c.47-.87.09-1.08,0-1.14-.37-.2-.79.05-1.23.71l1.15.63.11-.2Z"/><path class="cls-7" d="M81.71,164.17a.56.56,0,0,0-.44-.21c-.33,0-.78.28-1.42.89a3.57,3.57,0,0,0-.91,1.17.57.57,0,0,0,.15.66.59.59,0,0,0,.44.22c.33,0,.78-.29,1.42-.9,1.09-1,1.09-1.48.76-1.83Z"/><path class="cls-7" d="M113.49,189.9a2.06,2.06,0,0,0-.46-.07c-.2,0-.43.07-.66.54s-.07.76.19.88a.73.73,0,0,0,.3.06,1.33,1.33,0,0,0,1.07-.89l.21-.42a5.26,5.26,0,0,1-.65-.1Z"/><path class="cls-7" d="M136.31,184.06a3.58,3.58,0,0,1-.43.49c-.36.37-.58.59-.2,1.2q.27.42.54.42a.58.58,0,0,0,.3-.11c.44-.29.45-.94,0-1.6l-.25-.4Z"/><path class="cls-7" d="M150.81,171.42a.57.57,0,0,0-.4.17.59.59,0,0,0-.22.65,3.73,3.73,0,0,0,.8,1.25c.6.7,1,1,1.38,1h0a.69.69,0,0,0,.62-.81,3.65,3.65,0,0,0-.8-1.26c-.6-.7-1-1-1.38-1Z"/><path class="cls-7" d="M101.65,182.23l1.1.72.13-.19a1.43,1.43,0,0,0,.28-.74.44.44,0,0,0-.23-.4c-.35-.23-.79,0-1.28.61Z"/><path class="cls-7" d="M62.8,141.55l.69,1.12.19-.12a1.46,1.46,0,0,0,.58-.54.45.45,0,0,0,0-.46c-.21-.36-.71-.35-1.42,0Z"/><path class="cls-7" d="M173.74,151.76c-.13,0-.28.12-.48.37l-.85,1.12a.57.57,0,0,0,.25.46.51.51,0,0,0,.28.08,1.14,1.14,0,0,0,.86-.52c.45-.62.43-1.22.15-1.42a.37.37,0,0,0-.21-.09Z"/><path class="cls-7" d="M174.08,148.05l-.39-.26a4,4,0,0,1-.19.61c-.19.49-.3.78.29,1.18.42.29.67.29.9,0s0-1-.61-1.49Z"/><path class="cls-7" d="M128.06,187a.71.71,0,0,0-.32.09c-.42.22-.56.65.15,2,.48.92.86,1.33,1.23,1.33a.68.68,0,0,0,.32-.09c.43-.23.56-.65-.14-2-.49-.92-.87-1.33-1.24-1.33Z"/><path class="cls-7" d="M179.48,138.61a3.34,3.34,0,0,0-1.42-.53.6.6,0,0,0-.56.33c-.23.42-.12.85,1.2,1.59a3.35,3.35,0,0,0,1.42.54.59.59,0,0,0,.55-.34c.24-.42.12-.84-1.19-1.59Z"/><path class="cls-7" d="M184.16,127.6a4.09,4.09,0,0,1-4.08-2.47c-16.07,34-53.83,55.6-60.06,55.6h0c-6.12,0-42.66-20.86-59.18-53.82a4,4,0,0,1-1.59-2.31c-.55,1.93-2.1,3-4.43,3h-5c8,21.64,22.79,38.16,31.73,46.74C93.64,186,113.88,198.15,120,198.15h0c6.15,0,26.38-12.2,38.48-23.81,8.94-8.58,23.72-25.1,31.73-46.74ZM91,171.55a.51.51,0,0,1,.72-.06.58.58,0,0,1,.19.34.57.57,0,0,1-.12.37.52.52,0,0,1-.39.19.5.5,0,0,1-.33-.12.53.53,0,0,1-.19-.34.54.54,0,0,1,.12-.38ZM80.13,161a.49.49,0,0,1,.71,0,.52.52,0,0,1-.37.86.51.51,0,0,1-.37-.18.48.48,0,0,1,0-.71ZM56,134.51l-.91-1.91.28-.14.25.52L60,130.92l-.18-.39c-.07-.14-.11-.2-.33-.2a6.59,6.59,0,0,0-1.27.23h-.06L58,130.3l1.65-.79,1.62,3.41-1.64.79-.13-.27.05,0c1.17-.91,1.14-1,1-1.23l-.19-.38L56,133.86l.24.51-.28.14Zm1.45,2.86-.82-1.58.28-.14.19.36,3-1.56-.19-.36.28-.15.58,1.12-.3.16a.92.92,0,0,1,.81.55,1.77,1.77,0,0,1,.13.56v0l-1.44.74-.13-.26.61-.64c.31-.31.37-.42.31-.53a.49.49,0,0,0-.44-.17,2,2,0,0,0-.85.23l-2,1,.23.45-.28.14Zm2.49,4.53-.62-1.12.28-.15a1.17,1.17,0,0,1-.84-.6,1,1,0,0,1,.47-1.56l2.32-1.29-.21-.36.28-.16.62,1.12-2.7,1.51a.86.86,0,0,0-.38.34.44.44,0,0,0,.07.38c.21.37.72.42,1.3.1l2-1.14-.22-.38.28-.16.64,1.14L60,141.38l.21.36-.28.16Zm3.76,1.74-1.17-1.95-.14.08a3.46,3.46,0,0,0-1.16,1,.67.67,0,0,0,0,.74c.34.57.93.66,1.68.29l.06,0,.17.26-.07,0a2,2,0,0,1-1,.28,1.39,1.39,0,0,1-1.22-.72,1.88,1.88,0,0,1,.93-2.59,2.54,2.54,0,0,1,1.29-.39,1.59,1.59,0,0,1,1.42.75,1.37,1.37,0,0,1,.17,1.18,2,2,0,0,1-.9,1l-.07,0Zm.4,5a1.85,1.85,0,0,1,.79-2.64,2.34,2.34,0,0,1,1.33-.45,1.8,1.8,0,0,1,1.51.85,3.18,3.18,0,0,1,.37.93l0,.15-1.26.84-.19-.28,0,0c.91-1.06.87-1.23.69-1.5a.7.7,0,0,0-.61-.29,2.65,2.65,0,0,0-1.34.52c-1.37.93-1.23,1.47-1,1.8s.88.49,1.57.05l.06,0,.18.26-.06,0a2,2,0,0,1-1.07.38,1.2,1.2,0,0,1-1-.58Zm3.26,4.43-1-1.4.26-.18.26.36,2.21-1.59c.46-.33.45-.54.28-.77s-.78-.35-1.31,0l-1.88,1.36.25.36-.25.18-1-1.39.25-.19.24.34,3.9-2.8-.24-.34.25-.18.75,1-1.39,1a1.32,1.32,0,0,1,.91.53,1,1,0,0,1-.33,1.59l-2.14,1.54.24.33-.26.19ZM69,155.25l.37-.29a1.32,1.32,0,0,1-1.14-.52,1.17,1.17,0,0,1,.82-1.92,1.9,1.9,0,0,1,1.17.68,3,3,0,0,0,.74.55l.6-.46a.58.58,0,0,0,.27-.41.57.57,0,0,0-.15-.43.55.55,0,0,0-.49-.27,4.4,4.4,0,0,0-1.13.28l0,0-.18-.23,1.08-.83,0,0a3,3,0,0,1,.94.78c.61.79.45,1.48,0,1.79l-2.21,1.69L70,156l-.25.19-.72-.94Zm6.3,1.92c-.28-.34-.77-.28-1.3.16l-1.78,1.46.25.31-.25.19-1-1.28.25-.2.25.31,2.11-1.73c.47-.39.37-.62.25-.76-.28-.34-.77-.28-1.3.15L71,157.24l.25.31-.24.2-1-1.28.24-.2.25.31L73,154.42l-.21-.24.25-.2.73.89-.25.21a1,1,0,0,1,.93.44,1.13,1.13,0,0,1,.21,1.08,1.15,1.15,0,0,1,.87,2l-2.08,1.7.25.31-.24.2-1-1.28.24-.2.26.31,2.11-1.73c.47-.39.37-.62.25-.77Zm-.33,5.5a1,1,0,0,1-.24-.86l-1,.84.28.32-.24.21-1.09-1.24.24-.21.24.27,3.54-3.11-.24-.28.23-.21.79.9-.2.18a1,1,0,0,1,.86.38c.6.68.37,1.74-.58,2.57a2.41,2.41,0,0,1-1.58.7,1.39,1.39,0,0,1-1-.46Zm2.5,2.58-1.08-1.17.23-.22.25.27,2.5-2.29-.25-.27.23-.21.83.9-.05.05-2.68,2.46.25.27-.23.21Zm1.39,1.65a1.59,1.59,0,0,1-.42-1.31,2.44,2.44,0,0,1,.76-1.42,2.33,2.33,0,0,1,1.59-.71,1.54,1.54,0,0,1,1.15.49,1.89,1.89,0,0,1-.34,2.73,2.31,2.31,0,0,1-1.58.71,1.58,1.58,0,0,1-1.16-.49Zm4.19,4-1.22-1.21.22-.22.32.31,1.92-1.94c.39-.4.35-.61.15-.81a.66.66,0,0,0-.45-.17,1.2,1.2,0,0,0-.84.43L81.52,169l.31.31-.22.22-1.22-1.2.22-.23.29.29L83.29,166l-.29-.29.22-.22.86.85-.26.27H84a1.24,1.24,0,0,1,.9.37,1.08,1.08,0,0,1,.37.75,1.23,1.23,0,0,1-.42.87L83,170.44l.3.29-.23.22Zm3.79.09,0,0c.52-1.06.57-1.21.21-1.54s-.82-.39-1-.13,0,.71.24,1.2.7,1.27.17,1.84a1.25,1.25,0,0,1-.93.42,1.88,1.88,0,0,1-1.22-.53,2.74,2.74,0,0,1-.72-1.14v0l1-1.07.26.23,0,0c-.66,1.12-.68,1.35-.22,1.78a1.14,1.14,0,0,0,.71.32.76.76,0,0,0,.54-.25c.17-.2,0-.58-.27-1-.33-.62-.74-1.38-.21-2a1.19,1.19,0,0,1,.88-.4,1.75,1.75,0,0,1,1.15.51,2.57,2.57,0,0,1,.64,1l0,0-.91,1-.25-.24Zm2,5.05-1.23-1,.2-.24.28.23,2.18-2.61-.29-.23.21-.25.94.79-2.37,2.85.28.24-.2.24Zm4.8,0-1.63,2.07.32.25-.2.25-1.35-1.06.2-.25.35.27,1.69-2.14c.35-.44.28-.64.06-.82a.61.61,0,0,0-.39-.13,1.18,1.18,0,0,0-.86.53l-1.44,1.82.35.28-.2.24-1.35-1.06.19-.25.33.26,2.1-2.67-.32-.25.19-.25,1,.75-.23.3a1.24,1.24,0,0,1,1.1.24,1,1,0,0,1,.13,1.62ZM95.05,181a.93.93,0,0,1-.41-.6,1,1,0,0,1,.24-.75l1.67-2.3-.39-.28.18-.25.39.28.54-.74.7.51-.54.74.72.52-.19.25-.71-.52-1.81,2.48c-.15.21-.13.33.08.48s.48.09.76-.3l.4-.55.26.18-.38.52a1.11,1.11,0,0,1-.87.58,1.09,1.09,0,0,1-.64-.25Zm4.2,2.79-1.41-1,.18-.26.36.26,1.55-2.24a1,1,0,0,0,.22-.52.41.41,0,0,0-.21-.31.61.61,0,0,0-.35-.11,1.14,1.14,0,0,0-.87.59l-1.32,1.9.36.26-.18.25-1.41-1,.18-.26.34.23,2.73-3.94-.34-.23.18-.26,1,.73-1,1.4a1.28,1.28,0,0,1,.3,0,1.26,1.26,0,0,1,.72.23,1,1,0,0,1,.23,1.61l-1.5,2.17.34.23-.18.26Zm4.16-.11,0,.06-1.9-1.24-.09.12c-.93,1.44-.63,1.87-.31,2.08.55.36,1.12.2,1.64-.47l0-.05.26.17-.05.06a1.64,1.64,0,0,1-1.34.81,1.52,1.52,0,0,1-.82-.26,1.62,1.62,0,0,1-.72-1.19,2.36,2.36,0,0,1,.44-1.54,2.19,2.19,0,0,1,1.77-1.1,1.5,1.5,0,0,1,.83.25,1.38,1.38,0,0,1,.66,1,2,2,0,0,1-.37,1.31Zm4,5.23L106,188l.16-.27.38.22,1.39-2.34c.29-.49.2-.68,0-.82a.59.59,0,0,0-.31-.09,1.09,1.09,0,0,0-.87.64l-1.19,2,.38.23-.16.27-1.47-.88.15-.27.36.21,2.44-4.12-.35-.21.16-.27,1.1.65-.87,1.46a1.44,1.44,0,0,1,.38-.06,1.23,1.23,0,0,1,.66.19,1.08,1.08,0,0,1,.54.63,1.21,1.21,0,0,1-.2,1l-1.35,2.27.36.21-.16.27Zm2.53,1.32a1.53,1.53,0,0,1-.73-.19,1.61,1.61,0,0,1-.81-1.13,2.38,2.38,0,0,1,.31-1.58,2.16,2.16,0,0,1,1.8-1.23,1.48,1.48,0,0,1,.72.18,1.37,1.37,0,0,1,.74.93,1.94,1.94,0,0,1-.26,1.34l0,.06-.06,0-1.93-1.06-.08.14a3.35,3.35,0,0,0-.5,1.45.67.67,0,0,0,.35.65c.58.31,1.14.1,1.6-.6l0-.06.27.15,0,.06a1.62,1.62,0,0,1-1.38.92Zm4.23,2.17-1.07-.52.2-.42a1.27,1.27,0,0,1-1.24.05,1.1,1.1,0,0,1-.62-1.55,1,1,0,0,1,.94-.63,3.67,3.67,0,0,1,.89.17,2.76,2.76,0,0,0,.9.16l.33-.68a.61.61,0,0,0,.06-.48.58.58,0,0,0-.33-.32.71.71,0,0,0-.31-.09c-.28,0-.58.26-1.13.83l0,0-.26-.13.58-1.23h.06a3.08,3.08,0,0,1,1.19.26c.9.43,1.08,1.12.86,1.58l-1.2,2.5.33.16-.14.29ZM118,191.3l-.27-.09v-.89c0-.41,0-.56-.14-.6s-.68.3-.9.93l-.74,2.11.48.17-.11.29-1.68-.58.11-.3.39.14,1.11-3.21-.38-.13.1-.3,1.19.42-.11.32a.94.94,0,0,1,1-.16,1.76,1.76,0,0,1,.47.32l0,0L118,191.3Zm2.22,2.81h0c-.6,0-.92-.34-.92-1l0-2.85h-.48V190h.48v-.92h.86V190H121v.32h-.88v3.07c0,.25.09.34.34.34a.37.37,0,0,0,.32-.14,1,1,0,0,0,.12-.55v-.69h.31V193c0,.8-.32,1.16-1,1.16Zm3.59-.85a2.83,2.83,0,0,1-1,.18,2.22,2.22,0,0,1-.37,0h0l-.53-1.36.33-.13,0,.05c.55.84.79,1.07,1.09,1.07a1.22,1.22,0,0,0,.4-.09c.56-.22.79-.63.62-1.09-.07-.16-.26-.22-.67-.22h-.79c-.57,0-1.19-.08-1.42-.68s.11-1.43,1-1.78a2.7,2.7,0,0,1,.9-.16h.3l.49,1.25-.32.12,0,0c-.54-.69-.74-.94-1-.94a.84.84,0,0,0-.3.07c-.39.16-.72.53-.58.89s.32.32.8.32h.79c.53,0,1.09.08,1.32.68a1.46,1.46,0,0,1-1.05,1.87Zm5.77-2.71a1.47,1.47,0,0,1-.73.19,2.12,2.12,0,0,1-1.8-1.26,1.9,1.9,0,0,1,.54-2.7,1.58,1.58,0,0,1,.73-.18,2.12,2.12,0,0,1,1.8,1.26,1.9,1.9,0,0,1-.54,2.69Zm3.46-2.05-1.48.84-.16-.27.32-.18-1.68-2.95-.32.18-.15-.27.32-.18-.17-.3a1.16,1.16,0,0,1-.17-.91,1.4,1.4,0,0,1,.69-.75,2.37,2.37,0,0,1,.66-.25H131l.56,1-.25.14,0,0c-.44-.4-.65-.55-.78-.55l-.15.05a.22.22,0,0,0-.12.15.47.47,0,0,0,.08.36l.39.68.79-.45.16.27-.8.46,1.68,2.94.48-.27.16.27-.07,0Zm4.38-2.65-.25-.4a1.31,1.31,0,0,1-.62,1.09,1.42,1.42,0,0,1-.74.23,1.06,1.06,0,0,1-.91-.54c-.5-.81.08-1.33.59-1.8a2.76,2.76,0,0,0,.62-.67l-.4-.64a.52.52,0,0,0-.82-.2c-.41.25-.4.53-.14,1.61v.05l-.25.16-.72-1.15,0,0a3.26,3.26,0,0,1,.86-.88,1.87,1.87,0,0,1,.95-.31,1,1,0,0,1,.84.43l1.47,2.36.32-.2.16.27-1,.63Zm1.33-.85-.17-.26.3-.2-2.63-4-.3.2-.17-.27,1-.67,2.81,4.27.3-.2.17.26-1.33.88Zm1.77-1.17-.18-.26.3-.2-2.69-4-.3.2-.18-.26,1-.69,2.87,4.23.3-.2.18.26-1.32.89Zm6-4.23,0,0-1.8-1.26.67,2.16-.39.29-.05,0-3.22-2.21-.25.19-.18-.25,1.34-1,.19.26-.37.27,2.32,1.58-.49-1.55-1-.67-.39.28-.18-.25,1.64-1.21.18.25-.55.41,2.31,1.59-.82-2.69-.48.35-.19-.25.94-.7.19.26-.15.11,1.14,3.8-.4.3Zm3.4-2.66-.2-.24.35-.28-1.7-2.13c-.31-.39-.51-.47-.79-.25s-.39.68.11,1.31l1.44,1.81.35-.27.2.24-1.35,1.07-.19-.24.32-.26-3-3.75-.32.26L145,174l1-.79,1.06,1.33a1.3,1.3,0,0,1,.48-.93,1,1,0,0,1,1.61.25l1.64,2.06.32-.26.2.25L150,176.94Zm3-2.35a1.56,1.56,0,0,1-1,.38,2.31,2.31,0,0,1-1.68-.87,1.91,1.91,0,0,1-.07-2.75,1.56,1.56,0,0,1,1-.38,2.29,2.29,0,0,1,1.68.87,1.91,1.91,0,0,1,.07,2.75Zm3.32-3.14-.22-.22.26-.26L153,167.52l-.27.26-.22-.23.89-.85,3.55,3.67.26-.25.22.22-1.14,1.11Zm2.81-2.59a1.53,1.53,0,0,1-1.13.47,2.31,2.31,0,0,1-1.61-.74,2.49,2.49,0,0,1-.74-1.43,1.58,1.58,0,0,1,.46-1.3,1.53,1.53,0,0,1,1.13-.47,2.31,2.31,0,0,1,1.6.74,2.37,2.37,0,0,1,.74,1.43,1.58,1.58,0,0,1-.45,1.3Zm2.33-2.53,0,0-3.61-1.56-.23.24-.22-.21,1.24-1.32.23.22-.39.41,2.5,1.11-1.24-2.44-.4.42-.23-.22.89-.94.23.22-.23.24,1.79,3.55-.29.3Zm2.71-2.79a1.59,1.59,0,0,1-1.19.53,2.39,2.39,0,0,1-1.56-.67,1.92,1.92,0,0,1-.44-2.7,1.4,1.4,0,0,1,1-.5,1.9,1.9,0,0,1,1.27.57l.05,0-1.51,1.69.11.11a2.69,2.69,0,0,0,1.51.86.65.65,0,0,0,.49-.23c.45-.49.37-1.08-.21-1.7l0,0,.2-.24.06.06a1.5,1.5,0,0,1,.21,2.22Zm3.77-4.38a3,3,0,0,1-1.27.85h0l-1.38-1.14.2-.23,0,0a3.88,3.88,0,0,0,1.58.56.83.83,0,0,0,.68-.35,1.07,1.07,0,0,0-.06-1.56.79.79,0,0,0-.54-.2,2.57,2.57,0,0,0-1.15.45,2.94,2.94,0,0,1-1.38.52,1.27,1.27,0,0,1-.84-.32,1.45,1.45,0,0,1-.56-1.12,2,2,0,0,1,.49-1.28,3.59,3.59,0,0,1,1.18-.94l0,0,0,0,1.24,1-.19.23-.91-.37a.91.91,0,0,0-1.19.3,1,1,0,0,0,0,1.42.57.57,0,0,0,.4.17,3.31,3.31,0,0,0,1.28-.57,3.14,3.14,0,0,1,1.41-.54,1.29,1.29,0,0,1,.85.36,1.61,1.61,0,0,1,.6,1.24,2.25,2.25,0,0,1-.56,1.46Zm3-3.92-.37-.29a1.31,1.31,0,0,1-.21,1.23,1.23,1.23,0,0,1-1,.54,1.1,1.1,0,0,1-.69-.26c-.75-.59-.39-1.28-.06-1.89a2.85,2.85,0,0,0,.34-.85l-.6-.46a.53.53,0,0,0-.84.09c-.3.38-.18.64.43,1.57l0,0-.18.23-1.07-.83v-.05a3.37,3.37,0,0,1,.51-1.11,1.55,1.55,0,0,1,1.17-.69.91.91,0,0,1,.56.18l2.19,1.71.23-.29.25.19-.73.94Zm3.19-1.83a2,2,0,0,1-1.4.93.72.72,0,0,1-.42-.13.69.69,0,0,1-.23-.64.89.89,0,0,1-1-.06,1,1,0,0,1-.37-1.19,1.55,1.55,0,0,1-.83-.31,1.28,1.28,0,0,1-.52-.9,1.58,1.58,0,0,1,.31-1.05,1.76,1.76,0,0,1,.47-.43l.58-.8.3.22-.29.38a1.37,1.37,0,0,1,.9.27,1.34,1.34,0,0,1,.54.9,1.49,1.49,0,0,1-.29,1.06,1.32,1.32,0,0,1-.71.57l-.07,0a.47.47,0,0,0-.07.37.34.34,0,0,0,.13.25.37.37,0,0,0,.22.08c.28,0,.58-.4.88-.83S173,151,173.51,151a.89.89,0,0,1,.55.2,1.54,1.54,0,0,1,0,2.17Zm1.35-4.43-.39-.26a1.29,1.29,0,0,1-.14,1.24,1.21,1.21,0,0,1-1,.59,1.08,1.08,0,0,1-.64-.22c-.79-.54-.46-1.25-.17-1.88a2.82,2.82,0,0,0,.29-.86l-.62-.44a.54.54,0,0,0-.84.15c-.27.4-.14.64.52,1.53l0,0-.17.24-1.12-.77v0a3.23,3.23,0,0,1,.45-1.14,1.45,1.45,0,0,1,1.18-.76.92.92,0,0,1,.51.15l2.29,1.58.21-.3.26.18-.67,1Zm2-3-.26-.17.24-.37-2.3-1.47c-.41-.27-.63-.28-.82,0a.61.61,0,0,0-.06.56,1.36,1.36,0,0,0,.57.64l2,1.26L177,146l.26.16-.92,1.45-.27-.17.22-.35-2.85-1.83-.22.35-.27-.17.66-1,.31.2a1.26,1.26,0,0,1,.13-1.12,1,1,0,0,1,1.6-.29l2.22,1.42.22-.34.27.17-.93,1.44Zm1.94-2.9a.83.83,0,0,1-.73.48,1.13,1.13,0,0,1-.59-.19l-2.44-1.47-.25.41-.27-.16.25-.41-.78-.48.44-.74.79.48.45-.76.28.16-.46.76,2.63,1.58a.37.37,0,0,0,.21.08c.06,0,.15,0,.25-.19s.16-.42-.36-.74l-.58-.35.16-.27.55.33c.68.41.82.87.45,1.48Zm1.57-2.68a1.65,1.65,0,0,1-1.47.81,2.51,2.51,0,0,1-1.24-.35,1.9,1.9,0,0,1-1-2.56,1.63,1.63,0,0,1,1.47-.82,2.57,2.57,0,0,1,1.24.35A2.46,2.46,0,0,1,181,139a1.63,1.63,0,0,1-.09,1.38Zm1.76-3.26a2.79,2.79,0,0,1-.9,1l0,0-1.3-.67.16-.31.06,0a5,5,0,0,0,1.12.22c.3,0,.46-.12.65-.48a.82.82,0,0,0-.25-1.22c-.24-.12-.57.19-.92.53a2.33,2.33,0,0,1-1.39.82,1,1,0,0,1-.44-.11,1.36,1.36,0,0,1-.43-2,2.61,2.61,0,0,1,.77-.88l0,0,1.19.62-.16.3h-.05a6.19,6.19,0,0,0-1-.15c-.26,0-.38.08-.52.35s-.19.87.14,1.05a.49.49,0,0,0,.2.05c.28,0,.59-.29.9-.59a2.12,2.12,0,0,1,1.29-.77,1,1,0,0,1,.45.12,1.46,1.46,0,0,1,.45,2.1Zm2-4.27-.29-.14a1.16,1.16,0,0,1,0,1,1,1,0,0,1-.89.69,1.65,1.65,0,0,1-.66-.17l-2.39-1.14-.18.37-.28-.13.54-1.15,2.8,1.32c.42.2.61.17.77-.16a.62.62,0,0,0,0-.56,1.39,1.39,0,0,0-.66-.56l-2.1-1-.19.4-.28-.14.56-1.18,3.35,1.59.17-.37.29.13-.55,1.16Zm.85-1.74a.43.43,0,0,1-.19,0,.49.49,0,0,1-.26-.27.48.48,0,0,1,0-.37.5.5,0,0,1,.64-.25.48.48,0,0,1,.25.64.48.48,0,0,1-.45.29Z"/><path class="cls-7" d="M175.36,75.76c-.13,0,.18-.33.25-.64a.41.41,0,0,0-.08-.38c-.19-.22-.72-.39-2-.36h0c-.08,0,0-.19.12-.42s.09-.74-.91-.69a7.77,7.77,0,0,0-1,.14l-.22,0c-.16,0-.07-.44-.33-.7a.57.57,0,0,0-.45-.14,3.82,3.82,0,0,0-1.67.64c-.06,0,0-.28-.16-.52a.54.54,0,0,0-.28-.23c-.35-.11-1,0-2.27.9-.08,0-.13-.12-.28-.26a.58.58,0,0,0-.29-.16c-.35-.08-1,.06-2.15.93-.22.17-.51.07-1.14.29l-.05,0A9.08,9.08,0,0,0,159.8,76l-.13.09c-.4.29-1.43.94-1.69,1.08a10.25,10.25,0,0,1-5.85,1.35c-1-.07-4.76-.12-6.75,0a95.18,95.18,0,0,0-10.31,1.55,7.73,7.73,0,0,1,1.74-.14h0c1.84.06,4.48.46,3.15,1.28h0l.2-.06a35.77,35.77,0,0,1,9.47-1c2.4,0,4.53.13,5.89.15h.14c1.27-.12,9.86-1.51,18.4-2.52l.75-.14.47-.1c1.53-.48,2.56-1.3.07-1.81Z"/><path class="cls-7" d="M64.68,75.76c.14,0-.17-.33-.25-.64a.41.41,0,0,1,.08-.38c.2-.22.73-.39,2-.36h0c.09,0,0-.19-.11-.42s-.1-.74.91-.69a7.91,7.91,0,0,1,1,.14l.23,0c.15,0,.07-.44.32-.7a.59.59,0,0,1,.45-.14,3.78,3.78,0,0,1,1.67.64c.06,0,0-.28.16-.52a.53.53,0,0,1,.29-.23c.34-.11,1,0,2.26.9.08,0,.13-.12.28-.26a.63.63,0,0,1,.29-.16c.35-.08,1,.06,2.15.93.23.17.51.07,1.15.29l0,0A9.21,9.21,0,0,1,80.25,76l.12.09c.4.29,1.43.94,1.7,1.08a10.22,10.22,0,0,0,5.85,1.35c1-.07,4.75-.12,6.74,0A94.4,94.4,0,0,1,105,80.08a7.69,7.69,0,0,0-1.74-.14h0c-1.85,0-4.56.49-3.13,1.28h0l-.2-.06a35.73,35.73,0,0,0-9.47-1c-2.39,0-4.53.13-5.88.15h-.14c-1.28-.12-9.86-1.51-18.41-2.52l-.75-.14-.47-.1c-1.53-.48-2.55-1.3-.07-1.81Z"/><path d="M58.26,122.87q0,3.51-3.44,3.51H43.35L43,123.67a8.33,8.33,0,0,0,3.27.37h6.07a1,1,0,0,0,1.07-1v-.87a1,1,0,0,0-1.07-1H46c-2.07,0-3.07-1.37-3.07-4.29v-1.91c0-2.91,1-4.26,3.07-4.26H57.88l.38,2.72A8.36,8.36,0,0,0,55,113H48.68c-.6,0-.89.3-.89.94v.73c0,.64.29.94.89.94h6.14c2.29,0,3.44,1.18,3.44,3.52v3.76Z"/><path d="M84,123.91c-.66,0-.86-.3-.86-1.14v-8.52c0-.83.2-1.14.86-1.14h4.41c.66,0,.86.31.86,1.14v8.52c0,.84-.2,1.14-.86,1.14Zm-5.28,8.44H91c2,0,3.27-1.37,3.27-4.46v-13.7a15.38,15.38,0,0,1,.29-3.56h-13c-2.29,0-3.38,1.31-3.38,4.22v7.31c0,2.92,1.09,4.22,3.38,4.22h5.62c1.06,0,2.12,0,2.12,0V127c0,1.61,0,1.82-1.17,2.23l-9.37,3.11v0Z"/><path d="M107.32,117.94v4.83c0,.84-.21,1.14-.86,1.14H102c-.66,0-.86-.3-.86-1.14v-3.69c0-.84.2-1.14.86-1.14Zm5-3.09c0-2.91-1.08-4.22-3.38-4.22H97l-.31,2.68a7.41,7.41,0,0,1,2.41-.33h7.51c.46,0,.72.2.72.74v1c0,.54-.26.74-.72.74h-7c-2.35,0-3.38,1.14-3.38,5.46s1,5.46,3.38,5.46h13a15.22,15.22,0,0,1-.29-3.55v-8Z"/><path d="M71.19,117.94v4.83c0,.84-.2,1.14-.86,1.14H65.92c-.67,0-.87-.3-.87-1.14v-3.69c0-.84.2-1.14.87-1.14Zm5-3.09c0-2.91-1.09-4.22-3.38-4.22H60.87l-.31,2.68A7.32,7.32,0,0,1,63,113h7.51c.47,0,.72.2.72.74v1c0,.54-.25.74-.72.74h-7c-2.35,0-3.38,1.14-3.38,5.46s1,5.46,3.38,5.46h13a15.22,15.22,0,0,1-.29-3.55v-8Z"/><path d="M127.15,110.63c2.29,0,3.38,1.31,3.38,4.22v8a15.22,15.22,0,0,0,.29,3.55h-5.57a14.67,14.67,0,0,0,.29-3.55v-8.58c0-.83-.2-1.14-.86-1.14h-4.24c-.66,0-.86.31-.86,1.14v8.58a15.22,15.22,0,0,0,.29,3.55h-5.56a15.22,15.22,0,0,0,.29-3.55v-8.64a15.38,15.38,0,0,0-.29-3.56Z"/><polygon points="144.26 110.63 144.26 112.98 140.55 112.98 140.55 126.5 135.56 126.5 135.56 112.98 131.82 112.98 131.82 110.63 144.26 110.63 144.26 110.63"/><path d="M151.21,123.91c-.66,0-.85-.3-.85-1.14v-8.52c0-.83.19-1.14.85-1.14h4.42c.66,0,.86.31.86,1.14v8.52c0,.84-.2,1.14-.86,1.14Zm6.88,2.47c2.3,0,3.39-1.3,3.39-4.22v-7.31c0-2.91-1.09-4.22-3.39-4.22h-9.34c-2.3,0-3.39,1.31-3.39,4.22v7.31c0,2.92,1.09,4.22,3.39,4.22Z"/><path d="M178.62,122.87c0,2.34-1.14,3.51-3.44,3.51H163.71l-.37-2.71a8.36,8.36,0,0,0,3.27.37h6.08a1,1,0,0,0,1.06-1v-.87a1,1,0,0,0-1.06-1h-6.34c-2.06,0-3.07-1.37-3.07-4.29v-1.91c0-2.91,1-4.26,3.07-4.26h11.9l.37,2.72a8.33,8.33,0,0,0-3.27-.37h-6.3c-.61,0-.89.3-.89.94v.73c0,.64.28.94.89.94h6.13c2.3,0,3.44,1.18,3.44,3.52v3.76Z"/><path d="M184.16,126.38c-2.3,0-3.39-1.3-3.39-4.22v-8a15.56,15.56,0,0,0-.28-3.56h5.27v12.14c0,.84.2,1.14.86,1.14h4.25c.66,0,.86-.3.86-1.14v-8.58a15.38,15.38,0,0,0-.29-3.56h5.27v12.2a15.22,15.22,0,0,0,.29,3.55Z"/><path d="M120,166.31c7.93-.14,32.34-16.38,47.51-38.71h-1.91c-15.17,20.4-38.07,36.13-45.6,36.16h0c-6.77,0-26-12.77-40.84-30.19H77.66v-1.82q-1.66-2-3.24-4.15H72.51c15.18,22.33,39.58,38.57,47.51,38.71Z"/><path d="M178.91,102.64a9.05,9.05,0,0,0,.26-2c0-.73-.1-1.08-.2-.61-.22,1.09-.48,2.18-.77,3.26a57.32,57.32,0,0,1-2.08,6.12H177a59.33,59.33,0,0,0,2-6.78Z"/><path d="M61.85,103.3c-.3-1.08-.56-2.17-.78-3.26-.09-.47-.2-.12-.2.61a9.05,9.05,0,0,0,.26,2,59.39,59.39,0,0,0,2,6.78h.83a55.18,55.18,0,0,1-2.08-6.12Z"/><path d="M174,114.2h0l-.09.17H175l.08-.17H174Z"/><path d="M169.31,122.31h0c-.11.17-.21.34-.33.51h1.61l.3-.51h-1.57Z"/><path d="M70,121.1c-.4-.64-.8-1.29-1.18-1.94H67.4c.63,1.19,1.29,2.36,2,3.53H70V121.1Z"/><path d="M136.82,79.94h0a10,10,0,0,0-2.91.39l-.5.14h0a25.77,25.77,0,0,0-4.25,1.64h0c-1-2.6-2.26-4.24-4-5.15l-.23-.17h0A8.31,8.31,0,0,0,120,75.13h0a8.29,8.29,0,0,0-4.91,1.66h0l-.22.17c-1.71.91-3,2.55-4,5.15h0a25.77,25.77,0,0,0-4.25-1.64h0l-.5-.14a10,10,0,0,0-2.91-.39h0c-1.88,0-4.47.49-3.18,1.25l0,0h0l1.15.39a27.11,27.11,0,0,1,2.57,1.2c.35.17,3.52,1.66,5.87,3a9.46,9.46,0,0,1,3,2.17c.64,1.15.23,1.94.68,3.13a5.84,5.84,0,0,0,1.34,1.59c.12.11.44.36.78.62l0,.13-.06,0h0c-.23,0-.77-.55-.94-.63h0a2.32,2.32,0,0,0,.59,1.48,1.88,1.88,0,0,0,1.38.63h0a.94.94,0,0,0,.65-.21h0a8,8,0,0,1,1.42,4.71l.27,4.68h0l0,.18a12.76,12.76,0,0,0,.29,1.75l0,.08a20.64,20.64,0,0,0,.91,2.92l0,.06h0l0-.06a20.07,20.07,0,0,0,.91-2.92l0-.08a14.61,14.61,0,0,0,.28-1.75l0-.18h0l.28-4.68A7.9,7.9,0,0,1,123,94.73h0a.94.94,0,0,0,.65.21h0a1.91,1.91,0,0,0,1.39-.63,2.29,2.29,0,0,0,.58-1.48h0c-.16.08-.71.6-.94.63h0l-.06,0,0-.13.79-.62a6,6,0,0,0,1.33-1.59c.46-1.19.05-2,.68-3.13a9.53,9.53,0,0,1,3-2.17c2.35-1.3,5.51-2.79,5.86-3a27.11,27.11,0,0,1,2.57-1.2l1.16-.39h0l0,0c1.29-.76-1.3-1.22-3.18-1.25Z"/><polygon points="134.34 114.2 131.73 114.2 131.73 114.35 134.34 116.43 134.34 114.2 134.34 114.2"/><path d="M144.15,114.68c0-.16,0-.33,0-.48h-2.4V115a3.65,3.65,0,0,0,2.38-.3Z"/><path d="M134.06,121.1l.28-.19v-2.78l-2.6-3.5a1.7,1.7,0,0,1,0,.22v5.69c.83.5,1.78.85,2.31.56Z"/><path d="M123.63,124.18l0-6.35.67,1.61V114.6a.93.93,0,0,1-.26.13l-.08,0-.16.06-.29.08-.13,0-.18,0h0l-.22,0c-.68.1-1.46.14-2.15.2v7.63a13.35,13.35,0,0,0,.26,3.28l.34,1.48c1.21-.07,2.23-2.42,2.23-3.41Z"/><path d="M107.92,108.33l-.09-.31-.24-.93a1.55,1.55,0,0,0,0-.23c-.08-.35-.15-.7-.21-1.06l-15.08,2.52a2,2,0,0,0-1.36,1.09h17.39c-.13-.35-.25-.72-.36-1.08Z"/><path d="M105,119.16a1.69,1.69,0,0,0,.94,1.94l.12,0v-2Z"/><path d="M99.08,114.2a6.61,6.61,0,0,0-2.16.3l-.91.26a2.26,2.26,0,0,0,.83.24h.07a4.2,4.2,0,0,1,2.66-.76h1.18l.09,0H99.08Z"/><path d="M147.79,108.32l-15.08-2.52c-.06.36-.13.72-.21,1.06a1.6,1.6,0,0,1-.05.21q-.1.5-.24,1c0,.1-.05.19-.08.28-.11.38-.23.75-.36,1.1h13.71v1.22a4.43,4.43,0,0,1,3.27-1.22h.4a2,2,0,0,0-1.36-1.09Z"/><path d="M227,70.71s-1.24-1.23-4.91-1.67a80,80,0,0,0-14.69-.15c-2.93.19-5.87.51-8.81.93,5.15-1.33,15.53-4,21.61-5.37,0,0-.29-.5-2.3-.72a53.65,53.65,0,0,0-14.52.91c-.34,0-.68.12-1,.18l7.16-3a6.73,6.73,0,0,0-1.25-.23,39.11,39.11,0,0,0-10.64,1.18l3.08-1.62A2.87,2.87,0,0,0,200,61a23.12,23.12,0,0,0-9.18,1.31c-.48.18-1.06.41-1.69.69l3.15-1.7-.48-.07A17.11,17.11,0,0,0,184.05,63q-.26.11-.51.24a12.74,12.74,0,0,0-6.23,1.45,18.18,18.18,0,0,0-1.58,1,14.3,14.3,0,0,0-5.89,2.61c-.54.38-1.13.81-1.75,1.27l-2,1.51c-1.3,1-2.64,2-3.86,3l-1.89,1.5a8.11,8.11,0,0,1,2.18-1.31l.05,0c1.25-1,2.6-2,3.88-3L168.07,70a4.42,4.42,0,0,1,.49-.26c.42-.2,1-.44,1.09-.51a15.82,15.82,0,0,1,3.47-1.65c-1.17.79-2.38,1.67-3.57,2.57-.72.54-1.43,1.09-2.11,1.62L165.85,73a.58.58,0,0,1,.29.16l1.6-1.25,2.16-1.65c1.63-1.24,3.18-2.36,4.15-3,.39-.25,1.71-.65,2.1-.86A10.38,10.38,0,0,1,180,65.19a104.45,104.45,0,0,0-8.82,5.6l-2.4,1.67-.07.05a.54.54,0,0,1,.28.23l.12-.09,2.42-1.71a70.69,70.69,0,0,1,9.32-5.69c.14-.06,1.68-.5,1.82-.56,3.29-1.48,4.65-1.78,5.81-1.72L182.91,66c-3.41,1.66-7.38,3.87-10.17,5.46l-1.94,1.12a.58.58,0,0,1,.45.14l1.87-1.07c3.86-2.2,10.65-5.94,14.28-7.21.51-.18,2.37-.43,2.66-.53,2.95-1,3.87-1,5.26-.9l-1.9,1.06a181,181,0,0,0-19.19,8.12l-2.43,1.18a7.91,7.91,0,0,1,1-.14l1.79-.87c3.87-1.85,11.73-5.47,16.48-6.64,1.29-.32,1.72-.28,2.93-.5,3.09-.55,6.6-1.87,8.44-1.4l-4.16,1.81c-6.44,1.46-17.58,5.6-22.37,7.43l-2.19.84c0,.12-.06.18-.11.31s0,.11,0,.11,1-.41,2.69-1c4.6-1.75,14-5.18,19.09-6.15a36.82,36.82,0,0,1,3.77-.22c4.25-.45,8.48-1.34,10.55-.71-4.34,1.1-11.72,3.18-15.54,4.26-4.64.64-12.37,2.59-16.43,3.66l-2.17.57a.41.41,0,0,1,.08.38c.49-.14,1.38-.38,2.54-.68,4.71-1.24,14.09-3.5,21.24-4,2.37-.17,1.94.16,4.29,0,3.83-.31,8.27-.85,11.93.5-11.3,1.32-23.21,3.2-34.6,5.49-1.75.35-3.49.72-5.22,1.09l-.5.1-.59.13,1.23-.11,2.43-.26.22,0,2.31-.22,1-.06c2.6-.1,6.25.09,6.25.09-.16,0-9.91.92-23.91,2.89-3.62.51-8,1.1-8.76,1.09-1.37,0-3.54-.14-6-.12-4.07,0-8.89.41-12,2.18-7.34,4.13-9.73,5-10.14,7.33l0,.24c-.22,3.45-1.27,3.71-2.7,4.88-.3.23-.6.51-1,.8-1.47,1.17-1.7,4.39-1.89,7.69,6.33-.3,10.52-3.93,9.12-14.54,0-.26-.07-.51-.11-.76h0a49.52,49.52,0,0,1,3.42,11.74A2.9,2.9,0,0,0,137.6,103c2-.45,2.6-3.7,2.6-3.7s2.24,1.43,4.22.45c1.73-.85,2.15-3.7,2.15-3.7s2.79.31,4-.72c1.69-1.45.9-3.33,1-4,2.62.06,3.37-1,3.62-1.32s-.44-.85-1.39-1.48c2.33.15,4.79,0,5.6-1.06.14-.18-1.86-1-2.57-1.49,2.36.67,5,.46,5.67-.67.09-.16-2.09-.91-2.63-1.33,2.48.11,4.92.06,6.12-1.2.13-.13-2.95-.4-3.43-.78a29.12,29.12,0,0,0,6.6-1.27,10.7,10.7,0,0,0,3.08-1.38l5.06-.53,6.08-.6c2.75-.27,5.33-.51,7-.63,1.22-.09,3.71-.46,3.7-.47-.25-.29-5.37-1-8.72-1.09A400.63,400.63,0,0,1,227,70.71Z"/><path d="M13.05,70.71S14.29,69.48,18,69a80.1,80.1,0,0,1,14.7-.15c2.93.19,5.87.51,8.81.93-5.16-1.33-15.54-4-21.62-5.37,0,0,.29-.5,2.3-.72a53.65,53.65,0,0,1,14.52.91c.34,0,.68.12,1,.18l-7.16-3a7,7,0,0,1,1.25-.23A39.2,39.2,0,0,1,42.43,62.8l-3.08-1.62a2.87,2.87,0,0,1,.72-.16,23.1,23.1,0,0,1,9.17,1.31c.49.18,1.06.41,1.7.69l-3.16-1.7.48-.07A17.14,17.14,0,0,1,56,63l.5.24a12.74,12.74,0,0,1,6.23,1.45,18.18,18.18,0,0,1,1.58,1,14.32,14.32,0,0,1,5.9,2.61c.53.38,1.13.81,1.75,1.27L74,71c1.31,1,2.65,2,3.86,3l1.89,1.5a8.26,8.26,0,0,0-2.17-1.31l-.05,0c-1.25-1-2.61-2-3.88-3L72,70a3.63,3.63,0,0,0-.49-.26c-.42-.2-1-.44-1.09-.51a15.58,15.58,0,0,0-3.46-1.65c1.16.79,2.38,1.67,3.56,2.57.73.54,1.44,1.09,2.11,1.62s1.1.86,1.59,1.26a.63.63,0,0,0-.29.16L72.3,71.9c-.7-.55-1.44-1.11-2.15-1.65C68.51,69,67,67.89,66,67.3c-.4-.25-1.72-.65-2.1-.86a10.42,10.42,0,0,0-3.84-1.25,102.87,102.87,0,0,1,8.82,5.6l2.4,1.67.08.05a.53.53,0,0,0-.29.23L71,72.65l-2.43-1.71a70.05,70.05,0,0,0-9.32-5.69c-.13-.06-1.68-.5-1.81-.56-3.29-1.48-4.66-1.78-5.82-1.72L57.13,66c3.41,1.66,7.38,3.87,10.18,5.46l1.93,1.12a.56.56,0,0,0-.44.14l-1.88-1.07c-3.86-2.2-10.65-5.94-14.27-7.21-.52-.18-2.37-.43-2.67-.53-2.94-1-3.86-1-5.25-.9l1.9,1.06a181.89,181.89,0,0,1,19.19,8.12l2.43,1.18a8.32,8.32,0,0,0-1-.14l-1.79-.87C61.62,70.55,53.77,66.93,49,65.76c-1.28-.32-1.72-.28-2.93-.5-3.08-.55-6.6-1.87-8.43-1.4l4.15,1.81c6.44,1.46,17.58,5.6,22.38,7.43l2.18.84a2.45,2.45,0,0,0,.12.31c.07.16,0,.11,0,.11s-1-.41-2.69-1c-4.59-1.75-14-5.18-19.08-6.15A37.15,37.15,0,0,0,40.93,67c-4.26-.45-8.48-1.34-10.55-.71,4.33,1.1,11.72,3.18,15.53,4.26,4.65.64,12.37,2.59,16.43,3.66l2.17.57a.41.41,0,0,0-.08.38c-.49-.14-1.37-.38-2.53-.68-4.72-1.24-14.09-3.5-21.24-4-2.38-.17-1.95.16-4.3,0-3.82-.31-8.26-.85-11.92.5,11.3,1.32,23.2,3.2,34.59,5.49,1.76.35,3.5.72,5.22,1.09l.5.1.59.13-1.23-.11-2.42-.26-.22,0-2.32-.22-1-.06c-2.6-.1-6.25.09-6.25.09.16,0,9.91.92,23.91,2.89,3.63.51,8,1.1,8.77,1.09,1.37,0,3.54-.14,6-.12,4.07,0,8.9.41,12.05,2.18,7.33,4.13,9.72,5,10.14,7.33l0,.24c.23,3.45,1.27,3.71,2.71,4.88.29.23.59.51,1,.8,1.47,1.17,1.71,4.39,1.89,7.69-6.33-.3-10.51-3.93-9.12-14.54,0-.26.08-.51.11-.76h0a49.52,49.52,0,0,0-3.42,11.74,2.89,2.89,0,0,1-3.47,2.49c-2-.45-2.6-3.7-2.6-3.7s-2.24,1.43-4.21.45c-1.74-.85-2.16-3.7-2.16-3.7s-2.78.31-4-.72c-1.69-1.45-.9-3.33-1-4-2.62.06-3.36-1-3.61-1.32s.43-.85,1.38-1.48c-2.33.15-4.79,0-5.6-1.06-.14-.18,1.87-1,2.57-1.49-2.36.67-5,.46-5.66-.67-.1-.16,2.08-.91,2.62-1.33-2.47.11-4.92.06-6.12-1.2-.12-.13,3-.4,3.43-.78a29.33,29.33,0,0,1-6.6-1.27,10.62,10.62,0,0,1-3.07-1.38l-5.07-.53-6.07-.6c-2.75-.27-5.34-.51-7-.63-1.22-.09-3.7-.46-3.7-.47.26-.29,5.38-1,8.73-1.09a400.47,400.47,0,0,0-41.58-5.39Z"/></svg>