<svg id="Layer_1" data-name="Layer 1" xmlns="http://www.w3.org/2000/svg" viewBox="0 0 240 240"><defs><style>.cls-1{fill:#fff;}.cls-2{fill:#a40931;}</style></defs><path class="cls-1" d="M88.42,46.47l-4.31,2.14c-8.88,4.28-19,9.14-26.35,11.74l-3.11,1.09.13,3.3c.1,2.45,2.4,60.14,7.24,78.28,5.12,19.16,15.48,34.84,30.8,46.61a88.85,88.85,0,0,0,25.66,13.71l1.52.5,1.51-.5a88.79,88.79,0,0,0,25.67-13.71C162.5,177.86,172.86,162.18,178,143c4.84-18.14,7.14-75.83,7.24-78.28l.13-3.3-3.11-1.09c-7.4-2.6-17.48-7.46-26.36-11.75l-4.3-2.13C142.42,41.88,131,36.16,120,36.16S97.58,41.88,88.42,46.47Z"/><path d="M89.29,48.22,85,50.36C76,54.67,65.91,59.56,58.41,62.2l-1.75.61.07,1.85c.1,2.44,2.39,59.91,7.18,77.85,5,18.74,15.13,34.07,30.1,45.57a86.64,86.64,0,0,0,25.09,13.4l.88.29h0l.9-.3A86.64,86.64,0,0,0,146,188.08c15-11.5,25.1-26.83,30.1-45.57,4.79-17.94,7.08-75.41,7.18-77.85l.07-1.85-1.75-.61C174.09,59.56,164,54.67,155,50.36l-4.31-2.14c-9-4.5-20.15-10.1-30.71-10.1S98.27,43.72,89.29,48.22Zm-2.13,6.66,4.38-2.17c8.51-4.26,19.09-9.57,28.46-9.57s19.95,5.31,28.46,9.57l4.38,2.17c8.8,4.25,17.86,8.62,25.33,11.41-.44,10-2.75,59.25-6.93,74.93a78.18,78.18,0,0,1-28.31,42.87A81.54,81.54,0,0,1,120,196.46a81.54,81.54,0,0,1-22.93-12.37,78.18,78.18,0,0,1-28.31-42.87c-4.18-15.68-6.49-64.88-6.93-74.93C69.3,63.5,78.36,59.13,87.16,54.88Z"/><path class="cls-2" d="M107.23,103.77l-4.55,8.3-1.94-8.3H96.82l3.94,16.76H102l9.24-16.76Z"/><path class="cls-2" d="M112,103.77v3.68h2.46L113,116.6h-2.64v3.68h8.83V116.6h-2.49l1.44-9.15h2.66v-3.68Z"/><path class="cls-2" d="M127.14,103.87a6.6,6.6,0,0,0-1.93,1,5.54,5.54,0,0,0-2.24,3.62,5,5,0,0,0-.07.85,3.92,3.92,0,0,0,.19,1.26,3.72,3.72,0,0,0,1,1.5,9.25,9.25,0,0,0,2.9,1.59c1.47.6,2.17,1,2.17,1.59a.76.76,0,0,1,0,.15h0c-.14.91-1.47,1.39-2.38,1.39a5,5,0,0,1-1.72-.33,12.75,12.75,0,0,1-1.89-1l-.62-.37-1,3.32.26.23a7,7,0,0,0,2,1.33,6.18,6.18,0,0,0,2.42.45,7.35,7.35,0,0,0,4.26-1.33,6.11,6.11,0,0,0,1.59-1.66,6,6,0,0,0,.86-2.3,4.93,4.93,0,0,0,.06-.75,3.69,3.69,0,0,0-.21-1.25,3.61,3.61,0,0,0-1-1.42A9.83,9.83,0,0,0,129,110.2a9.24,9.24,0,0,1-1.76-.89c-.37-.28-.46-.51-.46-.72,0,0,0-.09,0-.13a1.39,1.39,0,0,1,.64-.85,2.87,2.87,0,0,1,1.58-.44,4,4,0,0,1,1.58.36,7.78,7.78,0,0,1,1.48.87l.51.38,1.66-3-.33-.29a8.9,8.9,0,0,0-2.11-1.49,5.8,5.8,0,0,0-2.47-.5A7,7,0,0,0,127.14,103.87ZM123,108.52h0Zm10,6.72Z"/><path class="cls-2" d="M140.21,103.87a6.86,6.86,0,0,0-1.93,1,5.58,5.58,0,0,0-2.24,3.62,6.35,6.35,0,0,0-.07.85,3.92,3.92,0,0,0,.2,1.26,3.72,3.72,0,0,0,1,1.5,9.31,9.31,0,0,0,2.89,1.59c1.48.6,2.18,1,2.18,1.59a.77.77,0,0,1,0,.15h0c-.13.91-1.46,1.39-2.37,1.39a4.94,4.94,0,0,1-1.72-.33,12.79,12.79,0,0,1-1.9-1l-.62-.37-1,3.32.27.23a7,7,0,0,0,2,1.33,6.25,6.25,0,0,0,2.42.45,7.35,7.35,0,0,0,4.26-1.33,6,6,0,0,0,1.6-1.66,5.81,5.81,0,0,0,.85-2.3,5,5,0,0,0,.07-.75,3.69,3.69,0,0,0-.22-1.25,3.61,3.61,0,0,0-1-1.42,9.91,9.91,0,0,0-2.86-1.62,9.67,9.67,0,0,1-1.77-.89.91.91,0,0,1-.45-.72.57.57,0,0,1,0-.13,1.34,1.34,0,0,1,.63-.85,2.87,2.87,0,0,1,1.58-.44,4,4,0,0,1,1.58.36,7.78,7.78,0,0,1,1.48.87l.51.38,1.66-3-.33-.29a8.71,8.71,0,0,0-2.11-1.49,5.76,5.76,0,0,0-2.46-.5A7.05,7.05,0,0,0,140.21,103.87ZM136,108.52h0Zm10,6.72Z"/><path class="cls-2" d="M150.33,103.77v3.08l-2.12,13.43h9.24V116.6h-5l.55-3.5h5.31v-3.68h-4.72l.3-2h5.23v-3.68Z"/><path class="cls-2" d="M163,103.77v3.08l-2.12,13.43h8.55V116.6h-4.27l2-12.83Z"/><polygon class="cls-2" points="82.47 114.64 68.12 94.14 82.47 127.16 96.82 94.14 82.47 114.64"/><path d="M76.05,64.79c-3.4,1.56-6.76,3-9.9,4.31.22,4.76.62,12.74,1.19,21.77h8.71Z"/><path d="M72.81,140.14a81.57,81.57,0,0,0,3.24,9.69v-19.4H71A87.78,87.78,0,0,0,72.81,140.14Z"/><path d="M95.84,55.25,93.4,56.47,89,58.65l-4.22,2V90.87H95.84Z"/><path d="M84.76,165.58a73,73,0,0,0,11.08,12.07V130.43H84.76Z"/><path d="M104.54,184.24a78.05,78.05,0,0,0,11.08,6v-59.8H104.54Z"/><path d="M115.62,47.74a53.25,53.25,0,0,0-11.08,3.46V90.87h11.08Z"/><path d="M135.4,51.18a52.62,52.62,0,0,0-11.08-3.45V90.87H135.4Z"/><path d="M124.32,190.25a77.64,77.64,0,0,0,11.08-6V130.43H124.32Z"/><path d="M155.18,60.66l-4.2-2-4.39-2.17-2.49-1.24V90.87h11.08Z"/><path d="M144.1,177.7a73.24,73.24,0,0,0,11.08-12V130.43H144.1Z"/><path d="M163.89,150a82.75,82.75,0,0,0,3.3-9.83,87.78,87.78,0,0,0,1.83-9.71h-5.13Z"/><path d="M173.85,69.1c-3.16-1.27-6.54-2.77-10-4.34V90.87h8.77C173.23,81.84,173.63,73.86,173.85,69.1Z"/></svg>