<svg id="Layer_1" data-name="Layer 1" xmlns="http://www.w3.org/2000/svg" viewBox="0 0 240 240"><defs><style>.cls-1{fill:#fff;}.cls-2{fill:#c09949;}.cls-3{fill:#164194;}.cls-4{fill:#e4003a;}</style></defs><path class="cls-1" d="M224.5,154.13,221.82,153l-3.75-1.57-.3-.13h0l-10.46-4.39.95-11.32.34-4,.25-3-2.61,1.47c-8.33,4.71-23.12,12.2-26.26,13.12l-1.67.5.65,1.62,2.64,6.55c-6.27,2.29-12.62,4.26-19,5.9l2.66-1.77a28.82,28.82,0,0,1,3.94-2.43l2.58-1-2.21-1.7a7,7,0,0,0-1.71-.93,14.68,14.68,0,0,0,8-4.74c1.12-1.2,2.25-2.47,3.24-3.59,1.18-1.32,2.63-3,3.07-3.29l4-1.77-4.3-1.16a15,15,0,0,0-1.82-.35,17.5,17.5,0,0,0,7.69-9.35c1.64-4.48,2.29-5.82,2.56-6.15l3-2.79-4.15.08a8.43,8.43,0,0,0-2,.34,15.84,15.84,0,0,0,5.33-10.71c.48-5.91.82-7,.86-7.11l1.08-3-3.06,1a9,9,0,0,0-1.61.72c2-2.85,2.24-6.74,2.07-10.46a34,34,0,0,0-.75-5.38,13.32,13.32,0,0,1-.43-3.32l.24-2.91-2.57,1.39a6.46,6.46,0,0,0-1.54,1.22,17.18,17.18,0,0,0-1.65-11.6,34.73,34.73,0,0,1-2.92-6.64V56.59l-2.68,2.6a11.57,11.57,0,0,0-2.79,5.5,20.6,20.6,0,0,0-1.6-7.33,21,21,0,0,0-5.48-7.18,16.41,16.41,0,0,1-1.73-1.76l-2.08-2.64s-.72,3.3-.72,3.3l-.14.65c-.56,2.48-1.71,7.63.92,12.62,1.39,2.63,4.22,4.68,6.27,6.05a18.89,18.89,0,0,0-6.07-.89l-3.68,0,2.54,2.66a15.3,15.3,0,0,1,2.51,4.3,14.76,14.76,0,0,0,2.95,4.82,16.32,16.32,0,0,0,1.91,1.54l-2.43-.53,1.47,3a12,12,0,0,1,.91,4.23,16.33,16.33,0,0,0,1.68,6.62,12.61,12.61,0,0,0,1.38,2.07l-1.69-.92.13,2.8a29.11,29.11,0,0,1-.25,4.19,21.11,21.11,0,0,0,0,7.22,12.73,12.73,0,0,0,1.83,4.19,15.66,15.66,0,0,0-1.39-1.44l-2.09-1.9-.53,2.78a25.18,25.18,0,0,1-1.05,3.55,25.06,25.06,0,0,0-1.7,7.43q0,.54,0,1l-.67-1.44-1.51,2.72a18.31,18.31,0,0,1-2.44,3.06,21,21,0,0,0-4,5.54,11.17,11.17,0,0,0-.86,3.18l-.29-1.66-2.08,1.62a16.17,16.17,0,0,1-1.82,1.15,18.54,18.54,0,0,0-6.58,5.7c-.37.53-.7,1.07-1,1.61l.41-3.06L144.65,146a12.91,12.91,0,0,1-4.41,2,17.69,17.69,0,0,0-6.15,2.92,16.56,16.56,0,0,0-4.91,6.67,11.37,11.37,0,0,1-1.14,2.12l-.33.42-1,0-1.32-1.9.94-1.44,1.59-2.44h-5.56c7.76-2.93,15.76-7,26.24-19.1,8.45-9.73,13.34-23.08,13.76-37.58V52.84H77.66V97.55c.41,14.55,5.3,27.9,13.76,37.63,10.47,12.06,18.47,16.17,26.23,19.1H116l-.47.72-3.29,5.07-.31-.41a12,12,0,0,1-1.15-2.12,16.52,16.52,0,0,0-4.9-6.67A17.82,17.82,0,0,0,99.76,148a12.77,12.77,0,0,1-4.4-2l-3.07-2.44.4,3.06a18.79,18.79,0,0,0-1-1.61,18.44,18.44,0,0,0-6.57-5.7,16.37,16.37,0,0,1-1.83-1.15l-2.07-1.62-.29,1.66A11.19,11.19,0,0,0,80,135a20.76,20.76,0,0,0-4-5.54,18.84,18.84,0,0,1-2.44-3.06l-1.51-2.72-.67,1.44c0-.32,0-.66,0-1a25.7,25.7,0,0,0-1.7-7.43,25.27,25.27,0,0,1-1.06-3.55l-.52-2.78-2.1,1.9a14.33,14.33,0,0,0-1.38,1.44,12.72,12.72,0,0,0,1.82-4.19,21.38,21.38,0,0,0,.06-7.22,27.74,27.74,0,0,1-.25-4.19l.12-2.8-1.69.92a12,12,0,0,0,1.39-2.07,16.47,16.47,0,0,0,1.67-6.62,12,12,0,0,1,.91-4.23l1.47-3-2.43.53a15.53,15.53,0,0,0,1.91-1.54,14.79,14.79,0,0,0,3-4.82,15,15,0,0,1,2.5-4.3l2.54-2.66-3.68,0a18.93,18.93,0,0,0-6.07.89c2-1.37,4.88-3.42,6.27-6.05,2.63-5,1.48-10.14.93-12.62l-.14-.65-.72-3.28s-2.08,2.62-2.08,2.62a18.58,18.58,0,0,1-1.73,1.76,20.73,20.73,0,0,0-5.48,7.18,20.39,20.39,0,0,0-1.6,7.33,11.75,11.75,0,0,0-2.79-5.5l-2.69-2.6v3.69a34.38,34.38,0,0,1-2.91,6.64,17.06,17.06,0,0,0-1.65,11.6,6.66,6.66,0,0,0-1.54-1.22l-2.57-1.39.23,2.91A13.72,13.72,0,0,1,49,82.14a33.87,33.87,0,0,0-.76,5.38c-.17,3.72.06,7.61,2.08,10.46a9,9,0,0,0-1.61-.72l-3.07-1,1.08,3c0,.11.38,1.2.87,7.11a15.79,15.79,0,0,0,5.32,10.71,8.35,8.35,0,0,0-2-.34l-4.16-.08,3,2.79c.26.33.92,1.67,2.56,6.15A17.46,17.46,0,0,0,60,135a15,15,0,0,0-1.82.35l-4.31,1.16,4,1.77c.43.33,1.88,2,3.06,3.29,1,1.12,2.12,2.39,3.24,3.59a14.68,14.68,0,0,0,8,4.74,7.19,7.19,0,0,0-1.71.93l-2.2,1.7,2.58,1A29.61,29.61,0,0,1,74.74,156c.8.54,1.7,1.15,2.67,1.78q-9.57-2.46-19-5.9L61,145.29l.65-1.62-1.67-.5c-3.14-.92-17.93-8.41-26.26-13.12l-2.61-1.47.25,3,.34,4,.95,11.32L22.23,151.3h0l-.3.13L18.18,153l-2.68,1.13,2.4,1.64c1.57,1.08,10.44,6,15.2,8.51L31.28,168l-1.45,3-.7,1.45,1.46.67c30.66,14.16,59.9,21.05,89.41,21.05s58.75-6.89,89.41-21.05l1.46-.67-.7-1.45-1.45-3-1.82-3.76c4.76-2.48,13.63-7.43,15.2-8.51Z"/><polygon class="cls-2" points="118.23 166.27 125 155.86 116.9 155.86 110.13 166.27 118.23 166.27"/><polygon class="cls-2" points="119.53 165.79 128.75 165.79 124.01 158.94 119.53 165.79"/><path class="cls-2" d="M73.94,69.09c-8.6,0-13.28,4.86-14.84,13.62,3.54-1.08,6.57-1.84,9.43-4.55C70.83,76,71.39,71.76,73.94,69.09Z"/><path class="cls-2" d="M57.94,82.63c.53-5.27,3.77-9.27,4.21-14,.21-2.17-.79-6.44-2.73-8.31,0,.76-1.27,3.91-3.1,7.34C54.15,71.74,52.91,79.36,57.94,82.63Z"/><path class="cls-2" d="M65.25,68.24c1.59-1.12,5.83-3.5,7.49-6.63,2.6-4.92,1.09-10,.63-12.21-1.6,2-5,4-7,8.6C64.5,62.25,64.74,66.93,65.25,68.24Z"/><path class="cls-2" d="M67.25,82.57C60.76,84,56.28,90,57.12,100.36c2.56-2.59,5.49-3.09,7.57-7S65.65,85.79,67.25,82.57Z"/><path class="cls-2" d="M55.84,100c-1.06-4.83.66-9.67-.34-14C55,84,53.13,79.86,51,78.7c.18,2.16-1,4.93-1.18,8.89C49.55,93.15,50.22,98.24,55.84,100Z"/><path class="cls-2" d="M64.69,98c-7.54,4.1-7.7,13.38-4.8,19.45,1.64-2.73,4.14-4.47,5-8.33S64.52,101.66,64.69,98Z"/><path class="cls-2" d="M58.73,118.05c-2-3.56-2.07-10.47-4.3-13.89C53,102,50.86,99.64,48.2,98.76a49.2,49.2,0,0,1,.95,7.51C49.57,111.38,52.73,117.12,58.73,118.05Z"/><path class="cls-2" d="M67.09,113.4c-5.38,4.88-5.81,12.31.37,19.94.81-2.82,2.64-3.51,2.35-9.17C69.58,119.65,67.71,116.71,67.09,113.4Z"/><path class="cls-2" d="M66.37,134.35c-2.66-2.64-4.48-9.57-7.64-12.49-1.22-1.13-5.43-3.46-7.91-3.51.55.51,1.52,2.87,2.93,6.73C55.69,130.39,60.83,135.75,66.37,134.35Z"/><path class="cls-2" d="M72.22,127.16c-3,6.48-1.19,13.9,6.93,19.34-.43-2.63,1.21-6.89-.55-10.87C77,132.08,73.71,129.83,72.22,127.16Z"/><path class="cls-2" d="M78.07,147.4c-3.61-1.7-6.8-7.57-11-9.63a11.71,11.71,0,0,0-8.5-.91c.68.3,3.71,4,6.71,7.2C68.76,147.8,73.58,149.82,78.07,147.4Z"/><path class="cls-2" d="M82.3,139.38c-1.22,7,2.28,13.85,11.25,16.19a16.72,16.72,0,0,0-3.17-9.67C87.45,141.76,84.33,141,82.3,139.38Z"/><path class="cls-2" d="M93.28,157c-3.83-.59-9.6-5.9-13.59-6.37-2.42-.28-6.42,0-8.29,1.41,1.56.62,4,2.54,7.47,4.73C82.66,159.23,88.83,160.57,93.28,157Z"/><path class="cls-2" d="M94.37,147.21c1.08,8.17,6.88,13,16.34,13.42-1.54-2-1.91-5.42-5.78-8.52C101.44,149.32,97.42,149.63,94.37,147.21Z"/><path class="cls-2" d="M110.84,161.7c-5.84.12-10.27-2.76-14.54-2.35-2.17.21-5.84,1.35-7.73,3.46.74-.1,3.91,1,7.72,2.43C101.75,167.32,108.56,166.75,110.84,161.7Z"/><path class="cls-2" d="M166.07,69.09c8.6,0,13.27,4.86,14.83,13.62-3.54-1.08-6.57-1.84-9.43-4.55C169.17,76,168.62,71.76,166.07,69.09Z"/><path class="cls-2" d="M182.06,82.63c-.52-5.27-3.77-9.27-4.21-14-.2-2.17.79-6.44,2.73-8.31,0,.76,1.27,3.91,3.1,7.34C185.85,71.74,187.1,79.36,182.06,82.63Z"/><path class="cls-2" d="M174.75,68.24c-1.59-1.12-5.83-3.5-7.49-6.63-2.59-4.92-1.08-10-.63-12.21,1.6,2,5,4,7,8.6C175.5,62.25,175.26,66.93,174.75,68.24Z"/><path class="cls-2" d="M172.75,82.57c6.49,1.41,11,7.41,10.14,17.79-2.56-2.59-5.49-3.09-7.58-7S174.36,85.79,172.75,82.57Z"/><path class="cls-2" d="M184.16,100c1.07-4.83-.66-9.67.34-14,.49-2,2.38-6.11,4.52-7.27-.17,2.16,1,4.93,1.18,8.89C190.45,93.15,189.79,98.24,184.16,100Z"/><path class="cls-2" d="M175.32,98c7.53,4.1,7.69,13.38,4.8,19.45-1.64-2.73-4.14-4.47-5-8.33S175.48,101.66,175.32,98Z"/><path class="cls-2" d="M181.28,118.05c2-3.56,2.07-10.47,4.29-13.89,1.42-2.16,3.57-4.52,6.24-5.4a47.85,47.85,0,0,0-.95,7.51C190.44,111.38,187.27,117.12,181.28,118.05Z"/><path class="cls-2" d="M172.92,113.4c5.37,4.88,5.81,12.31-.38,19.94-.81-2.82-2.64-3.51-2.35-9.17C170.42,119.65,172.29,116.71,172.92,113.4Z"/><path class="cls-2" d="M173.63,134.35c2.66-2.64,4.48-9.57,7.65-12.49,1.22-1.13,5.43-3.46,7.91-3.51-.56.51-1.53,2.87-2.94,6.73C184.31,130.39,179.17,135.75,173.63,134.35Z"/><path class="cls-2" d="M167.78,127.16c3,6.48,1.19,13.9-6.93,19.34.44-2.63-1.21-6.89.56-10.87C163,132.08,166.3,129.83,167.78,127.16Z"/><path class="cls-2" d="M161.94,147.4c3.61-1.7,6.79-7.57,11-9.63a11.7,11.7,0,0,1,8.5-.91c-.69.3-3.72,4-6.72,7.2C171.25,147.8,166.42,149.82,161.94,147.4Z"/><path class="cls-2" d="M157.7,139.38c1.23,7-2.28,13.85-11.24,16.19a16.58,16.58,0,0,1,3.17-9.67C152.56,141.76,155.68,141,157.7,139.38Z"/><path class="cls-2" d="M146.72,157c3.84-.59,9.6-5.9,13.6-6.37,2.42-.28,6.42,0,8.29,1.41-1.56.62-4.05,2.54-7.48,4.73C157.35,159.23,151.18,160.57,146.72,157Z"/><path class="cls-2" d="M145.63,147.21c-1.07,8.17-6.88,13-16.34,13.42,1.55-2,1.91-5.42,5.79-8.52C138.56,149.32,142.59,149.63,145.63,147.21Z"/><path class="cls-2" d="M129.17,161.7c5.83.12,10.27-2.76,14.53-2.35,2.17.21,5.85,1.35,7.73,3.46-.74-.1-3.91,1-7.71,2.43C138.26,167.32,131.44,166.75,129.17,161.7Z"/><path class="cls-2" d="M22.54,152.89l-3.75,1.57c1.62,1.11,12.17,7,16.41,9.12l1.49-3.09C35.21,159.94,25.47,154.7,22.54,152.89Z"/><path class="cls-2" d="M217.46,152.89l3.75,1.57c-1.62,1.11-12.17,7-16.41,9.12l-1.49-3.09C204.79,159.94,214.53,154.7,217.46,152.89Z"/><path class="cls-2" d="M120,192.63c29.33,0,58.39-6.87,88.74-20.9l-1.45-3c-33,15.23-61.91,20.53-87.29,20.53S65.67,184,32.71,168.73l-1.46,3c30.36,14,59.42,20.9,88.75,20.9Z"/><path class="cls-2" d="M207,131.43c-8.36,4.73-23.21,12.27-26.59,13.26l3.25,8.09C162.41,160.71,140.24,165,120,165s-42.41-4.3-63.68-12.23l3.25-8.09c-3.38-1-18.23-8.53-26.59-13.26l.34,4c3.22,1.86,17.87,9.68,18.65,10l-8.94,2-1.43,2.95c24.77,11.26,52.71,18,78.4,18h0c25.69,0,53.63-6.77,78.4-18L197,147.4l-8.94-2c.78-.28,15.43-8.1,18.65-10Z"/><path class="cls-3" d="M22.54,152.89c2.93,1.81,12.67,7.05,14.15,7.6L43,147.4l8.94-2c-.78-.28-15.43-8.1-18.65-10l1,12.47Z"/><path class="cls-3" d="M120,189.26c25.38,0,54.33-5.3,87.29-20.53l-8.89-18.38c-24.77,11.26-52.71,18-78.4,18s-53.63-6.77-78.4-18l-8.89,18.38c33,15.23,61.91,20.53,87.29,20.53Z"/><path class="cls-3" d="M217.46,152.89c-2.93,1.81-12.67,7.05-14.15,7.6L197,147.4l-8.94-2c.78-.28,15.43-8.1,18.65-10l-1.05,12.47Z"/><path d="M160.77,54.42V97.55c-.4,14-5.1,27.07-13.37,36.59-10.94,12.6-19,16.3-27.39,19.32-8.39-3-16.45-6.72-27.4-19.32-8.27-9.52-13-22.54-13.37-36.59V54.42Z"/><path class="cls-2" d="M159.65,55.54v42c-.4,13.76-5.05,26.49-13.1,35.86-10.6,12.33-19,16-26.54,18.85-7.53-2.83-15.94-6.52-26.55-18.85-8-9.37-12.7-22.1-13.1-35.86v-42Z"/><path class="cls-3" d="M95.45,131.7c10,11.61,17,14.65,24.56,17.75,7.56-3.1,14.56-6.14,24.55-17.75,7.19-8.36,12.06-20.11,12.47-34.22V85.13L88.7,121.39A43.15,43.15,0,0,0,95.45,131.7Z"/><polygon class="cls-4" points="82.99 58.17 82.99 97.27 157.03 58.17 82.99 58.17"/><path class="cls-1" d="M83,97.27v.21a56.72,56.72,0,0,0,5.71,23.91L157,85.13v-27Z"/><path d="M97.45,110.63a7.75,7.75,0,1,0-7.75-7.75A7.75,7.75,0,0,0,97.45,110.63Z"/><path class="cls-1" d="M96.05,108.73l-.76.57a6.62,6.62,0,0,0,4.33,0l-.76-.57,1.28-2.14,2.33-.52.3.91a6.87,6.87,0,0,0,1.34-4.17l-.69.52-1.61-1.82.15-2.45h.94a6.64,6.64,0,0,0-3.5-2.57l.29.91-2.2,1-2.27-1,.28-.91A6.7,6.7,0,0,0,92,99.05h1l.22,2.37-1.61,1.94-.76-.56A6.73,6.73,0,0,0,92.14,107l.29-.91,2.37.52Z"/><polygon points="97.42 99.88 100.32 101.98 99.27 105.17 95.72 105.17 94.67 101.9 97.42 99.88"/><path class="cls-1" d="M149.56,97.78c-1.83-.91-3.82.26-5,1.48-1.19-1.22-3.18-2.39-5-1.48a8.08,8.08,0,0,0-2.45,2.27c1.88.44,2.65-2.11,5.19-.84a3.09,3.09,0,0,1,1.28,1.23l-.25.71h2.47l-.25-.71a3.09,3.09,0,0,1,1.28-1.23c2.54-1.27,3.31,1.28,5.19.84A8.08,8.08,0,0,0,149.56,97.78Z"/><path class="cls-1" d="M147.31,102.28c-1.83-.91-3.82.26-5,1.48-1.19-1.22-3.18-2.39-5-1.48a8.08,8.08,0,0,0-2.45,2.27c1.88.44,2.65-2.11,5.19-.84a3,3,0,0,1,1.28,1.23l-.25.71h2.47l-.25-.71a3,3,0,0,1,1.28-1.23c2.54-1.27,3.31,1.28,5.19.84A8.08,8.08,0,0,0,147.31,102.28Z"/><path class="cls-1" d="M145.06,106.77c-1.82-.9-3.82.27-5,1.49-1.19-1.22-3.18-2.39-5-1.49a8.12,8.12,0,0,0-2.45,2.28c1.88.44,2.65-2.11,5.19-.85a3.12,3.12,0,0,1,1.28,1.24l-.25.7h2.48l-.26-.7a3.12,3.12,0,0,1,1.28-1.24c2.55-1.26,3.31,1.29,5.19.85A7.89,7.89,0,0,0,145.06,106.77Z"/><path d="M144.67,114a2.28,2.28,0,0,0-1.75-.68l-9.09.47a2.42,2.42,0,0,0-1.15.34,10.35,10.35,0,0,0-.36-1c-1.17-2.81-3.77-5.26-7.59-7.2V91.33h11.44a5.29,5.29,0,1,0,0-8.41h-5.37a14.42,14.42,0,0,0,1.33-4.66A6.92,6.92,0,0,0,128,71.4a7.84,7.84,0,0,0-3.5-.84l.9-4.36H114.58l.9,4.36a7.87,7.87,0,0,0-3.5.84,6.9,6.9,0,0,0-4.1,6.86,13.94,13.94,0,0,0,1.33,4.66h-5.38a5.28,5.28,0,1,0-3.17,9.5,5.33,5.33,0,0,0,3.2-1.09H110a13.37,13.37,0,0,0-2.18,7c0,4.68,2.52,8.38,7.49,11v13.24a46.27,46.27,0,0,1-8.6-4.21l1-1a2.16,2.16,0,0,0-1.44-3.71l-9.1-.47a2.3,2.3,0,0,0-1.75.68,2.37,2.37,0,0,0-.65,1.49l.62,9.35a2.18,2.18,0,0,0,3.74,1.4l1.45-1.48a57.29,57.29,0,0,0,19.5,10.7,57.2,57.2,0,0,0,19.5-10.7l1.45,1.47a2.17,2.17,0,0,0,2.32.54,2.1,2.1,0,0,0,1.4-1.93l.64-9.08A2.32,2.32,0,0,0,144.67,114Zm-29.38-13.6a4.53,4.53,0,0,1,0-3.87Zm9.53,21.11a1.1,1.1,0,0,1-.09.14v-7.33C125.81,115.14,127.19,117.35,124.82,121.46Zm8.19-2.82.06-.48.27.27Z"/><path class="cls-1" d="M144.19,114.42A1.62,1.62,0,0,0,143,114l-9.1.46a1.54,1.54,0,0,0-1.4.91c-.05.14-.09.26-.12.37a9.49,9.49,0,0,0-.65-2.37c-1.14-2.75-3.76-5.15-7.63-7V90.65h12.33a4.61,4.61,0,1,0,0-7.05h-6.66a15.49,15.49,0,0,0,1.72-5.37A6.22,6.22,0,0,0,127.73,72a6.92,6.92,0,0,0-4-.7l.91-4.42h-9.2l.91,4.42a6.94,6.94,0,0,0-4,.7,6.22,6.22,0,0,0-3.74,6.23,15.7,15.7,0,0,0,1.72,5.37h-6.66a4.61,4.61,0,1,0,0,7.05h7.62a13.35,13.35,0,0,0-2.77,7.73c0,4.51,2.52,8.07,7.48,10.6v14.63a47.09,47.09,0,0,1-10.34-5.07l1.54-1.56a1.5,1.5,0,0,0-1-2.57L97.07,114a1.6,1.6,0,0,0-1.23.47,1.63,1.63,0,0,0-.46,1.24l.62,9.09a1.49,1.49,0,0,0,2.58,1l1.88-1.91A57,57,0,0,0,120,134.7a57,57,0,0,0,19.55-10.91l1.88,1.91a1.49,1.49,0,0,0,2.58-1l.62-9.09A1.62,1.62,0,0,0,144.19,114.42ZM116,102.24c-3.25-2.91-1.46-6.26,0-8.31Zm8.1,21.36V112.83C128.39,115.69,127,120.16,124.06,123.6ZM132,120a10.27,10.27,0,0,0,.41-3.59c.09.16,1.25,1.37,2,2.11C133.74,119,132.93,119.5,132,120Z"/><polygon class="cls-2" points="122.88 68.29 121.92 72.93 118.1 72.93 117.14 68.29 122.88 68.29"/><path class="cls-2" d="M121.48,83.78a8.61,8.61,0,0,0,1.36-4.19c0-2.91-2-5-2.83-5s-2.83,2.12-2.83,5a8.61,8.61,0,0,0,1.36,4.19Z"/><path class="cls-2" d="M121.87,73.88c1.1-1.63,3.61-1.44,5.22-.62a4.82,4.82,0,0,1,3,4.91c-.09,2.17-2,5.61-2,5.61h-4.86a9.69,9.69,0,0,0,1.13-4.19A7.82,7.82,0,0,0,121.87,73.88Z"/><path class="cls-2" d="M118.15,73.88c-1.1-1.63-3.61-1.44-5.22-.62a4.82,4.82,0,0,0-3,4.91c.09,2.17,2,5.61,2,5.61h4.86a9.69,9.69,0,0,1-1.13-4.19A7.82,7.82,0,0,1,118.15,73.88Z"/><path class="cls-2" d="M143,115.36l-9.1.46c-.12,0-.15.08-.06.17l2.67,2.71c-2.28,1.94-8.11,5.15-13.89,6.84h0V111.93a25.26,25.26,0,0,0-3.61-1.62c-.58-.21-1.13-.43-1.66-.66v15.89h0c-5.78-1.69-11.61-4.9-13.88-6.84l2.66-2.71c.09-.09.06-.16-.06-.17l-9.1-.46a.18.18,0,0,0-.2.21l.62,9.08c0,.12.08.15.17.07l2.81-2.87A55.06,55.06,0,0,0,120,133.22a55.06,55.06,0,0,0,19.62-11.37l2.82,2.87c.08.08.16,0,.16-.07l.62-9.08A.18.18,0,0,0,143,115.36Z"/><path class="cls-2" d="M122.65,105.63V89.24H137a3.16,3.16,0,0,0,2.4,1.09A3.2,3.2,0,1,0,137,85H103.05a3.2,3.2,0,1,0-2.39,5.32,3.16,3.16,0,0,0,2.4-1.09h14.32V103.3A19.91,19.91,0,0,0,121,105Z"/><path class="cls-2" d="M130.29,113.91c-1.27-3-4.64-5.61-9.83-7.5-6.91-2.52-7.82-5.65-7.82-8,0-3,2.57-6.06,3.32-6.85v-.88h-2.78A12.61,12.61,0,0,0,110,98.38c0,4.69,3.16,8.17,9.56,10.5,4.45,1.62,7.33,3.73,8.3,6,1,2.47.21,5.4-1.15,7.68,1.14-.48,2.22-1,3.23-1.48A8.61,8.61,0,0,0,130.29,113.91Z"/><path class="cls-1" d="M56.73,169.73c-.86,3-3.54,4.93-6,4.24s-3.71-3.72-2.85-6.75,3.54-4.94,6-4.24S57.6,166.69,56.73,169.73Zm-3.79-6.45c-.95-.12-1.56,2.13-1.92,5.07s-.32,5.26.63,5.38,1.56-2.13,1.92-5.07S53.9,163.39,52.94,163.28Z"/><path class="cls-1" d="M74.06,174.93c-.46,3.12-2.87,5.35-5.37,5s-4.17-3.2-3.71-6.32,2.87-5.35,5.38-5S74.53,171.81,74.06,174.93ZM69.47,169c-1,0-1.28,2.31-1.25,5.28s.36,5.26,1.32,5.25,1.28-2.31,1.25-5.28S70.43,169,69.47,169Z"/><path class="cls-1" d="M191.43,166.52c1.26,2.9.39,6.06-1.94,7.07s-5.23-.53-6.48-3.42-.38-6.06,1.94-7.07S190.18,163.63,191.43,166.52Zm-7-2.59c-.81.51.14,2.64,1.73,5.14s3.08,4.28,3.9,3.77-.14-2.64-1.73-5.15S185.23,163.41,184.41,163.93Z"/><path class="cls-1" d="M135.54,171l0-.16,4.72-.62,3.51,7.35,1-7.94,4.72-.63,0,.16a1.34,1.34,0,0,0-1.15,1.74c.13,1,1.47,11.24,1.47,11.24a1.32,1.32,0,0,0,1.46,1.3l0,.14-6,.79,0-.14c1-.29,1.35-.76,1.24-1.62s-1.23-9.31-1.23-9.31l-.13,0-1.59,11.74-5.15-11.24-.12.05s1,7.71,1.55,9.16,1.2,1.69,1.82,1.67l0,.14-4.85.64,0-.14a2.18,2.18,0,0,0,1.61-2.15,66,66,0,0,0-1.09-10.39C137.19,171.88,137,170.87,135.54,171Z"/><path class="cls-1" d="M154,172c2-.5,3.35.35,3.66,1.75s1.31,5.9,1.38,6.23.24.62.61.54.52-.42.43-.92l.1,0a2.13,2.13,0,0,1-2.76,2.61,2.63,2.63,0,0,1-1-.88,2.62,2.62,0,0,1-2.57,2,2.41,2.41,0,0,1-2.38-2.1,4.24,4.24,0,0,1,.13-3c.49-.77,1.62-1,3.07-1.82.38-.2.47-.36.42-.86s-.39-1.27-2.13-.88-2,1.39-2.07,1.48-.13.07-.13,0A4.26,4.26,0,0,1,154,172Zm.18,5.51a6.54,6.54,0,0,0,.38,3.39c.26.69.44,1,1,.89s.66-.65.48-1.44l-.88-3.9C155,176.46,154.54,176.64,154.22,177.48Z"/><path class="cls-1" d="M163.57,172.82s1.41,5.68,1.51,6.07c.15.59.47,1.24,1.35,1l0,.14-5,1.25,0-.14a1.14,1.14,0,0,0,.78-1.5l-1.77-7.12c-.13-.55-.27-1.11-1.4-1l0-.12a14.46,14.46,0,0,0,3.72-1.57c.23,1,.49,1.82.49,1.82a.08.08,0,0,0,.15,0c0-.11,0-2.53,2.3-2.68a7.63,7.63,0,0,0-.16,2.77,2.24,2.24,0,0,0-1.22,0A1.16,1.16,0,0,0,163.57,172.82Z"/><path class="cls-1" d="M182.9,173.86c-.19-.58-2-6.39-2-6.39-.44-1.42-1-2.41-2.71-1.89a4.47,4.47,0,0,0-2.14,2.06,0,0,0,0,1-.05,0c-.24-.77-.39-1.28-.39-1.28a14.35,14.35,0,0,1-3.66,1.8l0,.13c1-.21,1.27.46,1.44,1l2.14,6.85a1.16,1.16,0,0,1-.78,1.59l.05.13,4.59-1.43,0-.14c-.72.13-.88-.5-1.06-1.08-.12-.4-1.32-4.28-2.08-6.77a.9.9,0,0,1,.58-1c.59-.18,1,.18,1.19.82l2,6.51c.25.8,0,1.26-.44,1.43l0,.14,4.69-1.46-.05-.14C183.74,175,183.23,174.93,182.9,173.86Z"/><path class="cls-1" d="M198.33,160.66,197,162.13c-.67-1.52-1.73-2.6-2.93-2.15-.93.34-.77,1.41-.58,1.92A1.55,1.55,0,0,0,194.9,163a10,10,0,0,1,3.44-.05,3.08,3.08,0,0,1,2,2.09,3.8,3.8,0,0,1-2.5,4.89,4,4,0,0,1-5-1.71l1.61-1.31c.64,1.36,1.78,3.16,3.23,2.62a1.68,1.68,0,0,0,.85-2.37c-.39-1-1.53-1.24-2.58-1s-3.09.64-4-1.27-.66-4.27,2-5.24S197.69,159.84,198.33,160.66Z"/><path class="cls-1" d="M169.65,166a1.68,1.68,0,1,1-2.07-1.24A1.7,1.7,0,0,1,169.65,166Z"/><path class="cls-1" d="M172.65,177.05c-.15-.59-2.41-9-2.41-9a15.45,15.45,0,0,1-3.64,1.57l.05.17c.92,0,1.06.47,1.2,1l1.9,7.09a1.13,1.13,0,0,1-.76,1.48l0,.14,5-1.35,0-.14C173.14,178.25,172.81,177.64,172.65,177.05Z"/><path class="cls-1" d="M121.21,171.61v.15c1,.07,1.35.64,1.38,2.12,0,0,.21,10,.22,10.54a1.64,1.64,0,0,1-1.36,1.76v.13l6.22-.13v-.13a1.59,1.59,0,0,1-1.5-1.73l-.11-5.4a2.74,2.74,0,0,1,1.73.32,2.06,2.06,0,0,1,1.21,1.81h.15l-.1-5h-.16c0,.71-.05,1-.91,1.71a2.67,2.67,0,0,1-1.94.46l-.12-6.09a3.37,3.37,0,0,1,3.6,2.71h.16l-.07-3.38Z"/><path class="cls-1" d="M43.66,164.45l-1.35,3.2c-.35.84-1.14,1.75-2.2,1.28l0,.12,5.47,2.31,0-.12c-.91-.32-.9-1.27-.57-2.06l1.5-3.57s2.83-3.17,4.22-4.56,2.78-2.16,3.17-2.07l0-.11-3.69-1.55,0,.1c.74.47.65,1.05.27,1.9A23.46,23.46,0,0,1,47,164.05a.3.3,0,0,1-.15.09s.06-5.11.14-6.09.57-1.68,1.3-1.44l0-.11-5.11-2.15,0,.1c.74.42.82,1,.76,2.27S43.66,164.45,43.66,164.45Z"/><path class="cls-1" d="M90,172.88c2.07.36,2.93,1.66,2.66,3.07s-1.17,5.93-1.23,6.27,0,.67.34.74.65-.18.77-.68l.1,0a2.05,2.05,0,0,1-1,1.55,2,2,0,0,1-2.57-.26,2.56,2.56,0,0,1-.61-1.22,2.61,2.61,0,0,1-3.13.77A2.42,2.42,0,0,1,84,180.26a4.23,4.23,0,0,1,1.31-2.68c.75-.51,1.9-.31,3.53-.44.43,0,.58-.15.73-.62s.16-1.32-1.6-1.66a2.47,2.47,0,0,0-2.49.53c-.08.07-.15,0-.11-.06A4.27,4.27,0,0,1,90,172.88ZM88,178a6.67,6.67,0,0,0-1,3.26c0,.73,0,1.11.55,1.22s.86-.33,1-1.13l.77-3.92A1.45,1.45,0,0,0,88,178Z"/><path class="cls-1" d="M112.34,175c2.09,0,3.15,1.18,3.1,2.61s-.22,6.05-.23,6.39.08.67.45.68.61-.28.65-.79h.11a2.08,2.08,0,0,1-.75,1.69,2,2,0,0,1-2.58.14,2.65,2.65,0,0,1-.79-1.11,2.61,2.61,0,0,1-3,1.25,2.43,2.43,0,0,1-1.78-2.63,4.25,4.25,0,0,1,.88-2.86c.66-.61,1.82-.59,3.42-1,.42-.11.54-.24.62-.73s0-1.33-1.83-1.39-2.32.83-2.38.92-.15,0-.13-.05A4.29,4.29,0,0,1,112.34,175Zm-1.2,5.39a6.66,6.66,0,0,0-.49,3.38c.08.73.17,1.1.73,1.12s.8-.47.83-1.28l.15-4C112.17,179.57,111.67,179.62,111.14,180.35Z"/><path class="cls-1" d="M82.1,181.17c.16-.59,1.63-6.29,1.63-6.29.33-1.29.71-2.64-1.3-3.16a4.61,4.61,0,0,0-2.93.59s-.08,0-.1-.08l1.45-5.62a15.9,15.9,0,0,1-4.19-.32l0,.12c1,.44.9,1,.76,1.55s-2.92,11.3-2.92,11.3a1.13,1.13,0,0,1-1.39.92l0,.14,4.67,1.2,0-.14c-.59-.32-.49-.84-.34-1.43.08-.29.94-3.62,1.78-6.88a.94.94,0,0,1,1-.47.91.91,0,0,1,.67,1.26c-.14.56-1.7,6.61-1.7,6.61-.21.81-.46,1.13-1,1l0,.14,4.67,1.21,0-.14C82.27,182.53,81.82,182.25,82.1,181.17Z"/><path class="cls-1" d="M105.94,184.26l.77-6.51c.18-1.48.05-2.75-1.69-3a4,4,0,0,0-2.64.91h0a1.69,1.69,0,0,0-1.68-1.44,3.48,3.48,0,0,0-2.46.93l.15-1.27a14.83,14.83,0,0,1-4.07.12l0,.12c1.1.3,1,.85,1,1.43s-.9,7.61-.9,7.61c-.1.82-.64.87-1.23.83v.15l4.51.53v-.14c-.41-.19-.45-.49-.38-1.1,0-.43.63-5.27.94-7.88a.79.79,0,0,1,.71-.34c.62.07.63.5.55,1.17s-.84,7-.84,7c-.09.83-.31,1.1-.76,1.15l0,.15,4.15.49v-.14c-.29-.1-.52-.24-.39-1.36l.77-6.51a7.32,7.32,0,0,0,.06-1,.84.84,0,0,1,.77-.5c.62.08.7.57.62,1.24s-.84,7-.84,7c-.1.83-.32,1.09-.77,1.15v.15l4.65.55v-.14C106.26,185.61,105.8,185.38,105.94,184.26Z"/><path class="cls-1" d="M63.73,176.55c-.09-.51-.36-7.29-.36-7.29a3.66,3.66,0,0,1,3.14-1.35l.06-.15-3.15-1.1,0,.12c.5.18.77.92.14,1.78a23,23,0,0,1-2.72,2.59l3.25-9.3a15.7,15.7,0,0,1-4.22-.86l0,.12a1.22,1.22,0,0,1,.72,1.71l-3.85,11a1.11,1.11,0,0,1-1.46.79l-.05.14,4.88,1.7,0-.13c-.81-.3-.74-1-.54-1.57.06-.16.44-1.26,1-2.76l.11,0,.33,4.83L64.49,178l0-.13A1.78,1.78,0,0,1,63.73,176.55Z"/><path class="cls-1" d="M135.5,178.42a1.68,1.68,0,1,1-1.77-1.63A1.71,1.71,0,0,1,135.5,178.42Z"/></svg>