<svg id="Layer_1" data-name="Layer 1" xmlns="http://www.w3.org/2000/svg" viewBox="0 0 240 240"><defs><style>.cls-1{fill:#fff;}.cls-2{fill:#009fe3;}.cls-3{fill:#14387f;}.cls-4{fill:#f07e26;}</style></defs><path class="cls-1" d="M187.12,85.34V51.86l-2.32-.11-1.14-.06a5.12,5.12,0,0,1-4.85-4.43l-.12-.91-.26-1.84-1.83-.24-.91-.12L122,36.94a21.1,21.1,0,0,0-3.55,0L64.64,44.1l-.92.12-1.85.25-.24,1.85-.12.91a5.17,5.17,0,0,1-5.08,4.48H52.81V85.34c0,.52.18,5.16.18,5.16a141.08,141.08,0,0,0,16.27,65.57c11.84,22.09,28.94,38.18,49.46,46.52l.45.18.92.38.92-.38.45-.18c20.52-8.34,37.62-24.43,49.46-46.52A141.08,141.08,0,0,0,187.19,90.5V89.29S187.12,85.86,187.12,85.34Z"/><path class="cls-2" d="M183.55,89.29H55.43V90.5a138.68,138.68,0,0,0,16,64.42C83,176.5,99.65,192.21,119.64,200.33l.45.19.45-.19c20-8.12,36.66-23.83,48.24-45.41a138.68,138.68,0,0,0,16-64.42V89.29Z"/><path class="cls-3" d="M166.65,153.78c-11.21,20.92-27.31,36.17-46.56,44.13-19.25-8-35.35-23.21-46.56-44.13A136.07,136.07,0,0,1,57.86,91.7H182.32A136.07,136.07,0,0,1,166.65,153.78Z"/><path class="cls-1" d="M175.15,99.2l-.54-.81-1.29-1-.22.13-.18,1.78.09.71a20,20,0,0,1-.54,4.81,13.15,13.15,0,0,1-3.12,4.91,19.78,19.78,0,0,0-4.69,7.93c-1.26,4.37-1.91,9.83-.51,12.18l.1.17-1-1.34-.72,1.7a15.94,15.94,0,0,1-2.2,3,22.54,22.54,0,0,1-5.33,3.36,14.83,14.83,0,0,0-2.26,1.28,24.88,24.88,0,0,1,1.73-4.34,11.78,11.78,0,0,1,1.49-2.28,22.12,22.12,0,0,0,4.43-6.34,19.28,19.28,0,0,0,1.47-8.37c0-.87.08-2.19.17-3.73.34-5.72.81-13.55-1.43-16.9l-1.51-1.18-.38,2a2.21,2.21,0,0,1-.15,1.15,6.35,6.35,0,0,0-.28,1.51c-.24,9.19-3.27,16.67-9,22.25a62,62,0,0,1-8.72,6.71c-1.22.83-2.48,1.69-3.76,2.61A59.58,59.58,0,0,0,127,140h0c.62-2,3-8.52,8.33-10.62l3.79-1.5-4-.52c-2.7-.34-4.17-.13-5.49.46a6.42,6.42,0,0,1,.75-.73l0,0,0,0a13.16,13.16,0,0,1,3.57-1.94l5.58-2.19-6,.17a29.14,29.14,0,0,0-13.17,3.66,5,5,0,0,0-1.33-1,6,6,0,0,0-4.81-.38c-1.34.51-2.39.58-2.89.2s-.53-1.28-.46-2a5.15,5.15,0,0,1,1.37-2,2.75,2.75,0,0,0,.85-1.09,3.74,3.74,0,0,0,.08-.62l-.71-.1-.89.07c-6.11,2.5-6.38,5.57-6.16,7.3a5.22,5.22,0,0,0,.7,2l.09,1.35a4.5,4.5,0,0,0,6.48,4.38,5.73,5.73,0,0,0,1.22-.7,20.43,20.43,0,0,0-.83,5.74,60.08,60.08,0,0,0-9.75-8.83c-1.27-.92-2.53-1.78-3.75-2.61a62,62,0,0,1-8.72-6.71c-5.74-5.58-8.78-13.06-9-22.25a6.35,6.35,0,0,0-.28-1.51,2.21,2.21,0,0,1-.15-1.15L81,94.76l-1.43,1.29c-2.24,3.35-1.77,11.18-1.43,16.9.09,1.53.17,2.86.17,3.71A19.32,19.32,0,0,0,79.76,125a22.22,22.22,0,0,0,4.45,6.38,11.78,11.78,0,0,1,1.49,2.28A24.88,24.88,0,0,1,87.43,138a14.83,14.83,0,0,0-2.26-1.28,22.34,22.34,0,0,1-5.33-3.36,15.94,15.94,0,0,1-2.2-3l-.71-1.71-1,1.35.1-.17c1.4-2.35.75-7.81-.51-12.18a19.78,19.78,0,0,0-4.69-7.93,13,13,0,0,1-3.12-4.91,20,20,0,0,1-.54-4.81l.09-.71-.11-2.49-.37.29-1.21,1.26L65,99.2c-1.53,2.31-4.21,8.73-2.75,13.81,1,3.6,3.76,5.61,6.17,7.39,2,1.52,3.83,2.83,4.41,4.84l1.26,4.39.67,2.33,0-.05a4.79,4.79,0,0,0-.38,1.28c-.28,2.55,1,7.52,2.64,9.86.45.65.93,1.3,1.44,1.93l-.3,0-.19,1c-.44,2.16-.5,7.68,2.09,11l.19.22a13.56,13.56,0,0,0,2.5,3.08c.11.11,2.63,2.65,5.31,4.87.46.37.93.79,1.44,1.23a43.89,43.89,0,0,0,9,6.39l.11.06.13,0c2.42.6,4.35.22,5.29-1.06a3.27,3.27,0,0,0,.47-2.68,4.75,4.75,0,0,1,2.3,1.89l1.23,2.49,1.08,2.18.85-2.28c.66-1.79-.48-5.2-1.66-7.57a12.31,12.31,0,0,0-3.78-4.39c-.34-.27-.67-.53-1-.8a8.71,8.71,0,0,0,2.53-.14l.45-.07,2.09-.32-1.51-1.47a11.5,11.5,0,0,1-1.8-2.21c-1.52-2.49-1.57-5.1-1.63-7.63,0-2.26-.12-4.59-1.26-6.71a21.07,21.07,0,0,1,3.86,4.5,15,15,0,0,1,2.08,7.18,12.84,12.84,0,0,0,1.6,5.94c.5.81,1.3,2.08,2,3.07l0,0,0,0c.29.36.58.75.88,1.18l0,.06h0l.1.14a35.52,35.52,0,0,1,2.17,3.88,6.4,6.4,0,0,1,.46,2.12,7.93,7.93,0,0,1-1.18,2.23l-1.08,1.37-1,1.32c-.69.69-1.35,1.47-2,2.29a21.35,21.35,0,0,1-4,3.94L104,182.89l2.83.34a12.34,12.34,0,0,0,4.11-.32,4.11,4.11,0,0,1-1.37.79c-1.22.53-1.48,1.14-1.42,1.52s.63.88,1.34,1.11a6.1,6.1,0,0,0,4,0,10.12,10.12,0,0,1-1.3,2.7l-.41.52.06,1.13a4.26,4.26,0,0,1-.16,1.76l2.22-1a14.84,14.84,0,0,0,4-2.8,29,29,0,0,0,1.22,5.7l1,2.37,1-2.37a5.18,5.18,0,0,1,.6-1.07,6.37,6.37,0,0,0,.85-1.56l0-.08v-.08c.14-.79.23-1.58.3-2.37a15.18,15.18,0,0,0,3.39,2.26l1.83,1.07,0-.82c.14-.26-.18-1,0-1.32l.06-1.21-.41-.52a7.5,7.5,0,0,1-1.08-2.33,5.15,5.15,0,0,0,4.47-.5s1.11-.58,1.11-1-.76-.88-2-1.5l0,0-.06,0a7.81,7.81,0,0,1-.83-.38,11.83,11.83,0,0,0,4.07.32l2.83-.34-2.37-1.58a21.35,21.35,0,0,1-4-3.94c-.7-.82-1.37-1.6-2-2.29l-1-1.32s-1.08-1.37-1-1.33A7.52,7.52,0,0,1,124.5,170a6.29,6.29,0,0,1,.45-2,35.52,35.52,0,0,1,2.17-3.88l.08-.12,0,0,0-.06c.3-.43.59-.82.88-1.18l0,0,0,0c.68-1,1.48-2.26,2-3.07a12.84,12.84,0,0,0,1.6-5.94,15,15,0,0,1,2.08-7.18,21.07,21.07,0,0,1,3.86-4.5c-1.14,2.12-1.21,4.45-1.26,6.71-.06,2.53-.11,5.14-1.64,7.63a11.07,11.07,0,0,1-1.79,2.21l-1.5,1.47,2.08.32.45.07a8.71,8.71,0,0,0,2.53.14c-.3.27-.63.53-1,.8a12.31,12.31,0,0,0-3.78,4.39c-1.18,2.37-2.32,5.78-1.66,7.57l.85,2.28,1.08-2.18,1.23-2.49a4.75,4.75,0,0,1,2.3-1.89,3.27,3.27,0,0,0,.47,2.68c.94,1.28,2.87,1.66,5.29,1.06l.13,0,.11-.06a43.89,43.89,0,0,0,9-6.39c.51-.44,1-.86,1.44-1.23,2.68-2.22,5.2-4.76,5.27-4.83a13.69,13.69,0,0,0,2.54-3.11l.19-.23c2.59-3.32,2.52-8.84,2.09-11l-.19-1-.3,0c.51-.63,1-1.28,1.44-1.93,1.59-2.34,2.92-7.31,2.64-9.86a4.79,4.79,0,0,0-.38-1.28l0,.05.67-2.33,1.26-4.39c.58-2,2.36-3.32,4.41-4.84,2.41-1.78,5.13-3.79,6.17-7.39C179.36,107.93,176.68,101.51,175.15,99.2Zm-32.45,52a18.89,18.89,0,0,1-.94,8.45,15,15,0,0,0-.61-3.07A23.94,23.94,0,0,0,142.7,151.17Zm15.52-2.56.62-.56a7.79,7.79,0,0,1-.69,1.06A9.27,9.27,0,0,1,155,151.7Zm-48.3-16.55c-.15,0-.5.06-1.1-.6a3.61,3.61,0,0,0,.61.15,6.14,6.14,0,0,0,1.83-.06A2.77,2.77,0,0,1,109.92,132.06ZM85.19,151.7A9.27,9.27,0,0,1,82,149.11a8.86,8.86,0,0,1-.7-1.06l.62.56Zm12.29-.53A23.94,23.94,0,0,0,99,156.55a15,15,0,0,0-.61,3.07A18.89,18.89,0,0,1,97.48,151.17Z"/><path class="cls-3" d="M163.7,130.66l-.25-.34-.17.39a15.67,15.67,0,0,1-2.37,3.24,23.27,23.27,0,0,1-5.54,3.51,9.27,9.27,0,0,0-2.34,1.39,17.3,17.3,0,0,0-1.57,2.45c-.17-1.71.72-4.89,2.29-8a12.43,12.43,0,0,1,1.63-2.45,21.83,21.83,0,0,0,4.28-6.14,18.41,18.41,0,0,0,1.4-8c0-.89.08-2.23.17-3.78.32-5.29.8-13.28-1.3-16.4l-.43.2a2.84,2.84,0,0,1-.15,1.57,4.91,4.91,0,0,0-.25,1.31c-.24,9.41-3.36,17.08-9.25,22.81a62.54,62.54,0,0,1-8.83,6.8c-1.22.83-2.48,1.69-3.74,2.59A57.07,57.07,0,0,0,126.43,142l-.18.24c0-.61,0-1.3-.08-2.1a1.9,1.9,0,0,1,.08-.34c.64-2.05,3.16-8.9,8.8-11.13l.87-.34-.92-.12c-3.94-.51-5,.21-6.95,1.5l-.76.5a8.49,8.49,0,0,1,2.57-3.71,13.27,13.27,0,0,1,3.83-2.11l-.09-.46a28.09,28.09,0,0,0-13.15,3.76,5.47,5.47,0,0,0-5.94-1.63c-1.6.62-2.83.65-3.55.11a2.76,2.76,0,0,1-.72-2.57c.07-.74,1-1.6,1.68-2.18.49-.44.72-.64.69-.86a.27.27,0,0,0-.14-.23l-.14-.08-.13.1-.09.06c-5.65,2.32-6.17,5.23-6,6.76a4.47,4.47,0,0,0,3.38,3.79,7.49,7.49,0,0,0,4.8-1.42c1.2-.69,2.33-1.35,3.57-1.18l1.29.17a11.28,11.28,0,0,0-1.39,1.18,4.87,4.87,0,0,0-3.43.28,6.41,6.41,0,0,0-1.93,1.44,3.72,3.72,0,0,1-2.42,1.33c-.93.12-1.79-.62-2.78-2.42l-.2-.38-.22.37,0,.08,0,.06v.07a4,4,0,0,0,5.73,3.89,6.48,6.48,0,0,0,2.4-2,4.31,4.31,0,0,1,2-1.61h.07l-.36.49a13.19,13.19,0,0,0-1.64,2.72,18.38,18.38,0,0,0-1,6.1,9.63,9.63,0,0,0,0,2.15l-.18-.24a57.07,57.07,0,0,0-10.85-10.19c-1.26-.9-2.52-1.76-3.74-2.59a62.54,62.54,0,0,1-8.83-6.8c-5.9-5.73-9-13.4-9.25-22.81a4.91,4.91,0,0,0-.25-1.31,2.84,2.84,0,0,1-.15-1.57l-.43-.2c-2.1,3.12-1.62,11.11-1.3,16.4.09,1.55.17,2.89.17,3.78a18.49,18.49,0,0,0,1.4,8,21.63,21.63,0,0,0,4.3,6.14,12.89,12.89,0,0,1,1.61,2.44c1.57,3.11,2.46,6.29,2.29,8a17.3,17.3,0,0,0-1.57-2.45,9.27,9.27,0,0,0-2.34-1.39A23.27,23.27,0,0,1,79.27,134a15.67,15.67,0,0,1-2.37-3.24l-.17-.39-.25.34a7.3,7.3,0,0,0-1.24,2.62,18.24,18.24,0,0,0,2.51,9.31A29.65,29.65,0,0,0,82.52,148l5.76,5.49a3.84,3.84,0,0,1-1.34-.19,11.28,11.28,0,0,1-5.55-3.73,15.59,15.59,0,0,1-1.9-3.54l0-.16-.16,0-.2,0-.22,0-.05.22c-.41,2-.48,7.24,1.94,10.34l.19.23h0a12.91,12.91,0,0,0,2.43,3s2.59,2.61,5.25,4.8l1.45,1.25A43.43,43.43,0,0,0,98.93,172h0c2.09.51,3.71.24,4.45-.76.46-.62.73-1.79-.35-3.85l1.13.57c1.41.69,2.73,1.34,3.36,2.61l1.24,2.49.24.5.2-.52c.53-1.44-.47-4.6-1.62-6.93a11.71,11.71,0,0,0-3.57-4.12,8.38,8.38,0,0,1-2.52-2.74,9.16,9.16,0,0,1-.35-.87c1.66,1.73,3.26,1.49,4.81,1.24l.46-.07.48-.07-.34-.34a12.4,12.4,0,0,1-1.93-2.37c-1.63-2.68-1.69-5.4-1.75-8,0-2.4-.11-4.66-1.34-6.7l-1.86-3a21.69,21.69,0,0,1,7.3,7.09,15.66,15.66,0,0,1,2.2,7.53,12,12,0,0,0,1.48,5.59c.49.8,1.29,2.06,2,3,.31.38.62.8.93,1.25h0l.09.09v0l0,.07a34.15,34.15,0,0,1,2.23,4,7.68,7.68,0,0,1,.55,2.56,8.24,8.24,0,0,1-1.38,2.65l-1.06,1.36L113,175.61c-.68.68-1.34,1.46-2,2.29a21.74,21.74,0,0,1-4.12,4.08l-.54.37.65.07a16.34,16.34,0,0,0,6.52-1l1.1-.33a11.33,11.33,0,0,1-4.18,3h0c-.35.17-.93.51-.93.85a.35.35,0,0,0,.2.31l0,0c1.66,1.2,3.58.52,5.18-.14a14.08,14.08,0,0,1-1.94,4.51l-.09.12.07.13a1.27,1.27,0,0,1,0,.44,1.29,1.29,0,0,0,0,.78l.11.21.21-.11a15.61,15.61,0,0,0,5.41-4.44,30.29,30.29,0,0,0,1.36,7.42l.23.69.23-.69a5.24,5.24,0,0,1,.7-1.25,6.45,6.45,0,0,0,.76-1.37v0a29.22,29.22,0,0,0,.38-4.12,16.47,16.47,0,0,0,4.92,3.73l.21.1.11-.21a1,1,0,0,0,0-.74,1.24,1.24,0,0,1,0-.4l.07-.13-.09-.12A14.07,14.07,0,0,1,125.4,185c1.62.67,3.57,1.39,5.26.17l0,0a.36.36,0,0,0,.2-.31c0-.34-.59-.68-.93-.85h0a11.39,11.39,0,0,1-4.17-3l1.07.32a16.34,16.34,0,0,0,6.52,1l.65-.07-.54-.37a22.08,22.08,0,0,1-4.13-4.08c-.7-.83-1.37-1.61-2.05-2.29l-1.06-1.35-1.07-1.37a7.87,7.87,0,0,1-1.41-2.8,7.3,7.3,0,0,1,.54-2.4,34.15,34.15,0,0,1,2.23-4l0-.07v0l.09-.09h0c.31-.45.62-.87.92-1.24.68-1,1.48-2.25,2-3a12,12,0,0,0,1.48-5.59,15.66,15.66,0,0,1,2.2-7.53,21.69,21.69,0,0,1,7.3-7.09l-1.86,3c-1.23,2-1.29,4.3-1.34,6.7-.06,2.63-.12,5.35-1.75,8a12.11,12.11,0,0,1-1.93,2.37l-.34.34.48.07.46.07c1.55.25,3.15.49,4.81-1.24a9.16,9.16,0,0,1-.35.87,8.38,8.38,0,0,1-2.52,2.74,11.71,11.71,0,0,0-3.57,4.12c-1.16,2.33-2.16,5.49-1.62,6.93l.19.52.25-.5,1.24-2.49c.63-1.27,1.95-1.92,3.36-2.61l1.13-.57c-1.08,2.06-.81,3.23-.35,3.85.74,1,2.36,1.27,4.45.76h.05a43.43,43.43,0,0,0,8.84-6.29c.51-.45,1-.86,1.45-1.25,2.66-2.19,5.23-4.78,5.25-4.81a12.86,12.86,0,0,0,2.43-3l0,0,.18-.22c2.42-3.09,2.35-8.3,1.94-10.34l-.05-.22-.22,0-.2,0-.16,0,0,.16a15.59,15.59,0,0,1-1.9,3.54,11.25,11.25,0,0,1-5.57,3.73,3.51,3.51,0,0,1-1.32.19l5.77-5.5a29.58,29.58,0,0,0,4.76-5.44,18.24,18.24,0,0,0,2.51-9.31A7.3,7.3,0,0,0,163.7,130.66ZM99.5,163.35c-4.4-6.18-2.73-13.91-2.07-16.26l.35.79c0,.14.07.43.13.8a28.26,28.26,0,0,0,2,7.82A12.27,12.27,0,0,0,99.5,163.35Zm41.18,0a12.27,12.27,0,0,0-.41-6.85,28.26,28.26,0,0,0,2-7.82c.06-.37.1-.66.13-.8l.35-.79C143.41,149.44,145.07,157.17,140.68,163.35Z"/><path class="cls-3" d="M174.47,99.65l-.12-.19-.19.11-.23.12-.14.08,0,.16a19.63,19.63,0,0,1-.57,5.14,13.86,13.86,0,0,1-3.28,5.22,19,19,0,0,0-4.52,7.62c-1.18,4.07-1.86,9.42-.6,11.55l.29.48.15-.54,1.26-4.38c.66-2.28,2.63-3.74,4.71-5.27,2.41-1.78,4.91-3.63,5.87-7C178.49,108,175.88,101.77,174.47,99.65Z"/><path class="cls-3" d="M74.74,117.91a19,19,0,0,0-4.52-7.62,14,14,0,0,1-3.29-5.22,20,20,0,0,1-.56-5.14l0-.16-.14-.08L66,99.57l-.19-.11-.12.19c-1.41,2.12-4,8.38-2.65,13.13,1,3.34,3.45,5.19,5.87,7,2.08,1.53,4,3,4.71,5.27l1.26,4.38.15.54.29-.48C76.6,127.33,75.91,122,74.74,117.91Z"/><path class="cls-2" d="M176.66,112.65c-.92,3.18-3.35,5-5.69,6.71-2.16,1.59-4.19,3.09-4.89,5.52L165,128.63c-.68-2-.34-6.27.9-10.58a18.34,18.34,0,0,1,4.42-7.44,14.25,14.25,0,0,0,3.39-5.41,21.87,21.87,0,0,0,.6-4.9C175.71,102.65,177.91,108.31,176.66,112.65ZM74.1,124.88c-.7-2.43-2.73-3.93-4.89-5.52-2.34-1.73-4.77-3.53-5.69-6.71-1.25-4.34.95-10,2.35-12.35a21.87,21.87,0,0,0,.6,4.9,14.25,14.25,0,0,0,3.39,5.41,18.34,18.34,0,0,1,4.42,7.44c1.24,4.31,1.58,8.55.9,10.58Zm43.85,3c-1.4-.18-2.6.51-3.87,1.24s-2.75,1.59-4.49,1.36a4,4,0,0,1-3-3.37c-.17-1.31.26-3.74,4.76-5.85a4.38,4.38,0,0,0-1.62,2.3,3.14,3.14,0,0,0,.91,3c.85.65,2.24.64,4,0,2-.77,4.8.26,5.45,1.62l0,0-.3,0Zm-1.23,2.45a4.67,4.67,0,0,0-2.22,1.76,6.06,6.06,0,0,1-2.21,1.9,3.83,3.83,0,0,1-3.45-.21,3.5,3.5,0,0,1-1.51-2.35c.91,1.37,1.77,1.94,2.74,1.81a4.11,4.11,0,0,0,2.7-1.47,6,6,0,0,1,1.79-1.34,4.48,4.48,0,0,1,3-.31l-.05,0Zm45.31,12a28.61,28.61,0,0,1-4.69,5.35l-6,5.75-.16.16.15.18c.29.33.93.35,2.06,0a11.71,11.71,0,0,0,5.81-3.89,17.22,17.22,0,0,0,1.8-3.21c.29,2.19.17,6.71-1.93,9.4l-.17.21,0,0v0a12.83,12.83,0,0,1-2.36,2.91s-2.59,2.6-5.22,4.78c-.47.39-1,.81-1.47,1.26a43.17,43.17,0,0,1-8.71,6.2c-1.86.46-3.32.24-3.92-.57s-.34-2.21.75-4l.09-.08.09-.07-.29-.39a18.06,18.06,0,0,1-2,1.11c-1.48.73-2.88,1.41-3.58,2.83l-.91,1.82a14.64,14.64,0,0,1,1.71-5.86,11.17,11.17,0,0,1,3.44-3.95,8.64,8.64,0,0,0,2.65-2.91,12.82,12.82,0,0,0,.74-2.15l-.44-.19c-.09.14-.19.29-.29.42-1.65,2.11-3.12,1.87-4.83,1.61h0a12.65,12.65,0,0,0,1.67-2.13c1.7-2.79,1.76-5.57,1.82-8.27,0-2.33.1-4.53,1.28-6.46l2.24-3.68.33-.54-.61.19c-1.77.55-6,3.85-8.23,7.58a16.32,16.32,0,0,0-2.27,7.73,11.65,11.65,0,0,1-1.41,5.39c-.49.8-1.28,2-1.95,3-.29.35-.6.77-.91,1.23l-.12.12-.1.08v.11a35.58,35.58,0,0,0-2.21,4,7.58,7.58,0,0,0-.59,2.61v.07a8.25,8.25,0,0,0,1.51,3l1.07,1.37,1.07,1.37h0c.67.67,1.34,1.45,2,2.27a26.37,26.37,0,0,0,3.67,3.78,18.27,18.27,0,0,1-5.67-1.07c-.63-.19-1.28-.39-1.92-.56l-.79-.2.55.6a13.18,13.18,0,0,0,4.93,3.73,3.15,3.15,0,0,1,.6.38c-1.41.95-3.07.39-4.92-.38l-.14-.07-.08,0-.48-.24.14.51a16.94,16.94,0,0,0,2.09,5.11,1.56,1.56,0,0,0,0,.56l0,.14a15.14,15.14,0,0,1-4.83-3.93l-.44-.58v.73a28,28,0,0,1-.4,4.68,5.73,5.73,0,0,1-.69,1.24c-.17.25-.34.51-.49.77a31.12,31.12,0,0,1-1.19-7.38l0-.74-.4.62a14.83,14.83,0,0,1-5.29,4.67c0-.07,0-.14,0-.19a1.75,1.75,0,0,0,.05-.59,16.84,16.84,0,0,0,2.08-5.06l.13-.5-.46.22-.08,0-.06,0c-1.86.77-3.51,1.33-4.92.38a2.74,2.74,0,0,1,.59-.38,13.05,13.05,0,0,0,4.94-3.74l.55-.6-.79.21c-.65.17-1.31.36-2,.56a18.27,18.27,0,0,1-5.67,1.07,26.37,26.37,0,0,0,3.67-3.78c.7-.82,1.37-1.6,2-2.27h0l1.08-1.37,1.06-1.36a8.87,8.87,0,0,0,1.48-2.85v-.08a8.35,8.35,0,0,0-.61-2.78,35.58,35.58,0,0,0-2.21-4v-.1l-.1-.09-.12-.12c-.31-.45-.62-.88-.92-1.25-.66-1-1.45-2.2-1.94-3a11.65,11.65,0,0,1-1.41-5.39,16.32,16.32,0,0,0-2.27-7.73c-2.27-3.73-6.46-7-8.23-7.58l-.61-.19.33.54,2.24,3.68c1.18,1.93,1.23,4.13,1.28,6.46.06,2.7.12,5.48,1.82,8.27a12.65,12.65,0,0,0,1.67,2.13h0c-1.71.26-3.18.5-4.83-1.61-.1-.13-.2-.28-.29-.42l-.44.19a12.82,12.82,0,0,0,.74,2.15,8.64,8.64,0,0,0,2.65,2.91,11.17,11.17,0,0,1,3.44,3.95,14.64,14.64,0,0,1,1.71,5.86l-.91-1.82c-.7-1.42-2.1-2.1-3.58-2.83a18.06,18.06,0,0,1-2-1.11l-.29.39.09.08.09.07c1.09,1.79,1.35,3.18.75,4s-2.06,1-3.92.57a43.17,43.17,0,0,1-8.71-6.2q-.76-.68-1.47-1.26c-2.63-2.18-5.19-4.75-5.21-4.78a12.4,12.4,0,0,1-2.37-2.91v0l0,0a1.92,1.92,0,0,1-.18-.22c-2.1-2.69-2.22-7.21-1.93-9.4a16.84,16.84,0,0,0,1.8,3.2,11.69,11.69,0,0,0,5.79,3.9c1.15.31,1.79.29,2.08,0l.15-.18-.16-.16-6-5.74a28.68,28.68,0,0,1-4.7-5.36,18.06,18.06,0,0,1-2.43-9,5.88,5.88,0,0,1,.93-2.06,17.24,17.24,0,0,0,2.29,3,24,24,0,0,0,5.65,3.59,10.25,10.25,0,0,1,2.2,1.27,24.25,24.25,0,0,1,1.82,3l.25.48.19-.51c.67-1.87-.67-6-2.19-9a13.76,13.76,0,0,0-1.69-2.55,21.52,21.52,0,0,1-4.2-6,18,18,0,0,1-1.37-7.85c0-.91-.08-2.26-.17-3.82-.29-4.77-.7-11.76.76-15.21a6.14,6.14,0,0,0,.18.74,4.73,4.73,0,0,1,.23,1.2c.24,9.53,3.41,17.32,9.4,23.13a62.58,62.58,0,0,0,8.89,6.86c1.22.83,2.47,1.68,3.72,2.58a56.42,56.42,0,0,1,10.76,10.1l.36.46.36.48.58.75-.15-.93a11.09,11.09,0,0,1-.11-2.93v0h0a18.15,18.15,0,0,1,.94-5.92,12.78,12.78,0,0,1,1.59-2.62l.53-.74.16-.2.08-.1.21-.26h0l.11-.11a12,12,0,0,1,1.93-1.58l.3-.2h0l.23-.14a27.3,27.3,0,0,1,11.76-3.74,11.49,11.49,0,0,0-2.7,1.64c-1.31,1-2.91,3.44-2.8,4.58l0,.38.33-.2c.45-.28.85-.55,1.2-.78a7.08,7.08,0,0,1,5.75-1.52c-5.27,2.61-7.65,9.06-8.28,11.06a3.26,3.26,0,0,0-.1.42v.06c.06,1.13.09,2,.09,2.81v.71l.43-.56.22-.28.39-.51a56.42,56.42,0,0,1,10.76-10.1c1.25-.9,2.5-1.75,3.72-2.58a62.58,62.58,0,0,0,8.89-6.86c6-5.81,9.16-13.6,9.4-23.13a4.73,4.73,0,0,1,.23-1.2,6.14,6.14,0,0,0,.18-.74c1.46,3.45,1,10.44.76,15.21-.09,1.56-.18,2.91-.17,3.81a18.06,18.06,0,0,1-1.36,7.85,21.61,21.61,0,0,1-4.2,6,13.72,13.72,0,0,0-1.7,2.56c-1.52,3-2.86,7.13-2.19,9l.19.52.25-.49a24.25,24.25,0,0,1,1.82-3,10.25,10.25,0,0,1,2.2-1.27,23.7,23.7,0,0,0,5.65-3.59,17.24,17.24,0,0,0,2.29-3,5.88,5.88,0,0,1,.93,2.06A18.06,18.06,0,0,1,162,142.32Zm-63.78,5.43v-.05l-.63-1.39-.26-.56-.19.58c-.38,1.18-3.57,11.69,3.32,19l.37-.31a5.24,5.24,0,0,1-.52-.82c-1.16-2.34-.59-5.83.07-7.6l0-.1-.05-.09a27.81,27.81,0,0,1-2-7.77C98.33,148.2,98.28,147.91,98.25,147.75Zm44.59-2-.26.56L142,147.7v.05c0,.16-.08.45-.13.86a27.81,27.81,0,0,1-2,7.77l-.05.09,0,.1c.66,1.77,1.23,5.26.07,7.6a4.81,4.81,0,0,1-.52.82l.37.31c6.89-7.28,3.7-17.79,3.32-19Zm-23.53-13.4a3.39,3.39,0,0,0,2.93,0c1.14-.58.42-2.27.42-2.27Z"/><path class="cls-2" d="M183.54,54.13a7.58,7.58,0,0,1-7.14-6.54l-.13-.91-.91-.12-53.72-7.21a18.78,18.78,0,0,0-3,0L65,46.51l-.92.13-.12.91a7.61,7.61,0,0,1-7.47,6.6h-1.2V85.34a2.58,2.58,0,0,0,2.57,2.57h124.3a2.6,2.6,0,0,0,2.57-2.57V54.18Z"/><path class="cls-3" d="M182.28,85.34a.17.17,0,0,1-.16.16H57.82a.16.16,0,0,1-.11,0,.13.13,0,0,1-.05-.11V56.47a10.06,10.06,0,0,0,8.49-7.68l2.13-.29h41.59a10.73,10.73,0,0,1,20.52,0h41.32l2.47.33a10,10,0,0,0,8.1,7.58Z"/><path class="cls-2" d="M179.42,77.14a1.49,1.49,0,0,0-.41-.38v-.3l.1-10.66a1.54,1.54,0,0,0-.47-1.1,1.46,1.46,0,0,0-1.12-.41c-1,0-2.06.11-3.07.11s-2.21-.06-3.1-.11a1.49,1.49,0,0,0-1.52,1l-.25.76a1.48,1.48,0,0,0,.21,1.35h0l-.16.27-5.08,7.78c-.1.16-.33.52-.53.79.55-2.2,1.67-6.62,1.67-6.62.23-.88.37-1.34.43-1.53l0-.1a1.5,1.5,0,0,0,1.15-1l.25-.77a1.5,1.5,0,0,0-1.53-2c-.92.06-1.74.11-2.55.11s-1.65-.05-2.51-.11h-.11a1.49,1.49,0,0,0-1.36.69l-2.35,3.67,0-2.87a1.51,1.51,0,0,0-1.6-1.49h-.15c-.86,0-1.67.1-2.57.1s-1.67-.05-2.54-.11a1.56,1.56,0,0,0-1.58,1l-.25.76a1.48,1.48,0,0,0,.21,1.35,1.22,1.22,0,0,0,.15.17c-.05.13-.09.25-.15.39l-.18.47s-3,7.84-3,7.84l-.09.22-.16,0v-.08l.1-10.66a1.49,1.49,0,0,0-1.59-1.51c-1,0-2.06.11-3.07.11s-2.21-.06-3.09-.11a1.48,1.48,0,0,0-1.52,1l-.26.76a1.51,1.51,0,0,0,.21,1.35h0c-.06.09-.1.17-.17.27l-5.07,7.78c-.14.21-.52.79-.73,1a.45.45,0,0,0-.16,0l2.81-8.51A1.51,1.51,0,0,0,134,67l.25-.77a1.5,1.5,0,0,0-1.53-2c-.94.06-2,.11-2.92.11s-2-.05-2.92-.11a1.43,1.43,0,0,0-.79.17,1.4,1.4,0,0,0-.78-.17c-1,.06-1.9.11-3,.11s-1.94-.05-2.84-.11a1.48,1.48,0,0,0-1.53,1l-.25.76a1.48,1.48,0,0,0,.2,1.35,1.55,1.55,0,0,0,.21.23l-.58,1.74a6,6,0,0,0-1.09-3A6.21,6.21,0,0,0,111.2,64a11.2,11.2,0,0,0-6.88,2.69l.13-.39a1.5,1.5,0,0,0-.24-1.4,1.52,1.52,0,0,0-1.31-.57c-.67,0-1.43.11-2.15.11s-1.59-.05-2.42-.11a1.61,1.61,0,0,0-.87.19,1.46,1.46,0,0,0-.85-.19c-1,.08-1.89.11-3,.11s-1.94-.05-2.84-.11a1.48,1.48,0,0,0-1.53,1l-.25.76a1.48,1.48,0,0,0,.2,1.35,1.55,1.55,0,0,0,.21.23c-.15.44-.35,1-.58,1.74a6,6,0,0,0-1.09-3A6.21,6.21,0,0,0,82.53,64a10.91,10.91,0,0,0-6.18,2.15,1.29,1.29,0,0,0,.25-.46l.29-.87a1.51,1.51,0,0,0-.25-1.42,1.53,1.53,0,0,0-1.33-.55c-.58.06-1.34.12-2.06.12s-1.43,0-2.16-.12a1.49,1.49,0,0,0-1.24.47,1.46,1.46,0,0,0-1.18-.48c-1,.07-2,.13-3.18.13s-2.13,0-3.44-.13a1.51,1.51,0,0,0-1.53,1l-.28.86A1.48,1.48,0,0,0,60.45,66a1.53,1.53,0,0,0,.59.48c.08,1,.49,6.37.59,7.7l-.74,2.22h0a1.51,1.51,0,0,0-1.43,1l-.28.86a1.5,1.5,0,0,0,1.52,2c1.07-.07,2.09-.13,3.28-.13s2.3.06,3.35.13a1.51,1.51,0,0,0,1.53-1l.28-.85a1.47,1.47,0,0,0-.52-1.66c.19-.57.45-1.35.57-1.73l3.45-4.72A9.68,9.68,0,0,0,72,71.77a6.92,6.92,0,0,0,.66,6.38,6.19,6.19,0,0,0,5.22,2.46,11.32,11.32,0,0,0,7.31-3l-.22.67a1.5,1.5,0,0,0,.24,1.4,1.52,1.52,0,0,0,1.29.58c.94-.06,2-.12,2.92-.12s2,.06,2.92.12a1.52,1.52,0,0,0,1-.33,1.51,1.51,0,0,0,1,.33c.94-.06,1.82-.12,2.67-.12.69,0,1.37,0,2.13.12a1.52,1.52,0,0,0,1.56-1l.25-.77a1.43,1.43,0,0,0,0-.82,4.9,4.9,0,0,0,.31.48,6.19,6.19,0,0,0,5.22,2.46,11.32,11.32,0,0,0,7.31-3l-.22.67a1.5,1.5,0,0,0,.24,1.4,1.52,1.52,0,0,0,1.29.58c.94-.06,2-.12,2.92-.12s2,.06,2.92.12a1.53,1.53,0,0,0,.79-.17,1.49,1.49,0,0,0,.78.17c1-.06,1.9-.12,3-.12s1.94.06,2.84.12a1.52,1.52,0,0,0,.84-.2,1.44,1.44,0,0,0,.84.2h0c.72-.06,1.39-.12,2-.12a19.92,19.92,0,0,1,2,.11h.08a1.49,1.49,0,0,0,1.56-1l.25-.77a1.46,1.46,0,0,0-.21-1.35l-.06-.07c.09-.16.19-.32.29-.48h1.57a1.5,1.5,0,0,0-1,1l-.25.76a1.52,1.52,0,0,0,1.52,2c1-.06,2-.12,3-.12,1.2,0,2.25.06,3.17.12a1.58,1.58,0,0,0,.62-.1,1.36,1.36,0,0,0,.66.09c.6,0,1.28-.11,1.88-.11s1.35.06,2,.11a1.5,1.5,0,0,0,1.37-.65,1.49,1.49,0,0,0,1.24.66h2.45a1.52,1.52,0,0,0,1.19-.6h0a1.51,1.51,0,0,0,1.28.59h.11c1-.06,1.95-.11,2.88-.11s1.83.06,2.78.11a1.43,1.43,0,0,0,.65-.1,1.55,1.55,0,0,0,.68.11c.71-.06,1.39-.12,2-.12a20,20,0,0,1,2,.11H168a1.5,1.5,0,0,0,1.56-1l.25-.77a1.51,1.51,0,0,0-.21-1.35.46.46,0,0,0-.07-.07l.29-.48h1.58a1.48,1.48,0,0,0-1,1l-.25.76a1.5,1.5,0,0,0,1.51,2c1.05-.06,2-.12,3-.12,1.2,0,2.25.06,3.18.12a1.51,1.51,0,0,0,1.52-1l.25-.77A1.48,1.48,0,0,0,179.42,77.14Zm-71.49-1.85a8.27,8.27,0,0,1,.47-4c.37-1.12,1-1.94,1.45-2a7,7,0,0,1-.38,3.72C109.14,74,108.6,75.2,107.93,75.29Zm-28.67,0a8.27,8.27,0,0,1,.47-4c.37-1.12,1-1.94,1.45-2A7,7,0,0,1,80.8,73C80.47,74,79.93,75.2,79.26,75.29Z"/><path class="cls-1" d="M62,64.31c1,.06,2.26.13,3.54.13s2.28-.07,3.28-.13l-.28.85c-.51,0-.77.13-.89.49a5.93,5.93,0,0,0-.08,1.59l.12,3.89h0l2.54-3.71a6.49,6.49,0,0,0,.93-1.59c.18-.54,0-.67-.5-.67l.28-.85c.71.06,1.45.13,2.31.13s1.55-.07,2.21-.13l-.29.87c-.33,0-.7.07-1.32.9l-6,8.25L67,77c-.27.83.19,1,.74,1l-.28.85c-1-.07-2.13-.13-3.45-.13s-2.31.06-3.37.13l.28-.85a1.36,1.36,0,0,0,1.43-1l.85-2.56-.62-8.17c-.07-1-.18-1.07-.86-1.07Z"/><path class="cls-1" d="M82.53,65.47c3.8,0,5.76,3,4.43,7a10.18,10.18,0,0,1-9.08,6.66c-3.67,0-5.75-2.94-4.46-6.86A10.39,10.39,0,0,1,82.53,65.47ZM79.18,76.81c1.73,0,2.58-1.93,3-3.34.58-1.75,1.28-5.71-1-5.71-1.56,0-2.51,1.77-2.93,3C77.71,72.57,76.88,76.81,79.18,76.81Z"/><path class="cls-1" d="M91.1,67.4c.25-.77-.24-.85-.66-.85l.26-.76c.89.06,1.91.12,2.94.12s2.11,0,3.1-.12l-.26.76a1.1,1.1,0,0,0-1.21.85l-1.64,4.95h0c3.9-4.13,4.6-4.79,4.74-5.21s-.15-.59-.49-.59l.25-.76c.86.06,1.7.12,2.58.12s1.53-.06,2.27-.12l-.25.76a2,2,0,0,0-1.36.77l-3.72,3.74c.37,1.89.63,3.8.84,5.77.09.89.29,1.19,1,1.19l-.25.77c-.73-.06-1.49-.12-2.26-.12s-1.83.06-2.77.12a41.46,41.46,0,0,0-.66-6.32h0L92,77.18c-.25.76.2.84.66.84l-.25.77c-.94-.06-1.87-.12-3-.12s-2.08.06-3,.12l.25-.77a1.14,1.14,0,0,0,1.22-.84Z"/><path class="cls-1" d="M111.2,65.47c3.8,0,5.76,3,4.43,7a10.18,10.18,0,0,1-9.08,6.66c-3.67,0-5.75-2.94-4.46-6.86A10.39,10.39,0,0,1,111.2,65.47Zm-3.35,11.34c1.73,0,2.58-1.93,3.05-3.34.58-1.75,1.28-5.71-1-5.71-1.56,0-2.51,1.77-2.93,3C106.38,72.57,105.55,76.81,107.85,76.81Z"/><path class="cls-1" d="M115.32,78a1.14,1.14,0,0,0,1.22-.84l3.23-9.78c.25-.77-.24-.85-.66-.85l.26-.76c.89.06,1.91.12,2.94.12s2.12-.06,3.1-.12l-.26.76a1.1,1.1,0,0,0-1.21.85l-1.12,3.38h3.25l1.12-3.38c.25-.77-.2-.85-.66-.85l.25-.76c.94.06,1.87.12,3,.12s2.08-.06,3-.12l-.25.76a1.13,1.13,0,0,0-1.22.85l-3.23,9.78c-.25.76.23.84.65.84l-.25.77c-.9-.06-1.91-.12-2.94-.12s-2.12.06-3.1.12l.26-.77a1.1,1.1,0,0,0,1.21-.84l1.32-4H122l-1.32,4c-.25.76.2.84.66.84l-.25.77c-.94-.06-1.87-.12-3-.12s-2.08.06-3,.12Z"/><path class="cls-1" d="M130.23,78c.63,0,.89-.26,1.83-1.71l5.07-7.79a7.17,7.17,0,0,0,.78-1.42c.11-.33-.14-.55-.66-.55l.25-.76c1,.06,2.12.12,3.19.12s2.11-.06,3.16-.12l-.1,10.64c0,1,0,1.59.7,1.59l-.26.77c-1-.06-2.06-.12-3.26-.12s-2.07.06-3.08.12l.25-.77c.33,0,1-.1,1.09-.52a8.31,8.31,0,0,0,.21-2.42h-4.17a15.72,15.72,0,0,0-1.36,2.4c-.17.5.32.54.75.54l-.25.77c-.68-.06-1.33-.12-2.25-.12-.69,0-1.42.06-2.14.12Zm9.27-4.87.19-5.07h0l-3.19,5.07Z"/><path class="cls-1" d="M145.5,78c.38,0,1,0,1.41-1.19l3-7.84c.18-.47.37-.95.53-1.41.26-.79-.12-1-.54-1l.25-.76c.9.06,1.78.12,2.69.12s1.88-.06,2.81-.12l0,7.89h0l5-7.89c.92.06,1.8.12,2.72.12s1.76-.06,2.65-.12l-.25.76c-.44,0-.83,0-1.19,1.11-.1.3-.25.82-.46,1.63l-2,7.83c-.24.9.16.9.68.9l-.25.77c-1-.06-1.93-.12-2.93-.12s-2,.06-3.07.12l.25-.77a1.24,1.24,0,0,0,1.41-1c.21-.65.39-1.41.54-2L160.2,70h0l-5.87,8.82h-2.45l-.3-8.86h0l-2,5.42c-.18.5-.38,1-.55,1.48-.38,1.17.09,1.19.66,1.19l-.25.77c-.69-.06-1.4-.12-2.1-.12s-1.34.06-2,.12Z"/><path class="cls-1" d="M164,78c.64,0,.89-.26,1.83-1.71l5.08-7.79a8.43,8.43,0,0,0,.78-1.42c.1-.33-.15-.55-.66-.55l.25-.76c1,.06,2.12.12,3.19.12s2.1-.06,3.15-.12l-.1,10.64c0,1,0,1.59.7,1.59l-.25.77c-1-.06-2.06-.12-3.27-.12s-2.06.06-3.07.12l.25-.77c.32,0,.95-.1,1.09-.52a8.52,8.52,0,0,0,.2-2.42H169a16.11,16.11,0,0,0-1.37,2.4c-.16.5.32.54.76.54l-.25.77c-.69-.06-1.34-.12-2.26-.12-.68,0-1.41.06-2.14.12Zm9.28-4.87.18-5.07h0l-3.19,5.07Z"/><path class="cls-3" d="M126.74,62l-3.54-6,3.09-5.66.21-.39h0a4.26,4.26,0,0,0,.28-1,3.92,3.92,0,0,0-.83-3.06,3.85,3.85,0,0,0-2.42-1.38l-.35,0-1.79-.13-3.69-.26v0A4.49,4.49,0,0,0,113.31,48a5.19,5.19,0,0,0,.29,1.87l.07.18h0l3.34,5.64-3.33,6.12-.29.53.59-.11,3.17-.6,2.32.73.23.07.11-.21.51-.93.55.93.13.21.22-.08,2.34-.9,2.79,1,.76.28ZM114.12,49.6v0a4.85,4.85,0,0,1-.23-1.52,3.9,3.9,0,0,1,3.85-3.36A3.26,3.26,0,0,1,120,45.89h0a4.51,4.51,0,0,0-1.21,2.47,3.36,3.36,0,0,0,.07,1.49l.06.2H119l.59,1-2.2,4Zm6.2-3.2a3.45,3.45,0,0,1,.37,2.11,3.53,3.53,0,0,1-.35,1.13l0,.09-.4.74-.5-.84v0a3,3,0,0,1,0-1.15A3.85,3.85,0,0,1,120.32,46.4Zm-.86,15.32L117.29,61l-.07,0-.07,0-2.64.49,6.19-11.36h0a1.4,1.4,0,0,0,.1-.16,4.52,4.52,0,0,0,.45-1.42,4,4,0,0,0-.83-3.07,4.18,4.18,0,0,0-.76-.7l3.42.25a3.26,3.26,0,0,1,2.36,1.21,3.34,3.34,0,0,1,.71,2.62,3.4,3.4,0,0,1-.39,1.23l-.09.18Zm4.24-.87-.1,0-.1,0-2.21.85-.61-1,2.2-4,3,5Z"/><path class="cls-2" d="M119.57,51.05l-.59-1h-.07l-.06-.2a3.36,3.36,0,0,1-.07-1.49A4.51,4.51,0,0,1,120,45.9h0a3.26,3.26,0,0,0-2.25-1.19,3.9,3.9,0,0,0-3.85,3.36,4.85,4.85,0,0,0,.23,1.52v0l3.25,5.49Z"/><polygon class="cls-2" points="120.68 60.68 121.28 61.7 123.5 60.85 123.6 60.81 123.7 60.85 125.83 61.64 122.88 56.65 120.68 60.68"/><path class="cls-2" d="M125.45,46.28a3.26,3.26,0,0,0-2.36-1.21l-3.42-.25a4.18,4.18,0,0,1,.76.7,4,4,0,0,1,.83,3.07,4.52,4.52,0,0,1-.45,1.42,1.4,1.4,0,0,1-.1.16h0l-6.19,11.36,2.64-.49.07,0,.07,0,2.17.68,6.22-11.41.09-.18a3.4,3.4,0,0,0,.39-1.23A3.34,3.34,0,0,0,125.45,46.28ZM119.9,57.22a.94.94,0,1,1,.94-.94A.94.94,0,0,1,119.9,57.22Z"/><path class="cls-1" d="M119.9,57.22a.94.94,0,1,0-.94-.94A.94.94,0,0,0,119.9,57.22Z"/><path class="cls-3" d="M120.1,120.41a20,20,0,1,0-14.17-5.87A19.95,19.95,0,0,0,120.1,120.41Z"/><path class="cls-4" d="M102.34,100.36a17.75,17.75,0,1,1,5.2,12.57A17.64,17.64,0,0,1,102.34,100.36Z"/><path class="cls-3" d="M115.86,95.25l-.54,1.85H120l-.93,3.13H114.4l-1.56,5.21H107l2.74-9.66h3.1l.22-.84h-3a2.89,2.89,0,0,1-2.27-1.18A4.77,4.77,0,0,1,107,92h14.26v3.22Z"/><path class="cls-3" d="M130.62,100.05a5.85,5.85,0,0,1,3.34.72V97.31a11.18,11.18,0,0,0-4.08-.5,19.68,19.68,0,0,0-2.15.2s-7.16,0-7.16,0a4.71,4.71,0,0,0,.77,1.72,2.93,2.93,0,0,0,2.27,1.19h1v0h0l-.3.9h-3.19a7,7,0,0,0-1,2.21,8,8,0,0,0-.29,2c0,3.43,2.64,5.17,6,5.51a12.46,12.46,0,0,0,4.68-.46l2.5-3.63a7.41,7.41,0,0,1-4.86.61,2.6,2.6,0,0,1-2.29-2.61,3.61,3.61,0,0,1,.13-.88A4.73,4.73,0,0,1,130.62,100.05Z"/></svg>