<?xml version="1.0" encoding="utf-8"?>
<!-- Generator: Adobe Illustrator 26.1.0, SVG Export Plug-In . SVG Version: 6.00 Build 0)  -->
<svg version="1.1" id="Layer_2_1_" xmlns="http://www.w3.org/2000/svg" xmlns:xlink="http://www.w3.org/1999/xlink" x="0px" y="0px"
	 viewBox="0 0 400 400" style="enable-background:new 0 0 400 400;" xml:space="preserve">
<style type="text/css">
	.st0{fill:#B4975A;}
	.st1{fill:#061922;}
	.st2{fill:#CE1141;}
	.st3{fill:#FFFFFF;}
</style>
<g>
	<g>
		<path class="st0" d="M297.2,193.7c-0.5-0.6-49.6-58.3-86.8-161.7l-10-27.7l-9.6,27.8c-0.3,1-35.2,100.9-87,161.6l-5.8,6.8l5.8,6.7
			c0.5,0.6,49.6,58.3,86.8,161.7l9.9,27.7l9.6-27.8c0.3-1,35.2-100.9,87-161.6l5.8-6.8L297.2,193.7z"/>
		<path class="st1" d="M206.2,33.5l-5.7-15.8L195,33.6c-0.3,1-35.4,101.7-87.8,163l-3.3,3.9l3.3,3.9c0.5,0.6,50.1,58.8,87.7,163.1
			l5.7,15.8l5.5-15.9c0.3-1,35.4-101.7,87.8-163l3.3-3.9l-3.3-3.9C293.3,196,243.7,137.8,206.2,33.5z"/>
	</g>
	<path class="st2" d="M228.2,235.7c-7-11.1-13.7-20.8-20.5-30.1h-26c0,0,16.1,18.7,34.6,50.4c3.9,6.7,7.9,13.9,11.9,21.7
		c4-7.8,8-15.1,11.9-21.8c18.5-31.7,34.6-50.3,34.6-50.3h-26C241.8,215.2,235.1,224.7,228.2,235.7"/>
	<path class="st2" d="M200.8,286.8c-17.9-37.6-33.1-60.2-48.3-81.3h-26c0,0,48.8,56.6,74.2,139.9c6.6-21.6,13.8-39,22.3-56.5
		c-3.9-8-7.8-15.6-11.8-22.6C207.6,273.2,204.7,278.4,200.8,286.8"/>
	<path class="st0" d="M186.6,168.7c7.3,2.8,12,9,13.7,22.6c1.7-13.6,6.4-19.8,13.7-22.6c-7.3-2.8-12-9-13.7-22.6
		C198.7,159.7,193.9,165.9,186.6,168.7"/>
	<path class="st3" d="M200.6,113.8c17.9,37.6,33.1,60.2,48.3,81.3h26c0,0-48.8-56.6-74.2-139.9c-25.4,83.3-74.2,139.9-74.2,139.9h26
		C168.2,173.5,182.2,153.1,200.6,113.8"/>
</g>
</svg>
