<?xml version="1.0" encoding="utf-8"?>
<!-- Generator: Adobe Illustrator 26.1.0, SVG Export Plug-In . SVG Version: 6.00 Build 0)  -->
<svg version="1.1" id="Layer_2_1_" xmlns="http://www.w3.org/2000/svg" xmlns:xlink="http://www.w3.org/1999/xlink" x="0px" y="0px"
	 viewBox="0 0 400 400" style="enable-background:new 0 0 400 400;" xml:space="preserve">
<style type="text/css">
	.st0{fill:#86CEBC;}
	.st1{fill:#FFFFFF;}
</style>
<g>
	<g>
		<path d="M320.1,216.9h-3.5H313c4.6-9.4,9-19.3,13.2-29.7c0,0-20.7-12.2-59.3-20l6.2-20.4l-4.6,3.7c0.9-4.4,1.4-9,1.4-13.8
			c0-23.2-11.5-44.8-30.7-57.7c-3.5-2.3-7.2-4.4-11-6.1l-2-1c-29.9-11.3-31.8-33.3-31.8-33.3s-7.3,13.6-3.7,25.7
			c0.9,3.1,2.3,6.3,4.1,9.3c-8.3-4.1-20.8-8.7-35-11.2C128.6,57,129.8,27,129.8,27s-28.6,37.7,2.8,68.8
			c-15.8-9.6-24.4-25.5-24.4-25.5s-5.3,28.6,8.4,45.5c2.6,3.2,4.8,6.7,7.4,10c4.3,5.6,8.2,19.6,8.1,24.9l-5-3.9l6.1,20.2l0.1,0.3
			c-38.4,7.8-59,19.9-59,19.9c4.2,10.4,8.6,20.2,13.2,29.7H84h-3.5H65.1v63.1h51.1h3.9h3.8c4.6,6.7,9.1,13,13.5,18.9
			c0.9,1.2,1.9,2.5,2.8,3.7c1.3,1.7,2.6,3.4,3.9,5.1c0.8,1,1.6,2,2.4,3c1.4,1.7,2.8,3.4,4.1,5.1c0.7,0.9,1.5,1.8,2.2,2.6
			c1.2,1.4,2.3,2.8,3.5,4.1c0.9,1.1,1.8,2.1,2.7,3.1c0.9,1.1,1.9,2.1,2.8,3.2c0.6,0.6,1.1,1.2,1.7,1.9c1.4,1.6,2.8,3.1,4.2,4.6
			c0.5,0.5,1,1,1.4,1.5c1.4,1.5,2.8,2.9,4.1,4.3c0.4,0.4,0.9,0.9,1.3,1.3c1.3,1.4,2.6,2.6,3.9,3.9c0.4,0.4,0.8,0.8,1.2,1.2
			c1.2,1.2,2.4,2.3,3.5,3.4c0.4,0.4,0.7,0.7,1.1,1.1c0.7,0.6,1.3,1.3,2,1.9c0.4,0.4,0.8,0.8,1.2,1.1c0.9,0.8,1.8,1.6,2.6,2.4
			c0.4,0.3,0.8,0.7,1.1,1c0.7,0.7,1.4,1.3,2.1,1.9c0.4,0.3,0.7,0.6,1,0.9c0.6,0.5,1.1,0.9,1.6,1.3c0.3,0.3,0.7,0.6,1,0.8
			c0.3,0.2,0.6,0.5,0.8,0.7c0.4,0.3,0.7,0.6,1,0.8c0.2,0.2,0.4,0.3,0.6,0.5c0.1,0.1,0.3,0.2,0.4,0.3c0.4,0.3,0.7,0.5,0.7,0.5
			s0.3-0.2,0.9-0.7c0,0,0.1,0,0.1-0.1c0.2-0.1,0.4-0.3,0.6-0.4c0.3-0.3,0.7-0.6,1.1-0.9c0.2-0.1,0.3-0.3,0.5-0.4
			c0.5-0.4,1.1-0.9,1.7-1.4c0.1-0.1,0.2-0.1,0.3-0.2c0.7-0.6,1.5-1.3,2.3-2c0.1-0.1,0.2-0.2,0.3-0.3c0.9-0.8,1.8-1.6,2.8-2.5
			c0.1-0.1,0.3-0.2,0.4-0.4c1.1-1,2.2-2,3.3-3.1c0.1-0.1,0.2-0.2,0.2-0.2c2.5-2.3,5.3-5,8.3-8c0,0,0.1-0.1,0.1-0.1
			c1.5-1.5,3-3,4.6-4.6c0.1-0.1,0.2-0.3,0.4-0.4c1.6-1.6,3.2-3.3,4.8-5.1c0.1-0.1,0.2-0.2,0.3-0.3c3.4-3.6,7-7.6,10.7-11.9
			c0.1-0.1,0.2-0.3,0.4-0.4c1.8-2.1,3.6-4.2,5.4-6.4c0.2-0.3,0.5-0.6,0.7-0.9c1.8-2.2,3.6-4.4,5.5-6.7c0.2-0.3,0.5-0.6,0.7-0.9
			c1.9-2.4,3.8-4.9,5.7-7.4c4.7-6.3,9.6-13,14.4-20.1h3.8h3.9h51.6v-63.1H320.1z"/>
		<g>
			<g>
				<path class="st0" d="M228.8,150.7c-1.1,8.9-6.9,17.8-17,26.2l7.1,7.1l16.1-20c1.1-4.7,1.9-9.7,2.2-15.2
					C234.5,149.4,231.7,150.1,228.8,150.7z"/>
				<path class="st0" d="M247.9,144.3c-2,1-4.2,2-6.5,2.9c-0.2,7.3-1.3,13.9-2.8,19.8l3.7,3.8l14.2-11.1
					C251.4,155.6,248.9,150.2,247.9,144.3z"/>
			</g>
			<polygon class="st1" points="138.9,227.2 138.9,233.2 134.7,233.2 134.7,263.2 138.9,263.2 138.9,269.2 124.1,269.2 102.7,250.1 
				102.9,269.2 84.4,269.2 84.4,263.2 88.5,263.2 88.5,233.2 84.4,233.2 84.4,227.2 99.2,227.2 120.5,245.4 120.5,227.2 			"/>
			<polygon class="st1" points="316.5,227.2 312.3,227.2 312.3,227.2 298.1,227.2 298.1,242 280.5,245.6 280.5,227.2 266.4,227.2 
				266.4,227.2 262,227.2 262,233.2 266.4,233.2 266.4,255.4 298.1,248.7 298.1,263.2 266.4,263.2 266.4,269.2 312.3,269.2 
				312.3,269.2 312.3,263.2 312.3,233.2 316.5,233.2 			"/>
			<polygon class="st1" points="257.7,177.4 250.5,187.2 241.6,178.3 235.7,172.2 235.6,172.3 235.6,172.3 235.6,172.3 219.3,192.5 
				200.1,173.8 199.9,213.4 214.3,195.6 219.8,201.2 234.8,182.5 232.8,208.1 247.4,192.3 251.8,196.7 			"/>
			<polygon class="st0" points="180.9,192.5 164.5,172.2 149.8,187.3 142.5,177.4 148.3,196.7 164.1,180.9 164.1,180.9 168.7,210.2 
				175.9,195.6 180.4,201.2 200.1,181.6 200.1,173.8 			"/>
			<path class="st0" d="M189.2,242.6c-0.8,0-1.4-0.1-2.1-0.1c-12.6-1.1-26.6-7.3-26.6-7.3c7.6,7,15.7,9,19.4,9.6
				c-0.6,2.6-1,5.9,0.9,6.7c4.9,2,16.7-0.4,17.3-4.5C198.8,241.8,193.8,242.9,189.2,242.6z"/>
			<path class="st0" d="M194.4,260.1c-1.7,0.3-3.4,0.4-4.8,0.4c-12.7-1.2-26.7-7.6-26.7-7.6c7.9,7.5,16.4,9.4,19.8,10
				c-0.9,2.9-1.7,4.2,2,4.5c10,1,15.9-5,15.8-6.9C200.3,258.6,200.4,259.2,194.4,260.1z"/>
			<path class="st0" d="M193.2,275.1c-1.1,0.2-2.2,0.4-3.2,0.5l0,0c-12.8-1.1-27.2-7.7-27.2-7.7c8.1,7.6,16.8,9.5,20.1,10
				c-0.7,2.8-1.4,4,1.9,4.1c9,0.4,14-5.1,13.8-6.8C198.4,273.5,198.5,274.1,193.2,275.1z"/>
			<path class="st0" d="M193.3,288.5c-1,0.2-2,0.3-3,0.4c-10.1-0.9-21.2-6-21.2-6c5.5,5.2,11.4,7.1,14.6,7.7c-0.7,3-1.7,4.3,1.7,4.4
				c8.5,0.4,13.2-4.8,13-6.4C198.2,287,198.3,287.5,193.3,288.5z"/>
			<g>
				<path class="st0" d="M191.3,298.5l0.8,7c0,0,2,3.5,8,3.5l0.4-15.5C196.5,297.4,192.7,298.3,191.3,298.5z"/>
				<path class="st0" d="M200.1,309L200.1,309C200.1,309,200.1,309,200.1,309C200.1,309,200.1,309,200.1,309L200.1,309
					C200.1,309,200.1,309,200.1,309C200.1,309,200.1,309,200.1,309z"/>
			</g>
		</g>
		<path class="st1" d="M200.1,309l0.4-15.5c0,0,7-5.7-0.6-11.1c0,0,9.1-6.9,1-12c0,0,10.6-6.8,4.4-14.9c0,0,4.3,4.8,8,5.7l-5.1,44.3
			C208.2,305.5,205.7,309.4,200.1,309"/>
		<g>
			<path class="st0" d="M200,314.6C200,314.6,200,314.6,200,314.6C200,314.6,200,314.6,200,314.6c-5.1,0-7.4-1.2-9.5-4.5
				c-0.7,0.8-1.1,1.7-1.1,2.7c0,3.4,4.7,6.2,10.6,6.2c0,0,0,0,0,0C203.5,316.7,200,314.6,200,314.6z"/>
		</g>
		<path class="st1" d="M210.6,312.7c0-1-0.4-1.9-1.1-2.7c-2.3,3.3-4.4,4.5-9.5,4.5c0,0,0,0,0,0c0,0,3.4,2.1,0,4.4c0.3,0,0.5,0,0.7,0
			c0.8-0.1,2.1-0.2,3.6-0.5C208.1,317.4,210.6,315.2,210.6,312.7z"/>
		<g>
			<path class="st1" d="M228.6,321.5c10-11.1,21.4-25,33.1-41.6H254c-9.1,12.7-18,23.6-26.1,32.9L228.6,321.5z"/>
			<path class="st1" d="M172.2,312.2c-7.9-9.1-16.6-19.9-25.5-32.3h-7.7c11.6,16.4,22.8,30,32.7,41.1L172.2,312.2z"/>
		</g>
		<g>
			<path class="st1" d="M307.5,191.8c-7.7-3.1-22.8-8.6-44.2-12.8l-1.8,6.1c18.6,3.6,32.5,8.2,40.7,11.3c-3.2,7.1-6.5,13.8-9.8,20.4
				h7c3.4-6.7,6.7-13.6,9.9-20.9l1.3-3L307.5,191.8z"/>
			<path class="st1" d="M138.8,185.2l-1.8-6.1c-21.2,4.2-36.3,9.6-43.9,12.7l-3,1.2l1.3,3c3.2,7.2,6.5,14.1,9.9,20.9h7
				c-3.4-6.6-6.7-13.4-9.8-20.4C106.6,193.3,120.3,188.8,138.8,185.2z"/>
		</g>
		<g>
			<path class="st0" d="M200,223.9C200,223.9,200,223.9,200,223.9c-23.5,0-43.3-6.9-49.1-16.3c-2.1-0.5-5.9-0.7-7.2,3.3
				c-0.1,0.6-0.3,1.1-0.3,1.7c0,12.1,25.3,22,56.5,22h0h0C207.5,228.5,200.1,223.9,200,223.9z"/>
			<path class="st1" d="M256.6,212.6c0-0.5-0.1-1-0.2-1.5c-1.1-4.2-5-4-7.2-3.5c-5.8,9.4-25.6,16.3-49.1,16.3c0,0,7.4,4.6,0,10.7h0
				C231.3,234.6,256.6,224.8,256.6,212.6z"/>
		</g>
		<path class="st0" d="M335.9,210.5H323c3.1-6.7,6.2-13.6,9.1-20.9l2.1-5.1l-4.8-2.8c-1.3-0.7-22.3-12.8-60.7-20.6l-1.9,6.2
			c38.6,7.8,59.3,20,59.3,20c-4.2,10.4-8.6,20.2-13.2,29.7h3.5h3.5h15.9v63.1h-51.6h-3.9h-3.8c-4.9,7.2-9.7,13.9-14.4,20.1
			c-1.9,2.6-3.9,5-5.7,7.4c-0.2,0.3-0.5,0.6-0.7,0.9c-1.8,2.3-3.7,4.6-5.5,6.7c-0.2,0.3-0.5,0.6-0.7,0.9c-1.8,2.2-3.6,4.3-5.4,6.4
			c-0.1,0.1-0.2,0.3-0.4,0.4c-3.7,4.3-7.3,8.3-10.7,11.9c-0.1,0.1-0.2,0.2-0.3,0.3c-1.7,1.8-3.3,3.5-4.8,5.1
			c-0.1,0.1-0.2,0.3-0.4,0.4c-1.4,1.5-2.8,2.9-4.2,4.2c-1-14.6-3.9-57.1-3.6-57.3c10.4-7,15.6-27.2,15.9-28c0.9-2,2.7-9.4,2.8-12.9
			c0-0.4,0-0.8-0.1-1.1l0-0.1l-0.1-0.1c0,0-1.5-1.7-3.2-3.3c-1.8-1.6-3.8-3.3-5.2-3.4c-0.1,0-0.3,0-0.4,0.1
			c-5.5,1.7-11.1,2.4-11.1,2.4l0,0l0,0c-1.5,0.5-3.1,0.6-4.5,0.6c-1.2,0-2.4-0.1-3.4-0.1c-1,0-1.8,0.1-2.4,0.4
			c-0.7,0.4-1,1.1-1.1,2.1c0,0,0,0.1,0,0.1c0,2.5,3.5,7.4,8.1,9.3c1.6,0.7,3.3,0.9,4.9,0.9c3.8,0,7.1-1.3,8.7-2
			c-2,3.6-4.9,7.3-7.3,10.1c-1.3,1.5-2.4,2.8-3.3,3.7l-5.5,38.7c0.6,0.6,1.2,1.4,1.7,2.4c1.2,1.7,1.8,3.6,1.8,5.6
			c0,4.3-2.9,7.9-7.3,10l0,0.6c-0.1,2.8-0.5,8.9-0.9,13.3c1.2,1.7,2,3.7,2,5.9c0,5.4-4.3,9.8-9.7,9.9v13.4c-0.1,0.1-0.2,0.2-0.2,0.2
			s-0.2-0.2-0.7-0.5c-0.1-0.1-0.2-0.2-0.4-0.3c-0.2-0.1-0.4-0.3-0.6-0.5c-0.3-0.2-0.7-0.5-1-0.8c-0.2-0.2-0.5-0.4-0.8-0.7
			c-0.3-0.3-0.6-0.5-1-0.8c-0.5-0.4-1-0.8-1.6-1.3c-0.3-0.3-0.7-0.6-1-0.9c-0.7-0.6-1.4-1.2-2.1-1.9c-0.4-0.3-0.7-0.7-1.1-1
			c-0.8-0.7-1.7-1.5-2.6-2.4c-0.4-0.4-0.8-0.7-1.2-1.1c-0.6-0.6-1.3-1.2-2-1.9c-0.4-0.3-0.7-0.7-1.1-1.1c-1.1-1.1-2.3-2.2-3.5-3.4
			c-0.4-0.4-0.8-0.8-1.2-1.2c-1.2-1.2-2.5-2.5-3.9-3.9c-0.4-0.4-0.9-0.9-1.3-1.3c-1.3-1.4-2.7-2.8-4.1-4.3c-0.5-0.5-1-1-1.4-1.5
			c-1.4-1.5-2.8-3-4.2-4.6c-0.6-0.6-1.1-1.2-1.7-1.9c-0.9-1-1.9-2.1-2.8-3.2c-0.9-1-1.8-2.1-2.7-3.1c-1.2-1.3-2.3-2.7-3.5-4.1
			c-0.7-0.9-1.5-1.7-2.2-2.6c-1.4-1.7-2.7-3.3-4.1-5.1c-0.8-1-1.6-2-2.4-3c-1.3-1.6-2.6-3.3-3.9-5.1c-0.9-1.2-1.9-2.4-2.8-3.7
			c-4.5-5.9-9-12.2-13.5-18.9h-3.8h-3.9H65.1v-63.1h15.4H84h3.5c-4.6-9.4-9-19.3-13.2-29.7c0,0,20.6-12.1,59-19.9l-1.9-6.2
			c-38.2,7.8-59.1,19.8-60.3,20.6l-4.8,2.8l2.1,5.1c2.9,7.2,6,14.1,9.1,20.9H65.1h-6.4v6.4v63.1v6.4h6.4h55.5
			c10.9,15.8,21.2,29,30.2,39.4c25.5,29.8,44.8,44.6,45.6,45.2l3.9,2.9l3.9-2.9c0.8-0.6,20.1-15.4,45.7-45.2
			c9-10.5,19.4-23.7,30.2-39.4h55.9h6.4v-6.4v-63.1v-6.4H335.9z"/>
		<path class="st0" d="M224.7,146.9c0-1.1-0.2-2.3-0.4-3.4c-2.5-13.1-13-15.9-33-20.3c-2.1-0.5-4.3-0.9-6.6-1.5
			c-1.3-0.3-2.8-0.7-4.3-1.1c-31.5-6.9-57.8-21.6-67.6-35.4c0,0-2.6,18.6,16.4,35.8C163.3,148.7,202.2,150.3,224.7,146.9z"/>
		<path class="st0" d="M192.3,119.1c19.2,4.2,33.1,7.2,36.3,23.6c0.2,1.2,0.3,2.3,0.4,3.5c3.2-0.6,6-1.3,8.3-2.1
			c0-3.8-0.2-7.8-0.7-11.9c-3.4-28.6-27.6-45.7-43.8-54.1c-8.2-4-20.1-8.6-33.6-10.2c-16.7-2-29.9-13.5-31.5-25.2c0,0-0.5,1-1.1,2.6
			c-5.6,14.6-2.4,31.1,8,42.8c13.8,15.5,36.7,26.2,51.3,29.5C188,118.2,190.2,118.7,192.3,119.1z"/>
		<path class="st0" d="M236.4,83.1c-3.2-2.2-6.7-4.1-10.3-5.7c-11.9-5.8-25.2-11.5-31.2-25.1c0,0-4.6,13.8,14.6,31.1
			c18.3,13.1,29.1,29.8,31.3,48.4c0.4,3.8,0.7,7.4,0.7,10.9c2.2-0.9,4.2-1.8,6-2.9c-0.3-7.8,1.5-16,3-23.1c0.6-2.6,1.1-5.1,1.5-7.4
			c1.1-6.1-1.2-11.8-4.1-16.2C244.5,89.3,240.6,85.9,236.4,83.1z"/>
		<path class="st0" d="M256.2,110c-0.4,2.3-1,4.9-1.5,7.5c-1.4,6.2-2.8,13.1-2.9,19.6c6.2-4.2,10-8.6,12.2-11.7
			c-1.3-7.4-3.9-14.4-7.5-20.7C256.5,106.4,256.5,108.2,256.2,110z"/>
		<path class="st0" d="M264.7,131.4c-3,3.4-7.1,7.2-12.7,10.7c0.7,5.8,3,11.1,8.1,15l2.1-1.6c1.8-5.9,2.8-12.2,2.8-18.7
			C264.9,134.9,264.8,133.2,264.7,131.4z"/>
		<path class="st0" d="M164.9,163.5l16.4,20.4l18.7-18.7v-0.1l0,0l0,0v0.1l8.6,8.6c7.3-6,14-13.6,15.6-22.4
			c-5.2,0.8-10.9,1.2-17,1.2c-22.2,0-48.8-5.9-73-22.4l-3.1-2c0,0,5.8,8.9,7,27.4l19.4,15.2L164.9,163.5z"/>
	</g>
	<path class="st0" d="M202,340l1.1-15.7c-1,0.1-2,0.2-3,0.2c-1,0-2-0.1-2.9-0.2l1.1,15.7c-0.8,0.6-1.3,1.4-1.3,2.5
		c0,1.7,1.4,3.1,3.1,3.1c1.7,0,3.1-1.4,3.1-3.1C203.3,341.4,202.7,340.6,202,340z"/>
</g>
</svg>
