<svg width="87" height="61" viewBox="0 0 87 61" fill="none" xmlns="http://www.w3.org/2000/svg">
<path d="M22.9488 17.0339C34.2991 5.92101 52.7014 5.92101 64.0518 17.0339L65.4177 18.3713C65.9852 18.927 65.9852 19.8278 65.4177 20.3835L60.7449 24.9586C60.461 25.2365 60.001 25.2365 59.7172 24.9586L57.8375 23.1182C49.9192 15.3655 37.0812 15.3655 29.163 23.1182L27.1498 25.0891C26.8662 25.367 26.4062 25.367 26.1223 25.0891L21.4495 20.514C20.8818 19.9583 20.8818 19.0575 21.4495 18.5018L22.9488 17.0339ZM73.7157 26.4958L77.8746 30.5676C78.4421 31.1233 78.4421 32.0241 77.8746 32.5798L59.122 50.9406C58.5545 51.4962 57.6343 51.4962 57.0668 50.9406L43.7572 37.9095C43.6153 37.7705 43.3853 37.7705 43.2434 37.9095L29.9342 50.9406C29.3667 51.4962 28.4465 51.4962 27.879 50.9406L9.12583 32.5796C8.55832 32.0239 8.55832 31.1231 9.12583 30.5674L13.2847 26.4954C13.8522 25.9399 14.7724 25.9399 15.3399 26.4954L28.6497 39.5268C28.7914 39.6658 29.0214 39.6658 29.1633 39.5268L42.4723 26.4954C43.0398 25.9399 43.96 25.9399 44.5275 26.4954L57.8373 39.5268C57.9792 39.6658 58.2092 39.6658 58.3511 39.5268L71.6605 26.4958C72.2282 25.9401 73.1482 25.9401 73.7157 26.4958Z" fill="#3396FF"/>
</svg>
