<svg viewBox="0 0 498 30" fill="none" xmlns="http://www.w3.org/2000/svg">
<path d="M19 6.1155C18.5122 5.27903 17.7052 4.58359 16.6444 4C15.5528 4.40927 14.6339 5.06412 14 5.8845C14.5685 6.72683 15.3752 7.45125 16.3556 8C17.3849 7.51872 18.2839 6.87806 19 6.1155Z" fill="#A91D42"/>
<path d="M51 1C49.4372 1.9471 48.0822 3.13292 47 4.50062C48.0935 5.8597 49.4467 7.04352 51 8C52.5316 7.02106 53.8809 5.84064 55 4.50062C54.0503 3.04043 52.6685 1.83118 51 1Z" fill="#07B1A1"/>
<path d="M41.0513 12C41.2143 10.994 41.1539 9.96507 40.8744 8.98428C40.5949 8.00349 40.1029 7.09417 39.4324 6.31906C38.7618 5.54395 37.9287 4.92151 36.9905 4.4947C36.0524 4.06788 35.0314 3.84684 33.9982 3.84684C32.965 3.84684 31.944 4.06788 31.0058 4.4947C30.0676 4.92151 29.2345 5.54395 28.564 6.31906C27.8935 7.09417 27.4015 8.00349 27.122 8.98428C26.8425 9.96507 26.7821 10.994 26.9451 12H23.0576C23.0195 11.629 23.0003 11.2563 23.0001 10.8834C22.9949 9.40881 23.2948 7.94872 23.8813 6.59231C24.4678 5.23589 25.3287 4.01165 26.4113 2.99438C27.4939 1.97711 28.7755 1.18819 30.1778 0.67582C31.5801 0.163454 33.0736 -0.0615959 34.5671 0.0144243C36.0606 0.0904455 37.5227 0.465941 38.864 1.11796C40.2054 1.76998 41.3978 2.68484 42.3684 3.80662C43.339 4.9284 44.0674 6.23354 44.5092 7.64229C44.9509 9.05105 45.0967 10.5338 44.9376 12H41.0513Z" fill="#A91D42"/>
<path d="M53.5731 25V15.6502H14.4269V25H10V12H58V25H53.5731Z" fill="#A91D42"/>
<path d="M20 18H19V27.4227L19.4798 28C19.6544 27.808 19.8272 27.6147 20 27.4227V18Z" fill="#14B6A7"/>
<path d="M24 17H23V27.3647C23.1615 27.576 23.3211 27.7887 23.4807 28C23.6532 27.7887 23.8257 27.576 24 27.3647V17Z" fill="#14B6A7"/>
<path d="M28 18H27V29.3072C27.1618 29.5381 27.3223 29.7691 27.4816 30L28 29.3072V18Z" fill="#14B6A7"/>
<path d="M5 26.6453C4.51134 25.5989 3.70357 24.7296 2.64398 24C1.55195 24.5112 0.632982 25.3305 0 26.3572C0.568458 27.4096 1.37481 28.3146 2.35477 29C3.38393 28.3985 4.28313 27.598 5 26.6453Z" fill="#A91D42"/>
<path d="M77 5.8845C77.4878 6.72097 78.2948 7.41641 79.3556 8C80.4472 7.59073 81.3661 6.93588 82 6.1155C81.4315 5.27317 80.6248 4.54875 79.6444 4C78.6151 4.48128 77.7161 5.12194 77 5.8845Z" fill="#A91D42"/>
<path d="M114 8C115.563 7.0529 116.918 5.86708 118 4.49938C116.907 3.1403 115.553 1.95648 114 1C112.468 1.97894 111.119 3.15936 110 4.49938C110.95 5.95957 112.332 7.16882 114 8Z" fill="#07B1A1"/>
<path d="M89.9487 0C89.7857 1.00603 89.8461 2.03493 90.1256 3.01572C90.4051 3.99651 90.8971 4.90583 91.5676 5.68094C92.2382 6.45605 93.0713 7.07849 94.0095 7.5053C94.9476 7.93212 95.9686 8.15316 97.0018 8.15316C98.035 8.15316 99.056 7.93212 99.9942 7.5053C100.932 7.07849 101.765 6.45605 102.436 5.68094C103.107 4.90583 103.599 3.99651 103.878 3.01572C104.158 2.03493 104.218 1.00603 104.055 0L107.942 0C107.981 0.371033 108 0.743719 108 1.11665C108.005 2.59119 107.705 4.05128 107.119 5.40769C106.532 6.76411 105.671 7.98835 104.589 9.00562C103.506 10.0229 102.225 10.8118 100.822 11.3242C99.4199 11.8365 97.9264 12.0616 96.4329 11.9856C94.9394 11.9096 93.4773 11.5341 92.136 10.882C90.7946 10.23 89.6022 9.31516 88.6316 8.19338C87.661 7.0716 86.9326 5.76646 86.4908 4.35771C86.0491 2.94895 85.9033 1.46618 86.0624 0L89.9487 0Z" fill="#A91D42"/>
<path d="M77.4269 12V21.3498L116.573 21.3498V12H121V25L73 25V12H77.4269Z" fill="#A91D42"/>
<path d="M82 28H83V18.5773L82.5202 18C82.3456 18.192 82.1728 18.3853 82 18.5773V28Z" fill="#14B6A7"/>
<path d="M86 28H87V17.6353C86.8385 17.424 86.6789 17.2113 86.5193 17C86.3468 17.2113 86.1743 17.424 86 17.6353V28Z" fill="#14B6A7"/>
<path d="M90 30H91V18.6928C90.8382 18.4619 90.6777 18.2309 90.5184 18L90 18.6928V30Z" fill="#14B6A7"/>
<path d="M63 26.3547C63.4887 27.4011 64.2964 28.2704 65.356 29C66.4481 28.4888 67.367 27.6695 68 26.6428C67.4315 25.5904 66.6252 24.6854 65.6452 24C64.6161 24.6015 63.7169 25.402 63 26.3547Z" fill="#A91D42"/>
<path d="M145 6.1155C144.512 5.27903 143.705 4.58359 142.644 4C141.553 4.40927 140.634 5.06412 140 5.8845C140.569 6.72683 141.375 7.45125 142.356 8C143.385 7.51872 144.284 6.87806 145 6.1155Z" fill="#A91D42"/>
<path d="M177 1C175.437 1.9471 174.082 3.13292 173 4.50062C174.093 5.8597 175.447 7.04352 177 8C178.532 7.02106 179.881 5.84064 181 4.50062C180.05 3.04043 178.668 1.83118 177 1Z" fill="#07B1A1"/>
<path d="M167.051 12C167.214 10.994 167.154 9.96507 166.874 8.98428C166.595 8.00349 166.103 7.09417 165.432 6.31906C164.762 5.54395 163.929 4.92151 162.991 4.4947C162.052 4.06788 161.031 3.84684 159.998 3.84684C158.965 3.84684 157.944 4.06788 157.006 4.4947C156.068 4.92151 155.235 5.54395 154.564 6.31906C153.893 7.09417 153.401 8.00349 153.122 8.98428C152.842 9.96507 152.782 10.994 152.945 12H149.058C149.019 11.629 149 11.2563 149 10.8834C148.995 9.40881 149.295 7.94872 149.881 6.59231C150.468 5.23589 151.329 4.01165 152.411 2.99438C153.494 1.97711 154.775 1.18819 156.178 0.67582C157.58 0.163454 159.074 -0.0615959 160.567 0.0144243C162.061 0.0904455 163.523 0.465941 164.864 1.11796C166.205 1.76998 167.398 2.68484 168.368 3.80662C169.339 4.9284 170.067 6.23354 170.509 7.64229C170.951 9.05105 171.097 10.5338 170.938 12H167.051Z" fill="#A91D42"/>
<path d="M179.573 25V15.6502H140.427V25H136V12H184V25H179.573Z" fill="#A91D42"/>
<path d="M146 18H145V27.4227L145.48 28C145.654 27.808 145.827 27.6147 146 27.4227V18Z" fill="#14B6A7"/>
<path d="M150 17H149V27.3647C149.161 27.576 149.321 27.7887 149.481 28C149.653 27.7887 149.826 27.576 150 27.3647V17Z" fill="#14B6A7"/>
<path d="M154 18H153V29.3072C153.162 29.5381 153.322 29.7691 153.482 30L154 29.3072V18Z" fill="#14B6A7"/>
<path d="M131 26.6453C130.511 25.5989 129.704 24.7296 128.644 24C127.552 24.5112 126.633 25.3305 126 26.3572C126.568 27.4096 127.375 28.3146 128.355 29C129.384 28.3985 130.283 27.598 131 26.6453Z" fill="#A91D42"/>
<path d="M203 5.8845C203.488 6.72097 204.295 7.41641 205.356 8C206.447 7.59073 207.366 6.93588 208 6.1155C207.431 5.27317 206.625 4.54875 205.644 4C204.615 4.48128 203.716 5.12194 203 5.8845Z" fill="#A91D42"/>
<path d="M240 8C241.563 7.0529 242.918 5.86708 244 4.49938C242.907 3.1403 241.553 1.95648 240 1C238.468 1.97894 237.119 3.15936 236 4.49938C236.95 5.95957 238.332 7.16882 240 8Z" fill="#07B1A1"/>
<path d="M215.949 0C215.786 1.00603 215.846 2.03493 216.126 3.01572C216.405 3.99651 216.897 4.90583 217.568 5.68094C218.238 6.45605 219.071 7.07849 220.009 7.5053C220.948 7.93212 221.969 8.15316 223.002 8.15316C224.035 8.15316 225.056 7.93212 225.994 7.5053C226.932 7.07849 227.765 6.45605 228.436 5.68094C229.107 4.90583 229.599 3.99651 229.878 3.01572C230.158 2.03493 230.218 1.00603 230.055 0L233.942 0C233.981 0.371033 234 0.743719 234 1.11665C234.005 2.59119 233.705 4.05128 233.119 5.40769C232.532 6.76411 231.671 7.98835 230.589 9.00562C229.506 10.0229 228.225 10.8118 226.822 11.3242C225.42 11.8365 223.926 12.0616 222.433 11.9856C220.939 11.9096 219.477 11.5341 218.136 10.882C216.795 10.23 215.602 9.31516 214.632 8.19338C213.661 7.0716 212.933 5.76646 212.491 4.35771C212.049 2.94895 211.903 1.46618 212.062 0L215.949 0Z" fill="#A91D42"/>
<path d="M203.335 12V21.3498L241.665 21.3498V12H246V25L199 25V12H203.335Z" fill="#A91D42"/>
<path d="M206.007 29H207V21.4619C206.839 21.3071 206.679 21.1531 206.518 21L206 21.4619L206.007 29Z" fill="#14B6A7"/>
<path d="M208 28H209V18.5773L208.52 18C208.346 18.192 208.173 18.3853 208 18.5773V28Z" fill="#14B6A7"/>
<path d="M210 28H211V17.6356L210.519 17L210 17.6356V28Z" fill="#14B6A7"/>
<path d="M212 28H213V17.6353C212.839 17.424 212.679 17.2113 212.519 17C212.347 17.2113 212.174 17.424 212 17.6353V28Z" fill="#14B6A7"/>
<path d="M214 28H215V18.5773L214.518 18L214 18.5773V28Z" fill="#14B6A7"/>
<path d="M216 30H217V18.6928C216.838 18.4619 216.678 18.2309 216.518 18L216 18.6928V30Z" fill="#14B6A7"/>
<path d="M189 26.3547C189.489 27.4011 190.296 28.2704 191.356 29C192.448 28.4888 193.367 27.6695 194 26.6428C193.432 25.5904 192.625 24.6854 191.645 24C190.616 24.6015 189.717 25.402 189 26.3547Z" fill="#A91D42"/>
<path d="M270 6.1155C269.61 5.27903 268.964 4.58359 268.116 4C267.242 4.40927 266.507 5.06412 266 5.8845C266.455 6.72683 267.1 7.45125 267.884 8C268.708 7.51872 269.427 6.87806 270 6.1155Z" fill="#A91D42"/>
<path d="M302.5 1C301.133 1.9471 299.947 3.13292 299 4.50062C299.957 5.8597 301.141 7.04352 302.5 8C303.84 7.02106 305.021 5.84064 306 4.50062C305.169 3.04043 303.96 1.83118 302.5 1Z" fill="#07B1A1"/>
<path d="M292.872 12C293.042 10.994 292.979 9.96507 292.687 8.98428C292.395 8.00349 291.88 7.09417 291.179 6.31906C290.478 5.54395 289.607 4.92151 288.626 4.4947C287.646 4.06788 286.578 3.84684 285.498 3.84684C284.418 3.84684 283.351 4.06788 282.37 4.4947C281.389 4.92151 280.518 5.54395 279.817 6.31906C279.116 7.09417 278.602 8.00349 278.309 8.98428C278.017 9.96507 277.954 10.994 278.124 12H274.06C274.02 11.629 274 11.2563 274 10.8834C273.995 9.40881 274.308 7.94872 274.921 6.59231C275.535 5.23589 276.435 4.01165 277.566 2.99438C278.698 1.97711 280.038 1.18819 281.504 0.67582C282.97 0.163454 284.532 -0.0615959 286.093 0.0144243C287.654 0.0904455 289.183 0.465941 290.585 1.11796C291.987 1.76998 293.234 2.68484 294.249 3.80662C295.263 4.9284 296.025 6.23354 296.487 7.64229C296.949 9.05105 297.101 10.5338 296.935 12H292.872Z" fill="#A91D42"/>
<path d="M304.665 25V15.6502H266.335V25H262V12H309V25H304.665Z" fill="#A91D42"/>
<path d="M269.993 21H269V28.5381C269.161 28.6929 269.321 28.8469 269.482 29L270 28.5381L269.993 21Z" fill="#14B6A7"/>
<path d="M272 18H271V27.4227L271.48 28C271.654 27.808 271.827 27.6147 272 27.4227V18Z" fill="#14B6A7"/>
<path d="M274 17H273V27.3644L273.481 28L274 27.3644V17Z" fill="#14B6A7"/>
<path d="M276 17H275V27.3647C275.161 27.576 275.321 27.7887 275.481 28C275.653 27.7887 275.826 27.576 276 27.3647V17Z" fill="#14B6A7"/>
<path d="M278 18H277V27.4227L277.482 28L278 27.4227V18Z" fill="#14B6A7"/>
<path d="M280 18H279V29.3072C279.162 29.5381 279.322 29.7691 279.482 30L280 29.3072V18Z" fill="#14B6A7"/>
<path d="M257 26.6453C256.511 25.5989 255.704 24.7296 254.644 24C253.552 24.5112 252.633 25.3305 252 26.3572C252.568 27.4096 253.375 28.3146 254.355 29C255.384 28.3985 256.283 27.598 257 26.6453Z" fill="#A91D42"/>
<path d="M329 5.8845C329.39 6.72097 330.036 7.41641 330.884 8C331.758 7.59073 332.493 6.93588 333 6.1155C332.545 5.27317 331.9 4.54875 331.116 4C330.292 4.48128 329.573 5.12194 329 5.8845Z" fill="#A91D42"/>
<path d="M365.5 8C366.867 7.0529 368.053 5.86708 369 4.49938C368.043 3.1403 366.859 1.95648 365.5 1C364.16 1.97894 362.979 3.15936 362 4.49938C362.831 5.95957 364.04 7.16882 365.5 8Z" fill="#07B1A1"/>
<path d="M341.128 0C340.958 1.00603 341.021 2.03493 341.313 3.01572C341.605 3.99651 342.12 4.90583 342.821 5.68094C343.522 6.45605 344.393 7.07849 345.374 7.5053C346.354 7.93212 347.422 8.15316 348.502 8.15316C349.582 8.15316 350.649 7.93212 351.63 7.5053C352.611 7.07849 353.482 6.45605 354.183 5.68094C354.884 4.90583 355.398 3.99651 355.691 3.01572C355.983 2.03493 356.046 1.00603 355.876 0L359.94 0C359.98 0.371033 360 0.743719 360 1.11665C360.005 2.59119 359.692 4.05128 359.079 5.40769C358.465 6.76411 357.565 7.98835 356.434 9.00562C355.302 10.0229 353.962 10.8118 352.496 11.3242C351.03 11.8365 349.468 12.0616 347.907 11.9856C346.346 11.9096 344.817 11.5341 343.415 10.882C342.013 10.23 340.766 9.31516 339.751 8.19338C338.737 7.0716 337.975 5.76646 337.513 4.35771C337.051 2.94895 336.899 1.46618 337.065 0L341.128 0Z" fill="#A91D42"/>
<path d="M329.335 12V21.3498L367.665 21.3498V12H372V25L325 25V12H329.335Z" fill="#A91D42"/>
<path d="M332.007 29H333V21.4619C332.839 21.3071 332.679 21.1531 332.518 21L332 21.4619L332.007 29Z" fill="#14B6A7"/>
<path d="M336 28H337V17.6356L336.519 17L336 17.6356V28Z" fill="#14B6A7"/>
<path d="M340 28H341V18.5773L340.518 18L340 18.5773V28Z" fill="#14B6A7"/>
<path d="M314 26.3547C314.586 27.4011 315.556 28.2704 316.827 29C318.138 28.4888 319.24 27.6695 320 26.6428C319.318 25.5904 318.35 24.6854 317.174 24C315.939 24.6015 314.86 25.402 314 26.3547Z" fill="#A91D42"/>
<path d="M396 6.1155C395.61 5.27903 394.964 4.58359 394.116 4C393.242 4.40927 392.507 5.06412 392 5.8845C392.455 6.72683 393.1 7.45125 393.884 8C394.708 7.51872 395.427 6.87806 396 6.1155Z" fill="#A91D42"/>
<path d="M428.5 1C427.133 1.9471 425.947 3.13292 425 4.50062C425.957 5.8597 427.141 7.04352 428.5 8C429.84 7.02106 431.021 5.84064 432 4.50062C431.169 3.04043 429.96 1.83118 428.5 1Z" fill="#07B1A1"/>
<path d="M418.872 12C419.042 10.994 418.979 9.96507 418.687 8.98428C418.395 8.00349 417.88 7.09417 417.179 6.31906C416.478 5.54395 415.607 4.92151 414.626 4.4947C413.646 4.06788 412.578 3.84684 411.498 3.84684C410.418 3.84684 409.351 4.06788 408.37 4.4947C407.389 4.92151 406.518 5.54395 405.817 6.31906C405.116 7.09417 404.602 8.00349 404.309 8.98428C404.017 9.96507 403.954 10.994 404.124 12H400.06C400.02 11.629 400 11.2563 400 10.8834C399.995 9.40881 400.308 7.94872 400.921 6.59231C401.535 5.23589 402.435 4.01165 403.566 2.99438C404.698 1.97711 406.038 1.18819 407.504 0.67582C408.97 0.163454 410.532 -0.0615959 412.093 0.0144243C413.654 0.0904455 415.183 0.465941 416.585 1.11796C417.987 1.76998 419.234 2.68484 420.249 3.80662C421.263 4.9284 422.025 6.23354 422.487 7.64229C422.949 9.05105 423.101 10.5338 422.935 12H418.872Z" fill="#A91D42"/>
<path d="M430.665 25V15.6502H392.335V25H388V12H435V25H430.665Z" fill="#A91D42"/>
<path d="M395.993 21H395V28.5381C395.161 28.6929 395.321 28.8469 395.482 29L396 28.5381L395.993 21Z" fill="#14B6A7"/>
<path d="M400 17H399V27.3644L399.481 28L400 27.3644V17Z" fill="#14B6A7"/>
<path d="M404 18H403V27.4227L403.482 28L404 27.4227V18Z" fill="#14B6A7"/>
<path d="M383 26.6453C382.414 25.5989 381.444 24.7296 380.173 24C378.862 24.5112 377.76 25.3305 377 26.3572C377.682 27.4096 378.65 28.3146 379.826 29C381.061 28.3985 382.14 27.598 383 26.6453Z" fill="#A91D42"/>
<path d="M455 5.8845C455.39 6.72097 456.036 7.41641 456.884 8C457.758 7.59073 458.493 6.93588 459 6.1155C458.545 5.27317 457.9 4.54875 457.116 4C456.292 4.48128 455.573 5.12194 455 5.8845Z" fill="#A91D42"/>
<path d="M491.5 8C492.867 7.0529 494.053 5.86708 495 4.49938C494.043 3.1403 492.859 1.95648 491.5 1C490.16 1.97894 488.979 3.15936 488 4.49938C488.831 5.95957 490.04 7.16882 491.5 8Z" fill="#07B1A1"/>
<path d="M466.949 0C466.786 1.00603 466.846 2.03493 467.126 3.01572C467.405 3.99651 467.897 4.90583 468.568 5.68094C469.238 6.45605 470.071 7.07849 471.009 7.5053C471.948 7.93212 472.969 8.15316 474.002 8.15316C475.035 8.15316 476.056 7.93212 476.994 7.5053C477.932 7.07849 478.765 6.45605 479.436 5.68094C480.107 4.90583 480.599 3.99651 480.878 3.01572C481.158 2.03493 481.218 1.00603 481.055 0L484.942 0C484.981 0.371033 485 0.743719 485 1.11665C485.005 2.59119 484.705 4.05128 484.119 5.40769C483.532 6.76411 482.671 7.98835 481.589 9.00562C480.506 10.0229 479.225 10.8118 477.822 11.3242C476.42 11.8365 474.926 12.0616 473.433 11.9856C471.939 11.9096 470.477 11.5341 469.136 10.882C467.795 10.23 466.602 9.31516 465.632 8.19338C464.661 7.0716 463.933 5.76646 463.491 4.35771C463.049 2.94895 462.903 1.46618 463.062 0L466.949 0Z" fill="#A91D42"/>
<path d="M455.335 12V21.3498L493.665 21.3498V12H498V25L451 25V12H455.335Z" fill="#A91D42"/>
<path d="M458.007 29H459V21.4619C458.839 21.3071 458.679 21.1531 458.518 21L458 21.4619L458.007 29Z" fill="#14B6A7"/>
<path d="M462 28H463V17.6356L462.519 17L462 17.6356V28Z" fill="#14B6A7"/>
<path d="M466 28H467V18.5773L466.518 18L466 18.5773V28Z" fill="#14B6A7"/>
<path d="M440 26.3547C440.489 27.4011 441.296 28.2704 442.356 29C443.448 28.4888 444.367 27.6695 445 26.6428C444.432 25.5904 443.625 24.6854 442.645 24C441.616 24.6015 440.717 25.402 440 26.3547Z" fill="#A91D42"/>
</svg>
