<svg width="42" height="35" viewBox="0 0 42 35" fill="none" xmlns="http://www.w3.org/2000/svg">
<path d="M28.8107 12.7494C26.1662 8.1995 20.3103 6.64861 15.7604 9.29314C11.2105 11.9377 9.65957 17.7936 12.3041 22.3435C14.9486 26.8934 20.8045 28.4443 25.3545 25.7998C29.9044 23.1552 31.4675 17.3205 28.8107 12.7494ZM13.5656 16.769C13.7479 15.1342 14.4956 13.5955 15.7167 12.4328C15.9366 12.6164 16.1477 12.8334 16.3076 13.1085C16.9964 14.2936 16.6099 15.8206 15.4037 16.5217C14.82 16.8327 14.1679 16.9285 13.5656 16.769ZM19.8037 11.671C19.6069 11.3324 19.5071 10.9658 19.483 10.5834C21.1115 10.3164 22.7777 10.6503 24.1806 11.5053C23.9773 11.9348 23.6279 12.3078 23.2046 12.5538C21.9984 13.2549 20.4925 12.8561 19.8037 11.671ZM19.45 14.7644L22.9301 15.6861L23.1358 19.3036L19.7632 20.6127L17.4807 17.8059L19.45 14.7644ZM14.4627 21.0889C14.3397 20.8773 14.2501 20.6745 14.1606 20.4717C14.1817 20.4594 14.2241 20.4348 14.2452 20.4225C15.4303 19.7337 16.9361 20.1325 17.6372 21.3388C18.1292 22.1853 18.0607 23.1877 17.5715 23.9534C16.3039 23.3312 15.213 22.3798 14.4627 21.0889ZM25.4121 17.1312C24.7233 15.9461 25.1098 14.4192 26.3161 13.7181C26.3584 13.6935 26.4007 13.6689 26.4219 13.6566C26.4957 13.7835 26.5784 13.877 26.6399 13.9829C27.4394 15.3584 27.7207 16.8653 27.5492 18.3239C26.6964 18.3666 25.8672 17.9142 25.4121 17.1312ZM21.3921 24.5355C21.0502 23.4602 21.512 22.2575 22.5066 21.6794C23.6071 21.0398 24.9756 21.3486 25.7387 22.3206C25.2658 22.822 24.7347 23.2722 24.0998 23.6412C23.2322 24.1455 22.3173 24.4224 21.3921 24.5355Z" fill="#8A1538"/>
<path d="M8.64694 27.1647L9.8125 22.7637L5.57713 21.642L4.41156 26.043L8.64694 27.1647Z" fill="#8A1538"/>
<path d="M36.5262 16.0822L38.791 12.1328L34.9903 9.95321L32.7255 13.9026L36.5262 16.0822Z" fill="#8A1538"/>
</svg>
