<svg id="Layer_1" data-name="Layer 1" xmlns="http://www.w3.org/2000/svg" viewBox="0 0 393.35 1023.36"><defs><style>.cls-1,.cls-3,.cls-4{opacity:0.2;}.cls-2,.cls-3,.cls-4{fill:#b31f2b;}.cls-4{isolation:isolate;}</style></defs><g class="cls-1"><path class="cls-2" d="M411.3,87.59s28.49-49.12,72.53-39.75,20.33,73.76-16.58,48.69c0,0-9.68-8.27,4.43-21.54,0,0-4.22,14.54,9.25,11.8S502.12,61.57,471,54,411.3,87.59,411.3,87.59Z" transform="translate(-215.5 -13.31)"/><path class="cls-2" d="M415.62,147.17s19.7-34-1.05-57.16S367.83,104,391.05,116.68c0,0,8.29,3,11.4-10.06,0,0-7.27,7.52-10.25-1.5s7.86-21.37,23.07-5.32S415.62,147.17,415.62,147.17Z" transform="translate(-215.5 -13.31)"/><path class="cls-2" d="M426.41,77.69s33-24,45.43-15S440.14,66.26,426.41,77.69Z" transform="translate(-215.5 -13.31)"/><polygon class="cls-2" points="208.09 64.72 203.34 73.01 208.89 82.01 212.86 72.32 208.09 64.72"/><path class="cls-2" d="M401.2,102.22a3.12,3.12,0,1,1-2.07-3.89h0A3.13,3.13,0,0,1,401.2,102.22Z" transform="translate(-215.5 -13.31)"/><path class="cls-2" d="M439,63.85S424.55,36.93,441.63,19,478,30.56,459.28,40.23c0,0-6.62,2.22-8.65-8,0,0,5.48,6,8.12-1s-5.5-16.89-18-4.48S439,63.85,439,63.85Z" transform="translate(-215.5 -13.31)"/></g><path class="cls-3" d="M463.58,155.17a10.28,10.28,0,0,0,1.41.7,9.88,9.88,0,1,0,7.3-18.37,9.67,9.67,0,0,0-1.5-.47l2-5c.5.15,1,.31,1.49.51A15.22,15.22,0,0,1,463,160.83c-.49-.2-1-.42-1.43-.66Z" transform="translate(-215.5 -13.31)"/><polygon class="cls-3" points="225.38 150.53 237.34 155.28 256.82 106.28 244.86 101.53 247.06 95.99 263.69 102.59 239.8 162.68 223.18 156.07 225.38 150.53"/><rect class="cls-3" x="435.07" y="126.23" width="15.14" height="1.39" transform="translate(-48.96 482.14) rotate(-69.16)"/><rect class="cls-3" x="437.65" y="123.73" width="19.8" height="1.39" transform="translate(-43.46 485.11) rotate(-69.16)"/><rect class="cls-3" x="441.54" y="125.21" width="19.8" height="1.39" transform="translate(-42.35 489.7) rotate(-69.16)"/><rect class="cls-3" x="445.43" y="126.69" width="19.8" height="1.39" transform="translate(-41.22 494.29) rotate(-69.16)"/><rect class="cls-3" x="448.89" y="128" width="19.8" height="1.39" transform="translate(-40.22 498.37) rotate(-69.16)"/><rect class="cls-3" x="450.16" y="131.22" width="22.72" height="1.39" transform="translate(-41.47 503) rotate(-69.16)"/><path class="cls-3" d="M389,143.3a12,12,0,1,0-15.63,6.44A11.94,11.94,0,0,0,389,143.3Zm-15.8-12.41a9.26,9.26,0,0,1,6.47-1.53,4.11,4.11,0,0,1-.29,1.26,3.49,3.49,0,0,1-4.45,2.09A3.16,3.16,0,0,1,373.24,130.89ZM383.52,133a3.85,3.85,0,0,1,.94-1.37,9.71,9.71,0,0,1,2.58,6.16,3,3,0,0,1-1.92-.12A3.5,3.5,0,0,1,383.52,133Zm-3.33,1.91,2,4.83-4,3.39-4.46-2.74,1.23-5.08Zm-10.83.24a5.68,5.68,0,0,1,.39-.78l.13,0a3.41,3.41,0,0,1,2.16,4.27,3.13,3.13,0,0,1-2.91,1.8A7.91,7.91,0,0,1,369.36,135.11ZM382,142.28a3.08,3.08,0,0,1,2.39-1.17,5.71,5.71,0,0,1,2.14.58l.16.08c-.06.16-.11.31-.18.47a8.28,8.28,0,0,1-3.79,4.12,3.18,3.18,0,0,1-1.1-1.33A2.89,2.89,0,0,1,382,142.28Zm-10.5,3a3.29,3.29,0,0,1,3.9-1.53,3.41,3.41,0,0,1,1.57,4.25,7.25,7.25,0,0,1-2.58-.56A7.39,7.39,0,0,1,371.47,145.31Z" transform="translate(-215.5 -13.31)"/><path class="cls-3" d="M505.18,32.47a12,12,0,1,0-15.63,6.44A12,12,0,0,0,505.18,32.47Zm-15.8-12.41a9.31,9.31,0,0,1,6.47-1.53,3.91,3.91,0,0,1-.3,1.27,3.48,3.48,0,0,1-4.45,2.08A3.14,3.14,0,0,1,489.38,20.06Zm10.27,2.07a4,4,0,0,1,.94-1.37,9.68,9.68,0,0,1,2.59,6.16,3,3,0,0,1-1.92-.12A3.51,3.51,0,0,1,499.65,22.13ZM496.33,24l2,4.83-4,3.39-4.45-2.74,1.23-5.08Zm-10.83.24a6.12,6.12,0,0,1,.38-.77l.14,0a3.41,3.41,0,0,1,2.15,4.27,3.1,3.1,0,0,1-2.9,1.8A7.85,7.85,0,0,1,485.5,24.28Zm12.61,7.18a3.06,3.06,0,0,1,2.39-1.18,5.9,5.9,0,0,1,2.14.58l.16.08c-.06.16-.11.31-.18.47a8.24,8.24,0,0,1-3.8,4.13,3.25,3.25,0,0,1-1.09-1.33A2.88,2.88,0,0,1,498.11,31.46Zm-10.51,3A3.3,3.3,0,0,1,491.5,33a3.41,3.41,0,0,1,1.58,4.25,7.36,7.36,0,0,1-5.48-2.72Z" transform="translate(-215.5 -13.31)"/><g class="cls-1"><path class="cls-2" d="M417.93,276.6S372.18,243,386.26,200.2,461.78,188,432.87,222c0,0-9.27,8.73-20.93-6.74,0,0,14,5.77,12.73-7.92s-22.79-23.79-33.67,6.3S417.93,276.6,417.93,276.6Z" transform="translate(-215.5 -13.31)"/><path class="cls-2" d="M477.62,278.75S446,255.5,420.69,273.61s8.81,48,24,26.27c0,0,3.85-7.92-8.77-12.43,0,0,6.7,8.05-2.59,10s-20.4-10.13-2.79-23.51S477.62,278.75,477.62,278.75Z" transform="translate(-215.5 -13.31)"/><path class="cls-2" d="M409.72,260.51s-20.33-35.41-10-46.78S399.84,245.62,409.72,260.51Z" transform="translate(-215.5 -13.31)"/><polygon class="cls-2" points="194.25 250.04 201.98 255.66 211.52 251.11 202.32 246.12 194.25 250.04"/><path class="cls-2" d="M431.38,288.23a3.11,3.11,0,1,1-4.09,1.64h0A3.11,3.11,0,0,1,431.38,288.23Z" transform="translate(-215.5 -13.31)"/><path class="cls-2" d="M397.32,246.54S369,258,353,239s15.45-34.87,23-15.25c0,0,1.5,6.82-8.93,7.73,0,0,6.56-4.8-.16-8.19s-17.38,3.64-6.4,17.4S397.32,246.54,397.32,246.54Z" transform="translate(-215.5 -13.31)"/></g><path class="cls-3" d="M490.77,232a10.26,10.26,0,0,0,.84-1.33,9.88,9.88,0,1,0-17.47-9.25,8.34,8.34,0,0,0-.62,1.44l-4.76-2.52c.2-.48.42-1,.66-1.42a15.22,15.22,0,0,1,26.91,14.24,15.06,15.06,0,0,1-.81,1.35Z" transform="translate(-215.5 -13.31)"/><polygon class="cls-3" points="281.42 242.14 287.44 230.76 240.84 206.1 234.82 217.47 229.55 214.68 237.92 198.87 295.06 229.12 286.69 244.93 281.42 242.14"/><rect class="cls-3" x="459.72" y="242.12" width="1.39" height="15.14" transform="translate(-186.87 532.85) rotate(-62.95)"/><rect class="cls-3" x="457.77" y="234.64" width="1.39" height="19.8" transform="translate(-183.35 528.3) rotate(-62.95)"/><rect class="cls-3" x="459.67" y="230.94" width="1.39" height="19.8" transform="translate(-179.02 527.97) rotate(-62.95)"/><rect class="cls-3" x="461.55" y="227.23" width="1.39" height="19.8" transform="translate(-174.68 527.63) rotate(-62.95)"/><rect class="cls-3" x="463.24" y="223.94" width="1.39" height="19.8" transform="translate(-170.84 527.34) rotate(-62.95)"/><rect class="cls-3" x="466.73" y="220.11" width="1.39" height="22.72" transform="translate(-166.82 529.16) rotate(-62.95)"/><path class="cls-3" d="M470.9,304.76A11.95,11.95,0,1,0,475.61,321,12,12,0,0,0,470.9,304.76Zm-14,14.36a9.25,9.25,0,0,1-.82-6.59,3.93,3.93,0,0,1,1.23.43,3.46,3.46,0,0,1,1.58,4.64A3.1,3.1,0,0,1,456.85,319.12Zm3.17-10a3.81,3.81,0,0,1-1.26-1.08,9.64,9.64,0,0,1,6.4-1.9,3,3,0,0,1-.32,1.89A3.5,3.5,0,0,1,460,309.13Zm1.54,3.51,5-1.46,2.93,4.33-3.2,4.13-4.92-1.78Zm-.93,10.8a7.61,7.61,0,0,1-.73-.47.52.52,0,0,1,.06-.13,3.4,3.4,0,0,1,4.47-1.68,3.11,3.11,0,0,1,1.48,3.08A7.94,7.94,0,0,1,460.63,323.44Zm8.5-11.76a3.06,3.06,0,0,1-.92-2.5,5.83,5.83,0,0,1,.81-2.07,1.28,1.28,0,0,1,.1-.15,4.78,4.78,0,0,1,.45.23,8.26,8.26,0,0,1,3.69,4.22,3.28,3.28,0,0,1-1.44.94A2.88,2.88,0,0,1,469.13,311.68ZM471,322.45a3.29,3.29,0,0,1-1.1-4,3.39,3.39,0,0,1,4.39-1.11,7.35,7.35,0,0,1-.83,2.51A7.51,7.51,0,0,1,471,322.45Z" transform="translate(-215.5 -13.31)"/><path class="cls-3" d="M373.29,177.31A11.95,11.95,0,1,0,378,193.54,12,12,0,0,0,373.29,177.31Zm-14.05,14.36a9.25,9.25,0,0,1-.82-6.59,3.85,3.85,0,0,1,1.23.43,3.48,3.48,0,0,1,1.59,4.65A3.16,3.16,0,0,1,359.24,191.67Zm3.17-10a3.91,3.91,0,0,1-1.26-1.08,9.71,9.71,0,0,1,6.41-1.9,3,3,0,0,1-.33,1.89A3.5,3.5,0,0,1,362.41,181.68Zm1.54,3.51,5-1.45,2.94,4.32-3.21,4.13-4.91-1.77ZM363,196a6.07,6.07,0,0,1-.73-.47.75.75,0,0,1,.06-.13,3.4,3.4,0,0,1,4.47-1.68,3.11,3.11,0,0,1,1.48,3.08A7.82,7.82,0,0,1,363,196Zm8.5-11.76a3,3,0,0,1-.92-2.5,5.83,5.83,0,0,1,.81-2.07l.1-.15a4.78,4.78,0,0,1,.45.23,8.25,8.25,0,0,1,3.69,4.22,3.22,3.22,0,0,1-1.44.94A2.89,2.89,0,0,1,371.52,184.23ZM373.39,195a3.29,3.29,0,0,1-1.1-4,3.4,3.4,0,0,1,4.39-1.11,7.14,7.14,0,0,1-.83,2.51A7.51,7.51,0,0,1,373.39,195Z" transform="translate(-215.5 -13.31)"/><path class="cls-3" d="M541.1,379.09a32.67,32.67,0,1,0-42.72,17.6A32.67,32.67,0,0,0,541.1,379.09Zm-43.19-33.94A25.45,25.45,0,0,1,515.59,341a10.71,10.71,0,0,1-.8,3.47c-2.11,5.06-7.55,7.61-12.16,5.69A8.53,8.53,0,0,1,497.91,345.15ZM526,350.81a10.7,10.7,0,0,1,2.57-3.75,26.52,26.52,0,0,1,7.06,16.85,8.17,8.17,0,0,1-5.25-.32C525.81,361.69,523.85,356,526,350.81ZM516.92,356l5.44,13.2-10.88,9.26L499.31,371l3.36-13.88Zm-29.62.65a16.64,16.64,0,0,1,1.06-2.11,1.69,1.69,0,0,1,.36.12c5,2.11,7.7,7.33,5.89,11.67-1.27,3.06-4.41,4.84-7.94,4.91A21.6,21.6,0,0,1,487.3,356.69Zm34.48,19.62a8.39,8.39,0,0,1,6.52-3.22,15.85,15.85,0,0,1,5.85,1.59l.45.21c-.16.44-.31.86-.49,1.29a22.55,22.55,0,0,1-10.38,11.28,8.86,8.86,0,0,1-3-3.63A7.85,7.85,0,0,1,521.78,376.31Zm-28.72,8.27c2.55-3.88,7-5.72,10.66-4.18,4,1.67,5.77,6.7,4.3,11.62a20.09,20.09,0,0,1-15-7.44Z" transform="translate(-215.5 -13.31)"/><g class="cls-1"><path class="cls-2" d="M405.94,358.25c26,5.71,56,10.82,58.55,4,.66-1.72-.65-3.66-1.21-4.49C453.84,343.78,410.56,356.82,405.94,358.25Z" transform="translate(-215.5 -13.31)"/><path class="cls-2" d="M385.26,339.14c24.8,6.81,54.26,13.18,58.07,5.24,1.16-2.4-.46-5.24-.73-5.72C434.88,325.11,390,337.78,385.26,339.14Z" transform="translate(-215.5 -13.31)"/><path class="cls-2" d="M417.36,366.15s50.84,12.48,49.44,28.05S438.72,374.05,417.36,366.15Z" transform="translate(-215.5 -13.31)"/><path class="cls-2" d="M409.3,366.23c17,17.18,35,37.7,30.44,44.25-1.85,2.66-6.7,2-7.29,1.92C421.23,410.87,412.26,392.25,409.3,366.23Z" transform="translate(-215.5 -13.31)"/></g><g class="cls-1"><circle class="cls-2" cx="370.85" cy="693.77" r="4.86"/><path class="cls-2" d="M491.25,859s-15.41,32.56-45.74,28.37-19.3-46.32,7.43-31.8c0,0,7.14,4.89-1.34,13.95,0,0,1.73-9.47-7.12-7.17s-12.33,17,9.16,20.56S491.25,859,491.25,859Z" transform="translate(-215.5 -13.31)"/><path class="cls-2" d="M509.46,817.65S494,850.21,463.71,846s-16-43.27,7.44-31.8c0,0,7.14,4.9-1.34,13.95,0,0,1.73-9.46-7.12-7.16s-12.33,17,9.16,20.55S509.46,817.65,509.46,817.65Z" transform="translate(-215.5 -13.31)"/><path class="cls-2" d="M502.38,819.56s-4.69,17.4-19.9,17.69-11.62-20.27.87-16.39c0,0,3.92,1.88.56,7,0,0,0-4.84-4.11-3s-4.54,9.41,6.28,9.5S502.38,819.56,502.38,819.56Z" transform="translate(-215.5 -13.31)"/><path class="cls-2" d="M512.06,812.51s-2.3,17.93,11.51,24.65,18.34-13.61,5.43-15.38c0,0-4.3.05-3.18,6.21,0,0,1.82-4.44,4.9-1s.59,10.55-9.36,6S512.06,812.51,512.06,812.51Z" transform="translate(-215.5 -13.31)"/><path class="cls-2" d="M499,841.18s-13.8,22-24,19.47S493.62,851.19,499,841.18Z" transform="translate(-215.5 -13.31)"/><path class="cls-2" d="M506.08,829.22s-10.85,23.38-3.89,27.8S502.63,839.89,506.08,829.22Z" transform="translate(-215.5 -13.31)"/><polygon class="cls-2" points="271.13 909.27 272.31 903.32 266.76 898.79 266.38 905.46 271.13 909.27"/><polygon class="cls-2" points="234.12 897.65 240.56 897.34 243.34 891.24 236.44 892.45 234.12 897.65"/><polygon class="cls-2" points="298.28 831.8 298.63 836.76 303.89 839.3 302.76 833.93 298.28 831.8"/><path class="cls-2" d="M488.12,886.33c5.17,10.69,19.47,12,24.21,9.24,5-2.9,9.08-9.18,4.46-16.06,0,0-2.42,12.25-13.3,4s5.2-24.84,5.2-24.84S476.72,862.75,488.12,886.33Z" transform="translate(-215.5 -13.31)"/><path class="cls-2" d="M387.9,378.4S371.51,413.53,341,409.83s-18.31-48.93,8.32-34.12c0,0,7.09,5-1.71,14.91,0,0,2-10.14-7-7.46s-12.88,18.44,8.72,21.7S387.9,378.4,387.9,378.4Z" transform="translate(-215.5 -13.31)"/><path class="cls-2" d="M351.62,428.6c4.94,11.27,19.34,12.29,24.21,9.24,5.14-3.23,9.39-10,4.91-17.26,0,0-2.76,13.14-13.54,4.58s5.89-26.63,5.89-26.63S340.7,403.72,351.62,428.6Z" transform="translate(-215.5 -13.31)"/><path class="cls-2" d="M385.46,706.05a38.79,38.79,0,0,1-3.38,8.11c-.62,1.12-3,5.22-5.27,6.56a31,31,0,0,1-3.14,1.59,4.77,4.77,0,0,0-.81.34,13.71,13.71,0,0,0,8.83-2.34c3.48-2.52,4.42-6.88,6-6.23,2.28.95.2,2,.2,2s-3.59,5.3.27,6,3.89-3.52,3.89-3.52-1.31-4.52,1.41-1.65c1.08,1.13,1.16,6.33-.73,8.07s-6.34,2.91-6.34,2.91c-.88.91-1.27,1.94-.93,2.61s1.8.82,2.48.82c3.56,0,7.25-2.63,9.27-6.12a13,13,0,0,0,1.47-3.8c1.21-5.88-2.27-10.91-3.24-12.21,0,0-3.61-3.77-6.08-14.25Z" transform="translate(-215.5 -13.31)"/><path class="cls-2" d="M571.85,708c2.39-2.49-3-3.22-9.22-2.54s-12.76-5.2-12.76-5.2c3.41,1.09,6,1.39,7.36.2,4.66-4-.47-7.54-2.57-7.78-5-.55-6.08,3.64-6.08,3.64-2.27-4.2,4.67-10.58,16.18-6.71,1.84.62,7.84.47.88-3.1s-16.72-1.54-24,3.73c-8.31,6-13.34,19.28-17.83,19S569.47,710.52,571.85,708Z" transform="translate(-215.5 -13.31)"/><path class="cls-2" d="M339.24,653.4a11,11,0,0,0-1.44-.77,10.25,10.25,0,0,0-8.24,18.78,9.34,9.34,0,0,0,1.54.53l-2.24,5.11a13.18,13.18,0,0,1-1.52-.57A15.79,15.79,0,1,1,340,647.56h0c.5.22,1,.46,1.46.73Z" transform="translate(-215.5 -13.31)"/><rect class="cls-2" x="328.01" y="657.65" width="7.16" height="7.16" transform="translate(-457.07 180.31) rotate(-24.16)"/><rect class="cls-2" x="412.85" y="716.06" width="5.94" height="5.94" transform="translate(-444.26 181.87) rotate(-20.86)"/><rect class="cls-2" x="441.72" y="706.12" width="5.94" height="5.94" transform="translate(-438.83 191.5) rotate(-20.86)"/><path class="cls-2" d="M426.56,697.51a10.35,10.35,0,0,0,.73-1.54,10.7,10.7,0,0,0-6.19-13.8h0a10.71,10.71,0,0,0-13.81,6.19h0a10.44,10.44,0,0,0-.47,1.63l-5.45-2.07c.15-.55.33-1.09.53-1.62a16.46,16.46,0,0,1,21.25-9.53h0A16.47,16.47,0,0,1,432.69,698h0a15.42,15.42,0,0,1-.69,1.56Z" transform="translate(-215.5 -13.31)"/><rect class="cls-2" x="414.2" y="687.24" width="7.47" height="7.47" transform="translate(-461.68 218.25) rotate(-24.16)"/><rect class="cls-2" x="515.99" y="721.17" width="10.17" height="10.17" transform="translate(-467.09 263.55) rotate(-24.16)"/><rect class="cls-2" x="307.19" y="678.07" width="10.17" height="10.17" transform="translate(-467.74 174.32) rotate(-24.16)"/><path class="cls-2" d="M454.28,466.81a13.42,13.42,0,0,0,1-2.1,14.56,14.56,0,1,0-27.22-10.36,15.42,15.42,0,0,0-.65,2.23L420,453.75a21.73,21.73,0,0,1,.72-2.2,22.42,22.42,0,1,1,41.91,16c-.27.72-.59,1.43-.93,2.12Z" transform="translate(-215.5 -13.31)"/><polygon class="cls-2" points="252.03 486.75 258.77 469.03 186.17 441.39 179.43 459.11 171.22 455.99 180.59 431.35 269.62 465.24 260.24 489.87 252.03 486.75"/><path class="cls-2" d="M372.75,694.48a6.4,6.4,0,0,0,.84.39,5.79,5.79,0,0,0,7.45-3.41h0a5.8,5.8,0,0,0-3.41-7.46h0a5.33,5.33,0,0,0-.89-.25l1.11-3a8.81,8.81,0,0,1,.87.28A8.92,8.92,0,0,1,384,692.55h0a8.93,8.93,0,0,1-11.47,5.26,9.1,9.1,0,0,1-.85-.37Z" transform="translate(-215.5 -13.31)"/><polygon class="cls-2" points="144.06 686.54 151.13 689.17 161.91 660.2 154.84 657.57 156.06 654.29 165.89 657.95 152.67 693.48 142.84 689.82 144.06 686.54"/><rect class="cls-2" x="331.81" y="681.11" width="15.14" height="1.39" transform="translate(-634.05 743.09) rotate(-69.16)"/><rect class="cls-2" x="334.39" y="678.61" width="19.8" height="1.39" transform="translate(-628.56 746.07) rotate(-69.16)"/><rect class="cls-2" x="338.28" y="680.09" width="19.8" height="1.39" transform="translate(-627.44 750.66) rotate(-69.16)"/><rect class="cls-2" x="342.17" y="681.58" width="19.8" height="1.39" transform="translate(-626.33 755.25) rotate(-69.16)"/><rect class="cls-2" x="345.63" y="682.89" width="19.8" height="1.39" transform="translate(-625.32 759.33) rotate(-69.16)"/><rect class="cls-2" x="346.9" y="686.12" width="22.72" height="1.39" transform="translate(-626.58 763.96) rotate(-69.16)"/><rect class="cls-2" x="394.23" y="473.17" width="15.14" height="1.39" transform="translate(-399.51 667.47) rotate(-69.16)"/><rect class="cls-2" x="396.81" y="470.67" width="19.8" height="1.39" transform="translate(-394.01 670.45) rotate(-69.16)"/><rect class="cls-2" x="400.7" y="472.15" width="19.8" height="1.39" transform="translate(-392.89 675.04) rotate(-69.16)"/><rect class="cls-2" x="404.59" y="473.63" width="19.8" height="1.39" transform="translate(-391.77 679.63) rotate(-69.16)"/><rect class="cls-2" x="408.05" y="474.95" width="19.8" height="1.39" transform="translate(-390.77 683.71) rotate(-69.16)"/><rect class="cls-2" x="409.33" y="478.17" width="22.72" height="1.39" transform="translate(-392.02 688.33) rotate(-69.16)"/><rect class="cls-2" x="389.32" y="162.81" width="14.74" height="14.74" rx="1.26" transform="translate(-250.41 163.95) rotate(-24.16)"/><path class="cls-2" d="M504.69,555.88a6.4,6.4,0,0,0-.84-.39,5.8,5.8,0,0,0-4.06,10.86l0,0a6.36,6.36,0,0,0,.88.25l-1.09,3c-.29-.08-.59-.17-.88-.28a8.93,8.93,0,0,1,5.74-16.91l.44.17a8,8,0,0,1,.85.36Z" transform="translate(-215.5 -13.31)"/><polygon class="cls-2" points="302.37 537.17 295.29 534.55 284.58 563.55 291.66 566.17 290.44 569.45 280.61 565.82 293.74 530.25 303.58 533.89 302.37 537.17"/><path class="cls-2" d="M491.13,602.2a10,10,0,0,0-.71,1.47,10.29,10.29,0,1,0,19.2,7.43,11,11,0,0,0,.47-1.58l5.22,2a14.21,14.21,0,0,1-.51,1.56,15.85,15.85,0,1,1-29.56-11.43h0a15.31,15.31,0,0,1,.66-1.49Z" transform="translate(-215.5 -13.31)"/><polygon class="cls-2" points="266.38 565.35 261.55 577.85 312.76 597.63 317.59 585.13 323.38 587.37 316.67 604.75 253.88 580.49 260.59 563.11 266.38 565.35"/><rect class="cls-2" x="511.67" y="573.45" width="15.14" height="1.39" transform="translate(-418.72 838.86) rotate(-68.92)"/><rect class="cls-2" x="514.27" y="570.97" width="19.8" height="1.39" transform="translate(-413.26 841.86) rotate(-68.92)"/><rect class="cls-2" x="518.15" y="572.47" width="19.8" height="1.39" transform="translate(-412.18 846.45) rotate(-68.92)"/><rect class="cls-2" x="522.03" y="573.96" width="19.8" height="1.39" transform="translate(-411.08 851.03) rotate(-68.92)"/><rect class="cls-2" x="525.48" y="575.29" width="19.8" height="1.39" transform="translate(-410.11 855.1) rotate(-68.92)"/><rect class="cls-2" x="526.74" y="578.53" width="22.72" height="1.39" transform="translate(-411.38 859.71) rotate(-68.92)"/><rect class="cls-2" x="291.12" y="634.3" width="15.14" height="1.39" transform="translate(-616.73 672.03) rotate(-68.92)"/><rect class="cls-2" x="293.71" y="631.82" width="19.8" height="1.39" transform="translate(-611.27 675.03) rotate(-68.92)"/><rect class="cls-2" x="297.6" y="633.32" width="19.8" height="1.39" transform="translate(-610.19 679.62) rotate(-68.92)"/><rect class="cls-2" x="301.48" y="634.81" width="19.8" height="1.39" transform="translate(-609.09 684.2) rotate(-68.92)"/><rect class="cls-2" x="304.93" y="636.14" width="19.8" height="1.39" transform="translate(-608.12 688.27) rotate(-68.92)"/><rect class="cls-2" x="306.19" y="639.37" width="22.72" height="1.39" transform="translate(-609.4 692.88) rotate(-68.92)"/><path class="cls-2" d="M426.47,525.56c7.12,11,16.38,22.3,20.44,31.85,4.28,10-2,14.46-.18,14.7,3.77.5,7.07-7.57,5.56-15.27s-6-14.89-3.27-16.63c4.09-2.58,3.46,1.95,3.46,1.95s4.44,11.76,9.9,6.32-1.26-10.21-1.26-10.21-8.73-3-1.05-4.15c3-.45,11.47,5.31,12.13,10.3s-2.48,13.47-2.48,13.47,3.28,5.75,6.12,1.3,4-15.91.91-21.37-1.24-11.92-26.85-15.6c0,0-10.13,1.56-29.76-6.33Z" transform="translate(-215.5 -13.31)"/><path class="cls-2" d="M467.48,636.14a9.9,9.9,0,0,0-1.44-.76,10.25,10.25,0,1,0-8.24,18.77,9.67,9.67,0,0,0,1.54.53l-2.24,5.12c-.51-.17-1-.36-1.52-.58a15.79,15.79,0,0,1,12.68-28.92h0c.5.22,1,.47,1.46.73Z" transform="translate(-215.5 -13.31)"/><rect class="cls-2" x="456.25" y="640.39" width="7.16" height="7.16" transform="translate(-438.78 231.28) rotate(-24.16)"/><path class="cls-2" d="M530.45,445.51c-20.45,4.25-12,23.73-11.83,24.19h0c-.36-.53-12.44-17.78-26.79-2.7,0,0-6-11.4,11.79-15.34,0,0-12.7-8-6.88-20.38,13.61,1.61,14.45,16.17,14.45,16.17C523.94,434.39,530.45,445.51,530.45,445.51Z" transform="translate(-215.5 -13.31)"/><path class="cls-2" d="M433.48,620c-2.46,4.39-17.87,1-28.51,5.16-9.37,3.66-17.21,11.59-18.16,20.29s2.85,3.17,3.4,1.07c3.46-13.17,13.62-15.79,16.13-11.1,0,0-4.55-1.53-7.1,3.49-1.06,2.12-.9,9.1,5.64,7.15,2-.59,3.25-3.17,4.32-7,0,0,1.44,9.76-3,15.15s-7.06,10.93-3.3,10.21S436,615.59,433.48,620Z" transform="translate(-215.5 -13.31)"/><path class="cls-2" d="M594,731.53a15.22,15.22,0,0,1-.57,1.6h0a16.46,16.46,0,0,1-21.5,9h0a16.47,16.47,0,0,1-9-21.5c.21-.52.46-1,.72-1.54l5.39,2.22a10.72,10.72,0,0,0-.77,1.51h0a10.7,10.7,0,0,0,5.82,14h0a10.7,10.7,0,0,0,14-5.82,11.74,11.74,0,0,0,.52-1.62Z" transform="translate(-215.5 -13.31)"/><rect class="cls-2" x="574.09" y="724.44" width="7.47" height="7.47" transform="translate(-451.2 265.09) rotate(-22.63)"/><path class="cls-2" d="M510.57,518.94c11.16,4,22.31-5,23.78-10.3,1.56-5.59.08-12.91-8-14.61,0,0,6.82,10.46-6.75,12.14s-13.63-21.41-13.63-21.41S485.93,510,510.57,518.94Z" transform="translate(-215.5 -13.31)"/><path class="cls-2" d="M546.15,508.08c-11.4,3.31-15.07,17.2-13.15,22.33,2,5.44,7.54,10.48,15.1,7.08,0,0-11.68-4.44-1.71-13.78S570,533,570,533,571.3,500.77,546.15,508.08Z" transform="translate(-215.5 -13.31)"/><circle class="cls-2" cx="255.78" cy="917.61" r="4.86"/><circle class="cls-2" cx="257.51" cy="892.29" r="4.86"/><path class="cls-2" d="M411.6,753.2c5,.57,7.89,16.08,15.86,24.26,7,7.2,17.38,11.34,25.77,8.82s1.81-3.86-.35-3.55c-13.47,1.94-19.85-6.4-16.5-10.53,0,0,.36,4.79,6,5.18,2.36.15,8.74-2.71,4.39-8-1.31-1.58-4.18-1.76-8.16-1.24,0,0,8.43-5.13,15.12-3.16s12.81,2.25,10.68-.93S406.59,752.64,411.6,753.2Z" transform="translate(-215.5 -13.31)"/><rect class="cls-2" x="229.17" y="700.52" width="15.14" height="1.39" transform="translate(-718.19 656.63) rotate(-68.92)"/><rect class="cls-2" x="231.77" y="698.04" width="19.8" height="1.39" transform="translate(-712.73 659.63) rotate(-68.92)"/><rect class="cls-2" x="235.65" y="699.54" width="19.8" height="1.39" transform="translate(-711.64 664.22) rotate(-68.92)"/><rect class="cls-2" x="239.53" y="701.03" width="19.8" height="1.39" transform="translate(-710.55 668.8) rotate(-68.92)"/><rect class="cls-2" x="242.98" y="702.36" width="19.8" height="1.39" transform="translate(-709.58 672.87) rotate(-68.92)"/><rect class="cls-2" x="244.24" y="705.59" width="22.72" height="1.39" transform="translate(-710.85 677.48) rotate(-68.92)"/><rect class="cls-2" x="382.41" y="748.35" width="13.73" height="13.73" transform="translate(-490.49 212.15) rotate(-24.16)"/><rect class="cls-2" x="312.97" y="705.08" width="13.73" height="13.73" transform="translate(-478.86 179.94) rotate(-24.16)"/><rect class="cls-2" x="315.95" y="728.26" width="5.1" height="4.9" transform="translate(512.89 1401.04) rotate(172.61)"/><rect class="cls-2" x="285.39" y="687.41" width="5.1" height="4.9" transform="translate(446.77 1323.63) rotate(172.61)"/><path class="cls-2" d="M527,661.13c-20.45,4.26-12,23.74-11.83,24.2h0c-.36-.53-12.44-17.78-26.79-2.71,0,0-6-11.39,11.79-15.33,0,0-12.7-7.95-6.88-20.38,13.61,1.61,14.45,16.17,14.45,16.17C520.5,650,527,661.13,527,661.13Z" transform="translate(-215.5 -13.31)"/><path class="cls-2" d="M509.5,944.24c7.12,11,16.37,22.29,20.44,31.85,4.27,10-2,14.46-.18,14.7,3.77.5,7.07-7.57,5.56-15.27s-6-14.89-3.27-16.63c4.09-2.58,3.46,2,3.46,2s4.44,11.76,9.9,6.32S544.15,957,544.15,957s-8.73-3-1.06-4.15c3-.45,11.48,5.3,12.14,10.3s-2.49,13.47-2.49,13.47,3.29,5.74,6.13,1.3,4-15.91.9-21.38-1.23-11.91-26.84-15.59c0,0-10.14,1.56-29.76-6.33Z" transform="translate(-215.5 -13.31)"/><path class="cls-2" d="M579,1000.22a10,10,0,0,0-1.44-.77,10.25,10.25,0,0,0-8.24,18.78,11.66,11.66,0,0,0,1.54.53l-2.24,5.11c-.51-.17-1-.36-1.52-.58a15.78,15.78,0,0,1,12.68-28.91h0a15.29,15.29,0,0,1,1.46.73Z" transform="translate(-215.5 -13.31)"/><rect class="cls-2" x="567.76" y="1004.46" width="7.16" height="7.16" transform="translate(-578.01 308.8) rotate(-24.16)"/><path class="cls-2" d="M357.83,798.54c-11.86-17.18-26.54-1.87-26.89-1.5h0c.35-.55,11.56-18.37-7.9-25.74,0,0,8.16-10,18.71,4.91,0,0,2.39-14.79,16.1-14.25,3.81,13.16-9.28,19.59-9.28,19.59C365.55,788.23,357.83,798.54,357.83,798.54Z" transform="translate(-215.5 -13.31)"/><path class="cls-2" d="M472.53,717.58a8.27,8.27,0,0,0,1.23.12,7.73,7.73,0,0,0,.3-15.45,7.14,7.14,0,0,0-1.23.07l.08-4.21c.41,0,.82,0,1.23,0a11.9,11.9,0,0,1-.47,23.8c-.41,0-.81,0-1.22-.08Z" transform="translate(-215.5 -13.31)"/><polygon class="cls-2" points="242.79 716.85 252.85 717.04 253.65 675.82 243.59 675.63 243.68 670.97 257.67 671.24 256.69 721.78 242.71 721.51 242.79 716.85"/><rect class="cls-2" x="487.05" y="271.93" width="13.73" height="13.73" transform="translate(-286.34 213.25) rotate(-24.16)"/></g><path class="cls-4" d="M396.44,282c-4.88-1.88-22.35-7.92-40.65-.11-13.06,5.57-23.73,17-25.63,26.57-.2,1-1.15,5.85,0,6.37s3.74-2.72,4.39-4.41c6.58-17,20.58-18.84,23.24-12.2,0,0-5.87-2.76-10,3.51-1.75,2.65-2.56,12,6.5,10.41,2.71-.47,4.81-3.7,6.82-8.67,0,0,.5,13.22-6.23,19.69s-8.67,11.56-7.91,12.5c1.67,2.05,25.58-8.48,39.81-30.73A74.28,74.28,0,0,0,396.44,282Z" transform="translate(-215.5 -13.31)"/><path class="cls-3" d="M537.55,787.21a32.67,32.67,0,1,0-42.72,17.6A32.68,32.68,0,0,0,537.55,787.21Zm-43.19-33.94A25.45,25.45,0,0,1,512,749.09a10.59,10.59,0,0,1-.8,3.46c-2.11,5.07-7.55,7.62-12.16,5.7A8.56,8.56,0,0,1,494.36,753.27Zm28.09,5.66a10.7,10.7,0,0,1,2.57-3.75A26.52,26.52,0,0,1,532.08,772a8.17,8.17,0,0,1-5.25-.32C522.26,769.8,520.3,764.08,522.45,758.93Zm-9.08,5.23,5.44,13.2-10.88,9.26-12.17-7.49,3.37-13.88Zm-29.62.65a17.47,17.47,0,0,1,1.06-2.12,2.6,2.6,0,0,1,.36.13c5.05,2.11,7.7,7.33,5.89,11.67-1.27,3.06-4.41,4.84-7.94,4.91A21.66,21.66,0,0,1,483.75,764.81Zm34.48,19.62a8.36,8.36,0,0,1,6.52-3.22,16,16,0,0,1,5.86,1.59l.44.21c-.16.44-.31.86-.49,1.29a22.59,22.59,0,0,1-10.38,11.28,8.83,8.83,0,0,1-3-3.64A7.84,7.84,0,0,1,518.23,784.43Zm-28.72,8.27c2.55-3.88,7-5.72,10.66-4.18,4,1.67,5.77,6.7,4.3,11.62a20.09,20.09,0,0,1-15-7.44Z" transform="translate(-215.5 -13.31)"/><path class="cls-3" d="M403.76,590.55A32.67,32.67,0,1,0,361,608.15,32.68,32.68,0,0,0,403.76,590.55ZM360.57,556.6a25.56,25.56,0,0,1,17.68-4.18,10.59,10.59,0,0,1-.8,3.47c-2.11,5.06-7.55,7.61-12.16,5.69A8.51,8.51,0,0,1,360.57,556.6Zm28.09,5.66a10.75,10.75,0,0,1,2.57-3.74,26.56,26.56,0,0,1,7.07,16.85A8.14,8.14,0,0,1,393,575C388.47,573.14,386.51,567.42,388.66,562.26Zm-9.08,5.23L385,580.7,374.14,590,362,582.47l3.36-13.88Zm-29.61.66a16.07,16.07,0,0,1,1-2.12,2.32,2.32,0,0,1,.37.13c5,2.1,7.69,7.33,5.89,11.66a8.53,8.53,0,0,1-7.95,4.92A21.59,21.59,0,0,1,350,568.15Zm34.47,19.62a8.33,8.33,0,0,1,6.52-3.22,15.78,15.78,0,0,1,5.86,1.59l.44.21c-.16.44-.31.86-.49,1.29a22.52,22.52,0,0,1-10.38,11.27,8.72,8.72,0,0,1-3-3.63A7.82,7.82,0,0,1,384.44,587.77ZM355.72,596c2.55-3.88,7-5.72,10.66-4.18,4,1.67,5.77,6.69,4.3,11.61a20.24,20.24,0,0,1-7.06-1.52A20.53,20.53,0,0,1,355.72,596Z" transform="translate(-215.5 -13.31)"/><path class="cls-3" d="M310.29,796.82a49.28,49.28,0,1,0-64.44,26.56A49.27,49.27,0,0,0,310.29,796.82Zm-65.15-51.2a38.51,38.51,0,0,1,26.68-6.31,16.27,16.27,0,0,1-1.21,5.23c-3.19,7.64-11.4,11.48-18.35,8.59A12.92,12.92,0,0,1,245.14,745.62Zm42.37,8.54a16,16,0,0,1,3.89-5.65,40,40,0,0,1,10.65,25.41,12.2,12.2,0,0,1-7.92-.49C287.24,770.56,284.28,761.93,287.51,754.16ZM273.82,762,282,782l-16.41,14-18.36-11.29,5.07-20.95Zm-44.68,1a27.09,27.09,0,0,1,1.59-3.19,3.69,3.69,0,0,1,.56.19c7.61,3.17,11.6,11.06,8.88,17.6-1.92,4.61-6.66,7.3-12,7.41A32.6,32.6,0,0,1,229.14,763Zm52,29.6a12.64,12.64,0,0,1,9.84-4.86c3.61,0,7.57,1.83,8.83,2.4l.67.32c-.24.66-.46,1.29-.73,2a34.08,34.08,0,0,1-15.66,17,13.19,13.19,0,0,1-4.51-5.49C277.11,798.09,280.8,793.08,281.15,792.63ZM237.82,805.1c3.86-5.84,10.5-8.62,16.08-6.3,6,2.52,8.71,10.1,6.49,17.52a30.43,30.43,0,0,1-10.64-2.3A30.82,30.82,0,0,1,237.82,805.1Z" transform="translate(-215.5 -13.31)"/><path class="cls-3" d="M421.6,821a19.26,19.26,0,1,0-25.18,10.37A19.27,19.27,0,0,0,421.6,821Zm-25.46-20a15,15,0,0,1,10.42-2.47,6.34,6.34,0,0,1-.47,2.05,5.61,5.61,0,0,1-7.17,3.35A5,5,0,0,1,396.14,801Zm16.56,3.33a6.19,6.19,0,0,1,1.52-2.2,15.65,15.65,0,0,1,4.16,9.93,4.86,4.86,0,0,1-3.1-.19C412.59,810.78,411.43,807.4,412.7,804.36Zm-5.35,3.08,3.2,7.79-6.41,5.46L397,816.27l2-8.18Zm-17.46.39a9.69,9.69,0,0,1,.62-1.25l.21.08c3,1.24,4.54,4.32,3.48,6.87a5,5,0,0,1-4.68,2.9A12.66,12.66,0,0,1,389.89,807.83Zm20.32,11.57a4.93,4.93,0,0,1,3.85-1.9,9.25,9.25,0,0,1,3.45.94l.26.12c-.09.26-.18.51-.29.76a13.25,13.25,0,0,1-6.12,6.65,5.17,5.17,0,0,1-1.76-2.14A4.6,4.6,0,0,1,410.21,819.4Zm-16.93,4.87c1.5-2.28,4.1-3.37,6.28-2.46,2.36,1,3.4,4,2.54,6.85a11.81,11.81,0,0,1-4.16-.9A12,12,0,0,1,393.28,824.27Z" transform="translate(-215.5 -13.31)"/><path class="cls-3" d="M607.83,1028.52a13.22,13.22,0,1,0-17.29,7.13A13.22,13.22,0,0,0,607.83,1028.52Zm-17.48-13.74a10.32,10.32,0,0,1,7.16-1.69,4.14,4.14,0,0,1-.33,1.4,3.85,3.85,0,0,1-4.92,2.31A3.51,3.51,0,0,1,590.35,1014.78Zm11.37,2.29a4.42,4.42,0,0,1,1-1.51,10.7,10.7,0,0,1,2.86,6.82,3.29,3.29,0,0,1-2.12-.14A3.88,3.88,0,0,1,601.72,1017.07Zm-3.67,2.12,2.2,5.34-4.4,3.75-4.93-3,1.36-5.62Zm-12,.26a5.21,5.21,0,0,1,.43-.85l.14,0a3.76,3.76,0,0,1,2.39,4.72,3.45,3.45,0,0,1-3.22,2A8.77,8.77,0,0,1,586.06,1019.45Zm14,7.94a3.44,3.44,0,0,1,2.64-1.3,6.28,6.28,0,0,1,2.37.65l.18.08c-.06.18-.12.35-.19.52a9.18,9.18,0,0,1-4.2,4.57,3.51,3.51,0,0,1-1.21-1.47A3.2,3.2,0,0,1,600,1027.39Zm-11.62,3.35a3.64,3.64,0,0,1,4.31-1.69c1.63.68,2.34,2.71,1.74,4.7a7.89,7.89,0,0,1-2.85-.62A8.25,8.25,0,0,1,588.39,1030.74Z" transform="translate(-215.5 -13.31)"/><path class="cls-4" d="M382.42,518.8c.06-5.23-.39-23.71-14.11-38.12-9.79-10.28-24.24-16.28-33.87-14.7-1,.16-5.88,1-6,2.23s3.86,2.55,5.67,2.57c18.2.22,24.85,12.69,19.56,17.5,0,0,.53-6.46-6.79-8.15-3.1-.72-12.11,1.79-7.48,9.73,1.38,2.37,5.15,3.2,10.5,3.35,0,0-12.2,5.09-20.62,1.05-8.58-4.12-13.86-4.07-14.47-3-1.34,2.28,16.89,21,42.72,26.54A74.36,74.36,0,0,0,382.42,518.8Z" transform="translate(-215.5 -13.31)"/></svg>