<svg width="192" height="259" viewBox="0 0 192 259" fill="none" xmlns="http://www.w3.org/2000/svg">
<path d="M88.0527 27.617C80.8579 31.592 72.6592 33.6422 64.4605 33.8096C60.0265 33.8933 55.6762 33.2656 51.284 32.8054C47.2265 32.387 43.1272 32.1359 39.1115 32.9728C35.3886 33.7259 31.6239 35.3577 29.3651 38.5377C28.9049 39.2072 29.9925 39.8348 30.4527 39.1653C32.4187 36.4456 35.7233 35.023 38.9023 34.3117C42.8344 33.433 46.9337 33.6422 50.9076 34.0606C55.2579 34.5209 59.6082 35.1485 64.0004 35.1067C68.0997 35.0648 72.1572 34.5627 76.1311 33.6004C80.5233 32.5543 84.7481 30.9225 88.7219 28.7467C89.3912 28.3283 88.7638 27.2404 88.0527 27.617Z" fill="black"/>
<path d="M91.1469 29.6659C90.3522 26.3604 87.4659 24.0173 84.4541 22.8039C80.7731 21.2976 76.5901 21.4231 72.8254 22.511C64.7522 24.8541 59.0633 31.5069 54.1692 37.9924C51.1992 41.9255 48.5221 46.026 46.1796 50.3775C45.8031 51.0889 46.8907 51.7165 47.2672 51.0052C49.2332 47.4068 51.4084 43.8921 53.7927 40.5866C56.1352 37.3229 58.645 34.143 61.4476 31.2559C64.1665 28.4525 67.262 25.9838 70.9012 24.5194C74.4149 23.0968 78.4306 22.4691 82.1535 23.3897C85.4999 24.2265 89.0554 26.4441 89.9339 30.0425C90.143 30.7538 91.3561 30.4609 91.1469 29.6659Z" fill="black"/>
<path d="M82.5725 40.7119C80.23 42.3438 77.3019 42.9295 74.4575 42.6785C73.0771 42.553 71.6548 42.2182 70.3999 41.5906C69.1032 40.963 67.7646 40.0425 67.2627 38.6198C67.0117 37.8667 65.7986 38.2014 66.0496 38.9546C67.179 42.0927 70.9437 43.5153 73.9555 43.8501C77.1346 44.2266 80.5228 43.599 83.1581 41.758C83.8692 41.3396 83.2418 40.2517 82.5725 40.7119Z" fill="black"/>
<path d="M84.0783 38.0354C81.192 35.776 77.1763 36.4454 73.9135 37.4915C70.0652 38.7467 66.175 40.5459 62.9959 43.0564C59.5658 45.7761 56.8469 49.3327 54.0443 52.6382C52.5384 54.3955 51.0325 56.1529 49.5266 57.9102C48.3135 59.3328 47.0586 60.7554 45.5109 61.7596C43.8796 62.8475 42.0809 63.4333 40.1567 63.2659C38.609 63.1404 36.8521 62.5128 36.141 61.0483C35.8064 60.337 34.7188 60.9646 35.0534 61.676C36.392 64.5212 40.4913 64.9815 43.2103 64.2283C47.0586 63.1404 49.5684 59.7512 52.0364 56.8642C53.5841 55.065 55.1318 53.2658 56.6796 51.4666C58.06 49.8348 59.4403 48.1611 60.9462 46.613C62.4103 45.1067 63.9998 43.684 65.7985 42.5543C67.5972 41.4246 69.5632 40.4622 71.5292 39.6672C73.4952 38.8722 75.5031 38.1191 77.6364 37.8262C79.5188 37.5752 81.6521 37.6588 83.1998 38.8722C83.8273 39.4162 84.7475 38.5375 84.0783 38.0354Z" fill="black"/>
<path d="M158.952 101.801C158.952 101.968 158.91 102.094 158.827 102.261C157.614 104.897 146.821 106.32 144.353 111.717C144.312 111.801 144.27 111.885 144.27 111.968C135.82 132.722 116.955 165.149 116.955 165.149C117.08 165.317 117.164 165.526 117.289 165.693C117.582 166.153 117.833 166.572 118.126 166.99C118.544 167.702 119.004 168.413 119.465 169.124C122.602 174.229 125.739 179.501 128.416 184.898C130.424 188.957 142.848 189.752 144.144 194.062C148.578 208.706 137.117 233.477 118.712 236.991C116.997 237.326 115.24 237.535 113.525 237.619C112.772 237.661 112.061 237.703 111.308 237.703C111.015 237.703 110.722 237.703 110.429 237.703C110.136 237.703 109.885 237.703 109.593 237.703C108.547 237.703 107.585 237.661 106.623 237.619C106.121 237.619 105.577 237.577 105.117 237.535C104.406 237.494 103.778 237.452 103.151 237.368C99.5952 237.033 97.2527 236.531 97.2527 236.531C81.8175 235.192 76.1286 226.113 75.292 214.815C75.292 214.69 75.292 214.606 75.2501 214.481C73.8279 193.141 89.3469 164.103 89.3469 164.103C89.0541 163.643 88.8031 163.141 88.5103 162.681C87.7155 161.258 86.9207 159.919 86.1678 158.538C62.492 116.948 56.2593 102.554 59.0201 83.0559C59.3965 80.2943 60.1495 77.1143 61.1534 73.7252C66.0475 57.2395 77.5926 35.3145 90.9364 25.8583C95.1612 22.8457 99.5952 21.1302 104.029 21.2139C109.383 21.2975 116.871 21.7578 120.761 24.5612C121.682 25.1888 122.518 25.9001 123.313 26.6533C126.45 29.624 128.834 33.2224 130.759 37.0719C131.93 39.3731 130.717 41.8 131.637 44.2268C132.348 46.026 134.147 50.503 134.983 52.1767C139.585 61.3819 143.14 69.3318 148.202 78.2022C152.05 85.1898 159.119 93.3489 158.952 101.801Z" fill="#EAEAEA"/>
<path d="M159.287 101.802C159.12 103.517 156.652 104.27 155.355 104.94C153.85 105.567 152.344 106.153 150.88 106.823C148.746 107.827 146.529 108.998 145.107 110.965C144.689 111.509 144.354 112.471 144.061 113.099C136.323 131.091 126.827 148.204 117.123 165.192V164.982C119.758 169.167 122.352 173.309 124.819 177.577C126.033 179.711 127.246 181.886 128.333 184.062C128.793 185.192 129.588 185.987 130.676 186.573C133.897 188.372 137.536 189.083 140.924 190.673C142.095 191.217 143.225 191.887 144.019 192.975C144.731 194.062 144.856 195.401 145.107 196.657C145.525 199.125 145.525 201.636 145.274 204.104C143.894 216.322 137.076 228.414 126.242 234.607C121.891 237.076 116.83 237.954 111.852 238.08C106.916 238.247 101.98 237.829 97.0862 236.908C63.5803 234.063 75.3763 194.523 84.4116 173.895C85.8757 170.547 87.4234 167.242 89.0966 164.02V164.229C80.6051 149.376 71.8208 134.605 64.7933 118.957C58.5607 105.065 55.7999 92.1361 59.6482 77.0731C64.1241 59.6669 75.4182 37.0306 89.8496 25.9844C94.5763 22.386 100.056 20.2102 106.08 20.796C111.057 21.0889 116.453 21.34 120.804 24.0597C125.531 27.4489 129.044 32.3862 131.429 37.6582C132.098 39.7085 131.261 42.0934 131.972 43.9763C133.395 47.7839 135.277 52.0099 137.159 55.6501C140.924 63.349 144.563 71.0897 148.788 78.4957C152.971 85.8598 159.287 92.8892 159.287 101.802ZM158.618 101.802C158.535 93.0985 152.26 86.1946 148.077 78.9978C143.768 71.5918 140.129 63.8093 136.323 56.1104C134.399 52.4283 132.558 48.2023 131.094 44.3529C130.299 42.3026 131.136 40.0432 130.508 37.993C128.208 32.9301 124.778 28.1602 120.26 24.9384C116.077 22.3442 110.89 22.135 106.038 21.8421C103.235 21.6747 100.433 21.8421 97.7973 22.8044C85.3319 27.4489 75.8365 42.1771 69.8548 53.5581C62.2835 68.5374 56.0927 85.6925 60.0665 102.555C62.6182 113.643 67.8051 123.978 72.9502 134.061C78.2208 144.187 83.826 154.104 89.4731 164.062L89.5149 164.146L89.4731 164.229C87.7999 167.451 86.294 170.757 84.8718 174.104C76.2966 194.188 64.2495 233.561 97.2535 236.197C104.406 237.494 111.936 237.912 119.089 236.49C131.178 233.728 139.544 222.557 143.057 211.176C144.689 205.653 145.358 199.711 143.727 194.146C143.267 192.765 141.886 192.054 140.589 191.385C138.414 190.339 136.03 189.627 133.729 188.749C132.014 188.079 130.174 187.368 128.793 186.029C128.333 185.569 128.04 184.941 127.748 184.397C126.66 182.179 125.489 180.045 124.318 177.912C121.933 173.644 119.34 169.418 116.788 165.234L116.704 165.108L116.788 164.982C126.409 147.995 135.904 130.84 143.559 112.89C143.81 112.262 144.229 111.216 144.647 110.63C147.157 107.199 151.423 105.986 155.104 104.312C156.192 103.81 157.321 103.35 158.158 102.597C158.409 102.345 158.618 102.053 158.618 101.802Z" fill="black"/>
<path d="M114.238 112.763C112.858 116.111 111.436 119.458 110.013 122.68C109.637 123.517 109.26 124.354 108.842 125.19C108.591 125.734 108.34 126.278 108.089 126.822C105.872 131.592 103.613 135.944 101.522 139.542C101.48 139.458 101.438 139.375 101.396 139.291C99.514 135.567 100.058 126.195 100.518 118.789C100.769 115.023 100.936 111.801 100.811 110.086C100.769 109.625 100.727 109.291 100.602 109.081C99.3048 106.027 93.9506 104.186 89.4329 102.303C86.0447 100.922 83.1584 99.5415 82.7819 97.6586C81.0669 89.1229 81.6525 78.1604 86.5048 73.9344C89.2238 71.5913 96.2094 73.9344 103.822 74.9386C105.956 75.2315 108.173 75.3989 110.348 75.357C112.188 75.3152 114.029 75.106 115.786 74.6457C116.832 74.3528 117.836 74.0181 118.798 73.516C119.132 73.3486 119.467 73.1812 119.802 72.972C119.885 72.9302 119.927 72.8884 120.011 72.8465C120.513 72.5118 121.056 72.177 121.517 71.8005C122.562 71.0055 123.399 70.6289 124.026 70.6289C124.194 70.6289 124.361 70.6707 124.487 70.7126C128.335 72.2189 122.27 92.9305 114.238 112.763Z" fill="#8C1539" stroke="black" stroke-width="0.75" stroke-miterlimit="10"/>
<path d="M87.7595 225.067C71.1112 221.343 83.5347 185.527 88.8889 172.012C90.1438 168.832 91.0223 166.865 91.0223 166.865C91.2732 167.284 91.5242 167.66 91.7752 168.079C91.9425 168.372 92.1098 168.664 92.2772 168.957C92.4445 169.208 92.57 169.501 92.7373 169.752C92.8628 169.962 92.9883 170.171 93.1138 170.422C93.2811 170.715 93.4066 170.966 93.5739 171.259C93.7412 171.593 93.9085 171.928 94.1177 172.305C94.3268 172.681 94.4942 173.058 94.6615 173.434C94.8288 173.811 95.0379 174.229 95.2053 174.606C95.4144 175.024 95.5817 175.443 95.7909 175.903C95.9164 176.238 96.0837 176.531 96.2092 176.865C96.251 176.949 96.2929 177.033 96.3347 177.158C96.4183 177.409 96.5438 177.66 96.6275 177.911C96.8366 178.455 97.0876 179.041 97.2968 179.585C97.5896 180.38 97.8824 181.133 98.1334 181.928C98.2589 182.347 98.4262 182.765 98.5517 183.183C98.6353 183.518 98.7608 183.853 98.8445 184.188C98.9281 184.397 98.97 184.648 99.0536 184.857C99.0955 184.941 99.0955 185.025 99.1373 185.108C99.221 185.443 99.3464 185.736 99.4301 186.071C99.5138 186.447 99.6393 186.824 99.7229 187.158C99.9321 187.912 100.099 188.623 100.267 189.376C100.35 189.753 100.434 190.129 100.518 190.464C100.601 190.841 100.685 191.217 100.769 191.552C100.852 191.928 100.936 192.263 100.978 192.64V192.682C101.103 193.393 101.271 194.146 101.354 194.857C101.48 195.61 101.605 196.322 101.689 197.033C101.773 197.744 101.856 198.456 101.94 199.167C101.982 199.544 102.024 199.878 102.024 200.213C103.404 215.36 99.5138 227.703 87.7595 225.067Z" fill="#8C1539" stroke="black" stroke-width="0.75" stroke-miterlimit="10"/>
<path d="M106.081 38.662C106.081 38.662 103.111 40.0428 101.73 40.0846C105.161 41.8001 107.838 40.2101 110.64 39.6662C112.732 39.2478 114.029 39.6662 117.166 39.8336C117.166 39.8336 116.246 39.6662 113.819 38.1181C111.435 36.5699 109.427 37.1975 106.081 38.662Z" fill="black"/>
<path d="M123.607 45.525C124.444 41.3408 126.954 41.3408 128.627 41.7592C131.973 42.5961 130.719 43.8513 130.719 43.8513C130.719 43.8513 132.81 41.3408 131.973 40.504C130.844 39.3743 128.711 39.5835 127.33 40.0437C125.992 40.504 124.946 41.55 124.402 42.8471C123.817 44.2279 124.026 43.8513 123.607 45.525Z" fill="black"/>
<path d="M119.214 61.0061C118.168 61.3408 117.123 61.8429 116.077 62.4705C113.693 63.8932 111.434 65.9016 109.635 67.4915C107.878 69.0815 106.623 70.2531 106.163 70.1694C105.41 70.0439 103.612 68.5376 102.984 65.9852C102.691 64.7718 102.65 63.3074 103.11 61.6337C103.946 58.6211 105.703 56.9474 107.125 56.3198C108.046 55.9014 108.84 55.9432 109.091 56.3198C109.133 56.3617 109.133 56.4035 109.175 56.4453C109.551 57.6587 113.107 61.299 117.876 60.2111C119.842 59.7927 120.762 60.2529 119.214 61.0061Z" fill="#8C1539"/>
<path d="M119.299 61.257C115.116 62.6378 111.811 65.734 108.59 68.5793C107.837 69.1651 107.168 70.0019 106.206 70.2948C105.662 70.2529 105.244 69.8345 104.825 69.5416C102.567 67.4914 102.065 64.1022 102.943 61.257C103.654 58.7883 105.411 56.0686 108.172 55.6502C108.59 55.6084 109.134 55.7339 109.385 56.1523L109.468 56.3197C109.636 56.7381 110.012 57.1983 110.389 57.5749C112.271 59.4578 115.074 60.4201 117.709 59.918C118.462 59.8344 119.299 59.5833 120.052 59.9599C120.763 60.462 119.759 61.0896 119.299 61.257ZM119.089 60.7549C119.299 60.6294 119.591 60.462 119.675 60.3365C119.675 60.3365 119.675 60.3365 119.675 60.3783C119.675 60.4201 119.675 60.4201 119.675 60.462C119.717 60.5038 119.675 60.5038 119.675 60.5038C119.131 60.3365 118.462 60.5457 117.876 60.6712C116.747 60.9641 115.534 61.0059 114.363 60.7549C112.062 60.2946 109.594 58.5791 108.716 56.6126C108.716 56.5707 108.716 56.6126 108.674 56.5707C108.674 56.5707 108.632 56.5289 108.59 56.5289C107.461 56.3197 106.373 57.1147 105.578 57.8678C102.567 60.7967 101.772 66.3617 104.993 69.4161C105.327 69.709 105.662 70.0019 106.08 70.1274C106.164 70.1693 106.206 70.1274 106.289 70.1274C107.084 69.7508 107.753 69.0814 108.423 68.4956C111.685 65.5667 114.906 62.2612 119.089 60.7549Z" fill="black"/>
<path d="M116.036 62.4294C114.112 62.0528 110.682 61.216 109.134 59.4587C108.716 58.9984 108.423 58.4126 108.13 57.9105C107.837 57.3666 107.544 56.8226 107.168 56.3624C107.586 56.195 107.963 56.1113 108.297 56.1113C108.632 56.1113 108.883 56.195 109.008 56.3624C109.05 56.4042 109.05 56.4461 109.092 56.4879C109.385 57.4503 112.104 60.5047 116.12 60.5047C116.705 60.5047 117.291 60.421 117.876 60.2955C118.378 60.17 118.88 60.1281 119.257 60.1281C119.759 60.1281 119.926 60.2537 119.968 60.3373C119.968 60.3792 119.968 60.6302 119.215 60.965C118.211 61.2579 117.165 61.76 116.036 62.4294Z" fill="white"/>
<path d="M108.297 56.1529C108.59 56.1529 108.841 56.2366 108.966 56.4039C109.008 56.4458 109.008 56.4876 109.05 56.5294C109.426 57.7429 112.313 60.5462 116.119 60.5462C116.705 60.5462 117.332 60.4626 117.918 60.337C118.42 60.2115 118.88 60.1697 119.257 60.1697C119.758 60.1697 119.884 60.2952 119.926 60.337C119.926 60.4207 119.8 60.6299 119.215 60.9228C118.253 61.2576 117.207 61.7178 116.077 62.3873C114.153 62.0107 110.765 61.1739 109.217 59.4165C108.799 58.9563 108.506 58.4123 108.213 57.8684C107.921 57.3663 107.67 56.8223 107.293 56.4039C107.628 56.2366 108.004 56.1529 108.297 56.1529ZM108.297 56.0273C107.962 56.0273 107.544 56.111 107.084 56.3202C107.921 57.2408 108.255 58.5378 109.092 59.4584C110.389 60.9647 113.275 61.927 116.036 62.471C117.081 61.8433 118.127 61.3412 119.173 61.0065C120.302 60.4626 120.135 60.0441 119.215 60.0441C118.838 60.0441 118.378 60.086 117.834 60.2115C117.207 60.337 116.621 60.4207 116.077 60.4207C112.187 60.4207 109.468 57.5336 109.134 56.4458C109.092 56.4039 109.092 56.3621 109.05 56.3202C108.925 56.1529 108.674 56.0273 108.297 56.0273Z" fill="black"/>
<path d="M106.164 70.1281C105.536 70.0026 103.738 68.7055 103.068 66.1113C103.57 66.4461 105.787 67.7432 108.13 67.7432C108.59 67.7432 109.008 67.7013 109.427 67.6176L109.217 67.785C107.795 69.1239 106.624 70.1281 106.164 70.1281Z" fill="white"/>
<path d="M103.152 66.2366C103.821 66.655 105.912 67.7847 108.129 67.7847C108.506 67.7847 108.882 67.7429 109.259 67.701L109.217 67.7428C107.753 69.0399 106.624 70.086 106.205 70.086C106.205 70.086 106.205 70.086 106.163 70.086C105.411 69.9605 103.779 68.5378 103.152 66.2366ZM102.984 66.0273C103.612 68.5797 105.411 70.086 106.163 70.2115H106.205C106.707 70.2115 107.962 69.0399 109.635 67.5336C109.133 67.6592 108.631 67.701 108.171 67.701C105.411 67.701 102.984 66.0273 102.984 66.0273Z" fill="black"/>
<path d="M105.076 55.1482C106.457 54.7716 108.674 54.8553 109.134 56.4871C108.13 55.2737 106.498 55.3574 105.076 55.1482Z" fill="black"/>
<path d="M92.6951 146.238C92.6951 146.238 93.2389 145.15 93.5317 145.401C93.8663 145.652 93.699 146.322 94.4101 146.866C95.1212 147.41 94.6611 148.33 94.0336 147.954C94.0336 147.954 94.2009 148.372 93.9918 148.623C93.7826 148.874 93.3225 148.874 92.8205 148.539C92.2768 148.163 91.6493 147.786 91.4402 147.661C91.231 147.535 91.5238 146.782 91.9421 146.657C91.9421 146.657 90.5617 145.82 89.9343 144.606C89.3068 143.393 89.5996 143.225 89.767 143.267C89.9761 143.309 91.3983 143.853 92.6951 146.238Z" fill="#8C1539"/>
<path d="M99.2196 153.434C99.2196 153.434 97.1281 151.969 96.5425 151.174C95.9987 150.379 95.0784 149.459 94.2836 149.5C93.5307 149.542 93.8235 150.756 95.2457 151.383C96.6679 152.011 96.7098 152.22 96.7516 152.555C96.7516 152.89 97.5045 153.768 98.0483 153.977C98.5921 154.145 99.6797 154.772 99.8889 155.107C100.056 155.442 101.144 156.613 102.65 156.362C104.197 156.111 103.737 153.726 103.361 153.35C102.984 152.973 101.855 151.969 101.729 151.634C101.604 151.3 100.516 149.793 99.9725 149.5C99.4287 149.207 99.1777 149.5 98.8431 149.082C98.5085 148.664 96.9608 147.032 96.166 147.157C95.3712 147.283 95.9987 148.371 96.8771 148.789C97.7555 149.207 100.223 150.337 100.809 151.676C100.809 151.676 98.7594 150.044 97.9228 149.668C97.0862 149.333 96.2078 149.207 96.2496 149.668C96.2915 150.17 96.166 150.421 99.2196 153.434Z" fill="#8C1539"/>
<path d="M95.9149 152.472C95.9149 152.472 93.5306 151.301 92.6103 151.97C91.6482 152.64 93.0705 153.602 93.9489 153.393C94.7855 153.184 94.0744 152.431 96.0404 152.514L95.9149 152.472Z" fill="#8C1539"/>
<path d="M98.8014 148.162C98.8014 148.162 96.7098 146.53 96.919 145.359C97.1281 144.229 98.634 145.108 98.8014 145.944C98.9687 146.781 98.0066 146.447 98.885 148.204L98.8014 148.162Z" fill="#8C1539"/>
<path d="M103.655 156.908C103.655 156.908 102.944 157.828 100.811 156.782C98.7193 155.736 95.2893 152.933 93.867 154.062C93.867 154.062 94.62 154.69 94.62 154.774C94.62 154.774 93.2814 154.983 93.0723 155.778C93.0723 155.778 94.2017 156.489 94.2017 156.615C94.2017 156.74 93.2396 157.786 94.118 158.121C94.118 158.121 94.2853 157.703 94.8291 158.079C95.3729 158.414 95.7912 159.376 97.0043 159.293C98.2174 159.209 98.7612 157.493 96.9206 156.447C96.2932 156.154 95.7076 156.406 95.9167 156.991C95.9167 156.991 97.3389 156.908 97.2553 158.121C97.1716 159.293 95.6657 158.247 95.2056 157.577C94.7036 156.949 94.7873 155.067 96.4605 155.318C98.1337 155.611 99.5978 157.201 100.183 157.619C100.769 158.121 103.613 159.125 103.655 156.908Z" fill="#8C1539"/>
<path d="M106.289 149.041C106.289 150.254 104.658 150.923 103.445 149.208C103.068 148.622 103.319 147.995 103.905 148.162C103.905 148.162 103.947 149.585 105.118 149.375C106.289 149.208 105.076 147.785 104.407 147.367C103.738 146.949 101.855 147.158 102.273 148.79C102.692 150.421 104.407 151.76 104.909 152.304C105.411 152.848 106.624 155.568 104.449 155.819C104.449 155.819 105.285 155.024 104.072 153.016C102.817 151.007 99.7636 147.827 100.768 146.321C100.768 146.321 101.479 147.032 101.562 147.032C101.562 147.032 101.646 145.651 102.441 145.4C102.441 145.4 103.277 146.488 103.361 146.446C103.487 146.405 104.449 145.4 104.867 146.195C104.867 146.195 104.49 146.405 104.867 146.907C104.992 147.032 105.118 147.158 105.285 147.325C105.578 147.744 105.913 148.162 106.205 148.58C106.247 148.79 106.289 148.915 106.289 149.041Z" fill="#8C1539"/>
<path d="M115.66 166.908C115.66 166.908 115.869 164.816 114.322 163.226C112.774 161.594 107.964 158.247 107.252 156.698C106.583 155.192 106.667 153.686 107.754 153.393C108.34 153.267 109.051 153.267 109.804 153.519C110.139 153.979 110.473 154.439 110.766 154.857C110.264 154.899 109.762 155.192 110.055 156.447C110.473 158.456 112.69 158.54 114.656 160.381C115.242 161.259 115.828 162.096 116.371 162.933C117.083 165.234 115.66 166.908 115.66 166.908Z" fill="#8C1539"/>
<path d="M103.529 165.107C103.529 165.107 102.191 164.605 102.065 162.095C101.94 159.584 104.324 158.413 107.169 161.76C110.013 165.107 109.344 168.078 113.192 169.208C113.192 169.208 112.732 170.338 110.808 170.045C108.884 169.752 108.047 168.12 107.001 165.066C105.914 162.095 102.776 162.513 103.529 165.107Z" fill="#8C1539"/>
<path d="M106.416 158.58C106.416 158.58 109.177 162.681 109.386 163.225C109.595 163.768 111.77 167.785 113.318 167.576C113.653 167.534 115.033 168.915 119.76 178.831C120.053 179.334 119.969 179.919 119.927 180.129C119.843 180.338 119.258 182.053 122.479 184.062C122.479 184.062 122.521 181.551 122.186 180.547C121.851 179.543 120.847 179.585 120.345 178.162C119.843 176.739 115.87 169.459 114.824 168.162C113.736 166.865 114.531 166.446 114.322 165.861C114.113 165.275 112.356 161.676 106.416 158.58Z" fill="#8C1539"/>
<path d="M117.626 165.861C117.626 165.861 116.58 168.414 117.584 170.464C118.588 172.514 119.717 174.02 119.717 174.648C119.717 174.648 120.889 174.355 121.181 172.389C121.516 170.422 117.961 166.573 117.626 165.861Z" fill="#8C1539"/>
<path d="M111.811 170.841C111.811 170.841 113.567 174.063 114.111 175.611C114.655 177.159 116.997 177.075 117.792 176.071C117.792 176.071 116.705 173.937 116.454 173.435C116.203 172.933 115.617 170.674 111.811 170.841Z" fill="#8C1539"/>
<path d="M123.315 175.149C122.478 175.358 121.182 175.986 121.182 175.986C121.474 174.982 122.269 174.103 122.646 173.727C122.897 174.187 123.106 174.689 123.315 175.149Z" fill="#8C1539"/>
<path d="M117.96 178.246C117.96 178.246 113.191 182.263 112.731 185.819C112.731 185.819 112.187 185.024 112.271 184.606C112.271 184.606 110.932 185.568 110.598 185.527C110.598 185.527 111.309 183.727 111.309 183.602C111.351 183.476 110.765 183.518 110.765 183.518C110.765 183.518 112.689 178.33 117.96 178.246Z" fill="#8C1539"/>
<path d="M119.675 179.586C119.675 179.586 118.044 180.297 117.04 182.306C116.036 184.314 116.413 185.318 117.249 185.82C117.249 185.82 118.755 184.565 118.17 183.226C118.17 183.226 119.968 183.059 120.052 182.975C120.094 182.891 118.713 181.301 119.675 179.586Z" fill="#8C1539"/>
<path d="M125.154 179.543C124.987 179.417 124.861 179.333 124.778 179.333C124.778 179.333 124.234 180.714 123.397 180.84C123.397 180.84 123.355 178.664 121.348 178.371C121.348 178.371 121.473 177.492 124.234 177.283C124.569 178.036 124.861 178.79 125.154 179.543Z" fill="#8C1539"/>
<path d="M120.471 183.309C120.471 183.309 121.057 185.024 120.596 186.028C120.178 187.033 119.258 187.66 118.254 186.74C118.254 186.74 119.007 186.489 119.174 185.861C119.341 185.233 119.969 183.35 120.471 183.309Z" fill="#8C1539"/>
<path d="M121.222 184.062C121.222 184.062 121.724 186.908 120.93 187.577C120.93 187.577 122.561 187.703 122.728 186.364C122.896 185.109 121.306 184.062 121.222 184.062Z" fill="#8C1539"/>
<path d="M123.441 185.652C123.441 185.652 123.232 188.121 123.985 188.247C124.737 188.372 125.114 187.284 124.654 186.866C124.194 186.447 123.566 185.82 123.441 185.652Z" fill="#8C1539"/>
<path d="M126.326 184.858C126.326 184.858 125.698 185.946 125.322 186.03C124.945 186.113 123.439 185.946 123.607 183.436C123.607 183.436 125.196 184.733 125.573 184.816C125.991 184.9 126.326 184.858 126.326 184.858Z" fill="#8C1539"/>
<path d="M126.409 183.56C125.74 184.146 124.778 183.56 124.527 183.184C124.234 182.724 123.439 181.761 123.439 181.761C123.439 181.761 123.9 180.966 125.029 181.803C125.364 182.054 125.74 182.18 126.033 182.221C126.158 182.682 126.284 183.1 126.409 183.56Z" fill="#8C1539"/>
<path d="M101.396 166.111C101.396 166.111 104.45 168.371 102.526 171.467C102.526 171.467 104.659 171.132 104.366 168.873C104.115 166.655 101.396 166.111 101.396 166.111Z" fill="#8C1539"/>
<path d="M99.472 170.044C99.472 170.044 99.5557 172.346 101.103 171.76C102.651 171.174 103.028 168.622 100.936 166.948C98.8446 165.233 97.0459 167.074 96.9622 167.659C96.9622 167.659 95.6237 166.781 95.5818 166.53C95.5818 166.53 94.3269 167.325 96.1256 169.961C96.1256 169.961 94.5779 170.086 94.4524 169.751C94.4524 169.751 93.6995 171.383 96.6694 173.057C96.6694 173.057 95.6237 173.726 95.4982 173.81C95.4982 173.81 96.4603 175.86 98.9701 175.484C101.48 175.107 103.906 173.224 106.583 173.559C109.26 173.894 111.352 176.488 110.432 180.17C110.264 180.547 110.557 181.049 110.641 181.091C110.641 181.091 111.477 179.459 111.31 177.743C111.143 176.07 110.85 174.27 107.629 172.848C104.408 171.425 100.518 174.521 97.8407 171.969C95.1635 169.417 99.2629 165.86 100.811 168.705C101.145 169.291 101.229 171.341 99.472 170.044Z" fill="#8C1539"/>
<path d="M109.93 177.535C109.93 177.535 104.575 176.489 100.769 181.133C100.769 181.133 100.853 179.46 101.313 179.083C101.313 179.083 99.6813 179.167 99.5977 179.209C99.5977 179.209 100.518 177.368 101.856 176.907C101.856 176.907 101.48 176.824 101.145 176.866C101.145 176.866 105.956 172.221 109.93 177.535Z" fill="#8C1539"/>
<path d="M101.605 231.553C101.396 228.791 99.9317 227.578 97.4219 226.824C97.9238 226.657 98.4258 226.657 98.9278 226.657C98.8023 226.28 98.6349 225.82 98.384 225.527C99.1369 225.653 99.8898 225.778 100.559 226.197C100.601 226.029 100.559 225.862 100.434 225.737C103.194 226.699 102.902 229.502 101.605 231.553Z" fill="#8C1539"/>
<path d="M104.616 222.932C104.156 223.1 103.277 223.351 103.821 224.146C104.365 224.899 105.745 225.777 106.916 224.522C108.088 223.309 107.46 221.133 105.494 220.589C105.536 220.213 105.494 219.627 105.829 219.418C104.909 219.292 104.407 219.962 104.03 220.715C103.654 220.338 103.319 220.296 103.319 219.669C102.231 220.213 101.353 221.133 101.311 222.346C101.06 222.221 100.809 222.012 100.6 221.761C99.9726 222.765 99.9726 223.434 100.977 224.439C101.98 225.443 104.156 226.991 104.197 228.832C104.239 230.715 102.692 232.305 100.893 232.472C100.516 232.514 99.5543 232.849 100.516 233.225C101.478 233.602 104.072 232.305 104.783 231.008C105.494 229.711 105.452 228.079 104.49 226.907C103.528 225.736 102.106 224.062 102.65 222.639C103.194 221.217 105.285 220.84 105.912 221.844C106.54 222.849 105.996 223.476 105.369 223.727C104.783 224.02 104.323 223.393 104.616 222.932Z" fill="#8C1539"/>
<path d="M102.609 236.908C102.609 236.908 99.3877 234.523 96.8361 235.025C96.8361 235.025 97.2544 234.398 97.5472 234.398C97.5472 234.398 96.7943 233.728 96.627 233.645C96.627 233.645 97.4217 233.435 98.1747 233.728C98.1747 233.728 98.091 233.435 98.0073 233.352C98.0073 233.31 101.772 233.854 102.609 236.908Z" fill="#8C1539"/>
<path d="M105.83 230.883C105.83 230.883 104.241 232.473 103.697 232.766C103.153 233.059 102.191 233.77 102.568 234.649C102.944 235.527 103.404 235.82 103.404 235.82C103.404 235.82 105.454 234.063 105.914 233.351C106.332 232.64 105.956 231.092 105.83 230.883Z" fill="#8C1539"/>
<path d="M117.249 229.083C117.249 229.083 117.249 227.744 116.538 227.996C115.827 228.205 115.032 229.167 114.823 230.171C114.614 231.134 113.777 233.309 112.146 233.853C110.514 234.355 109.636 233.895 109.301 233.56C109.301 233.56 106.959 235.862 105.118 237.661C104.407 237.619 103.78 237.535 103.152 237.494C103.152 237.494 106.499 235.276 108.172 232.933C108.172 232.933 107.294 231.845 107.126 231.385C106.959 230.924 106.875 229.585 108.339 228.791C109.803 227.954 111.1 226.698 110.891 225.862C110.682 225.025 109.552 225.067 109.176 225.569C109.176 225.569 109.72 223.728 111.56 223.811C113.401 223.895 112.982 225.82 112.648 226.28C112.313 226.74 110.222 229.209 110.473 230.004C110.473 230.004 113.735 226.74 114.07 226.196C114.07 226.196 113.401 229.167 112.146 230.966C112.229 230.883 113.484 229.711 113.944 228.958C114.405 228.205 115.576 225.652 116.873 225.862C118.044 225.945 118.504 227.577 117.249 229.083Z" fill="#8C1539"/>
<path d="M111.894 234.901L109.552 237.788C108.506 237.788 107.544 237.746 106.582 237.704C107.879 236.365 109.928 234.691 111.894 234.901Z" fill="#8C1539"/>
<path d="M123.481 233.646C123.481 233.646 122.436 235.528 121.055 235.738C119.842 235.947 114.864 234.148 111.267 237.704C110.974 237.704 110.681 237.704 110.389 237.704C111.769 236.031 114.028 233.897 116.329 234.273C120.051 234.817 121.515 234.231 122.519 232.307C123.481 230.424 122.98 229.587 121.39 230.131C119.842 230.675 119.968 233.604 121.39 231.93C121.348 232.014 120.888 233.98 119.466 233.06C118.002 232.097 119.131 227.62 122.645 229.085C123.105 229.21 123.523 229.587 124.151 227.955C124.151 227.955 124.946 228.541 123.565 230.8C123.607 230.758 124.569 230.298 124.736 229.963C124.736 229.963 125.155 231.261 122.729 233.562C122.77 233.646 123.189 233.771 123.481 233.646Z" fill="#8C1539"/>
<path d="M118.63 236.993C116.915 237.328 115.158 237.537 113.443 237.662C114.907 236.867 116.832 236.156 118.63 236.993Z" fill="#8C1539"/>
<path d="M118.169 220.089C118.169 220.089 118.504 219.921 118.88 219.336C119.257 218.792 120.428 217.913 120.805 218.122C120.805 218.122 120.679 218.875 120.763 218.917C120.763 218.917 121.348 218.499 122.143 218.917C122.143 218.917 121.599 219.796 121.767 220.047C121.767 220.047 122.603 220.089 122.729 220.591C122.729 220.591 121.976 220.758 121.892 221.428C121.85 222.097 121.348 223.311 120.721 223.311C120.094 223.311 119.55 222.934 119.55 222.139C119.55 221.344 120.052 220.005 120.888 220.8C120.888 220.8 119.801 221.344 120.428 222.181C121.056 223.06 122.478 220.424 120.679 219.754C118.922 219.085 118.755 223.143 118.002 223.98C117.249 224.859 116.538 224.817 115.701 224.357C114.865 223.896 114.237 224.775 113.233 223.52C112.271 222.306 113.777 220.34 113.401 219.085C113.024 217.829 111.978 217.495 111.435 218.331C110.891 219.168 111.016 220.298 111.518 220.173C112.02 220.047 112.439 219.378 111.978 219.043C111.978 219.043 112.313 218.499 112.606 218.959C112.899 219.419 112.564 221.219 111.602 221.26C110.64 221.302 110.305 220.424 110.473 219.545C110.64 218.624 111.142 218.248 110.431 218.08C110.431 218.08 110.347 217.16 111.644 217.62C111.644 217.62 111.686 216.783 111.477 216.616C111.477 216.616 111.978 216.281 112.941 217.244C112.941 217.244 113.108 216.741 113.024 216.574C113.024 216.574 113.694 216.49 114.112 218.039C114.572 219.587 114.823 219.545 114.823 219.545C114.823 219.545 114.948 217.662 115.827 217.369C116.663 217.076 115.66 216.114 115.66 215.612C115.66 215.612 116.454 215.319 116.789 215.905C116.789 215.905 116.747 212.85 117.249 212.139C117.751 211.428 118.169 213.227 118.002 214.189C117.835 215.152 117.375 215.612 118.002 215.654C118.588 215.654 118.713 216.156 118.713 216.156C118.713 216.156 118.044 217.244 118.002 217.453C117.96 217.662 118.128 218.08 118.295 218.164C118.462 218.248 118.839 218.875 118.044 220.089H118.169Z" fill="#8C1539"/>
<path d="M119.215 73.35C114.447 76.1534 109.093 76.8228 103.947 74.5215C101.521 73.4755 99.3043 72.0947 96.92 71.0905C94.5776 70.0445 91.9423 69.5005 89.3906 69.7098C91.9841 69.1658 94.703 69.5005 97.171 70.4629C99.639 71.3834 101.898 72.7642 104.282 73.7265C109.218 76.0278 114.321 75.4421 119.215 73.35Z" fill="black"/>
<path d="M97.8394 112.973V112.931C97.7558 112.763 97.6721 112.596 97.5466 112.387C97.5466 112.345 97.5048 112.345 97.5048 112.303C97.463 112.22 97.3793 112.136 97.3375 112.052C97.2956 112.01 97.2956 111.968 97.2538 111.968C95.5388 109.584 92.1924 108.454 88.8878 109.374C88.8041 109.416 88.7205 109.416 88.6786 109.458C85.3322 110.504 83.1152 113.349 83.1152 116.404C83.1152 116.446 83.1152 116.487 83.1152 116.529C83.1152 116.571 83.1152 116.613 83.1152 116.655V116.697V116.738C83.1152 116.864 83.1571 116.989 83.1571 117.115C83.1571 117.199 83.1571 117.324 83.1989 117.408C83.2407 117.659 83.2826 117.868 83.3662 118.119C83.9937 120.379 85.8342 122.01 88.093 122.68C88.1348 122.68 88.2185 122.722 88.3022 122.722C88.344 122.722 88.344 122.722 88.3858 122.722C89.7244 123.057 91.1884 123.057 92.6943 122.638C93.9074 122.303 94.9531 121.718 95.8316 120.964C95.9571 120.839 96.0826 120.755 96.208 120.63C96.2499 120.63 96.2499 120.588 96.2917 120.546L96.3335 120.504C96.3754 120.462 96.459 120.379 96.5009 120.337C96.5427 120.295 96.5427 120.295 96.5845 120.253L96.6263 120.211C98.2159 118.496 98.8852 116.153 98.2577 113.893C98.1322 113.6 98.0067 113.266 97.8394 112.973ZM94.4094 117.45L94.5348 115.483C95.2878 114.981 96.208 114.437 96.9192 114.019C96.961 114.102 96.961 114.186 97.0028 114.27C97.4211 115.818 97.1283 117.492 96.1662 118.872L94.4094 117.45ZM92.3178 121.55C91.4812 121.801 90.6028 121.885 89.808 121.801L90.7283 119.835L92.778 119.249L94.5767 120.504C93.9074 120.964 93.1545 121.341 92.3178 121.55ZM87.5492 121.215C86.0433 120.504 84.9558 119.291 84.5375 117.784V117.743L87.2982 117.617L88.3858 119.165L87.5492 121.215ZM87.8839 110.964L88.8041 113.726L87.4237 115.274L84.4538 115.483C84.7466 113.6 86.0433 111.927 87.8839 110.964ZM89.9335 118.621L88.344 116.404L90.2682 114.228L93.029 115.107L92.8198 117.826L89.9335 118.621ZM93.2381 113.642L91.2303 113.015L90.31 110.253C92.4433 110.002 94.493 110.671 95.8316 112.136L93.2381 113.642Z" fill="#8C1539"/>
<path d="M152.805 98.6222V98.5804C152.847 98.413 152.931 98.2457 152.973 98.0783C152.973 98.0365 152.973 98.0365 153.014 97.9946C153.056 97.9109 153.056 97.8273 153.056 97.7436C153.056 97.7017 153.056 97.6599 153.056 97.6599C153.475 95.1912 152.178 92.5134 149.668 91.0489C149.626 91.0071 149.543 90.9652 149.501 90.9652C146.907 89.5426 143.854 89.9192 142.013 91.6765C141.971 91.7184 141.971 91.7184 141.93 91.7602C141.888 91.8021 141.888 91.8021 141.846 91.8439C141.846 91.8439 141.846 91.8439 141.804 91.8857C141.804 91.8857 141.804 91.9276 141.762 91.9276C141.679 92.0113 141.637 92.0949 141.553 92.1786C141.511 92.2623 141.428 92.3042 141.386 92.346C141.26 92.5134 141.135 92.6807 141.051 92.8481C140.047 94.5636 140.131 96.6557 141.093 98.413C141.135 98.4549 141.135 98.4967 141.177 98.5386L141.218 98.5804C141.804 99.5846 142.682 100.505 143.812 101.133C144.732 101.677 145.694 101.97 146.698 102.053C146.865 102.053 146.991 102.095 147.158 102.095C147.2 102.095 147.2 102.095 147.242 102.095H147.284C147.367 102.095 147.409 102.095 147.493 102.095C147.535 102.095 147.577 102.095 147.577 102.095H147.618C149.584 102.011 151.425 101.049 152.387 99.3754C152.596 99.1662 152.722 98.8733 152.805 98.6222ZM148.037 99.1662L149.292 98.1201C150.045 98.2875 150.923 98.4967 151.592 98.7059C151.55 98.7896 151.509 98.8315 151.509 98.9151C150.839 100.087 149.626 100.882 148.246 101.133L148.037 99.1662ZM144.314 100.338C143.686 99.9612 143.101 99.5009 142.682 98.957L144.439 98.3294L145.987 99.2499L146.28 101.049C145.611 100.965 144.941 100.714 144.314 100.338ZM141.72 97.2415C141.26 95.9444 141.386 94.5218 142.013 93.392C142.013 93.392 142.013 93.3502 142.055 93.3502L143.77 94.9402L143.477 96.5302L141.72 97.2415ZM148.12 91.3836L146.991 93.5594L145.234 93.6431L143.352 91.9276C144.648 91.0489 146.447 90.8397 148.12 91.3836ZM144.69 97.1578L145.109 94.8983L147.577 94.7728L148.706 96.9486L146.949 98.413L144.69 97.1578ZM149.668 96.1954L148.873 94.6054L150.003 92.3878C151.425 93.5176 152.22 95.1912 152.136 96.8231L149.668 96.1954Z" fill="#8C1539"/>
<path d="M99.7633 123.852C99.0104 128.287 95.5803 141.76 100.223 144.354C95.0784 141.969 98.4248 128.203 99.7633 123.852Z" fill="#8C1539"/>
<path d="M158.493 102.011C149.625 101.676 140.716 104.647 133.73 110.128L132.266 111.341L130.844 112.639L132.182 111.258C139.126 104.647 148.956 101.09 158.493 102.011Z" fill="#8C1539"/>
<path d="M100.392 111.174C99.4713 116.613 98.3419 122.262 97.2543 127.659C95.9994 133.015 94.5354 138.831 97.0452 144.061C94.2007 138.957 95.623 132.931 96.836 127.576C97.84 122.848 99.2622 115.818 100.392 111.174Z" fill="#8C1539"/>
<path d="M99.5977 140.17C100.309 141.718 101.313 142.931 102.651 143.978C101.02 143.517 99.7231 141.885 99.5977 140.17Z" fill="#8C1539"/>
<path d="M139.336 110.254C133.312 116.028 127.958 122.472 123.315 129.417L122.395 130.798C126.745 123.016 132.517 115.986 139.336 110.254Z" fill="#8C1539"/>
<g opacity="0.5">
<path d="M144.356 111.676C144.314 111.759 144.272 111.843 144.272 111.927C135.822 132.68 116.957 165.108 116.957 165.108C117.585 163.308 103.488 142.429 101.605 139.626C101.731 139.291 101.898 138.998 102.024 138.664C105.998 131.718 110.39 122.178 114.322 112.471C118.756 115.023 123.985 116.237 129.088 115.776C134.358 115.358 139.336 113.266 144.356 111.676Z" fill="url(#paint0_linear_2299_12195)"/>
</g>
<path d="M88.4707 162.722C88.4707 162.722 88.4707 162.763 88.5116 162.763L88.4707 162.722C88.4707 162.681 88.4707 162.681 88.4707 162.722Z" fill="white"/>
<path d="M88.4707 162.722C88.4707 162.722 88.4707 162.763 88.5116 162.763L88.4707 162.722ZM88.4707 162.722C88.4707 162.681 88.4707 162.681 88.4707 162.722Z" stroke="#8C1539" stroke-miterlimit="10"/>
<g opacity="0.43">
<path d="M91.272 167.242C91.1884 167.116 91.1047 166.949 91.0211 166.823C91.0211 166.823 91.0211 166.823 91.0211 166.865C90.3936 168.246 75.3766 202.598 80.4799 217.996C79.3505 217.828 78.2211 217.368 77.259 216.74C76.506 216.238 75.7949 215.652 75.3766 214.857C75.3348 214.732 75.2511 214.648 75.2093 214.523C73.7871 193.183 89.306 164.145 89.306 164.145C89.0132 163.685 88.7622 163.183 88.4694 162.723C88.4694 162.723 88.4694 162.765 88.5113 162.765C88.8877 163.35 90.1845 165.442 91.272 167.242Z" fill="url(#paint1_linear_2299_12195)"/>
</g>
<path d="M105.286 212.766C104.867 218.707 103.487 225.611 97.9654 228.958C92.6112 232.18 85.6674 231.762 80.4805 228.498" fill="url(#paint2_linear_2299_12195)"/>
<path d="M105.286 212.766C104.951 223.226 100.81 231.511 89.1811 231.301C86.0857 231.176 83.0321 230.214 80.4805 228.456C83.1158 230.004 86.1275 230.883 89.223 230.967C93.7406 231.092 98.5092 229.377 101.27 225.695C104.031 222.013 104.867 217.285 105.286 212.766Z" fill="#8C1539"/>
<path d="M77.0918 83.266C77.2591 81.132 77.5101 78.9144 78.4722 76.9897C79.4761 75.0231 81.1911 73.6005 82.8643 72.2198C84.5375 70.8808 86.2107 69.5419 87.9258 68.2448C89.4317 67.1151 91.565 65.4414 93.0709 64.3535C91.6905 65.5669 89.599 67.3243 88.1349 68.4958C86.4617 69.8766 84.7885 71.2155 83.1153 72.5545C81.4421 73.8934 79.7689 75.2742 78.765 77.1571C77.7611 78.9981 77.4264 81.1739 77.0918 83.266Z" fill="black"/>
<path d="M142.306 194.816C140.256 193.603 137.621 194.314 135.571 195.569C133.438 196.866 131.639 198.749 130.384 200.925C128.878 203.561 128.167 206.741 125.992 208.917" fill="url(#paint3_linear_2299_12195)"/>
<path d="M142.305 194.816C137.829 192.683 132.517 197.494 130.467 201.218C129.045 203.771 128.25 206.825 126.033 208.917C127.372 207.453 128.125 205.57 128.878 203.771C129.923 200.967 131.555 198.331 133.981 196.49C136.24 194.649 139.628 193.143 142.305 194.816Z" fill="#8C1539"/>
<path d="M142.263 195.191C140.38 197.869 139.042 200.756 138.205 203.936C138.456 200.673 139.92 197.451 142.263 195.191Z" fill="#8C1539"/>
<g opacity="0.5">
<path d="M123.231 26.6963C122.185 28.872 120.721 30.9223 119.09 32.5959C111.853 39.9182 101.814 43.8932 94.2427 50.8389C89.3067 55.3578 85.4584 61.0901 80.1878 65.2324C75.0845 69.2492 68.8937 71.5505 62.7865 73.81C62.41 73.9355 61.9499 74.1029 61.5734 73.9774C61.4061 73.9355 61.2388 73.8518 61.1133 73.7263C61.9917 70.7555 63.0793 67.5756 64.376 64.3538C69.2283 52.1778 76.7577 38.9977 85.4584 30.462C87.2152 28.7465 89.0139 27.1984 90.8545 25.9013C95.0793 22.8887 99.5133 21.1731 103.947 21.2568C109.302 21.3405 116.789 21.8008 120.679 24.6042C121.558 25.2318 122.436 25.9431 123.231 26.6963Z" fill="url(#paint4_linear_2299_12195)"/>
</g>
<path d="M122.31 29.9599C123.816 29.8344 125.866 28.7465 125.866 28.7465C125.866 28.7465 126.744 30.211 127.581 31.0478C128.418 31.8847 128.669 33.2236 128.669 33.2236L126.954 33.9767C120.846 37.7425 91.5236 35.7341 85.2491 30.9223C85.2491 30.9223 85.2072 30.9223 85.2491 30.9223V30.8805C85.5 30.5039 85.8347 30.1691 86.1693 29.8344C86.3785 29.667 86.5458 29.4578 86.7549 29.2905C86.9223 29.1231 87.1314 28.9976 87.2151 28.7884C87.2151 28.8302 87.1732 28.8721 87.1732 28.9139C87.2987 28.5792 87.5079 28.2863 87.717 27.9934C88.0935 27.575 88.5118 27.1565 88.9719 26.8218C89.3484 26.5289 89.8085 26.236 90.2687 26.1523C90.2687 26.1523 92.3602 28.4955 105.369 29.667C117.124 30.6712 120.805 30.0855 122.31 29.9599Z" fill="url(#paint5_radial_2299_12195)"/>
<path d="M90.0176 25.9004C94.0333 29.4151 122.101 31.9674 125.866 28.8711" stroke="black"/>
<path d="M87.2148 28.7871C93.824 33.1386 120.804 34.7705 128.041 31.716" stroke="black"/>
<path d="M85.207 30.8789C91.3561 35.7325 120.846 37.7409 126.953 33.9752" stroke="black"/>
<path d="M125.867 28.8709C126.578 29.8333 127.414 30.6701 128 31.7162M125.072 29.4149C125.783 30.2517 126.201 31.2141 126.578 32.2183V32.2601C126.787 32.804 126.996 33.3898 126.912 33.9756C127.498 33.7664 128.084 33.5154 128.627 33.2225C128.502 32.5948 128.209 32.0091 127.875 31.4651M123.817 29.8333C124.444 30.5864 124.654 31.6325 124.821 32.553C124.821 32.553 124.821 32.553 124.821 32.5948C125.072 33.348 125.239 34.1011 125.114 34.8961M122.269 29.9588C122.729 30.6283 123.19 32.3019 123.273 32.7622C123.357 33.3061 123.231 32.4693 123.315 32.9714C123.357 33.4735 123.482 34.6869 123.524 35.3145M120.889 30.2517C120.805 31.2141 120.973 32.2183 121.056 33.1806V33.2225C121.056 34.0175 121.14 34.7706 121.265 35.5238M119.216 30.2517C118.923 31.2141 118.756 32.3438 119.132 33.3061C118.881 34.143 118.965 34.938 119.258 35.733M117.501 30.3354C117.041 31.2559 116.622 32.2601 117.124 33.2225C116.831 34.1011 116.79 34.9798 117.166 35.7748M115.576 30.2099C115.2 31.1722 115.367 32.1346 115.158 33.0969C114.614 33.9756 114.531 34.938 114.949 35.9003M113.736 30.0843C113.108 30.963 112.899 32.0091 113.276 33.0133C113.318 33.0969 113.276 33.0551 113.276 33.0551C113.108 34.0175 112.983 34.938 113.108 35.8585M111.812 30.0425C111.059 30.5864 111.101 32.3019 111.184 32.8459C111.268 33.2643 111.142 33.1388 111.101 33.2225C110.808 34.1011 110.682 34.8961 110.724 35.8166M109.595 29.917C108.925 30.7956 108.925 31.8417 109.218 32.8459C109.26 32.9296 109.218 32.8877 109.218 32.8877C109.093 33.8501 109.009 34.7288 109.093 35.6911M107.085 33.1806C107.043 33.0969 107.001 33.0133 106.959 32.9296C106.583 31.9254 106.583 30.5864 107.127 29.6659M106.959 32.9714C106.625 33.8082 106.75 34.8124 107.085 35.6493M105.37 29.5404C104.241 29.8333 105.412 32.6785 105.412 32.7204C105.077 33.7246 104.701 34.6451 104.826 35.189C104.952 35.7748 104.784 34.9798 104.868 35.3564M103.153 29.2057C102.4 30.2099 102.233 31.6325 102.902 32.7622C102.609 33.6827 102.484 34.1848 102.609 35.1472M101.145 28.9546C100.434 29.9588 100.308 31.0049 100.685 32.1764C100.601 33.0969 100.518 34.0175 100.434 34.8961M99.4301 28.7036C98.7608 29.7078 98.5935 30.7538 98.9281 31.9254C98.5935 32.804 98.468 33.6827 98.5516 34.6032M97.5895 28.4525C96.5856 28.8709 96.5438 30.963 96.6693 31.4651C96.7529 31.9672 96.6693 31.6743 96.6693 31.758C96.6275 32.6785 96.502 33.4735 96.4601 34.3522M95.9582 28.1178C95.0797 28.578 94.9542 30.6701 95.0379 31.1722C95.1216 31.6743 95.0379 31.3814 95.0379 31.4651C94.9124 32.2183 94.6614 33.4735 94.6196 33.8919C94.5359 34.3522 94.6196 33.7664 94.5778 34.0593M94.5359 27.7412C93.4902 28.8709 93.7412 29.6659 93.4484 31.0049C93.4484 31.0049 93.4484 31.0048 93.4484 31.0467C93.1974 31.9254 93.1137 32.804 93.1974 33.6827M93.6157 27.6157C92.7373 28.4944 92.1098 29.4986 92.1516 30.712C92.1516 30.9212 92.1516 30.712 92.1516 30.8375C91.3987 31.4233 91.1059 32.3019 91.1059 33.2225C91.1059 33.348 91.1059 33.2225 91.1059 33.3061M92.3608 27.1136C92.319 27.1136 92.319 27.1136 92.3608 27.1136C91.1477 27.8667 90.4366 28.8709 90.4784 30.2517C90.4784 30.3772 90.4784 30.2935 90.4784 30.2935C90.0183 31.0885 89.4745 32.0091 88.7216 32.553M90.8967 26.5696C89.6 27.1973 88.7216 28.1596 88.6797 29.6241C88.6797 29.7496 88.6797 29.5822 88.6797 29.7078C87.8013 30.168 86.9647 30.7538 86.7974 31.8417M90.3529 26.1094C89.851 26.1931 89.3908 26.4859 88.9725 26.8207C88.5124 27.1554 88.0941 27.5738 87.7176 27.9923C87.4667 28.2851 87.2993 28.578 87.1739 28.9128C87.1739 28.8709 87.2157 28.8291 87.2157 28.7872C87.132 28.9965 86.9229 29.1638 86.7556 29.2893C86.5464 29.4567 86.3791 29.6659 86.1699 29.8333C85.7935 30.168 85.4588 30.5446 85.2078 30.963C85.166 31.0467 85.2078 30.963 85.166 31.0467" stroke="black"/>
<path d="M116.748 165.065C116.79 165.024 116.748 164.856 116.706 164.731C116.413 163.685 115.869 162.722 115.367 161.76C113.569 158.455 111.519 155.275 109.511 152.095C107.211 148.496 104.659 144.605 102.316 141.007C101.982 140.463 101.647 139.96 101.312 139.375L101.522 139.291C101.814 139.793 102.191 140.337 102.526 140.881C106.332 146.613 110.264 152.429 113.862 158.287C114.824 159.919 115.828 161.551 116.622 163.266C116.873 163.894 117.292 164.48 117.166 165.191L116.748 165.065Z" fill="black"/>
<path d="M35.0524 61.6768C33.7139 61.3839 32.9609 59.8776 32.9609 58.5805C32.9609 57.911 33.1283 57.2416 33.3374 56.6558C33.5884 56.0282 33.8812 55.4842 34.2158 54.8984C33.8394 56.1118 33.2956 57.3253 33.2956 58.5805C33.2956 59.7939 33.8394 61.1328 35.0524 61.6768Z" fill="black"/>
<path d="M35.0955 61.6349C33.3804 61.4257 32.8785 59.3336 33.0876 57.8691C33.2131 58.2457 33.2549 58.6223 33.3386 58.9989C33.5896 60.0449 34.0497 61.1328 35.0955 61.6349Z" fill="black"/>
<path d="M35.2196 61.5508C34.5503 61.1742 33.7973 60.8814 33.2954 60.2119C32.7098 59.2495 33.2117 57.4085 33.5882 56.4043C33.5045 56.9064 33.4627 57.4085 33.4209 57.9106C33.2117 60.3374 33.5882 60.0864 35.2196 61.5508Z" fill="black"/>
<path d="M35.3042 61.7595C32.5016 61.09 33.4219 56.2364 34.4258 54.3535C34.2585 55.023 34.0911 55.6506 33.9656 56.3201C33.7565 58.1193 33.3382 60.839 35.3042 61.7595Z" fill="black"/>
<path d="M35.137 61.635C34.0912 61.5513 34.133 59.7102 34.133 58.9571C34.1749 57.9529 34.3422 56.9068 34.7605 55.9863C34.6768 56.4884 34.635 56.9905 34.5513 57.4926C34.4677 58.4968 34.4259 59.4592 34.5095 60.4634C34.5513 60.8818 34.635 61.4676 35.137 61.635Z" fill="black"/>
<path d="M35.3047 61.7184C34.8027 60.6724 35.0955 59.459 35.221 58.3711C35.3883 57.2413 35.6393 56.1535 36.0994 55.1074C35.9321 56.2371 35.7648 57.325 35.5975 58.4129C35.4302 59.5008 35.0955 60.6305 35.3047 61.7184Z" fill="black"/>
<path d="M34.8029 61.3412C34.3427 59.6257 34.3846 57.7429 35.012 56.0273C34.8865 57.8265 34.8029 59.5839 34.8029 61.3412Z" fill="black"/>
<path d="M33.8816 60.7556C33.2123 58.3706 33.2959 55.7346 34.0907 53.3496C33.7979 55.8183 33.7142 58.2869 33.8816 60.7556Z" fill="black"/>
<path d="M34.7593 61.1325C34.1319 58.5383 34.843 55.8186 35.7633 53.4336C35.3031 55.9859 34.592 58.4964 34.7593 61.1325Z" fill="black"/>
<path d="M35.4715 62.3876C34.844 61.6763 35.2623 60.5047 35.3878 59.7097C35.6388 58.831 35.9734 57.9524 36.4754 57.1992C36.2244 58.0779 35.9734 58.9147 35.7643 59.7934C35.6388 60.2118 35.5551 60.6721 35.4296 61.0905C35.3041 61.5089 35.2623 61.9692 35.4715 62.3876Z" fill="black"/>
<path d="M34.8433 61.8433C33.1701 61.2156 33.3792 58.2867 33.6302 56.8223C33.672 57.2825 33.7139 57.7428 33.7557 58.1612C33.8812 59.4583 33.7139 60.9646 34.8433 61.8433Z" fill="black"/>
<path d="M35.0117 61.4665C33.1293 59.9184 33.5058 57.0313 34.6771 55.1484C34.5097 55.6924 34.3842 56.2363 34.2588 56.7803C33.8823 58.3702 33.9659 60.1276 35.0117 61.4665Z" fill="black"/>
<path d="M34.9692 61.7177C34.6764 60.0859 34.7601 58.4122 35.262 56.8223C35.262 58.4959 35.1784 60.0859 34.9692 61.7177Z" fill="black"/>
<path d="M34.3413 61.0895C33.923 58.9137 34.0903 56.5706 34.8432 54.4785C34.5923 56.6543 34.3831 58.9556 34.3413 61.0895Z" fill="black"/>
<path d="M34.9688 61.9267C35.0942 59.8346 35.638 57.7844 36.5583 55.9434C36.0982 57.9099 35.5544 60.002 34.9688 61.9267Z" fill="black"/>
<path d="M34.9276 61.5511C33.8818 61.4256 33.0871 60.5051 32.7106 59.5427C32.3759 58.5804 32.3341 57.5343 32.4596 56.4883C32.5433 56.9904 32.6269 57.4925 32.6688 57.9946C32.9197 59.4172 33.5054 60.9653 34.9276 61.5511Z" fill="black"/>
<path d="M35.0532 61.802C32.878 60.7978 32.5016 57.9944 32.878 55.9023C32.9199 56.4463 32.9617 56.9902 33.0454 57.5342C33.2127 59.1242 33.7565 60.7978 35.0532 61.802Z" fill="black"/>
<path d="M35.0104 62.0949C34.1738 61.3418 33.9647 60.1702 33.6719 59.1242C33.4209 58.0781 33.2118 56.9902 33.1699 55.9023C33.3372 56.4463 33.4627 56.9484 33.5882 57.4923C33.7974 58.2873 34.2157 59.8355 34.4248 60.6304C34.5503 61.1325 34.6758 61.6765 35.0104 62.0949Z" fill="black"/>
<path d="M34.8023 59.3333C34.5513 59.0822 34.1749 58.8312 33.8402 58.9149C33.5892 58.9985 33.3801 59.2077 33.2964 59.4588C33.2128 59.7098 33.2546 60.0446 33.2546 60.0446C33.7147 60.8396 34.3004 61.5509 34.9278 62.1785C34.9696 62.2203 35.0115 62.2622 35.0533 62.2622C35.0951 62.2622 35.1788 62.2622 35.2206 62.2203C35.7226 61.9693 35.9317 61.2998 35.8062 60.714C35.6807 60.1283 35.2206 59.7517 34.8023 59.3333Z" fill="black"/>
<path d="M36.5175 60.9221C36.392 60.7966 36.2666 60.7548 36.0992 60.8385C35.9319 60.9221 35.7646 61.0895 35.6391 61.215C35.4718 61.3824 35.3045 61.6335 35.0535 61.759C34.8862 61.8427 34.677 61.9682 34.5933 62.1356C34.4679 62.3448 34.5097 62.5958 34.6352 62.805C34.7607 63.0142 34.9698 63.0561 35.179 62.9724C35.3463 62.8887 35.5136 62.7213 35.6391 62.554C35.7646 62.4284 35.9319 62.2611 36.0574 62.1356C36.1829 62.01 36.3502 61.8427 36.4757 61.7171C36.6012 61.5916 36.7685 61.4661 36.6849 61.2569C36.6849 61.215 36.643 61.1314 36.6012 61.0895C36.6012 61.0058 36.5594 60.964 36.5175 60.9221Z" fill="black"/>
<path d="M66.8864 39.625C65.5479 39.0392 65.1296 37.7421 64.9204 36.5287C64.7949 35.9011 64.7949 35.7755 64.7949 35.2734C64.7949 34.8132 64.8786 34.604 65.0459 34.1855C64.9622 35.1479 65.0459 35.5245 65.2551 36.6124C65.4642 37.7002 65.7988 38.9555 66.8864 39.625Z" fill="black"/>
<path d="M66.9685 39.5822C65.3371 38.829 65.1698 37.4901 64.877 35.8164C65.0861 36.193 65.2116 36.5696 65.2953 36.9461C65.6299 38.1177 66.0064 38.9127 66.9685 39.5822Z" fill="black"/>
<path d="M67.0521 39.541C66.4665 39.1226 65.7136 38.9552 65.3789 38.2439C64.9188 37.2815 64.9188 36.2355 64.877 35.1895C65.0024 35.4823 65.0443 35.6916 65.1279 35.9844C65.4207 37.5744 65.8809 38.4531 67.0521 39.541Z" fill="black"/>
<path d="M67.1355 39.7488C65.4204 38.3261 64.5838 36.1504 65.1276 33.9746C65.1276 34.5186 65.044 34.6022 65.2113 35.188C65.5877 36.778 65.7551 38.4935 67.1355 39.7488Z" fill="black"/>
<path d="M66.9682 39.6243C66.048 39.2059 66.0898 37.9925 65.9643 37.2393C65.8388 36.2351 65.5878 35.733 65.6296 34.8125C65.7551 35.1891 65.797 35.3146 65.9225 35.733C66.1316 36.6117 66.3408 37.6159 66.3826 38.5783C66.4662 38.9967 66.5917 39.3732 66.9682 39.6243Z" fill="black"/>
<path d="M67.137 39.7075C66.8442 38.7452 66.9278 37.5736 66.8023 36.6112C66.6769 35.6907 66.4259 35.0213 66.635 34.1426C66.886 34.9794 66.9697 35.6907 67.0952 36.6112C67.2206 37.5318 67.0115 38.7033 67.137 39.7075Z" fill="black"/>
<path d="M66.6756 39.3721C66.341 37.8658 65.9227 36.2758 65.8809 34.7695C66.5083 36.234 66.6756 37.7821 66.6756 39.3721Z" fill="black"/>
<path d="M65.8808 38.7873C65.3788 36.9044 64.6259 35.1052 64.6677 33.1387C64.9605 35.0634 65.6298 36.8626 65.8808 38.7873Z" fill="black"/>
<path d="M66.6345 39.1639C66.2581 37.1136 65.9234 35.2308 66.0071 33.1387C66.1326 35.1471 66.5509 37.1136 66.6345 39.1639Z" fill="black"/>
<path d="M67.2625 40.2927C66.8442 39.4559 67.0116 38.7864 67.1789 37.8659C67.3462 36.9454 67.3044 35.983 67.4717 35.0625C67.5135 35.983 67.5972 36.9872 67.4717 37.8659C67.4299 38.3261 67.3044 38.6609 67.2207 39.0793C67.137 39.5396 67.137 39.8743 67.2625 40.2927Z" fill="black"/>
<path d="M66.7189 39.7907C65.3804 38.6191 65.3385 37.0291 65.0039 35.3555C65.2131 35.6902 65.3385 35.8576 65.4222 36.276C65.7987 37.4894 65.8823 38.7446 66.7189 39.7907Z" fill="black"/>
<path d="M66.8428 39.4574C65.7134 38.0348 64.9605 36.2356 65.3788 34.3945C65.3788 34.7711 65.3788 34.8548 65.4624 35.3151C65.7971 36.654 66.1317 38.2021 66.8428 39.4574Z" fill="black"/>
<path d="M66.8446 39.7086C66.6354 38.1186 66.5099 36.5286 66.3008 34.9805C66.8027 36.5705 66.9701 37.9931 66.8446 39.7086Z" fill="black"/>
<path d="M66.2572 39.1217C65.9226 37.4899 65.2952 35.8162 65.4206 34.1426C65.8389 35.7744 66.2154 37.4062 66.2572 39.1217Z" fill="black"/>
<path d="M66.8027 39.8752C66.9282 38.076 66.7191 35.9421 67.221 34.2266C67.3047 36.235 67.3047 37.9505 66.8027 39.8752Z" fill="black"/>
<path d="M66.8018 39.5399C65.7979 39.247 65.1704 38.452 64.8358 37.5315C64.5011 36.6109 64.4175 35.9833 64.041 35.1465C64.2502 35.5231 64.4175 35.3975 64.5848 35.8578C65.0449 37.2386 65.4632 38.6612 66.8018 39.5399Z" fill="black"/>
<path d="M66.9279 39.7498C65.3384 38.4527 64.8364 36.7372 64.209 34.8125C64.3763 35.2309 64.5436 35.1891 64.7528 35.6493C65.3802 37.072 65.7985 38.5783 66.9279 39.7498Z" fill="black"/>
<path d="M66.8859 40.0419C66.2167 39.2469 65.9239 38.2427 65.5892 37.2803C65.2546 36.318 64.8781 35.6903 64.418 34.8535C64.7108 35.2719 64.8781 35.2719 65.2127 35.774C65.6729 36.5272 66.0912 37.8243 66.3422 38.6611C66.4676 39.2469 66.635 39.5816 66.8859 40.0419Z" fill="black"/>
<path d="M66.6773 37.6568C66.4263 37.4058 66.0916 37.1129 65.757 37.071C65.4224 37.0292 65.3805 37.2802 65.3387 37.4894C65.255 37.6986 65.3387 37.9079 65.2969 38.1171C65.7152 38.8284 66.2171 39.4978 66.8028 40.0836C66.8446 40.1255 66.8446 40.1673 66.8864 40.1673C66.9282 40.1673 66.9701 40.1673 67.0119 40.1255C67.472 39.7907 67.5975 39.3305 67.472 38.7865C67.3884 38.2844 67.0537 38.0334 66.6773 37.6568Z" fill="black"/>
<path d="M68.1814 38.9555C68.0977 38.8718 67.9723 38.7881 67.8049 38.9136C67.6376 39.0391 67.554 39.1228 67.3866 39.2902C67.2611 39.4157 67.052 39.6249 66.8847 39.7505C66.7174 39.876 66.5919 39.876 66.4664 40.0852C66.3409 40.2944 66.4245 40.5036 66.55 40.671C66.6755 40.8383 66.8428 40.8802 67.0102 40.8383C67.1775 40.7547 67.303 40.6291 67.4285 40.5036C67.554 40.3781 67.6794 40.2526 67.8049 40.1689C67.9304 40.0433 68.0559 39.9178 68.1814 39.8341C68.3069 39.7505 68.3906 39.5412 68.3487 39.4157C68.3487 39.2902 68.3069 39.2902 68.2651 39.2065C68.2651 39.0391 68.2651 39.0391 68.1814 38.9555Z" fill="black"/>
<path d="M47.0575 51.7578C47.3921 53.0967 47.0157 54.1846 46.0536 55.1051C45.5516 55.5654 45.0915 55.8165 44.6732 56.193C44.2131 56.5696 43.8784 56.8625 43.502 57.2809C44.1294 56.2349 44.8823 55.6909 45.8026 54.8541C46.681 54.0591 47.0575 53.0549 47.0575 51.7578Z" fill="black"/>
<path d="M46.9735 51.7168C47.4336 53.4323 46.6807 54.3947 45.4258 55.4826C45.5931 55.1478 45.7604 54.8968 45.9696 54.6039C46.6807 53.7252 46.9735 52.8884 46.9735 51.7168Z" fill="black"/>
<path d="M46.8485 51.6738C46.7648 52.427 47.225 53.1801 46.9322 53.9333C46.5139 54.9793 45.1335 55.4814 44.2969 56.2346C44.506 55.858 44.8825 55.4814 45.1753 55.2304C46.7648 53.9751 46.5557 53.5567 46.8485 51.6738Z" fill="black"/>
<path d="M47.0155 51.5078C47.141 54.2275 44.673 55.6083 43.209 57.7004C43.5436 57.0728 43.5855 56.738 44.0038 56.1104C45.0913 54.4786 46.8064 53.7254 47.0155 51.5078Z" fill="black"/>
<path d="M46.9315 51.7159C47.2243 52.8037 46.0113 53.5569 45.342 54.1008C44.4636 54.8121 43.8361 55.3979 43.125 56.1511C43.376 55.6908 43.5433 55.3561 43.8779 54.9377C44.5472 54.1427 45.4675 53.5987 46.3041 52.9293C46.6806 52.5945 46.9734 52.1761 46.9315 51.7159C46.9734 51.674 46.9315 51.7159 46.9315 51.7159Z" fill="black"/>
<path d="M46.9749 51.5488C46.1383 52.5112 44.9252 53.0551 43.9631 53.8083C43.001 54.5614 42.4572 55.4401 41.7461 56.4025C42.2062 55.2727 42.75 54.3941 43.7121 53.5572C44.6324 52.7622 45.9291 52.2601 46.9749 51.5488Z" fill="black"/>
<path d="M46.891 52.0938C45.6779 53.4745 44.1302 54.4787 42.959 55.9013C43.7956 54.1022 45.2596 53.2235 46.891 52.0938Z" fill="black"/>
<path d="M46.9748 53.1816C45.4689 55.0645 44.4232 56.6545 43.252 58.7466C44.1304 56.1942 44.8833 54.9808 46.9748 53.1816Z" fill="black"/>
<path d="M46.7231 52.3027C44.7989 54.353 43.2512 55.7756 41.7871 58.2024C42.9165 55.2735 44.2133 54.1438 46.7231 52.3027Z" fill="black"/>
<path d="M47.5172 51.0469C47.0152 51.9674 45.844 52.2603 44.9655 52.6787C43.9616 53.139 43.0832 53.6829 42.1211 54.2687C42.874 53.4737 43.7525 52.8461 44.7564 52.3858C45.2583 52.1348 45.8021 51.9674 46.3041 51.8C46.7642 51.5908 47.2244 51.4653 47.5172 51.0469Z" fill="black"/>
<path d="M47.3093 51.8418C47.2256 53.8502 45.7197 54.6033 44.4648 55.9423C44.674 55.5239 44.7995 55.231 45.1341 54.8962C46.0126 53.8502 46.9328 53.2644 47.3093 51.8418Z" fill="black"/>
<path d="M46.8905 51.8848C46.3886 54.1442 44.6317 55.2739 43.084 56.9058C43.335 56.4455 43.5023 56.1108 43.8788 55.6505C44.9663 54.4371 46.1794 53.4747 46.8905 51.8848Z" fill="black"/>
<path d="M47.142 51.8008C45.7616 52.9305 44.2139 53.851 42.959 55.1481C43.8792 53.4326 45.4688 52.5958 47.142 51.8008Z" fill="black"/>
<path d="M46.9314 52.6367C45.4673 54.3104 43.8778 55.3564 42.832 57.4485C43.4595 54.938 45.0072 54.1012 46.9314 52.6367Z" fill="black"/>
<path d="M47.3503 51.6738C45.1752 52.7199 43.2928 53.6822 41.4941 55.3559C43.0419 53.2638 44.8405 52.3851 47.3503 51.6738Z" fill="black"/>
<path d="M47.0158 51.8848C47.3505 52.8053 47.3505 53.8513 46.8903 54.6882C46.4302 55.525 45.8446 56.0271 45.3008 56.7802C45.4681 56.32 45.5936 56.0271 45.8446 55.6087C46.6393 54.4371 47.0995 53.4329 47.0158 51.8848Z" fill="black"/>
<path d="M47.141 51.6738C47.0573 54.017 45.9697 55.1467 44.7148 57.0296C44.8822 56.5275 44.9658 56.1927 45.2586 55.7325C46.1789 54.3935 46.8063 53.2638 47.141 51.6738Z" fill="black"/>
<path d="M47.4758 51.5488C47.0575 52.553 46.5137 53.4317 45.8862 54.3104C45.2588 55.1472 44.8405 55.9004 44.5059 56.9046C44.5895 56.3188 44.5895 56.0259 44.7987 55.4401C45.1333 54.5614 45.9699 53.6828 46.5137 52.8878C46.8902 52.3857 47.1412 52.0509 47.4758 51.5488Z" fill="black"/>
<path d="M45.1328 53.3482C45.1328 53.7666 45.3001 54.1013 45.5929 54.3105C45.8858 54.5198 46.1786 54.4361 46.4295 54.3942C46.6805 54.3524 46.7642 54.2269 46.9733 54.1013C47.2243 53.2645 47.3916 52.4277 47.6844 51.6327C47.6844 51.5908 47.7263 51.549 47.6844 51.5072C47.6844 51.4653 47.6426 51.4235 47.559 51.3816C46.9315 51.1306 46.3041 51.2979 45.8021 51.7164C45.2583 52.1348 45.1328 52.7206 45.1328 53.3482Z" fill="black"/>
<path d="M45.5101 50.9634C45.4683 51.0889 45.4683 51.2562 45.6775 51.3399C45.8866 51.4236 46.0958 51.4655 46.3049 51.5073C46.5559 51.5491 46.8905 51.591 47.0997 51.6747C47.3088 51.7583 47.4343 51.842 47.6853 51.842C47.9363 51.842 48.1454 51.6747 48.2709 51.4655C48.3964 51.2562 48.3128 51.047 48.1036 50.9215C47.8945 50.796 47.6853 50.796 47.4762 50.7123C47.267 50.6705 47.0579 50.6286 46.8487 50.5868C46.6396 50.5449 46.4304 50.5031 46.2212 50.4613C46.0121 50.4194 45.8448 50.3776 45.6775 50.5449C45.6356 50.5868 45.5938 50.6286 45.552 50.7123C45.5938 50.8378 45.552 50.8378 45.5101 50.9634Z" fill="black"/>
<path d="M29.1557 38.873C27.9008 39.3751 26.8969 40.1283 26.3112 41.2999C26.0184 41.9275 26.1439 42.4296 26.1439 43.0154C26.1439 43.6012 26.2276 43.894 26.4786 44.3543C26.2694 43.3501 26.2276 42.4714 26.6459 41.4254C27.0642 40.3793 28.1518 39.5007 29.1557 38.873Z" fill="black"/>
<path d="M29.2391 38.9141C27.6914 39.5417 26.7293 40.4204 26.1855 42.0103C26.3947 41.7175 26.5202 41.4246 26.7712 41.1317C27.4404 40.253 28.2771 39.5417 29.2391 38.9141Z" fill="black"/>
<path d="M29.365 38.9551C28.6538 39.4153 27.8172 39.3735 27.1898 40.0011C26.3114 40.8798 26.2695 42.0514 26.2695 43.2648C26.395 42.93 26.395 42.4279 26.5205 42.135C27.0225 40.5869 28.1101 39.9174 29.365 38.9551C29.365 38.9969 29.365 38.9551 29.365 38.9551Z" fill="black"/>
<path d="M29.4485 38.7461C27.5243 40.1269 25.4328 42.1353 26.7714 44.6458C26.5204 44.1018 26.3949 44.1018 26.5622 43.4324C27.0224 41.5495 27.9008 40.0013 29.4485 38.7461Z" fill="black"/>
<path d="M29.2809 38.9141C28.277 39.2906 27.6913 40.7133 27.3985 41.5082C27.0221 42.5543 27.0639 43.0145 27.0639 44.0187C27.1475 43.6003 27.1894 43.6422 27.3149 43.1819C27.4822 42.2196 27.8168 41.1317 28.277 40.1693C28.4861 39.7091 28.8207 39.1651 29.2809 38.9141Z" fill="black"/>
<path d="M29.4482 38.7891C28.8625 39.8769 28.1096 41.7598 28.0259 42.764C27.9423 43.7682 27.9841 43.7682 28.1096 44.6051C28.1933 43.7682 28.2769 43.9356 28.3188 42.8895C28.4024 41.9272 29.1135 40.0025 29.4482 38.7891Z" fill="black"/>
<path d="M28.904 39.207C28.1092 40.7552 27.3145 42.2196 27.3145 44.0188C27.9001 42.4288 28.402 40.797 28.904 39.207Z" fill="black"/>
<path d="M27.8588 39.625C26.6457 41.6752 25.3908 43.3489 27.064 45.441C25.7255 43.4326 26.9386 41.6334 27.8588 39.625Z" fill="black"/>
<path d="M28.7365 39.459C27.649 41.4674 26.3941 43.3084 28.0254 45.3168C26.8124 43.3084 27.9418 41.4255 28.7365 39.459Z" fill="black"/>
<path d="M29.6577 38.0352C29.1976 39.0394 28.9048 40.2528 28.6956 41.2988C28.4447 42.3448 28.5283 42.9725 29.0303 43.893C28.9466 42.9306 28.8211 42.2193 29.0721 41.257C29.1976 40.7549 29.3649 40.0854 29.4068 39.5415C29.4904 39.0394 29.4904 38.5373 29.6577 38.0352Z" fill="black"/>
<path d="M28.988 38.6641C27.4821 39.8775 26.7292 41.1746 26.3945 43.0574C26.5619 42.6809 26.6455 42.4717 26.8128 42.0532C27.3148 40.8398 28.0677 39.6264 28.988 38.6641Z" fill="black"/>
<path d="M29.1134 39.082C27.6494 40.5046 26.269 42.0946 26.8546 44.2704C26.8128 43.8101 26.8128 43.852 26.8965 43.308C27.1474 41.7599 28.0259 40.3373 29.1134 39.082Z" fill="black"/>
<path d="M29.1135 38.7891C28.5697 40.4627 27.7331 42.0109 27.7749 43.8101C28.3606 42.2201 28.8625 40.4627 29.1135 38.7891Z" fill="black"/>
<path d="M28.3611 39.416C27.6081 40.9642 26.3532 42.8052 26.9807 44.5625C26.8552 42.7634 27.7755 41.0478 28.3611 39.416Z" fill="black"/>
<path d="M29.1134 38.5371C28.8624 40.5874 27.984 42.3865 28.7788 44.4368C28.6951 42.4284 29.1971 40.5455 29.1134 38.5371Z" fill="black"/>
<path d="M29.0713 38.9551C28.0674 39.248 27.1472 39.5827 26.4361 40.3777C25.7249 41.1727 25.5995 42.0095 25.3066 42.9719C25.5158 42.5535 25.6413 42.1769 25.8923 41.7166C26.687 40.5032 27.7746 39.7082 29.0713 38.9551Z" fill="black"/>
<path d="M29.2396 38.7051C27.3155 40.044 26.186 41.2156 25.5586 43.5169C25.7677 43.0566 25.8514 42.68 26.1024 42.2198C26.8553 40.839 28.0266 39.7511 29.2396 38.7051Z" fill="black"/>
<path d="M29.1976 38.3702C28.5284 39.2488 27.7336 40.2949 27.1061 41.1317C26.4787 41.9685 26.2277 42.6799 25.7676 43.6004C26.0604 43.1401 26.2277 43.0146 26.5624 42.5125C27.0643 41.7593 27.7336 40.797 28.2356 39.9601C28.5702 39.4162 28.863 38.8723 29.1976 38.3702C29.1976 38.3283 29.1976 38.3702 29.1976 38.3702Z" fill="black"/>
<path d="M28.0248 41.5493C27.6483 41.8004 27.3973 41.6749 27.1464 41.4656C26.8954 41.2564 26.9372 40.9635 26.8954 40.6707C26.8536 40.4196 27.0209 40.2522 27.0209 40.043C27.7738 39.4991 28.4431 38.9133 29.0705 38.2438C29.1124 38.202 29.1124 38.1602 29.196 38.1602C29.2797 38.1602 29.3215 38.1602 29.3634 38.202C29.9071 38.7041 30.0326 39.248 29.6562 39.9175C29.2797 40.587 28.6104 41.1309 28.0248 41.5493Z" fill="black"/>
<path d="M30.7024 39.6673C30.5769 39.751 30.3259 39.8766 30.1586 39.7929C29.9913 39.7092 29.8658 39.5418 29.7403 39.3326C29.6148 39.1652 29.4056 38.9142 29.2383 38.7468C29.071 38.5795 28.9037 38.5376 28.82 38.3284C28.7364 38.1192 28.7364 37.8682 28.8619 37.6589C28.9873 37.4497 29.1965 37.4079 29.4056 37.4916C29.6148 37.5753 29.7403 37.7426 29.9076 37.91C30.0749 38.0774 30.2004 38.2029 30.3677 38.3284C30.5351 38.4539 30.7024 38.6213 30.8279 38.7887C30.9534 38.956 31.1207 39.0397 31.0788 39.2908C31.0788 39.3745 30.9952 39.4163 30.9534 39.5C30.8697 39.5418 30.8279 39.5837 30.7024 39.6673Z" fill="black"/>
<g opacity="0.29">
<path d="M100.183 218.457C99.8484 219.252 99.4301 220.005 99.4301 220.005C100.309 211.511 100.058 203.059 97.4223 194.858C95.7491 189.586 93.4066 183.687 89.4746 179.628C86.0445 176.071 81.6523 181.427 81.6523 181.427L86.672 170.046L89.2654 164.146L90.9804 166.824C96.9203 176.071 100.936 188.959 101.982 200.256C102.693 207.369 102.149 213.854 100.183 218.457Z" fill="black"/>
</g>
<g opacity="0.29">
<path d="M91.9003 168.246C90.5617 171.844 88.0938 175.568 87.0062 177.534C82.7814 185.442 79.4349 194.187 77.8036 203.058C77.0925 207.033 75.9212 210.966 75.2101 214.857C75.2101 214.732 75.2101 214.648 75.1683 214.522C73.7461 193.183 89.265 164.145 89.265 164.145C88.9722 163.685 88.7212 163.183 88.4284 162.722C87.6336 161.3 86.8389 159.961 86.0859 158.58C86.1278 158.58 86.1278 158.58 86.1696 158.58C87.3408 160.547 90.3526 165.735 91.2729 167.241C91.4402 167.492 91.6075 167.743 91.7748 168.036C91.8166 168.12 91.8585 168.162 91.9003 168.246Z" fill="black"/>
</g>
<path d="M85.752 157.869C87.0905 159.836 88.3036 161.886 89.5167 163.894C90.5624 165.735 92.1938 168.204 92.9467 170.129C90.2278 166.237 87.9689 162.053 85.752 157.869Z" fill="black"/>
<path d="M102.023 200.298C101.73 199.461 101.48 198.582 101.27 197.745C100.308 194.272 99.6808 190.674 98.5514 187.243C96.6272 181.427 93.2808 176.155 88.8887 171.971C90.1436 168.791 91.022 166.824 91.022 166.824C91.273 167.243 91.524 167.619 91.7749 168.038C91.9423 168.331 92.1096 168.623 92.2769 168.916C92.4442 169.167 92.5697 169.46 92.737 169.711C92.8625 169.921 92.988 170.13 93.1135 170.381C93.2808 170.674 93.4063 170.925 93.5736 171.218C93.741 171.552 93.9083 171.887 94.1174 172.264C94.3266 172.64 94.4939 173.017 94.6612 173.393C94.8285 173.77 95.0377 174.188 95.205 174.565C95.4142 174.983 95.5815 175.402 95.7906 175.862C95.9161 176.197 96.0834 176.49 96.2089 176.824C96.2508 176.908 96.2926 176.992 96.3344 177.117C96.4181 177.368 96.5436 177.619 96.6272 177.87C96.8364 178.414 97.0874 179 97.2965 179.544C97.5893 180.339 97.8821 181.092 98.1331 181.887C98.2586 182.306 98.4259 182.724 98.5514 183.142C98.6351 183.477 98.7606 183.812 98.8442 184.147C98.9279 184.356 98.9697 184.607 99.0534 184.816C99.0952 184.9 99.0952 184.983 99.137 185.067C99.2207 185.402 99.3462 185.695 99.4298 186.03C99.5135 186.406 99.639 186.783 99.7227 187.117C99.9318 187.871 100.099 188.582 100.266 189.335C100.35 189.712 100.434 190.088 100.517 190.423C100.601 190.799 100.685 191.176 100.768 191.511C100.852 191.887 100.936 192.222 100.978 192.599V192.641C101.103 193.352 101.229 194.105 101.354 194.816C101.48 195.569 101.605 196.281 101.689 196.992C101.772 197.703 101.856 198.415 101.94 199.126C101.94 199.586 101.981 199.921 102.023 200.298Z" fill="black"/>
<g opacity="0.29">
<path d="M105.16 112.807C104.449 112.263 103.654 111.803 102.902 111.342C102.19 110.924 101.521 110.505 100.81 110.129C100.977 111.844 100.768 115.066 100.517 118.832C100.559 122.556 99.7643 130.464 100.183 133.016C100.685 136.113 101.186 138.623 101.396 139.334V139.376C101.563 139.795 113.15 156.448 116.915 164.816C117.835 161.385 115.869 157.536 114.363 154.565C111.017 147.912 105.997 142.096 105.62 134.439C105.453 130.799 105.788 127.2 105.955 123.56C106.039 121.719 106.039 119.878 105.955 118.037C105.871 117.033 105.955 113.393 105.16 112.807Z" fill="black"/>
</g>
<g opacity="0.29">
<path d="M132.434 115.902C132.141 116.32 131.891 116.781 131.64 117.241C127.708 127.576 118.338 152.388 117.752 163.518C123.859 152.346 139.587 123.433 144.272 111.927C144.314 111.843 144.356 111.76 144.356 111.676C146.824 106.32 157.658 104.898 158.829 102.22C148.497 101.843 138.081 107.241 132.434 115.902Z" fill="black"/>
</g>
<g opacity="0.29">
<path d="M101.437 139.375C100.935 140.254 100.392 140.672 99.4713 142.262C99.3876 142.429 99.2621 142.597 99.1366 142.722C98.8438 142.973 98.3837 142.89 98.049 142.681C97.2543 142.178 97.0033 141.132 96.836 140.17C96.2085 136.404 96.1248 132.513 96.585 128.747C96.9196 126.279 97.4634 123.852 98.0072 121.467C98.551 119.082 99.0948 116.655 99.6386 114.27C99.9732 112.764 100.308 111.257 100.768 109.793C100.768 109.918 100.81 110.002 100.81 110.128C100.977 111.843 100.768 115.065 100.517 118.831C100.057 126.195 99.5131 135.609 101.395 139.333C101.395 139.333 101.437 139.333 101.437 139.375Z" fill="black"/>
</g>
<g opacity="0.29">
<path d="M95.7902 34.3952C93.4059 34.6462 90.9379 34.6044 88.5954 35.232C83.7013 36.5291 80.1039 40.6296 76.883 44.5627C71.8216 50.7553 66.802 57.1989 64.4176 64.8141C64.3758 64.6886 64.3758 64.563 64.334 64.3957C69.1863 52.2197 76.7157 39.0396 85.4163 30.5039C85.4582 30.5039 85.4582 30.5039 85.5 30.5039C85.3745 30.6294 85.2908 30.755 85.2072 30.8805C85.2072 30.8805 85.1654 30.8805 85.2072 30.9223C87.0895 32.3449 91.0216 33.5165 95.7902 34.3952Z" fill="black"/>
</g>
<path d="M107.167 51.4657C105.996 51.2983 104.825 51.1309 103.654 51.0473C103.277 51.0473 102.859 50.9636 102.482 51.1728C102.65 51.0473 102.859 51.0473 103.068 51.0054C104.448 50.8799 105.871 50.9636 107.251 51.0473C107.209 51.0473 107.167 51.4657 107.167 51.4657Z" fill="black"/>
<path d="M124.82 56.0273C125.95 56.0692 127.079 56.1529 128.167 56.2784C128.543 56.3621 128.92 56.3621 129.254 56.5713C128.92 56.3621 128.543 56.3621 128.167 56.3202C127.037 56.1947 125.95 56.1529 124.82 56.1529V56.0273Z" fill="black"/>
<path d="M116.204 48.9549C115.66 50.7959 113.945 52.0512 112.147 52.5951L108.633 51.7583H108.591L108.549 51.7164L108.591 51.7583C108.006 51.6746 107.462 51.5491 106.876 51.4654C105.83 51.047 105.412 49.8336 105.161 48.8294C104.617 46.7373 105.663 44.6452 107.211 43.2644C109.219 41.3397 112.732 40.8794 114.866 42.8042C116.581 44.3523 116.79 46.9046 116.204 48.9549ZM116.204 48.9549C118.087 41.2979 109.219 39.4987 106.249 46.026C105.621 47.4067 105.872 50.0009 107.085 50.9214C107.545 51.0888 108.257 51.298 108.759 51.5072C108.466 51.3817 112.272 52.4696 112.189 52.4696C113.862 52.0512 115.702 50.7959 116.204 48.9549Z" fill="black"/>
<path d="M116.205 48.9548C115.41 51.7163 112.19 52.5113 112.19 52.5113L108.676 51.5908L107.003 51.1724C106.041 50.8376 105.12 48.3271 105.664 46.4442C106.166 44.6032 108.592 41.3396 112.399 41.7998C116.205 42.3019 117.042 46.1932 116.205 48.9548Z" fill="white"/>
<path d="M116.204 48.9549C115.66 50.7959 113.945 52.0512 112.147 52.5951L108.633 51.7583H108.591L108.549 51.7164L108.591 51.7583C108.006 51.6746 107.462 51.5491 106.876 51.4654C105.83 51.047 105.412 49.8336 105.161 48.8294C104.617 46.7373 105.663 44.6452 107.211 43.2644C109.219 41.3397 112.732 40.8794 114.866 42.8042C116.581 44.3523 116.79 46.9046 116.204 48.9549ZM116.204 48.9549C118.087 41.2979 109.219 39.4987 106.249 46.026C105.621 47.4067 105.872 50.0009 107.085 50.9214C107.545 51.0888 108.257 51.298 108.759 51.5072C108.466 51.3817 112.272 52.4696 112.189 52.4696C113.862 52.0512 115.702 50.7959 116.204 48.9549Z" fill="black"/>
<path d="M116.078 48.7042C116.078 48.7461 116.078 48.7879 116.078 48.8716C116.037 49.1227 115.786 49.4992 115.702 49.7084C115.493 50.3779 114.865 51.0055 114.322 51.4239C113.861 51.8005 113.359 52.0516 112.816 52.3026C112.816 52.3026 112.774 52.3026 112.774 52.3445C112.439 52.47 112.188 52.5537 112.188 52.5537L109.427 51.8424C109.26 51.8005 109.093 51.7168 108.967 51.675C108.842 51.5913 108.716 51.5076 108.591 51.4658C108.34 51.3403 108.173 51.2147 107.963 51.0474C107.671 50.8382 107.461 50.5453 107.252 50.2524C106.918 49.6666 106.792 48.9553 106.834 48.244C106.959 46.8214 107.838 45.4406 109.176 44.813C110.682 44.1016 112.481 44.0598 113.987 44.813C115.367 45.4824 116.12 47.1979 116.078 48.7042Z" fill="url(#paint6_linear_2299_12195)"/>
<path d="M116.204 48.9547C116.162 49.0803 116.121 49.2476 116.079 49.3732C115.368 51.1305 113.653 51.9674 112.774 52.3439C112.44 52.4695 112.189 52.5531 112.189 52.5531L109.428 51.8418L108.884 51.7163L108.675 51.6745C108.675 51.6745 108.633 51.5908 108.591 51.4653C108.382 50.6703 107.796 48.0342 109.302 46.7371C111.059 45.2727 113.82 44.9379 116.037 48.7455C116.121 48.7874 116.162 48.8711 116.204 48.9547Z" fill="black"/>
<path d="M111.141 47.4905C111.719 47.4905 112.187 47.0222 112.187 46.4445C112.187 45.8668 111.719 45.3984 111.141 45.3984C110.564 45.3984 110.096 45.8668 110.096 46.4445C110.096 47.0222 110.564 47.4905 111.141 47.4905Z" fill="white"/>
<path d="M82.1947 121.258L79.6849 120.84L78.0117 123.35L80.1032 123.769L82.1947 121.258Z" fill="#8C1539"/>
<path d="M137.579 97.8694L136.157 96.5723L133.814 97.7438L135.32 99.0828L137.579 97.8694Z" fill="#8C1539"/>
<path d="M157.112 99.7936L156.652 98.2455L154.352 98.0781L155.397 99.9192L157.112 99.7936Z" fill="#8C1539"/>
<path d="M98.8223 108.258L97.5801 110.244L98.9277 111.087L100.17 109.101L98.8223 108.258Z" fill="#8C1539"/>
<g opacity="0.16">
<path d="M131.011 41.6329C130.593 41.3818 130.091 41.2981 129.589 41.2144C128.836 41.0889 128.041 41.0052 127.288 40.8797C126.87 40.8379 126.452 41.0889 126.452 41.0889C125.531 41.1726 124.946 42.0513 124.528 42.8463C122.562 46.5702 121.976 51.0054 122.896 55.1477C122.938 55.3569 123.022 55.608 123.189 55.7335C123.314 55.859 123.524 55.859 123.691 55.9009C125.531 56.0682 127.33 56.2774 129.171 56.4448C128.794 54.4364 129.422 52.3862 130.216 50.5033C131.011 48.6204 131.931 46.7375 132.141 44.7291C132.224 43.5576 132.015 42.2186 131.011 41.6329Z" fill="black"/>
</g>
<path d="M127.664 51.9686C127.287 55.8599 125.321 56.1109 125.321 56.1109H123.481H123.062H122.979C122.644 53.7678 122.895 51.9268 123.397 50.4623C123.439 50.2949 123.522 50.1276 123.606 49.9602C124.61 47.5334 126.325 46.4037 126.994 46.3618C128.04 46.1944 127.998 48.0773 127.664 51.9686Z" fill="white"/>
<path d="M127.831 51.9683C127.622 53.5583 127.079 55.6504 125.322 56.1525C124.527 56.1525 123.732 56.1525 122.937 56.1525H122.854V56.0688C122.017 52.4704 122.812 47.8679 126.367 45.9431C126.869 45.6921 127.622 45.7339 127.957 46.236C128.25 46.6126 128.333 47.0729 128.375 47.5331C128.417 49.0813 127.999 50.5039 127.831 51.9683ZM127.497 51.9683C127.581 50.462 127.497 48.8721 127.33 47.4076C127.288 47.2402 127.246 46.9892 127.162 46.8637C127.079 46.7381 126.869 46.8218 126.786 46.8637C124.987 47.7423 123.899 49.7926 123.398 51.7591C123.063 53.1399 122.979 54.6044 123.063 56.027L122.979 55.9433C123.774 55.9851 124.569 55.9851 125.364 55.9851C125.698 55.9015 126.116 55.6504 126.367 55.3575C127.162 54.4788 127.371 53.1399 127.497 51.9683Z" fill="black"/>
<path d="M123.021 56.0693H122.938C122.603 53.7261 122.854 51.8851 123.356 50.4206C123.398 50.2533 123.481 50.0859 123.565 49.9185C124.527 49.4583 126.535 50.5462 126.535 52.2198C126.535 53.8935 125.28 55.5672 123.021 56.0693Z" fill="url(#paint7_linear_2299_12195)"/>
<path d="M123.44 56.0685H122.897C122.562 53.7254 122.813 51.8844 123.315 50.4199C126.243 50.8802 126.201 53.7254 123.44 56.0685Z" fill="black"/>
<path d="M124.946 52.6372C125.362 52.6372 125.699 52.3 125.699 51.884C125.699 51.4681 125.362 51.1309 124.946 51.1309C124.53 51.1309 124.193 51.4681 124.193 51.884C124.193 52.3 124.53 52.6372 124.946 52.6372Z" fill="white"/>
<path d="M127.831 51.9683C127.622 53.5583 127.079 55.6504 125.322 56.1525C124.527 56.1525 123.732 56.1525 122.937 56.1525H122.854V56.0688C122.017 52.4704 122.812 47.8679 126.367 45.9431C126.869 45.6921 127.622 45.7339 127.957 46.236C128.25 46.6126 128.333 47.0729 128.375 47.5331C128.417 49.0813 127.999 50.5039 127.831 51.9683ZM127.497 51.9683C127.581 50.462 127.497 48.8721 127.33 47.4076C127.288 47.2402 127.246 46.9892 127.162 46.8637C127.079 46.7381 126.869 46.8218 126.786 46.8637C124.987 47.7423 123.899 49.7926 123.398 51.7591C123.063 53.1399 122.979 54.6044 123.063 56.027L122.979 55.9433C123.774 55.9851 124.569 55.9851 125.364 55.9851C125.698 55.9015 126.116 55.6504 126.367 55.3575C127.162 54.4788 127.371 53.1399 127.497 51.9683Z" fill="black"/>
<path d="M124.234 70.8386C126.911 70.5876 127.79 75.9433 127.874 77.9099C127.497 76.5291 127.121 75.1901 126.661 73.8512C126.242 72.6796 125.657 71.006 124.234 70.8386Z" fill="black"/>
<path d="M166.693 173.979C166.693 174.23 166.693 174.439 166.693 174.691C166.693 174.9 166.651 175.109 166.651 175.36C166.651 175.402 166.651 175.444 166.651 175.486C166.651 175.695 166.61 175.862 166.568 176.071C166.526 176.322 166.526 176.532 166.484 176.741C166.442 176.95 166.4 177.201 166.359 177.41C166.359 177.41 166.359 177.41 166.359 177.452C166.317 177.661 166.275 177.871 166.233 178.038V178.08C166.191 178.289 166.108 178.498 166.066 178.749C166.024 178.917 165.982 179.042 165.898 179.209C165.898 179.293 165.857 179.335 165.815 179.419C165.731 179.586 165.689 179.795 165.606 179.963C165.606 180.004 165.564 180.046 165.564 180.046C165.48 180.255 165.396 180.423 165.313 180.632V180.674C165.229 180.841 165.145 181.05 165.062 181.218C164.978 181.427 164.853 181.594 164.769 181.804C164.685 182.013 164.56 182.18 164.434 182.389V182.431C164.309 182.599 164.225 182.808 164.1 182.975C164.016 183.143 163.891 183.268 163.765 183.435C163.723 183.519 163.681 183.561 163.598 183.645C163.43 183.896 163.221 184.147 163.012 184.398C162.845 184.607 162.678 184.774 162.51 184.942C162.427 185.025 162.385 185.067 162.301 185.151C162.259 185.193 162.259 185.193 162.217 185.235C162.134 185.318 162.05 185.444 161.966 185.528C161.883 185.611 161.799 185.695 161.674 185.82C161.59 185.904 161.464 185.988 161.381 186.071C161.213 186.239 161.004 186.406 160.837 186.532C160.795 186.574 160.753 186.615 160.712 186.615C160.586 186.699 160.502 186.783 160.377 186.866C160.251 186.95 160.126 187.034 160 187.159C159.875 187.243 159.749 187.327 159.624 187.41C159.247 187.661 158.871 187.913 158.453 188.122C158.327 188.205 158.202 188.289 158.034 188.331C157.909 188.415 157.783 188.456 157.616 188.54C157.491 188.624 157.323 188.666 157.198 188.749C157.072 188.833 156.905 188.875 156.779 188.959C156.654 189.042 156.487 189.084 156.319 189.126C156.194 189.168 156.027 189.21 155.901 189.293C155.734 189.335 155.608 189.377 155.441 189.461C155.315 189.502 155.19 189.544 155.023 189.586C154.27 189.795 153.475 190.005 152.68 190.088C152.513 190.13 152.345 190.13 152.22 190.172C152.053 190.172 151.885 190.214 151.676 190.214C151.551 190.214 151.383 190.214 151.258 190.256C151.091 190.256 150.923 190.256 150.756 190.256C150.589 190.256 150.421 190.256 150.254 190.256C149.166 190.256 148.121 190.172 147.117 189.963C146.155 189.795 145.193 189.502 144.272 189.126C140.591 187.661 137.579 184.9 135.739 181.427C135.572 181.092 135.404 180.758 135.237 180.381C134.902 179.67 134.651 178.917 134.442 178.122C134.066 176.783 133.898 175.36 133.898 173.937C133.898 171.887 134.275 169.879 134.986 168.08C135.739 166.113 136.827 164.356 138.249 162.849C141.219 159.628 145.485 157.619 150.212 157.619C156.528 157.619 162.008 161.218 164.727 166.49C166.024 168.749 166.693 171.301 166.693 173.979Z" fill="black"/>
<path d="M152.846 170.547C152.218 170.547 151.549 170.464 150.922 170.338C149.123 169.92 147.575 169.041 146.53 167.786C145.526 166.573 145.107 165.192 145.4 163.853C145.902 161.677 148.286 160.129 151.215 160.129C151.842 160.129 152.511 160.213 153.139 160.338C154.937 160.757 156.485 161.635 157.531 162.89C158.535 164.104 158.953 165.485 158.66 166.824C158.158 169.041 155.774 170.547 152.846 170.547Z" fill="#F9F9F2"/>
<path d="M151.215 159.752V160.589C151.8 160.589 152.428 160.672 153.055 160.798C156.485 161.551 158.786 164.229 158.242 166.781C157.782 168.79 155.565 170.171 152.846 170.171C152.261 170.171 151.633 170.087 151.006 169.961C149.291 169.585 147.827 168.748 146.864 167.535C145.944 166.405 145.568 165.15 145.819 163.978C146.279 161.97 148.496 160.589 151.215 160.589V159.752ZM151.215 159.752C148.161 159.752 145.568 161.342 144.982 163.811C144.313 166.781 146.906 169.919 150.797 170.756C151.466 170.924 152.135 170.966 152.804 170.966C155.858 170.966 158.451 169.376 159.037 166.907C159.706 163.936 157.113 160.798 153.223 159.961C152.553 159.794 151.884 159.752 151.215 159.752Z" fill="black"/>
<path d="M161.755 181.426C161.713 181.426 161.671 181.426 161.629 181.426C159.83 181.259 158.617 178.037 158.952 174.397C159.287 170.84 160.96 167.953 162.717 167.953C162.759 167.953 162.8 167.953 162.842 167.953C164.641 168.12 165.854 171.342 165.519 174.983C165.227 178.539 163.512 181.426 161.755 181.426Z" fill="#F9F9F2"/>
<path d="M162.718 168.372C162.759 168.372 162.801 168.372 162.801 168.372C163.471 168.414 164.098 169.083 164.516 170.171C165.06 171.468 165.227 173.142 165.06 174.941C164.725 178.581 163.052 181.008 161.714 181.008C161.672 181.008 161.63 181.008 161.63 181.008C160.961 180.966 160.333 180.297 159.915 179.209C159.371 177.912 159.204 176.238 159.371 174.439C159.706 170.799 161.379 168.372 162.718 168.372ZM162.718 167.535C160.752 167.535 158.869 170.506 158.535 174.355C158.158 178.288 159.538 181.678 161.588 181.845C161.63 181.845 161.714 181.845 161.755 181.845C163.722 181.845 165.604 178.874 165.938 175.025C166.315 171.092 164.935 167.703 162.885 167.535C162.843 167.535 162.801 167.535 162.718 167.535Z" fill="black"/>
<path d="M137.703 178.12C137.536 178.12 137.368 178.078 137.243 178.036C135.402 177.492 134.733 173.852 135.821 170.044C136.825 166.572 138.958 163.936 140.798 163.936C140.966 163.936 141.133 163.977 141.259 164.019C142.137 164.27 142.764 165.191 143.057 166.655C143.35 168.203 143.225 170.128 142.681 172.011C141.677 175.484 139.544 178.12 137.703 178.12Z" fill="#EEEEE4"/>
<path d="M140.799 164.354C140.924 164.354 141.05 164.354 141.175 164.396C141.886 164.605 142.43 165.442 142.681 166.698C142.974 168.162 142.848 170.003 142.305 171.886C141.259 175.526 139.167 177.66 137.745 177.66C137.62 177.66 137.494 177.66 137.369 177.618C135.946 177.2 135.11 174.02 136.239 170.129C137.243 166.53 139.377 164.354 140.799 164.354ZM140.799 163.518C138.791 163.518 136.49 166.195 135.403 169.919C134.231 174.02 134.984 177.827 137.118 178.455C137.327 178.497 137.494 178.539 137.703 178.539C139.711 178.539 142.012 175.861 143.099 172.137C144.271 168.036 143.518 164.229 141.384 163.601C141.175 163.559 141.008 163.518 140.799 163.518Z" fill="black"/>
<path d="M146.195 189.167C146.027 189.167 145.526 189.084 144.271 188.331L144.187 188.289C143.141 187.661 141.928 186.741 140.757 185.736C139 184.23 137.578 182.724 136.867 181.636C136.574 181.218 136.532 180.966 136.49 180.883C136.532 180.883 136.532 180.883 136.574 180.883C137.076 180.966 138.122 181.469 139.293 182.264C139.502 182.389 139.711 182.556 139.962 182.724C140.631 183.184 141.301 183.728 141.97 184.314C142.137 184.439 142.514 184.774 142.514 184.774C143.476 185.653 144.354 186.49 145.024 187.285C145.107 187.368 145.191 187.452 145.233 187.536C145.944 188.456 146.153 188.958 146.195 189.167Z" fill="#EEEEE4"/>
<path d="M137.327 181.593C137.746 181.803 138.331 182.137 139.042 182.598C139.251 182.723 139.461 182.891 139.712 183.058C140.381 183.518 141.05 184.062 141.719 184.606C141.887 184.773 142.054 184.899 142.221 185.066C143.184 185.903 144.02 186.782 144.689 187.535C144.773 187.619 144.815 187.702 144.899 187.786C145.108 188.037 145.233 188.246 145.359 188.414C145.15 188.288 144.857 188.163 144.522 187.953L144.397 187.87C143.393 187.242 142.18 186.363 141.05 185.359C139.377 184.02 138.038 182.639 137.327 181.593ZM136.449 180.464C136.282 180.464 136.198 180.506 136.114 180.589C136.031 180.673 136.031 180.798 136.072 180.966C136.114 181.217 136.282 181.51 136.491 181.886C137.202 182.974 138.624 184.522 140.465 186.071C141.761 187.158 143.016 188.079 144.062 188.707C145.024 189.292 145.777 189.585 146.237 189.585C146.404 189.585 146.488 189.543 146.572 189.46L146.614 189.418C146.781 189.083 146.404 188.288 145.568 187.284C145.484 187.2 145.401 187.075 145.317 186.991C144.648 186.238 143.769 185.317 142.765 184.439C142.598 184.271 142.431 184.146 142.221 183.978C141.51 183.393 140.841 182.849 140.172 182.347C139.921 182.179 139.712 182.012 139.502 181.886C138.248 181.05 137.202 180.506 136.616 180.422C136.533 180.464 136.491 180.464 136.449 180.464Z" fill="black"/>
<path d="M150.002 189.629C149.417 189.629 149.166 189.503 149.124 189.42C149.082 189.252 149.291 188.75 150.63 187.913C151.801 187.16 153.391 186.365 155.189 185.696C157.615 184.775 159.958 184.189 161.296 184.189C161.882 184.189 162.133 184.315 162.175 184.399C162.217 184.566 162.008 185.068 160.669 185.905C159.498 186.658 157.908 187.453 156.11 188.123C153.683 189.043 151.341 189.629 150.002 189.629Z" fill="white"/>
<path d="M161.296 184.356C161.756 184.356 161.923 184.44 161.965 184.44C161.839 184.942 159.832 186.448 156.025 187.912C153.599 188.833 151.298 189.419 150.001 189.419C149.541 189.419 149.374 189.335 149.332 189.335C149.458 188.833 151.466 187.327 155.272 185.862C157.656 184.942 159.999 184.356 161.296 184.356ZM161.296 183.938C159.999 183.938 157.656 184.481 155.105 185.486C151.382 186.908 148.621 188.707 148.914 189.502C148.998 189.753 149.416 189.879 150.001 189.879C151.298 189.879 153.641 189.335 156.192 188.331C159.915 186.908 162.676 185.109 162.383 184.314C162.299 184.063 161.881 183.938 161.296 183.938Z" fill="black"/>
<path d="M149.584 186.363C153.511 186.363 156.695 183.178 156.695 179.25C156.695 175.321 153.511 172.137 149.584 172.137C145.656 172.137 142.473 175.321 142.473 179.25C142.473 183.178 145.656 186.363 149.584 186.363Z" fill="#EEEEE4" stroke="black" stroke-width="2" stroke-miterlimit="10"/>
<path d="M147.2 173.434V168.287L142.725 170.881L147.2 173.434Z" fill="#EEEEE4"/>
<path d="M159.204 172.431L154.729 169.879V175.025L159.204 172.431Z" fill="#EEEEE4"/>
<path d="M143.393 180.338L138.959 177.744L139.335 182.389L143.393 180.338Z" fill="#EEEEE4"/>
<path d="M159.833 180.924L156.193 182.179L157.281 185.443C158.494 183.895 159.205 182.807 159.833 180.924Z" fill="#EEEEE4"/>
<path d="M160.041 162.555L160.208 166.781L163.973 166.655C162.718 164.856 161.84 163.81 160.041 162.555Z" fill="#F9F9F2"/>
<path d="M140.213 162.556L144.354 163.393L145.107 159.711C143.057 160.464 141.844 161.092 140.213 162.556Z" fill="#F9F9F2"/>
<path d="M150.672 188.33L148.831 185.568L145.568 187.409C147.409 188.079 148.622 188.372 150.672 188.33Z" fill="white"/>
<g opacity="0.43">
<path d="M166.692 173.979C166.692 174.23 166.692 174.439 166.692 174.69C166.692 174.899 166.65 175.109 166.65 175.36C166.65 175.401 166.65 175.443 166.65 175.485C166.65 175.694 166.608 175.862 166.566 176.071C166.524 176.322 166.524 176.531 166.482 176.74C166.441 176.95 166.399 177.201 166.357 177.41C166.357 177.41 166.357 177.41 166.357 177.452C166.315 177.661 166.273 177.87 166.231 178.037V178.079C166.19 178.288 166.106 178.498 166.064 178.749C166.022 178.916 165.98 179.042 165.897 179.209C165.897 179.293 165.855 179.335 165.813 179.418C165.729 179.586 165.688 179.795 165.604 179.962C165.604 180.004 165.562 180.046 165.562 180.046C165.478 180.255 165.395 180.422 165.311 180.632V180.673C165.228 180.841 165.144 181.05 165.06 181.217C164.977 181.427 164.851 181.594 164.767 181.803C164.684 182.012 164.558 182.18 164.433 182.389V182.431C164.307 182.598 164.224 182.807 164.098 182.975C164.014 183.142 163.889 183.268 163.763 183.435C163.722 183.519 163.68 183.561 163.596 183.644C163.429 183.895 163.22 184.146 163.011 184.397C162.843 184.607 162.676 184.774 162.509 184.941C162.425 185.025 162.341 185.151 162.258 185.234C162.174 185.318 162.09 185.443 162.007 185.527C161.923 185.611 161.839 185.694 161.714 185.82C161.63 185.904 161.505 185.987 161.421 186.071C161.254 186.238 161.045 186.406 160.877 186.531C160.835 186.573 160.794 186.615 160.752 186.615C160.626 186.699 160.543 186.782 160.417 186.866C160.292 186.95 160.166 187.033 160.041 187.159C159.915 187.243 159.79 187.326 159.664 187.41C159.288 187.661 158.911 187.912 158.493 188.121C158.367 188.205 158.242 188.289 158.075 188.33C157.949 188.414 157.824 188.456 157.656 188.54C157.531 188.623 157.363 188.665 157.238 188.749C157.112 188.833 156.945 188.874 156.82 188.958C156.694 189.042 156.527 189.084 156.36 189.125C156.234 189.167 156.067 189.209 155.941 189.293C155.774 189.335 155.648 189.377 155.481 189.46C155.356 189.502 155.23 189.544 155.063 189.586C154.31 189.795 153.515 190.004 152.72 190.088C152.553 190.13 152.386 190.13 152.26 190.172C152.093 190.172 151.926 190.213 151.716 190.213C151.591 190.213 151.424 190.213 151.298 190.255C151.131 190.255 150.963 190.255 150.796 190.255C150.629 190.255 150.462 190.255 150.294 190.255C149.207 190.255 148.161 190.172 147.157 189.962C146.195 189.795 145.233 189.502 144.312 189.125C140.631 187.661 137.62 184.899 135.779 181.427C135.528 181.008 135.361 180.673 135.277 180.381C134.943 179.669 134.692 178.916 134.482 178.121C134.901 178.707 135.361 179.293 135.863 179.837C137.745 181.845 140.088 183.435 142.765 184.314C143.601 184.607 144.438 184.816 145.358 184.941C146.279 185.109 147.199 185.192 148.161 185.192C150.545 185.192 152.804 184.69 154.812 183.812C155.314 183.602 155.858 183.351 156.318 183.058C157.363 182.473 158.326 181.803 159.204 181.008C159.371 180.883 159.497 180.757 159.622 180.632C162.676 177.703 164.684 173.644 164.851 169.125C164.851 168.916 164.851 168.707 164.851 168.456C164.851 167.786 164.809 167.117 164.726 166.447C166.022 168.749 166.692 171.301 166.692 173.979Z" fill="black"/>
</g>
<g opacity="0.29">
<path d="M115.785 74.6873C106.708 77.2815 97.6723 82.177 93.1128 90.4616C91.105 94.1018 90.0592 98.2023 89.3899 102.345C86.0017 100.964 83.1154 99.5831 82.739 97.7002C81.0239 89.1645 81.6096 78.1602 86.4618 73.976C90.6448 70.4195 104.7 77.6581 115.785 74.6873Z" fill="black"/>
</g>
<path d="M105.495 75.1908C97.2541 74.3121 89.4319 71.5087 86.5038 73.9774C81.7352 78.0779 81.0659 88.6638 82.6554 97.1159C80.5221 91.9693 81.0241 85.9023 81.0241 80.17C81.0241 77.5339 80.9404 73.0987 84.5796 71.0485C90.394 67.8685 94.4097 73.3498 105.495 75.1908Z" fill="black"/>
<g opacity="0.15">
<path d="M114.237 112.764C116.496 99.8347 117.793 82.6378 110.389 75.441C112.229 75.3992 114.07 75.19 115.827 74.7297C116.872 74.4368 117.876 74.1021 118.838 73.6C119.173 73.4326 119.508 73.2652 119.842 73.056C119.926 73.056 119.968 73.0142 120.051 72.9305C120.553 72.5958 121.097 72.261 121.557 71.8845C122.603 71.0895 123.44 70.7129 124.067 70.7129C124.234 70.8384 124.402 70.9221 124.527 70.7966C128.334 72.2192 122.268 92.9308 114.237 112.764Z" fill="black"/>
</g>
<g opacity="0.08">
<path d="M163.347 179.292C163.347 179.543 163.347 179.752 163.347 180.003C163.347 180.212 163.305 180.421 163.305 180.673C163.305 180.714 163.305 180.756 163.305 180.798C163.305 181.007 163.263 181.175 163.221 181.384C163.179 181.593 163.179 181.844 163.138 182.053C163.096 182.263 163.054 182.514 163.012 182.723C163.012 182.723 163.012 182.723 163.012 182.765C162.97 182.974 162.928 183.183 162.887 183.35V183.392C162.845 183.601 162.761 183.811 162.719 184.062C162.678 184.229 162.636 184.355 162.552 184.522C162.552 184.606 162.51 184.647 162.468 184.731C162.427 184.857 162.385 185.024 162.301 185.15C162.259 185.191 162.259 185.191 162.217 185.233C162.134 185.317 162.05 185.442 161.966 185.526C161.883 185.61 161.799 185.694 161.674 185.819C161.59 185.903 161.464 185.986 161.381 186.07C161.213 186.237 161.004 186.405 160.837 186.53C160.795 186.572 160.753 186.614 160.712 186.614C160.586 186.698 160.502 186.781 160.377 186.865C160.251 186.949 160.126 187.032 160 187.158C159.875 187.242 159.749 187.325 159.624 187.409C159.247 187.66 158.871 187.911 158.453 188.12C158.327 188.204 158.202 188.288 158.034 188.33C157.909 188.413 157.783 188.455 157.616 188.539C157.491 188.622 157.323 188.664 157.198 188.748C157.072 188.832 156.905 188.873 156.779 188.957C156.654 189.041 156.487 189.083 156.319 189.125C156.194 189.166 156.027 189.208 155.901 189.292C155.734 189.334 155.608 189.376 155.441 189.459C155.315 189.501 155.19 189.543 155.023 189.585C154.27 189.794 153.475 190.003 152.68 190.087C152.513 190.129 152.345 190.129 152.22 190.171C152.053 190.171 151.885 190.212 151.676 190.212C151.551 190.212 151.383 190.212 151.258 190.254C151.091 190.254 150.923 190.254 150.756 190.254C150.589 190.254 150.421 190.254 150.254 190.254C149.166 190.254 148.121 190.171 147.117 189.961C146.155 189.794 145.193 189.501 144.272 189.125C140.591 187.66 137.579 184.899 135.739 181.426C135.572 181.091 135.404 180.756 135.237 180.38C134.902 179.668 134.651 178.915 134.442 178.12C134.066 176.781 133.898 175.359 133.898 173.936C133.898 171.886 134.275 169.877 134.986 168.078C137.956 164.898 142.181 162.932 146.866 162.932C153.182 162.932 158.662 166.53 161.381 171.802C162.678 174.062 163.347 176.614 163.347 179.292Z" fill="black"/>
</g>
<g opacity="0.29">
<path d="M107.377 75.3162C106.206 75.2325 104.993 75.107 103.822 74.9815C96.7105 74.0191 90.185 71.9689 87.1314 73.5588C86.5458 72.8475 86.6713 71.676 87.2151 70.9647C87.717 70.2952 88.5118 69.9186 89.3484 69.7094C96.6268 68.6215 100.935 73.7262 107.252 75.1907C107.335 75.2325 107.377 75.2743 107.377 75.3162Z" fill="black"/>
</g>
<g opacity="0.19">
<path d="M82.7817 97.7018C82.8653 98.2039 83.1581 98.706 83.6183 99.1244C83.1581 99.2499 82.6143 98.8315 82.2797 98.4549C81.5686 97.6599 80.8156 96.8231 80.1045 96.0281C78.8915 94.6892 77.6366 93.2665 77.2183 91.4674C76.5072 88.3711 76.9673 84.9401 77.3019 81.8019C77.4274 80.5885 77.6366 79.3751 78.013 78.2454C78.2222 77.6178 78.9333 75.442 79.6444 75.1909C80.1045 75.0236 80.3973 74.647 80.6902 74.0612C81.4013 73.4336 82.196 72.7641 82.8235 72.3457C83.9529 73.1825 84.4549 74.4796 84.8313 75.8604C81.5268 80.9651 81.2758 90.2539 82.7817 97.7018Z" fill="black"/>
</g>
<g opacity="0.29">
<path d="M82.4043 72.5131C82.4461 72.5131 82.4461 72.5549 82.488 72.5549C82.5716 72.4712 82.6971 72.4294 82.7808 72.3457L82.4043 72.5131Z" fill="black"/>
</g>
<path opacity="0.19" d="M125.112 79.1237C125.949 74.6048 125.907 71.5922 124.652 70.8809C125.154 70.9645 125.531 71.383 125.865 71.8014C126.326 72.3035 126.577 72.9729 126.786 73.6006C127.037 74.3537 127.246 75.1069 127.455 75.86C127.622 76.5295 125.112 79.1237 125.112 79.1237Z" fill="black"/>
<defs>
<linearGradient id="paint0_linear_2299_12195" x1="115.944" y1="158.66" x2="124.043" y2="120.77" gradientUnits="userSpaceOnUse">
<stop stop-color="#8C1539"/>
<stop offset="1" stop-color="white" stop-opacity="0"/>
</linearGradient>
<linearGradient id="paint1_linear_2299_12195" x1="90.4026" y1="166.365" x2="78.2548" y2="208.749" gradientUnits="userSpaceOnUse">
<stop stop-color="#8C1539"/>
<stop offset="1" stop-color="white" stop-opacity="0"/>
</linearGradient>
<linearGradient id="paint2_linear_2299_12195" x1="98.2451" y1="230.556" x2="95.3149" y2="225.115" gradientUnits="userSpaceOnUse">
<stop stop-color="#8C1539"/>
<stop offset="1" stop-color="white" stop-opacity="0"/>
</linearGradient>
<linearGradient id="paint3_linear_2299_12195" x1="131.791" y1="198.712" x2="133.94" y2="201.531" gradientUnits="userSpaceOnUse">
<stop stop-color="#8C1539"/>
<stop offset="1" stop-color="white" stop-opacity="0"/>
</linearGradient>
<linearGradient id="paint4_linear_2299_12195" x1="74.3482" y1="25.9438" x2="92.0384" y2="50.0601" gradientUnits="userSpaceOnUse">
<stop stop-color="#8C1539"/>
<stop offset="1" stop-color="white" stop-opacity="0"/>
</linearGradient>
<radialGradient id="paint5_radial_2299_12195" cx="0" cy="0" r="1" gradientUnits="userSpaceOnUse" gradientTransform="translate(115.734 -49.6815) scale(85.691 85.7148)">
<stop offset="0.9028" stop-color="#3A3635"/>
<stop offset="0.9662" stop-color="#8B8786"/>
<stop offset="0.9838" stop-color="#898584"/>
<stop offset="0.9902" stop-color="#827E7D"/>
<stop offset="0.9947" stop-color="#777372"/>
<stop offset="0.9983" stop-color="#666261"/>
<stop offset="1" stop-color="#5B5756"/>
</radialGradient>
<linearGradient id="paint6_linear_2299_12195" x1="107.552" y1="49.6809" x2="115.582" y2="47.0288" gradientUnits="userSpaceOnUse">
<stop stop-color="#C28862"/>
<stop offset="1" stop-color="#4C382F"/>
</linearGradient>
<linearGradient id="paint7_linear_2299_12195" x1="125.065" y1="50.5375" x2="124.124" y2="55.4776" gradientUnits="userSpaceOnUse">
<stop stop-color="#C28862"/>
<stop offset="1" stop-color="#4C382F"/>
</linearGradient>
</defs>
</svg>
