<svg width="42" height="38" viewBox="0 0 42 38" fill="none" xmlns="http://www.w3.org/2000/svg">
<path d="M28.892 24.0195C26.0509 28.517 20.0775 29.8652 15.58 27.024C11.0825 24.1828 9.73435 18.2095 12.5755 13.712C15.4167 9.21452 21.39 7.86634 25.8875 10.7075C30.385 13.5487 31.7464 19.5011 28.892 24.0195ZM13.6419 19.3902C13.765 21.0484 14.4629 22.6307 15.653 23.8508C15.8821 23.6735 16.1034 23.4622 16.2752 23.1902C17.0152 22.0188 16.6817 20.4619 15.4894 19.7086C14.9114 19.3727 14.2563 19.2516 13.6419 19.3902ZM19.7532 24.7728C19.5418 25.1075 19.4272 25.4741 19.3887 25.8595C21.0237 26.19 22.7193 25.9149 24.1684 25.1035C23.9791 24.662 23.64 24.2722 23.2216 24.0079C22.0293 23.2547 20.4933 23.6013 19.7532 24.7728ZM19.5113 21.6348L23.0612 20.8336L23.404 17.1869L20.0459 15.7387L17.6354 18.4889L19.5113 21.6348ZM14.7092 15.0599C14.5771 15.2691 14.479 15.4706 14.381 15.6721C14.4019 15.6853 14.4438 15.7117 14.4647 15.7249C15.6361 16.465 17.1721 16.1183 17.9254 14.9259C18.454 14.0892 18.4221 13.074 17.9565 12.2823C16.6528 12.8635 15.5153 13.7839 14.7092 15.0599ZM25.6224 19.4663C24.8823 20.6378 25.2158 22.1947 26.4082 22.9479C26.45 22.9743 26.4918 23.0008 26.5127 23.014C26.592 22.8885 26.679 22.7971 26.7451 22.6925C27.6041 21.3328 27.9444 19.8211 27.8257 18.3413C26.9658 18.2663 26.1113 18.6923 25.6224 19.4663ZM21.8377 11.8368C21.4522 12.9103 21.8738 14.1424 22.857 14.7635C23.9448 15.4506 25.3387 15.1898 26.1459 14.2364C25.6868 13.7122 25.1672 13.2376 24.5396 12.8412C23.6819 12.2994 22.7681 11.9855 21.8377 11.8368Z" fill="#8A1538"/>
<path d="M9.05904 8.70608L10.0723 13.1953L5.75198 14.1704L4.73876 9.68117L9.05904 8.70608Z" fill="#8A1538"/>
<path d="M36.8087 20.9416L38.9492 25.0156L35.0285 27.0756L32.888 23.0016L36.8087 20.9416Z" fill="#8A1538"/>
</svg>
