<svg width="50" height="50" viewBox="0 0 50 50" fill="none" xmlns="http://www.w3.org/2000/svg">
<g clip-path="url(#clip0_1842_6640)">
<path d="M16.25 19.0996C18.3211 19.0996 20 17.4207 20 15.3496C20 13.2785 18.3211 11.5996 16.25 11.5996C14.1789 11.5996 12.5 13.2785 12.5 15.3496C12.5 17.4207 14.1789 19.0996 16.25 19.0996Z" fill="#04CFB6"/>
<path d="M33.1016 19.0996C35.1726 19.0996 36.8516 17.4207 36.8516 15.3496C36.8516 13.2785 35.1726 11.5996 33.1016 11.5996C31.0305 11.5996 29.3516 13.2785 29.3516 15.3496C29.3516 17.4207 31.0305 19.0996 33.1016 19.0996Z" fill="#04CFB6"/>
<path d="M10.3008 35.9499C11.9008 32.5499 14.6508 29.7999 18.1008 28.1999C26.0508 24.4999 35.6508 28.0499 39.3508 35.9999" stroke="#04CFB6" stroke-width="5" stroke-miterlimit="10" stroke-linecap="round"/>
<path d="M25.1992 48.7004C38.4541 48.7004 49.1992 38 49.1992 24.8004C49.1992 11.6008 38.4541 0.900391 25.1992 0.900391C11.9444 0.900391 1.19922 11.6008 1.19922 24.8004C1.19922 38 11.9444 48.7004 25.1992 48.7004Z" stroke="#04CFB6" stroke-width="2" stroke-miterlimit="10" stroke-linecap="round"/>
</g>
<defs>
<clipPath id="clip0_1842_6640">
<rect width="50" height="50" fill="white"/>
</clipPath>
</defs>
</svg>
