<svg width="241" height="629" viewBox="0 0 241 629" fill="none" xmlns="http://www.w3.org/2000/svg">
<path opacity="0.2" d="M155.946 103.548C155.869 104.119 155.838 104.695 155.854 105.271C155.892 106.766 156.24 108.237 156.875 109.592C157.51 110.947 158.418 112.155 159.543 113.142C160.668 114.128 161.986 114.871 163.412 115.323C164.839 115.776 166.343 115.928 167.832 115.771C169.32 115.614 170.76 115.15 172.06 114.409C173.36 113.668 174.493 112.667 175.387 111.467C176.28 110.267 176.916 108.895 177.253 107.438C177.591 105.98 177.622 104.469 177.347 102.999L183.245 102.846C183.318 103.416 183.362 103.989 183.376 104.564C183.443 106.76 183.075 108.948 182.294 111.001C181.512 113.055 180.333 114.934 178.823 116.531C177.313 118.128 175.502 119.411 173.494 120.306C171.487 121.202 169.322 121.692 167.125 121.749C164.927 121.806 162.74 121.428 160.689 120.638C158.638 119.847 156.763 118.66 155.172 117.143C153.582 115.626 152.306 113.811 151.42 111.8C150.533 109.789 150.052 107.624 150.006 105.427C149.991 104.853 150.005 104.278 150.048 103.706L155.946 103.548Z" fill="#B31F2B"/>
<path opacity="0.2" d="M166.693 111.698L171.906 106.211L166.416 101L161.203 106.487L166.693 111.698Z" fill="#B31F2B"/>
<path opacity="0.2" d="M119.603 166.758C119.752 165.672 119.813 164.575 119.785 163.478C119.717 160.631 119.056 157.829 117.844 155.247C116.631 152.666 114.893 150.362 112.74 148.48C110.586 146.598 108.064 145.179 105.33 144.313C102.597 143.446 99.713 143.151 96.8593 143.446C94.0056 143.74 91.2442 144.618 88.749 146.024C86.2539 147.429 84.0791 149.333 82.3614 151.614C80.6438 153.896 79.4206 156.505 78.769 159.279C78.1173 162.052 78.0512 164.93 78.5749 167.73L67.2672 168.001C67.129 166.915 67.0468 165.823 67.0208 164.729C66.9002 160.548 67.6129 156.384 69.118 152.476C70.6231 148.569 72.891 144.995 75.7914 141.96C78.6918 138.925 82.1675 136.489 86.0191 134.791C89.8707 133.093 94.0222 132.168 98.2353 132.067C102.448 131.966 106.64 132.693 110.569 134.205C114.499 135.717 118.089 137.984 121.133 140.877C124.177 143.77 126.616 147.231 128.309 151.062C130.002 154.893 130.916 159.019 130.998 163.201C131.024 164.294 130.995 165.388 130.91 166.478L119.603 166.758Z" fill="#B31F2B"/>
<path opacity="0.2" d="M98.8638 151.44L88.7969 161.998L99.3598 172.06L109.427 161.502L98.8638 151.44Z" fill="#B31F2B"/>
<path opacity="0.2" d="M100 607.176C127.399 588.822 103.343 565.58 102.77 565.033C103.624 565.583 131.707 583.41 143.663 553C143.663 553 159.337 565.945 135.611 582.275C135.611 582.275 159.015 586.238 157.966 607.731C137.041 613.517 127.051 592.9 127.051 592.9C116.231 619.426 100 607.176 100 607.176Z" fill="#B31F2B"/>
<path opacity="0.2" d="M172 581.68L163.355 576L153 581.007L163.238 586L172 581.68Z" fill="#B31F2B"/>
<path opacity="0.2" d="M223 605.928L204.8 594L183 604.516L204.553 615L223 605.928Z" fill="#B31F2B"/>
<path opacity="0.2" d="M132.728 629L136 619.274L128.142 611L126 622.021L132.728 629Z" fill="#B31F2B"/>
<path d="M201.483 20.937C179.678 32.4994 171.478 59.748 183.174 81.8045C194.87 103.861 222.025 112.362 243.831 100.8C265.636 89.2374 273.835 61.9889 262.14 39.9323C250.444 17.8758 223.288 9.37456 201.483 20.937ZM256.036 71.4268C241.82 67.1005 225.476 78.5711 219.038 94.5503C216.311 79.7171 203.318 67.6031 187.693 67.059C200.141 59.0327 209.677 39.922 206.297 28.7121C218.464 38.585 232.322 41.2981 246.015 32.8876C241.476 45.4001 246.625 60.3792 256.036 71.4268Z" stroke="#B31F2B" stroke-opacity="0.2" stroke-width="7.59" stroke-miterlimit="10"/>
<path d="M175.836 401.743C133.402 424.245 117.445 477.272 140.206 520.196C162.967 563.119 215.814 579.663 258.248 557.162C300.683 534.661 316.639 481.633 293.879 438.71C271.118 395.786 218.271 379.242 175.836 401.743ZM282 500C254.335 491.581 222.528 513.903 210 545C204.694 516.134 179.407 492.559 149 491.5C173.225 475.88 191.783 438.689 185.204 416.874C208.883 436.088 235.852 441.367 262.5 425C253.666 449.35 263.687 478.501 282 500Z" stroke="#B31F2B" stroke-opacity="0.2" stroke-width="15.59" stroke-miterlimit="10"/>
<g opacity="0.2">
<path d="M191.189 189.953C191.189 189.953 201.492 265.238 260.795 276.014C320.099 286.79 323.485 195.056 265.022 207.317C265.022 207.317 248.826 212.637 259.561 236.235C259.561 236.235 261.721 216.093 277.012 226.33C292.302 236.568 290.431 268.325 248.071 261.887C205.712 255.448 191.189 189.953 191.189 189.953Z" fill="#B31F2B"/>
<path d="M226.839 118.4C226.839 118.4 233.96 170.441 196.475 188.618C158.99 206.794 145.678 147.59 180.903 143.654C180.903 143.654 192.675 144.191 189.91 161.9C189.91 161.9 184.729 148.887 176.452 158.542C168.174 168.197 175.315 188.994 202.313 176.847C229.31 164.7 226.839 118.4 226.839 118.4Z" fill="#B31F2B"/>
<path d="M204.863 209.883C204.863 209.883 233.508 256.419 253.495 251.549C273.481 246.679 216.062 231.02 204.863 209.883Z" fill="#B31F2B"/>
<path d="M201.548 208.041L199.888 195.36L211.336 187.045L211.325 201.051L201.548 208.041Z" fill="#B31F2B"/>
<path d="M186.111 166.707C186.188 165.886 186.019 165.061 185.627 164.337C185.235 163.612 184.636 163.02 183.908 162.635C183.179 162.25 182.352 162.09 181.532 162.174C180.712 162.259 179.935 162.585 179.301 163.111C178.666 163.637 178.201 164.339 177.966 165.129C177.731 165.919 177.735 166.761 177.978 167.548C178.221 168.335 178.693 169.033 179.333 169.552C179.973 170.072 180.752 170.39 181.573 170.467C182.674 170.569 183.77 170.231 184.621 169.526C185.472 168.821 186.008 167.807 186.111 166.707Z" fill="#B31F2B"/>
<path d="M213.362 233.389C213.362 233.389 181.836 259.403 193.86 290.299C205.884 321.196 244.751 294.426 226.523 272.963C226.523 272.963 219.458 266.851 211.721 278.531C211.721 278.531 221.561 273.882 221.246 283.944C220.931 294.005 205.854 302.059 196.689 280.349C187.525 258.638 213.362 233.389 213.362 233.389Z" fill="#B31F2B"/>
</g>
<g opacity="0.2">
<path d="M113 530.494C113 530.494 39.8918 510.161 35 530.494C41.5 548.994 83 526.494 113 530.494Z" fill="#B31F2B"/>
<path d="M139.398 539.531C139.398 539.531 62.3918 535.659 57.5 555.992C52.6082 576.326 108.92 540.408 139.398 539.531Z" fill="#B31F2B"/>
<path d="M98.8203 517.737C98.8203 517.737 13.5 508.993 29.5 485.492C41.4146 467.992 69.9889 507.815 98.8203 517.737Z" fill="#B31F2B"/>
<path d="M90.1523 499.262C90.1523 499.262 9.00391 466.493 33.5869 448.379C60.5039 439.995 64.0039 487.019 90.1523 499.262Z" fill="#B31F2B"/>
</g>
<g opacity="0.2">
<path d="M91.0588 308.296C91.0588 308.296 32.1101 260.512 19.5202 277.212C18.109 296.77 65.138 292.672 91.0588 308.296Z" fill="#B31F2B"/>
<path d="M111.668 327.106C111.668 327.106 42.5836 292.866 29.9937 309.566C17.4037 326.265 83.3642 315.765 111.668 327.106Z" fill="#B31F2B"/>
<path d="M83.1389 290.949C83.1389 290.949 8.37159 248.926 32.4114 233.749C50.3134 222.447 60.6502 270.358 83.1389 290.949Z" fill="#B31F2B"/>
<path d="M82.5484 270.547C82.5484 270.547 21.1817 208.153 50.9468 201.337C78.9751 204.374 63.4454 248.897 82.5484 270.547Z" fill="#B31F2B"/>
</g>
<g opacity="0.2">
<path d="M148.696 380.895C148.696 380.895 188.092 316.04 169.847 305.818C150.277 307.057 160.681 353.104 148.696 380.895Z" fill="#B31F2B"/>
<path d="M132.838 403.856C132.838 403.856 157.446 330.784 139.201 320.562C120.956 310.34 140.258 374.281 132.838 403.856Z" fill="#B31F2B"/>
<path d="M164.817 370.707C164.817 370.707 196.37 290.954 214.651 312.727C228.265 328.941 182.185 345.646 164.817 370.707Z" fill="#B31F2B"/>
<path d="M184.953 367.372C184.953 367.372 238.499 298.15 249.268 326.724C250.039 354.906 203.828 345.523 184.953 367.372Z" fill="#B31F2B"/>
</g>
<path opacity="0.2" d="M161.398 293.443C153.96 286.253 163.918 259.48 161.398 235.932C159.174 215.183 151.28 189.221 134.398 182.941C117.515 176.662 123.008 191.696 126.902 193.863C151.32 207.458 151.023 229.282 140.29 231.978C140.29 231.978 145.828 223.562 137.189 215.909C133.533 212.67 119.496 209.504 119.845 223.694C119.949 227.951 124.412 231.824 131.534 235.932C131.534 235.932 111.758 230.594 103.398 218.941C95.0375 207.288 84.9196 202.571 84.3026 210.515C83.6857 218.459 168.842 300.623 161.398 293.443Z" fill="#B31F2B"/>
<path opacity="0.2" d="M96.3983 455.443C88.9599 448.253 98.9181 421.48 96.3979 397.932C94.1739 377.183 86.2803 351.221 69.3979 344.941C52.5155 338.662 58.0077 353.696 61.9024 355.863C86.3204 369.458 86.0231 391.282 75.2903 393.978C75.2903 393.978 80.828 385.562 72.1888 377.909C68.5326 374.67 54.4962 371.504 54.8445 385.694C54.9489 389.951 59.4123 393.824 66.5339 397.932C66.5339 397.932 46.7583 392.594 38.3979 380.941C30.0375 369.288 19.9196 364.571 19.3026 372.515C18.6857 380.459 103.842 462.623 96.3983 455.443Z" fill="#B31F2B"/>
</svg>
