<svg viewBox="0 0 87 101" fill="none" xmlns="http://www.w3.org/2000/svg">
<path d="M12.2415 53.8162C12.2415 54.0713 12.2415 54.2753 12.2415 54.5304C12.2415 54.6834 12.2415 54.7854 12.2415 54.9384V54.9895C12.292 56.7748 12.3932 58.5602 12.5955 60.2945C12.5955 60.3965 12.5955 60.4475 12.6461 60.5496C12.6461 60.7026 12.6967 60.8556 12.6967 61.0087C12.7979 61.7738 12.899 62.4879 13.0508 63.2021C13.0508 63.3551 13.1013 63.5082 13.1519 63.6612C13.1519 63.7122 13.2025 63.7632 13.2025 63.8652C13.2531 64.0693 13.3037 64.2733 13.3037 64.4263C13.3543 64.6304 13.4048 64.8344 13.4048 64.9874C13.4554 65.1405 13.4554 65.2935 13.506 65.4465C13.506 65.5486 13.5566 65.5996 13.5566 65.7016L14.0624 67.64C14.113 67.793 14.1636 67.946 14.2141 68.0991C14.2647 68.2521 14.3153 68.4051 14.3659 68.6092L14.7705 69.8334C14.8717 70.0884 14.9223 70.2925 15.0234 70.4965C15.4281 71.5167 15.8327 72.4859 16.288 73.4551C16.3386 73.6082 16.4397 73.7612 16.5409 73.9142C16.642 74.0672 16.7432 74.2713 16.7938 74.4243C16.8949 74.6283 16.9961 74.8324 17.1479 75.0364C17.5019 75.6996 17.9066 76.3117 18.3112 76.9238C18.7159 77.5359 19.1205 78.148 19.5758 78.7092C19.6769 78.8622 19.8287 79.0152 19.9298 79.1683C19.9804 79.2193 20.031 79.2703 20.0816 79.3213C20.1827 79.4233 20.2839 79.5763 20.3851 79.6784C20.8909 80.2395 21.3967 80.8006 21.9025 81.3107C22.0037 81.4127 22.1554 81.5657 22.2566 81.6677C22.4083 81.7698 22.5095 81.9228 22.6612 82.0758C22.7624 82.1778 22.9141 82.2799 23.0153 82.3819C23.0153 82.3819 23.0659 82.3819 23.0659 82.4329C23.2682 82.6369 23.4705 82.79 23.7234 82.994C23.9258 83.147 24.1281 83.3001 24.3304 83.4531C24.4822 83.5551 24.6339 83.6571 24.7856 83.8102C25.0386 83.9632 25.2915 84.1672 25.5444 84.3203C25.6961 84.4223 25.8479 84.5243 25.949 84.6263L25.9996 84.6773C26.1513 84.7794 26.3031 84.8814 26.4548 84.9324C26.6066 85.0344 26.7583 85.1364 26.9101 85.1874C27.0618 85.2895 27.2136 85.3405 27.3653 85.4425C27.4159 85.4425 27.4159 85.4935 27.4159 85.4935C27.517 85.5445 27.6688 85.6465 27.8205 85.6975C27.8711 85.7486 27.9723 85.7996 28.0229 85.7996C28.124 85.8506 28.2758 85.9016 28.3769 86.0036C28.5287 86.1056 28.731 86.1566 28.8827 86.2587C28.9839 86.3097 29.0851 86.3607 29.1862 86.4117C29.2368 86.4627 29.2874 86.4627 29.3885 86.4627C29.692 86.5647 30.1473 86.7688 30.6025 86.9728C30.906 87.0748 31.2095 87.2278 31.513 87.3299C31.6647 87.3809 31.7659 87.4319 31.9176 87.4829C31.9682 87.4829 31.9682 87.4829 32.0188 87.5339C32.0694 87.5339 32.0694 87.5339 32.0694 87.5339C32.2211 87.5849 32.3729 87.6359 32.474 87.6359C32.6258 87.6869 32.7775 87.6869 32.9292 87.7379C33.0304 87.7379 33.1316 87.789 33.2833 87.84C33.4351 87.891 33.5362 87.891 33.6374 87.891C33.7386 87.942 33.8903 87.942 33.9915 87.942C34.0926 87.942 34.2444 87.993 34.3455 87.993C34.4467 87.993 34.5479 88.044 34.649 88.044C34.7502 88.044 34.8513 88.095 34.9525 88.095C35.0537 88.095 35.1548 88.146 35.2054 88.146C35.2054 88.146 35.2054 88.146 35.256 88.146H35.3066C35.3572 88.146 35.4077 88.146 35.5089 88.146C35.5595 88.146 35.6101 88.146 35.7112 88.197C35.863 88.197 36.0147 88.248 36.1665 88.248C36.3688 88.248 36.5711 88.2991 36.7229 88.2991C36.8746 88.2991 37.0769 88.3501 37.2793 88.3501C37.9874 88.4011 38.7461 88.4521 39.5048 88.5031C39.5554 88.5031 39.6566 88.5031 39.7577 88.5031C40.1624 88.5031 40.5165 88.5031 40.9211 88.5031C41.2752 88.5031 41.5787 88.5031 41.9327 88.5031C42.0339 88.5031 42.1351 88.5031 42.2362 88.5031C42.4386 88.5031 42.6915 88.5031 42.8938 88.4521C43.0455 88.4521 43.1467 88.4521 43.2984 88.4011C43.5008 88.4011 43.7031 88.4011 43.9054 88.3501C44.0572 88.3501 44.1583 88.2991 44.3101 88.2991C44.5124 88.2991 44.7147 88.248 44.8665 88.248C45.0182 88.248 45.1194 88.197 45.2711 88.197C45.4229 88.197 45.5746 88.146 45.7263 88.146C45.7769 88.146 45.7769 88.146 45.8275 88.146C45.9792 88.146 46.0804 88.095 46.2322 88.095C46.4345 88.044 46.5862 88.044 46.7886 87.993C46.9403 87.993 47.0415 87.942 47.1932 87.942L47.7496 87.84C47.8508 87.84 48.0025 87.789 48.1037 87.7379C48.306 87.6869 48.5083 87.6359 48.6601 87.6359C48.7106 87.6359 48.7106 87.6359 48.7612 87.6359C48.9636 87.5849 49.2165 87.5339 49.4188 87.4829H49.4694C49.6211 87.4319 49.7729 87.3809 49.9246 87.3809C50.0763 87.3299 50.2281 87.2789 50.3798 87.2278C50.5316 87.1768 50.7339 87.1258 50.8856 87.0748C50.9362 87.0748 51.0374 87.0238 51.088 87.0238C51.3409 86.9218 51.5938 86.8708 51.8467 86.7688C51.9984 86.7178 52.0996 86.6667 52.2513 86.6157C52.3019 86.6157 52.3525 86.5647 52.3525 86.5647C52.4537 86.5647 52.5043 86.5137 52.6054 86.4627C52.656 86.4627 52.7066 86.4117 52.7572 86.4117C52.8077 86.4117 52.8583 86.3607 52.9089 86.3607C52.9595 86.3607 53.0101 86.3097 53.0606 86.3097C53.1112 86.3097 53.1618 86.2587 53.2124 86.2587C53.263 86.2587 53.3136 86.2076 53.3641 86.2076C53.4147 86.2076 53.4653 86.1566 53.5665 86.1566C53.7182 86.1056 53.9205 86.0036 54.0723 85.9526C54.1734 85.9016 54.3252 85.8506 54.4769 85.7996C54.6287 85.7486 54.831 85.6465 54.9827 85.5955L55.3874 85.3915C55.5391 85.3405 55.6909 85.2384 55.8932 85.1364C56.0449 85.0854 56.1461 85.0344 56.2979 84.9324C56.4496 84.8814 56.6013 84.7794 56.8037 84.6773C56.9048 84.6263 57.0566 84.5243 57.1577 84.4733C57.3601 84.3713 57.5624 84.2693 57.7647 84.1672H58.1694C58.4729 84.0142 58.7258 83.8102 59.0293 83.6571C59.0798 83.6571 59.0798 83.6061 59.1304 83.6061C59.3833 83.4531 59.6362 83.3001 59.8891 83.147L59.9397 83.096C60.1926 82.943 60.4455 82.739 60.749 82.5859C60.749 82.5859 60.7996 82.5859 60.7996 82.5349C60.9008 82.4839 61.0019 82.3819 61.1031 82.3309C61.2043 82.2289 61.356 82.1268 61.4572 82.0758L61.5077 82.0248C61.5583 81.9738 61.6089 81.9738 61.6595 81.9228C61.7606 81.8208 61.9124 81.7188 62.0136 81.6677C62.0641 81.6167 62.1653 81.5657 62.2159 81.5147C62.3676 81.4127 62.5194 81.2597 62.6711 81.1576C62.7217 81.1066 62.7723 81.0556 62.8229 81.0046C62.924 80.9026 63.0758 80.8006 63.2275 80.6986C63.2781 80.6475 63.3287 80.5965 63.3793 80.5455C63.6827 80.3415 63.9356 80.0864 64.1886 79.8314C64.2391 79.7804 64.2391 79.7804 64.2897 79.7294C64.492 79.5253 64.6944 79.3213 64.8967 79.1172C64.9473 79.0662 65.0484 78.9642 65.099 78.9132C65.3013 78.7092 65.4531 78.5561 65.6554 78.3521C65.706 78.3011 65.7566 78.2501 65.8072 78.1991C66.0601 77.944 66.2624 77.689 66.5153 77.4339C66.6165 77.3319 66.7176 77.2299 66.8188 77.1278C66.8694 77.0768 66.8694 77.0768 66.9199 77.0258C67.0211 76.9238 67.1223 76.8218 67.1729 76.7198L67.274 76.6177C67.274 76.6177 67.274 76.6177 67.3246 76.5667C67.3246 76.5157 67.3752 76.5157 67.3752 76.4647C67.4258 76.4137 67.4258 76.4137 67.4258 76.3627C67.5269 76.2607 67.6281 76.1076 67.7293 76.0056C67.8304 75.9036 67.9316 75.7506 68.0327 75.6486C68.1339 75.4955 68.2856 75.3425 68.3868 75.1895C68.3868 75.1895 68.3868 75.1895 68.4374 75.1895C68.7915 74.7304 69.0949 74.3223 69.3984 73.8632L62.8734 66.3137L62.4182 65.8036L60.3949 63.5081L60.142 63.2021L59.9903 62.998L58.3717 61.1617L58.2705 61.0597L56.7025 59.2743L56.6519 59.2233L55.6909 58.1011L55.6403 58.0501L54.5781 56.8258L54.4769 56.7238L53.6676 55.8056L52.9595 54.9895L50.2281 51.8268C50.2281 51.8268 46.4851 51.9799 44.1077 49.9905C44.0066 49.9395 43.956 49.8374 43.8548 49.7354C43.7537 49.6334 43.7031 49.5824 43.6019 49.4804C43.3996 49.2763 43.2479 49.0723 43.0961 48.8172C42.9444 48.5622 42.7926 48.3071 42.6915 48.0521C42.5903 47.848 42.5397 47.695 42.4891 47.491C42.4386 47.389 42.4386 47.2869 42.388 47.2359C42.388 47.1339 42.3374 47.0829 42.3374 46.9809C42.3374 46.8789 42.2868 46.8278 42.2868 46.7258C42.2868 46.6748 42.2868 46.6238 42.2868 46.5728C42.1856 45.8076 42.2362 44.9405 42.388 43.9203C42.388 43.8693 42.388 43.8693 42.388 43.8183C42.388 43.7672 42.388 43.7672 42.4386 43.7162C42.4386 43.6652 42.4386 43.6142 42.4891 43.5632C42.4891 43.5122 42.4891 43.4612 42.5397 43.4102C42.5397 43.3081 42.5903 43.2571 42.5903 43.1551C42.6409 42.9001 42.742 42.645 42.8432 42.39C42.8938 42.2369 42.9444 42.0839 42.9949 41.9309C42.9949 41.9309 42.9949 41.9309 42.9949 41.9819C43.0455 42.0329 43.0455 42.1349 43.0961 42.1859C43.1467 42.339 43.1973 42.492 43.2479 42.645C43.2984 42.798 43.3996 43.0021 43.4502 43.1551C43.5008 43.3081 43.6019 43.5122 43.6525 43.6652C43.8548 44.1753 44.1077 44.6854 44.3101 45.1445C44.4112 45.3996 44.5124 45.6036 44.6136 45.8076C44.7147 45.9607 44.7653 46.1137 44.8159 46.2157C45.0182 46.6238 45.1194 46.8278 45.1194 46.8278L48.4577 47.848L50.0258 48.3071L53.6676 49.4294H53.7182L54.831 50.7046L56.6013 52.796L59.5351 56.3157H59.8386L66.9705 56.3667L69.1455 51.3167L69.1961 51.1637L69.2467 51.0617L65.7566 42.594L61.7101 33.0041C61.7101 33.0041 61.7101 33.0041 61.6595 33.0041L61.6089 32.9531C61.2043 32.545 58.8269 30.4026 56.2979 28.3112C56.1461 28.2092 56.0449 28.1071 55.8932 28.0051C55.8426 28.0051 55.8426 27.9541 55.792 27.9541C55.792 27.9541 55.792 27.9541 55.7415 27.9541L61.7101 26.4748C61.7101 26.4238 61.7101 26.4238 61.7101 26.3728C61.6089 26.1177 61.4572 25.8627 61.1031 25.5566C61.0525 25.5056 61.0525 25.5056 61.0019 25.4546C60.749 25.1996 60.3949 24.9445 59.9903 24.6385C59.9397 24.5874 59.8891 24.5364 59.788 24.5364C59.6362 24.4344 59.4339 24.2814 59.2316 24.1794C59.181 24.1284 59.1304 24.0773 59.0293 24.0773C58.9787 24.0263 58.9281 24.0263 58.8269 23.9753C58.7763 23.9243 58.7258 23.8733 58.6246 23.8733C58.3717 23.7203 58.0682 23.5672 57.8153 23.4142C57.7141 23.3632 57.613 23.2612 57.4612 23.2102C57.4106 23.2102 57.4106 23.1592 57.3601 23.1592C57.1577 23.0571 56.9048 22.9041 56.7025 22.8021C56.6013 22.7511 56.5002 22.7001 56.399 22.6491C56.1967 22.547 55.9944 22.445 55.8426 22.343C55.5391 22.19 55.2862 22.0879 54.9827 21.9349C55.438 21.5268 55.792 21.2718 55.792 21.2718L52.9089 12.498L50.0763 20.0475L50.0258 20.0986C49.8234 20.0475 49.6211 19.9965 49.4694 19.9455C49.4188 19.9455 49.3176 19.8945 49.267 19.8945C49.2165 19.8945 49.1153 19.8435 49.0647 19.8435C49.0141 19.8435 48.913 19.7925 48.8624 19.7925C48.7612 19.7415 48.6095 19.7415 48.5083 19.7415H48.4577H48.4072C48.2554 19.6905 48.0531 19.6905 47.9013 19.6395C47.8002 19.6395 47.699 19.5885 47.5979 19.5885C47.5473 19.5885 47.4461 19.5374 47.3955 19.5374C47.3449 19.5374 47.2944 19.5374 47.2438 19.4864C47.092 19.4354 46.9403 19.4354 46.8391 19.3844C45.524 19.1804 44.2089 19.0273 42.8938 18.9253C42.742 18.9253 42.5903 18.9253 42.4386 18.9253C42.2868 18.9253 42.1351 18.9253 41.9833 18.8743C41.7304 18.8743 41.4269 18.8743 41.174 18.8233C40.213 18.7723 39.2519 18.8233 38.2403 18.9763C37.7851 19.0273 37.2793 19.1294 36.824 19.2314C36.6217 19.2824 36.3688 19.3334 36.1665 19.3844C36.0147 19.4354 35.8124 19.4864 35.6606 19.5374C35.5595 19.5374 35.4583 19.5885 35.3572 19.6395C34.9525 19.7415 34.5984 19.8945 34.1938 19.9965C33.9915 20.0986 33.7386 20.1496 33.5362 20.2516C33.3339 20.3536 33.081 20.4046 32.8787 20.5066C32.6258 20.6087 32.3223 20.7617 32.0694 20.8637C31.9176 20.9147 31.7659 21.0167 31.6141 21.0677C31.2601 21.2208 30.9566 21.4248 30.6025 21.5778C30.2484 21.7819 29.945 21.9349 29.5909 22.139C28.9333 22.547 28.2758 22.9551 27.6688 23.4142C27.4665 23.5672 27.2641 23.6693 27.1124 23.8223C26.9606 23.9243 26.7583 24.0773 26.6066 24.2304C26.5054 24.3324 26.3537 24.4344 26.2019 24.5364C26.1008 24.6385 25.9996 24.6895 25.8984 24.7915C25.7467 24.8935 25.5949 25.0465 25.4938 25.1486C25.342 25.2506 25.2409 25.3526 25.0891 25.5056C24.6845 25.8627 24.2798 26.2198 23.9258 26.6278C23.774 26.7809 23.6729 26.8829 23.5211 27.0359C22.7118 27.8521 21.9531 28.6682 21.1944 29.5864C20.9415 29.8925 20.6886 30.1986 20.4862 30.5046C19.9804 31.1167 19.5252 31.8309 19.07 32.494C18.9688 32.698 18.817 32.8511 18.7159 33.0551C18.6147 33.2081 18.5136 33.4122 18.4124 33.5652C18.1089 34.0243 17.856 34.4834 17.6031 34.9425C16.7938 36.3708 16.0856 37.8501 15.4281 39.3804C15.3269 39.5844 15.2763 39.7885 15.1752 39.9925C15.1246 40.1455 15.0234 40.3496 14.9729 40.5026C14.6694 41.3698 14.3659 42.2369 14.113 43.1041C14.0624 43.3081 14.0118 43.5122 13.9612 43.7162C13.9107 43.9203 13.8601 44.1243 13.8095 44.3284C13.6577 44.9405 13.506 45.6036 13.3542 46.2667C13.2025 46.9299 13.1013 47.542 13.0002 48.2051C12.9496 48.6642 12.899 49.0723 12.8484 49.5314C12.7979 49.8374 12.7979 50.0925 12.7473 50.3986C12.6967 50.6536 12.6967 50.8576 12.6967 51.1127C12.6967 51.3167 12.6461 51.5718 12.6461 51.8268C12.6461 51.9289 12.6461 52.0309 12.6461 52.1329C12.6461 52.3369 12.6461 52.541 12.6461 52.694C12.6461 52.796 12.6461 52.898 12.6461 53.0001C12.2415 53.3061 12.2415 53.5612 12.2415 53.8162Z" fill="white"/>
<path d="M14.8724 69.8841C14.9736 70.1391 15.0242 70.3431 15.1254 70.5982C15.53 71.6184 15.9347 72.5876 16.3899 73.5568C16.4405 73.7098 16.5416 73.8628 16.5922 74.0159C16.6934 74.1689 16.7945 74.3729 16.8451 74.526C16.9463 74.73 17.0474 74.9341 17.1992 75.1381C17.9073 76.4133 18.7166 77.6886 19.6271 78.8108C19.7283 78.9638 19.88 79.1169 19.9812 79.2699C20.0317 79.3209 20.0823 79.3719 20.1329 79.4229C20.2341 79.525 20.3352 79.678 20.4364 79.78C20.9422 80.3411 21.448 80.9022 21.9538 81.4123C22.055 81.5144 22.2067 81.6674 22.3079 81.7694C22.4597 81.9224 22.5608 82.0245 22.7126 82.1265C22.8137 82.2285 22.9655 82.3305 23.0666 82.4325L23.1172 82.4835C23.5219 82.8406 23.9265 83.1467 24.3312 83.5037C24.7358 83.8098 25.1405 84.0649 25.5451 84.3709C25.6969 84.4729 25.8486 84.575 26.0004 84.677L26.0509 84.728C26.2027 84.83 26.3544 84.932 26.5062 84.983C26.6579 85.0851 26.8097 85.1871 26.9614 85.2381C27.1131 85.3401 27.2649 85.3911 27.4166 85.4931C27.4672 85.4931 27.4672 85.5442 27.4672 85.5442C27.5684 85.5952 27.7201 85.6972 27.8213 85.7482C27.8719 85.7992 27.973 85.7992 28.0236 85.8502C28.1248 85.9012 28.2765 85.9522 28.3777 86.0543C28.5294 86.1563 28.7317 86.2073 28.8835 86.3093C28.9847 86.3603 29.0858 86.4113 29.187 86.4623C29.2376 86.5133 29.2881 86.5133 29.3893 86.5644C29.8445 86.7684 30.7044 87.1255 31.5643 87.4825C31.9184 87.6356 32.2724 87.7376 32.5759 87.7886C32.7783 87.8396 32.8794 87.8396 33.0312 87.8906C33.2335 87.9416 33.4864 87.9926 33.7393 88.0436C33.9922 88.0947 34.1945 88.1457 34.4474 88.1967C34.6498 88.2477 34.8521 88.2477 35.0544 88.2987C35.1556 88.2987 35.2568 88.3497 35.3073 88.3497L36.4707 86.6664C28.8329 86.2583 18.666 75.8522 15.6312 68.3027L14.8724 69.8841Z" fill="#894D61"/>
<path d="M31.7154 87.4314C32.0694 87.5844 32.4235 87.6865 32.727 87.7375C32.9293 87.7885 33.0305 87.7885 33.1822 87.8395C33.3846 87.8905 33.6375 87.9415 33.8904 87.9925C34.1433 88.0435 34.3456 88.0945 34.5985 88.1456C34.8008 88.1966 35.0032 88.1966 35.2055 88.2476C35.3067 88.2476 35.4584 88.2986 35.5596 88.2986C35.6607 88.2986 35.8125 88.3496 35.9136 88.3496C36.0654 88.3496 36.2171 88.4006 36.3689 88.4006C36.5712 88.4516 36.7229 88.4516 36.9253 88.4516C37.1276 88.4516 37.2793 88.5026 37.4817 88.5026C38.1898 88.6046 38.9485 88.6557 39.7072 88.6557C39.7578 88.6557 39.859 88.6557 39.9601 88.6557C40.3648 88.6557 40.7189 88.6557 41.1235 88.6557C41.4776 88.6557 41.7811 88.6557 42.1351 88.6557C42.2363 88.6557 42.3375 88.6557 42.4386 88.6557C42.641 88.6557 42.8939 88.6557 43.0962 88.6046C43.2479 88.6046 43.3491 88.6046 43.5008 88.5536C43.7032 88.5536 43.9055 88.5026 44.1078 88.5026C44.2596 88.5026 44.3607 88.4516 44.5125 88.4516C44.7148 88.4516 44.9171 88.4006 45.0689 88.4006C45.2206 88.4006 45.3218 88.3496 45.4735 88.3496C45.6253 88.3496 45.777 88.2986 45.9288 88.2986C45.3218 88.0435 44.7654 87.7375 44.209 87.3804C36.47 88.7067 24.7857 73.3016 25.241 50.2451C25.5444 34.4829 34.4974 23.2607 49.0648 23.8728C50.4811 23.9238 53.0607 24.536 55.084 26.1173C53.516 24.587 50.7846 22.8016 48.6601 22.7506C32.6258 22.0875 21.245 34.1769 20.891 51.5203C20.5369 67.8945 25.6962 80.6981 31.7154 87.4314Z" fill="#894D61"/>
<path d="M39.4543 46.3681C39.9095 49.0206 42.0845 51.163 44.6641 51.7752C46.131 52.0812 49.0647 52.7954 49.0647 52.7954C49.0647 52.7954 66.2624 71.363 69.3984 73.8625L62.8734 66.313L62.4182 65.8029L60.3949 63.5075L60.142 63.2014L59.9903 63.0484L58.3717 61.212L58.2705 61.11L56.7025 59.3247L56.6519 59.2736L55.6909 58.1514L55.6403 58.1004L54.5781 56.8762L54.4769 56.7741L53.6676 55.856L52.9595 55.0398L50.2281 51.8772C50.2281 51.8772 46.4851 52.0302 44.1077 50.0408C44.0066 49.9898 43.956 49.8878 43.8548 49.8368C43.7537 49.7347 43.7031 49.6837 43.6019 49.5817C43.0961 49.0206 42.6915 48.4085 42.4386 47.5923C42.388 47.4903 42.388 47.4393 42.388 47.3373C42.3374 47.1842 42.3374 46.9802 42.2868 46.8272C42.2868 46.7762 42.2868 46.7252 42.2868 46.6741C42.1856 45.909 42.2362 45.0418 42.4386 44.0216C42.4386 43.9706 42.4891 43.8686 42.4891 43.8176C42.4891 43.7156 42.5397 43.6135 42.5397 43.5115C42.5397 43.4095 42.5903 43.3585 42.5903 43.2565C42.6915 42.8484 42.8432 42.4403 42.9949 41.9812C42.9444 41.8282 42.9949 41.9302 42.9949 42.0322C43.0961 42.3383 43.2479 42.6443 43.3996 43.0014C43.6525 43.6645 44.0066 44.3277 44.2595 44.9398C44.7147 45.909 45.1194 46.6741 45.1194 46.6741L48.4577 47.6943L50.0258 48.1534L53.6676 49.2757H53.7182L54.831 50.5509L56.6013 52.6423L59.5351 56.162H59.8386C58.2705 52.9484 55.1851 46.4701 55.1851 46.4701L46.3839 43.5625L43.0455 38.7676C42.9949 38.8186 39.0496 43.7156 39.4543 46.3681Z" fill="#894D61"/>
<path d="M51.4423 23.7713C51.8975 24.1794 52.4033 24.6385 53.0103 24.6895C53.4655 24.6895 54.6289 23.7713 55.0335 23.5672C55.5394 23.2612 56.0957 22.9551 56.6016 22.598C56.1463 22.343 55.6405 22.139 55.1347 21.9349C55.5899 21.5268 55.944 21.2718 55.944 21.2718L53.0609 12.498V12.5491C53.3138 13.6203 54.1737 17.344 54.376 18.3132C54.4771 18.8233 54.5277 19.3334 54.4771 19.8435C54.4266 20.5576 54.0725 21.1698 53.6678 21.7309C53.2126 22.19 51.9987 23.3122 51.4423 23.7713Z" fill="#894D61"/>
<path d="M51.4416 27.2916L55.0329 28.7199L61.5579 34.1269C61.5579 34.1269 66.3126 45.4002 69.2463 51.0623L69.2969 50.9603L65.7562 42.5946L61.7097 33.0047C61.7097 33.0047 59.13 30.6072 56.2975 28.3118C56.1457 28.2098 56.0445 28.1077 55.8928 28.0057C52.7062 26.5264 51.4416 27.2916 51.4416 27.2916Z" fill="#894D61"/>
<path d="M55.8419 27.9031L61.8105 26.4238C61.2542 26.3218 60.6472 26.2708 60.0908 26.2197C58.6239 26.1177 53.5152 27.1889 53.5152 27.1889L55.8419 27.9031Z" fill="#894D61"/>
<path opacity="0.44" d="M44.6635 41.2681C44.967 40.9621 45.2705 40.656 45.5234 40.452C46.6868 39.5848 48.1031 38.9727 49.7723 38.6156C52.8577 37.9525 56.1455 38.3096 59.0287 39.6358C61.4566 40.758 63.5304 42.5434 65.0478 44.7368L65.4525 43.3596V43.3086C65.4525 43.3086 65.4019 43.2575 65.3007 43.1555C65.1996 43.0535 65.0478 42.8495 64.8455 42.6454C64.7443 42.5434 64.5926 42.3904 64.4914 42.2373C64.4409 42.1863 64.3903 42.0843 64.3397 42.0333C64.1374 41.8293 63.935 41.5742 63.7327 41.3192C63.6316 41.2171 63.5304 41.0641 63.4292 40.9621C63.3787 40.9111 63.3281 40.8091 63.2269 40.758C62.5188 39.9419 61.7095 38.9727 61.0013 38.1565C60.9002 38.0545 60.8496 37.9525 60.799 37.9015C60.6978 37.7995 60.6473 37.6974 60.5461 37.5954C60.3438 37.3404 60.0909 37.0853 59.9391 36.8813C59.9391 36.8813 59.8885 36.8813 59.8885 36.8303C59.838 36.8303 59.7874 36.8303 59.7874 36.8303C59.1298 36.8813 58.1182 36.5242 57.7641 36.3712C57.663 36.3202 57.6124 36.3202 57.6124 36.3202L57.5112 35.9631L57.41 35.555L57.3089 35.1979L56.9548 34.0757L56.8031 33.5146L56.7019 33.2086L56.6513 33.0555C56.6007 33.0045 56.5502 33.0045 56.4996 32.9535C56.2467 32.8005 55.9938 32.6474 55.7914 32.4944C55.7409 32.4944 55.7409 32.4434 55.6903 32.4434C55.488 32.3414 55.3362 32.1883 55.1339 32.0863C55.0833 32.0863 55.0833 32.0863 55.0833 32.0353C54.7292 31.8313 54.4257 31.5762 54.1223 31.3722C53.7176 31.0661 53.313 30.7601 52.9589 30.352C52.7566 30.1479 52.5542 29.9439 52.3519 29.6889C52.0484 29.2808 51.7449 28.8217 51.5426 28.3626C51.3403 27.8525 51.1885 27.3424 51.1885 26.8323C51.1885 26.3732 51.3403 25.9141 51.5932 25.506C51.6943 25.353 51.7955 25.251 51.8967 25.0979C51.9473 25.0469 51.9978 24.9959 52.0484 24.9449C52.099 24.8939 52.099 24.8939 52.1496 24.8429C52.2002 24.7919 52.2507 24.7409 52.3013 24.6899C52.3013 24.6899 52.3013 24.6899 52.3519 24.6389C52.4025 24.5878 52.4531 24.4858 52.5542 24.4348C52.706 24.2818 52.8577 24.1288 53.06 23.9247C53.2624 23.7207 53.4647 23.5166 53.667 23.3636C54.2234 22.8535 54.7292 22.3434 55.1339 21.9863C55.4374 22.1394 55.7409 22.2414 55.9938 22.3944C56.1961 22.4964 56.3984 22.5985 56.5502 22.7005C56.6513 22.7515 56.7525 22.8025 56.8537 22.8535C55.9938 23.4146 54.7292 24.6899 54.0211 25.506C53.9705 25.557 53.9199 25.608 53.8693 25.6591C53.5659 25.9651 53.4141 26.1692 53.4141 26.1692C53.06 26.5772 52.8577 26.8833 52.8071 27.2404C52.7566 27.3934 52.8071 27.5974 52.8071 27.8525C52.8071 27.9035 52.8071 27.9545 52.8577 28.0055C52.9083 28.3116 53.0095 28.5666 53.1106 28.8217C53.313 29.3318 53.667 29.7909 54.0211 30.199C54.3752 30.607 54.7292 30.9641 55.1339 31.3212C55.5891 31.7293 56.0443 32.1373 56.5502 32.5454C56.8031 32.6474 58.1182 33.2596 59.1298 34.2798C59.3827 34.5348 59.585 34.7899 59.7874 35.0449C59.8885 35.1979 59.9897 35.402 60.0909 35.555C60.1414 35.606 60.1414 35.708 60.192 35.7591V35.8101C60.2426 35.8611 60.2426 35.9121 60.2932 35.9631C60.6473 36.4732 61.0013 36.9833 61.3554 37.4424C61.4566 37.5444 61.5071 37.6464 61.6083 37.7995C61.7095 37.9015 61.8106 38.0545 61.9118 38.1565C61.9118 38.1565 61.9118 38.1565 61.9624 38.2075C62.1141 38.4116 62.2153 38.5646 62.367 38.7687C62.367 38.7687 62.367 38.8197 62.4176 38.8197C62.5188 38.9217 62.5693 39.0237 62.6199 39.1257C62.6705 39.1767 62.7211 39.2277 62.7211 39.2788C63.0752 39.7378 63.4292 40.1969 63.7833 40.707C63.935 40.9111 64.0868 41.1151 64.2385 41.3192C64.4409 41.6252 64.6938 41.9313 64.8961 42.2373C65.0984 42.5434 65.3513 42.8495 65.5537 43.1555L65.756 42.5944L69.2461 51.0111L69.1955 51.1131L66.9699 56.3161L59.838 56.2651H59.5345L56.6007 52.7454L57.9159 52.2353L62.974 50.2969C62.0635 48.7156 60.1414 47.7464 58.3711 48.0015C57.6124 48.1035 56.9548 48.4096 56.3478 48.8687C55.7409 49.3277 55.235 49.9399 54.881 50.654L53.7682 49.3788H53.7176C54.2234 48.6136 54.8304 47.8995 55.6397 47.3894C56.449 46.8793 57.2583 46.5222 58.1688 46.4202C60.3438 46.1141 62.6199 47.0833 63.935 48.8176L63.9856 48.7156C62.8223 47.1853 61.0013 45.2979 58.5734 44.4818C56.2467 43.7166 53.7176 44.0737 52.0484 45.502C51.9978 45.553 51.9473 45.553 51.9473 45.604C51.138 46.3181 50.5816 47.2363 50.1263 48.2565L48.5583 47.7974C49.0135 46.7772 49.5699 45.808 50.3287 44.9409C50.4804 44.7368 50.6827 44.5838 50.885 44.3798C52.9589 42.4924 56.1961 41.9313 59.1298 42.9005C61.1025 43.5636 62.974 44.8899 64.5926 46.7772C63.2269 44.3288 61.0519 42.2883 58.5228 41.1151C55.9432 39.9419 53.06 39.5848 50.2781 40.1969C48.8112 40.503 47.5973 41.0131 46.6362 41.7272C46.3327 41.9313 46.0292 42.2373 45.7257 42.6454C45.1693 43.3596 44.613 44.2267 44.36 44.9919C44.1577 44.5328 43.9048 44.0227 43.7025 43.5126C43.6519 43.3596 43.5507 43.2065 43.5002 43.0025C43.7531 42.3904 44.2083 41.7782 44.6635 41.2681Z" fill="#8C1539"/>
<path d="M44.6635 41.2686C44.967 40.9625 45.2705 40.6565 45.5234 40.4524C46.6868 39.5853 48.1031 38.9731 49.7723 38.6161C52.8577 37.9529 56.1455 38.31 59.0287 39.6363C61.4566 40.7585 63.5304 42.5438 65.0478 44.7373L65.4525 43.36V43.309L65.5031 43.258L65.5537 43.105L65.756 42.5949L69.2461 51.0115L69.1955 51.1135L66.9699 56.3166L59.838 56.2656H59.5345L56.6007 52.7459L57.9159 52.2358L62.974 50.2974C62.0635 48.7161 60.1414 47.7469 58.3711 48.0019C57.6124 48.1039 56.9548 48.41 56.3478 48.8691C55.7409 49.3282 55.235 49.9403 54.881 50.6545L53.7682 49.3792H53.7176C54.2234 48.614 54.8304 47.8999 55.6397 47.3898C56.449 46.8797 57.2583 46.5226 58.1688 46.4206C60.3438 46.1146 62.6199 47.0837 63.935 48.8181L63.9856 48.7161C62.8223 47.1858 61.0013 45.2984 58.5734 44.4822C56.2467 43.7171 53.7176 44.0741 52.0484 45.5024C51.9978 45.5534 51.9473 45.5534 51.9473 45.6045C51.138 46.3186 50.5816 47.2368 50.1263 48.257L48.5583 47.7979C49.0135 46.7777 49.5699 45.8085 50.3287 44.9413C50.4804 44.7373 50.6827 44.5842 50.885 44.3802C52.9589 42.4928 56.1961 41.9317 59.1298 42.9009C61.1025 43.564 62.974 44.8903 64.5926 46.7777C63.2269 44.3292 61.0519 42.2888 58.5228 41.1156C55.9432 39.9423 53.06 39.5853 50.2781 40.1974C48.8112 40.5034 47.5973 41.0135 46.6362 41.7277C46.3327 41.9317 46.0292 42.2378 45.7257 42.6459C45.1693 43.36 44.613 44.2272 44.36 44.9923C44.1577 44.5332 43.9048 44.0231 43.7025 43.513C43.6519 43.36 43.5507 43.207 43.5002 43.0029C43.7531 42.3908 44.2083 41.7787 44.6635 41.2686Z" fill="#8C1539"/>
<path opacity="0.44" d="M42.4387 41.4204C42.3881 41.9305 42.4387 42.4917 42.5398 43.0018C42.5904 42.7467 42.6916 42.4917 42.7422 42.2366C42.7927 42.0836 42.8433 41.9305 42.8939 41.7265C42.8939 41.7265 42.8939 41.7265 42.8939 41.7775C42.8939 41.8285 42.8939 41.8285 42.9445 41.8795C42.9445 41.9305 42.9951 41.9816 42.9951 42.0326C43.1468 41.2674 43.3997 40.5533 43.7032 39.8391C43.8044 39.6351 43.9055 39.431 44.0067 39.227C44.0573 39.074 44.1584 38.972 44.209 38.8189C44.6137 38.0538 45.1195 37.3396 45.6759 36.7275C45.8276 36.5235 46.03 36.3704 46.1817 36.1664C47.0922 35.2992 48.1038 34.5341 49.2672 33.973C49.8741 33.6669 50.4811 33.4629 51.0881 33.2588C51.0881 33.2588 51.0881 33.2588 51.1387 33.2588L51.0881 33.2078L50.4811 32.3917C50.4811 32.3917 50.4305 32.3406 50.4305 32.2896C49.9247 31.5755 49.6212 30.7083 49.4189 29.7901C49.4189 29.7391 49.4189 29.7391 49.4189 29.6881C49.3683 29.4331 49.3177 29.178 49.2672 28.923C49.166 28.3619 49.1154 27.7497 49.0648 27.1886C49.0143 26.7295 49.0143 26.2704 48.9637 25.7603C48.9637 25.1992 48.9131 24.5871 48.9131 23.975C48.9131 23.6179 48.9131 23.2098 48.9131 22.8528V22.6997L49.2672 21.8836L49.5201 21.4245L50.0259 20.0982C49.773 20.0472 49.5201 19.9452 49.2672 19.8942C49.166 19.8942 49.1154 19.8432 49.0143 19.8432C48.9637 19.8432 48.8625 19.7922 48.8119 19.7922C48.7108 19.7411 48.559 19.7412 48.4579 19.7412H48.4073H48.3567C48.205 19.6901 48.0026 19.6901 47.8509 19.6391C47.7497 19.6391 47.6486 19.5881 47.5474 19.5881C47.4968 19.5881 47.3956 19.5371 47.3451 19.5371C47.3451 19.5881 47.3956 19.6901 47.3956 19.7412C47.4968 20.1492 47.6486 20.5063 47.8003 20.9144C48.1038 21.6795 48.4073 22.3937 48.6602 22.8528C48.6096 23.0058 48.6096 23.1588 48.559 23.3119C48.5084 23.5159 48.4579 23.7709 48.4073 23.975C48.3567 24.281 48.3061 24.6381 48.2555 24.9442C48.1544 25.4543 48.1038 25.9644 48.0532 26.4745C48.0026 27.3927 48.0026 28.3619 48.0532 29.28C48.1038 29.5861 48.1038 29.8922 48.1544 30.1982C48.205 30.5553 48.2555 30.8614 48.3567 31.2184C48.4579 31.5245 48.559 31.8816 48.7108 32.1876C48.7108 32.2386 48.7613 32.2896 48.7613 32.3406C48.7108 32.3406 48.6602 32.3917 48.6096 32.3917C48.3567 32.4937 48.0532 32.6467 47.8003 32.7997C47.0416 33.2078 46.384 33.7179 45.777 34.279C45.4736 34.5341 45.2207 34.8401 44.9677 35.1462C44.816 35.2992 44.6643 35.5033 44.5631 35.6563C44.3608 35.9624 44.1079 36.2684 43.9055 36.6255C43.6526 37.0336 43.4503 37.4417 43.248 37.8497C43.0962 38.2068 42.9445 38.5639 42.8433 38.9209C42.7927 39.074 42.7422 39.278 42.6916 39.431C42.5398 40.1452 42.4893 40.8083 42.4387 41.4204Z" fill="#8C1539"/>
<path d="M50.0759 86.6668C51.6945 84.6774 52.5038 82.2289 52.9591 79.6274C53.5661 76.0057 53.3132 72.2819 53.3637 68.5582C53.3637 64.5794 53.8695 60.6006 58.3207 61.0597L58.4219 61.1617C49.6713 61.0087 58.4725 75.8016 53.6166 86.4117C53.6166 86.4117 53.6166 86.4117 53.5661 86.4117C53.5155 86.4117 53.4649 86.4627 53.4143 86.4627C53.3132 86.5137 53.1614 86.5647 53.0602 86.6158C52.9591 86.6668 52.8579 86.6668 52.8073 86.7178C52.7062 86.7688 52.6556 86.7688 52.5544 86.8198C52.5039 86.8198 52.4533 86.8708 52.4533 86.8708C52.3015 86.9218 52.2004 86.9728 52.0486 87.0238C51.7957 87.1259 51.5428 87.1769 51.2899 87.2789C51.2393 87.2789 51.1382 87.3299 51.0876 87.3299C50.9358 87.3809 50.7335 87.4319 50.5818 87.4829C50.2783 87.5849 49.9748 87.636 49.6713 87.738H49.6207C49.4184 87.789 49.2161 87.84 48.9632 87.891C49.3172 87.4829 49.6713 87.0748 50.0759 86.6668Z" fill="#8C1539"/>
<path d="M60.1415 63.2012L60.3944 63.5072C57.056 66.0577 61.6589 72.8421 63.3281 80.5446C63.2775 80.5956 63.227 80.6466 63.1764 80.6976C63.0752 80.7997 62.9235 80.9017 62.8223 81.0037C62.7717 81.0547 62.7211 81.1057 62.6706 81.1567C62.5188 81.2588 62.3671 81.4118 62.2153 81.5138C62.1648 81.5648 62.0636 81.6158 62.013 81.6668C61.9118 81.7689 61.7601 81.8709 61.6589 81.9729C61.6084 82.0239 61.5578 82.0239 61.5072 82.0749L61.4566 82.1259C61.3555 82.2279 61.2037 82.33 61.1025 82.381C61.0014 82.432 60.9002 82.534 60.7991 82.585C60.7991 82.585 60.7485 82.585 60.7485 82.636C60.5461 74.5764 55.8421 65.6497 60.1415 63.2012Z" fill="#8C1539"/>
<path d="M62.4183 65.8027L62.8735 66.3128C62.0642 68.8123 65.0485 71.6179 68.4375 75.1886C68.4375 75.1886 68.4375 75.1886 68.4375 75.2396C68.3363 75.3926 68.1846 75.5457 68.0834 75.6987C67.8811 75.9537 67.7294 76.1578 67.527 76.4128C67.4765 76.4638 67.4259 76.5149 67.3753 76.5659C67.3753 76.5659 67.3753 76.6169 67.3247 76.6169C67.2741 76.6679 67.2741 76.7189 67.2235 76.7189C67.1224 76.8209 67.0212 76.9229 66.9706 77.025C66.9201 77.076 66.9201 77.076 66.8695 77.127C66.7683 77.229 66.6672 77.331 66.566 77.433C63.4299 72.6891 60.3951 68.6593 62.4183 65.8027Z" fill="#8C1539"/>
<path d="M42.488 40.6044C42.3869 40.8595 42.4374 41.4716 42.488 41.6756C42.5386 41.8797 42.5386 42.4408 42.7409 42.2367C42.7915 42.0837 42.8421 41.9307 42.8927 41.7776C42.8927 41.7776 42.8927 41.7776 42.8927 41.8287C42.9433 41.4206 42.8421 40.9105 42.7409 40.6044C42.8421 40.6044 43.0444 40.8085 43.095 40.6044C43.1456 40.4004 42.9938 40.1963 43.0444 39.9923C43.095 39.7883 42.9433 39.5332 42.7409 39.7372C42.6398 39.6862 42.7409 39.5332 42.5892 39.5332C42.4374 39.5332 42.3363 39.6862 42.2857 39.8903C42.2351 40.0433 42.1339 40.2984 42.1339 40.5024C42.1845 40.6044 42.3363 40.5534 42.488 40.6044Z" fill="#8C1539"/>
<path d="M43.8531 37.1866C43.5496 37.4417 43.2967 37.8498 43.0943 38.2068C42.892 38.5639 42.9426 38.921 42.538 39.074C42.1839 39.176 42.4874 38.5129 42.6391 38.3599C42.7909 38.2068 42.9932 38.0028 43.0438 37.7477C43.0943 37.4927 43.1955 37.3397 43.4484 37.1356C43.6507 36.9316 43.8531 36.7785 44.106 36.4725C44.3589 36.1664 44.6624 35.8094 45.1176 35.8604C45.5728 35.9114 45.5728 36.4215 45.3705 36.7275C45.1682 37.0336 44.9659 37.1356 44.8141 37.4417C44.713 37.6967 44.5612 38.0028 44.4095 38.2068C44.2577 38.4109 44.1566 38.3089 44.0554 38.5639C43.9037 38.7679 43.8531 39.3801 43.499 39.3801C43.1449 39.4311 43.2967 39.023 43.5496 38.7679C43.8025 38.5129 44.3083 37.9518 44.46 37.5437C44.2577 37.7477 43.9542 38.2068 43.7519 38.3599C43.5496 38.5129 43.3978 38.972 43.1955 38.5639C42.9932 38.2068 43.5496 37.4927 43.8531 37.1866Z" fill="#8C1539"/>
<path d="M42.6899 38.0024C42.4875 38.2064 42.1335 38.7166 41.7288 38.6655C41.3242 38.5635 41.7794 38.0534 42.0323 38.0024C42.2852 37.9514 42.5381 38.0024 42.791 37.9004C42.6899 38.0024 42.8922 37.8494 42.6899 38.0024Z" fill="#8C1539"/>
<path d="M44.1577 38.8695C44.0565 39.1246 43.8542 39.5837 44.1577 39.8387C44.4612 40.0938 44.6129 39.6857 44.5118 39.4307C44.4106 39.1756 44.2083 39.0226 44.2083 38.7675C44.1577 38.8695 44.2589 38.6145 44.1577 38.8695Z" fill="#8C1539"/>
<path d="M45.5234 35.5542C44.9165 35.6563 44.8153 35.4522 44.2589 36.0133C43.7025 36.5744 42.8932 37.5947 41.9827 37.7987C42.0333 37.6967 42.1345 37.5436 42.1851 37.4416C42.0333 37.4926 41.6793 37.5436 41.6793 37.3396C41.6287 37.1356 41.9827 37.0845 41.9322 36.8295C41.8816 36.6255 41.6793 36.4724 41.8816 36.3194C41.9827 36.2174 42.0333 36.3194 42.1851 36.1154C42.3874 35.9113 42.4886 35.4012 42.9438 35.5032C43.4496 35.5542 43.1967 36.2684 42.8426 36.5234C42.7415 36.6255 42.438 36.6765 42.5391 36.4724C42.6403 36.3194 43.0955 36.1664 42.8932 35.8603C42.6403 35.6053 42.2356 36.1154 42.1851 36.4214C42.1345 36.7275 42.2356 37.1866 42.7415 36.9315C43.2473 36.6765 43.6519 36.1154 44.1072 35.7073C44.5624 35.2992 45.0682 34.9931 45.5234 35.5542Z" fill="#8C1539"/>
<path d="M46.5859 37.7485C46.2319 37.3404 45.8778 37.5954 45.6249 38.0035C45.5237 38.1055 45.7261 38.3606 45.8272 38.2076C45.9284 38.0545 45.8778 37.7485 46.1813 37.8505C46.4848 37.9525 46.2824 38.3606 46.0295 38.4626C45.7766 38.5646 45.2708 38.6667 45.2708 38.2076C45.2708 37.7485 45.6249 37.3914 45.9284 36.9833C46.2319 36.5752 46.3836 36.1672 45.7766 35.9121C45.8272 36.4222 45.8778 36.4732 45.5237 36.9833C45.1697 37.4934 44.4615 38.4116 45.0179 39.1257C45.0179 39.0237 45.0685 38.9217 45.1697 38.8707C45.2708 39.0237 45.4731 39.2278 45.6249 39.2278C45.7766 39.1768 45.6249 38.9217 45.8272 38.8707C46.0295 38.8707 46.2319 38.9727 46.333 38.7687C46.2319 38.7687 46.2319 38.6156 46.2319 38.5646C46.2319 38.5136 46.333 38.4626 46.333 38.4116C46.333 38.3606 46.333 38.4116 46.333 38.4116C46.333 38.3096 46.4848 38.0545 46.5354 38.0035C46.5859 37.9525 46.5859 37.7995 46.5859 37.7485Z" fill="#8C1539"/>
<path d="M49.4179 29.6875C49.9238 30.6567 50.4296 31.2178 50.4802 32.442C50.5307 33.6663 47.9005 34.6865 47.243 35.2986C46.5348 35.9107 46.7371 36.0128 47.1418 36.4208C47.3441 36.6249 47.7488 36.4208 48.0017 36.3188C48.2546 36.2678 48.3052 36.0128 48.5075 35.9107C48.3052 35.6557 48.0017 35.7577 48.4063 35.3496C49.0639 34.6355 50.2273 34.1254 51.0366 33.4622C51.0871 33.4112 51.0871 33.5643 51.1377 33.3092C51.1883 33.0542 51.1883 32.085 51.0366 31.7279C50.6319 30.8097 50.1261 30.2486 49.4179 29.6875Z" fill="#8C1539"/>
<path d="M45.6758 32.5961C45.5241 33.1062 44.7148 33.2593 45.1194 33.9734C45.5241 34.6875 46.6875 34.3815 47.4462 33.4633C48.2049 32.5451 48.7107 30.8108 48.3061 29.3315C47.9014 29.3315 47.9014 29.1274 47.7497 29.7396C47.5979 30.3517 47.5474 31.6269 47.1933 32.3411C46.8392 33.0552 45.8276 33.6163 45.6758 32.5961Z" fill="#8C1539"/>
<path d="M46.7373 34.841C47.2936 34.0248 48.0018 34.0248 48.457 32.9026C48.9123 31.7804 49.2157 31.2192 48.6088 29.2299C48.5076 28.8218 49.3169 23.9248 48.457 23.1597C48.4064 23.1086 48.3559 22.7516 48.0524 22.5475C47.7489 22.3435 47.5466 21.0682 47.9006 20.6602C48.2041 21.1703 48.7099 21.2213 48.8617 21.9354C49.0134 22.6495 48.9123 22.4965 48.9628 23.6698C49.0134 24.843 47.9512 27.6995 48.6593 28.9748C49.3675 30.3011 49.3169 29.6889 49.8733 31.2192C50.3285 32.8006 48.6088 34.4839 46.7373 34.841Z" fill="#8C1539"/>
<path d="M50.127 29.5862C49.6717 29.0251 48.2554 28.413 48.4072 27.4948C48.5589 26.6276 49.2671 25.7604 49.3177 24.7402C49.8235 25.2503 50.1775 24.5362 49.874 25.7604C49.5706 27.0357 49.2165 28.2089 50.127 29.5862Z" fill="#8C1539"/>
<path d="M47.6977 28.9751C47.4448 28.1589 47.2931 27.2408 47.2931 26.4246C47.2931 25.6084 47.5965 25.2514 48.3047 24.9453C48.2035 25.6084 48.1529 26.0675 48.0012 26.7307C47.8495 27.3428 47.9506 28.261 47.6977 28.9751Z" fill="#8C1539"/>
<path d="M50.7323 23.3633C50.3782 23.4653 50.0748 23.5673 49.7207 23.6693C49.9736 23.8734 50.3277 24.0774 50.6311 24.2305C50.6817 23.9754 50.7829 23.7204 50.7323 23.3633Z" fill="#8C1539"/>
<path d="M48.002 24.0781C46.7374 24.1801 45.827 23.9251 44.8153 23.2109C44.8659 23.415 44.9165 23.568 45.0177 23.772C44.8153 23.772 44.6636 23.772 44.4613 23.8741C44.6636 23.9761 44.9165 24.1801 45.0682 24.3332C45.2706 24.4352 45.0176 24.4862 45.0682 24.4862C46.2822 25.1493 46.9397 24.8433 48.002 24.0781Z" fill="#8C1539"/>
<path d="M48.2539 23.007C47.6975 23.16 47.1917 23.313 46.6353 23.109C46.0789 22.905 45.8766 22.4459 45.9272 21.8848C46.3318 21.9358 46.5341 22.0888 46.787 22.4459C47.04 22.3949 47.0905 21.7317 47.4446 22.0378C47.7481 22.2928 47.6975 22.905 48.2539 23.007Z" fill="#8C1539"/>
<path d="M50.025 21.4257C50.025 21.3747 50.025 21.5787 49.9745 21.5787C49.671 21.4767 49.4181 21.3747 49.1146 21.4257C49.4181 21.9358 49.4181 22.2928 49.1652 22.803C49.5192 23.109 50.1768 22.803 50.3285 22.5479C50.4803 22.2928 50.4297 22.4459 50.3791 22.4459C50.3285 22.0888 50.1768 21.7317 50.025 21.4257Z" fill="#8C1539"/>
<path d="M47.4961 21.5776C47.2432 21.2205 47.142 20.8634 46.7374 20.7104C46.3327 20.5574 46.0798 20.7614 45.9787 21.2205C46.2316 21.2205 46.2316 21.1185 46.4845 21.2715C46.7374 21.3735 47.0914 21.6796 47.4961 21.5776Z" fill="#8C1539"/>
<path d="M47.496 21.0683C47.1925 20.6602 46.8385 20.3032 46.3832 20.0481C46.6361 19.8441 46.7879 19.6911 47.142 19.9461C47.496 20.2012 47.5972 20.6602 47.496 21.0683Z" fill="#8C1539"/>
<path d="M47.1422 19.4863C47.1928 19.5883 47.294 19.6394 47.3445 19.7414C47.3951 19.7924 47.4963 19.8434 47.5469 19.8944C47.5469 19.7924 47.4963 19.6904 47.4963 19.5883C47.4457 19.5883 47.3445 19.5373 47.294 19.5373C47.2434 19.4863 47.1928 19.4863 47.1422 19.4863Z" fill="#8C1539"/>
<path d="M47.7993 19.5879C47.7993 19.945 48.1028 20.302 48.4062 20.4551C48.4062 20.251 48.3557 19.945 48.4062 19.6899H48.3557C48.1533 19.6899 48.0016 19.6389 47.7993 19.5879Z" fill="#8C1539"/>
<path d="M48.7604 20.3033C48.811 20.5583 48.8616 20.8134 48.8616 21.0684C49.1651 21.0174 49.2662 20.9154 49.3168 20.5583C49.3168 20.4563 49.418 20.3033 49.418 20.1503C49.418 20.0482 49.3168 19.9462 49.2662 19.8442C49.2156 19.8442 49.1145 19.7932 49.0639 19.7932C49.0133 19.7932 48.9122 19.7422 48.8616 19.7422C48.7098 19.9462 48.7604 20.0993 48.7604 20.3033Z" fill="#8C1539"/>
<path d="M44.8655 32.4425C45.4219 31.7794 45.4725 31.2183 45.0678 30.4531C45.5231 30.5041 45.9277 30.6572 45.9277 31.2183C45.8772 31.8304 45.3713 32.1875 44.8655 32.4425Z" fill="#8C1539"/>
<path d="M43.9049 31.4218C44.1072 30.9627 43.9049 30.5036 44.613 30.6566C45.3212 30.8096 45.1694 31.8298 44.6636 32.2379C44.1578 32.646 43.7532 32.9521 43.0956 32.697C42.9439 32.9011 42.8427 33.1051 42.7415 33.3601C42.2357 33.0541 42.438 32.544 42.5898 32.0339C42.3875 32.1359 42.1346 32.2379 41.9828 32.442C41.8816 31.7278 42.1851 31.3197 42.6404 30.8096C42.4886 30.7586 42.3369 30.7586 42.1346 30.7076C42.5898 30.0955 42.7415 29.8405 43.5003 29.5854C44.259 29.3303 45.5741 29.7384 46.1305 28.8713C46.6869 28.0041 46.3834 26.5758 45.7258 25.7596C45.6753 25.6576 45.5741 25.5046 45.5741 25.3516C45.8776 25.8617 46.2316 25.8107 46.3834 26.5248C46.5351 27.2899 46.9398 28.2591 46.3834 29.1263C45.827 29.9935 43.9555 29.9935 43.2979 31.0137C42.6404 32.0339 43.7532 32.697 44.4613 31.5238C44.6636 31.2687 44.1578 31.0137 43.9049 31.4218Z" fill="#8C1539"/>
<path d="M46.2305 26.7812C45.4717 27.8015 44.4601 27.6994 43.3473 27.3934C43.4991 27.6484 43.6002 27.8525 43.8531 28.0055C43.6508 28.1075 43.4991 28.2095 43.2967 28.2605C43.6002 28.5156 43.9543 28.6176 44.359 28.6686C44.3084 28.7196 44.2072 28.7706 44.106 28.7706C45.6741 28.9237 46.0787 28.3116 46.2305 26.7812Z" fill="#8C1539"/>
<path d="M64.3901 42.1858C64.4407 42.1348 64.7442 42.1348 64.643 42.0328C64.5419 41.9308 64.2384 41.8287 64.1372 41.6757C64.0361 41.5227 63.682 41.3696 63.7831 41.6247C63.7326 41.6247 63.682 41.5227 63.5808 41.5737C63.4797 41.6247 63.5302 41.8287 63.6314 41.9308C63.7326 42.0328 63.8337 42.2878 63.9349 42.3898C64.0361 42.4919 64.2384 42.4409 64.289 42.3388C64.4407 42.5429 64.9971 42.951 65.0983 43.002C65.1994 43.053 65.7052 43.4611 65.6547 43.155C65.5535 42.8489 64.6936 42.3388 64.3901 42.1858Z" fill="#8C1539"/>
<path d="M62.0133 39.2258C62.2156 39.5318 62.6708 39.9909 62.8226 40.297C63.0249 40.6541 63.2778 40.9601 63.2272 41.3172C63.1766 41.6743 62.772 40.8071 62.7214 40.603C62.6708 40.399 62.6202 40.0419 62.4179 39.9399C62.2156 39.8379 61.9627 39.6339 61.8615 39.3788C61.7604 39.1237 61.6086 38.9197 61.4063 38.7157C61.204 38.5116 60.9511 38.0015 61.1028 37.6955C61.2545 37.3894 61.8109 38.0015 61.9627 38.2056C62.1144 38.4096 62.2662 38.7157 62.4685 38.9197C62.6708 39.1238 63.0249 39.5318 63.126 39.7359C63.2272 39.9399 63.1766 39.9399 63.3284 40.144C63.4801 40.348 63.9354 40.9091 63.8848 41.1131C63.8342 41.3172 63.5307 40.9091 63.4295 40.603C63.3284 40.297 62.8731 39.4298 62.5191 39.1237C62.6708 39.3278 63.1261 39.9909 63.1766 40.144C63.2272 40.297 63.4801 40.7561 63.1766 40.603C62.9237 40.501 62.3167 39.5318 62.0133 39.2258Z" fill="#8C1539"/>
<path d="M62.4672 40.2468C62.5177 40.3998 62.6695 41.267 62.4166 41.42C62.1131 41.6241 61.8602 41.0119 62.0119 40.7059C62.1637 40.4508 62.366 40.6039 62.4672 40.0938C62.5177 40.2468 62.4672 40.0938 62.4672 40.2468Z" fill="#8C1539"/>
<path d="M63.6307 40.3989C63.7318 40.6029 64.1365 41.164 64.5411 41.2151C64.8952 41.2661 64.44 40.807 64.2376 40.705C64.0353 40.6029 63.7824 40.5519 63.5801 40.2969C63.6307 40.3989 63.4789 40.1949 63.6307 40.3989Z" fill="#8C1539"/>
<path d="M61.0014 37.2873C60.7991 37.4403 60.7991 37.8484 60.9508 38.2055C61.1026 38.5625 62.266 40.1438 61.7601 40.6539C61.7096 40.6029 61.659 40.2969 61.5072 40.3479C61.3555 40.3989 61.3049 40.756 61.052 40.705C60.9508 40.6029 60.9508 40.2969 60.7485 40.2459C60.5462 40.1948 60.2933 40.2969 60.1921 40.0418C60.2933 39.9398 60.2933 39.9908 60.2427 39.7868C60.1415 39.5827 59.7875 39.3277 59.9392 38.9196C60.1415 38.5115 60.7991 39.0726 60.9003 39.4297C60.9508 39.5827 60.9003 39.8378 60.6979 39.6337C60.6474 39.3787 60.6474 39.1746 60.3439 39.0726C59.9898 38.9706 60.2933 39.6337 60.4956 39.8378C60.6979 40.0418 61.3555 40.3479 61.3049 39.7868C61.2543 39.2257 60.7991 38.7156 60.6474 38.3075C60.5462 37.7464 60.5462 36.8792 61.0014 37.2873Z" fill="#8C1539"/>
<path d="M63.4294 38.3087C62.8224 38.0536 63.0247 38.7168 63.2271 39.0228C63.2776 39.1248 63.5305 39.3289 63.5305 39.0738C63.3788 38.9718 63.1259 38.7678 63.2776 38.5637C63.4294 38.3597 63.7834 38.8188 63.834 39.1248C63.8846 39.4309 63.7329 39.737 63.3282 39.3799C62.9741 39.0738 62.5695 38.4617 62.3672 38.1046C62.1648 37.7476 61.659 37.1354 61.3555 37.3395C61.7602 37.4925 61.8108 37.7476 62.1648 38.1557C62.5189 38.5637 63.3788 39.992 64.0869 40.145C64.0869 40.094 63.834 39.941 63.8846 39.89C63.9352 39.839 64.2387 40.094 64.3398 39.941C64.2893 39.839 63.9858 39.686 64.0364 39.5329C64.0869 39.3799 64.3904 39.3799 64.1881 39.1248C64.0869 39.1759 64.0364 39.0738 63.9352 39.0228C63.9352 39.0228 63.8846 38.8698 63.834 38.8698C63.7329 38.7678 63.6317 38.5127 63.5305 38.4617C63.48 38.3087 63.48 38.3597 63.4294 38.3087Z" fill="#8C1539"/>
<path d="M56.4999 32.1876C57.4104 32.5447 57.8656 32.9018 58.7255 33.4629C59.636 34.024 60.9005 35.4523 61.204 36.2684C61.5075 37.1356 61.7098 37.2886 62.1651 37.1866C62.418 37.1356 62.418 36.7275 62.418 36.5235C62.418 36.3194 62.1651 36.0644 62.1145 35.8603C61.8616 36.0644 61.7098 35.9114 61.4569 35.5543C61.1029 34.9932 60.3441 33.8199 59.8383 33.4629C59.4842 33.2078 59.9901 33.5649 59.7372 33.3608C59.4842 33.2078 58.7761 32.6977 58.4726 32.5447C57.8656 32.3406 57.2587 32.1366 56.4999 32.1876Z" fill="#8C1539"/>
<path d="M58.4717 35.5027C58.8764 36.0638 58.927 36.0638 59.6351 36.5739C60.3432 37.084 60.8996 35.8088 59.7363 35.0436C58.5223 34.2785 56.8531 33.7173 55.7403 32.2891C55.538 32.3401 55.538 32.2891 55.8921 32.7992C56.2462 33.3093 57.4601 34.4825 58.4212 34.7886C59.3822 35.0946 59.7868 36.0638 58.4717 35.5027Z" fill="#8C1539"/>
<path d="M60.8496 36.0133C60.2932 35.1462 60.1921 34.9931 59.0793 34.534C57.9665 34.075 57.8147 34.279 56.3479 32.5447C56.0444 32.1876 51.8461 28.6679 51.7955 26.5765C51.7955 26.4745 51.6944 26.3214 51.745 25.9133C51.7955 25.5053 52.3014 24.4341 53.0095 24.332C52.6554 24.7911 52.2002 24.7911 51.9979 25.5053C51.7955 26.2194 51.6944 25.6073 51.8967 26.9335C52.0484 28.3108 54.6281 31.2694 55.8421 32.0346C57.056 32.7997 56.449 32.3916 57.5618 33.0548C58.6746 33.7179 60.2426 34.5851 60.8496 36.0133Z" fill="#8C1539"/>
<path d="M56.752 31.6262C55.8415 31.5242 54.7287 31.0651 53.97 30.504C53.2113 29.9429 53.1101 29.0757 52.5031 28.3105C52.9078 28.4636 52.8572 28.3616 53.363 29.0247C53.8688 29.6368 55.6897 31.1161 56.752 31.6262Z" fill="#8C1539"/>
<path d="M55.2852 32.0851C54.6782 31.524 53.3125 30.3507 52.9078 29.8916C52.5032 29.4325 52.0479 28.5144 52.2503 28.3613C52.6549 28.9734 52.6043 29.2285 53.1102 29.8916C53.616 30.5038 54.7288 31.3709 55.2852 32.0851Z" fill="#8C1539"/>
<path d="M52.4022 27.1875C52.3516 27.2385 52.2504 27.3405 52.1999 27.3915C52.4022 27.5956 52.5539 27.7996 52.8574 27.9016C52.6551 27.6466 52.5034 27.4426 52.4022 27.1875Z" fill="#8C1539"/>
<path d="M51.7441 27.3929C51.1877 27.1889 51.0866 26.5257 51.0866 26.0156C51.036 26.2197 50.9854 26.4237 50.9348 26.6277C50.8337 26.6788 50.7325 26.7298 50.7325 26.7808C50.7831 26.9338 50.8843 27.2399 50.9348 27.3929C50.9854 27.5459 50.8843 27.5459 50.9348 27.6479C51.3901 28.5661 51.7441 28.4131 51.7441 27.3929Z" fill="#8C1539"/>
<path d="M51.694 26.3203C51.5422 26.2693 51.5422 26.1672 51.5422 25.9122C51.5422 25.6571 51.694 24.841 52.048 24.5859C52.0986 24.739 51.8457 25.147 51.7951 25.2491C51.7445 25.3001 52.048 24.841 51.9975 24.994C51.8963 25.147 51.5422 25.9122 51.694 26.3203Z" fill="#8C1539"/>
<path d="M52.15 25.7089C52.15 25.6579 52.0489 25.8109 52.0995 25.7089C52.0995 25.6579 52.2512 25.3518 52.2006 25.3008C51.9477 25.6579 51.8971 25.9639 51.8465 26.423C51.9477 26.8821 52.0489 26.627 52.0489 26.423C52.0489 26.27 52.0489 26.372 52.0489 26.372C51.9983 26.1169 51.9983 25.8619 52.15 25.7089Z" fill="#8C1539"/>
<path d="M52.2506 24.7387C52.5035 24.3816 52.807 24.3306 53.1105 23.9735C53.414 23.6165 52.7058 23.9735 52.6047 24.0755C52.7058 24.0245 52.6553 24.0755 52.6047 24.1776C52.5541 24.2286 52.2 24.6877 52.2506 24.7387Z" fill="#8C1539"/>
<path d="M52.6562 24.3825C53.0103 24.1275 53.4655 23.9744 53.769 23.6174C54.0219 23.5664 54.2242 23.7704 53.8701 23.9234C53.5161 24.0765 53.0103 24.1785 52.6562 24.3825Z" fill="#8C1539"/>
<path d="M53.7681 24.2303C54.021 24.1283 54.4762 23.8732 54.6785 24.0262C54.9314 24.1793 54.5268 24.4343 54.375 24.3833C54.1727 24.2813 53.9198 24.2303 53.7681 24.2303Z" fill="#8C1539"/>
<path d="M54.0724 24.9939C54.0724 24.7899 54.3253 24.8409 54.2242 24.5858C54.123 24.3308 53.3643 24.3308 53.1114 24.5858C53.3137 24.4838 53.7689 24.6878 53.9207 24.7899C54.0218 24.8919 53.9713 24.8919 54.0724 24.9939Z" fill="#8C1539"/>
<path d="M53.6154 25.1481C53.7166 25.1481 53.666 25.1481 53.6154 25.1481C53.7166 24.893 53.3625 24.74 53.1096 24.791C52.9073 24.791 52.6038 24.9441 52.3509 25.0461C52.2497 25.2501 52.5532 25.1481 52.705 25.1481C52.7555 25.1481 53.0084 25.2501 53.1096 25.2501C53.2108 25.2501 53.5648 25.1481 53.6154 25.1481Z" fill="#8C1539"/>
<path d="M58.0176 35.9623C57.5118 35.2482 56.6519 34.8911 55.8426 34.7891C55.9943 34.33 56.5001 34.534 56.9048 34.7381C57.3094 34.9931 57.967 35.4012 58.0176 35.9623Z" fill="#8C1539"/>
<path d="M56.6004 35.9613C56.3981 35.7572 55.5888 35.7062 55.8417 35.1961C56.0946 34.686 57.4603 35.6042 57.6626 35.9613C57.865 36.3183 58.0167 36.9815 57.3592 36.9815C57.4603 37.1855 57.5615 37.3896 57.7132 37.5426C57.3592 37.7466 56.8533 37.1345 56.651 36.9305C56.6004 37.0835 56.6004 37.2875 56.7016 37.4406C56.1958 37.4406 55.7911 36.7774 55.4876 36.4204C55.3865 36.5224 55.2853 36.5734 55.1842 36.7264C54.7289 36.2673 54.3243 36.1653 54.3243 35.2981C54.2737 34.431 55.0324 34.0739 54.7289 32.8497C54.4254 31.5744 52.9586 30.4012 51.7446 29.483C51.6435 29.381 51.4917 29.1259 51.4411 28.9219C52.0481 29.432 51.8458 29.534 52.7057 30.0951C53.5656 30.6562 54.6278 31.5234 55.0324 32.7476C55.4371 33.9719 55.1336 35.3491 55.9429 36.1143C56.7522 36.8795 58.1685 36.7264 57.0557 35.7572C56.8028 35.5532 56.044 35.3491 56.6004 35.9613Z" fill="#8C1539"/>
<path d="M52.9088 30.6055C53.4147 31.9317 53.1112 33.054 51.9984 33.9721C52.2513 34.0231 52.5548 34.0742 52.7571 34.0231C52.7571 34.2272 52.8077 34.4822 52.7571 34.6863C53.1112 34.6353 53.4147 34.4822 53.617 34.1762C53.6676 34.2782 53.6676 34.3292 53.6676 34.4312C55.0333 33.309 53.7182 31.5747 52.9088 30.6055Z" fill="#8C1539"/>
<path d="M37.3301 33.26C37.2289 33.158 37.0266 32.4949 36.7231 32.6989C36.4702 32.903 36.4196 33.4131 36.1161 33.6681C35.8127 33.9232 35.8127 34.6373 36.3691 34.4333C36.3691 34.6373 36.2679 34.7393 36.4196 34.8924C36.622 35.0454 36.976 34.9944 37.2289 34.7903C37.4818 34.5863 37.8865 34.3822 38.1394 34.1782C38.3923 33.9742 37.9877 33.6171 37.8359 33.5151C38.2406 33.311 38.9993 32.4439 39.1005 32.1378C39.2016 31.8317 39.758 31.1176 39.2016 31.1686C38.6452 31.3216 37.6336 32.5969 37.3301 33.26Z" fill="#894D61"/>
<path d="M32.7777 38.2591C33.4353 37.9021 34.194 37.2389 34.6492 36.7288C35.1044 36.2187 35.4585 35.5046 36.2172 35.5556C36.976 35.6576 35.8632 36.7288 35.5091 36.8309C35.155 36.9329 34.5986 37.1879 34.4975 37.647C34.3963 38.1061 34.0422 38.4122 33.587 38.6162C33.1318 38.8203 32.6765 38.9223 32.2719 39.4324C31.8672 39.9425 31.2097 40.5546 30.3498 40.4526C29.4899 40.3506 29.2876 38.9223 29.7428 38.3612C30.1981 37.8001 30.6533 37.545 30.9568 36.9839C31.2603 36.4228 31.8167 35.7597 32.2719 35.5046C32.7271 35.2496 32.7777 35.5556 33.1318 35.1475C33.4858 34.7905 34.3457 33.7193 34.9527 33.8723C35.5597 34.0253 35.0539 34.6884 34.3963 34.9945C33.7893 35.3006 32.1201 36.0657 31.6649 36.9329C32.1201 36.5758 33.2329 35.7597 33.6882 35.6066C34.1434 35.4536 34.7504 34.9435 34.8515 35.6576C35.0033 36.4228 33.3341 37.8511 32.7777 38.2591Z" fill="#894D61"/>
<path d="M35.2049 37.5446C35.559 37.3916 36.7729 36.7285 37.3799 37.2386C37.9869 37.7487 37.0764 38.3608 36.4694 38.2078C35.8625 38.0547 35.8625 37.5956 35.0532 37.6466C35.2555 37.5446 34.8508 37.6976 35.2049 37.5446Z" fill="#894D61"/>
<path d="M33.2839 34.5362C33.5873 34.2812 34.6496 33.363 34.4472 32.6489C34.2449 31.9347 33.3344 32.4448 33.2333 33.0569C33.1321 33.6691 33.5368 33.8731 33.1321 34.6383C33.3344 34.4852 32.9804 34.8423 33.2839 34.5362Z" fill="#894D61"/>
<path d="M29.7419 41.1147C30.5512 41.4718 30.9052 41.2167 31.8157 40.6556C32.7262 40.0945 35.1035 38.0031 36.5198 38.7172C36.368 38.8703 36.1151 39.0233 36.014 39.2273C36.4692 39.2784 36.8738 39.4314 37.0762 39.8905C36.9244 40.0945 36.3175 40.1965 36.368 40.5026C36.368 40.8087 36.9244 41.2167 36.4186 41.5228C36.1657 41.4208 36.2669 41.3188 35.8622 41.5228C35.4576 41.7268 35.2552 42.492 34.3954 42.339C33.5355 42.1859 33.5861 40.9107 34.4965 40.4516C34.8 40.2986 35.3058 40.3496 35.1541 40.8087C34.7494 40.8597 34.193 41.0127 34.2942 41.6248C34.3954 42.2369 35.3564 41.7268 35.6599 41.1657C35.9634 40.5536 35.8116 39.5334 34.7494 39.7374C33.6872 39.9415 33.0297 40.6556 32.2204 41.3698C31.3605 41.9819 30.1971 42.39 29.7419 41.1147Z" fill="#894D61"/>
<path d="M27.8194 35.4538C27.9206 36.78 29.2357 36.0659 29.8427 35.4028C30.045 35.1477 30.0956 34.5356 29.5392 34.6886C29.438 35.1477 29.2357 35.7088 28.5781 35.5558C27.9206 35.4028 28.6287 34.3826 29.2357 34.0765C29.8427 33.8214 30.9555 33.9745 30.652 35.0457C30.3485 36.1169 29.3368 36.831 28.6793 37.7492C28.0217 38.6674 27.7688 40.0447 29.0839 40.3507C28.6793 39.5856 28.7805 39.0755 29.3368 38.1063C29.8932 37.1371 32.4223 34.8416 31.7648 33.3624C31.613 33.5154 31.4107 33.7194 31.2084 33.8214C31.1578 33.3624 31.0566 32.9543 30.6014 32.6992C30.3991 32.8522 30.2473 33.4134 29.8932 33.4134C29.5898 33.3624 29.1851 32.8012 28.8816 33.3624C29.0839 33.4644 28.9828 33.7194 28.831 33.8725C28.7805 33.9235 28.5275 34.1275 28.5275 34.1785C28.5275 34.2295 28.5275 34.1785 28.5275 34.1785C28.3758 34.5866 28.0723 34.7906 27.87 35.1477C27.8194 35.2497 27.8194 35.3007 27.8194 35.4538Z" fill="#894D61"/>
<path d="M24.0773 50.9096C23.6726 49.5834 23.4197 49.0223 23.8243 47.441C24.229 45.8596 26.6063 42.85 27.1121 41.4728C27.6179 40.0955 27.4662 39.3814 26.5557 38.9733C26.0499 38.7692 25.5441 39.2793 25.0889 39.4324C24.8866 39.8404 24.7348 40.2485 24.5831 40.6056C25.1395 40.7076 25.3418 40.8606 25.2406 41.6768C25.0889 43.0031 23.5714 44.3803 22.8633 45.6556C22.8633 45.6556 22.9139 45.4516 22.8633 45.7576C22.8127 46.0637 22.5598 47.594 22.5092 48.1041C22.7116 49.2773 23.1668 50.1955 24.0773 50.9096Z" fill="#894D61"/>
<path d="M31.0074 47.4911C31.5133 46.3689 31.8167 46.4199 31.4121 44.7366C31.0074 43.0533 28.9336 43.0022 28.0231 45.2467C27.1127 47.4911 27.6691 49.9906 26.2022 52.082C26.8598 52.3371 26.9609 52.8472 27.8714 52.082C28.7819 51.3169 28.7313 49.1745 28.8324 47.6952C28.9336 46.1649 30.8557 45.0426 31.0074 47.4911Z" fill="#894D61"/>
<path d="M28.0234 42.6465C27.5176 43.9217 27.113 44.9419 26.8095 46.4212C26.506 47.9005 26.9612 49.2268 25.3932 51.0121C25.0897 51.3692 25.1403 59.6839 26.0508 61.0101C26.1013 61.0611 25.9496 61.5712 26.3542 62.0303C26.7589 62.4894 26.4554 64.3768 25.6461 64.9379C25.4438 64.0707 25.1403 63.5096 25.0897 62.4894C25.0391 61.4692 25.6461 62.0303 25.4438 60.347C25.2415 58.6637 24.7356 53.7157 24.938 51.7773C25.1403 49.8389 24.6345 51.3692 24.5333 49.3798C24.4322 47.3904 25.8484 44.0748 28.0234 42.6465Z" fill="#894D61"/>
<path d="M22.6096 50.7559C23.4189 51.674 23.9753 53.0003 24.1776 54.2245C24.3799 55.4488 24.127 56.775 24.6328 57.9993C23.7729 57.5402 23.5706 57.7442 22.913 56.52C22.2555 55.2958 22.4072 52.3882 22.6096 50.7559Z" fill="#894D61"/>
<path d="M27.5158 53C27.5158 54.4283 27.8193 56.1116 28.0217 57.5399C28.224 58.9682 27.2629 59.1722 26.2513 58.6621C26.0996 57.6419 26.0996 57.3359 25.9478 56.1626C25.7961 54.9894 26.049 53.5611 27.5158 53Z" fill="#894D61"/>
<path d="M22.8632 59.173C23.369 59.122 23.8748 59.122 24.3301 59.224C23.8748 58.7139 23.3185 58.3058 22.6609 58.0508C22.7115 58.4079 22.7621 58.7649 22.8632 59.173Z" fill="#894D61"/>
<path d="M26.8588 60.3469C29.0338 61.7242 30.8547 63.5606 32.271 65.703C32.3722 65.3969 32.4228 65.0909 32.3216 64.7848C32.7263 64.8868 33.2321 65.0909 33.6367 64.9889C33.3838 64.6828 32.878 64.1217 32.7263 63.8666C32.5745 63.6116 33.0297 63.7646 33.0297 63.6626C31.4111 61.8262 29.3373 60.2959 26.8588 60.3469Z" fill="#894D61"/>
<path d="M26.3034 61.5195C27.2138 61.7746 28.0231 62.5397 28.5795 63.2029C29.1359 63.866 29.8947 64.5801 29.2877 65.3453C28.6301 65.0392 28.2255 64.5801 28.1243 63.866C27.8208 63.6109 27.1633 64.2741 26.9609 63.764C26.7586 63.2539 27.0621 62.0806 26.3034 61.5195Z" fill="#894D61"/>
<path d="M23.0156 62.539C23.0662 62.437 23.1168 62.3349 23.2179 62.2839C23.5214 62.641 23.9261 62.9471 24.4319 62.8961C24.2296 62.1309 24.4319 61.3658 24.9883 60.8557C24.4825 59.7334 23.4203 60.0905 23.1168 60.6516C22.9144 61.0597 23.0662 60.7536 23.0662 60.7536C23.1673 61.4168 23.0662 61.9269 23.0156 62.539Z" fill="#894D61"/>
<path d="M26.7076 64.1211C26.7582 64.7842 26.8088 65.3453 27.2134 65.9064C27.6687 66.4676 28.3262 66.7226 28.832 66.0595C28.478 65.9575 28.3262 65.9575 28.0227 65.6004C27.7192 65.2433 27.3146 64.2741 26.7076 64.1211Z" fill="#894D61"/>
<path d="M26.4548 64.7324C26.6065 65.5486 26.7583 66.4668 27.3652 67.0279C26.8088 67.1809 26.2524 67.0789 25.9995 66.5178C25.7466 65.9567 25.949 65.1405 26.4548 64.7324Z" fill="#894D61"/>
<path d="M25.3914 66.2129C25.5431 66.672 25.9983 67.6922 25.5431 67.9982C25.0879 68.3553 24.6832 67.6412 24.835 67.2841C25.0373 66.927 25.2396 66.57 25.3914 66.2129Z" fill="#894D61"/>
<path d="M23.3695 66.3647C23.8248 66.4668 23.673 66.9769 24.3306 66.8238C24.9881 66.7218 25.1905 65.3956 24.7858 64.7324C24.5835 65.0895 24.1283 65.8546 23.8753 66.1097C23.6224 66.3647 23.6224 66.2117 23.3695 66.3647Z" fill="#894D61"/>
<path d="M23.0665 65.4475C23.0665 65.6006 23.0665 65.4985 23.0665 65.4475C23.5724 65.8556 24.0276 65.1925 24.1793 64.7334C24.3311 64.3253 24.4322 63.9172 24.584 63.5091C24.1793 63.2031 23.8253 63.6622 23.5724 63.9682C23.4712 64.0702 23.2183 64.3763 23.016 64.4783C23.016 64.7844 23.0665 65.2945 23.0665 65.4475Z" fill="#894D61"/>
<path d="M32.4733 47.8496C31.4616 49.1759 31.8157 50.5531 32.625 51.8794C31.7651 51.7264 31.2087 51.1143 31.1076 50.1961C31.0064 49.2779 31.5122 48.2577 32.4733 47.8496Z" fill="#894D61"/>
<path d="M34.1438 50.5534C34.0426 51.0125 34.4978 52.2367 33.385 51.8796C32.2723 51.5226 32.0193 49.3801 32.8287 48.462C33.638 47.5438 34.6496 47.6968 35.3071 48.666C35.56 48.411 35.8635 48.1049 35.9647 47.7988C36.774 48.3089 36.2682 49.5842 36.0659 50.2473C36.3693 50.1963 36.8752 50.1963 37.0775 49.8902C37.5833 50.8594 36.7234 51.8796 36.1164 52.5938C36.3693 52.6958 36.6728 52.7978 36.9763 52.8488C36.5211 53.818 36.4705 54.1751 35.1554 54.3791C33.8403 54.5832 32.4746 52.9509 30.856 54.2771C29.2374 55.6034 30.5525 59.3781 32.0193 60.9594C32.1711 61.1125 32.3734 61.6226 32.3228 61.8776C31.463 60.8574 30.9066 60.2453 30.2996 58.817C29.6926 57.3887 29.1362 55.3483 30.2996 53.869C31.463 52.3897 34.2449 53.512 35.206 51.9306C36.167 50.3493 34.0932 47.3397 33.1827 49.7882C32.9804 50.1963 33.385 51.4716 34.1438 50.5534Z" fill="#894D61"/>
<path d="M30.8555 58.2037C32.1201 56.2143 33.7892 57.2345 35.4078 58.2037C35.2561 57.7446 35.1044 57.3365 34.7503 56.9794C35.1044 56.9284 35.4584 56.8264 35.8125 56.8264C35.3067 56.3163 34.7503 55.8572 34.0927 55.6532C34.1939 55.6021 34.3456 55.5511 34.4468 55.5511C31.8671 53.9698 30.9061 55.5001 30.8555 58.2037Z" fill="#894D61"/>
<path d="M45.1688 84.118C45.3711 82.3837 46.3827 81.2104 47.8496 80.3433C47.4955 80.2923 47.1921 80.2923 46.838 80.4453C46.8886 80.1392 46.9391 79.8332 47.0909 79.5781C46.5851 79.7822 46.1804 80.0372 45.8264 80.3943C45.7758 80.2923 45.7758 80.1392 45.8769 80.0372C44.3089 81.1594 44.2078 82.5367 45.1688 84.118Z" fill="#894D61"/>
<path d="M43.0949 78.2007C43.3984 78.3027 43.9548 78.5067 43.6513 79.0678C43.3478 79.629 42.3868 80.1901 41.6281 79.3229C40.8693 78.4557 41.1222 77.0274 42.4879 76.5683C42.4374 76.3133 42.3868 75.9052 42.1844 75.7522C42.842 75.6502 43.2467 76.1603 43.6007 76.6194C43.803 76.3643 43.8536 76.0582 43.803 75.7012C44.5618 75.9562 44.8147 76.6194 45.017 77.3335C45.1687 77.2315 45.3711 77.1295 45.4722 76.9254C46.0286 77.6396 46.0792 78.1497 45.5228 79.0678C44.9664 79.986 43.5501 81.0062 43.4996 82.2815C43.449 83.5567 44.5112 84.6279 45.7251 84.781C45.9781 84.832 46.6356 85.036 45.9781 85.2911C45.3205 85.5461 43.5501 84.679 43.0949 83.7608C42.6397 82.8426 42.5385 81.8224 43.2972 80.9552C44.056 80.088 44.7135 78.7618 44.2077 77.7416C43.7019 76.7214 42.5891 76.8744 42.235 77.4865C41.8304 78.0986 42.235 78.6087 42.6397 78.7618C43.0443 78.9148 43.2972 78.5577 43.0949 78.2007Z" fill="#894D61"/>
<path d="M44.5121 87.7903C45.726 86.9231 46.9906 86.413 48.4574 86.515C48.3563 86.311 48.2045 86.158 47.9516 86.0559C48.1539 85.8519 48.3563 85.6989 48.5586 85.5458C48.2045 85.4438 47.8505 85.4948 47.4964 85.5968C47.4964 85.4948 47.547 85.3928 47.5975 85.3418C46.1307 85.6479 45.1191 86.413 44.5121 87.7903Z" fill="#894D61"/>
<path d="M42.287 83.6582C42.7423 84.0663 43.2481 84.6274 43.7539 84.9335C44.2597 85.2395 44.6644 85.6986 44.5126 86.2087C44.3609 86.7188 44.2091 86.7698 43.9562 87.0759C43.4504 86.5658 42.6411 86.0047 42.287 85.3925C41.933 84.8314 42.1859 84.2193 42.287 83.6582Z" fill="#894D61"/>
<path d="M34.548 82.4333C34.5986 82.2293 34.548 81.5151 35.0538 81.7192C35.6102 81.9232 36.0655 82.4333 36.2172 83.1985C36.3689 83.9636 37.1277 85.3409 37.9876 85.6469C38.8474 85.902 39.3027 85.902 39.9602 85.4939C40.8707 86.4121 41.8317 87.3813 42.7928 88.2995C43.1469 88.2995 43.9562 88.6055 44.1079 88.1464C44.1079 88.1464 44.5126 88.4015 43.9562 88.0444C43.3998 87.6873 41.2753 85.953 40.7695 85.0858C40.9719 84.5757 41.2753 84.5247 41.4271 83.9636C41.5788 83.3515 41.2248 82.5863 40.6178 82.2293C40.0108 81.8722 38.7969 81.005 38.898 80.2909C38.9992 79.5767 39.7073 79.7808 40.0108 80.0358C39.7073 79.3727 39.2015 78.8116 38.3922 78.8626C37.5829 78.9136 37.1782 79.7808 37.6841 80.4949C38.1899 81.2091 39.1003 82.0762 39.1509 83.0454C38.3416 82.1783 37.4312 81.3621 36.723 80.4439C36.9759 81.6171 37.4312 82.6884 38.0381 83.7086C37.5323 83.2495 37.2288 82.9434 36.8242 82.2803C36.4195 81.6682 35.9137 80.0868 34.8515 80.2399C33.7893 80.3419 33.941 81.7702 34.548 82.4333Z" fill="#894D61"/>
<path d="M38.19 86.4629C38.544 86.922 39.4545 88.0442 39.7074 88.3503C39.9097 88.6053 39.758 88.4013 39.758 88.4013C40.4661 88.4523 41.1237 88.4013 41.7812 88.3503C40.7696 87.3301 39.6568 86.4629 38.19 86.4629Z" fill="#894D61"/>
<path d="M30.2483 85.596C31.1587 86.2081 30.4506 86.9222 32.1704 86.9732C33.8901 87.0243 36.8744 86.5652 38.5942 88.3505C38.8471 88.3505 39.0494 88.3505 39.2012 88.3505C38.3919 87.1773 36.5204 85.851 35.3064 86.0041C33.3337 86.3101 31.9175 86.0041 31.1081 84.7288C30.2483 83.4536 30.8047 82.8924 31.7151 83.1475C32.6256 83.4025 32.7773 85.3409 31.7657 84.3717C32.1198 84.7288 32.1704 85.953 33.182 84.9328C34.1936 83.9126 32.8279 81.6172 30.8552 82.4334C30.6023 82.5354 29.9448 82.2293 29.9448 81.6172C29.3884 82.1273 30.0965 83.1475 30.2988 83.5556C29.9954 83.4025 29.6919 83.2495 29.5401 82.9945C29.3378 83.9126 30.3494 84.8818 30.9058 85.4429C30.6023 85.596 30.5012 85.596 30.2483 85.596Z" fill="#894D61"/>
<path d="M33.5861 87.8909C34.7494 88.095 35.9128 88.248 37.0762 88.35C35.9128 87.6869 34.8506 87.4318 33.5861 87.8909Z" fill="#894D61"/>
<path d="M33.8897 76.2608C33.6874 76.1078 33.5862 76.0058 33.3839 75.7507C33.1816 75.4957 32.5746 74.7815 32.0688 74.9346C32.0688 74.9856 32.17 75.4447 32.1194 75.4447C31.7653 75.4447 31.563 75.2406 31.2089 75.4447C31.3607 75.6487 31.5124 75.9548 31.4618 76.2098C31.1583 76.2098 30.956 76.3118 30.8043 76.5669C31.1077 76.6689 31.3101 76.7709 31.3607 77.128C31.4112 77.4851 31.6136 78.3522 32.17 78.4032C32.6758 78.4543 32.9287 78.0972 32.9793 77.5871C32.9793 77.077 32.6758 76.2098 32.0688 76.6689C32.3217 76.924 32.7769 77.128 32.2711 77.6381C31.7653 78.1482 31.1583 76.3118 32.2205 76.0058C33.2827 75.6997 33.5357 78.1482 33.9909 78.8113C34.4461 79.4745 34.9519 79.3724 35.5589 79.1174C36.1659 78.8113 36.6717 79.2704 37.2281 78.5053C37.7845 77.7401 36.9752 76.4139 37.1269 75.5467C37.2787 74.6795 38.0374 74.5775 38.3915 74.9346C38.7455 75.3426 38.7961 76.2098 38.3915 76.2098C37.9868 76.2098 37.7845 75.6997 38.0374 75.4447C37.8857 75.3426 37.7845 75.0366 37.6327 75.4447C37.481 75.8527 37.6327 76.9239 38.2903 76.975C38.9479 77.026 39.1502 76.3118 39.049 75.8527C38.9479 75.3936 38.6444 75.0366 39.0996 74.8325C39.0996 74.3734 38.5938 74.4245 38.2903 74.5265C38.2903 74.2714 38.2903 74.0164 38.3915 73.8123C38.0374 73.6083 37.6327 74.0164 37.3798 74.2204C37.3293 74.0674 37.2787 73.9144 37.3293 73.7613C36.874 73.7103 36.6717 74.4755 36.5705 74.7305C36.4694 74.9856 36.3682 75.6997 36.0647 75.8017C36.0141 75.2406 35.913 74.6285 35.4072 74.3224C34.9014 74.0164 35.4072 73.5573 35.5083 73.1492C35.2048 73.0472 34.9519 73.0982 34.7496 73.3532C34.699 72.6391 34.8508 71.4149 34.3955 70.8537C33.9403 70.2416 33.8391 72.027 33.8897 72.231C33.9909 72.4351 34.2438 73.2002 33.9403 73.2002C33.6368 73.2512 33.5357 73.3022 33.4345 73.5573C33.5862 73.8123 33.8897 74.1694 33.8897 74.4245C33.8897 74.6795 33.8897 74.7305 33.6874 74.9346C33.4345 75.1896 33.6368 75.9548 33.8897 76.2098C33.8897 76.2608 33.9403 76.3118 33.8897 76.2608Z" fill="#894D61"/>
<path d="M42.1858 36.6264C41.9329 37.5446 41.7811 38.5648 41.7811 39.534C41.7811 40.8092 42.0341 42.0845 42.4387 43.3087C42.3881 43.4108 42.3881 43.5128 42.3881 43.6148C42.3881 43.6658 42.3375 43.7678 42.3375 43.8188C42.3375 43.8188 42.3375 43.7678 42.287 43.7678C41.0224 42.7476 39.9602 41.4724 39.1509 40.0441C38.6451 39.1259 38.1899 38.1567 37.8864 37.1365C37.2288 35.1471 37.33 33.2597 36.5713 30.8623C36.2172 29.638 34.2445 27.6996 32.98 26.6284C32.98 26.6284 32.98 26.6284 32.9294 26.6284C32.9294 26.6284 32.9294 26.6284 32.8788 26.6284C32.8282 26.6284 32.8282 26.5774 32.7777 26.5774C32.7271 26.5774 32.6765 26.5264 32.6259 26.4754C32.5753 26.4244 32.4742 26.4244 32.373 26.3734C32.3224 26.3734 32.3224 26.3224 32.2718 26.3224C31.0073 25.6592 29.1864 24.6901 27.4666 23.4658C28.7311 22.5476 30.0968 21.7315 31.412 21.1193C32.4742 22.2416 33.7387 23.3638 35.2561 24.333C35.5091 24.486 35.762 24.639 35.9643 24.7411C36.0149 24.7921 36.0654 24.7921 36.116 24.8431C36.6218 25.1491 37.0771 25.5572 37.937 26.3734C39.3532 27.6996 38.9486 31.4744 38.8474 33.9739C38.6957 37.2895 39.7579 40.5542 41.8317 43.0537C41.2753 41.9825 40.9213 40.8092 40.7189 39.636C40.3143 37.4936 40.6684 35.1471 41.3765 33.1577C42.0846 30.9643 42.5399 27.5466 42.3375 26.7815C41.9329 25.0981 40.3649 23.6699 40.3649 23.6699L39.9602 23.2618C39.1003 22.3436 37.7852 20.9153 36.6218 19.283C38.0887 18.9769 39.505 18.8239 40.9718 18.8749C41.2248 18.8749 41.5282 18.8749 41.7811 18.9259C42.4387 20.3032 43.4503 21.7825 44.9172 23.1087L44.9678 23.1598C45.0184 23.2618 45.5242 24.537 45.6253 25.7103C45.8277 27.5976 45.3724 29.485 44.7149 31.0663C43.855 32.9537 42.7422 34.637 42.1858 36.6264Z" fill="#8C1539"/>
<path d="M29.6919 29.3818C32.0187 30.198 34.3454 34.2278 34.8007 35.299C36.0652 38.1046 36.5204 41.3182 38.2402 43.8177C39.2012 45.144 40.5669 46.2152 42.1855 46.4702C42.1855 46.5212 42.1855 46.5723 42.1855 46.6233C41.4774 46.6233 40.7693 46.4702 40.1117 46.2152C37.0768 45.042 35.3571 41.7773 34.0419 39.0738C33.2326 37.4414 32.4233 35.8601 31.1082 34.6359C29.7931 33.5137 28.5286 32.9015 26.8088 32.5955C25.3419 32.1874 22.8635 31.4733 20.2332 30.4531C21.1943 29.2288 22.2059 28.0556 23.2681 26.9844C25.1902 27.9536 27.3652 28.8207 29.6919 29.3818Z" fill="#8C1539"/>
<path d="M24.6852 35.9618C29.2375 35.7578 30.9573 39.5325 33.6381 42.8482C34.4474 43.8174 35.2567 44.7356 36.2177 45.4497C37.5834 46.4699 39.3538 46.878 41.023 47.082C41.4276 47.082 41.8829 47.133 42.3381 47.133C42.3381 47.2351 42.3887 47.3371 42.3887 47.3881C40.4666 47.8982 37.4823 47.4391 36.2683 46.98C33.7898 46.0108 31.9689 43.8684 29.8951 42.3891C27.8718 41.0628 25.3427 39.4815 22.8643 39.9916C21.5491 39.9406 18.4637 39.7876 15.1253 39.3285C15.7829 37.7982 16.491 36.3189 17.3003 34.8906C19.627 35.4517 22.1561 35.9108 24.6852 35.9618Z" fill="#8C1539"/>
<path d="M21.8008 43.7158C21.8514 43.9198 21.9526 44.3789 22.1043 44.736C22.3572 45.2461 23.0654 46.0622 23.8747 46.6233C26.5049 48.3577 29.8939 48.7147 33.0299 48.5617C35.3061 48.4597 37.6328 48.2557 39.909 48.6127C41.1229 48.8168 42.3875 49.0718 43.5508 49.4799C43.7026 49.6329 43.8543 49.837 44.0566 49.939C41.6287 49.1738 38.8973 49.1738 36.52 49.4799C34.2438 49.837 32.0183 50.3471 29.6915 50.3981C26.8084 50.4491 23.3688 49.888 21.0927 47.8986C19.5247 48.3067 16.1357 49.1228 12.5444 49.5309C12.7468 47.7456 13.1008 46.0112 13.5055 44.3279C16.1863 44.3789 19.0694 44.1749 21.8514 43.5117C21.8008 43.6137 21.8008 43.6647 21.8008 43.7158Z" fill="#8C1539"/>
<path d="M30.0469 85.1372L30.7551 85.7493C34.5993 87.0246 39.5562 85.9534 42.7934 83.1988C44.8167 81.4135 46.0812 78.965 47.0423 76.4145C48.3574 72.8948 48.9138 69.12 49.7737 65.4473C50.6841 61.4685 52.2016 57.6428 56.7033 59.1731L56.7539 59.2241C47.0423 56.5205 53.0615 75.8534 44.2097 84.6781C42.3382 86.5145 39.9103 87.8407 37.4318 88.5039C37.2295 88.5039 37.0777 88.4529 36.8754 88.4529C36.6731 88.4529 36.5213 88.4018 36.319 88.4018C36.1673 88.4018 36.0155 88.3508 35.8638 88.3508C35.7626 88.3508 35.6109 88.2998 35.5097 88.2998C35.4086 88.2998 35.2568 88.2488 35.1556 88.2488C34.9533 88.1978 34.751 88.1978 34.5487 88.1468C34.2958 88.0958 34.0934 88.0448 33.8405 87.9938C33.5876 87.9428 33.3853 87.8917 33.1324 87.8407C32.9806 87.7897 32.8795 87.7897 32.6772 87.7387C31.615 87.4327 30.1987 86.8205 29.5411 86.5145C29.6929 86.0554 29.8952 85.5963 30.0469 85.1372C29.9963 85.1372 30.0469 85.1372 30.0469 85.1372Z" fill="#8C1539"/>
<path d="M22.2566 70.8537C22.2566 70.8537 22.2566 70.8027 22.2566 70.8537C22.813 70.2416 23.2177 69.7825 23.42 69.6295C26.3537 70.7517 29.5403 71.7209 32.5752 70.7007C37.2287 69.3744 39.5049 64.8345 42.388 61.2638C45.6758 57.03 49.3682 54.8366 54.477 56.6729L54.5781 56.7749C45.0688 54.1734 43.0961 64.5285 37.7851 70.0886C34.295 73.5063 29.1357 74.6285 24.381 73.8123C23.2177 75.1386 21.5485 77.026 19.677 78.7603C18.7665 77.6381 17.9572 76.4138 17.2491 75.0876C18.8677 73.9143 20.638 72.5371 22.2566 70.8537Z" fill="#8C1539"/>
<path d="M20.1824 52.1324C20.4353 51.9794 20.6883 51.8264 20.8906 51.6223C20.9917 53.3567 28.8824 56.0092 31.1586 55.3461C34.2946 54.4789 37.1778 52.7445 40.415 51.9794C44.9673 50.7552 49.4185 52.0814 53.0098 54.938C49.3679 52.4895 44.8662 51.5203 40.7185 53.1016C37.9365 54.0708 35.5592 55.7031 32.8278 56.8764C29.8941 58.2536 26.5557 58.0496 23.4702 57.3355C22.2563 56.9784 21.5481 56.6723 20.9917 56.1112C20.8906 56.1622 20.7388 56.2132 20.6377 56.2642C20.6377 56.2642 20.6377 56.2642 20.5871 56.2642C19.0696 57.1314 15.9336 58.8658 12.5952 60.243C12.3929 58.5087 12.2412 56.7743 12.2412 54.938C14.8208 54.3769 17.6028 53.4587 20.1824 52.1324Z" fill="#8C1539"/>
<path d="M20.8912 60.6516C21.1441 60.3965 21.3465 60.1925 21.4476 60.1415L21.4982 60.0905C21.4982 60.0905 21.4982 60.0905 21.5488 60.0394C24.5331 62.0288 28.7819 62.743 32.7273 60.6006C35.3575 59.1213 37.7854 57.4379 40.3651 55.8566C44.7151 53.1531 49.1662 53.7652 53.668 55.7036C49.2168 54.2753 44.9174 54.0203 41.0226 56.9788C39.2017 58.2541 37.4819 59.8864 35.661 61.1617C31.2604 64.2733 26.9104 66.2117 21.7511 65.3955C20.8406 66.0586 19.7784 66.8238 18.5645 67.5889C17.4011 68.3541 16.1366 69.1192 14.8215 69.8334C14.3156 68.5071 13.911 67.1299 13.5569 65.7016C16.0354 64.4263 18.6151 62.743 20.8912 60.6516Z" fill="#8C1539"/>
<path d="M26.405 78.3529C28.0742 78.965 29.7939 79.5771 31.6654 79.3731C34.8015 79.016 37.9881 77.5877 40.2643 75.3433C45.0695 70.3443 46.6375 55.6024 55.6916 57.9999L55.7422 58.0509C50.2794 56.8776 47.9527 62.2847 46.2329 66.8756C45.2718 69.3241 44.4625 71.9256 43.2486 74.2721C42.0346 76.8226 39.7585 78.812 37.3306 80.1382C34.3463 81.7706 30.8056 82.6377 27.366 82.0766C26.9108 82.7397 26.3544 83.5559 25.6968 84.3721C24.837 83.811 24.0277 83.1988 23.2689 82.5357C24.3311 81.2094 26.3544 78.3019 26.405 78.3529Z" fill="#8C1539"/>
</svg>
