<svg viewBox="0 0 87 101" fill="none" xmlns="http://www.w3.org/2000/svg">
<path d="M74.7585 53.8162C74.7585 54.0713 74.7585 54.2753 74.7585 54.5304C74.7585 54.6834 74.7585 54.7854 74.7585 54.9384V54.9895C74.708 56.7748 74.6068 58.5602 74.4045 60.2945C74.4045 60.3965 74.4045 60.4475 74.3539 60.5496C74.3539 60.7026 74.3033 60.8556 74.3033 61.0087C74.2021 61.7738 74.101 62.4879 73.9492 63.2021C73.9492 63.3551 73.8987 63.5082 73.8481 63.6612C73.8481 63.7122 73.7975 63.7632 73.7975 63.8652C73.7469 64.0693 73.6963 64.2733 73.6963 64.4263C73.6457 64.6304 73.5952 64.8344 73.5952 64.9874C73.5446 65.1405 73.5446 65.2935 73.494 65.4465C73.494 65.5486 73.4434 65.5996 73.4434 65.7016L72.9376 67.64C72.887 67.793 72.8364 67.946 72.7859 68.0991C72.7353 68.2521 72.6847 68.4051 72.6341 68.6092L72.2295 69.8334C72.1283 70.0884 72.0777 70.2925 71.9766 70.4965C71.5719 71.5167 71.1673 72.4859 70.712 73.4551C70.6614 73.6082 70.5603 73.7612 70.4591 73.9142C70.358 74.0672 70.2568 74.2713 70.2062 74.4243C70.1051 74.6283 70.0039 74.8324 69.8521 75.0364C69.4981 75.6996 69.0934 76.3117 68.6888 76.9238C68.2841 77.5359 67.8795 78.148 67.4242 78.7092C67.3231 78.8622 67.1713 79.0152 67.0702 79.1683C67.0196 79.2193 66.969 79.2703 66.9184 79.3213C66.8173 79.4233 66.7161 79.5763 66.6149 79.6784C66.1091 80.2395 65.6033 80.8006 65.0975 81.3107C64.9963 81.4127 64.8446 81.5657 64.7434 81.6677C64.5917 81.7698 64.4905 81.9228 64.3388 82.0758C64.2376 82.1778 64.0859 82.2799 63.9847 82.3819C63.9847 82.3819 63.9341 82.3819 63.9341 82.4329C63.7318 82.6369 63.5295 82.79 63.2766 82.994C63.0742 83.147 62.8719 83.3001 62.6696 83.4531C62.5178 83.5551 62.3661 83.6571 62.2144 83.8102C61.9614 83.9632 61.7085 84.1672 61.4556 84.3203C61.3039 84.4223 61.1521 84.5243 61.051 84.6263L61.0004 84.6773C60.8487 84.7794 60.6969 84.8814 60.5452 84.9324C60.3934 85.0344 60.2417 85.1364 60.0899 85.1874C59.9382 85.2895 59.7864 85.3405 59.6347 85.4425C59.5841 85.4425 59.5841 85.4935 59.5841 85.4935C59.483 85.5445 59.3312 85.6465 59.1795 85.6975C59.1289 85.7486 59.0277 85.7996 58.9771 85.7996C58.876 85.8506 58.7242 85.9016 58.6231 86.0036C58.4713 86.1056 58.269 86.1566 58.1173 86.2587C58.0161 86.3097 57.9149 86.3607 57.8138 86.4117C57.7632 86.4627 57.7126 86.4627 57.6115 86.4627C57.308 86.5647 56.8527 86.7688 56.3975 86.9728C56.094 87.0748 55.7905 87.2278 55.487 87.3299C55.3353 87.3809 55.2341 87.4319 55.0824 87.4829C55.0318 87.4829 55.0318 87.4829 54.9812 87.5339C54.9306 87.5339 54.9306 87.5339 54.9306 87.5339C54.7789 87.5849 54.6271 87.6359 54.526 87.6359C54.3742 87.6869 54.2225 87.6869 54.0708 87.7379C53.9696 87.7379 53.8684 87.789 53.7167 87.84C53.5649 87.891 53.4638 87.891 53.3626 87.891C53.2614 87.942 53.1097 87.942 53.0085 87.942C52.9074 87.942 52.7556 87.993 52.6545 87.993C52.5533 87.993 52.4521 88.044 52.351 88.044C52.2498 88.044 52.1487 88.095 52.0475 88.095C51.9463 88.095 51.8452 88.146 51.7946 88.146C51.7946 88.146 51.7946 88.146 51.744 88.146H51.6934C51.6428 88.146 51.5923 88.146 51.4911 88.146C51.4405 88.146 51.3899 88.146 51.2888 88.197C51.137 88.197 50.9853 88.248 50.8335 88.248C50.6312 88.248 50.4289 88.2991 50.2771 88.2991C50.1254 88.2991 49.9231 88.3501 49.7207 88.3501C49.0126 88.4011 48.2539 88.4521 47.4952 88.5031C47.4446 88.5031 47.3434 88.5031 47.2423 88.5031C46.8376 88.5031 46.4835 88.5031 46.0789 88.5031C45.7248 88.5031 45.4213 88.5031 45.0673 88.5031C44.9661 88.5031 44.8649 88.5031 44.7638 88.5031C44.5614 88.5031 44.3085 88.5031 44.1062 88.4521C43.9545 88.4521 43.8533 88.4521 43.7016 88.4011C43.4992 88.4011 43.2969 88.4011 43.0946 88.3501C42.9428 88.3501 42.8417 88.2991 42.6899 88.2991C42.4876 88.2991 42.2853 88.248 42.1335 88.248C41.9818 88.248 41.8806 88.197 41.7289 88.197C41.5771 88.197 41.4254 88.146 41.2737 88.146C41.2231 88.146 41.2231 88.146 41.1725 88.146C41.0208 88.146 40.9196 88.095 40.7678 88.095C40.5655 88.044 40.4138 88.044 40.2114 87.993C40.0597 87.993 39.9585 87.942 39.8068 87.942L39.2504 87.84C39.1492 87.84 38.9975 87.789 38.8963 87.7379C38.694 87.6869 38.4917 87.6359 38.3399 87.6359C38.2894 87.6359 38.2894 87.6359 38.2388 87.6359C38.0364 87.5849 37.7835 87.5339 37.5812 87.4829H37.5306C37.3789 87.4319 37.2271 87.3809 37.0754 87.3809C36.9237 87.3299 36.7719 87.2789 36.6202 87.2278C36.4684 87.1768 36.2661 87.1258 36.1144 87.0748C36.0638 87.0748 35.9626 87.0238 35.912 87.0238C35.6591 86.9218 35.4062 86.8708 35.1533 86.7688C35.0016 86.7178 34.9004 86.6667 34.7487 86.6157C34.6981 86.6157 34.6475 86.5647 34.6475 86.5647C34.5463 86.5647 34.4957 86.5137 34.3946 86.4627C34.344 86.4627 34.2934 86.4117 34.2428 86.4117C34.1923 86.4117 34.1417 86.3607 34.0911 86.3607C34.0405 86.3607 33.9899 86.3097 33.9394 86.3097C33.8888 86.3097 33.8382 86.2587 33.7876 86.2587C33.737 86.2587 33.6864 86.2076 33.6359 86.2076C33.5853 86.2076 33.5347 86.1566 33.4335 86.1566C33.2818 86.1056 33.0795 86.0036 32.9277 85.9526C32.8266 85.9016 32.6748 85.8506 32.5231 85.7996C32.3713 85.7486 32.169 85.6465 32.0173 85.5955L31.6126 85.3915C31.4609 85.3405 31.3091 85.2384 31.1068 85.1364C30.9551 85.0854 30.8539 85.0344 30.7021 84.9324C30.5504 84.8814 30.3987 84.7794 30.1963 84.6773C30.0952 84.6263 29.9434 84.5243 29.8423 84.4733C29.6399 84.3713 29.4376 84.2693 29.2353 84.1672H28.8306C28.5271 84.0142 28.2742 83.8102 27.9707 83.6571C27.9202 83.6571 27.9202 83.6061 27.8696 83.6061C27.6167 83.4531 27.3638 83.3001 27.1109 83.147L27.0603 83.096C26.8074 82.943 26.5545 82.739 26.251 82.5859C26.251 82.5859 26.2004 82.5859 26.2004 82.5349C26.0992 82.4839 25.9981 82.3819 25.8969 82.3309C25.7957 82.2289 25.644 82.1268 25.5428 82.0758L25.4923 82.0248C25.4417 81.9738 25.3911 81.9738 25.3405 81.9228C25.2394 81.8208 25.0876 81.7188 24.9864 81.6677C24.9359 81.6167 24.8347 81.5657 24.7841 81.5147C24.6324 81.4127 24.4806 81.2597 24.3289 81.1576C24.2783 81.1066 24.2277 81.0556 24.1771 81.0046C24.076 80.9026 23.9242 80.8006 23.7725 80.6986C23.7219 80.6475 23.6713 80.5965 23.6207 80.5455C23.3173 80.3415 23.0644 80.0864 22.8114 79.8314C22.7609 79.7804 22.7609 79.7804 22.7103 79.7294C22.508 79.5253 22.3056 79.3213 22.1033 79.1172C22.0527 79.0662 21.9516 78.9642 21.901 78.9132C21.6987 78.7092 21.5469 78.5561 21.3446 78.3521C21.294 78.3011 21.2434 78.2501 21.1928 78.1991C20.9399 77.944 20.7376 77.689 20.4847 77.4339C20.3835 77.3319 20.2824 77.2299 20.1812 77.1278C20.1306 77.0768 20.1306 77.0768 20.0801 77.0258C19.9789 76.9238 19.8777 76.8218 19.8271 76.7198L19.726 76.6177C19.726 76.6177 19.726 76.6177 19.6754 76.5667C19.6754 76.5157 19.6248 76.5157 19.6248 76.4647C19.5742 76.4137 19.5742 76.4137 19.5742 76.3627C19.4731 76.2607 19.3719 76.1076 19.2707 76.0056C19.1696 75.9036 19.0684 75.7506 18.9673 75.6486C18.8661 75.4955 18.7144 75.3425 18.6132 75.1895C18.6132 75.1895 18.6132 75.1895 18.5626 75.1895C18.2085 74.7304 17.9051 74.3223 17.6016 73.8632L24.1266 66.3137L24.5818 65.8036L26.6051 63.5081L26.858 63.2021L27.0097 62.998L28.6283 61.1617L28.7295 61.0597L30.2975 59.2743L30.3481 59.2233L31.3091 58.1011L31.3597 58.0501L32.4219 56.8258L32.5231 56.7238L33.3324 55.8056L34.0405 54.9895L36.7719 51.8268C36.7719 51.8268 40.5149 51.9799 42.8923 49.9905C42.9934 49.9395 43.044 49.8374 43.1452 49.7354C43.2463 49.6334 43.2969 49.5824 43.3981 49.4804C43.6004 49.2763 43.7521 49.0723 43.9039 48.8172C44.0556 48.5622 44.2074 48.3071 44.3085 48.0521C44.4097 47.848 44.4603 47.695 44.5109 47.491C44.5614 47.389 44.5614 47.2869 44.612 47.2359C44.612 47.1339 44.6626 47.0829 44.6626 46.9809C44.6626 46.8789 44.7132 46.8278 44.7132 46.7258C44.7132 46.6748 44.7132 46.6238 44.7132 46.5728C44.8144 45.8076 44.7638 44.9405 44.612 43.9203C44.612 43.8693 44.612 43.8693 44.612 43.8183C44.612 43.7672 44.612 43.7672 44.5614 43.7162C44.5614 43.6652 44.5614 43.6142 44.5109 43.5632C44.5109 43.5122 44.5109 43.4612 44.4603 43.4102C44.4603 43.3081 44.4097 43.2571 44.4097 43.1551C44.3591 42.9001 44.258 42.645 44.1568 42.39C44.1062 42.2369 44.0556 42.0839 44.0051 41.9309C44.0051 41.9309 44.0051 41.9309 44.0051 41.9819C43.9545 42.0329 43.9545 42.1349 43.9039 42.1859C43.8533 42.339 43.8027 42.492 43.7521 42.645C43.7016 42.798 43.6004 43.0021 43.5498 43.1551C43.4992 43.3081 43.3981 43.5122 43.3475 43.6652C43.1452 44.1753 42.8923 44.6854 42.6899 45.1445C42.5888 45.3996 42.4876 45.6036 42.3864 45.8076C42.2853 45.9607 42.2347 46.1137 42.1841 46.2157C41.9818 46.6238 41.8806 46.8278 41.8806 46.8278L38.5423 47.848L36.9742 48.3071L33.3324 49.4294H33.2818L32.169 50.7046L30.3987 52.796L27.4649 56.3157H27.1614L20.0295 56.3667L17.8545 51.3167L17.8039 51.1637L17.7533 51.0617L21.2434 42.594L25.2899 33.0041C25.2899 33.0041 25.2899 33.0041 25.3405 33.0041L25.3911 32.9531C25.7957 32.545 28.1731 30.4026 30.7021 28.3112C30.8539 28.2092 30.9551 28.1071 31.1068 28.0051C31.1574 28.0051 31.1574 27.9541 31.208 27.9541C31.208 27.9541 31.208 27.9541 31.2585 27.9541L25.2899 26.4748C25.2899 26.4238 25.2899 26.4238 25.2899 26.3728C25.3911 26.1177 25.5428 25.8627 25.8969 25.5566C25.9475 25.5056 25.9475 25.5056 25.9981 25.4546C26.251 25.1996 26.6051 24.9445 27.0097 24.6385C27.0603 24.5874 27.1109 24.5364 27.212 24.5364C27.3638 24.4344 27.5661 24.2814 27.7684 24.1794C27.819 24.1284 27.8696 24.0773 27.9707 24.0773C28.0213 24.0263 28.0719 24.0263 28.1731 23.9753C28.2237 23.9243 28.2742 23.8733 28.3754 23.8733C28.6283 23.7203 28.9318 23.5672 29.1847 23.4142C29.2859 23.3632 29.387 23.2612 29.5388 23.2102C29.5894 23.2102 29.5894 23.1592 29.6399 23.1592C29.8423 23.0571 30.0952 22.9041 30.2975 22.8021C30.3987 22.7511 30.4998 22.7001 30.601 22.6491C30.8033 22.547 31.0056 22.445 31.1574 22.343C31.4609 22.19 31.7138 22.0879 32.0173 21.9349C31.562 21.5268 31.208 21.2718 31.208 21.2718L34.0911 12.498L36.9237 20.0475L36.9742 20.0986C37.1766 20.0475 37.3789 19.9965 37.5306 19.9455C37.5812 19.9455 37.6824 19.8945 37.733 19.8945C37.7835 19.8945 37.8847 19.8435 37.9353 19.8435C37.9859 19.8435 38.087 19.7925 38.1376 19.7925C38.2388 19.7415 38.3905 19.7415 38.4917 19.7415H38.5423H38.5928C38.7446 19.6905 38.9469 19.6905 39.0987 19.6395C39.1998 19.6395 39.301 19.5885 39.4021 19.5885C39.4527 19.5885 39.5539 19.5374 39.6045 19.5374C39.6551 19.5374 39.7056 19.5374 39.7562 19.4864C39.908 19.4354 40.0597 19.4354 40.1609 19.3844C41.476 19.1804 42.7911 19.0273 44.1062 18.9253C44.258 18.9253 44.4097 18.9253 44.5614 18.9253C44.7132 18.9253 44.8649 18.9253 45.0167 18.8743C45.2696 18.8743 45.5731 18.8743 45.826 18.8233C46.787 18.7723 47.7481 18.8233 48.7597 18.9763C49.2149 19.0273 49.7207 19.1294 50.176 19.2314C50.3783 19.2824 50.6312 19.3334 50.8335 19.3844C50.9853 19.4354 51.1876 19.4864 51.3394 19.5374C51.4405 19.5374 51.5417 19.5885 51.6428 19.6395C52.0475 19.7415 52.4016 19.8945 52.8062 19.9965C53.0085 20.0986 53.2614 20.1496 53.4638 20.2516C53.6661 20.3536 53.919 20.4046 54.1213 20.5066C54.3742 20.6087 54.6777 20.7617 54.9306 20.8637C55.0824 20.9147 55.2341 21.0167 55.3859 21.0677C55.7399 21.2208 56.0434 21.4248 56.3975 21.5778C56.7516 21.7819 57.055 21.9349 57.4091 22.139C58.0667 22.547 58.7242 22.9551 59.3312 23.4142C59.5335 23.5672 59.7359 23.6693 59.8876 23.8223C60.0394 23.9243 60.2417 24.0773 60.3934 24.2304C60.4946 24.3324 60.6463 24.4344 60.7981 24.5364C60.8992 24.6385 61.0004 24.6895 61.1016 24.7915C61.2533 24.8935 61.4051 25.0465 61.5062 25.1486C61.658 25.2506 61.7591 25.3526 61.9109 25.5056C62.3155 25.8627 62.7202 26.2198 63.0742 26.6278C63.226 26.7809 63.3271 26.8829 63.4789 27.0359C64.2882 27.8521 65.0469 28.6682 65.8056 29.5864C66.0585 29.8925 66.3114 30.1986 66.5138 30.5046C67.0196 31.1167 67.4748 31.8309 67.93 32.494C68.0312 32.698 68.183 32.8511 68.2841 33.0551C68.3853 33.2081 68.4864 33.4122 68.5876 33.5652C68.8911 34.0243 69.144 34.4834 69.3969 34.9425C70.2062 36.3708 70.9144 37.8501 71.5719 39.3804C71.6731 39.5844 71.7237 39.7885 71.8248 39.9925C71.8754 40.1455 71.9766 40.3496 72.0271 40.5026C72.3306 41.3698 72.6341 42.2369 72.887 43.1041C72.9376 43.3081 72.9882 43.5122 73.0388 43.7162C73.0893 43.9203 73.1399 44.1243 73.1905 44.3284C73.3423 44.9405 73.494 45.6036 73.6458 46.2667C73.7975 46.9299 73.8987 47.542 73.9998 48.2051C74.0504 48.6642 74.101 49.0723 74.1516 49.5314C74.2021 49.8374 74.2021 50.0925 74.2527 50.3986C74.3033 50.6536 74.3033 50.8576 74.3033 51.1127C74.3033 51.3167 74.3539 51.5718 74.3539 51.8268C74.3539 51.9289 74.3539 52.0309 74.3539 52.1329C74.3539 52.3369 74.3539 52.541 74.3539 52.694C74.3539 52.796 74.3539 52.898 74.3539 53.0001C74.7585 53.3061 74.7585 53.5612 74.7585 53.8162Z" fill="white"/>
<path d="M72.1276 69.8841C72.0264 70.1391 71.9758 70.3431 71.8746 70.5982C71.47 71.6184 71.0653 72.5876 70.6101 73.5568C70.5595 73.7098 70.4584 73.8628 70.4078 74.0159C70.3066 74.1689 70.2055 74.3729 70.1549 74.526C70.0537 74.73 69.9526 74.9341 69.8008 75.1381C69.0927 76.4133 68.2834 77.6886 67.3729 78.8108C67.2717 78.9638 67.12 79.1169 67.0188 79.2699C66.9683 79.3209 66.9177 79.3719 66.8671 79.4229C66.7659 79.525 66.6648 79.678 66.5636 79.78C66.0578 80.3411 65.552 80.9022 65.0462 81.4123C64.945 81.5144 64.7933 81.6674 64.6921 81.7694C64.5403 81.9224 64.4392 82.0245 64.2874 82.1265C64.1863 82.2285 64.0345 82.3305 63.9334 82.4325L63.8828 82.4835C63.4781 82.8406 63.0735 83.1467 62.6688 83.5037C62.2642 83.8098 61.8595 84.0649 61.4549 84.3709C61.3031 84.4729 61.1514 84.575 60.9996 84.677L60.9491 84.728C60.7973 84.83 60.6456 84.932 60.4938 84.983C60.3421 85.0851 60.1903 85.1871 60.0386 85.2381C59.8869 85.3401 59.7351 85.3911 59.5834 85.4931C59.5328 85.4931 59.5328 85.5442 59.5328 85.5442C59.4316 85.5952 59.2799 85.6972 59.1787 85.7482C59.1281 85.7992 59.027 85.7992 58.9764 85.8502C58.8752 85.9012 58.7235 85.9522 58.6223 86.0543C58.4706 86.1563 58.2683 86.2073 58.1165 86.3093C58.0153 86.3603 57.9142 86.4113 57.813 86.4623C57.7624 86.5133 57.7119 86.5133 57.6107 86.5644C57.1555 86.7684 56.2956 87.1255 55.4357 87.4825C55.0816 87.6356 54.7276 87.7376 54.4241 87.7886C54.2217 87.8396 54.1206 87.8396 53.9688 87.8906C53.7665 87.9416 53.5136 87.9926 53.2607 88.0436C53.0078 88.0947 52.8055 88.1457 52.5526 88.1967C52.3502 88.2477 52.1479 88.2477 51.9456 88.2987C51.8444 88.2987 51.7432 88.3497 51.6927 88.3497L50.5293 86.6664C58.1671 86.2583 68.334 75.8522 71.3688 68.3027L72.1276 69.8841Z" fill="#894D61"/>
<path d="M55.2846 87.4314C54.9306 87.5844 54.5765 87.6865 54.273 87.7375C54.0707 87.7885 53.9695 87.7885 53.8178 87.8395C53.6154 87.8905 53.3625 87.9415 53.1096 87.9925C52.8567 88.0435 52.6544 88.0945 52.4015 88.1456C52.1992 88.1966 51.9968 88.1966 51.7945 88.2476C51.6933 88.2476 51.5416 88.2986 51.4404 88.2986C51.3393 88.2986 51.1875 88.3496 51.0864 88.3496C50.9346 88.3496 50.7829 88.4006 50.6311 88.4006C50.4288 88.4516 50.2771 88.4516 50.0747 88.4516C49.8724 88.4516 49.7207 88.5026 49.5183 88.5026C48.8102 88.6046 48.0515 88.6557 47.2928 88.6557C47.2422 88.6557 47.141 88.6557 47.0399 88.6557C46.6352 88.6557 46.2811 88.6557 45.8765 88.6557C45.5224 88.6557 45.2189 88.6557 44.8649 88.6557C44.7637 88.6557 44.6625 88.6557 44.5614 88.6557C44.359 88.6557 44.1061 88.6557 43.9038 88.6046C43.7521 88.6046 43.6509 88.6046 43.4992 88.5536C43.2968 88.5536 43.0945 88.5026 42.8922 88.5026C42.7404 88.5026 42.6393 88.4516 42.4875 88.4516C42.2852 88.4516 42.0829 88.4006 41.9311 88.4006C41.7794 88.4006 41.6782 88.3496 41.5265 88.3496C41.3747 88.3496 41.223 88.2986 41.0712 88.2986C41.6782 88.0435 42.2346 87.7375 42.791 87.3804C50.53 88.7067 62.2143 73.3016 61.759 50.2451C61.4556 34.4829 52.5026 23.2607 37.9352 23.8728C36.5189 23.9238 33.9393 24.536 31.916 26.1173C33.484 24.587 36.2154 22.8016 38.3399 22.7506C54.3742 22.0875 65.755 34.1769 66.109 51.5203C66.4631 67.8945 61.3038 80.6981 55.2846 87.4314Z" fill="#894D61"/>
<path d="M47.5457 46.3681C47.0905 49.0206 44.9155 51.163 42.3359 51.7752C40.869 52.0812 37.9353 52.7954 37.9353 52.7954C37.9353 52.7954 20.7376 71.363 17.6016 73.8625L24.1266 66.313L24.5818 65.8029L26.6051 63.5075L26.858 63.2014L27.0097 63.0484L28.6283 61.212L28.7295 61.11L30.2975 59.3247L30.3481 59.2736L31.3091 58.1514L31.3597 58.1004L32.4219 56.8762L32.5231 56.7741L33.3324 55.856L34.0405 55.0398L36.7719 51.8772C36.7719 51.8772 40.5149 52.0302 42.8923 50.0408C42.9934 49.9898 43.044 49.8878 43.1452 49.8368C43.2463 49.7347 43.2969 49.6837 43.3981 49.5817C43.9039 49.0206 44.3085 48.4085 44.5614 47.5923C44.612 47.4903 44.612 47.4393 44.612 47.3373C44.6626 47.1842 44.6626 46.9802 44.7132 46.8272C44.7132 46.7762 44.7132 46.7252 44.7132 46.6741C44.8144 45.909 44.7638 45.0418 44.5614 44.0216C44.5614 43.9706 44.5109 43.8686 44.5109 43.8176C44.5109 43.7156 44.4603 43.6135 44.4603 43.5115C44.4603 43.4095 44.4097 43.3585 44.4097 43.2565C44.3085 42.8484 44.1568 42.4403 44.0051 41.9812C44.0556 41.8282 44.0051 41.9302 44.0051 42.0322C43.9039 42.3383 43.7521 42.6443 43.6004 43.0014C43.3475 43.6645 42.9934 44.3277 42.7405 44.9398C42.2853 45.909 41.8806 46.6741 41.8806 46.6741L38.5423 47.6943L36.9742 48.1534L33.3324 49.2757H33.2818L32.169 50.5509L30.3987 52.6423L27.4649 56.162H27.1614C28.7295 52.9484 31.8149 46.4701 31.8149 46.4701L40.6161 43.5625L43.9545 38.7676C44.0051 38.8186 47.9504 43.7156 47.5457 46.3681Z" fill="#894D61"/>
<path d="M35.5577 23.7713C35.1025 24.1794 34.5967 24.6385 33.9897 24.6895C33.5345 24.6895 32.3711 23.7713 31.9665 23.5672C31.4606 23.2612 30.9043 22.9551 30.3984 22.598C30.8537 22.343 31.3595 22.139 31.8653 21.9349C31.4101 21.5268 31.056 21.2718 31.056 21.2718L33.9391 12.498V12.5491C33.6862 13.6203 32.8263 17.344 32.624 18.3132C32.5229 18.8233 32.4723 19.3334 32.5229 19.8435C32.5734 20.5576 32.9275 21.1698 33.3322 21.7309C33.7874 22.19 35.0013 23.3122 35.5577 23.7713Z" fill="#894D61"/>
<path d="M35.5584 27.2916L31.9671 28.7199L25.4421 34.1269C25.4421 34.1269 20.6874 45.4002 17.7537 51.0623L17.7031 50.9603L21.2438 42.5946L25.2903 33.0047C25.2903 33.0047 27.87 30.6072 30.7025 28.3118C30.8543 28.2098 30.9555 28.1077 31.1072 28.0057C34.2938 26.5264 35.5584 27.2916 35.5584 27.2916Z" fill="#894D61"/>
<path d="M31.1581 27.9031L25.1895 26.4238C25.7458 26.3218 26.3528 26.2708 26.9092 26.2197C28.3761 26.1177 33.4848 27.1889 33.4848 27.1889L31.1581 27.9031Z" fill="#894D61"/>
<path opacity="0.44" d="M42.3365 41.2681C42.033 40.9621 41.7295 40.656 41.4766 40.452C40.3132 39.5848 38.8969 38.9727 37.2277 38.6156C34.1423 37.9525 30.8545 38.3096 27.9713 39.6358C25.5434 40.758 23.4696 42.5434 21.9522 44.7368L21.5475 43.3596V43.3086C21.5475 43.3086 21.5981 43.2575 21.6993 43.1555C21.8004 43.0535 21.9522 42.8495 22.1545 42.6454C22.2557 42.5434 22.4074 42.3904 22.5086 42.2373C22.5591 42.1863 22.6097 42.0843 22.6603 42.0333C22.8626 41.8293 23.065 41.5742 23.2673 41.3192C23.3684 41.2171 23.4696 41.0641 23.5708 40.9621C23.6213 40.9111 23.6719 40.8091 23.7731 40.758C24.4812 39.9419 25.2905 38.9727 25.9987 38.1565C26.0998 38.0545 26.1504 37.9525 26.201 37.9015C26.3022 37.7995 26.3527 37.6974 26.4539 37.5954C26.6562 37.3404 26.9091 37.0853 27.0609 36.8813C27.0609 36.8813 27.1115 36.8813 27.1115 36.8303C27.162 36.8303 27.2126 36.8303 27.2126 36.8303C27.8702 36.8813 28.8818 36.5242 29.2359 36.3712C29.337 36.3202 29.3876 36.3202 29.3876 36.3202L29.4888 35.9631L29.59 35.555L29.6911 35.1979L30.0452 34.0757L30.1969 33.5146L30.2981 33.2086L30.3487 33.0555C30.3993 33.0045 30.4498 33.0045 30.5004 32.9535C30.7533 32.8005 31.0062 32.6474 31.2086 32.4944C31.2591 32.4944 31.2591 32.4434 31.3097 32.4434C31.512 32.3414 31.6638 32.1883 31.8661 32.0863C31.9167 32.0863 31.9167 32.0863 31.9167 32.0353C32.2708 31.8313 32.5743 31.5762 32.8777 31.3722C33.2824 31.0661 33.687 30.7601 34.0411 30.352C34.2434 30.1479 34.4458 29.9439 34.6481 29.6889C34.9516 29.2808 35.2551 28.8217 35.4574 28.3626C35.6597 27.8525 35.8115 27.3424 35.8115 26.8323C35.8115 26.3732 35.6597 25.9141 35.4068 25.506C35.3057 25.353 35.2045 25.251 35.1033 25.0979C35.0527 25.0469 35.0022 24.9959 34.9516 24.9449C34.901 24.8939 34.901 24.8939 34.8504 24.8429C34.7998 24.7919 34.7493 24.7409 34.6987 24.6899C34.6987 24.6899 34.6987 24.6899 34.6481 24.6389C34.5975 24.5878 34.5469 24.4858 34.4458 24.4348C34.294 24.2818 34.1423 24.1288 33.94 23.9247C33.7376 23.7207 33.5353 23.5166 33.333 23.3636C32.7766 22.8535 32.2708 22.3434 31.8661 21.9863C31.5626 22.1394 31.2591 22.2414 31.0062 22.3944C30.8039 22.4964 30.6016 22.5985 30.4498 22.7005C30.3487 22.7515 30.2475 22.8025 30.1463 22.8535C31.0062 23.4146 32.2708 24.6899 32.9789 25.506C33.0295 25.557 33.0801 25.608 33.1307 25.6591C33.4341 25.9651 33.5859 26.1692 33.5859 26.1692C33.94 26.5772 34.1423 26.8833 34.1929 27.2404C34.2434 27.3934 34.1929 27.5974 34.1929 27.8525C34.1929 27.9035 34.1929 27.9545 34.1423 28.0055C34.0917 28.3116 33.9905 28.5666 33.8894 28.8217C33.687 29.3318 33.333 29.7909 32.9789 30.199C32.6248 30.607 32.2708 30.9641 31.8661 31.3212C31.4109 31.7293 30.9557 32.1373 30.4498 32.5454C30.1969 32.6474 28.8818 33.2596 27.8702 34.2798C27.6173 34.5348 27.415 34.7899 27.2126 35.0449C27.1115 35.1979 27.0103 35.402 26.9091 35.555C26.8586 35.606 26.8586 35.708 26.808 35.7591V35.8101C26.7574 35.8611 26.7574 35.9121 26.7068 35.9631C26.3527 36.4732 25.9987 36.9833 25.6446 37.4424C25.5434 37.5444 25.4929 37.6464 25.3917 37.7995C25.2905 37.9015 25.1894 38.0545 25.0882 38.1565C25.0882 38.1565 25.0882 38.1565 25.0376 38.2075C24.8859 38.4116 24.7847 38.5646 24.633 38.7687C24.633 38.7687 24.633 38.8197 24.5824 38.8197C24.4812 38.9217 24.4307 39.0237 24.3801 39.1257C24.3295 39.1767 24.2789 39.2277 24.2789 39.2788C23.9248 39.7378 23.5708 40.1969 23.2167 40.707C23.065 40.9111 22.9132 41.1151 22.7615 41.3192C22.5591 41.6252 22.3062 41.9313 22.1039 42.2373C21.9016 42.5434 21.6487 42.8495 21.4463 43.1555L21.244 42.5944L17.7539 51.0111L17.8045 51.1131L20.0301 56.3161L27.162 56.2651H27.4655L30.3993 52.7454L29.0841 52.2353L24.026 50.2969C24.9365 48.7156 26.8586 47.7464 28.6289 48.0015C29.3876 48.1035 30.0452 48.4096 30.6522 48.8687C31.2591 49.3277 31.765 49.9399 32.119 50.654L33.2318 49.3788H33.2824C32.7766 48.6136 32.1696 47.8995 31.3603 47.3894C30.551 46.8793 29.7417 46.5222 28.8312 46.4202C26.6562 46.1141 24.3801 47.0833 23.065 48.8176L23.0144 48.7156C24.1777 47.1853 25.9987 45.2979 28.4266 44.4818C30.7533 43.7166 33.2824 44.0737 34.9516 45.502C35.0022 45.553 35.0527 45.553 35.0527 45.604C35.862 46.3181 36.4184 47.2363 36.8737 48.2565L38.4417 47.7974C37.9865 46.7772 37.4301 45.808 36.6713 44.9409C36.5196 44.7368 36.3173 44.5838 36.115 44.3798C34.0411 42.4924 30.8039 41.9313 27.8702 42.9005C25.8975 43.5636 24.026 44.8899 22.4074 46.7772C23.7731 44.3288 25.9481 42.2883 28.4772 41.1151C31.0568 39.9419 33.94 39.5848 36.7219 40.1969C38.1888 40.503 39.4027 41.0131 40.3638 41.7272C40.6673 41.9313 40.9708 42.2373 41.2743 42.6454C41.8307 43.3596 42.387 44.2267 42.64 44.9919C42.8423 44.5328 43.0952 44.0227 43.2975 43.5126C43.3481 43.3596 43.4493 43.2065 43.4998 43.0025C43.2469 42.3904 42.7917 41.7782 42.3365 41.2681Z" fill="#8C1539"/>
<path d="M42.3365 41.2686C42.033 40.9625 41.7295 40.6565 41.4766 40.4524C40.3132 39.5853 38.8969 38.9731 37.2277 38.6161C34.1423 37.9529 30.8545 38.31 27.9713 39.6363C25.5434 40.7585 23.4696 42.5438 21.9522 44.7373L21.5475 43.36V43.309L21.4969 43.258L21.4463 43.105L21.244 42.5949L17.7539 51.0115L17.8045 51.1135L20.0301 56.3166L27.162 56.2656H27.4655L30.3993 52.7459L29.0841 52.2358L24.026 50.2974C24.9365 48.7161 26.8586 47.7469 28.6289 48.0019C29.3876 48.1039 30.0452 48.41 30.6522 48.8691C31.2591 49.3282 31.765 49.9403 32.119 50.6545L33.2318 49.3792H33.2824C32.7766 48.614 32.1696 47.8999 31.3603 47.3898C30.551 46.8797 29.7417 46.5226 28.8312 46.4206C26.6562 46.1146 24.3801 47.0837 23.065 48.8181L23.0144 48.7161C24.1777 47.1858 25.9987 45.2984 28.4266 44.4822C30.7533 43.7171 33.2824 44.0741 34.9516 45.5024C35.0022 45.5534 35.0527 45.5534 35.0527 45.6045C35.862 46.3186 36.4184 47.2368 36.8737 48.257L38.4417 47.7979C37.9865 46.7777 37.4301 45.8085 36.6713 44.9413C36.5196 44.7373 36.3173 44.5842 36.115 44.3802C34.0411 42.4928 30.8039 41.9317 27.8702 42.9009C25.8975 43.564 24.026 44.8903 22.4074 46.7777C23.7731 44.3292 25.9481 42.2888 28.4772 41.1156C31.0568 39.9423 33.94 39.5853 36.7219 40.1974C38.1888 40.5034 39.4027 41.0135 40.3638 41.7277C40.6673 41.9317 40.9708 42.2378 41.2743 42.6459C41.8307 43.36 42.387 44.2272 42.64 44.9923C42.8423 44.5332 43.0952 44.0231 43.2975 43.513C43.3481 43.36 43.4493 43.207 43.4998 43.0029C43.2469 42.3908 42.7917 41.7787 42.3365 41.2686Z" fill="#8C1539"/>
<path opacity="0.44" d="M44.5613 41.4204C44.6119 41.9305 44.5613 42.4917 44.4602 43.0018C44.4096 42.7467 44.3084 42.4917 44.2578 42.2366C44.2073 42.0836 44.1567 41.9305 44.1061 41.7265C44.1061 41.7265 44.1061 41.7265 44.1061 41.7775C44.1061 41.8285 44.1061 41.8285 44.0555 41.8795C44.0555 41.9305 44.0049 41.9816 44.0049 42.0326C43.8532 41.2674 43.6003 40.5533 43.2968 39.8391C43.1956 39.6351 43.0945 39.431 42.9933 39.227C42.9427 39.074 42.8416 38.972 42.791 38.8189C42.3863 38.0538 41.8805 37.3396 41.3241 36.7275C41.1724 36.5235 40.97 36.3704 40.8183 36.1664C39.9078 35.2992 38.8962 34.5341 37.7328 33.973C37.1259 33.6669 36.5189 33.4629 35.9119 33.2588C35.9119 33.2588 35.9119 33.2588 35.8613 33.2588L35.9119 33.2078L36.5189 32.3917C36.5189 32.3917 36.5695 32.3406 36.5695 32.2896C37.0753 31.5755 37.3788 30.7083 37.5811 29.7901C37.5811 29.7391 37.5811 29.7391 37.5811 29.6881C37.6317 29.4331 37.6823 29.178 37.7328 28.923C37.834 28.3619 37.8846 27.7497 37.9352 27.1886C37.9857 26.7295 37.9857 26.2704 38.0363 25.7603C38.0363 25.1992 38.0869 24.5871 38.0869 23.975C38.0869 23.6179 38.0869 23.2098 38.0869 22.8528V22.6997L37.7328 21.8836L37.4799 21.4245L36.9741 20.0982C37.227 20.0472 37.4799 19.9452 37.7328 19.8942C37.834 19.8942 37.8846 19.8432 37.9857 19.8432C38.0363 19.8432 38.1375 19.7922 38.1881 19.7922C38.2892 19.7411 38.441 19.7412 38.5421 19.7412H38.5927H38.6433C38.795 19.6901 38.9974 19.6901 39.1491 19.6391C39.2503 19.6391 39.3514 19.5881 39.4526 19.5881C39.5032 19.5881 39.6044 19.5371 39.6549 19.5371C39.6549 19.5881 39.6044 19.6901 39.6044 19.7412C39.5032 20.1492 39.3514 20.5063 39.1997 20.9144C38.8962 21.6795 38.5927 22.3937 38.3398 22.8528C38.3904 23.0058 38.3904 23.1588 38.441 23.3119C38.4916 23.5159 38.5421 23.7709 38.5927 23.975C38.6433 24.281 38.6939 24.6381 38.7445 24.9442C38.8456 25.4543 38.8962 25.9644 38.9468 26.4745C38.9974 27.3927 38.9974 28.3619 38.9468 29.28C38.8962 29.5861 38.8962 29.8922 38.8456 30.1982C38.795 30.5553 38.7445 30.8614 38.6433 31.2184C38.5421 31.5245 38.441 31.8816 38.2892 32.1876C38.2892 32.2386 38.2387 32.2896 38.2387 32.3406C38.2892 32.3406 38.3398 32.3917 38.3904 32.3917C38.6433 32.4937 38.9468 32.6467 39.1997 32.7997C39.9584 33.2078 40.616 33.7179 41.223 34.279C41.5264 34.5341 41.7793 34.8401 42.0323 35.1462C42.184 35.2992 42.3357 35.5033 42.4369 35.6563C42.6392 35.9624 42.8921 36.2684 43.0945 36.6255C43.3474 37.0336 43.5497 37.4417 43.752 37.8497C43.9038 38.2068 44.0555 38.5639 44.1567 38.9209C44.2073 39.074 44.2578 39.278 44.3084 39.431C44.4602 40.1452 44.5107 40.8083 44.5613 41.4204Z" fill="#8C1539"/>
<path d="M36.9241 86.6668C35.3055 84.6774 34.4962 82.2289 34.0409 79.6274C33.4339 76.0057 33.6868 72.2819 33.6363 68.5582C33.6363 64.5794 33.1305 60.6006 28.6793 61.0597L28.5781 61.1617C37.3287 61.0087 28.5275 75.8016 33.3834 86.4117C33.3834 86.4117 33.3834 86.4117 33.4339 86.4117C33.4845 86.4117 33.5351 86.4627 33.5857 86.4627C33.6868 86.5137 33.8386 86.5647 33.9398 86.6158C34.0409 86.6668 34.1421 86.6668 34.1927 86.7178C34.2938 86.7688 34.3444 86.7688 34.4456 86.8198C34.4961 86.8198 34.5467 86.8708 34.5467 86.8708C34.6985 86.9218 34.7996 86.9728 34.9514 87.0238C35.2043 87.1259 35.4572 87.1769 35.7101 87.2789C35.7607 87.2789 35.8618 87.3299 35.9124 87.3299C36.0642 87.3809 36.2665 87.4319 36.4182 87.4829C36.7217 87.5849 37.0252 87.636 37.3287 87.738H37.3793C37.5816 87.789 37.7839 87.84 38.0368 87.891C37.6828 87.4829 37.3287 87.0748 36.9241 86.6668Z" fill="#8C1539"/>
<path d="M26.8585 63.2012L26.6056 63.5072C29.944 66.0577 25.3411 72.8421 23.6719 80.5446C23.7225 80.5956 23.773 80.6466 23.8236 80.6976C23.9248 80.7997 24.0765 80.9017 24.1777 81.0037C24.2283 81.0547 24.2789 81.1057 24.3294 81.1567C24.4812 81.2588 24.6329 81.4118 24.7847 81.5138C24.8352 81.5648 24.9364 81.6158 24.987 81.6668C25.0882 81.7689 25.2399 81.8709 25.3411 81.9729C25.3916 82.0239 25.4422 82.0239 25.4928 82.0749L25.5434 82.1259C25.6445 82.2279 25.7963 82.33 25.8975 82.381C25.9986 82.432 26.0998 82.534 26.2009 82.585C26.2009 82.585 26.2515 82.585 26.2515 82.636C26.4539 74.5764 31.1579 65.6497 26.8585 63.2012Z" fill="#8C1539"/>
<path d="M24.5817 65.8027L24.1265 66.3128C24.9358 68.8123 21.9515 71.6179 18.5625 75.1886C18.5625 75.1886 18.5625 75.1886 18.5625 75.2396C18.6637 75.3926 18.8154 75.5457 18.9166 75.6987C19.1189 75.9537 19.2706 76.1578 19.473 76.4128C19.5235 76.4638 19.5741 76.5149 19.6247 76.5659C19.6247 76.5659 19.6247 76.6169 19.6753 76.6169C19.7259 76.6679 19.7259 76.7189 19.7765 76.7189C19.8776 76.8209 19.9788 76.9229 20.0294 77.025C20.0799 77.076 20.0799 77.076 20.1305 77.127C20.2317 77.229 20.3328 77.331 20.434 77.433C23.5701 72.6891 26.6049 68.6593 24.5817 65.8027Z" fill="#8C1539"/>
<path d="M44.512 40.6044C44.6131 40.8595 44.5626 41.4716 44.512 41.6756C44.4614 41.8797 44.4614 42.4408 44.2591 42.2367C44.2085 42.0837 44.1579 41.9307 44.1073 41.7776C44.1073 41.7776 44.1073 41.7776 44.1073 41.8287C44.0567 41.4206 44.1579 40.9105 44.2591 40.6044C44.1579 40.6044 43.9556 40.8085 43.905 40.6044C43.8544 40.4004 44.0062 40.1963 43.9556 39.9923C43.905 39.7883 44.0567 39.5332 44.2591 39.7372C44.3602 39.6862 44.2591 39.5332 44.4108 39.5332C44.5626 39.5332 44.6637 39.6862 44.7143 39.8903C44.7649 40.0433 44.8661 40.2984 44.8661 40.5024C44.8155 40.6044 44.6637 40.5534 44.512 40.6044Z" fill="#8C1539"/>
<path d="M43.1469 37.1866C43.4504 37.4417 43.7033 37.8498 43.9057 38.2068C44.108 38.5639 44.0574 38.921 44.462 39.074C44.8161 39.176 44.5126 38.5129 44.3609 38.3599C44.2091 38.2068 44.0068 38.0028 43.9562 37.7477C43.9057 37.4927 43.8045 37.3397 43.5516 37.1356C43.3493 36.9316 43.1469 36.7785 42.894 36.4725C42.6411 36.1664 42.3376 35.8094 41.8824 35.8604C41.4272 35.9114 41.4272 36.4215 41.6295 36.7275C41.8318 37.0336 42.0341 37.1356 42.1859 37.4417C42.287 37.6967 42.4388 38.0028 42.5905 38.2068C42.7423 38.4109 42.8434 38.3089 42.9446 38.5639C43.0963 38.7679 43.1469 39.3801 43.501 39.3801C43.8551 39.4311 43.7033 39.023 43.4504 38.7679C43.1975 38.5129 42.6917 37.9518 42.54 37.5437C42.7423 37.7477 43.0458 38.2068 43.2481 38.3599C43.4504 38.5129 43.6022 38.972 43.8045 38.5639C44.0068 38.2068 43.4504 37.4927 43.1469 37.1866Z" fill="#8C1539"/>
<path d="M44.3101 38.0024C44.5125 38.2064 44.8665 38.7166 45.2712 38.6655C45.6758 38.5635 45.2206 38.0534 44.9677 38.0024C44.7148 37.9514 44.4619 38.0024 44.209 37.9004C44.3101 38.0024 44.1078 37.8494 44.3101 38.0024Z" fill="#8C1539"/>
<path d="M42.8423 38.8695C42.9435 39.1246 43.1458 39.5837 42.8423 39.8387C42.5388 40.0938 42.3871 39.6857 42.4882 39.4307C42.5894 39.1756 42.7917 39.0226 42.7917 38.7675C42.8423 38.8695 42.7411 38.6145 42.8423 38.8695Z" fill="#8C1539"/>
<path d="M41.4766 35.5542C42.0835 35.6563 42.1847 35.4522 42.7411 36.0133C43.2975 36.5744 44.1068 37.5947 45.0173 37.7987C44.9667 37.6967 44.8655 37.5436 44.8149 37.4416C44.9667 37.4926 45.3207 37.5436 45.3207 37.3396C45.3713 37.1356 45.0173 37.0845 45.0678 36.8295C45.1184 36.6255 45.3207 36.4724 45.1184 36.3194C45.0173 36.2174 44.9667 36.3194 44.8149 36.1154C44.6126 35.9113 44.5114 35.4012 44.0562 35.5032C43.5504 35.5542 43.8033 36.2684 44.1574 36.5234C44.2585 36.6255 44.562 36.6765 44.4609 36.4724C44.3597 36.3194 43.9045 36.1664 44.1068 35.8603C44.3597 35.6053 44.7644 36.1154 44.8149 36.4214C44.8655 36.7275 44.7644 37.1866 44.2585 36.9315C43.7527 36.6765 43.3481 36.1154 42.8928 35.7073C42.4376 35.2992 41.9318 34.9931 41.4766 35.5542Z" fill="#8C1539"/>
<path d="M40.4141 37.7485C40.7681 37.3404 41.1222 37.5954 41.3751 38.0035C41.4763 38.1055 41.2739 38.3606 41.1728 38.2076C41.0716 38.0545 41.1222 37.7485 40.8187 37.8505C40.5152 37.9525 40.7176 38.3606 40.9705 38.4626C41.2234 38.5646 41.7292 38.6667 41.7292 38.2076C41.7292 37.7485 41.3751 37.3914 41.0716 36.9833C40.7681 36.5752 40.6164 36.1672 41.2234 35.9121C41.1728 36.4222 41.1222 36.4732 41.4763 36.9833C41.8303 37.4934 42.5385 38.4116 41.9821 39.1257C41.9821 39.0237 41.9315 38.9217 41.8303 38.8707C41.7292 39.0237 41.5269 39.2278 41.3751 39.2278C41.2234 39.1768 41.3751 38.9217 41.1728 38.8707C40.9705 38.8707 40.7681 38.9727 40.667 38.7687C40.7681 38.7687 40.7681 38.6156 40.7681 38.5646C40.7681 38.5136 40.667 38.4626 40.667 38.4116C40.667 38.3606 40.667 38.4116 40.667 38.4116C40.667 38.3096 40.5152 38.0545 40.4646 38.0035C40.4141 37.9525 40.4141 37.7995 40.4141 37.7485Z" fill="#8C1539"/>
<path d="M37.5821 29.6875C37.0762 30.6567 36.5704 31.2178 36.5198 32.442C36.4693 33.6663 39.0995 34.6865 39.757 35.2986C40.4652 35.9107 40.2629 36.0128 39.8582 36.4208C39.6559 36.6249 39.2512 36.4208 38.9983 36.3188C38.7454 36.2678 38.6948 36.0128 38.4925 35.9107C38.6948 35.6557 38.9983 35.7577 38.5937 35.3496C37.9361 34.6355 36.7727 34.1254 35.9634 33.4622C35.9129 33.4112 35.9129 33.5643 35.8623 33.3092C35.8117 33.0542 35.8117 32.085 35.9634 31.7279C36.3681 30.8097 36.8739 30.2486 37.5821 29.6875Z" fill="#8C1539"/>
<path d="M41.3242 32.5961C41.4759 33.1062 42.2852 33.2593 41.8806 33.9734C41.4759 34.6875 40.3125 34.3815 39.5538 33.4633C38.7951 32.5451 38.2893 30.8108 38.6939 29.3315C39.0986 29.3315 39.0986 29.1274 39.2503 29.7396C39.4021 30.3517 39.4526 31.6269 39.8067 32.3411C40.1608 33.0552 41.1724 33.6163 41.3242 32.5961Z" fill="#8C1539"/>
<path d="M40.2627 34.841C39.7064 34.0248 38.9982 34.0248 38.543 32.9026C38.0877 31.7804 37.7843 31.2192 38.3912 29.2299C38.4924 28.8218 37.6831 23.9248 38.543 23.1597C38.5936 23.1086 38.6441 22.7516 38.9476 22.5475C39.2511 22.3435 39.4534 21.0682 39.0994 20.6602C38.7959 21.1703 38.2901 21.2213 38.1383 21.9354C37.9866 22.6495 38.0877 22.4965 38.0372 23.6698C37.9866 24.843 39.0488 27.6995 38.3407 28.9748C37.6325 30.3011 37.6831 29.6889 37.1267 31.2192C36.6715 32.8006 38.3912 34.4839 40.2627 34.841Z" fill="#8C1539"/>
<path d="M36.873 29.5862C37.3283 29.0251 38.7446 28.413 38.5928 27.4948C38.4411 26.6276 37.7329 25.7604 37.6823 24.7402C37.1765 25.2503 36.8225 24.5362 37.126 25.7604C37.4294 27.0357 37.7835 28.2089 36.873 29.5862Z" fill="#8C1539"/>
<path d="M39.3023 28.9751C39.5552 28.1589 39.7069 27.2408 39.7069 26.4246C39.7069 25.6084 39.4035 25.2514 38.6953 24.9453C38.7965 25.6084 38.8471 26.0675 38.9988 26.7307C39.1505 27.3428 39.0494 28.261 39.3023 28.9751Z" fill="#8C1539"/>
<path d="M36.2677 23.3633C36.6218 23.4653 36.9252 23.5673 37.2793 23.6693C37.0264 23.8734 36.6723 24.0774 36.3689 24.2305C36.3183 23.9754 36.2171 23.7204 36.2677 23.3633Z" fill="#8C1539"/>
<path d="M38.998 24.0781C40.2626 24.1801 41.173 23.9251 42.1847 23.2109C42.1341 23.415 42.0835 23.568 41.9823 23.772C42.1847 23.772 42.3364 23.772 42.5387 23.8741C42.3364 23.9761 42.0835 24.1801 41.9318 24.3332C41.7294 24.4352 41.9824 24.4862 41.9318 24.4862C40.7178 25.1493 40.0603 24.8433 38.998 24.0781Z" fill="#8C1539"/>
<path d="M38.7461 23.007C39.3025 23.16 39.8083 23.313 40.3647 23.109C40.9211 22.905 41.1234 22.4459 41.0728 21.8848C40.6682 21.9358 40.4659 22.0888 40.213 22.4459C39.96 22.3949 39.9095 21.7317 39.5554 22.0378C39.2519 22.2928 39.3025 22.905 38.7461 23.007Z" fill="#8C1539"/>
<path d="M36.975 21.4257C36.975 21.3747 36.975 21.5787 37.0255 21.5787C37.329 21.4767 37.5819 21.3747 37.8854 21.4257C37.5819 21.9358 37.5819 22.2928 37.8348 22.803C37.4808 23.109 36.8232 22.803 36.6715 22.5479C36.5197 22.2928 36.5703 22.4459 36.6209 22.4459C36.6715 22.0888 36.8232 21.7317 36.975 21.4257Z" fill="#8C1539"/>
<path d="M39.5039 21.5776C39.7568 21.2205 39.858 20.8634 40.2626 20.7104C40.6673 20.5574 40.9202 20.7614 41.0213 21.2205C40.7684 21.2205 40.7684 21.1185 40.5155 21.2715C40.2626 21.3735 39.9086 21.6796 39.5039 21.5776Z" fill="#8C1539"/>
<path d="M39.504 21.0683C39.8075 20.6602 40.1615 20.3032 40.6168 20.0481C40.3639 19.8441 40.2121 19.6911 39.858 19.9461C39.504 20.2012 39.4028 20.6602 39.504 21.0683Z" fill="#8C1539"/>
<path d="M39.8578 19.4863C39.8072 19.5883 39.706 19.6394 39.6555 19.7414C39.6049 19.7924 39.5037 19.8434 39.4531 19.8944C39.4531 19.7924 39.5037 19.6904 39.5037 19.5883C39.5543 19.5883 39.6555 19.5373 39.706 19.5373C39.7566 19.4863 39.8072 19.4863 39.8578 19.4863Z" fill="#8C1539"/>
<path d="M39.2007 19.5879C39.2007 19.945 38.8972 20.302 38.5938 20.4551C38.5938 20.251 38.6443 19.945 38.5938 19.6899H38.6443C38.8467 19.6899 38.9984 19.6389 39.2007 19.5879Z" fill="#8C1539"/>
<path d="M38.2396 20.3033C38.189 20.5583 38.1384 20.8134 38.1384 21.0684C37.8349 21.0174 37.7338 20.9154 37.6832 20.5583C37.6832 20.4563 37.582 20.3033 37.582 20.1503C37.582 20.0482 37.6832 19.9462 37.7338 19.8442C37.7844 19.8442 37.8855 19.7932 37.9361 19.7932C37.9867 19.7932 38.0878 19.7422 38.1384 19.7422C38.2902 19.9462 38.2396 20.0993 38.2396 20.3033Z" fill="#8C1539"/>
<path d="M42.1345 32.4425C41.5781 31.7794 41.5275 31.2183 41.9322 30.4531C41.4769 30.5041 41.0723 30.6572 41.0723 31.2183C41.1228 31.8304 41.6287 32.1875 42.1345 32.4425Z" fill="#8C1539"/>
<path d="M43.0951 31.4218C42.8928 30.9627 43.0951 30.5036 42.387 30.6566C41.6788 30.8096 41.8306 31.8298 42.3364 32.2379C42.8422 32.646 43.2468 32.9521 43.9044 32.697C44.0561 32.9011 44.1573 33.1051 44.2585 33.3601C44.7643 33.0541 44.562 32.544 44.4102 32.0339C44.6125 32.1359 44.8654 32.2379 45.0172 32.442C45.1184 31.7278 44.8149 31.3197 44.3596 30.8096C44.5114 30.7586 44.6631 30.7586 44.8654 30.7076C44.4102 30.0955 44.2585 29.8405 43.4997 29.5854C42.741 29.3303 41.4259 29.7384 40.8695 28.8713C40.3131 28.0041 40.6166 26.5758 41.2742 25.7596C41.3247 25.6576 41.4259 25.5046 41.4259 25.3516C41.1224 25.8617 40.7684 25.8107 40.6166 26.5248C40.4649 27.2899 40.0602 28.2591 40.6166 29.1263C41.173 29.9935 43.0445 29.9935 43.7021 31.0137C44.3596 32.0339 43.2468 32.697 42.5387 31.5238C42.3364 31.2687 42.8422 31.0137 43.0951 31.4218Z" fill="#8C1539"/>
<path d="M40.7695 26.7812C41.5283 27.8015 42.5399 27.6994 43.6527 27.3934C43.5009 27.6484 43.3998 27.8525 43.1469 28.0055C43.3492 28.1075 43.5009 28.2095 43.7033 28.2605C43.3998 28.5156 43.0457 28.6176 42.641 28.6686C42.6916 28.7196 42.7928 28.7706 42.894 28.7706C41.3259 28.9237 40.9213 28.3116 40.7695 26.7812Z" fill="#8C1539"/>
<path d="M22.6099 42.1858C22.5593 42.1348 22.2558 42.1348 22.357 42.0328C22.4581 41.9308 22.7616 41.8287 22.8628 41.6757C22.9639 41.5227 23.318 41.3696 23.2169 41.6247C23.2674 41.6247 23.318 41.5227 23.4192 41.5737C23.5203 41.6247 23.4698 41.8287 23.3686 41.9308C23.2674 42.0328 23.1663 42.2878 23.0651 42.3898C22.9639 42.4919 22.7616 42.4409 22.711 42.3388C22.5593 42.5429 22.0029 42.951 21.9017 43.002C21.8006 43.053 21.2948 43.4611 21.3453 43.155C21.4465 42.8489 22.3064 42.3388 22.6099 42.1858Z" fill="#8C1539"/>
<path d="M24.9867 39.2258C24.7844 39.5318 24.3292 39.9909 24.1774 40.297C23.9751 40.6541 23.7222 40.9601 23.7728 41.3172C23.8234 41.6743 24.228 40.8071 24.2786 40.603C24.3292 40.399 24.3798 40.0419 24.5821 39.9399C24.7844 39.8379 25.0373 39.6339 25.1385 39.3788C25.2396 39.1237 25.3914 38.9197 25.5937 38.7157C25.796 38.5116 26.0489 38.0015 25.8972 37.6955C25.7455 37.3894 25.1891 38.0015 25.0373 38.2056C24.8856 38.4096 24.7338 38.7157 24.5315 38.9197C24.3292 39.1238 23.9751 39.5318 23.874 39.7359C23.7728 39.9399 23.8234 39.9399 23.6716 40.144C23.5199 40.348 23.0646 40.9091 23.1152 41.1131C23.1658 41.3172 23.4693 40.9091 23.5705 40.603C23.6716 40.297 24.1269 39.4298 24.4809 39.1237C24.3292 39.3278 23.8739 39.9909 23.8234 40.144C23.7728 40.297 23.5199 40.7561 23.8234 40.603C24.0763 40.501 24.6833 39.5318 24.9867 39.2258Z" fill="#8C1539"/>
<path d="M24.5328 40.2468C24.4823 40.3998 24.3305 41.267 24.5834 41.42C24.8869 41.6241 25.1398 41.0119 24.9881 40.7059C24.8363 40.4508 24.634 40.6039 24.5328 40.0938C24.4823 40.2468 24.5328 40.0938 24.5328 40.2468Z" fill="#8C1539"/>
<path d="M23.3693 40.3989C23.2682 40.6029 22.8635 41.164 22.4589 41.2151C22.1048 41.2661 22.56 40.807 22.7624 40.705C22.9647 40.6029 23.2176 40.5519 23.4199 40.2969C23.3693 40.3989 23.5211 40.1949 23.3693 40.3989Z" fill="#8C1539"/>
<path d="M25.9986 37.2873C26.2009 37.4403 26.2009 37.8484 26.0492 38.2055C25.8974 38.5625 24.734 40.1438 25.2399 40.6539C25.2904 40.6029 25.341 40.2969 25.4928 40.3479C25.6445 40.3989 25.6951 40.756 25.948 40.705C26.0492 40.6029 26.0492 40.2969 26.2515 40.2459C26.4538 40.1948 26.7067 40.2969 26.8079 40.0418C26.7067 39.9398 26.7067 39.9908 26.7573 39.7868C26.8585 39.5827 27.2125 39.3277 27.0608 38.9196C26.8585 38.5115 26.2009 39.0726 26.0997 39.4297C26.0492 39.5827 26.0997 39.8378 26.3021 39.6337C26.3526 39.3787 26.3526 39.1746 26.6561 39.0726C27.0102 38.9706 26.7067 39.6337 26.5044 39.8378C26.3021 40.0418 25.6445 40.3479 25.6951 39.7868C25.7457 39.2257 26.2009 38.7156 26.3526 38.3075C26.4538 37.7464 26.4538 36.8792 25.9986 37.2873Z" fill="#8C1539"/>
<path d="M23.5706 38.3087C24.1776 38.0536 23.9753 38.7168 23.7729 39.0228C23.7224 39.1248 23.4695 39.3289 23.4695 39.0738C23.6212 38.9718 23.8741 38.7678 23.7224 38.5637C23.5706 38.3597 23.2166 38.8188 23.166 39.1248C23.1154 39.4309 23.2671 39.737 23.6718 39.3799C24.0259 39.0738 24.4305 38.4617 24.6328 38.1046C24.8352 37.7476 25.341 37.1354 25.6445 37.3395C25.2398 37.4925 25.1892 37.7476 24.8352 38.1557C24.4811 38.5637 23.6212 39.992 22.9131 40.145C22.9131 40.094 23.166 39.941 23.1154 39.89C23.0648 39.839 22.7613 40.094 22.6602 39.941C22.7107 39.839 23.0142 39.686 22.9636 39.5329C22.9131 39.3799 22.6096 39.3799 22.8119 39.1248C22.9131 39.1759 22.9636 39.0738 23.0648 39.0228C23.0648 39.0228 23.1154 38.8698 23.166 38.8698C23.2671 38.7678 23.3683 38.5127 23.4695 38.4617C23.52 38.3087 23.52 38.3597 23.5706 38.3087Z" fill="#8C1539"/>
<path d="M30.5001 32.1876C29.5896 32.5447 29.1344 32.9018 28.2745 33.4629C27.364 34.024 26.0995 35.4523 25.796 36.2684C25.4925 37.1356 25.2902 37.2886 24.8349 37.1866C24.582 37.1356 24.582 36.7275 24.582 36.5235C24.582 36.3194 24.8349 36.0644 24.8855 35.8603C25.1384 36.0644 25.2902 35.9114 25.5431 35.5543C25.8971 34.9932 26.6559 33.8199 27.1617 33.4629C27.5158 33.2078 27.0099 33.5649 27.2628 33.3608C27.5158 33.2078 28.2239 32.6977 28.5274 32.5447C29.1344 32.3406 29.7413 32.1366 30.5001 32.1876Z" fill="#8C1539"/>
<path d="M28.5283 35.5027C28.1236 36.0638 28.073 36.0638 27.3649 36.5739C26.6568 37.084 26.1004 35.8088 27.2637 35.0436C28.4777 34.2785 30.1469 33.7173 31.2597 32.2891C31.462 32.3401 31.462 32.2891 31.1079 32.7992C30.7538 33.3093 29.5399 34.4825 28.5788 34.7886C27.6178 35.0946 27.2132 36.0638 28.5283 35.5027Z" fill="#8C1539"/>
<path d="M26.1504 36.0133C26.7068 35.1462 26.8079 34.9931 27.9207 34.534C29.0335 34.075 29.1853 34.279 30.6521 32.5447C30.9556 32.1876 35.1539 28.6679 35.2045 26.5765C35.2045 26.4745 35.3056 26.3214 35.255 25.9133C35.2045 25.5053 34.6986 24.4341 33.9905 24.332C34.3446 24.7911 34.7998 24.7911 35.0021 25.5053C35.2045 26.2194 35.3056 25.6073 35.1033 26.9335C34.9516 28.3108 32.3719 31.2694 31.1579 32.0346C29.944 32.7997 30.551 32.3916 29.4382 33.0548C28.3254 33.7179 26.7574 34.5851 26.1504 36.0133Z" fill="#8C1539"/>
<path d="M30.248 31.6262C31.1585 31.5242 32.2713 31.0651 33.03 30.504C33.7887 29.9429 33.8899 29.0757 34.4969 28.3105C34.0922 28.4636 34.1428 28.3616 33.637 29.0247C33.1312 29.6368 31.3103 31.1161 30.248 31.6262Z" fill="#8C1539"/>
<path d="M31.7148 32.0851C32.3218 31.524 33.6875 30.3507 34.0922 29.8916C34.4968 29.4325 34.9521 28.5144 34.7497 28.3613C34.3451 28.9734 34.3957 29.2285 33.8898 29.8916C33.384 30.5038 32.2712 31.3709 31.7148 32.0851Z" fill="#8C1539"/>
<path d="M34.5978 27.1875C34.6484 27.2385 34.7496 27.3405 34.8001 27.3915C34.5978 27.5956 34.4461 27.7996 34.1426 27.9016C34.3449 27.6466 34.4966 27.4426 34.5978 27.1875Z" fill="#8C1539"/>
<path d="M35.2559 27.3929C35.8123 27.1889 35.9134 26.5257 35.9134 26.0156C35.964 26.2197 36.0146 26.4237 36.0652 26.6277C36.1663 26.6788 36.2675 26.7298 36.2675 26.7808C36.2169 26.9338 36.1157 27.2399 36.0652 27.3929C36.0146 27.5459 36.1157 27.5459 36.0652 27.6479C35.6099 28.5661 35.2559 28.4131 35.2559 27.3929Z" fill="#8C1539"/>
<path d="M35.306 26.3203C35.4578 26.2693 35.4578 26.1672 35.4578 25.9122C35.4578 25.6571 35.306 24.841 34.952 24.5859C34.9014 24.739 35.1543 25.147 35.2049 25.2491C35.2555 25.3001 34.952 24.841 35.0025 24.994C35.1037 25.147 35.4578 25.9122 35.306 26.3203Z" fill="#8C1539"/>
<path d="M34.85 25.7089C34.85 25.6579 34.9511 25.8109 34.9005 25.7089C34.9005 25.6579 34.7488 25.3518 34.7994 25.3008C35.0523 25.6579 35.1029 25.9639 35.1535 26.423C35.0523 26.8821 34.9511 26.627 34.9511 26.423C34.9511 26.27 34.9511 26.372 34.9511 26.372C35.0017 26.1169 35.0017 25.8619 34.85 25.7089Z" fill="#8C1539"/>
<path d="M34.7494 24.7387C34.4965 24.3816 34.193 24.3306 33.8895 23.9735C33.586 23.6165 34.2942 23.9735 34.3953 24.0755C34.2942 24.0245 34.3447 24.0755 34.3953 24.1776C34.4459 24.2286 34.8 24.6877 34.7494 24.7387Z" fill="#8C1539"/>
<path d="M34.3438 24.3825C33.9897 24.1275 33.5345 23.9744 33.231 23.6174C32.9781 23.5664 32.7758 23.7704 33.1299 23.9234C33.4839 24.0765 33.9897 24.1785 34.3438 24.3825Z" fill="#8C1539"/>
<path d="M33.2319 24.2303C32.979 24.1283 32.5238 23.8732 32.3215 24.0262C32.0686 24.1793 32.4732 24.4343 32.625 24.3833C32.8273 24.2813 33.0802 24.2303 33.2319 24.2303Z" fill="#8C1539"/>
<path d="M32.9276 24.9939C32.9276 24.7899 32.6747 24.8409 32.7758 24.5858C32.877 24.3308 33.6357 24.3308 33.8886 24.5858C33.6863 24.4838 33.2311 24.6878 33.0793 24.7899C32.9782 24.8919 33.0287 24.8919 32.9276 24.9939Z" fill="#8C1539"/>
<path d="M33.3846 25.1481C33.2834 25.1481 33.334 25.1481 33.3846 25.1481C33.2834 24.893 33.6375 24.74 33.8904 24.791C34.0927 24.791 34.3962 24.9441 34.6491 25.0461C34.7503 25.2501 34.4468 25.1481 34.295 25.1481C34.2445 25.1481 33.9916 25.2501 33.8904 25.2501C33.7892 25.2501 33.4352 25.1481 33.3846 25.1481Z" fill="#8C1539"/>
<path d="M28.9824 35.9623C29.4882 35.2482 30.3481 34.8911 31.1574 34.7891C31.0057 34.33 30.4999 34.534 30.0952 34.7381C29.6906 34.9931 29.033 35.4012 28.9824 35.9623Z" fill="#8C1539"/>
<path d="M30.3996 35.9613C30.6019 35.7572 31.4112 35.7062 31.1583 35.1961C30.9054 34.686 29.5397 35.6042 29.3374 35.9613C29.135 36.3183 28.9833 36.9815 29.6408 36.9815C29.5397 37.1855 29.4385 37.3896 29.2868 37.5426C29.6408 37.7466 30.1467 37.1345 30.349 36.9305C30.3996 37.0835 30.3996 37.2875 30.2984 37.4406C30.8042 37.4406 31.2089 36.7774 31.5124 36.4204C31.6135 36.5224 31.7147 36.5734 31.8158 36.7264C32.2711 36.2673 32.6757 36.1653 32.6757 35.2981C32.7263 34.431 31.9676 34.0739 32.2711 32.8497C32.5746 31.5744 34.0414 30.4012 35.2554 29.483C35.3565 29.381 35.5083 29.1259 35.5589 28.9219C34.9519 29.432 35.1542 29.534 34.2943 30.0951C33.4344 30.6562 32.3722 31.5234 31.9676 32.7476C31.5629 33.9719 31.8664 35.3491 31.0571 36.1143C30.2478 36.8795 28.8315 36.7264 29.9443 35.7572C30.1972 35.5532 30.956 35.3491 30.3996 35.9613Z" fill="#8C1539"/>
<path d="M34.0912 30.6055C33.5853 31.9317 33.8888 33.054 35.0016 33.9721C34.7487 34.0231 34.4452 34.0742 34.2429 34.0231C34.2429 34.2272 34.1923 34.4822 34.2429 34.6863C33.8888 34.6353 33.5853 34.4822 33.383 34.1762C33.3324 34.2782 33.3324 34.3292 33.3324 34.4312C31.9667 33.309 33.2818 31.5747 34.0912 30.6055Z" fill="#8C1539"/>
<path d="M49.6699 33.26C49.7711 33.158 49.9734 32.4949 50.2769 32.6989C50.5298 32.903 50.5804 33.4131 50.8839 33.6681C51.1873 33.9232 51.1873 34.6373 50.6309 34.4333C50.6309 34.6373 50.7321 34.7393 50.5804 34.8924C50.378 35.0454 50.024 34.9944 49.7711 34.7903C49.5182 34.5863 49.1135 34.3822 48.8606 34.1782C48.6077 33.9742 49.0123 33.6171 49.1641 33.5151C48.7594 33.311 48.0007 32.4439 47.8995 32.1378C47.7984 31.8317 47.242 31.1176 47.7984 31.1686C48.3548 31.3216 49.3664 32.5969 49.6699 33.26Z" fill="#894D61"/>
<path d="M54.2223 38.2591C53.5647 37.9021 52.806 37.2389 52.3508 36.7288C51.8956 36.2187 51.5415 35.5046 50.7828 35.5556C50.024 35.6576 51.1368 36.7288 51.4909 36.8309C51.845 36.9329 52.4014 37.1879 52.5025 37.647C52.6037 38.1061 52.9578 38.4122 53.413 38.6162C53.8682 38.8203 54.3235 38.9223 54.7281 39.4324C55.1328 39.9425 55.7903 40.5546 56.6502 40.4526C57.5101 40.3506 57.7124 38.9223 57.2572 38.3612C56.8019 37.8001 56.3467 37.545 56.0432 36.9839C55.7397 36.4228 55.1833 35.7597 54.7281 35.5046C54.2729 35.2496 54.2223 35.5556 53.8682 35.1475C53.5142 34.7905 52.6543 33.7193 52.0473 33.8723C51.4403 34.0253 51.9461 34.6884 52.6037 34.9945C53.2107 35.3006 54.8799 36.0657 55.3351 36.9329C54.8799 36.5758 53.7671 35.7597 53.3118 35.6066C52.8566 35.4536 52.2496 34.9435 52.1485 35.6576C51.9967 36.4228 53.6659 37.8511 54.2223 38.2591Z" fill="#894D61"/>
<path d="M51.7951 37.5446C51.441 37.3916 50.2271 36.7285 49.6201 37.2386C49.0131 37.7487 49.9236 38.3608 50.5306 38.2078C51.1375 38.0547 51.1375 37.5956 51.9468 37.6466C51.7445 37.5446 52.1492 37.6976 51.7951 37.5446Z" fill="#894D61"/>
<path d="M53.7161 34.5362C53.4127 34.2812 52.3504 33.363 52.5528 32.6489C52.7551 31.9347 53.6656 32.4448 53.7667 33.0569C53.8679 33.6691 53.4632 33.8731 53.8679 34.6383C53.6656 34.4852 54.0196 34.8423 53.7161 34.5362Z" fill="#894D61"/>
<path d="M57.2581 41.1147C56.4488 41.4718 56.0948 41.2167 55.1843 40.6556C54.2738 40.0945 51.8965 38.0031 50.4802 38.7172C50.632 38.8703 50.8849 39.0233 50.986 39.2273C50.5308 39.2784 50.1262 39.4314 49.9238 39.8905C50.0756 40.0945 50.6825 40.1965 50.632 40.5026C50.632 40.8087 50.0756 41.2167 50.5814 41.5228C50.8343 41.4208 50.7331 41.3188 51.1378 41.5228C51.5424 41.7268 51.7448 42.492 52.6046 42.339C53.4645 42.1859 53.4139 40.9107 52.5035 40.4516C52.2 40.2986 51.6942 40.3496 51.8459 40.8087C52.2506 40.8597 52.807 41.0127 52.7058 41.6248C52.6046 42.2369 51.6436 41.7268 51.3401 41.1657C51.0366 40.5536 51.1884 39.5334 52.2506 39.7374C53.3128 39.9415 53.9703 40.6556 54.7796 41.3698C55.6395 41.9819 56.8029 42.39 57.2581 41.1147Z" fill="#894D61"/>
<path d="M59.1806 35.4538C59.0794 36.78 57.7643 36.0659 57.1573 35.4028C56.955 35.1477 56.9044 34.5356 57.4608 34.6886C57.562 35.1477 57.7643 35.7088 58.4219 35.5558C59.0794 35.4028 58.3713 34.3826 57.7643 34.0765C57.1573 33.8214 56.0445 33.9745 56.348 35.0457C56.6515 36.1169 57.6632 36.831 58.3207 37.7492C58.9783 38.6674 59.2312 40.0447 57.9161 40.3507C58.3207 39.5856 58.2195 39.0755 57.6632 38.1063C57.1068 37.1371 54.5777 34.8416 55.2352 33.3624C55.387 33.5154 55.5893 33.7194 55.7916 33.8214C55.8422 33.3624 55.9434 32.9543 56.3986 32.6992C56.6009 32.8522 56.7527 33.4134 57.1068 33.4134C57.4102 33.3624 57.8149 32.8012 58.1184 33.3624C57.9161 33.4644 58.0172 33.7194 58.169 33.8725C58.2195 33.9235 58.4725 34.1275 58.4725 34.1785C58.4725 34.2295 58.4725 34.1785 58.4725 34.1785C58.6242 34.5866 58.9277 34.7906 59.13 35.1477C59.1806 35.2497 59.1806 35.3007 59.1806 35.4538Z" fill="#894D61"/>
<path d="M62.9227 50.9096C63.3274 49.5834 63.5803 49.0223 63.1757 47.441C62.771 45.8596 60.3937 42.85 59.8879 41.4728C59.3821 40.0955 59.5338 39.3814 60.4443 38.9733C60.9501 38.7692 61.4559 39.2793 61.9111 39.4324C62.1134 39.8404 62.2652 40.2485 62.4169 40.6056C61.8605 40.7076 61.6582 40.8606 61.7594 41.6768C61.9111 43.0031 63.4286 44.3803 64.1367 45.6556C64.1367 45.6556 64.0861 45.4516 64.1367 45.7576C64.1873 46.0637 64.4402 47.594 64.4908 48.1041C64.2884 49.2773 63.8332 50.1955 62.9227 50.9096Z" fill="#894D61"/>
<path d="M55.9926 47.4911C55.4867 46.3689 55.1833 46.4199 55.5879 44.7366C55.9926 43.0533 58.0664 43.0022 58.9769 45.2467C59.8873 47.4911 59.3309 49.9906 60.7978 52.082C60.1402 52.3371 60.0391 52.8472 59.1286 52.082C58.2181 51.3169 58.2687 49.1745 58.1676 47.6952C58.0664 46.1649 56.1443 45.0426 55.9926 47.4911Z" fill="#894D61"/>
<path d="M58.9766 42.6465C59.4824 43.9217 59.887 44.9419 60.1905 46.4212C60.494 47.9005 60.0388 49.2268 61.6068 51.0121C61.9103 51.3692 61.8597 59.6839 60.9492 61.0101C60.8987 61.0611 61.0504 61.5712 60.6458 62.0303C60.2411 62.4894 60.5446 64.3768 61.3539 64.9379C61.5562 64.0707 61.8597 63.5096 61.9103 62.4894C61.9609 61.4692 61.3539 62.0303 61.5562 60.347C61.7585 58.6637 62.2644 53.7157 62.062 51.7773C61.8597 49.8389 62.3655 51.3692 62.4667 49.3798C62.5678 47.3904 61.1516 44.0748 58.9766 42.6465Z" fill="#894D61"/>
<path d="M64.3904 50.7559C63.5811 51.674 63.0247 53.0003 62.8224 54.2245C62.6201 55.4488 62.873 56.775 62.3672 57.9993C63.2271 57.5402 63.4294 57.7442 64.087 56.52C64.7445 55.2958 64.5928 52.3882 64.3904 50.7559Z" fill="#894D61"/>
<path d="M59.4842 53C59.4842 54.4283 59.1807 56.1116 58.9783 57.5399C58.776 58.9682 59.7371 59.1722 60.7487 58.6621C60.9004 57.6419 60.9004 57.3359 61.0522 56.1626C61.2039 54.9894 60.951 53.5611 59.4842 53Z" fill="#894D61"/>
<path d="M64.1368 59.173C63.631 59.122 63.1252 59.122 62.6699 59.224C63.1252 58.7139 63.6815 58.3058 64.3391 58.0508C64.2885 58.4079 64.2379 58.7649 64.1368 59.173Z" fill="#894D61"/>
<path d="M60.1412 60.3469C57.9662 61.7242 56.1453 63.5606 54.729 65.703C54.6278 65.3969 54.5772 65.0909 54.6784 64.7848C54.2737 64.8868 53.7679 65.0909 53.3633 64.9889C53.6162 64.6828 54.122 64.1217 54.2737 63.8666C54.4255 63.6116 53.9703 63.7646 53.9703 63.6626C55.5889 61.8262 57.6627 60.2959 60.1412 60.3469Z" fill="#894D61"/>
<path d="M60.6966 61.5195C59.7862 61.7746 58.9769 62.5397 58.4205 63.2029C57.8641 63.866 57.1053 64.5801 57.7123 65.3453C58.3699 65.0392 58.7745 64.5801 58.8757 63.866C59.1792 63.6109 59.8367 64.2741 60.0391 63.764C60.2414 63.2539 59.9379 62.0806 60.6966 61.5195Z" fill="#894D61"/>
<path d="M63.9844 62.539C63.9338 62.437 63.8832 62.3349 63.7821 62.2839C63.4786 62.641 63.0739 62.9471 62.5681 62.8961C62.7704 62.1309 62.5681 61.3658 62.0117 60.8557C62.5175 59.7334 63.5797 60.0905 63.8832 60.6516C64.0856 61.0597 63.9338 60.7536 63.9338 60.7536C63.8327 61.4168 63.9338 61.9269 63.9844 62.539Z" fill="#894D61"/>
<path d="M60.2924 64.1211C60.2418 64.7842 60.1912 65.3453 59.7866 65.9064C59.3313 66.4676 58.6738 66.7226 58.168 66.0595C58.522 65.9575 58.6738 65.9575 58.9773 65.6004C59.2808 65.2433 59.6854 64.2741 60.2924 64.1211Z" fill="#894D61"/>
<path d="M60.5452 64.7324C60.3935 65.5486 60.2417 66.4668 59.6348 67.0279C60.1912 67.1809 60.7476 67.0789 61.0005 66.5178C61.2534 65.9567 61.051 65.1405 60.5452 64.7324Z" fill="#894D61"/>
<path d="M61.6086 66.2129C61.4569 66.672 61.0017 67.6922 61.4569 67.9982C61.9121 68.3553 62.3168 67.6412 62.165 67.2841C61.9627 66.927 61.7604 66.57 61.6086 66.2129Z" fill="#894D61"/>
<path d="M63.6305 66.3647C63.1752 66.4668 63.327 66.9769 62.6694 66.8238C62.0119 66.7218 61.8095 65.3956 62.2142 64.7324C62.4165 65.0895 62.8717 65.8546 63.1247 66.1097C63.3776 66.3647 63.3776 66.2117 63.6305 66.3647Z" fill="#894D61"/>
<path d="M63.9335 65.4475C63.9335 65.6006 63.9335 65.4985 63.9335 65.4475C63.4276 65.8556 62.9724 65.1925 62.8207 64.7334C62.6689 64.3253 62.5678 63.9172 62.416 63.5091C62.8207 63.2031 63.1747 63.6622 63.4276 63.9682C63.5288 64.0702 63.7817 64.3763 63.984 64.4783C63.984 64.7844 63.9335 65.2945 63.9335 65.4475Z" fill="#894D61"/>
<path d="M54.5267 47.8496C55.5384 49.1759 55.1843 50.5531 54.375 51.8794C55.2349 51.7264 55.7913 51.1143 55.8924 50.1961C55.9936 49.2779 55.4878 48.2577 54.5267 47.8496Z" fill="#894D61"/>
<path d="M52.8562 50.5534C52.9574 51.0125 52.5022 52.2367 53.615 51.8796C54.7277 51.5226 54.9807 49.3801 54.1713 48.462C53.362 47.5438 52.3504 47.6968 51.6929 48.666C51.44 48.411 51.1365 48.1049 51.0353 47.7988C50.226 48.3089 50.7318 49.5842 50.9341 50.2473C50.6307 50.1963 50.1248 50.1963 49.9225 49.8902C49.4167 50.8594 50.2766 51.8796 50.8836 52.5938C50.6307 52.6958 50.3272 52.7978 50.0237 52.8488C50.4789 53.818 50.5295 54.1751 51.8446 54.3791C53.1597 54.5832 54.5254 52.9509 56.144 54.2771C57.7626 55.6034 56.4475 59.3781 54.9807 60.9594C54.8289 61.1125 54.6266 61.6226 54.6772 61.8776C55.537 60.8574 56.0934 60.2453 56.7004 58.817C57.3074 57.3887 57.8638 55.3483 56.7004 53.869C55.537 52.3897 52.7551 53.512 51.794 51.9306C50.833 50.3493 52.9068 47.3397 53.8173 49.7882C54.0196 50.1963 53.615 51.4716 52.8562 50.5534Z" fill="#894D61"/>
<path d="M56.1445 58.2037C54.8799 56.2143 53.2108 57.2345 51.5922 58.2037C51.7439 57.7446 51.8956 57.3365 52.2497 56.9794C51.8956 56.9284 51.5416 56.8264 51.1875 56.8264C51.6933 56.3163 52.2497 55.8572 52.9073 55.6532C52.8061 55.6021 52.6544 55.5511 52.5532 55.5511C55.1329 53.9698 56.0939 55.5001 56.1445 58.2037Z" fill="#894D61"/>
<path d="M41.8312 84.118C41.6289 82.3837 40.6173 81.2104 39.1504 80.3433C39.5045 80.2923 39.8079 80.2923 40.162 80.4453C40.1114 80.1392 40.0609 79.8332 39.9091 79.5781C40.4149 79.7822 40.8196 80.0372 41.1736 80.3943C41.2242 80.2923 41.2242 80.1392 41.1231 80.0372C42.6911 81.1594 42.7922 82.5367 41.8312 84.118Z" fill="#894D61"/>
<path d="M43.9051 78.2007C43.6016 78.3027 43.0452 78.5067 43.3487 79.0678C43.6522 79.629 44.6132 80.1901 45.3719 79.3229C46.1307 78.4557 45.8778 77.0274 44.5121 76.5683C44.5626 76.3133 44.6132 75.9052 44.8156 75.7522C44.158 75.6502 43.7533 76.1603 43.3993 76.6194C43.197 76.3643 43.1464 76.0582 43.197 75.7012C42.4382 75.9562 42.1853 76.6194 41.983 77.3335C41.8313 77.2315 41.6289 77.1295 41.5278 76.9254C40.9714 77.6396 40.9208 78.1497 41.4772 79.0678C42.0336 79.986 43.4499 81.0062 43.5004 82.2815C43.551 83.5567 42.4888 84.6279 41.2749 84.781C41.0219 84.832 40.3644 85.036 41.0219 85.2911C41.6795 85.5461 43.4499 84.679 43.9051 83.7608C44.3603 82.8426 44.4615 81.8224 43.7028 80.9552C42.944 80.088 42.2865 78.7618 42.7923 77.7416C43.2981 76.7214 44.4109 76.8744 44.765 77.4865C45.1696 78.0986 44.765 78.6087 44.3603 78.7618C43.9557 78.9148 43.7028 78.5577 43.9051 78.2007Z" fill="#894D61"/>
<path d="M42.4879 87.7903C41.274 86.9231 40.0094 86.413 38.5426 86.515C38.6437 86.311 38.7955 86.158 39.0484 86.0559C38.8461 85.8519 38.6437 85.6989 38.4414 85.5458C38.7955 85.4438 39.1495 85.4948 39.5036 85.5968C39.5036 85.4948 39.453 85.3928 39.4025 85.3418C40.8693 85.6479 41.8809 86.413 42.4879 87.7903Z" fill="#894D61"/>
<path d="M44.713 83.6582C44.2577 84.0663 43.7519 84.6274 43.2461 84.9335C42.7403 85.2395 42.3356 85.6986 42.4874 86.2087C42.6391 86.7188 42.7909 86.7698 43.0438 87.0759C43.5496 86.5658 44.3589 86.0047 44.713 85.3925C45.067 84.8314 44.8141 84.2193 44.713 83.6582Z" fill="#894D61"/>
<path d="M52.452 82.4333C52.4014 82.2293 52.452 81.5151 51.9462 81.7192C51.3898 81.9232 50.9345 82.4333 50.7828 83.1985C50.6311 83.9636 49.8723 85.3409 49.0124 85.6469C48.1526 85.902 47.6973 85.902 47.0398 85.4939C46.1293 86.4121 45.1683 87.3813 44.2072 88.2995C43.8531 88.2995 43.0438 88.6055 42.8921 88.1464C42.8921 88.1464 42.4874 88.4015 43.0438 88.0444C43.6002 87.6873 45.7247 85.953 46.2305 85.0858C46.0281 84.5757 45.7247 84.5247 45.5729 83.9636C45.4212 83.3515 45.7752 82.5863 46.3822 82.2293C46.9892 81.8722 48.2031 81.005 48.102 80.2909C48.0008 79.5767 47.2927 79.7808 46.9892 80.0358C47.2927 79.3727 47.7985 78.8116 48.6078 78.8626C49.4171 78.9136 49.8218 79.7808 49.3159 80.4949C48.8101 81.2091 47.8997 82.0762 47.8491 83.0454C48.6584 82.1783 49.5688 81.3621 50.277 80.4439C50.0241 81.6171 49.5688 82.6884 48.9619 83.7086C49.4677 83.2495 49.7712 82.9434 50.1758 82.2803C50.5805 81.6682 51.0863 80.0868 52.1485 80.2399C53.2107 80.3419 53.059 81.7702 52.452 82.4333Z" fill="#894D61"/>
<path d="M48.81 86.4629C48.456 86.922 47.5455 88.0442 47.2926 88.3503C47.0903 88.6053 47.242 88.4013 47.242 88.4013C46.5339 88.4523 45.8763 88.4013 45.2188 88.3503C46.2304 87.3301 47.3432 86.4629 48.81 86.4629Z" fill="#894D61"/>
<path d="M56.7517 85.596C55.8413 86.2081 56.5494 86.9222 54.8296 86.9732C53.1099 87.0243 50.1256 86.5652 48.4058 88.3505C48.1529 88.3505 47.9506 88.3505 47.7988 88.3505C48.6081 87.1773 50.4796 85.851 51.6936 86.0041C53.6663 86.3101 55.0825 86.0041 55.8919 84.7288C56.7517 83.4536 56.1953 82.8924 55.2849 83.1475C54.3744 83.4025 54.2227 85.3409 55.2343 84.3717C54.8802 84.7288 54.8296 85.953 53.818 84.9328C52.8064 83.9126 54.1721 81.6172 56.1448 82.4334C56.3977 82.5354 57.0552 82.2293 57.0552 81.6172C57.6116 82.1273 56.9035 83.1475 56.7012 83.5556C57.0046 83.4025 57.3081 83.2495 57.4599 82.9945C57.6622 83.9126 56.6506 84.8818 56.0942 85.4429C56.3977 85.596 56.4988 85.596 56.7517 85.596Z" fill="#894D61"/>
<path d="M53.4139 87.8909C52.2506 88.095 51.0872 88.248 49.9238 88.35C51.0872 87.6869 52.1494 87.4318 53.4139 87.8909Z" fill="#894D61"/>
<path d="M53.1103 76.2608C53.3126 76.1078 53.4138 76.0058 53.6161 75.7507C53.8184 75.4957 54.4254 74.7815 54.9312 74.9346C54.9312 74.9856 54.83 75.4447 54.8806 75.4447C55.2347 75.4447 55.437 75.2406 55.7911 75.4447C55.6393 75.6487 55.4876 75.9548 55.5382 76.2098C55.8417 76.2098 56.044 76.3118 56.1957 76.5669C55.8923 76.6689 55.6899 76.7709 55.6393 77.128C55.5888 77.4851 55.3864 78.3522 54.83 78.4032C54.3242 78.4543 54.0713 78.0972 54.0207 77.5871C54.0207 77.077 54.3242 76.2098 54.9312 76.6689C54.6783 76.924 54.2231 77.128 54.7289 77.6381C55.2347 78.1482 55.8417 76.3118 54.7795 76.0058C53.7173 75.6997 53.4643 78.1482 53.0091 78.8113C52.5539 79.4745 52.0481 79.3724 51.4411 79.1174C50.8341 78.8113 50.3283 79.2704 49.7719 78.5053C49.2155 77.7401 50.0248 76.4139 49.8731 75.5467C49.7213 74.6795 48.9626 74.5775 48.6085 74.9346C48.2545 75.3426 48.2039 76.2098 48.6085 76.2098C49.0132 76.2098 49.2155 75.6997 48.9626 75.4447C49.1143 75.3426 49.2155 75.0366 49.3673 75.4447C49.519 75.8527 49.3673 76.9239 48.7097 76.975C48.0521 77.026 47.8498 76.3118 47.951 75.8527C48.0521 75.3936 48.3556 75.0366 47.9004 74.8325C47.9004 74.3734 48.4062 74.4245 48.7097 74.5265C48.7097 74.2714 48.7097 74.0164 48.6085 73.8123C48.9626 73.6083 49.3673 74.0164 49.6202 74.2204C49.6707 74.0674 49.7213 73.9144 49.6707 73.7613C50.126 73.7103 50.3283 74.4755 50.4295 74.7305C50.5306 74.9856 50.6318 75.6997 50.9353 75.8017C50.9859 75.2406 51.087 74.6285 51.5928 74.3224C52.0986 74.0164 51.5928 73.5573 51.4917 73.1492C51.7952 73.0472 52.0481 73.0982 52.2504 73.3532C52.301 72.6391 52.1492 71.4149 52.6045 70.8537C53.0597 70.2416 53.1609 72.027 53.1103 72.231C53.0091 72.4351 52.7562 73.2002 53.0597 73.2002C53.3632 73.2512 53.4643 73.3022 53.5655 73.5573C53.4138 73.8123 53.1103 74.1694 53.1103 74.4245C53.1103 74.6795 53.1103 74.7305 53.3126 74.9346C53.5655 75.1896 53.3632 75.9548 53.1103 76.2098C53.1103 76.2608 53.0597 76.3118 53.1103 76.2608Z" fill="#894D61"/>
<path d="M44.8142 36.6264C45.0671 37.5446 45.2189 38.5648 45.2189 39.534C45.2189 40.8092 44.9659 42.0845 44.5613 43.3087C44.6119 43.4108 44.6119 43.5128 44.6119 43.6148C44.6119 43.6658 44.6625 43.7678 44.6625 43.8188C44.6625 43.8188 44.6625 43.7678 44.713 43.7678C45.9776 42.7476 47.0398 41.4724 47.8491 40.0441C48.3549 39.1259 48.8101 38.1567 49.1136 37.1365C49.7712 35.1471 49.67 33.2597 50.4287 30.8623C50.7828 29.638 52.7555 27.6996 54.02 26.6284C54.02 26.6284 54.02 26.6284 54.0706 26.6284C54.0706 26.6284 54.0706 26.6284 54.1212 26.6284C54.1718 26.6284 54.1718 26.5774 54.2223 26.5774C54.2729 26.5774 54.3235 26.5264 54.3741 26.4754C54.4247 26.4244 54.5258 26.4244 54.627 26.3734C54.6776 26.3734 54.6776 26.3224 54.7282 26.3224C55.9927 25.6592 57.8136 24.6901 59.5334 23.4658C58.2689 22.5476 56.9032 21.7315 55.588 21.1193C54.5258 22.2416 53.2613 23.3638 51.7439 24.333C51.4909 24.486 51.238 24.639 51.0357 24.7411C50.9851 24.7921 50.9346 24.7921 50.884 24.8431C50.3782 25.1491 49.9229 25.5572 49.063 26.3734C47.6468 27.6996 48.0514 31.4744 48.1526 33.9739C48.3043 37.2895 47.2421 40.5542 45.1683 43.0537C45.7247 41.9825 46.0787 40.8092 46.2811 39.636C46.6857 37.4936 46.3316 35.1471 45.6235 33.1577C44.9154 30.9643 44.4601 27.5466 44.6625 26.7815C45.0671 25.0981 46.6351 23.6699 46.6351 23.6699L47.0398 23.2618C47.8997 22.3436 49.2148 20.9153 50.3782 19.283C48.9113 18.9769 47.495 18.8239 46.0282 18.8749C45.7752 18.8749 45.4718 18.8749 45.2189 18.9259C44.5613 20.3032 43.5497 21.7825 42.0828 23.1087L42.0322 23.1598C41.9816 23.2618 41.4758 24.537 41.3747 25.7103C41.1723 27.5976 41.6276 29.485 42.2851 31.0663C43.145 32.9537 44.2578 34.637 44.8142 36.6264Z" fill="#8C1539"/>
<path d="M57.3081 29.3818C54.9813 30.198 52.6546 34.2278 52.1993 35.299C50.9348 38.1046 50.4796 41.3182 48.7598 43.8177C47.7988 45.144 46.4331 46.2152 44.8145 46.4702C44.8145 46.5212 44.8145 46.5723 44.8145 46.6233C45.5226 46.6233 46.2307 46.4702 46.8883 46.2152C49.9232 45.042 51.6429 41.7773 52.9581 39.0738C53.7674 37.4414 54.5767 35.8601 55.8918 34.6359C57.2069 33.5137 58.4714 32.9015 60.1912 32.5955C61.6581 32.1874 64.1365 31.4733 66.7668 30.4531C65.8057 29.2288 64.7941 28.0556 63.7319 26.9844C61.8098 27.9536 59.6348 28.8207 57.3081 29.3818Z" fill="#8C1539"/>
<path d="M62.3148 35.9618C57.7625 35.7578 56.0427 39.5325 53.3619 42.8482C52.5526 43.8174 51.7433 44.7356 50.7823 45.4497C49.4166 46.4699 47.6462 46.878 45.977 47.082C45.5724 47.082 45.1171 47.133 44.6619 47.133C44.6619 47.2351 44.6113 47.3371 44.6113 47.3881C46.5334 47.8982 49.5177 47.4391 50.7317 46.98C53.2102 46.0108 55.0311 43.8684 57.1049 42.3891C59.1282 41.0628 61.6573 39.4815 64.1357 39.9916C65.4509 39.9406 68.5363 39.7876 71.8747 39.3285C71.2171 37.7982 70.509 36.3189 69.6997 34.8906C67.373 35.4517 64.8439 35.9108 62.3148 35.9618Z" fill="#8C1539"/>
<path d="M65.1992 43.7158C65.1486 43.9198 65.0474 44.3789 64.8957 44.736C64.6428 45.2461 63.9346 46.0622 63.1253 46.6233C60.4951 48.3577 57.1061 48.7147 53.9701 48.5617C51.6939 48.4597 49.3672 48.2557 47.091 48.6127C45.8771 48.8168 44.6125 49.0718 43.4492 49.4799C43.2974 49.6329 43.1457 49.837 42.9434 49.939C45.3713 49.1738 48.1027 49.1738 50.48 49.4799C52.7562 49.837 54.9817 50.3471 57.3085 50.3981C60.1916 50.4491 63.6312 49.888 65.9073 47.8986C67.4753 48.3067 70.8643 49.1228 74.4556 49.5309C74.2532 47.7456 73.8992 46.0112 73.4945 44.3279C70.8137 44.3789 67.9306 44.1749 65.1486 43.5117C65.1992 43.6137 65.1992 43.6647 65.1992 43.7158Z" fill="#8C1539"/>
<path d="M56.9531 85.1372L56.2449 85.7493C52.4007 87.0246 47.4438 85.9534 44.2066 83.1988C42.1833 81.4135 40.9188 78.965 39.9577 76.4145C38.6426 72.8948 38.0862 69.12 37.2263 65.4473C36.3159 61.4685 34.7984 57.6428 30.2967 59.1731L30.2461 59.2241C39.9577 56.5205 33.9385 75.8534 42.7903 84.6781C44.6618 86.5145 47.0897 87.8407 49.5682 88.5039C49.7705 88.5039 49.9223 88.4529 50.1246 88.4529C50.3269 88.4529 50.4787 88.4018 50.681 88.4018C50.8327 88.4018 50.9845 88.3508 51.1362 88.3508C51.2374 88.3508 51.3891 88.2998 51.4903 88.2998C51.5914 88.2998 51.7432 88.2488 51.8444 88.2488C52.0467 88.1978 52.249 88.1978 52.4513 88.1468C52.7042 88.0958 52.9066 88.0448 53.1595 87.9938C53.4124 87.9428 53.6147 87.8917 53.8676 87.8407C54.0194 87.7897 54.1205 87.7897 54.3228 87.7387C55.385 87.4327 56.8013 86.8205 57.4589 86.5145C57.3071 86.0554 57.1048 85.5963 56.9531 85.1372C57.0037 85.1372 56.9531 85.1372 56.9531 85.1372Z" fill="#8C1539"/>
<path d="M64.7434 70.8537C64.7434 70.8537 64.7434 70.8027 64.7434 70.8537C64.187 70.2416 63.7823 69.7825 63.58 69.6295C60.6463 70.7517 57.4597 71.7209 54.4248 70.7007C49.7713 69.3744 47.4951 64.8345 44.612 61.2638C41.3242 57.03 37.6318 54.8366 32.523 56.6729L32.4219 56.7749C41.9312 54.1734 43.9039 64.5285 49.2149 70.0886C52.705 73.5063 57.8643 74.6285 62.619 73.8123C63.7823 75.1386 65.4515 77.026 67.323 78.7603C68.2335 77.6381 69.0428 76.4138 69.7509 75.0876C68.1323 73.9143 66.362 72.5371 64.7434 70.8537Z" fill="#8C1539"/>
<path d="M66.8176 52.1324C66.5647 51.9794 66.3117 51.8264 66.1094 51.6223C66.0083 53.3567 58.1176 56.0092 55.8414 55.3461C52.7054 54.4789 49.8222 52.7445 46.585 51.9794C42.0327 50.7552 37.5815 52.0814 33.9902 54.938C37.6321 52.4895 42.1338 51.5203 46.2815 53.1016C49.0635 54.0708 51.4408 55.7031 54.1722 56.8764C57.1059 58.2536 60.4443 58.0496 63.5298 57.3355C64.7437 56.9784 65.4519 56.6723 66.0083 56.1112C66.1094 56.1622 66.2612 56.2132 66.3623 56.2642C66.3623 56.2642 66.3623 56.2642 66.4129 56.2642C67.9304 57.1314 71.0664 58.8658 74.4048 60.243C74.6071 58.5087 74.7588 56.7743 74.7588 54.938C72.1792 54.3769 69.3972 53.4587 66.8176 52.1324Z" fill="#8C1539"/>
<path d="M66.1088 60.6516C65.8559 60.3965 65.6535 60.1925 65.5524 60.1415L65.5018 60.0905C65.5018 60.0905 65.5018 60.0905 65.4512 60.0394C62.4669 62.0288 58.2181 62.743 54.2727 60.6006C51.6425 59.1213 49.2146 57.4379 46.6349 55.8566C42.2849 53.1531 37.8338 53.7652 33.332 55.7036C37.7832 54.2753 42.0826 54.0203 45.9774 56.9788C47.7983 58.2541 49.5181 59.8864 51.339 61.1617C55.7396 64.2733 60.0896 66.2117 65.2489 65.3955C66.1594 66.0586 67.2216 66.8238 68.4355 67.5889C69.5989 68.3541 70.8634 69.1192 72.1785 69.8334C72.6844 68.5071 73.089 67.1299 73.4431 65.7016C70.9646 64.4263 68.3849 62.743 66.1088 60.6516Z" fill="#8C1539"/>
<path d="M60.595 78.3529C58.9258 78.965 57.2061 79.5771 55.3346 79.3731C52.1985 79.016 49.0119 77.5877 46.7357 75.3433C41.9305 70.3443 40.3625 55.6024 31.3084 57.9999L31.2578 58.0509C36.7206 56.8776 39.0473 62.2847 40.7671 66.8756C41.7282 69.3241 42.5375 71.9256 43.7514 74.2721C44.9654 76.8226 47.2415 78.812 49.6694 80.1382C52.6537 81.7706 56.1944 82.6377 59.634 82.0766C60.0892 82.7397 60.6456 83.5559 61.3032 84.3721C62.163 83.811 62.9723 83.1988 63.7311 82.5357C62.6689 81.2094 60.6456 78.3019 60.595 78.3529Z" fill="#8C1539"/>
</svg>
