<svg width="670" height="105" viewBox="0 0 670 105" fill="none" xmlns="http://www.w3.org/2000/svg">
<path fill-rule="evenodd" clip-rule="evenodd" d="M304.972 59.2971V58.1141C304.972 52.1676 309.793 47.3469 315.739 47.3469H320.144C326.134 47.3469 330.749 45.7838 333.99 42.6576C337.23 39.5314 338.85 35.2959 338.85 29.9511C338.85 24.9088 337.23 20.7237 333.99 17.3958C330.847 14.0679 326.326 12.7597 320.336 12.7597H299.043C298.393 12.7597 297.765 12.6623 297.173 12.4811V99.5965C297.173 102.57 294.763 104.98 291.789 104.98H288.559C285.586 104.98 283.176 102.57 283.176 99.5965V83.5977C283.173 83.5251 283.172 83.4522 283.172 83.3791V19.507C283.172 19.4338 283.173 19.3609 283.176 19.2882V5.38359C283.176 2.41032 285.586 0 288.559 0H291.789C291.924 0 292.057 0.00492208 292.189 0.0145958H298.608C298.751 0.00491801 298.896 0 299.043 0H320.733C327.214 0 332.86 1.31099 337.672 3.93297C342.484 6.45411 346.166 9.93327 348.719 14.3705C351.371 18.8077 352.696 23.9004 352.696 29.6485C352.696 35.5984 351.371 40.792 348.719 45.2292C346.166 49.6664 342.484 53.1455 337.672 55.6667C333.397 57.8168 328.464 59.0119 322.872 59.2519C323.036 59.4306 323.196 59.6159 323.35 59.8076L350.685 93.8521C354.281 98.3309 351.092 104.98 345.348 104.98C343.288 104.98 341.337 104.051 340.037 102.452L304.972 59.2971ZM543.853 81.7874C542.362 83.1732 540.448 84.0061 538.361 84.0061C536.271 84.0061 534.355 83.1708 532.864 81.7814C532.573 81.5349 532.305 81.2534 532.067 80.9384C531.471 80.2224 530.97 79.4046 530.589 78.5108L502.289 30.7519V99.6115C502.289 102.585 499.879 104.995 496.906 104.995H493.676C490.702 104.995 488.292 102.585 488.292 99.6115V5.42633C488.292 2.45306 490.702 0.0427413 493.676 0.0427415L496.906 0.0427416C497.011 0.0427416 497.116 0.04579 497.221 0.0518037C499.104 -0.0464437 500.97 0.87999 502.009 2.63395L538.36 63.9809L574.423 3.09319C574.629 2.66488 574.89 2.26806 575.198 1.91192C576.351 0.515206 578.107 -0.158959 579.838 0.0427415L582.506 0.0427416C585.479 0.0427418 587.89 2.45306 587.89 5.42634L587.89 99.6115C587.89 102.585 585.479 104.995 582.506 104.995H579.276C576.303 104.995 573.892 102.585 573.892 99.6115V31.6435L546.134 78.5098C545.754 79.4017 545.255 80.2179 544.66 80.9328C544.419 81.2526 544.148 81.538 543.853 81.7874ZM52.49 0.0104788C52.7379 0.0104788 52.9855 0.0121975 53.2326 0.0156236V0.030463C56.5807 0.271624 59.222 3.06429 59.222 6.47388C59.222 9.88347 56.5807 12.6761 53.2326 12.9173V12.9347C53.1469 12.9331 53.0612 12.9318 52.9753 12.9307C52.9044 12.933 52.8332 12.9342 52.7617 12.9342C52.664 12.9342 52.5668 12.932 52.4701 12.9277C30.6225 12.9347 12.9136 30.6479 12.9136 52.4971C12.9136 74.3507 30.6294 92.0666 52.483 92.0666C74.3324 92.0666 92.0456 74.3575 92.0524 52.5097H92.0626C92.0591 52.4223 92.0573 52.3344 92.0573 52.2462C92.0573 48.6782 94.9497 45.7859 98.5176 45.7859C102.086 45.7859 104.978 48.6782 104.978 52.2462C104.978 52.3344 104.976 52.4223 104.973 52.5097H104.98C104.975 81.4949 81.4764 104.991 52.49 104.991C23.5006 104.991 0 81.49 0 52.5005C0 23.5111 23.5006 0.0104788 52.49 0.0104788ZM71.0611 13.4586C74.6291 13.4586 77.5215 10.5662 77.5215 6.9983C77.5215 3.43037 74.6291 0.537985 71.0611 0.537985C67.4932 0.537985 64.6008 3.43037 64.6008 6.9983C64.6008 10.5662 67.4932 13.4586 71.0611 13.4586ZM104.978 33.3728C104.978 36.9408 102.086 39.8331 98.5176 39.8331C94.9497 39.8331 92.0573 36.9408 92.0573 33.3728C92.0573 29.8049 94.9497 26.9125 98.5176 26.9125C102.086 26.9125 104.978 29.8049 104.978 33.3728ZM89.3588 22.0701C92.9267 22.0701 95.8191 19.1777 95.8191 15.6098C95.8191 12.0419 92.9267 9.14948 89.3588 9.14948C85.7908 9.14948 82.8984 12.0419 82.8984 15.6098C82.8984 19.1777 85.7908 22.0701 89.3588 22.0701ZM225.574 50.6305C225.574 47.6572 227.984 45.2469 230.957 45.2469H263.934C266.907 45.2469 269.317 47.6572 269.317 50.6305V52.6663C269.317 55.6395 266.907 58.0499 263.934 58.0499H230.957C227.984 58.0499 225.574 55.6395 225.574 52.6663V50.6305ZM194.559 9.97576C196.526 5.20813 193.038 0.0299129 187.859 0.0299129C184.843 0.0299129 182.115 1.86094 180.986 4.64369L149.314 82.6633L118.216 4.75886C117.077 1.90374 114.285 0.0197447 111.194 0.0204174C105.931 0.021563 102.38 5.2681 104.361 10.1151L141.135 100.098C142.008 102.232 143.815 103.722 145.898 104.284C146.889 104.676 147.969 104.891 149.1 104.891H149.483C151.022 104.891 152.468 104.492 153.723 103.792C155.338 103.074 156.692 101.761 157.416 100.008L194.559 9.97576ZM201.885 97.461C201.885 97.5066 201.886 97.5521 201.887 97.5974V99.6054C201.887 102.579 204.297 104.989 207.27 104.989H263.798C266.771 104.989 269.182 102.579 269.182 99.6054V96.9136C269.182 93.9403 266.771 91.53 263.798 91.53H215.344V13.4736H263.798C266.771 13.4736 269.182 11.0633 269.182 8.08999V5.39819C269.182 2.42491 266.771 0.0145958 263.798 0.0145958H207.27C204.297 0.0145958 201.887 2.42491 201.887 5.39819V6.34189C201.886 6.38721 201.885 6.43267 201.885 6.47827V97.461ZM631.503 45.2469C628.53 45.2469 626.12 47.6572 626.12 50.6305V52.6663C626.12 55.6395 628.53 58.0499 631.503 58.0499H664.48C667.453 58.0499 669.863 55.6395 669.863 52.6663V50.6305C669.863 47.6572 667.453 45.2469 664.48 45.2469H631.503ZM602.418 96.9136C602.418 96.7787 602.423 96.645 602.433 96.5126V8.491C602.423 8.3586 602.418 8.22487 602.418 8.08999V5.39819C602.418 2.42491 604.828 0.0145958 607.802 0.0145958H664.329C667.303 0.0145958 669.713 2.42491 669.713 5.39819V8.08999C669.713 11.0633 667.303 13.4736 664.329 13.4736H615.892V91.53H664.329C667.303 91.53 669.713 93.9403 669.713 96.9136V99.6054C669.713 102.579 667.303 104.989 664.329 104.989H607.802C604.828 104.989 602.418 102.579 602.418 99.6054V96.9136ZM460.213 1.10943C461.363 0.228558 462.744 -0.108287 464.06 0.0560189C464.238 0.0382657 464.418 0.0291749 464.601 0.0291749L467.831 0.029175C470.804 0.0291752 473.214 2.43949 473.214 5.41277V99.5979C473.214 102.571 470.804 104.982 467.831 104.982H464.601C461.627 104.982 459.217 102.571 459.217 99.5979V18.2644L439.931 33.0347C437.57 34.8426 434.239 34.359 432.49 31.9546L431.166 30.1343C429.417 27.73 429.912 24.3153 432.273 22.5075L460.213 1.10943ZM360.695 0.031023C357.722 0.031023 355.312 2.44134 355.312 5.41462V7.90457C355.312 10.8778 357.722 13.2882 360.695 13.2882H367.155H390.843V99.592C390.843 102.565 393.253 104.976 396.227 104.976H399.457C402.43 104.976 404.84 102.565 404.84 99.592L404.841 13.2882H423.28C423.607 13.2882 423.926 13.1891 424.195 13.0039L438.779 2.97695C440.086 2.07835 439.45 0.031023 437.864 0.031023H393.535H367.155H360.695Z" fill="black"/>
</svg>
