<?xml version="1.0" encoding="utf-8"?>
<!-- Generator: Adobe Illustrator 24.0.1, SVG Export Plug-In . SVG Version: 6.00 Build 0)  -->
<svg version="1.1" id="Layer_1" xmlns="http://www.w3.org/2000/svg" xmlns:xlink="http://www.w3.org/1999/xlink" x="0px" y="0px"
	 viewBox="0 0 400 400" style="enable-background:new 0 0 400 400;" xml:space="preserve">
<style type="text/css">
	.st0{fill:#BEC0C2;}
	.st1{fill:#1D428A;}
	.st2{fill:#C8102E;}
	.st3{fill:#FFFFFF;}
</style>
<g>
	<path d="M30.7,179.2c-3.4,3.1-5.1,7.1-5.1,12V279c0,5,1.7,9,5.1,12.1s7.5,4.4,12.5,3.9c7.9-0.7,15.7-1.2,23.6-1.8v-16.6
		c-7.9,0.4-15.7,0.9-23.6,1.3c0-28.6,0-57.1,0-85.7c7.9,0.5,15.7,0.9,23.6,1.3v-16.8c-7.9-0.6-15.7-1.2-23.6-1.8
		C38.3,174.7,34.1,176,30.7,179.2"/>
	<path d="M87.9,178.3c-5.8-0.4-11.7-0.8-17.5-1.2V293c12.7-0.9,25.6-1.6,38.3-2.3v-15.9c-6.9,0.3-13.9,0.5-20.8,0.8V178.3z"/>
	<path d="M112.1,290.5c5.9-0.3,12-0.6,17.9-0.8c0-36.5,0-72.9,0-109.5c-5.9-0.2-12-0.5-17.9-0.8V290.5z"/>
	<path d="M163.2,181.3c-9.9-0.2-19.7-0.5-29.6-0.9v109.2c5.8-0.2,11.8-0.4,17.6-0.6v-46.3c4,0,8,0,12,0c4.9,0,9-1.5,12.4-4.4
		c3.5-3,5.3-6.6,5.3-10.8v-30.6c0-4.2-1.7-7.9-5.3-10.8C172.2,182.9,168,181.4,163.2,181.3 M163.2,227.4c-4,0-8,0-12,0v-30.9
		c4,0.1,8,0.1,12,0.2V227.4z"/>
	<path d="M318.6,238.5c3.5-3.2,5.2-7,5.2-11.6v-32.8c0-4.5-1.7-8.3-5.2-11.2c-3.4-3.1-7.5-4.4-12.4-4.1c-9.9,0.6-19.6,1.1-29.5,1.4
		V290c5.8,0.2,11.7,0.5,17.6,0.8v-47.3c4.9,15.8,9.8,31.8,14.6,48c5.8,0.4,11.7,0.7,17.5,1.1c-5.1-17.1-10.3-33.7-15.3-50.1
		C313.9,241.8,316.5,240.5,318.6,238.5 M294.4,195.3c4-0.1,8-0.3,12-0.5c0,10.7,0,21.5,0,32.2c-3.9,0-8,0.1-12,0.1V195.3z"/>
	<path d="M213.9,181.6c-9.9,0.1-19.7,0.1-29.6,0v107c5.8-0.1,11.8-0.1,17.6-0.1v-45.8c4,0,8,0,12,0c4.9,0,9-1.4,12.4-4.4
		c3.5-3,5.3-6.6,5.3-10.9c0-10.3,0-20.4,0-30.7c0-4.2-1.7-7.8-5.3-10.7C222.9,183,218.8,181.6,213.9,181.6 M213.9,227.4
		c-4,0-8,0-12,0v-30.5c4,0,8,0,12,0V227.4z"/>
	<path d="M235.1,288.7c12.8,0.2,25.7,0.6,38.4,1.1v-15.6c-6.9-0.2-13.9-0.4-20.8-0.5v-31c4,0,11.1,0,15,0.1c0-5.2,0-10.4,0-15.5
		c-4,0-11.1,0-15,0.1v-31c7-0.1,13.9-0.3,20.8-0.5v-15.6c-12.8,0.5-25.7,0.9-38.4,1.1C235.1,217.1,235.1,253,235.1,288.7"/>
	<path d="M376.3,208.7v-17.6c0-4.9-1.7-8.8-5.2-11.9c-3.4-3.2-7.5-4.5-12.3-4.1c-4.9,0.4-9.9,0.8-14.8,1.2
		c-4.9,0.4-9.1,2.3-12.5,5.8c-3.4,3.4-5.1,7.4-5.1,11.9v32.9c0,4.6,1.7,8.5,5.1,11.7c3.4,3.2,7.6,4.9,12.5,4.9
		c4.9,0.1,9.9,0.1,14.8,0.2c0,11.4,0,22.8,0,34.3c-4.9-0.3-9.9-0.6-14.8-0.9v-16.8c-5.8-0.2-11.7-0.4-17.5-0.6v16.5
		c0,4.6,1.7,8.6,5.1,12c3.4,3.5,7.6,5.3,12.5,5.7c4.9,0.4,9.9,0.8,14.8,1.2c4.8,0.4,8.9-0.9,12.3-3.9c3.5-3.1,5.2-7.1,5.2-12.1
		v-35.2c0-4.9-1.7-9-5.2-12.4c-3.4-3.5-7.5-5.1-12.3-5c-4.9,0.1-9.9,0.1-14.8,0.2V193c4.9-0.3,9.9-0.6,14.8-0.9c0,5.8,0,11.4,0,17.2
		C364.7,209.2,370.6,208.9,376.3,208.7"/>
	<g>
		<path class="st0" d="M44.1,177c6.9,0.6,14.2,1.2,21.5,1.7V178c-7.5-0.6-15-1.2-22.5-1.7c-0.6-0.1-1.1-0.1-1.6-0.1
			c-3.9,0-7.2,1.2-10,3.8c-3.2,2.9-4.7,6.6-4.7,11.1V279c0,3.7,1.1,6.9,3.1,9.5c-1.5-2.4-2.3-5.2-2.3-8.4v-87.9
			c0-4.6,1.6-8.3,4.8-11.3c2.8-2.7,6.1-3.9,10.1-3.9C43,177,43.5,177,44.1,177"/>
		<path class="st0" d="M86.7,180.1v-0.7c-5.1-0.3-10.2-0.7-15.2-1v113.3l0.8-0.1V179.2h0.1C77,179.5,81.8,179.7,86.7,180.1"/>
		<path class="st0" d="M128.9,182.1v-0.8c-5.1-0.2-10.4-0.4-15.5-0.7v108.5h0.8V181.6h0.1C119.1,181.8,123.9,182,128.9,182.1"/>
		<path class="st0" d="M164.2,183.2c3.5,0.1,6.7,1,9.5,2.7c-3-2.2-6.5-3.5-10.5-3.5c-9.4-0.2-19-0.5-28.4-0.8v106.8h0.8V182.4h0.1
			C145.1,182.8,154.8,183,164.2,183.2"/>
		<path class="st0" d="M308.5,180.6c3.2,0,5.9,0.8,8.4,2.3c-2.7-2.1-5.8-3.1-9.4-3.1c-0.4,0-0.8,0-1.2,0c-9.3,0.5-18.9,1-28.5,1.3
			v107.6h0.8V182h0.1c9.6-0.4,19.3-0.9,28.6-1.3C307.8,180.6,308.2,180.6,308.5,180.6"/>
		<path class="st0" d="M202.1,183.6c4.3,0,8.7,0,12.9,0h0.2c3.6,0,6.7,0.9,9.5,2.6c-3-2.3-6.4-3.4-10.5-3.4h-0.2
			c-4.3,0-8.7,0-12.9,0c-5.1,0-10.3,0-15.5-0.1v104.6h0.8V183.6h0.1C191.6,183.6,196.9,183.6,202.1,183.6"/>
		<path class="st0" d="M272.4,181.5c-12,0.5-24.1,0.8-36.1,1.1v105.1h0.8V183.3h0.1c11.6-0.2,23.5-0.6,35.2-1L272.4,181.5
			L272.4,181.5z"/>
		<path class="st0" d="M359.9,177c0.5,0,1.1-0.1,1.5-0.1c2.9,0,5.4,0.7,7.7,2.1c-2.5-1.9-5.4-2.9-8.7-2.9c-0.5,0-1.1,0-1.5,0.1
			c-4.9,0.4-9.9,0.8-14.8,1.2c-4.6,0.4-8.5,2.2-11.7,5.5c-3.2,3.2-4.8,6.8-4.8,11v32.9c0,3.5,1,6.4,3,9c-1.5-2.3-2.2-5-2.2-8v-32.9
			c0-4.3,1.5-8,4.8-11.2c3.3-3.4,7.2-5.2,11.9-5.6C350,177.8,355,177.4,359.9,177"/>
	</g>
	<path class="st1" d="M25.7,314.1c116.2-14.5,234.5-14.5,350.7,0V308c-116.2-13.4-234.5-13.4-350.7,0
		C25.7,308,25.7,314.1,25.7,314.1z"/>
	<path class="st2" d="M68,330.3c87.8-22.7,178.3-22.7,266.1,0v-5.8c-87.8-22.1-178.2-22.1-266.1,0C68,326.5,68,328.4,68,330.3"/>
	<path class="st1" d="M166.2,164.4c-47-1.2-93.9-4.6-140.5-10.4v6.1c49.6,5.8,99.5,9,149.4,9.9C172,168.2,169,166.4,166.2,164.4"/>
	<path class="st1" d="M235.8,164.4c-2.8,2.1-5.8,3.9-8.9,5.5c49.9-0.9,99.9-4.1,149.4-9.9v-6.1C329.7,159.7,282.9,163.3,235.8,164.4
		"/>
	<path class="st2" d="M154.5,152.7c-28.9-2.6-57.9-7.6-86.5-15c0,1.9,0,3.8,0,5.8c30.3,7.7,60.8,12.7,91.4,15
		C157.7,156.6,156,154.7,154.5,152.7"/>
	<path class="st2" d="M247.5,152.7c-1.5,2-3.2,3.9-5,5.8c30.7-2.4,61.2-7.4,91.4-15v-5.8C305.4,145.1,276.5,150.1,247.5,152.7"/>
	<path class="st3" d="M146.9,117.7c0-29.8,24.2-54.1,54.1-54.1c29.8,0,54.1,24.2,54.1,54.1s-24.2,54.1-54.1,54.1
		C171.2,171.8,146.9,147.6,146.9,117.7"/>
	<path d="M201,63.7c-29.8,0-54.1,24.2-54.1,54.1s24.2,54.1,54.1,54.1s54.1-24.2,54.1-54.1S230.8,63.7,201,63.7 M240.1,87.7
		c6.2,8.1,9.7,17.5,10.2,27.7h-20.4C230.3,105.3,233.9,95.8,240.1,87.7 M161.9,87.7c6.2,8.1,9.7,17.5,10.2,27.7h-20.4
		C152.2,105.3,155.8,95.8,161.9,87.7 M161.9,147.7c-6.2-8.1-9.7-17.5-10.2-27.7h20.4C171.7,130.2,168.1,139.8,161.9,147.7
		 M203.4,167v-14.1h-4.7V167c-12.8-0.6-24.7-6.1-33.5-15.5c7.2-9,11.3-19.8,11.8-31.3v-4.7c-0.5-11.5-4.6-22.3-11.8-31.3
		c8.8-9.4,20.7-15,33.5-15.5v14h4.7V68.5c12.8,0.6,24.7,6.1,33.5,15.5c-7.2,9-11.3,19.8-11.8,31.3v4.7c0.5,11.5,4.6,22.3,11.8,31.3
		C228.1,160.9,216.2,166.4,203.4,167 M240.1,147.7c-6.2-8.1-9.7-17.5-10.2-27.7h20.4C249.8,130.2,246.2,139.8,240.1,147.7"/>
	<polygon class="st2" points="188.9,95.1 188.9,140.2 213.1,140.2 213.1,134 195.4,134 195.4,95.1 	"/>
	<path class="st1" d="M221.2,110.3V91.7c0-2.8-1.2-3.9-3.8-3.9h-32.8c-2.7,0-3.8,1.2-3.8,3.9v52.2c0,2.8,1.2,3.9,3.8,3.9h32.8
		c2.8,0,3.8-1.2,3.8-3.9v-18.6h-6.5v16.8h-27.5V93.4h27.5v16.8L221.2,110.3L221.2,110.3z"/>
	<path class="st2" d="M213.1,132.3V95.1h-15.6l-0.2,37.2h6.2l0.1-11.6h3.2v11.6H213.1z M206.8,114.5h-3.2v-13.1h3.2V114.5z"/>
</g>
</svg>
