<?xml version="1.0" encoding="utf-8"?>
<!-- Generator: Adobe Illustrator 27.2.0, SVG Export Plug-In . SVG Version: 6.00 Build 0)  -->
<svg version="1.1" id="Layer_1" xmlns="http://www.w3.org/2000/svg" xmlns:xlink="http://www.w3.org/1999/xlink" x="0px" y="0px"
	 viewBox="0 0 377.22 149.08" style="enable-background:new 0 0 377.22 149.08;" xml:space="preserve">
<style type="text/css">
	.st0{fill:#F8F8F8;}
	.st1{fill:none;}
	.st2{clip-path:url(#SVGID_00000027597174178554115710000007751412732177867159_);}
	.st3{fill:#F6F6FE;}
	.st4{clip-path:url(#SVGID_00000070806172750644558660000007936322440125328280_);fill:#F6F6FE;}
</style>
<g>
	<g>
		<path class="st3" d="M73.74,58.7c-0.52-0.56-1.18-0.93-1.83-1.31c-6.82-3.92-13.63-7.84-20.45-11.75
			c-0.68-0.39-1.43-0.57-2.22-0.61c-0.93-0.05-1.83,0.1-2.67,0.52c-0.58,0.29-1.14,0.64-1.71,0.97c-6.33,3.67-12.66,7.34-18.99,11
			c-0.48,0.28-0.98,0.54-1.39,0.92c-1.17,1.07-1.81,2.39-1.81,3.98c0,8.31,0,16.63,0,24.94c0,0.07-0.01,0.14-0.02,0.22
			c0,0.01,0,0.02,0,0.03c0.01,0.06,0.02,0.11,0.02,0.17c0,0.6,0,1.19,0,1.79c0,0.09,0.02,0.15,0.11,0.2
			c1.86,1.07,3.72,2.14,5.58,3.21C28.38,93,28.4,93,28.43,93.02c6.38-10.24,12.77-20.47,19.18-30.76c-0.26,0-0.49,0-0.71,0
			c-0.99-0.02-1.99-0.07-2.99-0.06c-1.45,0.01-2.88,0.23-4.22,0.83c-1.07,0.48-1.91,1.19-2.55,2.19c-3.56,5.54-7.13,11.07-10.7,16.6
			c-0.03,0.04-0.06,0.08-0.12,0.11c0-0.15,0-0.31,0-0.46c0-1.52,0-3.04,0-4.56c0-2.69,0-5.38-0.01-8.08c0-1.8-0.01-3.6-0.01-5.4
			c0-0.4-0.02-0.8,0.03-1.2c0.06-0.55,0.35-0.98,0.84-1.26c4.76-2.76,9.53-5.52,14.29-8.29c2.17-1.26,4.35-2.52,6.52-3.77
			c0.63-0.36,1.26-0.37,1.89,0c6.03,3.47,12.05,6.93,18.07,10.4c0.92,0.53,1.84,1.05,2.75,1.59c0.58,0.34,0.87,0.85,0.9,1.52
			c0,0.05,0,0.1,0,0.15c0,6.68,0,13.35,0,20.03c0,0.07,0,0.14,0,0.2c-0.01,0-0.02,0.01-0.04,0.01c-3.87-6.02-7.73-12.05-11.61-18.09
			c-0.03,0.05-0.06,0.08-0.08,0.11c-1.4,2.38-2.8,4.75-4.2,7.13c-0.05,0.09-0.03,0.15,0.01,0.22c2.03,3.28,4.06,6.56,6.09,9.84
			c1.68,2.72,3.37,5.45,5.05,8.17c0.02,0.03,0.04,0.07,0.06,0.12c-0.7,0.4-1.39,0.81-2.1,1.22c-3.56-5.62-7.12-11.23-10.69-16.86
			c-0.15,0.25-0.28,0.48-0.42,0.71c-1.49,2.53-2.98,5.07-4.48,7.6c-0.07,0.11-0.04,0.18,0.02,0.28c2.65,4.16,5.3,8.32,7.95,12.48
			c0.03,0.04,0.06,0.09,0.09,0.15c-0.05,0.03-0.09,0.06-0.14,0.09c-2.44,1.41-4.87,2.83-7.31,4.24c-0.53,0.31-1.08,0.29-1.61,0
			c-1.47-0.83-2.92-1.68-4.38-2.52c-1.45-0.83-2.9-1.67-4.34-2.5c-0.05-0.03-0.1-0.06-0.17-0.1c6.45-10.94,12.89-21.87,19.34-32.81
			c-0.52,0-1.01,0-1.5,0c-0.04,0-0.07,0-0.1,0c-1.19,0-2.39,0.01-3.58,0.01c-1.08,0-2.17,0.01-3.25,0.01
			c-0.11,0-0.16,0.04-0.21,0.12c-1.22,2.01-2.43,4.02-3.65,6.03c-2.38,3.93-4.76,7.85-7.14,11.78c-2.22,3.66-4.43,7.31-6.65,10.97
			c-0.6,0.99-1.2,1.98-1.8,2.97c-0.03,0.04-0.05,0.08-0.08,0.14c0.24,0.14,0.47,0.27,0.7,0.41c4.81,2.77,9.61,5.54,14.42,8.3
			c0.46,0.27,0.94,0.53,1.43,0.73c0.39,0.15,0.82,0.18,1.24,0.27c0.05,0.01,0.1,0.02,0.14,0.03c0.27,0,0.53,0,0.8,0
			c0.28-0.05,0.55-0.09,0.82-0.15c0.39-0.08,0.75-0.22,1.1-0.42c7.22-4.19,14.45-8.37,21.67-12.56c0.51-0.3,0.89-0.74,1.23-1.22
			c0.66-0.94,1-1.99,1-3.14c0-8.07,0-16.13,0-24.2C75.25,60.95,74.7,59.73,73.74,58.7z"/>
		<path class="st3" d="M356,68.8c0-0.44-0.01-0.89-0.08-1.32c-0.2-1.18-0.67-1.63-1.87-1.7c-1.03-0.06-2.07,0.01-3.11-0.05
			c-1.67-0.11-2.63,0.64-3.27,2.17c-1.78,4.27-3.66,8.5-5.53,12.74c-0.13,0.29-0.51,0.69-0.71,0.66c-0.29-0.04-0.63-0.39-0.78-0.69
			c-0.47-0.95-0.86-1.93-1.28-2.9c-1.44-3.32-2.9-6.63-4.31-9.96c-0.56-1.33-1.43-2.07-2.93-2c-0.96,0.04-1.92-0.01-2.89,0.01
			c-1.92,0.04-2.49,0.62-2.55,2.55c-0.01,0.25,0,0.49-0.01,0.74c0,2.36,0,4.73,0,7.09c0,2.68,0.01,5.37-0.01,8.05
			c0,0.6,0.22,0.86,0.83,0.85c0.71-0.02,1.43,0,2.15,0c0.98,0,1.04-0.06,1.04-1.05c0-4.46-0.01-8.91,0.02-13.37
			c0-0.29,0.22-0.57,0.34-0.86c0.24,0.21,0.57,0.37,0.69,0.62c1.15,2.48,2.26,4.97,3.39,7.46c0.75,1.66,1.48,3.33,2.26,4.97
			c0.55,1.16,1.31,2.12,2.74,2.18c0.81,0.04,1.63,0.03,2.44,0c0.99-0.04,1.73-0.54,2.24-1.36c0.29-0.46,0.55-0.93,0.77-1.43
			c1.75-3.86,3.48-7.72,5.24-11.57c0.17-0.37,0.22-1,0.82-0.86c0.62,0.14,0.33,0.74,0.33,1.13c0.02,4.41,0.03,8.82,0,13.22
			c0,0.68,0.23,0.94,0.9,0.92c0.69-0.03,1.38-0.01,2.07-0.01c0.97,0,1.04-0.08,1.04-1.06C356.01,78.9,356.01,73.85,356,68.8z"/>
		<path class="st3" d="M184.34,75.27c0.49-0.93,1.17-1.74,1.34-2.64c0.22-1.18,0.17-2.46,0.01-3.67c-0.22-1.75-1.42-2.81-3.22-3.06
			c-0.68-0.1-1.37-0.16-2.06-0.16c-5.11-0.01-10.21-0.01-15.32-0.01c-1.05,0-1.19,0.15-1.19,1.21c0,5.64,0,11.28,0,16.91
			c0,1.02,0.15,1.16,1.22,1.16c5.28,0,10.56,0,15.84,0c0.54,0,1.09-0.03,1.62-0.12c1.31-0.22,2.41-0.79,2.94-2.08
			c0.69-1.68,0.5-3.44,0.35-5.18C185.77,76.55,185.07,75.75,184.34,75.27z M168.11,69.94c0.01-0.53,0.44-0.43,0.77-0.43
			c3.62,0,7.24,0,10.86,0c0.27,0,0.54,0.02,0.81,0.07c0.84,0.17,1.22,0.62,1.26,1.48c0.12,2.25-0.28,2.68-2.56,2.69
			c-3.5,0.01-6.99,0-10.49,0c-0.19,0-0.38-0.02-0.65-0.04C168.1,72.43,168.09,71.19,168.11,69.94z M179.28,81.25
			c-3.42,0-6.85-0.02-10.28,0.02c-0.7,0.01-0.96-0.19-0.93-0.91c0.05-1.17,0.01-2.35,0.01-3.58c0.34-0.02,0.6-0.04,0.87-0.04
			c3.45,0,6.9,0,10.35,0c0.29,0,0.59,0,0.89,0.03c1.1,0.11,1.58,0.61,1.66,1.7C182.01,80.75,181.56,81.25,179.28,81.25z"/>
		<path class="st3" d="M148.96,82.69c-1.09-1.36-2.19-2.71-3.36-4.16c0.28-0.09,0.42-0.14,0.56-0.18c2-0.51,3.18-1.81,3.38-3.82
			c0.15-1.53,0.2-3.11,0-4.63c-0.32-2.51-1.74-3.75-4.25-4.05c-0.63-0.07-1.28-0.12-1.92-0.12c-4.63-0.01-9.27-0.01-13.91,0
			c-1.2,0-1.34,0.14-1.34,1.29c0,5.64,0,11.27,0,16.91c0,1,0.08,1.08,1.1,1.08c0.71,0,1.43-0.02,2.14,0.01
			c0.68,0.03,0.98-0.21,0.96-0.94c-0.04-1.43-0.02-2.85-0.01-4.28c0-0.26,0.02-0.52,0.03-0.79c0.19-0.03,0.31-0.06,0.43-0.06
			c2.69,0,5.37-0.02,8.06,0.01c0.28,0,0.63,0.25,0.81,0.49c1.29,1.65,2.54,3.33,3.83,4.97c0.2,0.26,0.57,0.54,0.87,0.55
			c1.15,0.07,2.32,0.04,3.47,0.02c0.17,0,0.46-0.11,0.49-0.22c0.04-0.18-0.04-0.43-0.16-0.59
			C149.78,83.68,149.37,83.19,148.96,82.69z M145.45,73.79c-0.15,1.03-0.71,1.56-1.74,1.73c-0.36,0.06-0.74,0.09-1.1,0.09
			c-3.18,0.01-6.36,0-9.54,0.02c-0.56,0-0.78-0.13-0.77-0.74c0.04-1.52,0.04-3.05,0-4.58c-0.02-0.67,0.23-0.84,0.86-0.82
			c1.68,0.04,3.35,0.01,5.03,0.01c1.6,0,3.21-0.01,4.81,0c1.79,0.01,2.5,0.74,2.52,2.53C145.52,72.62,145.53,73.21,145.45,73.79z"/>
		<path class="st3" d="M271.71,79.18c-0.16-0.2-0.29-0.42-0.44-0.62c0.1-0.08,0.12-0.1,0.14-0.11c0.09-0.03,0.18-0.06,0.28-0.09
			c2.01-0.48,3.21-1.78,3.42-3.78c0.16-1.6,0.19-3.25-0.02-4.85c-0.3-2.33-1.77-3.59-4.1-3.87c-0.59-0.07-1.18-0.13-1.77-0.13
			c-4.78-0.01-9.57-0.01-14.35,0c-0.99,0-1.14,0.16-1.14,1.17c0,5.34-0.01,10.68,0,16.02c0.01,2.28-0.41,2.08,2.08,2.08
			c2.4,0,2.06,0.27,2.08-2.08c0.01-1.3,0-2.6,0-3.9c0.21-0.04,0.33-0.08,0.45-0.08c2.69,0,5.38-0.02,8.06,0.01
			c0.28,0,0.63,0.24,0.82,0.48c1.29,1.65,2.56,3.31,3.81,4.99c0.31,0.41,0.65,0.61,1.18,0.59c0.94-0.03,1.87,0.01,2.81-0.02
			c0.3-0.01,0.59-0.14,0.88-0.22c-0.12-0.28-0.18-0.6-0.36-0.83C274.28,82.35,272.99,80.77,271.71,79.18z M271.05,73.69
			c-0.11,1.07-0.66,1.64-1.72,1.82c-0.39,0.07-0.78,0.1-1.18,0.1c-3.16,0.01-6.31-0.01-9.46,0.02c-0.6,0-0.82-0.16-0.81-0.78
			c0.04-1.5,0.04-3,0-4.5c-0.02-0.7,0.25-0.88,0.91-0.86c1.65,0.04,3.3,0.01,4.95,0.01c0,0,0,0,0,0c1.58,0,3.16,0,4.73,0
			c1.9,0.01,2.6,0.7,2.61,2.58C271.08,72.61,271.1,73.15,271.05,73.69z"/>
		<path class="st3" d="M311.62,65.73c-0.77,0.01-1.53,0-2.29,0c-0.95,0-1.07,0.12-1.07,1.06c0,3.52,0,7.04,0,10.56
			c0,0.47,0,0.94-0.06,1.4c-0.17,1.31-0.77,2.17-2,2.2c-3.62,0.1-7.24,0.09-10.85,0c-1.15-0.03-1.77-0.85-1.94-2
			c-0.1-0.63-0.14-1.27-0.14-1.91c-0.01-3.37-0.01-6.75,0-10.12c0-1.17-0.01-1.18-1.21-1.18c-0.67,0-1.33,0.02-2,0
			c-0.68-0.03-0.97,0.22-0.96,0.94c0.04,2.07,0.01,4.14,0.01,6.21c0.01,0,0.03,0,0.04,0c0,2.07-0.07,4.14,0.02,6.2
			c0.16,3.59,2.03,5.63,5.62,5.78c4.04,0.17,8.09,0.14,12.13,0c2.91-0.1,4.67-1.61,5.23-4.07c0.18-0.76,0.3-1.56,0.3-2.34
			c0.03-3.96,0.01-7.93,0.03-11.89C312.46,65.95,312.2,65.72,311.62,65.73z"/>
		<path class="st3" d="M114.43,83.85c-2.79-5.07-5.67-10.08-8.33-15.22c-1.17-2.25-2.72-3.19-5.2-2.92c-1.12,0.12-2,0.49-2.57,1.47
			c-0.59,1-1.15,2.01-1.7,3.02c-2.53,4.62-5.06,9.24-7.58,13.86c-0.43,0.78-0.33,0.94,0.55,0.95c0.99,0.01,1.98,0.05,2.96-0.03
			c0.34-0.03,0.78-0.3,0.97-0.59c0.53-0.83,0.99-1.7,1.41-2.59c0.27-0.58,0.64-0.74,1.26-0.74c3.25,0.03,6.52,0.14,9.76-0.03
			c1.79-0.09,2.93,0.35,3.5,2.09c0.5,1.52,1.46,2.37,3.18,1.88c0.54,0,1.08,0,1.63,0c0.54,0,0.65-0.25,0.41-0.7
			C114.6,84.15,114.51,84,114.43,83.85z M97.16,77.9c0.07-0.2,0.1-0.37,0.17-0.51c1.28-2.39,2.56-4.78,3.85-7.15
			c0.13-0.24,0.41-0.58,0.57-0.56c0.25,0.04,0.52,0.32,0.66,0.56c1.29,2.32,2.55,4.67,3.82,7c0.1,0.18,0.17,0.38,0.29,0.66
			C103.35,77.9,100.29,77.9,97.16,77.9z"/>
		<path class="st3" d="M240.33,66.8c-0.01-0.99-0.09-1.07-1.12-1.07c-4.02,0-8.04,0-12.06,0c-2.84,0-5.67,0-8.51,0
			c-1.03,0-1.13,0.11-1.14,1.16c0,0.57,0,1.13,0,1.7c0.01,0.94,0.13,1.06,1.07,1.07c2.44,0,4.88,0,7.33,0
			c0.29,0,0.57,0.02,0.93,0.04c0,0.37,0,0.66,0,0.95c0,4.41,0,8.82,0,13.22c0,1.09,0.07,1.15,1.19,1.15c0.64,0,1.28,0,1.92,0
			c1.03,0,1.09-0.07,1.09-1.09c0-4.41,0-8.82,0-13.22c0-0.31,0-0.63,0-1.05c0.4,0,0.67,0,0.94,0c2.47,0,4.93-0.01,7.4,0.01
			c0.68,0.01,1.02-0.21,0.97-0.94C240.3,68.09,240.33,67.44,240.33,66.8z"/>
		<path class="st3" d="M203.26,65.73c-0.86,0.02-1.73,0.01-2.59,0.01c-0.48,0-0.74,0.22-0.73,0.72c0.01,0.37,0,0.74,0,1.11
			c0,5.49,0,10.98,0,16.47c0,0.88,0.1,0.98,0.97,0.99c0.74,0.01,1.48,0,2.22,0c0.89,0,0.97-0.08,0.97-0.97c0-2.88,0-5.76,0-8.64
			c0-2.93-0.01-5.86,0.01-8.79C204.13,65.97,203.88,65.71,203.26,65.73z"/>
	</g>
	<rect class="st1" width="377.22" height="149.08"/>
</g>
</svg>
