<?xml version="1.0" encoding="utf-8"?>
<!-- Generator: Adobe Illustrator 27.2.0, SVG Export Plug-In . SVG Version: 6.00 Build 0)  -->
<svg version="1.1" id="Layer_1" xmlns="http://www.w3.org/2000/svg" xmlns:xlink="http://www.w3.org/1999/xlink" x="0px" y="0px"
	 viewBox="0 0 377.22 149.08" style="enable-background:new 0 0 377.22 149.08;" xml:space="preserve">
<style type="text/css">
	.st0{fill:#F8F8F8;}
	.st1{fill:none;}
	.st2{clip-path:url(#SVGID_00000167390114312295129260000011983682939423904904_);}
	.st3{fill:#F6F6FE;}
	.st4{clip-path:url(#SVGID_00000100368773427362067400000000496186040601312665_);fill:#F6F6FE;}
</style>
<g>
	<g>
		<defs>
			
				<rect id="SVGID_00000023239309619906518030000018378347743773279913_" x="54.45" y="30.84" transform="matrix(1 -4.857979e-03 4.857979e-03 1 -0.3599 0.9172)" width="268.37" height="87.4"/>
		</defs>
		<clipPath id="SVGID_00000081640076617902862500000014743800580543751809_">
			<use xlink:href="#SVGID_00000023239309619906518030000018378347743773279913_"  style="overflow:visible;"/>
		</clipPath>
		<path style="clip-path:url(#SVGID_00000081640076617902862500000014743800580543751809_);fill:#F6F6FE;" d="M132.26,74.66
			c-0.08-2.03,0.24-4.05,0.95-5.95c0.71-1.9,1.79-3.65,3.18-5.13c1.39-1.48,3.06-2.68,4.92-3.52c1.86-0.84,3.86-1.31,5.9-1.37h0.63
			c7.88,0,12.53,4.61,13.9,10l-4.9,1.63c-0.44-2.01-1.59-3.79-3.25-5.03c-1.65-1.23-3.7-1.84-5.76-1.7c-5.1,0-10.21,3.7-10.21,11.16
			c0,7.46,4.99,11.03,10.27,11.03c2.07,0.06,4.11-0.58,5.77-1.81c1.67-1.23,2.87-2.98,3.42-4.96l4.8,1.54
			c-0.83,3.03-2.67,5.69-5.23,7.55c-2.56,1.85-5.67,2.78-8.83,2.64c-4.06,0.07-7.98-1.46-10.9-4.26c-2.92-2.8-4.61-6.64-4.69-10.67
			C132.23,75.43,132.25,75.04,132.26,74.66z"/>
		<path style="clip-path:url(#SVGID_00000081640076617902862500000014743800580543751809_);fill:#F6F6FE;" d="M171.43,90.02h-5.07
			V58.6l5.07,0v12.29c0.74-0.87,1.66-1.56,2.71-2.01c1.04-0.46,2.18-0.67,3.32-0.63c5.24,0,7.72,3.73,7.72,8.38v13.39l-4.88,0v-12.5
			c0.15-1.07-0.13-2.15-0.78-3.01c-0.65-0.86-1.61-1.44-2.68-1.6c-0.3-0.03-0.61-0.03-0.91,0c-1.17,0-2.3,0.46-3.12,1.29
			c-0.83,0.82-1.29,1.94-1.29,3.11c-0.01,0.13-0.01,0.26,0,0.38L171.43,90.02z"/>
		<path style="clip-path:url(#SVGID_00000081640076617902862500000014743800580543751809_);fill:#F6F6FE;" d="M196.55,77.92
			l5.44-0.84c1.24-0.15,1.54-0.78,1.54-1.54c0-1.78-1.21-3.21-4.02-3.21c-1.06-0.09-2.11,0.25-2.93,0.93s-1.33,1.65-1.43,2.71v0.23
			l-4.63-1.03c0.39-3.65,3.72-6.91,8.95-6.91c6.55,0,9.04,3.69,9.04,7.99v10.49c-0.01,1.14,0.08,2.27,0.26,3.39h-4.63
			c-0.17-0.89-0.23-1.8-0.2-2.7c-0.7,1.08-1.68,1.95-2.83,2.53c-1.15,0.58-2.43,0.86-3.72,0.8c-1.76,0.14-3.51-0.41-4.86-1.55
			c-1.35-1.13-2.19-2.75-2.34-4.5c0-0.11,0-0.21,0-0.31C190.11,80.51,192.9,78.42,196.55,77.92z M203.56,81.31v-0.97l-5.55,0.83
			c-0.75,0.02-1.47,0.34-1.99,0.87c-0.53,0.54-0.83,1.25-0.83,2c0.01,0.37,0.09,0.74,0.24,1.08c0.15,0.34,0.37,0.65,0.64,0.9
			c0.27,0.26,0.59,0.46,0.94,0.59c0.35,0.13,0.72,0.19,1.09,0.18h0.23c0.63,0.07,1.27,0.01,1.88-0.17c0.61-0.18,1.18-0.48,1.67-0.88
			c0.49-0.4,0.9-0.89,1.2-1.45c0.3-0.56,0.49-1.17,0.55-1.8c0.02-0.4,0-0.79-0.08-1.18H203.56z"/>
		<path style="clip-path:url(#SVGID_00000081640076617902862500000014743800580543751809_);fill:#F6F6FE;" d="M217.05,57.75
			c0.44-0.01,0.87,0.07,1.27,0.23c0.41,0.16,0.78,0.4,1.09,0.7c0.31,0.3,0.56,0.66,0.74,1.06c0.17,0.4,0.26,0.82,0.27,1.26
			c0,0.65-0.19,1.28-0.55,1.82s-0.87,0.96-1.47,1.22c-0.6,0.25-1.26,0.32-1.9,0.2c-0.64-0.12-1.23-0.43-1.7-0.88
			c-0.47-0.45-0.79-1.03-0.92-1.67c-0.14-0.63-0.08-1.29,0.16-1.9c0.24-0.6,0.65-1.12,1.19-1.49c0.54-0.37,1.17-0.57,1.82-0.58
			L217.05,57.75z M214.74,89.7l-0.1-21.22l5.07-0.02l0.1,21.13L214.74,89.7z"/>
		<path style="clip-path:url(#SVGID_00000081640076617902862500000014743800580543751809_);fill:#F6F6FE;" d="M231.34,89.53
			l-5.05,0.02l-0.1-21.13l4.93-0.02l0.01,2.81c0.64-1.08,1.56-1.97,2.66-2.58c1.1-0.61,2.35-0.91,3.61-0.87
			c5.19-0.03,7.74,3.69,7.77,8.35l0.06,13.36l-5.05,0.02l-0.06-12.5c-0.01-2.6-1.21-4.69-4.4-4.68c-0.59,0.01-1.17,0.13-1.71,0.36
			c-0.54,0.23-1.03,0.56-1.44,0.98c-0.41,0.42-0.74,0.91-0.95,1.46c-0.22,0.54-0.33,1.12-0.32,1.71c0,0.17,0,0.34,0,0.51
			L231.34,89.53z"/>
		<path style="clip-path:url(#SVGID_00000081640076617902862500000014743800580543751809_);fill:#F6F6FE;" d="M251.35,89.43
			l-0.15-31.42l5.07-0.02l0.15,31.42L251.35,89.43z"/>
		<path style="clip-path:url(#SVGID_00000081640076617902862500000014743800580543751809_);fill:#F6F6FE;" d="M265.3,57.52
			c0.65-0.01,1.29,0.18,1.84,0.54c0.55,0.36,0.97,0.86,1.23,1.46c0.25,0.6,0.32,1.26,0.2,1.89c-0.12,0.64-0.43,1.22-0.89,1.68
			c-0.46,0.46-1.05,0.78-1.68,0.9c-0.64,0.13-1.3,0.07-1.91-0.18c-0.6-0.25-1.12-0.67-1.48-1.2c-0.36-0.54-0.56-1.17-0.56-1.82
			c0-0.86,0.35-1.69,0.96-2.3C263.61,57.88,264.43,57.53,265.3,57.52L265.3,57.52z M262.97,89.47l-0.1-21.22l5.02-0.02l0.1,21.13
			L262.97,89.47z"/>
		<path style="clip-path:url(#SVGID_00000081640076617902862500000014743800580543751809_);fill:#F6F6FE;" d="M279.61,89.3
			l-5.07,0.02l-0.1-21.13l4.93-0.02l0.01,2.81c0.64-1.08,1.56-1.97,2.66-2.58c1.1-0.61,2.35-0.91,3.61-0.88
			c5.19-0.03,7.74,3.69,7.77,8.35l0.06,13.36l-5.07,0.02l-0.06-12.5c0.14-1.07-0.14-2.14-0.8-3c-0.65-0.86-1.62-1.43-2.69-1.59
			c-0.31-0.03-0.62-0.03-0.93,0c-1.18,0.02-2.31,0.5-3.13,1.34c-0.83,0.84-1.29,1.97-1.28,3.14c-0.02,0.18-0.01,0.36,0,0.54
			L279.61,89.3z"/>
		<path style="clip-path:url(#SVGID_00000081640076617902862500000014743800580543751809_);fill:#F6F6FE;" d="M310.71,76.94
			l8.97,12.24l-6.18,0.03l-6.22-8.68l-2.6,2.75l0.03,5.9l-5.02,0.02l-0.15-31.42l5.02-0.02l0.09,18.83l8.12-8.58l6.72-0.03
			L310.71,76.94z"/>
		<path style="clip-path:url(#SVGID_00000081640076617902862500000014743800580543751809_);fill:#F6F6FE;" d="M84.61,54.1l17.4,9.93
			v19.96l-17.35,9.99l-17.39-9.91l0-19.95L84.61,54.1z M84.61,39.46l-6.38,3.66L60.85,53.15l-6.38,3.66l0,34.61l6.38,3.66l17.4,9.93
			l6.38,3.66l6.38-3.66l17.34-10l6.38-3.66V56.69l-6.38-3.66l-17.39-9.91l-6.38-3.66H84.61z"/>
	</g>
	<rect class="st1" width="377.22" height="149.08"/>
</g>
</svg>
