<svg width="106" height="82" viewBox="0 0 106 82" fill="none" xmlns="http://www.w3.org/2000/svg">
<path d="M89.7335 6.79735C82.9774 3.65115 75.7325 1.33317 68.1575 0.00556913C68.0196 -0.0200532 67.8818 0.0439784 67.8107 0.172045C66.879 1.85395 65.8469 4.04814 65.1242 5.77276C56.9768 4.53483 48.8712 4.53483 40.8909 5.77276C40.168 4.00981 39.0985 1.85395 38.1625 0.172045C38.0915 0.0482513 37.9537 -0.0157803 37.8157 0.00556913C30.2449 1.32893 23.0001 3.64691 16.2398 6.79735C16.1813 6.82296 16.1311 6.86569 16.0978 6.92115C2.35581 27.7575 -1.4087 48.0817 0.438046 68.154C0.446402 68.2522 0.500717 68.3461 0.575925 68.4058C9.64251 75.1634 18.425 79.2658 27.0445 81.9851C27.1824 82.0278 27.3286 81.9766 27.4164 81.8613C29.4553 79.0354 31.2728 76.0557 32.8312 72.9222C32.9231 72.7387 32.8354 72.521 32.6474 72.4484C29.7645 71.3385 27.0194 69.9853 24.3788 68.4485C24.1699 68.3248 24.1532 68.0216 24.3454 67.8764C24.901 67.4538 25.4569 67.0141 25.9875 66.5701C26.0835 66.4891 26.2172 66.472 26.3301 66.5232C43.6777 74.5615 62.4585 74.5615 79.6014 66.5232C79.7142 66.4677 79.848 66.4848 79.9482 66.5659C80.4789 67.0098 81.0346 67.4538 81.5945 67.8764C81.7866 68.0216 81.7741 68.3248 81.5652 68.4485C78.9246 70.0151 76.1795 71.3385 73.2924 72.4442C73.1045 72.5168 73.0209 72.7387 73.1128 72.9222C74.7046 76.0513 76.5221 79.031 78.5235 81.857C78.6071 81.9766 78.7574 82.0278 78.8954 81.9851C87.5566 79.2658 96.3391 75.1634 105.406 68.4058C105.485 68.3461 105.535 68.2564 105.544 68.1582C107.754 44.9525 101.842 24.795 89.8713 6.92539C89.842 6.86569 89.792 6.82296 89.7335 6.79735ZM35.4218 55.9321C30.199 55.9321 25.8955 51.0657 25.8955 45.0892C25.8955 39.1127 30.1155 34.2463 35.4218 34.2463C40.7697 34.2463 45.0315 39.1554 44.9479 45.0892C44.9479 51.0657 40.7279 55.9321 35.4218 55.9321ZM70.6435 55.9321C65.4208 55.9321 61.1174 51.0657 61.1174 45.0892C61.1174 39.1127 65.3372 34.2463 70.6435 34.2463C75.9915 34.2463 80.2532 39.1554 80.1697 45.0892C80.1697 51.0657 75.9915 55.9321 70.6435 55.9321Z" fill="white"/>
</svg>
