<?xml version="1.0" encoding="utf-8"?>
<!-- Generator: Adobe Illustrator 27.2.0, SVG Export Plug-In . SVG Version: 6.00 Build 0)  -->
<svg version="1.1" id="Layer_1" xmlns="http://www.w3.org/2000/svg" xmlns:xlink="http://www.w3.org/1999/xlink" x="0px" y="0px"
	 viewBox="0 0 377.22 149.08" style="enable-background:new 0 0 377.22 149.08;" xml:space="preserve">
<style type="text/css">
	.st0{fill:#F8F8F8;}
	.st1{fill:none;}
	.st2{clip-path:url(#SVGID_00000067925525828006583260000008416752137076892550_);}
	.st3{fill:#F6F6FE;}
	.st4{clip-path:url(#SVGID_00000120545972992041799290000012344688686531144895_);fill:#F6F6FE;}
</style>
<g>
	<g>
		<path class="st0" d="M78.14,90.19c-3.71,0-6.75-0.87-9.12-2.62c-2.34-1.78-3.51-4.3-3.51-7.58c0-0.69,0.08-1.53,0.23-2.53
			c0.41-2.24,0.98-4.94,1.73-8.09c2.12-8.57,7.59-12.86,16.41-12.86c2.4,0,4.55,0.41,6.45,1.22c1.9,0.78,3.4,1.96,4.49,3.55
			c1.09,1.56,1.64,3.43,1.64,5.61c0,0.65-0.08,1.48-0.23,2.48c-0.47,2.77-1.03,5.47-1.68,8.09c-1.09,4.27-2.98,7.47-5.66,9.59
			C86.22,89.14,82.63,90.19,78.14,90.19z M78.8,83.45c1.75,0,3.23-0.51,4.44-1.54c1.25-1.03,2.14-2.6,2.67-4.72
			c0.72-2.93,1.26-5.49,1.64-7.67c0.12-0.65,0.19-1.32,0.19-2.01c0-2.84-1.48-4.26-4.44-4.26c-1.75,0-3.24,0.51-4.49,1.54
			c-1.22,1.03-2.09,2.6-2.62,4.72c-0.56,2.09-1.12,4.64-1.68,7.67c-0.12,0.62-0.19,1.28-0.19,1.96
			C74.31,82.02,75.8,83.45,78.8,83.45z"/>
		<path class="st0" d="M101.22,89.72c-0.34,0-0.61-0.11-0.79-0.33c-0.16-0.25-0.2-0.53-0.14-0.84l6.45-30.39
			c0.06-0.34,0.23-0.62,0.51-0.84s0.58-0.33,0.89-0.33h12.44c3.46,0,6.23,0.72,8.32,2.15c2.12,1.43,3.18,3.51,3.18,6.22
			c0,0.78-0.09,1.59-0.28,2.43c-0.78,3.59-2.35,6.23-4.72,7.95c-2.34,1.71-5.55,2.57-9.63,2.57h-6.31l-2.15,10.24
			c-0.06,0.34-0.23,0.62-0.51,0.84c-0.28,0.22-0.58,0.33-0.89,0.33H101.22z M117.77,71.86c1.31,0,2.45-0.36,3.41-1.08
			c1-0.72,1.65-1.75,1.96-3.09c0.09-0.53,0.14-1,0.14-1.4c0-0.9-0.27-1.59-0.79-2.06c-0.53-0.5-1.43-0.75-2.71-0.75h-5.61
			l-1.78,8.37H117.77z"/>
		<path class="st0" d="M142.62,89.72c-0.34,0-0.61-0.11-0.79-0.33c-0.19-0.25-0.25-0.53-0.19-0.84l5.19-24.22h-8.32
			c-0.34,0-0.61-0.11-0.79-0.33c-0.16-0.25-0.2-0.53-0.14-0.84l1.08-5c0.06-0.34,0.23-0.62,0.51-0.84c0.28-0.22,0.58-0.33,0.89-0.33
			h25.16c0.34,0,0.61,0.11,0.79,0.33c0.12,0.19,0.19,0.37,0.19,0.56c0,0.09-0.02,0.19-0.05,0.28l-1.08,5
			c-0.06,0.34-0.23,0.62-0.51,0.84c-0.25,0.22-0.55,0.33-0.89,0.33h-8.28l-5.19,24.22c-0.06,0.34-0.23,0.62-0.51,0.84
			c-0.28,0.22-0.58,0.33-0.89,0.33H142.62z"/>
		<path class="st0" d="M167.38,89.72c-0.34,0-0.61-0.11-0.79-0.33c-0.19-0.25-0.25-0.53-0.19-0.84l6.5-30.39
			c0.06-0.34,0.23-0.62,0.51-0.84s0.58-0.33,0.89-0.33h6.31c0.34,0,0.61,0.11,0.79,0.33c0.12,0.19,0.19,0.37,0.19,0.56
			c0,0.09-0.02,0.19-0.05,0.28l-6.45,30.39c-0.06,0.34-0.23,0.62-0.51,0.84c-0.28,0.22-0.58,0.33-0.89,0.33H167.38z"/>
		<path class="st0" d="M185.18,89.72c-0.34,0-0.61-0.11-0.79-0.33c-0.19-0.22-0.25-0.5-0.19-0.84l6.45-30.39
			c0.06-0.34,0.23-0.62,0.51-0.84c0.28-0.22,0.59-0.33,0.94-0.33h5.05c0.75,0,1.23,0.34,1.45,1.03l5.1,14.73l11.36-14.73
			c0.16-0.25,0.37-0.48,0.65-0.7c0.31-0.22,0.69-0.33,1.12-0.33h5.1c0.34,0,0.61,0.11,0.79,0.33c0.12,0.19,0.19,0.37,0.19,0.56
			c0,0.09-0.02,0.19-0.05,0.28l-6.45,30.39c-0.06,0.34-0.23,0.62-0.51,0.84c-0.28,0.22-0.58,0.33-0.89,0.33h-5.66
			c-0.34,0-0.61-0.11-0.79-0.33c-0.16-0.25-0.2-0.53-0.14-0.84l3.65-17.25l-7.15,9.49c-0.31,0.34-0.61,0.61-0.89,0.79
			c-0.28,0.19-0.61,0.28-0.98,0.28h-2.43c-0.65,0-1.11-0.36-1.36-1.08l-3.32-9.91l-3.74,17.68c-0.06,0.34-0.23,0.62-0.51,0.84
			c-0.28,0.22-0.58,0.33-0.89,0.33H185.18z"/>
		<path class="st0" d="M226.46,89.72c-0.34,0-0.61-0.11-0.79-0.33c-0.19-0.25-0.25-0.53-0.19-0.84l6.5-30.39
			c0.06-0.34,0.23-0.62,0.51-0.84c0.28-0.22,0.58-0.33,0.89-0.33h6.31c0.34,0,0.61,0.11,0.8,0.33c0.13,0.19,0.19,0.37,0.19,0.56
			c0,0.09-0.01,0.19-0.05,0.28l-6.45,30.39c-0.06,0.34-0.23,0.62-0.52,0.84c-0.28,0.22-0.58,0.33-0.89,0.33H226.46z"/>
		<path class="st0" d="M255.81,90.19c-2.74,0-5.1-0.37-7.06-1.12c-1.93-0.75-3.4-1.75-4.4-2.99c-0.97-1.25-1.45-2.63-1.45-4.16
			c0-0.25,0.03-0.62,0.09-1.12c0.06-0.28,0.19-0.51,0.38-0.7c0.22-0.19,0.47-0.28,0.75-0.28h5.98c0.38,0,0.66,0.06,0.84,0.19
			c0.22,0.12,0.44,0.34,0.66,0.65c0.22,0.81,0.72,1.48,1.5,2.01c0.81,0.53,1.92,0.79,3.32,0.79c1.78,0,3.21-0.28,4.3-0.84
			c1.09-0.56,1.75-1.32,1.96-2.29c0.03-0.12,0.05-0.31,0.05-0.56c0-0.78-0.48-1.39-1.45-1.82c-0.97-0.47-2.74-1.01-5.33-1.64
			c-3.02-0.65-5.32-1.64-6.87-2.95c-1.56-1.34-2.34-3.09-2.34-5.24c0-0.75,0.09-1.51,0.28-2.29c0.62-2.9,2.17-5.17,4.63-6.83
			c2.49-1.65,5.7-2.48,9.63-2.48c2.37,0,4.47,0.42,6.31,1.26c1.84,0.84,3.26,1.92,4.26,3.23c1.03,1.28,1.54,2.56,1.54,3.83
			c0,0.37-0.02,0.64-0.05,0.79c-0.06,0.28-0.2,0.51-0.42,0.7c-0.19,0.19-0.42,0.28-0.7,0.28h-6.27c-0.69,0-1.15-0.26-1.4-0.79
			c-0.03-0.72-0.41-1.32-1.12-1.82c-0.72-0.5-1.65-0.75-2.81-0.75c-1.37,0-2.51,0.25-3.41,0.75c-0.87,0.5-1.42,1.23-1.64,2.2
			c-0.03,0.16-0.05,0.36-0.05,0.61c0,0.75,0.44,1.37,1.31,1.87c0.9,0.47,2.48,0.95,4.72,1.45c3.49,0.69,6.03,1.67,7.62,2.95
			c1.62,1.28,2.43,2.98,2.43,5.1c0,0.72-0.09,1.5-0.28,2.34c-0.69,3.18-2.35,5.6-5,7.25C263.72,89.38,260.21,90.19,255.81,90.19z"/>
		<path class="st0" d="M277.82,89.72c-0.34,0-0.61-0.11-0.8-0.33c-0.19-0.22-0.25-0.5-0.19-0.84l6.45-30.39
			c0.06-0.34,0.23-0.62,0.52-0.84c0.28-0.22,0.59-0.33,0.94-0.33h5.05c0.75,0,1.23,0.34,1.45,1.03l5.1,14.73l11.36-14.73
			c0.16-0.25,0.38-0.48,0.66-0.7c0.31-0.22,0.69-0.33,1.12-0.33h5.1c0.34,0,0.61,0.11,0.8,0.33c0.12,0.19,0.19,0.37,0.19,0.56
			c0,0.09-0.01,0.19-0.05,0.28l-6.45,30.39c-0.06,0.34-0.24,0.62-0.52,0.84c-0.28,0.22-0.58,0.33-0.89,0.33H302
			c-0.34,0-0.61-0.11-0.8-0.33c-0.16-0.25-0.2-0.53-0.14-0.84l3.65-17.25l-7.15,9.49c-0.31,0.34-0.61,0.61-0.89,0.79
			c-0.28,0.19-0.61,0.28-0.98,0.28h-2.43c-0.66,0-1.11-0.36-1.36-1.08l-3.32-9.91l-3.74,17.68c-0.06,0.34-0.24,0.62-0.52,0.84
			c-0.28,0.22-0.58,0.33-0.89,0.33H277.82z"/>
	</g>
	<rect class="st1" width="377.22" height="149.08"/>
</g>
</svg>
