<?xml version="1.0" encoding="utf-8"?>
<!-- Generator: Adobe Illustrator 27.2.0, SVG Export Plug-In . SVG Version: 6.00 Build 0)  -->
<svg version="1.1" id="Layer_1" xmlns="http://www.w3.org/2000/svg" xmlns:xlink="http://www.w3.org/1999/xlink" x="0px" y="0px"
	 viewBox="0 0 377.22 149.08" style="enable-background:new 0 0 377.22 149.08;" xml:space="preserve">
<style type="text/css">
	.st0{fill:#F8F8F8;}
	.st1{fill:none;}
	.st2{clip-path:url(#SVGID_00000091694703493225665850000000165189705705297031_);}
	.st3{fill:#F6F6FE;}
	.st4{clip-path:url(#SVGID_00000097487109749523359450000004063312059139421605_);fill:#F6F6FE;}
</style>
<g>
	<g>
		<defs>
			<rect id="SVGID_1_" x="73.79" y="53.73" width="220" height="50.51"/>
		</defs>
		<clipPath id="SVGID_00000053526420837456397540000017435359627780670113_">
			<use xlink:href="#SVGID_1_"  style="overflow:visible;"/>
		</clipPath>
		<g style="clip-path:url(#SVGID_00000053526420837456397540000017435359627780670113_);">
			<path class="st3" d="M105.98,57.95c-3.52-2.73-7.93-4.23-12.49-4.22c-4.56-0.01-8.98,1.49-12.5,4.22
				c-2.51,1.94-4.48,4.45-5.72,7.28c-1.24,2.84-1.72,5.92-1.4,8.97c0.32,3.05,1.44,5.98,3.25,8.53c1.81,2.55,4.26,4.63,7.13,6.06
				c0.07,0.21,0.14,0.43,0.23,0.67c0.31,0.81,0.74,1.59,1.26,2.29c0.4,0.53,0.99,0.91,1.67,1.06c0.37,0.08,0.75,0.1,1.13,0.04
				c0.37-0.06,0.73-0.18,1.06-0.37c0.32-0.19,0.61-0.43,0.83-0.72c0.22-0.29,0.38-0.62,0.47-0.97c0.2-0.84,0.28-1.71,0.25-2.58
				c-0.02-0.83-0.12-1.66-0.28-2.47c-0.1-0.55-0.34-1.07-0.7-1.51c-0.36-0.44-0.83-0.79-1.37-1.02h-0.11
				c-2.62-1.08-4.76-2.97-6.09-5.36c-0.77-1.48-1.21-3.09-1.27-4.74c-0.07-1.65,0.24-3.29,0.89-4.81c0.65-1.53,1.64-2.91,2.9-4.05
				c1.26-1.14,2.75-2.02,4.39-2.57c1.64-0.56,3.39-0.78,5.12-0.65c1.74,0.13,3.43,0.6,4.96,1.39c1.53,0.79,2.87,1.87,3.92,3.18
				c1.06,1.31,1.81,2.82,2.2,4.42c0.62,2.66,0.24,5.44-1.06,7.87c-1.32,2.44-3.47,4.4-6.1,5.56h-0.05l-0.32,0.15
				c-0.11,0.05-0.21,0.11-0.31,0.17l-0.23,0.17c-0.1,0.08-0.19,0.16-0.28,0.24c-0.25,0.23-0.45,0.5-0.61,0.79l-0.1,0.17l-0.05,0.11
				l-0.13,0.24c-0.06,0.13-0.1,0.27-0.14,0.4c-0.1,0.38-0.18,0.77-0.23,1.15c-0.06,0.67-0.09,1.23-0.11,1.8l-0.05,3.21
				c0,1.04-0.04,2.07-0.05,3.1c-0.03,1.07-0.31,2.13-0.8,3.09c-0.34,0.63-0.51,1.34-0.47,2.06c0.04,0.71,0.27,1.4,0.67,2
				c0.41,0.6,0.97,1.09,1.64,1.42c0.67,0.33,1.42,0.49,2.17,0.46c0.75-0.03,1.49-0.24,2.13-0.62c0.64-0.38,1.16-0.91,1.52-1.54
				c0.36-0.63,0.53-1.33,0.51-2.05c-0.02-0.71-0.24-1.41-0.64-2.01c-0.57-0.88-0.91-1.88-0.99-2.9c-0.06-0.98-0.1-1.95-0.06-2.91
				c0.01-0.93,0.1-1.86,0.26-2.78c0.04-0.2,0.08-0.39,0.12-0.57c3.76-1.66,6.85-4.42,8.81-7.87c2.15-3.76,2.85-8.12,1.97-12.32
				C111.88,64.44,109.48,60.66,105.98,57.95z"/>
			<path class="st3" d="M98.54,77.14l-5.01-4.73l-5.02-4.74l-0.4-0.38c-1.39,1.37-2.15,3.19-2.13,5.09c0.02,1.89,0.83,3.7,2.24,5.04
				c1.42,1.34,3.33,2.1,5.34,2.12c2,0.02,3.94-0.7,5.38-2.01L98.54,77.14z"/>
			<path class="st3" d="M230.48,83.78h-14.19V60.87c0-0.8-0.34-1.57-0.93-2.13c-0.6-0.57-1.41-0.88-2.26-0.88s-1.66,0.32-2.26,0.88
				c-0.6,0.57-0.93,1.33-0.93,2.13V86.8c0,0.8,0.34,1.57,0.94,2.13c0.6,0.57,1.41,0.88,2.26,0.89h17.37c0.85,0,1.66-0.32,2.26-0.88
				c0.6-0.57,0.93-1.33,0.93-2.13c0-0.8-0.34-1.57-0.93-2.13c-0.6-0.57-1.41-0.88-2.26-0.88H230.48z"/>
			<path class="st3" d="M258.32,57.86h-17.8c-0.85,0-1.66,0.32-2.26,0.88c-0.6,0.57-0.94,1.33-0.94,2.13c0,0.8,0.34,1.57,0.94,2.13
				c0.6,0.57,1.41,0.88,2.26,0.88h17.84c0.85,0,1.66-0.32,2.26-0.88c0.6-0.57,0.93-1.33,0.93-2.13c0-0.8-0.34-1.57-0.93-2.13
				c-0.6-0.57-1.41-0.88-2.26-0.88H258.32z"/>
			<path class="st3" d="M254.12,76.85c0.85,0,1.66-0.32,2.26-0.88c0.6-0.57,0.93-1.33,0.93-2.13c0-0.8-0.34-1.57-0.93-2.13
				c-0.6-0.57-1.41-0.88-2.26-0.88h-9.44c-0.85,0-1.66,0.32-2.26,0.88c-0.6,0.57-0.93,1.33-0.93,2.13c0,0.8,0.34,1.57,0.93,2.13
				c0.6,0.57,1.41,0.88,2.26,0.88H254.12z"/>
			<path class="st3" d="M258.32,83.78h-17.8c-0.85,0-1.66,0.32-2.26,0.88c-0.6,0.57-0.94,1.33-0.94,2.13c0,0.8,0.34,1.57,0.94,2.13
				c0.6,0.57,1.41,0.88,2.26,0.88h17.84c0.85,0,1.66-0.32,2.26-0.88c0.6-0.57,0.93-1.33,0.93-2.13c0-0.8-0.34-1.57-0.93-2.13
				c-0.6-0.57-1.41-0.88-2.26-0.88H258.32z"/>
			<path class="st3" d="M170.12,57.86c-0.85,0-1.66,0.32-2.26,0.88c-0.6,0.57-0.94,1.33-0.94,2.13v9.86h-13.63v-9.86
				c0-0.4-0.08-0.79-0.24-1.16s-0.4-0.7-0.69-0.98c-0.3-0.28-0.65-0.5-1.04-0.65s-0.8-0.23-1.22-0.23h-28.85
				c-0.85,0-1.66,0.32-2.26,0.88c-0.6,0.57-0.94,1.33-0.94,2.13c0,0.8,0.34,1.57,0.94,2.13c0.6,0.57,1.41,0.88,2.26,0.88h9V86.8
				c0,0.4,0.08,0.79,0.24,1.15c0.16,0.37,0.4,0.7,0.69,0.98c0.3,0.28,0.65,0.5,1.04,0.65c0.39,0.15,0.8,0.23,1.22,0.23
				c0.42,0,0.83-0.08,1.22-0.23c0.39-0.15,0.74-0.37,1.04-0.65c0.3-0.28,0.53-0.61,0.69-0.98c0.16-0.37,0.24-0.76,0.24-1.15V63.89
				h10.27V86.8c0,0.8,0.34,1.57,0.94,2.13c0.6,0.57,1.41,0.88,2.26,0.88c0.85,0,1.66-0.32,2.26-0.88c0.6-0.57,0.94-1.33,0.94-2.13
				V76.74h13.63V86.8c0,0.8,0.34,1.57,0.94,2.13c0.6,0.57,1.41,0.88,2.26,0.88c0.85,0,1.66-0.32,2.26-0.88
				c0.6-0.57,0.94-1.33,0.94-2.13V60.87c0-0.4-0.08-0.79-0.24-1.16c-0.16-0.37-0.4-0.7-0.69-0.98c-0.3-0.28-0.65-0.5-1.04-0.65
				C170.95,57.93,170.54,57.86,170.12,57.86z"/>
			<path class="st3" d="M285.27,70.82h-11.35c-0.57,0-1.11-0.21-1.51-0.59c-0.4-0.38-0.62-0.89-0.62-1.42V65.9
				c0-0.53,0.22-1.05,0.62-1.42c0.4-0.38,0.94-0.59,1.51-0.59h11.81c0.85,0,1.66-0.32,2.26-0.88c0.6-0.57,0.93-1.33,0.93-2.13
				c0-0.8-0.34-1.57-0.93-2.13c-0.6-0.57-1.41-0.88-2.26-0.88h-11.78c-2.26,0-4.42,0.85-6.02,2.36c-1.6,1.51-2.49,3.56-2.49,5.69
				v2.91c0,2.13,0.9,4.18,2.49,5.69c1.6,1.51,3.76,2.36,6.02,2.36h11.35c0.56,0,1.11,0.21,1.5,0.59c0.4,0.38,0.62,0.89,0.62,1.42
				v2.91c0,0.53-0.22,1.05-0.62,1.42c-0.4,0.38-0.94,0.59-1.5,0.59h-16.67c-0.85,0-1.66,0.32-2.26,0.88
				c-0.6,0.57-0.93,1.33-0.93,2.13c0,0.8,0.34,1.57,0.93,2.13c0.6,0.57,1.41,0.88,2.26,0.88h16.64c2.26,0,4.42-0.85,6.02-2.36
				c1.6-1.51,2.49-3.56,2.49-5.69v-2.92c0-2.13-0.9-4.18-2.5-5.69C289.7,71.67,287.53,70.82,285.27,70.82z"/>
			<path class="st3" d="M194.2,59.69c-0.25-0.54-0.65-1.01-1.18-1.33c-0.52-0.33-1.13-0.5-1.76-0.5c-0.63,0-1.24,0.17-1.76,0.5
				c-0.52,0.33-0.93,0.79-1.18,1.33l-11.66,25.93c-0.21,0.46-0.29,0.96-0.24,1.46c0.05,0.5,0.23,0.97,0.52,1.39
				c0.29,0.42,0.69,0.76,1.15,0.99c0.46,0.24,0.98,0.36,1.51,0.36h23.31c0.53,0,1.05-0.12,1.51-0.36c0.46-0.24,0.86-0.58,1.15-0.99
				c0.29-0.42,0.47-0.89,0.52-1.39c0.05-0.5-0.04-1-0.24-1.46L194.2,59.69z M184.47,83.78l6.82-15.19l6.82,15.19H184.47z"/>
		</g>
	</g>
	<rect class="st1" width="377.22" height="149.08"/>
</g>
</svg>
