<?xml version="1.0" encoding="UTF-8" standalone="no"?>
<svg width="180px" height="180px" viewBox="0 0 180 180" version="1.1" xmlns="http://www.w3.org/2000/svg" xmlns:xlink="http://www.w3.org/1999/xlink">
    <!-- Generator: Sketch 3.8.3 (29802) - http://www.bohemiancoding.com/sketch -->
    <title>canada</title>
    <desc>Created with Sketch.</desc>
    <defs></defs>
    <g id="Page-1" stroke="none" stroke-width="1" fill="none" fill-rule="evenodd">
        <g id="flags" transform="translate(-1800.000000, -990.000000)">
            <g id="canada" transform="translate(1800.000000, 990.000000)">
                <path d="M150,157.083197 C134.077306,171.334394 113.050634,180 90,180 C66.9493662,180 45.9226944,171.334394 30,157.083197 L30,22.916803 C45.9226944,8.66560617 66.9493662,0 90,0 C113.050634,0 134.077306,8.66560617 150,22.916803 L150,157.083197 L150,157.083197 L150,157.083197 L150,157.083197 L150,157.083197 Z" id="white" fill="#FFFFFF"></path>
                <path d="M150,157.083197 C168.412481,140.603581 180,116.654996 180,90 C180,63.3450038 168.412481,39.3964193 150,22.916803 L150,157.083197 L150,157.083197 L150,157.083197 L150,157.083197 L150,157.083197 Z M30,22.916803 C11.5875189,39.3964193 0,63.3450038 0,90 C0,116.654996 11.5875189,140.603581 30,157.083197 L30,22.916803 L30,22.916803 L30,22.916803 L30,22.916803 L30,22.916803 Z" id="red" fill="#E94B35"></path>
                <path d="M89.9985383,50.0625 L83.5397876,62.1088882 C82.8069048,63.4181301 81.4938005,63.2966955 80.1806943,62.5654429 L75.5047309,60.1441384 L78.989799,78.6471379 C79.7226818,82.0275312 77.371266,82.0275312 76.2108306,80.5659081 L68.0503651,71.4303874 L66.7255279,76.069622 C66.572751,76.6788531 65.9010172,77.3187373 64.8932583,77.1663562 L54.5742565,74.9967628 L57.2846086,84.8505688 C57.8648225,87.043151 58.317403,87.9509551 56.6988586,88.5292378 L53.0208333,90.2578985 L70.7843271,104.686685 C71.4874165,105.232251 71.8426455,106.214037 71.5923412,107.102976 L70.037657,112.204955 C76.1538905,111.499932 81.6341306,110.439243 87.7534615,109.785996 C88.2936731,109.728327 89.1980522,110.619835 89.1943431,111.245866 L88.383951,129.9375 L91.3576942,129.9375 L90.8895921,111.285951 C90.8858623,110.659921 91.7063231,109.728327 92.2465347,109.785996 C98.3658656,110.439245 103.846113,111.499932 109.962345,112.204955 L108.407664,107.102976 C108.15736,106.214037 108.512587,105.232251 109.215677,104.686685 L126.979167,90.2578985 L123.301145,88.5292378 C121.682597,87.9509551 122.135177,87.043151 122.715391,84.8505688 L125.425749,74.9967628 L115.106742,77.1663562 C114.098983,77.3187373 113.427249,76.6788531 113.274468,76.069622 L111.949633,71.4303874 L103.789171,80.5659081 C102.628732,82.0275312 100.277314,82.0275312 101.010197,78.6471379 L104.49526,60.1441384 L99.8193057,62.5654429 C98.5061673,63.2966955 97.1930952,63.4181301 96.4602105,62.1088882" id="emblem" fill="#E94B35"></path>
            </g>
        </g>
    </g>
</svg>