<?xml version="1.0" encoding="UTF-8" standalone="no"?>
<svg width="180px" height="180px" viewBox="0 0 180 180" version="1.1" xmlns="http://www.w3.org/2000/svg" xmlns:xlink="http://www.w3.org/1999/xlink">
    <!-- Generator: Sketch 3.8.3 (29802) - http://www.bohemiancoding.com/sketch -->
    <title>denmark</title>
    <desc>Created with Sketch.</desc>
    <defs></defs>
    <g id="Page-1" stroke="none" stroke-width="1" fill="none" fill-rule="evenodd">
        <g id="flags" transform="translate(-1800.000000, -1530.000000)">
            <g id="denmark" transform="translate(1800.000000, 1530.000000)">
                <circle id="white" fill="#FFFFFF" cx="90" cy="90" r="90"></circle>
                <path d="M49.9999943,170.644802 C62.0495853,176.632938 75.6315827,180 90,180 C136.325539,180 174.47627,144.999507 179.450712,100 L179.450712,100 L50,100 L50,170.644805 L50,170.644805 L49.9999943,170.644802 L49.9999943,170.644802 L49.9999943,170.644802 Z M30,157.083197 C13.9223855,142.693343 3.04855005,122.608679 0.549287698,100 L30,100 L30,157.083197 L30,157.083197 L30,157.083197 L30,157.083197 L30,157.083197 Z M49.9999943,9.35519833 C62.0495852,3.36706168 75.6315827,0 90,0 C136.325539,0 174.47627,35.0004935 179.450712,80 L179.450712,80 L50,80 L50,9.35519552 L50,9.35519552 L49.9999943,9.35519833 L49.9999943,9.35519833 L49.9999943,9.35519833 Z M30,22.916803 C13.9223855,37.3066571 3.04855005,57.3913208 0.549287698,80 L30,80 L30,22.916803 L30,22.916803 L30,22.916803 L30,22.916803 L30,22.916803 Z" id="red" fill="#E94B35"></path>
            </g>
        </g>
    </g>
</svg>