<?xml version="1.0" encoding="UTF-8" standalone="no"?>
<svg width="180px" height="180px" viewBox="0 0 180 180" version="1.1" xmlns="http://www.w3.org/2000/svg" xmlns:xlink="http://www.w3.org/1999/xlink">
    <!-- Generator: Sketch 3.8.3 (29802) - http://www.bohemiancoding.com/sketch -->
    <title>france</title>
    <desc>Created with Sketch.</desc>
    <defs></defs>
    <g id="Page-1" stroke="none" stroke-width="1" fill="none" fill-rule="evenodd">
        <g id="flags" transform="translate(-990.000000, -2070.000000)">
            <g id="france" transform="translate(990.000000, 2070.000000)">
                <path d="M60,174.879484 C69.3825591,178.19561 79.479186,180 89.9972382,180 C100.517354,180 110.61588,178.194901 120,174.877528 L120,5.12246865 C110.61588,1.80509864 100.517354,0 89.9972382,0 C79.479186,0 69.3825591,1.80439039 59.9999996,5.12052001 L60,174.879484 L60,174.879484 Z" id="white" fill="#FFFFFF"></path>
                <path d="M0,90 C0,129.186565 25.0442286,162.523736 59.9999996,174.878829 L60,5.12116759 C25.0442286,17.4762637 0,50.8134354 0,90 Z" id="blue" fill="#227FBB"></path>
                <path d="M180,90 C180,50.8134354 154.955771,17.4762637 120,5.12117139 L120,174.878832 C154.955771,162.523736 180,129.186565 180,90 Z" id="red" fill="#E94B35"></path>
            </g>
        </g>
    </g>
</svg>