<?xml version="1.0" encoding="UTF-8" standalone="no"?>
<svg width="180px" height="180px" viewBox="0 0 180 180" version="1.1" xmlns="http://www.w3.org/2000/svg" xmlns:xlink="http://www.w3.org/1999/xlink">
    <!-- Generator: Sketch 3.8.3 (29802) - http://www.bohemiancoding.com/sketch -->
    <title>hungary</title>
    <desc>Created with Sketch.</desc>
    <defs></defs>
    <g id="Page-1" stroke="none" stroke-width="1" fill="none" fill-rule="evenodd">
        <g id="flags" transform="translate(-1260.000000, -2610.000000)">
            <g id="hungary" transform="translate(1260.000000, 2610.000000)">
                <path d="M174.878829,120 C162.523738,154.955772 129.186567,180 90,180 C50.8134331,180 17.4762623,154.955772 5.12117078,120 L174.878833,120 L174.878833,120 L174.878829,120 L174.878829,120 L174.878829,120 Z" id="green" fill="#1AAF5D"></path>
                <path d="M174.878829,120.000001 C178.195374,110.616633 180,100.519063 180,90 C180,79.480937 178.195374,69.3833673 174.878829,59.9999996 L5.12116698,60 C1.80462645,69.3833673 0,79.480937 0,90 C0,100.519063 1.80462645,110.616633 5.12117078,120 L174.878833,120 L174.878833,120 L174.878829,120.000001 L174.878829,120.000001 L174.878829,120.000001 Z" id="white" fill="#FFFFFF"></path>
                <path d="M174.878829,59.9999996 C162.523738,25.0442275 129.186567,0 90,0 C50.8134331,0 17.4762623,25.0442275 5.12117078,59.9999996 L174.878833,60 L174.878833,60 L174.878829,59.9999996 L174.878829,59.9999996 L174.878829,59.9999996 Z" id="red" fill="#E94B35"></path>
            </g>
        </g>
    </g>
</svg>