<?xml version="1.0" encoding="UTF-8" standalone="no"?>
<svg width="180px" height="180px" viewBox="0 0 180 180" version="1.1" xmlns="http://www.w3.org/2000/svg" xmlns:xlink="http://www.w3.org/1999/xlink">
    <!-- Generator: Sketch 3.8.3 (29802) - http://www.bohemiancoding.com/sketch -->
    <title>kazakhstan</title>
    <desc>Created with Sketch.</desc>
    <defs></defs>
    <g id="Page-1" stroke="none" stroke-width="1" fill="none" fill-rule="evenodd">
        <g id="flags" transform="translate(-2340.000000, -2880.000000)">
            <g id="kazakhstan" transform="translate(2340.000000, 2880.000000)">
                <path d="M90,180 C139.70563,180 180,139.70563 180,90 C180,40.2943701 139.70563,0 90,0 C40.2943701,0 0,40.2943701 0,90 C0,139.70563 40.2943701,180 90,180 L90,180 Z" id="aqua" fill="#4BB7C0"></path>
                <g id="bird" transform="translate(41.000000, 52.000000)" fill="#F2C500">
                    <ellipse id="Oval" cx="49" cy="21" rx="21" ry="21"></ellipse>
                    <polygon id="Shape" points="47.6374524 58.5177358 47.2347639 59.451741 46.9931602 59.8984357 46.791816 60.3045304 46.6307468 60.6294093 46.4294026 60.8324567 45.9461795 60.426362 45.4226814 60.060883 44.8589238 59.7766199 44.2549067 59.5329568 43.6105989 59.3705252 42.9663068 59.2080936 42.3220146 59.0862668 41.6374473 59.0050478 40.2280533 58.883221 38.8186593 58.8426115 37.4495247 58.7613926 36.1609247 58.598961 35.436098 58.4771342 34.7515307 58.3147026 34.3891173 58.1928742 34.026704 58.0710474 33.7045501 57.9086158 33.4226713 57.7461842 32.9797233 57.4619211 32.5367754 57.1370422 32.0535523 56.7715632 31.6106044 56.3654685 30.6844334 55.4720634 29.7582624 54.5786582 28.8320914 53.7258688 27.986455 52.9542951 27.5837666 52.670032 27.1810781 52.3857689 26.8186647 52.2233373 26.4562513 52.1015104 25.7716841 51.9390789 25.1676514 51.7360315 24.5636187 51.5329842 23.959586 51.248721 23.4360878 51.0050737 22.9126053 50.6801948 22.4293823 50.3553159 21.9864343 50.030437 21.5032113 49.664958 21.1005228 49.2994791 20.6978344 48.8933844 20.2951459 48.4872897 19.5300441 47.6345003 18.8052173 46.7410951 17.3555482 44.8324689 15.8253445 42.883227 14.939433 41.9492218 14.013262 41.0152166 13.4897795 40.5279061 12.966297 40.0812114 12.4025394 39.6751167 11.7985067 39.228422 11.5568952 39.3908583 11.4360902 39.5532899 11.3555525 39.7563372 11.2347475 40.1218161 11.1944787 40.2842477 10.9125999 40.1624209 10.6709805 40.0405925 10.3891017 39.9187656 10.1474824 39.8375467 9.6239999 39.8375467 9.34212109 39.9187656 9.06024229 40.0405925 9.34212109 40.4060714 9.70453447 40.8933819 10.0669478 41.4619082 10.3891017 42.0710502 10.7112556 42.7207923 10.952875 43.3299343 11.0334111 43.6548132 11.1139488 43.8984763 11.1542176 44.1827395 11.1542176 44.4264026 10.7112697 44.4264026 8.97975299 44.4264026 9.30190688 44.9137131 9.66432026 45.4010235 10.0670087 45.888334 10.5099567 46.3350288 10.9529046 46.7817235 11.3958526 47.2284182 11.8388005 47.5938971 12.241489 47.8781603 11.798541 47.9187697 11.1945083 47.9593792 10.5904756 48.0405981 10.1475277 48.081206 10.5099411 48.4060849 10.952889 48.7309638 11.436112 49.0964428 11.9595946 49.4619217 12.4830771 49.7868006 13.0065752 50.0710637 13.4897982 50.2334953 13.9327462 50.3553222 14.1340904 50.3959316 14.2951596 50.4365411 14.4965022 50.5583679 14.5367695 50.761409 14.4159645 51.0862753 14.3756957 51.3299384 14.3354269 51.49237 14.3354269 51.6141984 14.3756957 51.8172457 14.4159645 51.9796773 14.6173072 52.1421136 14.7783764 52.223331 14.9797206 52.2639405 15.1810648 52.3451594 15.3824091 52.4263768 15.5837533 52.5075957 15.7448224 52.6294225 15.7850913 52.7512494 15.5837533 52.9136872 15.4226842 53.0355141 15.261615 53.1979457 15.1005459 53.400993 15.1005459 53.5634246 15.0602786 53.7258562 15.1005459 53.9289035 15.1408147 54.1725666 15.825382 54.4162297 16.5502087 54.6598771 16.8723626 54.7410961 17.1945165 54.8629229 17.4361358 54.9847513 17.6374801 55.1065781 16.3086206 56.1624149 16.671034 56.4872938 17.113982 56.7309569 17.6777396 57.0152201 18.2414972 57.2182674 18.8857894 57.4213147 19.4898221 57.5431416 20.0133046 57.6649684 20.4965276 57.6649684 20.0535797 57.9898473 19.4898221 58.3553262 18.8857894 58.6802052 18.4428414 59.0050841 18.8455299 59.2893472 19.4092875 59.5736103 20.0535797 59.8984892 20.8186815 60.2639682 22.5904733 61.0355418 24.5233654 61.8071154 26.5368078 62.5380733 28.509975 63.1878153 29.3958865 63.4720785 30.2012634 63.6751258 30.9260902 63.8781732 31.5703824 64 30.281798 63.8781732 29.0737482 63.7157416 27.8656984 63.5126942 26.7381832 63.2690311 25.610668 62.9441522 24.5234123 62.6192733 23.4764316 62.2537944 22.4697261 61.8476997 20.4965588 61.0355103 18.6442169 60.2233209 17.7583054 59.857842 16.8723939 59.4923631 16.0267574 59.1674842 15.181121 58.8426052 15.3824653 58.7207784 15.6240846 58.6395595 15.9462385 58.5177326 16.3086519 58.4365137 17.0737537 58.1928506 17.758321 57.9492032 16.5502712 57.7461559 14.8993047 57.421277 14.0939277 57.1776138 13.4093605 56.9745665 13.1274817 56.8527397 12.8858623 56.7309113 12.6845181 56.6090844 12.5637131 56.487256 12.7247869 56.3654292 12.8455919 56.2842118 13.1677458 56.1623834 13.6106938 56.0405566 14.5771398 55.7562934 15.3825168 55.4720303 13.4093495 55.1065514 11.8791458 54.8628883 11.3153882 54.7410614 10.8724403 54.5786298 10.7113712 54.4974109 10.550302 54.3755841 10.4294955 54.2943651 10.3489593 54.1725383 10.4697643 54.0913194 10.8321777 54.010102 11.3556602 53.9288831 11.9596929 53.8070562 12.6039851 53.7258373 13.1677427 53.5634057 13.4496215 53.4821883 13.6912408 53.4009694 13.85231 53.2791426 14.0133791 53.1573142 13.6912252 53.0354873 13.3690713 52.9136605 12.9663829 52.8324415 12.5636944 52.7512226 11.6375234 52.6293958 10.7113524 52.5075689 10.2281294 52.3857405 9.78518143 52.3045232 9.34223349 52.1420916 8.89928554 51.97966 8.49659707 51.7766127 8.1341837 51.4923495 7.8120298 51.2080864 7.57041048 50.8426075 7.81201575 50.7613885 8.01335999 50.7613885 8.33551388 50.801998 9.06034063 50.8426075 9.86571757 50.8832153 10.7516291 50.9644343 11.8791443 50.9644343 12.2012982 50.9238248 12.4429175 50.8426075 12.6039866 50.7613885 11.6375406 50.3552938 10.3489562 49.7867675 9.62412946 49.4212886 8.85902762 49.0558097 8.09392578 48.649715 7.32882394 48.2436203 6.60399719 47.7969256 5.91942991 47.3096151 5.27513774 46.8223046 4.71138013 46.3349941 4.46977641 46.050731 4.22815709 45.8070836 4.06708795 45.5634205 3.9060188 45.2791574 3.74494966 45.03551 3.66441353 44.7512468 3.62414468 44.5075837 3.58387584 44.2233206 3.86575464 44.2233206 4.18790854 44.2639301 4.51006243 44.3857569 4.83221633 44.5075837 5.47650851 44.9136784 6.20133526 45.3197731 6.52348915 45.5228205 6.88590253 45.7258678 7.2483159 45.8882994 7.5704698 46.0101262 7.93288317 46.0913452 8.25503707 46.1319546 8.61745044 46.1319546 8.93960434 46.0101262 7.97315827 45.2791684 6.88590253 44.3451632 5.63757765 43.2487106 4.38925277 42.0304423 3.14092789 40.7309582 1.97313758 39.431474 1.44965506 38.7411162 0.926172545 38.0913741 0.483224599 37.4416321 0.0805361322 36.83249 0 36.6700585 0 36.3857953 0.0402672856 36.2639669 0.0805361322 36.1421401 0.201342672 36.0609227 0.322147651 35.9390943 0.44295263 35.8578769 0.604021772 35.8172675 0.765090915 35.776658 1.08724481 35.776658 1.28858904 35.8172675 1.44965819 35.8578769 1.61072733 35.9797038 1.73153231 36.1015306 2.45635906 36.8324885 3.30199547 37.6852779 4.18790697 38.6192831 5.15435305 39.5532883 6.12079912 40.4060777 7.0872452 41.2182671 7.57046824 41.543146 8.01341618 41.8274091 8.49663922 42.0710565 8.93958717 42.2334881 8.61743327 42.0304407 8.2550199 41.6649618 7.77179686 41.1776513 7.24831434 40.5685093 6.08052403 39.1471936 4.79193967 37.482262 4.14764749 36.5888568 3.54361479 35.6954516 2.97985719 34.8020465 2.41609958 33.9492571 1.93287654 33.1370677 1.53018807 32.4061098 1.24830927 31.715752 1.00668994 31.1472257 0.966421098 30.9441784 0.966421098 30.6192994 1.00668994 30.497471 1.08722764 30.3756442 1.16776377 30.2538174 1.36910644 30.0913795 1.65098525 30.0101621 1.89258896 29.9289432 2.45634657 29.9289432 2.61741571 29.9695527 2.89928983 30.0913795 3.02009481 30.2132079 3.34224871 30.497471 3.6644026 30.9035657 4.38922935 31.8375709 5.1543312 33.0152393 6.0402427 34.2741234 6.96641368 35.5736075 7.44963672 36.1827495 7.93285976 36.7918916 8.45634228 37.3198021 9.02009989 37.8071126 8.33553261 36.4670127 7.57043077 34.9238654 7.16774231 34.071076 6.80532893 33.2182866 6.44291555 32.3248814 6.12076166 31.4314762 5.83888286 30.497471 5.55700405 29.6040659 5.35565982 28.7106607 5.19459068 27.8172555 5.11405298 26.9644661 5.07378414 26.1522767 5.11405298 25.746182 5.15432183 25.3807031 5.19459068 25.0152241 5.27512681 24.6497452 5.3556645 24.5279184 5.39593335 24.4060915 5.51673833 24.2842631 5.87915326 24.0812174 6.16103207 24 6.44291087 24 6.6845302 24.0406095 6.88587287 24.1218268 6.966409 24.3248726 7.36909747 25.6243567 7.73151084 27.0050724 8.09392422 28.4263881 8.45633759 29.8071038 8.81875097 31.1878194 9.30197401 32.4873036 9.54357772 33.0964456 9.82545652 33.7055876 10.1476104 34.2741139 10.5100238 34.8426402 10.2684045 33.6649719 10.1073353 32.6091351 9.94626619 31.6345141 9.86573005 30.741109 9.78519236 29.9695353 9.74492351 29.2791775 9.78519236 28.7106512 9.82546121 28.2233407 9.90599734 27.8172461 10.0268039 27.4923671 10.10734 27.3705403 10.1878777 27.2487135 10.3892204 27.0862756 10.8724387 27.0456677 11.1945926 27.1674945 11.5167465 27.3299261 11.7986253 28.6294103 12.0805041 29.8882944 12.402658 31.0659627 12.7650714 32.2030152 13.1677599 33.3400678 13.6107078 34.4771203 14.0939309 35.6547887 14.6576885 36.832457 15.0603769 37.6040306 15.4630654 38.3756042 15.9060133 39.1471778 16.3489613 39.9187515 16.8321843 40.6497093 17.3154074 41.3806672 17.8389055 42.111625 18.362388 42.8425829 19.3288341 44.0608512 20.3355396 45.1979038 21.3825203 46.3349563 22.469776 47.3907931 23.5972912 48.4466299 24.7650815 49.4212508 25.9731313 50.355256 27.2214562 51.2486612 28.0670926 51.8171875 28.9530041 52.3451137 29.8791751 52.8730243 30.7650866 53.3603347 32.1744806 54.0506926 33.5436152 54.7004346 34.9932843 55.2689609 36.4429378 55.7968714 37.8120723 56.2435661 39.2214664 56.6090451 40.6711355 56.933924 42.0805295 57.2181871 43.5704737 57.4212345 45.0201428 57.583666 46.5100714 57.7054929 48 57.7867118"></polygon>
                    <path d="M52.5871548,70.5655858 L53,70.7295199 L52.8348523,70.8114878 L52.1743096,70.9344381 L51.6376236,70.9344381 L49.9037249,70.8114878 L47.798208,70.7705039 L45.5275273,70.7295199 L43.1742648,70.7705039 L42.0595859,70.8114878 L40.944923,70.8934541 L39.9541009,70.975422 L39.0045697,71.0573899 L38.2201702,71.1803402 L37.5183366,71.3442696 L37.2706231,71.4262375 L37.0229255,71.5082038 L36.8165029,71.5901717 L36.6513712,71.7131219 L36.7339371,71.3032825 L36.8990688,70.893443 L36.6100803,70.9754109 L36.3210919,71.0573788 L36.0733943,71.180329 L35.8256808,71.3032793 L35.6192582,71.4262311 L35.4541265,71.5901605 L35.330273,71.7950803 L35.28899,72 L35.1651365,71.7131156 L35.082569,71.4672055 L35.0412845,71.1803211 L35,70.9344111 L35.0412845,70.7294913 L35.082569,70.4835972 L35.123852,70.2786775 L35.2477055,70.0737578 L35.330273,69.9098283 L35.4954047,69.7049086 L35.6605363,69.5409792 L35.825668,69.3770498 L36.2797881,69.0901653 L36.7751992,68.8032809 C37.04271,68.9643505 37.3434775,69.0810934 37.6421805,69.17213 C37.9011771,69.2062425 38.2093386,69.1645675 38.5091459,69.0901621 C39.0129592,69.5306013 39.6867374,69.4763924 40.1191718,69.0081942 C40.1981047,68.9227422 40.2933779,68.7918195 40.3255944,68.6803195 C40.3938845,68.4439421 40.380729,68.1343065 40.3255944,67.8606406 L40.8210054,67.8196567 L41.3989823,67.7376888 L42.0182502,67.5737593 L42.6787929,67.4098299 L43.3393356,67.2868797 L43.9586034,67.1229502 L44.5365803,67.0409839 L45.0319914,67 L44.8255688,67.1639294 L44.3301577,67.5327786 L43.7521808,67.9835924 L43.3393356,68.2704769 L43.8760376,68.3934287 L44.3301577,68.475395 L43.9998944,68.8442442 L43.669615,69.2130933 L43.3393356,69.5819425 L43.0916381,69.9098172 L43.4219015,70.0327675 L43.7521808,70.1147353 L44.1237351,70.1967016 L44.8668597,70.1967016 L45.238414,70.1147353 L45.6099683,70.0327675 L45.8989567,69.868838 L46.2292361,70.0327675 L46.5594995,70.1557177 L46.8897788,70.2376856 L47.2200582,70.3196535 L47.9631668,70.4016198 L48.7475663,70.4835877 L51.8851963,70.4835877 L52.5871548,70.5655858 Z" id="Shape"></path>
                    <polygon id="Shape" points="39.882357 68.1250009 40 68.4999988 39.882357 68.8749991 39.705881 69 39.294119 69 39.176476 68.8749991 39 68.4999988 39.176476 68.1250009 39.5294279 68"></polygon>
                    <polyline id="Shape" points="39.1213475 68 39.2022406 68.0405061 39.242695 68.1215168 39.2022406 68.202529 39.1213475 68.2430351 39.0404544 68.202529 39 68.1215168 39.0404544 68.0405061 39.1213475 68"></polyline>
                    <path d="M70.0049535,72.2297803 L69.7175133,72.351401 L69.4300731,72.3919418 L69.1837027,72.4324826 L68.978386,72.3919418 L68.7730693,72.351401 L68.5677526,72.2703211 L68.4035056,72.1892395 L68.1981889,72.0676188 L67.8696791,71.8243678 L67.5411851,71.5811169 L67.3769222,71.4594962 L67.1716055,71.3784162 L67.0073586,71.3378754 L66.8020419,71.3378754 L66.4324782,72.1081438 L65.9397214,73.0811161 L65.7754744,73.3243671 L65.6112115,73.5270709 L65.4469645,73.6486917 L65.2827175,73.770314 L65.0774008,73.851394 L64.8720842,73.851394 L64.6667675,73.770314 L64.420397,73.6486917 L64.3382735,73.5270709 L64.2561341,73.4054502 L64.1740106,73.2432934 L64.0918871,73.0405895 L64.0097637,72.6757288 L63.9686939,72.4324779 L63.7223235,72.6351818 L63.4759371,72.918964 L63.2706363,73.2432934 L63.0242499,73.608154 L62.7368098,73.9730147 L62.4493696,74.256797 L62.2851226,74.4189538 L62.0798059,74.5405761 L61.8744893,74.6216561 L61.6281029,74.7027377 L61.5049256,74.7027377 L61.2996089,74.7432784 L61.0942922,74.7027377 L60.9300453,74.6216561 L60.4372884,74.0540916 L59.9034619,73.486527 L59.5338982,74.0540916 L59.1232648,74.5405777 L58.9179481,74.7432816 L58.7126315,74.9459854 L58.5073148,75.1081423 L58.302014,75.229763 L58.1377511,75.3108446 L57.9324344,75.3513838 L57.7271178,75.3513838 L57.5628708,75.3108446 L57.3986238,75.229763 L57.2754306,75.1081423 L57.1111836,74.9054384 L57.0290601,74.6621875 L56.9469207,74.4189365 L56.7826738,74.0135288 L56.74162,73.8108249 L56.6594806,73.6486681 L56.5773571,73.5675881 L56.4952336,73.5675881 L55.3865267,75.3513445 L55.2222797,75.5135013 L54.9348395,75.6351236 L54.6063297,75.7162036 L54.2778357,75.7972851 L53.908272,75.7972851 L53.6208319,75.7162036 L53.5386925,75.6756644 L53.4155152,75.5540421 L53.3744455,75.4729621 L53.3744455,75.3108053 L53.5386925,73.5270489 L53.4155152,73.5675897 L53.2512523,73.6486697 L53.0870053,73.7297512 L52.9227583,73.891908 L52.5942485,74.2567687 L52.2246848,74.6621765 L51.8551211,75.1081155 L51.4034181,75.4729762 L51.1981014,75.635133 L50.9928006,75.7972898 L50.7464142,75.9189106 L50.5410976,75.9594514 L50.2536574,75.9999921 L50.0483407,75.9594514 L49.9662172,75.9189106 L49.8840937,75.8378306 L49.843024,75.7162083 L49.843024,75.5945875 L49.8840937,75.0675701 L49.9662172,74.5405526 L50.0072869,74.2567703 L49.9662172,74.0135194 L49.9251634,73.7702841 L49.7609005,73.4865019 L49.5145301,73.8513625 L49.1038967,74.3783958 L48.6111399,74.9054132 L48.0773292,75.4324307 L47.7898731,75.6351346 L47.502433,75.8378385 L47.2560625,75.9189185 L47.0507458,76 L46.9686223,75.9594592 L46.8454291,75.9594592 L46.7633056,75.8783792 L46.7222359,75.8378385 L46.6401124,75.7162162 L46.5990587,75.5945954 L46.5990587,75.4324386 L46.557989,75.2297347 L46.5990587,73.6891979 L45.5724752,74.3783879 L44.3405911,75.1486563 L44.0531509,75.2702786 L43.724641,75.4324354 L43.4372009,75.5135154 L43.1087069,75.594597 L42.8212667,75.6756785 L42.5338106,75.6756785 L42.2463705,75.6351377 L42,75.5540562 L42.1231932,75.2297269 L42.2463705,74.9459446 L42.3695637,74.6621623 L42.5338106,74.4189114 L42.6980735,74.1756762 L42.8623205,73.9324252 L43.0676372,73.7297214 L43.2729539,73.5270175 L43.724641,73.2026882 L44.2584676,72.8783588 L44.7922782,72.6351079 L45.4082283,72.432404 L46.0241783,72.2702472 L46.7222359,72.1486249 L47.4203095,72.0270041 L48.118383,71.9459242 L49.6377233,71.8648426 L51.1981014,71.8243018 L54.3189213,71.8243018 L55.0991183,71.7837611 L55.8382616,71.7432219 L56.5773889,71.7026811 L57.2754624,71.6215995 L57.973536,71.4999788 L58.589486,71.378358 L59.2054202,71.2162012 L59.7803005,70.972966 L60.3141271,70.7297151 L60.7658142,70.4053857 L61.2175173,70.0810564 L61.5870809,69.6351173 L61.1764476,68.8243018 L61.5049574,68.7837611 L61.8334514,68.7026811 L62.1619613,68.5405243 L62.4494014,68.3378204 L62.5725946,68.2567389 L62.6957719,68.1351181 L62.7779113,67.9729613 L62.8600348,67.851339 L62.9010886,67.6891822 L62.9010886,67.4053999 L62.8189651,67.2432431 L63.5170386,67.1216208 L64.256166,67.0405408 L65.036363,67 L65.8576297,67 L67.5411692,67.0810815 L69.2657784,67.2027023 L71.0314573,67.4054062 L72.7560665,67.567563 L74.439606,67.7297198 L76,67.8108013 L76,68.3783659 L75.9589303,68.6216011 L75.8768068,68.864852 L75.7946833,69.108103 L75.7125598,69.3108068 L75.5893666,69.4729636 L75.4251197,69.6756675 L75.1376795,69.9594498 L74.7680999,70.2027007 L74.3985362,70.3648575 L73.9879029,70.4459391 L73.5362157,70.5270191 L73.0845286,70.4864783 L72.6738952,70.4459391 L72.2222081,70.3243168 L71.8115747,70.1216129 L71.4009413,69.918909 L71.0724315,69.6351267 L70.7439375,69.3107974 L70.7439375,69.9999874 L70.6207443,70.8918813 L70.5386208,71.3378204 L70.4154276,71.7432281 L70.3333041,71.905385 L70.210111,72.0270057 L70.1279875,72.1486265 L70.0047943,72.229708 M37.0000472,68.5916482 L37.934146,69 L38.1778137,68.7958241 L38.5027197,68.5508225 L38.8682291,68.3466466 L39.1931351,68.1424706 L40.4115049,67.6524516 L41.4674297,67.1624326 L41.9954,66.9582567 L42.4421319,66.7132392 L42.8888639,66.4682376 L43.2543732,66.2232202 L44.188472,65.6106924 L45.1225551,64.9981647 L46.0160347,64.4264785 L46.8282761,63.8547922 L47.4374689,63.3647732 L47.92482,62.9155957 L48.4527745,62.4255766 L49.0213639,61.8947319 L49.2244124,61.690556 L49.4680958,61.5272216 L49.7523827,61.3638872 L50.0772887,61.2005528 L50.7676883,60.8738682 L51.4581037,60.6288666 L52.3922025,60.3838491 L53.4075081,60.1388317 L54.4634328,59.9346558 L55.6411993,59.7304799 L57.0626335,59.5671455 L58.4840676,59.3629696 L59.9461209,59.1996352 L61.3675551,58.9546336 L61.8549062,58.8729632 L62.3016539,58.7504592 L62.789005,58.6279537 L63.2763561,58.5054497 L63.7636914,57.892922 L64.5353293,57.0353926 L65.0632996,56.5045479 L65.6724924,56.0145289 L66.3629078,55.4836841 L67.1751491,54.9528394 L68.393519,54.2178188 L69.6931272,53.5644653 L71.0333388,52.8702704 L72.332947,52.2577426 L73.5513168,51.6452149 L74.6884642,51.0735287 L75.6225472,50.5835096 L76.3535817,50.0934906 L76.556646,49.4809628 L76.8409328,48.8684351 L77.2064422,48.2559073 L77.6531742,47.6433796 L78.1405253,46.9900262 L78.7497181,46.3366727 L79.3995143,45.6016521 L80.2117714,44.8257899 L80.9427902,44.1724365 L81.7144281,43.5190831 L82.1205567,43.2332399 L82.5266852,42.9473968 L82.9734171,42.7023794 L83.4201491,42.457362 L83.8668968,42.2531861 L84.3136287,42.0898517 L84.8009798,41.9673477 L85.2477118,41.8448421 L85.7350629,41.8040085 L86.1818106,41.7631733 L86.6691617,41.8040085 L87.1158936,41.8856773 L87.0752745,42.3756964 L86.9534485,42.8657154 L86.7909876,43.3557344 L86.5879391,43.886595 L86.3036365,44.4174397 L85.9381272,44.9482844 L85.4913952,45.5199706 L84.963425,46.0916569 L85.3695535,46.0508217 L85.7350629,45.9691529 L86.0193497,45.8874825 L86.3036365,45.7649786 L86.54732,45.6833082 L86.8316068,45.6016378 L87.1971162,45.5608042 L87.6032447,45.5199691 L87.6438639,45.8058122 L87.6438639,46.0916553 L87.6032447,46.3774984 L87.5220222,46.6225158 L87.4001805,46.8675333 L87.2377353,47.1125349 L87.0752745,47.3167108 L86.872226,47.5208867 L86.0193497,48.3375904 L85.1664892,49.1134525 L85.6538403,49.1542877 L86.1818106,49.3176221 L86.7097651,49.4809565 L87.1158936,49.5626253 L86.6285425,49.9301356 L86.0599689,50.2976459 L85.4913952,50.6651562 L84.841599,51.0326666 L84.191787,51.4001769 L83.5419908,51.8085287 L82.8921946,52.2577062 L82.2830018,52.7477253 L82.5672886,52.7885589 L82.932798,52.9518933 L83.0952589,52.9927285 L83.257704,53.0743988 L83.3795457,53.115234 L83.5013874,53.0743988 L82.6891303,53.5235763 L81.6738247,54.0135954 L81.1864736,54.258597 L80.7803451,54.5036144 L80.5772808,54.62612 L80.4554391,54.7486239 L80.3742165,54.8711279 L80.292994,54.9936334 L80.3335974,55.1569678 L80.4148357,55.2794718 L80.5772808,55.4019758 L80.6991225,55.5244813 L80.6585033,55.6878157 L80.5772808,55.8103197 L80.4148357,55.9328252 L80.2523748,56.0553292 L79.8868654,56.2595051 L79.3995143,56.463681 L78.9121632,56.6270154 L78.4654313,56.7903498 L78.1405253,56.9536842 L77.8968576,57.0761898 L78.7090989,57.8928935 L78.4248121,58.1787366 L78.1405253,58.3829125 L77.8968576,58.5054165 L77.6125708,58.6279204 L77.0439971,58.7095908 L76.2723592,58.7095908 L76.3535817,59.0771011 L76.4754235,59.4446114 L76.556646,59.8529633 L76.6378686,60.2613151 L75.9474532,60.7921598 L75.0945927,61.4046876 L74.1605097,62.0172153 L73.1045849,62.6297431 L72.4953921,62.9564277 L71.8861993,63.2422708 L71.236403,63.4872724 L70.5459877,63.7322898 L69.8149689,63.9773073 L69.043331,64.1406417 L68.2310739,64.3039761 L67.3782134,64.4264816 L68.8808701,64.4673152 L70.1804783,64.4673152 L71.3988482,64.3448113 L72.4953921,64.2223073 L73.5106977,64.0181314 L74.4041773,63.7731139 L75.297657,63.4464293 L76.1505175,63.1197447 L77.2876648,62.5889 L78.3842087,61.9763722 L79.4401335,61.3230188 L80.5366616,60.6696653 L79.8868654,60.3429807 L79.2370692,60.1388048 L78.9121632,60.0163008 L78.587273,59.8529664 L78.2217478,59.689632 L77.8562385,59.4854561 L78.1811444,59.2404387 L78.5466538,59.0771043 L78.9933858,58.9137699 L79.4807369,58.7912643 L80.4554391,58.5870884 L81.4707604,58.4645829 L82.3642243,58.3420789 L83.1764814,58.2604085 L83.5013874,58.1787397 L83.7856742,58.0970694 L83.9481193,58.0154006 L84.0699611,57.892895 L84.0293419,57.8520599 L83.9481193,57.7703911 L83.8262776,57.7295559 L83.6638325,57.6478871 L83.2171006,57.5662167 L82.6485112,57.4845464 L82.0799375,57.4437128 L81.5113638,57.3620424 L81.0240127,57.2395384 L80.6991225,57.1170329 L81.7956507,56.8720313 L82.8921946,56.6270139 L83.8668968,56.4228379 L84.6791381,56.218662 L85.3695535,56.0144861 L85.9787463,55.7694687 L86.2630331,55.6469647 L86.4660974,55.5244607 L86.6691617,55.4019552 L86.8316068,55.2386208 L86.7909876,55.1977872 L86.7097651,55.1161168 L86.54732,55.0752816 L86.3442557,55.0344465 L85.8163012,54.9936129 L85.2071084,54.9936129 L84.5573122,54.9527777 L83.9481193,54.9119425 L83.4201491,54.8302721 L83.0952589,54.7486033 L83.3795457,54.6260994 L83.6638325,54.5035938 L84.6385347,54.2177507 L85.4913952,53.9727333 L86.2630331,53.7685574 L86.9940519,53.5235399 L87.7656899,53.2785383 L88.5373278,52.9518537 L88.9028372,52.7476778 L89.2277432,52.5435019 L89.3495849,52.4209963 L89.4714266,52.2576619 L89.5932525,52.1351579 L89.6338717,52.0126524 L89.5932525,51.8901484 L89.4714266,51.8084796 L89.3495849,51.7676445 L88.2124375,51.7676445 L87.6844673,51.8084796 L86.9534485,51.8084796 L86.7503842,51.7676445 L86.5879391,51.6859741 L86.4254783,51.6043053 L88.0499294,50.5426 L89.5526019,49.562562 L90.8928135,48.7050326 L92.07058,47.888329 L92.5579311,47.4799771 L93.004663,47.0716253 L93.3701724,46.6632735 L93.6950784,46.2549216 L93.9387461,45.8057441 L94.1418103,45.3565666 L94.2636521,44.8665476 L94.2636521,44.3357028 L93.9793652,44.3357028 L93.6950784,44.376538 L93.3701724,44.499042 L93.0452664,44.6215475 L92.3954702,45.0298994 L91.7050548,45.4382512 L91.3395454,45.6424271 L91.0146552,45.846603 L90.6491301,46.0099374 L90.2836207,46.132443 L89.9587304,46.2141118 L89.6338245,46.254947 L89.2683151,46.254947 L88.9434091,46.132443 L89.9181113,45.3974223 L91.0146552,44.4582258 L92.2736285,43.355679 L93.5326175,42.1306393 L94.7916066,40.8239325 L95.969373,39.5172256 L96.4973433,38.8230307 L97.0252978,38.1696772 L97.4720455,37.5163238 L97.8781583,36.903796 L97.9593808,36.7404616 L98,36.6179561 L97.9593808,36.4546217 L97.9187774,36.3321177 L97.8781583,36.2096122 L97.7563323,36.1279434 L97.6344906,36.0054378 L97.5126489,35.9646042 L97.3502038,35.8829339 L97.1877429,35.8420987 L96.8628527,35.8420987 L96.7004076,35.8829339 L96.4973433,35.923769 L96.3755016,36.046273 L96.2130565,36.1687786 L95.4820219,36.9037992 L94.6291614,37.7613286 L93.7356818,38.7005251 L92.7609796,39.6397217 L91.7862931,40.497251 L90.8115909,41.3139547 L90.3242398,41.6406393 L89.8774921,41.9264824 L89.390141,42.1714999 L88.9840282,42.3756758 L89.2683151,42.1306583 L89.6338245,41.763148 L90.1211756,41.273129 L90.6491301,40.6606012 L91.8268965,39.2313857 L93.1265047,37.5572001 L93.776301,36.6588293 L94.3854938,35.7604584 L94.9946708,34.902929 L95.5226411,34.0045582 L96.0099922,33.1878545 L96.416105,32.4528339 L96.741011,31.7586389 L96.9440752,31.1869527 L96.9846944,30.9827768 L96.9846944,30.6560921 L96.9440752,30.5335866 L96.8628527,30.4110826 L96.7816301,30.2885787 L96.7004076,30.2069083 L96.5785658,30.1660731 L96.3348824,30.0435691 L96.0505956,29.9618988 L95.4820219,29.9618988 L95.3195768,30.002734 L95.1977351,30.0435691 L95.03529,30.1252395 L94.9134483,30.2477435 L94.5885423,30.5335866 L94.2636521,30.9419384 L93.5326175,31.881135 L92.7609796,33.065349 L91.9081191,34.3312301 L90.9740361,35.637937 L90.4460658,36.2504648 L89.9587304,36.8629925 L89.4307602,37.3938372 L88.8621865,37.8838563 L89.5932053,36.5363079 L90.3242398,34.9845836 L90.7303684,34.1270542 L91.0958778,33.2695249 L91.4613872,32.371154 L91.7862931,31.4727831 L92.07058,30.5335866 L92.3548668,29.6352157 L92.5579311,28.7368449 L92.7203762,27.838474 L92.8015987,26.9809446 L92.8422179,26.164241 L92.8015987,25.7558891 L92.7609796,25.3883788 L92.7203762,25.0208685 L92.6391536,24.6533582 L92.5985345,24.5308526 L92.5173119,24.4083487 L92.3954702,24.2858447 L92.3142476,24.2041743 L92.0299608,24.0816704 L91.745674,24 L91.4613872,24 L91.2177037,24.0408352 L91.1364812,24.0816704 L91.0146552,24.122504 L90.9740361,24.2041743 L90.9334169,24.3266783 L90.5273041,25.6742267 L90.161779,27.0217751 L89.7962696,28.4509907 L89.4307602,29.8393806 L89.0652508,31.2277705 L88.5778997,32.5344773 L88.3342163,33.1878308 L88.0499294,33.759517 L87.7250392,34.3720447 L87.3595141,34.9028895 L87.6031975,33.7186755 L87.7656426,32.6569702 L87.9281035,31.6769321 L88.009326,30.7785613 L88.0905486,30.0026991 L88.131152,29.3085042 L88.0905486,28.7368179 L88.0499294,28.2467989 L87.9687069,27.8384471 L87.8468652,27.5117624 L87.7656426,27.3892585 L87.6844201,27.2667545 L87.6031975,27.1850841 L87.4813558,27.144249 L87.3595141,27.1034154 L87.2376881,27.0625802 L87.1158464,27.0625802 L86.9940047,27.1034154 L86.6691144,27.1850841 L86.3442085,27.3484185 L86.0599216,28.6551254 L85.7756348,29.9210066 L85.4507288,31.1052206 L85.0852194,32.2485931 L84.6790909,33.3919655 L84.2323589,34.535338 L83.7450078,35.719552 L83.1764342,36.903766 L82.7703056,37.6796281 L82.3641771,38.4554903 L81.9174451,39.2313524 L81.4707132,40.0072146 L80.9833621,40.7422352 L80.496011,41.4772558 L79.9680407,42.2122765 L79.4400862,42.9472971 L78.465384,44.1723368 L77.4500627,45.3157092 L76.3941379,46.4590817 L75.2976097,47.520787 L74.1604624,48.5824922 L72.982696,49.5625303 L71.7643103,50.5017269 L70.5053213,51.4000977 L69.6524608,51.971784 L68.7589969,52.5434702 L67.8655173,53.0743149 L66.9720376,53.6051596 L65.5506035,54.2585131 L64.1291693,54.9118665 L62.667116,55.4427112 L61.2050627,55.9735559 L59.9866928,56.3410663 L58.7683072,56.7085766 L57.5093182,56.9944197 L56.2503449,57.2802628 L54.9913558,57.4844387 L53.6917477,57.6477731 L52.4327586,57.8111075 L51.1331662,57.8927763 L51.0113245,57.9336115 L50.8894828,57.9744467 L50.6458151,58.0969507 L50.3615283,58.3011266 L49.9553997,58.6686369 L49.4274295,59.1586559 L48.7776332,59.8120094 L48.0059953,60.6695387 L47.2749765,61.5270681 L46.422116,62.4662646 L45.9753683,62.9154421 L45.5286364,63.3646196 L45.0006661,63.7729715 L44.4727116,64.1813233 L44.0665831,64.4671664 L43.6604546,64.7121839 L43.2137226,64.9163598 L42.7669907,65.1205357 L41.7922885,65.5288875 L40.8175862,65.8963978 L39.842884,66.2639082 L38.9900236,66.5905928 L38.6245142,66.7539272 L38.258989,66.9581031 L37.9340988,67.1214375 L37.6904154,67.2847719 L37.4467477,67.5297893 L37.2436834,67.7339653 L37.1218417,67.9381412 L37.0406192,68.1423171 L37,68.4281602 L37,68.5914946" id="Shape"></path>
                </g>
                <path d="M87.3510359,49.9009627 C88.8082525,49.883448 89.3547087,49.0077169 89.3547087,47.9568396 C89.3547087,46.5556698 87.3510359,39.8825987 87.3510359,39.8825987 C87.3510359,39.8825987 85.3473631,46.5556698 85.3473631,47.9568396 C85.3473631,49.0077169 85.8938194,49.9009627 87.3510359,49.9009627 C87.3510359,49.9009627 85.8938194,49.9009627 87.3510359,49.9009627 C87.3510359,49.9009627 85.8938194,49.9009627 87.3510359,49.9009627 L87.3510359,49.9009627 L87.3510359,49.9009627 L87.3510359,49.9009627 Z M91.8832285,49.8177337 C93.3170138,50.0785909 94.0205275,49.3232182 94.2210443,48.2916485 C94.4884001,46.9162221 93.7948225,39.9834353 93.7948225,39.9834353 C93.7948225,39.9834353 90.5546808,46.1515845 90.2873249,47.5270109 C90.0868081,48.5585806 90.4527851,49.5396837 91.8832285,49.8177337 C91.8832285,49.8177337 90.4527851,49.5396837 91.8832285,49.8177337 C91.8832285,49.8177337 90.4527851,49.5396837 91.8832285,49.8177337 L91.8832285,49.8177337 L91.8832285,49.8177337 L91.8832285,49.8177337 Z M96.3480327,50.600817 C97.7057014,51.1304607 98.5404215,50.523203 98.9340871,49.5488466 C99.4589745,48.2497045 100.100978,41.3119517 100.100978,41.3119517 C100.100978,41.3119517 95.7434284,46.7485265 95.2185409,48.0476685 C94.8248754,49.022025 94.996925,50.0549341 96.3480327,50.600817 C96.3480327,50.600817 94.996925,50.0549341 96.3480327,50.600817 C96.3480327,50.600817 94.996925,50.0549341 96.3480327,50.600817 L96.3480327,50.600817 L96.3480327,50.600817 L96.3480327,50.600817 Z M100.949289,52.4084724 C102.16717,53.2088172 103.109905,52.7883777 103.697548,51.9171609 C104.481073,50.7555385 106.551487,44.1028722 106.551487,44.1028722 C106.551487,44.1028722 101.158833,48.5146593 100.375308,49.6762817 C99.7876652,50.5474985 99.7412014,51.5936072 100.949289,52.4084724 C100.949289,52.4084724 99.7412014,51.5936072 100.949289,52.4084724 C100.949289,52.4084724 99.7412014,51.5936072 100.949289,52.4084724 L100.949289,52.4084724 L100.949289,52.4084724 L100.949289,52.4084724 Z M104.753187,54.8738423 C105.79598,55.8918653 106.801618,55.6590329 107.544701,54.9159504 C108.535477,53.9251736 111.837241,47.7897892 111.837241,47.7897892 C111.837241,47.7897892 105.701856,51.0915524 104.711079,52.0823291 C103.967997,52.8254115 103.72278,53.8434346 104.753187,54.8738423 C104.753187,54.8738423 103.72278,53.8434346 104.753187,54.8738423 C104.753187,54.8738423 103.72278,53.8434346 104.753187,54.8738423 L104.753187,54.8738423 L104.753187,54.8738423 L104.753187,54.8738423 Z M108.016783,58.0197347 C108.846169,59.2180279 109.877757,59.181358 110.748974,58.5937148 C111.910596,57.8101907 116.322383,52.4175366 116.322383,52.4175366 C116.322383,52.4175366 109.669717,54.4879506 108.508095,55.2714748 C107.636878,55.8591179 107.201918,56.8116473 108.016783,58.0197347 C108.016783,58.0197347 107.201918,56.8116473 108.016783,58.0197347 C108.016783,58.0197347 107.201918,56.8116473 108.016783,58.0197347 L108.016783,58.0197347 L108.016783,58.0197347 L108.016783,58.0197347 Z M110.620153,61.7305515 C111.205655,63.065083 112.225287,63.2259231 113.192625,62.8153126 C114.482409,62.267832 119.842106,57.8160649 119.842106,57.8160649 C119.842106,57.8160649 112.916614,58.5790509 111.62683,59.1265316 C110.659493,59.5371421 110.050773,60.3891766 110.620153,61.7305515 C110.620153,61.7305515 110.050773,60.3891766 110.620153,61.7305515 C110.620153,61.7305515 110.050773,60.3891766 110.620153,61.7305515 L110.620153,61.7305515 L110.620153,61.7305515 L110.620153,61.7305515 Z M112.595527,66.2623361 C112.89077,67.6894376 113.85468,68.0587564 114.88625,67.8582396 C116.261676,67.5908838 122.429825,64.3507421 122.429825,64.3507421 C122.429825,64.3507421 115.497039,63.6571645 114.121612,63.9245202 C113.090043,64.1250371 112.317477,64.8318927 112.595527,66.2623361 C112.595527,66.2623361 112.317477,64.8318927 112.595527,66.2623361 C112.595527,66.2623361 112.317477,64.8318927 112.595527,66.2623361 L112.595527,66.2623361 L112.595527,66.2623361 L112.595527,66.2623361 Z M113.54201,70.6953786 C113.559525,72.1525953 114.435256,72.6990514 115.486133,72.6990514 C116.887303,72.6990514 123.560374,70.6953786 123.560374,70.6953786 C123.560374,70.6953786 116.887303,68.6917058 115.486133,68.6917058 C114.435256,68.6917058 113.54201,69.2381621 113.54201,70.6953786 C113.54201,70.6953786 113.54201,69.2381621 113.54201,70.6953786 C113.54201,70.6953786 113.54201,69.2381621 113.54201,70.6953786 L113.54201,70.6953786 L113.54201,70.6953786 L113.54201,70.6953786 Z M113.625239,75.2275712 C113.364382,76.6613566 114.119754,77.3648702 115.151324,77.565387 C116.52675,77.8327428 123.459537,77.1391651 123.459537,77.1391651 C123.459537,77.1391651 117.291388,73.8990234 115.915962,73.6316676 C114.884392,73.4311508 113.903289,73.7971277 113.625239,75.2275712 C113.625239,75.2275712 113.903289,73.7971277 113.625239,75.2275712 C113.625239,75.2275712 113.903289,73.7971277 113.625239,75.2275712 L113.625239,75.2275712 L113.625239,75.2275712 L113.625239,75.2275712 Z M112.842156,79.6923754 C112.312512,81.0500442 112.91977,81.8847642 113.894126,82.2784297 C115.193268,82.8033172 122.131021,83.4453206 122.131021,83.4453206 C122.131021,83.4453206 116.694446,79.087771 115.395304,78.5628836 C114.420948,78.169218 113.388039,78.3412677 112.842156,79.6923754 C112.842156,79.6923754 113.388039,78.3412677 112.842156,79.6923754 C112.842156,79.6923754 113.388039,78.3412677 112.842156,79.6923754 L112.842156,79.6923754 L112.842156,79.6923754 L112.842156,79.6923754 Z M111.0345,84.2936313 C110.234155,85.5115127 110.654595,86.454248 111.525812,87.0418912 C112.687434,87.8254153 119.3401,89.8958293 119.3401,89.8958293 C119.3401,89.8958293 114.928313,84.5031753 113.766691,83.7196511 C112.895474,83.132008 111.849365,83.085544 111.0345,84.2936313 C111.0345,84.2936313 111.849365,83.085544 111.0345,84.2936313 C111.0345,84.2936313 111.849365,83.085544 111.0345,84.2936313 L111.0345,84.2936313 L111.0345,84.2936313 L111.0345,84.2936313 Z M108.56913,88.0975302 C107.551107,89.1403227 107.78394,90.1459609 108.527022,90.8890434 C109.517799,91.8798201 115.653183,95.1815833 115.653183,95.1815833 C115.653183,95.1815833 112.35142,89.0461988 111.360644,88.0554222 C110.617561,87.3123397 109.599538,87.0671225 108.56913,88.0975302 C108.56913,88.0975302 109.599538,87.0671225 108.56913,88.0975302 C108.56913,88.0975302 109.599538,87.0671225 108.56913,88.0975302 L108.56913,88.0975302 L108.56913,88.0975302 L108.56913,88.0975302 Z M105.423238,91.361126 C104.224945,92.1905115 104.261615,93.2220999 104.849258,94.0933167 C105.632782,95.2549391 111.025436,99.6667262 111.025436,99.6667262 C111.025436,99.6667262 108.955022,93.0140599 108.171498,91.8524375 C107.583855,90.9812207 106.631325,90.5462608 105.423238,91.361126 C105.423238,91.361126 106.631325,90.5462608 105.423238,91.361126 C105.423238,91.361126 106.631325,90.5462608 105.423238,91.361126 L105.423238,91.361126 L105.423238,91.361126 L105.423238,91.361126 Z M101.712421,93.9644958 C100.37789,94.549998 100.217049,95.5696302 100.62766,96.5369679 C101.175141,97.8267515 105.626908,103.186448 105.626908,103.186448 C105.626908,103.186448 104.863922,96.2609568 104.316441,94.9711732 C103.905831,94.0038355 103.053796,93.3951159 101.712421,93.9644958 C101.712421,93.9644958 103.053796,93.3951159 101.712421,93.9644958 C101.712421,93.9644958 103.053796,93.3951159 101.712421,93.9644958 L101.712421,93.9644958 L101.712421,93.9644958 L101.712421,93.9644958 Z M97.1806365,95.9398698 C95.753535,96.2351126 95.3842162,97.1990228 95.584733,98.2305926 C95.8520888,99.606019 99.0922305,105.774168 99.0922305,105.774168 C99.0922305,105.774168 99.7858081,98.8413814 99.5184523,97.465955 C99.3179355,96.4343853 98.6110799,95.6618198 97.1806365,95.9398698 C97.1806365,95.9398698 98.6110799,95.6618198 97.1806365,95.9398698 C97.1806365,95.9398698 98.6110799,95.6618198 97.1806365,95.9398698 L97.1806365,95.9398698 L97.1806365,95.9398698 L97.1806365,95.9398698 Z M92.747594,96.8863527 C91.2903773,96.9038673 90.7439212,97.7795984 90.7439212,98.8304757 C90.7439212,100.231646 92.747594,106.904717 92.747594,106.904717 C92.747594,106.904717 94.7512668,100.231646 94.7512668,98.8304757 C94.7512668,97.7795984 94.2048105,96.8863527 92.747594,96.8863527 L92.747594,96.8863527 L92.747594,96.8863527 L92.747594,96.8863527 L92.747594,96.8863527 L92.747594,96.8863527 Z M88.2154014,96.9695815 C86.781616,96.7087244 86.0781024,97.4640971 85.8775856,98.4956668 C85.6102298,99.8710932 86.3038075,106.80388 86.3038075,106.80388 C86.3038075,106.80388 89.5439492,100.635731 89.811305,99.2603044 C90.0118218,98.2287347 89.6458449,97.2476316 88.2154014,96.9695815 C88.2154014,96.9695815 89.6458449,97.2476316 88.2154014,96.9695815 C88.2154014,96.9695815 89.6458449,97.2476316 88.2154014,96.9695815 L88.2154014,96.9695815 L88.2154014,96.9695815 L88.2154014,96.9695815 Z M83.7505972,96.1864982 C82.3929284,95.6568546 81.5582084,96.2641122 81.1645429,97.2384687 C80.6396554,98.5376108 79.997652,105.475364 79.997652,105.475364 C79.997652,105.475364 84.3552015,100.038789 84.880089,98.7396468 C85.2737546,97.7652903 85.1017049,96.7323811 83.7505972,96.1864982 C83.7505972,96.1864982 85.1017049,96.7323811 83.7505972,96.1864982 C83.7505972,96.1864982 85.1017049,96.7323811 83.7505972,96.1864982 L83.7505972,96.1864982 L83.7505972,96.1864982 L83.7505972,96.1864982 Z M79.1493412,94.3788429 C77.9314599,93.5784981 76.9887246,93.9989377 76.4010814,94.8701544 C75.6175572,96.0317768 73.5471433,102.684443 73.5471433,102.684443 C73.5471433,102.684443 78.9397972,98.272656 79.7233215,97.1110336 C80.3109646,96.2398169 80.3574286,95.1937081 79.1493412,94.3788429 C79.1493412,94.3788429 80.3574286,95.1937081 79.1493412,94.3788429 C79.1493412,94.3788429 80.3574286,95.1937081 79.1493412,94.3788429 L79.1493412,94.3788429 L79.1493412,94.3788429 L79.1493412,94.3788429 Z M75.3454424,91.9134729 C74.3026499,90.89545 73.2970117,91.1282825 72.5539292,91.871365 C71.5631525,92.8621416 68.2613893,98.997526 68.2613893,98.997526 C68.2613893,98.997526 74.3967737,95.6957629 75.3875504,94.7049862 C76.1306329,93.9619037 76.3758501,92.9438807 75.3454424,91.9134729 C75.3454424,91.9134729 76.3758501,92.9438807 75.3454424,91.9134729 C75.3454424,91.9134729 76.3758501,92.9438807 75.3454424,91.9134729 L75.3454424,91.9134729 L75.3454424,91.9134729 L75.3454424,91.9134729 Z M72.0818466,88.7675806 C71.2524611,87.5692874 70.2208727,87.6059573 69.3496559,88.1936004 C68.1880335,88.9771246 63.7762464,94.3697787 63.7762464,94.3697787 C63.7762464,94.3697787 70.4289127,92.2993647 71.5905351,91.5158405 C72.4617519,90.9281973 72.8967118,89.975668 72.0818466,88.7675806 C72.0818466,88.7675806 72.8967118,89.975668 72.0818466,88.7675806 C72.0818466,88.7675806 72.8967118,89.975668 72.0818466,88.7675806 L72.0818466,88.7675806 L72.0818466,88.7675806 L72.0818466,88.7675806 Z M69.4784768,85.0567638 C68.8929746,83.7222324 67.8733424,83.5613921 66.9060047,83.9720027 C65.6162211,84.5194833 60.2565241,88.9712505 60.2565241,88.9712505 C60.2565241,88.9712505 67.1820158,88.2082644 68.4717994,87.6607837 C69.4391371,87.2501733 70.0478567,86.3981388 69.4784768,85.0567638 C69.4784768,85.0567638 70.0478567,86.3981388 69.4784768,85.0567638 C69.4784768,85.0567638 70.0478567,86.3981388 69.4784768,85.0567638 L69.4784768,85.0567638 L69.4784768,85.0567638 L69.4784768,85.0567638 Z M67.5031028,80.5249792 C67.20786,79.0978778 66.2439497,78.7285588 65.21238,78.9290757 C63.8369536,79.1964315 57.6688044,82.4365732 57.6688044,82.4365732 C57.6688044,82.4365732 64.6015912,83.1301508 65.9770176,82.8627951 C67.0085873,82.6622782 67.7811528,81.9554226 67.5031028,80.5249792 C67.5031028,80.5249792 67.7811528,81.9554226 67.5031028,80.5249792 C67.5031028,80.5249792 67.7811528,81.9554226 67.5031028,80.5249792 L67.5031028,80.5249792 L67.5031028,80.5249792 L67.5031028,80.5249792 Z M66.5566199,76.0919367 C66.5391053,74.6347201 65.6633742,74.0882639 64.6124969,74.0882639 C63.2113271,74.0882639 56.538256,76.0919367 56.538256,76.0919367 C56.538256,76.0919367 63.2113271,78.0956095 64.6124969,78.0956095 C65.6633742,78.0956095 66.5566199,77.5491532 66.5566199,76.0919367 C66.5566199,76.0919367 66.5566199,77.5491532 66.5566199,76.0919367 C66.5566199,76.0919367 66.5566199,77.5491532 66.5566199,76.0919367 L66.5566199,76.0919367 L66.5566199,76.0919367 L66.5566199,76.0919367 Z M66.473391,71.5597441 C66.7342482,70.1259588 65.9788755,69.4224451 64.9473057,69.2219283 C63.5718794,68.9545725 56.6390926,69.6481501 56.6390926,69.6481501 C56.6390926,69.6481501 62.8072418,72.8882918 64.1826682,73.1556477 C65.2142379,73.3561645 66.195341,72.9901875 66.473391,71.5597441 C66.473391,71.5597441 66.195341,72.9901875 66.473391,71.5597441 C66.473391,71.5597441 66.195341,72.9901875 66.473391,71.5597441 L66.473391,71.5597441 L66.473391,71.5597441 L66.473391,71.5597441 Z M67.2564744,67.0949399 C67.786118,65.7372712 67.1788604,64.9025511 66.2045039,64.5088855 C64.9053618,63.9839981 57.967609,63.3419948 57.967609,63.3419948 C57.967609,63.3419948 63.4041838,67.6995442 64.7033258,68.2244317 C65.6776823,68.6180972 66.7105914,68.4460476 67.2564744,67.0949399 C67.2564744,67.0949399 66.7105914,68.4460476 67.2564744,67.0949399 C67.2564744,67.0949399 66.7105914,68.4460476 67.2564744,67.0949399 L67.2564744,67.0949399 L67.2564744,67.0949399 L67.2564744,67.0949399 Z M69.0641297,62.493684 C69.8644745,61.2758027 69.4440349,60.3330673 68.5728182,59.7454241 C67.4111958,58.9618999 60.7585295,56.891486 60.7585295,56.891486 C60.7585295,56.891486 65.1703166,62.28414 66.331939,63.0676642 C67.2031557,63.6553074 68.2492645,63.7017712 69.0641297,62.493684 C69.0641297,62.493684 68.2492645,63.7017712 69.0641297,62.493684 C69.0641297,62.493684 68.2492645,63.7017712 69.0641297,62.493684 L69.0641297,62.493684 L69.0641297,62.493684 L69.0641297,62.493684 Z M71.5294996,58.6897851 C72.5475226,57.6469926 72.3146901,56.6413544 71.5716076,55.8982719 C70.580831,54.9074952 64.4454465,51.605732 64.4454465,51.605732 C64.4454465,51.605732 67.7472097,57.7411165 68.7379864,58.7318931 C69.4810689,59.4749756 70.4990919,59.7201928 71.5294996,58.6897851 C71.5294996,58.6897851 70.4990919,59.7201928 71.5294996,58.6897851 C71.5294996,58.6897851 70.4990919,59.7201928 71.5294996,58.6897851 L71.5294996,58.6897851 L71.5294996,58.6897851 L71.5294996,58.6897851 Z M74.675392,55.4261892 C75.8736852,54.5968039 75.8370153,53.5652154 75.2493722,52.6939986 C74.465848,51.5323762 69.0731939,47.1205891 69.0731939,47.1205891 C69.0731939,47.1205891 71.1436079,53.7732554 71.9271321,54.9348778 C72.5147752,55.8060946 73.4673046,56.2410544 74.675392,55.4261892 C74.675392,55.4261892 73.4673046,56.2410544 74.675392,55.4261892 C74.675392,55.4261892 73.4673046,56.2410544 74.675392,55.4261892 L74.675392,55.4261892 L74.675392,55.4261892 L74.675392,55.4261892 Z M78.3862088,52.8228195 C79.7207402,52.2373174 79.8815804,51.2176851 79.4709699,50.2503474 C78.9234893,48.9605638 74.4717221,43.6008668 74.4717221,43.6008668 C74.4717221,43.6008668 75.2347082,50.5263585 75.7821889,51.8161421 C76.1927993,52.7834798 77.0448338,53.3921994 78.3862088,52.8228195 C78.3862088,52.8228195 77.0448338,53.3921994 78.3862088,52.8228195 C78.3862088,52.8228195 77.0448338,53.3921994 78.3862088,52.8228195 L78.3862088,52.8228195 L78.3862088,52.8228195 L78.3862088,52.8228195 Z M82.9179934,50.8474456 C84.3450948,50.5522027 84.7144138,49.5882924 84.5138969,48.5567227 C84.2465411,47.1812963 81.0063994,41.0131471 81.0063994,41.0131471 C81.0063994,41.0131471 80.3128217,47.9459339 80.5801775,49.3213603 C80.7806944,50.35293 81.48755,51.1254955 82.9179934,50.8474456 C82.9179934,50.8474456 81.48755,51.1254955 82.9179934,50.8474456 C82.9179934,50.8474456 81.48755,51.1254955 82.9179934,50.8474456 L82.9179934,50.8474456 L82.9179934,50.8474456 L82.9179934,50.8474456 Z" id="sun" fill="#F2C500"></path>
                <path d="M13.3001382,137.110642 C14.292248,135.837889 15.6062813,135.038166 16.8902347,134.722928 L16.8902348,134.722928 C16.4158765,134.620632 15.984985,134.479476 15.6231315,134.299081 C13.7433185,134.023221 12.4312448,132.195579 12.0445728,131.268196 C12.0301812,131.233699 12.0152849,131.19584 12,131.154762 L12,131.154762 C11.9847151,131.19584 11.9698188,131.233699 11.9554272,131.268196 C11.7763823,131.697612 11.3989249,132.32005 10.8585635,132.892073 C10.4055466,132.057962 9.96533184,131.215888 9.53818278,130.366116 C10.0070799,129.714015 10.3019846,128.890314 10.3019846,127.996237 C10.3019846,126.652708 10.2027844,125.736328 9.89532839,124.931317 C7.42992717,118.476994 1.09740371,101.789212 1.09740371,101.789212 C0.896595428,101.261038 0.726730075,100.779372 0.58511264,100.318884 C0.372176817,98.4534203 0.216274096,96.5706354 0.119191277,94.6723155 C0.378552709,93.0628228 1.05875972,91.7004431 2.1359417,90.7778534 C1.9519829,90.7263047 1.77314457,90.6695452 1.60074202,90.6075944 C1.93837991,89.8301687 2.52582148,89.2579752 3.44284276,88.9468002 L3.44284276,89.0156733 C2.05542503,87.7492729 1.35537034,85.885652 1.35537034,84.1600126 C1.35537034,80.0354085 2.65664609,79.0384202 2.65664609,73.1056232 C2.65664609,72.1371343 2.49950579,71.1663679 2.1817352,70.2146486 C2.31054903,69.6404229 2.44485079,69.0682716 2.58458254,68.4982526 C4.48160341,69.8721416 5.11393067,72.4792081 4.31038679,74.4828797 C4.94891724,74.8193325 5.41161814,74.2878067 5.90989591,74.000758 C5.9285909,75.3794987 5.49215565,75.9847033 5.17793082,76.6868431 C5.17793082,76.6868431 5.72012569,76.652404 6.20812928,76.4113458 C6.14249538,77.2976315 5.81730738,78.0902219 5.17793082,78.4775887 C7.86549616,77.9268397 9.29888583,80.1305523 9.29888583,82.7478002 C9.29888583,85.3838823 7.4532395,86.0744452 6.24898427,85.6404993 C6.19775437,86.0104803 6.20306471,86.4024686 6.35742325,86.8285941 C5.59250018,86.6007915 5.23865729,86.0595108 5.50345725,84.9517688 C5.05626836,84.8539636 4.70858998,84.5665157 4.40548947,84.1941498 C4.70783251,83.7568158 5.09265106,83.4835499 5.50345725,83.3676424 C5.23963233,82.4597586 5.70096333,81.7326941 6.26253814,81.5769019 C6.26253814,81.5769019 5.94516658,83.505368 7.07585059,83.505368 C7.52345045,83.505368 7.83493147,83.1517647 7.83493147,82.3345209 C7.83493147,81.1616266 7.30965878,80.474892 5.99142055,80.474892 C4.92012536,80.474892 3.87683235,81.6110902 3.87683235,84.1596544 C3.87683235,86.2577313 5.5307745,88.0991401 7.0487348,88.0510308 C8.71387783,87.999083 10.3019846,86.3032816 10.3019846,84.2284916 C10.3019846,82.8849629 10.2027844,81.9685832 9.89532839,81.1635714 C8.44760293,77.3734838 5.66640174,70.0546556 3.61701418,64.6582719 C3.98121274,63.4147843 4.37153177,62.1824555 4.78733697,60.9619199 C7.21764224,67.5085596 10.8233431,77.1901411 11.884645,80.0120748 L11.884645,80.0120748 C11.933222,79.8563799 11.986431,79.7011893 12.0445728,79.5468715 C13.289683,76.2421726 19.1603517,60.4684663 20.9907681,55.5096265 C21.3790114,54.4578755 21.6143103,53.3425076 21.6143103,52.1347597 C21.6143103,49.097272 19.4183748,48.036718 18.1712903,48.036718 C16.6802443,48.036718 15.1620423,49.4761583 15.1620423,51.2738081 C15.1620423,52.4128723 15.6500459,53.0989927 16.3548952,53.0989927 C18.0403851,53.0989927 17.9380059,51.2820992 17.6019796,50.1374052 C18.6509537,50.734984 19.2606761,51.801782 19.0930256,52.9268229 C19.6869137,53.0298996 20.2521953,53.3868706 20.7738418,54.1321142 C20.3633982,54.7888572 19.8627836,55.2853042 19.0930256,55.3029613 C19.4292291,57.0482027 18.5070748,57.786322 17.6019796,58.1956605 C17.8883191,56.9147761 18.0762843,55.440687 16.3548952,55.440687 C15.0998331,55.440687 14.1115372,55.1651896 13.5354174,54.132063 C13.5015295,55.5095242 13.3998666,60.9507875 13.3998666,60.9507875 C13.3275726,62.9954324 15.5596612,62.9369848 16.9784253,62.3282487 C16.4429993,64.6834544 15.3449106,65.9568153 12.8034805,65.6342271 C13.4202538,65.9613806 14.0776807,66.6968283 14.0776807,68.1136982 C14.0772778,70.0309046 12.849815,72.1548787 12.0439967,72.7828585 L12.0065931,70.9298754 L11.9560033,73.4361085 C11.150185,72.8081287 9.92272219,70.6841546 9.92231928,68.7669481 C9.92231928,67.3500783 10.5797462,66.6146305 11.1965195,66.2874771 C8.65508935,66.6100652 7.55700069,65.3367044 7.0215747,62.9814986 C8.44033876,63.5902347 10.6724274,63.6486824 10.6001334,61.6040374 C10.6001334,61.6040374 10.4984705,56.1627741 10.4645826,54.7853129 C9.88846282,55.8184395 8.90016691,56.0939369 7.64510484,56.0939369 C5.9237157,56.0939369 6.11168088,57.5680261 6.39802037,58.8489104 C6.15524151,58.7391112 5.91123524,58.6056561 5.69061668,58.4354533 C6.28349257,56.8525877 6.91966739,55.2908722 7.59769923,53.7517487 C7.61333948,53.7520797 7.62914198,53.7522427 7.64510484,53.7522427 C8.34995415,53.7522427 8.83795774,53.0661223 8.83795774,51.927058 C8.83795774,51.684896 8.81040711,51.4492344 8.75908361,51.2227163 C9.29014377,50.1121106 9.84330683,49.0140948 10.4180033,47.9292382 C11.0407654,48.6334925 11.5613668,49.5050307 11.9060265,50.5414515 C12.6436437,47.5268532 14.8065499,45.7392762 16.8902347,45.227688 C16.4158764,45.1253923 15.984985,44.9842356 15.6231315,44.8038411 C14.563844,44.6483917 13.6848364,44.0001899 13.0501074,43.2979936 C13.5298706,42.5091889 14.0214211,41.7283442 14.5245144,40.9557042 C15.1423531,41.7687986 16.0351501,42.2949556 16.9512652,42.3235358 C18.4692255,42.3716451 20.1231677,40.5302363 20.1231677,38.4321594 C20.1231677,36.5159215 19.5333551,35.3981469 18.7853008,34.9614446 C19.6981194,33.7820706 20.6395849,32.6259899 21.6086541,31.4942455 C21.9891873,34.1533051 22.6446297,35.5052336 22.6446297,38.4325177 C22.6446297,40.158157 21.944575,42.0217779 20.5571572,43.2881783 L20.5571572,43.2193052 C21.4741785,43.5304802 22.0616201,44.1026737 22.399258,44.8800994 C21.7088355,45.1281945 20.9151978,45.2930325 20.1028228,45.3733677 L20.1028228,45.3733677 C22.6567213,46.2077837 24,48.7036227 24,51.7900975 C24,53.9483111 23.6879348,55.3025877 22.9025963,57.3682165 C22.9025963,57.3682165 16.5700728,74.0559993 14.1046716,80.5103215 C13.7972156,81.3153333 13.6980154,82.2317129 13.6980154,83.5752417 C13.6980154,85.6500317 15.2861222,87.3458331 16.9512652,87.3977809 C18.4692255,87.4458902 20.1231677,85.6044814 20.1231677,83.5064045 C20.1231677,80.9578403 19.0798746,79.8216421 18.0085794,79.8216421 C16.6903412,79.8216421 16.1650685,80.5083767 16.1650685,81.681271 C16.1650685,82.4985148 16.4765496,82.8521181 16.9241494,82.8521181 C18.0548334,82.8521181 17.7374619,80.923652 17.7374619,80.923652 C18.2990367,81.0794442 18.7603677,81.8065087 18.4965427,82.7143924 C18.9073489,82.8303 19.2921675,83.1035659 19.5945105,83.5408998 C19.29141,83.9132658 18.9437316,84.2007137 18.4965427,84.2985188 C18.7613427,85.4062609 18.4074998,85.9475416 17.6425768,86.1753442 C17.7969353,85.7492187 17.8022456,85.3572303 17.7510157,84.9872494 C16.5467605,85.4211952 14.7011142,84.7306324 14.7011142,82.0945503 C14.7011142,79.4773024 16.1345038,77.2735897 18.8220692,77.8243388 C18.1826926,77.436972 17.8575046,76.6443816 17.7918707,75.7580958 C18.2798743,75.9991541 18.8220692,76.0335932 18.8220692,76.0335932 C18.5078443,75.3314534 18.0714091,74.7262488 18.0901041,73.3475081 C18.5883819,73.6345568 19.0510828,74.1660826 19.6896132,73.8296297 C18.6874572,71.3307103 19.9187033,67.8932501 23.0512859,67.0799984 C21.9048078,68.7829138 21.3433539,70.6217123 21.3433539,72.4523733 C21.3433539,78.3851703 22.6446297,79.3821586 22.6446297,83.5067627 C22.6446297,85.2324021 21.944575,87.096023 20.5571572,88.3624234 L20.5571572,88.2935503 C21.4741785,88.6047253 22.0616201,89.1769188 22.399258,89.9543445 C22.0207174,90.0903685 21.6111499,90.2013651 21.1844785,90.287129 C23.0345488,91.4023086 24,93.5944476 24,96.2110927 C24,98.3693062 23.6879348,99.7235828 22.9025963,101.789212 C22.9025963,101.789212 16.5700728,118.476994 14.1046716,124.931317 C13.7972156,125.736328 13.6980154,126.652708 13.6980154,127.996237 C13.6980154,130.071027 15.2861222,131.766828 16.9512652,131.818776 C18.4692255,131.866885 20.1231677,130.025477 20.1231677,127.9274 C20.1231677,125.378835 19.0798746,124.242637 18.0085794,124.242637 C16.6903412,124.242637 16.1650685,124.929372 16.1650685,126.102266 C16.1650685,126.91951 16.4765496,127.273113 16.9241494,127.273113 C18.0548334,127.273113 17.7374619,125.344647 17.7374619,125.344647 C18.2990367,125.500439 18.7603677,126.227504 18.4965427,127.135388 C18.9073489,127.251295 19.2921675,127.524561 19.5945105,127.961895 C19.29141,128.334261 18.9437316,128.621709 18.4965427,128.719514 C18.7613427,129.827256 18.4074998,130.368537 17.6425768,130.596339 C17.7969353,130.170214 17.8022456,129.778225 17.7510157,129.408245 C16.5467605,129.84219 14.7011142,129.151628 14.7011142,126.515545 C14.7011142,123.898298 16.1345038,121.694585 18.8220692,122.245334 C18.1826926,121.857967 17.8575046,121.065377 17.7918707,120.179091 C18.2798743,120.420149 18.8220692,120.454588 18.8220692,120.454588 C18.5078443,119.752449 18.0714091,119.147244 18.0901041,117.768503 C18.5883819,118.055552 19.0510828,118.587078 19.6896132,118.250625 C18.6874572,115.751705 19.9187033,112.314245 23.0512859,111.500993 C21.9048078,113.203909 21.3433539,115.042707 21.3433539,116.873368 C21.3433539,122.806165 22.6446297,123.803154 22.6446297,127.927758 C22.6446297,129.653397 21.944575,131.517018 20.5571572,132.783418 L20.5571572,132.714545 C21.4741785,133.02572 22.0616201,133.597914 22.399258,134.37534 C21.7088355,134.623435 20.9151978,134.788273 20.1028228,134.868608 C22.6567213,135.703024 24,138.198863 24,141.285338 C24,143.443551 23.6879348,144.797828 22.9025963,146.863457 C22.9025963,146.863457 22.5890904,147.689623 22.0744326,149.045406 C21.4663237,148.346435 20.8688259,147.637988 20.2821902,146.920315 C20.5569527,146.178659 20.7965937,145.530911 20.9907681,145.004867 C21.3790114,143.953116 21.6143103,142.837748 21.6143103,141.63 C21.6143103,138.592512 19.4183748,137.531958 18.1712903,137.531958 C16.8671654,137.531958 15.5422664,138.633117 15.2305766,140.111994 C14.5679044,139.125208 13.9242499,138.124583 13.3001382,137.110642 C13.3001382,137.110642 13.9242499,138.124583 13.3001382,137.110642 L13.3001382,137.110642 L13.3001382,137.110642 L13.3001382,137.110642 Z M19.163624,145.523931 C19.1659802,145.303534 19.1439224,145.062408 19.0930256,144.798201 C19.8627836,144.780544 20.3633982,144.284097 20.7738418,143.627354 C20.2521953,142.882111 19.6869137,142.52514 19.0930256,142.422063 C19.2606761,141.297022 18.6509537,140.230224 17.6019796,139.632645 C17.8963935,140.635584 18.0114454,142.154546 16.9017691,142.515371 C17.6351457,143.534388 18.3893042,144.537449 19.163624,145.523931 C19.163624,145.523931 18.3893042,144.537449 19.163624,145.523931 L19.163624,145.523931 L19.163624,145.523931 L19.163624,145.523931 Z M15.5443999,39.4238143 C16.185711,40.0444242 17.0707083,40.1581489 17.7510157,39.9130044 C17.8022456,40.2829853 17.7969353,40.6749737 17.6425768,41.1010992 C18.4074998,40.8732965 18.7613427,40.3320158 18.4965427,39.2242738 C18.9437316,39.1264686 19.29141,38.8390207 19.5945105,38.4666548 C19.2921675,38.0293208 18.9073489,37.7560549 18.4965427,37.6401474 C18.7156346,36.8862006 18.4346318,36.2569536 18.0114248,35.9760209 C17.9328459,36.0805629 17.8544895,36.1852816 17.7763562,36.2901763 C17.7951065,36.8594017 17.704461,37.777873 16.9241494,37.777873 C16.8497066,37.777873 16.7790289,37.768092 16.7129231,37.7480239 C16.3172582,38.301979 15.9277175,38.8606088 15.5443999,39.4238143 C15.5443999,39.4238143 15.9277175,38.8606088 15.5443999,39.4238143 L15.5443999,39.4238143 L15.5443999,39.4238143 L15.5443999,39.4238143 Z M6.78845907,124.352381 C7.52629627,124.589797 7.83493147,125.203205 7.83493147,126.102266 C7.83493147,126.314779 7.81386947,126.495941 7.77482894,126.647688 C8.07407403,127.318079 8.38127702,127.984139 8.69631784,128.645747 C9.05924389,128.162684 9.29888583,127.46542 9.29888583,126.515545 C9.29888583,124.149292 8.12723819,122.121061 5.9163835,122.160816 C6.19775878,122.896019 6.48849929,123.62659 6.78845907,124.352381 C6.78845907,124.352381 6.48849929,123.62659 6.78845907,124.352381 L6.78845907,124.352381 L6.78845907,124.352381 L6.78845907,124.352381 Z M5.74029589,121.696862 C6.01466264,121.286315 6.16568035,120.752299 6.20812928,120.179091 C5.84843341,120.356769 5.45929641,120.422195 5.2795351,120.444317 C5.4301113,120.86328 5.58370698,121.280804 5.74029589,121.696862 C5.74029589,121.696862 5.58370698,121.280804 5.74029589,121.696862 L5.74029589,121.696862 L5.74029589,121.696862 L5.74029589,121.696862 Z M5.23711624,120.326029 C5.54408126,119.675138 5.92744195,119.06251 5.90989591,117.768503 C5.4769512,118.017915 5.07086548,118.451896 4.55296285,118.340711 C4.773496,119.00596 5.00158099,119.667766 5.23711624,120.326029 C5.23711624,120.326029 5.00158099,119.667766 5.23711624,120.326029 L5.23711624,120.326029 L5.23711624,120.326029 L5.23711624,120.326029 Z M4.42160175,117.941308 C5.01818239,116.074356 4.44271338,113.788382 2.82258722,112.450186 C3.29867249,114.304329 3.83235063,116.135376 4.42160175,117.941308 C4.42160175,117.941308 3.83235063,116.135376 4.42160175,117.941308 L4.42160175,117.941308 L4.42160175,117.941308 L4.42160175,117.941308 Z M12.0001505,94.6104894 C12.6778176,92.2790901 14.227664,90.7324969 15.8819164,89.9956985 C15.792248,89.9585435 15.7058844,89.9193409 15.6231315,89.8780861 C13.8523813,89.6182303 12.5854034,87.9814326 12.1211496,87.0172274 L12.1211496,87.0172274 C12.0630323,87.2158392 12.0061012,87.378985 11.9554272,87.5004506 C11.6057922,88.3390057 10.4995424,89.9136177 8.90109527,90.4115112 C10.2461074,91.247572 11.4307959,92.6521784 12.0001505,94.6104894 L12.0001505,94.6104894 L12.0001505,94.6104894 L12.0001505,94.6104894 L12.0001505,94.6104894 L12.0001505,94.6104894 Z M12,115.024246 L12.0439967,117.203854 C12.849815,116.575874 14.0772778,114.4519 14.0776807,112.534693 C14.0776807,111.117823 13.4202538,110.382376 12.8034805,110.055222 C15.3449106,110.37781 16.4429993,109.10445 16.9784253,106.749244 C15.5596612,107.35798 13.3275726,107.416428 13.3998666,105.371783 C13.3998666,105.371783 13.5015295,99.9305193 13.5354174,98.5530581 C14.1115372,99.5861847 15.0998331,99.8616821 16.3548952,99.8616821 C18.0762843,99.8616821 17.8883191,101.335771 17.6019796,102.616656 C18.5070748,102.207317 19.4292291,101.469198 19.0930256,99.7239564 C19.8627836,99.7062993 20.3633982,99.2098523 20.7738418,98.5531093 C20.2521953,97.8078657 19.6869137,97.4508947 19.0930256,97.347818 C19.2606761,96.2227771 18.6509537,95.1559791 17.6019796,94.5584003 C17.9380059,95.7030944 18.0403851,97.5199879 16.3548952,97.5199879 C15.6500459,97.5199879 15.1620423,96.8338675 15.1620423,95.6948032 C15.1620423,93.8971534 16.6802443,92.4577132 18.1712903,92.4577132 C19.4183748,92.4577132 21.6143103,93.5182672 21.6143103,96.5557548 C21.6143103,97.7635028 21.3790114,98.8788707 20.9907681,99.9306217 C19.1603517,104.889461 13.289683,120.663168 12.0445728,123.967867 C12.0293802,124.00819 12.0145244,124.048574 12,124.08901 C11.9854756,124.048574 11.9706198,124.00819 11.9554272,123.967867 C10.710317,120.663168 4.83964828,104.889461 3.00923191,99.9306217 C2.62098863,98.8788707 2.38568967,97.7635028 2.38568967,96.5557548 C2.38568967,93.5182672 4.58162524,92.4577132 5.82870971,92.4577132 C7.31975569,92.4577132 8.83795774,93.8971534 8.83795774,95.6948032 C8.83795774,96.8338675 8.34995415,97.5199879 7.64510484,97.5199879 C5.9596149,97.5199879 6.06199412,95.7030944 6.39802037,94.5584003 C5.34904634,95.1559791 4.73932389,96.2227771 4.9069744,97.347818 C4.31308628,97.4508947 3.74780471,97.8078657 3.22615821,98.5531093 C3.63660178,99.2098523 4.13721643,99.7062993 4.9069744,99.7239564 C4.57077087,101.469198 5.49292521,102.207317 6.39802037,102.616656 C6.11168088,101.335771 5.9237157,99.8616821 7.64510484,99.8616821 C8.90016691,99.8616821 9.88846282,99.5861847 10.4645826,98.5530581 C10.4984705,99.9305193 10.6001334,105.371783 10.6001334,105.371783 C10.6724274,107.416428 8.44033876,107.35798 7.0215747,106.749244 C7.55700069,109.10445 8.65508935,110.37781 11.1965195,110.055222 C10.5797462,110.382376 9.92231928,111.117823 9.92231928,112.534693 C9.92272219,114.4519 11.150185,116.575874 11.9560033,117.203854 L12,115.024246 L12,115.024246 L12,115.024246 L12,115.024246 L12,115.024246 Z" id="pattern" fill="#F2C500"></path>
            </g>
        </g>
    </g>
</svg>