<?xml version="1.0" encoding="UTF-8"?>
<!DOCTYPE svg PUBLIC "-//W3C//DTD SVG 1.1//EN" "http://www.w3.org/Graphics/SVG/1.1/DTD/svg11.dtd">
<svg xmlns="http://www.w3.org/2000/svg" version="1.1" width="250px" height="250px" style="shape-rendering:geometricPrecision; text-rendering:geometricPrecision; image-rendering:optimizeQuality; fill-rule:evenodd; clip-rule:evenodd" xmlns:xlink="http://www.w3.org/1999/xlink">
<g><path style="opacity:0.989" fill="#9e3039" d="M 107.5,-0.5 C 118.833,-0.5 130.167,-0.5 141.5,-0.5C 189.287,8.11141 222.787,34.7781 242,79.5C 244.46,86.0095 246.294,92.6762 247.5,99.5C 165.5,99.5 83.5,99.5 1.5,99.5C 12.8515,51.6461 41.8515,19.8127 88.5,4C 94.9498,2.4148 101.283,0.914796 107.5,-0.5 Z"/></g>
<g><path style="opacity:0.996" fill="#fefefe" d="M 1.5,99.5 C 83.5,99.5 165.5,99.5 247.5,99.5C 247.963,102.33 248.629,104.997 249.5,107.5C 249.5,118.833 249.5,130.167 249.5,141.5C 248.629,144.003 247.963,146.67 247.5,149.5C 165.5,149.5 83.5,149.5 1.5,149.5C 1.03718,146.67 0.370512,144.003 -0.5,141.5C -0.5,130.167 -0.5,118.833 -0.5,107.5C 0.370512,104.997 1.03718,102.33 1.5,99.5 Z"/></g>
<g><path style="opacity:0.989" fill="#9e3039" d="M 1.5,149.5 C 83.5,149.5 165.5,149.5 247.5,149.5C 236.148,197.354 207.148,229.187 160.5,245C 154.05,246.585 147.717,248.085 141.5,249.5C 130.167,249.5 118.833,249.5 107.5,249.5C 59.7126,240.889 26.2126,214.222 7,169.5C 4.53964,162.99 2.7063,156.324 1.5,149.5 Z"/></g>
</svg>
