<?xml version="1.0" encoding="UTF-8" standalone="no"?>
<svg width="180px" height="180px" viewBox="0 0 180 180" version="1.1" xmlns="http://www.w3.org/2000/svg" xmlns:xlink="http://www.w3.org/1999/xlink">
    <!-- Generator: Sketch 3.8.3 (29802) - http://www.bohemiancoding.com/sketch -->
    <title>slovakia</title>
    <desc>Created with Sketch.</desc>
    <defs></defs>
    <g id="Page-1" stroke="none" stroke-width="1" fill="none" fill-rule="evenodd">
        <g id="flags" transform="translate(-720.000000, -5310.000000)">
            <g id="slovakia" transform="translate(720.000000, 5310.000000)">
                <path d="M174.878829,120 C162.523738,154.955772 129.186567,180 90,180 C50.8134331,180 17.4762623,154.955772 5.12117078,120 L174.878833,120 L174.878833,120 L174.878829,120 L174.878829,120 L174.878829,120 Z" id="red" fill="#E94B35"></path>
                <path d="M174.878829,120.000001 C178.195374,110.616633 180,100.519063 180,90 C180,79.480937 178.195374,69.3833673 174.878829,59.9999996 L5.12116698,60 C1.80462645,69.3833673 0,79.480937 0,90 C0,100.519063 1.80462645,110.616633 5.12117078,120 L174.878833,120 L174.878833,120 L174.878829,120.000001 L174.878829,120.000001 L174.878829,120.000001 Z" id="blue" fill="#227FBB"></path>
                <path d="M174.878829,59.9999996 C162.523738,25.0442275 129.186567,0 90,0 C50.8134331,0 17.4762623,25.0442275 5.12117078,59.9999996 L174.878833,60 L174.878833,60 L174.878829,59.9999996 L174.878829,59.9999996 L174.878829,59.9999996 Z" id="white" fill="#FFFFFF"></path>
                <path d="M26,95.1577095 C26,119.107979 27.1766078,130 27.1766078,130 L57.6274695,130 L88.078932,130 C88.078932,130 89.2559156,119.107979 89.2559156,95.1577095 C89.2559156,71.2074403 70.6415414,59.1000366 57.6274695,53 C44.6142247,59.1000366 26,71.2074403 26,95.1577095 C26,95.1577095 26,71.2074403 26,95.1577095 L26,95.1577095 L26,95.1577095 L26,95.1577095 Z" id="shield-border" fill="#FFFFFF" transform="translate(57.627958, 91.500000) scale(1, -1) translate(-57.627958, -91.500000) "></path>
                <path d="M29,86.8288374 C29,64.949988 30.0694395,55 30.0694395,55 L57.7467641,55 L85.4246346,55 C85.4246346,55 86.4944158,64.949988 86.4944158,86.8288374 C86.4944158,108.707687 69.5754833,119.76794 57.7467641,125.340395 C45.9187967,119.76794 29,108.707687 29,86.8288374 L29,86.8288374 Z M60.4738528,80.9216083 C63.676498,80.9722271 69.9249594,81.0949277 75.4888092,79.2739308 C75.4888092,79.2739308 75.3419615,81.2213081 75.3419615,83.4897812 C75.3419615,85.7587899 75.4888092,87.7060316 75.4888092,87.7060316 C70.3853326,86.035687 64.0829987,86.0009155 60.4738528,86.0456497 L60.4738528,98.1299097 L55.4149491,98.1299097 L55.4149491,86.0456497 C51.8060762,86.0009155 45.5036751,86.0356802 40.3999926,87.7060316 C40.3999926,87.7060316 40.5469776,85.7587899 40.5469776,83.4897812 C40.5469776,81.2213081 40.3999926,79.2739308 40.3999926,79.2739308 C45.9639111,81.0949277 52.2123038,80.9722271 55.4149491,80.9216083 L55.4149491,73.332436 C52.495952,73.3070939 48.2896339,73.4434367 43.533658,75.0001076 C43.533658,75.0001076 43.680643,73.0527303 43.680643,70.7838563 C43.680643,68.5152489 43.533658,66.5678732 43.533658,66.5678732 C48.2825927,68.122002 52.4837835,68.2605513 55.4019601,68.2358097 C55.2520349,63.4302587 53.8206005,57.3728814 53.8206005,57.3728814 C53.8206005,57.3728814 56.766533,57.5977564 57.9441965,57.5977564 C59.1230893,57.5977564 62.0681342,57.3728814 62.0681342,57.3728814 C62.0681342,57.3728814 60.63711,63.4302587 60.4868417,68.2358097 C63.4052241,68.2605513 67.6062792,68.122002 72.3550767,66.5678732 C72.3550767,66.5678732 72.2082275,68.5152489 72.2082275,70.7838563 C72.2082275,73.0527303 72.3550767,75.0001076 72.3550767,75.0001076 C67.5993052,73.4434367 63.3927827,73.3070939 60.4738528,73.332436 L60.4738528,80.9216083 L60.4738528,80.9216083 Z" id="shield" fill="#E94B35"></path>
                <path d="M37.2999992,112.986972 C37.2999992,112.986972 40.2142526,122.838056 45.1564883,122.838056 C49.0839121,122.838056 50.5172344,119.672022 50.5172344,119.672022 C50.5172344,119.672022 53.0957002,126.345898 57.909262,126.345898 C62.7232096,126.345898 65.3017864,119.672022 65.3017864,119.672022 C65.3017864,119.672022 66.7348327,122.838056 70.6623673,122.838056 C75.6046029,122.838056 78.1552021,112.986972 78.1552021,112.986972 C71.3571711,103.360328 57.4881548,97 57.4881548,97 C57.4881548,97 42.642237,104.925792 37.2999992,112.986972 L37.2999992,112.986972 Z" id="shape" fill="#227FBB" transform="translate(57.727601, 111.672949) scale(1, -1) translate(-57.727601, -111.672949) "></path>
            </g>
        </g>
    </g>
</svg>