<?xml version="1.0" encoding="UTF-8" standalone="no"?>
<svg width="180px" height="180px" viewBox="0 0 180 180" version="1.1" xmlns="http://www.w3.org/2000/svg" xmlns:xlink="http://www.w3.org/1999/xlink">
    <!-- Generator: Sketch 3.8.3 (29802) - http://www.bohemiancoding.com/sketch -->
    <title>slovenia</title>
    <desc>Created with Sketch.</desc>
    <defs></defs>
    <g id="Page-1" stroke="none" stroke-width="1" fill="none" fill-rule="evenodd">
        <g id="flags" transform="translate(-990.000000, -5310.000000)">
            <g id="slovenia" transform="translate(990.000000, 5310.000000)">
                <path d="M174.878829,120 C162.523738,154.955772 129.186567,180 90,180 C50.8134331,180 17.4762623,154.955772 5.12117078,120 L174.878833,120 L174.878833,120 L174.878829,120 L174.878829,120 L174.878829,120 Z" id="red" fill="#E94B35"></path>
                <path d="M174.878829,120.000001 C178.195374,110.616633 180,100.519063 180,90 C180,79.480937 178.195374,69.3833673 174.878829,59.9999996 L5.12116698,60 C1.80462645,69.3833673 0,79.480937 0,90 C0,100.519063 1.80462645,110.616633 5.12117078,120 L174.878833,120 L174.878833,120 L174.878829,120.000001 L174.878829,120.000001 L174.878829,120.000001 Z" id="blue" fill="#227FBB"></path>
                <path d="M174.878829,59.9999996 C162.523738,25.0442275 129.186567,0 90,0 C50.8134331,0 17.4762623,25.0442275 5.12117078,59.9999996 L174.878833,60 L174.878833,60 L174.878829,59.9999996 L174.878829,59.9999996 L174.878829,59.9999996 Z" id="white" fill="#FFFFFF"></path>
                <path d="M80.7673438,68.2088773 L83,35.1987241 C65.594378,26.9337586 45.405622,26.9337586 28,35.1987241 L30.2326562,68.2088773 C31.2358201,83.0407913 41.298137,95.7010993 55.5,100 C69.701863,95.7010993 79.7641799,83.0407913 80.7673437,68.2088773" id="shield" fill="#227FBB"></path>
                <path d="M38.9870228,81.9653516 C39.411989,82.6426265 39.8625644,83.3027272 40.3375393,83.944313 L40.3375393,83.944313 C41.2612163,83.825861 42.1677168,83.5107261 43,82.9989081 C45.1658075,81.6670306 47.8341925,81.6670306 50,82.9989081 C52.1658075,84.3307855 54.8341925,84.3307855 57,82.9989081 C59.1658075,81.6670306 61.8341925,81.6670306 64,82.9989081 C66.1658075,84.3307855 68.8341925,84.3307855 71,82.9989081 L71,83.4794848 C71.5008536,82.7762256 71.9728405,82.0516951 72.4144313,81.3075879 C70.2418517,82.3236351 67.6978942,82.2214697 65.6,81.0010919 C63.310432,79.6692145 60.489568,79.6692145 58.2,81.0010919 C55.910432,82.3329694 53.089568,82.3329694 50.8,81.0010919 C48.510432,79.6692145 45.689568,79.6692145 43.4,81.0010919 C42.0420084,81.7910568 40.4971106,82.1124767 38.9870228,81.9653516 L38.9870228,81.9653516 Z M37.7062937,79.7222966 C36.5033896,77.3958241 35.5872624,74.9016915 35,72.2865309 L45.25,58.762177 L49.35,64.1719186 L55.5,52 L61.65,64.1719186 L65.75,58.762177 L76,72.2865309 C75.3658311,75.1105725 74.3481645,77.7934803 73,80.2765318 L73,78.9989081 C70.710432,80.3307855 67.889568,80.3307855 65.6,78.9989081 C63.310432,77.6670306 60.489568,77.6670306 58.2,78.9989081 C55.910432,80.3307855 53.089568,80.3307855 50.8,78.9989081 C48.510432,77.6670306 45.689568,77.6670306 43.4,78.9989081 C41.6539911,80.0145887 39.5990078,80.2557182 37.7062937,79.7222966 L37.7062937,79.7222966 Z M41.6779439,85.6301152 C45.2888145,89.8634836 50.032843,93.1382125 55.5,95 C60.9031858,93.1599972 65.6000668,89.9399253 69.1948391,85.7783245 C67.457984,86.2398196 65.5930397,85.9807421 64,85.0010919 C61.8341925,83.6692145 59.1658075,83.6692145 57,85.0010919 C54.8341925,86.3329694 52.1658075,86.3329694 50,85.0010919 C47.8341925,83.6692145 45.1658075,83.6692145 43,85.0010919 C42.5760582,85.2617977 42.1328599,85.4714721 41.6779439,85.6301152 L41.6779439,85.6301152 L41.6779439,85.6301152 Z" id="mountain" fill="#FFFFFF"></path>
                <path d="M55,42 L55.4618802,43.3071796 L57,43 L55.9237604,44 L57,45 L55.4618802,44.6928204 L55,46 L54.5381198,44.6928204 L53,45 L54.0762396,44 L53,43 L54.5381198,43.3071796 L55,42 L55,42 Z M48,33 L48.4618802,34.3071796 L50,34 L48.9237604,35 L50,36 L48.4618802,35.6928204 L48,37 L47.5381198,35.6928204 L46,36 L47.0762396,35 L46,34 L47.5381198,34.3071796 L48,33 L48,33 Z M63,33 L63.4618802,34.3071796 L65,34 L63.9237604,35 L65,36 L63.4618802,35.6928204 L63,37 L62.5381198,35.6928204 L61,36 L62.0762396,35 L61,34 L62.5381198,34.3071796 L63,33 L63,33 Z" id="stars" fill="#F2C500"></path>
                <path d="M29.9298354,34 L32.2127479,67.9183087 C33.1452319,81.7726643 42.3720029,93.654553 55.5,97.906756 C68.6279971,93.654553 77.8547681,81.7726643 78.7872521,67.9183087 L81.0701646,34 C81.7085818,34.3046316 82.3519478,34.5986344 83,34.8818883 L80.7673438,68.0534396 C79.7641799,82.9578719 69.701863,95.6800805 55.5,100 C41.298137,95.6800805 31.2358201,82.9578719 30.2326562,68.0534396 L28,34.8818883 C28.6480522,34.5986344 29.2914182,34.3046316 29.9298354,34" id="border" fill="#E94B35"></path>
            </g>
        </g>
    </g>
</svg>