<svg id="Layer_1" data-name="Layer 1" xmlns="http://www.w3.org/2000/svg" viewBox="0 0 100 100"><defs><style>.cls-1{fill:#021631;fill-rule:evenodd;}</style></defs><path class="cls-1" d="M50.5,14.19a5.87,5.87,0,0,0-.28-11.72h-.55A47.53,47.53,0,1,0,97.5,50h0V49.8a5.86,5.86,0,0,0-11.72,0v.51A35.84,35.84,0,1,1,49.83,14.19Z"/><path class="cls-1" d="M66.63,14.7a5.87,5.87,0,1,0-5.86-5.87,5.86,5.86,0,0,0,5.86,5.87Z"/><path class="cls-1" d="M97.33,32.78a5.83,5.83,0,1,1-5.8-5.92,5.85,5.85,0,0,1,5.8,5.92Z"/><path class="cls-1" d="M83.21,22.51a5.86,5.86,0,1,0-5.86-5.86A5.93,5.93,0,0,0,83.21,22.51Z"/></svg>