<?xml version="1.0" encoding="utf-8"?>
<!-- Generator: Adobe Illustrator 23.0.4, SVG Export Plug-In . SVG Version: 6.00 Build 0)  -->
<svg version="1.1" id="Layer_1" xmlns="http://www.w3.org/2000/svg" xmlns:xlink="http://www.w3.org/1999/xlink" x="0px" y="0px"
	 viewBox="0 0 521.3 736.6" style="enable-background:new 0 0 521.3 736.6;" xml:space="preserve">
<style type="text/css">
	.st0{fill:#660033;}
	.st1{fill:#94BEE5;}
	.st2{fill:#FFFFFF;}
	.st3{fill:#FFE600;}
</style>
<title>AVFC_BADGE_LIGHT_RGB</title>
<g id="_Group_">
	<path id="_Path_" class="st0" d="M0,0v557.5c0,85.6,100.9,113.6,174.6,134.1c14.8,4.1,28.7,8,40.7,11.9c7.3,2.6,14.3,6,20.9,10.2
		c8.6,5.7,17.4,15.2,17.5,15.3l7,7.6l7-7.6c0.1-0.1,8.9-9.7,17.5-15.3c6.6-4.1,13.5-7.5,20.9-10.1c12.1-4,26-7.9,40.8-12
		C420.4,671,521.3,643,521.3,557.4V0H0z"/>
	<path id="_Path_2" class="st1" d="M502.4,557.5c0,71.2-89.1,95.9-160.7,115.8c-15,4.2-29.1,8.1-41.7,12.2
		c-8.9,3.1-17.4,7.2-25.3,12.3c-5,3.4-9.7,7.2-14,11.3c-4.4-4.2-9.1-8-14.1-11.3c-7.9-5.1-16.5-9.2-25.3-12.3
		c-12.5-4.1-26.7-8.1-41.6-12.2C108.1,653.4,19,628.6,19,557.5V19h483.4V557.5z"/>
	<polygon id="_Path_3" class="st2" points="78.9,232 94.3,223.8 109.7,232 106.8,214.6 119.2,202.2 102,199.7 94.3,183.8 
		86.6,199.7 69.4,202.2 81.9,214.6 	"/>
	<g id="_Group_2">
		<path id="_Path_4" class="st0" d="M260.8,46.2c-4.7,0.3-9.6,0.5-15.2,0.5c-6.2,0-12.4-0.2-20.1-0.5c-2,0.8-2,4.2-0.6,5.5l5.2,1.1
			c3.9,1,5.2,1.6,5.2,2.8c0,1-0.5,2.8-1.6,5.9c-2,5.5-9,23.8-13,34.1l-6.2,15.3c-2,4.9-4.6,10.4-5.9,13.2l-5.4-13.7l-14.4-36.7
			c-3.9-9.8-6.5-16.6-6.5-17.9c0-1.5,1.1-2.5,4.1-3.1l4.9-1c1-1.5,1.1-4.6-0.2-5.5c-9.9,0.3-17,0.5-24.5,0.5
			c-8.5,0-13.9-0.3-22.2-0.5c-1.5,0.8-2,3.8-0.6,5.5l6.5,1.6c5.2,1.3,6,1.6,12.2,17.3L189,137c2.3,5.6,5.1,14.2,6.9,18.6
			c1.3,0.9,2.8,1.4,4.4,1.3c2,0.1,4-0.3,5.8-1.3c3.8-9.1,8-22,16.3-41.8l11.9-28.2c5.6-13.2,9.6-22.3,13.2-27.7
			c2.1-3.4,4.9-4.6,9.5-5.4l4.2-0.8C262.3,50.7,262.1,46.8,260.8,46.2"/>
		<path id="_Path_5" class="st0" d="M332.9,46.7h-36.5c-7.8,0-16-0.2-23-0.5c-1.8,0.7-1.8,4.7-0.3,5.7l3.3,0.5
			c7.3,1.1,8.3,2.6,8.3,17.8v60.7c0,15.2-1,16.3-8.3,17.4l-5.4,0.8c-1.3,1-1.3,4.7,0,5.7c9.8-0.3,17.9-0.5,25.4-0.5
			c7.8,0,15.8,0.2,25.9,0.5c1.1-1,1.1-4.7,0-5.7l-6-0.8c-7.3-1-8.3-2.3-8.3-17.4v-22c0-4.4,0.2-4.9,4.6-4.9h14.8
			c8.6,0,10.4,1.3,12.1,9.1l0.8,3.9c1.1,1.5,5.2,1.3,6.2-0.2c-0.3-4.9-0.5-10.9-0.5-17c0-6.2,0.2-12.2,0.5-17.5
			c-1-1.5-5-1.6-6.2-0.2l-0.8,3.9c-1.6,8-3.4,9.1-12.1,9.1h-14.8c-4.4,0-4.6-0.5-4.6-4.9V60.8c0-6.4,0-6.7,5.4-6.7h15
			c8.3,0,13.2,2,16,5.4c1.6,2.1,2.9,6,4.7,12.7c2,1.3,5.5,1.1,6.2-0.7c-0.3-10.9-0.3-22.7-0.3-25.4
			C352.7,46.5,343.4,46.7,332.9,46.7"/>
		<path id="_Path_6" class="st0" d="M469.3,124.1c-4.4,11.1-13.5,25.3-33.3,25.3c-19.6,0-38.3-17.4-38.3-49.9s19.4-48,37.5-48
			c15.8,0,26.3,8.1,30.7,23.3c1.1,1.5,5.5,0.8,6.2-1.1c-1.2-8.4-1.8-16.9-2-25.4c-4.9-0.3-17-4.2-33.6-4.2c-17,0-33.6,4.9-45.2,14.5
			c-11.2,9.3-19.7,23.3-19.7,43.2c0,20.2,9,33.8,20.7,42.7c11.6,8.6,27.9,12.4,43.9,12.4c12.7,0,24.3-3.6,33.1-6
			c2.3-3.8,5.1-13.5,6.2-25.6C474.5,123.3,470.6,122.9,469.3,124.1"/>
		<path id="_Compound_Path_" class="st0" d="M101.5,108.8H86.2c-4.1,0-4.9-0.5-3.4-4.9l4.1-12.2c2.4-7.5,5.7-16.3,7-20.1
			c1.5,3.4,4.4,12.2,6.7,19.2l4.2,13.2C106.1,108.3,105.3,108.8,101.5,108.8 M149.5,148.1c-6-1-7.5-4.7-10.9-14.5l-22.2-64
			c-4.1-11.6-6-17.6-7.3-22.3c-0.7-2.5-1.6-3.3-3.8-3.3C105,44,99.9,50.7,93,53.2l-4,10.8c-0.6,1.5-1.2,3.2-1.9,5l-2,5.3v0.1
			l-14.9,39.8c-4.4,11.8-7.5,19.6-10.3,26.1c-2.8,6.4-6,7.7-10,8.1l-4.4,0.5c-1.1,1.3-1.3,4.7,0.5,5.7c7.5,0,11.2-0.5,16.8-0.5
			c6.9,0.2,12.7,0.2,18.4,0.5c1.6-0.8,1.3-4.6,0.3-5.7l-4.9-0.8c-4.6-0.8-6.7-1.8-6.7-2.8c0.1-2,0.5-4,1.1-5.9l6.4-18.9
			c1-3.1,1.5-3.3,5.4-3.3h19.4c5.7,0,7,0.3,7.8,2.9l4.4,14c2,6,3.1,9.9,3.1,11.1c0,1-0.7,2.1-4.4,2.8l-5.2,0.8
			c-1.8,1.3-1.5,4.7,0.3,5.7c7.5-0.3,13.9-0.5,22-0.5c8.5,0,17.3,0.2,25.1,0.5c1.5-1,1.1-4.9,0.2-5.7L149.5,148.1z"/>
	</g>
	<path id="_Compound_Path_2" class="st3" d="M458.1,312.1c-1.5,0-3,0.1-4.5,0.5c0,0,19.3-18.9,19.3-48.5c0-13.4-3.2-18.6-3.7-18.6
		c-1,0-1,8-7.2,14.2c-4.5,4.5-11.5,4.9-15.4,8.9c3.8-8.1,1.1-19.1,0.5-19.1s-0.2,5.8-7.5,13.1c-4.6,4.6-15.4,8-24.2,16.8
		c3.7-8.6,0.5-17.6-0.3-17.6s0,5.2-5,10.2c-4.7,4.7-13.7,7-20.4,13.8c-9.3,9.3-7.7,23.5-7.7,28.6c0,0.5,0,1,0.1,1.5
		c-1.3,0.9-2.6,2-4,3.1c-10.4,8.8-16.3,21.7-16.2,35.3c0,26.4,17.1,44.2,32.1,59.9c6.7,7,13,13.5,17.5,20.4
		c4.7,7.1,6.9,13.5,6.9,20.2c0.1,6.3-2,12.4-6,17.2c-4.3,5-10.2,7.5-17.7,7.5c-13,0-22.5-4.8-32.5-10c-5.1-2.8-10.4-5.3-15.8-7.5
		c-2.9-28.5-23.3-45.6-23.3-72.3c0-14.5,6.5-22.6,4-32.7c4.6,4.6,12.7,6.3,15.3,6.3c1.6,0.1,3.2-0.5,4.5-1.5
		c0.1-0.1,0.2-0.3,0.1-0.4c0,0,0,0-0.1-0.1c-4.1-3-6.5-7.8-6.5-12.8c0-8.8,3.3-15.5,3.3-24.2c0.1-5.5-2-10.8-5.8-14.9
		c4,4,11,6.3,14.4,6.3c3,0,4.7-0.5,5.6-1.2c0.1-0.1,0.2-0.3,0.1-0.4c0,0,0-0.1-0.1-0.1c-1.7-1-8.4-5.6-8.4-12.6
		c0-8,2.2-9.5,2.2-15.1c0-3.4-0.9-6.7-2.6-9.7c2.5,1.4,5.3,2.2,8.2,2.2c5,0,7.8-1.2,9.6-2.8c0.1-0.1,0.1-0.3,0-0.5
		c-0.1-0.1-0.1-0.1-0.2-0.1c-12.5-1-10.8-29.4-22.6-39.8c1,0.2,2.1,0.3,3.1,0.3c4,0,9-3.5,10.8-6.8c0.1-0.2,0-0.3-0.1-0.4
		c0,0-0.1,0-0.1,0c-22.5-1.1-29.7-51.1-80.6-41c2.6-3.8,7.5-6.9,9.3-7.9c0.2-0.1,0.2-0.3,0.1-0.4c0-0.1-0.1-0.1-0.1-0.1
		c-2.3-0.9-7.1-2.8-18.5-2.8c-11.1,0.2-21.6,5.4-28.5,14.2c2.7-5.5-0.6-12.5-3.7-15.9c-0.1-0.1-0.3-0.1-0.5,0c0,0-0.1,0.1-0.1,0.2
		c-0.6,2.4-1.8,4.5-3.5,6.3c-9.2,9.2-25.6,15-25.6,34.1c0,0-5.4,3.4-12.6,8.4s-11.2,12.8-11.2,15.2c-2.8,1.5-14.3,9.9-23.5,19.1
		c-0.2,0.2-0.2,0.6-0.1,0.8c0.9,1.4,1.6,3,2.1,4.6c0.1,0.3,0.5,0.5,0.8,0.4c0.1,0,0.1-0.1,0.2-0.1c1.2-1.2,3.7-3.4,4.9-3.7
		c-2.1,2.1-2.8,4.6-2.8,7.7c0,6.9,15.4,16.7,16.4,15.7c0.7-0.7-1.8-7.8,0.5-10.1c3.4-3.5,15.7-3.9,19.5-3.9s5.7,1.5,5.7,4.1
		c0,6.5-3.7,18.6-15.5,18.6c-4.8,0-7.9-4.6-8.6-3.8s-0.2,7.6,1.4,9.9c-1,1.4-1.4,3.1-1.3,4.8c0,8.4,13.9,19.2,15.3,17.8
		c1-1-2.9-10.5-0.4-10.5c1.3,0,5,5.5,9.3,5.5c0.1,0,0.2,0,0.3-0.1c0.7-0.7-2.7-5.5-0.9-7.3c4.7-4.7,16.9-13.9,20-14.9
		c6.5-2.1,9.9,2.6,9.9,9c0,14.1-14.9,17-27.2,29.2s-14.6,29.4-30,29.4c-2,0,11.4-3.7,15.2-17c-40.2,0.3-47-22.1-79.1-26.4
		c-0.1-0.5-0.3-1-0.7-1.4c-0.8-0.9-12.1-10.8-12.1-33c0-4.5-3-7.9-7.6-7.9l0,0c-1.4-3.1-5.3-9.5-13.3-9.5c-7.6,0-9.6,3.5-9.1,4
		S75,269,79,273c1.8,1.8,3.1,4.2,3.6,6.7c-1,1.1-1.5,2.6-1.5,4.1c-2.9-0.3-5.8,0.8-7.8,2.8c-2.6-1.4-5.6-2.2-8.6-2.1
		c-11,0-13.3,10-12.8,10.4s2.4-1.8,5.8-1.8c3.9,0,7.9,3.1,10.1,5c-0.4,2.4,0.4,4.9,2,6.7c0,0-5.3,1.6-6.2,9l-0.8,0.2
		c-14.6,4.1-11.9,15.5-11.2,15.5s1.4-4.9,8.1-4.9c1.9,0,3.8,0.2,5.7,0.6c2.1,4,6.2,6.4,10.7,6.2c3,0,5.9-0.7,8.3-0.7
		c3.3,0,5.4,2,5.4,6.7c0,6.9-6.6,4.8-9.6,7.8c-2,2-2.3,3.8-2.3,6.6c0,0.1,0,0.2,0,0.4c-0.9,0.3-1.9,0.4-2.9,0.5
		c-4.6,0-7.2-4.1-7.8-3.5c-0.8,0.8,1.9,13.9,11.2,13.9c2.5,0.1,5-0.6,7-2c0.8,0.2,1.7,0.3,2.5,0.3c9.4,0,11.5-11.3,23.1-11.3
		s34,16.1,37.1,36.1c0,0.2,0.2,0.3,0.4,0.3c0.1,0,0.1,0,0.2-0.1c3.1-2.6,4.8-6.4,4.8-10.4c7.5,6,14.6,12.3,21.4,19.1
		c0,0-46.2,35.5-48.6,36.9c-2.1,1.2-3.1,1.8-5.6,1.8c-6.5,0-8.6-10.9-18.9-10.9c-1.7,0-3.4,0.5-4.7,1.5c-1.4-0.3-2.7-0.4-4.1-0.4
		c-12.2,0-14.4,16.4-13.3,16.4s2-4.2,7.8-4.2c0.8,0,1.5,0.1,2.3,0.2c0,3.1,1.2,6.1,3.3,7.7c-2.3,1-4.2,2.9-5.2,5.1
		C73.1,449.9,73.4,467,74.8,467c1,0,1.6-7.1,10-7.1c0.8,0,1.5,0.3,2.2,0.6c1.5,6.4,5.9,9.9,11,9.9c-1.3,2.4-1.1,6.2,0.3,9.6
		c-3.4,7,2.6,16.7,4.2,16.7c1.2,0-0.3-6.2,2.4-10.2c0.6,0.1,1.2,0.2,1.8,0.2c4.5,0,8.6-2.5,10.8-6.4c0,0,0.4,6.8,7.2,7.4
		c1.4,6,5.3,11.1,6.5,11.1c0.9,0-0.8-8.2,1.7-13.4c9.5-9.5,2-21.9,12-31.8c11.4-11.4,39.5-21.6,62.6-22.5
		c8.3,9.4,19.9,23.6,25.2,27.3c0,0-0.2,0.3-0.6,0.6c-14.2,14.2-40.7,1.8-54.6,15.7c-5.5,5.5-6.3,10.6-14.1,10.6
		c-2.3,0-4.5-0.9-6.3-2.4c-0.1-0.1-0.3-0.1-0.5,0c0,0-0.1,0.1-0.1,0.1c-0.9,4.1,0.4,8.4,3.3,11.4c4.8,4.8,10.7,3.9,12.3,3.1
		c-3.8,5.2-12.3,4.9-17.2,2.1c-0.2-0.1-0.3,0-0.4,0.1c0,0.1-0.1,0.2,0,0.2c3.9,14.8,19.2,12,19.2,12c3.2,15.9,19,22.6,19,33.2
		c-0.1,3.3-1.4,6.5-3.8,8.9c-6,6-19.2,10-33.6,10c-23.2,0-23.5-16.5-36.2-16.5c-1.6,0-3.2,0.2-4.8,0.6c-2.8-2.9-6.7-4.5-10.7-4.5
		c-7.7,0-12.2,8.7-11.2,9.8c0.7,0.7,2.9-2.1,6.4-2.1c2.2,0.2,4,1.7,4.7,3.8c-0.6,0.8-1.2,1.6-1.7,2.5c-1.6-0.4-3.2-0.6-4.9-0.5
		c-14.5,0-14.3,16.8-12.8,16.8c0.9,0,2.8-6.2,9.8-5.5c-1.5,2.7-2.3,5.7-2.3,8.8c0,0.5,0,0.9,0.1,1.4c-3.5,2-5.8,5.6-5.9,9.6
		c0,6.1,1.2,9.2,2.1,9.2s2-7,7.4-9.3c2.4,3.3,5.9,5.7,9.9,6.8c-0.7,3.2-1,6.5-0.9,9.8c0,5.6,1.8,13.2,2.9,13.2s1.8-8.7,5.6-12.1
		c1.6,1.6,3.5,2.8,5.6,3.7c2.3,1,4.7,1.5,7.2,1.5h0.5c19.4-0.3,31.8-18.1,46.4-18.1c8.1,0,8.3,7.6,5.3,10.9
		c22,0,28.4-16.8,41.8-16.8c6.8,0,12.9,3.6,19.2,3.6c4,0,9.2-1.4,12-7.2c0.1-0.2,0-0.4-0.1-0.4c0,0-0.1,0-0.1,0
		c-10.3,0.1-14.6-4.8-15.5-7.8c18.4,7.5,23.8-4.1,24.9-7.1c0.1-0.2,0-0.3-0.2-0.4c-0.1,0-0.1,0-0.2,0c-1.1,0.5-2.3,0.7-3.5,0.7
		c-9.9,0-20.7-10.1-20.7-24c0-13.2,9.1-20.6,17.8-23c6.9-19.4,16.5-23.4,12.8-35.5c0,0,0-0.1,0-0.1c0,0,0,0,0.1,0
		c1.7,2.9,2.7,6.1,3,9.5c0,12.8-12.3,20.2-12.3,40.5c0,23,17.9,22,17.9,37.4c0,6.1-2.3,9.6-3.2,10.7c-0.1,0.1-0.1,0.3,0.1,0.4
		c0,0,0.1,0.1,0.1,0.1c2.2,0.3,10.5,0.6,18.6-12.8c10.7,5.5,7.8,14.8,7,16.9c-0.1,0.2,0,0.3,0.2,0.4c0,0,0.1,0,0.1,0
		c13.9-0.4,18.4-19.3,18.4-19.3c12.3-1.3,21.9,2.9,21.9,8c0,13.3-24.8,38.2-43,38.2c-6.8,0-9.1-7-15-7c-3.3-0.2-6.4,1.7-7.7,4.7
		c-2.2-1-4.7-1.5-7.1-1.6c-5.8,0-10.9,3.2-12.6,10.4c-7.8,2.6-9.4,14.7-8.6,15.5c0.6,0.6,4.4-5.8,10.8-4.3c1,1.6,2.1,3,3.5,4.3
		c-1.5,0.8-2.9,1.8-4.2,3.1c-7.7,7.7-5.7,16.2-5,17s2.2-3,4.3-5.1c1.7-1.7,4.1-3.5,7.3-3.2c2.6,5,8.3,6.2,11.9,6.2
		c-0.4,4.5-0.4,12,0.7,13.1c0.8,0.8,4.3-6.4,9.5-10.2c2.8,1.7,6.3,3.3,9.8,3.3c10.1,0,19.1-4.8,26.5-12c10.6-10.7,18-27.7,27-27.7
		c5.7,0,4.6,5.2,4.4,5.8c14.6,0,8.4-17.8,36.1-45.5c3.4-3.4,7.3-6.3,7.9-9.7c0-0.2-0.1-0.3-0.3-0.4c-0.1,0-0.1,0-0.2,0
		c-2.4,1.6-8.6,2-11.4-0.8c0,0,22.4-11.2,23-27.8c0-0.2-0.1-0.3-0.3-0.3c-0.1,0-0.2,0-0.2,0.1c-6,4.8-17.2,3.7-17.2,3.7
		c5.2-4.2,9.1-16.2,3.7-27.5c-0.1-0.2-0.3-0.2-0.4-0.2c-0.1,0-0.1,0.1-0.2,0.2c-5.2,12.3-15.8,16.5-25.5,16.5
		c-13.8,0-25.5-11.1-25.5-26.3c0-13,4.2-18.8,5.9-30.5c3,1.3,6,2.8,9.2,4.5c10.8,5.5,23,11.7,39.8,11.7c5.9,0.1,11.8-1.2,17.2-3.6
		c4.9-2.2,9.2-5.5,12.7-9.6c6.4-7.8,9.9-17.5,9.8-27.6c0-21.6-14.7-36.9-28.9-51.7c-7-7.3-14.3-14.9-19.5-23
		c-5.6-8.7-8.2-16.9-8.2-25.8s5-18.5,11.9-24.6c0,0,15.3,8.5,32.8,8.5s28.1-12.9,28.1-12.9c8.1-8.1,16.7-6.8,17.6-7.7
		S464.4,312.1,458.1,312.1z M208,235.9c-2.9,2.9-2.5,6.5-5.1,9c-2.5,2.5-6.4,2.4-8.9,0c-1.2-1.2-1.8-2.8-1.8-4.4
		c0-3.2,3.7-6.1,13.9-6.1c1.2,0,2.6,0.1,4,0.1C209.3,234.8,208.6,235.3,208,235.9z"/>
</g>
</svg>
