<?xml version="1.0" encoding="utf-8"?>
<!-- Generator: Adobe Illustrator 19.2.1, SVG Export Plug-In . SVG Version: 6.00 Build 0)  -->
<!DOCTYPE svg PUBLIC "-//W3C//DTD SVG 1.1//EN" "http://www.w3.org/Graphics/SVG/1.1/DTD/svg11.dtd">
<svg version="1.1" id="Bournemouth" xmlns="http://www.w3.org/2000/svg" xmlns:xlink="http://www.w3.org/1999/xlink" x="0px"
	 y="0px" viewBox="0 0 1640 2156.1" style="enable-background:new 0 0 1640 2156.1;" xml:space="preserve">
<style type="text/css">
	.st0{fill:url(#SVGID_1_);}
	.st1{fill:url(#SVGID_2_);}
	.st2{fill:url(#SVGID_3_);}
	.st3{fill:#FFFFFF;}
	.st4{fill:#1D1D1B;}
	.st5{fill:url(#SVGID_4_);}
	.st6{fill:url(#SVGID_5_);}
	.st7{fill:url(#SVGID_6_);}
	.st8{fill:url(#SVGID_7_);}
	.st9{fill:url(#SVGID_8_);}
	.st10{fill:url(#SVGID_9_);}
	.st11{fill:url(#SVGID_10_);}
	.st12{fill:url(#SVGID_11_);}
	.st13{fill:url(#SVGID_12_);}
	.st14{fill:url(#SVGID_13_);}
	.st15{fill:url(#SVGID_14_);}
	.st16{fill:url(#SVGID_15_);}
	.st17{fill:url(#SVGID_16_);}
	.st18{fill:url(#SVGID_17_);}
</style>
<linearGradient id="SVGID_1_" gradientUnits="userSpaceOnUse" x1="1014.5804" y1="1866.8723" x2="1729.4202" y2="10.7734">
	<stop  offset="0" style="stop-color:#881002"/>
	<stop  offset="1" style="stop-color:#E20613"/>
</linearGradient>
<path class="st0" d="M1148.7,1477.8c10,0.1,19.8,1.3,30.9,1.2c0,0,0,0,0,0C1168.5,1479,1158.7,1477.9,1148.7,1477.8
	C1148.7,1477.8,1148.7,1477.8,1148.7,1477.8z"/>
<linearGradient id="SVGID_2_" gradientUnits="userSpaceOnUse" x1="1087.6584" y1="1895.017" x2="1802.4982" y2="38.918">
	<stop  offset="0" style="stop-color:#881002"/>
	<stop  offset="1" style="stop-color:#E20613"/>
</linearGradient>
<path class="st1" d="M1233.7,1502.2c4.2-1.2,8.2-2.5,12-4.1C1241.9,1499.7,1237.9,1501.1,1233.7,1502.2z"/>
<linearGradient id="SVGID_3_" gradientUnits="userSpaceOnUse" x1="820.0001" y1="2123.4463" x2="820.0001" y2="63.5375">
	<stop  offset="0" style="stop-color:#881002"/>
	<stop  offset="1" style="stop-color:#E20613"/>
</linearGradient>
<path class="st2" d="M1495.6,1377.3l1.3-3.1l0.2-0.4l0.2-0.4c6.5-15.1,13-31.1,20-48.9c7.2-18.7,13.4-35.5,19-51.2
	c85.7-242,103.7-457.1,103.8-594.9V116.7h0C1373.7,39.3,1098,0.1,820.7,0.1h-1.3C542,0.1,266.3,39.3,0,116.7l0,0v561.6
	c0.1,137.8,18.1,352.9,103.8,594.8c5.6,15.8,11.8,32.6,19.1,51.5c6.9,17.7,13.5,33.7,19.9,48.7l0.2,0.4l0.2,0.4l1.3,3.1
	c116.5,272.3,297.9,503.1,539.1,685.7c30.6,23,62.7,45.8,95.4,67.5l0.5,0.3l40.6,25.4l40.6-25.4l0.5-0.3
	c32.7-21.7,64.8-44.4,95.5-67.5C1197.7,1880.3,1379.1,1649.6,1495.6,1377.3z"/>
<g>
	<g>
		<path class="st3" d="M1002.5,1114.7l-68.5-78.4c-96-6.6-181.7-50.9-242.5-118.2C670,933.3,655.4,953,655.4,953l-167.3-4.4l-3,66.4
			c0,0-24.6-1.4-50.5,0c-26,1.6-27.4,37.6-27.4,37.6s-20.2-1.4-41.8,4.3c-21.6,5.8-18.7,39-18.7,39s-56.3,1.5-75.1,23.1
			c-18.8,21.7-21.6,66.4-2.8,92.4c18.7,26,125.5,178.9,152.9,239.6c26.3,58.2,31.4,251.3,31.8,267.4
			c81.9,100.7,176.5,192.2,283.9,273.5c26.5,20,54.3,39.7,82.7,58.8c28.4-19.1,56.2-38.9,82.9-58.9c20.6-15.6,40.5-31.7,60.2-48
			l-274-316.2l0.2-0.2l17.1-14.8l5.5-0.3c1.6-0.1,3.5-0.2,5.4-0.2h0c4.6,0,9,0.3,13.7,0.6c5.3,0.3,10.8,0.6,16.6,0.6h0.6
			c15.8,0,37.6-1.9,65.8-16.8c10.4-5.6,18-13.6,23.2-24.4c4.7-9.7,7.1-21.5,7-33.4c0.1-12.6-2.9-24.3-6-30.3
			c-4.7-9.7-15.4-18.3-30-24.2c-14.7-6-29.2-7.8-30.8-8c-1.3-0.2-1.8-0.3-1.8-0.3l-0.9,0l-15.9-2.8l-0.1-0.1l-52.3-58.3l0.2-0.2
			l23.7-20.5l0.2,0.2l0.2,0.3l0.1-0.1l0,0l42.4,47.8c14.2,1.7,26.8,4.1,41.6,9.8l-65.8-74.2l20.5-17.8l0.2,0.2l0.2,0.3l0.1-0.1
			l367.8,415.3c5.5-6.2,10.8-12.4,16.2-18.7l-365.7-413.2l0.2-0.2l20.3-17.6l0.2,0.2l0.2,0.3l0.1-0.1l27.7,31.2l335.1,378.4
			c5.4-6.4,10.5-12.9,15.8-19.4l-360.3-406.9l7.8-6.7l0.2,0c0.1,0,9.6,2.7,24.6,3.8l0.1,0l0.1,0.1l0.2,0.2c0,0,0.1,0,0.1,0
			l344.1,388.5c5.2-6.6,10.2-13.3,15.2-20l-326.7-369l0.6-0.1c10.1-0.8,20.4-2.6,30.8-5.3l0.2,0l0.1,0.1l0.2,0.2c0,0,0.1,0,0.1,0
			l17.7,20l293.8,331.7c5-6.8,9.8-13.8,14.7-20.7l-301.3-340.3l0.4-0.2c8-4.3,14.8-10.1,20-17.2l0.2-0.3l0.3,0.3l0.2,0.3
			c0,0,0,0,0.1-0.1l25,28.2l271.2,306.2c4.8-7,9.4-14.2,14.1-21.3l-299.4-338.1l0-0.2c3.8-14.7,3.8-28.8,3.1-38.2l-0.1-0.9l0.6,0.7
			l0.3,0.3c0,0,0-0.1,0-0.1l311.5,351.7c4.6-7.3,9.1-14.6,13.5-22l-342.5-386.8v-41.1l0.6,0.6l0.3,0.3v-0.1l66.9,75.5v0l272.3,307.4
			l17.2,19.4c4.4-7.5,8.7-15.1,12.9-22.7L1002.5,1114.7z"/>
	</g>
	<g>
		<path class="st3" d="M773.3,1644.4c-1.9,0.3-3.8,0.6-5.7,0.8l-1.2,0.1c-0.6,0.1-1.2,0.1-1.8,0.2c-1,0.1-2.1,0.3-3.1,0.3
			c-1.6,0.1-3.3,0.2-4.9,0.2l-0.6,0c-0.4,0-0.7,0-1,0.1c-0.7,0-1.4,0-2.1,0.1c-0.3,0-0.7,0-1,0l-0.1,0c-3.1,0-6.4-0.2-10-0.5
			l245,278c6.2-5.4,12.3-10.9,18.4-16.3L773.3,1644.4z"/>
	</g>
	<g>
		<path class="st3" d="M864.5,1591c-3.7,7-8.7,13.8-15,20.2l213.7,242.5c5.9-5.8,11.6-11.7,17.4-17.5L864.5,1591z"/>
	</g>
	<g>
		<path class="st3" d="M874.5,1519.4c0.7,5,1.2,10.1,1.3,15.4c0.1,7.5-0.4,14.7-1.5,21.6l228.2,257.7c5.7-6,11.3-12.1,16.9-18.2
			L874.5,1519.4z"/>
	</g>
	<g>
		<path class="st3" d="M827.1,1626.9c-1,0.6-2.1,1.1-3.1,1.6l-1.6,0.8c-1.3,0.6-2.6,1.2-3.8,1.8l-0.1,0c-0.2,0.1-0.5,0.2-0.8,0.3
			c-0.5,0.2-1,0.5-1.6,0.7l-0.1,0c-0.1,0.1-0.3,0.1-0.4,0.2c-0.1,0-0.3,0.1-0.4,0.2c-0.2,0.1-0.3,0.1-0.5,0.2
			c-0.1,0-0.3,0.1-0.4,0.1c-4,1.6-7.7,2.8-11.5,3.9l222.6,252.6c6.1-5.6,11.9-11.3,17.9-16.9L827.1,1626.9z"/>
	</g>
</g>
<path class="st4" d="M1640,116.6C1373.7,39.2,1098,0,820.7,0h-1.3C542,0,266.3,39.2,0,116.6l0,0v561.6
	C0.1,816,18.1,1031.1,103.8,1273c5.6,15.8,11.8,32.6,19.1,51.5c6.9,17.7,13.5,33.7,19.9,48.7l0.2,0.4l0.2,0.4l1.3,3.1
	c116.5,272.3,297.9,503.1,539.1,685.7c30.6,23,62.7,45.8,95.4,67.5l0.5,0.3l40.6,25.4l40.6-25.4l0.5-0.3
	c32.7-21.7,64.8-44.4,95.5-67.5c241.2-182.6,422.5-413.3,539-685.6l1.3-3.1l0.2-0.4l0.2-0.4c6.5-15.1,13-31.1,20-48.9
	c7.2-18.7,13.4-35.5,19-51.2c85.7-242,103.7-457.1,103.8-594.9L1640,116.6L1640,116.6z M986.7,1923.9l-245-278
	c3.7,0.3,7,0.5,10.1,0.5l0.1,0c0.4,0,0.7,0,1,0c0.7-0.1,1.4-0.1,2.1-0.1c0.3,0,0.7,0,1-0.1l0.6,0c1.6-0.1,3.3-0.1,4.9-0.2
	c1-0.1,2.1-0.2,3.1-0.3c0.6-0.1,1.2-0.1,1.8-0.2l1.2-0.1c1.9-0.2,3.9-0.5,5.7-0.8l231.8,263.1C999,1913,993,1918.5,986.7,1923.9z
	 M1025.5,1889.4l-222.6-252.6c3.8-1.1,7.6-2.4,11.6-3.9c0.1,0,0.3-0.1,0.4-0.1c0.2,0,0.3-0.1,0.5-0.2c0.1-0.1,0.3-0.1,0.4-0.2
	c0.1-0.1,0.3-0.1,0.4-0.2l0.1,0c0.5-0.2,1-0.5,1.6-0.7c0.2-0.1,0.5-0.2,0.8-0.3l0.1,0c1.3-0.6,2.6-1.2,3.8-1.8l1.6-0.8
	c1-0.5,2.1-1.1,3.1-1.6l216.4,245.5C1037.5,1878.1,1031.6,1883.8,1025.5,1889.4z M1063.1,1853.8l-213.8-242.5
	c6.3-6.5,11.3-13.3,15-20.4l216.2,245.3C1074.8,1842.1,1069.1,1848,1063.1,1853.8z M1102.4,1814.1L874,1556.3
	c1.1-7.2,1.6-14.5,1.5-21.5c-0.1-5.2-0.5-10.4-1.3-15.6l245,276.7C1113.7,1802,1108.1,1808.1,1102.4,1814.1z M1325.7,1517.1
	l-356.6-402.7l-0.6-0.6v41.1l342.5,386.8c-4.5,7.4-9,14.7-13.6,22.1l-311.7-352l-0.6-0.7l0.1,0.9c0.7,9.3,0.8,23.5-3.1,38.2l0,0.2
	l299.4,338.1c-4.7,7.2-9.3,14.3-14.1,21.4L996,1303.3l-25-28.2l-0.3-0.3l-0.2,0.3c-5.2,7.1-12,12.9-20,17.2l-0.4,0.2l301.3,340.3
	c-4.9,6.9-9.7,13.9-14.7,20.7l-311.7-352l-0.1-0.1l-0.2,0c-10.4,2.7-20.7,4.5-30.8,5.3l-0.6,0.1l326.7,369
	c-5.1,6.7-10.1,13.5-15.3,20.1L860.4,1307l-0.1-0.1l-0.1,0c-15.1-1.2-24.5-3.8-24.6-3.8l-0.2,0l-7.8,6.7l360.3,406.9
	c-5.3,6.5-10.5,13-15.8,19.5l-363-409.9l-0.2-0.2l-20.3,17.6l-0.2,0.2l365.7,413.2c-5.4,6.3-10.8,12.6-16.3,18.7l-368-415.6
	l-0.2-0.2l-20.5,17.8l65.8,74.2c-14.8-5.7-27.4-8-41.7-9.8l-42.6-48l-0.2-0.2l-23.7,20.5l-0.2,0.2l52.3,58.3l0.1,0.1l15.9,2.8l0.9,0
	c0,0,0.5,0,1.8,0.3c1.6,0.2,16.2,1.9,30.8,8c14.6,5.9,25.2,14.4,30,24.2c3.1,6,6.1,17.8,6,30.3c0.1,11.9-2.4,23.7-7,33.4
	c-5.2,10.8-12.8,18.8-23.2,24.4c-28.2,14.9-50,16.8-65.8,16.8h-0.6c-5.8,0-11.3-0.3-16.6-0.6c-4.7-0.3-9.1-0.5-13.7-0.6h0
	c-2,0-3.8,0.1-5.4,0.2l-5.5,0.3l-17.1,14.8l-0.2,0.2l274,316.2c-19.7,16.3-39.6,32.4-60.2,48c-26.6,20.1-54.5,39.9-82.9,58.9
	c-28.4-19.1-56.2-38.8-82.7-58.8c-228.4-173-400.2-391.2-510.6-648.8l-0.9-2.2l-0.2-0.4l-0.4-0.9l-0.4-0.9l-0.2-0.4
	c-6.1-14.1-12.2-29.1-18.8-45.9c-6.9-18-12.8-33.9-18.1-49c-81.4-230-98.6-434.3-98.7-565.1l0-302.7
	c238.2-63.2,483.5-95.2,730.2-95.2h1.3c109.2,0,218.1,6.3,326.2,18.8V366c-54.7-33.5-119-52.8-187.8-52.8
	c-199.4,0-361,162.1-361,362.1c0,191.5,148.3,348.2,335.9,361.1l68.5,78.4l336.1,379.6C1334.4,1502,1330,1509.5,1325.7,1517.1z
	 M1146.9,984.5v251.9L970.7,1037C1035.1,1035,1095.2,1016.1,1146.9,984.5z M1352.4,1469l-99.2-112.2V885.1
	c42.1-59.2,66.9-131.6,66.9-209.8c0-78.2-24.8-150.6-66.9-209.8v-152c33.2,5.1,66.2,10.8,99.2,17.1V1469z M1550.8,678.1
	c-0.1,130.8-17.2,335.1-98.7,565.4c-0.1,0.4-0.3,0.8-0.4,1.2V351.2c33.2,7.5,66.3,15.6,99.2,24.4V678.1z"/>
<path class="st3" d="M961.5,417.2l-110.2-44.1c-53,19.1-99.4,51.7-135.3,93.5l5.6,121.2l-82.6,106.1l-2.2,2.8
	c4.5,50.8,20.1,98.7,44.5,140.8l0.5,0.1l129.1,39l72.6,112.5c28.3,7,58,10.3,88.6,9.2c22.3-0.8,44-3.8,64.8-8.9l68.2-104.5
	l126.2-33.9c26.9-41.6,44.5-89.7,49.8-141.2l-83.1-108.6l5.2-137.2c-34.2-39-77.5-69.7-126.5-88.6L961.5,417.2z M1045.5,794.1
	L881.6,795l-51.2-157.2l129.4-96.7l132.6,98.4L1045.5,794.1z"/>
<g>
	<linearGradient id="SVGID_4_" gradientUnits="userSpaceOnUse" x1="168.3621" y1="258.3152" x2="984.0884" y2="868.2035">
		<stop  offset="0" style="stop-color:#B3A06E"/>
		<stop  offset="0.4417" style="stop-color:#FFE9CF"/>
		<stop  offset="1" style="stop-color:#B3A06E"/>
	</linearGradient>
	<path class="st5" d="M181.6,265.9c-7.1,1.5-14.1,2.9-21.1,4.4c-1.6,0.3-2.7-0.6-3.1-2.1c-1.8-7.9-3.6-15.9-5.4-23.8
		c-10.3,2.2-20.6,4.5-30.9,6.9c-1.8,8.7-3.6,17.5-5.4,26.3c-0.3,1.6-1.5,3.1-3,3.5c-7,1.6-14,3.3-21.1,5c-1.5,0.4-2.6-0.3-2.6-1.8
		c0-0.1,0.2-0.5,0.2-0.8c7.5-33.3,15-66.6,22.4-99.9c3.5-15.4,14.6-20.3,25-22.6c10.4-2.3,21.5-2.4,25,11.5
		c7.4,29.9,14.9,59.8,22.5,89.8c0,0.3,0.2,0.6,0.1,0.7C184.2,264.4,183.1,265.5,181.6,265.9z M138.6,184.4c-0.3-1.5-0.6-2.2-2-1.9
		c-1.3,0.3-1.8,1.2-2.1,2.8c-3.1,14.8-6.1,29.5-9.2,44.2c7.5-1.6,15-3.4,22.5-5C144.7,211.1,141.6,197.7,138.6,184.4z"/>
	<linearGradient id="SVGID_5_" gradientUnits="userSpaceOnUse" x1="219.2121" y1="190.3247" x2="1034.8296" y2="800.1316">
		<stop  offset="0" style="stop-color:#B3A06E"/>
		<stop  offset="0.4417" style="stop-color:#FFE9CF"/>
		<stop  offset="1" style="stop-color:#B3A06E"/>
	</linearGradient>
	<path class="st6" d="M263.3,157.7c-10.3,1.9-20.5,3.8-30.8,5.7c-7.1,1.3-9.7,4.3-9.7,12.3c0,4.6,0,9.2,0,13.7
		c13-2.5,26.1-5,39.2-7.4c1.7-0.3,3,0.8,3,2.5c0,4.9,0,9.7,0,14.5c0,1.7-1.4,3.3-3,3.6c-13.1,2.4-26.2,4.8-39.2,7.4
		c0,14.8,0,29.7,0,44.6c0,1.7-1.4,3.3-3,3.6c-6.6,1.3-13.1,2.6-19.7,3.9c-1.7,0.3-3.1-0.7-3.1-2.5c0-26.3,0-52.5,0-78.9
		c0-27.7,17.4-36.2,36.9-39.9c16.4-3.1,24-3.2,29.3-3.4c2.1-0.1,3.1,0.5,3,2.5c0,4.7,0,9.5,0,14.2
		C266.4,155.7,265,157.4,263.3,157.7z"/>
	<linearGradient id="SVGID_6_" gradientUnits="userSpaceOnUse" x1="262.3585" y1="132.6279" x2="1077.7964" y2="742.3004">
		<stop  offset="0" style="stop-color:#B3A06E"/>
		<stop  offset="0.4417" style="stop-color:#FFE9CF"/>
		<stop  offset="1" style="stop-color:#B3A06E"/>
	</linearGradient>
	<path class="st7" d="M350.7,234.2c-3.2,1.6-12,4.4-22.7,6.1c-23.1,3.7-45-4.7-45-41c0-6.4,0-12.8,0-19.2c0-36.3,21.9-52.2,45-55.9
		c10.6-1.7,19.5-1.5,22.7-0.9c2.2,0.3,3.3,0.7,3.4,2.8c0,5,0,9.9,0,14.8c0,1.8-0.9,3.2-2.9,3.4c-0.1,0-0.3,0.1-0.5,0.1
		c-5.8,0.4-14.1,1-22.5,2.3c-10.5,1.7-18.9,8.5-18.9,28.9c0,6.4,0,12.8,0,19.2c0,20.3,8.4,24.4,18.9,22.7c8.4-1.3,16.7-3.4,22.5-4.8
		c0.1,0,0.3,0,0.5-0.1c2-0.3,2.9,0.9,2.9,2.7c0,4.9,0,9.8,0,14.8C354.1,232.4,352.8,233.3,350.7,234.2z"/>
	<linearGradient id="SVGID_7_" gradientUnits="userSpaceOnUse" x1="311.9865" y1="66.1081" x2="1127.7144" y2="675.9976">
		<stop  offset="0" style="stop-color:#B3A06E"/>
		<stop  offset="0.4417" style="stop-color:#FFE9CF"/>
		<stop  offset="1" style="stop-color:#B3A06E"/>
	</linearGradient>
	<path class="st8" d="M446.8,223.8c-10,1.2-22,2-27.9,1.7c-6.1-0.3-8.4-2-8.4-8.8c0-31,0-61.8,0-92.8c0-6.8,2.1-9.2,8.1-10.9
		c5.2-1.4,17.6-3.9,27.3-5.1c28.9-3.5,48.3,2.2,48.3,26.4c0,0.9,0,1.9,0,2.8c0,10-4.8,19-12.8,23.8c8.1,3,13.6,10.6,13.6,21.1
		c0,0.8,0,1.5,0,2.3C495,211.1,473.2,220.6,446.8,223.8z M469,138.6c0-8.4-5.4-11.6-21.1-9.8c-2.4,0.3-9.5,1.2-11.6,1.6
		c0,8.7,0,17.5,0,26.4c5.7-0.7,11.4-1.4,17.1-2.1c12-1.4,15.6-7.3,15.6-13.9C469,140.2,469,139.4,469,138.6z M469.6,184.7
		c0-7.3-4-13.2-16.2-11.7c-5.7,0.7-11.4,1.4-17.1,2.1c0,9.5,0,19,0,28.5c2.4-0.3,10.4-1.1,12.5-1.4c15.7-1.8,20.8-7.3,20.8-15.8
		C469.6,185.8,469.6,185.2,469.6,184.7z"/>
	<linearGradient id="SVGID_8_" gradientUnits="userSpaceOnUse" x1="356.7563" y1="6.2758" x2="1172.2788" y2="616.0117">
		<stop  offset="0" style="stop-color:#B3A06E"/>
		<stop  offset="0.4417" style="stop-color:#FFE9CF"/>
		<stop  offset="1" style="stop-color:#B3A06E"/>
	</linearGradient>
	<path class="st9" d="M555.4,212.6c-25.3,2.2-45.3-9.3-45.3-44.8c0-6.1,0-12.1,0-18.2c0-35.4,20.1-51,45.3-53.1
		c25.3-2.1,45.4,10.1,45.4,45.5c0,6,0,12.1,0,18.2C600.7,195.6,580.6,210.5,555.4,212.6z M574.3,144c0-18.3-6.1-25.6-19-24.6
		c-12.9,1.1-18.9,9.5-18.9,27.7c0,6,0,12.1,0,18.2c0,18.3,6,25.5,18.9,24.4c12.9-1.1,19-9.3,19-27.6
		C574.3,156.1,574.3,150,574.3,144z"/>
	<linearGradient id="SVGID_9_" gradientUnits="userSpaceOnUse" x1="402.9197" y1="-55.2444" x2="1218.1199" y2="554.2505">
		<stop  offset="0" style="stop-color:#B3A06E"/>
		<stop  offset="0.4417" style="stop-color:#FFE9CF"/>
		<stop  offset="1" style="stop-color:#B3A06E"/>
	</linearGradient>
	<path class="st10" d="M663.2,205.4c-24.4,1.2-44.2-6.6-44.2-41.4c0-22.6,0-45.3,0-67.9c0-1.6,1.4-3,3.1-3
		c6.7-0.5,13.4-0.9,20.1-1.2c1.7-0.1,3.1,1.1,3.1,2.7c0,22.6,0,45.2,0,67.9c0,15.6,4.2,21.9,17.9,21.2c13.8-0.7,18.1-7.4,18.1-23
		c0-22.6,0-45.3,0-67.9c0-1.6,1.4-3,3.1-3c6.7-0.3,13.3-0.6,20-0.8c1.7,0,3.2,1.1,3.2,2.8c0,22.6,0,45.2,0,67.9
		C707.6,194.4,687.6,204.2,663.2,205.4z"/>
	<linearGradient id="SVGID_10_" gradientUnits="userSpaceOnUse" x1="435.6461" y1="-99.043" x2="1250.9821" y2="510.5534">
		<stop  offset="0" style="stop-color:#B3A06E"/>
		<stop  offset="0.4417" style="stop-color:#FFE9CF"/>
		<stop  offset="1" style="stop-color:#B3A06E"/>
	</linearGradient>
	<path class="st11" d="M814.4,200.1c-7.9,0-15.7,0-23.6,0.1c-1.7,0-2.2-1.5-3-3c-6.9-12.8-13.8-25.6-20.6-38.3
		c-0.5,0-1.1,0.1-1.7,0.2c-3.2,0-8-0.2-10.9-0.1c0,12.9,0,25.8,0,38.7c0,1.7-1.4,3.1-3.1,3.1c-6.6,0.2-13.3,0.3-19.9,0.5
		c-1.6,0-3.1-1.3-3.1-2.9c0-34.1,0-68.3,0-102.4c0-5.2,2.2-6.6,6.9-7.5c7.1-1.3,20.1-2.5,31.2-2.7c26.1-0.4,46.3,8.3,46.2,35.3
		c0,0.6,0,1.3,0,2c0,16.2-8.6,26.1-19.8,30.6c7.7,14.3,15.4,28.6,23.2,42.9c0.3,0.6,0.5,1.2,0.5,1.7
		C816.7,199.4,816.1,200.1,814.4,200.1z M786.7,121.3c0-9.3-7.2-13.5-20.1-13.3c-2.2,0.1-10.2,0.5-12,0.7c0,9.8,0,19.5,0,29.3
		c1.7,0.1,9.2,0.1,10.9,0.1c16.2-0.3,21.2-4.5,21.2-14.8C786.7,122.6,786.7,121.9,786.7,121.3z"/>
	<linearGradient id="SVGID_11_" gradientUnits="userSpaceOnUse" x1="477.5112" y1="-155.2939" x2="1293.1335" y2="454.5167">
		<stop  offset="0" style="stop-color:#B3A06E"/>
		<stop  offset="0.4417" style="stop-color:#FFE9CF"/>
		<stop  offset="1" style="stop-color:#B3A06E"/>
	</linearGradient>
	<path class="st12" d="M917.4,201.6c-5-0.2-10-0.3-15-0.4c-3.2-0.1-5.5-0.8-8-4.9c-11.7-20.3-23.3-40.6-35-60.8
		c-0.6-1-0.9-1.2-1.4-1.2c-0.4,0-0.7,0.3-0.7,1.2c0,20.5,0,41.1,0,61.8c0,1.7-1.4,3-3.1,3c-6,0-12.1-0.1-18.1-0.1
		c-1.7,0-3.1-1.4-3.1-3.1c0-34.8,0-69.6,0-104.5c0-3.2,2.6-5.8,5.8-5.8c5.2,0,10.4,0.1,15.5,0.2c3.1,0,4.6,1.5,6.5,4.8
		c12.1,21.1,24.3,42.3,36.4,63.5c0.5,1,0.8,1.2,1.2,1.2c0.3,0,0.8-0.2,0.8-1.3c0-21.5,0-43,0-64.5c0-1.7,1.4-2.9,3.1-2.8
		c6,0.1,12.1,0.3,18.1,0.5c1.7,0,3.1,1.3,3.1,3c0,34.8,0,69.8,0,104.6C923.4,199.3,920.6,201.8,917.4,201.6z"/>
	<linearGradient id="SVGID_12_" gradientUnits="userSpaceOnUse" x1="514.7979" y1="-204.9344" x2="1330.2057" y2="404.7158">
		<stop  offset="0" style="stop-color:#B3A06E"/>
		<stop  offset="0.4417" style="stop-color:#FFE9CF"/>
		<stop  offset="1" style="stop-color:#B3A06E"/>
	</linearGradient>
	<path class="st13" d="M1011.4,205.3c-5.4,0.5-13.2,1.1-29.8,0.3c-19.8-1-37.3-6.7-37.3-34.5c0-16.9,0-33.8,0-50.6
		c0-27.8,17.7-32,37.5-30.9c16.6,0.8,24.3,2.5,29.6,3.6c2.2,0.5,3,1.3,3,3.2c0,4.8,0,9.5,0,14.3c0,1.7-1.4,2.9-3,2.8
		c-10.4-0.6-20.8-1.2-31.2-1.8c-7.2-0.4-9.8,2-9.8,9.9c0,4.6,0,9.2,0,13.9c13.2,0.6,26.5,1.3,39.7,2.1c1.7,0.1,3.1,1.6,3.1,3.3
		c0,4.8,0,9.7,0,14.5c0,1.7-1.4,3-3.1,2.8c-13.2-0.8-26.5-1.5-39.7-2.1c0,5.4,0,10.8,0,16.1c0,8,2.5,10.5,9.8,10.9
		c10.4,0.5,20.7,1.2,31.2,1.8c1.7,0.1,3,1.6,3,3.2c0,4.7,0,9.5,0,14.2C1014.4,204.4,1013.6,205.2,1011.4,205.3z"/>
	<linearGradient id="SVGID_13_" gradientUnits="userSpaceOnUse" x1="546.1914" y1="-247.3949" x2="1361.9443" y2="362.5132">
		<stop  offset="0" style="stop-color:#B3A06E"/>
		<stop  offset="0.4417" style="stop-color:#FFE9CF"/>
		<stop  offset="1" style="stop-color:#B3A06E"/>
	</linearGradient>
	<path class="st14" d="M1134.7,216c-6.7-0.7-13.4-1.4-20.2-2c-1.4-0.2-2.4-1.6-2.4-3.3c0-21.2,0-42.4,0-63.6c0-1-0.5-1.3-0.8-1.3
		c-0.4,0-0.8,0.3-1.2,1c-4.6,8-9.2,15.9-13.7,23.9c-1.1,1.7-2.6,2.4-4.6,2.1c-4.1-0.4-8.2-0.7-12.3-1c-2-0.2-3.5-1.1-4.6-3
		c-4.6-8.7-9.2-17.5-13.8-26.3c-0.4-0.8-0.8-1.1-1.2-1.2c-0.3,0-0.8,0.1-0.8,1.2c0,21.2,0,42.4,0,63.6c0,1.7-1.1,3-2.5,2.9
		c-6.8-0.5-13.5-1-20.2-1.5c-1.2-0.1-2.6-0.7-2.6-2.3c0-35.4,0-70.8,0-106c0-3.2,2.3-5.1,5.5-4.8c4.8,0.3,9.6,0.7,14.4,1.1
		c3.2,0.2,5.4,1.9,6.8,4.6c7.8,15.1,15.6,30.2,23.5,45.4c0.6,1.2,1.1,2.1,1.7,2.1c0.6,0.1,1.1-0.7,1.6-1.8
		c7.8-13.8,15.6-27.6,23.4-41.3c1.4-2.5,3.5-3.8,6.8-3.5c4.8,0.5,9.6,0.9,14.4,1.4c3.2,0.3,5.5,2.7,5.5,5.9c0,35.3,0,70.6,0,105.9
		C1137.3,215.8,1135.9,216.1,1134.7,216z"/>
	<linearGradient id="SVGID_14_" gradientUnits="userSpaceOnUse" x1="582.475" y1="-295.7663" x2="1398.0778" y2="314.0297">
		<stop  offset="0" style="stop-color:#B3A06E"/>
		<stop  offset="0.4417" style="stop-color:#FFE9CF"/>
		<stop  offset="1" style="stop-color:#B3A06E"/>
	</linearGradient>
	<path class="st15" d="M1201.2,224.8c-25.2-3.1-45.3-18.8-45.3-54.2c0-6.1,0-12.1,0-18.2c0-35.4,20-46.8,45.3-43.7
		c25.2,3.1,45.2,19.5,45.2,54.9c0,6.1,0,12.1,0,18.2C1246.4,217.1,1226.4,227.9,1201.2,224.8z M1220.2,160
		c0-18.3-6.1-26.9-18.9-28.4c-12.8-1.6-18.8,5.5-18.8,23.8c0,6.1,0,12.1,0,18.2c0,18.3,6,26.7,18.8,28.3
		c12.8,1.6,18.9-5.4,18.9-23.7C1220.2,172.2,1220.2,166.1,1220.2,160z"/>
	<linearGradient id="SVGID_15_" gradientUnits="userSpaceOnUse" x1="616.9861" y1="-341.7131" x2="1432.4591" y2="267.9858">
		<stop  offset="0" style="stop-color:#B3A06E"/>
		<stop  offset="0.4417" style="stop-color:#FFE9CF"/>
		<stop  offset="1" style="stop-color:#B3A06E"/>
	</linearGradient>
	<path class="st16" d="M1308.5,239.8c-24.2-3.8-43.8-15.7-43.9-50.5c0-22.6,0-45.3,0-67.9c0-1.7,1.4-2.7,3.1-2.5
		c6.7,1,13.3,2,20,2.9c1.7,0.3,3.1,1.7,3.1,3.4c0,22.6,0,45.3,0,67.9c0,15.6,4.1,22.7,17.8,24.9c13.7,2.2,18-3.6,18-19.2
		c0-22.7,0-45.3,0-67.9c0-1.7,1.4-2.7,3.1-2.4c6.6,1.1,13.2,2.2,19.7,3.3c1.7,0.3,3.2,1.7,3.2,3.4c0,22.6,0,45.3,0,67.9
		C1352.5,238,1332.7,243.7,1308.5,239.8z"/>
	<linearGradient id="SVGID_16_" gradientUnits="userSpaceOnUse" x1="644.4103" y1="-378.7965" x2="1460.0854" y2="231.0534">
		<stop  offset="0" style="stop-color:#B3A06E"/>
		<stop  offset="0.4417" style="stop-color:#FFE9CF"/>
		<stop  offset="1" style="stop-color:#B3A06E"/>
	</linearGradient>
	<path class="st17" d="M1444.5,171.2c-8.2-1.6-16.4-3.3-24.5-4.9c0,29.6,0,59.2,0,88.8c0,1.7-1.3,2.8-3,2.5
		c-6.6-1.3-13.2-2.5-19.8-3.8c-1.7-0.3-3-1.9-3-3.6c0-29.6,0-59.2,0-88.7c-8.2-1.6-16.5-3-24.7-4.6c-1.7-0.3-3-1.8-3.1-3.5
		c0-5.2,0-10.5,0-15.7c0-1.7,1.4-2.7,3.1-2.3c25.1,4.5,50.2,9.2,75.2,14.3c1.7,0.3,3.2,1.9,3.2,3.5c0,5.3,0,10.5,0,15.8
		C1447.7,170.7,1446.2,171.6,1444.5,171.2z"/>
	<linearGradient id="SVGID_17_" gradientUnits="userSpaceOnUse" x1="666.6387" y1="-407.9413" x2="1482.0283" y2="201.6952">
		<stop  offset="0" style="stop-color:#B3A06E"/>
		<stop  offset="0.4417" style="stop-color:#FFE9CF"/>
		<stop  offset="1" style="stop-color:#B3A06E"/>
	</linearGradient>
	<path class="st18" d="M1547.8,285.9c-6.6-1.5-13.2-3.1-19.7-4.6c-1.6-0.4-3-2.1-3-3.8c0-14.7,0-29.4,0-44.1
		c-12.4-2.9-24.8-5.6-37.3-8.3c0,14.7,0,29.4,0,44.1c0,1.7-1.4,2.7-3,2.4c-6.6-1.4-13.2-2.9-19.8-4.3c-1.7-0.4-3-2-3-3.7
		c0-35.8,0-71.6,0-107.4c0-1.7,1.3-2.6,3-2.2c6.6,1.3,13.2,2.8,19.8,4.2c1.7,0.4,3,1.9,3,3.6c0,13.5,0,27.1,0,40.6
		c12.4,2.7,24.8,5.5,37.3,8.3c0-13.5,0-27,0-40.6c0-1.6,1.3-2.6,3-2.2c6.6,1.5,13.2,3.1,19.7,4.6c1.6,0.4,3,2,3,3.6
		c0,35.8,0,71.6,0,107.4C1550.8,285.2,1549.4,286.3,1547.8,285.9z"/>
</g>
</svg>
