<?xml version="1.0" encoding="utf-8"?>
<!-- Generator: Adobe Illustrator 25.2.3, SVG Export Plug-In . SVG Version: 6.00 Build 0)  -->
<svg version="1.1" id="Layer_1" xmlns="http://www.w3.org/2000/svg" xmlns:xlink="http://www.w3.org/1999/xlink" x="0px" y="0px"
	 viewBox="0 0 296.1 300" style="enable-background:new 0 0 296.1 300;" xml:space="preserve">
<style type="text/css">
	.st0{fill:#FFFFFF;}
	.st1{fill:#0F0F0F;}
	.st2{fill:#FFB400;}
	.st3{fill:#E5E5E5;}
	.st4{fill:#D20000;}
</style>
<g>
	<circle class="st0" cx="148.2" cy="150.1" r="143.2"/>
	<path class="st1" d="M173.1,123.7l51.6-20.9l-8.9,14.3l-42.6,9.9L173.1,123.7z M173.1,129.3l0,2.3h62.2l-20.1-11L173.1,129.3z
		 M241.3,107.8c-0.3-0.4-0.9-0.7-3-1.3l-10.7-2.8c0-0.1-9.3,15.2-9.3,15.2l17.5,9.3l4.9-17.2C241.5,108.8,241.7,108.3,241.3,107.8z
		 M55.2,111l4.9,17.2l17.5-9.3c0,0-9.3-15.3-9.3-15.2l-10.7,2.8c-2.1,0.6-2.7,0.9-3,1.3C54.4,108.3,54.6,108.8,55.2,111z
		 M80.9,120.5l-20.1,10.9H123l0-2.2L80.9,120.5z M173.1,133.9l-0.1,2.2l25.9,4.2l16.2-6.5H173.1z M173.1,138.2l0,2.3
		c0,0.1,19.5,10.6,19.5,10.6s2.9,1.6,3.9,1.9c1.5,0.3,3.8,0.2,3.8,0.2l7.7-0.4c0,0-10.6-9.7-10.4-9.6
		C197.8,143.2,173.1,138.2,173.1,138.2z M222.6,136.9l-3.4-1.7l-17.6,7.4l9.4,9l11.6-11.5c0.8-0.9,1.4-1.4,1.3-1.9
		C223.8,137.8,223.5,137.4,222.6,136.9z M72.4,138.1c0,0.5,0.5,1,1.3,1.9l11.6,11.5l9.4-9l-17.6-7.4l-3.4,1.7
		C72.8,137.4,72.4,137.8,72.4,138.1z M123.2,123.7l-51.6-20.9l8.9,14.3l42.6,9.9L123.2,123.7z M81.2,133.9l16.2,6.5l25.9-4.2
		l-0.1-2.2H81.2z M98.8,143.1c0.3-0.1-10.4,9.6-10.4,9.6l7.7,0.4c0,0,2.3,0.2,3.8-0.2c0.9-0.2,3.9-1.9,3.9-1.9s19.5-10.5,19.5-10.6
		l0-2.3C123.2,138.2,98.5,143.2,98.8,143.1z M172.5,120.1l16.5-17.8l10.6-12.9l0.6-3.5l-1.1-1l-1.3,4L170.1,114
		C170.2,114.2,172.5,120.1,172.5,120.1 M193.7,179.4c-0.3-0.4-9.3-24.2-9.3-24.2c-1.5-3.8-2.8-4.5-5.5-6l-6.2-3.9l-0.3,0.4l7.1,9.6
		l0,14l23,29.2c3.1,3.9,3.3,5.2,7.8,5.2l2.8-1.3l-5.3-0.9C207.9,201.6,194.1,179.8,193.7,179.4 M102.7,179.4
		c-0.3,0.4-14.1,22.2-14.1,22.2l-5.3,0.9l2.8,1.3c4.6,0,4.7-1.3,7.8-5.2l23-29.2l0.1-14l7.1-9.6l-0.3-0.4l-6.2,3.9
		c-2.7,1.5-4,2.2-5.5,6C112,155.2,103.1,179,102.7,179.4 M107.4,102.2l16.5,17.8c0,0,2.3-5.9,2.4-6.1L98.7,88.9l-1.3-4l-1.1,1
		l0.6,3.5L107.4,102.2z M176,156.6v29.1l-9.6,16.3l-13.1,10l-5,6.4l-5.1-6.4L130,202l-9.6-16.3v-29.1l8.6-12.1l-2.9-1.9v-19.1
		l4.1-12l3.4-2c0,0,0.2-5.6,1.4-7.1c0.9-1.2,5.3-2.6,5.3-2.6l2.2-3l-7.8-11.2l-7.7-4.2l-2.5-2.9l3.8,1.2l8.1,4.6l7.8,11.1l4-1l3.9,1
		l7.9-11.1l8.1-4.6l3.8-1.2l-2.5,2.9l-7.7,4.2L154,96.9l2.1,2.9c0,0,4.4,1.5,5.3,2.6c1.1,1.5,1.4,7.1,1.4,7.1l3.4,2l4.1,12v19.1
		l-2.7,1.8L176,156.6z M158.8,131.9v9.3l5.3-11.9l-16-7l-15.2,5.3l0.1,0.5l15.1-1.7L158.8,131.9z M154.9,106.2l5.2,2.1l-4.1-7.5
		L154.9,106.2z M136.2,108.4l5.3-2l-1.2-5.5L136.2,108.4z M128.9,123.1l10.9-5.8h16.8l10.9,5.8l-1.2-3.4l-7.8-6.5l7,2.4l-0.8-2.4
		c0,0-7.5-3.7-7.6-4h-17.7c-0.1,0.3-7.6,4-7.6,4l-0.8,2.4l7-2.4l-7.8,6.5L128.9,123.1z M170.2,189.9l-13,4.6h-18.1l-12.8-4.6
		l4.5,7.9l10.7,3.9l-7.5-0.2l10.2,7.8h7.9l10.2-7.8l-7.5,0.2l10.7-3.9L170.2,189.9z M138.2,183.9h19.9l9.3-7.1l-0.1-0.3l-10.2,3.7
		h-17.8l-10.2-3.7l-0.1,0.3L138.2,183.9z M172.8,157.4L172.8,157.4l-15.3,1.8l11.6-6.4l-4.6-6.4l-6.6,4.4h-19.4l-6.4-4.3l-4.6,6.3
		l11.4,6.4l-15.3-1.9l0,0v8.2l9.9,3.7h29.4l9.9-3.7V157.4z M292.1,150c0-79.4-64.6-144.1-144.1-144.1S4,70.6,4,150
		c0,79.4,64.6,144.1,144.1,144.1S292.1,229.4,292.1,150z M288.7,150c0,77.5-63.1,140.6-140.6,140.6S7.4,227.5,7.4,150
		C7.4,72.5,70.5,9.4,148.1,9.4S288.7,72.5,288.7,150z M76.8,101.8c15.5-22.8,41.6-37.7,71.1-37.7c29.7,0,56,15.2,71.4,38.2l3.3-1.4
		c-16-24.1-43.7-40.3-74.7-40.3c-31,0-58.3,15.8-74.4,39.9L76.8,101.8z M60,133.9c-1,5.2-1.4,10.7-1.4,16.1
		c0,49.3,40.1,89.4,89.4,89.4c49.3,0,89.4-40.1,89.4-89.4c0-5.5-0.5-11-1.5-16.2l-3.5,0c1,5.2,1.5,10.7,1.5,16.2
		c0,47.4-38.6,85.9-85.9,85.9S61.9,197.4,61.9,150c0-5.5,0.5-10.9,1.5-16.1L60,133.9z"/>
	<path class="st2" d="M130.1,119.8l7.8-6.5l-7,2.4l0.8-2.4c0,0,7.5-3.7,7.6-4H157c0.1,0.3,7.6,4,7.6,4l0.8,2.4l-7-2.4l7.8,6.5
		l1.2,3.4l-10.9-5.8h-16.8l-10.9,5.8L130.1,119.8z M170.2,189.9l-13,4.6h-18.1l-12.8-4.6l4.5,7.9l10.7,3.9l-7.5-0.2l10.2,7.8h7.9
		l10.2-7.8l-7.5,0.2l10.7-3.9L170.2,189.9z M172.8,157.4L172.8,157.4l-15.3,1.8l11.6-6.4l-4.6-6.4l-6.6,4.4h-19.4l-6.4-4.3l-4.6,6.3
		l11.4,6.4l-15.3-1.9l0,0v8.2l9.9,3.7h29.4l9.9-3.7V157.4z"/>
	<path class="st3" d="M185.8,96.9V74.7l1.6,0.9v19.8L185.8,96.9z M185.8,181v43.4l1.6-0.9v-39.9L185.8,181z M187.4,115.3v-8
		l-1.6,1.9v6.8L187.4,115.3z M187.4,156.2v-5.5l-1.6-1v3.3L187.4,156.2z M162.1,80.6V67.7l-1.6-0.3v14.1L162.1,80.6z M160.5,210.2
		v22.4l1.6-0.3v-23.5L160.5,210.2z M160.5,91v8.1l1.6,0.8V88.6L160.5,91z M212.9,105v-8.4l-1.6-1.4v10.5L212.9,105z M211.2,154.4v45
		l1.6,0.3v-45.4L211.2,154.4z M111.1,96.9V74.7l-1.6,0.9v19.8L111.1,96.9z M109.5,183.6v39.9l1.6,0.9V181L109.5,183.6z M111.1,116
		v-6.8l-1.6-1.9v8L111.1,116z M111.1,153v-3.3l-1.6,1v5.5L111.1,153z M136.4,81.5V67.4l-1.6,0.3v12.9L136.4,81.5z M134.9,208.9v23.5
		l1.6,0.3v-22.4L134.9,208.9z M134.9,88.6v11.3l1.6-0.8V91L134.9,88.6z M85.6,105.6V95.1l-1.6,1.4v8.4L85.6,105.6z M84.2,154.3v45.4
		l1.6-0.3v-45L84.2,154.3z"/>
	<g>
		<path class="st4" d="M66.1,77.1c-1.4-1.2-3-0.6-4.2,0.8l-2.1,2.5l4.3,3.6l2-2.4C67.3,80.1,67.5,78.3,66.1,77.1z"/>
		<polygon class="st4" points="135.4,266.8 139.1,267.2 137.8,262 		"/>
		<path class="st4" d="M121,257.7l-2.3-0.6l-1,3.5l2.2,0.6c1.1,0.3,2.2-0.2,2.5-1.3C122.7,258.6,121.9,257.9,121,257.7z"/>
		<path class="st4" d="M55.3,72.6l-2,2.4l3.7,3.1l1.9-2.3c1-1.2,1-2.7-0.2-3.7C57.5,71,56.1,71.7,55.3,72.6z"/>
		<path class="st4" d="M36.8,147.9c1.1,0,1.8-0.8,1.8-1.8c0-1-0.7-1.8-1.8-1.8c-1,0-1.7,0.8-1.7,1.8
			C35.1,147.1,35.8,147.9,36.8,147.9z"/>
		<path class="st4" d="M86.6,242c-2.3-1.5-5.4-0.9-7.1,1.9c-1.8,2.8-1,5.7,1.3,7.2c2.3,1.5,5.4,0.9,7.1-1.8
			C89.7,246.5,89,243.5,86.6,242z"/>
		<path class="st4" d="M119.4,263.8l-2.4-0.7l-1.1,4l2.3,0.6c1.4,0.4,2.7-0.1,3.1-1.4C121.6,265.1,120.7,264.2,119.4,263.8z"/>
		<path class="st4" d="M36.8,150c-1.7,0-2.8,1.2-2.8,2.7c0,1.5,1.1,2.7,2.8,2.7c1.7,0,2.8-1.2,2.8-2.7C39.6,151.3,38.5,150,36.8,150
			z"/>
		<path class="st4" d="M78.1,54.8c-1-1.2-2.6-1.4-4-0.3l-2.4,2l3.5,4.3l2.3-1.8C78.9,57.8,79.1,56.1,78.1,54.8z"/>
		<path class="st4" d="M239,80.5c2.7-2.6,3.5-6.5,0.4-9.5l-2.3-2.3l-10,9.8l2.2,2.2C232.4,83.8,236.3,83.1,239,80.5z"/>
		<path class="st4" d="M256.1,147.8c1.1,0,1.8-0.8,1.8-1.8c0-1-0.7-1.8-1.8-1.8c-1,0-1.7,0.8-1.7,1.8
			C254.4,147.1,255.1,147.8,256.1,147.8z"/>
		<path class="st4" d="M256.1,150c-1.7,0-2.8,1.2-2.8,2.7c0,1.5,1.1,2.7,2.8,2.7c1.7,0,2.8-1.2,2.8-2.7
			C258.9,151.2,257.8,150,256.1,150z"/>
		<path class="st4" d="M270,144.3c-1.7,0-2.7,1.3-2.7,2.8c0,1.5,1.1,2.8,2.7,2.8c1.7,0,2.7-1.3,2.7-2.8
			C272.7,145.5,271.6,144.3,270,144.3z"/>
		<path class="st4" d="M220.5,57.3c0.9-1.2,0.8-2.8-0.7-3.9l-2.5-1.9L214,56l2.4,1.8C217.8,58.9,219.5,58.6,220.5,57.3z"/>
		<path class="st4" d="M190,52.4c3.4,1.4,7.2,0,8.9-4c1.7-4,0-7.8-3.4-9.2c-3.4-1.4-7.2,0-8.9,4.1C184.9,47.2,186.6,51,190,52.4z"/>
		<path class="st4" d="M148.2,12.9c-75.6,0-137,61.5-137,137c0,75.6,61.5,137,137,137c75.6,0,137-61.5,137-137
			C285.2,74.4,223.7,12.9,148.2,12.9z M242,68.4c4.9,5,3.9,11.3,0.1,15c-3.7,3.7-10.3,5-15.7-0.4l-5-5l15.2-15L242,68.4z
			 M222.4,50.8c3.4,2.6,3.7,6.3,1.7,9c-1.3,1.8-3.8,3-6.6,2.2l-1.3,10.8l-4.1-3.1l1.4-9.5l-1.6-1.2l-5.1,6.7l-3.4-2.6l12.8-17
			L222.4,50.8z M182.7,41.6c2.5-5.9,8.7-8.5,14.4-6.1c5.7,2.4,8.3,8.6,5.8,14.5c-2.5,5.9-8.7,8.4-14.4,6
			C182.8,53.7,180.2,47.5,182.7,41.6z M166.9,26.9l12.7,2.4l-0.7,3.6l-8.5-1.6l-1,5.1l6.8,1.3l-0.7,3.6l-6.8-1.3l-1.7,8.6l-4.2-0.8
			L166.9,26.9z M139.4,25.6l17.6,0.1l0,3.7l-6.7,0l-0.1,17.6l-4.3,0l0.1-17.6l-6.7,0L139.4,25.6z M116.4,29.8l12.8,10.9l-3-13.2
			l4.2-1l4.8,20.8l-3.9,0.9l-12.7-10.8l3,13.1l-4.2,1l-4.8-20.8L116.4,29.8z M100.5,34.9l1.6,3.3l-7.8,3.7l2.2,4.7l6.2-3l1.6,3.3
			l-6.2,3l2.2,4.6l8-3.8l1.6,3.3L98,59.7l-9.2-19.2L100.5,34.9z M72.2,51.4c3.3-2.7,7-2.1,9.1,0.6c1.4,1.7,2,4.4,0.5,7l10.1,3.9
			l-4,3.3L79,62.5l-1.5,1.2l5.3,6.6l-3.3,2.7L66,56.3L72.2,51.4z M52.8,70c2.8-3.3,6-3.6,8.2-1.8c1.6,1.4,2.2,3.6,1.4,5.6
			c1.9-1.5,4.4-1.7,6.5,0c2.4,2,3.5,6.1,0.4,9.7l-5.1,6.1L47.8,75.9L52.8,70z M26.6,157.5h-2.4v-13.9l2.4-1.5V157.5z M36.8,157.7
			c-2.9,0-5.2-2.1-5.2-4.9c0-1.8,0.9-3.2,2.3-4c-0.7-0.6-1.1-1.6-1.1-2.7c0-2.2,1.7-4,4-4c2.3,0,4,1.8,4,4c0,1.1-0.4,2-1.1,2.7
			c1.4,0.8,2.3,2.3,2.3,4C42,155.6,39.8,157.7,36.8,157.7z M58.7,222l-2.2,1.6l-3.1-4.2l-5.3,3.9l-1.9-2.6l12.9-9.5l5.8,7.8
			l-2.2,1.6l-3.9-5.2l-3.1,2.3L58.7,222z M61.2,239.3c-3.2-3.3-3.2-8.4,0.3-11.8c3.5-3.4,8.5-3.3,11.8,0.1c3.2,3.3,3.2,8.4-0.3,11.8
			C69.5,242.8,64.4,242.7,61.2,239.3z M90.7,251c-2.6,4-7.5,5.1-11.5,2.6c-3.9-2.5-5-7.5-2.5-11.5c2.6-4.1,7.6-5.2,11.5-2.7
			C92.1,242,93.3,247,90.7,251z M109.2,254.2l-4.6-2.1l-5.5,12.1l-2.9-1.3l5.5-12.1l-4.6-2.1l1.1-2.5l12.1,5.5L109.2,254.2z
			 M125.7,260.1c-0.4,1.5-1.8,2.6-3.4,2.7c1.6,0.9,2.6,2.5,2,4.4c-0.6,2.3-3.1,4.3-6.5,3.3l-5.8-1.6l4.3-15.4l5.6,1.6
			C125.1,256,126.3,258.1,125.7,260.1z M140.9,274l-1-3.7l-5.9-0.6l-1.7,3.5l-3.5-0.4l7.8-15.3l3.1,0.3l4.6,16.6L140.9,274z
			 M148,242.9c-51.2,0-92.9-41.7-92.9-92.9c0-5.6,0.6-11.6,1.5-16.4c0.3-1.5,0.8-3.2,0.8-3.2L52,112c-1.1-3.9-1.6-5-1-6
			c0.2-0.4,0.7-1.1,2.5-1.5l15.9-4l0.3-0.6c16.5-25.7,45.4-42.8,78.2-42.8c32.6,0,61.4,16.9,77.9,42.4l0.5,0.9l15.9,4
			c1.8,0.5,2.3,1.1,2.5,1.5c0.6,1,0.2,2.1-1,6l-5.3,18.4c0,0,0.5,1.8,0.8,3.4c1,5.3,1.4,10.7,1.4,16.3
			C240.9,201.2,199.2,242.9,148,242.9z M151.8,274.2l-0.9-16l3.2-0.2l0.8,13.3l6.4-0.4l0.2,2.7L151.8,274.2z M168.8,272.4l-3.1-15.7
			l3.2-0.6l2.6,13l6.3-1.3l0.5,2.7L168.8,272.4z M200,262.6c-3.9,1.7-8.5,0.4-10.6-4.4c-2.3-5.1,0.4-9.5,4.2-11.2
			c2-0.9,4.6-1.1,7,0.2l-1.2,2.9c-1.6-1-3.3-0.9-4.6-0.3c-2.5,1.1-3.9,3.6-2.4,6.9c1.4,3.1,4.1,4.1,6.6,3c1.9-0.8,3-2.6,2.9-5l3,0.2
			C204.8,258.6,202.9,261.4,200,262.6z M213.6,255.2l-8.9-13.3l2.7-1.8l7.4,11l5.3-3.6l1.5,2.3L213.6,255.2z M232.3,241.7
			c-2.4,2.1-6.2,2.7-8.9-0.3l-6.8-7.8l2.4-2.1l6.6,7.5c1.6,1.8,3.3,1.6,4.7,0.4c1.3-1.2,1.8-2.9,0.2-4.7l-6.6-7.5l2.4-2.1l6.8,7.8
			C235.9,235.9,234.8,239.6,232.3,241.7z M247,225.7l-4.1,4.4l-11.7-11l4-4.2c2.2-2.4,4.7-2.4,6.2-1c1.2,1.1,1.5,2.8,0.8,4.3
			c1.5-1,3.4-1.1,4.9,0.3C248.8,220,249.4,223.1,247,225.7z M256.1,157.7c-2.9,0-5.2-2.1-5.2-4.9c0-1.8,0.9-3.2,2.3-4
			c-0.7-0.6-1.1-1.6-1.1-2.7c0-2.2,1.7-4,4-4c2.3,0,4,1.8,4,4c0,1.1-0.4,2-1.1,2.7c1.4,0.8,2.3,2.3,2.3,4
			C261.3,155.5,259.1,157.7,256.1,157.7z M269.8,157.5h-2.6l3.2-5.5c-0.2,0-0.4,0.1-0.6,0.1c-2.5,0-4.9-2-4.9-5c0-2.8,2.2-5,5.1-5
			c2.9,0,5.1,2.2,5.1,5c0,1.1-0.4,2-0.9,2.9L269.8,157.5z"/>
		<path class="st4" d="M239.6,216.7c-0.9-0.9-2-0.4-2.6,0.3l-1.6,1.7l2.7,2.5l1.5-1.7C240.3,218.6,240.4,217.5,239.6,216.7z"/>
		<path class="st4" d="M63.7,229.9c-2.3,2.3-2.3,5.4-0.4,7.4c1.9,2,5,2.1,7.4-0.1c2.4-2.3,2.3-5.4,0.4-7.4
			C69.2,227.7,66.1,227.6,63.7,229.9z"/>
		<path class="st4" d="M241.7,221.2L240,223l3.1,2.9l1.6-1.7c1-1,1.2-2.5,0.2-3.4C243.8,219.8,242.6,220.2,241.7,221.2z"/>
	</g>
</g>
</svg>
