<?xml version="1.0" encoding="UTF-8"?>
<!DOCTYPE svg PUBLIC "-//W3C//DTD SVG 1.1//EN" "http://www.w3.org/Graphics/SVG/1.1/DTD/svg11.dtd">
<svg xmlns="http://www.w3.org/2000/svg" version="1.1" width="150px" height="150px" style="shape-rendering:geometricPrecision; text-rendering:geometricPrecision; image-rendering:optimizeQuality; fill-rule:evenodd; clip-rule:evenodd" xmlns:xlink="http://www.w3.org/1999/xlink">
<g><path style="opacity:0.849" fill="#640e47" d="M 14.5,6.5 C 54.1667,6.5 93.8333,6.5 133.5,6.5C 133.667,34.1687 133.5,61.8353 133,89.5C 124.076,119.089 104.409,136.756 74,142.5C 45.5901,137.27 26.0901,120.77 15.5,93C 15.8333,92.6667 16.1667,92.3333 16.5,92C 15.7511,90.2663 15.2511,88.433 15,86.5C 14.5,59.8354 14.3334,33.1687 14.5,6.5 Z"/></g>
<g><path style="opacity:1" fill="#f7f3f5" d="M 18.5,10.5 C 55.5,10.5 92.5,10.5 129.5,10.5C 129.667,35.8355 129.5,61.1689 129,86.5C 121.36,115.303 102.86,132.637 73.5,138.5C 43.3904,131.891 25.2237,113.557 19,83.5C 18.5,59.1689 18.3334,34.8356 18.5,10.5 Z"/></g>
<g><path style="opacity:1" fill="#600443" d="M 22.5,14.5 C 56.8333,14.5 91.1667,14.5 125.5,14.5C 125.5,36.8333 125.5,59.1667 125.5,81.5C 120.356,110.978 103.023,128.645 73.5,134.5C 50.1543,129.321 33.9877,115.654 25,93.5C 24.2057,90.5285 23.539,87.5285 23,84.5C 22.5,61.169 22.3334,37.8357 22.5,14.5 Z"/></g>
<g><path style="opacity:1" fill="#ae83a0" d="M 22.5,14.5 C 56.996,13.5016 91.6627,13.1683 126.5,13.5C 126.831,36.3395 126.497,59.0061 125.5,81.5C 125.5,59.1667 125.5,36.8333 125.5,14.5C 91.1667,14.5 56.8333,14.5 22.5,14.5 Z"/></g>
<g><path style="opacity:1" fill="#e9e0e5" d="M 79.5,38.5 C 79.5,39.1667 79.5,39.8333 79.5,40.5C 77.901,40.2322 76.5676,40.5655 75.5,41.5C 74.8333,41.5 74.5,41.8333 74.5,42.5C 72.2102,40.6612 69.8769,40.3279 67.5,41.5C 66.6618,41.1583 66.3284,40.4916 66.5,39.5C 68.205,38.4647 69.8716,38.4647 71.5,39.5C 73.1667,38.6667 74.8333,37.8333 76.5,37C 75.0692,36.5348 73.9025,35.7014 73,34.5C 71.5557,36.1554 69.7224,36.822 67.5,36.5C 67.33,35.1779 67.6634,34.0113 68.5,33C 70.5568,32.6948 72.5568,32.6948 74.5,33C 70.8872,30.4412 70.5539,27.4412 73.5,24C 73.1667,23.5 72.8333,23 72.5,22.5C 71.6667,23.5 70.8333,24.5 70,25.5C 69.7751,22.4164 70.7751,19.7498 73,17.5C 73.4828,18.448 73.6495,19.448 73.5,20.5C 74.5,20.5 75.5,20.5 76.5,20.5C 76.6427,22.2624 76.3094,23.9291 75.5,25.5C 78.1395,27.4728 80.4728,29.8061 82.5,32.5C 80.6095,33.4238 79.1095,34.7571 78,36.5C 77.4719,37.816 77.9719,38.4827 79.5,38.5 Z"/></g>
<g><path style="opacity:1" fill="#f8f6f7" d="M 79.5,38.5 C 83.0148,39.9193 86.6814,40.586 90.5,40.5C 90.5,41.8333 90.5,43.1667 90.5,44.5C 94.1667,44.5 97.8333,44.5 101.5,44.5C 101.5,57.1667 101.5,69.8333 101.5,82.5C 100.508,75.3524 100.175,68.0191 100.5,60.5C 83.1667,60.5 65.8333,60.5 48.5,60.5C 48.825,68.0191 48.4916,75.3524 47.5,82.5C 47.5,69.8333 47.5,57.1667 47.5,44.5C 51.5138,44.6655 55.5138,44.4988 59.5,44C 58.1667,43 58.1667,42 59.5,41C 61.9204,40.7096 64.2537,40.2096 66.5,39.5C 66.3284,40.4916 66.6618,41.1583 67.5,41.5C 68.4822,42.1408 69.4822,42.8075 70.5,43.5C 71.9049,43.24 73.2382,42.9066 74.5,42.5C 74.5,41.8333 74.8333,41.5 75.5,41.5C 77.0174,41.5106 78.1841,42.1772 79,43.5C 83.2805,42.6298 83.4472,41.6298 79.5,40.5C 79.5,39.8333 79.5,39.1667 79.5,38.5 Z"/></g>
<g><path style="opacity:1" fill="#6d1d51" d="M 75.5,41.5 C 76.5676,40.5655 77.901,40.2322 79.5,40.5C 83.4472,41.6298 83.2805,42.6298 79,43.5C 78.1841,42.1772 77.0174,41.5106 75.5,41.5 Z"/></g>
<g><path style="opacity:1" fill="#712556" d="M 60.5,41.5 C 64.2434,41.4592 64.4101,42.1259 61,43.5C 60.5357,42.9056 60.369,42.2389 60.5,41.5 Z"/></g>
<g><path style="opacity:1" fill="#78325e" d="M 67.5,41.5 C 69.8769,40.3279 72.2102,40.6612 74.5,42.5C 73.2382,42.9066 71.9049,43.24 70.5,43.5C 69.4822,42.8075 68.4822,42.1408 67.5,41.5 Z"/></g>
<g><path style="opacity:1" fill="#b190a5" d="M 92.5,50.5 C 91.0413,50.5674 89.7079,50.2341 88.5,49.5C 87.7082,48.8143 88.2082,48.481 90,48.5C 91.3756,48.6842 92.2089,49.3509 92.5,50.5 Z"/></g>
<g><path style="opacity:1" fill="#651149" d="M 64.5,53.5 C 61.8333,54.1667 59.1667,54.8333 56.5,55.5C 55.325,55.719 54.325,55.3857 53.5,54.5C 54.7111,53.2798 54.7111,52.1131 53.5,51C 57.336,49.8108 61.336,49.8108 65.5,51C 64.001,51.8382 63.6676,52.6715 64.5,53.5 Z"/></g>
<g><path style="opacity:1" fill="#a37794" d="M 77.5,52.5 C 76.1984,53.8069 74.865,53.8069 73.5,52.5C 72.5713,53.6888 72.238,55.0222 72.5,56.5C 71.1834,53.7699 71.1834,50.9365 72.5,48C 75.7215,47.5232 77.3882,49.0232 77.5,52.5 Z"/></g>
<g><path style="opacity:1" fill="#69174c" d="M 88.5,49.5 C 89.7079,50.2341 91.0413,50.5674 92.5,50.5C 96.2896,50.0077 96.9563,50.841 94.5,53C 94.7284,53.3988 95.0618,53.5654 95.5,53.5C 93.1667,54.1667 90.8333,54.8333 88.5,55.5C 87.0222,55.762 85.6888,55.4287 84.5,54.5C 85.6682,53.0944 85.3348,51.9277 83.5,51C 85.3817,50.8019 87.0484,50.3019 88.5,49.5 Z"/></g>
<g><path style="opacity:1" fill="#732958" d="M 77.5,52.5 C 77.9746,55.3227 76.9746,57.3227 74.5,58.5C 73.2867,58.2528 72.62,57.5862 72.5,56.5C 72.238,55.0222 72.5713,53.6888 73.5,52.5C 74.865,53.8069 76.1984,53.8069 77.5,52.5 Z"/></g>
<g><path style="opacity:1" fill="#9b6d8b" d="M 64.5,53.5 C 65.0431,53.56 65.3764,53.8933 65.5,54.5C 63.1184,55.3507 61.1184,56.684 59.5,58.5C 58.5,58 57.5,57.5 56.5,57C 57.7383,56.31 57.7383,55.81 56.5,55.5C 59.1667,54.8333 61.8333,54.1667 64.5,53.5 Z"/></g>
<g><path style="opacity:1" fill="#9d708d" d="M 95.5,53.5 C 96.0431,53.56 96.3764,53.8933 96.5,54.5C 94.1184,55.3507 92.1184,56.684 90.5,58.5C 88.1286,58.1084 87.4619,57.1084 88.5,55.5C 90.8333,54.8333 93.1667,54.1667 95.5,53.5 Z"/></g>
<g><path style="opacity:1" fill="#ebe2e7" d="M 101.5,82.5 C 98.5622,97.9379 89.3956,107.271 74,110.5C 59.1579,106.825 50.3245,97.4919 47.5,82.5C 48.4916,75.3524 48.825,68.0191 48.5,60.5C 65.8333,60.5 83.1667,60.5 100.5,60.5C 100.175,68.0191 100.508,75.3524 101.5,82.5 Z"/></g>
<g><path style="opacity:1" fill="#620945" d="M 73.5,64.5 C 71.8333,64.5 70.1667,64.5 68.5,64.5C 68.5,65.8333 68.5,67.1667 68.5,68.5C 67.1667,68.5 65.8333,68.5 64.5,68.5C 64.5,69.5 64.5,70.5 64.5,71.5C 63.5,71.5 62.5,71.5 61.5,71.5C 61.5,72.5 61.5,73.5 61.5,74.5C 60.1667,74.5 58.8333,74.5 57.5,74.5C 57.5,75.8333 57.5,77.1667 57.5,78.5C 56.5,78.5 55.5,78.5 54.5,78.5C 54.5,79.5 54.5,80.5 54.5,81.5C 53.5,81.5 52.5,81.5 51.5,81.5C 51.719,82.675 51.3857,83.675 50.5,84.5C 49.5025,76.8622 49.1692,69.1955 49.5,61.5C 66.1667,61.5 82.8333,61.5 99.5,61.5C 99.831,69.5277 99.4977,77.5277 98.5,85.5C 97.5713,84.3112 97.238,82.9778 97.5,81.5C 96.5,81.5 95.5,81.5 94.5,81.5C 94.5,80.5 94.5,79.5 94.5,78.5C 93.1667,78.5 91.8333,78.5 90.5,78.5C 90.5,77.1667 90.5,75.8333 90.5,74.5C 89.5,74.5 88.5,74.5 87.5,74.5C 87.5,73.5 87.5,72.5 87.5,71.5C 86.5,71.5 85.5,71.5 84.5,71.5C 84.5,70.5 84.5,69.5 84.5,68.5C 83.1667,68.5 81.8333,68.5 80.5,68.5C 80.5,67.1667 80.5,65.8333 80.5,64.5C 78.2776,64.822 76.4443,64.1554 75,62.5C 74.2828,63.0442 73.7828,63.7109 73.5,64.5 Z"/></g>
<g><path style="opacity:1" fill="#eee6eb" d="M 55.5,64.5 C 59.1396,66.1019 59.4729,68.4352 56.5,71.5C 53.2731,69.4379 52.9398,67.1045 55.5,64.5 Z"/></g>
<g><path style="opacity:1" fill="#ece4e9" d="M 92.5,63.5 C 96.2305,66.2274 96.3972,69.2274 93,72.5C 92.1667,70.8333 91.3333,69.1667 90.5,67.5C 91.6302,66.3777 92.2969,65.0443 92.5,63.5 Z"/></g>
<g><path style="opacity:1" fill="#ae829f" d="M 73.5,64.5 C 72.4324,65.4345 71.099,65.7678 69.5,65.5C 69.7373,66.791 69.404,67.791 68.5,68.5C 68.5,67.1667 68.5,65.8333 68.5,64.5C 70.1667,64.5 71.8333,64.5 73.5,64.5 Z"/></g>
<g><path style="opacity:1" fill="#67134a" d="M 72.5,68.5 C 73.8333,68.5 75.1667,68.5 76.5,68.5C 76.5,69.8333 76.5,71.1667 76.5,72.5C 77.5,72.5 78.5,72.5 79.5,72.5C 79.5,73.5 79.5,74.5 79.5,75.5C 80.8333,75.5 82.1667,75.5 83.5,75.5C 83.5,76.8333 83.5,78.1667 83.5,79.5C 84.5,79.5 85.5,79.5 86.5,79.5C 86.5,80.5 86.5,81.5 86.5,82.5C 87.8333,82.5 89.1667,82.5 90.5,82.5C 90.5,83.8333 90.5,85.1667 90.5,86.5C 91.8333,86.5 93.1667,86.5 94.5,86.5C 94.3285,88.4918 94.9951,90.1585 96.5,91.5C 91.6924,100.661 84.1924,106.328 74,108.5C 63.7247,105.948 56.2247,99.9484 51.5,90.5C 52.325,89.6143 53.325,89.281 54.5,89.5C 54.5,88.5 54.5,87.5 54.5,86.5C 55.8333,86.5 57.1667,86.5 58.5,86.5C 58.5,85.1667 58.5,83.8333 58.5,82.5C 59.5,82.5 60.5,82.5 61.5,82.5C 61.5,81.5 61.5,80.5 61.5,79.5C 62.8333,79.5 64.1667,79.5 65.5,79.5C 65.5,78.1667 65.5,76.8333 65.5,75.5C 66.8333,75.5 68.1667,75.5 69.5,75.5C 69.5,74.5 69.5,73.5 69.5,72.5C 70.5,72.5 71.5,72.5 72.5,72.5C 72.5,71.1667 72.5,69.8333 72.5,68.5 Z"/></g>
<g><path style="opacity:1" fill="#b694a9" d="M 79.5,81.5 C 79.9931,83.4904 81.1598,83.4904 83,81.5C 84.7179,84.0557 84.7179,86.7224 83,89.5C 80.9851,87.5217 81.1517,85.6884 83.5,84C 82.5509,83.3828 81.7175,83.5494 81,84.5C 80.5441,87.5716 80.5441,90.5716 81,93.5C 79.5295,92.6195 78.6962,91.2861 78.5,89.5C 79.1361,87.592 79.1361,85.9254 78.5,84.5C 78.2627,83.209 78.596,82.209 79.5,81.5 Z"/></g>
<g><path style="opacity:1" fill="#c8b0bf" d="M 39.5,83.5 C 40.2389,83.369 40.9056,83.5357 41.5,84C 41.9893,86.4904 43.3227,88.3237 45.5,89.5C 46.2403,92.8663 46.907,96.1996 47.5,99.5C 44.6027,98.871 41.936,97.871 39.5,96.5C 41.2624,96.3573 42.9291,96.6906 44.5,97.5C 45.8333,95.8333 45.8333,94.1667 44.5,92.5C 41.223,93.2537 37.8897,93.7537 34.5,94C 35.056,94.3826 35.3893,94.8826 35.5,95.5C 34.3509,95.7911 33.6842,96.6244 33.5,98C 33.9434,99.825 34.2767,101.658 34.5,103.5C 33.0598,102.054 32.3932,100.221 32.5,98C 32.8887,93.2192 33.0554,88.3859 33,83.5C 35.2735,82.1888 37.4402,82.1888 39.5,83.5 Z"/></g>
<g><path style="opacity:1" fill="#6a194d" d="M 39.5,83.5 C 40.3007,85.0418 40.634,86.7085 40.5,88.5C 39.325,88.719 38.325,88.3857 37.5,87.5C 38.5063,86.6043 38.5063,85.9377 37.5,85.5C 36.1156,88.1326 34.7822,88.1326 33.5,85.5C 35.0225,83.7175 37.0225,83.0508 39.5,83.5 Z"/></g>
<g><path style="opacity:1" fill="#e9e0e5" d="M 79.5,81.5 C 78.596,82.209 78.2627,83.209 78.5,84.5C 75.3836,89.0783 76.0503,92.9116 80.5,96C 78.3423,96.9589 78.009,98.4589 79.5,100.5C 79.1592,103.187 77.8258,105.187 75.5,106.5C 74.5,106.167 73.8333,105.5 73.5,104.5C 75.1492,103.852 76.4825,102.852 77.5,101.5C 76.1413,99.3078 74.3079,97.6411 72,96.5C 71.5287,100.179 69.6954,101.512 66.5,100.5C 67.325,99.6143 68.325,99.281 69.5,99.5C 69.5,97.5 69.5,95.5 69.5,93.5C 70.8734,93.6567 72.2068,93.49 73.5,93C 73.1667,92.6667 72.8333,92.3333 72.5,92C 69.4465,91.8214 66.4465,91.3214 63.5,90.5C 65.9661,89.8765 68.2994,89.0432 70.5,88C 69.0623,85.4045 67.729,82.7379 66.5,80C 67.0253,79.3076 67.6919,78.8076 68.5,78.5C 69.5578,84.206 71.8912,84.8727 75.5,80.5C 74.8333,79.8333 74.1667,79.1667 73.5,78.5C 75.3413,77.7696 77.1746,77.1029 79,76.5C 79.4935,78.1341 79.6602,79.8008 79.5,81.5 Z"/></g>
<g><path style="opacity:1" fill="#69174d" d="M 33.5,88.5 C 37.573,89.0087 41.573,89.842 45.5,91C 41.8803,92.5787 38.2137,92.7454 34.5,91.5C 33.8728,90.5832 33.5394,89.5832 33.5,88.5 Z"/></g>
<g><path style="opacity:1" fill="#c2a6b8" d="M 116.5,91.5 C 117.417,94.0048 117.417,96.3382 116.5,98.5C 116.715,96.8212 116.048,95.8212 114.5,95.5C 111.063,96.9448 107.397,97.9448 103.5,98.5C 103.5,95.8333 103.5,93.1667 103.5,90.5C 106.181,89.505 107.681,87.505 108,84.5C 108.671,83.7476 109.504,83.4142 110.5,83.5C 112.56,82.1888 114.726,82.1888 117,83.5C 117.801,86.367 117.634,89.0336 116.5,91.5 Z"/></g>
<g><path style="opacity:1" fill="#69164c" d="M 116.5,91.5 C 112.46,92.9232 108.46,92.7566 104.5,91C 108.102,89.9238 111.769,89.0905 115.5,88.5C 116.386,89.325 116.719,90.325 116.5,91.5 Z"/></g>
<g><path style="opacity:1" fill="#630945" d="M 110.5,83.5 C 112.977,83.0508 114.977,83.7175 116.5,85.5C 116.167,86.5 115.5,87.1667 114.5,87.5C 113.107,86.1369 111.441,85.3036 109.5,85C 110.056,84.6174 110.389,84.1174 110.5,83.5 Z"/></g>
<g><path style="opacity:1" fill="#661149" d="M 39.5,96.5 C 38.4324,95.5655 37.099,95.2322 35.5,95.5C 35.3893,94.8826 35.056,94.3826 34.5,94C 37.8897,93.7537 41.223,93.2537 44.5,92.5C 45.8333,94.1667 45.8333,95.8333 44.5,97.5C 42.9291,96.6906 41.2624,96.3573 39.5,96.5 Z"/></g>
<g><path style="opacity:1" fill="#630a46" d="M 114.5,95.5 C 111.164,95.467 107.997,96.1336 105,97.5C 104.51,96.2068 104.343,94.8734 104.5,93.5C 108.329,92.931 111.663,93.5977 114.5,95.5 Z"/></g>
<g><path style="opacity:1" fill="#bc9cb0" d="M 34.5,103.5 C 38.6506,104.74 42.3173,106.74 45.5,109.5C 41.2728,108.226 37.6061,106.226 34.5,103.5 Z"/></g>
<g><path style="opacity:1" fill="#b896ab" d="M 116.5,98.5 C 116.683,100.936 116.016,103.103 114.5,105C 110.328,106.588 106.328,108.421 102.5,110.5C 105.475,107.339 109.142,105.172 113.5,104C 114.609,102.124 115.609,100.291 116.5,98.5 Z"/></g>
<g><path style="opacity:1" fill="#bfa2b5" d="M 45.5,109.5 C 47.0269,109.427 48.0269,110.094 48.5,111.5C 46.9731,111.573 45.9731,110.906 45.5,109.5 Z"/></g>
<g><path style="opacity:1" fill="#b999ad" d="M 102.5,110.5 C 101.415,112.587 99.7488,113.92 97.5,114.5C 98.5846,112.413 100.251,111.08 102.5,110.5 Z"/></g>
<g><path style="opacity:1" fill="#bb9cb0" d="M 48.5,111.5 C 50.4044,111.738 51.7377,112.738 52.5,114.5C 50.5956,114.262 49.2623,113.262 48.5,111.5 Z"/></g>
<g><path style="opacity:1" fill="#bea0b3" d="M 52.5,114.5 C 54.8525,115.34 56.8525,116.674 58.5,118.5C 55.8021,118.155 53.8021,116.822 52.5,114.5 Z"/></g>
<g><path style="opacity:1" fill="#bc9eb1" d="M 97.5,114.5 C 96.1979,116.822 94.1979,118.155 91.5,118.5C 93.1475,116.674 95.1475,115.34 97.5,114.5 Z"/></g>
<g><path style="opacity:1" fill="#bfa2b5" d="M 58.5,118.5 C 60.8185,118.992 62.8185,119.992 64.5,121.5C 61.911,121.539 59.911,120.539 58.5,118.5 Z"/></g>
<g><path style="opacity:1" fill="#6c1d50" d="M 103.5,90.5 C 103.5,93.1667 103.5,95.8333 103.5,98.5C 107.397,97.9448 111.063,96.9448 114.5,95.5C 116.048,95.8212 116.715,96.8212 116.5,98.5C 115.609,100.291 114.609,102.124 113.5,104C 109.142,105.172 105.475,107.339 102.5,110.5C 100.251,111.08 98.5846,112.413 97.5,114.5C 95.1475,115.34 93.1475,116.674 91.5,118.5C 90.4863,119.674 89.153,120.34 87.5,120.5C 79.9251,122.684 72.2585,123.017 64.5,121.5C 62.8185,119.992 60.8185,118.992 58.5,118.5C 56.8525,116.674 54.8525,115.34 52.5,114.5C 51.7377,112.738 50.4044,111.738 48.5,111.5C 48.0269,110.094 47.0269,109.427 45.5,109.5C 42.3173,106.74 38.6506,104.74 34.5,103.5C 34.2767,101.658 33.9434,99.825 33.5,98C 33.6842,96.6244 34.3509,95.7911 35.5,95.5C 37.099,95.2322 38.4324,95.5655 39.5,96.5C 41.936,97.871 44.6027,98.871 47.5,99.5C 49.674,99.7497 51.3406,100.75 52.5,102.5C 53.5846,104.587 55.2512,105.92 57.5,106.5C 58.8021,108.822 60.8021,110.155 63.5,110.5C 65.099,110.232 66.4324,110.566 67.5,111.5C 66.7611,111.369 66.0944,111.536 65.5,112C 74.3058,115.9 82.3058,114.734 89.5,108.5C 91.4044,108.262 92.7377,107.262 93.5,105.5C 96.4549,103.878 99.1215,101.878 101.5,99.5C 102.088,96.3896 102.755,93.3896 103.5,90.5 Z"/></g>
<g><path style="opacity:1" fill="#d2becb" d="M 91.5,110.5 C 92.4584,110.953 93.2917,111.619 94,112.5C 95.6665,111.66 95.8331,112.16 94.5,114C 91.2208,116.223 87.7208,118.057 84,119.5C 82.7387,119.241 81.7387,118.574 81,117.5C 80,121.5 79,121.5 78,117.5C 77.5172,118.448 77.3505,119.448 77.5,120.5C 72.7533,121.037 68.4199,120.037 64.5,117.5C 64.9186,116.328 65.5853,115.328 66.5,114.5C 71.8915,117.538 77.5582,117.538 83.5,114.5C 84.086,114.709 84.586,115.043 85,115.5C 86.5295,114.417 88.0295,113.417 89.5,112.5C 90.324,114.748 91.324,114.914 92.5,113C 91.7476,112.329 91.4142,111.496 91.5,110.5 Z"/></g>
<g><path style="opacity:1" fill="#be9fb3" d="M 89.5,108.5 C 82.3058,114.734 74.3058,115.9 65.5,112C 66.0944,111.536 66.7611,111.369 67.5,111.5C 69.9026,112.393 72.4026,113.06 75,113.5C 80.0971,112.532 84.9305,110.865 89.5,108.5 Z"/></g>
<g><path style="opacity:1" fill="#d3c0cc" d="M 106.5,99.5 C 109.932,99.2479 110.932,100.581 109.5,103.5C 105.605,104.819 102.271,106.986 99.5,110C 96.3333,110.833 95.1667,109.667 96,106.5C 98.0033,104.199 99.8367,104.199 101.5,106.5C 102.113,105.02 102.446,103.687 102.5,102.5C 104.78,105.186 105.447,105.019 104.5,102C 104.944,100.238 105.444,100.405 106,102.5C 106.483,101.552 106.649,100.552 106.5,99.5 Z"/></g>
<g><path style="opacity:1" fill="#bc9db1" d="M 57.5,106.5 C 59.8525,107.34 61.8525,108.674 63.5,110.5C 60.8021,110.155 58.8021,108.822 57.5,106.5 Z"/></g>
<g><path style="opacity:1" fill="#be9fb3" d="M 93.5,105.5 C 92.7377,107.262 91.4044,108.262 89.5,108.5C 90.2623,106.738 91.5956,105.738 93.5,105.5 Z"/></g>
<g><path style="opacity:1" fill="#d9cad3" d="M 39.5,99.5 C 42.5045,99.2501 44.3378,100.583 45,103.5C 48.1015,102.05 50.1015,103.05 51,106.5C 53.2912,105.689 55.1246,106.523 56.5,109C 54.3426,110.085 54.1759,111.251 56,112.5C 56.6891,111.643 57.5224,110.977 58.5,110.5C 60.6297,111.467 62.6297,112.634 64.5,114C 62.0675,116.966 60.5675,116.8 60,113.5C 59.5774,114.956 58.7441,115.456 57.5,115C 54.6667,113.5 52.5,111.333 51,108.5C 50.6667,108.833 50.3333,109.167 50,109.5C 47.1758,106.546 43.6758,104.713 39.5,104C 38.2721,102.51 38.2721,101.01 39.5,99.5 Z"/></g>
<g><path style="opacity:1" fill="#bb9bb0" d="M 52.5,102.5 C 54.7488,103.08 56.4154,104.413 57.5,106.5C 55.2512,105.92 53.5846,104.587 52.5,102.5 Z"/></g>
<g><path style="opacity:1" fill="#b895ab" d="M 101.5,99.5 C 99.1215,101.878 96.4549,103.878 93.5,105.5C 95.3129,102.353 97.9796,100.353 101.5,99.5 Z"/></g>
<g><path style="opacity:1" fill="#ba99af" d="M 87.5,120.5 C 86.158,121.793 84.4913,122.626 82.5,123C 77.1667,123.667 71.8333,123.667 66.5,123C 65.5842,122.722 64.9175,122.222 64.5,121.5C 72.2585,123.017 79.9251,122.684 87.5,120.5 Z"/></g>
</svg>
