<?xml version="1.0" encoding="utf-8"?>
<!-- Generator: Adobe Illustrator 19.2.1, SVG Export Plug-In . SVG Version: 6.00 Build 0)  -->
<!DOCTYPE svg PUBLIC "-//W3C//DTD SVG 1.1//EN" "http://www.w3.org/Graphics/SVG/1.1/DTD/svg11.dtd">
<svg version="1.1" id="Chelsea" xmlns="http://www.w3.org/2000/svg" xmlns:xlink="http://www.w3.org/1999/xlink" x="0px" y="0px"
	 viewBox="0 0 1860 1860" style="enable-background:new 0 0 1860 1860;" xml:space="preserve">
<style type="text/css">
	.st0{fill:#DEA600;}
	.st1{fill:#153D8A;}
	.st2{fill:#FFFFFF;}
	.st3{fill:#DADADA;}
	.st4{fill:#E30613;}
	.st5{fill:#728AB9;}
</style>
<path class="st0" d="M1860,930c0,513.6-416.4,930-930,930S0,1443.6,0,930C0,416.4,416.4,0,930,0S1860,416.4,1860,930z"/>
<path class="st1" d="M1829,930c0,496.5-402.5,899-899,899c-496.5,0-899-402.5-899-899C31,433.5,433.5,31,930,31
	C1426.5,31,1829,433.5,1829,930z"/>
<path class="st0" d="M1570.7,930c0,353.8-286.8,640.6-640.7,640.6c-353.8,0-640.7-286.8-640.7-640.6
	c0-353.9,286.8-640.7,640.7-640.7C1283.9,289.3,1570.7,576.2,1570.7,930z"/>
<path class="st2" d="M1551.3,930c0,343.1-278.1,621.3-621.3,621.3c-343.1,0-621.3-278.1-621.3-621.3
	c0-343.1,278.1-621.3,621.3-621.3C1273.1,308.8,1551.3,586.9,1551.3,930z"/>
<g>
	<path class="st0" d="M397.7,1466c6.9,6.6,23.8,22.6,23.8,22.6l16.2-17.1l-48.4-46.1l-6.2,6.5l-64.9,68.1l24.6,23.5
		c0,0,20.9-21.9,28.5-29.8c6.4,6.1,21.6,20.6,21.6,20.6l16.2-17c0,0-15.3-14.6-21.6-20.6C391.6,1472.4,393.6,1470.3,397.7,1466z"/>
	<path class="st0" d="M514.3,1543.7c-2.2-13.1-9.5-24.6-20.6-32.5c-11-7.8-24.3-11-37.3-8.8c-14.1,2.4-26.7,10.6-35.6,23
		c-8.9,12.5-12.5,27.1-10.1,41.2c2.2,13,9.5,24.5,20.5,32.4c11.1,7.9,24.4,11,37.5,8.8c14.1-2.4,26.7-10.6,35.6-23
		c7.1-10,10.8-21.3,10.8-32.6C515,1549.4,514.8,1546.5,514.3,1543.7z M444.9,1579.9c-11.3-8-2-24.7,4.6-34
		c6.6-9.2,19.3-23.6,30.6-15.5c11.8,8.4,0.8,26.6-4.5,34.1C470.2,1571.9,456.7,1588.3,444.9,1579.9z"/>
	<path class="st0" d="M590.3,1569.5c-26-13.2-56.1-2.4-70,25c-6.9,13.7-8.3,28.7-3.8,42.3c4.1,12.5,13.1,22.8,25.2,28.9
		c12.1,6.2,25.8,7.3,38.3,3.1c13.5-4.4,24.8-14.4,31.7-28.1C625.6,1613.3,616.4,1582.7,590.3,1569.5z M561.5,1645.7
		c-3,1-6,0.7-9.2-0.9c-5.2-2.6-7-7.3-7-12.6c0-7.3,3.5-15.8,6.5-21.7c5.1-10.1,15.5-26.2,27.9-19.9c3.3,1.7,5.2,3.8,6.2,6.9
		c2,6.2,0,16.5-5.6,27.5C574.8,1635.9,567.8,1643.6,561.5,1645.7z"/>
	<path class="st0" d="M644,1607.2l-4.8,13.7c0,0,12.3,4.3,16,5.6c-4.7,13.4-26.3,75.1-26.3,75.1l32.1,11.3c0,0,21.6-61.7,26.3-75
		c3.7,1.3,16,5.6,16,5.6l7.8-22.2l-64.1-22.5L644,1607.2z"/>
	<path class="st0" d="M777.3,1637l-43.4-9.1l-1.8,8.8l-19.4,92.1l44.1,9.3c14.1,3,23.4-0.5,28.7-4c6.7-4.4,11.4-11.5,13.2-20.1
		c0.5-2.3,0.7-4.6,0.7-6.9c0-6.2-2-11.8-5.5-16.6c5-3.9,8.5-9.5,10-16.5c0.4-1.8,0.6-3.8,0.6-5.9
		C804.5,1656.2,797.8,1641.3,777.3,1637z M765.3,1707.2c-0.4,2.1-1.3,4.9-2.9,5.9c-1.5,1-4.3,1.1-8,0.3c0,0-1.7-0.4-3.6-0.8
		c1.4-6.6,2.3-11.1,3.7-17.7c1.9,0.4,4.3,0.9,4.3,0.9c5.7,1.2,6.8,5.4,6.8,8.5C765.6,1705.6,765.5,1706.6,765.3,1707.2z M762.3,1658
		c3.8,0.9,6.6,2.3,7.7,3.9c0.5,0.8,0.7,1.8,0.7,3c0,0.8-0.1,1.7-0.3,2.7c-0.6,2.7-1.4,6.5-8.9,4.9c0,0-0.9-0.2-2.2-0.5
		C760.6,1666.4,761.1,1663.6,762.3,1658z"/>
	<path class="st0" d="M857.3,1652l-47.1,96.4l26.9,2c0,0,7.3-15.3,10.2-21.5c5.7,0.4,11.4,0.9,17,1.3c2.1,6.4,7.3,22.8,7.3,22.8
		l35.8,2.8l-40-124L857.3,1652z"/>
	<path class="st0" d="M963.5,1729c-0.6-14.1-3.3-78.3-3.3-78.3l-9,0.4l-25,1.1l4.3,103l68.1-2.9l-1-24.7
		C997.6,1727.5,973.2,1728.6,963.5,1729z"/>
	<path class="st0" d="M1056.7,1719.1c-2.2-13.9-12.1-77.4-12.1-77.4l-8.9,1.4l-24.7,3.9l16,101.9l67.3-10.6l-3.8-24.4
		C1090.4,1713.8,1066.3,1717.6,1056.7,1719.1z"/>
	<path class="st0" d="M1251.7,1650.5c-0.3,8.9-5.5,16.5-13.6,19.7c-4.5,1.8-8.8,1.8-13,0c-6.6-2.8-12.8-10-16.4-19.2
		c-4.3-10.9-5.2-20-2.4-26.5c2-4.6,5.8-7.9,11.6-10.3c6.3-2.5,12.4-0.2,20.6,4.7l7.5,4.4l12.5-19.8l-7.4-4.9
		c-13.7-9-30.6-10.8-45.3-5c-13.6,5.4-24.2,15.5-29.7,28.5c-5.6,13.2-5.6,28.3,0.1,42.5c10.8,27.1,41.4,40.4,68.2,29.7
		c19.3-7.7,30.3-22.4,31.6-42.4l0.6-9l-24.6-1.8L1251.7,1650.5z"/>
	<path class="st0" d="M1331,1622.4c-6.9-12.3-38.2-68.4-38.2-68.4l-7.9,4.4l-21.8,12.2l50.3,90l59.5-33.2l-12.1-21.6
		C1360.8,1605.8,1339.5,1617.6,1331,1622.4z"/>
	<path class="st0" d="M1397.1,1483.7l-7.3,5.3l-12.8,9.4l41.7,56.9c1.9,2.6,1.9,4.3,1.8,5.3c-0.4,3-3.5,6.1-6.2,8.1
		c-1.3,0.9-4.2,2.1-7.3,1.7c-2.1-0.3-3.9-1.5-5.4-3.5l-41.3-56.3l-27.4,20.1l41,56c6.1,8.3,13.7,13.2,22.5,14.5
		c9.9,1.5,21.2-1.8,31.6-9.5c21.5-15.7,21.2-36.7,11.8-49.5L1397.1,1483.7z"/>
	<path class="st0" d="M1522.4,1463c-6.3-6.6-14.1-9.5-22.3-9.1c-0.5-6.4-2.9-12.5-7.9-17.6c-8.6-8.9-27.8-15.8-45.5,1.4l-31.8,30.8
		l71.7,74l32.4-31.4c10.3-10,12.6-19.7,12.7-26C1531.8,1477.2,1528.5,1469.3,1522.4,1463z M1468.2,1460.5c1.1,1.1,2.3,2.4,2.3,4.3
		c0,1.5-0.8,3.4-3.3,5.7c0,0-0.7,0.7-1.6,1.6c-4-4.1-5.9-6.1-10-10.3C1462.9,1455.3,1465.9,1458.1,1468.2,1460.5z M1485.2,1486
		c5.8-5.6,11.4-0.7,13,1c1.5,1.5,3.3,3.8,3.3,5.7c0,0,0,0,0,0c0,1.8-1.5,4.2-4.2,6.8c0,0-1.2,1.2-2.7,2.6c-4.7-4.9-7.9-8.1-12.6-13
		C1483.4,1487.7,1485.2,1486,1485.2,1486z"/>
</g>
<g>
	<path class="st2" d="M397.5,1456.4c2.8,2.7,23.7,22.6,23.7,22.6l6.9-7.2l-38.6-36.8l-1.6,1.6l-60.2,63.2l14.8,14.2
		c0,0,25.7-26.9,28.4-29.8c2.8,2.6,21.7,20.7,21.7,20.7l6.9-7.3c0,0-18.9-18-21.7-20.6C380.4,1474.3,395,1459,397.5,1456.4z"/>
	<path class="st2" d="M489.8,1516.8c-9.6-6.8-21-9.5-32.3-7.6c-12.3,2.1-23.4,9.3-31.2,20.3c-7.8,11-11,23.9-8.9,36.1
		c1.9,11.3,8.2,21.2,17.8,28c9.6,6.8,21.1,9.5,32.4,7.7c12.3-2.1,23.3-9.3,31.2-20.3c6.2-8.8,9.5-18.8,9.5-28.7c0-2.5-0.2-5-0.6-7.4
		C505.7,1533.6,499.4,1523.6,489.8,1516.8z M481,1568.4c-6.5,9.1-23.3,28.9-40.1,17c-16.7-11.9-3.4-34.3,3-43.4
		c6.5-9.1,23.3-28.9,40-17.1C500.7,1536.9,487.5,1559.3,481,1568.4z"/>
	<path class="st2" d="M587.3,1575.6c-22.6-11.4-48.8-1.9-60.9,22.1c-6.1,12.1-7.3,25.2-3.4,37.1c3.6,10.8,11.3,19.7,21.8,25
		c10.5,5.3,22.3,6.3,33.2,2.7c11.8-3.9,21.7-12.7,27.8-24.7C617.8,1613.7,609.9,1587,587.3,1575.6z M549.2,1650.7
		c-18.3-9.2-8.5-33.4-3.5-43.3c5-10,18.7-32.1,37-22.9c4.8,2.4,8.1,6.1,9.6,10.8c3.6,11-2.2,25.1-6,32.6
		c-3.8,7.5-11.8,20.6-22.7,24.2C558.9,1653.7,554.1,1653.2,549.2,1650.7z"/>
	<path class="st2" d="M650.4,1609.4l-2.6,7.3c0,0,12.8,4.5,16,5.6c-1.4,4-26.3,75.1-26.3,75.1l19.4,6.8c0,0,24.9-71,26.3-75
		c3.2,1.1,16,5.6,16,5.6l3.3-9.4l-51.3-18L650.4,1609.4z"/>
	<path class="st2" d="M775.9,1643.6l-36.7-7.8l-0.5,2.2l-18,85.4l37.5,7.9c9.5,2,17.4,1,23.6-3c5.3-3.5,8.9-9,10.3-15.9
		c0.4-1.8,0.6-3.6,0.6-5.4c0-7.5-3.7-13.8-10.3-18.3c7.7-2.2,13.2-7.9,14.9-16.2c0.3-1.3,0.5-2.9,0.5-4.6
		C797.8,1659.4,793.3,1647.3,775.9,1643.6z M763,1651.1c6.2,1.3,10.5,3.7,12.7,7.1c1.2,1.9,1.8,4.1,1.8,6.7c0,1.3-0.1,2.6-0.5,4.1
		c-2.4,11.4-11.6,11.2-16.8,10.1c0,0-5.6-1.2-8.8-1.8c0.7-3.6,5-23.8,5.8-27.3C759.5,1650.4,763,1651.1,763,1651.1z M760.2,1689.3
		c10.4,2.2,12.1,10.4,12.1,15.4c0,2.2-0.3,3.7-0.4,3.9c-1.1,5-3,8.3-5.8,10.2c-3.1,2-7.5,2.4-13,1.3c0,0-6.7-1.4-10.3-2.1
		c0.8-3.6,5.8-27.3,6.5-30.9C752.4,1687.6,760.2,1689.3,760.2,1689.3z"/>
	<path class="st2" d="M863.4,1655l-42.7,87.5l12.3,0.9c0,0,9.1-19,10.2-21.5c2.6,0.2,23.6,1.8,26.1,2c0.8,2.5,7.3,22.8,7.3,22.8
		l21.2,1.6l-31.8-98.4L863.4,1655z M858.7,1690.1c2.1,6.6,6,19.3,7.3,23.5c-4.2-0.3-13.9-1.1-18.1-1.4
		C849.8,1708.3,855.7,1696.3,858.7,1690.1z"/>
	<path class="st2" d="M957,1736c-0.2-4.3-3.3-78.3-3.3-78.3l-2.2,0.1l-18.3,0.8l3.7,89.5l54.6-2.3l-0.5-11.2
		C991.1,1734.6,960.9,1735.9,957,1736z"/>
	<path class="st2" d="M1051.1,1726.8c-0.7-4.2-12.1-77.4-12.1-77.4l-2.2,0.3l-18,2.9l13.9,88.4l54-8.5l-1.7-11.1
		C1084.8,1721.5,1054.9,1726.2,1051.1,1726.8z"/>
	<path class="st2" d="M1258.4,1650.7c-0.3,11.6-7.2,21.5-17.9,25.8c-6.2,2.5-12.3,2.4-18.2-0.1c-8.4-3.6-15.7-11.9-20-22.9
		c-5-12.6-5.8-23.5-2.3-31.7c2.7-6.2,7.8-10.9,15.3-13.9c9.8-3.9,18.9,0.6,26.5,5.1l1.9,1.1l5.5-8.6l-1.8-1.2
		c-11.9-7.8-26.5-9.4-39.1-4.4c-11.9,4.8-21.2,13.6-26,24.9c-4.9,11.5-4.9,24.8,0.1,37.3c9.4,23.6,36.1,35.2,59.4,25.9
		c16.9-6.8,26.2-19.1,27.4-36.6l0.2-2.2l-10.9-0.8L1258.4,1650.7z"/>
	<path class="st2" d="M1328.4,1631.6c-2.1-3.7-38.2-68.4-38.2-68.4l-2,1.1l-15.9,8.9l43.7,78.2l47.7-26.6l-5.5-9.8
		C1358.2,1615,1331.8,1629.7,1328.4,1631.6z"/>
	<path class="st2" d="M1395.7,1493.1l-1.8,1.3l-7.3,5.3l37.7,51.4c2.5,3.4,3.5,6.9,3,10.3c-0.9,6.1-6.5,10.8-8.9,12.5
		c-2.7,2-7.5,3.7-12.3,2.9c-4-0.6-7.2-2.7-9.8-6.2L1359,1520l-16.6,12.1l37.1,50.5c5,6.8,11.1,10.8,18,11.8
		c11,1.7,21.4-4.5,26.6-8.3c17.9-13.1,18.1-29.6,10.4-40L1395.7,1493.1z"/>
	<path class="st2" d="M1517.5,1467.7c-6.9-7.2-15.8-8.8-25-5.2c0.7-2.2,1.2-4.4,1.2-6.5c0-5.4-2.1-10.5-6.4-14.9
		c-5.8-6-20.7-13.3-36,1.5l-27,26.2l62.3,64.3l27.5-26.7c7-6.7,10.6-13.9,10.7-21.2C1525,1478.8,1522.5,1472.8,1517.5,1467.7z
		 M1477.3,1464.9c0,4.5-2.9,8.2-5.3,10.5c0,0-4.1,4-6.5,6.3c-2.5-2.6-16.9-17.4-19.4-20.1c1.7-1.6,4.3-4.2,4.3-4.2
		c8.4-8.2,15.8-8.7,22.6-1.7C1476.2,1459,1477.3,1462.1,1477.3,1464.9z M1494.5,1511.6c-2.6-2.6-19.4-20-22-22.7
		c2.2-2.2,8-7.8,8-7.8c11-10.6,22.1,0.6,22.6,1.1c3.5,3.6,5.2,7,5.2,10.4c0,0,0,0.1,0,0.1c-0.1,3.7-2.2,7.5-6.2,11.5
		C1502,1504.3,1496.7,1509.5,1494.5,1511.6z"/>
</g>
<g>
	<path class="st0" d="M516.8,317.3l-37.6,10.2l4.3,13.5c5.2,16.3,0.5,33.4-12.2,44.6c-7.1,6.2-15.3,9-24.3,8.4
		c-13.7-0.9-29.1-9.8-41.3-23.7c-14.4-16.4-21.5-32.3-20.6-45.7c0.6-9.8,5.4-18.4,14.5-26.4c10.1-8.8,22.9-8.5,40.2-5l12.8,2.5
		l8.3-36l-12.9-3.2c-27.8-6.9-56.9-0.1-77.6,18c-40.6,35.5-43.9,93.5-7.7,134.9c33.6,38.5,92,42.7,130,9.4
		c27.4-23.9,36.9-54.5,27.6-88.4L516.8,317.3z"/>
	<path class="st0" d="M618.9,128.8l-38.4,18.1c0,0,21.4,45.4,28.8,61.1c-11,5.2-21.6,10.2-32.5,15.3c-7.4-15.6-28.8-61.1-28.8-61.1
		l-50.6,23.9l77,163.3l50.6-23.9c0,0-23.8-50.5-31.5-66.9c11-5.2,21.6-10.2,32.5-15.3c7.7,16.3,31.5,66.9,31.5,66.9l50.6-23.9
		l-77-163.3L618.9,128.8z"/>
	<path class="st0" d="M790.1,230c-2.5-12.2-4.9-24.5-7.4-36.7c15.6-3.2,57.1-11.5,57.1-11.5l-7.3-36.3c0,0-41.5,8.4-57.1,11.5
		c-2.3-11.1-4.1-20.4-6.4-31.5c16.2-3.3,60.6-12.3,60.6-12.3L822.3,77L809,79.6l-102.2,20.7l35.7,177L859,253.8l-7.3-36.3
		C851.6,217.5,806.4,226.6,790.1,230z"/>
	<path class="st0" d="M955.2,72.8l-55.9-1.2L899,85.1l-3.5,167l117.5,2.4l0.8-39.1c0,0-45.1-1-61.6-1.3
		C952.7,192.1,955.2,72.8,955.2,72.8z"/>
	<path class="st0" d="M1136.6,163.8c-14.5-10.7-18.8-14.9-17.3-20.8c0.7-3,4-12.7,14.4-10.1c6.3,1.6,12.5,4.9,15.3,18.4l3.1,15
		l37-12.5l-2.3-11.7c-4.5-22.9-23.9-42.3-48.1-48.4c-17.4-4.3-34.8-2-49.1,6.6c-13.1,7.9-22.4,20.3-26,35
		c-9.3,37,15.7,54.8,32.2,66.6c16.9,12.1,21.2,16.8,18.6,26.9c-0.8,3.2-2.7,5.7-5.6,7.4c-3.4,2-7.6,2.7-11.1,1.8
		c-8.8-2.2-12.7-6.4-16.5-17.9l-4.5-13.8l-37.1,15.2l3.6,11.8c6.9,22.9,23.5,37.3,50.7,44.1c30.5,7.6,67.6-6.4,76.7-43.1
		C1180.3,195.9,1154,176.6,1136.6,163.8z"/>
	<path class="st0" d="M1270.2,260.2c14.2,7.2,52,26.3,52,26.3l16.7-33c0,0-37.8-19.1-52-26.3c5.1-10.1,9.4-18.6,14.5-28.7
		c14.7,7.5,55.2,27.9,55.2,27.9l16.7-33l-105.1-53.1l-6.1,12.1l-75.4,149.1l106,53.5l16.7-33c0,0-41.2-20.8-56-28.3
		C1258.9,282.5,1264.6,271.2,1270.2,260.2z"/>
	<path class="st0" d="M1479.5,277l-168.5,87.2l32.2,28c0,0,27.8-14.8,37.9-20.1c7.5,6.5,18.6,16.2,26,22.6
		c-3.6,10.7-13.9,41-13.9,41l44.4,38.6l72-212.4L1479.5,277z"/>
</g>
<g>
	<path class="st2" d="M510.5,328.3l-19.8,5.4l1.4,4.5c6.3,19.8,0.6,40.6-14.9,54.1c-8.9,7.8-19.3,11.4-30.8,10.6
		c-16.3-1.1-33.6-10.9-47.5-26.8c-16-18.3-23.9-36.3-22.8-52.3c0.8-12.1,6.7-23,17.6-32.5c14.3-12.5,32.2-10.2,47.9-7.1l4.3,0.8
		l4.4-18.8l-4.3-1.1c-25-6.2-51-0.1-69.5,16.1c-36.7,32.1-39.6,84.6-6.8,122.1c30.4,34.7,83,38.5,117.3,8.5
		c24.9-21.8,33.3-48.5,24.8-79.2L510.5,328.3z"/>
	<path class="st2" d="M622.7,136.9l-30.2,14.3c0,0,25.4,54,28.8,61.1c-6.5,3.1-42.4,20-48.9,23c-3.3-7.1-28.8-61.1-28.8-61.1
		l-34.3,16.2l69.3,147l34.3-16.2c0,0-28.1-59.7-31.5-66.9c6.5-3.1,42.4-20,48.9-23c3.4,7.2,31.5,66.9,31.5,66.9l34.3-16.2l-69.3-147
		L622.7,136.9z"/>
	<path class="st2" d="M783,240.6c-1.4-7.1-9.5-47.3-11-54.4c7.5-1.5,57.1-11.5,57.1-11.5l-3.7-18.6c0,0-49.6,10-57.1,11.5
		c-1.4-6.9-8.5-42.3-9.9-49.2c7.6-1.5,60.6-12.2,60.6-12.2l-3.8-18.6l-4.4,0.9l-93.4,18.8l32.2,159.3l98.7-19.9l-3.7-18.6
		C844.6,228.1,790.6,239,783,240.6z"/>
	<path class="st2" d="M946,81.6l-37.9-0.8l-0.1,4.5l-3.3,158l99.5,2.1l0.5-21.1c0,0-53.9-1.1-61.6-1.3
		C943.2,214.6,946,81.6,946,81.6z"/>
	<path class="st2" d="M1135.9,124.3c12.1,3,19,11.1,21.9,25.3l1,5l19.8-6.7l-0.8-3.9c-3.9-19.5-20.5-36.1-41.5-41.4
		c-15-3.8-30.1-1.8-42.3,5.6c-11,6.6-18.8,17.1-21.9,29.4c-7.8,31,12.5,45.5,28.7,57.1c16.5,11.8,26.3,19.8,22.2,36.5
		c-1.7,6.9-6.2,10.9-9.7,13c-5.4,3.2-12.1,4.3-17.9,2.8c-11.9-3-18.1-9.4-22.8-23.8l-1.5-4.6l-20.5,8.4l1.2,3.9
		c6,19.6,20.5,32,44.3,38c26.2,6.6,58-5.3,65.8-36.5c8.2-32.7-13.4-48.5-30.7-61.3c-14.8-10.9-23.7-18.2-20.7-30.2
		C1113.2,130.1,1122.1,120.8,1135.9,124.3z"/>
	<path class="st2" d="M1297.4,186.3c6.9,3.5,55.2,27.9,55.2,27.9l8.6-16.9l-89-45l-2,4l-71.3,141.1l89.9,45.4l8.6-16.9
		c0,0-49.1-24.8-56-28.3c3.2-6.4,21.7-43,25-49.5c6.8,3.5,52,26.3,52,26.3l8.6-16.9c0,0-45.2-22.8-52-26.3
		C1277.9,224.8,1294.2,192.6,1297.4,186.3z"/>
	<path class="st2" d="M1483.6,285L1327,366.1l17.5,15.2c0,0,33.2-17.6,37.9-20.1c3.9,3.4,31.4,27.4,35.3,30.7
		c-1.7,5-14,40.9-14,40.9l29.7,25.8l60.5-178.5L1483.6,285z M1400.6,351.9c7.4-3.8,26.3-13.7,37.9-19.6
		c-4.3,12.3-11.3,32.5-14.1,40.3C1418.3,367.3,1406.6,357.1,1400.6,351.9z"/>
</g>
<path class="st3" d="M1374.3,905.6c-12.8-34-57.1-48.8-98.9-33c-17.5,6.6-31.7,17.5-41.5,30.5c27.6-78.8,140.1-95.5,140.1-168.8
	c0-122.9-174.5-88.4-149.1,0c0-40.1,63.9-47.5,63.9,0c0,47.5-111.4,78.6-111.4,158.9c0,88.5,88.5,96.6,79.5,177.5
	c-1.5,14-16.5,32.3-38.2,32.3c-135.5,0-87.2-166.8-134.5-217.6l2.4-34.3c27.4,16.8,100.1-22.5,52.3-82.5c0,29.5-61.4,27.9-61.4-27.8
	c0-75.4,70.5-36,73.9-19.4c-3.4-27.4-4.7-44.9-0.1-60.7c-38,12.2-41.5-9.7-36.7-18.2c5.5-9.8,12.9-21.3,27.7-21.3
	c8,0,12.8,1.1,15.7,3.1c4.7,3.3,8.2-4.2,7.5,2.7c4.1-6.2,2.4,1.5,6.4-4.7c4-6.2,9.3-13.1,18.8-22.4l-0.4-13.9l11.1,4.1l10.6-17.2
	c-11.5-23.7-27-12.3-38.5-41.8c-9.6-2.5-158.9,13.7-154.5-45.8c-12.2,0-41,6.7-23.1,30.9c-13.9,1.7-23.9-14.1-44.8,28.5
	c26.2-4.9,12.6,24.4,12.6,32.7c0,54-71.8,53.1-71.8,27.8c-17.3,16.8-7.5,53.6,18.7,62.7c0,0-10,39.4-34.6,64.3
	c-36.5-1.4-95.1-7.8-128.8-39.6c-14.5-13.7-26.1-21.2-35.9-25v-17.9c14.4-7,30.2-19.5,46.6-40.3c12.8-15.6,19.7-35.7,17.8-56.9
	c-0.2-2.5-0.6-5-1.1-7.5c-0.1-0.8-0.3-1.5-0.5-2.3c-0.4-1.7-0.8-3.4-1.3-5.1c-0.2-0.8-0.5-1.7-0.7-2.5c-0.5-1.7-1.2-3.3-1.8-4.9
	c-0.3-0.7-0.5-1.4-0.8-2c-0.9-2.1-1.9-4.2-3-6.3c-0.4-0.8-0.9-1.6-1.4-2.4c-0.7-1.2-1.5-2.5-2.3-3.7c-0.6-1-1.3-1.9-2-2.9
	c-0.7-0.9-1.4-1.9-2.1-2.8c-0.8-1-1.6-2-2.4-3c-0.6-0.6-1.2-1.2-1.8-1.9c-2.1-2.3-4.4-4.5-6.8-6.6c-0.2-0.2-0.4-0.4-0.7-0.6
	c-1.4-1.1-2.8-2.2-4.2-3.3c-0.4-0.3-0.7-0.5-1.1-0.8c-1.5-1.1-3.1-2.1-4.7-3.1c-0.1-0.1-0.2-0.1-0.3-0.2
	c-15.3-9.4-33.9-14.3-53.5-12.8c-47.1,3.7-82.2,43.2-78.2,88c3.1,34.9,28.8,62.8,62.3,71.7c-11.8,6.6-21.7,10.3-23.9,10.3
	c0.4,0.2,0.9,0.5,1.4,0.9c0.1,0.1,0.3,0.2,0.4,0.3c0.5,0.3,1,0.6,1.6,0.9c0.1,0.1,0.3,0.2,0.4,0.2c0.7,0.4,1.5,0.8,2.4,1.2
	c0.1,0.1,0.3,0.1,0.4,0.2c0.8,0.4,1.6,0.7,2.4,1.1c0.2,0.1,0.5,0.2,0.7,0.3c2.1,0.8,4.4,1.6,6.9,2.3c0.3,0.1,0.7,0.2,1,0.3
	c1,0.3,2.1,0.5,3.1,0.7c0.4,0.1,0.7,0.1,1.1,0.2c1.4,0.3,2.8,0.5,4.2,0.7c0.1,0,0.2,0,0.3,0v10.2c-0.5,0.1-1,0.2-1.5,0.3
	c-15.3,2.5-25.3,7.2-29.8,20.9c-4.5,13.7,0.1,18.7,7.3,28.3c-6.1,10.8-22,14.9-1.2,38.9c-1.5,9,0.4,23.4,13.6,27.8
	c4.3,1.4,7.9,2.2,11.7,2.9l0,179.6c-13.1,7-19.6,15.6-23.2,23.7c0,0-10.5-23.4-9.8,22.9c12-9.3,7.2,10.8,7.2,10.8
	c-16.3,21.1,4.4,20,4.4,20c14-14,11.2,6.3,11.2,6.3c0,24.9,10.1,34.6,10.2,34.7l0,136.8l-11.9,0l0.1,37.8l20.9-0.1
	c-11.7,4.9-19.4,16.4-18.3,29.2c1.4,16.1,16.3,28.1,33.2,26.8c16.9-1.4,29.5-15.5,28.1-31.6c-1-11.1-8.3-20.2-18.4-24.4l19.2,0
	l-0.1-37.7l-11.5,0l0-121.4c2.4,1.2,5,2.2,7.7,2.8c1.1,0.2,2.2,0.4,3.4,0.5c0.5,0.1,1,0.1,1.5,0.1c-3.1-16,6.4-26.5,6.4-26.5
	c4.9-7.4,12-13.1,20-17.1c24.1-12.1,57-9,66.8,10.6c62.2-16.4,115.8-79,115.8-79l30.7,52.2c-65,21.7-206.5,144.8-108.3,187.4
	c-0.1,12.4-1.7,104.4-60.7,97.1c-85-10.5-106.2,24.7-89.9,64.2c-7.7,33.4,18,44.9,18,44.9c-3.9-19.3,5.4-35.2,40.6-35
	c-0.2,35.1,22.5,41.4,22.5,41.4c0.2-30.1,21.1-41.2,39.6-41.1c-0.1,24.8,28.7,34.2,28.7,34.2s-7.3-28.5,25.3-34.2
	c82.4-14.4,5-99.2,130.3-122.5c0,0-62.4-9.4-62.4-43.6c0-31,56.5-52.3,75.9-52.3c39.9,76.2,83.3,76.8,94.6,77.4
	c17.7,19.7,11.7,86.2-13.7,84.9c-93.4-5-89.9,51.8-79.5,63.4c-1.2,22.1,15.9,34.8,15.9,34.8c0-23.6,22.5-30.2,51.3-28.7
	c-1.5,28.8,16.9,33.2,16.9,33.2c0.5-29,22-34,37.3-33.2c-1.1,20.4,19.1,26.4,19.1,26.4s-2-25.9,25.2-25.9
	c51.6,0-23.3-110.6,77.4-220c-88.5,40.9-135.6-61.4-135.6-81.1c45.5,53.2,192.9,63.9,192.9-27c0-86.8-95.5-119.2-50.8-152.4
	c26-19.3,77.1,19.7,47.8,60C1363.8,980.2,1387.2,939.6,1374.3,905.6z M808.8,908.3c-33.3,19.6-55.7,44.4-86.1,55.3
	c-4.6,1.6-8.3,2.1-11.5,1.9l0-169.5c8.1,0.8,29,3.6,53.4,13.7c24.2,13.2,24.2,40.5-6.4,47c19.3,37,86.2,18.9,100.8-11.2
	c7.1-0.6,13.5,12.1,19.4,24.2C869.1,874.5,849.8,884.2,808.8,908.3z M1182.2,627.4c-3.6,5-7.3,9.9-10.4,14.2
	c8.4,14.1,24.3,22.9,41.8,21.2c24.1-2.3,41.9-23.7,39.6-47.8c-0.1-0.9-0.3-1.7-0.4-2.5c-2.5,12.5-17.3,23.1-36,24.8
	C1202.5,638.6,1189.7,634.5,1182.2,627.4z"/>
<path id="body" class="st1" d="M643.2,525.4c0,0,0,0.1,0,0.1h0c0.4-0.9,0.8-1.8,1.2-2.7C644,523.7,643.6,524.5,643.2,525.4z
	 M644.8,1236.3c0,0,0.1,0,0.1-0.1L644.8,1236.3C644.8,1236.2,644.8,1236.2,644.8,1236.3z M643.7,453L643.7,453L643.7,453L643.7,453z
	 M631,1232.1l20.9-0.1c-2.5,1.1-4.8,2.5-6.9,4.1c2.1-0.8,4.3-1.2,6.6-1.2c10.5,0,18.9,8.5,18.9,18.9c0,10.5-8.5,18.9-18.9,18.9
	c-8.5,0-15.5-5.6-18-13.2v1.7c1.4,16.1,16.3,28.1,33.2,26.7c16.9-1.3,29.5-15.5,28.1-31.6c-1-11.1-8.3-20.2-18.4-24.4l19.2-0.1
	l-0.1-37.7l-11.5,0v-121.4c-11.2-5.8-17.7-18.5-15.2-31.5c7.2,0,13.6,1.8,17.9,4.8c-6.6,14.6,9.9,30.1,9.9,30.1
	c-3.1-16,6.4-26.5,6.4-26.5c4.9-7.4,12-13.1,20-17.2c24.1-12.1,57-9,66.8,10.6c62.3-16.4,115.8-79,115.8-79l30.7,52.1
	c71.8,0,46.9-53.8,42.2-58.6c16.5,0,39.8,12.2,39.8,39.2c0,66.2-192.4,75.6-192.4,156c0,33.7,33.4,46.6,33.4,46.6
	c0,73.2-50.3,116.8-84.7,116.8c-55,0-97.1-11.1-97.1,48.8h19.2c-18.2,18.2-1.2,44.9-1.2,44.9c-3.9-19.2,5.4-35.2,40.5-35l21.9,0
	c-13.9,13.9-5.8,35.1,0.6,41.4c0.2-30.1,21-41.2,39.6-41.1c6.7,0,15.9,0,15.9,0c-4.3,4.3,2.6,24.1,12.8,34.2c0,0-7.3-28.5,25.2-34.2
	c82.4-14.4,5-99.1,130.3-122.5c0,0-62.4-9.4-62.4-43.6c0-31,56.5-52.3,75.9-52.3c15.3-2.2,29.8-1.6,42.4,1
	c5,49.2,61.6,46.8,73.9,46.8c47.9,47.9-12.1,124.9-12.1,124.9c-73.6,0-102.7,10.2-102.7,53h13.9c-7.8,7.8-3.3,29.4,2,34.8
	c0-23.6,22.5-30.2,51.3-28.7h15.2c-7.4,7.4-6.1,25.3,1.7,33.2c0.5-29,22-34,37.3-33.2h12.6c-4.7,4.7,0,19.9,6.5,26.4
	c0,0-2-25.9,25.2-25.9c51.6,0-23.3-110.6,77.4-220c-88.5,40.9-135.6-61.4-135.6-81.1c45.5,53.2,192.9,63.9,192.9-27
	c0-73.3-68-107.8-62.4-136.7c2-22.1,20.6-39.5,43.3-39.5c24,0,43.4,19.4,43.4,43.4c0,18.3-11.3,33.9-27.2,40.3c0,0,0,0,0.1,0
	c-0.1,0-0.1,0.1-0.1,0.1c41.9-15.5,65.3-56.1,52.4-90.1c-12.8-34-57.1-48.8-98.9-33.1c-17.5,6.6-31.7,17.5-41.5,30.5
	c27.6-78.8,140.1-95.5,140.1-168.8c0-122.9-174.5-88.5-149.1,0c0-1.3,0.1-2.6,0.2-3.9c4.5-50,93.8-60.2,93.8,4.9
	c0,55.7-114.4,86.6-114.4,161.5c0,77,84.6,96.2,84.6,177.2c0,9.6-5.1,51.2-61.3,51.2c-54.2,0-80.3-30.3-95.1-69.9c0,0,0,0,0,0
	c-27.6-53.3-17.5-136.6-48.6-169.9l2.5-34.3c27.4,16.8,100-22.5,52.3-82.5c0,29.5-61.4,27.8-61.4-27.8c0-75.4,70.4-36,73.9-19.4
	c-3.4-27.4-4.7-44.9-0.1-60.7c-38,12.2-41.5-9.7-36.8-18.2c5.5-9.8,12.9-21.3,27.7-21.3c21.3,0,20,7.8,18.9,18.9
	c8.2-12.3,10.5-21.6,29.5-40.2l-0.4-14l11.1,4.1l10.7-17.2c-11.5-23.8-27-12.3-38.5-41.8c-9.6-2.5-135-14.1-130.7-73.6
	c-11.1,0-41.3,38.3-20.9,58.7c0,0-16.2,0-26.1,0c-13.9,1.7-46.4-8.1-67.3,34.5c51.4-51.4,84.8,71.2-9.9,71.2v0h0
	c-14,0.1-25.9-5.8-26.8-15.6c-9.4,41.4,50.2,54.3,50.2,54.3c0,12.3-29.9,78.8-44.4,93.3c9.8,9.8,12.8,68.9-32.4,68.9
	c16.3-44.1-31.7-81.5-78.2-106.2c0,0,0,0,0,0c-8.4-3.2-16.5-7.1-23.9-11.8h0c-28.6-13.1-51.9-20.4-51.9-20.4v-16.7v-17.9
	c14.4-7.1,30.2-19.5,46.5-40.4c12.8-15.6,19.7-35.6,17.8-56.9c-0.2-2.5-0.6-5-1.1-7.5c-0.1-0.8-0.3-1.5-0.5-2.3
	c-0.4-1.7-0.8-3.4-1.3-5.1c-0.2-0.8-0.5-1.6-0.8-2.5c-0.5-1.7-1.2-3.3-1.8-4.9c-0.3-0.7-0.5-1.3-0.8-2c-0.9-2.1-2-4.2-3-6.2
	c-0.4-0.8-0.9-1.6-1.4-2.4c-0.7-1.2-1.5-2.4-2.3-3.6c-0.6-1-1.3-1.9-2-2.9c-0.7-0.9-1.4-1.9-2.1-2.8c-0.8-1-1.6-2-2.4-3
	c-0.6-0.6-1.2-1.3-1.7-1.9c-2.2-2.3-4.4-4.5-6.9-6.6c-0.2-0.2-0.4-0.4-0.7-0.6c-1.4-1.1-2.8-2.2-4.2-3.3c-0.4-0.3-0.8-0.6-1.1-0.8
	c-1.5-1.1-3.1-2.1-4.7-3.1c-0.1,0-0.2-0.1-0.3-0.2c-15.3-9.4-33.9-14.3-53.4-12.8c-4.2,0.3-8.3,1.1-12.4,2
	c-27.1,10.4-46.9,42.2-46.9,79.8c0,35.4,17.5,65.6,42.3,77.7c0.4,0.1,0.7,0.2,1,0.3c-11.8,6.6-21.7,10.3-24,10.3
	c0.4,0.2,0.9,0.5,1.4,0.9c0.1,0.1,0.3,0.1,0.4,0.2c0.5,0.3,1,0.6,1.6,0.9c0.1,0.1,0.3,0.2,0.4,0.2c0.7,0.4,1.5,0.8,2.4,1.2
	c0.1,0.1,0.3,0.1,0.4,0.2c0.7,0.4,1.5,0.7,2.4,1c0.2,0.1,0.5,0.2,0.7,0.3c2.1,0.8,4.4,1.6,6.9,2.3c0.3,0.1,0.7,0.2,1,0.3
	c1,0.3,2,0.5,3.1,0.7c0.4,0.1,0.7,0.2,1.1,0.2c1.4,0.3,2.8,0.5,4.2,0.7c0.1,0,0.2,0,0.3,0.1c9,0.8,19.6-1.5,19.6-1.5V649
	c-1.6,0-15.7-4.6-19.6-8.4c-0.5,0.1-1,0.2-1.5,0.3c-15.3,2.5-25.3,7.2-29.8,20.9c-4.5,13.7,0.1,18.7,7.3,28.3
	c-6.1,10.8-22,14.9-1.2,38.9c-1.5,9,0.4,23.5,13.6,27.8c4.3,1.4,7.9,2.2,11.7,2.9c7.8,0,19.6,6.5,19.6,22.7v154.4
	c7.1,0.4,14.8,1.4,21.8,2V769c8.1,0.8,29,3.6,53.4,13.7c0.3,0.1,0.5,0.3,0.7,0.5c0,0,0,0,0-0.1c2.2,0.3,4.5,0.7,6.7,1.4
	c16.3,5,26.4,19.1,22.6,31.6c-3.8,12.5-20.1,18.5-36.3,13.6c19.3,37,86.2,18.9,100.8-11.2c7.1-0.7,13.4,12.1,19.4,24.1
	c0,0,16.8,6.4,58.3,6.4c0,0-168.1,107.3-216.7,107.3c-20.8,0-66.8,0-66.8,15.7c-12.7,0-30.9,21.5-30.9,33.8
	c12-9.3,21.7-9.3,21.7-9.3c10.2,0,15.9,3,15.9,3c-3.7,3.7-20.5,22.6-20.5,37.3c14.1-14,20.2-14,20.2-14s14.7-1.9,19.9,3.4
	c-3.5,3.5-9.7,16.3-9.7,31.3c0,0,8.7-16.8,19.6-16.8v161.3c0,5-22.3,9.7-31.4,9.7 M637.8,744c-4.1,0.2-6.1-5.2-6.1-7.2
	c-0.1-2,1.5-7.5,5.6-7.6c9.8-0.4,29.5,4.4,29.6,6.3C666.9,737.5,647.7,743.6,637.8,744z M631.5,717.4c-5.7-0.4-7.6-8.1-7.4-10.8
	c0.2-2.7,3.2-10.1,8.9-9.6c13.6,1,40,10.5,39.8,13.2C672.6,712.9,645.1,718.4,631.5,717.4z M629.1,683.3c-6.1-1.6-6.5-10.2-5.8-13.1
	c0.8-2.9,5.4-10.2,11.5-8.6c14.4,3.8,40.9,19.3,40.2,22.1C674.2,686.5,643.6,687,629.1,683.3z M673.7,587.1c2.5-6,2-14.1,0.4-21.8
	c-0.3,0-0.5,0-0.8,0c-17.3,0-31.4-14-31.4-31.4c-0.3-3,0.2-5.8,1.2-8.5l0,0h0c0-0.1,0-0.1,0-0.1c3.7-13.1,15.8-22.8,30.2-22.8
	c17.3,0,31.4,14,31.4,31.4C704.8,554,690.7,572.4,673.7,587.1z"/>
<path id="tongue" class="st4" d="M1144.7,614.5c8.4,14.1,24.3,22.9,41.8,21.2c24.1-2.3,41.9-23.7,39.6-47.8
	c-0.1-0.8-0.2-1.7-0.4-2.5c-2.5,12.5-17.3,23.1-36,24.8c-14.2,1.3-27-2.8-34.5-9.9C1151.5,605.3,1147.8,610.3,1144.7,614.5z"/>
<path id="eye" class="st2" d="M1086.1,533.2l15.2,0.8l-7.6,10.4C1093.7,544.4,1083.6,547.6,1086.1,533.2z M1049.9,533.2h21.9
	c0,0-0.8,17.6,15.1,19.2l-3.4,5.6C1083.6,557.9,1040.7,546.8,1049.9,533.2z"/>
<path id="highlights" class="st5" d="M675,683.7c0.7-2.8-25.8-18.3-40.2-22.1c-6.1-1.6-10.7,5.7-11.5,8.6
	c-0.7,2.9-0.3,11.5,5.8,13.1C643.6,687,674.2,686.5,675,683.7z M672.8,710.1c0.2-2.7-26.2-12.2-39.8-13.2c-5.7-0.4-8.7,6.9-8.9,9.6
	c-0.2,2.7,1.7,10.4,7.4,10.8C645.1,718.4,672.6,712.9,672.8,710.1z M642.8,630.4v10.1c3.9,3.9,18,8.4,19.6,8.4v-20.1
	C662.4,628.9,651.8,631.2,642.8,630.4z M637.3,729.2c-4.1,0.1-5.7,5.7-5.6,7.6c0,2,2,7.3,6.1,7.2c9.8-0.4,29.1-6.5,29.1-8.5
	C666.8,733.6,647.1,728.9,637.3,729.2z M617,996.5c-16.3,21.1-4.6,40.3-4.6,40.3c0-14.7,16.8-33.6,20.5-37.3
	C632.9,999.6,627.2,996.5,617,996.5z M669,1041.3c-2.5,13,4,25.7,15.2,31.5c2.4,1.2,5,2.2,7.7,2.8c1.1,0.2,2.2,0.4,3.4,0.5
	c0.5,0,1,0,1.5,0.1c0,0-16.5-15.4-9.9-30.1C682.6,1043.2,676.2,1041.3,669,1041.3z M639.2,610.5c-24.7-12.1-42.3-42.3-42.3-77.7
	c0-37.6,19.7-69.4,46.9-79.8c-40.7,9-69.5,45.2-65.9,86C580.9,573.6,606.2,601.3,639.2,610.5z M901.4,523.8
	c26.2-4.9,35.1,18.4,35.1,26.7c0,31.6-24.6,44.4-45,44.5v0C986.2,594.9,952.8,472.4,901.4,523.8z M838.2,795.7
	c45.2,0,42.2-59.1,32.4-68.9c14.5-14.5,44.4-81,44.4-93.3c0,0-59.7-12.9-50.2-54.3c0,0,0,0,0-0.1L864,579
	c-16.3,17.2-6.4,53,19.4,61.9c0,0-10,39.4-34.6,64.3c-24.5-1-58.8-4.2-88.9-15.7C806.5,714.2,854.5,751.6,838.2,795.7z M661.5,512.1
	c11.7-0.9,22,7.4,23,18.5c1,11.1-7.7,21-19.4,21.9c-11.7,0.9-22-7.4-23-18.5c0,17.3,14,31.4,31.4,31.4c0.3,0,0.5,0,0.8,0
	c1.6,7.7,2.1,15.8-0.4,21.8c16.9-14.7,31-33.1,31-53.2c0-17.4-14.1-31.4-31.4-31.4c-14.4,0-26.5,9.7-30.2,22.9
	C645.9,518.2,652.8,512.8,661.5,512.1z M994.8,489.2c-20.4-20.5,9.8-58.7,20.9-58.7c-12.2,0-64.8,34.5-47,58.7
	C978.6,489.2,994.8,489.2,994.8,489.2z M731.3,829.7c16.3,5,32.5-1.1,36.3-13.6c3.8-12.5-6.3-26.6-22.6-31.6
	c-2.3-0.7-4.5-1.1-6.7-1.4C761.8,796.5,761.5,823.3,731.3,829.7z M684.2,657.3c0,0,23.3,7.4,51.9,20.4c-5.7-3.6-11.1-7.6-16-12.1
	c-14.5-13.7-26.1-21.2-35.9-25V657.3z M693,956.4c48.6,0,216.7-107.3,216.7-107.3c-41.5,0-58.3-6.4-58.3-6.4
	c-9.4,4.9-28.6,14.5-69.6,38.7c-33.3,19.7-55.7,44.5-86.1,55.3c-4.6,1.7-8.3,2.1-11.5,1.9c-7-0.6-14.7-1.6-21.8-2V782.2
	c0-16.2-11.8-22.7-19.6-22.7v179.6l0,0c-13.2,7-19.6,15.6-23.2,23.7c0,0-25-3.3-24.3,43c0-12.3,18.2-33.8,30.9-33.8
	C626.2,956.4,672.3,956.4,693,956.4z M1112.2,1204.8c-12.2,0-68.8,2.4-73.9-46.8c-12.5-2.7-27.1-3.3-42.4-1
	c39.9,76.2,83.3,76.8,94.6,77.4c17.7,19.7,11.7,86.2-13.7,84.9c-93.4-5-90,51.8-79.5,63.4c0-42.9,29.1-53,102.7-53
	C1100.1,1329.7,1160.2,1252.7,1112.2,1204.8z M1131.5,1388.8h-12.6c-1.1,20.4,19.1,26.4,19.1,26.4
	C1131.5,1408.7,1126.7,1393.5,1131.5,1388.8z M1013.3,1417.4c-5.4-5.4-9.8-26.9-2-34.8h-13.9
	C996.2,1404.8,1013.3,1417.4,1013.3,1417.4z M1292,708.3c0-65.2-89.4-54.9-93.8-4.9c3.9-36.7,63.7-42.1,63.7,3.9
	c0,47.5-111.4,78.6-111.4,158.9c0,88.5,88.5,96.7,79.5,177.5c-1.5,14-16.5,32.3-38.2,32.3c-46.6,0-71.5-19.7-85.9-47.7
	c14.8,39.6,40.8,69.9,95.1,69.9c56.2,0,61.3-41.6,61.3-51.2c0-81-84.6-100.2-84.6-177.2C1177.6,794.9,1292,764,1292,708.3z
	 M632.6,1022.9c0,25,10.2,34.7,10.2,34.7c0-15,6.2-27.8,9.7-31.3C647.3,1021,632.6,1022.9,632.6,1022.9z M1278.8,884.9
	c-22.7,0-41.3,17.4-43.3,39.5c1-5.3,4.6-10.5,11.5-15.7c26-19.3,76.9,19.6,47.9,59.8c16-6.4,27.2-22,27.2-40.3
	C1322.2,904.3,1302.7,884.9,1278.8,884.9z M1079.8,1388.8h-15.2c-1.5,28.8,16.9,33.2,16.9,33.2
	C1073.7,1414.1,1072.5,1396.1,1079.8,1388.8z M651.5,1234.9c-2.3,0-4.5,0.5-6.6,1.2c-7.2,5.6-11.6,14-11.3,23.4
	c2.4,7.7,9.5,13.2,18,13.2c10.5,0,18.9-8.5,18.9-18.9C670.4,1243.4,662,1234.9,651.5,1234.9z M758,1375l-21.9,0
	c-0.2,35.2,22.5,41.5,22.5,41.5C752.2,1410,744.1,1388.9,758,1375z M826,1152.8c0-80.3,192.4-89.8,192.4-156
	c0-27-23.3-39.2-39.8-39.2c4.7,4.7,29.7,58.6-42.2,58.6c-65,21.7-206.5,144.8-108.3,187.4c-0.1,12.4-1.7,104.4-60.7,97.2
	c-85-10.5-106.2,24.7-89.9,64.2c0-60,42.1-48.8,97.1-48.8c34.4,0,84.7-43.5,84.7-116.8C859.4,1199.4,826,1186.6,826,1152.8z
	 M662.4,1202.1v-161.3c-10.9,0-19.6,16.8-19.6,16.8v137.6l0-0.9l-11.9,0l0.1,17.4C640.1,1211.7,662.4,1207,662.4,1202.1z
	 M695.5,1410c0,0-17-26.7,1.2-44.9h-19.2C669.9,1398.4,695.5,1410,695.5,1410z M814.1,1375.3c0,0-9.1,0-15.9,0
	c-0.1,24.8,28.7,34.2,28.7,34.2C816.8,1399.4,809.8,1379.6,814.1,1375.3z"/>
<path class="st2" d="M1596.1,745.6L1596.1,745.6L1596.1,745.6z"/>
<path class="st2" d="M279.1,1107.5l-1.1-3.3l-0.5-3.4c-1.5-11.6-4.3-33.2-21-37.1c-4.5-1-9.1-0.5-14,1.5c1.3-5.1,1.2-9.8-0.5-14
	c-6.1-16-27.9-15.8-39.6-15.7H199l-3.4-0.6c-11.5-2.1-32.9-6.1-41.7,8.6c-2.3,3.9-3.3,8.5-2.9,13.7c-4.5-2.8-8.9-4.1-13.5-3.9
	c-17.1,0.9-23.6,21.7-27.2,32.8l-1.1,3.3l-1.6,3c-5.6,10.3-16,29.4-4.8,42.3c3,3.4,7,5.8,12.2,7c-4.1,3.4-6.7,7.2-7.9,11.6
	c-4.5,16.5,13.3,29.2,22.8,35.9l2.8,2.1l2.4,2.4c8,8.5,23,24.3,38.8,17.6c4.2-1.8,7.6-4.9,10.4-9.4c2,4.9,4.8,8.6,8.6,11.1
	c14.4,9.3,31.8-3.6,41.3-10.6l2.8-2l3.1-1.5c10.6-5,30.2-14.4,28.8-31.5c-0.4-4.5-2.3-8.8-5.7-12.8c5.3-0.3,9.6-1.9,13.2-4.8
	C289.7,1139.2,282.8,1118.6,279.1,1107.5z"/>
<path class="st4" d="M204.1,1121.3c95.8,56.6,66.3-5.7,64.2-14.8C266.1,1097.3,265.3,1028.4,204.1,1121.3z"/>
<path class="st4" d="M198,1135.5c-24.2,108.6,25.9,61.3,33.9,56.5C240.1,1187.1,305.3,1165,198,1135.5z"/>
<path class="st4" d="M182.7,1134.1c-110.8,10.5-50.3,43.6-43.2,49.7C146.6,1190,187.7,1245.3,182.7,1134.1z"/>
<path class="st4" d="M179.2,1119.1c-44.2-102.1-57-34.4-60.7-25.7C114.9,1102,75,1158.2,179.2,1119.1z"/>
<path class="st2" d="M1761.6,1092.5l-1.6-3l-1.1-3.3c-3.5-11.2-10-32-27.1-32.8c-4.6-0.2-9,1.1-13.5,3.9c0.4-5.3-0.5-9.8-2.9-13.7
	c-8.8-14.7-30.2-10.7-41.7-8.6l-3.4,0.6h-3.4c-11.7-0.1-33.5-0.3-39.6,15.7c-1.6,4.3-1.8,8.9-0.5,14c-4.9-2-9.5-2.5-13.9-1.5
	c-16.7,3.8-19.5,25.5-21,37l-0.5,3.4l-1,3.3c-3.7,11.1-10.6,31.8,2.7,42.5c3.5,2.9,7.9,4.4,13.2,4.8c-3.4,4-5.3,8.3-5.7,12.8
	c-1.5,17.1,18.2,26.4,28.7,31.5l3.1,1.5l2.8,2c9.4,7,26.9,19.9,41.3,10.6c3.8-2.5,6.7-6.2,8.6-11.1c2.8,4.5,6.2,7.6,10.4,9.4
	c15.8,6.7,30.7-9.1,38.8-17.6l2.4-2.4l2.8-2.1c9.5-6.8,27.3-19.4,22.8-35.9c-1.2-4.4-3.8-8.3-7.9-11.6c5.2-1.2,9.2-3.6,12.2-7
	C1777.6,1121.9,1767.2,1102.8,1761.6,1092.5z"/>
<path class="st4" d="M1676.9,1111.2c-83.5-73.6-15.1-64.8-5.7-65.6C1680.5,1044.7,1746.3,1024.2,1676.9,1111.2z"/>
<path class="st4" d="M1665.2,1121.3c-95.8,56.6-66.3-5.7-64.2-14.8C1603.2,1097.3,1604,1028.4,1665.2,1121.3z"/>
<path class="st4" d="M1671.3,1135.5c24.3,108.6-25.9,61.3-33.9,56.5C1629.3,1187.1,1564,1165,1671.3,1135.5z"/>
<path class="st4" d="M1686.6,1134.1c110.8,10.5,50.3,43.6,43.2,49.7C1722.8,1190,1681.6,1245.3,1686.6,1134.1z"/>
<path class="st4" d="M1690.1,1119.1c44.2-102.1,57-34.4,60.7-25.7C1754.4,1102,1794.3,1158.2,1690.1,1119.1z"/>
<path class="st2" d="M1711.6,1122.3c-0.1-0.9-0.3-1.7-0.5-2.6c8.9-6.5,18.5-13.5,18.5-13.5l-0.9-2.1c0,0-11.3,2-22,3.8
	c-5.4-8.8-14.6-14.8-25.2-15.8c-3.3-10.1-6.6-20.3-6.6-20.3l-2.3,0.2c0,0-1.5,10.7-3,21.1c-6.5,1.8-12.3,5.4-16.7,10.7
	c-2.4,2.8-4.1,6-5.4,9.3c-10.9,0-22.3,0-22.3,0l-0.5,2.2c0,0,10.6,5.2,20.5,10.1c0,0.9-0.1,1.8,0,2.7c0.8,8.7,4.8,16.5,11.4,22.2
	c-3.5,10.8-7.4,22.9-7.4,22.9l2,1.2c0,0,9-9.3,16.9-17.5c4.2,1.4,8.6,1.9,13.2,1.5c4.5-0.4,8.8-1.7,12.7-3.8
	c9.3,6.7,19.7,14.3,19.7,14.3l1.7-1.5c0,0-5.9-11.2-11.2-21.2C1709.7,1139.4,1712.3,1131,1711.6,1122.3z"/>
<path class="st4" d="M1676.7,1105.6c-5.2,0.5-10,2.9-13.3,6.9c-3.4,4-5,9.1-4.5,14.4c0.9,10.8,10.5,18.8,21.3,17.9
	c5.3-0.5,10-2.9,13.4-6.9c3.4-4,5-9.1,4.5-14.3C1697.1,1112.7,1687.5,1104.6,1676.7,1105.6z"/>
<path class="st4" d="M192.4,1111.2c83.5-73.6,15.1-64.8,5.7-65.6C188.8,1044.7,123,1024.2,192.4,1111.2z"/>
<path class="st2" d="M224,1125.4c9.9-4.9,20.5-10.1,20.5-10.1l-0.5-2.2c0,0-11.4,0-22.3,0c-1.3-3.3-3-6.5-5.4-9.3
	c-4.4-5.3-10.2-8.9-16.7-10.7c-1.5-10.5-3-21.1-3-21.1l-2.3-0.2c0,0-3.4,10.3-6.6,20.3c-10.6,1-19.8,7-25.2,15.8
	c-10.7-1.9-22-3.8-22-3.8l-0.9,2.1c0,0,9.6,7,18.5,13.5c-0.1,0.9-0.4,1.7-0.5,2.6c-0.8,8.7,1.9,17.1,7.4,23.9
	c-5.3,10-11.2,21.2-11.2,21.2l1.7,1.5c0,0,10.5-7.6,19.7-14.3c3.9,2.1,8.2,3.4,12.7,3.8c4.5,0.4,9-0.1,13.2-1.5
	c8,8.2,16.9,17.5,16.9,17.5l2-1.2c0,0-3.9-12.1-7.4-22.9c6.6-5.7,10.6-13.5,11.4-22.2C224.1,1127.2,224,1126.3,224,1125.4z"/>
<path class="st4" d="M206,1112.5c-3.4-4-8.1-6.5-13.4-6.9c-10.8-0.9-20.4,7.1-21.3,17.9c-0.5,5.2,1.2,10.3,4.5,14.3
	c3.4,4,8.1,6.5,13.4,6.9c10.8,1,20.4-7.1,21.3-17.9C211,1121.7,209.3,1116.6,206,1112.5z"/>
<g>
	<path class="st2" d="M204.6,648.2c-46.7-8.2-91.3,23.1-99.6,69.7c-8.2,46.7,23,91.3,69.7,99.5c46.7,8.2,91.3-23,99.6-69.7
		C282.6,701.1,251.3,656.5,204.6,648.2z"/>
	<g>
		<path class="st4" d="M224.1,713.2c-0.7-0.5-2.1-1.3-3.7-2.4c-7-4.6-20.8-13.8-21.2-14.1c-1.9-1.3-3.8-2.6-5.6-3.8
			c-6.1-4.1-11.6-7.7-16.8-10.7c-2-1.1-3.9-2.2-5.8-3.1c-8.2-4.2-16.1-6.7-25.4-7.5c-7.2,5.2-13.4,11.6-18.4,19
			c21.4,7.7,42.2,20.1,85.7,47.1C215.3,732,223.6,714.3,224.1,713.2z"/>
		<path class="st4" d="M204.1,759.3c0.9-2.2,4.7-11.9,6.2-15.6c-44.5-27.6-65.2-39.9-86.6-47.4c-3.3,6-5.8,12.5-7.4,19.4
			C128.5,732.5,161.2,748.9,204.1,759.3z"/>
		<path class="st4" d="M199.2,689c16.7-9.9,35.6-7.2,50.2-2.2c-5.4-7.1-12.1-13.2-19.7-18c-13.8-2.7-32.9-3.2-48.1,8.9
			C187.2,681,192.9,684.8,199.2,689z"/>
		<path class="st4" d="M132.7,768.6c2.2,1.6,4.5,3,6.9,4.3c4.9,2.7,10.2,5.1,15.7,7.1c2.3,0.9,4.7,1.7,7.1,2.5
			c8.3,2.7,27.5,7.7,28.9,8.1c0.3-0.8,7.5-18.5,10.2-25.3c-33.2-8.2-69.5-22.6-86.8-41.4c-1,8.7-0.6,17.2,1.2,25.3
			C119.6,757.2,125.5,763.6,132.7,768.6z"/>
		<path class="st4" d="M192.5,797.5l-6.9-1.8c-6.4-1.6-13.4-3.5-20.5-5.6c3.4,7.4,8.9,13.1,14.7,17.6c7.8,1,15.4,0.8,22.8-0.4
			C197.3,803.1,192.5,797.5,192.5,797.5z"/>
		<path class="st4" d="M261.9,710.9c-1.6-5.2-3.6-10.1-6.3-14.8c-13.1-5.8-33-11.5-50.4-3l24,15.9c5-0.5,9.6-0.6,13.9-0.5
			c2.3,0,4.4,0.2,6.5,0.4C254.3,709.2,258.3,710,261.9,710.9z"/>
		<path class="st4" d="M249.6,715.3c-0.7,39.4-19.3,69.9-35.3,88.9c25.1-8.7,44.9-30.3,49.8-58.3c1.7-9.5,1.4-18.9-0.4-27.9
			C259.8,716.9,255.2,715.9,249.6,715.3z"/>
		<path class="st4" d="M175.7,674.4c11.2-9.9,24.5-13.3,36.7-13.5c-3.1-1-6.3-1.8-9.6-2.4c-17.4-3.1-34.5,0.2-49,8
			C161.5,668,168.5,670.7,175.7,674.4z"/>
		<path class="st4" d="M230.2,715.4c-5.7,11.9-9.1,19.2-11.9,25.8c-0.9,2-1.7,4-2.5,6c-1.3,3.3-5.4,13.6-5.4,13.6l-2.4,6.1
			l-10.6,26.3c2.9,3.9,6.5,7,9.9,9.5c15.8-18,35.4-48.2,35.9-87.7C239.3,714.8,234.9,715,230.2,715.4z"/>
		<path class="st4" d="M157.2,787.5c-5.3-1.9-10.5-3.9-15.5-6.3c1.9,5.8,4.5,10.9,7.3,15.2c5.6,3.6,11.9,6.5,18.5,8.5
			C163.1,800.1,159.4,794.4,157.2,787.5z"/>
		<path class="st4" d="M133.8,776.9c-3.6-2.1-6.9-4.5-10-7.1c3.5,6.2,7.9,12,13,17C135.7,783.6,134.6,780.4,133.8,776.9z"/>
	</g>
</g>
<g>
	<path class="st2" d="M1585.7,747.8c8.2,46.7,52.9,77.9,99.6,69.7c46.7-8.2,78-52.9,69.7-99.5c-8.2-46.7-52.9-78-99.6-69.7
		C1608.7,656.5,1577.4,701.1,1585.7,747.8z"/>
	<g>
		<path class="st4" d="M1635.9,713.2c0.7-0.5,2-1.3,3.7-2.4c7-4.6,20.8-13.8,21.2-14.1c1.9-1.3,3.8-2.6,5.6-3.8
			c6.1-4.1,11.6-7.7,16.8-10.7c2-1.1,3.9-2.2,5.8-3.1c8.2-4.2,16.1-6.7,25.4-7.5c7.2,5.2,13.4,11.6,18.4,19
			c-21.4,7.7-42.2,20.1-85.7,47.1C1644.7,732,1636.4,714.3,1635.9,713.2z"/>
		<path class="st4" d="M1656,759.3c-0.9-2.2-4.7-11.9-6.2-15.6c44.5-27.6,65.2-39.9,86.6-47.4c3.3,6,5.8,12.5,7.4,19.4
			C1731.5,732.5,1698.8,748.9,1656,759.3z"/>
		<path class="st4" d="M1660.8,689c-16.7-9.9-35.6-7.2-50.2-2.2c5.4-7.1,12.1-13.2,19.7-18c13.8-2.7,32.9-3.2,48,8.9
			C1672.8,681,1667.1,684.8,1660.8,689z"/>
		<path class="st4" d="M1727.3,768.6c-2.2,1.6-4.5,3-6.9,4.3c-4.9,2.7-10.2,5.1-15.7,7.1c-2.3,0.9-4.7,1.7-7.1,2.5
			c-8.3,2.7-27.5,7.7-28.9,8.1c-0.3-0.8-7.5-18.5-10.2-25.3c33.2-8.2,69.5-22.6,86.8-41.4c1,8.7,0.6,17.2-1.2,25.3
			C1740.4,757.2,1734.5,763.6,1727.3,768.6z"/>
		<path class="st4" d="M1667.5,797.5l6.9-1.8c6.4-1.6,13.4-3.5,20.5-5.6c-3.5,7.4-8.9,13.1-14.7,17.6c-7.8,1-15.4,0.8-22.8-0.4
			C1662.7,803.1,1667.5,797.5,1667.5,797.5z"/>
		<path class="st4" d="M1598.1,710.9c1.6-5.2,3.6-10.1,6.2-14.8c13.1-5.8,33-11.5,50.4-3l-24,15.9c-5-0.5-9.6-0.6-13.8-0.5
			c-2.3,0-4.4,0.2-6.4,0.4C1605.7,709.2,1601.7,710,1598.1,710.9z"/>
		<path class="st4" d="M1610.4,715.3c0.7,39.4,19.3,69.9,35.3,88.9c-25.1-8.7-44.9-30.3-49.8-58.3c-1.7-9.5-1.4-18.9,0.4-27.9
			C1600.2,716.9,1604.8,715.9,1610.4,715.3z"/>
		<path class="st4" d="M1684.3,674.4c-11.2-9.9-24.5-13.3-36.7-13.5c3.1-1,6.3-1.8,9.6-2.4c17.4-3.1,34.5,0.2,49,8
			C1698.5,668,1691.5,670.7,1684.3,674.4z"/>
		<path class="st4" d="M1629.8,715.4c5.7,11.9,9.1,19.2,11.9,25.8c0.9,2,1.7,4,2.5,6c1.3,3.3,5.4,13.6,5.4,13.6l2.4,6.1l10.6,26.3
			c-2.9,3.9-6.5,7-9.9,9.5c-15.8-18-35.4-48.2-35.9-87.7C1620.8,714.8,1625.1,715,1629.8,715.4z"/>
		<path class="st4" d="M1702.8,787.5c5.3-1.9,10.6-3.9,15.5-6.3c-1.9,5.8-4.5,10.9-7.3,15.2c-5.7,3.6-11.9,6.5-18.5,8.5
			C1696.9,800.1,1700.6,794.4,1702.8,787.5z"/>
		<path class="st4" d="M1726.2,776.9c3.6-2.1,6.9-4.5,10-7.1c-3.5,6.2-7.9,12-13,17C1724.4,783.6,1725.4,780.4,1726.2,776.9z"/>
	</g>
</g>
</svg>
