<?xml version="1.0" encoding="utf-8"?>
<!-- Generator: Adobe Illustrator 26.2.1, SVG Export Plug-In . SVG Version: 6.00 Build 0)  -->
<svg version="1.1" id="Layer_1" xmlns="http://www.w3.org/2000/svg" xmlns:xlink="http://www.w3.org/1999/xlink" x="0px" y="0px"
	 viewBox="0 0 200 200" style="enable-background:new 0 0 200 200;" xml:space="preserve">
<style type="text/css">
	.st0{fill:#FFFFFF;}
	.st1{fill:#0055A5;}
	.st2{fill:#EE2E24;}
	.st3{fill:#F6F6F6;}
	.st4{fill:#E4E4E4;}
	.st5{fill:#B7B7B7;}
	.st6{fill:#B9B8B8;}
	.st7{fill:#B9B8B8;stroke:#B17F4A;stroke-width:8.498800e-02;}
</style>
<g>
	<g id="Building_x2F_Tower_Key-line">
		<path class="st0" d="M75,149.8c0,0-19.7-9.9-29.3-25c0.1,13-0.6,29.3-0.6,29.3l30.2,5.9L75,149.8z"/>
		<path class="st0" d="M127.1,150c0,0,19.7-9.1,29.3-24.3c-0.1,13,0.6,28.2,0.6,28.2l-30.2,5.9L127.1,150z"/>
		<rect x="74.9" y="145.2" class="st0" width="52.3" height="23.9"/>
		<path class="st0" d="M116.7,146.9c0,8.5-6.9,15.3-15.5,15.3s-15.5-6.8-15.5-15.3c0-8.5,6.9-15.3,15.5-15.3
			S116.7,138.4,116.7,146.9z"/>
		<path class="st0" d="M38.5,154.9v-22.4l-1.3-0.5v-3l1.3-0.6v-2.1l-1.3-0.5V122l4.4-4.2v-1c0,0,0.2-0.9,1.3-0.9s1.3,0,1.3,0
			s1,0.2,1,0.9s0,1,0,1l4.5,4.2v3.6l-1.3,0.4v2.1l1.4,0.6v3.4v20.4L38.5,154.9z"/>
		<path class="st0" d="M164.1,154.9v-22.4l1.3-0.5v-3l-1.3-0.6v-2.1l1.3-0.5V122l-4.4-4.2v-1c0,0-0.2-0.9-1.3-0.9
			c-1.1,0-1.3,0-1.3,0s-1,0.2-1,0.9s0,1,0,1l-4.5,4.2v3.6l1.3,0.4v2.1l-1.4,0.6v3.4v20.4L164.1,154.9z"/>
	</g>
	<g id="Banner_Key-line">
		<path class="st0" d="M99.8,186.4c-10.9,0-17.8-3.7-25.2-7.6c-3.9-2.1-7.9-4.2-12.7-5.8c-13.3-4.5-22.2,1-22.5,1.2l-1.8-2.8
			c0.4-0.3,10.4-6.6,25.3-1.6c4.9,1.6,9.1,3.9,13.1,6.1c7.5,4.1,14.7,7.9,26.5,7.2c11-0.7,18.5-4.4,25.9-8c3.1-1.6,6.1-3,9.2-4.2
			c0.2-0.1,0.4-0.2,0.7-0.3c3.9-1.6,15.9-6.2,26.1,1.6l-2,2.6c-8.8-6.8-19.1-2.7-23-1.1c-0.3,0.1-0.5,0.2-0.8,0.3
			c-2.9,1.1-5.8,2.5-8.9,4.1c-7.3,3.6-15.4,7.6-27.1,8.3C101.8,186.3,100.8,186.4,99.8,186.4"/>
		<path class="st0" d="M158.1,180.5l-2.3-1.5c-0.5-0.3-1.9-0.5-3.3-0.3c-0.3,0-0.5,0.1-0.8,0.2c-1.1,0.3-2.6,0.6-3.7-0.3
			c-0.4-0.3-1-1.1-1-2.4c0-1,0.4-1.9,1.2-2.5c2.5-2,8.8-0.6,10.7-0.1c1.2,0.3,2.6,0.3,2.9,0.1c0.6-7,3.5-12.1,5.1-14.6
			c-11.6-7-29.3-3.2-36,1c-9.9,6.3-18.2,10.2-28.8,10.3c-9,0-16.6-3.7-24.7-7.6c-4.5-2.2-9.2-4.5-14.3-6.2
			c-10.7-3.6-23,0.4-27.7,2.3c1.7,2.3,4.3,7,4.7,13.8c0.3,0.3,1.6,0.4,2.9,0.1c1.9-0.4,8.2-1.5,10.7,0.6c0.8,0.6,1.1,1.6,1.1,2.5
			c-0.1,1.3-0.6,2-1.1,2.3c-1.1,0.9-2.6,0.4-3.7,0.2c-0.3-0.1-0.5-0.2-0.8-0.2c-1.4-0.3-2.8-0.2-3.3,0.2l-2.3,1.4l-0.1-3.8
			c-1,0.2-3.6,0.5-5.2-0.7c-0.8-0.6-1.2-1.5-1.3-2.5c-0.3-8.6-5.1-13.3-5.2-13.3l-1.6-1.6l2.1-1c0.7-0.3,17.2-8.3,32.1-3.3
			c5.3,1.8,10.1,4.2,14.7,6.4c7.7,3.7,14.9,7.3,23.1,7.3h0.1c9.8,0,17.6-3.8,26.9-9.8c7.8-4.9,28.2-9.3,41,0l1.5,1l-1.2,1.4
			c-0.1,0.1-4.7,5.5-5.5,14.1c-0.1,1-0.6,1.9-1.4,2.4c-1.6,1.1-4.3,0.7-5.3,0.4L158.1,180.5z"/>
		<path class="st0" d="M53.5,173.3c0,0-1.6-1.6-2.3-2.9c-1.3-2.3-11.8,2.3-11.8,2.3l2.9,0.6"/>
		<path class="st0" d="M147.9,173.9c0,0,1.6-1.6,2.3-2.8c1.4-2.3,11.8,2.6,11.8,2.6l-2.9,0.5"/>
		<path class="st0" d="M38.2,173.4c0,0-0.3-6.4-1.6-9.3c-1.5-2.9-2-5.7-2-5.7s8.8-4.4,14.5-4.5c5.7-0.1,19.9,2.3,24.4,4.9
			c4.4,2.4,16.4,9,22.6,10.3c6.2,1.3,16.5-0.3,22.9-2.9c6.4-2.6,10.7-7.2,13.3-8.3c2.6-1.1,11-4.2,16.6-4.7
			c5.6-0.5,12.4,1.8,16.2,2.5c3.8,0.7,3.3,2.2,3.3,2.2l-4.6,14.6c0,0-7.4-2.5-12.3-2.6c-4.9-0.2-13.3,3.6-15.9,4.5
			c-2.6,1-14,5.7-17.7,7.2c-3.6,1.5-16.1,4.8-23.1,3.2c-7.1-1.6-20.8-8.6-24.4-10.3c-3.6-1.8-16.6-6.1-18.3-5.3
			C50.1,169.9,38.2,173.4,38.2,173.4z"/>
	</g>
	<g id="Eagle_Key-line">
		<g>
			<g>
				<path class="st0" d="M160.8,33.8c-0.3-0.8-1.6-1.4-7.1-1.4c-2.2,0-4.2,0.1-4.2,0.1c-0.1,0-0.2,0-0.3,0c-3.4,0.3-6.7,1-9.5,2.3
					c3.9-4.7,10-7.6,13.6-9c0.2-0.1,0.7-0.3,0.9-0.5c0.2-0.3,0.5-0.5,0.3-1c-0.4-0.8-2.1-1-3.2-1c-1.2,0-2.9,0.2-5,0.5
					c-1,0.1-2,0.3-2.9,0.5c-0.1,0-0.1,0-0.1,0c-4.2,1-8.2,2.9-11.5,5.5c-0.4,0.3-1,0.8-1.4,1.1l2.7-4.6c1.5-2.3,3-4.6,4.7-6.5
					c0.1-0.1,0.2-0.3,0.3-0.4c0.1-0.3,0.4-0.9,0.3-1.1c-0.2-0.2-0.4-0.4-1-0.4s-2.1,0.2-8.2,4.9c-5.8,4.1-10.7,9.3-14.4,15.2
					c-1.5,2.6-4,7.5-4.9,10.8c-0.1-0.3-0.1-0.7-0.2-1c-0.2-1.4-0.3-2.8-0.3-4.4c0-2,0.1-3.8,0.2-4.9c0-0.5-0.1-1.6-0.5-1.7
					c-0.4-0.1-1.2,0.9-1.4,1.3c-3,6.8-3.8,12.6-4,16l-1.2,9.8c-0.1,0.7-0.7,4.1-0.7,4.1c-0.9-1.5-1.4-2.5-2.1-4.1
					c0-0.1-0.1-0.1-0.1-0.2l-1-1.5l-0.1-0.1c-1.5-1.7-2.9-2.6-4.6-3.6c-2.3-1.4-5.3-3.2-9.6-8.2c-2.4-2.8-5.2-8.4-6.1-12.2
					c-1.8-7.6-1.6-16.8,0.4-25c0.2-0.5,0.3-1.6,0.1-1.9c-0.2-0.3-0.5-0.4-0.9-0.4c-0.6,0-1.2,0.6-5.2,6.9c0,0,0,0,0,0.1
					c-2.6,4.2-4.5,9-5.4,13.9c-0.2,1-0.3,2.2-0.4,3.2c-1-2.3-1.7-4.7-2.3-7.2c-1.3-5.2-1.7-10.6-1.2-15.3c0-0.3,0.1-1.1-0.1-1.3
					c-0.2-0.2-0.5-0.3-0.8-0.3c-0.9,0-2.3,1.1-5.1,8.7c-2.6,7.2-3.5,13.8-2.6,21c-3-4-4.4-9.5-5.6-14.6c-0.3-1.2-0.6-2.5-1-3.6
					c-0.2-0.6-0.6-2-1.1-1.7c0,0-0.1,0-0.1,0.1l0,0c0,0,0,0-0.1,0c0,0-0.1,0-0.1,0.1c-0.1,0.1-0.5,1.4-0.5,1.5
					c-0.2,0.3-0.3,0.8-0.3,1.5v0.1c0,0.3,0,0.4,0,0.7c0,0.3,0,0.5,0,0.8c-0.3,3.8-0.7,13.5,4.3,23.7l0.1,0.3
					c0.1,0.2,0.2,0.3,0.2,0.4c0.5,1.1,1.1,2.2,1.7,3.2c0.2,0.3,0.3,0.7,0.6,1c0.7,1.2,1.3,2,1.9,2.7c-2.9-0.6-7-1.4-9-1.7
					c-0.4-0.1-1,0.2-1,0.6c-0.2,0.4,0,1,0.3,1.2c1.6,1.1,4.8,3.9,8,6.8h-0.1l5.7,5.3l0.5,0.5c1.9,1.7,3.8,3.6,5.6,5.3l-3.9-0.4
					c-0.4-0.1-0.9,0.2-1,0.6s-0.1,0.9,0.3,1.1l9.1,7.4l0,0l4,3.2l0.1,0.1l6.8,5.5c0.2,0.2,0.3,0.2,0.6,0.3l1.7,0.1
					c-3.7,1.6-7.1,1.6-11.1,0.3c-3-1-6-2.6-8.5-4.7c-0.3-0.3-1.3-0.8-1.6-0.5c-0.3,0.3-0.1,1.3,0.1,1.7c0.8,1.9,2.2,3.6,3.6,5.1
					c-4.8-0.6-9-1.9-14-4.2c-0.4-0.2-1.1-0.7-1.5-0.3c-0.3,0.3-0.1,1.4,0.2,1.7c2.3,3.5,4,5.8,5.8,7.6c1.8,1.9,4.3,3.9,5.5,4.7
					c0.3,0.2,0.9,0.5,3.8,0.5c1.1,0,2.3-0.1,3.4-0.2c0.2,0,0.3,0,0.3,0c-2.9,1-5.6,1.4-8,1.1c-0.5-0.1-1.6,0-1.7,0.4
					c-0.1,0.5,0.9,1.3,1.3,1.5c3.5,1.2,6.9,2.1,10.2,2.5c1,0.3,4.2,1.1,7.5,1.4c0.3,0,0.4,0,0.6,0c0.3,0,0.5,0.1,0.8,0.1
					c1.3,0.1,2.5,0.3,3.7,0.3c1,0,2.1-0.1,3.2-0.3c0,0.1,0.1,0.3,0.1,0.3l0.6,1.1c-0.2,0-0.4,0.2-0.6,0.3c-0.3,0.3-0.3,0.8-0.2,1.1
					l1.2,2.3c0,0.1,0.1,0.1,0.1,0.2c0,0,0,0.1,0.1,0.1c-0.1,0-0.1,0.1-0.2,0.1c-0.3,0.3-0.5,0.7-0.4,1c0.6,2.6,1.9,3.5,2.8,4.2
					c0.6,0.4,1,0.7,1.2,1.5c0.2,0.4,0.3,1,0.6,1.6c0.4,1.2,1.2,2.9,0.8,3.6c-0.6,1-1,1.2-1.7,1.6c-0.4,0.3-1,0.6-1.6,1.2
					c-1.6,1.4-1.6,3.3-0.3,5.5l0.1,0.2c0.2,0.3,0.6,0.5,1,0.5c0.4-0.1,0.7-0.3,0.8-0.8c0.3-1.6,2.9-2.9,3.5-2.9
					c0.9-0.1,1.7-0.1,2.3-0.7c1-1,6.2-1,6.2-1s0.6,0,1.6,0.2c0.2,0.1,0.3,0.2,0.5,0.3c0.2,0.1,0.3,0.2,0.5,0.2c0.1,0,1.8,0.7,2,0.9
					c0.3,0.3,3.2,1.9,3.6,2.1c0.2,0.1,1.9,2.4,2.2,2.4c0.4,0.6,0.5,0.4,0.5-0.2c1.1-0.7,2.1-2.2,2.5-3.7c0.3-1.6,0.2-3-0.7-4.2
					c-0.1-0.1-0.1-0.2-0.2-0.2c-0.2-0.2-0.6-0.5-1.1-1c-0.7-0.6-1.9-1.6-2.2-1.8c-0.7-0.9-1.1-1.7-1.5-2.8c0.3,0,0.5-0.2,0.7-0.3
					c0.2-0.3,0.3-0.5,0.2-0.9l-0.2-0.6c-0.2-0.9-0.4-1.9-0.6-2.9v-0.1h0.1l0,0c0.5,0,1-0.4,1-1c0-0.2-0.1-0.3-0.2-0.5l-1.1-2.9
					c0.1,0.1,0.2,0.2,0.2,0.3c0.3,0.3,1,0.8,1.3,0.6c0.3-0.2,0.3-0.9,0.4-1.2c0.2-2,1.6-4,3.3-5.2c0.1,0.3,0.2,0.4,0.2,0.5
					c0.2,0.3,0.2,1,0.5,1l0,0c0.3,0,0.7-0.5,1.2-1.1c0.7-0.7,1.3-1.3,2-1.6l3.5,1.4c0.2,0.6,0.6,1.6,1.4,2.3c0.6,0.5,1.3,1,2.4,1.6
					c0.1,0.1,0.3,0.2,0.3,0.3c-0.1,0.1-0.3,0.1-0.3,0.2c-0.4,0.2-1.6,0.5-1.6,1s1.1,0.8,1.5,1c0.8,0.3,1.6,0.4,2.4,0.4
					c1.7,0,3.2-0.6,4.1-1.6c0.7-0.9,1-2,0.8-3.2c-0.2-0.9-0.5-3.1-0.6-3.9l1-3c0-0.1,0.1-0.2,0.1-0.3c0-1.5-0.4-3-1.2-4.8v-0.1
					c0-0.1-0.1-0.3-0.2-0.3s-0.1-0.2-0.1-0.3c-0.2-0.4-0.5-1-0.8-1.5c-2.4-4.1-6-7.4-6.2-7.5c-0.3-0.3-0.9-0.8-1.2-0.6
					s-0.4,1-0.4,1.4v0.2c-0.3-0.6-1.1-1.6-1.4-1.8c-0.4-0.7-0.8-1.4-0.9-1.8c2.9-13.7,12-22.8,12.1-22.9c0.2-0.2,0.3-0.3,0.3-0.6
					c2-19.6,24.3-28.2,24.6-28.3c0.1,0,0.7-0.2,0.7-0.3C160.8,34.5,160.9,34,160.8,33.8 M109.9,119.2
					C110,119.3,110,119.3,109.9,119.2l-0.3,0.1L109.9,119.2z"/>
			</g>
		</g>
	</g>
	<g id="Banner">
		<g>
			<g>
				<path class="st1" d="M98.3,174.3H98l-0.1,2.3h0.3c0.9,0,1.3-0.3,1.4-1.1C99.6,174.7,99.2,174.4,98.3,174.3z"/>
				<polygon class="st1" points="105.3,177.4 107,177.1 105.8,174.5 				"/>
				<polygon class="st1" points="82,173.2 82.6,170.5 80.6,172.6 				"/>
				<path class="st1" d="M53.6,159.1h-0.5l-0.2,2.3h0.5c0.9,0.1,1.3-0.3,1.4-1.1C54.9,159.6,54.5,159.2,53.6,159.1z"/>
				<polygon class="st1" points="120.8,173.1 122.2,172.4 120.3,170.2 				"/>
				<path class="st1" d="M130,158.7c-9.8,6.2-17.8,10-27.9,10.1c-13.6,0.1-24.1-8.9-38.5-13.8s-30.8,3.2-30.8,3.2s5.3,5.1,5.6,14.5
					c0,0,9.5-6.2,23.9-1.4c14.3,4.9,21.7,14.4,40.2,13.3c16-1,25.2-8.4,35.5-12.3c3.2-1.2,15-6.7,25.2,1c1-9.1,5.8-14.7,5.8-14.7
					C157.1,149.8,137.2,154.1,130,158.7z M46.7,166.4c-2.6,0.5-4.5-0.9-5-3.6c-0.5-2.6,0.8-4.7,3.5-5.2c0.9-0.2,1.6-0.1,2.3,0.1
					l0.1,2.3c-0.5-0.3-1.1-0.4-1.7-0.3c-1.2,0.3-1.7,1.2-1.5,2.7c0.3,1.5,1.3,2.2,2.4,2c0.6-0.1,1.1-0.4,1.6-0.9l0.7,2
					C48.4,165.9,47.7,166.2,46.7,166.4z M54.7,166.1l-1.4-2.9H53l-0.2,2.7l-2.5-0.2l0.5-8.7l3.3,0.2c2.3,0.2,3.5,1.2,3.4,3
					c-0.1,1.1-0.6,2-1.6,2.4l1.7,3.1L54.7,166.1z M61.8,167.4l-2.5-0.7l0.8-2.9l-1.5-6l2.8,0.4l0.7,3.6l2.4-2.7l2.6,0.7l-4.4,4.6
					L61.8,167.4z M69.6,164.6c1.6,1.4,2,2.3,1.5,3.6c-0.8,1.9-2.5,2-4.1,1.3c-1.1-0.5-2-1.1-2.8-1.9l1.2-1.8
					c0.8,0.9,1.6,1.6,2.4,1.9c0.4,0.2,0.9,0.2,1-0.2c0.2-0.3,0-0.6-0.9-1.4c-1.4-1.3-1.9-2.1-1.3-3.6c0.7-1.6,2.3-1.9,3.9-1.2
					c1.1,0.5,1.7,1,2.4,1.7l-1.1,1.7c-0.6-0.8-1.4-1.4-2-1.6c-0.4-0.2-0.8-0.2-0.9,0.2C68.7,163.6,68.8,163.9,69.6,164.6z
					 M72.2,171.9l3-5.8l-2.1-1l1-1.9l6.2,3.2l-0.7,2.1l-2.2-1.1l-3,5.8L72.2,171.9z M83.9,177.7l-2.5-0.8l0.3-1.6l-2.4-1.2l-1,1.1
					L76,174l6.6-6.4l2.6,1.3L83.9,177.7z M90.4,180.2l-5.1-1.6l2.7-8.2l2.4,0.8l-2,6.2l2.3,0.8L90.4,180.2z M98.3,178.5h-0.4
					l-0.1,2.6l-2.6-0.1l0.3-8.7l3,0.1c2.3,0.1,3.6,1.1,3.5,3.1C102,177.6,100.5,178.6,98.3,178.5z M108.5,180.5l-0.7-1.5l-2.7,0.3
					l-0.3,1.5l-2.5,0.3l1.8-9l2.9-0.4l4,8L108.5,180.5z M112.8,179.5l-2.6-8.3l2.4-0.8l1.9,6.2l2.3-0.7l1,2L112.8,179.5z
					 M124.6,175.2l-1.1-1.2l-2.5,1.1l0.2,1.5l-2.3,1l-0.9-9.2l2.6-1.2l6.1,6.5L124.6,175.2z M131.2,171.9c-2.4,1.1-4.6,0.3-5.7-2.2
					c-1.2-2.4-0.4-4.8,2-6c0.8-0.3,1.5-0.5,2.2-0.5l0.7,2.2c-0.6-0.1-1.2-0.2-1.8,0.2c-1,0.5-1.4,1.6-0.7,3c0.7,1.4,1.8,1.7,2.9,1.2
					c0.5-0.3,1-0.7,1.3-1.3l1.2,1.7C132.6,171,132.1,171.5,131.2,171.9z M134.3,170.3l-3.3-8.1l5.3-2.2l0.8,1.9l-2.9,1.2l0.4,1.1
					l2.3-1l1,1.7l-2.5,1l0.5,1.3l3-1.2l0.8,1.9L134.3,170.3z M145.5,166.4l-2.5,0.5l-1.8-8.5l5.4-1.1l0.4,2.1l-2.9,0.6l0.3,1.4
					l2.1-0.4l0.8,2l-2.4,0.5L145.5,166.4z M149,165.8c-0.7,0.1-1.3-0.4-1.3-1.1c-0.1-0.7,0.4-1.3,1.1-1.3c0.7-0.1,1.3,0.4,1.3,1.1
					C150.2,165.2,149.7,165.8,149,165.8z M157.1,160.2c-0.4-0.4-1-0.8-1.6-0.8c-1.2-0.1-2.1,0.7-2.3,2.2c-0.2,1.5,0.6,2.4,1.8,2.6
					c0.6,0.1,1.1-0.1,1.8-0.3l0.1,2.1c-0.8,0.3-1.5,0.4-2.5,0.3c-2.6-0.3-4-2.2-3.7-4.9c0.3-2.7,2.2-4.2,4.9-4
					c0.9,0.1,1.6,0.3,2.2,0.7L157.1,160.2z M159,167.1c-0.7,0.1-1.3-0.4-1.3-1.1c-0.1-0.7,0.4-1.3,1.1-1.3c0.7-0.1,1.3,0.4,1.3,1.1
					C160.2,166.4,159.7,167,159,167.1z"/>
				<path class="st2" d="M157.2,178.8l-1-0.6c-0.8-0.5-2.4-0.7-3.9-0.4c-0.3,0-0.5,0.1-0.8,0.2c-1,0.3-2.2,0.4-2.9-0.2
					c-0.4-0.3-0.7-0.9-0.7-1.6c0-0.7,0.3-1.3,0.9-1.7c2.3-1.8,9.1-0.2,9.9,0.1c0.7,0.2,2.8,0.6,3.6-0.1c0.3-0.2,0.3-0.4,0.4-0.8
					c0.7-7.8,4.2-13.1,5.5-14.8c-11.8-7.9-30.5-4-37.9,0.5c-8.4,5.1-17.5,10.1-28.2,10.1h-0.1c-8.8,0-16.2-3.6-24.2-7.5
					c-4.5-2.3-9.2-4.5-14.4-6.2c-12.1-4.1-26,1.3-29.5,2.9c1.5,1.7,4.9,6.6,5.2,14.2c0,0.3,0.2,0.6,0.3,0.8c0.9,0.7,2.9,0.3,3.6,0.3
					c0.8-0.2,7.6-1.5,9.9,0.4c0.5,0.4,0.8,1,0.8,1.8c0,0.8-0.3,1.3-0.7,1.6c-0.8,0.6-1.9,0.3-2.9,0c-0.3-0.1-0.5-0.2-0.8-0.2
					c-1.5-0.3-3.1-0.2-4,0.3l-1,0.6l-0.1-3.3c-0.3,0.1-0.6,0.1-0.9,0.2c-0.3,0.1-3.2,0.7-4.7-0.4c-0.5-0.4-0.9-1-0.9-1.8
					c-0.3-8.9-5.4-14-5.5-14l-0.7-0.7l0.9-0.4c0.7-0.3,16.9-8.1,31.4-3.3c5.3,1.7,10,4.1,14.6,6.3c7.8,3.8,15.1,7.4,23.6,7.4h0.1
					c9.4,0,17.5-3.8,27.5-10c7.7-4.8,27.7-8.8,39.9-0.1l0.6,0.4l-0.5,0.5c-0.1,0.1-4.9,5.7-5.6,14.6c-0.1,0.8-0.4,1.4-1,1.7
					c-1.6,1.1-4.4,0.3-4.8,0.3c-0.3-0.1-0.5-0.2-0.9-0.2L157.2,178.8z M152.3,174.9c-1.1,0-2.2,0.2-2.7,0.5
					c-0.3,0.2-0.3,0.3-0.3,0.7c0,0.3,0.1,0.5,0.2,0.6c0.3,0.2,1.1,0,1.8-0.1c0.3-0.1,0.6-0.2,0.9-0.2c1.1-0.2,2.7-0.2,3.9,0.2
					l0.1-1.4C154.9,175.1,153.5,174.9,152.3,174.9 M47.6,175.8c0.7,0,1.4,0.1,2,0.2c0.3,0.1,0.6,0.2,0.9,0.3
					c0.6,0.2,1.5,0.4,1.8,0.2c0.1-0.1,0.2-0.3,0.2-0.6c0-0.3-0.1-0.5-0.3-0.7c-1-0.9-4-0.8-6.5-0.5v1.4
					C46.3,175.8,47,175.8,47.6,175.8"/>
				<path class="st2" d="M99.8,185.5c-10.7,0-17.5-3.6-24.8-7.5c-3.9-2.1-8-4.2-12.7-5.9c-13.9-4.7-23.2,1.3-23.3,1.4l-0.8-1.1
					c0.4-0.3,10.1-6.3,24.5-1.5c4.9,1.6,9,3.8,13,6c7.7,4.2,15,8.1,26.9,7.3c11.2-0.7,18.8-4.4,26.3-8.1c3.1-1.6,6-2.9,9.1-4.2
					c0.2-0.1,0.4-0.2,0.7-0.3c4.2-1.6,15.3-6.1,25.1,1.5l-0.8,1c-9.3-7-19.8-2.9-23.8-1.3c-0.3,0.1-0.5,0.2-0.8,0.3
					c-3,1.1-5.9,2.6-9,4.1c-7.2,3.6-15.3,7.5-26.8,8.2C101.7,185.4,100.8,185.5,99.8,185.5"/>
				<path class="st2" d="M52.5,175.3c-3.2-2.7-4.5-5.2-4.6-5.4l1.2-0.6c0,0,1.2,2.4,4.2,4.9L52.5,175.3z"/>
				<path class="st2" d="M149.5,175.6l-0.8-1.1c3.5-2.5,3.9-5.2,3.9-5.3l1.3,0.2C154,169.5,153.4,172.7,149.5,175.6"/>
			</g>
		</g>
	</g>
	<g id="Eagle">
		<g>
			<g>
				<path class="st0" d="M109.2,51.4c-0.2-1-0.4-2.3-0.6-3.6C108.6,48.9,108.8,50.1,109.2,51.4"/>
			</g>
			<path class="st3" d="M118.9,88.2C118.9,87.9,118.9,88.2,118.9,88.2"/>
			<path class="st1" d="M132.6,99.9c0-0.1-0.1-0.2-0.1-0.2S132.5,99.7,132.6,99.9c-0.1-0.3-0.2-0.4-0.3-0.6c-0.3-0.5-0.5-1-0.8-1.4
				c-2.4-4-6-7.3-6-7.3l0.1,1l0,0l0.1,1.6c0,0-11.4-6.6-16.2-12.7c-3.7-4.8-8.1-9.9-10.7-16.2l-1-1.5c-3.2-4.1-6.7-3.3-14.1-12
				c-2.6-2.9-5.4-8.8-6.3-12.7c-1.9-8.1-1.6-17.4,0.4-25.6c0,0,1-2.8-4.2,5.5l0,0c-2.6,4.2-4.4,8.8-5.3,13.6
				c-0.4,2.4-0.6,4.9-0.5,7.4c-1.7-3.5-3.2-7.3-4.2-11.3c-1.3-5.2-1.7-10.6-1.2-15.7c0,0-0.9-0.9-4.1,7.5
				c-3.1,8.4-3.6,15.6-2.2,23.7c-5.8-4.9-7.1-13.9-9-21l0,0l0,0l0,0l0,0c0,0,0,0.1-0.1,0.1c-0.1,0.2-0.2,0.4-0.3,1.1
				c0,0.5-0.1,1-0.1,1.6c-0.3,3.6-0.7,13.3,4.2,23.3c0.1,0.3,0.2,0.5,0.3,0.7c0.7,1.5,1.6,2.9,2.3,4.2c1.2,2.3,2.3,2.8,3.6,4.7
				c-0.2,0-8.7-1.8-11.8-2.3c1.9,1.2,5.3,4.3,9.3,8.1c0,0,11.7,1,21,7.8c0,0-8-3.9-17.6-4.6c0.6,0.5,1.1,1,1.7,1.6
				c2.8,2.6,5.5,5.1,7.9,7.3l0,0l-6.9-0.7l10,8.1l1.8,0.1c0,0,3.4-0.1,6.7,0.6c3.6,0.8,5.4,1.9,5.4,1.9c-2-0.7-5.3-0.8-7.2-0.6
				C76,85.2,75,85.6,74,85.7l0.6,0.4l6.2,5l5.6,0.2c-4.7,2.9-9.4,4.1-15.3,2.1c-3.1-1-6.2-2.7-8.8-4.8c1,2.6,3.5,4.8,5.4,6.8
				c-6.2-0.5-11.3-1.9-17-4.5c2.2,3.4,3.9,5.7,5.6,7.5c1.7,1.8,4.2,3.7,5.3,4.5c0.8,0.4,4.2,0.4,6.6,0.2c0.4,0,0.9-0.1,1.1-0.2
				c0.5-0.1,1.2-0.3,1.9-0.4c2.3-0.5,5.2-1.4,5.1-1.2c-1,0.7-2.2,1.3-3.4,1.9c-0.7,0.3-1.4,0.7-2.2,1c-3.3,1.4-6.9,2.3-10.2,1.9
				c3.7,1.3,7.5,2.3,11.4,2.7c1.4,0.1,1.8,0.1,3-0.4c1.7-0.8,3.2-1.5,4.6-2.2c0.7-0.3,1.4-0.7,2.1-1c1-0.5,2-1,3.1-1.6
				c-0.6,0.6-1.3,1.2-2,1.7c-0.3,0.3-0.8,0.6-1.1,1c-1.4,1.1-2.8,2.3-4.4,3.7c4.4,0.3,7,1,12.8-0.8c0,0-1.2,0.9-2.9,1.9l1.7,3.4
				l-1.9-0.9l1.2,2.3c0,0,0.9,1.1,2.2,2l0.4,1.4c-1-0.3-2.3-1.3-2.9-1.7c1,4,3.3,3.2,4,5.5c0.4,1.6,2.2,4.5,1.2,6.1
				c-1.1,1.8-1.9,1.6-3.5,3.1c-1.8,1.6-0.4,3.7,0,4.4c0.3-1.9,1.8-3.2,2.7-3.5c1.3-0.3,2.9-0.1,3.4-0.7c2.1-2.1,6.4-2.5,9.4-0.7
				c-1.4-2.3-2.2-2.2-4.9-3c4.9,0.3,5.3,1.4,7.7,4.2c0.2-1.6-1.1-3.6-2.3-4.6c-0.3-0.3-4.2-0.9-8.1-1.2c-1.4-0.1-1.9-1.8-2.1-2.8
				c0.3,0.2,1.3,0.7,2.3,0.7c-0.3-1.4-0.6-2.9-0.9-3.8c0.3,0.2,0.8,0.4,1.6,0.4l-0.5-2.3c-0.3-1.8-0.9-3.1,0.9-5.9
				c1,0.7,1.4,1,1.8,1.5c0,0,0.3,1.7,0.8,2.7c0.1,0.2,1.8,1.6,1.8,1.8l-2.9-0.9c0,0,1,2.3,2.9,3.6c1.1,0.4,2.2,0.9,2.5,1.3
				s1,1.7,0.7,2.4c-0.3,0.5-1.8-1.7-5,1c2.3,0,4.9,0.6,5.5,1.3c0.8,0.9,1.3,1.7,1.8,2c2.3,1.4,2.5,2.2,2.3,4.9
				c1.5-1.1,1-4.1,0.9-4.9c2,2.3,1.6,5.5,1,6.8c1.5-0.8,3.2-4.1,1.6-6.6c-0.4-0.4-2.9-2.3-3.4-2.8c-1.2-1.4-1.6-3-2.2-4.6
				c0.4,0,1,0.2,1.4,0.2c-0.3-1-0.5-2.2-0.8-3.6c0-0.1-0.1-0.3-0.1-0.3c0-0.1,0-0.1,0-0.2c0-0.2-0.1-0.4-0.1-0.6c0-0.1,0-0.1,0-0.2
				c0-0.2-0.1-0.4-0.1-0.6c0.8,0.5,1.4,0.7,1.4,0.7l-1.4-3.7l0,0c0-0.3,0.1-0.6,0.1-0.9c0,0,0,0,0-0.1c0-0.3,0.1-0.5,0.2-0.8v-0.1
				c0.1-0.3,0.1-0.4,0.2-0.7c0-0.1,0-0.1,0.1-0.2c0.1-0.3,0.2-0.5,0.3-0.8c-0.6,1.3,1.2,3.3,1.2,3.3c0.3-2.9,2.9-5.7,5.1-6.8
				c-0.1,0.9,0.3,1.6,0.3,1.6c0.7-1.4,2-1.9,2.9-2.2l1.8,0.7l1.9,0.8l0.5,0.2c0,0,0.3,1.5,1.2,2.2c0.8,0.7,1.6,1.1,3.6,2.4
				c-0.2,0.5-0.6,1-1.6,1.3c2.9,1,6.5-0.2,6-3.3c-0.2-1.1-0.7-4.1-0.7-4.1l0,0l0.7-2.3l0.2-0.7v-0.1l0.1-0.3
				C133.7,102.8,133.2,101.3,132.6,99.9 M122.3,104.4l-1.6-2.8l-3.9-2l3.2,3.7c-1.6-1-4.5-2.5-7.6-3c0,0,2.6,2.4,3.9,3.7
				c0.3,0.2,0.3,0.3,0.3,0.3c-0.1-0.1-0.2-0.2-0.3-0.3c-0.3-0.3-1.2-0.5-3.1-0.7c-1.8-0.2-3.9-0.6-5.8-1.7c0,0,0.3,0.5,1.1,1.2l0,0
				l0,0c0.8,0.6,1.8,1.4,3.3,1.8c0.1,0,1.6,0.6,1.7,0.7c-1,0.4-1.9,1-2.7,1.5c-1.4,1.1-2.3,2.4-2.9,3.7c-1,2.3-1.7,6.5-1.1,8.9
				c-2-2.7-3.8-6.2-2.8-10.1c-3,1.7-5,1.1-7.2,0.9c-1,1.3-2.3,4.5-2.4,7.3c-0.2-0.3-0.3-0.6-0.5-1c-0.8-1.7-1.2-3.6-1.3-5.5
				c-0.1-0.8,0-1.5,0-2.1l0,0l7-5l-10.2-0.9l0,0c0.2-0.1,0.3-0.3,0.5-0.3c3.9-2.8,8.8-4.7,13.7-4.4c0.3,0,0.8,0,1.1,0.1
				c-3.1-1.7-8.7-1.6-12-0.7c-4.4,1.4-6.2,1.5-10.9,0.6c4.9-1,4.8-1.1,7.8-2.5c2.4-1.4,7-3.9,12.8-2.8c-1.4-0.6-2.6-1.2-4.3-1.6
				c-1.7-0.3-4.4-0.8-7.4-0.2c0,0,2-2.2,5.7-2.7c-5.1-4.6-20.3-11.9-20.3-11.9c21.5,5.1,30.6,15.2,32,16.8c0.1,0.1,0.2,0.2,0.3,0.2
				c-0.8-1.8-5.5-12.9-18.6-21.1c-1.8-1.1-3.8-1.9-5.6-3c-2.9-1.7-5.6-3.6-8.1-5.7l0,0C51.9,44.5,60.9,18,60.9,18
				c-0.8,6.2,0.3,12.2,2.1,17.6c1.1,3.4,2.6,6.5,4,9.3c1.6,3,3.3,5.6,4.6,7.5c3,3.7,6.6,6.8,10.7,9.1c0,0-18.3-12.5-7.9-39.1
				c-0.4,1.1-7.6,22.4,19.5,41c0.5,0.3,0.9,0.3,1,0.7c3.6,8.7,17.5,22.4,20,29.1c-0.1-1.4-0.3-2.7-0.3-4.1c1.6,1.6,2.8,3.7,3.4,5.9
				c0.1-1.3,0.3-3.4,0.3-4.7c2.3,1.2,5.5,3.8,8.3,6.8c0,0,0,0-0.1-0.1c-0.1-0.1-0.2-0.2-0.3-0.3c0,0.1,0.1,0.1,0.1,0.1
				s0,0.1,0.1,0.1l0.1,0.1l0.1,0.1l-0.1-2l-0.1-1c0,0,4.2,5.1,5.5,9c0.1,0.3,0.2,0.4,0.2,0.7c0,1.1-0.2,1.8-0.3,2.3
				c-0.2,0.4-0.8,1.1-1,1.2c-0.1,0.1-0.2,0.1-0.2,0.1c0.2-0.2,0.3-0.5,0.3-0.9c0-0.4-0.1-0.9-0.3-1.4c-0.2-0.4-0.3-1-0.4-1.2
				c-0.2-0.3-0.3-0.6-0.3-0.6c0.1,1,0,1.6-0.1,2.1c0,0,0,0,0,0.1c-0.2,1-0.6,1.1-0.8,1.2l0,0c0-0.2-0.1-0.3-0.1-0.4
				c-0.1-0.3-0.3-0.7-0.3-1c-0.4-1.2-2.2-4.4-2.8-5.5c-0.5,0.7,0.2,2.3,0.2,2.3c0.3,0.4,0.7,1.5,0.7,1.5c-0.4,1,0.3,2.3,1.2,2.8
				c-0.3,0.1-1.1,0-1.8-0.3c0.3,0.4,1,1.6,1.5,1.9C126.6,107.8,123.9,105.7,122.3,104.4 M128.6,112.5l-1.2-1l-0.9-0.7l-0.2-0.7
				l-0.1-0.2l-0.3-0.9l0,0c1,0.6,1.7,1.6,2.3,2.4c0.1,0.2,0.6,1.2,0.6,1.2L128.6,112.5z M132.3,113.3c-0.3,0.4-1,0.9-1.6,1.1
				c-0.7,0.3-1.4,0.4-2,0.3l0,0c0.1,0,0.1-0.1,0.2-0.1c0,0,0.1,0,0.1-0.1c1.4-0.9,0.6-2.5-0.8-4.2l0,0l-3.3-2.9l-0.2-0.2l-0.1-0.1
				l0,0h0.1l0,0h0.1l0.5,0.3l1.6,1l0.1,0.1l0.8,0.4l0.8,0.4l0,0l0,0c0.8-0.2,1.6-0.4,1.7-0.4c0.6-0.2,0.9-0.3,1-0.4
				C131.7,108.6,133.1,112.2,132.3,113.3"/>
			<path class="st1" d="M149.6,33.5h0.2c-4.6,0.3-9.2,1.6-13,4.1c3.1-6.2,10.1-10.2,16.2-12.7c0,0,0.8-1.2-6.7-0.1
				c-1,0.1-1.9,0.3-2.9,0.4l0,0l0,0c-4.1,0.9-8,2.7-11.2,5.3c-1.8,1.5-3.5,3.1-4.9,5c-6.2,8.3-8.3,15.6-8.3,15.6
				s-0.9-10.7,12.8-24.9c1.5-2.5,3.2-4.9,5.1-7.1c0,0,0.3-1.6-7.5,4.2c-5.6,3.9-10.5,9.1-14,14.8c-1.3,2.3-4,7.4-4.8,10.7
				c0,0.1,0,0.2,0,0.3c0,0,0.1,2,0.4,4.7c0.4,3.3,1.8,7.7,1.8,7.7c-0.9-1.8-2.5-6-3-7.8c-0.3-1-0.4-1.8-0.7-2.6
				c-0.1-0.5-0.2-1-0.3-1.5c-0.1-0.3-0.1-0.5-0.1-0.8c-0.1-0.4-0.2-0.9-0.2-1.3c-0.2-1.6-0.3-3-0.3-4.6c0-2,0.1-3.7,0.2-5
				c-3.6,8.1-3.9,14.5-3.9,17c-0.2,1.6-0.3,2.8-0.3,3.8c1,2.6,2.6,6.2,5.5,10.6c0,0-2.6-1.5-5.7-6.9c-0.1,1.2-0.3,2.6-0.8,4.7
				c3.6,6,7,10.6,10.2,14.1v-7.1c1.1,1.1,1.9,2,2.5,2.7c0.5-2.3,1.2-5.1,2.3-8.1c6.2-18.5,13.6-24.1,13.6-24.1
				c-6.8,10.6-13,32-12.7,42c1.3,1.1,2.5,2,3.5,2.7c-0.5-0.8-1-1.7-1-2.4c3-14.3,12.4-23.6,12.4-23.6c2.1-20.4,25.2-29.1,25.2-29.1
				C160.8,33,149.6,33.5,149.6,33.5"/>
		</g>
	</g>
	<g id="Building_Towers">
		<path class="st4" d="M153.1,151.4v-10.6v-1c-1.2,1-2.3,1.7-3.5,2.5v1.1v1.6v0.8h-1.7v-2.3c-7.5,4.9-11.3,5.5-11.3,5.5
			c5.1-2.6,8.7-5.1,11.3-7.3v-2.9v-1.6c-9.3,8-17.6,12-20.6,13.4c0,0.3,0,0.9,0,1.8h13.6c0,0,1.9,0,2.3,0c3.2-0.5,6.6-0.8,10-0.6"/>
		<path class="st5" d="M138.8,153.5c-2.5,0.6-4.8,1.5-6.6,2.3v-2.3H138.8z"/>
		<path class="st5" d="M118.9,163.2c-0.6,0.3-1.7,0.8-2.2,1v-2.3V157h2.2v4.9V163.2z"/>
		<rect x="116.7" y="150.6" class="st5" width="2.2" height="5.5"/>
		<path class="st5" d="M126.4,158.7V157h-1.9v1.7v1.6c0.6-0.3,1.3-0.8,2-1.1L126.4,158.7z"/>
		<rect x="124.5" y="150.6" class="st5" width="1.9" height="5.5"/>
		<path class="st5" d="M121.2,160.6V157h-1.5v3.6v2.2c0.5-0.3,1-0.5,1.5-0.8V160.6z"/>
		<rect x="119.7" y="150.6" class="st5" width="1.5" height="5.5"/>
		<rect x="122.1" y="150.6" class="st5" width="1.5" height="5.5"/>
		<path class="st5" d="M123.5,160.2V157h-1.5v3.3v1.4c0.5-0.3,1-0.5,1.5-0.8V160.2z"/>
		<rect x="116.7" y="146" class="st5" width="9.7" height="3.8"/>
		<path class="st5" d="M78,159.3c-0.7-0.3-1.4-0.7-2.2-1v-0.4V157H78v0.9V159.3z"/>
		<rect x="75.8" y="150.6" class="st5" width="2.2" height="5.5"/>
		<path class="st5" d="M83.5,162c0.7,0.3,1.3,0.6,2,0.9v-4.2V157h-2v1.6V162z"/>
		<rect x="83.6" y="150.6" class="st5" width="1.9" height="5.5"/>
		<rect x="78.7" y="150.6" class="st5" width="1.5" height="5.5"/>
		<rect x="81.2" y="150.6" class="st5" width="1.5" height="5.5"/>
		<rect x="75.8" y="146" class="st5" width="9.7" height="3.8"/>
		<path class="st5" d="M81.2,160.9c0.4,0.3,1,0.5,1.5,0.8v-1.1V157h-1.5v3.6V160.9z"/>
		<path class="st5" d="M73.5,157.1c0.5,0.3,1,0.4,1.5,0.7v-1.5v-2.9h-1.5v2.9V157.1z"/>
		<path class="st5" d="M78.7,159.7c0.1,0,0.2,0.1,0.3,0.1c0.4,0.2,0.9,0.4,1.2,0.6v-1.1V157h-1.5v2.3L78.7,159.7z"/>
		<path class="st4" d="M49.5,147.3v-7.5c1.2,1,2.3,1.7,3.5,2.5v3.4h1.7v-2.3C62.3,148.5,66,149,66,149c-5.1-2.6-8.7-5.1-11.3-7.3
			v-3.1v-1.3c8.8,7.6,16.8,11.7,20.2,13.2c0,0.6,0,2,0,2s-13.5,0.1-13.8,0c-3.9-0.9-7.9-0.9-11.6-0.5"/>
		<path class="st5" d="M70.2,155.7c-1.9-0.8-4.4-1.8-5.8-2.3h5.8V155.7z"/>
		<path class="st5" d="M71,155.6v-2.1h1.5v2.1v1.1c-0.2-0.1-0.7-0.3-1.5-0.6V155.6z"/>
		<path class="st5" d="M128.9,157v-3.5h-1.6v3.5v1.6c0.5-0.3,1.1-0.7,1.6-1V157z"/>
		<path class="st5" d="M131.3,155.7v-2.3h-1.5v2.3v1.2c0.4-0.3,1-0.5,1.5-0.8V155.7z"/>
		<path class="st5" d="M115.8,149.8v-2.7c0-8.1-6.6-14.7-14.7-14.7s-14.7,6.6-14.7,14.7v2.7h2.5c-0.2-0.8-0.3-1.6-0.3-2.4
			c0-6.8,5.5-12.4,12.4-12.4c6.8,0,12.4,5.5,12.4,12.4c0,0.9-0.1,1.6-0.3,2.4H115.8z"/>
		<g id="Layer_27">
			<path class="st6" d="M52.9,142.3"/>
			<path class="st4" d="M52.9,139v-3.3l-3.5-3.5v3v0.9c0.4,0.7,1.5,2.2,3.5,4V139z"/>
		</g>
		<path class="st4" d="M153.1,136.2c-0.4,0.7-1.5,2.2-3.5,4v-1.7v-2.7l3.5-3.5v2.7V136.2z"/>
		<g>
			<path class="st5" d="M98.6,161.5c-0.4,0-0.7,0.3-0.7,0.7s0.2,0.7,0.7,0.7c0.3,0,0.5-0.1,0.8-0.3l0,0
				C99.4,161.9,99.1,161.5,98.6,161.5z"/>
			<path class="st5" d="M102.3,161.5c-0.5,0-0.8,0.5-0.8,1.4s0.3,1.4,0.8,1.4c0.5,0,0.8-0.5,0.8-1.4
				C103.2,162,102.8,161.5,102.3,161.5z"/>
		</g>
		<g id="Layer_29">
			<g id="BANNER_copy_2">
			</g>
		</g>
		<g id="Layer_24_copy">
			<path class="st6" d="M163.7,150.6"/>
			<g id="Layer_27_copy">
			</g>
			<g id="Layer_29_copy">
				<g id="BANNER_copy_3">
				</g>
			</g>
		</g>
		<path class="st6" d="M37.8,131"/>
		<path class="st7" d="M48.9,131"/>
		<path class="st5" d="M46.2,130.7c0.5,0.1,1,0.3,1.5,0.3v6.6c-0.4-0.2-1-0.3-1.5-0.3V130.7z"/>
		<path class="st5" d="M45.3,137.1c-0.5-0.1-1-0.1-1.5-0.1v-6.6c0.3,0,0.5,0,0.7,0c0.3,0,0.5,0.1,0.8,0.1
			C45.3,130.5,45.3,137.1,45.3,137.1z"/>
		<path class="st5" d="M41.5,137.1c0.5-0.1,1-0.1,1.5-0.1v-6.6c-0.5,0-1,0.1-1.5,0.1V137.1z"/>
		<path class="st5" d="M39.1,137.6c0.4-0.2,1-0.3,1.5-0.3v-6.6c-0.5,0.1-1,0.3-1.5,0.3V137.6z"/>
		<path class="st5" d="M37.8,125.3c0.3-0.2,0.7-0.3,1-0.4v0.8L37.8,125.3z"/>
		<path class="st5" d="M43,127.6c-0.5,0-1,0.1-1.5,0.1v-3.5c0.5-0.1,1-0.1,1.5-0.1V127.6z"/>
		<path class="st5" d="M45.3,124.3c-0.5-0.1-1-0.1-1.5-0.1v3.5c0.5,0,1,0.1,1.5,0.1V124.3z"/>
		<path class="st5" d="M46.2,124.4c0.5,0.1,1,0.3,1.5,0.3v3.5c-0.4-0.2-1-0.3-1.5-0.3V124.4z"/>
		<path class="st5" d="M40.6,127.8c-0.5,0.1-1,0.3-1.5,0.3v-3.5c0.4-0.2,1-0.3,1.5-0.3V127.8z"/>
		<path class="st5" d="M48,124.9c0.3,0.1,0.7,0.3,1,0.4l-1,0.4V124.9z"/>
		<path class="st5" d="M37.8,131.6c0.3-0.2,0.7-0.3,1-0.4v0.8L37.8,131.6z"/>
		<path class="st5" d="M48,131.1c0.3,0.1,0.7,0.3,1,0.4l-1,0.4V131.1z"/>
		<path class="st5" d="M49,123.1c-1.6-0.7-3.5-1.1-5.5-1.1c-2.1,0-4.1,0.4-5.5,1.1v1.5c1.6-0.7,3.5-1.1,5.5-1.1
			c2.1,0,4.1,0.4,5.5,1.1V123.1z"/>
		<path class="st5" d="M49,129.4c-1.6-0.7-3.5-1.1-5.5-1.1c-2.1,0-4.1,0.4-5.5,1.1v1.5c1.6-0.7,3.5-1.1,5.5-1.1
			c2.1,0,4.1,0.4,5.5,1.1V129.4z"/>
		<path class="st5" d="M49,122.5c-1.6-0.7-3.5-1.1-5.5-1.1c-2.1,0-4.1,0.4-5.5,1.1l4.4-4.2c0.3,0,0.8,0,1.1,0c0.3,0,0.8,0,1.1,0
			L49,122.5z"/>
		<path class="st5" d="M42.3,117c0,0.3,0,0.7,0,0.7c0.3,0,0.8,0,1.1,0c0.3,0,0.8,0,1.1,0c0,0,0-0.4,0-0.7c0-0.3-0.6-0.3-0.7-0.3
			c-0.2,0-0.3,0-0.4,0s-0.3,0-0.4,0C42.8,116.7,42.3,116.7,42.3,117z"/>
		<path class="st5" d="M47.6,144.8c-0.4-0.2-1-0.3-1.5-0.3v-6.4c0.5,0.1,1,0.3,1.5,0.3V144.8z"/>
		<path class="st5" d="M45.3,144.3c-0.5-0.1-1-0.1-1.5-0.1v-6.4c0.5,0,1,0.1,1.5,0.1V144.3z"/>
		<path class="st5" d="M43,144.2c-0.5,0-1,0.1-1.5,0.1v-6.4c0.5-0.1,1-0.1,1.5-0.1V144.2z"/>
		<path class="st5" d="M40.6,144.5c-0.5,0.1-1,0.3-1.5,0.3v-6.4c0.4-0.2,1-0.3,1.5-0.3V144.5z"/>
		<path class="st7" d="M153.6,131"/>
		<path class="st6" d="M164.8,131"/>
		<path class="st5" d="M162,130.7c0.5,0.1,1,0.3,1.5,0.3v6.6c-0.4-0.2-1-0.3-1.5-0.3V130.7z"/>
		<path class="st5" d="M161.1,137.1c-0.5-0.1-1-0.1-1.5-0.1v-6.6c0.3,0,0.5,0,0.7,0c0.3,0,0.5,0.1,0.8,0.1V137.1z"/>
		<path class="st5" d="M157.3,137.1c0.5-0.1,1-0.1,1.5-0.1v-6.6c-0.5,0-1,0.1-1.5,0.1V137.1z"/>
		<path class="st5" d="M155,137.6c0.4-0.2,1-0.3,1.5-0.3v-6.6c-0.5,0.1-1,0.3-1.5,0.3V137.6z"/>
		<path class="st5" d="M153.6,125.3c0.3-0.2,0.7-0.3,1-0.4v0.8L153.6,125.3z"/>
		<path class="st5" d="M158.8,127.6c-0.5,0-1,0.1-1.5,0.1v-3.5c0.5-0.1,1-0.1,1.5-0.1V127.6z"/>
		<path class="st5" d="M161.1,124.3c-0.5-0.1-1-0.1-1.5-0.1v3.5c0.5,0,1,0.1,1.5,0.1V124.3z"/>
		<path class="st5" d="M162,124.4c0.5,0.1,1,0.3,1.5,0.3v3.5c-0.4-0.2-1-0.3-1.5-0.3V124.4z"/>
		<path class="st5" d="M156.5,127.8c-0.5,0.1-1,0.3-1.5,0.3v-3.5c0.4-0.2,1-0.3,1.5-0.3V127.8z"/>
		<path class="st5" d="M163.7,124.9c0.3,0.1,0.7,0.3,1,0.4l-1,0.4V124.9z"/>
		<path class="st5" d="M153.6,131.6c0.3-0.2,0.7-0.3,1-0.4v0.8L153.6,131.6z"/>
		<path class="st5" d="M163.7,131.1c0.3,0.1,0.7,0.3,1,0.4l-1,0.4V131.1z"/>
		<path class="st5" d="M164.8,123.1c-1.6-0.7-3.5-1.1-5.5-1.1c-2.1,0-4.1,0.4-5.5,1.1v1.5c1.6-0.7,3.5-1.1,5.5-1.1
			c2.1,0,4.1,0.4,5.5,1.1V123.1z"/>
		<path class="st5" d="M164.8,129.4c-1.6-0.7-3.5-1.1-5.5-1.1c-2.1,0-4.1,0.4-5.5,1.1v1.5c1.6-0.7,3.5-1.1,5.5-1.1
			c2.1,0,4.1,0.4,5.5,1.1V129.4z"/>
		<path class="st5" d="M164.8,122.5c-1.6-0.7-3.5-1.1-5.5-1.1c-2.1,0-4.1,0.4-5.5,1.1l4.4-4.2c0.3,0,0.8,0,1.1,0s0.8,0,1.1,0
			L164.8,122.5z"/>
		<path class="st5" d="M158,117c0,0.3,0,0.7,0,0.7c0.3,0,0.8,0,1.1,0s0.8,0,1.1,0c0,0,0-0.4,0-0.7c0-0.3-0.6-0.3-0.7-0.3
			c-0.2,0-0.3,0-0.4,0c-0.2,0-0.3,0-0.4,0C158.6,116.7,158,116.7,158,117z"/>
		<path class="st5" d="M163.5,144.8c-0.4-0.2-1-0.3-1.5-0.3v-6.4c0.5,0.1,1,0.3,1.5,0.3V144.8z"/>
		<path class="st5" d="M161.1,144.3c-0.5-0.1-1-0.1-1.5-0.1v-6.4c0.5,0,1,0.1,1.5,0.1V144.3z"/>
		<path class="st5" d="M158.8,144.2c-0.5,0-1,0.1-1.5,0.1v-6.4c0.5-0.1,1-0.1,1.5-0.1V144.2z"/>
		<path class="st5" d="M156.5,144.5c-0.5,0.1-1,0.3-1.5,0.3v-6.4c0.4-0.2,1-0.3,1.5-0.3V144.5z"/>
		<path class="st5" d="M163.5,153.8c-0.5-0.2-1-0.3-1.5-0.5c0-0.4,0-3.2,0-3.2v-4.9c0,0,1,0.3,1.5,0.3v4.6V153.8z M161.1,153.1
			c-0.5-0.2-1-0.3-1.5-0.3c0-0.3,0-2.3,0-2.3V145c0,0,1,0.1,1.5,0.1v5.4V153.1z M158.8,150.5V145c-0.5,0-1.5,0.1-1.5,0.1v5.4
			c0,0,0,1.4,0,1.9c0.5,0.1,1,0.2,1.6,0.3 M156.5,150.7v-5.5c-0.5,0.1-1.5,0.3-1.5,0.3v5.7c0,0,0,0.1,0,0.8c0.5,0,1,0.1,1.5,0.2
			 M47.6,149.8v-4.2c-0.4-0.2-1.5-0.3-1.5-0.3v4.6v2.5c0,0,1-0.2,1.5-0.3V149.8z M45.3,145.1c-0.5-0.1-1.5-0.1-1.5-0.1v5.1
			c0,0,0,2.3,0,2.8c0.5-0.1,1-0.2,1.5-0.3V145.1z M43,153.1c-0.5,0.1-1,0.3-1.5,0.3c0-0.3,0-3.4,0-3.4v-4.9c0,0,1-0.1,1.5-0.1v5.1
			V153.1z M40.6,153.7c-0.5,0.2-1,0.3-1.5,0.4c0-0.9,0-3.2,0-3.2v-5.2c0,0,1-0.3,1.5-0.3v5V153.7z"/>
		<path class="st5" d="M113,150.6c-1.5,5.2-6.2,9-12,9c-5.7,0-10.5-3.8-12-9h-2.7v10.1v2.4c5.1,2.3,10.2,3.8,15.8,3.8h0.1
			c4.9,0,9.2-1,13.5-2.6v-13.9L113,150.6z"/>
	</g>
	<g id="New_Ball">
		<path class="st2" d="M96.2,151.6c2,1.1,3.9,1.6,5.1,1.8h0.1c0.1,0,0.2,0,0.3-0.1c0.1-0.1,0.2-0.2,0.2-0.3c0.1-2.1-0.3-4-0.6-4.7
			c0-0.1-0.1-0.2-0.2-0.3c-2.5-1.2-4.6-2.6-6.1-4c-1.1-1-1.9-2.1-2.3-3.2c-0.1-0.1-0.2-0.3-0.3-0.3c-0.2,0-0.3,0.1-0.3,0.2
			c-0.9,1.2-1.5,2.6-1.7,4.1c0,0.1,0,0.2,0,0.3C91.4,147.9,93.5,150,96.2,151.6"/>
		<path class="st2" d="M95.5,143.4c0.1,0.1,0.2,0.1,0.3,0.1l0,0c0.1,0,0.2-0.1,0.3-0.2c2.9-4,6.2-5.5,8.4-6c0.2,0,0.3-0.2,0.3-0.3
			s-0.1-0.3-0.3-0.3c-1.1-0.3-2.3-0.5-3.5-0.5c-1.5,0-2.9,0.3-4.3,0.9c-1.3,0.6-2.5,1.4-3.6,2.4c-0.1,0.1-0.2,0.3-0.1,0.3
			C93.2,140.4,93.7,141.7,95.5,143.4"/>
		<path class="st2" d="M96.7,144c-0.1,0.2-0.1,0.4,0.1,0.5c1.2,1,2.7,1.9,4.4,2.7c0.1,0,0.1,0,0.2,0s0.3-0.1,0.3-0.2
			c1-1.2,4-4.1,8.8-4.8c0.1,0,0.3-0.1,0.3-0.2c0.1-0.1,0.1-0.3,0-0.3c-0.9-1.6-2.1-2.9-3.6-3.8c-0.1,0-0.2-0.1-0.2-0.1
			c-0.4,0-2.1,0-4.2,1C100.5,139.8,98.4,141.5,96.7,144"/>
		<path class="st2" d="M111.5,143.3c-0.1-0.2-0.3-0.3-0.4-0.3c-0.9,0.1-1.7,0.3-2.5,0.5c-0.1,0-0.2,0.1-0.3,0.2
			c-0.1,0.1-0.1,0.2,0,0.3c0.3,0.9,0.8,2.7,0.9,4.9c0.1,1.4-0.1,2.6-0.3,3.8c-0.2,0.8-0.4,1.6-0.8,2.3c-0.1,0.2,0,0.3,0.1,0.5
			c0.1,0.1,0.2,0.1,0.3,0.1c0.1,0,0.2,0,0.3-0.1c1.2-1.1,2.2-2.5,2.8-4C112.4,148.8,112.5,145.9,111.5,143.3"/>
		<path class="st2" d="M101.6,154.4c-0.1-0.1-0.2-0.2-0.3-0.2c-1.2-0.3-3.1-0.7-5.1-1.7c-2.3-1.2-4.2-2.9-5.6-4.9
			c-0.1-0.2-0.3-0.2-0.4-0.2c-0.2,0.1-0.3,0.2-0.3,0.3c0.1,1.3,0.3,2.7,0.9,3.9c0.8,1.8,2.1,3.5,3.6,4.6c1.6,1.1,3.4,1.8,5.3,2.1
			c0,0,0,0,0.1,0s0.3-0.1,0.3-0.2c0.9-1,1.4-2.2,1.6-3.6C101.7,154.5,101.7,154.4,101.6,154.4"/>
		<path class="st2" d="M107.6,144.4c0-0.1-0.1-0.2-0.2-0.3s-0.3-0.1-0.3,0c-2.7,1.2-4.3,2.9-4.9,3.6c-0.1,0.1-0.1,0.3-0.1,0.3
			c0.3,0.8,0.6,2.3,0.6,4.1c0,1.1-0.1,2.2-0.3,3.1c-0.3,1-0.6,1.7-1,2.5c-0.1,0.1-0.1,0.3,0,0.4c0.1,0.1,0.2,0.2,0.3,0.2l0,0
			c1.1-0.1,2.3-0.3,3.4-0.7c0.1,0,0.1-0.1,0.2-0.1c1.1-1.1,2-2.4,2.6-3.9c0.4-1.2,0.7-2.6,0.7-4.1
			C108.4,147.3,107.9,145.3,107.6,144.4"/>
	</g>
	<g id="_x31_861">
		<g>
			<path class="st0" d="M96.6,165v-3.3l-0.9,0.3l-0.1-0.6l1-0.4h0.7v4.1L96.6,165L96.6,165z"/>
			<path class="st0" d="M98.2,161.9c0-0.7,0.6-1,1.4-1c0.9,0,1.4,0.4,1.4,1c0,0.4-0.3,0.8-0.7,1c0.5,0.3,0.8,0.5,0.8,1
				c0,0.7-0.6,1.1-1.5,1.1c-1,0-1.5-0.5-1.5-1.1c0-0.4,0.3-0.9,0.8-1C98.5,162.7,98.2,162.3,98.2,161.9z M98.8,163.9
				c0,0.3,0.3,0.6,0.8,0.6s0.8-0.3,0.8-0.6c0-0.3-0.3-0.5-1-0.8C99.1,163.3,98.8,163.5,98.8,163.9z M100.2,161.9
				c0-0.3-0.3-0.5-0.7-0.5s-0.6,0.3-0.6,0.5c0,0.3,0.2,0.4,0.8,0.7C100.1,162.4,100.2,162.2,100.2,161.9z"/>
			<path class="st0" d="M103.3,162.4c0.7,0,1.2,0.4,1.2,1.2s-0.6,1.4-1.5,1.4c-0.9,0-1.5-0.6-1.5-1.7c0-1.5,1-2.3,2.3-2.5l0.1,0.6
				c-0.8,0.2-1.5,0.5-1.6,1.3C102.7,162.6,103,162.4,103.3,162.4z M103.2,164.5c0.4,0,0.7-0.3,0.7-0.7c0-0.4-0.3-0.7-0.7-0.7
				c-0.3,0-0.5,0.1-0.8,0.3C102.3,164.1,102.7,164.5,103.2,164.5z"/>
			<path class="st0" d="M105.7,165v-3.3l-0.9,0.3l-0.1-0.6l1-0.4h0.7v4.1L105.7,165L105.7,165z"/>
		</g>
	</g>
</g>
</svg>
