<svg id="Layer_1" data-name="Layer 1" xmlns="http://www.w3.org/2000/svg" viewBox="0 0 165.09 220.25"><title>FFC_Singular_Crest_Full_Colour</title><path d="M82.39,221.25a4.12,4.12,0,0,1-1.51-.33c-1.07-.4-16.35-6.32-33.87-19.87C30.56,188.33,9.08,166.24.13,133.2a6.62,6.62,0,0,1-.19-1.7V15.39a4.13,4.13,0,0,1,3.08-4A322.87,322.87,0,0,1,82.39,1h.1A323.36,323.36,0,0,1,162,11.44a4.12,4.12,0,0,1,3.06,4V131.5a6.82,6.82,0,0,1-.19,1.71c-8.95,33-30.43,55.12-46.88,67.84-17.53,13.55-32.8,19.47-33.87,19.87a4.16,4.16,0,0,1-1.51.33h-.2Z" transform="translate(0.06 -1.01)" style="fill:#fafcf3"/><path d="M161.39,13.42A318.6,318.6,0,0,0,82.53,3.07h-.08A318.74,318.74,0,0,0,3.58,13.42a2.09,2.09,0,0,0-1.57,2V131.5a4.94,4.94,0,0,0,.11,1.16C19.16,195.54,81.65,219,81.65,219a2.31,2.31,0,0,0,.8.19h.08a2.31,2.31,0,0,0,.8-.19s62.49-23.46,79.52-86.34a4.55,4.55,0,0,0,.12-1.16V15.38a2.09,2.09,0,0,0-1.58-2" transform="translate(0.06 -1.01)" style="fill:#0d0802"/><path d="M82.52,7.45a310.94,310.94,0,0,1,47.77,3.94V181.21a139.59,139.59,0,0,1-16,14.56,144.44,144.44,0,0,1-31.77,18.86,144.64,144.64,0,0,1-31.77-18.86,139.59,139.59,0,0,1-16-14.56V11.39a309.77,309.77,0,0,1,47.8-3.94h0" transform="translate(0.06 -1.01)" style="fill:#fff"/><path d="M121.79,55.75,93.7,27.66a4.57,4.57,0,0,0-3.38-1.43,4.72,4.72,0,0,0-3.41,1.44L44.5,70.06a2.46,2.46,0,0,0-.59,1.57,2.49,2.49,0,0,0,.91,2l5.48,5.54a2.51,2.51,0,0,0,2,.9,2.41,2.41,0,0,0,1.63-.66l.93-.91h0c2.12-2.14,12-12,17.89-17.89l8.35,8.33L43.13,106.82a2.41,2.41,0,0,0-.59,1.57,2.5,2.5,0,0,0,.9,2l5.48,5.54a2.51,2.51,0,0,0,3.61.25l.92-.92h0c2.12-2.14,12-12,17.9-17.89,5.68,5.68,8.53,8.53,10,10a39,39,0,0,0-19.77,10.94C54.83,125,50.77,133.32,50.16,141.7c-.66,9,2.58,17.31,9.36,24.09,5.79,5.79,12.76,8.85,20.15,8.85,6.93,0,13.65-2.71,19.42-7.85l.72-.63L90.66,157l-.63.52c-3.93,3.23-8.16,5-12.24,5a14.39,14.39,0,0,1-10.4-4.57c-4.39-4.39-6.07-9.56-5-15.39.93-5,4-10.35,8.56-14.94,5.63-5.64,12.27-8.87,18.22-8.87A16.78,16.78,0,0,1,101.28,124c5.74,5.75,6.48,12.34,2.18,19.59l-.35.6,9.28,9.28.63-.77c8.9-10.82,7.38-25.17-3.87-36.57a33,33,0,0,0-10.3-7.08L79.22,89.45,90,78.64l23.79,23.79.64-.64,5.43-5.41.28-.26a2.51,2.51,0,0,0,.9-2,2.44,2.44,0,0,0-.66-1.64L80.59,52.69,91.41,41.88,115.2,65.67l.63-.64c1.88-1.87,4.62-4.61,5.44-5.41l.28-.27a2.51,2.51,0,0,0,.89-2,2.45,2.45,0,0,0-.65-1.64" transform="translate(0.06 -1.01)" style="fill:#0d0802"/><path d="M120.45,57l-28-28a3,3,0,0,0-4.23,0L45.84,71.27a.58.58,0,0,0-.12.36c0,.24,0,.3.38.69l5.48,5.53c.37.37.44.37.69.37A.62.62,0,0,0,52.7,78l.42-.42s3.15-3.17,9.48-9.49L72.72,58l10.9,10.88L44.47,108a.53.53,0,0,0-.13.36c0,.25,0,.31.38.69l5.48,5.54c.37.36.44.36.69.36a.64.64,0,0,0,.44-.19l.42-.42s3.14-3.16,9.47-9.49L71.35,94.77l.64.64,11.85,11.84.62.63.62.59-1.75.33c-7.29,1-14.56,4.8-20.47,10.71C56.41,126,52.54,133.89,52,141.83c-.62,8.44,2.44,16.29,8.83,22.68,5.45,5.45,12,8.33,18.88,8.33a27.09,27.09,0,0,0,17.5-6.77l-6.64-6.63a20.85,20.85,0,0,1-12.74,4.85,16.35,16.35,0,0,1-11.68-5.09,18.5,18.5,0,0,1-5.5-17c1-5.39,4.2-11,9-15.89,6-6,13.08-9.39,19.5-9.39a18.47,18.47,0,0,1,13.39,5.84c6.16,6.15,7.12,13.46,2.82,21.17l6.87,6.87c7.58-10,5.91-23-4.38-33.37A30.88,30.88,0,0,0,98,110.68l-.29-.2-21-21L90,76.09l23.79,23.79c3.27-3.28,5.07-5,5.07-5,.37-.37.37-.43.37-.69a.63.63,0,0,0-.18-.43l-41-41L91.41,39.33,115.2,63.11c3.27-3.27,5.07-5,5.07-5,.37-.37.37-.43.37-.69a.63.63,0,0,0-.19-.44" transform="translate(0.06 -1.01)" style="fill:#e5231b"/></svg>