<?xml version="1.0" encoding="UTF-8" standalone="no"?>
<svg
   xmlns:dc="http://purl.org/dc/elements/1.1/"
   xmlns:cc="http://creativecommons.org/ns#"
   xmlns:rdf="http://www.w3.org/1999/02/22-rdf-syntax-ns#"
   xmlns:svg="http://www.w3.org/2000/svg"
   xmlns="http://www.w3.org/2000/svg"
   viewBox="0 0 625.18665 773.64001"
   height="773.64001"
   width="625.18665"
   xml:space="preserve"
   id="svg2"
   version="1.1"><metadata
     id="metadata8"><rdf:RDF><cc:Work
         rdf:about=""><dc:format>image/svg+xml</dc:format><dc:type
           rdf:resource="http://purl.org/dc/dcmitype/StillImage" /></cc:Work></rdf:RDF></metadata><defs
     id="defs6" /><g
     transform="matrix(1.3333333,0,0,-1.3333333,0,773.64)"
     id="g10"><g
       transform="scale(0.1)"
       id="g12"><path
         id="path14"
         style="fill:#fddf12;fill-opacity:1;fill-rule:nonzero;stroke:none"
         d="M 2344.46,193.289 C -108.699,1726.9 76.6445,4155.05 262.375,4805.65 c 309.652,387.33 1239.575,832.74 2082.085,832.74 842.61,0 1772.52,-445.41 2082.09,-832.74 185.76,-650.6 371.11,-3078.75 -2082.09,-4612.361 v 0" /><path
         id="path16"
         style="fill:none;stroke:#1a5dad;stroke-width:327.79000854;stroke-linecap:butt;stroke-linejoin:miter;stroke-miterlimit:4;stroke-dasharray:none;stroke-opacity:1"
         d="M 2344.46,193.289 C -108.699,1726.9 76.6445,4155.05 262.375,4805.65 c 309.652,387.33 1239.575,832.74 2082.085,832.74 842.61,0 1772.52,-445.41 2082.09,-832.74 185.76,-650.6 371.11,-3078.75 -2082.09,-4612.361 z" /><path
         id="path18"
         style="fill:#fddf12;fill-opacity:1;fill-rule:nonzero;stroke:none"
         d="M 2344.46,193.289 C -108.699,1726.9 76.6445,4155.05 262.375,4805.65 c 309.652,387.33 1239.575,832.74 2082.085,832.74 842.61,0 1772.52,-445.41 2082.09,-832.74 185.76,-650.6 371.11,-3078.75 -2082.09,-4612.361 v 0" /><path
         id="path20"
         style="fill:#fddf12;fill-opacity:1;fill-rule:nonzero;stroke:none"
         d="m 262.375,4805.65 c 309.652,387.33 1239.575,832.74 2082.085,832.74 842.61,0 1772.52,-445.41 2082.09,-832.74 185.76,-650.6 371.11,-3078.75 -2082.09,-4612.361 v 0" /><path
         id="path22"
         style="fill:#ffffff;fill-opacity:1;fill-rule:nonzero;stroke:none"
         d="m 1996.57,1082.2 120.18,-112.259 c 72.46,-51.57 148.17,-102.429 227.71,-152.121 80.9,50.512 157.66,102.192 231.32,154.7 l 117.45,109.68 v 2462.02 h -696.66 v -2462.02 0" /><path
         id="path24"
         style="fill:#1a5dad;fill-opacity:1;fill-rule:nonzero;stroke:none"
         d="M 2344.93,3777.03 H 675.309 c 0,0 -1.934,568.78 75.472,684.91 224.434,302.14 926.639,610.97 1594.149,610.97 667.43,0 1369.6,-308.83 1594.24,-610.97 77.18,-116.13 75.29,-684.91 75.29,-684.91 H 2344.93 v 0" /><path
         id="path26"
         style="fill:#1a5dad;fill-opacity:1;fill-rule:nonzero;stroke:none"
         d="m 3001.46,3544.6 839.94,-927.92 c 43.22,124.28 76.44,246.05 101.4,364.06 l -510.41,563.86 h -430.93 v 0" /><path
         id="path28"
         style="fill:#1a5dad;fill-opacity:1;fill-rule:nonzero;stroke:none"
         d="m 3759.01,3544.6 232.54,-256.92 c 9.73,89.45 14.8,175.32 16.36,256.92 h -248.9 v 0" /><path
         id="path30"
         style="fill:#1a5dad;fill-opacity:1;fill-rule:nonzero;stroke:none"
         d="m 2923.7,1595.52 v -325.09 c 55.55,49.33 108.46,99.38 158.65,149.77 l -158.65,175.32 v 0" /><path
         id="path32"
         style="fill:#1a5dad;fill-opacity:1;fill-rule:nonzero;stroke:none"
         d="m 2923.7,2432.51 v -476.03 l 324.16,-358.03 c 72.9,84.39 139.44,169.58 199.97,255.14 l -524.13,578.92 v 0" /><path
         id="path34"
         style="fill:#1a5dad;fill-opacity:1;fill-rule:nonzero;stroke:none"
         d="m 2923.7,3269.51 v -476.05 l 660.43,-729.51 c 59.8,101.14 112,201.94 157.31,302.16 l -817.74,903.4 v 0" /><path
         id="path36"
         style="fill:#1a5dad;fill-opacity:1;fill-rule:nonzero;stroke:none"
         d="M 1688.43,3544.6 848.496,2616.68 c -43.223,124.28 -76.445,246.05 -101.492,364.06 l 510.446,563.86 h 430.98 v 0" /><path
         id="path38"
         style="fill:#1a5dad;fill-opacity:1;fill-rule:nonzero;stroke:none"
         d="M 930.855,3544.6 698.137,3287.68 c -9.559,89.45 -14.598,175.32 -16.324,256.92 h 249.042 v 0" /><path
         id="path40"
         style="fill:#1a5dad;fill-opacity:1;fill-rule:nonzero;stroke:none"
         d="m 1766.05,1595.52 v -325.09 c -55.49,49.33 -108.5,99.38 -158.66,149.77 l 158.66,175.32 v 0" /><path
         id="path42"
         style="fill:#1a5dad;fill-opacity:1;fill-rule:nonzero;stroke:none"
         d="M 1766.05,2432.51 V 1956.48 L 1442,1598.45 c -73.07,84.39 -139.55,169.58 -199.99,255.14 l 524.04,578.92 v 0" /><path
         id="path44"
         style="fill:#1a5dad;fill-opacity:1;fill-rule:nonzero;stroke:none"
         d="M 1766.05,3269.51 V 2793.46 L 1105.8,2063.95 c -59.95,101.14 -112.249,201.94 -157.398,302.16 l 817.648,903.4 v 0" /><path
         id="path46"
         style="fill:#ffffff;fill-opacity:1;fill-rule:nonzero;stroke:none"
         d="m 2345.25,4404.4 v -0.06 h -0.08 v 0.06 l 0.06,0.09 0.02,-0.09 z m 469.31,153.33 c -10.81,115.46 -61.82,218.24 -152.15,283.79 -90.51,65.86 -204.56,82.56 -318.01,56.66 -113.14,25.45 -226.65,8.67 -316.89,-56.93 -90.65,-65.84 -141.6,-169.09 -152.06,-285.11 -59.3,-99.67 -78.32,-212.8 -43.86,-318.95 34.48,-106.47 116.96,-186.92 224.1,-232.77 76.5,-87.14 178.17,-140.23 289.71,-140.23 111.92,-0.03 214.02,53.5 290.53,141.22 106.62,45.86 188.65,126.13 222.99,232.28 34.71,106.44 15.36,219.98 -44.36,320.04 v 0" /><path
         id="path48"
         style="fill:#ffffff;fill-opacity:1;fill-rule:nonzero;stroke:none"
         d="m 2345.1,4797.51 47.64,101.75 -47.64,140.81 -47.75,-140.81 47.75,-101.75 v 0" /><path
         id="path50"
         style="fill:#ffffff;fill-opacity:1;fill-rule:nonzero;stroke:none"
         d="m 1971.31,4525.73 -82,76.79 -152.74,-0.23 123.24,-90.51 111.5,13.95 v 0" /><path
         id="path52"
         style="fill:#ffffff;fill-opacity:1;fill-rule:nonzero;stroke:none"
         d="m 2114.26,4086.31 -98.47,-54.32 -48.99,-148.25 126.28,92.14 21.18,110.43 v 0" /><path
         id="path54"
         style="fill:#ffffff;fill-opacity:1;fill-rule:nonzero;stroke:none"
         d="m 2576.28,4086.42 21.18,-110.36 125.14,-90.8 -47.85,146.9 -98.47,54.26 v 0" /><path
         id="path56"
         style="fill:#ffffff;fill-opacity:1;fill-rule:nonzero;stroke:none"
         d="m 2718.96,4525.99 111.48,-14.03 121.86,90.13 -151.33,0.69 -82.01,-76.79 v 0" /><path
         id="path58"
         style="fill:#1a5dad;fill-opacity:1;fill-rule:nonzero;stroke:none"
         d="m 2345.1,4797.95 c 0,0 21.04,6.71 21.04,45.56 0,38.85 -21.04,135.8 -21.04,135.8 0,0 -21.26,-96.95 -21.26,-135.8 0,-38.85 21.26,-45.56 21.26,-45.56 v 0" /><path
         id="path60"
         style="fill:#1a5dad;fill-opacity:1;fill-rule:nonzero;stroke:none"
         d="m 2575.39,4090.2 c 0,0 -13.11,-17.84 9.56,-49.28 22.94,-31.44 97.21,-97.41 97.21,-97.41 0,0 -39.96,90.88 -62.67,122.34 -22.94,31.45 -44.1,24.35 -44.1,24.35 v 0" /><path
         id="path62"
         style="fill:#1a5dad;fill-opacity:1;fill-rule:nonzero;stroke:none"
         d="m 2717.35,4527.78 c 0,0 12.83,-18.11 49.9,-6.09 36.94,12.01 122.56,62.16 122.56,62.16 0,0 -98.83,-9.81 -135.69,-21.82 -36.85,-12.01 -36.77,-34.25 -36.77,-34.25 v 0" /><path
         id="path64"
         style="fill:#1a5dad;fill-opacity:1;fill-rule:nonzero;stroke:none"
         d="m 2018.55,4403.32 c 0,180.42 146.23,326.65 326.55,326.65 180.31,0 326.54,-146.23 326.54,-326.65 0,-180.39 -146.23,-326.54 -326.54,-326.54 -180.32,0 -326.55,146.15 -326.55,326.54 v 0" /><path
         id="path66"
         style="fill:#ffffff;fill-opacity:1;fill-rule:nonzero;stroke:none"
         d="m 2561.48,4476.48 c 0,0 8.5,-22.5 32.13,-17.67 37.04,7.41 -10.74,25.17 103.9,62.32 36.78,12.01 79.73,8.32 97.39,-30.29 20.07,-43.84 0.79,-80.63 -19.45,-98.45 -28.51,-24.99 -52.68,-108.14 -52.68,-108.14 v -0.18 c 0,0 -29.36,-81.33 -20.94,-118.19 5.97,-26.43 -0.1,-67.48 -42.08,-91.18 -37.12,-20.77 -73.89,1.47 -96.65,32.76 -70.79,97.48 -22.24,82.39 -47.86,110.16 -16.34,17.82 -36.15,4.34 -36.15,4.34 0,0 -18.66,-14.94 -6.88,-36.01 18.48,-32.93 19.8,18.46 90.7,-79.05 22.74,-31.32 32.41,-73.25 1.23,-102.05 -35.53,-32.57 -76.46,-25.66 -99.61,-11.8 -32.62,19.3 -119.13,16.61 -119.13,16.61 h -0.09 c 0,0 -86.34,2.69 -118.89,-16.61 -23.27,-13.86 -64.19,-20.77 -99.65,11.83 -31.29,28.77 -21.5,70.7 1.23,102.02 70.79,97.51 72.23,46.12 90.71,79.08 11.87,21.04 -7.06,35.66 -7.06,35.66 0,0 -20.01,13.27 -36.36,-4.57 -25.58,-27.75 22.94,-12.63 -47.93,-110.14 -22.65,-31.35 -59.63,-53.53 -96.6,-32.7 -42.04,23.65 -48.08,64.81 -42.13,91.15 8.44,36.86 -20.92,118.4 -20.92,118.4 l -0.06,0.08 c 0,0 -24.11,83.1 -52.56,107.98 -20.36,17.8 -39.55,54.69 -19.54,98.41 17.66,38.64 60.58,42.36 97.48,30.38 114.49,-37.18 66.85,-54.96 103.88,-62.41 23.68,-4.71 31.86,17.79 31.86,17.79 0,0 6.27,23.14 -15.68,33.17 -34.37,15.82 -5.68,-25.2 -120.27,12.04 -36.89,11.95 -69.38,40.22 -60.94,81.83 9.49,47.2 46.64,65.72 73.54,68.21 37.82,3.39 106.24,56.49 106.24,56.49 l 0.05,0.02 c 0,0 71.52,48.64 86.49,83.39 10.7,24.88 39.73,54.61 87.61,48.98 42.1,-4.85 58.89,-44.55 58.89,-83.23 0,-120.51 -30.85,-81.13 -26.49,-118.72 2.87,-23.91 26.75,-24.67 26.75,-24.67 0,0 23.97,1.06 26.63,25.1 4.28,37.51 -26.36,-1.9 -26.36,118.55 0,38.76 16.75,78.41 58.86,83.36 47.84,5.51 76.97,-24.15 87.6,-48.99 14.85,-34.78 86.55,-83.47 86.55,-83.47 l 0.12,-0.09 c 0,0 68.29,-53.06 106.03,-56.4 26.87,-2.46 64.19,-20.98 73.57,-68.18 8.47,-41.69 -24.08,-69.87 -61.01,-81.83 -114.49,-37.3 -85.84,3.75 -120.2,-12.01 -21.87,-10.08 -15.27,-33.08 -15.27,-33.08 v 0" /><path
         id="path68"
         style="fill:none;stroke:#1a5dad;stroke-width:17.80920029;stroke-linecap:butt;stroke-linejoin:miter;stroke-miterlimit:4;stroke-dasharray:none;stroke-opacity:1"
         d="m 2561.48,4476.48 c 0,0 8.5,-22.5 32.13,-17.67 37.04,7.41 -10.74,25.17 103.9,62.32 36.78,12.01 79.73,8.32 97.39,-30.29 20.07,-43.84 0.79,-80.63 -19.45,-98.45 -28.51,-24.99 -52.68,-108.14 -52.68,-108.14 v -0.18 c 0,0 -29.36,-81.33 -20.94,-118.19 5.97,-26.43 -0.1,-67.48 -42.08,-91.18 -37.12,-20.77 -73.89,1.47 -96.65,32.76 -70.79,97.48 -22.24,82.39 -47.86,110.16 -16.34,17.82 -36.15,4.34 -36.15,4.34 0,0 -18.66,-14.94 -6.88,-36.01 18.48,-32.93 19.8,18.46 90.7,-79.05 22.74,-31.32 32.41,-73.25 1.23,-102.05 -35.53,-32.57 -76.46,-25.66 -99.61,-11.8 -32.62,19.3 -119.13,16.61 -119.13,16.61 h -0.09 c 0,0 -86.34,2.69 -118.89,-16.61 -23.27,-13.86 -64.19,-20.77 -99.65,11.83 -31.29,28.77 -21.5,70.7 1.23,102.02 70.79,97.51 72.23,46.12 90.71,79.08 11.87,21.04 -7.06,35.66 -7.06,35.66 0,0 -20.01,13.27 -36.36,-4.57 -25.58,-27.75 22.94,-12.63 -47.93,-110.14 -22.65,-31.35 -59.63,-53.53 -96.6,-32.7 -42.04,23.65 -48.08,64.81 -42.13,91.15 8.44,36.86 -20.92,118.4 -20.92,118.4 l -0.06,0.08 c 0,0 -24.11,83.1 -52.56,107.98 -20.36,17.8 -39.55,54.69 -19.54,98.41 17.66,38.64 60.58,42.36 97.48,30.38 114.49,-37.18 66.85,-54.96 103.88,-62.41 23.68,-4.71 31.86,17.79 31.86,17.79 0,0 6.27,23.14 -15.68,33.17 -34.37,15.82 -5.68,-25.2 -120.27,12.04 -36.89,11.95 -69.38,40.22 -60.94,81.83 9.49,47.2 46.64,65.72 73.54,68.21 37.82,3.39 106.24,56.49 106.24,56.49 l 0.05,0.02 c 0,0 71.52,48.64 86.49,83.39 10.7,24.88 39.73,54.61 87.61,48.98 42.1,-4.85 58.89,-44.55 58.89,-83.23 0,-120.51 -30.85,-81.13 -26.49,-118.72 2.87,-23.91 26.75,-24.67 26.75,-24.67 0,0 23.97,1.06 26.63,25.1 4.28,37.51 -26.36,-1.9 -26.36,118.55 0,38.76 16.75,78.41 58.86,83.36 47.84,5.51 76.97,-24.15 87.6,-48.99 14.85,-34.78 86.55,-83.47 86.55,-83.47 l 0.12,-0.09 c 0,0 68.29,-53.06 106.03,-56.4 26.87,-2.46 64.19,-20.98 73.57,-68.18 8.47,-41.69 -24.08,-69.87 -61.01,-81.83 -114.49,-37.3 -85.84,3.75 -120.2,-12.01 -21.87,-10.08 -15.27,-33.08 -15.27,-33.08 z" /><path
         id="path70"
         style="fill:#fddf12;fill-opacity:1;fill-rule:nonzero;stroke:none"
         d="m 2345.25,4476.89 66.52,-45.65 -25.43,-86.84 h -89.14 l -21.21,86.84 69.26,45.65 v 0" /><path
         id="path72"
         style="fill:none;stroke:#1a5dad;stroke-width:7.83653021;stroke-linecap:butt;stroke-linejoin:miter;stroke-miterlimit:4;stroke-dasharray:none;stroke-opacity:1"
         d="m 2345.25,4476.89 66.52,-45.65 -25.43,-86.84 h -89.14 l -21.21,86.84 69.26,45.65 z" /><path
         id="path74"
         style="fill:none;stroke:#1a5dad;stroke-width:7.83653021;stroke-linecap:butt;stroke-linejoin:miter;stroke-miterlimit:4;stroke-dasharray:none;stroke-opacity:1"
         d="m 2209.84,4460.66 66.15,-29.42" /><path
         id="path76"
         style="fill:none;stroke:#1a5dad;stroke-width:7.83653021;stroke-linecap:butt;stroke-linejoin:miter;stroke-miterlimit:4;stroke-dasharray:none;stroke-opacity:1"
         d="m 2345.25,4554.18 v -77.29" /><path
         id="path78"
         style="fill:none;stroke:#1a5dad;stroke-width:7.83653021;stroke-linecap:butt;stroke-linejoin:miter;stroke-miterlimit:4;stroke-dasharray:none;stroke-opacity:1"
         d="m 2480.59,4445.54 -70.08,-19.86" /><path
         id="path80"
         style="fill:none;stroke:#1a5dad;stroke-width:7.83653021;stroke-linecap:butt;stroke-linejoin:miter;stroke-miterlimit:4;stroke-dasharray:none;stroke-opacity:1"
         d="m 2296.09,4345.19 -39.9,-55.76" /><path
         id="path82"
         style="fill:none;stroke:#1a5dad;stroke-width:7.83653021;stroke-linecap:butt;stroke-linejoin:miter;stroke-miterlimit:4;stroke-dasharray:none;stroke-opacity:1"
         d="m 2380.79,4344.4 47.24,-54.97" /><path
         id="path84"
         style="fill:#fddf12;fill-opacity:1;fill-rule:nonzero;stroke:none"
         d="m 2288.44,4569.03 56.81,-15.59 58.92,16.36 1.62,21.47 c 0,0 -40.85,13.59 -62.32,12.95 -14.39,-0.32 -56.14,-9.52 -56.14,-9.52 l 1.11,-25.67 v 0" /><path
         id="path86"
         style="fill:none;stroke:#1a5dad;stroke-width:7.83653021;stroke-linecap:butt;stroke-linejoin:miter;stroke-miterlimit:4;stroke-dasharray:none;stroke-opacity:1"
         d="m 2288.44,4569.03 56.81,-15.59 58.92,16.36 1.62,21.47 c 0,0 -40.85,13.59 -62.32,12.95 -14.39,-0.32 -56.14,-9.52 -56.14,-9.52 l 1.11,-25.67 z" /><path
         id="path88"
         style="fill:#fddf12;fill-opacity:1;fill-rule:nonzero;stroke:none"
         d="m 2483.46,4504.75 -1.7,-60.35 32.58,-51.86 25.63,6.21 c 0,0 1.41,47.06 -4.22,60.33 -5.62,13.27 -26.34,54.99 -26.34,54.99 l -25.95,-9.32 v 0" /><path
         id="path90"
         style="fill:none;stroke:#1a5dad;stroke-width:7.83653021;stroke-linecap:butt;stroke-linejoin:miter;stroke-miterlimit:4;stroke-dasharray:none;stroke-opacity:1"
         d="m 2483.46,4504.75 -1.7,-60.35 32.58,-51.86 25.63,6.21 c 0,0 1.41,47.06 -4.22,60.33 -5.62,13.27 -26.34,54.99 -26.34,54.99 l -25.95,-9.32 z" /><path
         id="path92"
         style="fill:#fddf12;fill-opacity:1;fill-rule:nonzero;stroke:none"
         d="m 2486.04,4310.24 -55.91,-22.97 -34.69,-46.85 13.4,-21.27 c 0,0 46.58,18.54 56.39,29 10.55,11.31 40.64,41.84 40.64,41.84 l -19.83,20.25 v 0" /><path
         id="path94"
         style="fill:none;stroke:#1a5dad;stroke-width:7.83653021;stroke-linecap:butt;stroke-linejoin:miter;stroke-miterlimit:4;stroke-dasharray:none;stroke-opacity:1"
         d="m 2486.04,4310.24 -55.91,-22.97 -34.69,-46.85 13.4,-21.27 c 0,0 46.58,18.54 56.39,29 10.55,11.31 40.64,41.84 40.64,41.84 l -19.83,20.25 z" /><path
         id="path96"
         style="fill:#fddf12;fill-opacity:1;fill-rule:nonzero;stroke:none"
         d="m 2292.63,4241.65 -38.82,45.41 -51.89,25.67 -19.21,-20.9 c 0,0 32.28,-39.78 45.03,-46.43 12.83,-6.65 51.74,-24.7 51.74,-24.7 l 13.15,20.95 v 0" /><path
         id="path98"
         style="fill:none;stroke:#1a5dad;stroke-width:7.83653021;stroke-linecap:butt;stroke-linejoin:miter;stroke-miterlimit:4;stroke-dasharray:none;stroke-opacity:1"
         d="m 2292.63,4241.65 -38.82,45.41 -51.89,25.67 -19.21,-20.9 c 0,0 32.28,-39.78 45.03,-46.43 12.83,-6.65 51.74,-24.7 51.74,-24.7 l 13.15,20.95 z" /><path
         id="path100"
         style="fill:#fddf12;fill-opacity:1;fill-rule:nonzero;stroke:none"
         d="m 2171.72,4413.89 38.12,46.77 5.82,60.97 -19.57,9.17 c 0,0 -28.65,-37.65 -33.1,-51.33 -5.4,-16.82 -14.65,-57.52 -14.65,-57.52 l 23.38,-8.06 v 0" /><path
         id="path102"
         style="fill:none;stroke:#1a5dad;stroke-width:7.83653021;stroke-linecap:butt;stroke-linejoin:miter;stroke-miterlimit:4;stroke-dasharray:none;stroke-opacity:1"
         d="m 2171.72,4413.89 38.12,46.77 5.82,60.97 -19.57,9.17 c 0,0 -28.65,-37.65 -33.1,-51.33 -5.4,-16.82 -14.65,-57.52 -14.65,-57.52 l 23.38,-8.06 z" /><path
         id="path104"
         style="fill:none;stroke:#1a5dad;stroke-width:14.77299976;stroke-linecap:butt;stroke-linejoin:miter;stroke-miterlimit:4;stroke-dasharray:none;stroke-opacity:1"
         d="m 2149.21,4406.49 c 0,108.31 87.79,196 196.04,196 108.24,0 195.95,-87.69 195.95,-196 0,-108.24 -87.71,-195.99 -195.95,-195.99 -108.25,0 -196.04,87.75 -196.04,195.99 z" /><path
         id="path106"
         style="fill:#1a5dad;fill-opacity:1;fill-rule:nonzero;stroke:none"
         d="m 2062.61,4798.47 101.99,50.69 -78.29,-83.15 -103.31,-48.99 79.61,81.45 v 0" /><path
         id="path108"
         style="fill:#1a5dad;fill-opacity:1;fill-rule:nonzero;stroke:none"
         d="m 2342.71,3926.95 -112.25,18.93 112.22,21.18 112.21,-21.03 -112.18,-19.08 v 0" /><path
         id="path110"
         style="fill:#1a5dad;fill-opacity:1;fill-rule:nonzero;stroke:none"
         d="m 2801.49,4257.97 -52.76,-100.9 14.5,113.29 54.79,100.26 -16.53,-112.65 v 0" /><path
         id="path112"
         style="fill:#1a5dad;fill-opacity:1;fill-rule:nonzero;stroke:none"
         d="m 2628.34,4796.69 79.81,-81.31 -103.36,48.81 -78.41,83.01 101.96,-50.51 v 0" /><path
         id="path114"
         style="fill:#1a5dad;fill-opacity:1;fill-rule:nonzero;stroke:none"
         d="m 1886.08,4260.92 -16.78,112.64 54.99,-100.16 14.62,-113.32 -52.83,100.84 v 0" /><path
         id="path116"
         style="fill:#1a5dad;fill-opacity:1;fill-rule:nonzero;stroke:none"
         d="m 1973.1,4527.32 c 0,0 0.18,22.23 -36.74,34.27 -37,11.96 -135.83,21.77 -135.83,21.77 0,0 85.73,-50.16 122.67,-62.14 37.01,-11.99 49.9,6.1 49.9,6.1 v 0" /><path
         id="path118"
         style="fill:#1a5dad;fill-opacity:1;fill-rule:nonzero;stroke:none"
         d="m 2115.55,4089.91 c 0,0 -21.13,7.03 -43.89,-24.38 -22.91,-31.41 -62.79,-122.35 -62.79,-122.35 0,0 74.22,65.98 97.04,97.39 22.88,31.47 9.64,49.34 9.64,49.34 v 0" /><path
         id="path120"
         style="fill:#1a5dad;fill-opacity:1;fill-rule:nonzero;stroke:none"
         d="m 2517.3,2366.17 c 6.41,2.05 12.21,0.41 13.65,-3.63 1.78,-4.05 18.64,-41.02 0,-77.2 -15.62,-30.36 -51.21,-47.93 -97.31,-41.72 -34.01,4.57 -82.47,43.71 -83.31,89.21 -15.45,-22.79 -67.45,-94.26 -170.5,-80.08 -114.61,15.95 -55.66,152.21 -40.11,176 46.06,70.32 132.81,224.2 141.93,243.12 9.28,18.93 27.04,65.1 -1.08,76.94 -28.13,11.9 -69.12,-9.78 -91.1,-46.06 -6.71,-11.12 -8.02,-4.92 -11.8,-2.16 -3.87,2.76 -5.95,7.14 -8.18,10.89 -2.17,3.7 6.3,11.91 8.94,15.71 2.78,3.75 50.95,64.34 125.22,46.35 58.13,-14.3 65.28,-46.93 62.49,-75.71 -2.66,-28.6 -147.8,-264.44 -167.38,-315.84 -19.45,-51.39 -7.59,-81.74 20.01,-83.97 27.69,-2.13 95.34,6.1 139.81,102.95 44.36,97.04 114.68,245.88 129.95,276.82 15.2,30.89 37.85,73.78 42.34,80.22 4.27,6.51 3.62,9.2 16.78,7.62 12.93,-1.64 44.89,-6.03 51.42,-6.03 6.42,0 2.41,-13.19 -2.52,-19.69 -4.89,-6.56 -153.61,-301.54 -172.98,-362.2 -19.58,-60.7 16.85,-75.47 24.35,-77.46 12.51,-3.54 51.97,-6.24 57.95,24.2 3.22,15.94 -2.26,28.59 -3.34,31.93 -1.03,3.23 2.08,4.57 2.08,4.57 0,0 6.06,3.17 12.69,5.22 v 0" /><path
         id="path122"
         style="fill:#1a5dad;fill-opacity:1;fill-rule:nonzero;stroke:none"
         d="m 2633.32,2143.41 c -2.49,4.93 -8.85,5.28 -12.95,-1.75 -4.01,-7.03 -14.88,-24.39 -36.48,-28.6 -66.07,-13.25 -117.78,-6.8 -191.47,-2.35 -73.68,4.34 -170.08,-1.76 -197.64,-36.68 -27.69,-34.92 -16.18,-59.77 -10.64,-69.84 8.15,-14.65 25.2,-27.66 48.78,-34 23.62,-6.68 41.46,-0.94 49.6,4.81 8.04,5.51 -5.7,12.18 -10.63,15.36 -4.8,3.16 -36.36,10.54 -37.21,25.19 -0.29,6.57 3.25,25.2 22.8,34.1 19.51,9.03 65.65,13.95 104.65,9.03 -1.7,-38.21 -24.4,-139 -41.4,-175.44 -25.29,0 -105.5,-4.45 -123.61,-52.04 -8.97,-23.67 -1.67,-43.95 6.5,-50.51 8.18,-6.45 13.9,-5.74 13.9,2.34 0,8.21 0.82,24.39 8.93,33.4 8.09,9.03 39.82,22.74 82.89,14.77 -13.9,-48.87 -55.32,-171.69 -99.18,-194.3 -43.86,-22.74 -71.81,-5.74 -75.48,-0.71 -8.11,10.9 -10.51,20.97 -10.51,26.72 0,5.75 -15.54,23.55 -20.48,-1.64 -4.84,-25.2 18.6,-63.17 55.9,-72.54 66.12,-16.53 104.27,22.15 116.4,31.87 12.31,9.73 77.06,74.89 111.25,202.63 27.65,-3.28 67.39,-2.46 82.83,3.98 36.15,15.47 49.28,38.92 51.68,53.57 2.49,14.65 1.32,26.6 -2.05,33.98 -3.22,7.38 -14.47,17.93 -16.23,8.92 -1.53,-8.92 0,-24.39 -15.47,-35.75 -4.54,-3.4 -28.27,-21.92 -86.85,-12.19 11.35,35.74 38.92,178.84 38.92,178.84 30.99,-2.46 99.08,2.34 119.45,8.08 20.35,5.74 57.01,22.28 69.14,46.29 8.88,17.94 7.18,29.43 4.66,34.46 v 0" /><path
         id="path124"
         style="fill:#1a5dad;fill-opacity:1;fill-rule:nonzero;stroke:none"
         d="m 2627.81,3035.94 c 0,6.56 -9.02,3.28 -12.24,0 -3.23,-3.22 -67.43,-64.17 -111.34,-65.69 -43.8,-1.7 -109.61,0 -191.67,42.25 26.8,44.65 82.06,142.93 107.24,237.24 78.83,13.79 141.32,55.31 165.71,86.93 27.65,35.74 38.2,84.46 17.11,105.65 -41.5,41.46 -148.81,36.53 -209.78,-80.4 -12.61,-24.49 -24.53,-50.77 -35.52,-77.35 -25.84,3.11 -52.76,16.18 -57.77,20.48 -5.71,4.8 -9.73,7.3 -8.99,0.79 0.87,-6.5 -0.74,-13.85 -0.74,-13.85 0,0 -4.1,-8.94 2.43,-11.4 18.19,-10.37 37.38,-16.06 55.96,-18.32 -37.36,-93.75 -65.95,-189.41 -93.37,-237.76 -28.39,12.25 -72.28,15.48 -104.8,5.87 -32.5,-9.73 -91.77,-38.27 -86.23,-89.48 5.75,-51.16 100.05,-47.88 108.17,-47.11 8.09,0.76 66.62,8.84 108.9,71.54 63.32,-42.31 116.18,-65.92 163.09,-65.05 47.25,0.77 132.57,13.78 182.93,109.76 2.52,4.87 0.91,19.45 0.91,25.9 v 0" /><path
         id="path126"
         style="fill:#ffffff;fill-opacity:1;fill-rule:nonzero;stroke:none"
         d="m 2221.93,2996.15 c -34.13,24.5 -84.52,27.72 -110.54,-8.91 -26.05,-36.56 14.62,-47.11 23.56,-47.11 8.9,0 49.54,-8.14 86.98,56.02 v 0" /><path
         id="path128"
         style="fill:#ffffff;fill-opacity:1;fill-rule:nonzero;stroke:none"
         d="m 2425.62,3287.06 c 8.82,27.72 28.45,95.9 40.58,110.61 12.16,14.56 46.35,40.63 73.92,14.56 27.6,-25.99 -6.21,-72.49 -13.74,-78.84 -43.1,-36.48 -100.76,-46.33 -100.76,-46.33 v 0" /><path
         id="path130"
         style="fill:#1a5dad;fill-opacity:1;fill-rule:nonzero;stroke:none"
         d="m 2548.04,1453.95 c 29.32,46.76 -1.39,105.47 -30.07,115.91 -11.13,3.98 -78.49,25.78 -170.02,-32.58 -89.45,-56.73 -188.45,-151.77 -210.04,-301.19 -21.63,-149.54 82.18,-202.64 93.81,-205.92 11.63,-3.4 111.81,-41.951 180.87,45.59 40.72,51.45 40.72,65.52 44.09,73.84 3.19,8.32 -11.69,18.39 -18.22,8.32 -6.77,-9.85 -44.86,-66.33 -73.11,-81.33 -28.25,-15 -87.16,-22.39 -112.03,13.35 -26.75,38.44 -31.62,93.76 -18.23,148.61 13.22,54.84 55.55,182.71 135.15,250.67 79.73,68.1 129.57,64 146.15,52.4 16.61,-11.61 26.23,-52.86 13.12,-77.71 -5.01,-9.49 11.35,-21.56 18.53,-9.96 v 0" /></g></g></svg>