<?xml version="1.0" encoding="utf-8"?>
<!-- Generator: Adobe Illustrator 19.2.1, SVG Export Plug-In . SVG Version: 6.00 Build 0)  -->
<!DOCTYPE svg PUBLIC "-//W3C//DTD SVG 1.1//EN" "http://www.w3.org/Graphics/SVG/1.1/DTD/svg11.dtd">
<svg version="1.1" id="Leicester" xmlns="http://www.w3.org/2000/svg" xmlns:xlink="http://www.w3.org/1999/xlink" x="0px" y="0px"
	 viewBox="0 0 1860 1860" style="enable-background:new 0 0 1860 1860;" xml:space="preserve">
<style type="text/css">
	.st0{fill:#FFFFFF;}
	.st1{fill:#003090;}
	.st2{fill:#F7A800;}
</style>
<path class="st0" d="M930,1860c513.6,0,930-416.4,930-930c0-513.6-416.4-930-930-930C416.4,0,0,416.4,0,930
	C0,1443.6,416.4,1860,930,1860"/>
<g>
	<path class="st1" d="M930,1826.8c495.2,0,896.8-401.5,896.8-896.8c0-495.2-401.5-896.7-896.8-896.7C434.7,33.3,33.2,434.8,33.2,930
		C33.2,1425.3,434.7,1826.8,930,1826.8"/>
	<path class="st1" d="M930,1838.4L930,1838.4L930,1838.4L930,1838.4z"/>
</g>
<g>
	<path class="st0" d="M930,1769c463.4,0,839-375.7,839-839c0-463.4-375.6-839-839-839C466.6,91,91,466.6,91,930
		C91,1393.4,466.6,1769,930,1769"/>
</g>
<g>
	<path class="st1" d="M930,1749.4L930,1749.4L930,1749.4L930,1749.4z M110.6,930c0-452.5,366.8-819.4,819.4-819.4l0,0
		c452.5,0,819.3,366.9,819.3,819.4l0,0c0,452.5-366.8,819.4-819.3,819.4l0,0v-9.8c223.6,0,425.9-90.6,572.4-237.1l0,0
		c146.5-146.5,237.1-348.9,237.1-572.5l0,0c0-223.6-90.6-425.9-237.1-572.4l0,0C1355.9,211,1153.6,120.4,930,120.4l0,0
		c-223.6,0-425.9,90.6-572.4,237.1l0,0C211,504.1,120.5,706.4,120.5,930l0,0c0,223.6,90.6,425.9,237.1,572.5l0,0
		C504.1,1649,706.4,1739.6,930,1739.6l0,0v9.8C477.5,1749.4,110.6,1382.5,110.6,930L110.6,930z"/>
</g>
<path class="st0" d="M930,1512c321.4,0,581.9-260.5,581.9-582c0-321.4-260.5-581.9-581.9-581.9c-321.4,0-581.9,260.5-581.9,581.9
	C348.1,1251.4,608.6,1512,930,1512"/>
<g>
	<path class="st1" d="M914.7,390.8c-12.2,66-91.2,65.8-135.2,100.8c-25.2,20.4-38.2,44.8-44.7,72.5c-41.6-21.2-81.9-52.4-125.1-69.4
		C695.2,428.7,802.7,390.4,914.7,390.8"/>
	<path class="st1" d="M1240.3,486.9l-104.9,69c-12.2-74.9-95.3-96.9-152.3-120.5c-11.4-12.2-28.6-27.5-22-44.6
		C1064.6,396.5,1157.1,428.1,1240.3,486.9"/>
	<path class="st1" d="M967.7,452.5c53.7,28.5,138.4,39.1,149.8,115.7c-2.5,8.1-12.2,11.4-17.1,15.4c-4.8-101-123.8-81.5-162.1-158
		C898.4,503,770.5,488.4,772.2,595c-9-4.1-25.3-13.8-16.3-29.3c22-85.6,123.8-79.9,172.7-138.5l7.4-31
		C940,415.8,949,437,967.7,452.5"/>
	<path class="st1" d="M940,485.9c-0.8,2.5,1.6,6.5-1.6,8.2c-3.3,0.8-4.1-3.2-6.6-4.1C931.8,484.2,938.4,477.7,940,485.9"/>
	<path class="st1" d="M961.1,505.4c1.7,3.2-1.6,5.7-3.2,8.2h-2.5v-12.2C958.7,500.6,959.5,503.8,961.1,505.4"/>
	<path class="st1" d="M920.4,505.4c-0.8,2.5,1.7,6.6-1.6,8.2h-4.1v-9.8C916.3,503.8,919.6,503,920.4,505.4"/>
	<path class="st1" d="M553.1,636.6c-51.4,29.3-65.6,110.4-130.7,103.8c27.7-78.2,77.3-150.7,144.1-209.3
		C547.8,560.4,550.6,600.7,553.1,636.6"/>
	<path class="st1" d="M945.7,593.4h-23.6l16.3-58.7C935.1,556.8,943.2,573.9,945.7,593.4"/>
	<path class="st1" d="M1430.3,728.6c-56.2-4.1-74.9-72.5-124.6-97.8c7.2-25.2,11.8-55.4,7.7-82.3
		C1368,602.4,1407.5,661.8,1430.3,728.6"/>
	<path class="st1" d="M1438.5,745.7l1.6,2.4c-78.2,53,3.2,171.9-81.5,220.8c-23.6,16.3-53.8,16.3-84.8,15.5
		c4.9-18.8,35.1-11.4,51.4-21.2c96.1-29.3,46.4-145.7,95.3-207.7c-47.3-13-84.8-54.6-123-85.5l2.4-13.8
		C1344.8,687.9,1378.2,751.5,1438.5,745.7"/>
	<path class="st1" d="M568.6,667.5c-36.7,41.5-74.1,87.1-127,97.8c5.7,15.5,19.5,27.7,25.2,43.2c17.1,66,18.7,157.2,103.4,176
		c12.2,4.9,28.6-2.5,37.5,9.8c-41.6,8.2-80.6-1.6-109.2-29.3c-58.6-57-1.6-166.1-86.4-206.9c70.9,15.5,98.6-69.2,148.3-100.2
		L568.6,667.5z"/>
	<path class="st1" d="M1321.2,749.8c-0.8,2.4,1.6,6.5-1.7,8.1h-2.4v-12.2C1319.5,744.9,1322,747.4,1321.2,749.8"/>
	<path class="st1" d="M558.8,757.9c0.8,1.7-0.9,2.4-1.7,3.3c-4.1,1.6-5.7-1.6-8.1-3.3C546.6,749,561.2,749,558.8,757.9"/>
	<path class="st1" d="M1303.3,775.1c-1.6,1.6-2.4,4.9-5.7,4.1c-4.9-2.4-4.9-9.8,0-11.4C1302.4,766.9,1301.6,772.6,1303.3,775.1"/>
	<path class="st1" d="M1342.4,767.8c0,3.2,1.6,7.3-1.7,9.7c-2.5,0.8-4.1-3.2-5.7-4.1C1336.7,769.3,1336.7,766.1,1342.4,767.8"/>
	<path class="st1" d="M579.9,777.5c-1.6,0.9-2.4,4.1-5.7,3.3l-4.1-3.3l6.6-8.1C579.1,771.8,579.1,774.2,579.9,777.5"/>
	<path class="st1" d="M1313.4,1311.6l-37,34.4c-10.6-79.8,82.3-130.3,60.3-216.6c-11.4-45.6-61.1-82.3-101.8-97.7
		c-0.9-56.2,61-15.5,90.4-27.7c35-6.5,73.3-28.5,88-64.3c31-53-12.6-124,33-171.2C1507.3,960.6,1455.1,1172.3,1313.4,1311.6"/>
	<path class="st1" d="M539.2,777.5c1.6,3.3-1.6,5-4.1,7.4h-1.6v-11.4C535.9,772.6,537.6,775.9,539.2,777.5"/>
	<path class="st1" d="M465.1,955c19.5,35.9,55.4,54.6,92.1,62.7c25.2,1.6,50.5-2.4,71.7-4l6.5,15.4c-42.3,15.4-87.9,50.5-100.2,96.1
		c-20.3,84.7,56.2,139.3,70.8,215.1l-6.1,19.1c-168.8-134.2-242.1-329.7-200.6-545.4l10.8-35C480.1,808.4,430.1,902.1,465.1,955"/>
	<path class="st1" d="M1335,872.8c-11.4-4.1-13.8,9.8-17.9,15.5c-2.4-4.9-2.4-11.4-7.3-15.5l-12.2,2.5l23.6-75
		C1320.4,827.2,1330.1,849.1,1335,872.8"/>
	<path class="st1" d="M576.7,876.8c-10.6-2.4-14.6,6.6-17.9,13.9v4c-2.5-8.1-9-25.2-21.2-16.3c6.5-24.4,17-48.1,21.2-74.1
		C558,831.2,566.9,854,576.7,876.8"/>
	<path class="st1" d="M645.1,1061v7.3c-32.5,15.5-70.9,43.9-70.9,84c-4.9,74,66,115.6,58.7,189.7c11.4,9,22-7.3,35-5.7
		c42.8-3.3,165.4,9.8,193.8-25.3c7.3-1.6,12.2,2.5,18,5.7c-10.6,23.6-38.3,40.7-65.2,43.1c-66.8,6.6-143.4-49.7-197.2,11.5
		c40.7-95.4-99.3-157.2-53-258.2c13.1-30.2,45.7-55.4,76.5-64.3L645.1,1061z"/>
	<path class="st1" d="M1315.4,1140.7c9.8,84-87.9,129.5-61,213.4c-82.3-47.2-189.8,66-259.9-31.7c0-6.5,7.4-11.5,12.2-13.8
		c14.7,4,19.6,17.9,32.6,26c63.5,45.6,131.1-13.8,199.5,3.3c4.1-8.2,0-24.4,4.1-35.1c26.1-59.4,90.4-135.2,29.3-199.6
		c-16.3-13.8-35-24.4-54.6-31c-5.7-8.9,3.3-15.4,5.7-23.6C1260.9,1062.6,1311.4,1096,1315.4,1140.7"/>
	<path class="st1" d="M1160.7,1156.2c-4.9,2.5-4.9-3.2-7.3-5.7c2.4-2.4,2.4-8.1,7.3-5.7V1156.2z"/>
	<path class="st1" d="M724.9,1150.5c-0.8,2.5,1.6,6.6-1.7,8.1c-3.2,0.8-4-3.2-6.5-4C712.7,1147.3,724.9,1143.2,724.9,1150.5"/>
	<path class="st1" d="M1182.7,1174.1c-2.4-0.8-3.2,0.8-4.1,1.7c-2.4-2.5-4.9-11.4,1.7-11.4C1184.3,1166,1181.9,1170.9,1182.7,1174.1
		"/>
	<path class="st1" d="M746.1,1171.7c0.8,2.4-0.8,3.3-1.6,4.1h-4.1v-9.8C746.1,1163.6,744.5,1170.1,746.1,1171.7"/>
	<path class="st1" d="M705.4,1171.7c-0.8,3.3,1.6,6.5-1.6,8.2c-3.2,0.8-4.1-2.4-6.6-4.1C695.6,1171.7,705.4,1163.6,705.4,1171.7"/>
	<rect x="1135.4" y="1168.4" class="st1" width="5.7" height="9.8"/>
	<path class="st1" d="M738.8,1271.9c-8.1-5.7-17.1,8.2-18,13.9c0-10.6-13-16.3-19.5-13.9c12.1-22,16.3-48,22-72.4
		C725.7,1224.7,732.2,1248.3,738.8,1271.9"/>
	<path class="st1" d="M1176.2,1273.5c-0.8-3.2-4.9-0.8-7.4-1.6l-9.7,15.5c-1.6-5.8-2.5-11.4-8.1-15.5l-9.8,1.6l19.5-74.1
		C1163.2,1225.5,1171.3,1249.1,1176.2,1273.5"/>
	<path class="st1" d="M1085,1385.1c53.8,3.2,101.8-34.9,154-10.4c-150.1,109.2-379.1,127.1-541.3,46.5l-62.7-37.1
		c10.6-15.5,34.6-21.8,55-22.5c66.8,10.5,164.5,44.7,211-29.4c22,10.6,52.1,6.5,72.5-4C997.8,1365.6,1039.3,1386,1085,1385.1"/>
</g>
<path class="st0" d="M1397.7,1070.7c-34.2,0-73.3-4.1-97.7-27.7c-1.7-10.6,8.9-14.7,17.1-15.5
	C1347.2,1033.2,1378.2,1046.3,1397.7,1070.7"/>
<path class="st0" d="M554.7,1047.1c1.7,20.3-22,22.8-35,29.3c-16.3,4.9-36.6,6.5-52.9,5.7c22.8-22.8,51.3-44.8,83.9-40.7
	L554.7,1047.1z"/>
<path class="st0" d="M955.4,1354.1c-0.8,25.3-4.9,49.7-13.9,71.7c-6.5-24.4-28.4-62.7-3.2-85.4C946.5,1340.4,953,1346,955.4,1354.1"
	/>
<g>
	<path class="st1" d="M277.7,1119c1.6,6.7,4.2,12.4,8.5,18.1l-22.9-7.5c-6-1.9-10.3-6.4-11.8-12.6l-12.8-54.9l-33.4,7.8
		c-12.2,2.9-20.1,9.7-21.4,18.4l-13.9-59.4c5.5,7.5,14.2,9.3,27.1,6.2l93.3-21.8c12.9-3,19.7-8.4,21.6-17.6l31.8,135.8
		c-2.5-1.2-4.6-1.4-6.3-1c-2.9,0.7-11.8,6.8-28.7,16c6-18.3,4.5-35.6,0-54.9l-10.2-43.4l-35.6,8.3L277.7,1119z"/>
	<path class="st1" d="M246,1273.5c-24.8-48.7-12.8-89.5,27.9-110.2c41.3-21,84.4-6.6,108.5,40.8c24.8,48.7,13.5,89.4-29.3,111.1
		C313.8,1335.3,270.1,1320.9,246,1273.5z M337.8,1280.5c27.1-13.8,34.7-36.6,21.6-62.4c-14.4-28.4-39.4-35.8-69.1-20.7
		c-26.7,13.6-34.3,36.4-21.2,62.2C283.5,1287.7,308.6,1295.4,337.8,1280.5z"/>
	<path class="st1" d="M361.6,1441.3c-36.7-40.5-35.8-83-2-113.6c34.3-31.1,79.7-28.5,115.4,10.9c36.7,40.5,36.5,82.7,0.9,114.9
		C443.2,1483.2,397.3,1480.7,361.6,1441.3z M452,1423.9c22.5-20.4,23.9-44.5,4.5-65.9c-21.4-23.6-47.4-24.2-72.1-1.9
		c-22.2,20.1-23.5,44.1-4.1,65.6C401.5,1445.2,427.6,1446,452,1423.9z"/>
	<path class="st1" d="M502.1,1537.8c0.4-0.6,2-3.1,4.5-6.7l52.9-79.3l-5.9-3.9c-16.7-11.2-32.2-18.5-51.4-19.3
		c14.3-12.6,23.3-18.6,25.1-21.3c1-1.4,1.2-3.6,1.2-6.3l119.9,80c-2.7,0.9-4.4,2.1-5.3,3.5c-1.6,2.4-4,13-10,31.3
		c-8.1-17.5-20.8-28.9-37.5-40.1l-6.3-4.2l-52.9,79.3c-6.7,10-8.2,21.6-3.1,28.6l-50.6-33.7C490.5,1547.2,498.4,1543.3,502.1,1537.8
		z"/>
	<path class="st1" d="M625.5,1602.8L656,1513c4.3-12.5,3.9-21.5-3.4-28.1l77.1,26.2c43.4,14.7,64.3,29.6,55,56.7
		c-4.7,13.9-17.3,22.1-34.1,21.1c23.1,11.2,30.9,25.5,24.3,45c-10,29.5-37.4,33.9-84.8,17.8l-84.5-28.7
		C615.4,1622.2,621.2,1615.6,625.5,1602.8z M703.5,1630.3c19.3,6.5,31.1,3.6,35.3-8.7c4.1-12.1-4.1-20.8-23.8-27.5l-43.6-14.8
		l-12.2,36L703.5,1630.3z M713.5,1568c18.8,6.4,29.4,4.3,33.5-7.8c4.4-13-3.1-18.4-19.6-24l-37.1-12.6l-11.1,32.7L713.5,1568z"/>
	<path class="st1" d="M957.7,1692.8l-54.5-1.4c4-3.6,5-7.3,5.4-11.7c0.3-3.7-0.3-7.2-0.9-8.9l-3.3-9.9l-83.8-7.5l-3.8,6.8
		c-1.2,2.1-2.2,5.7-2.6,9.4c-0.5,5.9,1.9,12.3,5.3,15.8l-56.4-12.7c8-6.7,13.2-9.2,19-18.8l61.1-102.6c1.7-2.8,2.7-5.2,2.8-6.6
		c0.1-1-0.3-2.5-1.2-5.3l60.3,5.4c-1.2,2.4-2.3,4-2.4,5.2c-0.1,1.2,0.4,3.5,1.6,6.8l38.3,111.5
		C946.4,1678.9,951.5,1685.1,957.7,1692.8z M895.8,1633.5l-25.4-70.7l-35.4,65.3L895.8,1633.5z"/>
	<path class="st1" d="M948.9,1548.3l60.5-8.5c-8,4.8-11.2,14-9.4,26.6l13.4,94.9l41-5.8c23.1-3.2,40.4-10.4,54.1-25.2
		c-5.1,21.8-9.3,34-8.8,37.6c0.3,1.9,1.8,3.7,3.8,5.9l-134.3,18.9c8-5.1,10.5-13.6,8.7-26.5l-13.4-94.9
		C962.7,1558.2,957.9,1551,948.9,1548.3z"/>
	<path class="st1" d="M1073.5,1532.3l57.5-20.6c-6.8,6.4-8.1,15.9-3.8,27.9l32.3,90.3l39-14c21.9-7.8,37.4-18.3,47.9-35.6
		c-0.6,22.3-2.3,35.2-1,38.6c0.7,1.8,2.5,3.3,4.9,5l-127.7,45.7c6.8-6.6,7.5-15.4,3.1-27.7l-32.3-90.3
		C1089,1539.3,1082.9,1533.1,1073.5,1532.3z"/>
	<path class="st1" d="M1422.1,1513.1c-8.8,6.3-20.3,20.5-38.8,33.8c-42.3,30.2-82.5,25.5-109.8-12.8
		c-27.6-38.7-17.9-83.7,26.6-115.4c20.4-14.5,37.9-19.9,45.7-25.4c2-1.4,3.6-3.4,5.7-5.9l10.5,37.1c-17.1,0.5-31.7,5.4-45.2,15.1
		c-26.1,18.7-30.2,47.2-13.2,70.9c18.7,26.1,42.6,30.1,69.1,11.2c15-10.7,26-25.5,36.5-45.1l22.9,32.1
		C1427.9,1509.9,1424.7,1511.3,1422.1,1513.1z"/>
	<path class="st1" d="M1350.5,1386.2l40.2-45.9c-2.9,8.9,0.7,17.9,10.2,26.3l72.1,63.2l27.3-31.2c15.3-17.5,23.8-34.2,24.6-54.4
		c10.3,19.8,15.1,31.8,17.9,34.3c1.5,1.3,3.8,1.7,6.7,2l-89.3,102c2.7-9-1-17.1-10.7-25.7l-72.1-63.2
		C1367.5,1384.8,1359.1,1382.4,1350.5,1386.2z"/>
	<path class="st1" d="M1603.7,1297.1c-23.5,42.5-51.6,53.8-85.7,35l-57.5-31.8c-11.8-6.5-21-7.1-28.4-1.4l29.3-53
		c-0.7,10,4.4,16.4,16.4,23.1l56.4,31.2c18.4,10.2,34.6,4.8,46.1-16c11.5-20.8,7.6-37-11.1-47.3l-56.4-31.2
		c-11.2-6.2-19-8.2-28.2-1.6l29.4-53.2c-1,9,4.6,17.1,16.1,23.5l57.5,31.8C1621.8,1225,1627.2,1254.6,1603.7,1297.1z"/>
	<path class="st1" d="M1635.4,1162.4l-92.5-21.2c-12.9-3-21.7-1.7-27.6,6.2l18.2-79.3c10.3-44.7,22.9-66.9,50.9-60.5
		c14.3,3.3,23.7,15,24.4,31.8c8.8-24.1,22.3-33.4,42.3-28.8c30.3,7,37.5,33.8,26.3,82.5l-20,87
		C1655.6,1170.6,1648.5,1165.4,1635.4,1162.4z M1591.8,1078.4c4.4-19.4,1.3-29.6-11.2-32.5c-13.4-3.1-18,4.9-21.9,21.9l-8.8,38.2
		l33.7,7.7L1591.8,1078.4z M1654.8,1082.1c4.6-19.8,0.4-31.4-12.3-34.3c-12.4-2.9-20.3,6.2-24.9,26.5l-10.3,44.9l37,8.5
		L1654.8,1082.1z"/>
</g>
<g>
	<g>
		<path class="st1" d="M177.8,830.3l13.2-59.6c1.7,9.2,9.2,15.3,21.6,18.1l93.6,20.7l8.9-40.5c5-22.7,4.4-41.5-4.7-59.5
			c18.6,12.4,28.6,20.6,32.2,21.4c1.9,0.4,4.1-0.3,6.9-1.5l-29.2,132.4c-2-9.2-9.1-14.6-21.8-17.4l-93.6-20.7
			C192,820.8,183.5,822.7,177.8,830.3z"/>
		<path class="st1" d="M334.3,696.8L249,653.1c-11.8-6-20.4-6.3-27.8-0.5l69.8-136.1c1.2,2.5,2.6,4.1,4.1,4.9
			c2.6,1.3,13.4,2.4,32.3,6.4c-16.4,10-26.4,24.2-35.5,41.9l-26.5,51.7l30.3,15.5l29.3-57.2c3.9-7.6,5-14,5.5-19.2l12.7,20.3
			c3.3,5.3,3.5,11.4,0.5,17.3l-25.7,50.2l32.7,16.8l28-54.5c11.1-21.6,14.5-41.6,10.5-58.6c14.9,16.7,22.5,27,25.8,28.7
			c1.7,0.9,3.9,0.9,6.9,0.5l-70.8,138.1C351.6,709.8,346.1,702.8,334.3,696.8z"/>
		<path class="st1" d="M366.9,460.4l74.7,58.5c10.6,8.3,19.3,10.4,27.8,5.9l-37.3,47.7c2.4-9.4-1.9-17.1-12.5-25.4l-74.7-58.5
			c-10.6-8.3-19.1-10.6-27.6-6.1l37.3-47.7C352.2,444.2,356.3,452.1,366.9,460.4z"/>
		<path class="st1" d="M563.3,432.3c-8,7.3-17.7,22.8-34.5,38.2c-38.4,35-78.8,35.1-110.6,0.3c-32.1-35.1-27.7-80.9,12.7-117.8
			c18.5-16.9,35.3-24.2,42.4-30.7c1.8-1.7,3.1-3.9,5-6.5l14.9,35.6c-16.9,2.5-30.8,9.2-43.1,20.4c-23.7,21.6-24.3,50.4-4.7,72
			c21.6,23.7,45.9,24.8,70,2.9c13.6-12.4,22.8-28.5,30.9-49.1l26.6,29.2C568.7,428.4,565.6,430.2,563.3,432.3z"/>
		<path class="st1" d="M574,394.5l-44.9-84.7c-6.2-11.7-13.1-16.9-22.5-16.4l135.2-71.6c-0.5,2.8-0.2,4.8,0.6,6.3
			c1.4,2.6,9.6,9.6,22.8,23.7c-19.2-1.2-35.5,4.7-53.1,14L560.7,293l16,30.1l56.8-30.1c7.6-4,12.1-8.6,15.5-12.6l-1.2,23.9
			c-0.3,6.3-3.7,11.4-9.5,14.5l-49.8,26.4l17.2,32.5l54.2-28.7c21.4-11.4,35.7-25.9,42.1-42c2.6,22.2,3,35,4.7,38.3
			c0.9,1.7,2.7,3,5.4,4.4l-137.1,72.7C580.8,415,580.2,406.2,574,394.5z"/>
		<path class="st1" d="M776.8,309.3c23.8-5.8,34.2-14.9,31.2-27.3c-3.7-15-20.6-11.9-49.6-8.9c-35.9,3.7-56.2-4.7-61.6-26.9
			c-6.2-25.5,13-50.4,53.5-60.2c26-6.3,46.4-6.5,57.3-9.2c1.9-0.5,3.8-1.2,5.7-2.6l-0.1,38.1c-16-5.4-35.8-5.9-57.9-0.5
			c-17.4,4.2-25.2,11.4-23,20.7c3.4,13.8,19.5,8.4,50.8,6.6c35.3-2,55.1,5.5,61.1,30c7.4,30.5-13.7,54.6-60.9,66.1
			c-21.4,5.2-38.2,5.8-47,7.9c-2.4,0.6-4.6,1.6-6.8,3.2L711,308.4C735.1,313.9,756.6,314.2,776.8,309.3z"/>
		<path class="st1" d="M889.2,296.9c0-0.7-0.2-3.7-0.3-8.1l-4-95.3l-7.1,0.3c-20.1,0.8-36.9,4-52.9,14.7c4.1-18.6,7.9-28.8,7.7-32
			c-0.1-1.7-1.1-3.6-2.7-5.8l144-6c-1.6,2.3-2.3,4.3-2.2,6c0.1,2.9,4.5,12.8,10.4,31.2c-16.8-9.4-33.8-11.1-53.9-10.3l-7.6,0.3
			l4,95.3c0.5,12,6.1,22.3,14.3,24.9l-60.7,2.5C885.4,311.3,889.5,303.5,889.2,296.9z"/>
		<path class="st1" d="M981.2,286l17.3-94.3c2.4-13,0.2-21.4-7.5-26.8l150.5,27.6c-2.1,1.9-3.2,3.7-3.5,5.3
			c-0.5,2.9,1.5,13.5,3.2,32.7c-14.3-12.8-30.8-18.4-50.3-21.9l-57.2-10.5l-6.1,33.5l63.2,11.6c8.4,1.5,14.8,0.7,20-0.3l-15.8,18
			c-4.1,4.7-9.9,6.7-16.5,5.5l-55.5-10.2l-6.6,36.2l60.3,11.1c23.9,4.4,44,1.8,59.1-6.9c-11.7,19-19.3,29.4-20,33
			c-0.4,1.9,0.3,4,1.5,6.8l-152.7-28C973.8,306.3,978.9,299,981.2,286z"/>
		<path class="st1" d="M1180.4,364.1l-54.5-26.4c9.7,0.3,16.3-5.5,22.2-17.6l41.6-85.8c5.8-11.9,5.9-20.6-0.1-27.9l77.5,37.5
			c17,8.2,30.5,14.8,38.7,22.5c12.9,12.2,16.1,30.4,7.6,47.8c-9,18.5-28.3,26.3-53.6,19.5c8.8,10.5,10.9,20.8,12.4,33
			c2.1,16.5,1.8,32.2,10.1,46.6l-56.3-27.3c3.9-1.4,6.3-2.9,7.7-5.8c3.2-6.6,3.4-17.7-0.3-33.1c-3.5-14.8-11.5-24.6-24.7-31.1
			l-15.2-7.4l-13,26.9C1174.4,347.8,1174.2,357,1180.4,364.1z M1239.3,303.3c21,10.2,31.8,10.2,38.7-3.9c6.8-14.1-0.1-22.4-21-32.5
			l-35.1-17l-17.6,36.4L1239.3,303.3z"/>
		<path class="st1" d="M1406.5,529.1c-7.7-7.6-23.7-16.5-39.9-32.5c-37-36.5-39.2-76.8-6.2-110.4c33.4-33.9,79.3-32,118.3,6.4
			c17.8,17.5,26.1,34,32.9,40.7c1.7,1.7,4,2.9,6.8,4.6l-34.7,16.7c-3.4-16.8-10.8-30.3-22.7-42c-22.9-22.5-51.7-21.6-72.1-0.8
			c-22.5,22.9-22.3,47.2,0.9,70c13.1,12.9,29.6,21.3,50.7,28.2l-27.7,28.1C1410.7,534.3,1408.8,531.3,1406.5,529.1z"/>
		<path class="st1" d="M1545.6,520.9l-77.7,54.4c-11.1,7.7-15.6,15.4-13.7,24.9l-34.7-49.6c8.3,5,16.9,3.2,27.9-4.6l77.7-54.4
			c11.1-7.7,15.7-15.2,13.9-24.7l34.7,49.6C1565.4,511.6,1556.6,513.2,1545.6,520.9z"/>
		<path class="st1" d="M1495.4,638.5c0.7-0.3,3.3-1.6,7.3-3.5l86.1-41l-3.1-6.4c-8.6-18.2-18.1-32.4-34.3-42.9
			c18.7-3.5,29.6-4,32.5-5.4c1.6-0.7,2.9-2.5,4.3-4.7l62,130.2c-2.7-0.6-4.8-0.4-6.4,0.3c-2.7,1.3-10,9.1-24.7,21.8
			c2-19.2-3-35.5-11.7-53.6l-3.3-6.9l-86.1,41c-10.8,5.2-18.2,14.4-17.3,22.9l-26.1-54.9C1480.6,640.6,1489.4,641.3,1495.4,638.5z"
			/>
		<path class="st1" d="M1676,811.5c3.8-0.8,5.9-2.7,7.8-6.9l11.8,56.9c-13.6-8.9-25.4-13.7-33.7-17.5l-77.2-36.3l-22.3,4.6
			c-13.2,2.7-20.7,8.8-22.4,17.7l-12.4-59.5c6.3,8.5,14.5,9.5,27.5,6.8l21.6-4.5l62.1-66c9.4-10,16.3-17.9,18.7-28.2l13.1,62.9
			c-3-3.6-5.7-4.6-9.5-3.8c-5.5,1.1-8.4,4.2-12.3,8.3l-39.1,40.7l53.8,22.9C1668.2,811.7,1672.4,812.3,1676,811.5z"/>
	</g>
</g>
<path class="st2" d="M1256,690.7l1.9-1.9l0.1-3.5c0.5-12.9,4-49.8,14.5-66.2c14.3-22.3,7.2-45.3,3.5-57.6c-0.6-1.9-1.1-3.5-1.4-4.9
	c-2.9-11.6-8.5-22-8.8-22.4l-3.5-6.4l-7,2.2c-4.6,1.5-112,36.9-167.2,117.1c-6.9,5.4-14.1,11-20.7,16c-0.1-1.2-0.3-2.4-0.6-3.7
	c-1.4-5.4-5.4-12.7-16.6-17.1c-13.6-5.3-61.9-19.1-122.1-19.1c-48.3,0-92.3,8.8-130.8,26l-8.8,3.9l2.6,4.8
	c-53-45.4-152.9-127.5-181.6-127.5c-0.4,0-0.7,0-1.1,0l-4,0.2l-2.5,3.1c-0.8,1-4.7,6.2-8.6,17.7c-0.2,0.7-0.8,1.3-2.1,2.7
	c-9.4,9.6-12.1,20.6-0.5,53.4c16.2,46,17.3,63.6,18.1,75.3c0.9,14.7,12.6,48.7,17.2,58.2c2.3,9.4,18.1,74.2,25.8,92.2
	c6.8,15.8-0.7,24.9-8.1,29.7l-1.9,1.2c-9.4,5.9-29,18.2-31.6,38.8c-1.7,13.3,4,27.3,16.9,41.5c3.2,5.9,6,12.8,6.5,15.6
	c0,0,0,0.1-0.1,0.1c-4.6,7.5,0.3,12.3,5,17l2.9,2.8c4.9,4.9,10.1,8.4,14.7,11.4c5.4,3.6,10.1,6.7,13.6,11.4c1.8,2.5,3.2,4.8,4.5,7
	c3.1,5.4,6.3,11,14.8,15.9l-1.6,10.1c-2.2,14.2,2.3,45.1,35,60.6c9.6,4.6,16.8,7.7,22.1,10c13.8,6,13.8,6,18.2,13.7
	c8.7,15.5,25.7,33.3,43.3,45.3c14.2,9.7,27.4,28.6,29,33.2l14.1,4.2l1.4-0.2c0.1-0.2,1-1.2,2.2-2.9c0.4,0.3,0.9,0.6,1.3,0.9
	c-4.4,11.1-8.5,23.8-8.5,32.5c0,13.1,5.4,43.1,53,50.9l0.3,0.4l12.8,8.9l15.9,13.7l2.1,1.3h2.5h7.9h1l1-0.2l11.5-2.7l3-0.7l1.9-2.4
	l7.1-8.8l6.1-7.6c17.9-1.4,28.9-9.6,35-14.2l0.6-0.4c9.3-7,20.3-33.3,20.3-38.9c0-2.9-1.7-15.3-2.7-22.4l-0.1-0.9l-0.3-0.9
	l-5.1-13.9c3.3,5.6,4.1,7.9,4.1,7.9l5.1,15.6l10.2-12.5l23.6-28.8c2.1-2.1,14.5-14.4,22.3-21.4c7.4-6.7,11.5-15.4,14.5-21.8
	c1.1-2.3,2.1-4.4,2.7-5.4c3.1-4.2,30.4-26.7,53.3-38.6c29-15,35-44.5,32-60.7l-0.7-3.9l-2.8-1.7c2.7-6.1,4.9-12.4,6.6-18.9
	c15.8-9.8,33.3-22.9,47.1-38.6l3.5-4.3l-2.1-5.1c-0.2-0.6-6-15.3,11.1-35.9c14.8-17.8,18.3-25.3,15.2-31.8c-1.3-2.7-3.7-4.7-6.6-5.4
	c-17.9-12.8-34-28.2-35-33.6c-0.3-1.6-0.7-3.3-1-5.1c-2.7-12.8-5.7-27.4,4.5-46.5c9.9-18.5,10.6-27.6,10.4-36
	c-0.1-2-0.1-3.2,0.2-4.2C1240.6,743.5,1252.2,698,1256,690.7z"/>
<path class="st0" d="M982.4,1130.2l7.8,24.3l3.6,33l-21.5,16.2l-77.6-2.3l-29.7-26.5l13.1-11.2l7.5-33.6
	c-97.1-72.8-140-80.3-140-80.3c-19.3-8.9-39.8-13.4-57.5-15.6l-0.3,1.7c-2.2,14.2,2.3,45.1,35,60.6c9.6,4.6,16.8,7.7,22.1,10
	c13.8,6,13.8,6,18.2,13.7c8.7,15.5,25.7,33.3,43.3,45.3c14.2,9.7,27.4,28.6,29,33.2l14.1,4.2l1.4-0.2c0.1-0.2,1-1.2,2.2-2.9
	c0.4,0.3,0.9,0.6,1.3,0.9c-4.4,11.1-8.5,23.8-8.5,32.5c0,13.1,5.4,43.1,53,50.9l0.3,0.4l12.8,8.9l15.9,13.7l2.1,1.3h2.5h7.9h1l1-0.2
	l11.5-2.7l3-0.7l1.9-2.4l7-8.8l6.1-7.6c17.9-1.4,28.9-9.6,35-14.2l0.6-0.4c9.3-7,20.3-33.3,20.3-38.9c0-2.9-1.7-15.3-2.7-22.4
	l-0.1-0.9l-0.3-0.9l-5.1-13.9c3.3,5.6,4.1,7.9,4.1,7.9l5.2,15.6l10.2-12.5l23.6-28.8c2.1-2.1,14.5-14.4,22.3-21.4
	c7.4-6.7,11.5-15.4,14.5-21.8c1.1-2.3,2.1-4.4,2.8-5.4c3.1-4.2,30.4-26.7,53.3-38.6c29-15,35-44.5,32-60.7l-3-11.5l0.5-2.4
	l-26.9,14.8C981.5,1097.2,982.4,1130.2,982.4,1130.2z"/>
<path class="st1" d="M752.4,935.5c0,0,5.3-7.1,18.5,3.5c13.2,10.6,43.2,34.5,73.2,30.9c0,0,6.2,9.7-15,8.8
	c-21.2-0.9-20.3-1.8-27.4-2.6c-7.1-0.9-37-29.2-39.7-33.6C759.4,938.1,752.4,935.5,752.4,935.5z"/>
<path class="st1" d="M949.9,730.9l-9.7-7.9c0,0-5.3-15.9-2.7-23c2.7-7.1,39.7-30,46.8-33.6c0,0-10.6,19.4-20.3,25.6
	c-9.7,6.2-15,15.9-15,15.9S946.3,722,949.9,730.9z"/>
<path class="st1" d="M919,728.2c0,0,11.5-19.4,5.3-24.7c-6.2-5.3-44.2-34.4-44.2-34.4s0.9,18.5,9.7,24.7c8.8,6.2,16.8,6.2,17.7,10.6
	c0.9,4.4,0.9,4.4,0.9,4.4s-1.8,4.4,1.8,8.8C913.7,722,919,728.2,919,728.2z"/>
<path class="st1" d="M1016.1,838.4c0,0,45.7-24.1,61.3-27.7c15.6-3.6,0-7.2-3.6-8.4c-3.6-1.2-14.4-1.2-14.4-1.2l-14.4,6l-7.2,3.6
	l-10.8,8.4l-8.4,3.6l-4.8,2.4C1013.6,825.2,1008.8,842,1016.1,838.4z"/>
<path class="st1" d="M786.3,805.9c-1.3-6,6,2.4,10.8,4.8c4.8,2.4,27.7,9.6,27.7,9.6l7.2,4.8l12,9.6l-2.4,6c0,0-7.2,0-10.8-3.6
	c-3.6-3.6-15.3-11.5-16.1-9.4c-0.8,2.2-8-0.2-14-3.8C794.7,820.4,788.7,816.7,786.3,805.9z"/>
<path class="st0" d="M739.2,712c-1.7-3.6-4-8.8-4.6-11.1c-0.3-1.2-0.6-2.3-1-3.6c-1.2-3.7-2.8-8.8-4.5-24.5
	c-2-18.5-12.5-29.5-18-35.4c-0.9-0.9-2.1-2.2-2.5-2.8c-2.7-5.1-6.9-6.1-9.2-6.6c-2.2-0.5-6.8-1.5-17.8-12
	c-19.9-19-43.5-34.5-44.4-35.1l-20.4-13.4l7.8,23.4c3.2,9.7,6.8,21.9,7,24.4c0,2.5,0.5,7.6,1.5,16.4c0.9,7.9,1.9,17.6,1.9,21
	c0,7.3,4.9,39.4,5.9,45.8l0.2,1.3l0.6,1.2c1.6,3.2,9.8,19.6,13.5,24.7l0.9,1.2c2.5,3.4,3.1,4.1,4.7,8.9c-0.1,0.4-0.3,0.9-0.4,1.3
	c-2.2,6.4-4,14.8,1.6,32.9c4.7,14.9,12.9,18.1,19,18.1c10.6,0,19.1-10.4,21.1-13c1.6-2,6-7.2,8.6-9.8c0.7-0.7,1.7-1.7,2.9-3
	c4.5-4.8,12.9-13.7,21.8-20.9c7.3-5.9,8.9-12.1,9-16.2C744.3,718.8,741.1,714.2,739.2,712z"/>
<path class="st1" d="M1101.1,923.1c0,0-5,0.9-5,7.9c0,7-28.4,30.6-37.6,35c-9.2,4.4-20.1,2.7-30.1,2.7c-10,0-13.4,13.1-13.4,13.1
	c0.1,0,0.1,0,0.2,0c-3.3,5.7-7,15.9-7,15.9s-3.4,25.1-11.4,50.2c-8,25.1,4.5,57.3,5.7,62.1c1.1,4.8,10.2,20.3,13.7,25.1
	c3.4,4.8,3.9,24.4,3.9,24.4l6.4-23.2c0,0-1.1-8.4-2.3-13.1c-1.2-4.8-8-10.8-10.3-19.1c-2.3-8.4-8-31.1-8-37c0-6,5.7-39.4,6.8-45.4
	c1.1-6,6.8-17.9,7.4-34.8c0.1-1.9,0.1-3.4,0-4.7c52.5,2.8,77-30.3,81.1-35.4c4.2-5.3,9.2-23.7,9.2-23.7H1101.1z"/>
<path class="st0" d="M1224.4,578c-9.3,10-22,17.5-35.5,25.4c-24.7,14.6-52.6,31-54.9,66l-0.2,3l1.7,2.5c5.7,8.2,2.5,14.3-4,25.3
	c-3.3,5.6-6.8,11.4-8.4,18l-1.3,5.4l4.5,3.4c6.6,5,12.4,11.5,18,17.8c11.6,13,23.6,26.5,43.4,28.8l5.1,0.6l3-4.1
	c10.3-14,13.1-30,15.9-45.6c2.5-14.2,4.8-27.6,12.8-38.3l2.2-2.9l-0.6-3.6c-2.6-15.7,2-35.5,6.4-54.7c3.2-13.7,6.4-27.9,7.1-40.7
	l1.3-23.9L1224.4,578z"/>
<path class="st1" d="M850.1,994.3c3.2,37.8,37.1,66.4,14.7,103.7c2.8,21.2-17.5,31.8-23.1,49.3c-9.1,0-4.9-14.5-3.5-20.5
	c19.5-34.1,25.8-81.8,4.9-118.1C842.4,1002.6,843.8,995.8,850.1,994.3"/>
<path class="st1" d="M1239,554.7c-32.2,27.7-72.6,37.7-102.5,71.6c-29.8,26.2,4.8,70.1-36.3,90.8c29,27,54.8,56.2,90.4,75.4
	c25-15.4,25.8-43.9,27.4-70c25.8-45.4,12.9-99.3,33.1-147.8C1247.1,567.8,1251.9,551.7,1239,554.7z M1218.1,678.6
	c-18.6,25.4-10.5,60.8-29.1,86.2c-25.8-3.1-37.1-30-58.1-46.2c4-16.9,25-31.5,11.3-51.6c3.2-48.5,60.6-57,89.6-88.5
	C1230.2,609.4,1213.2,648.6,1218.1,678.6z"/>
<path class="st1" d="M744.2,705.2c-2.4-6-8.4-1.2-6.1-17.8c5.4-38.7,1.3-20.8-19.1-54.3c0,0-13.2-15.6-14-19.9
	c-0.7-4.2-4.1-1.8-10.1-5.4c-6-3.6-9.6-4.8-18-9.6c-8.4-4.8-10.8-8.4-21.7-19.2c-10.8-10.8-27.7-16.8-33.7-20.4c-6-3.6-9.6,0-9.6,0
	c-6,0,2.4,25.3,2.4,30.1c0,4.8,2.4,28.9,8.4,61.3c6,32.5,13.2,61.4,18.1,72.2c4.8,10.8,6,19.2,9.6,46.9
	c3.6,27.7,22.4,36.3,22.4,36.3s33-31.5,46.2-38.7c13.2-7.2,16.8-15.6,24.1-25.3c7.2-9.6,7.2-9.6,13.2-19.2
	C762.2,712.4,746.6,711.3,744.2,705.2z M731,736.5c-12,9.6-22.8,21.7-26.4,25.3c-3.6,3.6-9.6,10.8-9.6,10.8s-18,24.1-26.5-2.4
	c-8.4-26.5,1.2-27.7-1.2-34.9c-2.4-7.2-3.6-8.4-7.2-13.2c-3.6-4.8-13.2-24.1-13.2-24.1s-6-38.5-6-45.7c0-7.2-3.6-33.7-3.6-38.5
	c0-4.8-7.8-27.9-7.8-27.9s24.6,15.9,45.1,35.1c20.5,19.2,24.1,12,26.5,16.8c2.4,4.8,18,14.4,20.4,36.1c2.4,21.7,4.8,25.3,6,30.1
	c1.2,4.8,6,14.4,6,14.4S743,726.9,731,736.5z"/>
<ellipse class="st1" cx="821.9" cy="942.7" rx="20.3" ry="20.3"/>
<path class="st0" d="M817.6,935.2c0,2.4-1.9,4.3-4.3,4.3c-2.4,0-4.3-1.9-4.3-4.3c0-2.4,1.9-4.3,4.3-4.3
	C815.7,930.9,817.6,932.8,817.6,935.2z"/>
<ellipse class="st1" cx="1046.6" cy="942.7" rx="20.3" ry="20.3"/>
<path class="st1" d="M777.3,907.6c-19.3,0.7-41.9,4-60.4,1.9c9.8,4.6,29.3,9.4,59.6,10.4c12.3-2.7,23.2-4.5,36.9-2.7
	c32.7,4,47.8,38.3,73.4,51l4-12.8C870.7,915.6,821.2,890.9,777.3,907.6z"/>
<path class="st1" d="M1253.6,860.7c-38-28.2-15-51.2-7.1-67.1c7.9-15.9,11.5-45.9,11.5-53.9c0-7.9,1.8-38.8,11.5-47.7
	c9.7-8.8,11.5-56.5,15.9-68c4.4-11.5,6.2-30,6.2-34.4c0-4.4,0.9-13.2,1.8-21.2c0.9-7.9-29.1-65.3-29.1-65.3
	c-42.4,4.4-150.1,97.1-160.7,108.6c-10.6,11.5-22.1,18.5-22.1,18.5c-60-17.7-92.7-13.3-151.9-16.8c-49.7-3-121.8,15.2-143.6,21.2
	C726.8,557.9,604.6,511,604.6,511c-45,45-13.2,152.8-8.8,162.5c4.4,9.7,15,27.4,14.1,46.8c-0.9,19.4,13.2,64.5,15.9,81.2
	c2.7,16.8,17.7,41.5,17.7,41.5s-9.7,10.6-26.5,27.4c-16.8,16.8-10.6,8.8-20.3,13.2c-9.7,4.4-11.5,16.8-11.5,16.8
	s13.2,23.8,24.7,36.2c11.5,12.4-3.5,23-3.5,23s20.3,16.8,32.7,26.5c12.4,9.7,5.3,8.8,14.1,16.8c8.8,8,2.7,14.1,2.7,14.1l7.1,6.2
	c5.3,62.7,60,85.6,80.4,97.1c20.3,11.5,34.4,30,34.4,30l16.8,13.2c42.4,30,42.4,57.4,42.4,57.4c-7.9,47.7,25.6,56.5,25.6,56.5
	c45,15,42.4,18.5,42.4,18.5c34.4,27.4,44.2,13.2,56.5,9.7c12.4-3.5,27.4-14.1,27.4-14.1c64.4-26.5,53.9-81.2,53.9-81.2
	s10.6-15,18.5-23c7.9-7.9,15-23.8,15-23.8s45-40.6,72.4-55.6c27.4-15,51.2-34.4,63.6-87.4c12.4-53,53-63.6,53-63.6
	c-3.5-6.2-8-20.3,1.8-34.4c9.7-14.1,25.5-36.1,25.6-36.2C1292.3,886.4,1290,887.8,1253.6,860.7z M951.6,1296.9l-11.5,2.7h-7.9
	l-17.7-10.6c0,0,6.2-1.8,18.5-1.8c12.4,0,22.1,0.9,24.7,0.9c0.4,0,0.7,0,0.9,0L951.6,1296.9z M1243,914.5
	c-21.2,25.6-12.4,45-12.4,45c-30,34.4-79.5,55.6-83,56.5c-3.5,0.9-9.7,8-13.3,11.5c-3.5,3.5-22.1,24.7-22.1,24.7l8.8,0.9l-3.2,11.3
	c0,0,13-14.8,17.4-21c4.4-6.2,15.9-2.7,15.9-2.7l12.4-6.2c0,0,5.3-3.5,8-5.3c2.6-1.8,7.1,0.9,7.1,0.9c2.7,14.1-3.5,38.9-27.4,51.2
	c-23.8,12.4-53,36.2-56.5,41.5c-3.5,5.3-7.1,17.7-15.9,25.6c-8.8,7.9-23,22.1-23,22.1l-23.8,29.1c0,0-0.9-3.5-7.1-13.3
	c-6.2-9.7-2.7-8.8-3.5-14.1c-0.9-5.3-2.7-9.7-7.1-17.7c-4.4-7.9-9.7-3.5-13.2-6.2c-3.5-2.6-6.2-10.6-6.2-19.4
	c0-8.8-21.2-109.5-23-118.3c-1.8-8.8-1.8-8.8-1.8-8.8s10.6-24.7,37.1-55.6c5.9-6.9,11.9-12,17.7-15.8c0,0.1-0.1,0.2-0.1,0.3
	c9.8-6.5,26.6-14,46.4-7.8c-0.1-0.1-0.1-0.2-0.2-0.3c11.1,3.1,20.9,4.6,29.6,4.9c32.4-3.1,45.8-15.4,50.9-23
	c-13.6,3-40.3,5.9-40.3,5.9c-128.9-11.5-97.1,5.7-97.1,5.7c-28.2,9.7-41.5,47.7-41.5,47.7s-8.8,11.5-12.3,16.8
	c-3.5,5.3-3.5,26.5-2.7,31.8c0.9,5.3,2.7,19.4,2.7,19.4c-9.7,43.3,17.6,110.4,18.5,113c0.9,2.7,9.4,41.4,9.4,41.4l4.8,1.2l7-7.3h4.4
	l1.8,4.4l9.7,26.5c0,0,2.6,18.5,2.6,21.2c0,2.6-9.7,26.5-16.8,31.8c-7.1,5.3-20.3,15.9-45,12.3c-0.7-0.1-1.4-0.2-2.1-0.3
	c-4.8-1.1-9.7-2.1-9.7-2.1l-4.8-1.2l-3.6-3.6l-1.2-4.8v-4.8v-3.8c8.8-1.5,15.3-5.9,15.3-5.9c23-10.5,26.6-31,26.6-44.5
	c0-6.6-10.7-12-10.7-12c-29.2-8.8-54.8-4.4-69.8-0.9c-15,3.5-9.7,24.7-9.7,24.7c-0.3,12.6,24.7,32.7,24.7,32.7
	c5.8,4.6,11.9,6.2,17.5,6.3v4.6c0,0-1.2,4.8-3.6,9.6c-1.6,3.2-8.7,4.8-13.4,5.5c-2.6,0.3-4.1,0.5-4.1,0.5
	c-45-4.4-53.9-27.4-53.9-43.3c0-15.9,17.7-51.2,17.7-51.2l5.3,4.4c0,0,9.7,0,12.4-1.8c2.7-1.8,1.8-6.2,0-8.8c-1.8-2.6-4.4-8-4.4-8
	c20.3-21.2,32.7-161.6,33.5-165.1c0.9-3.5-0.9-9.7-0.9-9.7l-2.7-6.2l-5.3-5.3c0,0-11.5-8.8-16.8-6.2c-5.3,2.7,5.3,16.8,5.3,16.8
	l6.2,7.9c-6.2,8.8-11.5,57.4-11.5,57.4l-9.7,60.9c0,0-7.9,17.7-11.5,34.4c-3.5,16.8-19.4,4.4-19.4,4.4c5.3,23-8.8,39.7-8.8,39.7
	c-0.9-5.3-15.9-27.4-32.7-38.8c-16.8-11.5-32.7-28.3-40.6-42.4c-7.9-14.1-8.8-10.6-44.2-27.4c-35.3-16.8-30-51.2-30-51.2
	s24.7,9.7,28.3,10.6c3.5,0.9,20.3,6.2,26.5,8.8c6.2,2.7,32.7,19.4,6.2-9.7c-26.5-29.1-39.7-19.4-56.5-25.6
	c-16.8-6.2-15.9-13.2-23.8-23.8c-7.9-10.6-19.4-14.1-29.1-23.8c-9.7-9.7-7.1-6.2-5.3-11.5c1.8-5.3-8-23-8-23
	c-37.1-39.7,1.8-60.9,14.1-68.9c12.4-8,19.4-22.1,11.5-40.6c-7.9-18.5-25.6-91.8-25.6-91.8c-3.5-6.2-15.9-41.5-16.8-55.6
	c-0.9-14.1-2.6-32.7-18.5-77.7c-15.9-45-0.9-39.7,2.7-50.3c3.5-10.6,7.1-15,7.1-15c32.7-1.8,204.8,150.1,204.8,150.1
	c-2.8-11.1-7.2-21.8-12.9-32.1c104.1-46.7,222.2-16.1,246-6.8c24.7,9.7,2.7,36.2,2.7,36.2c3.5-0.9,45-33.5,45-33.5
	c53.9-79.5,163.3-114.8,163.3-114.8s5.3,9.7,8,20.3c2.7,10.6,13.2,33.6-0.9,55.6c-14.1,22.1-15.9,70.6-15.9,70.6
	c-4.4,4.4-18.5,62.7-20.3,70.6c-1.8,7.9,3.5,13.2-9.7,38c-13.2,24.7-7.1,43.3-4.4,57.4c2.6,14.1,40.6,40.6,40.6,40.6
	S1264.2,888.9,1243,914.5z"/>
<path class="st0" d="M1042.2,935.2c0,2.4-1.9,4.3-4.3,4.3c-2.4,0-4.3-1.9-4.3-4.3c0-2.4,1.9-4.3,4.3-4.3
	C1040.3,930.9,1042.2,932.8,1042.2,935.2z"/>
</svg>
