<?xml version="1.0" encoding="utf-8"?>
<!-- Generator: Adobe Illustrator 25.0.1, SVG Export Plug-In . SVG Version: 6.00 Build 0)  -->
<svg version="1.0" id="Layer_1" xmlns="http://www.w3.org/2000/svg" xmlns:xlink="http://www.w3.org/1999/xlink" x="0px" y="0px"
	 viewBox="0 0 330 230.9" style="enable-background:new 0 0 330 230.9;" xml:space="preserve">
<style type="text/css">
	.st0{fill:#FFFFFF;}
	.st1{clip-path:url(#SVGID_2_);}
	.st2{fill:url(#SVGID_3_);}
	.st3{clip-path:url(#SVGID_5_);}
	.st4{fill:url(#SVGID_6_);}
	.st5{fill-rule:evenodd;clip-rule:evenodd;fill:#FF7800;}
	.st6{clip-path:url(#SVGID_8_);}
	.st7{fill:url(#SVGID_9_);}
	.st8{clip-path:url(#SVGID_11_);}
	.st9{fill:url(#SVGID_12_);}
	.st10{fill:#061844;}
	.st11{fill-rule:evenodd;clip-rule:evenodd;fill:#061844;}
	.st12{fill-rule:evenodd;clip-rule:evenodd;}
	.st13{fill-rule:evenodd;clip-rule:evenodd;fill:#FFF295;}
	.st14{clip-path:url(#SVGID_14_);}
	.st15{fill:url(#SVGID_15_);}
	.st16{clip-path:url(#SVGID_17_);}
	.st17{fill:url(#SVGID_18_);}
	.st18{fill-rule:evenodd;clip-rule:evenodd;fill:#FFFFFF;}
	.st19{fill-rule:evenodd;clip-rule:evenodd;fill:#80C41C;}
	.st20{fill-rule:evenodd;clip-rule:evenodd;fill:#98037E;}
	.st21{clip-path:url(#SVGID_20_);}
	.st22{fill:url(#SVGID_21_);}
	.st23{clip-path:url(#SVGID_23_);}
	.st24{fill:url(#SVGID_24_);}
	.st25{fill:#BFBFBF;}
</style>
<path class="st0" d="M214.6,118.2c-0.4-1.1-1.1-2-2.1-2.6c-0.7-0.4-1.6-0.5-2.4-0.2c-1.1,0.3-2,1.2-2.4,2.3
	c-0.1,0.2-0.1,0.5-0.1,0.7c-2.3-3.3-3.9-7-4.6-10.9c-1.5-7,0.8-10.1,1.8-11c0.4,0.6,0.9,1,1.6,1.2c1.2,0.4,2.5,0.2,3.5-0.4
	c1.1-0.6,1.9-3.2,1.1-4.9c-0.8-1.3-1.8-2.4-2.8-3.5c-0.5-0.5-1-1-1.4-1.6c-0.4-0.9-0.8-1.8-1.1-2.8c-0.1-0.3-0.2-0.6-0.3-0.9
	c-0.6-1.4-1.6-2.6-3-3.2c-1-0.4-2-0.3-2.9,0.2c-1.6,0.8-2.3,2.6-1.7,4.3c-0.9,0-1.7-0.1-2.6-0.4c-1.1-0.3-2.2-0.8-3.2-1.4
	c-3.5-2.1-7.4-3.3-11.4-3.5c-6.8-0.4-9.2,2.1-10,3l-0.2,0.2c-1.6,0.2-3.2,0.2-4.8,0.1h-0.8c-1.6,0.1-3.2,0-4.7-0.1
	c-0.1-0.1-0.2-0.1-0.2-0.2c-0.9-0.9-3.2-3.3-10-3c-4,0.2-7.9,1.5-11.4,3.5c-1,0.6-2.1,1.1-3.3,1.4c-0.8,0.2-1.7,0.3-2.6,0.3
	c0.7-1.6-0.1-3.5-1.7-4.3c-0.9-0.5-2-0.6-2.9-0.2c-1.4,0.6-2.5,1.8-3,3.2c-0.1,0.3-0.2,0.6-0.3,0.9c-0.3,1-0.7,1.9-1.1,2.8
	c-0.4,0.6-0.9,1.1-1.4,1.6c-1.1,1-2.1,2.2-2.9,3.4c-0.8,1.7,0,4.3,1.1,4.9c1.1,0.6,2.3,0.8,3.5,0.4c0.6-0.2,1.2-0.7,1.6-1.2
	c1,0.9,3.3,4,1.8,11c-0.7,3.9-2.3,7.7-4.6,10.9c0-0.2,0-0.5-0.1-0.7c-0.4-1.1-1.3-1.9-2.4-2.3c-0.8-0.3-1.7-0.3-2.5,0.1
	c-1,0.6-1.8,1.5-2.2,2.6c-0.5,2.3,0.5,4.5,3.1,6.4l0.1,0.1c2,1.4,5.2,3.9,4.8,13.4c0,0.8-0.1,1.6-0.1,2.4
	c-0.5,8.6-0.8,13.8,4.7,19.7s14.1,4.4,16.1,4c0.5,1.2,2.5,5,5.3,7.1c2,1.3,4.1,2.3,6.4,3c2.6,0.9,4.9,1.7,5.8,3.5
	c0,0.1,0,0.3-0.1,0.4c-0.2,1-0.5,2.9,0.5,4.2c0.7,0.8,1.8,1.2,2.9,1.1h0.3c1.1,0.1,2.1-0.3,2.9-1c1.1-1.3,0.7-3.2,0.5-4.2
	c0-0.1,0-0.3-0.1-0.4c0.9-1.8,3.2-2.6,5.8-3.5c2.3-0.7,4.4-1.7,6.4-3c2.9-2.1,4.8-5.9,5.3-7.1c2,0.4,10.8,1.8,16.1-4
	s5.1-11.1,4.7-19.7c0-0.8-0.1-1.5-0.1-2.4c-0.5-9.5,2.8-12,4.8-13.4l0.1-0.1C214.1,122.8,215.1,120.6,214.6,118.2"/>
<g>
	<defs>
		<path id="SVGID_1_" d="M178.6,55.7c-0.8,0.5-4.9,6.9-16.3,8c-11.5,1.1-14-3.2-14-3.2l0.7,3.9l1.7,2.1c0,0,1.2,2.7,14.3,1.4
			c13-1.3,15.7-11.6,15.7-11.6c-0.2-0.9-0.4-1.8-0.8-2.7h-0.1C179.5,53.6,179.3,55.2,178.6,55.7"/>
	</defs>
	<clipPath id="SVGID_2_">
		<use xlink:href="#SVGID_1_"  style="overflow:visible;"/>
	</clipPath>
	<g class="st1">
		
			<linearGradient id="SVGID_3_" gradientUnits="userSpaceOnUse" x1="-220.2784" y1="84.7017" x2="-211.5553" y2="84.7017" gradientTransform="matrix(3.72 0 0 3.72 967.84 -253.7552)">
			<stop  offset="0" style="stop-color:#FFF295"/>
			<stop  offset="1.000000e-02" style="stop-color:#FFF295"/>
			<stop  offset="0.19" style="stop-color:#FFED84"/>
			<stop  offset="0.55" style="stop-color:#FFDF56"/>
			<stop  offset="1" style="stop-color:#FFCC16"/>
		</linearGradient>
		<rect x="148.2" y="53.5" class="st2" width="32.5" height="15.6"/>
	</g>
</g>
<g>
	<defs>
		<path id="SVGID_4_" d="M170.7,65.5c-4.7,1.8-9.9,2.5-14.9,1.9c-2.4-0.3-4.8-1.3-6.8-2.7c0.3,1.6,0.7,3.1,1.1,4.6
			c0.1,0.5,0.2,1,0.3,1.5c0.2,0.2,0.4,0.4,0.6,0.6c0.5,0.5,1.1,0.9,1.8,1.1c1.2,0.6,2.6,1,3.9,1.3c1,0.2,2,0.3,3,0.3
			c1,0,2.2-0.1,3.3-0.2c1.1-0.2,2.3-0.4,3.4-0.7c1.2-0.2,2.3-0.4,3.3-0.7c0.2-0.1,0.5-0.2,0.7-0.3c1.5-0.5,3-1.1,4.4-1.8
			c0.4-0.2,0.8-0.4,1.2-0.6c0.9-0.7,1.9-1.3,2.9-1.9c1.1-1.3,2.4-2,2.8-4.2c0.1-1.1,0-2.3-0.2-3.4c-0.1-0.6-0.2-1.3-0.3-1.9
			s-0.1-1.9-0.5-2.3C180.6,56.3,179.8,62.4,170.7,65.5"/>
	</defs>
	<clipPath id="SVGID_5_">
		<use xlink:href="#SVGID_4_"  style="overflow:visible;"/>
	</clipPath>
	<g class="st3">
		
			<linearGradient id="SVGID_6_" gradientUnits="userSpaceOnUse" x1="-236.4696" y1="107.4963" x2="-227.7496" y2="107.4963" gradientTransform="matrix(3.7007 -0.7193 0.7193 3.7007 947.4504 -499.6668)">
			<stop  offset="0" style="stop-color:#061844"/>
			<stop  offset="0.13" style="stop-color:#061844"/>
			<stop  offset="0.14" style="stop-color:#1C2E59"/>
			<stop  offset="0.18" style="stop-color:#51658D"/>
			<stop  offset="0.22" style="stop-color:#788DB3"/>
			<stop  offset="0.24" style="stop-color:#90A5CA"/>
			<stop  offset="0.26" style="stop-color:#99AED3"/>
			<stop  offset="0.28" style="stop-color:#8B9FC5"/>
			<stop  offset="0.33" style="stop-color:#6579A1"/>
			<stop  offset="0.39" style="stop-color:#293C66"/>
			<stop  offset="0.42" style="stop-color:#061844"/>
			<stop  offset="0.78" style="stop-color:#061844"/>
			<stop  offset="1" style="stop-color:#061844"/>
		</linearGradient>
		<polygon class="st4" points="145.7,56.9 180.8,50.1 185.3,73.4 150.2,80.3 		"/>
	</g>
</g>
<path d="M202.2,62.5c0-1.1-2.1-1.8-2.7-2.4c0.8-0.9,1.9-1.1,2.9-1.7c-0.2-1.4-2.9-1-3.9-1c-2.9-0.1-5.8,0.1-8.7,0.2
	c1.2-0.6,2.4-1.2,3.6-1.6c0.5-0.2,2.5-0.7,2.7-1.3c0.4-1.4-3.4-1.2-4.1-1.2c-0.1-0.7,0.9-2.2-0.4-2.3c-0.7,0-1.8,1.1-2.4,1.3
	c-1.3,0.7-2.6,1.4-3.9,2.2c-1,0.7-1.1,0.9-2.2,0.5c-0.8-0.2-1.7-0.5-2.4-1c-1.4-1.5-3.3-2.5-5.3-2.8c-9.2-1.7-19.3,0.3-26.1,7.2
	c-0.7,0.6-1.2,1.4-1.5,2.3c-0.2,0.7,0.4,1.8,0.1,2.4c-0.1,0.3-1.3,0.8-1.6,1c-0.5,0.3-0.9,0.7-1.3,1.1c-0.8,0.8-1.5,1.7-2,2.8
	c-1,2.1-0.9,4.6,0.4,6.6c1.3,1.8,4,2.5,6.1,3c4.4,0.9,9,1.2,13.5,0.8c6.6-0.7,10.6-1.9,13.7-3.3c4.5-2.1,10-4.7,12.7-9
	c0.2-0.3,0.4-0.6,0.5-0.9c0.2-0.3,0.5-0.6,0.6-1c0.1-0.4,0.2-0.8,0.2-1.3c0-0.2,0-0.3,0-0.5l1.3-0.1c0.8,0,1.7-0.1,2.5-0.1
	c2.5,0,5,0.5,7.5,0.5C202.2,62.8,202.2,62.6,202.2,62.5L202.2,62.5 M182.6,57.8c1.7-0.9,3.1-2.1,4.8-3.1c1.3-0.7,2.5-1.4,3.7-2.1
	c0.1,0.8-0.2,1.1,0.4,1.6s2,0.2,2.7,0.3c-2,1-4.1,1.8-6.1,2.8s-4,2.6-6.1,3.9c-0.2-0.7-0.3-1.4-0.4-2.1
	C181.8,58.3,182.2,58.6,182.6,57.8C183,57.6,182.4,58.2,182.6,57.8 M180.5,57c0.2,1.9,1.1,3.8,0.9,5.7c-0.1,1.7-1.5,3.1-2.7,4
	c-3.1,2.4-6.6,4-10.4,4.8c-4.1,0.8-8.1,1.7-12.3,0.8c-1.7-0.4-4-1.1-5.1-2.4c-1.1-1.3-1.4-4.3-1.7-6c5.2,3.5,11.5,3,17.4,1.8
	c5.1-1.1,11.9-4.1,13.8-9.6C180.4,56.4,180.5,56.7,180.5,57 M189.6,63.8c-0.9,2.4-3.2,4.3-5.2,5.8c-2.2,1.8-4.6,3.2-7.2,4.3
	c-5.2,2.1-10.2,3.6-16,3.8c-2.3,0.1-4.6-0.1-6.9-0.4c-2.6-0.4-5.1-0.4-7.5-1.5c-2.1-0.9-3.6-2.6-3.3-5.1c0.6-2.7,2.3-5.1,4.8-6.4
	c0.5,2.1,0.9,5.4,2.5,7c1.3,1.3,4,2.1,5.7,2.4c5.2,0.9,10.5-0.3,15.4-2c2.1-0.8,4.2-1.8,6-3.2c1.5-1,3.5-2.5,4.2-4.3
	c0.1-0.3,0.2-0.5,0.2-0.8c0-0.7-0.4-0.7,0.4-1c0.5,0,1.1,0,1.6,0.1c1.1,0,2.2-0.1,3.3-0.1C188.8,62.5,190.2,62.2,189.6,63.8
	C189.6,64,189.9,63.4,189.6,63.8 M197.6,61.4c-4.7-0.2-9.3-0.2-14,0.1c3.9-4.3,10.8-3.2,15.9-2.9c-0.5,0.5-1.4,0.9-1,1.8
	c0.2,0.6,1,0.8,1.4,1.2C199.2,61.5,198.4,61.4,197.6,61.4L197.6,61.4"/>
<path class="st5" d="M191.3,52.4c0.2,0.4,0,1.2,0.1,1.6c0.9,0.5,2.4,0.2,3.4,0.5c-0.6,0.3-1.2,0.6-1.9,0.9c-1.9,0.8-3.8,1.7-5.6,2.8
	c-1.9,1.1-3.6,2.4-5.4,3.5c-0.1-1.1-0.4-2-0.5-3.1c0.6-0.4,1.4-1.1,2.5-2C186.5,54.9,191.3,52.4,191.3,52.4"/>
<g>
	<defs>
		<path id="SVGID_7_" d="M191.8,58.2h-1c-1-0.1-2,0-3,0.2c-0.9,0.4-1.7,0.9-2.5,1.5c-0.6,0.4-1.2,0.8-1.7,1.3
			c-0.1,0.1-0.3,0.3-0.3,0.5c2.7-0.1,5.5-0.2,8.4-0.2c1.4,0,2.9-0.1,4.3,0s2.8,0.3,4.2,0.2c-0.3-0.8-1.6-0.9-1.6-1.7s1.1-1,1.3-1.6
			c-2-0.1-4-0.2-6.1-0.2C193.1,58.2,192.5,58.2,191.8,58.2"/>
	</defs>
	<clipPath id="SVGID_8_">
		<use xlink:href="#SVGID_7_"  style="overflow:visible;"/>
	</clipPath>
	<g class="st6">
		
			<linearGradient id="SVGID_9_" gradientUnits="userSpaceOnUse" x1="-92.7244" y1="144.1084" x2="-84.0044" y2="144.1084" gradientTransform="matrix(1.94 0 0 1.94 363.26 -219.6154)">
			<stop  offset="0" style="stop-color:#061039"/>
			<stop  offset="0.4" style="stop-color:#061641"/>
			<stop  offset="1" style="stop-color:#061844"/>
		</linearGradient>
		<rect x="183.3" y="58.2" class="st7" width="17" height="3.5"/>
	</g>
</g>
<g>
	<defs>
		<path id="SVGID_10_" d="M186.9,62.2c-1,0-2,0.1-3,0.1c-0.3,0-1.6-0.2-1.8,0s0.1,0.7,0,1.2c-0.2,1.2-1.9,3-3.2,4
			c-3.2,2.5-7,4.3-11,5.1c-4.3,0.9-8.8,1.7-13.1,0.3c-1.7-0.5-3.8-1.3-4.6-2.9c-0.9-2-1.5-4-1.8-6.1c-2.5,1.3-4.3,3.6-5,6.3
			c-0.6,2.8,1,4.6,3.3,5.7c2.7,1.2,5.7,1.2,8.6,1.6c3,0.3,6,0.3,9,0c2.8-0.2,5.6-0.8,8.2-1.7c3-0.8,5.9-2,8.5-3.6
			c2.5-1.5,4.7-3.3,6.8-5.4c0.8-0.9,1.5-1.9,2-3c0.4-0.9,0.3-1.2-0.4-1.5c-0.4-0.1-0.7-0.2-1.1-0.2
			C187.8,62.2,187.3,62.3,186.9,62.2 M181.4,57.8c0.7-0.5,1.4-1,2-1.6c-0.7-0.3-1.5-0.5-2.3-0.5C181.1,56.4,181.2,57.1,181.4,57.8
			 M162.5,52.4c-2.4,0.6-4.8,1.5-7,2.8c-1.1,0.6-2.1,1.3-3.1,2c-1,0.7-1.9,1.5-2.7,2.4c-0.7,0.8-1.3,1.5-0.8,2.7
			c0.6,0.9,1.4,1.6,2.4,2c2.7,1.3,5.7,1.4,8.6,1.4c4.7,0,10-1,14-3.5c1.9-1.2,4.3-3.1,5.4-5.1c0.5-0.7,0.6-1.6,0.5-2.4
			c-0.2-0.8-0.8-1.4-1.6-1.6c-3-0.9-6-1.4-9.1-1.4C166.7,51.6,164.6,51.9,162.5,52.4"/>
	</defs>
	<clipPath id="SVGID_11_">
		<use xlink:href="#SVGID_10_"  style="overflow:visible;"/>
	</clipPath>
	<g class="st8">
		
			<linearGradient id="SVGID_12_" gradientUnits="userSpaceOnUse" x1="-258.4654" y1="65.4342" x2="-249.7454" y2="65.4342" gradientTransform="matrix(5.37 0 0 5.37 1531.01 -286.5666)">
			<stop  offset="0" style="stop-color:#FFF295"/>
			<stop  offset="1.000000e-02" style="stop-color:#FFF295"/>
			<stop  offset="0.19" style="stop-color:#FFED84"/>
			<stop  offset="0.55" style="stop-color:#FFDF56"/>
			<stop  offset="1" style="stop-color:#FFCC16"/>
		</linearGradient>
		<rect x="142.8" y="51.6" class="st9" width="47.4" height="26.4"/>
	</g>
</g>
<polygon class="st10" points="100.8,79.1 82.4,66.8 84.8,63.3 100.1,73.5 103.8,67.8 107,69.9 "/>
<path class="st10" d="M95.9,49.3l10.8,11.1c1.5,1.5,2.9,1.7,4.4,0.2c1.5-1.4,1.4-2.9-0.1-4.4l-10.8-11.1l3-3L114,53.3
	c3.4,3.5,2.8,7-0.3,10s-6.6,3.6-10,0.1L92.9,52.3L95.9,49.3z"/>
<polygon class="st10" points="120.2,30.8 122.1,34 118,36.6 127.7,52.2 124.1,54.4 114.4,38.9 110.2,41.5 108.2,38.3 "/>
<path class="st10" d="M127.5,35.1c-1.9-5.1,0.1-7.9,4-9.4s7.2-0.6,9.1,4.5l2.8,7.4c1.9,5.1-0.1,8-4,9.4c-3.9,1.4-7.2,0.6-9.1-4.5
	L127.5,35.1z M134.4,41.6c0.9,2.3,2.1,2.6,3.7,2c1.6-0.6,2.3-1.6,1.5-3.9l-3.1-8.4c-0.9-2.3-2.1-2.5-3.7-2s-2.3,1.6-1.5,3.9
	L134.4,41.6z"/>
<polygon class="st10" points="148.6,43.6 145.9,21.7 150.6,21.1 158,33.4 158,33.4 156.4,20.4 160.3,19.9 163,41.9 158.9,42.4 
	150.8,29 150.7,29 152.5,43.1 "/>
<polygon class="st10" points="190,23.2 189.3,26.8 184.5,25.9 181,43.9 176.9,43.1 180.4,25.1 175.5,24.2 176.2,20.5 "/>
<path class="st10" d="M192.5,31.3c2.1-5,5.5-5.7,9.3-4.1c3.8,1.6,5.7,4.5,3.6,9.5l-3,7.3c-2.1,5-5.5,5.7-9.3,4.2s-5.7-4.5-3.6-9.5
	L192.5,31.3z M193.2,40.7c-0.9,2.3-0.2,3.3,1.3,3.9c1.6,0.6,2.8,0.4,3.7-1.8l3.5-8.3c0.9-2.3,0.2-3.3-1.3-3.9s-2.8-0.4-3.7,1.8
	L193.2,40.7z"/>
<polygon class="st10" points="215,33.4 218.1,35.8 211.4,49 211.4,49 222.8,39.6 226,42.1 219.4,55.3 219.4,55.4 230.7,45.9 
	233.8,48.3 216.3,62.6 213.1,60.1 220.1,46.3 220,46.3 208,56.1 204.8,53.5 "/>
<polygon class="st10" points="221,67.7 239.1,55 241.8,58.8 234.4,71.1 234.4,71.1 245.2,63.6 247.4,66.8 229.3,79.5 227,76.2 
	234.9,62.7 234.9,62.6 223.2,70.8 "/>
<polygon class="st10" points="81.6,162 100.3,150.2 106,159.2 103.2,161 99.6,155.2 94.7,158.2 97.4,162.5 94.6,164.3 91.9,160 
	83.6,165.2 "/>
<path class="st10" d="M103.5,164.8c2.3-2.1,5.4-2.5,8.1,0.4s2.1,6-0.2,8.1l-8.3,7.8c-2.3,2.1-5.4,2.5-8.1-0.4s-2.1-6,0.2-8.1
	L103.5,164.8z M97.8,175.3c-1.2,1.1-1.5,2-0.4,3.1c1,1.1,2,0.9,3.2-0.2l8.2-7.6c1.2-1.1,1.5-2,0.4-3.1s-1.9-0.9-3.2,0.2L97.8,175.3z
	"/>
<path class="st10" d="M114.6,176.1c1.8-2.5,4.8-3.5,8-1.2s3.2,5.5,1.4,8l-6.6,9.3c-1.8,2.5-4.8,3.5-8,1.2s-3.2-5.4-1.4-8
	L114.6,176.1z M111.1,187.5c-1,1.3-1,2.3,0.2,3.2s2.1,0.5,3.1-0.8l6.5-9.1c1-1.3,1-2.3-0.2-3.2s-2.1-0.5-3.1,0.8L111.1,187.5z"/>
<polygon class="st10" points="130.4,183.9 127.1,182.3 128.6,179.3 138.6,184.1 137.2,187.1 133.9,185.5 125.8,202.5 122.4,200.9 
	"/>
<path class="st10" d="M140.4,184.8l5.5,1.4c3.9,1,5.1,3.5,4.2,7.2c-0.4,1.9-1.8,3.4-3.7,3.8c1.6,1.3,2.3,3.1,1.6,5.8
	c-0.9,3.5-3.2,5.8-7.4,4.7l-5.8-1.6L140.4,184.8z M139.2,204.1l1.5,0.4c1.9,0.5,3-0.4,3.5-2.6s0-3.5-2.1-4.1l-1.2-0.3L139.2,204.1z
	 M141.8,194.5l1.3,0.4c1.3,0.4,2.7-0.4,3.1-1.7c0-0.1,0.1-0.2,0.1-0.3c0.5-2,0-3.2-1.6-3.6l-1.4-0.4L141.8,194.5z"/>
<path class="st10" d="M153.3,210.2l-3.7-0.3l6.1-21.6l4.7,0.4l2,22.4l-3.7-0.3l-0.2-4.9l-4.2-0.4L153.3,210.2z M155.3,202.2l3,0.3
	l-0.6-9.6h-0.1L155.3,202.2z"/>
<polygon class="st10" points="167.3,210.9 165.8,188.8 169.6,188.6 170.9,207.3 176.8,206.9 177.1,210.2 "/>
<polygon class="st10" points="181.8,209.4 176.9,187.9 180.6,187 184.7,205.4 190.5,204 191.3,207.2 "/>
<path class="st10" d="M203.5,186.2l-0.8-1.5c-0.9-1.6-2-2-2.9-1.5c-1.4,0.7-1.4,1.6-0.7,3.1l5.2,9.9c0.8,1.5,1.6,1.9,2.9,1.2
	s1.3-1.6,0.6-2.8l-1.2-2.4l3.4-1.8l1.2,2.2c1.4,2.8,1,5.9-2.4,7.6c-3.5,1.8-6.3,0.4-7.8-2.3l-5.3-10.1c-1.4-2.8-1-5.9,2.6-7.7
	c3.4-1.8,6.3-0.2,7.8,2.8l0.8,1.4L203.5,186.2z"/>
<polygon class="st10" points="219.5,193.7 206,176.2 209,173.9 220.5,188.7 225.2,185.1 227.2,187.7 "/>
<path class="st10" d="M214,170l2.6-2.8l12.2,11.4c1.2,1.1,2.2,1.2,3.1,0.2s0.8-2-0.4-3.1l-12.2-11.4l2.6-2.8l12,11.3
	c2.8,2.6,2.8,5.6,0.3,8.3s-5.5,2.8-8.3,0.2L214,170z"/>
<path class="st10" d="M223.9,159l3-4.8c2.1-3.5,4.9-3.9,8.1-1.9c1.7,0.9,2.7,2.7,2.5,4.7c1.8-1.2,3.6-1.4,6.1,0.1
	c3.1,1.9,4.6,4.8,2.3,8.4l-3.2,5.1L223.9,159z M233.6,160.5l0.7-1.2c0.8-1.2,0.4-2.7-0.8-3.5c-0.1-0.1-0.2-0.1-0.3-0.2
	c-1.8-1.1-3.1-1-4,0.5l-0.8,1.2L233.6,160.5z M242,165.7l0.8-1.4c1-1.7,0.4-3-1.4-4.1s-3.3-1.1-4.5,0.9l-0.6,1L242,165.7z"/>
<path d="M69,119.8c0.8,0,1.3-0.1,1.3-1.3v-7.3c0-1.2-0.5-1.3-1.3-1.3v-0.3h6.7l0.1,1.9h-0.4c-0.2-1-0.7-1.3-1.7-1.3h-1.3
	c-0.8,0-0.8,0.2-0.8,1.3v2.8h1.9c1,0,1.3-0.2,1.3-1.3h0.3v3.3h-0.3c0-0.9-0.4-1.3-1.3-1.3h-1.9v3.2c0,1.2,0.1,1.3,0.8,1.3h1.4
	c0.8,0.1,1.6-0.4,1.8-1.3c0-0.1,0-0.1,0-0.2H76l-0.1,2.1H69V119.8z"/>
<path d="M83.1,111.9c-0.1-1.1-1.2-1.9-2.3-1.8c-1,0-1.8,0.7-1.8,1.7c0,0,0,0,0,0.1c0,1.4,1.8,1.9,3,2.7s1.9,1.4,1.9,2.9
	c0,2-1.6,3-3.6,3c-0.8,0-1.7-0.1-2.5-0.3l-0.1-2.2H78c0.2,1.1,1.2,1.9,2.4,1.8c1.1,0.1,2.1-0.8,2.1-1.9c0,0,0-0.1,0-0.1
	c0-1.7-2.4-2.2-3.8-3.3c-0.7-0.5-1-1.3-1-2.1c0-1.9,1.5-2.7,3.3-2.7c0.8,0,1.5,0.1,2.3,0.3l0.1,2.2L83.1,111.9z"/>
<path d="M86.3,119.8c0.9,0,1.4-0.1,1.4-1.3v-8.3h-0.9c-1.5,0-1.7,0.7-1.9,1.5h-0.4l0.1-2.1h7.4l0.1,2.1h-0.4c-0.1-1-0.5-1.5-2-1.5
	H89v8.3c0,1.2,0.5,1.3,1.4,1.3v0.3h-4.1V119.8z"/>
<path d="M233.3,119.8c1.2,0,1.4-0.2,1.4-1.7v-5.3c0-0.8-0.1-1.2-0.7-1.2c-0.3,0-0.6,0.1-0.9,0.2v-0.3l2.3-1.3h0.5v7.9
	c0,1.5,0.3,1.7,1.2,1.7v0.3h-3.8V119.8z"/>
<path d="M239.4,117.5c-0.2-1.2,0.6-2.2,1.8-2.4l0,0c-1-0.2-1.7-1.2-1.6-2.2c0-1.4,1.1-2.5,2.5-2.5c0.1,0,0.1,0,0.2,0
	c1.3-0.2,2.6,0.8,2.7,2.1c0,0.1,0,0.3,0,0.4c0.1,1-0.6,2-1.6,2.2l0,0c1.1,0.3,1.9,1.3,1.8,2.4c0,2-1.2,2.8-2.9,2.8
	c-1.4,0.2-2.7-0.8-2.9-2.3C239.4,117.8,239.4,117.7,239.4,117.5 M242.3,119.6c1.1,0,1.6-0.9,1.6-2.1s-0.5-2.1-1.6-2.1
	s-1.6,0.9-1.6,2.1S241.2,119.6,242.3,119.6 M242.3,114.7c1.1,0,1.4-0.9,1.4-1.9s-0.4-1.9-1.4-1.9s-1.4,0.9-1.4,1.9
	S241.3,114.7,242.3,114.7"/>
<path d="M247.3,117.5c-0.2-1.2,0.6-2.2,1.8-2.4l0,0c-1-0.2-1.7-1.2-1.6-2.2c0-1.4,1.1-2.5,2.5-2.5c0.1,0,0.1,0,0.2,0
	c1.3-0.2,2.6,0.7,2.7,2.1c0,0.1,0,0.3,0,0.4c0.1,1-0.6,2-1.6,2.2l0,0c1.1,0.3,1.9,1.3,1.8,2.4c0,2-1.2,2.8-2.9,2.8
	c-1.4,0.2-2.7-0.8-2.9-2.3C247.3,117.8,247.3,117.6,247.3,117.5 M250.3,119.6c1.1,0,1.6-0.9,1.6-2.1s-0.5-2.1-1.6-2.1
	s-1.6,0.9-1.6,2.1S249.1,119.6,250.3,119.6 M250.3,114.7c1.1,0,1.4-0.9,1.4-1.9s-0.4-1.9-1.4-1.9s-1.4,0.9-1.4,1.9
	S249.2,114.7,250.3,114.7"/>
<path d="M256.6,114.7c0.5-0.3,1.1-0.5,1.8-0.5c1.4,0,2.6,1.1,2.6,2.6c0,0.1,0,0.1,0,0.2c0,2.3-1.8,3.3-3.7,3.3
	c-0.7,0-1.4-0.1-2.1-0.3v-0.6c0.5,0.2,1.1,0.3,1.6,0.3c1.5,0.1,2.8-0.9,2.9-2.4c0-0.1,0-0.2,0-0.3c0-1-0.8-1.9-1.8-1.9
	c-0.6,0-1.2,0.3-1.6,0.8h-0.8l0.3-5.4h4.6v0.8h-3.5L256.6,114.7z"/>
<path class="st5" d="M126.4,116.1l31.4-0.2V83c0,0-4.5-2.4-7.8-0.6s-10.3,4.5-16.6,4.1c-3.8-0.3-4.2-1.2-4.2-1.2l-5.2,9
	c0,0,7,4.4,7.3,7.1c0,0,2.3,5.1-0.2,9C129.8,112.5,128.3,114.4,126.4,116.1"/>
<path class="st11" d="M204.1,116.1l-31.9-0.2V82.1c0,0,4.5-1.4,7.8,0.3s10.3,4.6,16.6,4.1c3.8-0.3,4.2-1.2,4.2-1.2l5.2,9
	c0,0-7,4.4-7.3,7.1c0,0-2.3,5.1,0.1,9C200.3,112.6,202,114.5,204.1,116.1"/>
<path class="st11" d="M157.6,172.5v-42l-34.3-0.2c1.7,4.5,2.7,9.3,2.8,14.2c0.1,7.7,1.1,13.8,12.8,16.4
	C147.2,162.9,157.6,172.5,157.6,172.5"/>
<path class="st5" d="M172.3,171.2v-40.7l34.4-0.1c-1.8,4.5-2.8,9.3-2.9,14.2c-0.1,7.7-1.1,13.8-12.8,16.4
	C182.7,162.9,172.3,171.2,172.3,171.2"/>
<path class="st12" d="M186.4,94.2c1,0.1,2.3,1.2,1.9,2.3c0.8,0.1,1.5,0.4,2.1,0.9c0.6,0.6,0.9,1.4,0.7,2.3c0.7,0.7,2.2,1.3,1.9,2.9
	c-0.1,0.3-0.3,0.6-0.6,0.8c0.7,0.6,1.4,2.1,0.6,3.1c0.4,0.6,0.5,1.2,0.4,1.9c-0.1,0.4-0.6,0.8-0.5,1.2c-0.9,0.6-2.3,0.6-3.7,0.9
	c-1,0.2-2,0.4-3,0.5c-2.2,0.2-4.3,0.2-6.5,0c-0.4,0-0.8-0.1-1.2-0.2c-0.8-0.1-1.5-0.2-2.2-0.3c-0.5-0.2-0.9-0.5-1.3-0.9
	c-0.3-0.2-0.6-0.3-0.8-0.7c-0.3-0.8-0.1-1.7,0.5-2.3c-0.9-1.1,0-2.5,0.8-3.1c-0.4-0.3-0.3-1.4-0.1-1.9c0.3-0.8,1.3-1.3,1.8-1.7
	c-0.5-1.8,1.4-3.2,2.8-3.6c0-1.2,1.2-1.9,2.3-2.2c0.1-0.1,0.1-0.3,0.2-0.5c0.6-0.4,1.2-0.6,1.9-0.7c0.5,0.1,0.9,0.3,1.3,0.6
	c0.1,0.1,0.1,0.2,0.2,0.3S186.5,93.8,186.4,94.2"/>
<path class="st13" d="M184.2,93.5c0.2,0,0.3,0.1,0.4,0C184.5,93.5,184.3,93.4,184.2,93.5"/>
<g>
	<defs>
		<path id="SVGID_13_" d="M182.7,94.7c-0.9,0-1.8,0.6-2.1,1.5c0.1,0.2,0.3,0.2,0.3,0.4c-0.3,0.3-0.7,0.2-1.1,0.3
			c-1.1,0.4-1.9,1.4-2,2.6c0.1,0.2,0.3,0.2,0.4,0.4c-1,0.8-2.4,1.2-2.2,3.2c0.3,0.1,0.6,0,0.7,0.3c-0.4,0.3-0.8,0.6-1.1,1
			c-0.3,0.4-0.8,1-0.4,1.6c0.3-0.1,0.7-0.2,0.8,0.2c-0.5,0.4-0.9,0.9-1.3,1.4c-0.1,0.6,0.1,1.3,0.6,1.7c2.3-0.9,4.7-1.3,7.1-1.4
			c-0.3-1,0.4-2.5,1.1-2.7c1.5-0.3,2.4,1.1,2,2.7c1.8,0.1,3.6,0.4,5.3,0.9c0.2,0.2,0.5,0.2,0.6,0.4c0.2,0,0.4-0.1,0.7-0.2
			c0.2-0.7,0.9-1.4,0.4-2.2c-1.2,0-0.2-0.7,0-1.2c0.4-1.2-0.6-1.7-1-2.4c0.1-0.3,0.4-0.4,0.5-0.7c0.7-1.6-1.3-2-1.9-2.7
			c0.3-0.6,0.3-1.3-0.1-1.8c-0.5-0.7-2.5-0.7-2.7-1.5c0-0.3,0.2-0.5,0.1-0.8c-0.1-0.6-0.8-0.9-1.4-0.8c-0.3-0.3-0.8-0.4-1.2-0.4
			C184.2,94.5,183.4,94.7,182.7,94.7"/>
	</defs>
	<clipPath id="SVGID_14_">
		<use xlink:href="#SVGID_13_"  style="overflow:visible;"/>
	</clipPath>
	<g class="st14">
		
			<linearGradient id="SVGID_15_" gradientUnits="userSpaceOnUse" x1="-112.0632" y1="153.9921" x2="-103.3432" y2="153.9921" gradientTransform="matrix(2.07 0 0 2.07 406.82 -216.9436)">
			<stop  offset="0" style="stop-color:#FFF295"/>
			<stop  offset="1.000000e-02" style="stop-color:#FFF295"/>
			<stop  offset="0.19" style="stop-color:#FFED84"/>
			<stop  offset="0.55" style="stop-color:#FFDF56"/>
			<stop  offset="1" style="stop-color:#FFCC16"/>
		</linearGradient>
		<rect x="174.6" y="94.5" class="st15" width="18.6" height="14.7"/>
	</g>
</g>
<g>
	<defs>
		<path id="SVGID_16_" d="M181.2,108.3c-0.7,0-1.3,0.3-2,0.3c-1.1,0.1-2.1,0.4-3,0.9c4.7,1,9.6,0.9,14.3-0.2
			c-2.3-0.8-4.7-1.1-7.1-1.1C182.6,108.2,181.9,108.2,181.2,108.3"/>
	</defs>
	<clipPath id="SVGID_17_">
		<use xlink:href="#SVGID_16_"  style="overflow:visible;"/>
	</clipPath>
	<g class="st16">
		
			<linearGradient id="SVGID_18_" gradientUnits="userSpaceOnUse" x1="-50.5793" y1="195.282" x2="-41.8493" y2="195.282" gradientTransform="matrix(1.64 0 0 1.64 259.14 -210.8724)">
			<stop  offset="0" style="stop-color:#FFF295"/>
			<stop  offset="1.000000e-02" style="stop-color:#FFF295"/>
			<stop  offset="0.19" style="stop-color:#FFED84"/>
			<stop  offset="0.55" style="stop-color:#FFDF56"/>
			<stop  offset="1" style="stop-color:#FFCC16"/>
		</linearGradient>
		<rect x="176.2" y="108.2" class="st17" width="14.3" height="2.3"/>
	</g>
</g>
<path class="st12" d="M185.8,96.6c-1-0.2-2-0.2-3,0c-0.3,0.1-0.6,0-0.7,0.3c0.1,0.2,0.4,0.1,0.7,0.1c0.6,0,1.2,0,1.8,0
	s1.3,0.3,1.8,0.1C186.4,96.7,186,96.6,185.8,96.6"/>
<path class="st12" d="M188.4,99.2c0.1,0.1,0.1,0.3,0.3,0.4c0.2,0.1,0.2-0.1,0.2-0.3C188.8,99.1,188.6,99.1,188.4,99.2
	C188.5,99.2,188.4,99.2,188.4,99.2"/>
<path class="st12" d="M189.3,99.5h0.2v-0.2h-0.2C189.2,99.4,189.2,99.5,189.3,99.5"/>
<path class="st12" d="M187.8,99.5c-0.6-0.2-1.3-0.2-1.9-0.2C186.2,99.5,187.4,100,187.8,99.5"/>
<path class="st12" d="M179.1,99.7c0.4,0.3,1.2-0.1,1.7-0.2c0-0.2,0.2-0.1,0.3-0.2C180.4,99.5,179.5,99.4,179.1,99.7"/>
<path class="st12" d="M190.5,102.1c-0.4-0.1-0.7-0.2-1.1-0.2C189.4,102.2,190.3,102.4,190.5,102.1"/>
<path class="st12" d="M190.8,102.3c0,0.2,0.2,0.4,0.5,0.4c0-0.1,0.1-0.1,0.1-0.2C191.2,102.3,191,102.2,190.8,102.3"/>
<path class="st12" d="M183.1,102.3c-0.6,0-1.4,0-1.8,0c-1.1,0-2.2,0.2-3.3,0.5c-0.2,0.1-0.6,0.1-0.7,0.3c0.6,0,1.1-0.1,1.6-0.3
	c1.5-0.2,2.9-0.2,4.4-0.2c0.2,0,0.6,0.1,0.7-0.1C184,102.2,183.4,102.3,183.1,102.3"/>
<path class="st12" d="M191.6,103.3c-1.1-0.4-2.3-0.6-3.5-0.6c1.2,0.3,2.4,0.6,3.6,0.9C191.6,103.5,191.6,103.5,191.6,103.3"/>
<path class="st12" d="M191,105.3c-0.1-0.2-0.6-0.3-0.9-0.3C190.1,105.3,190.7,105.4,191,105.3"/>
<path class="st12" d="M181.1,105c-1.1,0.1-2.2,0.2-3.2,0.5c-0.3,0.1-0.8,0.1-0.9,0.4c1.5-0.3,3-0.5,4.5-0.6c0.5,0,1.1,0,1.6,0
	C183,104.8,181.6,105,181.1,105"/>
<path class="st12" d="M188.5,105.5c0.9,0.2,1.7,0.3,2.5,0.6c0.1,0.1,0.5,0.3,0.6,0c-0.5-0.3-1-0.4-1.5-0.5l-1.7-0.3l0,0
	C188.4,105.3,188.5,105.3,188.5,105.5"/>
<path class="st12" d="M191.7,105.6c0-0.3-0.2-0.3-0.5-0.3c0,0.2,0.2,0.3,0.3,0.3C191.6,105.6,191.6,105.6,191.7,105.6"/>
<path class="st12" d="M191.3,108.4c0.1,0.2,0.3,0.3,0.5,0.4c0-0.1,0.1-0.1,0.1-0.2c-0.3-0.6-1.2-0.8-2-0.9
	C190.2,108,190.8,108.1,191.3,108.4"/>
<path class="st18" d="M143,133c0.1,0.2,0.4,0.2,0.6,0.3c0.6-0.8,1.7-1.1,2.6-0.6c0.8,0.5,2.6,2.5,2,3.9c-0.1,0.3-0.5,0.5-0.5,0.7
	c0,0.4,0.7,0.2,1,0.4s0.5,1.1,0.5,1.8c0,1.1-0.4,2.1-1.1,2.9c-0.3,0.2-0.5,0.3-0.8,0.3c-0.3,0-0.5-0.4-0.9-0.3s-0.8,1.1-1.2,1.3
	c-0.6,0.3-1.3,0.5-2,0.5c-0.6,0-1.1,0-1.7-0.1c-0.2,0-0.5,0-0.7,0c-0.7-0.3-1-1.1-0.6-1.8c0-0.1,0.1-0.1,0.1-0.2
	c-0.1-0.3-0.5-0.2-0.8-0.3c-0.3-0.1-0.4-0.3-0.6-0.3c-0.2,0-0.6,0.3-1.1,0.2c-0.8-0.5-1.4-1.4-1.4-2.4c-0.2-1.6,0.4-3,2.1-2.8
	c0.1-0.2-0.1-0.4,0-0.6c-0.2-0.2-0.7-0.2-1-0.4c0-0.6,0.2-1.2,0.6-1.7c0.5-0.6,1-1.1,1.7-1.4c0.3-0.1,0.6-0.3,0.9-0.4
	c0.1,0,0.2,0,0.3,0c0.5-0.2,1.1-0.2,1.6-0.2C142.9,132.2,143.1,132.6,143,133 M140.9,133.5c-0.4,0.4-1,0.6-1.3,1
	c-0.1,0.1-0.2,0.3-0.2,0.4c0.3-0.4,0.7-0.8,1.2-1c0,0.1,0.1,0.2,0.2,0.2s0.4-0.2,0.4-0.5C141.2,133.5,141,133.5,140.9,133.5
	 M145.2,134c0.2,0.5,1.1,0.4,1,1.3c0.2,0.2,0.2,0,0.4,0.1C146.7,134.6,145.9,134.2,145.2,134 M143.8,137c-0.3,0.2-0.6,0.3-1,0.4
	c0.1-0.2,0.1-0.3-0.2-0.3c-0.2,0,0.1,0.2,0,0.3c-0.7-0.1-1.3-0.8-1.8-0.4c0,0.6,0.4,0.9,0.5,1.4c-0.3,0.4-0.9,0.6-0.9,1.3
	c0.1,0.1,0.2,0.1,0.3,0.1c0.5-0.6,1.6,0,1.8,0.5c-0.1,0.4,0.1,0.8,0.4,0.8c0.3,0,0.1-0.5,0.1-0.7c0.1-0.4,0.4-0.8,0.8-1
	c0.2-0.1,0.3-0.3,0.5-0.5c0.2-0.2,0.7-0.2,0.7-0.5s-0.3-0.4-0.5-0.6c-0.3-0.3-0.2-0.8,0.1-1.1C144.4,136.1,144.1,136.8,143.8,137
	 M138.5,140.9c0-0.1,0.2,0,0.2-0.2c0-0.2-0.3-0.2-0.4-0.3c-0.1-0.4-0.2-0.8-0.2-1.2c-0.1-0.1,0,0.1-0.1,0.1c0-0.4,0.1-1-0.1-1.3
	C137.6,139,137.3,140.8,138.5,140.9 M147.9,138.6c0,0.5,0.1,1.1,0,1.6c0,0.2-0.2,0.4,0,0.5c0.6-0.1,0.5-2,0.1-2.2h-0.1L147.9,138.6z
	 M143.9,139.9c0.1,0,0.1,0.1,0.2,0.1c0.3,0,0.2-0.4,0.5-0.5C144.4,139,144,139.7,143.9,139.9 M139.9,141.5
	C139.8,141.9,140.4,141.6,139.9,141.5 M142.3,142.8c-0.1-0.1-0.3-0.1-0.4,0c0,0.2,0.1,0.3,0.3,0.4c0.6,0,1.2-0.1,1.8-0.4
	C143.6,142.3,142.7,142.7,142.3,142.8"/>
<path class="st12" d="M141.2,133.7c0,0.3-0.2,0.4-0.4,0.5c-0.2,0.1-0.2,0-0.2-0.1c-0.5,0.2-0.9,0.6-1.2,1c0-0.2,0.1-0.3,0.2-0.4
	c0.4-0.4,0.9-0.7,1.3-1C141,133.6,141.1,133.6,141.2,133.7"/>
<path class="st12" d="M146.6,135.5c-0.1-0.1-0.2,0-0.4-0.1c0.1-0.9-0.8-0.8-1-1.3C145.9,134.2,146.7,134.6,146.6,135.5"/>
<path class="st12" d="M144.6,136.8c-0.3,0.3-0.3,0.8-0.1,1.1c0.1,0.2,0.5,0.4,0.4,0.6s-0.5,0.3-0.7,0.4c-0.1,0.2-0.3,0.3-0.5,0.5
	c-0.4,0.2-0.6,0.6-0.8,1c0,0.2,0.1,0.5-0.1,0.7c-0.2,0.2-0.5-0.4-0.4-0.8c-0.2-0.5-1.2-1.1-1.8-0.5c-0.1,0-0.2-0.1-0.3-0.1
	c0-0.7,0.6-0.9,0.9-1.3c-0.2-0.5-0.6-0.8-0.5-1.5c0.5-0.4,1.1,0.4,1.8,0.4c0.2-0.1-0.1-0.2,0-0.3c0.1-0.1,0.2,0.1,0.1,0.3
	c0.4-0.1,0.7-0.2,1-0.4C144,136.8,144.3,136.2,144.6,136.8 M143.6,138c-0.3-0.9-2.1,0.1-1.6,1c0.2,0,0.3,0.2,0.5,0.2
	C143.1,139,143.8,138.7,143.6,138"/>
<path class="st13" d="M142.5,139.2c-0.2,0-0.3-0.2-0.5-0.2c-0.5-0.8,1.3-1.9,1.6-1C143.8,138.6,143.1,138.9,142.5,139.2"/>
<path class="st12" d="M137.8,138.2c0.2,0.3,0.1,0.9,0.1,1.3c0.1,0,0-0.2,0.1-0.1c0,0.4,0,0.8,0.2,1.2c0.1,0.1,0.3,0.1,0.4,0.3
	c0,0.2-0.1,0.1-0.2,0.2C137.3,140.9,137.6,139.1,137.8,138.2"/>
<path class="st12" d="M147.9,138.6L147.9,138.6c0.4,0.3,0.6,2.1,0,2.2c-0.1-0.2,0-0.3,0-0.5c0.1-0.5,0-1.1,0-1.6L147.9,138.6z"/>
<path class="st12" d="M144.5,139.7c-0.3,0.1-0.2,0.4-0.5,0.5c-0.1,0-0.1-0.1-0.2-0.1C144,139.8,144.4,139.1,144.5,139.7"/>
<path class="st12" d="M139.9,141.6C140.4,141.7,139.8,142,139.9,141.6"/>
<path class="st19" d="M152.2,144.6c0,0.1,0.2,0.1,0.2,0.2c-0.1,0.3-0.2,0.6-0.3,0.8c0,0.1,0,0.2,0.1,0.2c-0.3,0.6-0.7,1.1-1.1,1.7
	c0,0.2,0.1,0.2,0.1,0.3c-0.4,0.4-0.7,0.8-1.1,1.2c-0.1,0.1-0.1,0.2-0.2,0.3s-0.3,0.1-0.4,0.2s-0.2,0.2-0.3,0.3
	c-0.5,0.3-1.1,0.4-1.5,0.8c0-0.6,0.1-1.2,0.3-1.8c-0.4,0.1-0.3,0.7-0.5,1.1c-0.4-0.1-0.5-0.6-0.6-1c-0.1-0.4-0.2-0.9-0.2-1.3
	c0.1,0,0.3,0,0.4-0.1c-0.1-0.6,0-1.1,0.3-1.6c0.1,0,0.1,0.1,0.2,0.1c0.4-0.3,0.4-0.8,0.6-1.2c0.2-0.4,0.6-0.5,0.8-0.8
	c0.2,0,0.2-0.1,0.3,0c0.7-1.1,2-1.9,3.3-2c0,0,0.1,0,0.1,0c-0.2,0.6,0.1,1.1,0,1.6C152.4,144.1,152.2,144.2,152.2,144.6
	 M150.5,144.5c-0.5,0.5-0.8,1.1-1.1,1.7c-0.1,0.2-0.5,0.4-0.3,0.6c0.4,0,0.5-0.5,0.7-0.8c0.2-0.4,0.4-0.7,0.6-1
	c0.2-0.2,0.4-0.2,0.3-0.5C150.6,144.5,150.5,144.5,150.5,144.5 M148.5,148.4c0.1-0.3,0.1-0.6,0-0.9c0.1,0,0.2,0,0.2,0.1
	c0.1-0.1,0.3-0.3,0.2-0.5s-0.3,0.2-0.4,0.2c0-0.1,0-0.3,0-0.4c-0.1,0-0.1-0.1-0.3-0.1C148.2,147.3,147.8,148.4,148.5,148.4"/>
<path class="st12" d="M143.9,142.8c-0.5,0.3-1.1,0.4-1.8,0.4c-0.2-0.1-0.3-0.2-0.3-0.3c0.1-0.1,0.2-0.1,0.4,0
	C142.7,142.9,143.6,142.5,143.9,142.8"/>
<path class="st12" d="M150.7,144.6c0.1,0.3-0.2,0.4-0.3,0.5c-0.2,0.3-0.4,0.6-0.6,1c-0.2,0.3-0.3,0.8-0.7,0.8
	c-0.2-0.2,0.2-0.4,0.3-0.6c0.3-0.6,0.7-1.2,1.1-1.7C150.6,144.6,150.7,144.6,150.7,144.6"/>
<path class="st11" d="M142.4,145.2c0.1,0.6,0.2,1.3,0.2,1.9c-0.1-0.1-0.2-0.3-0.2-0.5c-0.5-0.3-0.4-1.2-1.2-1.2
	c0-0.2-0.2-0.2-0.2-0.4C141.5,145,142,145,142.4,145.2"/>
<path class="st19" d="M143.9,145c0.2,1.3,0.6,2.6,1.3,3.8c0.3,0.5,0.7,0.9,1,1.3s0.6,0.9,0.9,1.3c0.6,0.7,1.3,1.4,2,2
	c1.2,1,2.6,1.9,3.4,3.4c-0.2,0.5-0.3,1-0.4,1.5c-0.3-0.4-0.5-0.9-0.8-1.4c-0.6-0.7-1.3-1.4-2.1-2c0-0.1-0.1-0.2-0.1-0.3
	c-0.9-0.6-1.7-1.3-2.4-2c0-0.1-0.1-0.1,0-0.3c-0.4-0.2-0.5-0.8-0.8-1.1s-0.6-0.4-0.6-0.8c-0.5-0.3-0.7-0.8-1-1.4
	c-0.2-0.3-0.4-0.7-0.6-1c-0.3-1-0.5-2-0.6-3C143.3,145.1,143.6,145,143.9,145"/>
<path class="st12" d="M138.4,146.1c0,0.2-0.4,0.1-0.4-0.1S138.4,146,138.4,146.1"/>
<path class="st12" d="M138.7,146.2c0.2,0,0.2,0.1,0.4,0.1c0,0.2-0.1,0.2-0.3,0.2C138.8,146.4,138.7,146.4,138.7,146.2"/>
<path class="st12" d="M139.1,146.5c0.2,0.1,0.4,0.1,0.6,0.2c0,0.2-0.2,0.2-0.4,0.2S139.1,146.7,139.1,146.5"/>
<path class="st12" d="M148.2,146.9c0.2,0,0.1,0.1,0.3,0.1c-0.1,0.1,0,0.2,0,0.4c0.2-0.1,0.2-0.3,0.4-0.2s-0.1,0.3-0.2,0.5
	c0-0.1-0.2,0-0.2-0.1c0.1,0.3,0.1,0.6,0,0.9C147.9,148.5,148.2,147.3,148.2,146.9"/>
<path class="st19" d="M153.3,147.4c0.2,0,0,0.1,0,0.3c0.5,0.2,1,0,1.3,0.3c0,0.1,0,0.1,0.1,0.2c0.1,0.1,0.2,0.1,0.3,0.2
	c0.3,0.3,0.4,0.6,0.4,1c0.3,0.7,0.5,1.4,0.5,2.2c-0.5,0.2-0.8-0.2-1.3-0.2c-0.2,0-0.3,0.1-0.5,0.2c-0.4,0-0.8-0.3-1.2-0.3
	s-1,0.1-1.5,0c-0.6-0.2-1.1-0.5-1.6-0.8c-0.2,0-0.1,0.2-0.2,0.2c-0.3,0-0.5-0.3-0.6-0.6c0.5-0.4,1.1-1.2,2-1.1
	c0.3,0,0.6,0.2,0.9,0.3c0.5,0,1-0.2,1.4,0c0.1,0,0.1-0.1,0.1-0.1c-0.1-0.7-1.1-0.3-1.6-0.1c-0.4-0.2-0.9-0.3-1.4-0.2
	c-0.1-0.1,0.1-0.2,0.2-0.3c0.3-0.3,0.6-0.6,1-0.8C152.4,147.9,152.7,147.3,153.3,147.4 M152.8,149.3c0,0.2,0.2,0.2,0.4,0.2
	C153.2,149.2,153,149.2,152.8,149.3 M153.9,149.8c0-0.1-0.1-0.2-0.3-0.2C153.6,149.7,153.8,149.9,153.9,149.8"/>
<path class="st11" d="M142.9,148c0.1,0.2,0.2,0.3,0.3,0.5c-0.2,0-0.3-0.1-0.5-0.2C142.8,148.3,142.9,148.2,142.9,148"/>
<path class="st12" d="M153.2,149.5c-0.2,0-0.4,0-0.4-0.2C153,149.3,153.2,149.3,153.2,149.5"/>
<path class="st12" d="M153.6,149.6c0.1,0,0.3,0.1,0.3,0.2C153.7,149.9,153.6,149.8,153.6,149.6"/>
<path class="st19" d="M142.7,151.1c-0.8,0.1-1.6,0.4-2.1,1c-0.4-0.1-0.7,0.1-1,0.3c0.1,0.2,0.3,0,0.6,0c-0.1,0.2-0.3,0.4-0.5,0.6
	c-0.3,0.2-0.9,0.2-0.8,0.7c0.4-0.2,0.9-0.4,1.3-0.6c0.1-0.1,0-0.2,0.1-0.3c0.5-0.5,1.1-0.9,1.8-1.2c0.2-0.1,0.5,0,0.7,0.1
	c-0.1,0.2-0.1,0.5-0.2,0.6s0.2,0.1,0.2,0.3c-0.2,0.4-0.8,0.6-0.7,1.1c-0.1,0.2-0.5,0.2-0.4,0.7c-0.2,0.2-0.6,0.2-0.6,0.6
	c-0.7,0.4-1.4,0.7-2.2,0.9c-0.1,0-0.1,0.1-0.2,0.2c-0.8-0.1-1.5,0.3-2,0c-0.1-0.1,0.1-0.2,0.2-0.3c0.2-0.7,0.5-1.5,0.8-2.1
	c0.2-0.8,0.8-1.5,1.5-1.8c0.1,0,0.1-0.2,0.1-0.2c0.9-0.7,2-0.8,3-0.5C142.3,150.9,142.6,150.9,142.7,151.1"/>
<path class="st18" d="M152.6,158.5C152.6,158.1,152.8,158,152.6,158.5"/>
<path class="st19" d="M135.9,143.5c0.3,0,0.5,0.4,0.8,0.5c0.1,0,0.3,0,0.4,0c0.4,0.1,0.7,0.5,1.1,0.1c0.4,0.3,0.8,0.4,1.3,0.3
	c0.5,0.5,1.3,0.6,1.5,1.3c0.5,0.1,0.8,0.5,0.7,1c0.5,0.2,0.4,1.1,0.7,1.5c-1.1-0.2-1.3-1.5-1.9-2.3c-0.1,0.6,0.3,1,0.5,1.5
	c-0.2,0-0.3-0.2-0.6-0.2c0.2,0.5,1,0.5,1.2,1c0.3,0,0.6,0.2,0.8,0.4c-0.5,0.1-0.8,0.4-1.3,0.5c-0.2,0-0.5-0.1-0.8-0.1
	c-0.3,0-0.6,0-0.9-0.1c-0.1-0.1-0.2-0.2-0.4-0.3c-0.3-0.1-0.6-0.1-0.9-0.2c-0.3-0.2-0.6-0.4-0.8-0.5c0-0.1,0.2-0.1,0.2-0.2
	c-0.5-0.6-1.4-1.2-1.3-2.2c-0.1-0.2-0.2-0.5-0.2-0.8c0.2,0,0.1-0.1,0.3-0.1C136.3,144,136,143.8,135.9,143.5 M138.1,145.9
	c0,0.2,0.3,0.3,0.3,0.1C138.4,145.9,138.2,145.8,138.1,145.9 M138.8,146.5c0.2,0,0.3,0,0.3-0.2c-0.1,0-0.2-0.1-0.4-0.1
	C138.7,146.3,138.8,146.3,138.8,146.5 M139.3,146.8c0.2,0,0.3-0.1,0.4-0.2c-0.1-0.1-0.4-0.1-0.6-0.2
	C139.1,146.7,139.2,146.7,139.3,146.8"/>
<path class="st12" d="M143.7,132.5c0.6-0.5,1.5-0.6,2.2-0.4c1.4,0.7,2.5,1.9,2.9,3.5c0.1,0.6,0.1,1.1-0.2,1.6c2,0.8,1.2,4.9-0.1,5.9
	c-0.5,0.4-1.2,0.5-1.8,0.2c-0.5,0.8-1.3,1.3-2.2,1.6c0,2.7,1.2,4.2,2.5,5.7c0.1-0.4-0.3-0.7-0.4-1.2c-0.3-0.9-0.4-1.8-0.3-2.8
	c0.2-0.1,0.2,0.2,0.3,0.3c0.4-0.6,0.4-1.7,1.1-1.9c0.1-0.4,0.5-0.7,0.8-1c0.1-0.1,0.1-0.3,0.3-0.4s0.4-0.2,0.5-0.3
	c0.5-0.5,1.1-0.9,1.7-1.1c0.7-0.3,1.5-0.4,2.2-0.4c-0.1,0.3-0.4,0.3-0.5,0.6c0,0.3,0.1,0.5,0.2,0.7c-0.1,0.3-0.1,0.8-0.3,1
	c0,0.2,0.2,0.1,0.3,0.3c0,0.2-0.2,0.4-0.3,0.7c-0.1,0.3,0.2,0.1,0.2,0.2c-0.3,0.6-0.7,1.3-1.1,1.8c0,0.1,0.2,0.1,0.2,0.2
	c0.7-0.1,1.5-0.2,2.2-0.2c0.1,0.1,0,0.2-0.1,0.3c1.1,0.2,1.4,1.1,2,1.9c-0.1,0.3,0.2,0.6,0.2,1c0,0.1,0,0.2,0,0.3
	c0,0.4,0.5,0.9,0.1,1.2c0,0.2,0.3,0.1,0.3,0.3c-0.3,0.2-0.6-0.1-0.8-0.2s-0.4,0-0.5-0.1c-0.2-0.1-0.3-0.2-0.5-0.2
	c-0.2,0-0.3,0.1-0.5,0.2c-0.4,0-0.9,0-1.3,0c-0.4,0-0.9,0.1-1.3,0c-0.6-0.1-1.1-0.3-1.5-0.7c-0.7,0.2-1.2-0.4-1.5-0.8
	c-0.2,0-0.5,0.1-0.7,0.3c-0.2,0.2-0.2,0.5-0.5,0.6c0,0.1,0.2,0.2,0.1,0.4c0.6,0.7,1.3,1.3,2,1.9c0.1-0.1,0.2-0.3,0.4-0.4
	c0.2,0.3,0.2,0.6,0.4,0.9c0.4,0.4,0.9,0.8,1.4,1.2c0.7,0.5,1.1,1.3,1.1,2.2c0,0.2-0.1,0.4-0.1,0.6c0,0.2,0.1,0.3,0,0.4
	c-0.1,0.1-0.2,0.2-0.2,0.3c-0.1,0.3,0,0.7-0.3,0.9c-0.4,0.1-0.4-0.4-0.5-0.7c-0.2,0-0.2,0.1-0.3,0c-0.4-1.1-1.1-2.1-2-2.9
	c-0.4-0.4-0.9-0.8-1.3-1.1c-0.4-0.5-0.9-0.9-1.4-1.3c-0.3-0.2-0.8-0.1-1-0.5c0-0.1,0.2-0.1,0.4-0.1c-0.6-1-1.3-2-3-1.7
	c-0.1,0.3-0.3,0.5-0.1,0.8c-0.1,0.6-0.7,0.8-0.6,1.4c-0.2,0.2-0.4,0.4-0.7,0.5c0,0.1,0,0.2,0,0.3c-0.2,0.2-0.6,0.3-0.7,0.6
	c-0.8,0.3-1.6,0.6-2.3,1c-0.1,0.1-0.1,0.2-0.2,0.2c-0.4,0.2-0.8,0-1.2,0.3c-0.7-0.2-1.4-0.2-2.1-0.2c0-0.4,0.2-0.5,0.5-0.5
	c0.6-0.8,0.9-1.7,1.1-2.7c0.2-0.2,0.3-0.4,0.5-0.7s0.6-0.4,0.8-0.7c0.1-0.1,0.1-0.3,0.2-0.4s0.6-0.3,0.9-0.4
	c0.1-0.1,0.2-0.2,0.3-0.3c0.3-0.2,0.7-0.1,1.1-0.3c0.4,0.2,0.8,0.2,1.2,0c0.8,0.4,1.7,0.6,2.5,0.5c-0.4-0.5-0.8-1.8-1.5-1.8
	c-0.4,0-0.6,0.4-1,0.5c-1,0-2.3,0.2-2.9-0.5c-0.7,0-1.3-0.2-1.8-0.6c-0.1-0.1,0-0.1,0-0.2c-0.6-0.4-1.1-1-1.3-1.7
	c-0.2-0.4-0.4-0.9-0.4-1.3c0-0.3-0.3-0.6-0.3-0.9c0-0.1,0.2-0.1,0.3-0.1c-0.3-0.5-0.5-1.1-0.5-1.7c0.3-0.1,0.5,0.3,0.6,0.6
	c0.3,0.1,0.5,0.2,0.8,0.4c0.4-0.3,0.7,0.1,1,0.2c0.1-0.1,0-0.2,0.1-0.3c0.5,0,0.7,0.4,1,0.5s0.7,0.1,1,0.3c-0.2-0.5-0.3-1-0.3-1.5
	c-0.1-0.1-0.3-0.2-0.4-0.3c-3.2,1.2-4.7-5.2-1.9-6.1c-0.4-0.6-0.5-1.3-0.2-2c0.4-1.2,1.8-2.1,3-2.5c0.2-0.1,0.4-0.2,0.6-0.3
	c0.2,0,0.4,0,0.6,0c1.2,0,2.2-0.1,2.6,0.8 M142.4,131.9c-0.5,0-1.1,0-1.6,0.2c-0.1,0-0.2,0-0.3,0c-0.3,0.1-0.6,0.2-0.9,0.3
	c-0.6,0.4-1.1,1-1.6,1.6c-0.4,0.5-0.6,1.1-0.6,1.7c0.3,0.2,0.7,0.2,1,0.4c0,0.2,0.1,0.3,0,0.6c-1.6-0.2-2.2,1.2-2.1,2.8
	c0,1,0.6,1.9,1.4,2.4c0.5,0.2,0.8-0.2,1.1-0.2s0.3,0.3,0.6,0.3c0.2,0.1,0.7,0,0.8,0.3c-0.4,0.6-0.3,1.5,0.3,1.9
	c0.1,0,0.1,0.1,0.2,0.1c0.2,0,0.5,0,0.7,0c0.6,0.1,1.1,0.1,1.7,0.1c0.7-0.1,1.4-0.2,2-0.5c0.5-0.3,0.8-1.2,1.2-1.3
	c0.4-0.1,0.6,0.3,0.9,0.3c0.3,0,0.6-0.1,0.8-0.3c0.7-0.8,1.1-1.9,1.1-2.9c0-0.8-0.1-1.6-0.5-1.8s-0.9,0-1-0.4c0-0.2,0.3-0.4,0.5-0.7
	c0.6-1.4-1.1-3.4-2-3.9c-0.9-0.5-2-0.3-2.6,0.6c-0.2-0.1-0.5-0.1-0.6-0.4c0.1-0.4-0.1-0.8-0.5-1 M152.5,143.6c0.1-0.5-0.2-1,0-1.6
	c0,0,0,0-0.1,0c-1.3,0.1-2.5,0.8-3.3,2c-0.1,0-0.2,0.1-0.3,0.1c-0.2,0.3-0.6,0.5-0.8,0.8c-0.2,0.3-0.2,0.9-0.6,1.2
	c-0.1,0-0.1-0.1-0.2-0.2c-0.2,0.5-0.3,1.1-0.3,1.6c-0.1,0.1-0.2,0.1-0.4,0.1c0,0.4,0.1,0.9,0.2,1.3c0.1,0.4,0.2,0.9,0.6,1
	c0.2-0.4,0.1-0.9,0.5-1.1c-0.2,0.6-0.3,1.2-0.3,1.8c0.4-0.5,1-0.5,1.5-0.8c0.1-0.1,0.2-0.2,0.3-0.3s0.3-0.1,0.4-0.2
	c0.1-0.1,0.2-0.2,0.2-0.4c0.4-0.4,0.8-0.7,1.2-1.1c0-0.2-0.1-0.1-0.1-0.3c0.4-0.6,0.8-1.1,1.1-1.7c-0.1,0-0.1-0.1-0.2-0.2
	c0.2-0.2,0.3-0.5,0.3-0.8c0-0.1-0.2-0.1-0.2-0.2C152.2,144.3,152.5,144,152.5,143.6 M136.3,144.6c-0.2,0-0.2,0.1-0.3,0.1
	c0,0.3,0.1,0.5,0.2,0.8c-0.1,1,0.7,1.6,1.3,2.2c0,0.1-0.2,0.1-0.2,0.2c0.3,0.1,0.5,0.4,0.8,0.5c0.3,0.2,0.6,0.1,0.9,0.2
	s0.3,0.2,0.4,0.3c0.3,0.1,0.6,0.1,0.9,0.1c0.3,0.1,0.5,0.1,0.8,0.2c0.5,0,0.8-0.3,1.3-0.5c-0.2-0.2-0.5-0.4-0.8-0.4
	c-0.2-0.6-1-0.5-1.2-1c0.3,0,0.4,0.1,0.6,0.1c-0.1-0.5-0.6-0.9-0.5-1.5c0.6,0.8,0.8,2.1,1.9,2.3c-0.3-0.4-0.2-1.3-0.7-1.5
	c0.1-0.5-0.3-0.9-0.7-1c-0.2-0.7-1-0.9-1.5-1.3c-0.5,0.1-0.9,0-1.3-0.3c-0.4,0.4-0.7,0-1.1-0.1c-0.1,0-0.3,0.1-0.4,0
	c-0.3-0.1-0.5-0.5-0.8-0.5C135.9,144,136.3,144.2,136.3,144.6 M141,145.1c0,0.2,0.2,0.2,0.2,0.4c0.8,0,0.7,0.9,1.2,1.2
	c0,0.2,0.1,0.4,0.2,0.5c-0.1-0.6-0.1-1.3-0.2-1.9C142,145.1,141.5,145.1,141,145.1 M142.9,145.3c0.1,1,0.3,2,0.7,3
	c0.2,0.3,0.4,0.7,0.6,1c0.3,0.6,0.5,1.1,1,1.4c0,0.4,0.4,0.5,0.6,0.8s0.4,0.9,0.8,1.1c0,0.1,0,0.2,0,0.3c0.7,0.7,1.5,1.4,2.4,2
	c0,0.1,0.1,0.2,0.1,0.3c0.8,0.6,1.5,1.3,2.1,2c0.3,0.4,0.5,0.9,0.8,1.4c0.1-0.5,0.2-1,0.4-1.5c-0.8-1.5-2.2-2.4-3.4-3.4
	c-0.7-0.6-1.4-1.3-2-2c-0.3-0.4-0.6-0.9-0.9-1.3s-0.7-0.9-1-1.3c-0.7-1.2-1.1-2.5-1.3-3.8C143.5,145.1,143.2,145.2,142.9,145.3
	 M151.8,147.8c-0.4,0.2-0.7,0.5-1,0.8c-0.1,0.1-0.3,0.2-0.2,0.3c0.5-0.1,0.9,0,1.4,0.2c0.4-0.1,1.5-0.5,1.6,0.2
	c0,0.1-0.1,0.1-0.1,0.1c-0.4-0.3-0.9,0-1.4,0c-0.3,0-0.6-0.2-0.9-0.3c-0.9,0-1.4,0.7-2,1.1c0.1,0.3,0.2,0.5,0.6,0.6
	c0.1,0,0-0.3,0.2-0.2c0.5,0.4,1,0.6,1.6,0.8c0.5,0,1,0,1.5,0c0.4,0,0.8,0.3,1.2,0.3c0.2,0,0.3-0.1,0.4-0.1c0.5,0,0.8,0.4,1.3,0.2
	c-0.1-0.7-0.3-1.5-0.5-2.2c0-0.4-0.2-0.7-0.4-1c-0.1-0.1-0.2-0.1-0.4-0.2c-0.1-0.1,0-0.2-0.1-0.2c-0.3-0.3-0.9-0.1-1.3-0.3
	c-0.1-0.1,0.1-0.3,0-0.3C152.6,147.5,152.3,148.1,151.8,147.8 M142.6,148.6c0.2,0,0.3,0.1,0.5,0.2c0-0.2-0.1-0.4-0.3-0.5
	C142.8,148.4,142.7,148.4,142.6,148.6 M142.1,151.1c-1-0.3-2.1-0.2-3,0.5c-0.1,0,0,0.2-0.1,0.2c-0.7,0.4-1.3,1-1.5,1.8
	c-0.3,0.7-0.6,1.4-0.8,2.1c-0.1,0.1-0.3,0.2-0.2,0.3c0.5,0.3,1.2-0.1,2,0c0.1-0.1,0.1-0.2,0.2-0.2c0.8-0.3,1.6-0.6,2.3-1
	c0-0.4,0.4-0.4,0.6-0.6c-0.1-0.4,0.3-0.5,0.4-0.7c-0.1-0.5,0.6-0.7,0.7-1.1c0-0.2-0.2-0.1-0.2-0.3c0.1-0.2,0.2-0.4,0.2-0.6
	c-0.2-0.2-0.5-0.2-0.7-0.1c-0.7,0.3-1.3,0.7-1.8,1.2c-0.1,0.1,0,0.2-0.1,0.3c-0.4,0.3-0.8,0.5-1.3,0.6c-0.2-0.5,0.5-0.5,0.8-0.7
	c0.2-0.2,0.4-0.4,0.5-0.6c-0.3,0-0.4,0.2-0.6,0c0.3-0.1,0.6-0.4,1-0.3c0.6-0.6,1.3-0.9,2.1-1c0-0.2-0.4-0.2-0.5-0.1"/>
<path class="st12" d="M187.9,131.7c0.1,0.3,0,0.7,0.3,0.8c0.4,0,0.6-0.4,0.9-0.6c0.4,0.1,0.2,0.6,0.3,0.9c0.5,0,0.7-0.6,1.1-0.3
	s-0.2,0.8-0.1,1.2c0.5-0.1,0.8-0.7,1.3-0.5c0.2,0.2,0,0.5,0,0.8c0.3,0.2,0.7,0.1,1,0.2c0.2,0.7-0.4,1-0.8,1.5
	c-0.5,0.8-1,1.6-1.5,2.5c0.2,0.2,0.8,0.3,0.7,0.6s-0.4,0.3-0.6,0.5c0.1,0.4,0.7,0.5,0.5,0.9s-0.7,0.2-0.8,0.5c0,0.4,0.5,0.7,0.5,1
	s-0.5,0.1-0.6,0.3c0,0.3,0.3,0.6,0.1,1c-0.3,0-0.6,0-0.7,0.1c0,0.3,0,0.6-0.1,0.9c-0.4-0.2-0.8-0.1-1.1,0.3
	c-0.1,0.1-0.1,0.2-0.1,0.4c-0.6-0.1-1,0.2-1,0.7c0,0.1-0.2,0.2-0.3,0.1c-0.2,1-0.1,2.1,0.5,3c0.5-0.9,1.1-1.8,1.8-2.6
	c0.2,0.3,0.5,0.5,0.8,0.7c0.1-0.5-0.6-0.6-0.6-1.2c0.4-0.1,0.5,0.3,0.8,0.4c0.6,0.1,1.2-0.5,1.4-1.1c0.1-0.4-0.1-0.9,0-1.3
	c0.7,0.1,0.3,1,0.8,1.1c0.3,0.1,0.4-0.2,0.6-0.4s0.4-0.3,0.6-0.4c0.3-0.5,0.5-1,0.7-1.6c0.7,0,0.2,1,0.7,1.2c0.6,0,1.1-0.2,1.6-0.5
	c0.2-0.1,0.3-0.3,0.5-0.4c0.3-0.1,0.6-0.3,0.9-0.4c0.1,0,0.2,0.1,0.3,0.2c-0.3,0.8-1.7,1.2-1.3,2.4c0.2,0.1,0.5,0,0.6,0.2
	c-0.2,0.7-1.1,0.6-1.2,1.4s1.2,0.7,1.2,1.6c-0.8,0-1.4,0.6-1.6,1.3c-0.1,0.4,0,0.8-0.1,1c-0.2,0.1-0.2-0.3-0.4-0.4s-0.4,0-0.5,0
	c-0.8,0.3-0.6,1.5-0.9,2c-0.4,0-0.3-0.3-0.6-0.3c-0.7-0.1-0.9,1-1.3,1.4c-0.5-0.1-0.3-0.8-1-0.9c-0.6,0-0.7,1-1.3,1.2
	c-0.4-0.2-0.5-0.7-1-0.9c-0.3,0.2-0.7,0.1-0.9-0.2c0,0,0,0,0,0c-0.4,0.5-0.7,1.1-0.9,1.7c-0.1,0.3-0.2,0.7-0.3,1
	c-0.2,0.4-0.3,0.9-0.4,1.3c-0.5,0.2-1.1,1.2-1.6,1.5c-0.6,0.3-1.1,0.2-1.2-0.4c0.1-0.9,0.3-1.8,0.6-2.6c-0.4-0.4-0.8-0.8-1.3-1
	c-0.2,0-0.3,0.2-0.5,0.2c-0.6-0.3-1.2-0.3-1.8,0c-0.3,0.2-0.7,0.9-1,0.2c0.5-1.1-0.2-1.4-1.2-1.4c-0.6,0-1,0.7-1.5,0.5
	c0.3-0.6,0.3-1.2,0.1-1.8c-0.4-0.5-1.9-0.2-1.2-1.2c0.6-0.3,1.3-0.5,1.7-1.1c0.2-0.4,0-0.9-0.4-1.1c0,0,0,0-0.1,0
	c-0.4-0.1-1.2-0.3-1.6-0.4c-0.4-0.1-1.1,0-1-0.5c0-0.2,0.3-0.2,0.6-0.4c0.7-0.3,1.3-0.9,1.4-1.7c-0.2-0.6-1.3-0.1-1.5-0.7
	c0.3-0.4,1-0.7,1.2-1.2c0.2-0.6-0.4-0.9-0.5-1.5c0.4-0.3,1.5-0.4,1.5-1c0-0.3-0.6-0.5-0.5-0.9c0.1-0.4,0.9-0.5,1-0.9
	c0.4-0.6,0.6-1.4,0.7-2.1c0.1,0,0.1,0.1,0.3,0.1c0.3,0.8-0.5,2.3,0.2,2.9c0.9,0.3,1.6-1.4,2.2-0.5c-0.6,0.7-1.4,2.3-0.6,3.1
	c0.6,0.1,1.1-0.7,1.5-0.2c-0.4,0.7-0.7,1.5-0.9,2.3c0.1,0.3,0.3,0.5,0.5,0.7c0.9,0.2,1.3-0.7,2.1-0.5c-0.1,0.7-0.8,1.1-0.6,1.9
	c0.1,0.3,0.2,0.6,0.4,0.9c0.2,0.3,0.6,0.4,0.6,0.7c0,0.3-0.6,0.7-0.8,1c-0.1,0.2-0.2,0.5-0.1,0.8c0,0.3,0.4,0.6,0.3,0.8
	c0,0.2-0.5,0.5-0.4,0.9c0.6,0.4,1.5,0.6,1.8,1.1c0.4-0.5,0.6-1.4,1-1.9c-0.5-0.5-0.5-1.5-0.7-2.3c0-0.3-0.1-0.5,0-0.8
	c0-0.2-0.1-0.4-0.1-0.7c0-0.3,0-0.7,0.2-1c-0.1-0.5,0.1-1.2-0.3-1.5c-0.3,0-0.6,0.1-0.8-0.2c0.1-0.4,0.4-0.8,0-0.9
	c-0.3-0.2-0.5,0.2-0.9,0.1c0-0.1,0-0.1-0.1-0.1c0-0.2,0.1-0.4,0.2-0.6c0-0.2-0.7-0.1-0.9-0.4c-0.2-0.4,0.3-0.5,0.3-0.8
	c0.1-0.5-0.6-0.4-0.8-0.8c0.2-0.5,0.7-0.4,0.9-0.9c-0.1-0.3-0.6-0.2-0.6-0.5c0.2-0.3,0.9-0.1,1-0.6c-0.3-0.3-0.7-0.9,0.2-0.8
	c0.3-0.1,0.5-0.3,0.7-0.6c0-0.2-0.2-0.3-0.2-0.6s0.2-0.1,0.2-0.2c-0.3-1.1-0.7-2.1-1.2-3.1c0.7,0.2,0.6-0.5,0.8-0.9
	c0.5-0.1,0.3,0.5,0.7,0.6s0.4-0.7,0.6-1.1c0.4,0,0.3,0.3,0.5,0.4c0.4-0.1,0.4-0.8,0.9-0.7c0.3,0.1,0,0.7,0.4,0.8s0.5-0.7,1.1-0.6
	C187.7,131.6,187.8,131.6,187.9,131.7 M187.6,132.3c-0.3,0.2-0.3,0.7-0.7,0.7c-0.4,0-0.6-0.4-0.9-0.6c-0.1,0.4-0.4,0.6-0.9,0.4
	c0,0.6-0.6,0.9-1.3,0.6c-0.7,0.3-0.4,0.8-0.1,1.5c0.1,0.1,0.2,0.3,0.3,0.4c0.2,0.4,0.3,0.8,0.3,1.2c0.2,0.2,0.4,0.6,0.8,0.4
	c0.1-0.2,0.1-0.6,0.2-0.6c0.2-0.1,0.2,0.3,0.4,0.4c0.4,0.3,1,0.2,1.3-0.2c0.3,0.2,0.3,0.5,0.6,0.6c0.3,0.1,0.6-0.3,1-0.4
	c0.1,0.1,0,0.4,0.1,0.5c0.4,0.1,0.7-0.1,1-0.1s0,0.3-0.1,0.4c0.5,0.5,0.8-0.1,1.3,0c0.6-0.9,1.1-1.8,1.7-2.6
	c-0.4-0.2-0.7-0.5-0.9-0.8c-0.3,0.3-0.8,0.3-1.2,0c-0.1-0.1-0.2-0.3-0.2-0.5c-0.6,0.1-0.9-0.3-1.1-0.6
	C188.4,133.3,188,132.7,187.6,132.3 M189.9,138c-0.2-0.2-0.5-0.2-0.7-0.5c-0.3,0.2-0.7-0.1-1-0.3c-0.2,0.1-0.5,0.1-0.7,0.2
	c-0.2-0.1-0.4-0.3-0.6-0.4c-0.2,0.1-0.4,0.2-0.7,0.2c-0.2-0.1-0.5-0.3-0.7-0.3c-0.2,0.3-0.5,0.4-1,0.3c-0.1,0.5-0.5,0.8-0.9,1
	c0.3,0.5-0.2,1-0.6,1.1c0.4,0.4-0.2,1-0.5,1.1c0.6,0.2,0.7,0.8,0.4,1.4c0.2,0,0.3,0.1,0.5,0.2c0.1,0.2,0.2,0.5,0.1,0.7
	c0.2,0,0.3,0,0.5,0c0.2,0.3,0.6,0.5,0.4,1.1c1.8,0.4,0.4,2.5,1,3.7c0,0.2-0.1,0.2-0.1,0.4c0.4,0.7,0.4,1.8,0.8,2.5
	c-0.1,0.2,0.1,0.2,0,0.5c-0.3,0.7-0.8,1.2-1,2c-0.2,0-0.3,0.2-0.5,0.2c-0.7-0.5-1.4-1-2.2-1.3c-0.2-0.5-0.1-1,0.2-1.5
	c-0.7-0.9,0-2,0.5-2.6c-0.8-0.5-1.1-1.6-0.8-2.5c-1.5,0.4-2.6-0.9-1.8-2.5c-1.4-0.2-1.4-1.4-1.2-2.8c-0.5,0-0.7,0.1-1-0.2
	c-0.3-0.3-0.3-0.8-0.5-0.8c-0.2,0-0.6,0.6-0.7,0.7c1,0.8-0.1,1.8-0.9,2c0.5,0.7,0.4,1.7-0.3,2.3c0.4,0.1,0.8,0.2,1,0.5
	c0,0.6-0.2,1.3-0.7,1.7c-0.2,0.2-0.6,0.3-0.6,0.5c1.2,0.2,2.7,0.8,2.6,1.9c-0.1,0.9-1,1.2-1.5,1.7c0.9,0.3,1,1,1.2,1.8
	c1-0.4,2.5-0.1,2.6,1c0.5-0.2,1.1-0.3,1.7-0.3c0.1-0.1,0.1-0.2,0.2-0.2c1.3,0.1,1.7,0.9,2.4,1.4c-0.1,0.6-0.3,1.2-0.4,1.9
	c-0.1,0.1-0.3,0.2-0.1,0.4c0.6-0.4,1-0.9,1.8-0.9c0.3-1,0.7-2,1.1-3c0.2-0.4,0.5-1.1,0.8-1.2c0.2,0.1,0.3,0.3,0.6,0.4
	c0.3,0.1,0.4-0.1,0.5,0c0.4,0.1,0.5,0.6,0.9,0.8c0.3-0.4,0.4-1.1,1-1.2c0.6-0.1,0.8,0.3,1.2,0.6c0.3-0.6,0.8-1.4,1.6-0.8
	c0-1.1,0.5-2.6,1.8-1.9c0-0.8,0.6-1.6,1.3-1.9c-1-0.4-1.3-2.1-0.2-2.5c-0.2-0.4-0.3-0.9-0.2-1.3c-0.6,0.3-1.9,0.2-2.2-0.5
	c-0.2,0.4-0.5,0.5-0.7,0.8s-0.6,1-1.4,0.7c-0.3,0.8-0.9,1.4-1.7,1.5c0.4,0.6,0.3,1.4-0.2,2c0.7,1-0.6,2.7-1.6,2.1
	c0-1.2,0.8-2.2,1.1-3.4c-0.1-0.2-0.4-0.2-0.5-0.2c-0.6,0.8-1.2,1.6-1.5,2.6c-0.4,0-0.3-0.4-0.7-0.5c0-0.4-0.3-0.8-0.4-1.2
	c0-0.1,0.1-0.2,0.1-0.3s-0.2-0.5-0.2-0.7c0-0.5,0.1-0.9,0.2-1.4c0-0.1,0.2-0.2,0.3-0.3c0.3-0.4,0.5-0.9,1.1-0.7
	c0.1-0.5,0.6-0.8,1.1-0.7l0.1-0.7c0.2-0.3,0.5-0.1,0.6-0.4c0-0.1,0-0.4,0-0.5c0-0.2,0.2-0.2,0.4-0.4c-0.3-0.5-0.2-1.1,0.2-1.5
	c-0.3-0.3-0.3-0.7-0.1-1.1C190.1,138.7,190.1,138.2,189.9,138 M189.3,149.6c0.4,0.1,1-0.9,0.6-1.4
	C189.6,148.5,189.4,149,189.3,149.6 M185.5,156.2c0.2,0.1,0.3,0,0.3-0.2C185.7,156,185.6,156.1,185.5,156.2"/>
<path class="st20" d="M188.9,132.8c0.3,0.3,0.5,0.8,1.1,0.6c0,0.5,0.4,0.8,0.9,0.8c0.2,0,0.4-0.1,0.5-0.2c0.2,0.3,0.5,0.6,0.9,0.8
	c-0.6,0.8-1.1,1.8-1.7,2.6c-0.4-0.1-0.8,0.6-1.3,0c0-0.1,0.2-0.3,0-0.4c-0.2-0.1-0.6,0.2-1,0.1c-0.1-0.1,0-0.4-0.1-0.5
	c-0.3,0.1-0.6,0.5-1,0.4s-0.3-0.4-0.6-0.6c-0.3,0.4-0.8,0.5-1.3,0.2c0,0,0,0,0,0c-0.1-0.1,0-0.4-0.3-0.4s-0.1,0.5-0.2,0.7
	c-0.4,0.2-0.6-0.1-0.8-0.4c0-0.4-0.2-0.8-0.3-1.2c-0.1-0.1-0.2-0.2-0.3-0.4c-0.3-0.7-0.5-1.2,0.1-1.5c0.6,0.3,1.2,0.1,1.3-0.6
	c0.5,0.1,0.8,0,0.9-0.4c0.3,0.2,0.5,0.6,0.9,0.6c0.4,0,0.4-0.5,0.7-0.7c0.3,0.4,0.8,1,1.4,0.5 M191.2,134.3
	c-0.6,0.7-1.1,1.5-1.6,2.3c0,0.2,0,0.3,0.1,0.4c0-0.1,0.1-0.1,0.2-0.1c0.5-0.9,1-1.7,1.4-2.6C191.3,134.4,191.3,134.3,191.2,134.3
	 M189.8,134.3c-0.1,0.3-0.4,0.6-0.6,1c-0.2,0.4-0.5,0.8,0,0.9c0.4-0.5,0.7-1.1,0.8-1.8C190,134.3,189.9,134.3,189.8,134.3
	 M187.4,135.2c0-0.3,0.2-0.7,0-0.9C187.3,134.6,187.2,135.1,187.4,135.2"/>
<path class="st12" d="M191.5,134.4c-0.4,0.9-0.9,1.8-1.4,2.7c-0.1,0-0.2-0.1-0.2,0c-0.1-0.1-0.1-0.3-0.1-0.4c0.4-0.8,1-1.6,1.6-2.3
	C191.4,134.3,191.4,134.4,191.5,134.4"/>
<path class="st12" d="M190.2,134.5c-0.1,0.7-0.4,1.3-0.8,1.8c-0.5,0-0.2-0.6,0-0.9c0.2-0.3,0.4-0.7,0.6-1
	C190.1,134.4,190.2,134.4,190.2,134.5"/>
<path class="st12" d="M187.6,134.5c0.2,0.2,0,0.6,0,0.9C187.4,135.2,187.4,134.7,187.6,134.5"/>
<path class="st12" d="M185.9,137.7c0,0.1,0,0.2-0.1,0.2c-0.1-0.1-0.2-0.1-0.2-0.3C185.7,137.6,185.8,137.6,185.9,137.7"/>
<path class="st12" d="M184.9,137.6c0.1,0,0.1,0.1,0.2,0.1c0,0.1-0.1,0.3-0.1,0.4c-0.1,0-0.1-0.1-0.2-0.1
	C184.8,137.9,184.8,137.7,184.9,137.6"/>
<path class="st12" d="M189.7,138.9c-0.4,0-0.7-0.1-0.7-0.4C189.3,138.3,189.8,138.5,189.7,138.9"/>
<path class="st12" d="M188.2,138.4h0.1c0,0.3-0.1,0.5-0.3,0.7C187.8,138.9,188.1,138.6,188.2,138.4"/>
<path class="st12" d="M189.7,140.1c-0.6,0.4-0.8-1.1-0.1-0.5C189.7,139.6,189.7,139.8,189.7,140.1"/>
<path class="st12" d="M188.7,139.8c-0.1,0.3-0.2,0.7-0.5,0.7C188.1,140.2,188.4,139.6,188.7,139.8"/>
<path class="st12" d="M189.4,141c0.1,0.8-0.6,1.5-1.2,1.2c0.4-0.4,0.7-0.8,1-1.3C189.3,140.9,189.3,141,189.4,141"/>
<path class="st12" d="M187.9,141.3L187.9,141.3c0.1,0.4-0.4,0.9-0.8,0.9C187.3,141.8,187.6,141.5,187.9,141.3"/>
<path class="st12" d="M187.9,143.1c0,0.1-0.1,0.2-0.1,0.3c-0.2,0-0.2,0-0.3,0C187.3,143,187.6,142.8,187.9,143.1"/>
<path class="st12" d="M179,141.9c0.2,0.3,0.4,0.6,0.3,1C179,142.7,178.8,142.3,179,141.9"/>
<path class="st12" d="M193.7,146.3c-0.2,0.8-0.6,1.5-1.1,2C192.9,147.6,193.3,146.9,193.7,146.3"/>
<path class="st12" d="M178.5,144.8c0.3,0.9,0.5,1.8,0.7,2.7c-0.4-0.8-0.7-1.7-0.7-2.6C178.5,144.9,178.5,144.8,178.5,144.8"/>
<path class="st5" d="M189.8,148.1c0.4,0.4-0.2,1.4-0.6,1.4C189.2,149,189.4,148.5,189.8,148.1"/>
<path class="st12" d="M187.2,149.7c-0.3,0-0.5-0.2-0.4-0.4C187.1,149.2,187.2,149.4,187.2,149.7"/>
<path class="st12" d="M186.3,149.5c0.2,0.1,0.3,0.2,0.3,0.5c0,0-0.1,0-0.1,0.1C186.3,150,186.2,149.8,186.3,149.5
	C186.3,149.5,186.3,149.5,186.3,149.5"/>
<path class="st12" d="M190.2,150.5c0.1,0,0.2,0.1,0.2,0.2s-0.2,0.1-0.3,0C190.2,150.6,190.2,150.5,190.2,150.5"/>
<path class="st12" d="M180.6,150.2c0.3,0.1,0.3,0.4,0.5,0.5c0.3,0,0.6,0.2,0.6,0.4C181.6,151.8,180.5,150.7,180.6,150.2"/>
<path class="st19" d="M185.7,156c0,0.2-0.1,0.3-0.3,0.2C185.4,156,185.6,155.9,185.7,156"/>
<path class="st19" d="M190.3,138.6c-0.2,0.4-0.1,0.8,0.1,1.1c-0.5,0.4-0.6,1-0.2,1.5c-0.2,0.2-0.3,0.2-0.4,0.4c-0.1,0.2,0,0.4,0,0.5
	c-0.1,0.3-0.5,0.1-0.6,0.4c-0.2,0.3-0.1,0.4-0.1,0.7c-0.5-0.1-1,0.2-1.1,0.7c-0.6-0.2-0.8,0.3-1.1,0.7c-0.1,0.1-0.2,0.2-0.3,0.3
	c-0.1,0.5-0.2,0.9-0.2,1.4c0,0.2,0.2,0.4,0.2,0.7c0,0.2-0.1,0.2,0,0.3c0.1,0.5,0.4,0.9,0.4,1.2c0.3,0.1,0.3,0.4,0.7,0.5
	c0.4-0.9,0.9-1.8,1.5-2.6c0.2,0,0.5,0,0.5,0.2c-0.3,1.2-1.2,2.2-1.1,3.4c1,0.6,2.3-1.1,1.6-2.1c0.5-0.6,0.5-1.4,0.2-2
	c0.8-0.2,1.5-0.7,1.7-1.5c0.8,0.3,1.1-0.3,1.4-0.7s0.6-0.4,0.7-0.8c0.3,0.7,1.6,0.8,2.2,0.5c-0.1,0.4,0,0.9,0.2,1.3
	c-1.1,0.4-0.8,2.1,0.2,2.5c-0.8,0.3-1.3,1.1-1.4,1.9c-1.3-0.7-1.8,0.8-1.8,1.9c-0.8-0.7-1.3,0.2-1.6,0.8c-0.4-0.2-0.7-0.6-1.2-0.6
	s-0.7,0.8-1,1.2c-0.4-0.2-0.5-0.7-0.9-0.8c-0.2-0.1-0.4,0-0.5,0c-0.2,0-0.3-0.3-0.6-0.4c-0.4,0.1-0.6,0.8-0.8,1.2
	c-0.4,1-0.8,2-1.1,3.1c-0.8,0-1.2,0.6-1.8,0.9c-0.1-0.2,0.1-0.2,0.1-0.4c0.1-0.6,0.2-1.3,0.4-1.9c-0.8-0.5-1.2-1.2-2.4-1.3
	c-0.1,0-0.2,0.1-0.2,0.2c-0.6-0.1-1.2,0-1.7,0.3c0-1.1-1.6-1.4-2.6-1c-0.1-0.8-0.3-1.6-1.1-1.8c0.5-0.6,1.4-0.8,1.5-1.7
	c0.1-1.1-1.3-1.6-2.6-1.9c0-0.2,0.4-0.3,0.6-0.5c0.5-0.5,0.7-1.1,0.7-1.7c-0.2-0.3-0.6-0.4-1-0.5c0.7-0.6,0.8-1.6,0.3-2.3
	c0.8-0.2,1.9-1.2,0.9-2c0.1,0,0.6-0.7,0.7-0.7c0.1,0,0.3,0.6,0.5,0.8s0.5,0.2,1,0.2c-0.2,1.4-0.2,2.6,1.2,2.8
	c-0.8,1.6,0.3,2.9,1.8,2.5c-0.3,0.9,0,1.9,0.8,2.5c-0.5,0.6-1.2,1.7-0.5,2.6c-0.3,0.4-0.4,1-0.2,1.5c0.8,0.3,1.5,0.8,2.2,1.3
	c0.2,0,0.3-0.2,0.5-0.2c0.3-0.7,0.7-1.3,1-2c0-0.2-0.2-0.2,0-0.5c-0.5-0.7-0.4-1.8-0.8-2.5c0-0.1,0.1-0.2,0.1-0.4
	c-0.6-1.2,0.8-3.3-1-3.7c0.2-0.6-0.2-0.8-0.5-1.1c-0.2,0-0.3,0-0.5,0c0-0.2,0-0.5-0.1-0.7c-0.2,0-0.4-0.1-0.5-0.2
	c0.2-0.6,0.1-1.2-0.5-1.4c0.3-0.2,0.8-0.7,0.5-1.1c0.3-0.2,0.8-0.6,0.6-1.1c0.4-0.2,0.9-0.5,0.9-1.1c0.5,0.2,0.8,0,1-0.3
	c0.3,0.1,0.5,0.2,0.7,0.3c0.2,0,0.5-0.1,0.7-0.2c0.2,0.1,0.4,0.2,0.6,0.4c0.2,0,0.5-0.1,0.7-0.2c0.3,0.2,0.7,0.5,1,0.3
	c0.2,0.2,0.5,0.3,0.7,0.5C190,138.2,190,138.6,190.3,138.6 M185.6,137.6c0,0.2,0.1,0.2,0.2,0.3c0.1-0.1,0.1-0.2,0.1-0.2
	C185.8,137.6,185.7,137.6,185.6,137.6 M184.8,138.1c0.1,0,0.1,0.1,0.2,0.1c0.1-0.1,0.1-0.2,0.1-0.4c-0.1,0-0.1-0.1-0.2-0.1
	C184.8,137.7,184.8,137.9,184.8,138.1 M189,138.5c0,0.3,0.3,0.4,0.7,0.4C189.8,138.5,189.3,138.4,189,138.5 M188,139.1
	c0.2-0.2,0.3-0.4,0.3-0.7h-0.1C188.1,138.6,187.7,138.9,188,139.1 M189.6,139.6c-0.7-0.6-0.4,0.9,0.1,0.5
	C189.7,139.8,189.7,139.7,189.6,139.6 M188.1,140.5c0.3,0,0.5-0.4,0.6-0.7C188.3,139.6,188.1,140.2,188.1,140.5 M189.2,140.9
	c-0.3,0.5-0.6,0.9-1,1.3c0.6,0.3,1.3-0.4,1.2-1.2C189.4,141,189.4,140.9,189.2,140.9 M187.2,142.2c0.4,0.1,0.8-0.4,0.8-0.8
	c0,0,0,0-0.1,0C187.6,141.6,187.4,141.9,187.2,142.2 M187.4,143.4c0.1,0.1,0.2,0,0.3,0c0-0.1,0.1-0.2,0.1-0.4
	C187.7,142.8,187.3,143,187.4,143.4 M179.3,142.9c0.1-0.4-0.1-0.7-0.3-1C178.8,142.3,179,142.7,179.3,142.9 M186.8,149.3
	c-0.1,0.2,0.1,0.4,0.4,0.4C187.3,149.4,187.1,149.3,186.8,149.3 M186.5,150.1c0-0.1,0.1,0,0.1-0.1c0-0.2,0-0.4-0.3-0.5
	C186.3,149.7,186.3,150,186.5,150.1 M190.2,150.7c0.1,0.1,0.2,0.1,0.3,0c0-0.1-0.1-0.2-0.2-0.2C190.2,150.5,190.2,150.6,190.2,150.7
	 M181.7,151.1c0-0.2-0.2-0.4-0.5-0.4c-0.2-0.2-0.2-0.4-0.5-0.5C180.5,150.8,181.6,151.8,181.7,151.1"/>
<g>
	<defs>
		<polygon id="SVGID_19_" points="145.4,89.7 144.8,91.3 143.9,89.5 143.4,90.1 143,91.4 142.8,90.5 142.3,90.2 142.1,91.7 
			142,92.3 141.4,91.7 140.9,91.3 140.5,92.6 140.5,93.5 139.8,93 139.6,93.7 139.7,94.8 139.7,95.2 138.9,94.9 138.9,97.1 
			138.2,97.3 138.3,97.6 138.4,98.6 138.9,99.6 139,100.1 138.1,100 138.7,101.3 139.3,102.2 140,102.5 140.3,103.4 140.7,104.9 
			140.9,105.6 140.5,106.4 140.8,107.2 141.2,107.9 139,112.9 140.4,113.5 141,114.2 142.3,114.2 143.9,114.4 145.7,114.2 
			147.3,114.3 148.8,113.4 149.5,113.5 150.6,112.9 149.5,110.4 148.9,108.1 148.8,107.6 149.3,106.8 149.6,105.9 149.1,105.4 
			148.8,105.4 149,104.2 149.3,103.4 149.9,102.4 150.7,101.1 151.4,100.9 151.7,100 151.1,99.3 151.5,98.9 152,98.3 150.8,97.7 
			151.7,96.2 151.8,95.8 150.6,95.9 150.6,95.3 151.2,94 150.4,93.7 149.4,94 149.3,93.4 150,91.4 149.3,91.4 147.8,92.3 
			148.1,90.9 148,90.1 146.9,91 146.5,91.7 146.2,90.4 146,89.1 		"/>
	</defs>
	<clipPath id="SVGID_20_">
		<use xlink:href="#SVGID_19_"  style="overflow:visible;"/>
	</clipPath>
	<g class="st21">
		
			<linearGradient id="SVGID_21_" gradientUnits="userSpaceOnUse" x1="-64.415" y1="195.5475" x2="-55.695" y2="195.5475" gradientTransform="matrix(1.6 0 0 1.6 241.05 -211.106)">
			<stop  offset="0" style="stop-color:#FFF295"/>
			<stop  offset="1.000000e-02" style="stop-color:#FFF295"/>
			<stop  offset="0.19" style="stop-color:#FFED84"/>
			<stop  offset="0.55" style="stop-color:#FFDF56"/>
			<stop  offset="1" style="stop-color:#FFCC16"/>
		</linearGradient>
		<rect x="138.1" y="89.1" class="st22" width="13.9" height="25.3"/>
	</g>
</g>
<path class="st12" d="M146.6,91c0.4-0.3,0.8-0.7,1.2-1v-0.3c0.8,0.2,0.6,1.5,0.4,2.2c0.6-0.2,0.9-0.8,1.5-0.8
	c0.2-0.1,0.3-0.2,0.6-0.2c0,0.9-0.3,1.8-0.7,2.7c0.5-0.2,1.7-0.2,1.3,0.4c-0.6,0-1.1,0.1-1.6,0.4c-0.2-0.2-0.1-0.6-0.3-0.8
	c0.3-0.6,0.5-1.2,0.7-1.9c-1-0.2-1.2,1-2.2,1.1c-0.6-0.5,0.6-1.6,0.3-2.5c-0.6,0.6-1.1,1.3-1.5,2c-0.3-0.1-0.1-0.8-0.4-1
	c0-0.6,0-1.3-0.1-1.9c-0.3,0.2-0.3,0.6-0.4,0.9s-0.3,0.6-0.4,0.9s0,0.5-0.2,0.6c-0.4-0.2-0.4-1.1-0.7-1.5c0,0-0.2-0.5-0.3-0.5
	s-0.5,1.2-0.5,1.4s0.3,0.5-0.1,0.7c-0.6-0.1-0.4-1-0.7-1.4c-0.2,0.6-0.2,1.3-0.2,1.9c0,0.2,0.3,0.3,0.1,0.5
	c-0.4,0.1-0.4-0.5-0.8-0.5c-0.2-0.3-0.3-0.6-0.7-0.7c-0.2,0.5-0.4,1.5,0,1.8c0,0.2-0.2,0.4-0.5,0.4c-0.3,0-0.4-0.6-0.7-0.6
	c0,0.4,0,0.9,0.1,1.3c0.1,0,0.2,0,0.3,0c0.3,0.4-0.2,0.7-0.5,1c-0.3,0-0.3-0.3-0.6-0.3c-0.1,0.6-0.1,1.3,0.2,1.8
	c0.3,0.2,0.5,0.5,0.3,0.9c-0.6,0.2-0.7-0.5-1.1-0.6c-0.3,1.2,0.6,1.8,0.9,2.7c-0.3,0.3-0.8,0.4-1.1,0.1c0,0-0.1-0.1-0.1-0.1
	c0.2,0.7,0.7,1.4,1.3,1.8c0.1,0,0-0.2,0.1-0.1c0.5,0.8,0.8,1.8,1,2.7c0,0.1,0.2,0,0.2,0.1c0,0.3,0.2,0.6,0.4,0.8
	c-0.2,0.5-0.8,0.6-0.7,1.2c0,0.3,0.3,0.3,0.3,0.7c-1.1,0.3-1-1.7-0.3-2c-0.1-0.9-0.3-1.9-0.7-2.7c-0.8-0.3-1.4-0.8-1.7-1.6
	c-0.3-0.4-0.5-1-0.4-1.5c0.3-0.1,0.5,0,0.8,0.1c-0.3-0.7-0.5-1.5-0.5-2.2c0-0.2-0.3-0.2-0.2-0.4c0-0.2,0.5-0.2,0.8-0.2
	c0.1-0.8,0-1.6-0.1-2.4c0.3-0.1,0.5,0.2,0.7,0.2c0.1-0.6,0-1.3,0.1-2c0.3-0.2,0.6,0,0.9,0.1c0.1-0.6,0.3-1.3,0.5-1.9
	c0.6,0,0.7,0.5,1,0.7c0.2-0.7,0.1-1.5,0.5-1.9c0.3,0.1,0.6,0.3,0.8,0.6c0.2-0.4,0.7-0.8,0.6-1.4c0.4,0,0.5,0.4,0.6,0.6
	c0.2,0.2,0.4,0.5,0.5,0.7c0.5-0.5,0.6-1.3,1.3-1.5C146.5,89.2,146.4,90.2,146.6,91"/>
<path class="st12" d="M149,105.2c0.6,0.1,1,0.7,0.9,1.3c-0.1,0.3-0.2,0.5-0.4,0.7c0.1,0.1,0.1,0.2,0.1,0.3c-0.1,0.1-0.4,0-0.6,0.1
	s0.1,0.1,0.1,0.2c0.2,1.3,0.6,2.6,1.2,3.8c0.3,0.4,0.8,1.1,0.4,1.5c-0.7,0-1.3,0.9-2.1,0.4c0,0,0,0.3-0.2,0.4
	c-0.4,0-0.8,0.4-1.2,0.5c-0.4,0-0.7,0-1.1,0c-1.2-0.1-2.8,0.7-3.7,0c-0.8,0.3-1.8,0.1-2.4-0.7c-0.8-0.1-1.5-0.4-1.4-1.2
	c0-0.2,0.2-0.3,0.3-0.5c0.2-0.3,0.3-0.7,0.5-1c0.6-0.9,1.1-1.9,1.5-3c-0.1-0.2-0.4-0.1-0.4-0.3c0.7-0.2,1.5-0.2,2.2,0
	c-0.1,0.7-1.1,0-1.5,0.3c-0.9,1.6-1.3,3.2-2.1,4.7c0.1,0.3,0.5,0.3,0.9,0.3c0.1-0.2,0.1-0.4,0.3-0.5c0.2,0.1,0.3,0.3,0.3,0.5
	c0.4-0.7,0.7-1.4,0.9-2.2c0.1,0.6-0.3,1.2-0.4,1.9c0,0.4-0.1,0.7-0.2,1.1c0.1,0.2,0.6,0.1,0.8,0.1c0.2-1,0.5-2,0.9-3
	c0.3,1-0.3,1.8-0.2,2.8c0.4,0.4,1.1,0.5,1.6,0.1c0.1-0.4,0-0.8,0.4-0.9c0.2,0.2,0.1,0.6,0.1,1c0.3,0,0.7,0,1-0.1
	c0-1.2,0.1-2.4,0.2-3.5c0.2,0.2,0.3,0.5,0.3,0.8c0.1,0.8,0,1.9,0.1,2.8c0.6,0.3,1.1-0.2,1.6-0.2c0.1-0.1,0.2-0.2,0.3-0.3h0.4
	c0-0.9-0.4-2.1-0.4-3c0.3,0,0.5,0.4,0.5,0.7c0.1,0.7,0.3,1.5,0.5,2.2c0.3-0.2,0.8-0.2,1.1-0.5c-0.8-1.6-1.3-3.3-1.6-5
	c-1-0.3-2.3,0.4-3-0.2c0.3,0,0.4-0.2,0.7-0.3c0.8-0.1,1.6-0.1,2.5-0.2c0.2-0.4,0.7-1,0.2-1.4c-0.1,0-0.1,0.2-0.2,0.2
	c-0.9-0.1-1.8-0.1-2.8-0.1c0-0.5,0.9-0.1,1.2-0.3c0.2,0.1,0.4,0.1,0.6,0.1c0-0.6,0.2-1.3,0.6-1.8c0.4,0.5-0.4,1.1-0.3,1.7
	c0.1,0,0.2,0,0.3,0c0.2-1.2,0.7-2.3,1.4-3.3c0.3-0.3,0.7-0.6,0.8-1.2c0.4-0.1,0.6-0.4,0.9-0.7c-0.4-0.3-0.5-0.8-0.4-1.3
	c0.3-0.1,0.5-0.3,0.6-0.5c-0.4-0.4-1.3-0.4-1.1-1.3c0.3-0.3,0.8-0.6,0.9-1.1c-0.6-0.2-1,0.5-1.4,0.2c0-0.2,0.2-0.2,0.3-0.3
	c-0.1-0.2-0.2-0.4-0.2-0.6c0.5-0.4,0.8-0.9,1-1.6c0.2-0.1,0.2-0.6,0.6-0.4c-0.1,0.8-0.4,1.6-0.8,2.2c0.4,0.1,0.9-0.3,1.3-0.1
	c0.2,1-0.7,1.5-1.1,2.1c0.2,0.1,0.5,0.2,0.7,0.3c0.2-0.1,0.2-0.3,0.5-0.2c0.3,0.8-0.4,1.4-0.9,1.8c0.1,0.2,0.5,0.1,0.7,0.2
	c0,0.7-0.4,1.4-1.2,1.5c-0.1,1-1.2,1.1-1.3,2l0,0C149.4,103.9,149.2,104.6,149,105.2"/>
<path class="st12" d="M143.5,94.2c-0.1-0.5-0.1-1,0-1.5c-0.1-0.1-0.1-0.2-0.2-0.2C143.1,93.1,143,94,143.5,94.2"/>
<path class="st12" d="M145.1,94c0.1-0.4,0.4-1,0-1.2C145.1,93.2,144.9,93.9,145.1,94"/>
<path class="st12" d="M146.6,94.3c0-0.5-0.2-1-0.6-0.8c0.3,0.3,0.3,0.9,0.4,1.4C146.7,94.9,146.6,94.5,146.6,94.3"/>
<path class="st12" d="M141.9,94.1c-0.3,0.6-0.3,1.8,0.3,2c0.1-0.6-0.4-1.3,0.1-1.7c0.2,0.2,0.3,0.4,0.4,0.7c0.1,0.3,0.1,0.6,0.3,0.8
	C143.1,95,142.8,93.9,141.9,94.1"/>
<path class="st12" d="M148,95c0.6,0.4,0,1-0.1,1.5c0,0,0.1,0,0.1,0.1c0.6-0.3,0.8-1.1,0.5-1.6c0-0.1,0.1-0.1,0.1-0.2
	s-0.1-0.1-0.2-0.1C148.3,94.8,148.1,94.8,148,95"/>
<path class="st12" d="M146.9,96.9c0.4-0.2,0.8-0.8,0.5-1.2C147.3,96.1,146.8,96.4,146.9,96.9"/>
<path class="st12" d="M149.4,98.2c0.4,0,0.5-0.8,0.2-0.9C149.5,97.6,149.2,97.9,149.4,98.2"/>
<path class="st12" d="M142.9,98.5c0.2-0.1,0-0.4,0-0.6C142.4,97.5,142.3,98.6,142.9,98.5"/>
<path class="st12" d="M142.3,99.6c-0.1-0.2-0.3-0.2-0.4-0.3c-0.2-0.4-0.3-0.9-0.3-1.3c-0.1,0-0.1-0.1-0.2-0.1
	C141.1,98.4,141.6,100.3,142.3,99.6"/>
<path class="st12" d="M146.7,98.9c0.1-0.2,0.2-0.4,0.2-0.7c-0.1,0-0.1-0.1-0.2-0.1C146.6,98.4,146.3,98.8,146.7,98.9"/>
<path class="st12" d="M149.8,99.8c0.5,0.5,1.1-1.3,0.5-1.4C150.1,98.9,149.7,99.3,149.8,99.8"/>
<path class="st12" d="M144.9,98.6c-0.1,0.4-0.3,1.4,0,1.7C145.2,100,145.3,98.7,144.9,98.6"/>
<path class="st12" d="M146.8,100.2c0.1-0.1,0.3-0.7,0-0.8C146.7,99.6,146.4,100.1,146.8,100.2"/>
<path class="st12" d="M149.1,100.2c-0.2,0.2-0.8,1.6-0.4,1.8c0.3-0.1,0.3-0.5,0.4-0.8c0.1-0.3,0.2-0.7,0.2-1
	C149.3,100.2,149.2,100.1,149.1,100.2"/>
<path class="st12" d="M142.7,101.2c-0.1,1.4,0.5,2.8,0.3,4.3c-0.3,0.1-0.8-0.1-0.7,0.3c0.3,0.1,0.6,0.1,0.9,0.1
	c0.1-0.1,0.1-0.2,0.2-0.2c0-1.2-0.1-2.3-0.3-3.5C143,101.8,142.9,101.4,142.7,101.2L142.7,101.2z"/>
<path class="st12" d="M147.1,103.9c0,0.2-0.3,0.6,0,0.7c0.4-1,0.7-2,0.8-3l0,0C147.6,102.4,147.3,103.1,147.1,103.9"/>
<path class="st12" d="M145.2,102.7c0.1-0.1,0.1-0.3,0-0.5c-0.1-0.1-0.1-0.1-0.2-0.1C144.9,102.5,144.9,102.7,145.2,102.7"/>
<path class="st12" d="M145.3,105.5c0,0.1,0.1,0.3,0.2,0.3c0.2-0.9,0.3-1.8,0.2-2.7h-0.1C145.4,103.9,145.3,104.7,145.3,105.5"/>
<path class="st12" d="M144.8,103.8c0.1,0.1,0.1,0.2,0.3,0.2c0.2,0,0.1-0.1,0.1-0.3C145.1,103.7,144.8,103.6,144.8,103.8"/>
<path class="st12" d="M145.1,105.3c0-0.3-0.2-0.3-0.3-0.4C144.5,105.2,144.9,105.5,145.1,105.3"/>
<path class="st12" d="M144.1,105.8c0.2,0.1,0.4,0.1,0.5,0c0,0.2,0.4,0.2,0.3-0.1c-0.3-0.1-0.5-0.1-0.8-0.2
	C144.2,105.6,144.1,105.6,144.1,105.8"/>
<path class="st12" d="M178.3,144.5c0,0.6,0,1.1,0.2,1.7c0.1,0.6,0.4,1.1,0.8,1.5l-0.5-2.5L178.3,144.5z"/>
<path class="st12" d="M179.6,148.7c0,0.2,0.1,0.5,0.2,0.7c0.1,0.1,0.3,0.2,0.4,0.3L179.6,148.7z"/>
<path class="st12" d="M192.4,148.5c0.7-0.7,1.3-1.6,1.7-2.6c0-0.4-1,1.2-1,1.2L192.4,148.5z"/>
<path class="st12" d="M191.9,149.2c-0.1,0.4-0.3,0.7-0.6,0.9c-0.2,0.1-0.4,0.2-0.7,0.2l0.7-0.8L191.9,149.2z"/>
<path class="st12" d="M187.6,139.6c0.2,0.2-0.4,0.6-0.4,0.6l0.1-0.5L187.6,139.6z"/>
<path class="st12" d="M187.2,141.1c0.1-0.1,0.1-0.2,0-0.3c0-0.1-0.1-0.1-0.2-0.1c-0.1,0-0.3,0.3-0.3,0.3H187.2z"/>
<path class="st12" d="M186.5,142.6c0,0.2,0.1,0.5,0.2,0.6v-0.4L186.5,142.6z"/>
<polygon class="st12" points="186.3,141.6 186.8,141.8 186.5,141.9 "/>
<polygon class="st12" points="189.6,134 188.7,135.7 188.3,135.9 188.7,134.8 189.2,134.1 "/>
<polygon class="st12" points="188.1,133.4 187.7,136 187.9,136.2 188.2,134.5 "/>
<path class="st12" d="M187.1,138c0.1,0.1,0.1,0.2,0.1,0.4H187L187.1,138z"/>
<path class="st12" d="M138.4,154.3c-0.2,0.1-0.4,0.3-0.5,0.5h0.3L138.4,154.3z"/>
<path class="st12" d="M176.2,122.6c1-0.1,3.6-1.7,3.4-3.8c-0.2-2.5-7.8-1-11,0.3l0.8-0.8c0.1-0.1-0.7-1.2-0.7-1.2s0.6-0.7,0.6-1.1
	s0-0.1-0.2,0.1c-0.2,0.2-0.9,0.9-0.8,1.2c0,0.3,0.5,0.8,0.4,1c-0.2,0.3-0.5,0.6-0.7,0.9l0,0c-0.3-0.5-0.5-0.6,0-1.3
	c0.2-0.6,0-1.2-0.6-1.5c-0.1,0-0.1,0-0.2-0.1c-0.1,0-0.2-0.1-0.3-0.2c0.1-0.4,0.2-0.9,0.5-1.2c0.5-0.5,1.1-0.8,1.8-1
	c0,0-0.3-0.6-1.9,0.6c-0.4,0.3-0.7,0.7-0.9,1.2c-0.3-0.2-0.6-0.2-0.9-0.2c-0.4,0-0.8,0.2-1.1,0.4c-0.2-0.5-0.5-1-1-1.3
	c-1.9-1.3-2-0.7-2-0.7c0.7,0.3,1.3,0.7,1.9,1.1c0.3,0.4,0.5,0.8,0.6,1.2c-0.1,0.1-0.3,0.1-0.4,0.1c-0.7,0.2-0.6,1.2-0.5,1.6
	s0.3,0.7-0.2,1.3l-0.1,0.1c-0.3-0.4-0.7-0.8-0.9-1.2c0-0.2,0.5-0.6,0.6-0.9s-0.6-0.9-0.7-1.1s0-0.4-0.2-0.1s0.4,1,0.4,1
	s-1,1-0.9,1.1l1.3,1.6c-2.1-0.5-9-3.9-10.7-1.4s1.3,4,2.5,4.5c0.8,0.4,1.6,0.1,2.9-0.2c-0.8,0.4-1.6,0.8-2.4,1.3
	c-2.1,1.4,1.8,3,3.3,2.6c1.5-0.6,2.9-1.5,4.1-2.5c-0.1,0.2-0.2,0.4-0.3,0.7l-2.1,1.5c-0.2,1-0.6,2-1.1,2.9c-0.6,0.7,1.3-0.7,1.7-2.3
	c0-0.2,0.7-0.6,1.1-0.9c-0.1,0.2-0.1,0.5-0.2,0.8c0,0,0,0.1,0,0.1l-0.8,1.4c0,0-0.3,1.8-0.4,2.4c-0.2,0.5-0.4,1-0.8,1.4
	c0.5-0.1,1-0.5,1.1-0.9c0.2-0.8,0.4-1.6,0.6-2.4l0.2-0.4c0.5,2.5,2,4.6,4.1,6c0.4,0,1.4-0.2,2.8-2.7c0.6-1,1.1-2.1,1.3-3.3l0.2,0.2
	c0.1,0.8,0.3,1.6,0.6,2.4c0.2,0.5,0.6,0.8,1.2,0.9c-0.4-0.4-0.7-1-0.8-1.5c-0.2-0.6-0.4-2.1-0.4-2.1l-0.8-1.3c0-0.3-0.1-0.6-0.1-0.9
	c0.4,0.3,1,0.7,1,0.9c0.4,1.6,2.2,3,1.7,2.3c-0.5-0.9-0.8-1.9-1.1-2.9l-1.8-1.3c-0.1-0.3-0.2-0.5-0.2-0.7c1,0.8,3,2.4,4.2,2.4
	c1.4,0,4.5-2.1,3.1-3c-0.8-0.5-1.7-0.9-2.6-1.2C174.3,122.6,175.3,122.6,176.2,122.6 M162.2,122.1L162.2,122.1L162.2,122.1
	L162.2,122.1"/>
<g>
	<defs>
		<path id="SVGID_22_" d="M163.9,117.2c-0.2,0.4-0.8,0.6-0.8,1c0,0.8-0.1,0.6,0.2,1.2c0.1,0.2,0,0.6,0,0.8c0,0.3,0,0.6-0.2,0.9
			c-0.6,0.5,0.6,1.8-0.1,2.5c-0.9,0.8-1.4,1.9-1.4,3.2c0.1,0.1,0.2,0.6,0.3,0.7c-0.1,0.6,0.6,0.7,0.5,1.2c0,0.1-0.4,0.4-0.4,0.6
			c0,0.7,0.5,0.8,0.7,1.2l0,0c0,0.1,0.1,0.3,0.2,0.4c0.1,0.4,0.5,0.2,0.7,0.9c0.1,0.1,0,0.1-0.1,0s-0.2-0.1-0.2,0
			c0.3,0.7,0.2,0.8,0.7,1.3c0.2,0.2,0.8,0,0.8,0.2c0.5,0,0.5,0.1,0.8-0.2c0.1-0.1,0.7,0,0.8-0.2c0.5-0.5,0.8-1.2,0.9-1.9
			c0-0.1-0.3-0.2-0.3-0.2c0.1-0.5,0.2-1,0.4-1.5c0.2-0.1,0.3-0.3,0.4-0.4c0-0.4,0.6-1,0.6-1.5c-0.9-1.3-0.1-1.7-0.3-2.7
			c-0.3-0.5-0.2-0.6-0.6-1s-0.4-0.6-0.3-0.8c0.1-0.3,0.2-0.6,0.2-0.9c0-0.7-0.3-0.6-0.5-1.1c0-0.1-0.4-0.2-0.5-0.3s-0.2-0.1-0.1-0.2
			c0.1-0.2,0.3-0.4,0.5-0.4c0.3-0.1,0.4-0.4,0.4-0.7c-0.2-1.2,0.2-1.4,0-1.5c-0.3-0.1-0.5-0.3-0.7-0.5c-0.1-0.2-0.2-0.9-0.5-1
			c-0.6-0.3-0.6-0.3-0.7-0.3c-0.1,0-0.2,0-0.3,0H165C164.4,115.9,164.2,116.5,163.9,117.2"/>
	</defs>
	<clipPath id="SVGID_23_">
		<use xlink:href="#SVGID_22_"  style="overflow:visible;"/>
	</clipPath>
	<g class="st23">
		
			<linearGradient id="SVGID_24_" gradientUnits="userSpaceOnUse" x1="239.64" y1="397.3475" x2="248.36" y2="397.3475" gradientTransform="matrix(0.8 0 0 0.8 -29.82 -193.288)">
			<stop  offset="0" style="stop-color:#FFF295"/>
			<stop  offset="1.000000e-02" style="stop-color:#FFEF91"/>
			<stop  offset="0.18" style="stop-color:#FFCB65"/>
			<stop  offset="0.34" style="stop-color:#FFAD41"/>
			<stop  offset="0.51" style="stop-color:#FF9624"/>
			<stop  offset="0.67" style="stop-color:#FF8510"/>
			<stop  offset="0.84" style="stop-color:#FF7B04"/>
			<stop  offset="1" style="stop-color:#FF7800"/>
		</linearGradient>
		<rect x="161.6" y="116" class="st24" width="6.9" height="17.3"/>
	</g>
</g>
<path class="st12" d="M162,126.8c0,0-0.1-1.5,3-1.5s3,1.4,3,1.4c-1,0.2-1.9,0.3-2.9,0.4C163.9,127,162.1,127.3,162,126.8"/>
<path class="st12" d="M162.6,128.2c0.7,0,0.7,0,2.4,0c1.7,0,2.6,0.2,2.8,0.7c0.2,0.4-1,1-2.8,1s-2.1,0.1-2.4-0.3
	C162.4,129.2,161.7,128.3,162.6,128.2"/>
<path class="st12" d="M163.2,131.1c1.7-0.1,2.4-0.3,3.1,0.1c0.8,0.4,1.7,0.7,0.6,1.1c-0.9,0.3-1.9,0.4-2.8,0.3
	c-0.5-0.1-0.9-0.5-1-0.9C162.9,131.2,163.3,131.1,163.2,131.1"/>
<path class="st12" d="M167,121.2L167,121.2c0.8-0.6-0.2-1.8,0.1-2.1c0.5-0.5-0.5-1.6-1.9-1.5c-2.4,0.1-2.1,1.9-1.9,2.3
	c0.1,0.5,0.3,0.4,0.2,0.7c-0.1,0.2-0.1,0.4-0.2,0.6c-0.1,0.2-0.2,0.5-0.2,0.7c0,0.4,0.2,0.8,0.5,1.1c0.3,0.3,0.3,0.6,1.8,0.5
	c1.2-0.1,1.5-0.4,1.7-1.1C167.4,122,167.3,121.5,167,121.2"/>
<path class="st18" d="M162.6,120.7c-0.6-0.2-6.7-2.5-7.9-2.5c-1.2,0-2.6-0.2-2.9,1.4s1.7,2.4,2.3,2.5c0.6,0.1,2.9-0.1,6.8,0.2
	c1.4,0.1,1.9,0.4,1.6-0.2C162.4,121.6,162.4,121.1,162.6,120.7"/>
<path class="st18" d="M161.5,122c-1.6,0.2-3.1,0.7-4.6,1.4c-1.1,0.6-2.7,1.3-2.1,1.7c0.8,0.8,2,1.1,3.1,0.8c1.6-0.4,4.8-2.8,4.8-3.2
	C162.6,121.5,161.5,122,161.5,122"/>
<path class="st18" d="M167.7,120.5c0.7-0.2,6-2.2,8.5-2.4s2.6,0.6,2.5,0.9s-1,2.4-2.4,2.8s-6.2,0-7.5,0.7c-0.9,0.5-0.7-0.2-0.8-0.7
	S167.2,120.6,167.7,120.5"/>
<path class="st18" d="M168.6,121.4c0.6-0.2,4.5,1.4,5.2,1.8s1.7,0.7,1.5,1.1c-0.2,0.4-2,2-2.8,1.6c-1.1-0.5-2.2-1-3.2-1.7
	c-0.8-0.5-1.6-0.9-1.4-1.4C168.2,122.3,167.7,121.7,168.6,121.4"/>
<path class="st12" d="M160.1,121c-1.9-0.4-4.2-0.8-4.2-0.8l1.8,0.6l2.5,0.2H160.1z"/>
<path class="st12" d="M169.7,120.8c0,0,3.9-0.4,4.4-0.6c0.2-0.1,0.5-0.1,0.8,0c-0.6,0.3-1.3,0.5-2,0.6
	C171.7,120.8,169.6,120.8,169.7,120.8"/>
<path class="st12" d="M160.4,123.5l-1.5,0.4l-0.3,0.1c-0.7,0.2-1.3,0.3-1.4,0.3c0.6,0,1.2-0.1,1.8-0.3L160.4,123.5"/>
<path class="st12" d="M170.2,123.1c0.6,0.4,1.3,0.8,2,1.2c0.8,0.3,0.3,0.3,0.3,0.3c-0.4-0.1-0.8-0.3-1.1-0.5
	C170.9,123.8,170.2,123.1,170.2,123.1"/>
<path d="M165.1,176.9l-7.8-4v-41.8h-32.7l-3.6-7.6l4.9-7.9h31.4V85.8h15.5v29.8h31.7l3.8,6.9l-2.4,8.6h-33v41.8L165.1,176.9z
	 M158,172.5l7,3.6l7-3.6v-42.1h33.2l2.2-7.8l-3.4-6.3h-32V86.5h-14v29.8h-31.7l-4.4,7.2l3.1,6.9h33V172.5z"/>
<path class="st25" d="M165.4,83.6c1.7,0.1,3.3,0,5-0.2c0.5-0.2,2.2-3.6,10-3.1s11.5,4.2,14.5,4.9s3.3,0.2,3.3,0.2
	c-0.8-1.4-0.3-3.3,1.1-4.1c0,0,0.1-0.1,0.1-0.1c2.7-1.4,4.8,1.5,5.3,2.7c0.4,1.3,0.9,2.5,1.4,3.7c0.5,0.8,3.6,3.6,4.2,5
	s0.1,3.8-0.8,4.2c-3.6,1.8-4.8-1.1-4.8-1.1s-4.3,2.7-2.4,11.9s6.3,12.9,6.3,12.9s-2.4-3.1,1.4-4.7c2.1-0.8,3.8,1.5,4,2.4
	c0.6,2.5-0.9,4.5-2.9,5.9s-5.6,3.9-5.1,13.9s1.4,15.4-4.4,21.7s-16,3.8-16,3.8s-2.1,4.8-5.3,7.3c-4.4,3.3-10.6,3.1-12.4,6.8
	c-0.2,0.4,1.8,5.3-2.9,5.3h-0.3c-4.7,0-2.7-5-2.9-5.3c-1.8-3.6-8-3.5-12.4-6.8c-3.3-2.5-5.3-7.3-5.3-7.3s-10.3,2.4-16-3.8
	c-5.7-6.3-4.9-11.7-4.4-21.7c0.5-10-3.1-12.5-5.1-13.9c-2-1.4-3.5-3.4-2.9-5.9c0.2-0.9,1.9-3.2,4-2.4c3.8,1.5,1.4,4.7,1.4,4.7
	s4.3-3.7,6.3-12.9c2-9.2-2.4-11.9-2.4-11.9s-1.2,2.9-4.8,1.1c-0.9-0.4-1.5-2.8-0.8-4.2c0.7-1.4,3.7-4.2,4.2-5
	c0.6-1.2,1.1-2.5,1.4-3.7c0.4-1.2,2.5-4.2,5.3-2.7c1.5,0.7,2.1,2.5,1.3,4c0,0,0,0.1-0.1,0.1c0,0,0.3,0.5,3.3-0.2s6.7-4.5,14.5-4.9
	c7.8-0.4,9.5,2.9,10,3.1c1.7,0.2,3.3,0.2,5,0.2H165.4z M164.7,87.2l-4.1,0.1c0,0-2.2,2.9-4.7,1c-2.2-1.6-0.1-3.7-0.1-3.7
	s-0.1-0.9-3.1-0.9c-3.8,0-8.7,4.9-14.6,5.8c-3.4,0.5-6.9-0.2-9.8-2c-0.1,0.8-0.3,1.6-0.7,2.3c-0.4,0.6-0.9,1.2-1.4,1.7
	c0,0,8.5,2.5,6.9,17c-1.3,11.5-9.9,15.3-9.9,15.3s3.6,2.3,4.8,8.8c0.9,4.7-0.1,12.2,1.2,17.2c0.9,3.6,3.1,8.6,9.1,9.9
	s6.5-1.3,8.2-0.5s0.2,3.7,4.3,7c1.3,1,6.3,2.6,9,4.3c1.7,1.1,5.3,5.6,5.3,5.6l0,0c0,0,3.6-4.5,5.3-5.6c2.6-1.7,7.7-3.3,9-4.3
	c4.2-3.2,2.6-6.2,4.3-7s2.2,1.8,8.2,0.5s8.2-6.3,9.1-9.9c1.3-5,0.3-12.5,1.2-17.2c1.2-6.5,4.8-8.8,4.8-8.8s-8.6-3.8-9.9-15.3
	c-1.6-14.5,6.9-17,6.9-17c-0.5-0.5-1-1.1-1.4-1.7c-0.4-0.7-0.6-1.5-0.7-2.3c-2.9,1.8-6.4,2.5-9.8,2c-5.8-0.8-10.8-5.8-14.6-5.8
	c-3,0-3.1,0.9-3.1,0.9s2.1,2.1-0.1,3.7c-2.5,1.9-4.7-1-4.7-1l-4.1-0.1H164.7z"/>
<path d="M165.1,183.6h-0.3c-1.1,0.1-2.1-0.3-2.9-1.1c-1.1-1.3-0.7-3.2-0.5-4.2c0-0.1,0-0.3,0.1-0.4c-1-1.8-3.2-2.6-5.8-3.5
	c-2.3-0.7-4.4-1.7-6.4-3c-2.9-2.1-4.8-5.9-5.3-7.1c-2,0.4-10.8,1.8-16.1-4c-5.3-5.8-5.1-11.1-4.7-19.7c0-0.8,0.1-1.6,0.1-2.4
	c0.5-9.5-2.8-12-4.8-13.4l-0.1-0.1c-2.6-1.9-3.6-4.1-3.1-6.4c0.4-1.1,1.1-2,2.1-2.6c0.7-0.4,1.6-0.5,2.4-0.2c1.1,0.3,2,1.2,2.4,2.3
	c0.1,0.2,0.1,0.5,0.1,0.7c2.3-3.3,3.9-7,4.6-10.9c1.5-7.1-0.8-10.1-1.8-11.1c-0.4,0.6-0.9,1-1.6,1.2c-1.2,0.4-2.5,0.2-3.5-0.4
	c-1.1-0.6-1.9-3.2-1.1-4.9c0.8-1.3,1.8-2.4,2.9-3.4c0.5-0.5,1-1,1.4-1.6c0.4-0.9,0.8-1.8,1.1-2.7c0.1-0.3,0.2-0.6,0.3-0.9
	c0.6-1.4,1.6-2.5,3-3.2c1.8-0.7,3.9,0.3,4.6,2.1c0.3,0.8,0.3,1.6,0,2.4c0.9,0,1.7-0.1,2.6-0.4c1.1-0.3,2.2-0.8,3.2-1.4
	c3.5-2.1,7.4-3.3,11.4-3.5c6.8-0.4,9.2,2.1,10,3l0.2,0.2c1.6,0.1,3.2,0.2,4.7,0.1h0.8c1.6,0.1,3.2,0,4.8-0.1l0.2-0.2
	c0.9-0.9,3.2-3.3,10-3c4,0.3,7.9,1.5,11.4,3.5c1,0.6,2.1,1.1,3.3,1.4c0.8,0.2,1.7,0.3,2.6,0.3c-0.6-1.9,0.4-3.9,2.2-4.5
	c0.8-0.3,1.6-0.3,2.4,0c1.4,0.6,2.4,1.8,3,3.2c0.1,0.3,0.2,0.6,0.3,0.9c0.3,1,0.6,1.9,1.1,2.8c0.4,0.6,0.9,1.1,1.4,1.6
	c1.1,1,2,2.2,2.8,3.4c0.8,1.7,0.1,4.3-1.1,4.9c-1.1,0.6-2.3,0.8-3.5,0.4c-0.6-0.2-1.2-0.7-1.6-1.2c-1,0.9-3.3,4-1.8,11
	c0.7,3.9,2.3,7.6,4.6,10.9c0-0.3,0-0.5,0.1-0.7c0.4-1.1,1.3-1.9,2.4-2.2c0.8-0.3,1.7-0.3,2.5,0.1c1,0.6,1.8,1.5,2.1,2.6
	c0.6,2.3-0.5,4.5-3.1,6.4l-0.1,0.1c-2,1.4-5.3,3.9-4.8,13.4c0,0.8,0.1,1.6,0.1,2.4c0.5,8.6,0.8,13.8-4.7,19.7s-14.1,4.4-16.1,4
	c-0.6,1.2-2.5,5-5.3,7.1c-2,1.3-4.1,2.3-6.4,3c-2.6,0.9-4.9,1.7-5.8,3.5c0,0.1,0.1,0.2,0.1,0.4c0.2,1,0.5,2.9-0.5,4.2
	C167.3,183.2,166.2,183.6,165.1,183.6 M144.5,163.1l0.1,0.4c0,0,2.1,4.8,5.2,7.1c1.9,1.3,3.9,2.3,6.1,2.9c2.7,1,5.3,1.9,6.4,4.1
	c0.1,0.2,0.1,0.4,0,0.9c-0.2,0.9-0.5,2.5,0.3,3.4c0.6,0.6,1.4,0.9,2.2,0.8h0.3c0.8,0.1,1.6-0.2,2.2-0.8c0.8-0.9,0.5-2.6,0.3-3.4
	c-0.1-0.5-0.1-0.7,0-0.9c1.1-2.2,3.7-3.1,6.4-4.1c2.2-0.6,4.2-1.6,6.1-2.9c3.1-2.4,5.2-7.1,5.2-7.1l0.2-0.4l0.4,0.1
	c0.1,0,10.1,2.3,15.6-3.7c5.2-5.6,4.9-10.4,4.4-19c0-0.8-0.1-1.6-0.1-2.4c-0.5-10,3.2-12.8,5.1-14.2l0.1-0.1
	c2.3-1.7,3.2-3.5,2.7-5.4c-0.3-0.8-0.9-1.5-1.7-2c-0.5-0.3-1.1-0.3-1.7-0.1c-0.8,0.2-1.5,0.8-1.8,1.6c-0.1,0.8,0.1,1.6,0.6,2.3
	l-0.7,0.7c-0.2-0.2-4.5-3.9-6.4-13.2c-2-9.4,2.4-12.3,2.6-12.4l0.5-0.3l0.2,0.5c0.3,0.6,0.8,1,1.3,1.2c0.9,0.3,1.9,0.1,2.8-0.4
	c0.6-0.3,1.2-2.3,0.6-3.6c-0.8-1.2-1.7-2.2-2.7-3.2c-0.6-0.5-1.1-1.1-1.6-1.8c-0.5-0.9-0.9-1.9-1.2-2.9c-0.1-0.3-0.2-0.6-0.3-0.9
	c-0.5-1.2-1.3-2.1-2.5-2.7c-0.7-0.3-1.5-0.2-2.1,0.2c-1.3,0.6-1.8,2.1-1.1,3.4c0,0,0,0.1,0.1,0.1l0.1,0.2l-0.2,0.2
	c-0.4,0.5-1.6,0.5-3.8,0c-1.2-0.4-2.3-0.9-3.4-1.5c-3.3-2-7.1-3.1-11-3.4c-6.3-0.3-8.5,1.9-9.3,2.7c-0.1,0.2-0.3,0.3-0.5,0.4
	c-1.7,0.2-3.5,0.3-5.2,0.2h-0.8c-1.7,0.1-3.5,0-5.2-0.2c-0.2-0.1-0.3-0.2-0.5-0.4c-0.8-0.8-2.9-3-9.3-2.7c-3.9,0.3-7.7,1.4-11,3.4
	c-1.1,0.6-2.2,1.1-3.4,1.5c-2.2,0.5-3.5,0.5-3.8,0l-0.1-0.2l0.1-0.2c0.7-1.2,0.3-2.8-0.9-3.6c-0.7-0.4-1.5-0.5-2.3-0.2
	c-1.1,0.5-2,1.5-2.5,2.6c-0.1,0.3-0.2,0.6-0.3,0.9c-0.3,1-0.7,2-1.2,2.9c-0.5,0.6-1,1.2-1.6,1.8c-1,1-1.9,2-2.7,3.2
	c-0.6,1.3,0,3.3,0.6,3.6c0.8,0.5,1.8,0.7,2.8,0.4c0.6-0.2,1.1-0.7,1.3-1.2l0.2-0.5l0.5,0.3c0.2,0.1,4.6,3,2.6,12.4
	c-2,9.2-6.2,13-6.4,13.2l-0.7-0.7c0.5-0.7,0.7-1.5,0.6-2.3c-0.3-0.8-1-1.4-1.8-1.6c-0.5-0.2-1.1-0.2-1.7,0.1
	c-0.8,0.4-1.4,1.1-1.7,1.9c-0.5,2,0.4,3.8,2.7,5.4l0.1,0.1c2,1.5,5.7,4.2,5.2,14.2c0,0.8-0.1,1.6-0.1,2.4c-0.5,8.6-0.8,13.4,4.4,19
	c5.5,6,15.5,3.7,15.6,3.7L144.5,163.1z M164.9,176.7l-0.3-0.4c0,0-3.5-4.4-5.2-5.5c-1.7-1-3.4-1.8-5.2-2.5c-1.3-0.5-2.6-1.1-3.8-1.9
	c-1.8-1.3-3-3.2-3.4-5.3c-0.2-0.9-0.4-1.3-0.8-1.5s-0.8-0.1-1.4,0.2c-1.1,0.5-2.8,1.2-6.7,0.4c-4.8-1-8.1-4.6-9.5-10.3
	c-0.6-3.2-0.9-6.5-0.8-9.8c0.1-2.5-0.1-5-0.4-7.5c-1.1-6.2-4.5-8.5-4.5-8.5l-0.7-0.5l0.8-0.3c0.1,0,8.4-3.9,9.6-15
	c1.5-13.8-6.2-16.4-6.5-16.5l-0.8-0.2l0.6-0.6c0.5-0.5,1-1,1.4-1.6c0.3-0.7,0.5-1.4,0.6-2.1l0.1-0.8l0.7,0.5c2.8,1.8,6.2,2.5,9.5,2
	c2.9-0.4,5.7-1.9,8.1-3.3s4.6-2.5,6.5-2.5c3.2,0,3.6,1,3.6,1.4v0.2l-0.2,0.2c-0.5,0.5-0.7,1.1-0.8,1.8c0.1,0.5,0.4,0.9,0.8,1.2
	c2.1,1.6,4-0.8,4.1-0.9l0.1-0.2l4.9-0.1l4.3,0.1l0.1,0.2c0.1,0.1,2,2.5,4.1,0.9c0.4-0.3,0.7-0.7,0.8-1.2c0-0.7-0.3-1.3-0.8-1.8
	l-0.1-0.2v-0.2c0-0.3,0.4-1.4,3.6-1.4c2,0,4.1,1.2,6.5,2.5s5.2,2.8,8.1,3.2c3.3,0.5,6.7-0.2,9.5-2l0.6-0.5l0.1,0.8
	c0.1,0.7,0.3,1.4,0.6,2.1c0.4,0.6,0.8,1.1,1.4,1.6l0.6,0.6l-0.8,0.2c-0.3,0.1-8.1,2.6-6.5,16.5c1.2,11.1,9.6,14.9,9.6,15l0.8,0.3
	l-0.7,0.5c0,0-3.4,2.3-4.5,8.5c-0.3,2.5-0.5,5-0.4,7.5c0.1,3.3-0.2,6.5-0.8,9.8c-1.4,5.7-4.7,9.3-9.5,10.3c-3.9,0.8-5.6,0.1-6.7-0.4
	c-0.7-0.3-1-0.4-1.4-0.2s-0.6,0.6-0.8,1.5c-0.4,2.2-1.6,4.1-3.4,5.4c-1.2,0.7-2.5,1.4-3.8,1.9c-1.8,0.7-3.5,1.5-5.2,2.5
	c-1.6,1.1-5.2,5.4-5.2,5.5l-0.1,0.1L164.9,176.7z M145.7,158.5c0.3,0,0.6,0.1,0.8,0.2c0.9,0.4,1.1,1.2,1.3,2.2
	c0.4,2,1.5,3.7,3.1,4.8c1.1,0.7,2.4,1.2,3.6,1.7c1.8,0.7,3.6,1.6,5.3,2.6c1.4,0.9,4.1,4.1,5,5.2c1-1.2,3.6-4.3,5-5.2
	c1.7-1,3.5-1.9,5.3-2.6c1.3-0.5,2.5-1,3.6-1.7c1.6-1.2,2.7-2.9,3.1-4.8c0.2-0.9,0.4-1.8,1.3-2.2c0.7-0.3,1.5-0.2,2.2,0.2
	c1.1,0.4,2.6,1.1,6.1,0.3c4.5-0.9,7.4-4.2,8.8-9.6c0.6-3.1,0.8-6.3,0.7-9.5c-0.1-2.6,0.1-5.1,0.4-7.6c0.9-5.1,3.2-7.7,4.4-8.7
	c-5.4-3.3-8.9-9-9.4-15.3c-1.4-12.3,4.5-16.3,6.5-17.3c-0.4-0.4-0.7-0.8-1-1.3c-0.3-0.5-0.5-1.1-0.6-1.8c-2.9,1.6-6.3,2.2-9.6,1.7
	c-3.1-0.4-5.9-2-8.4-3.4c-2.3-1.3-4.4-2.4-6.1-2.4c-0.9-0.1-1.7,0.1-2.5,0.4c0.5,0.6,0.8,1.4,0.8,2.2c-0.1,0.8-0.5,1.5-1.2,1.9
	c-2.2,1.6-4.3,0.2-5.2-0.9l-3.8-0.1h-0.6l-3.8,0.1c-1,1.1-3.1,2.5-5.3,0.9c-0.7-0.4-1.1-1.1-1.2-1.9c0-0.8,0.2-1.6,0.8-2.2
	c-0.8-0.4-1.7-0.5-2.5-0.4c-1.7,0-3.8,1.1-6.1,2.4c-2.5,1.4-5.3,2.9-8.4,3.4c-3.3,0.5-6.7-0.1-9.6-1.7c-0.1,0.6-0.3,1.2-0.6,1.8
	c-0.3,0.5-0.6,0.9-1,1.3c2.1,1,7.9,5,6.5,17.2c-0.5,6.4-4.1,12.1-9.5,15.4c1.1,1,3.4,3.6,4.4,8.7c0.3,2.5,0.5,5.1,0.4,7.6
	c-0.1,3.2,0.1,6.4,0.7,9.5c1.4,5.4,4.3,8.6,8.8,9.6c3.6,0.8,5.1,0.1,6.1-0.3C144.9,158.7,145.3,158.6,145.7,158.5"/>
</svg>
