<?xml version="1.0" encoding="utf-8"?>
<!-- Generator: Adobe Illustrator 19.2.1, SVG Export Plug-In . SVG Version: 6.00 Build 0)  -->
<!DOCTYPE svg PUBLIC "-//W3C//DTD SVG 1.1//EN" "http://www.w3.org/Graphics/SVG/1.1/DTD/svg11.dtd">
<svg version="1.1" id="Manchester_City" xmlns="http://www.w3.org/2000/svg" xmlns:xlink="http://www.w3.org/1999/xlink" x="0px"
	 y="0px" viewBox="0 0 1860 1860" style="enable-background:new 0 0 1860 1860;" xml:space="preserve">
<style type="text/css">
	.st0{fill:#002A5A;}
	.st1{fill:#FFFFFF;}
	.st2{fill:#7AB2E1;}
	.st3{fill-rule:evenodd;clip-rule:evenodd;fill:#002A5A;}
	.st4{fill-rule:evenodd;clip-rule:evenodd;fill:#A6C8EA;}
	.st5{fill-rule:evenodd;clip-rule:evenodd;fill:#FFFFFF;}
	.st6{fill:#FDCA50;}
	.st7{fill:#E42313;}
	.st8{fill:#DAA500;}
	.st9{fill-rule:evenodd;clip-rule:evenodd;fill:#FDCA50;}
	.st10{fill-rule:evenodd;clip-rule:evenodd;fill:#DAA500;}
</style>
<g>
	<path class="st0" d="M930,0C417.2,0,0,417.2,0,930c0,512.8,417.2,930,930,930c512.9,0,930-417.3,930-930C1860,417.2,1442.8,0,930,0
		"/>
	<path class="st1" d="M1763.2,930c0-460.1-373-833.2-833.3-833.2c-460.1,0-833.2,373-833.2,833.2c0,460.3,373.1,833.2,833.2,833.2
		C1390.2,1763.2,1763.2,1390.2,1763.2,930"/>
	<path class="st2" d="M1460.4,930c0-292.9-237.5-530.4-530.5-530.4C637,399.6,399.6,637.1,399.6,930c0,293,237.4,530.4,530.3,530.4
		C1222.9,1460.4,1460.4,1223,1460.4,930"/>
	<path class="st0" d="M929.9,1502.5c-315.6,0-572.4-256.9-572.4-572.5c0-315.6,256.8-572.4,572.4-572.4
		c315.7,0,572.5,256.8,572.5,572.4C1502.4,1245.6,1245.6,1502.5,929.9,1502.5L929.9,1502.5z M929.9,389.6
		c-298,0-540.4,242.4-540.4,540.4c0,298,242.4,540.5,540.4,540.5c298.1,0,540.6-242.5,540.6-540.5
		C1470.5,632,1228,389.6,929.9,389.6L929.9,389.6z"/>
	<path class="st2" d="M929.9,1822c-491.7,0-891.8-400.2-891.8-892C38.1,438.2,438.2,38,929.9,38c491.9,0,891.9,400.2,891.9,891.9
		C1821.9,1421.8,1421.8,1822,929.9,1822 M929.9,57.4C448.9,57.4,57.5,448.9,57.5,930c0,481.1,391.4,872.6,872.4,872.6
		c481.2,0,872.6-391.4,872.6-872.6C1802.5,448.9,1411.1,57.4,929.9,57.4"/>
	<g>
		<path class="st2" d="M185.6,909.7l-15.1,3.7l-3.9-15.5l24.8-7.4h12.9v87h-18.7V909.7z"/>
		<path class="st2" d="M226.2,953.8v-0.3c0-10.4,4.8-16.6,14-20.8c-6.7-4.1-11-9.6-11-18.9v-0.2c0-13.3,12.1-23.7,30.4-23.7
			c18.3,0,30.4,10.4,30.4,23.7v0.2c0,9.2-4.3,14.8-11,18.9c8.8,4.6,13.9,10.1,13.9,20.4v0.2c0,16-14.2,25.4-33.3,25.4
			C240.4,978.7,226.2,968.8,226.2,953.8z M274.5,952.3V952c0-6.7-6.3-10.6-15-10.6c-8.6,0-14.9,4-14.9,10.6v0.2
			c0,6,5.6,10.8,14.9,10.8C268.9,963,274.5,958.3,274.5,952.3z M271.9,915.9v-0.2c0-5.3-4.6-10.1-12.4-10.1c-7.8,0-12.3,4.7-12.3,10
			v0.3c0,6,4.8,10.6,12.3,10.6C267,926.3,271.9,921.9,271.9,915.9z"/>
	</g>
	<g>
		<path class="st2" d="M1597.2,942c-4.4,3.7-10.1,5.9-17.5,5.9c-18.8,0-30.9-10.4-30.9-27.9v-0.2c0-17.4,13.4-30.3,33-30.3
			c11.6,0,18.4,2.8,25,9.4c6.1,6.2,10.2,15.6,10.2,32.6v0.2c0,28-13.2,47.2-37.7,47.2c-12.6,0-21.1-4.2-28.4-10.3l10-14.4
			c6.3,5.1,11.6,7.4,18.9,7.4C1592.8,961.6,1596.5,949.4,1597.2,942z M1597.6,919.3v-0.2c0-7.7-5.7-13.2-15.2-13.2
			c-9.4,0-14.7,5.4-14.7,13.1v0.2c0,7.7,5.7,13,15.1,13C1592.2,932.1,1597.6,926.7,1597.6,919.3z"/>
		<path class="st2" d="M1677.7,958.8h-42.2l-3.1-13.4l47.4-55h16v53h11.6v15.4h-11.6v18.6h-18.1V958.8z M1677.7,943.4v-26.9
			l-23,26.9H1677.7z"/>
	</g>
	<path class="st1" d="M930,1470.6c-298,0-540.5-242.5-540.5-540.6c0-298,242.5-540.5,540.5-540.5c298.1,0,540.6,242.5,540.6,540.5
		C1470.5,1228,1228.1,1470.6,930,1470.6 M930,409.5C643,409.5,409.4,643,409.4,929.9c0,287,233.6,520.6,520.5,520.6
		c287.1,0,520.6-233.5,520.6-520.6C1450.6,643,1217,409.5,930,409.5"/>
	<path class="st3" d="M920,464.8c-266.8,0-420.7,35-420.7,35s-61.5,233.7-26.5,533.3c14.7,125.7,116.9,396.2,455.6,488.5l0,0
		c338.7-92.3,440.9-362.9,455.5-488.5c35-299.6-26.5-533.3-26.5-533.3s-153.9-35-420.7-35H920z"/>
	<path class="st4" d="M1337.5,963.2c-3.1,90.9-17,362.6-409.1,511.9C539.5,1330,519.2,1048.9,519.2,963.2H1337.5z"/>
	<path class="st5" d="M1325.8,948.1c10.6-225-27.7-407.6-27.7-407.6s-146.2-27.9-369.3-27.9c-223.4,0-371.9,30.9-371.9,30.9
		S516.4,727,527.4,948.1H1325.8z"/>
	<g>
		<path class="st2" d="M940.6,1467.1L527,967.1C511.9,1070.1,595.6,1373.9,940.6,1467.1z"/>
		<path class="st2" d="M650.3,963.7l382.7,461.8c38.8-18.4,67-36.6,94.3-58.6L793.1,963.7H650.3z"/>
		<path class="st2" d="M916.1,964.1l282.7,341c27.8-31.5,51.3-59.7,67.9-89.9l-207.9-251.1H916.1z"/>
		<path class="st2" d="M1330.8,964.2l-141.3-0.3l118.7,143.2C1328.3,1062.6,1330.8,988.6,1330.8,964.2z"/>
	</g>
	<path class="st0" d="M1095.6,1151.4C1095.6,1151.4,1095.6,1151.4,1095.6,1151.4c-1.1-3.3-3.7-5.9-7-7.1l-23.5-8.2
		c-2.1-0.7-4.2-0.6-6.3-0.1c-1.9-8.2-6.5-15.6-13.4-20.6c-0.8-0.6-1.7-1.2-2.6-1.7c-1.6-1.1-3.3-2-5.1-2.7c-3.1-1.3-6.1-2.3-9.1-3.2
		c-7-2.3-13.7-4.4-22.4-10.6c-8-5.8-11.8-11.2-15.3-16.3c-0.9-1.3-1.7-2.5-2.6-3.6c-2.4-3.6-5.3-6.8-8.8-9.4c-6-4.3-13-6.5-20.4-6.5
		c-1.6,0-3.2,0.3-4.8,0.6c0-0.1,0.1-0.2,0.1-0.3c0.5-2.9-0.2-5.9-2-8.4l-14.6-19.6c-2.1-2.8-5.4-4.5-8.9-4.5c0,0,0,0,0,0
		c-3.5,0-6.8,1.6-8.8,4.3l-15.2,19.7c-1.9,2.5-2.6,5.6-2.1,8.7l0,0c-1.3-0.1-2.4-0.4-3.7-0.4c-7.4,0-14.4,2.2-20.4,6.5
		c-0.8,0.6-1.6,1.3-2.4,2c-1.5,1.2-2.9,2.4-4.2,4c-2.2,2.5-4.1,5.1-5.9,7.6c-4.4,5.9-8.4,11.5-17.2,17.8c-8.1,5.8-14.3,7.7-20.3,9.5
		c-1.5,0.4-2.8,0.8-4.2,1.3c-4.2,1-8.2,2.8-11.7,5.5c-7.1,5-11.8,12.7-13.5,21.1c-2.4-0.9-5-1.1-7.5-0.3l-23.3,7.8
		c-3.3,1.1-5.9,3.6-7.1,7c0,0,0,0,0,0.1c-1,3.3-0.5,6.9,1.4,9.7l14.2,20.4c1.6,2.3,4,3.8,6.7,4.3c-3.8,7.9-4.5,17.1-1.7,25.4
		c0.3,0.9,0.7,1.9,1.1,2.9c0.6,1.8,1.4,3.5,2.6,5.3c1.7,2.8,3.6,5.4,5.4,7.8c4.4,5.9,8.5,11.5,11.8,21.7c3.1,9.4,2.9,15.9,2.7,22.1
		c0,1.5,0,3,0,4.4c-0.3,4.4,0.2,8.6,1.6,12.7c2.7,8.3,8.4,15,15.6,19.1c-0.9,1.6-1.6,3.4-1.5,5.3l0.1,24.4c0.1,3.5,1.7,6.7,4.6,8.8
		c0,0,0,0,0.1,0.1c2.8,2,6.4,2.6,9.7,1.6l23.9-7c2.1-0.6,3.8-2.1,5.2-3.7c7.1,6.7,17.1,10.2,26.8,9.3c1.9,0,3.8-0.3,5.8-0.7
		c3.3-0.8,6.3-1.7,9.3-2.7c7-2.2,13.7-4.4,24.4-4.4c10,0,16.1,2.2,22.1,4.2c1.4,0.5,2.8,1,4.1,1.4c4.1,1.6,8.4,2.4,12.8,2.4
		c8.8,0,17.3-3.5,23.7-9.5c1.4,1.6,2.9,2.9,5,3.6l23.5,7.3c3.3,1.1,7,0.5,9.8-1.5c0,0,0-0.1,0-0.1c2.9-2,4.5-5.2,4.6-8.7l0.6-24.7
		c0.1-1.9-0.6-3.8-1.5-5.4c7.2-4.1,13-10.7,15.6-19.1c0.4-1,0.6-2,0.9-3c0.5-1.8,0.8-3.7,1-5.7c0.3-3.3,0.3-6.5,0.3-9.5
		c0-7.4,0-14.3,3.4-24.5c3-9.4,7-14.5,10.8-19.5c0.9-1.2,1.8-2.3,2.7-3.5c2.8-3.3,4.9-7.1,6.3-11.2c2.9-8.6,2-18.1-2.1-26.2
		c2.1-0.8,4-1.9,5.3-3.7l14.3-19.9C1096.1,1158.3,1096.7,1154.7,1095.6,1151.4z"/>
	<path class="st6" d="M915.7,1204.2c0-7.6,6.3-13.8,13.9-13.8c7.7,0,13.9,6.2,13.9,13.8c0,7.6-6.2,13.8-13.9,13.8
		C921.9,1218,915.7,1211.8,915.7,1204.2z"/>
	<path class="st7" d="M929.2,1087.1c-2.4-8.5-7.6-15.7-14.3-19.9l14.3-18.5l13.8,18.5C936.2,1072,931.5,1078.7,929.2,1087.1
		 M818,1168.3c-7.3-4.8-12.4-11.3-14.8-19.2l-22,7.3l13.3,19.2C800.6,1170.6,809.2,1168,818,1168.3 M861.1,1296.8
		c-6.9,5.4-14.7,8.2-23,8.1l0.2,23l22.6-6.6C857.8,1314,858,1305.1,861.1,1296.8 M997.5,1297.1c3.1,8.2,3.3,16.4,0.6,24.1l22.1,6.9
		l0.6-23.3C1012.9,1305.4,1004.4,1302.5,997.5,1297.1 M1039.5,1168.4c8.9-0.4,16.8,1.9,23.4,6.8l13.5-18.7l-22.2-7.8
		C1052.3,1156.4,1046.9,1163.5,1039.5,1168.4 M901.1,1297.6c-10.3,0-18.7-8.4-18.7-18.5c0-1.4-1.3-2-2.1-1
		c-6.6,8.3-12,15.4-12.2,24.3c-0.2,12.9,10.6,23.3,23.6,23.3c0.8,0,1.6,0,2.4-0.1c1.2,0,2.4-0.1,3.9-0.5c9.3-2.2,17.2-6.8,32.9-6.8
		c13,0,20.1,3.5,26.9,5.6c2.8,1.1,5.8,1.8,9,1.8c13,0,23.8-10.4,23.6-23.3c-0.2-8.9-5.6-16.1-12.2-24.3c-0.7-0.8-1.7-0.2-1.7,1
		c0,10.2-8.4,18.5-18.8,18.5c-7.8,0-17.8-6.6-27.6-6.6C921.1,1291,908.9,1297.6,901.1,1297.6z M888.8,1272c0,8.6,7,15.6,15.7,15.6
		c0.9,0.1,1.9,0,3.1-0.3c0.4-0.1,0.8-0.2,1.2-0.3c0.2-0.1,0.4-0.1,0.6-0.2c5.3-1.7,10.5-4.2,19.8-4.2c9.7,0,14.3,2.7,19.5,4
		c1.8,0.6,3.6,1,5.5,1c8.7,0,15.7-7,15.7-15.6c0-2.2-0.5-4.4-1.3-6.3c-0.4-0.8-0.8-1.6-1.3-2.2c0,0-26.4-35.8-27.3-36.9
		c-1.3-1.7-3-0.9-4.2-0.6c-1.2,0.4-4.5,1.2-6.6,1.2c-2.2,0-4.8-0.4-6.5-1.2c-1.7-0.7-3.1-1.2-4.2,0.6c-0.9,1.5-19.9,27-25.9,35.3
		C890.2,1264.7,888.8,1268.2,888.8,1272z M1010.2,1260.1c-3.2,9.8-13.7,15.1-23.5,12c-1.4-0.5-2.3,0.5-1.6,1.7
		c5.8,8.8,11,16.1,19.5,19c12.3,4.2,25.7-2.7,29.7-15c0.2-0.8,0.4-1.6,0.6-2.3c0.4-1.1,0.6-2.3,0.8-3.8c0.7-9.5-1.2-18.3,3.7-33.2
		c4-12.2,9.5-17.8,13.7-23.6c1.9-2.3,3.5-4.9,4.5-7.9c3.9-12.3-2.7-25.7-15.1-29.4c-8.6-2.6-17.2,0.2-27.1,4c-1,0.4-0.8,1.5,0.4,1.9
		c9.9,3.2,15.3,13.7,12.1,23.4c-2.5,7.4-11.9,14.7-14.9,24C1010,1239.3,1012.6,1252.8,1010.2,1260.1z M981.9,1263.9
		c8.2,2.6,17.1-1.9,19.8-9.9c0.4-0.9,0.6-1.8,0.7-3.1c0-0.4,0-0.8,0-1.3c0-0.2,0-0.4,0-0.6c0.1-5.6-0.8-11.2,2-20
		c3-9.2,7-12.7,9.9-17.1c1.1-1.4,2-3,2.6-4.8c2.7-8.2-1.9-16.9-10-19.6c-2.2-0.6-4.4-0.8-6.5-0.6c-0.9,0.1-1.7,0.2-2.5,0.4
		c0,0-42.5,13.8-43.8,14.3c-2,0.8-1.8,2.6-1.9,3.8c0,1.2-0.2,4.6-0.9,6.6c-0.7,2-1.9,4.4-3.2,5.8c-1.2,1.4-2.1,2.6-0.7,4.1
		c1.2,1.4,19.7,27.2,25.9,35.3C975.2,1260.2,978.2,1262.7,981.9,1263.9z M1007.5,1145.1c8.4,6,10.3,17.6,4.2,25.9
		c-0.8,1.1-0.1,2.3,1.2,2c10.3-2.7,18.8-5.4,24.2-12.5c7.8-10.3,5.3-25-5.2-32.6c-0.7-0.5-1.4-0.9-2.1-1.3c-0.9-0.7-2-1.3-3.5-1.9
		c-8.8-3.6-17.9-4.5-30.7-13.7c-10.6-7.5-14.1-14.5-18.5-20.3c-1.5-2.5-3.6-4.7-6.2-6.6c-10.5-7.5-25.5-5.4-32.9,5.2
		c-5.1,7.3-5.1,16.3-4.5,26.7c0.1,1.1,1.3,1.2,1.9,0.2c6.1-8.3,17.8-10.1,26.2-4.1c6.3,4.5,10.5,15.7,18.4,21.5
		C987.4,1138.8,1001.2,1140.5,1007.5,1145.1z M1002.3,1172.9c5.1-6.9,3.6-16.6-3.5-21.6c-0.6-0.6-1.5-1.2-2.7-1.6
		c-0.4-0.2-0.8-0.3-1.2-0.4c-0.2-0.1-0.4-0.2-0.6-0.2c-5.3-1.8-11.1-2.7-18.5-8.1c-7.8-5.6-10-10.5-13.4-14.6c-1-1.5-2.3-2.9-3.9-4
		c-7-5-16.8-3.5-21.8,3.4c-1.4,1.9-2.2,3.8-2.7,5.9c-0.2,0.8-0.3,1.7-0.4,2.6c0,0,0.2,44.3,0.2,45.7c0.1,2.1,1.8,2.5,3,2.9
		c1.2,0.5,4.4,1.7,6.1,2.9c1.8,1.3,3.6,3.2,4.6,4.8c0.9,1.5,1.8,2.8,3.8,2c1.7-0.7,32.2-10.3,41.9-13.5
		C996.8,1178.1,1000.1,1176,1002.3,1172.9z M896.6,1112.4c8.4-6,20.1-4.2,26.2,4.1c0.8,1.1,2.1,0.8,2.2-0.5
		c0.5-10.5,0.5-19.4-4.5-26.7c-7.5-10.6-22.4-12.7-32.9-5.1c-0.7,0.5-1.4,1-2,1.5c-0.9,0.7-1.9,1.5-2.9,2.7
		c-6.2,7.2-9.8,15.5-22.6,24.7c-10.5,7.6-18.3,8.9-25.1,11.1c-2.9,0.7-5.7,2-8.3,3.8c-10.5,7.6-13,22.3-5.2,32.6
		c5.4,7.1,14,9.8,24.2,12.6c1,0.2,1.5-0.8,0.8-1.8c-6.1-8.3-4.2-19.9,4.1-25.9c6.3-4.6,18.3-5,26.3-10.8
		C884.4,1129.3,890.3,1116.9,896.6,1112.4z M921.8,1125.8c-5.1-6.9-14.9-8.5-21.9-3.4c-0.8,0.5-1.6,1.1-2.3,2
		c-0.3,0.3-0.5,0.7-0.8,1c-0.2,0.2-0.3,0.3-0.4,0.5c-3.4,4.5-6,9.5-13.5,15c-7.8,5.6-13.1,6.1-18.1,8.1c-1.8,0.5-3.5,1.3-5,2.4
		c-7,5-8.6,14.8-3.5,21.7c1.3,1.8,3,3.2,4.9,4.3c0.7,0.5,1.5,0.8,2.3,1.1c0,0,42.6,13.6,43.9,14c2.1,0.6,3-1,3.8-2
		c0.8-1,2.9-3.5,4.6-4.8c1.8-1.2,4.2-2.4,6-2.8c1.8-0.5,3.2-0.9,3-2.9c-0.2-1.8,0.1-33.5-0.1-43.6C925,1132.7,924,1129,921.8,1125.8
		z M831.1,1207.1c-3.2-9.8,2.2-20.3,12-23.4c1.4-0.4,1.5-1.8,0.2-2.3c-9.9-3.7-18.5-6.6-27-4c-12.5,3.7-19.2,17.1-15.1,29.4
		c0.2,0.7,0.5,1.5,0.9,2.2c0.4,1.1,0.9,2.3,1.6,3.5c5,8.1,11.8,14.2,16.7,29c4.1,12.3,2.8,20,2.9,27.1c-0.3,2.9,0.1,6,1,9
		c4.1,12.3,17.4,19.2,29.7,15c8.5-2.9,13.7-10.2,19.5-19c0.6-0.9-0.3-1.6-1.4-1.3c-9.8,3.2-20.4-2.1-23.6-11.9
		c-2.4-7.4,0.9-18.8-2.1-28.1C843.6,1223.8,833.5,1214.4,831.1,1207.1z M851.7,1187.5c-8.2,2.7-12.7,11.4-10,19.6
		c0.2,0.9,0.6,1.8,1.2,2.8c0.2,0.3,0.5,0.7,0.8,1.1c0.1,0.2,0.2,0.3,0.3,0.5c3.3,4.5,7.3,8.6,10.2,17.4c3,9.1,1.8,14.3,2.1,19.6
		c-0.1,1.8,0.1,3.6,0.8,5.4c2.6,8.1,11.5,12.6,19.7,10c2.1-0.7,4.1-1.9,5.6-3.3c0.7-0.5,1.3-1.2,1.8-1.8c0,0,26.2-35.9,27-37.1
		c1.2-1.8,0-3.1-0.7-4.2c-0.7-1-2.6-3.8-3.2-5.9c-0.7-2-1-4.7-0.9-6.5c0.2-1.8,0.2-3.2-1.9-3.8c-1.8-0.4-32.1-10.4-41.9-13.4
		C859.3,1186.6,855.5,1186.4,851.7,1187.5z"/>
	<path class="st6" d="M1060.2,724l95.7-33c0,0-8.1,39.9-5.9,70.8c2.9,39.8,25.9,70.4,25.9,70.4L1058,873L1060.2,724z"/>
	<g>
		<path class="st8" d="M1176,832.2c0,0-21-30-24.6-65c-2.7-26.1-0.1-48.9,4.5-76.3c-4.2,18.2-19.6,69.7-62.7,117.2
			c-17.4,19.2-25,36-28.3,47.5l-2-225.8l-0.1,0.1l0-0.1c0,0-22.7,8-25,8.7c-2.8,0.7-3.9,2.6-4,3.4c-0.1,1.4-1.1,2.1-2.8,2.6
			c-1.9,0.6-14.9,5.2-24.2,8.3c-1.7,0.6-1,2.2,0.2,2.2c10.7-0.5,26.3-1.7,27.9-1.8c2.1-0.3,3.1-1.5,3.4-2.9c0-0.2-0.1,0.1,0-0.2
			c0.3-1.7,1.9-3,3.7-3.1c1.2-0.1,9.5-1,14.8-1.6l-2.3,242.9l10.9,0.1l-0.2-17.4L1176,832.2z"/>
	</g>
	<g>
		<path class="st6" d="M751.1,879.2c0,0-17.8-13.3-22.5-38c-4.8-25.3,7.7-40.2,7.7-40.2l116.1-39.9c0,0-7.2,23-0.4,49.3
			c8.6,33.3,26.5,55.6,26.5,55.6s-42.6-8-83.8-2.8C755.3,868.2,751.1,879.2,751.1,879.2z"/>
	</g>
	<path class="st6" d="M617.4,850.1c0,0,14.4-39.4,57-82.7c32.1-32.6,53.3-42.3,53.3-42.3s-18.7,26.6-26.5,70.7
		c-4.9,27.3,0.5,61.7,0.5,61.7s-21.7-4.6-46.8-7.2C633.8,848.2,617.4,850.1,617.4,850.1z"/>
	<path class="st8" d="M727.6,725.2c0,0-18.3,26.7-26,70.9c-4.8,27.3,0.5,61.6,0.5,61.6s-5.7-1.1-18-3.9
		C632,841.9,727.6,725.2,727.6,725.2z"/>
	<path class="st8" d="M795.6,757.2l-1-104.5l0-0.1l0,0l0,0l-0.2,0.1c-2.5,0.9-22.7,7.9-24.8,8.5c-2.8,0.8-3.9,2.7-4,3.5
		c-0.1,1.4-1.1,2.1-2.8,2.6c-1.8,0.6-14.9,5.2-24.2,8.4c-1.7,0.6-1,2.3,0.2,2.2c10.7-0.6,26.2-1.7,27.8-1.8c2.2-0.2,3.2-1.5,3.5-2.9
		c0-0.2-0.1,0.1,0-0.2c0.4-1.8,1.9-3,3.6-3.1c1.2-0.1,9.1-1,14.4-1.6l-0.7,89.2H795.6z"/>
	<path class="st8" d="M931.2,662.8h8L939,562.4h0l0,0c0,0-22.8,8-25.1,8.6c-2.8,0.8-4,2.7-4,3.4c-0.1,1.4-1.1,2.1-2.8,2.7
		c-1.9,0.5-14.9,5.2-24.3,8.3c-1.7,0.6-1,2.3,0.2,2.2c10.7-0.5,26.2-1.7,27.8-1.8c2.2-0.2,3.2-1.5,3.4-2.9c0-0.2-0.1,0.1,0-0.2
		c0.4-1.8,1.9-3,3.7-3.1c1.2-0.1,8.8-1,14.1-1.5L931.2,662.8z"/>
	<path class="st6" d="M910.6,585.7c0.2,0,0.4,0,0.6,0c2.1-0.2,3.1-1.5,3.4-2.9c0-0.2-0.1,0.1,0-0.2c0.2-1.2,1.1-2.2,2.1-2.7
		l-2.9-8.8c-2.6,0.8-3.7,2.6-3.7,3.3c-0.1,1.2-0.8,1.9-2.1,2.4L910.6,585.7z"/>
	<path class="st6" d="M766.1,675.9c0.2-0.1,0.4-0.1,0.5-0.1c2.2-0.2,3.1-1.5,3.4-2.9c0.1-0.1,0,0.1,0-0.2c0.3-1.2,1.1-2.2,2.1-2.7
		l-2.9-8.8c-2.6,0.7-3.6,2.6-3.7,3.3c-0.1,1.1-0.8,1.8-2.1,2.4L766.1,675.9z"/>
	<path class="st6" d="M1034.1,653.3c0.2,0,0.4,0,0.5,0c2.1-0.2,3.1-1.5,3.4-2.9c0.1-0.2,0,0.1,0-0.2c0.3-1.2,1.1-2.2,2.2-2.7
		l-2.9-8.8c-2.6,0.8-3.7,2.7-3.7,3.3c0,1.2-0.8,1.9-2.1,2.4L1034.1,653.3z"/>
	<path class="st8" d="M878.2,866c0,0-18.7-27.2-25.9-56.1c-6.2-24.8,0-48.6,0-48.6s-12.5,42.6-42,65.8
		c-20.7,16.2-70.7,31.3-59.2,52.2c1.6-2.8,6.8-8.4,27.5-13.1c2.5-0.6,5-1.1,7.6-1.5l-0.1,34.5l10.9,0l-0.1-35.9
		C835.1,859.2,878.2,866,878.2,866z"/>
	<g>
		<path class="st6" d="M739,794c0,0-13.5-8.1-12-34.7c1.6-27.3,15.3-39,15.5-39.8l90.3-31c0,0-6.6,13.4-2,33.9
			c5.6,24.8,21.5,38.7,21.5,38.7s-45.3,0.6-86.2,14.7C746.1,782.7,739,794,739,794z"/>
	</g>
	<g>
		<path class="st8" d="M792.6,737c26.1-21.5,40.2-48.6,40.2-48.6s-3.7,17.4-0.8,32.6c5,26.3,20.3,40.1,20.3,40.1
			s-36.6,0.6-76.5,11.7c-26.2,7.3-34.5,17.8-36.8,21.3C730.4,774.3,766.1,758.9,792.6,737z"/>
	</g>
	<g>
		<path class="st6" d="M895.8,886.3c0,0-24.8-18.8-30.9-53.5c-4.8-27.5,13.7-47.5,13.7-47.5l141.2-48.7c0,0-7.7,31.4-0.6,61.1
			c8.1,33.7,39,75.6,39,75.6s-58.8-16.9-109.5-10.6C900.4,868.8,895.8,886.3,895.8,886.3z"/>
	</g>
	<g>
		<path class="st6" d="M866.8,662c-1-21.4,13.9-38.5,14.7-39.4L983,587.3c0,0-6.6,16-5,29.6c3.1,26,17.8,39.7,17.8,39.7
			s-39.9-2.2-86.5,14.1c-26,9.1-28.5,21.4-28.5,21.4S868.1,688.6,866.8,662z"/>
	</g>
	<g>
		<path class="st8" d="M947.1,634.7c18.1-15.9,35.9-47.4,35.9-47.4s-6.6,16-5,29.6c3.1,26,17.8,39.7,17.8,39.7s-43-0.5-84.5,14
			c-17.8,6.2-29,16.1-30.5,21.6C874.5,672.1,922,656.8,947.1,634.7z"/>
	</g>
	<g>
		<path class="st6" d="M881.4,779.1c0,0-14.7-16.9-17.4-42.9c-2.9-27.2,13.3-38.2,14.5-38.9l117.3-40.6c0,0-3.2,8.5-0.3,32.2
			c2.5,19.8,22.1,47,22.1,47s-62.4,1.6-101.3,16.6C891.9,762,881.4,779.1,881.4,779.1z"/>
	</g>
	<g>
		<path class="st8" d="M959.1,711.1c25.4-21.8,36.8-54.5,36.8-54.5s-3.2,18.6,0.2,33c6,25.5,23.9,46.9,23.9,46.9
			s-54.5,0.8-94.2,14.1c-25.8,8.6-41.8,23.9-44.2,28.4C876.2,757.3,933.7,732.9,959.1,711.1z"/>
	</g>
	<g>
		<path class="st8" d="M1060.6,875.1c0,0-32-41.2-41.2-77.7c-6-24-1.6-51.4,0.4-60.8c-3.4,12.8-16.5,54.3-47.6,82.9
			c-29.8,27.5-88.9,41-76.3,66.9c2.2-4.3,9-14,33-20l-0.5,33.3l11.3,0.1l0.1-35.6C992,856,1060.6,875.1,1060.6,875.1z"/>
	</g>
	<path class="st9" d="M1115,952.8c7.4-1.4,14.8-3,25.7-5.8c-0.7-0.4-1.2-0.8-1.7-1.4c-12-13.2-9.8-27.3-2.6-34.1
		c26.4-24.7,26-42.7,26-42.7s-64.2,13.2-148.5,17.6c-5.5,0.3-25.1,8.9-30.8,9.1c-11.6,0.4-23.5,0.8-35.8,0.9
		c-159.3,1.1-203.8-9.8-256.1-19.6c-52.9-9.9-76.2-20.7-76.2-20.7l-2,5.7c0,0,41.8,16.1,71.9,30.9c6.3,3.1,31.2,40.5,39.5,53H534.9
		c-10.6-217,31.5-394.6,31.5-394.6s144.9-31,362.8-31l0.1-23.2C698,497.1,544,529.9,544,529.9s-67.3,237.1-31.6,519.4
		c14.9,117.7,112.3,337.9,416,439.9l13.3-18.6l-13.3-18.4c-286-96-369.5-289.6-384.1-400.3c-3.2-24.5-5.7-48.9-7.4-72.8h392.6v-33.2
		H728.1c4.3-14.6,18.7-18.1,36.1-13.9c18.3,4.3,36.2,9,53.4,8.1c43.1-2.1,36.8-13.8,40.7-13.5c44.3,2.7,61.1,13.6,99.9,12.9
		c35.3-0.6,47.5-9.8,50.9-9.9c43.1-0.4,59.4,19.3,102.7,23C1112.8,952.6,1113.9,952.7,1115,952.8z"/>
	<path class="st10" d="M1313,529.9c0,0-153.3-32.9-384.7-32.9l0.1,23.2c217.9,0,362.2,31,362.2,31s42,177.6,31.5,394.6h-189.9
		c-15.2-14.5-6.4-33.8-1.5-38.2c22.5-20,22.5-33.7,22.5-33.7s-51.3,12.8-135.7,16.5c-5.5,0.2-29.2,10.9-34.8,11
		c-11.6,0.3-28.2,0.8-40.4,0.8c-110-0.1-163.8-2.1-259.3-22.5c1.8,2.3,2.6,3.2,4.4,5.7c0.5,0.7,41.8,11.4,42.4,12.1
		c6.2,8.5,14.5,14.5,24.5,19.8c15.3,8.1,38,15.1,57,16.3c43,2.6,35-13.5,38.9-13.6c44.2-0.8,72.5,15.1,111.3,14.5
		c35.3-0.6,36.5-11.6,39.8-11.8c34.8-2,70.4,13.3,100.8,23H928.4v33.2h391.6c-1.7,23.9-4.2,48.3-7.4,72.8
		c-14.6,110.8-98.3,304.3-384.3,400.3v37c303.7-102,401.3-322.2,416.2-439.9C1380.3,767.1,1313,529.9,1313,529.9z"/>
	<g>
		<polygon class="st0" points="218.9,632.1 234.9,601.9 306.5,596.7 270.2,534.7 286.1,504.4 413.8,571.6 399.1,599.5 315.8,555.7 
			351.4,620.3 351,621 278.3,628.2 361.1,671.8 346.6,699.3 		"/>
		<path class="st0" d="M364.9,405.3l20.1-21.3l148.1,54.6l-22.8,24.1l-32.6-12.5l-41.8,44.4l14.5,31.8L428.2,550L364.9,405.3z
			 M449.6,439.3l-47.2-18.1l20.9,46L449.6,439.3z"/>
		<polygon class="st0" points="479.3,300.3 504.3,285.1 608.2,326 562.1,250.1 588.9,233.8 663.7,357.2 640.6,371.2 533.3,329 
			580.9,407.4 554.1,423.6 		"/>
		<path class="st0" d="M672.9,275.3l-0.2-0.4c-11.4-39.4,9-80.3,51.6-92.6c26.1-7.5,44.3-3.4,60.8,5.6l-13,28
			c-13.5-6.6-26-9.4-39.9-5.4c-23.4,6.7-34.6,31-27.8,54.8l0.1,0.4c6.9,23.8,29,38.8,52.8,32c15.8-4.6,23.7-13.7,31.7-26.8l25.1,14
			c-9.8,19.3-22.9,33.4-49.7,41.2C723.8,337.8,684.4,315.1,672.9,275.3z"/>
		<polygon class="st0" points="845.9,159.5 877.7,158.7 879.1,215.8 937.6,214.3 936.2,157.2 967.9,156.4 971.6,300.6 939.8,301.4 
			938.3,243.6 879.8,245 881.3,302.9 849.6,303.7 		"/>
		<path class="st0" d="M1154.6,320.3l26.5-12.5c7.3,15.2,16.8,27.1,31.7,34c11.8,5.5,21.1,4.1,24.6-3.6l0.1-0.4
			c3.4-7.3,0.7-13.1-18.7-28.8c-23.2-18.9-36.9-34.1-24.9-60.1l0.1-0.4c11-23.8,37.4-30.7,64.1-18.3c19.1,8.8,32.6,22.3,41,39.1
			l-25,14.8c-7.9-13.4-17.1-23.6-28.1-28.7c-11-5.1-19.2-2.7-22.1,3.7l-0.2,0.4c-3.9,8.6,0.3,14,20.3,30.3
			c23.4,19.2,33.9,35.7,23.4,58.5l-0.2,0.4c-12,26-38.6,31.4-66.8,18.4C1180.8,357.8,1163.9,341.6,1154.6,320.3z"/>
		<polygon class="st0" points="1365.1,328.6 1330.2,302 1347.9,278.7 1443,351.2 1425.2,374.5 1390.3,347.9 1320.6,439.4 
			1295.3,420.1 		"/>
		<path class="st0" d="M1593.2,533.5l29.6,58.9c8.2,16.4,10,31.4,5.8,44.2c-3.6,10.8-11.8,19.7-23.9,25.9l-0.4,0.2
			c-20.8,10.5-39.6,5.8-53.9-7.5l-30.2,54.6l-16.7-33.2l27.4-48.4l-11.2-22.3l-41.2,20.7l-14.3-28.4L1593.2,533.5z M1559.3,622
			c7,13.8,18.3,18,29.2,12.5l0.4-0.2c12.1-6.1,14.2-17.7,7.2-31.5l-14.1-28.2l-37,18.6L1559.3,622z"/>
		<polygon class="st0" points="1058.3,256.2 1111.5,267.7 1126.2,242 1064.4,228.6 1070.6,200 1146.1,216.4 1152.1,188.8 
			1045.7,165.7 1015.1,306.7 1122.5,330 1128.5,302.4 1052,285.8 		"/>
		<polygon class="st0" points="1486.4,394 1375.8,486.7 1446.4,570.9 1468,552.8 1417.7,492.7 1441,473.3 1476.4,515.5 
			1505.1,505.7 1462.6,455.1 1485.1,436.3 1534.7,495.6 1556.3,477.4 		"/>
		<g>
			<path class="st0" d="M685.3,1623.9v-0.4c0-41.8,31.4-76,76.6-76c27.7,0,44.3,9.2,57.9,22.7l-20.6,23.7
				c-11.3-10.3-22.9-16.6-37.6-16.6c-24.8,0-42.6,20.6-42.6,45.8v0.4c0,25.1,17.4,46.1,42.6,46.1c16.8,0,27.1-6.7,38.6-17.2
				l20.6,20.8c-15.1,16.1-31.9,26.2-60.2,26.2C717.4,1699.4,685.3,1666.1,685.3,1623.9z"/>
			<path class="st0" d="M852.2,1550.1h32.3v146.9h-32.3V1550.1z"/>
			<path class="st0" d="M959.7,1579.8H915v-29.8h121.7v29.8h-44.7v117.1h-32.3V1579.8z"/>
			<path class="st0" d="M1106.9,1639l-56.4-88.9h37.7l35.1,58.9l35.6-58.9h36.8l-56.5,88.3v58.5h-32.3V1639z"/>
		</g>
	</g>
</g>
</svg>
