<?xml version="1.0" encoding="utf-8"?>
<!-- Generator: Adobe Illustrator 26.2.1, SVG Export Plug-In . SVG Version: 6.00 Build 0)  -->
<svg version="1.1" id="Logo" xmlns="http://www.w3.org/2000/svg" xmlns:xlink="http://www.w3.org/1999/xlink" x="0px" y="0px"
	 viewBox="0 0 200 200" style="enable-background:new 0 0 200 200;" xml:space="preserve">
<style type="text/css">
	.st0{fill:#DC0D15;}
</style>
<g>
	<g>
		<g>
			<polygon class="st0" points="83,1.3 79.8,10.4 70.4,10.4 78.1,15.9 75.1,25.4 83,19.9 90.9,25.4 87.9,15.9 95.6,10.4 86.1,10.4 
							"/>
			<polygon class="st0" points="112.6,1.3 109.4,10.4 100,10.4 107.7,15.9 104.7,25.4 112.6,19.9 120.6,25.4 117.6,15.9 125.2,10.4 
				115.8,10.4 			"/>
		</g>
		<g>
			<path class="st0" d="M115.3,134.6c-15.4,9.8-27.3,3.9-33.4,0c-11.5-7.3-20.7-3.2-23.8-0.1v8.3c2.8-2.9,6.7-4.4,11.2-4.4
				c0,0,4.5-0.4,12,3.4c5.1,2.5,16.5,10.7,34.6,0c6.3-3.7,12-3.4,12-3.4c4.6,0,8.6,1.6,11.4,4.7v-8.4
				C136.3,131.7,127,127.1,115.3,134.6z"/>
			<path class="st0" d="M115.3,145.3c-15.4,9.8-27.3,3.9-33.4,0c-11.5-7.3-20.7-2.3-23.8,0.8v9.2c2.8-3,6.7-6.2,11.2-6.2
				c0,0,4.5-0.4,12,3.4c5.1,2.5,16.5,10.7,34.6,0c6.3-3.7,12-3.4,12-3.4c4.6,0,8.5,3.2,11.4,6.3v-9.2
				C136.3,143.1,127,137.8,115.3,145.3z"/>
			<path class="st0" d="M138.6,81.2c1.4-7.2-1.7-10.3-4.9-11.6c0.7-2.5-0.4-6.1-3.2-8.9c-1.6-1.6-3.3-2.6-5-3.1
				c1.8-6.8-0.5-13.5-8.2-15.5c-1.9-0.5-4-0.5-5.8,0c-2.9-4.8-8.1-8-14.1-8c-5.9,0-11,3.1-13.9,7.8c-3.2-0.6-6.7,0.2-9.5,2.3
				c-4.2,3.3-5.6,9-3.8,13.8c-3.2,0.3-6,2-7.4,4.8c-1.1,2.3-1,4.9,0,7.2c-3.3,1.6-5.5,4.7-5.5,8.2c0,0.8,0.1,1.6,0.4,2.4
				c-3.6,2.4-6,6.4-6,11c0,7.3,6,13.2,13.3,13.2c1.8,0,3.5-0.4,5.1-1c2.2,4.2,6.6,7.1,11.7,7.1c2.8,0,5.3-1,7.5-2.4v17.8
				c-12.9-7.2-18.8-7-20.9-7c-3-0.2-8.2,1.2-10.5,3.7v8.3c2.3-2.4,8.1-4.1,12.5-4c2.3,0.1,7.3,1.1,12.4,4.1
				c7.6,4.3,13.4,5.2,13.4,5.2V97.1c-2.2,2.8-6.3,4.6-11,4.6c-6.1,0-11.2-3.1-12.3-7.2c-0.7,0.9-1.8,1.6-2.9,2
				c-3.4,1.2-7-0.2-8.2-3.3s0.7-6.6,4.1-7.9c0.4-0.2,0.8-0.3,1.2-0.3c-2.2-2.1-3.2-4.8-2.2-7c1-2.2,3.8-3.3,6.9-2.7
				c-1.1-1.2-1.7-2.7-1.7-4.3c0-4,3.8-7.3,8.4-7.3c0.3,0,0.7,0,1,0.1c-1.4-1.5-2.3-3.6-2.3-5.9c0-4.7,3.8-8.5,8.4-8.5
				c1.3,0,2.5,0.3,3.5,0.8c0.6-3.9,4.1-6.9,8.4-6.9c4.3,0,7.9,3.1,8.4,7.1c1.2-0.7,2.6-1,4.2-1c4.6,0,8.4,3.9,8.4,8.8
				c0,2.2-0.7,4.2-2,5.7c0.3,0,0.6-0.1,0.9-0.1c4.6,0,8.3,3.2,8.3,7.2c0,1.3-0.4,2.5-1.1,3.6c2.6,0,5,1.4,5.9,3.9
				c0.7,2,0.3,4.1-1,5.7c0.1,0,0.2,0,0.3,0.1c3.4,0.6,5.7,3.8,5.1,7.2c-0.6,3.4-3.8,5.6-7.2,5c-1.8-0.3-3.3-1.4-4.2-2.8
				c-0.8,4.4-5.9,7.8-12.1,7.8c-4.4,0-8.7-1.7-10.8-4.2v39.4c0,0,5.8-0.8,13.4-5.2c5.2-3,10.1-4,12.4-4.1c4.5-0.2,10.3,1.4,12.5,4
				v-8.3c-2.2-2.6-7.4-3.8-10.5-3.7c-2,0-8-0.2-20.9,7v-17.8c1.3,0.8,3.4,1.6,5,1.7c5.5,0.5,11.4-2.1,14.1-6.6
				c8.9,2.3,15.6-3.5,17-9.8c0.2-0.9,0.3-1.9,0.3-2.7C144.3,87,142.2,83.7,138.6,81.2z"/>
		</g>
	</g>
	<g>
		<path class="st0" d="M92.1,168.7v1.6l0,0c0,1.5-0.4,2-1.5,2h-0.8l0,0v-5.5l0,0h0.8C91.8,166.7,92.1,167.2,92.1,168.7L92.1,168.7z
			 M104.8,191.5c-7.8-0.1-7.6-6.3-7.6-6.3v-5.7c0-3.2-1-4.5-4.2-4.7v-0.2c2.8-0.2,4.2-1.7,4.2-4.7v-3c0-3.5-1.9-5-6.4-5h-6.4v27h5.3
			v-12.3h0.1c1.2,0,2,0.8,2,2.4v6.1c0,0-0.2,2.6,0.6,4.7c1.7,4.5,6.7,7.1,11.7,7.1c0.8,0,1.6-0.1,2.3-0.2v-5.4
			C106,191.5,105.3,191.5,104.8,191.5"/>
		<polygon class="st0" points="58.1,188.9 63.4,188.9 63.4,176.8 67.7,176.8 67.7,172.2 63.4,172.2 63.4,166.7 68.2,166.7 
			68.2,162.2 58.1,162.2 		"/>
		<path class="st0" d="M77.3,182.2c0,1.1,0,1.4-0.3,1.8c-0.2,0.3-0.5,0.5-1,0.5c-0.4,0-0.8-0.2-1-0.5c-0.2-0.4-0.3-0.7-0.3-1.8
			v-13.4c0-1.1,0-1.4,0.3-1.8c0.2-0.3,0.5-0.5,1-0.5c0.4,0,0.8,0.2,1,0.5c0.2,0.4,0.3,0.7,0.3,1.8V182.2z M76,161.8
			c-2.4,0-4.1,0.7-5.2,2.1c-1.1,1.3-1.4,3.2-1.4,6.1V181c0,2.9,0.3,4.8,1.4,6.1c1.1,1.3,2.8,2.1,5.2,2.1c2.4,0,4.1-0.7,5.2-2.1
			c1.1-1.3,1.4-3.2,1.4-6.1v-11.1c0-2.9-0.3-4.8-1.4-6.1C80.1,162.5,78.4,161.8,76,161.8"/>
		<polygon class="st0" points="127.2,162.2 127.2,166.7 130.6,166.7 130.6,188.9 135.9,188.9 135.9,166.7 139.2,166.7 139.2,162.2 
					"/>
		<path class="st0" d="M106.6,172.2h-2.2v-3.7c0-0.8,0-1.2,0.2-1.4c0.2-0.3,0.5-0.4,0.9-0.4c0.4,0,0.7,0.1,0.9,0.4
			c0.2,0.3,0.2,0.6,0.2,1.4L106.6,172.2L106.6,172.2z M105.5,161.8c-2.2,0-3.7,0.5-4.8,1.6c-1.2,1.2-1.5,2.8-1.5,5.1v14
			c0,2.3,0.3,3.9,1.5,5.1c1.1,1.1,2.6,1.6,4.8,1.6s3.7-0.5,4.8-1.6c1.1-1.1,1.4-2.4,1.5-4.3v-3.8h-5.2v3.1c0,0.8,0,1.1-0.2,1.4
			c-0.2,0.3-0.5,0.4-0.9,0.4c-0.4,0-0.7-0.1-0.9-0.4c-0.2-0.3-0.2-0.6-0.2-1.4v-5.8h7.4v-8.3c0-2.3-0.3-3.9-1.5-5.1
			C109.3,162.3,107.6,161.8,105.5,161.8"/>
		<path class="st0" d="M122.2,173.4l-0.7-0.4c-2.1-1.3-2.4-1.8-2.4-3v-0.1v-1.3V168c0-0.9,0.4-1.3,1.1-1.3c0.4,0,0.7,0.2,0.9,0.5
			c0.2,0.3,0.2,0.6,0.2,2.9v1h5.3v-1.3c0-3.3-0.2-4.6-1.6-6.1c-1.1-1.1-2.7-1.7-4.8-1.7c-4.1,0-6.4,2.3-6.4,6.1v0.3v1.7v0.5
			c0,3.6,1.3,4.6,4.6,6.7l0.7,0.4c2.1,1.3,2.4,1.8,2.4,3v0.2v1.8v0.6c0,0.9-0.5,1.3-1.1,1.3c-0.4,0-0.7-0.2-0.9-0.5
			c-0.2-0.4-0.2-0.2-0.2-2.5v-1.9H114v1.9c0,3.3,0.2,4.6,1.6,6.1c1.1,1.1,2.7,1.7,4.8,1.7c4.1,0,6.4-2.3,6.4-6.1v-0.3v-2.1V180
			C126.7,176.5,125.4,175.4,122.2,173.4"/>
	</g>
</g>
</svg>
