<?xml version="1.0" encoding="utf-8"?>
<!-- Generator: Adobe Illustrator 24.0.0, SVG Export Plug-In . SVG Version: 6.00 Build 0)  -->
<svg version="1.1" id="Layer_1" xmlns="http://www.w3.org/2000/svg" xmlns:xlink="http://www.w3.org/1999/xlink" x="0px" y="0px"
	 viewBox="0 0 512 512" style="enable-background:new 0 0 512 512;" xml:space="preserve">
<style type="text/css">
	.st0{fill:#FFFFFF;}
	.st1{fill:#EC2227;}
	.st2{fill:#010101;}
	.st3{fill:#FCEE23;}
</style>
<g>
	<path id="XMLID_106_" class="st0" d="M467,256c0,116.5-94.5,211-211,211c-116.5,0-211-94.5-211-211c0-116.5,94.5-211,211-211
		C372.5,45,467,139.5,467,256z"/>
	<path id="XMLID_105_" class="st1" d="M456.4,256c0,110.7-89.7,200.4-200.4,200.4S55.6,366.7,55.6,256
		c0-110.7,89.7-200.4,200.4-200.4S456.4,145.3,456.4,256z"/>
	<path id="XMLID_104_" class="st0" d="M399.3,256c0,79.1-64.2,143.3-143.3,143.3c-79.1,0-143.3-64.2-143.3-143.3
		c0-79.1,64.2-143.3,143.3-143.3C335.1,112.7,399.3,176.9,399.3,256z"/>
	<circle id="XMLID_103_" class="st2" cx="256" cy="256" r="133.1"/>
	<g>
		<path id="XMLID_102_" class="st0" d="M250,198.6c-2.1,3.1-8.1,12.8-12,18.1c2.1,8.3,8.5,2.4,17.5,2c8.5-0.4,12.3,6.7,17.7-2.3
			c-3.5-5.9-9.8-15.3-11.9-18.1c-1.6,1.2-3.6,1.9-5.8,1.9C253.5,200.2,251.6,199.6,250,198.6"/>
		<path id="XMLID_101_" class="st0" d="M254.7,179.6L254.7,179.6c0,0-0.5-15.6-0.6-23.4c-6.7-5.4-9,3.7-15.9,9.4
			c-6.6,5.4-14.6,2.6-13.5,13c6.5,2.7,18.5,6.1,21.4,7C247.6,182.2,250.8,179.9,254.7,179.6"/>
		<path id="XMLID_100_" class="st0" d="M245.5,187.2c-2.3-0.7-14.8-4.6-21.9-6c-6.6,8.1,1.6,10.1,4.2,18.2
			c2.7,8.5-0.4,17.4,8.2,16.6c3.7-5.6,10.8-15.8,12.8-18.5c-2.1-1.9-3.5-4.6-3.6-7.6C245.1,189,245.2,188.1,245.5,187.2"/>
		<path id="XMLID_99_" class="st0" d="M256.2,179.6c3.9,0.3,7.1,2.6,8.6,6c2.9-0.8,14.8-4.3,21.4-7c1-10.4-6.9-7.6-13.5-13
			c-6.9-5.7-9.2-14.8-15.9-9.4C256.7,164,256.2,179.6,256.2,179.6L256.2,179.6"/>
		<path id="XMLID_98_" class="st0" d="M265.4,187.2c0.2,0.9,0.4,1.8,0.4,2.7c0,3.1-1.2,5.6-3.4,7.5c1.9,2.8,8.9,12.2,12.6,17.8
			c8.5,0.8,5.4-7.2,8.2-15.7c2.5-8.1,10.8-10.1,4.2-18.2C280.1,182.7,267.7,186.5,265.4,187.2"/>
		<path id="XMLID_97_" class="st0" d="M219.6,181.3c-0.1,0.1-1.5,4.4-0.7,8.8c0.5,2.5,4.8,4.2,6.5,8.7c2.5,6.8-1,19.4,8.2,19
			C215.7,230.2,200.8,186.6,219.6,181.3"/>
		<path id="XMLID_96_" class="st0" d="M290.3,180.5c19.2,2.8,6.2,37.7-1.8,39.4c-3.1,1-7.2-0.1-9.6-1.1c7.7-2.5,4.7-9.2,6.9-19.2
			c1.3-5.8,6.9-7.1,7-12C293.1,184.1,290.5,183.5,290.3,180.5"/>
		<path id="XMLID_95_" class="st0" d="M235.9,220.1c4.3,8.2,10,1.8,21.5,2.1c7.7,0.2,15,4.1,18.3-1.8
			C281.4,239.3,231.8,242.4,235.9,220.1"/>
		<path id="XMLID_94_" class="st0" d="M253.1,153.3c-8.4-3.9-9,4.6-18.4,11.3c-6.3,4.5-14.4,5.8-13.5,12.5
			C205.3,165.4,242.9,133,253.1,153.3"/>
		<path id="XMLID_93_" class="st0" d="M257.6,153.3c8.4-3.9,9,4.6,18.4,11.3c6.3,4.5,14.4,5.8,13.5,12.5
			C305.4,165.4,267.8,133,257.6,153.3"/>
		<path id="XMLID_92_" class="st0" d="M259.7,145.5c0,0-4.5,3.1-4.3,6.6c-0.2-3.7-4.5-6.5-4.5-6.5s4.5-3.2,4.3-6.6
			C255.6,143.7,259.7,145.5,259.7,145.5"/>
		<path id="XMLID_91_" class="st0" d="M299.2,180.8c0,0-4.5-2.8-7.7-2.5c3.9-1.1,5.7-5.8,5.7-5.8s2.9,3.1,7.8,2.5
			C301.9,175.7,299.2,180.8,299.2,180.8"/>
		<path id="XMLID_90_" class="st0" d="M278.8,229.2c0,0,1.4-4.7-0.4-8.2c2.2,2.9,7.8,2.5,7.8,2.5s-1.8,5.3,0.4,8.2
			C284.4,228.9,278.8,229.2,278.8,229.2"/>
		<path id="XMLID_89_" class="st0" d="M226,222.6c0,0,4.7,1.6,7.8-2c-2.1,3.4-0.3,8.1-0.3,8.1s-4.8-0.6-7.9,2
			C228.1,226.7,226,222.6,226,222.6"/>
		<path id="XMLID_88_" class="st0" d="M214,173.2c0,3.3,4.7,5.9,4.7,5.9s-3.7-0.8-6.9,3c-0.9-4-4.7-5.9-4.7-5.9
			S212.6,176.1,214,173.2"/>
		<path id="XMLID_87_" class="st0" d="M264.3,189.8c0.1,4.9-3.8,8.8-8.7,8.9c-4.9,0.1-8.9-3.8-8.9-8.7c-0.1-4.8,3.8-8.8,8.7-8.9
			C260.2,181,264.2,184.9,264.3,189.8"/>
		<path id="XMLID_86_" class="st2" d="M255.4,194.9c-0.5,0.7-1.2,1.1-2.1,1.1c-2,0-4-1.9-4-3.9c0-0.8,0.4-1.6,1.1-2.1
			c-0.7-0.5-1.1-1.2-1.1-2.1c0-2,1.9-4,3.9-4c0.8,0,1.6,0.4,2.1,1.1c0.5-0.7,1.2-1.1,2.1-1.1c2,0,4,1.9,4,3.9c0,0.8-0.4,1.6-1.1,2.1
			c0.7,0.5,1.1,1.2,1.1,2.1c0,2-1.9,4-3.9,4h0C256.7,196,255.9,195.6,255.4,194.9"/>
		<path id="XMLID_85_" class="st0" d="M253.2,185.6c-1,0-2.2,1.2-2.2,2.3c0,0.3,0.2,0.5,0.4,0.6l2,1.4l-2,1.5
			c-0.2,0.1-0.4,0.3-0.4,0.7c0,1,1.2,2.2,2.3,2.2c0.3,0,0.5-0.2,0.6-0.4l1.4-2l1.5,2c0.2,0.2,0.4,0.4,0.6,0.4c1,0,2.2-1.2,2.2-2.3
			c0-0.2-0.1-0.5-0.4-0.6l-2-1.4l2-1.4c0.2-0.2,0.4-0.4,0.3-0.6c0-1-1.2-2.2-2.3-2.2c-0.2,0-0.4,0.1-0.6,0.4l-1.4,2l-1.4-2
			C253.8,185.8,253.6,185.6,253.2,185.6L253.2,185.6z"/>
		<path id="XMLID_84_" class="st2" d="M258.6,187.5c-0.2-0.1-0.4-0.1-0.7-0.1c0-0.6-0.3-1.1-0.6-1.3c-0.5-0.5-1.3-0.7-2-0.7
			c-0.7,0-1.5,0.2-2,0.8c-0.2,0.2-0.5,0.7-0.5,1.3c-0.3,0-0.5,0.1-0.7,0.1c-0.9,0.4-1.3,1.4-1.3,2.4c0,1.1,0.5,2,1.4,2.4
			c0.2,0.1,0.4,0.1,0.7,0.1c0,0.6,0.3,1.1,0.6,1.3c0.5,0.5,1.3,0.7,2,0.7c0.7,0,1.5-0.2,2-0.7c0.2-0.2,0.5-0.7,0.5-1.3
			c0.3,0,0.5-0.1,0.7-0.1c0.9-0.4,1.3-1.4,1.3-2.4C259.9,188.8,259.4,187.8,258.6,187.5"/>
		<path id="XMLID_83_" class="st0" d="M257.9,190.7L257.9,190.7c-0.2,0-0.5-0.1-0.8-0.3c0-0.2,0.1-0.3,0.1-0.5c0-0.2,0-0.3-0.1-0.5
			c0.3-0.3,0.6-0.4,0.7-0.4l0.1,0c0.1,0,0.3,0.3,0.3,0.8C258.2,190.4,258,190.7,257.9,190.7"/>
		<path id="XMLID_82_" class="st0" d="M256.2,192.5c-0.1,0.1-0.4,0.2-0.8,0.2c-0.3,0-0.7-0.1-0.8-0.2l-0.1-0.1
			c0-0.2,0.2-0.5,0.4-0.8c0.2,0,0.3,0.1,0.5,0.1c0.1,0,0.3,0,0.4-0.1c0.2,0.3,0.4,0.6,0.4,0.8L256.2,192.5z"/>
		<path id="XMLID_81_" class="st0" d="M252.9,190.8L252.9,190.8c-0.1,0-0.4-0.3-0.3-0.8c0-0.5,0.2-0.8,0.3-0.8l0.1,0l0,0
			c0.1,0,0.4,0.1,0.8,0.4c0,0.1-0.1,0.3-0.1,0.4c0,0.2,0,0.3,0.1,0.5C253.3,190.7,253,190.8,252.9,190.8"/>
		<path id="XMLID_80_" class="st0" d="M254.6,187.3c0.1-0.1,0.4-0.2,0.8-0.2c0.3,0,0.7,0.1,0.8,0.2l0.1,0.1c0,0.1-0.1,0.4-0.3,0.7
			c-0.1,0-0.3-0.1-0.4-0.1c-0.2,0-0.3,0-0.5,0.1c-0.2-0.3-0.4-0.6-0.4-0.7L254.6,187.3z"/>
		<circle id="XMLID_79_" class="st0" cx="255.4" cy="189.9" r="0.6"/>
	</g>
	<g>
		<path id="XMLID_78_" class="st0" d="M226.2,347.9c1.7,3.2,1.5,6.7-1.6,7.9c-3,1.3-8-0.1-10.1-3.3c-8.5-12.9-3.8-28.3-11-41.2
			c-1.7-3.2-1.5-6.7,1.6-7.9c3-1.3,8,0.1,10.1,3.4C223.7,319.6,219,335,226.2,347.9"/>
		<path id="XMLID_77_" class="st0" d="M308.2,311.3c1.7-3.2,1.4-6.7-1.6-7.9c-3-1.3-8,0.1-10.1,3.4c-8.5,12.9-3.8,28.3-11,41.2
			c-1.7,3.2-1.5,6.7,1.6,7.9c3,1.3,8-0.1,10.1-3.3C305.7,339.6,301,324.2,308.2,311.3"/>
		<path id="XMLID_76_" class="st3" d="M177.4,328c1.8,0.5,2.7,2.4,2.2,4.1l-2.8,9.3c-0.5,1.8-2.4,2.7-4.1,2.2
			c-1.8-0.5-2.7-2.4-2.2-4.1l2.8-9.3C173.8,328.5,175.6,327.5,177.4,328"/>
		<path id="XMLID_75_" class="st3" d="M186.2,327.8c1.8,0.5,2.8,2.4,2.2,4.1l-2.8,9.3c-0.5,1.8-2.4,2.7-4.1,2.2
			c-1.8-0.5-2.8-2.4-2.2-4.1l2.8-9.3C182.6,328.2,184.4,327.2,186.2,327.8"/>
		<path id="XMLID_74_" class="st3" d="M195.4,326.8c1.7,0.5,2.7,2.4,2.2,4.1l-2.8,9.2c-0.5,1.8-2.4,2.7-4.1,2.2
			c-1.8-0.5-2.7-2.4-2.2-4.1l2.8-9.3C191.9,327.3,193.7,326.3,195.4,326.8"/>
		<path id="XMLID_73_" class="st3" d="M204.4,326.1c1.8,0.5,2.7,2.4,2.2,4.1l-2.8,9.3c-0.5,1.7-2.4,2.7-4.1,2.2
			c-1.8-0.5-2.7-2.4-2.2-4.1l2.8-9.3C200.8,326.6,202.7,325.6,204.4,326.1"/>
		<path id="XMLID_72_" class="st3" d="M334.6,328c-1.7,0.5-2.7,2.4-2.2,4.1l2.8,9.3c0.5,1.8,2.4,2.7,4.1,2.2
			c1.8-0.5,2.8-2.4,2.2-4.1l-2.8-9.3C338.2,328.5,336.3,327.5,334.6,328"/>
		<path id="XMLID_71_" class="st3" d="M325.7,327.8c-1.7,0.5-2.7,2.4-2.2,4.1l2.8,9.3c0.5,1.8,2.4,2.7,4.1,2.2
			c1.7-0.5,2.7-2.4,2.2-4.1l-2.8-9.2C329.3,328.2,327.5,327.2,325.7,327.8"/>
		<path id="XMLID_70_" class="st3" d="M316.5,326.8c-1.8,0.5-2.8,2.4-2.2,4.1l2.8,9.3c0.5,1.8,2.4,2.7,4.1,2.2
			c1.7-0.5,2.7-2.4,2.2-4.1l-2.8-9.3C320.1,327.3,318.2,326.3,316.5,326.8"/>
		<path id="XMLID_69_" class="st3" d="M307.5,326.1c-1.7,0.5-2.8,2.4-2.2,4.1l2.8,9.3c0.5,1.7,2.4,2.7,4.1,2.2
			c1.8-0.5,2.7-2.4,2.2-4.1l-2.8-9.3C311.1,326.6,309.3,325.6,307.5,326.1"/>
		<path id="XMLID_68_" class="st0" d="M313.6,210.3c-5.2,44.6-28.2,70.7-55.6,93.1c4.5,3.1,9.1,5.9,13.7,8.6
			c42-23.9,75.9-55.9,78.5-119.1C337.7,198.3,326,204.6,313.6,210.3z"/>
		<path id="XMLID_67_" class="st0" d="M222.4,323.4c0.8,3,0.6,6,1.4,7.9c9.7-3.8,21.3-6.6,30.1-11.3c-4.7-2-9.4-4.1-14.1-6.5
			c-4.9,3.8-10.9,6.8-17.5,8.8C222.4,322.7,222.4,323,222.4,323.4z"/>
		<path id="XMLID_66_" class="st0" d="M288.6,328.2c0.2-1.7,0.4-3.5,0.6-5.2c-46.1-22-82.8-52.8-90.9-112.7
			c-12.4-5.7-24-12-36.6-17.5c4.5,83.1,60.8,118.3,126.7,137.4C288.5,329.5,288.6,328.9,288.6,328.2z"/>
	</g>
	<g>
		<path id="XMLID_65_" class="st0" d="M89.5,246.5c4.1,0.4,6-2.6,6.3-6.3c0.2-2.4-0.1-6-3.3-6.3c-3.3-0.3-4.3,4.2-5.9,8.6
			c-1.6,4.4-3.8,8.9-9.6,8.3c-6.3-0.6-8.7-6.8-8.2-12.4c0.6-6.4,4-12,11.1-11.4l-0.6,6.5c-3.7-0.1-4.9,2.4-5.2,5.6
			c-0.2,2.2,0.5,4.7,3,5c2.4,0.2,2.8-1.2,5.5-8.7c0.8-2.2,2.8-8.9,9.8-8.3c5.6,0.5,9.4,5.4,8.6,13.7c-0.6,6.8-4.6,12.9-12.2,12.1
			L89.5,246.5z"/>
		<path id="XMLID_64_" class="st0" d="M72.4,216.7l1.9-6.5l11.4,3.3l3.4-12l-11.4-3.3l1.9-6.5l29.7,8.5l-1.9,6.5L94.6,203l-3.4,12
			l12.8,3.7l-1.9,6.5L72.4,216.7z"/>
		<path id="XMLID_63_" class="st0" d="M83.5,182.1l10.3-20.6l5.1,2.6l-7.3,14.6l5.9,3l6.7-13.4l4.7,2.4l-6.7,13.4l6.8,3.4l7.5-14.9
			l5.1,2.6l-10.5,21L83.5,182.1z"/>
		<path id="XMLID_62_" class="st0" d="M99.4,152.8l12.9-17.5l4.6,3.4l-8.9,12l5.7,4.2l7.7-10.4l4.2,3.1l-7.7,10.4l10.3,7.6l-4,5.5
			L99.4,152.8z"/>
		<path id="XMLID_61_" class="st0" d="M116.8,130.4l15.4-15.3l4,4l-10.6,10.5l5,5.1l9.2-9.1l3.7,3.7l-9.2,9.1l9,9l-4.8,4.8
			L116.8,130.4z"/>
		<path id="XMLID_60_" class="st0" d="M137.2,111.1l5.3-4.2l19.2,24.2l-5.3,4.2L137.2,111.1z"/>
		<path id="XMLID_59_" class="st0" d="M149.8,101.3l19.8-11.9l3,4.9l-13.9,8.4l3.4,5.7l12.8-7.7l2.7,4.5l-12.8,7.7l3.9,6.5l14.2-8.6
			l3,4.9l-20.1,12.1L149.8,101.3z"/>
		<path id="XMLID_58_" class="st0" d="M179.1,84.9l6.3-2.5l9.1,23.5l14-5.4l2.1,5.3l-20.4,7.9L179.1,84.9z"/>
		<path class="st0" d="M209.3,74.1l13.1-2.4c7.9-1.4,14.7,2.4,16.5,12.5c1.6,8.8-1.7,16.2-11,17.9l-13.1,2.4L209.3,74.1z
			 M220.5,97.6l6-1.1c3.9-0.7,7.1-3.8,5.9-10.5c-1.1-6.1-4-9.6-10.6-8.4l-4.8,0.9L220.5,97.6z"/>
		<path id="XMLID_55_" class="st0" d="M288.1,90.4c-0.9,8.3-6.3,11.8-14.5,10.9c-8.2-0.9-12.6-5.5-11.7-13.8l2.1-19.1l6.7,0.8
			l-2.1,19.1c-0.4,3.4,0.1,6.8,5.6,7.4c4.8,0.5,6.6-1.4,7.1-5.9l2.1-19.1l6.7,0.8L288.1,90.4z"/>
		<path id="XMLID_54_" class="st0" d="M299.3,73.3l6.4,2l6.1,23.6l0.1,0l6.2-19.8l6.1,1.9l-9.2,29.5l-6.5-2l-6.1-23.5l-0.1,0
			l-6.1,19.7l-6.1-1.9L299.3,73.3z"/>
		<path id="XMLID_53_" class="st0" d="M332.8,85.1l6.1,2.9l-13.2,27.9l-6.1-2.9L332.8,85.1z"/>
		<path id="XMLID_52_" class="st0" d="M348.9,99.9l-7.9-4.9l3-4.8l21.5,13.4l-3,4.8l-7.9-4.9l-13.3,21.4l-5.8-3.6L348.9,99.9z"/>
		<path id="XMLID_51_" class="st0" d="M370.3,107.2l17.4,15.1l-3.7,4.3L371.7,116l-4.3,5l11.3,9.8l-3.5,4l-11.3-9.8l-5,5.7
			l12.6,10.9l-3.7,4.3l-17.7-15.3L370.3,107.2z"/>
		<path class="st0" d="M395.4,130.3l8.2,10.5c4.9,6.3,4.7,14.1-3.4,20.4c-7,5.5-15.1,6-20.9-1.4l-8.2-10.5L395.4,130.3z
			 M379.8,151.1l3.7,4.8c2.4,3.1,6.7,4.6,12,0.3c4.9-3.8,6.7-8,2.5-13.3l-3-3.8L379.8,151.1z"/>
		<path id="XMLID_48_" class="st0" d="M425.6,175.9l8.2,20.1l-5.3,2.2l-5.7-13.8l-6.6,2.7l4.9,12l-4.9,2l-4.9-12l-11.8,4.8l-2.6-6.3
			L425.6,175.9z"/>
		<path id="XMLID_47_" class="st0" d="M411.1,205.4l2,6.5l-6.4,1.9l-2-6.5L411.1,205.4z"/>
		<path id="XMLID_46_" class="st0" d="M431.8,234.3c3-0.9,4.8-4.2,4.2-7.5c-1-6-6.5-7.4-11.8-6.5c-5.1,0.8-9.8,3.9-8.8,10
			c0.7,4.1,3.9,5.9,8,5.8l1.1,6.5c-7.7,0.6-13.4-3.9-14.7-11.3c-1.6-9.4,4.6-16.1,13.3-17.6c9-1.5,17,2.9,18.6,12.3
			c1.1,6.7-1.9,13-8.8,15L431.8,234.3z"/>
		<path id="XMLID_45_" class="st0" d="M418.9,247.3l0.2,6.8l-6.7,0.2l-0.2-6.8L418.9,247.3z"/>
	</g>
	<g>
		<path id="XMLID_44_" class="st0" d="M221.4,440l-6-1.3l4.1-19.2l-7.4-1.6l1-4.5c4.2,1,8.3,0.4,9.9-4l4.8,1L221.4,440z"/>
		<path class="st0" d="M242.1,411.6c7.5,0.7,9.6,6.1,9.4,9c-0.3,3-2,5.2-5,6l0-0.1l0,0l0,0c3.5,1.1,5.3,4.1,5,7.9
			c-0.6,6.3-6.5,9-12.1,8.5c-5.8-0.5-11.2-3.9-10.6-10.4c0.3-3.8,2.7-6.4,6.3-6.9l0-0.1c-2.9-1.1-4.1-3.6-3.9-6.6
			C231.6,413.5,237.1,411.2,242.1,411.6z M239.7,438.4c2.9,0.3,5.4-1.6,5.6-4.6c0.3-2.9-1.9-5-4.7-5.3c-3-0.3-5.5,1.2-5.8,4.3
			C234.6,435.9,236.8,438.1,239.7,438.4z M240.9,424.4c2.5,0.2,4.6-1,4.9-3.6c0.1-1.5-0.4-4.2-4.2-4.6c-2.5-0.2-4.7,1.1-5,3.8
			C236.4,422.6,238.5,424.1,240.9,424.4z"/>
		<path class="st0" d="M265.7,411.9c7.5-0.5,10.4,4.6,10.6,7.5c0.2,3-1.2,5.5-4,6.7l0-0.1l0,0l0,0c3.6,0.6,5.9,3.2,6.1,7
			c0.4,6.3-5.1,9.8-10.7,10.2c-5.8,0.4-11.7-2.2-12.1-8.8c-0.2-3.8,1.8-6.7,5.2-7.8l0-0.1c-3-0.6-4.6-3-4.8-5.9
			C255.7,415.4,260.8,412.2,265.7,411.9z M266.5,424.7c2.5-0.2,4.4-1.7,4.3-4.2c-0.1-1.6-1-4.1-4.8-3.9c-2.5,0.2-4.5,1.8-4.4,4.5
			C261.8,423.7,264,424.9,266.5,424.7z M267.4,438.7c2.9-0.2,5.1-2.4,4.9-5.4c-0.2-2.9-2.6-4.7-5.5-4.5c-3,0.2-5.2,2-5.1,5.1
			C261.9,437,264.4,438.9,267.4,438.7z"/>
		<path class="st0" d="M289.1,432.3c0.8,1.9,2.7,3.3,4.8,2.8c4.4-0.9,4.3-6.9,3.7-10.2l-0.1-0.1c-1.1,2.7-3.1,4.1-6,4.7
			c-2.5,0.5-5.4-0.1-7.5-1.6c-2-1.5-3.2-3.8-3.7-6.1c-1.3-6,1.9-11.7,8-13c9-1.9,13,5.4,14.7,12.9c1.6,7.2,0.1,16.2-8.3,18
			c-5.1,1.1-9.6-1.1-11.4-6.1L289.1,432.3z M295.6,418.3c-0.6-2.7-3-5.1-6-4.5c-2.9,0.6-3.9,3.7-3.4,6.4c0.6,2.8,2.6,5.3,5.7,4.6
			C295.2,424.1,296.2,421.2,295.6,418.3z"/>
	</g>
</g>
</svg>
