<?xml version="1.0" encoding="utf-8"?>
<!-- Generator: Adobe Illustrator 19.2.1, SVG Export Plug-In . SVG Version: 6.00 Build 0)  -->
<!DOCTYPE svg PUBLIC "-//W3C//DTD SVG 1.1//EN" "http://www.w3.org/Graphics/SVG/1.1/DTD/svg11.dtd">
<svg version="1.1" id="Southampton" xmlns="http://www.w3.org/2000/svg" xmlns:xlink="http://www.w3.org/1999/xlink" x="0px"
	 y="0px" viewBox="0 0 1881.1 2164.4" style="enable-background:new 0 0 1881.1 2164.4;" xml:space="preserve">
<style type="text/css">
	.st0{stroke:#FFFFFF;stroke-width:6.2548;}
	.st1{fill:#FFFFFF;}
	.st2{fill:#D10A11;}
	.st3{fill:#009EE2;}
	.st4{fill:none;stroke:#000000;stroke-width:15.6325;}
	.st5{stroke:#000000;stroke-width:3.8162;}
	.st6{fill:#FFFFFF;stroke:#000000;stroke-width:3.8162;}
	.st7{fill:#FCC200;stroke:#FFCB00;stroke-width:1.5216;}
	.st8{fill:#13A438;stroke:#000000;stroke-width:15.6325;}
	.st9{fill:#FCC200;}
	.st10{fill:none;stroke:#000000;stroke-width:12.4653;}
	.st11{fill:#FCC200;stroke:#000000;stroke-width:0;}
	.st12{fill:#FFFFFF;stroke:#000000;stroke-width:25.0125;}
	.st13{fill:#FFFFFF;stroke:#000000;stroke-width:12.4653;}
</style>
<g id="Strapline__x26__Saints_Logo">
	<g>
		<path class="st0" d="M1623.5,1548.6c-161.9,192.4-404.4,314.8-675.7,314.8c-268.5,0-508.7-119.8-670.7-309L85.3,1785.1
			C300.7,2016.3,608,2161.2,949,2161.2c343.1,0,651.8-146.5,867.2-380.2L1623.5,1548.6z"/>
		<path class="st0" d="M1471.7,665.1v1024.3c0,29.6-18.8,55.2-45,65L951,1938.9l-475.7-184.4c-26.2-9.8-45.1-35.4-45.1-65l0-1024.3
			H1471.7z"/>
		<polygon class="st1" points="455,1455.9 455,824.6 1446.7,824.6 1446.8,1455.9 		"/>
		<path class="st2" d="M1446.8,1396.7c-8.7,13.9-30.1,23.8-55,23.8c-25.1,0-46.7-9.8-55.2-23.9l0,0c-8.8,14.1-30.2,23.9-55.2,23.9
			c-25.1,0-46.3-9.8-55.2-23.8l0,0c-8.8,13.9-30.1,23.8-55.1,23.8c-25.1,0-46.3-9.8-55.1-23.9h-0.3c-8.7,14.1-30,23.9-55,23.9
			c-25,0-46.3-9.8-54.9-23.8l0,0c-8.8,13.9-30.4,23.8-55.2,23.8c-25.1,0-46.4-9.8-55.1-23.9h0.2c-8.9,14.1-30.1,23.9-55.1,23.9
			c-25.1,0-46.5-9.8-55.3-23.8l0,0c-8.7,13.9-30.2,23.8-55.2,23.8c-24.9,0-46.3-9.8-55-23.9h-0.2c-8.6,14.1-30.1,23.9-54.9,23.9
			c-25.2,0-46.5-9.8-55.3-23.8v0.4c-8.8,14-30.1,23.4-54.8,23.4c-25.3,0-46.6-9.8-55.2-23.9v-1.2l0.3,279
			c0,28.3,17.8,52.4,42.9,61.8L951,1911.9l452.8-175.9c25.1-9.4,43-33.5,43-61.8v-278.8l0,0"/>
		<path class="st3" d="M1446.8,1367.5c-8.7,13.9-30.1,23.8-55,23.8c-25.1,0-46.7-10-55.2-23.8l0,0c-8.8,13.8-30.2,23.8-55.2,23.8
			c-25.1,0-46.3-9.9-55.2-23.8l0,0c-8.8,13.9-30.1,23.8-55.1,23.8c-25.1,0-46.3-10-55.1-23.8h-0.3c-8.7,13.8-30,23.8-55,23.8
			c-25,0-46.3-9.9-54.9-23.8l0,0c-8.8,13.9-30.4,23.8-55.2,23.8c-25.1,0-46.4-10-55.1-23.8h0.2c-8.9,13.8-30.1,23.8-55.1,23.8
			c-25.1,0-46.5-9.9-55.3-23.8l0,0c-8.7,13.9-30.2,23.8-55.2,23.8c-24.9,0-46.3-10-55-23.8h-0.2c-8.6,13.8-30.1,23.8-54.9,23.8
			c-25.2,0-46.5-9.9-55.3-23.8v0.5c-8.8,14-30.1,23.3-54.8,23.3c-25.3,0-46.6-10-55.2-23.8v-34.6c8.7,13.9,29.9,24,55.2,24
			c24.8,0,46.1-9.9,54.8-23.9l0,0c8.8,14,30.1,23.9,55.3,23.9c24.8,0,46.3-10.1,54.9-24h0.2c8.7,13.9,30.1,24,55,24
			c25,0,46.5-9.9,55.2-23.9l0,0c8.7,14,30.2,23.9,55.3,23.9c25,0,46.2-10.1,55.1-24h-0.2c8.7,13.9,30,24,55.1,24
			c24.8,0,46.4-9.9,55.2-23.9l0,0c8.7,14,29.9,23.9,54.9,23.9c25,0,46.3-10.1,55-24h0.3c8.8,13.9,30.1,24,55.1,24
			c25,0,46.2-9.9,55.1-23.9l0,0c8.8,14,30,23.9,55.2,23.9c25,0,46.4-10.1,55.2-24l0,0c8.5,13.9,30,24,55.2,24
			c24.9,0,46.3-9.9,55-23.9V1367.5z"/>
		<path class="st3" d="M1446.8,1305.3c-8.7,13.9-30.1,23.6-55,23.6c-25.1,0-46.7-9.8-55.2-23.6l0,0c-8.8,13.8-30.2,23.6-55.2,23.6
			c-25.1,0-46.3-9.7-55.2-23.6l0,0c-8.8,13.9-30.1,23.6-55.1,23.6c-25.1,0-46.3-9.8-55.1-23.6h-0.3c-8.7,13.8-30,23.6-55,23.6
			c-25,0-46.3-9.7-54.9-23.6l0,0c-8.8,13.9-30.4,23.6-55.2,23.6c-25.1,0-46.4-9.8-55.1-23.6h0.2c-8.9,13.8-30.1,23.6-55.1,23.6
			c-25.1,0-46.5-9.7-55.3-23.6l0,0c-8.7,13.9-30.2,23.6-55.2,23.6c-24.9,0-46.3-9.8-55-23.6h-0.2c-8.6,13.8-30.1,23.6-54.9,23.6
			c-25.2,0-46.5-9.7-55.3-23.6v0.3c-8.8,14-30.1,23.3-54.8,23.3c-25.3,0-46.6-9.8-55.2-23.6v-34.6c8.7,13.9,29.9,23.9,55.2,23.9
			c24.8,0,46.1-9.7,54.8-23.8l0,0c8.8,14.1,30.1,23.8,55.3,23.8c24.8,0,46.3-10,54.9-23.9h0.2c8.7,13.9,30.1,23.9,55,23.9
			c25,0,46.5-9.7,55.2-23.8l0,0c8.7,14.1,30.2,23.8,55.3,23.8c25,0,46.2-10,55.1-23.9h-0.2c8.7,13.9,30,23.9,55.1,23.9
			c24.8,0,46.4-9.7,55.2-23.8l0,0c8.7,14.1,29.9,23.8,54.9,23.8c25,0,46.3-10,55-23.9h0.3c8.8,13.9,30.1,23.9,55.1,23.9
			c25,0,46.2-9.7,55.1-23.8l0,0c8.8,14.1,30,23.8,55.2,23.8c25,0,46.4-10,55.2-23.9l0,0c8.5,13.9,30,23.9,55.2,23.9
			c24.9,0,46.3-9.7,55-23.8V1305.3z"/>
		<path class="st4" d="M852,814.8"/>
		<path class="st5" d="M1023.6,1714.4c0,0,48.6,76.1,23.1,54.6c-18.7-16.1-44.2-53.1-62.7-83.6l-99.8,38.8c0,0-57.3,69.7-44.6,38.9
			c9.1-22.2,37.4-58.4,60.7-85.7l-68.3-82.5c0,0-84.1-32.8-50.7-30.3c21.8,1.7,67.2,18,100,31.3l57-90.6c0,0,5.3-90.2,13.3-57.7
			c5.5,22.3,3.8,70.4,1,106.1L1057,1579c0,0,87.4-22.9,58.8-5.4c-20,12.5-63.4,25.6-98.2,33.9L1023.6,1714.4z"/>
		<path class="st6" d="M944.1,1694.3c0.6,1.4,1.7,2.5,2.9,2.5c1.2,0,2.1-1.1,2.9-2.5l0,0c1.1-2.6,2.1-8.6,1.7-21.2
			c0,0,0.6-42.6,32.4,3.1c89,128.5-37.8,129.2-37.8,129.2h1.2c0,0-126.9-0.8-37.7-129.2c31.8-45.7,32.2-3.1,32.2-3.1
			c-0.1,12.7,0.6,18.6,2.1,21.4V1694.3z"/>
		<path class="st6" d="M878.9,1642.8c-1.1,1.1-1.7,2.3-1.2,3.3c0.3,1.2,1.5,2.1,3,2.1l-0.1,0c3,0.3,8.8-0.3,20.8-4.6
			c0,0,40.7-12.5,7.2,31.6c-94.8,124.4-134.4,4.3-134.4,4.3v0.9c0,0-38.2-120.9,111.4-75.7c53.4,15.9,12.8,29.8,12.8,29.8
			C886.1,1638,881,1640.6,878.9,1642.8L878.9,1642.8z"/>
		<path class="st6" d="M907.3,1564.5c-1.3-0.7-2.7-0.7-3.7,0c-0.9,0.7-1.3,2-0.9,3.5v-0.1c0.6,3,3,8.5,11.1,18.4
			c0,0,24.4,34.8-28.2,16.5c-147.4-51.5-45.5-126.5-45.5-126.5l-0.7,0.4c0,0,102.8-73.8,106.4,82.6c1.2,55.7-24.4,21.4-24.4,21.4
			C914.3,1570.2,910,1566,907.3,1564.5L907.3,1564.5z"/>
		<path class="st6" d="M991,1567.7c0.3-1.4,0-2.9-0.9-3.6c-0.9-0.5-2.4-0.3-3.8,0.4l0,0c-2.5,1.2-6.9,5.3-14.1,16
			c0,0-25.5,34.1-24.4-21.5c3.6-156.3,106.5-82.5,106.5-82.5l-0.7-0.5c0,0,102,75.1-45.7,126.6c-52.4,18.3-27.8-16.4-27.8-16.4
			C987.8,1576,990.5,1570.6,991,1567.7L991,1567.7z"/>
		<path class="st6" d="M1013.8,1648.2c1.4,0,2.8-0.9,3.1-2.1c0.5-1-0.2-2.3-1.4-3.3l0,0c-2.1-2.2-7.4-5.1-19.6-8.5
			c0,0-40.4-13.8,12.8-29.8c149.9-45.1,111.5,75.7,111.5,75.7l0.2-0.9c0,0-39.8,120.2-134.5-4.3c-33.8-44.1,6.9-31.6,6.9-31.6
			C1004.9,1647.9,1010.9,1648.5,1013.8,1648.2L1013.8,1648.2z"/>
		<path d="M860,1504.2c0,0-9.5,6.7-17.8,9.2c-8.3,2.5-11.8,8.7-12.9,10.2c0,0-4.7,10.9-7.7,6.4c-3.2-4.3,3.2-12.5,3.2-12.5
			c1-1.6,4.7-7.7,12.8-10.4c8.3-2.4,17.8-8.9,17.8-8.9s9.3-7.3,14.2-14.2c5.1-7.1,11.9-8.6,13.9-8.9c0,0,9.6-3.5,13,0.8
			c3.1,4.4-8.5,5.3-8.5,5.3c-2,0.7-8.9,2.2-13.9,9C869.3,1497.2,860,1504.2,860,1504.2z"/>
		<path d="M1033.5,1504.1c0,0-9-7.1-13.9-14.1c-5-6.9-12-8.4-13.6-9.1c0,0-11.9-0.9-8.7-5.2c3.2-4.3,13-0.7,13-0.7
			c1.9,0.3,8.8,1.8,13.7,8.9c5,6.9,14.2,14.3,14.2,14.3s9.8,6.4,17.8,8.9c8.1,2.6,11.7,8.6,12.6,10.1c0,0,6.5,8.4,3.4,12.8
			c-3.2,4.5-7.7-6.5-7.7-6.5c-1.2-1.7-4.7-7.7-13-10.2C1043.3,1510.6,1033.5,1504.1,1033.5,1504.1z"/>
		<path d="M1087.4,1669.1c0,0,4.1-10.9,9.1-17.9c5.4-6.7,4.4-13.9,4.3-15.7c0,0-2.6-11.6,2.5-9.8c5,1.7,4.8,11.9,4.8,11.9
			c0,2,0.8,9.1-4.3,16c-5.3,6.8-9.3,17.8-9.3,17.8s-3,11.2-2.8,19.6c0,8.6-4.8,13.9-5.9,15.5c0,0-6.1,8.5-11,7
			c-5.3-1.7,3.8-9.4,3.8-9.4c1-1.5,5.8-7,5.6-15.3C1084.2,1680.4,1087.4,1669.1,1087.4,1669.1z"/>
		<path d="M947.1,1770.9c0,0,11.8,0.5,19.7,3.2c8.1,2.7,14.5-0.2,16.4-0.9c0,0,9.9-6.1,9.8-0.6c0,5.1-9.8,8.3-9.8,8.3
			c-1.9,0.6-8.3,3.6-16.4,0.8c-8-2.7-19.7-3.3-19.7-3.3s-11.9,0.6-19.8,3.3c-8.1,2.9-14.4-0.2-16.5-0.8c0,0-9.9-3.2-9.9-8.3
			c-0.1-5.5,9.9,0.6,9.9,0.6c2,0.7,8.4,3.5,16.5,0.9C935.2,1771.3,947.1,1770.9,947.1,1770.9z"/>
		<path d="M806.9,1669.1c0,0,3.3,11.3,3.2,19.9c0,8.6,4.6,13.8,5.8,15.3c0,0,8.9,7.7,3.9,9.4c-5.1,1.5-11.2-7-11.2-7
			c-1.2-1.6-5.8-7-5.8-15.5c0-8.4-3-19.6-3-19.6s-4-11-9.2-17.8c-5-6.9-4.3-14.1-4.3-16c0,0,0-10.2,5-11.9c4.9-1.8,2.3,9.8,2.3,9.8
			c-0.2,1.7-0.8,9,4.5,15.7C803.1,1658.3,806.9,1669.1,806.9,1669.1z"/>
		<path class="st7" d="M946.3,1594.6c-15.6,0-28.4,12.8-28.4,28.6c0,16.1,12.8,28.6,28.4,28.6c16,0,28.7-12.5,28.7-28.6
			C975.1,1607.5,962.3,1594.6,946.3,1594.6z"/>
		<path d="M1000.4,1076.5l3.8,77.2l65.2-42.4l20.5,33.4l-76.9,44.6v16c0,0,89.5,50.3-19.6,48.3v0.7c-38.2,31.8-74.4,0.3-74.4,0.3
			c-109.1,1.9-19.7-48.1-19.7-48.1v-16.2l-68-52.8l16.1-35l60.8,52.1l3.5-77L1000.4,1076.5z"/>
		<path class="st8" d="M1081.8,1142.6c63.2,72.4,109.7-3.8,109.7-3.8c79.9-19.4,32.4-76,32.4-76c83.2-54.6-14.6-97.4-14.6-97.4
			c-0.6-72.6-62.4-67.2-62.4-67.2c-64.5-56.4-126.1,6.2-126.1,6.2c-96.8-80.6-170.2,12.4-170.2,12.4S788.7,874,761,941.2
			c0,0-98.4-2.7-61.7,96.6c0,0-76.1,76.1,23.2,113.6c0,0,52.8,97.7,125.4,4.7c0,0,44.6,2.6,37.5-60.1c0,0,56.5,23.5,110-2.6
			c0,0,17.1,38.5,53.9,16.9c0,0-5.8,24.8,29.8,29.8L1081.8,1142.6z"/>
		<path class="st9" d="M235.3,1765.7l4.7,4c-16.2,29.3-18.5,50.1-7.2,59.8c8.2,7.1,19,4.2,28.8-6.9c4.2-4.8,6.9-10.3,6.9-14.6
			c0-6.2-4.5-13-9.6-23.4c-9.7-19.9-9.3-35.8,8-55.9c17.3-19.8,40-26.5,54.4-14c6.3,5.6,9.5,13.4,10.1,23.6l11.2-3.4l3.9,3.4
			l-34.6,42l-4.1-4c13.6-28.1,16.5-44.9,6.3-53.5c-7.8-7.1-18-4.6-27,5.7c-11.3,13-4.8,20.6,3.8,36.6c4.4,8.9,8,15.8,6.2,26.5
			c-1.7,9.4-7.4,20.3-16.5,31c-18.9,21.5-40.4,27.9-55.7,14.7c-7.5-6.8-11-14.7-10.5-26.9l-13.7,4.6l-3.9-3.5L235.3,1765.7z"/>
		<path class="st9" d="M365.2,1780.1c15.8-7.5,28.9-7.1,40.6,0.8c11.8,8.3,16.8,20.2,15.1,38.4c-1.4,15.9-8.8,34.2-21.4,52.3
			c-12.6,18.1-24.8,29.7-40.4,37c-16.7,7.7-30.9,7.8-42,0c-11.4-7.9-16.1-20.2-14.6-38.8c1.5-17.7,8.1-33.3,20.8-51.4
			C335.9,1800.1,350.5,1787,365.2,1780.1z M323.3,1899.3c12.3,8.4,30.6-5.6,56-41.9c25.4-36.7,32.2-58.4,19.9-67.2
			c-12.1-8.3-30.3,5.5-55.8,42.2C318,1868.8,310.9,1890.7,323.3,1899.3z"/>
		<path class="st9" d="M492.8,1851.2l-5.4-2.9c-4.8-2.5-6.8-0.6-10.6,6.6l-35.3,66c-12.7,23.7-13.3,37.8,0.4,44.9
			c6.2,3.2,12.6,2.9,18.3,0c9.1-5,15.1-15.3,23.9-31.7l25.5-47.7c7.3-13.9,8.8-21.8-0.5-26.6c-0.1-0.1-0.6-0.3-0.7-0.4l5-9.5
			l30,16.1l-5,9.3c-9.4-3.4-14.3,1.5-21.6,15l-26.3,49.1c-7.6,14.3-13.6,24.9-22.4,32.5c-13.1,11-25.9,12.5-39.8,4.7
			c-21.5-11.3-24.2-31.9-9-61l38.2-71.1c3.8-7.4,4.2-10.1-0.5-12.6l-5.4-2.9l4.9-9.5l41.5,22.1L492.8,1851.2z"/>
		<path class="st9" d="M608,1902.6c-4.2-1.5-6.3,0.3-9.3,7.6l-39.2,99.2c-3.2,7.5-3.2,10.3,1.7,12.3l5.9,2.4l-4,10.1l-43.5-17.2
			l4-10.2l5.8,2.3c4.9,2,6.5,0,9.7-7.7l39.5-99c2.8-7.5,2.8-10-1.2-11.7c-9-3.8-22.5,8.8-35.5,35.4l-5.9-2.1l22.5-51.3l75.5,29.9
			l-18.9,52.6l-5.6-2C618.1,1924.6,617,1906.1,608,1902.6z"/>
		<path class="st9" d="M673,2057c5,1.5,6.5-0.7,8.6-8.7l12.6-46.8l-31.5-8.5l-12.4,46.7c-2.2,7.9-2,10.5,3.1,11.9l6.1,1.8l-3,10.4
			l-45.2-12.1l2.9-10.5l6,1.4c5.1,1.5,6.6-0.6,8.7-8.6l27.4-101.5c2.3-8,2.1-10.9-3.1-12.4l-6-1.5l2.9-10.4l45.1,12.3l-2.8,10.3
			l-6-1.7c-5.1-1.5-6.6,1-8.9,8.9l-11.2,42.1l31.6,8.5l11.2-42.2c2.3-7.9,2.1-10.8-3.1-12.2l-5.9-1.6l2.7-10.3L748,1935l-2.7,10.3
			l-6.2-1.7c-5-1.3-6.5,1.1-8.7,9l-27.3,101.5c-2.2,8-2,10.6,3.2,11.9l5.8,1.9l-2.7,10.3l-45.6-12.1l3.1-10.6L673,2057z"/>
		<path class="st9" d="M792.7,2081.2l6.2,0.4c2.6,0.2,3.6-1.2,4.1-4.2c0.1-1.5,0.1-3.4,0-5.9l-2.2-23.7l-31.2-4.5l-4.5,10.4
			c-1.4,3.3-2.6,7.4-2.8,10.1c-1.5,9.2,1.9,12.7,10.9,14.7l-1.5,10.5l-34.7-5.1l1.6-10.5c7.8-0.9,13-9.3,19.6-24.9l45-107l9.1,1.4
			l14.5,134.7c0.7,6.4,2.3,8.9,6.8,9.7l-1.6,10.7l-41-6.1L792.7,2081.2z M774.9,2031l24.9,3.8l-4.9-51.2L774.9,2031z"/>
		<path class="st9" d="M883.8,2064.5c-0.6,19.1,1.8,26.1,13.4,26.7l-0.3,10.9l-35.5-1.1l0.1-11c11.1-0.4,13.3-7.4,13.8-25.9
			l2.2-89.2c0.3-7.8-0.6-11-5.9-11.3l-6.5-0.2l0.4-10.7l39.8,1l17.2,89.1l20.2-88.3l39.2,1l-0.4,10.8l-6.2-0.4
			c-5.1-0.1-6.2,2.5-6.4,10.7l-2.5,105.2c-0.3,8.3,0.6,10.9,5.8,10.9l6.3,0.1l-0.3,10.8l-46-1.1l0.4-10.8l5.3,0
			c5.2,0.1,6.4-2.4,6.7-10.5l2.8-111.1l-30.2,132l-6,0L886,1969.8L883.8,2064.5z"/>
		<path class="st9" d="M1051,2087.2l7.8-0.7l1.1,10.7l-48.6,4.9l-1-10.9l6.7-0.6c5.3-0.6,5.8-3,5.1-11.3l-10.1-104.5
			c-0.6-8.2-1.8-10.7-7.1-10.3l-6.6,0.7l-1.2-10.7l53.9-5.2c22.5-2.2,35.3,11.2,37.9,38.6c2.9,29.2-9.2,43.8-36.7,46.5
			c-3.7,0.5-7.7,0.6-12.4,0.9l4.2,42C1044.9,2085.7,1046.1,2087.6,1051,2087.2z M1039,2023.7c1.4,0.3,3.3,0.3,6,0
			c16.7-1.5,22.7-8.9,20.3-33.4c-2.2-23.8-8.6-30.9-23-29.6c-7.9,0.8-9.1,2.4-8.3,13.8L1039,2023.7z"/>
		<path class="st9" d="M1160.5,1941.1c-4.3,0.8-4.8,3.4-3.2,11.2l21.5,104.6c1.7,8,3.1,10.1,8.3,9.1l6-1.1l2.1,10.7l-45.7,9.4
			l-2.3-10.5l6.1-1.4c5.2-0.9,5.6-3.8,4.1-11.8l-21.7-104.4c-1.6-7.7-3.1-10-7.4-9.1c-9.6,2-13.9,19.9-10.3,49.4l-5.9,1.1l-9.4-54.9
			l79.4-16.6l13.4,54.4l-5.9,1.1C1181.1,1953.9,1170.2,1938.9,1160.5,1941.1z"/>
		<path class="st9" d="M1218.4,1935.9c3.6-16.9,11.8-27.5,25.3-31.7c13.7-4.6,26.3-1.2,39.8,10.9c12,10.8,21.8,27.7,28.7,48.6
			c7,20.9,8.5,37.8,5.1,54.7c-3.7,18-12.3,29.4-25.5,33.6c-13.3,4.3-25.7,0.6-39.6-11.9c-13.1-11.6-21.6-26.3-28.4-47.4
			C1216.9,1971.5,1215.2,1951.9,1218.4,1935.9z M1288.4,2041.2c14.1-4.5,14.1-27.6,0.3-69.7c-13.8-42.5-27.1-61.1-41.5-56.3
			c-13.9,4.5-13.9,27.5-0.2,69.8C1261,2027.3,1274.3,2046,1288.4,2041.2z"/>
		<path class="st9" d="M1362.9,2012.1c9.4-6.2,8.2-13.1,0.6-29.4l-37.6-81l-3.8-2.8c-3.9-2.9-6.7-4.8-11.2-2.6l-1.4,0.6l-4.6-9.6
			l28.3-13.2l81.5,64l-23.4-50.3c-8.4-18.1-13.2-22.6-24.4-17.5l-4.5-10l32.7-15.2l4.5,9.8c-9.2,5.2-8.4,11.9-0.4,29.2l47.8,102.8
			l-7,3.4l-100.9-79.6l31.6,68.5c8,17.3,13.5,22.3,24.1,17.9l4.7,9.7l-32.1,15L1362.9,2012.1z"/>
		<path class="st9" d="M1548.9,1810.6l-4.9,3.5c-21.7-23.5-34.9-27.6-50.4-16.9c-5.9,4.1-7.1,5.8-1.2,14.4l24.7,36.1
			c0.5-0.3,1.2-0.6,1.6-1c9.1-6.2,8.2-15.4-1.7-33.5l5-3.5l38.5,56.2l-5.1,3.6c-13.1-16.1-21.3-19.8-30.3-13.8c-0.4,0.4-1,0.8-1.4,1
			l27.8,40.8c4.7,6.8,6.7,8.3,11.1,5.4l7.3-5l6.1,9L1535,1935l-6.1-9l5.1-3.6c4.5-2.8,3.7-5.5-0.8-12.3l-59.4-86.9
			c-4.6-6.9-7-8.4-11.2-5.4l-5.3,3.5l-6.1-8.8l66.5-45.5L1548.9,1810.6z"/>
		<path class="st9" d="M1668.3,1840.9c-8.1,6.9-18.4,9.1-30.4,6.8c-18.4-3.6-37.3-16.4-54.8-36.9c-13.6-15.7-22.4-32.4-26-48.5
			c-4.1-17.9-0.3-31,10.6-40.4c6.8-5.9,14.7-7.9,25-6.2l-1.8-12.4l4-3.4l40.3,44.2l-4.3,4.8c-26.1-22.3-44.8-29-55.1-20.2
			c-12.4,10.8-4.1,30.9,25.3,65.1c29.5,34.6,47.5,45.6,61.3,33.8c10.4-9,8.2-26.6-7.2-51.9l7.5-1.5
			C1682.5,1803.9,1684.3,1827.3,1668.3,1840.9z"/>
		<path class="st4" d="M853.2,1164.1"/>
		<g>
			<path class="st1" d="M85.3,593.3l23.5,48.6l-66,18.1l20.6,41l66.1-18.1l20.7,41.1l-66.2,18l20.4,40.8l66.3-17.9l20.9,41.1
				l-66.7,17.7l20.7,40.9l66.5-17.6l29.6,56.9c12.5-3.5,24.8-7.8,36.6-12.7L123.7,582.3C112.5,587.1,99.7,590.8,85.3,593.3z"/>
			<path class="st1" d="M266.8,610.4c-4.6-21.9,45.2-48,85.1-80.2l-52.9-105.9c-20.9,11.4-44.1,29.3-67.3,55.4
				c-6.2,6.4-11.7,13.1-16.9,19.8L266.8,610.4z"/>
		</g>
		<g>
			<path class="st2" d="M385.5,422.1c-12.9-17.5-45.9-19.8-86.4,2.2L352,530.2C388.7,500.2,417,464.8,385.5,422.1z"/>
			<path class="st2" d="M123.7,582.3l154.7,308.8c43.4-18,79.1-43.4,91.2-62.2l-66.6-141.7l-33-70.4c-1.8-2.2-2.6-4.2-3.1-6.5
				l-52-110.9C188.8,531.9,166.3,564.1,123.7,582.3z"/>
			<path class="st2" d="M85.3,593.3c-20.9,3.6-45.1,4.5-74.7,2.1l32.3,64.6l66-18.1L85.3,593.3z"/>
			<polygon class="st2" points="129.5,682.9 63.4,700.9 84,741.9 150.2,723.9 			"/>
			<polygon class="st2" points="170.7,764.9 104.4,782.7 124.9,823.7 191.6,806 			"/>
			<path class="st2" d="M145.6,864.6l24.1,48.7c23.3,1.3,47.9-2.6,72-9.4l-29.6-56.9L145.6,864.6z"/>
		</g>
		<path class="st1" d="M351.1,531l29.3,58.7c20.9-17.5,43.2-38.4,66.9-58.4l-55-98.3C412.1,471.2,385.1,503.3,351.1,531z"/>
		<path class="st2" d="M269.9,616.9c1.5,2.2,3.7,4.2,6.7,6.2c29.6,20.9,64.3-0.4,103.7-33.5L351.1,531
			C307.3,566.2,251.9,593.8,269.9,616.9z"/>
		<path class="st10" d="M269.9,616.9c-33.3-42.7,184.6-101,115.5-194.8c-19.5-26.6-85.3-18.5-153.7,57.6
			c-53,58.4-76.3,127.9-221.2,115.7l159.2,317.9c80.3,4.2,178.4-50.8,199.7-84.5L269.9,616.9z"/>
		<path class="st10" d="M447.3,531.3C379.2,588.6,322,655,276.6,623.1c-3-2-5.2-4-6.7-6.2c-31.9-41,167.8-96.5,122.4-183.9
			L447.3,531.3z"/>
		<g>
			<path class="st1" d="M1795.8,593.3l-23.6,48.6l65.8,18.1l-20.4,41l-66.2-18.1l-20.5,41.1l66.2,18l-20.4,40.8l-66.3-17.9
				l-20.8,41.1l66.5,17.7l-20.6,40.9l-66.5-17.6l-29.6,56.9c-12.5-3.5-24.9-7.8-36.6-12.7l154.7-308.8
				C1768.7,587.1,1781.1,590.8,1795.8,593.3z"/>
			<path class="st1" d="M1614.1,610.4c4.6-21.9-45.2-48-85.1-80.2l52.9-105.9c20.9,11.4,44,29.3,67.6,55.4
				c5.9,6.4,11.3,13.1,16.7,19.8L1614.1,610.4z"/>
		</g>
		<g>
			<path class="st2" d="M1495.4,422.1c12.9-17.5,45.9-19.8,86.5,2.2L1529,530.2C1492.3,500.2,1464,464.8,1495.4,422.1z"/>
			<path class="st2" d="M1757.4,582.3l-154.7,308.8c-43.2-18-79-43.4-91.2-62.2l66.6-141.7l33.1-70.4c1.8-2.2,2.6-4.2,3-6.5
				l52.1-110.9C1692.4,531.9,1714.7,564.1,1757.4,582.3z"/>
			<path class="st2" d="M1795.8,593.3c20.7,3.6,45.1,4.5,74.8,2.1l-32.6,64.6l-65.8-18.1L1795.8,593.3z"/>
			<polygon class="st2" points="1751.4,682.9 1817.6,700.9 1797,741.9 1730.8,723.9 			"/>
			<polygon class="st2" points="1710.3,764.9 1776.6,782.7 1756,823.7 1689.6,806 			"/>
			<path class="st2" d="M1735.4,864.6l-24.3,48.7c-23.2,1.3-48-2.6-71.9-9.4l29.6-56.9L1735.4,864.6z"/>
		</g>
		<path class="st1" d="M1529.9,531l-29.4,58.7c-20.8-17.5-43.2-38.4-66.7-58.4l54.9-98.3C1468.8,471.2,1496,503.3,1529.9,531z"/>
		<path class="st2" d="M1611.1,616.9c-1.6,2.2-3.9,4.2-6.6,6.2c-29.8,20.9-64.3-0.4-104-33.5l29.4-58.7
			C1573.7,566.2,1628.9,593.8,1611.1,616.9z"/>
		<path class="st10" d="M1611.1,616.9c33.2-42.7-184.5-101-115.6-194.8c19.7-26.6,85.4-18.5,154,57.6
			c52.7,58.4,76.1,127.9,221.1,115.7l-159.4,317.9c-80.2,4.2-178.3-50.8-199.8-84.5L1611.1,616.9z"/>
		<path class="st10" d="M1433.8,531.3c68,57.3,125.2,123.7,170.7,91.9c2.7-2,5-4,6.6-6.2c31.9-41-167.8-96.5-122.4-183.9
			L1433.8,531.3z"/>
		<path class="st1" d="M1139.5,520.7c-14.4,11.4-39.1,28.1-66.6,44.8v219.8c31-18.8,62.7-39.1,92.5-55.2V502.2
			C1155.2,509,1146.1,515.4,1139.5,520.7z"/>
		<path class="st1" d="M1287.7,461c-1.3,0-2.6,0.3-3.9,0.3l-31.4,237.6c1.3,0,2.6-0.4,3.9-0.4c25.7,0,49.6,8.7,72.1,21.4l70.4-215.9
			C1364.2,479.3,1327.3,461,1287.7,461z"/>
		<path class="st1" d="M1604.5,623.1c-29.5,20.6-63.9,0-102.9-32.6l-91.6,191.2c37.2,32.2,70.3,58.8,101.4,47.1l99.8-211.8
			C1609.4,619.1,1607.1,621.1,1604.5,623.1z"/>
		<path class="st1" d="M276.6,623.1c-3-2-5.2-4-6.7-6.2l99.6,211.8c31.4,11.7,64.4-14.8,101.6-47.1l-91.7-191.2
			C340.2,623.1,306,643.7,276.6,623.1z"/>
		<path class="st1" d="M940.5,622.6c-9.2,0-21.4-3.1-35.2-8.1v221.2c12.8,4.5,24.6,7.2,35.2,7.2c10.5,0,22.4-2.7,35-7.2V614.5
			C962,619.5,949.6,622.6,940.5,622.6z"/>
		<path class="st1" d="M593.2,461c-39.4,0-76.5,18.4-110.9,43l70.4,215.9c22.3-12.7,46.2-21.4,72.1-21.4c1.2,0,2.5,0.3,3.7,0.4
			l-31.3-237.6C595.8,461.3,594.6,461,593.2,461z"/>
		<path class="st1" d="M741.5,520.7c-6.6-5.3-15.4-11.6-25.9-18.4v227.9c30,16.1,61.6,36.4,92.4,55.2V565.5
			C780.4,548.7,755.7,532.1,741.5,520.7z"/>
		<path class="st2" d="M808,565.5v219.8c34.6,21.2,68.4,40.6,97.3,50.4V614.5C876.5,604.2,840.2,584.9,808,565.5z"/>
		<path class="st2" d="M597.1,461.3l31.3,237.6c24.6,1.2,54.6,13.8,87.1,31.3V502.2C685.8,483.4,642.8,462.5,597.1,461.3z"/>
		<path class="st2" d="M379.4,590.5l91.7,191.2c25-21.6,51.8-45.3,81.6-61.8L482.3,504C445,530.5,410.7,564.3,379.4,590.5z"/>
		<path class="st2" d="M975.6,614.5v221.2c29-9.8,62.7-29.2,97.4-50.4V565.5C1040.9,584.9,1004.6,604.2,975.6,614.5z"/>
		<path class="st2" d="M1165.5,502.2v227.9c32.4-17.5,62.5-30.1,87-31.3l31.4-237.6C1238.1,462.5,1195.3,483.4,1165.5,502.2z"/>
		<path class="st2" d="M1398.8,504l-70.4,215.9c29.6,16.5,56.5,40.3,81.5,61.8l91.6-191.2C1470.4,564.3,1436.1,530.5,1398.8,504z"/>
		<path class="st10" d="M940.5,842.9c79.6,0,232.1-144.4,315.8-144.4c111.2,0,187.2,155.8,255,130.3l99.8-211.8
			c-1.6,2.2-3.9,4.2-6.6,6.2c-74.8,52.7-181.3-162.2-316.7-162.2c-63.1,0-121.9,39.3-148.2,59.7c-39.3,31.3-154.3,101.9-199,101.9
			c-44.5,0-159.9-70.7-199-101.9c-26.2-20.4-85.1-59.7-148.3-59.7C458,461,351.4,675.8,276.6,623.1c-3-2-5.2-4-6.7-6.2l99.6,211.8
			c68,25.6,144.1-130.3,255.3-130.3C708.3,698.5,861.1,842.9,940.5,842.9z"/>
		<path class="st0" d="M944,406.4c205.6,0,372.2-90.3,372.2-201.6C1316.2,93.4,1149.5,3.1,944,3.1c-205.5,0-372.4,90.3-372.4,201.7
			C571.6,316,738.4,406.4,944,406.4z"/>
		<path class="st11" d="M944.4,373.6c182.6,0,330.9-75.6,330.9-168.8C1275.3,111.4,1127,36,944.4,36c-183.1,0-331,75.5-331,168.8
			C613.4,298,761.3,373.6,944.4,373.6z"/>
		<path class="st12" d="M944.6,333.2c148.7,0,269.5-48.3,269.5-107.8c0-59.4-120.8-107.6-269.5-107.6
			c-148.8,0-269.5,48.2-269.5,107.6C675.1,284.9,795.8,333.2,944.6,333.2z"/>
		<path class="st13" d="M943.7,148.7C800.4,148.7,684.5,265,684.5,408c0,143.3,115.9,259.4,259.2,259.4h-3.2
			c143.1,0,259.3-116,259.3-259.4c0-143.1-116.2-259.4-259.3-259.4H943.7z"/>
		<path d="M900.6,622.5l-53.3-90.6l-97.7-15.9L725,547c1.1,1.6,1.7,3.2,2.9,4.7l4.3,6.1c32.7,46.2,79.9,81.2,135.2,98.3l10,1.9
			L900.6,622.5z"/>
		<polygon points="833.8,372.2 875.8,501.5 942.1,501.5 1008.4,501.5 1050.3,372.2 942,293.7 		"/>
		<path d="M942,241.3v-0.2l80.6-52.7v-26.1c-25.2-8.5-52.3-13.3-80.5-13.5c-28,0.2-55,5-80.5,13.5v26.1L942,241.3z"/>
		<path d="M792.5,331l2.9-102.9l-20.9-16.3c-11,9.4-21.2,19.6-30.3,30.7l-1.1,1.1c-29.5,36.1-49.2,80.3-55.9,128.7l23.1,10.2
			L792.5,331z"/>
		<path d="M1037.1,531.9l-53.3,90.6l23.1,35.4l9.6-1.8c56.2-17.2,104.5-53.3,137.2-100.5l2.1-3.1c1.2-1.8,2.3-3.8,3.4-5.4l-24.7-31
			L1037.1,531.9z"/>
		<path d="M1091.8,331l82.2,51.6l23.1-10.2c-6.7-48.6-26.6-93-56.4-129.3l-0.2-0.1c-9.1-11.4-19.7-21.7-30.7-31.2l-20.9,16.3
			L1091.8,331z"/>
	</g>
</g>
</svg>
