<svg width="248" height="512" viewBox="0 0 248 512" fill="none" xmlns="http://www.w3.org/2000/svg">
<g clip-path="url(#clip0_3715_1570)">
<path d="M68.6029 345.542C67.1801 345.185 65.9511 344.303 65.0025 342.979C60.1918 350.399 58.1633 357.035 59.9322 362.989C67.333 387.979 89.38 406.433 115.784 408.891C90.5487 401.225 71.8726 374.931 68.6029 345.542M63.4353 330.773C61.8456 329.64 60.4837 328.579 59.5151 327.655C57.7883 334.027 57.0498 340.627 57.3252 347.224C57.3793 348.593 57.4774 349.95 57.6134 351.293C58.5897 347.289 60.5131 343.105 63.2692 338.839C62.7362 336.342 62.8212 333.502 63.4353 330.773V330.773ZM64.6797 326.96C65.3463 325.445 66.1813 324.048 67.1754 322.87C67.9749 321.926 68.8269 321.179 69.7314 320.622C72.133 309.431 77.1484 299.461 84.4797 291.926C73.5334 299.708 65.1439 310.805 60.7332 323.681C61.3188 324.484 62.8752 325.694 64.6797 326.96V326.96ZM159.373 384.413C153.909 383.807 146.599 382.363 143.407 381.257C139.844 380.024 136.675 377.049 134.932 373.288C134.041 371.363 133.538 369.281 133.454 367.161C133.395 365.662 133.538 364.01 133.978 362.222C113.944 356.112 92.7232 347.626 77.9502 339.737C77.4462 340.669 76.8494 341.549 76.169 342.361C75.0582 343.677 73.8099 344.631 72.5253 345.175C73.9127 357.466 78.1812 369.512 84.9779 380.006C93.9938 393.927 106.273 403.466 119.538 406.47C124.24 407.529 130.387 408.852 135.886 407.633C156.276 403.119 172.896 389.016 181.02 370.464C180.069 370.634 178.999 370.732 177.85 370.77C173.199 384.381 163.416 384.86 159.373 384.413V384.413ZM186.353 341.972C186.064 334.805 184.617 327.959 182.199 321.608C179.224 313.819 169.286 308.296 156.194 305.33C131.989 299.858 100.196 308.898 79.9647 325.917C80.7418 329.022 80.5116 332.724 79.4681 336.102C94.0456 343.939 115.246 352.425 135.248 358.512C139.956 347.703 148.969 345.642 155.998 347.398C159.523 348.283 163.069 349.081 166.634 349.789L169.234 350.338C172.574 351.12 175.506 353.339 177.264 356.432C178.51 358.618 179.655 362.075 178.874 366.835C181.332 366.689 182.521 366.278 182.796 365.952C185.42 358.468 186.698 350.372 186.353 341.972ZM174.882 366.832C175.688 362.845 174.818 360.069 173.847 358.372C172.634 356.23 170.62 354.693 168.344 354.161L165.853 353.637C162.231 352.915 158.628 352.104 155.046 351.206C148.184 349.493 142.298 352.635 139.048 359.641C142.313 360.592 145.593 361.486 148.889 362.324C149.406 359.829 149.516 358.096 149.516 358.066C149.548 357.546 149.785 357.061 150.174 356.715C150.563 356.37 151.073 356.192 151.593 356.222C151.85 356.237 152.102 356.302 152.334 356.414C152.566 356.527 152.774 356.684 152.945 356.877C153.116 357.069 153.248 357.294 153.332 357.538C153.416 357.782 153.451 358.039 153.436 358.297C153.429 358.437 153.303 360.423 152.707 363.254C153.342 363.403 153.979 363.555 154.603 363.693C155.246 363.841 155.88 363.981 156.501 364.113C157.061 361.352 157.421 359.006 157.431 358.957C157.514 358.447 157.795 357.989 158.214 357.685C158.632 357.38 159.154 357.253 159.665 357.331C160.177 357.409 160.637 357.685 160.946 358.1C161.255 358.515 161.388 359.035 161.316 359.547C161.287 359.736 160.923 362.086 160.347 364.904C161.664 365.16 162.912 365.385 164.095 365.587C164.531 363.205 164.638 361.312 164.638 361.277C164.651 361.019 164.714 360.767 164.824 360.534C164.935 360.3 165.09 360.091 165.281 359.918C165.472 359.745 165.695 359.611 165.938 359.524C166.181 359.438 166.438 359.399 166.696 359.412C166.953 359.424 167.206 359.487 167.439 359.597C167.672 359.707 167.881 359.861 168.054 360.052C168.228 360.243 168.361 360.466 168.448 360.708C168.535 360.951 168.573 361.208 168.561 361.465C168.554 361.627 168.448 363.615 167.981 366.174C170.703 366.543 172.988 366.745 174.882 366.832V366.832ZM138.497 371.633C140.03 374.946 142.702 376.861 144.692 377.545C147.278 378.441 154.12 379.879 159.803 380.502C166.036 381.192 170.91 377.723 173.688 370.715C171.602 370.596 169.369 370.352 167.058 370.03C166.624 371.441 166.073 372.847 165.361 374.096C165.103 374.548 164.676 374.879 164.173 375.016C163.671 375.153 163.135 375.085 162.683 374.827C162.231 374.568 161.9 374.141 161.763 373.639C161.626 373.136 161.694 372.6 161.952 372.148C162.423 371.32 162.812 370.38 163.135 369.412C161.917 369.203 160.69 368.973 159.476 368.739C159.06 370.366 158.582 371.914 158.081 373.071C157.872 373.548 157.482 373.923 156.997 374.113C156.512 374.303 155.971 374.293 155.493 374.085C155.257 373.982 155.043 373.833 154.865 373.648C154.686 373.462 154.545 373.243 154.451 373.003C154.357 372.763 154.311 372.507 154.316 372.25C154.321 371.992 154.377 371.738 154.48 371.502C154.885 370.571 155.273 369.31 155.629 367.943C154.993 367.803 154.362 367.663 153.738 367.522C153.078 367.375 152.402 367.215 151.728 367.052C151.362 368.246 150.936 369.421 150.452 370.573C150.034 371.571 148.875 372.038 147.878 371.618C146.881 371.197 146.409 370.044 146.832 369.047C147.237 368.091 147.596 367.116 147.906 366.125C144.504 365.259 141.118 364.333 137.75 363.347C136.917 366.964 137.638 369.789 138.497 371.633V371.633ZM73.8068 322.702C72.9363 322.544 71.2091 322.556 69.4835 324.432C66.7498 327.394 65.4668 331.408 65.6645 336.356C65.7194 337.617 65.8955 338.323 66.2523 339.34C66.8896 341.136 68.4206 342.325 69.5391 342.527C70.8685 342.772 72.3693 341.995 73.7705 340.335C76.8317 336.704 78.1518 330.045 76.6502 325.795C76.0268 324.022 75.0188 322.924 73.8068 322.702V322.702Z" fill="white"/>
<path d="M93.8633 0.000366211C68.5673 0.000366211 62.5709 12.9704 62.5709 12.9704C62.5709 12.9704 91.7584 10.8609 91.7584 39.6877C91.7584 52.6608 84.6982 61.4543 77.2256 70.7599C68.5442 81.5672 58.7094 93.8173 58.7094 114.367C58.7094 148.385 80.5634 164.344 99.8443 178.422C116.642 190.69 132.506 202.275 132.506 224.09C132.506 246.025 122.885 263.031 118.494 267.42C111.129 274.785 104.492 276.125 99.1645 277.202C93.6918 278.307 88.5203 279.369 87.435 287.23C67.1816 299.393 54.9121 321.057 54.9121 344.563C54.9121 345.479 54.9314 346.4 54.9677 347.32C55.6954 365.185 63.3364 381.696 76.481 393.811C89.6249 405.927 106.702 412.197 124.562 411.468C142.425 410.741 158.933 403.098 171.051 389.957C183.168 376.813 189.438 359.735 188.706 341.877C187.6 314.608 170.296 290.975 144.625 281.669L144.723 281.705C144.607 281.658 144.49 281.611 144.373 281.565C144.172 281.493 143.97 281.422 143.768 281.352C140.522 280.232 136.839 278.958 136.839 270.609C136.839 262.518 140.511 261.847 147.822 260.504C152.168 259.706 157.485 258.731 162.699 255.546C171.98 249.882 173.721 243.048 172.031 241.361C169.731 239.059 167.197 243.894 157.855 246.708C154.488 247.725 151.099 248.316 148.809 248.316C146.905 248.316 145.483 248.156 144.441 247.967C149.347 238.776 154.843 231.252 154.904 231.174L156.101 229.544L154.67 228.113C152.772 226.215 151.68 222.268 151.68 216.975C151.68 210.445 153.341 201.87 157.195 192.559C161.756 181.557 179.854 145.651 221.366 145.651H223.722V143.295C223.722 128.454 222.366 114.805 219.695 102.727L219.174 100.381C219.174 100.381 215.144 101.525 211.787 102.274C211.387 102.362 208.247 103.134 208.105 102.471C207.978 101.885 210.403 100.667 211.241 100.247C214.394 98.6791 218.323 97.0291 218.323 97.0291L217.782 95.1405C214.82 84.8068 211.841 79.8678 211.713 79.6615L210.752 78.0873L208.997 78.6427C174.429 89.5326 167.037 112.472 162.621 126.175C160.471 132.834 159.142 136.601 156.738 136.601C149.603 136.601 143.7 130.701 141.76 128.761C120.208 107.207 121.857 91.6676 124.362 68.1429C125.248 59.8415 126.249 50.4347 126.249 39.6908C126.246 12.612 115.957 0.000366211 93.8633 0.000366211Z" fill="#002156"/>
<path d="M134.863 224.089C134.863 245.935 125.545 263.7 120.161 269.084C103.478 285.768 89.7168 273.619 89.5677 290.357C81.997 297.214 76.5506 307.638 73.8779 319.543C74.044 319.559 74.2093 319.584 74.3723 319.614C75.9388 319.899 77.2844 320.795 78.3117 322.208C99.5014 304.939 132.126 295.858 157.062 301.498C164.991 303.29 171.715 306.216 176.807 310.694C169.149 298.31 157.444 288.751 143.606 283.79C140.321 282.612 134.483 281.263 134.483 270.608C134.483 250.717 156.243 266.182 170.58 244.518C171.281 243.448 170.272 242.514 169.43 243.355C165.094 247.688 154.443 250.671 148.809 250.671C143.17 250.671 141.049 249.387 141.049 249.387C146.373 238.792 153.004 229.776 153.004 229.776C139.695 216.466 162.095 143.291 221.366 143.291C221.366 126.317 219.573 113.077 217.394 103.232C215.983 103.576 204.819 106.208 204.309 103.861C203.857 101.78 212.532 97.2709 215.519 95.787C212.606 85.641 209.705 80.8858 209.705 80.8858C158.902 96.8916 169.112 138.953 156.737 138.953C148.682 138.953 142.354 132.683 140.095 130.423C109.751 100.083 123.893 80.0037 123.893 39.6861C123.893 12.5263 113.345 2.35474 93.8656 2.35474C74.3877 2.35474 67.428 10.789 67.428 10.789C67.428 10.789 94.1167 11.6534 94.1167 39.6861C94.1167 69.0342 61.0669 77.1348 61.0669 114.365C61.0654 176.342 134.863 175.178 134.863 224.089M99.6813 39.6876C99.6813 36.0896 99.2943 32.8407 98.5922 29.9085C98.5922 29.9085 104.401 29.6049 104.401 22.5356C104.401 16.7083 100.513 12.7348 99.4712 12.7348C98.63 12.7348 98.4215 13.6278 96.6008 13.6278C92.1647 13.6278 91.8395 7.9588 91.8395 7.9588C92.4961 7.9364 93.1712 7.92636 93.8633 7.92636C106.565 7.92636 118.322 11.7724 118.322 39.6884C118.322 50.0121 117.344 59.198 116.482 67.3024C115.628 75.3065 114.838 82.7521 115.065 90.0223C115.065 90.0223 92.9464 87.4153 92.9464 70.7746C92.9464 59.9689 99.6813 57.3395 99.6813 39.6876V39.6876ZM68.6029 345.541C67.1801 345.185 65.9511 344.302 65.0025 342.979C60.1918 350.399 58.1633 357.035 59.9322 362.989C67.333 387.979 89.38 406.433 115.784 408.891C90.5487 401.225 71.8726 374.931 68.6029 345.541V345.541ZM63.4353 330.773C61.8456 329.64 60.4838 328.579 59.5151 327.655C57.7883 334.027 57.0498 340.627 57.3252 347.224C57.3793 348.593 57.4774 349.95 57.6134 351.293C58.5897 347.289 60.5131 343.105 63.2692 338.839C62.7362 336.342 62.8212 333.502 63.4353 330.773V330.773ZM64.6797 326.96C65.3463 325.445 66.1813 324.047 67.1754 322.87C67.9749 321.926 68.8269 321.179 69.7314 320.622C72.133 309.431 77.1484 299.461 84.4797 291.925C73.5334 299.708 65.1439 310.805 60.7333 323.681C61.3188 324.484 62.8752 325.694 64.6797 326.96V326.96ZM159.373 384.413C153.909 383.807 146.599 382.363 143.407 381.257C139.844 380.024 136.675 377.049 134.932 373.288C134.041 371.363 133.538 369.281 133.454 367.161C133.395 365.662 133.538 364.01 133.978 362.222C113.944 356.112 92.7232 347.626 77.9502 339.737C77.4462 340.669 76.8494 341.548 76.169 342.361C75.0582 343.677 73.8099 344.631 72.5254 345.175C73.9127 357.466 78.1812 369.512 84.9779 380.006C93.9938 393.926 106.273 403.466 119.538 406.47C124.24 407.529 130.387 408.852 135.886 407.633C156.276 403.119 172.896 389.016 181.02 370.464C180.069 370.633 178.999 370.732 177.85 370.77C173.199 384.381 163.416 384.86 159.373 384.413V384.413ZM182.199 321.608C179.224 313.819 169.286 308.296 156.194 305.33C131.989 299.858 100.196 308.898 79.9647 325.917C80.7418 329.022 80.5116 332.724 79.4681 336.102C94.0456 343.939 115.246 352.425 135.248 358.512C139.956 347.703 148.969 345.642 155.998 347.398C159.523 348.283 163.069 349.081 166.634 349.789L169.234 350.338C172.574 351.12 175.506 353.339 177.264 356.432C178.51 358.618 179.655 362.075 178.874 366.835C181.332 366.689 182.521 366.278 182.796 365.952C185.419 358.468 186.698 350.375 186.352 341.974C186.08 335.006 184.677 328.127 182.199 321.608V321.608ZM138.497 371.633C140.03 374.946 142.702 376.861 144.692 377.545C147.278 378.441 154.12 379.879 159.803 380.502C166.036 381.192 170.91 377.723 173.688 370.715C171.602 370.596 169.369 370.352 167.058 370.03C166.624 371.441 166.073 372.847 165.361 374.096C165.233 374.32 165.063 374.517 164.859 374.674C164.655 374.832 164.422 374.948 164.173 375.016C163.925 375.084 163.665 375.102 163.409 375.07C163.154 375.037 162.907 374.955 162.683 374.827C162.459 374.699 162.263 374.528 162.105 374.324C161.947 374.12 161.831 373.887 161.763 373.639C161.695 373.39 161.677 373.13 161.709 372.875C161.742 372.619 161.825 372.372 161.953 372.148C162.423 371.32 162.812 370.38 163.135 369.411C161.917 369.203 160.69 368.973 159.476 368.739C159.06 370.366 158.582 371.914 158.081 373.071C157.872 373.548 157.482 373.923 156.997 374.113C156.512 374.303 155.971 374.293 155.493 374.085C155.257 373.982 155.043 373.833 154.865 373.648C154.686 373.462 154.545 373.243 154.451 373.003C154.357 372.763 154.311 372.507 154.316 372.25C154.321 371.992 154.377 371.738 154.48 371.502C154.885 370.571 155.273 369.31 155.629 367.943C154.993 367.802 154.362 367.663 153.738 367.522C153.078 367.375 152.402 367.215 151.728 367.052C151.362 368.246 150.936 369.421 150.452 370.573C150.034 371.57 148.875 372.038 147.878 371.618C146.881 371.197 146.409 370.044 146.832 369.047C147.237 368.091 147.596 367.116 147.906 366.125C144.504 365.259 141.118 364.333 137.75 363.347C136.917 366.964 137.638 369.789 138.497 371.633V371.633ZM174.882 366.832C175.688 362.845 174.818 360.069 173.847 358.372C172.634 356.23 170.62 354.693 168.344 354.161L165.853 353.637C162.231 352.915 158.628 352.104 155.046 351.206C148.185 349.493 142.298 352.635 139.048 359.641C142.313 360.592 145.593 361.486 148.889 362.324C149.406 359.829 149.516 358.096 149.516 358.066C149.548 357.546 149.785 357.061 150.174 356.715C150.563 356.37 151.073 356.192 151.593 356.222C151.85 356.237 152.102 356.302 152.334 356.414C152.566 356.527 152.774 356.684 152.945 356.877C153.116 357.069 153.248 357.294 153.332 357.538C153.416 357.781 153.451 358.039 153.436 358.297C153.429 358.437 153.303 360.423 152.707 363.254C153.342 363.403 153.979 363.555 154.604 363.693C155.246 363.841 155.88 363.981 156.501 364.113C157.061 361.352 157.421 359.006 157.431 358.957C157.514 358.447 157.795 357.989 158.214 357.685C158.632 357.38 159.154 357.253 159.665 357.331C160.177 357.409 160.637 357.685 160.946 358.1C161.255 358.515 161.388 359.035 161.316 359.547C161.287 359.736 160.923 362.086 160.347 364.904C161.664 365.16 162.912 365.385 164.095 365.587C164.531 363.205 164.638 361.312 164.638 361.277C164.651 361.019 164.714 360.767 164.824 360.534C164.935 360.3 165.09 360.091 165.281 359.918C165.472 359.745 165.695 359.611 165.938 359.524C166.181 359.438 166.439 359.399 166.696 359.412C166.953 359.424 167.206 359.487 167.439 359.597C167.672 359.707 167.881 359.861 168.054 360.052C168.228 360.243 168.361 360.466 168.448 360.708C168.535 360.951 168.573 361.208 168.561 361.465C168.554 361.627 168.448 363.615 167.981 366.174C170.703 366.543 172.988 366.745 174.882 366.832V366.832ZM73.8068 322.702C72.9363 322.544 71.2091 322.556 69.4835 324.432C66.7498 327.394 65.4668 331.408 65.6645 336.356C65.7194 337.617 65.8955 338.323 66.2524 339.34C66.8896 341.136 68.4206 342.325 69.5391 342.527C70.8685 342.771 72.3693 341.995 73.7705 340.335C76.8317 336.704 78.1518 330.045 76.6502 325.795C76.0268 324.022 75.0188 322.924 73.8068 322.702V322.702ZM23.0188 401.092C27.9717 404.359 33.2173 407.297 33.2173 407.297L31.3812 412.056C30.6953 409.173 27.8357 407.608 24.1458 405.324L12.0648 422.793C10.5894 424.901 7.71283 429.512 7.4811 431.309C7.4811 431.309 5.49824 430.051 3.68918 428.702C1.79747 427.292 0 425.987 0 425.987C1.80056 425.549 4.91041 420.962 6.7859 418.42L18.5394 401.649C14.1372 398.246 12.4186 397.579 9.30793 397.417L13.4915 394.279C13.4915 394.279 17.512 397.463 23.0188 401.092M214.462 460.271L214.827 460.671C214.486 460.653 214.202 460.829 213.835 461.036L214.896 463.075C215.103 463.452 215.395 464.024 215.588 464.066C215.588 464.066 215.361 464.196 215.09 464.333C214.852 464.449 214.628 464.542 214.628 464.542C214.631 464.288 214.549 464.086 214.267 463.507L213.157 461.368C212.785 461.555 212.378 461.741 212.268 462.043L212.174 461.451C212.174 461.451 212.722 461.185 213.314 460.881C213.698 460.682 214.081 460.478 214.462 460.271M30.8382 444.425C22.4464 440.421 21.331 431.174 25.4628 422.519C29.6131 413.828 37.5237 408.937 45.8777 412.929C54.2278 416.916 55.4042 426.14 51.2508 434.833C47.119 443.489 39.23 448.434 30.8382 444.425ZM44.6773 415.437C39.3111 412.876 35.092 418.937 31.9104 425.601C28.7287 432.264 26.6477 439.399 32.0146 441.963C37.3808 444.521 41.6223 438.419 44.8047 431.757C47.9864 425.093 50.0442 417.997 44.6773 415.437V415.437ZM68.392 421.866C71.8041 422.829 75.236 423.721 78.6856 424.541L78.1943 429.62C76.6734 427.423 75.9751 426.887 71.1311 425.652L65.2582 445.399C64.787 447.206 62.4434 454.045 63.1943 455.33C63.1943 455.33 61.5629 454.983 58.9296 454.253C55.9688 453.432 54.5777 452.877 54.5777 452.877C56.0963 451.878 58.0065 446.032 58.6314 443.656L64.5337 423.778C59.5151 422.103 58.3487 421.987 55.9503 423.102L58.8593 418.769C58.8585 418.771 62.1352 420.093 68.392 421.866M91.8032 427.111C95.412 427.647 99.0341 428.088 102.666 428.435L102.878 433.531C100.787 431.673 100 431.07 94.4782 430.375L91.2802 450.655C91.0555 452.513 89.8667 459.566 90.7859 460.736C90.7859 460.736 88.8486 460.522 86.1736 460.147C83.4987 459.767 81.8549 459.39 81.8549 459.39C83.1611 458.371 84.2472 451.691 84.4743 449.831L87.751 429.3C82.9657 428.345 81.9824 428.711 79.6843 430.045L81.7676 425.222C81.7669 425.221 86.2354 426.269 91.8032 427.111M112.542 446.392L112.122 460.02C119.267 460.115 124.159 459.663 126.338 456.562L125.245 462.754C125.245 462.754 121.287 462.834 115.492 462.754C109.122 462.664 104.123 462.247 104.123 462.247C105.183 461.199 105.446 454.556 105.458 452.69L106.041 439.314C106.066 435.753 106.392 429.997 105.196 428.787C110.373 429.144 109.714 429.138 114.468 429.322C120.693 429.569 124.219 429.384 124.219 429.384L125.003 434.497C122.573 432.469 118.929 432.23 112.98 432.196L112.653 443.635L121.789 443.686C122.611 443.695 122.663 444.153 122.661 445.069C122.651 445.973 122.638 446.454 121.77 446.445L112.542 446.392M152.445 450.495C152.973 455.454 153.495 459.017 154.627 459.667C154.343 460.18 153.447 460.853 152.258 460.98C150.825 461.132 149.742 460.428 148.748 459.277L132.547 440.694L133.158 452.516C133.354 454.375 133.568 461.417 134.724 462.359L129.326 462.603C130.266 461.443 130.016 454.732 129.817 452.868L129.053 439.528C128.856 437.669 128.508 430.29 127.347 429.358L132.297 429.178L148.9 448.897L147.518 437.551C147.32 435.686 146.311 428.926 145.193 427.986C145.193 427.986 145.788 427.927 147.804 427.654C149.816 427.38 150.547 427.234 150.547 427.234C149.615 428.397 150.696 435.332 150.897 437.193L152.445 450.495ZM182.882 443.464C183.457 445.77 184.599 451.695 186.292 452.855C186.292 452.855 183.73 453.598 182.163 454.079C180.769 454.508 177.698 455.304 177.698 455.304C178.423 454.025 176.808 446.913 176.362 445.137L174.823 438.948L164.529 441.474L165.7 447.766C166.039 449.8 167.11 456.646 168.498 457.482C168.498 457.482 167.058 457.78 164.059 458.395C161.546 458.913 159.796 459.189 159.796 459.189C160.567 457.908 159.532 451.559 159.214 449.535L156.719 436.231C156.264 433.751 155.12 427.477 153.742 426.743C153.742 426.743 155.078 426.49 158.016 425.918C160.958 425.346 162.397 424.957 162.397 424.957C161.673 426.446 162.951 432.466 163.298 434.573L164.089 438.796L174.218 436.327L173.126 432.013C172.53 429.728 171.273 424.245 169.865 423.228C169.865 423.228 171.256 422.826 174.074 422.024C176.892 421.229 178.107 420.773 178.107 420.773C177.548 422.294 179.116 427.635 179.765 430.387L182.882 443.464M201.688 435.578L191.644 439.511L191.992 445.027C192.216 446.911 192.224 448.639 192.635 449.615C192.807 450.033 193.119 450.379 193.517 450.593C193.517 450.593 192.47 450.973 190.744 451.533C189.018 452.091 188.069 452.366 188.069 452.366C188.671 451.326 188.817 449.898 188.764 448.113L187.879 421.964C187.796 421.014 187.681 420.123 187.366 419.376C187.088 418.71 186.616 418.335 186.288 418.056C187.43 417.315 188.862 416.502 190.317 415.892C192.625 414.919 193.598 414.959 195.282 416.921L210.017 435.197C212.697 438.686 215.065 441.033 216.606 441.499C216.606 441.499 215.1 442.194 212.267 443.455C209.435 444.714 207.561 445.429 207.561 445.429C207.729 444.837 207.748 444.21 207.38 443.267C206.985 442.25 205.535 440.527 204.6 439.222L201.688 435.578M199.865 433.413L190.939 421.046L191.568 436.579L199.865 433.413ZM243.772 426.098C241.752 427.461 240.239 428.503 240.239 428.503C240.091 426.514 236.251 421.598 235.124 420.108L226.468 408.816L233.431 431.076C233.16 431.518 232.667 432.137 232.208 432.484C230.834 433.528 229.497 433.323 228.277 432.362L211.793 418.696L217.562 429.322C218.974 432.013 221.694 437.613 223.525 438.166C223.525 438.166 222.387 438.774 220.946 439.472C220.18 439.843 219.412 440.21 218.642 440.572C218.961 439.008 216.283 434.361 214.723 431.385L208.304 419.31C206.356 415.677 204.208 411.978 202.363 411.24C203.791 410.549 204.221 410.336 206.263 409.328C207.966 408.489 209.465 407.667 209.465 407.667L228.023 423.455L220.724 401.103C220.724 401.103 221.702 400.44 223.557 399.201C225.408 397.962 227.078 396.731 227.078 396.731C227.218 398.73 231.084 403.827 232.491 405.651L240.484 415.933C242.178 418.05 245.348 422.76 247.605 423.299C247.601 423.299 245.794 424.729 243.772 426.098M218.587 459.27L219.499 460.437C219.766 460.763 220.036 461.165 220.321 461.285C220.321 461.285 220.083 461.456 219.853 461.611C219.623 461.763 219.452 461.884 219.452 461.884C219.388 461.571 219.002 461.082 218.875 460.913L217.907 459.632L218.698 462.158C218.661 462.219 218.614 462.272 218.558 462.316C218.349 462.476 218.197 462.386 218.058 462.275L216.149 460.75L216.895 461.958C217.072 462.27 217.392 462.846 217.646 462.964L217.334 463.148C217.236 463.205 217.138 463.259 217.038 463.311C217.072 463.005 216.688 462.404 216.572 462.196L215.753 460.825C215.565 460.513 215.269 460.058 215.005 459.98C215.005 459.98 215.26 459.847 215.512 459.707C215.67 459.62 215.829 459.517 215.925 459.466L218.036 461.223L217.223 458.717C217.302 458.681 217.424 458.605 217.614 458.489C217.856 458.34 218.059 458.204 218.059 458.204C218.06 458.509 218.413 459.035 218.587 459.27M53.8462 466.742C55.5664 467.372 57.7856 468.143 57.7856 468.143C55.9171 469.498 54.2007 474.886 53.0861 477.812L48.7759 489.77C47.6226 493.016 45.656 497.72 46.3149 499.4C46.3149 499.4 43.9435 498.58 42.0247 497.9C40.3833 497.315 39.4509 497.003 37.7122 496.259C39.8248 495.699 41.8161 488.672 42.4642 486.904L44.437 481.323L34.1072 477.017L31.1201 483.401C30.1476 485.617 27.821 490.638 28.3741 492.211C28.3741 492.211 26.5496 491.467 23.8785 490.238C20.7323 488.789 20.0472 488.406 20.0472 488.406C22.2641 487.317 23.5765 483.738 25.2643 480.123L30.6659 468.16C32.4912 464.065 34.1396 460.516 34.016 458.181C34.016 458.181 34.9808 458.756 37.6372 459.949C39.7537 460.901 40.8351 461.377 42.0224 461.854C40.3416 462.523 38.0018 468.558 36.7667 471.266L35.184 474.647L45.2751 478.806L46.8231 474.973C47.5477 473.017 50.0504 467.166 49.5104 465.164C49.5104 465.162 51.5814 465.913 53.8462 466.742M65.5147 505.551C56.5188 503.184 53.6577 494.472 56.0438 485.398C58.4422 476.274 65.2544 470.161 74.2062 472.518C83.1542 474.87 86.0755 483.544 83.681 492.668C81.2918 501.747 74.5121 507.916 65.5147 505.551M73.5149 475.148C67.7648 473.636 64.794 480.228 62.9548 487.216C61.111 494.201 60.4482 501.452 66.1944 502.967C71.9445 504.475 74.9315 497.837 76.7676 490.852C78.6107 483.865 79.2634 476.661 73.5149 475.148ZM89.8821 508.761C89.8821 508.761 90.4545 508.142 90.8446 506.882C91.3946 505.111 91.7483 501.705 92.1716 499.049L94.6906 479.573C89.3244 478.901 87.9618 479.287 85.6051 480.681L87.8158 475.695C89.4866 476.066 93.189 476.466 97.6931 477.034C100.707 477.41 109.684 478.222 109.684 478.222L109.989 483.208C108.009 480.917 105.955 480.711 101.483 480.359L98.9738 499.899C98.749 501.718 97.751 508.031 98.7405 509.9C97.6614 509.777 95.874 509.574 94.3747 509.425C92.8213 509.268 90.7758 508.913 89.8821 508.761M132.642 501.997C132.705 507.86 127.936 512.105 120.601 511.997C114.896 511.914 111.913 509.566 110.771 508.611L111.959 503.047C113.73 506.593 116.665 509.169 119.97 509.222C123.422 509.27 126.138 507.238 126.195 503.816C126.23 501.33 124.861 499.828 119.103 496.831C113.584 493.982 111.53 491.138 111.53 486.898C111.53 481.126 116.551 478.194 122.451 478.193C126.789 478.188 129.816 479.518 131.717 480.534L130.492 485.632C127.859 482.119 125.477 480.815 122.604 480.776C119.773 480.729 117.768 482.274 117.787 485.183C117.806 488.353 121.293 490.068 125.996 492.695C131.404 495.72 132.611 498.754 132.642 501.997M159.353 484.036C159.563 484.725 159.689 485.561 159.754 486.216C159.81 486.821 159.838 487.624 159.767 488.381C159.612 490.282 158.711 492.489 157.219 494.043C154.941 496.423 151.973 497.605 148.036 497.788C146.518 497.882 146.155 497.418 146.054 496.324L146.045 496.085C146.045 496.085 146.012 495.661 146.344 495.64L146.725 495.601C147.888 495.457 149.613 495.094 150.998 493.41C152.325 491.678 152.779 489.376 152.547 486.898C152.302 484.326 151.528 482.472 149.798 481.14C148.297 479.986 146.531 479.611 144.715 479.755C144.715 479.755 143.987 479.817 143.178 479.945C143.178 479.945 142.704 479.986 142.744 480.45L144.694 500.649C144.863 502.428 145.348 508.687 146.806 509.979C146.806 509.979 145.146 510.154 142.019 510.411C139.634 510.607 137.775 510.653 137.775 510.653C138.402 509.104 138.298 506.812 138.142 504.143L136.63 488.215C136.459 486.391 136.151 480.143 134.664 478.6C134.664 478.6 138.663 478.008 146.06 477.31C149.928 476.943 153.096 477.437 155.829 479.287C157.618 480.492 158.847 482.246 159.353 484.036M189.619 490.55C191.202 497.551 187.916 503.512 180.632 505.334C175.512 506.613 168.141 504.735 166.084 495.755L163.578 485.152C162.918 482.184 161.84 476.928 160.117 475.56C160.117 475.56 162.041 475.286 165.055 474.725C168.068 474.162 169.468 473.828 169.468 473.828C168.677 475.075 169.508 479.988 170.294 483.595L173.494 497.074C174.064 499.543 174.871 501.235 176.256 502.232C177.282 502.973 178.653 503.177 180.08 502.916C181.381 502.675 182.733 501.939 183.442 500.624C184.193 499.244 184.19 497.244 183.611 494.776L180.021 481.3C179.039 477.59 177.907 472.947 176.691 472.169C176.691 472.169 178.154 471.772 180.927 470.979C183.026 470.382 184.275 470.018 185.18 469.698C184.352 471.728 186.324 477.95 186.742 479.729L189.619 490.55M222.33 487.787C223.036 488.058 223.795 488.243 224.434 487.971C224.361 488.412 223.949 489.288 223.257 489.997C220.313 493.016 217.547 492.497 216.611 492.126C211.532 490.189 203.039 482.661 202.689 481.84C202.689 481.84 202.601 481.625 202.822 481.535L203.129 481.399C204.455 480.846 205.961 479.347 206.556 477.927C207.505 475.847 207.344 473.979 206.38 471.691C205.382 469.311 203.633 467.813 202.265 467.41C200.24 466.812 198.73 467.287 197.809 467.653C197.809 467.653 196.593 468.131 196.232 468.495C196.232 468.495 195.989 468.697 196.271 469.525L202.689 487.853C203.664 490.549 205.356 495.809 206.89 496.694C206.89 496.694 205.157 497.377 202.529 498.326C199.899 499.275 198.3 499.717 198.3 499.717C198.835 497.67 196.811 492.105 196.3 490.544L192.15 478.169C191.113 475.185 189.219 469.838 187.677 468.982C187.677 468.982 190.707 468.134 197.517 465.274C201.138 463.753 204.646 463.103 207.812 464.029C209.733 464.593 211.031 465.559 212.093 467.098C212.499 467.693 212.798 468.278 213.056 468.884C213.292 469.447 213.455 470.094 213.562 470.695C213.898 472.566 213.616 474.552 212.535 476.429C212.535 476.429 211.559 478.317 209.477 479.798C209.477 479.797 216.165 485.464 222.33 487.787" fill="white"/>
</g>
<defs>
<clipPath id="clip0_3715_1570">
<rect width="247.603" height="512" fill="white"/>
</clipPath>
</defs>
</svg>
