<?xml version="1.0" encoding="utf-8"?>
<!-- Generator: Adobe Illustrator 19.2.1, SVG Export Plug-In . SVG Version: 6.00 Build 0)  -->
<!DOCTYPE svg PUBLIC "-//W3C//DTD SVG 1.1//EN" "http://www.w3.org/Graphics/SVG/1.1/DTD/svg11.dtd">
<svg version="1.1" id="Totteham_Hotspur" xmlns="http://www.w3.org/2000/svg" xmlns:xlink="http://www.w3.org/1999/xlink" x="0px"
	 y="0px" viewBox="0 0 1124 2313.4" style="enable-background:new 0 0 1124 2313.4;" xml:space="preserve">
<style type="text/css">
	.st0{fill:#131F53;}
</style>
<g>
	<g>
		<g>
			<g>
				<path class="st0" d="M311.4,1557.8c-6.5-1.6-12-5.6-16.4-11.6c-21.8,33.7-31,63.8-23,90.8c33.6,113.4,133.7,197.2,253.5,208.3
					C411,1810.6,326.3,1691.3,311.4,1557.8z M288,1490.8c-7.2-5.1-13.4-10-17.8-14.1c-7.7,28.2-11.2,58.1-9.9,88.8
					c0.3,6.2,0.7,12.4,1.3,18.5c4.4-18.2,13.2-37.2,25.7-56.5C284.8,1516.1,285.2,1503.2,288,1490.8z M293.6,1473.5
					c3-6.9,6.8-13.2,11.3-18.6c3.6-4.3,7.5-7.7,11.6-10.2c10.9-50.8,33.7-96.1,67-130.3c-49.7,35.3-87.8,85.7-107.8,144.2
					C278.4,1462.3,285.4,1467.7,293.6,1473.5z M723.5,1734.3c-24.8-2.7-58-9.3-72.5-14.3c-16.2-5.6-30.5-19.1-38.5-36.2
					c-3.3-7-6.2-16.4-6.7-27.8c-0.3-6.8,0.4-14.3,2.4-22.4c-90.9-27.7-187.3-66.3-254.3-102.1c-2.4,4.3-5.1,8.3-8.1,11.9
					c-5,6-10.7,10.3-16.5,12.8c6.3,55.8,25.7,110.5,56.5,158.1c40.9,63.2,96.7,106.5,156.9,120.1c21.3,4.8,49.2,10.8,74.2,5.3
					c92.6-20.5,168-84.5,204.9-168.7c-4.3,0.8-9.2,1.2-14.4,1.4C786.2,1734.1,741.8,1736.3,723.5,1734.3z M845.9,1541.6
					c-1.3-32.5-7.9-63.6-18.9-92.4c-13.5-35.4-58.6-60.4-118-73.9c-109.9-24.8-254.2,16.2-346,93.5c3.5,14.1,2.5,30.9-2.3,46.2
					c66.2,35.6,162.4,74.1,253.2,101.7c21.4-49.1,62.3-58.4,94.2-50.4c22.9,5.7,37.6,8.7,48.3,10.9l11.8,2.5
					c15.2,3.5,28.5,13.6,36.5,27.7c5.7,9.9,10.9,25.6,7.3,47.2c11.2-0.6,16.6-2.5,17.8-4C841.7,1616.5,847.5,1579.8,845.9,1541.6z
					 M793.8,1654.5c3.7-18.1-0.3-30.7-4.7-38.4c-5.5-9.7-14.7-16.7-25-19.1l-11.3-2.4c-10.3-2.1-25.8-5.2-49.1-11
					c-31.1-7.8-57.9,6.5-72.6,38.3c15.2,4.4,30.1,8.5,44.7,12.2c2.3-11.3,2.8-19.2,2.8-19.3c0.3-4.9,4.5-8.7,9.4-8.4
					c4.9,0.3,8.7,4.5,8.4,9.4c0,0.6-0.6,9.7-3.3,22.5c2.9,0.7,5.8,1.4,8.6,2c2.9,0.7,5.8,1.3,8.6,1.9c2.6-12.5,4.2-23.2,4.2-23.4
					c0.7-4.9,5.3-8.2,10.1-7.5c4.9,0.7,8.2,5.3,7.5,10.1c-0.1,0.9-1.8,11.5-4.4,24.3c6,1.2,11.6,2.2,17,3.1
					c2-10.8,2.5-19.4,2.5-19.6c0.2-4.9,4.4-8.7,9.3-8.5c4.9,0.2,8.7,4.4,8.5,9.3c0,0.7-0.5,9.8-2.6,21.4
					C774.9,1653.2,785.3,1654.1,793.8,1654.5z M628.7,1676.3c7,15,19.1,23.7,28.1,26.8c11.8,4.1,42.8,10.6,68.6,13.4
					c28.3,3.1,50.4-12.6,63-44.4c-9.5-0.5-19.6-1.6-30.1-3.1c-2,6.4-4.5,12.8-7.7,18.4c-2.4,4.3-7.9,5.8-12.2,3.3
					c-4.3-2.4-5.8-7.9-3.3-12.2c2.1-3.8,3.9-8,5.4-12.4c-5.5-1-11.1-2-16.6-3.1c-1.9,7.4-4,14.4-6.3,19.7c-2,4.5-7.2,6.6-11.7,4.6
					c-4.5-2-6.6-7.2-4.6-11.7c1.8-4.2,3.6-9.9,5.2-16.1c-2.9-0.6-5.8-1.3-8.6-1.9c-3-0.7-6.1-1.4-9.1-2.1c-1.6,5.1-3.5,10.5-5.8,16
					c-1.9,4.5-7.1,6.7-11.7,4.7c-4.5-1.9-6.7-7.1-4.8-11.7c1.9-4.5,3.5-9,4.9-13.3c-15-3.8-30.4-8-46.1-12.6
					C621.5,1655.1,624.8,1667.9,628.7,1676.3z M335,1454.2c-4-0.7-11.8-0.7-19.6,7.9c-12.4,13.5-18.2,31.7-17.3,54.1v0
					c0.2,5.7,1,8.9,2.7,13.6c2.9,8.2,9.8,13.5,14.9,14.5c6,1.1,12.8-2.4,19.2-10c13.9-16.5,19.9-46.7,13.1-66
					C345.1,1460.2,340.5,1455.2,335,1454.2z"/>
			</g>
		</g>
		<g>
			<g>
				<path class="st0" d="M612.2,1006.5c0,99.2-42.3,179.8-66.7,204.2c-75.7,75.7-138.2,20.6-138.9,96.6
					c-34.4,31.1-59.1,78.4-71.2,132.5c0.7,0.1,1.5,0.2,2.2,0.3c7.1,1.3,13.2,5.4,17.9,11.8c96.2-78.4,244.3-119.6,357.5-94
					c36,8.1,66.5,21.4,89.6,41.8c-34.7-56.2-87.9-99.6-150.7-122.1c-14.9-5.3-41.4-11.5-41.4-59.8c0-90.3,98.8-20.1,163.8-118.4
					c3.2-4.8-1.4-9.1-5.2-5.3c-19.7,19.7-68,33.2-93.6,33.2c-25.6,0-35.2-5.8-35.2-5.8c24.2-48.1,54.3-89,54.3-89
					c-60.4-60.4,41.3-392.6,310.3-392.6c0-77.1-8.1-137.2-18-181.8c-6.4,1.6-57.1,13.5-59.4,2.8c-2-9.4,37.3-29.9,50.9-36.6
					c-13.2-46.1-26.4-67.6-26.4-67.6c-230.6,72.7-184.3,263.6-240.4,263.6c-36.6,0-65.3-28.5-75.5-38.7
					c-137.7-137.7-73.6-228.9-73.6-411.9C562.4,46.2,514.5,0,426.1,0c-88.4,0-120,38.3-120,38.3s121.2,3.9,121.2,131.2
					c0,133.2-150,170-150,339C277.2,789.8,612.2,784.5,612.2,1006.5z M452.5,169.5c0-16.3-1.8-31.1-4.9-44.4c0,0,26.3-1.4,26.3-33.5
					c0-26.4-17.6-44.5-22.4-44.5c-3.8,0-4.8,4-13,4c-20.1,0-21.6-25.7-21.6-25.7c3-0.1,6-0.2,9.2-0.2c57.7,0,111,17.5,111,144.2
					c0,46.9-4.4,88.6-8.4,125.3c-3.9,36.3-7.5,70.1-6.4,103.1c0,0-100.4-11.8-100.4-87.4C421.9,261.5,452.5,249.6,452.5,169.5z
					 M311.4,1557.8c-6.5-1.6-12-5.6-16.4-11.6c-21.8,33.7-31,63.8-23,90.8c33.6,113.4,133.7,197.2,253.5,208.3
					C411,1810.6,326.3,1691.3,311.4,1557.8z M288,1490.8c-7.2-5.1-13.4-10-17.8-14.1c-7.7,28.2-11.2,58.1-9.9,88.8
					c0.3,6.2,0.7,12.4,1.3,18.5c4.4-18.2,13.2-37.2,25.7-56.5C284.8,1516.1,285.2,1503.2,288,1490.8z M293.6,1473.5
					c3-6.9,6.8-13.2,11.3-18.6c3.6-4.3,7.5-7.7,11.6-10.2c10.9-50.8,33.7-96.1,67-130.3c-49.7,35.3-87.8,85.7-107.8,144.2
					C278.4,1462.3,285.4,1467.7,293.6,1473.5z M723.5,1734.3c-24.8-2.7-58-9.3-72.5-14.3c-16.2-5.6-30.5-19.1-38.5-36.2
					c-3.3-7-6.2-16.4-6.7-27.8c-0.3-6.8,0.4-14.3,2.4-22.4c-90.9-27.7-187.3-66.3-254.3-102.1c-2.4,4.3-5.1,8.3-8.1,11.9
					c-5,6-10.7,10.3-16.5,12.8c6.3,55.8,25.7,110.5,56.5,158.1c40.9,63.2,96.7,106.5,156.9,120.1c21.3,4.8,49.2,10.8,74.2,5.3
					c92.6-20.5,168-84.5,204.9-168.7c-4.3,0.8-9.2,1.2-14.4,1.4C786.2,1734.1,741.8,1736.3,723.5,1734.3z M827.1,1449.2
					c-13.5-35.4-58.6-60.4-118-73.9c-109.9-24.8-254.2,16.2-346,93.5c3.5,14.1,2.5,30.9-2.3,46.2c66.2,35.6,162.4,74.1,253.2,101.7
					c21.4-49.1,62.3-58.4,94.2-50.4c22.9,5.7,37.6,8.7,48.3,10.9l11.8,2.5c15.2,3.5,28.5,13.6,36.5,27.7c5.7,9.9,10.9,25.6,7.3,47.2
					c11.2-0.6,16.6-2.5,17.8-4c11.9-34,17.7-70.7,16.2-108.8C844.6,1509.1,838,1478,827.1,1449.2z M628.7,1676.3
					c7,15,19.1,23.7,28.1,26.8c11.8,4.1,42.8,10.6,68.6,13.4c28.3,3.1,50.4-12.6,63-44.4c-9.5-0.5-19.6-1.6-30.1-3.1
					c-2,6.4-4.5,12.8-7.7,18.4c-2.4,4.3-7.9,5.8-12.2,3.3c-4.3-2.4-5.8-7.9-3.3-12.2c2.1-3.8,3.9-8,5.4-12.4c-5.5-1-11.1-2-16.6-3.1
					c-1.9,7.4-4,14.4-6.3,19.7c-2,4.5-7.2,6.6-11.7,4.6c-4.5-2-6.6-7.2-4.6-11.7c1.8-4.2,3.6-9.9,5.2-16.1c-2.9-0.6-5.8-1.3-8.6-1.9
					c-3-0.7-6.1-1.4-9.1-2.1c-1.6,5.1-3.5,10.5-5.8,16c-1.9,4.5-7.1,6.7-11.7,4.7c-4.5-1.9-6.7-7.1-4.8-11.7c1.9-4.5,3.5-9,4.9-13.3
					c-15-3.8-30.4-8-46.1-12.6C621.5,1655.1,624.8,1667.9,628.7,1676.3z M793.8,1654.5c3.7-18.1-0.3-30.7-4.7-38.4
					c-5.5-9.7-14.7-16.7-25-19.1l-11.3-2.4c-10.3-2.1-25.8-5.2-49.1-11c-31.1-7.8-57.9,6.5-72.6,38.3c15.2,4.4,30.1,8.5,44.7,12.2
					c2.3-11.3,2.8-19.2,2.8-19.3c0.3-4.9,4.5-8.7,9.4-8.4c4.9,0.3,8.7,4.5,8.4,9.4c0,0.6-0.6,9.7-3.3,22.5c2.9,0.7,5.8,1.4,8.6,2
					c2.9,0.7,5.8,1.3,8.6,1.9c2.6-12.5,4.2-23.2,4.2-23.4c0.7-4.9,5.3-8.2,10.1-7.5c4.9,0.7,8.2,5.3,7.5,10.1
					c-0.1,0.9-1.8,11.5-4.4,24.3c6,1.2,11.6,2.2,17,3.1c2-10.8,2.5-19.4,2.5-19.6c0.2-4.9,4.4-8.7,9.3-8.5c4.9,0.2,8.7,4.4,8.5,9.3
					c0,0.7-0.5,9.8-2.6,21.4C774.9,1653.2,785.3,1654.1,793.8,1654.5z M335,1454.2c-4-0.7-11.8-0.7-19.6,7.9
					c-12.4,13.5-18.2,31.7-17.3,54.1v0c0.2,5.7,1,8.9,2.7,13.6c2.9,8.2,9.8,13.5,14.9,14.5c6,1.1,12.8-2.4,19.2-10
					c13.9-16.5,19.9-46.7,13.1-66C345.1,1460.2,340.5,1455.2,335,1454.2z"/>
			</g>
		</g>
		<g>
			<path class="st0" d="M104.5,1810c22.5,14.8,46.3,28.2,46.3,28.2l-8.3,21.6c-3.1-13.1-16.1-20.2-32.8-30.5l-54.8,79.3
				c-6.7,9.6-19.7,30.5-20.8,38.7c0,0-9-5.7-17.2-11.8C8.2,1928.9,0,1923,0,1923c8.2-2,22.3-22.8,30.8-34.4l53.4-76.1
				c-20-15.4-27.8-18.5-41.9-19.2l19-14.2C61.3,1779.1,79.5,1793.5,104.5,1810z"/>
			<path class="st0" d="M140,2006.7c-38.1-18.2-43.2-60.2-24.4-99.4c18.9-39.5,54.8-61.7,92.7-43.5c37.9,18.1,43.2,60,24.4,99.4
				C213.9,2002.4,178.1,2024.9,140,2006.7z M202.8,1875.1c-24.4-11.6-43.5,15.9-58,46.1c-14.4,30.3-23.9,62.7,0.5,74.3
				c24.4,11.6,43.6-16.1,58.1-46.3C217.8,1919,227.2,1886.7,202.8,1875.1z"/>
			<path class="st0" d="M310.5,1904.3c25.8,7.3,46.7,12.1,46.7,12.1l-2.2,23.1c-6.9-10-10.1-12.4-32.1-18l-26.6,89.6
				c-2.2,8.2-12.8,39.2-9.4,45.1c0,0-7.4-1.6-19.4-4.9c-13.4-3.7-19.7-6.2-19.7-6.2c6.9-4.5,15.6-31.1,18.4-41.9l26.8-90.2
				c-22.8-7.6-28.1-8.1-39-3.1l13.2-19.7C267.2,1890.2,282.1,1896.3,310.5,1904.3z"/>
			<path class="st0" d="M416.7,1928.1c25.4,3.8,49.3,6,49.3,6l0.9,23.1c-9.5-8.4-13-11.2-38.1-14.3l-14.5,92.1
				c-1,8.4-6.4,40.4-2.2,45.8c0,0-8.8-1-20.9-2.7c-12.1-1.7-19.6-3.4-19.6-3.4c5.9-4.6,10.9-35,11.9-43.4l14.9-93.2
				c-21.7-4.3-26.2-2.7-36.6,3.4l9.4-21.9C371.2,1919.5,391.5,1924.3,416.7,1928.1z"/>
			<path class="st0" d="M510.9,2015.6l-1.9,61.9c32.4,0.4,54.7-1.6,64.5-15.7l-5,28.1c0,0-18,0.4-44.3,0
				c-28.9-0.4-51.6-2.3-51.6-2.3c4.8-4.8,6-34.9,6.1-43.4l2.6-60.7c0.1-16.2,1.6-42.3-3.8-47.8c23.5,1.6,20.5,1.6,42.1,2.4
				c28.3,1.1,44.3,0.3,44.3,0.3l3.5,23.2c-11-9.2-27.6-10.3-54.6-10.4l-1.5,51.9l41.5,0.2c3.7,0,4,2.1,4,6.3c0,4.1-0.1,6.3-4,6.2
				L510.9,2015.6z"/>
			<path class="st0" d="M692,2034.2c2.4,22.5,4.8,38.7,9.9,41.6c-1.3,2.3-5.3,5.4-10.8,6c-6.5,0.7-11.4-2.5-15.9-7.7l-73.5-84.3
				l2.8,53.7c0.9,8.4,1.9,40.4,7.1,44.7l-24.5,1.1c4.3-5.3,3.1-35.7,2.2-44.2l-3.5-60.6c-0.9-8.4-2.5-41.9-7.8-46.2l22.5-0.8
				l75.4,89.5l-6.3-51.5c-0.9-8.5-5.5-39.2-10.5-43.4c0,0,2.7-0.2,11.8-1.5c9.1-1.2,12.5-1.9,12.5-1.9c-4.3,5.3,0.7,36.7,1.6,45.2
				L692,2034.2z"/>
			<path class="st0" d="M830.2,2002.3c2.6,10.5,7.8,37.4,15.5,42.6c0,0-11.6,3.3-18.7,5.5c-6.3,2-20.3,5.6-20.3,5.6
				c3.3-5.8-4-38.1-6.1-46.2l-7-28.1l-46.7,11.5l5.3,28.6c1.5,9.2,6.4,40.3,12.7,44.1c0,0-6.5,1.4-20.1,4.1
				c-11.4,2.3-19.3,3.6-19.3,3.6c3.5-5.8-1.2-34.6-2.7-43.8l-11.3-60.4c-2.1-11.3-7.3-39.7-13.5-43.1c0,0,6.1-1.1,19.4-3.7
				c13.4-2.6,19.9-4.4,19.9-4.4c-3.3,6.8,2.5,34.1,4.1,43.7l3.6,19.2l46-11.2l-5-19.6c-2.7-10.4-8.4-35.3-14.8-39.9
				c0,0,6.3-1.8,19.1-5.5c12.8-3.6,18.3-5.7,18.3-5.7c-2.5,6.9,4.6,31.1,7.5,43.7L830.2,2002.3z"/>
			<path class="st0" d="M915.5,1966.5l-45.6,17.9l1.6,25c1,8.6,1,16.4,2.9,20.8c0.9,2.2,2.5,3.7,4,4.5c0,0-4.7,1.7-12.6,4.3
				c-7.8,2.5-12.1,3.8-12.1,3.8c2.7-4.7,3.4-11.2,3.1-19.3l-4-118.7c-0.4-4.3-0.9-8.4-2.3-11.8c-1.3-3-3.4-4.7-4.9-6
				c5.2-3.4,11.7-7.1,18.3-9.8c10.5-4.4,14.9-4.2,22.5,4.7l66.9,83c12.2,15.8,22.9,26.5,29.9,28.6c0,0-6.8,3.2-19.7,8.9
				c-12.9,5.7-21.4,9-21.4,9c0.8-2.7,0.8-5.5-0.8-9.8c-1.8-4.6-8.4-12.4-12.6-18.4L915.5,1966.5z M907.3,1956.7l-40.5-56.1l2.9,70.5
				L907.3,1956.7z"/>
			<path class="st0" d="M1106.6,1923.5c-9.2,6.2-16,10.9-16,10.9c-0.7-9-18.1-31.3-23.2-38.1L1028,1845l31.6,101.1
				c-1.2,2-3.5,4.8-5.5,6.4c-6.2,4.7-12.3,3.8-17.9-0.6l-74.8-62l26.2,48.2c6.4,12.2,18.8,37.6,27.1,40.1c0,0-5.1,2.8-11.7,5.9
				c-6.5,3.1-10.5,5-10.5,5c1.4-7.1-10.7-28.2-17.8-41.7l-29.2-54.8c-8.8-16.5-18.6-33.3-27-36.6c6.5-3.1,8.4-4.1,17.7-8.7
				c7.7-3.8,14.5-7.5,14.5-7.5l84.3,71.7l-33.1-101.5c0,0,4.5-3,12.9-8.6c8.4-5.6,16-11.2,16-11.2c0.6,9.1,18.2,32.2,24.6,40.5
				l36.3,46.7c7.7,9.6,22.1,31,32.3,33.4C1124,1910.8,1115.8,1917.3,1106.6,1923.5z"/>
			<path class="st0" d="M244.4,2108c7.8,2.9,17.9,6.4,17.9,6.4c-8.5,6.1-16.3,30.6-21.3,43.9l-19.6,54.3
				c-5.2,14.7-14.2,36.1-11.2,43.7c0,0-10.8-3.7-19.5-6.8c-7.5-2.7-11.7-4.1-19.6-7.5c9.6-2.5,18.7-34.4,21.6-42.5l9-25.3
				l-46.9-19.6l-13.6,29c-4.4,10.1-15,32.8-12.5,40c0,0-8.3-3.4-20.4-9c-14.3-6.6-17.4-8.3-17.4-8.3c10.1-4.9,16-21.2,23.7-37.6
				l24.5-54.3c8.3-18.6,15.8-34.7,15.2-45.3c0,0,4.4,2.6,16.4,8c9.6,4.3,14.5,6.5,19.9,8.6c-7.6,3-18.3,30.4-23.9,42.7l-7.2,15.4
				l45.8,18.9l7-17.4c3.3-8.9,14.6-35.4,12.2-44.5C224.8,2100.8,234.2,2104.3,244.4,2108z"/>
			<path class="st0" d="M297.4,2284.2c-40.8-10.8-53.8-50.3-43-91.5c10.9-41.4,41.8-69.2,82.4-58.5c40.6,10.7,53.9,50.1,43,91.5
				C369,2266.9,338.2,2294.9,297.4,2284.2z M333.7,2146.2c-26.1-6.9-39.6,23.1-47.9,54.8c-8.4,31.7-11.4,64.6,14.7,71.5
				c26.1,6.9,39.7-23.3,48-55C356.8,2185.7,359.8,2153,333.7,2146.2z"/>
			<path class="st0" d="M408,2298.8c0,0,2.6-2.8,4.4-8.5c2.5-8,4.1-23.5,6-35.5l11.4-88.4c-24.4-3.1-30.5-1.3-41.2,5l10-22.6
				c7.6,1.7,24.4,3.5,44.9,6.1c13.7,1.7,54.4,5.4,54.4,5.4l1.4,22.6c-9-10.4-18.3-11.3-38.6-12.9l-11.4,88.7
				c-1,8.2-5.6,36.9-1.1,45.4c-4.9-0.6-13-1.5-19.8-2.1C421.4,2301.1,412.1,2299.4,408,2298.8z"/>
			<path class="st0" d="M602.1,2268c0.3,26.6-21.4,45.9-54.7,45.4c-25.9-0.4-39.5-11-44.6-15.4l5.4-25.3c8,16.1,21.4,27.8,36.4,28
				c15.7,0.2,28-9,28.3-24.5c0.2-11.3-6.1-18.1-32.2-31.7c-25.1-12.9-34.4-25.8-34.4-45.1c0-26.2,22.8-39.5,49.6-39.5
				c19.7,0,33.4,6,42.1,10.6l-5.6,23.1c-12-15.9-22.7-21.9-35.8-22c-12.8-0.2-22,6.8-21.9,20c0.1,14.4,15.9,22.2,37.3,34.1
				C596.5,2239.6,602,2253.3,602.1,2268z"/>
			<path class="st0" d="M723.4,2186.5c0.9,3.1,1.5,6.9,1.8,9.9c0.3,2.8,0.4,6.4,0.1,9.8c-0.7,8.6-4.8,18.6-11.6,25.7
				c-10.3,10.8-23.8,16.2-41.7,17c-6.9,0.4-8.6-1.7-9-6.7l0-1.1c0,0-0.1-1.9,1.4-2l1.7-0.2c5.3-0.7,13.1-2.3,19.4-10
				c6-7.8,8.1-18.3,7-29.5c-1.1-11.7-4.6-20.1-12.5-26.1c-6.8-5.3-14.8-6.9-23.1-6.3c0,0-3.3,0.3-7,0.8c0,0-2.2,0.2-2,2.3l8.8,91.7
				c0.8,8.1,3,36.5,9.6,42.4c0,0-7.5,0.8-21.7,2c-10.8,0.9-19.3,1.1-19.3,1.1c2.8-7,2.4-17.4,1.7-29.5l-6.9-72.3
				c-0.8-8.3-2.2-36.6-8.9-43.7c0,0,18.1-2.7,51.7-5.9c17.6-1.7,31.9,0.6,44.4,9C715.5,2170.4,721.1,2178.4,723.4,2186.5z"/>
			<path class="st0" d="M860.8,2216.1c7.2,31.8-7.7,58.8-40.8,67.1c-23.2,5.8-56.7-2.7-66-43.5l-11.4-48.1
				c-3-13.5-7.9-37.3-15.7-43.5c0,0,8.7-1.2,22.4-3.8c13.7-2.6,20-4.1,20-4.1c-3.6,5.7,0.2,27.9,3.7,44.3l14.5,61.2
				c2.6,11.2,6.3,18.9,12.6,23.4c4.7,3.4,10.9,4.3,17.4,3.1c5.9-1.1,12-4.4,15.3-10.4c3.4-6.3,3.4-15.3,0.8-26.5l-16.3-61.2
				c-4.5-16.8-9.6-37.9-15.1-41.4c0,0,6.6-1.8,19.2-5.4c9.5-2.7,15.2-4.4,19.3-5.8c-3.8,9.2,5.2,37.4,7.1,45.5L860.8,2216.1z"/>
			<path class="st0" d="M1009.2,2203.5c3.2,1.2,6.6,2.1,9.5,0.8c-0.3,2-2.2,6-5.3,9.2c-13.4,13.7-25.9,11.4-30.2,9.7
				c-23.1-8.8-61.6-43-63.2-46.7c0,0-0.4-1,0.6-1.4l1.4-0.6c6-2.5,12.8-9.3,15.6-15.8c4.3-9.4,3.6-17.9-0.8-28.3
				c-4.5-10.8-12.5-17.6-18.7-19.4c-9.2-2.7-16.1-0.6-20.2,1.1c0,0-5.5,2.2-7.2,3.8c0,0-1.1,0.9,0.2,4.7l29.1,83.2
				c4.4,12.2,12.1,36.1,19.1,40.1c0,0-7.9,3.1-19.8,7.4c-11.9,4.3-19.2,6.3-19.2,6.3c2.4-9.3-6.8-34.5-9.1-41.6l-18.8-56.2
				c-4.7-13.5-13.3-37.8-20.3-41.7c0,0,13.7-3.9,44.7-16.8c16.4-6.9,32.4-9.9,46.7-5.7c8.7,2.6,14.6,6.9,19.4,13.9
				c1.8,2.7,3.2,5.4,4.4,8.1c1.1,2.6,1.8,5.5,2.3,8.2c1.5,8.5,0.3,17.5-4.7,26c0,0-4.4,8.6-13.9,15.3
				C950.9,2167.3,981.3,2193,1009.2,2203.5z"/>
		</g>
	</g>
</g>
</svg>
