<?xml version="1.0" encoding="utf-8"?>
<!-- Generator: Adobe Illustrator 19.2.1, SVG Export Plug-In . SVG Version: 6.00 Build 0)  -->
<!DOCTYPE svg PUBLIC "-//W3C//DTD SVG 1.1//EN" "http://www.w3.org/Graphics/SVG/1.1/DTD/svg11.dtd">
<svg version="1.1" id="West_Ham" xmlns="http://www.w3.org/2000/svg" xmlns:xlink="http://www.w3.org/1999/xlink" x="0px" y="0px"
	 viewBox="0 0 1743.2 1938.9" style="enable-background:new 0 0 1743.2 1938.9;" xml:space="preserve">
<style type="text/css">
	.st0{fill:#2BAEE5;}
	.st1{fill:#7C2C3B;}
	.st2{fill:#D5A83A;}
	.st3{fill:#F8D742;}
	.st4{fill:#CCA738;}
	.st5{fill:#FFFFFF;}
</style>
<g>
	<path class="st0" d="M1743.1,62.9v-0.1C1478.3,22.5,1183,0,871.5,0C560.1,0,264.8,22.5,0,62.7v1.4l0,0L0,790
		c0.2,614.7,356.6,960.4,857.3,1144.2l14.2,4.6l0,0l14.2-4.6c500.8-183.8,857.1-529.5,857.3-1144.2V64.3v-1.5H1743.1z"/>
	<path class="st1" d="M1682.9,123v-0.1c-246.5-37.5-521.4-58.4-811.4-58.4c-289.9,0-564.8,20.9-811.3,58.4v1.3l0,687.9
		c0.2,572.3,332,894.1,798.1,1065.2l13.3,4.3l0,0l13.2-4.3c466.2-171.1,797.9-492.9,798.1-1065.2V124.4V123H1682.9z"/>
	<g>
		<path class="st2" d="M1272,1565.9c12.8,12.9,33.4-0.8,54.5-21.8l0,0c21.1-21.1,34.7-41.6,21.8-54.5L543.8,705.2
			c-12.8-12.9-35.8-10.7-51.3,4.8l0,0c-15.5,15.5-17.6,38.5-4.8,51.3L1272,1565.9z"/>
		<path class="st3" d="M568.7,693.2l65.8-77.4c0,0,6.2-8.3-3.5-20c-25.4-30.9-76.3-76-76.3-76c-7.3-5.5-12.3-4.2-20.5,3.7
			c-40.3,38.6-142.8,137.7-149,144.1c-7.8,8-11.3,13.4-8.8,27.1c2.5,13.8,9.8,36.8-2.9,59l-69.3,109c-8.7,13.3-11.2,25.1-4.7,31.5
			c3.5,3.4,12.3,7.4,30.2-5c8.6-5.9,102.8-69.3,132.8-94c17.6-14.5,31-27.6,31-27.6l56.8-55.8C550.5,711.8,562.5,700,568.7,693.2z"
			/>
		<g>
			<path class="st2" d="M330.4,882.2c-19.7,13.3-19.6,15.3-16.9,14.9c4.3-1,9.7-3.3,16.4-7.9c8.6-5.9,102.8-69.3,132.8-94
				c12.4-10.2,22.7-19.7,27.7-24.5c-15.5,3.3-35.2,10.8-47.2,20.8C427.1,804.9,358.5,863.1,330.4,882.2z"/>
			<path class="st2" d="M568.7,693.2l65.8-77.4c0,0,3.8-5.1,0.7-13.1l0,0c0,0-5.4-6.1-24.4,16c-16,18.6-23.5,25.9-36.9,41.9
				c-10.4,12.4-18.1,33.1-21.2,48.8C556.6,705.8,564.2,698.2,568.7,693.2z"/>
		</g>
		<path class="st2" d="M472.9,1565.9c-12.8,12.9-33.4-0.8-54.5-21.8l0,0c-21.1-21.1-34.7-41.6-21.8-54.5l804.9-784.6
			c12.8-12.9,35.8-10.7,51.3,4.8l0,0c15.5,15.5,17.6,38.5,4.8,51.3L472.9,1565.9z"/>
		<g>
			<path class="st3" d="M465.1,1558.2l751-771.2c12.8-12.9,10.7-35.8-4.8-51.3c-8.1-8.1-18.2-12.5-27.9-13.1l-786.8,767
				c-12.3,12.3-0.4,31.5,19,51.6C434.9,1559.4,453.3,1570,465.1,1558.2z"/>
		</g>
		<path class="st3" d="M1176.5,692.9l-65.8-77.4c0,0-6.2-8.3,3.4-20c25.4-30.9,76.3-76,76.3-76c7.4-5.5,12.4-4.2,20.5,3.7
			c40.3,38.6,142.8,137.7,149,144.1c7.8,8,11.3,13.4,8.8,27.1c-2.5,13.8-9.8,36.8,2.9,59l69.3,109c8.7,13.3,11.2,25.1,4.7,31.5
			c-3.5,3.4-12.3,7.4-30.2-5c-8.6-5.9-102.8-69.3-132.8-94c-17.6-14.5-31-27.6-31-27.6l-56.8-55.8
			C1194.7,711.5,1182.8,699.7,1176.5,692.9z"/>
		<path class="st2" d="M1414.9,881.9c19.7,13.3,19.6,15.3,16.9,14.9c-4.3-1-9.7-3.3-16.4-7.9c-8.6-5.9-102.8-69.3-132.8-94
			c-12.4-10.2-22.7-19.7-27.7-24.5c15.5,3.3,35.2,10.8,47.2,20.8C1318.2,804.6,1386.8,862.8,1414.9,881.9z"/>
		<path class="st2" d="M1176.5,692.9l-65.8-77.4c0,0-3.8-5.1-0.7-13.1l0,0c0,0,5.4-6.1,24.4,16c16,18.6,23.5,25.9,36.9,41.9
			c10.4,12.4,18.1,33.1,21.2,48.8C1188.7,705.5,1181.1,697.9,1176.5,692.9z"/>
		<path class="st2" d="M1303.3,715.4c-6.2,6.2-16.3,6.2-22.5,0l-33.7-33.7c-6.2-6.2-6.2-16.2,0-22.4l0,0c6.2-6.2,16.2-6.2,22.5,0
			l33.7,33.7C1309.5,699.1,1309.5,709.2,1303.3,715.4L1303.3,715.4z"/>
		<g>
			<path class="st4" d="M1251.7,681.7c-6.2-6.2-6.2-16.2,0-22.4c2.5-2.5,5.7-4,9-4.5c-4.8-0.7-9.8,0.8-13.5,4.5
				c-6.2,6.2-6.2,16.2,0,22.4l33.7,33.7c3.7,3.7,8.7,5.2,13.5,4.5c-3.3-0.5-6.4-1.9-9-4.5L1251.7,681.7z"/>
		</g>
		<g>
			<path class="st2" d="M1266.5,694c-0.7,0.7-1.8,0.7-2.4,0l0,0c-0.7-0.7-0.7-1.8,0-2.4l15.5-15.5c0.7-0.7,1.8-0.7,2.4,0l0,0
				c0.7,0.7,0.7,1.8,0,2.4L1266.5,694z"/>
			<path class="st2" d="M1271.6,699.2c-0.7,0.7-1.7,0.7-2.4,0c-0.7-0.7-0.7-1.7,0-2.4c0.7-0.7,1.7-0.7,2.4,0
				C1272.3,697.4,1272.3,698.5,1271.6,699.2z"/>
			<path class="st2" d="M1261,688.6c-0.6,0.7-1.7,0.7-2.4,0c-0.7-0.7-0.7-1.7,0-2.4c0.7-0.7,1.7-0.7,2.4,0
				C1261.6,686.8,1261.6,687.9,1261,688.6z"/>
			<path class="st2" d="M1273.4,667.6l-5.3-5.3c-0.7-0.7-1.8-0.7-2.4,0c-0.7,0.7-0.7,1.8,0,2.4l0.8,0.9c0.3,0.3,0.3,0.8,0,1.1
				l-13.7,13.7c-0.7,0.7-0.7,1.8,0,2.4c0.7,0.7,1.8,0.7,2.4,0l13.7-13.7c0.3-0.2,0.8-0.2,1.1,0.1l0.9,0.9c0.7,0.7,1.8,0.7,2.4,0
				C1274.1,669.4,1274.1,668.3,1273.4,667.6z"/>
			<path class="st2" d="M1301.7,696.2c-0.6-0.8-1.6-0.9-2.4-0.4l-9,6.5l0,0c-0.4,0.3-0.9,0.3-1.2-0.1c-0.3-0.3-0.4-0.7-0.2-1.1l0,0
				l1.8-3.7c0.3-0.6,0.2-1.3-0.2-1.8c0,0,0,0,0,0c0,0,0-0.1-0.1-0.1c0,0,0,0,0-0.1c0,0,0,0,0-0.1c0,0-0.1,0-0.1-0.1c0,0,0,0,0,0
				c-0.5-0.4-1.2-0.5-1.8-0.2l-3.7,1.8l0,0c-0.4,0.2-0.8,0.1-1.1-0.2c-0.3-0.3-0.4-0.9-0.1-1.2l0,0l6.5-9c0.6-0.8,0.4-1.8-0.4-2.4
				c-0.8-0.6-1.8-0.4-2.4,0.4l-12.8,17.7c-0.5,0.7-0.4,1.6,0.1,2.2c0,0,0,0.1,0.1,0.1c0,0,0,0,0,0c0.5,0.5,1.3,0.6,1.9,0.3l6.3-3.1
				c0.4-0.2,0.8-0.1,1.1,0.2c0.3,0.3,0.4,0.8,0.2,1.1l-3.1,6.2c-0.3,0.7-0.2,1.4,0.3,1.9c0,0,0,0,0,0c0,0,0.1,0,0.1,0.1
				c0.6,0.6,1.5,0.6,2.2,0.1l17.7-12.8C1302.1,698,1302.3,696.9,1301.7,696.2z"/>
		</g>
		<path class="st3" d="M566.4,727.3c-9.8-0.2-20.3,3.9-28.6,12.2c-14.4,14.4-16.4,35.8-4.4,47.7l321.5,329.5l54.7-54.7L566.4,727.3z
			"/>
		<g>
			<path class="st3" d="M1348.4,1489.6l-405.6-395.3c-6.4,2.8-12.3,6.9-17.6,12.1c-21.1,21.1-22.8,54.3-5,77.3l362.8,372
				c11.9,12,31.1-0.7,50.7-20.3c3.3-3.3,6.4-6.6,9.2-9.9C1353.4,1511.4,1357.4,1498.6,1348.4,1489.6z"/>
		</g>
		<g>
			<path class="st3" d="M1265.7,693.3c-0.7,0.7-1.7,0.7-2.4,0l0,0c-0.7-0.7-0.7-1.8,0-2.4l15.5-15.5c0.7-0.7,1.8-0.7,2.4,0l0,0
				c0.7,0.7,0.7,1.8,0,2.4L1265.7,693.3z"/>
			<path class="st3" d="M1270.8,698.4c-0.7,0.7-1.7,0.7-2.4,0c-0.7-0.7-0.7-1.7,0-2.4c0.7-0.7,1.7-0.7,2.4,0
				C1271.5,696.7,1271.5,697.8,1270.8,698.4z"/>
			<path class="st3" d="M1260.2,687.8c-0.6,0.6-1.7,0.7-2.4,0c-0.7-0.7-0.6-1.7,0-2.4c0.7-0.7,1.7-0.7,2.4,0
				C1260.9,686.1,1260.9,687.2,1260.2,687.8z"/>
			<path class="st3" d="M1272.7,666.9l-5.3-5.3c-0.7-0.7-1.8-0.7-2.4,0c-0.7,0.7-0.7,1.8,0,2.4l0.8,0.9c0.3,0.3,0.3,0.8,0,1.1
				l-13.7,13.7c-0.7,0.7-0.7,1.8,0,2.4c0.7,0.7,1.8,0.7,2.4,0l13.7-13.7c0.3-0.2,0.8-0.2,1.1,0.1l0.9,0.9c0.7,0.7,1.8,0.7,2.4,0
				C1273.4,668.6,1273.4,667.6,1272.7,666.9z"/>
			<path class="st3" d="M1301,695.4c-0.5-0.8-1.6-0.9-2.4-0.4l-9,6.5l0,0c-0.4,0.3-0.9,0.3-1.2-0.1c-0.3-0.3-0.4-0.7-0.2-1.1l0,0
				l1.8-3.7c0.3-0.6,0.2-1.3-0.2-1.8c0,0,0,0,0,0c0,0,0-0.1-0.1-0.1c0,0,0,0,0-0.1c0,0,0,0-0.1,0c0,0-0.1,0-0.1-0.1c0,0,0,0,0,0
				c-0.5-0.4-1.2-0.5-1.8-0.2l-3.7,1.8l0,0c-0.4,0.2-0.8,0.1-1.1-0.2c-0.3-0.3-0.4-0.9-0.1-1.2l0,0l6.5-9c0.6-0.8,0.4-1.8-0.4-2.4
				c-0.8-0.6-1.9-0.4-2.4,0.4l-12.8,17.7c-0.5,0.7-0.4,1.6,0.1,2.2c0,0,0.1,0.1,0.1,0.1c0,0,0,0,0,0c0.5,0.5,1.3,0.6,1.9,0.3
				l6.3-3.1c0.3-0.2,0.8-0.1,1.1,0.2c0.3,0.3,0.4,0.8,0.2,1.1l-3.1,6.2c-0.3,0.6-0.2,1.4,0.3,1.9c0,0,0,0,0,0c0,0,0.1,0,0.1,0.1
				c0.6,0.6,1.5,0.6,2.2,0.2l17.7-12.8C1301.4,697.3,1301.5,696.2,1301,695.4z"/>
		</g>
		<path class="st2" d="M498.1,659.5c6.2,6.2,6.2,16.3,0,22.5l-33.7,33.7c-6.2,6.2-16.2,6.2-22.4,0l0,0c-6.2-6.2-6.2-16.2,0-22.5
			l33.7-33.7C481.9,653.3,491.9,653.3,498.1,659.5L498.1,659.5z"/>
		<g>
			<path class="st4" d="M444.8,696.1l33.7-33.7c5.7-5.7,14.7-6.2,20.9-1.3c-0.4-0.5-0.8-1-1.3-1.5c-6.2-6.2-16.3-6.2-22.5,0
				L442,693.2c-6.2,6.2-6.2,16.3,0,22.5c0.5,0.5,1,0.9,1.5,1.3C438.6,710.8,439.1,701.8,444.8,696.1z"/>
		</g>
		<g>
			<path class="st2" d="M476,698.8c0.7,0.7,0.7,1.8,0,2.4l0,0c-0.7,0.7-1.8,0.7-2.4,0l-15.5-15.5c-0.7-0.7-0.7-1.8,0-2.4l0,0
				c0.7-0.7,1.8-0.7,2.4,0L476,698.8z"/>
			<path class="st2" d="M481.2,693.7c0.7,0.7,0.7,1.7,0,2.4c-0.7,0.7-1.7,0.6-2.4,0c-0.7-0.7-0.7-1.7,0-2.4
				C479.5,693,480.5,693,481.2,693.7z"/>
			<path class="st2" d="M470.6,704.3c0.7,0.6,0.7,1.7,0,2.4c-0.7,0.7-1.7,0.7-2.4,0c-0.7-0.7-0.7-1.7,0-2.4
				C468.8,703.6,469.9,703.6,470.6,704.3z"/>
			<path class="st2" d="M449.6,691.8l-5.3,5.3c-0.7,0.7-0.7,1.8,0,2.4c0.7,0.7,1.8,0.7,2.4,0l0.9-0.8c0.3-0.3,0.8-0.3,1.1,0
				l13.7,13.7c0.7,0.7,1.8,0.7,2.4,0c0.7-0.7,0.7-1.8,0-2.4l-13.7-13.7c-0.2-0.3-0.2-0.8,0.1-1.1l0.9-0.9c0.7-0.7,0.7-1.8,0-2.4
				C451.4,691.1,450.3,691.1,449.6,691.8z"/>
			<path class="st2" d="M478.2,663.5c-0.8,0.6-0.9,1.6-0.4,2.4l6.5,9l0,0c0.3,0.4,0.2,0.9-0.1,1.2c-0.3,0.3-0.7,0.3-1.1,0.2l0,0
				l-3.7-1.8c-0.6-0.3-1.3-0.2-1.8,0.2c0,0,0,0,0,0c0,0-0.1,0-0.1,0.1c0,0,0,0,0,0c0,0,0,0-0.1,0.1c0,0-0.1,0.1-0.1,0.1c0,0,0,0,0,0
				c-0.4,0.5-0.5,1.2-0.2,1.8l1.8,3.7l0,0c0.2,0.4,0.1,0.8-0.2,1.1c-0.3,0.3-0.9,0.4-1.2,0.1l0,0l-9-6.5c-0.8-0.6-1.8-0.4-2.4,0.4
				c-0.6,0.8-0.4,1.8,0.4,2.4l17.7,12.8c0.7,0.5,1.6,0.4,2.2-0.1c0,0,0.1-0.1,0.1-0.1c0,0,0,0,0,0c0.5-0.5,0.6-1.3,0.3-1.9l-3.1-6.3
				c-0.2-0.3-0.1-0.8,0.2-1c0.3-0.3,0.8-0.4,1.1-0.2l6.2,3.1c0.7,0.3,1.4,0.2,1.9-0.3c0,0,0,0,0,0c0,0,0,0,0.1-0.1
				c0.6-0.6,0.6-1.5,0.2-2.2l-12.8-17.7C480,663.1,478.9,663,478.2,663.5z"/>
		</g>
		<g>
			<path class="st3" d="M476,697.1c0.7,0.7,0.7,1.8,0,2.4l0,0c-0.7,0.7-1.8,0.7-2.4,0L458.2,684c-0.7-0.7-0.7-1.8,0-2.4l0,0
				c0.7-0.7,1.8-0.7,2.4,0L476,697.1z"/>
			<path class="st3" d="M481.2,692c0.7,0.7,0.7,1.7,0,2.4c-0.7,0.7-1.7,0.7-2.4,0c-0.7-0.7-0.7-1.7,0-2.4
				C479.5,691.3,480.5,691.3,481.2,692z"/>
			<path class="st3" d="M470.6,702.6c0.7,0.6,0.7,1.7,0,2.4c-0.7,0.7-1.7,0.6-2.4,0c-0.7-0.7-0.7-1.7,0-2.4
				C468.8,701.9,469.9,701.9,470.6,702.6z"/>
			<path class="st3" d="M449.6,690.1l-5.3,5.3c-0.7,0.7-0.7,1.8,0,2.4c0.7,0.7,1.8,0.7,2.4,0l0.9-0.8c0.3-0.3,0.8-0.3,1.1,0
				l13.7,13.7c0.7,0.7,1.8,0.7,2.4,0c0.7-0.7,0.7-1.8,0-2.4l-13.7-13.7c-0.2-0.3-0.2-0.8,0.1-1.1l0.9-0.9c0.7-0.7,0.7-1.8,0-2.4
				C451.4,689.4,450.3,689.4,449.6,690.1z"/>
			<path class="st3" d="M478.2,661.8c-0.8,0.6-0.9,1.6-0.4,2.4l6.5,9l0,0c0.3,0.4,0.2,0.9-0.1,1.2c-0.3,0.3-0.7,0.3-1.1,0.2l0,0
				l-3.7-1.8c-0.6-0.3-1.3-0.2-1.8,0.2c0,0,0,0,0,0c0,0-0.1,0-0.1,0.1c0,0,0,0,0,0c0,0,0,0-0.1,0.1c0,0-0.1,0.1-0.1,0.1c0,0,0,0,0,0
				c-0.4,0.5-0.5,1.2-0.2,1.8l1.8,3.7l0,0c0.2,0.4,0.1,0.8-0.2,1.1c-0.3,0.3-0.9,0.4-1.2,0.1l0,0l-9-6.5c-0.8-0.6-1.8-0.4-2.4,0.4
				c-0.6,0.8-0.4,1.8,0.4,2.4l17.7,12.8c0.7,0.5,1.6,0.4,2.2-0.1c0,0,0.1-0.1,0.1-0.1c0,0,0,0,0,0c0.5-0.5,0.6-1.3,0.3-1.9l-3.1-6.3
				c-0.2-0.4-0.1-0.8,0.2-1c0.3-0.3,0.8-0.4,1.1-0.2l6.2,3.1c0.7,0.3,1.4,0.2,1.9-0.3c0,0,0,0,0,0c0,0,0-0.1,0.1-0.1
				c0.6-0.6,0.6-1.5,0.2-2.2l-12.8-17.7C480,661.4,478.9,661.3,478.2,661.8z"/>
		</g>
	</g>
	<g>
		<g>
			<g>
				<path class="st5" d="M555.2,466.5c-30.4,2.9-59.3-17.5-60.2-49.5c-0.9-29.4-1.8-58.9-2.8-88.3c13.8-1.1,20.7-1.6,34.5-2.6
					c0.8,29.4,1.7,58.9,2.5,88.3c0.4,14.6,10.2,21.8,24.9,20.8c2-0.1,3.1-0.2,5.1-0.3c14.7-1,24.1-9.3,23.7-24
					c-0.7-29.4-1.4-58.9-2.1-88.3c13.8-0.8,20.7-1.2,34.6-1.9c0.6,29.4,1.2,58.9,1.9,88.3c0.5,32.1-26,55.7-57,57.1
					C558.3,466.3,557.2,466.4,555.2,466.5z"/>
				<path class="st5" d="M641.9,319.7c16.1-0.8,24.1-1.1,40.1-1.7c18,29,36,58.1,53.8,87.3c0.2,0,0.2,0,0.4,0
					c-0.3-29.7-0.6-59.4-0.9-89.1c13.8-0.4,20.8-0.6,34.6-0.8c0.4,46.6,0.8,93.1,1.2,139.7c-15.8,0.3-23.7,0.5-39.5,1
					c-17.8-29.1-35.7-58.1-53.8-87.1c-0.2,0-0.2,0-0.4,0c0.4,29.6,0.9,59.3,1.3,88.9c-13.7,0.6-20.5,0.9-34.2,1.5
					C643.6,412.8,642.8,366.2,641.9,319.7z"/>
				<path class="st5" d="M795.3,314.9c13.9-0.2,20.8-0.3,34.6-0.4c0.2,46.6,0.3,93.1,0.5,139.7c-13.7,0.1-20.5,0.2-34.2,0.4
					C795.9,408.1,795.6,361.5,795.3,314.9z"/>
				<path class="st5" d="M899.6,343.7c-17.8-0.1-26.7-0.1-44.6,0c0-11.7,0-17.6,0-29.3c41.3,0,82.6,0.3,123.9,1.1
					c-0.1,11.7-0.2,17.6-0.3,29.3c-17.8-0.4-26.7-0.6-44.5-0.8c-0.2,36.8-0.4,73.6-0.6,110.4c-13.7-0.2-20.5-0.2-34.2-0.3
					C899.5,417.3,899.6,380.5,899.6,343.7z"/>
				<path class="st5" d="M1004.1,316c31.3,0.9,62.5,2.1,93.7,3.4c-0.2,11.7-0.3,17.6-0.5,29.3c-23.6-1.1-35.4-1.6-59-2.4
					c-0.1,10.2-0.2,15.2-0.3,25.4c19.2,0.7,28.8,1,48,1.9c-0.2,11.7-0.3,17.6-0.5,29.3c-19.2-0.9-28.7-1.2-47.9-1.9
					c-0.1,10.6-0.2,15.8-0.4,26.4c24.5,0.8,36.8,1.3,61.3,2.5c-0.2,11.7-0.3,17.6-0.6,29.3c-31.8-1.4-63.6-2.6-95.4-3.5
					C1003.1,409.2,1003.6,362.6,1004.1,316z"/>
				<path class="st5" d="M1124.1,320.5c22.1,1.1,33.2,1.8,55.3,3.1c40.2,1.5,71.7,34.3,70.6,74.7c-1.1,39.5-34.9,68.8-74.2,65
					c-21.9-1.4-32.8-2-54.7-3.1C1122.2,413.6,1123.1,367,1124.1,320.5z M1175.3,433.9c23.7,1.5,38.5-11.5,39.3-38.3
					c0.8-26.6-14-41.3-37.3-42.8c-7.7-0.5-11.6-0.7-19.3-1.2c-0.6,27-1.3,54-1.9,81.1C1163.7,433.2,1167.6,433.4,1175.3,433.9z"/>
			</g>
		</g>
	</g>
	<g>
		<g>
			<path class="st5" d="M202.6,157c18-2.3,27-3.4,45-5.5c8.1,39.7,16.2,79.3,24.2,119c0.2,0,0.3,0,0.5-0.1
				c9.2-41.6,18.5-83.2,27.8-124.8c15.5-1.7,23.3-2.5,38.8-4c9,39.7,18,79.4,27,119.2c0.2,0,0.3,0,0.5,0
				c8.7-41.4,17.5-82.8,26.2-124.2c17.8-1.6,26.6-2.3,44.4-3.8c-14.8,59.8-29.6,119.5-44.4,179.3c-20.8,1.9-31.3,2.8-52.1,4.9
				c-7.1-33.6-14.2-67.1-21.2-100.7c-0.2,0-0.3,0-0.5,0.1c-7.1,35-14.2,70.1-21.2,105.1c-21,2.3-31.5,3.4-52.5,5.9
				C231,270.6,216.8,213.8,202.6,157z"/>
			<path class="st5" d="M1333.4,135.3c19.3,1.7,29,2.5,48.3,4.4c12.8,37.7,25.5,75.4,38.3,113.1c0.2,0,0.3,0,0.5,0.1
				c12.7-35.1,25.5-70.1,38.2-105.2c19.1,2.1,28.7,3.2,47.7,5.5c10.5,59.8,21,119.6,31.5,179.4c-17.7-2.2-26.6-3.3-44.3-5.4
				c-5.2-39.1-10.4-78.1-15.6-117.2c-0.2,0-0.3,0-0.5-0.1c-12.6,37.1-25.1,74.1-37.6,111.2c-15.5-1.7-23.3-2.5-38.8-4
				c-12.8-39.7-25.6-79.4-38.4-119.1c-0.2,0-0.3,0-0.5,0c-4.5,38.1-9.1,76.1-13.6,114.2c-18.1-1.6-27.1-2.4-45.1-3.8
				C1313.5,250.7,1323.4,193,1333.4,135.3z"/>
			<path class="st5" d="M454.3,131.8c39.5-3,79-5.6,118.6-7.8c-0.9,14.8-1.3,22.2-2.1,36.9c-24.5,1.4-49,2.9-73.5,4.6
				c0,12.8,0,19.2,0,31.9c24-1.7,36-2.4,60-3.8c0,14.7,0,22.1,0,36.8c-24,1.4-36,2.1-60,3.8c0,13.3,0,19.9,0,33.1
				c25.6-1.8,51.3-3.4,76.9-4.7c0,14.7,0,22.1,0,36.8c-40,2.3-79.9,4.9-119.9,7.9C454.3,248.9,454.3,190.4,454.3,131.8z"/>
			<path class="st5" d="M775,153.9c-22.2,0.4-33.3,0.6-55.5,1.2c0-14.7,0-22.1,0-36.8c51.4-1.3,102.7-2,154.1-2
				c0,14.7,0,22.1,0,36.8c-22.2,0-33.3,0-55.5,0.2c0,46.2,0,92.5,0,138.7c-17.2,0.1-25.8,0.3-43.1,0.6
				C775,246.4,775,200.2,775,153.9z"/>
			<path class="st5" d="M945.1,116.7c17.2,0.2,25.8,0.3,43.1,0.7c0,23.4,0,46.8,0,70.2c24.9,0.6,49.7,1.3,74.6,2.1
				c0-23.4,0-46.8,0-70.2c17.2,0.6,25.8,0.9,43,1.7c0,58.5,0,117,0,175.6c-17.2-0.7-25.8-1.1-43-1.7c0-22.9,0-45.8,0-68.8
				c-24.9-0.8-49.7-1.5-74.6-2.1c0,22.9,0,45.8,0,68.8c-17.2-0.4-25.8-0.5-43.1-0.7C945.1,233.8,945.1,175.3,945.1,116.7z"/>
			<path class="st5" d="M1234.6,267c-23.6-1.6-35.4-2.3-59.1-3.7c-4.2,14.5-6.3,21.7-10.6,36.2c-17.7-1-26.5-1.4-44.2-2.2
				c17.8-57.6,35.5-115.2,53.3-172.8c23.2,1.3,34.8,2,58,3.6c19.2,59.9,38.4,119.8,57.5,179.8c-17.7-1.4-26.5-2-44.2-3.3
				C1241.1,289.5,1238.9,282,1234.6,267z M1204.9,166.3c-6.4,21.1-12.9,42.1-19.3,63.2c15.6,0.9,23.3,1.4,38.9,2.4
				c-6.4-21.9-12.7-43.7-19.1-65.6C1205.2,166.4,1205.1,166.3,1204.9,166.3z"/>
			<g>
				<path class="st5" d="M654.2,117.4c-32.1,1.1-68.4,20.9-68.6,56.9c-0.4,55,82.2,40.3,87.4,70.3c1.4,8.3-8,15.3-19.8,15.3
					c-22.1,0-39.5-4.3-57.6-13.6c-0.9,15.2-1.6,23.1-2.2,36.9c18.6,12.5,37.9,15.2,58.7,15.7c30.9,0.8,68.1-20.6,68.4-56.8
					c0.5-54.6-81.4-42.2-87.4-70.6c-1.5-7.3,7.4-14.4,20.6-15.2c20.3-1.2,34.8,3.9,45.9,8.4c0.9-17.5,1.2-20,2.1-36.9
					C692,122.2,676.6,116.6,654.2,117.4z"/>
			</g>
		</g>
	</g>
	<g>
		<path class="st5" d="M617.4,1567.8l20.9,9.1l-29.5,67.5l34.9,15.2l-7.8,17.9l-55.8-24.4L617.4,1567.8z"/>
		<path class="st5" d="M720.7,1604.6c27.2,7.5,41.5,33,34.4,58.8c-7.3,26.4-32.8,41.6-59.9,34.1c-27.2-7.5-41.4-33.5-34.1-59.9
			C668.1,1611.8,693.5,1597.2,720.7,1604.6z M700.7,1677.4c13.5,3.7,27.4-4.9,31.7-20.2c4-14.7-3.7-28.7-17.2-32.4
			c-13.5-3.7-27.3,4.4-31.3,19.1C679.6,1659.2,687.2,1673.8,700.7,1677.4z"/>
		<path class="st5" d="M776.9,1620l23,2.3l21.3,45.9c3,6.5,6.2,16.6,6.2,16.6l0.3,0c0,0,0-10.1,0.6-15.9l4.4-43.3l22.7,2.3
			l-9.4,92.8l-22.8-2.3l-21.4-45.8c-3-6.5-6.2-16.6-6.2-16.6l-0.3,0c0,0,0,10.1-0.6,15.9l-4.4,43.2l-22.7-2.3L776.9,1620z"/>
		<path class="st5" d="M871.4,1628.3l33.1-1.8c29.3-1.6,49,14.5,50.6,43.8c1.6,29.3-16.2,47.8-45.5,49.3l-33.1,1.8L871.4,1628.3z
			 M907.5,1700.1c15.8-0.8,24.9-10.7,23.9-28.6c-1-17.7-11.5-26.3-26.8-25.5l-9.4,0.5l2.9,54L907.5,1700.1z"/>
		<path class="st5" d="M1003.7,1611.8c27.5-6.1,52.1,9.9,57.9,36c5.9,26.7-9.6,52.1-37.2,58.1c-27.5,6.1-52.2-10.4-58.1-37.2
			C960.6,1642.7,976.2,1617.9,1003.7,1611.8z M1020,1685.6c13.6-3,22-17.1,18.6-32.7c-3.3-14.9-16.7-23.7-30.3-20.7
			c-13.6,3-22.1,16.6-18.8,31.5C992.8,1679.2,1006.3,1688.6,1020,1685.6z"/>
		<path class="st5" d="M1060.6,1599.3l21.4-8.6l40.2,30.7c5.7,4.3,13.2,11.8,13.2,11.8l0.2-0.1c0,0-4.7-8.9-6.9-14.4l-16.3-40.4
			l21.2-8.5l34.9,86.5l-21.3,8.6l-40.3-30.6c-5.7-4.3-13.2-11.8-13.2-11.8l-0.2,0.1c0,0,4.7,8.9,6.9,14.4l16.2,40.3l-21.2,8.5
			L1060.6,1599.3z"/>
	</g>
</g>
</svg>
