<?xml version="1.0" encoding="utf-8"?>
<!-- Generator: Adobe Illustrator 19.2.1, SVG Export Plug-In . SVG Version: 6.00 Build 0)  -->
<!DOCTYPE svg PUBLIC "-//W3C//DTD SVG 1.1//EN" "http://www.w3.org/Graphics/SVG/1.1/DTD/svg11.dtd">
<svg version="1.1" id="Layer_1" xmlns="http://www.w3.org/2000/svg" xmlns:xlink="http://www.w3.org/1999/xlink" x="0px" y="0px"
	 viewBox="0 0 32.5 28.2" style="enable-background:new 0 0 32.5 28.2;" xml:space="preserve">
<style type="text/css">
	.Arched_x0020_Green{fill:url(#SVGID_1_);stroke:#FFFFFF;stroke-width:0.25;stroke-miterlimit:1;}
	.st0{fill:none;stroke:#FFFFFF;stroke-width:0.43;}
	.st1{fill:#F9A01B;}
	.st2{fill:#FFFFFF;}
</style>
<linearGradient id="SVGID_1_" gradientUnits="userSpaceOnUse" x1="-281.5156" y1="434.998" x2="-280.8085" y2="434.2909">
	<stop  offset="0" style="stop-color:#20AC4B"/>
	<stop  offset="0.9831" style="stop-color:#19361A"/>
</linearGradient>
<polygon points="8.1,28.2 0,14.1 8.1,0 24.4,0 32.5,14.1 24.4,28.2 "/>
<polygon class="st0" points="9.7,25.5 3.1,14.1 9.7,2.7 22.8,2.7 29.4,14.1 22.8,25.5 9.7,25.5 "/>
<g>
	<g>
		<path class="st1" d="M9.7,25.5L3.1,14.1L9.7,2.7h13.1l6.6,11.4l-6.6,11.4H9.7z M12.4,3.7L7,14.8l5.9,3.5l1.9,6.2h3.1l1.9-6.2
			l5.9-3.5l-5.4-11l-2,5h-3.7L12.4,3.7z"/>
	</g>
</g>
<polygon class="st2" points="20.1,12.8 20.1,15.8 17.4,15.8 "/>
<polygon class="st2" points="12.4,15.8 12.4,12.8 15.1,15.8 "/>
</svg>
