<svg width="96" height="40" viewBox="0 0 96 40" fill="none" xmlns="http://www.w3.org/2000/svg">
<g id="Group 558">
<path id="Vector" d="M43.8983 19.7266V31.2933H40.1963V2.6875H49.8216C52.1662 2.6875 54.3874 3.55811 56.115 5.17496C57.8427 6.66743 58.7065 8.90614 58.7065 11.2692C58.7065 13.6323 57.8427 15.7467 56.115 17.3635C54.3874 18.9803 52.2896 19.851 49.8216 19.851L43.8983 19.7266ZM43.8983 6.16994V16.1198H50.0684C51.4258 16.1198 52.7832 15.6223 53.647 14.6273C55.6214 12.7617 55.6214 9.65238 53.7704 7.78679L53.647 7.66242C52.6598 6.66743 51.4258 6.04557 50.0684 6.16994H43.8983Z" fill="white"/>
<path id="Vector_2" d="M67.2178 11.1484C69.9326 11.1484 72.0305 11.8947 73.6347 13.3871C75.2389 14.8796 75.9793 16.8696 75.9793 19.357V31.2968H72.5241V28.5606H72.4007C70.9198 30.7994 68.822 31.9187 66.354 31.9187C64.2562 31.9187 62.4052 31.2968 60.9243 30.0531C59.5669 28.8094 58.7031 27.0682 58.7031 25.2026C58.7031 23.2126 59.4435 21.5958 60.9243 20.352C62.4052 19.1083 64.503 18.6108 66.971 18.6108C69.1922 18.6108 70.9198 18.9839 72.2773 19.8545V18.9839C72.2773 17.7402 71.7837 16.4965 70.7964 15.7502C69.8092 14.8796 68.5752 14.3821 67.2178 14.3821C65.12 14.3821 63.5158 15.2527 62.4052 16.994L59.1967 15.004C61.1712 12.3922 63.7626 11.1484 67.2178 11.1484ZM62.5286 25.3269C62.5286 26.3219 63.0222 27.1925 63.7626 27.69C64.6264 28.3119 65.6136 28.685 66.6008 28.685C68.0816 28.685 69.5624 28.0632 70.673 26.9438C71.9071 25.8244 72.5241 24.4563 72.5241 22.9639C71.4134 22.0933 69.8092 21.5958 67.7114 21.5958C66.2306 21.5958 64.9966 21.9689 64.0094 22.7151C63.0222 23.337 62.5286 24.2076 62.5286 25.3269Z" fill="white"/>
<path id="Vector_3" d="M95.9716 11.7695L83.7549 40.0022H80.0529L84.6187 30.1767L76.5977 11.8939H80.5465L86.3463 25.948H86.4698L92.1462 11.8939H95.9716V11.7695Z" fill="white"/>
<path id="Vector_4" d="M32.879 17.2448C32.879 16.1254 32.7556 15.0061 32.6322 13.8867H17.207V20.2297H25.9685C25.5983 22.2197 24.4877 24.0853 22.7601 25.2047V29.309H28.0663C31.1514 26.4484 32.879 22.2197 32.879 17.2448Z" fill="white"/>
<path id="Vector_5" d="M17.2039 33.2845C21.6464 33.2845 25.3484 31.792 28.0632 29.3045L22.757 25.2002C21.2762 26.1952 19.4251 26.8171 17.2039 26.8171C13.0083 26.8171 9.30624 23.9565 8.07223 19.9766H2.64258V24.2052C5.48081 29.802 11.0339 33.2845 17.2039 33.2845Z" fill="white"/>
<path id="Vector_6" d="M8.07484 19.9819C7.33443 17.9919 7.33443 15.7532 8.07484 13.6388V9.41016H2.64519C0.300563 14.012 0.300563 19.4844 2.64519 24.2105L8.07484 19.9819Z" fill="white"/>
<path id="Vector_7" d="M17.2045 6.91939C19.5492 6.91939 21.7704 7.79 23.498 9.40685L28.1873 4.68068C25.2256 1.94448 21.2768 0.327631 17.3279 0.452004C11.1579 0.452004 5.48143 3.93444 2.7666 9.53122L8.19626 13.7599C9.30687 9.77997 13.0089 6.91939 17.2045 6.91939Z" fill="white"/>
</g>
</svg>
