<svg width="56" height="34" viewBox="0 0 56 34" fill="none" xmlns="http://www.w3.org/2000/svg">
<path fill-rule="evenodd" clip-rule="evenodd" d="M54.6299 23.7407H54.4635L54.4636 23.9902H54.4635V24.0942H54.4636L54.4638 24.4437H54.3415V23.6372H54.6487C54.8394 23.6372 54.9341 23.7071 54.9341 23.8667C54.9341 24.0108 54.8427 24.0734 54.7245 24.0884L54.9541 24.4437H54.8168L54.6043 24.0942H54.4636L54.4636 23.9902H54.6093C54.7133 23.9902 54.8056 23.9828 54.8056 23.8588C54.8056 23.7595 54.7148 23.7407 54.6299 23.7407ZM38.0332 0.218769C47.1776 0.218769 54.5908 7.63193 54.5908 16.7766C54.5908 25.921 47.1779 33.3342 38.0332 33.3342C34.1774 33.3399 30.4414 31.9943 27.4747 29.5313C24.606 31.9168 20.909 33.3342 16.886 33.3342C7.74158 33.3342 0.328125 25.921 0.328125 16.7766C0.328125 7.63222 7.74158 0.218769 16.886 0.218769C20.9087 0.218769 24.6057 1.6358 27.4747 4.02161C30.4414 1.55851 34.1773 0.21292 38.0332 0.218769ZM38.0341 1.43617C46.5068 1.43617 53.3756 8.30497 53.3756 16.7777C53.3756 25.2505 46.5065 32.1187 38.0341 32.1184C34.357 32.1184 31.0124 30.8319 28.37 28.6751C30.3849 26.7296 31.9233 24.2932 32.7489 21.5394H31.4745C30.6759 23.9878 29.2724 26.1482 27.4485 27.8812C25.6121 26.1328 24.2378 23.9564 23.4485 21.5467H22.1734C22.9874 24.2501 24.4795 26.7003 26.5077 28.6642C23.8723 30.7993 20.5424 32.1184 16.8865 32.1184C8.41405 32.1184 1.54525 25.2502 1.54525 16.7774C1.54525 8.30468 8.41405 1.43587 16.8865 1.43587C20.5424 1.43587 23.872 2.75561 26.5077 4.89012C24.4796 6.85438 22.9875 9.3047 22.1734 12.0082L23.4485 12.0079C24.2382 9.59833 25.6124 7.42193 27.4485 5.67314C29.2724 7.40673 30.6759 9.5671 31.4745 12.0155H32.7489C31.9236 9.26171 30.3849 6.82504 28.37 4.87954C31.0124 2.72269 34.357 1.43617 38.0341 1.43617ZM54.6124 23.4577C54.9286 23.4577 55.1785 23.7075 55.1785 24.0388C55.1785 24.3756 54.9286 24.6237 54.6124 24.6237C54.292 24.6237 54.0424 24.3756 54.0424 24.0388C54.0421 23.7075 54.292 23.4577 54.6124 23.4577ZM54.6124 23.3413C54.227 23.3413 53.9017 23.6376 53.9017 24.0388C53.9017 24.4441 54.227 24.7404 54.6124 24.7404C54.9936 24.7404 55.319 24.4441 55.319 24.0388C55.319 23.6376 54.9936 23.3413 54.6124 23.3413ZM42.0985 20.3747L43.1578 14.6975H44.4972L44.6374 15.2572C44.8767 14.9771 45.3373 14.6975 46.1162 14.6975L45.6965 16.1766L45.6765 16.1765L45.6365 16.1761C45.2451 16.1711 44.574 16.1626 44.1378 17.7758L43.6578 20.3747H42.0985ZM21.5711 13.2552H23.1149L22.798 14.7593H23.6289L23.3521 15.9861H22.5605L22.1252 18.2814C22.0458 18.717 22.0858 19.1126 22.9764 18.9742L22.8774 20.1217C22.5408 20.3392 22.0858 20.3988 21.7296 20.3988C21.3736 20.3988 20.2056 20.1808 20.503 18.6376L21.5711 13.2552ZM28.2604 17.8461C28.4382 16.9355 28.8541 14.6799 26.1429 14.6799C23.7258 14.6799 23.3542 17.0042 23.2795 17.4709L23.2733 17.5095C23.2142 17.8661 23.1742 20.3789 25.8457 20.3789C26.4988 20.3988 27.4488 20.3198 27.825 20.1217L28.0622 18.9545C27.825 19.0136 26.9344 19.0929 26.3207 19.0929L26.2672 19.093C25.6517 19.0941 24.7233 19.0958 24.8958 17.8461H28.2604ZM24.9954 16.8139H26.915C27.0141 16.2596 26.8359 15.7849 26.2225 15.7849C25.6088 15.7846 25.1738 16.1015 24.9954 16.8139ZM20.4624 14.8707L20.1064 16.0185C19.6708 15.8994 18.9387 15.8994 18.5824 15.9397C18.0084 16.0978 18.2459 16.6322 18.5624 16.7703C18.8793 16.9094 19.3743 17.1859 19.6708 17.3841C19.9674 17.5622 20.3307 17.9393 20.2049 18.7693C19.9593 20.3946 18.2702 20.3774 17.7911 20.3726L17.7901 20.3725L17.7602 20.3723L17.7315 20.3721C17.1968 20.3721 16.6234 20.3721 15.9109 20.174L16.1284 19.0068C16.7669 19.2196 17.5816 19.1751 17.9785 19.1533H17.9785H17.9785H17.9786H17.9786C18.0613 19.1488 18.1258 19.1453 18.1668 19.1453C18.6847 19.1453 18.7564 18.4901 18.3649 18.2943C18.2555 18.2396 18.1436 18.1753 18.0196 18.1041C17.7848 17.9692 17.5063 17.8092 17.1178 17.6409C16.7501 17.4819 16.3659 17.0475 16.5837 15.9988C16.8635 14.6501 18.6675 14.6525 18.9279 14.6529L18.9384 14.6529C18.9657 14.6529 18.9986 14.6519 19.0367 14.6509L19.0372 14.6509L19.0372 14.6509C19.3033 14.6433 19.8221 14.6286 20.4624 14.8707ZM11.3794 13.5248L10.0932 20.3718H8.4901L9.40069 15.5435L7.24355 20.3718H5.77891L5.363 15.4247L4.41332 20.3718H2.8699L4.19581 13.5248H6.66951L6.96608 17.6806L8.84663 13.5248H11.3794ZM11.5569 16.0775L11.7947 14.851C12.6317 14.6868 13.1419 14.6724 13.5623 14.6606H13.5623C13.649 14.6581 13.732 14.6558 13.8131 14.6523C16.4053 14.6523 16.1487 16.5128 15.9903 17.2844L15.3765 20.3712H13.9322L13.7341 20.055C13.4569 20.2525 13.2394 20.3518 12.4475 20.3915C11.6557 20.4312 10.6469 19.8378 10.8251 18.6694C11.2041 16.6008 13.3559 16.6653 14.1656 16.6896H14.1657C14.2853 16.6932 14.3756 16.6959 14.4266 16.6907C14.5876 15.9218 14.1182 15.9127 13.6317 15.9033C13.5799 15.9023 13.528 15.9013 13.4766 15.8994C13.0722 15.8847 12.3956 15.9718 11.9274 16.0321L11.9274 16.0321L11.9273 16.0321L11.9268 16.0321C11.7768 16.0514 11.6483 16.068 11.5569 16.0775ZM14.0688 17.8236C14.1055 17.8303 14.1386 17.8363 14.1677 17.8408L14.049 18.4545C13.9493 18.9695 13.2183 19.2978 12.7231 19.1073C12.2084 18.9092 12.3465 18.3158 12.8415 17.9792C13.2805 17.6807 13.7816 17.7716 14.0688 17.8236ZM36.8117 15.1077C36.4155 14.8702 36.1389 14.8312 35.6245 14.8312C35.1101 14.8312 33.9621 15.3229 33.7446 16.7108C33.4874 18.3533 34.6155 19.1645 36.1983 18.6305L36.6536 20.0158C36.1392 20.253 35.6248 20.3717 34.7736 20.3717C33.1708 20.3717 31.4296 18.9473 32.2205 16.0577C32.8043 13.9285 34.6357 13.1487 35.7036 13.1881C36.9701 13.2351 37.4257 13.6631 37.8213 14.0987L36.8117 15.1077ZM49.972 15.3455C49.8949 15.2891 49.8258 15.2166 49.753 15.1403C49.5451 14.9224 49.307 14.6727 48.7649 14.6727C48.7194 14.6727 48.6726 14.6723 48.6246 14.6718C47.7739 14.6636 46.5478 14.6518 45.8359 17.0868C45.3336 18.8068 46.3503 20.3717 47.4584 20.3717C47.9733 20.3523 48.4877 20.1345 48.804 19.917L49.0027 20.3717H50.6645L52.0101 13.169H50.3874L49.972 15.3455ZM49.4189 17.6598C49.5773 17.1454 49.4906 16.5026 49.3195 16.2745C48.8448 15.6413 47.7529 16.1419 47.4199 17.3826C47.2024 18.1938 47.6771 18.8075 48.2114 18.8075C48.7858 18.8075 49.1414 18.3522 49.4189 17.6598ZM28.3052 20.3794L29.3539 14.7595H30.6801L30.8186 15.3135C31.0558 15.036 31.5108 14.7595 32.2824 14.7595L31.8867 16.2435C31.8646 16.2435 31.8413 16.2431 31.8169 16.2427H31.8168C31.4256 16.2358 30.7516 16.224 30.3236 17.8069L29.8489 20.3794H28.3052ZM37.9169 14.8589L37.6797 16.0854C37.7707 16.0759 37.8989 16.0594 38.0486 16.0401L38.0488 16.0401C38.5168 15.9798 39.1943 15.8926 39.5987 15.9073C39.6501 15.9092 39.7021 15.9103 39.7539 15.9113C40.2407 15.9206 40.7102 15.9297 40.5487 16.6986C40.4978 16.7038 40.4075 16.7011 40.2878 16.6975C39.4784 16.6732 37.3267 16.6087 36.9475 18.6773C36.7691 19.8457 37.7781 20.4391 38.57 20.3994C39.3618 20.3597 39.5793 20.2604 39.8565 20.0629L40.0546 20.3791H41.4984L42.1127 17.2923C42.2705 16.5208 42.5277 14.6602 39.9353 14.6602C39.8541 14.6637 39.7712 14.666 39.6845 14.6685L39.6844 14.6685C39.264 14.6803 38.7538 14.6947 37.9169 14.8589ZM40.2906 17.8495C40.2615 17.845 40.2283 17.839 40.1917 17.8323C39.9045 17.7803 39.4034 17.6894 38.9644 17.9879C38.4694 18.3245 38.3313 18.9179 38.8462 19.116C39.3418 19.3065 40.0725 18.9782 40.1718 18.4632L40.2906 17.8495Z" fill="white"/>
</svg>
