<svg width="95" height="32" viewBox="0 0 95 32" fill="none" xmlns="http://www.w3.org/2000/svg">
<path d="M40.8972 30.7888H33.252L38.0339 0.988281H45.6787L40.8972 30.7888Z" fill="white"/>
<path d="M68.6105 1.71404C67.1025 1.11107 64.7107 0.445312 61.7533 0.445312C54.2033 0.445312 48.8867 4.50305 48.8541 10.3044C48.7914 14.5846 52.6606 16.9619 55.5545 18.3891C58.5124 19.8474 59.5179 20.7993 59.5179 22.0992C59.4878 24.0956 57.1277 25.0159 54.9266 25.0159C51.8742 25.0159 50.2388 24.5414 47.7533 23.4307L46.7466 22.9546L45.6768 29.6441C47.4699 30.4675 50.7735 31.1981 54.2033 31.2301C62.2253 31.2301 67.4478 27.2352 67.5097 21.0529C67.5402 17.6606 65.4971 15.0612 61.0923 12.9371C58.4183 11.5735 56.7807 10.6541 56.7807 9.25898C56.8121 7.99067 58.1658 6.69161 61.1843 6.69161C63.6697 6.62798 65.4959 7.23011 66.8793 7.83266L67.5708 8.1491L68.6105 1.71404Z" fill="white"/>
<path d="M78.7719 20.2315C79.4015 18.5195 81.8242 11.8936 81.8242 11.8936C81.7924 11.9572 82.4526 10.15 82.8301 9.04054L83.3644 11.6083C83.3644 11.6083 84.8122 18.7416 85.1266 20.2315C83.9317 20.2315 80.2819 20.2315 78.7719 20.2315ZM88.209 0.988281H82.2954C80.4717 0.988281 79.0863 1.52678 78.2994 3.46084L66.9434 30.7884H74.9653C74.9653 30.7884 76.286 27.1103 76.5699 26.3181C77.4499 26.3181 85.2536 26.3181 86.3858 26.3181C86.6053 27.3644 87.298 30.7884 87.298 30.7884H94.3768L88.209 0.988281Z" fill="white"/>
<path d="M26.8667 0.988281L19.3795 21.3094L18.5613 17.188C17.1771 12.4325 12.8358 7.26576 7.99121 4.6967L14.8493 30.7572H22.9339L34.951 0.988281H26.8667Z" fill="white"/>
<path d="M12.2719 0.445312H0.124275L0 0.944901C9.47594 2.99675 15.7517 7.94265 18.3301 13.8874L15.6893 2.52373C15.2546 0.944552 13.9185 0.497404 12.2719 0.445312Z" fill="white"/>
</svg>
