<svg width="347" height="182" viewBox="0 0 347 182" fill="none" xmlns="http://www.w3.org/2000/svg">
<path d="M331.517 1C331.517 1.1003 331.517 1.2006 331.517 1.3009C331.517 3.828 330.513 6.2516 328.726 8.03853C326.939 9.82546 324.515 10.8293 321.988 10.8293C319.461 10.8293 317.038 9.82546 315.251 8.03853C313.464 6.2516 312.46 3.828 312.46 1.3009C312.46 1.2006 312.46 1.1003 312.46 1H302.781C302.781 1.1003 302.781 1.2006 302.781 1.3009C302.781 3.828 301.777 6.2516 299.99 8.03853C298.203 9.82546 295.78 10.8293 293.253 10.8293C290.725 10.8293 288.302 9.82546 286.515 8.03853C284.728 6.2516 283.724 3.828 283.724 1.3009C283.724 1.2006 283.724 1.1003 283.724 1H274.145C274.145 1.1003 274.145 1.2006 274.145 1.3009C274.145 3.828 273.142 6.2516 271.355 8.03853C269.568 9.82546 267.144 10.8293 264.617 10.8293C262.09 10.8293 259.666 9.82546 257.879 8.03853C256.092 6.2516 255.089 3.828 255.089 1.3009C255.089 1.2006 255.089 1.1003 255.089 1H245.41C245.41 1.1003 245.41 1.2006 245.41 1.3009C245.41 3.828 244.406 6.2516 242.619 8.03853C240.832 9.82546 238.408 10.8293 235.881 10.8293C233.354 10.8293 230.931 9.82546 229.144 8.03853C227.357 6.2516 226.353 3.828 226.353 1.3009C226.353 1.2006 226.353 1.1003 226.353 1H216.684C216.684 1.1003 216.684 1.2006 216.684 1.3009C216.684 3.828 215.68 6.2516 213.893 8.03853C212.106 9.82546 209.683 10.8293 207.155 10.8293C204.628 10.8293 202.205 9.82546 200.418 8.03853C198.631 6.2516 197.627 3.828 197.627 1.3009C197.627 1.2006 197.627 1.1003 197.627 1H188.089C188.089 1.1003 188.089 1.2006 188.089 1.3009C188.089 5.15805 186.556 8.85723 183.829 11.5846C181.101 14.3121 177.402 15.8443 173.545 15.8443C169.688 15.8443 165.989 14.3121 163.261 11.5846C160.534 8.85723 159.002 5.15805 159.002 1.3009C159.002 1.2006 159.002 1.1003 159.002 1H149.323C149.323 1.1003 149.323 1.2006 149.323 1.3009C149.323 3.828 148.319 6.2516 146.532 8.03853C144.745 9.82546 142.321 10.8293 139.794 10.8293C137.267 10.8293 134.844 9.82546 133.057 8.03853C131.27 6.2516 130.266 3.828 130.266 1.3009C130.266 1.2006 130.266 1.1003 130.266 1H120.597C120.597 1.1003 120.597 1.2006 120.597 1.3009C120.597 3.828 119.593 6.2516 117.806 8.03853C116.019 9.82546 113.596 10.8293 111.069 10.8293C108.542 10.8293 106.118 9.82546 104.331 8.03853C102.544 6.2516 101.54 3.828 101.54 1.3009C101.54 1.2006 101.54 1.1003 101.54 1H91.9014C91.9014 1.1003 91.9014 1.2006 91.9014 1.3009C91.9014 3.828 90.8975 6.2516 89.1106 8.03853C87.3236 9.82546 84.9 10.8293 82.3729 10.8293C79.8458 10.8293 77.4222 9.82546 75.6353 8.03853C73.8484 6.2516 72.8445 3.828 72.8445 1.3009C72.8445 1.2006 72.8445 1.1003 72.8445 1H63.2057C63.2057 1.1003 63.2057 1.2006 63.2057 1.3009C63.2057 3.828 62.2018 6.2516 60.4149 8.03853C58.628 9.82546 56.2044 10.8293 53.6773 10.8293C51.1502 10.8293 48.7266 9.82546 46.9396 8.03853C45.1527 6.2516 44.1488 3.828 44.1488 1.3009C44.1488 1.2006 44.1488 1.1003 44.1488 1H34.5C34.5 1.1003 34.5 1.2006 34.5 1.3009C34.5 3.828 33.4961 6.2516 31.7092 8.03853C29.9223 9.82546 27.4987 10.8293 24.9716 10.8293C22.4445 10.8293 20.0209 9.82546 18.2339 8.03853C16.447 6.2516 15.4431 3.828 15.4431 1.3009C15.4431 1.2006 15.4431 1.1003 15.4431 1H1V180.536H13.4672C13.4672 178.674 14.2069 176.888 15.5236 175.571C16.8403 174.255 18.6261 173.515 20.4882 173.515C22.3503 173.515 24.1361 174.255 25.4528 175.571C26.7694 176.888 27.5091 178.674 27.5091 180.536H35.3325C35.3325 178.674 36.0722 176.888 37.3889 175.571C38.7056 174.255 40.4914 173.515 42.3535 173.515C44.2155 173.515 46.0013 174.255 47.318 175.571C48.6347 176.888 49.3744 178.674 49.3744 180.536H57.1978C57.1978 178.674 57.9375 176.888 59.2542 175.571C60.5709 174.255 62.3567 173.515 64.2187 173.515C66.0808 173.515 67.8666 174.255 69.1833 175.571C70.5 176.888 71.2397 178.674 71.2397 180.536H79.0731C79.0731 178.674 79.8128 176.888 81.1295 175.571C82.4462 174.255 84.232 173.515 86.094 173.515C87.9561 173.515 89.7419 174.255 91.0586 175.571C92.3753 176.888 93.115 178.674 93.115 180.536H100.938C100.938 178.674 101.678 176.888 102.995 175.571C104.311 174.255 106.097 173.515 107.959 173.515C109.821 173.515 111.607 174.255 112.924 175.571C114.241 176.888 114.98 178.674 114.98 180.536H122.814C122.814 178.674 123.553 176.888 124.87 175.571C126.187 174.255 127.973 173.515 129.835 173.515C131.697 173.515 133.483 174.255 134.799 175.571C136.116 176.888 136.856 178.674 136.856 180.536H144.679C144.679 178.674 145.419 176.888 146.735 175.571C148.052 174.255 149.838 173.515 151.7 173.515C153.562 173.515 155.348 174.255 156.664 175.571C157.981 176.888 158.721 178.674 158.721 180.536H166.544C166.544 178.674 167.284 176.888 168.601 175.571C169.917 174.255 171.703 173.515 173.565 173.515C175.427 173.515 177.213 174.255 178.53 175.571C179.846 176.888 180.586 178.674 180.586 180.536H188.41C188.41 178.674 189.149 176.888 190.466 175.571C191.783 174.255 193.568 173.515 195.43 173.515C197.293 173.515 199.078 174.255 200.395 175.571C201.712 176.888 202.451 178.674 202.451 180.536H210.275C210.275 178.674 211.014 176.888 212.331 175.571C213.648 174.255 215.434 173.515 217.296 173.515C219.158 173.515 220.944 174.255 222.26 175.571C223.577 176.888 224.317 178.674 224.317 180.536H232.15C232.15 178.674 232.89 176.888 234.206 175.571C235.523 174.255 237.309 173.515 239.171 173.515C241.033 173.515 242.819 174.255 244.136 175.571C245.452 176.888 246.192 178.674 246.192 180.536H254.015C254.015 178.674 254.755 176.888 256.072 175.571C257.388 174.255 259.174 173.515 261.036 173.515C262.898 173.515 264.684 174.255 266.001 175.571C267.318 176.888 268.057 178.674 268.057 180.536H275.891C275.891 178.674 276.63 176.888 277.947 175.571C279.264 174.255 281.05 173.515 282.912 173.515C284.774 173.515 286.56 174.255 287.876 175.571C289.193 176.888 289.933 178.674 289.933 180.536H297.756C297.756 178.674 298.496 176.888 299.812 175.571C301.129 174.255 302.915 173.515 304.777 173.515C306.639 173.515 308.425 174.255 309.741 175.571C311.058 176.888 311.798 178.674 311.798 180.536H319.481C319.481 178.674 320.221 176.888 321.537 175.571C322.854 174.255 324.64 173.515 326.502 173.515C328.364 173.515 330.15 174.255 331.466 175.571C332.783 176.888 333.523 178.674 333.523 180.536H346V1H331.517Z" fill="url(#paint0_linear_5396_19416)" stroke="#5F6180" stroke-miterlimit="10"/>
<defs>
<linearGradient id="paint0_linear_5396_19416" x1="173.5" y1="75.4995" x2="173.5" y2="180.536" gradientUnits="userSpaceOnUse">
<stop stop-color="#303656"/>
<stop offset="1" stop-color="#1A1C2B"/>
</linearGradient>
</defs>
</svg>
