<svg width="347" height="81" viewBox="0 0 347 81" fill="none" xmlns="http://www.w3.org/2000/svg">
<path d="M333.524 1C333.35 2.73182 332.539 4.33732 331.248 5.50498C329.958 6.67264 328.279 7.31919 326.539 7.31919C324.798 7.31919 323.12 6.67264 321.829 5.50498C320.538 4.33732 319.727 2.73182 319.553 1H311.67C311.509 2.74202 310.702 4.36085 309.409 5.53935C308.116 6.71785 306.43 7.37109 304.68 7.37109C302.931 7.37109 301.244 6.71785 299.951 5.53935C298.658 4.36085 297.852 2.74202 297.69 1H289.837C289.675 2.74202 288.869 4.36085 287.576 5.53935C286.283 6.71785 284.596 7.37109 282.847 7.37109C281.097 7.37109 279.411 6.71785 278.118 5.53935C276.825 4.36085 276.018 2.74202 275.857 1H267.984C267.822 2.74202 267.016 4.36085 265.723 5.53935C264.43 6.71785 262.743 7.37109 260.994 7.37109C259.244 7.37109 257.558 6.71785 256.265 5.53935C254.972 4.36085 254.165 2.74202 254.003 1H246.12C245.959 2.74202 245.152 4.36085 243.859 5.53935C242.566 6.71785 240.88 7.37109 239.13 7.37109C237.381 7.37109 235.694 6.71785 234.401 5.53935C233.108 4.36085 232.302 2.74202 232.14 1H224.257C224.083 2.73182 223.272 4.33732 221.982 5.50498C220.691 6.67264 219.012 7.31919 217.272 7.31919C215.531 7.31919 213.853 6.67264 212.562 5.50498C211.271 4.33732 210.46 2.73182 210.287 1H202.404C202.242 2.74202 201.436 4.36085 200.143 5.53935C198.849 6.71785 197.163 7.37109 195.414 7.37109C193.664 7.37109 191.978 6.71785 190.684 5.53935C189.391 4.36085 188.585 2.74202 188.423 1H180.52C180.346 2.73182 179.536 4.33732 178.245 5.50498C176.954 6.67264 175.276 7.31919 173.535 7.31919C171.795 7.31919 170.116 6.67264 168.825 5.50498C167.535 4.33732 166.724 2.73182 166.55 1H158.657C158.495 2.74202 157.689 4.36085 156.396 5.53935C155.103 6.71785 153.416 7.37109 151.667 7.37109C149.917 7.37109 148.231 6.71785 146.938 5.53935C145.645 4.36085 144.838 2.74202 144.676 1H136.794C136.632 2.74202 135.825 4.36085 134.532 5.53935C133.239 6.71785 131.553 7.37109 129.803 7.37109C128.054 7.37109 126.367 6.71785 125.074 5.53935C123.781 4.36085 122.975 2.74202 122.813 1H114.94C114.778 2.74202 113.972 4.36085 112.679 5.53935C111.386 6.71785 109.7 7.37109 107.95 7.37109C106.2 7.37109 104.514 6.71785 103.221 5.53935C101.928 4.36085 101.122 2.74202 100.96 1H93.0769C92.9151 2.74202 92.1087 4.36085 90.8156 5.53935C89.5226 6.71785 87.8361 7.37109 86.0866 7.37109C84.3371 7.37109 82.6506 6.71785 81.3576 5.53935C80.0646 4.36085 79.2582 2.74202 79.0964 1H71.2035C71.0296 2.73182 70.2187 4.33732 68.928 5.50498C67.6372 6.67264 65.9588 7.31919 64.2182 7.31919C62.4777 7.31919 60.7992 6.67264 59.5085 5.50498C58.2178 4.33732 57.4068 2.73182 57.233 1H49.3602C49.1984 2.74202 48.392 4.36085 47.0989 5.53935C45.8059 6.71785 44.1194 7.37109 42.3699 7.37109C40.6204 7.37109 38.9339 6.71785 37.6409 5.53935C36.3479 4.36085 35.5414 2.74202 35.3796 1H27.4968C27.323 2.73182 26.512 4.33732 25.2213 5.50498C23.9305 6.67264 22.2521 7.31919 20.5116 7.31919C18.771 7.31919 17.0926 6.67264 15.8018 5.50498C14.5111 4.33732 13.7001 2.73182 13.5263 1H1V80.2297H15.492C15.492 77.7028 16.4958 75.2794 18.2826 73.4926C20.0694 71.7058 22.4927 70.702 25.0196 70.702C27.5465 70.702 29.9699 71.7058 31.7567 73.4926C33.5434 75.2794 34.5472 77.7028 34.5472 80.2297H44.1952C44.1952 77.7028 45.199 75.2794 46.9858 73.4926C48.7725 71.7058 51.1959 70.702 53.7228 70.702C56.2497 70.702 58.6731 71.7058 60.4599 73.4926C62.2466 75.2794 63.2504 77.7028 63.2504 80.2297H72.8984C72.8984 77.7028 73.9022 75.2794 75.689 73.4926C77.4757 71.7058 79.8991 70.702 82.426 70.702C84.9529 70.702 87.3763 71.7058 89.1631 73.4926C90.9498 75.2794 91.9536 77.7028 91.9536 80.2297H101.612C101.612 77.7028 102.615 75.2794 104.402 73.4926C106.189 71.7058 108.612 70.702 111.139 70.702C113.666 70.702 116.09 71.7058 117.876 73.4926C119.663 75.2794 120.667 77.7028 120.667 80.2297H130.315C130.315 77.7028 131.319 75.2794 133.105 73.4926C134.892 71.7058 137.316 70.702 139.842 70.702C142.369 70.702 144.793 71.7058 146.579 73.4926C148.366 75.2794 149.37 77.7028 149.37 80.2297H159.018C159.018 76.3728 160.55 72.674 163.277 69.9468C166.004 67.2196 169.703 65.6875 173.56 65.6875C177.417 65.6875 181.116 67.2196 183.843 69.9468C186.57 72.674 188.102 76.3728 188.102 80.2297H197.75C197.75 77.7028 198.754 75.2794 200.541 73.4926C202.328 71.7058 204.751 70.702 207.278 70.702C209.805 70.702 212.228 71.7058 214.015 73.4926C215.802 75.2794 216.805 77.7028 216.805 80.2297H226.453C226.453 77.7028 227.457 75.2794 229.244 73.4926C231.031 71.7058 233.454 70.702 235.981 70.702C238.508 70.702 240.931 71.7058 242.718 73.4926C244.505 75.2794 245.509 77.7028 245.509 80.2297H255.167C255.167 77.7028 256.171 75.2794 257.957 73.4926C259.744 71.7058 262.167 70.702 264.694 70.702C267.221 70.702 269.645 71.7058 271.431 73.4926C273.218 75.2794 274.222 77.7028 274.222 80.2297H283.82C283.82 77.7028 284.824 75.2794 286.61 73.4926C288.397 71.7058 290.82 70.702 293.347 70.702C295.874 70.702 298.298 71.7058 300.084 73.4926C301.871 75.2794 302.875 77.7028 302.875 80.2297H312.523C312.523 77.7028 313.527 75.2794 315.314 73.4926C317.1 71.7058 319.524 70.702 322.051 70.702C324.577 70.702 327.001 71.7058 328.788 73.4926C330.574 75.2794 331.578 77.7028 331.578 80.2297H346V1H333.524Z" fill="#3FD1FF" stroke="#3FD1FF" stroke-miterlimit="10"/>
</svg>
