<svg width="306" height="71" viewBox="0 0 306 71" fill="none" xmlns="http://www.w3.org/2000/svg">
<path d="M304.919 67.4405C303.537 67.4405 302.211 66.8913 301.233 65.9137C300.256 64.9361 299.707 63.6102 299.707 62.2277C299.707 60.8451 300.256 59.5192 301.233 58.5416C302.211 57.564 303.537 57.0148 304.919 57.0148V54.0796C303.537 54.0796 302.211 53.5304 301.233 52.5528C300.256 51.5752 299.707 50.2493 299.707 48.8668C299.707 47.4842 300.256 46.1583 301.233 45.1807C302.211 44.2031 303.537 43.6539 304.919 43.6539V40.707C303.537 40.707 302.211 40.1578 301.233 39.1802C300.256 38.2026 299.707 36.8767 299.707 35.4941C299.707 34.1116 300.256 32.7857 301.233 31.8081C302.211 30.8305 303.537 30.2813 304.919 30.2813V27.3461C304.215 27.3796 303.511 27.2697 302.85 27.0231C302.189 26.7765 301.585 26.3984 301.074 25.9116C300.564 25.4248 300.158 24.8394 299.88 24.191C299.602 23.5425 299.459 22.8445 299.459 22.1391C299.459 21.4337 299.602 20.7357 299.88 20.0872C300.158 19.4388 300.564 18.8534 301.074 18.3666C301.585 17.8798 302.189 17.5017 302.85 17.2551C303.511 17.0085 304.215 16.8986 304.919 16.9321V13.9852C303.537 13.9852 302.211 13.436 301.233 12.4584C300.256 11.4808 299.707 10.1549 299.707 8.77233C299.707 7.38979 300.256 6.06388 301.233 5.08628C302.211 4.10868 303.537 3.55947 304.919 3.55947V1H1V5.00357C2.84686 5.10885 4.58348 5.91669 5.85376 7.26144C7.12404 8.6062 7.83174 10.386 7.83174 12.2358C7.83174 14.0857 7.12404 15.8655 5.85376 17.2102C4.58348 18.555 2.84686 19.3628 1 19.4681V24.7866C3.83047 24.7866 6.545 25.911 8.54644 27.9125C10.5479 29.9139 11.6723 32.6284 11.6723 35.4589C11.6723 38.2894 10.5479 41.0039 8.54644 43.0054C6.545 45.0068 3.83047 46.1312 1 46.1312V51.4497C2.92746 51.4497 4.77597 52.2154 6.13889 53.5783C7.5018 54.9412 8.26748 56.7897 8.26748 58.7172C8.26748 60.6447 7.5018 62.4932 6.13889 63.8561C4.77597 65.219 2.92746 65.9847 1 65.9847V70H304.943V67.4405H304.919Z" fill="url(#paint0_linear_5257_18288)" stroke="#5F6180" stroke-miterlimit="10"/>
<defs>
<linearGradient id="paint0_linear_5257_18288" x1="152.971" y1="29.632" x2="152.971" y2="70" gradientUnits="userSpaceOnUse">
<stop stop-color="#303656"/>
<stop offset="1" stop-color="#1A1C2B"/>
</linearGradient>
</defs>
</svg>
