<svg width="118" height="71" viewBox="0 0 118 71" fill="none" xmlns="http://www.w3.org/2000/svg">
<path d="M116.853 67.4518C116.169 67.4518 115.491 67.317 114.858 67.055C114.226 66.793 113.651 66.4089 113.167 65.9248C112.682 65.4406 112.298 64.8659 112.036 64.2333C111.774 63.6007 111.64 62.9228 111.64 62.2381C111.64 61.5534 111.774 60.8754 112.036 60.2429C112.298 59.6103 112.682 59.0356 113.167 58.5514C113.651 58.0673 114.226 57.6832 114.858 57.4212C115.491 57.1592 116.169 57.0243 116.853 57.0243H117.006V54.0769H116.853C115.471 54.0769 114.144 53.5276 113.167 52.5499C112.189 51.5721 111.64 50.2459 111.64 48.8632C111.64 47.4804 112.189 46.1543 113.167 45.1765C114.144 44.1987 115.471 43.6494 116.853 43.6494H117.006V40.7138H116.853C115.471 40.7138 114.144 40.1644 113.167 39.1867C112.189 38.2089 111.64 36.8828 111.64 35.5C111.64 34.1172 112.189 32.7911 113.167 31.8133C114.144 30.8356 115.471 30.2863 116.853 30.2863H117.006V27.3388H116.853C115.471 27.3388 114.144 26.7895 113.167 25.8118C112.189 24.834 111.64 23.5079 111.64 22.1251C111.64 20.7423 112.189 19.4162 113.167 18.4384C114.144 17.4606 115.471 16.9113 116.853 16.9113H117.006V13.9757H116.853C116.149 14.0091 115.444 13.8992 114.783 13.6526C114.122 13.406 113.518 13.0278 113.008 12.5409C112.497 12.054 112.091 11.4686 111.813 10.82C111.535 10.1715 111.392 9.47329 111.392 8.76779C111.392 8.06228 111.535 7.36411 111.813 6.71556C112.091 6.067 112.497 5.48155 113.008 4.99466C113.518 4.50777 114.122 4.12957 114.783 3.88295C115.444 3.63633 116.149 3.52643 116.853 3.55991H117.006V1H1V3.57165C1.70471 3.53818 2.4089 3.64807 3.0699 3.89469C3.73089 4.14131 4.33496 4.51952 4.84552 5.00641C5.35609 5.4933 5.76254 6.07874 6.04024 6.7273C6.31794 7.37585 6.46111 8.07402 6.46111 8.77953C6.46111 9.48503 6.31794 10.1832 6.04024 10.8318C5.76254 11.4803 5.35609 12.0658 4.84552 12.5526C4.33496 13.0395 3.73089 13.4177 3.0699 13.6644C2.4089 13.911 1.70471 14.0209 1 13.9874V16.9348C1.70471 16.9013 2.4089 17.0112 3.0699 17.2579C3.73089 17.5045 4.33496 17.8827 4.84552 18.3696C5.35609 18.8565 5.76254 19.4419 6.04024 20.0905C6.31794 20.739 6.46111 21.4372 6.46111 22.1427C6.46111 22.8482 6.31794 23.5464 6.04024 24.1949C5.76254 24.8435 5.35609 25.4289 4.84552 25.9158C4.33496 26.4027 3.73089 26.7809 3.0699 27.0275C2.4089 27.2742 1.70471 27.3841 1 27.3506V30.298C2.38277 30.298 3.70891 30.8473 4.68668 31.8251C5.66445 32.8028 6.21375 34.129 6.21375 35.5117C6.21375 36.8945 5.66445 38.2207 4.68668 39.1984C3.70891 40.1762 2.38277 40.7255 1 40.7255V43.6612C1.68468 43.6612 2.36265 43.796 2.99521 44.058C3.62777 44.3201 4.20254 44.7041 4.68668 45.1882C5.17082 45.6724 5.55486 46.2471 5.81687 46.8797C6.07889 47.5123 6.21375 48.1902 6.21375 48.8749C6.21375 49.5596 6.07889 50.2376 5.81687 50.8701C5.55486 51.5027 5.17082 52.0775 4.68668 52.5616C4.20254 53.0457 3.62777 53.4298 2.99521 53.6918C2.36265 53.9538 1.68468 54.0887 1 54.0887V57.0126C1.70471 56.9791 2.4089 57.089 3.0699 57.3356C3.73089 57.5823 4.33496 57.9605 4.84552 58.4474C5.35609 58.9342 5.76254 59.5197 6.04024 60.1682C6.31794 60.8168 6.46111 61.515 6.46111 62.2205C6.46111 62.926 6.31794 63.6241 6.04024 64.2727C5.76254 64.9213 5.35609 65.5067 4.84552 65.9936C4.33496 66.4805 3.73089 66.8587 3.0699 67.1053C2.4089 67.3519 1.70471 67.4618 1 67.4284V70H117.006V67.4166L116.853 67.4518Z" fill="url(#paint0_linear_5257_18286)" stroke="#5F6180" stroke-miterlimit="10"/>
<defs>
<linearGradient id="paint0_linear_5257_18286" x1="59.003" y1="29.632" x2="59.003" y2="70" gradientUnits="userSpaceOnUse">
<stop stop-color="#303656"/>
<stop offset="1" stop-color="#1A1C2B"/>
</linearGradient>
</defs>
</svg>
