<svg width="205" height="71" viewBox="0 0 205 71" fill="none" xmlns="http://www.w3.org/2000/svg">
<path d="M203.907 5.19614H203.988V1H1V3.78577C2.36638 3.78577 3.67679 4.32856 4.64296 5.29474C5.60914 6.26091 6.15193 7.57132 6.15193 8.9377C6.15193 10.3041 5.60914 11.6145 4.64296 12.5807C3.67679 13.5468 2.36638 14.0896 1 14.0896V17.0502C2.36638 17.0502 3.67679 17.593 4.64296 18.5592C5.60914 19.5254 6.15193 20.8358 6.15193 22.2022C6.15193 23.5685 5.60914 24.879 4.64296 25.8451C3.67679 26.8113 2.36638 27.3541 1 27.3541V30.3147C2.36638 30.3147 3.67679 30.8575 4.64296 31.8237C5.60914 32.7899 6.15193 34.1003 6.15193 35.4666C6.15193 36.833 5.60914 38.1434 4.64296 39.1096C3.67679 40.0758 2.36638 40.6186 1 40.6186V43.5792C2.32551 43.6422 3.57587 44.2131 4.49165 45.1735C5.40743 46.1339 5.91833 47.4099 5.91833 48.7369C5.91833 50.0639 5.40743 51.34 4.49165 52.3004C3.57587 53.2607 2.32551 53.8317 1 53.8947V56.8553C2.36638 56.8553 3.67679 57.3981 4.64296 58.3643C5.60914 59.3304 6.15193 60.6409 6.15193 62.0072C6.15193 63.3736 5.60914 64.684 4.64296 65.6502C3.67679 66.6164 2.36638 67.1592 1 67.1592V69.9449H204V65.7488H203.907C201.993 65.7488 200.158 64.9886 198.805 63.6356C197.452 62.2825 196.692 60.4473 196.692 58.5338C196.692 56.6202 197.452 54.785 198.805 53.432C200.158 52.0789 201.993 51.3187 203.907 51.3187H203.988V46.0269H203.907C202.485 46.0741 201.068 45.8348 199.741 45.3232C198.414 44.8117 197.203 44.0384 196.18 43.0493C195.158 42.0603 194.345 40.8757 193.79 39.566C193.234 38.2563 192.948 36.8484 192.948 35.4258C192.948 34.0033 193.234 32.5954 193.79 31.2857C194.345 29.976 195.158 28.7914 196.18 27.8023C197.203 26.8133 198.414 26.04 199.741 25.5284C201.068 25.0169 202.485 24.7776 203.907 24.8248H203.988V19.5563H203.907C202.051 19.4815 200.296 18.6917 199.01 17.3523C197.723 16.0129 197.004 14.2276 197.004 12.3704C197.004 10.5131 197.723 8.7279 199.01 7.38846C200.296 6.04902 202.051 5.25924 203.907 5.18449V5.19614Z" fill="#3FD1FF" stroke="#3FD1FF" stroke-miterlimit="10"/>
</svg>
