<svg width="142" height="71" viewBox="0 0 142 71" fill="none" xmlns="http://www.w3.org/2000/svg">
<path d="M140.372 67.3849C139.688 67.3849 139.011 67.2503 138.38 66.9886C137.748 66.7269 137.174 66.3434 136.69 65.8599C136.207 65.3765 135.823 64.8025 135.562 64.1708C135.3 63.5391 135.165 62.862 135.165 62.1783C135.165 61.4945 135.3 60.8175 135.562 60.1858C135.823 59.5541 136.207 58.9801 136.69 58.4966C137.174 58.0131 137.748 57.6296 138.38 57.368C139.011 57.1063 139.688 56.9716 140.372 56.9716H140.548V54.0165H140.372C138.991 54.0165 137.667 53.4679 136.69 52.4915C135.714 51.515 135.165 50.1907 135.165 48.8098C135.165 47.4289 135.714 46.1046 136.69 45.1282C137.667 44.1517 138.991 43.6032 140.372 43.6032H140.548V40.7067H140.372C138.991 40.7067 137.667 40.1581 136.69 39.1817C135.714 38.2052 135.165 36.8809 135.165 35.5C135.165 34.1191 135.714 32.7948 136.69 31.8183C137.667 30.8419 138.991 30.2933 140.372 30.2933H140.548V27.3265H140.372C138.991 27.3265 137.667 26.7779 136.69 25.8015C135.714 24.825 135.165 23.5007 135.165 22.1198C135.165 20.7389 135.714 19.4146 136.69 18.4381C137.667 17.4617 138.991 16.9132 140.372 16.9132H140.548V13.9815H140.372C139.668 14.0149 138.965 13.9052 138.305 13.6589C137.645 13.4126 137.042 13.0349 136.532 12.5487C136.022 12.0624 135.616 11.4778 135.339 10.8301C135.061 10.1824 134.918 9.48522 134.918 8.78068C134.918 8.07613 135.061 7.37891 135.339 6.73124C135.616 6.08357 136.022 5.49892 136.532 5.01269C137.042 4.52646 137.645 4.14877 138.305 3.90248C138.965 3.6562 139.668 3.54645 140.372 3.57988H140.548V1H1V3.56815H1.10554C1.80929 3.53472 2.51252 3.64447 3.17262 3.89076C3.83272 4.13704 4.43596 4.51473 4.94583 5.00096C5.4557 5.48719 5.8616 6.07184 6.13892 6.71951C6.41624 7.36718 6.55924 8.0644 6.55924 8.76895C6.55924 9.4735 6.41624 10.1707 6.13892 10.8184C5.8616 11.4661 5.4557 12.0507 4.94583 12.5369C4.43596 13.0232 3.83272 13.4009 3.17262 13.6471C2.51252 13.8934 1.80929 14.0032 1.10554 13.9697H1V16.9249H1.10554C2.48643 16.9249 3.81077 17.4734 4.78721 18.4499C5.76364 19.4263 6.3122 20.7506 6.3122 22.1315C6.3122 23.5124 5.76364 24.8368 4.78721 25.8132C3.81077 26.7896 2.48643 27.3382 1.10554 27.3382H1V30.2933H1.10554C2.48643 30.2933 3.81077 30.8419 4.78721 31.8183C5.76364 32.7948 6.3122 34.1191 6.3122 35.5C6.3122 36.8809 5.76364 38.2052 4.78721 39.1817C3.81077 40.1581 2.48643 40.7067 1.10554 40.7067H1V43.6383H1.10554C2.48643 43.6383 3.81077 44.1869 4.78721 45.1633C5.76364 46.1398 6.3122 47.4641 6.3122 48.845C6.3122 50.2259 5.76364 51.5502 4.78721 52.5267C3.81077 53.5031 2.48643 54.0517 1.10554 54.0517H1V57.0068H1.10554C1.78928 57.0068 2.46635 57.1415 3.09805 57.4031C3.72976 57.6648 4.30372 58.0483 4.78721 58.5318C5.27069 59.0153 5.65422 59.5893 5.91588 60.221C6.17754 60.8527 6.3122 61.5297 6.3122 62.2135C6.3122 62.8972 6.17754 63.5743 5.91588 64.206C5.65422 64.8377 5.27069 65.4116 4.78721 65.8951C4.30372 66.3786 3.72976 66.7621 3.09805 67.0238C2.46635 67.2854 1.78928 67.4201 1.10554 67.4201H1V70H140.548V67.4201L140.372 67.3849Z" fill="url(#paint0_linear_5257_18284)" stroke="#5F6180" stroke-miterlimit="10"/>
<defs>
<linearGradient id="paint0_linear_5257_18284" x1="70.774" y1="29.632" x2="70.774" y2="70" gradientUnits="userSpaceOnUse">
<stop stop-color="#303656"/>
<stop offset="1" stop-color="#1A1C2B"/>
</linearGradient>
</defs>
</svg>
