<?xml version="1.0" encoding="utf-8"?>
<!-- Generator: Adobe Illustrator 25.4.1, SVG Export Plug-In . SVG Version: 6.00 Build 0)  -->
<svg version="1.1" id="Layer_1" xmlns="http://www.w3.org/2000/svg" xmlns:xlink="http://www.w3.org/1999/xlink" x="0px" y="0px"
	 viewBox="0 0 208.98 236.23" style="enable-background:new 0 0 208.98 236.23;" xml:space="preserve">
<style type="text/css">
	.st0{fill:#EDE1C6;}
	.st1{fill:#791026;}
	.st2{fill:#035130;}
	.st3{fill:#B95B27;}
	.st4{fill:#4A3291;}
	.st5{fill:#010101;}
</style>
<g>
	<path class="st0" d="M192.807,217.202l-0.016-10.237l-23.529-12.545l-4.031-11.134l-14.906-18.819l4.08-3.589l3.101,1.817
		l8.701-7.815l2.752,24.756l9.932-24.299l16.286,28.58l-4.442-40.401l-18.94-20.88l-9.341,7.572l-0.682-0.573l-0.982-16.215
		l-43.585-18.742l-4.285-3.531l18.542,1.762l-20.288-15.1l1.074-1.069l-2.298-37.715L87.831,65.282l-1.906-0.01l0.894-20.26
		L67.823,11.501L70.65,42.52l-2.552,4.417L43.469,33.092L61.903,57.21l-8.408,14.142l-4.772,40.414l-21.182,14.255l14.122,23.628
		l-35.07,25.208l15.248,21.762L4.714,206.862l-0.013,10.493L0.703,228.47l75.593,0.046l21.162-18.132l7.187,0.687l12.765-10.539
		l-1.237-6.21l5.836-5.181l18.219,19.813l0.033,11.739l3.205,8.081l54.871,0.055L192.807,217.202z M77.948,204.931l-17.621-0.044
		l-10.686-20.151l11.297-6.848l21.023,13.347l-2.573,4.667l3.402,4.841L77.948,204.931z M118.686,139.114l-5.234-9.203l8.156,1.57
		L118.686,139.114z M126.231,132.266l11.471,1.832l-10.817,4.754L126.231,132.266z M135.042,156.517l-6.76-2.006l12.343-17.316
		l1.134,13.739L135.042,156.517z"/>
	<polygon class="st1" points="81.152,64.02 81.975,46.097 74.625,33.19 75.555,42.959 	"/>
	<path class="st1" d="M78.114,149.858l32.53,0.002l0.023-26.456l0.023-26.879l-13.316-0.969l7.872,11.138l-18.228-4.204
		l-22.243,24.449l-14.772-7.171l0.34-3.27L34.03,127.472l2.618,4.255l36.297,3.334L78.114,149.858z M77.726,123.404
		c2.465-4.257,7.067-7.129,12.331-7.129c0.421,0,0.836,0.022,1.248,0.058c0.099-0.002,0.196-0.006,0.296-0.006v0.033
		c4.61,0.499,8.565,3.209,10.786,7.044c1.214,2.096,1.913,4.526,1.913,7.118c0,7.854-6.39,14.245-14.243,14.245
		c-7.856,0-14.243-6.391-14.243-14.245C75.813,127.93,76.512,125.5,77.726,123.404z"/>
	<polygon class="st1" points="133.628,130.856 139.738,131.903 154.774,116.071 140.781,110.053 	"/>
	<polygon class="st1" points="119.101,128.355 124.258,102.949 113.412,98.28 113.405,127.349 	"/>
	<polygon class="st1" points="62.079,174.466 80.2,163.992 75.439,150.361 47.735,150.392 38.26,134.483 38.24,134.481 	"/>
	<polygon class="st1" points="98.131,169.599 110.598,169.572 110.612,169.572 110.618,167.21 110.599,167.21 98.151,167.21 	"/>
	<polygon class="st1" points="98.131,174.324 110.596,174.297 110.612,174.297 110.618,171.938 110.597,171.938 98.151,171.936 	"/>
	<polygon class="st1" points="170.202,144.259 170.948,151.936 174.798,152.564 176.736,147.83 176.847,140.135 181.045,149.104 
		183.107,152.963 186.959,151.478 186.231,145.385 178.407,137.239 	"/>
	<path class="st1" d="M85.115,90.261c1.743,0,3.156-1.413,3.156-3.154c0-1.743-1.413-3.156-3.156-3.156s-3.153,1.413-3.153,3.156
		C81.962,88.848,83.372,90.261,85.115,90.261z"/>
	<polygon class="st1" points="67.433,207.44 67.438,207.423 57.027,207.438 51.646,223.713 62.17,223.728 	"/>
	<polygon class="st2" points="160.43,185.086 145.221,165.901 124.143,184.365 131.05,191.896 	"/>
	<polygon class="st2" points="113.151,152.752 113.131,174.932 132.802,158.486 	"/>
	<polygon class="st2" points="46.824,183.343 59.703,175.451 46.002,152.425 13.148,176.053 19.663,185.269 	"/>
	<polygon class="st2" points="183.085,152.963 188.159,162.175 186.97,151.489 	"/>
	<polygon class="st2" points="170.925,151.925 171.775,159.868 174.814,152.567 174.798,152.564 	"/>
	<polygon class="st2" points="79.698,42.099 74.625,33.19 75.555,42.971 	"/>
	<polygon class="st2" points="67.373,52.372 60.078,47.739 65.947,54.767 	"/>
	<polygon class="st3" points="187.983,217.67 187.983,209.855 165.326,197.807 161.612,187.478 132.877,194.011 144.927,207.056 
		144.927,217.685 	"/>
	<polygon class="st3" points="142.496,132.655 144.216,149.883 156.873,156.82 167.617,147.221 166.964,140.511 157.206,132.049 
		156.194,118.361 	"/>
	<polygon class="st3" points="125.449,153.682 137.688,136.823 124.835,142.374 123.667,133.474 118.895,144.551 113.21,134.562 
		113.242,150.061 	"/>
	<polygon class="st3" points="89.169,194.854 101.16,184.869 80.859,166.592 63.639,176.556 85.301,190.347 82.308,195.602 
		91.271,209.321 94.371,206.557 	"/>
	<polygon class="st3" points="106.591,189.843 94.28,199.703 96.789,205.485 102.974,206.126 112.126,198.603 110.922,193.122 	"/>
	<polygon class="st3" points="57.366,204.907 47.32,185.853 21.337,187.735 28.759,198.089 9.636,209.494 9.64,217.796 
		32.411,217.778 36.778,204.858 	"/>
	<path class="st3" d="M75.069,77.384l1.694,5.909l-13.792,31.765l1.427,8.346L86.08,99.629l0.014-0.015l13.16,2.995l-7.099-10.045
		l16.352,1.25l-10.891-8.969l17.115,1.653l-10.882-8.136l3.457-3.522l-1.394-23.45l-15.836,18.8l-7.226-0.253L75.069,77.384z
		 M85.121,81.281c3.208,0,5.81,2.598,5.81,5.805c0,3.205-2.601,5.805-5.81,5.805c-3.205,0-5.803-2.6-5.803-5.805
		C79.318,83.879,81.916,81.281,85.121,81.281z"/>
	<polygon class="st4" points="133.526,123.404 131.227,130.454 133.7,130.884 136.248,123.404 140.796,110.021 138.239,108.921 	"/>
	<polygon class="st4" points="119.101,128.355 121.575,128.796 126.807,104.016 124.265,102.915 	"/>
	<polygon class="st4" points="74.658,148.125 46.367,148.097 47.735,150.392 75.439,150.361 75.5,150.361 74.723,148.094 
		74.712,148.094 74.723,148.125 	"/>
	<polygon class="st4" points="110.427,152.409 99.928,152.408 105.144,159.534 	"/>
	<polygon class="st4" points="82.102,104.012 82.108,104.031 86.11,99.617 86.083,99.613 80.568,98.791 	"/>
	<polygon class="st4" points="75.862,103.169 77.266,109.359 77.269,109.371 82.061,104.086 82.041,104.083 	"/>
	<polygon class="st4" points="69.834,108.635 71.1,116.052 62.971,115.058 62.967,115.058 62.968,115.065 63.318,117.105 
		64.405,123.444 77.226,109.427 77.213,109.425 	"/>
	<path class="st4" d="M93.823,137.815c5.622,0,8.132-2.661,8.146-8.625c-0.055-0.495-0.141-0.98-0.255-1.456
		c-0.38-1.588-1.074-3.056-2.017-4.33c-1.618-2.186-3.96-3.805-6.669-4.499c-0.587-0.15-1.192-0.256-1.809-0.316
		c-3.847,0.104-6.413,1.778-7.493,4.815c-0.383,1.077-0.58,2.324-0.58,3.733C83.144,133.025,87.935,137.815,93.823,137.815z"/>
	<polygon class="st4" points="89.446,152.419 94.642,159.588 99.928,152.408 89.564,152.371 89.446,152.419 89.318,152.36 
		78.904,152.407 84.158,159.564 	"/>
	<polygon class="st4" points="149.81,200.095 142.087,191.907 139.167,192.574 146.833,200.798 	"/>
	<polygon class="st4" points="155.603,198.771 147.887,190.59 144.965,191.253 152.63,199.475 	"/>
	<polygon class="st4" points="161.455,197.44 153.712,189.263 150.832,189.919 158.479,198.143 	"/>
	<polygon class="st4" points="69.778,207.362 67.418,207.377 62.153,223.758 64.457,223.758 	"/>
	<g>
		<polygon class="st4" points="51.645,223.718 54.348,215.559 46.161,218.504 		"/>
		<polygon class="st4" points="48.795,210.356 54.348,215.559 57.027,207.438 		"/>
	</g>
	<polygon class="st4" points="35.786,196.265 29.269,187.137 26.303,187.352 32.744,196.55 	"/>
	<polygon class="st4" points="41.801,195.817 35.317,186.699 32.326,186.915 38.756,196.103 	"/>
	<polygon class="st4" points="47.901,195.37 41.42,186.257 38.43,186.473 44.859,195.656 	"/>
	<polygon class="st4" points="103.878,60.458 95.422,70.355 104.427,70.51 	"/>
	<path class="st5" d="M190.581,217.704l-0.013-9.404l-23.108-12.32l-4.197-11.6l-15.993-20.19l6.874-6.043l3.087,1.808l10.705-9.62
		l2.268,20.382l8.359-20.449l13.231,23.22l-3.192-29.015l-17.044-18.788l-9.139,7.406l-2.813-2.374l-0.953-15.797l-42.619-18.326
		l-10.131-8.352l17.846,1.699L107.77,78.046l2.193-2.175l-1.896-31.165L88.859,67.511l-5.258-0.028l0.969-21.932l-13.6-23.988
		l1.958,21.458l-4.005,6.93l-17.129-9.628l12.791,16.734l-8.936,15.025l-4.837,40.957l-20.281,13.649l14.09,23.573L9.675,175.379
		L25.034,197.3l-18.1,10.823l-0.013,9.622l-3.055,8.504l71.608,0.044l21.257-18.211l7.21,0.689l11.032-9.107l-1.231-6.158
		l8.427-7.477l20.275,22.055l0.036,12.179l2.494,6.289l49.845,0.05L190.581,217.704z M178.407,137.239l7.824,8.147l1.922,16.684
		l-0.052-0.029l-7.056-12.936l-4.197-8.969l-0.111,7.694l-4.961,12.039l-1.573-15.609L178.407,137.239z M171.279,129.239
		l5.425,5.958l-5.868,5.09l-6.469-5.438L171.279,129.239z M156.194,118.361l1.012,13.688l9.759,8.461l0.653,6.71l-10.744,9.599
		l-12.657-6.937l-1.72-17.228L156.194,118.361z M113.412,98.28l41.362,17.791l-15.036,15.831l-26.332-4.553L113.412,98.28z
		 M141.759,150.934l-6.717,5.583l-6.76-2.006l12.343-17.316L141.759,150.934z M137.702,134.098l-10.817,4.754l-0.654-6.586
		L137.702,134.098z M121.608,131.481l-2.922,7.633l-5.234-9.203L121.608,131.481z M118.895,144.551l4.771-11.077l1.168,8.9
		l12.853-5.552l-12.239,16.859l-12.206-3.621l-0.033-15.498L118.895,144.551z M113.151,152.752l19.651,5.734l-19.671,16.446
		L113.151,152.752z M90.076,70.19l15.836-18.801l1.394,23.45l-3.457,3.522l10.882,8.136l-17.115-1.653l10.891,8.969l-16.352-1.25
		l7.099,10.045l-13.16-2.995l-21.696,23.79l-1.432-8.336l0.001-0.003l-0.001-0.007l0.004,0.001l13.792-31.765l-1.694-5.909
		l7.781-7.446L90.076,70.19z M81.975,46.097L81.152,64.02l-5.597-21.062l-0.93-9.769L81.975,46.097z M60.078,47.739l7.294,4.633
		l-1.426,2.396L60.078,47.739z M58.143,72.93l15.744-26.427l6.041,22.679l-8.143,7.435l1.958,6.514l-13.564,30.916l-7.402,4.078
		L58.143,72.93z M36.647,131.726l-2.618-4.255l16.313-10.974l-0.34,3.27l14.772,7.171l22.243-24.449l18.228,4.204l-7.872-11.138
		l13.316,0.969l-0.023,26.879l-0.023,26.456l-32.53-0.002l-5.169-14.798L36.647,131.726z M110.595,177.068l-7.402,6.16
		l-19.906-17.923l-4.374-12.871l-0.013-0.017h0.007l-0.003-0.01l31.701,0.002L110.595,177.068z M38.24,134.481v-0.031l32.684,2.985
		l9.276,26.557l-18.121,10.473L38.24,134.481z M82.789,200.744l-4.841,4.187l-17.621-0.044l-10.686-20.151l11.297-6.848
		l21.023,13.347l-2.573,4.667L82.789,200.744z M19.663,185.269l-6.514-9.216l32.854-23.628l13.701,23.026l-12.879,7.892
		L19.663,185.269z M30.531,223.653l-22.837-0.021l1.191-3.305l22.634,0.02L30.531,223.653z M9.64,217.796l-0.003-8.301L28.76,198.09
		l-7.422-10.354l25.983-1.882l10.046,19.054l-20.588-0.049l-4.367,12.92L9.64,217.796z M74.56,223.713H33.221l5.408-16.27
		l40.252-0.005l5.177-4.403l5.32,8.03L74.56,223.713z M91.271,209.321l-8.963-13.719l2.993-5.255l-21.662-13.791l17.22-9.964
		l20.301,18.277l-11.991,9.985l5.202,11.703L91.271,209.321z M102.974,206.126l-6.185-0.641l-2.51-5.782l12.311-9.86l4.331,3.279
		l1.204,5.481L102.974,206.126z M112.492,191.131l-5.94-4.584L93.15,197.312l-0.796-1.776l13.01-10.738l38.369-32.246l7.899,4.346
		L112.492,191.131z M131.05,191.896l-6.906-7.531l21.078-18.463l15.209,19.185L131.05,191.896z M144.927,217.685v-10.629
		l-12.05-13.046l28.734-6.533l3.715,10.328l22.657,12.048v7.815L144.927,217.685z M145.11,220.279l44.074-0.008l1.769,3.703h-44.286
		L145.11,220.279z"/>
	<path class="st5" d="M90.056,144.767c7.853,0,14.243-6.391,14.243-14.245c0-2.592-0.699-5.022-1.913-7.118
		c-2.221-3.835-6.176-6.544-10.786-7.044v-0.033c-0.1,0-0.197,0.004-0.296,0.006c-0.412-0.036-0.827-0.058-1.248-0.058
		c-5.264,0-9.865,2.872-12.331,7.129c-1.214,2.096-1.913,4.526-1.913,7.118C75.813,138.376,82.2,144.767,90.056,144.767z
		 M83.724,123.404c1.08-3.036,3.647-4.711,7.493-4.815c0.618,0.06,1.222,0.166,1.809,0.316c2.71,0.693,5.052,2.313,6.669,4.499
		c0.943,1.274,1.637,2.741,2.017,4.33c0.114,0.475,0.2,0.961,0.255,1.456c-0.014,5.964-2.524,8.625-8.146,8.625
		c-5.888,0-10.679-4.79-10.679-10.678C83.144,125.727,83.341,124.481,83.724,123.404z M80.414,123.404
		c0.478-0.645,1.018-1.241,1.613-1.778c-0.267,0.553-0.485,1.148-0.66,1.778c-0.312,1.128-0.476,2.375-0.476,3.733
		c0,7.132,5.8,12.933,12.931,12.933c1.565,0,2.962-0.198,4.186-0.588c-2.118,1.881-4.902,3.028-7.952,3.028
		c-6.612,0-11.991-5.379-11.991-11.988C78.065,127.859,78.939,125.396,80.414,123.404z"/>
	<polygon class="st5" points="69.958,80.54 61.899,77.844 60.767,80.84 68.704,83.429 	"/>
	<polygon class="st5" points="71.629,55.149 63.372,69.079 68.059,69.079 	"/>
	<path class="st5" d="M59.168,109.829c-0.64,0-1.152,0.514-1.152,1.15c0,0.637,0.512,1.151,1.152,1.151
		c0.633,0,1.149-0.514,1.149-1.151C60.317,110.344,59.801,109.829,59.168,109.829z"/>
	<path class="st5" d="M59.709,108.334c0.633,0,1.149-0.515,1.149-1.15c0-0.634-0.516-1.152-1.149-1.152
		c-0.636,0-1.155,0.517-1.155,1.152S59.073,108.334,59.709,108.334z"/>
	<path class="st5" d="M60.251,104.537c0.634,0,1.149-0.514,1.149-1.151s-0.516-1.15-1.149-1.15c-0.64,0-1.152,0.514-1.152,1.15
		C59.099,104.023,59.611,104.537,60.251,104.537z"/>
	<path class="st5" d="M55.94,111.502c-0.636,0-1.152,0.516-1.152,1.15c0,0.637,0.516,1.152,1.152,1.152s1.152-0.515,1.152-1.152
		C57.092,112.018,56.576,111.502,55.94,111.502z"/>
	<path class="st5" d="M56.485,107.706c-0.637,0-1.155,0.514-1.155,1.151c0,0.635,0.519,1.149,1.155,1.149
		c0.633,0,1.149-0.514,1.149-1.149C57.634,108.22,57.118,107.706,56.485,107.706z"/>
	<path class="st5" d="M57.023,103.909c-0.636,0-1.149,0.516-1.149,1.151c0,0.636,0.513,1.152,1.149,1.152
		c0.636,0,1.152-0.516,1.152-1.152C58.175,104.424,57.66,103.909,57.023,103.909z"/>
	<path class="st5" d="M79.318,87.085c0,3.205,2.598,5.805,5.803,5.805c3.208,0,5.81-2.6,5.81-5.805c0-3.207-2.601-5.805-5.81-5.805
		C81.916,81.281,79.318,83.879,79.318,87.085z M85.115,83.951c1.743,0,3.156,1.413,3.156,3.156c0,1.741-1.413,3.154-3.156,3.154
		s-3.153-1.413-3.153-3.154C81.962,85.364,83.372,83.951,85.115,83.951z"/>
	<path class="st5" d="M205.954,224.68c0-0.742-0.598-1.339-1.337-1.339l-1.9-0.001v4.503h0.848v-1.832h0.604l0.854,1.832h0.931
		l-0.888-1.906C205.584,225.75,205.954,225.259,205.954,224.68z M204.617,225.168h-1.052v-0.983h1.052
		c0.272,0,0.492,0.22,0.492,0.495C205.109,224.948,204.889,225.168,204.617,225.168z"/>
	<path class="st5" d="M204.336,221.652c-2.174,0-3.94,1.764-3.94,3.941c0,2.175,1.766,3.94,3.94,3.94c2.177,0,3.94-1.765,3.94-3.94
		C208.277,223.416,206.513,221.652,204.336,221.652z M204.336,228.689c-1.709,0-3.096-1.387-3.096-3.096
		c0-1.712,1.387-3.096,3.096-3.096c1.712,0,3.096,1.385,3.096,3.096C207.433,227.302,206.048,228.689,204.336,228.689z"/>
</g>
</svg>
