<?xml version="1.0" encoding="utf-8"?>
<!-- Generator: Adobe Illustrator 19.1.0, SVG Export Plug-In . SVG Version: 6.00 Build 0)  -->
<svg version="1.1" id="Layer_1" xmlns="http://www.w3.org/2000/svg" xmlns:xlink="http://www.w3.org/1999/xlink" x="0px" y="0px"
	 viewBox="0 0 37.089 37.09" style="enable-background:new 0 0 37.089 37.09;" xml:space="preserve">
<style type="text/css">
	.st0{fill:#231F20;}
	.st1{fill:#FFFFFF;}
	.st2{fill:#E4E5E6;}
	.st3{fill:url(#SVGID_1_);}
	.st4{fill:url(#SVGID_2_);}
	.st5{fill:url(#SVGID_3_);}
	.st6{fill:url(#SVGID_4_);}
	.st7{fill:url(#SVGID_5_);}
	.st8{fill:url(#SVGID_6_);}
	.st9{fill:url(#SVGID_7_);}
	.st10{fill:url(#SVGID_8_);}
	.st11{fill:#E5E6E6;}
	.st12{fill:#959CA1;}
	.st13{fill:#003E7E;}
	.st14{fill:#E4E5E5;}
	.st15{fill:#91989D;}
	.st16{fill:#C20828;}
	.st17{display:none;fill:#231F20;}
	.st18{display:none;}
	.st19{fill:#AFB4B8;}
	.st20{fill:#B29453;}
	.st21{fill:#F47829;}
	.st22{fill:#EFE3C6;}
	.st23{fill:#98012E;}
	.st24{fill:#FDB541;}
	.st25{fill:#E2001C;}
	.st26{display:inline;}
	.st27{fill:none;}
	.st28{fill:#F5BD47;}
	.st29{fill:#CF0A2C;}
	.st30{fill:#EB6E1F;}
	.st31{fill:#AEB3B8;}
	.st32{fill:#F3880B;}
	.st33{fill:#006D80;}
	.st34{fill:#ABADB0;}
	.st35{fill:#00397A;}
	.st36{fill:#002751;}
	.st37{fill:#FFDE00;}
	.st38{fill:#E8A713;}
	.st39{fill:#F58426;}
	.st40{fill:#E51937;}
	.st41{fill:#008752;}
	.st42{fill:#19388A;}
	.st43{fill:#ABB1B5;}
	.st44{fill:#00488C;}
	.st45{fill:#7C0027;}
	.st46{fill:#00704A;}
	.st47{fill:#A7A9AC;}
	.st48{fill:#EEE2C4;}
	.st49{fill:#EFB006;}
	.st50{fill:#004928;}
	.st51{fill:#FDBA31;}
	.st52{fill:#002D62;}
	.st53{fill:#FDB31B;}
	.st54{fill:#003F90;}
	.st55{fill:#001651;}
	.st56{fill:#8D8D8E;}
	.st57{fill:#7A2F3E;}
	.st58{fill:#555559;}
	.st59{fill:#A81E2D;}
	.st60{fill:#FDB41F;}
	.st61{fill:#B2B7BB;}
	.st62{fill:#E41937;}
	.st63{fill:#E30526;}
	.st64{fill:#D5A00F;}
	.st65{fill:#00327C;}
	.st66{fill:#D29A00;}
	.st67{fill:#E30B2B;}
	.st68{fill:#003A7B;}
	.st69{fill:#A2A6AA;}
	.st70{fill:#CF202D;}
	.st71{fill:#E4102F;}
	.st72{fill:#0056A8;}
	.st73{fill:#004B97;}
	.st74{fill:#F26B25;}
	.st75{fill:#E5D7A6;}
	.st76{display:inline;fill:#FFFFFF;}
	.st77{fill:#E20021;}
</style>
<rect x="-14.579" y="-4.16" class="st18" width="64.7" height="45.07"/>
<g id="Bruins_On_Dark">
	<g>
		<path class="st1" d="M16.707,28.826h-5.846l-1.687,1.688c2.128,1.668,4.711,2.781,7.533,3.122V28.826z"/>
		<path class="st1" d="M23.48,28.826h-3.098v4.81c2.822-0.341,5.405-1.454,7.533-3.122l-3.043-3.043L23.48,28.826z"/>
		<path class="st1" d="M11.298,23.194v-2.812H3.454c0.34,2.822,1.453,5.406,3.121,7.534L11.298,23.194z"/>
		<path class="st1" d="M11.298,13.896L6.576,9.174c-1.668,2.129-2.781,4.711-3.121,7.534h7.844V13.896z"/>
		<path class="st1" d="M24.872,9.619l3.043-3.043c-2.128-1.669-4.711-2.781-7.533-3.121v4.809h3.098L24.872,9.619z"/>
		<path class="st1" d="M27.073,20.382v4.094l3.44,3.44c1.669-2.128,2.781-4.712,3.123-7.534H27.073z"/>
		<path class="st1" d="M16.707,8.264V3.455c-2.822,0.339-5.404,1.452-7.533,3.121l1.687,1.688H16.707z"/>
		<path class="st1" d="M27.073,16.708h6.562c-0.341-2.823-1.454-5.405-3.123-7.534l-3.44,3.44V16.708z"/>
		<polygon class="st1" points="21.281,15.382 21.281,14.188 20.867,13.786 16.892,13.786 16.892,15.784 20.867,15.784 		"/>
		<polygon class="st1" points="21.281,22.902 21.281,21.708 20.867,21.306 16.892,21.306 16.892,23.304 20.867,23.304 		"/>
		<path class="st1" d="M32.796,33.75c0.527,0,0.954-0.426,0.954-0.953c0-0.526-0.426-0.952-0.954-0.952
			c-0.526,0-0.953,0.426-0.953,0.952C31.843,33.324,32.27,33.75,32.796,33.75z M32.796,32.048c0.415,0,0.75,0.335,0.75,0.748
			c0,0.413-0.335,0.749-0.75,0.749c-0.413,0-0.748-0.336-0.748-0.749C32.048,32.383,32.383,32.048,32.796,32.048z"/>
		<path class="st1" d="M32.609,32.899h0.147l0.206,0.443h0.226l-0.215-0.462c0.125-0.044,0.215-0.164,0.215-0.304
			c0-0.178-0.145-0.323-0.323-0.323l-0.46,0v1.09h0.204V32.899z M32.609,32.457h0.256c0.065,0,0.118,0.053,0.118,0.119
			c0,0.066-0.053,0.118-0.118,0.118h-0.256V32.457z"/>
	</g>
	<g>
		<path class="st60" d="M18.545,37.09c10.242,0,18.545-8.302,18.545-18.545C37.089,8.303,28.786,0,18.545,0
			C8.303,0,0,8.303,0,18.545C0,28.787,8.303,37.09,18.545,37.09z M18.545,0.689c9.861,0,17.856,7.995,17.856,17.856
			c0,9.862-7.995,17.856-17.856,17.856c-9.861,0-17.856-7.994-17.856-17.856C0.688,8.684,8.683,0.689,18.545,0.689z"/>
		<path class="st60" d="M29.981,8.532c-0.442-0.505-0.919-0.981-1.425-1.424l-3.089,3.09l1.444,1.404L29.981,8.532z"/>
		<path class="st60" d="M19.551,3.377c-0.333-0.022-0.668-0.037-1.006-0.037c-0.339,0-0.674,0.015-1.008,0.037v4.887h2.014V3.377z"
			/>
		<path class="st60" d="M10.016,8.592L8.532,7.108C8.025,7.551,7.55,8.027,7.108,8.532l2.908,2.909V8.592z"/>
		<path class="st60" d="M8.532,29.982l1.483-1.484V25.65l-2.907,2.908C7.55,29.063,8.026,29.539,8.532,29.982z"/>
		<path class="st60" d="M11.298,17.538H3.377c-0.022,0.333-0.037,0.668-0.037,1.007c0,0.339,0.016,0.675,0.037,1.007h7.921V17.538z"
			/>
		<path class="st60" d="M26.031,18.545l1.035,1.007h6.647c0.021-0.333,0.036-0.669,0.036-1.007c0-0.339-0.015-0.674-0.036-1.007
			h-6.647L26.031,18.545z"/>
		<path class="st60" d="M25.467,26.892l3.089,3.09c0.506-0.443,0.981-0.919,1.425-1.424l-3.07-3.07L25.467,26.892z"/>
		<path class="st60" d="M17.537,33.712c0.334,0.022,0.669,0.037,1.008,0.037c0.339,0,0.673-0.016,1.006-0.037v-4.886h-2.014V33.712z
			"/>
		<path class="st60" d="M22.705,23.503v-2.396l-1.26-1.225h-5.976v4.846h5.976L22.705,23.503z M16.114,24.084v-3.558h5.071
			l0.877,0.853v1.852l-0.877,0.853H16.114z"/>
		<path class="st60" d="M22.705,15.982v-2.395l-1.26-1.226h-5.976v4.846h5.976L22.705,15.982z M16.114,16.564v-3.558h5.071
			l0.877,0.854v1.852l-0.877,0.853H16.114z"/>
		<path class="st60" d="M12.077,24.015l-1.282,1.247v2.785h12.368L26.294,25v-5.11l-1.382-1.345l1.382-1.344V12.09l-3.13-3.046
			H10.796v2.785l1.282,1.247V24.015z M11.439,11.556V9.688h11.463l2.748,2.674v4.567l-1.661,1.616l1.661,1.617v4.567l-2.748,2.675
			H11.439v-1.87l1.282-1.246V12.803L11.439,11.556z"/>
	</g>
	<g>
		<path d="M18.545,36.4c9.861,0,17.856-7.994,17.856-17.856c0-9.861-7.995-17.856-17.856-17.856
			c-9.861,0-17.856,7.995-17.856,17.856C0.688,28.406,8.683,36.4,18.545,36.4z M7.108,28.558l2.907-2.908v2.849l-1.483,1.484
			C8.026,29.539,7.55,29.063,7.108,28.558z M10.796,11.828V9.044h12.368l3.13,3.046V17.2l-1.382,1.344l1.382,1.345V25l-3.13,3.046
			H10.796v-2.785l1.282-1.247V13.076L10.796,11.828z M9.174,30.514l1.687-1.688h5.846v4.81
			C13.885,33.295,11.302,32.182,9.174,30.514z M18.545,33.749c-0.339,0-0.674-0.016-1.008-0.037v-4.886h2.014v4.886
			C19.218,33.734,18.883,33.749,18.545,33.749z M20.382,33.636v-4.81h3.098l1.392-1.355l3.043,3.043
			C25.787,32.182,23.204,33.295,20.382,33.636z M28.557,29.982l-3.089-3.09l1.444-1.404l3.07,3.07
			C29.538,29.063,29.063,29.539,28.557,29.982z M30.513,27.916l-3.44-3.44v-4.094h6.562C33.294,23.204,32.181,25.788,30.513,27.916z
			 M33.749,18.545c0,0.339-0.015,0.675-0.036,1.007h-6.647l-1.035-1.007l1.035-1.007h6.647
			C33.734,17.871,33.749,18.206,33.749,18.545z M33.635,16.708h-6.562v-4.094l3.44-3.44C32.181,11.302,33.294,13.885,33.635,16.708z
			 M29.981,8.532l-3.07,3.07l-1.444-1.404l3.089-3.09C29.063,7.551,29.539,8.027,29.981,8.532z M27.915,6.576l-3.043,3.043
			L23.48,8.264h-3.098V3.455C23.204,3.795,25.787,4.907,27.915,6.576z M18.545,3.341c0.339,0,0.673,0.015,1.006,0.037v4.887h-2.014
			V3.377C17.871,3.355,18.206,3.341,18.545,3.341z M16.707,3.455v4.809h-5.845L9.174,6.576C11.302,4.907,13.885,3.795,16.707,3.455z
			 M8.532,7.108l1.484,1.484v2.849L7.108,8.532C7.55,8.027,8.025,7.551,8.532,7.108z M6.576,9.174l4.722,4.722v2.812H3.454
			C3.794,13.885,4.907,11.302,6.576,9.174z M3.34,18.545c0-0.339,0.016-0.674,0.037-1.007h7.921v2.014H3.377
			C3.355,19.219,3.34,18.883,3.34,18.545z M11.298,20.382v2.812l-4.722,4.722c-1.668-2.128-2.781-4.712-3.121-7.534H11.298z"/>
		<path d="M22.061,13.859l-0.877-0.854h-5.071v3.558h5.071l0.877-0.853V13.859z M21.281,15.382l-0.414,0.403h-3.975v-1.999h3.975
			l0.414,0.402V15.382z"/>
		<path d="M22.061,21.379l-0.877-0.853h-5.071v3.558h5.071l0.877-0.853V21.379z M21.281,22.902l-0.414,0.402h-3.975v-1.999h3.975
			l0.414,0.403V22.902z"/>
		<path d="M11.439,25.533v1.87h11.463l2.748-2.675v-4.567l-1.661-1.617l1.661-1.616v-4.567l-2.748-2.674H11.439v1.869l1.282,1.247
			v11.484L11.439,25.533z M15.469,12.362h5.976l1.26,1.226v2.395l-1.26,1.226h-5.976V12.362z M15.469,19.882h5.976l1.26,1.225v2.396
			l-1.26,1.225h-5.976V19.882z"/>
	</g>
</g>
</svg>
