<svg id="Layer_1" data-name="Layer 1" xmlns="http://www.w3.org/2000/svg" viewBox="0 0 271.5 230.59"><defs><style>.cls-1{fill:#fff;}.cls-2{fill:#f3bd48;}.cls-3{fill:#ce0e2d;}</style></defs><path class="cls-1" d="M305.23,100.93c-14.51-18.28-38-28.76-64.32-28.76-20.39,0-38.19,8.73-52.5,15.74-9,4.42-16.79,8.23-22.49,8.49-3.41.16-9.07-5.54-12-9.63l-1.79-2.51-2.46,1.85c-5.36,4-6.38,9.81-5.75,14.86a47.4,47.4,0,0,0-23.35-4.64c-12.4,1.2-19.93,6.54-24.06,10.8a30.2,30.2,0,0,0-5.62,8c-11,4.34-16,10.11-17.33,11.88-6.48,4.55-10.2,4.38-10.15,4.39l-4.05-.48.73,4C62.25,146.72,71,151.46,78,152.88c-8,8.22-23.87,9.83-24.05,9.84l-4.86.45,2.58,4.15c8.42,13.47,27,13.22,29.54,13.11a26.88,26.88,0,0,0,7.55-.53,49.91,49.91,0,0,0-4,10,43.63,43.63,0,0,1-3.22,8.34l-.09.17c-.74,1.52-2.87,2.76-4.93,4a31.3,31.3,0,0,0-3.42,2.21l-3.71,2.94,4.23,2.12a41.06,41.06,0,0,0,7.75,3,116.06,116.06,0,0,0,2.63,15.8,29.43,29.43,0,0,0-12-.18l-4.76,1,3,3.79c5.94,7.4,6.58,12.84,7.31,19.14.51,4.32,1,8.8,3.28,14.05,2.28,7.46,9,13.17,14.23,16.66l.43.24a28.44,28.44,0,0,0,15.65,2.53,47.4,47.4,0,0,1-7.71,4l-4,1.61,2.93,3.21c4.36,4.77,14.16,7.81,19.57,8.17.67,0,1.31.06,2,.06,10,0,15.91-5.32,21.13-10.05,5.86-5.3,10.91-9.88,21.42-8.8,4.9.5,9.74,2.5,15.34,4.81,8.77,3.62,18.72,7.72,32.57,7.72,32.16,0,55.42-17.83,69.26-32.8,15.42-16.65,27-38.67,29.52-56.08l.5-3.44H245.13l-.65,2.13c-.07.23-7.24,23.06-23.5,23.06-6.75,0-22.45-2.78-22.45-28.52,0-21.52,18.17-62.66,46.66-62.66,3.86,0,6.65,1.27,8.52,3.9,3.34,4.68,3.44,13.69.25,22.94l-1.37,4h65.08l.55-2.33C323.94,142,319.33,118.7,305.23,100.93ZM121.16,213.64A19.09,19.09,0,0,1,107,214.83l-.22-.06c-3.15-.64-5-2.25-7.3-4.94a29.31,29.31,0,0,0,3.2-3.07,21.23,21.23,0,0,1,2.76-2.61c.7-.07,1.39.39,3.46,2.23a28.62,28.62,0,0,0,10.73,6.56C120.18,213.21,120.69,213.44,121.16,213.64Z" transform="translate(-49.12 -72.17)"/><path class="cls-2" d="M315.28,166c11.86-50.9-23-90.77-74.37-90.77-32.75,0-59,23.52-74.85,24.22-6.62.3-14.58-10.88-14.58-10.88-9,6.72-2.4,19-2.4,19a44.41,44.41,0,0,0-28.21-8.24c-22.25,2.16-27.69,18.18-27.69,18.18-13,4.8-17.46,11.69-17.46,11.69-8,5.76-12.66,5.21-12.66,5.21,3,16.74,20.51,15.93,20.51,15.93-6.89,13.3-29.31,15.38-29.31,15.38,8,12.81,27.06,11.69,27.06,11.69,6.52.7,15.39-2.82,19.76-4.8a23.42,23.42,0,0,0-4.29,2.73c-8.41,5.92-8.22,16.72-12.56,24.4-1.67,3.45-6.51,5.11-9.19,7.22a35.3,35.3,0,0,0,9.32,3.22c-.07,5.36,2.52,18.35,4.25,23.54-6.25-4.65-15.93-2.55-15.93-2.55,10.73,13.36,5.68,21.61,11.07,34,1.82,6.15,7.43,11.43,13.07,15.18,14.62,6.59,24.71-2.06,24.71-2.06-1.68,8.09-16.89,14.17-16.89,14.17,3.56,3.9,12.31,6.84,17.54,7.19,20.65,1.36,21.71-21.12,44.61-18.78,13.28,1.36,25.45,12.52,47.6,12.52,55.44,0,91.44-56.11,95.8-86.3H247.36s-7.71,25.19-26.38,25.19c-19.34,0-25.46-16.58-25.46-31.53,0-22.73,18.87-65.67,49.67-65.67,14.52,0,16.75,15.92,11.62,30.83ZM106.19,217.72c-5.06-1-7.59-4.12-10.77-8.14L95,208.9c3.74-1.22,5.91-5.49,9.18-7.55,5.15-1.59,6.75,5.69,16.57,8.8,2.8,1.4,4.47,1.64,7.37,3C121.37,217.46,115.07,220.25,106.19,217.72Z" transform="translate(-49.12 -72.17)"/><path class="cls-3" d="M125.7,134c-3.45-.56-7.47-2.23-11.48-1.22-7.12,1-11.69,8-18.59,9.35-7.69,2.89-19,3.34-25.06-3.57,0-.33-.55-.55-.44-.89,9.8-1.11,14.92-12.13,24.5-13.92,11.47-4.23,23.16.89,30.51,9.47C125.14,133.55,125.58,133.67,125.7,134Z" transform="translate(-49.12 -72.17)"/><path class="cls-3" d="M104.32,258.83c11.8,6.79,20.59-6.35,32.62-1.9v.45c-9.35,3.45-13.47,13.7-22,18.15a17.78,17.78,0,0,1-15-.23c-10.46-5.67-13.58-18.25-14.14-29.84-.44-2.78-1.67-5.22-2.56-7.9C93.74,241,93.85,255.37,104.32,258.83Z" transform="translate(-49.12 -72.17)"/><path class="cls-3" d="M309.91,159.6c8.23-36.71-18.84-78.09-68.92-78.33-30.56-.15-55.72,24.3-75.61,24.3-5,0-9.31-3.08-12.29-6.87.89,10.92,11,20,20.71,23.72-4.9.33-9.13-1.56-13.47-2.56-13-3.57-22.28-16-37.2-14.82-10.46-.33-19.71,6-24.83,14.71a18.35,18.35,0,0,1,8.8-4.46c7.68-1.34,14.36,2.11,19.37,7.35,6.24,9.91,13.14,19.49,23.39,26.39-7.35,0-13.81-2.78-20.26-5-13.26-3.8-29-2.13-39,7.34-5.12,8.35-13.69,15.15-23.15,17.15v.34l2.78,1.22c10.91,4.68,22.94.11,32.07-5.57,6.35-2,13.92-.89,18.37,4.12,3.12,5.34,8.92,10.69,14,14.58-1.34.56-2.67-.55-4.23-.55-8.79-4.34-22-10.24-30.95-2.11-8.35,6.34-4.12,18.59-13,24.6,6.24.56,9.81-4,13.37-8.46,8.91-6.57,14.59,5.24,21.71,8,7.58,3.67,17.6,2.45,23.06,10.24-5.8,1.11-11.7,2.12-16.71,5.13-7.68,4.78-18.93,5.57-27.28,1.55-4.34-2.34-7.35-5.57-10.24-9.58a.63.63,0,0,1-.12.45C90.84,229,97,246.91,114,252.7c11.58,5.34,24.05-3.34,35.41,2.23a24.41,24.41,0,0,0-15.14,9.8c-5.9,7.68-5.79,18.26-13.14,24.83-1.34,1.22-3.34,1.89-4.67,2.89a15.13,15.13,0,0,0,4.56,1.23c8.13,1.34,15-3.9,19.59-10,6.58-6.34,16.55-10.21,24.51-9.68,16,1.08,28,12.74,49.2,12.81,42.19.16,79.44-40,87.35-73H251.89s-9.06,25.22-31,25.22c-27.35,0-32.13-25.55-32.13-38.24,0-29.78,23.36-72.37,56.36-72.37,15.66,0,24.88,16,19.78,31.22Z" transform="translate(-49.12 -72.17)"/><path class="cls-1" d="M159,294a5.53,5.53,0,1,1,5.55,5.69A5.51,5.51,0,0,1,159,294Zm5.55,6.82a6.8,6.8,0,1,0-6.91-6.82A6.79,6.79,0,0,0,164.55,300.83Zm-1.44-6.28h1.36l2.07,3.4h1.33l-2.23-3.46a2,2,0,0,0,2-2.16c0-1.54-.92-2.23-2.77-2.23h-3V298h1.19Zm0-1v-2.43h1.62c.83,0,1.71.18,1.71,1.16,0,1.2-.9,1.27-1.91,1.27Z" transform="translate(-49.12 -72.17)"/></svg>