<?xml version="1.0" encoding="utf-8"?>
<!-- Generator: Adobe Illustrator 23.0.2, SVG Export Plug-In . SVG Version: 6.00 Build 0)  -->
<svg version="1.1" id="Layer_1" xmlns="http://www.w3.org/2000/svg" xmlns:xlink="http://www.w3.org/1999/xlink" x="0px" y="0px"
	 viewBox="0 0 232.5 202.1" style="enable-background:new 0 0 232.5 202.1;" xml:space="preserve">
<style type="text/css">
	.st0{fill:#FFFFFF;}
	.st1{fill:#FFD100;}
	.st2{fill:#CF8A00;}
	.st3{fill:#FF671D;}
	.st4{fill:#CE0E2D;}
	.st5{fill:#00833E;}
	.st6{fill:#001A70;}
</style>
<g>
	<g>
		<path class="st0" d="M38.3,72c-0.7,2.6-0.2,5.7,0,6.5c8.3-0.5,11.6-2,11.6-2L38.3,72z"/>
		<path class="st0" d="M27.3,143.5c-0.9,0.5,1.1,5.2,0.4,8.6c0.5,1.6,2.8,7.2,6.7,5.3c3.9-2,0.6-7.2-0.3-8.5
			C30.9,147.4,28.2,143,27.3,143.5z"/>
		<path class="st0" d="M59.6,86.4c-3.2,0.8-6.1,4-11.9,5.6c-2.1,0.6-3.9,0.7-5,0.7c0.9,1.2,3.7,1.8,3.7,1.8s-2.1,2-2.3,3.4
			c1-0.5,2.6-1.3,4.7-1.9c5.8-1.5,9.9-0.2,13.1-1c1.5-0.4,4.3-1.2,3.1-5.4C63.9,85.3,61.1,86,59.6,86.4z"/>
		<path class="st0" d="M139.5,68.3c-0.4-0.2-0.8,0-1,0.3c-2.7,5.4-5.1,10.6-7.2,15.3l-8.4,3.7c-0.5,0.7-0.9,1.5-1.3,2.2l8.9-3.9
			c-2.3,5.4-4.2,10.4-5.8,14.7l-11.2,4.5c-0.3,0.7-0.6,1.3-0.8,1.9l11.3-4.6c-3.5,9.9-4.9,16-4.9,16.1c-0.1,0.4,0.2,0.8,0.5,0.9
			c0.4,0.1,0.8-0.1,0.9-0.5c0-0.1,1.4-5.9,4.7-15.5l6,10.1l1-1c0,0,0,0,0-0.1l-6.4-10.9c1.4-3.9,3.1-8.4,5.2-13.3l4.6,8
			c0.2-0.7,0.3-1.3,0.5-2l-4.4-7.6c2.3-5.3,4.9-11.1,8-17.3C140,68.9,139.9,68.4,139.5,68.3z"/>
		<path class="st0" d="M213.5,90.7c-11.2-18-34.9-39.3-40.3-44.1c-0.3,0.6-0.8,1.1-1.2,1.6c3.4,9.7,16.6,45.9,28.8,65.4
			c11.9,19.2,23.5,18.2,23.5,18.2S228.2,114.4,213.5,90.7z M220.5,109l-9.8-1.8l-11.6-18.6l13.9,4.1
			C216.6,98.6,218.9,104.1,220.5,109z M211.9,90.9L198,86.8l-10.7-17.2L197,72C202.6,78.1,208,84.7,211.9,90.9z M173.8,49.1
			c4.2,3.8,12.9,11.8,21.4,20.9l-9-2.2l-5.8-9.3c-0.2-0.3-0.6-0.4-1-0.2c-0.3,0.2-0.4,0.6-0.2,1l6,9.7l-1.2,6.8
			C179.4,64.6,175.7,54.4,173.8,49.1z M185.1,78.3l1.4-7.4L197,87.8l-3.5,9.4C190.5,91,187.7,84.5,185.1,78.3z M202,113
			c-2.5-4.1-5.1-8.9-7.7-14l3.5-9.6l11.6,18.6l-3.6,10.6C204.6,116.9,203.3,115.1,202,113z M223.1,130.4c-2.5-0.3-8.9-2-16.1-10.6
			l3.5-10.4l5.5,8.8c0.2,0.3,0.6,0.4,1,0.2c0.3-0.2,0.4-0.7,0.2-1l-5.4-8.7l9.2,1.7C223.9,120.5,223.4,127.7,223.1,130.4z"/>
	</g>
	<g>
		<path class="st1" d="M142.1,47.7c2.1,0,1.8-2.8-0.1-2.8c-29.5,0-46.4,3.7-49,4.4c-1.6-14.5-9.9-19.1-9.9-28.4
			c0-3.6,2.4-4.4,4.4-4.4c6.9,0,12.1,8.1,21.6,8.1c8.9,0,10.8-6.3,15.9-6.3c7.6,0,4.3,20.2,17.8,20.2c4.3,0,7.1-1.7,7.1-1.7
			c1.8-1,0.1-3.2-1.5-2.4c0,0-2.7,1.4-5.4,1.4c-11.4,0-6.4-20.3-18.3-20.3c-5.7,0-7.6,6.3-15.8,6.3c-9.1,0-12.8-8.2-21.8-8.2
			c-5.1,0-7,3.4-7,6.9c0,10.4,10.2,18.2,10.2,32.4c0,14.4-4.9,27.1-4.9,47.2c0,23.4,22.2,30.3,22.2,52.1c0,12.3,4.7,20,10,20
			c2.9,0,5.6-1.7,6.9-6.2c0.8,0.3,1.5,0.5,2.1,0.5c1.5,0,7-1.6,7-8.1c0-18.6-31.9-28.2-31.9-57.3c0-14,2.2-36.4,5.7-36.4
			c1.8,0,4,7.8,8.4,7.8c5.3,0,3.5-15.5,5.8-15.5c1.9,0,4.7,7.2,8.1,7.2c2.7,0,3.7-5.6,4.9-10c0.4-2-2.5-2.6-2.9-0.5
			c-0.7,3.3-2.3,7.6-2.3,7.6c-1.7-1.7-4.5-7-8-7c-5.4,0-4.6,15.4-5.8,15.4c-2.3,0-3.7-8-8.6-8c-6.4,0-8.2,22.1-8.2,39.5
			c0,30.6,32,40.9,32,56.9c0,4-2.9,5.4-4.1,5.4c-0.5,0-1-0.1-1.5-0.3c0.1-1.1,0.2-2.3,0.2-3.7c0-9.5-5.2-11.2-7.3-11.2
			c-2.1,0-3.3,1.8-3.3,4.9c0,4.1,3.6,8.6,7.1,11.2c-0.5,2.5-1.6,4.9-4,4.9c-4.6,0-7.2-10.7-7.2-17c0-23-22.2-29.7-22.2-52.7
			c0-19.6,4.9-32.1,4.9-45.2c0-0.8,0-1.6-0.1-2.3C96.3,51.4,115.3,47.1,142.1,47.7z M117.7,153.3c0-1.6,0.4-2.2,0.8-2.2
			c2.6,0,3.8,5.2,3.8,7.3c0,0.6,0,1.6-0.1,2.8C119.7,158.8,117.7,155.1,117.7,153.3z"/>
		<path class="st1" d="M157,55c0,0-16.8,35.4-16.8,76.6c0,27.3,8.5,48.2,10.8,48.2c1.8,0,10.5-13,10.5-40.1
			C161.5,128.7,155.5,87.1,157,55z M149.8,78.8c0.3-1.1,1.8-1.4,1.6,0.5c-1.1,9.5-1.9,18-2.4,25.6l-5.9,4.6
			C144.7,98,147.3,87.5,149.8,78.8z M142.9,111.6l6.1-4.7c-0.4,6.9-0.6,13-0.7,18.3l-6.7,4.6C141.7,123.6,142.2,117.5,142.9,111.6z
			 M141.6,131.7l6.7-4.6c0,8.6,0.3,14.9,0.6,18.9l-6,3.7C142.1,144.3,141.6,138.2,141.6,131.7z M157.9,161.4
			c-0.8,0.5-3.2,1.4-7.1-5.1c-2.3,6.9-5,5-6,3.9c-0.6-2.7-1.2-5.6-1.6-8.7l6.7-4.2l9.4,6.2C158.8,156.4,158.4,159,157.9,161.4z
			 M160,139.7c0,4.4-0.2,8.4-0.6,12.1l-8.5-5.7c-0.3-3.7-0.6-9.7-0.6-17.9l9.6,6.6C160,136.7,160,138.4,160,139.7z M159.7,132.8
			l-9.4-6.5c0-5.3,0.2-11.4,0.6-18.3l7.1,5.2C158.7,120.8,159.4,127.6,159.7,132.8z M157.8,111.2l-6.8-5c0.5-8,1.3-17,2.5-27
			c0.3-2.8,2-1.4,2.1,0.1C155.9,90.1,156.9,101.2,157.8,111.2z"/>
		<path class="st1" d="M170.2,49.7c-0.7,0.4-1.4,0.7-2.2,0.9c1.2,2.6,3.8,8.1,6.7,15.2C172.7,59.2,171.2,53.6,170.2,49.7z"/>
		<path class="st1" d="M195,116.7c-0.5-0.8-1.1-1.7-1.6-2.5c-2.4-3.9-4.6-8-6.7-12.3c0.8,3.3,1.4,6.6,2,9.8
			c4.7,29.9-4.3,42.9-4.3,42.9s-13.1-12.5-18.5-47c-3.8-24.1-1.8-50.8-1.3-57c-0.8-0.2-1.5-0.4-2.1-0.8c-2.5,58.1,3.2,68.1,4.3,84.7
			c14.7,23.1,15.2,29.9,15.2,29.9S199,152.3,195,116.7z"/>
		<path class="st1" d="M171.8,89.7l-4.5-28.6c-0.2-1.3-1.9-1.1-2,0.7c-0.4,8.7-0.5,20.9,0.5,33.4L171.8,89.7z"/>
		<path class="st1" d="M176.6,119.9l-2.2-14.1l-6.3,6.2c1,5.3,2.2,10,3.4,14.1L176.6,119.9z"/>
		<path class="st1" d="M166,97.1c0.3,3.4,0.7,6.8,1.3,10.2c0.1,1,0.3,1.9,0.5,2.8l6.3-6.3l-2-12.4L166,97.1z"/>
		<path class="st1" d="M168.8,60.8c0,0,2.3,14.8,4.6,29l10.1,5.7c-3.8-13.5-9-26.7-12.8-35.5C170.2,58.9,168.5,59.1,168.8,60.8z"/>
		<path class="st1" d="M180.5,136.2c-0.1-0.5-2.7-11.1-3.5-14.5l-4.9,6c1.8,5.6,3.7,10.1,5.5,13.8
			C178.5,139.8,180.3,136.6,180.5,136.2z"/>
		<path class="st1" d="M173.7,91.7c0.6,4.1,1.3,8.2,1.9,11.9l11.3,6.5c-0.7-4.1-1.7-8.3-2.8-12.6L173.7,91.7z"/>
		<path class="st1" d="M175.8,105.6c1.1,6.7,1.9,12,2.2,14l10.4,5.6c-0.1-3.9-0.5-8.3-1.3-13.1L175.8,105.6z"/>
		<path class="st1" d="M187.1,142.3l-5.6-4.8l-3.1,5.7c2.3,4.4,4.4,7.2,5.6,8.8C184.9,150.2,186.1,147,187.1,142.3z"/>
		<path class="st1" d="M188.5,126.9l-10-5.4c0.8,3.1,3,12.1,3.5,14.4l5.5,4.7C188.1,136.9,188.5,132.3,188.5,126.9z"/>
	</g>
	<g>
		<path class="st2" d="M96.9,152.9c5.2-8,2.2-21.6-7.6-17.8c-5.7-9.3-12.1-21.8-12.1-37.4c0-16.5,3.4-20.9,3.4-35.5
			c0-24.9-11.5-29.8-18.9-34.9c-17.6,11.9-41,28.3-41,37c0,2.6,1.1,5,1.1,7.5c0,9-17.5,26.5-17.5,34.9c0,3.2,2.5,5.8,6.6,5.8
			s14.4-1.5,18.3-1.9s4.3-2.3,4.3-3.3c0-2.5-4-6-7-6c-2.5,0-2.8,1.5-2.8,1.9c0,1.7,2.4,2.1,2.4,2.1c3-0.4,3,2.2,0.1,2.2
			c-2.4,0-5-1.7-5-4.8c0-3,2.4-3.8,4.2-3.8c7.6,0,11.9,6.8,10.7,11.2c9.4,4.7,9.1,11.5,7.6,11.5c-3.2,0-1-8.6-13.2-8.6
			c-3.4,0-10.6,1-12.3,1.2c-1.7,0.2-2.2,0.4-2.4,1.8c-0.2,1.4-2,6.4-2,9.5c0,4.6,3.1,4.9,5,4.9c5.1,0,13.9-1.2,13.9-3.3
			c0-1.3-2.2-0.9-3-0.9c-1.5,0-2.2-1-2.2-1.5c0-1.4,2.2-2,4.9-2c4.4,0,4.8,2.8,4.6,4.2c-0.5,2.9,4.3,2.2,4.3,8.5
			c0,0.7-0.1,2.5-1.6,2.5s-1.5-1.9-1.5-2.9c0-1.1-1.7-2.7-3.2-2.7c-1.6,0-7.2,2.9-19.3,1.8c-4.8,6,0.9,6.4,0.9,12.5
			c0,6.8-2.1,6.3-2.1,10.5c0,8.2,9,10.4,18,10.4c18.7,0,39.7-4.3,47.1-17.7c-2.5,11.8-12,16-28.2,19.7c1.8,13.1,4.5,16.1,6.5,19.6
			s2.4,8.5,5.9,8.5c4.2,0,28.7-8.8,45.2-18.8L96.9,152.9z M37.6,148.9c-1.2,0.6-2.5,0.5-3.6-0.1c0.9,1.4,4.2,6.5,0.3,8.5
			s-6.1-3.7-6.7-5.3c-0.2,1.3-0.8,2.4-2.1,3c-1.4,0.7-3.1,0.1-3.8-1.4c-1-1.9,1.2-8,0.2-11.1c-1-2.8,1.4-2.3,3.2-3.2
			c1.8-0.9,2.8-3.1,4.5-0.7c1.8,2.6,8.1,4.4,9.1,6.3C39.5,146.5,39,148.2,37.6,148.9z M51.1,40.1l8.7-6.5c0.5-0.4,1.1-0.4,1.6,0
			c6.4,4.5,10,8.9,10.1,9.1c0.5,0.6,0.4,1.4-0.2,1.9s-1.4,0.4-1.9-0.2c0,0-3.2-3.9-8.8-8c-0.4,0.3-1.2,0.9-2.1,1.6
			c2.7,2.3,10.4,9,15.4,15.3c0.5,0.6,0.4,1.4-0.2,1.9s-1.4,0.4-1.9-0.2c-5.2-6.4-13.4-13.5-15.6-15.3c-0.8,0.6-1.6,1.2-2.2,1.6
			c5,4.1,8.6,8.4,8.7,8.6c0.6,0.7,0.3,1.6-0.2,1.9c-0.6,0.5-1.4,0.4-1.9-0.2c0-0.1-4.3-5-9.7-9.3C50.5,41.8,50.3,40.8,51.1,40.1z
			 M32.7,86.9c-1.5,0-0.5-3.7-0.5-5.1c-8.4-0.1-9.3-3.1,0.3-3.2c-0.3-1.2-1.3-6.2,0.2-8.8L28,68c-3.8-1.5,3.5-4,2.4-6.3
			c0,0-2.2-1.7-2.2-3.5c0-1.9,2.9-4.1,8.5-4.1c10.4,0,13.2,8.9,21.5,8.9c1.6,0,6-0.9,6,0.9s-3.5,3.6-6.7,3.6
			c-7.3,0-12.8-5.5-16.4-5.5c-0.3,0-1,0.1-1.3,0.8l-1,2.3c-0.7,1.7,0.4,2.3,0.4,2.3L52,75c2.7,1.6,1.3,2.9-0.1,3.3
			c0,0-7.9,2.4-14.9,3.3C36.3,85.1,34.2,86.9,32.7,86.9z M44.1,98.4c0.5,1.8,3.5,1.8,5.8,1.2c2.4-0.6,3.8-1.5,4.8-1.7
			c1.9-0.5,3.9-0.2,4.3,1.3c0.7,2.8-2.8,4-4.8,4.6c-10.1,2.7-14.1,0.2-14.8-2.7c-0.8-2.9,1.7-5.1,1.7-5.1s-3.3-0.7-4-3.6
			c-0.8-2.9,1.5-7,11.6-9.7c2-0.5,5.7-1.2,6.4,1.6c0.4,1.5-1.2,2.8-3.1,3.3c-0.9,0.2-2.6,0.2-5,0.9c-2.4,0.6-5,2.1-4.5,3.9
			c0,0.2,0.1,0.3,0.2,0.4c1.1,0,2.9-0.1,5-0.7c5.8-1.5,8.7-4.7,11.9-5.6c1.5-0.4,4.3-1.1,5.4,3.1c1.1,4.2-1.6,5-3.1,5.4
			c-3.2,0.8-7.3-0.5-13.1,1c-2.1,0.6-3.7,1.4-4.7,1.9C44,98.1,44,98.2,44.1,98.4z M73.6,127c-17.7-5.2-6.4-27.1,1.7-24.9
			C64.6,111.8,70,123.1,73.6,127z M87.6,156.5c-3.5-1-5.1-6.4-3.4-12c1.6-5.6,5.8-9.3,9.3-8.3s5.1,6.4,3.5,12
			C95.3,153.8,91.1,157.5,87.6,156.5z"/>
		<path class="st2" d="M37.1,61.2l-5.2,1.4c-1.1,0.3-1.2,0.9-0.1,1.4l4,1.9c0.4,0.2,0.9,0,1.1-0.4l1.4-3.1
			C38.5,61.4,38.1,60.9,37.1,61.2z"/>
		<path class="st2" d="M92.4,140c-2-0.6-4.4,1.8-5.4,5.4c-1,3.5-0.3,6.9,1.7,7.5s4.4-1.8,5.4-5.4C95.1,143.9,94.4,140.5,92.4,140z"
			/>
	</g>
	<g>
		<polygon class="st3" points="170.7,24.5 157.7,24.5 166,33.5 170.7,33.5 		"/>
		<path class="st3" d="M218.7,89.1c-14.1-22.7-38.8-41.8-44.5-46c-0.1,1.3-0.4,2.5-1.1,3.6c5.4,4.7,29.1,26.1,40.3,44.1
			c14.7,23.7,10.8,41.2,10.8,41.2s-11.6,0.9-23.5-18.2c-12.2-19.6-25.4-55.8-28.8-65.4c-0.5,0.5-1.1,1-1.8,1.4c1,3.9,2.5,9.5,4.5,16
			c3,7.2,6.3,16.1,9.1,25.4c3.2,7.7,6.9,15.3,11.2,22.1c17.5,28.1,35,24.3,35,24.3C226.9,132.6,235.7,116.4,218.7,89.1z"/>
		<path class="st3" d="M173.8,49.1c1.9,5.3,5.6,15.5,10.2,26.7l1.2-6.8l-6-9.7c-0.2-0.3-0.1-0.8,0.2-1s0.8-0.1,1,0.2l5.8,9.3l9,2.2
			C186.7,60.9,178,52.9,173.8,49.1z"/>
		<path class="st3" d="M187.3,69.6L198,86.8l13.9,4.1C208,84.7,202.6,78.1,197,72L187.3,69.6z"/>
		<path class="st3" d="M185.1,78.3c2.6,6.3,5.5,12.8,8.4,18.9l3.5-9.4l-10.5-16.9L185.1,78.3z"/>
		<path class="st3" d="M223.1,130.4c0.3-2.7,0.8-9.9-2.1-19.9l-9.2-1.7l5.4,8.7c0.2,0.3,0.1,0.8-0.2,1s-0.8,0.1-1-0.2l-5.5-8.8
			l-3.5,10.4C214.2,128.5,220.6,130.1,223.1,130.4z"/>
		<path class="st3" d="M199.2,88.6l11.6,18.6l9.8,1.8c-1.6-4.9-3.9-10.4-7.5-16.3L199.2,88.6z"/>
		<path class="st3" d="M205.9,118.6l3.6-10.6l-11.6-18.6l-3.5,9.6c2.5,5.1,5.1,10,7.7,14C203.3,115.1,204.6,116.9,205.9,118.6z"/>
	</g>
	<g>
		<path class="st4" d="M93.5,136.3c-3.5-1-7.7,2.7-9.3,8.3c-1.6,5.6-0.1,10.9,3.4,12c3.5,1,7.7-2.7,9.3-8.3
			C98.6,142.7,97,137.3,93.5,136.3z M94.1,147.4c-1,3.5-3.5,6-5.4,5.4c-2-0.6-2.7-3.9-1.7-7.5c1-3.5,3.5-6,5.4-5.4
			C94.4,140.5,95.1,143.9,94.1,147.4z"/>
		<path class="st4" d="M29.7,138.7c-1.7-2.4-2.7-0.2-4.5,0.7s-4.1,0.4-3.2,3.2c1,3-1.2,9.2-0.2,11.1c0.8,1.5,2.4,2.1,3.8,1.4
			c1.2-0.6,1.8-1.7,2.1-3c0.7-3.4-1.3-8.2-0.4-8.6c0.9-0.5,3.6,3.9,6.8,5.4c1.2,0.5,2.4,0.7,3.6,0.1c1.4-0.7,1.9-2.4,1.1-3.9
			C37.8,143.1,31.5,141.3,29.7,138.7z"/>
		<path class="st4" d="M54.6,97.9c-0.9,0.2-2.4,1.1-4.8,1.7c-2.4,0.6-5.3,0.6-5.8-1.2c0-0.2,0-0.3,0-0.5c0.2-1.5,2.3-3.4,2.3-3.4
			s-2.8-0.6-3.7-1.8c-0.1-0.1-0.2-0.3-0.2-0.4c-0.5-1.8,2.1-3.3,4.5-3.9s4-0.6,5-0.9c1.9-0.5,3.5-1.8,3.1-3.3
			c-0.7-2.8-4.4-2.1-6.4-1.6c-10.1,2.7-12.3,6.8-11.6,9.7c0.8,2.9,4,3.6,4,3.6s-2.5,2.3-1.7,5.1c0.8,2.9,4.7,5.4,14.8,2.7
			c2-0.5,5.6-1.7,4.8-4.6C58.6,97.6,56.5,97.3,54.6,97.9z"/>
		<path class="st4" d="M158.1,42c-29.5,22.1-45.3,54.9-50.1,66.2c0,0-0.6,1.3,0.1,2.8l9.3,18.2c0.4,0.8,1.2,0.9,1.9,0.3l15.4-13.9
			c1.1-1,1.4-2.5,1.4-2.5c7-40,16.5-59.6,22.3-68.5c-0.2-0.6-0.3-1.3-0.3-2C158.1,42.4,158.1,42.2,158.1,42z M133.8,113.2
			l-15.2,14.1l-8.4-18.1c0,0,9.5-28.9,44-62.4C141.2,70.4,133.8,113.2,133.8,113.2z"/>
		<path class="st4" d="M131.4,83.9c2.1-4.8,4.5-9.9,7.2-15.3c0.2-0.4,0.6-0.5,1-0.3s0.5,0.6,0.3,1c-3.1,6.1-5.8,12-8,17.3l4.4,7.6
			c3-12.6,7.5-29,12.9-40.2c-12.1,13-20.5,24.6-26.2,33.7L131.4,83.9z"/>
		<path class="st4" d="M120.6,118.8c-0.1,0.4-0.5,0.6-0.9,0.5s-0.6-0.5-0.5-0.9c0-0.1,1.4-6.2,4.9-16.1l-11.3,4.6
			c-0.6,1.4-0.8,2.2-0.8,2.2l7.2,15.5l12.2-11.3l-6-10.1C122,112.8,120.6,118.6,120.6,118.8z"/>
		<path class="st4" d="M130.5,85.9l-8.9,3.9c-4.1,6.7-6.6,12-8.1,15.3l11.2-4.5C126.3,96.2,128.2,91.3,130.5,85.9z"/>
		<path class="st4" d="M125.9,101.5l6.4,10.9c0.1-0.7,1.3-7.3,3.4-16.2l-4.6-8C129,93.1,127.3,97.6,125.9,101.5z"/>
		<path class="st4" d="M166.2,38.7c-2.2,0-3.9,1.8-3.9,3.9c0,2.2,1.8,3.9,3.9,3.9c2.2,0,3.9-1.8,3.9-3.9
			C170.1,40.4,168.4,38.7,166.2,38.7z"/>
	</g>
	<g>
		<polygon class="st5" points="182.5,30.3 174.6,35.6 176.5,41.6 185.3,39.6 		"/>
		<path class="st5" d="M160.8,48.7c-0.6-0.5-1.1-1.1-1.5-1.8c-9.4,15.1-21.5,53-21.5,85.4c0,33.2,10.2,50.8,13.8,50.8
			c2.8,0,12.8-17.8,12.8-40.6c0-6.2-5.2-31.3-5.2-78.4C159.2,54,160,51.3,160.8,48.7z M161.5,139.7c0,27.1-8.6,40.1-10.5,40.1
			c-2.3,0-10.8-20.9-10.8-48.2C140.2,90.4,157,55,157,55C155.5,87.1,161.5,128.7,161.5,139.7z"/>
		<path class="st5" d="M149,106.9l-6.1,4.7c-0.7,5.9-1.2,11.9-1.3,18.2l6.7-4.6C148.4,119.9,148.6,113.8,149,106.9z"/>
		<path class="st5" d="M153.5,79.3c-1.2,10-2,19-2.5,27l6.8,5c-0.9-10-1.9-21.2-2.3-31.9C155.5,77.9,153.8,76.5,153.5,79.3z"/>
		<path class="st5" d="M150.3,126.3l9.4,6.5c-0.4-5.2-1-12-1.7-19.6l-7.1-5.2C150.5,114.9,150.3,121,150.3,126.3z"/>
		<path class="st5" d="M151.4,79.3c0.2-1.8-1.3-1.6-1.6-0.5c-2.6,8.6-5.1,19.1-6.7,30.7l5.9-4.6C149.6,97.3,150.3,88.8,151.4,79.3z"
			/>
		<path class="st5" d="M143.1,151.5c0.5,3.1,1,6.1,1.6,8.7c1,1.1,3.7,3,6-3.9c3.9,6.5,6.3,5.6,7.1,5.1c0.5-2.4,1-5,1.4-7.9l-9.4-6.2
			L143.1,151.5z"/>
		<path class="st5" d="M150.9,146.1l8.5,5.7c0.4-3.6,0.6-7.7,0.6-12.1c0-1.3-0.1-3-0.2-4.9l-9.6-6.6
			C150.3,136.3,150.6,142.3,150.9,146.1z"/>
		<path class="st5" d="M148.3,127.1l-6.7,4.6c0,6.5,0.5,12.6,1.2,18.1l6-3.7C148.6,142,148.2,135.7,148.3,127.1z"/>
		<path class="st5" d="M110.3,109.2l8.4,18.1l15.2-14.1c0,0,7.3-42.8,20.4-66.4C119.8,80.3,110.3,109.2,110.3,109.2z M136.2,94.1
			c-0.2,0.7-0.3,1.4-0.5,2c-2,8.9-3.2,15.5-3.4,16.2v0.1l-1,1l-12.2,11.3l-7.2-15.5c0,0,0.2-0.8,0.8-2.2c0.2-0.5,0.5-1.2,0.8-1.9
			c1.5-3.3,4-8.6,8.1-15.3c0.4-0.7,0.9-1.4,1.3-2.2c5.7-9.1,14.1-20.7,26.2-33.7C143.7,65.1,139.2,81.5,136.2,94.1z"/>
		<path class="st5" d="M166.2,36.5c-3.4,0-6.2,2.8-6.2,6.2s2.8,6.2,6.2,6.2s6.1-2.8,6.1-6.2C172.3,39.2,169.6,36.5,166.2,36.5z
			 M166.2,46.6c-2.2,0-3.9-1.8-3.9-3.9c0-2.2,1.8-3.9,3.9-3.9c2.2,0,3.9,1.8,3.9,3.9C170.1,44.8,168.4,46.6,166.2,46.6z"/>
	</g>
	<path class="st6" d="M188.6,111.7c-0.5-3.2-1.2-6.5-2-9.8c-0.8-3.6-1.8-7.2-2.9-10.8c-2.8-9.3-6.1-18.2-9.1-25.4
		c-2.9-7.1-5.4-12.5-6.7-15.2c-0.6,0.1-1.2,0.2-1.8,0.2s-1.1-0.1-1.7-0.2c-0.5,6.3-2.5,33,1.3,57c5.4,34.5,18.5,47,18.5,47
		S193.4,141.6,188.6,111.7z M188.4,125.2l-10.4-5.6c-0.3-2-1.2-7.3-2.2-14l11.3,6.5C187.9,116.9,188.3,121.3,188.4,125.2z M184,97.6
		c1.1,4.2,2.1,8.5,2.8,12.6l-11.3-6.5c-0.6-3.8-1.2-7.8-1.9-11.9L184,97.6z M170.6,60c3.8,8.8,9.1,22,12.8,35.5l-10.1-5.7
		c-2.2-14.2-4.6-29-4.6-29C168.5,59.1,170.2,58.9,170.6,60z M165.3,61.8c0.1-1.9,1.8-2,2-0.7l4.5,28.6l-6,5.6
		C164.8,82.7,164.9,70.5,165.3,61.8z M167.3,107.4c-0.5-3.4-0.9-6.8-1.3-10.2l6.1-5.7l2,12.4l-6.3,6.3
		C167.6,109.2,167.4,108.3,167.3,107.4z M168.1,112l6.3-6.2l2.2,14.1l-5.1,6.2C170.2,121.9,169,117.2,168.1,112z M172,127.8l4.9-6
		c0.8,3.4,3.4,14,3.5,14.5c-0.2,0.3-2,3.6-3,5.3C175.7,137.9,173.8,133.4,172,127.8z M184,152c-1.3-1.6-3.3-4.4-5.6-8.8l3.1-5.7
		l5.6,4.8C186.1,147,184.9,150.2,184,152z M187.4,140.6l-5.5-4.7c-0.6-2.3-2.8-11.3-3.5-14.4l10,5.4
		C188.5,132.3,188.1,136.9,187.4,140.6z"/>
	<g>
		<path d="M118.5,151.1c-0.4,0-0.8,0.6-0.8,2.2c0,1.8,2,5.5,4.5,7.9c0.1-1.2,0.1-2.3,0.1-2.8C122.2,156.3,121.1,151.1,118.5,151.1z"
			/>
		<path d="M231.3,132c0-8.5,8.3-40-52.1-87.5l10.2-2.3L184.1,25L174,31.7V21.2h-19.8C141.3,11.9,135.1,0,114.8,0
			c-8.5,0-17.4,1.7-19.3,1.7c-1.5,0-6-1-13.7-1c-22.2,0-24.3,16.6-21.5,22.4C31,43.2,16.6,57.6,16.6,62.8c0,2,1.2,4.6,1.2,8.4
			C17.8,79.4,0,97.5,0,107.1c0,9,11.4,9.6,11.4,9.6c0.6,2.6-3.8,11.4,0.2,15.9c-5.5,6,0.9,8.9,0.9,13.7c0,3.2-2.2,4.2-2.2,10.1
			c0,6.7,3.2,14.9,19.8,14.9c6.6,0,12.4-1,17.1-1c1.3,14,7.3,19.5,8.2,23c0.8,2.8,2.6,8.9,6.3,8.9c4.8,0,31.5-8.8,51.8-21
			c10.2,3.8,23.1,2.5,27.8,2.5c5.1,0,7.2,3.1,10.2,3.1c1.8,0,15.6-15.4,14.7-49c8.6,14.6,13.7,24.1,14.3,29.5
			c11.2-4,20.6-30.5,16.5-47.3c0,0,14.1,22.9,35.5,19.5C232.5,139.4,231.3,135.2,231.3,132z M182.5,30.3l2.8,9.3l-8.9,2l-1.8-6
			L182.5,30.3z M166.2,36.5c3.4,0,6.1,2.8,6.1,6.2s-2.7,6.2-6.1,6.2c-3.4,0-6.2-2.8-6.2-6.2C160,39.2,162.8,36.5,166.2,36.5z
			 M170.7,24.5v9H166l-8.3-9H170.7z M63.7,197.5c-3.5,0-3.9-5-5.9-8.5s-4.7-6.6-6.5-19.6c16.2-3.7,25.7-7.9,28.2-19.7
			c-7.4,13.3-28.4,17.7-47.1,17.7c-9,0-18-2.2-18-10.4c0-4.1,2.1-3.7,2.1-10.5c0-6.1-5.6-6.5-0.9-12.5c12.1,1.1,17.7-1.8,19.3-1.8
			c1.5,0,3.2,1.6,3.2,2.7c0,1,0,2.9,1.5,2.9s1.6-1.8,1.6-2.5c0-6.3-4.8-5.5-4.3-8.5c0.2-1.3-0.2-4.2-4.6-4.2c-2.6,0-4.9,0.7-4.9,2
			c0,0.5,0.7,1.5,2.2,1.5c0.8,0,3-0.4,3,0.9c0,2.1-8.7,3.3-13.9,3.3c-2,0-5-0.3-5-4.9c0-3.1,1.8-8.1,2-9.5s0.7-1.6,2.4-1.8
			c1.7-0.2,8.9-1.2,12.3-1.2c12.2,0,10,8.6,13.2,8.6c1.5,0,1.8-6.8-7.6-11.5c1.3-4.4-3.1-11.2-10.7-11.2c-1.8,0-4.2,0.8-4.2,3.8
			s2.6,4.8,5,4.8c2.9,0,2.9-2.7-0.1-2.2c0,0-2.4-0.5-2.4-2.1c0-0.4,0.2-1.9,2.8-1.9c3,0,7,3.5,7,6c0,1-0.4,2.9-4.3,3.3
			s-14.3,1.9-18.3,1.9c-4.1,0-6.6-2.7-6.6-5.8c0-8.5,17.5-25.9,17.5-34.9c0-2.5-1.1-4.9-1.1-7.5c0-8.7,23.4-25,41-37
			c7.4,5,18.9,9.9,18.9,34.9c0,14.6-3.4,19-3.4,35.5c0,15.5,6.4,28.1,12.1,37.4c9.8-3.8,12.8,9.9,7.6,17.8l12,25.8
			C92.4,188.7,67.9,197.5,63.7,197.5z M126.6,166.5c-0.6,0-1.3-0.2-2.1-0.5c-1.3,4.5-4,6.2-6.9,6.2c-5.3,0-10-7.6-10-20
			c0-21.8-22.2-28.7-22.2-52.1c0-20.1,4.9-32.8,4.9-47.2c0-14.2-10.2-22.1-10.2-32.4c0-3.5,1.8-6.9,7-6.9c9.1,0,12.7,8.2,21.8,8.2
			c8.2,0,10.1-6.3,15.8-6.3c11.9,0,6.9,20.3,18.3,20.3c2.7,0,5.4-1.4,5.4-1.4c1.6-0.8,3.3,1.4,1.5,2.4c0,0-2.8,1.7-7.1,1.7
			c-13.5,0-10.1-20.2-17.8-20.2c-5.1,0-7,6.3-15.9,6.3c-9.6,0-14.7-8.1-21.6-8.1c-2,0-4.4,0.7-4.4,4.4c0,9.4,8.3,14,9.9,28.4
			c2.6-0.6,19.5-4.4,49-4.4c1.9,0,2.2,2.8,0.1,2.8c-26.8-0.6-45.8,3.6-48.9,4.4c0,0.8,0.1,1.5,0.1,2.3c0,13-4.9,25.6-4.9,45.2
			c0,23,22.2,29.7,22.2,52.7c0,6.4,2.6,17,7.2,17c2.4,0,3.5-2.3,4-4.9c-3.5-2.6-7.1-7.1-7.1-11.2c0-3,1.2-4.9,3.3-4.9
			c2.1,0,7.3,1.8,7.3,11.2c0,1.4-0.1,2.6-0.2,3.7c0.5,0.2,1,0.3,1.5,0.3c1.2,0,4.1-1.4,4.1-5.4c0-16-32-26.3-32-56.9
			c0-17.4,1.9-39.5,8.2-39.5c4.9,0,6.4,8,8.6,8c1.2,0,0.4-15.4,5.8-15.4c3.4,0,6.2,5.3,8,7c0,0,1.6-4.3,2.3-7.6
			c0.4-2.1,3.3-1.5,2.9,0.5c-1.2,4.4-2.1,10-4.9,10c-3.4,0-6.2-7.2-8.1-7.2c-2.4,0-0.5,15.5-5.8,15.5c-4.3,0-6.6-7.8-8.4-7.8
			c-3.4,0-5.7,22.4-5.7,36.4c0,29.1,31.9,38.7,31.9,57.3C133.6,164.9,128.1,166.5,126.6,166.5z M134.6,115.6l-15.4,13.9
			c-0.6,0.6-1.5,0.4-1.9-0.3L108,111c-0.7-1.4-0.1-2.8-0.1-2.8c4.8-11.3,20.7-44.1,50.1-66.2c0,0.2,0,0.4,0,0.6c0,0.7,0.1,1.4,0.3,2
			c-5.9,8.9-15.3,28.5-22.3,68.5C136,113.1,135.7,114.7,134.6,115.6z M151.7,183.2c-3.7,0-13.8-17.6-13.8-50.8
			c0-32.4,12-70.3,21.5-85.4c0.4,0.7,0.9,1.3,1.5,1.8c-0.9,2.6-1.6,5.3-1.6,15.4c0,47.1,5.2,72.1,5.2,78.4
			C164.4,165.4,154.5,183.2,151.7,183.2z M194.9,113.2c-4.2-6.8-7.9-14.4-11.2-22.1c1.1,3.6,2.1,7.2,2.9,10.8
			c2.1,4.3,4.3,8.4,6.7,12.3c0.5,0.9,1.1,1.7,1.6,2.5c4,35.6-13.2,47.7-13.2,47.7s-0.5-6.7-15.2-29.9c-1.1-16.6-6.8-26.6-4.3-84.7
			c0.7,0.3,1.4,0.6,2.1,0.8c0.5,0.1,1.1,0.2,1.7,0.2c0.6,0,1.2-0.1,1.8-0.2c0.8-0.2,1.5-0.5,2.2-0.9s1.3-0.8,1.8-1.4
			c0.5-0.5,0.9-1,1.2-1.6c0.6-1.1,1-2.3,1.1-3.6c5.7,4.2,30.4,23.3,44.5,46c17,27.3,8.2,43.5,11.2,48.4
			C229.9,137.5,212.4,141.3,194.9,113.2z"/>
		<path d="M73.6,127c-3.6-3.9-9-15.2,1.7-24.9C67.1,99.9,55.9,121.8,73.6,127z"/>
		<path d="M60.8,51.6c0.5,0.6,1.3,0.6,1.9,0.2c0.4-0.4,0.7-1.3,0.2-1.9c-0.2-0.2-3.8-4.4-8.7-8.6c0.6-0.4,1.4-1,2.2-1.6
			C58.5,41.5,66.8,48.6,72,55c0.5,0.6,1.3,0.7,1.9,0.2s0.7-1.3,0.2-1.9C69,46.9,61.4,40.3,58.6,38c0.9-0.7,1.7-1.3,2.1-1.6
			c5.6,4,8.7,7.9,8.8,8c0.5,0.6,1.3,0.7,1.9,0.2s0.7-1.3,0.2-1.9c-0.1-0.2-3.7-4.6-10.1-9.1c-0.5-0.3-1.1-0.3-1.6,0l-8.7,6.5
			c-0.8,0.6-0.6,1.6,0,2.2C56.6,46.6,60.8,51.5,60.8,51.6z"/>
		<path d="M58.2,63c-8.3,0-11.1-8.9-21.5-8.9c-5.6,0-8.5,2.2-8.5,4.1c0,1.9,2.2,3.5,2.2,3.5c1.1,2.3-6.2,4.8-2.4,6.3l4.7,1.8
			c-1.5,2.7-0.5,7.6-0.2,8.8c-9.6,0.1-8.7,3.1-0.3,3.2c0,1.4-1,5.1,0.5,5.1c1.6,0,3.6-1.9,4.4-5.4c7-0.9,14.9-3.3,14.9-3.3
			c1.4-0.4,2.8-1.7,0.1-3.3l-12.9-7.6c0,0-1.1-0.7-0.4-2.3l1-2.3c0.3-0.7,1-0.8,1.3-0.8c3.7,0,9.2,5.5,16.4,5.5
			c3.2,0,6.7-1.8,6.7-3.6C64.2,62.2,59.8,63,58.2,63z M36.8,65.5c-0.2,0.4-0.7,0.6-1.1,0.4l-4-1.9c-1-0.5-1-1.1,0.1-1.4l5.2-1.4
			c1-0.3,1.5,0.3,1.1,1.2L36.8,65.5z M49.8,76.5c0,0-3.4,1.5-11.6,2c-0.2-0.8-0.7-3.9,0-6.5L49.8,76.5z"/>
		<path d="M206.2,137.6c-2.5,0-4.5,2-4.5,4.5s2,4.5,4.5,4.5s4.5-2,4.5-4.5C210.7,139.7,208.6,137.6,206.2,137.6z M206.2,145.7
			c-1.9,0-3.5-1.6-3.5-3.5s1.6-3.5,3.5-3.5s3.5,1.6,3.5,3.5C209.7,144.1,208.1,145.7,206.2,145.7z"/>
		<path d="M208,141.1c0-0.8-0.7-1.5-1.5-1.5h-2.2v5.1h1v-2.1h0.7l1,2.1h1.1l-1-2.2C207.6,142.3,208,141.8,208,141.1z M206.5,141.7
			h-1.2v-1.1h1.2c0.3,0,0.6,0.2,0.6,0.6S206.8,141.7,206.5,141.7z"/>
	</g>
</g>
</svg>
