<?xml version="1.0" encoding="utf-8"?>
<!-- Generator: Adobe Illustrator 17.1.0, SVG Export Plug-In . SVG Version: 6.00 Build 0)  -->
<!DOCTYPE svg PUBLIC "-//W3C//DTD SVG 1.1//EN" "http://www.w3.org/Graphics/SVG/1.1/DTD/svg11.dtd">
<svg version="1.1" id="Layer_1" xmlns="http://www.w3.org/2000/svg" xmlns:xlink="http://www.w3.org/1999/xlink" x="0px" y="0px"
	 viewBox="57 57.2 85.6 85.6" enable-background="new 57 57.2 85.6 85.6" xml:space="preserve">
<g>
	<path fill="#FFFFFF" d="M99.9,137.1c20.5,0,37.1-16.6,37.1-37.1c0-17.2-11.7-31.7-27.6-35.9c0.8,1.1,3.7,4.9,3.7,9.9
		c0,7.2-5.9,13.1-13.2,13.1S86.7,81.2,86.7,74c0-5,2.8-8.8,3.7-9.9C74.5,68.3,62.8,82.8,62.8,100C62.8,120.5,79.4,137.1,99.9,137.1
		 M121.3,104.4h2.7v4.2c0,0.9,0.7,1.6,1.6,1.6c0.9,0,1.6-0.7,1.6-1.6v-1.8c0-0.4-0.3-1-0.6-1.3l-4.6-4.2c-0.3-0.3-0.6-0.9-0.6-1.3
		V92c0-1.6,1.3-3,2.9-3h3.5c1.6,0,2.9,1.3,2.9,3v6.1h-3.5v-2.4c0-0.6-0.5-1.2-1.2-1.2c-0.6,0-1.2,0.5-1.2,1.2v2.7
		c0,0.4,0.3,1,0.6,1.3l4.6,4.2c0.3,0.3,0.6,0.9,0.6,1.3v1.2c0,8.3-3.6,15.8-9.4,21.1L121.3,104.4L121.3,104.4z M108.5,110.2
		c0.6,0,1.1-0.5,1.1-1.1V95.7c0-0.6-0.5-1.1-1.1-1.1v-5.5h7.9c1.6,0,2.9,1.3,2.9,3v7.3c0,1.1-1.2,1.6-1.2,1.6s1.2,0.5,1.2,1.6v6.6
		c0,0.6,0.5,1.1,1.1,1.1v15.2c0,2.9-0.7,3.5-0.7,3.5c-1.4,1.1-2.9,2.1-4.4,3c0.1-0.5,0.3-1.2,0.3-1.9v-26.3c0-0.7-0.6-1.2-1.2-1.2
		c-0.6,0-1.2,0.6-1.2,1.2v4.9c0,0.9,0.7,1.6,1.6,1.6v19.5c0,2.5-1.3,3.1-1.3,3.1c-1.9,0.9-3.9,1.6-6,2.1c0.6-0.6,1.1-1.5,1.1-2.6
		L108.5,110.2L108.5,110.2z M96.3,89.1h11.2v9h-2.7v-1.9c0-0.8-0.7-1.5-1.5-1.5c-0.8,0-1.5,0.7-1.5,1.5v3.1h3.1v4h-3.1v5.4
		c0,0.8,0.7,1.5,1.5,1.5c0.8,0,1.5-0.7,1.5-1.5v-4.3h2.7v27.9c0,2.6-2.9,3.1-2.9,3.1c-1.6,0.2-3.1,0.4-4.8,0.4
		c-1.3,0-2.6-0.1-3.9-0.2c0.4-0.3,1.2-1,1.2-2.6v-22.7c0.6,0,1.1-0.5,1.1-1.1V96.7c0-1.1-0.9-2-2-2L96.3,89.1L96.3,89.1z M86.8,130
		v-19.8c0.6,0,1.1-0.5,1.1-1.1V95.7c0-0.6-0.5-1.1-1.1-1.1v-5.5h5.8v5.5c-0.6,0-1.1,0.5-1.1,1.1v13.4c0,0.6,0.5,1.1,1.1,1.1
		c0.6,0,1.1-0.5,1.1-1.1v-4.7h2.7V133c0,2.7-2.7,2.3-2.7,2.3c-2.9-0.6-5.7-1.5-8.2-2.8C85.9,132.3,86.8,131.7,86.8,130 M80.1,123.8
		v-13.5c0.6,0,1.1-0.5,1.1-1.1V95.7c0-0.6-0.5-1.1-1.1-1.1v-5.5h5.8v5.5c-0.6,0-1.1,0.5-1.1,1.1v13.4c0,0.6,0.5,1.1,1.1,1.1V130
		c0,2.3-2,1.5-2,1.5c-2.2-1.3-4.2-2.8-6-4.5C78.7,127,80.1,126.6,80.1,123.8 M69.1,92c0-1.6,1.3-3,2.9-3h4.3c1.6,0,2.9,1.3,2.9,3
		v31.7c0,3.1-2,2.8-2.9,1.7c-4.5-5.1-7.2-11.7-7.2-19V92z"/>
	<path fill="#FFFFFF" d="M74.2,94.6c-0.9,0-1.5,0.7-1.5,1.5v12.5c0,0.9,0.7,1.6,1.5,1.6c0.9,0,1.5-0.7,1.5-1.6V96.1
		C75.7,95.3,75,94.6,74.2,94.6"/>
	<path fill="#FFFFFF" d="M114.4,99.3c0.7,0,1.3-0.6,1.3-1.3v-2c0-0.7-0.6-1.3-1.3-1.3c-0.7,0-1.3,0.6-1.3,1.3v2
		C113.1,98.7,113.7,99.3,114.4,99.3"/>
	<path fill="#FFFFFF" d="M99.9,142.8c23.7,0,42.8-19.2,42.8-42.8s-19.2-42.8-42.8-42.8S57,76.3,57,100
		C57,123.7,76.2,142.8,99.9,142.8 M99.9,60c2.7,6.8,6.9,9.4,6.9,14.2c0,3.3-2.7,6.5-6.9,6.5S93,77.4,93,74.1
		C93,69.3,97.2,66.7,99.9,60 M97.5,59.2c-4.9,7.7-7.1,10.5-7.1,14.8c0,5.1,4.3,9.3,9.5,9.3c5.1,0,9.5-4.2,9.5-9.3
		c0-4.3-2.2-7.1-7.1-14.8c21.4,1.2,38.4,19,38.4,40.8c0,22.5-18.3,40.8-40.8,40.8S59.1,122.5,59.1,100C59,78.2,76.1,60.5,97.5,59.2"
		/>
	<path fill="#FF4C00" d="M106.8,74.1c0-4.8-4.2-7.4-6.9-14.2c-2.7,6.8-6.9,9.4-6.9,14.2c0,3.3,2.7,6.5,6.9,6.5
		C104.1,80.6,106.8,77.5,106.8,74.1"/>
	<path fill="#041E41" d="M130.6,132.9c0,1.2,1,2.2,2.2,2.2c1.2,0,2.2-1,2.2-2.2c0-1.2-1-2.2-2.2-2.2
		C131.6,130.7,130.6,131.7,130.6,132.9 M134.5,132.9c0,1-0.8,1.7-1.7,1.7c-1,0-1.7-0.8-1.7-1.7c0-1,0.8-1.7,1.7-1.7
		C133.8,131.2,134.5,131.9,134.5,132.9"/>
	<path fill="#041E41" d="M131.9,134.2h0.5v-1h0.3l0.5,1h0.5l-0.5-1.1c0.3-0.1,0.5-0.4,0.5-0.7c0-0.4-0.3-0.7-0.7-0.7h-1.1
		L131.9,134.2L131.9,134.2z M132.4,132.1h0.6c0.1,0,0.3,0.1,0.3,0.3c0,0.1-0.1,0.3-0.3,0.3h-0.6V132.1z"/>
	<path fill="#041E41" d="M102.3,59.2c4.9,7.7,7.1,10.5,7.1,14.8c0,5.1-4.3,9.3-9.5,9.3c-5.1,0-9.5-4.2-9.5-9.3
		c0-4.3,2.2-7.1,7.1-14.8C76,60.5,59,78.2,59,100c0,22.5,18.3,40.8,40.8,40.8s40.8-18.3,40.8-40.8C140.7,78.2,123.7,60.5,102.3,59.2
		 M99.9,137.1c-20.5,0-37.1-16.6-37.1-37.1c0-17.2,11.7-31.7,27.6-35.9c-0.8,1.1-3.7,4.9-3.7,9.9c0,7.2,5.9,13.1,13.2,13.1
		c7.3,0,13.2-5.8,13.2-13.1c0-5-2.8-8.8-3.7-9.9C125.3,68.3,137,82.8,137,100C137,120.5,120.4,137.1,99.9,137.1"/>
	<path fill="#041E41" d="M107.6,104.4h-2.7v4.3c0,0.8-0.7,1.5-1.5,1.5s-1.5-0.7-1.5-1.5v-5.4h3.1v-4h-3.1v-3.1
		c0-0.8,0.7-1.5,1.5-1.5c0.8,0,1.5,0.7,1.5,1.5v1.9h2.7v-9H96.3v5.5c1.1,0,2,0.9,2,2v12.5c0,0.6-0.5,1.1-1.1,1.1v22.7
		c0,1.6-0.8,2.4-1.2,2.6c1.3,0.1,2.6,0.2,3.9,0.2c1.6,0,3.2-0.1,4.8-0.4c0,0,2.9-0.6,2.9-3.1L107.6,104.4L107.6,104.4z"/>
	<path fill="#041E41" d="M96.3,104.4h-2.7v4.7c0,0.6-0.5,1.1-1.1,1.1c-0.6,0-1.1-0.5-1.1-1.1V95.7c0-0.6,0.5-1.1,1.1-1.1v-5.5h-5.8
		v5.5c0.6,0,1.1,0.5,1.1,1.1v13.4c0,0.6-0.5,1.1-1.1,1.1V130c0,1.7-0.9,2.2-1.3,2.4c2.5,1.3,5.3,2.3,8.2,2.8c0,0,2.7,0.4,2.7-2.3
		C96.3,133,96.3,104.4,96.3,104.4z"/>
	<path fill="#041E41" d="M85.9,130v-19.8c-0.6,0-1.1-0.5-1.1-1.1V95.7c0-0.6,0.5-1.1,1.1-1.1v-5.5h-5.8v5.5c0.6,0,1.1,0.5,1.1,1.1
		v13.4c0,0.6-0.5,1.1-1.1,1.1v13.5c0,2.8-1.4,3.3-2.2,3.3c1.8,1.8,3.8,3.3,6,4.5C83.9,131.6,85.9,132.4,85.9,130"/>
	<path fill="#041E41" d="M130.6,98.1V92c0-1.6-1.3-2.9-2.9-2.9h-3.5c-1.6,0-2.9,1.3-2.9,2.9v8.1c0,0.4,0.3,1,0.6,1.3l4.6,4.2
		c0.3,0.3,0.6,0.9,0.6,1.3v1.8c0,0.9-0.7,1.6-1.6,1.6c-0.9,0-1.6-0.7-1.6-1.6v-4.2h-2.7v23.1c5.7-5.4,9.4-12.8,9.4-21.1v-1.2
		c0-0.4-0.3-1-0.6-1.3l-4.6-4.2c-0.3-0.3-0.6-0.9-0.6-1.3v-2.7c0-0.6,0.5-1.2,1.2-1.2s1.2,0.5,1.2,1.2v2.4L130.6,98.1L130.6,98.1z"
		/>
	<path fill="#041E41" d="M79.3,123.8V92c0-1.6-1.3-3-2.9-3h-4.3c-1.6,0-2.9,1.3-2.9,3v14.4c0,7.2,2.7,13.8,7.2,19
		C77.2,126.5,79.3,126.9,79.3,123.8 M75.7,108.7c0,0.8-0.7,1.5-1.5,1.5c-0.9,0-1.6-0.7-1.6-1.5V96.2c0-0.9,0.7-1.5,1.6-1.5
		c0.8,0,1.5,0.7,1.5,1.5V108.7z"/>
	<path fill="#041E41" d="M119.3,109.1v-6.6c0-1.1-1.2-1.6-1.2-1.6s1.2-0.5,1.2-1.6V92c0-1.6-1.3-2.9-2.9-2.9h-7.9v5.5
		c0.6,0,1.1,0.5,1.1,1.1v13.4c0,0.6-0.5,1.1-1.1,1.1v22.1c0,1.2-0.5,2-1.1,2.6c2.1-0.5,4.1-1.2,6-2.1c0,0,1.3-0.6,1.3-3.1v-19.5
		c-0.9,0-1.6-0.7-1.6-1.6v-4.9c0-0.7,0.6-1.2,1.2-1.2c0.7,0,1.2,0.6,1.2,1.2V130c0,0.7-0.1,1.3-0.3,1.9c1.6-0.9,3.1-1.9,4.4-3
		c0,0,0.7-0.6,0.7-3.5v-15.2C119.8,110.2,119.3,109.7,119.3,109.1 M115.8,97.9c0,0.7-0.6,1.3-1.3,1.3c-0.7,0-1.3-0.6-1.3-1.3v-2
		c0-0.7,0.6-1.3,1.3-1.3s1.3,0.6,1.3,1.3V97.9z"/>
</g>
</svg>
