<svg id="Layer_1" xmlns="http://www.w3.org/2000/svg" viewBox="0 0 24 16"><style>.st0{fill:#131313}.st1{fill:#fff}.st2{fill:#a3abae}</style><g id="LAK_Logo__x28_K_x29__1_"><path class="st0" d="M17.946 1.017v9.832l-5.898 4.262-5.897-4.262V1.017h11.795m.307-.307H5.844V11.006l.127.092 5.897 4.262.18.13.18-.13 5.898-4.262.127-.092V.71z"/><path class="st1" d="M6.425 1.263v9.41l5.632 4.071 5.631-4.071v-9.41H6.425zm10.892 9.22l-5.26 3.802-5.26-3.802V8.167h10.52v2.316zm0-2.641H6.797V1.634h10.52v6.208z"/><path class="st2" d="M12.048 15.111l-5.897-4.262V1.017h11.795v9.832l-5.898 4.262zm-5.609-4.409l5.609 4.054 5.61-4.054V1.305H6.439v9.397z"/><path class="st1" d="M12.946 6.416V5.044h2.917v1.372h.689c-.096-.226-.264-.76-.264-1.756s.168-1.531.264-1.756h-4.296c.097.226.265.76.265 1.756s-.168 1.53-.265 1.756h.69zm0-3.011h2.917v1.138h-2.917V3.405zM7.561 6.416h3.827c.063-.099.242-.422.284-.88-.218.149-.675.379-1.435.379H8.251V4.66c0-.996.168-1.531.264-1.756h-.954c.096.225.264.76.264 1.756s-.168 1.53-.264 1.756M12.057 12.301c.962 0 1.481-.133 1.481-.133l.366-2.097-.076-.033-.354.473a1.485 1.485 0 0 0-.671-.44l.14-.34-.252.102.016-.031-.312.017-.189-.335.08-.138a4.07 4.07 0 0 1 .078-.068l-.09-.17-.191.013-.004.105-.021.036-.022-.036-.004-.105-.192-.012-.089.17.079.068.08.138-.189.335-.313-.017.016.031-.252-.102.14.34a1.512 1.512 0 0 0-.672.44l-.354-.473-.076.033.365 2.097c0-.001.521.132 1.482.132m-.277-2.378l.251-.432-.123-.21-.03-.03.021-.03.045.004.007.037.106.184.106-.184.007-.037.045-.004.021.03-.029.03-.123.21.251.432h.198l-.025.047h-.2l-.251-.432-.251.432h-.2l-.024-.047h.198zm-1.139.725c.143-.234.421-.422.777-.526l-.098-.239.504.226v-.124l.233-.401.232.401v.124l.504-.226-.099.239c.356.104.634.292.777.526l.326-.436-.322 1.87s-.416.104-1.117.123c0 0 .477-.045.759-.153a6.06 6.06 0 0 1-.792.065s.386-.04.643-.138c-.194.026-.47.056-.723.056 0 0 .377-.039.633-.133a3.96 3.96 0 0 0-.823-.088 3.97 3.97 0 0 0-.824.088c.257.094.634.133.634.133-.254 0-.53-.03-.723-.056.256.098.643.138.643.138-.285 0-.599-.038-.792-.065.283.108.759.153.759.153-.701-.02-1.117-.123-1.117-.123l-.321-1.87.327.436z"/><path class="st1" d="M11.436 10.373c-.371.137-.525.355-.575.567l.083.111s-.011.298.049.423l.065-.023c-.193-.795.433-.94.433-.94-.442.228-.401.635-.311.903l.122-.031.067-.329a.154.154 0 0 1-.098-.143.154.154 0 0 1 .275-.093.144.144 0 0 1-.007.249l.141.256a3.35 3.35 0 0 1 .228-.016l-.453-1.104c-.352.103-.627.292-.753.52l.089.119c.213-.421.645-.469.645-.469M12.59 11.044a.15.15 0 0 1-.075-.131c0-.084.069-.153.153-.153.049 0 .093.023.121.06.04.026.068.07.068.122a.143.143 0 0 1-.106.139l.062.304.121.03c.09-.268.131-.675-.311-.903 0 0 .626.146.433.94l.065.023c.06-.126.049-.423.049-.423l.083-.111c-.05-.212-.205-.43-.575-.567 0 0 .432.048.648.47l.089-.119c-.126-.227-.401-.417-.753-.52l-.453 1.104c.077.003.154.008.228.016l.153-.281z"/><path class="st1" d="M11.422 10.781a.13.13 0 0 0-.13.131.13.13 0 1 0 .26 0 .13.13 0 0 0-.13-.131m0 .248a.116.116 0 1 1 0-.232.116.116 0 0 1 0 .232M12.798 10.912a.13.13 0 1 0-.261 0c0 .072.059.131.131.131a.13.13 0 0 0 .13-.131m-.13.117a.116.116 0 1 1 0-.232.116.116 0 0 1 0 .232M10.595 11.245c0-.031-.025-.057-.054-.057-.005 0-.01 0-.015.002l.019.111a.055.055 0 0 0 .05-.056"/><path class="st1" d="M10.694 11.245c0-.091-.068-.164-.153-.164-.011 0-.022.002-.033.004l.004.021a.097.097 0 0 1 .029-.004c.073 0 .132.064.132.143a.14.14 0 0 1-.113.141l.004.021c.074-.011.13-.08.13-.162M13.519 11.245c0 .03.021.054.049.057l.019-.111c-.005-.002-.01-.002-.015-.002-.029-.001-.053.025-.053.056"/><path class="st1" d="M13.55 11.407l.004-.021a.14.14 0 0 1-.113-.141c0-.079.06-.143.131-.143.011 0 .021.001.03.004l.004-.021a.127.127 0 0 0-.034-.004c-.084 0-.153.073-.153.164a.16.16 0 0 0 .131.162M12.057 10.197a.069.069 0 0 0 .069-.068.07.07 0 0 0-.069-.069.069.069 0 0 0-.068.069c0 .037.03.068.068.068m0-.128a.06.06 0 0 1 0 .121.06.06 0 0 1-.06-.06.06.06 0 0 1 .06-.061M12.424 10.328a.068.068 0 0 0 .067-.068.068.068 0 0 0-.067-.068.068.068 0 0 0 0 .136m0-.128a.06.06 0 0 1 .06.06.06.06 0 0 1-.06.06.061.061 0 0 1-.061-.06.06.06 0 0 1 .061-.06M11.655 10.328a.069.069 0 0 0 .068-.068.069.069 0 0 0-.068-.068.069.069 0 0 0-.068.068c0 .037.03.068.068.068m0-.128a.06.06 0 0 1 .06.06.06.06 0 0 1-.06.06.06.06 0 0 1-.06-.06.06.06 0 0 1 .06-.06"/><path class="st2" d="M6.797 10.483l5.26 3.802 5.26-3.802V8.167H6.797v2.316zm.332-1.739h9.857v1.57l-4.929 3.562-4.928-3.562v-1.57zM6.797 7.842h10.52V1.634H6.797v6.208zm10.188-.488H7.128V1.966h9.857v5.388z"/><path class="st2" d="M15.864 3.405h-2.917v1.138h2.917V3.405zm-.086 1.053h-2.746V3.49h2.746v.968z"/><path class="st2" d="M13.032 6.501V5.129h2.747v1.372h.912s-.316-.485-.316-1.841c0-1.356.316-1.842.316-1.842H12.12s.316.485.316 1.842c0 1.356-.316 1.841-.316 1.841h.912zm-.775-3.597h4.296c-.097.226-.264.76-.264 1.756s.168 1.531.264 1.756h-.689V5.044h-2.917v1.372h-.689c.096-.225.264-.76.264-1.756-.001-.996-.169-1.53-.265-1.756M11.434 6.501s.334-.455.334-1.148c0 0-.457.477-1.531.477h-1.9V4.66c0-1.356.315-1.842.315-1.842H7.424s.315.485.315 1.842c0 1.356-.315 1.841-.315 1.841h4.01zM7.561 2.904h.954c-.096.226-.264.76-.264 1.756v1.255h1.986c.761 0 1.217-.23 1.435-.379a2.07 2.07 0 0 1-.284.88H7.561c.096-.226.264-.76.264-1.756s-.168-1.53-.264-1.756M11.824 10.154l-.426-.191.426 1.035v-.844zm-.146.196a.07.07 0 0 1-.042-.014.08.08 0 0 1-.061-.077.08.08 0 0 1 .08-.079c.026 0 .049.012.063.031a.075.075 0 0 1-.04.139M12.29 10.154v.844l.426-1.035-.426.191zm.157.196a.07.07 0 0 1-.042-.014.078.078 0 0 1-.06-.077c0-.044.035-.079.079-.079a.08.08 0 0 1 .063.031.075.075 0 0 1 .035.063.075.075 0 0 1-.075.076M12.247 10.137l-.191-.248-.19.248.19.226.191-.226zm-.27-.008a.08.08 0 0 1 .08-.08.08.08 0 0 1 .08.08.08.08 0 0 1-.08.078.079.079 0 0 1-.08-.078"/><path class="st2" d="M13.546 11.428a.182.182 0 0 1-.148-.183c0-.102.078-.185.174-.185.012 0 .025.002.037.005l.118-.688-.515.689c.011.33-.07.464-.07.464s-.173-.07-.365-.109l-.067-.333a.14.14 0 0 1-.078-.025l-.003-.002-.169.309s-.214-.02-.321-.02l.096-.296-.178-.458-.177.458.095.296c-.107 0-.321.02-.321.02l-.156-.286a.153.153 0 0 1-.091-.01l-.07.347c-.192.039-.365.109-.365.109s-.08-.134-.07-.464l-.515-.689.119.688c.012-.002.024-.005.037-.005.095 0 .174.083.174.185a.184.184 0 0 1-.149.183l.103.595a4.056 4.056 0 0 1 1.387-.251c.679 0 1.225.189 1.387.251l.101-.595zm-.089-.008l.069.03-.072.072.003-.102zm-2.868.029l.068-.03.004.102-.072-.072zm-.076-.413l.042-.093.033.096-.075-.003zm.173.056l-.063-.04.084-.059-.021.099zm.025.029l.102-.008-.069.075-.033-.067zm-.018.269l.041-.063.059.083-.1-.02zm.051-.089l.006-.075.091.045-.097.03zm.295.364c0-.035.028-.062.062-.062s.062.027.062.062a.063.063 0 0 1-.062.063.064.064 0 0 1-.062-.063m.092.085a.068.068 0 0 1-.031-.008h.002a.077.077 0 0 0 .059-.125.07.07 0 0 1 .039.063.069.069 0 0 1-.069.07m.502-.191a.062.062 0 0 1 .124 0c0 .035-.028.062-.062.062s-.062-.027-.062-.062m.092.086a.075.075 0 0 1-.031-.008h.001a.076.076 0 0 0 .06-.124.068.068 0 0 1 .039.062.07.07 0 0 1-.069.07m.266-.618c0-.034.028-.061.062-.061.035 0 .062.028.062.061a.063.063 0 0 1-.062.063.063.063 0 0 1-.062-.063m.092.085a.055.055 0 0 1-.031-.008l.001.001a.078.078 0 0 0 .077-.078.069.069 0 0 0-.017-.046c.023.01.039.034.039.061a.07.07 0 0 1-.069.07m.231.447a.06.06 0 0 1 .062-.061c.034 0 .062.028.062.061a.062.062 0 0 1-.062.062.061.061 0 0 1-.062-.062m.091.086a.084.084 0 0 1-.031-.008h.001a.076.076 0 0 0 .06-.124.07.07 0 0 1-.03.132m.503.02c0-.035.028-.062.063-.062a.06.06 0 0 1 .061.062.063.063 0 0 1-.061.063.063.063 0 0 1-.063-.063m.092.085a.065.065 0 0 1-.031-.008h.001a.077.077 0 0 0 .076-.077.08.08 0 0 0-.016-.048.07.07 0 0 1 .039.063.07.07 0 0 1-.069.07m.559-.807l.042.093-.075.003.033-.096zm-.069.109l-.062.04-.021-.099.083.059zm-.087.069l-.032.067-.07-.075.102.008zm-.039.104l.006.075-.098-.03.092-.045zm-.044.184l.059-.083.041.063-.1.02z"/><path class="st0" d="M7.128 10.313l4.928 3.562 4.929-3.562v-1.57H7.128v1.57zm3.157-.275l.354.473a1.49 1.49 0 0 1 .672-.44l-.139-.34.251.103-.016-.031.313.016.189-.335-.079-.138a3.782 3.782 0 0 0-.079-.068l.09-.17.191.013.004.105.022.036.022-.036.004-.105.191-.013.09.17-.079.068a6.01 6.01 0 0 0-.079.138l.189.335.313-.016-.016.031.251-.103s-.114.28-.14.34c.316.105.549.29.672.44l.354-.473.075.033-.366 2.096s-.521.133-1.482.133-1.482-.133-1.482-.133l-.365-2.096.075-.033zM7.128 7.354h9.857V1.966H7.128v5.388zm4.306-.853h-4.01s.316-.485.316-1.841c0-1.356-.316-1.842-.316-1.842h1.227s-.315.485-.315 1.842v1.17h1.901c1.074 0 1.531-.477 1.531-.477 0 .693-.334 1.148-.334 1.148m5.256 0h-.912V5.13h-2.746v1.372h-.912s.316-.485.316-1.841c0-1.356-.316-1.842-.316-1.842h4.57s-.316.485-.316 1.842c0 1.355.316 1.84.316 1.84"/><path class="st0" d="M13.032 3.49h2.746v.968h-2.746zM11.422 10.796a.116.116 0 1 0 0 .232.116.116 0 0 0 0-.232M12.668 10.796a.116.116 0 1 0 0 .232.116.116 0 0 0 0-.232"/><path class="st0" d="M11.754 12.205s-.477-.045-.759-.153c.193.027.506.065.792.065 0 0-.386-.04-.643-.138.194.026.47.056.723.056 0 0-.377-.039-.634-.133a3.97 3.97 0 0 1 .824-.088c.312 0 .594.039.823.088a3.206 3.206 0 0 1-.633.133c.253 0 .529-.03.723-.056-.257.097-.643.138-.643.138.285 0 .599-.038.792-.065-.283.108-.759.153-.759.153.701-.02 1.117-.123 1.117-.123l.322-1.87-.326.436c-.143-.233-.421-.422-.777-.526l.098-.24-.504.226v-.123l-.232-.401-.233.401v.124l-.505-.226.099.24c-.356.104-.634.292-.778.526l-.326-.436.321 1.87c.001-.002.417.102 1.118.122m1.814-.903a.055.055 0 0 1-.049-.057c0-.031.024-.057.053-.057.005 0 .01 0 .015.002l-.019.112zm.034-.196a.099.099 0 0 0-.03-.004c-.073 0-.132.064-.132.143 0 .072.05.131.113.141l-.003.021a.16.16 0 0 1-.131-.162c0-.091.068-.164.153-.164.012 0 .023.002.033.004l-.003.021zm-1.312-.952l.425-.191-.425 1.035v-.844zm.371.051c.352.103.627.293.753.52l-.089.119a.893.893 0 0 0-.648-.47c.371.137.525.355.575.567l-.083.111s.011.298-.049.423l-.065-.023c.193-.795-.433-.94-.433-.94.442.228.401.635.311.903a6.755 6.755 0 0 0-.121-.031l-.061-.304a.144.144 0 0 0 .038-.261.153.153 0 1 0-.2.224l-.154.281a3.35 3.35 0 0 0-.228-.016l.454-1.103zm.007.838a.131.131 0 0 1-.131-.131.13.13 0 0 1 .261 0 .13.13 0 0 1-.13.131m-.611-1.155l.19.248-.19.226-.19-.226.19-.248zm-.658.075l.425.191v.844l-.425-1.035zm.053.242l.453 1.104a4.078 4.078 0 0 0-.228.016l-.141-.256a.144.144 0 0 0 .007-.249.154.154 0 0 0-.275.093c0 .065.041.121.098.143l-.066.328c-.044.01-.084.021-.121.031-.09-.268-.131-.675.311-.903 0 0-.626.146-.433.94a2.179 2.179 0 0 0-.065.023c-.059-.125-.049-.423-.049-.423l-.083-.111c.05-.212.204-.43.575-.567 0 0-.432.047-.648.47l-.089-.119c.127-.228.403-.417.754-.52m-.03.838a.131.131 0 0 1 0-.262.13.13 0 1 1 0 .262m-.896.147c.005-.002.01-.002.015-.002.03 0 .053.025.053.057 0 .03-.021.054-.049.057l-.019-.112zm.034.196a.14.14 0 0 0 .113-.141c0-.079-.059-.143-.132-.143-.01 0-.02.001-.03.004l-.004-.021a.186.186 0 0 1 .034-.004c.085 0 .153.073.153.164a.16.16 0 0 1-.131.162l-.003-.021zm.155-.141c0-.102-.078-.186-.174-.186a.142.142 0 0 0-.036.005l-.119-.688.516.689c-.011.33.07.464.07.464s.173-.07.365-.109l.07-.346a.155.155 0 0 0 .091.01l.157.286s.214-.02.32-.02l-.096-.296.178-.458.177.458-.096.296c.107 0 .321.02.321.02l.169-.309.002.002c.023.015.05.024.08.025l.068.333c.191.039.364.109.364.109s.081-.134.07-.464l.515-.689-.118.688a.15.15 0 0 0-.037-.005c-.096 0-.175.083-.175.186 0 .092.065.169.148.183l-.103.595a4.056 4.056 0 0 0-1.387-.251c-.679 0-1.225.188-1.388.251l-.102-.595a.184.184 0 0 0 .15-.184"/><path class="st0" d="M11.806 9.97l.251-.432.251.432h.199l.025-.047h-.198l-.25-.432.123-.209.029-.03-.021-.031-.045.004-.007.037-.106.183-.106-.183-.007-.037-.046-.004-.02.031.03.03.122.209-.25.432h-.198l.024.047zM11.695 11.636h-.001c.01.005.02.008.031.008a.07.07 0 0 0 .03-.132.08.08 0 0 1 .017.047.077.077 0 0 1-.077.077M11.102 11.742H11.1c.009.005.02.008.03.008a.07.07 0 0 0 .031-.132c.01.013.017.029.017.048a.077.077 0 0 1-.076.076M12.376 11.636h-.001c.009.005.02.008.031.008a.07.07 0 0 0 .031-.132.08.08 0 0 1 .017.047.079.079 0 0 1-.078.077M12.97 11.742h-.001c.009.005.02.008.03.008a.07.07 0 0 0 .07-.07.07.07 0 0 0-.039-.062.072.072 0 0 1 .017.048.077.077 0 0 1-.077.076M12.053 11.106l-.001-.001c.009.005.02.008.03.008a.07.07 0 0 0 .07-.069.068.068 0 0 0-.039-.061c.01.012.017.029.017.046a.078.078 0 0 1-.077.077"/><path class="st0" d="M11.695 11.622a.062.062 0 0 0 .062-.062.062.062 0 0 0-.062-.062.062.062 0 0 0-.062.062c0 .034.027.062.062.062M11.102 11.728a.063.063 0 0 0 .062-.063.062.062 0 0 0-.062-.062.062.062 0 0 0-.062.062.062.062 0 0 0 .062.063M12.376 11.622a.062.062 0 0 0 .062-.062.062.062 0 0 0-.062-.062.062.062 0 0 0-.062.062c0 .034.027.062.062.062M12.97 11.728a.063.063 0 0 0 .062-.063.062.062 0 0 0-.062-.062.062.062 0 0 0-.062.062c0 .034.028.063.062.063M12.053 11.09a.063.063 0 0 0 .062-.063.062.062 0 0 0-.124 0c0 .035.028.063.062.063M10.513 11.036l.075.003-.033-.095zM10.686 11.092l.021-.099-.083.059zM10.813 11.113l-.102.008.033.068zM10.744 11.301l.097-.03-.091-.045zM10.734 11.326l-.041.064.1.019zM10.589 11.449l.072.073-.004-.102zM13.559 10.944l-.034.095.075-.003zM13.49 11.052l-.083-.059.02.099zM13.403 11.121l-.102-.008.069.076zM13.364 11.226l-.092.045.098.03zM13.32 11.409l.1-.019-.04-.064zM13.457 11.42l-.004.102.072-.073zM12.136 10.129a.08.08 0 0 0-.08-.08.08.08 0 0 0-.08.08.08.08 0 0 0 .08.078.078.078 0 0 0 .08-.078m-.147 0c0-.038.031-.069.068-.069a.07.07 0 0 1 .069.069c0 .037-.03.068-.069.068a.067.067 0 0 1-.068-.068M12.487 10.211a.08.08 0 0 0-.063-.031.08.08 0 0 0-.02.156.07.07 0 0 0 .042.014.075.075 0 0 0 .075-.075.071.071 0 0 0-.034-.064m-.063.117a.068.068 0 0 1 0-.136c.037 0 .067.031.067.068a.067.067 0 0 1-.067.068M11.718 10.211a.08.08 0 0 0-.063-.031.08.08 0 0 0-.02.156.07.07 0 0 0 .042.014.075.075 0 0 0 .075-.075.073.073 0 0 0-.034-.064m-.063.117a.069.069 0 0 1-.068-.068c0-.037.031-.068.068-.068.037 0 .068.031.068.068a.069.069 0 0 1-.068.068"/><path class="st0" d="M12.117 10.129a.06.06 0 0 0-.06-.061.06.06 0 0 0 0 .121.06.06 0 0 0 .06-.06M12.424 10.2a.06.06 0 0 0-.061.06.06.06 0 0 0 .121 0 .059.059 0 0 0-.06-.06M11.655 10.2a.06.06 0 0 0-.06.06c0 .034.027.06.06.06a.06.06 0 0 0 .06-.06.06.06 0 0 0-.06-.06"/><g><path class="st0" d="M16.248 13.352a.125.125 0 0 0-.126-.126h-.178v.423h.08v-.172h.057l.079.172h.088l-.083-.18a.122.122 0 0 0 .083-.117zm-.126.047h-.099v-.092h.099c.026 0 .047.021.047.046a.047.047 0 0 1-.047.046z"/><path class="st0" d="M16.095 13.068a.37.37 0 1 0 .001.741.37.37 0 0 0-.001-.741zm0 .661a.29.29 0 1 1 0-.58.29.29 0 0 1 0 .58z"/></g></g></svg>