<svg xmlns="http://www.w3.org/2000/svg" viewBox="0 0 24 16" style="enable-background:new 0 0 24 16" xml:space="preserve"><path style="fill:#fff" d="M12.854 4.544c-2.869.093-5.45.808-5.45.808l-.059-.38-.263.444s-1.297.476-2.154.925c1.098-.379 1.989-.612 1.989-.612l-.266.564.486-.435c.119.063.231.125.351.188l-.049-.418c.001 0 2.895-.805 5.415-1.084z"/><path style="fill:#ddc9a3" d="M23.884 3.849s-.847-.282-1.58-.422c.01-.002.819-.649.819-.649s-3.265-.862-7.15-.604c0 0-.565-1.848-3.178-1.848-1.944 0-3.054 1.219-3.399 2.168-3.666.819-6.455 2.695-6.455 2.695l.673.508C1.889 6.616.116 8.075.116 8.075s.174.875 1.233 2.268c0 0 .709.542 2.577 1.248 0 0 .357-.09.535-.181.256.086.521.158.781.206-.011.235-.079.572.356.971l-.316.167s.39.966 2.539 1.474c.821-.198 4.554-.904 5.843 1.445l6.495-6.387h-1.383l5.108-5.437zm-4.848 5.797L13.74 15.13s-1.391-2.254-5.911-1.268c0 0-1.585-.423-2.01-.986l.379-.221c-.281-.103-.631-.47-.631-.652 0-.044.042-.078.11-.078.179 0 .552.224 1.339.224.878 0 1.632-.174 1.632-.682 0-.351-.963-.364-.963-.625 0-.337 1.417-.52 2.139-.52 0 0-.992-.061-1.869-.061-1.464 0-1.849.241-1.849.413 0 .236.641.3.641.511 0 .122-.349.16-.662.16-.855 0-1.656-.318-1.656-.318s-.251.141-.484.194c0 0-1.613-.628-2.347-1.139 0 0-.792-1.021-1.062-1.867 0 0 1.912-1.546 3.757-2.454l-.716-.541s2.945-1.799 6.074-2.416c0 0 .685-2.042 2.971-2.042 2.365 0 2.851 1.845 2.851 1.845s2.431-.224 5.981.487l-.657.507s1.057.22 1.847.52L17.79 9.646h1.246zM15.069 14.901a.387.387 0 1 0 0 .773.387.387 0 0 0 0-.773zm0 .691a.304.304 0 1 1 0-.608.304.304 0 0 1 0 .608z"/><path style="fill:#ddc9a3" d="M15.227 15.198a.131.131 0 0 0-.131-.131h-.186v.442h.083v-.18h.059l.084.18h.092l-.088-.187a.132.132 0 0 0 .087-.124zm-.131.048h-.103v-.096h.103c.027 0 .049.022.049.048a.049.049 0 0 1-.049.048z"/><path style="fill:#eba900" d="M14.737 3.228a23.665 23.665 0 0 0-4.317.253 2.187 2.187 0 0 0 .004.568c1.361-.146 2.861-.195 4.36-.036a2.196 2.196 0 0 0-.047-.785zM12.601 5.949c.81 0 1.516-.438 1.898-1.09a49.178 49.178 0 0 0-3.338.551c.386.336.889.539 1.44.539zM12.601 1.552a2.199 2.199 0 0 0-2.182 1.929s1.103-.496 4.103-.799a2.196 2.196 0 0 0-1.921-1.13z"/><g><path style="fill:#aa182c" d="M14.737 3.228a2.196 2.196 0 0 1 .047.785c.954.101 1.908.286 2.826.584a33.462 33.462 0 0 0-3.11.263 2.197 2.197 0 0 1-3.338.552c-2.125.423-3.617.85-3.617.85 1.051.047 1.645.291 1.645.291-2.717.55-5.244 1.597-6.064 1.955.196.312.451.676.451.676l-.405.501c.726.132 1.624.055 1.624.055l1.348-.825 1.057.317.319-.435h-.348l.697-1.123.586 1.122h-.263l.178.387.73-.13.311-.396h-.278l.415-.638h-.312l.657-1.113.561 1.149h-.248l.377.67h-.297l.608 1.108.608-.854h-.417l.628-.945h-.403l.907-1.555.785 1.575h-.327l.536.925h-.378l.519 1.148.88-1.437h-.485l.719-1.169h-.441l.962-1.955 1.01 2.047h-.357l.65 1.077h-.445l.498 1.066.813-1.237h-.437l.944-1.36h-.507l1.511-2.086.797 1.435 1.695-2.085c-1.953-.732-4.18-1.122-6.422-1.195zM10.403 3.751a2.2 2.2 0 0 1 .017-.27c-2.044.313-3.95.897-5.497 1.735 0 0 2.387-.835 5.5-1.167a2.26 2.26 0 0 1-.02-.298z"/></g><path style="fill:#124734" d="M22.644 4.121c-.791-.3-1.847-.52-1.847-.52l.657-.507c-3.55-.711-5.981-.487-5.981-.487S14.986.762 12.622.762c-2.286 0-2.971 2.042-2.971 2.042-3.13.616-6.074 2.416-6.074 2.416l.717.54C2.449 6.668.537 8.215.537 8.215c.27.846 1.062 1.867 1.062 1.867.734.511 2.347 1.139 2.347 1.139.232-.053.484-.194.484-.194s.801.318 1.656.318c.313 0 .662-.037.662-.16 0-.211-.641-.275-.641-.511 0-.172.385-.413 1.849-.413.877 0 1.869.061 1.869.061-.722 0-2.139.183-2.139.52 0 .26.963.274.963.625 0 .508-.754.682-1.632.682-.787 0-1.16-.224-1.339-.224-.069 0-.11.034-.11.078 0 .183.35.55.631.652l-.379.221c.425.563 2.01.986 2.01.986 4.52-.986 5.911 1.268 5.911 1.268l5.296-5.484H17.79l4.854-5.525zm-5.488 4.398-.813 1.237-.498-1.066h.445l-.65-1.076h.354l-1.01-2.047-.962 1.955h.441l-.718 1.168h.485l-.88 1.437-.519-1.147h.378l-.536-.925H13l-.785-1.575-.907 1.555h.403l-.627.945h.417l-.608.854-.608-1.108h.297l-.377-.67h.248l-.56-1.15-.657 1.113h.312l-.415.638h.278l-.311.396-.73.13-.178-.387h.262l-.585-1.122-.697 1.123h.348l-.319.436-1.057-.318-1.348.825s-.898.077-1.624-.055l.406-.502s-.255-.364-.451-.676c.82-.358 3.346-1.405 6.064-1.955 0 0-.594-.244-1.645-.291 0 0 1.492-.427 3.615-.851a48.56 48.56 0 0 1 3.338-.551 33.808 33.808 0 0 1 3.11-.263 13.902 13.902 0 0 0-2.826-.584c-1.5-.159-2.999-.11-4.36.036-3.113.332-5.5 1.167-5.5 1.167 1.547-.837 3.453-1.421 5.497-1.734a2.198 2.198 0 0 1 4.103-.799c-3 .303-4.103.799-4.103.799 1.398-.214 2.861-.3 4.317-.253 2.242.073 4.47.463 6.423 1.194l-1.695 2.085-.797-1.435-1.511 2.086h.507l-.944 1.36h.436zM7.488 6.047l-.351-.188-.486.435c.09-.19.177-.371.266-.564 0 0-.892.234-1.989.612.856-.45 2.154-.925 2.154-.925l.263-.444.059.381s2.581-.716 5.45-.808c-2.52.278-5.414 1.083-5.415 1.084l.049.417z"/></svg>