<svg xmlns="http://www.w3.org/2000/svg" viewBox="0 0 252.044 172.62"><title>Montréal Canadiens light logo</title><g fill="#FFF"><path d="M224.21 85.135l18.033-18.95-10.25-47.235-45.59-13.532-4.103 3.798C167.07 4.674 139.633-.026 121.334 0 53.516.106.212 37.833 0 85.865c0 41.1 35.443 86.755 121.92 86.755 68.52 0 130.124-45.615 130.124-45.615l-27.834-41.87zm11.142 58.695a5.103 5.103 0 0 0-5.113 5.1 5.093 5.093 0 0 0 5.112 5.098c2.802 0 5.073-2.27 5.073-5.1 0-2.814-2.27-5.098-5.073-5.098zm0 9.11a4.01 4.01 0 1 1 0-8.02c2.19 0 4.01 1.793 4.01 4.01s-1.82 4.01-4.01 4.01z"/><path d="M237.45 147.747c0-.956-.783-1.726-1.74-1.726h-2.47v5.817h1.102v-2.377h.783l1.115 2.377h1.208l-1.17-2.47c.68-.24 1.172-.863 1.172-1.62zm-1.74.638h-1.368v-1.275h1.368c.36 0 .637.28.637.637s-.278.638-.637.638z"/></g><path d="M218.168 84.617l18.937-19.88-9.136-42.068-40.317-11.966-4.143 3.838c-13.585-4.488-42.693-9.853-62.16-9.827C55.202 4.835 4.912 41.127 4.726 85.878c-.212 46.943 45.323 82.014 117.19 82.014 50.317 0 101.854-26.838 123.633-42.11l-27.382-41.165z" fill="#192168"/><path d="M211.09 88.986s-28.55 19.494-60.023 25.364V59.04c34.168 4.304 54.42 26.64 54.42 26.64l22.787-23.53-7.317-33.014-31.127-9.11-3.944 4.303c-12.63-4.94-38.696-11.342-67.566-11.342-57.82 0-105.054 32.774-105.133 73.196-.08 39.374 39.998 73.462 104.695 73.462 59.758 0 102.902-28.484 116.42-36.107L211.09 88.985zM112.464 78.56V55.908c7.9-.385 16.68.013 22.894.757v21.898h-22.894zm22.88 14.994v22.814c-6.44.77-16.254.956-22.894.478V93.554h22.894zm-39.307-36.32v58.045c-9.535 0-39.945-11.182-39.945-28.79 0-21.78 31.088-27.795 39.945-29.255z" fill="#FFF"/><path d="M87.684 105.16V67.353c-10.902 3.174-23.146 9.35-23.146 19.136 0 6.692 10.332 14.78 23.146 18.67zm108.533-17.01c-8.54-7.517-20.982-15.392-36.73-19.23v34.885c11.884-3.293 24.925-8.87 36.73-15.656zm-77.605-16.23h10.69v-8.857l-10.69-.425v9.282zm-.24 28.617h10.996v9.308h-10.995v-9.31z" fill="#FFF"/><path d="M209.43 97.18c-37.355 21.937-62.24 26.2-92.558 25.92-42.627-.398-66.915-17.462-66.915-37.78 0-18.312 22.27-35.775 67.778-35.775 30.622 0 67.526 8.207 87.246 27.648l16.4-16.732-5.59-26.558-24.195-7.065-4.395 4.967c-13.266-5.312-35.695-12.67-70.182-12.67-52.042 0-97.684 30.066-97.684 66.45 0 38.007 39.745 67.806 96.143 67.806 57.208 0 90.778-21.553 110.166-31.738L209.43 97.18z" fill="#AF1E2D"/></svg>