<svg xmlns="http://www.w3.org/2000/svg" viewBox="0 0 250.259 146.644"><title>Nashville Predators dark logo</title><path d="M4.53 50.044c.512.063 51.112 7.124 51.112 36.935 0 10.93-7.656 22.008-7.73 22.112-1.98 2.816-.76 7.364 3.328 8.105l29.133 5.257c3.14 2.42 10.744 7.218 21.644 7.218 13.34 0 17.94-4.986 19.35-9.596 6.487-3.035 14.863-9.607 14.863-15.99 0-4.548-4.026-7.594-7.802-7.614a7.635 7.635 0 0 0-3.244-2.034 35.666 35.666 0 0 1 9.794-5.007c10.243-3.4 23.094-6.34 31.7-8.145-13.206 31.7-50.663 48.4-51.05 48.576-3.827 1.68-3.013 5.717-3.013 5.717l-2.514 1.127c-5.35 2.4-3.316 10.42 2.546 9.92 43.62-3.713 75.83-18.9 98.466-46.396h7.96c.875 0 1.74-.22 2.513-.647 8.084-4.515 13.53-4.422 13.58-4.422a5.195 5.195 0 0 0 4.893-2.89c4.13-8.406 8.595-12.902 8.637-12.954 1.627-1.627 1.93-3.786 1.168-5.664l-6.697-16.397a5.162 5.162 0 0 0-2.545-2.712L227.898 48.4l-3.6-2.764-5.33-6.603-1.804-8.094a5.205 5.205 0 0 0-2.503-3.39l-8.825-5.017-5.507-5.53c-.46-.468-1-.833-1.606-1.094L163.162.436a5.137 5.137 0 0 0-3.088-.335l-48.2 9.63c-12.84-.96-24.126.552-25.388.73-3.953.656-4.61 4.234-4.412 5.225-4.37.876-70.21 14.03-70.21 14.03a5.21 5.21 0 0 0-3.118 1.95L1.068 41.762c-2.472 3.233-.376 7.78 3.463 8.282m-1.74-6.98l7.676-10.096a3.073 3.073 0 0 1 1.815-1.137l72.536-14.487c-1.022-1.033-1.012-4.245 1.96-4.736.49-.073 12.048-1.72 25.254-.7l48.46-9.68a3.081 3.081 0 0 1 1.806.2l35.558 15.468c.355.156.668.365.94.636l5.715 5.738 9.084 5.163a3.053 3.053 0 0 1 1.46 1.983l1.91 8.584 5.81 7.197 3.984 3.067 12.924 6.25a3.03 3.03 0 0 1 1.492 1.584l6.697 16.387c.596 1.45-.03 2.66-.677 3.308-.042.042-4.715 4.715-9.054 13.54a3.09 3.09 0 0 1-2.88 1.69c-.052 0-5.935-.2-14.686 4.682-.45.25-.96.386-1.48.386h-8.95c-22.25 27.495-54.21 42.703-97.653 46.406-3.316.282-4.682-4.38-1.48-5.79l4.506-2.012c-1.012-.647-1.45-3.745 1-4.81.44-.187 41.6-18.534 53.625-53.477-7.905 1.596-23.698 4.996-35.808 9.012-7.854 2.597-12.767 6.665-15.74 10.087 1.21-.51 2.764-1.23 4.204-1.23 3.348 0 4.725 2.555 4.725 2.555.303-.052.585-.156.888-.156 2.743 0 5.685 2.19 5.685 5.456 0 5.236-8.105 11.735-14.54 14.478-.845 4.026-4.516 8.94-17.513 8.94-10.973 0-18.515-5.3-20.757-7.094l-29.637-5.35c-2.39-.428-3.098-3.087-1.94-4.736.083-.115 8.126-11.64 8.126-23.354 0-31.824-52.467-39.01-53-39.084-2.377-.334-3.4-3.066-2.043-4.86" fill="#FFF"/><path d="M80.1 38.007s-9.512 3.86-16.052 13.716a295.88 295.88 0 0 1 9.805-2.483c2.91-6.76 6.248-11.233 6.248-11.233M225.705 62.29s8.032 5.09 11.63-1.44l-12.277-5.78c-3.432 1.993-6.8 3.026-9.92 3.474 5.925 1.638 10.567 3.745 10.567 3.745" fill="#FFF"/><path d="M48.747 37.714l43.58-9.753s1.72 5.602 9.158 10.098l-.125 1.377c-3.453.7-8.866 2.92-14.03 6.968a295.7 295.7 0 0 1 25.713-3.64l2.2-5.163c-13.674 2.003-19.828-9.628-19.828-9.628l-1.054-3.546L15.025 42.18c8.564.594 17.993 3.316 26.598 7.697 2.045-6.843 7.125-12.163 7.125-12.163m132.856 21.76c-3.64 1.824-6.8 4.307-10.38 7.353l4.12-7.74s-10.857-.438-21.257-.24l-6.79 7.468a30.063 30.063 0 0 0-7.98-1.262c-.156-3.776 1.325-8.084 4.642-12.204-4.402 3.316-7.062 7.572-7.614 12.286-1.93.146-3.818.49-5.643.99-.948-3.14-.844-7.008.606-11.212-2.566 3.912-3.62 8.053-3.087 12.016a30.57 30.57 0 0 0-5.216 2.566c-1.606-2.44-2.587-5.695-2.66-9.565-.928 3.975-.668 7.678.74 10.87-5.81 4.33-8.427 9.565-8.427 9.565-18.442-3.327-29.602 12.11-30 22.937-1.167-7.51 1.232-20.8 16.085-27.13l4.934-11.526c.313-.73.71-1.377 1.2-1.96-16.574 3.097-26.838 9.658-26.838 9.658s-4.464 7.99-2.556 16.147c0 0-2.91-3.952-4.63-10.7a37.354 37.354 0 0 0-1.858 1.887c.605 2.39.928 4.85.928 7.385 0 12.08-5.048 19.672-5.048 19.672l16.898 3.432s6.384 9.294 20.1 9.294c4.34 0 10.034-.48 10.034-3.244 0-2.086-5.132-4.934-5.132-10.984 0-9.826 12.35-20.027 25.597-24.397 15.48-5.1 39.137-11.036 51.028-11.036 33.743 0 32.627 22.28 32.627 22.28l1.638-.074c7.51-4.224 14.165-5.028 16.095-5.174 3.263-12.11-2.912-23.03-52.155-27.36M140.33 35.837c-7.145.302-12.746 2.89-17.013 6.102a272.95 272.95 0 0 1 17.305-.512c2.9-3.84 4.63-8.032 4.63-12.423 0-7.573-3.88-12.016-3.88-12.016l18.776-4.163 5.84 2.868s-13.8 5.3-13.8 20.256c0 2.13.314 4.06.804 5.8 9.93.5 20.183 1.596 30.614 3.484 0 0 3.37 8.178 12.652 8.178 4.496 0 7.927-2.493 7.927-2.493 10.066 7.603 19.276 3.41 19.276 3.41l-3.454-2.868-3.286 1.763 2.044-3.077-1.262-1.43-4.443 2.296 2.784-4.224-.97-1.116-3.755 1.648 2.158-3.66-1.512-2.327c-1.408 6.196-6.936 6.936-11.682 6.56l-.25-2.742a6.709 6.709 0 0 1-10.264-5.685c0-2.117-10.452-11.474-10.452-11.474l13.53 4.172c11.337 3.505 10.837 9.127 10.962 12.173 1.91.844 6.206 1.46 8.146-3.015l-1.43-7.448-9-4.37-6.186-5.79L160.51 9.72l-34.088 7.562c8.032 1.93 14.676 6.123 14.676 6.123s2.558 5.892-.77 12.432m67.852 1.137l-1.69 6.52c0-4.935-2.92-7.76-11.547-12.84l13.237 6.32z" fill="#FFF"/><path d="M46.222 52.432c1.658 1 3.275 2.076 4.83 3.202 1.418-.47 3.086-1.012 4.995-1.596 2.93-11.213 8.94-18.65 8.94-18.65C52.532 40.04 47.254 50.2 46.22 52.432m51.643-25.586s4.975 8.47 13.852 8.47l9.21-.636 7.573-7.906 10.337-1.585c-3.828-2.327-8.157-3.996-12.56-5.185l-8.636 12.068 5.488-12.83a72.244 72.244 0 0 0-4.788-.887l-7.448 10.38 4.61-10.786c-1.94-.24-3.84-.407-5.643-.522l-5.696 7.948 3.442-8.053c-8.042-.344-13.915.302-13.915.302l1.983 1.71 2.192 7.51zm11.65 79.513c1.086 4.912 4.37 6.3 4.684 8.145 0 0 8.53-1.763 14.206-10.19-11.036 5.55-18.89 2.044-18.89 2.044m88.202-29.8c-15.47 0-15.25 32.856-69.782 60.685 46.438-6.707 81.495-38.29 81.495-51.257.012-4.81-7.957-9.43-11.712-9.43" fill="#FFF"/><path d="M247.87 74.472l-6.698-16.387a3.027 3.027 0 0 0-1.492-1.585l-12.924-6.238-3.985-3.067-5.81-7.197-1.908-8.584a3.024 3.024 0 0 0-1.46-1.97l-9.085-5.175-5.716-5.738c-.27-.27-.583-.49-.938-.636l-35.557-15.47a3.07 3.07 0 0 0-1.805-.197l-48.46 9.68c-13.196-1.034-24.764.625-25.254.698-2.973.49-2.983 3.703-1.95 4.736L12.28 31.832a3.063 3.063 0 0 0-1.814 1.137L2.79 43.064c-1.367 1.794-.335 4.537 2.023 4.84.532.073 53 7.25 53 39.074 0 11.723-8.043 23.24-8.127 23.353-1.168 1.648-.46 4.297 1.94 4.736l29.634 5.35c2.243 1.794 9.784 7.093 20.757 7.093 12.997 0 16.668-4.913 17.513-8.94 6.436-2.742 14.54-9.24 14.54-14.477 0-3.265-2.93-5.455-5.685-5.455-.313 0-.595.116-.897.157 0 0-1.387-2.556-4.725-2.556-1.43 0-2.983.72-4.204 1.232 2.972-3.41 7.885-7.48 15.74-10.087 12.11-4.016 27.9-7.416 35.808-9.012-12.016 34.932-53.186 53.29-53.624 53.468-2.45 1.065-2.013 4.173-1 4.82l-4.507 2.013c-3.202 1.408-1.836 6.07 1.48 5.79 43.455-3.693 75.405-18.9 97.653-46.407h8.95c.522 0 1.022-.136 1.48-.376 8.752-4.892 14.635-4.694 14.687-4.694a3.057 3.057 0 0 0 2.88-1.69c4.338-8.824 9.01-13.497 9.053-13.54.667-.624 1.293-1.844.71-3.284m-12.455 15.5s-6.54-.396-16.335 5.06h-8.21l-1.5-.815c-22.166 28.6-53.75 43.538-97.153 47.23 0 0 14.728-6.477 22.708-10.69l-17.22 3.88s46.656-20.247 56.857-60.218c0 0-24.064 4.422-41.2 10.096-16.96 5.612-21.582 17.93-21.582 17.93 6.04-.563 9.158-3.17 11.004-3.17 2.19 0 3.025 2.273 2.45 3.556 1.013-.438 2.254-1.168 3.172-1.168 1.106 0 2.65.94 2.65 2.42 0 3.692-8.23 10.38-14.312 12.34 0 2.253-.887 8.053-14.718 8.053-11.88 0-19.443-6.905-19.443-6.905l-30.416-5.487s8.69-12.235 8.69-25.107c0-34.9-55.638-42.088-55.638-42.088l7.676-10.087 78.45-15.667-4.132-3.536s11.828-1.73 25.023-.647L161.084 5.2l35.57 15.47 5.997 6.028 9.44 5.36 2.066 9.284 6.477 8.032 4.517 3.473 13.205 6.384 6.697 16.388c.01.002-4.985 4.883-9.637 14.354" fill="#FFB81C"/><path d="M225.704 62.29s-4.642-2.118-10.566-3.735c-9.21 1.325-16.21-2.545-16.21-2.545-7.634 0-12.85 1.22-17.324 3.453 49.243 4.33 55.418 15.25 52.164 27.35.375-.032.574-.032.574-.032s3.327-6.216 7.197-10.722c0 0-5.018-10.514-22.604-11.39l6.768-2.38zM73.854 49.24c-3.558.834-6.844 1.68-9.806 2.483a35.6 35.6 0 0 0-4.86 11.004c4.714 4.986 8.218 10.702 9.804 16.95a37.68 37.68 0 0 1 1.857-1.888 39.817 39.817 0 0 1-1.232-9.837c0-6.915 1.993-13.497 4.235-18.713m109.763-4.005c-10.43-1.888-20.684-2.983-30.614-3.484 1.96 6.958 6.843 10.755 6.843 10.755l-5.758 6.33c10.4-.197 21.268.24 21.268.24l-4.12 7.74 10.723-11.796 1.658-9.785zM112.218 55.8l-5.278 1.232 6.102-14.28c-9.294.907-17.93 2.2-25.712 3.66-7.343 5.76-14.186 15.21-14.186 29.27 0 7.04 2.336 12.81 2.336 12.81-1.91-8.158 2.556-16.148 2.556-16.148s10.274-6.56 26.828-9.648c1.158-1.387 2.858-2.357 5.3-2.994 11.89-3.087 24.042-9.794 30.457-18.275-5.934-.01-11.713.167-17.304.51-7.792 5.885-11.098 13.864-11.098 13.864m-57.17 2.985c.26-1.648.604-3.234 1-4.746-1.91.583-3.578 1.126-4.996 1.595a59.13 59.13 0 0 1 3.995 3.15m142.15-14.676c1.408 0 2.45-.67 2.45-.67-.093-.5-.208-.97-.322-1.428-.344.22-.834.428-1.42.428-1.522 0-2.47-1.168-2.47-2.462 0-1.095.75-2.097 1.824-2.368-1.347-1.91-2.703-2.712-2.703-2.712s-2.336 1.325-2.336 4.224c0 2.91 2.442 4.987 4.977 4.987" fill="#FFB81C"/><path d="M60.846 86.98c0 12.87-8.69 25.106-8.69 25.106l30.417 5.487s7.562 6.905 19.443 6.905c13.82 0 14.718-5.8 14.718-8.053 6.08-1.96 14.31-8.647 14.31-12.34 0-1.48-1.543-2.42-2.648-2.42-.918 0-2.16.73-3.17 1.168.573-1.293-.25-3.557-2.452-3.557-1.846 0-4.955 2.608-11.004 3.17 0 0 4.62-12.318 21.58-17.93 17.14-5.673 41.202-10.096 41.202-10.096-10.19 39.97-56.858 60.217-56.858 60.217l17.22-3.87c-7.978 4.214-22.707 10.69-22.707 10.69 43.402-3.69 74.986-18.628 97.152-47.23l1.5.815h8.21c9.794-5.466 16.335-5.06 16.335-5.06 4.652-9.47 9.648-14.352 9.648-14.352l-6.697-16.387-13.205-6.373-4.515-3.494-6.477-8.032-2.065-9.283-9.44-5.36-5.998-6.03-35.57-15.468-48.847 9.753c-13.195-1.085-25.023.647-25.023.647l4.11 3.536-78.45 15.666L5.21 44.9s55.636 7.178 55.636 42.08m67.56 17.324c-5.674 8.438-14.207 10.19-14.207 10.19-.314-1.835-3.6-3.222-4.684-8.135 0 0 7.854 3.504 18.89-2.056m-.47 32.94c54.522-27.83 54.314-60.686 69.783-60.686 3.754 0 11.723 4.62 11.723 9.43 0 12.965-35.07 44.55-81.506 51.256m-20.33-119.932l-3.442 8.063 5.695-7.938a95.54 95.54 0 0 1 5.643.522l-4.61 10.764 7.448-10.38c1.586.24 3.182.543 4.79.888l-5.488 12.83 8.637-12.068c4.4 1.19 8.73 2.858 12.558 5.184L128.5 26.762l-7.573 7.917-9.21.635c-8.877 0-13.852-8.47-13.852-8.47l-2.19-7.51-1.982-1.71s5.872-.647 13.914-.313M15.024 42.18L94.36 24.425l1.043 3.546s6.165 11.63 19.83 9.628l-2.202 5.163-6.1 14.28 5.277-1.23s3.307-7.99 11.098-13.863c4.266-3.213 9.867-5.81 17.013-6.102 3.327-6.54.772-12.413.772-12.413s-6.644-4.193-14.676-6.123l34.088-7.562 34.64 13.998 6.185 5.79 9.002 4.37 1.428 7.447 1.512 2.326-2.16 3.673 3.756-1.648.97 1.116-2.785 4.225 4.455-2.295 1.262 1.43-2.044 3.076 3.296-1.752 3.452 2.858s-9.22 4.193-19.276-3.41c0 0-3.432 2.482-7.927 2.482-9.284 0-12.653-8.178-12.653-8.178l-1.67 9.794-10.722 11.797c3.567-3.046 6.728-5.528 10.38-7.354 4.474-2.232 9.69-3.463 17.324-3.463 0 0 7.008 3.87 16.208 2.545 3.12-.45 6.488-1.492 9.92-3.473l12.266 5.758c-3.588 6.52-11.63 1.44-11.63 1.44l-6.78 2.388c17.597.876 22.603 11.38 22.603 11.38-3.87 4.506-7.197 10.723-7.197 10.723s-.198 0-.574.032c-1.94.146-8.584.95-16.095 5.174l-1.626.073s1.116-22.28-32.627-22.28c-11.89 0-35.548 5.945-51.027 11.045-13.247 4.37-25.597 14.572-25.597 24.397 0 6.05 5.132 8.897 5.132 10.984 0 2.764-5.695 3.244-10.034 3.244-13.715 0-20.11-9.294-20.11-9.294l-16.897-3.432s5.048-7.594 5.048-19.672c0-2.535-.322-4.996-.927-7.385-1.575-6.248-5.08-11.964-9.794-16.95a35.484 35.484 0 0 1 4.86-11.004c6.54-9.867 16.053-13.716 16.053-13.716s-3.338 4.485-6.248 11.234c-2.243 5.216-4.235 11.798-4.235 18.714 0 3.713.51 7.02 1.23 9.836 1.722 6.738 4.632 10.69 4.632 10.69s-2.336-5.757-2.336-12.797c0-14.05 6.843-23.51 14.186-29.27 5.163-4.046 10.577-6.268 14.03-6.967l.135-1.387C94.06 33.562 92.34 27.96 92.34 27.96l-43.59 9.753s-5.08 5.31-7.136 12.162c-8.597-4.38-18.026-7.104-26.59-7.698M46.222 52.43c1.033-2.232 6.31-12.392 18.765-17.044 0 0-6.008 7.437-8.94 18.65a48.984 48.984 0 0 0-1 4.746 62.097 62.097 0 0 0-3.995-3.15 69.161 69.161 0 0 0-4.83-3.202" fill="#041E42"/><path d="M203.612 44.36c-.125-3.057.365-8.68-10.963-12.174l-13.53-4.172s10.452 9.346 10.452 11.474a6.709 6.709 0 0 0 6.707 6.707 6.772 6.772 0 0 0 3.556-1.012l.25 2.743c4.746.365 10.274-.365 11.682-6.56-1.95 4.443-6.248 3.827-8.156 2.993m-6.415-.25c-2.535 0-4.975-2.077-4.975-4.987 0-2.9 2.357-4.224 2.357-4.224s1.345.802 2.7 2.71a2.467 2.467 0 0 0-1.824 2.37c0 1.292.94 2.46 2.472 2.46.584 0 1.074-.218 1.42-.427.124.45.24.928.322 1.43-.012-.002-1.055.666-2.473.666" fill="#041E42"/><path d="M206.49 43.493l1.69-6.51-13.226-6.32c8.626 5.07 11.536 7.896 11.536 12.83m-123.833 59.8c.396-10.828 11.557-26.255 30-22.938 0 0 2.617-5.236 8.427-9.565-1.408-3.18-1.658-6.895-.74-10.858.072 3.88 1.053 7.124 2.66 9.565a30.587 30.587 0 0 1 5.214-2.566c-.532-3.963.522-8.104 3.087-12.015-1.45 4.204-1.554 8.073-.605 11.213 1.825-.5 3.713-.845 5.643-.99.553-4.716 3.213-8.97 7.614-12.288-3.327 4.13-4.81 8.428-4.642 12.204 2.775.063 5.445.49 7.98 1.262l6.79-7.468 5.758-6.33S154.96 48.72 153 41.762a21.297 21.297 0 0 1-.803-5.8c0-14.957 13.8-20.255 13.8-20.255l-5.84-2.868-18.776 4.162s3.88 4.433 3.88 12.016c0 4.39-1.73 8.595-4.63 12.423-6.415 8.48-18.567 15.188-30.458 18.265-2.44.636-4.14 1.606-5.3 2.994a7.431 7.431 0 0 0-1.21 1.95L98.73 76.176c-14.842 6.318-17.24 19.606-16.073 27.116m82.642 35.85c1.668 0 2.972 1.294 2.972 2.922 0 1.658-1.293 2.93-2.983 2.93-1.67 0-3.005-1.282-3.005-2.93 0-1.617 1.335-2.92 3.004-2.92h.01zm-.042.585c-1.283 0-2.243 1.054-2.243 2.326 0 1.293.96 2.326 2.274 2.326 1.282.02 2.22-1.034 2.22-2.327 0-1.283-.938-2.326-2.242-2.326h-.01zm-.438 3.838h-.678v-2.9a5.78 5.78 0 0 1 1.116-.104c.553 0 .803.095 1.012.23a.811.811 0 0 1 .282.626c0 .334-.25.584-.605.688v.03c.282.095.45.324.532.71.093.45.145.626.208.71h-.73c-.094-.105-.146-.356-.23-.7-.05-.323-.228-.46-.604-.46h-.323v1.17h.02zm.01-1.627h.323c.376 0 .678-.125.678-.428 0-.27-.197-.45-.625-.45-.177 0-.302.022-.376.032v.846z" fill="#041E42"/></svg>