<?xml version="1.0" encoding="utf-8"?>
<!-- Generator: Adobe Illustrator 25.0.0, SVG Export Plug-In . SVG Version: 6.00 Build 0)  -->
<svg version="1.1" id="Layer_1" xmlns="http://www.w3.org/2000/svg" xmlns:xlink="http://www.w3.org/1999/xlink" x="0px" y="0px"
	 viewBox="0 0 36.5 37.3" style="enable-background:new 0 0 36.5 37.3;" xml:space="preserve">
<style type="text/css">
	.st0{display:none;}
	.st1{fill:#FFFFFF;}
	.st2{fill:#CC0000;}
</style>
<rect x="-15.1" y="-4.6" class="st0" width="64.7" height="45.1"/>
<g id="Devils_On_Dark">
	<g>
		<path class="st1" d="M36.5,5.2C36.5,0,30.6,0,29.9,0h-1.4c0,0,2,2,2,2.7c0,0.2-0.1,0.3-0.3,0.3h-5.1c-0.2,0-0.3-0.1-0.3-0.3
			c0-0.7,2-2.7,2-2.7c-1.9,0-4.7,0.4-6.6,1.8c-0.5-0.1-1.1-0.1-1.6-0.1C9.6,1.7,2.4,9,2.4,17.9c0,1.8,0.3,3.5,0.8,5
			C2,24.4,0,27.4,0,31.2c0,3.3,1.6,6.1,1.6,6.1S4.5,33,11,33c0.5,0,0.6-0.4,0.6-0.5c2.1,1,4.4,1.5,6.9,1.5c8.9,0,16.2-7.2,16.2-16.2
			c0-2.9-0.7-5.6-2.1-7.9C34.4,9.4,36.5,8,36.5,5.2z M31.6,9.5c1.5,2.4,2.4,5.3,2.4,8.3c0,8.6-6.9,15.5-15.5,15.5
			c-4,0-7.6-1.5-10.3-3.9c-0.1,0.2-0.1,0.3-0.1,0.3c0,1.4,2.9,2.6,2.9,2.6c-6.2,0-9.2,3.7-9.2,3.7s-1.1-2.3-1.1-4.9
			c0-4.3,2.7-7.5,2.7-7.5s0,2.4,1.1,2.4c0.3,0,0.6-0.1,0.8-0.2C3.9,23.6,3,20.8,3,17.9C3,9.3,10,2.4,18.5,2.4c0.6,0,1.2,0,1.8,0.1
			c2-1.6,4.9-1.7,4.9-1.7s-1.5,1.1-1.5,2c0,0.6,0.6,0.9,1.6,0.9h4.4c1,0,1.3-0.5,1.3-1c0-0.9-1.2-2.1-1.2-2.1c3-0.1,5.9,1.3,5.9,4.5
			C35.8,8.3,33.1,9.3,31.6,9.5z"/>
		<path class="st1" d="M14,8.7c0.8,0,2.1,0.3,3.2,1.8l3.3,4.2l1.9-5.1c0,0-3.9,0-3.9-3.6c0-0.8,0.2-1.4,0.5-2c-0.2,0-0.4,0-0.5,0
			C10.9,4,4.7,10.2,4.7,17.9c0,2,0.4,3.9,1.2,5.7l4.3-11.3C11.1,9.8,12.4,8.7,14,8.7z"/>
		<path class="st1" d="M25.2,24.8c-1,2.7-3.8,5.5-8.5,5.5c-3.2,0-4.5-1.5-6.7-1.6c2.4,1.9,5.4,3,8.6,3c7.7,0,13.9-6.2,13.9-13.9
			c0-2.6-0.7-5-1.9-7.1L25.2,24.8z"/>
		<path class="st1" d="M15.7,24.4l1.5-1.5l-1.6-2.9l-1.7,4.5c0,0-1.8-0.5-3.7-0.5c-1.5,0-2.9,0.3-3.8,0.6c0.1,0.2,0.2,0.4,0.3,0.6
			c0.7-0.2,1.7-0.4,3.4-0.4C12.6,24.7,14.9,25.3,15.7,24.4z"/>
	</g>
	<path d="M35.8,5.2c0-3.2-2.9-4.6-5.9-4.5c0,0,1.2,1.2,1.2,2.1c0,0.5-0.3,1-1.3,1h-4.4c-1,0-1.6-0.3-1.6-0.9c0-0.9,1.5-2,1.5-2
		s-3,0.2-4.9,1.7c-0.6-0.1-1.2-0.1-1.8-0.1C10,2.4,3,9.3,3,17.9c0,2.9,0.8,5.7,2.3,8.1c-0.2,0.1-0.5,0.2-0.8,0.2
		c-1.1,0-1.1-2.4-1.1-2.4s-2.7,3.2-2.7,7.5c0,2.6,1.1,4.9,1.1,4.9s3.1-3.7,9.2-3.7c0,0-2.9-1.2-2.9-2.6c0,0,0-0.2,0.1-0.3
		c2.7,2.5,6.4,3.9,10.3,3.9c8.6,0,15.5-6.9,15.5-15.5c0-3.1-0.9-5.9-2.4-8.3C33.1,9.3,35.8,8.3,35.8,5.2z M4.7,17.9
		C4.7,10.2,10.9,4,18.5,4c0.2,0,0.4,0,0.5,0c-0.3,0.6-0.5,1.2-0.5,2c0,3.6,3.9,3.6,3.9,3.6l-1.9,5.1l-3.3-4.2
		C16.1,9,14.9,8.7,14,8.7c-1.7,0-3,1.2-3.9,3.5L5.9,23.5C5.1,21.8,4.7,19.9,4.7,17.9z M6.4,24.6c0.9-0.3,2.3-0.6,3.8-0.6
		c1.9,0,3.7,0.5,3.7,0.5l1.7-4.5l1.6,2.9l-1.5,1.5c-0.9,0.9-3.1,0.3-5.6,0.3c-1.7,0-2.7,0.2-3.4,0.4C6.6,25,6.5,24.8,6.4,24.6z
		 M32.4,17.9c0,7.7-6.2,13.9-13.9,13.9c-3.3,0-6.2-1.1-8.6-3c2.3,0.1,3.5,1.6,6.7,1.6c4.7,0,7.5-2.9,8.5-5.5l5.3-14
		C31.7,12.9,32.4,15.3,32.4,17.9z"/>
	<path class="st2" d="M31.2,1.4c0,0,0.6,0.5,0.6,1.4c0,0.8-0.6,1.6-2,1.6h-4.4c-1.7,0-2.2-0.9-2.2-1.6s0.4-1.1,0.4-1.1
		S19.3,2.5,19.3,6C19.3,9,22.6,9,22.6,9h1l-2.7,7.1l-4.1-5.2c-0.3-0.3-1.2-1.6-2.7-1.6c-2.1,0-2.9,2.3-3.3,3.1L6.5,23.9
		c0,0,1.6-0.6,3.7-0.6c1.8,0,3.3,0.4,3.3,0.4l2-5.3L18,23l-1.8,1.9c-1.2,1.2-3.7,0.6-6,0.6c-4.5,0-4,1.4-5.7,1.4
		c-1.2,0-1.5-1.4-1.5-1.4s-1.7,2.8-1.7,5.8c0,2,0.7,3.7,0.7,3.7s3.5-3,7-3c0,0-1.6-0.7-1.6-2.2c0-0.4,0.5-1.7,2.3-1.7
		c2.7,0,3.8,1.6,7,1.6c4.5,0,7-2.8,7.9-5.1L30.5,9c0,0,4.7,0,4.7-3.8C35.1,1.7,31.2,1.4,31.2,1.4z"/>
</g>
</svg>
