<svg xmlns="http://www.w3.org/2000/svg" viewBox="0 0 246.746 238.029"><title>New York Islanders secondary light logo</title><g fill="#FFF"><path d="M123.373 0C55.238 0 0 53.29 0 119.014s55.238 119.014 123.373 119.014 123.373-53.29 123.373-119.014S191.51 0 123.373 0zm95.27 204.362c-3.376 0-6.113 2.737-6.113 6.114s2.752 6.114 6.114 6.114c3.392 0 6.13-2.752 6.13-6.114a6.118 6.118 0 0 0-6.13-6.114zm0 10.935c-2.647 0-4.804-2.157-4.804-4.805s2.17-4.805 4.803-4.805c2.663 0 4.805 2.157 4.805 4.805s-2.143 4.805-4.806 4.805z"/><path d="M221.158 209.063a2.079 2.079 0 0 0-2.083-2.083h-2.946v6.992h1.322v-2.827h.937l1.323 2.827h1.443l-1.384-2.946a2.087 2.087 0 0 0 1.385-1.963zm-2.068.76h-1.622v-1.548h1.622a.77.77 0 0 1 .774.774c0 .43-.342.77-.774.77v.003z"/></g><path d="M123.373 8.762c-63.286 0-114.58 49.362-114.58 110.252s51.294 110.252 114.58 110.252 114.58-49.36 114.58-110.252S186.66 8.762 123.373 8.762z" fill="#F47D30"/><path d="M230.56 112.498c-.12-1.815-.223-3.63-.43-5.415l.044-.015c-3.243-26.957-17.287-50.73-37.89-67.258a104.036 104.036 0 0 0-6.963-5.118c-17.523-11.857-38.87-18.864-61.945-18.864a111.373 111.373 0 0 0-40.286 7.513 108.684 108.684 0 0 0-28.505 16.366C30.915 58.63 15.83 87.133 15.83 119.014c0 56.993 48.14 103.185 107.545 103.185S230.92 176.006 230.92 119.013c0-2.187-.105-4.374-.24-6.546" fill="#00539B"/><path d="M112.796 177.346l14.683-3.496a4.386 4.386 0 0 0 2.96-2.425l9.117-19.4 8.063-17.152 5.67-12.095 2.796-5.95 5.772-12.26 30.408-64.728a103.76 103.76 0 0 0-6.962-5.118l-19.057 38.68-22.866-49.257c-.266-.595-.846-.952-1.5-.952h-39.677c-.922 0-1.65.744-1.65 1.65v32.254L83.086 23.342a108.573 108.573 0 0 0-28.504 16.364v60.028c0 .922.744 1.65 1.65 1.65h22.54c.906 0 1.65-.743 1.65-1.65V72.91l16.588 27.672c.313.506.834.818 1.43.818h25.26c.922 0 1.65-.744 1.65-1.65V47.68l25.99 55.98-3.108 6.31-18.27 37.16-3.138 6.353c-.64 1.324-1.904 2.217-3.362 2.425l-49.376 6.8c-.43.058-.833.297-1.1.64a1.68 1.68 0 0 0-.313 1.25l3.005 19.74c.074.46.327.878.714 1.13.387.254.863.328 1.31.24l4.893-1.16" fill="#FFF"/><g fill="#F47D30"><path d="M140.705 149.616l-9.566-4.88-1.177 2.395 9.61 4.896 1.13-2.41h.002zm3.778-8.063l-9.417-4.82-1.175 2.41 9.48 4.82 1.114-2.41zm-12.556 1.577l9.536 4.85 1.13-2.41-9.49-4.835-1.176 2.395zm-34.5 37.876l-.862-5.46a.734.734 0 0 0-.55-.595l-9.61-2.334a.736.736 0 0 0-.893.52l-2.9 11.397-5.06 19.727c-.088.37.12.758.492.877l5.653 1.845a.78.78 0 0 0 .58-.06.698.698 0 0 0 .342-.46l1.47-5.773 7.737 2.512 1.116 7.022c.045.268.238.49.49.58l5.907 1.92c.254.088.507.03.715-.135.193-.18.298-.418.253-.685l-4.88-30.9z"/><path d="M148.247 109.97c-6.62-1.042-14.862 3.346-20.664.267-6.665-.208-14.445.238-20.337-2.886-3.853-.61-7.96-.563-11.455-1.962-1.872 3.51-4-1.146-6.23-.46-1.34.416-2.47 1.888-2.203 3.48-.7 3.63-5.103 1.517-7.38 3.035-4.164 2.365-6.485-3.615-10.472-3.556-2.722-.744-5.95-.402-7.468 2.365-2.336.596-3.526-2.454-6.19-1.472-1.844-1.146.834-1.92.135-3.318-1.516-1.65-4.343-2.87-6.485-1.473-.387 2.84 2.663 5.295 1.04 8.3-1.576.312-1.487-1.993-2.84-2.544-1.503-.73-1.577 1.13-2.395 1.86-2.975-.134-2.35-3.45-3.303-5.266-3.45-.536-6.22 1.577-9.076 2.827-1.993 1.532-.684 4.79-2.395 6.382-1.34-1.013-1.206-2.93-2.53-4.12-1.116-.746-2.455-1.267-3.838-.79-1.28.312-1.636 1.384-1.904 2.5.03.67.7 1.19 1.428.996.848.208 1.517 1.205 1.116 2.053-.43.61-.73 1.814-1.77 1.59-1.13-1.07-2.737-2.59-4.33-1.934-.668.595 0 1.413 0 2.053-.728 2.454 1.057 3.867 2.38 5.593.447 1.92.64 4.686-.817 6.085-1.964.387-2.47 2.574-2.648 4.225.46 1.666 2.29 1.547 2.975 2.93.342 1.132-.893 1.994-1.904 2.634a90.49 90.49 0 0 0 1.354 5.61c1.205-.477 2.574-.923 3.362-.804.67.327 1.116.922 1.116 1.592.655 1.265 1.993 2.514 3.51 1.785 1.533-.656 2.917-2.768 4.568-1.905v19.028l5.043 7.23c1.25 1.83 2.068 1.384 2.068-.18v-26.51c2.648-.074 5.653.208 8.093-.774 4.836.34 10.608 1.68 14.803-1.07 3.704-.67 7.156-1.92 11.143-1.906 2.722-.208 5.088.997 7.632.818 3.972-4.492 9.61.834 14.31-2.022 3.66-1.86 6.77 1.398 10.683.803 2.456-.03 6.175-2.766 8.3.507 1.787.878 4.316.55 5.85-.58.936-3.437 4.893-2.113 7.497-2.9 1.726-.373 5.103-2.128 7.394-1.98l.477-.952 9.387 4.775 1.13-2.41-9.342-4.76 11.187-22.79-.003-.003zm15.948 2.29c2.678-3.526 9.49.684 10.37-4.746 1.04-2.84 4.24-1.785 6.232-3.184.595-1.04-.46-1.785-.67-2.722 2.604-2.827 6.115-4.805 8.912-7.736 2.006-1.964 5.13-1.517 7.704-1.562 1.205-.73 2.93-1.785 3.2-3.184l-.343-.46c-3.66-.537-7.616.118-10.993 1.234-3.808 3.422-7.99 5.89-12.54 7.26-3.11 3.942-9.582 5.787-14.193 7.38l-5.772 12.272c2.915-.773 6.783-2.856 8.092-4.552z"/><path d="M58.972 158.14l-10.265-9.253c-3.972-3.57-6.74-.43-6.74 1.86v9.566c0 1.83.61 2.9 1.444 4.002l9.3 12.125c.52.684.73 1.37.73 2.172v1.354c0 1.07-.953.982-1.697.312l-2.008-1.71c-.744-.55-.67-1.697-.67-2.68v-1.234c0-.655-.698-1.83-1.397-2.395l-4.642-4.257c-.714-.67-1.056-.104-1.056 1.696v5.533c0 1.458.936 4.36 3.123 6.323l10.637 9.58c2.59 2.307 4.805.06 4.805-5.265v-6.1c0-3.033-1.354-6.083-2.93-8.15l-7.81-10.19s-.715-.923-.715-2.128v-1.056s.283-1.532 1.517-.417l1.993 1.784c.506.476.863 1.205.863 2.068v1.443c0 .848.223 1.473.997 2.187l3.75 3.362c1.576 1.428 2.35.402 2.35-.848v-5.742c-.03-2.115-.94-3.38-1.578-3.945zm17.346 39.572l-5.638-3.347v-28.073a.985.985 0 0 0-.43-.803l-5.267-3.126a.925.925 0 0 0-.922 0c-.28.164-.49.476-.49.818v33.205c0 .312.18.625.447.788l11.366 6.74a.895.895 0 0 0 .922 0 .89.89 0 0 0 .46-.804v-4.61a.949.949 0 0 0-.447-.788zm73.015-21.987l-14.758 2.93a.94.94 0 0 0-.744.908v33.175c0 .268.136.52.33.7a.907.907 0 0 0 .76.207l14.414-2.59c7.11-1.264 7.11-5.533 7.11-6.456v-26.02s0-4.27-7.11-2.855zm25.395-9.908a.718.718 0 0 0-.714-.045l-13.3 6.5a.702.702 0 0 0-.402.656v33.398c0 .268.12.49.327.625s.46.166.697.06l13.3-5.994a.695.695 0 0 0 .43-.67v-4.715a.755.755 0 0 0-.326-.624.734.734 0 0 0-.7-.06l-5.592 2.53c-.24.104-.492.074-.7-.06s-.327-.357-.327-.61v-6.323c0-.298.18-.55.43-.684l6.786-3.05a.696.696 0 0 0 .43-.67v-4.746a.797.797 0 0 0-.326-.625.716.716 0 0 0-.714-.03l-5.55 2.72a.755.755 0 0 1-.713-.044.7.7 0 0 1-.342-.625v-6.753c0-.283.165-.536.403-.655l6.843-3.346a.732.732 0 0 0 .402-.67v-4.88a.705.705 0 0 0-.342-.607l.002-.003zm16.037 10.86s4.166-3.11 4.166-8.762v-8.748c0-4.642-2.973-5.073-6.365-2.737l-11.083 7.647a.718.718 0 0 0-.31.61v33.026c0 .283.148.52.386.655.238.134.52.104.76-.045l5.637-3.838a.705.705 0 0 0 .327-.595v-12.735l1.16-.818 6.19 8.108a.742.742 0 0 0 .996.164l4.12-2.8a.76.76 0 0 0 .313-.49.647.647 0 0 0-.15-.565l-6.144-8.08v.002zm15.53-38.174l-7.155 7.9c-1.83 2.068-2.232 4.255-2.232 6.784v3.362c0 2.35.476 4.476 3.51 5.116l3.928.878c1.265.298 1.964.64 1.964 1.547v.88c0 1.383-.312 1.71-.908 2.29-.595.58-1.92 1.964-1.92.24v-1.475c0-1.22-.505-1.22-1.293-.43l-4.525 4.64c-.536.477-.774 1.057-.774 2.01v2.96c0 5.325 2.753 6.38 5.55 2.677l6.77-8.94c2.796-3.676 2.796-7.35 2.796-9.478 0-2.53-2.172-3.57-3.72-3.853l-3.317-.564c-1.176-.223-1.504-1.027-1.504-2.172v-1.8c0-.55 0-1.993.952-2.99l.668-.684c.7-.713 1.19-.698 1.19.58v2.604c0 .536.312.848.788.342l4.136-4.27c.7-.73.788-1.86.788-2.633v-4.344c.02-4.496-3.075-4.08-5.694-1.178zm-46.786 4.463c-8.363 0-15.13 2.276-15.13 5.103v8.39c0 2.81 6.767 5.102 15.13 5.102 8.344 0 15.13-2.276 15.13-5.103v-8.39c-.017-2.814-6.8-5.105-15.13-5.105zm-2.65-11.96c3.23 2.47 3.764-2.247 6.382-2.515 1.65-.37 3.035 1.073 4.076 2.263 3.926 1.68 8.657.565 11.84-2.083 3.423-1.46 7.796-.864 11.278-2.352 2.32-1.547 4.567-3.377 7.84-2.827 9.7-3.345 23.565-8.136 33.65-11.676-.118-1.8.224-2.93 0-4.716l-4.03.76c-1.37 5.102-7.246 1.71-9.716 5.34-3.17.193-6.605.446-8.286 3.63-1.012.312-2.47.312-2.856-.922.684-2.916-4.076-3.942-1.89-7.052-.133-1.324-1.725-1.473-2.736-1.056-2.113.774-2.26 3.035-2.514 4.88-2.87.52-3.124-4.508-6.248-3.332-3.2 3.05-7.23 4.448-11.827 3.63-8.138-.625-10.83 9.982-17.778 12.2-2.99.475-7.483-1.25-10.74-2.41l-5.67 12.094 3.32-.834c2.185-.507 3.91-1.965 5.904-3.02zm-27.864 48.02l-5.266-.624a.901.901 0 0 0-.713.223.906.906 0 0 0-.312.7v18.416l-9.715-20.17c-.045-.09-.134-.165-.193-.224-.15-.164-.312-.283-.536-.298l-7.645-.907a.924.924 0 0 0-.73.224.931.931 0 0 0-.31.684v35.182c0 .46.326.863.787.922l5.267.73a.952.952 0 0 0 .743-.224.957.957 0 0 0 .313-.7v-21.35l11.485 22.42c.18.328.507.52.88.507l5.89-.342a.926.926 0 0 0 .863-.922V179.95c.015-.49-.342-.863-.803-.923h-.004z"/></g><path d="M146.24 183.118l-5.282 1.04v22.316l5.61-.997c2.78-.49 2.78-3.63 2.78-3.63v-16.483c-.015 0-.015-2.87-3.11-2.246h.002zm40.67-18.418l-2.29 1.593a.67.67 0 0 0-.313.595v5.876c0 .283.148.52.386.655.238.132.52.102.76-.047l1.59-1.1c.85-.596 1.548-1.994 1.548-3.185v-3.423c-.015-.996-.76-1.606-1.68-.966zm-94.215 31.42L90.6 182.896l-2.93 11.574 5.027 1.65h-.002zm-52.99-50.908v-7.2l-7.112-6.248v13.895c2.172-.583 4.85.16 7.11-.45l.002.002z" fill="#00539B"/><ellipse cx="159.509" cy="148.084" rx="15.13" ry="5.103" fill="#FFF"/></svg>