<?xml version="1.0" encoding="utf-8"?>
<!-- Generator: Adobe Illustrator 24.3.0, SVG Export Plug-In . SVG Version: 6.00 Build 0)  -->
<svg version="1.1" id="Layer_1" xmlns="http://www.w3.org/2000/svg" xmlns:xlink="http://www.w3.org/1999/xlink" x="0px" y="0px"
	 viewBox="0 0 208.98 236.23" style="enable-background:new 0 0 208.98 236.23;" xml:space="preserve">
<style type="text/css">
	.st0{fill:#FFFFFF;}
	.st1{fill:#B79257;}
	.st2{fill:#DA1A32;}
</style>
<g>
	<g>
		<path class="st0" d="M177.65,80.6c-11.522-11.519-26.799-17.918-43.071-18.047c1.171-5.364,2.995-11.092,5.443-17.071l0.044-0.113
			c0.478-1.178,0.348-2.518-0.349-3.583c-0.697-1.063-1.872-1.718-3.143-1.752l-0.114-0.002c-0.724-0.02-1.466-0.031-2.209-0.031
			c-6.101,0-18.271,0.727-31.225,5.603C89.338,50.754,78.389,59.06,70.482,70.294c-3.259,4.631-7.65,12.166-10.061,21.766
			c-0.336,1.333-0.642,2.682-0.916,4.027c-0.45,0.008-0.901,0.013-1.355,0.013c-5.41,0-11.924-0.596-19.357-1.777
			c-6.603-1.05-17.601-4.728-19.963-5.622c-1.651-0.624-3.371-1.322-5.123-2.082l-1.996-0.881l-9.651-4.285L7.86,92.751
			c2.255,4.809,4.315,8.705,5.831,11.072c3.947,6.162,8.507,11.214,13.799,15.261l5.277,9.772c3.105,5.757,6.25,10.36,9.614,14.073
			c1.872,2.065,3.945,3.88,5.352,5.035c1.939,1.595,4.105,3.051,6.442,4.327l2.748,5.961c0.289,0.625,3.189,5.741,7.477,9.99
			c2.768,2.743,7.669,5.869,10.319,6.953l0.326,0.137c2.018,0.856,7.379,3.126,15.914,3.126c1.578,0,3.237-0.086,4.931-0.253
			l0.215-0.022c1.278,1.625,1.944,2.839,2.036,3.706c0.068,0.624-0.169,1.202-0.63,2.244c-0.242,0.488-0.858,1.094-1.571,1.798
			l-0.028,0.028c-0.425,0.42-0.908,0.896-1.379,1.424l-0.137,0.154c-1.054,1.177-1.289,2.857-0.598,4.281
			c0.646,1.326,2.015,2.183,3.489,2.183c0.08,0,0.161-0.002,0.245-0.006l0.204-0.014c3.087-0.193,9.458-1.936,13.757-7.24
			c1.079-1.331,1.986-2.712,2.746-4.186c6.319,2.155,12.981,3.247,19.837,3.247c16.461,0,31.935-6.411,43.575-18.05
			c11.639-11.642,18.05-27.116,18.05-43.577C195.7,107.716,189.29,92.24,177.65,80.6"/>
		<path d="M176.122,82.13c-11.231-11.231-26.163-17.416-42.047-17.416c-0.698,0-1.417,0.016-2.141,0.041
			c1.355-7.42,3.829-14.567,6.085-20.085l0.044-0.112c0.212-0.522,0.155-1.116-0.154-1.585c-0.308-0.472-0.828-0.761-1.391-0.776
			l-0.118-0.002c-0.706-0.02-1.428-0.031-2.149-0.031c-5.953,0-17.83,0.71-30.463,5.465c-13.276,4.995-23.887,13.04-31.538,23.912
			c-3.155,4.48-7.403,11.77-9.734,21.048c-0.484,1.927-0.884,3.797-1.217,5.604L61.092,98.2c-0.959,0.042-1.949,0.064-2.941,0.064
			c-5.524,0-12.152-0.607-19.697-1.805c-6.765-1.075-17.98-4.825-20.389-5.736c-1.9-0.719-3.881-1.53-5.897-2.418L11.253,87.9
			l-4.379-1.945l2.536,5.238c2.17,4.759,4.535,9.015,6.102,11.463c5.905,9.221,13.226,15.856,22.378,20.283
			c5.407,2.615,11.674,3.767,14.927,4.219c2.437,0.34,6.589,0.66,8.543,0.66h0.002l0.377-0.004c0.17,0.66,0.356,1.33,0.556,2.008
			c-0.116,0-0.233,0.001-0.348,0.001c-3.73,0-7.087-0.268-11.23-0.894c-3.429-0.518-6.631-1.244-9.792-2.216
			c-1.363-0.42-2.783-0.878-3.949-1.39l-4.794-2.1l2.485,4.605c3.023,5.601,6.069,10.065,9.315,13.647
			c1.784,1.968,3.771,3.706,5.123,4.818c1.874,1.542,3.978,2.949,6.25,4.18c6.133,3.321,11.91,4.803,18.73,4.803
			c0.088,0,0.175-0.001,0.265-0.002l1.15-0.011c0.511,0.656,1.031,1.308,1.56,1.95c-0.63,0.041-1.224,0.059-1.867,0.059
			c-0.887,0-1.9-0.036-3.186-0.112c-3.456-0.204-9.146-1.451-10.71-2.197l-4.503-2.155l2.092,4.535
			c0.256,0.551,3.035,5.397,7.038,9.363c2.514,2.49,7.165,5.487,9.633,6.495l0.335,0.14c1.907,0.808,6.975,2.954,15.069,2.954h0.001
			c1.507,0,3.093-0.082,4.715-0.244l1.295-0.13c0.299,0.292,0.559,0.575,0.776,0.847c3.445,4.357,2.768,5.921,1.728,8.271
			c-0.397,0.834-1.147,1.573-2.016,2.429l-0.025,0.025c-0.424,0.419-0.862,0.851-1.289,1.328l-0.137,0.152
			c-0.463,0.518-0.569,1.266-0.264,1.894c0.288,0.593,0.89,0.966,1.543,0.966c0.036,0,0.072,0,0.109-0.002l0.204-0.014
			c2.734-0.17,8.385-1.721,12.213-6.443c1.552-1.914,2.575-3.778,3.298-5.527c6.629,2.514,13.682,3.79,20.964,3.79
			c15.883,0,30.816-6.186,42.047-17.417c11.231-11.231,17.416-26.164,17.416-42.046C193.538,108.293,187.353,93.361,176.122,82.13"
			/>
		<path class="st1" d="M191.822,124.176c0,15.424-6.006,29.925-16.913,40.834c-10.906,10.906-25.407,16.913-40.833,16.913
			c-7.103,0-13.959-1.244-20.403-3.695c0.278-0.824,0.502-1.62,0.694-2.374c0.318-1.24,0.496-2.59,0.64-4.011
			c0.596-0.178,1.405-0.478,3.011-1.2c1.906-0.858,3.155-1.451,3.355-1.546c4.114,1.16,8.387,1.75,12.704,1.75
			c12.466,0,24.186-4.855,33.002-13.67c8.815-8.815,13.67-20.536,13.67-33.002c0-13.203-5.628-25.842-15.443-34.685
			c-0.006-0.156-0.016-0.859,0.284-1.852c0.072-0.236,0.145-0.492,0.216-0.744c0.072-0.254,0.14-0.496,0.209-0.719
			c3.525,3.525,5.577,2.873,5.649,2.839c0.134-0.079,0.282-0.119,0.44-0.119c0.722,0,1.47,0.814,1.554,0.906l0.011,0.013
			l0.013-0.014l-0.013,0.012l0.059-0.061l0.06-0.062v-0.001c-0.102-0.116-0.938-1.117-0.548-1.902
			c0.037-0.088,0.869-2.185-2.857-6.141l-0.092-0.098l-0.052,0.126c-0.014,0.036-0.332,0.865-0.018,2.345l0.013,0.097
			c0,0.008,0.101,0.846-0.362,1.373c-0.251,0.286-0.628,0.431-1.116,0.431l-0.402-0.028c-0.626-0.199-1.226-0.301-1.784-0.301
			l-0.359,0.016c0.066-0.169,0.142-0.343,0.229-0.53c0.16-0.344,0.311-0.692,0.386-1.026l0.234-0.037c0.68,0,1.43,0.617,1.519,0.691
			l0.013,0.012l0.011-0.016l-0.012,0.014l0.052-0.071l0.05-0.071c-0.112-0.097-1.085-0.976-0.804-1.807
			c0.024-0.092,0.558-2.285-3.678-5.689l-0.107-0.086l-0.032,0.132c-0.008,0.037-0.21,0.904,0.306,2.326l0.024,0.094
			c0.002,0.008,0.234,0.888-0.215,1.475c-0.274,0.36-0.75,0.542-1.399,0.545c-0.382-0.066-0.755-0.1-1.108-0.1
			c-0.994,0-1.518,0.258-1.54,0.269l-0.12,0.06l0.107,0.084c0.872,0.692,1.643,1.189,2.333,1.561l-0.224,0.084
			c-0.199,0.076-0.404,0.155-0.624,0.233c-0.539,0.194-1.07,0.418-1.422,0.571c-0.458,0.202-0.864,0.432-0.997,0.509
			c-7.493-4.794-16.178-7.329-25.116-7.329c-1.028,0-2.066,0.035-3.098,0.102c-0.193-3.645,0.079-7.408,0.655-11.126
			c0.814-0.035,1.631-0.053,2.442-0.053c15.424,0,29.925,6.007,40.833,16.913C185.816,94.25,191.822,108.752,191.822,124.176"/>
		<path class="st1" d="M121.395,140.584c2.713,2.89,5.106,5.439,6.025,7.469c0.049,0.108,0.094,0.214,0.134,0.318
			c0.046,0.121,0.086,0.241,0.12,0.358c0.026,0.091,0.052,0.18,0.071,0.269c0.077,0.341,0.136,0.67,0.182,0.986
			c0.046,0.316,0.078,0.62,0.098,0.911c0.019,0.292,0.028,0.572,0.028,0.841c-0.001,0.282-0.013,0.551-0.032,0.808
			c-0.014,0.208-0.036,0.404-0.059,0.596c-0.007,0.06-0.016,0.118-0.023,0.176c-0.09,0.641-0.216,1.204-0.331,1.7
			c0.906-0.742,2.171-1.873,3.162-2.776c0.09-0.082,0.176-0.161,0.263-0.24c0.34-0.311,0.635-0.583,0.856-0.786
			c0.12-0.112,0.242-0.223,0.366-0.335c0.126-0.112,0.252-0.226,0.382-0.34c0.259-0.229,0.528-0.462,0.803-0.702
			c1.03-0.898,2.081-1.812,2.896-2.692c0.487-0.527,0.89-1.042,1.15-1.53l0.078-0.144c0.293-0.545,0.491-0.913,0.479-1.561
			c-0.002-0.15-0.017-0.313-0.043-0.499c-0.049-0.34-0.134-0.643-0.256-0.936c-0.206-0.488-0.514-0.948-0.934-1.498
			c-0.443-0.582-0.88-1.128-1.309-1.645c-0.323-0.388-0.641-0.761-0.953-1.12c-0.197-0.226-0.394-0.445-0.586-0.661
			c-0.224-0.248-0.444-0.491-0.662-0.727c-0.136-0.148-0.27-0.292-0.403-0.434c-0.107-0.115-0.214-0.229-0.319-0.343
			c-0.128-0.136-0.254-0.27-0.38-0.403c-0.022-0.024-0.043-0.047-0.065-0.071c-0.083-0.089-0.167-0.175-0.248-0.263
			c-0.09-0.095-0.178-0.19-0.266-0.282c-1.756-1.866-2.987-3.239-3.511-4.761c-0.094-0.262-0.163-0.522-0.205-0.786
			c-0.011-0.054-0.016-0.109-0.023-0.164c-0.002-0.018-0.005-0.035-0.006-0.052c-0.053-0.394-0.066-0.799-0.028-1.236
			c0.558-3.868,5.394-6.459,8.813-2.158l1.336,1.661c0,0,6.293,7.943,9.657,12.018l1.732,2.042c0.062,0.066,0.116,0.126,0.163,0.172
			c2.837,3.333,8.01,5.97,9.251,6.54c-0.09-0.107-0.193-0.229-0.306-0.366c-0.618-0.756-1.529-1.955-2.276-3.282
			c-0.204-0.362-0.396-0.733-0.565-1.109c-0.034-0.073-0.066-0.148-0.1-0.222c-0.115-0.256-0.23-0.515-0.344-0.784
			c-0.074-0.173-0.148-0.348-0.221-0.528c-0.362-0.896-0.703-1.882-0.976-3.022c-0.095-0.4-0.175-0.792-0.244-1.176
			c-0.036-0.203-0.068-0.402-0.097-0.599c-0.005-0.035-0.011-0.068-0.016-0.102c-0.028-0.205-0.054-0.406-0.077-0.604
			c-0.016-0.137-0.03-0.272-0.042-0.406c-0.019-0.204-0.036-0.403-0.047-0.599c-0.001-0.014-0.002-0.026-0.002-0.041
			c-0.014-0.202-0.023-0.397-0.03-0.589c-0.012-0.306-0.016-0.599-0.014-0.878c0.001-0.28,0.008-0.545,0.02-0.793
			c0.026-0.637,0.08-1.168,0.133-1.565c0.001-0.017,0.004-0.031,0.006-0.046c0.037-0.29,0.076-0.506,0.1-0.635
			c-0.15-0.035-0.407-0.101-0.731-0.221c-0.647-0.236-1.554-0.678-2.378-1.465c-0.413-0.394-0.804-0.872-1.13-1.456
			c-0.826-1.471-1.608-3.245-1.764-6.221c-0.19,0.139-0.378,0.283-0.569,0.427c-0.863,0.654-1.756,1.333-2.863,1.856
			c-0.605,0.286-1.715,0.73-3.034,0.881c-0.292,0.034-0.594,0.054-0.904,0.054c-0.258,0-0.512-0.014-0.761-0.041
			c-0.248-0.028-0.491-0.07-0.725-0.125c-3.147-0.73-5.088-2.19-6.112-4.593c-0.235-0.552-0.398-1.121-0.488-1.702
			c-0.022-0.145-0.04-0.29-0.053-0.437c-0.014-0.148-0.022-0.294-0.026-0.442c-0.007-0.298,0.002-0.594,0.032-0.895
			c0.062-0.655,0.176-1.367,0.374-2.075c0.043-0.157,0.091-0.317,0.144-0.473c0.053-0.156,0.109-0.312,0.17-0.468
			c0.185-0.463,0.413-0.916,0.69-1.338c0.094-0.14,0.192-0.28,0.298-0.413c0.263-0.336,0.563-0.646,0.907-0.923
			c0.205-0.167,0.427-0.32,0.666-0.46c0.079-0.047,0.161-0.092,0.245-0.136c0.167-0.086,0.341-0.167,0.522-0.24
			c0.128-0.052,0.258-0.095,0.39-0.134c0.398-0.114,0.82-0.173,1.259-0.173c1.592,0,3.106,0.762,3.805,1.885
			c0.024-0.066,0.049-0.139,0.076-0.216c0.184-0.545,0.412-1.358,0.679-2.321c0.612-2.194,1.448-5.199,2.598-8.055
			c0.169-0.42,0.338-0.847,0.509-1.28c0.13-0.331,0.26-0.665,0.394-0.997c0.93-2.332,1.945-4.665,3.467-6.523
			c-2.116-1.514-4.101-2.462-5.836-3.054c-0.144-0.05-0.287-0.096-0.43-0.14c-2.681-0.845-4.714-0.845-5.637-0.845l-0.33,0.001
			c-3.468,0.046-6.489,0.527-9.363,1.51c-0.191,0.065-0.382,0.133-0.572,0.204c-0.841,0.31-1.673,0.665-2.501,1.066
			c-0.264,0.128-0.528,0.26-0.792,0.397c-0.126,0.066-0.252,0.13-0.379,0.197c-2.305,1.242-4.432,2.845-6.307,4.727
			c-0.005,0.005-0.008,0.011-0.014,0.014c-2.552,2.561-4.645,5.634-6.105,8.993c-0.584,1.346-1.067,2.738-1.436,4.162
			c-0.397,1.526-0.764,3.155-0.938,4.935c-0.071,0.713-0.109,1.45-0.108,2.214c0.002,0.955,0.07,1.952,0.222,3.003
			c0.06,0.419,0.134,0.845,0.224,1.28c0.122,0.606,0.28,1.228,0.463,1.867c0.035,0.121,0.072,0.245,0.11,0.367
			c0.545,1.783,1.338,3.699,2.46,5.77c0.512,0.946,1.1,1.879,1.735,2.797C116.044,134.882,118.85,137.874,121.395,140.584"/>
		<path class="st0" d="M169.148,136.56l-0.628,2.704l1.748,7.365c0,0-5.116,0.802-7.393,1.145
			c-0.701,2.35-4.209,11.572-4.209,11.572l-0.702-0.347c-0.51-5.038-3.132-7.615-6.129-9.544c-1.681-1.081-3.603-1.823-5.435-2.405
			c-2.476-0.786-5.045-1.262-7.643-1.643c0.449-1.055,0.324-2.327-0.001-3.123c-0.533-1.307-1.337-2.195-2.063-3.123
			c3.198-0.545,3.568-2.806,3.439-4.186c-0.403,0.704-2.113,3.598-4.637,3.028c-5.188-6.113-6.072-6.444-6.574-8.417
			c-0.359-1.409,0.304-3.22,1.784-4.219c2.707-1.682,4.397,0.025,7.135,3.469c1.456,1.83,6.715,8.808,10.174,12.731
			c2.645,3.003,5.291,4.933,8.569,6.651c1.802,0.946,3.882,1.657,3.882,1.657l0.431-0.688c0,0-2.566-2.556-4.199-5.805
			c-0.803-1.595-1.41-3.286-1.793-4.936c-0.955-4.121-0.037-8.369-0.037-8.369s-2.429,0.401-4.691-2.932
			c-0.593-0.874-1.148-2.91-1.324-4.207c-0.125-0.925-0.211-1.642-0.226-2.414c4.157-3.792,9.816-10.576,11.982-11.079
			c0.654,1.358,10.115,21.421,10.115,21.421l-2.12,1.018l0.008,2.308l-5.538,4.061L169.148,136.56z"/>
		<path class="st2" d="M104.993,183.496c0.025-0.185,0.04-0.316,0.043-0.355c0.277-2.689-0.494-4.553-1.237-6.087
			c-0.701-1.447-1.624-2.557-2.51-3.57c-1.582-1.812-3.655-3.394-4.749-4.175c-0.188-0.134-18.885-13.661-26.945-33.271
			c-6.186-15.039-5.435-28.443-3.718-37.042c0.568-2.842,1.271-5.505,2.213-8.383l0.03-0.095c3.363-10.288,8.413-17.369,12.059-21.5
			c11.811-13.386,30.776-21.441,52.145-22.172c-1.547,3.858-2.973,8.599-4.243,14.114c-0.236,1.032-2.268,10.128-1.754,17.535
			c-6.564,1.949-12.453,5.142-17.509,9.495c-3.521,3.031-6.639,6.972-8.782,11.096c-2.725,5.248-3.252,9.51-3.636,12.622
			c-0.046,0.376-0.091,0.737-0.137,1.081c-0.601,4.473,0.864,15.826,7.097,23.056c1.709,1.984,4.08,4.925,7.084,8.649l0.038,0.049
			c1.997,2.476,4.249,5.268,6.784,8.371c-0.913,0.917-2.94,3.077-4.723,7.305c-0.892,2.113-1.456,4.156-1.679,6.069
			c-0.089,0.754-0.15,1.543-0.216,2.377c-0.179,2.275-0.38,4.84-1.18,7.379c-0.534,1.699-1.148,3.079-1.932,4.341
			C106.811,181.557,105.901,182.66,104.993,183.496"/>
		<path class="st1" d="M136.473,43.912l-0.121-0.002c-0.685-0.02-1.392-0.03-2.1-0.03c-5.837,0-17.479,0.695-29.859,5.355
			c-12.946,4.871-23.289,12.708-30.739,23.293c-3.07,4.362-7.205,11.456-9.472,20.479c-3.748,14.921-2.491,26.238-1.409,31.653
			c1.049,5.26,3.375,11.79,6.066,17.042c0.54,1.056,3.3,5.914,5.133,8.573c1.862,2.702,3.91,5.333,6.085,7.822
			c2.911,3.33,4.758,5.081,6.24,6.489c0.509,0.481,0.948,0.898,1.367,1.318c2.117,2.126,4.435,3.907,6.48,5.478
			c2.09,1.606,3.894,2.993,4.949,4.325c4.098,5.182,3.099,7.438,1.942,10.05c-0.527,1.117-1.422,2-2.37,2.935
			c-0.414,0.408-0.841,0.83-1.241,1.276l-0.136,0.154l0.205-0.014c2.455-0.154,7.533-1.55,10.988-5.811
			c2.56-3.16,3.571-6.196,4.224-8.748c0.407-1.594,0.575-3.462,0.754-5.437c0.103-1.162,0.212-2.36,0.373-3.539
			c0.26-1.898,0.839-3.905,1.588-5.507c1.212-2.596,2.51-4.553,3.959-5.973c-0.445-0.456-0.878-0.928-1.309-1.402
			c-1.552,1.62-3.393,4.397-4.293,6.509c-1.615,3.791-1.808,5.991-1.949,7.599c-0.037,0.432-0.071,0.804-0.126,1.162
			c-0.059,0.384-0.094,0.881-0.136,1.456c-0.161,2.222-0.431,5.94-2.604,9.879c-1.53,2.771-3.583,4.847-6.269,6.339
			c0.65-0.931,1.362-2.823,1.151-5.158c-0.406-4.501-3.895-7.987-6.751-10.119c-8.683-6.484-15.925-13.899-21.52-22.041
			c-5.495-7.993-9.143-16.297-10.842-24.678c-2.066-10.204-1.716-20.887,1.014-30.896c2.641-9.677,7.444-18.577,13.889-25.74
			c12.696-14.114,31.467-21.8,54.289-22.236l-0.264,0.745c-1.228,3.474-2.497,7.068-3.545,11.027
			c-0.812,3.07-1.474,6.169-2.024,9.477c-0.648,3.905-0.88,7.955-0.611,11.242l1.781-0.407c-0.67-11.925,3.537-24.944,7.17-33.828
			L136.473,43.912z"/>
		<polygon class="st1" points="157.263,170.689 157.235,170.641 157.27,170.717 		"/>
		<polygon points="167.072,130.071 162.831,132.638 162.937,132.895 170.007,131.191 		"/>
		<path d="M162.387,120.466c0,0-0.068-1.085-0.352-1.511c-0.284-0.426,1.273-1.091,1.273-1.091l-0.805-0.44l-0.194,0.349
			l-3.636,1.273l-3.03,2.484l2.598-0.836l5.339,0.682L162.387,120.466z"/>
		<path d="M147.755,74.597c0.182-0.348,0.564-0.523,1.133-0.523c0.464,0,0.894,0.12,0.976,0.145l0.017,0.004l0.023-0.082
			l0.011-0.088c-0.142-0.044-1.386-0.455-1.466-1.33c-0.016-0.095-0.412-2.315-5.661-3.721l-0.131-0.035l0.023,0.133
			c0.006,0.038,0.173,0.916,1.224,2.011l0.056,0.07c0.005,0.007,0.571,0.72,0.397,1.438c-0.107,0.44-0.469,0.799-1.062,1.062
			c-1.675,0.419-2.327,1.189-2.354,1.223l-0.086,0.106l0.131,0.034c1.333,0.349,2.538,0.527,3.581,0.527
			C146.962,75.568,147.715,74.65,147.755,74.597"/>
		<path d="M155.312,76.534c0.566,0,1.145,0.25,1.256,0.3l0.016,0.007l0.036-0.079l0.022-0.084c-0.134-0.064-1.31-0.642-1.271-1.519
			c-0.001-0.095-0.086-2.35-5.091-4.465l-0.126-0.053l0.005,0.134c0.001,0.038,0.044,0.93,0.932,2.158l0.047,0.079
			c0.005,0.007,0.468,0.792,0.196,1.48c-0.167,0.42-0.575,0.726-1.199,0.904c-1.716,0.184-2.467,0.858-2.5,0.888l-0.1,0.091
			l0.126,0.053c1.745,0.725,3.274,1.093,4.548,1.093c1.574,0,2.18-0.565,2.216-0.601C154.61,76.664,154.908,76.534,155.312,76.534"
			/>
		<path d="M161.893,78.526c0.012-0.094,0.239-2.339-4.427-5.125l-0.116-0.071l-0.014,0.136c-0.004,0.038-0.083,0.925,0.625,2.262
			l0.037,0.089c0.004,0.008,0.355,0.847-0.011,1.492c-0.223,0.394-0.67,0.64-1.312,0.73l-0.23-0.004
			c-1.571,0-2.336,0.516-2.368,0.538l-0.112,0.076l0.116,0.07c2.476,1.462,4.155,1.769,5.127,1.769
			c1.018-0.001,1.474-0.322,1.506-0.346c0.173-0.184,0.41-0.277,0.703-0.277c0.637,0,1.345,0.436,1.428,0.488l0.016,0.008
			l0.046-0.073l0.034-0.08C162.816,80.126,161.731,79.391,161.893,78.526"/>
		<path d="M176.114,94.5l0.326-0.066c0.766,0,1.463,1.007,1.54,1.122l0.008,0.013l0.072-0.049l0.062-0.06
			c-0.08-0.125-0.778-1.235-0.281-1.96c0.049-0.082,1.162-2.044-1.98-6.478l-0.079-0.11l-0.068,0.118
			c-0.018,0.032-0.452,0.815-0.341,2.329l-0.002,0.088c0,0.065-0.035,1.604-1.415,1.604c-0.212,0-0.45-0.037-0.691-0.103
			c-1.058-0.509-1.867-0.584-2.254-0.584c-0.214,0-0.332,0.022-0.338,0.023l-0.133,0.025l0.079,0.11c2.59,3.609,4.541,4,5.261,4
			L176.114,94.5z"/>
		<path d="M179.767,100.547l0.216-0.028c0.817,0,1.418,1.195,1.486,1.331l0.007,0.014l0.077-0.037l0.072-0.053
			c-0.064-0.133-0.599-1.331-0.007-1.979c0.06-0.074,1.433-1.865-1.068-6.689l-0.062-0.12l-0.082,0.108
			c-0.024,0.031-0.558,0.742-0.66,2.25l-0.014,0.097c-0.011,0.058-0.229,1.41-1.393,1.41c-0.272,0-0.58-0.076-0.9-0.215
			c-1.312-0.87-2.279-0.914-2.459-0.914l-0.167,0.007l0.062,0.119c2.401,4.571,4.6,4.702,4.843,4.702L179.767,100.547z"/>
		<path d="M182.55,107.04l0.106-0.006c0.878,0,1.348,1.367,1.402,1.529l0.005,0.018l0.082-0.028l0.078-0.04
			c-0.043-0.142-0.41-1.402,0.266-1.962c0.07-0.065,1.676-1.65-0.134-6.772l-0.044-0.128l-0.097,0.095
			c-0.028,0.026-0.656,0.659-0.966,2.142l-0.025,0.09c-0.004,0.012-0.373,1.217-1.382,1.217c-0.323,0-0.68-0.12-1.054-0.35
			c-1.294-1.144-2.299-1.244-2.341-1.247l-0.136-0.013l0.047,0.128C180.192,106.825,182.44,107.033,182.55,107.04"/>
		<path d="M183.239,109.455c-1.122-1.31-2.105-1.549-2.147-1.56l-0.131-0.03l0.026,0.132c1.116,5.319,3.312,5.836,3.42,5.857
			c0.952,0.018,1.249,1.537,1.28,1.716l0.004,0.018l0.084-0.016l0.082-0.031c-0.023-0.146-0.212-1.444,0.535-1.906
			c0.077-0.054,1.888-1.402,0.802-6.726l-0.028-0.132l-0.109,0.08c-0.03,0.023-0.742,0.562-1.252,1.988l-0.037,0.083
			c-0.005,0.012-0.479,1.028-1.368,1.028C184.036,109.96,183.64,109.786,183.239,109.455"/>
		<path d="M141.541,72.384c0.192-2.843-8.53-0.575-8.53-0.575S141.356,75.132,141.541,72.384"/>
		<path d="M136.435,175.968l0.017,0.083v-0.011l0.002,0.011l-0.005-0.173l-0.076,0.001c-0.281,0-1.684-0.044-1.884-0.932
			c-0.036-0.088-0.978-2.137-6.411-2.18h-0.136l0.056,0.122c0.017,0.038,0.444,0.953,1.939,1.787
			c0.517,0.416,0.773,0.857,0.761,1.31c-0.019,0.739-0.751,1.278-0.76,1.284l-0.047,0.037c-1.32,0.787-1.714,1.601-1.73,1.636
			l-0.058,0.122l0.186,0.001c5.391,0,6.347-2.028,6.387-2.119c0.305-0.82,1.613-0.892,1.76-0.896L136.435,175.968z"/>
		<path d="M143.616,175.272l-0.014-0.082l0.028,0.079l-0.001-0.008l0.004,0.008l-0.03-0.17l-0.017,0.002l0.014,0.055v0.026
			l-0.014-0.082c-0.064,0.011-0.298,0.044-0.588,0.044c-0.55,0-1.246-0.118-1.464-0.7c-0.036-0.059-0.906-1.43-4.434-1.43
			c-0.683,0-1.429,0.053-2.219,0.156l-0.133,0.018l0.072,0.114c0.023,0.036,0.574,0.882,2.168,1.501
			c0.57,0.342,0.883,0.743,0.934,1.193c0.083,0.737-0.568,1.37-0.574,1.376l-0.073,0.07c-1.174,0.952-1.446,1.799-1.456,1.835
			l-0.041,0.13l0.134-0.018c5.385-0.738,6.055-2.892,6.082-2.989c0.188-0.851,1.468-1.103,1.62-1.129L143.616,175.272
			L143.616,175.272z"/>
		<path d="M150.581,173.34l-0.018,0.005c-0.088,0.026-0.532,0.157-1.006,0.157c-0.551,0-0.925-0.172-1.116-0.523
			c-0.03-0.037-0.77-0.917-3.072-0.917c-1.07,0-2.312,0.193-3.693,0.574l-0.131,0.036l0.088,0.103
			c0.028,0.032,0.69,0.796,2.357,1.187c0.61,0.26,0.976,0.613,1.088,1.052c0.185,0.716-0.373,1.435-0.379,1.444l-0.053,0.068
			c-1.039,1.109-1.194,1.99-1.2,2.027l-0.022,0.134l0.131-0.037c5.23-1.472,5.598-3.7,5.611-3.798
			c0.068-0.871,1.308-1.297,1.448-1.343l-0.025-0.079l0.04,0.076l-0.002-0.008l0.005,0.007L150.581,173.34z"/>
		<path d="M157.25,170.633l-0.016,0.007l0.03,0.049l0.007,0.025l-0.037-0.074c-0.113,0.053-0.704,0.317-1.277,0.317
			c-0.39,0-0.683-0.126-0.876-0.385c-0.024-0.023-0.618-0.559-2.13-0.559c-1.291,0-2.844,0.388-4.617,1.154l-0.125,0.054l0.101,0.09
			c0.031,0.028,0.792,0.692,2.496,0.852c0.641,0.173,1.052,0.473,1.224,0.892c0.281,0.684-0.172,1.474-0.176,1.481l-0.028,0.056
			c-0.889,1.253-0.922,2.155-0.922,2.194l-0.004,0.136l0.125-0.055c4.977-2.18,5.034-4.438,5.033-4.537
			c-0.052-0.871,1.117-1.465,1.252-1.53l-0.036-0.076l0.049,0.07l-0.004-0.007l0.005,0.007L157.25,170.633z"/>
		<path d="M163.48,167.033l-0.013,0.008l0.035,0.044l0.011,0.025l-0.044-0.071c-0.079,0.053-0.797,0.508-1.442,0.508
			c-0.284,0-0.516-0.09-0.702-0.277c-0.018-0.013-0.46-0.317-1.435-0.317c-0.978,0-2.67,0.318-5.165,1.835l-0.115,0.071l0.113,0.074
			c0.031,0.02,0.773,0.508,2.282,0.508l0.307-0.007c0.659,0.082,1.108,0.323,1.337,0.713c0.373,0.64,0.034,1.483,0.03,1.492
			l-0.02,0.056c-0.708,1.364-0.616,2.264-0.611,2.303l0.016,0.134l0.115-0.071c4.629-2.848,4.373-5.089,4.36-5.189
			c-0.172-0.856,0.904-1.606,1.027-1.688l-0.046-0.071l0.058,0.062l-0.005-0.008l0.007,0.007L163.48,167.033z"/>
		<path d="M169.154,162.607l-0.013,0.011v0.001c-0.088,0.074-0.839,0.712-1.525,0.712c-0.211,0-0.396-0.06-0.565-0.191
			c-0.012-0.005-0.31-0.155-0.902-0.155c-1.037,0-2.821,0.446-5.425,2.572l-0.103,0.086l0.121,0.059
			c0.02,0.011,0.522,0.248,1.47,0.248c0.376,0,0.773-0.037,1.164-0.113h0.049c0.642,0,1.105,0.179,1.376,0.53
			c0.452,0.581,0.234,1.457,0.232,1.466l-0.013,0.059c-0.514,1.448-0.296,2.327-0.287,2.365l0.034,0.131l0.106-0.086
			c4.191-3.46,3.628-5.645,3.601-5.741c-0.289-0.824,0.672-1.715,0.782-1.814l-0.055-0.061l0.066,0.053l-0.006-0.007l0.007,0.006
			L169.154,162.607z"/>
		<path d="M174.162,157.44l-0.011,0.013c-0.084,0.097-0.828,0.926-1.554,0.926c-0.154,0-0.299-0.038-0.443-0.12
			c-0.007-0.002-0.176-0.06-0.494-0.06c-0.88,0-2.756,0.433-5.44,3.327l-0.091,0.1l0.127,0.042c0.012,0.002,0.293,0.092,0.805,0.092
			c0.571,0,1.189-0.109,1.823-0.32c0.695-0.107,1.219,0.023,1.542,0.384c0.464,0.521,0.377,1.354,0.376,1.362l-0.012,0.098
			c-0.296,1.482,0.035,2.308,0.049,2.344l0.053,0.126l0.091-0.1c3.675-4.005,2.816-6.093,2.776-6.185
			c-0.4-0.776,0.431-1.79,0.526-1.903l-0.062-0.055l0.073,0.043l-0.007-0.006l0.008,0.005L174.162,157.44z"/>
		<path d="M178.41,151.629l-0.008,0.014c-0.079,0.12-0.766,1.141-1.535,1.141l-0.332-0.066l-0.193-0.014
			c-0.562,0-2.599,0.293-5.233,4.069l-0.077,0.112l0.133,0.023c0.004,0.001,0.109,0.019,0.299,0.019c0.392,0,1.21-0.08,2.273-0.608
			c0.264-0.079,0.509-0.119,0.726-0.119c1.356,0,1.411,1.52,1.412,1.585l0.002,0.077c-0.092,1.524,0.354,2.304,0.373,2.336
			l0.07,0.118l0.076-0.113c3.085-4.474,1.946-6.421,1.894-6.505c-0.502-0.712,0.175-1.828,0.258-1.96h0.001l-0.071-0.044
			l0.078,0.032l-0.008-0.005l0.011,0.004L178.41,151.629z"/>
		<path d="M181.965,145.377l-0.076-0.035l0.082,0.022l-0.008-0.005l0.008,0.002l-0.156-0.072l-0.007,0.016
			c-0.065,0.139-0.656,1.349-1.478,1.349l-0.223-0.028h-0.023c-0.242,0-2.435,0.133-4.791,4.764l-0.049,0.127h0.14
			c0.179,0,1.141-0.046,2.446-0.937c0.341-0.156,0.653-0.235,0.931-0.235c1.147,0,1.382,1.334,1.391,1.391l0.017,0.098
			c0.12,1.506,0.665,2.21,0.688,2.242l0.084,0.107l0.06-0.121c2.438-4.858,1.043-6.629,0.978-6.707
			C181.383,146.716,181.903,145.511,181.965,145.377"/>
		<path d="M184.411,138.903L184.411,138.903v-0.001l-0.079-0.025l0.084,0.012l-0.008-0.002h0.008l-0.164-0.05l-0.005,0.016
			c-0.052,0.161-0.514,1.541-1.398,1.541l-0.113-0.006c-0.095,0.007-2.34,0.232-4.144,5.358l-0.044,0.128l0.134-0.013
			c0.042-0.004,1.048-0.113,2.321-1.255c0.388-0.245,0.748-0.367,1.072-0.367c1.002,0,1.378,1.196,1.382,1.207l0.02,0.055
			c0.317,1.506,0.958,2.142,0.986,2.17l0.097,0.095l0.044-0.128c1.775-5.137,0.157-6.708,0.084-6.778
			C184.015,140.307,184.366,139.054,184.411,138.903"/>
		<path d="M186.515,134.062c-0.743-0.458-0.554-1.757-0.532-1.903l-0.082-0.014l0.066-0.002l0.018,0.002l-0.008-0.002h0.008
			l-0.169-0.028l-0.002,0.017h-0.001c-0.031,0.175-0.326,1.698-1.296,1.72c-0.092,0.019-2.287,0.539-3.399,5.859l-0.028,0.132
			l0.132-0.031c0.041-0.011,1.024-0.248,2.134-1.55c0.412-0.343,0.808-0.516,1.177-0.516c0.888,0,1.362,1.015,1.368,1.026
			l0.026,0.054c0.511,1.45,1.234,1.997,1.264,2.018l0.109,0.08l0.026-0.133C188.409,135.464,186.597,134.119,186.515,134.062"/>
		<path d="M119.536,173.808c0,0,7.828,4.465,8.385,1.67C128.458,172.777,119.536,173.808,119.536,173.808"/>
		<path d="M186.489,121.15c-1.462,0-2.646,1.184-2.646,2.646c0,1.462,1.184,2.646,2.646,2.646s2.646-1.184,2.646-2.646
			C189.135,122.335,187.949,121.15,186.489,121.15"/>
		<path class="st1" d="M164.53,87.336c0.306-1.144,0.746-2.065,1.039-2.676c0.223-0.464,0.356-0.745,0.341-0.906l-0.005-0.041
			l-0.034-0.022l-0.227-0.041c-1.354,0-7.09,1.598-12.644,6.492c-3.642,3.208-5.007,6.653-5.909,8.933l-0.149,0.373
			c-2.282,5.706-4.361,13.356-4.878,16.423c-0.341-1.297-0.823-2.815-1.345-3.442c-0.512-0.617-1.358-1.438-2.783-1.438
			c-0.221,0-0.454,0.019-0.689,0.059c-1.366,0.227-2.599,1.336-3.147,2.821l-0.016,0.043c-0.368,1-0.716,1.943-0.666,3.595
			c0.026,0.917,0.282,1.891,0.666,2.54c1.366,2.311,3.477,3.484,6.275,3.484c0.361,0,0.738-0.019,1.121-0.058
			c1.088-0.109,2.246-0.556,3.348-1.292c2.543-1.699,4.6-3.882,6.779-6.192c1.235-1.308,2.512-2.662,3.887-3.918
			c0.846-0.773,2.831-2.58,4.855-3.761c1.508-0.878,3.022-1.499,4.499-1.843l0.233-0.128l-0.049-0.299l-0.054-0.136
			c-0.502-1.309-0.916-2.988-1.268-5.135c-0.288-1.772-0.46-3.526-0.358-6.327C163.41,92.905,163.864,89.823,164.53,87.336"/>
		<path class="st1" d="M122.415,164.538c1.645-0.749,3.348-1.524,5.135-2.285c3.905-1.657,6.819-2.674,10.397-3.627
			c3.591-0.956,7.201-1.817,11.889-1.847h0.079c1.345,0,3.053,0.203,4.224,0.494c-1.627-4.834-7.314-6.499-9.468-7.129
			c-2.047-0.599-6.784-1.385-8.335-1.531l-0.222-0.02l0.18-0.131c0.51-0.371,0.796-0.727,1.154-1.178l0.286-0.354l0.03-0.035
			l0.046,0.006c2.746,0.322,5.703,0.936,8.112,1.687c2.554,0.796,4.738,1.867,6.491,3.187c0.968,0.728,1.793,1.642,2.597,2.873
			c1.013,1.548,1.364,3.966,1.355,5.566v0.155l-0.13-0.086c-1.212-0.798-2.455-1.29-3.696-1.463
			c-0.888-0.122-1.842-0.185-2.837-0.185c-2.478,0-5.247,0.373-8.46,1.14c-2.989,0.712-5.933,1.603-9,2.725
			c-3.435,1.254-6.138,2.443-9.869,4.116c-0.584,0.262-1.148,0.52-1.703,0.775c-1.822,0.834-3.552,1.626-5.459,2.285
			c0.062-0.692,0.13-1.394,0.21-2.092C117.909,166.589,120.197,165.548,122.415,164.538"/>
		<path class="st1" d="M90.962,174.581L90.962,174.581c-7.746,0-12.581-2.05-14.402-2.82l-0.341-0.142
			c-2.284-0.934-6.75-3.815-9.088-6.132c-3.768-3.732-6.46-8.373-6.688-8.864l-0.097-0.211l0.21,0.101
			c1.928,0.92,7.869,2.158,11.35,2.363c1.324,0.078,2.368,0.114,3.288,0.114c1.285,0,2.342-0.072,3.495-0.191
			c0.078,0.09,0.155,0.18,0.234,0.271c0.484,0.553,0.936,1.061,1.367,1.535c-1.199,0.115-2.593,0.187-4.416,0.23l-0.312,0.004
			c-2.27,0-8.709-0.478-10.608-0.954c3.637,4.714,6.904,7.921,12.627,10.3c2.096,0.871,4.291,1.508,6.525,1.895
			c2.21,0.383,4.779,0.569,7.853,0.569c0.436,0,0.89-0.005,1.367-0.012c0.781,0.601,1.519,1.168,2.183,1.708
			C93.969,174.498,92.444,174.581,90.962,174.581"/>
		<path class="st1" d="M63.683,133.445c-0.409,0.016-0.857,0.024-1.345,0.024c-3.833,0-8.88-0.46-13.502-1.231
			c-4.17-0.695-7.173-1.433-8.728-2.14c0.101,0.161,0.223,0.358,0.361,0.583c1.416,2.3,4.735,7.683,9.03,11.232
			c3.767,3.113,8.443,6.533,14.584,8.29c2.916,0.834,5.359,1.252,9.086,1.535c0.43,0.61,0.865,1.216,1.313,1.817
			c-0.132,0.001-0.265,0.005-0.396,0.005c-6.519,0-12.044-1.417-17.913-4.596c-2.173-1.178-4.185-2.522-5.977-3.996
			c-1.309-1.075-3.227-2.755-4.941-4.645c-3.151-3.479-6.119-7.833-9.076-13.31l-0.115-0.215l0.223,0.098
			c1.249,0.548,2.725,1.025,4.134,1.457c3.244,0.998,6.528,1.741,10.041,2.273c4.233,0.641,7.669,0.914,11.488,0.914
			c0.356,0,0.721-0.004,1.087-0.008C63.241,132.168,63.458,132.806,63.683,133.445"/>
		<path class="st1" d="M47.049,101.322l-0.136-0.014c-7.83-0.816-16.669-2.927-21.858-4.487c-3.757-1.128-7.324-2.366-10.599-3.677
			l-0.126-0.055c1.135,2.455,2.467,4.896,3.963,7.251c4.026,6.351,8.8,11.492,14.184,15.28c7.017,4.936,14.945,7.009,17.171,7.444
			l0.002-0.032h0.077l0.038,0.005l0.287,0.059c0.967,0.191,5.988,1.138,10.084,1.138c0.348,0,0.68-0.007,0.998-0.022
			c0.043,0.23,0.086,0.457,0.128,0.67c0.08,0.4,0.169,0.809,0.263,1.222c-0.053,0.001-0.107,0.001-0.164,0.001
			c-1.897,0-5.934-0.312-8.309-0.643c-3.155-0.44-9.221-1.552-14.415-4.065c-8.861-4.285-15.952-10.718-21.684-19.665
			c-1.574-2.459-3.901-6.492-6.048-11.741l-0.09-0.221l-0.013-0.005l-0.008-0.038l-0.102-0.196l0.194,0.088h0.04l0.013,0.023
			c2.231,0.994,4.423,1.898,6.517,2.689c2.442,0.923,13.832,4.728,20.727,5.825c7.635,1.213,14.351,1.828,19.965,1.828
			c1.044,0,2.056-0.023,3.018-0.066c-0.097,0.599-0.187,1.192-0.269,1.775c-1.465,0.169-2.991,0.252-4.644,0.252
			C52.993,101.942,49.835,101.614,47.049,101.322"/>
	</g>
	<path class="st0" d="M182.963,168.607c-1.781,0-3.228,1.446-3.228,3.229c0,1.782,1.446,3.228,3.228,3.228
		c1.783,0,3.229-1.446,3.229-3.228C186.192,170.052,184.747,168.607,182.963,168.607z M182.963,174.372
		c-1.4,0-2.537-1.135-2.537-2.536s1.136-2.537,2.537-2.537c1.403,0,2.537,1.136,2.537,2.537
		C185.501,173.237,184.367,174.372,182.963,174.372z"/>
	<path class="st0" d="M184.289,171.088c0-0.607-0.491-1.097-1.094-1.097l-1.558-0.001v3.69h0.694v-1.501h0.497l0.698,1.501h0.763
		l-0.727-1.562C183.985,171.966,184.289,171.562,184.289,171.088z M183.195,171.49h-0.864v-0.806h0.864
		c0.223,0,0.403,0.181,0.403,0.404C183.598,171.311,183.418,171.49,183.195,171.49z"/>
</g>
</svg>
