<?xml version="1.0" encoding="utf-8"?>
<!-- Generator: Adobe Illustrator 19.1.0, SVG Export Plug-In . SVG Version: 6.00 Build 0)  -->
<svg version="1.1" id="Layer_1" xmlns="http://www.w3.org/2000/svg" xmlns:xlink="http://www.w3.org/1999/xlink" x="0px" y="0px"
	 viewBox="0 0 45.928 38.398" style="enable-background:new 0 0 45.928 38.398;" xml:space="preserve">
<style type="text/css">
	.st0{fill:#231F20;}
	.st1{fill:#FFFFFF;}
	.st2{fill:#E4E5E6;}
	.st3{fill:url(#SVGID_1_);}
	.st4{fill:url(#SVGID_2_);}
	.st5{fill:url(#SVGID_3_);}
	.st6{fill:url(#SVGID_4_);}
	.st7{fill:url(#SVGID_5_);}
	.st8{fill:url(#SVGID_6_);}
	.st9{fill:url(#SVGID_7_);}
	.st10{fill:url(#SVGID_8_);}
	.st11{fill:#E5E6E6;}
	.st12{fill:#959CA1;}
	.st13{fill:#003E7E;}
	.st14{fill:#E4E5E5;}
	.st15{fill:#91989D;}
	.st16{fill:#C20828;}
	.st17{display:none;fill:#231F20;}
	.st18{display:none;}
	.st19{fill:#AFB4B8;}
	.st20{fill:#B29453;}
	.st21{fill:#F47829;}
	.st22{fill:#EFE3C6;}
	.st23{fill:#98012E;}
	.st24{fill:#FDB541;}
	.st25{fill:#E2001C;}
	.st26{display:inline;}
	.st27{fill:none;}
	.st28{fill:#F5BD47;}
	.st29{fill:#CF0A2C;}
	.st30{fill:#EB6E1F;}
	.st31{fill:#AEB3B8;}
	.st32{fill:#F3880B;}
	.st33{fill:#006D80;}
	.st34{fill:#ABADB0;}
	.st35{fill:#00397A;}
	.st36{fill:#002751;}
	.st37{fill:#FFDE00;}
	.st38{fill:#E8A713;}
	.st39{fill:#F58426;}
	.st40{fill:#E51937;}
	.st41{fill:#008752;}
	.st42{fill:#19388A;}
	.st43{fill:#ABB1B5;}
	.st44{fill:#00488C;}
	.st45{fill:#7C0027;}
	.st46{fill:#00704A;}
	.st47{fill:#A7A9AC;}
	.st48{fill:#EEE2C4;}
	.st49{fill:#EFB006;}
	.st50{fill:#004928;}
	.st51{fill:#FDBA31;}
	.st52{fill:#002D62;}
	.st53{fill:#FDB31B;}
	.st54{fill:#003F90;}
	.st55{fill:#001651;}
	.st56{fill:#8D8D8E;}
	.st57{fill:#7A2F3E;}
	.st58{fill:#555559;}
	.st59{fill:#A81E2D;}
	.st60{fill:#FDB41F;}
	.st61{fill:#B2B7BB;}
	.st62{fill:#E41937;}
	.st63{fill:#E30526;}
	.st64{fill:#D5A00F;}
	.st65{fill:#00327C;}
	.st66{fill:#D29A00;}
	.st67{fill:#E30B2B;}
	.st68{fill:#003A7B;}
	.st69{fill:#A2A6AA;}
	.st70{fill:#CF202D;}
	.st71{fill:#E4102F;}
	.st72{fill:#0056A8;}
	.st73{fill:#004B97;}
	.st74{fill:#F26B25;}
	.st75{fill:#E5D7A6;}
	.st76{display:inline;fill:#FFFFFF;}
	.st77{fill:#E20021;}
</style>
<rect id="dark_test" x="-49.827" y="-364.284" class="st17" width="83.833" height="551"/>
<rect x="-9.203" y="-3.473" class="st18" width="64.7" height="45.07"/>
<g id="Sharks_On_Dark">
	<g>
		<path class="st1" d="M43.102,14.975l-0.623,1.11l0.104,0.645c-1.651,3.233-3.451,6.233-4.096,7.288
			c-0.25-0.567-0.579-0.901-1.217-1.243c0,0,2.929-5.314,3.72-9.529c-2.215,1.097-4.535,2.182-4.535,2.182l3.97-6.421
			c0,0-7.633,1.67-13.671,2.272C20.244,1.691,14.325,0,14.325,0s4.1,6.712,4.86,11.405c-8.3-0.779-15.07-2.397-15.07-2.397
			L11.342,20.7C7.114,20.95,0,21.181,0,21.181c1.812,1.814,7.646,4.112,15.361,6.019l1.379,2.228c-4.538,3.42-7.273,8.13-7.273,8.13
			l0.458,0.84c0,0,2.253-0.135,5.015-0.233c0,0,0.751-2.428,3.843-5.432l3.489,5.642l4.374-7.074l0.476-0.055l0.265,0.159
			c-0.072,0.072-0.121,0.212-0.225,0.378c0.362,0.247,0.373,0.288,0.39,0.727c0,0,0.484,0.17,1.081-0.026l0.165-0.3l0.203,0.092
			c0.027,0.212,0.085,0.443,0.085,0.443c0.556,0.262,1.027-0.086,1.027-0.086c1.485,0.305,2.491,0.131,2.824,0.05
			c1.469,0.405,2.421,0.131,2.814-0.04c0.677,0.28,1.375,0.461,3.315,0.461c0.894,0,1.848-0.055,1.848-0.722
			c0-0.937-0.896-4.375-1.803-6.278c0,0,0.667,0.469,1.265,0.589l0.83-0.601c-0.377-0.443-0.306-0.573-0.254-0.917
			c-0.297-0.251-0.711-0.309-0.711-0.309c0.811-0.932,2.508-3.106,4.535-6.998c0.426-0.065,0.972-0.315,1.039-0.987
			c0.071-0.731,0.115-1.046,0.115-1.741C44.645,14.553,43.102,14.975,43.102,14.975z M39.57,9.615l-3.911,6.324
			c-0.42,0.192-0.843,0.385-1.244,0.571c-0.122,0.058-0.242,0.113-0.359,0.168c-0.319,0.15-0.613,0.292-0.873,0.421l3.426-5.431
			c-2.408,0.454-5.702,1.014-8.918,1.368c-0.092-0.157-0.184-0.313-0.277-0.467c-0.041-0.069-0.082-0.138-0.123-0.205
			c-0.141-0.23-0.283-0.456-0.426-0.681C32.919,11.068,39.57,9.615,39.57,9.615z M40.503,32.382c0,0.182-0.357,0.313-1.438,0.313
			c-1.993,0-2.601-0.183-3.329-0.499c0,0-0.945,0.615-2.801,0.065c0,0-1.095,0.354-2.924-0.063c-0.317,0.282-0.58,0.202-0.58,0.202
			s-0.039-0.171-0.038-0.401c-0.239-0.095-0.493-0.215-0.763-0.354c-0.127,0.266-0.272,0.487-0.272,0.487
			c-0.215,0.06-0.418,0.027-0.418,0.027c-0.017-0.321-0.254-0.484-0.254-0.484c0.092-0.162,0.21-0.27,0.353-0.355
			c-0.264-0.151-0.54-0.319-0.826-0.499c-0.276,0.033-0.546,0.065-0.813,0.094l-4.129,6.68l-3.404-5.504
			c-3.299,3.043-4.221,5.673-4.221,5.673c-2.055,0.058-4.488,0.209-4.488,0.209l-0.22-0.406c2.516-4.112,5.992-7.062,7.346-8.035
			l-1.449-2.343c0.288,0.071,0.705,0.172,1.143,0.269c0.098,0.022,0.194,0.043,0.291,0.064c0.264,0.056,0.522,0.108,0.755,0.148
			l1.001,1.587c1.102,0.083,2.844,0.203,5.15,0.203c0.342,0,0.655-0.001,0.942-0.005c-1.141-0.759-2.409-1.604-3.798-2.451
			c0.189,0.199,0.379,0.405,0.57,0.614c-1.02,0-2.58,0.075-4.678-0.4c-9.584-2.168-16.076-5.272-16.076-5.676
			c0,0,5.101-0.12,10.915-0.477L4.971,9.615c0,0,8.221,1.796,14.704,2.238C19.126,7.217,15.542,1.701,15.542,0.95
			c3.621,1.81,9.241,6.862,12.904,14.049c0.585,0.411,2.096,1.515,3.858,3.085l0.213-0.295c0.797-0.556,4.394-2.038,7.671-3.699
			c0.078-0.04,0.136-0.002,0.136,0.126c0,0.526-1.491,4.927-3.55,8.616l0.184,0.237c1.119,0.565,1.2,0.949,1.706,3.053
			C39.583,27.954,40.503,31.513,40.503,32.382z M40.502,25.373c-0.063,0.371,0.135,0.624,0.135,0.624l-0.344,0.248
			c-0.43-0.12-1.026-0.527-1.026-0.527L39.2,25.476C39.2,25.476,40.053,25.083,40.502,25.373z M45.52,15.428
			c0,0.27-0.046,0.738-0.114,1.413c-0.066,0.664-0.889,0.638-0.889,0.638c-2.84,5.507-5.07,7.639-5.07,7.639l-0.234-0.02
			l-0.339,0.236l-0.288-0.699c0,0,2.328-3.725,4.42-7.839l-0.102-0.636l0.467-0.831C43.371,15.331,44.497,15.056,45.52,15.428z"/>
		<path class="st1" d="M22.271,34.401l2.074-3.29c-1.827,0.147-3.266,0.192-4.021,0.206L22.271,34.401z"/>
		<path class="st1" d="M28.111,29.114c-0.747,0.239-1.068,0.071-1.068,0.071c0.146-0.146,0.242-0.432,0.242-0.432
			c-0.662,0.184-0.867,0.001-0.867,0.001c0.105-0.064,0.212-0.316,0.212-0.316c-0.857,0-1.327,0.141-1.327,0.141
			c0.712,0.089,1.179,0.402,1.574,0.806c0.56-0.04,0.901-0.09,1.141-0.129L28.111,29.114z"/>
		<path class="st1" d="M30.875,31.616c0.506-0.299,0.875-0.583,0.875-0.583c-1.664,0.073-2.29-0.13-2.29-0.13
			c0.298-0.297,0.669-0.553,0.904-0.789c-0.179,0.028-0.364,0.048-0.543,0.063c-0.003,0.081-0.092,0.173-0.344,0.327
			c-0.499,0.078-0.989,0.152-1.47,0.217c0.136,0.145,0.282,0.287,0.444,0.421c0.112-0.036,0.233-0.073,0.361-0.116
			c0,0.101-0.027,0.219-0.067,0.337c0.198,0.134,0.42,0.257,0.673,0.36c0.025-0.163,0.075-0.333,0.172-0.487
			c0.086,0.024,0.132,0.27,0.178,0.337c0.124,0.18,0.284,0.21,0.316,0.359c0.698,0.161,1.582,0.205,2.75,0.058l0.323-0.263
			C31.449,31.757,30.875,31.616,30.875,31.616z"/>
		<path class="st1" d="M26.665,28.681c0,0,0.362,0.022,0.78-0.127c0,0,0.023,0.282-0.167,0.532c0,0,0.355-0.003,1.083-0.171
			c0,0-0.063,0.146-0.15,0.308c0.132-0.022,0.23-0.036,0.336-0.036c0.235,0,0.262,0.049,0.467,0.049c0.387,0,0.435,0.08,0.492,0.532
			c0.079,0.115,0.168,0.193,0.233,0.26c0.286-0.022,0.616-0.053,0.948-0.101c0,0-0.369,0.513-0.927,0.892
			c0,0,1.547,0.145,2.35,0.044c0,0-0.345,0.423-0.823,0.665c0,0,1.07,0.068,2.22,0.049c0,0-0.226,0.25-0.45,0.431
			c0,0,1.419,0.32,2.43,0.08c-3.648-1.451-5.656-3.648-8.709-3.648C26.732,28.57,26.665,28.681,26.665,28.681z"/>
		<path class="st1" d="M11.947,35.249L11.126,36.3c0,0,2.413-0.376,3.859-0.157l0.402-0.689
			C14.598,35.046,11.947,35.249,11.947,35.249z"/>
		<path class="st1" d="M12.322,34.778l-0.254,0.319c0,0,2.491-0.189,3.399,0.231l0.591-0.889
			C15.252,34.308,12.322,34.778,12.322,34.778z"/>
		<path class="st1" d="M12.752,34.251l-0.289,0.352c0,0,2.983-0.465,3.688-0.293l0.053-0.072
			C15.465,33.994,12.752,34.251,12.752,34.251z"/>
		<path class="st1" d="M13.757,33.096l-0.868,0.992c0,0,2.416-0.251,3.41,0.028l1.002-1.159
			C16.284,32.789,13.757,33.096,13.757,33.096z"/>
		<path class="st1" d="M15.055,31.791l-1.147,1.138c0,0,2.115-0.287,3.51-0.104l0.548-0.606
			C17.445,31.774,15.055,31.791,15.055,31.791z"/>
		<path class="st1" d="M15.273,31.593l-0.06,0.054c0,0,2.063-0.034,2.855,0.463l0.117-0.125
			C17.546,31.621,15.273,31.593,15.273,31.593z"/>
		<path class="st1" d="M16.413,30.607l-0.985,0.846c0,0,2.297,0.042,2.861,0.421l0.847-0.834
			C18.393,30.617,16.413,30.607,16.413,30.607z"/>
		<polygon class="st1" points="15.095,36.236 15.126,36.444 15.455,35.866 15.423,35.666 		"/>
		<polygon class="st1" points="15.535,35.483 15.567,35.683 16.121,34.874 16.084,34.646 		"/>
		<polygon class="st1" points="16.201,34.483 16.239,34.722 16.292,34.653 16.246,34.419 		"/>
		<polygon class="st1" points="16.359,34.269 16.408,34.511 17.35,33.452 17.31,33.163 		"/>
		<polygon class="st1" points="17.432,33.025 17.472,33.316 18.042,32.708 17.971,32.429 		"/>
		<polygon class="st1" points="18.084,32.306 18.156,32.588 18.267,32.473 18.227,32.15 		"/>
		<polygon class="st1" points="18.352,32.019 18.393,32.346 19.14,31.611 19.131,31.232 		"/>
		<path class="st1" d="M25.532,36.793c0-0.444-0.36-0.804-0.803-0.804c-0.444,0-0.804,0.36-0.804,0.804
			c0,0.444,0.36,0.803,0.804,0.803C25.172,37.596,25.532,37.238,25.532,36.793z M24.097,36.793c0-0.349,0.283-0.632,0.632-0.632
			c0.347,0,0.631,0.282,0.631,0.632c0,0.349-0.283,0.631-0.631,0.631C24.38,37.424,24.097,37.142,24.097,36.793z"/>
		<path class="st1" d="M25.059,37.253l-0.182-0.389c0.106-0.038,0.182-0.139,0.182-0.256c0-0.151-0.122-0.273-0.273-0.273h-0.387
			v0.919h0.172V36.88h0.124l0.173,0.373H25.059z M24.786,36.707h-0.215v-0.201h0.215c0.056,0,0.101,0.046,0.101,0.101
			C24.887,36.663,24.843,36.707,24.786,36.707z"/>
	</g>
	<g>
		<path class="st32" d="M19.679,31.374c-0.056,0.047-0.107,0.094-0.162,0.141l2.753,4.394l3.056-4.884
			c-0.09,0.009-0.176,0.017-0.265,0.026l-2.791,4.462L19.679,31.374z"/>
		<path class="st32" d="M37.628,10.969l-3.572,5.709c0.117-0.055,0.238-0.11,0.359-0.168l3.664-5.852
			c-2.295,0.46-6.633,1.265-10.789,1.704c0.041,0.068,0.082,0.137,0.123,0.205C31.326,12.146,35.369,11.411,37.628,10.969z"/>
		<path class="st32" d="M18.324,29.207l-1.054-1.684c-0.097-0.021-0.193-0.041-0.291-0.064l1.084,1.732
			C18.14,29.195,18.226,29.2,18.324,29.207z"/>
		<path class="st32" d="M28.08,31.997c0.282-0.381,0.473-0.624,0.52-0.776c-0.249,0.107-0.569,0.168-0.742,0.432
			C27.858,31.652,27.986,31.776,28.08,31.997z"/>
		<path class="st32" d="M29.532,32.258c0,0,0.187-0.024,0.353-0.189c0,0-0.177-0.27-0.279-0.522
			C29.48,31.863,29.532,32.258,29.532,32.258z"/>
		<path class="st32" d="M28.661,25.594c0.151,1.198,0.438,1.706,0.438,1.706s0.452,0.354,1.311,0.705
			C29.542,26.399,28.661,25.594,28.661,25.594z"/>
		<path class="st32" d="M19.253,30.941l0.346-0.194c0,0,1.422,0.229,9.937-0.649c-0.204-0.148-0.304-0.118-0.304-0.457
			c0-0.108,0.018-0.126-0.166-0.126c-0.187,0-0.265-0.05-0.484-0.05c-0.275,0-0.68,0.275-4.853,0.275
			c-3.322,0-5.646-0.279-5.799-0.279c-0.153,0-0.452,0.284-1.341,0.999C16.589,30.46,18.338,30.437,19.253,30.941z"/>
		<path class="st32" d="M14.914,36.275c-1.28-0.244-3.922,0.198-3.922,0.198l-0.71,1.021l4.136-0.194L14.914,36.275z"/>
		<path class="st32" d="M43.362,16.65c-1.382,2.484-2.887,5.775-4.532,7.811l0.475-0.299l0.103-0.101l-0.084,0.279l0.199-0.096
			l-0.301,0.533l0.281-0.226c0,0,1.408-1.583,4.968-8.012C43.678,16.419,43.362,16.65,43.362,16.65z"/>
		<path class="st32" d="M43.508,15.686l-0.288,0.456c0,0,0.696-0.132,1.624-0.055l0.335-0.473
			C44.158,15.422,43.508,15.686,43.508,15.686z"/>
		<path class="st32" d="M39.117,24.508c0,0-0.132,0.107-0.335,0.164l0.174,0.368l0.107-0.083l-0.043-0.132l0.18-0.341L39.117,24.508
			z"/>
		<path class="st32" d="M40.353,25.462c-0.29-0.151-0.854,0.072-0.854,0.072s0.572,0.134,0.896,0.281
			C40.394,25.816,40.337,25.684,40.353,25.462z"/>
	</g>
	<g>
		<path class="st33" d="M20.324,31.317c-0.377,0.006-0.586,0.006-0.586,0.006c-0.02,0.017-0.037,0.035-0.058,0.051l2.591,4.139
			l2.791-4.462c-0.244,0.021-0.483,0.043-0.717,0.06l-2.074,3.29L20.324,31.317z"/>
		<path class="st33" d="M18.324,29.207c0.193,0.013,0.429,0.03,0.702,0.051l-1.001-1.587c-0.233-0.04-0.491-0.093-0.755-0.148
			L18.324,29.207z"/>
		<path class="st33" d="M36.608,11.667l-3.426,5.431c0.259-0.129,0.554-0.271,0.873-0.421l3.572-5.709
			c-2.259,0.442-6.302,1.177-10.215,1.599c0.093,0.154,0.185,0.31,0.277,0.467C30.907,12.68,34.201,12.12,36.608,11.667z"/>
		<path class="st33" d="M19.747,12.985c0-0.253-0.011-0.509-0.034-0.769c-2.227,0.236-3.555,0.762-4.065,1.001
			C16.43,12.998,17.816,12.932,19.747,12.985z"/>
		<path class="st33" d="M36.673,23.254c0,0-2.709-3.804-7.918-7.637c0.442,0.914,0.854,1.859,1.224,2.836
			c0.053,0.137,0.045,0.257-0.071,0.257c-1.142,0-5.171-2.216-9.126-1.819c2.054,1.957,4.099,4.704,2.117,3.702
			c0,0,2.067,1.277,4.498,3.837c1.81,0,2.17,0.306,2.277,0.559c0.205,0.489,0.505,1.356,1.69,2.754c0.544,0,0.644-0.036,0.843-0.524
			c0,0,0.148,0.624-0.126,1.082c2.471,1.951,7.268,3.917,8,3.917c0.296,0-0.312-2.684-1.7-5.912
			C37.927,24.262,37.676,23.689,36.673,23.254z"/>
		<path class="st33" d="M14.16,20.929c0,0,0.707,0.416,1.866,1.291c-0.284-0.493-1.036-1.029-1.858-1.529l-1.805,0.132l0.133,0.216
			C13.047,21.004,13.603,20.967,14.16,20.929z"/>
		<path class="st33" d="M24.79,24.091c-0.284,1.545,0.016,2.784,0.016,2.784c-0.049-0.516,0.356-2.247,0.356-2.247L24.79,24.091z"/>
		<path class="st33" d="M23.884,23.209c-0.285,1.772,0.116,3.186,0.116,3.186c-0.086-0.651,0.255-2.569,0.255-2.569L23.884,23.209z"
			/>
		<path class="st33" d="M22.988,22.407c-0.294,1.894,0.164,3.407,0.164,3.407c-0.087-0.861,0.207-2.87,0.207-2.87L22.988,22.407z"/>
		<path class="st33" d="M20.945,19.281c0,0-3.485-2.883-7.809-3.609c-0.156,0-0.469,0.656-0.469,0.656s0.458-0.412,0.598-0.412
			C16.968,16.631,20.945,19.281,20.945,19.281z"/>
	</g>
	<g>
		<path d="M38.079,10.657l-3.664,5.852c0.401-0.186,0.824-0.379,1.244-0.571l3.911-6.324c0,0-6.651,1.453-12.705,2.066
			c0.142,0.225,0.285,0.451,0.426,0.681C31.446,11.922,35.784,11.117,38.079,10.657z"/>
		<path d="M21.89,27.62c-0.191-0.209-0.381-0.415-0.57-0.614c1.389,0.847,2.657,1.692,3.798,2.451
			c-0.287,0.004-0.6,0.005-0.942,0.005c-2.306,0-4.048-0.12-5.15-0.203c-0.273-0.021-0.509-0.038-0.702-0.051
			c-0.098-0.007-0.183-0.012-0.261-0.016l-1.084-1.732c-0.438-0.097-0.855-0.198-1.143-0.269l1.449,2.343
			c-1.355,0.973-4.83,3.923-7.346,8.035l0.22,0.406c0,0,2.433-0.151,4.488-0.209c0,0,0.921-2.63,4.221-5.673l3.404,5.504l4.129-6.68
			c0.267-0.029,0.538-0.06,0.813-0.094c0.286,0.179,0.562,0.347,0.826,0.499c-0.142,0.084-0.261,0.192-0.353,0.355
			c0,0,0.237,0.163,0.254,0.484c0,0,0.203,0.033,0.418-0.027c0,0,0.145-0.221,0.272-0.487c0.27,0.139,0.524,0.258,0.763,0.354
			C29.391,32.229,29.43,32.4,29.43,32.4s0.263,0.08,0.58-0.202c1.83,0.417,2.924,0.063,2.924,0.063
			c1.857,0.55,2.801-0.065,2.801-0.065c0.729,0.316,1.336,0.499,3.329,0.499c1.081,0,1.438-0.131,1.438-0.313
			c0-0.869-0.92-4.428-1.838-6.259c-0.507-2.104-0.587-2.488-1.706-3.053l-0.184-0.237c2.059-3.688,3.55-8.089,3.55-8.616
			c0-0.128-0.057-0.166-0.136-0.126c-3.277,1.661-6.874,3.143-7.671,3.699l-0.213,0.295c-1.763-1.571-3.273-2.674-3.858-3.085
			C24.783,7.812,19.163,2.76,15.542,0.95c0,0.751,3.584,6.267,4.133,10.902C13.192,11.411,4.971,9.615,4.971,9.615l7.08,11.452
			c-5.814,0.356-10.915,0.477-10.915,0.477c0,0.404,6.492,3.509,16.076,5.676C19.31,27.695,20.87,27.62,21.89,27.62z M13.265,15.917
			c-0.139,0-0.598,0.412-0.598,0.412s0.313-0.656,0.469-0.656c4.324,0.726,7.809,3.609,7.809,3.609S16.968,16.631,13.265,15.917z
			 M23.152,25.814c0,0-0.458-1.512-0.164-3.407l0.371,0.537C23.358,22.944,23.064,24.953,23.152,25.814z M24.001,26.396
			c0,0-0.401-1.414-0.116-3.186l0.371,0.617C24.255,23.826,23.915,25.744,24.001,26.396z M24.805,26.875c0,0-0.3-1.24-0.016-2.784
			l0.372,0.537C25.161,24.628,24.756,26.359,24.805,26.875z M25.303,28.579c0,0,0.47-0.141,1.327-0.141c0,0-0.107,0.253-0.212,0.316
			c0,0,0.205,0.183,0.867-0.001c0,0-0.095,0.286-0.242,0.432c0,0,0.321,0.168,1.068-0.071l-0.093,0.142
			c-0.24,0.039-0.581,0.089-1.141,0.129C26.482,28.981,26.015,28.668,25.303,28.579z M14.418,37.299l-4.136,0.194l0.71-1.021
			c0,0,2.642-0.442,3.922-0.198L14.418,37.299z M11.126,36.3l0.821-1.051c0,0,2.651-0.204,3.441,0.205l-0.402,0.689
			C13.539,35.924,11.126,36.3,11.126,36.3z M15.126,36.444l-0.031-0.208l0.328-0.569l0.033,0.199L15.126,36.444z M12.067,35.097
			l0.254-0.319c0,0,2.931-0.47,3.735-0.34l-0.591,0.889C14.558,34.908,12.067,35.097,12.067,35.097z M15.567,35.683l-0.032-0.2
			l0.55-0.838l0.037,0.228L15.567,35.683z M12.463,34.603l0.289-0.352c0,0,2.713-0.257,3.452-0.013l-0.053,0.072
			C15.446,34.138,12.463,34.603,12.463,34.603z M16.239,34.722l-0.038-0.239l0.045-0.064l0.046,0.234L16.239,34.722z M12.889,34.088
			l0.868-0.992c0,0,2.527-0.307,3.544-0.139l-1.002,1.159C15.304,33.837,12.889,34.088,12.889,34.088z M16.408,34.511l-0.048-0.242
			l0.95-1.106l0.04,0.289L16.408,34.511z M13.909,32.929l1.147-1.138c0,0,2.39-0.016,2.911,0.429l-0.548,0.606
			C16.024,32.642,13.909,32.929,13.909,32.929z M17.472,33.316l-0.041-0.291l0.539-0.596l0.072,0.278L17.472,33.316z M15.212,31.647
			l0.06-0.054c0,0,2.273,0.028,2.912,0.392l-0.117,0.125C17.275,31.613,15.212,31.647,15.212,31.647z M18.156,32.588l-0.072-0.282
			l0.144-0.157l0.04,0.323L18.156,32.588z M15.428,31.454l0.985-0.846c0,0,1.979,0.01,2.723,0.434l-0.847,0.834
			C17.725,31.495,15.428,31.454,15.428,31.454z M18.393,32.346l-0.041-0.327l0.779-0.787l0.009,0.38L18.393,32.346z M22.271,35.909
			l-2.753-4.394c0.055-0.047,0.106-0.094,0.162-0.141c0.021-0.017,0.038-0.034,0.058-0.051c0,0,0.21,0,0.586-0.006
			c0.755-0.014,2.195-0.059,4.021-0.206c0.233-0.017,0.472-0.038,0.717-0.06c0.089-0.009,0.176-0.017,0.265-0.026L22.271,35.909z
			 M19.599,30.747l-0.346,0.194c-0.915-0.504-2.664-0.481-2.664-0.481c0.889-0.715,1.187-0.999,1.341-0.999
			c0.154,0,2.478,0.279,5.799,0.279c4.172,0,4.578-0.275,4.853-0.275c0.219,0,0.297,0.05,0.484,0.05
			c0.184,0,0.166,0.018,0.166,0.126c0,0.339,0.1,0.31,0.304,0.457C21.021,30.977,19.599,30.747,19.599,30.747z M28.08,31.997
			c-0.095-0.221-0.222-0.344-0.222-0.344c0.173-0.264,0.493-0.325,0.742-0.432C28.553,31.373,28.363,31.616,28.08,31.997z
			 M29.532,32.258c0,0-0.051-0.395,0.074-0.711c0.102,0.251,0.279,0.522,0.279,0.522C29.718,32.234,29.532,32.258,29.532,32.258z
			 M32.834,31.989c-1.168,0.147-2.052,0.103-2.75-0.058c-0.031-0.149-0.191-0.178-0.316-0.359c-0.047-0.068-0.092-0.314-0.178-0.337
			c-0.098,0.154-0.148,0.324-0.172,0.487c-0.253-0.103-0.475-0.225-0.673-0.36c0.04-0.118,0.067-0.235,0.067-0.337
			c-0.128,0.043-0.249,0.08-0.361,0.116c-0.162-0.134-0.308-0.276-0.444-0.421c0.481-0.065,0.972-0.139,1.47-0.217
			c0.252-0.154,0.341-0.246,0.344-0.327c0.179-0.015,0.363-0.035,0.543-0.063c-0.235,0.235-0.606,0.491-0.904,0.789
			c0,0,0.626,0.203,2.29,0.13c0,0-0.369,0.285-0.875,0.583c0,0,0.575,0.141,2.283,0.111L32.834,31.989z M33.056,32.009
			c0.224-0.181,0.45-0.431,0.45-0.431c-1.15,0.02-2.22-0.049-2.22-0.049c0.478-0.243,0.823-0.665,0.823-0.665
			c-0.803,0.1-2.35-0.044-2.35-0.044c0.558-0.379,0.927-0.892,0.927-0.892c-0.332,0.047-0.662,0.078-0.948,0.101
			c-0.065-0.067-0.154-0.145-0.233-0.26c-0.058-0.451-0.105-0.532-0.492-0.532c-0.206,0-0.233-0.049-0.467-0.049
			c-0.106,0-0.204,0.014-0.336,0.036c0.088-0.162,0.15-0.308,0.15-0.308c-0.728,0.168-1.083,0.171-1.083,0.171
			c0.19-0.251,0.167-0.532,0.167-0.532c-0.418,0.149-0.78,0.127-0.78,0.127s0.067-0.111,0.112-0.24c3.053,0,5.061,2.196,8.709,3.648
			C34.476,32.329,33.056,32.009,33.056,32.009z M28.661,25.594c0,0,0.881,0.805,1.749,2.411c-0.859-0.351-1.311-0.705-1.311-0.705
			S28.812,26.792,28.661,25.594z M29.907,18.709c0.116,0,0.124-0.12,0.071-0.257c-0.37-0.977-0.782-1.923-1.224-2.836
			c5.209,3.833,7.918,7.637,7.918,7.637c1.003,0.435,1.254,1.008,1.707,3.053c1.389,3.228,1.997,5.912,1.7,5.912
			c-0.732,0-5.529-1.966-8-3.917c0.274-0.458,0.126-1.082,0.126-1.082c-0.199,0.489-0.299,0.524-0.843,0.524
			c-1.185-1.398-1.485-2.266-1.69-2.754c-0.107-0.253-0.467-0.559-2.277-0.559c-2.431-2.56-4.498-3.837-4.498-3.837
			c1.981,1.001-0.063-1.745-2.117-3.702C24.737,16.494,28.766,18.709,29.907,18.709z M19.747,12.985
			c-1.931-0.053-3.317,0.013-4.099,0.231c0.51-0.239,1.838-0.765,4.065-1.001C19.735,12.476,19.747,12.732,19.747,12.985z
			 M14.16,20.929c-0.557,0.038-1.114,0.075-1.664,0.11l-0.133-0.216l1.805-0.132c0.823,0.5,1.574,1.036,1.858,1.529
			C14.867,21.345,14.16,20.929,14.16,20.929z"/>
		<path d="M39.2,25.476l0.067,0.243c0,0,0.596,0.407,1.026,0.527l0.344-0.248c0,0-0.198-0.253-0.135-0.624
			C40.053,25.083,39.2,25.476,39.2,25.476z M39.498,25.535c0,0,0.564-0.223,0.854-0.072c-0.016,0.222,0.041,0.353,0.041,0.353
			C40.07,25.669,39.498,25.535,39.498,25.535z"/>
		<path d="M43.371,15.331l-0.467,0.831l0.102,0.636c-2.092,4.114-4.42,7.839-4.42,7.839l0.288,0.699l0.339-0.236l0.234,0.02
			c0,0,2.23-2.133,5.07-7.639c0,0,0.823,0.026,0.889-0.638c0.068-0.675,0.114-1.143,0.114-1.413
			C44.497,15.056,43.371,15.331,43.371,15.331z M39.062,24.957l-0.107,0.083l-0.174-0.368c0.204-0.057,0.335-0.164,0.335-0.164
			l0.082-0.024l-0.18,0.341L39.062,24.957z M39.502,24.551l-0.281,0.226l0.301-0.533l-0.199,0.096l0.084-0.279l-0.103,0.101
			l-0.475,0.299c1.645-2.036,3.15-5.327,4.532-7.811c0,0,0.316-0.231,1.108-0.111C40.91,22.969,39.502,24.551,39.502,24.551z
			 M45.18,15.614l-0.335,0.473c-0.928-0.077-1.624,0.055-1.624,0.055l0.288-0.456C43.508,15.686,44.158,15.422,45.18,15.614z"/>
	</g>
</g>
</svg>
