<?xml version="1.0" encoding="UTF-8"?>
<svg width="702px" height="560px" viewBox="0 0 702 560" version="1.1" xmlns="http://www.w3.org/2000/svg" xmlns:xlink="http://www.w3.org/1999/xlink">
    <!-- Generator: Sketch 58 (84663) - https://sketch.com -->
    <title>Untitled 3</title>
    <desc>Created with Sketch.</desc>
    <g id="Page-1" stroke="none" stroke-width="1" fill="none" fill-rule="evenodd">
        <g id="blues" fill-rule="nonzero">
            <path d="M332.02,530.855 L332.02,542.68 L329.064,542.68 L329.064,530.855 L325.641,530.855 L325.641,527.918 L335.443,527.918 L335.443,530.855 L332.021,530.855 L332.02,530.855 Z M348.044,542.68 L348.044,533.967 L345.554,539.395 L342.942,539.395 L340.452,533.967 L340.452,542.68 L337.496,542.68 L337.496,527.918 L340.452,527.918 L344.248,535.801 L348.044,527.918 L351,527.918 L351,542.68 L348.043,542.68 L348.044,542.68 Z" id="Shape" fill="#041E42"></path>
            <path d="M701.31,0 L122.4,0 C160.747,59.818 173.496,79.49 140.881,78.554 L92.79,0 L0.69,0 L209.882,341.732 C207.064,341.616 204.205,341.441 201.424,341.441 C115.677,341.441 48.511,389.437 48.511,450.728 C48.511,512.004 115.677,560 201.424,560 C287.175,560 354.345,512.004 354.345,450.728 C354.345,435.219 350.024,420.275 341.503,406.288 L294.623,329.72 C294.623,329.72 332.361,337.304 360.68,324.223 L347.013,306.623 C347.013,306.623 404.546,311.96 457.553,296.16 L439.583,277.108 C439.583,277.108 520.262,275.054 576.179,203.324 L570.604,203.324 C570.604,203.324 612.252,183.234 629.807,138.809 L624.382,138.809 C624.382,138.809 651.073,118.938 660.164,78.098 L652.294,78.098 C652.294,78.098 694.694,48.206 701.31,0 Z" id="Path" fill="#041E42"></path>
            <path d="M686.99,10.086 L141.156,10.086 C185.88,77.851 172.684,88.766 135.291,88.766 L87.13,10.086 L18.703,10.086 L228.889,353.456 C219.91,352.264 210.774,351.531 201.424,351.531 C121.334,351.531 58.607,395.099 58.607,450.728 C58.607,506.342 121.334,549.898 201.424,549.898 C281.515,549.898 344.254,506.342 344.254,450.728 C344.254,437.1 340.434,423.921 332.881,411.55 L273.365,314.327 C273.365,314.327 314.765,327.962 343.781,318.912 L325.443,295.292 C325.443,295.292 393.798,300.972 439.509,291.739 L417.759,268.669 C417.759,268.669 519.557,267.657 557.547,204.797 L540.122,204.797 C540.122,204.797 588.112,198.099 612.335,146.26 L594.593,146.26 C594.593,146.26 635.892,127.234 647.094,83.961 L627.926,83.961 C627.926,83.961 670.793,55.502 686.99,10.086 Z" id="Path" fill="#FFFFFF"></path>
            <path d="M675.596,17.177 L153.8,17.177 C184.716,64.24 190.593,98.895 131.196,95.643 L83.156,17.177 L31.35,17.177 L243.131,363.127 C229.431091,360.131587 215.448552,358.619545 201.425,358.617 C126.584,358.617 65.693,399.927 65.693,450.727 C65.693,501.495 126.583,542.816 201.425,542.816 C276.275,542.816 337.172,501.495 337.172,450.728 C337.172,438.424 333.699,426.487 326.838,415.245 L257.851,302.535 C257.851,302.535 301.329,317.738 331.397,314.552 C331.397,314.552 317.76,297.674 311.677,287.184 C311.677,287.184 361.151,293.131 425.768,287.494 L401.528,261.784 C403.508,261.825 405.616,261.855 407.89,261.855 C512.707,261.855 544.272,208.135 544.272,208.135 L515.708,208.135 C515.708,208.135 586.49,190.098 601.618,149.595 L575.37,149.595 C575.37,149.595 631.367,122.143 636.837,91.047 L604.88,91.047 C604.88,91.047 660.718,59.535 675.596,17.177 L675.596,17.177 Z" id="Path" fill="#FFB81C"></path>
            <path d="M663.513,24.694 L167.212,24.694 C208.343,91.879 167.157,107.006 126.846,102.935 L78.95,24.694 L44.763,24.694 L259.358,375.252 C241.953,369.432 222.276,366.127 201.425,366.127 C130.605,366.127 73.198,403.999 73.198,450.727 C73.198,497.434 130.605,535.299 201.425,535.299 C272.245,535.299 329.649,497.434 329.649,450.728 C329.649,439.564 326.367,428.918 320.415,419.149 L240.866,289.2 C240.866,289.2 292.258,307.032 315.973,307.032 C315.973,307.032 305.171,293.262 298.653,278.436 C298.653,278.436 360.215,285.072 409.522,281.22 L382.713,252.798 C382.713,252.798 390.709,254.343 407.889,254.343 C494.645,254.343 527.9,215.655 527.9,215.655 L269.933,215.655 L266.162,209.493 L480.2,209.493 C480.2,209.493 567.42,192.834 588.471,157.11 L234.09,157.11 L230.323,150.957 L556.51,150.957 C556.51,150.957 617.236,121.648 625.96,98.57 L198.258,98.57 L194.486,92.402 L587.56,92.402 C587.56,92.402 644.838,62.609 663.513,24.694 L663.513,24.694 Z" id="Path" fill="#003087"></path>
        </g>
    </g>
</svg>