<svg width="500" height="500" viewBox="0 0 500 500" xmlns="http://www.w3.org/2000/svg"><title>tampa-bay-lightning</title><g fill="none" fill-rule="evenodd"><path d="M0 0h500v500H0z"/><g fill-rule="nonzero"><path d="M391.42744 368.7143c-5.19097 0-9.40592 4.20805-9.40592 9.40278 0 5.18908 4.21495 9.40404 9.40592 9.40404 5.19159 0 9.39965-4.21496 9.39965-9.40342 0-5.19535-4.20806-9.4034-9.39965-9.4034zm0 16.78898c-1.95929.00166-3.8388-.77592-5.22423-2.16135-1.38542-1.38542-2.16301-3.26494-2.16135-5.22423 0-4.0808 3.30038-7.38118 7.38558-7.38118 4.0808 0 7.38432 3.30038 7.38432 7.38118 0 4.08207-3.30351 7.38558-7.38432 7.38558zm3.86392-9.56577a3.18754 3.18754 0 0 0-3.19068-3.18566h-4.5309v10.73359h2.01409v-4.35913h1.44552l2.03476 4.35913h2.2272l-2.1244-4.5453c1.27151-.45153 2.12202-1.6534 2.12503-3.00263h-.00063zm-3.19068 1.17347h-2.51682v-2.34882h2.51682c.64754 0 1.1766.52656 1.1766 1.17598-.00245.64816-.52844 1.17253-1.1766 1.17284z" fill="#00205B"/><path d="M464.01067 231.43614h-3c0-42.74327-26.64003-83.8902-71.93015-109.41443l-13.59824 10.78991c31.95548 21.4392 50.09972 52.45928 50.09972 86.93936 0 83.89956-102.85565 159.07683-216.82748 159.07683-11.19277 0-22.26219-.78226-33.05664-2.3242l-32.3212 23.91851c22.39482 6.90618 46.92033 10.48822 72.28951 10.48822 129.45334 0 245.34448-87.07636 245.34448-179.4742h3zm0 0h3c0 96.14485-118.88968 185.4742-251.34448 185.4742-28.1105 0-55.23874-4.30222-79.72605-12.58683l-5.43647-1.83928 43.61637-32.27722 1.2276.18229c10.89075 1.61718 22.08211 2.43851 33.40688 2.43851 110.9917 0 210.82748-72.97004 210.82748-153.07683 0-33.56702-18.35226-63.72111-50.8296-84.15768l-3.58537-2.25611 23.31608-18.50082 1.74715.9592c48.18002 26.45115 76.7804 70.04944 76.7804 115.64057h-3z" fill="#FFF"/><path d="M236.25745 270.11095l70.16292-13.71824L17.7216 470.12327l75.36476-86.21774c-39.51145-25.52715-62.0757-63.26826-62.0757-107.74349 0-98.00688 115.65756-186.95232 246.65124-186.95232 1.8568 0 3.76332.02317 6.03564.0691l174.153-45.82192-140.72982 111.61195 70.67236-9.475-151.53562 124.51709zm45.23851-2.73142l-67.40358 13.17874 153.60356-126.21632-71.38116 9.57003L431.6946 56.54308 284.4122 95.295c-2.84123-.05968-4.82771-.08526-6.75031-.08526-127.97292 0-240.65123 86.65428-240.65123 180.95232 0 43.40003 22.55076 80.03642 62.21719 104.52623l3.01356 1.86056-43.44283 49.69886 222.69738-164.86817zM261.7048 109.16477C154.2454 111.11279 55.37116 182.53252 55.37116 262.19641c.14054 39.04324 23.90454 71.50703 64.28779 91.31778l26.3271-30.11403-49.20088 8.8865 118.41159-114.51751-58.8981 9.31577L261.7048 109.16477zm4.49698-6.0408c.33694 0 .68048.00257 1.11227.0077.82733.0107.82733.0107 1.14586.01442l6.60791.07225L171.9955 218.5276l61.02878-9.65278-117.87413 113.99774 46.6298-8.42213-40.60004 46.44002-2.04978-.97069c-43.70123-20.69498-69.7596-55.71079-69.7596-97.72335v-3c2.47982-83.36451 106.01612-156.07244 216.83124-156.07244z" fill="#FFF"/><path d="M464.01067 231.43614c0-43.60886-27.11011-86.59589-75.22416-113.01082l-18.43636 14.62885c32.88092 20.69052 52.23185 51.60938 52.23185 86.69681 0 81.89826-101.20218 156.07683-213.82748 156.07683-11.56041 0-22.89704-.845-33.84752-2.47105l-38.00543 28.12498c23.99779 8.119 50.77817 12.4286 78.76462 12.4286 133.69758 0 248.34448-90.26422 248.34448-182.4742" stroke="#FFF" stroke-width="6" fill="#00205B"/><path d="M293.95817 261.88612l-68.78325 13.44849L377.7445 149.9679l-71.02676 9.5225L444.77257 50 284.05516 92.28683c-2.11876-.0445-4.2438-.0771-6.39327-.0771-131.71045 0-243.65123 89.51263-243.65123 183.95232 0 46.33567 24.9575 83.19584 63.64118 107.07892l-59.39175 67.94452 255.69808-189.29937zm-241.587.31029c0-84.68524 105.96938-156.07244 213.8306-156.07244.7447 0 1.48.0138 2.22533.02194L164.14708 222.80626l59.96344-9.48427-118.14286 114.25763 47.91534-8.65433-33.4689 38.28313c-40.66579-19.25753-68.04357-52.46754-68.04357-95.01201h.00063z" stroke="#FFF" stroke-width="6" fill="#00205B"/></g></g></svg>