<svg xmlns="http://www.w3.org/2000/svg" viewBox="0 0 24 16"><path d="M8.665 9.275v.003c.067-.067 1.439-1.434 2.877-1.728l1.122-.867c-2.68.156-3.93 2.462-3.999 2.592M19.004 7.418c0-.34-.449-.571-.829-.877-1.504-.168-1.915-.531-1.915-.762 0-.091.076-.112.15-.112.341 0 .791.242 1.048.516-.149-.394-1.052-.857-1.637-.857-.111 0-.273.035-.273.211 0 .371.557.841 1.99.956.768.182 1.566.611 1.413 1.164a.542.542 0 00.053-.239M16.184 7.415l.558.198c.103-.044.215-.098.224-.113.007-.014.007-.026-.017-.048a5.123 5.123 0 00-.421-.165l-.344.128M16.656 7.239c.147.06.354.141.371.145a.248.248 0 00.086 0c.018-.005.141-.067.23-.112-.088-.043-.261-.124-.379-.124-.112 0-.308.091-.308.091M17.207 7.431c-.005.013-.001.02.018.035.022.016.312.166.335.169a.159.159 0 00.065-.003c.016-.004.117-.068.185-.115l-.387-.207c-.1.049-.207.108-.216.121M17.482 7.739c.007-.014.01-.024.006-.038a2.554 2.554 0 00-.337-.175.13.13 0 00-.081.009c-.024.011-.17.092-.223.122l.449.204a2.12 2.12 0 00.186-.122M18.033 7.897a.232.232 0 00.07-.016c.017-.007.083-.06.127-.097l-.346-.221a1.619 1.619 0 00-.18.124c0 .003.001.011.02.036l.309.174M18.175 7.931c-.01.02-.011.028-.006.035.011.011.191.13.313.211l.14-.14-.319-.206a.845.845 0 00-.128.1M17.978 7.99c.006-.01.003-.027-.01-.039a3.11 3.11 0 00-.315-.17.223.223 0 00-.089.008 1.76 1.76 0 00-.168.114l.424.198c.072-.048.151-.1.158-.111M18.051 8.046c-.011.004-.092.066-.151.111l.383.238.143-.156a9.208 9.208 0 00-.3-.202.187.187 0 00-.075.009" fill="#fff"/><path d="M15.039 7.498c2.066.548 2.947 1.264 2.947 1.264l.22-.248c-.103-.076-.864-.602-2.355-1.091.444-.176.981-.384 1.127-.384.33 0 1.006.429 1.733.905l.166-.187c-.636-.437-1.383-.957-1.92-.957-.436 0-1.065.27-1.918.698" fill="#fff"/><path d="M11.81 9.785l3.294-1.643c2.254.632 2.922 1.488 2.922 1.488l1.291-1.46c.071-.074.283-.338.283-.816 0-.519-.541-.92-.92-1.192-.641-1.686-4.195-2.174-4.458-2.761-.09-.202-.609-1.955-.609-1.955-.309-.908-1.223-.908-1.567-.908-.346 0-1.087.116-1.087.116 0 1.265-.172 2.807-.35 3.088 0 0-.641.337-1.396.608L7.416 3.138l.472 1.632C4.855 6.437 4.116 9.341 4.116 9.341s.78 6.121 8.452 6.121c4.056 0 6.398-1.961 6.398-1.961l-1.307-2.922s-1.995 1.037-4.546 1.037c-2.352 0-3.271-1.096-3.607-1.734 1.991.06 2.304-.097 2.304-.097M7.699 3.569L9.45 4.78l-.36.483-.889-.219-.502-1.475zm-.468 6.306l-.285 1.09.647-.304.342 1.217.727-.01.016.795s1.2.749 3.042.944c2.411.257 5.063-.783 5.063-.783s-2.224.848-4.709.625c-1.881-.168-2.992-.938-2.992-.938l-.196-.881-.59.076-.494-1.255-.514.153.247-.856-1.198-.222.59-.386.684-.247-.114-.248.877-.291c-.018.15-.033.334-.033.552 0 .983.959 3.594 4.772 3.594 1.933 0 3.5-.524 4.101-.757l.649 1.45c-.607.358-2.587 1.386-5.295 1.386-6.276 0-7.413-4.509-7.545-5.16 1.088-2.839 2.966-3.803 3.84-4.108l-.289.904-.727-.413.41.827-1.178.227.723.286-1.661 1.237.397-.01-.295.593-.254.76 1.242.153zm5.883 2.086c2.409 0 4.375-.922 4.375-.922l1.053 2.354s-2.252 1.726-5.973 1.726c-7.276 0-8.1-5.752-8.1-5.752s.8-2.77 3.515-4.267l.027.095.322.036c-1.026.475-2.64 1.599-3.6 4.163 0 0 .883 5.467 7.835 5.467 3.401 0 5.649-1.557 5.649-1.557l-.859-1.921s-1.85.837-4.245.837c-3.315 0-4.253-1.981-4.448-2.942v-.003a2.039 2.039 0 01-.044-.369c0-.618.12-.936.12-.936l-1.59.64.226.233s-.239.069-1.028.426l.547-.988-.414-.032 1.534-1.18-.533-.182.943-.157-.189-.468.528.275.406-1.268.369-.37.196-.195-.192-.13c.641-.247 1.23-.485 1.31-.584.32-.348.45-2.352.45-3.04 0 0 .418-.067.742-.067.338 0 1.013 0 1.242.674.287.933.483 1.699.636 2.02.382.798 3.839 1.107 4.465 2.8.301.217.867.596.867.977 0 .405-.192.584-.192.584l-1.047 1.18s-.66-.699-2.948-1.345L11.69 9.46c-.653.175-2.697.052-2.697.052s.532 2.449 4.121 2.449" fill="#a8aaad"/><path d="M10.178 6.291l-.861.481 1.714.231-.853-.712zm-.107.189l.656.382-1.119-.135.463-.247zM9.067 7.639l.151-1.063-1.99 1.339 1.839-.276zm-.136-.101l-1.22.19 1.347-.913-.127.723zM10.744 4.694l-1.439.804.374.894 1.065-1.698zm-1.222.854l.911-.514-.785 1.064-.126-.55z" fill="#98989a"/><path fill="#fff" d="M8.931 7.538l.127-.723-1.347.913zM9.608 6.727l1.118.135-.655-.382zM10.433 5.034l-.911.514.126.55z"/><path d="M17.214 11.743c-.6.232-2.168.757-4.101.757-3.814 0-4.772-2.612-4.772-3.594 0-.218.014-.401.033-.552l-.877.291.114.248-.684.246-.59.386 1.199.222-.247.856.514-.153.494 1.255.59-.076.196.881s1.11.77 2.992.938c2.485.222 4.709-.625 4.709-.625s-2.653 1.04-5.063.783c-1.842-.195-3.042-.944-3.042-.944l-.016-.795-.727.01-.342-1.216-.647.303.285-1.09-1.243-.152.253-.761.295-.593-.397.01 1.661-1.236-.722-.286 1.179-.227-.41-.827.727.414.289-.904c-.875.304-2.753 1.268-3.841 4.108.132.651 1.269 5.16 7.545 5.16 2.708 0 4.688-1.028 5.295-1.386l-.649-1.451M9.09 5.263l.36-.483-1.751-1.211.502 1.475zM13.234 4.045s-.485-.204-.618-.37c-.131-.166-.285-1.817-.285-1.817s-.027 1.686-.123 1.835c-.098.15-.581.428-.581.428s.535-.175.799-.19c.194-.011.808.114.808.114" fill="#fff"/><path d="M18.389 6.376c-.626-1.693-4.083-2.002-4.465-2.8-.153-.321-.349-1.087-.636-2.02-.229-.674-.904-.674-1.242-.674-.323 0-.742.067-.742.067 0 .688-.13 2.692-.45 3.04-.08.099-.668.337-1.31.584l.192.13-.196.195c.637-.336 1.171-.453 1.488-.719.471-.475.533-2.747.533-3.005 0 0 .931-.127 1.294.153.33.252.658 2.106.856 2.395.714 1.043 3.887 1.161 4.464 2.819.38.306.829.537.829.877a.527.527 0 01-.054.239.336.336 0 01-.073.102l-.166.187c-.727-.476-1.404-.905-1.733-.905-.145 0-.683.207-1.127.384 1.49.488 2.252 1.015 2.355 1.091l-.22.248s-.881-.716-2.947-1.264c-.889.443-2.024 1.06-3.439 1.717-.45.128-2.283.051-2.283.051l2.225-1.719c-1.438.294-2.81 1.661-2.877 1.728.195.961 1.134 2.942 4.448 2.942 2.395 0 4.245-.837 4.245-.837l.859 1.921s-2.248 1.557-5.649 1.557c-6.951 0-7.835-5.467-7.835-5.467.96-2.563 2.574-3.688 3.599-4.162l-.321-.036-.027-.095C5.269 6.597 4.468 9.367 4.468 9.367s.824 5.752 8.1 5.752c3.722 0 5.973-1.726 5.973-1.726l-1.053-2.354s-1.966.922-4.375.922c-3.589 0-4.12-2.449-4.12-2.449s2.044.123 2.697-.052l3.378-1.687c2.288.645 2.948 1.345 2.948 1.345l1.048-1.18s.192-.179.192-.584c-.001-.381-.567-.761-.867-.978m-.159 1.407a1.165 1.165 0 01-.127.097.213.213 0 01-.07.017l-.309-.174c-.019-.025-.02-.033-.02-.036.009-.012.097-.072.18-.124l.346.22zm-.421-.266a1.654 1.654 0 01-.185.115.204.204 0 01-.065.003 3.894 3.894 0 01-.335-.169c-.019-.015-.023-.021-.018-.034.009-.013.116-.072.216-.122l.387.207zm-.846-.369c.118 0 .292.081.379.124-.09.045-.212.107-.23.112a.248.248 0 01-.086 0 10.98 10.98 0 01-.371-.145c.001 0 .197-.091.308-.091m-.779.267l.344-.128c.155.056.405.151.421.165.024.022.024.034.017.048-.01.015-.121.068-.224.113l-.558-.198zm.664.242c.052-.029.198-.111.223-.122a.13.13 0 01.081-.009c.03.005.318.154.337.175.004.014 0 .023-.006.038a1.9 1.9 0 01-.185.123l-.45-.205zm.547.246c.076-.055.157-.111.168-.114a.243.243 0 01.089-.008c.021.003.298.153.315.17.013.012.016.028.01.039a1.543 1.543 0 01-.159.111l-.423-.198zm.888.492l-.383-.238c.059-.046.139-.107.151-.111a.187.187 0 01.075-.01c.014.007.184.121.3.202l-.143.157zm.199-.218a13.941 13.941 0 01-.313-.211c-.005-.007-.004-.015.006-.035a.845.845 0 01.128-.1l.319.206-.14.14z" fill="#1e417b"/><path d="M17.537 6.493c-1.433-.115-1.99-.585-1.99-.956 0-.176.162-.211.273-.211.586 0 1.489.464 1.637.857-.256-.274-.706-.516-1.048-.516-.073 0-.15.021-.15.112 0 .231.411.594 1.915.762-.577-1.659-3.75-1.776-4.464-2.819-.198-.289-.526-2.143-.856-2.395-.363-.28-1.294-.153-1.294-.153 0 .258-.062 2.53-.533 3.005-.317.266-.851.384-1.488.719l-.369.37-.405 1.269-.528-.275.189.469-.943.156.533.182-1.534 1.18.414.032-.546.988c.789-.357 1.028-.426 1.028-.426l-.226-.233 1.59-.64s-.12.318-.12.936c0 .088.013.217.043.369.069-.13 1.319-2.435 3.999-2.592L9.318 9.268s1.832.078 2.283-.051c1.415-.658 2.549-1.274 3.439-1.719.852-.428 1.481-.698 1.917-.698.537 0 1.284.52 1.92.959 0 0 .039-.033.073-.102.154-.553-.645-.982-1.413-1.164m-8.47 1.146l-1.84.277 1.99-1.339-.15 1.062zm1.677-2.945L9.679 6.393l-.374-.895 1.439-.804zM9.317 6.772l.862-.481.852.712-1.714-.231zm3.11-2.84c-.263.014-.799.19-.799.19s.482-.278.581-.428c.096-.15.123-1.835.123-1.835s.154 1.651.285 1.817c.132.166.618.37.618.37s-.615-.126-.808-.114" fill="#152f55"/><path d="M19.506 12.727a.378.378 0 100 .755.378.378 0 000-.755m0 .675a.297.297 0 110-.594.297.297 0 010 .594" fill="#fff"/><path d="M19.661 13.017a.128.128 0 00-.128-.128h-.183v.432h.081v-.176h.058l.082.176h.09l-.085-.183a.13.13 0 00.085-.121m-.128.047h-.101v-.094h.101a.047.047 0 110 .094" fill="#fff"/></svg>