<?xml version="1.0" encoding="utf-8"?>
<!-- Generator: Adobe Illustrator 25.0.1, SVG Export Plug-In . SVG Version: 6.00 Build 0)  -->
<svg version="1.1" id="Layer_1" xmlns="http://www.w3.org/2000/svg" xmlns:xlink="http://www.w3.org/1999/xlink" x="0px" y="0px"
	 viewBox="0 0 636.56 506.31" style="enable-background:new 0 0 636.56 506.31;" xml:space="preserve">
<style type="text/css">
	.st0{fill:#FFFFFF;}
	.st1{fill:#CE0E2D;}
	.st2{fill:#0B1F41;}
</style>
<g>
	<g>
		<path class="st0" d="M393.81,217.99l-19.5,52.62l-11.84-28.18c0,0,4.59,3.65,6.54,7.11c0,0,14.41-17.31,14.41-35.19
			c0-19.86-14.46-28-24.6-30.2c-4.73-4.89-16.01-12.44-40.53-12.44c-25.14,0-38.96,8.42-43.51,26.53l-15.89,63.26l-16.12-43.5
			C211.67,134.13,44.93,132.21,18.04,0c-36.72,63.95-6.02,119.15-6.02,119.15C-7.7,189.1,38.71,243.69,38.71,243.69
			C27.8,332.42,140.25,388.37,170.9,412.95c33.84,27.13,71.45,93.35,71.45,93.35s1.98-24.04,16.58-30.99c0,0,7.32-58.28,48.78-69.08
			c0,0-0.19-8.19,7.25-11.95l3.32-55.73l3.32,55.73c7.44,3.75,7.25,11.95,7.25,11.95c41.45,10.8,48.78,69.08,48.78,69.08
			c14.6,6.95,16.58,30.99,16.58,30.99s37.62-66.22,71.46-93.35c30.65-24.58,143.1-80.53,132.19-169.26c0,0,46.41-54.59,26.69-124.54
			c0,0,30.7-55.2-6.02-119.15C591.62,132.21,424.89,134.13,393.81,217.99z M556.06,193.28c55.75-37.44,61.97-65.23,61.97-65.23
			c14.74,63.41-28.67,112.89-28.67,112.89c10.84,88.14-98.19,140.9-128.9,165.52c-30.72,24.63-63.69,79.45-63.69,79.45
			c-2.76-9.21-8.47-13.78-11.5-15.65c-3.58-23.36-19.59-60.74-49.22-70.42c-0.56-2.8-2.26-7.03-6.73-10.25l-11.03-74.93
			l-11.03,74.93c-4.48,3.22-6.18,7.45-6.73,10.25c-29.63,9.68-45.64,47.06-49.22,70.42c-3.04,1.87-8.75,6.45-11.51,15.65
			c0,0-32.98-54.82-63.69-79.45c-30.71-24.62-139.74-77.39-128.9-165.52c0,0-43.41-49.48-28.67-112.89c0,0,6.22,27.79,61.97,65.23
			c0,0-101.65-79.63-63.57-169.37c35.37,111.04,190.62,123.05,218.03,196.97l25.45,68.65l22.43-89.27
			c3.06-12.2,11.41-20.24,35.44-20.24c29.41,0,36.09,11.82,36.09,11.82s20.73,1.75,20.73,22.51c0,11.65-8.63,24.2-8.63,24.2
			c-9.54-10.94-16.87-5.27-16.87-5.27l25.19,59.95l26.82-72.34c27.41-73.92,182.66-85.93,218.03-196.97
			C657.71,113.65,556.06,193.28,556.06,193.28z"/>
		<path class="st0" d="M364.04,227.29c0,0,1.98-7.2,1.98-12.05c0-15.97-17.78-14.66-17.78-14.66c0-4.13-6.87-11.21-29.96-11.21
			c-22.52,0-25.41,8-26.5,12.38l-31.08,123.71l54.81-80.6l61.4,80.59l-39.02-96.71C337.89,228.74,354.18,216.03,364.04,227.29z
			 M323.76,204.22l-13.03-2.86c0,0,12.12-2.55,26.11,3.96C328.03,212.84,323.76,204.22,323.76,204.22z"/>
	</g>
	<g>
		<path class="st1" d="M17.09,55.83C19.03,119.33,59.7,163,103.15,196.6l-35.98-88.28C43.24,92.02,24.66,74.78,17.09,55.83z"/>
		<path class="st1" d="M95.65,196.48l9.38,23.04c-36.68-21.23-70.34-43.74-80.73-69.6c2.52,81.56,74.69,128.02,125.73,163.2
			l-30.77-75.5c54.54,30.72,109.48,59.9,130.33,91.04C217.93,276.19,173.25,251.58,95.65,196.48z"/>
		<path class="st1" d="M54.83,252.99c2.56,81.23,100.41,116.96,130.66,147.2l-21.4-52.58c25.6,15.12,48.92,30.11,65.63,45.36
			C169.91,310.34,76.93,301.52,54.83,252.99z"/>
		<path class="st1" d="M569.39,108.32l-35.98,88.28c43.45-33.6,84.12-77.27,86.06-140.77C611.9,74.78,593.32,92.02,569.39,108.32z"
			/>
		<path class="st1" d="M386.97,328.66c20.84-31.14,75.79-60.32,130.33-91.04l-30.78,75.5c51.04-35.18,123.21-81.64,125.73-163.2
			c-10.38,25.86-44.04,48.37-80.72,69.6l9.38-23.04C463.31,251.58,418.62,276.19,386.97,328.66z"/>
		<path class="st1" d="M581.73,252.99c-22.1,48.53-115.08,57.35-174.88,139.98c16.71-15.25,40.03-30.24,65.63-45.36l-21.4,52.58
			C481.32,369.95,579.17,334.22,581.73,252.99z"/>
	</g>
	<g>
		<path class="st2" d="M310.73,201.36l13.03,2.86c0,0,4.27,8.62,13.08,1.1C322.85,198.81,310.73,201.36,310.73,201.36z"/>
		<path class="st2" d="M401.6,220.88l-26.82,72.34l-25.19-59.95c0,0,7.33-5.67,16.87,5.27c0,0,8.63-12.55,8.63-24.2
			c0-20.76-20.73-22.51-20.73-22.51s-6.67-11.82-36.09-11.82c-24.03,0-32.38,8.04-35.44,20.24l-22.43,89.27l-25.45-68.65
			c-27.4-73.92-182.66-85.93-218.03-196.97C-21.16,113.65,80.5,193.28,80.5,193.28c-55.75-37.44-61.97-65.23-61.97-65.23
			C3.78,191.46,47.19,240.94,47.19,240.94c-10.84,88.14,98.19,140.9,128.9,165.52c30.72,24.63,63.69,79.45,63.69,79.45
			c2.76-9.21,8.47-13.78,11.51-15.65c3.58-23.36,19.59-60.74,49.22-70.42c0.56-2.8,2.26-7.03,6.73-10.25l11.03-74.93l11.03,74.93
			c4.48,3.22,6.18,7.45,6.73,10.25c29.63,9.68,45.64,47.06,49.22,70.42c3.04,1.87,8.74,6.45,11.5,15.65c0,0,32.98-54.82,63.69-79.45
			c30.71-24.62,139.74-77.39,128.9-165.52c0,0,43.41-49.48,28.67-112.89c0,0-6.22,27.79-61.97,65.23c0,0,101.65-79.63,63.57-169.37
			C584.26,134.95,429.01,146.96,401.6,220.88z M17.09,55.83c7.57,18.95,26.15,36.19,50.08,52.49l35.98,88.28
			C59.7,163,19.03,119.33,17.09,55.83z M164.08,347.62l21.4,52.58c-30.25-30.25-128.1-65.98-130.66-147.2
			c22.1,48.53,115.08,57.35,174.88,139.98C213,377.72,189.68,362.74,164.08,347.62z M119.26,237.62l30.77,75.5
			C98.99,277.93,26.83,231.48,24.3,149.92c10.38,25.86,44.04,48.37,80.73,69.6l-9.38-23.04c77.61,55.11,122.29,79.72,153.94,132.18
			C228.75,297.52,173.8,268.34,119.26,237.62z M315.5,244.86l-54.81,80.6l31.08-123.71c1.1-4.38,3.99-12.38,26.5-12.38
			c23.08,0,29.96,7.09,29.96,11.21c0,0,17.78-1.31,17.78,14.66c0,4.85-1.98,12.05-1.98,12.05c-9.86-11.26-26.15,1.45-26.15,1.45
			l39.02,96.71L315.5,244.86z M451.07,400.19l21.4-52.58c-25.6,15.12-48.92,30.11-65.63,45.36
			c59.81-82.63,152.78-91.46,174.88-139.98C579.17,334.22,481.32,369.95,451.07,400.19z M612.25,149.92
			c-2.52,81.56-74.69,128.02-125.73,163.2l30.78-75.5c-54.54,30.72-109.49,59.9-130.33,91.04c31.65-52.47,76.34-77.08,153.94-132.18
			l-9.38,23.04C568.21,198.29,601.87,175.78,612.25,149.92z M533.41,196.6l35.98-88.28c23.92-16.3,42.51-33.54,50.08-52.49
			C617.53,119.33,576.85,163,533.41,196.6z"/>
		<path class="st2" d="M433.82,491.73c4.88,0,8.84-3.95,8.84-8.84c0-4.89-3.96-8.85-8.84-8.85c-4.89,0-8.85,3.96-8.85,8.85
			C424.97,487.78,428.93,491.73,433.82,491.73z M433.82,475.94c3.83,0,6.95,3.11,6.95,6.95c0,3.84-3.12,6.94-6.95,6.94
			c-3.84,0-6.95-3.11-6.95-6.94C426.87,479.05,429.98,475.94,433.82,475.94z"/>
		<path class="st2" d="M432.08,483.84h1.36l1.91,4.1h2.1l-2-4.27c1.16-0.42,2-1.53,2-2.83c0-1.66-1.34-3-3-3h-4.26v10.09h1.9V483.84
			z M432.08,479.74h2.37c0.62,0,1.1,0.49,1.1,1.1c0,0.61-0.49,1.1-1.1,1.1h-2.37V479.74z"/>
	</g>
</g>
</svg>
