<svg width="90" height="90" viewBox="-17 -17 90 90" fill="none" xmlns="http://www.w3.org/2000/svg">
  <defs>
    <filter id="glow" x="-50%" y="-50%" width="200%" height="200%">
      <feDropShadow dx="0" dy="0" stdDeviation="5" flood-color="#F77326" flood-opacity="0.45"/>
    </filter>
    <filter id="glowStrong" x="-50%" y="-50%" width="200%" height="200%">
      <feDropShadow dx="0" dy="0" stdDeviation="7" flood-color="#F77326" flood-opacity="0.6"/>
    </filter>
  </defs>
  
  <circle cx="28" cy="28" r="28" fill="#DBA111" filter="url(#glow)">
    <animate attributeName="r" 
      values="28;30;28" 
      dur="1.5s" 
      repeatCount="indefinite"/>
    <animate attributeName="opacity" 
      values="1;0.9;1" 
      dur="1.5s" 
      repeatCount="indefinite"/>
    <animate attributeName="filter" 
      values="url(#glow);url(#glowStrong);url(#glow)" 
      dur="1.5s" 
      repeatCount="indefinite"/>
  </circle>
  
  <path id="arrow" opacity="0.9" fill-rule="evenodd" clip-rule="evenodd" d="M37.3724 8.26966C37.5505 8.14467 37.6841 8.08468 37.9463 8.02968C38.3074 7.94469 38.8664 8.04968 39.1682 8.24966C39.4155 8.41465 39.5343 8.61963 39.5343 8.86461C39.5343 9.02459 39.0247 10.6944 37.1201 16.7589C36.5067 18.7187 35.9428 20.5185 35.5124 21.8884H32.8905C33.0339 21.4285 33.1972 20.9135 33.3802 20.3336V20.3286L33.3852 20.3186L33.3901 20.2986L33.4 20.2736L33.4049 20.2536C33.5088 19.9236 33.6177 19.5736 33.7364 19.1987C34.7901 15.839 35.6509 13.0792 35.641 13.0692C35.636 13.0592 31.1986 17.4338 26.8799 21.6984H26.3208H23.783H12.1774C11.5293 21.6934 11 21.1585 11 20.4985C11 19.8436 11.5293 19.3087 12.1774 19.3087H26.1774C31.7081 13.8342 37.2537 8.35465 37.3724 8.26966ZM31.0254 24.0732H39.47H44.8671C45.4558 24.0732 45.9357 24.5532 45.9456 25.1481C45.9802 25.2281 46 25.3181 46 25.4081C46 25.5431 45.9753 25.6381 45.911 25.7331C45.7774 25.9331 25.1534 47.6211 24.9802 47.7411C24.9011 47.8011 24.7329 47.8811 24.6092 47.9211C24.3124 48.021 23.8375 48.026 23.5456 47.9361C23.2834 47.8561 23.036 47.6961 22.9124 47.5311C22.8975 47.5111 22.8827 47.4961 22.8728 47.4811C22.8629 47.4711 22.8481 47.4561 22.8431 47.4461C22.7046 47.2611 22.8233 46.8712 24.7329 40.7917L24.7378 40.7817C24.8813 40.3217 25.0396 39.8268 25.2028 39.2968C25.8113 37.352 26.3703 35.5622 26.8007 34.1973H29.4226C29.2841 34.6423 29.1258 35.1422 28.9527 35.7022C28.8587 36.0021 28.7597 36.3271 28.6509 36.6621C27.617 39.9518 26.7809 42.6465 26.7859 42.6515C26.7958 42.6565 42.3343 26.338 42.359 26.298C42.3689 26.283 40.4643 26.273 37.6297 26.273C34.4883 26.273 33.4247 26.273 32.9993 26.253H30.7385C30.1399 26.253 29.6601 25.7631 29.6601 25.1631C29.6601 24.5632 30.1449 24.0732 30.7385 24.0732H31.0254ZM21.3788 24.0732C18.836 26.598 16.7138 28.7078 15.7145 29.7127C15.4869 29.8127 15.3039 29.9977 15.2049 30.2277C15.1406 30.2927 15.106 30.3277 15.1011 30.3377C14.9625 30.5826 15.0269 30.8776 15.2445 31.1076C15.4127 31.4126 15.7343 31.6175 16.1004 31.6175H22.383H27.5972H30.2092H30.2339C30.7781 31.6175 31.2134 31.1726 31.2134 30.6276C31.2134 30.0827 30.7731 29.6377 30.2339 29.6377H18.8558C19.3555 29.1378 21.6905 26.828 24.4657 24.0832H21.3788V24.0732ZM18.8558 11.9693C18.8558 11.3094 19.3852 10.7794 20.0332 10.7794H29.0664C29.7145 10.7794 30.2438 11.3144 30.2438 11.9693C30.2438 12.6243 29.7145 13.1592 29.0664 13.1592H20.0332C19.3802 13.1592 18.8558 12.6243 18.8558 11.9693ZM12.1774 36.5721C11.5293 36.5721 11 37.107 11 37.762C11 38.4169 11.5293 38.9519 12.1774 38.9519H21.2106C21.8587 38.9519 22.388 38.4169 22.388 37.762C22.388 37.107 21.8587 36.5721 21.2106 36.5721H12.1774Z" fill="#101426" pointer-events="none">
    <set attributeName="fill" to="white" begin="hoverCircle.mouseover" />
    <set attributeName="fill" to="#101426" begin="hoverCircle.mouseout" />
  </path>
  
  <!-- Invisible circle for hover detection -->
  <circle id="hoverCircle" cx="28" cy="28" r="30" fill="transparent" style="cursor: pointer;"/>
</svg>