<?xml version="1.0" encoding="UTF-8"?>
<!DOCTYPE svg PUBLIC "-//W3C//DTD SVG 1.1//EN" "http://www.w3.org/Graphics/SVG/1.1/DTD/svg11.dtd">
<svg xmlns="http://www.w3.org/2000/svg" version="1.1" width="500px" height="500px" style="shape-rendering:geometricPrecision; text-rendering:geometricPrecision; image-rendering:optimizeQuality; fill-rule:evenodd; clip-rule:evenodd" xmlns:xlink="http://www.w3.org/1999/xlink">
<g><path style="opacity:0.997" fill="#bf0100" d="M 225.5,-0.5 C 241.5,-0.5 257.5,-0.5 273.5,-0.5C 293.711,1.80256 313.378,6.46923 332.5,13.5C 332.5,170.833 332.5,328.167 332.5,485.5C 323.9,489.198 314.9,492.031 305.5,494C 295.064,496.071 284.73,497.905 274.5,499.5C 257.833,499.5 241.167,499.5 224.5,499.5C 204.6,497.253 185.267,492.586 166.5,485.5C 166.5,328.167 166.5,170.833 166.5,13.5C 185.622,6.46923 205.289,1.80256 225.5,-0.5 Z"/></g>
<g><path style="opacity:0.993" fill="#000000" d="M 166.5,13.5 C 166.5,170.833 166.5,328.167 166.5,485.5C 84.513,455.009 31.3463,397.676 7,313.5C 3.72528,300.168 1.22528,286.834 -0.5,273.5C -0.5,257.5 -0.5,241.5 -0.5,225.5C 11.4543,135.075 57.4543,68.242 137.5,25C 146.845,20.2755 156.512,16.4422 166.5,13.5 Z"/></g>
<g><path style="opacity:0.993" fill="#029800" d="M 332.5,13.5 C 412.881,43.3844 465.714,99.3844 491,181.5C 494.695,195.808 497.529,210.141 499.5,224.5C 499.5,241.167 499.5,257.833 499.5,274.5C 486.192,370.295 435.858,438.795 348.5,480C 343.244,482.141 337.91,483.974 332.5,485.5C 332.5,328.167 332.5,170.833 332.5,13.5 Z"/></g>
<g><path style="opacity:1" fill="#f3cccb" d="M 250.5,174.5 C 252.085,175.002 252.585,176.002 252,177.5C 249.821,178.116 247.988,179.283 246.5,181C 249.167,181.333 251.833,181.667 254.5,182C 253.095,183.269 251.429,183.769 249.5,183.5C 246.018,184.802 245.684,186.635 248.5,189C 246.609,189.309 245.275,188.475 244.5,186.5C 241.932,188.717 238.932,189.884 235.5,190C 234.667,190.833 233.833,191.667 233,192.5C 234.734,189.958 235.734,186.958 236,183.5C 236.075,185.935 236.908,186.602 238.5,185.5C 238.843,187.225 239.843,187.725 241.5,187C 243.155,185.556 243.822,183.722 243.5,181.5C 244.315,182.429 245.148,183.429 246,184.5C 247.678,183.318 247.512,182.152 245.5,181C 245.978,179.358 246.978,178.191 248.5,177.5C 250.048,177.179 250.715,176.179 250.5,174.5 Z"/></g>
<g><path style="opacity:1" fill="#edb6b6" d="M 255.5,175.5 C 258.001,175.511 258.168,176.178 256,177.5C 255.536,176.906 255.369,176.239 255.5,175.5 Z"/></g>
<g><path style="opacity:1" fill="#d95f56" d="M 250.5,174.5 C 250.715,176.179 250.048,177.179 248.5,177.5C 249.953,176.175 249.619,175.342 247.5,175C 248.646,172.233 249.646,172.066 250.5,174.5 Z"/></g>
<g><path style="opacity:1" fill="#f9dede" d="M 267.5,179.5 C 266.29,179.068 265.29,178.401 264.5,177.5C 266.332,176.282 267.332,176.949 267.5,179.5 Z"/></g>
<g><path style="opacity:1" fill="#f6d5d5" d="M 241.5,176.5 C 242.931,177.78 243.598,179.447 243.5,181.5C 242.069,180.22 241.402,178.553 241.5,176.5 Z"/></g>
<g><path style="opacity:1" fill="#eeb8b8" d="M 222.5,178.5 C 222.649,179.552 222.483,180.552 222,181.5C 221.31,182.738 220.81,182.738 220.5,181.5C 220.932,180.29 221.599,179.29 222.5,178.5 Z"/></g>
<g><path style="opacity:1" fill="#f1bebc" d="M 287.5,202.5 C 286.078,202.291 284.745,201.791 283.5,201C 285.473,200.505 287.473,200.338 289.5,200.5C 289.741,197.001 288.908,196.668 287,199.5C 286.833,199.167 286.667,198.833 286.5,198.5C 289.146,191.239 288.646,190.906 285,197.5C 281.99,200.57 280.157,199.903 279.5,195.5C 278.554,195.987 277.554,196.32 276.5,196.5C 273.984,194.328 270.984,193.328 267.5,193.5C 267.462,190.193 268.128,187.026 269.5,184C 268.586,182.594 267.92,181.094 267.5,179.5C 268.458,179.953 269.292,180.619 270,181.5C 270.897,184.292 272.063,186.959 273.5,189.5C 274.768,187.696 275.435,185.696 275.5,183.5C 274.325,183.719 273.325,183.386 272.5,182.5C 273.651,181.269 274.817,181.269 276,182.5C 276.167,182.167 276.333,181.833 276.5,181.5C 273.403,180.806 273.069,179.806 275.5,178.5C 276.902,178.865 277.902,179.699 278.5,181C 276.769,185.103 275.602,189.269 275,193.5C 277.081,194.333 279.248,194.333 281.5,193.5C 281.238,194.978 281.571,196.311 282.5,197.5C 286.875,193.805 287.875,189.472 285.5,184.5C 285.833,184.167 286.167,183.833 286.5,183.5C 287.538,185.628 288.871,186.628 290.5,186.5C 288.972,192.719 289.805,193.053 293,187.5C 293.722,189.661 293.055,191.328 291,192.5C 290.333,194.167 290.333,195.833 291,197.5C 292.757,194.986 294.257,192.319 295.5,189.5C 296.583,190.365 296.749,191.365 296,192.5C 294.313,196.916 291.48,200.249 287.5,202.5 Z"/></g>
<g><path style="opacity:1" fill="#f3cac9" d="M 240.5,176.5 C 240.389,177.117 240.056,177.617 239.5,178C 237.236,178.236 235.069,178.736 233,179.5C 230.14,183.315 228.807,187.648 229,192.5C 226.085,195.134 223.252,195.134 220.5,192.5C 220.667,192.167 220.833,191.833 221,191.5C 223.333,194.167 225.667,194.167 228,191.5C 228.798,189.741 228.631,188.074 227.5,186.5C 223.89,187.847 223.557,187.18 226.5,184.5C 225.054,182.382 224.387,180.049 224.5,177.5C 225.314,179.781 226.648,181.781 228.5,183.5C 229.5,183.167 230.167,182.5 230.5,181.5C 228.02,180.585 227.353,179.085 228.5,177C 229.742,176.689 230.742,177.189 231.5,178.5C 232.799,177.91 233.632,176.91 234,175.5C 235.929,177.684 237.763,177.35 239.5,174.5C 240.298,174.957 240.631,175.624 240.5,176.5 Z"/></g>
<g><path style="opacity:1" fill="#f6d7d7" d="M 217.5,181.5 C 219.474,184.482 221.474,187.482 223.5,190.5C 223.03,191.463 222.363,191.463 221.5,190.5C 219.86,187.851 218.193,185.184 216.5,182.5C 216.624,181.893 216.957,181.56 217.5,181.5 Z"/></g>
<g><path style="opacity:1" fill="#c01807" d="M 240.5,176.5 C 240.833,176.5 241.167,176.5 241.5,176.5C 241.402,178.553 242.069,180.22 243.5,181.5C 243.822,183.722 243.155,185.556 241.5,187C 239.843,187.725 238.843,187.225 238.5,185.5C 236.908,186.602 236.075,185.935 236,183.5C 235.734,186.958 234.734,189.958 233,192.5C 233.833,191.667 234.667,190.833 235.5,190C 238.932,189.884 241.932,188.717 244.5,186.5C 245.275,188.475 246.609,189.309 248.5,189C 245.684,186.635 246.018,184.802 249.5,183.5C 249.5,184.167 249.833,184.5 250.5,184.5C 249.032,186.611 249.365,188.444 251.5,190C 253.113,190.089 254.28,189.255 255,187.5C 255.309,188.766 255.809,189.933 256.5,191C 258.509,190.406 260.509,190.573 262.5,191.5C 265.334,189.559 266.168,186.893 265,183.5C 264.767,185.78 263.934,187.78 262.5,189.5C 261.832,186.694 261.166,184.028 260.5,181.5C 260.5,181.167 260.5,180.833 260.5,180.5C 262.048,180.179 262.715,179.179 262.5,177.5C 263.167,177.5 263.833,177.5 264.5,177.5C 265.29,178.401 266.29,179.068 267.5,179.5C 267.92,181.094 268.586,182.594 269.5,184C 268.128,187.026 267.462,190.193 267.5,193.5C 270.984,193.328 273.984,194.328 276.5,196.5C 277.554,196.32 278.554,195.987 279.5,195.5C 280.157,199.903 281.99,200.57 285,197.5C 288.646,190.906 289.146,191.239 286.5,198.5C 286.667,198.833 286.833,199.167 287,199.5C 288.908,196.668 289.741,197.001 289.5,200.5C 287.473,200.338 285.473,200.505 283.5,201C 284.745,201.791 286.078,202.291 287.5,202.5C 287.5,202.833 287.5,203.167 287.5,203.5C 286.179,206.235 287.179,207.902 290.5,208.5C 290.5,209.167 290.5,209.833 290.5,210.5C 284.955,206.256 284.289,206.922 288.5,212.5C 288.328,213.492 288.662,214.158 289.5,214.5C 290.801,215.882 291.634,217.548 292,219.5C 293.133,221.211 294.633,221.711 296.5,221C 295.449,219.615 294.116,218.615 292.5,218C 294.101,217.727 295.601,217.227 297,216.5C 298.213,222.841 299.046,222.507 299.5,215.5C 300.807,216.153 302.14,216.82 303.5,217.5C 304.521,216.998 304.688,216.332 304,215.5C 302.933,214.809 301.766,214.309 300.5,214C 302.101,213.727 303.601,213.227 305,212.5C 305.212,214.78 306.045,216.78 307.5,218.5C 306.467,219.452 305.3,219.452 304,218.5C 302.743,218.85 302.409,219.517 303,220.5C 305.64,222.1 307.807,221.766 309.5,219.5C 310.1,220.9 311.1,221.9 312.5,222.5C 312.833,222.5 313.167,222.5 313.5,222.5C 314.073,225.659 314.24,228.992 314,232.5C 315.675,226.553 315.842,220.553 314.5,214.5C 315.167,215.833 315.833,217.167 316.5,218.5C 316.336,221.187 316.503,223.854 317,226.5C 317.383,225.944 317.883,225.611 318.5,225.5C 319.11,226.391 319.443,227.391 319.5,228.5C 317.577,230.201 317.243,232.201 318.5,234.5C 319.429,233.311 319.762,231.978 319.5,230.5C 320.404,231.209 320.737,232.209 320.5,233.5C 320.316,236.173 319.149,236.84 317,235.5C 316.517,236.448 316.351,237.448 316.5,238.5C 315.566,239.568 315.232,240.901 315.5,242.5C 314.549,243.919 314.216,245.585 314.5,247.5C 314.5,248.5 314.5,249.5 314.5,250.5C 313.833,250.5 313.167,250.5 312.5,250.5C 313.218,248.863 313.384,247.197 313,245.5C 312.617,246.056 312.117,246.389 311.5,246.5C 311.483,244.435 311.15,242.435 310.5,240.5C 316.96,236.167 316.627,233.834 309.5,233.5C 309.66,231.801 309.494,230.134 309,228.5C 307.907,230.349 306.574,232.016 305,233.5C 304.667,230.167 304.333,226.833 304,223.5C 303.085,224.328 302.419,225.328 302,226.5C 300.307,221.223 298.807,221.223 297.5,226.5C 296.781,224.683 295.781,224.016 294.5,224.5C 295.95,225.85 296.617,227.516 296.5,229.5C 297.794,230.29 298.961,231.29 300,232.5C 300.099,234.653 300.933,236.319 302.5,237.5C 300.896,240.981 299.896,244.648 299.5,248.5C 300.317,251.393 300.317,254.226 299.5,257C 299.759,258.261 300.426,259.261 301.5,260C 297.296,262.238 294.963,265.738 294.5,270.5C 293.599,271.29 292.932,272.29 292.5,273.5C 292.116,275.665 292.783,277.332 294.5,278.5C 295.386,277.675 295.719,276.675 295.5,275.5C 296.167,275.5 296.833,275.5 297.5,275.5C 296.235,278.004 295.901,280.504 296.5,283C 293.593,285.361 291.426,284.861 290,281.5C 289.641,284.544 288.974,284.878 288,282.5C 287.517,283.448 287.351,284.448 287.5,285.5C 290.214,285.75 292.881,285.917 295.5,286C 296.603,282.976 298.603,280.143 301.5,277.5C 302.625,278.348 302.625,279.348 301.5,280.5C 299.838,282.224 298.838,284.391 298.5,287C 298.611,288.722 299.111,288.888 300,287.5C 300.315,285.414 300.815,283.414 301.5,281.5C 302.167,282.167 302.833,282.833 303.5,283.5C 302.337,289.917 305.004,292.25 311.5,290.5C 311.918,291.222 312.584,291.722 313.5,292C 313.272,292.399 312.938,292.565 312.5,292.5C 309.482,292.665 306.482,292.498 303.5,292C 298.263,289.365 292.763,287.532 287,286.5C 282.801,286.387 279.634,288.054 277.5,291.5C 277.167,291.5 276.833,291.5 276.5,291.5C 275.375,292.348 275.375,293.348 276.5,294.5C 274.938,296.901 275.271,298.901 277.5,300.5C 277.833,300.5 278.167,300.5 278.5,300.5C 279.167,301.167 279.833,301.833 280.5,302.5C 279.167,302.5 277.833,302.5 276.5,302.5C 275.833,302.167 275.167,301.833 274.5,301.5C 274.378,297.162 274.045,296.828 273.5,300.5C 272.5,300.5 271.5,300.5 270.5,300.5C 270.719,301.675 270.386,302.675 269.5,303.5C 266.135,305.059 262.802,306.392 259.5,307.5C 258.391,307.557 257.391,307.89 256.5,308.5C 247.072,309.44 238.072,307.94 229.5,304C 229.026,302.271 228.026,301.105 226.5,300.5C 226.539,299.244 226.039,298.244 225,297.5C 224.901,299.653 224.067,301.319 222.5,302.5C 221.167,302.5 219.833,302.5 218.5,302.5C 219.167,301.833 219.833,301.167 220.5,300.5C 220.833,300.5 221.167,300.5 221.5,300.5C 223.729,298.901 224.062,296.901 222.5,294.5C 223.625,293.348 223.625,292.348 222.5,291.5C 222.5,290.833 222.167,290.5 221.5,290.5C 219.539,288.688 217.206,287.688 214.5,287.5C 213.791,286.596 212.791,286.263 211.5,286.5C 211.657,285.127 211.49,283.793 211,282.5C 209.984,283.634 209.317,283.301 209,281.5C 206.515,284.007 207.015,285.507 210.5,286C 209.584,286.278 208.918,286.778 208.5,287.5C 203.777,288.688 199.111,290.188 194.5,292C 191.854,292.497 189.187,292.664 186.5,292.5C 186.833,291.833 187.167,291.167 187.5,290.5C 189.961,291.305 192.294,290.972 194.5,289.5C 195.492,289.672 196.158,289.338 196.5,288.5C 196.371,286.784 196.038,285.117 195.5,283.5C 196.167,282.5 196.833,281.5 197.5,280.5C 197.898,283.34 198.731,286.007 200,288.5C 200.494,286.866 200.66,285.199 200.5,283.5C 201.627,284.122 202.627,284.955 203.5,286C 204.635,286.749 205.635,286.583 206.5,285.5C 205.335,284.416 204.002,283.583 202.5,283C 203.711,281.887 203.711,280.72 202.5,279.5C 205.824,278.841 207.157,276.841 206.5,273.5C 206.068,272.29 205.401,271.29 204.5,270.5C 204.381,265.544 202.048,262.044 197.5,260C 198.574,259.261 199.241,258.261 199.5,257C 198.913,254.267 198.913,251.434 199.5,248.5C 199.37,244.581 198.37,240.914 196.5,237.5C 197.662,234.287 199.662,231.62 202.5,229.5C 202.383,227.516 203.05,225.85 204.5,224.5C 204.03,223.537 203.363,223.537 202.5,224.5C 201.957,224.44 201.624,224.107 201.5,223.5C 202.602,222.824 203.602,222.158 204.5,221.5C 206.86,218.782 208.86,215.782 210.5,212.5C 211.29,211.206 212.29,210.039 213.5,209C 212.906,208.536 212.239,208.369 211.5,208.5C 211.5,208.167 211.5,207.833 211.5,207.5C 211.833,206.833 212.167,206.167 212.5,205.5C 213.097,205.265 213.43,204.765 213.5,204C 212.629,202.636 211.629,201.47 210.5,200.5C 210.369,199.761 210.536,199.094 211,198.5C 211.739,199.574 212.739,200.241 214,200.5C 215.358,198.811 217.025,197.478 219,196.5C 219.748,194.16 219.248,192.16 217.5,190.5C 218.833,190.5 220.167,190.5 221.5,190.5C 222.363,191.463 223.03,191.463 223.5,190.5C 221.474,187.482 219.474,184.482 217.5,181.5C 218.5,181.5 219.5,181.5 220.5,181.5C 220.81,182.738 221.31,182.738 222,181.5C 222.483,180.552 222.649,179.552 222.5,178.5C 223.167,178.167 223.833,177.833 224.5,177.5C 224.387,180.049 225.054,182.382 226.5,184.5C 223.557,187.18 223.89,187.847 227.5,186.5C 228.631,188.074 228.798,189.741 228,191.5C 225.667,194.167 223.333,194.167 221,191.5C 220.833,191.833 220.667,192.167 220.5,192.5C 223.252,195.134 226.085,195.134 229,192.5C 228.807,187.648 230.14,183.315 233,179.5C 235.069,178.736 237.236,178.236 239.5,178C 240.056,177.617 240.389,177.117 240.5,176.5 Z"/></g>
<g><path style="opacity:1" fill="#edb8b8" d="M 234.5,180.5 C 236.657,181.053 236.49,182.053 234,183.5C 233.53,182.423 233.697,181.423 234.5,180.5 Z"/></g>
<g><path style="opacity:1" fill="#e89d9b" d="M 262.5,177.5 C 262.715,179.179 262.048,180.179 260.5,180.5C 259.624,180.631 258.957,180.298 258.5,179.5C 259.766,178.638 261.099,177.971 262.5,177.5 Z"/></g>
<g><path style="opacity:1" fill="#f0bcbb" d="M 238.5,185.5 C 238.34,183.801 238.506,182.134 239,180.5C 241.065,182.451 240.898,184.118 238.5,185.5 Z"/></g>
<g><path style="opacity:1" fill="#dc6f6d" d="M 257.5,189.5 C 256.833,187.833 256.167,186.167 255.5,184.5C 255.783,183.711 256.283,183.044 257,182.5C 257.497,184.81 257.663,187.143 257.5,189.5 Z"/></g>
<g><path style="opacity:1" fill="#f2c3c2" d="M 260.5,181.5 C 261.166,184.028 261.832,186.694 262.5,189.5C 263.934,187.78 264.767,185.78 265,183.5C 266.168,186.893 265.334,189.559 262.5,191.5C 260.509,190.573 258.509,190.406 256.5,191C 255.809,189.933 255.309,188.766 255,187.5C 254.28,189.255 253.113,190.089 251.5,190C 249.365,188.444 249.032,186.611 250.5,184.5C 251.29,185.609 251.79,186.942 252,188.5C 253.376,187.295 254.542,185.962 255.5,184.5C 256.167,186.167 256.833,187.833 257.5,189.5C 258.75,189.423 259.583,188.756 260,187.5C 260.495,185.527 260.662,183.527 260.5,181.5 Z"/></g>
<g><path style="opacity:1" fill="#f2c6c5" d="M 280.5,181.5 C 281.376,181.369 282.043,181.702 282.5,182.5C 275.667,195.838 275,195.505 280.5,181.5 Z"/></g>
<g><path style="opacity:1" fill="#c52e22" d="M 269.5,186.5 C 270.947,187.622 271.947,189.122 272.5,191C 271.289,192.578 269.955,192.745 268.5,191.5C 269.309,189.929 269.643,188.262 269.5,186.5 Z"/></g>
<g><path style="opacity:1" fill="#edb4b3" d="M 211.5,187.5 C 214.188,189.225 213.855,190.558 210.5,191.5C 210.167,191.333 209.833,191.167 209.5,191C 210.823,190.184 211.489,189.017 211.5,187.5 Z"/></g>
<g><path style="opacity:1" fill="#f3cbcb" d="M 204.5,192.5 C 205.497,191.287 206.497,191.454 207.5,193C 206.281,194.795 205.281,194.628 204.5,192.5 Z"/></g>
<g><path style="opacity:1" fill="#f7dada" d="M 215.5,195.5 C 214.373,194.878 213.373,194.045 212.5,193C 214.489,192.481 215.489,193.314 215.5,195.5 Z"/></g>
<g><path style="opacity:1" fill="#df7c7a" d="M 257.5,195.5 C 257.565,195.938 257.399,196.272 257,196.5C 255.887,195.695 254.721,195.028 253.5,194.5C 253.783,193.711 254.283,193.044 255,192.5C 256.041,193.471 256.874,194.471 257.5,195.5 Z"/></g>
<g><path style="opacity:1" fill="#f5d0cf" d="M 253.5,194.5 C 254.721,195.028 255.887,195.695 257,196.5C 257.399,196.272 257.565,195.938 257.5,195.5C 258.601,194.2 259.934,193.7 261.5,194C 260.123,195.397 259.29,196.897 259,198.5C 251.835,195.924 244.669,195.924 237.5,198.5C 237.833,197.167 238.167,195.833 238.5,194.5C 240.071,195.197 241.571,195.53 243,195.5C 243.333,194.833 243.667,194.167 244,193.5C 245.101,195.394 246.434,196.061 248,195.5C 248.283,192.258 249.117,191.924 250.5,194.5C 251.527,193.209 252.527,193.209 253.5,194.5 Z"/></g>
<g><path style="opacity:1" fill="#d96867" d="M 238.5,194.5 C 238.167,195.833 237.833,197.167 237.5,198.5C 235.86,197.68 234.193,196.847 232.5,196C 233.784,195.316 234.951,195.483 236,196.5C 236.915,195.672 237.581,194.672 238,193.5C 238.399,193.728 238.565,194.062 238.5,194.5 Z"/></g>
<g><path style="opacity:1" fill="#f5d1d0" d="M 217.5,190.5 C 219.248,192.16 219.748,194.16 219,196.5C 217.025,197.478 215.358,198.811 214,200.5C 212.739,200.241 211.739,199.574 211,198.5C 210.536,199.094 210.369,199.761 210.5,200.5C 210.306,204.005 209.306,204.338 207.5,201.5C 209.164,200.051 209.998,198.051 210,195.5C 211.019,196.687 212.186,197.687 213.5,198.5C 214.919,197.995 215.585,196.995 215.5,195.5C 216.497,195.53 217.164,195.03 217.5,194C 217.05,192.715 216.383,191.548 215.5,190.5C 215.97,189.537 216.637,189.537 217.5,190.5 Z"/></g>
<g><path style="opacity:1" fill="#f1c7c6" d="M 243.5,201.5 C 244.871,198.19 246.204,198.023 247.5,201C 246.773,202.399 246.273,203.899 246,205.5C 245.878,203.563 245.045,202.23 243.5,201.5 Z"/></g>
<g><path style="opacity:1" fill="#f8ede0" d="M 201.5,199.5 C 202.928,201.795 202.428,203.795 200,205.5C 199.252,203.16 199.752,201.16 201.5,199.5 Z"/></g>
<g><path style="opacity:1" fill="#f8efe3" d="M 296.5,199.5 C 299.139,200.706 299.972,202.706 299,205.5C 296.961,204.022 296.128,202.022 296.5,199.5 Z"/></g>
<g><path style="opacity:1" fill="#eba3a0" d="M 243.5,201.5 C 243.119,205.299 241.786,205.965 239.5,203.5C 240.766,202.638 242.099,201.971 243.5,201.5 Z"/></g>
<g><path style="opacity:1" fill="#eeafac" d="M 259.5,200.5 C 260.043,200.56 260.376,200.893 260.5,201.5C 259.902,202.795 259.402,204.128 259,205.5C 258.36,203.735 258.527,202.068 259.5,200.5 Z"/></g>
<g><path style="opacity:1" fill="#f1c4c4" d="M 254.5,202.5 C 255.397,203.598 256.23,203.598 257,202.5C 257.617,203.449 257.451,204.282 256.5,205C 254.421,205.808 252.421,205.641 250.5,204.5C 251.651,203.269 252.817,203.269 254,204.5C 254.464,203.906 254.631,203.239 254.5,202.5 Z"/></g>
<g><path style="opacity:1" fill="#faf5ea" d="M 212.5,205.5 C 212.167,206.167 211.833,206.833 211.5,207.5C 210.425,208.562 209.425,208.562 208.5,207.5C 209.48,206.019 210.647,204.685 212,203.5C 212.464,204.094 212.631,204.761 212.5,205.5 Z"/></g>
<g><path style="opacity:1" fill="#faf4e8" d="M 287.5,203.5 C 288.925,204.922 289.925,206.589 290.5,208.5C 287.179,207.902 286.179,206.235 287.5,203.5 Z"/></g>
<g><path style="opacity:1" fill="#d89264" d="M 250.5,209.5 C 249.833,209.5 249.167,209.5 248.5,209.5C 249.167,206.833 249.833,206.833 250.5,209.5 Z"/></g>
<g><path style="opacity:1" fill="#d38050" d="M 194.5,203.5 C 194.5,206.5 194.5,209.5 194.5,212.5C 194.167,212.5 193.833,212.5 193.5,212.5C 193.167,211.167 192.833,209.833 192.5,208.5C 193.167,206.833 193.833,205.167 194.5,203.5 Z"/></g>
<g><path style="opacity:1" fill="#faf5ec" d="M 211.5,208.5 C 212.239,208.369 212.906,208.536 213.5,209C 212.29,210.039 211.29,211.206 210.5,212.5C 208.007,212.869 207.34,212.203 208.5,210.5C 209.71,210.068 210.71,209.401 211.5,208.5 Z"/></g>
<g><path style="opacity:1" fill="#f9ede1" d="M 232.5,212.5 C 230.735,213.461 228.735,213.795 226.5,213.5C 228.024,208.867 230.024,208.534 232.5,212.5 Z"/></g>
<g><path style="opacity:1" fill="#fcfaf5" d="M 248.5,209.5 C 249.167,209.5 249.833,209.5 250.5,209.5C 252.028,210.309 253.694,210.976 255.5,211.5C 254.884,213.417 253.55,214.584 251.5,215C 253.34,217.826 254.006,220.993 253.5,224.5C 255.124,224.64 256.29,223.973 257,222.5C 257.951,222.884 258.784,223.217 259.5,223.5C 259.586,224.496 259.252,225.329 258.5,226C 252.5,226.667 246.5,226.667 240.5,226C 239.748,225.329 239.414,224.496 239.5,223.5C 240.216,223.217 241.049,222.884 242,222.5C 242.71,223.973 243.876,224.64 245.5,224.5C 244.994,220.993 245.66,217.826 247.5,215C 246.269,213.595 244.936,212.429 243.5,211.5C 245.306,210.976 246.972,210.309 248.5,209.5 Z"/></g>
<g><path style="opacity:1" fill="#faf2e8" d="M 268.5,209.5 C 270.384,209.712 271.717,210.712 272.5,212.5C 270.5,213.833 268.5,213.833 266.5,212.5C 267.193,211.482 267.859,210.482 268.5,209.5 Z"/></g>
<g><path style="opacity:1" fill="#f6e8d8" d="M 290.5,210.5 C 290.833,210.5 291.167,210.5 291.5,210.5C 291.179,212.048 290.179,212.715 288.5,212.5C 284.289,206.922 284.955,206.256 290.5,210.5 Z"/></g>
<g><path style="opacity:1" fill="#f5e3d3" d="M 293.5,206.5 C 294.301,208.042 294.634,209.708 294.5,211.5C 294.634,209.708 294.301,208.042 293.5,206.5 Z"/></g>
<g><path style="opacity:1" fill="#d37f50" d="M 312.5,222.5 C 311.1,221.9 310.1,220.9 309.5,219.5C 309.806,216.615 309.473,213.948 308.5,211.5C 309.279,209.073 310.446,209.073 312,211.5C 311.912,215.259 312.079,218.925 312.5,222.5 Z"/></g>
<g><path style="opacity:1" fill="#ecc8aa" d="M 308.5,211.5 C 309.473,213.948 309.806,216.615 309.5,219.5C 307.807,221.766 305.64,222.1 303,220.5C 302.409,219.517 302.743,218.85 304,218.5C 305.3,219.452 306.467,219.452 307.5,218.5C 306.045,216.78 305.212,214.78 305,212.5C 303.601,213.227 302.101,213.727 300.5,214C 301.766,214.309 302.933,214.809 304,215.5C 304.688,216.332 304.521,216.998 303.5,217.5C 302.14,216.82 300.807,216.153 299.5,215.5C 299.579,214.07 299.246,212.736 298.5,211.5C 299.391,210.41 300.391,210.41 301.5,211.5C 302.833,210.5 302.833,209.5 301.5,208.5C 297.657,209.554 294.99,208.054 293.5,204C 295.804,204.573 297.971,205.74 300,207.5C 300.176,204.118 300.676,200.785 301.5,197.5C 302.318,200.107 302.818,202.774 303,205.5C 303.333,204.5 303.667,203.5 304,202.5C 304.973,204.392 305.64,206.392 306,208.5C 306.333,207.5 306.667,206.5 307,205.5C 307.103,208.319 307.603,210.319 308.5,211.5 Z"/></g>
<g><path style="opacity:1" fill="#edcdb0" d="M 204.5,203.5 C 204.861,205.605 203.861,207.438 201.5,209C 200.101,209.595 198.768,209.428 197.5,208.5C 196.167,209.5 196.167,210.5 197.5,211.5C 198.768,210.572 200.101,210.405 201.5,211C 199.352,213.294 197.019,213.794 194.5,212.5C 194.5,209.5 194.5,206.5 194.5,203.5C 194.435,203.062 194.601,202.728 195,202.5C 195.333,203.167 195.667,203.833 196,204.5C 196.186,202.1 196.686,199.766 197.5,197.5C 198.324,200.785 198.824,204.118 199,207.5C 201.167,206.512 203,205.179 204.5,203.5 Z"/></g>
<g><path style="opacity:1" fill="#d68e5c" d="M 293.5,206.5 C 292.861,207.097 292.528,207.93 292.5,209C 292.684,210.376 293.351,211.209 294.5,211.5C 293.306,212.272 292.306,213.272 291.5,214.5C 290.604,213.494 289.938,213.494 289.5,214.5C 288.662,214.158 288.328,213.492 288.5,212.5C 290.179,212.715 291.179,212.048 291.5,210.5C 291.338,208.473 291.505,206.473 292,204.5C 292.717,205.044 293.217,205.711 293.5,206.5 Z"/></g>
<g><path style="opacity:1" fill="#d47d4e" d="M 190.5,211.5 C 189.523,214.287 189.19,217.287 189.5,220.5C 188.778,220.918 188.278,221.584 188,222.5C 187.685,220.414 187.185,218.414 186.5,216.5C 185.789,213.136 186.956,210.803 190,209.5C 190.464,210.094 190.631,210.761 190.5,211.5 Z"/></g>
<g><path style="opacity:1" fill="#d37d51" d="M 232.5,212.5 C 233.043,212.56 233.376,212.893 233.5,213.5C 231.027,214.797 228.693,214.797 226.5,213.5C 228.735,213.795 230.735,213.461 232.5,212.5 Z"/></g>
<g><path style="opacity:1" fill="#ebc7a6" d="M 208.5,210.5 C 207.34,212.203 208.007,212.869 210.5,212.5C 208.86,215.782 206.86,218.782 204.5,221.5C 203.761,221.631 203.094,221.464 202.5,221C 203.551,219.615 204.884,218.615 206.5,218C 204.975,216.991 203.308,216.491 201.5,216.5C 201.66,218.199 201.494,219.866 201,221.5C 199.56,220.07 199.226,218.403 200,216.5C 201,214.5 202,212.5 203,210.5C 203.278,211.416 203.778,212.082 204.5,212.5C 204.144,209.436 204.977,206.769 207,204.5C 207.191,206.708 207.691,208.708 208.5,210.5 Z"/></g>
<g><path style="opacity:1" fill="#bb1500" d="M 204.5,212.5 C 208.051,213.186 208.217,214.186 205,215.5C 204.517,214.552 204.351,213.552 204.5,212.5 Z"/></g>
<g><path style="opacity:1" fill="#eccbab" d="M 299.5,215.5 C 299.046,222.507 298.213,222.841 297,216.5C 295.601,217.227 294.101,217.727 292.5,218C 294.116,218.615 295.449,219.615 296.5,221C 294.633,221.711 293.133,221.211 292,219.5C 291.634,217.548 290.801,215.882 289.5,214.5C 289.938,213.494 290.604,213.494 291.5,214.5C 292.496,214.414 293.329,214.748 294,215.5C 294.862,213.913 295.529,212.246 296,210.5C 296.697,212.584 297.864,214.251 299.5,215.5 Z"/></g>
<g><path style="opacity:1" fill="#dc936d" d="M 226.5,216.5 C 228.364,215.207 230.364,215.207 232.5,216.5C 230.484,217.694 228.484,217.694 226.5,216.5 Z"/></g>
<g><path style="opacity:1" fill="#ead0af" d="M 255.5,211.5 C 260.199,214.486 261.532,218.486 259.5,223.5C 258.784,223.217 257.951,222.884 257,222.5C 256.29,223.973 255.124,224.64 253.5,224.5C 254.006,220.993 253.34,217.826 251.5,215C 253.55,214.584 254.884,213.417 255.5,211.5 Z"/></g>
<g><path style="opacity:1" fill="#dc936d" d="M 266.5,215.5 C 268.527,215.338 270.527,215.505 272.5,216C 270.121,218.142 268.121,217.976 266.5,215.5 Z"/></g>
<g><path style="opacity:1" fill="#ebd2b2" d="M 243.5,211.5 C 244.936,212.429 246.269,213.595 247.5,215C 245.66,217.826 244.994,220.993 245.5,224.5C 243.876,224.64 242.71,223.973 242,222.5C 241.049,222.884 240.216,223.217 239.5,223.5C 237.468,218.486 238.801,214.486 243.5,211.5 Z"/></g>
<g><path style="opacity:1" fill="#f3e0c9" d="M 192.5,208.5 C 192.833,209.833 193.167,211.167 193.5,212.5C 193.66,214.199 193.494,215.866 193,217.5C 192.667,217.167 192.333,216.833 192,216.5C 191.798,218.256 191.298,219.922 190.5,221.5C 189.893,221.376 189.56,221.043 189.5,220.5C 189.19,217.287 189.523,214.287 190.5,211.5C 191.397,210.319 191.897,208.319 192,205.5C 192.483,206.448 192.649,207.448 192.5,208.5 Z"/></g>
<g><path style="opacity:1" fill="#fbf2ea" d="M 226.5,218.5 C 228.5,218.5 230.5,218.5 232.5,218.5C 232.5,222.167 232.5,225.833 232.5,229.5C 230.5,229.5 228.5,229.5 226.5,229.5C 226.5,225.833 226.5,222.167 226.5,218.5 Z"/></g>
<g><path style="opacity:1" fill="#fcf7f1" d="M 266.5,218.5 C 268.5,218.5 270.5,218.5 272.5,218.5C 272.5,222.167 272.5,225.833 272.5,229.5C 270.5,229.5 268.5,229.5 266.5,229.5C 266.5,225.833 266.5,222.167 266.5,218.5 Z"/></g>
<g><path style="opacity:1" fill="#c12e10" d="M 210.5,200.5 C 211.629,201.47 212.629,202.636 213.5,204C 213.43,204.765 213.097,205.265 212.5,205.5C 212.631,204.761 212.464,204.094 212,203.5C 210.647,204.685 209.48,206.019 208.5,207.5C 209.425,208.562 210.425,208.562 211.5,207.5C 211.5,207.833 211.5,208.167 211.5,208.5C 210.71,209.401 209.71,210.068 208.5,210.5C 207.691,208.708 207.191,206.708 207,204.5C 204.977,206.769 204.144,209.436 204.5,212.5C 203.778,212.082 203.278,211.416 203,210.5C 202,212.5 201,214.5 200,216.5C 199.226,218.403 199.56,220.07 201,221.5C 201.494,219.866 201.66,218.199 201.5,216.5C 203.308,216.491 204.975,216.991 206.5,218C 204.884,218.615 203.551,219.615 202.5,221C 203.094,221.464 203.761,221.631 204.5,221.5C 203.602,222.158 202.602,222.824 201.5,223.5C 201.624,224.107 201.957,224.44 202.5,224.5C 202.217,225.289 201.717,225.956 201,226.5C 200.064,221.387 198.731,221.387 197,226.5C 196.581,225.328 195.915,224.328 195,223.5C 194.821,227.025 194.321,230.359 193.5,233.5C 190.991,227.378 189.491,227.378 189,233.5C 182.609,234.33 182.442,236.664 188.5,240.5C 187.626,243.789 186.959,247.123 186.5,250.5C 185.833,250.5 185.167,250.5 184.5,250.5C 184.5,249.5 184.5,248.5 184.5,247.5C 184.784,245.585 184.451,243.919 183.5,242.5C 183.66,237.921 182.993,237.588 181.5,241.5C 180.833,241.5 180.167,241.5 179.5,241.5C 179.586,240.504 179.252,239.671 178.5,239C 179.167,238.667 179.833,238.333 180.5,238C 179.418,236.67 178.751,235.17 178.5,233.5C 178.263,232.209 178.596,231.209 179.5,230.5C 179.238,231.978 179.571,233.311 180.5,234.5C 181.836,231.859 181.502,229.526 179.5,227.5C 179.833,226.833 180.167,226.167 180.5,225.5C 181.117,225.611 181.617,225.944 182,226.5C 182.497,224.19 182.663,221.857 182.5,219.5C 183.167,217.833 183.833,216.167 184.5,214.5C 184.496,218.027 184.163,221.527 183.5,225C 183.631,227.253 184.131,229.419 185,231.5C 184.32,226.515 184.487,221.515 185.5,216.5C 185.833,216.5 186.167,216.5 186.5,216.5C 187.185,218.414 187.685,220.414 188,222.5C 188.278,221.584 188.778,220.918 189.5,220.5C 189.56,221.043 189.893,221.376 190.5,221.5C 191.298,219.922 191.798,218.256 192,216.5C 192.333,216.833 192.667,217.167 193,217.5C 193.494,215.866 193.66,214.199 193.5,212.5C 193.833,212.5 194.167,212.5 194.5,212.5C 197.019,213.794 199.352,213.294 201.5,211C 200.101,210.405 198.768,210.572 197.5,211.5C 196.167,210.5 196.167,209.5 197.5,208.5C 198.768,209.428 200.101,209.595 201.5,209C 203.861,207.438 204.861,205.605 204.5,203.5C 205.29,202.599 206.29,201.932 207.5,201.5C 209.306,204.338 210.306,204.005 210.5,200.5 Z"/></g>
<g><path style="opacity:1" fill="#f3e2cb" d="M 193.5,218.5 C 198.508,218.356 198.674,219.356 194,221.5C 192.317,220.824 192.15,219.824 193.5,218.5 Z"/></g>
<g><path style="opacity:1" fill="#e9d0a8" d="M 184.5,214.5 C 185.338,214.842 185.672,215.508 185.5,216.5C 184.487,221.515 184.32,226.515 185,231.5C 184.131,229.419 183.631,227.253 183.5,225C 184.163,221.527 184.496,218.027 184.5,214.5 Z"/></g>
<g><path style="opacity:1" fill="#f0d7be" d="M 195.5,214.5 C 200.506,214.566 200.506,215.566 195.5,217.5C 194.438,216.575 194.438,215.575 195.5,214.5 Z"/></g>
<g><path style="opacity:1" fill="#d68f5d" d="M 182.5,219.5 C 182.663,221.857 182.497,224.19 182,226.5C 181.617,225.944 181.117,225.611 180.5,225.5C 180.651,222.628 181.318,220.628 182.5,219.5 Z"/></g>
<g><path style="opacity:1" fill="#f0d1b6" d="M 202.5,224.5 C 203.363,223.537 204.03,223.537 204.5,224.5C 203.05,225.85 202.383,227.516 202.5,229.5C 199.662,231.62 197.662,234.287 196.5,237.5C 197.014,235.488 197.18,233.488 197,231.5C 196.148,232.571 195.315,233.571 194.5,234.5C 193.833,234.5 193.5,234.167 193.5,233.5C 194.321,230.359 194.821,227.025 195,223.5C 195.915,224.328 196.581,225.328 197,226.5C 198.731,221.387 200.064,221.387 201,226.5C 201.717,225.956 202.217,225.289 202.5,224.5 Z"/></g>
<g><path style="opacity:1" fill="#f0d5bc" d="M 307.5,222.5 C 310.361,223.237 311.361,224.904 310.5,227.5C 308.244,226.579 307.244,224.912 307.5,222.5 Z"/></g>
<g><path style="opacity:1" fill="#d68e5d" d="M 316.5,218.5 C 317.612,220.599 318.279,222.933 318.5,225.5C 317.883,225.611 317.383,225.944 317,226.5C 316.503,223.854 316.336,221.187 316.5,218.5 Z"/></g>
<g><path style="opacity:1" fill="#f0d4ba" d="M 189.5,222.5 C 192.047,224.29 191.714,225.956 188.5,227.5C 187.799,225.808 188.133,224.142 189.5,222.5 Z"/></g>
<g><path style="opacity:1" fill="#fdf8f8" d="M 273.5,235.5 C 257.5,235.5 241.5,235.5 225.5,235.5C 224.188,234.855 223.188,233.855 222.5,232.5C 226.796,231.672 231.129,231.172 235.5,231C 236.5,230 237.5,229 238.5,228C 245.5,227.333 252.5,227.333 259.5,228C 261.116,228.615 262.449,229.615 263.5,231C 267.833,231.333 272.167,231.667 276.5,232C 275.29,233.039 274.29,234.206 273.5,235.5 Z"/></g>
<g><path style="opacity:1" fill="#e3ac83" d="M 297.5,226.5 C 299.367,227.76 300.7,229.427 301.5,231.5C 301.833,233.5 302.167,235.5 302.5,237.5C 300.933,236.319 300.099,234.653 300,232.5C 298.961,231.29 297.794,230.29 296.5,229.5C 296.617,227.516 295.95,225.85 294.5,224.5C 295.781,224.016 296.781,224.683 297.5,226.5 Z"/></g>
<g><path style="opacity:1" fill="#e9cca4" d="M 314.5,214.5 C 315.842,220.553 315.675,226.553 314,232.5C 314.24,228.992 314.073,225.659 313.5,222.5C 313.194,219.615 313.527,216.948 314.5,214.5 Z"/></g>
<g><path style="opacity:1" fill="#ecc6a9" d="M 319.5,228.5 C 319.5,229.167 319.5,229.833 319.5,230.5C 319.762,231.978 319.429,233.311 318.5,234.5C 317.243,232.201 317.577,230.201 319.5,228.5 Z"/></g>
<g><path style="opacity:1" fill="#ebc6a8" d="M 179.5,227.5 C 181.502,229.526 181.836,231.859 180.5,234.5C 179.571,233.311 179.238,231.978 179.5,230.5C 179.5,229.5 179.5,228.5 179.5,227.5 Z"/></g>
<g><path style="opacity:1" fill="#f5e5d3" d="M 178.5,233.5 C 178.751,235.17 179.418,236.67 180.5,238C 179.833,238.333 179.167,238.667 178.5,239C 179.252,239.671 179.586,240.504 179.5,241.5C 179.565,241.938 179.399,242.272 179,242.5C 178.292,241.619 177.458,240.953 176.5,240.5C 176.461,239.417 176.127,238.417 175.5,237.5C 176.167,237.167 176.833,236.833 177.5,236.5C 175.896,233.875 176.23,232.875 178.5,233.5 Z"/></g>
<g><path style="opacity:1" fill="#c74929" d="M 196.5,237.5 C 195.094,237.027 194.427,236.027 194.5,234.5C 195.315,233.571 196.148,232.571 197,231.5C 197.18,233.488 197.014,235.488 196.5,237.5 Z"/></g>
<g><path style="opacity:1" fill="#eccfad" d="M 296.5,229.5 C 296.786,232.994 298.119,235.994 300.5,238.5C 300.167,238.833 299.833,239.167 299.5,239.5C 297.079,236.588 295.412,233.255 294.5,229.5C 294.97,228.537 295.637,228.537 296.5,229.5 Z"/></g>
<g><path style="opacity:1" fill="#c64525" d="M 301.5,231.5 C 304.478,233.348 304.812,235.348 302.5,237.5C 302.167,235.5 301.833,233.5 301.5,231.5 Z"/></g>
<g><path style="opacity:1" fill="#efd0b3" d="M 322.5,245.5 C 318.579,248.382 317.912,247.882 320.5,244C 319.692,243.692 319.025,243.192 318.5,242.5C 319.984,240.134 319.317,238.801 316.5,238.5C 316.351,237.448 316.517,236.448 317,235.5C 319.149,236.84 320.316,236.173 320.5,233.5C 322.77,232.875 323.104,233.875 321.5,236.5C 322.167,236.833 322.833,237.167 323.5,237.5C 323.563,240.133 323.229,242.799 322.5,245.5 Z"/></g>
<g><path style="opacity:1" fill="#eccead" d="M 202.5,229.5 C 203.239,229.369 203.906,229.536 204.5,230C 203.492,233.533 201.825,236.7 199.5,239.5C 198.524,237.877 199.024,236.543 201,235.5C 201.813,233.564 202.313,231.564 202.5,229.5 Z"/></g>
<g><path style="opacity:1" fill="#e5c296" d="M 286.5,238.5 C 284.076,241.008 282.41,244.008 281.5,247.5C 280.833,247.5 280.167,247.5 279.5,247.5C 281.78,243.276 283.78,238.942 285.5,234.5C 286.675,234.281 287.675,234.614 288.5,235.5C 287.807,236.518 287.141,237.518 286.5,238.5 Z"/></g>
<g><path style="opacity:1" fill="#f7ecdd" d="M 183.5,242.5 C 182.508,242.672 181.842,242.338 181.5,241.5C 182.993,237.588 183.66,237.921 183.5,242.5 Z"/></g>
<g><path style="opacity:1" fill="#faf3e9" d="M 213.5,238.5 C 214.443,241.4 216.11,243.733 218.5,245.5C 219.338,245.842 219.672,246.508 219.5,247.5C 217.321,247.84 215.488,248.84 214,250.5C 212.185,248.595 210.185,246.928 208,245.5C 208.772,242.536 210.605,240.202 213.5,238.5 Z"/></g>
<g><path style="opacity:1" fill="#e1b383" d="M 218.5,245.5 C 216.11,243.733 214.443,241.4 213.5,238.5C 209.264,236.027 209.597,234.694 214.5,234.5C 215.001,238.495 216.334,242.162 218.5,245.5 Z"/></g>
<g><path style="opacity:1" fill="#fbf7f1" d="M 286.5,238.5 C 287.793,240.296 289.293,241.963 291,243.5C 291.667,244.167 291.667,244.833 291,245.5C 288.815,246.928 286.815,248.595 285,250.5C 283.855,249.364 282.688,248.364 281.5,247.5C 282.41,244.008 284.076,241.008 286.5,238.5 Z"/></g>
<g><path style="opacity:1" fill="#f7e8d8" d="M 316.5,238.5 C 318.175,240.456 317.842,241.789 315.5,242.5C 315.232,240.901 315.566,239.568 316.5,238.5 Z"/></g>
<g><path style="opacity:1" fill="#e8c7a1" d="M 226.5,239.5 C 228.833,239.5 231.167,239.5 233.5,239.5C 233.5,242.5 233.5,245.5 233.5,248.5C 231.167,248.5 228.833,248.5 226.5,248.5C 226.5,245.5 226.5,242.5 226.5,239.5 Z"/></g>
<g><path style="opacity:1" fill="#ebccac" d="M 310.5,240.5 C 311.15,242.435 311.483,244.435 311.5,246.5C 310.197,246.622 308.864,246.622 307.5,246.5C 310.128,250.539 309.461,251.206 305.5,248.5C 305.215,246.712 305.548,245.045 306.5,243.5C 307.086,243.709 307.586,244.043 308,244.5C 308.333,243.167 308.667,241.833 309,240.5C 309.69,239.262 310.19,239.262 310.5,240.5 Z"/></g>
<g><path style="opacity:1" fill="#cb502f" d="M 225.5,235.5 C 241.5,235.5 257.5,235.5 273.5,235.5C 272.766,236.708 272.433,238.041 272.5,239.5C 270.5,239.5 268.5,239.5 266.5,239.5C 266.091,242.855 266.758,245.855 268.5,248.5C 267.5,248.5 266.5,248.5 265.5,248.5C 265.5,245.167 265.5,241.833 265.5,238.5C 262.482,238.335 259.482,238.502 256.5,239C 257.96,239.811 258.293,240.645 257.5,241.5C 256.478,241.145 255.811,240.478 255.5,239.5C 250.887,236.814 246.22,236.981 241.5,240C 240.262,240.69 240.262,241.19 241.5,241.5C 240.71,242.401 239.71,243.068 238.5,243.5C 236.018,245.503 235.018,248.169 235.5,251.5C 232.428,251.817 229.428,251.484 226.5,250.5C 228.969,249.832 231.302,249.165 233.5,248.5C 233.5,245.5 233.5,242.5 233.5,239.5C 231.167,239.5 228.833,239.5 226.5,239.5C 226.567,238.041 226.234,236.708 225.5,235.5 Z"/></g>
<g><path style="opacity:1" fill="#dd9d71" d="M 260.5,240.5 C 261.568,239.566 262.901,239.232 264.5,239.5C 264.762,240.978 264.429,242.311 263.5,243.5C 262.712,242.23 261.712,241.23 260.5,240.5 Z"/></g>
<g><path style="opacity:1" fill="#f1e0c6" d="M 235.5,239.5 C 239.133,239.443 239.3,240.443 236,242.5C 235.517,241.552 235.351,240.552 235.5,239.5 Z"/></g>
<g><path style="opacity:1" fill="#d9a26a" d="M 255.5,239.5 C 250.474,237.782 245.808,238.449 241.5,241.5C 240.262,241.19 240.262,240.69 241.5,240C 246.22,236.981 250.887,236.814 255.5,239.5 Z"/></g>
<g><path style="opacity:1" fill="#ecd5b3" d="M 272.5,239.5 C 272.5,242.5 272.5,245.5 272.5,248.5C 271.167,248.5 269.833,248.5 268.5,248.5C 266.758,245.855 266.091,242.855 266.5,239.5C 268.5,239.5 270.5,239.5 272.5,239.5 Z"/></g>
<g><path style="opacity:1" fill="#f9f3e9" d="M 176.5,242.5 C 178.339,243.508 179.672,245.008 180.5,247C 179.423,247.47 178.423,247.303 177.5,246.5C 177.167,245.167 176.833,243.833 176.5,242.5 Z"/></g>
<g><path style="opacity:1" fill="#eccbac" d="M 193.5,248.5 C 192.143,249.685 190.643,250.685 189,251.5C 188.098,251.257 187.265,250.923 186.5,250.5C 186.959,247.123 187.626,243.789 188.5,240.5C 188.81,239.262 189.31,239.262 190,240.5C 190.49,241.793 190.657,243.127 190.5,244.5C 191.5,244.5 192.5,244.5 193.5,244.5C 193.5,245.833 193.5,247.167 193.5,248.5 Z"/></g>
<g><path style="opacity:1" fill="#ca5b2b" d="M 176.5,240.5 C 177.458,240.953 178.292,241.619 179,242.5C 179.399,242.272 179.565,241.938 179.5,241.5C 180.167,241.5 180.833,241.5 181.5,241.5C 181.842,242.338 182.508,242.672 183.5,242.5C 184.451,243.919 184.784,245.585 184.5,247.5C 180.688,249.931 180.688,250.931 184.5,250.5C 185.167,250.5 185.833,250.5 186.5,250.5C 187.265,250.923 188.098,251.257 189,251.5C 190.643,250.685 192.143,249.685 193.5,248.5C 195.824,251.475 196.657,254.808 196,258.5C 194.246,260.25 192.079,260.917 189.5,260.5C 189.081,257.974 188.914,255.641 189,253.5C 188.107,252.289 187.274,252.289 186.5,253.5C 187.791,254.527 187.791,255.527 186.5,256.5C 185.833,255.833 185.167,255.167 184.5,254.5C 184.631,253.761 184.464,253.094 184,252.5C 182.225,255.044 180.392,255.044 178.5,252.5C 177.738,254.781 178.738,256.114 181.5,256.5C 181.5,257.167 181.5,257.833 181.5,258.5C 178.891,257.557 176.891,255.89 175.5,253.5C 174.091,251.695 173.591,249.695 174,247.5C 174.667,248.833 175.333,250.167 176,251.5C 176.383,250.944 176.883,250.611 177.5,250.5C 178.423,251.303 179.423,251.47 180.5,251C 178.859,249.871 177.859,248.371 177.5,246.5C 178.423,247.303 179.423,247.47 180.5,247C 179.672,245.008 178.339,243.508 176.5,242.5C 175.167,241.833 175.167,241.167 176.5,240.5 Z"/></g>
<g><path style="opacity:1" fill="#f7eee0" d="M 182.5,243.5 C 183.797,244.849 183.63,246.182 182,247.5C 181.421,246.072 181.588,244.738 182.5,243.5 Z"/></g>
<g><path style="opacity:1" fill="#c3421c" d="M 190.5,245.5 C 191.559,247.07 191.059,248.403 189,249.5C 188.7,247.934 189.2,246.601 190.5,245.5 Z"/></g>
<g><path style="opacity:1" fill="#f4dcca" d="M 312.5,250.5 C 311.833,250.5 311.5,250.833 311.5,251.5C 310.506,250.001 310.506,248.334 311.5,246.5C 312.117,246.389 312.617,246.056 313,245.5C 313.384,247.197 313.218,248.863 312.5,250.5 Z"/></g>
<g><path style="opacity:1" fill="#c85324" d="M 316.5,238.5 C 319.317,238.801 319.984,240.134 318.5,242.5C 319.025,243.192 319.692,243.692 320.5,244C 317.912,247.882 318.579,248.382 322.5,245.5C 323.833,246.5 323.833,247.5 322.5,248.5C 322.565,248.062 322.399,247.728 322,247.5C 321,248.5 320,249.5 319,250.5C 319.618,254.526 318.285,255.193 315,252.5C 314.09,254.945 314.924,256.278 317.5,256.5C 317.5,257.167 317.5,257.833 317.5,258.5C 315.5,258.833 313.5,259.167 311.5,259.5C 311.703,257.956 312.37,256.622 313.5,255.5C 312.289,254.28 312.289,253.113 313.5,252C 312.906,251.536 312.239,251.369 311.5,251.5C 311.5,250.833 311.833,250.5 312.5,250.5C 313.167,250.5 313.833,250.5 314.5,250.5C 318.312,250.931 318.312,249.931 314.5,247.5C 314.216,245.585 314.549,243.919 315.5,242.5C 317.842,241.789 318.175,240.456 316.5,238.5 Z"/></g>
<g><path style="opacity:1" fill="#f7eddf" d="M 315.5,243.5 C 317.273,244.314 317.773,245.648 317,247.5C 315.812,246.437 315.312,245.103 315.5,243.5 Z"/></g>
<g><path style="opacity:1" fill="#f5ebd7" d="M 184.5,247.5 C 184.5,248.5 184.5,249.5 184.5,250.5C 180.688,250.931 180.688,249.931 184.5,247.5 Z"/></g>
<g><path style="opacity:1" fill="#d89b64" d="M 219.5,247.5 C 221.25,248.659 222.25,250.326 222.5,252.5C 220.75,251.341 219.75,249.674 219.5,247.5 Z"/></g>
<g><path style="opacity:1" fill="#d89b64" d="M 279.5,247.5 C 279.205,249.423 278.372,251.09 277,252.5C 276.751,250.332 277.584,248.665 279.5,247.5 Z"/></g>
<g><path style="opacity:1" fill="#d59258" d="M 260.5,243.5 C 261.79,244.058 262.623,245.058 263,246.5C 263.667,249.5 263.667,252.5 263,255.5C 262.815,251.325 261.981,247.325 260.5,243.5 Z"/></g>
<g><path style="opacity:1" fill="#f7eede" d="M 314.5,247.5 C 318.312,249.931 318.312,250.931 314.5,250.5C 314.5,249.5 314.5,248.5 314.5,247.5 Z"/></g>
<g><path style="opacity:1" fill="#f6e8d9" d="M 177.5,246.5 C 177.859,248.371 178.859,249.871 180.5,251C 179.423,251.47 178.423,251.303 177.5,250.5C 176.847,249.193 176.18,247.86 175.5,246.5C 175.97,245.537 176.637,245.537 177.5,246.5 Z"/></g>
<g><path style="opacity:1" fill="#fdfcf8" d="M 236.5,251.5 C 240.971,250.911 244.971,251.577 248.5,253.5C 244.029,254.089 240.029,253.423 236.5,251.5 Z"/></g>
<g><path style="opacity:1" fill="#c4441c" d="M 311.5,246.5 C 310.506,248.334 310.506,250.001 311.5,251.5C 309.752,252.789 309.419,254.289 310.5,256C 309.956,256.717 309.289,257.217 308.5,257.5C 305.559,254.871 304.893,255.538 306.5,259.5C 306.5,259.833 306.5,260.167 306.5,260.5C 303.691,260.412 302.358,258.912 302.5,256C 303.093,253.317 304.093,250.817 305.5,248.5C 309.461,251.206 310.128,250.539 307.5,246.5C 308.864,246.622 310.197,246.622 311.5,246.5 Z"/></g>
<g><path style="opacity:1" fill="#f8efe1" d="M 306.5,251.5 C 308.273,252.314 308.773,253.648 308,255.5C 306.812,254.437 306.312,253.103 306.5,251.5 Z"/></g>
<g><path style="opacity:1" fill="#cb6432" d="M 325.5,253.5 C 322.851,255.14 320.184,256.807 317.5,258.5C 317.5,257.833 317.5,257.167 317.5,256.5C 320.144,255.856 321.811,254.189 322.5,251.5C 323.558,250.4 324.392,249.066 325,247.5C 324.744,249.602 324.911,251.602 325.5,253.5 Z"/></g>
<g><path style="opacity:1" fill="#f7eee0" d="M 191.5,251.5 C 192.797,252.849 192.63,254.182 191,255.5C 190.421,254.072 190.588,252.738 191.5,251.5 Z"/></g>
<g><path style="opacity:1" fill="#ebccac" d="M 226.5,253.5 C 228.924,253.192 231.257,253.526 233.5,254.5C 232.333,254.833 231.167,255.167 230,255.5C 228.319,255.392 227.152,254.725 226.5,253.5 Z"/></g>
<g><path style="opacity:1" fill="#ebcdac" d="M 265.5,253.5 C 267.924,253.192 270.257,253.526 272.5,254.5C 271.333,254.833 270.167,255.167 269,255.5C 267.319,255.392 266.152,254.725 265.5,253.5 Z"/></g>
<g><path style="opacity:1" fill="#e7be97" d="M 311.5,251.5 C 312.239,251.369 312.906,251.536 313.5,252C 312.289,253.113 312.289,254.28 313.5,255.5C 312.37,256.622 311.703,257.956 311.5,259.5C 310.081,260.451 308.415,260.784 306.5,260.5C 306.5,260.167 306.5,259.833 306.5,259.5C 307.833,259.5 308.5,258.833 308.5,257.5C 309.289,257.217 309.956,256.717 310.5,256C 309.419,254.289 309.752,252.789 311.5,251.5 Z"/></g>
<g><path style="opacity:1" fill="#fbf2eb" d="M 310.5,240.5 C 310.19,239.262 309.69,239.262 309,240.5C 308.667,241.833 308.333,243.167 308,244.5C 307.586,244.043 307.086,243.709 306.5,243.5C 305.548,245.045 305.215,246.712 305.5,248.5C 304.093,250.817 303.093,253.317 302.5,256C 302.358,258.912 303.691,260.412 306.5,260.5C 308.415,260.784 310.081,260.451 311.5,259.5C 313.5,259.167 315.5,258.833 317.5,258.5C 320.184,256.807 322.851,255.14 325.5,253.5C 324.809,258.279 322.476,261.946 318.5,264.5C 317.614,265.325 317.281,266.325 317.5,267.5C 316.833,267.5 316.167,267.5 315.5,267.5C 315.631,266.624 315.298,265.957 314.5,265.5C 309.51,266.997 304.51,268.33 299.5,269.5C 297.956,269.703 296.622,270.37 295.5,271.5C 294.893,271.376 294.56,271.043 294.5,270.5C 294.963,265.738 297.296,262.238 301.5,260C 300.426,259.261 299.759,258.261 299.5,257C 300.317,254.226 300.317,251.393 299.5,248.5C 299.896,244.648 300.896,240.981 302.5,237.5C 304.812,235.348 304.478,233.348 301.5,231.5C 300.7,229.427 299.367,227.76 297.5,226.5C 298.807,221.223 300.307,221.223 302,226.5C 302.419,225.328 303.085,224.328 304,223.5C 304.333,226.833 304.667,230.167 305,233.5C 306.574,232.016 307.907,230.349 309,228.5C 309.494,230.134 309.66,231.801 309.5,233.5C 316.627,233.834 316.96,236.167 310.5,240.5 Z"/></g>
<g><path style="opacity:1" fill="#fbf2ec" d="M 193.5,233.5 C 193.5,234.167 193.833,234.5 194.5,234.5C 194.427,236.027 195.094,237.027 196.5,237.5C 198.37,240.914 199.37,244.581 199.5,248.5C 198.913,251.434 198.913,254.267 199.5,257C 199.241,258.261 198.574,259.261 197.5,260C 202.048,262.044 204.381,265.544 204.5,270.5C 204.565,270.938 204.399,271.272 204,271.5C 202.67,270.418 201.17,269.751 199.5,269.5C 194.275,268.909 189.275,267.576 184.5,265.5C 183.59,262.186 182.257,261.852 180.5,264.5C 176.735,262.278 174.401,258.945 173.5,254.5C 173.957,253.702 174.624,253.369 175.5,253.5C 176.891,255.89 178.891,257.557 181.5,258.5C 183.06,258.519 184.56,258.852 186,259.5C 187.683,258.824 187.85,257.824 186.5,256.5C 187.791,255.527 187.791,254.527 186.5,253.5C 187.274,252.289 188.107,252.289 189,253.5C 188.914,255.641 189.081,257.974 189.5,260.5C 192.079,260.917 194.246,260.25 196,258.5C 196.657,254.808 195.824,251.475 193.5,248.5C 193.5,247.167 193.5,245.833 193.5,244.5C 192.5,244.5 191.5,244.5 190.5,244.5C 190.657,243.127 190.49,241.793 190,240.5C 189.31,239.262 188.81,239.262 188.5,240.5C 182.442,236.664 182.609,234.33 189,233.5C 189.491,227.378 190.991,227.378 193.5,233.5 Z"/></g>
<g><path style="opacity:1" fill="#efd2b5" d="M 184.5,254.5 C 184.027,255.906 183.027,256.573 181.5,256.5C 178.738,256.114 177.738,254.781 178.5,252.5C 180.392,255.044 182.225,255.044 184,252.5C 184.464,253.094 184.631,253.761 184.5,254.5 Z"/></g>
<g><path style="opacity:1" fill="#f8ebde" d="M 204.5,254.5 C 211.719,255.332 213.219,258.665 209,264.5C 207.333,262.833 205.667,261.167 204,259.5C 203.616,257.803 203.782,256.137 204.5,254.5 Z"/></g>
<g><path style="opacity:1" fill="#d89c66" d="M 273.5,257.5 C 273.461,256.244 273.961,255.244 275,254.5C 275.585,255.998 275.085,256.998 273.5,257.5 Z"/></g>
<g><path style="opacity:1" fill="#fbf5ed" d="M 291.5,254.5 C 293.849,254.458 295.182,255.625 295.5,258C 294.056,260.449 292.222,262.615 290,264.5C 287.729,260.697 288.229,257.363 291.5,254.5 Z"/></g>
<g><path style="opacity:1" fill="#ecc9a8" d="M 322.5,248.5 C 322.5,249.5 322.5,250.5 322.5,251.5C 321.811,254.189 320.144,255.856 317.5,256.5C 314.924,256.278 314.09,254.945 315,252.5C 318.285,255.193 319.618,254.526 319,250.5C 320,249.5 321,248.5 322,247.5C 322.399,247.728 322.565,248.062 322.5,248.5 Z"/></g>
<g><path style="opacity:1" fill="#be2107" d="M 184.5,254.5 C 185.167,255.167 185.833,255.833 186.5,256.5C 187.85,257.824 187.683,258.824 186,259.5C 184.56,258.852 183.06,258.519 181.5,258.5C 181.5,257.833 181.5,257.167 181.5,256.5C 183.027,256.573 184.027,255.906 184.5,254.5 Z"/></g>
<g><path style="opacity:1" fill="#f5ecd8" d="M 192.5,255.5 C 193.867,257.093 193.534,258.426 191.5,259.5C 191.167,259.167 190.833,258.833 190.5,258.5C 191.193,257.482 191.859,256.482 192.5,255.5 Z"/></g>
<g><path style="opacity:1" fill="#f4e9d3" d="M 308.5,257.5 C 308.5,258.833 307.833,259.5 306.5,259.5C 304.893,255.538 305.559,254.871 308.5,257.5 Z"/></g>
<g><path style="opacity:1" fill="#e3bd91" d="M 233.5,257.5 C 233.5,259.5 233.5,261.5 233.5,263.5C 231.396,263.799 229.396,263.466 227.5,262.5C 232.682,261.224 232.682,260.557 227.5,260.5C 227.5,259.5 227.5,258.5 227.5,257.5C 229.5,257.5 231.5,257.5 233.5,257.5 Z"/></g>
<g><path style="opacity:1" fill="#fcf9f5" d="M 253.5,263.5 C 254.412,264.738 254.579,266.072 254,267.5C 252.416,266.139 250.582,265.472 248.5,265.5C 248.335,262.15 248.502,258.817 249,255.5C 249.828,258.647 251.328,261.314 253.5,263.5 Z"/></g>
<g><path style="opacity:1" fill="#e1b786" d="M 238.5,243.5 C 237.25,246.006 236.584,248.673 236.5,251.5C 240.029,253.423 244.029,254.089 248.5,253.5C 252.541,255.349 255.208,258.349 256.5,262.5C 255.849,261.909 255.182,261.243 254.5,260.5C 254.036,261.636 253.702,262.636 253.5,263.5C 251.328,261.314 249.828,258.647 249,255.5C 248.502,258.817 248.335,262.15 248.5,265.5C 248.5,265.833 248.5,266.167 248.5,266.5C 247.833,266.5 247.5,266.833 247.5,267.5C 246.662,267.158 246.328,266.492 246.5,265.5C 247.482,262.038 247.815,258.371 247.5,254.5C 244.167,254.5 240.833,254.5 237.5,254.5C 236.833,258.167 236.167,261.833 235.5,265.5C 235.5,260.833 235.5,256.167 235.5,251.5C 235.018,248.169 236.018,245.503 238.5,243.5 Z"/></g>
<g><path style="opacity:1" fill="#fbf7f1" d="M 237.5,254.5 C 240.833,254.5 244.167,254.5 247.5,254.5C 247.815,258.371 247.482,262.038 246.5,265.5C 243.857,253.562 241.024,253.562 238,265.5C 237.501,261.848 237.335,258.182 237.5,254.5 Z"/></g>
<g><path style="opacity:1" fill="#d28a4c" d="M 222.5,252.5 C 223.837,253.315 224.837,254.482 225.5,256C 228.365,256.183 231.031,256.683 233.5,257.5C 231.5,257.5 229.5,257.5 227.5,257.5C 227.5,258.5 227.5,259.5 227.5,260.5C 232.682,260.557 232.682,261.224 227.5,262.5C 229.396,263.466 231.396,263.799 233.5,263.5C 231.393,264.468 229.059,264.802 226.5,264.5C 226.66,262.801 226.494,261.134 226,259.5C 224.295,257.423 223.128,255.09 222.5,252.5 Z"/></g>
<g><path style="opacity:1" fill="#dfb07c" d="M 273.5,257.5 C 272.781,259.764 272.448,262.097 272.5,264.5C 270.167,264.5 267.833,264.5 265.5,264.5C 265.5,262.167 265.5,259.833 265.5,257.5C 268.167,257.5 270.833,257.5 273.5,257.5 Z"/></g>
<g><path style="opacity:1" fill="#ecd3b4" d="M 237.5,254.5 C 237.335,258.182 237.501,261.848 238,265.5C 241.024,253.562 243.857,253.562 246.5,265.5C 246.328,266.492 246.662,267.158 247.5,267.5C 246.28,269.282 245.614,271.282 245.5,273.5C 243.833,273.5 242.167,273.5 240.5,273.5C 240.5,272.167 240.5,270.833 240.5,269.5C 238.833,269.5 237.167,269.5 235.5,269.5C 235.5,268.167 235.5,266.833 235.5,265.5C 236.167,261.833 236.833,258.167 237.5,254.5 Z"/></g>
<g><path style="opacity:1" fill="#f8ecdf" d="M 265.5,265.5 C 267.833,265.5 270.167,265.5 272.5,265.5C 272.5,266.833 272.5,268.167 272.5,269.5C 270.167,269.5 267.833,269.5 265.5,269.5C 265.5,268.167 265.5,266.833 265.5,265.5 Z"/></g>
<g><path style="opacity:1" fill="#c02f0a" d="M 184.5,265.5 C 189.275,267.576 194.275,268.909 199.5,269.5C 199.737,270.791 199.404,271.791 198.5,272.5C 197.878,271.373 197.045,270.373 196,269.5C 196.148,270.825 195.982,271.992 195.5,273C 197.616,274.171 198.282,275.671 197.5,277.5C 199.415,279.071 200.415,281.071 200.5,283.5C 199.728,282.306 198.728,281.306 197.5,280.5C 196.597,278.364 195.431,276.364 194,274.5C 194.316,277.454 194.816,280.454 195.5,283.5C 195.167,283.5 194.833,283.5 194.5,283.5C 193.482,284.292 193.149,285.959 193.5,288.5C 191.488,287.986 189.488,287.82 187.5,288C 188.598,288.77 188.598,289.603 187.5,290.5C 185.767,289.992 185.434,289.159 186.5,288C 185.177,287.184 184.511,286.017 184.5,284.5C 186.477,286.188 188.477,286.521 190.5,285.5C 191.492,285.672 192.158,285.338 192.5,284.5C 192.552,282.097 192.219,279.764 191.5,277.5C 190.737,275.632 189.737,273.965 188.5,272.5C 187.307,270.946 186.14,269.279 185,267.5C 185.09,271.539 183.923,272.206 181.5,269.5C 182.694,268.201 183.694,266.868 184.5,265.5 Z"/></g>
<g><path style="opacity:1" fill="#f6ead8" d="M 226.5,265.5 C 228.833,265.5 231.167,265.5 233.5,265.5C 233.5,266.833 233.5,268.167 233.5,269.5C 231.167,269.5 228.833,269.5 226.5,269.5C 226.5,268.167 226.5,266.833 226.5,265.5 Z"/></g>
<g><path style="opacity:1" fill="#bc1a01" d="M 240.5,269.5 C 240.5,268.167 240.5,266.833 240.5,265.5C 243.5,265.167 244.833,266.5 244.5,269.5C 243.167,269.5 241.833,269.5 240.5,269.5 Z"/></g>
<g><path style="opacity:1" fill="#c1320e" d="M 315.5,267.5 C 318.125,268.802 318.125,270.135 315.5,271.5C 314.719,270.271 314.219,268.938 314,267.5C 313.29,268.973 312.124,269.64 310.5,269.5C 310.5,270.5 310.5,271.5 310.5,272.5C 309.263,273.965 308.263,275.632 307.5,277.5C 306.377,279.979 306.377,282.312 307.5,284.5C 307.833,285.5 308.5,286.167 309.5,286.5C 311.284,286.107 312.95,285.441 314.5,284.5C 314.923,286.781 314.256,288.448 312.5,289.5C 311.188,289.176 310.355,288.509 310,287.5C 308.56,288.148 307.06,288.481 305.5,288.5C 305.662,286.473 305.495,284.473 305,282.5C 304.617,283.056 304.117,283.389 303.5,283.5C 304.038,280.811 304.705,278.144 305.5,275.5C 305.154,274.304 304.654,274.304 304,275.5C 303.536,274.906 303.369,274.239 303.5,273.5C 302.811,272.293 302.645,270.959 303,269.5C 301.374,270.955 300.208,272.622 299.5,274.5C 299.167,274.5 298.833,274.5 298.5,274.5C 298.5,274.167 298.5,273.833 298.5,273.5C 299.434,272.432 299.768,271.099 299.5,269.5C 304.51,268.33 309.51,266.997 314.5,265.5C 315.298,265.957 315.631,266.624 315.5,267.5 Z"/></g>
<g><path style="opacity:1" fill="#ce6d3d" d="M 199.5,269.5 C 201.17,269.751 202.67,270.418 204,271.5C 204.399,271.272 204.565,270.938 204.5,270.5C 205.401,271.29 206.068,272.29 206.5,273.5C 205.115,274.574 203.949,275.907 203,277.5C 200.8,276.349 199.3,274.682 198.5,272.5C 199.404,271.791 199.737,270.791 199.5,269.5 Z"/></g>
<g><path style="opacity:1" fill="#fbf9ef" d="M 200.5,271.5 C 204.06,273.283 204.06,274.283 200.5,274.5C 200.5,273.5 200.5,272.5 200.5,271.5 Z"/></g>
<g><path style="opacity:1" fill="#faf4eb" d="M 240.5,273.5 C 240.5,275.167 240.5,276.833 240.5,278.5C 234.491,278.666 228.491,278.499 222.5,278C 224.414,276.587 225.747,274.753 226.5,272.5C 227.5,272.167 228.5,271.833 229.5,271.5C 233.032,272.967 236.698,273.634 240.5,273.5 Z"/></g>
<g><path style="opacity:1" fill="#efd6ba" d="M 256.5,262.5 C 257.15,262.804 257.817,263.137 258.5,263.5C 260.057,266.782 261.723,269.949 263.5,273C 258.092,273.162 257.426,274.662 261.5,277.5C 257.863,279.066 255.196,278.066 253.5,274.5C 254.729,273.719 256.062,273.219 257.5,273C 255.933,270.259 253.599,269.092 250.5,269.5C 250.068,268.29 249.401,267.29 248.5,266.5C 248.5,266.167 248.5,265.833 248.5,265.5C 250.582,265.472 252.416,266.139 254,267.5C 254.579,266.072 254.412,264.738 253.5,263.5C 253.702,262.636 254.036,261.636 254.5,260.5C 255.182,261.243 255.849,261.909 256.5,262.5 Z"/></g>
<g><path style="opacity:1" fill="#fcf6f0" d="M 274.5,276.5 C 271.167,277.833 267.833,277.833 264.5,276.5C 265.301,274.958 265.634,273.292 265.5,271.5C 270.403,270.237 273.403,271.903 274.5,276.5 Z"/></g>
<g><path style="opacity:1" fill="#e9c19c" d="M 314.5,284.5 C 312.95,285.441 311.284,286.107 309.5,286.5C 309.557,285.391 309.89,284.391 310.5,283.5C 313.378,281.512 314.045,278.846 312.5,275.5C 313.167,275.5 313.5,275.167 313.5,274.5C 314.773,273.923 314.773,273.257 313.5,272.5C 312.702,272.957 312.369,273.624 312.5,274.5C 311.167,274.5 310.5,273.833 310.5,272.5C 310.5,271.5 310.5,270.5 310.5,269.5C 312.124,269.64 313.29,268.973 314,267.5C 314.219,268.938 314.719,270.271 315.5,271.5C 318.125,270.135 318.125,268.802 315.5,267.5C 316.167,267.5 316.833,267.5 317.5,267.5C 320.075,266.432 322.242,264.765 324,262.5C 324.167,262.833 324.333,263.167 324.5,263.5C 321.577,266.161 319.577,268.995 318.5,272C 319.833,272.667 319.833,273.333 318.5,274C 319.167,274.333 319.833,274.667 320.5,275C 318.982,278.113 316.982,281.28 314.5,284.5 Z"/></g>
<g><path style="opacity:1" fill="#bb1b03" d="M 313.5,274.5 C 313.167,274.5 312.833,274.5 312.5,274.5C 312.369,273.624 312.702,272.957 313.5,272.5C 314.773,273.257 314.773,273.923 313.5,274.5 Z"/></g>
<g><path style="opacity:1" fill="#ebc7a5" d="M 180.5,264.5 C 182.257,261.852 183.59,262.186 184.5,265.5C 183.694,266.868 182.694,268.201 181.5,269.5C 183.923,272.206 185.09,271.539 185,267.5C 186.14,269.279 187.307,270.946 188.5,272.5C 188.5,273.833 187.833,274.5 186.5,274.5C 186.631,273.624 186.298,272.957 185.5,272.5C 184.227,273.257 184.227,273.923 185.5,274.5C 185.5,275.167 185.833,275.5 186.5,275.5C 186.082,276.222 185.416,276.722 184.5,277C 185.952,278.958 186.285,280.958 185.5,283C 186.448,283.483 187.448,283.649 188.5,283.5C 188.833,284.5 189.5,285.167 190.5,285.5C 188.477,286.521 186.477,286.188 184.5,284.5C 183.828,283.733 182.995,283.066 182,282.5C 180.466,279.797 179.299,277.297 178.5,275C 179.167,274.667 179.833,274.333 180.5,274C 179.167,273.333 179.167,272.667 180.5,272C 179.423,268.995 177.423,266.161 174.5,263.5C 174.667,263.167 174.833,262.833 175,262.5C 176.815,264.405 178.815,266.072 181,267.5C 181.47,266.423 181.303,265.423 180.5,264.5 Z"/></g>
<g><path style="opacity:1" fill="#bb1d05" d="M 186.5,274.5 C 186.167,274.5 185.833,274.5 185.5,274.5C 184.227,273.923 184.227,273.257 185.5,272.5C 186.298,272.957 186.631,273.624 186.5,274.5 Z"/></g>
<g><path style="opacity:1" fill="#faf7ed" d="M 298.5,273.5 C 298.5,273.833 298.5,274.167 298.5,274.5C 294.867,274.557 294.7,273.557 298,271.5C 298.464,272.094 298.631,272.761 298.5,273.5 Z"/></g>
<g><path style="opacity:1" fill="#f3ddc8" d="M 250.5,269.5 C 251.141,270.482 251.807,271.482 252.5,272.5C 251.675,273.386 250.675,273.719 249.5,273.5C 249.421,274.93 249.754,276.264 250.5,277.5C 249.311,278.429 247.978,278.762 246.5,278.5C 246.534,274.777 247.867,271.777 250.5,269.5 Z"/></g>
<g><path style="opacity:1" fill="#d17949" d="M 299.5,269.5 C 299.768,271.099 299.434,272.432 298.5,273.5C 298.631,272.761 298.464,272.094 298,271.5C 294.7,273.557 294.867,274.557 298.5,274.5C 298.833,274.5 299.167,274.5 299.5,274.5C 299.158,275.338 298.492,275.672 297.5,275.5C 296.833,275.5 296.167,275.5 295.5,275.5C 294.5,274.833 293.5,274.167 292.5,273.5C 292.932,272.29 293.599,271.29 294.5,270.5C 294.56,271.043 294.893,271.376 295.5,271.5C 296.622,270.37 297.956,269.703 299.5,269.5 Z"/></g>
<g><path style="opacity:1" fill="#d37f4b" d="M 303.5,273.5 C 303.369,274.239 303.536,274.906 304,275.5C 304.654,274.304 305.154,274.304 305.5,275.5C 304.705,278.144 304.038,280.811 303.5,283.5C 302.833,282.833 302.167,282.167 301.5,281.5C 301.5,281.167 301.5,280.833 301.5,280.5C 302.625,279.348 302.625,278.348 301.5,277.5C 300.761,277.631 300.094,277.464 299.5,277C 300.705,275.624 302.038,274.458 303.5,273.5 Z"/></g>
<g><path style="opacity:1" fill="#f2d9c3" d="M 292.5,273.5 C 293.5,274.167 294.5,274.833 295.5,275.5C 295.719,276.675 295.386,277.675 294.5,278.5C 292.783,277.332 292.116,275.665 292.5,273.5 Z"/></g>
<g><path style="opacity:1" fill="#d08147" d="M 310.5,272.5 C 310.5,273.833 311.167,274.5 312.5,274.5C 312.833,274.5 313.167,274.5 313.5,274.5C 313.5,275.167 313.167,275.5 312.5,275.5C 311.833,275.5 311.167,275.5 310.5,275.5C 309.28,277.05 309.28,278.716 310.5,280.5C 309.167,281.5 309.167,282.5 310.5,283.5C 309.89,284.391 309.557,285.391 309.5,286.5C 308.5,286.167 307.833,285.5 307.5,284.5C 308.833,282.167 308.833,279.833 307.5,277.5C 308.263,275.632 309.263,273.965 310.5,272.5 Z"/></g>
<g><path style="opacity:1" fill="#f7efe0" d="M 310.5,275.5 C 311.494,277.334 311.494,279.001 310.5,280.5C 309.28,278.716 309.28,277.05 310.5,275.5 Z"/></g>
<g><path style="opacity:1" fill="#f8f0e2" d="M 188.5,275.5 C 189.72,277.05 189.72,278.716 188.5,280.5C 187.506,279.001 187.506,277.334 188.5,275.5 Z"/></g>
<g><path style="opacity:1" fill="#cf7c43" d="M 188.5,272.5 C 189.737,273.965 190.737,275.632 191.5,277.5C 192.219,279.764 192.552,282.097 192.5,284.5C 192.158,285.338 191.492,285.672 190.5,285.5C 189.5,285.167 188.833,284.5 188.5,283.5C 189.833,282.5 189.833,281.5 188.5,280.5C 189.72,278.716 189.72,277.05 188.5,275.5C 187.833,275.5 187.167,275.5 186.5,275.5C 185.833,275.5 185.5,275.167 185.5,274.5C 185.833,274.5 186.167,274.5 186.5,274.5C 187.833,274.5 188.5,273.833 188.5,272.5 Z"/></g>
<g><path style="opacity:1" fill="#d9976a" d="M 264.5,276.5 C 267.833,277.833 271.167,277.833 274.5,276.5C 275.043,276.56 275.376,276.893 275.5,277.5C 271.5,278.833 267.5,278.833 263.5,277.5C 263.624,276.893 263.957,276.56 264.5,276.5 Z"/></g>
<g><path style="opacity:1" fill="#bf2a0a" d="M 310.5,275.5 C 311.167,275.5 311.833,275.5 312.5,275.5C 314.045,278.846 313.378,281.512 310.5,283.5C 309.167,282.5 309.167,281.5 310.5,280.5C 311.494,279.001 311.494,277.334 310.5,275.5 Z"/></g>
<g><path style="opacity:1" fill="#c13210" d="M 186.5,275.5 C 187.167,275.5 187.833,275.5 188.5,275.5C 187.506,277.334 187.506,279.001 188.5,280.5C 189.833,281.5 189.833,282.5 188.5,283.5C 187.448,283.649 186.448,283.483 185.5,283C 186.285,280.958 185.952,278.958 184.5,277C 185.416,276.722 186.082,276.222 186.5,275.5 Z"/></g>
<g><path style="opacity:1" fill="#edceaf" d="M 198.5,272.5 C 199.3,274.682 200.8,276.349 203,277.5C 203.949,275.907 205.115,274.574 206.5,273.5C 207.157,276.841 205.824,278.841 202.5,279.5C 203.711,280.72 203.711,281.887 202.5,283C 204.002,283.583 205.335,284.416 206.5,285.5C 205.635,286.583 204.635,286.749 203.5,286C 202.627,284.955 201.627,284.122 200.5,283.5C 200.415,281.071 199.415,279.071 197.5,277.5C 198.282,275.671 197.616,274.171 195.5,273C 195.982,271.992 196.148,270.825 196,269.5C 197.045,270.373 197.878,271.373 198.5,272.5 Z"/></g>
<g><path style="opacity:1" fill="#dba572" d="M 197.5,280.5 C 196.833,281.5 196.167,282.5 195.5,283.5C 194.816,280.454 194.316,277.454 194,274.5C 195.431,276.364 196.597,278.364 197.5,280.5 Z"/></g>
<g><path style="opacity:1" fill="#f6ebda" d="M 206.5,278.5 C 207.782,279.708 207.782,281.042 206.5,282.5C 205.708,281.3 205.708,279.967 206.5,278.5 Z"/></g>
<g><path style="opacity:1" fill="#fefefe" d="M 282.5,283.5 C 260.5,284.833 238.5,284.833 216.5,283.5C 217.627,282.878 218.627,282.045 219.5,281C 239.5,280.333 259.5,280.333 279.5,281C 280.373,282.045 281.373,282.878 282.5,283.5 Z"/></g>
<g><path style="opacity:1" fill="#f8eddd" d="M 291.5,278.5 C 293.476,279.427 293.809,280.76 292.5,282.5C 291.571,281.311 291.238,279.978 291.5,278.5 Z"/></g>
<g><path style="opacity:1" fill="#f2dec8" d="M 191.5,277.5 C 192.219,279.764 192.552,282.097 192.5,284.5C 191.275,283.848 190.608,282.681 190.5,281C 190.514,279.615 190.848,278.449 191.5,277.5 Z"/></g>
<g><path style="opacity:1" fill="#efd2b9" d="M 307.5,277.5 C 308.833,279.833 308.833,282.167 307.5,284.5C 306.377,282.312 306.377,279.979 307.5,277.5 Z"/></g>
<g><path style="opacity:1" fill="#efd4b9" d="M 303.5,273.5 C 302.038,274.458 300.705,275.624 299.5,277C 300.094,277.464 300.761,277.631 301.5,277.5C 298.603,280.143 296.603,282.976 295.5,286C 292.881,285.917 290.214,285.75 287.5,285.5C 287.351,284.448 287.517,283.448 288,282.5C 288.974,284.878 289.641,284.544 290,281.5C 291.426,284.861 293.593,285.361 296.5,283C 295.901,280.504 296.235,278.004 297.5,275.5C 298.492,275.672 299.158,275.338 299.5,274.5C 300.208,272.622 301.374,270.955 303,269.5C 302.645,270.959 302.811,272.293 303.5,273.5 Z"/></g>
<g><path style="opacity:1" fill="#f7eadc" d="M 194.5,283.5 C 194.833,283.5 195.167,283.5 195.5,283.5C 196.038,285.117 196.371,286.784 196.5,288.5C 194.744,287.448 194.077,285.781 194.5,283.5 Z"/></g>
<g><path style="opacity:1" fill="#f0c7c7" d="M 216.5,283.5 C 238.5,284.833 260.5,284.833 282.5,283.5C 283.289,283.783 283.956,284.283 284.5,285C 261.167,285.667 237.833,285.667 214.5,285C 215.044,284.283 215.711,283.783 216.5,283.5 Z"/></g>
<g><path style="opacity:1" fill="#eac3a3" d="M 197.5,280.5 C 198.728,281.306 199.728,282.306 200.5,283.5C 200.66,285.199 200.494,286.866 200,288.5C 198.731,286.007 197.898,283.34 197.5,280.5 Z"/></g>
<g><path style="opacity:1" fill="#eccead" d="M 301.5,280.5 C 301.5,280.833 301.5,281.167 301.5,281.5C 300.815,283.414 300.315,285.414 300,287.5C 299.111,288.888 298.611,288.722 298.5,287C 298.838,284.391 299.838,282.224 301.5,280.5 Z"/></g>
<g><path style="opacity:1" fill="#eac7a4" d="M 214.5,287.5 C 212.5,287.5 210.5,287.5 208.5,287.5C 208.918,286.778 209.584,286.278 210.5,286C 207.015,285.507 206.515,284.007 209,281.5C 209.317,283.301 209.984,283.634 211,282.5C 211.49,283.793 211.657,285.127 211.5,286.5C 212.791,286.263 213.791,286.596 214.5,287.5 Z"/></g>
<g><path style="opacity:1" fill="#fcf8f4" d="M 208.5,287.5 C 210.5,287.5 212.5,287.5 214.5,287.5C 217.206,287.688 219.539,288.688 221.5,290.5C 219.582,291.011 217.415,291.011 215,290.5C 213.69,291.13 212.856,292.13 212.5,293.5C 208.73,296.53 204.396,298.197 199.5,298.5C 197.5,298.5 195.5,298.5 193.5,298.5C 190.573,297.243 188.239,295.243 186.5,292.5C 189.187,292.664 191.854,292.497 194.5,292C 199.111,290.188 203.777,288.688 208.5,287.5 Z"/></g>
<g><path style="opacity:1" fill="#fcf7f2" d="M 312.5,292.5 C 310.833,294.833 308.833,296.833 306.5,298.5C 299.132,299.325 292.465,297.658 286.5,293.5C 286.144,292.13 285.31,291.13 284,290.5C 281.756,290.905 279.589,291.238 277.5,291.5C 279.634,288.054 282.801,286.387 287,286.5C 292.763,287.532 298.263,289.365 303.5,292C 306.482,292.498 309.482,292.665 312.5,292.5 Z"/></g>
<g><path style="opacity:1" fill="#f4e4d0" d="M 193.5,288.5 C 193.5,289.167 193.833,289.5 194.5,289.5C 192.294,290.972 189.961,291.305 187.5,290.5C 188.598,289.603 188.598,288.77 187.5,288C 189.488,287.82 191.488,287.986 193.5,288.5 Z"/></g>
<g><path style="opacity:1" fill="#d79362" d="M 194.5,283.5 C 194.077,285.781 194.744,287.448 196.5,288.5C 196.158,289.338 195.492,289.672 194.5,289.5C 193.833,289.5 193.5,289.167 193.5,288.5C 193.149,285.959 193.482,284.292 194.5,283.5 Z"/></g>
<g><path style="opacity:1" fill="#efd3b8" d="M 312.5,289.5 C 312.5,290.167 312.167,290.5 311.5,290.5C 305.004,292.25 302.337,289.917 303.5,283.5C 304.117,283.389 304.617,283.056 305,282.5C 305.495,284.473 305.662,286.473 305.5,288.5C 307.06,288.481 308.56,288.148 310,287.5C 310.355,288.509 311.188,289.176 312.5,289.5 Z"/></g>
<g><path style="opacity:1" fill="#f5d8d7" d="M 240.5,288.5 C 242.273,289.314 242.773,290.648 242,292.5C 241.209,291.255 240.709,289.922 240.5,288.5 Z"/></g>
<g><path style="opacity:1" fill="#ecaaa9" d="M 250.5,288.5 C 251.943,289.335 252.943,290.668 253.5,292.5C 254.584,291.335 255.417,290.002 256,288.5C 257.751,290.212 258.418,292.212 258,294.5C 257.085,293.672 256.419,292.672 256,291.5C 255.517,292.448 255.351,293.448 255.5,294.5C 252.509,294.67 250.509,293.337 249.5,290.5C 249.863,289.817 250.196,289.15 250.5,288.5 Z"/></g>
<g><path style="opacity:1" fill="#eaa5a3" d="M 244.5,288.5 C 245.978,288.238 247.311,288.571 248.5,289.5C 247.296,295.679 245.962,295.345 244.5,288.5 Z"/></g>
<g><path style="opacity:1" fill="#e7ba95" d="M 221.5,290.5 C 222.167,290.5 222.5,290.833 222.5,291.5C 221.275,292.937 220.275,294.604 219.5,296.5C 218.719,295.271 218.219,293.938 218,292.5C 217.612,293.428 216.945,294.095 216,294.5C 214.862,294.011 213.695,293.678 212.5,293.5C 212.856,292.13 213.69,291.13 215,290.5C 217.415,291.011 219.582,291.011 221.5,290.5 Z"/></g>
<g><path style="opacity:1" fill="#e7b995" d="M 286.5,293.5 C 285.305,293.678 284.138,294.011 283,294.5C 282.055,294.095 281.388,293.428 281,292.5C 280.781,293.938 280.281,295.271 279.5,296.5C 278.269,295.349 278.269,294.183 279.5,293C 278.263,292.768 277.263,292.268 276.5,291.5C 276.833,291.5 277.167,291.5 277.5,291.5C 279.589,291.238 281.756,290.905 284,290.5C 285.31,291.13 286.144,292.13 286.5,293.5 Z"/></g>
<g><path style="opacity:1" fill="#c13811" d="M 222.5,291.5 C 223.625,292.348 223.625,293.348 222.5,294.5C 221.539,296.265 221.205,298.265 221.5,300.5C 221.167,300.5 220.833,300.5 220.5,300.5C 218.989,298.559 216.989,298.059 214.5,299C 215.244,300.039 216.244,300.539 217.5,300.5C 215.987,301.309 214.32,301.476 212.5,301C 213.252,301.671 213.586,302.504 213.5,303.5C 212.542,303.047 211.708,302.381 211,301.5C 210.536,302.094 210.369,302.761 210.5,303.5C 212.088,304.635 212.421,305.969 211.5,307.5C 209.556,306.811 207.556,306.311 205.5,306C 205.833,305.667 206.167,305.333 206.5,305C 203.633,304.199 200.966,304.366 198.5,305.5C 196.519,304.895 196.185,303.895 197.5,302.5C 198.873,302.657 200.207,302.49 201.5,302C 199.75,300.681 197.75,300.181 195.5,300.5C 196.833,299.833 198.167,299.167 199.5,298.5C 204.396,298.197 208.73,296.53 212.5,293.5C 213.695,293.678 214.862,294.011 216,294.5C 216.945,294.095 217.612,293.428 218,292.5C 218.219,293.938 218.719,295.271 219.5,296.5C 220.275,294.604 221.275,292.937 222.5,291.5 Z"/></g>
<g><path style="opacity:1" fill="#c33d15" d="M 276.5,291.5 C 277.263,292.268 278.263,292.768 279.5,293C 278.269,294.183 278.269,295.349 279.5,296.5C 280.281,295.271 280.781,293.938 281,292.5C 281.388,293.428 282.055,294.095 283,294.5C 284.138,294.011 285.305,293.678 286.5,293.5C 292.465,297.658 299.132,299.325 306.5,298.5C 306.573,300.027 305.906,301.027 304.5,301.5C 302.153,300.105 299.819,300.272 297.5,302C 298.793,302.49 300.127,302.657 301.5,302.5C 302.815,303.895 302.481,304.895 300.5,305.5C 296.083,304.336 291.75,305.003 287.5,307.5C 286.344,306.424 286.511,305.424 288,304.5C 290.829,305.674 291.829,304.674 291,301.5C 289.691,303.891 288.691,303.891 288,301.5C 286.691,303.891 285.691,303.891 285,301.5C 282.667,303.833 280.333,306.167 278,308.5C 277.383,307.551 277.549,306.718 278.5,306C 274.564,306.256 273.231,304.756 274.5,301.5C 275.167,301.833 275.833,302.167 276.5,302.5C 274.946,303.895 275.279,304.561 277.5,304.5C 279.646,304.366 280.646,303.699 280.5,302.5C 279.833,301.833 279.167,301.167 278.5,300.5C 278.167,300.5 277.833,300.5 277.5,300.5C 277.795,298.265 277.461,296.265 276.5,294.5C 275.375,293.348 275.375,292.348 276.5,291.5 Z"/></g>
<g><path style="opacity:1" fill="#f2e1cb" d="M 212.5,296.5 C 214.035,295.212 215.701,295.212 217.5,296.5C 215.905,297.434 214.239,297.434 212.5,296.5 Z"/></g>
<g><path style="opacity:1" fill="#f4cbcb" d="M 230.5,293.5 C 231.79,294.058 232.623,295.058 233,296.5C 234.028,298.844 234.694,301.177 235,303.5C 232.637,300.589 231.137,297.255 230.5,293.5 Z"/></g>
<g><path style="opacity:1" fill="#f4c7c6" d="M 266.5,294.5 C 267.363,293.537 268.03,293.537 268.5,294.5C 267.58,298.294 265.913,301.627 263.5,304.5C 263.167,304.333 262.833,304.167 262.5,304C 264.509,301.146 265.842,297.979 266.5,294.5 Z"/></g>
<g><path style="opacity:1" fill="#f1d6c0" d="M 222.5,294.5 C 224.062,296.901 223.729,298.901 221.5,300.5C 221.205,298.265 221.539,296.265 222.5,294.5 Z"/></g>
<g><path style="opacity:1" fill="#f8dfde" d="M 240.5,296.5 C 241.5,296.5 242.5,296.5 243.5,296.5C 243.55,298.59 242.55,299.923 240.5,300.5C 239.374,299.192 239.374,297.858 240.5,296.5 Z"/></g>
<g><path style="opacity:1" fill="#fbeded" d="M 245.5,297.5 C 246.5,297.5 247.5,297.5 248.5,297.5C 248.5,298.5 248.5,299.5 248.5,300.5C 247.5,300.5 246.5,300.5 245.5,300.5C 245.5,299.5 245.5,298.5 245.5,297.5 Z"/></g>
<g><path style="opacity:1" fill="#f8dedd" d="M 251.5,296.5 C 253.176,297.183 253.843,298.517 253.5,300.5C 252.5,300.5 251.5,300.5 250.5,300.5C 250.433,299.041 250.766,297.708 251.5,296.5 Z"/></g>
<g><path style="opacity:1" fill="#f9e4e4" d="M 255.5,296.5 C 258.932,296.248 259.932,297.581 258.5,300.5C 256.45,299.923 255.45,298.59 255.5,296.5 Z"/></g>
<g><path style="opacity:1" fill="#f2bfbe" d="M 266.5,294.5 C 264.253,298.011 262.087,301.678 260,305.5C 260.351,300.479 262.351,296.146 266,292.5C 266.464,293.094 266.631,293.761 266.5,294.5 Z"/></g>
<g><path style="opacity:1" fill="#d79064" d="M 193.5,298.5 C 195.5,298.5 197.5,298.5 199.5,298.5C 198.167,299.167 196.833,299.833 195.5,300.5C 195.167,300.5 194.833,300.5 194.5,300.5C 193.662,300.158 193.328,299.492 193.5,298.5 Z"/></g>
<g><path style="opacity:1" fill="#e8ba9d" d="M 276.5,294.5 C 277.461,296.265 277.795,298.265 277.5,300.5C 275.271,298.901 274.938,296.901 276.5,294.5 Z"/></g>
<g><path style="opacity:1" fill="#e8b796" d="M 278.5,300.5 C 280.279,299.33 281.279,297.664 281.5,295.5C 283.199,295.34 284.866,295.506 286.5,296C 285.672,296.915 284.672,297.581 283.5,298C 284.167,298.333 284.833,298.667 285.5,299C 283.406,300.352 281.073,300.852 278.5,300.5 Z"/></g>
<g><path style="opacity:1" fill="#f3dac8" d="M 220.5,300.5 C 219.5,300.5 218.5,300.5 217.5,300.5C 216.244,300.539 215.244,300.039 214.5,299C 216.989,298.059 218.989,298.559 220.5,300.5 Z"/></g>
<g><path style="opacity:1" fill="#f5e6d4" d="M 294.5,299.5 C 295.376,299.369 296.043,299.702 296.5,300.5C 293.74,304.564 293.074,304.231 294.5,299.5 Z"/></g>
<g><path style="opacity:1" fill="#f5e8d6" d="M 194.5,300.5 C 194.833,300.5 195.167,300.5 195.5,300.5C 197.75,300.181 199.75,300.681 201.5,302C 200.207,302.49 198.873,302.657 197.5,302.5C 196.29,302.068 195.29,301.401 194.5,300.5 Z"/></g>
<g><path style="opacity:1" fill="#f2dfc7" d="M 202.5,299.5 C 205.076,299.722 205.91,301.055 205,303.5C 203.519,302.529 202.685,301.196 202.5,299.5 Z"/></g>
<g><path style="opacity:1" fill="#f1bfbd" d="M 233.5,293.5 C 235.173,294.343 236.34,295.676 237,297.5C 237.743,300.265 238.41,302.931 239,305.5C 236.491,301.806 234.658,297.806 233.5,293.5 Z"/></g>
<g><path style="opacity:1" fill="#f6e7d6" d="M 304.5,301.5 C 303.391,301.557 302.391,301.89 301.5,302.5C 300.127,302.657 298.793,302.49 297.5,302C 299.819,300.272 302.153,300.105 304.5,301.5 Z"/></g>
<g><path style="opacity:1" fill="#f6e6d5" d="M 210.5,303.5 C 210.483,305.028 209.816,305.528 208.5,305C 207.034,301.189 207.7,300.689 210.5,303.5 Z"/></g>
<g><path style="opacity:1" fill="#f0b8b7" d="M 255.5,304.5 C 253.932,305.473 252.265,305.64 250.5,305C 252.148,303.323 253.815,303.156 255.5,304.5 Z"/></g>
<g><path style="opacity:1" fill="#d16d42" d="M 226.5,300.5 C 226.414,301.496 226.748,302.329 227.5,303C 226.619,303.708 225.953,304.542 225.5,305.5C 223.801,305.34 222.134,305.506 220.5,306C 221.451,306.718 221.617,307.551 221,308.5C 219,306.5 217,304.5 215,302.5C 214.536,303.094 214.369,303.761 214.5,304.5C 213.833,304.5 213.5,304.167 213.5,303.5C 213.586,302.504 213.252,301.671 212.5,301C 214.32,301.476 215.987,301.309 217.5,300.5C 218.5,300.5 219.5,300.5 220.5,300.5C 219.833,301.167 219.167,301.833 218.5,302.5C 218.354,303.699 219.354,304.366 221.5,304.5C 223.721,304.561 224.054,303.895 222.5,302.5C 224.067,301.319 224.901,299.653 225,297.5C 226.039,298.244 226.539,299.244 226.5,300.5 Z"/></g>
<g><path style="opacity:1" fill="#f4e9d4" d="M 218.5,302.5 C 219.833,302.5 221.167,302.5 222.5,302.5C 224.054,303.895 223.721,304.561 221.5,304.5C 219.354,304.366 218.354,303.699 218.5,302.5 Z"/></g>
<g><path style="opacity:1" fill="#f9e3e2" d="M 244.5,304.5 C 245.849,303.203 247.182,303.37 248.5,305C 247.072,305.579 245.738,305.412 244.5,304.5 Z"/></g>
<g><path style="opacity:1" fill="#ecacab" d="M 255.5,304.5 C 256.458,304.047 257.292,303.381 258,302.5C 258.329,305.021 257.496,305.688 255.5,304.5 Z"/></g>
<g><path style="opacity:1" fill="#edceb2" d="M 225.5,305.5 C 223,308.832 220,311.666 216.5,314C 218.727,314.941 220.727,316.108 222.5,317.5C 219.646,317.076 216.979,316.076 214.5,314.5C 213.614,315.325 213.281,316.325 213.5,317.5C 209.429,315.287 205.429,312.787 201.5,310C 205.769,310.986 210.102,312.153 214.5,313.5C 215.308,313.192 215.975,312.692 216.5,312C 215.167,311.667 213.833,311.333 212.5,311C 217.976,309.795 218.643,307.628 214.5,304.5C 214.369,303.761 214.536,303.094 215,302.5C 217,304.5 219,306.5 221,308.5C 221.617,307.551 221.451,306.718 220.5,306C 222.134,305.506 223.801,305.34 225.5,305.5 Z"/></g>
<g><path style="opacity:1" fill="#fcf2f0" d="M 228.5,318.5 C 230.484,318.617 232.15,317.95 233.5,316.5C 236.126,317.292 238.792,317.959 241.5,318.5C 246.68,318.484 252.014,318.317 257.5,318C 262.907,317.43 267.907,315.93 272.5,313.5C 274.028,313.483 274.528,312.816 274,311.5C 271.473,307.746 268.64,307.079 265.5,309.5C 265.629,311.216 265.962,312.883 266.5,314.5C 265.2,313.892 263.867,313.225 262.5,312.5C 259.45,312.97 259.117,313.803 261.5,315C 261,315.167 260.5,315.333 260,315.5C 258.547,313.569 256.88,311.902 255,310.5C 254.5,310.833 254,311.167 253.5,311.5C 254.5,312.167 255.5,312.833 256.5,313.5C 255.086,314.465 254.253,315.465 254,316.5C 250.599,316.034 246.933,316.034 243,316.5C 241.983,313.972 240.816,313.972 239.5,316.5C 238.205,315.902 236.872,315.402 235.5,315C 237.014,313.561 237.347,312.061 236.5,310.5C 235.614,311.325 235.281,312.325 235.5,313.5C 233.641,313.461 232.308,314.294 231.5,316C 225.596,317.142 224.596,315.808 228.5,312C 224.655,311.692 223.321,313.192 224.5,316.5C 224.158,317.338 223.492,317.672 222.5,317.5C 220.727,316.108 218.727,314.941 216.5,314C 220,311.666 223,308.832 225.5,305.5C 230.601,306.143 235.601,307.309 240.5,309C 246.016,309.817 251.35,309.651 256.5,308.5C 257.391,307.89 258.391,307.557 259.5,307.5C 261.401,307.433 263.234,307.767 265,308.5C 267.047,306.644 269.38,305.311 272,304.5C 275.15,307.979 278.65,311.146 282.5,314C 264.91,321.963 246.91,323.463 228.5,318.5 Z"/></g>
<g><path style="opacity:1" fill="#e7c9a3" d="M 226.5,300.5 C 228.026,301.105 229.026,302.271 229.5,304C 238.072,307.94 247.072,309.44 256.5,308.5C 251.35,309.651 246.016,309.817 240.5,309C 235.601,307.309 230.601,306.143 225.5,305.5C 225.953,304.542 226.619,303.708 227.5,303C 226.748,302.329 226.414,301.496 226.5,300.5 Z"/></g>
<g><path style="opacity:1" fill="#ecc8a9" d="M 213.5,303.5 C 213.5,304.167 213.833,304.5 214.5,304.5C 214.837,307.83 213.337,309.496 210,309.5C 205.777,309.132 201.944,307.798 198.5,305.5C 200.966,304.366 203.633,304.199 206.5,305C 206.167,305.333 205.833,305.667 205.5,306C 207.556,306.311 209.556,306.811 211.5,307.5C 212.421,305.969 212.088,304.635 210.5,303.5C 210.369,302.761 210.536,302.094 211,301.5C 211.708,302.381 212.542,303.047 213.5,303.5 Z"/></g>
<g><path style="opacity:1" fill="#c93030" d="M 259.5,309.5 C 261.337,309.639 261.67,310.306 260.5,311.5C 259.702,311.043 259.369,310.376 259.5,309.5 Z"/></g>
<g><path style="opacity:1" fill="#e07f74" d="M 230.5,311.5 C 231.386,310.224 232.386,310.224 233.5,311.5C 232.575,312.562 231.575,312.562 230.5,311.5 Z"/></g>
<g><path style="opacity:1" fill="#d8625a" d="M 272.5,313.5 C 271.883,313.389 271.383,313.056 271,312.5C 269.67,313.582 268.17,314.249 266.5,314.5C 265.962,312.883 265.629,311.216 265.5,309.5C 268.64,307.079 271.473,307.746 274,311.5C 274.528,312.816 274.028,313.483 272.5,313.5 Z"/></g>
<g><path style="opacity:1" fill="#fcf1ef" d="M 222.5,317.5 C 225.345,319.224 228.345,320.558 231.5,321.5C 229.265,321.205 227.265,321.539 225.5,322.5C 225.167,322.5 224.833,322.5 224.5,322.5C 220.592,321.417 216.926,319.751 213.5,317.5C 213.281,316.325 213.614,315.325 214.5,314.5C 216.979,316.076 219.646,317.076 222.5,317.5 Z"/></g>
<g><path style="opacity:1" fill="#faede7" d="M 272.5,325.5 C 270.833,324.833 269.167,324.167 267.5,323.5C 269.604,323.799 271.604,323.466 273.5,322.5C 271.257,321.526 268.924,321.192 266.5,321.5C 270.687,319.936 275.02,318.436 279.5,317C 281.544,316.502 282.878,315.335 283.5,313.5C 288.261,312.31 292.928,311.143 297.5,310C 293.856,312.656 289.856,314.489 285.5,315.5C 285.719,316.675 285.386,317.675 284.5,318.5C 281.074,319.711 277.741,321.044 274.5,322.5C 276.217,325.815 275.55,326.815 272.5,325.5 Z"/></g>
<g><path style="opacity:1" fill="#ca352c" d="M 266.5,314.5 C 268.17,314.249 269.67,313.582 271,312.5C 271.383,313.056 271.883,313.389 272.5,313.5C 267.907,315.93 262.907,317.43 257.5,318C 252.014,318.317 246.68,318.484 241.5,318.5C 238.792,317.959 236.126,317.292 233.5,316.5C 232.15,317.95 230.484,318.617 228.5,318.5C 227.167,317.833 225.833,317.167 224.5,316.5C 223.321,313.192 224.655,311.692 228.5,312C 224.596,315.808 225.596,317.142 231.5,316C 232.308,314.294 233.641,313.461 235.5,313.5C 235.281,312.325 235.614,311.325 236.5,310.5C 237.347,312.061 237.014,313.561 235.5,315C 236.872,315.402 238.205,315.902 239.5,316.5C 240.816,313.972 241.983,313.972 243,316.5C 246.933,316.034 250.599,316.034 254,316.5C 254.253,315.465 255.086,314.465 256.5,313.5C 255.5,312.833 254.5,312.167 253.5,311.5C 254,311.167 254.5,310.833 255,310.5C 256.88,311.902 258.547,313.569 260,315.5C 260.5,315.333 261,315.167 261.5,315C 259.117,313.803 259.45,312.97 262.5,312.5C 263.867,313.225 265.2,313.892 266.5,314.5 Z"/></g>
<g><path style="opacity:1" fill="#ebc8aa" d="M 274.5,301.5 C 273.231,304.756 274.564,306.256 278.5,306C 277.549,306.718 277.383,307.551 278,308.5C 280.333,306.167 282.667,303.833 285,301.5C 285.691,303.891 286.691,303.891 288,301.5C 288.691,303.891 289.691,303.891 291,301.5C 291.829,304.674 290.829,305.674 288,304.5C 286.511,305.424 286.344,306.424 287.5,307.5C 291.75,305.003 296.083,304.336 300.5,305.5C 294.981,308.816 288.981,310.983 282.5,312C 283.056,312.383 283.389,312.883 283.5,313.5C 282.878,315.335 281.544,316.502 279.5,317C 275.02,318.436 270.687,319.936 266.5,321.5C 263.722,321.022 261.722,322.022 260.5,324.5C 262.095,325.434 263.761,325.434 265.5,324.5C 266.167,324.5 266.5,324.833 266.5,325.5C 262.583,327.49 259.583,326.657 257.5,323C 252.167,322.333 246.833,322.333 241.5,323C 240.663,324.011 240.33,325.178 240.5,326.5C 234.794,325.602 229.127,325.602 223.5,326.5C 223.167,326.167 222.833,325.833 222.5,325.5C 223.193,324.482 223.859,323.482 224.5,322.5C 224.833,322.5 225.167,322.5 225.5,322.5C 229.215,323.437 233.048,324.437 237,325.5C 238.726,324.352 238.559,323.185 236.5,322C 234.866,321.506 233.199,321.34 231.5,321.5C 228.345,320.558 225.345,319.224 222.5,317.5C 223.492,317.672 224.158,317.338 224.5,316.5C 225.833,317.167 227.167,317.833 228.5,318.5C 246.91,323.463 264.91,321.963 282.5,314C 278.65,311.146 275.15,307.979 272,304.5C 269.38,305.311 267.047,306.644 265,308.5C 263.234,307.767 261.401,307.433 259.5,307.5C 262.802,306.392 266.135,305.059 269.5,303.5C 270.386,302.675 270.719,301.675 270.5,300.5C 271.5,300.5 272.5,300.5 273.5,300.5C 274.045,296.828 274.378,297.162 274.5,301.5 Z"/></g>
<g><path style="opacity:1" fill="#bd1a02" d="M 283.5,305.5 C 285.377,306.829 285.544,308.162 284,309.5C 280.985,308.641 280.819,307.308 283.5,305.5 Z"/></g>
<g><path style="opacity:1" fill="#f4ead6" d="M 276.5,302.5 C 277.833,302.5 279.167,302.5 280.5,302.5C 280.646,303.699 279.646,304.366 277.5,304.5C 275.279,304.561 274.946,303.895 276.5,302.5 Z"/></g>
<g><path style="opacity:1" fill="#c63226" d="M 266.5,321.5 C 268.924,321.192 271.257,321.526 273.5,322.5C 271.604,323.466 269.604,323.799 267.5,323.5C 266.508,323.328 265.842,323.662 265.5,324.5C 263.761,325.434 262.095,325.434 260.5,324.5C 261.722,322.022 263.722,321.022 266.5,321.5 Z"/></g>
<g><path style="opacity:1" fill="#c3251d" d="M 231.5,321.5 C 233.199,321.34 234.866,321.506 236.5,322C 238.559,323.185 238.726,324.352 237,325.5C 233.048,324.437 229.215,323.437 225.5,322.5C 227.265,321.539 229.265,321.205 231.5,321.5 Z"/></g>
<g><path style="opacity:1" fill="#df7e7d" d="M 265.5,324.5 C 265.842,323.662 266.508,323.328 267.5,323.5C 269.167,324.167 270.833,324.833 272.5,325.5C 270.5,325.5 268.5,325.5 266.5,325.5C 266.5,324.833 266.167,324.5 265.5,324.5 Z"/></g>
</svg>
