<?xml version="1.0" encoding="UTF-8"?>
<!DOCTYPE svg PUBLIC "-//W3C//DTD SVG 1.1//EN" "http://www.w3.org/Graphics/SVG/1.1/DTD/svg11.dtd">
<svg xmlns="http://www.w3.org/2000/svg" version="1.1" width="500px" height="500px" style="shape-rendering:geometricPrecision; text-rendering:geometricPrecision; image-rendering:optimizeQuality; fill-rule:evenodd; clip-rule:evenodd" xmlns:xlink="http://www.w3.org/1999/xlink">
<g><path style="opacity:0.993" fill="#006233" d="M 225.5,-0.5 C 233.5,-0.5 241.5,-0.5 249.5,-0.5C 249.5,41.1667 249.5,82.8333 249.5,124.5C 197.761,126.766 159.927,150.766 136,196.5C 113.497,253.997 124.664,303.83 169.5,346C 192.8,364.713 219.467,374.213 249.5,374.5C 249.5,416.167 249.5,457.833 249.5,499.5C 241.167,499.5 232.833,499.5 224.5,499.5C 132.596,487.072 65.4294,439.739 23,357.5C 10.7506,330.604 2.91724,302.604 -0.5,273.5C -0.5,257.5 -0.5,241.5 -0.5,225.5C 11.4543,135.075 57.4543,68.242 137.5,25C 165.514,11.5012 194.847,3.00119 225.5,-0.5 Z"/></g>
<g><path style="opacity:0.995" fill="#fefefe" d="M 249.5,-0.5 C 257.5,-0.5 265.5,-0.5 273.5,-0.5C 362.269,10.9489 428.436,55.6156 472,133.5C 486.559,162.333 495.726,192.666 499.5,224.5C 499.5,241.167 499.5,257.833 499.5,274.5C 487.764,361.841 443.764,427.341 367.5,471C 338.093,486.083 307.093,495.583 274.5,499.5C 266.167,499.5 257.833,499.5 249.5,499.5C 249.5,457.833 249.5,416.167 249.5,374.5C 296.186,372.83 332.186,352.497 357.5,313.5C 333.583,340.004 303.25,351.837 266.5,349C 260.59,347.926 254.923,346.426 249.5,344.5C 249.5,325.167 249.5,305.833 249.5,286.5C 263.544,281.541 277.711,276.874 292,272.5C 301.359,284.198 310.359,296.198 319,308.5C 319.333,293.5 319.667,278.5 320,263.5C 333.848,258.939 347.682,254.273 361.5,249.5C 347.682,244.727 333.848,240.061 320,235.5C 319.667,220.5 319.333,205.5 319,190.5C 310.5,202.333 302,214.167 293.5,226C 279.109,222.203 264.775,218.203 250.5,214C 259.062,225.719 267.395,237.553 275.5,249.5C 267.315,261.881 258.648,273.881 249.5,285.5C 249.5,241.833 249.5,198.167 249.5,154.5C 284.215,144.448 315.882,150.614 344.5,173C 347.678,176.733 351.011,179.566 354.5,181.5C 329.187,144.894 294.187,125.894 249.5,124.5C 249.5,82.8333 249.5,41.1667 249.5,-0.5 Z"/></g>
<g><path style="opacity:1" fill="#d11234" d="M 249.5,124.5 C 294.187,125.894 329.187,144.894 354.5,181.5C 351.011,179.566 347.678,176.733 344.5,173C 315.882,150.614 284.215,144.448 249.5,154.5C 215.328,165.84 193.162,188.84 183,223.5C 173.649,267.457 186.482,303.29 221.5,331C 230.194,336.847 239.528,341.347 249.5,344.5C 254.923,346.426 260.59,347.926 266.5,349C 303.25,351.837 333.583,340.004 357.5,313.5C 332.186,352.497 296.186,372.83 249.5,374.5C 219.467,374.213 192.8,364.713 169.5,346C 124.664,303.83 113.497,253.997 136,196.5C 159.927,150.766 197.761,126.766 249.5,124.5 Z"/></g>
<g><path style="opacity:1" fill="#026233" d="M 249.5,154.5 C 249.5,198.167 249.5,241.833 249.5,285.5C 249.5,285.833 249.5,286.167 249.5,286.5C 249.5,305.833 249.5,325.167 249.5,344.5C 239.528,341.347 230.194,336.847 221.5,331C 186.482,303.29 173.649,267.457 183,223.5C 193.162,188.84 215.328,165.84 249.5,154.5 Z"/></g>
<g><path style="opacity:1" fill="#d21335" d="M 249.5,286.5 C 249.5,286.167 249.5,285.833 249.5,285.5C 258.648,273.881 267.315,261.881 275.5,249.5C 267.395,237.553 259.062,225.719 250.5,214C 264.775,218.203 279.109,222.203 293.5,226C 302,214.167 310.5,202.333 319,190.5C 319.333,205.5 319.667,220.5 320,235.5C 333.848,240.061 347.682,244.727 361.5,249.5C 347.682,254.273 333.848,258.939 320,263.5C 319.667,278.5 319.333,293.5 319,308.5C 310.359,296.198 301.359,284.198 292,272.5C 277.711,276.874 263.544,281.541 249.5,286.5 Z"/></g>
</svg>
