<?xml version="1.0" encoding="UTF-8"?>
<!DOCTYPE svg PUBLIC "-//W3C//DTD SVG 1.1//EN" "http://www.w3.org/Graphics/SVG/1.1/DTD/svg11.dtd">
<svg xmlns="http://www.w3.org/2000/svg" version="1.1" width="500px" height="500px" style="shape-rendering:geometricPrecision; text-rendering:geometricPrecision; image-rendering:optimizeQuality; fill-rule:evenodd; clip-rule:evenodd" xmlns:xlink="http://www.w3.org/1999/xlink">
<g><path style="opacity:0.997" fill="#fdde00" d="M 225.5,-0.5 C 241.5,-0.5 257.5,-0.5 273.5,-0.5C 296.044,2.14637 318.044,7.4797 339.5,15.5C 339.5,171.5 339.5,327.5 339.5,483.5C 318.399,491.525 296.733,496.859 274.5,499.5C 257.833,499.5 241.167,499.5 224.5,499.5C 202.278,496.862 180.612,491.528 159.5,483.5C 159.5,327.5 159.5,171.5 159.5,15.5C 180.956,7.4797 202.956,2.14637 225.5,-0.5 Z"/></g>
<g><path style="opacity:0.993" fill="#0018a7" d="M 159.5,15.5 C 159.5,171.5 159.5,327.5 159.5,483.5C 94.571,457.406 47.7376,412.406 19,348.5C 8.87002,324.309 2.37002,299.309 -0.5,273.5C -0.5,257.5 -0.5,241.5 -0.5,225.5C 13.278,125.243 66.6114,55.2431 159.5,15.5 Z"/></g>
<g><path style="opacity:0.993" fill="#d01039" d="M 339.5,15.5 C 416.282,46.7843 466.782,102.118 491,181.5C 494.695,195.808 497.529,210.141 499.5,224.5C 499.5,241.167 499.5,257.833 499.5,274.5C 487.764,361.841 443.764,427.341 367.5,471C 358.259,475.456 348.925,479.622 339.5,483.5C 339.5,327.5 339.5,171.5 339.5,15.5 Z"/></g>
<g><path style="opacity:1" fill="#baa171" d="M 314.5,249.5 C 312.319,249.716 310.653,248.883 309.5,247C 310.572,245.716 311.905,245.383 313.5,246C 312.407,244.635 311.074,244.301 309.5,245C 301.301,254.287 301.634,263.287 310.5,272C 312.804,272.895 315.138,273.729 317.5,274.5C 312.357,274.831 311.69,276.164 315.5,278.5C 318.893,280.889 320.227,284.223 319.5,288.5C 319.92,292.374 318.92,295.707 316.5,298.5C 310.577,304.96 303.244,307.794 294.5,307C 301.336,306.748 307.002,304.081 311.5,299C 309.233,297.919 309.066,296.419 311,294.5C 312.369,289.563 311.203,285.396 307.5,282C 302.786,280.577 300.786,282.077 301.5,286.5C 302.251,285.624 302.751,284.624 303,283.5C 305.092,288.237 303.592,289.571 298.5,287.5C 297.875,284.03 298.875,281.196 301.5,279C 304.672,278.575 307.672,278.909 310.5,280C 305,276.021 300.5,276.854 297,282.5C 296.446,279.443 297.613,277.276 300.5,276C 303.54,275.68 306.54,275.68 309.5,276C 307.608,275.027 305.608,274.36 303.5,274C 305.898,273.626 308.231,273.626 310.5,274C 308.91,272.954 307.41,271.787 306,270.5C 303.721,272.163 301.387,273.83 299,275.5C 298.333,272.5 298.333,269.5 299,266.5C 299.654,267.696 300.154,267.696 300.5,266.5C 296.203,259.648 296.87,253.315 302.5,247.5C 301.47,247.446 300.303,247.112 299,246.5C 298.333,244.167 298.333,241.833 299,239.5C 300.067,238.809 301.234,238.309 302.5,238C 298.353,235.591 297.686,232.591 300.5,229C 297.612,225.99 297.945,224.657 301.5,225C 298.481,222.387 297.814,219.221 299.5,215.5C 300.167,215.833 300.833,216.167 301.5,216.5C 302.277,218.781 303.277,220.948 304.5,223C 306.586,224.827 308.586,224.827 310.5,223C 304.953,223.296 303.12,220.796 305,215.5C 306.045,214.627 306.878,213.627 307.5,212.5C 316.415,210.723 321.915,214.39 324,223.5C 325.958,232.679 322.791,239.179 314.5,243C 317.134,245.293 317.134,247.46 314.5,249.5 Z"/></g>
<g><path style="opacity:1" fill="#ab8c61" d="M 314.5,249.5 C 307.492,251.183 305.659,255.516 309,262.5C 309.833,263.5 310.667,264.5 311.5,265.5C 314.84,262.627 317.34,263.294 319,267.5C 320.25,270.077 320.584,272.743 320,275.5C 317.974,275.915 316.474,276.915 315.5,278.5C 311.69,276.164 312.357,274.831 317.5,274.5C 315.138,273.729 312.804,272.895 310.5,272C 301.634,263.287 301.301,254.287 309.5,245C 311.074,244.301 312.407,244.635 313.5,246C 311.905,245.383 310.572,245.716 309.5,247C 310.653,248.883 312.319,249.716 314.5,249.5 Z"/></g>
<g><path style="opacity:1" fill="#bfa875" d="M 305.5,209.5 C 305.615,214.328 303.448,215.661 299,213.5C 297.773,208.97 298.606,204.97 301.5,201.5C 300.645,200.707 299.811,201.04 299,202.5C 298.502,199.518 298.335,196.518 298.5,193.5C 293.489,193.666 288.489,193.499 283.5,193C 285.762,192.299 286.762,191.132 286.5,189.5C 284.664,190.919 282.664,192.086 280.5,193C 276.167,193.333 271.833,193.667 267.5,194C 277.161,194.5 286.828,194.666 296.5,194.5C 296.976,223.563 296.476,252.563 295,281.5C 290.263,288.531 283.596,291.531 275,290.5C 266.063,288.243 257.563,289.243 249.5,293.5C 246.713,291.773 243.713,290.606 240.5,290C 232.172,290.142 223.839,290.142 215.5,290C 209.887,288.718 205.72,285.551 203,280.5C 201.525,251.897 201.025,223.23 201.5,194.5C 212.172,194.667 222.839,194.5 233.5,194C 235.514,192.204 237.681,191.704 240,192.5C 240.582,189.332 241.582,188.999 243,191.5C 244.817,189.76 244.317,188.76 241.5,188.5C 232.164,194.102 222.497,194.936 212.5,191C 213.328,191.915 214.328,192.581 215.5,193C 210.511,193.499 205.511,193.666 200.5,193.5C 200.665,196.85 200.498,200.183 200,203.5C 198.003,199.976 195.503,197.642 192.5,196.5C 195.188,199.354 197.688,202.354 200,205.5C 202.041,211.618 199.875,214.952 193.5,215.5C 195.922,221.02 194.256,223.186 188.5,222C 186.87,218.938 187.87,217.271 191.5,217C 185.607,214.504 181.44,216.337 179,222.5C 176.821,230.8 179.488,236.8 187,240.5C 188.951,240.112 190.451,239.112 191.5,237.5C 191.062,236.494 190.396,236.494 189.5,237.5C 188.614,236.675 188.281,235.675 188.5,234.5C 189.833,234.5 191.167,234.5 192.5,234.5C 192.662,236.527 192.495,238.527 192,240.5C 189.527,241.12 187.027,241.786 184.5,242.5C 186.686,243.221 188.853,243.887 191,244.5C 192.633,242.547 193.799,240.38 194.5,238C 194.516,235.695 193.516,234.028 191.5,233C 194.408,232.311 197.075,231.145 199.5,229.5C 201.052,232.567 200.385,235.067 197.5,237C 201.827,241.309 201.493,244.975 196.5,248C 201.18,253.791 201.68,259.958 198,266.5C 197.346,267.696 196.846,267.696 196.5,266.5C 197.614,261.554 197.781,256.554 197,251.5C 196.252,249.668 195.252,248.001 194,246.5C 195.504,250.07 196.337,253.903 196.5,258C 196.182,268.482 190.849,274.315 180.5,275.5C 179.053,274.866 178.387,273.699 178.5,272C 178.514,267.918 180.348,265.085 184,263.5C 186.773,266.151 188.773,265.485 190,261.5C 190.667,257.833 190.667,254.167 190,250.5C 188.355,250.307 186.521,250.14 184.5,250C 182.327,248.135 181.993,245.969 183.5,243.5C 173.522,235.538 172.022,226.204 179,215.5C 182.542,211.772 186.709,210.772 191.5,212.5C 192.054,209.238 193.72,208.238 196.5,209.5C 196.833,209 197.167,208.5 197.5,208C 194.396,203.225 190.896,198.725 187,194.5C 186.333,192.167 186.333,189.833 187,187.5C 190.258,185.12 193.424,182.62 196.5,180C 201.527,179.421 206.527,179.087 211.5,179C 214.022,179.957 216.189,181.457 218,183.5C 218.63,185.903 217.797,187.737 215.5,189C 215.833,189.333 216.167,189.667 216.5,190C 220.5,190.667 224.5,190.667 228.5,190C 230.932,186.82 230.765,183.653 228,180.5C 226.028,172.83 228.861,168.997 236.5,169C 244.568,174.94 252.568,174.94 260.5,169C 266.926,167.541 270.592,170.041 271.5,176.5C 270.801,180.095 269.801,183.595 268.5,187C 268.585,188.107 268.919,189.107 269.5,190C 273.558,190.767 277.558,190.6 281.5,189.5C 281.833,189.167 282.167,188.833 282.5,188.5C 280.876,187.131 280.376,185.464 281,183.5C 283.109,181.199 285.609,179.532 288.5,178.5C 292.804,179.21 297.137,179.71 301.5,180C 305.581,182.078 309.081,184.911 312,188.5C 312.755,191.303 312.422,193.97 311,196.5C 307.065,199.762 303.898,203.596 301.5,208C 301.667,208.5 301.833,209 302,209.5C 303.292,208.209 304.458,208.209 305.5,209.5 Z"/></g>
<g><path style="opacity:1" fill="#916949" d="M 239.5,178.5 C 242.817,179.823 246.15,181.157 249.5,182.5C 252.54,181.563 255.374,180.229 258,178.5C 259.28,178.613 260.113,179.28 260.5,180.5C 257.024,181.002 253.358,182.002 249.5,183.5C 246.527,182.932 243.693,181.932 241,180.5C 238.458,181.774 237.958,181.107 239.5,178.5 Z"/></g>
<g><path style="opacity:1" fill="#997451" d="M 305.5,209.5 C 306.167,210.5 306.833,211.5 307.5,212.5C 306.878,213.627 306.045,214.627 305,215.5C 303.12,220.796 304.953,223.296 310.5,223C 308.586,224.827 306.586,224.827 304.5,223C 303.277,220.948 302.277,218.781 301.5,216.5C 300.833,216.167 300.167,215.833 299.5,215.5C 297.814,219.221 298.481,222.387 301.5,225C 297.945,224.657 297.612,225.99 300.5,229C 297.686,232.591 298.353,235.591 302.5,238C 301.234,238.309 300.067,238.809 299,239.5C 298.333,241.833 298.333,244.167 299,246.5C 300.303,247.112 301.47,247.446 302.5,247.5C 296.87,253.315 296.203,259.648 300.5,266.5C 300.154,267.696 299.654,267.696 299,266.5C 298.333,269.5 298.333,272.5 299,275.5C 301.387,273.83 303.721,272.163 306,270.5C 307.41,271.787 308.91,272.954 310.5,274C 308.231,273.626 305.898,273.626 303.5,274C 305.608,274.36 307.608,275.027 309.5,276C 306.54,275.68 303.54,275.68 300.5,276C 297.613,277.276 296.446,279.443 297,282.5C 300.5,276.854 305,276.021 310.5,280C 307.672,278.909 304.672,278.575 301.5,279C 298.875,281.196 297.875,284.03 298.5,287.5C 297.288,286.77 296.288,285.77 295.5,284.5C 289.969,289.93 283.302,292.596 275.5,292.5C 268.848,291.556 262.181,291.39 255.5,292C 253.336,292.914 251.336,294.081 249.5,295.5C 247.446,293.806 245.112,292.639 242.5,292C 235.984,291.368 229.484,291.534 223,292.5C 215.399,292.448 208.899,289.781 203.5,284.5C 201.674,288.518 198.674,290.018 194.5,289C 201.209,287.507 202.209,284.174 197.5,279C 199.409,278.552 200.576,279.385 201,281.5C 201.066,277.405 198.899,275.405 194.5,275.5C 191.724,275.805 189.224,276.805 187,278.5C 186.692,277.692 186.192,277.025 185.5,276.5C 184.482,277.193 183.482,277.859 182.5,278.5C 182.218,277.222 181.551,276.222 180.5,275.5C 190.849,274.315 196.182,268.482 196.5,258C 196.337,253.903 195.504,250.07 194,246.5C 195.252,248.001 196.252,249.668 197,251.5C 197.781,256.554 197.614,261.554 196.5,266.5C 196.846,267.696 197.346,267.696 198,266.5C 201.68,259.958 201.18,253.791 196.5,248C 201.493,244.975 201.827,241.309 197.5,237C 200.385,235.067 201.052,232.567 199.5,229.5C 197.075,231.145 194.408,232.311 191.5,233C 193.516,234.028 194.516,235.695 194.5,238C 193.799,240.38 192.633,242.547 191,244.5C 188.853,243.887 186.686,243.221 184.5,242.5C 187.027,241.786 189.527,241.12 192,240.5C 192.495,238.527 192.662,236.527 192.5,234.5C 191.167,234.5 189.833,234.5 188.5,234.5C 188.281,235.675 188.614,236.675 189.5,237.5C 190.396,236.494 191.062,236.494 191.5,237.5C 190.451,239.112 188.951,240.112 187,240.5C 179.488,236.8 176.821,230.8 179,222.5C 181.44,216.337 185.607,214.504 191.5,217C 187.87,217.271 186.87,218.938 188.5,222C 194.256,223.186 195.922,221.02 193.5,215.5C 199.875,214.952 202.041,211.618 200,205.5C 197.688,202.354 195.188,199.354 192.5,196.5C 195.503,197.642 198.003,199.976 200,203.5C 200.498,200.183 200.665,196.85 200.5,193.5C 205.511,193.666 210.511,193.499 215.5,193C 214.328,192.581 213.328,191.915 212.5,191C 222.497,194.936 232.164,194.102 241.5,188.5C 244.317,188.76 244.817,189.76 243,191.5C 241.582,188.999 240.582,189.332 240,192.5C 237.681,191.704 235.514,192.204 233.5,194C 222.839,194.5 212.172,194.667 201.5,194.5C 201.025,223.23 201.525,251.897 203,280.5C 205.72,285.551 209.887,288.718 215.5,290C 223.839,290.142 232.172,290.142 240.5,290C 243.713,290.606 246.713,291.773 249.5,293.5C 257.563,289.243 266.063,288.243 275,290.5C 283.596,291.531 290.263,288.531 295,281.5C 296.476,252.563 296.976,223.563 296.5,194.5C 286.828,194.666 277.161,194.5 267.5,194C 271.833,193.667 276.167,193.333 280.5,193C 282.664,192.086 284.664,190.919 286.5,189.5C 286.762,191.132 285.762,192.299 283.5,193C 288.489,193.499 293.489,193.666 298.5,193.5C 298.335,196.518 298.502,199.518 299,202.5C 299.811,201.04 300.645,200.707 301.5,201.5C 298.606,204.97 297.773,208.97 299,213.5C 303.448,215.661 305.615,214.328 305.5,209.5 Z"/></g>
<g><path style="opacity:1" fill="#f9d906" d="M 251.5,244.5 C 265.167,244.5 278.833,244.5 292.5,244.5C 292.667,255.505 292.5,266.505 292,277.5C 289.571,282.266 285.737,285.1 280.5,286C 270.814,285.575 261.147,285.741 251.5,286.5C 251.5,272.5 251.5,258.5 251.5,244.5 Z"/></g>
<g><path style="opacity:1" fill="#df671c" d="M 277.5,268.5 C 280.143,267.021 282.643,267.354 285,269.5C 284.888,271.178 284.388,272.845 283.5,274.5C 285.11,277.766 284.776,280.766 282.5,283.5C 282.346,282.091 282.179,280.424 282,278.5C 280.578,280.638 278.745,281.805 276.5,282C 278.889,280.203 278.889,278.369 276.5,276.5C 276.611,275.883 276.944,275.383 277.5,275C 275.884,274.385 274.551,273.385 273.5,272C 276.444,271.03 279.444,270.196 282.5,269.5C 280.955,268.548 279.288,268.215 277.5,268.5 Z"/></g>
<g><path style="opacity:1" fill="#54718e" d="M 265.5,268.5 C 265.833,268.5 266.167,268.5 266.5,268.5C 265.5,270.5 264.5,272.5 263.5,274.5C 261.323,275.504 260.989,274.838 262.5,272.5C 263.512,271.128 264.512,269.795 265.5,268.5 Z"/></g>
<g><path style="opacity:1" fill="#d6381e" d="M 266.5,268.5 C 270.167,268.5 273.833,268.5 277.5,268.5C 279.288,268.215 280.955,268.548 282.5,269.5C 279.444,270.196 276.444,271.03 273.5,272C 274.551,273.385 275.884,274.385 277.5,275C 276.944,275.383 276.611,275.883 276.5,276.5C 274.565,277.15 272.565,277.483 270.5,277.5C 270.949,279.977 270.283,281.977 268.5,283.5C 268.254,281.78 268.254,279.78 268.5,277.5C 266.058,277.119 265.391,277.786 266.5,279.5C 265.998,280.521 265.332,280.688 264.5,280C 263.956,278.041 263.623,276.208 263.5,274.5C 264.5,272.5 265.5,270.5 266.5,268.5 Z"/></g>
<g><path style="opacity:1" fill="#d34c28" d="M 265.5,268.5 C 264.512,269.795 263.512,271.128 262.5,272.5C 260.577,272.205 258.91,271.372 257.5,270C 259.049,268.786 260.215,267.286 261,265.5C 262,266.833 263,266.833 264,265.5C 264.513,266.527 265.013,267.527 265.5,268.5 Z"/></g>
<g><path style="opacity:1" fill="#5a7689" d="M 265.5,250.5 C 265.833,250.5 266.167,250.5 266.5,250.5C 265.5,252.5 264.5,254.5 263.5,256.5C 261.217,257.076 260.883,256.076 262.5,253.5C 263.728,252.694 264.728,251.694 265.5,250.5 Z"/></g>
<g><path style="opacity:1" fill="#e16b19" d="M 284.5,250.5 C 285.097,250.735 285.43,251.235 285.5,252C 283.363,254.25 283.029,256.75 284.5,259.5C 284.14,261.608 283.473,263.608 282.5,265.5C 282.331,263.883 281.997,262.216 281.5,260.5C 280.914,260.709 280.414,261.043 280,261.5C 278.908,259.883 277.408,258.883 275.5,258.5C 276.091,257.849 276.757,257.182 277.5,256.5C 276.092,255.757 274.759,254.923 273.5,254C 273.833,253.667 274.167,253.333 274.5,253C 277.5,252.667 280.5,252.333 283.5,252C 284.056,251.617 284.389,251.117 284.5,250.5 Z"/></g>
<g><path style="opacity:1" fill="#d14729" d="M 265.5,250.5 C 264.728,251.694 263.728,252.694 262.5,253.5C 260.571,253.769 258.905,253.269 257.5,252C 259.049,250.786 260.215,249.286 261,247.5C 262.395,248.815 263.395,248.481 264,246.5C 264.5,247.667 265.333,248.5 266.5,249C 265.944,249.383 265.611,249.883 265.5,250.5 Z"/></g>
<g><path style="opacity:1" fill="#d5361e" d="M 284.5,250.5 C 284.389,251.117 284.056,251.617 283.5,252C 280.5,252.333 277.5,252.667 274.5,253C 274.167,253.333 273.833,253.667 273.5,254C 274.759,254.923 276.092,255.757 277.5,256.5C 276.757,257.182 276.091,257.849 275.5,258.5C 273.549,258.773 272.049,258.107 271,256.5C 270.667,259.167 270.333,261.833 270,264.5C 269.586,264.957 269.086,265.291 268.5,265.5C 268.501,262.766 268.334,259.766 268,256.5C 267.355,257.646 266.522,258.646 265.5,259.5C 266.59,260.609 266.59,261.609 265.5,262.5C 263.633,260.607 262.966,258.607 263.5,256.5C 264.5,254.5 265.5,252.5 266.5,250.5C 272.594,250.059 278.594,250.059 284.5,250.5 Z"/></g>
<g><path style="opacity:1" fill="#fee100" d="M 246.5,245.5 C 246.5,259.167 246.5,272.833 246.5,286.5C 245.5,286.5 244.5,286.5 243.5,286.5C 243.5,272.833 243.5,259.167 243.5,245.5C 244.5,245.5 245.5,245.5 246.5,245.5 Z"/></g>
<g><path style="opacity:1" fill="#ec9a0c" d="M 242.5,244.5 C 244.099,244.232 245.432,244.566 246.5,245.5C 245.5,245.5 244.5,245.5 243.5,245.5C 243.5,259.167 243.5,272.833 243.5,286.5C 242.833,286.5 242.5,286.167 242.5,285.5C 242.5,271.833 242.5,258.167 242.5,244.5 Z"/></g>
<g><path style="opacity:1" fill="#d2251f" d="M 238.5,244.5 C 239.833,244.5 241.167,244.5 242.5,244.5C 242.5,258.167 242.5,271.833 242.5,285.5C 241.167,285.5 239.833,285.5 238.5,285.5C 238.5,271.833 238.5,258.167 238.5,244.5 Z"/></g>
<g><path style="opacity:1" fill="#eb980c" d="M 233.5,244.5 C 235.167,244.5 236.833,244.5 238.5,244.5C 238.5,258.167 238.5,271.833 238.5,285.5C 236.833,285.5 235.167,285.5 233.5,285.5C 233.5,271.833 233.5,258.167 233.5,244.5 Z"/></g>
<g><path style="opacity:1" fill="#fee700" d="M 234.5,245.5 C 235.5,245.5 236.5,245.5 237.5,245.5C 237.5,258.5 237.5,271.5 237.5,284.5C 236.5,284.5 235.5,284.5 234.5,284.5C 234.5,271.5 234.5,258.5 234.5,245.5 Z"/></g>
<g><path style="opacity:1" fill="#d6381d" d="M 228.5,244.5 C 230.167,244.5 231.833,244.5 233.5,244.5C 233.5,258.167 233.5,271.833 233.5,285.5C 231.833,285.5 230.167,285.5 228.5,285.5C 228.5,271.833 228.5,258.167 228.5,244.5 Z"/></g>
<g><path style="opacity:1" fill="#fbdc02" d="M 224.5,244.5 C 225.833,244.5 227.167,244.5 228.5,244.5C 228.5,258.167 228.5,271.833 228.5,285.5C 227.432,286.434 226.099,286.768 224.5,286.5C 224.5,272.5 224.5,258.5 224.5,244.5 Z"/></g>
<g><path style="opacity:1" fill="#fcdd01" d="M 215.5,244.5 C 216.833,244.5 218.167,244.5 219.5,244.5C 219.5,258.5 219.5,272.5 219.5,286.5C 218.167,286.167 216.833,285.833 215.5,285.5C 215.5,271.833 215.5,258.167 215.5,244.5 Z"/></g>
<g><path style="opacity:1" fill="#d5331d" d="M 210.5,244.5 C 212.167,244.5 213.833,244.5 215.5,244.5C 215.5,258.167 215.5,271.833 215.5,285.5C 213.326,285.25 211.659,284.25 210.5,282.5C 210.5,270.167 210.5,257.833 210.5,245.5C 210.5,245.167 210.5,244.833 210.5,244.5 Z"/></g>
<g><path style="opacity:1" fill="#fde000" d="M 210.5,245.5 C 210.5,257.833 210.5,270.167 210.5,282.5C 207.888,280.948 206.555,278.614 206.5,275.5C 206.5,265.5 206.5,255.5 206.5,245.5C 207.833,245.5 209.167,245.5 210.5,245.5 Z"/></g>
<g><path style="opacity:1" fill="#c29e27" d="M 210.5,244.5 C 210.5,244.833 210.5,245.167 210.5,245.5C 209.167,245.5 207.833,245.5 206.5,245.5C 206.5,255.5 206.5,265.5 206.5,275.5C 205.506,265.347 205.172,255.014 205.5,244.5C 207.167,244.5 208.833,244.5 210.5,244.5 Z"/></g>
<g><path style="opacity:1" fill="#d5311d" d="M 219.5,244.5 C 221.167,244.5 222.833,244.5 224.5,244.5C 224.5,258.5 224.5,272.5 224.5,286.5C 222.833,286.5 221.167,286.5 219.5,286.5C 219.5,272.5 219.5,258.5 219.5,244.5 Z"/></g>
<g><path style="opacity:1" fill="#ad533a" d="M 205.5,198.5 C 219.5,198.5 233.5,198.5 247.5,198.5C 247.5,212.5 247.5,226.5 247.5,240.5C 233.5,240.5 219.5,240.5 205.5,240.5C 205.5,226.5 205.5,212.5 205.5,198.5 Z"/></g>
<g><path style="opacity:1" fill="#d7301c" d="M 207.5,232.5 C 207.427,234.027 208.094,235.027 209.5,235.5C 209.351,236.552 209.517,237.552 210,238.5C 211.371,236.959 212.871,235.625 214.5,234.5C 215.026,236.23 216.026,237.564 217.5,238.5C 214.038,239.482 210.371,239.815 206.5,239.5C 206.198,236.941 206.532,234.607 207.5,232.5 Z"/></g>
<g><path style="opacity:1" fill="#d62a1d" d="M 231.5,238.5 C 227.833,239.833 224.167,239.833 220.5,238.5C 221.496,238.586 222.329,238.252 223,237.5C 224.375,235.624 225.542,233.624 226.5,231.5C 227.45,234.42 229.116,236.753 231.5,238.5 Z"/></g>
<g><path style="opacity:1" fill="#d63222" d="M 218.5,230.5 C 220.047,231.515 220.88,232.849 221,234.5C 218.856,235.844 217.023,235.51 215.5,233.5C 216.167,232.167 217.167,231.167 218.5,230.5 Z"/></g>
<g><path style="opacity:1" fill="#fde00e" d="M 217.5,227.5 C 218.404,228.209 218.737,229.209 218.5,230.5C 217.167,231.167 216.167,232.167 215.5,233.5C 214.833,233.5 214.5,233.833 214.5,234.5C 212.871,235.625 211.371,236.959 210,238.5C 209.517,237.552 209.351,236.552 209.5,235.5C 210.5,235.167 211.167,234.5 211.5,233.5C 212.5,233.167 213.167,232.5 213.5,231.5C 214.167,231.5 214.5,231.167 214.5,230.5C 215.833,229.833 216.833,228.833 217.5,227.5 Z"/></g>
<g><path style="opacity:1" fill="#d73822" d="M 213.5,231.5 C 213.167,232.5 212.5,233.167 211.5,233.5C 210.596,232.791 210.263,231.791 210.5,230.5C 211.791,230.263 212.791,230.596 213.5,231.5 Z"/></g>
<g><path style="opacity:1" fill="#fbe5e1" d="M 214.5,230.5 C 214.5,231.167 214.167,231.5 213.5,231.5C 212.791,230.596 211.791,230.263 210.5,230.5C 210.263,231.791 210.596,232.791 211.5,233.5C 211.167,234.5 210.5,235.167 209.5,235.5C 208.094,235.027 207.427,234.027 207.5,232.5C 207.5,231.833 207.5,231.167 207.5,230.5C 209.741,226.634 212.075,226.634 214.5,230.5 Z"/></g>
<g><path style="opacity:1" fill="#c4ae7b" d="M 198.5,215.5 C 201.034,218.142 201.034,220.976 198.5,224C 200.689,224.677 201.022,225.844 199.5,227.5C 196.706,229.984 193.373,231.151 189.5,231C 189.833,231.333 190.167,231.667 190.5,232C 188.36,232.973 186.693,234.473 185.5,236.5C 182.576,232.685 181.742,228.351 183,223.5C 184.791,218.902 186.291,218.736 187.5,223C 193.752,225.595 196.419,223.429 195.5,216.5C 196.791,216.737 197.791,216.404 198.5,215.5 Z"/></g>
<g><path style="opacity:1" fill="#d52e1f" d="M 235.5,238.5 C 237.421,235.924 239.255,233.257 241,230.5C 242.726,231.648 242.559,232.815 240.5,234C 242.137,235.951 243.637,235.784 245,233.5C 245.793,228.789 243.959,227.123 239.5,228.5C 238.041,230.583 236.708,232.75 235.5,235C 234.207,235.49 232.873,235.657 231.5,235.5C 234.309,229.583 236.642,223.416 238.5,217C 237.876,214.915 236.876,213.082 235.5,211.5C 237.748,209.141 239.081,206.308 239.5,203C 242.49,202.153 243.824,203.32 243.5,206.5C 242.325,206.281 241.325,206.614 240.5,207.5C 245.084,209.028 246.584,207.362 245,202.5C 241.772,199.87 238.605,200.036 235.5,203C 236.815,204.395 236.481,205.395 234.5,206C 236.612,207.217 236.279,208.383 233.5,209.5C 231.636,206.45 229.303,203.783 226.5,201.5C 221.561,205.939 217.561,211.106 214.5,217C 215.811,220.431 216.811,223.931 217.5,227.5C 216.833,228.833 215.833,229.833 214.5,230.5C 212.075,226.634 209.741,226.634 207.5,230.5C 206.506,220.347 206.172,210.014 206.5,199.5C 219.833,199.5 233.167,199.5 246.5,199.5C 246.5,212.833 246.5,226.167 246.5,239.5C 242.629,239.815 238.962,239.482 235.5,238.5 Z"/></g>
<g><path style="opacity:1" fill="#e9b10b" d="M 286.5,199.5 C 286.833,199.5 287.167,199.5 287.5,199.5C 287.5,212.833 287.5,226.167 287.5,239.5C 288.833,239.5 290.167,239.5 291.5,239.5C 291.5,226.167 291.5,212.833 291.5,199.5C 292.496,212.99 292.829,226.656 292.5,240.5C 290.5,240.5 288.5,240.5 286.5,240.5C 286.5,226.833 286.5,213.167 286.5,199.5 Z"/></g>
<g><path style="opacity:1" fill="#fee100" d="M 287.5,199.5 C 288.833,199.5 290.167,199.5 291.5,199.5C 291.5,212.833 291.5,226.167 291.5,239.5C 290.167,239.5 288.833,239.5 287.5,239.5C 287.5,226.167 287.5,212.833 287.5,199.5 Z"/></g>
<g><path style="opacity:1" fill="#fee100" d="M 263.5,199.5 C 265.167,199.5 266.833,199.5 268.5,199.5C 268.5,212.833 268.5,226.167 268.5,239.5C 266.833,239.5 265.167,239.5 263.5,239.5C 263.5,226.167 263.5,212.833 263.5,199.5 Z"/></g>
<g><path style="opacity:1" fill="#fad302" d="M 257.5,199.5 C 257.5,212.833 257.5,226.167 257.5,239.5C 255.5,239.5 253.5,239.5 251.5,239.5C 251.5,226.167 251.5,212.833 251.5,199.5C 253.5,199.5 255.5,199.5 257.5,199.5 Z"/></g>
<g><path style="opacity:1" fill="#fcd806" d="M 235.5,211.5 C 234.5,211.167 233.833,210.5 233.5,209.5C 236.279,208.383 236.612,207.217 234.5,206C 236.481,205.395 236.815,204.395 235.5,203C 238.605,200.036 241.772,199.87 245,202.5C 246.584,207.362 245.084,209.028 240.5,207.5C 241.325,206.614 242.325,206.281 243.5,206.5C 243.824,203.32 242.49,202.153 239.5,203C 239.081,206.308 237.748,209.141 235.5,211.5 Z"/></g>
<g><path style="opacity:1" fill="#fdede8" d="M 233.5,209.5 C 233.833,210.5 234.5,211.167 235.5,211.5C 236.876,213.082 237.876,214.915 238.5,217C 236.642,223.416 234.309,229.583 231.5,235.5C 232.873,235.657 234.207,235.49 235.5,235C 236.708,232.75 238.041,230.583 239.5,228.5C 243.959,227.123 245.793,228.789 245,233.5C 243.637,235.784 242.137,235.951 240.5,234C 242.559,232.815 242.726,231.648 241,230.5C 239.255,233.257 237.421,235.924 235.5,238.5C 234.167,238.5 232.833,238.5 231.5,238.5C 229.116,236.753 227.45,234.42 226.5,231.5C 225.542,233.624 224.375,235.624 223,237.5C 222.329,238.252 221.496,238.586 220.5,238.5C 219.5,238.5 218.5,238.5 217.5,238.5C 216.026,237.564 215.026,236.23 214.5,234.5C 214.5,233.833 214.833,233.5 215.5,233.5C 217.023,235.51 218.856,235.844 221,234.5C 220.88,232.849 220.047,231.515 218.5,230.5C 218.737,229.209 218.404,228.209 217.5,227.5C 216.811,223.931 215.811,220.431 214.5,217C 217.561,211.106 221.561,205.939 226.5,201.5C 229.303,203.783 231.636,206.45 233.5,209.5 Z"/></g>
<g><path style="opacity:1" fill="#fee018" d="M 227.5,206.5 C 236.222,212.275 237.722,219.609 232,228.5C 230.644,229.38 229.144,229.714 227.5,229.5C 227.5,221.833 227.5,214.167 227.5,206.5 Z"/></g>
<g><path style="opacity:1" fill="#fee021" d="M 224.5,206.5 C 225.492,213.982 225.825,221.648 225.5,229.5C 223.833,229.5 222.167,229.5 220.5,229.5C 219.674,225.187 218.34,221.02 216.5,217C 219.368,213.634 222.035,210.134 224.5,206.5 Z"/></g>
<g><path style="opacity:1" fill="#d42c1e" d="M 280.5,199.5 C 282.5,199.5 284.5,199.5 286.5,199.5C 286.5,213.167 286.5,226.833 286.5,240.5C 284.5,240.5 282.5,240.5 280.5,240.5C 280.5,240.167 280.5,239.833 280.5,239.5C 280.5,226.167 280.5,212.833 280.5,199.5 Z"/></g>
<g><path style="opacity:1" fill="#fddf00" d="M 275.5,199.5 C 277.167,199.5 278.833,199.5 280.5,199.5C 280.5,212.833 280.5,226.167 280.5,239.5C 278.833,239.5 277.167,239.5 275.5,239.5C 275.5,226.167 275.5,212.833 275.5,199.5 Z"/></g>
<g><path style="opacity:1" fill="#e58b12" d="M 274.5,199.5 C 274.833,199.5 275.167,199.5 275.5,199.5C 275.5,212.833 275.5,226.167 275.5,239.5C 277.167,239.5 278.833,239.5 280.5,239.5C 280.5,239.833 280.5,240.167 280.5,240.5C 278.5,240.5 276.5,240.5 274.5,240.5C 274.5,226.833 274.5,213.167 274.5,199.5 Z"/></g>
<g><path style="opacity:1" fill="#d5351e" d="M 268.5,199.5 C 270.5,199.5 272.5,199.5 274.5,199.5C 274.5,213.167 274.5,226.833 274.5,240.5C 272.265,240.795 270.265,240.461 268.5,239.5C 268.5,226.167 268.5,212.833 268.5,199.5 Z"/></g>
<g><path style="opacity:1" fill="#d4311e" d="M 257.5,199.5 C 259.5,199.5 261.5,199.5 263.5,199.5C 263.5,212.833 263.5,226.167 263.5,239.5C 261.5,240.833 259.5,240.833 257.5,239.5C 257.5,226.167 257.5,212.833 257.5,199.5 Z"/></g>
<g><path style="opacity:1" fill="#9f7b55" d="M 316.5,298.5 C 314.606,302.884 311.273,305.718 306.5,307C 298.972,309.062 291.306,309.895 283.5,309.5C 286.641,308.679 289.975,308.179 293.5,308C 288.5,307.667 283.5,307.333 278.5,307C 284.863,306.609 291.197,305.942 297.5,305C 283.091,303.299 269.091,304.799 255.5,309.5C 259.835,306.218 264.835,304.384 270.5,304C 281.581,303.664 292.581,302.997 303.5,302C 301.913,302.862 300.246,303.529 298.5,304C 301.93,304.459 304.93,303.459 307.5,301C 305.291,300.043 305.457,298.876 308,297.5C 311.628,292.455 311.295,287.788 307,283.5C 306.1,289.554 303.266,290.888 298.5,287.5C 303.592,289.571 305.092,288.237 303,283.5C 302.751,284.624 302.251,285.624 301.5,286.5C 300.786,282.077 302.786,280.577 307.5,282C 311.203,285.396 312.369,289.563 311,294.5C 309.066,296.419 309.233,297.919 311.5,299C 307.002,304.081 301.336,306.748 294.5,307C 303.244,307.794 310.577,304.96 316.5,298.5 Z"/></g>
<g><path style="opacity:1" fill="#a38055" d="M 224.5,310.5 C 215.787,310.752 207.12,310.252 198.5,309C 193.701,308.104 189.701,305.937 186.5,302.5C 189.663,304.246 192.996,305.746 196.5,307C 198.833,307.667 201.167,307.667 203.5,307C 196.665,306.165 190.832,303.332 186,298.5C 185.333,297.833 185.333,297.167 186,296.5C 187.74,298.954 189.907,300.454 192.5,301C 186.963,295.773 186.129,289.939 190,283.5C 186.2,292.057 188.7,298.224 197.5,302C 207.115,303.526 216.781,303.859 226.5,303C 225.327,299.89 225.827,299.723 228,302.5C 227.956,300.721 227.289,299.055 226,297.5C 223.186,303.146 221.353,302.813 220.5,296.5C 219.675,295.614 218.675,295.281 217.5,295.5C 217.662,297.527 217.495,299.527 217,301.5C 215.919,299.272 215.419,296.939 215.5,294.5C 214.065,295.824 213.065,297.49 212.5,299.5C 211.749,298.624 211.249,297.624 211,296.5C 210.577,297.956 209.744,298.456 208.5,298C 209.12,295.788 210.287,293.954 212,292.5C 215.402,293.726 218.902,294.393 222.5,294.5C 222.34,296.199 222.506,297.866 223,299.5C 223.583,297.998 224.416,296.665 225.5,295.5C 226.967,295.723 228.467,296.056 230,296.5C 229.621,298.075 229.788,299.575 230.5,301C 229.833,302.333 228.833,303.333 227.5,304C 232.519,304.118 237.185,305.451 241.5,308C 236.627,306.87 231.627,305.87 226.5,305C 216.471,304.532 206.471,304.199 196.5,304C 204.401,305.656 212.401,306.656 220.5,307C 215.167,307.333 209.833,307.667 204.5,308C 211.39,308.203 218.057,309.036 224.5,310.5 Z"/></g>
<g><path style="opacity:1" fill="#c5b17d" d="M 283.5,309.5 C 280.15,309.665 276.817,309.498 273.5,309C 276.121,308.094 275.954,307.594 273,307.5C 268.9,308.299 265.066,309.799 261.5,312C 255.938,317.163 256.271,321.829 262.5,326C 260.866,326.494 259.199,326.66 257.5,326.5C 251.968,321.402 252.301,316.569 258.5,312C 260.332,311.252 261.999,310.252 263.5,309C 257.158,310.171 253.158,314.004 251.5,320.5C 249.616,319.307 249.116,317.641 250,315.5C 252.04,313.63 253.873,311.63 255.5,309.5C 269.091,304.799 283.091,303.299 297.5,305C 291.197,305.942 284.863,306.609 278.5,307C 283.5,307.333 288.5,307.667 293.5,308C 289.975,308.179 286.641,308.679 283.5,309.5 Z"/></g>
<g><path style="opacity:1" fill="#bfa877" d="M 298.5,287.5 C 303.266,290.888 306.1,289.554 307,283.5C 311.295,287.788 311.628,292.455 308,297.5C 305.457,298.876 305.291,300.043 307.5,301C 304.93,303.459 301.93,304.459 298.5,304C 300.246,303.529 301.913,302.862 303.5,302C 292.581,302.997 281.581,303.664 270.5,304C 264.835,304.384 259.835,306.218 255.5,309.5C 252.944,310.543 250.777,312.21 249,314.5C 248.667,314.167 248.333,313.833 248,313.5C 247.79,314.803 247.957,316.136 248.5,317.5C 248.444,318.737 247.944,319.737 247,320.5C 246.527,318.221 245.527,316.221 244,314.5C 245.262,318.756 244.428,322.589 241.5,326C 239.833,326.667 238.167,326.667 236.5,326C 239.045,323.499 238.545,322.999 235,324.5C 230.916,323.775 229.582,321.442 231,317.5C 231.903,316.299 233.069,315.465 234.5,315C 231.812,314.218 230.812,312.718 231.5,310.5C 233.497,311.747 235.497,312.581 237.5,313C 233.155,309.33 228.155,307.663 222.5,308C 224.5,308.667 226.5,309.333 228.5,310C 227.207,310.49 225.873,310.657 224.5,310.5C 218.057,309.036 211.39,308.203 204.5,308C 209.833,307.667 215.167,307.333 220.5,307C 212.401,306.656 204.401,305.656 196.5,304C 206.471,304.199 216.471,304.532 226.5,305C 231.627,305.87 236.627,306.87 241.5,308C 237.185,305.451 232.519,304.118 227.5,304C 228.833,303.333 229.833,302.333 230.5,301C 229.788,299.575 229.621,298.075 230,296.5C 228.467,296.056 226.967,295.723 225.5,295.5C 224.416,296.665 223.583,297.998 223,299.5C 222.506,297.866 222.34,296.199 222.5,294.5C 218.902,294.393 215.402,293.726 212,292.5C 210.287,293.954 209.12,295.788 208.5,298C 209.744,298.456 210.577,297.956 211,296.5C 211.249,297.624 211.749,298.624 212.5,299.5C 213.065,297.49 214.065,295.824 215.5,294.5C 215.419,296.939 215.919,299.272 217,301.5C 217.495,299.527 217.662,297.527 217.5,295.5C 218.675,295.281 219.675,295.614 220.5,296.5C 221.353,302.813 223.186,303.146 226,297.5C 227.289,299.055 227.956,300.721 228,302.5C 225.827,299.723 225.327,299.89 226.5,303C 216.781,303.859 207.115,303.526 197.5,302C 188.7,298.224 186.2,292.057 190,283.5C 186.129,289.939 186.963,295.773 192.5,301C 189.907,300.454 187.74,298.954 186,296.5C 185.333,297.167 185.333,297.833 186,298.5C 190.832,303.332 196.665,306.165 203.5,307C 201.167,307.667 198.833,307.667 196.5,307C 192.996,305.746 189.663,304.246 186.5,302.5C 180.586,297.603 178.086,291.269 179,283.5C 179.697,281.416 180.864,279.749 182.5,278.5C 183.482,277.859 184.482,277.193 185.5,276.5C 186.192,277.025 186.692,277.692 187,278.5C 189.224,276.805 191.724,275.805 194.5,275.5C 198.899,275.405 201.066,277.405 201,281.5C 200.576,279.385 199.409,278.552 197.5,279C 202.209,284.174 201.209,287.507 194.5,289C 198.674,290.018 201.674,288.518 203.5,284.5C 208.899,289.781 215.399,292.448 223,292.5C 229.484,291.534 235.984,291.368 242.5,292C 245.112,292.639 247.446,293.806 249.5,295.5C 251.336,294.081 253.336,292.914 255.5,292C 262.181,291.39 268.848,291.556 275.5,292.5C 283.302,292.596 289.969,289.93 295.5,284.5C 296.288,285.77 297.288,286.77 298.5,287.5 Z"/></g>
<g><path style="opacity:1" fill="#af9164" d="M 283.5,309.5 C 278.805,310.056 274.138,311.223 269.5,313C 267.216,314.363 267.049,315.863 269,317.5C 270.544,322.623 268.71,325.789 263.5,327C 261.288,327.789 259.288,327.622 257.5,326.5C 259.199,326.66 260.866,326.494 262.5,326C 256.271,321.829 255.938,317.163 261.5,312C 265.066,309.799 268.9,308.299 273,307.5C 275.954,307.594 276.121,308.094 273.5,309C 276.817,309.498 280.15,309.665 283.5,309.5 Z"/></g>
<g><path style="opacity:1" fill="#a58359" d="M 255.5,309.5 C 253.873,311.63 252.04,313.63 250,315.5C 249.116,317.641 249.616,319.307 251.5,320.5C 253.158,314.004 257.158,310.171 263.5,309C 261.999,310.252 260.332,311.252 258.5,312C 252.301,316.569 251.968,321.402 257.5,326.5C 254.649,327.323 251.982,328.656 249.5,330.5C 247.228,329.559 245.228,328.226 243.5,326.5C 237.729,328.51 232.896,327.177 229,322.5C 227.959,319.364 228.793,316.864 231.5,315C 229.408,312.964 227.074,311.464 224.5,310.5C 225.873,310.657 227.207,310.49 228.5,310C 226.5,309.333 224.5,308.667 222.5,308C 228.155,307.663 233.155,309.33 237.5,313C 235.497,312.581 233.497,311.747 231.5,310.5C 230.812,312.718 231.812,314.218 234.5,315C 233.069,315.465 231.903,316.299 231,317.5C 229.582,321.442 230.916,323.775 235,324.5C 238.545,322.999 239.045,323.499 236.5,326C 238.167,326.667 239.833,326.667 241.5,326C 244.428,322.589 245.262,318.756 244,314.5C 245.527,316.221 246.527,318.221 247,320.5C 247.944,319.737 248.444,318.737 248.5,317.5C 247.957,316.136 247.79,314.803 248,313.5C 248.333,313.833 248.667,314.167 249,314.5C 250.777,312.21 252.944,310.543 255.5,309.5 Z"/></g>
</svg>
