<?xml version="1.0" encoding="UTF-8"?>
<!DOCTYPE svg PUBLIC "-//W3C//DTD SVG 1.1//EN" "http://www.w3.org/Graphics/SVG/1.1/DTD/svg11.dtd">
<svg xmlns="http://www.w3.org/2000/svg" version="1.1" width="500px" height="500px" style="shape-rendering:geometricPrecision; text-rendering:geometricPrecision; image-rendering:optimizeQuality; fill-rule:evenodd; clip-rule:evenodd" xmlns:xlink="http://www.w3.org/1999/xlink">
<g><path style="opacity:0.995" fill="#cd1125" d="M 225.5,-0.5 C 241.5,-0.5 257.5,-0.5 273.5,-0.5C 362.269,10.9489 428.436,55.6156 472,133.5C 486.559,162.333 495.726,192.666 499.5,224.5C 499.5,232.833 499.5,241.167 499.5,249.5C 459.5,249.5 419.5,249.5 379.5,249.5C 379.5,245.5 379.5,241.5 379.5,237.5C 375.833,237.5 372.167,237.5 368.5,237.5C 368.068,230.005 366.734,222.671 364.5,215.5C 367.15,213.506 370.15,212.506 373.5,212.5C 371.796,203.766 368.462,195.766 363.5,188.5C 361.116,190.051 358.616,191.385 356,192.5C 352.025,187.186 348.025,181.852 344,176.5C 343.018,175.241 342.685,173.908 343,172.5C 345.643,171.024 347.81,169.024 349.5,166.5C 344.141,159.96 338.141,154.46 331.5,150C 329.595,151.815 327.928,153.815 326.5,156C 325.5,156.667 324.5,156.667 323.5,156C 318.276,151.777 312.776,147.944 307,144.5C 307.524,141.419 308.691,138.419 310.5,135.5C 303.622,131.205 296.289,127.872 288.5,125.5C 286.468,128.559 284.801,131.892 283.5,135.5C 276.395,132.961 269.061,131.627 261.5,131.5C 261.053,138.856 260.386,146.189 259.5,153.5C 306.388,160.552 335.221,187.218 346,233.5C 346.499,238.823 346.666,244.156 346.5,249.5C 302.833,249.5 259.167,249.5 215.5,249.5C 211.087,245.024 207.921,239.691 206,233.5C 203.497,238.819 201.331,244.152 199.5,249.5C 132.833,249.5 66.1667,249.5 -0.5,249.5C -0.5,241.5 -0.5,233.5 -0.5,225.5C 11.4543,135.075 57.4543,68.242 137.5,25C 165.514,11.5012 194.847,3.00119 225.5,-0.5 Z"/></g>
<g><path style="opacity:1" fill="#f7d416" d="M 379.5,249.5 C 379.5,251.5 379.5,253.5 379.5,255.5C 378.539,257.265 378.205,259.265 378.5,261.5C 376.167,261.5 373.833,261.5 371.5,261.5C 370.5,261.5 369.5,261.5 368.5,261.5C 368.324,269.236 366.991,276.736 364.5,284C 367.006,285.299 369.673,286.299 372.5,287C 373.022,287.561 373.355,288.228 373.5,289C 371.667,293.833 369.833,298.667 368,303.5C 366.985,306.21 365.485,308.543 363.5,310.5C 361.336,309.586 359.336,308.419 357.5,307C 356.365,306.251 355.365,306.417 354.5,307.5C 350.996,313.844 346.996,319.844 342.5,325.5C 345.743,327.548 347.91,330.215 349,333.5C 346.128,336.037 343.628,338.87 341.5,342C 339.711,342.52 338.044,342.187 336.5,341C 328.5,335.333 320.5,329.667 312.5,324C 335.067,304.361 346.4,279.528 346.5,249.5C 346.666,244.156 346.499,238.823 346,233.5C 335.221,187.218 306.388,160.552 259.5,153.5C 260.386,146.189 261.053,138.856 261.5,131.5C 269.061,131.627 276.395,132.961 283.5,135.5C 284.801,131.892 286.468,128.559 288.5,125.5C 296.289,127.872 303.622,131.205 310.5,135.5C 308.691,138.419 307.524,141.419 307,144.5C 312.776,147.944 318.276,151.777 323.5,156C 324.5,156.667 325.5,156.667 326.5,156C 327.928,153.815 329.595,151.815 331.5,150C 338.141,154.46 344.141,159.96 349.5,166.5C 347.81,169.024 345.643,171.024 343,172.5C 342.685,173.908 343.018,175.241 344,176.5C 348.025,181.852 352.025,187.186 356,192.5C 358.616,191.385 361.116,190.051 363.5,188.5C 368.462,195.766 371.796,203.766 373.5,212.5C 370.15,212.506 367.15,213.506 364.5,215.5C 366.734,222.671 368.068,230.005 368.5,237.5C 372.167,237.5 375.833,237.5 379.5,237.5C 379.5,241.5 379.5,245.5 379.5,249.5 Z"/></g>
<g><path style="opacity:1" fill="#f8d316" d="M 248.5,160.5 C 249.497,160.47 250.164,160.97 250.5,162C 253.2,171.266 256.2,180.432 259.5,189.5C 270.151,190.332 280.818,190.832 291.5,191C 283.64,197.027 275.64,202.86 267.5,208.5C 267.167,209.333 266.833,210.167 266.5,211C 269.771,220.801 272.604,230.634 275,240.5C 266.589,234.045 258.089,227.712 249.5,221.5C 240.846,228.26 232.18,234.26 223.5,239.5C 226.6,230.034 229.6,220.534 232.5,211C 232.167,210.167 231.833,209.333 231.5,208.5C 223.36,202.86 215.36,197.027 207.5,191C 218.182,190.832 228.849,190.332 239.5,189.5C 243.111,180.003 246.111,170.336 248.5,160.5 Z"/></g>
<g><path style="opacity:1" fill="#f4d215" d="M 215.5,249.5 C 220.258,255.763 225.591,261.596 231.5,267C 269.459,299.633 309.126,329.967 350.5,358C 351.684,359.145 351.684,360.312 350.5,361.5C 349.262,362.412 347.928,362.579 346.5,362C 325.676,346.755 304.676,331.755 283.5,317C 266.444,304.782 250.11,291.615 234.5,277.5C 233.479,278.002 233.312,278.668 234,279.5C 242.203,287.372 250.703,294.872 259.5,302C 288.682,323.03 317.682,344.197 346.5,365.5C 344.502,368.343 342.169,370.51 339.5,372C 300.499,346.16 260.499,321.826 219.5,299C 203.253,286.343 196.586,269.843 199.5,249.5C 201.331,244.152 203.497,238.819 206,233.5C 207.921,239.691 211.087,245.024 215.5,249.5 Z"/></g>
<g><path style="opacity:0.994" fill="#000000" d="M -0.5,249.5 C 66.1667,249.5 132.833,249.5 199.5,249.5C 196.586,269.843 203.253,286.343 219.5,299C 260.499,321.826 300.499,346.16 339.5,372C 342.169,370.51 344.502,368.343 346.5,365.5C 347.338,365.842 347.672,366.508 347.5,367.5C 345.675,369.803 343.842,372.136 342,374.5C 341.312,375.332 341.479,375.998 342.5,376.5C 353.141,378.308 361.974,383.308 369,391.5C 372.444,397.276 376.277,402.776 380.5,408C 390.717,411.12 394.55,407.286 392,396.5C 390.056,392.89 387.723,389.557 385,386.5C 375.447,377.646 365.613,369.146 355.5,361C 353.934,360.7 352.601,361.2 351.5,362.5C 351.5,361.833 351.167,361.5 350.5,361.5C 351.684,360.312 351.684,359.145 350.5,358C 309.126,329.967 269.459,299.633 231.5,267C 225.591,261.596 220.258,255.763 215.5,249.5C 259.167,249.5 302.833,249.5 346.5,249.5C 346.4,279.528 335.067,304.361 312.5,324C 320.5,329.667 328.5,335.333 336.5,341C 338.044,342.187 339.711,342.52 341.5,342C 343.628,338.87 346.128,336.037 349,333.5C 347.91,330.215 345.743,327.548 342.5,325.5C 346.996,319.844 350.996,313.844 354.5,307.5C 355.365,306.417 356.365,306.251 357.5,307C 359.336,308.419 361.336,309.586 363.5,310.5C 365.485,308.543 366.985,306.21 368,303.5C 369.833,298.667 371.667,293.833 373.5,289C 373.355,288.228 373.022,287.561 372.5,287C 369.673,286.299 367.006,285.299 364.5,284C 366.991,276.736 368.324,269.236 368.5,261.5C 369.5,261.5 370.5,261.5 371.5,261.5C 373.948,262.473 376.615,262.806 379.5,262.5C 379.5,260.167 379.5,257.833 379.5,255.5C 379.5,253.5 379.5,251.5 379.5,249.5C 419.5,249.5 459.5,249.5 499.5,249.5C 499.5,257.833 499.5,266.167 499.5,274.5C 487.764,361.841 443.764,427.341 367.5,471C 338.093,486.083 307.093,495.583 274.5,499.5C 257.833,499.5 241.167,499.5 224.5,499.5C 132.596,487.072 65.4294,439.739 23,357.5C 10.7506,330.604 2.91724,302.604 -0.5,273.5C -0.5,265.5 -0.5,257.5 -0.5,249.5 Z"/></g>
<g><path style="opacity:1" fill="#95810e" d="M 379.5,255.5 C 379.5,257.833 379.5,260.167 379.5,262.5C 376.615,262.806 373.948,262.473 371.5,261.5C 373.833,261.5 376.167,261.5 378.5,261.5C 378.205,259.265 378.539,257.265 379.5,255.5 Z"/></g>
<g><path style="opacity:1" fill="#1c1705" d="M 350.5,361.5 C 351.167,361.5 351.5,361.833 351.5,362.5C 350.876,364.754 349.543,366.421 347.5,367.5C 347.672,366.508 347.338,365.842 346.5,365.5C 317.682,344.197 288.682,323.03 259.5,302C 250.703,294.872 242.203,287.372 234,279.5C 233.312,278.668 233.479,278.002 234.5,277.5C 250.11,291.615 266.444,304.782 283.5,317C 304.676,331.755 325.676,346.755 346.5,362C 347.928,362.579 349.262,362.412 350.5,361.5 Z"/></g>
<g><path style="opacity:1" fill="#f5d315" d="M 261.5,371.5 C 261.5,373.833 261.5,376.167 261.5,378.5C 253.5,378.5 245.5,378.5 237.5,378.5C 237.5,377.167 237.5,375.833 237.5,374.5C 237.5,372.5 237.5,370.5 237.5,368.5C 229.909,368.582 222.575,367.248 215.5,364.5C 213.506,367.15 212.506,370.15 212.5,373.5C 204.462,371.821 196.796,368.988 189.5,365C 189.043,364.586 188.709,364.086 188.5,363.5C 189.833,360.833 191.167,358.167 192.5,355.5C 186.526,351.359 180.692,347.026 175,342.5C 175.044,340.721 175.711,339.055 177,337.5C 180.667,333.167 184.333,328.833 188,324.5C 216.413,346.542 247.913,352.376 282.5,342C 286.248,344.624 290.081,347.124 294,349.5C 296.294,356.341 297.794,363.341 298.5,370.5C 294.781,371.47 291.114,372.304 287.5,373C 286.533,369.899 285.2,367.066 283.5,364.5C 276.329,366.734 268.995,368.068 261.5,368.5C 261.5,369.5 261.5,370.5 261.5,371.5 Z"/></g>
<g><path style="opacity:1" fill="#f2d115" d="M 347.5,367.5 C 349.543,366.421 350.876,364.754 351.5,362.5C 352.601,361.2 353.934,360.7 355.5,361C 365.613,369.146 375.447,377.646 385,386.5C 387.723,389.557 390.056,392.89 392,396.5C 394.55,407.286 390.717,411.12 380.5,408C 376.277,402.776 372.444,397.276 369,391.5C 361.974,383.308 353.141,378.308 342.5,376.5C 341.479,375.998 341.312,375.332 342,374.5C 343.842,372.136 345.675,369.803 347.5,367.5 Z"/></g>
<g><path style="opacity:1" fill="#0e0b01" d="M 357.5,368.5 C 360.674,368.952 361.007,369.952 358.5,371.5C 357.614,370.675 357.281,369.675 357.5,368.5 Z"/></g>
<g><path style="opacity:1" fill="#bda311" d="M 261.5,371.5 C 262.473,373.948 262.806,376.615 262.5,379.5C 253.833,379.5 245.167,379.5 236.5,379.5C 236.216,377.585 236.549,375.919 237.5,374.5C 237.5,375.833 237.5,377.167 237.5,378.5C 245.5,378.5 253.5,378.5 261.5,378.5C 261.5,376.167 261.5,373.833 261.5,371.5 Z"/></g>
<g><path style="opacity:1" fill="#1a1604" d="M 369.5,379.5 C 370.5,379.5 371.5,379.5 372.5,379.5C 372.5,380.5 372.5,381.5 372.5,382.5C 371.5,382.5 370.5,382.5 369.5,382.5C 369.5,381.5 369.5,380.5 369.5,379.5 Z"/></g>
<g><path style="opacity:1" fill="#201b06" d="M 380.5,390.5 C 381.5,390.5 382.5,390.5 383.5,390.5C 383.5,391.5 383.5,392.5 383.5,393.5C 382.5,393.5 381.5,393.5 380.5,393.5C 380.5,392.5 380.5,391.5 380.5,390.5 Z"/></g>
</svg>
