<?xml version="1.0" encoding="UTF-8"?>
<!DOCTYPE svg PUBLIC "-//W3C//DTD SVG 1.1//EN" "http://www.w3.org/Graphics/SVG/1.1/DTD/svg11.dtd">
<svg xmlns="http://www.w3.org/2000/svg" version="1.1" width="500px" height="500px" style="shape-rendering:geometricPrecision; text-rendering:geometricPrecision; image-rendering:optimizeQuality; fill-rule:evenodd; clip-rule:evenodd" xmlns:xlink="http://www.w3.org/1999/xlink">
<g><path style="opacity:0.998" fill="#4d8fc9" d="M 225.5,-0.5 C 241.5,-0.5 257.5,-0.5 273.5,-0.5C 362.269,10.9489 428.436,55.6156 472,133.5C 486.559,162.333 495.726,192.666 499.5,224.5C 499.5,241.167 499.5,257.833 499.5,274.5C 497.097,293.836 492.763,312.836 486.5,331.5C 328.666,331.167 170.999,331.5 13.5,332.5C 6.46923,313.378 1.80256,293.711 -0.5,273.5C -0.5,257.5 -0.5,241.5 -0.5,225.5C 12.3703,130.238 62.0369,61.7383 148.5,20C 173.332,9.544 198.998,2.71067 225.5,-0.5 Z"/></g>
<g><path style="opacity:1" fill="#e55050" d="M 141.5,107.5 C 158.628,113.263 175.961,118.763 193.5,124C 175.797,129.401 158.131,134.901 140.5,140.5C 134.37,158.058 128.536,175.725 123,193.5C 119.632,181.233 115.798,169.233 111.5,157.5C 110.133,151.901 108.467,146.401 106.5,141C 88.4388,135.535 70.4388,129.869 52.5,124C 70.3568,117.992 88.3568,112.492 106.5,107.5C 111.694,89.7497 117.194,72.083 123,54.5C 129.187,71.2284 134.687,88.2284 139.5,105.5C 139.747,106.713 140.414,107.38 141.5,107.5 Z"/></g>
<g><path style="opacity:1" fill="#eeeff4" d="M 142.5,106.5 C 141.833,106.5 141.5,106.833 141.5,107.5C 140.414,107.38 139.747,106.713 139.5,105.5C 134.687,88.2284 129.187,71.2284 123,54.5C 117.194,72.083 111.694,89.7497 106.5,107.5C 88.3568,112.492 70.3568,117.992 52.5,124C 70.4388,129.869 88.4388,135.535 106.5,141C 108.467,146.401 110.133,151.901 111.5,157.5C 110.662,157.842 110.328,158.508 110.5,159.5C 108.627,154.055 106.627,148.555 104.5,143C 84.6945,136.1 64.6945,129.766 44.5,124C 64.0697,117.532 83.7363,111.366 103.5,105.5C 110.282,85.9875 116.782,66.3208 123,46.5C 129.795,66.3857 136.295,86.3857 142.5,106.5 Z"/></g>
<g><path style="opacity:1" fill="#f8ebec" d="M 142.5,106.5 C 162.256,111.805 181.923,117.639 201.5,124C 181.88,130.155 162.213,136.155 142.5,142C 135.994,161.517 129.494,181.017 123,200.5C 118.523,186.905 114.357,173.239 110.5,159.5C 110.328,158.508 110.662,157.842 111.5,157.5C 115.798,169.233 119.632,181.233 123,193.5C 128.536,175.725 134.37,158.058 140.5,140.5C 158.131,134.901 175.797,129.401 193.5,124C 175.961,118.763 158.628,113.263 141.5,107.5C 141.5,106.833 141.833,106.5 142.5,106.5 Z"/></g>
<g><path style="opacity:1" fill="#c4bd57" d="M 13.5,332.5 C 170.999,331.5 328.666,331.167 486.5,331.5C 486.672,332.492 486.338,333.158 485.5,333.5C 329.001,332.5 172.334,332.167 15.5,332.5C 14.8333,332.5 14.1667,332.5 13.5,332.5 Z"/></g>
<g><path style="opacity:1" fill="#fcd321" d="M 15.5,332.5 C 172.334,332.167 329.001,332.5 485.5,333.5C 484.883,333.611 484.383,333.944 484,334.5C 327.736,333.834 171.569,333.167 15.5,332.5 Z"/></g>
<g><path style="opacity:1" fill="#f3d02b" d="M 13.5,332.5 C 14.1667,332.5 14.8333,332.5 15.5,332.5C 171.569,333.167 327.736,333.834 484,334.5C 484.383,333.944 484.883,333.611 485.5,333.5C 482.455,343.321 478.455,352.654 473.5,361.5C 324.167,361.5 174.833,361.5 25.5,361.5C 20.3449,352.383 16.3449,342.716 13.5,332.5 Z"/></g>
<g><path style="opacity:0.998" fill="#4c8ec9" d="M 25.5,361.5 C 174.833,361.5 324.167,361.5 473.5,361.5C 468.503,372.171 462.503,382.171 455.5,391.5C 318.167,390.167 180.833,390.167 43.5,391.5C 36.4971,382.171 30.4971,372.171 25.5,361.5 Z"/></g>
<g><path style="opacity:1" fill="#dac641" d="M 455.5,391.5 C 455.672,392.492 455.338,393.158 454.5,393.5C 386.503,392.167 318.17,391.5 249.5,391.5C 181.167,391.667 112.833,391.833 44.5,392C 45.2524,392.671 45.5858,393.504 45.5,394.5C 44.0937,394.027 43.427,393.027 43.5,391.5C 180.833,390.167 318.167,390.167 455.5,391.5 Z"/></g>
<g><path style="opacity:1" fill="#f2d02d" d="M 454.5,393.5 C 447.894,403.105 440.56,412.105 432.5,420.5C 310.5,420.5 188.5,420.5 66.5,420.5C 58.7718,412.437 51.7718,403.77 45.5,394.5C 45.5858,393.504 45.2524,392.671 44.5,392C 112.833,391.833 181.167,391.667 249.5,391.5C 318.17,391.5 386.503,392.167 454.5,393.5 Z"/></g>
<g><path style="opacity:0.993" fill="#4c8ec9" d="M 66.5,420.5 C 188.5,420.5 310.5,420.5 432.5,420.5C 389.579,465.961 336.912,492.294 274.5,499.5C 257.833,499.5 241.167,499.5 224.5,499.5C 162.087,492.293 109.42,465.96 66.5,420.5 Z"/></g>
</svg>
