<?xml version="1.0" encoding="UTF-8"?>
<!DOCTYPE svg PUBLIC "-//W3C//DTD SVG 1.1//EN" "http://www.w3.org/Graphics/SVG/1.1/DTD/svg11.dtd">
<svg xmlns="http://www.w3.org/2000/svg" version="1.1" width="500px" height="500px" style="shape-rendering:geometricPrecision; text-rendering:geometricPrecision; image-rendering:optimizeQuality; fill-rule:evenodd; clip-rule:evenodd" xmlns:xlink="http://www.w3.org/1999/xlink">
<g><path style="opacity:0.978" fill="#03018b" d="M 225.5,-0.5 C 238.833,-0.5 252.167,-0.5 265.5,-0.5C 218.513,23.9943 171.179,47.9943 123.5,71.5C 122.505,59.011 122.171,46.3443 122.5,33.5C 154.493,14.9465 188.827,3.61319 225.5,-0.5 Z"/></g>
<g><path style="opacity:0.996" fill="#fefafb" d="M 265.5,-0.5 C 268.167,-0.5 270.833,-0.5 273.5,-0.5C 279.082,0.422754 284.749,1.42275 290.5,2.5C 236.259,29.9545 181.925,57.4545 127.5,85C 139.167,85.6667 150.833,85.6667 162.5,85C 213.592,59.1212 264.592,33.2879 315.5,7.5C 321.377,9.12417 327.043,11.1242 332.5,13.5C 332.811,20.0898 332.478,26.5898 331.5,33C 296.833,50.3333 262.167,67.6667 227.5,85C 262.498,85.5 297.498,85.6667 332.5,85.5C 332.5,90.8333 332.5,96.1667 332.5,101.5C 257.167,101.5 181.833,101.5 106.5,101.5C 106.5,82.5 106.5,63.5 106.5,44.5C 110.976,40.4254 115.976,37.0921 121.5,34.5C 121.168,47.1842 121.501,59.8508 122.5,72.5C 123.107,72.3764 123.44,72.0431 123.5,71.5C 171.179,47.9943 218.513,23.9943 265.5,-0.5 Z"/></g>
<g><path style="opacity:0.994" fill="#ff0d06" d="M 290.5,2.5 C 298.933,3.69179 307.266,5.35845 315.5,7.5C 264.592,33.2879 213.592,59.1212 162.5,85C 150.833,85.6667 139.167,85.6667 127.5,85C 181.925,57.4545 236.259,29.9545 290.5,2.5 Z"/></g>
<g><path style="opacity:0.995" fill="#01008b" d="M 332.5,13.5 C 412.881,43.3844 465.714,99.3844 491,181.5C 494.695,195.808 497.529,210.141 499.5,224.5C 499.5,241.167 499.5,257.833 499.5,274.5C 487.764,361.841 443.764,427.341 367.5,471C 338.093,486.083 307.093,495.583 274.5,499.5C 257.833,499.5 241.167,499.5 224.5,499.5C 163.113,492.472 111.113,466.806 68.5,422.5C 73.5061,418.161 78.1727,413.494 82.5,408.5C 93.8489,419.015 104.682,430.015 115,441.5C 112.93,425.935 111.097,410.268 109.5,394.5C 124.87,393.886 140.204,392.719 155.5,391C 142.167,383 128.833,375 115.5,367C 124.444,353.9 132.944,340.733 141,327.5C 126.667,333.167 112.333,338.833 98,344.5C 92.8133,329.941 87.8133,315.274 83,300.5C 77.9319,315.204 72.7652,329.871 67.5,344.5C 53.1969,339.122 39.0303,333.456 25,327.5C 32.5574,341.074 41.0574,354.24 50.5,367C 45.1018,370.698 39.4352,373.864 33.5,376.5C 14.9465,344.507 3.61319,310.173 -0.5,273.5C -0.5,257.5 -0.5,241.5 -0.5,225.5C 0.965199,215.598 2.63187,205.598 4.5,195.5C 17.4025,190.049 30.0691,184.049 42.5,177.5C 43.1667,201.5 43.8333,225.5 44.5,249.5C 49.1667,249.5 53.8333,249.5 58.5,249.5C 58.8333,249.5 59.1667,249.5 59.5,249.5C 75.1667,249.5 90.8333,249.5 106.5,249.5C 111.5,249.5 116.5,249.5 121.5,249.5C 121.5,225.5 121.5,201.5 121.5,177.5C 129.065,180.282 136.398,183.615 143.5,187.5C 143.414,188.496 143.748,189.329 144.5,190C 184.833,210.167 225.167,230.333 265.5,250.5C 266.107,250.376 266.44,250.043 266.5,249.5C 288.167,249.5 309.833,249.5 331.5,249.5C 332.49,243.69 332.823,237.69 332.5,231.5C 332.805,226.238 332.471,221.072 331.5,216C 297.807,199.153 264.14,182.32 230.5,165.5C 264.5,164.833 298.5,164.167 332.5,163.5C 332.5,158.167 332.5,152.833 332.5,147.5C 332.5,132.167 332.5,116.833 332.5,101.5C 332.5,96.1667 332.5,90.8333 332.5,85.5C 297.498,85.6667 262.498,85.5 227.5,85C 262.167,67.6667 296.833,50.3333 331.5,33C 332.478,26.5898 332.811,20.0898 332.5,13.5 Z"/></g>
<g><path style="opacity:0.998" fill="#7272bf" d="M 122.5,33.5 C 122.171,46.3443 122.505,59.011 123.5,71.5C 123.44,72.0431 123.107,72.3764 122.5,72.5C 121.501,59.8508 121.168,47.1842 121.5,34.5C 121.5,33.8333 121.833,33.5 122.5,33.5 Z"/></g>
<g><path style="opacity:0.996" fill="#fe0000" d="M 106.5,44.5 C 106.5,63.5 106.5,82.5 106.5,101.5C 181.833,101.5 257.167,101.5 332.5,101.5C 332.5,116.833 332.5,132.167 332.5,147.5C 257.167,147.5 181.833,147.5 106.5,147.5C 106.5,181.5 106.5,215.5 106.5,249.5C 90.8333,249.5 75.1667,249.5 59.5,249.5C 59.5,215.5 59.5,181.5 59.5,147.5C 46.5,147.5 33.5,147.5 20.5,147.5C 27.9084,131.125 36.9084,115.791 47.5,101.5C 51.5,101.5 55.5,101.5 59.5,101.5C 59.5,96.5 59.5,91.5 59.5,86.5C 69.6636,74.1699 80.9969,63.0033 93.5,53C 97.7336,49.9178 102.067,47.0845 106.5,44.5 Z"/></g>
<g><path style="opacity:0.859" fill="#ffedec" d="M 59.5,86.5 C 59.5,91.5 59.5,96.5 59.5,101.5C 55.5,101.5 51.5,101.5 47.5,101.5C 50.79,95.9131 54.79,90.9131 59.5,86.5 Z"/></g>
<g><path style="opacity:0.991" fill="#fefdfe" d="M 20.5,148.5 C 33.1667,148.5 45.8333,148.5 58.5,148.5C 58.5,182.167 58.5,215.833 58.5,249.5C 53.8333,249.5 49.1667,249.5 44.5,249.5C 44.8331,225.158 44.4997,200.824 43.5,176.5C 42.8933,176.624 42.56,176.957 42.5,177.5C 30.0691,184.049 17.4025,190.049 4.5,195.5C 5.72136,189.597 7.38802,183.931 9.5,178.5C 19.1712,173.664 28.8379,168.831 38.5,164C 30.5069,163.5 22.5069,163.334 14.5,163.5C 16.1258,158.277 18.1258,153.277 20.5,148.5 Z"/></g>
<g><path style="opacity:1" fill="#fefbfb" d="M 332.5,147.5 C 332.5,152.833 332.5,158.167 332.5,163.5C 297.498,163.333 262.498,163.5 227.5,164C 228.527,164.513 229.527,165.013 230.5,165.5C 264.14,182.32 297.807,199.153 331.5,216C 332.471,221.072 332.805,226.238 332.5,231.5C 287.065,209.283 241.732,186.783 196.5,164C 184.833,163.333 173.167,163.333 161.5,164C 218.383,192.274 275.049,220.774 331.5,249.5C 309.833,249.5 288.167,249.5 266.5,249.5C 225.69,228.595 184.69,207.928 143.5,187.5C 136.398,183.615 129.065,180.282 121.5,177.5C 121.5,201.5 121.5,225.5 121.5,249.5C 116.5,249.5 111.5,249.5 106.5,249.5C 106.5,215.5 106.5,181.5 106.5,147.5C 181.833,147.5 257.167,147.5 332.5,147.5 Z"/></g>
<g><path style="opacity:1" fill="#ffc9c8" d="M 20.5,148.5 C 20.5,148.167 20.5,147.833 20.5,147.5C 33.5,147.5 46.5,147.5 59.5,147.5C 59.5,181.5 59.5,215.5 59.5,249.5C 59.1667,249.5 58.8333,249.5 58.5,249.5C 58.5,215.833 58.5,182.167 58.5,148.5C 45.8333,148.5 33.1667,148.5 20.5,148.5 Z"/></g>
<g><path style="opacity:1" fill="#2a2a9e" d="M 332.5,163.5 C 298.5,164.167 264.5,164.833 230.5,165.5C 229.527,165.013 228.527,164.513 227.5,164C 262.498,163.5 297.498,163.333 332.5,163.5 Z"/></g>
<g><path style="opacity:0.947" fill="#ff0d09" d="M 14.5,163.5 C 22.5069,163.334 30.5069,163.5 38.5,164C 28.8379,168.831 19.1712,173.664 9.5,178.5C 10.5946,173.216 12.2613,168.216 14.5,163.5 Z"/></g>
<g><path style="opacity:1" fill="#ff0c07" d="M 332.5,231.5 C 332.823,237.69 332.49,243.69 331.5,249.5C 275.049,220.774 218.383,192.274 161.5,164C 173.167,163.333 184.833,163.333 196.5,164C 241.732,186.783 287.065,209.283 332.5,231.5 Z"/></g>
<g><path style="opacity:1" fill="#aeaeda" d="M 42.5,177.5 C 42.56,176.957 42.8933,176.624 43.5,176.5C 44.4997,200.824 44.8331,225.158 44.5,249.5C 43.8333,225.5 43.1667,201.5 42.5,177.5 Z"/></g>
<g><path style="opacity:1" fill="#f9f8fc" d="M 457.5,183.5 C 460.348,190.032 463.014,196.699 465.5,203.5C 472.032,200.599 478.699,198.433 485.5,197C 481.376,202.746 477.376,208.58 473.5,214.5C 479.702,218.532 486.035,222.365 492.5,226C 485.194,226.942 477.86,227.442 470.5,227.5C 471.258,235.223 472.091,242.89 473,250.5C 468.367,244.865 463.367,239.532 458,234.5C 453,239.5 448,244.5 443,249.5C 443.221,242.45 444.054,235.45 445.5,228.5C 438.183,227.54 430.85,226.706 423.5,226C 429.002,222.415 434.669,219.081 440.5,216C 441.022,215.439 441.355,214.772 441.5,214C 437.849,208.344 434.182,202.677 430.5,197C 437.423,199.112 444.423,201.278 451.5,203.5C 453.193,196.726 455.193,190.059 457.5,183.5 Z"/></g>
<g><path style="opacity:1" fill="#271b92" d="M 143.5,187.5 C 184.69,207.928 225.69,228.595 266.5,249.5C 266.44,250.043 266.107,250.376 265.5,250.5C 225.167,230.333 184.833,210.167 144.5,190C 143.748,189.329 143.414,188.496 143.5,187.5 Z"/></g>
<g><path style="opacity:0.996" fill="#fcfcfd" d="M 68.5,422.5 C 63.8223,417.821 59.489,412.821 55.5,407.5C 55.6458,403.481 55.9791,399.481 56.5,395.5C 52.8815,394.756 49.2148,394.423 45.5,394.5C 41.017,388.881 37.017,382.881 33.5,376.5C 39.4352,373.864 45.1018,370.698 50.5,367C 41.0574,354.24 32.5574,341.074 25,327.5C 39.0303,333.456 53.1969,339.122 67.5,344.5C 72.7652,329.871 77.9319,315.204 83,300.5C 87.8133,315.274 92.8133,329.941 98,344.5C 112.333,338.833 126.667,333.167 141,327.5C 132.944,340.733 124.444,353.9 115.5,367C 128.833,375 142.167,383 155.5,391C 140.204,392.719 124.87,393.886 109.5,394.5C 111.097,410.268 112.93,425.935 115,441.5C 104.682,430.015 93.8489,419.015 82.5,408.5C 78.1727,413.494 73.5061,418.161 68.5,422.5 Z"/></g>
<g><path style="opacity:0.83" fill="#0f088d" d="M 45.5,394.5 C 49.2148,394.423 52.8815,394.756 56.5,395.5C 55.9791,399.481 55.6458,403.481 55.5,407.5C 51.4516,403.746 48.1183,399.413 45.5,394.5 Z"/></g>
</svg>
