<?xml version="1.0" encoding="UTF-8"?>
<!DOCTYPE svg PUBLIC "-//W3C//DTD SVG 1.1//EN" "http://www.w3.org/Graphics/SVG/1.1/DTD/svg11.dtd">
<svg xmlns="http://www.w3.org/2000/svg" version="1.1" width="500px" height="500px" style="shape-rendering:geometricPrecision; text-rendering:geometricPrecision; image-rendering:optimizeQuality; fill-rule:evenodd; clip-rule:evenodd" xmlns:xlink="http://www.w3.org/1999/xlink">
<g><path style="opacity:0.994" fill="#01abc8" d="M 225.5,-0.5 C 241.5,-0.5 257.5,-0.5 273.5,-0.5C 362.269,10.9489 428.436,55.6156 472,133.5C 477.625,144.077 482.125,155.077 485.5,166.5C 360.833,166.5 236.167,166.5 111.5,166.5C 85.97,151.236 60.3033,136.236 34.5,121.5C 70.5092,62.3668 122.176,23.8668 189.5,6C 201.543,3.27253 213.543,1.10586 225.5,-0.5 Z"/></g>
<g><path style="opacity:0.995" fill="#000000" d="M 34.5,121.5 C 60.3033,136.236 85.97,151.236 111.5,166.5C 157.269,193.89 202.936,221.556 248.5,249.5C 202.936,277.444 157.269,305.11 111.5,332.5C 85.8333,347.833 60.1667,363.167 34.5,378.5C 15.4192,345.924 3.75249,310.924 -0.5,273.5C -0.5,257.5 -0.5,241.5 -0.5,225.5C 3.58178,188.254 15.2485,153.588 34.5,121.5 Z"/></g>
<g><path style="opacity:0.998" fill="#f9df41" d="M 111.5,166.5 C 236.167,166.5 360.833,166.5 485.5,166.5C 492.586,185.267 497.253,204.6 499.5,224.5C 499.5,241.167 499.5,257.833 499.5,274.5C 498.1,284.764 496.267,295.098 494,305.5C 492.031,314.9 489.198,323.9 485.5,332.5C 360.833,332.5 236.167,332.5 111.5,332.5C 157.269,305.11 202.936,277.444 248.5,249.5C 202.936,221.556 157.269,193.89 111.5,166.5 Z"/></g>
<g><path style="opacity:0.994" fill="#03abc8" d="M 111.5,332.5 C 236.167,332.5 360.833,332.5 485.5,332.5C 459.059,404.776 410.059,455.276 338.5,484C 317.652,491.713 296.319,496.88 274.5,499.5C 257.833,499.5 241.167,499.5 224.5,499.5C 141.959,488.919 78.6258,448.586 34.5,378.5C 60.1667,363.167 85.8333,347.833 111.5,332.5 Z"/></g>
</svg>
