<?xml version="1.0" encoding="UTF-8"?>
<!DOCTYPE svg PUBLIC "-//W3C//DTD SVG 1.1//EN" "http://www.w3.org/Graphics/SVG/1.1/DTD/svg11.dtd">
<svg xmlns="http://www.w3.org/2000/svg" version="1.1" width="500px" height="500px" style="shape-rendering:geometricPrecision; text-rendering:geometricPrecision; image-rendering:optimizeQuality; fill-rule:evenodd; clip-rule:evenodd" xmlns:xlink="http://www.w3.org/1999/xlink">
<g><path style="opacity:0.995" fill="#ce1126" d="M 225.5,-0.5 C 241.5,-0.5 257.5,-0.5 273.5,-0.5C 362.269,10.9489 428.436,55.6156 472,133.5C 486.559,162.333 495.726,192.666 499.5,224.5C 499.5,241.167 499.5,257.833 499.5,274.5C 487.764,361.841 443.764,427.341 367.5,471C 338.093,486.083 307.093,495.583 274.5,499.5C 257.833,499.5 241.167,499.5 224.5,499.5C 203.325,497.04 182.659,492.04 162.5,484.5C 162.611,483.883 162.944,483.383 163.5,483C 191.962,472.125 220.295,460.958 248.5,449.5C 206.421,433.029 164.421,416.363 122.5,399.5C 164.5,382.833 206.5,366.167 248.5,349.5C 206.421,333.029 164.421,316.363 122.5,299.5C 164.5,282.833 206.5,266.167 248.5,249.5C 206.421,233.029 164.421,216.363 122.5,199.5C 164.5,182.833 206.5,166.167 248.5,149.5C 206.421,133.029 164.421,116.363 122.5,99.5C 164.5,82.8333 206.5,66.1667 248.5,49.5C 220.175,38.3386 191.842,27.1719 163.5,16C 162.944,15.6174 162.611,15.1174 162.5,14.5C 183.025,7.06534 204.025,2.06534 225.5,-0.5 Z"/></g>
<g><path style="opacity:0.994" fill="#fefefe" d="M 162.5,14.5 C 162.611,15.1174 162.944,15.6174 163.5,16C 191.842,27.1719 220.175,38.3386 248.5,49.5C 206.5,66.1667 164.5,82.8333 122.5,99.5C 164.421,116.363 206.421,133.029 248.5,149.5C 206.5,166.167 164.5,182.833 122.5,199.5C 164.421,216.363 206.421,233.029 248.5,249.5C 206.5,266.167 164.5,282.833 122.5,299.5C 164.421,316.363 206.421,333.029 248.5,349.5C 206.5,366.167 164.5,382.833 122.5,399.5C 164.421,416.363 206.421,433.029 248.5,449.5C 220.295,460.958 191.962,472.125 163.5,483C 162.944,483.383 162.611,483.883 162.5,484.5C 82.7263,452.983 30.893,395.983 7,313.5C 3.72528,300.168 1.22528,286.834 -0.5,273.5C -0.5,257.5 -0.5,241.5 -0.5,225.5C 11.4543,135.075 57.4543,68.242 137.5,25C 145.625,20.9358 153.958,17.4358 162.5,14.5 Z"/></g>
</svg>
