<?xml version="1.0" encoding="UTF-8"?>
<!DOCTYPE svg PUBLIC "-//W3C//DTD SVG 1.1//EN" "http://www.w3.org/Graphics/SVG/1.1/DTD/svg11.dtd">
<svg xmlns="http://www.w3.org/2000/svg" version="1.1" width="500px" height="500px" style="shape-rendering:geometricPrecision; text-rendering:geometricPrecision; image-rendering:optimizeQuality; fill-rule:evenodd; clip-rule:evenodd" xmlns:xlink="http://www.w3.org/1999/xlink">
<g><path style="opacity:0.991" fill="#00694d" d="M 225.5,-0.5 C 241.5,-0.5 257.5,-0.5 273.5,-0.5C 362.269,10.9489 428.436,55.6156 472,133.5C 486.559,162.333 495.726,192.666 499.5,224.5C 499.5,241.167 499.5,257.833 499.5,274.5C 487.764,361.841 443.764,427.341 367.5,471C 338.093,486.083 307.093,495.583 274.5,499.5C 257.833,499.5 241.167,499.5 224.5,499.5C 132.596,487.072 65.4294,439.739 23,357.5C 10.7506,330.604 2.91724,302.604 -0.5,273.5C -0.5,257.5 -0.5,241.5 -0.5,225.5C 11.4543,135.075 57.4543,68.242 137.5,25C 165.514,11.5012 194.847,3.00119 225.5,-0.5 Z"/></g>
<g><path style="opacity:1" fill="#f32a41" d="M 197.5,82.5 C 264.79,81.5511 316.29,109.218 352,165.5C 382.818,223.722 381.818,281.389 349,338.5C 315.325,388.684 267.992,414.684 207,416.5C 146.361,414.025 99.3615,387.692 66,337.5C 39.0392,291.474 34.0392,243.141 51,192.5C 73.9031,135.937 115.07,100.437 174.5,86C 182.304,84.7674 189.971,83.6008 197.5,82.5 Z"/></g>
</svg>
