<?xml version="1.0" encoding="UTF-8"?>
<!DOCTYPE svg PUBLIC "-//W3C//DTD SVG 1.1//EN" "http://www.w3.org/Graphics/SVG/1.1/DTD/svg11.dtd">
<svg xmlns="http://www.w3.org/2000/svg" version="1.1" width="500px" height="500px" style="shape-rendering:geometricPrecision; text-rendering:geometricPrecision; image-rendering:optimizeQuality; fill-rule:evenodd; clip-rule:evenodd" xmlns:xlink="http://www.w3.org/1999/xlink">
<g><path style="opacity:0.996" fill="#c8313e" d="M 225.5,-0.5 C 241.5,-0.5 257.5,-0.5 273.5,-0.5C 362.269,10.9489 428.436,55.6156 472,133.5C 486.559,162.333 495.726,192.666 499.5,224.5C 499.5,241.167 499.5,257.833 499.5,274.5C 498.1,284.764 496.267,295.098 494,305.5C 492.031,314.9 489.198,323.9 485.5,332.5C 360.5,332.5 235.5,332.5 110.5,332.5C 110.5,328.167 110.5,323.833 110.5,319.5C 109.432,318.566 108.099,318.232 106.5,318.5C 106.5,316.167 106.5,313.833 106.5,311.5C 108.099,311.768 109.432,311.434 110.5,310.5C 110.5,307.833 110.5,305.167 110.5,302.5C 108.833,302.5 107.167,302.5 105.5,302.5C 105.5,299.833 105.5,297.167 105.5,294.5C 103.833,294.5 102.167,294.5 100.5,294.5C 100.5,291.833 100.5,289.167 100.5,286.5C 99.1667,286.5 97.8333,286.5 96.5,286.5C 96.5,283.833 96.5,281.167 96.5,278.5C 94.8333,278.5 93.1667,278.5 91.5,278.5C 91.5,281.167 91.5,283.833 91.5,286.5C 89.8333,286.5 88.1667,286.5 86.5,286.5C 86.5,289.167 86.5,291.833 86.5,294.5C 84.8333,294.5 83.1667,294.5 81.5,294.5C 81.5,297.167 81.5,299.833 81.5,302.5C 79.8333,302.5 78.1667,302.5 76.5,302.5C 76.5,305.167 76.5,307.833 76.5,310.5C 74.901,310.232 73.5676,310.566 72.5,311.5C 71.5318,313.607 71.1984,315.941 71.5,318.5C 69.901,318.232 68.5676,318.566 67.5,319.5C 67.5,322.167 67.5,324.833 67.5,327.5C 69.1667,327.5 70.8333,327.5 72.5,327.5C 72.5,330.167 72.5,332.833 72.5,335.5C 73.8333,335.5 75.1667,335.5 76.5,335.5C 76.5,338.5 76.5,341.5 76.5,344.5C 81.6946,344.821 86.6946,344.487 91.5,343.5C 91.5,340.833 91.5,338.167 91.5,335.5C 88.1667,335.5 84.8333,335.5 81.5,335.5C 81.5,332.833 81.5,330.167 81.5,327.5C 83.1667,327.5 84.8333,327.5 86.5,327.5C 86.5,324.833 86.5,322.167 86.5,319.5C 88.1667,319.5 89.8333,319.5 91.5,319.5C 91.5,316.833 91.5,314.167 91.5,311.5C 92.8333,311.5 94.1667,311.5 95.5,311.5C 95.1936,314.385 95.5269,317.052 96.5,319.5C 97.8333,319.5 99.1667,319.5 100.5,319.5C 100.5,322.167 100.5,324.833 100.5,327.5C 102.167,327.5 103.833,327.5 105.5,327.5C 105.5,330.167 105.5,332.833 105.5,335.5C 107.167,335.5 108.833,335.5 110.5,335.5C 110.5,340.833 110.5,346.167 110.5,351.5C 108.833,351.5 107.167,351.5 105.5,351.5C 105.5,354.5 105.5,357.5 105.5,360.5C 103.833,360.5 102.167,360.5 100.5,360.5C 100.5,363.167 100.5,365.833 100.5,368.5C 99.1667,368.5 97.8333,368.5 96.5,368.5C 96.5,371.167 96.5,373.833 96.5,376.5C 94.8333,376.5 93.1667,376.5 91.5,376.5C 91.5,379.167 91.5,381.833 91.5,384.5C 89.8333,384.5 88.1667,384.5 86.5,384.5C 86.5,387.5 86.5,390.5 86.5,393.5C 84.8333,393.5 83.1667,393.5 81.5,393.5C 81.5,390.5 81.5,387.5 81.5,384.5C 79.8333,384.5 78.1667,384.5 76.5,384.5C 76.5,381.833 76.5,379.167 76.5,376.5C 75.1667,376.5 73.8333,376.5 72.5,376.5C 72.5,373.833 72.5,371.167 72.5,368.5C 70.8333,368.5 69.1667,368.5 67.5,368.5C 67.5,365.833 67.5,363.167 67.5,360.5C 65.8333,360.5 64.1667,360.5 62.5,360.5C 62.5,357.5 62.5,354.5 62.5,351.5C 60.8333,351.5 59.1667,351.5 57.5,351.5C 57.5,348.833 57.5,346.167 57.5,343.5C 55.8333,343.5 54.1667,343.5 52.5,343.5C 52.5,346.167 52.5,348.833 52.5,351.5C 50.8333,351.5 49.1667,351.5 47.5,351.5C 47.5,354.5 47.5,357.5 47.5,360.5C 45.8333,360.5 44.1667,360.5 42.5,360.5C 42.5,363.167 42.5,365.833 42.5,368.5C 41.1667,368.5 39.8333,368.5 38.5,368.5C 38.5,371.167 38.5,373.833 38.5,376.5C 36.8333,376.5 35.1667,376.5 33.5,376.5C 22.7269,358.616 14.3936,339.616 8.5,319.5C 10.1667,319.5 11.8333,319.5 13.5,319.5C 13.3359,316.813 13.5026,314.146 14,311.5C 15.3561,310.62 16.8561,310.286 18.5,310.5C 18.5,313.5 18.5,316.5 18.5,319.5C 20.1667,319.5 21.8333,319.5 23.5,319.5C 23.5,322.167 23.5,324.833 23.5,327.5C 25.1667,327.5 26.8333,327.5 28.5,327.5C 28.5,330.167 28.5,332.833 28.5,335.5C 25.5,335.5 22.5,335.5 19.5,335.5C 18.5233,338.287 18.19,341.287 18.5,344.5C 23.6946,344.821 28.6946,344.487 33.5,343.5C 33.5,340.833 33.5,338.167 33.5,335.5C 35.1667,335.5 36.8333,335.5 38.5,335.5C 38.5,332.833 38.5,330.167 38.5,327.5C 39.8333,327.5 41.1667,327.5 42.5,327.5C 42.5,324.833 42.5,322.167 42.5,319.5C 41.1667,319.5 39.8333,319.5 38.5,319.5C 38.5,316.5 38.5,313.5 38.5,310.5C 36.8333,310.5 35.1667,310.5 33.5,310.5C 33.5,307.833 33.5,305.167 33.5,302.5C 31.8333,302.5 30.1667,302.5 28.5,302.5C 28.5,299.833 28.5,297.167 28.5,294.5C 26.8333,294.5 25.1667,294.5 23.5,294.5C 23.5,291.833 23.5,289.167 23.5,286.5C 21.8333,286.5 20.1667,286.5 18.5,286.5C 18.5,283.833 18.5,281.167 18.5,278.5C 16.8333,278.5 15.1667,278.5 13.5,278.5C 13.5,281.167 13.5,283.833 13.5,286.5C 12.1667,286.5 10.8333,286.5 9.5,286.5C 9.5,289.167 9.5,291.833 9.5,294.5C 7.83333,294.5 6.16667,294.5 4.5,294.5C 4.76781,296.099 4.43448,297.432 3.5,298.5C 2.31393,291.864 1.31393,285.198 0.5,278.5C 1.83333,278.5 3.16667,278.5 4.5,278.5C 4.5,275.833 4.5,273.167 4.5,270.5C 6.16667,270.5 7.83333,270.5 9.5,270.5C 9.5,267.833 9.5,265.167 9.5,262.5C 11.1667,262.5 12.8333,262.5 14.5,262.5C 14.5,259.5 14.5,256.5 14.5,253.5C 15.8333,253.5 17.1667,253.5 18.5,253.5C 18.5,250.833 18.5,248.167 18.5,245.5C 16.8333,245.5 15.1667,245.5 13.5,245.5C 13.5,242.833 13.5,240.167 13.5,237.5C 12.1667,237.5 10.8333,237.5 9.5,237.5C 9.5,234.5 9.5,231.5 9.5,228.5C 7.83333,228.5 6.16667,228.5 4.5,228.5C 4.5,225.833 4.5,223.167 4.5,220.5C 3.16667,220.5 1.83333,220.5 0.5,220.5C 1.31393,213.802 2.31393,207.136 3.5,200.5C 4.43448,201.568 4.76781,202.901 4.5,204.5C 6.16667,204.5 7.83333,204.5 9.5,204.5C 9.5,207.167 9.5,209.833 9.5,212.5C 10.8333,212.5 12.1667,212.5 13.5,212.5C 13.5,215.167 13.5,217.833 13.5,220.5C 15.1667,220.5 16.8333,220.5 18.5,220.5C 18.5,217.833 18.5,215.167 18.5,212.5C 20.1667,212.5 21.8333,212.5 23.5,212.5C 23.5,209.833 23.5,207.167 23.5,204.5C 25.1667,204.5 26.8333,204.5 28.5,204.5C 28.5,201.833 28.5,199.167 28.5,196.5C 30.1667,196.5 31.8333,196.5 33.5,196.5C 33.5,193.833 33.5,191.167 33.5,188.5C 35.1667,188.5 36.8333,188.5 38.5,188.5C 38.5,185.833 38.5,183.167 38.5,180.5C 40.1667,180.5 41.8333,180.5 43.5,180.5C 43.81,177.287 43.4767,174.287 42.5,171.5C 41.1667,171.5 39.8333,171.5 38.5,171.5C 38.5,168.833 38.5,166.167 38.5,163.5C 36.8333,163.5 35.1667,163.5 33.5,163.5C 33.5,160.833 33.5,158.167 33.5,155.5C 28.5,155.5 23.5,155.5 18.5,155.5C 18.5,158.167 18.5,160.833 18.5,163.5C 21.8333,163.5 25.1667,163.5 28.5,163.5C 28.5,166.167 28.5,168.833 28.5,171.5C 26.8333,171.5 25.1667,171.5 23.5,171.5C 23.5,174.167 23.5,176.833 23.5,179.5C 21.8333,179.5 20.1667,179.5 18.5,179.5C 18.5,182.167 18.5,184.833 18.5,187.5C 17.1667,187.5 15.8333,187.5 14.5,187.5C 14.5,184.833 14.5,182.167 14.5,179.5C 12.5,179.5 10.5,179.5 8.5,179.5C 14.3936,159.384 22.7269,140.384 33.5,122.5C 35.1667,122.5 36.8333,122.5 38.5,122.5C 38.5,125.167 38.5,127.833 38.5,130.5C 39.8333,130.5 41.1667,130.5 42.5,130.5C 42.1936,133.385 42.5269,136.052 43.5,138.5C 44.5676,139.434 45.901,139.768 47.5,139.5C 47.5,142.167 47.5,144.833 47.5,147.5C 49.1667,147.5 50.8333,147.5 52.5,147.5C 52.5,150.167 52.5,152.833 52.5,155.5C 54.1667,155.5 55.8333,155.5 57.5,155.5C 57.5,152.833 57.5,150.167 57.5,147.5C 59.1667,147.5 60.8333,147.5 62.5,147.5C 62.5,144.833 62.5,142.167 62.5,139.5C 64.1667,139.5 65.8333,139.5 67.5,139.5C 67.5,136.5 67.5,133.5 67.5,130.5C 69.1667,130.5 70.8333,130.5 72.5,130.5C 72.5,127.833 72.5,125.167 72.5,122.5C 73.8333,122.5 75.1667,122.5 76.5,122.5C 76.5,119.833 76.5,117.167 76.5,114.5C 78.1667,114.5 79.8333,114.5 81.5,114.5C 81.5,111.5 81.5,108.5 81.5,105.5C 83.1667,105.5 84.8333,105.5 86.5,105.5C 86.5,108.5 86.5,111.5 86.5,114.5C 88.1667,114.5 89.8333,114.5 91.5,114.5C 91.5,117.167 91.5,119.833 91.5,122.5C 93.1667,122.5 94.8333,122.5 96.5,122.5C 96.5,125.167 96.5,127.833 96.5,130.5C 97.8333,130.5 99.1667,130.5 100.5,130.5C 100.5,133.5 100.5,136.5 100.5,139.5C 102.167,139.5 103.833,139.5 105.5,139.5C 105.5,142.167 105.5,144.833 105.5,147.5C 107.415,147.784 109.081,147.451 110.5,146.5C 110.5,141.167 110.5,135.833 110.5,130.5C 108.833,130.5 107.167,130.5 105.5,130.5C 105.5,127.833 105.5,125.167 105.5,122.5C 107.167,122.5 108.833,122.5 110.5,122.5C 110.5,114.5 110.5,106.5 110.5,98.5C 109.081,97.5489 107.415,97.2155 105.5,97.5C 105.5,100.167 105.5,102.833 105.5,105.5C 103.833,105.5 102.167,105.5 100.5,105.5C 100.5,108.5 100.5,111.5 100.5,114.5C 99.1667,114.5 97.8333,114.5 96.5,114.5C 96.5,111.5 96.5,108.5 96.5,105.5C 94.8333,105.5 93.1667,105.5 91.5,105.5C 91.5,102.833 91.5,100.167 91.5,97.5C 89.8333,97.5 88.1667,97.5 86.5,97.5C 86.5,94.8333 86.5,92.1667 86.5,89.5C 88.1667,89.5 89.8333,89.5 91.5,89.5C 91.5,86.8333 91.5,84.1667 91.5,81.5C 93.1667,81.5 94.8333,81.5 96.5,81.5C 96.5,78.8333 96.5,76.1667 96.5,73.5C 97.8333,73.5 99.1667,73.5 100.5,73.5C 100.5,76.1667 100.5,78.8333 100.5,81.5C 102.167,81.5 103.833,81.5 105.5,81.5C 105.5,84.1667 105.5,86.8333 105.5,89.5C 107.167,89.5 108.833,89.5 110.5,89.5C 110.5,81.5 110.5,73.5 110.5,65.5C 109.432,64.5655 108.099,64.2322 106.5,64.5C 106.5,62.1667 106.5,59.8333 106.5,57.5C 108.099,57.7678 109.432,57.4345 110.5,56.5C 110.5,51.5 110.5,46.5 110.5,41.5C 145.291,18.0121 183.624,4.01206 225.5,-0.5 Z"/></g>
<g><path style="opacity:0.992" fill="#fefbfb" d="M 110.5,41.5 C 110.5,46.5 110.5,51.5 110.5,56.5C 108.833,56.5 107.167,56.5 105.5,56.5C 105.5,59.5 105.5,62.5 105.5,65.5C 107.167,65.5 108.833,65.5 110.5,65.5C 110.5,73.5 110.5,81.5 110.5,89.5C 108.833,89.5 107.167,89.5 105.5,89.5C 105.5,86.8333 105.5,84.1667 105.5,81.5C 103.833,81.5 102.167,81.5 100.5,81.5C 100.5,78.8333 100.5,76.1667 100.5,73.5C 99.1667,73.5 97.8333,73.5 96.5,73.5C 96.5,76.1667 96.5,78.8333 96.5,81.5C 94.8333,81.5 93.1667,81.5 91.5,81.5C 91.5,84.1667 91.5,86.8333 91.5,89.5C 89.8333,89.5 88.1667,89.5 86.5,89.5C 86.5,92.1667 86.5,94.8333 86.5,97.5C 87.5676,98.4345 88.901,98.7678 90.5,98.5C 90.5,101.167 90.5,103.833 90.5,106.5C 92.1667,106.5 93.8333,106.5 95.5,106.5C 95.1936,109.385 95.5269,112.052 96.5,114.5C 97.8333,114.5 99.1667,114.5 100.5,114.5C 101.473,112.052 101.806,109.385 101.5,106.5C 103.167,106.5 104.833,106.5 106.5,106.5C 106.5,103.833 106.5,101.167 106.5,98.5C 107.833,98.5 109.167,98.5 110.5,98.5C 110.5,106.5 110.5,114.5 110.5,122.5C 108.833,122.5 107.167,122.5 105.5,122.5C 105.5,125.167 105.5,127.833 105.5,130.5C 107.167,130.5 108.833,130.5 110.5,130.5C 110.5,135.833 110.5,141.167 110.5,146.5C 109.167,146.5 107.833,146.5 106.5,146.5C 106.5,143.833 106.5,141.167 106.5,138.5C 104.833,138.5 103.167,138.5 101.5,138.5C 101.806,135.615 101.473,132.948 100.5,130.5C 99.1667,130.5 97.8333,130.5 96.5,130.5C 96.5,127.833 96.5,125.167 96.5,122.5C 94.8333,122.5 93.1667,122.5 91.5,122.5C 91.5,119.833 91.5,117.167 91.5,114.5C 89.8333,114.5 88.1667,114.5 86.5,114.5C 86.5,111.5 86.5,108.5 86.5,105.5C 84.8333,105.5 83.1667,105.5 81.5,105.5C 81.5,108.5 81.5,111.5 81.5,114.5C 79.8333,114.5 78.1667,114.5 76.5,114.5C 76.5,117.167 76.5,119.833 76.5,122.5C 75.1667,122.5 73.8333,122.5 72.5,122.5C 72.5,125.167 72.5,127.833 72.5,130.5C 70.8333,130.5 69.1667,130.5 67.5,130.5C 66.5269,132.948 66.1936,135.615 66.5,138.5C 64.8333,138.5 63.1667,138.5 61.5,138.5C 61.5,141.167 61.5,143.833 61.5,146.5C 59.901,146.232 58.5676,146.566 57.5,147.5C 57.5,150.167 57.5,152.833 57.5,155.5C 55.8333,155.5 54.1667,155.5 52.5,155.5C 52.5,152.833 52.5,150.167 52.5,147.5C 51.4324,146.566 50.099,146.232 48.5,146.5C 48.5,143.833 48.5,141.167 48.5,138.5C 46.8333,138.5 45.1667,138.5 43.5,138.5C 42.5269,136.052 42.1936,133.385 42.5,130.5C 41.1667,130.5 39.8333,130.5 38.5,130.5C 38.5,127.833 38.5,125.167 38.5,122.5C 36.8333,122.5 35.1667,122.5 33.5,122.5C 35.1807,119.797 36.8474,117.131 38.5,114.5C 40.1667,114.5 41.8333,114.5 43.5,114.5C 43.7947,112.265 43.4614,110.265 42.5,108.5C 42.8333,107.5 43.5,106.833 44.5,106.5C 45.8333,106.5 47.1667,106.5 48.5,106.5C 48.7845,104.585 48.4511,102.919 47.5,101.5C 48.5116,100.128 49.5116,98.795 50.5,97.5C 50.56,98.0431 50.8933,98.3764 51.5,98.5C 52.3857,97.675 52.719,96.675 52.5,95.5C 53.4194,92.9108 55.086,90.9108 57.5,89.5C 57.5,92.1667 57.5,94.8333 57.5,97.5C 58.5676,98.4345 59.901,98.7678 61.5,98.5C 61.5,101.167 61.5,103.833 61.5,106.5C 63.1667,106.5 64.8333,106.5 66.5,106.5C 66.1936,109.385 66.5269,112.052 67.5,114.5C 69.1667,114.5 70.8333,114.5 72.5,114.5C 72.5,111.833 72.5,109.167 72.5,106.5C 74.1667,106.5 75.8333,106.5 77.5,106.5C 77.5,103.833 77.5,101.167 77.5,98.5C 79.099,98.7678 80.4324,98.4345 81.5,97.5C 81.5,94.8333 81.5,92.1667 81.5,89.5C 79.8333,89.5 78.1667,89.5 76.5,89.5C 76.5,86.8333 76.5,84.1667 76.5,81.5C 75.1667,81.5 73.8333,81.5 72.5,81.5C 72.5,78.5 72.5,75.5 72.5,72.5C 73.5,70.8333 74.8333,69.5 76.5,68.5C 76.5,70.1667 76.5,71.8333 76.5,73.5C 78.1667,73.5 79.8333,73.5 81.5,73.5C 81.5,76.1667 81.5,78.8333 81.5,81.5C 83.1667,81.5 84.8333,81.5 86.5,81.5C 86.5,78.8333 86.5,76.1667 86.5,73.5C 88.1667,73.5 89.8333,73.5 91.5,73.5C 91.5,70.8333 91.5,68.1667 91.5,65.5C 93.1667,65.5 94.8333,65.5 96.5,65.5C 96.5,62.8333 96.5,60.1667 96.5,57.5C 98.099,57.7678 99.4324,57.4345 100.5,56.5C 101.468,54.3926 101.802,52.0593 101.5,49.5C 103.099,49.7678 104.432,49.4345 105.5,48.5C 105.5,47.1667 105.5,45.8333 105.5,44.5C 106.922,43.075 108.589,42.075 110.5,41.5 Z"/></g>
<g><path style="opacity:0.928" fill="#c62a37" d="M 105.5,44.5 C 105.5,45.8333 105.5,47.1667 105.5,48.5C 103.833,48.5 102.167,48.5 100.5,48.5C 101.945,46.9373 103.611,45.604 105.5,44.5 Z"/></g>
<g><path style="opacity:0.913" fill="#c93540" d="M 100.5,48.5 C 100.5,51.1667 100.5,53.8333 100.5,56.5C 98.8333,56.5 97.1667,56.5 95.5,56.5C 95.5,59.1667 95.5,61.8333 95.5,64.5C 93.901,64.2322 92.5676,64.5655 91.5,65.5C 91.5,68.1667 91.5,70.8333 91.5,73.5C 89.8333,73.5 88.1667,73.5 86.5,73.5C 86.5,76.1667 86.5,78.8333 86.5,81.5C 84.8333,81.5 83.1667,81.5 81.5,81.5C 81.5,78.8333 81.5,76.1667 81.5,73.5C 79.8333,73.5 78.1667,73.5 76.5,73.5C 76.5,71.8333 76.5,70.1667 76.5,68.5C 83.7212,60.8907 91.7212,54.224 100.5,48.5 Z"/></g>
<g><path style="opacity:1" fill="#e7a5ab" d="M 100.5,48.5 C 102.167,48.5 103.833,48.5 105.5,48.5C 104.432,49.4345 103.099,49.7678 101.5,49.5C 101.802,52.0593 101.468,54.3926 100.5,56.5C 100.5,53.8333 100.5,51.1667 100.5,48.5 Z"/></g>
<g><path style="opacity:1" fill="#dd7f86" d="M 100.5,56.5 C 99.4324,57.4345 98.099,57.7678 96.5,57.5C 96.5,60.1667 96.5,62.8333 96.5,65.5C 94.8333,65.5 93.1667,65.5 91.5,65.5C 92.5676,64.5655 93.901,64.2322 95.5,64.5C 95.5,61.8333 95.5,59.1667 95.5,56.5C 97.1667,56.5 98.8333,56.5 100.5,56.5 Z"/></g>
<g><path style="opacity:1" fill="#dc7a82" d="M 110.5,56.5 C 109.432,57.4345 108.099,57.7678 106.5,57.5C 106.5,59.8333 106.5,62.1667 106.5,64.5C 108.099,64.2322 109.432,64.5655 110.5,65.5C 108.833,65.5 107.167,65.5 105.5,65.5C 105.5,62.5 105.5,59.5 105.5,56.5C 107.167,56.5 108.833,56.5 110.5,56.5 Z"/></g>
<g><path style="opacity:0.991" fill="#c93540" d="M 72.5,72.5 C 72.5,75.5 72.5,78.5 72.5,81.5C 73.8333,81.5 75.1667,81.5 76.5,81.5C 76.5,84.1667 76.5,86.8333 76.5,89.5C 78.1667,89.5 79.8333,89.5 81.5,89.5C 81.5,92.1667 81.5,94.8333 81.5,97.5C 79.8333,97.5 78.1667,97.5 76.5,97.5C 76.5,100.167 76.5,102.833 76.5,105.5C 74.901,105.232 73.5676,105.566 72.5,106.5C 72.5,109.167 72.5,111.833 72.5,114.5C 70.8333,114.5 69.1667,114.5 67.5,114.5C 67.5,111.5 67.5,108.5 67.5,105.5C 65.8333,105.5 64.1667,105.5 62.5,105.5C 62.5,102.833 62.5,100.167 62.5,97.5C 60.8333,97.5 59.1667,97.5 57.5,97.5C 57.5,94.8333 57.5,92.1667 57.5,89.5C 59.1667,89.5 60.8333,89.5 62.5,89.5C 62.5,87.5 62.5,85.5 62.5,83.5C 62.8333,82.5 63.5,81.8333 64.5,81.5C 65.5,81.5 66.5,81.5 67.5,81.5C 67.5,80.1667 67.5,78.8333 67.5,77.5C 68.8333,75.5 70.5,73.8333 72.5,72.5 Z"/></g>
<g><path style="opacity:1" fill="#f1cacd" d="M 67.5,77.5 C 67.5,78.8333 67.5,80.1667 67.5,81.5C 66.5,81.5 65.5,81.5 64.5,81.5C 64.7376,79.5956 65.7376,78.2623 67.5,77.5 Z"/></g>
<g><path style="opacity:0.695" fill="#fcf6f6" d="M 62.5,83.5 C 62.5,85.5 62.5,87.5 62.5,89.5C 60.8333,89.5 59.1667,89.5 57.5,89.5C 58.4194,86.9108 60.086,84.9108 62.5,83.5 Z"/></g>
<g><path style="opacity:1" fill="#f8e0e2" d="M 66.5,89.5 C 68.5,89.5 70.5,89.5 72.5,89.5C 72.5,92.1667 72.5,94.8333 72.5,97.5C 70.5,97.5 68.5,97.5 66.5,97.5C 66.5,94.8333 66.5,92.1667 66.5,89.5 Z"/></g>
<g><path style="opacity:1" fill="#fcf2f3" d="M 96.5,90.5 C 98.1667,90.5 99.8333,90.5 101.5,90.5C 101.5,93.1667 101.5,95.8333 101.5,98.5C 99.8333,98.5 98.1667,98.5 96.5,98.5C 96.5,95.8333 96.5,93.1667 96.5,90.5 Z"/></g>
<g><path style="opacity:1" fill="#df7f7e" d="M 52.5,95.5 C 52.719,96.675 52.3857,97.675 51.5,98.5C 50.8933,98.3764 50.56,98.0431 50.5,97.5C 50.8333,96.5 51.5,95.8333 52.5,95.5 Z"/></g>
<g><path style="opacity:1" fill="#e7a6ab" d="M 81.5,97.5 C 80.4324,98.4345 79.099,98.7678 77.5,98.5C 77.5,101.167 77.5,103.833 77.5,106.5C 75.8333,106.5 74.1667,106.5 72.5,106.5C 73.5676,105.566 74.901,105.232 76.5,105.5C 76.5,102.833 76.5,100.167 76.5,97.5C 78.1667,97.5 79.8333,97.5 81.5,97.5 Z"/></g>
<g><path style="opacity:1" fill="#e8a7ac" d="M 47.5,101.5 C 48.4511,102.919 48.7845,104.585 48.5,106.5C 47.1667,106.5 45.8333,106.5 44.5,106.5C 44.5,106.167 44.5,105.833 44.5,105.5C 45.5,105.5 46.5,105.5 47.5,105.5C 47.5,104.167 47.5,102.833 47.5,101.5 Z"/></g>
<g><path style="opacity:1" fill="#c52835" d="M 47.5,101.5 C 47.5,102.833 47.5,104.167 47.5,105.5C 46.5,105.5 45.5,105.5 44.5,105.5C 45.5116,104.128 46.5116,102.795 47.5,101.5 Z"/></g>
<g><path style="opacity:1" fill="#ecb6bb" d="M 57.5,97.5 C 59.1667,97.5 60.8333,97.5 62.5,97.5C 62.5,100.167 62.5,102.833 62.5,105.5C 64.1667,105.5 65.8333,105.5 67.5,105.5C 67.5,108.5 67.5,111.5 67.5,114.5C 66.5269,112.052 66.1936,109.385 66.5,106.5C 64.8333,106.5 63.1667,106.5 61.5,106.5C 61.5,103.833 61.5,101.167 61.5,98.5C 59.901,98.7678 58.5676,98.4345 57.5,97.5 Z"/></g>
<g><path style="opacity:1" fill="#eab0b4" d="M 86.5,97.5 C 88.1667,97.5 89.8333,97.5 91.5,97.5C 91.5,100.167 91.5,102.833 91.5,105.5C 93.1667,105.5 94.8333,105.5 96.5,105.5C 96.5,108.5 96.5,111.5 96.5,114.5C 95.5269,112.052 95.1936,109.385 95.5,106.5C 93.8333,106.5 92.1667,106.5 90.5,106.5C 90.5,103.833 90.5,101.167 90.5,98.5C 88.901,98.7678 87.5676,98.4345 86.5,97.5 Z"/></g>
<g><path style="opacity:1" fill="#e69fa5" d="M 110.5,98.5 C 109.167,98.5 107.833,98.5 106.5,98.5C 106.5,101.167 106.5,103.833 106.5,106.5C 104.833,106.5 103.167,106.5 101.5,106.5C 101.806,109.385 101.473,112.052 100.5,114.5C 100.5,111.5 100.5,108.5 100.5,105.5C 102.167,105.5 103.833,105.5 105.5,105.5C 105.5,102.833 105.5,100.167 105.5,97.5C 107.415,97.2155 109.081,97.5489 110.5,98.5 Z"/></g>
<g><path style="opacity:0.724" fill="#c52936" d="M 42.5,108.5 C 42.5,110.167 42.5,111.833 42.5,113.5C 41.5,113.5 40.5,113.5 39.5,113.5C 40.1103,111.566 41.1103,109.899 42.5,108.5 Z"/></g>
<g><path style="opacity:1" fill="#da737a" d="M 42.5,108.5 C 43.4614,110.265 43.7947,112.265 43.5,114.5C 41.8333,114.5 40.1667,114.5 38.5,114.5C 38.5,113.833 38.8333,113.5 39.5,113.5C 40.5,113.5 41.5,113.5 42.5,113.5C 42.5,111.833 42.5,110.167 42.5,108.5 Z"/></g>
<g><path style="opacity:1" fill="#ca3943" d="M 52.5,114.5 C 54.1667,114.5 55.8333,114.5 57.5,114.5C 57.5,119.833 57.5,125.167 57.5,130.5C 55.8333,130.5 54.1667,130.5 52.5,130.5C 52.5,125.167 52.5,119.833 52.5,114.5 Z"/></g>
<g><path style="opacity:1" fill="#e6a1a6" d="M 43.5,138.5 C 45.1667,138.5 46.8333,138.5 48.5,138.5C 48.5,141.167 48.5,143.833 48.5,146.5C 50.099,146.232 51.4324,146.566 52.5,147.5C 50.8333,147.5 49.1667,147.5 47.5,147.5C 47.5,144.833 47.5,142.167 47.5,139.5C 45.901,139.768 44.5676,139.434 43.5,138.5 Z"/></g>
<g><path style="opacity:1" fill="#eebdc1" d="M 67.5,130.5 C 67.5,133.5 67.5,136.5 67.5,139.5C 65.8333,139.5 64.1667,139.5 62.5,139.5C 62.5,142.167 62.5,144.833 62.5,147.5C 60.8333,147.5 59.1667,147.5 57.5,147.5C 58.5676,146.566 59.901,146.232 61.5,146.5C 61.5,143.833 61.5,141.167 61.5,138.5C 63.1667,138.5 64.8333,138.5 66.5,138.5C 66.1936,135.615 66.5269,132.948 67.5,130.5 Z"/></g>
<g><path style="opacity:1" fill="#e7a5ab" d="M 100.5,130.5 C 101.473,132.948 101.806,135.615 101.5,138.5C 103.167,138.5 104.833,138.5 106.5,138.5C 106.5,141.167 106.5,143.833 106.5,146.5C 107.833,146.5 109.167,146.5 110.5,146.5C 109.081,147.451 107.415,147.784 105.5,147.5C 105.5,144.833 105.5,142.167 105.5,139.5C 103.833,139.5 102.167,139.5 100.5,139.5C 100.5,136.5 100.5,133.5 100.5,130.5 Z"/></g>
<g><path style="opacity:0.986" fill="#fefafb" d="M 42.5,171.5 C 43.4767,174.287 43.81,177.287 43.5,180.5C 41.8333,180.5 40.1667,180.5 38.5,180.5C 38.5,183.167 38.5,185.833 38.5,188.5C 36.8333,188.5 35.1667,188.5 33.5,188.5C 33.5,191.167 33.5,193.833 33.5,196.5C 31.8333,196.5 30.1667,196.5 28.5,196.5C 28.5,199.167 28.5,201.833 28.5,204.5C 26.8333,204.5 25.1667,204.5 23.5,204.5C 23.5,207.167 23.5,209.833 23.5,212.5C 21.8333,212.5 20.1667,212.5 18.5,212.5C 18.5,215.167 18.5,217.833 18.5,220.5C 16.8333,220.5 15.1667,220.5 13.5,220.5C 13.5,217.833 13.5,215.167 13.5,212.5C 12.1667,212.5 10.8333,212.5 9.5,212.5C 9.5,209.833 9.5,207.167 9.5,204.5C 7.83333,204.5 6.16667,204.5 4.5,204.5C 4.76781,202.901 4.43448,201.568 3.5,200.5C 4.85323,193.754 6.51989,187.087 8.5,180.5C 10.1667,180.5 11.8333,180.5 13.5,180.5C 13.5,183.167 13.5,185.833 13.5,188.5C 15.5,188.5 17.5,188.5 19.5,188.5C 19.5,185.833 19.5,183.167 19.5,180.5C 21.099,180.768 22.4324,180.434 23.5,179.5C 23.5,176.833 23.5,174.167 23.5,171.5C 25.1667,171.5 26.8333,171.5 28.5,171.5C 28.5,168.833 28.5,166.167 28.5,163.5C 25.1667,163.5 21.8333,163.5 18.5,163.5C 18.5,160.833 18.5,158.167 18.5,155.5C 23.5,155.5 28.5,155.5 33.5,155.5C 33.5,158.167 33.5,160.833 33.5,163.5C 35.1667,163.5 36.8333,163.5 38.5,163.5C 38.5,166.167 38.5,168.833 38.5,171.5C 39.8333,171.5 41.1667,171.5 42.5,171.5 Z"/></g>
<g><path style="opacity:1" fill="#fefafa" d="M 91.5,187.5 C 92.9187,188.451 94.5853,188.784 96.5,188.5C 96.5,185.833 96.5,183.167 96.5,180.5C 98.099,180.768 99.4324,180.434 100.5,179.5C 101.468,177.393 101.802,175.059 101.5,172.5C 103.099,172.768 104.432,172.434 105.5,171.5C 105.5,168.833 105.5,166.167 105.5,163.5C 107.167,163.5 108.833,163.5 110.5,163.5C 110.5,168.833 110.5,174.167 110.5,179.5C 108.833,179.5 107.167,179.5 105.5,179.5C 105.5,182.5 105.5,185.5 105.5,188.5C 107.167,188.5 108.833,188.5 110.5,188.5C 110.5,191.167 110.5,193.833 110.5,196.5C 108.833,196.5 107.167,196.5 105.5,196.5C 105.5,199.167 105.5,201.833 105.5,204.5C 103.833,204.5 102.167,204.5 100.5,204.5C 100.5,207.167 100.5,209.833 100.5,212.5C 99.1667,212.5 97.8333,212.5 96.5,212.5C 95.5269,214.948 95.1936,217.615 95.5,220.5C 94.1667,220.5 92.8333,220.5 91.5,220.5C 91.5,217.833 91.5,215.167 91.5,212.5C 89.8333,212.5 88.1667,212.5 86.5,212.5C 86.5,209.833 86.5,207.167 86.5,204.5C 84.8333,204.5 83.1667,204.5 81.5,204.5C 81.5,201.833 81.5,199.167 81.5,196.5C 79.8333,196.5 78.1667,196.5 76.5,196.5C 76.5,193.833 76.5,191.167 76.5,188.5C 74.901,188.768 73.5676,188.434 72.5,187.5C 72.5,184.833 72.5,182.167 72.5,179.5C 70.8333,179.5 69.1667,179.5 67.5,179.5C 67.5,176.833 67.5,174.167 67.5,171.5C 69.1667,171.5 70.8333,171.5 72.5,171.5C 72.5,168.833 72.5,166.167 72.5,163.5C 73.8333,163.5 75.1667,163.5 76.5,163.5C 76.5,160.833 76.5,158.167 76.5,155.5C 81.5,155.5 86.5,155.5 91.5,155.5C 91.5,158.167 91.5,160.833 91.5,163.5C 88.1667,163.5 84.8333,163.5 81.5,163.5C 81.5,166.167 81.5,168.833 81.5,171.5C 83.1667,171.5 84.8333,171.5 86.5,171.5C 86.5,174.167 86.5,176.833 86.5,179.5C 88.1667,179.5 89.8333,179.5 91.5,179.5C 91.5,182.167 91.5,184.833 91.5,187.5 Z"/></g>
<g><path style="opacity:1" fill="#e8a7ac" d="M 105.5,171.5 C 104.432,172.434 103.099,172.768 101.5,172.5C 101.802,175.059 101.468,177.393 100.5,179.5C 100.5,176.833 100.5,174.167 100.5,171.5C 102.167,171.5 103.833,171.5 105.5,171.5 Z"/></g>
<g><path style="opacity:1" fill="#e6a0a6" d="M 8.5,180.5 C 8.5,180.167 8.5,179.833 8.5,179.5C 10.5,179.5 12.5,179.5 14.5,179.5C 14.5,182.167 14.5,184.833 14.5,187.5C 15.8333,187.5 17.1667,187.5 18.5,187.5C 18.5,184.833 18.5,182.167 18.5,179.5C 20.1667,179.5 21.8333,179.5 23.5,179.5C 22.4324,180.434 21.099,180.768 19.5,180.5C 19.5,183.167 19.5,185.833 19.5,188.5C 17.5,188.5 15.5,188.5 13.5,188.5C 13.5,185.833 13.5,183.167 13.5,180.5C 11.8333,180.5 10.1667,180.5 8.5,180.5 Z"/></g>
<g><path style="opacity:1" fill="#e7a4aa" d="M 42.5,171.5 C 43.4767,174.287 43.81,177.287 43.5,180.5C 41.8333,180.5 40.1667,180.5 38.5,180.5C 38.5,183.167 38.5,185.833 38.5,188.5C 36.8333,188.5 35.1667,188.5 33.5,188.5C 34.5676,187.566 35.901,187.232 37.5,187.5C 37.5,184.833 37.5,182.167 37.5,179.5C 39.1667,179.5 40.8333,179.5 42.5,179.5C 42.5,176.833 42.5,174.167 42.5,171.5 Z"/></g>
<g><path style="opacity:1" fill="#dd7f87" d="M 67.5,179.5 C 69.1667,179.5 70.8333,179.5 72.5,179.5C 72.5,182.167 72.5,184.833 72.5,187.5C 71.5318,185.393 71.1984,183.059 71.5,180.5C 69.901,180.768 68.5676,180.434 67.5,179.5 Z"/></g>
<g><path style="opacity:1" fill="#df848b" d="M 100.5,179.5 C 99.4324,180.434 98.099,180.768 96.5,180.5C 96.5,183.167 96.5,185.833 96.5,188.5C 94.5853,188.784 92.9187,188.451 91.5,187.5C 92.8333,187.5 94.1667,187.5 95.5,187.5C 95.5,184.833 95.5,182.167 95.5,179.5C 97.1667,179.5 98.8333,179.5 100.5,179.5 Z"/></g>
<g><path style="opacity:1" fill="#db7a82" d="M 110.5,179.5 C 109.432,180.434 108.099,180.768 106.5,180.5C 106.5,182.833 106.5,185.167 106.5,187.5C 108.099,187.232 109.432,187.566 110.5,188.5C 108.833,188.5 107.167,188.5 105.5,188.5C 105.5,185.5 105.5,182.5 105.5,179.5C 107.167,179.5 108.833,179.5 110.5,179.5 Z"/></g>
<g><path style="opacity:1" fill="#fdf9f9" d="M 72.5,220.5 C 73.5676,221.434 74.901,221.768 76.5,221.5C 76.5,224.167 76.5,226.833 76.5,229.5C 78.1667,229.5 79.8333,229.5 81.5,229.5C 81.5,242.833 81.5,256.167 81.5,269.5C 79.8333,269.5 78.1667,269.5 76.5,269.5C 76.5,272.5 76.5,275.5 76.5,278.5C 75.1667,278.5 73.8333,278.5 72.5,278.5C 72.5,281.167 72.5,283.833 72.5,286.5C 70.8333,286.5 69.1667,286.5 67.5,286.5C 67.5,289.167 67.5,291.833 67.5,294.5C 65.8333,294.5 64.1667,294.5 62.5,294.5C 62.5,297.167 62.5,299.833 62.5,302.5C 60.8333,302.5 59.1667,302.5 57.5,302.5C 57.5,305.5 57.5,308.5 57.5,311.5C 55.8333,311.5 54.1667,311.5 52.5,311.5C 52.5,308.5 52.5,305.5 52.5,302.5C 50.8333,302.5 49.1667,302.5 47.5,302.5C 47.5,299.833 47.5,297.167 47.5,294.5C 45.8333,294.5 44.1667,294.5 42.5,294.5C 42.5,291.833 42.5,289.167 42.5,286.5C 41.1667,286.5 39.8333,286.5 38.5,286.5C 38.5,283.833 38.5,281.167 38.5,278.5C 36.8333,278.5 35.1667,278.5 33.5,278.5C 33.5,275.5 33.5,272.5 33.5,269.5C 31.8333,269.5 30.1667,269.5 28.5,269.5C 28.5,256.167 28.5,242.833 28.5,229.5C 30.1667,229.5 31.8333,229.5 33.5,229.5C 33.5,226.5 33.5,223.5 33.5,220.5C 35.1667,220.5 36.8333,220.5 38.5,220.5C 38.5,217.833 38.5,215.167 38.5,212.5C 39.8333,212.5 41.1667,212.5 42.5,212.5C 42.5,209.833 42.5,207.167 42.5,204.5C 44.1667,204.5 45.8333,204.5 47.5,204.5C 47.5,201.833 47.5,199.167 47.5,196.5C 49.1667,196.5 50.8333,196.5 52.5,196.5C 52.5,193.5 52.5,190.5 52.5,187.5C 54.1667,187.5 55.8333,187.5 57.5,187.5C 57.5,190.5 57.5,193.5 57.5,196.5C 59.1667,196.5 60.8333,196.5 62.5,196.5C 62.5,199.167 62.5,201.833 62.5,204.5C 64.1667,204.5 65.8333,204.5 67.5,204.5C 67.5,207.167 67.5,209.833 67.5,212.5C 69.1667,212.5 70.8333,212.5 72.5,212.5C 72.5,215.167 72.5,217.833 72.5,220.5 Z"/></g>
<g><path style="opacity:1" fill="#ca3a45" d="M 52.5,204.5 C 54.1667,204.5 55.8333,204.5 57.5,204.5C 57.5,207.167 57.5,209.833 57.5,212.5C 55.8333,212.5 54.1667,212.5 52.5,212.5C 52.5,209.833 52.5,207.167 52.5,204.5 Z"/></g>
<g><path style="opacity:1" fill="#e6a1a6" d="M 96.5,212.5 C 96.5,215.5 96.5,218.5 96.5,221.5C 94.5853,221.784 92.9187,221.451 91.5,220.5C 92.8333,220.5 94.1667,220.5 95.5,220.5C 95.1936,217.615 95.5269,214.948 96.5,212.5 Z"/></g>
<g><path style="opacity:0.96" fill="#fefefe" d="M 0.5,221.5 C 1.5,221.5 2.5,221.5 3.5,221.5C 3.5,224.167 3.5,226.833 3.5,229.5C 5.16667,229.5 6.83333,229.5 8.5,229.5C 8.1936,232.385 8.52693,235.052 9.5,237.5C 10.8333,237.5 12.1667,237.5 13.5,237.5C 13.5,240.167 13.5,242.833 13.5,245.5C 15.1667,245.5 16.8333,245.5 18.5,245.5C 18.5,248.167 18.5,250.833 18.5,253.5C 17.1667,253.5 15.8333,253.5 14.5,253.5C 13.5269,255.948 13.1936,258.615 13.5,261.5C 11.8333,261.5 10.1667,261.5 8.5,261.5C 8.5,264.167 8.5,266.833 8.5,269.5C 6.90097,269.232 5.56764,269.566 4.5,270.5C 4.5,273.167 4.5,275.833 4.5,278.5C 3.16667,278.5 1.83333,278.5 0.5,278.5C 0.784479,276.585 0.451145,274.919 -0.5,273.5C -0.5,257.5 -0.5,241.5 -0.5,225.5C 0.434475,224.432 0.767809,223.099 0.5,221.5 Z"/></g>
<g><path style="opacity:1" fill="#fefdfd" d="M 110.5,221.5 C 110.5,240.5 110.5,259.5 110.5,278.5C 108.833,278.5 107.167,278.5 105.5,278.5C 105.5,275.833 105.5,273.167 105.5,270.5C 104.432,269.566 103.099,269.232 101.5,269.5C 101.5,266.833 101.5,264.167 101.5,261.5C 99.8333,261.5 98.1667,261.5 96.5,261.5C 96.5,258.833 96.5,256.167 96.5,253.5C 94.8333,253.5 93.1667,253.5 91.5,253.5C 91.5,250.833 91.5,248.167 91.5,245.5C 93.1667,245.5 94.8333,245.5 96.5,245.5C 96.5,242.833 96.5,240.167 96.5,237.5C 97.8333,237.5 99.1667,237.5 100.5,237.5C 101.473,235.052 101.806,232.385 101.5,229.5C 103.167,229.5 104.833,229.5 106.5,229.5C 106.5,226.833 106.5,224.167 106.5,221.5C 107.833,221.5 109.167,221.5 110.5,221.5 Z"/></g>
<g><path style="opacity:1" fill="#e3969d" d="M 52.5,229.5 C 50.8333,229.5 49.1667,229.5 47.5,229.5C 47.5,226.833 47.5,224.167 47.5,221.5C 46.1667,221.5 44.8333,221.5 43.5,221.5C 43.5,226.833 43.5,232.167 43.5,237.5C 42.5111,232.025 42.1778,226.358 42.5,220.5C 44.5,220.5 46.5,220.5 48.5,220.5C 48.5,223.167 48.5,225.833 48.5,228.5C 50.099,228.232 51.4324,228.566 52.5,229.5 Z"/></g>
<g><path style="opacity:1" fill="#c8333f" d="M 52.5,229.5 C 52.5,232.167 52.5,234.833 52.5,237.5C 54.1667,237.5 55.8333,237.5 57.5,237.5C 57.5,234.833 57.5,232.167 57.5,229.5C 59.1667,229.5 60.8333,229.5 62.5,229.5C 62.5,226.833 62.5,224.167 62.5,221.5C 63.8333,221.5 65.1667,221.5 66.5,221.5C 66.5,226.5 66.5,231.5 66.5,236.5C 64.901,236.232 63.5676,236.566 62.5,237.5C 62.5,240.167 62.5,242.833 62.5,245.5C 60.8333,245.5 59.1667,245.5 57.5,245.5C 57.5,248.167 57.5,250.833 57.5,253.5C 59.1667,253.5 60.8333,253.5 62.5,253.5C 62.5,256.167 62.5,258.833 62.5,261.5C 63.5676,262.434 64.901,262.768 66.5,262.5C 66.5,267.5 66.5,272.5 66.5,277.5C 65.1667,277.5 63.8333,277.5 62.5,277.5C 62.5,274.833 62.5,272.167 62.5,269.5C 60.8333,269.5 59.1667,269.5 57.5,269.5C 57.5,266.833 57.5,264.167 57.5,261.5C 55.8333,261.5 54.1667,261.5 52.5,261.5C 52.5,264.167 52.5,266.833 52.5,269.5C 50.8333,269.5 49.1667,269.5 47.5,269.5C 47.5,272.167 47.5,274.833 47.5,277.5C 46.1667,277.5 44.8333,277.5 43.5,277.5C 43.5,272.5 43.5,267.5 43.5,262.5C 45.099,262.768 46.4324,262.434 47.5,261.5C 47.5,258.833 47.5,256.167 47.5,253.5C 49.1667,253.5 50.8333,253.5 52.5,253.5C 52.5,250.833 52.5,248.167 52.5,245.5C 50.8333,245.5 49.1667,245.5 47.5,245.5C 47.5,242.833 47.5,240.167 47.5,237.5C 46.1667,237.5 44.8333,237.5 43.5,237.5C 43.5,232.167 43.5,226.833 43.5,221.5C 44.8333,221.5 46.1667,221.5 47.5,221.5C 47.5,224.167 47.5,226.833 47.5,229.5C 49.1667,229.5 50.8333,229.5 52.5,229.5 Z"/></g>
<g><path style="opacity:1" fill="#d76a73" d="M 62.5,221.5 C 63.9187,220.549 65.5853,220.216 67.5,220.5C 67.5,226.167 67.5,231.833 67.5,237.5C 65.8333,237.5 64.1667,237.5 62.5,237.5C 63.5676,236.566 64.901,236.232 66.5,236.5C 66.5,231.5 66.5,226.5 66.5,221.5C 65.1667,221.5 63.8333,221.5 62.5,221.5 Z"/></g>
<g><path style="opacity:1" fill="#df878e" d="M 72.5,220.5 C 74.1667,220.5 75.8333,220.5 77.5,220.5C 77.5,223.167 77.5,225.833 77.5,228.5C 79.099,228.232 80.4324,228.566 81.5,229.5C 79.8333,229.5 78.1667,229.5 76.5,229.5C 76.5,226.833 76.5,224.167 76.5,221.5C 74.901,221.768 73.5676,221.434 72.5,220.5 Z"/></g>
<g><path style="opacity:1" fill="#edb9be" d="M 0.5,221.5 C 0.5,221.167 0.5,220.833 0.5,220.5C 1.83333,220.5 3.16667,220.5 4.5,220.5C 4.5,223.167 4.5,225.833 4.5,228.5C 6.16667,228.5 7.83333,228.5 9.5,228.5C 9.5,231.5 9.5,234.5 9.5,237.5C 8.52693,235.052 8.1936,232.385 8.5,229.5C 6.83333,229.5 5.16667,229.5 3.5,229.5C 3.5,226.833 3.5,224.167 3.5,221.5C 2.5,221.5 1.5,221.5 0.5,221.5 Z"/></g>
<g><path style="opacity:1" fill="#e6a3a8" d="M 110.5,221.5 C 109.167,221.5 107.833,221.5 106.5,221.5C 106.5,224.167 106.5,226.833 106.5,229.5C 104.833,229.5 103.167,229.5 101.5,229.5C 101.806,232.385 101.473,235.052 100.5,237.5C 100.5,234.5 100.5,231.5 100.5,228.5C 102.167,228.5 103.833,228.5 105.5,228.5C 105.5,225.833 105.5,223.167 105.5,220.5C 107.415,220.216 109.081,220.549 110.5,221.5 Z"/></g>
<g><path style="opacity:1" fill="#ca3944" d="M 33.5,245.5 C 35.1667,245.5 36.8333,245.5 38.5,245.5C 38.5,248.167 38.5,250.833 38.5,253.5C 36.8333,253.5 35.1667,253.5 33.5,253.5C 33.5,250.833 33.5,248.167 33.5,245.5 Z"/></g>
<g><path style="opacity:1" fill="#c62c39" d="M 72.5,245.5 C 73.8333,245.5 75.1667,245.5 76.5,245.5C 76.5,248.167 76.5,250.833 76.5,253.5C 75.1667,253.5 73.8333,253.5 72.5,253.5C 72.5,250.833 72.5,248.167 72.5,245.5 Z"/></g>
<g><path style="opacity:1" fill="#e7a4a9" d="M 14.5,253.5 C 14.5,256.5 14.5,259.5 14.5,262.5C 12.8333,262.5 11.1667,262.5 9.5,262.5C 9.5,265.167 9.5,267.833 9.5,270.5C 7.83333,270.5 6.16667,270.5 4.5,270.5C 5.56764,269.566 6.90097,269.232 8.5,269.5C 8.5,266.833 8.5,264.167 8.5,261.5C 10.1667,261.5 11.8333,261.5 13.5,261.5C 13.1936,258.615 13.5269,255.948 14.5,253.5 Z"/></g>
<g><path style="opacity:1" fill="#e29197" d="M 47.5,261.5 C 46.4324,262.434 45.099,262.768 43.5,262.5C 43.5,267.5 43.5,272.5 43.5,277.5C 44.8333,277.5 46.1667,277.5 47.5,277.5C 47.5,274.833 47.5,272.167 47.5,269.5C 49.1667,269.5 50.8333,269.5 52.5,269.5C 51.4324,270.434 50.099,270.768 48.5,270.5C 48.5,273.167 48.5,275.833 48.5,278.5C 46.5,278.5 44.5,278.5 42.5,278.5C 42.5,272.833 42.5,267.167 42.5,261.5C 44.1667,261.5 45.8333,261.5 47.5,261.5 Z"/></g>
<g><path style="opacity:1" fill="#d76a73" d="M 62.5,261.5 C 64.1667,261.5 65.8333,261.5 67.5,261.5C 67.5,267.167 67.5,272.833 67.5,278.5C 65.5853,278.784 63.9187,278.451 62.5,277.5C 63.8333,277.5 65.1667,277.5 66.5,277.5C 66.5,272.5 66.5,267.5 66.5,262.5C 64.901,262.768 63.5676,262.434 62.5,261.5 Z"/></g>
<g><path style="opacity:1" fill="#e29399" d="M 96.5,261.5 C 98.1667,261.5 99.8333,261.5 101.5,261.5C 101.5,264.167 101.5,266.833 101.5,269.5C 103.099,269.232 104.432,269.566 105.5,270.5C 103.833,270.5 102.167,270.5 100.5,270.5C 100.5,267.833 100.5,265.167 100.5,262.5C 98.901,262.768 97.5676,262.434 96.5,261.5 Z"/></g>
<g><path style="opacity:1" fill="#dc7e86" d="M 81.5,269.5 C 80.4324,270.434 79.099,270.768 77.5,270.5C 77.8064,273.385 77.4731,276.052 76.5,278.5C 76.5,275.5 76.5,272.5 76.5,269.5C 78.1667,269.5 79.8333,269.5 81.5,269.5 Z"/></g>
<g><path style="opacity:0.986" fill="#fdf9f9" d="M 33.5,343.5 C 28.8333,343.5 24.1667,343.5 19.5,343.5C 19.5,340.833 19.5,338.167 19.5,335.5C 22.5,335.5 25.5,335.5 28.5,335.5C 28.5,332.833 28.5,330.167 28.5,327.5C 26.8333,327.5 25.1667,327.5 23.5,327.5C 23.5,324.833 23.5,322.167 23.5,319.5C 21.8333,319.5 20.1667,319.5 18.5,319.5C 18.5,316.5 18.5,313.5 18.5,310.5C 16.8561,310.286 15.3561,310.62 14,311.5C 13.5026,314.146 13.3359,316.813 13.5,319.5C 11.8333,319.5 10.1667,319.5 8.5,319.5C 6.67596,312.537 5.0093,305.537 3.5,298.5C 4.43448,297.432 4.76781,296.099 4.5,294.5C 6.16667,294.5 7.83333,294.5 9.5,294.5C 9.5,291.833 9.5,289.167 9.5,286.5C 10.8333,286.5 12.1667,286.5 13.5,286.5C 13.5,283.833 13.5,281.167 13.5,278.5C 15.1667,278.5 16.8333,278.5 18.5,278.5C 18.5,281.167 18.5,283.833 18.5,286.5C 20.1667,286.5 21.8333,286.5 23.5,286.5C 23.5,289.167 23.5,291.833 23.5,294.5C 25.1667,294.5 26.8333,294.5 28.5,294.5C 28.5,297.167 28.5,299.833 28.5,302.5C 30.1667,302.5 31.8333,302.5 33.5,302.5C 33.5,305.167 33.5,307.833 33.5,310.5C 35.1667,310.5 36.8333,310.5 38.5,310.5C 38.5,313.5 38.5,316.5 38.5,319.5C 39.8333,319.5 41.1667,319.5 42.5,319.5C 42.5,322.167 42.5,324.833 42.5,327.5C 41.1667,327.5 39.8333,327.5 38.5,327.5C 38.5,330.167 38.5,332.833 38.5,335.5C 36.8333,335.5 35.1667,335.5 33.5,335.5C 33.5,338.167 33.5,340.833 33.5,343.5 Z"/></g>
<g><path style="opacity:1" fill="#fdfafa" d="M 110.5,310.5 C 108.833,310.5 107.167,310.5 105.5,310.5C 105.5,313.5 105.5,316.5 105.5,319.5C 107.167,319.5 108.833,319.5 110.5,319.5C 110.5,323.833 110.5,328.167 110.5,332.5C 110.5,333.5 110.5,334.5 110.5,335.5C 108.833,335.5 107.167,335.5 105.5,335.5C 105.5,332.833 105.5,330.167 105.5,327.5C 103.833,327.5 102.167,327.5 100.5,327.5C 100.5,324.833 100.5,322.167 100.5,319.5C 99.1667,319.5 97.8333,319.5 96.5,319.5C 96.5,316.5 96.5,313.5 96.5,310.5C 94.5853,310.216 92.9187,310.549 91.5,311.5C 91.5,314.167 91.5,316.833 91.5,319.5C 89.8333,319.5 88.1667,319.5 86.5,319.5C 86.5,322.167 86.5,324.833 86.5,327.5C 84.8333,327.5 83.1667,327.5 81.5,327.5C 81.5,330.167 81.5,332.833 81.5,335.5C 84.8333,335.5 88.1667,335.5 91.5,335.5C 91.5,338.167 91.5,340.833 91.5,343.5C 86.8333,343.5 82.1667,343.5 77.5,343.5C 77.8064,340.615 77.4731,337.948 76.5,335.5C 75.1667,335.5 73.8333,335.5 72.5,335.5C 72.5,332.833 72.5,330.167 72.5,327.5C 70.8333,327.5 69.1667,327.5 67.5,327.5C 67.5,324.833 67.5,322.167 67.5,319.5C 69.1667,319.5 70.8333,319.5 72.5,319.5C 72.5,316.833 72.5,314.167 72.5,311.5C 73.5676,310.566 74.901,310.232 76.5,310.5C 77.4682,308.393 77.8016,306.059 77.5,303.5C 79.099,303.768 80.4324,303.434 81.5,302.5C 81.5,299.833 81.5,297.167 81.5,294.5C 83.1667,294.5 84.8333,294.5 86.5,294.5C 86.5,291.833 86.5,289.167 86.5,286.5C 88.1667,286.5 89.8333,286.5 91.5,286.5C 91.5,283.833 91.5,281.167 91.5,278.5C 93.1667,278.5 94.8333,278.5 96.5,278.5C 96.5,281.167 96.5,283.833 96.5,286.5C 97.8333,286.5 99.1667,286.5 100.5,286.5C 100.5,289.167 100.5,291.833 100.5,294.5C 102.167,294.5 103.833,294.5 105.5,294.5C 105.5,297.167 105.5,299.833 105.5,302.5C 107.167,302.5 108.833,302.5 110.5,302.5C 110.5,305.167 110.5,307.833 110.5,310.5 Z"/></g>
<g><path style="opacity:1" fill="#cc404b" d="M 52.5,286.5 C 54.1667,286.5 55.8333,286.5 57.5,286.5C 57.5,289.167 57.5,291.833 57.5,294.5C 55.8333,294.5 54.1667,294.5 52.5,294.5C 52.5,291.833 52.5,289.167 52.5,286.5 Z"/></g>
<g><path style="opacity:1" fill="#eab0b5" d="M 81.5,302.5 C 80.4324,303.434 79.099,303.768 77.5,303.5C 77.8016,306.059 77.4682,308.393 76.5,310.5C 76.5,307.833 76.5,305.167 76.5,302.5C 78.1667,302.5 79.8333,302.5 81.5,302.5 Z"/></g>
<g><path style="opacity:1" fill="#db7981" d="M 72.5,311.5 C 72.5,314.167 72.5,316.833 72.5,319.5C 70.8333,319.5 69.1667,319.5 67.5,319.5C 68.5676,318.566 69.901,318.232 71.5,318.5C 71.1984,315.941 71.5318,313.607 72.5,311.5 Z"/></g>
<g><path style="opacity:1" fill="#dc7b82" d="M 91.5,311.5 C 92.9187,310.549 94.5853,310.216 96.5,310.5C 96.5,313.5 96.5,316.5 96.5,319.5C 95.5269,317.052 95.1936,314.385 95.5,311.5C 94.1667,311.5 92.8333,311.5 91.5,311.5 Z"/></g>
<g><path style="opacity:1" fill="#db7880" d="M 110.5,310.5 C 109.432,311.434 108.099,311.768 106.5,311.5C 106.5,313.833 106.5,316.167 106.5,318.5C 108.099,318.232 109.432,318.566 110.5,319.5C 108.833,319.5 107.167,319.5 105.5,319.5C 105.5,316.5 105.5,313.5 105.5,310.5C 107.167,310.5 108.833,310.5 110.5,310.5 Z"/></g>
<g><path style="opacity:0.994" fill="#4aa556" d="M 110.5,332.5 C 235.5,332.5 360.5,332.5 485.5,332.5C 459.059,404.776 410.059,455.276 338.5,484C 317.652,491.713 296.319,496.88 274.5,499.5C 257.833,499.5 241.167,499.5 224.5,499.5C 183.001,494.781 145.001,480.781 110.5,457.5C 110.5,452.5 110.5,447.5 110.5,442.5C 110.5,442.167 110.5,441.833 110.5,441.5C 110.5,439.167 110.5,436.833 110.5,434.5C 110.5,434.167 110.5,433.833 110.5,433.5C 110.5,425.5 110.5,417.5 110.5,409.5C 110.5,406.833 110.5,404.167 110.5,401.5C 110.5,401.167 110.5,400.833 110.5,400.5C 110.5,392.5 110.5,384.5 110.5,376.5C 110.5,373.833 110.5,371.167 110.5,368.5C 110.5,363.167 110.5,357.833 110.5,352.5C 110.5,352.167 110.5,351.833 110.5,351.5C 110.5,346.167 110.5,340.833 110.5,335.5C 110.5,334.5 110.5,333.5 110.5,332.5 Z"/></g>
<g><path style="opacity:1" fill="#de8188" d="M 19.5,335.5 C 19.5,338.167 19.5,340.833 19.5,343.5C 24.1667,343.5 28.8333,343.5 33.5,343.5C 28.6946,344.487 23.6946,344.821 18.5,344.5C 18.19,341.287 18.5233,338.287 19.5,335.5 Z"/></g>
<g><path style="opacity:1" fill="#de8188" d="M 76.5,335.5 C 77.4731,337.948 77.8064,340.615 77.5,343.5C 82.1667,343.5 86.8333,343.5 91.5,343.5C 86.6946,344.487 81.6946,344.821 76.5,344.5C 76.5,341.5 76.5,338.5 76.5,335.5 Z"/></g>
<g><path style="opacity:0.993" fill="#fdf9fa" d="M 105.5,360.5 C 106.473,358.052 106.806,355.385 106.5,352.5C 107.833,352.5 109.167,352.5 110.5,352.5C 110.5,357.833 110.5,363.167 110.5,368.5C 108.833,368.5 107.167,368.5 105.5,368.5C 105.5,371.167 105.5,373.833 105.5,376.5C 107.167,376.5 108.833,376.5 110.5,376.5C 110.5,384.5 110.5,392.5 110.5,400.5C 109.167,400.5 107.833,400.5 106.5,400.5C 106.5,397.833 106.5,395.167 106.5,392.5C 104.833,392.5 103.167,392.5 101.5,392.5C 101.5,389.833 101.5,387.167 101.5,384.5C 99.5,384.5 97.5,384.5 95.5,384.5C 95.5,387.167 95.5,389.833 95.5,392.5C 93.901,392.232 92.5676,392.566 91.5,393.5C 91.5,396.167 91.5,398.833 91.5,401.5C 89.8333,401.5 88.1667,401.5 86.5,401.5C 86.5,404.167 86.5,406.833 86.5,409.5C 88.1667,409.5 89.8333,409.5 91.5,409.5C 91.5,412.167 91.5,414.833 91.5,417.5C 93.1667,417.5 94.8333,417.5 96.5,417.5C 96.5,420.167 96.5,422.833 96.5,425.5C 97.8333,425.5 99.1667,425.5 100.5,425.5C 100.5,422.833 100.5,420.167 100.5,417.5C 102.167,417.5 103.833,417.5 105.5,417.5C 105.5,414.833 105.5,412.167 105.5,409.5C 107.167,409.5 108.833,409.5 110.5,409.5C 110.5,417.5 110.5,425.5 110.5,433.5C 108.833,433.5 107.167,433.5 105.5,433.5C 105.5,436.5 105.5,439.5 105.5,442.5C 107.167,442.5 108.833,442.5 110.5,442.5C 110.5,447.5 110.5,452.5 110.5,457.5C 108.566,456.89 106.899,455.89 105.5,454.5C 105.5,453.167 105.5,451.833 105.5,450.5C 103.833,450.5 102.167,450.5 100.5,450.5C 100.5,447.833 100.5,445.167 100.5,442.5C 99.4324,441.566 98.099,441.232 96.5,441.5C 96.5,438.833 96.5,436.167 96.5,433.5C 94.8333,433.5 93.1667,433.5 91.5,433.5C 91.5,430.833 91.5,428.167 91.5,425.5C 89.8333,425.5 88.1667,425.5 86.5,425.5C 86.5,422.833 86.5,420.167 86.5,417.5C 84.8333,417.5 83.1667,417.5 81.5,417.5C 81.5,420.167 81.5,422.833 81.5,425.5C 79.8333,425.5 78.1667,425.5 76.5,425.5C 76.5,427.167 76.5,428.833 76.5,430.5C 74.8333,429.5 73.5,428.167 72.5,426.5C 72.5,423.5 72.5,420.5 72.5,417.5C 73.8333,417.5 75.1667,417.5 76.5,417.5C 76.5,414.833 76.5,412.167 76.5,409.5C 78.1667,409.5 79.8333,409.5 81.5,409.5C 81.5,406.833 81.5,404.167 81.5,401.5C 80.4324,400.566 79.099,400.232 77.5,400.5C 77.5,397.833 77.5,395.167 77.5,392.5C 75.8333,392.5 74.1667,392.5 72.5,392.5C 72.5,389.833 72.5,387.167 72.5,384.5C 70.8333,384.5 69.1667,384.5 67.5,384.5C 66.5269,386.948 66.1936,389.615 66.5,392.5C 64.8333,392.5 63.1667,392.5 61.5,392.5C 61.5,395.167 61.5,397.833 61.5,400.5C 59.901,400.232 58.5676,400.566 57.5,401.5C 57.5,404.167 57.5,406.833 57.5,409.5C 59.1667,409.5 60.8333,409.5 62.5,409.5C 62.5,411.5 62.5,413.5 62.5,415.5C 58.2157,412.248 54.8824,408.248 52.5,403.5C 52.5,402.167 51.8333,401.5 50.5,401.5C 49.5116,400.205 48.5116,398.872 47.5,397.5C 48.4511,396.081 48.7845,394.415 48.5,392.5C 46.901,392.232 45.5676,392.566 44.5,393.5C 43.5987,392.71 42.9321,391.71 42.5,390.5C 43.4614,388.735 43.7947,386.735 43.5,384.5C 41.901,384.232 40.5676,384.566 39.5,385.5C 37.2651,382.709 35.2651,379.709 33.5,376.5C 35.1667,376.5 36.8333,376.5 38.5,376.5C 38.5,373.833 38.5,371.167 38.5,368.5C 39.8333,368.5 41.1667,368.5 42.5,368.5C 42.5,365.833 42.5,363.167 42.5,360.5C 44.1667,360.5 45.8333,360.5 47.5,360.5C 48.4731,358.052 48.8064,355.385 48.5,352.5C 50.099,352.768 51.4324,352.434 52.5,351.5C 52.5,348.833 52.5,346.167 52.5,343.5C 54.1667,343.5 55.8333,343.5 57.5,343.5C 57.5,346.167 57.5,348.833 57.5,351.5C 59.1667,351.5 60.8333,351.5 62.5,351.5C 62.5,354.5 62.5,357.5 62.5,360.5C 64.1667,360.5 65.8333,360.5 67.5,360.5C 67.5,363.167 67.5,365.833 67.5,368.5C 69.1667,368.5 70.8333,368.5 72.5,368.5C 72.5,371.167 72.5,373.833 72.5,376.5C 73.8333,376.5 75.1667,376.5 76.5,376.5C 76.5,379.167 76.5,381.833 76.5,384.5C 78.1667,384.5 79.8333,384.5 81.5,384.5C 81.5,387.5 81.5,390.5 81.5,393.5C 83.1667,393.5 84.8333,393.5 86.5,393.5C 86.5,390.5 86.5,387.5 86.5,384.5C 88.1667,384.5 89.8333,384.5 91.5,384.5C 91.5,381.833 91.5,379.167 91.5,376.5C 93.1667,376.5 94.8333,376.5 96.5,376.5C 96.5,373.833 96.5,371.167 96.5,368.5C 97.8333,368.5 99.1667,368.5 100.5,368.5C 100.5,365.833 100.5,363.167 100.5,360.5C 102.167,360.5 103.833,360.5 105.5,360.5 Z"/></g>
<g><path style="opacity:1" fill="#e8aaaf" d="M 52.5,351.5 C 51.4324,352.434 50.099,352.768 48.5,352.5C 48.8064,355.385 48.4731,358.052 47.5,360.5C 47.5,357.5 47.5,354.5 47.5,351.5C 49.1667,351.5 50.8333,351.5 52.5,351.5 Z"/></g>
<g><path style="opacity:1" fill="#eaaeb3" d="M 110.5,351.5 C 110.5,351.833 110.5,352.167 110.5,352.5C 109.167,352.5 107.833,352.5 106.5,352.5C 106.806,355.385 106.473,358.052 105.5,360.5C 105.5,357.5 105.5,354.5 105.5,351.5C 107.167,351.5 108.833,351.5 110.5,351.5 Z"/></g>
<g><path style="opacity:1" fill="#cb3c46" d="M 110.5,368.5 C 110.5,371.167 110.5,373.833 110.5,376.5C 108.833,376.5 107.167,376.5 105.5,376.5C 105.5,373.833 105.5,371.167 105.5,368.5C 107.167,368.5 108.833,368.5 110.5,368.5 Z"/></g>
<g><path style="opacity:1" fill="#ca3944" d="M 52.5,368.5 C 54.1667,368.5 55.8333,368.5 57.5,368.5C 57.5,373.833 57.5,379.167 57.5,384.5C 55.8333,384.5 54.1667,384.5 52.5,384.5C 52.5,379.167 52.5,373.833 52.5,368.5 Z"/></g>
<g><path style="opacity:0.988" fill="#c42633" d="M 39.5,385.5 C 40.5,385.5 41.5,385.5 42.5,385.5C 42.5,387.167 42.5,388.833 42.5,390.5C 41.1103,389.101 40.1103,387.434 39.5,385.5 Z"/></g>
<g><path style="opacity:1" fill="#e29299" d="M 39.5,385.5 C 40.5676,384.566 41.901,384.232 43.5,384.5C 43.7947,386.735 43.4614,388.735 42.5,390.5C 42.5,388.833 42.5,387.167 42.5,385.5C 41.5,385.5 40.5,385.5 39.5,385.5 Z"/></g>
<g><path style="opacity:0.992" fill="#c8343f" d="M 67.5,385.5 C 68.8333,385.5 70.1667,385.5 71.5,385.5C 71.1984,388.059 71.5318,390.393 72.5,392.5C 73.5676,393.434 74.901,393.768 76.5,393.5C 76.5,396.167 76.5,398.833 76.5,401.5C 78.1667,401.5 79.8333,401.5 81.5,401.5C 81.5,404.167 81.5,406.833 81.5,409.5C 79.8333,409.5 78.1667,409.5 76.5,409.5C 76.5,412.167 76.5,414.833 76.5,417.5C 75.1667,417.5 73.8333,417.5 72.5,417.5C 72.5,420.5 72.5,423.5 72.5,426.5C 70.5,425.167 68.8333,423.5 67.5,421.5C 67.5,420.167 67.5,418.833 67.5,417.5C 66.1667,417.5 64.8333,417.5 63.5,417.5C 63.1667,416.833 62.8333,416.167 62.5,415.5C 62.5,413.5 62.5,411.5 62.5,409.5C 60.8333,409.5 59.1667,409.5 57.5,409.5C 57.5,406.833 57.5,404.167 57.5,401.5C 59.1667,401.5 60.8333,401.5 62.5,401.5C 62.5,398.833 62.5,396.167 62.5,393.5C 64.1667,393.5 65.8333,393.5 67.5,393.5C 67.5,390.833 67.5,388.167 67.5,385.5 Z"/></g>
<g><path style="opacity:1" fill="#dc7b83" d="M 67.5,385.5 C 67.5,385.167 67.5,384.833 67.5,384.5C 69.1667,384.5 70.8333,384.5 72.5,384.5C 72.5,387.167 72.5,389.833 72.5,392.5C 71.5318,390.393 71.1984,388.059 71.5,385.5C 70.1667,385.5 68.8333,385.5 67.5,385.5 Z"/></g>
<g><path style="opacity:1" fill="#c8313e" d="M 110.5,401.5 C 110.5,404.167 110.5,406.833 110.5,409.5C 108.833,409.5 107.167,409.5 105.5,409.5C 105.5,412.167 105.5,414.833 105.5,417.5C 103.833,417.5 102.167,417.5 100.5,417.5C 100.5,420.167 100.5,422.833 100.5,425.5C 99.1667,425.5 97.8333,425.5 96.5,425.5C 96.5,422.833 96.5,420.167 96.5,417.5C 94.8333,417.5 93.1667,417.5 91.5,417.5C 91.5,414.833 91.5,412.167 91.5,409.5C 89.8333,409.5 88.1667,409.5 86.5,409.5C 86.5,406.833 86.5,404.167 86.5,401.5C 88.1667,401.5 89.8333,401.5 91.5,401.5C 91.5,398.833 91.5,396.167 91.5,393.5C 93.1667,393.5 94.8333,393.5 96.5,393.5C 96.5,390.833 96.5,388.167 96.5,385.5C 97.8333,385.5 99.1667,385.5 100.5,385.5C 100.5,388.167 100.5,390.833 100.5,393.5C 102.167,393.5 103.833,393.5 105.5,393.5C 105.5,396.167 105.5,398.833 105.5,401.5C 107.167,401.5 108.833,401.5 110.5,401.5 Z"/></g>
<g><path style="opacity:1" fill="#e59ea3" d="M 110.5,400.5 C 110.5,400.833 110.5,401.167 110.5,401.5C 108.833,401.5 107.167,401.5 105.5,401.5C 105.5,398.833 105.5,396.167 105.5,393.5C 103.833,393.5 102.167,393.5 100.5,393.5C 100.5,390.833 100.5,388.167 100.5,385.5C 99.1667,385.5 97.8333,385.5 96.5,385.5C 96.5,388.167 96.5,390.833 96.5,393.5C 94.8333,393.5 93.1667,393.5 91.5,393.5C 92.5676,392.566 93.901,392.232 95.5,392.5C 95.5,389.833 95.5,387.167 95.5,384.5C 97.5,384.5 99.5,384.5 101.5,384.5C 101.5,387.167 101.5,389.833 101.5,392.5C 103.167,392.5 104.833,392.5 106.5,392.5C 106.5,395.167 106.5,397.833 106.5,400.5C 107.833,400.5 109.167,400.5 110.5,400.5 Z"/></g>
<g><path style="opacity:1" fill="#e9abb0" d="M 44.5,393.5 C 45.5676,392.566 46.901,392.232 48.5,392.5C 48.7845,394.415 48.4511,396.081 47.5,397.5C 47.5,396.167 47.5,394.833 47.5,393.5C 46.5,393.5 45.5,393.5 44.5,393.5 Z"/></g>
<g><path style="opacity:1" fill="#c52935" d="M 44.5,393.5 C 45.5,393.5 46.5,393.5 47.5,393.5C 47.5,394.833 47.5,396.167 47.5,397.5C 46.5116,396.205 45.5116,394.872 44.5,393.5 Z"/></g>
<g><path style="opacity:1" fill="#f0c5c9" d="M 67.5,384.5 C 67.5,384.833 67.5,385.167 67.5,385.5C 67.5,388.167 67.5,390.833 67.5,393.5C 65.8333,393.5 64.1667,393.5 62.5,393.5C 62.5,396.167 62.5,398.833 62.5,401.5C 60.8333,401.5 59.1667,401.5 57.5,401.5C 58.5676,400.566 59.901,400.232 61.5,400.5C 61.5,397.833 61.5,395.167 61.5,392.5C 63.1667,392.5 64.8333,392.5 66.5,392.5C 66.1936,389.615 66.5269,386.948 67.5,384.5 Z"/></g>
<g><path style="opacity:1" fill="#e8aab0" d="M 72.5,392.5 C 74.1667,392.5 75.8333,392.5 77.5,392.5C 77.5,395.167 77.5,397.833 77.5,400.5C 79.099,400.232 80.4324,400.566 81.5,401.5C 79.8333,401.5 78.1667,401.5 76.5,401.5C 76.5,398.833 76.5,396.167 76.5,393.5C 74.901,393.768 73.5676,393.434 72.5,392.5 Z"/></g>
<g><path style="opacity:0.667" fill="#c42230" d="M 50.5,401.5 C 51.8333,401.5 52.5,402.167 52.5,403.5C 51.5,403.167 50.8333,402.5 50.5,401.5 Z"/></g>
<g><path style="opacity:1" fill="#fbedee" d="M 66.5,401.5 C 68.1667,401.5 69.8333,401.5 71.5,401.5C 71.5,404.167 71.5,406.833 71.5,409.5C 69.8333,409.5 68.1667,409.5 66.5,409.5C 66.5,406.833 66.5,404.167 66.5,401.5 Z"/></g>
<g><path style="opacity:1" fill="#fbeeee" d="M 95.5,401.5 C 97.1667,401.5 98.8333,401.5 100.5,401.5C 100.5,404.167 100.5,406.833 100.5,409.5C 98.8333,409.5 97.1667,409.5 95.5,409.5C 95.5,406.833 95.5,404.167 95.5,401.5 Z"/></g>
<g><path style="opacity:1" fill="#f2cbce" d="M 63.5,417.5 C 64.8333,417.5 66.1667,417.5 67.5,417.5C 67.5,418.833 67.5,420.167 67.5,421.5C 65.8333,420.5 64.5,419.167 63.5,417.5 Z"/></g>
<g><path style="opacity:0.912" fill="#c93641" d="M 91.5,433.5 C 92.5676,434.434 93.901,434.768 95.5,434.5C 95.5,437.167 95.5,439.833 95.5,442.5C 97.1667,442.5 98.8333,442.5 100.5,442.5C 100.5,445.167 100.5,447.833 100.5,450.5C 91.5989,444.934 83.5989,438.267 76.5,430.5C 76.5,428.833 76.5,427.167 76.5,425.5C 78.1667,425.5 79.8333,425.5 81.5,425.5C 81.5,422.833 81.5,420.167 81.5,417.5C 83.1667,417.5 84.8333,417.5 86.5,417.5C 86.5,420.167 86.5,422.833 86.5,425.5C 88.1667,425.5 89.8333,425.5 91.5,425.5C 91.5,428.167 91.5,430.833 91.5,433.5 Z"/></g>
<g><path style="opacity:1" fill="#df838a" d="M 91.5,433.5 C 93.1667,433.5 94.8333,433.5 96.5,433.5C 96.5,436.167 96.5,438.833 96.5,441.5C 98.099,441.232 99.4324,441.566 100.5,442.5C 98.8333,442.5 97.1667,442.5 95.5,442.5C 95.5,439.833 95.5,437.167 95.5,434.5C 93.901,434.768 92.5676,434.434 91.5,433.5 Z"/></g>
<g><path style="opacity:1" fill="#dc7a82" d="M 110.5,433.5 C 110.5,433.833 110.5,434.167 110.5,434.5C 109.167,434.5 107.833,434.5 106.5,434.5C 106.5,436.833 106.5,439.167 106.5,441.5C 107.833,441.5 109.167,441.5 110.5,441.5C 110.5,441.833 110.5,442.167 110.5,442.5C 108.833,442.5 107.167,442.5 105.5,442.5C 105.5,439.5 105.5,436.5 105.5,433.5C 107.167,433.5 108.833,433.5 110.5,433.5 Z"/></g>
<g><path style="opacity:1" fill="#c72c3a" d="M 110.5,434.5 C 110.5,436.833 110.5,439.167 110.5,441.5C 109.167,441.5 107.833,441.5 106.5,441.5C 106.5,439.167 106.5,436.833 106.5,434.5C 107.833,434.5 109.167,434.5 110.5,434.5 Z"/></g>
<g><path style="opacity:0.672" fill="#c72e3b" d="M 100.5,450.5 C 102.167,450.5 103.833,450.5 105.5,450.5C 105.5,451.833 105.5,453.167 105.5,454.5C 103.611,453.396 101.945,452.063 100.5,450.5 Z"/></g>
</svg>
