<?xml version="1.0" encoding="UTF-8"?>
<!DOCTYPE svg PUBLIC "-//W3C//DTD SVG 1.1//EN" "http://www.w3.org/Graphics/SVG/1.1/DTD/svg11.dtd">
<svg xmlns="http://www.w3.org/2000/svg" version="1.1" width="500px" height="500px" style="shape-rendering:geometricPrecision; text-rendering:geometricPrecision; image-rendering:optimizeQuality; fill-rule:evenodd; clip-rule:evenodd" xmlns:xlink="http://www.w3.org/1999/xlink">
<g><path style="opacity:0.996" fill="#fbd016" d="M 225.5,-0.5 C 241.5,-0.5 257.5,-0.5 273.5,-0.5C 362.269,10.9489 428.436,55.6156 472,133.5C 486.559,162.333 495.726,192.666 499.5,224.5C 499.5,232.833 499.5,241.167 499.5,249.5C 391.167,249.5 282.833,249.5 174.5,249.5C 174.5,169.833 174.5,90.1667 174.5,10.5C 191.239,5.15365 208.239,1.48699 225.5,-0.5 Z"/></g>
<g><path style="opacity:0.993" fill="#008650" d="M 174.5,10.5 C 174.5,90.1667 174.5,169.833 174.5,249.5C 174.5,329.167 174.5,408.833 174.5,488.5C 88.5543,459.053 32.7209,400.72 7,313.5C 3.72528,300.168 1.22528,286.834 -0.5,273.5C -0.5,257.5 -0.5,241.5 -0.5,225.5C 11.4543,135.075 57.4543,68.242 137.5,25C 149.423,19.082 161.756,14.2487 174.5,10.5 Z"/></g>
<g><path style="opacity:0.996" fill="#e7112c" d="M 174.5,249.5 C 282.833,249.5 391.167,249.5 499.5,249.5C 499.5,257.833 499.5,266.167 499.5,274.5C 487.764,361.841 443.764,427.341 367.5,471C 338.093,486.083 307.093,495.583 274.5,499.5C 257.833,499.5 241.167,499.5 224.5,499.5C 207.594,497.383 190.927,493.717 174.5,488.5C 174.5,408.833 174.5,329.167 174.5,249.5 Z"/></g>
</svg>
