<?xml version="1.0" encoding="UTF-8"?>
<!DOCTYPE svg PUBLIC "-//W3C//DTD SVG 1.1//EN" "http://www.w3.org/Graphics/SVG/1.1/DTD/svg11.dtd">
<svg xmlns="http://www.w3.org/2000/svg" version="1.1" width="500px" height="500px" style="shape-rendering:geometricPrecision; text-rendering:geometricPrecision; image-rendering:optimizeQuality; fill-rule:evenodd; clip-rule:evenodd" xmlns:xlink="http://www.w3.org/1999/xlink">
<g><path style="opacity:1" fill="#f9d913" d="M 225.5,-0.5 C 241.5,-0.5 257.5,-0.5 273.5,-0.5C 282.578,0.701938 291.578,2.3686 300.5,4.5C 202.025,71.5741 103.025,137.907 3.5,203.5C 21.5526,117.287 70.5526,55.7869 150.5,19C 174.691,8.87002 199.691,2.37002 225.5,-0.5 Z"/></g>
<g><path style="opacity:0.998" fill="#f8f8f8" d="M 300.5,4.5 C 368.854,19.7173 422.354,56.384 461,114.5C 472.593,133.355 481.76,153.355 488.5,174.5C 355.88,261.816 223.547,349.65 91.5,438C 89.9371,438.759 88.9371,439.926 88.5,441.5C 37.1877,397.132 7.52107,341.132 -0.5,273.5C -0.5,257.5 -0.5,241.5 -0.5,225.5C 0.554197,218.122 1.88753,210.789 3.5,203.5C 103.025,137.907 202.025,71.5741 300.5,4.5 Z"/></g>
<g><path style="opacity:1" fill="#060606" d="M 204.5,87.5 C 209.518,95.022 214.185,102.855 218.5,111C 270.56,120.559 301.56,151.393 311.5,203.5C 318.996,207.414 326.329,211.58 333.5,216C 325.667,220.5 317.833,225 310,229.5C 300.516,280.317 270.35,310.484 219.5,320C 214.541,328.084 209.707,336.251 205,344.5C 200.3,336.628 195.8,328.628 191.5,320.5C 141.821,310.154 111.821,280.154 101.5,230.5C 93.6661,225.415 85.6661,220.582 77.5,216C 84.8378,210.996 92.5045,206.496 100.5,202.5C 110.645,151.855 140.979,121.355 191.5,111C 196.09,103.26 200.424,95.4265 204.5,87.5 Z"/></g>
<g><path style="opacity:1" fill="#f8f7f7" d="M 195.5,122.5 C 241.705,120.589 274.205,140.589 293,182.5C 305.83,224.353 295.997,259.853 263.5,289C 230.743,311.747 196.409,314.414 160.5,297C 121.359,271.862 106.526,236.362 116,190.5C 129.197,152.127 155.697,129.46 195.5,122.5 Z"/></g>
<g><path style="opacity:1" fill="#dc181d" d="M 224.5,183.5 C 236.167,184.167 247.833,184.833 259.5,185.5C 253.861,195.483 248.195,205.483 242.5,215.5C 248.5,225.833 254.5,236.167 260.5,246.5C 248.167,247.167 235.833,247.833 223.5,248.5C 217.919,258.664 212.086,268.664 206,278.5C 199.456,268.583 193.29,258.416 187.5,248C 175.486,247.833 163.486,247.333 151.5,246.5C 157.301,236.398 162.967,226.231 168.5,216C 162.955,205.741 157.288,195.575 151.5,185.5C 163.5,184.833 175.5,184.167 187.5,183.5C 194.144,173.561 200.311,163.228 206,152.5C 212.193,162.897 218.359,173.23 224.5,183.5 Z"/></g>
<g><path style="opacity:1" fill="#022a87" d="M 488.5,174.5 C 489.234,175.708 489.567,177.041 489.5,178.5C 489.41,181.152 490.076,183.485 491.5,185.5C 494.041,192.86 495.707,200.527 496.5,208.5C 496.189,213.766 496.855,218.766 498.5,223.5C 498.5,224.167 498.833,224.5 499.5,224.5C 499.5,241.5 499.5,258.5 499.5,275.5C 499.167,275.5 498.833,275.5 498.5,275.5C 497.111,280.269 496.444,285.269 496.5,290.5C 483.358,363.43 446.024,420.264 384.5,461C 350.659,482.096 313.992,494.929 274.5,499.5C 257.833,499.5 241.167,499.5 224.5,499.5C 173.293,493.555 127.96,474.221 88.5,441.5C 88.9371,439.926 89.9371,438.759 91.5,438C 223.547,349.65 355.88,261.816 488.5,174.5 Z"/></g>
<g><path style="opacity:1" fill="#ed9fa1" d="M 187.5,183.5 C 175.5,184.167 163.5,184.833 151.5,185.5C 150.957,185.44 150.624,185.107 150.5,184.5C 162.815,183.501 175.149,183.168 187.5,183.5 Z"/></g>
<g><path style="opacity:1" fill="#ed9ea0" d="M 224.5,183.5 C 236.518,183.168 248.518,183.501 260.5,184.5C 260.376,185.107 260.043,185.44 259.5,185.5C 247.833,184.833 236.167,184.167 224.5,183.5 Z"/></g>
<g><path style="opacity:0.663" fill="#4963a5" d="M 489.5,178.5 C 490.924,180.515 491.59,182.848 491.5,185.5C 490.076,183.485 489.41,181.152 489.5,178.5 Z"/></g>
<g><path style="opacity:0.706" fill="#37549e" d="M 496.5,208.5 C 497.889,213.269 498.556,218.269 498.5,223.5C 496.855,218.766 496.189,213.766 496.5,208.5 Z"/></g>
<g><path style="opacity:0.161" fill="#4d67a9" d="M 498.5,275.5 C 498.556,280.731 497.889,285.731 496.5,290.5C 496.444,285.269 497.111,280.269 498.5,275.5 Z"/></g>
</svg>
