<?xml version="1.0" encoding="UTF-8"?>
<!DOCTYPE svg PUBLIC "-//W3C//DTD SVG 1.1//EN" "http://www.w3.org/Graphics/SVG/1.1/DTD/svg11.dtd">
<svg xmlns="http://www.w3.org/2000/svg" version="1.1" width="500px" height="500px" style="shape-rendering:geometricPrecision; text-rendering:geometricPrecision; image-rendering:optimizeQuality; fill-rule:evenodd; clip-rule:evenodd" xmlns:xlink="http://www.w3.org/1999/xlink">
<g><path style="opacity:0.995" fill="#fdca01" d="M 225.5,-0.5 C 241.5,-0.5 257.5,-0.5 273.5,-0.5C 362.269,10.9489 428.436,55.6156 472,133.5C 486.559,162.333 495.726,192.666 499.5,224.5C 499.5,241.167 499.5,257.833 499.5,274.5C 492.898,330.024 470.898,378.357 433.5,419.5C 316.201,301.701 198.701,184.035 81,66.5C 80.5357,65.9056 80.369,65.2389 80.5,64.5C 121.759,27.3763 170.092,5.70967 225.5,-0.5 Z"/></g>
<g><path style="opacity:0.995" fill="#002395" d="M 80.5,64.5 C 80.369,65.2389 80.5357,65.9056 81,66.5C 198.701,184.035 316.201,301.701 433.5,419.5C 419.621,435.054 403.955,448.387 386.5,459.5C 384.575,452.057 382.241,444.723 379.5,437.5C 388.462,430.678 397.462,423.845 406.5,417C 395.172,416.5 383.838,416.333 372.5,416.5C 369.506,405.685 366.006,395.018 362,384.5C 357.994,395.018 354.494,405.684 351.5,416.5C 340.162,416.333 328.828,416.5 317.5,417C 318.044,417.717 318.711,418.217 319.5,418.5C 327.983,424.582 336.316,430.915 344.5,437.5C 340.797,448.1 337.63,458.767 335,469.5C 344,462.833 353,456.167 362,449.5C 368.177,453.826 374.01,458.492 379.5,463.5C 347.258,483.47 312.258,495.47 274.5,499.5C 257.833,499.5 241.167,499.5 224.5,499.5C 132.596,487.072 65.4294,439.739 23,357.5C 10.7506,330.604 2.91724,302.604 -0.5,273.5C -0.5,257.5 -0.5,241.5 -0.5,225.5C 3.20837,191.042 13.5417,158.708 30.5,128.5C 27.5071,138.142 24.6738,147.808 22,157.5C 30.7466,150.253 39.9132,143.586 49.5,137.5C 59.0868,143.586 68.2534,150.253 77,157.5C 74.6432,147.419 71.6432,137.419 68,127.5C 67.3333,126.167 67.3333,124.833 68,123.5C 76.4414,117.367 84.9414,111.367 93.5,105.5C 94.0431,105.44 94.3764,105.107 94.5,104.5C 83.1862,103.501 71.8529,103.168 60.5,103.5C 59.2266,99.3491 57.5599,95.3491 55.5,91.5C 62.7585,81.5722 71.0918,72.5722 80.5,64.5 Z"/></g>
<g><path style="opacity:0.984" fill="#fafafd" d="M 55.5,91.5 C 57.5599,95.3491 59.2266,99.3491 60.5,103.5C 71.5,104.167 82.5,104.833 93.5,105.5C 84.9414,111.367 76.4414,117.367 68,123.5C 67.3333,124.833 67.3333,126.167 68,127.5C 71.6432,137.419 74.6432,147.419 77,157.5C 68.2534,150.253 59.0868,143.586 49.5,137.5C 39.9132,143.586 30.7466,150.253 22,157.5C 24.6738,147.808 27.5071,138.142 30.5,128.5C 37.1032,114.949 45.4365,102.615 55.5,91.5 Z"/></g>
<g><path style="opacity:1" fill="#425cb0" d="M 60.5,103.5 C 71.8529,103.168 83.1862,103.501 94.5,104.5C 94.3764,105.107 94.0431,105.44 93.5,105.5C 82.5,104.833 71.5,104.167 60.5,103.5 Z"/></g>
<g><path style="opacity:1" fill="#f8f8fc" d="M 111.5,134.5 C 115.936,144.805 119.603,155.472 122.5,166.5C 133.838,166.333 145.172,166.5 156.5,167C 147.462,173.845 138.462,180.678 129.5,187.5C 133.608,197.981 136.775,208.648 139,219.5C 130,212.833 121,206.167 112,199.5C 103,206.167 94,212.833 85,219.5C 87.5317,208.897 90.6984,198.397 94.5,188C 85.7763,180.786 76.7763,173.786 67.5,167C 78.848,166.832 90.1813,166.332 101.5,165.5C 104.838,155.154 108.171,144.821 111.5,134.5 Z"/></g>
<g><path style="opacity:1" fill="#f9fafc" d="M 185.5,228.5 C 196.5,229.167 207.5,229.833 218.5,230.5C 211.046,235.447 203.713,240.614 196.5,246C 194.878,247.295 193.545,248.795 192.5,250.5C 196.209,261.116 199.376,271.783 202,282.5C 193.253,275.253 184.087,268.586 174.5,262.5C 165.245,269.044 156.078,275.711 147,282.5C 149.761,272.539 152.761,262.539 156,252.5C 156.667,251.167 156.667,249.833 156,248.5C 147.559,242.367 139.059,236.367 130.5,230.5C 141.5,229.833 152.5,229.167 163.5,228.5C 166.938,218.191 170.605,207.857 174.5,197.5C 178.395,207.857 182.062,218.191 185.5,228.5 Z"/></g>
<g><path style="opacity:1" fill="#3c57ae" d="M 163.5,228.5 C 152.5,229.167 141.5,229.833 130.5,230.5C 129.957,230.44 129.624,230.107 129.5,229.5C 140.814,228.501 152.147,228.168 163.5,228.5 Z"/></g>
<g><path style="opacity:1" fill="#3d57ae" d="M 185.5,228.5 C 196.853,228.168 208.186,228.501 219.5,229.5C 219.376,230.107 219.043,230.44 218.5,230.5C 207.5,229.833 196.5,229.167 185.5,228.5 Z"/></g>
<g><path style="opacity:1" fill="#f8f8fc" d="M 236.5,259.5 C 240.936,269.805 244.603,280.472 247.5,291.5C 258.838,291.333 270.172,291.5 281.5,292C 272.462,298.845 263.462,305.678 254.5,312.5C 258.608,322.981 261.775,333.648 264,344.5C 255,337.833 246,331.167 237,324.5C 228,331.167 219,337.833 210,344.5C 212.528,333.737 215.695,323.07 219.5,312.5C 210.538,305.678 201.538,298.845 192.5,292C 203.848,291.832 215.181,291.332 226.5,290.5C 229.838,280.154 233.171,269.821 236.5,259.5 Z"/></g>
<g><path style="opacity:1" fill="#f9fafc" d="M 310.5,353.5 C 321.5,354.167 332.5,354.833 343.5,355.5C 336.046,360.447 328.713,365.614 321.5,371C 319.878,372.295 318.545,373.795 317.5,375.5C 321.209,386.116 324.376,396.783 327,407.5C 318.253,400.253 309.087,393.586 299.5,387.5C 290.755,393.956 281.921,400.289 273,406.5C 275.291,396.11 278.125,385.777 281.5,375.5C 280.455,373.795 279.122,372.295 277.5,371C 270.287,365.614 262.954,360.447 255.5,355.5C 266.833,354.833 278.167,354.167 289.5,353.5C 292.029,342.912 295.363,332.579 299.5,322.5C 303.395,332.857 307.062,343.191 310.5,353.5 Z"/></g>
<g><path style="opacity:1" fill="#3f59af" d="M 289.5,353.5 C 278.167,354.167 266.833,354.833 255.5,355.5C 254.957,355.44 254.624,355.107 254.5,354.5C 266.148,353.501 277.814,353.168 289.5,353.5 Z"/></g>
<g><path style="opacity:1" fill="#3d57ae" d="M 310.5,353.5 C 321.853,353.168 333.186,353.501 344.5,354.5C 344.376,355.107 344.043,355.44 343.5,355.5C 332.5,354.833 321.5,354.167 310.5,353.5 Z"/></g>
<g><path style="opacity:0.998" fill="#f9f9fc" d="M 386.5,459.5 C 384.33,461.086 381.996,462.42 379.5,463.5C 374.01,458.492 368.177,453.826 362,449.5C 353,456.167 344,462.833 335,469.5C 337.63,458.767 340.797,448.1 344.5,437.5C 336.316,430.915 327.983,424.582 319.5,418.5C 330.167,417.833 340.833,417.167 351.5,416.5C 354.494,405.684 357.994,395.018 362,384.5C 366.006,395.018 369.506,405.685 372.5,416.5C 383.838,416.333 395.172,416.5 406.5,417C 397.462,423.845 388.462,430.678 379.5,437.5C 382.241,444.723 384.575,452.057 386.5,459.5 Z"/></g>
<g><path style="opacity:1" fill="#b6c0e0" d="M 351.5,416.5 C 340.833,417.167 330.167,417.833 319.5,418.5C 318.711,418.217 318.044,417.717 317.5,417C 328.828,416.5 340.162,416.333 351.5,416.5 Z"/></g>
</svg>
