<?xml version="1.0" encoding="UTF-8"?>
<!DOCTYPE svg PUBLIC "-//W3C//DTD SVG 1.1//EN" "http://www.w3.org/Graphics/SVG/1.1/DTD/svg11.dtd">
<svg xmlns="http://www.w3.org/2000/svg" version="1.1" width="500px" height="500px" style="shape-rendering:geometricPrecision; text-rendering:geometricPrecision; image-rendering:optimizeQuality; fill-rule:evenodd; clip-rule:evenodd" xmlns:xlink="http://www.w3.org/1999/xlink">
<g><path style="opacity:0.994" fill="#74a9da" d="M 225.5,-0.5 C 241.5,-0.5 257.5,-0.5 273.5,-0.5C 369.813,12.3931 438.646,62.7264 480,150.5C 484.672,162.352 488.839,174.352 492.5,186.5C 330.5,186.5 168.5,186.5 6.5,186.5C 33.9422,94.5577 93.6089,34.7244 185.5,7C 198.832,3.72528 212.166,1.22528 225.5,-0.5 Z"/></g>
<g><path style="opacity:0.997" fill="#fbfdfe" d="M 6.5,186.5 C 168.5,186.5 330.5,186.5 492.5,186.5C 494.09,193.448 495.423,200.448 496.5,207.5C 331.833,207.5 167.167,207.5 2.5,207.5C 3.57703,200.448 4.91036,193.448 6.5,186.5 Z"/></g>
<g><path style="opacity:0.998" fill="#020202" d="M 2.5,207.5 C 167.167,207.5 331.833,207.5 496.5,207.5C 497.578,213.277 498.578,218.944 499.5,224.5C 499.5,241.167 499.5,257.833 499.5,274.5C 498.577,280.082 497.577,285.749 496.5,291.5C 331.833,291.5 167.167,291.5 2.5,291.5C 1.49308,285.378 0.493078,279.378 -0.5,273.5C -0.5,257.5 -0.5,241.5 -0.5,225.5C 0.493078,219.622 1.49308,213.622 2.5,207.5 Z"/></g>
<g><path style="opacity:0.997" fill="#fbfdfe" d="M 2.5,291.5 C 167.167,291.5 331.833,291.5 496.5,291.5C 495.423,298.552 494.09,305.552 492.5,312.5C 330.5,312.5 168.5,312.5 6.5,312.5C 4.91036,305.552 3.57703,298.552 2.5,291.5 Z"/></g>
<g><path style="opacity:0.994" fill="#74a9da" d="M 6.5,312.5 C 168.5,312.5 330.5,312.5 492.5,312.5C 465.662,402.838 407.329,462.338 317.5,491C 303.192,494.695 288.859,497.529 274.5,499.5C 257.833,499.5 241.167,499.5 224.5,499.5C 128.696,486.18 60.1964,435.847 19,348.5C 14.3276,336.648 10.1609,324.648 6.5,312.5 Z"/></g>
</svg>
