<?xml version="1.0" encoding="UTF-8"?>
<!DOCTYPE svg PUBLIC "-//W3C//DTD SVG 1.1//EN" "http://www.w3.org/Graphics/SVG/1.1/DTD/svg11.dtd">
<svg xmlns="http://www.w3.org/2000/svg" version="1.1" width="500px" height="500px" style="shape-rendering:geometricPrecision; text-rendering:geometricPrecision; image-rendering:optimizeQuality; fill-rule:evenodd; clip-rule:evenodd" xmlns:xlink="http://www.w3.org/1999/xlink">
<g><path style="opacity:0.989" fill="#019b39" d="M 225.5,-0.5 C 241.5,-0.5 257.5,-0.5 273.5,-0.5C 362.269,10.9489 428.436,55.6156 472,133.5C 485.563,160.356 494.397,188.69 498.5,218.5C 415.387,166.105 332.387,113.438 249.5,60.5C 166.613,113.438 83.6127,166.105 0.5,218.5C 15.5468,125.515 65.5468,59.0153 150.5,19C 174.691,8.87002 199.691,2.37002 225.5,-0.5 Z"/></g>
<g><path style="opacity:0.999" fill="#fdde00" d="M 498.5,218.5 C 498.205,220.735 498.539,222.735 499.5,224.5C 499.5,241.167 499.5,257.833 499.5,274.5C 498.539,276.265 498.205,278.265 498.5,280.5C 415.387,332.895 332.387,385.562 249.5,438.5C 166.613,385.562 83.6127,332.895 0.5,280.5C 0.801552,277.941 0.468218,275.607 -0.5,273.5C -0.5,257.5 -0.5,241.5 -0.5,225.5C 0.468218,223.393 0.801552,221.059 0.5,218.5C 83.6127,166.105 166.613,113.438 249.5,60.5C 332.387,113.438 415.387,166.105 498.5,218.5 Z"/></g>
<g><path style="opacity:1" fill="#022776" d="M 373.5,266.5 C 303.842,210.911 224.508,188.244 135.5,198.5C 156.024,156.169 189.69,131.669 236.5,125C 285.957,122.149 325.124,140.649 354,180.5C 370.587,206.852 377.087,235.519 373.5,266.5 Z"/></g>
<g><path style="opacity:1" fill="#f2f7f6" d="M 373.5,266.5 C 372.342,273.29 370.675,279.957 368.5,286.5C 299.172,227.478 219.172,204.478 128.5,217.5C 130.24,210.947 132.573,204.614 135.5,198.5C 224.508,188.244 303.842,210.911 373.5,266.5 Z"/></g>
<g><path style="opacity:1" fill="#26a046" d="M 139.5,201.5 C 147.346,201.694 149.346,205.194 145.5,212C 136.412,212.426 134.412,208.926 139.5,201.5 Z"/></g>
<g><path style="opacity:1" fill="#34a44d" d="M 193.5,199.5 C 191.283,201.08 188.616,202.08 185.5,202.5C 194.61,203.959 194.61,205.626 185.5,207.5C 188.616,207.92 191.283,208.92 193.5,210.5C 190.167,210.5 186.833,210.5 183.5,210.5C 183.5,206.833 183.5,203.167 183.5,199.5C 186.833,199.5 190.167,199.5 193.5,199.5 Z"/></g>
<g><path style="opacity:1" fill="#eef8f2" d="M 140.5,203.5 C 146.096,204.61 146.762,206.944 142.5,210.5C 139.337,209.075 138.67,206.742 140.5,203.5 Z"/></g>
<g><path style="opacity:1" fill="#23a045" d="M 152.5,199.5 C 155.187,199.336 157.854,199.503 160.5,200C 161.578,200.674 162.245,201.674 162.5,203C 162.025,205.846 161.691,208.68 161.5,211.5C 160.491,208.013 158.158,206.68 154.5,207.5C 154.762,208.978 154.429,210.311 153.5,211.5C 152.509,207.555 152.176,203.555 152.5,199.5 Z"/></g>
<g><path style="opacity:1" fill="#dff2e5" d="M 154.5,201.5 C 156.977,201.051 158.977,201.717 160.5,203.5C 158.604,204.466 156.604,204.799 154.5,204.5C 154.5,203.5 154.5,202.5 154.5,201.5 Z"/></g>
<g><path style="opacity:1" fill="#2ba148" d="M 167.5,198.5 C 177.301,197.442 180.301,201.275 176.5,210C 173.649,211.289 170.649,211.789 167.5,211.5C 167.5,207.167 167.5,202.833 167.5,198.5 Z"/></g>
<g><path style="opacity:1" fill="#ebf7ef" d="M 169.5,201.5 C 172.881,200.888 175.214,202.054 176.5,205C 175.219,208.044 172.885,209.21 169.5,208.5C 169.5,206.167 169.5,203.833 169.5,201.5 Z"/></g>
<g><path style="opacity:1" fill="#83ce9d" d="M 193.5,199.5 C 190.167,199.5 186.833,199.5 183.5,199.5C 183.5,203.167 183.5,206.833 183.5,210.5C 186.833,210.5 190.167,210.5 193.5,210.5C 190.038,211.482 186.371,211.815 182.5,211.5C 182.5,207.167 182.5,202.833 182.5,198.5C 186.371,198.185 190.038,198.518 193.5,199.5 Z"/></g>
<g><path style="opacity:1" fill="#38a854" d="M 198.5,199.5 C 199.822,199.33 200.989,199.663 202,200.5C 203.037,207.565 204.37,207.899 206,201.5C 207.011,200.663 208.178,200.33 209.5,200.5C 209.5,204.5 209.5,208.5 209.5,212.5C 208.5,212.5 207.5,212.5 206.5,212.5C 206.874,207.703 206.208,207.036 204.5,210.5C 203.675,211.386 202.675,211.719 201.5,211.5C 201.473,203.606 200.807,203.606 199.5,211.5C 198.509,207.555 198.176,203.555 198.5,199.5 Z"/></g>
<g><path style="opacity:1" fill="#2fa54e" d="M 223.5,204.5 C 226.572,204.183 229.572,204.516 232.5,205.5C 225.169,206.048 224.835,207.381 231.5,209.5C 223.721,210.96 223.721,212.627 231.5,214.5C 228.588,215.068 225.588,215.068 222.5,214.5C 223.207,211.214 223.54,207.881 223.5,204.5 Z"/></g>
<g><path style="opacity:1" fill="#219f43" d="M 247.5,207.5 C 250.601,207.692 253.601,208.358 256.5,209.5C 257.631,211.074 257.798,212.741 257,214.5C 254.26,215.282 251.426,215.782 248.5,216C 247.953,216.925 247.287,217.758 246.5,218.5C 246.167,218 245.833,217.5 245.5,217C 246.566,213.906 247.232,210.74 247.5,207.5 Z"/></g>
<g><path style="opacity:1" fill="#d9deea" d="M 288.5,206.5 C 289.186,207.848 290.186,209.015 291.5,210C 290.888,211.303 290.554,212.47 290.5,213.5C 289.5,212.167 288.5,212.167 287.5,213.5C 286.738,212.372 286.071,211.205 285.5,210C 287.056,209.28 288.056,208.113 288.5,206.5 Z"/></g>
<g><path style="opacity:1" fill="#eaf7ee" d="M 249.5,210.5 C 251.977,210.051 253.977,210.717 255.5,212.5C 253.926,213.631 252.259,213.798 250.5,213C 249.748,212.329 249.414,211.496 249.5,210.5 Z"/></g>
<g><path style="opacity:1" fill="#022776" d="M 368.5,286.5 C 352.049,334.78 318.716,363.613 268.5,373C 223.438,378.71 185.605,364.877 155,331.5C 127.913,297.815 119.08,259.815 128.5,217.5C 219.172,204.478 299.172,227.478 368.5,286.5 Z"/></g>
<g><path style="opacity:1" fill="#33a650" d="M 262.5,211.5 C 266.033,211.505 269.2,212.505 272,214.5C 271.381,217.708 270.881,221.042 270.5,224.5C 269.5,224.5 268.5,224.5 267.5,224.5C 267.5,222.833 267.5,221.167 267.5,219.5C 265.833,219.5 264.167,219.5 262.5,219.5C 262.101,222.988 261.434,223.154 260.5,220C 261.275,217.178 261.942,214.344 262.5,211.5 Z"/></g>
<g><path style="opacity:1" fill="#e4f4e9" d="M 264.5,213.5 C 266.117,214.038 267.784,214.371 269.5,214.5C 269.5,215.5 269.5,216.5 269.5,217.5C 267.436,217.313 265.436,216.813 263.5,216C 264.252,215.329 264.586,214.496 264.5,213.5 Z"/></g>
<g><path style="opacity:1" fill="#e2e6ef" d="M 146.5,222.5 C 148.048,222.821 148.715,223.821 148.5,225.5C 152.099,225.262 152.433,226.262 149.5,228.5C 150.847,232.11 150.18,232.443 147.5,229.5C 144.82,232.443 144.153,232.11 145.5,228.5C 142.567,226.262 142.901,225.262 146.5,225.5C 146.5,224.5 146.5,223.5 146.5,222.5 Z"/></g>
<g><path style="opacity:1" fill="#31a44d" d="M 279.5,217.5 C 287.605,218.543 289.272,222.377 284.5,229C 277.495,230.324 274.995,227.49 277,220.5C 278.045,219.627 278.878,218.627 279.5,217.5 Z"/></g>
<g><path style="opacity:1" fill="#f4fbf7" d="M 279.5,220.5 C 283.677,219.842 285.177,221.508 284,225.5C 281.486,228.177 279.653,227.677 278.5,224C 278.989,222.862 279.322,221.695 279.5,220.5 Z"/></g>
<g><path style="opacity:1" fill="#2ea34c" d="M 293.5,223.5 C 297.509,222.686 300.176,224.186 301.5,228C 301.167,228.5 300.833,229 300.5,229.5C 299.387,227.969 297.887,226.969 296,226.5C 292.835,227.34 292.001,229.173 293.5,232C 294.5,232.667 295.5,232.667 296.5,232C 295.346,231.086 295.513,230.253 297,229.5C 300.882,231.263 301.049,233.596 297.5,236.5C 289.929,234.069 288.596,229.736 293.5,223.5 Z"/></g>
<g><path style="opacity:1" fill="#33a54f" d="M 306.5,228.5 C 310.182,228.591 313.349,229.924 316,232.5C 316.667,233.5 316.667,234.5 316,235.5C 314.173,237.302 313.006,239.468 312.5,242C 312.167,242.167 311.833,242.333 311.5,242.5C 310.534,240.604 310.201,238.604 310.5,236.5C 307.722,236.022 305.722,237.022 304.5,239.5C 304.167,238.833 303.833,238.167 303.5,237.5C 304.704,234.556 305.704,231.556 306.5,228.5 Z"/></g>
<g><path style="opacity:1" fill="#eef8f2" d="M 307.5,231.5 C 309.827,231.247 311.827,231.914 313.5,233.5C 311.926,234.631 310.259,234.798 308.5,234C 307.748,233.329 307.414,232.496 307.5,231.5 Z"/></g>
<g><path style="opacity:1" fill="#2ea34b" d="M 320.5,235.5 C 324.048,236.607 327.381,238.274 330.5,240.5C 330.192,241.308 329.692,241.975 329,242.5C 320.726,236.942 319.892,237.608 326.5,244.5C 326.167,244.833 325.833,245.167 325.5,245.5C 323.999,244.248 322.332,243.248 320.5,242.5C 320.167,243 319.833,243.5 319.5,244C 320.775,246.071 322.609,247.571 325,248.5C 325.688,249.332 325.521,249.998 324.5,250.5C 321.219,249.375 318.552,247.542 316.5,245C 317.984,241.87 319.317,238.703 320.5,235.5 Z"/></g>
<g><path style="opacity:1" fill="#e5e8f1" d="M 283.5,240.5 C 287.018,241.966 287.185,243.633 284,245.5C 282.831,244.991 281.998,244.158 281.5,243C 282.756,242.583 283.423,241.75 283.5,240.5 Z"/></g>
<g><path style="opacity:1" fill="#32a44d" d="M 334.5,244.5 C 338.361,244.518 341.027,246.351 342.5,250C 342.167,250.5 341.833,251 341.5,251.5C 340.155,250.653 339.155,249.487 338.5,248C 337.5,247.333 336.5,247.333 335.5,248C 342.83,254.653 341.83,257.32 332.5,256C 330.485,254.445 330.152,252.611 331.5,250.5C 332.173,253.997 334.173,255.163 337.5,254C 335.259,252.261 333.592,250.094 332.5,247.5C 333.193,246.482 333.859,245.482 334.5,244.5 Z"/></g>
<g><path style="opacity:1" fill="#d6dbe8" d="M 201.5,250.5 C 202.604,251.997 203.604,253.664 204.5,255.5C 204.167,256.167 203.833,256.833 203.5,257.5C 202.5,256.167 201.5,256.167 200.5,257.5C 200.167,256.833 199.833,256.167 199.5,255.5C 200.547,253.944 201.214,252.277 201.5,250.5 Z"/></g>
<g><path style="opacity:1" fill="#2da249" d="M 346.5,253.5 C 351.136,252.812 354.136,254.645 355.5,259C 355.167,259.5 354.833,260 354.5,260.5C 353.148,259.482 352.148,258.149 351.5,256.5C 350.391,255.41 349.391,255.41 348.5,256.5C 349.48,257.981 350.647,259.315 352,260.5C 352.494,262.134 352.66,263.801 352.5,265.5C 348.406,266.295 345.239,264.962 343,261.5C 342.251,260.365 342.417,259.365 343.5,258.5C 344.852,259.518 345.852,260.851 346.5,262.5C 347.609,263.59 348.609,263.59 349.5,262.5C 348.826,260.483 347.659,258.817 346,257.5C 345.421,256.072 345.588,254.738 346.5,253.5 Z"/></g>
<g><path style="opacity:1" fill="#30a44c" d="M 359.5,263.5 C 366,262.499 368.5,265.165 367,271.5C 364.078,276.233 360.745,276.566 357,272.5C 356.131,269.007 356.964,266.007 359.5,263.5 Z"/></g>
<g><path style="opacity:1" fill="#e9f6ed" d="M 361.5,265.5 C 366.821,267.805 366.821,270.139 361.5,272.5C 359.734,272.566 358.734,271.732 358.5,270C 359.315,268.357 360.315,266.857 361.5,265.5 Z"/></g>
<g><path style="opacity:1" fill="#cfd6e5" d="M 248.5,266.5 C 254.567,268.647 254.233,270.98 247.5,273.5C 247.968,271.887 247.301,270.387 245.5,269C 247.119,268.764 248.119,267.931 248.5,266.5 Z"/></g>
<g><path style="opacity:1" fill="#ccd3e3" d="M 157.5,275.5 C 159.339,276.582 161.339,277.415 163.5,278C 162.134,279.6 161.134,281.433 160.5,283.5C 159.167,282.167 157.833,282.167 156.5,283.5C 155.41,282.609 155.41,281.609 156.5,280.5C 155.5,279.667 154.5,278.833 153.5,278C 155.437,277.878 156.77,277.045 157.5,275.5 Z"/></g>
<g><path style="opacity:1" fill="#dde1ec" d="M 263.5,277.5 C 264.534,278.687 265.867,279.52 267.5,280C 266.773,281.399 266.273,282.899 266,284.5C 264.667,283.167 263.333,283.167 262,284.5C 261.727,282.899 261.227,281.399 260.5,280C 262.119,279.764 263.119,278.931 263.5,277.5 Z"/></g>
<g><path style="opacity:1" fill="#d2d7e6" d="M 236.5,278.5 C 237.766,279.09 239.099,279.59 240.5,280C 239.299,280.903 238.465,282.069 238,283.5C 237.333,282.167 236.667,282.167 236,283.5C 235.535,282.069 234.701,280.903 233.5,280C 234.737,279.768 235.737,279.268 236.5,278.5 Z"/></g>
<g><path style="opacity:0.99" fill="#019b39" d="M 0.5,280.5 C 83.6127,332.895 166.613,385.562 249.5,438.5C 332.387,385.562 415.387,332.895 498.5,280.5C 483.941,373.838 433.941,440.338 348.5,480C 324.625,489.967 299.958,496.467 274.5,499.5C 257.833,499.5 241.167,499.5 224.5,499.5C 136.144,487.759 70.3107,443.092 27,365.5C 13.4339,338.636 4.60062,310.302 0.5,280.5 Z"/></g>
<g><path style="opacity:1" fill="#d1d7e6" d="M 184.5,288.5 C 185.309,289.469 186.309,290.302 187.5,291C 186.888,292.303 186.554,293.47 186.5,294.5C 185.5,293.167 184.5,293.167 183.5,294.5C 182.738,293.372 182.071,292.205 181.5,291C 183.119,290.764 184.119,289.931 184.5,288.5 Z"/></g>
<g><path style="opacity:1" fill="#dadfeb" d="M 336.5,288.5 C 337.427,290.576 339.093,291.743 341.5,292C 340.228,293.307 339.228,294.807 338.5,296.5C 337.038,295.529 335.705,295.862 334.5,297.5C 335.019,295.564 334.353,293.731 332.5,292C 333.793,291.51 335.127,291.343 336.5,291.5C 336.5,290.5 336.5,289.5 336.5,288.5 Z"/></g>
<g><path style="opacity:1" fill="#dfe4ee" d="M 142.5,287.5 C 143.683,288.504 145.016,289.338 146.5,290C 145.663,291.011 145.33,292.178 145.5,293.5C 142.755,293.627 140.755,292.46 139.5,290C 141.119,289.764 142.119,288.931 142.5,287.5 Z"/></g>
<g><path style="opacity:1" fill="#cfd5e5" d="M 353.5,291.5 C 357.327,292.436 358.161,294.436 356,297.5C 355,296.167 354,296.167 353,297.5C 352.691,296.234 352.191,295.067 351.5,294C 352.756,293.583 353.423,292.75 353.5,291.5 Z"/></g>
<g><path style="opacity:1" fill="#dee2ed" d="M 180.5,301.5 C 184.187,303.635 183.854,305.635 179.5,307.5C 179.446,306.47 179.112,305.303 178.5,304C 179.756,303.583 180.423,302.75 180.5,301.5 Z"/></g>
<g><path style="opacity:1" fill="#dfe3ed" d="M 341.5,300.5 C 342.316,302.144 343.65,303.31 345.5,304C 344.929,305.205 344.262,306.372 343.5,307.5C 342.094,306.332 340.928,306.665 340,308.5C 340.379,306.925 340.212,305.425 339.5,304C 340.973,303.29 341.64,302.124 341.5,300.5 Z"/></g>
<g><path style="opacity:1" fill="#dee3ed" d="M 248.5,301.5 C 250.048,301.821 250.715,302.821 250.5,304.5C 251.552,304.351 252.552,304.517 253.5,305C 252.751,306.734 252.251,308.567 252,310.5C 250.333,307.833 248.667,307.833 247,310.5C 248.114,308.331 247.614,306.498 245.5,305C 246.448,304.517 247.448,304.351 248.5,304.5C 248.5,303.5 248.5,302.5 248.5,301.5 Z"/></g>
<g><path style="opacity:1" fill="#e4e8f0" d="M 198.5,310.5 C 200.048,310.821 200.715,311.821 200.5,313.5C 204.099,313.262 204.433,314.262 201.5,316.5C 202.847,320.11 202.18,320.443 199.5,317.5C 196.82,320.443 196.153,320.11 197.5,316.5C 194.567,314.262 194.901,313.262 198.5,313.5C 198.5,312.5 198.5,311.5 198.5,310.5 Z"/></g>
<g><path style="opacity:1" fill="#c6cee0" d="M 333.5,310.5 C 335.213,311.305 336.879,312.305 338.5,313.5C 336.665,314.428 336.332,315.594 337.5,317C 335.925,316.621 334.425,316.788 333,317.5C 332.727,315.671 331.893,314.171 330.5,313C 332.119,312.764 333.119,311.931 333.5,310.5 Z"/></g>
<g><path style="opacity:1" fill="#d5dbe8" d="M 311.5,315.5 C 315.189,317.907 314.689,319.907 310,321.5C 309.252,319.16 309.752,317.16 311.5,315.5 Z"/></g>
<g><path style="opacity:1" fill="#e8ebf2" d="M 276.5,316.5 C 280.187,318.635 279.854,320.635 275.5,322.5C 275.446,321.47 275.112,320.303 274.5,319C 275.756,318.583 276.423,317.75 276.5,316.5 Z"/></g>
<g><path style="opacity:1" fill="#d2d8e6" d="M 324.5,317.5 C 325.309,318.469 326.309,319.302 327.5,320C 326.809,321.067 326.309,322.234 326,323.5C 325,322.167 324,322.167 323,323.5C 322.691,322.234 322.191,321.067 321.5,320C 322.942,319.623 323.942,318.79 324.5,317.5 Z"/></g>
<g><path style="opacity:1" fill="#d6dbe9" d="M 297.5,319.5 C 301.189,321.907 300.689,323.907 296,325.5C 295.252,323.16 295.752,321.16 297.5,319.5 Z"/></g>
<g><path style="opacity:1" fill="#c6cde0" d="M 311.5,326.5 C 312.66,327.611 313.993,328.611 315.5,329.5C 315.023,330.931 314.357,332.264 313.5,333.5C 312.5,332.167 311.5,332.167 310.5,333.5C 309.643,332.264 308.977,330.931 308.5,329.5C 309.993,328.859 310.993,327.859 311.5,326.5 Z"/></g>
<g><path style="opacity:1" fill="#d6dbe8" d="M 286.5,329.5 C 287.404,330.209 287.737,331.209 287.5,332.5C 290.742,332.467 291.075,333.8 288.5,336.5C 287.094,335.332 285.928,335.665 285,337.5C 284.727,335.899 284.227,334.399 283.5,333C 284.448,332.517 285.448,332.351 286.5,332.5C 286.5,331.5 286.5,330.5 286.5,329.5 Z"/></g>
<g><path style="opacity:1" fill="#d1d7e6" d="M 311.5,340.5 C 314.139,341.706 314.972,343.706 314,346.5C 312.989,345.663 311.822,345.33 310.5,345.5C 310.629,343.784 310.962,342.117 311.5,340.5 Z"/></g>
</svg>
