<?xml version="1.0" encoding="UTF-8"?>
<!DOCTYPE svg PUBLIC "-//W3C//DTD SVG 1.1//EN" "http://www.w3.org/Graphics/SVG/1.1/DTD/svg11.dtd">
<svg xmlns="http://www.w3.org/2000/svg" version="1.1" width="500px" height="500px" style="shape-rendering:geometricPrecision; text-rendering:geometricPrecision; image-rendering:optimizeQuality; fill-rule:evenodd; clip-rule:evenodd" xmlns:xlink="http://www.w3.org/1999/xlink">
<g><path style="opacity:0.992" fill="#f7e018" d="M 225.5,-0.5 C 241.5,-0.5 257.5,-0.5 273.5,-0.5C 369.813,12.3931 438.646,62.7264 480,150.5C 485.072,162.882 489.239,175.549 492.5,188.5C 418.137,173.627 343.803,158.627 269.5,143.5C 269.221,139.284 266.554,137.284 261.5,137.5C 259.052,136.527 256.385,136.194 253.5,136.5C 253.185,132.629 253.518,128.962 254.5,125.5C 258.688,127.935 263.022,129.768 267.5,131C 265.045,127.922 262.711,124.756 260.5,121.5C 263.559,119.468 266.892,117.801 270.5,116.5C 265.334,113.416 260.001,110.583 254.5,108C 254.835,106.836 254.835,105.503 254.5,104C 252.167,103.333 249.833,103.333 247.5,104C 247.043,104.414 246.709,104.914 246.5,105.5C 248.446,116.313 249.113,127.313 248.5,138.5C 248.167,138.5 247.833,138.5 247.5,138.5C 245.365,136.631 242.698,135.964 239.5,136.5C 176.583,123.785 113.916,110.451 51.5,96.5C 95.9414,40.2697 153.941,7.93634 225.5,-0.5 Z"/></g>
<g><path style="opacity:1" fill="#d01c25" d="M 254.5,125.5 C 254.44,124.957 254.107,124.624 253.5,124.5C 252.506,129.456 252.173,134.456 252.5,139.5C 252.083,140.124 251.416,140.457 250.5,140.5C 249.287,140.253 248.62,139.586 248.5,138.5C 249.113,127.313 248.446,116.313 246.5,105.5C 246.709,104.914 247.043,104.414 247.5,104C 249.833,103.333 252.167,103.333 254.5,104C 254.835,105.503 254.835,106.836 254.5,108C 260.001,110.583 265.334,113.416 270.5,116.5C 266.892,117.801 263.559,119.468 260.5,121.5C 262.711,124.756 265.045,127.922 267.5,131C 263.022,129.768 258.688,127.935 254.5,125.5 Z"/></g>
<g><path style="opacity:1" fill="#e37a20" d="M 254.5,125.5 C 253.518,128.962 253.185,132.629 253.5,136.5C 256.385,136.194 259.052,136.527 261.5,137.5C 258.612,136.99 256.279,137.656 254.5,139.5C 253.833,139.5 253.167,139.5 252.5,139.5C 252.173,134.456 252.506,129.456 253.5,124.5C 254.107,124.624 254.44,124.957 254.5,125.5 Z"/></g>
<g><path style="opacity:0.997" fill="#fefdfd" d="M 51.5,96.5 C 113.916,110.451 176.583,123.785 239.5,136.5C 237.047,137.217 234.713,138.384 232.5,140C 235.332,141.908 234.999,142.741 231.5,142.5C 231.162,149.347 229.495,155.847 226.5,162C 226.833,162.167 227.167,162.333 227.5,162.5C 229.5,160.833 231.5,159.167 233.5,157.5C 235.5,158.833 237.167,160.5 238.5,162.5C 240.817,160.684 242.984,158.684 245,156.5C 246.684,158.351 248.517,160.018 250.5,161.5C 252.204,159.959 254.037,158.625 256,157.5C 258.298,158.961 260.465,160.628 262.5,162.5C 264.204,160.959 266.037,159.625 268,158.5C 270.668,159.67 273.002,161.337 275,163.5C 273.568,158.88 271.902,154.213 270,149.5C 269.505,147.527 269.338,145.527 269.5,143.5C 343.803,158.627 418.137,173.627 492.5,188.5C 495.493,200.474 497.826,212.474 499.5,224.5C 499.5,241.167 499.5,257.833 499.5,274.5C 498.041,285.472 496.041,296.472 493.5,307.5C 458.91,300.249 424.244,293.249 389.5,286.5C 389.13,280.075 389.63,273.742 391,267.5C 396.301,261.198 401.968,255.198 408,249.5C 412.79,237.835 415.624,225.668 416.5,213C 416.491,211.596 415.991,210.43 415,209.5C 413.624,210.705 412.458,212.038 411.5,213.5C 410.833,212.833 410.167,212.167 409.5,211.5C 408.207,210.355 407.041,210.689 406,212.5C 404.364,217.012 403.364,221.678 403,226.5C 399.476,230.212 396.976,234.545 395.5,239.5C 394.423,240.705 393.09,241.372 391.5,241.5C 394.724,236.07 398.224,230.737 402,225.5C 402.318,221.805 402.818,218.138 403.5,214.5C 403.167,213.833 402.833,213.167 402.5,212.5C 399.306,214.223 397.639,216.889 397.5,220.5C 396.833,220.5 396.5,220.167 396.5,219.5C 396.833,217.5 397.167,215.5 397.5,213.5C 394.286,214.528 392.452,216.862 392,220.5C 391.109,223.498 391.609,226.164 393.5,228.5C 391.345,228.372 389.345,228.872 387.5,230C 381,237.833 373.833,245 366,251.5C 364.552,261.061 364.052,270.727 364.5,280.5C 358.302,279.53 352.302,278.196 346.5,276.5C 349.536,250.28 342.536,227.28 325.5,207.5C 325.167,207.833 324.833,208.167 324.5,208.5C 328.494,215.65 330.994,223.316 332,231.5C 332.667,240.5 332.667,249.5 332,258.5C 331.432,263.44 330.265,268.107 328.5,272.5C 305.621,268.724 282.954,264.058 260.5,258.5C 259.89,252.503 258.557,246.669 256.5,241C 257.29,236.254 259.29,232.087 262.5,228.5C 259.119,226.88 256.453,227.713 254.5,231C 253.552,231.483 252.552,231.649 251.5,231.5C 251.66,229.801 251.494,228.134 251,226.5C 250.329,225.748 249.496,225.414 248.5,225.5C 248.143,227.589 247.477,229.589 246.5,231.5C 244.056,228.428 241.056,227.428 237.5,228.5C 244.824,236.625 245.49,245.292 239.5,254.5C 214.574,249.783 189.907,244.45 165.5,238.5C 165.378,233.768 165.878,229.102 167,224.5C 168.758,219.694 170.425,215.028 172,210.5C 165.047,218.069 159.88,226.736 156.5,236.5C 139.85,234.171 123.517,230.837 107.5,226.5C 107.326,223.126 106.826,219.793 106,216.5C 104.915,213.183 103.415,212.849 101.5,215.5C 103.184,218.612 103.85,221.946 103.5,225.5C 102.833,225.5 102.167,225.5 101.5,225.5C 102.622,219.994 100.956,215.66 96.5,212.5C 96.2488,216.37 96.2488,220.37 96.5,224.5C 96.1667,224.5 95.8333,224.5 95.5,224.5C 95.1103,221.161 94.6103,217.827 94,214.5C 93.3632,212.697 92.1965,211.364 90.5,210.5C 90.2307,214.764 90.064,219.097 90,223.5C 89.9941,218.294 88.1608,213.961 84.5,210.5C 83.5108,214.107 83.1774,217.774 83.5,221.5C 56.4641,216.426 29.4641,211.093 2.5,205.5C 9.96146,164.93 26.2948,128.597 51.5,96.5 Z"/></g>
<g><path style="opacity:1" fill="#d01c29" d="M 239.5,136.5 C 242.698,135.964 245.365,136.631 247.5,138.5C 247.5,139.5 247.5,140.5 247.5,141.5C 250.388,142.01 252.721,141.344 254.5,139.5C 256.279,137.656 258.612,136.99 261.5,137.5C 266.554,137.284 269.221,139.284 269.5,143.5C 269.338,145.527 269.505,147.527 270,149.5C 271.902,154.213 273.568,158.88 275,163.5C 273.002,161.337 270.668,159.67 268,158.5C 266.037,159.625 264.204,160.959 262.5,162.5C 260.465,160.628 258.298,158.961 256,157.5C 254.037,158.625 252.204,159.959 250.5,161.5C 248.517,160.018 246.684,158.351 245,156.5C 242.984,158.684 240.817,160.684 238.5,162.5C 237.167,160.5 235.5,158.833 233.5,157.5C 231.5,159.167 229.5,160.833 227.5,162.5C 227.167,162.333 226.833,162.167 226.5,162C 229.495,155.847 231.162,149.347 231.5,142.5C 234.999,142.741 235.332,141.908 232.5,140C 234.713,138.384 237.047,137.217 239.5,136.5 Z"/></g>
<g><path style="opacity:1" fill="#f0b3ba" d="M 247.5,138.5 C 247.833,138.5 248.167,138.5 248.5,138.5C 248.62,139.586 249.287,140.253 250.5,140.5C 251.416,140.457 252.083,140.124 252.5,139.5C 253.167,139.5 253.833,139.5 254.5,139.5C 252.721,141.344 250.388,142.01 247.5,141.5C 247.5,140.5 247.5,139.5 247.5,138.5 Z"/></g>
<g><path style="opacity:1" fill="#eea3aa" d="M 236.5,144.5 C 245.314,144.613 254.314,144.446 263.5,144C 254.541,147.117 245.541,147.283 236.5,144.5 Z"/></g>
<g><path style="opacity:1" fill="#cf1728" d="M 248.5,225.5 C 245.404,228.071 242.904,227.404 241,223.5C 240.202,220.289 240.702,217.289 242.5,214.5C 234.327,213.323 233.327,209.823 239.5,204C 239.167,203.833 238.833,203.667 238.5,203.5C 233.649,208.185 228.649,212.685 223.5,217C 219.682,218.944 215.682,219.611 211.5,219C 209.203,217.737 208.37,215.903 209,213.5C 213.727,209.219 218.894,205.552 224.5,202.5C 225.833,201.833 225.833,201.167 224.5,200.5C 218.086,204.082 212.086,208.249 206.5,213C 202.833,213.667 199.167,213.667 195.5,213C 193.384,211.829 192.718,210.329 193.5,208.5C 200.108,203.362 207.441,199.529 215.5,197C 212.743,196.416 210.077,196.75 207.5,198C 202.135,201.014 196.801,204.014 191.5,207C 187.171,208.151 183.338,207.318 180,204.5C 179.316,203.216 179.483,202.049 180.5,201C 189.167,197.667 197.833,194.333 206.5,191C 204.5,190.333 202.5,190.333 200.5,191C 193.461,194.69 186.128,197.523 178.5,199.5C 171.558,198.568 166.558,194.901 163.5,188.5C 180.666,189.39 195.666,184.223 208.5,173C 222.073,166.019 234.739,167.185 246.5,176.5C 247.167,171.833 247.833,167.167 248.5,162.5C 250.644,163.953 252.477,163.62 254,161.5C 254.333,166.167 254.667,170.833 255,175.5C 262.234,168.865 270.734,166.698 280.5,169C 288.052,170.55 294.719,173.883 300.5,179C 311.539,186.339 323.539,188.505 336.5,185.5C 334.89,193.909 329.724,198.243 321,198.5C 314.031,197.267 307.531,194.767 301.5,191C 298.806,189.81 296.139,189.644 293.5,190.5C 303.164,193.678 312.497,197.345 321.5,201.5C 320.352,203.149 319.019,204.649 317.5,206C 313.833,206.667 310.167,206.667 306.5,206C 300.073,200.275 292.74,197.109 284.5,196.5C 293.335,198.583 301.002,202.75 307.5,209C 304.472,213.06 300.472,214.394 295.5,213C 290.833,209.667 286.167,206.333 281.5,203C 279.35,201.41 277.017,200.743 274.5,201C 280.95,204.308 286.783,208.474 292,213.5C 292.265,215.163 291.765,216.663 290.5,218C 286.044,218.867 281.711,218.534 277.5,217C 271.394,213.062 266.06,208.229 261.5,202.5C 261.167,202.833 260.833,203.167 260.5,203.5C 266.658,209.419 265.658,213.086 257.5,214.5C 259.974,218.012 260.141,221.679 258,225.5C 257.261,226.574 256.261,227.241 255,227.5C 253.63,225.797 251.964,224.464 250,223.5C 248.97,223.836 248.47,224.503 248.5,225.5 Z"/></g>
<g><path style="opacity:0.994" fill="#020000" d="M 2.5,205.5 C 29.4641,211.093 56.4641,216.426 83.5,221.5C 84.4705,231.245 86.9705,240.578 91,249.5C 97.3655,255.531 103.366,261.864 109,268.5C 109.184,282.908 109.684,297.241 110.5,311.5C 118.142,315.423 125.808,315.423 133.5,311.5C 134.666,291.842 134.833,272.175 134,252.5C 125.833,245.667 118.333,238.167 111.5,230C 109.655,228.872 107.655,228.372 105.5,228.5C 105.833,227.5 106.5,226.833 107.5,226.5C 123.517,230.837 139.85,234.171 156.5,236.5C 150.435,260.158 152.102,283.158 161.5,305.5C 168.724,323.721 180.391,338.388 196.5,349.5C 194.5,349.167 192.5,348.833 190.5,348.5C 184.281,342.784 177.614,337.617 170.5,333C 163.802,332.342 159.468,335.176 157.5,341.5C 148.167,339.5 138.833,337.5 129.5,335.5C 133.026,333.928 136.693,332.428 140.5,331C 142.063,328.524 141.396,327.024 138.5,326.5C 127.118,332.157 115.952,331.823 105,325.5C 102.926,326.072 101.76,327.405 101.5,329.5C 69.8566,323.038 38.1899,316.705 6.5,310.5C 3.39828,298.21 1.06494,285.876 -0.5,273.5C -0.5,257.5 -0.5,241.5 -0.5,225.5C 0.66853,218.994 1.66853,212.327 2.5,205.5 Z"/></g>
<g><path style="opacity:1" fill="#cc1125" d="M 95.5,224.5 C 98.9197,229.001 101.586,234.001 103.5,239.5C 107.709,241.542 110.709,244.708 112.5,249C 112.333,249.5 112.167,250 112,250.5C 108.266,247.048 104.1,244.215 99.5,242C 98.1383,238.326 96.4716,234.826 94.5,231.5C 95.0233,234.89 95.8566,238.223 97,241.5C 100.577,244.373 104.411,246.873 108.5,249C 110.351,250.684 112.018,252.517 113.5,254.5C 114.015,247.871 112.181,241.871 108,236.5C 107.508,237.549 107.674,238.549 108.5,239.5C 107.609,240.59 106.609,240.59 105.5,239.5C 103.247,233.984 100.247,228.984 96.5,224.5C 96.2488,220.37 96.2488,216.37 96.5,212.5C 100.956,215.66 102.622,219.994 101.5,225.5C 101.932,226.71 102.599,227.71 103.5,228.5C 104.045,230.593 104.878,232.593 106,234.5C 106.18,232.512 106.014,230.512 105.5,228.5C 107.655,228.372 109.655,228.872 111.5,230C 118.333,238.167 125.833,245.667 134,252.5C 134.833,272.175 134.666,291.842 133.5,311.5C 125.808,315.423 118.142,315.423 110.5,311.5C 109.684,297.241 109.184,282.908 109,268.5C 103.366,261.864 97.3655,255.531 91,249.5C 86.9705,240.578 84.4705,231.245 83.5,221.5C 83.1774,217.774 83.5108,214.107 84.5,210.5C 88.1608,213.961 89.9941,218.294 90,223.5C 90.064,219.097 90.2307,214.764 90.5,210.5C 92.1965,211.364 93.3632,212.697 94,214.5C 94.6103,217.827 95.1103,221.161 95.5,224.5 Z"/></g>
<g><path style="opacity:1" fill="#ce1426" d="M 389.5,286.5 C 389.802,294.918 389.469,303.252 388.5,311.5C 384.613,312.906 380.613,313.906 376.5,314.5C 372.03,313.965 367.696,312.965 363.5,311.5C 363.649,301.159 363.982,290.826 364.5,280.5C 364.052,270.727 364.552,261.061 366,251.5C 373.833,245 381,237.833 387.5,230C 389.345,228.872 391.345,228.372 393.5,228.5C 389.854,236.016 386.854,243.85 384.5,252C 384.833,252.833 385.167,253.667 385.5,254.5C 389.234,249.795 393.9,246.295 399.5,244C 401.964,241.356 403.464,238.19 404,234.5C 405.166,231.497 406.833,228.83 409,226.5C 409.146,221.985 409.979,217.652 411.5,213.5C 412.458,212.038 413.624,210.705 415,209.5C 415.991,210.43 416.491,211.596 416.5,213C 415.624,225.668 412.79,237.835 408,249.5C 401.968,255.198 396.301,261.198 391,267.5C 389.63,273.742 389.13,280.075 389.5,286.5 Z"/></g>
<g><path style="opacity:1" fill="#d22831" d="M 396.5,219.5 C 396.11,222.797 395.11,225.797 393.5,228.5C 391.609,226.164 391.109,223.498 392,220.5C 392.452,216.862 394.286,214.528 397.5,213.5C 397.167,215.5 396.833,217.5 396.5,219.5 Z"/></g>
<g><path style="opacity:1" fill="#cb1b28" d="M 107.5,226.5 C 106.5,226.833 105.833,227.5 105.5,228.5C 104.833,228.5 104.167,228.5 103.5,228.5C 103.5,227.5 103.5,226.5 103.5,225.5C 103.85,221.946 103.184,218.612 101.5,215.5C 103.415,212.849 104.915,213.183 106,216.5C 106.826,219.793 107.326,223.126 107.5,226.5 Z"/></g>
<g><path style="opacity:1" fill="#210605" d="M 94.5,231.5 C 93.1154,230.426 91.9487,229.093 91,227.5C 90.3333,226.833 90.3333,226.167 91,225.5C 92.9473,227.063 94.114,229.063 94.5,231.5 Z"/></g>
<g><path style="opacity:1" fill="#2b1d1f" d="M 101.5,225.5 C 102.167,225.5 102.833,225.5 103.5,225.5C 103.5,226.5 103.5,227.5 103.5,228.5C 102.599,227.71 101.932,226.71 101.5,225.5 Z"/></g>
<g><path style="opacity:1" fill="#150202" d="M 103.5,228.5 C 104.167,228.5 104.833,228.5 105.5,228.5C 106.014,230.512 106.18,232.512 106,234.5C 104.878,232.593 104.045,230.593 103.5,228.5 Z"/></g>
<g><path style="opacity:1" fill="#d1212c" d="M 391.5,241.5 C 390.761,241.631 390.094,241.464 389.5,241C 393.855,234.759 396.522,227.925 397.5,220.5C 397.639,216.889 399.306,214.223 402.5,212.5C 402.833,213.167 403.167,213.833 403.5,214.5C 402.818,218.138 402.318,221.805 402,225.5C 398.224,230.737 394.724,236.07 391.5,241.5 Z"/></g>
<g><path style="opacity:1" fill="#d1232e" d="M 409.5,211.5 C 408.935,216.149 408.435,220.816 408,225.5C 404.319,229.862 401.986,234.862 401,240.5C 396.157,243.588 391.491,246.921 387,250.5C 386.878,248.831 387.212,247.165 388,245.5C 389.376,244.295 390.542,242.962 391.5,241.5C 393.09,241.372 394.423,240.705 395.5,239.5C 396.976,234.545 399.476,230.212 403,226.5C 403.364,221.678 404.364,217.012 406,212.5C 407.041,210.689 408.207,210.355 409.5,211.5 Z"/></g>
<g><path style="opacity:1" fill="#f9dadd" d="M 409.5,211.5 C 410.167,212.167 410.833,212.833 411.5,213.5C 409.979,217.652 409.146,221.985 409,226.5C 406.833,228.83 405.166,231.497 404,234.5C 403.464,238.19 401.964,241.356 399.5,244C 393.9,246.295 389.234,249.795 385.5,254.5C 385.167,253.667 384.833,252.833 384.5,252C 386.854,243.85 389.854,236.016 393.5,228.5C 395.11,225.797 396.11,222.797 396.5,219.5C 396.5,220.167 396.833,220.5 397.5,220.5C 396.522,227.925 393.855,234.759 389.5,241C 390.094,241.464 390.761,241.631 391.5,241.5C 390.542,242.962 389.376,244.295 388,245.5C 387.212,247.165 386.878,248.831 387,250.5C 391.491,246.921 396.157,243.588 401,240.5C 401.986,234.862 404.319,229.862 408,225.5C 408.435,220.816 408.935,216.149 409.5,211.5 Z"/></g>
<g><path style="opacity:1" fill="#240806" d="M 95.5,224.5 C 95.8333,224.5 96.1667,224.5 96.5,224.5C 100.247,228.984 103.247,233.984 105.5,239.5C 106.609,240.59 107.609,240.59 108.5,239.5C 107.674,238.549 107.508,237.549 108,236.5C 112.181,241.871 114.015,247.871 113.5,254.5C 112.018,252.517 110.351,250.684 108.5,249C 104.411,246.873 100.577,244.373 97,241.5C 95.8566,238.223 95.0233,234.89 94.5,231.5C 96.4716,234.826 98.1383,238.326 99.5,242C 104.1,244.215 108.266,247.048 112,250.5C 112.167,250 112.333,249.5 112.5,249C 110.709,244.708 107.709,241.542 103.5,239.5C 101.586,234.001 98.9197,229.001 95.5,224.5 Z"/></g>
<g><path style="opacity:0.994" fill="#020000" d="M 346.5,276.5 C 352.302,278.196 358.302,279.53 364.5,280.5C 363.982,290.826 363.649,301.159 363.5,311.5C 367.696,312.965 372.03,313.965 376.5,314.5C 380.613,313.906 384.613,312.906 388.5,311.5C 389.469,303.252 389.802,294.918 389.5,286.5C 424.244,293.249 458.91,300.249 493.5,307.5C 485.324,342.847 469.99,374.514 447.5,402.5C 411.418,394.216 375.085,386.549 338.5,379.5C 338.881,378.069 339.881,377.236 341.5,377C 349.875,375.669 357.875,376.836 365.5,380.5C 366.962,372.773 363.629,368.607 355.5,368C 359.814,362.891 359.48,358.224 354.5,354C 349.112,352.53 343.779,352.03 338.5,352.5C 343.446,339.623 339.113,333.79 325.5,335C 310.306,350.098 292.306,360.265 271.5,365.5C 269.048,364.935 266.715,364.268 264.5,363.5C 304.591,355.915 330.758,332.582 343,293.5C 344.386,287.735 345.552,282.069 346.5,276.5 Z"/></g>
<g><path style="opacity:1" fill="#ce1a25" d="M 346.5,276.5 C 345.552,282.069 344.386,287.735 343,293.5C 330.758,332.582 304.591,355.915 264.5,363.5C 239.995,367.371 217.328,362.704 196.5,349.5C 180.391,338.388 168.724,323.721 161.5,305.5C 152.102,283.158 150.435,260.158 156.5,236.5C 159.88,226.736 165.047,218.069 172,210.5C 170.425,215.028 168.758,219.694 167,224.5C 165.878,229.102 165.378,233.768 165.5,238.5C 164.88,282.415 185.213,312.248 226.5,328C 266.931,336.304 298.765,323.471 322,289.5C 325.257,284.227 327.423,278.561 328.5,272.5C 330.265,268.107 331.432,263.44 332,258.5C 332.667,249.5 332.667,240.5 332,231.5C 330.994,223.316 328.494,215.65 324.5,208.5C 324.833,208.167 325.167,207.833 325.5,207.5C 342.536,227.28 349.536,250.28 346.5,276.5 Z"/></g>
<g><path style="opacity:1" fill="#fac005" d="M 317.5,299.5 C 321.431,300.407 321.431,301.574 317.5,303C 319.207,303.195 320.874,303.195 322.5,303C 320.959,305.04 319.626,307.207 318.5,309.5C 317.722,307.2 316.722,305.034 315.5,303C 315.978,301.697 316.645,300.531 317.5,299.5 Z"/></g>
<g><path style="opacity:1" fill="#fcc603" d="M 327.5,284.5 C 331.422,286.915 334.922,289.915 338,293.5C 339.373,295.695 339.706,298.029 339,300.5C 336.312,303.272 333.646,305.938 331,308.5C 327.5,305 324,301.5 320.5,298C 320.85,296.743 321.517,296.409 322.5,297C 325.206,299.371 327.539,302.037 329.5,305C 330.448,305.483 331.448,305.649 332.5,305.5C 332.66,303.801 332.494,302.134 332,300.5C 329.739,299.228 329.239,297.562 330.5,295.5C 332.5,297.167 334.5,298.833 336.5,300.5C 337.663,298.45 337.496,296.45 336,294.5C 333.933,291.93 331.433,289.93 328.5,288.5C 327.571,287.311 327.238,285.978 327.5,284.5 Z"/></g>
<g><path style="opacity:1" fill="#fccb02" d="M 329.5,280.5 C 332.964,283.462 336.297,286.629 339.5,290C 338.833,290.667 338.167,290.667 337.5,290C 335.597,287.595 333.264,285.761 330.5,284.5C 329.571,283.311 329.238,281.978 329.5,280.5 Z"/></g>
<g><path style="opacity:1" fill="#030000" d="M 165.5,238.5 C 189.907,244.45 214.574,249.783 239.5,254.5C 239.334,258.846 239.501,263.179 240,267.5C 241.351,269.019 242.851,270.352 244.5,271.5C 247.493,264.141 250.827,263.807 254.5,270.5C 257.248,271.644 259.081,270.644 260,267.5C 260.498,264.518 260.665,261.518 260.5,258.5C 282.954,264.058 305.621,268.724 328.5,272.5C 327.423,278.561 325.257,284.227 322,289.5C 298.765,323.471 266.931,336.304 226.5,328C 185.213,312.248 164.88,282.415 165.5,238.5 Z"/></g>
<g><path style="opacity:1" fill="#c91024" d="M 248.5,268.5 C 249.822,268.33 250.989,268.663 252,269.5C 252.833,271.5 253.667,273.5 254.5,275.5C 263.005,268.175 264.505,268.841 259,277.5C 258.833,279 258.667,280.5 258.5,282C 259.6,288.04 261.433,293.874 264,299.5C 264.667,303.833 264.667,308.167 264,312.5C 263.089,315.576 261.256,317.909 258.5,319.5C 256.902,313.949 254.068,309.283 250,305.5C 245.731,309.275 242.897,313.942 241.5,319.5C 235.487,314.967 233.321,308.967 235,301.5C 237.298,294.753 239.132,287.92 240.5,281C 240.333,279.167 240.167,277.333 240,275.5C 237.739,274.228 237.239,272.562 238.5,270.5C 240.996,271.58 243.33,272.914 245.5,274.5C 246.509,272.482 247.509,270.482 248.5,268.5 Z"/></g>
<g><path style="opacity:1" fill="#ce1627" d="M 248.5,225.5 C 249.496,225.414 250.329,225.748 251,226.5C 251.494,228.134 251.66,229.801 251.5,231.5C 252.552,231.649 253.552,231.483 254.5,231C 256.453,227.713 259.119,226.88 262.5,228.5C 259.29,232.087 257.29,236.254 256.5,241C 258.557,246.669 259.89,252.503 260.5,258.5C 260.665,261.518 260.498,264.518 260,267.5C 259.081,270.644 257.248,271.644 254.5,270.5C 250.827,263.807 247.493,264.141 244.5,271.5C 242.851,270.352 241.351,269.019 240,267.5C 239.501,263.179 239.334,258.846 239.5,254.5C 245.49,245.292 244.824,236.625 237.5,228.5C 241.056,227.428 244.056,228.428 246.5,231.5C 247.477,229.589 248.143,227.589 248.5,225.5 Z"/></g>
<g><path style="opacity:1" fill="#fcc503" d="M 161.5,305.5 C 160.84,300.653 162.507,296.819 166.5,294C 168.259,293.202 169.926,293.369 171.5,294.5C 166.886,294.946 164.552,297.446 164.5,302C 164.413,307.732 167.08,311.232 172.5,312.5C 172.5,310.167 172.5,307.833 172.5,305.5C 178.903,304.438 183.07,306.771 185,312.5C 183.829,314.616 182.329,315.282 180.5,314.5C 183.191,312.002 182.858,309.835 179.5,308C 177.975,306.991 176.308,306.491 174.5,306.5C 174.433,308.401 174.767,310.234 175.5,312C 173.47,316.331 170.803,316.664 167.5,313C 164.879,310.886 162.879,308.386 161.5,305.5 Z"/></g>
<g><path style="opacity:1" fill="#c61024" d="M 248.5,308.5 C 254.515,310.868 256.515,315.202 254.5,321.5C 255,321.833 255.5,322.167 256,322.5C 259.49,320.349 262.99,318.182 266.5,316C 268.615,315.443 270.615,314.609 272.5,313.5C 273.041,315.523 272.541,317.523 271,319.5C 260.075,331.898 247.575,333.731 233.5,325C 229.385,321.492 227.052,317.326 226.5,312.5C 228.617,314.831 231.284,315.997 234.5,316C 237.36,318.36 240.36,320.527 243.5,322.5C 244.051,320.587 244.218,318.587 244,316.5C 245.328,313.688 246.828,311.022 248.5,308.5 Z"/></g>
<g><path style="opacity:0.991" fill="#f6df17" d="M 6.5,310.5 C 38.1899,316.705 69.8566,323.038 101.5,329.5C 110.012,334.88 119.345,336.88 129.5,335.5C 138.833,337.5 148.167,339.5 157.5,341.5C 157.437,345.978 158.77,349.978 161.5,353.5C 161.167,353.833 160.833,354.167 160.5,354.5C 152.902,350.891 146.402,352.224 141,358.5C 140.566,361.968 141.066,365.302 142.5,368.5C 135.526,369.632 132.693,373.632 134,380.5C 144.218,375.073 154.385,375.24 164.5,381C 170.655,386.41 177.655,390.244 185.5,392.5C 192.255,392.011 195.588,388.344 195.5,381.5C 215.663,394.374 237.663,398.874 261.5,395C 277.172,393.832 291.505,388.999 304.5,380.5C 305.167,382.5 305.833,384.5 306.5,386.5C 307.29,387.794 308.29,388.961 309.5,390C 313.167,390.667 316.833,390.667 320.5,390C 325.167,386.667 329.833,383.333 334.5,380C 335.793,379.51 337.127,379.343 338.5,379.5C 375.085,386.549 411.418,394.216 447.5,402.5C 411.146,449.624 363.813,480.124 305.5,494C 295.064,496.071 284.73,497.905 274.5,499.5C 257.833,499.5 241.167,499.5 224.5,499.5C 128.696,486.18 60.1964,435.847 19,348.5C 13.928,336.118 9.76136,323.451 6.5,310.5 Z"/></g>
<g><path style="opacity:1" fill="#be1023" d="M 110.5,311.5 C 111.975,313.41 113.975,314.576 116.5,315C 122.803,316.143 128.803,315.31 134.5,312.5C 137.105,314.236 137.105,316.069 134.5,318C 125.301,323.041 116.468,322.541 108,316.5C 106.923,313.738 107.756,312.072 110.5,311.5 Z"/></g>
<g><path style="opacity:1" fill="#be0f23" d="M 388.5,311.5 C 389.5,311.5 390.5,311.5 391.5,311.5C 391.896,314.044 391.229,316.211 389.5,318C 381.167,322.667 372.833,322.667 364.5,318C 362.473,316.604 362.14,314.938 363.5,313C 367.738,314.619 372.238,315.452 377,315.5C 381.656,316.205 385.49,314.871 388.5,311.5 Z"/></g>
<g><path style="opacity:1" fill="#c51024" d="M 105.5,318.5 C 108.691,319.092 111.691,320.259 114.5,322C 116.833,322.167 119.167,322.333 121.5,322.5C 127.287,322.125 132.954,321.125 138.5,319.5C 138.95,323.224 137.283,325.391 133.5,326C 124.691,328.285 116.024,327.952 107.5,325C 104.679,323.379 104.013,321.212 105.5,318.5 Z"/></g>
<g><path style="opacity:1" fill="#c41024" d="M 390.5,318.5 C 395.465,319.608 395.798,321.774 391.5,325C 383.679,327.435 375.679,328.102 367.5,327C 365.254,325.961 363.087,324.794 361,323.5C 360.51,322.207 360.343,320.873 360.5,319.5C 365.84,321.208 371.34,322.208 377,322.5C 382.101,322.852 386.601,321.519 390.5,318.5 Z"/></g>
<g><path style="opacity:1" fill="#f8b105" d="M 293.5,322.5 C 295.337,322.639 295.67,323.306 294.5,324.5C 293.702,324.043 293.369,323.376 293.5,322.5 Z"/></g>
<g><path style="opacity:1" fill="#fcc802" d="M 324.5,307.5 C 325.117,307.611 325.617,307.944 326,308.5C 326.667,310.5 326.667,312.5 326,314.5C 324.185,316.405 322.185,318.072 320,319.5C 319.667,321.167 319.333,322.833 319,324.5C 316.101,324.977 313.434,325.977 311,327.5C 311.938,335.292 308.938,340.958 302,344.5C 301.333,343.833 301.333,343.167 302,342.5C 306.87,339.094 309.37,334.427 309.5,328.5C 307.409,328.682 305.409,328.348 303.5,327.5C 303.436,336.232 299.102,339.898 290.5,338.5C 290.66,340.199 290.494,341.866 290,343.5C 289.545,338.968 288.378,334.635 286.5,330.5C 286.556,329.263 287.056,328.263 288,327.5C 288.233,329.78 289.066,331.78 290.5,333.5C 291.192,332.975 291.692,332.308 292,331.5C 294.995,336.806 297.828,336.806 300.5,331.5C 299.833,329.5 299.167,327.5 298.5,325.5C 299.9,323.075 301.066,323.408 302,326.5C 303.778,320.688 306.778,320.022 311,324.5C 313.245,318.754 317.412,315.42 323.5,314.5C 324.474,312.257 324.808,309.924 324.5,307.5 Z"/></g>
<g><path style="opacity:1" fill="#d32e24" d="M 305.5,323.5 C 309.31,324.754 309.31,325.754 305.5,326.5C 305.5,325.5 305.5,324.5 305.5,323.5 Z"/></g>
<g><path style="opacity:1" fill="#d83e20" d="M 316.5,320.5 C 318.048,320.821 318.715,321.821 318.5,323.5C 315.752,323.598 315.086,322.598 316.5,320.5 Z"/></g>
<g><path style="opacity:1" fill="#c81b24" d="M 129.5,335.5 C 119.345,336.88 110.012,334.88 101.5,329.5C 101.76,327.405 102.926,326.072 105,325.5C 115.952,331.823 127.118,332.157 138.5,326.5C 141.396,327.024 142.063,328.524 140.5,331C 136.693,332.428 133.026,333.928 129.5,335.5 Z"/></g>
<g><path style="opacity:1" fill="#c31023" d="M 392.5,325.5 C 395.524,325.364 397.024,326.698 397,329.5C 388.307,335.105 378.807,336.938 368.5,335C 363.872,334.356 360.205,332.19 357.5,328.5C 357.887,327.28 358.72,326.613 360,326.5C 371.138,332.029 381.972,331.695 392.5,325.5 Z"/></g>
<g><path style="opacity:1" fill="#fac005" d="M 204.5,323.5 C 203.761,323.369 203.094,323.536 202.5,324C 198.558,330.874 192.558,333.541 184.5,332C 183.953,332.925 183.287,333.758 182.5,334.5C 182.308,332.195 181.974,329.862 181.5,327.5C 179.167,324.5 176.5,321.833 173.5,319.5C 173.833,318.5 174.5,317.833 175.5,317.5C 176.46,321.314 178.793,322.814 182.5,322C 184.733,319.767 186.9,317.6 189,315.5C 190.257,315.85 190.591,316.517 190,317.5C 187.317,320.016 184.817,322.683 182.5,325.5C 183.167,325.833 183.833,326.167 184.5,326.5C 186.623,325.688 188.79,325.022 191,324.5C 191.833,324.833 192.667,325.167 193.5,325.5C 192.687,326.814 191.687,327.981 190.5,329C 195.609,329.271 199.275,326.938 201.5,322C 203.157,321.275 204.157,321.775 204.5,323.5 Z"/></g>
<g><path style="opacity:1" fill="#ff5e8e" d="M 185.5,328.5 C 187.337,328.639 187.67,329.306 186.5,330.5C 185.702,330.043 185.369,329.376 185.5,328.5 Z"/></g>
<g><path style="opacity:1" fill="#fcc702" d="M 204.5,323.5 C 205.675,323.281 206.675,323.614 207.5,324.5C 205.183,327.317 202.683,329.984 200,332.5C 198.991,334.025 198.491,335.692 198.5,337.5C 201.049,337.559 203.049,336.559 204.5,334.5C 206.048,336.922 207.714,336.922 209.5,334.5C 209.833,334.667 210.167,334.833 210.5,335C 205.826,339.124 206.493,341.624 212.5,342.5C 213.772,342.43 214.938,342.097 216,341.5C 216.192,339.423 216.692,337.423 217.5,335.5C 218.647,337.765 218.814,340.098 218,342.5C 214.744,344.429 211.244,344.929 207.5,344C 206.072,342.084 205.072,339.917 204.5,337.5C 202.078,339.65 199.411,339.983 196.5,338.5C 195.386,337.277 195.219,335.944 196,334.5C 199.335,331.134 202.168,327.468 204.5,323.5 Z"/></g>
<g><path style="opacity:1" fill="#fbc303" d="M 282.5,328.5 C 286.74,334.423 288.24,341.09 287,348.5C 283,350.687 279.5,353.354 276.5,356.5C 274.833,356.167 273.833,355.167 273.5,353.5C 271.955,352.548 270.288,352.215 268.5,352.5C 268.238,351.022 268.571,349.689 269.5,348.5C 274.753,348.818 280.086,348.818 285.5,348.5C 286.127,342.216 284.794,336.383 281.5,331C 281.743,330.098 282.077,329.265 282.5,328.5 Z"/></g>
<g><path style="opacity:1" fill="#cf1a25" d="M 190.5,348.5 C 214.775,367.088 241.775,372.755 271.5,365.5C 292.306,360.265 310.306,350.098 325.5,335C 339.113,333.79 343.446,339.623 338.5,352.5C 343.779,352.03 349.112,352.53 354.5,354C 359.48,358.224 359.814,362.891 355.5,368C 363.629,368.607 366.962,372.773 365.5,380.5C 357.875,376.836 349.875,375.669 341.5,377C 339.881,377.236 338.881,378.069 338.5,379.5C 337.127,379.343 335.793,379.51 334.5,380C 329.833,383.333 325.167,386.667 320.5,390C 316.833,390.667 313.167,390.667 309.5,390C 308.29,388.961 307.29,387.794 306.5,386.5C 306.808,384.076 306.474,381.743 305.5,379.5C 304.893,379.624 304.56,379.957 304.5,380.5C 291.505,388.999 277.172,393.832 261.5,395C 237.663,398.874 215.663,394.374 195.5,381.5C 195.588,388.344 192.255,392.011 185.5,392.5C 177.655,390.244 170.655,386.41 164.5,381C 154.385,375.24 144.218,375.073 134,380.5C 132.693,373.632 135.526,369.632 142.5,368.5C 141.066,365.302 140.566,361.968 141,358.5C 146.402,352.224 152.902,350.891 160.5,354.5C 160.833,354.167 161.167,353.833 161.5,353.5C 158.77,349.978 157.437,345.978 157.5,341.5C 159.468,335.176 163.802,332.342 170.5,333C 177.614,337.617 184.281,342.784 190.5,348.5 Z"/></g>
<g><path style="opacity:1" fill="#fac52a" d="M 192.5,354.5 C 194.225,354.843 194.725,355.843 194,357.5C 192.248,360.672 190.248,363.672 188,366.5C 189.483,362.628 190.983,358.628 192.5,354.5 Z"/></g>
<g><path style="opacity:1" fill="#fbcb2a" d="M 162.5,349.5 C 163.251,348.427 164.251,348.26 165.5,349C 167.758,351.767 170.425,353.934 173.5,355.5C 176.668,353.734 180.001,352.901 183.5,353C 184.789,357.873 182.789,360.373 177.5,360.5C 177.5,359.5 177.5,358.5 177.5,357.5C 174.351,357.789 171.351,357.289 168.5,356C 167.055,353.243 165.055,351.076 162.5,349.5 Z"/></g>
<g><path style="opacity:1" fill="#d33126" d="M 180.5,354.5 C 181.776,355.386 181.776,356.386 180.5,357.5C 179.438,356.575 179.438,355.575 180.5,354.5 Z"/></g>
<g><path style="opacity:1" fill="#fcc603" d="M 328.5,346.5 C 329.137,349.946 327.47,352.279 323.5,353.5C 322.898,357.998 321.731,362.332 320,366.5C 318.887,368.329 317.387,369.163 315.5,369C 319.693,364.322 321.526,358.822 321,352.5C 324.209,351.321 326.709,349.321 328.5,346.5 Z"/></g>
<g><path style="opacity:1" fill="#d82700" d="M 275.5,350.5 C 278.275,350.834 278.941,352.167 277.5,354.5C 275.889,353.68 275.222,352.346 275.5,350.5 Z"/></g>
<g><path style="opacity:1" fill="#fcc802" d="M 222.5,338.5 C 223.833,338.5 225.167,338.5 226.5,338.5C 226.566,344.197 229.232,345.863 234.5,343.5C 234.5,344.833 234.5,346.167 234.5,347.5C 239.734,347.88 244.9,347.88 250,347.5C 255.796,350.188 261.296,349.854 266.5,346.5C 264.851,345.012 262.851,344.012 260.5,343.5C 260.709,342.914 261.043,342.414 261.5,342C 265.512,342.216 269.512,342.883 273.5,344C 270.641,344.93 268.307,346.596 266.5,349C 264.1,350.701 261.433,351.534 258.5,351.5C 249.827,350.743 241.16,349.91 232.5,349C 231.79,346.456 230.124,345.289 227.5,345.5C 224.199,348.156 220.532,350.322 216.5,352C 211.97,352.947 207.636,352.447 203.5,350.5C 202.167,349.5 202.167,348.5 203.5,347.5C 209.908,351.819 215.908,351.486 221.5,346.5C 218.916,343.494 219.249,340.828 222.5,338.5 Z"/></g>
<g><path style="opacity:1" fill="#d74022" d="M 222.5,340.5 C 224.465,340.948 224.798,341.948 223.5,343.5C 222.614,342.675 222.281,341.675 222.5,340.5 Z"/></g>
<g><path style="opacity:1" fill="#f5dc17" d="M 190.5,348.5 C 192.5,348.833 194.5,349.167 196.5,349.5C 217.328,362.704 239.995,367.371 264.5,363.5C 266.715,364.268 269.048,364.935 271.5,365.5C 241.775,372.755 214.775,367.088 190.5,348.5 Z"/></g>
<g><path style="opacity:1" fill="#fbc403" d="M 311.5,350.5 C 313.451,350.227 314.951,350.893 316,352.5C 318.53,363.437 314.697,371.103 304.5,375.5C 304.167,375.333 303.833,375.167 303.5,375C 308.05,372.117 311.55,368.284 314,363.5C 314.781,362.056 314.614,360.723 313.5,359.5C 312.28,360.711 311.113,360.711 310,359.5C 309.068,356.177 309.568,353.177 311.5,350.5 Z"/></g>
<g><path style="opacity:1" fill="#d63d23" d="M 311.5,353.5 C 312.5,353.5 313.5,353.5 314.5,353.5C 314.426,357.541 313.093,358.208 310.5,355.5C 310.863,354.817 311.196,354.15 311.5,353.5 Z"/></g>
<g><path style="opacity:1" fill="#fccd2a" d="M 197.5,358.5 C 198.675,358.281 199.675,358.614 200.5,359.5C 196.976,363.204 195.143,367.537 195,372.5C 196.8,374.317 198.966,375.484 201.5,376C 204.833,376.333 208.167,376.667 211.5,377C 213.303,379.103 215.636,379.936 218.5,379.5C 218.281,380.675 218.614,381.675 219.5,382.5C 221.729,381.423 224.063,380.756 226.5,380.5C 226.5,381.833 226.5,383.167 226.5,384.5C 228.144,384.714 229.644,384.38 231,383.5C 231.333,379.833 231.667,376.167 232,372.5C 232.414,372.043 232.914,371.709 233.5,371.5C 234.344,375.48 234.177,379.48 233,383.5C 229.414,387.468 225.914,387.468 222.5,383.5C 220.253,384.374 217.92,384.708 215.5,384.5C 215.5,383.5 215.5,382.5 215.5,381.5C 209.268,378.771 202.601,376.937 195.5,376C 191.093,372.513 186.259,369.679 181,367.5C 180.333,366.167 180.333,364.833 181,363.5C 189.779,372.71 195.279,371.044 197.5,358.5 Z"/></g>
<g><path style="opacity:1" fill="#fccd2a" d="M 241.5,371.5 C 242.497,371.47 243.164,371.97 243.5,373C 243.02,378.06 241.853,382.893 240,387.5C 239.99,382.111 240.49,376.777 241.5,371.5 Z"/></g>
<g><path style="opacity:1" fill="#fee32a" d="M 252.5,372.5 C 253.486,376.97 253.819,381.637 253.5,386.5C 252.664,383.241 251.998,379.241 251.5,374.5C 251.543,373.584 251.876,372.917 252.5,372.5 Z"/></g>
<g><path style="opacity:1" fill="#ed8b28" d="M 252.5,372.5 C 252.56,371.957 252.893,371.624 253.5,371.5C 254.814,376.652 254.814,381.652 253.5,386.5C 253.819,381.637 253.486,376.97 252.5,372.5 Z"/></g>
<g><path style="opacity:1" fill="#fcd02a" d="M 260.5,375.5 C 265.187,377.203 267.02,380.537 266,385.5C 263.531,388.688 260.698,389.854 257.5,389C 257.645,388.228 257.978,387.561 258.5,387C 260.134,386.506 261.801,386.34 263.5,386.5C 264.227,382.776 262.894,380.109 259.5,378.5C 260.127,377.583 260.461,376.583 260.5,375.5 Z"/></g>
<g><path style="opacity:1" fill="#fcc602" d="M 294.5,362.5 C 296.22,364.658 297.053,367.325 297,370.5C 298.011,371.337 299.178,371.67 300.5,371.5C 298.865,379.917 293.698,384.25 285,384.5C 278.306,384.349 276.973,381.682 281,376.5C 281.333,378.167 281.667,379.833 282,381.5C 287.621,382.854 292.621,381.521 297,377.5C 297.792,372.396 296.126,371.396 292,374.5C 291.655,372.799 292.322,371.466 294,370.5C 294.497,367.854 294.664,365.187 294.5,362.5 Z"/></g>
<g><path style="opacity:1" fill="#e78d1d" d="M 304.5,380.5 C 304.56,379.957 304.893,379.624 305.5,379.5C 306.474,381.743 306.808,384.076 306.5,386.5C 305.833,384.5 305.167,382.5 304.5,380.5 Z"/></g>
<g><path style="opacity:1" fill="#fbc82a" d="M 247.5,380.5 C 248.586,380.62 249.253,381.287 249.5,382.5C 248.263,389.537 244.097,392.537 237,391.5C 234.3,391.609 231.8,391.109 229.5,390C 234.946,389.899 240.279,389.232 245.5,388C 246.22,385.509 246.887,383.009 247.5,380.5 Z"/></g>
<g><path style="opacity:1" fill="#fabe04" d="M 287.5,385.5 C 289.337,385.639 289.67,386.306 288.5,387.5C 287.702,387.043 287.369,386.376 287.5,385.5 Z"/></g>
</svg>
