<?xml version="1.0" encoding="UTF-8"?>
<!DOCTYPE svg PUBLIC "-//W3C//DTD SVG 1.1//EN" "http://www.w3.org/Graphics/SVG/1.1/DTD/svg11.dtd">
<svg xmlns="http://www.w3.org/2000/svg" version="1.1" width="500px" height="500px" style="shape-rendering:geometricPrecision; text-rendering:geometricPrecision; image-rendering:optimizeQuality; fill-rule:evenodd; clip-rule:evenodd" xmlns:xlink="http://www.w3.org/1999/xlink">
<g><path style="opacity:0.995" fill="#ee2b2d" d="M 225.5,-0.5 C 241.5,-0.5 257.5,-0.5 273.5,-0.5C 362.269,10.9489 428.436,55.6156 472,133.5C 486.559,162.333 495.726,192.666 499.5,224.5C 499.5,232.833 499.5,241.167 499.5,249.5C 431.167,249.5 362.833,249.5 294.5,249.5C 304.86,241.147 315.527,233.147 326.5,225.5C 327.289,225.217 327.956,224.717 328.5,224C 308.503,223.5 288.503,223.333 268.5,223.5C 262.196,204.922 255.862,186.255 249.5,167.5C 242.897,185.974 236.897,204.641 231.5,223.5C 211.164,223.333 190.831,223.5 170.5,224C 171.044,224.717 171.711,225.217 172.5,225.5C 183.473,233.147 194.14,241.147 204.5,249.5C 136.167,249.5 67.8333,249.5 -0.5,249.5C -0.5,241.5 -0.5,233.5 -0.5,225.5C 11.4543,135.075 57.4543,68.242 137.5,25C 165.514,11.5012 194.847,3.00119 225.5,-0.5 Z"/></g>
<g><path style="opacity:1" fill="#fbd016" d="M 268.5,223.5 C 287.833,224.167 307.167,224.833 326.5,225.5C 315.527,233.147 304.86,241.147 294.5,249.5C 289.385,252.565 284.385,255.898 279.5,259.5C 285.797,277.556 291.797,295.723 297.5,314C 297.167,314.5 296.833,315 296.5,315.5C 280.833,304.167 265.167,292.833 249.5,281.5C 233.324,293.556 216.99,305.056 200.5,316C 206.725,297.157 213.059,278.324 219.5,259.5C 214.615,255.898 209.615,252.565 204.5,249.5C 194.14,241.147 183.473,233.147 172.5,225.5C 192.167,224.833 211.833,224.167 231.5,223.5C 236.897,204.641 242.897,185.974 249.5,167.5C 255.862,186.255 262.196,204.922 268.5,223.5 Z"/></g>
<g><path style="opacity:1" fill="#f8a01d" d="M 231.5,223.5 C 211.833,224.167 192.167,224.833 172.5,225.5C 171.711,225.217 171.044,224.717 170.5,224C 190.831,223.5 211.164,223.333 231.5,223.5 Z"/></g>
<g><path style="opacity:1" fill="#f7a01d" d="M 268.5,223.5 C 288.503,223.333 308.503,223.5 328.5,224C 327.956,224.717 327.289,225.217 326.5,225.5C 307.167,224.833 287.833,224.167 268.5,223.5 Z"/></g>
<g><path style="opacity:0.995" fill="#009d48" d="M -0.5,249.5 C 67.8333,249.5 136.167,249.5 204.5,249.5C 209.615,252.565 214.615,255.898 219.5,259.5C 213.059,278.324 206.725,297.157 200.5,316C 216.99,305.056 233.324,293.556 249.5,281.5C 265.167,292.833 280.833,304.167 296.5,315.5C 296.833,315 297.167,314.5 297.5,314C 291.797,295.723 285.797,277.556 279.5,259.5C 284.385,255.898 289.385,252.565 294.5,249.5C 362.833,249.5 431.167,249.5 499.5,249.5C 499.5,257.833 499.5,266.167 499.5,274.5C 487.764,361.841 443.764,427.341 367.5,471C 338.093,486.083 307.093,495.583 274.5,499.5C 257.833,499.5 241.167,499.5 224.5,499.5C 132.596,487.072 65.4294,439.739 23,357.5C 10.7506,330.604 2.91724,302.604 -0.5,273.5C -0.5,265.5 -0.5,257.5 -0.5,249.5 Z"/></g>
</svg>
