<?xml version="1.0" encoding="UTF-8"?>
<!DOCTYPE svg PUBLIC "-//W3C//DTD SVG 1.1//EN" "http://www.w3.org/Graphics/SVG/1.1/DTD/svg11.dtd">
<svg xmlns="http://www.w3.org/2000/svg" version="1.1" width="500px" height="500px" style="shape-rendering:geometricPrecision; text-rendering:geometricPrecision; image-rendering:optimizeQuality; fill-rule:evenodd; clip-rule:evenodd" xmlns:xlink="http://www.w3.org/1999/xlink">
<g><path style="opacity:0.992" fill="#ce1126" d="M 225.5,-0.5 C 241.5,-0.5 257.5,-0.5 273.5,-0.5C 337.366,6.68279 391.199,33.6828 435,80.5C 439.456,85.1102 443.29,90.1102 446.5,95.5C 414.808,113.766 383.308,132.433 352,151.5C 314.617,115.043 270.117,101.543 218.5,111C 190.76,118.032 166.76,131.532 146.5,151.5C 115.139,132.489 83.8055,113.489 52.5,94.5C 97.2386,39.6243 154.905,7.95761 225.5,-0.5 Z"/></g>
<g><path style="opacity:0.998" fill="#fefefe" d="M 52.5,94.5 C 83.8055,113.489 115.139,132.489 146.5,151.5C 166.76,131.532 190.76,118.032 218.5,111C 270.117,101.543 314.617,115.043 352,151.5C 383.308,132.433 414.808,113.766 446.5,95.5C 459.941,111.363 470.608,129.03 478.5,148.5C 446.999,167.416 415.665,186.583 384.5,206C 390.318,224.419 392.484,243.252 391,262.5C 388.985,273.237 386.985,283.903 385,294.5C 416.112,313.304 447.278,331.97 478.5,350.5C 470.608,369.97 459.941,387.637 446.5,403.5C 414.808,385.234 383.308,366.567 352,347.5C 312.028,386.287 264.861,399.12 210.5,386C 185.918,378.633 164.752,365.8 147,347.5C 115.389,366.386 83.8892,385.386 52.5,404.5C 39.2895,388.09 28.6228,370.09 20.5,350.5C 51.4723,332.011 82.4723,313.511 113.5,295C 114.059,294.275 114.392,293.442 114.5,292.5C 105.186,263.666 105.186,234.833 114.5,206C 83.3346,186.583 52.0013,167.416 20.5,148.5C 28.6228,128.91 39.2895,110.91 52.5,94.5 Z"/></g>
<g><path style="opacity:1" fill="#30b23d" d="M 277.5,191.5 C 271.5,192.167 265.5,192.833 259.5,193.5C 256.193,198.482 252.859,203.482 249.5,208.5C 246.075,203.745 243.075,198.745 240.5,193.5C 234.167,192.833 227.833,192.167 221.5,191.5C 224.426,186.649 227.093,181.649 229.5,176.5C 227.141,170.644 224.141,165.144 220.5,160C 227.191,159.831 233.858,159.331 240.5,158.5C 243.248,153.334 246.248,148.334 249.5,143.5C 252.752,148.334 255.752,153.334 258.5,158.5C 265.142,159.331 271.809,159.831 278.5,160C 274.859,165.144 271.859,170.644 269.5,176.5C 271.907,181.649 274.574,186.649 277.5,191.5 Z"/></g>
<g><path style="opacity:0.992" fill="#1eb53a" d="M 20.5,148.5 C 52.0013,167.416 83.3346,186.583 114.5,206C 105.186,234.833 105.186,263.666 114.5,292.5C 114.392,293.442 114.059,294.275 113.5,295C 82.4723,313.511 51.4723,332.011 20.5,350.5C 9.28382,325.967 2.28382,300.301 -0.5,273.5C -0.5,257.5 -0.5,241.5 -0.5,225.5C 2.28382,198.699 9.28382,173.033 20.5,148.5 Z"/></g>
<g><path style="opacity:0.993" fill="#1eb53a" d="M 478.5,148.5 C 489.557,172.728 496.557,198.061 499.5,224.5C 499.5,241.167 499.5,257.833 499.5,274.5C 496.554,300.949 489.554,326.282 478.5,350.5C 447.278,331.97 416.112,313.304 385,294.5C 386.985,283.903 388.985,273.237 391,262.5C 392.484,243.252 390.318,224.419 384.5,206C 415.665,186.583 446.999,167.416 478.5,148.5 Z"/></g>
<g><path style="opacity:1" fill="#cd1526" d="M 272.5,188.5 C 267.5,189.167 262.5,189.833 257.5,190.5C 254.844,194.471 252.177,198.471 249.5,202.5C 246.709,198.418 244.042,194.251 241.5,190C 236.467,189.829 231.467,189.329 226.5,188.5C 228.967,184.398 231.3,180.232 233.5,176C 231.3,171.768 228.967,167.602 226.5,163.5C 231.467,162.671 236.467,162.171 241.5,162C 244.042,157.749 246.709,153.582 249.5,149.5C 252.291,153.582 254.958,157.749 257.5,162C 262.533,162.171 267.533,162.671 272.5,163.5C 269.912,167.674 267.579,172.007 265.5,176.5C 267.845,180.528 270.178,184.528 272.5,188.5 Z"/></g>
<g><path style="opacity:1" fill="#647432" d="M 272.5,188.5 C 273.043,188.56 273.376,188.893 273.5,189.5C 268.208,190.495 262.875,190.828 257.5,190.5C 262.5,189.833 267.5,189.167 272.5,188.5 Z"/></g>
<g><path style="opacity:1" fill="#a1e0ac" d="M 221.5,191.5 C 227.833,192.167 234.167,192.833 240.5,193.5C 233.8,193.83 227.134,193.497 220.5,192.5C 220.624,191.893 220.957,191.56 221.5,191.5 Z"/></g>
<g><path style="opacity:1" fill="#a3e1ae" d="M 277.5,191.5 C 278.043,191.56 278.376,191.893 278.5,192.5C 272.202,193.496 265.868,193.83 259.5,193.5C 265.5,192.833 271.5,192.167 277.5,191.5 Z"/></g>
<g><path style="opacity:1" fill="#35b340" d="M 341.5,301.5 C 335.5,302.167 329.5,302.833 323.5,303.5C 320.192,308.769 316.858,314.102 313.5,319.5C 310.63,314.261 307.63,309.094 304.5,304C 298.175,303.5 291.842,303.334 285.5,303.5C 287.69,297.455 290.69,291.788 294.5,286.5C 291.5,281.167 288.5,275.833 285.5,270.5C 291.833,269.833 298.167,269.167 304.5,268.5C 307.248,263.334 310.248,258.334 313.5,253.5C 316.752,258.334 319.752,263.334 322.5,268.5C 329.142,269.331 335.809,269.831 342.5,270C 339.102,275.297 336.102,280.797 333.5,286.5C 335.907,291.649 338.574,296.649 341.5,301.5 Z"/></g>
<g><path style="opacity:1" fill="#cc1526" d="M 336.5,298.5 C 331.5,299.167 326.5,299.833 321.5,300.5C 318.864,304.665 316.364,308.998 314,313.5C 311.042,309.084 308.208,304.584 305.5,300C 300.5,299.667 295.5,299.333 290.5,299C 292.85,294.657 295.183,290.323 297.5,286C 295.3,281.768 292.967,277.602 290.5,273.5C 295.833,272.833 301.167,272.167 306.5,271.5C 308.833,267.5 311.167,263.5 313.5,259.5C 316.291,263.582 318.958,267.749 321.5,272C 326.533,272.171 331.533,272.671 336.5,273.5C 334.421,277.993 332.088,282.326 329.5,286.5C 331.845,290.528 334.178,294.528 336.5,298.5 Z"/></g>
<g><path style="opacity:1" fill="#2fb641" d="M 185.5,252.5 C 188.97,257.492 192.304,262.659 195.5,268C 201.859,268.169 208.193,268.669 214.5,269.5C 211.5,274.833 208.5,280.167 205.5,285.5C 208.5,290.833 211.5,296.167 214.5,301.5C 208.193,302.331 201.859,302.831 195.5,303C 192.459,308.25 189.292,313.417 186,318.5C 182.708,313.417 179.541,308.25 176.5,303C 170.141,302.831 163.807,302.331 157.5,301.5C 160.5,296.167 163.5,290.833 166.5,285.5C 163.5,280.167 160.5,274.833 157.5,269.5C 163.807,268.669 170.141,268.169 176.5,268C 179.727,262.946 182.727,257.779 185.5,252.5 Z"/></g>
<g><path style="opacity:1" fill="#86532e" d="M 193.5,271.5 C 198.875,271.172 204.208,271.505 209.5,272.5C 209.376,273.107 209.043,273.44 208.5,273.5C 203.5,272.833 198.5,272.167 193.5,271.5 Z"/></g>
<g><path style="opacity:1" fill="#87522d" d="M 178.5,271.5 C 173.5,272.167 168.5,272.833 163.5,273.5C 162.957,273.44 162.624,273.107 162.5,272.5C 167.792,271.505 173.125,271.172 178.5,271.5 Z"/></g>
<g><path style="opacity:1" fill="#cc1626" d="M 193.5,271.5 C 198.5,272.167 203.5,272.833 208.5,273.5C 206.495,277.51 204.495,281.51 202.5,285.5C 204.392,290.062 206.726,294.395 209.5,298.5C 204.198,299.329 198.864,299.829 193.5,300C 191.377,304.415 188.877,308.582 186,312.5C 183.123,308.582 180.623,304.415 178.5,300C 173.136,299.829 167.802,299.329 162.5,298.5C 165.274,294.395 167.608,290.062 169.5,285.5C 167.505,281.51 165.505,277.51 163.5,273.5C 168.5,272.833 173.5,272.167 178.5,271.5C 180.988,267.194 183.488,262.861 186,258.5C 188.512,262.861 191.012,267.194 193.5,271.5 Z"/></g>
<g><path style="opacity:1" fill="#6f6931" d="M 336.5,298.5 C 337.043,298.56 337.376,298.893 337.5,299.5C 332.208,300.495 326.875,300.828 321.5,300.5C 326.5,299.833 331.5,299.167 336.5,298.5 Z"/></g>
<g><path style="opacity:1" fill="#95dca2" d="M 341.5,301.5 C 342.043,301.56 342.376,301.893 342.5,302.5C 336.202,303.496 329.868,303.83 323.5,303.5C 329.5,302.833 335.5,302.167 341.5,301.5 Z"/></g>
<g><path style="opacity:0.993" fill="#ce1126" d="M 446.5,403.5 C 410.449,450.223 363.449,480.39 305.5,494C 295.064,496.071 284.73,497.905 274.5,499.5C 257.833,499.5 241.167,499.5 224.5,499.5C 154.32,490.75 96.9866,459.084 52.5,404.5C 83.8892,385.386 115.389,366.386 147,347.5C 164.752,365.8 185.918,378.633 210.5,386C 264.861,399.12 312.028,386.287 352,347.5C 383.308,366.567 414.808,385.234 446.5,403.5 Z"/></g>
</svg>
