<?xml version="1.0" encoding="UTF-8"?>
<!DOCTYPE svg PUBLIC "-//W3C//DTD SVG 1.1//EN" "http://www.w3.org/Graphics/SVG/1.1/DTD/svg11.dtd">
<svg xmlns="http://www.w3.org/2000/svg" version="1.1" width="500px" height="500px" style="shape-rendering:geometricPrecision; text-rendering:geometricPrecision; image-rendering:optimizeQuality; fill-rule:evenodd; clip-rule:evenodd" xmlns:xlink="http://www.w3.org/1999/xlink">
<g><path style="opacity:0.996" fill="#fffefe" d="M 225.5,-0.5 C 241.5,-0.5 257.5,-0.5 273.5,-0.5C 322.586,4.91444 366.586,22.7478 405.5,53C 409.668,56.002 413.335,59.502 416.5,63.5C 416.5,187.833 416.5,312.167 416.5,436.5C 375.804,472.176 328.471,493.176 274.5,499.5C 257.833,499.5 241.167,499.5 224.5,499.5C 175.815,493.82 132.148,475.987 93.5,446C 89.3319,442.998 85.6652,439.498 82.5,435.5C 82.5,311.5 82.5,187.5 82.5,63.5C 123.063,26.7267 170.729,5.39339 225.5,-0.5 Z"/></g>
<g><path style="opacity:0.988" fill="#fe0000" d="M 82.5,63.5 C 82.5,187.5 82.5,311.5 82.5,435.5C 46.9717,404.497 22.4717,366.164 9,320.5C 4.58894,304.943 1.42227,289.277 -0.5,273.5C -0.5,257.5 -0.5,241.5 -0.5,225.5C 5.86259,169.784 27.6959,121.117 65,79.5C 70.404,73.5914 76.2374,68.2581 82.5,63.5 Z"/></g>
<g><path style="opacity:0.988" fill="#fe0000" d="M 416.5,63.5 C 452.643,95.3987 477.476,134.732 491,181.5C 494.695,195.808 497.529,210.141 499.5,224.5C 499.5,241.167 499.5,257.833 499.5,274.5C 491.942,338.953 464.275,392.953 416.5,436.5C 416.5,312.167 416.5,187.833 416.5,63.5 Z"/></g>
<g><path style="opacity:1" fill="#ff0301" d="M 248.5,114.5 C 249.376,114.369 250.043,114.702 250.5,115.5C 257.866,130.402 265.866,144.902 274.5,159C 277.167,159.667 279.833,159.667 282.5,159C 288.333,155.833 294.167,152.667 300,149.5C 296.477,170.123 292.81,190.789 289,211.5C 288.204,215.755 288.371,219.921 289.5,224C 291.5,224.667 293.5,224.667 295.5,224C 306.185,212.783 316.518,201.283 326.5,189.5C 328.627,195.048 330.46,200.715 332,206.5C 332.5,207.667 333.333,208.5 334.5,209C 347.491,207.037 360.491,204.87 373.5,202.5C 370.151,216.561 366.485,230.561 362.5,244.5C 362.876,246.383 363.876,247.883 365.5,249C 370.289,251.148 374.956,253.481 379.5,256C 358.333,273.167 337.167,290.333 316,307.5C 315.042,309.199 314.542,311.033 314.5,313C 316.247,319.487 317.913,325.987 319.5,332.5C 298.179,329.668 276.846,327.168 255.5,325C 254.299,325.903 253.465,327.069 253,328.5C 253.083,350.836 253.583,373.169 254.5,395.5C 250.833,395.5 247.167,395.5 243.5,395.5C 244.84,372.843 245.674,350.176 246,327.5C 245.167,326.667 244.333,325.833 243.5,325C 222.131,326.949 200.798,329.449 179.5,332.5C 181.399,326.072 183.065,319.572 184.5,313C 184.458,311.033 183.958,309.199 183,307.5C 161.833,290.333 140.667,273.167 119.5,256C 123.888,253.139 128.554,250.806 133.5,249C 135.357,247.818 136.357,246.151 136.5,244C 132.719,230.164 129.052,216.33 125.5,202.5C 136.216,204.342 146.882,206.509 157.5,209C 159.833,209.667 162.167,209.667 164.5,209C 165.667,208.5 166.5,207.667 167,206.5C 168.681,200.774 170.514,195.108 172.5,189.5C 182.95,200.906 193.284,212.406 203.5,224C 209.021,225.812 211.688,223.812 211.5,218C 206.862,195.181 202.695,172.348 199,149.5C 204.594,153.048 210.427,156.215 216.5,159C 220.591,160.227 224.091,159.394 227,156.5C 234.448,142.603 241.615,128.603 248.5,114.5 Z"/></g>
</svg>
