<?xml version="1.0" encoding="UTF-8"?>
<!DOCTYPE svg PUBLIC "-//W3C//DTD SVG 1.1//EN" "http://www.w3.org/Graphics/SVG/1.1/DTD/svg11.dtd">
<svg xmlns="http://www.w3.org/2000/svg" version="1.1" width="500px" height="500px" style="shape-rendering:geometricPrecision; text-rendering:geometricPrecision; image-rendering:optimizeQuality; fill-rule:evenodd; clip-rule:evenodd" xmlns:xlink="http://www.w3.org/1999/xlink">
<g><path style="opacity:0.995" fill="#003893" d="M 225.5,-0.5 C 241.5,-0.5 257.5,-0.5 273.5,-0.5C 362.269,10.9489 428.436,55.6156 472,133.5C 486.559,162.333 495.726,192.666 499.5,224.5C 499.5,232.833 499.5,241.167 499.5,249.5C 420.5,249.5 341.5,249.5 262.5,249.5C 261.833,249.5 261.167,249.5 260.5,249.5C 182.167,249.5 103.833,249.5 25.5,249.5C 25.1667,248.167 24.8333,248.167 24.5,249.5C 16.1667,249.5 7.83333,249.5 -0.5,249.5C -0.5,241.5 -0.5,233.5 -0.5,225.5C 11.4543,135.075 57.4543,68.242 137.5,25C 165.514,11.5012 194.847,3.00119 225.5,-0.5 Z"/></g>
<g><path style="opacity:1" fill="#f6c80f" d="M 120.5,180.5 C 126.167,179.833 131.833,179.167 137.5,178.5C 139.11,173.336 141.11,168.336 143.5,163.5C 145.974,168.589 147.641,173.922 148.5,179.5C 154.509,179.334 160.509,179.501 166.5,180C 161.668,183.339 157.001,186.839 152.5,190.5C 154.933,195.753 156.266,201.087 156.5,206.5C 152.418,203.075 148.084,200.075 143.5,197.5C 138.68,200.903 133.68,203.736 128.5,206C 130.56,201.153 132.227,196.153 133.5,191C 129.932,186.603 125.598,183.103 120.5,180.5 Z"/></g>
<g><path style="opacity:1" fill="#365773" d="M 137.5,178.5 C 131.833,179.167 126.167,179.833 120.5,180.5C 119.957,180.44 119.624,180.107 119.5,179.5C 125.463,178.504 131.463,178.171 137.5,178.5 Z"/></g>
<g><path style="opacity:1" fill="#f6c80e" d="M 221.5,202.5 C 226.833,203.167 232.167,203.833 237.5,204.5C 233.227,207.434 229.227,210.767 225.5,214.5C 227.742,219.712 229.242,225.046 230,230.5C 225.359,227.359 220.859,224.026 216.5,220.5C 211.529,223.638 206.696,226.972 202,230.5C 203.243,225.036 204.743,219.536 206.5,214C 202.645,210.644 198.645,207.477 194.5,204.5C 199.833,203.833 205.167,203.167 210.5,202.5C 212.03,197.078 213.863,191.745 216,186.5C 218.525,191.574 220.358,196.907 221.5,202.5 Z"/></g>
<g><path style="opacity:1" fill="#f4c611" d="M 69.5,186.5 C 72.0638,191.513 74.0638,196.846 75.5,202.5C 81.4725,203.33 87.4725,203.83 93.5,204C 88.5268,207.31 83.8601,210.977 79.5,215C 81.6437,220.416 83.1437,225.916 84,231.5C 79.4923,227.916 74.8256,224.582 70,221.5C 65.1744,224.582 60.5077,227.916 56,231.5C 56.8563,225.916 58.3563,220.416 60.5,215C 56.1399,210.977 51.4732,207.31 46.5,204C 52.4908,203.501 58.4908,203.334 64.5,203.5C 65.9639,197.775 67.6306,192.108 69.5,186.5 Z"/></g>
<g><path style="opacity:1" fill="#a59733" d="M 210.5,202.5 C 205.167,203.167 199.833,203.833 194.5,204.5C 193.711,204.217 193.044,203.717 192.5,203C 198.491,202.501 204.491,202.334 210.5,202.5 Z"/></g>
<g><path style="opacity:1" fill="#a79932" d="M 221.5,202.5 C 227.509,202.334 233.509,202.501 239.5,203C 238.956,203.717 238.289,204.217 237.5,204.5C 232.167,203.833 226.833,203.167 221.5,202.5 Z"/></g>
<g><path style="opacity:0.964" fill="#fefdfa" d="M -0.5,249.5 C 7.83333,249.5 16.1667,249.5 24.5,249.5C 22.4348,254.696 20.7681,260.03 19.5,265.5C 13.8236,265.334 8.15688,265.501 2.5,266C 7.11727,269.454 11.4506,273.121 15.5,277C 13.9229,281.899 12.2562,286.732 10.5,291.5C 7.83333,291.5 5.16667,291.5 2.5,291.5C 1.49308,285.378 0.493078,279.378 -0.5,273.5C -0.5,265.5 -0.5,257.5 -0.5,249.5 Z"/></g>
<g><path style="opacity:1" fill="#fefdfd" d="M 25.5,249.5 C 103.833,249.5 182.167,249.5 260.5,249.5C 259.373,254.882 258.039,260.216 256.5,265.5C 250.463,265.171 244.463,265.504 238.5,266.5C 243.025,270.192 247.692,273.692 252.5,277C 250.53,281.744 248.863,286.577 247.5,291.5C 178.167,291.5 108.833,291.5 39.5,291.5C 37.684,286.578 36.0173,281.578 34.5,276.5C 38.794,273.011 43.1273,269.511 47.5,266C 41.8431,265.501 36.1764,265.334 30.5,265.5C 29.2319,260.03 27.5652,254.696 25.5,249.5 Z"/></g>
<g><path style="opacity:0.998" fill="#fefdfd" d="M 262.5,249.5 C 341.5,249.5 420.5,249.5 499.5,249.5C 499.5,257.833 499.5,266.167 499.5,274.5C 498.577,280.082 497.577,285.749 496.5,291.5C 422.833,291.5 349.167,291.5 275.5,291.5C 273.971,286.909 272.637,282.243 271.5,277.5C 275.681,273.16 280.348,269.327 285.5,266C 279.5,265.667 273.5,265.333 267.5,265C 265.332,259.997 263.666,254.83 262.5,249.5 Z"/></g>
<g><path style="opacity:1" fill="#ffcc13" d="M 25.5,249.5 C 27.5652,254.696 29.2319,260.03 30.5,265.5C 36.1764,265.334 41.8431,265.501 47.5,266C 43.1273,269.511 38.794,273.011 34.5,276.5C 36.0173,281.578 37.684,286.578 39.5,291.5C 38.6522,292.625 37.6522,292.625 36.5,291.5C 32.6451,288.64 28.8118,285.64 25,282.5C 21.1882,285.64 17.3549,288.64 13.5,291.5C 12.3478,292.625 11.3478,292.625 10.5,291.5C 12.2562,286.732 13.9229,281.899 15.5,277C 11.4506,273.121 7.11727,269.454 2.5,266C 8.15688,265.501 13.8236,265.334 19.5,265.5C 20.7681,260.03 22.4348,254.696 24.5,249.5C 24.8333,248.167 25.1667,248.167 25.5,249.5 Z"/></g>
<g><path style="opacity:1" fill="#ffce1d" d="M 260.5,249.5 C 261.167,249.5 261.833,249.5 262.5,249.5C 263.666,254.83 265.332,259.997 267.5,265C 273.5,265.333 279.5,265.667 285.5,266C 280.348,269.327 275.681,273.16 271.5,277.5C 272.637,282.243 273.971,286.909 275.5,291.5C 274.368,292.354 273.035,292.354 271.5,291.5C 268.499,288.507 265.165,285.841 261.5,283.5C 257.835,285.841 254.501,288.507 251.5,291.5C 249.983,291.511 248.816,292.177 248,293.5C 247.536,292.906 247.369,292.239 247.5,291.5C 248.863,286.577 250.53,281.744 252.5,277C 247.692,273.692 243.025,270.192 238.5,266.5C 244.463,265.504 250.463,265.171 256.5,265.5C 258.039,260.216 259.373,254.882 260.5,249.5 Z"/></g>
<g><path style="opacity:1" fill="#fdf2ed" d="M 36.5,291.5 C 28.8333,291.5 21.1667,291.5 13.5,291.5C 17.3549,288.64 21.1882,285.64 25,282.5C 28.8118,285.64 32.6451,288.64 36.5,291.5 Z"/></g>
<g><path style="opacity:1" fill="#fdf2ee" d="M 271.5,291.5 C 264.833,291.5 258.167,291.5 251.5,291.5C 254.501,288.507 257.835,285.841 261.5,283.5C 265.165,285.841 268.499,288.507 271.5,291.5 Z"/></g>
<g><path style="opacity:0.997" fill="#cd1025" d="M 2.5,291.5 C 5.16667,291.5 7.83333,291.5 10.5,291.5C 11.3478,292.625 12.3478,292.625 13.5,291.5C 21.1667,291.5 28.8333,291.5 36.5,291.5C 37.6522,292.625 38.6522,292.625 39.5,291.5C 108.833,291.5 178.167,291.5 247.5,291.5C 247.369,292.239 247.536,292.906 248,293.5C 248.816,292.177 249.983,291.511 251.5,291.5C 258.167,291.5 264.833,291.5 271.5,291.5C 273.035,292.354 274.368,292.354 275.5,291.5C 349.167,291.5 422.833,291.5 496.5,291.5C 494.526,305.739 490.859,319.406 485.5,332.5C 411.833,332.5 338.167,332.5 264.5,332.5C 263.4,330.723 262.566,328.723 262,326.5C 260.918,328.618 259.751,330.618 258.5,332.5C 181.5,332.5 104.5,332.5 27.5,332.5C 25.7784,323.225 24.1117,323.225 22.5,332.5C 19.5,332.5 16.5,332.5 13.5,332.5C 8.13854,319.395 4.47188,305.728 2.5,291.5 Z"/></g>
<g><path style="opacity:0.969" fill="#ffcc12" d="M 27.5,332.5 C 28.2946,335.55 29.2946,338.55 30.5,341.5C 36.1376,342.33 41.8042,342.83 47.5,343C 42.5182,345.988 38.1849,349.655 34.5,354C 36.1758,359.027 37.8425,364.027 39.5,369C 34.627,366.222 29.627,363.389 24.5,360.5C 21.8333,354.5 19.1667,348.5 16.5,342.5C 17.5,342.5 18.5,342.5 19.5,342.5C 19.8848,338.956 20.8848,335.623 22.5,332.5C 24.1117,323.225 25.7784,323.225 27.5,332.5 Z"/></g>
<g><path style="opacity:1" fill="#ffcd17" d="M 264.5,332.5 C 264.998,335.829 265.998,338.995 267.5,342C 273.167,342.333 278.833,342.667 284.5,343C 280.603,346.531 276.436,349.697 272,352.5C 272.552,358.339 274.052,364.005 276.5,369.5C 275.998,370.521 275.332,370.688 274.5,370C 270.587,366.254 266.254,363.087 261.5,360.5C 256.812,363.178 252.479,366.344 248.5,370C 247.833,370.667 247.167,370.667 246.5,370C 248.593,364.555 250.593,359.055 252.5,353.5C 247.975,349.808 243.308,346.308 238.5,343C 244.491,342.501 250.491,342.334 256.5,342.5C 256.959,339.123 257.626,335.789 258.5,332.5C 259.751,330.618 260.918,328.618 262,326.5C 262.566,328.723 263.4,330.723 264.5,332.5 Z"/></g>
<g><path style="opacity:0.869" fill="#fdf1ed" d="M 13.5,332.5 C 16.5,332.5 19.5,332.5 22.5,332.5C 20.8848,335.623 19.8848,338.956 19.5,342.5C 18.5,342.5 17.5,342.5 16.5,342.5C 15.0991,339.296 14.0991,335.963 13.5,332.5 Z"/></g>
<g><path style="opacity:0.998" fill="#fefcfc" d="M 27.5,332.5 C 104.5,332.5 181.5,332.5 258.5,332.5C 257.626,335.789 256.959,339.123 256.5,342.5C 250.491,342.334 244.491,342.501 238.5,343C 243.308,346.308 247.975,349.808 252.5,353.5C 250.593,359.055 248.593,364.555 246.5,370C 247.167,370.667 247.833,370.667 248.5,370C 252.479,366.344 256.812,363.178 261.5,360.5C 266.254,363.087 270.587,366.254 274.5,370C 275.332,370.688 275.998,370.521 276.5,369.5C 274.052,364.005 272.552,358.339 272,352.5C 276.436,349.697 280.603,346.531 284.5,343C 278.833,342.667 273.167,342.333 267.5,342C 265.998,338.995 264.998,335.829 264.5,332.5C 338.167,332.5 411.833,332.5 485.5,332.5C 481.083,347.44 474.749,361.44 466.5,374.5C 321.833,374.5 177.167,374.5 32.5,374.5C 29.8486,369.869 27.1819,365.202 24.5,360.5C 29.627,363.389 34.627,366.222 39.5,369C 37.8425,364.027 36.1758,359.027 34.5,354C 38.1849,349.655 42.5182,345.988 47.5,343C 41.8042,342.83 36.1376,342.33 30.5,341.5C 29.2946,338.55 28.2946,335.55 27.5,332.5 Z"/></g>
<g><path style="opacity:0.992" fill="#003893" d="M 32.5,374.5 C 177.167,374.5 321.833,374.5 466.5,374.5C 429.657,436.628 375.99,476.461 305.5,494C 295.064,496.071 284.73,497.905 274.5,499.5C 257.833,499.5 241.167,499.5 224.5,499.5C 163.667,492.468 112.001,467.134 69.5,423.5C 74.0728,426.059 78.4061,429.059 82.5,432.5C 82.8333,432.167 83.1667,431.833 83.5,431.5C 81.2583,426.288 79.7583,420.954 79,415.5C 83.5905,412.121 88.0905,408.621 92.5,405C 86.4725,404.83 80.4725,404.33 74.5,403.5C 72.765,398.462 70.9317,393.462 69,388.5C 66.4752,393.574 64.6419,398.907 63.5,404.5C 59.9581,404.187 56.6248,404.521 53.5,405.5C 45.3592,396.01 38.3592,385.677 32.5,374.5 Z"/></g>
<g><path style="opacity:0.968" fill="#f1c516" d="M 69.5,423.5 C 63.8241,417.823 58.4908,411.823 53.5,405.5C 56.6248,404.521 59.9581,404.187 63.5,404.5C 64.6419,398.907 66.4752,393.574 69,388.5C 70.9317,393.462 72.765,398.462 74.5,403.5C 80.4725,404.33 86.4725,404.83 92.5,405C 88.0905,408.621 83.5905,412.121 79,415.5C 79.7583,420.954 81.2583,426.288 83.5,431.5C 83.1667,431.833 82.8333,432.167 82.5,432.5C 78.4061,429.059 74.0728,426.059 69.5,423.5 Z"/></g>
<g><path style="opacity:1" fill="#f6c80e" d="M 221.5,404.5 C 226.927,406.146 232.594,407.146 238.5,407.5C 234.082,410.37 230.082,413.703 226.5,417.5C 228.54,422.99 229.873,428.323 230.5,433.5C 225.833,430.167 221.167,426.833 216.5,423.5C 211.911,426.711 207.411,430.045 203,433.5C 203.461,427.774 204.961,422.274 207.5,417C 203.137,413.824 198.804,410.657 194.5,407.5C 199.833,406.833 205.167,406.167 210.5,405.5C 212.674,400.322 214.674,394.989 216.5,389.5C 218.768,394.304 220.435,399.304 221.5,404.5 Z"/></g>
<g><path style="opacity:1" fill="#8e8a41" d="M 210.5,405.5 C 205.167,406.167 199.833,406.833 194.5,407.5C 193.957,407.44 193.624,407.107 193.5,406.5C 199.128,405.505 204.794,405.171 210.5,405.5 Z"/></g>
<g><path style="opacity:1" fill="#918c41" d="M 221.5,404.5 C 227.753,405.293 234.086,405.793 240.5,406C 239.956,406.717 239.289,407.217 238.5,407.5C 232.594,407.146 226.927,406.146 221.5,404.5 Z"/></g>
<g><path style="opacity:1" fill="#f5c710" d="M 120.5,430.5 C 126.167,429.833 131.833,429.167 137.5,428.5C 139.298,423.108 141.298,417.775 143.5,412.5C 145.779,418.003 147.446,423.669 148.5,429.5C 154.509,429.334 160.509,429.501 166.5,430C 161.692,433.308 157.025,436.808 152.5,440.5C 154.742,445.712 156.242,451.046 157,456.5C 152.612,453.269 148.112,450.269 143.5,447.5C 138.445,450.45 133.612,453.783 129,457.5C 130.737,451.615 132.07,445.615 133,439.5C 129.069,436.123 124.902,433.123 120.5,430.5 Z"/></g>
<g><path style="opacity:1" fill="#305476" d="M 137.5,428.5 C 131.833,429.167 126.167,429.833 120.5,430.5C 119.957,430.44 119.624,430.107 119.5,429.5C 125.463,428.504 131.463,428.171 137.5,428.5 Z"/></g>
</svg>
