<?xml version="1.0" encoding="UTF-8"?>
<!DOCTYPE svg PUBLIC "-//W3C//DTD SVG 1.1//EN" "http://www.w3.org/Graphics/SVG/1.1/DTD/svg11.dtd">
<svg xmlns="http://www.w3.org/2000/svg" version="1.1" width="500px" height="500px" style="shape-rendering:geometricPrecision; text-rendering:geometricPrecision; image-rendering:optimizeQuality; fill-rule:evenodd; clip-rule:evenodd" xmlns:xlink="http://www.w3.org/1999/xlink">
<g><path style="opacity:0.993" fill="#013082" d="M 225.5,-0.5 C 240.5,-0.5 255.5,-0.5 270.5,-0.5C 270.5,41.1667 270.5,82.8333 270.5,124.5C 191.167,124.5 111.833,124.5 32.5,124.5C 39.3661,112.311 47.3661,100.978 56.5,90.5C 54.6675,97.8308 52.3342,104.998 49.5,112C 49.8333,112.167 50.1667,112.333 50.5,112.5C 61.2052,104.624 72.0385,96.9577 83,89.5C 93.8259,96.916 104.493,104.583 115,112.5C 112.107,99.6455 108.273,86.9789 103.5,74.5C 113.647,66.5922 123.98,58.9255 134.5,51.5C 135.043,51.44 135.376,51.1067 135.5,50.5C 123.518,49.501 111.518,49.1677 99.5,49.5C 136.755,21.2173 178.755,4.55066 225.5,-0.5 Z"/></g>
<g><path style="opacity:0.997" fill="#d11034" d="M 270.5,-0.5 C 271.5,-0.5 272.5,-0.5 273.5,-0.5C 313.311,4.04877 350.311,16.8821 384.5,38C 388.597,40.3696 392.264,43.2029 395.5,46.5C 395.5,72.5 395.5,98.5 395.5,124.5C 395.5,166.167 395.5,207.833 395.5,249.5C 395.5,291.167 395.5,332.833 395.5,374.5C 395.5,400.5 395.5,426.5 395.5,452.5C 368.551,472.468 338.551,486.301 305.5,494C 295.064,496.071 284.73,497.905 274.5,499.5C 273.167,499.5 271.833,499.5 270.5,499.5C 270.5,457.833 270.5,416.167 270.5,374.5C 270.5,332.833 270.5,291.167 270.5,249.5C 270.5,207.833 270.5,166.167 270.5,124.5C 270.5,82.8333 270.5,41.1667 270.5,-0.5 Z"/></g>
<g><path style="opacity:0.979" fill="#003082" d="M 395.5,46.5 C 425.126,67.0931 448.793,93.0931 466.5,124.5C 442.833,124.5 419.167,124.5 395.5,124.5C 395.5,98.5 395.5,72.5 395.5,46.5 Z"/></g>
<g><path style="opacity:1" fill="#88843c" d="M 99.5,49.5 C 111.518,49.1677 123.518,49.501 135.5,50.5C 135.376,51.1067 135.043,51.44 134.5,51.5C 122.833,50.8333 111.167,50.1667 99.5,49.5 Z"/></g>
<g><path style="opacity:0.979" fill="#fbcc06" d="M 99.5,49.5 C 111.167,50.1667 122.833,50.8333 134.5,51.5C 123.98,58.9255 113.647,66.5922 103.5,74.5C 108.273,86.9789 112.107,99.6455 115,112.5C 104.493,104.583 93.8259,96.916 83,89.5C 72.0385,96.9577 61.2052,104.624 50.5,112.5C 50.1667,112.333 49.8333,112.167 49.5,112C 52.3342,104.998 54.6675,97.8308 56.5,90.5C 68.6021,74.3957 82.9354,60.729 99.5,49.5 Z"/></g>
<g><path style="opacity:0.998" fill="#fefefe" d="M 32.5,124.5 C 111.833,124.5 191.167,124.5 270.5,124.5C 270.5,166.167 270.5,207.833 270.5,249.5C 180.167,249.5 89.8333,249.5 -0.5,249.5C -0.5,241.5 -0.5,233.5 -0.5,225.5C 3.4864,189.541 14.4864,155.874 32.5,124.5 Z"/></g>
<g><path style="opacity:0.993" fill="#fefefe" d="M 395.5,124.5 C 419.167,124.5 442.833,124.5 466.5,124.5C 484.306,155.584 495.306,188.918 499.5,224.5C 499.5,232.833 499.5,241.167 499.5,249.5C 464.833,249.5 430.167,249.5 395.5,249.5C 395.5,207.833 395.5,166.167 395.5,124.5 Z"/></g>
<g><path style="opacity:0.997" fill="#289628" d="M -0.5,249.5 C 89.8333,249.5 180.167,249.5 270.5,249.5C 270.5,291.167 270.5,332.833 270.5,374.5C 191.167,374.5 111.833,374.5 32.5,374.5C 14.4864,343.126 3.4864,309.459 -0.5,273.5C -0.5,265.5 -0.5,257.5 -0.5,249.5 Z"/></g>
<g><path style="opacity:0.993" fill="#289728" d="M 395.5,249.5 C 430.167,249.5 464.833,249.5 499.5,249.5C 499.5,257.833 499.5,266.167 499.5,274.5C 495.581,310.178 484.581,343.512 466.5,374.5C 442.833,374.5 419.167,374.5 395.5,374.5C 395.5,332.833 395.5,291.167 395.5,249.5 Z"/></g>
<g><path style="opacity:0.992" fill="#fecd00" d="M 32.5,374.5 C 111.833,374.5 191.167,374.5 270.5,374.5C 270.5,416.167 270.5,457.833 270.5,499.5C 255.167,499.5 239.833,499.5 224.5,499.5C 140.313,488.432 76.3133,446.765 32.5,374.5 Z"/></g>
<g><path style="opacity:0.978" fill="#fecd00" d="M 395.5,374.5 C 419.167,374.5 442.833,374.5 466.5,374.5C 449.167,406.171 425.5,432.171 395.5,452.5C 395.5,426.5 395.5,400.5 395.5,374.5 Z"/></g>
</svg>
