<?xml version="1.0" encoding="UTF-8"?>
<!DOCTYPE svg PUBLIC "-//W3C//DTD SVG 1.1//EN" "http://www.w3.org/Graphics/SVG/1.1/DTD/svg11.dtd">
<svg xmlns="http://www.w3.org/2000/svg" version="1.1" width="500px" height="500px" style="shape-rendering:geometricPrecision; text-rendering:geometricPrecision; image-rendering:optimizeQuality; fill-rule:evenodd; clip-rule:evenodd" xmlns:xlink="http://www.w3.org/1999/xlink">
<g><path style="opacity:0.994" fill="#0039a6" d="M 225.5,-0.5 C 233.167,-0.5 240.833,-0.5 248.5,-0.5C 248.5,82.5 248.5,165.5 248.5,248.5C 165.5,248.5 82.5,248.5 -0.5,248.5C -0.5,240.833 -0.5,233.167 -0.5,225.5C 11.4543,135.075 57.4543,68.242 137.5,25C 165.514,11.5012 194.847,3.00119 225.5,-0.5 Z"/></g>
<g><path style="opacity:0.995" fill="#fefefe" d="M 249.5,-0.5 C 257.5,-0.5 265.5,-0.5 273.5,-0.5C 362.269,10.9489 428.436,55.6156 472,133.5C 486.559,162.333 495.726,192.666 499.5,224.5C 499.5,232.833 499.5,241.167 499.5,249.5C 416.167,249.5 332.833,249.5 249.5,249.5C 249.5,166.167 249.5,82.8333 249.5,-0.5 Z"/></g>
<g><path style="opacity:1" fill="#fbfbfd" d="M 138.5,104.5 C 153.167,105.167 167.833,105.833 182.5,106.5C 170.646,114.926 158.98,123.592 147.5,132.5C 152.752,146.568 157.086,160.568 160.5,174.5C 148.5,165.833 136.5,157.167 124.5,148.5C 112.578,157.044 100.745,165.711 89,174.5C 92.4279,160.374 96.5946,146.374 101.5,132.5C 90.0202,123.592 78.3536,114.926 66.5,106.5C 81.1667,105.833 95.8333,105.167 110.5,104.5C 114.963,90.4441 119.63,76.4441 124.5,62.5C 129.362,76.4182 134.028,90.4182 138.5,104.5 Z"/></g>
<g><path style="opacity:1" fill="#436cbd" d="M 110.5,104.5 C 95.8333,105.167 81.1667,105.833 66.5,106.5C 65.9569,106.44 65.6236,106.107 65.5,105.5C 80.4852,104.501 95.4852,104.167 110.5,104.5 Z"/></g>
<g><path style="opacity:1" fill="#446dbd" d="M 138.5,104.5 C 153.515,104.167 168.515,104.501 183.5,105.5C 183.376,106.107 183.043,106.44 182.5,106.5C 167.833,105.833 153.167,105.167 138.5,104.5 Z"/></g>
<g><path style="opacity:1" fill="#103ca1" d="M 248.5,-0.5 C 248.833,-0.5 249.167,-0.5 249.5,-0.5C 249.5,82.8333 249.5,166.167 249.5,249.5C 166.167,249.5 82.8333,249.5 -0.5,249.5C -0.5,249.167 -0.5,248.833 -0.5,248.5C 82.5,248.5 165.5,248.5 248.5,248.5C 248.5,165.5 248.5,82.5 248.5,-0.5 Z"/></g>
<g><path style="opacity:0.995" fill="#d42b1e" d="M -0.5,249.5 C 82.8333,249.5 166.167,249.5 249.5,249.5C 332.833,249.5 416.167,249.5 499.5,249.5C 499.5,257.833 499.5,266.167 499.5,274.5C 487.764,361.841 443.764,427.341 367.5,471C 338.093,486.083 307.093,495.583 274.5,499.5C 257.833,499.5 241.167,499.5 224.5,499.5C 132.596,487.072 65.4294,439.739 23,357.5C 10.7506,330.604 2.91724,302.604 -0.5,273.5C -0.5,265.5 -0.5,257.5 -0.5,249.5 Z"/></g>
</svg>
