<?xml version="1.0" encoding="UTF-8" standalone="no"?>
<svg
   version="1.1"
   width="900"
   height="600"
   viewBox="0 0 900 600"
   xml:space="preserve"
   id="svg18832"
   xmlns="http://www.w3.org/2000/svg"
   xmlns:svg="http://www.w3.org/2000/svg"><defs
   id="defs18836">

















</defs>
<rect
   width="900"
   height="600"
   fill="#ffffff"
   id="rect18762"
   x="0"
   y="0"
   style="stroke-width:1.00002" />
<path
   d="m 686.68,277.5 c 0,-66.792 -51.373,-121.57 -116.79,-126.92 -17.61,-49.223 -64.67,-84.403 -119.9,-84.403 -55.257,0 -102.28,35.181 -119.89,84.403 -65.415,5.346 -116.81,60.123 -116.81,126.92 0,39.217 17.776,74.315 45.695,97.659 -2.536,9.991 -3.873,20.492 -3.873,31.267 0,70.334 57.009,127.36 127.36,127.36 24.805,0 47.955,-7.083 67.522,-19.36 19.568,12.277 42.691,19.36 67.536,19.36 70.32,0 127.34,-57.022 127.34,-127.36 0,-10.774 -1.339,-21.275 -3.874,-31.267 27.906,-23.344 45.681,-58.441 45.681,-97.659 z"
   fill="#ffffff"
   fill-rule="evenodd"
   id="path18764" />

<path
   d="m 686.68,277.5 c 0,-66.792 -51.373,-121.57 -116.79,-126.92 -17.61,-49.223 -64.67,-84.403 -119.9,-84.403 -55.257,0 -102.28,35.181 -119.89,84.403 -65.415,5.346 -116.81,60.123 -116.81,126.92 0,39.217 17.776,74.315 45.695,97.659 -2.536,9.991 -3.873,20.492 -3.873,31.267 0,70.334 57.009,127.36 127.36,127.36 24.805,0 47.955,-7.083 67.522,-19.36 19.568,12.277 42.691,19.36 67.536,19.36 70.32,0 127.34,-57.022 127.34,-127.36 0,-10.774 -1.339,-21.275 -3.874,-31.267 27.906,-23.344 45.681,-58.441 45.681,-97.659 z m -67.949,85.864 c 5.637,12.953 8.75,27.215 8.75,42.234 0,58.621 -47.5,106.11 -106.11,106.11 -26.403,0 -50.587,-9.66 -69.149,-25.617 -18.575,15.957 -42.732,25.617 -69.148,25.617 -58.621,0 -106.11,-47.487 -106.11,-106.11 0,-14.371 2.88,-28.069 8.048,-40.594 -29.931,-18.784 -49.857,-52.035 -49.857,-89.972 0,-58.607 47.486,-106.11 106.09,-106.11 2.205,0 4.354,0.042 6.504,0.221 11.629,-45.985 53.273,-80.007 102.85,-80.007 49.566,0 91.21,34.022 102.84,80.007 2.149,-0.179 4.342,-0.221 6.505,-0.221 58.607,0 106.11,47.5 106.11,106.11 0,36.821 -18.823,69.301 -47.334,88.332 z"
   fill="#003283"
   fill-rule="evenodd"
   id="path18768" />
<path
   d="m 651.8,277.75 c 0,-53.702 -43.488,-97.191 -97.19,-97.191 -3.06,0 -6.159,0.179 -9.177,0.427 -9.688,-43.448 -48.479,-75.873 -94.82,-75.873 -46.356,0 -85.134,32.425 -94.808,75.873 -3.004,-0.248 -6.063,-0.427 -9.122,-0.427 -53.702,0 -97.192,43.489 -97.192,97.191 0,35.912 19.499,67.273 48.533,84.101 -5.153,11.85 -8.019,24.846 -8.019,38.583 0,53.701 43.545,97.191 97.205,97.191 24.97,0 47.748,-9.439 64.973,-24.9 17.212,15.461 39.989,24.9 64.96,24.9 53.659,0 97.15,-43.49 97.15,-97.191 0,-14.248 -3.06,-27.808 -8.614,-40.044 27.699,-17.102 46.121,-47.707 46.121,-82.64 z m -62.615,76.521 c 8.792,13.435 13.917,29.462 13.917,46.687 0,47.128 -38.198,85.325 -85.312,85.325 -26.61,0 -50.312,-12.14 -65.965,-31.169 -15.655,19.029 -39.384,31.169 -65.952,31.169 -47.155,0 -85.354,-38.197 -85.354,-85.325 0,-16.716 4.823,-32.342 13.132,-45.516 -30.537,-12.968 -51.979,-43.284 -51.979,-78.547 0,-47.155 38.198,-85.354 85.354,-85.354 6.711,0 13.285,0.812 19.595,2.288 4.438,-42.939 40.734,-76.439 84.858,-76.439 43.917,0 80.089,33.197 84.788,75.873 5.513,-1.116 11.189,-1.722 17.005,-1.722 47.113,0 85.313,38.198 85.313,85.354 10e-4,34.272 -20.201,63.817 -49.4,77.376 z"
   fill="#e41f20"
   fill-rule="evenodd"
   id="path18770" />











<g
   id="g23956"
   transform="matrix(2.0180276,0,0,2.0180276,-1872.4975,-194.42291)"><path
     d="m 1151.72,190.98 c -32.534,0 -58.923,26.402 -58.923,58.91 0,32.562 26.389,58.952 58.923,58.952 32.563,0 58.952,-26.39 58.952,-58.952 0,-32.508 -26.389,-58.91 -58.952,-58.91 z m -0.014,87.339 c -15.682,0 -28.4,-12.707 -28.4,-28.43 0,-15.668 12.719,-28.415 28.4,-28.415 15.71,0 28.442,12.746 28.442,28.415 10e-4,15.723 -12.732,28.43 -28.442,28.43 z"
     fill="#003283"
     fill-rule="evenodd"
     id="path18766" /><polygon
     points="459.5,217.46 452.44,194.91 444.68,217.46 "
     fill="#ffffff"
     fill-rule="evenodd"
     id="polygon18772"
     transform="translate(700)" /><polygon
     points="442.23,217.95 424.81,201.88 429.4,225.35 "
     fill="#ffffff"
     fill-rule="evenodd"
     id="polygon18774"
     transform="translate(700)" /><polygon
     points="427.51,226.94 404.43,221.78 420.1,239.82 "
     fill="#ffffff"
     fill-rule="evenodd"
     id="polygon18776"
     transform="translate(700)" /><polygon
     points="419.29,242.14 396.72,249.2 419.29,256.96 "
     fill="#ffffff"
     fill-rule="evenodd"
     id="polygon18778"
     transform="translate(700)" /><polygon
     points="419.76,259.41 403.74,276.81 427.17,272.24 "
     fill="#ffffff"
     fill-rule="evenodd"
     id="polygon18780"
     transform="translate(700)" /><polygon
     points="428.8,274.14 423.59,297.22 441.61,281.54 "
     fill="#ffffff"
     fill-rule="evenodd"
     id="polygon18782"
     transform="translate(700)" /><polygon
     points="443.95,282.37 451.02,304.93 458.77,282.37 "
     fill="#ffffff"
     fill-rule="evenodd"
     id="polygon18784"
     transform="translate(700)" /><polygon
     points="461.22,281.89 478.65,297.91 474.08,274.48 "
     fill="#ffffff"
     fill-rule="evenodd"
     id="polygon18786"
     transform="translate(700)" /><polygon
     points="475.95,272.85 499.06,278.01 483.34,260.02 "
     fill="#ffffff"
     fill-rule="evenodd"
     id="polygon18788"
     transform="translate(700)" /><polygon
     points="484.16,257.69 506.76,250.63 484.16,242.87 "
     fill="#ffffff"
     fill-rule="evenodd"
     id="polygon18790"
     transform="translate(700)" /><polygon
     points="483.72,240.42 499.75,223.02 476.32,227.59 "
     fill="#ffffff"
     fill-rule="evenodd"
     id="polygon18792"
     transform="translate(700)" /><polygon
     points="474.68,225.69 479.85,202.61 461.85,218.29 "
     fill="#ffffff"
     fill-rule="evenodd"
     id="polygon18794"
     transform="translate(700)" /></g>

</svg>
