<?xml version="1.0" encoding="UTF-8"?>
<!DOCTYPE svg PUBLIC "-//W3C//DTD SVG 1.1//EN" "http://www.w3.org/Graphics/SVG/1.1/DTD/svg11.dtd">
<svg xmlns="http://www.w3.org/2000/svg" version="1.1" width="500px" height="500px" style="shape-rendering:geometricPrecision; text-rendering:geometricPrecision; image-rendering:optimizeQuality; fill-rule:evenodd; clip-rule:evenodd" xmlns:xlink="http://www.w3.org/1999/xlink">
<g><path style="opacity:0.992" fill="#fec61e" d="M 225.5,-0.5 C 241.5,-0.5 257.5,-0.5 273.5,-0.5C 358.148,10.2065 422.481,51.8732 466.5,124.5C 380.5,124.5 294.5,124.5 208.5,124.5C 169.465,101.655 130.799,78.3216 92.5,54.5C 131.342,23.2564 175.675,4.92302 225.5,-0.5 Z"/></g>
<g><path style="opacity:0.996" fill="#3d8e33" d="M 92.5,54.5 C 130.799,78.3216 169.465,101.655 208.5,124.5C 209.29,125.401 210.29,126.068 211.5,126.5C 279.5,167.5 347.5,208.5 415.5,249.5C 347.536,290.485 279.536,331.485 211.5,372.5C 210.29,372.932 209.29,373.599 208.5,374.5C 169.465,397.345 130.799,420.678 92.5,444.5C 38.7742,400.061 7.77419,343.061 -0.5,273.5C -0.5,257.5 -0.5,241.5 -0.5,225.5C 7.77419,155.939 38.7742,98.9389 92.5,54.5 Z"/></g>
<g><path style="opacity:0.996" fill="#fefaee" d="M 208.5,124.5 C 294.5,124.5 380.5,124.5 466.5,124.5C 467.167,124.5 467.5,124.833 467.5,125.5C 381.998,125.167 296.665,125.501 211.5,126.5C 210.29,126.068 209.29,125.401 208.5,124.5 Z"/></g>
<g><path style="opacity:0.996" fill="#fefefe" d="M 467.5,125.5 C 484.607,156.487 495.274,189.487 499.5,224.5C 499.5,232.833 499.5,241.167 499.5,249.5C 471.5,249.5 443.5,249.5 415.5,249.5C 347.5,208.5 279.5,167.5 211.5,126.5C 296.665,125.501 381.998,125.167 467.5,125.5 Z"/></g>
<g><path style="opacity:1" fill="#fdfefd" d="M 125.5,137.5 C 135.839,137.334 146.172,137.5 156.5,138C 159.167,138.667 161.833,139.333 164.5,140C 110.914,156.594 82.2475,192.927 78.5,249C 81.7943,305.615 110.461,342.282 164.5,359C 112.724,367.856 72.5573,350.356 44,306.5C 21.9378,264.812 23.6044,224.146 49,184.5C 68.3291,158.754 93.8291,143.087 125.5,137.5 Z"/></g>
<g><path style="opacity:1" fill="#f6faf6" d="M 165.5,149.5 C 168.12,153.343 169.787,157.676 170.5,162.5C 175.511,162.334 180.511,162.501 185.5,163C 182.264,165.868 178.764,168.368 175,170.5C 175.216,175.332 176.383,179.999 178.5,184.5C 177.998,185.521 177.332,185.688 176.5,185C 173.268,182.097 169.768,179.597 166,177.5C 162.064,179.765 158.397,182.432 155,185.5C 155.45,180.87 156.616,176.37 158.5,172C 154.833,169 151.167,166 147.5,163C 152.202,162.828 156.868,162.328 161.5,161.5C 163.039,157.55 164.372,153.55 165.5,149.5 Z"/></g>
<g><path style="opacity:1" fill="#f6faf6" d="M 165.5,202.5 C 168.324,206.63 169.991,211.297 170.5,216.5C 175.179,216.334 179.845,216.501 184.5,217C 181.333,219.5 178.167,222 175,224.5C 175.596,229.611 176.596,234.611 178,239.5C 174.499,236.083 170.499,233.416 166,231.5C 162.232,233.597 158.732,236.097 155.5,239C 154.833,239.667 154.167,239.667 153.5,239C 155.26,234.555 156.927,230.055 158.5,225.5C 154.833,222.667 151.167,219.833 147.5,217C 152.202,216.828 156.868,216.328 161.5,215.5C 163.242,211.275 164.575,206.942 165.5,202.5 Z"/></g>
<g><path style="opacity:0.996" fill="#cd1125" d="M 415.5,249.5 C 443.5,249.5 471.5,249.5 499.5,249.5C 499.5,257.833 499.5,266.167 499.5,274.5C 495.475,309.585 484.808,342.585 467.5,373.5C 381.998,373.833 296.665,373.499 211.5,372.5C 279.536,331.485 347.536,290.485 415.5,249.5 Z"/></g>
<g><path style="opacity:1" fill="#f7faf7" d="M 170.5,269.5 C 175.167,270.167 179.833,270.833 184.5,271.5C 181.211,273.616 178.044,275.949 175,278.5C 175.125,283.219 176.292,287.719 178.5,292C 178.167,292.167 177.833,292.333 177.5,292.5C 173.805,289.638 169.971,286.972 166,284.5C 162.333,287.167 158.667,289.833 155,292.5C 155.423,288.05 156.59,283.716 158.5,279.5C 155.461,276.46 152.127,273.794 148.5,271.5C 152.833,270.833 157.167,270.167 161.5,269.5C 162.697,265.078 164.197,260.744 166,256.5C 168.191,260.573 169.691,264.906 170.5,269.5 Z"/></g>
<g><path style="opacity:1" fill="#b0d1ac" d="M 161.5,269.5 C 157.167,270.167 152.833,270.833 148.5,271.5C 147.711,271.217 147.044,270.717 146.5,270C 151.489,269.501 156.489,269.334 161.5,269.5 Z"/></g>
<g><path style="opacity:1" fill="#adcfa9" d="M 170.5,269.5 C 175.544,269.173 180.544,269.506 185.5,270.5C 185.376,271.107 185.043,271.44 184.5,271.5C 179.833,270.833 175.167,270.167 170.5,269.5 Z"/></g>
<g><path style="opacity:1" fill="#f5f9f5" d="M 165.5,310.5 C 168.12,314.343 169.787,318.676 170.5,323.5C 175.511,323.334 180.511,323.501 185.5,324C 182.264,326.868 178.764,329.368 175,331.5C 175.216,336.332 176.383,340.999 178.5,345.5C 177.998,346.521 177.332,346.688 176.5,346C 173.268,343.097 169.768,340.597 166,338.5C 162.064,340.765 158.397,343.432 155,346.5C 155.45,341.87 156.616,337.37 158.5,333C 154.833,330 151.167,327 147.5,324C 152.202,323.828 156.868,323.328 161.5,322.5C 163.039,318.55 164.372,314.55 165.5,310.5 Z"/></g>
<g><path style="opacity:0.996" fill="#c31830" d="M 211.5,372.5 C 296.665,373.499 381.998,373.833 467.5,373.5C 467.5,374.167 467.167,374.5 466.5,374.5C 380.5,374.5 294.5,374.5 208.5,374.5C 209.29,373.599 210.29,372.932 211.5,372.5 Z"/></g>
<g><path style="opacity:0.992" fill="#3a74c3" d="M 208.5,374.5 C 294.5,374.5 380.5,374.5 466.5,374.5C 429.657,436.628 375.99,476.461 305.5,494C 295.064,496.071 284.73,497.905 274.5,499.5C 257.833,499.5 241.167,499.5 224.5,499.5C 175.088,493.784 131.088,475.45 92.5,444.5C 130.799,420.678 169.465,397.345 208.5,374.5 Z"/></g>
</svg>
