<?xml version="1.0" encoding="UTF-8"?>
<!DOCTYPE svg PUBLIC "-//W3C//DTD SVG 1.1//EN" "http://www.w3.org/Graphics/SVG/1.1/DTD/svg11.dtd">
<svg xmlns="http://www.w3.org/2000/svg" version="1.1" width="500px" height="500px" style="shape-rendering:geometricPrecision; text-rendering:geometricPrecision; image-rendering:optimizeQuality; fill-rule:evenodd; clip-rule:evenodd" xmlns:xlink="http://www.w3.org/1999/xlink">
<g><path style="opacity:0.993" fill="#029543" d="M 225.5,-0.5 C 241.5,-0.5 257.5,-0.5 273.5,-0.5C 301.066,2.35467 327.4,9.688 352.5,21.5C 242.5,132.167 132.167,242.5 21.5,352.5C 9.688,327.4 2.35467,301.066 -0.5,273.5C -0.5,257.5 -0.5,241.5 -0.5,225.5C 11.4543,135.075 57.4543,68.242 137.5,25C 165.514,11.5012 194.847,3.00119 225.5,-0.5 Z"/></g>
<g><path style="opacity:0.997" fill="#fbde4a" d="M 352.5,21.5 C 409.833,47.5 451.5,89.1667 477.5,146.5C 432.5,190.833 387.833,235.5 343.5,280.5C 340.167,284.167 336.833,287.833 333.5,291.5C 318.885,304.447 304.885,318.114 291.5,332.5C 288.167,336.167 284.833,339.833 281.5,343.5C 236.216,387.117 191.549,431.451 147.5,476.5C 146.833,476.5 146.5,476.833 146.5,477.5C 89.1667,451.5 47.5,409.833 21.5,352.5C 132.167,242.5 242.5,132.167 352.5,21.5 Z"/></g>
<g><path style="opacity:0.993" fill="#db231e" d="M 478.5,148.5 C 489.557,172.728 496.557,198.061 499.5,224.5C 499.5,241.167 499.5,257.833 499.5,274.5C 487.764,361.841 443.764,427.341 367.5,471C 338.093,486.083 307.093,495.583 274.5,499.5C 257.833,499.5 241.167,499.5 224.5,499.5C 197.283,496.529 171.283,489.195 146.5,477.5C 146.5,476.833 146.833,476.5 147.5,476.5C 192.784,432.883 237.451,388.549 281.5,343.5C 284.833,339.833 288.167,336.167 291.5,332.5C 306.115,319.553 320.115,305.886 333.5,291.5C 336.833,287.833 340.167,284.167 343.5,280.5C 388.25,237.251 432.583,193.418 476.5,149C 477.094,148.536 477.761,148.369 478.5,148.5 Z"/></g>
<g><path style="opacity:1" fill="#e24c24" d="M 477.5,146.5 C 478.338,146.842 478.672,147.508 478.5,148.5C 477.761,148.369 477.094,148.536 476.5,149C 432.583,193.418 388.25,237.251 343.5,280.5C 387.833,235.5 432.5,190.833 477.5,146.5 Z"/></g>
<g><path style="opacity:1" fill="#e24c24" d="M 333.5,291.5 C 320.115,305.886 306.115,319.553 291.5,332.5C 304.885,318.114 318.885,304.447 333.5,291.5 Z"/></g>
<g><path style="opacity:1" fill="#e24c24" d="M 281.5,343.5 C 237.451,388.549 192.784,432.883 147.5,476.5C 191.549,431.451 236.216,387.117 281.5,343.5 Z"/></g>
</svg>
