<?xml version="1.0" encoding="UTF-8"?>
<!DOCTYPE svg PUBLIC "-//W3C//DTD SVG 1.1//EN" "http://www.w3.org/Graphics/SVG/1.1/DTD/svg11.dtd">
<svg xmlns="http://www.w3.org/2000/svg" version="1.1" width="500px" height="500px" style="shape-rendering:geometricPrecision; text-rendering:geometricPrecision; image-rendering:optimizeQuality; fill-rule:evenodd; clip-rule:evenodd" xmlns:xlink="http://www.w3.org/1999/xlink">
<g><path style="opacity:0.995" fill="#017ffe" d="M 225.5,-0.5 C 241.5,-0.5 257.5,-0.5 273.5,-0.5C 348.102,8.28869 407.769,42.622 452.5,102.5C 309.833,188.167 167.167,273.833 24.5,359.5C 11.1912,332.262 2.85783,303.595 -0.5,273.5C -0.5,257.5 -0.5,241.5 -0.5,225.5C 4.18269,183.451 18.1827,144.785 41.5,109.5C 54.9373,119.091 68.2706,128.925 81.5,139C 83.448,140.439 84.7814,142.272 85.5,144.5C 78.1324,167.239 71.4657,189.906 65.5,212.5C 83.7484,198.13 102.248,184.13 121,170.5C 140.186,183.765 158.853,197.765 177,212.5C 170.96,189.358 164.127,166.358 156.5,143.5C 174.714,128.458 193.38,113.958 212.5,100C 189.169,99.5 165.836,99.3334 142.5,99.5C 136.439,77.3158 129.772,55.3158 122.5,33.5C 154.493,14.9465 188.827,3.61319 225.5,-0.5 Z"/></g>
<g><path style="opacity:0.999" fill="#f5d51c" d="M 122.5,33.5 C 129.772,55.3158 136.439,77.3158 142.5,99.5C 165.836,99.3334 189.169,99.5 212.5,100C 193.38,113.958 174.714,128.458 156.5,143.5C 164.127,166.358 170.96,189.358 177,212.5C 158.853,197.765 140.186,183.765 121,170.5C 102.248,184.13 83.7484,198.13 65.5,212.5C 71.4657,189.906 78.1324,167.239 85.5,144.5C 84.7814,142.272 83.448,140.439 81.5,139C 68.2706,128.925 54.9373,119.091 41.5,109.5C 43.8171,105.854 46.4838,102.52 49.5,99.5C 66.18,99.8328 82.8467,99.4995 99.5,98.5C 106.146,77.9124 112.479,57.2457 118.5,36.5C 119.436,35.0256 120.77,34.0256 122.5,33.5 Z"/></g>
<g><path style="opacity:0.966" fill="#027ffe" d="M 118.5,36.5 C 112.479,57.2457 106.146,77.9124 99.5,98.5C 82.8467,99.4995 66.18,99.8328 49.5,99.5C 63.9372,79.229 81.2705,61.729 101.5,47C 106.888,42.9766 112.554,39.4766 118.5,36.5 Z"/></g>
<g><path style="opacity:0.997" fill="#f5d51b" d="M 452.5,102.5 C 456.892,108.228 460.892,114.228 464.5,120.5C 321.167,206.5 177.833,292.5 34.5,378.5C 30.8991,372.298 27.5658,365.964 24.5,359.5C 167.167,273.833 309.833,188.167 452.5,102.5 Z"/></g>
<g><path style="opacity:0.997" fill="#ce1120" d="M 464.5,120.5 C 479.843,145.868 490.177,173.202 495.5,202.5C 360.661,282.415 226.328,363.082 92.5,444.5C 69.2161,425.888 49.8828,403.888 34.5,378.5C 177.833,292.5 321.167,206.5 464.5,120.5 Z"/></g>
<g><path style="opacity:0.997" fill="#f5d51a" d="M 495.5,202.5 C 497.064,209.892 498.397,217.226 499.5,224.5C 499.5,224.833 499.5,225.167 499.5,225.5C 370.723,302.059 242.057,378.892 113.5,456C 112.619,456.708 111.953,457.542 111.5,458.5C 104.595,454.554 98.2615,449.887 92.5,444.5C 226.328,363.082 360.661,282.415 495.5,202.5 Z"/></g>
<g><path style="opacity:0.993" fill="#017ffe" d="M 499.5,225.5 C 499.5,241.833 499.5,258.167 499.5,274.5C 487.764,361.841 443.764,427.341 367.5,471C 338.093,486.083 307.093,495.583 274.5,499.5C 257.833,499.5 241.167,499.5 224.5,499.5C 183.544,494.738 145.877,481.072 111.5,458.5C 111.953,457.542 112.619,456.708 113.5,456C 242.057,378.892 370.723,302.059 499.5,225.5 Z"/></g>
</svg>
