<?xml version="1.0" encoding="UTF-8"?>
<!DOCTYPE svg PUBLIC "-//W3C//DTD SVG 1.1//EN" "http://www.w3.org/Graphics/SVG/1.1/DTD/svg11.dtd">
<svg xmlns="http://www.w3.org/2000/svg" version="1.1" width="500px" height="500px" style="shape-rendering:geometricPrecision; text-rendering:geometricPrecision; image-rendering:optimizeQuality; fill-rule:evenodd; clip-rule:evenodd" xmlns:xlink="http://www.w3.org/1999/xlink">
<g><path style="opacity:0.988" fill="#002a7e" d="M 225.5,-0.5 C 241.5,-0.5 257.5,-0.5 273.5,-0.5C 328.71,5.7761 377.043,27.2761 418.5,64C 424.763,69.757 430.43,75.9237 435.5,82.5C 311.5,82.5 187.5,82.5 63.5,82.5C 77.4724,66.0266 93.4724,51.86 111.5,40C 146.398,17.646 184.398,4.146 225.5,-0.5 Z"/></g>
<g><path style="opacity:0.997" fill="#fdfdfd" d="M 63.5,82.5 C 187.5,82.5 311.5,82.5 435.5,82.5C 458.277,106.698 474.944,134.698 485.5,166.5C 328.167,166.5 170.833,166.5 13.5,166.5C 24.0563,134.698 40.723,106.698 63.5,82.5 Z"/></g>
<g><path style="opacity:0.998" fill="#cd1025" d="M 13.5,166.5 C 170.833,166.5 328.167,166.5 485.5,166.5C 492.586,185.267 497.253,204.6 499.5,224.5C 499.5,241.167 499.5,257.833 499.5,274.5C 498.1,284.764 496.267,295.098 494,305.5C 492.031,314.9 489.198,323.9 485.5,332.5C 328.167,332.5 170.833,332.5 13.5,332.5C 6.28469,313.42 1.61802,293.754 -0.5,273.5C -0.5,257.5 -0.5,241.5 -0.5,225.5C 1.61802,205.246 6.28469,185.58 13.5,166.5 Z"/></g>
<g><path style="opacity:0.996" fill="#fefdfd" d="M 13.5,332.5 C 170.833,332.5 328.167,332.5 485.5,332.5C 474.952,364.007 458.619,392.007 436.5,416.5C 312.167,416.5 187.833,416.5 63.5,416.5C 40.723,392.302 24.0563,364.302 13.5,332.5 Z"/></g>
<g><path style="opacity:0.988" fill="#002a7e" d="M 63.5,416.5 C 187.833,416.5 312.167,416.5 436.5,416.5C 392.954,464.274 338.954,491.941 274.5,499.5C 257.833,499.5 241.167,499.5 224.5,499.5C 169.704,492.931 121.704,471.431 80.5,435C 74.2369,429.243 68.5702,423.076 63.5,416.5 Z"/></g>
</svg>
