<?xml version="1.0" encoding="UTF-8"?>
<!DOCTYPE svg PUBLIC "-//W3C//DTD SVG 1.1//EN" "http://www.w3.org/Graphics/SVG/1.1/DTD/svg11.dtd">
<svg xmlns="http://www.w3.org/2000/svg" version="1.1" width="500px" height="500px" style="shape-rendering:geometricPrecision; text-rendering:geometricPrecision; image-rendering:optimizeQuality; fill-rule:evenodd; clip-rule:evenodd" xmlns:xlink="http://www.w3.org/1999/xlink">
<g><path style="opacity:0.991" fill="#ff0301" d="M 225.5,-0.5 C 241.5,-0.5 257.5,-0.5 273.5,-0.5C 362.269,10.9489 428.436,55.6156 472,133.5C 477.625,144.077 482.125,155.077 485.5,166.5C 439.167,166.5 392.833,166.5 346.5,166.5C 346.667,208.501 346.5,250.501 346,292.5C 345.545,295.854 345.045,299.187 344.5,302.5C 343.662,302.158 343.328,301.492 343.5,300.5C 344.468,256.183 344.802,211.85 344.5,167.5C 280.998,167.168 217.664,167.501 154.5,168.5C 153.833,208.5 153.167,248.5 152.5,288.5C 152.5,247.833 152.5,207.167 152.5,166.5C 106.167,166.5 59.8333,166.5 13.5,166.5C 43.991,84.513 101.324,31.3463 185.5,7C 198.832,3.72528 212.166,1.22528 225.5,-0.5 Z"/></g>
<g><path style="opacity:1" fill="#f5eaee" d="M 248.5,69.5 C 249.922,69.7086 251.255,70.2086 252.5,71C 259.178,76.9941 266.178,82.4941 273.5,87.5C 282.13,82.8504 290.796,78.1837 299.5,73.5C 306.525,81.0246 313.692,88.3579 321,95.5C 330,92.1667 339,88.8333 348,85.5C 354.588,94.338 360.421,103.671 365.5,113.5C 358.612,130.278 351.445,146.945 344,163.5C 343.439,164.022 342.772,164.355 342,164.5C 299.842,146.001 256.009,140.501 210.5,148C 191.542,151.651 173.209,156.984 155.5,164C 147.76,147.352 140.427,130.519 133.5,113.5C 138.796,104.524 144.129,95.5236 149.5,86.5C 150,86.1667 150.5,85.8333 151,85.5C 160.057,89.1303 169.224,92.4636 178.5,95.5C 185.498,88.0022 192.664,80.6688 200,73.5C 208.441,78.3032 216.941,82.9699 225.5,87.5C 233.738,82.2161 241.405,76.2161 248.5,69.5 Z"/></g>
<g><path style="opacity:1" fill="#1494dd" d="M 309.5,137.5 C 322.566,140.911 335.233,145.411 347.5,151C 345.898,155.038 343.898,158.871 341.5,162.5C 329.355,157.243 317.022,152.91 304.5,149.5C 305.497,149.53 306.164,149.03 306.5,148C 307.43,144.443 308.43,140.943 309.5,137.5 Z"/></g>
<g><path style="opacity:1" fill="#211894" d="M 229.5,130.5 C 229.586,134.857 229.92,139.19 230.5,143.5C 218.178,144.72 205.845,146.72 193.5,149.5C 190.781,145.518 190.115,141.185 191.5,136.5C 204.024,133.635 216.69,131.635 229.5,130.5 Z"/></g>
<g><path style="opacity:1" fill="#f2150e" d="M 313.5,120.5 C 327.537,124.235 341.204,129.068 354.5,135C 352.968,139.235 350.801,143.069 348,146.5C 335.792,141.264 323.292,136.931 310.5,133.5C 311.657,129.207 312.657,124.873 313.5,120.5 Z"/></g>
<g><path style="opacity:1" fill="#1c0c0a" d="M 318.5,124.5 C 321.597,126.081 324.597,127.914 327.5,130C 333.601,130.965 339.601,132.299 345.5,134C 347.002,134.583 348.335,135.416 349.5,136.5C 346.79,137.262 344.29,136.595 342,134.5C 341.76,136.977 342.594,139.144 344.5,141C 342.348,143.082 341.681,142.916 342.5,140.5C 341.5,139.667 340.5,138.833 339.5,138C 336.167,137.667 332.833,137.333 329.5,137C 330.5,136.667 331.5,136.333 332.5,136C 332.167,135.667 331.833,135.333 331.5,135C 328.167,134.667 324.833,134.333 321.5,134C 322.5,133.667 323.5,133.333 324.5,133C 321.956,131.908 319.289,131.241 316.5,131C 321.564,129.898 321.564,128.398 316.5,126.5C 317.243,125.818 317.909,125.151 318.5,124.5 Z"/></g>
<g><path style="opacity:1" fill="#fa0105" d="M 228.5,117.5 C 228.467,121.869 228.8,126.202 229.5,130.5C 216.69,131.635 204.024,133.635 191.5,136.5C 190.503,136.53 189.836,136.03 189.5,135C 188.418,131.17 187.418,127.337 186.5,123.5C 200.322,120.287 214.322,118.287 228.5,117.5 Z"/></g>
<g><path style="opacity:1" fill="#211794" d="M 224.5,104.5 C 225.5,104.5 226.5,104.5 227.5,104.5C 227.372,108.881 227.705,113.215 228.5,117.5C 214.322,118.287 200.322,120.287 186.5,123.5C 185.028,119.296 183.695,114.963 182.5,110.5C 196.347,107.474 210.347,105.474 224.5,104.5 Z"/></g>
<g><path style="opacity:1" fill="#f90106" d="M 224.5,90.5 C 225.167,90.5 225.833,90.5 226.5,90.5C 227.015,95.4797 226.348,100.146 224.5,104.5C 210.347,105.474 196.347,107.474 182.5,110.5C 181.992,106.803 181.326,103.136 180.5,99.5C 180.611,98.8826 180.944,98.3826 181.5,98C 195.622,94.2756 209.955,91.7756 224.5,90.5 Z"/></g>
<g><path style="opacity:1" fill="#1193db" d="M 314.5,117.5 C 315.93,111.279 317.597,105.112 319.5,99C 318.944,98.6174 318.611,98.1174 318.5,97.5C 327.298,95.1788 335.964,92.3455 344.5,89C 345.833,88.3333 347.167,88.3333 348.5,89C 354.01,97.0181 359.01,105.351 363.5,114C 361.239,120.021 358.573,125.854 355.5,131.5C 342.235,125.634 328.568,120.967 314.5,117.5 Z"/></g>
<g><path style="opacity:1" fill="#d8c11d" d="M 343.5,97.5 C 345.085,98.4737 346.085,99.9737 346.5,102C 348.044,102.29 349.377,102.956 350.5,104C 348.047,105.848 347.047,108.348 347.5,111.5C 346.07,111.579 344.736,111.246 343.5,110.5C 342.167,111.5 340.833,112.5 339.5,113.5C 338.548,111.955 338.215,110.288 338.5,108.5C 333.882,108.473 333.048,107.14 336,104.5C 336.333,102.5 336.667,100.5 337,98.5C 339.552,100.02 341.718,99.6869 343.5,97.5 Z"/></g>
<g><path style="opacity:1" fill="#1291d9" d="M 179.5,98.5 C 179.5,99.1667 179.833,99.5 180.5,99.5C 181.326,103.136 181.992,106.803 182.5,110.5C 183.695,114.963 185.028,119.296 186.5,123.5C 187.418,127.337 188.418,131.17 189.5,135C 189.836,136.03 190.503,136.53 191.5,136.5C 190.115,141.185 190.781,145.518 193.5,149.5C 181.19,152.64 169.19,156.973 157.5,162.5C 149.884,146.494 142.55,130.327 135.5,114C 140.484,105.677 145.484,97.3435 150.5,89C 160.465,91.0436 170.132,94.2103 179.5,98.5 Z"/></g>
<g><path style="opacity:1" fill="#edeceb" d="M 178.5,126.5 C 179.775,140.036 173.442,145.536 159.5,143C 156.726,140.936 154.893,138.436 154,135.5C 160.892,141.975 167.892,141.975 175,135.5C 177.05,132.852 178.216,129.852 178.5,126.5 Z"/></g>
<g><path style="opacity:1" fill="#e1c716" d="M 155.5,103.5 C 157.394,104.048 159.06,105.048 160.5,106.5C 161.736,105.754 163.07,105.421 164.5,105.5C 163.959,108.652 164.959,111.152 167.5,113C 165.975,114.009 164.308,114.509 162.5,114.5C 162.831,120.201 161.331,120.868 158,116.5C 154.504,118.234 153.338,117.401 154.5,114C 153.899,112.395 152.899,111.062 151.5,110C 152.563,108.812 153.897,108.312 155.5,108.5C 155.5,106.833 155.5,105.167 155.5,103.5 Z"/></g>
<g><path style="opacity:1" fill="#1b1894" d="M 318.5,97.5 C 318.611,98.1174 318.944,98.6174 319.5,99C 317.597,105.112 315.93,111.279 314.5,117.5C 313.89,118.391 313.557,119.391 313.5,120.5C 312.657,124.873 311.657,129.207 310.5,133.5C 309.766,134.708 309.433,136.041 309.5,137.5C 308.43,140.943 307.43,144.443 306.5,148C 306.164,149.03 305.497,149.53 304.5,149.5C 294.319,146.931 283.986,145.264 273.5,144.5C 272.432,143.566 271.099,143.232 269.5,143.5C 270.224,125.818 271.224,108.151 272.5,90.5C 281.522,85.9036 290.355,80.9036 299,75.5C 305.708,82.7045 312.208,90.0379 318.5,97.5 Z"/></g>
<g><path style="opacity:1" fill="#bd1011" d="M 295.5,132.5 C 295.842,133.338 296.508,133.672 297.5,133.5C 296.573,135.476 295.24,135.809 293.5,134.5C 293.855,133.478 294.522,132.811 295.5,132.5 Z"/></g>
<g><path style="opacity:1" fill="#bc1913" d="M 279.5,127.5 C 279.5,128.167 279.833,128.5 280.5,128.5C 280.053,130.973 279.053,131.14 277.5,129C 278.044,128.283 278.711,127.783 279.5,127.5 Z"/></g>
<g><path style="opacity:1" fill="#d7be18" d="M 281.5,102.5 C 283.515,103.924 285.848,104.59 288.5,104.5C 289.043,104.56 289.376,104.893 289.5,105.5C 288.675,106.386 287.675,106.719 286.5,106.5C 287.017,109.852 288.85,112.185 292,113.5C 297.413,113.541 302.913,114.041 308.5,115C 304.642,118.048 302.642,122.048 302.5,127C 300.47,128.895 298.804,131.062 297.5,133.5C 296.508,133.672 295.842,133.338 295.5,132.5C 296.476,131.185 297.476,129.852 298.5,128.5C 298.167,127.5 297.5,126.833 296.5,126.5C 294.019,127.72 292.019,129.386 290.5,131.5C 289.833,131.5 289.167,131.5 288.5,131.5C 290.385,129.947 291.385,127.947 291.5,125.5C 289.712,125.215 288.045,125.548 286.5,126.5C 285.911,129.276 284.578,131.61 282.5,133.5C 282.167,133.167 281.833,132.833 281.5,132.5C 283.475,129.626 284.142,126.626 283.5,123.5C 282.304,125.145 281.304,126.811 280.5,128.5C 279.833,128.5 279.5,128.167 279.5,127.5C 282.046,123.935 282.046,120.268 279.5,116.5C 280.046,115.228 280.379,113.894 280.5,112.5C 278.528,109.284 277.861,105.951 278.5,102.5C 279.614,101.224 280.614,101.224 281.5,102.5 Z"/></g>
<g><path style="opacity:1" fill="#8f0b25" d="M 288.5,131.5 C 289.167,131.5 289.833,131.5 290.5,131.5C 290.052,133.465 289.052,133.798 287.5,132.5C 287.624,131.893 287.957,131.56 288.5,131.5 Z"/></g>
<g><path style="opacity:1" fill="#b60c12" d="M 288.5,104.5 C 285.848,104.59 283.515,103.924 281.5,102.5C 288.077,98.3652 294.41,98.8652 300.5,104C 298.793,104.195 297.126,104.195 295.5,104C 297.876,106.68 300.876,108.013 304.5,108C 299.981,109.114 295.981,107.781 292.5,104C 290.934,103.235 289.601,103.402 288.5,104.5 Z"/></g>
<g><path style="opacity:1" fill="#201995" d="M 224.5,90.5 C 209.955,91.7756 195.622,94.2756 181.5,98C 180.944,98.3826 180.611,98.8826 180.5,99.5C 179.833,99.5 179.5,99.1667 179.5,98.5C 186.126,90.7044 192.959,83.0377 200,75.5C 208.314,80.3999 216.481,85.3999 224.5,90.5 Z"/></g>
<g><path style="opacity:1" fill="#1490d7" d="M 272.5,90.5 C 271.224,108.151 270.224,125.818 269.5,143.5C 271.099,143.232 272.432,143.566 273.5,144.5C 259.192,143.588 244.858,143.255 230.5,143.5C 229.92,139.19 229.586,134.857 229.5,130.5C 228.8,126.202 228.467,121.869 228.5,117.5C 227.705,113.215 227.372,108.881 227.5,104.5C 226.5,104.5 225.5,104.5 224.5,104.5C 226.348,100.146 227.015,95.4797 226.5,90.5C 233.831,83.8423 241.498,77.5089 249.5,71.5C 257.502,77.5089 265.169,83.8423 272.5,90.5 Z"/></g>
<g><path style="opacity:1" fill="#ceb91c" d="M 248.5,115.5 C 250.094,115.92 251.594,116.586 253,117.5C 255.915,115.92 256.749,116.587 255.5,119.5C 256.167,120.167 256.833,120.833 257.5,121.5C 257.255,123.922 257.255,126.255 257.5,128.5C 255.926,129.984 254.593,131.651 253.5,133.5C 250.263,135.015 247.263,134.681 244.5,132.5C 241.456,127.86 241.123,123.527 243.5,119.5C 242.251,116.587 243.085,115.92 246,117.5C 247.301,117.361 248.134,116.695 248.5,115.5 Z"/></g>
<g><path style="opacity:1" fill="#d1bb1a" d="M 237.5,91.5 C 239.156,92.1465 240.823,92.8131 242.5,93.5C 245.351,91.8583 246.017,92.525 244.5,95.5C 247.953,96.4786 248.286,97.9786 245.5,100C 246.167,100.333 246.833,100.667 247.5,101C 246.651,109.534 242.318,112.201 234.5,109C 232.706,105.484 231.706,101.984 231.5,98.5C 233.922,96.9522 233.922,95.2855 231.5,93.5C 233.061,92.6527 234.561,92.9861 236,94.5C 237.039,93.7562 237.539,92.7562 237.5,91.5 Z"/></g>
<g><path style="opacity:1" fill="#cab51b" d="M 259.5,91.5 C 262.058,93.2543 264.725,93.9209 267.5,93.5C 265.078,95.2855 265.078,96.9522 267.5,98.5C 267.425,102.376 266.092,106.042 263.5,109.5C 260.263,111.015 257.263,110.681 254.5,108.5C 253.27,106.067 252.27,103.567 251.5,101C 252.167,100.667 252.833,100.333 253.5,100C 253.337,97.7888 253.337,95.6222 253.5,93.5C 254.533,92.548 255.7,92.548 257,93.5C 258.301,93.3613 259.134,92.6946 259.5,91.5 Z"/></g>
<g><path style="opacity:0.996" fill="#fffefe" d="M 13.5,166.5 C 59.8333,166.5 106.167,166.5 152.5,166.5C 152.5,207.167 152.5,247.833 152.5,288.5C 153.775,304.272 158.441,318.938 166.5,332.5C 115.5,332.5 64.5,332.5 13.5,332.5C 6.28469,313.42 1.61802,293.754 -0.5,273.5C -0.5,257.5 -0.5,241.5 -0.5,225.5C 1.61802,205.246 6.28469,185.58 13.5,166.5 Z"/></g>
<g><path style="opacity:0.996" fill="#fffefe" d="M 485.5,166.5 C 492.586,185.267 497.253,204.6 499.5,224.5C 499.5,241.167 499.5,257.833 499.5,274.5C 498.1,284.764 496.267,295.098 494,305.5C 492.031,314.9 489.198,323.9 485.5,332.5C 434.5,332.5 383.5,332.5 332.5,332.5C 338.146,323.201 342.146,313.201 344.5,302.5C 345.045,299.187 345.545,295.854 346,292.5C 346.5,250.501 346.667,208.501 346.5,166.5C 392.833,166.5 439.167,166.5 485.5,166.5 Z"/></g>
<g><path style="opacity:1" fill="#fffbfb" d="M 343.5,300.5 C 333.039,342.125 306.706,367.291 264.5,376C 216.189,380.646 181.689,361.146 161,317.5C 158.115,310.063 156.115,302.397 155,294.5C 154.5,252.501 154.333,210.501 154.5,168.5C 217.664,167.501 280.998,167.168 344.5,167.5C 344.802,211.85 344.468,256.183 343.5,300.5 Z"/></g>
<g><path style="opacity:1" fill="#ff0604" d="M 194.5,211.5 C 182.167,211.5 169.833,211.5 157.5,211.5C 157.5,198.167 157.5,184.833 157.5,171.5C 169.833,171.5 182.167,171.5 194.5,171.5C 194.5,184.833 194.5,198.167 194.5,211.5 Z"/></g>
<g><path style="opacity:1" fill="#ff0503" d="M 341.5,211.5 C 329.167,211.5 316.833,211.5 304.5,211.5C 304.5,198.167 304.5,184.833 304.5,171.5C 316.833,171.5 329.167,171.5 341.5,171.5C 341.5,184.833 341.5,198.167 341.5,211.5 Z"/></g>
<g><path style="opacity:1" fill="#ff0000" d="M 194.5,212.5 C 206.5,212.5 218.5,212.5 230.5,212.5C 230.5,225.5 230.5,238.5 230.5,251.5C 218.5,251.5 206.5,251.5 194.5,251.5C 194.5,238.5 194.5,225.5 194.5,212.5 Z"/></g>
<g><path style="opacity:1" fill="#fffdfd" d="M 231.5,212.5 C 243.5,212.5 255.5,212.5 267.5,212.5C 267.5,225.833 267.5,239.167 267.5,252.5C 255.5,252.5 243.5,252.5 231.5,252.5C 231.5,239.167 231.5,225.833 231.5,212.5 Z"/></g>
<g><path style="opacity:1" fill="#ff0302" d="M 304.5,212.5 C 304.5,225.833 304.5,239.167 304.5,252.5C 292.5,252.5 280.5,252.5 268.5,252.5C 268.5,239.167 268.5,225.833 268.5,212.5C 280.5,212.5 292.5,212.5 304.5,212.5 Z"/></g>
<g><path style="opacity:1" fill="#ff7c7a" d="M 231.5,171.5 C 231.5,184.833 231.5,198.167 231.5,211.5C 243.5,211.5 255.5,211.5 267.5,211.5C 267.5,198.167 267.5,184.833 267.5,171.5C 268.496,184.656 268.829,197.99 268.5,211.5C 280.5,211.5 292.5,211.5 304.5,211.5C 316.833,211.5 329.167,211.5 341.5,211.5C 329.345,212.495 317.011,212.829 304.5,212.5C 292.5,212.5 280.5,212.5 268.5,212.5C 268.5,225.833 268.5,239.167 268.5,252.5C 268.5,265.833 268.5,279.167 268.5,292.5C 268.5,305.833 268.5,319.167 268.5,332.5C 268.167,332.5 267.833,332.5 267.5,332.5C 267.5,319.167 267.5,305.833 267.5,292.5C 267.5,279.167 267.5,265.833 267.5,252.5C 267.5,239.167 267.5,225.833 267.5,212.5C 255.5,212.5 243.5,212.5 231.5,212.5C 231.167,212.5 230.833,212.5 230.5,212.5C 218.5,212.5 206.5,212.5 194.5,212.5C 181.989,212.829 169.655,212.495 157.5,211.5C 169.833,211.5 182.167,211.5 194.5,211.5C 206.5,211.5 218.5,211.5 230.5,211.5C 230.171,197.99 230.504,184.656 231.5,171.5 Z"/></g>
<g><path style="opacity:1" fill="#ff0101" d="M 231.5,171.5 C 243.5,171.5 255.5,171.5 267.5,171.5C 267.5,184.833 267.5,198.167 267.5,211.5C 255.5,211.5 243.5,211.5 231.5,211.5C 231.5,198.167 231.5,184.833 231.5,171.5 Z"/></g>
<g><path style="opacity:1" fill="#ff4443" d="M 230.5,212.5 C 230.833,212.5 231.167,212.5 231.5,212.5C 231.5,225.833 231.5,239.167 231.5,252.5C 231.167,252.5 230.833,252.5 230.5,252.5C 218.5,252.5 206.5,252.5 194.5,252.5C 194.5,252.167 194.5,251.833 194.5,251.5C 206.5,251.5 218.5,251.5 230.5,251.5C 230.5,238.5 230.5,225.5 230.5,212.5 Z"/></g>
<g><path style="opacity:1" fill="#ff0603" d="M 194.5,252.5 C 194.5,265.833 194.5,279.167 194.5,292.5C 182.5,292.5 170.5,292.5 158.5,292.5C 157.555,279.203 157.222,265.87 157.5,252.5C 169.833,252.5 182.167,252.5 194.5,252.5 Z"/></g>
<g><path style="opacity:1" fill="#fffefe" d="M 194.5,252.5 C 206.5,252.5 218.5,252.5 230.5,252.5C 230.5,265.833 230.5,279.167 230.5,292.5C 218.5,292.5 206.5,292.5 194.5,292.5C 194.5,279.167 194.5,265.833 194.5,252.5 Z"/></g>
<g><path style="opacity:1" fill="#ff0000" d="M 231.5,252.5 C 243.5,252.5 255.5,252.5 267.5,252.5C 267.5,265.833 267.5,279.167 267.5,292.5C 255.5,292.5 243.5,292.5 231.5,292.5C 231.5,279.167 231.5,265.833 231.5,252.5 Z"/></g>
<g><path style="opacity:1" fill="#fffefe" d="M 268.5,252.5 C 280.5,252.5 292.5,252.5 304.5,252.5C 304.5,265.833 304.5,279.167 304.5,292.5C 292.5,292.5 280.5,292.5 268.5,292.5C 268.5,279.167 268.5,265.833 268.5,252.5 Z"/></g>
<g><path style="opacity:1" fill="#ff0603" d="M 304.5,252.5 C 316.833,252.5 329.167,252.5 341.5,252.5C 341.5,265.833 341.5,279.167 341.5,292.5C 329.167,292.5 316.833,292.5 304.5,292.5C 304.5,279.167 304.5,265.833 304.5,252.5 Z"/></g>
<g><path style="opacity:1" fill="#ff0000" d="M 194.5,292.5 C 206.5,292.5 218.5,292.5 230.5,292.5C 230.5,305.833 230.5,319.167 230.5,332.5C 218.5,332.5 206.5,332.5 194.5,332.5C 194.5,319.167 194.5,305.833 194.5,292.5 Z"/></g>
<g><path style="opacity:1" fill="#fffefe" d="M 231.5,292.5 C 243.5,292.5 255.5,292.5 267.5,292.5C 267.5,305.833 267.5,319.167 267.5,332.5C 255.5,332.5 243.5,332.5 231.5,332.5C 231.5,319.167 231.5,305.833 231.5,292.5 Z"/></g>
<g><path style="opacity:1" fill="#ff0000" d="M 268.5,292.5 C 280.5,292.5 292.5,292.5 304.5,292.5C 304.5,305.833 304.5,319.167 304.5,332.5C 292.5,332.5 280.5,332.5 268.5,332.5C 268.5,319.167 268.5,305.833 268.5,292.5 Z"/></g>
<g><path style="opacity:1" fill="#ff8482" d="M 230.5,252.5 C 230.833,252.5 231.167,252.5 231.5,252.5C 231.5,265.833 231.5,279.167 231.5,292.5C 231.5,305.833 231.5,319.167 231.5,332.5C 243.5,332.5 255.5,332.5 267.5,332.5C 267.833,332.5 268.167,332.5 268.5,332.5C 280.5,332.5 292.5,332.5 304.5,332.5C 311.532,332.17 318.532,332.503 325.5,333.5C 325.376,334.107 325.043,334.44 324.5,334.5C 318.021,333.509 311.354,333.176 304.5,333.5C 292.5,333.5 280.5,333.5 268.5,333.5C 268.829,346.344 268.495,359.011 267.5,371.5C 267.5,358.833 267.5,346.167 267.5,333.5C 255.5,333.5 243.5,333.5 231.5,333.5C 231.5,346.167 231.5,358.833 231.5,371.5C 230.505,359.011 230.171,346.344 230.5,333.5C 218.5,333.5 206.5,333.5 194.5,333.5C 187.646,333.176 180.979,333.509 174.5,334.5C 173.957,334.44 173.624,334.107 173.5,333.5C 180.468,332.503 187.468,332.17 194.5,332.5C 206.5,332.5 218.5,332.5 230.5,332.5C 230.5,319.167 230.5,305.833 230.5,292.5C 230.5,279.167 230.5,265.833 230.5,252.5 Z"/></g>
<g><path style="opacity:0.993" fill="#181796" d="M 13.5,332.5 C 64.5,332.5 115.5,332.5 166.5,332.5C 191.073,368.273 225.073,383.107 268.5,377C 296.042,370.937 317.375,356.104 332.5,332.5C 383.5,332.5 434.5,332.5 485.5,332.5C 459.059,404.776 410.059,455.276 338.5,484C 317.652,491.713 296.319,496.88 274.5,499.5C 257.833,499.5 241.167,499.5 224.5,499.5C 136.144,487.759 70.3107,443.092 27,365.5C 21.3753,354.923 16.8753,343.923 13.5,332.5 Z"/></g>
<g><path style="opacity:1" fill="#f52a27" d="M 154.5,168.5 C 154.333,210.501 154.5,252.501 155,294.5C 156.115,302.397 158.115,310.063 161,317.5C 181.689,361.146 216.189,380.646 264.5,376C 306.706,367.291 333.039,342.125 343.5,300.5C 343.328,301.492 343.662,302.158 344.5,302.5C 342.146,313.201 338.146,323.201 332.5,332.5C 317.375,356.104 296.042,370.937 268.5,377C 225.073,383.107 191.073,368.273 166.5,332.5C 158.441,318.938 153.775,304.272 152.5,288.5C 153.167,248.5 153.833,208.5 154.5,168.5 Z"/></g>
<g><path style="opacity:1" fill="#ff0b06" d="M 304.5,333.5 C 311.354,333.176 318.021,333.509 324.5,334.5C 318.874,341.96 312.374,348.627 305,354.5C 304.5,347.508 304.334,340.508 304.5,333.5 Z"/></g>
<g><path style="opacity:1" fill="#ff0301" d="M 267.5,371.5 C 255.35,374.007 243.35,374.007 231.5,371.5C 231.5,358.833 231.5,346.167 231.5,333.5C 243.5,333.5 255.5,333.5 267.5,333.5C 267.5,346.167 267.5,358.833 267.5,371.5 Z"/></g>
<g><path style="opacity:1" fill="#ff0b07" d="M 194.5,333.5 C 194.666,340.508 194.5,347.508 194,354.5C 186.626,348.627 180.126,341.96 174.5,334.5C 180.979,333.509 187.646,333.176 194.5,333.5 Z"/></g>
</svg>
