<?xml version="1.0" encoding="UTF-8"?>
<!DOCTYPE svg PUBLIC "-//W3C//DTD SVG 1.1//EN" "http://www.w3.org/Graphics/SVG/1.1/DTD/svg11.dtd">
<svg xmlns="http://www.w3.org/2000/svg" version="1.1" width="500px" height="500px" style="shape-rendering:geometricPrecision; text-rendering:geometricPrecision; image-rendering:optimizeQuality; fill-rule:evenodd; clip-rule:evenodd" xmlns:xlink="http://www.w3.org/1999/xlink">
<g><path style="opacity:0.99" fill="#002a8f" d="M 225.5,-0.5 C 241.5,-0.5 257.5,-0.5 273.5,-0.5C 341.119,7.64869 397.286,37.3154 442,88.5C 445.015,91.8777 447.515,95.5444 449.5,99.5C 357.5,99.5 265.5,99.5 173.5,99.5C 146.499,84.6688 119.832,69.3354 93.5,53.5C 132.178,22.8384 176.178,4.83839 225.5,-0.5 Z"/></g>
<g><path style="opacity:0.997" fill="#cf142b" d="M 93.5,53.5 C 119.832,69.3354 146.499,84.6688 173.5,99.5C 174.29,100.401 175.29,101.068 176.5,101.5C 232.908,134.566 289.575,167.233 346.5,199.5C 347.29,200.401 348.29,201.068 349.5,201.5C 376.806,217.488 404.139,233.488 431.5,249.5C 403.268,266.445 374.935,283.112 346.5,299.5C 288.634,332.596 230.968,365.929 173.5,399.5C 146.499,414.331 119.832,429.665 93.5,445.5C 39.1992,400.911 7.86583,343.578 -0.5,273.5C -0.5,257.5 -0.5,241.5 -0.5,225.5C 7.86583,155.422 39.1992,98.0888 93.5,53.5 Z"/></g>
<g><path style="opacity:0.998" fill="#edeff6" d="M 173.5,99.5 C 265.5,99.5 357.5,99.5 449.5,99.5C 450.167,99.5 450.5,99.8333 450.5,100.5C 358.998,100.167 267.665,100.501 176.5,101.5C 175.29,101.068 174.29,100.401 173.5,99.5 Z"/></g>
<g><path style="opacity:0.997" fill="#fefefe" d="M 176.5,101.5 C 267.665,100.501 358.998,100.167 450.5,100.5C 472.743,130.001 487.743,163.001 495.5,199.5C 495.167,199.5 494.833,199.5 494.5,199.5C 445.167,199.5 395.833,199.5 346.5,199.5C 289.575,167.233 232.908,134.566 176.5,101.5 Z"/></g>
<g><path style="opacity:1" fill="#fefcfc" d="M 160.5,225.5 C 178.5,226.167 196.5,226.833 214.5,227.5C 199.745,237.421 185.412,247.921 171.5,259C 177.103,275.8 182.269,292.634 187,309.5C 172.656,299.152 158.323,288.819 144,278.5C 129.677,288.819 115.344,299.152 101,309.5C 105.33,292.502 110.497,275.669 116.5,259C 102.523,248.012 88.1895,237.512 73.5,227.5C 91.5,226.833 109.5,226.167 127.5,225.5C 132.512,208.63 138.012,191.963 144,175.5C 149.603,192.142 155.103,208.809 160.5,225.5 Z"/></g>
<g><path style="opacity:1" fill="#133896" d="M 346.5,199.5 C 395.833,199.5 445.167,199.5 494.5,199.5C 446.167,200.167 397.833,200.833 349.5,201.5C 348.29,201.068 347.29,200.401 346.5,199.5 Z"/></g>
<g><path style="opacity:0.995" fill="#022a8e" d="M 494.5,199.5 C 494.833,199.5 495.167,199.5 495.5,199.5C 496.748,207.982 498.081,216.315 499.5,224.5C 499.5,241.167 499.5,257.833 499.5,274.5C 498.183,282.703 496.85,291.036 495.5,299.5C 445.833,299.5 396.167,299.5 346.5,299.5C 374.935,283.112 403.268,266.445 431.5,249.5C 404.139,233.488 376.806,217.488 349.5,201.5C 397.833,200.833 446.167,200.167 494.5,199.5 Z"/></g>
<g><path style="opacity:1" fill="#d73c4f" d="M 127.5,225.5 C 109.5,226.167 91.5,226.833 73.5,227.5C 72.9569,227.44 72.6236,227.107 72.5,226.5C 90.8212,225.5 109.155,225.167 127.5,225.5 Z"/></g>
<g><path style="opacity:1" fill="#d73b4d" d="M 160.5,225.5 C 178.845,225.167 197.179,225.5 215.5,226.5C 215.376,227.107 215.043,227.44 214.5,227.5C 196.5,226.833 178.5,226.167 160.5,225.5 Z"/></g>
<g><path style="opacity:0.997" fill="#fefefe" d="M 346.5,299.5 C 396.167,299.5 445.833,299.5 495.5,299.5C 487.515,336.125 472.515,369.458 450.5,399.5C 358.167,399.5 265.833,399.5 173.5,399.5C 230.968,365.929 288.634,332.596 346.5,299.5 Z"/></g>
<g><path style="opacity:0.991" fill="#002a8f" d="M 173.5,399.5 C 265.833,399.5 358.167,399.5 450.5,399.5C 405.854,457.166 347.187,490.499 274.5,499.5C 257.833,499.5 241.167,499.5 224.5,499.5C 175.59,493.868 131.924,475.868 93.5,445.5C 119.832,429.665 146.499,414.331 173.5,399.5 Z"/></g>
</svg>
