<?xml version="1.0" encoding="UTF-8"?>
<!DOCTYPE svg PUBLIC "-//W3C//DTD SVG 1.1//EN" "http://www.w3.org/Graphics/SVG/1.1/DTD/svg11.dtd">
<svg xmlns="http://www.w3.org/2000/svg" version="1.1" width="500px" height="500px" style="shape-rendering:geometricPrecision; text-rendering:geometricPrecision; image-rendering:optimizeQuality; fill-rule:evenodd; clip-rule:evenodd" xmlns:xlink="http://www.w3.org/1999/xlink">
<g><path style="opacity:0.996" fill="#012069" d="M 225.5,-0.5 C 241.5,-0.5 257.5,-0.5 273.5,-0.5C 362.269,10.9489 428.436,55.6156 472,133.5C 486.559,162.333 495.726,192.666 499.5,224.5C 499.5,241.167 499.5,257.833 499.5,274.5C 497.723,286.814 495.389,299.147 492.5,311.5C 330.5,311.5 168.5,311.5 6.5,311.5C 3.50169,298.831 1.16836,286.164 -0.5,273.5C -0.5,257.5 -0.5,241.5 -0.5,225.5C 13.3537,124.821 67.0204,54.6542 160.5,15C 181.712,7.32938 203.379,2.16271 225.5,-0.5 Z"/></g>
<g><path style="opacity:1" fill="#f8f9fb" d="M 140.5,69.5 C 150.167,70.1667 159.833,70.8333 169.5,71.5C 161.546,76.788 153.88,82.4547 146.5,88.5C 150.279,97.6316 153.112,106.965 155,116.5C 147.51,110.09 139.51,104.424 131,99.5C 123.429,104.705 115.929,110.038 108.5,115.5C 108.167,115 107.833,114.5 107.5,114C 110.564,105.232 113.064,96.3983 115,87.5C 108.238,81.5643 101.071,76.231 93.5,71.5C 103.167,70.8333 112.833,70.1667 122.5,69.5C 124.624,60.2936 127.457,51.2936 131,42.5C 135.054,51.1617 138.221,60.1617 140.5,69.5 Z"/></g>
<g><path style="opacity:1" fill="#7081aa" d="M 122.5,69.5 C 112.833,70.1667 103.167,70.8333 93.5,71.5C 92.9569,71.44 92.6236,71.1067 92.5,70.5C 102.478,69.5015 112.478,69.1681 122.5,69.5 Z"/></g>
<g><path style="opacity:1" fill="#6d7ea8" d="M 140.5,69.5 C 150.522,69.1681 160.522,69.5015 170.5,70.5C 170.376,71.1067 170.043,71.44 169.5,71.5C 159.833,70.8333 150.167,70.1667 140.5,69.5 Z"/></g>
<g><path style="opacity:1" fill="#fafbfc" d="M 227.5,148.5 C 240.167,149.167 252.833,149.833 265.5,150.5C 254.901,157.438 244.901,165.105 235.5,173.5C 239.7,186.025 243.366,198.359 246.5,210.5C 235.833,202.833 225.167,195.167 214.5,187.5C 203.911,195.044 193.411,202.711 183,210.5C 185.697,197.904 189.53,185.571 194.5,173.5C 184.454,165.455 174.121,157.788 163.5,150.5C 176.5,149.833 189.5,149.167 202.5,148.5C 205.978,135.898 210.145,123.565 215,111.5C 219.104,123.979 223.27,136.312 227.5,148.5 Z"/></g>
<g><path style="opacity:1" fill="#8a98ba" d="M 202.5,148.5 C 189.5,149.167 176.5,149.833 163.5,150.5C 162.957,150.44 162.624,150.107 162.5,149.5C 175.817,148.501 189.15,148.167 202.5,148.5 Z"/></g>
<g><path style="opacity:1" fill="#8a98ba" d="M 227.5,148.5 C 240.517,148.168 253.517,148.501 266.5,149.5C 266.376,150.107 266.043,150.44 265.5,150.5C 252.833,149.833 240.167,149.167 227.5,148.5 Z"/></g>
<g><path style="opacity:1" fill="#91902d" d="M 6.5,311.5 C 168.5,311.5 330.5,311.5 492.5,311.5C 492.672,312.492 492.338,313.158 491.5,313.5C 330.167,312.167 168.833,312.167 7.5,313.5C 6.66175,313.158 6.32842,312.492 6.5,311.5 Z"/></g>
<g><path style="opacity:1" fill="#fbe200" d="M 491.5,313.5 C 486.17,335.148 477.836,355.481 466.5,374.5C 321.833,374.5 177.167,374.5 32.5,374.5C 21.167,355.487 12.8336,335.153 7.5,313.5C 168.833,312.167 330.167,312.167 491.5,313.5 Z"/></g>
<g><path style="opacity:0.992" fill="#012168" d="M 32.5,374.5 C 177.167,374.5 321.833,374.5 466.5,374.5C 422.687,446.765 358.687,488.432 274.5,499.5C 257.833,499.5 241.167,499.5 224.5,499.5C 140.312,488.431 76.3117,446.765 32.5,374.5 Z"/></g>
</svg>
