<?xml version="1.0" encoding="UTF-8"?>
<!DOCTYPE svg PUBLIC "-//W3C//DTD SVG 1.1//EN" "http://www.w3.org/Graphics/SVG/1.1/DTD/svg11.dtd">
<svg xmlns="http://www.w3.org/2000/svg" version="1.1" width="500px" height="500px" style="shape-rendering:geometricPrecision; text-rendering:geometricPrecision; image-rendering:optimizeQuality; fill-rule:evenodd; clip-rule:evenodd" xmlns:xlink="http://www.w3.org/1999/xlink">
<g><path style="opacity:0.994" fill="#fefefe" d="M 225.5,-0.5 C 241.5,-0.5 257.5,-0.5 273.5,-0.5C 340.775,7.17588 396.442,36.5092 440.5,87.5C 436.51,87.9987 432.51,88.4987 428.5,89C 426.248,91.8871 423.248,93.2205 419.5,93C 415.382,96.5055 411.049,99.8388 406.5,103C 403.27,104.308 399.936,105.308 396.5,106C 393.068,108.742 389.234,109.242 385,107.5C 381.188,111.312 377.355,115.145 373.5,119C 365.573,122.964 357.573,126.964 349.5,131C 336.918,135.979 323.918,138.645 310.5,139C 304.342,141.912 298.342,145.079 292.5,148.5C 290.56,147.905 288.56,147.572 286.5,147.5C 274.489,150.269 262.322,151.935 250,152.5C 232.669,151.059 215.335,149.059 198,146.5C 195.045,147.374 192.045,148.041 189,148.5C 185.362,147.118 181.528,146.284 177.5,146C 173.065,143.366 168.565,140.866 164,138.5C 163.5,138.833 163,139.167 162.5,139.5C 166.814,153.891 166.314,168.224 161,182.5C 157.395,187.604 152.562,190.937 146.5,192.5C 139.392,189.963 132.392,187.13 125.5,184C 116.62,181.483 108.286,182.65 100.5,187.5C 99.2638,186.754 97.9305,186.421 96.5,186.5C 96.082,189.439 94.582,191.772 92,193.5C 87.7375,206.521 78.9042,213.021 65.5,213C 59.7696,209.777 54.4363,205.944 49.5,201.5C 48.914,201.709 48.414,202.043 48,202.5C 47.3333,205.833 47.3333,209.167 48,212.5C 53.3751,217.889 55.2084,224.223 53.5,231.5C 55.4438,233.28 56.7771,235.447 57.5,238C 55.9712,239.582 55.4712,241.415 56,243.5C 58.0771,245.076 59.5771,247.076 60.5,249.5C 63.0704,250.702 65.5704,252.035 68,253.5C 69,259.167 70,264.833 71,270.5C 77.138,273.125 82.638,276.792 87.5,281.5C 95.3364,281.384 102.336,283.884 108.5,289C 113.756,290.796 119.089,292.296 124.5,293.5C 127.5,293 130.5,292.5 133.5,292C 150.235,283.297 161.235,287.964 166.5,306C 165.813,307.162 165.647,308.328 166,309.5C 168.461,308.782 170.961,308.115 173.5,307.5C 176.525,308.783 179.525,309.116 182.5,308.5C 179.717,305.545 178.05,302.045 177.5,298C 177.796,296.112 178.296,294.278 179,292.5C 189.799,281.381 202.799,277.714 218,281.5C 220.167,281.167 222.333,280.833 224.5,280.5C 225.212,278.954 226.378,277.954 228,277.5C 230.12,278.459 232.287,278.626 234.5,278C 242.292,274.728 249.959,271.062 257.5,267C 263.779,266.694 268.779,264.027 272.5,259C 276.486,258.501 280.486,258.334 284.5,258.5C 284.83,254.979 286.33,251.979 289,249.5C 287.62,229.415 296.787,221.915 316.5,227C 318.5,227.667 320.5,228.333 322.5,229C 324.102,231.111 326.102,232.611 328.5,233.5C 332.343,232.081 335.676,229.914 338.5,227C 341.78,226.944 344.78,226.111 347.5,224.5C 350.777,225.254 354.11,225.754 357.5,226C 361.079,227.754 364.746,229.254 368.5,230.5C 368.833,230.167 369.167,229.833 369.5,229.5C 366.721,228.327 366.054,226.493 367.5,224C 364.612,220.778 362.112,217.278 360,213.5C 353.693,210.017 349.026,205.017 346,198.5C 342.597,194.818 339.097,191.318 335.5,188C 335.817,183.59 335.983,179.09 336,174.5C 337.274,169.286 339.607,164.619 343,160.5C 344.214,158.951 345.714,157.785 347.5,157C 352.833,156.667 358.167,156.333 363.5,156C 367.608,146.218 374.274,138.551 383.5,133C 390.379,129.394 397.379,126.061 404.5,123C 409.324,117.759 414.991,113.759 421.5,111C 424.374,108.043 426.707,104.71 428.5,101C 433.702,97.8994 439.035,95.0661 444.5,92.5C 475.45,131.088 493.784,175.088 499.5,224.5C 499.5,241.167 499.5,257.833 499.5,274.5C 487.764,361.841 443.764,427.341 367.5,471C 338.093,486.083 307.093,495.583 274.5,499.5C 257.833,499.5 241.167,499.5 224.5,499.5C 132.596,487.072 65.4294,439.739 23,357.5C 10.7506,330.604 2.91724,302.604 -0.5,273.5C -0.5,257.5 -0.5,241.5 -0.5,225.5C 11.4543,135.075 57.4543,68.242 137.5,25C 165.514,11.5012 194.847,3.00119 225.5,-0.5 Z"/></g>
<g><path style="opacity:1" fill="#ffad2d" d="M 440.5,87.5 C 442.063,88.9448 443.396,90.6115 444.5,92.5C 439.035,95.0661 433.702,97.8994 428.5,101C 426.707,104.71 424.374,108.043 421.5,111C 414.991,113.759 409.324,117.759 404.5,123C 397.379,126.061 390.379,129.394 383.5,133C 374.274,138.551 367.608,146.218 363.5,156C 358.167,156.333 352.833,156.667 347.5,157C 345.714,157.785 344.214,158.951 343,160.5C 339.607,164.619 337.274,169.286 336,174.5C 335.983,179.09 335.817,183.59 335.5,188C 339.097,191.318 342.597,194.818 346,198.5C 349.026,205.017 353.693,210.017 360,213.5C 362.112,217.278 364.612,220.778 367.5,224C 366.054,226.493 366.721,228.327 369.5,229.5C 369.167,229.833 368.833,230.167 368.5,230.5C 364.746,229.254 361.079,227.754 357.5,226C 354.11,225.754 350.777,225.254 347.5,224.5C 344.78,226.111 341.78,226.944 338.5,227C 335.676,229.914 332.343,232.081 328.5,233.5C 326.102,232.611 324.102,231.111 322.5,229C 320.5,228.333 318.5,227.667 316.5,227C 296.787,221.915 287.62,229.415 289,249.5C 286.33,251.979 284.83,254.979 284.5,258.5C 280.486,258.334 276.486,258.501 272.5,259C 268.779,264.027 263.779,266.694 257.5,267C 249.959,271.062 242.292,274.728 234.5,278C 232.287,278.626 230.12,278.459 228,277.5C 226.378,277.954 225.212,278.954 224.5,280.5C 222.333,280.833 220.167,281.167 218,281.5C 202.799,277.714 189.799,281.381 179,292.5C 178.296,294.278 177.796,296.112 177.5,298C 178.05,302.045 179.717,305.545 182.5,308.5C 179.525,309.116 176.525,308.783 173.5,307.5C 170.961,308.115 168.461,308.782 166,309.5C 165.647,308.328 165.813,307.162 166.5,306C 161.235,287.964 150.235,283.297 133.5,292C 130.5,292.5 127.5,293 124.5,293.5C 119.089,292.296 113.756,290.796 108.5,289C 102.336,283.884 95.3364,281.384 87.5,281.5C 82.638,276.792 77.138,273.125 71,270.5C 70,264.833 69,259.167 68,253.5C 65.5704,252.035 63.0704,250.702 60.5,249.5C 59.5771,247.076 58.0771,245.076 56,243.5C 55.4712,241.415 55.9712,239.582 57.5,238C 56.7771,235.447 55.4438,233.28 53.5,231.5C 55.2084,224.223 53.3751,217.889 48,212.5C 47.3333,209.167 47.3333,205.833 48,202.5C 48.414,202.043 48.914,201.709 49.5,201.5C 54.4363,205.944 59.7696,209.777 65.5,213C 78.9042,213.021 87.7375,206.521 92,193.5C 94.582,191.772 96.082,189.439 96.5,186.5C 97.9305,186.421 99.2638,186.754 100.5,187.5C 108.286,182.65 116.62,181.483 125.5,184C 132.392,187.13 139.392,189.963 146.5,192.5C 152.562,190.937 157.395,187.604 161,182.5C 166.314,168.224 166.814,153.891 162.5,139.5C 163,139.167 163.5,138.833 164,138.5C 168.565,140.866 173.065,143.366 177.5,146C 181.528,146.284 185.362,147.118 189,148.5C 192.045,148.041 195.045,147.374 198,146.5C 215.335,149.059 232.669,151.059 250,152.5C 262.322,151.935 274.489,150.269 286.5,147.5C 288.56,147.572 290.56,147.905 292.5,148.5C 298.342,145.079 304.342,141.912 310.5,139C 323.918,138.645 336.918,135.979 349.5,131C 357.573,126.964 365.573,122.964 373.5,119C 377.355,115.145 381.188,111.312 385,107.5C 389.234,109.242 393.068,108.742 396.5,106C 399.936,105.308 403.27,104.308 406.5,103C 411.049,99.8388 415.382,96.5055 419.5,93C 423.248,93.2205 426.248,91.8871 428.5,89C 432.51,88.4987 436.51,87.9987 440.5,87.5 Z"/></g>
<g><path style="opacity:1" fill="#334a17" d="M 73.5,304.5 C 76.4245,304.46 79.0912,305.293 81.5,307C 89.7455,313.339 95.0788,321.506 97.5,331.5C 88.7383,329.866 81.5717,325.533 76,318.5C 74.2079,314 73.3746,309.333 73.5,304.5 Z"/></g>
<g><path style="opacity:1" fill="#304814" d="M 372.5,304.5 C 373.833,304.5 375.167,304.5 376.5,304.5C 376.725,309.248 376.225,313.915 375,318.5C 369.113,325.024 361.946,329.357 353.5,331.5C 354.482,326.53 356.316,321.863 359,317.5C 363.395,312.936 367.895,308.602 372.5,304.5 Z"/></g>
<g><path style="opacity:1" fill="#384e1d" d="M 99.5,311.5 C 102.091,312.254 103.924,313.921 105,316.5C 105.829,321.533 105.662,326.533 104.5,331.5C 99.907,325.678 98.2403,319.012 99.5,311.5 Z"/></g>
<g><path style="opacity:1" fill="#324916" d="M 349.5,311.5 C 350.748,312.334 351.415,313.667 351.5,315.5C 351.662,321.591 349.829,326.924 346,331.5C 345.333,326.5 345.333,321.5 346,316.5C 346.997,314.677 348.164,313.01 349.5,311.5 Z"/></g>
<g><path style="opacity:1" fill="#344b18" d="M 333.5,330.5 C 335.604,330.201 337.604,330.534 339.5,331.5C 334.807,341.577 327.807,349.577 318.5,355.5C 319.66,344.976 324.66,336.643 333.5,330.5 Z"/></g>
<g><path style="opacity:1" fill="#344b19" d="M 111.5,330.5 C 114.32,330.248 116.986,330.748 119.5,332C 126.887,338.453 131.22,346.287 132.5,355.5C 122.443,349.711 115.443,341.378 111.5,330.5 Z"/></g>
<g><path style="opacity:1" fill="#324915" d="M 76.5,331.5 C 81.698,331.731 86.698,332.897 91.5,335C 94.07,337.067 96.07,339.567 97.5,342.5C 92.0824,343.897 86.7491,343.731 81.5,342C 78.3475,339.195 76.6808,335.695 76.5,331.5 Z"/></g>
<g><path style="opacity:1" fill="#334a17" d="M 368.5,331.5 C 370.5,331.5 372.5,331.5 374.5,331.5C 374.27,335.694 372.603,339.194 369.5,342C 364.246,343.271 358.913,343.771 353.5,343.5C 353.781,341.037 354.781,338.87 356.5,337C 360.227,334.299 364.227,332.465 368.5,331.5 Z"/></g>
<g><path style="opacity:1" fill="#334a17" d="M 100.5,336.5 C 106.662,336.666 111.495,339.333 115,344.5C 117.167,348.167 119.333,351.833 121.5,355.5C 110.541,353.888 103.541,347.555 100.5,336.5 Z"/></g>
<g><path style="opacity:1" fill="#334a17" d="M 344.5,336.5 C 346.167,336.5 347.833,336.5 349.5,336.5C 349.429,342.14 347.096,346.64 342.5,350C 338.372,353.086 334.038,354.919 329.5,355.5C 332.845,347.785 337.845,341.452 344.5,336.5 Z"/></g>
<g><path style="opacity:1" fill="#314915" d="M 96.5,348.5 C 101.494,347.813 104.494,349.813 105.5,354.5C 103.143,354.663 100.81,354.497 98.5,354C 96.8446,352.556 96.178,350.722 96.5,348.5 Z"/></g>
<g><path style="opacity:1" fill="#334a17" d="M 348.5,348.5 C 350.5,348.5 352.5,348.5 354.5,348.5C 354.822,350.722 354.155,352.556 352.5,354C 350.19,354.497 347.857,354.663 345.5,354.5C 345.615,352.053 346.615,350.053 348.5,348.5 Z"/></g>
<g><path style="opacity:1" fill="#3c5222" d="M 311.5,351.5 C 312.833,351.5 314.167,351.5 315.5,351.5C 315.932,354.982 314.599,357.315 311.5,358.5C 310,358.547 309,357.881 308.5,356.5C 309.26,354.64 310.26,352.973 311.5,351.5 Z"/></g>
<g><path style="opacity:1" fill="#344b18" d="M 145.5,355.5 C 157.453,354.815 165.453,360.149 169.5,371.5C 158.08,371.43 150.08,366.097 145.5,355.5 Z"/></g>
<g><path style="opacity:1" fill="#324916" d="M 296.5,355.5 C 299.167,355.5 301.833,355.5 304.5,355.5C 303.259,361.914 299.592,366.414 293.5,369C 290.268,370.449 286.935,371.616 283.5,372.5C 282.833,372.167 282.167,371.833 281.5,371.5C 284.519,364.153 289.519,358.819 296.5,355.5 Z"/></g>
<g><path style="opacity:1" fill="#344b18" d="M 96.5,357.5 C 107.754,355.287 117.421,358.121 125.5,366C 115.698,368.724 106.364,367.724 97.5,363C 95.7011,361.3 95.3677,359.467 96.5,357.5 Z"/></g>
<g><path style="opacity:1" fill="#3b5120" d="M 135.5,351.5 C 139.814,351.317 141.981,353.317 142,357.5C 137.146,358.934 134.98,356.934 135.5,351.5 Z"/></g>
<g><path style="opacity:1" fill="#314915" d="M 337.5,357.5 C 343.212,357.313 348.879,357.646 354.5,358.5C 354.201,361.642 352.534,363.809 349.5,365C 341.589,367.804 333.589,368.137 325.5,366C 329.075,362.396 333.075,359.562 337.5,357.5 Z"/></g>
<g><path style="opacity:1" fill="#7e8d6b" d="M 315.5,360.5 C 318.024,359.2 320.691,359.2 323.5,360.5C 323.376,361.107 323.043,361.44 322.5,361.5C 320.393,360.532 318.059,360.198 315.5,360.5 Z"/></g>
<g><path style="opacity:1" fill="#334a17" d="M 128.5,359.5 C 139.216,360.025 147.883,364.525 154.5,373C 144.289,374.375 135.789,371.208 129,363.5C 128.51,362.207 128.343,360.873 128.5,359.5 Z"/></g>
<g><path style="opacity:1" fill="#2f4713" d="M 315.5,360.5 C 318.059,360.198 320.393,360.532 322.5,361.5C 318.397,368.065 312.397,371.899 304.5,373C 301.833,373.667 299.167,373.667 296.5,373C 301.567,366.807 307.9,362.64 315.5,360.5 Z"/></g>
<g><path style="opacity:1" fill="#8d9a7d" d="M 178.5,368.5 C 177.5,368.5 176.5,368.5 175.5,368.5C 175.5,369.5 175.5,370.5 175.5,371.5C 174.566,370.432 174.232,369.099 174.5,367.5C 176.099,367.232 177.432,367.566 178.5,368.5 Z"/></g>
<g><path style="opacity:1" fill="#344c1a" d="M 178.5,368.5 C 180.539,369.911 181.539,371.911 181.5,374.5C 179.801,374.66 178.134,374.494 176.5,374C 175.748,373.329 175.414,372.496 175.5,371.5C 175.5,370.5 175.5,369.5 175.5,368.5C 176.5,368.5 177.5,368.5 178.5,368.5 Z"/></g>
<g><path style="opacity:1" fill="#344b19" d="M 271.5,368.5 C 272.833,368.5 274.167,368.5 275.5,368.5C 276.5,373.5 274.5,375.5 269.5,374.5C 269.604,372.297 270.27,370.297 271.5,368.5 Z"/></g>
<g><path style="opacity:1" fill="#99a58b" d="M 129.5,370.5 C 128.167,370.5 127.5,371.167 127.5,372.5C 126.596,371.791 126.263,370.791 126.5,369.5C 127.791,369.263 128.791,369.596 129.5,370.5 Z"/></g>
<g><path style="opacity:1" fill="#2a430f" d="M 129.5,370.5 C 131.213,371.635 131.88,373.302 131.5,375.5C 129.027,375.912 127.694,374.912 127.5,372.5C 127.5,371.167 128.167,370.5 129.5,370.5 Z"/></g>
<g><path style="opacity:1" fill="#324916" d="M 185.5,371.5 C 194.179,371.591 201.012,375.258 206,382.5C 207.626,384.917 209.126,387.417 210.5,390C 200.618,390.309 192.785,386.476 187,378.5C 186.338,376.187 185.838,373.854 185.5,371.5 Z"/></g>
<g><path style="opacity:1" fill="#304814" d="M 257.5,371.5 C 260.167,371.5 262.833,371.5 265.5,371.5C 264.976,376.381 262.976,380.548 259.5,384C 253.638,388.016 247.305,389.849 240.5,389.5C 244.837,382.165 250.504,376.165 257.5,371.5 Z"/></g>
<g><path style="opacity:1" fill="#334a18" d="M 320.5,370.5 C 321.5,370.5 322.5,370.5 323.5,370.5C 323.978,373.278 322.978,375.278 320.5,376.5C 319.306,374.484 319.306,372.484 320.5,370.5 Z"/></g>
<g><path style="opacity:1" fill="#344b18" d="M 137.5,377.5 C 144.844,376.768 151.844,377.934 158.5,381C 161.249,383.19 160.915,384.857 157.5,386C 147.413,388.061 138.413,385.894 130.5,379.5C 132.969,378.832 135.302,378.165 137.5,377.5 Z"/></g>
<g><path style="opacity:1" fill="#324a16" d="M 316.5,378.5 C 317.5,379.167 318.5,379.833 319.5,380.5C 311.35,386.087 302.35,387.92 292.5,386C 290.993,385.163 290.493,383.996 291,382.5C 295.66,378.832 300.993,377.166 307,377.5C 310.2,377.656 313.367,377.989 316.5,378.5 Z"/></g>
<g><path style="opacity:1" fill="#304814" d="M 165.5,378.5 C 175.181,377.449 183.514,380.282 190.5,387C 184.167,387.667 177.833,387.667 171.5,387C 166.681,385.743 164.681,382.91 165.5,378.5 Z"/></g>
<g><path style="opacity:1" fill="#314915" d="M 273.5,378.5 C 277.571,378.234 281.571,378.567 285.5,379.5C 286.725,381.843 286.059,383.677 283.5,385C 281.913,385.862 280.246,386.529 278.5,387C 257.593,390.117 255.926,387.284 273.5,378.5 Z"/></g>
<g><path style="opacity:1" fill="#96a287" d="M 316.5,378.5 C 317.978,378.238 319.311,378.571 320.5,379.5C 320.376,380.107 320.043,380.44 319.5,380.5C 318.5,379.833 317.5,379.167 316.5,378.5 Z"/></g>
<g><path style="opacity:1" fill="#364d1b" d="M 163.5,388.5 C 168.323,388.327 170.323,390.661 169.5,395.5C 164.984,395.519 162.984,393.186 163.5,388.5 Z"/></g>
<g><path style="opacity:1" fill="#3a5120" d="M 283.5,388.5 C 284.833,388.5 286.167,388.5 287.5,388.5C 288.016,393.186 286.016,395.519 281.5,395.5C 281.166,392.812 281.832,390.479 283.5,388.5 Z"/></g>
<g><path style="opacity:1" fill="#344b18" d="M 256.5,391.5 C 260.514,391.334 264.514,391.501 268.5,392C 271.076,392.782 273.076,394.282 274.5,396.5C 267.42,400.749 259.753,402.249 251.5,401C 248.554,400.194 245.888,398.861 243.5,397C 247.893,395.044 252.226,393.211 256.5,391.5 Z"/></g>
<g><path style="opacity:1" fill="#344b18" d="M 182.5,391.5 C 191.332,391.1 199.665,392.933 207.5,397C 197.026,403.062 186.693,402.895 176.5,396.5C 178.162,394.348 180.162,392.682 182.5,391.5 Z"/></g>
<g><path style="opacity:1" fill="#334a17" d="M 215.5,394.5 C 218.991,394.909 222.325,395.909 225.5,397.5C 228.564,395.533 231.897,394.7 235.5,395C 235.957,395.414 236.291,395.914 236.5,396.5C 235.092,397.243 233.759,398.077 232.5,399C 236.167,402 239.833,405 243.5,408C 241.317,410.35 238.984,412.517 236.5,414.5C 232.586,410.312 228.919,405.979 225.5,401.5C 221.676,405.793 217.843,410.126 214,414.5C 211.678,412.343 209.511,410.01 207.5,407.5C 211.309,404.858 214.976,402.025 218.5,399C 215.418,398.479 214.418,396.979 215.5,394.5 Z"/></g>
</svg>
