<?xml version="1.0" encoding="UTF-8"?>
<!DOCTYPE svg PUBLIC "-//W3C//DTD SVG 1.1//EN" "http://www.w3.org/Graphics/SVG/1.1/DTD/svg11.dtd">
<svg xmlns="http://www.w3.org/2000/svg" version="1.1" width="500px" height="500px" style="shape-rendering:geometricPrecision; text-rendering:geometricPrecision; image-rendering:optimizeQuality; fill-rule:evenodd; clip-rule:evenodd" xmlns:xlink="http://www.w3.org/1999/xlink">
<g><path style="opacity:0.995" fill="#c50b2f" d="M 225.5,-0.5 C 241.5,-0.5 257.5,-0.5 273.5,-0.5C 362.269,10.9489 428.436,55.6156 472,133.5C 484.82,158.792 493.32,185.459 497.5,213.5C 399.167,213.5 300.833,213.5 202.5,213.5C 202.5,143.5 202.5,73.5 202.5,3.5C 210.232,1.96986 217.899,0.636523 225.5,-0.5 Z"/></g>
<g><path style="opacity:0.997" fill="#fefdfd" d="M 202.5,3.5 C 202.5,73.5 202.5,143.5 202.5,213.5C 300.833,213.5 399.167,213.5 497.5,213.5C 498.026,217.312 498.693,220.979 499.5,224.5C 499.5,241.167 499.5,257.833 499.5,274.5C 498.693,278.021 498.026,281.688 497.5,285.5C 399.167,285.5 300.833,285.5 202.5,285.5C 202.5,355.5 202.5,425.5 202.5,495.5C 176.878,490.963 152.878,482.296 130.5,469.5C 130.5,408.167 130.5,346.833 130.5,285.5C 87.5,285.5 44.5,285.5 1.5,285.5C 1.04433,281.336 0.377659,277.336 -0.5,273.5C -0.5,257.5 -0.5,241.5 -0.5,225.5C 0.377659,221.664 1.04433,217.664 1.5,213.5C 44.5,213.5 87.5,213.5 130.5,213.5C 130.5,152.167 130.5,90.8333 130.5,29.5C 152.878,16.7041 176.878,8.03748 202.5,3.5 Z"/></g>
<g><path style="opacity:0.99" fill="#c50b2f" d="M 130.5,29.5 C 130.5,90.8333 130.5,152.167 130.5,213.5C 87.5,213.5 44.5,213.5 1.5,213.5C 13.2395,141.145 48.9062,83.9782 108.5,42C 115.482,37.1774 122.816,33.0108 130.5,29.5 Z"/></g>
<g><path style="opacity:0.99" fill="#c50b2f" d="M 1.5,285.5 C 44.5,285.5 87.5,285.5 130.5,285.5C 130.5,346.833 130.5,408.167 130.5,469.5C 57.9834,429.221 14.9834,367.887 1.5,285.5 Z"/></g>
<g><path style="opacity:0.995" fill="#c60c30" d="M 497.5,285.5 C 485.1,360.513 447.433,419.013 384.5,461C 350.659,482.096 313.992,494.929 274.5,499.5C 257.833,499.5 241.167,499.5 224.5,499.5C 217.226,498.397 209.892,497.064 202.5,495.5C 202.5,425.5 202.5,355.5 202.5,285.5C 300.833,285.5 399.167,285.5 497.5,285.5 Z"/></g>
</svg>
