<?xml version="1.0" encoding="UTF-8"?>
<!DOCTYPE svg PUBLIC "-//W3C//DTD SVG 1.1//EN" "http://www.w3.org/Graphics/SVG/1.1/DTD/svg11.dtd">
<svg xmlns="http://www.w3.org/2000/svg" version="1.1" width="500px" height="500px" style="shape-rendering:geometricPrecision; text-rendering:geometricPrecision; image-rendering:optimizeQuality; fill-rule:evenodd; clip-rule:evenodd" xmlns:xlink="http://www.w3.org/1999/xlink">
<g><path style="opacity:0.994" fill="#6ab2e6" d="M 225.5,-0.5 C 241.5,-0.5 257.5,-0.5 273.5,-0.5C 362.269,10.9489 428.436,55.6156 472,133.5C 486.559,162.333 495.726,192.666 499.5,224.5C 499.5,232.833 499.5,241.167 499.5,249.5C 462.833,249.5 426.167,249.5 389.5,249.5C 286.594,189.131 183.261,129.298 79.5,70C 78.6195,69.2917 77.9528,68.4584 77.5,67.5C 119.202,28.6555 168.535,5.98881 225.5,-0.5 Z"/></g>
<g><path style="opacity:0.996" fill="#fefefe" d="M 77.5,67.5 C 77.9528,68.4584 78.6195,69.2917 79.5,70C 183.261,129.298 286.594,189.131 389.5,249.5C 286.594,309.869 183.261,369.702 79.5,429C 78.6195,429.708 77.9528,430.542 77.5,431.5C 32.3241,388.48 6.3241,335.813 -0.5,273.5C -0.5,257.5 -0.5,241.5 -0.5,225.5C 6.64386,163.331 32.6439,110.665 77.5,67.5 Z"/></g>
<g><path style="opacity:1" fill="#d7191c" d="M 60.5,236.5 C 76.5,235.833 92.5,235.167 108.5,234.5C 112.892,218.656 117.892,202.99 123.5,187.5C 129.105,202.981 134.105,218.648 138.5,234.5C 155.17,234.333 171.837,234.5 188.5,235C 175.667,244.5 162.833,254 150,263.5C 153.284,278.365 157.618,293.032 163,307.5C 163.667,308.833 163.667,310.167 163,311.5C 149.974,301.64 136.807,291.974 123.5,282.5C 110.244,292.045 97.0778,301.711 84,311.5C 87.8945,295.643 92.7278,279.977 98.5,264.5C 85.7657,255.146 73.099,245.812 60.5,236.5 Z"/></g>
<g><path style="opacity:1" fill="#e2565a" d="M 108.5,234.5 C 92.5,235.167 76.5,235.833 60.5,236.5C 59.7109,236.217 59.0442,235.717 58.5,235C 75.1633,234.5 91.83,234.333 108.5,234.5 Z"/></g>
<g><path style="opacity:0.994" fill="#12ad2b" d="M 389.5,249.5 C 426.167,249.5 462.833,249.5 499.5,249.5C 499.5,257.833 499.5,266.167 499.5,274.5C 487.764,361.841 443.764,427.341 367.5,471C 338.093,486.083 307.093,495.583 274.5,499.5C 257.833,499.5 241.167,499.5 224.5,499.5C 167.949,492.718 118.949,470.052 77.5,431.5C 77.9528,430.542 78.6195,429.708 79.5,429C 183.261,369.702 286.594,309.869 389.5,249.5 Z"/></g>
</svg>
