<?xml version="1.0" encoding="UTF-8"?>
<!DOCTYPE svg PUBLIC "-//W3C//DTD SVG 1.1//EN" "http://www.w3.org/Graphics/SVG/1.1/DTD/svg11.dtd">
<svg xmlns="http://www.w3.org/2000/svg" version="1.1" width="500px" height="500px" style="shape-rendering:geometricPrecision; text-rendering:geometricPrecision; image-rendering:optimizeQuality; fill-rule:evenodd; clip-rule:evenodd" xmlns:xlink="http://www.w3.org/1999/xlink">
<g><path style="opacity:0.995" fill="#fcd115" d="M 225.5,-0.5 C 226.5,-0.5 227.5,-0.5 228.5,-0.5C 228.5,41.1667 228.5,82.8333 228.5,124.5C 214.262,127.693 200.596,132.693 187.5,139.5C 187.5,95.1667 187.5,50.8333 187.5,6.5C 200.169,3.50169 212.836,1.16836 225.5,-0.5 Z"/></g>
<g><path style="opacity:0.998" fill="#040301" d="M 228.5,-0.5 C 242.5,-0.5 256.5,-0.5 270.5,-0.5C 270.5,41.1667 270.5,82.8333 270.5,124.5C 256.5,123.167 242.5,123.167 228.5,124.5C 228.5,82.8333 228.5,41.1667 228.5,-0.5 Z"/></g>
<g><path style="opacity:0.995" fill="#fefefe" d="M 270.5,-0.5 C 271.5,-0.5 272.5,-0.5 273.5,-0.5C 286.164,1.16836 298.831,3.50169 311.5,6.5C 311.5,50.8333 311.5,95.1667 311.5,139.5C 298.295,133.056 284.628,128.056 270.5,124.5C 270.5,82.8333 270.5,41.1667 270.5,-0.5 Z"/></g>
<g><path style="opacity:0.992" fill="#046b3e" d="M 187.5,6.5 C 187.5,50.8333 187.5,95.1667 187.5,139.5C 167.813,151.521 152.146,167.521 140.5,187.5C 95.8333,187.5 51.1667,187.5 6.5,187.5C 33.8333,94.1667 94.1667,33.8333 187.5,6.5 Z"/></g>
<g><path style="opacity:0.992" fill="#046b3f" d="M 311.5,6.5 C 389.956,28.4591 446.123,76.4591 480,150.5C 484.869,162.608 489.036,174.941 492.5,187.5C 448.167,187.5 403.833,187.5 359.5,187.5C 347.167,167.833 331.167,151.833 311.5,139.5C 311.5,95.1667 311.5,50.8333 311.5,6.5 Z"/></g>
<g><path style="opacity:1" fill="#d31c2f" d="M 270.5,124.5 C 284.628,128.056 298.295,133.056 311.5,139.5C 331.167,151.833 347.167,167.833 359.5,187.5C 366.194,200.583 370.86,214.25 373.5,228.5C 374.833,242.5 374.833,256.5 373.5,270.5C 370.456,284.629 365.79,298.295 359.5,311.5C 347.167,331.167 331.167,347.167 311.5,359.5C 298.671,366.554 285.004,371.221 270.5,373.5C 269.508,373.328 268.842,373.662 268.5,374.5C 255.171,375.812 241.838,375.812 228.5,374.5C 214.197,371.528 200.53,366.528 187.5,359.5C 167.813,347.479 152.146,331.479 140.5,311.5C 133.487,298.492 128.487,284.825 125.5,270.5C 124.191,256.498 124.191,242.498 125.5,228.5C 128.304,214.094 133.304,200.427 140.5,187.5C 152.146,167.521 167.813,151.521 187.5,139.5C 200.596,132.693 214.262,127.693 228.5,124.5C 242.5,123.167 256.5,123.167 270.5,124.5 Z"/></g>
<g><path style="opacity:1" fill="#650c16" d="M 253.5,149.5 C 257.884,149.174 262.217,149.508 266.5,150.5C 266.376,151.107 266.043,151.44 265.5,151.5C 261.5,150.833 257.5,150.167 253.5,149.5 Z"/></g>
<g><path style="opacity:1" fill="#180805" d="M 253.5,149.5 C 257.5,150.167 261.5,150.833 265.5,151.5C 263.188,153.636 260.688,155.636 258,157.5C 258.667,162.167 259.333,166.833 260,171.5C 256.758,168.795 253.258,166.461 249.5,164.5C 245.742,166.461 242.242,168.795 239,171.5C 239.667,166.833 240.333,162.167 241,157.5C 238.167,155.333 235.333,153.167 232.5,151C 236.5,150.667 240.5,150.333 244.5,150C 246.067,145.801 247.734,141.634 249.5,137.5C 251.435,141.304 252.768,145.304 253.5,149.5 Z"/></g>
<g><path style="opacity:1" fill="#00643b" d="M 248.5,143.5 C 250.555,145.234 251.888,147.567 252.5,150.5C 255.785,151.324 259.118,151.824 262.5,152C 260.04,153.458 257.873,155.291 256,157.5C 256.333,160.833 256.667,164.167 257,167.5C 254.636,165.637 252.136,163.971 249.5,162.5C 246.864,163.971 244.364,165.637 242,167.5C 242.333,164.167 242.667,160.833 243,157.5C 240.926,155.548 238.759,153.715 236.5,152C 239.817,151.502 243.15,151.335 246.5,151.5C 246.963,148.779 247.629,146.112 248.5,143.5 Z"/></g>
<g><path style="opacity:1" fill="#0d0a05" d="M 320.5,178.5 C 316.5,179.167 312.5,179.833 308.5,180.5C 306.538,183.865 305.038,187.532 304,191.5C 302.208,187.959 300.708,184.292 299.5,180.5C 295.5,179.833 291.5,179.167 287.5,178.5C 290.501,176 293.501,173.5 296.5,171C 295.167,167.333 293.833,163.667 292.5,160C 292.833,159.5 293.167,159 293.5,158.5C 296.874,161.045 300.374,163.378 304,165.5C 307.491,163.419 310.825,161.085 314,158.5C 313.613,162.353 312.78,166.186 311.5,170C 313.675,173.675 316.675,176.508 320.5,178.5 Z"/></g>
<g><path style="opacity:1" fill="#00663c" d="M 295.5,162.5 C 298.149,164.14 300.816,165.807 303.5,167.5C 306.136,166.029 308.636,164.363 311,162.5C 310.462,165.794 310.129,169.127 310,172.5C 318.816,178.079 317.65,180.079 306.5,178.5C 305.969,181.237 305.136,183.904 304,186.5C 302.644,184.102 301.477,181.602 300.5,179C 297.167,178.667 293.833,178.333 290.5,178C 293.336,175.993 296.003,173.826 298.5,171.5C 297.199,168.573 296.199,165.573 295.5,162.5 Z"/></g>
<g><path style="opacity:1" fill="#130905" d="M 201.5,165.5 C 200.992,168.176 200.825,170.843 201,173.5C 203.713,175.72 206.546,177.72 209.5,179.5C 205.5,180.167 201.5,180.833 197.5,181.5C 195.928,185.026 194.428,188.693 193,192.5C 191.309,189.099 189.809,185.599 188.5,182C 184.459,181.827 180.459,181.327 176.5,180.5C 179.492,177.668 182.492,174.835 185.5,172C 184.364,168.257 183.03,164.59 181.5,161C 181.833,160.5 182.167,160 182.5,159.5C 185.587,162.46 189.087,164.793 193,166.5C 196.29,164.713 199.457,162.713 202.5,160.5C 203.247,162.289 202.914,163.956 201.5,165.5 Z"/></g>
<g><path style="opacity:1" fill="#00663c" d="M 201.5,165.5 C 199.44,167.747 198.607,170.414 199,173.5C 201.074,175.452 203.241,177.285 205.5,179C 202.183,179.498 198.85,179.665 195.5,179.5C 194.978,182.568 194.145,185.568 193,188.5C 191.76,185.723 190.594,182.89 189.5,180C 186.5,179.667 183.5,179.333 180.5,179C 182.875,176.824 185.208,174.657 187.5,172.5C 186.024,169.585 185.19,166.585 185,163.5C 187.411,165.578 190.078,167.245 193,168.5C 195.741,167.211 198.241,165.545 200.5,163.5C 201.298,163.957 201.631,164.624 201.5,165.5 Z"/></g>
<g><path style="opacity:1" fill="#700e19" d="M 209.5,179.5 C 210.043,179.56 210.376,179.893 210.5,180.5C 206.217,181.492 201.884,181.826 197.5,181.5C 201.5,180.833 205.5,180.167 209.5,179.5 Z"/></g>
<g><path style="opacity:1" fill="#7a0f1b" d="M 287.5,178.5 C 291.5,179.167 295.5,179.833 299.5,180.5C 295.116,180.826 290.783,180.492 286.5,179.5C 286.624,178.893 286.957,178.56 287.5,178.5 Z"/></g>
<g><path style="opacity:1" fill="#8c121f" d="M 320.5,178.5 C 321.043,178.56 321.376,178.893 321.5,179.5C 317.217,180.492 312.884,180.826 308.5,180.5C 312.5,179.833 316.5,179.167 320.5,178.5 Z"/></g>
<g><path style="opacity:1" fill="#140407" d="M 248.5,183.5 C 245.287,183.19 242.287,183.523 239.5,184.5C 238.5,184.5 237.5,184.5 236.5,184.5C 238.462,182.983 240.795,182.316 243.5,182.5C 245.369,182.507 247.036,182.84 248.5,183.5 Z"/></g>
<g><path style="opacity:1" fill="#583c7a" d="M 239.5,184.5 C 242.287,183.523 245.287,183.19 248.5,183.5C 250.553,183.402 252.22,184.069 253.5,185.5C 252.178,185.33 251.011,185.663 250,186.5C 246.851,184.638 243.351,183.971 239.5,184.5 Z"/></g>
<g><path style="opacity:1" fill="#251933" d="M 236.5,184.5 C 234.984,186.186 233.65,188.019 232.5,190C 233.544,191.174 234.544,192.341 235.5,193.5C 235.167,193.5 234.833,193.5 234.5,193.5C 234.167,193.5 233.833,193.5 233.5,193.5C 232.194,192.533 231.527,191.199 231.5,189.5C 232.167,186.833 233.833,185.167 236.5,184.5 Z"/></g>
<g><path style="opacity:1" fill="#8f5ec3" d="M 236.5,184.5 C 237.5,184.5 238.5,184.5 239.5,184.5C 243.351,183.971 246.851,184.638 250,186.5C 251.011,185.663 252.178,185.33 253.5,185.5C 254.585,187.587 256.251,188.92 258.5,189.5C 260.239,192.243 262.573,194.243 265.5,195.5C 266.262,197.262 267.596,198.262 269.5,198.5C 268.081,199.451 266.415,199.784 264.5,199.5C 264.083,198.876 263.416,198.543 262.5,198.5C 254.343,203.402 245.676,204.569 236.5,202C 237.801,200.384 237.801,198.884 236.5,197.5C 235.566,196.432 235.232,195.099 235.5,193.5C 234.544,192.341 233.544,191.174 232.5,190C 233.65,188.019 234.984,186.186 236.5,184.5 Z"/></g>
<g><path style="opacity:1" fill="#20111e" d="M 253.5,185.5 C 255.749,186.08 257.415,187.413 258.5,189.5C 256.251,188.92 254.585,187.587 253.5,185.5 Z"/></g>
<g><path style="opacity:0.994" fill="#fcd115" d="M 6.5,187.5 C 51.1667,187.5 95.8333,187.5 140.5,187.5C 133.304,200.427 128.304,214.094 125.5,228.5C 83.5,228.5 41.5,228.5 -0.5,228.5C -0.5,227.5 -0.5,226.5 -0.5,225.5C 1.16836,212.836 3.50169,200.169 6.5,187.5 Z"/></g>
<g><path style="opacity:0.995" fill="#fcd115" d="M 359.5,187.5 C 403.833,187.5 448.167,187.5 492.5,187.5C 495.389,199.853 497.723,212.186 499.5,224.5C 499.5,225.833 499.5,227.167 499.5,228.5C 457.5,228.5 415.5,228.5 373.5,228.5C 370.86,214.25 366.194,200.583 359.5,187.5 Z"/></g>
<g><path style="opacity:1" fill="#14070f" d="M 240.5,190.5 C 242.167,189.167 243.833,189.167 245.5,190.5C 244.761,190.369 244.094,190.536 243.5,191C 244.696,191.654 244.696,192.154 243.5,192.5C 242.735,191.388 241.735,190.721 240.5,190.5 Z"/></g>
<g><path style="opacity:1" fill="#86111c" d="M 240.5,190.5 C 241.735,190.721 242.735,191.388 243.5,192.5C 244.696,192.154 244.696,191.654 243.5,191C 244.094,190.536 244.761,190.369 245.5,190.5C 246.598,191.397 246.598,192.23 245.5,193C 243.866,193.494 242.199,193.66 240.5,193.5C 240.5,192.5 240.5,191.5 240.5,190.5 Z"/></g>
<g><path style="opacity:1" fill="#220e18" d="M 258.5,189.5 C 261.427,190.757 263.761,192.757 265.5,195.5C 262.573,194.243 260.239,192.243 258.5,189.5 Z"/></g>
<g><path style="opacity:1" fill="#180811" d="M 245.5,190.5 C 247.652,191.077 247.985,192.244 246.5,194C 244.288,194.789 242.288,194.622 240.5,193.5C 242.199,193.66 243.866,193.494 245.5,193C 246.598,192.23 246.598,191.397 245.5,190.5 Z"/></g>
<g><path style="opacity:1" fill="#260d13" d="M 265.5,195.5 C 267.404,195.738 268.738,196.738 269.5,198.5C 267.596,198.262 266.262,197.262 265.5,195.5 Z"/></g>
<g><path style="opacity:1" fill="#e8c614" d="M 236.5,198.5 C 235.925,200.411 234.925,202.078 233.5,203.5C 232.022,203.762 230.689,203.429 229.5,202.5C 231.364,200.4 233.697,199.067 236.5,198.5 Z"/></g>
<g><path style="opacity:1" fill="#130811" d="M 269.5,198.5 C 274.661,199.839 274.328,200.672 268.5,201C 269.056,201.383 269.389,201.883 269.5,202.5C 267.326,202.25 265.659,201.25 264.5,199.5C 266.415,199.784 268.081,199.451 269.5,198.5 Z"/></g>
<g><path style="opacity:1" fill="#905ec3" d="M 264.5,199.5 C 265.659,201.25 267.326,202.25 269.5,202.5C 272.125,203.441 272.125,204.607 269.5,206C 264.979,206.85 260.645,206.35 256.5,204.5C 258.124,201.346 260.791,199.679 264.5,199.5 Z"/></g>
<g><path style="opacity:1" fill="#271a08" d="M 231.5,189.5 C 231.527,191.199 232.194,192.533 233.5,193.5C 225.258,193.243 222.758,196.91 226,204.5C 227.727,201.107 230.394,198.774 234,197.5C 234.49,196.207 234.657,194.873 234.5,193.5C 234.833,193.5 235.167,193.5 235.5,193.5C 235.232,195.099 235.566,196.432 236.5,197.5C 236.5,197.833 236.5,198.167 236.5,198.5C 233.697,199.067 231.364,200.4 229.5,202.5C 230.689,203.429 232.022,203.762 233.5,203.5C 231.708,204.309 229.708,204.809 227.5,205C 226.809,206.067 226.309,207.234 226,208.5C 223.78,204.405 223.113,200.072 224,195.5C 226.696,193.583 229.196,191.583 231.5,189.5 Z"/></g>
<g><path style="opacity:1" fill="#f0cb15" d="M 233.5,193.5 C 233.833,193.5 234.167,193.5 234.5,193.5C 234.657,194.873 234.49,196.207 234,197.5C 230.394,198.774 227.727,201.107 226,204.5C 222.758,196.91 225.258,193.243 233.5,193.5 Z"/></g>
<g><path style="opacity:1" fill="#43380a" d="M 230.5,194.5 C 232.337,194.639 232.67,195.306 231.5,196.5C 230.702,196.043 230.369,195.376 230.5,194.5 Z"/></g>
<g><path style="opacity:1" fill="#221322" d="M 269.5,202.5 C 270.978,202.238 272.311,202.571 273.5,203.5C 272.167,204.62 271.667,205.953 272,207.5C 273.78,208.594 275.614,209.594 277.5,210.5C 276.476,211.852 275.476,213.185 274.5,214.5C 271.859,215.263 269.192,215.43 266.5,215C 262.083,213.067 258.083,210.567 254.5,207.5C 254.5,206.833 254.5,206.167 254.5,205.5C 257.791,208.484 261.458,210.984 265.5,213C 269.207,213.996 272.541,213.33 275.5,211C 273.668,210.252 272.001,209.252 270.5,208C 267.572,208.456 264.572,208.456 261.5,208C 259.416,207.303 257.749,206.136 256.5,204.5C 260.645,206.35 264.979,206.85 269.5,206C 272.125,204.607 272.125,203.441 269.5,202.5 Z"/></g>
<g><path style="opacity:1" fill="#915fc5" d="M 256.5,204.5 C 257.749,206.136 259.416,207.303 261.5,208C 264.572,208.456 267.572,208.456 270.5,208C 272.001,209.252 273.668,210.252 275.5,211C 272.541,213.33 269.207,213.996 265.5,213C 261.458,210.984 257.791,208.484 254.5,205.5C 254.167,205.5 253.833,205.5 253.5,205.5C 253.804,203.204 254.804,202.871 256.5,204.5 Z"/></g>
<g><path style="opacity:1" fill="#925fc6" d="M 244.5,218.5 C 244.783,219.289 245.283,219.956 246,220.5C 246.333,226.5 246.667,232.5 247,238.5C 247.659,243.883 249.159,248.883 251.5,253.5C 252.337,257.176 253.67,260.676 255.5,264C 254.748,264.671 254.414,265.504 254.5,266.5C 253.883,266.611 253.383,266.944 253,267.5C 252.822,273.734 251.988,279.734 250.5,285.5C 249.564,284.026 248.23,283.026 246.5,282.5C 243.833,279.167 240.833,276.167 237.5,273.5C 234.83,268.825 232.163,264.159 229.5,259.5C 229.59,256.848 228.924,254.515 227.5,252.5C 226.762,240.304 227.762,228.304 230.5,216.5C 231.151,215.909 231.818,215.243 232.5,214.5C 233.611,215.611 234.945,216.278 236.5,216.5C 238.782,215.777 241.116,215.443 243.5,215.5C 243.263,216.791 243.596,217.791 244.5,218.5 Z"/></g>
<g><path style="opacity:1" fill="#6b0e18" d="M 155.5,216.5 C 151.167,217.167 146.833,217.833 142.5,218.5C 141.957,218.44 141.624,218.107 141.5,217.5C 146.12,216.507 150.786,216.173 155.5,216.5 Z"/></g>
<g><path style="opacity:1" fill="#905ec3" d="M 254.5,207.5 C 258.083,210.567 262.083,213.067 266.5,215C 269.192,215.43 271.859,215.263 274.5,214.5C 275.058,215.79 276.058,216.623 277.5,217C 274.541,219.33 271.207,219.996 267.5,219C 265.593,217.878 263.593,217.045 261.5,216.5C 258.761,213.767 256.427,210.767 254.5,207.5 Z"/></g>
<g><path style="opacity:1" fill="#2d121f" d="M 230.5,216.5 C 227.762,228.304 226.762,240.304 227.5,252.5C 226.71,251.391 226.21,250.058 226,248.5C 225.333,242.833 225.333,237.167 226,231.5C 226.438,226.061 227.938,221.061 230.5,216.5 Z"/></g>
<g><path style="opacity:1" fill="#281119" d="M 274.5,214.5 C 280.004,214.944 280.671,216.777 276.5,220C 278.059,220.98 279.726,221.813 281.5,222.5C 278.295,225.962 274.295,227.795 269.5,228C 270.252,228.671 270.586,229.504 270.5,230.5C 269.094,230.027 268.427,229.027 268.5,227.5C 269.167,226.833 269.833,226.167 270.5,225.5C 273.665,226.036 276.331,225.203 278.5,223C 274.848,220.918 270.848,219.918 266.5,220C 264.416,219.303 262.749,218.136 261.5,216.5C 263.593,217.045 265.593,217.878 267.5,219C 271.207,219.996 274.541,219.33 277.5,217C 276.058,216.623 275.058,215.79 274.5,214.5 Z"/></g>
<g><path style="opacity:1" fill="#8c5cbf" d="M 261.5,216.5 C 262.749,218.136 264.416,219.303 266.5,220C 270.848,219.918 274.848,220.918 278.5,223C 276.331,225.203 273.665,226.036 270.5,225.5C 265.227,223.525 260.561,220.525 256.5,216.5C 256.351,215.448 256.517,214.448 257,213.5C 258.129,215.141 259.629,216.141 261.5,216.5 Z"/></g>
<g><path style="opacity:1" fill="#160705" d="M 337.5,201.5 C 339.637,205.396 341.303,209.562 342.5,214C 346.5,214.333 350.5,214.667 354.5,215C 351.458,217.842 348.458,220.676 345.5,223.5C 347.411,227.509 348.411,231.509 348.5,235.5C 345.069,233.037 341.569,230.703 338,228.5C 334.509,230.581 331.175,232.915 328,235.5C 327.67,231.306 328.503,227.306 330.5,223.5C 327.393,220.44 324.059,217.606 320.5,215C 324.871,214.828 329.204,214.328 333.5,213.5C 335.039,209.55 336.372,205.55 337.5,201.5 Z"/></g>
<g><path style="opacity:1" fill="#00643a" d="M 337.5,206.5 C 339.472,209.084 340.472,212.084 340.5,215.5C 343.898,215.18 347.232,215.513 350.5,216.5C 348.142,218.529 345.808,220.529 343.5,222.5C 345.087,225.521 345.753,228.521 345.5,231.5C 342.897,229.951 340.397,228.285 338,226.5C 335.603,228.285 333.103,229.951 330.5,231.5C 330.247,228.521 330.913,225.521 332.5,222.5C 330.192,220.529 327.858,218.529 325.5,216.5C 328.447,215.679 331.447,215.179 334.5,215C 335.798,212.273 336.798,209.44 337.5,206.5 Z"/></g>
<g><path style="opacity:0.998" fill="#040301" d="M -0.5,228.5 C 41.5,228.5 83.5,228.5 125.5,228.5C 124.191,242.498 124.191,256.498 125.5,270.5C 83.5,270.5 41.5,270.5 -0.5,270.5C -0.5,256.5 -0.5,242.5 -0.5,228.5 Z"/></g>
<g><path style="opacity:0.998" fill="#040301" d="M 373.5,228.5 C 415.5,228.5 457.5,228.5 499.5,228.5C 499.5,242.5 499.5,256.5 499.5,270.5C 457.5,270.5 415.5,270.5 373.5,270.5C 374.833,256.5 374.833,242.5 373.5,228.5 Z"/></g>
<g><path style="opacity:1" fill="#00633a" d="M 268.5,227.5 C 268.427,229.027 269.094,230.027 270.5,230.5C 272.309,236.142 271.309,236.809 267.5,232.5C 267.414,230.323 266.747,228.323 265.5,226.5C 265.667,226.167 265.833,225.833 266,225.5C 266.708,226.381 267.542,227.047 268.5,227.5 Z"/></g>
<g><path style="opacity:1" fill="#170805" d="M 142.5,218.5 C 146.833,217.833 151.167,217.167 155.5,216.5C 156.256,212.318 157.59,208.318 159.5,204.5C 161.435,208.304 162.768,212.304 163.5,216.5C 167.884,216.174 172.217,216.508 176.5,217.5C 173.837,219.992 171.004,222.326 168,224.5C 168.667,229.167 169.333,233.833 170,238.5C 166.825,235.915 163.491,233.581 160,231.5C 156.908,232.924 154.074,234.757 151.5,237C 150.365,237.749 149.365,237.583 148.5,236.5C 150.497,232.694 151.33,228.694 151,224.5C 148.287,222.28 145.454,220.28 142.5,218.5 Z"/></g>
<g><path style="opacity:1" fill="#00653b" d="M 158.5,209.5 C 160.956,211.818 162.289,214.818 162.5,218.5C 165.85,218.335 169.183,218.502 172.5,219C 169.663,220.672 167.33,222.839 165.5,225.5C 166.208,228.458 167.208,231.291 168.5,234C 168.167,234.167 167.833,234.333 167.5,234.5C 164.897,232.951 162.397,231.285 160,229.5C 157.078,230.755 154.411,232.422 152,234.5C 152.049,231.655 152.549,228.822 153.5,226C 151.872,223.039 149.539,220.705 146.5,219C 149.817,218.502 153.15,218.335 156.5,218.5C 157.167,215.5 157.833,212.5 158.5,209.5 Z"/></g>
<g><path style="opacity:1" fill="#08140e" d="M 236.5,197.5 C 237.801,198.884 237.801,200.384 236.5,202C 245.676,204.569 254.343,203.402 262.5,198.5C 263.416,198.543 264.083,198.876 264.5,199.5C 260.791,199.679 258.124,201.346 256.5,204.5C 254.804,202.871 253.804,203.204 253.5,205.5C 253.833,205.5 254.167,205.5 254.5,205.5C 254.5,206.167 254.5,206.833 254.5,207.5C 256.427,210.767 258.761,213.767 261.5,216.5C 259.629,216.141 258.129,215.141 257,213.5C 256.517,214.448 256.351,215.448 256.5,216.5C 260.561,220.525 265.227,223.525 270.5,225.5C 269.833,226.167 269.167,226.833 268.5,227.5C 267.542,227.047 266.708,226.381 266,225.5C 265.833,225.833 265.667,226.167 265.5,226.5C 266.747,228.323 267.414,230.323 267.5,232.5C 271.309,236.809 272.309,236.142 270.5,230.5C 272.588,232.336 273.921,234.669 274.5,237.5C 273.883,237.389 273.383,237.056 273,236.5C 272.805,238.207 272.805,239.874 273,241.5C 271.667,239.5 270.333,237.5 269,235.5C 268.51,236.793 268.343,238.127 268.5,239.5C 269.681,242.362 269.681,245.362 268.5,248.5C 267.849,247.909 267.182,247.243 266.5,246.5C 264.991,248.656 263.991,250.99 263.5,253.5C 262.685,252.571 261.852,251.571 261,250.5C 259.479,253.046 257.979,253.046 256.5,250.5C 256.5,250.167 256.5,249.833 256.5,249.5C 257.458,249.953 258.292,250.619 259,251.5C 259.667,249.5 259.667,247.5 259,245.5C 256.783,243.923 254.617,242.256 252.5,240.5C 252.5,239.833 252.5,239.167 252.5,238.5C 252.167,238.5 251.833,238.5 251.5,238.5C 250.772,236.488 249.938,234.488 249,232.5C 248.833,233.333 248.667,234.167 248.5,235C 249.334,240.328 250.667,245.495 252.5,250.5C 252.5,250.833 252.5,251.167 252.5,251.5C 251.662,251.842 251.328,252.508 251.5,253.5C 249.159,248.883 247.659,243.883 247,238.5C 246.667,232.5 246.333,226.5 246,220.5C 245.283,219.956 244.783,219.289 244.5,218.5C 243.596,217.791 243.263,216.791 243.5,215.5C 241.116,215.443 238.782,215.777 236.5,216.5C 234.945,216.278 233.611,215.611 232.5,214.5C 231.818,215.243 231.151,215.909 230.5,216.5C 231.061,212.043 232.728,208.043 235.5,204.5C 235.043,203.702 234.376,203.369 233.5,203.5C 234.925,202.078 235.925,200.411 236.5,198.5C 236.5,198.167 236.5,197.833 236.5,197.5 Z"/></g>
<g><path style="opacity:1" fill="#006039" d="M 260.5,239.5 C 259.737,237.632 258.737,235.965 257.5,234.5C 257.272,232.645 257.939,231.812 259.5,232C 262.397,233.715 263.731,236.215 263.5,239.5C 262.5,239.5 261.5,239.5 260.5,239.5 Z"/></g>
<g><path style="opacity:1" fill="#00673d" d="M 267.5,232.5 C 267.66,234.199 267.494,235.866 267,237.5C 262.262,232.803 259.595,227.136 259,220.5C 262.58,224.003 265.414,228.003 267.5,232.5 Z"/></g>
<g><path style="opacity:1" fill="#00643a" d="M 256.5,216.5 C 257.488,220.935 258.321,225.602 259,230.5C 257.907,228.651 256.574,226.984 255,225.5C 255.615,227.756 255.948,230.089 256,232.5C 253.763,230.353 251.763,228.02 250,225.5C 250.493,228.137 251.827,230.47 254,232.5C 254.749,233.635 254.583,234.635 253.5,235.5C 246.861,230.052 245.861,223.719 250.5,216.5C 252.516,215.306 254.516,215.306 256.5,216.5 Z"/></g>
<g><path style="opacity:1" fill="#006239" d="M 244.5,218.5 C 244.5,217.5 244.5,216.5 244.5,215.5C 248.439,215.178 249.272,216.511 247,219.5C 246.329,218.748 245.496,218.414 244.5,218.5 Z"/></g>
<g><path style="opacity:1" fill="#00683d" d="M 233.5,211.5 C 235.14,212.32 236.807,213.153 238.5,214C 235.738,215.077 234.072,214.244 233.5,211.5 Z"/></g>
<g><path style="opacity:1" fill="#00643b" d="M 242.5,209.5 C 247.718,210.798 247.718,212.464 242.5,214.5C 241.833,214.167 241.167,213.833 240.5,213.5C 241.63,212.378 242.297,211.044 242.5,209.5 Z"/></g>
<g><path style="opacity:1" fill="#00653c" d="M 247.5,209.5 C 249.167,209.5 250.833,209.5 252.5,209.5C 253.167,213.5 251.5,215.167 247.5,214.5C 247.5,212.833 247.5,211.167 247.5,209.5 Z"/></g>
<g><path style="opacity:1" fill="#006037" d="M 244.5,204.5 C 245.833,204.5 247.167,204.5 248.5,204.5C 248.592,208.071 246.926,209.238 243.5,208C 244.337,206.989 244.67,205.822 244.5,204.5 Z"/></g>
<g><path style="opacity:1" fill="#00633a" d="M 253.5,205.5 C 252.817,207.176 251.483,207.843 249.5,207.5C 249.5,206.5 249.5,205.5 249.5,204.5C 250.959,204.433 252.292,204.766 253.5,205.5 Z"/></g>
<g><path style="opacity:1" fill="#005d36" d="M 236.5,204.5 C 245.43,204.446 245.763,205.946 237.5,209C 238.833,209.333 240.167,209.667 241.5,210C 239.459,211.741 237.292,211.908 235,210.5C 235.152,208.481 235.652,206.481 236.5,204.5 Z"/></g>
<g><path style="opacity:1" fill="#006139" d="M 251.5,238.5 C 251.196,239.15 250.863,239.817 250.5,240.5C 253.133,243.659 253.8,246.992 252.5,250.5C 250.667,245.495 249.334,240.328 248.5,235C 248.667,234.167 248.833,233.333 249,232.5C 249.938,234.488 250.772,236.488 251.5,238.5 Z"/></g>
<g><path style="opacity:1" fill="#006038" d="M 257.5,234.5 C 259.781,242.589 258.114,243.922 252.5,238.5C 252.389,236.352 253.056,236.019 254.5,237.5C 255.281,236.271 255.781,234.938 256,233.5C 256.383,234.056 256.883,234.389 257.5,234.5 Z"/></g>
<g><path style="opacity:1" fill="#00623a" d="M 268.5,239.5 C 268.462,247.124 267.128,247.458 264.5,240.5C 264.667,239.5 264.833,238.5 265,237.5C 266.113,238.305 267.279,238.972 268.5,239.5 Z"/></g>
<g><path style="opacity:1" fill="#1f0e08" d="M 274.5,237.5 C 276.539,238.911 277.539,240.911 277.5,243.5C 275.992,241.819 274.992,239.819 274.5,237.5 Z"/></g>
<g><path style="opacity:1" fill="#00663c" d="M 260.5,239.5 C 263.552,241.772 264.218,244.772 262.5,248.5C 260.758,246.594 259.758,244.26 259.5,241.5C 259.543,240.584 259.876,239.917 260.5,239.5 Z"/></g>
<g><path style="opacity:1" fill="#00623a" d="M 252.5,240.5 C 254.617,242.256 256.783,243.923 259,245.5C 259.667,247.5 259.667,249.5 259,251.5C 258.292,250.619 257.458,249.953 256.5,249.5C 254.909,246.648 253.576,243.648 252.5,240.5 Z"/></g>
<g><path style="opacity:1" fill="#025c36" d="M 274.5,237.5 C 274.992,239.819 275.992,241.819 277.5,243.5C 278.338,243.842 278.672,244.508 278.5,245.5C 280.794,252.218 282.794,259.051 284.5,266C 284.406,268.954 283.906,269.121 283,266.5C 282.833,267 282.667,267.5 282.5,268C 283.459,270.12 283.626,272.287 283,274.5C 281.629,271.734 279.796,269.401 277.5,267.5C 275.64,264.289 273.64,261.122 271.5,258C 271.833,257.5 272.167,257 272.5,256.5C 276.404,257.924 279.238,260.591 281,264.5C 281.667,262.167 281.667,259.833 281,257.5C 279.059,253.952 277.393,250.286 276,246.5C 275.502,249.482 275.335,252.482 275.5,255.5C 274.448,255.649 273.448,255.483 272.5,255C 271.067,252.827 269.734,250.66 268.5,248.5C 269.681,245.362 269.681,242.362 268.5,239.5C 268.343,238.127 268.51,236.793 269,235.5C 270.333,237.5 271.667,239.5 273,241.5C 272.805,239.874 272.805,238.207 273,236.5C 273.383,237.056 273.883,237.389 274.5,237.5 Z"/></g>
<g><path style="opacity:1" fill="#190d19" d="M 227.5,252.5 C 228.924,254.515 229.59,256.848 229.5,259.5C 228.076,257.485 227.41,255.152 227.5,252.5 Z"/></g>
<g><path style="opacity:1" fill="#391218" d="M 252.5,251.5 C 254.109,255.054 255.442,258.721 256.5,262.5C 256.833,263.833 257.167,265.167 257.5,266.5C 256.5,265.167 255.5,265.167 254.5,266.5C 254.414,265.504 254.748,264.671 255.5,264C 253.67,260.676 252.337,257.176 251.5,253.5C 251.328,252.508 251.662,251.842 252.5,251.5 Z"/></g>
<g><path style="opacity:1" fill="#200f19" d="M 229.5,259.5 C 232.163,264.159 234.83,268.825 237.5,273.5C 233.301,269.776 230.635,265.109 229.5,259.5 Z"/></g>
<g><path style="opacity:1" fill="#110b06" d="M 149.5,264.5 C 153.399,266.386 157.066,268.719 160.5,271.5C 163.833,269.167 167.167,266.833 170.5,264.5C 170.411,268.491 169.411,272.491 167.5,276.5C 171.167,279.333 174.833,282.167 178.5,285C 173.798,285.172 169.132,285.672 164.5,286.5C 163.284,290.321 161.784,293.988 160,297.5C 159.134,293.736 157.967,290.069 156.5,286.5C 152.167,285.833 147.833,285.167 143.5,284.5C 146.609,282.525 149.443,280.192 152,277.5C 151.815,273.098 150.982,268.764 149.5,264.5 Z"/></g>
<g><path style="opacity:1" fill="#09190f" d="M 251.5,238.5 C 251.833,238.5 252.167,238.5 252.5,238.5C 252.5,239.167 252.5,239.833 252.5,240.5C 253.576,243.648 254.909,246.648 256.5,249.5C 256.5,249.833 256.5,250.167 256.5,250.5C 255.741,256.189 257.741,261.022 262.5,265C 263.448,265.483 264.448,265.649 265.5,265.5C 265.459,261.384 264.793,257.384 263.5,253.5C 264.793,254.842 265.626,256.509 266,258.5C 267.11,260.037 268.61,260.703 270.5,260.5C 269.833,256.5 269.167,252.5 268.5,248.5C 269.734,250.66 271.067,252.827 272.5,255C 273.448,255.483 274.448,255.649 275.5,255.5C 275.335,252.482 275.502,249.482 276,246.5C 277.393,250.286 279.059,253.952 281,257.5C 281.667,259.833 281.667,262.167 281,264.5C 279.238,260.591 276.404,257.924 272.5,256.5C 272.167,257 271.833,257.5 271.5,258C 273.64,261.122 275.64,264.289 277.5,267.5C 275.33,266.162 273.664,264.328 272.5,262C 271.275,261.437 270.275,261.77 269.5,263C 270.986,265.475 272.319,267.975 273.5,270.5C 270.865,267.921 268.699,264.921 267,261.5C 266.849,264.119 266.015,266.453 264.5,268.5C 269.551,275.869 274.551,283.202 279.5,290.5C 279.5,290.833 279.5,291.167 279.5,291.5C 278.523,294.287 278.19,297.287 278.5,300.5C 279.5,300.5 280.5,300.5 281.5,300.5C 275.833,301.167 270.167,301.833 264.5,302.5C 260.641,303.6 259.641,305.934 261.5,309.5C 260.307,309.03 259.64,308.03 259.5,306.5C 259.257,304.078 260.257,302.412 262.5,301.5C 262.121,299.787 261.121,298.787 259.5,298.5C 260.289,297.085 260.956,295.585 261.5,294C 260.571,292.923 259.904,291.756 259.5,290.5C 262.4,291.954 263.733,290.954 263.5,287.5C 265.536,290.338 267.036,290.005 268,286.5C 268.6,283.905 268.1,281.571 266.5,279.5C 267.898,281.109 269.565,281.942 271.5,282C 265.487,276.17 260.487,269.67 256.5,262.5C 255.442,258.721 254.109,255.054 252.5,251.5C 252.5,251.167 252.5,250.833 252.5,250.5C 253.8,246.992 253.133,243.659 250.5,240.5C 250.863,239.817 251.196,239.15 251.5,238.5 Z"/></g>
<g><path style="opacity:1" fill="#00663c" d="M 256.5,250.5 C 257.979,253.046 259.479,253.046 261,250.5C 261.852,251.571 262.685,252.571 263.5,253.5C 264.793,257.384 265.459,261.384 265.5,265.5C 264.448,265.649 263.448,265.483 262.5,265C 257.741,261.022 255.741,256.189 256.5,250.5 Z"/></g>
<g><path style="opacity:1" fill="#00683d" d="M 268.5,248.5 C 269.167,252.5 269.833,256.5 270.5,260.5C 268.61,260.703 267.11,260.037 266,258.5C 265.626,256.509 264.793,254.842 263.5,253.5C 263.991,250.99 264.991,248.656 266.5,246.5C 267.182,247.243 267.849,247.909 268.5,248.5 Z"/></g>
<g><path style="opacity:1" fill="#00673c" d="M 273.5,270.5 C 274.08,272.749 275.413,274.415 277.5,275.5C 280.244,279.985 282.744,284.652 285,289.5C 285.808,293.027 285.641,296.36 284.5,299.5C 283.59,296.008 281.924,293.008 279.5,290.5C 274.551,283.202 269.551,275.869 264.5,268.5C 266.015,266.453 266.849,264.119 267,261.5C 268.699,264.921 270.865,267.921 273.5,270.5 Z"/></g>
<g><path style="opacity:1" fill="#00663c" d="M 277.5,267.5 C 280.337,271.84 282.67,276.506 284.5,281.5C 284.333,282.167 284.167,282.833 284,283.5C 282.533,280.213 280.366,277.546 277.5,275.5C 276.92,273.251 275.587,271.585 273.5,270.5C 272.319,267.975 270.986,265.475 269.5,263C 270.275,261.77 271.275,261.437 272.5,262C 273.664,264.328 275.33,266.162 277.5,267.5 Z"/></g>
<g><path style="opacity:1" fill="#04623a" d="M 257.5,266.5 C 258.674,267.514 259.34,268.847 259.5,270.5C 259.162,272.854 258.662,275.187 258,277.5C 257.578,279.426 256.411,280.426 254.5,280.5C 253.327,275.858 253.327,271.191 254.5,266.5C 255.5,265.167 256.5,265.167 257.5,266.5 Z"/></g>
<g><path style="opacity:0.995" fill="#fefefe" d="M -0.5,270.5 C 41.5,270.5 83.5,270.5 125.5,270.5C 128.487,284.825 133.487,298.492 140.5,311.5C 95.8333,311.5 51.1667,311.5 6.5,311.5C 3.50169,298.831 1.16836,286.164 -0.5,273.5C -0.5,272.5 -0.5,271.5 -0.5,270.5 Z"/></g>
<g><path style="opacity:1" fill="#00683d" d="M 151.5,267.5 C 154.464,269.448 157.464,271.448 160.5,273.5C 162.359,271.808 164.359,270.308 166.5,269C 167.332,268.312 167.998,268.479 168.5,269.5C 166.702,272.289 166.202,275.289 167,278.5C 169.124,279.622 170.957,281.122 172.5,283C 169.447,283.179 166.447,283.679 163.5,284.5C 162.499,287.172 161.499,289.839 160.5,292.5C 159.501,289.839 158.501,287.172 157.5,284.5C 154.553,283.679 151.553,283.179 148.5,283C 150.043,281.122 151.876,279.622 154,278.5C 154.167,277.667 154.333,276.833 154.5,276C 153.633,273.104 152.633,270.271 151.5,267.5 Z"/></g>
<g><path style="opacity:1" fill="#17110a" d="M 278.5,245.5 C 282.469,252.576 284.969,260.243 286,268.5C 286.238,280.453 286.238,292.453 286,304.5C 284.991,302.975 284.491,301.308 284.5,299.5C 285.641,296.36 285.808,293.027 285,289.5C 282.744,284.652 280.244,279.985 277.5,275.5C 280.366,277.546 282.533,280.213 284,283.5C 284.167,282.833 284.333,282.167 284.5,281.5C 282.67,276.506 280.337,271.84 277.5,267.5C 279.796,269.401 281.629,271.734 283,274.5C 283.626,272.287 283.459,270.12 282.5,268C 282.667,267.5 282.833,267 283,266.5C 283.906,269.121 284.406,268.954 284.5,266C 282.794,259.051 280.794,252.218 278.5,245.5 Z"/></g>
<g><path style="opacity:0.995" fill="#fefefe" d="M 373.5,270.5 C 415.5,270.5 457.5,270.5 499.5,270.5C 499.5,271.833 499.5,273.167 499.5,274.5C 497.835,286.833 495.501,299.166 492.5,311.5C 448.167,311.5 403.833,311.5 359.5,311.5C 365.79,298.295 370.456,284.629 373.5,270.5 Z"/></g>
<g><path style="opacity:1" fill="#01130b" d="M 273.5,270.5 C 275.587,271.585 276.92,273.251 277.5,275.5C 275.413,274.415 274.08,272.749 273.5,270.5 Z"/></g>
<g><path style="opacity:1" fill="#9f1423" d="M 256.5,262.5 C 260.487,269.67 265.487,276.17 271.5,282C 269.565,281.942 267.898,281.109 266.5,279.5C 265.299,277.091 263.633,275.091 261.5,273.5C 261.573,271.973 260.906,270.973 259.5,270.5C 259.34,268.847 258.674,267.514 257.5,266.5C 257.167,265.167 256.833,263.833 256.5,262.5 Z"/></g>
<g><path style="opacity:1" fill="#18090c" d="M 237.5,273.5 C 240.833,276.167 243.833,279.167 246.5,282.5C 244.856,282.714 243.356,282.38 242,281.5C 241.403,284.681 241.903,287.681 243.5,290.5C 242.21,289.942 241.377,288.942 241,287.5C 240.667,284.167 240.333,280.833 240,277.5C 238.519,276.529 237.685,275.196 237.5,273.5 Z"/></g>
<g><path style="opacity:1" fill="#0e0a06" d="M 327.5,261.5 C 331.399,263.386 335.066,265.719 338.5,268.5C 341.833,266.167 345.167,263.833 348.5,261.5C 348.833,262 349.167,262.5 349.5,263C 347.811,266.713 346.977,270.546 347,274.5C 350.167,277 353.333,279.5 356.5,282C 352.167,282.333 347.833,282.667 343.5,283C 341.613,286.659 340.113,290.492 339,294.5C 337.495,290.65 335.995,286.817 334.5,283C 330.459,282.827 326.459,282.327 322.5,281.5C 325.689,278.809 328.689,275.976 331.5,273C 329.863,269.256 328.53,265.423 327.5,261.5 Z"/></g>
<g><path style="opacity:1" fill="#00683d" d="M 329.5,265.5 C 329.897,264.475 330.563,264.308 331.5,265C 333.833,266.833 336.167,268.667 338.5,270.5C 341.472,268.694 344.305,266.694 347,264.5C 345.73,268 345.064,271.667 345,275.5C 347.167,277 349.333,278.5 351.5,280C 348.183,280.498 344.85,280.665 341.5,280.5C 340.978,283.568 340.145,286.568 339,289.5C 337.829,286.65 336.662,283.816 335.5,281C 332.5,280.667 329.5,280.333 326.5,280C 329.02,278.237 331.353,276.237 333.5,274C 332.438,270.953 331.105,268.12 329.5,265.5 Z"/></g>
<g><path style="opacity:1" fill="#00653b" d="M 266.5,279.5 C 268.1,281.571 268.6,283.905 268,286.5C 267.036,290.005 265.536,290.338 263.5,287.5C 263.023,284.083 264.023,281.416 266.5,279.5 Z"/></g>
<g><path style="opacity:1" fill="#00633a" d="M 246.5,282.5 C 247.39,284.782 247.556,287.115 247,289.5C 245.989,290.337 244.822,290.67 243.5,290.5C 241.903,287.681 241.403,284.681 242,281.5C 243.356,282.38 244.856,282.714 246.5,282.5 Z"/></g>
<g><path style="opacity:1" fill="#00663c" d="M 263.5,287.5 C 263.733,290.954 262.4,291.954 259.5,290.5C 259.5,288.833 259.5,287.167 259.5,285.5C 261.199,285.527 262.533,286.194 263.5,287.5 Z"/></g>
<g><path style="opacity:1" fill="#00633a" d="M 269.5,284.5 C 270.833,284.5 272.167,284.5 273.5,284.5C 273.244,286.937 272.577,289.271 271.5,291.5C 270.675,292.386 269.675,292.719 268.5,292.5C 268.575,289.794 268.908,287.127 269.5,284.5 Z"/></g>
<g><path style="opacity:1" fill="#06150f" d="M 254.5,266.5 C 253.327,271.191 253.327,275.858 254.5,280.5C 256.411,280.426 257.578,279.426 258,277.5C 258.662,275.187 259.162,272.854 259.5,270.5C 260.906,270.973 261.573,271.973 261.5,273.5C 263.633,275.091 265.299,277.091 266.5,279.5C 264.023,281.416 263.023,284.083 263.5,287.5C 262.533,286.194 261.199,285.527 259.5,285.5C 259.5,287.167 259.5,288.833 259.5,290.5C 254.814,291.947 254.147,294.614 257.5,298.5C 256.348,299.625 255.348,299.625 254.5,298.5C 255.043,298.44 255.376,298.107 255.5,297.5C 254.811,295.556 254.311,293.556 254,291.5C 253.506,293.134 253.34,294.801 253.5,296.5C 252.833,296.5 252.167,296.5 251.5,296.5C 252.234,295.292 252.567,293.959 252.5,292.5C 250.821,292.715 249.821,292.048 249.5,290.5C 251.124,292.137 252.124,291.803 252.5,289.5C 252.248,287.927 251.582,286.594 250.5,285.5C 251.988,279.734 252.822,273.734 253,267.5C 253.383,266.944 253.883,266.611 254.5,266.5 Z"/></g>
<g><path style="opacity:1" fill="#006038" d="M 254.5,280.5 C 255.209,281.404 256.209,281.737 257.5,281.5C 257.5,284.167 257.5,286.833 257.5,289.5C 256.167,289.5 254.833,289.5 253.5,289.5C 253.173,287.512 252.84,285.512 252.5,283.5C 252.64,281.97 253.307,280.97 254.5,280.5 Z"/></g>
<g><path style="opacity:1" fill="#00653b" d="M 261.5,273.5 C 262.379,275.228 263.046,277.061 263.5,279C 263.568,281.034 262.734,282.534 261,283.5C 259.5,283.333 258.667,282.5 258.5,281C 258.982,278.181 259.982,275.681 261.5,273.5 Z"/></g>
<g><path style="opacity:1" fill="#006139" d="M 250.5,285.5 C 251.582,286.594 252.248,287.927 252.5,289.5C 252.124,291.803 251.124,292.137 249.5,290.5C 249.322,289.305 248.989,288.138 248.5,287C 248.836,285.97 249.503,285.47 250.5,285.5 Z"/></g>
<g><path style="opacity:1" fill="#00683d" d="M 264.5,290.5 C 265.496,290.414 266.329,290.748 267,291.5C 268.284,295.949 266.784,298.615 262.5,299.5C 262.065,296.162 262.732,293.162 264.5,290.5 Z"/></g>
<g><path style="opacity:1" fill="#006a3e" d="M 274.5,285.5 C 275.117,285.611 275.617,285.944 276,286.5C 276.499,291.155 276.666,295.821 276.5,300.5C 273.5,300.5 270.5,300.5 267.5,300.5C 267.342,296.588 269.008,293.921 272.5,292.5C 273.946,290.382 274.613,288.049 274.5,285.5 Z"/></g>
<g><path style="opacity:1" fill="#00653b" d="M 249.5,290.5 C 249.821,292.048 250.821,292.715 252.5,292.5C 252.567,293.959 252.234,295.292 251.5,296.5C 249.624,299.175 248.124,298.842 247,295.5C 245.923,292.738 246.756,291.072 249.5,290.5 Z"/></g>
<g><path style="opacity:1" fill="#00633a" d="M 259.5,290.5 C 259.904,291.756 260.571,292.923 261.5,294C 260.956,295.585 260.289,297.085 259.5,298.5C 258.833,298.5 258.167,298.5 257.5,298.5C 254.147,294.614 254.814,291.947 259.5,290.5 Z"/></g>
<g><path style="opacity:1" fill="#006d40" d="M 279.5,291.5 C 281.126,294.246 281.793,297.246 281.5,300.5C 280.5,300.5 279.5,300.5 278.5,300.5C 278.19,297.287 278.523,294.287 279.5,291.5 Z"/></g>
<g><path style="opacity:1" fill="#00683d" d="M 254.5,298.5 C 254.167,297.833 253.833,297.167 253.5,296.5C 253.34,294.801 253.506,293.134 254,291.5C 254.311,293.556 254.811,295.556 255.5,297.5C 255.376,298.107 255.043,298.44 254.5,298.5 Z"/></g>
<g><path style="opacity:1" fill="#321408" d="M 235.5,301.5 C 235.5,301.833 235.5,302.167 235.5,302.5C 233.473,302.662 231.473,302.495 229.5,302C 228.047,296.861 224.713,295.194 219.5,297C 216.016,300.269 215.016,304.102 216.5,308.5C 214.61,306.41 212.943,304.077 211.5,301.5C 214.975,301.025 217.308,299.192 218.5,296C 224.691,293.264 228.691,295.097 230.5,301.5C 232.167,301.5 233.833,301.5 235.5,301.5 Z"/></g>
<g><path style="opacity:1" fill="#1a1307" d="M 246.5,282.5 C 248.23,283.026 249.564,284.026 250.5,285.5C 249.503,285.47 248.836,285.97 248.5,287C 248.989,288.138 249.322,289.305 249.5,290.5C 246.756,291.072 245.923,292.738 247,295.5C 248.124,298.842 249.624,299.175 251.5,296.5C 252.167,296.5 252.833,296.5 253.5,296.5C 253.833,297.167 254.167,297.833 254.5,298.5C 255.348,299.625 256.348,299.625 257.5,298.5C 258.167,298.5 258.833,298.5 259.5,298.5C 256.262,301.428 254.929,305.094 255.5,309.5C 253.994,306.531 254.327,303.698 256.5,301C 255.552,300.517 254.552,300.351 253.5,300.5C 253.631,299.624 253.298,298.957 252.5,298.5C 248.441,300.622 246.441,303.955 246.5,308.5C 246.167,308.5 245.833,308.5 245.5,308.5C 245.07,305.138 246.07,302.305 248.5,300C 243.457,301.087 241.624,304.253 243,309.5C 244.707,311.037 246.207,312.704 247.5,314.5C 245.804,314.315 244.471,313.481 243.5,312C 234.833,311.667 226.167,311.333 217.5,311C 216.748,310.329 216.414,309.496 216.5,308.5C 224.706,310.118 233.039,310.785 241.5,310.5C 241.5,307.833 241.5,305.167 241.5,302.5C 239.5,302.5 237.5,302.5 235.5,302.5C 235.5,302.167 235.5,301.833 235.5,301.5C 245.51,302.535 248.177,298.868 243.5,290.5C 244.822,290.67 245.989,290.337 247,289.5C 247.556,287.115 247.39,284.782 246.5,282.5 Z"/></g>
<g><path style="opacity:1" fill="#974800" d="M 235.5,302.5 C 237.5,302.5 239.5,302.5 241.5,302.5C 241.5,305.167 241.5,307.833 241.5,310.5C 233.039,310.785 224.706,310.118 216.5,308.5C 215.016,304.102 216.016,300.269 219.5,297C 224.713,295.194 228.047,296.861 229.5,302C 231.473,302.495 233.473,302.662 235.5,302.5 Z"/></g>
<g><path style="opacity:1" fill="#e9c715" d="M 245.5,308.5 C 246.228,310.735 247.561,312.568 249.5,314C 248.906,314.464 248.239,314.631 247.5,314.5C 246.207,312.704 244.707,311.037 243,309.5C 241.624,304.253 243.457,301.087 248.5,300C 246.07,302.305 245.07,305.138 245.5,308.5 Z"/></g>
<g><path style="opacity:1" fill="#e1c014" d="M 253.5,300.5 C 254.552,300.351 255.552,300.517 256.5,301C 254.327,303.698 253.994,306.531 255.5,309.5C 255.859,311.371 256.859,312.871 258.5,314C 251.353,311.771 249.686,307.271 253.5,300.5 Z"/></g>
<g><path style="opacity:1" fill="#e5c414" d="M 253.5,300.5 C 248.074,305.097 248.407,309.597 254.5,314C 253.5,314.667 252.5,314.667 251.5,314C 249.598,312.27 247.931,310.437 246.5,308.5C 246.441,303.955 248.441,300.622 252.5,298.5C 253.298,298.957 253.631,299.624 253.5,300.5 Z"/></g>
<g><path style="opacity:1" fill="#9c4a00" d="M 264.5,302.5 C 268.226,302.177 271.893,302.511 275.5,303.5C 274.047,305.644 274.38,307.477 276.5,309C 271.511,309.499 266.511,309.666 261.5,309.5C 259.641,305.934 260.641,303.6 264.5,302.5 Z"/></g>
<g><path style="opacity:1" fill="#190e04" d="M 279.5,290.5 C 281.924,293.008 283.59,296.008 284.5,299.5C 283.105,297.946 282.439,298.279 282.5,300.5C 284.216,302.915 284.716,305.582 284,308.5C 282.04,311.618 280.373,314.951 279,318.5C 276.638,320.053 275.138,322.22 274.5,325C 272.843,325.725 271.843,325.225 271.5,323.5C 272.397,324.598 273.23,324.598 274,323.5C 275.265,319.246 276.098,314.912 276.5,310.5C 273.833,310.5 271.167,310.5 268.5,310.5C 268.843,312.483 268.176,313.817 266.5,314.5C 266.631,313.761 266.464,313.094 266,312.5C 264.348,311.601 262.848,310.601 261.5,309.5C 266.511,309.666 271.511,309.499 276.5,309C 274.38,307.477 274.047,305.644 275.5,303.5C 271.893,302.511 268.226,302.177 264.5,302.5C 270.167,301.833 275.833,301.167 281.5,300.5C 281.793,297.246 281.126,294.246 279.5,291.5C 279.5,291.167 279.5,290.833 279.5,290.5 Z"/></g>
<g><path style="opacity:1" fill="#944600" d="M 277.5,302.5 C 283.016,302.473 284.349,304.64 281.5,309C 276.791,309.082 275.458,306.915 277.5,302.5 Z"/></g>
<g><path style="opacity:1" fill="#e8c414" d="M 259.5,298.5 C 261.121,298.787 262.121,299.787 262.5,301.5C 260.257,302.412 259.257,304.078 259.5,306.5C 259.64,308.03 260.307,309.03 261.5,309.5C 262.848,310.601 264.348,311.601 266,312.5C 266.464,313.094 266.631,313.761 266.5,314.5C 264.473,314.662 262.473,314.495 260.5,314C 258.963,312.293 257.296,310.793 255.5,309.5C 254.929,305.094 256.262,301.428 259.5,298.5 Z"/></g>
<g><path style="opacity:1" fill="#33220b" d="M 253.5,300.5 C 249.686,307.271 251.353,311.771 258.5,314C 256.859,312.871 255.859,311.371 255.5,309.5C 257.296,310.793 258.963,312.293 260.5,314C 262.473,314.495 264.473,314.662 266.5,314.5C 266.5,315.5 266.5,316.5 266.5,317.5C 260.581,316.709 254.581,316.209 248.5,316C 247.944,315.617 247.611,315.117 247.5,314.5C 248.239,314.631 248.906,314.464 249.5,314C 247.561,312.568 246.228,310.735 245.5,308.5C 245.833,308.5 246.167,308.5 246.5,308.5C 247.931,310.437 249.598,312.27 251.5,314C 252.5,314.667 253.5,314.667 254.5,314C 248.407,309.597 248.074,305.097 253.5,300.5 Z"/></g>
<g><path style="opacity:1" fill="#025e37" d="M 271.5,323.5 C 270.662,323.158 270.328,322.492 270.5,321.5C 270.628,319.345 270.128,317.345 269,315.5C 268.768,316.737 268.268,317.737 267.5,318.5C 266.833,318.5 266.5,318.167 266.5,317.5C 266.5,316.5 266.5,315.5 266.5,314.5C 268.176,313.817 268.843,312.483 268.5,310.5C 271.167,310.5 273.833,310.5 276.5,310.5C 276.098,314.912 275.265,319.246 274,323.5C 273.23,324.598 272.397,324.598 271.5,323.5 Z"/></g>
<g><path style="opacity:0.992" fill="#046b3f" d="M 6.5,311.5 C 51.1667,311.5 95.8333,311.5 140.5,311.5C 152.146,331.479 167.813,347.479 187.5,359.5C 187.5,403.833 187.5,448.167 187.5,492.5C 109.044,470.541 52.8769,422.541 19,348.5C 14.1307,336.392 9.96404,324.059 6.5,311.5 Z"/></g>
<g><path style="opacity:1" fill="#005c36" d="M 277.5,310.5 C 278.5,310.5 279.5,310.5 280.5,310.5C 278.348,319.526 277.348,319.526 277.5,310.5 Z"/></g>
<g><path style="opacity:0.992" fill="#036b3f" d="M 359.5,311.5 C 403.833,311.5 448.167,311.5 492.5,311.5C 470.55,389.948 422.55,446.115 348.5,480C 336.529,485.268 324.196,489.435 311.5,492.5C 311.5,448.167 311.5,403.833 311.5,359.5C 331.167,347.167 347.167,331.167 359.5,311.5 Z"/></g>
<g><path style="opacity:1" fill="#150704" d="M 305.5,306.5 C 307.74,310.098 309.074,314.098 309.5,318.5C 313.846,318.334 318.179,318.501 322.5,319C 318.795,321.372 315.795,324.372 313.5,328C 314.596,331.123 315.596,334.289 316.5,337.5C 316.167,338.167 315.833,338.833 315.5,339.5C 312.167,337.167 308.833,334.833 305.5,332.5C 302.36,334.473 299.36,336.64 296.5,339C 295.517,339.591 294.85,339.257 294.5,338C 296.589,333.952 297.256,329.785 296.5,325.5C 293.65,323.573 290.983,321.406 288.5,319C 292.821,318.501 297.154,318.334 301.5,318.5C 302.232,314.303 303.566,310.303 305.5,306.5 Z"/></g>
<g><path style="opacity:1" fill="#00633a" d="M 304.5,311.5 C 306.555,313.234 307.888,315.567 308.5,318.5C 311.785,319.324 315.118,319.824 318.5,320C 316.241,321.715 314.074,323.548 312,325.5C 312.064,329.333 312.73,333 314,336.5C 311.305,334.306 308.472,332.306 305.5,330.5C 302.991,331.921 300.657,333.588 298.5,335.5C 298.167,335 297.833,334.5 297.5,334C 298.861,331.27 299.361,328.437 299,325.5C 296.743,323.954 294.576,322.288 292.5,320.5C 295.833,319.833 299.167,319.167 302.5,318.5C 303.577,316.271 304.244,313.937 304.5,311.5 Z"/></g>
<g><path style="opacity:1" fill="#130704" d="M 193.5,307.5 C 196.292,310.835 197.959,314.835 198.5,319.5C 202.555,319.176 206.555,319.509 210.5,320.5C 208.169,322.66 205.669,324.66 203,326.5C 202.673,330.699 203.506,334.699 205.5,338.5C 205.167,339.167 204.833,339.833 204.5,340.5C 201.167,338.167 197.833,335.833 194.5,333.5C 191.36,335.473 188.36,337.64 185.5,340C 184.517,340.591 183.85,340.257 183.5,339C 184.733,335.567 185.733,332.067 186.5,328.5C 183.966,325.222 180.966,322.389 177.5,320C 181.821,319.501 186.154,319.334 190.5,319.5C 191.095,315.385 192.095,311.385 193.5,307.5 Z"/></g>
<g><path style="opacity:1" fill="#00633a" d="M 193.5,312.5 C 195.555,314.234 196.888,316.567 197.5,319.5C 200.785,320.324 204.118,320.824 207.5,321C 205.241,322.715 203.074,324.548 201,326.5C 201.129,329.873 201.462,333.206 202,336.5C 199.586,334.709 197.086,333.043 194.5,331.5C 191.914,333.043 189.414,334.709 187,336.5C 187.538,333.206 187.871,329.873 188,326.5C 185.743,324.954 183.576,323.288 181.5,321.5C 184.768,320.513 188.102,320.18 191.5,320.5C 191.963,317.779 192.629,315.112 193.5,312.5 Z"/></g>
<g><path style="opacity:1" fill="#12110a" d="M 270.5,321.5 C 269.167,320.833 268.167,319.833 267.5,318.5C 268.268,317.737 268.768,316.737 269,315.5C 270.128,317.345 270.628,319.345 270.5,321.5 Z"/></g>
<g><path style="opacity:1" fill="#110805" d="M 238.5,327.5 C 242.148,330.142 245.815,332.809 249.5,335.5C 252.5,333.333 255.5,331.167 258.5,329C 259.332,328.312 259.998,328.479 260.5,329.5C 258.503,333.306 257.67,337.306 258,341.5C 261.167,344 264.333,346.5 267.5,349C 262.845,349.499 258.179,349.666 253.5,349.5C 252.568,353.294 251.235,356.961 249.5,360.5C 248.09,357.024 246.757,353.524 245.5,350C 241.459,349.827 237.459,349.327 233.5,348.5C 236.474,345.862 239.474,343.195 242.5,340.5C 240.758,336.275 239.424,331.941 238.5,327.5 Z"/></g>
<g><path style="opacity:1" fill="#00673c" d="M 240.5,332.5 C 240.897,331.475 241.563,331.308 242.5,332C 244.833,333.833 247.167,335.667 249.5,337.5C 252.352,335.09 255.352,333.256 258.5,332C 253.571,338.675 254.904,343.675 262.5,347C 259.183,347.498 255.85,347.665 252.5,347.5C 250.973,358.575 248.973,358.909 246.5,348.5C 243.553,347.679 240.553,347.179 237.5,347C 239.647,344.763 241.98,342.763 244.5,341C 243.438,337.953 242.105,335.12 240.5,332.5 Z"/></g>
<g><path style="opacity:0.995" fill="#fefefe" d="M 311.5,359.5 C 311.5,403.833 311.5,448.167 311.5,492.5C 299.147,495.389 286.814,497.723 274.5,499.5C 273.167,499.5 271.833,499.5 270.5,499.5C 270.5,457.5 270.5,415.5 270.5,373.5C 285.004,371.221 298.671,366.554 311.5,359.5 Z"/></g>
<g><path style="opacity:0.995" fill="#fcd115" d="M 187.5,359.5 C 200.53,366.528 214.197,371.528 228.5,374.5C 228.5,416.167 228.5,457.833 228.5,499.5C 227.167,499.5 225.833,499.5 224.5,499.5C 212.186,497.723 199.853,495.389 187.5,492.5C 187.5,448.167 187.5,403.833 187.5,359.5 Z"/></g>
<g><path style="opacity:0.998" fill="#020100" d="M 228.5,374.5 C 241.838,375.812 255.171,375.812 268.5,374.5C 269.499,415.997 269.832,457.663 269.5,499.5C 255.833,499.5 242.167,499.5 228.5,499.5C 228.5,457.833 228.5,416.167 228.5,374.5 Z"/></g>
<g><path style="opacity:0.994" fill="#2b2a29" d="M 268.5,374.5 C 268.842,373.662 269.508,373.328 270.5,373.5C 270.5,415.5 270.5,457.5 270.5,499.5C 270.167,499.5 269.833,499.5 269.5,499.5C 269.832,457.663 269.499,415.997 268.5,374.5 Z"/></g>
</svg>
