<?xml version="1.0" encoding="UTF-8"?>
<!DOCTYPE svg PUBLIC "-//W3C//DTD SVG 1.1//EN" "http://www.w3.org/Graphics/SVG/1.1/DTD/svg11.dtd">
<svg xmlns="http://www.w3.org/2000/svg" version="1.1" width="500px" height="500px" style="shape-rendering:geometricPrecision; text-rendering:geometricPrecision; image-rendering:optimizeQuality; fill-rule:evenodd; clip-rule:evenodd" xmlns:xlink="http://www.w3.org/1999/xlink">
<g><path style="opacity:0.994" fill="#fcda00" d="M 225.5,-0.5 C 241.5,-0.5 257.5,-0.5 273.5,-0.5C 362.269,10.9489 428.436,55.6156 472,133.5C 486.559,162.333 495.726,192.666 499.5,224.5C 499.5,232.833 499.5,241.167 499.5,249.5C 443.833,249.5 388.167,249.5 332.5,249.5C 332.5,264.833 332.5,280.167 332.5,295.5C 331.733,304.133 329.733,312.467 326.5,320.5C 325.512,321.795 324.512,323.128 323.5,324.5C 317.421,333.039 309.088,337.039 298.5,336.5C 296.784,336.371 295.117,336.038 293.5,335.5C 289.285,334.762 285.285,333.428 281.5,331.5C 281.298,329.05 281.631,326.717 282.5,324.5C 288.167,324.5 293.833,324.5 299.5,324.5C 299.5,323.167 299.5,321.833 299.5,320.5C 296.941,320.802 294.607,320.468 292.5,319.5C 299.055,317.113 303.889,312.779 307,306.5C 310.905,297.88 313.405,288.88 314.5,279.5C 315.332,261.004 315.832,242.338 316,223.5C 319.509,219.791 323.009,216.125 326.5,212.5C 326.333,212.167 326.167,211.833 326,211.5C 324.667,212.833 323.333,214.167 322,215.5C 321.478,211.557 322.311,207.89 324.5,204.5C 324.099,200.976 323.433,197.642 322.5,194.5C 321.806,189.195 321.472,183.862 321.5,178.5C 322.589,176.883 324.256,176.05 326.5,176C 322.728,174.17 323.061,172.67 327.5,171.5C 328.48,169.049 329.313,166.716 330,164.5C 326.193,166.062 323.526,168.729 322,172.5C 320.883,171.051 320.216,169.384 320,167.5C 318.804,169.286 317.304,170.619 315.5,171.5C 314.833,171.5 314.5,171.833 314.5,172.5C 313.387,173.946 313.22,175.613 314,177.5C 315.011,178.337 316.178,178.67 317.5,178.5C 317.403,186.191 317.737,193.858 318.5,201.5C 318.41,203.696 318.077,205.863 317.5,208C 320.776,213.654 319.943,218.487 315,222.5C 314.617,221.944 314.117,221.611 313.5,221.5C 312.436,208.552 309.936,195.885 306,183.5C 305.346,182.304 304.846,182.304 304.5,183.5C 306.894,189.302 308.061,195.302 308,201.5C 306.551,196.601 304.551,191.935 302,187.5C 301.82,189.488 301.986,191.488 302.5,193.5C 298.15,188.146 297.484,188.813 300.5,195.5C 300.167,195.5 299.833,195.5 299.5,195.5C 295.772,191.061 292.772,186.061 290.5,180.5C 289.998,179.479 289.332,179.312 288.5,180C 291.407,184.635 293.573,189.468 295,194.5C 291.662,188.488 287.828,182.821 283.5,177.5C 283.167,177.667 282.833,177.833 282.5,178C 287.696,185.226 291.696,193.059 294.5,201.5C 294.167,201.5 293.833,201.5 293.5,201.5C 290.112,197.751 286.945,193.751 284,189.5C 286.438,194.377 288.938,199.377 291.5,204.5C 289.833,205.833 288.167,207.167 286.5,208.5C 284.674,206.853 283.34,204.853 282.5,202.5C 277.691,194.694 271.024,189.028 262.5,185.5C 261.492,183.661 259.992,182.328 258,181.5C 257.36,179.735 257.527,178.068 258.5,176.5C 260.038,173.101 261.871,169.767 264,166.5C 265.011,167.337 266.178,167.67 267.5,167.5C 267.766,163.921 269.099,163.587 271.5,166.5C 272.167,165.5 272.833,164.5 273.5,163.5C 274.736,164.246 276.07,164.579 277.5,164.5C 277.5,163.5 277.5,162.5 277.5,161.5C 279.167,161.5 280.833,161.5 282.5,161.5C 282.5,160.5 282.5,159.5 282.5,158.5C 284.288,158.785 285.955,158.452 287.5,157.5C 286.674,156.549 286.508,155.549 287,154.5C 288.726,155.576 290.559,155.743 292.5,155C 291.289,154.107 291.289,153.274 292.5,152.5C 294.599,154.52 296.933,154.854 299.5,153.5C 298.106,152.313 298.273,151.646 300,151.5C 301.144,151.911 302.311,152.244 303.5,152.5C 309.751,151.975 315.751,150.642 321.5,148.5C 323.432,149.52 325.432,149.687 327.5,149C 326.304,148.346 326.304,147.846 327.5,147.5C 332.089,150.104 335.422,149.438 337.5,145.5C 339.098,146.485 340.765,146.651 342.5,146C 341.255,145.209 339.922,144.709 338.5,144.5C 337.942,143.21 336.942,142.377 335.5,142C 332.242,140.533 328.908,139.367 325.5,138.5C 322.249,136.043 318.582,134.376 314.5,133.5C 310.452,131.538 306.119,130.038 301.5,129C 290.878,127.367 280.212,126.701 269.5,127C 268.128,129.533 267.128,132.2 266.5,135C 262.933,136.809 259.266,138.309 255.5,139.5C 250.023,138.298 244.689,138.298 239.5,139.5C 238.265,139.721 237.265,140.388 236.5,141.5C 234.338,139.98 232.005,138.98 229.5,138.5C 229.477,133.856 228.144,129.69 225.5,126C 218.486,125.676 211.486,125.176 204.5,124.5C 189.732,127.723 176.066,133.39 163.5,141.5C 160.411,142.739 157.411,144.239 154.5,146C 155,146.167 155.5,146.333 156,146.5C 161.457,146.816 166.957,146.816 172.5,146.5C 173.949,147.28 175.449,147.946 177,148.5C 181.63,148.698 186.296,148.698 191,148.5C 191.667,149.167 192.333,149.833 193,150.5C 194.789,149.591 196.623,149.424 198.5,150C 197.833,150.667 197.167,151.333 196.5,152C 198.899,152.711 201.232,152.544 203.5,151.5C 204.506,151.938 204.506,152.604 203.5,153.5C 205.353,154.76 207.186,154.76 209,153.5C 209.492,154.549 209.326,155.549 208.5,156.5C 210.045,157.452 211.712,157.785 213.5,157.5C 213.5,158.5 213.5,159.5 213.5,160.5C 215.167,160.5 216.833,160.5 218.5,160.5C 218.5,161.5 218.5,162.5 218.5,163.5C 219.93,163.579 221.264,163.246 222.5,162.5C 224.051,166.19 225.884,166.19 228,162.5C 228.202,164.256 228.702,165.922 229.5,167.5C 230.478,167.023 231.311,166.357 232,165.5C 232.402,166.872 232.902,168.205 233.5,169.5C 228.743,177.013 225.076,185.013 222.5,193.5C 218.822,198.506 214.822,203.173 210.5,207.5C 209.167,206.833 208.167,205.833 207.5,204.5C 207.953,203.542 208.619,202.708 209.5,202C 208.167,201.667 206.833,201.333 205.5,201C 206.044,200.283 206.711,199.783 207.5,199.5C 209.9,200.927 210.567,200.427 209.5,198C 211.257,196.25 213.257,195.084 215.5,194.5C 221.196,193.899 221.529,192.899 216.5,191.5C 214.064,192.891 213.398,192.391 214.5,190C 217.371,189.882 220.038,189.216 222.5,188C 220.557,188.305 218.557,188.305 216.5,188C 220.425,184.202 219.925,183.702 215,186.5C 214.667,186.167 214.333,185.833 214,185.5C 213.294,189.586 211.128,192.586 207.5,194.5C 206.833,194.833 206.167,195.167 205.5,195.5C 206.203,193.284 207.536,191.451 209.5,190C 203.644,189.718 200.644,192.218 200.5,197.5C 199.833,197.5 199.5,197.167 199.5,196.5C 199.372,194.345 199.872,192.345 201,190.5C 206.193,188.009 208.859,184.009 209,178.5C 205.667,180.5 203,183.167 201,186.5C 200.667,184.833 200.333,183.167 200,181.5C 196.01,186.394 194.844,191.727 196.5,197.5C 196.5,198.5 196.5,199.5 196.5,200.5C 195.4,201.605 194.733,202.938 194.5,204.5C 191.325,204.84 189.159,206.507 188,209.5C 186.836,206.865 185.669,204.198 184.5,201.5C 183.571,202.689 183.238,204.022 183.5,205.5C 182.698,206.952 182.198,208.618 182,210.5C 180.925,206.23 180.425,201.897 180.5,197.5C 180.93,191.149 181.597,184.815 182.5,178.5C 184.841,177.601 185.507,176.268 184.5,174.5C 184.5,173.5 184.5,172.5 184.5,171.5C 182.833,171.5 181.167,171.5 179.5,171.5C 179.657,170.127 179.49,168.793 179,167.5C 177.855,173.24 176.355,173.573 174.5,168.5C 172.228,167.559 170.228,166.226 168.5,164.5C 168.167,164.667 167.833,164.833 167.5,165C 169.747,166.995 170.747,169.495 170.5,172.5C 172.346,172.222 173.68,172.889 174.5,174.5C 172.577,175.308 170.577,175.808 168.5,176C 171.088,177.686 173.755,177.853 176.5,176.5C 177.298,176.957 177.631,177.624 177.5,178.5C 176.752,185.119 176.085,191.786 175.5,198.5C 175.277,200.342 174.943,202.175 174.5,204C 179.615,216.152 178.281,217.652 170.5,208.5C 172.519,207.462 172.853,206.128 171.5,204.5C 171.095,198.809 169.095,198.143 165.5,202.5C 164.503,202.53 163.836,202.03 163.5,201C 164.029,199.441 164.696,197.941 165.5,196.5C 165.167,196.167 164.833,195.833 164.5,195.5C 160.204,198.67 157.871,197.503 157.5,192C 153.637,190.819 150.137,188.986 147,186.5C 148.361,190.048 149.861,193.715 151.5,197.5C 153.9,198.085 155.9,199.252 157.5,201C 156.313,203.59 154.48,204.09 152,202.5C 151.167,208.333 153.667,210.833 159.5,210C 158.24,208.186 158.24,206.353 159.5,204.5C 161.57,205.903 163.237,207.57 164.5,209.5C 164.609,216.196 164.276,222.863 163.5,229.5C 162.623,233.322 161.956,237.322 161.5,241.5C 162.427,244.987 164.76,246.32 168.5,245.5C 168.599,242.763 168.265,240.096 167.5,237.5C 168.055,229.178 168.388,220.844 168.5,212.5C 169.222,212.082 169.722,211.416 170,210.5C 173.369,214.037 176.869,217.371 180.5,220.5C 181.458,220.953 182.292,221.619 183,222.5C 183.168,241.338 183.668,260.004 184.5,278.5C 184.947,290.005 188.114,300.672 194,310.5C 196.747,313.754 199.914,316.42 203.5,318.5C 203.719,319.675 203.386,320.675 202.5,321.5C 198.724,319.009 195.057,319.342 191.5,322.5C 195.263,325.397 199.097,325.73 203,323.5C 204.611,330.231 207.111,330.898 210.5,325.5C 212.167,325.5 213.833,325.5 215.5,325.5C 216.438,327.91 216.438,330.244 215.5,332.5C 211.877,333.656 208.211,334.656 204.5,335.5C 202.883,336.038 201.216,336.371 199.5,336.5C 188.945,336.906 180.612,332.906 174.5,324.5C 174.34,322.847 173.674,321.514 172.5,320.5C 169.026,313.239 166.859,305.573 166,297.5C 165.5,281.503 165.333,265.503 165.5,249.5C 110.167,249.5 54.8333,249.5 -0.5,249.5C -0.5,241.5 -0.5,233.5 -0.5,225.5C 11.4543,135.075 57.4543,68.242 137.5,25C 165.514,11.5012 194.847,3.00119 225.5,-0.5 Z"/></g>
<g><path style="opacity:1" fill="#cdccc8" d="M 239.5,139.5 C 240.791,139.263 241.791,139.596 242.5,140.5C 236.168,143.645 230.334,142.979 225,138.5C 223.555,135.91 222.388,133.243 221.5,130.5C 215.418,130.231 209.418,130.231 203.5,130.5C 201.119,128.608 198.453,128.108 195.5,129C 184.711,132.896 174.044,137.063 163.5,141.5C 176.066,133.39 189.732,127.723 204.5,124.5C 211.486,125.176 218.486,125.676 225.5,126C 228.144,129.69 229.477,133.856 229.5,138.5C 232.005,138.98 234.338,139.98 236.5,141.5C 237.265,140.388 238.265,139.721 239.5,139.5 Z"/></g>
<g><path style="opacity:1" fill="#d2d3d5" d="M 314.5,133.5 C 309.509,134.902 304.842,134.069 300.5,131C 291.178,129.357 281.845,129.191 272.5,130.5C 272.377,133.374 271.377,135.874 269.5,138C 266.823,138.249 264.49,139.249 262.5,141C 259.518,141.498 256.518,141.665 253.5,141.5C 254.167,140.833 254.833,140.167 255.5,139.5C 259.266,138.309 262.933,136.809 266.5,135C 267.128,132.2 268.128,129.533 269.5,127C 280.212,126.701 290.878,127.367 301.5,129C 306.119,130.038 310.452,131.538 314.5,133.5 Z"/></g>
<g><path style="opacity:1" fill="#a6a2a0" d="M 314.5,133.5 C 318.582,134.376 322.249,136.043 325.5,138.5C 321.418,137.624 317.751,135.957 314.5,133.5 Z"/></g>
<g><path style="opacity:1" fill="#aba6a0" d="M 325.5,138.5 C 328.908,139.367 332.242,140.533 335.5,142C 336.942,142.377 337.942,143.21 338.5,144.5C 333.75,143.257 329.416,141.257 325.5,138.5 Z"/></g>
<g><path style="opacity:1" fill="#3f2821" d="M 242.5,140.5 C 246.234,140.323 249.901,140.656 253.5,141.5C 256.518,141.665 259.518,141.498 262.5,141C 264.49,139.249 266.823,138.249 269.5,138C 271.377,135.874 272.377,133.374 272.5,130.5C 281.845,129.191 291.178,129.357 300.5,131C 304.842,134.069 309.509,134.902 314.5,133.5C 317.751,135.957 321.418,137.624 325.5,138.5C 329.416,141.257 333.75,143.257 338.5,144.5C 339.922,144.709 341.255,145.209 342.5,146C 340.765,146.651 339.098,146.485 337.5,145.5C 335.422,149.438 332.089,150.104 327.5,147.5C 326.304,147.846 326.304,148.346 327.5,149C 325.432,149.687 323.432,149.52 321.5,148.5C 315.751,150.642 309.751,151.975 303.5,152.5C 302.311,152.244 301.144,151.911 300,151.5C 298.273,151.646 298.106,152.313 299.5,153.5C 296.933,154.854 294.599,154.52 292.5,152.5C 291.289,153.274 291.289,154.107 292.5,155C 290.559,155.743 288.726,155.576 287,154.5C 286.508,155.549 286.674,156.549 287.5,157.5C 285.955,158.452 284.288,158.785 282.5,158.5C 282.5,159.5 282.5,160.5 282.5,161.5C 280.833,161.5 279.167,161.5 277.5,161.5C 277.5,162.5 277.5,163.5 277.5,164.5C 276.07,164.579 274.736,164.246 273.5,163.5C 272.833,164.5 272.167,165.5 271.5,166.5C 269.099,163.587 267.766,163.921 267.5,167.5C 266.178,167.67 265.011,167.337 264,166.5C 261.871,169.767 260.038,173.101 258.5,176.5C 256.938,176.267 255.605,175.6 254.5,174.5C 254.103,173.475 253.437,173.308 252.5,174C 249.882,176.106 247.882,178.606 246.5,181.5C 245.624,181.631 244.957,181.298 244.5,180.5C 245.706,178.484 245.706,176.484 244.5,174.5C 243.729,176.862 242.895,179.196 242,181.5C 238.628,182.878 235.795,184.878 233.5,187.5C 229.456,188.944 225.956,191.278 223,194.5C 222.601,194.272 222.435,193.938 222.5,193.5C 225.076,185.013 228.743,177.013 233.5,169.5C 232.902,168.205 232.402,166.872 232,165.5C 231.311,166.357 230.478,167.023 229.5,167.5C 228.702,165.922 228.202,164.256 228,162.5C 225.884,166.19 224.051,166.19 222.5,162.5C 221.264,163.246 219.93,163.579 218.5,163.5C 218.5,162.5 218.5,161.5 218.5,160.5C 216.833,160.5 215.167,160.5 213.5,160.5C 213.5,159.5 213.5,158.5 213.5,157.5C 211.712,157.785 210.045,157.452 208.5,156.5C 209.326,155.549 209.492,154.549 209,153.5C 207.186,154.76 205.353,154.76 203.5,153.5C 204.506,152.604 204.506,151.938 203.5,151.5C 201.232,152.544 198.899,152.711 196.5,152C 197.167,151.333 197.833,150.667 198.5,150C 196.623,149.424 194.789,149.591 193,150.5C 192.333,149.833 191.667,149.167 191,148.5C 186.296,148.698 181.63,148.698 177,148.5C 175.449,147.946 173.949,147.28 172.5,146.5C 166.957,146.816 161.457,146.816 156,146.5C 155.5,146.333 155,146.167 154.5,146C 157.411,144.239 160.411,142.739 163.5,141.5C 174.044,137.063 184.711,132.896 195.5,129C 198.453,128.108 201.119,128.608 203.5,130.5C 209.418,130.231 215.418,130.231 221.5,130.5C 222.388,133.243 223.555,135.91 225,138.5C 230.334,142.979 236.168,143.645 242.5,140.5 Z"/></g>
<g><path style="opacity:1" fill="#e5e5e5" d="M 238.5,153.5 C 243.031,153.902 246.365,152.235 248.5,148.5C 248.392,147.558 248.059,146.725 247.5,146C 244.151,145.612 240.817,145.779 237.5,146.5C 238.024,143.812 239.691,142.312 242.5,142C 246.069,141.318 249.402,141.818 252.5,143.5C 253.151,145.826 253.818,148.159 254.5,150.5C 254.731,154.708 252.898,157.375 249,158.5C 248.05,157.978 247.216,157.311 246.5,156.5C 242.201,159.76 239.534,158.76 238.5,153.5 Z"/></g>
<g><path style="opacity:1" fill="#ca935c" d="M 238.5,153.5 C 233.253,153.468 228.253,153.135 223.5,152.5C 224.612,151.735 225.279,150.735 225.5,149.5C 227.824,148.344 230.157,147.344 232.5,146.5C 234.167,146.5 235.833,146.5 237.5,146.5C 240.817,145.779 244.151,145.612 247.5,146C 248.059,146.725 248.392,147.558 248.5,148.5C 246.365,152.235 243.031,153.902 238.5,153.5 Z"/></g>
<g><path style="opacity:1" fill="#ac2b28" d="M 232.5,146.5 C 230.157,147.344 227.824,148.344 225.5,149.5C 224.601,148.006 224.935,146.506 226.5,145C 227.5,144.833 228.5,144.667 229.5,144.5C 231.03,144.64 232.03,145.307 232.5,146.5 Z"/></g>
<g><path style="opacity:1" fill="#897e6f" d="M 239.5,139.5 C 244.689,138.298 250.023,138.298 255.5,139.5C 254.833,140.167 254.167,140.833 253.5,141.5C 249.901,140.656 246.234,140.323 242.5,140.5C 241.791,139.596 240.791,139.263 239.5,139.5 Z"/></g>
<g><path style="opacity:1" fill="#1c4683" d="M 179.5,171.5 C 181.167,171.5 182.833,171.5 184.5,171.5C 184.5,172.5 184.5,173.5 184.5,174.5C 182.735,175.461 180.735,175.795 178.5,175.5C 178.833,174.167 179.167,172.833 179.5,171.5 Z"/></g>
<g><path style="opacity:1" fill="#9ea39e" d="M 179.5,171.5 C 179.167,172.833 178.833,174.167 178.5,175.5C 178.5,175.833 178.5,176.167 178.5,176.5C 178.672,177.492 178.338,178.158 177.5,178.5C 177.631,177.624 177.298,176.957 176.5,176.5C 173.755,177.853 171.088,177.686 168.5,176C 170.577,175.808 172.577,175.308 174.5,174.5C 173.68,172.889 172.346,172.222 170.5,172.5C 170.747,169.495 169.747,166.995 167.5,165C 167.833,164.833 168.167,164.667 168.5,164.5C 170.228,166.226 172.228,167.559 174.5,168.5C 176.355,173.573 177.855,173.24 179,167.5C 179.49,168.793 179.657,170.127 179.5,171.5 Z"/></g>
<g><path style="opacity:1" fill="#f3d501" d="M 254.5,174.5 C 254.5,176.833 254.5,179.167 254.5,181.5C 251.734,182.232 249.068,182.232 246.5,181.5C 247.882,178.606 249.882,176.106 252.5,174C 253.437,173.308 254.103,173.475 254.5,174.5 Z"/></g>
<g><path style="opacity:1" fill="#9fa5a1" d="M 321.5,178.5 C 320.388,176.401 319.721,174.067 319.5,171.5C 318.167,171.5 316.833,171.5 315.5,171.5C 317.304,170.619 318.804,169.286 320,167.5C 320.216,169.384 320.883,171.051 322,172.5C 323.526,168.729 326.193,166.062 330,164.5C 329.313,166.716 328.48,169.049 327.5,171.5C 323.061,172.67 322.728,174.17 326.5,176C 324.256,176.05 322.589,176.883 321.5,178.5 Z"/></g>
<g><path style="opacity:1" fill="#494983" d="M 178.5,176.5 C 179.852,183.89 179.519,191.223 177.5,198.5C 176.833,198.5 176.167,198.5 175.5,198.5C 176.085,191.786 176.752,185.119 177.5,178.5C 178.338,178.158 178.672,177.492 178.5,176.5 Z"/></g>
<g><path style="opacity:1" fill="#de2e23" d="M 184.5,174.5 C 185.507,176.268 184.841,177.601 182.5,178.5C 181.597,184.815 180.93,191.149 180.5,197.5C 179.839,198.718 179.172,200.051 178.5,201.5C 177.614,200.675 177.281,199.675 177.5,198.5C 179.519,191.223 179.852,183.89 178.5,176.5C 178.5,176.167 178.5,175.833 178.5,175.5C 180.735,175.795 182.735,175.461 184.5,174.5 Z"/></g>
<g><path style="opacity:1" fill="#d62725" d="M 314.5,172.5 C 314.35,176.161 315.85,177.161 319,175.5C 319.353,183.185 319.853,190.852 320.5,198.5C 320.715,200.179 320.048,201.179 318.5,201.5C 317.737,193.858 317.403,186.191 317.5,178.5C 316.178,178.67 315.011,178.337 314,177.5C 313.22,175.613 313.387,173.946 314.5,172.5 Z"/></g>
<g><path style="opacity:1" fill="#2e4580" d="M 315.5,171.5 C 316.833,171.5 318.167,171.5 319.5,171.5C 319.721,174.067 320.388,176.401 321.5,178.5C 321.472,183.862 321.806,189.195 322.5,194.5C 322.843,196.483 322.176,197.817 320.5,198.5C 319.853,190.852 319.353,183.185 319,175.5C 315.85,177.161 314.35,176.161 314.5,172.5C 314.5,171.833 314.833,171.5 315.5,171.5 Z"/></g>
<g><path style="opacity:1" fill="#a2764d" d="M 246.5,181.5 C 249.068,182.232 251.734,182.232 254.5,181.5C 254.5,179.167 254.5,176.833 254.5,174.5C 255.605,175.6 256.938,176.267 258.5,176.5C 257.527,178.068 257.36,179.735 258,181.5C 259.992,182.328 261.492,183.661 262.5,185.5C 262.631,186.239 262.464,186.906 262,187.5C 258.886,183.319 257.052,183.985 256.5,189.5C 255.012,187.851 254.012,185.851 253.5,183.5C 250.182,185.818 247.016,185.818 244,183.5C 242.088,185.657 240.421,187.991 239,190.5C 238.308,189.975 237.808,189.308 237.5,188.5C 238.326,187.549 238.492,186.549 238,185.5C 236.67,186.582 235.17,187.249 233.5,187.5C 235.795,184.878 238.628,182.878 242,181.5C 242.895,179.196 243.729,176.862 244.5,174.5C 245.706,176.484 245.706,178.484 244.5,180.5C 244.957,181.298 245.624,181.631 246.5,181.5 Z"/></g>
<g><path style="opacity:1" fill="#b1842b" d="M 262.5,185.5 C 271.024,189.028 277.691,194.694 282.5,202.5C 278.169,198.337 273.669,194.337 269,190.5C 268.056,191.263 267.556,192.263 267.5,193.5C 269.493,195.828 271.493,198.161 273.5,200.5C 268.486,196.355 262.82,193.188 256.5,191C 251.5,190.333 246.5,190.333 241.5,191C 237.328,192.588 233.328,194.421 229.5,196.5C 230.301,194.958 230.634,193.292 230.5,191.5C 229.448,191.351 228.448,191.517 227.5,192C 220.189,198.138 214.189,205.304 209.5,213.5C 209.751,211.83 210.418,210.33 211.5,209C 210.944,208.617 210.611,208.117 210.5,207.5C 214.822,203.173 218.822,198.506 222.5,193.5C 222.435,193.938 222.601,194.272 223,194.5C 225.956,191.278 229.456,188.944 233.5,187.5C 235.17,187.249 236.67,186.582 238,185.5C 238.492,186.549 238.326,187.549 237.5,188.5C 237.808,189.308 238.308,189.975 239,190.5C 240.421,187.991 242.088,185.657 244,183.5C 247.016,185.818 250.182,185.818 253.5,183.5C 254.012,185.851 255.012,187.851 256.5,189.5C 257.052,183.985 258.886,183.319 262,187.5C 262.464,186.906 262.631,186.239 262.5,185.5 Z"/></g>
<g><path style="opacity:1" fill="#3f8c35" d="M 215.5,194.5 C 212.586,194.805 209.919,194.805 207.5,194.5C 211.128,192.586 213.294,189.586 214,185.5C 214.333,185.833 214.667,186.167 215,186.5C 219.925,183.702 220.425,184.202 216.5,188C 218.557,188.305 220.557,188.305 222.5,188C 220.038,189.216 217.371,189.882 214.5,190C 213.398,192.391 214.064,192.891 216.5,191.5C 221.529,192.899 221.196,193.899 215.5,194.5 Z"/></g>
<g><path style="opacity:1" fill="#449439" d="M 199.5,196.5 C 198.609,197.11 197.609,197.443 196.5,197.5C 194.844,191.727 196.01,186.394 200,181.5C 200.333,183.167 200.667,184.833 201,186.5C 203,183.167 205.667,180.5 209,178.5C 208.859,184.009 206.193,188.009 201,190.5C 199.872,192.345 199.372,194.345 199.5,196.5 Z"/></g>
<g><path style="opacity:1" fill="#b5a920" d="M 207.5,194.5 C 209.919,194.805 212.586,194.805 215.5,194.5C 213.257,195.084 211.257,196.25 209.5,198C 210.567,200.427 209.9,200.927 207.5,199.5C 207.611,198.883 207.944,198.383 208.5,198C 206.423,197.808 204.423,197.308 202.5,196.5C 203.325,195.614 204.325,195.281 205.5,195.5C 206.167,195.167 206.833,194.833 207.5,194.5 Z"/></g>
<g><path style="opacity:1" fill="#c3ae05" d="M 302.5,193.5 C 303.588,195.516 304.588,197.683 305.5,200C 305.43,200.765 305.097,201.265 304.5,201.5C 304.5,201.167 304.5,200.833 304.5,200.5C 303.061,198.412 302.394,196.079 302.5,193.5 Z"/></g>
<g><path style="opacity:1" fill="#46beec" d="M 273.5,200.5 C 274.713,203.225 276.546,205.559 279,207.5C 279.982,208.759 280.315,210.092 280,211.5C 273.24,208.175 266.073,206.175 258.5,205.5C 257.448,205.649 256.448,205.483 255.5,205C 256.863,202.871 256.529,202.371 254.5,203.5C 253.483,200.972 252.316,200.972 251,203.5C 250.418,200.332 249.418,199.999 248,202.5C 246.582,199.999 245.582,200.332 245,203.5C 244.107,202.289 243.274,202.289 242.5,203.5C 243.609,205.214 242.942,205.881 240.5,205.5C 232.548,205.652 225.214,207.652 218.5,211.5C 218.167,211.5 217.833,211.5 217.5,211.5C 217.5,210.833 217.5,210.167 217.5,209.5C 218.906,209.027 219.573,208.027 219.5,206.5C 223.167,203.5 226.5,200.167 229.5,196.5C 233.328,194.421 237.328,192.588 241.5,191C 246.5,190.333 251.5,190.333 256.5,191C 262.82,193.188 268.486,196.355 273.5,200.5 Z"/></g>
<g><path style="opacity:1" fill="#21556e" d="M 199.5,196.5 C 199.5,197.167 199.833,197.5 200.5,197.5C 199.455,198.878 198.122,199.878 196.5,200.5C 196.5,199.5 196.5,198.5 196.5,197.5C 197.609,197.443 198.609,197.11 199.5,196.5 Z"/></g>
<g><path style="opacity:1" fill="#4e953d" d="M 205.5,195.5 C 204.325,195.281 203.325,195.614 202.5,196.5C 204.423,197.308 206.423,197.808 208.5,198C 207.944,198.383 207.611,198.883 207.5,199.5C 206.711,199.783 206.044,200.283 205.5,201C 206.833,201.333 208.167,201.667 209.5,202C 208.619,202.708 207.953,203.542 207.5,204.5C 206.833,204.5 206.5,204.833 206.5,205.5C 204.599,207.796 202.266,209.629 199.5,211C 200.5,211.333 201.5,211.667 202.5,212C 200.844,213.829 198.844,215.163 196.5,216C 199.544,216.359 199.878,217.026 197.5,218C 198.308,218.308 198.975,218.808 199.5,219.5C 198.5,220.833 197.5,222.167 196.5,223.5C 197.363,224.726 197.363,226.06 196.5,227.5C 195.244,227.461 194.244,227.961 193.5,229C 194.861,230.584 195.528,232.418 195.5,234.5C 195.167,234.5 194.833,234.5 194.5,234.5C 192.529,232.192 190.529,229.858 188.5,227.5C 188.351,226.448 188.517,225.448 189,224.5C 190.135,224.273 191.302,223.94 192.5,223.5C 191.847,220.342 192.681,220.008 195,222.5C 196.632,220.973 196.799,219.307 195.5,217.5C 192.567,218.93 190.067,220.93 188,223.5C 186.059,219.446 185.225,219.78 185.5,224.5C 184.503,242.326 184.17,260.326 184.5,278.5C 183.668,260.004 183.168,241.338 183,222.5C 182.292,221.619 181.458,220.953 180.5,220.5C 179.784,211.417 180.951,210.751 184,218.5C 183.709,214.226 183.543,209.893 183.5,205.5C 183.238,204.022 183.571,202.689 184.5,201.5C 185.669,204.198 186.836,206.865 188,209.5C 189.159,206.507 191.325,204.84 194.5,204.5C 194.733,202.938 195.4,201.605 196.5,200.5C 198.122,199.878 199.455,198.878 200.5,197.5C 200.644,192.218 203.644,189.718 209.5,190C 207.536,191.451 206.203,193.284 205.5,195.5 Z"/></g>
<g><path style="opacity:1" fill="#367234" d="M 299.5,195.5 C 299.565,197.696 300.232,199.696 301.5,201.5C 302.439,199.308 302.105,197.308 300.5,195.5C 297.484,188.813 298.15,188.146 302.5,193.5C 302.394,196.079 303.061,198.412 304.5,200.5C 303.876,200.917 303.543,201.584 303.5,202.5C 304.553,205.131 305.053,207.798 305,210.5C 304.044,207.623 302.711,204.956 301,202.5C 301.195,204.126 301.195,205.793 301,207.5C 299.92,205.004 298.586,202.67 297,200.5C 296.536,201.094 296.369,201.761 296.5,202.5C 295.833,202.167 295.167,201.833 294.5,201.5C 291.696,193.059 287.696,185.226 282.5,178C 282.833,177.833 283.167,177.667 283.5,177.5C 287.828,182.821 291.662,188.488 295,194.5C 293.573,189.468 291.407,184.635 288.5,180C 289.332,179.312 289.998,179.479 290.5,180.5C 292.772,186.061 295.772,191.061 299.5,195.5 Z"/></g>
<g><path style="opacity:1" fill="#194675" d="M 299.5,195.5 C 299.833,195.5 300.167,195.5 300.5,195.5C 302.105,197.308 302.439,199.308 301.5,201.5C 300.232,199.696 299.565,197.696 299.5,195.5 Z"/></g>
<g><path style="opacity:1" fill="#a0a6a5" d="M 165.5,202.5 C 165.802,205.059 165.468,207.393 164.5,209.5C 163.237,207.57 161.57,205.903 159.5,204.5C 158.24,206.353 158.24,208.186 159.5,210C 153.667,210.833 151.167,208.333 152,202.5C 154.48,204.09 156.313,203.59 157.5,201C 155.9,199.252 153.9,198.085 151.5,197.5C 149.861,193.715 148.361,190.048 147,186.5C 150.137,188.986 153.637,190.819 157.5,192C 157.871,197.503 160.204,198.67 164.5,195.5C 164.833,195.833 165.167,196.167 165.5,196.5C 164.696,197.941 164.029,199.441 163.5,201C 163.836,202.03 164.503,202.53 165.5,202.5 Z"/></g>
<g><path style="opacity:1" fill="#87733c" d="M 229.5,196.5 C 226.5,200.167 223.167,203.5 219.5,206.5C 221.833,202.167 225.167,198.833 229.5,196.5 Z"/></g>
<g><path style="opacity:1" fill="#3c8f37" d="M 186.5,186.5 C 188.335,187.122 189.502,188.456 190,190.5C 191.772,186.57 192.938,186.903 193.5,191.5C 192.921,196.416 191.087,200.749 188,204.5C 186.961,202.254 185.794,200.087 184.5,198C 185.449,197.383 186.282,197.549 187,198.5C 187.5,197.5 188,196.5 188.5,195.5C 186.87,192.724 186.203,189.724 186.5,186.5 Z"/></g>
<g><path style="opacity:1" fill="#a3a9aa" d="M 334.5,210.5 C 333.656,207.655 332.99,204.655 332.5,201.5C 333.985,202.935 335.318,202.768 336.5,201C 332.236,196.362 332.902,195.529 338.5,198.5C 339.873,196.51 340.873,194.343 341.5,192C 345.246,190.422 348.913,189.089 352.5,188C 350.599,190.97 349.099,194.136 348,197.5C 345.434,198.007 343.267,199.174 341.5,201C 342.687,203.59 344.52,204.09 347,202.5C 347.833,208.333 345.333,210.833 339.5,210C 341.078,204.063 339.744,203.23 335.5,207.5C 334.614,208.325 334.281,209.325 334.5,210.5 Z"/></g>
<g><path style="opacity:1" fill="#e01e24" d="M 207.5,204.5 C 208.167,205.833 209.167,206.833 210.5,207.5C 210.611,208.117 210.944,208.617 211.5,209C 210.418,210.33 209.751,211.83 209.5,213.5C 208.5,214.833 207.5,216.167 206.5,217.5C 206.5,213.5 206.5,209.5 206.5,205.5C 206.5,204.833 206.833,204.5 207.5,204.5 Z"/></g>
<g><path style="opacity:1" fill="#8e9295" d="M 240.5,205.5 C 240.953,206.458 241.619,207.292 242.5,208C 238.728,208.611 238.728,209.611 242.5,211C 239.999,212.418 240.332,213.418 243.5,214C 242.956,214.717 242.289,215.217 241.5,215.5C 237.277,214.272 232.944,214.439 228.5,216C 222.283,217.453 216.616,219.953 211.5,223.5C 211.5,222.833 211.5,222.167 211.5,221.5C 213.5,218.167 215.5,214.833 217.5,211.5C 217.833,211.5 218.167,211.5 218.5,211.5C 225.214,207.652 232.548,205.652 240.5,205.5 Z"/></g>
<g><path style="opacity:1" fill="#ab992a" d="M 234.5,207.5 C 235.325,209.125 234.992,210.792 233.5,212.5C 229.432,210.021 229.765,208.354 234.5,207.5 Z"/></g>
<g><path style="opacity:1" fill="#d7be14" d="M 258.5,205.5 C 258.423,206.75 257.756,207.583 256.5,208C 259.167,209 259.167,210 256.5,211C 257.308,211.308 257.975,211.808 258.5,212.5C 257.452,213.548 256.452,214.548 255.5,215.5C 254.883,215.389 254.383,215.056 254,214.5C 254.035,218.245 253.035,218.912 251,216.5C 250,220.5 249,220.5 248,216.5C 246.309,219.131 245.142,218.797 244.5,215.5C 243.313,216.653 242.313,216.653 241.5,215.5C 242.289,215.217 242.956,214.717 243.5,214C 240.332,213.418 239.999,212.418 242.5,211C 238.728,209.611 238.728,208.611 242.5,208C 241.619,207.292 240.953,206.458 240.5,205.5C 242.942,205.881 243.609,205.214 242.5,203.5C 243.274,202.289 244.107,202.289 245,203.5C 245.582,200.332 246.582,199.999 248,202.5C 249.418,199.999 250.418,200.332 251,203.5C 252.316,200.972 253.483,200.972 254.5,203.5C 256.529,202.371 256.863,202.871 255.5,205C 256.448,205.483 257.448,205.649 258.5,205.5 Z"/></g>
<g><path style="opacity:1" fill="#c13427" d="M 291.5,204.5 C 292.338,204.842 292.672,205.508 292.5,206.5C 291.438,208.099 291.438,209.766 292.5,211.5C 292.5,214.167 292.5,216.833 292.5,219.5C 291.833,218.833 291.167,218.167 290.5,217.5C 288.375,214.912 287.042,211.912 286.5,208.5C 288.167,207.167 289.833,205.833 291.5,204.5 Z"/></g>
<g><path style="opacity:1" fill="#cdbe3a" d="M 194.5,204.5 C 196.117,205.038 197.784,205.371 199.5,205.5C 199.719,206.675 199.386,207.675 198.5,208.5C 197.391,207.41 196.391,207.41 195.5,208.5C 196.59,209.609 196.59,210.609 195.5,211.5C 194.526,209.257 194.192,206.924 194.5,204.5 Z"/></g>
<g><path style="opacity:1" fill="#886e3c" d="M 217.5,209.5 C 217.5,210.167 217.5,210.833 217.5,211.5C 215.5,214.833 213.5,218.167 211.5,221.5C 212.46,216.914 214.46,212.914 217.5,209.5 Z"/></g>
<g><path style="opacity:1" fill="#1a5256" d="M 292.5,206.5 C 295.007,209.14 296.007,212.14 295.5,215.5C 294.5,214.167 293.5,212.833 292.5,211.5C 291.438,209.766 291.438,208.099 292.5,206.5 Z"/></g>
<g><path style="opacity:1" fill="#164c95" d="M 206.5,205.5 C 206.5,209.5 206.5,213.5 206.5,217.5C 203.888,225.283 202.555,233.283 202.5,241.5C 199.5,240.5 197.5,238.5 196.5,235.5C 196.5,232.833 196.5,230.167 196.5,227.5C 197.363,226.06 197.363,224.726 196.5,223.5C 197.5,222.167 198.5,220.833 199.5,219.5C 198.975,218.808 198.308,218.308 197.5,218C 199.878,217.026 199.544,216.359 196.5,216C 198.844,215.163 200.844,213.829 202.5,212C 201.5,211.667 200.5,211.333 199.5,211C 202.266,209.629 204.599,207.796 206.5,205.5 Z"/></g>
<g><path style="opacity:1" fill="#dd2721" d="M 171.5,204.5 C 172.853,206.128 172.519,207.462 170.5,208.5C 168.824,209.183 168.157,210.517 168.5,212.5C 168.388,220.844 168.055,229.178 167.5,237.5C 165.821,237.715 164.821,237.048 164.5,235.5C 165.81,226.323 166.81,216.989 167.5,207.5C 167.291,206.914 166.957,206.414 166.5,206C 168.025,204.991 169.692,204.491 171.5,204.5 Z"/></g>
<g><path style="opacity:1" fill="#c0a70d" d="M 180.5,197.5 C 180.425,201.897 180.925,206.23 182,210.5C 182.198,208.618 182.698,206.952 183.5,205.5C 183.543,209.893 183.709,214.226 184,218.5C 180.951,210.751 179.784,211.417 180.5,220.5C 176.869,217.371 173.369,214.037 170,210.5C 169.722,211.416 169.222,212.082 168.5,212.5C 168.157,210.517 168.824,209.183 170.5,208.5C 178.281,217.652 179.615,216.152 174.5,204C 174.943,202.175 175.277,200.342 175.5,198.5C 176.167,198.5 176.833,198.5 177.5,198.5C 177.281,199.675 177.614,200.675 178.5,201.5C 179.172,200.051 179.839,198.718 180.5,197.5 Z"/></g>
<g><path style="opacity:1" fill="#b7a230" d="M 218.5,211.5 C 220.5,212.626 222.5,212.793 224.5,212C 222.556,217.654 220.556,217.488 218.5,211.5 Z"/></g>
<g><path style="opacity:1" fill="#a2a8ab" d="M 282.5,202.5 C 283.34,204.853 284.674,206.853 286.5,208.5C 287.042,211.912 288.375,214.912 290.5,217.5C 291.544,222.355 292.877,227.022 294.5,231.5C 294.5,241.167 294.5,250.833 294.5,260.5C 294.5,260.833 294.5,261.167 294.5,261.5C 293.849,262.091 293.182,262.757 292.5,263.5C 291.534,261.604 291.201,259.604 291.5,257.5C 293.48,241.237 290.647,225.903 283,211.5C 282.346,210.304 281.846,210.304 281.5,211.5C 283.731,215.292 285.398,219.292 286.5,223.5C 278.703,219.122 270.37,216.122 261.5,214.5C 259.616,214.716 257.949,215.383 256.5,216.5C 255.893,216.376 255.56,216.043 255.5,215.5C 256.452,214.548 257.452,213.548 258.5,212.5C 257.975,211.808 257.308,211.308 256.5,211C 259.167,210 259.167,209 256.5,208C 257.756,207.583 258.423,206.75 258.5,205.5C 266.073,206.175 273.24,208.175 280,211.5C 280.315,210.092 279.982,208.759 279,207.5C 276.546,205.559 274.713,203.225 273.5,200.5C 271.493,198.161 269.493,195.828 267.5,193.5C 267.556,192.263 268.056,191.263 269,190.5C 273.669,194.337 278.169,198.337 282.5,202.5 Z"/></g>
<g><path style="opacity:1" fill="#a9982c" d="M 274.5,211.5 C 278.029,210.889 279.862,212.223 280,215.5C 275.848,217.492 274.015,216.159 274.5,211.5 Z"/></g>
<g><path style="opacity:1" fill="#988a37" d="M 263.5,207.5 C 266.134,208.72 268.8,209.887 271.5,211C 270.23,211.9 269.23,213.066 268.5,214.5C 266.999,213.248 265.332,212.248 263.5,211.5C 264.363,210.274 264.363,208.94 263.5,207.5 Z"/></g>
<g><path style="opacity:1" fill="#094d97" d="M 292.5,211.5 C 293.5,212.833 294.5,214.167 295.5,215.5C 298.276,222.269 300.276,229.269 301.5,236.5C 300.167,238.167 298.833,239.833 297.5,241.5C 296.712,238.113 295.712,234.78 294.5,231.5C 294.459,227.384 293.793,223.384 292.5,219.5C 292.5,216.833 292.5,214.167 292.5,211.5 Z"/></g>
<g><path style="opacity:1" fill="#22498b" d="M 332.5,201.5 C 332.99,204.655 333.656,207.655 334.5,210.5C 334.287,217.211 334.62,223.877 335.5,230.5C 335.923,232.781 335.256,234.448 333.5,235.5C 332.983,226.313 332.316,217.146 331.5,208C 331.645,207.228 331.978,206.561 332.5,206C 330.846,205.392 329.179,204.892 327.5,204.5C 327.258,199.492 328.925,198.492 332.5,201.5 Z"/></g>
<g><path style="opacity:1" fill="#27478e" d="M 171.5,204.5 C 169.692,204.491 168.025,204.991 166.5,206C 166.957,206.414 167.291,206.914 167.5,207.5C 166.81,216.989 165.81,226.323 164.5,235.5C 163.539,233.735 163.205,231.735 163.5,229.5C 164.276,222.863 164.609,216.196 164.5,209.5C 165.468,207.393 165.802,205.059 165.5,202.5C 169.095,198.143 171.095,198.809 171.5,204.5 Z"/></g>
<g><path style="opacity:1" fill="#939d27" d="M 188.5,227.5 C 187.167,226.833 186.167,225.833 185.5,224.5C 185.225,219.78 186.059,219.446 188,223.5C 190.067,220.93 192.567,218.93 195.5,217.5C 196.799,219.307 196.632,220.973 195,222.5C 192.681,220.008 191.847,220.342 192.5,223.5C 191.302,223.94 190.135,224.273 189,224.5C 188.517,225.448 188.351,226.448 188.5,227.5 Z"/></g>
<g><path style="opacity:1" fill="#7a6036" d="M 290.5,217.5 C 291.167,218.167 291.833,218.833 292.5,219.5C 293.793,223.384 294.459,227.384 294.5,231.5C 292.877,227.022 291.544,222.355 290.5,217.5 Z"/></g>
<g><path style="opacity:1" fill="#f2f5f6" d="M 287.5,226.5 C 289.246,230.889 290.246,235.556 290.5,240.5C 285.28,239.903 280.113,240.57 275,242.5C 270.332,242.107 265.832,241.107 261.5,239.5C 253.807,241.679 246.141,241.679 238.5,239.5C 236.471,239.67 234.471,240.004 232.5,240.5C 228.976,239.758 225.81,238.424 223,236.5C 218.105,237.679 213.271,237.679 208.5,236.5C 208.898,232.239 209.898,228.239 211.5,224.5C 217.176,224.666 222.843,224.499 228.5,224C 229.381,222.529 230.714,221.696 232.5,221.5C 250.327,227.511 268.661,229.178 287.5,226.5 Z"/></g>
<g><path style="opacity:1" fill="#c6ebf9" d="M 241.5,215.5 C 242.313,216.653 243.313,216.653 244.5,215.5C 245.142,218.797 246.309,219.131 248,216.5C 249,220.5 250,220.5 251,216.5C 253.035,218.912 254.035,218.245 254,214.5C 254.383,215.056 254.883,215.389 255.5,215.5C 255.56,216.043 255.893,216.376 256.5,216.5C 257.949,215.383 259.616,214.716 261.5,214.5C 270.37,216.122 278.703,219.122 286.5,223.5C 287.11,224.391 287.443,225.391 287.5,226.5C 268.661,229.178 250.327,227.511 232.5,221.5C 230.714,221.696 229.381,222.529 228.5,224C 222.843,224.499 217.176,224.666 211.5,224.5C 211.5,224.167 211.5,223.833 211.5,223.5C 216.616,219.953 222.283,217.453 228.5,216C 232.944,214.439 237.277,214.272 241.5,215.5 Z"/></g>
<g><path style="opacity:1" fill="#1b7437" d="M 313.5,221.5 C 313.557,222.609 313.89,223.609 314.5,224.5C 312.5,226.167 310.5,227.833 308.5,229.5C 306.847,226.193 305.18,222.86 303.5,219.5C 304.167,219.167 304.833,218.833 305.5,218.5C 304.071,216.669 303.571,214.669 304,212.5C 305.528,215.417 306.861,218.417 308,221.5C 305.786,210.426 306.453,210.093 310,220.5C 310.977,218.26 311.477,215.927 311.5,213.5C 310.325,213.719 309.325,213.386 308.5,212.5C 307.158,208.805 305.825,205.138 304.5,201.5C 305.097,201.265 305.43,200.765 305.5,200C 304.588,197.683 303.588,195.516 302.5,193.5C 301.986,191.488 301.82,189.488 302,187.5C 304.551,191.935 306.551,196.601 308,201.5C 308.061,195.302 306.894,189.302 304.5,183.5C 304.846,182.304 305.346,182.304 306,183.5C 309.936,195.885 312.436,208.552 313.5,221.5 Z"/></g>
<g><path style="opacity:1" fill="#8b7348" d="M 209.5,213.5 C 203.576,230.027 201.909,247.027 204.5,264.5C 203.732,263.737 203.232,262.737 203,261.5C 202.5,254.842 202.334,248.175 202.5,241.5C 202.555,233.283 203.888,225.283 206.5,217.5C 207.5,216.167 208.5,214.833 209.5,213.5 Z"/></g>
<g><path style="opacity:1" fill="#7f743e" d="M 291.5,257.5 C 291.167,257.5 290.833,257.5 290.5,257.5C 290.5,256.167 290.5,254.833 290.5,253.5C 284.642,253.822 278.975,253.489 273.5,252.5C 279.167,252.5 284.833,252.5 290.5,252.5C 290.5,248.5 290.5,244.5 290.5,240.5C 290.246,235.556 289.246,230.889 287.5,226.5C 287.443,225.391 287.11,224.391 286.5,223.5C 285.398,219.292 283.731,215.292 281.5,211.5C 281.846,210.304 282.346,210.304 283,211.5C 290.647,225.903 293.48,241.237 291.5,257.5 Z"/></g>
<g><path style="opacity:1" fill="#194d9a" d="M 185.5,224.5 C 186.167,225.833 187.167,226.833 188.5,227.5C 190.529,229.858 192.529,232.192 194.5,234.5C 194.159,250.2 194.659,265.866 196,281.5C 198.275,291.392 203.108,299.725 210.5,306.5C 205.521,304.384 201.521,305.55 198.5,310C 202.822,311.716 204.489,314.55 203.5,318.5C 199.914,316.42 196.747,313.754 194,310.5C 188.114,300.672 184.947,290.005 184.5,278.5C 184.17,260.326 184.503,242.326 185.5,224.5 Z"/></g>
<g><path style="opacity:1" fill="#0f4e9b" d="M 314.5,224.5 C 314.5,242.833 314.5,261.167 314.5,279.5C 313.405,288.88 310.905,297.88 307,306.5C 303.889,312.779 299.055,317.113 292.5,319.5C 288.936,320.423 285.269,320.756 281.5,320.5C 281.632,317.43 281.299,314.43 280.5,311.5C 290.347,306.147 297.181,298.147 301,287.5C 303.985,269.973 305.152,252.307 304.5,234.5C 305.833,232.833 307.167,231.167 308.5,229.5C 310.5,227.833 312.5,226.167 314.5,224.5 Z"/></g>
<g><path style="opacity:1" fill="#cab80f" d="M 196.5,227.5 C 196.5,230.167 196.5,232.833 196.5,235.5C 195.833,235.5 195.5,235.167 195.5,234.5C 195.528,232.418 194.861,230.584 193.5,229C 194.244,227.961 195.244,227.461 196.5,227.5 Z"/></g>
<g><path style="opacity:1" fill="#078b45" d="M 293.5,201.5 C 294.343,204.516 295.843,207.183 298,209.5C 297.843,207.169 297.343,204.836 296.5,202.5C 296.369,201.761 296.536,201.094 297,200.5C 298.586,202.67 299.92,205.004 301,207.5C 301.195,205.793 301.195,204.126 301,202.5C 302.711,204.956 304.044,207.623 305,210.5C 305.053,207.798 304.553,205.131 303.5,202.5C 303.543,201.584 303.876,200.917 304.5,200.5C 304.5,200.833 304.5,201.167 304.5,201.5C 305.825,205.138 307.158,208.805 308.5,212.5C 309.325,213.386 310.325,213.719 311.5,213.5C 311.477,215.927 310.977,218.26 310,220.5C 306.453,210.093 305.786,210.426 308,221.5C 306.861,218.417 305.528,215.417 304,212.5C 303.571,214.669 304.071,216.669 305.5,218.5C 304.833,218.833 304.167,219.167 303.5,219.5C 305.18,222.86 306.847,226.193 308.5,229.5C 307.167,231.167 305.833,232.833 304.5,234.5C 303.5,235.167 302.5,235.833 301.5,236.5C 300.276,229.269 298.276,222.269 295.5,215.5C 296.007,212.14 295.007,209.14 292.5,206.5C 292.672,205.508 292.338,204.842 291.5,204.5C 288.938,199.377 286.438,194.377 284,189.5C 286.945,193.751 290.112,197.751 293.5,201.5 Z"/></g>
<g><path style="opacity:1" fill="#0d4684" d="M 293.5,201.5 C 293.833,201.5 294.167,201.5 294.5,201.5C 295.167,201.833 295.833,202.167 296.5,202.5C 297.343,204.836 297.843,207.169 298,209.5C 295.843,207.183 294.343,204.516 293.5,201.5 Z"/></g>
<g><path style="opacity:1" fill="#d53025" d="M 327.5,204.5 C 329.179,204.892 330.846,205.392 332.5,206C 331.978,206.561 331.645,207.228 331.5,208C 332.316,217.146 332.983,226.313 333.5,235.5C 333.719,236.675 333.386,237.675 332.5,238.5C 331.832,236.031 331.165,233.698 330.5,231.5C 329.917,224.179 329.417,216.846 329,209.5C 327.647,208.315 326.48,206.981 325.5,205.5C 325.957,204.702 326.624,204.369 327.5,204.5 Z"/></g>
<g><path style="opacity:1" fill="#e72126" d="M 194.5,234.5 C 194.833,234.5 195.167,234.5 195.5,234.5C 195.5,235.167 195.833,235.5 196.5,235.5C 197.5,238.5 199.5,240.5 202.5,241.5C 202.334,248.175 202.5,254.842 203,261.5C 203.232,262.737 203.732,263.737 204.5,264.5C 204.5,264.833 204.5,265.167 204.5,265.5C 206.181,276.188 210.514,285.521 217.5,293.5C 220.223,298.556 224.223,302.223 229.5,304.5C 231.985,306.913 234.985,308.58 238.5,309.5C 239.298,309.957 239.631,310.624 239.5,311.5C 234.833,311.5 230.167,311.5 225.5,311.5C 222.833,311.5 220.167,311.5 217.5,311.5C 216.167,310.833 214.833,310.167 213.5,309.5C 212.833,308.167 211.833,307.167 210.5,306.5C 203.108,299.725 198.275,291.392 196,281.5C 194.659,265.866 194.159,250.2 194.5,234.5 Z"/></g>
<g><path style="opacity:1" fill="#e62126" d="M 304.5,234.5 C 305.152,252.307 303.985,269.973 301,287.5C 297.181,298.147 290.347,306.147 280.5,311.5C 273.833,311.5 267.167,311.5 260.5,311.5C 259.833,311.5 259.167,311.5 258.5,311.5C 258.5,311.167 258.5,310.833 258.5,310.5C 258.5,310.167 258.5,309.833 258.5,309.5C 269.491,306.491 277.824,300.157 283.5,290.5C 285.522,286.84 287.688,283.173 290,279.5C 291.823,273.548 293.323,267.548 294.5,261.5C 294.5,261.167 294.5,260.833 294.5,260.5C 295.883,254.317 296.883,247.984 297.5,241.5C 298.833,239.833 300.167,238.167 301.5,236.5C 302.5,235.833 303.5,235.167 304.5,234.5 Z"/></g>
<g><path style="opacity:1" fill="#c4aa0f" d="M 322.5,194.5 C 323.433,197.642 324.099,200.976 324.5,204.5C 322.311,207.89 321.478,211.557 322,215.5C 323.333,214.167 324.667,212.833 326,211.5C 326.167,211.833 326.333,212.167 326.5,212.5C 323.009,216.125 319.509,219.791 316,223.5C 315.832,242.338 315.332,261.004 314.5,279.5C 314.5,261.167 314.5,242.833 314.5,224.5C 313.89,223.609 313.557,222.609 313.5,221.5C 314.117,221.611 314.617,221.944 315,222.5C 319.943,218.487 320.776,213.654 317.5,208C 318.077,205.863 318.41,203.696 318.5,201.5C 320.048,201.179 320.715,200.179 320.5,198.5C 322.176,197.817 322.843,196.483 322.5,194.5 Z"/></g>
<g><path style="opacity:1" fill="#907855" d="M 294.5,231.5 C 295.712,234.78 296.712,238.113 297.5,241.5C 296.883,247.984 295.883,254.317 294.5,260.5C 294.5,250.833 294.5,241.167 294.5,231.5 Z"/></g>
<g><path style="opacity:1" fill="#abb4b8" d="M 229.5,196.5 C 225.167,198.833 221.833,202.167 219.5,206.5C 219.573,208.027 218.906,209.027 217.5,209.5C 214.46,212.914 212.46,216.914 211.5,221.5C 208.938,226.061 207.438,231.061 207,236.5C 206.179,243.679 206.345,250.679 207.5,257.5C 207.5,259.5 207.5,261.5 207.5,263.5C 207.496,267.25 206.496,267.917 204.5,265.5C 204.5,265.167 204.5,264.833 204.5,264.5C 201.909,247.027 203.576,230.027 209.5,213.5C 214.189,205.304 220.189,198.138 227.5,192C 228.448,191.517 229.448,191.351 230.5,191.5C 230.634,193.292 230.301,194.958 229.5,196.5 Z"/></g>
<g><path style="opacity:1" fill="#ad8f1d" d="M 163.5,229.5 C 163.205,231.735 163.539,233.735 164.5,235.5C 164.821,237.048 165.821,237.715 167.5,237.5C 168.265,240.096 168.599,242.763 168.5,245.5C 164.76,246.32 162.427,244.987 161.5,241.5C 161.956,237.322 162.623,233.322 163.5,229.5 Z"/></g>
<g><path style="opacity:1" fill="#c39e17" d="M 335.5,230.5 C 336.521,234.98 337.187,239.647 337.5,244.5C 336.5,244.5 335.5,244.5 334.5,244.5C 334.5,245.5 334.5,246.5 334.5,247.5C 332.833,247.5 331.167,247.5 329.5,247.5C 330.194,242.195 330.528,236.862 330.5,231.5C 331.165,233.698 331.832,236.031 332.5,238.5C 333.386,237.675 333.719,236.675 333.5,235.5C 335.256,234.448 335.923,232.781 335.5,230.5 Z"/></g>
<g><path style="opacity:1" fill="#896f3c" d="M 211.5,221.5 C 211.5,222.167 211.5,222.833 211.5,223.5C 211.5,223.833 211.5,224.167 211.5,224.5C 209.898,228.239 208.898,232.239 208.5,236.5C 207.771,241.13 207.437,245.797 207.5,250.5C 207.5,252.833 207.5,255.167 207.5,257.5C 206.345,250.679 206.179,243.679 207,236.5C 207.438,231.061 208.938,226.061 211.5,221.5 Z"/></g>
<g><path style="opacity:1" fill="#556f74" d="M 208.5,236.5 C 213.271,237.679 218.105,237.679 223,236.5C 225.81,238.424 228.976,239.758 232.5,240.5C 234.471,240.004 236.471,239.67 238.5,239.5C 246.141,241.679 253.807,241.679 261.5,239.5C 265.832,241.107 270.332,242.107 275,242.5C 280.113,240.57 285.28,239.903 290.5,240.5C 290.5,244.5 290.5,248.5 290.5,252.5C 284.833,252.5 279.167,252.5 273.5,252.5C 262.136,252.257 250.802,252.59 239.5,253.5C 235.167,253.5 230.833,253.5 226.5,253.5C 220.301,251.911 213.968,250.911 207.5,250.5C 207.437,245.797 207.771,241.13 208.5,236.5 Z"/></g>
<g><path style="opacity:1" fill="#155690" d="M 499.5,249.5 C 499.5,249.833 499.5,250.167 499.5,250.5C 444.167,250.5 388.833,250.5 333.5,250.5C 333.829,265.676 333.496,280.676 332.5,295.5C 332.5,280.167 332.5,264.833 332.5,249.5C 388.167,249.5 443.833,249.5 499.5,249.5 Z"/></g>
<g><path style="opacity:0.996" fill="#064f9e" d="M -0.5,249.5 C 54.8333,249.5 110.167,249.5 165.5,249.5C 165.333,265.503 165.5,281.503 166,297.5C 166.859,305.573 169.026,313.239 172.5,320.5C 171.118,323.394 169.118,325.894 166.5,328C 163.636,330.206 160.803,332.372 158,334.5C 155.344,338.83 156.177,339.997 160.5,338C 164.982,333.352 169.649,328.852 174.5,324.5C 180.612,332.906 188.945,336.906 199.5,336.5C 191.616,344.548 183.949,352.715 176.5,361C 178.256,361.14 179.922,360.64 181.5,359.5C 189.126,351.539 196.792,343.539 204.5,335.5C 208.211,334.656 211.877,333.656 215.5,332.5C 218.655,332.99 221.655,333.656 224.5,334.5C 221.761,338.304 219.261,342.304 217,346.5C 216.333,348.5 216.333,350.5 217,352.5C 221.475,352.983 225.975,353.316 230.5,353.5C 229.456,355.768 229.289,358.101 230,360.5C 231.667,358.167 233.333,355.833 235,353.5C 236.609,346.838 238.109,340.171 239.5,333.5C 241.167,333.5 242.833,333.5 244.5,333.5C 243.995,344.898 242.828,356.232 241,367.5C 238.572,369.205 238.072,371.205 239.5,373.5C 170.669,374.499 101.669,374.833 32.5,374.5C 14.4864,343.126 3.4864,309.459 -0.5,273.5C -0.5,265.5 -0.5,257.5 -0.5,249.5 Z"/></g>
<g><path style="opacity:0.996" fill="#054f9e" d="M 499.5,250.5 C 499.5,258.5 499.5,266.5 499.5,274.5C 495.581,310.178 484.581,343.512 466.5,374.5C 396.665,374.833 326.998,374.499 257.5,373.5C 258.598,372.399 258.765,371.066 258,369.5C 256.615,368.449 255.615,367.116 255,365.5C 253.762,356.197 252.929,346.863 252.5,337.5C 252.5,336.167 252.5,334.833 252.5,333.5C 253.833,333.5 255.167,333.5 256.5,333.5C 256.5,334.167 256.833,334.5 257.5,334.5C 258.681,341.227 260.181,347.894 262,354.5C 263.667,356.5 265.333,358.5 267,360.5C 267.175,357.843 267.008,355.176 266.5,352.5C 268.972,352.942 271.472,353.275 274,353.5C 278.76,354.074 280.76,352.074 280,347.5C 277.672,343.02 275.172,338.687 272.5,334.5C 274.833,333.833 277.167,333.167 279.5,332.5C 280.167,332.167 280.833,331.833 281.5,331.5C 285.285,333.428 289.285,334.762 293.5,335.5C 300.2,343.367 307.7,350.367 316,356.5C 316.333,359.5 318,361.167 321,361.5C 321.122,359.831 320.788,358.165 320,356.5C 312.669,350.002 305.503,343.336 298.5,336.5C 309.088,337.039 317.421,333.039 323.5,324.5C 328.971,328.137 333.638,332.637 337.5,338C 339.165,338.788 340.831,339.122 342.5,339C 336.993,332.992 331.66,326.826 326.5,320.5C 329.733,312.467 331.733,304.133 332.5,295.5C 333.496,280.676 333.829,265.676 333.5,250.5C 388.833,250.5 444.167,250.5 499.5,250.5 Z"/></g>
<g><path style="opacity:1" fill="#6bb743" d="M 207.5,250.5 C 213.968,250.911 220.301,251.911 226.5,253.5C 226.918,254.222 227.584,254.722 228.5,255C 227.549,255.718 227.383,256.551 228,257.5C 229.896,259.53 232.063,261.197 234.5,262.5C 231.442,264.141 228.108,264.974 224.5,265C 227.525,265.133 230.192,266.133 232.5,268C 228.005,268.636 223.672,269.636 219.5,271C 223.948,271.109 227.948,272.443 231.5,275C 225.979,276.964 220.312,278.464 214.5,279.5C 212.346,274.871 210.679,270.038 209.5,265C 209.164,263.97 208.497,263.47 207.5,263.5C 207.5,261.5 207.5,259.5 207.5,257.5C 207.5,255.167 207.5,252.833 207.5,250.5 Z"/></g>
<g><path style="opacity:1" fill="#6bb943" d="M 273.5,252.5 C 278.975,253.489 284.642,253.822 290.5,253.5C 290.5,254.833 290.5,256.167 290.5,257.5C 289.908,260.127 289.575,262.794 289.5,265.5C 287.568,269.195 286.235,273.195 285.5,277.5C 284.833,277.5 284.5,277.833 284.5,278.5C 277.768,276.985 271.101,275.152 264.5,273C 263.289,272.107 263.289,271.274 264.5,270.5C 266.776,269.787 269.109,269.287 271.5,269C 262.852,269.277 254.519,267.944 246.5,265C 249.167,264.333 251.833,263.667 254.5,263C 245.542,262.823 237.542,260.157 230.5,255C 233.695,254.819 236.695,254.319 239.5,253.5C 250.802,252.59 262.136,252.257 273.5,252.5 Z"/></g>
<g><path style="opacity:1" fill="#13693d" d="M 226.5,253.5 C 230.833,253.5 235.167,253.5 239.5,253.5C 236.695,254.319 233.695,254.819 230.5,255C 237.542,260.157 245.542,262.823 254.5,263C 251.833,263.667 249.167,264.333 246.5,265C 254.519,267.944 262.852,269.277 271.5,269C 269.109,269.287 266.776,269.787 264.5,270.5C 263.289,271.274 263.289,272.107 264.5,273C 271.101,275.152 277.768,276.985 284.5,278.5C 279.59,288.405 272.59,296.405 263.5,302.5C 260.627,302.802 257.961,303.469 255.5,304.5C 251.167,304.5 246.833,304.5 242.5,304.5C 238.816,303.504 235.149,302.171 231.5,300.5C 229.973,300.573 228.973,299.906 228.5,298.5C 225.833,295.167 222.833,292.167 219.5,289.5C 219.238,287.436 218.071,286.103 216,285.5C 214.872,283.655 214.372,281.655 214.5,279.5C 220.312,278.464 225.979,276.964 231.5,275C 227.948,272.443 223.948,271.109 219.5,271C 223.672,269.636 228.005,268.636 232.5,268C 230.192,266.133 227.525,265.133 224.5,265C 228.108,264.974 231.442,264.141 234.5,262.5C 232.063,261.197 229.896,259.53 228,257.5C 227.383,256.551 227.549,255.718 228.5,255C 227.584,254.722 226.918,254.222 226.5,253.5 Z"/></g>
<g><path style="opacity:1" fill="#a39782" d="M 207.5,263.5 C 208.497,263.47 209.164,263.97 209.5,265C 210.679,270.038 212.346,274.871 214.5,279.5C 214.372,281.655 214.872,283.655 216,285.5C 218.071,286.103 219.238,287.436 219.5,289.5C 218.142,288.374 216.808,288.374 215.5,289.5C 216.63,290.622 217.297,291.956 217.5,293.5C 210.514,285.521 206.181,276.188 204.5,265.5C 206.496,267.917 207.496,267.25 207.5,263.5 Z"/></g>
<g><path style="opacity:1" fill="#7c7429" d="M 289.5,265.5 C 289.074,269.902 287.74,273.902 285.5,277.5C 286.235,273.195 287.568,269.195 289.5,265.5 Z"/></g>
<g><path style="opacity:1" fill="#8ca898" d="M 242.5,270.5 C 244.477,271.149 246.31,271.149 248,270.5C 248.5,270.833 249,271.167 249.5,271.5C 248.624,272.251 247.624,272.751 246.5,273C 246.833,273.333 247.167,273.667 247.5,274C 250.553,274.179 253.553,274.679 256.5,275.5C 252.489,276.227 248.489,276.893 244.5,277.5C 243.686,279.766 243.186,282.1 243,284.5C 241.738,280.091 242.572,276.257 245.5,273C 243.881,272.764 242.881,271.931 242.5,270.5 Z"/></g>
<g><path style="opacity:1" fill="#d3c31e" d="M 267.5,286.5 C 255.167,286.5 242.833,286.5 230.5,286.5C 227.8,285.058 228.134,284.392 231.5,284.5C 239.053,285.802 246.553,285.468 254,283.5C 258.911,283.635 263.744,284.301 268.5,285.5C 268.376,286.107 268.043,286.44 267.5,286.5 Z"/></g>
<g><path style="opacity:1" fill="#416b7c" d="M 230.5,286.5 C 242.833,286.5 255.167,286.5 267.5,286.5C 267.5,286.833 267.5,287.167 267.5,287.5C 255.322,287.172 243.322,287.505 231.5,288.5C 230.662,288.158 230.328,287.492 230.5,286.5 Z"/></g>
<g><path style="opacity:1" fill="#a59e90" d="M 290.5,257.5 C 290.833,257.5 291.167,257.5 291.5,257.5C 291.201,259.604 291.534,261.604 292.5,263.5C 293.182,262.757 293.849,262.091 294.5,261.5C 293.323,267.548 291.823,273.548 290,279.5C 287.688,283.173 285.522,286.84 283.5,290.5C 279.696,295.136 275.362,299.303 270.5,303C 267.28,304.777 263.947,306.277 260.5,307.5C 259.068,307.267 258.568,306.6 259,305.5C 260.652,304.601 262.152,303.601 263.5,302.5C 272.59,296.405 279.59,288.405 284.5,278.5C 284.5,277.833 284.833,277.5 285.5,277.5C 287.74,273.902 289.074,269.902 289.5,265.5C 289.575,262.794 289.908,260.127 290.5,257.5 Z"/></g>
<g><path style="opacity:1" fill="#89483e" d="M 231.5,288.5 C 243.322,287.505 255.322,287.172 267.5,287.5C 255.627,289.413 243.627,289.746 231.5,288.5 Z"/></g>
<g><path style="opacity:1" fill="#90733c" d="M 219.5,289.5 C 222.833,292.167 225.833,295.167 228.5,298.5C 224.5,296.5 221.5,293.5 219.5,289.5 Z"/></g>
<g><path style="opacity:1" fill="#976626" d="M 217.5,293.5 C 221.526,297.195 225.526,300.862 229.5,304.5C 224.223,302.223 220.223,298.556 217.5,293.5 Z"/></g>
<g><path style="opacity:1" fill="#a7afb4" d="M 219.5,289.5 C 221.5,293.5 224.5,296.5 228.5,298.5C 228.973,299.906 229.973,300.573 231.5,300.5C 234.135,302.823 237.135,304.656 240.5,306C 239.737,306.944 238.737,307.444 237.5,307.5C 234.817,306.49 232.151,305.49 229.5,304.5C 225.526,300.862 221.526,297.195 217.5,293.5C 217.297,291.956 216.63,290.622 215.5,289.5C 216.808,288.374 218.142,288.374 219.5,289.5 Z"/></g>
<g><path style="opacity:1" fill="#b88628" d="M 242.5,304.5 C 246.833,304.5 251.167,304.5 255.5,304.5C 257.765,304.441 258.098,305.274 256.5,307C 256.639,308.301 257.305,309.134 258.5,309.5C 258.5,309.833 258.5,310.167 258.5,310.5C 257.711,310.783 257.044,311.283 256.5,312C 257.314,318.753 257.814,325.586 258,332.5C 259.942,328.931 262.108,325.598 264.5,322.5C 262.5,318.833 260.5,315.167 258.5,311.5C 259.167,311.5 259.833,311.5 260.5,311.5C 264.753,318.337 268.753,325.337 272.5,332.5C 271.833,332.5 271.5,332.833 271.5,333.5C 266.637,333.181 261.97,333.514 257.5,334.5C 256.833,334.5 256.5,334.167 256.5,333.5C 254.652,329.146 253.985,324.48 254.5,319.5C 252.459,319.146 250.626,319.146 249,319.5C 247.71,317.208 246.043,315.208 244,313.5C 243.506,315.134 243.34,316.801 243.5,318.5C 248.682,318.557 248.682,319.224 243.5,320.5C 256.769,322.146 256.769,323.146 243.5,323.5C 243.5,326.5 243.5,329.5 243.5,332.5C 242.5,332.5 241.5,332.5 240.5,332.5C 239.895,325.382 240.562,318.548 242.5,312C 241.572,311.612 240.905,310.945 240.5,310C 241.32,308.2 241.986,306.366 242.5,304.5 Z"/></g>
<g><path style="opacity:1" fill="#966e2c" d="M 283.5,290.5 C 277.824,300.157 269.491,306.491 258.5,309.5C 257.305,309.134 256.639,308.301 256.5,307C 258.098,305.274 257.765,304.441 255.5,304.5C 257.961,303.469 260.627,302.802 263.5,302.5C 262.152,303.601 260.652,304.601 259,305.5C 258.568,306.6 259.068,307.267 260.5,307.5C 263.947,306.277 267.28,304.777 270.5,303C 275.362,299.303 279.696,295.136 283.5,290.5 Z"/></g>
<g><path style="opacity:1" fill="#104c97" d="M 213.5,309.5 C 214.833,310.167 216.167,310.833 217.5,311.5C 216.85,313.435 216.517,315.435 216.5,317.5C 215.596,318.209 215.263,319.209 215.5,320.5C 211.802,321.32 209.469,319.987 208.5,316.5C 209.44,313.611 211.106,311.278 213.5,309.5 Z"/></g>
<g><path style="opacity:1" fill="#aa7426" d="M 225.5,311.5 C 230.167,311.5 234.833,311.5 239.5,311.5C 234.957,317.909 230.957,324.743 227.5,332C 230.833,332.667 234.167,332.667 237.5,332C 235.298,329.118 234.131,325.951 234,322.5C 236.546,325.86 238.379,329.526 239.5,333.5C 234.833,333.5 230.167,333.5 225.5,333.5C 225.383,331.516 226.05,329.85 227.5,328.5C 226.311,327.571 224.978,327.238 223.5,327.5C 223.5,329.167 223.5,330.833 223.5,332.5C 222.5,332.5 221.5,332.5 220.5,332.5C 220.5,325.833 220.5,319.167 220.5,312.5C 221.5,312.5 222.5,312.5 223.5,312.5C 223.5,314.5 223.5,316.5 223.5,318.5C 225.527,318.662 227.527,318.495 229.5,318C 227.915,315.931 226.581,313.764 225.5,311.5 Z"/></g>
<g><path style="opacity:1" fill="#935d24" d="M 231.5,300.5 C 235.149,302.171 238.816,303.504 242.5,304.5C 241.986,306.366 241.32,308.2 240.5,310C 240.905,310.945 241.572,311.612 242.5,312C 240.562,318.548 239.895,325.382 240.5,332.5C 241.5,332.5 242.5,332.5 243.5,332.5C 243.5,329.5 243.5,326.5 243.5,323.5C 256.769,323.146 256.769,322.146 243.5,320.5C 248.682,319.224 248.682,318.557 243.5,318.5C 243.34,316.801 243.506,315.134 244,313.5C 246.043,315.208 247.71,317.208 249,319.5C 250.626,319.146 252.459,319.146 254.5,319.5C 253.985,324.48 254.652,329.146 256.5,333.5C 255.167,333.5 253.833,333.5 252.5,333.5C 252.5,334.833 252.5,336.167 252.5,337.5C 251.549,336.081 251.216,334.415 251.5,332.5C 248.941,332.198 246.607,332.532 244.5,333.5C 242.833,333.5 241.167,333.5 239.5,333.5C 238.379,329.526 236.546,325.86 234,322.5C 234.131,325.951 235.298,329.118 237.5,332C 234.167,332.667 230.833,332.667 227.5,332C 230.957,324.743 234.957,317.909 239.5,311.5C 239.631,310.624 239.298,309.957 238.5,309.5C 234.985,308.58 231.985,306.913 229.5,304.5C 232.151,305.49 234.817,306.49 237.5,307.5C 238.737,307.444 239.737,306.944 240.5,306C 237.135,304.656 234.135,302.823 231.5,300.5 Z"/></g>
<g><path style="opacity:1" fill="#945d21" d="M 258.5,310.5 C 258.5,310.833 258.5,311.167 258.5,311.5C 260.5,315.167 262.5,318.833 264.5,322.5C 262.108,325.598 259.942,328.931 258,332.5C 257.814,325.586 257.314,318.753 256.5,312C 257.044,311.283 257.711,310.783 258.5,310.5 Z"/></g>
<g><path style="opacity:1" fill="#9f6724" d="M 260.5,311.5 C 267.167,311.5 273.833,311.5 280.5,311.5C 281.299,314.43 281.632,317.43 281.5,320.5C 281.232,322.099 281.566,323.432 282.5,324.5C 281.631,326.717 281.298,329.05 281.5,331.5C 280.833,331.833 280.167,332.167 279.5,332.5C 277.167,332.5 274.833,332.5 272.5,332.5C 268.753,325.337 264.753,318.337 260.5,311.5 Z"/></g>
<g><path style="opacity:1" fill="#9ca2a5" d="M 210.5,306.5 C 211.833,307.167 212.833,308.167 213.5,309.5C 211.106,311.278 209.44,313.611 208.5,316.5C 209.469,319.987 211.802,321.32 215.5,320.5C 215.263,319.209 215.596,318.209 216.5,317.5C 216.5,319.833 216.5,322.167 216.5,324.5C 214.265,324.205 212.265,324.539 210.5,325.5C 207.111,330.898 204.611,330.231 203,323.5C 199.097,325.73 195.263,325.397 191.5,322.5C 195.057,319.342 198.724,319.009 202.5,321.5C 203.386,320.675 203.719,319.675 203.5,318.5C 204.489,314.55 202.822,311.716 198.5,310C 201.521,305.55 205.521,304.384 210.5,306.5 Z"/></g>
<g><path style="opacity:1" fill="#9ea4a6" d="M 292.5,319.5 C 294.607,320.468 296.941,320.802 299.5,320.5C 299.5,321.833 299.5,323.167 299.5,324.5C 293.833,324.5 288.167,324.5 282.5,324.5C 281.566,323.432 281.232,322.099 281.5,320.5C 285.269,320.756 288.936,320.423 292.5,319.5 Z"/></g>
<g><path style="opacity:1" fill="#935d23" d="M 217.5,311.5 C 220.167,311.5 222.833,311.5 225.5,311.5C 226.581,313.764 227.915,315.931 229.5,318C 227.527,318.495 225.527,318.662 223.5,318.5C 223.5,316.5 223.5,314.5 223.5,312.5C 222.5,312.5 221.5,312.5 220.5,312.5C 220.5,319.167 220.5,325.833 220.5,332.5C 221.5,332.5 222.5,332.5 223.5,332.5C 223.5,330.833 223.5,329.167 223.5,327.5C 224.978,327.238 226.311,327.571 227.5,328.5C 226.05,329.85 225.383,331.516 225.5,333.5C 225.5,334.167 225.167,334.5 224.5,334.5C 221.655,333.656 218.655,332.99 215.5,332.5C 216.438,330.244 216.438,327.91 215.5,325.5C 213.833,325.5 212.167,325.5 210.5,325.5C 212.265,324.539 214.265,324.205 216.5,324.5C 216.5,322.167 216.5,319.833 216.5,317.5C 216.517,315.435 216.85,313.435 217.5,311.5 Z"/></g>
<g><path style="opacity:1" fill="#925522" d="M 264.5,322.5 C 266.85,325.349 268.85,328.515 270.5,332C 267.167,332.667 263.833,332.667 260.5,332C 262.533,329.104 263.866,325.937 264.5,322.5 Z"/></g>
<g><path style="opacity:1" fill="#949da4" d="M 172.5,320.5 C 173.674,321.514 174.34,322.847 174.5,324.5C 169.649,328.852 164.982,333.352 160.5,338C 156.177,339.997 155.344,338.83 158,334.5C 160.803,332.372 163.636,330.206 166.5,328C 169.118,325.894 171.118,323.394 172.5,320.5 Z"/></g>
<g><path style="opacity:1" fill="#9ea5a9" d="M 326.5,320.5 C 331.66,326.826 336.993,332.992 342.5,339C 340.831,339.122 339.165,338.788 337.5,338C 333.638,332.637 328.971,328.137 323.5,324.5C 324.512,323.128 325.512,321.795 326.5,320.5 Z"/></g>
<g><path style="opacity:1" fill="#45494a" d="M 272.5,332.5 C 274.833,332.5 277.167,332.5 279.5,332.5C 277.167,333.167 274.833,333.833 272.5,334.5C 271.833,334.5 271.5,334.167 271.5,333.5C 271.5,332.833 271.833,332.5 272.5,332.5 Z"/></g>
<g><path style="opacity:1" fill="#f4d509" d="M 225.5,333.5 C 230.167,333.5 234.833,333.5 239.5,333.5C 238.109,340.171 236.609,346.838 235,353.5C 233.333,355.833 231.667,358.167 230,360.5C 229.289,358.101 229.456,355.768 230.5,353.5C 225.975,353.316 221.475,352.983 217,352.5C 216.333,350.5 216.333,348.5 217,346.5C 219.261,342.304 221.761,338.304 224.5,334.5C 225.167,334.5 225.5,334.167 225.5,333.5 Z"/></g>
<g><path style="opacity:1" fill="#f2d30b" d="M 271.5,333.5 C 271.5,334.167 271.833,334.5 272.5,334.5C 275.172,338.687 277.672,343.02 280,347.5C 280.76,352.074 278.76,354.074 274,353.5C 271.472,353.275 268.972,352.942 266.5,352.5C 267.008,355.176 267.175,357.843 267,360.5C 265.333,358.5 263.667,356.5 262,354.5C 260.181,347.894 258.681,341.227 257.5,334.5C 261.97,333.514 266.637,333.181 271.5,333.5 Z"/></g>
<g><path style="opacity:1" fill="#9fa6aa" d="M 204.5,335.5 C 196.792,343.539 189.126,351.539 181.5,359.5C 179.922,360.64 178.256,361.14 176.5,361C 183.949,352.715 191.616,344.548 199.5,336.5C 201.216,336.371 202.883,336.038 204.5,335.5 Z"/></g>
<g><path style="opacity:1" fill="#e21f25" d="M 252.5,337.5 C 252.929,346.863 253.762,356.197 255,365.5C 255.615,367.116 256.615,368.449 258,369.5C 258.765,371.066 258.598,372.399 257.5,373.5C 256.167,373.5 254.833,373.5 253.5,373.5C 251.634,372.986 249.8,372.32 248,371.5C 246.2,372.32 244.366,372.986 242.5,373.5C 241.5,373.5 240.5,373.5 239.5,373.5C 238.072,371.205 238.572,369.205 241,367.5C 242.828,356.232 243.995,344.898 244.5,333.5C 246.607,332.532 248.941,332.198 251.5,332.5C 251.216,334.415 251.549,336.081 252.5,337.5 Z"/></g>
<g><path style="opacity:1" fill="#99a1a7" d="M 293.5,335.5 C 295.117,336.038 296.784,336.371 298.5,336.5C 305.503,343.336 312.669,350.002 320,356.5C 320.788,358.165 321.122,359.831 321,361.5C 318,361.167 316.333,359.5 316,356.5C 307.7,350.367 300.2,343.367 293.5,335.5 Z"/></g>
<g><path style="opacity:1" fill="#28478b" d="M 253.5,373.5 C 249.833,374.833 246.167,374.833 242.5,373.5C 244.366,372.986 246.2,372.32 248,371.5C 249.8,372.32 251.634,372.986 253.5,373.5 Z"/></g>
<g><path style="opacity:0.997" fill="#da222e" d="M 239.5,373.5 C 240.5,373.5 241.5,373.5 242.5,373.5C 246.167,374.833 249.833,374.833 253.5,373.5C 254.833,373.5 256.167,373.5 257.5,373.5C 326.998,374.499 396.665,374.833 466.5,374.5C 466.5,374.833 466.5,375.167 466.5,375.5C 322.167,375.5 177.833,375.5 33.5,375.5C 32.8333,375.5 32.5,375.167 32.5,374.5C 101.669,374.833 170.669,374.499 239.5,373.5 Z"/></g>
<g><path style="opacity:0.992" fill="#eb1f26" d="M 33.5,375.5 C 177.833,375.5 322.167,375.5 466.5,375.5C 422.235,447.048 358.235,488.381 274.5,499.5C 257.833,499.5 241.167,499.5 224.5,499.5C 149.145,489.749 88.9783,454.416 44,393.5C 39.8464,387.855 36.3464,381.855 33.5,375.5 Z"/></g>
</svg>
