<?xml version="1.0" encoding="UTF-8"?>
<!DOCTYPE svg PUBLIC "-//W3C//DTD SVG 1.1//EN" "http://www.w3.org/Graphics/SVG/1.1/DTD/svg11.dtd">
<svg xmlns="http://www.w3.org/2000/svg" version="1.1" width="500px" height="500px" style="shape-rendering:geometricPrecision; text-rendering:geometricPrecision; image-rendering:optimizeQuality; fill-rule:evenodd; clip-rule:evenodd" xmlns:xlink="http://www.w3.org/1999/xlink">
<g><path style="opacity:0.993" fill="#ce1126" d="M 225.5,-0.5 C 241.5,-0.5 257.5,-0.5 273.5,-0.5C 362.269,10.9489 428.436,55.6156 472,133.5C 477.625,144.077 482.125,155.077 485.5,166.5C 328.167,166.5 170.833,166.5 13.5,166.5C 43.991,84.513 101.324,31.3463 185.5,7C 198.832,3.72528 212.166,1.22528 225.5,-0.5 Z"/></g>
<g><path style="opacity:0.997" fill="#fefefe" d="M 13.5,166.5 C 170.833,166.5 328.167,166.5 485.5,166.5C 492.586,185.267 497.253,204.6 499.5,224.5C 499.5,241.167 499.5,257.833 499.5,274.5C 498.1,284.764 496.267,295.098 494,305.5C 492.031,314.9 489.198,323.9 485.5,332.5C 328.167,332.5 170.833,332.5 13.5,332.5C 6.28469,313.42 1.61802,293.754 -0.5,273.5C -0.5,257.5 -0.5,241.5 -0.5,225.5C 1.61802,205.246 6.28469,185.58 13.5,166.5 Z"/></g>
<g><path style="opacity:1" fill="#c8a02e" d="M 303.5,204.5 C 303.167,204.5 302.833,204.5 302.5,204.5C 301.226,200.435 298.392,198.435 294,198.5C 284.779,202.353 275.279,205.52 265.5,208C 265.833,208.333 266.167,208.667 266.5,209C 263.657,209.446 260.824,209.946 258,210.5C 256.301,210.613 255.134,209.947 254.5,208.5C 256.137,209.218 257.803,209.384 259.5,209C 258.748,208.329 258.414,207.496 258.5,206.5C 260.142,207.867 261.808,208.201 263.5,207.5C 261.837,204.344 260.67,201.011 260,197.5C 259.789,190.449 259.122,183.449 258,176.5C 254.36,174.857 251.193,175.524 248.5,178.5C 247.702,178.043 247.369,177.376 247.5,176.5C 245.315,176.296 243.315,175.63 241.5,174.5C 243.294,176.797 245.294,178.963 247.5,181C 246.207,181.49 244.873,181.657 243.5,181.5C 244.255,188.097 242.922,194.097 239.5,199.5C 241.57,193.32 242.403,186.987 242,180.5C 240.214,177.638 237.881,176.972 235,178.5C 233.142,175.694 233.642,173.194 236.5,171C 240.353,171.503 244.187,171.337 248,170.5C 252.393,170.629 256.06,172.295 259,175.5C 260.124,183.797 261.124,192.131 262,200.5C 262.45,202.519 263.283,204.352 264.5,206C 267.558,206.458 270.558,206.124 273.5,205C 278.5,202.667 283.5,200.333 288.5,198C 295.725,195.667 300.725,197.834 303.5,204.5 Z"/></g>
<g><path style="opacity:1" fill="#e9d7a2" d="M 241.5,174.5 C 239.22,174.746 237.22,174.746 235.5,174.5C 237.678,171.962 239.678,171.962 241.5,174.5 Z"/></g>
<g><path style="opacity:1" fill="#e8d49b" d="M 247.5,176.5 C 247.639,174.663 248.306,174.33 249.5,175.5C 249.043,176.298 248.376,176.631 247.5,176.5 Z"/></g>
<g><path style="opacity:1" fill="#fbf8ef" d="M 241.5,174.5 C 243.315,175.63 245.315,176.296 247.5,176.5C 247.369,177.376 247.702,178.043 248.5,178.5C 251.193,175.524 254.36,174.857 258,176.5C 259.122,183.449 259.789,190.449 260,197.5C 260.67,201.011 261.837,204.344 263.5,207.5C 261.808,208.201 260.142,207.867 258.5,206.5C 258.414,207.496 258.748,208.329 259.5,209C 257.803,209.384 256.137,209.218 254.5,208.5C 253.064,202.295 252.231,195.962 252,189.5C 251.757,196.215 251.257,202.881 250.5,209.5C 248.516,209.516 247.516,208.516 247.5,206.5C 248.991,200.567 249.491,194.567 249,188.5C 248.458,195.439 246.958,202.106 244.5,208.5C 243.504,208.414 242.671,208.748 242,209.5C 241.833,209 241.667,208.5 241.5,208C 244.817,202.232 246.317,196.065 246,189.5C 244.953,195.019 243.286,200.353 241,205.5C 239.428,207.563 237.595,208.229 235.5,207.5C 237.038,205.757 238.038,203.757 238.5,201.5C 238.328,200.508 238.662,199.842 239.5,199.5C 242.922,194.097 244.255,188.097 243.5,181.5C 244.873,181.657 246.207,181.49 247.5,181C 245.294,178.963 243.294,176.797 241.5,174.5 Z"/></g>
<g><path style="opacity:1" fill="#ceaa3c" d="M 254.5,208.5 C 253.041,208.433 251.708,208.766 250.5,209.5C 251.257,202.881 251.757,196.215 252,189.5C 252.231,195.962 253.064,202.295 254.5,208.5 Z"/></g>
<g><path style="opacity:1" fill="#cba633" d="M 209.5,198.5 C 206.098,198.342 202.764,198.676 199.5,199.5C 199.611,198.883 199.944,198.383 200.5,198C 203.696,197.195 206.696,197.362 209.5,198.5 Z"/></g>
<g><path style="opacity:1" fill="#d3b24e" d="M 258.5,206.5 C 256.362,202.367 255.029,197.867 254.5,193C 254.833,192.167 255.167,191.333 255.5,190.5C 256.502,195.842 257.502,201.175 258.5,206.5 Z"/></g>
<g><path style="opacity:1" fill="#fbf8ef" d="M 209.5,198.5 C 215.106,201.303 220.773,204.136 226.5,207C 228.833,207.333 231.167,207.667 233.5,208C 232.007,209.156 232.174,209.99 234,210.5C 235.763,210.025 237.43,209.358 239,208.5C 240.434,211.943 242.267,211.943 244.5,208.5C 246.394,209.048 248.06,210.048 249.5,211.5C 250.298,211.043 250.631,210.376 250.5,209.5C 251.708,208.766 253.041,208.433 254.5,208.5C 255.134,209.947 256.301,210.613 258,210.5C 260.824,209.946 263.657,209.446 266.5,209C 266.167,208.667 265.833,208.333 265.5,208C 275.279,205.52 284.779,202.353 294,198.5C 298.392,198.435 301.226,200.435 302.5,204.5C 302.649,205.552 302.483,206.552 302,207.5C 300.416,206.139 298.582,205.472 296.5,205.5C 297.951,234.16 299.284,262.827 300.5,291.5C 300.444,293.64 299.777,295.306 298.5,296.5C 297.453,266.476 295.953,236.476 294,206.5C 292.333,208.167 290.667,209.833 289,211.5C 288.833,214 288.667,216.5 288.5,219C 290.365,242.136 291.198,265.302 291,288.5C 289.726,284.015 289.059,279.348 289,274.5C 288.212,254.156 287.212,233.823 286,213.5C 282.232,215.599 280.732,218.766 281.5,223C 282.359,237.823 283.025,252.656 283.5,267.5C 283.492,272.222 282.825,276.555 281.5,280.5C 280.418,262.517 279.751,244.517 279.5,226.5C 279.813,223.753 279.48,221.086 278.5,218.5C 277.893,218.624 277.56,218.957 277.5,219.5C 277.167,219.5 276.833,219.5 276.5,219.5C 273.5,219.5 270.5,219.5 267.5,219.5C 264.833,219.167 262.167,218.833 259.5,218.5C 257.351,217.264 255.018,216.264 252.5,215.5C 251.332,212.531 249.999,212.198 248.5,214.5C 242.2,216.935 235.866,218.935 229.5,220.5C 226.751,220.726 224.084,220.393 221.5,219.5C 221.167,220.333 220.833,221.167 220.5,222C 219.35,238.142 218.516,254.308 218,270.5C 217.921,274.358 217.254,278.024 216,281.5C 215.695,262.486 216.195,243.486 217.5,224.5C 217.167,221.833 216.833,219.167 216.5,216.5C 215.5,215.833 214.5,215.167 213.5,214.5C 211.772,235.465 210.772,256.465 210.5,277.5C 209.775,281.395 209.109,285.395 208.5,289.5C 207.926,264.806 208.593,239.973 210.5,215C 209.958,211.434 208.124,208.601 205,206.5C 202.879,236.125 201.379,265.792 200.5,295.5C 199.515,291.366 199.182,287.032 199.5,282.5C 200.224,256.474 201.057,230.474 202,204.5C 200.333,205.5 198.667,206.5 197,207.5C 196.933,204.613 197.767,201.946 199.5,199.5C 202.764,198.676 206.098,198.342 209.5,198.5 Z"/></g>
<g><path style="opacity:1" fill="#c19511" d="M 199.5,199.5 C 197.767,201.946 196.933,204.613 197,207.5C 198.667,206.5 200.333,205.5 202,204.5C 201.057,230.474 200.224,256.474 199.5,282.5C 198.198,287.734 198.198,293.067 199.5,298.5C 197.186,300.477 194.853,302.477 192.5,304.5C 192.307,270.807 193.473,237.14 196,203.5C 196.498,201.456 197.665,200.122 199.5,199.5 Z"/></g>
<g><path style="opacity:1" fill="#c19510" d="M 302.5,204.5 C 302.833,204.5 303.167,204.5 303.5,204.5C 304.775,234.833 306.109,265.166 307.5,295.5C 307.167,298.5 306.833,301.5 306.5,304.5C 303.479,302.146 300.812,299.479 298.5,296.5C 299.777,295.306 300.444,293.64 300.5,291.5C 299.284,262.827 297.951,234.16 296.5,205.5C 298.582,205.472 300.416,206.139 302,207.5C 302.483,206.552 302.649,205.552 302.5,204.5 Z"/></g>
<g><path style="opacity:1" fill="#d0ae46" d="M 244.5,208.5 C 242.267,211.943 240.434,211.943 239,208.5C 237.43,209.358 235.763,210.025 234,210.5C 232.174,209.99 232.007,209.156 233.5,208C 231.167,207.667 228.833,207.333 226.5,207C 220.773,204.136 215.106,201.303 209.5,198.5C 216.698,201.827 224.198,204.493 232,206.5C 232.833,206.333 233.667,206.167 234.5,206C 235.733,204.333 237.067,202.833 238.5,201.5C 238.038,203.757 237.038,205.757 235.5,207.5C 237.595,208.229 239.428,207.563 241,205.5C 243.286,200.353 244.953,195.019 246,189.5C 246.317,196.065 244.817,202.232 241.5,208C 241.667,208.5 241.833,209 242,209.5C 242.671,208.748 243.504,208.414 244.5,208.5 Z"/></g>
<g><path style="opacity:1" fill="#d3b150" d="M 250.5,209.5 C 250.631,210.376 250.298,211.043 249.5,211.5C 248.06,210.048 246.394,209.048 244.5,208.5C 246.958,202.106 248.458,195.439 249,188.5C 249.491,194.567 248.991,200.567 247.5,206.5C 247.516,208.516 248.516,209.516 250.5,209.5 Z"/></g>
<g><path style="opacity:1" fill="#c29615" d="M 208.5,289.5 C 208.5,289.833 208.5,290.167 208.5,290.5C 206.167,292.5 203.833,294.5 201.5,296.5C 200.833,296.5 200.5,296.167 200.5,295.5C 201.379,265.792 202.879,236.125 205,206.5C 208.124,208.601 209.958,211.434 210.5,215C 208.593,239.973 207.926,264.806 208.5,289.5 Z"/></g>
<g><path style="opacity:1" fill="#d0ad47" d="M 252.5,215.5 C 251.167,215.167 249.833,214.833 248.5,214.5C 249.999,212.198 251.332,212.531 252.5,215.5 Z"/></g>
<g><path style="opacity:1" fill="#fefefe" d="M 255.5,219.5 C 257.455,233.255 258.122,247.255 257.5,261.5C 254.853,263.811 252.186,266.144 249.5,268.5C 246.849,266.35 244.349,264.017 242,261.5C 241.167,247.821 241.334,234.154 242.5,220.5C 244.915,219.695 247.249,218.695 249.5,217.5C 251.323,218.747 253.323,219.414 255.5,219.5 Z"/></g>
<g><path style="opacity:1" fill="#c39719" d="M 298.5,296.5 C 292.157,291.821 286.49,286.488 281.5,280.5C 282.825,276.555 283.492,272.222 283.5,267.5C 283.025,252.656 282.359,237.823 281.5,223C 280.732,218.766 282.232,215.599 286,213.5C 287.212,233.823 288.212,254.156 289,274.5C 289.059,279.348 289.726,284.015 291,288.5C 291.198,265.302 290.365,242.136 288.5,219C 288.667,216.5 288.833,214 289,211.5C 290.667,209.833 292.333,208.167 294,206.5C 295.953,236.476 297.453,266.476 298.5,296.5 Z"/></g>
<g><path style="opacity:1" fill="#dabd68" d="M 248.5,214.5 C 244.798,217.069 240.798,219.069 236.5,220.5C 235.22,221.931 233.553,222.598 231.5,222.5C 231.158,221.662 230.492,221.328 229.5,221.5C 229.5,221.167 229.5,220.833 229.5,220.5C 235.866,218.935 242.2,216.935 248.5,214.5 Z"/></g>
<g><path style="opacity:1" fill="#d1af47" d="M 259.5,218.5 C 262.167,218.833 264.833,219.167 267.5,219.5C 264.707,220.746 262.04,220.413 259.5,218.5 Z"/></g>
<g><path style="opacity:1" fill="#c29716" d="M 229.5,220.5 C 229.5,220.833 229.5,221.167 229.5,221.5C 228.167,221.5 226.833,221.5 225.5,221.5C 225.096,226.783 225.762,231.783 227.5,236.5C 228.364,242.092 230.031,247.425 232.5,252.5C 231.175,251.047 230.342,251.381 230,253.5C 228.85,256.768 228.016,260.101 227.5,263.5C 226.549,262.081 226.216,260.415 226.5,258.5C 226.932,250.721 226.432,243.054 225,235.5C 224.167,246.821 223.667,258.154 223.5,269.5C 222.28,271.05 222.28,272.716 223.5,274.5C 223.5,275.833 223.5,277.167 223.5,278.5C 222.833,278.5 222.167,278.5 221.5,278.5C 218.167,281.5 214.833,284.5 211.5,287.5C 210.521,284.375 210.187,281.042 210.5,277.5C 210.772,256.465 211.772,235.465 213.5,214.5C 214.5,215.167 215.5,215.833 216.5,216.5C 216.833,219.167 217.167,221.833 217.5,224.5C 216.195,243.486 215.695,262.486 216,281.5C 217.254,278.024 217.921,274.358 218,270.5C 218.516,254.308 219.35,238.142 220.5,222C 220.833,221.167 221.167,220.333 221.5,219.5C 224.084,220.393 226.751,220.726 229.5,220.5 Z"/></g>
<g><path style="opacity:1" fill="#c39819" d="M 276.5,219.5 C 276.833,219.5 277.167,219.5 277.5,219.5C 278.167,221.833 278.833,224.167 279.5,226.5C 279.751,244.517 280.418,262.517 281.5,280.5C 280.279,279.972 279.113,279.305 278,278.5C 277.82,280.488 277.986,282.488 278.5,284.5C 277.833,284.5 277.167,284.5 276.5,284.5C 276.608,282.486 275.942,280.82 274.5,279.5C 275.239,279.631 275.906,279.464 276.5,279C 275.62,277.644 275.286,276.144 275.5,274.5C 276.742,272.389 276.742,270.389 275.5,268.5C 275.079,257.166 274.579,245.833 274,234.5C 273.768,235.737 273.268,236.737 272.5,237.5C 273.194,232.195 273.528,226.862 273.5,221.5C 271.833,221.5 270.167,221.5 268.5,221.5C 271.167,220.833 273.833,220.167 276.5,219.5 Z"/></g>
<g><path style="opacity:1" fill="#c09307" d="M 236.5,220.5 C 237.833,220.5 239.167,220.5 240.5,220.5C 240.667,233.837 240.5,247.171 240,260.5C 239.617,259.944 239.117,259.611 238.5,259.5C 238.262,257.596 237.262,256.262 235.5,255.5C 232.518,249.214 229.851,242.881 227.5,236.5C 227.167,231.833 226.833,227.167 226.5,222.5C 228.167,222.5 229.833,222.5 231.5,222.5C 233.553,222.598 235.22,221.931 236.5,220.5 Z"/></g>
<g><path style="opacity:1" fill="#d5b858" d="M 255.5,219.5 C 256.791,219.263 257.791,219.596 258.5,220.5C 258.5,233.833 258.5,247.167 258.5,260.5C 258.5,261.167 258.167,261.5 257.5,261.5C 258.122,247.255 257.455,233.255 255.5,219.5 Z"/></g>
<g><path style="opacity:1" fill="#c09305" d="M 258.5,220.5 C 261.461,221.323 264.461,221.99 267.5,222.5C 269.167,222.5 270.833,222.5 272.5,222.5C 272.141,234.24 269.141,245.24 263.5,255.5C 262.094,255.973 261.427,256.973 261.5,258.5C 260.5,259.167 259.5,259.833 258.5,260.5C 258.5,247.167 258.5,233.833 258.5,220.5 Z"/></g>
<g><path style="opacity:1" fill="#ebdbab" d="M 248.5,214.5 C 249.833,214.833 251.167,215.167 252.5,215.5C 255.018,216.264 257.351,217.264 259.5,218.5C 262.04,220.413 264.707,220.746 267.5,219.5C 270.5,219.5 273.5,219.5 276.5,219.5C 273.833,220.167 271.167,220.833 268.5,221.5C 267.833,221.5 267.5,221.833 267.5,222.5C 264.461,221.99 261.461,221.323 258.5,220.5C 257.791,219.596 256.791,219.263 255.5,219.5C 253.323,219.414 251.323,218.747 249.5,217.5C 247.249,218.695 244.915,219.695 242.5,220.5C 241.334,234.154 241.167,247.821 242,261.5C 244.349,264.017 246.849,266.35 249.5,268.5C 252.186,266.144 254.853,263.811 257.5,261.5C 258.167,261.5 258.5,261.167 258.5,260.5C 259.5,259.833 260.5,259.167 261.5,258.5C 258.902,262.438 255.902,266.105 252.5,269.5C 251.518,270.141 250.518,270.807 249.5,271.5C 248.482,270.807 247.482,270.141 246.5,269.5C 243.43,266.436 240.763,263.103 238.5,259.5C 239.117,259.611 239.617,259.944 240,260.5C 240.5,247.171 240.667,233.837 240.5,220.5C 239.167,220.5 237.833,220.5 236.5,220.5C 240.798,219.069 244.798,217.069 248.5,214.5 Z"/></g>
<g><path style="opacity:1" fill="#f9f5e7" d="M 229.5,221.5 C 230.492,221.328 231.158,221.662 231.5,222.5C 229.833,222.5 228.167,222.5 226.5,222.5C 226.833,227.167 227.167,231.833 227.5,236.5C 225.762,231.783 225.096,226.783 225.5,221.5C 226.833,221.5 228.167,221.5 229.5,221.5 Z"/></g>
<g><path style="opacity:1" fill="#e6d49a" d="M 277.5,219.5 C 277.56,218.957 277.893,218.624 278.5,218.5C 279.48,221.086 279.813,223.753 279.5,226.5C 278.833,224.167 278.167,221.833 277.5,219.5 Z"/></g>
<g><path style="opacity:1" fill="#f6eed7" d="M 267.5,222.5 C 267.5,221.833 267.833,221.5 268.5,221.5C 270.167,221.5 271.833,221.5 273.5,221.5C 273.528,226.862 273.194,232.195 272.5,237.5C 270.382,243.171 268.048,248.838 265.5,254.5C 264.833,254.833 264.167,255.167 263.5,255.5C 269.141,245.24 272.141,234.24 272.5,222.5C 270.833,222.5 269.167,222.5 267.5,222.5 Z"/></g>
<g><path style="opacity:1" fill="#f2e6c5" d="M 227.5,236.5 C 229.851,242.881 232.518,249.214 235.5,255.5C 234.075,253.969 233.409,254.302 233.5,256.5C 232.566,255.432 232.232,254.099 232.5,252.5C 230.031,247.425 228.364,242.092 227.5,236.5 Z"/></g>
<g><path style="opacity:1" fill="#fbf8ef" d="M 275.5,268.5 C 275.631,269.239 275.464,269.906 275,270.5C 274.495,268.482 273.995,266.482 273.5,264.5C 273.821,259.305 273.487,254.305 272.5,249.5C 272.5,245.5 272.5,241.5 272.5,237.5C 273.268,236.737 273.768,235.737 274,234.5C 274.579,245.833 275.079,257.166 275.5,268.5 Z"/></g>
<g><path style="opacity:1" fill="#c49a1e" d="M 272.5,237.5 C 272.5,241.5 272.5,245.5 272.5,249.5C 272.819,254.363 272.486,259.03 271.5,263.5C 270.956,259.327 269.79,255.327 268,251.5C 267.623,252.942 266.79,253.942 265.5,254.5C 268.048,248.838 270.382,243.171 272.5,237.5 Z"/></g>
<g><path style="opacity:1" fill="#faf5e7" d="M 226.5,258.5 C 226.027,262.878 225.027,266.545 223.5,269.5C 223.667,258.154 224.167,246.821 225,235.5C 226.432,243.054 226.932,250.721 226.5,258.5 Z"/></g>
<g><path style="opacity:1" fill="#fcfaf3" d="M 232.5,252.5 C 232.232,254.099 232.566,255.432 233.5,256.5C 233.5,257.833 233.5,259.167 233.5,260.5C 233.554,263.967 232.054,266.634 229,268.5C 227.731,267.095 227.231,265.429 227.5,263.5C 228.016,260.101 228.85,256.768 230,253.5C 230.342,251.381 231.175,251.047 232.5,252.5 Z"/></g>
<g><path style="opacity:1" fill="#fbf8ef" d="M 271.5,263.5 C 271.5,264.167 271.833,264.5 272.5,264.5C 270.823,269.461 268.656,269.461 266,264.5C 265.502,261.183 265.335,257.85 265.5,254.5C 266.79,253.942 267.623,252.942 268,251.5C 269.79,255.327 270.956,259.327 271.5,263.5 Z"/></g>
<g><path style="opacity:1" fill="#f4eace" d="M 235.5,255.5 C 237.262,256.262 238.262,257.596 238.5,259.5C 237.5,258.833 236.5,258.167 235.5,257.5C 235.5,256.833 235.5,256.167 235.5,255.5 Z"/></g>
<g><path style="opacity:1" fill="#f5eed7" d="M 263.5,255.5 C 263.5,256.167 263.5,256.833 263.5,257.5C 262.833,257.833 262.167,258.167 261.5,258.5C 261.427,256.973 262.094,255.973 263.5,255.5 Z"/></g>
<g><path style="opacity:1" fill="#c7a025" d="M 235.5,255.5 C 235.5,256.167 235.5,256.833 235.5,257.5C 234.833,258.5 234.167,259.5 233.5,260.5C 233.5,259.167 233.5,257.833 233.5,256.5C 233.409,254.302 234.075,253.969 235.5,255.5 Z"/></g>
<g><path style="opacity:1" fill="#e4cf90" d="M 272.5,249.5 C 273.487,254.305 273.821,259.305 273.5,264.5C 273.167,264.5 272.833,264.5 272.5,264.5C 271.833,264.5 271.5,264.167 271.5,263.5C 272.486,259.03 272.819,254.363 272.5,249.5 Z"/></g>
<g><path style="opacity:1" fill="#d0ad43" d="M 265.5,254.5 C 265.335,257.85 265.502,261.183 266,264.5C 268.656,269.461 270.823,269.461 272.5,264.5C 272.833,264.5 273.167,264.5 273.5,264.5C 273.995,266.482 274.495,268.482 275,270.5C 275.464,269.906 275.631,269.239 275.5,268.5C 276.742,270.389 276.742,272.389 275.5,274.5C 274.518,272.594 273.518,270.594 272.5,268.5C 271.833,269.167 271.167,269.833 270.5,270.5C 268.517,269.018 266.684,267.351 265,265.5C 264.821,268.553 264.321,271.553 263.5,274.5C 262.108,273.395 260.941,272.061 260,270.5C 258.907,273.309 257.74,275.976 256.5,278.5C 256.167,277.833 255.833,277.167 255.5,276.5C 256.767,274.22 257.767,271.72 258.5,269C 258.37,267.941 257.87,267.108 257,266.5C 255.519,267.471 254.685,268.804 254.5,270.5C 253.833,270.167 253.167,269.833 252.5,269.5C 255.902,266.105 258.902,262.438 261.5,258.5C 262.167,258.167 262.833,257.833 263.5,257.5C 263.5,256.833 263.5,256.167 263.5,255.5C 264.167,255.167 264.833,254.833 265.5,254.5 Z"/></g>
<g><path style="opacity:1" fill="#fdfcf8" d="M 260.5,262.5 C 261.496,262.414 262.329,262.748 263,263.5C 264.582,273.175 263.082,273.841 258.5,265.5C 259.193,264.482 259.859,263.482 260.5,262.5 Z"/></g>
<g><path style="opacity:1" fill="#f8f3e4" d="M 263.5,257.5 C 264.613,258.946 264.78,260.613 264,262.5C 262.372,261.038 262.205,259.372 263.5,257.5 Z"/></g>
<g><path style="opacity:1" fill="#fcfaf4" d="M 240.5,282.5 C 239.21,283.058 238.377,284.058 238,285.5C 237.453,282.298 236.453,279.298 235,276.5C 234.283,277.044 233.783,277.711 233.5,278.5C 232.094,278.973 231.427,279.973 231.5,281.5C 230.686,279.219 229.352,277.219 227.5,275.5C 226.148,276.524 224.815,277.524 223.5,278.5C 223.5,277.167 223.5,275.833 223.5,274.5C 224.792,272.745 225.792,270.745 226.5,268.5C 227.167,269.167 227.833,269.833 228.5,270.5C 230.483,269.018 232.316,267.351 234,265.5C 234.179,268.553 234.679,271.553 235.5,274.5C 237.197,273.636 238.363,272.303 239,270.5C 241.399,274.312 241.899,278.312 240.5,282.5 Z"/></g>
<g><path style="opacity:1" fill="#fcfaf4" d="M 275.5,274.5 C 275.286,276.144 275.62,277.644 276.5,279C 275.906,279.464 275.239,279.631 274.5,279.5C 273.969,277.456 272.802,275.789 271,274.5C 269.619,276.635 268.619,278.968 268,281.5C 267.027,279.36 265.527,277.693 263.5,276.5C 262.478,279.441 261.645,282.441 261,285.5C 260.623,284.058 259.79,283.058 258.5,282.5C 257.833,281.167 257.167,279.833 256.5,278.5C 257.74,275.976 258.907,273.309 260,270.5C 260.941,272.061 262.108,273.395 263.5,274.5C 264.321,271.553 264.821,268.553 265,265.5C 266.684,267.351 268.517,269.018 270.5,270.5C 271.167,269.833 271.833,269.167 272.5,268.5C 273.518,270.594 274.518,272.594 275.5,274.5 Z"/></g>
<g><path style="opacity:1" fill="#fcf9f2" d="M 244.5,271.5 C 243.85,273.435 243.517,275.435 243.5,277.5C 242.209,275.051 241.209,272.384 240.5,269.5C 241,268.5 241.5,267.5 242,266.5C 243.883,267.653 244.716,269.319 244.5,271.5 Z"/></g>
<g><path style="opacity:1" fill="#fcfaf4" d="M 255.5,276.5 C 255.483,274.435 255.15,272.435 254.5,270.5C 254.685,268.804 255.519,267.471 257,266.5C 257.87,267.108 258.37,267.941 258.5,269C 257.767,271.72 256.767,274.22 255.5,276.5 Z"/></g>
<g><path style="opacity:1" fill="#d3b24f" d="M 235.5,257.5 C 236.5,258.167 237.5,258.833 238.5,259.5C 240.763,263.103 243.43,266.436 246.5,269.5C 245.833,270.167 245.167,270.833 244.5,271.5C 244.716,269.319 243.883,267.653 242,266.5C 241.5,267.5 241,268.5 240.5,269.5C 241.209,272.384 242.209,275.051 243.5,277.5C 242.766,278.708 242.433,280.041 242.5,281.5C 241.833,281.833 241.167,282.167 240.5,282.5C 241.899,278.312 241.399,274.312 239,270.5C 238.363,272.303 237.197,273.636 235.5,274.5C 234.679,271.553 234.179,268.553 234,265.5C 232.316,267.351 230.483,269.018 228.5,270.5C 227.833,269.833 227.167,269.167 226.5,268.5C 225.792,270.745 224.792,272.745 223.5,274.5C 222.28,272.716 222.28,271.05 223.5,269.5C 225.027,266.545 226.027,262.878 226.5,258.5C 226.216,260.415 226.549,262.081 227.5,263.5C 227.231,265.429 227.731,267.095 229,268.5C 232.054,266.634 233.554,263.967 233.5,260.5C 234.167,259.5 234.833,258.5 235.5,257.5 Z"/></g>
<g><path style="opacity:1" fill="#fdfcf8" d="M 236.5,262.5 C 241.673,264.595 241.84,267.261 237,270.5C 235.304,267.881 235.137,265.214 236.5,262.5 Z"/></g>
<g><path style="opacity:1" fill="#c29612" d="M 246.5,269.5 C 247.482,270.141 248.482,270.807 249.5,271.5C 250.518,270.807 251.518,270.141 252.5,269.5C 253.167,269.833 253.833,270.167 254.5,270.5C 255.15,272.435 255.483,274.435 255.5,276.5C 255.833,277.167 256.167,277.833 256.5,278.5C 257.167,279.833 257.833,281.167 258.5,282.5C 256.576,282.711 256.243,283.377 257.5,284.5C 258.219,286.764 258.552,289.097 258.5,291.5C 258.5,292.833 259.167,293.5 260.5,293.5C 260.5,295.5 260.5,297.5 260.5,299.5C 260.672,300.492 260.338,301.158 259.5,301.5C 257.915,301.985 256.415,301.319 255,299.5C 253.711,296.649 253.211,293.649 253.5,290.5C 251.802,281.408 251.469,281.408 252.5,290.5C 252.665,293.85 252.498,297.183 252,300.5C 250.333,303.167 248.667,303.167 247,300.5C 246.503,297.854 246.336,295.187 246.5,292.5C 247.492,289.221 247.659,285.888 247,282.5C 246.545,285.854 246.045,289.187 245.5,292.5C 245.698,296.257 244.365,299.257 241.5,301.5C 240.893,301.376 240.56,301.043 240.5,300.5C 240.011,299.005 239.345,297.671 238.5,296.5C 238.5,295.5 238.5,294.5 238.5,293.5C 239.833,293.5 240.5,292.833 240.5,291.5C 240.851,288.097 241.518,284.763 242.5,281.5C 242.433,280.041 242.766,278.708 243.5,277.5C 243.517,275.435 243.85,273.435 244.5,271.5C 245.167,270.833 245.833,270.167 246.5,269.5 Z"/></g>
<g><path style="opacity:1" fill="#fdfbf5" d="M 274.5,279.5 C 275.942,280.82 276.608,282.486 276.5,284.5C 275.515,287.057 274.515,289.724 273.5,292.5C 272.243,290.321 270.743,288.321 269,286.5C 268.102,289.069 266.935,291.402 265.5,293.5C 265.573,291.973 264.906,290.973 263.5,290.5C 262.392,286.5 262.558,282.5 264,278.5C 265.51,280.208 267.01,281.874 268.5,283.5C 269.5,281.5 270.5,279.5 271.5,277.5C 272.518,278.193 273.518,278.859 274.5,279.5 Z"/></g>
<g><path style="opacity:1" fill="#fcfaf5" d="M 231.5,281.5 C 232.906,281.027 233.573,280.027 233.5,278.5C 237.509,283.169 237.343,287.835 233,292.5C 231.577,290.655 230.41,288.655 229.5,286.5C 227.962,288.243 226.962,290.243 226.5,292.5C 225.414,292.38 224.747,291.713 224.5,290.5C 220.955,285.016 221.955,280.683 227.5,277.5C 228.5,279.5 229.5,281.5 230.5,283.5C 231.298,283.043 231.631,282.376 231.5,281.5 Z"/></g>
<g><path style="opacity:1" fill="#cda836" d="M 233.5,278.5 C 233.573,280.027 232.906,281.027 231.5,281.5C 231.427,279.973 232.094,278.973 233.5,278.5 Z"/></g>
<g><path style="opacity:1" fill="#dbc06e" d="M 210.5,277.5 C 210.187,281.042 210.521,284.375 211.5,287.5C 210.833,288.833 209.833,289.833 208.5,290.5C 208.5,290.167 208.5,289.833 208.5,289.5C 209.109,285.395 209.775,281.395 210.5,277.5 Z"/></g>
<g><path style="opacity:1" fill="#d0ac43" d="M 240.5,282.5 C 239.7,284.607 239.033,286.774 238.5,289C 238.684,290.376 239.351,291.209 240.5,291.5C 240.5,292.833 239.833,293.5 238.5,293.5C 237.71,292.391 237.21,291.058 237,289.5C 235.692,291.641 234.192,293.641 232.5,295.5C 231.239,293.547 230.073,291.547 229,289.5C 228.623,290.942 227.79,291.942 226.5,292.5C 226.962,290.243 227.962,288.243 229.5,286.5C 230.41,288.655 231.577,290.655 233,292.5C 237.343,287.835 237.509,283.169 233.5,278.5C 233.783,277.711 234.283,277.044 235,276.5C 236.453,279.298 237.453,282.298 238,285.5C 238.377,284.058 239.21,283.058 240.5,282.5 Z"/></g>
<g><path style="opacity:1" fill="#faf6eb" d="M 242.5,281.5 C 241.518,284.763 240.851,288.097 240.5,291.5C 239.351,291.209 238.684,290.376 238.5,289C 239.033,286.774 239.7,284.607 240.5,282.5C 241.167,282.167 241.833,281.833 242.5,281.5 Z"/></g>
<g><path style="opacity:1" fill="#fcfaf3" d="M 258.5,291.5 C 258.552,289.097 258.219,286.764 257.5,284.5C 259.028,284.969 260.028,286.469 260.5,289C 260.316,290.376 259.649,291.209 258.5,291.5 Z"/></g>
<g><path style="opacity:1" fill="#d1af48" d="M 274.5,279.5 C 273.518,278.859 272.518,278.193 271.5,277.5C 270.5,279.5 269.5,281.5 268.5,283.5C 267.01,281.874 265.51,280.208 264,278.5C 262.558,282.5 262.392,286.5 263.5,290.5C 262.883,290.389 262.383,290.056 262,289.5C 261.79,291.058 261.29,292.391 260.5,293.5C 259.167,293.5 258.5,292.833 258.5,291.5C 259.649,291.209 260.316,290.376 260.5,289C 260.028,286.469 259.028,284.969 257.5,284.5C 256.243,283.377 256.576,282.711 258.5,282.5C 259.79,283.058 260.623,284.058 261,285.5C 261.645,282.441 262.478,279.441 263.5,276.5C 265.527,277.693 267.027,279.36 268,281.5C 268.619,278.968 269.619,276.635 271,274.5C 272.802,275.789 273.969,277.456 274.5,279.5 Z"/></g>
<g><path style="opacity:1" fill="#e7d59c" d="M 246.5,292.5 C 246.167,292.5 245.833,292.5 245.5,292.5C 246.045,289.187 246.545,285.854 247,282.5C 247.659,285.888 247.492,289.221 246.5,292.5 Z"/></g>
<g><path style="opacity:1" fill="#e3ce8c" d="M 253.5,290.5 C 253.167,290.5 252.833,290.5 252.5,290.5C 251.469,281.408 251.802,281.408 253.5,290.5 Z"/></g>
<g><path style="opacity:1" fill="#fdfbf6" d="M 263.5,290.5 C 263.427,292.027 264.094,293.027 265.5,293.5C 265.369,294.376 265.702,295.043 266.5,295.5C 267.795,293.672 268.795,291.672 269.5,289.5C 273.988,293.092 274.488,297.092 271,301.5C 268.819,296.455 266.986,296.455 265.5,301.5C 264.311,302.429 262.978,302.762 261.5,302.5C 261.737,301.209 261.404,300.209 260.5,299.5C 260.5,297.5 260.5,295.5 260.5,293.5C 261.29,292.391 261.79,291.058 262,289.5C 262.383,290.056 262.883,290.389 263.5,290.5 Z"/></g>
<g><path style="opacity:1" fill="#fcfaf5" d="M 238.5,293.5 C 238.5,294.5 238.5,295.5 238.5,296.5C 239.152,300.56 237.485,302.56 233.5,302.5C 232.786,296.43 231.119,296.097 228.5,301.5C 226.135,298.77 225.469,295.77 226.5,292.5C 227.79,291.942 228.623,290.942 229,289.5C 230.073,291.547 231.239,293.547 232.5,295.5C 234.192,293.641 235.692,291.641 237,289.5C 237.21,291.058 237.71,292.391 238.5,293.5 Z"/></g>
<g><path style="opacity:1" fill="#ceab3c" d="M 263.5,290.5 C 264.906,290.973 265.573,291.973 265.5,293.5C 264.094,293.027 263.427,292.027 263.5,290.5 Z"/></g>
<g><path style="opacity:1" fill="#e9d8a5" d="M 199.5,282.5 C 199.182,287.032 199.515,291.366 200.5,295.5C 200.5,296.167 200.833,296.5 201.5,296.5C 201.167,297.5 200.5,298.167 199.5,298.5C 198.198,293.067 198.198,287.734 199.5,282.5 Z"/></g>
<g><path style="opacity:1" fill="#fbf8ee" d="M 252.5,290.5 C 252.833,290.5 253.167,290.5 253.5,290.5C 253.211,293.649 253.711,296.649 255,299.5C 256.415,301.319 257.915,301.985 259.5,301.5C 256.431,301.985 253.764,303.319 251.5,305.5C 250.167,306.833 248.833,306.833 247.5,305.5C 245.369,303.315 242.703,301.982 239.5,301.5C 239.624,300.893 239.957,300.56 240.5,300.5C 240.56,301.043 240.893,301.376 241.5,301.5C 244.365,299.257 245.698,296.257 245.5,292.5C 245.833,292.5 246.167,292.5 246.5,292.5C 246.336,295.187 246.503,297.854 247,300.5C 248.667,303.167 250.333,303.167 252,300.5C 252.498,297.183 252.665,293.85 252.5,290.5 Z"/></g>
<g><path style="opacity:1" fill="#f9f4e6" d="M 288.5,300.5 C 288.67,301.822 288.337,302.989 287.5,304C 283.142,305.517 278.809,306.017 274.5,305.5C 274.586,304.504 274.252,303.671 273.5,303C 275.167,302.333 276.833,302.333 278.5,303C 275.937,303.763 275.937,304.263 278.5,304.5C 281.55,304.03 281.883,303.197 279.5,302C 281.447,301.009 283.447,300.675 285.5,301C 282.937,301.763 282.937,302.263 285.5,302.5C 286.739,302.058 287.739,301.391 288.5,300.5 Z"/></g>
<g><path style="opacity:1" fill="#d3b250" d="M 231.5,281.5 C 231.631,282.376 231.298,283.043 230.5,283.5C 229.5,281.5 228.5,279.5 227.5,277.5C 221.955,280.683 220.955,285.016 224.5,290.5C 224.747,291.713 225.414,292.38 226.5,292.5C 225.469,295.77 226.135,298.77 228.5,301.5C 231.119,296.097 232.786,296.43 233.5,302.5C 237.485,302.56 239.152,300.56 238.5,296.5C 239.345,297.671 240.011,299.005 240.5,300.5C 239.957,300.56 239.624,300.893 239.5,301.5C 242.703,301.982 245.369,303.315 247.5,305.5C 244.869,306.425 244.202,308.091 245.5,310.5C 239.885,309.427 234.218,309.26 228.5,310C 227.667,310.833 226.833,311.667 226,312.5C 225.293,310.919 224.46,309.419 223.5,308C 218.205,306.842 212.872,306.009 207.5,305.5C 206.222,305.782 205.222,306.449 204.5,307.5C 204.34,305.801 204.506,304.134 205,302.5C 205.417,301.244 206.25,300.577 207.5,300.5C 207.918,299.778 208.584,299.278 209.5,299C 211.859,298.792 214.026,298.626 216,298.5C 218.145,291.901 219.978,285.235 221.5,278.5C 222.167,278.5 222.833,278.5 223.5,278.5C 224.815,277.524 226.148,276.524 227.5,275.5C 229.352,277.219 230.686,279.219 231.5,281.5 Z"/></g>
<g><path style="opacity:1" fill="#e9d5a0" d="M 219.5,301.5 C 220.167,301.5 220.833,301.5 221.5,301.5C 222.209,302.404 223.209,302.737 224.5,302.5C 224.737,303.791 224.404,304.791 223.5,305.5C 221.805,304.989 220.139,304.322 218.5,303.5C 218.863,302.817 219.196,302.15 219.5,301.5 Z"/></g>
<g><path style="opacity:1" fill="#f6f0dd" d="M 207.5,300.5 C 210.041,301.623 210.041,302.956 207.5,304.5C 206.374,303.192 206.374,301.858 207.5,300.5 Z"/></g>
<g><path style="opacity:1" fill="#f9f4e7" d="M 219.5,301.5 C 219.196,302.15 218.863,302.817 218.5,303.5C 220.139,304.322 221.805,304.989 223.5,305.5C 223.265,306.097 222.765,306.43 222,306.5C 218.502,305.667 215.002,304.834 211.5,304C 210.483,302.951 210.316,301.784 211,300.5C 212.133,302.211 213.633,302.711 215.5,302C 213.405,301.444 213.238,300.944 215,300.5C 216.44,301.148 217.94,301.481 219.5,301.5 Z"/></g>
<g><path style="opacity:1" fill="#faf6e9" d="M 221.5,301.5 C 221.5,300.833 221.5,300.167 221.5,299.5C 224.133,296.754 225.466,297.421 225.5,301.5C 224.167,301.5 222.833,301.5 221.5,301.5 Z"/></g>
<g><path style="opacity:1" fill="#fcfaf4" d="M 221.5,299.5 C 220.292,300.234 218.959,300.567 217.5,300.5C 218.351,295.775 219.518,291.108 221,286.5C 224.051,290.772 224.217,295.106 221.5,299.5 Z"/></g>
<g><path style="opacity:1" fill="#d2b14d" d="M 276.5,284.5 C 277.167,284.5 277.833,284.5 278.5,284.5C 280.288,288.953 281.788,293.62 283,298.5C 285.498,298.353 287.998,298.686 290.5,299.5C 289.508,299.328 288.842,299.662 288.5,300.5C 287.739,301.391 286.739,302.058 285.5,302.5C 282.937,302.263 282.937,301.763 285.5,301C 283.447,300.675 281.447,301.009 279.5,302C 281.883,303.197 281.55,304.03 278.5,304.5C 275.937,304.263 275.937,303.763 278.5,303C 276.833,302.333 275.167,302.333 273.5,303C 274.252,303.671 274.586,304.504 274.5,305.5C 272.491,304 271.158,304.5 270.5,307C 271.158,309.5 272.491,310 274.5,308.5C 274.158,312.819 272.825,313.319 270.5,310C 264.782,309.26 259.115,309.427 253.5,310.5C 254.798,308.091 254.131,306.425 251.5,305.5C 253.764,303.319 256.431,301.985 259.5,301.5C 260.338,301.158 260.672,300.492 260.5,299.5C 261.404,300.209 261.737,301.209 261.5,302.5C 262.978,302.762 264.311,302.429 265.5,301.5C 266.986,296.455 268.819,296.455 271,301.5C 274.488,297.092 273.988,293.092 269.5,289.5C 268.795,291.672 267.795,293.672 266.5,295.5C 265.702,295.043 265.369,294.376 265.5,293.5C 266.935,291.402 268.102,289.069 269,286.5C 270.743,288.321 272.243,290.321 273.5,292.5C 274.515,289.724 275.515,287.057 276.5,284.5 Z"/></g>
<g><path style="opacity:1" fill="#e9d7a2" d="M 255.5,304.5 C 260.316,303.35 265.316,303.184 270.5,304C 268.75,305.319 266.75,305.819 264.5,305.5C 261.713,304.523 258.713,304.19 255.5,304.5 Z"/></g>
<g><path style="opacity:1" fill="#f6eed7" d="M 267.5,299.5 C 268.267,300.172 268.934,301.005 269.5,302C 267.939,302.188 267.272,301.355 267.5,299.5 Z"/></g>
<g><path style="opacity:1" fill="#f9f4e5" d="M 275.5,296.5 C 275.703,298.044 276.37,299.378 277.5,300.5C 276.167,301.833 274.833,301.833 273.5,300.5C 273.994,298.974 274.661,297.641 275.5,296.5 Z"/></g>
<g><path style="opacity:1" fill="#fcf9f2" d="M 275.5,296.5 C 274.928,293.007 275.761,289.673 278,286.5C 279.797,291.023 280.964,295.69 281.5,300.5C 279.127,299.797 277.127,298.464 275.5,296.5 Z"/></g>
<g><path style="opacity:1" fill="#fcf9f2" d="M 234.5,304.5 C 237.898,304.18 241.232,304.513 244.5,305.5C 243.307,307.384 241.641,307.884 239.5,307C 242.937,306.351 243.104,305.851 240,305.5C 236.661,307.044 233.161,307.71 229.5,307.5C 229.67,306.178 229.337,305.011 228.5,304C 230.712,303.211 232.712,303.378 234.5,304.5 Z"/></g>
<g><path style="opacity:1" fill="#fdfbf7" d="M 255.5,304.5 C 258.713,304.19 261.713,304.523 264.5,305.5C 265.318,306.409 266.984,306.909 269.5,307C 265.847,307.714 262.347,307.214 259,305.5C 258.167,305.667 257.333,305.833 256.5,306C 257.833,306.333 259.167,306.667 260.5,307C 258.559,307.743 256.726,307.576 255,306.5C 254.308,305.563 254.475,304.897 255.5,304.5 Z"/></g>
<g><path style="opacity:1" fill="#fbf8ee" d="M 225.5,304.5 C 228.956,305.536 229.29,307.203 226.5,309.5C 225.548,307.955 225.215,306.288 225.5,304.5 Z"/></g>
<g><path style="opacity:1" fill="#d3b452" d="M 234.5,304.5 C 234.611,305.117 234.944,305.617 235.5,306C 233.741,306.798 232.074,306.631 230.5,305.5C 231.689,304.571 233.022,304.238 234.5,304.5 Z"/></g>
<g><path style="opacity:1" fill="#f8f2e2" d="M 274.5,305.5 C 274.5,306.5 274.5,307.5 274.5,308.5C 272.491,310 271.158,309.5 270.5,307C 271.158,304.5 272.491,304 274.5,305.5 Z"/></g>
<g><path style="opacity:1" fill="#c79e2b" d="M 290.5,299.5 C 291.496,299.414 292.329,299.748 293,300.5C 294.044,302.715 294.71,305.048 295,307.5C 296.833,309.167 298.667,310.833 300.5,312.5C 298.43,316.064 296.597,319.731 295,323.5C 286.381,326.018 277.547,327.518 268.5,328C 253.833,328.667 239.167,328.667 224.5,328C 218.742,327.515 213.075,326.515 207.5,325C 205.998,324.417 204.665,323.584 203.5,322.5C 201.833,319.167 200.167,315.833 198.5,312.5C 200.519,310.81 202.519,309.144 204.5,307.5C 205.222,306.449 206.222,305.782 207.5,305.5C 206.342,308.603 204.342,311.103 201.5,313C 203.289,315.791 204.622,318.791 205.5,322C 213.367,324.076 221.367,325.41 229.5,326C 242.167,326.667 254.833,326.667 267.5,326C 276.315,325.598 284.981,324.265 293.5,322C 294.161,318.863 295.495,316.03 297.5,313.5C 296.64,311.069 294.973,309.736 292.5,309.5C 292.845,306.512 291.512,305.179 288.5,305.5C 283.792,306.505 279.125,307.505 274.5,308.5C 274.5,307.5 274.5,306.5 274.5,305.5C 278.809,306.017 283.142,305.517 287.5,304C 288.337,302.989 288.67,301.822 288.5,300.5C 288.842,299.662 289.508,299.328 290.5,299.5 Z"/></g>
<g><path style="opacity:1" fill="#fcf9f1" d="M 207.5,305.5 C 212.872,306.009 218.205,306.842 223.5,308C 224.46,309.419 225.293,310.919 226,312.5C 226.833,311.667 227.667,310.833 228.5,310C 234.218,309.26 239.885,309.427 245.5,310.5C 246.967,312.843 248.301,312.51 249.5,309.5C 250.699,312.51 252.033,312.843 253.5,310.5C 259.115,309.427 264.782,309.26 270.5,310C 272.825,313.319 274.158,312.819 274.5,308.5C 279.125,307.505 283.792,306.505 288.5,305.5C 291.512,305.179 292.845,306.512 292.5,309.5C 294.973,309.736 296.64,311.069 297.5,313.5C 295.495,316.03 294.161,318.863 293.5,322C 284.981,324.265 276.315,325.598 267.5,326C 254.833,326.667 242.167,326.667 229.5,326C 221.367,325.41 213.367,324.076 205.5,322C 204.622,318.791 203.289,315.791 201.5,313C 204.342,311.103 206.342,308.603 207.5,305.5 Z"/></g>
<g><path style="opacity:1" fill="#c89f2d" d="M 241.5,316.5 C 244.898,316.907 248.064,317.907 251,319.5C 252.11,317.963 253.61,317.297 255.5,317.5C 255.5,318.833 255.5,320.167 255.5,321.5C 252.71,321.222 250.21,321.889 248,323.5C 246.48,322.493 244.813,321.827 243,321.5C 240.52,322.514 238.02,323.014 235.5,323C 238.266,322.309 238.933,320.809 237.5,318.5C 237.833,318.167 238.167,317.833 238.5,317.5C 240.367,320.229 241.367,319.896 241.5,316.5 Z"/></g>
<g><path style="opacity:1" fill="#cca739" d="M 258.5,312.5 C 260.062,314.372 261.062,316.705 261.5,319.5C 263.28,316.078 264.28,316.744 264.5,321.5C 261.753,321.813 259.086,321.48 256.5,320.5C 258.229,318.149 258.896,315.482 258.5,312.5 Z"/></g>
<g><path style="opacity:1" fill="#c59a25" d="M 265.5,316.5 C 266.947,317.134 267.613,318.301 267.5,320C 267.612,321.662 266.946,322.829 265.5,323.5C 266.794,321.575 266.794,319.242 265.5,316.5 Z"/></g>
<g><path style="opacity:1" fill="#f3ebd0" d="M 243.5,320.5 C 245.035,319.212 246.701,319.212 248.5,320.5C 247.113,320.807 245.446,320.807 243.5,320.5 Z"/></g>
<g><path style="opacity:1" fill="#cfaa41" d="M 235.5,312.5 C 236.8,315.024 236.8,317.691 235.5,320.5C 234.551,317.874 234.551,315.208 235.5,312.5 Z"/></g>
<g><path style="opacity:1" fill="#caa334" d="M 232.5,311.5 C 233.497,311.47 234.164,311.97 234.5,313C 233.923,316.056 233.257,319.056 232.5,322C 230.273,321.24 227.94,320.407 225.5,319.5C 223.476,320.021 221.476,320.188 219.5,320C 220.859,318.796 221.859,317.296 222.5,315.5C 223.167,316.167 223.833,316.833 224.5,317.5C 224.477,315.503 225.81,314.169 228.5,313.5C 229.382,314.76 230.382,315.926 231.5,317C 229.071,317.451 228.904,318.285 231,319.5C 232.375,317.063 232.875,314.397 232.5,311.5 Z"/></g>
<g><path style="opacity:1" fill="#cda73e" d="M 210.5,308.5 C 211.833,308.5 213.167,308.5 214.5,308.5C 214.414,310.677 213.747,312.677 212.5,314.5C 212.833,314.833 213.167,315.167 213.5,315.5C 214.167,314.5 214.833,313.5 215.5,312.5C 216.167,313.833 216.833,315.167 217.5,316.5C 218.167,315.5 218.833,314.5 219.5,313.5C 219.833,314.167 220.167,314.833 220.5,315.5C 219.761,317.563 218.428,319.23 216.5,320.5C 215.289,319.726 215.289,318.893 216.5,318C 215.128,317.598 213.795,317.098 212.5,316.5C 211.808,317.025 211.308,317.692 211,318.5C 210.535,317.069 209.701,315.903 208.5,315C 209.868,313.66 211.201,312.326 212.5,311C 212.056,309.238 211.556,309.405 211,311.5C 210.517,310.552 210.351,309.552 210.5,308.5 Z"/></g>
<g><path style="opacity:1" fill="#caa232" d="M 281.5,308.5 C 285.759,308.102 287.592,310.102 287,314.5C 288.135,314.727 289.302,315.06 290.5,315.5C 289.273,316.59 288.44,317.924 288,319.5C 287.692,318.692 287.192,318.025 286.5,317.5C 284.878,319.439 283.044,319.772 281,318.5C 279.612,322.155 277.612,322.489 275,319.5C 273.469,320.217 272.136,321.217 271,322.5C 269.238,322.056 269.405,321.556 271.5,321C 268.936,319.519 268.936,318.019 271.5,316.5C 272.192,317.025 272.692,317.692 273,318.5C 274.873,316.61 275.706,314.61 275.5,312.5C 276.984,314.074 278.651,315.407 280.5,316.5C 282.042,315.253 283.542,315.253 285,316.5C 285.18,314.512 285.014,312.512 284.5,310.5C 282.821,310.715 281.821,310.048 281.5,308.5 Z"/></g>
<g><path style="opacity:1" fill="#caa433" d="M 247.5,305.5 C 248.833,306.833 250.167,306.833 251.5,305.5C 251.077,307.781 251.744,309.448 253.5,310.5C 252.033,312.843 250.699,312.51 249.5,309.5C 248.301,312.51 246.967,312.843 245.5,310.5C 247.256,309.448 247.923,307.781 247.5,305.5 Z"/></g>
<g><path style="opacity:1" fill="#f9f4e4" d="M 251.5,305.5 C 254.131,306.425 254.798,308.091 253.5,310.5C 251.744,309.448 251.077,307.781 251.5,305.5 Z"/></g>
<g><path style="opacity:1" fill="#faf5e7" d="M 247.5,305.5 C 247.923,307.781 247.256,309.448 245.5,310.5C 244.202,308.091 244.869,306.425 247.5,305.5 Z"/></g>
<g><path style="opacity:1" fill="#f8f2e0" d="M 289.5,300.5 C 292.275,300.834 292.941,302.167 291.5,304.5C 289.889,303.68 289.222,302.346 289.5,300.5 Z"/></g>
<g><path style="opacity:0.993" fill="#010101" d="M 13.5,332.5 C 170.833,332.5 328.167,332.5 485.5,332.5C 459.059,404.776 410.059,455.276 338.5,484C 317.652,491.713 296.319,496.88 274.5,499.5C 257.833,499.5 241.167,499.5 224.5,499.5C 136.144,487.759 70.3107,443.092 27,365.5C 21.3753,354.923 16.8753,343.923 13.5,332.5 Z"/></g>
</svg>
