<?xml version="1.0" encoding="UTF-8"?>
<!DOCTYPE svg PUBLIC "-//W3C//DTD SVG 1.1//EN" "http://www.w3.org/Graphics/SVG/1.1/DTD/svg11.dtd">
<svg xmlns="http://www.w3.org/2000/svg" version="1.1" width="500px" height="500px" style="shape-rendering:geometricPrecision; text-rendering:geometricPrecision; image-rendering:optimizeQuality; fill-rule:evenodd; clip-rule:evenodd" xmlns:xlink="http://www.w3.org/1999/xlink">
<g><path style="opacity:1" fill="#ce1123" d="M 225.5,-0.5 C 234.833,-0.5 244.167,-0.5 253.5,-0.5C 268.446,0.345798 283.446,2.01247 298.5,4.5C 298.168,69.6688 298.501,134.669 299.5,199.5C 364.331,200.499 429.331,200.832 494.5,200.5C 494.565,203.428 495.232,206.095 496.5,208.5C 497.645,213.811 498.645,219.144 499.5,224.5C 499.5,241.5 499.5,258.5 499.5,275.5C 498.361,282.439 497.028,289.439 495.5,296.5C 430.212,298.16 364.879,299.16 299.5,299.5C 299.16,364.879 298.16,430.212 296.5,495.5C 289.108,497.064 281.774,498.397 274.5,499.5C 260.5,499.5 246.5,499.5 232.5,499.5C 227.084,497.883 221.417,497.216 215.5,497.5C 211.048,497.369 206.714,496.702 202.5,495.5C 200.84,430.212 199.84,364.879 199.5,299.5C 134.669,298.501 69.6688,298.168 4.5,298.5C 4.59047,295.848 3.92381,293.515 2.5,291.5C 1.70105,288.57 1.36772,285.57 1.5,282.5C 1.81124,277.234 1.14457,272.234 -0.5,267.5C -0.5,257.833 -0.5,248.167 -0.5,238.5C 0.943901,229.021 1.9439,219.354 2.5,209.5C 2.5,208.833 2.5,208.167 2.5,207.5C 3.92381,205.485 4.59047,203.152 4.5,200.5C 69.6688,200.832 134.669,200.499 199.5,199.5C 200.499,134.669 200.832,69.6688 200.5,4.5C 201.791,4.73731 202.791,4.40397 203.5,3.5C 210.789,1.88753 218.122,0.554197 225.5,-0.5 Z"/></g>
<g><path style="opacity:0.993" fill="#fefefe" d="M 199.5,3.5 C 199.5,68.8333 199.5,134.167 199.5,199.5C 134.167,199.5 68.8333,199.5 3.5,199.5C 24.3193,111.181 76.6526,49.6809 160.5,15C 173.307,10.3831 186.307,6.54975 199.5,3.5 Z"/></g>
<g><path style="opacity:0.993" fill="#fefefe" d="M 299.5,3.5 C 387.844,24.3474 449.344,76.6807 484,160.5C 488.618,173.312 492.451,186.312 495.5,199.5C 430.167,199.5 364.833,199.5 299.5,199.5C 299.5,134.167 299.5,68.8333 299.5,3.5 Z"/></g>
<g><path style="opacity:1" fill="#d53645" d="M 253.5,-0.5 C 260.167,-0.5 266.833,-0.5 273.5,-0.5C 282.02,0.909111 290.687,2.24244 299.5,3.5C 299.5,68.8333 299.5,134.167 299.5,199.5C 298.501,134.669 298.168,69.6688 298.5,4.5C 283.446,2.01247 268.446,0.345798 253.5,-0.5 Z"/></g>
<g><path style="opacity:1" fill="#d84352" d="M 199.5,3.5 C 200.833,3.5 202.167,3.5 203.5,3.5C 202.791,4.40397 201.791,4.73731 200.5,4.5C 200.832,69.6688 200.499,134.669 199.5,199.5C 199.5,134.167 199.5,68.8333 199.5,3.5 Z"/></g>
<g><path style="opacity:1" fill="#d84453" d="M 3.5,199.5 C 68.8333,199.5 134.167,199.5 199.5,199.5C 134.669,200.499 69.6688,200.832 4.5,200.5C 4.59047,203.152 3.92381,205.485 2.5,207.5C 2.83333,204.833 3.16667,202.167 3.5,199.5 Z"/></g>
<g><path style="opacity:1" fill="#d84352" d="M 299.5,199.5 C 364.833,199.5 430.167,199.5 495.5,199.5C 495.963,202.482 496.296,205.482 496.5,208.5C 495.232,206.095 494.565,203.428 494.5,200.5C 429.331,200.832 364.331,200.499 299.5,199.5 Z"/></g>
<g><path style="opacity:0.988" fill="#d94852" d="M 2.5,209.5 C 1.9439,219.354 0.943901,229.021 -0.5,238.5C -0.5,234.167 -0.5,229.833 -0.5,225.5C 0.354713,220.144 1.35471,214.811 2.5,209.5 Z"/></g>
<g><path style="opacity:0.647" fill="#dc515b" d="M -0.5,267.5 C 1.14457,272.234 1.81124,277.234 1.5,282.5C 0.833333,279.5 0.166667,276.5 -0.5,273.5C -0.5,271.5 -0.5,269.5 -0.5,267.5 Z"/></g>
<g><path style="opacity:1" fill="#d53544" d="M 2.5,291.5 C 3.92381,293.515 4.59047,295.848 4.5,298.5C 69.6688,298.168 134.669,298.501 199.5,299.5C 134.167,299.5 68.8333,299.5 3.5,299.5C 3.16667,296.833 2.83333,294.167 2.5,291.5 Z"/></g>
<g><path style="opacity:1" fill="#d53343" d="M 495.5,296.5 C 495.5,297.5 495.5,298.5 495.5,299.5C 430.167,299.5 364.833,299.5 299.5,299.5C 364.879,299.16 430.212,298.16 495.5,296.5 Z"/></g>
<g><path style="opacity:1" fill="#d53343" d="M 299.5,299.5 C 299.5,364.833 299.5,430.167 299.5,495.5C 298.5,495.5 297.5,495.5 296.5,495.5C 298.16,430.212 299.16,364.879 299.5,299.5 Z"/></g>
<g><path style="opacity:0.993" fill="#fefefe" d="M 3.5,299.5 C 68.8333,299.5 134.167,299.5 199.5,299.5C 199.5,364.833 199.5,430.167 199.5,495.5C 111.156,474.653 49.6565,422.319 15,338.5C 10.3821,325.688 6.54873,312.688 3.5,299.5 Z"/></g>
<g><path style="opacity:1" fill="#d84352" d="M 199.5,299.5 C 199.84,364.879 200.84,430.212 202.5,495.5C 201.5,495.5 200.5,495.5 199.5,495.5C 199.5,430.167 199.5,364.833 199.5,299.5 Z"/></g>
<g><path style="opacity:0.993" fill="#fefefe" d="M 299.5,299.5 C 364.833,299.5 430.167,299.5 495.5,299.5C 474.662,387.835 422.329,449.335 338.5,484C 325.729,488.759 312.729,492.592 299.5,495.5C 299.5,430.167 299.5,364.833 299.5,299.5 Z"/></g>
<g><path style="opacity:0.243" fill="#da4d59" d="M 215.5,497.5 C 221.417,497.216 227.084,497.883 232.5,499.5C 229.833,499.5 227.167,499.5 224.5,499.5C 221.5,498.833 218.5,498.167 215.5,497.5 Z"/></g>
</svg>
