<svg id="svg" version="1.1" xmlns="http://www.w3.org/2000/svg" xmlns:xlink="http://www.w3.org/1999/xlink" width="400" height="400" viewBox="0, 0, 400,400"><g id="svgg"><path id="path0" d="M188.200 0.403 C 186.440 0.593,183.927 0.675,182.616 0.587 C 181.091 0.484,180.129 0.591,179.948 0.884 C 179.783 1.151,178.518 1.358,176.932 1.379 C 175.429 1.399,173.977 1.556,173.704 1.729 C 173.432 1.901,172.127 2.047,170.804 2.053 C 169.482 2.060,168.400 2.213,168.400 2.395 C 168.400 2.992,164.432 3.325,163.779 2.783 C 163.284 2.372,163.225 2.400,163.434 2.943 C 163.684 3.595,163.531 3.671,161.800 3.759 C 161.003 3.800,161.000 4.116,160.899 81.852 C 160.815 146.708,160.707 159.979,160.259 160.351 C 159.867 160.676,138.501 160.825,81.799 160.899 L 3.877 161.000 3.769 162.200 C 3.602 164.058,2.800 168.077,2.499 168.563 C 2.351 168.803,2.277 169.456,2.336 170.014 C 2.394 170.573,2.253 171.833,2.022 172.815 C 1.791 173.797,1.532 175.837,1.446 177.348 C 1.361 178.860,1.136 180.210,0.946 180.348 C 0.049 181.001,0.116 218.570,1.016 220.027 C 1.242 220.391,1.806 224.939,2.208 229.628 C 2.294 230.633,2.553 231.949,2.782 232.554 C 3.012 233.158,3.200 234.234,3.200 234.946 C 3.200 235.658,3.366 236.411,3.569 236.620 C 3.772 236.829,3.997 237.540,4.069 238.200 L 4.200 239.400 82.400 239.600 L 160.600 239.800 160.701 318.100 L 160.802 396.400 161.801 396.400 C 162.350 396.400,162.800 396.577,162.800 396.792 C 162.800 397.025,163.504 397.088,164.527 396.948 C 165.750 396.780,166.421 396.878,166.827 397.283 C 167.168 397.624,168.367 397.895,169.791 397.952 C 171.107 398.005,172.277 398.191,172.391 398.366 C 172.506 398.541,174.010 398.669,175.733 398.651 C 178.215 398.625,178.941 398.751,179.225 399.259 C 179.524 399.793,179.902 399.839,181.492 399.532 C 182.541 399.330,184.570 399.293,186.000 399.450 C 189.588 399.842,210.200 399.849,214.600 399.459 C 216.910 399.254,218.590 399.288,219.288 399.555 C 220.159 399.888,220.446 399.847,220.725 399.349 C 220.948 398.951,221.782 398.679,223.037 398.596 C 225.494 398.433,227.273 398.758,226.934 399.308 C 226.784 399.549,226.870 399.604,227.138 399.438 C 227.392 399.281,227.600 398.893,227.600 398.576 C 227.600 397.995,228.947 397.778,231.356 397.973 C 231.992 398.024,232.655 397.834,232.831 397.550 C 233.006 397.266,233.926 396.999,234.875 396.955 C 236.595 396.876,237.664 396.624,238.800 396.028 C 239.330 395.750,239.412 386.565,239.501 317.656 L 239.602 239.600 317.577 239.600 C 379.524 239.600,395.617 239.497,395.865 239.100 C 396.037 238.825,396.234 238.330,396.302 238.000 C 396.587 236.636,397.222 232.825,397.591 230.274 C 397.807 228.775,398.110 227.346,398.263 227.098 C 398.416 226.850,398.500 225.850,398.450 224.874 C 398.325 222.468,398.738 220.800,399.459 220.800 C 399.906 220.800,399.973 220.577,399.727 219.900 C 399.547 219.405,399.476 216.930,399.569 214.400 C 399.864 206.357,399.793 190.346,399.443 186.123 C 399.219 183.421,399.248 181.637,399.529 180.830 C 399.882 179.818,399.840 179.550,399.279 179.236 C 398.743 178.936,398.604 178.259,398.602 175.929 C 398.601 174.318,398.444 172.886,398.253 172.748 C 398.063 172.609,397.754 171.349,397.567 169.948 C 397.242 167.501,396.605 163.476,396.279 161.800 C 396.125 161.004,395.725 160.999,317.962 160.800 L 239.800 160.600 239.699 82.640 C 239.594 1.566,239.631 3.289,237.985 3.720 C 237.616 3.816,236.973 3.704,236.557 3.471 C 236.141 3.237,235.021 3.013,234.070 2.973 C 233.118 2.932,232.137 2.697,231.890 2.450 C 231.642 2.202,230.426 2.000,229.187 2.000 C 227.947 2.000,226.798 1.865,226.633 1.700 C 226.467 1.535,224.991 1.400,223.351 1.400 C 221.712 1.400,220.242 1.220,220.085 1.000 C 219.928 0.780,218.360 0.565,216.600 0.523 C 201.367 0.158,190.883 0.114,188.200 0.403 " stroke="none" fill="#cc1424" fill-rule="evenodd"></path><path id="path1" d="M240.400 81.120 L 240.400 159.600 318.880 159.600 C 379.920 159.600,397.253 159.493,396.880 159.120 C 396.616 158.856,396.400 157.967,396.400 157.144 C 396.400 156.321,396.220 155.536,396.000 155.400 C 395.780 155.264,395.600 154.454,395.600 153.600 C 395.600 152.746,395.420 151.936,395.200 151.800 C 394.980 151.664,394.800 150.944,394.800 150.200 C 394.800 149.456,394.620 148.736,394.400 148.600 C 394.180 148.464,394.000 147.823,394.000 147.176 C 394.000 146.529,393.820 146.000,393.600 146.000 C 393.380 146.000,393.200 145.280,393.200 144.400 C 393.200 143.520,393.020 142.800,392.800 142.800 C 392.580 142.800,392.400 142.260,392.400 141.600 C 392.400 140.940,392.220 140.400,392.000 140.400 C 391.780 140.400,391.600 139.860,391.600 139.200 C 391.600 138.540,391.420 138.000,391.200 138.000 C 390.980 138.000,390.800 137.460,390.800 136.800 C 390.800 136.140,390.620 135.600,390.400 135.600 C 390.180 135.600,390.000 135.060,390.000 134.400 C 390.000 133.740,389.820 133.200,389.600 133.200 C 389.380 133.200,389.200 132.660,389.200 132.000 C 389.200 131.340,389.020 130.800,388.800 130.800 C 388.580 130.800,388.400 130.334,388.400 129.764 C 388.400 129.192,387.997 128.373,387.500 127.934 C 387.005 127.497,386.825 127.253,387.100 127.393 C 387.375 127.533,387.600 127.457,387.600 127.224 C 387.600 126.991,387.420 126.800,387.200 126.800 C 386.980 126.800,386.800 126.260,386.800 125.600 C 386.800 124.940,386.620 124.400,386.400 124.400 C 386.180 124.400,386.000 124.040,386.000 123.600 C 386.000 123.160,385.820 122.800,385.600 122.800 C 385.380 122.800,385.200 122.361,385.200 121.824 C 385.200 121.287,385.020 120.736,384.800 120.600 C 384.580 120.464,384.400 120.003,384.400 119.576 C 384.400 119.149,384.220 118.800,384.000 118.800 C 383.780 118.800,383.600 118.440,383.600 118.000 C 383.600 117.560,383.420 117.200,383.200 117.200 C 382.980 117.200,382.800 116.840,382.800 116.400 C 382.800 115.960,382.620 115.600,382.400 115.600 C 382.180 115.600,382.000 115.240,382.000 114.800 C 382.000 114.360,381.820 114.000,381.600 114.000 C 381.380 114.000,381.200 113.728,381.200 113.395 C 381.200 113.062,381.043 112.477,380.850 112.095 C 380.658 111.713,380.091 110.590,379.590 109.600 C 379.090 108.610,378.483 107.396,378.240 106.903 C 377.998 106.410,377.665 106.005,377.500 106.003 C 377.335 106.001,377.200 105.640,377.200 105.200 C 377.200 104.760,377.020 104.400,376.800 104.400 C 376.580 104.400,376.400 104.040,376.400 103.600 C 376.400 103.160,376.220 102.800,376.000 102.800 C 375.780 102.800,375.600 102.440,375.600 102.000 C 375.600 101.560,375.420 101.200,375.200 101.200 C 374.980 101.200,374.800 100.964,374.800 100.675 C 374.800 100.387,374.440 99.764,374.000 99.292 C 373.560 98.820,373.200 98.156,373.200 97.817 C 373.200 97.478,373.020 97.200,372.800 97.200 C 372.580 97.200,372.400 96.880,372.400 96.488 C 372.400 96.097,372.040 95.517,371.600 95.200 C 371.160 94.883,370.800 94.303,370.800 93.912 C 370.800 93.520,370.620 93.200,370.400 93.200 C 370.180 93.200,370.000 92.964,370.000 92.675 C 370.000 92.387,369.685 91.802,369.300 91.375 C 368.915 90.949,368.345 90.105,368.032 89.500 C 367.720 88.895,367.315 88.400,367.132 88.400 C 366.950 88.400,366.800 88.175,366.799 87.900 C 366.799 87.625,366.259 86.770,365.600 86.000 C 364.941 85.230,364.401 84.415,364.401 84.188 C 364.400 83.962,364.040 83.517,363.600 83.200 C 363.160 82.883,362.800 82.385,362.800 82.094 C 362.800 81.472,361.021 79.600,360.431 79.600 C 360.208 79.600,360.129 79.330,360.255 79.000 C 360.394 78.639,359.992 77.940,359.243 77.240 C 358.559 76.601,358.000 75.903,358.000 75.688 C 358.000 75.217,354.934 72.000,354.486 72.000 C 354.312 72.000,354.143 71.641,354.110 71.202 C 354.077 70.764,352.999 69.369,351.715 68.102 C 350.431 66.836,348.936 65.170,348.393 64.400 C 347.111 62.583,337.417 52.889,335.600 51.607 C 334.830 51.064,333.175 49.580,331.922 48.310 C 330.593 46.962,329.297 46.000,328.810 46.000 C 328.351 46.000,327.857 45.685,327.714 45.300 C 327.413 44.493,324.820 42.000,324.282 42.000 C 324.084 42.000,323.417 41.460,322.800 40.800 C 322.183 40.140,321.463 39.600,321.200 39.600 C 320.937 39.600,320.217 39.060,319.600 38.400 C 318.983 37.740,318.231 37.200,317.928 37.200 C 317.625 37.200,317.117 36.840,316.800 36.400 C 316.483 35.960,315.991 35.600,315.708 35.600 C 315.425 35.600,314.628 35.060,313.937 34.400 C 313.246 33.740,312.521 33.200,312.324 33.200 C 312.127 33.200,311.580 32.840,311.108 32.400 C 310.636 31.960,310.013 31.600,309.725 31.600 C 309.436 31.600,309.200 31.420,309.200 31.200 C 309.200 30.980,308.964 30.800,308.675 30.800 C 308.387 30.800,307.764 30.440,307.292 30.000 C 306.820 29.560,306.156 29.200,305.817 29.200 C 305.478 29.200,305.200 29.020,305.200 28.800 C 305.200 28.580,304.964 28.400,304.675 28.400 C 304.387 28.400,303.764 28.040,303.292 27.600 C 302.820 27.160,302.238 26.800,302.000 26.800 C 301.762 26.800,301.180 26.440,300.708 26.000 C 300.236 25.560,299.613 25.200,299.325 25.200 C 299.036 25.200,298.800 25.020,298.800 24.800 C 298.800 24.580,298.440 24.400,298.000 24.400 C 297.560 24.400,297.200 24.220,297.200 24.000 C 297.200 23.780,296.840 23.600,296.400 23.600 C 295.960 23.600,295.600 23.420,295.600 23.200 C 295.600 22.980,295.240 22.800,294.800 22.800 C 294.360 22.800,294.000 22.620,294.000 22.400 C 294.000 22.180,293.655 22.000,293.233 22.000 C 292.812 22.000,292.407 21.865,292.333 21.700 C 292.141 21.268,288.828 19.600,288.162 19.600 C 287.853 19.600,287.600 19.420,287.600 19.200 C 287.600 18.980,287.240 18.800,286.800 18.800 C 286.360 18.800,286.000 18.620,286.000 18.400 C 286.000 18.180,285.640 18.000,285.200 18.000 C 284.760 18.000,284.400 17.820,284.400 17.600 C 284.400 17.380,284.040 17.200,283.600 17.200 C 283.160 17.200,282.800 17.020,282.800 16.800 C 282.800 16.580,282.440 16.400,282.000 16.400 C 281.560 16.400,281.200 16.220,281.200 16.000 C 281.200 15.780,280.761 15.600,280.224 15.600 C 279.687 15.600,279.136 15.420,279.000 15.200 C 278.864 14.980,278.403 14.800,277.976 14.800 C 277.549 14.800,277.200 14.620,277.200 14.400 C 277.200 14.180,276.761 14.000,276.224 14.000 C 275.687 14.000,275.136 13.820,275.000 13.600 C 274.864 13.380,274.403 13.200,273.976 13.200 C 273.549 13.200,273.200 13.020,273.200 12.800 C 273.200 12.580,272.851 12.400,272.424 12.400 C 271.997 12.400,271.536 12.220,271.400 12.000 C 271.264 11.780,270.713 11.600,270.176 11.600 C 269.639 11.600,269.200 11.420,269.200 11.200 C 269.200 10.980,268.919 10.800,268.576 10.800 C 268.233 10.800,268.072 10.993,268.218 11.230 C 268.364 11.466,268.105 11.422,267.642 11.133 C 267.179 10.844,266.800 10.471,266.800 10.304 C 266.800 10.137,266.260 10.000,265.600 10.000 C 264.940 10.000,264.400 9.820,264.400 9.600 C 264.400 9.380,263.860 9.200,263.200 9.200 C 262.540 9.200,262.000 9.020,262.000 8.800 C 262.000 8.580,261.460 8.400,260.800 8.400 C 260.140 8.400,259.600 8.220,259.600 8.000 C 259.600 7.780,259.071 7.600,258.424 7.600 C 257.777 7.600,257.136 7.420,257.000 7.200 C 256.864 6.980,256.133 6.800,255.376 6.800 C 254.619 6.800,254.000 6.614,254.000 6.387 C 254.000 6.161,253.338 6.020,252.529 6.074 C 251.651 6.133,250.992 5.977,250.896 5.687 C 250.806 5.419,250.129 5.200,249.390 5.200 C 248.652 5.200,247.936 5.020,247.800 4.800 C 247.664 4.580,246.843 4.400,245.976 4.400 C 245.109 4.400,244.400 4.220,244.400 4.000 C 244.400 3.780,243.716 3.600,242.880 3.600 C 242.044 3.600,241.144 3.384,240.880 3.120 C 240.507 2.747,240.400 20.080,240.400 81.120 M157.500 3.494 C 156.455 3.576,155.600 3.814,155.600 4.022 C 155.600 4.230,154.880 4.400,154.000 4.400 C 153.120 4.400,152.400 4.580,152.400 4.800 C 152.400 5.020,151.695 5.200,150.833 5.200 C 149.972 5.200,149.197 5.408,149.112 5.663 C 149.027 5.918,148.386 6.110,147.686 6.090 C 146.986 6.070,146.310 6.222,146.183 6.427 C 146.057 6.632,145.328 6.800,144.564 6.800 C 143.782 6.800,143.086 7.031,142.972 7.328 C 142.844 7.662,142.332 7.793,141.585 7.683 C 140.877 7.579,140.400 7.689,140.400 7.955 C 140.400 8.200,139.860 8.400,139.200 8.400 C 138.540 8.400,138.000 8.580,138.000 8.800 C 138.000 9.020,137.460 9.200,136.800 9.200 C 136.140 9.200,135.600 9.380,135.600 9.600 C 135.600 9.820,135.060 10.000,134.400 10.000 C 133.740 10.000,133.200 10.180,133.200 10.400 C 133.200 10.620,132.660 10.800,132.000 10.800 C 131.340 10.800,130.800 10.980,130.800 11.200 C 130.800 11.420,130.451 11.600,130.024 11.600 C 129.597 11.600,129.136 11.780,129.000 12.000 C 128.864 12.220,128.313 12.400,127.776 12.400 C 127.239 12.400,126.800 12.580,126.800 12.800 C 126.800 13.020,126.440 13.200,126.000 13.200 C 125.560 13.200,125.199 13.335,125.197 13.500 C 125.195 13.665,124.745 14.008,124.196 14.263 C 123.648 14.517,123.300 14.562,123.423 14.363 C 123.546 14.163,123.457 14.000,123.224 14.000 C 122.991 14.000,122.800 14.180,122.800 14.400 C 122.800 14.620,122.440 14.800,122.000 14.800 C 121.560 14.800,121.200 14.980,121.200 15.200 C 121.200 15.420,120.660 15.600,120.000 15.600 C 119.340 15.600,118.800 15.780,118.800 16.000 C 118.800 16.220,118.440 16.400,118.000 16.400 C 117.560 16.400,117.200 16.580,117.200 16.800 C 117.200 17.020,116.840 17.200,116.400 17.200 C 115.960 17.200,115.600 17.380,115.600 17.600 C 115.600 17.820,115.240 18.000,114.800 18.000 C 114.360 18.000,114.000 18.180,114.000 18.400 C 114.000 18.620,113.640 18.800,113.200 18.800 C 112.760 18.800,112.400 18.980,112.400 19.200 C 112.400 19.420,112.040 19.600,111.600 19.600 C 111.160 19.600,110.800 19.780,110.800 20.000 C 110.800 20.220,110.440 20.400,110.000 20.400 C 109.560 20.400,109.200 20.580,109.200 20.800 C 109.200 21.020,108.840 21.200,108.400 21.200 C 107.960 21.200,107.600 21.380,107.600 21.600 C 107.600 21.820,107.240 22.000,106.800 22.000 C 106.360 22.000,106.000 22.180,106.000 22.400 C 106.000 22.620,105.640 22.800,105.200 22.800 C 104.760 22.800,104.400 22.980,104.400 23.200 C 104.400 23.420,104.040 23.600,103.600 23.600 C 103.160 23.600,102.800 23.780,102.800 24.000 C 102.800 24.220,102.522 24.400,102.183 24.400 C 101.844 24.400,101.180 24.760,100.708 25.200 C 100.236 25.640,99.613 26.000,99.325 26.000 C 99.036 26.000,98.800 26.180,98.800 26.400 C 98.800 26.620,98.480 26.800,98.088 26.800 C 97.697 26.800,97.117 27.160,96.800 27.600 C 96.483 28.040,95.903 28.400,95.512 28.400 C 95.120 28.400,94.800 28.580,94.800 28.800 C 94.800 29.020,94.480 29.200,94.088 29.200 C 93.697 29.200,93.117 29.560,92.800 30.000 C 92.483 30.440,91.903 30.800,91.512 30.800 C 91.120 30.800,90.800 30.950,90.800 31.132 C 90.800 31.315,90.305 31.719,89.700 32.030 C 89.095 32.340,88.309 32.911,87.953 33.297 C 87.597 33.684,87.052 34.000,86.741 34.000 C 86.431 34.000,85.917 34.360,85.600 34.800 C 85.283 35.240,84.743 35.600,84.400 35.600 C 84.057 35.600,83.517 35.960,83.200 36.400 C 82.883 36.840,82.420 37.200,82.171 37.200 C 81.922 37.200,81.154 37.740,80.463 38.400 C 79.772 39.060,79.047 39.600,78.852 39.600 C 78.656 39.600,77.755 40.320,76.848 41.200 C 75.941 42.080,75.013 42.800,74.786 42.800 C 74.217 42.800,71.822 45.243,71.456 46.198 C 71.231 46.783,71.077 46.849,70.838 46.461 C 70.608 46.089,69.740 46.712,67.747 48.682 C 66.223 50.188,64.352 51.864,63.588 52.407 C 61.155 54.138,53.151 62.397,53.446 62.874 C 53.605 63.131,53.545 63.213,53.306 63.065 C 53.076 62.923,52.588 63.264,52.222 63.823 C 51.856 64.381,50.294 66.116,48.750 67.678 C 46.733 69.719,46.089 70.608,46.461 70.838 C 46.849 71.077,46.783 71.231,46.198 71.456 C 45.243 71.822,42.800 74.217,42.800 74.786 C 42.800 75.013,42.080 75.941,41.200 76.848 C 40.320 77.755,39.600 78.656,39.600 78.852 C 39.600 79.047,39.060 79.772,38.400 80.463 C 37.740 81.154,37.200 81.922,37.200 82.171 C 37.200 82.420,36.840 82.883,36.400 83.200 C 35.960 83.517,35.600 84.097,35.600 84.488 C 35.600 84.880,35.420 85.200,35.200 85.200 C 34.980 85.200,34.800 85.468,34.800 85.797 C 34.800 86.125,34.302 86.890,33.692 87.497 C 33.083 88.103,32.333 89.095,32.025 89.700 C 31.717 90.305,31.315 90.800,31.132 90.800 C 30.950 90.800,30.800 91.120,30.800 91.512 C 30.800 91.903,30.440 92.483,30.000 92.800 C 29.560 93.117,29.200 93.697,29.200 94.088 C 29.200 94.480,29.020 94.800,28.800 94.800 C 28.580 94.800,28.400 95.120,28.400 95.512 C 28.400 95.903,28.040 96.483,27.600 96.800 C 27.160 97.117,26.800 97.697,26.800 98.088 C 26.800 98.480,26.620 98.800,26.400 98.800 C 26.180 98.800,26.000 99.036,26.000 99.325 C 26.000 99.613,25.640 100.236,25.200 100.708 C 24.760 101.180,24.400 101.844,24.400 102.183 C 24.400 102.522,24.220 102.800,24.000 102.800 C 23.780 102.800,23.600 103.160,23.600 103.600 C 23.600 104.040,23.420 104.400,23.200 104.400 C 22.980 104.400,22.800 104.760,22.800 105.200 C 22.800 105.640,22.620 106.000,22.400 106.000 C 22.180 106.000,22.000 106.360,22.000 106.800 C 22.000 107.240,21.820 107.600,21.600 107.600 C 21.380 107.600,21.200 107.960,21.200 108.400 C 21.200 108.840,21.065 109.201,20.900 109.203 C 20.541 109.207,19.600 111.144,19.600 111.880 C 19.600 112.166,19.420 112.400,19.200 112.400 C 18.980 112.400,18.800 112.760,18.800 113.200 C 18.800 113.640,18.620 114.000,18.400 114.000 C 18.180 114.000,18.000 114.360,18.000 114.800 C 18.000 115.240,17.820 115.600,17.600 115.600 C 17.380 115.600,17.200 115.960,17.200 116.400 C 17.200 116.840,17.020 117.200,16.800 117.200 C 16.580 117.200,16.400 117.560,16.400 118.000 C 16.400 118.440,16.220 118.800,16.000 118.800 C 15.780 118.800,15.600 119.239,15.600 119.776 C 15.600 120.313,15.420 120.864,15.200 121.000 C 14.980 121.136,14.800 121.597,14.800 122.024 C 14.800 122.451,14.620 122.800,14.400 122.800 C 14.180 122.800,14.000 123.340,14.000 124.000 C 14.000 124.660,13.820 125.200,13.600 125.200 C 13.380 125.200,13.200 125.560,13.200 126.000 C 13.200 126.440,13.001 126.800,12.757 126.800 C 12.514 126.800,12.413 127.057,12.533 127.371 C 12.654 127.685,12.493 128.157,12.176 128.420 C 11.859 128.683,11.600 129.311,11.600 129.816 C 11.600 130.320,11.375 130.825,11.100 130.936 C 10.700 131.098,10.700 131.210,11.101 131.494 C 11.485 131.766,11.415 132.047,10.801 132.707 C 10.360 133.180,10.000 134.024,10.000 134.583 C 10.000 135.142,9.820 135.600,9.600 135.600 C 9.380 135.600,9.200 136.140,9.200 136.800 C 9.200 137.460,9.020 138.000,8.800 138.000 C 8.580 138.000,8.400 138.540,8.400 139.200 C 8.400 139.860,8.199 140.400,7.953 140.400 C 7.693 140.400,7.586 140.816,7.697 141.397 C 7.806 141.965,7.654 142.590,7.344 142.846 C 7.045 143.095,6.800 143.895,6.800 144.625 C 6.800 145.355,6.620 146.064,6.400 146.200 C 6.180 146.336,6.000 146.966,6.000 147.600 C 6.000 148.234,5.820 148.864,5.600 149.000 C 5.380 149.136,5.200 149.766,5.200 150.400 C 5.200 151.034,5.020 151.664,4.800 151.800 C 4.580 151.936,4.400 152.847,4.400 153.824 C 4.400 154.801,4.220 155.600,4.000 155.600 C 3.780 155.600,3.600 156.284,3.600 157.120 C 3.600 157.956,3.384 158.856,3.120 159.120 C 2.747 159.493,20.080 159.600,81.120 159.600 L 159.600 159.600 159.600 81.400 C 159.600 38.390,159.555 3.232,159.500 3.272 C 159.445 3.312,158.545 3.412,157.500 3.494 M3.120 240.880 C 3.384 241.144,3.600 242.044,3.600 242.880 C 3.600 243.716,3.780 244.400,4.000 244.400 C 4.220 244.400,4.400 245.199,4.400 246.176 C 4.400 247.153,4.580 248.064,4.800 248.200 C 5.020 248.336,5.200 249.056,5.200 249.800 C 5.200 250.544,5.380 251.264,5.600 251.400 C 5.820 251.536,6.000 252.076,6.000 252.600 C 6.000 253.124,6.180 253.664,6.400 253.800 C 6.620 253.936,6.800 254.757,6.800 255.624 C 6.800 256.491,6.980 257.200,7.200 257.200 C 7.420 257.200,7.600 257.740,7.600 258.400 C 7.600 259.060,7.780 259.600,8.000 259.600 C 8.220 259.600,8.400 260.140,8.400 260.800 C 8.400 261.460,8.580 262.000,8.800 262.000 C 9.020 262.000,9.200 262.540,9.200 263.200 C 9.200 263.860,9.380 264.400,9.600 264.400 C 9.820 264.400,10.000 264.940,10.000 265.600 C 10.000 266.260,10.180 266.800,10.400 266.800 C 10.620 266.800,10.800 267.070,10.800 267.400 C 10.800 267.730,11.025 268.003,11.300 268.006 C 11.639 268.010,11.607 268.149,11.200 268.437 C 10.748 268.756,10.724 268.911,11.100 269.064 C 11.375 269.175,11.600 269.691,11.600 270.210 C 11.600 270.728,11.780 271.264,12.000 271.400 C 12.220 271.536,12.400 271.997,12.400 272.424 C 12.400 272.851,12.580 273.200,12.800 273.200 C 13.020 273.200,13.200 273.560,13.200 274.000 C 13.200 274.440,13.380 274.800,13.600 274.800 C 13.820 274.800,14.000 275.340,14.000 276.000 C 14.000 276.660,14.180 277.200,14.400 277.200 C 14.620 277.200,14.800 277.639,14.800 278.176 C 14.800 278.713,14.980 279.264,15.200 279.400 C 15.420 279.536,15.600 279.997,15.600 280.424 C 15.600 280.851,15.780 281.200,16.000 281.200 C 16.220 281.200,16.400 281.560,16.400 282.000 C 16.400 282.440,16.580 282.800,16.800 282.800 C 17.020 282.800,17.200 283.160,17.200 283.600 C 17.200 284.040,17.380 284.400,17.600 284.400 C 17.820 284.400,18.000 284.653,18.000 284.962 C 18.000 285.496,18.509 286.643,20.460 290.500 C 20.932 291.435,21.517 292.604,21.760 293.097 C 22.002 293.590,22.335 293.995,22.500 293.997 C 22.665 293.999,22.800 294.360,22.800 294.800 C 22.800 295.240,22.980 295.600,23.200 295.600 C 23.420 295.600,23.600 295.960,23.600 296.400 C 23.600 296.840,23.780 297.200,24.000 297.200 C 24.220 297.200,24.400 297.560,24.400 298.000 C 24.400 298.440,24.580 298.800,24.800 298.800 C 25.020 298.800,25.200 299.036,25.200 299.325 C 25.200 299.613,25.560 300.236,26.000 300.708 C 26.440 301.180,26.800 301.762,26.800 302.000 C 26.800 302.238,27.160 302.820,27.600 303.292 C 28.040 303.764,28.400 304.387,28.400 304.675 C 28.400 304.964,28.580 305.200,28.800 305.200 C 29.020 305.200,29.200 305.478,29.200 305.817 C 29.200 306.156,29.560 306.820,30.000 307.292 C 30.440 307.764,30.800 308.387,30.800 308.675 C 30.800 308.964,30.980 309.200,31.200 309.200 C 31.420 309.200,31.600 309.436,31.600 309.725 C 31.600 310.013,31.924 310.598,32.320 311.025 C 32.716 311.451,33.165 312.126,33.317 312.525 C 33.470 312.924,33.763 313.146,33.970 313.019 C 34.176 312.891,34.475 312.998,34.634 313.255 C 34.815 313.548,34.750 313.616,34.462 313.438 C 34.208 313.281,34.000 313.343,34.000 313.576 C 34.000 313.809,34.150 314.000,34.332 314.000 C 34.515 314.000,34.919 314.495,35.230 315.100 C 35.540 315.705,36.111 316.491,36.497 316.847 C 36.884 317.203,37.200 317.706,37.200 317.965 C 37.200 318.542,39.008 320.400,39.569 320.400 C 39.792 320.400,39.871 320.670,39.745 321.000 C 39.606 321.361,40.008 322.060,40.757 322.760 C 41.441 323.399,42.000 324.084,42.000 324.282 C 42.000 324.820,44.493 327.413,45.300 327.714 C 45.685 327.857,46.000 328.351,46.000 328.810 C 46.000 329.301,46.986 330.612,48.400 332.000 C 49.720 333.296,50.800 334.532,50.800 334.748 C 50.800 335.403,59.114 343.600,59.779 343.600 C 60.121 343.600,60.400 343.878,60.400 344.218 C 60.400 345.087,62.311 346.902,62.865 346.560 C 63.155 346.380,63.214 346.454,63.025 346.760 C 62.739 347.222,64.600 349.198,65.322 349.200 C 65.499 349.200,66.704 350.280,68.000 351.600 C 69.296 352.920,70.514 354.000,70.707 354.000 C 70.900 354.000,72.022 354.900,73.200 356.000 C 74.378 357.100,75.507 358.000,75.710 358.000 C 75.913 358.000,76.601 358.559,77.240 359.243 C 77.940 359.992,78.639 360.394,79.000 360.255 C 79.330 360.129,79.600 360.208,79.600 360.431 C 79.600 361.021,81.472 362.800,82.094 362.800 C 82.385 362.800,82.883 363.160,83.200 363.600 C 83.517 364.040,83.962 364.400,84.188 364.401 C 84.415 364.401,85.230 364.941,86.000 365.600 C 86.770 366.259,87.625 366.799,87.900 366.799 C 88.175 366.800,88.400 366.950,88.400 367.132 C 88.400 367.315,88.895 367.720,89.500 368.032 C 90.105 368.345,90.949 368.915,91.375 369.300 C 91.802 369.685,92.387 370.000,92.675 370.000 C 92.964 370.000,93.200 370.180,93.200 370.400 C 93.200 370.620,93.520 370.800,93.912 370.800 C 94.303 370.800,94.883 371.160,95.200 371.600 C 95.517 372.040,96.097 372.400,96.488 372.400 C 96.880 372.400,97.200 372.580,97.200 372.800 C 97.200 373.020,97.520 373.200,97.912 373.200 C 98.303 373.200,98.883 373.560,99.200 374.000 C 99.517 374.440,100.097 374.800,100.488 374.800 C 100.880 374.800,101.200 374.980,101.200 375.200 C 101.200 375.420,101.560 375.600,102.000 375.600 C 102.440 375.600,102.800 375.780,102.800 376.000 C 102.800 376.220,103.160 376.400,103.600 376.400 C 104.040 376.400,104.400 376.580,104.400 376.800 C 104.400 377.020,104.760 377.200,105.200 377.200 C 105.640 377.200,106.001 377.335,106.003 377.500 C 106.005 377.665,106.410 377.998,106.903 378.240 C 107.396 378.483,108.610 379.090,109.600 379.590 C 110.590 380.091,111.713 380.658,112.095 380.850 C 112.477 381.043,113.062 381.200,113.395 381.200 C 113.728 381.200,114.000 381.380,114.000 381.600 C 114.000 381.820,114.360 382.000,114.800 382.000 C 115.240 382.000,115.600 382.180,115.600 382.400 C 115.600 382.620,115.960 382.800,116.400 382.800 C 116.840 382.800,117.200 382.980,117.200 383.200 C 117.200 383.420,117.560 383.600,118.000 383.600 C 118.440 383.600,118.800 383.780,118.800 384.000 C 118.800 384.220,119.149 384.400,119.576 384.400 C 120.003 384.400,120.464 384.580,120.600 384.800 C 120.736 385.020,121.287 385.200,121.824 385.200 C 122.361 385.200,122.800 385.380,122.800 385.600 C 122.800 385.820,122.991 386.000,123.224 386.000 C 123.457 386.000,123.533 385.775,123.393 385.500 C 123.253 385.225,123.497 385.405,123.934 385.900 C 124.373 386.397,125.192 386.800,125.764 386.800 C 126.334 386.800,126.800 386.980,126.800 387.200 C 126.800 387.420,127.160 387.600,127.600 387.600 C 128.040 387.600,128.400 387.780,128.400 388.000 C 128.400 388.220,128.940 388.400,129.600 388.400 C 130.260 388.400,130.800 388.580,130.800 388.800 C 130.800 389.020,131.340 389.200,132.000 389.200 C 132.660 389.200,133.200 389.380,133.200 389.600 C 133.200 389.820,133.740 390.000,134.400 390.000 C 135.060 390.000,135.600 390.180,135.600 390.400 C 135.600 390.620,136.140 390.800,136.800 390.800 C 137.460 390.800,138.000 390.980,138.000 391.200 C 138.000 391.420,138.540 391.600,139.200 391.600 C 139.860 391.600,140.400 391.780,140.400 392.000 C 140.400 392.220,140.940 392.400,141.600 392.400 C 142.260 392.400,142.800 392.580,142.800 392.800 C 142.800 393.020,143.520 393.200,144.400 393.200 C 145.280 393.200,146.000 393.380,146.000 393.600 C 146.000 393.820,146.529 394.000,147.176 394.000 C 147.823 394.000,148.464 394.180,148.600 394.400 C 148.736 394.620,149.456 394.800,150.200 394.800 C 150.944 394.800,151.664 394.980,151.800 395.200 C 151.936 395.420,152.746 395.600,153.600 395.600 C 154.454 395.600,155.264 395.780,155.400 396.000 C 155.536 396.220,156.357 396.400,157.224 396.400 C 158.091 396.400,158.800 396.580,158.800 396.800 C 158.800 397.020,158.980 397.200,159.200 397.200 C 159.465 397.200,159.600 370.800,159.600 318.800 L 159.600 240.400 81.120 240.400 C 20.080 240.400,2.747 240.507,3.120 240.880 M240.670 240.664 C 240.216 241.117,240.346 397.200,240.800 397.200 C 241.020 397.200,241.200 397.020,241.200 396.800 C 241.200 396.580,241.999 396.400,242.976 396.400 C 243.953 396.400,244.864 396.220,245.000 396.000 C 245.136 395.780,245.957 395.600,246.824 395.600 C 247.691 395.600,248.400 395.420,248.400 395.200 C 248.400 394.980,249.019 394.800,249.776 394.800 C 250.533 394.800,251.264 394.620,251.400 394.400 C 251.536 394.180,252.166 394.000,252.800 394.000 C 253.434 394.000,254.064 393.820,254.200 393.600 C 254.336 393.380,255.067 393.200,255.824 393.200 C 256.581 393.200,257.200 393.020,257.200 392.800 C 257.200 392.580,257.740 392.400,258.400 392.400 C 259.060 392.400,259.600 392.220,259.600 392.000 C 259.600 391.780,260.140 391.600,260.800 391.600 C 261.460 391.600,262.000 391.420,262.000 391.200 C 262.000 390.980,262.540 390.800,263.200 390.800 C 263.860 390.800,264.400 390.620,264.400 390.400 C 264.400 390.180,264.940 390.000,265.600 390.000 C 266.260 390.000,266.800 389.820,266.800 389.600 C 266.800 389.380,267.340 389.200,268.000 389.200 C 268.660 389.200,269.200 389.020,269.200 388.800 C 269.200 388.580,269.740 388.400,270.400 388.400 C 271.060 388.400,271.600 388.220,271.600 388.000 C 271.600 387.780,271.960 387.600,272.400 387.600 C 272.840 387.600,273.200 387.420,273.200 387.200 C 273.200 386.980,273.740 386.800,274.400 386.800 C 275.060 386.800,275.600 386.620,275.600 386.400 C 275.600 386.180,275.960 386.000,276.400 386.000 C 276.840 386.000,277.200 385.820,277.200 385.600 C 277.200 385.380,277.740 385.200,278.400 385.200 C 279.060 385.200,279.600 385.020,279.600 384.800 C 279.600 384.580,279.960 384.400,280.400 384.400 C 280.840 384.400,281.200 384.220,281.200 384.000 C 281.200 383.780,281.560 383.600,282.000 383.600 C 282.440 383.600,282.800 383.420,282.800 383.200 C 282.800 382.980,283.160 382.800,283.600 382.800 C 284.040 382.800,284.400 382.620,284.400 382.400 C 284.400 382.180,284.755 382.000,285.188 382.000 C 285.621 382.000,286.617 381.640,287.400 381.200 C 288.183 380.760,289.074 380.400,289.379 380.400 C 289.684 380.400,289.993 380.265,290.067 380.100 C 290.140 379.935,291.055 379.367,292.100 378.837 C 293.145 378.308,294.000 377.723,294.000 377.537 C 294.000 377.352,294.360 377.200,294.800 377.200 C 295.240 377.200,295.600 377.020,295.600 376.800 C 295.600 376.580,295.960 376.400,296.400 376.400 C 296.840 376.400,297.200 376.220,297.200 376.000 C 297.200 375.780,297.560 375.600,298.000 375.600 C 298.440 375.600,298.800 375.420,298.800 375.200 C 298.800 374.980,299.120 374.800,299.512 374.800 C 299.903 374.800,300.483 374.440,300.800 374.000 C 301.117 373.560,301.697 373.200,302.088 373.200 C 302.480 373.200,302.800 373.020,302.800 372.800 C 302.800 372.580,303.120 372.400,303.512 372.400 C 303.903 372.400,304.483 372.040,304.800 371.600 C 305.117 371.160,305.697 370.800,306.088 370.800 C 306.480 370.800,306.800 370.620,306.800 370.400 C 306.800 370.180,307.036 370.000,307.325 370.000 C 307.613 370.000,308.236 369.640,308.708 369.200 C 309.180 368.760,309.804 368.400,310.095 368.400 C 310.386 368.400,310.883 368.040,311.200 367.600 C 311.517 367.160,312.057 366.800,312.400 366.800 C 312.743 366.800,313.283 366.440,313.600 366.000 C 313.917 365.560,314.380 365.200,314.629 365.200 C 314.878 365.200,315.646 364.660,316.337 364.000 C 317.028 363.340,317.792 362.800,318.036 362.800 C 318.280 362.800,318.983 362.260,319.600 361.600 C 320.217 360.940,320.937 360.400,321.200 360.400 C 321.463 360.400,322.183 359.860,322.800 359.200 C 323.417 358.540,324.133 358.000,324.392 358.000 C 324.651 358.000,325.554 357.280,326.400 356.400 C 327.246 355.520,328.118 354.800,328.338 354.800 C 328.558 354.800,330.014 353.540,331.572 352.000 C 333.131 350.460,334.564 349.200,334.756 349.200 C 335.481 349.200,340.449 344.003,340.165 343.543 C 339.986 343.255,340.050 343.184,340.332 343.358 C 340.589 343.517,341.407 343.020,342.213 342.213 C 343.020 341.407,343.517 340.589,343.358 340.332 C 343.184 340.050,343.255 339.986,343.543 340.165 C 344.003 340.449,349.200 335.481,349.200 334.756 C 349.200 334.564,350.460 333.131,352.000 331.572 C 353.540 330.014,354.800 328.558,354.800 328.338 C 354.800 328.118,355.520 327.246,356.400 326.400 C 357.280 325.554,358.000 324.651,358.000 324.392 C 358.000 324.133,358.565 323.393,359.255 322.749 C 359.945 322.104,360.409 321.475,360.285 321.352 C 360.162 321.228,360.677 320.529,361.430 319.797 C 362.184 319.065,362.800 318.270,362.800 318.030 C 362.800 317.789,363.340 317.028,364.000 316.337 C 364.660 315.646,365.200 314.878,365.200 314.629 C 365.200 314.380,365.560 313.917,366.000 313.600 C 366.440 313.283,366.800 312.743,366.800 312.400 C 366.800 312.057,367.160 311.517,367.600 311.200 C 368.040 310.883,368.400 310.386,368.400 310.095 C 368.400 309.804,368.760 309.180,369.200 308.708 C 369.640 308.236,370.000 307.613,370.000 307.325 C 370.000 307.036,370.180 306.800,370.400 306.800 C 370.620 306.800,370.800 306.480,370.800 306.088 C 370.800 305.697,371.160 305.117,371.600 304.800 C 372.040 304.483,372.400 303.903,372.400 303.512 C 372.400 303.120,372.580 302.800,372.800 302.800 C 373.020 302.800,373.200 302.480,373.200 302.088 C 373.200 301.697,373.560 301.117,374.000 300.800 C 374.440 300.483,374.800 299.903,374.800 299.512 C 374.800 299.120,374.980 298.800,375.200 298.800 C 375.420 298.800,375.600 298.440,375.600 298.000 C 375.600 297.560,375.780 297.200,376.000 297.200 C 376.220 297.200,376.400 296.855,376.400 296.433 C 376.400 296.012,376.535 295.607,376.700 295.533 C 377.124 295.345,378.106 293.583,380.230 289.200 C 381.243 287.110,382.235 285.087,382.436 284.705 C 382.636 284.323,382.800 283.738,382.800 283.405 C 382.800 283.072,382.980 282.800,383.200 282.800 C 383.420 282.800,383.600 282.440,383.600 282.000 C 383.600 281.560,383.780 281.200,384.000 281.200 C 384.220 281.200,384.400 280.840,384.400 280.400 C 384.400 279.960,384.580 279.600,384.800 279.600 C 385.020 279.600,385.200 279.060,385.200 278.400 C 385.200 277.740,385.380 277.200,385.600 277.200 C 385.820 277.200,386.000 276.840,386.000 276.400 C 386.000 275.960,386.180 275.600,386.400 275.600 C 386.620 275.600,386.800 274.882,386.800 274.003 C 386.800 272.840,387.017 272.271,387.600 271.907 C 388.086 271.604,388.400 270.974,388.400 270.304 C 388.400 269.697,388.580 269.200,388.800 269.200 C 389.020 269.200,389.197 268.885,389.194 268.500 C 389.189 267.902,389.131 267.887,388.800 268.400 C 388.587 268.730,388.409 268.809,388.406 268.575 C 388.403 268.342,388.760 267.764,389.200 267.292 C 389.640 266.820,390.000 266.077,390.000 265.640 C 390.000 265.204,390.180 264.736,390.400 264.600 C 390.620 264.464,390.800 263.924,390.800 263.400 C 390.800 262.876,390.980 262.336,391.200 262.200 C 391.420 262.064,391.600 261.423,391.600 260.776 C 391.600 260.129,391.780 259.600,392.000 259.600 C 392.220 259.600,392.400 259.060,392.400 258.400 C 392.400 257.740,392.580 257.200,392.800 257.200 C 393.020 257.200,393.200 256.581,393.200 255.824 C 393.200 255.067,393.380 254.336,393.600 254.200 C 393.820 254.064,394.000 253.434,394.000 252.800 C 394.000 252.166,394.180 251.536,394.400 251.400 C 394.620 251.264,394.800 250.544,394.800 249.800 C 394.800 249.056,394.980 248.336,395.200 248.200 C 395.420 248.064,395.600 247.344,395.600 246.600 C 395.600 245.856,395.780 245.136,396.000 245.000 C 396.220 244.864,396.400 243.953,396.400 242.976 C 396.400 241.999,396.580 241.200,396.800 241.200 C 397.020 241.200,397.200 241.023,397.200 240.806 C 397.200 240.358,241.117 240.216,240.670 240.664 " stroke="none" fill="#fcfcfc" fill-rule="evenodd"></path><path id="path2" d="M180.502 0.236 C 180.921 0.654,184.914 0.754,188.200 0.429 C 191.264 0.125,191.163 0.110,185.833 0.056 C 182.772 0.025,180.373 0.106,180.502 0.236 M208.834 0.168 C 209.212 0.545,219.185 0.749,219.410 0.384 C 219.557 0.146,217.562 0.000,214.157 0.000 C 211.137 0.000,208.742 0.076,208.834 0.168 M173.800 0.800 C 173.664 1.020,172.314 1.200,170.800 1.200 C 169.286 1.200,167.936 1.380,167.800 1.600 C 167.664 1.820,166.648 2.000,165.543 2.000 C 164.108 2.000,163.584 2.143,163.710 2.500 C 163.914 3.081,168.006 3.035,168.372 2.448 C 168.498 2.247,169.654 2.071,170.941 2.056 C 172.229 2.041,173.532 1.823,173.836 1.570 C 174.151 1.309,174.842 1.224,175.437 1.374 C 176.710 1.693,180.000 1.247,180.000 0.755 C 180.000 0.263,174.105 0.306,173.800 0.800 M220.000 0.750 C 220.000 1.305,222.370 1.632,224.420 1.360 C 225.622 1.200,226.396 1.271,226.572 1.555 C 226.724 1.800,227.881 2.000,229.144 2.000 C 230.407 2.000,231.642 2.202,231.890 2.450 C 232.137 2.697,233.118 2.932,234.070 2.973 C 235.021 3.013,236.141 3.237,236.557 3.471 C 236.973 3.704,237.616 3.816,237.985 3.720 C 239.631 3.289,239.594 1.566,239.699 82.640 L 239.800 160.600 317.962 160.800 C 395.725 160.999,396.125 161.004,396.279 161.800 C 396.506 162.965,397.198 167.174,397.430 168.800 C 397.924 172.251,398.059 172.800,398.418 172.800 C 398.928 172.800,398.911 168.116,398.400 167.800 C 398.180 167.664,398.000 166.674,398.000 165.600 C 398.000 164.526,397.820 163.536,397.600 163.400 C 397.380 163.264,397.200 162.398,397.200 161.476 L 397.200 159.800 318.598 159.902 L 239.996 160.004 240.004 81.502 L 240.013 3.000 238.506 2.873 C 237.678 2.804,236.829 2.579,236.620 2.373 C 236.411 2.168,235.387 2.000,234.344 2.000 C 233.301 2.000,232.336 1.820,232.200 1.600 C 232.064 1.380,230.804 1.200,229.400 1.200 C 227.996 1.200,226.736 1.020,226.600 0.800 C 226.297 0.309,220.000 0.261,220.000 0.750 M159.903 81.402 L 160.006 160.004 81.503 159.995 L 3.000 159.987 2.871 161.293 C 2.801 162.012,2.576 162.771,2.371 162.980 C 2.167 163.189,2.000 164.494,2.000 165.880 C 2.000 167.293,1.824 168.400,1.600 168.400 C 1.376 168.400,1.200 169.507,1.200 170.920 C 1.200 172.306,1.024 173.616,0.810 173.830 C 0.595 174.045,0.310 178.086,0.177 182.810 C 0.043 187.564,0.087 191.188,0.276 190.925 C 0.463 190.664,0.612 188.189,0.608 185.425 C 0.604 182.662,0.755 180.349,0.944 180.286 C 1.133 180.223,1.358 178.917,1.445 177.385 C 1.531 175.853,1.791 173.797,2.022 172.815 C 2.253 171.833,2.394 170.573,2.336 170.014 C 2.277 169.456,2.351 168.803,2.499 168.563 C 2.800 168.077,3.602 164.058,3.769 162.200 L 3.877 161.000 81.799 160.899 C 138.501 160.825,159.867 160.676,160.259 160.351 C 160.707 159.979,160.815 146.708,160.899 81.852 C 161.000 4.116,161.003 3.800,161.800 3.759 C 163.331 3.681,163.600 3.598,163.600 3.200 C 163.600 2.980,162.745 2.800,161.700 2.800 L 159.800 2.800 159.903 81.402 M398.642 173.835 C 398.126 175.179,398.582 179.200,399.250 179.200 C 399.712 179.200,399.704 173.712,399.242 173.426 C 399.045 173.304,398.775 173.488,398.642 173.835 M399.374 181.396 C 399.107 182.823,399.451 189.984,399.804 190.338 C 399.912 190.445,400.000 188.163,400.000 185.267 C 400.000 179.896,399.841 178.910,399.374 181.396 M0.160 217.395 C 0.309 222.232,0.603 226.363,0.815 226.575 C 1.027 226.787,1.200 228.083,1.200 229.456 C 1.200 230.829,1.380 232.064,1.600 232.200 C 1.820 232.336,2.000 233.337,2.000 234.424 C 2.000 235.511,2.180 236.400,2.400 236.400 C 2.620 236.400,2.800 237.210,2.800 238.200 L 2.800 240.000 81.402 240.000 L 160.004 240.000 159.902 318.600 L 159.800 397.200 161.276 397.200 C 162.088 397.200,162.864 397.380,163.000 397.600 C 163.312 398.105,167.200 398.130,167.200 397.627 C 167.200 397.032,165.649 396.702,164.165 396.980 C 163.319 397.139,162.800 397.077,162.800 396.818 C 162.800 396.588,162.350 396.400,161.801 396.400 L 160.802 396.400 160.701 318.100 L 160.600 239.800 82.400 239.600 L 4.200 239.400 4.069 238.200 C 3.997 237.540,3.772 236.829,3.569 236.620 C 3.366 236.411,3.200 235.658,3.200 234.946 C 3.200 234.234,3.012 233.158,2.782 232.554 C 2.553 231.949,2.294 230.633,2.208 229.628 C 1.806 224.939,1.242 220.391,1.016 220.027 C 0.880 219.805,0.720 217.284,0.661 214.423 C 0.603 211.562,0.406 209.082,0.223 208.911 C 0.040 208.740,0.012 212.558,0.160 217.395 M399.588 209.900 C 399.582 210.065,399.477 212.000,399.354 214.200 C 399.223 216.558,399.299 218.611,399.540 219.200 C 399.850 219.958,399.955 218.916,399.975 214.900 C 399.989 211.985,399.910 209.600,399.800 209.600 C 399.690 209.600,399.595 209.735,399.588 209.900 M398.611 221.951 C 398.472 222.584,398.399 223.899,398.450 224.874 C 398.500 225.850,398.416 226.850,398.263 227.098 C 398.110 227.346,397.807 228.775,397.591 230.274 C 397.222 232.825,396.587 236.636,396.302 238.000 C 396.234 238.330,396.037 238.825,395.865 239.100 C 395.617 239.497,379.524 239.600,317.577 239.600 L 239.602 239.600 239.501 317.656 C 239.412 386.565,239.330 395.750,238.800 396.028 C 237.685 396.612,236.603 396.927,236.035 396.831 C 235.065 396.667,232.800 397.218,232.800 397.618 C 232.800 398.128,236.684 398.111,237.000 397.600 C 237.136 397.380,237.912 397.200,238.724 397.200 L 240.200 397.200 240.200 318.700 L 240.200 240.200 318.700 240.200 L 397.200 240.200 397.200 238.724 C 397.200 237.912,397.380 237.136,397.600 237.000 C 397.820 236.864,398.000 235.809,398.000 234.656 C 398.000 233.503,398.165 232.389,398.366 232.180 C 399.006 231.516,399.851 220.800,399.263 220.800 C 399.043 220.800,398.750 221.318,398.611 221.951 M167.777 397.956 C 167.691 398.041,167.717 398.266,167.834 398.456 C 168.119 398.917,172.400 398.899,172.400 398.437 C 172.400 398.087,168.092 397.639,167.777 397.956 M228.900 397.892 C 228.185 397.979,227.600 398.219,227.600 398.425 C 227.600 398.930,231.887 398.906,232.200 398.400 C 232.336 398.180,232.181 398.000,231.856 398.000 C 231.531 398.000,231.026 397.940,230.733 397.866 C 230.440 397.793,229.615 397.804,228.900 397.892 M174.100 398.682 C 172.134 399.061,173.367 399.600,176.200 399.600 C 179.376 399.600,180.215 399.072,177.700 398.657 C 176.121 398.396,175.567 398.400,174.100 398.682 M221.700 398.674 C 219.757 399.066,220.953 399.600,223.776 399.600 C 226.160 399.600,228.724 398.879,226.724 398.772 C 226.436 398.756,225.390 398.687,224.400 398.618 C 223.410 398.548,222.195 398.574,221.700 398.674 M181.200 399.583 C 180.214 399.803,181.149 399.910,184.367 399.947 C 186.878 399.976,188.820 399.887,188.682 399.749 C 188.291 399.357,182.762 399.235,181.200 399.583 M212.200 399.621 C 211.193 399.788,212.378 399.898,215.400 399.918 C 218.665 399.939,219.909 399.832,219.290 399.584 C 218.295 399.184,214.720 399.203,212.200 399.621 " stroke="none" fill="#dc4454" fill-rule="evenodd"></path><path id="path3" d="M159.600 81.599 L 159.600 159.598 81.500 159.700 L 3.400 159.802 81.700 159.901 L 160.000 160.000 160.000 81.800 C 160.000 38.790,159.910 3.600,159.800 3.600 C 159.690 3.600,159.600 38.700,159.600 81.599 M240.099 81.700 L 240.000 160.000 318.500 159.901 L 397.000 159.802 318.701 159.700 L 240.402 159.598 240.300 81.499 L 240.198 3.400 240.099 81.700 M81.099 240.300 L 159.598 240.402 159.700 318.701 L 159.802 397.000 159.901 318.500 L 160.000 240.000 81.300 240.099 L 2.600 240.198 81.099 240.300 M240.267 240.267 C 240.120 240.413,240.044 275.648,240.098 318.567 L 240.197 396.600 240.398 318.600 L 240.600 240.600 318.662 240.600 C 361.596 240.600,396.640 240.465,396.538 240.300 C 396.309 239.929,240.637 239.896,240.267 240.267 " stroke="none" fill="#fcf4f4" fill-rule="evenodd"></path><path id="path4" d="" stroke="none" fill="#e4100fc" fill-rule="evenodd"></path></g></svg>