<?xml version="1.0" encoding="UTF-8"?>
<!DOCTYPE svg PUBLIC "-//W3C//DTD SVG 1.1//EN" "http://www.w3.org/Graphics/SVG/1.1/DTD/svg11.dtd">
<svg xmlns="http://www.w3.org/2000/svg" version="1.1" width="500px" height="500px" style="shape-rendering:geometricPrecision; text-rendering:geometricPrecision; image-rendering:optimizeQuality; fill-rule:evenodd; clip-rule:evenodd" xmlns:xlink="http://www.w3.org/1999/xlink">
<g><path style="opacity:0.994" fill="#3e9a00" d="M 225.5,-0.5 C 241.5,-0.5 257.5,-0.5 273.5,-0.5C 362.269,10.9489 428.436,55.6156 472,133.5C 477.625,144.077 482.125,155.077 485.5,166.5C 351.5,166.5 217.5,166.5 83.5,166.5C 70.2012,149.927 57.3678,132.927 45,115.5C 43.6927,113.808 42.1927,112.475 40.5,111.5C 85.0686,46.3637 146.735,9.03035 225.5,-0.5 Z"/></g>
<g><path style="opacity:0.992" fill="#0173cd" d="M 40.5,111.5 C 42.1927,112.475 43.6927,113.808 45,115.5C 57.3678,132.927 70.2012,149.927 83.5,166.5C 104.142,194.148 124.809,221.815 145.5,249.5C 124.809,277.185 104.142,304.852 83.5,332.5C 69.1467,350.86 55.1467,369.527 41.5,388.5C 18.0121,353.709 4.01206,315.376 -0.5,273.5C -0.5,257.5 -0.5,241.5 -0.5,225.5C 4.05419,184.167 17.7209,146.167 40.5,111.5 Z"/></g>
<g><path style="opacity:0.998" fill="#fefefe" d="M 83.5,166.5 C 217.5,166.5 351.5,166.5 485.5,166.5C 492.586,185.267 497.253,204.6 499.5,224.5C 499.5,241.167 499.5,257.833 499.5,274.5C 498.1,284.764 496.267,295.098 494,305.5C 492.031,314.9 489.198,323.9 485.5,332.5C 351.5,332.5 217.5,332.5 83.5,332.5C 104.142,304.852 124.809,277.185 145.5,249.5C 124.809,221.815 104.142,194.148 83.5,166.5 Z"/></g>
<g><path style="opacity:1" fill="#121111" d="M 344.5,177.5 C 343.833,177.5 343.167,177.5 342.5,177.5C 343.167,174.833 343.833,174.833 344.5,177.5 Z"/></g>
<g><path style="opacity:1" fill="#28251f" d="M 317.5,185.5 C 317.123,183.742 316.456,182.075 315.5,180.5C 318.715,179.962 321.048,178.295 322.5,175.5C 324.706,177.58 327.372,178.913 330.5,179.5C 327.803,182.634 328.136,185.467 331.5,188C 327.846,187.925 325.18,189.425 323.5,192.5C 322.155,191.653 321.155,190.487 320.5,189C 318.833,188.667 317.167,188.333 315.5,188C 316.066,187.005 316.733,186.172 317.5,185.5 Z"/></g>
<g><path style="opacity:1" fill="#edcb00" d="M 317.5,185.5 C 318.705,184.328 318.705,182.995 317.5,181.5C 319.815,180.766 321.648,179.432 323,177.5C 323.976,179.887 325.809,181.054 328.5,181C 327.233,182.796 327.233,184.629 328.5,186.5C 326.185,187.234 324.352,188.568 323,190.5C 321.366,188.503 319.532,186.836 317.5,185.5 Z"/></g>
<g><path style="opacity:1" fill="#e8c700" d="M 342.5,177.5 C 343.167,177.5 343.833,177.5 344.5,177.5C 344.897,179.662 346.231,180.995 348.5,181.5C 347.167,183.167 347.167,184.833 348.5,186.5C 346.668,187.057 345.335,188.057 344.5,189.5C 343.883,189.611 343.383,189.944 343,190.5C 341.366,188.503 339.532,186.836 337.5,185.5C 338.801,184.116 338.801,182.616 337.5,181C 338.833,180.667 340.167,180.333 341.5,180C 342.252,179.329 342.586,178.496 342.5,177.5 Z"/></g>
<g><path style="opacity:1" fill="#2d2920" d="M 302.5,192.5 C 300.5,192.5 298.5,192.5 296.5,192.5C 296.421,191.07 296.754,189.736 297.5,188.5C 296.5,187.167 295.5,185.833 294.5,184.5C 298.167,184.167 300.167,182.167 300.5,178.5C 301.646,179.145 302.646,179.978 303.5,181C 305.587,180.782 307.587,180.949 309.5,181.5C 307.895,184.58 308.562,187.08 311.5,189C 309.941,189.98 308.274,190.813 306.5,191.5C 305.937,196.334 304.603,196.667 302.5,192.5 Z"/></g>
<g><path style="opacity:1" fill="#34302b" d="M 342.5,177.5 C 342.586,178.496 342.252,179.329 341.5,180C 340.167,180.333 338.833,180.667 337.5,181C 338.801,182.616 338.801,184.116 337.5,185.5C 337.414,183.323 336.747,181.323 335.5,179.5C 337.843,178.725 340.177,178.058 342.5,177.5 Z"/></g>
<g><path style="opacity:1" fill="#26221a" d="M 369.5,186.5 C 368.895,184.974 367.729,183.974 366,183.5C 365.667,182.5 365.333,181.5 365,180.5C 363.174,182.074 361.007,182.907 358.5,183C 359.022,183.561 359.355,184.228 359.5,185C 358.586,186.406 357.92,187.906 357.5,189.5C 356.624,189.631 355.957,189.298 355.5,188.5C 357.171,186.49 357.838,184.157 357.5,181.5C 360.755,181.986 363.422,180.986 365.5,178.5C 366.281,179.729 366.781,181.062 367,182.5C 368.609,183.147 370.109,183.98 371.5,185C 370.956,185.717 370.289,186.217 369.5,186.5 Z"/></g>
<g><path style="opacity:1" fill="#f1cf00" d="M 302.5,192.5 C 301.923,190.348 300.756,190.015 299,191.5C 298.907,188.993 298.074,186.826 296.5,185C 298.861,184.803 300.528,183.636 301.5,181.5C 303.535,182.041 305.535,182.708 307.5,183.5C 306.266,185.398 306.599,187.065 308.5,188.5C 306.175,189.518 304.175,190.851 302.5,192.5 Z"/></g>
<g><path style="opacity:1" fill="#eecc00" d="M 369.5,186.5 C 367.933,187.681 367.099,189.347 367,191.5C 364.909,190.5 363.243,191.167 362,193.5C 361.888,190.553 360.388,189.22 357.5,189.5C 357.92,187.906 358.586,186.406 359.5,185C 359.355,184.228 359.022,183.561 358.5,183C 361.007,182.907 363.174,182.074 365,180.5C 365.333,181.5 365.667,182.5 366,183.5C 367.729,183.974 368.895,184.974 369.5,186.5 Z"/></g>
<g><path style="opacity:1" fill="#26241e" d="M 344.5,177.5 C 346.637,178.787 348.97,179.621 351.5,180C 348.317,182.27 347.984,184.77 350.5,187.5C 348.505,188.295 346.505,188.961 344.5,189.5C 345.335,188.057 346.668,187.057 348.5,186.5C 347.167,184.833 347.167,183.167 348.5,181.5C 346.231,180.995 344.897,179.662 344.5,177.5 Z"/></g>
<g><path style="opacity:1" fill="#222126" d="M 337.5,185.5 C 339.532,186.836 341.366,188.503 343,190.5C 343.383,189.944 343.883,189.611 344.5,189.5C 343.324,193.271 341.99,193.104 340.5,189C 338.744,188.798 337.078,188.298 335.5,187.5C 335.855,186.478 336.522,185.811 337.5,185.5 Z"/></g>
<g><path style="opacity:1" fill="#eecc00" d="M 387.5,190.5 C 388.11,191.391 388.443,192.391 388.5,193.5C 387.057,194.335 386.057,195.668 385.5,197.5C 383.356,196.047 381.523,196.38 380,198.5C 379.878,196.563 379.045,195.23 377.5,194.5C 377.389,193.883 377.056,193.383 376.5,193C 378.155,191.556 378.822,189.722 378.5,187.5C 381.025,188.892 383.192,188.558 385,186.5C 385.122,188.437 385.955,189.77 387.5,190.5 Z"/></g>
<g><path style="opacity:1" fill="#322d24" d="M 289.5,191.5 C 293.271,192.676 293.104,194.01 289,195.5C 288.798,197.256 288.298,198.922 287.5,200.5C 284.988,198.533 282.321,198.2 279.5,199.5C 279.308,195.95 277.642,193.45 274.5,192C 278.633,191.199 280.466,188.699 280,184.5C 282.299,186.536 284.799,186.869 287.5,185.5C 288.295,187.495 288.961,189.495 289.5,191.5 Z"/></g>
<g><path style="opacity:1" fill="#f3d100" d="M 289.5,191.5 C 287.848,193.471 286.681,195.804 286,198.5C 284.806,196.475 283.306,196.141 281.5,197.5C 280.755,195.253 279.422,193.42 277.5,192C 279.887,191.024 281.054,189.191 281,186.5C 282.671,188.276 284.504,188.61 286.5,187.5C 287.057,189.332 288.057,190.665 289.5,191.5 Z"/></g>
<g><path style="opacity:1" fill="#29251e" d="M 387.5,190.5 C 385.955,189.77 385.122,188.437 385,186.5C 383.192,188.558 381.025,188.892 378.5,187.5C 378.822,189.722 378.155,191.556 376.5,193C 377.056,193.383 377.389,193.883 377.5,194.5C 372.334,193.827 372.168,192.494 377,190.5C 377.202,188.744 377.702,187.078 378.5,185.5C 381.201,186.869 383.701,186.536 386,184.5C 386.315,186.586 386.815,188.586 387.5,190.5 Z"/></g>
<g><path style="opacity:1" fill="#28241c" d="M 387.5,190.5 C 391.986,191.148 392.32,192.148 388.5,193.5C 388.443,192.391 388.11,191.391 387.5,190.5 Z"/></g>
<g><path style="opacity:1" fill="#3b3731" d="M 369.5,186.5 C 369.5,188.5 369.5,190.5 369.5,192.5C 366.245,192.014 363.578,193.014 361.5,195.5C 361.025,192.799 359.692,190.799 357.5,189.5C 360.388,189.22 361.888,190.553 362,193.5C 363.243,191.167 364.909,190.5 367,191.5C 367.099,189.347 367.933,187.681 369.5,186.5 Z"/></g>
<g><path style="opacity:1" fill="#26221a" d="M 388.5,193.5 C 387.961,195.505 387.295,197.505 386.5,199.5C 383.799,198.131 381.299,198.464 379,200.5C 378.685,198.414 378.185,196.414 377.5,194.5C 379.045,195.23 379.878,196.563 380,198.5C 381.523,196.38 383.356,196.047 385.5,197.5C 386.057,195.668 387.057,194.335 388.5,193.5 Z"/></g>
<g><path style="opacity:1" fill="#2d2d2d" d="M 278.5,269.5 C 277.115,268.426 275.949,267.093 275,265.5C 273.824,271.203 272.491,276.87 271,282.5C 271.572,275.461 272.739,268.461 274.5,261.5C 276.372,263.91 277.705,266.577 278.5,269.5 Z"/></g>
<g><path style="opacity:1" fill="#2c2c2c" d="M 278.5,269.5 C 283.371,272.169 285.871,276.169 286,281.5C 284.5,283.833 283,286.167 281.5,288.5C 285.599,294.297 291.099,297.964 298,299.5C 304.476,300.234 310.976,300.734 317.5,301C 300.907,304.75 287.574,299.917 277.5,286.5C 274.701,290.992 274.201,295.659 276,300.5C 278.04,302.37 279.873,304.37 281.5,306.5C 273.88,302.935 271.547,297.269 274.5,289.5C 273.935,287.595 272.935,285.929 271.5,284.5C 271.667,284.167 271.833,283.833 272,283.5C 273,284.5 274,285.5 275,286.5C 275.798,283.457 276.965,280.624 278.5,278C 280.256,277.86 281.922,278.36 283.5,279.5C 283.833,279 284.167,278.5 284.5,278C 282.27,275.28 280.27,272.446 278.5,269.5 Z"/></g>
<g><path style="opacity:1" fill="#e7e7e7" d="M 278.5,279.5 C 280.783,279.608 282.783,280.441 284.5,282C 279.93,289.151 277.93,288.317 278.5,279.5 Z"/></g>
<g><path style="opacity:1" fill="#161616" d="M 280.5,295.5 C 282.657,296.053 282.49,297.053 280,298.5C 279.53,297.423 279.697,296.423 280.5,295.5 Z"/></g>
<g><path style="opacity:1" fill="#2c2c2c" d="M 360.5,298.5 C 359.833,298.5 359.5,298.167 359.5,297.5C 365.181,297.415 369.014,294.749 371,289.5C 371.5,259.502 371.667,229.502 371.5,199.5C 345.5,199.5 319.5,199.5 293.5,199.5C 293.04,229.542 293.54,259.542 295,289.5C 296.99,293.49 300.157,295.99 304.5,297C 311.5,297.333 318.5,297.667 325.5,298C 328.112,298.639 330.446,299.806 332.5,301.5C 334.243,299.962 336.243,298.962 338.5,298.5C 339.492,298.328 340.158,298.662 340.5,299.5C 336.363,299.482 333.863,301.482 333,305.5C 331.332,301.835 328.499,299.668 324.5,299C 316.091,298.907 307.757,298.24 299.5,297C 297.291,295.127 295.458,292.96 294,290.5C 292.523,259.896 292.023,229.23 292.5,198.5C 319.5,198.5 346.5,198.5 373.5,198.5C 373.667,227.835 373.5,257.169 373,286.5C 372.224,294.11 368.058,298.11 360.5,298.5 Z"/></g>
<g><path style="opacity:1" fill="#fafafa" d="M 359.5,297.5 C 352.313,297.175 345.313,297.509 338.5,298.5C 336.243,298.962 334.243,299.962 332.5,301.5C 330.446,299.806 328.112,298.639 325.5,298C 318.5,297.667 311.5,297.333 304.5,297C 300.157,295.99 296.99,293.49 295,289.5C 293.54,259.542 293.04,229.542 293.5,199.5C 319.5,199.5 345.5,199.5 371.5,199.5C 371.667,229.502 371.5,259.502 371,289.5C 369.014,294.749 365.181,297.415 359.5,297.5 Z"/></g>
<g><path style="opacity:1" fill="#583624" d="M 329.5,231.5 C 331.309,230.709 333.309,230.709 335.5,231.5C 336.293,235.165 337.626,235.165 339.5,231.5C 340.5,231.833 341.167,232.5 341.5,233.5C 341.5,233.833 341.5,234.167 341.5,234.5C 337.02,238.467 335.02,243.467 335.5,249.5C 336,256.5 336.5,263.5 337,270.5C 339.294,277.341 340.794,284.341 341.5,291.5C 338.71,291.222 336.21,291.889 334,293.5C 331.714,293.139 329.547,292.806 327.5,292.5C 329.017,292.489 330.184,291.823 331,290.5C 332.414,273.521 332.747,256.521 332,239.5C 331.648,237.753 331.148,236.086 330.5,234.5C 331.885,233.053 331.552,232.053 329.5,231.5 Z"/></g>
<g><path style="opacity:1" fill="#845323" d="M 329.5,231.5 C 329.557,232.609 329.89,233.609 330.5,234.5C 331.148,236.086 331.648,237.753 332,239.5C 332.747,256.521 332.414,273.521 331,290.5C 330.184,291.823 329.017,292.489 327.5,292.5C 325.958,291.699 324.292,291.366 322.5,291.5C 324.498,283.506 326.498,275.506 328.5,267.5C 330.057,262.431 330.724,257.098 330.5,251.5C 330.499,247.319 330.166,243.319 329.5,239.5C 328.764,237.771 327.43,236.771 325.5,236.5C 326.301,234.958 326.634,233.292 326.5,231.5C 327.5,231.5 328.5,231.5 329.5,231.5 Z"/></g>
<g><path style="opacity:1" fill="#6c6056" d="M 329.5,239.5 C 330.166,243.319 330.499,247.319 330.5,251.5C 330.724,257.098 330.057,262.431 328.5,267.5C 329.354,258.195 329.687,248.861 329.5,239.5 Z"/></g>
<g><path style="opacity:1" fill="#275130" d="M 354.5,236.5 C 351.878,238.008 349.545,237.508 347.5,235C 345.527,234.505 343.527,234.338 341.5,234.5C 341.5,234.167 341.5,233.833 341.5,233.5C 343.792,233.756 345.959,233.423 348,232.5C 349.026,235.693 351.192,237.026 354.5,236.5 Z"/></g>
<g><path style="opacity:1" fill="#254e2e" d="M 312.5,223.5 C 312.5,224.833 312.5,226.167 312.5,227.5C 319.134,227.677 319.134,228.177 312.5,229C 310.672,231.942 308.005,233.109 304.5,232.5C 306.556,231.801 308.556,230.801 310.5,229.5C 311.05,227.343 311.717,225.343 312.5,223.5 Z"/></g>
<g><path style="opacity:1" fill="#144e24" d="M 336.5,206.5 C 338.975,207.687 339.975,209.687 339.5,212.5C 340.791,212.263 341.791,212.596 342.5,213.5C 339.208,213.12 336.875,214.453 335.5,217.5C 334.28,216.289 333.113,216.289 332,217.5C 331.833,217.167 331.667,216.833 331.5,216.5C 337.894,215.181 339.56,211.848 336.5,206.5 Z"/></g>
<g><path style="opacity:1" fill="#0c8b36" d="M 336.5,206.5 C 339.56,211.848 337.894,215.181 331.5,216.5C 331.667,216.833 331.833,217.167 332,217.5C 333.113,216.289 334.28,216.289 335.5,217.5C 336.875,214.453 339.208,213.12 342.5,213.5C 343.416,213.982 344.416,214.315 345.5,214.5C 347.59,212.894 349.924,212.394 352.5,213C 353.912,214.791 355.745,215.958 358,216.5C 358.483,217.448 358.649,218.448 358.5,219.5C 359.873,219.343 361.207,219.51 362.5,220C 364.385,222.998 366.385,225.831 368.5,228.5C 365.888,234.601 361.221,237.268 354.5,236.5C 351.192,237.026 349.026,235.693 348,232.5C 345.959,233.423 343.792,233.756 341.5,233.5C 341.167,232.5 340.5,231.833 339.5,231.5C 338.368,230.646 337.035,230.646 335.5,231.5C 333.309,230.709 331.309,230.709 329.5,231.5C 328.5,231.5 327.5,231.5 326.5,231.5C 326.634,233.292 326.301,234.958 325.5,236.5C 323.912,237.641 322.579,239.141 321.5,241C 317.765,241.287 314.265,240.453 311,238.5C 310.044,239.894 308.711,240.561 307,240.5C 304.214,239.633 301.714,238.299 299.5,236.5C 301.171,235.164 302.838,233.831 304.5,232.5C 308.005,233.109 310.672,231.942 312.5,229C 319.134,228.177 319.134,227.677 312.5,227.5C 312.5,226.167 312.5,224.833 312.5,223.5C 314.405,219.258 317.405,215.924 321.5,213.5C 322.782,211.821 323.782,209.987 324.5,208C 327.277,207.358 329.944,206.524 332.5,205.5C 333.925,205.623 335.258,205.957 336.5,206.5 Z"/></g>
<g><path style="opacity:1" fill="#a7a6a8" d="M 339.5,231.5 C 337.626,235.165 336.293,235.165 335.5,231.5C 337.035,230.646 338.368,230.646 339.5,231.5 Z"/></g>
<g><path style="opacity:1" fill="#dedfe1" d="M 329.5,231.5 C 331.552,232.053 331.885,233.053 330.5,234.5C 329.89,233.609 329.557,232.609 329.5,231.5 Z"/></g>
<g><path style="opacity:1" fill="#1a1a1a" d="M 377.5,296.5 C 376.713,298.104 375.38,298.771 373.5,298.5C 374.514,297.326 375.847,296.66 377.5,296.5 Z"/></g>
<g><path style="opacity:1" fill="#666666" d="M 338.5,298.5 C 345.313,297.509 352.313,297.175 359.5,297.5C 359.5,298.167 359.833,298.5 360.5,298.5C 356.833,299.167 353.167,299.833 349.5,300.5C 348.5,300.5 347.5,300.5 346.5,300.5C 344.735,299.539 342.735,299.205 340.5,299.5C 340.158,298.662 339.492,298.328 338.5,298.5 Z"/></g>
<g><path style="opacity:1" fill="#525252" d="M 294.5,303.5 C 297.144,305.66 296.811,307.66 293.5,309.5C 291.866,309.032 290.7,308.032 290,306.5C 289.667,306.833 289.333,307.167 289,307.5C 288.717,304.258 287.883,303.924 286.5,306.5C 285.719,305.271 285.219,303.938 285,302.5C 284.692,303.308 284.192,303.975 283.5,304.5C 282.315,303.147 280.981,301.98 279.5,301C 281.848,300.654 283.681,299.487 285,297.5C 286.585,298.376 287.585,299.709 288,301.5C 290.09,300.209 291.424,300.876 292,303.5C 292.977,302.226 293.811,302.226 294.5,303.5 Z"/></g>
<g><path style="opacity:1" fill="#e5e5e5" d="M 373.5,298.5 C 375.38,298.771 376.713,298.104 377.5,296.5C 382.784,294.644 386.284,290.978 388,285.5C 393.651,293.57 392.485,300.403 384.5,306C 375.458,311.011 365.792,313.344 355.5,313C 358.333,312.833 359.833,311.333 360,308.5C 360.483,309.448 360.649,310.448 360.5,311.5C 365.526,311.783 366.693,309.783 364,305.5C 363.798,307.256 363.298,308.922 362.5,310.5C 360.256,304.153 358.423,304.486 357,311.5C 355.837,309.715 355.17,307.715 355,305.5C 353.951,304.483 352.784,304.316 351.5,305C 353.592,305.953 353.925,307.286 352.5,309C 350.866,309.494 349.199,309.66 347.5,309.5C 347.5,307.833 347.5,306.167 347.5,304.5C 351.311,304.404 351.311,303.738 347.5,302.5C 354.142,301.669 360.809,301.169 367.5,301C 369.974,300.963 371.974,300.13 373.5,298.5 Z"/></g>
<g><path style="opacity:1" fill="#444444" d="M 383.5,294.5 C 385.842,294.504 387.842,295.337 389.5,297C 387.277,297.652 386.11,299.152 386,301.5C 384.434,302.061 383.101,301.394 382,299.5C 380.989,300.337 379.822,300.67 378.5,300.5C 378.5,301.5 378.5,302.5 378.5,303.5C 380.124,303.64 381.29,302.973 382,301.5C 382.483,302.448 382.649,303.448 382.5,304.5C 380.801,304.34 379.134,304.506 377.5,305C 378.696,305.654 378.696,306.154 377.5,306.5C 376.5,305.167 375.5,303.833 374.5,302.5C 373.949,304.413 373.782,306.413 374,308.5C 372.712,304.147 370.212,303.314 366.5,306C 367.793,306.49 369.127,306.657 370.5,306.5C 370.649,307.552 370.483,308.552 370,309.5C 368.951,307.893 367.451,307.227 365.5,307.5C 365.33,306.178 365.663,305.011 366.5,304C 372.383,303.126 377.383,300.626 381.5,296.5C 385.875,301.801 386.542,301.134 383.5,294.5 Z"/></g>
<g><path style="opacity:1" fill="#dddddd" d="M 294.5,303.5 C 295.976,305.23 295.642,306.563 293.5,307.5C 292.191,305.76 292.524,304.427 294.5,303.5 Z"/></g>
<g><path style="opacity:1" fill="#4b4b4b" d="M 306.5,310.5 C 303.326,311.051 300.159,311.051 297,310.5C 296.956,308.24 297.789,306.24 299.5,304.5C 301.069,305.714 301.902,307.381 302,309.5C 302.494,307.866 302.66,306.199 302.5,304.5C 306.509,304.014 308.342,305.68 308,309.5C 307.617,310.056 307.117,310.389 306.5,310.5 Z"/></g>
<g><path style="opacity:1" fill="#373737" d="M 281.5,306.5 C 290.611,310.99 300.278,313.324 310.5,313.5C 308.458,306.24 311.125,302.907 318.5,303.5C 319.78,303.363 320.113,305.697 319.5,310.5C 328.5,310.5 337.5,310.5 346.5,310.5C 346.5,307.167 346.5,303.833 346.5,300.5C 347.5,300.5 348.5,300.5 349.5,300.5C 357.591,300.761 365.591,300.094 373.5,298.5C 371.974,300.13 369.974,300.963 367.5,301C 360.809,301.169 354.142,301.669 347.5,302.5C 351.311,303.738 351.311,304.404 347.5,304.5C 347.5,306.167 347.5,307.833 347.5,309.5C 349.199,309.66 350.866,309.494 352.5,309C 353.925,307.286 353.592,305.953 351.5,305C 352.784,304.316 353.951,304.483 355,305.5C 355.17,307.715 355.837,309.715 357,311.5C 358.423,304.486 360.256,304.153 362.5,310.5C 363.298,308.922 363.798,307.256 364,305.5C 366.693,309.783 365.526,311.783 360.5,311.5C 360.649,310.448 360.483,309.448 360,308.5C 359.833,311.333 358.333,312.833 355.5,313C 365.792,313.344 375.458,311.011 384.5,306C 392.485,300.403 393.651,293.57 388,285.5C 386.284,290.978 382.784,294.644 377.5,296.5C 380.485,294.483 382.818,291.816 384.5,288.5C 381.216,285.439 379.716,281.773 380,277.5C 384.26,272.641 387.76,267.308 390.5,261.5C 392.32,267.78 393.987,274.114 395.5,280.5C 395.355,284.124 393.688,286.791 390.5,288.5C 394.525,295.96 392.858,302.126 385.5,307C 376.199,312.325 366.199,315.158 355.5,315.5C 356.026,318.808 354.693,320.974 351.5,322C 339.472,325.204 327.472,325.204 315.5,322C 311.717,321.391 310.05,319.224 310.5,315.5C 305.088,315.209 299.755,314.376 294.5,313C 289.547,311.857 285.214,309.69 281.5,306.5 Z"/></g>
<g><path style="opacity:1" fill="#f6f6f6" d="M 312.5,310.5 C 326.181,313.114 339.847,313.114 353.5,310.5C 353.784,313.777 353.451,316.943 352.5,320C 339.415,323.476 326.415,323.309 313.5,319.5C 312.516,316.572 312.183,313.572 312.5,310.5 Z"/></g>
<g><path style="opacity:1" fill="#ebebeb" d="M 306.5,310.5 C 305.414,310.38 304.747,309.713 304.5,308.5C 304.833,307.833 305.167,307.167 305.5,306.5C 306.429,307.689 306.762,309.022 306.5,310.5 Z"/></g>
<g><path style="opacity:1" fill="#e8e8e8" d="M 315.5,304.5 C 316.5,304.5 317.5,304.5 318.5,304.5C 318.5,306.167 318.5,307.833 318.5,309.5C 315.031,310.113 313.031,308.779 312.5,305.5C 313.791,305.737 314.791,305.404 315.5,304.5 Z"/></g>
<g><path style="opacity:1" fill="#f4f4f4" d="M 384.5,279.5 C 388.14,281.102 388.473,283.435 385.5,286.5C 381.376,284.121 381.043,281.788 384.5,279.5 Z"/></g>
<g><path style="opacity:1" fill="#f5f5f5" d="M 389.5,266.5 C 392.399,272.066 393.565,278.066 393,284.5C 392.333,285.167 391.667,285.833 391,286.5C 390.058,283.557 388.892,280.724 387.5,278C 386.5,277.333 385.5,277.333 384.5,278C 383.457,279.976 382.123,280.476 380.5,279.5C 383.941,275.406 386.941,271.073 389.5,266.5 Z"/></g>
<g><path style="opacity:1" fill="#555555" d="M 324.5,313.5 C 326.167,313.5 327.833,313.5 329.5,313.5C 329.88,316.792 328.547,319.125 325.5,320.5C 324.526,318.257 324.192,315.924 324.5,313.5 Z"/></g>
<g><path style="opacity:1" fill="#7d7d7d" d="M 341.5,314.5 C 340.222,314.782 339.222,315.449 338.5,316.5C 337.909,315.849 337.243,315.182 336.5,314.5C 338.299,313.212 339.965,313.212 341.5,314.5 Z"/></g>
<g><path style="opacity:1" fill="#2f2f2f" d="M 338.5,316.5 C 339.222,315.449 340.222,314.782 341.5,314.5C 340.883,316.229 339.883,317.729 338.5,319C 342.414,319.897 342.248,320.397 338,320.5C 335.097,319.613 332.264,319.447 329.5,320C 331.541,313.098 333.707,312.932 336,319.5C 337.045,318.627 337.878,317.627 338.5,316.5 Z"/></g>
<g><path style="opacity:0.994" fill="#e32218" d="M 83.5,332.5 C 217.5,332.5 351.5,332.5 485.5,332.5C 459.059,404.776 410.059,455.276 338.5,484C 317.652,491.713 296.319,496.88 274.5,499.5C 257.833,499.5 241.167,499.5 224.5,499.5C 157.332,491.001 101.499,461.335 57,410.5C 51.5681,403.284 46.4014,395.95 41.5,388.5C 55.1467,369.527 69.1467,350.86 83.5,332.5 Z"/></g>
</svg>
