<?xml version="1.0" encoding="UTF-8"?>
<!DOCTYPE svg PUBLIC "-//W3C//DTD SVG 1.1//EN" "http://www.w3.org/Graphics/SVG/1.1/DTD/svg11.dtd">
<svg xmlns="http://www.w3.org/2000/svg" version="1.1" width="500px" height="500px" style="shape-rendering:geometricPrecision; text-rendering:geometricPrecision; image-rendering:optimizeQuality; fill-rule:evenodd; clip-rule:evenodd" xmlns:xlink="http://www.w3.org/1999/xlink">
<g><path style="opacity:0.988" fill="#14ac2b" d="M 225.5,-0.5 C 241.5,-0.5 257.5,-0.5 273.5,-0.5C 364.463,11.4596 431.463,57.7929 474.5,138.5C 350.723,108.306 227.056,77.6391 103.5,46.5C 139.812,19.8353 180.479,4.16867 225.5,-0.5 Z"/></g>
<g><path style="opacity:0.996" fill="#ea0836" d="M 103.5,46.5 C 227.056,77.6391 350.723,108.306 474.5,138.5C 487.728,165.84 496.062,194.507 499.5,224.5C 499.5,241.167 499.5,257.833 499.5,274.5C 496.058,304.502 487.725,333.169 474.5,360.5C 350.723,390.694 227.056,421.361 103.5,452.5C 57.2104,419.334 25.7104,375.334 9,320.5C 4.58894,304.943 1.42227,289.277 -0.5,273.5C -0.5,257.5 -0.5,241.5 -0.5,225.5C 7.61572,158.432 36.9491,102.599 87.5,58C 92.7155,53.9026 98.0489,50.0693 103.5,46.5 Z"/></g>
<g><path style="opacity:1" fill="#fec626" d="M 65.5,304.5 C 65.56,305.043 65.8933,305.376 66.5,305.5C 67.8137,300.348 67.8137,295.348 66.5,290.5C 66.3398,288.801 66.5065,287.134 67,285.5C 72.9726,293.777 77.6392,302.777 81,312.5C 82.1268,309.623 82.7935,306.623 83,303.5C 89.5316,319.748 99.3649,333.582 112.5,345C 119.688,350.063 127.688,352.729 136.5,353C 141.759,355.134 147.092,356.967 152.5,358.5C 152.243,340.791 151.243,323.124 149.5,305.5C 137.512,311.249 125.846,310.749 114.5,304C 108.565,298.351 105.899,291.518 106.5,283.5C 112.874,290.854 120.874,294.688 130.5,295C 121.25,290.467 113.75,283.967 108,275.5C 106.564,272.857 106.398,270.19 107.5,267.5C 113.371,272.097 119.705,275.597 126.5,278C 121.594,272.523 118.261,266.19 116.5,259C 116.833,258.167 117.167,257.333 117.5,256.5C 127.73,262.893 136.563,270.893 144,280.5C 143.929,265.175 143.762,249.841 143.5,234.5C 131.193,239.884 122.36,236.55 117,224.5C 114.835,219.342 113.835,214.009 114,208.5C 115.833,211 117.667,213.5 119.5,216C 121.45,217.496 123.45,217.663 125.5,216.5C 119.675,205.876 117.509,194.542 119,182.5C 122.015,191.183 127.015,198.516 134,204.5C 133.089,201.973 132.089,199.306 131,196.5C 130.333,193.833 130.333,191.167 131,188.5C 132.049,187.483 133.216,187.316 134.5,188C 144.207,194.925 148.373,204.425 147,216.5C 156.637,205.959 159.304,193.959 155,180.5C 145.517,181.008 138.351,177.175 133.5,169C 138.045,170.148 142.712,170.482 147.5,170C 150.855,168.758 152.189,166.591 151.5,163.5C 142.723,167.303 135.056,165.803 128.5,159C 136.647,154.457 144.813,154.623 153,159.5C 152.53,153.821 152.697,148.154 153.5,142.5C 162.663,145.145 166.83,151.145 166,160.5C 164.314,165.015 162.814,169.515 161.5,174C 162.269,179.578 163.436,185.078 165,190.5C 167.147,185.54 169.814,180.873 173,176.5C 177.903,171.476 183.736,169.809 190.5,171.5C 184.227,176.26 181.394,182.26 182,189.5C 188.159,188.009 192.492,184.342 195,178.5C 197.964,182.906 198.298,187.573 196,192.5C 191.93,198.404 186.763,203.071 180.5,206.5C 186.953,207.402 192.453,205.402 197,200.5C 197.857,210.324 193.357,216.157 183.5,218C 179.167,218.667 174.833,218.667 170.5,218C 166.892,216.677 163.225,216.011 159.5,216C 156.333,219.155 154.499,222.988 154,227.5C 152.202,234.749 151.535,242.082 152,249.5C 153.906,239.443 157.573,230.11 163,221.5C 162.962,225.117 162.796,228.784 162.5,232.5C 160.872,246.959 164.705,248.959 174,238.5C 177.627,233.579 180.46,228.246 182.5,222.5C 187.244,226.376 188.744,231.376 187,237.5C 184.202,244.756 179.702,250.756 173.5,255.5C 183.217,258.213 191.717,256.213 199,249.5C 199.891,256.551 197.391,262.051 191.5,266C 187.162,267.709 182.662,268.543 178,268.5C 172.154,267.727 166.321,267.227 160.5,267C 154.723,268.765 152.223,272.598 153,278.5C 154.64,282.392 155.973,286.392 157,290.5C 158.13,298.949 159.797,307.283 162,315.5C 164.168,307.838 166.502,300.171 169,292.5C 171.393,287.273 175.226,283.606 180.5,281.5C 181.442,281.608 182.275,281.941 183,282.5C 183.883,287.148 183.05,291.481 180.5,295.5C 180.833,295.833 181.167,296.167 181.5,296.5C 187.647,291.894 192.647,286.228 196.5,279.5C 199.195,285.697 198.695,291.697 195,297.5C 191.5,301.833 188,306.167 184.5,310.5C 186.187,311.568 187.854,311.401 189.5,310C 193.134,307.204 195.801,303.704 197.5,299.5C 201.146,312.044 196.813,320.878 184.5,326C 179.896,327.061 175.229,327.727 170.5,328C 163.103,336.406 160.103,346.24 161.5,357.5C 176.017,351.495 191.017,346.995 206.5,344C 211.549,342.283 215.382,339.116 218,334.5C 220.09,327.888 222.757,321.555 226,315.5C 231.367,310.468 236.367,305.135 241,299.5C 241.738,303.71 241.572,307.876 240.5,312C 241.102,313.563 241.935,313.396 243,311.5C 248.702,303.785 251.035,295.119 250,285.5C 251.829,283.844 253.163,281.844 254,279.5C 254.667,275.167 254.667,270.833 254,266.5C 249.51,259.258 248.51,251.591 251,243.5C 252.25,240.084 254.417,237.417 257.5,235.5C 258.078,244.891 260.245,253.891 264,262.5C 265.643,264.977 267.476,267.31 269.5,269.5C 270.862,263.443 270.696,257.443 269,251.5C 261.107,238.594 256.941,224.594 256.5,209.5C 243.838,201.175 236.505,189.509 234.5,174.5C 234.385,171.612 235.052,168.945 236.5,166.5C 242.691,171.209 247.191,177.209 250,184.5C 251.971,188.186 254.805,189.186 258.5,187.5C 253.583,177.615 247.25,168.948 239.5,161.5C 231.039,165.031 222.372,165.864 213.5,164C 208.33,162.245 203.996,159.245 200.5,155C 207.563,154.84 214.563,154.173 221.5,153C 216.616,149.895 211.282,147.895 205.5,147C 195.488,146.668 185.488,146.668 175.5,147C 167.986,144.408 161.652,140.075 156.5,134C 159.67,135.06 163.004,135.894 166.5,136.5C 167.833,136.167 169.167,135.833 170.5,135.5C 167.709,133.211 165.042,130.711 162.5,128C 169.416,129.134 176.083,128.134 182.5,125C 186.167,124.333 189.833,124.333 193.5,125C 199.426,128.921 204.759,133.588 209.5,139C 211.569,140.874 213.902,141.874 216.5,142C 209.482,136.323 203.982,129.489 200,121.5C 198.355,116.935 197.688,112.269 198,107.5C 214.379,118.212 227.712,131.879 238,148.5C 247.594,155.092 254.594,163.759 259,174.5C 260.451,162.085 257.951,150.585 251.5,140C 256.177,139.752 260.01,141.585 263,145.5C 266.636,151.403 269.303,157.737 271,164.5C 272.856,175.493 274.523,186.493 276,197.5C 277.453,194.702 278.453,191.702 279,188.5C 279.556,181.114 279.556,173.781 279,166.5C 287.719,176.492 291.553,188.159 290.5,201.5C 290.107,218.575 286.774,235.075 280.5,251C 280.667,251.5 280.833,252 281,252.5C 288.563,245.158 292.229,236.158 292,225.5C 299.06,233.185 301.393,242.185 299,252.5C 296.826,259.848 293.826,266.848 290,273.5C 284.205,282.926 278.038,292.092 271.5,301C 286.101,293.051 296.601,281.218 303,265.5C 303.961,272.336 303.295,279.003 301,285.5C 295.709,297.561 287.876,307.727 277.5,316C 268.188,323.659 258.188,330.326 247.5,336C 252.802,335.632 258.135,335.132 263.5,334.5C 265.833,334.833 268.167,335.167 270.5,335.5C 263.576,342.974 255.243,348.474 245.5,352C 220.068,361.774 193.735,367.274 166.5,368.5C 173.926,370.776 179.093,375.443 182,382.5C 182.494,384.134 182.66,385.801 182.5,387.5C 164.833,387.5 147.167,387.5 129.5,387.5C 131.046,378.116 136.38,371.95 145.5,369C 127.102,368.284 109.102,365.284 91.5,360C 81.7312,355.56 73.0645,349.56 65.5,342C 56.4484,337.872 47.115,334.538 37.5,332C 38.5505,330.615 39.8839,329.615 41.5,329C 45.8333,328.333 50.1667,328.333 54.5,329C 61.3639,331.175 68.0306,333.508 74.5,336C 64.8379,329.167 54.8379,322.834 44.5,317C 28.9467,306.593 19.6133,292.093 16.5,273.5C 16.6667,272.5 16.8333,271.5 17,270.5C 26,284.833 37.6667,296.5 52,305.5C 43.9051,294.027 36.2384,282.027 29,269.5C 21.7099,255.89 20.7099,241.89 26,227.5C 28.9314,235.617 32.2648,243.617 36,251.5C 34.0124,236.257 32.5124,220.924 31.5,205.5C 31.3116,197.062 32.1449,188.729 34,180.5C 34.92,177.062 36.5867,174.062 39,171.5C 42.5816,177.282 44.5816,183.615 45,190.5C 45.3333,198.167 45.6667,205.833 46,213.5C 46.9905,196.171 48.3238,178.838 50,161.5C 51.7365,149.33 57.9032,140.33 68.5,134.5C 68.8333,134.833 69.1667,135.167 69.5,135.5C 66.5404,148.131 64.0404,160.797 62,173.5C 65.3931,166.356 70.3931,160.689 77,156.5C 86.7319,138.101 100.565,123.601 118.5,113C 120.579,112.192 122.579,112.359 124.5,113.5C 118.995,120.503 112.995,127.003 106.5,133C 113.657,129.422 120.99,125.755 128.5,122C 139.289,116.801 150.622,114.801 162.5,116C 164.78,116.233 166.78,117.066 168.5,118.5C 165.497,121.673 161.83,123.839 157.5,125C 150.167,127 142.833,129 135.5,131C 119.949,134.98 119.949,137.147 135.5,137.5C 141.417,137.858 147.084,136.858 152.5,134.5C 153.521,135.002 153.688,135.668 153,136.5C 149.456,141.522 144.623,144.356 138.5,145C 129.758,145.089 121.091,145.756 112.5,147C 110.545,147.953 108.878,149.287 107.5,151C 113.362,153.014 119.196,152.848 125,150.5C 126.826,151.01 126.993,151.844 125.5,153C 122.874,155.146 119.874,156.479 116.5,157C 106.266,157.362 96.2659,159.029 86.5,162C 73.9794,168.166 66.4794,177.999 64,191.5C 69.9596,183.872 76.2929,176.538 83,169.5C 86.0947,183.145 81.2613,192.978 68.5,199C 60.4023,205.206 55.069,213.206 52.5,223C 52.8333,223.833 53.1667,224.667 53.5,225.5C 56.9787,221.239 59.812,216.572 62,211.5C 62.6667,215.5 62.6667,219.5 62,223.5C 59.9429,229.281 57.6096,234.947 55,240.5C 49.6254,273.316 50.9588,273.649 59,241.5C 59.3333,240.5 59.6667,239.5 60,238.5C 64.8747,250 67.2081,262 67,274.5C 64.7424,279.18 62.9091,284.013 61.5,289C 62.3292,294.317 63.6626,299.483 65.5,304.5 Z"/></g>
<g><path style="opacity:1" fill="#f6782d" d="M 66.5,290.5 C 67.8137,295.348 67.8137,300.348 66.5,305.5C 65.8933,305.376 65.56,305.043 65.5,304.5C 66.4861,300.03 66.8195,295.363 66.5,290.5 Z"/></g>
<g><path style="opacity:0.989" fill="#4188dc" d="M 474.5,360.5 C 431.705,440.919 365.038,487.252 274.5,499.5C 257.833,499.5 241.167,499.5 224.5,499.5C 185.067,494.744 148.4,481.91 114.5,461C 110.403,458.63 106.736,455.797 103.5,452.5C 227.056,421.361 350.723,390.694 474.5,360.5 Z"/></g>
</svg>
