<?xml version="1.0" encoding="UTF-8"?>
<!DOCTYPE svg PUBLIC "-//W3C//DTD SVG 1.1//EN" "http://www.w3.org/Graphics/SVG/1.1/DTD/svg11.dtd">
<svg xmlns="http://www.w3.org/2000/svg" version="1.1" width="500px" height="500px" style="shape-rendering:geometricPrecision; text-rendering:geometricPrecision; image-rendering:optimizeQuality; fill-rule:evenodd; clip-rule:evenodd" xmlns:xlink="http://www.w3.org/1999/xlink">
<g><path style="opacity:0.989" fill="#3d5db9" d="M 225.5,-0.5 C 241.5,-0.5 257.5,-0.5 273.5,-0.5C 341.132,7.52107 397.132,37.1877 441.5,88.5C 313.5,88.5 185.5,88.5 57.5,88.5C 101.928,37.2827 157.928,7.61603 225.5,-0.5 Z"/></g>
<g><path style="opacity:0.996" fill="#fdd704" d="M 57.5,88.5 C 185.5,88.5 313.5,88.5 441.5,88.5C 451.3,99.4159 459.633,111.416 466.5,124.5C 321.833,124.5 177.167,124.5 32.5,124.5C 39.8472,111.802 48.1805,99.8023 57.5,88.5 Z"/></g>
<g><path style="opacity:0.996" fill="#b00c0b" d="M 32.5,124.5 C 177.167,124.5 321.833,124.5 466.5,124.5C 478.605,145.13 487.605,167.13 493.5,190.5C 484.564,191.865 475.897,194.365 467.5,198C 438.5,198.667 409.5,198.667 380.5,198C 332.23,149.512 274.564,132.512 207.5,147C 175.066,157.875 146.399,174.875 121.5,198C 90.4143,198.015 59.4143,198.682 28.5,200C 27.0183,202.592 27.3517,204.925 29.5,207C 56.5,207.333 83.5,207.667 110.5,208C 106.5,212 102.5,216 98.5,220C 65.835,220.5 33.1684,220.667 0.5,220.5C 4.60616,186.181 15.2728,154.181 32.5,124.5 Z"/></g>
<g><path style="opacity:1" fill="#060403" d="M 493.5,190.5 C 493.629,192.216 493.962,193.883 494.5,195.5C 487.924,195.856 481.59,197.356 475.5,200C 475.507,201.583 475.174,203.249 474.5,205C 479.599,207.647 484.932,209.813 490.5,211.5C 492.323,210.253 494.323,209.586 496.5,209.5C 497.451,210.919 497.784,212.585 497.5,214.5C 495.063,214.756 492.729,215.423 490.5,216.5C 482.718,213.962 475.051,211.128 467.5,208C 441.833,207.333 416.167,207.333 390.5,208C 394.5,212 398.5,216 402.5,220C 413.499,220.315 424.165,220.482 434.5,220.5C 443.568,217.699 452.568,214.699 461.5,211.5C 473.734,215.912 486.067,219.912 498.5,223.5C 498.5,224.167 498.833,224.5 499.5,224.5C 499.5,224.833 499.5,225.167 499.5,225.5C 486.671,228.911 474.004,232.911 461.5,237.5C 451.554,233.572 441.387,230.572 431,228.5C 424.31,228.446 417.477,228.612 410.5,229C 414.601,233.857 418.934,238.524 423.5,243C 448.831,243.5 474.164,243.667 499.5,243.5C 499.5,243.833 499.5,244.167 499.5,244.5C 474.824,244.167 450.158,244.5 425.5,245.5C 425.624,246.107 425.957,246.44 426.5,246.5C 430.5,248.5 430.5,250.5 426.5,252.5C 425.957,252.56 425.624,252.893 425.5,253.5C 450.158,254.5 474.824,254.833 499.5,254.5C 499.5,255.167 499.5,255.833 499.5,256.5C 497.5,258.167 495.5,259.833 493.5,261.5C 494.203,259.284 495.536,257.451 497.5,256C 472.833,255.333 448.167,255.333 423.5,256C 407.173,274.327 390.173,291.993 372.5,309C 332.217,345.317 284.884,361.317 230.5,357C 200.096,351.626 172.429,339.959 147.5,322C 139.652,316.241 131.985,310.241 124.5,304C 107.994,288.327 91.6606,272.494 75.5,256.5C 65.6723,255.834 55.6723,255.5 45.5,255.5C 35.1436,255.501 25.1436,256.168 15.5,257.5C 13.5293,255.192 11.5293,252.858 9.5,250.5C 11.4113,251.075 13.078,252.075 14.5,253.5C 34.0041,254.828 53.6707,254.828 73.5,253.5C 73.3764,252.893 73.0431,252.56 72.5,252.5C 68.5,250.5 68.5,248.5 72.5,246.5C 73.0431,246.44 73.3764,246.107 73.5,245.5C 48.8423,244.5 24.1757,244.167 -0.5,244.5C -0.5,244.167 -0.5,243.833 -0.5,243.5C 24.8355,243.667 50.1689,243.5 75.5,243C 80.1667,238.333 84.8333,233.667 89.5,229C 59.5019,228.5 29.5019,228.333 -0.5,228.5C -0.5,227.5 -0.5,226.5 -0.5,225.5C -0.166667,225.5 0.166667,225.5 0.5,225.5C 0.610709,226.117 0.944043,226.617 1.5,227C 31.5,227.667 61.5,227.667 91.5,227C 92.7101,225.961 93.7101,224.794 94.5,223.5C 95.2891,223.217 95.9558,222.717 96.5,222C 64.664,221.169 32.9973,221.336 1.5,222.5C 1.16667,222.5 0.833333,222.5 0.5,222.5C 0.5,221.833 0.5,221.167 0.5,220.5C 33.1684,220.667 65.835,220.5 98.5,220C 102.5,216 106.5,212 110.5,208C 83.5,207.667 56.5,207.333 29.5,207C 27.3517,204.925 27.0183,202.592 28.5,200C 59.4143,198.682 90.4143,198.015 121.5,198C 146.399,174.875 175.066,157.875 207.5,147C 274.564,132.512 332.23,149.512 380.5,198C 409.5,198.667 438.5,198.667 467.5,198C 475.897,194.365 484.564,191.865 493.5,190.5 Z"/></g>
<g><path style="opacity:1" fill="#fbfbfb" d="M 267.5,259.5 C 267.833,259.5 268.167,259.5 268.5,259.5C 268.5,268.833 268.5,278.167 268.5,287.5C 271.167,287.5 273.833,287.5 276.5,287.5C 277.494,278.014 277.827,268.348 277.5,258.5C 274.615,258.806 271.948,258.473 269.5,257.5C 271.805,256.011 274.138,254.511 276.5,253C 280.016,247.921 278.683,245.254 272.5,245C 270.365,244.124 269.031,242.624 268.5,240.5C 267.21,239.942 266.377,238.942 266,237.5C 264.842,227.876 264.176,218.209 264,208.5C 261.912,207.692 259.912,206.692 258,205.5C 257.063,202.344 255.563,199.511 253.5,197C 250.012,196.148 246.678,194.981 243.5,193.5C 242.811,191.556 242.311,189.556 242,187.5C 239.301,182.813 236.634,178.147 234,173.5C 233.262,169.739 233.595,166.072 235,162.5C 238.192,155.81 242.359,149.81 247.5,144.5C 281.336,143.626 312.67,152.126 341.5,170C 362.101,183.921 380.934,200.088 398,218.5C 406.981,228.982 416.148,239.315 425.5,249.5C 403.982,275.851 379.982,299.685 353.5,321C 333.592,335.48 311.592,345.646 287.5,351.5C 284.718,346.883 281.051,343.05 276.5,340C 265.999,334.944 255.332,330.278 244.5,326C 243.426,325.261 242.759,324.261 242.5,323C 243.858,321.311 245.525,319.978 247.5,319C 256.14,317.208 264.64,315.041 273,312.5C 273.63,310.097 272.797,308.263 270.5,307C 263.336,304.39 256.336,301.39 249.5,298C 247.604,296.192 247.104,294.025 248,291.5C 251.667,288.5 255.333,285.5 259,282.5C 261.067,277.386 262.401,272.053 263,266.5C 264.012,263.798 265.512,261.465 267.5,259.5 Z"/></g>
<g><path style="opacity:1" fill="#405aa2" d="M 223.5,204.5 C 217.591,200.605 211.925,196.272 206.5,191.5C 205.386,192.723 205.219,194.056 206,195.5C 210.234,200.197 215.401,203.197 221.5,204.5C 222.199,207.573 223.199,210.573 224.5,213.5C 222.166,213.597 220,212.597 218,210.5C 218.422,213.098 218.422,215.764 218,218.5C 216.384,222.347 215.384,226.347 215,230.5C 214.722,229.584 214.222,228.918 213.5,228.5C 212.001,229.494 210.334,229.494 208.5,228.5C 204.59,226.263 201.257,223.263 198.5,219.5C 197.281,220.263 196.281,221.263 195.5,222.5C 194.06,221.048 192.394,220.048 190.5,219.5C 189.088,217.02 187.422,214.687 185.5,212.5C 184.029,213.381 183.196,214.714 183,216.5C 181.296,214.627 179.463,212.96 177.5,211.5C 176.363,208.771 175.03,206.104 173.5,203.5C 172.281,204.263 171.281,205.263 170.5,206.5C 169.049,202.009 169.383,197.676 171.5,193.5C 171.167,193.167 170.833,192.833 170.5,192.5C 169.5,193.167 168.5,193.833 167.5,194.5C 169.956,180.993 177.289,170.66 189.5,163.5C 190.287,164.242 190.953,165.075 191.5,166C 204.083,165.082 214.916,168.915 224,177.5C 226.973,181.781 229.14,186.447 230.5,191.5C 230.167,192.167 229.833,192.833 229.5,193.5C 225.956,192.211 222.623,190.544 219.5,188.5C 219.167,188.833 218.833,189.167 218.5,189.5C 223.634,194.434 226.634,200.434 227.5,207.5C 225.027,207.912 223.694,206.912 223.5,204.5 Z"/></g>
<g><path style="opacity:1" fill="#a20b0f" d="M 197.5,176.5 C 198.873,176.343 200.207,176.51 201.5,177C 207.64,181.403 214.307,184.737 221.5,187C 212.638,187.824 204.805,185.324 198,179.5C 197.517,178.552 197.351,177.552 197.5,176.5 Z"/></g>
<g><path style="opacity:1" fill="#a50609" d="M 183.5,182.5 C 184.822,182.33 185.989,182.663 187,183.5C 188.313,192.626 185.98,200.626 180,207.5C 180.194,203.053 181.194,198.72 183,194.5C 183.499,190.514 183.666,186.514 183.5,182.5 Z"/></g>
<g><path style="opacity:1" fill="#a4070b" d="M 223.5,204.5 C 222.833,204.5 222.167,204.5 221.5,204.5C 215.401,203.197 210.234,200.197 206,195.5C 205.219,194.056 205.386,192.723 206.5,191.5C 211.925,196.272 217.591,200.605 223.5,204.5 Z"/></g>
<g><path style="opacity:0.965" fill="#f5f5f5" d="M 494.5,195.5 C 495.554,200.107 496.221,204.773 496.5,209.5C 494.323,209.586 492.323,210.253 490.5,211.5C 484.932,209.813 479.599,207.647 474.5,205C 475.174,203.249 475.507,201.583 475.5,200C 481.59,197.356 487.924,195.856 494.5,195.5 Z"/></g>
<g><path style="opacity:1" fill="#a50407" d="M 192.5,197.5 C 194.124,197.36 195.29,198.027 196,199.5C 197.141,206.084 196.474,212.417 194,218.5C 193.5,211.494 193,204.494 192.5,197.5 Z"/></g>
<g><path style="opacity:1" fill="#fdd900" d="M 29.5,200.5 C 59.1685,200.333 88.8352,200.5 118.5,201C 117.016,202.574 115.349,203.907 113.5,205C 85.5,205.667 57.5,205.667 29.5,205C 28.2721,203.51 28.2721,202.01 29.5,200.5 Z"/></g>
<g><path style="opacity:1" fill="#fcd900" d="M 383.5,201.5 C 407.997,200.337 432.663,200.17 457.5,201C 458.833,202.333 458.833,203.667 457.5,205C 434.167,205.667 410.833,205.667 387.5,205C 386.295,203.624 384.962,202.458 383.5,201.5 Z"/></g>
<g><path style="opacity:1" fill="#f1d300" d="M 468.5,200.5 C 472.676,199.831 474.009,201.331 472.5,205C 471.207,205.49 469.873,205.657 468.5,205.5C 468.5,203.833 468.5,202.167 468.5,200.5 Z"/></g>
<g><path style="opacity:1" fill="#ac0b0b" d="M 497.5,214.5 C 498.403,217.391 498.736,220.391 498.5,223.5C 486.067,219.912 473.734,215.912 461.5,211.5C 452.568,214.699 443.568,217.699 434.5,220.5C 424.165,220.482 413.499,220.315 402.5,220C 398.5,216 394.5,212 390.5,208C 416.167,207.333 441.833,207.333 467.5,208C 475.051,211.128 482.718,213.962 490.5,216.5C 492.729,215.423 495.063,214.756 497.5,214.5 Z"/></g>
<g><path style="opacity:1" fill="#c5c5c5" d="M 138.5,211.5 C 138.5,220.833 138.5,230.167 138.5,239.5C 140.833,239.5 143.167,239.5 145.5,239.5C 145.5,230.167 145.5,220.833 145.5,211.5C 146.494,220.986 146.827,230.652 146.5,240.5C 143.5,240.5 140.5,240.5 137.5,240.5C 137.173,230.652 137.506,220.986 138.5,211.5 Z"/></g>
<g><path style="opacity:1" fill="#fefefe" d="M 138.5,211.5 C 140.833,211.5 143.167,211.5 145.5,211.5C 145.5,220.833 145.5,230.167 145.5,239.5C 143.167,239.5 140.833,239.5 138.5,239.5C 138.5,230.167 138.5,220.833 138.5,211.5 Z"/></g>
<g><path style="opacity:1" fill="#919191" d="M 155.5,211.5 C 155.5,220.833 155.5,230.167 155.5,239.5C 158.167,239.5 160.833,239.5 163.5,239.5C 160.713,240.477 157.713,240.81 154.5,240.5C 154.173,230.652 154.506,220.986 155.5,211.5 Z"/></g>
<g><path style="opacity:1" fill="#fefefe" d="M 155.5,211.5 C 158.167,211.5 160.833,211.5 163.5,211.5C 163.5,220.833 163.5,230.167 163.5,239.5C 160.833,239.5 158.167,239.5 155.5,239.5C 155.5,230.167 155.5,220.833 155.5,211.5 Z"/></g>
<g><path style="opacity:1" fill="#f9f9f9" d="M 177.5,211.5 C 177.685,213.196 178.519,214.529 180,215.5C 180.5,223.827 180.666,232.16 180.5,240.5C 177.833,240.5 175.167,240.5 172.5,240.5C 172.5,230.833 172.5,221.167 172.5,211.5C 174.167,211.5 175.833,211.5 177.5,211.5 Z"/></g>
<g><path style="opacity:1" fill="#f8f8f8" d="M 225.5,211.5 C 227.833,211.5 230.167,211.5 232.5,211.5C 232.5,221.167 232.5,230.833 232.5,240.5C 229.833,240.5 227.167,240.5 224.5,240.5C 224.307,230.806 224.64,221.139 225.5,211.5 Z"/></g>
<g><path style="opacity:1" fill="#040404" d="M 276.5,211.5 C 276.5,220.833 276.5,230.167 276.5,239.5C 273.833,239.5 271.167,239.5 268.5,239.5C 268.5,230.167 268.5,220.833 268.5,211.5C 271.167,211.5 273.833,211.5 276.5,211.5 Z"/></g>
<g><path style="opacity:1" fill="#494949" d="M 276.5,211.5 C 277.494,220.986 277.827,230.652 277.5,240.5C 274.5,240.5 271.5,240.5 268.5,240.5C 268.5,240.167 268.5,239.833 268.5,239.5C 271.167,239.5 273.833,239.5 276.5,239.5C 276.5,230.167 276.5,220.833 276.5,211.5 Z"/></g>
<g><path style="opacity:1" fill="#010101" d="M 286.5,211.5 C 289.167,211.5 291.833,211.5 294.5,211.5C 294.5,220.833 294.5,230.167 294.5,239.5C 291.833,239.5 289.167,239.5 286.5,239.5C 286.5,230.167 286.5,220.833 286.5,211.5 Z"/></g>
<g><path style="opacity:1" fill="#000000" d="M 303.5,211.5 C 306.167,211.5 308.833,211.5 311.5,211.5C 311.5,220.833 311.5,230.167 311.5,239.5C 308.833,239.5 306.167,239.5 303.5,239.5C 303.5,230.167 303.5,220.833 303.5,211.5 Z"/></g>
<g><path style="opacity:1" fill="#010101" d="M 328.5,211.5 C 328.5,220.833 328.5,230.167 328.5,239.5C 325.833,239.5 323.167,239.5 320.5,239.5C 320.5,230.167 320.5,220.833 320.5,211.5C 323.167,211.5 325.833,211.5 328.5,211.5 Z"/></g>
<g><path style="opacity:1" fill="#4e4e4e" d="M 328.5,211.5 C 329.494,220.986 329.827,230.652 329.5,240.5C 326.287,240.81 323.287,240.477 320.5,239.5C 323.167,239.5 325.833,239.5 328.5,239.5C 328.5,230.167 328.5,220.833 328.5,211.5 Z"/></g>
<g><path style="opacity:1" fill="#020202" d="M 338.5,211.5 C 341.167,211.5 343.833,211.5 346.5,211.5C 346.5,220.833 346.5,230.167 346.5,239.5C 343.833,239.5 341.167,239.5 338.5,239.5C 338.5,230.167 338.5,220.833 338.5,211.5 Z"/></g>
<g><path style="opacity:1" fill="#000000" d="M 355.5,211.5 C 358.167,211.5 360.833,211.5 363.5,211.5C 363.5,220.833 363.5,230.167 363.5,239.5C 360.833,239.5 358.167,239.5 355.5,239.5C 355.5,230.167 355.5,220.833 355.5,211.5 Z"/></g>
<g><path style="opacity:1" fill="#616161" d="M 338.5,211.5 C 338.5,220.833 338.5,230.167 338.5,239.5C 341.167,239.5 343.833,239.5 346.5,239.5C 343.713,240.477 340.713,240.81 337.5,240.5C 337.173,230.652 337.506,220.986 338.5,211.5 Z"/></g>
<g><path style="opacity:1" fill="#a5060a" d="M 213.5,228.5 C 207.808,225.319 204.142,220.485 202.5,214C 202.893,211.8 203.893,211.3 205.5,212.5C 207.666,218.165 210.333,223.499 213.5,228.5 Z"/></g>
<g><path style="opacity:1" fill="#f6f6f6" d="M 459.5,216.5 C 467.679,218.56 475.679,221.226 483.5,224.5C 475.844,228.331 467.844,230.831 459.5,232C 455.39,230.778 451.39,229.278 447.5,227.5C 446.167,225.5 446.167,223.5 447.5,221.5C 451.763,220.198 455.763,218.531 459.5,216.5 Z"/></g>
<g><path style="opacity:1" fill="#b39800" d="M 1.5,222.5 C 32.9973,221.336 64.664,221.169 96.5,222C 95.9558,222.717 95.2891,223.217 94.5,223.5C 63.6712,222.502 32.6712,222.169 1.5,222.5 Z"/></g>
<g><path style="opacity:1" fill="#ededed" d="M 190.5,219.5 C 192.023,222.364 194.357,224.031 197.5,224.5C 198.548,227.762 198.881,233.095 198.5,240.5C 195.5,240.5 192.5,240.5 189.5,240.5C 189.175,233.313 189.509,226.313 190.5,219.5 Z"/></g>
<g><path style="opacity:1" fill="#f5d400" d="M 0.5,222.5 C 0.833333,222.5 1.16667,222.5 1.5,222.5C 32.6712,222.169 63.6712,222.502 94.5,223.5C 93.7101,224.794 92.7101,225.961 91.5,227C 61.5,227.667 31.5,227.667 1.5,227C 0.944043,226.617 0.610709,226.117 0.5,225.5C 0.5,224.5 0.5,223.5 0.5,222.5 Z"/></g>
<g><path style="opacity:1" fill="#fbdc00" d="M 408.5,226.5 C 407.167,225.833 406.167,224.833 405.5,223.5C 412.648,222.508 419.981,222.175 427.5,222.5C 427.5,223.833 427.5,225.167 427.5,226.5C 421.167,226.5 414.833,226.5 408.5,226.5 Z"/></g>
<g><path style="opacity:1" fill="#e0c500" d="M 439.5,221.5 C 443.029,220.889 444.862,222.223 445,225.5C 443.445,227.515 441.611,227.848 439.5,226.5C 440.535,224.872 440.535,223.205 439.5,221.5 Z"/></g>
<g><path style="opacity:1" fill="#c4a800" d="M 408.5,226.5 C 414.833,226.5 421.167,226.5 427.5,226.5C 427.5,225.167 427.5,223.833 427.5,222.5C 419.981,222.175 412.648,222.508 405.5,223.5C 404.957,223.44 404.624,223.107 404.5,222.5C 412.479,221.335 420.479,221.168 428.5,222C 431.167,223.667 431.167,225.333 428.5,227C 421.654,227.821 414.987,227.654 408.5,226.5 Z"/></g>
<g><path style="opacity:0.99" fill="#ac0b0b" d="M 499.5,225.5 C 499.5,231.5 499.5,237.5 499.5,243.5C 474.164,243.667 448.831,243.5 423.5,243C 418.934,238.524 414.601,233.857 410.5,229C 417.477,228.612 424.31,228.446 431,228.5C 441.387,230.572 451.554,233.572 461.5,237.5C 474.004,232.911 486.671,228.911 499.5,225.5 Z"/></g>
<g><path style="opacity:0.994" fill="#aa0b0b" d="M -0.5,228.5 C 29.5019,228.333 59.5019,228.5 89.5,229C 84.8333,233.667 80.1667,238.333 75.5,243C 50.1689,243.5 24.8355,243.667 -0.5,243.5C -0.5,238.5 -0.5,233.5 -0.5,228.5 Z"/></g>
<g><path style="opacity:1" fill="#fbfbfb" d="M 208.5,229.5 C 210.701,230.566 213.035,231.233 215.5,231.5C 215.5,234.167 215.5,236.833 215.5,239.5C 212.833,239.5 210.167,239.5 207.5,239.5C 207.187,235.958 207.521,232.625 208.5,229.5 Z"/></g>
<g><path style="opacity:1" fill="#858585" d="M 208.5,228.5 C 208.5,228.833 208.5,229.167 208.5,229.5C 207.521,232.625 207.187,235.958 207.5,239.5C 210.167,239.5 212.833,239.5 215.5,239.5C 212.713,240.477 209.713,240.81 206.5,240.5C 205.911,236.029 206.577,232.029 208.5,228.5 Z"/></g>
<g><path style="opacity:0.999" fill="#857200" d="M -0.5,245.5 C -0.5,245.167 -0.5,244.833 -0.5,244.5C 24.1757,244.167 48.8423,244.5 73.5,245.5C 73.3764,246.107 73.0431,246.44 72.5,246.5C 48.3391,245.502 24.0057,245.169 -0.5,245.5 Z"/></g>
<g><path style="opacity:0.999" fill="#857200" d="M 499.5,244.5 C 499.5,244.833 499.5,245.167 499.5,245.5C 474.994,245.169 450.661,245.502 426.5,246.5C 425.957,246.44 425.624,246.107 425.5,245.5C 450.158,244.5 474.824,244.167 499.5,244.5 Z"/></g>
<g><path style="opacity:1" fill="#fddb00" d="M -0.5,245.5 C 24.0057,245.169 48.3391,245.502 72.5,246.5C 68.5,248.5 68.5,250.5 72.5,252.5C 53.3405,253.497 34.0072,253.83 14.5,253.5C 13.078,252.075 11.4113,251.075 9.5,250.5C 8.376,249.191 6.876,248.525 5,248.5C 3.17502,248.943 1.34169,249.277 -0.5,249.5C -0.5,248.167 -0.5,246.833 -0.5,245.5 Z"/></g>
<g><path style="opacity:0.999" fill="#fedc00" d="M 426.5,246.5 C 450.661,245.502 474.994,245.169 499.5,245.5C 499.5,248.167 499.5,250.833 499.5,253.5C 474.994,253.831 450.661,253.498 426.5,252.5C 430.5,250.5 430.5,248.5 426.5,246.5 Z"/></g>
<g><path style="opacity:1" fill="#251e1c" d="M 9.5,250.5 C 6.16667,250.5 2.83333,250.5 -0.5,250.5C -0.5,250.167 -0.5,249.833 -0.5,249.5C 1.34169,249.277 3.17502,248.943 5,248.5C 6.876,248.525 8.376,249.191 9.5,250.5 Z"/></g>
<g><path style="opacity:0.955" fill="#3c5ba4" d="M -0.5,250.5 C 2.83333,250.5 6.16667,250.5 9.5,250.5C 11.5293,252.858 13.5293,255.192 15.5,257.5C 15.6653,261.182 15.4986,264.848 15,268.5C 14.3333,267.833 13.6667,267.167 13,266.5C 13.7629,277.722 11.2629,288.055 5.5,297.5C 5.04311,298.298 4.37644,298.631 3.5,298.5C 1.8455,290.251 0.8455,281.918 0.5,273.5C 2.22586,273.815 3.89253,273.981 5.5,274C 3.60887,272.558 1.60887,271.391 -0.5,270.5C -0.5,263.833 -0.5,257.167 -0.5,250.5 Z"/></g>
<g><path style="opacity:1" fill="#8d7900" d="M 72.5,252.5 C 73.0431,252.56 73.3764,252.893 73.5,253.5C 53.6707,254.828 34.0041,254.828 14.5,253.5C 34.0072,253.83 53.3405,253.497 72.5,252.5 Z"/></g>
<g><path style="opacity:0.999" fill="#8d7800" d="M 426.5,252.5 C 450.661,253.498 474.994,253.831 499.5,253.5C 499.5,253.833 499.5,254.167 499.5,254.5C 474.824,254.833 450.158,254.5 425.5,253.5C 425.624,252.893 425.957,252.56 426.5,252.5 Z"/></g>
<g><path style="opacity:1" fill="#7d0808" d="M 75.5,256.5 C 55.6596,256.17 35.9929,256.503 16.5,257.5C 16.1667,257.5 15.8333,257.5 15.5,257.5C 25.1436,256.168 35.1436,255.501 45.5,255.5C 55.6723,255.5 65.6723,255.834 75.5,256.5 Z"/></g>
<g><path style="opacity:0.997" fill="#b00c0b" d="M 493.5,261.5 C 489.638,264.55 487.305,268.55 486.5,273.5C 485.058,275.54 484.058,277.873 483.5,280.5C 485.345,281.395 486.678,280.728 487.5,278.5C 487.833,278.5 488.167,278.5 488.5,278.5C 489.104,283.031 490.437,287.365 492.5,291.5C 493.167,294.5 493.833,297.5 494.5,300.5C 489.68,326.972 480.346,351.639 466.5,374.5C 321.833,374.5 177.167,374.5 32.5,374.5C 19.3196,352.116 9.98626,328.116 4.5,302.5C 6.85086,297.472 9.51753,292.472 12.5,287.5C 12.9076,276.483 14.2409,266.483 16.5,257.5C 35.9929,256.503 55.6596,256.17 75.5,256.5C 91.6606,272.494 107.994,288.327 124.5,304C 131.985,310.241 139.652,316.241 147.5,322C 172.429,339.959 200.096,351.626 230.5,357C 284.884,361.317 332.217,345.317 372.5,309C 390.173,291.993 407.173,274.327 423.5,256C 448.167,255.333 472.833,255.333 497.5,256C 495.536,257.451 494.203,259.284 493.5,261.5 Z"/></g>
<g><path style="opacity:0.909" fill="#3b589e" d="M 499.5,256.5 C 499.5,262.5 499.5,268.5 499.5,274.5C 498.622,278.336 497.956,282.336 497.5,286.5C 496.163,287.315 495.163,288.482 494.5,290C 495.094,290.464 495.761,290.631 496.5,290.5C 496.451,294.078 495.785,297.411 494.5,300.5C 493.833,297.5 493.167,294.5 492.5,291.5C 491.942,287.989 491.276,284.489 490.5,281C 490.603,279.439 490.937,277.939 491.5,276.5C 489.604,275.361 488.604,276.027 488.5,278.5C 488.167,278.5 487.833,278.5 487.5,278.5C 486.624,278.631 485.957,278.298 485.5,277.5C 486.246,276.264 486.579,274.93 486.5,273.5C 488.83,269.508 491.163,265.508 493.5,261.5C 495.5,259.833 497.5,258.167 499.5,256.5 Z"/></g>
<g><path style="opacity:1" fill="#fefefe" d="M 163.5,259.5 C 163.5,268.833 163.5,278.167 163.5,287.5C 160.833,287.5 158.167,287.5 155.5,287.5C 155.5,278.167 155.5,268.833 155.5,259.5C 158.167,259.5 160.833,259.5 163.5,259.5 Z"/></g>
<g><path style="opacity:1" fill="#fafafa" d="M 172.5,258.5 C 175.167,258.5 177.833,258.5 180.5,258.5C 180.5,268.167 180.5,277.833 180.5,287.5C 177.833,287.5 175.167,287.5 172.5,287.5C 172.5,277.833 172.5,268.167 172.5,258.5 Z"/></g>
<g><path style="opacity:1" fill="#fbfbfb" d="M 189.5,259.5 C 192.167,259.5 194.833,259.5 197.5,259.5C 197.5,268.833 197.5,278.167 197.5,287.5C 194.833,287.5 192.167,287.5 189.5,287.5C 189.5,278.167 189.5,268.833 189.5,259.5 Z"/></g>
<g><path style="opacity:1" fill="#fdfdfd" d="M 215.5,259.5 C 215.5,268.833 215.5,278.167 215.5,287.5C 212.833,287.5 210.167,287.5 207.5,287.5C 207.5,278.167 207.5,268.833 207.5,259.5C 210.167,259.5 212.833,259.5 215.5,259.5 Z"/></g>
<g><path style="opacity:1" fill="#fafafa" d="M 224.5,258.5 C 227.167,258.5 229.833,258.5 232.5,258.5C 232.5,268.167 232.5,277.833 232.5,287.5C 229.833,287.5 227.167,287.5 224.5,287.5C 224.5,277.833 224.5,268.167 224.5,258.5 Z"/></g>
<g><path style="opacity:1" fill="#040404" d="M 268.5,259.5 C 271.167,259.5 273.833,259.5 276.5,259.5C 276.5,268.833 276.5,278.167 276.5,287.5C 273.833,287.5 271.167,287.5 268.5,287.5C 268.5,278.167 268.5,268.833 268.5,259.5 Z"/></g>
<g><path style="opacity:1" fill="#010101" d="M 286.5,259.5 C 289.167,259.5 291.833,259.5 294.5,259.5C 294.5,268.833 294.5,278.167 294.5,287.5C 291.833,287.5 289.167,287.5 286.5,287.5C 286.5,278.167 286.5,268.833 286.5,259.5 Z"/></g>
<g><path style="opacity:1" fill="#000000" d="M 303.5,259.5 C 306.167,259.5 308.833,259.5 311.5,259.5C 311.5,268.833 311.5,278.167 311.5,287.5C 308.833,287.5 306.167,287.5 303.5,287.5C 303.5,278.167 303.5,268.833 303.5,259.5 Z"/></g>
<g><path style="opacity:1" fill="#010101" d="M 320.5,259.5 C 323.167,259.5 325.833,259.5 328.5,259.5C 328.5,268.833 328.5,278.167 328.5,287.5C 325.833,287.5 323.167,287.5 320.5,287.5C 320.5,278.167 320.5,268.833 320.5,259.5 Z"/></g>
<g><path style="opacity:1" fill="#020202" d="M 346.5,259.5 C 346.5,268.833 346.5,278.167 346.5,287.5C 343.833,287.5 341.167,287.5 338.5,287.5C 338.5,278.167 338.5,268.833 338.5,259.5C 341.167,259.5 343.833,259.5 346.5,259.5 Z"/></g>
<g><path style="opacity:1" fill="#000000" d="M 355.5,259.5 C 358.167,259.5 360.833,259.5 363.5,259.5C 363.5,268.833 363.5,278.167 363.5,287.5C 360.833,287.5 358.167,287.5 355.5,287.5C 355.5,278.167 355.5,268.833 355.5,259.5 Z"/></g>
<g><path style="opacity:1" fill="#c5c5c5" d="M 145.5,287.5 C 145.5,278.167 145.5,268.833 145.5,259.5C 143.167,259.5 140.833,259.5 138.5,259.5C 138.5,268.833 138.5,278.167 138.5,287.5C 137.506,278.014 137.173,268.348 137.5,258.5C 140.5,258.5 143.5,258.5 146.5,258.5C 146.827,268.348 146.494,278.014 145.5,287.5 Z"/></g>
<g><path style="opacity:1" fill="#fefffe" d="M 145.5,287.5 C 143.167,287.5 140.833,287.5 138.5,287.5C 138.5,278.167 138.5,268.833 138.5,259.5C 140.833,259.5 143.167,259.5 145.5,259.5C 145.5,268.833 145.5,278.167 145.5,287.5 Z"/></g>
<g><path style="opacity:1" fill="#919191" d="M 163.5,259.5 C 160.833,259.5 158.167,259.5 155.5,259.5C 155.5,268.833 155.5,278.167 155.5,287.5C 154.506,278.014 154.173,268.348 154.5,258.5C 157.713,258.19 160.713,258.523 163.5,259.5 Z"/></g>
<g><path style="opacity:1" fill="#b5b5b5" d="M 189.5,259.5 C 192.287,258.523 195.287,258.19 198.5,258.5C 198.827,268.348 198.494,278.014 197.5,287.5C 197.5,278.167 197.5,268.833 197.5,259.5C 194.833,259.5 192.167,259.5 189.5,259.5 Z"/></g>
<g><path style="opacity:1" fill="#979797" d="M 215.5,259.5 C 212.833,259.5 210.167,259.5 207.5,259.5C 207.5,268.833 207.5,278.167 207.5,287.5C 206.506,278.014 206.173,268.348 206.5,258.5C 209.713,258.19 212.713,258.523 215.5,259.5 Z"/></g>
<g><path style="opacity:1" fill="#494949" d="M 269.5,257.5 C 271.948,258.473 274.615,258.806 277.5,258.5C 277.827,268.348 277.494,278.014 276.5,287.5C 276.5,278.167 276.5,268.833 276.5,259.5C 273.833,259.5 271.167,259.5 268.5,259.5C 268.167,259.5 267.833,259.5 267.5,259.5C 267.833,258.5 268.5,257.833 269.5,257.5 Z"/></g>
<g><path style="opacity:1" fill="#4d4d4d" d="M 320.5,259.5 C 323.287,258.523 326.287,258.19 329.5,258.5C 329.827,268.348 329.494,278.014 328.5,287.5C 328.5,278.167 328.5,268.833 328.5,259.5C 325.833,259.5 323.167,259.5 320.5,259.5 Z"/></g>
<g><path style="opacity:1" fill="#606060" d="M 346.5,259.5 C 343.833,259.5 341.167,259.5 338.5,259.5C 338.5,268.833 338.5,278.167 338.5,287.5C 337.506,278.014 337.173,268.348 337.5,258.5C 340.713,258.19 343.713,258.523 346.5,259.5 Z"/></g>
<g><path style="opacity:1" fill="#180b12" d="M 493.5,261.5 C 491.163,265.508 488.83,269.508 486.5,273.5C 487.305,268.55 489.638,264.55 493.5,261.5 Z"/></g>
<g><path style="opacity:1" fill="#9f1016" d="M -0.5,270.5 C 1.60887,271.391 3.60887,272.558 5.5,274C 3.89253,273.981 2.22586,273.815 0.5,273.5C 0.166667,273.5 -0.166667,273.5 -0.5,273.5C -0.5,272.5 -0.5,271.5 -0.5,270.5 Z"/></g>
<g><path style="opacity:1" fill="#260904" d="M 486.5,273.5 C 486.579,274.93 486.246,276.264 485.5,277.5C 485.957,278.298 486.624,278.631 487.5,278.5C 486.678,280.728 485.345,281.395 483.5,280.5C 484.058,277.873 485.058,275.54 486.5,273.5 Z"/></g>
<g><path style="opacity:1" fill="#150c14" d="M 492.5,291.5 C 490.437,287.365 489.104,283.031 488.5,278.5C 488.604,276.027 489.604,275.361 491.5,276.5C 490.937,277.939 490.603,279.439 490.5,281C 491.276,284.489 491.942,287.989 492.5,291.5 Z"/></g>
<g><path style="opacity:0.051" fill="#a20d14" d="M 497.5,286.5 C 497.768,288.099 497.434,289.432 496.5,290.5C 495.761,290.631 495.094,290.464 494.5,290C 495.163,288.482 496.163,287.315 497.5,286.5 Z"/></g>
<g><path style="opacity:1" fill="#130c14" d="M 15.5,257.5 C 15.8333,257.5 16.1667,257.5 16.5,257.5C 14.2409,266.483 12.9076,276.483 12.5,287.5C 9.51753,292.472 6.85086,297.472 4.5,302.5C 4.16667,301.167 3.83333,299.833 3.5,298.5C 4.37644,298.631 5.04311,298.298 5.5,297.5C 11.2629,288.055 13.7629,277.722 13,266.5C 13.6667,267.167 14.3333,267.833 15,268.5C 15.4986,264.848 15.6653,261.182 15.5,257.5 Z"/></g>
<g><path style="opacity:0.996" fill="#fdd802" d="M 32.5,374.5 C 177.167,374.5 321.833,374.5 466.5,374.5C 459.643,387.555 451.31,399.555 441.5,410.5C 313.5,410.5 185.5,410.5 57.5,410.5C 47.7002,399.584 39.3668,387.584 32.5,374.5 Z"/></g>
<g><path style="opacity:0.989" fill="#3d5db9" d="M 57.5,410.5 C 185.5,410.5 313.5,410.5 441.5,410.5C 397.632,461.939 341.965,491.605 274.5,499.5C 257.833,499.5 241.167,499.5 224.5,499.5C 157.343,491.092 101.676,461.425 57.5,410.5 Z"/></g>
</svg>
