<?xml version="1.0" encoding="UTF-8"?>
<!DOCTYPE svg PUBLIC "-//W3C//DTD SVG 1.1//EN" "http://www.w3.org/Graphics/SVG/1.1/DTD/svg11.dtd">
<svg xmlns="http://www.w3.org/2000/svg" version="1.1" width="500px" height="500px" style="shape-rendering:geometricPrecision; text-rendering:geometricPrecision; image-rendering:optimizeQuality; fill-rule:evenodd; clip-rule:evenodd" xmlns:xlink="http://www.w3.org/1999/xlink">
<g><path style="opacity:0.99" fill="#078930" d="M 225.5,-0.5 C 241.5,-0.5 257.5,-0.5 273.5,-0.5C 362.269,10.9489 428.436,55.6156 472,133.5C 477.625,144.077 482.125,155.077 485.5,166.5C 455.167,166.5 424.833,166.5 394.5,166.5C 356.07,105.786 300.737,78.2856 228.5,84C 174.149,92.3158 132.816,119.816 104.5,166.5C 74.1667,166.5 43.8333,166.5 13.5,166.5C 43.991,84.513 101.324,31.3463 185.5,7C 198.832,3.72528 212.166,1.22528 225.5,-0.5 Z"/></g>
<g><path style="opacity:1" fill="#1147ae" d="M 394.5,166.5 C 423.741,221.81 423.741,277.143 394.5,332.5C 355.486,393.838 299.486,421.338 226.5,415C 173.196,405.812 132.53,378.312 104.5,332.5C 83.3465,292.992 77.8465,251.325 88,207.5C 91.8648,193.114 97.3648,179.447 104.5,166.5C 132.816,119.816 174.149,92.3158 228.5,84C 300.737,78.2856 356.07,105.786 394.5,166.5 Z"/></g>
<g><path style="opacity:1" fill="#f1d71e" d="M 279.5,207.5 C 302.5,208.167 325.5,208.833 348.5,209.5C 344.196,212.657 339.863,215.824 335.5,219C 301.168,219.5 266.835,219.667 232.5,219.5C 232.883,215.681 233.883,212.014 235.5,208.5C 246.167,207.833 256.833,207.167 267.5,206.5C 259.599,182.297 251.599,158.13 243.5,134C 245.006,127.982 247.006,122.148 249.5,116.5C 259.9,146.7 269.9,177.034 279.5,207.5 Z"/></g>
<g><path style="opacity:1" fill="#efd61d" d="M 172.5,140.5 C 174.193,141.475 175.693,142.808 177,144.5C 190.079,162.324 202.912,180.324 215.5,198.5C 214.564,199.974 213.23,200.974 211.5,201.5C 197.859,182.692 184.026,164.026 170,145.5C 169.294,143.045 170.127,141.378 172.5,140.5 Z"/></g>
<g><path style="opacity:1" fill="#f0d71d" d="M 324.5,140.5 C 328,140.495 329.5,142.162 329,145.5C 315.28,163.553 301.947,181.887 289,200.5C 286.866,201.305 285.033,200.638 283.5,198.5C 297.217,179.13 310.884,159.797 324.5,140.5 Z"/></g>
<g><path style="opacity:1" fill="#f3d81b" d="M 124.5,209.5 C 156.167,208.833 187.833,208.167 219.5,207.5C 226.526,185.395 233.859,163.395 241.5,141.5C 243.893,147.012 245.893,152.678 247.5,158.5C 236.928,190.714 226.262,222.881 215.5,255C 212.701,254.268 210.034,252.934 207.5,251C 206.919,250.107 206.585,249.107 206.5,248C 209.199,238.737 212.199,229.57 215.5,220.5C 189.506,219.667 163.506,219.167 137.5,219C 133.492,215.335 129.159,212.168 124.5,209.5 Z"/></g>
<g><path style="opacity:0.993" fill="#fbdc0a" d="M 13.5,166.5 C 43.8333,166.5 74.1667,166.5 104.5,166.5C 97.3648,179.447 91.8648,193.114 88,207.5C 77.8465,251.325 83.3465,292.992 104.5,332.5C 74.1667,332.5 43.8333,332.5 13.5,332.5C 6.28469,313.42 1.61802,293.754 -0.5,273.5C -0.5,257.5 -0.5,241.5 -0.5,225.5C 1.61802,205.246 6.28469,185.58 13.5,166.5 Z"/></g>
<g><path style="opacity:0.993" fill="#fbdc0a" d="M 394.5,166.5 C 424.833,166.5 455.167,166.5 485.5,166.5C 492.586,185.267 497.253,204.6 499.5,224.5C 499.5,241.167 499.5,257.833 499.5,274.5C 498.1,284.764 496.267,295.098 494,305.5C 492.031,314.9 489.198,323.9 485.5,332.5C 455.167,332.5 424.833,332.5 394.5,332.5C 423.741,277.143 423.741,221.81 394.5,166.5 Z"/></g>
<g><path style="opacity:1" fill="#b0ac3e" d="M 219.5,207.5 C 187.833,208.167 156.167,208.833 124.5,209.5C 123.957,209.44 123.624,209.107 123.5,208.5C 155.493,207.5 187.493,207.167 219.5,207.5 Z"/></g>
<g><path style="opacity:1" fill="#b0ac3e" d="M 279.5,207.5 C 302.843,207.167 326.176,207.5 349.5,208.5C 349.376,209.107 349.043,209.44 348.5,209.5C 325.5,208.833 302.5,208.167 279.5,207.5 Z"/></g>
<g><path style="opacity:1" fill="#adab41" d="M 356.5,208.5 C 362.678,207.183 369.012,207.183 375.5,208.5C 375.376,209.107 375.043,209.44 374.5,209.5C 368.69,208.51 362.69,208.177 356.5,208.5 Z"/></g>
<g><path style="opacity:1" fill="#f5d916" d="M 356.5,208.5 C 362.69,208.177 368.69,208.51 374.5,209.5C 349.212,227.615 324.045,245.949 299,264.5C 305.869,286.774 312.536,309.107 319,331.5C 313.556,327.959 308.556,323.959 304,319.5C 293.928,287.785 283.761,256.118 273.5,224.5C 276.962,223.518 280.629,223.185 284.5,223.5C 287.73,232.688 290.897,242.021 294,251.5C 294.414,251.957 294.914,252.291 295.5,252.5C 315.852,237.808 336.185,223.142 356.5,208.5 Z"/></g>
<g><path style="opacity:1" fill="#768866" d="M 163.5,223.5 C 157.31,223.177 151.31,223.51 145.5,224.5C 144.957,224.44 144.624,224.107 144.5,223.5C 150.988,222.183 157.322,222.183 163.5,223.5 Z"/></g>
<g><path style="opacity:1" fill="#778966" d="M 284.5,223.5 C 280.629,223.185 276.962,223.518 273.5,224.5C 272.957,224.44 272.624,224.107 272.5,223.5C 276.649,222.191 280.649,222.191 284.5,223.5 Z"/></g>
<g><path style="opacity:1" fill="#f5d915" d="M 145.5,224.5 C 151.31,223.51 157.31,223.177 163.5,223.5C 190.804,243.491 218.137,263.491 245.5,283.5C 242.81,286.185 239.81,288.518 236.5,290.5C 228.36,284.86 220.36,279.027 212.5,273C 211.833,272.333 211.167,272.333 210.5,273C 202.364,297.741 194.031,322.408 185.5,347C 181,350.167 176.5,353.333 172,356.5C 180.863,326.238 190.363,296.071 200.5,266C 199.899,264.395 198.899,263.062 197.5,262C 179.961,249.736 162.627,237.236 145.5,224.5 Z"/></g>
<g><path style="opacity:1" fill="#f5d915" d="M 279.5,263.5 C 280.496,263.414 281.329,263.748 282,264.5C 283.927,268.064 284.427,271.731 283.5,275.5C 275.36,281.14 267.36,286.973 259.5,293C 280.026,308.36 300.693,323.526 321.5,338.5C 324.253,344.257 326.087,350.257 327,356.5C 301.255,337.711 275.422,319.044 249.5,300.5C 230.401,313.8 211.568,327.466 193,341.5C 194.001,335.156 195.835,328.989 198.5,323C 225.923,303.634 252.923,283.801 279.5,263.5 Z"/></g>
<g><path style="opacity:1" fill="#efd61d" d="M 189.5,265.5 C 191.043,266.736 192.043,268.402 192.5,270.5C 169.708,278.264 146.874,285.931 124,293.5C 121.978,291.031 122.145,288.865 124.5,287C 146.374,280.097 168.041,272.93 189.5,265.5 Z"/></g>
<g><path style="opacity:1" fill="#eed51f" d="M 307.5,266.5 C 331.005,273.224 354.339,280.557 377.5,288.5C 376.752,290.332 375.752,291.999 374.5,293.5C 351.652,286.218 328.985,278.551 306.5,270.5C 307.246,269.264 307.579,267.93 307.5,266.5 Z"/></g>
<g><path style="opacity:1" fill="#c2b833" d="M 246.5,310.5 C 248.5,310.5 250.5,310.5 252.5,310.5C 252.5,334.833 252.5,359.167 252.5,383.5C 250.5,383.5 248.5,383.5 246.5,383.5C 246.5,359.167 246.5,334.833 246.5,310.5 Z"/></g>
<g><path style="opacity:1" fill="#fee104" d="M 247.5,311.5 C 248.833,311.5 250.167,311.5 251.5,311.5C 251.5,335.167 251.5,358.833 251.5,382.5C 250.167,382.5 248.833,382.5 247.5,382.5C 247.5,358.833 247.5,335.167 247.5,311.5 Z"/></g>
<g><path style="opacity:0.99" fill="#da121a" d="M 13.5,332.5 C 43.8333,332.5 74.1667,332.5 104.5,332.5C 132.53,378.312 173.196,405.812 226.5,415C 299.486,421.338 355.486,393.838 394.5,332.5C 424.833,332.5 455.167,332.5 485.5,332.5C 459.059,404.776 410.059,455.276 338.5,484C 317.652,491.713 296.319,496.88 274.5,499.5C 257.833,499.5 241.167,499.5 224.5,499.5C 136.144,487.759 70.3107,443.092 27,365.5C 21.3753,354.923 16.8753,343.923 13.5,332.5 Z"/></g>
</svg>
