<?xml version="1.0" encoding="UTF-8"?>
<!DOCTYPE svg PUBLIC "-//W3C//DTD SVG 1.1//EN" "http://www.w3.org/Graphics/SVG/1.1/DTD/svg11.dtd">
<svg xmlns="http://www.w3.org/2000/svg" version="1.1" width="500px" height="500px" style="shape-rendering:geometricPrecision; text-rendering:geometricPrecision; image-rendering:optimizeQuality; fill-rule:evenodd; clip-rule:evenodd" xmlns:xlink="http://www.w3.org/1999/xlink">
<g><path style="opacity:0.995" fill="#003398" d="M 225.5,-0.5 C 241.5,-0.5 257.5,-0.5 273.5,-0.5C 362.269,10.9489 428.436,55.6156 472,133.5C 486.559,162.333 495.726,192.666 499.5,224.5C 499.5,241.167 499.5,257.833 499.5,274.5C 487.763,362.844 443.096,428.678 365.5,472C 336.667,486.559 306.334,495.726 274.5,499.5C 257.833,499.5 241.167,499.5 224.5,499.5C 132.595,487.071 65.4284,439.737 23,357.5C 10.7506,330.604 2.91724,302.604 -0.5,273.5C -0.5,257.5 -0.5,241.5 -0.5,225.5C 12.3703,130.238 62.0369,61.7383 148.5,20C 173.332,9.544 198.998,2.71067 225.5,-0.5 Z"/></g>
<g><path style="opacity:1" fill="#f5c711" d="M 255.5,89.5 C 261.167,90.1667 266.833,90.8333 272.5,91.5C 267.402,94.1029 263.068,97.6029 259.5,102C 261.568,107.449 263.068,112.949 264,118.5C 259.388,114.783 254.555,111.45 249.5,108.5C 244.554,111.603 239.72,114.937 235,118.5C 236.737,112.615 238.07,106.615 239,100.5C 235.069,97.1229 230.902,94.1229 226.5,91.5C 232.167,90.8333 237.833,90.1667 243.5,89.5C 245.274,84.1895 247.274,78.8562 249.5,73.5C 251.702,78.7748 253.702,84.1081 255.5,89.5 Z"/></g>
<g><path style="opacity:1" fill="#7a7c4f" d="M 243.5,89.5 C 237.833,90.1667 232.167,90.8333 226.5,91.5C 225.957,91.44 225.624,91.1067 225.5,90.5C 231.463,89.5041 237.463,89.1707 243.5,89.5 Z"/></g>
<g><path style="opacity:1" fill="#616d5e" d="M 255.5,89.5 C 261.537,89.1707 267.537,89.5041 273.5,90.5C 273.376,91.1067 273.043,91.44 272.5,91.5C 266.833,90.8333 261.167,90.1667 255.5,89.5 Z"/></g>
<g><path style="opacity:1" fill="#f3c611" d="M 325.5,93.5 C 326.497,93.4701 327.164,93.9701 327.5,95C 329.068,99.8707 330.735,104.704 332.5,109.5C 338.472,110.33 344.472,110.83 350.5,111C 345.348,114.327 340.681,118.16 336.5,122.5C 337.967,127.568 339.634,132.568 341.5,137.5C 341.167,137.833 340.833,138.167 340.5,138.5C 335.833,135.167 331.167,131.833 326.5,128.5C 321.833,131.833 317.167,135.167 312.5,138.5C 312.167,138.333 311.833,138.167 311.5,138C 314.431,132.41 315.764,126.577 315.5,120.5C 311.307,117.14 306.974,113.973 302.5,111C 308.825,110.5 315.158,110.334 321.5,110.5C 322.833,104.833 324.167,99.1667 325.5,93.5 Z"/></g>
<g><path style="opacity:1" fill="#f3c613" d="M 171.5,93.5 C 172.497,93.4701 173.164,93.9701 173.5,95C 174.773,100.153 176.44,105.153 178.5,110C 184.5,110.333 190.5,110.667 196.5,111C 192.088,114.29 187.588,117.456 183,120.5C 183.662,126.496 185.162,132.33 187.5,138C 186.833,138.667 186.167,138.667 185.5,138C 181.167,134.833 176.833,131.667 172.5,128.5C 167.397,131.802 162.564,135.469 158,139.5C 158.957,133.779 160.457,128.113 162.5,122.5C 158.319,118.16 153.652,114.327 148.5,111C 154.5,110.667 160.5,110.333 166.5,110C 168.708,104.671 170.374,99.1705 171.5,93.5 Z"/></g>
<g><path style="opacity:1" fill="#f6c80f" d="M 121.5,166.5 C 127.5,167.167 133.5,167.833 139.5,168.5C 134.55,171.453 129.883,174.786 125.5,178.5C 127.89,184.299 129.557,189.965 130.5,195.5C 126.069,191.566 121.236,188.233 116,185.5C 111.174,188.582 106.508,191.916 102,195.5C 102.856,189.916 104.356,184.416 106.5,179C 102.599,175.038 98.2656,171.538 93.5,168.5C 99.1667,167.833 104.833,167.167 110.5,166.5C 112.03,161.078 113.863,155.745 116,150.5C 118.525,155.574 120.358,160.907 121.5,166.5 Z"/></g>
<g><path style="opacity:1" fill="#f5c711" d="M 382.5,150.5 C 385.269,155.801 387.269,161.468 388.5,167.5C 394.509,167.334 400.509,167.501 406.5,168C 401.616,171.268 396.949,174.768 392.5,178.5C 394.948,183.995 396.448,189.661 397,195.5C 392.492,191.916 387.826,188.582 383,185.5C 378.079,188.046 373.579,191.213 369.5,195C 368.833,195.667 368.167,195.667 367.5,195C 369.593,189.555 371.593,184.055 373.5,178.5C 368.999,174.839 364.332,171.339 359.5,168C 365.491,167.501 371.491,167.334 377.5,167.5C 378.565,161.641 380.231,155.974 382.5,150.5 Z"/></g>
<g><path style="opacity:1" fill="#656f5c" d="M 110.5,166.5 C 104.833,167.167 99.1667,167.833 93.5,168.5C 92.9569,168.44 92.6236,168.107 92.5,167.5C 98.4632,166.504 104.463,166.171 110.5,166.5 Z"/></g>
<g><path style="opacity:1" fill="#465c6f" d="M 121.5,166.5 C 127.868,166.17 134.202,166.504 140.5,167.5C 140.376,168.107 140.043,168.44 139.5,168.5C 133.5,167.833 127.5,167.167 121.5,166.5 Z"/></g>
<g><path style="opacity:1" fill="#f3c614" d="M 409.5,243.5 C 415.167,244.167 420.833,244.833 426.5,245.5C 421.734,248.538 417.401,252.038 413.5,256C 415.644,261.416 417.144,266.916 418,272.5C 413.492,268.916 408.826,265.582 404,262.5C 398.764,265.233 393.931,268.566 389.5,272.5C 390.068,266.768 391.734,261.102 394.5,255.5C 389.642,251.475 384.642,247.642 379.5,244C 385.825,243.5 392.158,243.334 398.5,243.5C 399.76,238.052 401.427,232.719 403.5,227.5C 406.087,232.591 408.087,237.924 409.5,243.5 Z"/></g>
<g><path style="opacity:1" fill="#f5c712" d="M 101.5,243.5 C 107.167,244.167 112.833,244.833 118.5,245.5C 114.098,248.123 109.931,251.123 106,254.5C 106.552,260.339 108.052,266.005 110.5,271.5C 110.167,271.833 109.833,272.167 109.5,272.5C 105.069,268.566 100.236,265.233 95,262.5C 90.1744,265.582 85.5077,268.916 81,272.5C 81.852,266.926 83.352,261.426 85.5,256C 81.9316,251.603 77.5983,248.103 72.5,245.5C 78.1667,244.833 83.8333,244.167 89.5,243.5C 91.1974,238.036 93.1974,232.703 95.5,227.5C 97.7259,232.856 99.7259,238.189 101.5,243.5 Z"/></g>
<g><path style="opacity:1" fill="#80804c" d="M 89.5,243.5 C 83.8333,244.167 78.1667,244.833 72.5,245.5C 71.9569,245.44 71.6236,245.107 71.5,244.5C 77.4632,243.504 83.4632,243.171 89.5,243.5 Z"/></g>
<g><path style="opacity:1" fill="#67705b" d="M 101.5,243.5 C 107.537,243.171 113.537,243.504 119.5,244.5C 119.376,245.107 119.043,245.44 118.5,245.5C 112.833,244.833 107.167,244.167 101.5,243.5 Z"/></g>
<g><path style="opacity:1" fill="#6a7259" d="M 409.5,243.5 C 415.537,243.171 421.537,243.504 427.5,244.5C 427.376,245.107 427.043,245.44 426.5,245.5C 420.833,244.833 415.167,244.167 409.5,243.5 Z"/></g>
<g><path style="opacity:1" fill="#f5c811" d="M 121.5,320.5 C 127.167,321.167 132.833,321.833 138.5,322.5C 134.196,325.657 129.863,328.824 125.5,332C 127.162,336.971 128.828,341.971 130.5,347C 130.167,347.5 129.833,348 129.5,348.5C 125.141,344.974 120.641,341.641 116,338.5C 111.077,342.045 106.244,345.712 101.5,349.5C 102.443,343.965 104.11,338.299 106.5,332.5C 102.356,328.927 98.0223,325.594 93.5,322.5C 99.1667,321.833 104.833,321.167 110.5,320.5C 112.23,314.809 114.063,309.143 116,303.5C 118.34,309.019 120.173,314.686 121.5,320.5 Z"/></g>
<g><path style="opacity:1" fill="#f6c810" d="M 388.5,320.5 C 394.167,321.167 399.833,321.833 405.5,322.5C 400.978,325.594 396.644,328.927 392.5,332.5C 394.933,337.753 396.266,343.087 396.5,348.5C 391.911,345.289 387.411,341.955 383,338.5C 378.359,341.641 373.859,344.974 369.5,348.5C 369.734,343.087 371.067,337.753 373.5,332.5C 369.356,328.927 365.022,325.594 360.5,322.5C 366.167,321.833 371.833,321.167 377.5,320.5C 378.827,314.686 380.66,309.019 383,303.5C 385.299,309.031 387.132,314.698 388.5,320.5 Z"/></g>
<g><path style="opacity:1" fill="#9c903b" d="M 110.5,320.5 C 104.833,321.167 99.1667,321.833 93.5,322.5C 92.9569,322.44 92.6236,322.107 92.5,321.5C 98.4632,320.504 104.463,320.171 110.5,320.5 Z"/></g>
<g><path style="opacity:1" fill="#8f8943" d="M 121.5,320.5 C 127.842,320.334 134.175,320.5 140.5,321C 139.956,321.717 139.289,322.217 138.5,322.5C 132.833,321.833 127.167,321.167 121.5,320.5 Z"/></g>
<g><path style="opacity:1" fill="#9d913b" d="M 377.5,320.5 C 371.833,321.167 366.167,321.833 360.5,322.5C 359.957,322.44 359.624,322.107 359.5,321.5C 365.463,320.504 371.463,320.171 377.5,320.5 Z"/></g>
<g><path style="opacity:1" fill="#8f8943" d="M 388.5,320.5 C 394.537,320.171 400.537,320.504 406.5,321.5C 406.376,322.107 406.043,322.44 405.5,322.5C 399.833,321.833 394.167,321.167 388.5,320.5 Z"/></g>
<g><path style="opacity:1" fill="#f5c710" d="M 325.5,360.5 C 326.497,360.47 327.164,360.97 327.5,362C 329.068,366.871 330.735,371.704 332.5,376.5C 338.472,377.33 344.472,377.83 350.5,378C 346,381.167 341.5,384.333 337,387.5C 337.552,393.339 339.052,399.005 341.5,404.5C 341.167,404.833 340.833,405.167 340.5,405.5C 336.112,401.779 331.445,398.445 326.5,395.5C 322.167,398.667 317.833,401.833 313.5,405C 312.833,405.667 312.167,405.667 311.5,405C 313.5,399.667 315.5,394.333 317.5,389C 312.5,385.333 307.5,381.667 302.5,378C 308.5,377.667 314.5,377.333 320.5,377C 322.874,371.713 324.54,366.213 325.5,360.5 Z"/></g>
<g><path style="opacity:1" fill="#f4c612" d="M 171.5,360.5 C 172.497,360.47 173.164,360.97 173.5,362C 175.172,367.029 176.838,372.029 178.5,377C 184.5,377.333 190.5,377.667 196.5,378C 192,381.167 187.5,384.333 183,387.5C 183.552,393.339 185.052,399.005 187.5,404.5C 187.167,404.833 186.833,405.167 186.5,405.5C 181.833,402.167 177.167,398.833 172.5,395.5C 167.833,398.833 163.167,402.167 158.5,405.5C 158.167,405.167 157.833,404.833 157.5,404.5C 159.948,399.005 161.448,393.339 162,387.5C 157.5,384.333 153,381.167 148.5,378C 154.5,377.667 160.5,377.333 166.5,377C 168.467,371.599 170.133,366.099 171.5,360.5 Z"/></g>
<g><path style="opacity:1" fill="#f5c711" d="M 255.5,397.5 C 261.167,398.167 266.833,398.833 272.5,399.5C 267.402,402.103 263.068,405.603 259.5,410C 261.568,415.449 263.068,420.949 264,426.5C 259.28,422.937 254.446,419.603 249.5,416.5C 244.554,419.603 239.72,422.937 235,426.5C 236.737,420.615 238.07,414.615 239,408.5C 235.069,405.123 230.902,402.123 226.5,399.5C 232.167,398.833 237.833,398.167 243.5,397.5C 245.274,392.189 247.274,386.856 249.5,381.5C 251.702,386.775 253.702,392.108 255.5,397.5 Z"/></g>
<g><path style="opacity:1" fill="#777a52" d="M 243.5,397.5 C 237.833,398.167 232.167,398.833 226.5,399.5C 225.957,399.44 225.624,399.107 225.5,398.5C 231.463,397.504 237.463,397.171 243.5,397.5 Z"/></g>
<g><path style="opacity:1" fill="#5d6b60" d="M 255.5,397.5 C 261.537,397.171 267.537,397.504 273.5,398.5C 273.376,399.107 273.043,399.44 272.5,399.5C 266.833,398.833 261.167,398.167 255.5,397.5 Z"/></g>
</svg>
