<?xml version="1.0" encoding="UTF-8"?>
<!DOCTYPE svg PUBLIC "-//W3C//DTD SVG 1.1//EN" "http://www.w3.org/Graphics/SVG/1.1/DTD/svg11.dtd">
<svg xmlns="http://www.w3.org/2000/svg" version="1.1" width="500px" height="500px" style="shape-rendering:geometricPrecision; text-rendering:geometricPrecision; image-rendering:optimizeQuality; fill-rule:evenodd; clip-rule:evenodd" xmlns:xlink="http://www.w3.org/1999/xlink">
<g><path style="opacity:0.996" fill="#fefefe" d="M 225.5,-0.5 C 241.5,-0.5 257.5,-0.5 273.5,-0.5C 369.813,12.3931 438.646,62.7264 480,150.5C 484.408,160.889 487.908,171.556 490.5,182.5C 398.167,182.5 305.833,182.5 213.5,182.5C 213.5,122.167 213.5,61.8333 213.5,1.5C 217.664,1.04433 221.664,0.377659 225.5,-0.5 Z"/></g>
<g><path style="opacity:1" fill="#2370b7" d="M 212.5,1.5 C 212.5,62.1667 212.5,122.833 212.5,183.5C 305.5,183.5 398.5,183.5 491.5,183.5C 494.399,193.994 496.399,204.661 497.5,215.5C 391.5,215.5 285.5,215.5 179.5,215.5C 179.833,146.665 179.499,77.998 178.5,9.5C 189.502,5.91788 200.835,3.25122 212.5,1.5 Z"/></g>
<g><path style="opacity:1" fill="#ed2c2a" d="M 178.5,9.5 C 178.5,78.5 178.5,147.5 178.5,216.5C 284.833,216.5 391.167,216.5 497.5,216.5C 497.454,223.05 498.121,229.383 499.5,235.5C 499.5,243.833 499.5,252.167 499.5,260.5C 498.778,264.756 497.778,269.089 496.5,273.5C 496.84,275.512 497.173,277.512 497.5,279.5C 390.999,279.167 284.665,279.501 178.5,280.5C 178.5,350.167 178.5,419.833 178.5,489.5C 156.269,483.38 135.603,474.047 116.5,461.5C 115.837,401.069 115.17,340.736 114.5,280.5C 77.0037,279.502 39.337,279.168 1.5,279.5C 1.07375,270.666 0.407079,261.999 -0.5,253.5C -0.5,246.5 -0.5,239.5 -0.5,232.5C 1.07839,227.417 1.74506,222.084 1.5,216.5C 39.1667,216.5 76.8333,216.5 114.5,216.5C 115.17,156.931 115.837,97.2643 116.5,37.5C 135.593,24.9587 156.259,15.6254 178.5,9.5 Z"/></g>
<g><path style="opacity:1" fill="#c13a48" d="M 116.5,37.5 C 115.837,97.2643 115.17,156.931 114.5,216.5C 114.5,157.167 114.5,97.8333 114.5,38.5C 114.842,37.6618 115.508,37.3284 116.5,37.5 Z"/></g>
<g><path style="opacity:1" fill="#2570b6" d="M 114.5,38.5 C 114.5,97.8333 114.5,157.167 114.5,216.5C 76.8333,216.5 39.1667,216.5 1.5,216.5C 2.47212,205.307 4.47212,194.307 7.5,183.5C 31.8333,183.5 56.1667,183.5 80.5,183.5C 81.1723,143.598 81.8389,103.598 82.5,63.5C 92.0405,53.7292 102.707,45.3959 114.5,38.5 Z"/></g>
<g><path style="opacity:0.987" fill="#fdfefe" d="M 80.5,64.5 C 80.5,104.167 80.5,143.833 80.5,183.5C 56.1667,183.5 31.8333,183.5 7.5,183.5C 20.9134,136.982 45.2467,97.3157 80.5,64.5 Z"/></g>
<g><path style="opacity:1" fill="#4887c3" d="M 82.5,63.5 C 81.8389,103.598 81.1723,143.598 80.5,183.5C 80.5,143.833 80.5,104.167 80.5,64.5C 80.8417,63.6618 81.5084,63.3284 82.5,63.5 Z"/></g>
<g><path style="opacity:1" fill="#afcbe5" d="M 212.5,1.5 C 212.833,1.5 213.167,1.5 213.5,1.5C 213.5,61.8333 213.5,122.167 213.5,182.5C 305.833,182.5 398.167,182.5 490.5,182.5C 491.167,182.5 491.5,182.833 491.5,183.5C 398.5,183.5 305.5,183.5 212.5,183.5C 212.5,122.833 212.5,62.1667 212.5,1.5 Z"/></g>
<g><path style="opacity:1" fill="#4e629a" d="M 178.5,9.5 C 179.499,77.998 179.833,146.665 179.5,215.5C 285.5,215.5 391.5,215.5 497.5,215.5C 498.167,215.5 498.5,215.833 498.5,216.5C 498.167,216.5 497.833,216.5 497.5,216.5C 391.167,216.5 284.833,216.5 178.5,216.5C 178.5,147.5 178.5,78.5 178.5,9.5 Z"/></g>
<g><path style="opacity:0.886" fill="#cd555e" d="M 1.5,216.5 C 1.74506,222.084 1.07839,227.417 -0.5,232.5C -0.5,230.167 -0.5,227.833 -0.5,225.5C 0.166667,222.5 0.833333,219.5 1.5,216.5 Z"/></g>
<g><path style="opacity:0.596" fill="#cd535b" d="M 497.5,216.5 C 497.833,216.5 498.167,216.5 498.5,216.5C 498.198,219.059 498.532,221.393 499.5,223.5C 499.5,227.5 499.5,231.5 499.5,235.5C 498.121,229.383 497.454,223.05 497.5,216.5 Z"/></g>
<g><path style="opacity:1" fill="#d4383f" d="M -0.5,253.5 C 0.407079,261.999 1.07375,270.666 1.5,279.5C 39.337,279.168 77.0037,279.502 114.5,280.5C 76.5,280.5 38.5,280.5 0.5,280.5C 0.801552,277.941 0.468218,275.607 -0.5,273.5C -0.5,266.833 -0.5,260.167 -0.5,253.5 Z"/></g>
<g><path style="opacity:1" fill="#d5353b" d="M 499.5,260.5 C 499.5,265.5 499.5,270.5 499.5,275.5C 498.549,276.919 498.216,278.585 498.5,280.5C 391.833,280.5 285.167,280.5 178.5,280.5C 284.665,279.501 390.999,279.167 497.5,279.5C 497.173,277.512 496.84,275.512 496.5,273.5C 497.778,269.089 498.778,264.756 499.5,260.5 Z"/></g>
<g><path style="opacity:1" fill="#2470b7" d="M 0.5,280.5 C 38.5,280.5 76.5,280.5 114.5,280.5C 114.5,340.5 114.5,400.5 114.5,460.5C 102.707,453.604 92.0405,445.271 82.5,435.5C 81.8389,395.402 81.1723,355.402 80.5,315.5C 56.1667,315.5 31.8333,315.5 7.5,315.5C 4.52533,303.96 2.192,292.293 0.5,280.5 Z"/></g>
<g><path style="opacity:1" fill="#c23a48" d="M 114.5,280.5 C 115.17,340.736 115.837,401.069 116.5,461.5C 115.508,461.672 114.842,461.338 114.5,460.5C 114.5,400.5 114.5,340.5 114.5,280.5 Z"/></g>
<g><path style="opacity:1" fill="#256fb6" d="M 178.5,280.5 C 285.167,280.5 391.833,280.5 498.5,280.5C 496.807,292.3 494.473,303.967 491.5,315.5C 398.5,315.5 305.5,315.5 212.5,315.5C 212.5,376.167 212.5,436.833 212.5,497.5C 200.786,495.961 189.453,493.294 178.5,489.5C 178.5,419.833 178.5,350.167 178.5,280.5 Z"/></g>
<g><path style="opacity:1" fill="#c2d7ea" d="M 491.5,315.5 C 491.5,315.833 491.5,316.167 491.5,316.5C 398.833,316.5 306.167,316.5 213.5,316.5C 213.5,376.833 213.5,437.167 213.5,497.5C 213.167,497.5 212.833,497.5 212.5,497.5C 212.5,436.833 212.5,376.167 212.5,315.5C 305.5,315.5 398.5,315.5 491.5,315.5 Z"/></g>
<g><path style="opacity:0.989" fill="#fefefe" d="M 7.5,315.5 C 31.8333,315.5 56.1667,315.5 80.5,315.5C 80.5,355.167 80.5,394.833 80.5,434.5C 45.1349,401.759 20.8016,362.092 7.5,315.5 Z"/></g>
<g><path style="opacity:1" fill="#4887c3" d="M 80.5,315.5 C 81.1723,355.402 81.8389,395.402 82.5,435.5C 81.5084,435.672 80.8417,435.338 80.5,434.5C 80.5,394.833 80.5,355.167 80.5,315.5 Z"/></g>
<g><path style="opacity:0.995" fill="#fefefe" d="M 491.5,316.5 C 463.732,404.768 405.732,462.934 317.5,491C 303.192,494.695 288.859,497.529 274.5,499.5C 257.833,499.5 241.167,499.5 224.5,499.5C 221.003,498.598 217.337,497.931 213.5,497.5C 213.5,437.167 213.5,376.833 213.5,316.5C 306.167,316.5 398.833,316.5 491.5,316.5 Z"/></g>
</svg>
