<?xml version="1.0" encoding="UTF-8"?>
<!DOCTYPE svg PUBLIC "-//W3C//DTD SVG 1.1//EN" "http://www.w3.org/Graphics/SVG/1.1/DTD/svg11.dtd">
<svg xmlns="http://www.w3.org/2000/svg" version="1.1" width="500px" height="500px" style="shape-rendering:geometricPrecision; text-rendering:geometricPrecision; image-rendering:optimizeQuality; fill-rule:evenodd; clip-rule:evenodd" xmlns:xlink="http://www.w3.org/1999/xlink">
<g><path style="opacity:0.993" fill="#ce1126" d="M 225.5,-0.5 C 241.5,-0.5 257.5,-0.5 273.5,-0.5C 362.269,10.9489 428.436,55.6156 472,133.5C 477.625,144.077 482.125,155.077 485.5,166.5C 328.167,166.5 170.833,166.5 13.5,166.5C 43.991,84.513 101.324,31.3463 185.5,7C 198.832,3.72528 212.166,1.22528 225.5,-0.5 Z"/></g>
<g><path style="opacity:0.997" fill="#fafafc" d="M 13.5,166.5 C 170.833,166.5 328.167,166.5 485.5,166.5C 489.279,175.506 492.279,184.84 494.5,194.5C 331.167,194.5 167.833,194.5 4.5,194.5C 6.89653,184.893 9.89653,175.56 13.5,166.5 Z"/></g>
<g><path style="opacity:0.998" fill="#0e1c8c" d="M 4.5,194.5 C 167.833,194.5 331.167,194.5 494.5,194.5C 496.188,204.63 497.855,214.63 499.5,224.5C 499.5,241.167 499.5,257.833 499.5,274.5C 498.243,284.965 496.243,295.298 493.5,305.5C 330.833,305.5 168.167,305.5 5.5,305.5C 2.85209,294.945 0.852089,284.278 -0.5,273.5C -0.5,257.5 -0.5,241.5 -0.5,225.5C 1.05726,215.283 2.72393,204.949 4.5,194.5 Z"/></g>
<g><path style="opacity:0.997" fill="#fefffe" d="M 5.5,305.5 C 168.167,305.5 330.833,305.5 493.5,305.5C 492.011,314.956 489.344,323.956 485.5,332.5C 328.167,332.5 170.833,332.5 13.5,332.5C 9.76556,323.912 7.0989,314.912 5.5,305.5 Z"/></g>
<g><path style="opacity:0.993" fill="#3a7728" d="M 13.5,332.5 C 170.833,332.5 328.167,332.5 485.5,332.5C 459.059,404.776 410.059,455.276 338.5,484C 317.652,491.713 296.319,496.88 274.5,499.5C 257.833,499.5 241.167,499.5 224.5,499.5C 136.144,487.759 70.3107,443.092 27,365.5C 21.3753,354.923 16.8753,343.923 13.5,332.5 Z"/></g>
</svg>
