<?xml version="1.0" encoding="UTF-8"?>
<!DOCTYPE svg PUBLIC "-//W3C//DTD SVG 1.1//EN" "http://www.w3.org/Graphics/SVG/1.1/DTD/svg11.dtd">
<svg xmlns="http://www.w3.org/2000/svg" version="1.1" width="500px" height="500px" style="shape-rendering:geometricPrecision; text-rendering:geometricPrecision; image-rendering:optimizeQuality; fill-rule:evenodd; clip-rule:evenodd" xmlns:xlink="http://www.w3.org/1999/xlink">
<g><path style="opacity:0.998" fill="#ff0000" d="M 225.5,-0.5 C 241.5,-0.5 257.5,-0.5 273.5,-0.5C 282.02,0.909111 290.687,2.24244 299.5,3.5C 299.5,68.8333 299.5,134.167 299.5,199.5C 364.833,199.5 430.167,199.5 495.5,199.5C 496.748,207.982 498.081,216.315 499.5,224.5C 499.5,241.167 499.5,257.833 499.5,274.5C 498.183,282.703 496.85,291.036 495.5,299.5C 430.167,299.5 364.833,299.5 299.5,299.5C 299.5,364.833 299.5,430.167 299.5,495.5C 291.018,496.748 282.685,498.081 274.5,499.5C 257.833,499.5 241.167,499.5 224.5,499.5C 216.315,498.081 207.982,496.748 199.5,495.5C 199.5,430.167 199.5,364.833 199.5,299.5C 134.167,299.5 68.8333,299.5 3.5,299.5C 2.24244,290.687 0.909111,282.02 -0.5,273.5C -0.5,257.5 -0.5,241.5 -0.5,225.5C 0.909111,216.98 2.24244,208.313 3.5,199.5C 68.8333,199.5 134.167,199.5 199.5,199.5C 199.5,134.167 199.5,68.8333 199.5,3.5C 208.313,2.24244 216.98,0.909111 225.5,-0.5 Z"/></g>
<g><path style="opacity:0.993" fill="#fffefe" d="M 198.5,4.5 C 198.5,69.1667 198.5,133.833 198.5,198.5C 133.833,198.5 69.1667,198.5 4.5,198.5C 11.7175,161.747 26.7175,128.747 49.5,99.5C 49.5,105.167 49.5,110.833 49.5,116.5C 61.4214,114.51 73.4214,113.177 85.5,112.5C 85.0412,124.88 84.0412,137.213 82.5,149.5C 93.8333,149.5 105.167,149.5 116.5,149.5C 114.435,137.25 113.102,124.917 112.5,112.5C 124.9,113.258 137.233,114.592 149.5,116.5C 149.5,105.167 149.5,93.8333 149.5,82.5C 137.206,83.9627 124.872,84.9627 112.5,85.5C 113.341,73.4419 114.674,61.4419 116.5,49.5C 110.833,49.5 105.167,49.5 99.5,49.5C 128.744,26.7194 161.744,11.7194 198.5,4.5 Z"/></g>
<g><path style="opacity:0.993" fill="#fffefe" d="M 300.5,4.5 C 337.256,11.7194 370.256,26.7194 399.5,49.5C 393.833,49.5 388.167,49.5 382.5,49.5C 383.981,61.4568 384.981,73.4568 385.5,85.5C 373.453,85.0286 361.453,84.0286 349.5,82.5C 349.5,93.8333 349.5,105.167 349.5,116.5C 361.421,114.51 373.421,113.177 385.5,112.5C 385.041,124.88 384.041,137.213 382.5,149.5C 393.833,149.5 405.167,149.5 416.5,149.5C 414.435,137.25 413.102,124.917 412.5,112.5C 424.9,113.258 437.233,114.592 449.5,116.5C 449.5,110.833 449.5,105.167 449.5,99.5C 472.283,128.747 487.283,161.747 494.5,198.5C 429.833,198.5 365.167,198.5 300.5,198.5C 300.5,133.833 300.5,69.1667 300.5,4.5 Z"/></g>
<g><path style="opacity:0.995" fill="#ff0402" d="M 99.5,49.5 C 105.167,49.5 110.833,49.5 116.5,49.5C 114.674,61.4419 113.341,73.4419 112.5,85.5C 124.872,84.9627 137.206,83.9627 149.5,82.5C 149.5,93.8333 149.5,105.167 149.5,116.5C 137.233,114.592 124.9,113.258 112.5,112.5C 113.102,124.917 114.435,137.25 116.5,149.5C 105.167,149.5 93.8333,149.5 82.5,149.5C 84.0412,137.213 85.0412,124.88 85.5,112.5C 73.4214,113.177 61.4214,114.51 49.5,116.5C 49.5,110.833 49.5,105.167 49.5,99.5C 53.0826,93.5813 57.4159,88.248 62.5,83.5C 69.9688,84.7619 77.6355,85.4285 85.5,85.5C 85.0645,77.5052 84.7312,69.5052 84.5,61.5C 88.9174,56.7469 93.9174,52.7469 99.5,49.5 Z"/></g>
<g><path style="opacity:0.995" fill="#ff0502" d="M 399.5,49.5 C 405.083,52.7469 410.083,56.7469 414.5,61.5C 413.76,69.4934 413.093,77.4934 412.5,85.5C 420.701,85.4833 428.701,84.8167 436.5,83.5C 438.463,84.9599 440.296,86.6266 442,88.5C 445.015,91.8777 447.515,95.5444 449.5,99.5C 449.5,105.167 449.5,110.833 449.5,116.5C 437.233,114.592 424.9,113.258 412.5,112.5C 413.102,124.917 414.435,137.25 416.5,149.5C 405.167,149.5 393.833,149.5 382.5,149.5C 384.041,137.213 385.041,124.88 385.5,112.5C 373.421,113.177 361.421,114.51 349.5,116.5C 349.5,105.167 349.5,93.8333 349.5,82.5C 361.453,84.0286 373.453,85.0286 385.5,85.5C 384.981,73.4568 383.981,61.4568 382.5,49.5C 388.167,49.5 393.833,49.5 399.5,49.5 Z"/></g>
<g><path style="opacity:0.927" fill="#fffbfa" d="M 84.5,61.5 C 84.7312,69.5052 85.0645,77.5052 85.5,85.5C 77.6355,85.4285 69.9688,84.7619 62.5,83.5C 68.8333,75.1667 76.1667,67.8333 84.5,61.5 Z"/></g>
<g><path style="opacity:0.93" fill="#fff8f8" d="M 414.5,61.5 C 422.833,67.8333 430.167,75.1667 436.5,83.5C 428.701,84.8167 420.701,85.4833 412.5,85.5C 413.093,77.4934 413.76,69.4934 414.5,61.5 Z"/></g>
<g><path style="opacity:0.999" fill="#ffecec" d="M 199.5,3.5 C 199.5,68.8333 199.5,134.167 199.5,199.5C 134.167,199.5 68.8333,199.5 3.5,199.5C 3.5,198.833 3.83333,198.5 4.5,198.5C 69.1667,198.5 133.833,198.5 198.5,198.5C 198.5,133.833 198.5,69.1667 198.5,4.5C 198.5,3.83333 198.833,3.5 199.5,3.5 Z"/></g>
<g><path style="opacity:0.999" fill="#ffecec" d="M 299.5,3.5 C 300.167,3.5 300.5,3.83333 300.5,4.5C 300.5,69.1667 300.5,133.833 300.5,198.5C 365.167,198.5 429.833,198.5 494.5,198.5C 495.167,198.5 495.5,198.833 495.5,199.5C 430.167,199.5 364.833,199.5 299.5,199.5C 299.5,134.167 299.5,68.8333 299.5,3.5 Z"/></g>
<g><path style="opacity:0.993" fill="#fffefe" d="M 4.5,300.5 C 69.1667,300.5 133.833,300.5 198.5,300.5C 198.5,365.167 198.5,429.833 198.5,494.5C 161.747,487.283 128.747,472.283 99.5,449.5C 105.167,449.5 110.833,449.5 116.5,449.5C 114.435,437.25 113.102,424.917 112.5,412.5C 124.9,413.258 137.233,414.592 149.5,416.5C 149.5,405.167 149.5,393.833 149.5,382.5C 137.206,383.963 124.872,384.963 112.5,385.5C 113.341,373.442 114.674,361.442 116.5,349.5C 105.167,349.5 93.8333,349.5 82.5,349.5C 83.9809,361.457 84.9809,373.457 85.5,385.5C 73.4534,385.029 61.4534,384.029 49.5,382.5C 49.5,388.167 49.5,393.833 49.5,399.5C 26.7175,370.253 11.7175,337.253 4.5,300.5 Z"/></g>
<g><path style="opacity:0.993" fill="#fffefe" d="M 494.5,300.5 C 487.191,337.478 472.191,370.811 449.5,400.5C 449.5,394.5 449.5,388.5 449.5,382.5C 437.206,383.963 424.872,384.963 412.5,385.5C 413.341,373.442 414.674,361.442 416.5,349.5C 405.167,349.5 393.833,349.5 382.5,349.5C 383.981,361.457 384.981,373.457 385.5,385.5C 373.453,385.029 361.453,384.029 349.5,382.5C 349.5,393.833 349.5,405.167 349.5,416.5C 361.421,414.51 373.421,413.177 385.5,412.5C 385.041,424.88 384.041,437.213 382.5,449.5C 388.358,449.178 394.025,449.511 399.5,450.5C 369.877,472.472 336.877,487.139 300.5,494.5C 300.5,429.833 300.5,365.167 300.5,300.5C 365.167,300.5 429.833,300.5 494.5,300.5 Z"/></g>
<g><path style="opacity:0.994" fill="#ffecec" d="M 3.5,299.5 C 68.8333,299.5 134.167,299.5 199.5,299.5C 199.5,364.833 199.5,430.167 199.5,495.5C 198.833,495.5 198.5,495.167 198.5,494.5C 198.5,429.833 198.5,365.167 198.5,300.5C 133.833,300.5 69.1667,300.5 4.5,300.5C 3.83333,300.5 3.5,300.167 3.5,299.5 Z"/></g>
<g><path style="opacity:0.995" fill="#ffecec" d="M 495.5,299.5 C 495.5,300.167 495.167,300.5 494.5,300.5C 429.833,300.5 365.167,300.5 300.5,300.5C 300.5,365.167 300.5,429.833 300.5,494.5C 300.5,495.167 300.167,495.5 299.5,495.5C 299.5,430.167 299.5,364.833 299.5,299.5C 364.833,299.5 430.167,299.5 495.5,299.5 Z"/></g>
<g><path style="opacity:0.995" fill="#ff0503" d="M 99.5,449.5 C 95.5444,447.515 91.8777,445.015 88.5,442C 86.6266,440.296 84.9599,438.463 83.5,436.5C 84.8235,428.605 85.4901,420.605 85.5,412.5C 77.5603,412.45 69.8936,413.45 62.5,415.5C 60.5372,414.04 58.7038,412.373 57,410.5C 53.9854,407.122 51.4854,403.456 49.5,399.5C 49.5,393.833 49.5,388.167 49.5,382.5C 61.4534,384.029 73.4534,385.029 85.5,385.5C 84.9809,373.457 83.9809,361.457 82.5,349.5C 93.8333,349.5 105.167,349.5 116.5,349.5C 114.674,361.442 113.341,373.442 112.5,385.5C 124.872,384.963 137.206,383.963 149.5,382.5C 149.5,393.833 149.5,405.167 149.5,416.5C 137.233,414.592 124.9,413.258 112.5,412.5C 113.102,424.917 114.435,437.25 116.5,449.5C 110.833,449.5 105.167,449.5 99.5,449.5 Z"/></g>
<g><path style="opacity:0.995" fill="#ff0503" d="M 449.5,400.5 C 445.511,405.821 441.178,410.821 436.5,415.5C 428.736,413.72 420.736,412.72 412.5,412.5C 412.873,420.859 413.54,429.192 414.5,437.5C 409.821,442.178 404.821,446.511 399.5,450.5C 394.025,449.511 388.358,449.178 382.5,449.5C 384.041,437.213 385.041,424.88 385.5,412.5C 373.421,413.177 361.421,414.51 349.5,416.5C 349.5,405.167 349.5,393.833 349.5,382.5C 361.453,384.029 373.453,385.029 385.5,385.5C 384.981,373.457 383.981,361.457 382.5,349.5C 393.833,349.5 405.167,349.5 416.5,349.5C 414.674,361.442 413.341,373.442 412.5,385.5C 424.872,384.963 437.206,383.963 449.5,382.5C 449.5,388.5 449.5,394.5 449.5,400.5 Z"/></g>
<g><path style="opacity:0.931" fill="#fffafa" d="M 83.5,436.5 C 75.5,430.5 68.5,423.5 62.5,415.5C 69.8936,413.45 77.5603,412.45 85.5,412.5C 85.4901,420.605 84.8235,428.605 83.5,436.5 Z"/></g>
<g><path style="opacity:0.933" fill="#fff8f8" d="M 436.5,415.5 C 430.188,423.812 422.854,431.146 414.5,437.5C 413.54,429.192 412.873,420.859 412.5,412.5C 420.736,412.72 428.736,413.72 436.5,415.5 Z"/></g>
</svg>
