<?xml version="1.0" encoding="UTF-8"?>
<!DOCTYPE svg PUBLIC "-//W3C//DTD SVG 1.1//EN" "http://www.w3.org/Graphics/SVG/1.1/DTD/svg11.dtd">
<svg xmlns="http://www.w3.org/2000/svg" version="1.1" width="500px" height="500px" style="shape-rendering:geometricPrecision; text-rendering:geometricPrecision; image-rendering:optimizeQuality; fill-rule:evenodd; clip-rule:evenodd" xmlns:xlink="http://www.w3.org/1999/xlink">
<g><path style="opacity:0.993" fill="#000000" d="M 225.5,-0.5 C 241.5,-0.5 257.5,-0.5 273.5,-0.5C 362.269,10.9489 428.436,55.6156 472,133.5C 477.625,144.077 482.125,155.077 485.5,166.5C 328.167,166.5 170.833,166.5 13.5,166.5C 43.991,84.513 101.324,31.3463 185.5,7C 198.832,3.72528 212.166,1.22528 225.5,-0.5 Z"/></g>
<g><path style="opacity:0.998" fill="#dd0200" d="M 13.5,166.5 C 170.833,166.5 328.167,166.5 485.5,166.5C 492.586,185.267 497.253,204.6 499.5,224.5C 499.5,241.167 499.5,257.833 499.5,274.5C 497.139,294.62 492.473,314.287 485.5,333.5C 328.167,333.5 170.833,333.5 13.5,333.5C 6.39611,313.964 1.72945,293.964 -0.5,273.5C -0.5,257.5 -0.5,241.5 -0.5,225.5C 1.61802,205.246 6.28469,185.58 13.5,166.5 Z"/></g>
<g><path style="opacity:0.993" fill="#ffce00" d="M 13.5,333.5 C 170.833,333.5 328.167,333.5 485.5,333.5C 458.625,405.209 409.625,455.376 338.5,484C 317.652,491.713 296.319,496.88 274.5,499.5C 257.833,499.5 241.167,499.5 224.5,499.5C 136.144,487.759 70.3107,443.092 27,365.5C 21.6602,355.158 17.1602,344.491 13.5,333.5 Z"/></g>
</svg>
