<?xml version="1.0" encoding="UTF-8"?>
<!DOCTYPE svg PUBLIC "-//W3C//DTD SVG 1.1//EN" "http://www.w3.org/Graphics/SVG/1.1/DTD/svg11.dtd">
<svg xmlns="http://www.w3.org/2000/svg" version="1.1" width="500px" height="500px" style="shape-rendering:geometricPrecision; text-rendering:geometricPrecision; image-rendering:optimizeQuality; fill-rule:evenodd; clip-rule:evenodd" xmlns:xlink="http://www.w3.org/1999/xlink">
<g><path style="opacity:0.993" fill="#ce1125" d="M 225.5,-0.5 C 241.5,-0.5 257.5,-0.5 273.5,-0.5C 362.269,10.9489 428.436,55.6156 472,133.5C 477.625,144.077 482.125,155.077 485.5,166.5C 406.5,166.5 327.5,166.5 248.5,166.5C 248.062,165.494 247.396,165.494 246.5,166.5C 168.833,166.5 91.1667,166.5 13.5,166.5C 43.991,84.513 101.324,31.3463 185.5,7C 198.832,3.72528 212.166,1.22528 225.5,-0.5 Z"/></g>
<g><path style="opacity:1" fill="#030200" d="M 248.5,166.5 C 255.7,187.433 262.7,208.433 269.5,229.5C 291.503,229.333 313.503,229.5 335.5,230C 318.333,242.5 301.167,255 284,267.5C 283.333,268.833 283.333,270.167 284,271.5C 290.607,291.154 297.107,310.821 303.5,330.5C 303.5,331.167 303.167,331.5 302.5,331.5C 284.813,318.65 266.98,305.983 249,293.5C 231.399,306.048 213.899,318.715 196.5,331.5C 195.833,331.5 195.5,331.167 195.5,330.5C 201.996,309.854 208.162,289.187 214,268.5C 196.078,255.789 178.245,242.956 160.5,230C 182.831,229.5 205.164,229.333 227.5,229.5C 234.036,208.56 240.369,187.56 246.5,166.5C 247.396,165.494 248.062,165.494 248.5,166.5 Z"/></g>
<g><path style="opacity:0.997" fill="#fbd015" d="M 13.5,166.5 C 91.1667,166.5 168.833,166.5 246.5,166.5C 240.369,187.56 234.036,208.56 227.5,229.5C 205.164,229.333 182.831,229.5 160.5,230C 178.245,242.956 196.078,255.789 214,268.5C 208.162,289.187 201.996,309.854 195.5,330.5C 135.048,332.49 74.3818,333.157 13.5,332.5C 6.28469,313.42 1.61802,293.754 -0.5,273.5C -0.5,257.5 -0.5,241.5 -0.5,225.5C 1.61802,205.246 6.28469,185.58 13.5,166.5 Z"/></g>
<g><path style="opacity:0.997" fill="#fbd015" d="M 248.5,166.5 C 327.5,166.5 406.5,166.5 485.5,166.5C 492.586,185.267 497.253,204.6 499.5,224.5C 499.5,241.167 499.5,257.833 499.5,274.5C 498.1,284.764 496.267,295.098 494,305.5C 492.031,314.9 489.198,323.9 485.5,332.5C 424.618,333.157 363.952,332.49 303.5,330.5C 297.107,310.821 290.607,291.154 284,271.5C 283.333,270.167 283.333,268.833 284,267.5C 301.167,255 318.333,242.5 335.5,230C 313.503,229.5 291.503,229.333 269.5,229.5C 262.7,208.433 255.7,187.433 248.5,166.5 Z"/></g>
<g><path style="opacity:1" fill="#fad015" d="M 302.5,331.5 C 267.167,332.833 231.833,332.833 196.5,331.5C 213.899,318.715 231.399,306.048 249,293.5C 266.98,305.983 284.813,318.65 302.5,331.5 Z"/></g>
<g><path style="opacity:1" fill="#60912f" d="M 195.5,330.5 C 195.5,331.167 195.833,331.5 196.5,331.5C 231.833,332.833 267.167,332.833 302.5,331.5C 303.167,331.5 303.5,331.167 303.5,330.5C 363.952,332.49 424.618,333.157 485.5,332.5C 485.5,332.833 485.5,333.167 485.5,333.5C 328.167,333.5 170.833,333.5 13.5,333.5C 13.5,333.167 13.5,332.833 13.5,332.5C 74.3818,333.157 135.048,332.49 195.5,330.5 Z"/></g>
<g><path style="opacity:0.993" fill="#006a3f" d="M 13.5,333.5 C 170.833,333.5 328.167,333.5 485.5,333.5C 458.625,405.209 409.625,455.376 338.5,484C 317.652,491.713 296.319,496.88 274.5,499.5C 257.833,499.5 241.167,499.5 224.5,499.5C 136.144,487.759 70.3107,443.092 27,365.5C 21.6602,355.158 17.1602,344.491 13.5,333.5 Z"/></g>
</svg>
