<?xml version="1.0" encoding="UTF-8"?>
<!DOCTYPE svg PUBLIC "-//W3C//DTD SVG 1.1//EN" "http://www.w3.org/Graphics/SVG/1.1/DTD/svg11.dtd">
<svg xmlns="http://www.w3.org/2000/svg" version="1.1" width="150px" height="150px" style="shape-rendering:geometricPrecision; text-rendering:geometricPrecision; image-rendering:optimizeQuality; fill-rule:evenodd; clip-rule:evenodd" xmlns:xlink="http://www.w3.org/1999/xlink">
<g><path style="opacity:0.652" fill="#fefdfd" d="M 61.5,-0.5 C 70.1667,-0.5 78.8333,-0.5 87.5,-0.5C 121.167,7.16667 141.833,27.8333 149.5,61.5C 149.5,70.1667 149.5,78.8333 149.5,87.5C 141.833,121.167 121.167,141.833 87.5,149.5C 78.8333,149.5 70.1667,149.5 61.5,149.5C 27.8333,141.833 7.16667,121.167 -0.5,87.5C -0.5,78.8333 -0.5,70.1667 -0.5,61.5C 7.16667,27.8333 27.8333,7.16667 61.5,-0.5 Z"/></g>
<g><path style="opacity:0.999" fill="#e7e5e4" d="M 138.5,98.5 C 138.5,98.1667 138.5,97.8333 138.5,97.5C 137.432,96.5655 136.099,96.2322 134.5,96.5C 144.288,64.6977 135.622,39.1977 108.5,20C 74.934,3.0752 46.1007,8.90853 22,37.5C 9.95723,55.7975 7.45723,75.2975 14.5,96C 33.8305,96.5 53.1638,96.6666 72.5,96.5C 72.5,96.8333 72.5,97.1667 72.5,97.5C 53.1667,97.5 33.8333,97.5 14.5,97.5C 12.901,97.2322 11.5676,97.5655 10.5,98.5C 0.0133607,62.3089 10.68,34.1422 42.5,14C 76.8833,-0.906045 106.05,5.92729 130,34.5C 143.296,54.4953 146.129,75.8286 138.5,98.5 Z"/></g>
<g><path style="opacity:1" fill="#fcfcfc" d="M 134.5,96.5 C 115.5,96.5 96.5,96.5 77.5,96.5C 77.5,95.5 77.5,94.5 77.5,93.5C 81.8333,93.5 86.1667,93.5 90.5,93.5C 96.0748,92.5476 101.741,92.2143 107.5,92.5C 107.737,91.209 107.404,90.209 106.5,89.5C 105.5,88.8333 104.5,88.1667 103.5,87.5C 103.5,79.1667 103.5,70.8333 103.5,62.5C 104.222,61.4489 105.222,60.7822 106.5,60.5C 107.451,59.0813 107.784,57.4147 107.5,55.5C 105.857,55.4802 104.524,56.1468 103.5,57.5C 102.476,56.1468 101.143,55.4802 99.5,55.5C 99.5,50.5 99.5,45.5 99.5,40.5C 100.72,38.7179 101.386,36.7179 101.5,34.5C 99.8002,34.6261 98.3002,35.2927 97,36.5C 94.6667,33.8333 92.3333,33.8333 90,36.5C 89.0497,35.9777 88.2164,35.311 87.5,34.5C 86.2072,36.6365 86.2072,38.6365 87.5,40.5C 87.5,45.8333 87.5,51.1667 87.5,56.5C 87.38,57.5862 86.7133,58.2528 85.5,58.5C 84.2867,58.2528 83.62,57.5862 83.5,56.5C 82.5399,49.9221 82.2066,43.2554 82.5,36.5C 83.9708,34.7844 84.9708,32.7844 85.5,30.5C 83.8002,30.6261 82.3002,31.2927 81,32.5C 79,29.8333 77,29.8333 75,32.5C 72.6667,29.8333 70.3333,29.8333 68,32.5C 67.0497,31.9777 66.2164,31.311 65.5,30.5C 64.5613,32.6921 64.8947,34.6921 66.5,36.5C 66.6662,42.8421 66.4995,49.1754 66,55.5C 65.2904,56.9733 64.1238,57.6399 62.5,57.5C 62.5,51.8333 62.5,46.1667 62.5,40.5C 63.1495,38.5648 63.4828,36.5648 63.5,34.5C 61.857,34.4802 60.5237,35.1468 59.5,36.5C 57.0561,33.9294 54.5561,33.9294 52,36.5C 50.6998,35.2927 49.1998,34.6261 47.5,34.5C 47.4551,37.0772 48.4551,39.0772 50.5,40.5C 50.5,45.5 50.5,50.5 50.5,55.5C 49.5,55.5 48.5,55.5 47.5,55.5C 47.5,56.5 47.5,57.5 47.5,58.5C 46.5,58.5 45.5,58.5 44.5,58.5C 43.9085,55.9172 43.2418,55.9172 42.5,58.5C 43.1152,60.1161 44.1152,61.4495 45.5,62.5C 46.8333,70.8333 46.8333,79.1667 45.5,87.5C 43.2275,88.3751 42.2275,90.0418 42.5,92.5C 52.5034,92.7502 62.5034,93.0836 72.5,93.5C 72.5,94.5 72.5,95.5 72.5,96.5C 53.1638,96.6666 33.8305,96.5 14.5,96C 7.45723,75.2975 9.95723,55.7975 22,37.5C 46.1007,8.90853 74.934,3.0752 108.5,20C 135.622,39.1977 144.288,64.6977 134.5,96.5 Z"/></g>
<g><path style="opacity:1" fill="#bc2927" d="M 82.5,36.5 C 81.8333,36.5 81.5,36.8333 81.5,37.5C 77.1667,37.5 72.8333,37.5 68.5,37.5C 68.1707,43.5368 68.5041,49.5368 69.5,55.5C 70.1681,53.0312 70.8347,50.6979 71.5,48.5C 71.5,51.8333 71.5,55.1667 71.5,58.5C 70.5326,57.1938 69.1993,56.5271 67.5,56.5C 67.824,49.6457 67.4907,42.979 66.5,36.5C 64.8947,34.6921 64.5613,32.6921 65.5,30.5C 66.2164,31.311 67.0497,31.9777 68,32.5C 70.3333,29.8333 72.6667,29.8333 75,32.5C 77,29.8333 79,29.8333 81,32.5C 82.3002,31.2927 83.8002,30.6261 85.5,30.5C 84.9708,32.7844 83.9708,34.7844 82.5,36.5 Z"/></g>
<g><path style="opacity:1" fill="#bb302c" d="M 62.5,40.5 C 62.1667,40.5 61.8333,40.5 61.5,40.5C 57.8333,40.5 54.1667,40.5 50.5,40.5C 48.4551,39.0772 47.4551,37.0772 47.5,34.5C 49.1998,34.6261 50.6998,35.2927 52,36.5C 54.5561,33.9294 57.0561,33.9294 59.5,36.5C 60.5237,35.1468 61.857,34.4802 63.5,34.5C 63.4828,36.5648 63.1495,38.5648 62.5,40.5 Z"/></g>
<g><path style="opacity:1" fill="#651916" d="M 82.5,36.5 C 82.2066,43.2554 82.5399,49.9221 83.5,56.5C 81.5437,50.588 80.8771,44.2547 81.5,37.5C 81.5,36.8333 81.8333,36.5 82.5,36.5 Z"/></g>
<g><path style="opacity:1" fill="#c22d29" d="M 99.5,40.5 C 99.1667,40.5 98.8333,40.5 98.5,40.5C 94.8333,40.5 91.1667,40.5 87.5,40.5C 86.2072,38.6365 86.2072,36.6365 87.5,34.5C 88.2164,35.311 89.0497,35.9777 90,36.5C 92.3333,33.8333 94.6667,33.8333 97,36.5C 98.3002,35.2927 99.8002,34.6261 101.5,34.5C 101.386,36.7179 100.72,38.7179 99.5,40.5 Z"/></g>
<g><path style="opacity:1" fill="#9b3430" d="M 50.5,40.5 C 54.1667,40.5 57.8333,40.5 61.5,40.5C 61.5,40.8333 61.5,41.1667 61.5,41.5C 58.1667,41.5 54.8333,41.5 51.5,41.5C 51.3342,46.1785 51.5008,50.8452 52,55.5C 52.1981,53.6183 52.6981,51.9516 53.5,50.5C 53.5,53.1667 53.5,55.8333 53.5,58.5C 52.2209,57.032 50.5542,56.3653 48.5,56.5C 48.5,57.5 48.5,58.5 48.5,59.5C 46.901,59.7678 45.5676,59.4345 44.5,58.5C 45.5,58.5 46.5,58.5 47.5,58.5C 47.5,57.5 47.5,56.5 47.5,55.5C 48.5,55.5 49.5,55.5 50.5,55.5C 50.5,50.5 50.5,45.5 50.5,40.5 Z"/></g>
<g><path style="opacity:1" fill="#b1a3a3" d="M 66.5,36.5 C 67.4907,42.979 67.824,49.6457 67.5,56.5C 65.8863,58.0746 63.8863,58.7413 61.5,58.5C 61.5,52.8333 61.5,47.1667 61.5,41.5C 61.5,41.1667 61.5,40.8333 61.5,40.5C 61.8333,40.5 62.1667,40.5 62.5,40.5C 62.5,46.1667 62.5,51.8333 62.5,57.5C 64.1238,57.6399 65.2904,56.9733 66,55.5C 66.4995,49.1754 66.6662,42.8421 66.5,36.5 Z"/></g>
<g><path style="opacity:1" fill="#8c2e2c" d="M 87.5,40.5 C 91.1667,40.5 94.8333,40.5 98.5,40.5C 98.5,40.8333 98.5,41.1667 98.5,41.5C 98.1667,41.5 97.8333,41.5 97.5,41.5C 94.5,41.5 91.5,41.5 88.5,41.5C 88.8205,46.6946 88.4872,51.6946 87.5,56.5C 87.5,51.1667 87.5,45.8333 87.5,40.5 Z"/></g>
<g><path style="opacity:1" fill="#a98a89" d="M 98.5,40.5 C 98.8333,40.5 99.1667,40.5 99.5,40.5C 99.5,45.5 99.5,50.5 99.5,55.5C 101.143,55.4802 102.476,56.1468 103.5,57.5C 104.524,56.1468 105.857,55.4802 107.5,55.5C 107.784,57.4147 107.451,59.0813 106.5,60.5C 106.657,59.1266 106.49,57.7932 106,56.5C 105.481,57.5156 104.647,58.1822 103.5,58.5C 101.944,57.4529 100.277,56.7863 98.5,56.5C 98.5,51.5 98.5,46.5 98.5,41.5C 98.5,41.1667 98.5,40.8333 98.5,40.5 Z"/></g>
<g><path style="opacity:1" fill="#130402" d="M 59.5,58.5 C 57.5,58.5 55.5,58.5 53.5,58.5C 53.5,55.8333 53.5,53.1667 53.5,50.5C 55.1978,47.8761 57.0312,47.8761 59,50.5C 59.4974,53.146 59.6641,55.8127 59.5,58.5 Z"/></g>
<g><path style="opacity:1" fill="#170503" d="M 96.5,55.5 C 96.5,56.5 96.5,57.5 96.5,58.5C 94.5,58.5 92.5,58.5 90.5,58.5C 90.5,55.8333 90.5,53.1667 90.5,50.5C 91.7514,48.439 93.4181,48.1057 95.5,49.5C 96.3482,51.4086 96.6816,53.4086 96.5,55.5 Z"/></g>
<g><path style="opacity:1" fill="#d72c2a" d="M 81.5,37.5 C 80.8771,44.2547 81.5437,50.588 83.5,56.5C 83.62,57.5862 84.2867,58.2528 85.5,58.5C 86.7133,58.2528 87.38,57.5862 87.5,56.5C 88.4872,51.6946 88.8205,46.6946 88.5,41.5C 91.5,41.5 94.5,41.5 97.5,41.5C 97.8195,46.3633 97.4861,51.03 96.5,55.5C 96.6816,53.4086 96.3482,51.4086 95.5,49.5C 93.4181,48.1057 91.7514,48.439 90.5,50.5C 89.5166,54.2984 89.1832,58.2984 89.5,62.5C 79.5,62.5 69.5,62.5 59.5,62.5C 59.5,61.1667 59.5,59.8333 59.5,58.5C 59.6641,55.8127 59.4974,53.146 59,50.5C 57.0312,47.8761 55.1978,47.8761 53.5,50.5C 52.6981,51.9516 52.1981,53.6183 52,55.5C 51.5008,50.8452 51.3342,46.1785 51.5,41.5C 54.8333,41.5 58.1667,41.5 61.5,41.5C 61.5,47.1667 61.5,52.8333 61.5,58.5C 63.8863,58.7413 65.8863,58.0746 67.5,56.5C 69.1993,56.5271 70.5326,57.1938 71.5,58.5C 73.8333,58.5 76.1667,58.5 78.5,58.5C 78.665,55.1501 78.4983,51.8168 78,48.5C 75.8368,47.232 73.6702,47.232 71.5,48.5C 70.8347,50.6979 70.1681,53.0312 69.5,55.5C 68.5041,49.5368 68.1707,43.5368 68.5,37.5C 72.8333,37.5 77.1667,37.5 81.5,37.5 Z"/></g>
<g><path style="opacity:1" fill="#070100" d="M 71.5,58.5 C 71.5,55.1667 71.5,51.8333 71.5,48.5C 73.6702,47.232 75.8368,47.232 78,48.5C 78.4983,51.8168 78.665,55.1501 78.5,58.5C 76.1667,58.5 73.8333,58.5 71.5,58.5 Z"/></g>
<g><path style="opacity:1" fill="#4a1110" d="M 77.5,40.5 C 78.6491,40.7911 79.3158,41.6244 79.5,43C 79.1667,43.8333 78.8333,44.6667 78.5,45.5C 77.5481,43.9547 77.2148,42.288 77.5,40.5 Z"/></g>
<g><path style="opacity:1" fill="#5d1714" d="M 70.5,39.5 C 71.6935,39.9704 72.3601,40.9704 72.5,42.5C 72.1667,43.5 71.8333,44.5 71.5,45.5C 70.5344,43.604 70.2011,41.604 70.5,39.5 Z"/></g>
<g><path style="opacity:1" fill="#3a100e" d="M 73.5,38.5 C 74.7251,39.1522 75.3917,40.3189 75.5,42C 75.1667,43.1667 74.8333,44.3333 74.5,45.5C 73.5258,43.2573 73.1924,40.924 73.5,38.5 Z"/></g>
<g><path style="opacity:1" fill="#b72926" d="M 97.5,41.5 C 97.8333,41.5 98.1667,41.5 98.5,41.5C 98.5,46.5 98.5,51.5 98.5,56.5C 100.277,56.7863 101.944,57.4529 103.5,58.5C 104.647,58.1822 105.481,57.5156 106,56.5C 106.49,57.7932 106.657,59.1266 106.5,60.5C 105.222,60.7822 104.222,61.4489 103.5,62.5C 102.833,62.5 102.5,62.8333 102.5,63.5C 97.2716,63.0752 92.2716,63.7418 87.5,65.5C 87.1667,64.1667 86.8333,64.1667 86.5,65.5C 78.8333,65.5 71.1667,65.5 63.5,65.5C 63.5,72.8333 63.5,80.1667 63.5,87.5C 65.1667,87.5 66.8333,87.5 68.5,87.5C 69.8484,88.6006 71.3484,89.6006 73,90.5C 73.7401,91.7494 73.5735,92.7494 72.5,93.5C 62.5034,93.0836 52.5034,92.7502 42.5,92.5C 42.2275,90.0418 43.2275,88.3751 45.5,87.5C 46.8333,79.1667 46.8333,70.8333 45.5,62.5C 44.1152,61.4495 43.1152,60.1161 42.5,58.5C 43.2418,55.9172 43.9085,55.9172 44.5,58.5C 45.5676,59.4345 46.901,59.7678 48.5,59.5C 48.5,58.5 48.5,57.5 48.5,56.5C 50.5542,56.3653 52.2209,57.032 53.5,58.5C 55.5,58.5 57.5,58.5 59.5,58.5C 59.5,59.8333 59.5,61.1667 59.5,62.5C 69.5,62.5 79.5,62.5 89.5,62.5C 89.1832,58.2984 89.5166,54.2984 90.5,50.5C 90.5,53.1667 90.5,55.8333 90.5,58.5C 92.5,58.5 94.5,58.5 96.5,58.5C 96.5,57.5 96.5,56.5 96.5,55.5C 97.4861,51.03 97.8195,46.3633 97.5,41.5 Z"/></g>
<g><path style="opacity:1" fill="#de2d2b" d="M 60.5,79.5 C 58.1483,75.8947 55.315,75.5614 52,78.5C 51.5026,81.146 51.3359,83.8127 51.5,86.5C 50.1667,86.5 48.8333,86.5 47.5,86.5C 47.5,78.8333 47.5,71.1667 47.5,63.5C 52.6786,63.198 57.6786,63.8647 62.5,65.5C 62.6663,72.5079 62.4996,79.5079 62,86.5C 61.8138,83.9644 61.3138,81.631 60.5,79.5 Z"/></g>
<g><path style="opacity:1" fill="#df2d2b" d="M 102.5,63.5 C 102.5,71.1667 102.5,78.8333 102.5,86.5C 101.167,86.5 99.8333,86.5 98.5,86.5C 98.8064,83.6146 98.4731,80.9479 97.5,78.5C 96.6879,77.0069 95.3545,76.3402 93.5,76.5C 91.6455,76.3402 90.3121,77.0069 89.5,78.5C 88.6829,80.9686 88.1829,83.6353 88,86.5C 87.5004,79.5079 87.3337,72.5079 87.5,65.5C 92.2716,63.7418 97.2716,63.0752 102.5,63.5 Z"/></g>
<g><path style="opacity:1" fill="#6a1815" d="M 103.5,62.5 C 103.5,70.8333 103.5,79.1667 103.5,87.5C 95.8127,87.4597 88.1461,87.793 80.5,88.5C 80.5,87.8333 80.1667,87.5 79.5,87.5C 80.4227,83.9359 80.756,80.2693 80.5,76.5C 81.4816,79.9619 81.815,83.6286 81.5,87.5C 83.1667,87.5 84.8333,87.5 86.5,87.5C 86.5,80.1667 86.5,72.8333 86.5,65.5C 86.8333,64.1667 87.1667,64.1667 87.5,65.5C 87.3337,72.5079 87.5004,79.5079 88,86.5C 88.1829,83.6353 88.6829,80.9686 89.5,78.5C 89.5,81.1667 89.5,83.8333 89.5,86.5C 92.1667,86.5 94.8333,86.5 97.5,86.5C 97.5,83.8333 97.5,81.1667 97.5,78.5C 98.4731,80.9479 98.8064,83.6146 98.5,86.5C 99.8333,86.5 101.167,86.5 102.5,86.5C 102.5,78.8333 102.5,71.1667 102.5,63.5C 102.5,62.8333 102.833,62.5 103.5,62.5 Z"/></g>
<g><path style="opacity:1" fill="#de2d2b" d="M 86.5,65.5 C 86.5,72.8333 86.5,80.1667 86.5,87.5C 84.8333,87.5 83.1667,87.5 81.5,87.5C 81.815,83.6286 81.4816,79.9619 80.5,76.5C 80.0472,75.5416 79.3805,74.7083 78.5,74C 75.8333,73.3333 73.1667,73.3333 70.5,74C 68.6876,77.922 68.021,82.0887 68.5,86.5C 68.5,86.8333 68.5,87.1667 68.5,87.5C 66.8333,87.5 65.1667,87.5 63.5,87.5C 63.5,80.1667 63.5,72.8333 63.5,65.5C 71.1667,65.5 78.8333,65.5 86.5,65.5 Z"/></g>
<g><path style="opacity:1" fill="#060100" d="M 80.5,76.5 C 80.756,80.2693 80.4227,83.9359 79.5,87.5C 75.6815,88.955 72.0148,88.6217 68.5,86.5C 68.021,82.0887 68.6876,77.922 70.5,74C 73.1667,73.3333 75.8333,73.3333 78.5,74C 79.3805,74.7083 80.0472,75.5416 80.5,76.5 Z"/></g>
<g><path style="opacity:1" fill="#0f0201" d="M 60.5,79.5 C 60.5,82.1667 60.5,84.8333 60.5,87.5C 57.2869,87.81 54.2869,87.4767 51.5,86.5C 51.3359,83.8127 51.5026,81.146 52,78.5C 55.315,75.5614 58.1483,75.8947 60.5,79.5 Z"/></g>
<g><path style="opacity:1" fill="#040000" d="M 97.5,78.5 C 97.5,81.1667 97.5,83.8333 97.5,86.5C 94.8333,86.5 92.1667,86.5 89.5,86.5C 89.5,83.8333 89.5,81.1667 89.5,78.5C 90.3121,77.0069 91.6455,76.3402 93.5,76.5C 95.3545,76.3402 96.6879,77.0069 97.5,78.5 Z"/></g>
<g><path style="opacity:1" fill="#c82a28" d="M 103.5,87.5 C 104.5,88.1667 105.5,88.8333 106.5,89.5C 101.167,90.8333 95.8333,92.1667 90.5,93.5C 86.1667,93.5 81.8333,93.5 77.5,93.5C 77.2407,91.0107 78.2407,89.344 80.5,88.5C 88.1461,87.793 95.8127,87.4597 103.5,87.5 Z"/></g>
<g><path style="opacity:1" fill="#9a5957" d="M 106.5,89.5 C 107.404,90.209 107.737,91.209 107.5,92.5C 101.741,92.2143 96.0748,92.5476 90.5,93.5C 95.8333,92.1667 101.167,90.8333 106.5,89.5 Z"/></g>
<g><path style="opacity:1" fill="#eec6c0" d="M 77.5,93.5 C 77.5,94.5 77.5,95.5 77.5,96.5C 96.5,96.5 115.5,96.5 134.5,96.5C 136.099,96.2322 137.432,96.5655 138.5,97.5C 137.167,97.5 135.833,97.5 134.5,97.5C 115.5,97.5 96.5,97.5 77.5,97.5C 76.1667,97.5 74.8333,97.5 73.5,97.5C 73.5,96.5 73.5,95.5 73.5,94.5C 74.9587,94.5674 76.2921,94.2341 77.5,93.5 Z"/></g>
<g><path style="opacity:1" fill="#cd312e" d="M 14.5,97.5 C 28.6188,127.564 52.2854,141.064 85.5,138C 108.904,132.976 125.238,119.476 134.5,97.5C 135.833,97.5 137.167,97.5 138.5,97.5C 138.5,97.8333 138.5,98.1667 138.5,98.5C 121.67,134.414 93.6702,148.248 54.5,140C 33.499,132.831 18.8324,118.998 10.5,98.5C 11.5676,97.5655 12.901,97.2322 14.5,97.5 Z"/></g>
<g><path style="opacity:1" fill="#e12e2b" d="M 14.5,97.5 C 33.8333,97.5 53.1667,97.5 72.5,97.5C 72.2671,99.0618 71.6005,100.395 70.5,101.5C 69.7109,101.783 69.0442,102.283 68.5,103C 69.6651,104.084 70.9984,104.917 72.5,105.5C 73.4922,109.783 73.8256,114.116 73.5,118.5C 71.1667,118.5 68.8333,118.5 66.5,118.5C 66.5,120.167 66.5,121.833 66.5,123.5C 66.5,124.5 66.5,125.5 66.5,126.5C 69.4658,126.11 72.1324,126.777 74.5,128.5C 75.1667,120.833 75.8333,113.167 76.5,105.5C 81.139,104.274 81.4723,102.608 77.5,100.5C 77.5,99.5 77.5,98.5 77.5,97.5C 96.5,97.5 115.5,97.5 134.5,97.5C 125.238,119.476 108.904,132.976 85.5,138C 52.2854,141.064 28.6188,127.564 14.5,97.5 Z"/></g>
<g><path style="opacity:1" fill="#865c13" d="M 68.5,86.5 C 72.0148,88.6217 75.6815,88.955 79.5,87.5C 80.1667,87.5 80.5,87.8333 80.5,88.5C 78.2407,89.344 77.2407,91.0107 77.5,93.5C 76.2921,94.2341 74.9587,94.5674 73.5,94.5C 73.5,95.5 73.5,96.5 73.5,97.5C 74.8333,97.5 76.1667,97.5 77.5,97.5C 77.5,98.5 77.5,99.5 77.5,100.5C 76.8333,100.5 76.5,100.833 76.5,101.5C 74.5749,101.89 72.5749,102.223 70.5,102.5C 70.5,102.167 70.5,101.833 70.5,101.5C 71.6005,100.395 72.2671,99.0618 72.5,97.5C 72.5,97.1667 72.5,96.8333 72.5,96.5C 72.5,95.5 72.5,94.5 72.5,93.5C 73.5735,92.7494 73.7401,91.7494 73,90.5C 71.3484,89.6006 69.8484,88.6006 68.5,87.5C 68.5,87.1667 68.5,86.8333 68.5,86.5 Z"/></g>
<g><path style="opacity:1" fill="#af930b" d="M 76.5,101.5 C 76.5,100.833 76.8333,100.5 77.5,100.5C 81.4723,102.608 81.139,104.274 76.5,105.5C 75.8333,113.167 75.1667,120.833 74.5,128.5C 72.1324,126.777 69.4658,126.11 66.5,126.5C 66.5,125.5 66.5,124.5 66.5,123.5C 68.5184,124.623 70.5184,124.623 72.5,123.5C 73.8333,122.833 73.8333,122.167 72.5,121.5C 70.6473,120.699 68.9806,120.365 67.5,120.5C 69.6309,119.831 71.6309,119.165 73.5,118.5C 73.8256,114.116 73.4922,109.783 72.5,105.5C 70.9984,104.917 69.6651,104.084 68.5,103C 69.0442,102.283 69.7109,101.783 70.5,101.5C 70.5,101.833 70.5,102.167 70.5,102.5C 72.9203,104.924 75.587,105.091 78.5,103C 77.9558,102.283 77.2891,101.783 76.5,101.5 Z"/></g>
<g><path style="opacity:1" fill="#b52f21" d="M 76.5,101.5 C 77.2891,101.783 77.9558,102.283 78.5,103C 75.587,105.091 72.9203,104.924 70.5,102.5C 72.5749,102.223 74.5749,101.89 76.5,101.5 Z"/></g>
<g><path style="opacity:1" fill="#a73d1c" d="M 73.5,118.5 C 71.6309,119.165 69.6309,119.831 67.5,120.5C 68.9806,120.365 70.6473,120.699 72.5,121.5C 73.8333,122.167 73.8333,122.833 72.5,123.5C 70.5184,124.623 68.5184,124.623 66.5,123.5C 66.5,121.833 66.5,120.167 66.5,118.5C 68.8333,118.5 71.1667,118.5 73.5,118.5 Z"/></g>
</svg>
