<?xml version="1.0" encoding="UTF-8"?>
<!DOCTYPE svg PUBLIC "-//W3C//DTD SVG 1.1//EN" "http://www.w3.org/Graphics/SVG/1.1/DTD/svg11.dtd">
<svg xmlns="http://www.w3.org/2000/svg" version="1.1" width="500px" height="500px" style="shape-rendering:geometricPrecision; text-rendering:geometricPrecision; image-rendering:optimizeQuality; fill-rule:evenodd; clip-rule:evenodd" xmlns:xlink="http://www.w3.org/1999/xlink">
<g><path style="opacity:0.996" fill="#0f5eaf" d="M 225.5,-0.5 C 241.5,-0.5 257.5,-0.5 273.5,-0.5C 324.491,5.26686 369.824,24.2669 409.5,56.5C 365.5,57.1667 321.5,57.8333 277.5,58.5C 277.5,74.8333 277.5,91.1667 277.5,107.5C 336.833,107.5 396.167,107.5 455.5,107.5C 469.228,125.954 479.561,146.287 486.5,168.5C 416.5,168.5 346.5,168.5 276.5,168.5C 276.5,185.5 276.5,202.5 276.5,219.5C 350.5,219.5 424.5,219.5 498.5,219.5C 498.216,221.415 498.549,223.081 499.5,224.5C 499.5,241.167 499.5,257.833 499.5,274.5C 498.539,276.265 498.205,278.265 498.5,280.5C 386.833,280.5 275.167,280.5 163.5,280.5C 163.5,241.5 163.5,202.5 163.5,163.5C 201.5,163.5 239.5,163.5 277.5,163.5C 277.83,146.658 277.497,129.992 276.5,113.5C 238.833,113.5 201.167,113.5 163.5,113.5C 163.5,80.5 163.5,47.5 163.5,14.5C 183.569,6.95357 204.236,1.95357 225.5,-0.5 Z"/></g>
<g><path style="opacity:0.997" fill="#fdfefe" d="M 163.5,14.5 C 163.5,47.5 163.5,80.5 163.5,113.5C 201.167,113.5 238.833,113.5 276.5,113.5C 276.5,129.833 276.5,146.167 276.5,162.5C 238.663,162.168 200.996,162.502 163.5,163.5C 163.5,202.5 163.5,241.5 163.5,280.5C 275.167,280.5 386.833,280.5 498.5,280.5C 496.359,297.726 492.359,314.393 486.5,330.5C 328.5,330.5 170.5,330.5 12.5,330.5C 6.61788,314.304 2.61788,297.637 0.5,280.5C 38.1667,280.5 75.8333,280.5 113.5,280.5C 113.5,241.5 113.5,202.5 113.5,163.5C 80.5,163.5 47.5,163.5 14.5,163.5C 20.2112,145.411 28.5446,128.744 39.5,113.5C 64.1667,113.5 88.8333,113.5 113.5,113.5C 113.5,88.8333 113.5,64.1667 113.5,39.5C 128.777,28.5983 145.443,20.2649 163.5,14.5 Z"/></g>
<g><path style="opacity:0.977" fill="#0c5dae" d="M 112.5,39.5 C 112.5,63.8333 112.5,88.1667 112.5,112.5C 88.1667,112.5 63.8333,112.5 39.5,112.5C 58.8333,83.1667 83.1667,58.8333 112.5,39.5 Z"/></g>
<g><path style="opacity:1" fill="#abc7e3" d="M 409.5,56.5 C 410.167,56.5 410.5,56.8333 410.5,57.5C 366.336,58.4987 322.003,58.8321 277.5,58.5C 321.5,57.8333 365.5,57.1667 409.5,56.5 Z"/></g>
<g><path style="opacity:0.994" fill="#fefffe" d="M 410.5,57.5 C 428.289,71.8111 443.289,88.4778 455.5,107.5C 396.167,107.5 336.833,107.5 277.5,107.5C 277.5,91.1667 277.5,74.8333 277.5,58.5C 322.003,58.8321 366.336,58.4987 410.5,57.5 Z"/></g>
<g><path style="opacity:0.992" fill="#2f75ba" d="M 112.5,39.5 C 112.833,39.5 113.167,39.5 113.5,39.5C 113.5,64.1667 113.5,88.8333 113.5,113.5C 88.8333,113.5 64.1667,113.5 39.5,113.5C 39.5,113.167 39.5,112.833 39.5,112.5C 63.8333,112.5 88.1667,112.5 112.5,112.5C 112.5,88.1667 112.5,63.8333 112.5,39.5 Z"/></g>
<g><path style="opacity:1" fill="#dee9f4" d="M 276.5,113.5 C 277.497,129.992 277.83,146.658 277.5,163.5C 239.5,163.5 201.5,163.5 163.5,163.5C 200.996,162.502 238.663,162.168 276.5,162.5C 276.5,146.167 276.5,129.833 276.5,113.5 Z"/></g>
<g><path style="opacity:0.995" fill="#105eaf" d="M 14.5,163.5 C 47.5,163.5 80.5,163.5 113.5,163.5C 113.5,202.5 113.5,241.5 113.5,280.5C 75.8333,280.5 38.1667,280.5 0.5,280.5C 0.801552,277.941 0.468218,275.607 -0.5,273.5C -0.5,257.5 -0.5,241.5 -0.5,225.5C 1.69888,204.176 6.69888,183.51 14.5,163.5 Z"/></g>
<g><path style="opacity:1" fill="#709dcf" d="M 486.5,168.5 C 486.5,168.833 486.5,169.167 486.5,169.5C 416.833,169.5 347.167,169.5 277.5,169.5C 277.5,185.833 277.5,202.167 277.5,218.5C 351.167,218.5 424.833,218.5 498.5,218.5C 498.5,218.833 498.5,219.167 498.5,219.5C 424.5,219.5 350.5,219.5 276.5,219.5C 276.5,202.5 276.5,185.5 276.5,168.5C 346.5,168.5 416.5,168.5 486.5,168.5 Z"/></g>
<g><path style="opacity:0.997" fill="#fefffe" d="M 486.5,169.5 C 492.514,185.226 496.514,201.559 498.5,218.5C 424.833,218.5 351.167,218.5 277.5,218.5C 277.5,202.167 277.5,185.833 277.5,169.5C 347.167,169.5 416.833,169.5 486.5,169.5 Z"/></g>
<g><path style="opacity:0.997" fill="#0e5eaf" d="M 12.5,330.5 C 170.5,330.5 328.5,330.5 486.5,330.5C 479.561,352.713 469.228,373.046 455.5,391.5C 318.167,391.5 180.833,391.5 43.5,391.5C 29.772,373.046 19.4386,352.713 12.5,330.5 Z"/></g>
<g><path style="opacity:0.995" fill="#fefefe" d="M 43.5,391.5 C 180.833,391.5 318.167,391.5 455.5,391.5C 443.064,410.945 427.73,427.945 409.5,442.5C 302.833,441.167 196.167,441.167 89.5,442.5C 71.2697,427.945 55.9364,410.945 43.5,391.5 Z"/></g>
<g><path style="opacity:0.984" fill="#0c5dae" d="M 89.5,442.5 C 196.167,441.167 302.833,441.167 409.5,442.5C 370.102,474.529 325.102,493.529 274.5,499.5C 257.833,499.5 241.167,499.5 224.5,499.5C 173.886,493.526 128.886,474.526 89.5,442.5 Z"/></g>
</svg>
