<?xml version="1.0" encoding="UTF-8"?>
<!DOCTYPE svg PUBLIC "-//W3C//DTD SVG 1.1//EN" "http://www.w3.org/Graphics/SVG/1.1/DTD/svg11.dtd">
<svg xmlns="http://www.w3.org/2000/svg" version="1.1" width="500px" height="500px" style="shape-rendering:geometricPrecision; text-rendering:geometricPrecision; image-rendering:optimizeQuality; fill-rule:evenodd; clip-rule:evenodd" xmlns:xlink="http://www.w3.org/1999/xlink">
<g><path style="opacity:0.992" fill="#fefefe" d="M 225.5,-0.5 C 241.5,-0.5 257.5,-0.5 273.5,-0.5C 361.268,10.9488 427.101,54.9488 471,131.5C 486.083,160.908 495.583,191.908 499.5,224.5C 499.5,232.833 499.5,241.167 499.5,249.5C 477.167,249.5 454.833,249.5 432.5,249.5C 432.822,243.642 432.489,237.975 431.5,232.5C 424.409,172.117 395.409,125.617 344.5,93C 281.144,57.7604 217.811,57.7604 154.5,93C 102.216,126.505 73.2159,174.338 67.5,236.5C 66.5151,240.634 66.1818,244.968 66.5,249.5C 44.1667,249.5 21.8333,249.5 -0.5,249.5C -0.5,241.5 -0.5,233.5 -0.5,225.5C 11.4543,135.075 57.4543,68.242 137.5,25C 165.514,11.5012 194.847,3.00119 225.5,-0.5 Z"/></g>
<g><path style="opacity:1" fill="#d51f35" d="M 431.5,232.5 C 431.5,237.833 431.5,243.167 431.5,248.5C 310.167,248.5 188.833,248.5 67.5,248.5C 67.5,244.5 67.5,240.5 67.5,236.5C 73.2159,174.338 102.216,126.505 154.5,93C 217.811,57.7604 281.144,57.7604 344.5,93C 395.409,125.617 424.409,172.117 431.5,232.5 Z"/></g>
<g><path style="opacity:1" fill="#d93345" d="M 431.5,232.5 C 432.489,237.975 432.822,243.642 432.5,249.5C 310.5,249.5 188.5,249.5 66.5,249.5C 66.1818,244.968 66.5151,240.634 67.5,236.5C 67.5,240.5 67.5,244.5 67.5,248.5C 188.833,248.5 310.167,248.5 431.5,248.5C 431.5,243.167 431.5,237.833 431.5,232.5 Z"/></g>
<g><path style="opacity:1" fill="#d52035" d="M -0.5,249.5 C 21.8333,249.5 44.1667,249.5 66.5,249.5C 66.1832,253.702 66.5166,257.702 67.5,261.5C 75.1813,336.667 113.515,389.5 182.5,420C 251.425,443.736 314.091,432.736 370.5,387C 406.364,354.438 426.698,313.938 431.5,265.5C 432.488,260.36 432.821,255.026 432.5,249.5C 454.833,249.5 477.167,249.5 499.5,249.5C 499.5,258.167 499.5,266.833 499.5,275.5C 499.167,275.5 498.833,275.5 498.5,275.5C 497.111,280.269 496.444,285.269 496.5,290.5C 483.358,363.43 446.024,420.264 384.5,461C 350.659,482.096 313.992,494.929 274.5,499.5C 261.5,499.5 248.5,499.5 235.5,499.5C 227.046,497.861 218.379,496.861 209.5,496.5C 127.842,481.61 67.0091,437.943 27,365.5C 14.3159,341.615 6.14927,316.281 2.5,289.5C 1.42684,277.357 0.426843,265.357 -0.5,253.5C -0.5,252.167 -0.5,250.833 -0.5,249.5 Z"/></g>
<g><path style="opacity:1" fill="#fefefe" d="M 431.5,265.5 C 426.698,313.938 406.364,354.438 370.5,387C 314.091,432.736 251.425,443.736 182.5,420C 113.515,389.5 75.1813,336.667 67.5,261.5C 67.5,257.833 67.5,254.167 67.5,250.5C 188.833,250.5 310.167,250.5 431.5,250.5C 431.5,255.5 431.5,260.5 431.5,265.5 Z"/></g>
<g><path style="opacity:1" fill="#fae9ea" d="M 66.5,249.5 C 188.5,249.5 310.5,249.5 432.5,249.5C 432.821,255.026 432.488,260.36 431.5,265.5C 431.5,260.5 431.5,255.5 431.5,250.5C 310.167,250.5 188.833,250.5 67.5,250.5C 67.5,254.167 67.5,257.833 67.5,261.5C 66.5166,257.702 66.1832,253.702 66.5,249.5 Z"/></g>
<g><path style="opacity:0.608" fill="#de505f" d="M -0.5,253.5 C 0.426843,265.357 1.42684,277.357 2.5,289.5C 1.35471,284.189 0.354713,278.856 -0.5,273.5C -0.5,266.833 -0.5,260.167 -0.5,253.5 Z"/></g>
<g><path style="opacity:0.322" fill="#e1606f" d="M 498.5,275.5 C 498.556,280.731 497.889,285.731 496.5,290.5C 496.444,285.269 497.111,280.269 498.5,275.5 Z"/></g>
<g><path style="opacity:0.969" fill="#dc4656" d="M 209.5,496.5 C 218.379,496.861 227.046,497.861 235.5,499.5C 231.833,499.5 228.167,499.5 224.5,499.5C 219.463,498.718 214.463,497.718 209.5,496.5 Z"/></g>
</svg>
