<?xml version="1.0" encoding="UTF-8"?>
<!DOCTYPE svg PUBLIC "-//W3C//DTD SVG 1.1//EN" "http://www.w3.org/Graphics/SVG/1.1/DTD/svg11.dtd">
<svg xmlns="http://www.w3.org/2000/svg" version="1.1" width="500px" height="500px" style="shape-rendering:geometricPrecision; text-rendering:geometricPrecision; image-rendering:optimizeQuality; fill-rule:evenodd; clip-rule:evenodd" xmlns:xlink="http://www.w3.org/1999/xlink">
<g><path style="opacity:0.985" fill="#ce1225" d="M 225.5,-0.5 C 241.5,-0.5 257.5,-0.5 273.5,-0.5C 320.386,4.78277 362.72,21.4494 400.5,49.5C 395.206,62.098 396.873,63.4313 405.5,53.5C 411.489,58.1569 417.156,63.1569 422.5,68.5C 307.167,69.8333 191.833,69.8333 76.5,68.5C 81.8443,63.1569 87.511,58.1569 93.5,53.5C 102.127,63.4313 103.794,62.098 98.5,49.5C 136.28,21.4494 178.614,4.78277 225.5,-0.5 Z"/></g>
<g><path style="opacity:1" fill="#fbce16" d="M 248.5,3.5 C 249.497,3.47008 250.164,3.97008 250.5,5C 252.603,11.1411 254.603,17.3078 256.5,23.5C 264.145,24.3315 271.812,24.8315 279.5,25C 273.469,29.6757 267.469,34.3423 261.5,39C 264.107,46.1453 266.274,53.3119 268,60.5C 262.16,55.9162 256.16,51.5829 250,47.5C 243.336,51.3333 237.003,55.6666 231,60.5C 232.726,53.3119 234.893,46.1453 237.5,39C 231.893,33.8591 225.893,29.1924 219.5,25C 227.188,24.8315 234.855,24.3315 242.5,23.5C 244.707,16.8801 246.707,10.2135 248.5,3.5 Z"/></g>
<g><path style="opacity:0.842" fill="#fbcd16" d="M 98.5,49.5 C 103.794,62.098 102.127,63.4313 93.5,53.5C 95.1423,52.197 96.8089,50.8637 98.5,49.5 Z"/></g>
<g><path style="opacity:0.864" fill="#fbcb16" d="M 400.5,49.5 C 402.191,50.8637 403.858,52.197 405.5,53.5C 396.873,63.4313 395.206,62.098 400.5,49.5 Z"/></g>
<g><path style="opacity:0.998" fill="#fbd016" d="M 75.5,69.5 C 191.5,70.8333 307.5,70.8333 423.5,69.5C 443.261,88.5929 459.595,110.26 472.5,134.5C 416.037,163.232 359.703,192.232 303.5,221.5C 281.066,188.971 252.066,181.471 216.5,199C 208.197,205.131 201.531,212.631 196.5,221.5C 140.005,192.753 83.6721,163.753 27.5,134.5C 39.6491,110.014 55.6491,88.3469 75.5,69.5 Z"/></g>
<g><path style="opacity:1" fill="#f8c517" d="M 76.5,68.5 C 191.833,69.8333 307.167,69.8333 422.5,68.5C 423.167,68.5 423.5,68.8333 423.5,69.5C 307.5,70.8333 191.5,70.8333 75.5,69.5C 75.5,68.8333 75.8333,68.5 76.5,68.5 Z"/></g>
<g><path style="opacity:0.995" fill="#017a5d" d="M 27.5,134.5 C 83.6721,163.753 140.005,192.753 196.5,221.5C 187.204,240.152 187.204,258.819 196.5,277.5C 139.833,306.5 83.1667,335.5 26.5,364.5C 12.0504,335.685 3.0504,305.352 -0.5,273.5C -0.5,257.5 -0.5,241.5 -0.5,225.5C 2.80055,193.294 12.1339,162.961 27.5,134.5 Z"/></g>
<g><path style="opacity:0.995" fill="#017a5d" d="M 472.5,134.5 C 486.785,163.012 495.785,193.012 499.5,224.5C 499.5,241.167 499.5,257.833 499.5,274.5C 495.781,305.998 486.781,335.998 472.5,364.5C 415.876,335.521 359.209,306.521 302.5,277.5C 311.443,259.006 311.777,240.34 303.5,221.5C 359.703,192.232 416.037,163.232 472.5,134.5 Z"/></g>
<g><path style="opacity:1" fill="#ce1426" d="M 303.5,221.5 C 311.777,240.34 311.443,259.006 302.5,277.5C 290.526,298.667 272.193,309.334 247.5,309.5C 224.578,308.209 207.578,297.542 196.5,277.5C 187.204,258.819 187.204,240.152 196.5,221.5C 201.531,212.631 208.197,205.131 216.5,199C 252.066,181.471 281.066,188.971 303.5,221.5 Z"/></g>
<g><path style="opacity:1" fill="#fbcf16" d="M 248.5,195.5 C 249.497,195.47 250.164,195.97 250.5,197C 254.274,208.821 257.941,220.655 261.5,232.5C 274.837,232.333 288.171,232.5 301.5,233C 290.618,240.601 279.951,248.434 269.5,256.5C 274.074,268.714 277.907,281.047 281,293.5C 270.589,285.711 260.089,278.044 249.5,270.5C 238.911,278.044 228.411,285.711 218,293.5C 221.093,281.047 224.926,268.714 229.5,256.5C 219.332,248.506 208.999,240.673 198.5,233C 211.496,232.5 224.496,232.333 237.5,232.5C 241.369,220.226 245.036,207.893 248.5,195.5 Z"/></g>
<g><path style="opacity:0.998" fill="#fbd016" d="M 196.5,277.5 C 207.578,297.542 224.578,308.209 247.5,309.5C 272.193,309.334 290.526,298.667 302.5,277.5C 359.209,306.521 415.876,335.521 472.5,364.5C 459.801,388.893 443.468,410.56 423.5,429.5C 307.5,429.5 191.5,429.5 75.5,429.5C 55.7388,410.407 39.4055,388.74 26.5,364.5C 83.1667,335.5 139.833,306.5 196.5,277.5 Z"/></g>
<g><path style="opacity:0.986" fill="#ce1125" d="M 75.5,429.5 C 191.5,429.5 307.5,429.5 423.5,429.5C 412.681,440.654 400.681,450.321 387.5,458.5C 386.749,457.427 385.749,457.26 384.5,458C 385.056,458.383 385.389,458.883 385.5,459.5C 361.125,475.917 334.458,487.417 305.5,494C 295.064,496.071 284.73,497.905 274.5,499.5C 257.833,499.5 241.167,499.5 224.5,499.5C 166.931,492.544 117.265,469.211 75.5,429.5 Z"/></g>
<g><path style="opacity:1" fill="#fbcf16" d="M 254.5,456.5 C 261.76,458.465 269.427,459.132 277.5,458.5C 271.64,462.93 265.974,467.597 260.5,472.5C 263.08,479.39 264.914,486.39 266,493.5C 260.308,488.974 254.474,484.641 248.5,480.5C 242.071,484.464 235.904,488.798 230,493.5C 231.332,486.165 233.498,478.998 236.5,472C 230.956,467.616 225.289,463.449 219.5,459.5C 226.5,458.833 233.5,458.167 240.5,457.5C 243.137,450.659 245.637,443.659 248,436.5C 250.669,443.008 252.836,449.675 254.5,456.5 Z"/></g>
<g><path style="opacity:1" fill="#ed931b" d="M 240.5,457.5 C 233.5,458.167 226.5,458.833 219.5,459.5C 218.711,459.217 218.044,458.717 217.5,458C 225.159,457.5 232.826,457.334 240.5,457.5 Z"/></g>
<g><path style="opacity:1" fill="#ed961a" d="M 254.5,456.5 C 262.838,457.109 270.505,457.776 277.5,458.5C 269.427,459.132 261.76,458.465 254.5,456.5 Z"/></g>
<g><path style="opacity:0.075" fill="#f8c318" d="M 387.5,458.5 C 387.158,459.338 386.492,459.672 385.5,459.5C 385.389,458.883 385.056,458.383 384.5,458C 385.749,457.26 386.749,457.427 387.5,458.5 Z"/></g>
</svg>
