<?xml version="1.0" encoding="UTF-8"?>
<!DOCTYPE svg PUBLIC "-//W3C//DTD SVG 1.1//EN" "http://www.w3.org/Graphics/SVG/1.1/DTD/svg11.dtd">
<svg xmlns="http://www.w3.org/2000/svg" version="1.1" width="500px" height="500px" style="shape-rendering:geometricPrecision; text-rendering:geometricPrecision; image-rendering:optimizeQuality; fill-rule:evenodd; clip-rule:evenodd" xmlns:xlink="http://www.w3.org/1999/xlink">
<g><path style="opacity:0.998" fill="#043086" d="M 225.5,-0.5 C 241.5,-0.5 257.5,-0.5 273.5,-0.5C 369.813,12.3931 438.646,62.7264 480,150.5C 484.412,161.318 488.245,172.318 491.5,183.5C 330.332,183.833 169.332,183.5 8.5,182.5C 30.5908,107.237 77.2575,53.0703 148.5,20C 173.332,9.544 198.998,2.71067 225.5,-0.5 Z"/></g>
<g><path style="opacity:1" fill="#f9da06" d="M 99.5,59.5 C 110.33,67.4935 114.83,78.1602 113,91.5C 107.943,105.058 105.11,119.058 104.5,133.5C 101.5,133.5 98.5,133.5 95.5,133.5C 94.6465,119.732 91.8132,106.398 87,93.5C 85.887,86.2851 86.5537,79.2851 89,72.5C 92.0287,67.77 95.5287,63.4366 99.5,59.5 Z"/></g>
<g><path style="opacity:1" fill="#f9da08" d="M 254.5,130.5 C 251.855,132.242 248.855,132.909 245.5,132.5C 245.737,131.209 245.404,130.209 244.5,129.5C 244.162,124.298 243.495,119.131 242.5,114C 239.654,104.294 237.321,94.4606 235.5,84.5C 236.79,74.2512 241.457,65.9179 249.5,59.5C 260.308,67.484 264.808,78.1506 263,91.5C 257.801,103.996 254.968,116.996 254.5,130.5 Z"/></g>
<g><path style="opacity:1" fill="#f9da06" d="M 398.5,59.5 C 410.166,67.5062 414.666,78.5062 412,92.5C 407.056,105.72 404.223,119.387 403.5,133.5C 400.5,133.5 397.5,133.5 394.5,133.5C 393.727,119.409 390.894,105.743 386,92.5C 384.463,84.3004 385.797,76.6337 390,69.5C 392.669,66.0003 395.502,62.667 398.5,59.5 Z"/></g>
<g><path style="opacity:1" fill="#f6d80c" d="M 65.5,99.5 C 79.7374,97.8822 88.2374,104.216 91,118.5C 92.416,123.412 93.2493,128.412 93.5,133.5C 91.1432,133.663 88.8098,133.497 86.5,133C 84.8587,126.516 81.192,121.683 75.5,118.5C 73.6171,118.876 72.1171,119.876 71,121.5C 70.5017,124.817 70.335,128.15 70.5,131.5C 63.148,130.656 58.3147,126.656 56,119.5C 54.0951,110.313 57.2617,103.646 65.5,99.5 Z"/></g>
<g><path style="opacity:1" fill="#f6d90c" d="M 121.5,99.5 C 141.726,98.2016 148.226,106.868 141,125.5C 138.045,129.227 134.212,131.227 129.5,131.5C 129.665,128.15 129.498,124.817 129,121.5C 127.883,119.876 126.383,118.876 124.5,118.5C 118.808,121.683 115.141,126.516 113.5,133C 111.19,133.497 108.857,133.663 106.5,133.5C 107.043,123.95 109.543,114.95 114,106.5C 116.396,103.933 118.896,101.6 121.5,99.5 Z"/></g>
<g><path style="opacity:1" fill="#f7d90b" d="M 215.5,99.5 C 219.182,99.3347 222.848,99.5014 226.5,100C 229.548,100.606 232.048,102.106 234,104.5C 239.779,113.281 242.613,122.947 242.5,133.5C 240.167,133.5 237.833,133.5 235.5,133.5C 234.572,129.638 233.072,125.971 231,122.5C 227.333,117.167 223.667,117.167 220,122.5C 219.502,125.482 219.335,128.482 219.5,131.5C 210.469,129.292 205.469,123.458 204.5,114C 205.752,107.258 209.419,102.425 215.5,99.5 Z"/></g>
<g><path style="opacity:1" fill="#f7d90c" d="M 280.5,131.5 C 279.833,128.5 279.167,125.5 278.5,122.5C 275.123,118.522 271.623,118.522 268,122.5C 265.928,125.971 264.428,129.638 263.5,133.5C 261.167,133.5 258.833,133.5 256.5,133.5C 256.608,123.012 259.441,113.346 265,104.5C 266.731,102.383 268.898,100.883 271.5,100C 282.107,97.189 289.607,100.689 294,110.5C 295.009,121.168 290.509,128.168 280.5,131.5 Z"/></g>
<g><path style="opacity:1" fill="#f7d90b" d="M 364.5,99.5 C 378.737,97.8822 387.237,104.216 390,118.5C 391.416,123.412 392.249,128.412 392.5,133.5C 390.143,133.663 387.81,133.497 385.5,133C 383.898,128.962 381.898,125.129 379.5,121.5C 376.29,117.566 373.123,117.566 370,121.5C 369.502,124.817 369.335,128.15 369.5,131.5C 361.718,130.555 356.884,126.222 355,118.5C 353.555,109.798 356.722,103.465 364.5,99.5 Z"/></g>
<g><path style="opacity:1" fill="#f6d90b" d="M 420.5,99.5 C 440.726,98.2016 447.226,106.868 440,125.5C 437.045,129.227 433.212,131.227 428.5,131.5C 428.665,128.15 428.498,124.817 428,121.5C 426.883,119.876 425.383,118.876 423.5,118.5C 417.808,121.683 414.141,126.516 412.5,133C 410.19,133.497 407.857,133.663 405.5,133.5C 406.27,124.022 408.77,115.022 413,106.5C 415.396,103.933 417.896,101.6 420.5,99.5 Z"/></g>
<g><path style="opacity:1" fill="#485c65" d="M 278.5,122.5 C 279.167,125.5 279.833,128.5 280.5,131.5C 280.44,132.043 280.107,132.376 279.5,132.5C 278.513,129.232 278.18,125.898 278.5,122.5 Z"/></g>
<g><path style="opacity:1" fill="#a29e33" d="M 244.5,129.5 C 245.404,130.209 245.737,131.209 245.5,132.5C 248.855,132.909 251.855,132.242 254.5,130.5C 254.5,131.5 254.5,132.5 254.5,133.5C 251.167,133.5 247.833,133.5 244.5,133.5C 244.5,132.167 244.5,130.833 244.5,129.5 Z"/></g>
<g><path style="opacity:1" fill="#5e6d57" d="M 231.5,135.5 C 243.322,134.505 255.322,134.172 267.5,134.5C 267.5,137.167 267.5,139.833 267.5,142.5C 255.322,142.828 243.322,142.495 231.5,141.5C 243.167,141.5 254.833,141.5 266.5,141.5C 266.5,139.5 266.5,137.5 266.5,135.5C 254.833,135.5 243.167,135.5 231.5,135.5 Z"/></g>
<g><path style="opacity:1" fill="#e7cf23" d="M 82.5,134.5 C 94.1667,134.5 105.833,134.5 117.5,134.5C 117.5,136.833 117.5,139.167 117.5,141.5C 105.5,141.5 93.5,141.5 81.5,141.5C 81.298,139.05 81.6314,136.717 82.5,134.5 Z"/></g>
<g><path style="opacity:1" fill="#fdde00" d="M 231.5,135.5 C 243.167,135.5 254.833,135.5 266.5,135.5C 266.5,137.5 266.5,139.5 266.5,141.5C 254.833,141.5 243.167,141.5 231.5,141.5C 231.5,139.5 231.5,137.5 231.5,135.5 Z"/></g>
<g><path style="opacity:1" fill="#ebd120" d="M 381.5,134.5 C 393.167,134.5 404.833,134.5 416.5,134.5C 416.5,136.833 416.5,139.167 416.5,141.5C 404.833,141.5 393.167,141.5 381.5,141.5C 381.5,139.167 381.5,136.833 381.5,134.5 Z"/></g>
<g><path style="opacity:1" fill="#f4d70f" d="M 95.5,144.5 C 98.5184,144.335 101.518,144.502 104.5,145C 105.881,151.02 106.547,150.853 106.5,144.5C 108.167,144.5 109.833,144.5 111.5,144.5C 111.386,151.113 114.386,155.613 120.5,158C 114.315,160.002 109.815,158.169 107,152.5C 107.068,160.959 104.734,168.626 100,175.5C 93.3758,165.934 91.8758,155.601 95.5,144.5 Z"/></g>
<g><path style="opacity:1" fill="#f6d90c" d="M 254.5,146.5 C 255.383,151.103 255.717,155.77 255.5,160.5C 251.5,180.5 247.5,180.5 243.5,160.5C 243.231,156.069 243.564,151.735 244.5,147.5C 244.5,146.5 244.5,145.5 244.5,144.5C 248.329,143.931 251.663,144.598 254.5,146.5 Z"/></g>
<g><path style="opacity:1" fill="#f5d80c" d="M 387.5,144.5 C 389.167,144.5 390.833,144.5 392.5,144.5C 392.338,146.527 392.505,148.527 393,150.5C 393.346,148.782 393.846,147.115 394.5,145.5C 397.709,144.213 400.875,144.213 404,145.5C 407.167,156.386 405.501,166.386 399,175.5C 394.35,168.576 392.017,160.909 392,152.5C 389.081,158.025 384.581,159.858 378.5,158C 384.614,155.613 387.614,151.113 387.5,144.5 Z"/></g>
<g><path style="opacity:1" fill="#efd613" d="M 88.5,144.5 C 90.1667,144.5 91.8333,144.5 93.5,144.5C 94.4719,155.201 89.8052,159.535 79.5,157.5C 85.2161,155.107 88.2161,150.774 88.5,144.5 Z"/></g>
<g><path style="opacity:1" fill="#edd416" d="M 242.5,144.5 C 242.747,147.939 242.414,151.272 241.5,154.5C 240.657,156.173 239.324,157.34 237.5,158C 234.5,158.667 231.5,158.667 228.5,158C 234.887,155.776 237.887,151.276 237.5,144.5C 239.167,144.5 240.833,144.5 242.5,144.5 Z"/></g>
<g><path style="opacity:1" fill="#efd512" d="M 256.5,144.5 C 258.167,144.5 259.833,144.5 261.5,144.5C 261.113,151.276 264.113,155.776 270.5,158C 267.5,158.667 264.5,158.667 261.5,158C 259.249,157.252 257.916,155.752 257.5,153.5C 256.597,150.609 256.264,147.609 256.5,144.5 Z"/></g>
<g><path style="opacity:1" fill="#f0d712" d="M 405.5,144.5 C 407.167,144.5 408.833,144.5 410.5,144.5C 410.882,150.768 413.882,155.268 419.5,158C 409.236,159.573 404.569,155.073 405.5,144.5 Z"/></g>
<g><path style="opacity:1" fill="#425966" d="M 256.5,144.5 C 256.264,147.609 256.597,150.609 257.5,153.5C 256.833,155.833 256.167,158.167 255.5,160.5C 255.717,155.77 255.383,151.103 254.5,146.5C 255.167,145.833 255.833,145.167 256.5,144.5 Z"/></g>
<g><path style="opacity:1" fill="#3a556a" d="M 242.5,144.5 C 243.167,145.5 243.833,146.5 244.5,147.5C 243.564,151.735 243.231,156.069 243.5,160.5C 242.833,158.5 242.167,156.5 241.5,154.5C 242.414,151.272 242.747,147.939 242.5,144.5 Z"/></g>
<g><path style="opacity:0.999" fill="#b91234" d="M 8.5,182.5 C 169.332,183.5 330.332,183.833 491.5,183.5C 491.5,183.833 491.5,184.167 491.5,184.5C 330.167,184.5 168.833,184.5 7.5,184.5C 7.32842,183.508 7.66175,182.842 8.5,182.5 Z"/></g>
<g><path style="opacity:0.996" fill="#c7122d" d="M 7.5,184.5 C 168.833,184.5 330.167,184.5 491.5,184.5C 495.04,197.762 497.707,211.095 499.5,224.5C 499.5,241.167 499.5,257.833 499.5,274.5C 487.763,362.844 443.096,428.678 365.5,472C 336.667,486.559 306.334,495.726 274.5,499.5C 257.833,499.5 241.167,499.5 224.5,499.5C 132.595,487.071 65.4284,439.737 23,357.5C 10.7506,330.604 2.91724,302.604 -0.5,273.5C -0.5,257.5 -0.5,241.5 -0.5,225.5C 1.18421,211.745 3.85088,198.078 7.5,184.5 Z"/></g>
<g><path style="opacity:1" fill="#fddc00" d="M 357.5,343.5 C 357.893,345.284 358.559,346.95 359.5,348.5C 359.5,349.167 359.5,349.833 359.5,350.5C 357.833,349.833 356.167,349.167 354.5,348.5C 350.534,345.784 346.034,344.117 341,343.5C 339.93,343.528 339.097,343.861 338.5,344.5C 336.585,344.216 334.919,344.549 333.5,345.5C 332.508,345.328 331.842,345.662 331.5,346.5C 329.897,346.312 328.563,346.812 327.5,348C 330.99,350.412 334.657,352.245 338.5,353.5C 339.945,355.063 341.611,356.396 343.5,357.5C 345.177,359.54 346.844,361.54 348.5,363.5C 348.5,363.833 348.5,364.167 348.5,364.5C 348.557,365.609 348.89,366.609 349.5,367.5C 349.557,368.609 349.89,369.609 350.5,370.5C 350.5,371.5 350.5,372.5 350.5,373.5C 349.29,373.068 348.29,372.401 347.5,371.5C 343.127,366.146 337.46,363.146 330.5,362.5C 326.009,361.068 321.675,361.568 317.5,364C 324.237,367.402 329.737,372.235 334,378.5C 336.441,382.969 336.941,387.635 335.5,392.5C 329.237,380.201 319.237,375.035 305.5,377C 316.816,384.782 320.983,395.282 318,408.5C 314.405,396.921 306.738,389.921 295,387.5C 294.167,387.833 293.333,388.167 292.5,388.5C 299.654,396.159 302.154,405.159 300,415.5C 299.74,417.618 298.74,419.284 297,420.5C 295.73,406.68 288.563,398.18 275.5,395C 280.7,403.594 281.867,412.761 279,422.5C 278.047,424.455 276.713,426.122 275,427.5C 275.591,414.678 270.424,405.011 259.5,398.5C 259.167,398.667 258.833,398.833 258.5,399C 261.666,408.495 260.833,417.662 256,426.5C 254.649,428.019 253.149,429.352 251.5,430.5C 251.531,423.957 251.364,417.29 251,410.5C 248.973,405.785 245.973,401.785 242,398.5C 242.34,408.167 239.674,416.834 234,424.5C 231.966,426.032 229.799,427.365 227.5,428.5C 227.167,428.167 226.833,427.833 226.5,427.5C 232.167,416.742 231.834,406.242 225.5,396C 225.167,395.833 224.833,395.667 224.5,395.5C 223.101,408.329 216.435,416.996 204.5,421.5C 203.833,421.333 203.167,421.167 202.5,421C 211.907,411.503 213.907,400.669 208.5,388.5C 204.947,400.054 197.281,407.054 185.5,409.5C 184.5,409.333 183.5,409.167 182.5,409C 188.203,404.635 192.37,399.135 195,392.5C 195.934,387.649 195.601,382.983 194,378.5C 189.737,384.765 184.237,389.598 177.5,393C 173.058,394.776 168.725,394.776 164.5,393C 173.621,388.886 179.454,382.053 182,372.5C 182.667,370.167 182.667,367.833 182,365.5C 173.188,375.336 162.688,378.17 150.5,374C 162.43,371.069 170.097,363.735 173.5,352C 173.167,351.5 172.833,351 172.5,350.5C 164.66,356.041 155.993,357.875 146.5,356C 138.366,352.183 139.032,350.516 148.5,351C 157.915,348.586 164.582,342.92 168.5,334C 165.545,334.419 162.545,335.086 159.5,336C 151.555,337.583 144.222,336.25 137.5,332C 136.117,330.729 135.117,329.229 134.5,327.5C 135.609,327.557 136.609,327.89 137.5,328.5C 140.167,328.5 142.833,328.5 145.5,328.5C 146.167,328.5 146.833,328.5 147.5,328.5C 155.027,327.4 161.027,323.733 165.5,317.5C 163.604,316.534 161.604,316.201 159.5,316.5C 157.5,316.5 155.5,316.5 153.5,316.5C 149.385,315.905 145.385,314.905 141.5,313.5C 141.027,312.094 140.027,311.427 138.5,311.5C 138.244,309.224 136.91,308.057 134.5,308C 135.711,306.887 135.711,305.72 134.5,304.5C 134.667,304.167 134.833,303.833 135,303.5C 136.33,304.582 137.83,305.249 139.5,305.5C 149.221,309.345 157.888,307.679 165.5,300.5C 166.289,300.217 166.956,299.717 167.5,299C 161.188,298.573 155.188,297.073 149.5,294.5C 147.192,292.529 144.858,290.529 142.5,288.5C 142.068,287.29 141.401,286.29 140.5,285.5C 140.443,284.391 140.11,283.391 139.5,282.5C 139.369,281.624 139.702,280.957 140.5,280.5C 141.518,281.193 142.518,281.859 143.5,282.5C 144.78,283.931 146.447,284.598 148.5,284.5C 149.209,285.404 150.209,285.737 151.5,285.5C 158.874,288.528 165.874,287.528 172.5,282.5C 163.167,279.49 155.5,274.157 149.5,266.5C 150.354,265.368 150.354,264.035 149.5,262.5C 148.956,258.36 149.956,257.693 152.5,260.5C 156.148,263.66 160.148,266.327 164.5,268.5C 166.717,269.369 169.05,269.702 171.5,269.5C 172.167,269.5 172.5,269.167 172.5,268.5C 175.059,268.802 177.393,268.468 179.5,267.5C 180.239,267.631 180.906,267.464 181.5,267C 179.609,265.558 177.609,264.391 175.5,263.5C 171.124,260.126 167.458,256.126 164.5,251.5C 162.48,247.314 162.147,242.981 163.5,238.5C 169.798,250.816 179.798,255.983 193.5,254C 182.203,246.252 178.037,235.752 181,222.5C 184.465,232.297 190.965,239.13 200.5,243C 202.579,243.808 204.579,243.641 206.5,242.5C 199.419,234.42 196.919,225.087 199,214.5C 200,213.167 201,211.833 202,210.5C 202.947,219.903 207.114,227.403 214.5,233C 217.298,234.914 220.298,235.914 223.5,236C 218.393,227.359 217.227,218.192 220,208.5C 220.953,206.545 222.287,204.878 224,203.5C 223.423,216.352 228.59,226.019 239.5,232.5C 239.833,232.167 240.167,231.833 240.5,231.5C 237.265,222.119 238.099,213.119 243,204.5C 244.378,202.787 246.045,201.453 248,200.5C 244.848,212.983 247.848,223.65 257,232.5C 256.151,221.033 259.985,211.533 268.5,204C 270.044,202.813 271.711,202.48 273.5,203C 268.303,210.859 267.136,219.359 270,228.5C 271.015,231.21 272.515,233.543 274.5,235.5C 276.089,223.765 282.089,215.265 292.5,210C 293.833,209.333 295.167,209.333 296.5,210C 286.977,219.402 284.977,230.235 290.5,242.5C 294.238,233.262 300.572,226.428 309.5,222C 311.833,221.333 314.167,221.333 316.5,222C 305.416,229.976 301.583,240.476 305,253.5C 309.854,243.973 317.521,238.306 328,236.5C 330.253,236.631 332.419,237.131 334.5,238C 324.089,242.564 318.089,250.397 316.5,261.5C 316.833,262.833 317.167,264.167 317.5,265.5C 326.045,255.589 336.379,252.756 348.5,257C 336.34,259.994 328.673,267.494 325.5,279.5C 325.667,280.167 325.833,280.833 326,281.5C 333.312,274.955 341.812,272.788 351.5,275C 354.29,275.561 356.623,276.894 358.5,279C 346.019,279.394 337.019,285.061 331.5,296C 331.833,296.5 332.167,297 332.5,297.5C 338.872,294.638 345.539,293.805 352.5,295C 356.869,296.267 360.703,298.433 364,301.5C 364.591,302.483 364.257,303.15 363,303.5C 350.516,299.881 340.683,303.381 333.5,314C 345.044,312.182 354.877,315.349 363,323.5C 363.982,324.759 364.315,326.092 364,327.5C 351.988,320.981 341.155,322.481 331.5,332C 341.807,332.324 350.474,336.158 357.5,343.5 Z"/></g>
<g><path style="opacity:1" fill="#46a728" d="M 164.5,251.5 C 167.458,256.126 171.124,260.126 175.5,263.5C 176.5,265.167 177.833,266.5 179.5,267.5C 177.393,268.468 175.059,268.802 172.5,268.5C 170.001,265.831 167.668,262.998 165.5,260C 164.167,259.333 162.833,259.333 161.5,260C 164.729,263.399 168.062,266.565 171.5,269.5C 169.05,269.702 166.717,269.369 164.5,268.5C 161.358,265.531 158.025,262.698 154.5,260C 153.563,259.308 152.897,259.475 152.5,260.5C 149.956,257.693 148.956,258.36 149.5,262.5C 148.107,261.74 146.607,261.074 145,260.5C 144.167,260.833 143.333,261.167 142.5,261.5C 144.687,263.422 147.02,265.088 149.5,266.5C 155.5,274.157 163.167,279.49 172.5,282.5C 165.874,287.528 158.874,288.528 151.5,285.5C 154.216,285.322 156.883,284.822 159.5,284C 155.745,283.245 152.078,283.411 148.5,284.5C 146.447,284.598 144.78,283.931 143.5,282.5C 146.522,282.196 149.522,281.696 152.5,281C 136.104,278.972 119.771,279.639 103.5,283C 101.324,283.163 99.4907,283.996 98,285.5C 96.6667,288.167 95.3333,290.833 94,293.5C 93.9157,288.169 96.0823,284.002 100.5,281C 93.1435,281.872 85.8102,282.872 78.5,284C 89.1935,279.658 100.193,276.324 111.5,274C 99.0775,273.677 86.7442,274.344 74.5,276C 91.0047,270.323 108.005,267.99 125.5,269C 107.424,265.516 89.4243,266.016 71.5,270.5C 80.9642,266.299 90.9642,263.632 101.5,262.5C 97.1736,261.565 92.8402,261.732 88.5,263C 81.7197,264.528 75.053,266.361 68.5,268.5C 72.2238,265.361 76.5572,263.361 81.5,262.5C 82.0431,262.44 82.3764,262.107 82.5,261.5C 78.0178,260.833 73.6845,260.166 69.5,259.5C 80.1081,258.069 90.7748,257.236 101.5,257C 93.4626,254.099 85.2959,251.599 77,249.5C 67.337,250.994 59.337,255.328 53,262.5C 52.6426,259.144 53.8093,256.311 56.5,254C 60.3494,251.575 64.3494,249.408 68.5,247.5C 61.8539,245.937 55.1873,244.437 48.5,243C 58.9062,242.927 69.2395,243.594 79.5,245C 74.4936,242.499 69.8269,239.499 65.5,236C 62.0636,235.308 58.7302,234.308 55.5,233C 57.9005,232.814 60.2338,232.314 62.5,231.5C 60.3119,228.478 57.6452,225.978 54.5,224C 59.6566,225.931 64.3233,228.931 68.5,233C 71.4302,234.318 74.4302,234.985 77.5,235C 71.5808,229.649 66.7474,223.483 63,216.5C 61.0748,215.12 59.2415,213.62 57.5,212C 65.5935,214.708 72.7601,219.208 79,225.5C 75.155,219.143 71.8217,212.477 69,205.5C 77.4668,216.766 86.6335,227.433 96.5,237.5C 94.5879,233.622 92.0879,229.622 89,225.5C 86.4316,221.388 84.7649,217.055 84,212.5C 90.7329,224.914 99.3996,235.914 110,245.5C 107.349,239.19 104.349,232.856 101,226.5C 99.555,222.85 98.555,219.183 98,215.5C 102.654,226.149 108.321,236.149 115,245.5C 119.5,251.333 124.667,256.5 130.5,261C 132.319,261.783 133.652,261.283 134.5,259.5C 132.183,256.683 129.683,254.016 127,251.5C 125.248,248.328 123.248,245.328 121,242.5C 120.018,241.241 119.685,239.908 120,238.5C 125.482,245.283 131.315,251.783 137.5,258C 139.403,258.774 141.07,258.44 142.5,257C 134.584,248.46 128.417,238.96 124,228.5C 130.604,239.05 138.604,248.383 148,256.5C 148.5,256.167 149,255.833 149.5,255.5C 143.5,248.833 139.666,241.166 138,232.5C 142.687,240.858 148.52,248.358 155.5,255C 157.167,255.667 158.833,255.667 160.5,255C 152.939,247.72 149.439,238.887 150,228.5C 150.308,227.692 150.808,227.025 151.5,226.5C 152.443,236.723 156.776,245.056 164.5,251.5 Z"/></g>
<g><path style="opacity:1" fill="#a53c29" d="M 164.5,268.5 C 160.148,266.327 156.148,263.66 152.5,260.5C 152.897,259.475 153.563,259.308 154.5,260C 158.025,262.698 161.358,265.531 164.5,268.5 Z"/></g>
<g><path style="opacity:1" fill="#7c5628" d="M 69.5,259.5 C 73.6845,260.166 78.0178,260.833 82.5,261.5C 82.3764,262.107 82.0431,262.44 81.5,262.5C 76.3491,261.673 71.0158,261.173 65.5,261C 66.745,260.209 68.0783,259.709 69.5,259.5 Z"/></g>
<g><path style="opacity:1" fill="#ab312a" d="M 88.5,249.5 C 88.9169,248.876 89.5836,248.543 90.5,248.5C 96.4014,249.285 101.735,251.451 106.5,255C 100.487,253.51 94.4868,251.676 88.5,249.5 Z"/></g>
<g><path style="opacity:1" fill="#b52c2b" d="M 172.5,268.5 C 172.5,269.167 172.167,269.5 171.5,269.5C 168.062,266.565 164.729,263.399 161.5,260C 162.833,259.333 164.167,259.333 165.5,260C 167.668,262.998 170.001,265.831 172.5,268.5 Z"/></g>
<g><path style="opacity:1" fill="#a6392a" d="M 71.5,270.5 C 69.5838,272.415 67.9171,272.415 66.5,270.5C 65.549,271.326 64.549,271.492 63.5,271C 64.9101,269.628 66.5767,268.795 68.5,268.5C 75.053,266.361 81.7197,264.528 88.5,263C 92.8402,261.732 97.1736,261.565 101.5,262.5C 90.9642,263.632 80.9642,266.299 71.5,270.5 Z"/></g>
<g><path style="opacity:1" fill="#bb2e2b" d="M 149.5,262.5 C 150.354,264.035 150.354,265.368 149.5,266.5C 147.02,265.088 144.687,263.422 142.5,261.5C 143.333,261.167 144.167,260.833 145,260.5C 146.607,261.074 148.107,261.74 149.5,262.5 Z"/></g>
<g><path style="opacity:1" fill="#c83d2a" d="M 175.5,263.5 C 177.609,264.391 179.609,265.558 181.5,267C 180.906,267.464 180.239,267.631 179.5,267.5C 177.833,266.5 176.5,265.167 175.5,263.5 Z"/></g>
<g><path style="opacity:1" fill="#b3252a" d="M 134.5,263.5 C 135.601,262.402 136.934,262.235 138.5,263C 143.328,266.581 148.328,269.915 153.5,273C 146.697,270.932 140.364,267.765 134.5,263.5 Z"/></g>
<g><path style="opacity:1" fill="#944629" d="M 151.5,285.5 C 150.209,285.737 149.209,285.404 148.5,284.5C 152.078,283.411 155.745,283.245 159.5,284C 156.883,284.822 154.216,285.322 151.5,285.5 Z"/></g>
<g><path style="opacity:1" fill="#914d28" d="M 140.5,285.5 C 141.401,286.29 142.068,287.29 142.5,288.5C 137.489,288.666 132.489,288.499 127.5,288C 131.754,286.735 136.088,285.902 140.5,285.5 Z"/></g>
<g><path style="opacity:1" fill="#46a628" d="M 139.5,282.5 C 140.11,283.391 140.443,284.391 140.5,285.5C 136.088,285.902 131.754,286.735 127.5,288C 132.489,288.499 137.489,288.666 142.5,288.5C 144.858,290.529 147.192,292.529 149.5,294.5C 139.565,295.801 130.899,299.801 123.5,306.5C 123.167,306.333 122.833,306.167 122.5,306C 129.172,299.955 128.172,298.955 119.5,303C 118.074,306.545 116.574,310.045 115,313.5C 114.359,305.456 117.859,299.956 125.5,297C 114.038,298.403 106.372,304.57 102.5,315.5C 101.833,317.167 101.167,318.833 100.5,320.5C 99.5655,307.247 105.566,298.747 118.5,295C 114.396,295.263 110.396,295.93 106.5,297C 112.726,293.22 119.393,290.553 126.5,289C 115.987,290.213 105.653,292.213 95.5,295C 109.47,288.341 124.137,284.174 139.5,282.5 Z"/></g>
<g><path style="opacity:1" fill="#4bac28" d="M 165.5,300.5 C 157.888,307.679 149.221,309.345 139.5,305.5C 147.598,301.107 156.264,299.44 165.5,300.5 Z"/></g>
<g><path style="opacity:1" fill="#c4192d" d="M 141.5,313.5 C 145.385,314.905 149.385,315.905 153.5,316.5C 152.317,321.545 149.65,325.545 145.5,328.5C 142.833,328.5 140.167,328.5 137.5,328.5C 136.817,322.897 138.151,317.897 141.5,313.5 Z"/></g>
<g><path style="opacity:1" fill="#785c28" d="M 102.5,315.5 C 102.663,317.857 102.497,320.19 102,322.5C 101.283,321.956 100.783,321.289 100.5,320.5C 101.167,318.833 101.833,317.167 102.5,315.5 Z"/></g>
<g><path style="opacity:1" fill="#c71f2c" d="M 159.5,316.5 C 161.604,316.201 163.604,316.534 165.5,317.5C 161.027,323.733 155.027,327.4 147.5,328.5C 152.473,325.527 156.473,321.527 159.5,316.5 Z"/></g>
<g><path style="opacity:1" fill="#45ac29" d="M 138.5,311.5 C 140.027,311.427 141.027,312.094 141.5,313.5C 138.151,317.897 136.817,322.897 137.5,328.5C 136.609,327.89 135.609,327.557 134.5,327.5C 133.619,321.523 134.953,316.189 138.5,311.5 Z"/></g>
<g><path style="opacity:1" fill="#4aa828" d="M 153.5,316.5 C 155.5,316.5 157.5,316.5 159.5,316.5C 156.473,321.527 152.473,325.527 147.5,328.5C 146.833,328.5 146.167,328.5 145.5,328.5C 149.65,325.545 152.317,321.545 153.5,316.5 Z"/></g>
<g><path style="opacity:1" fill="#b63b29" d="M 338.5,344.5 C 339.097,343.861 339.93,343.528 341,343.5C 346.034,344.117 350.534,345.784 354.5,348.5C 349.112,347.371 343.779,346.037 338.5,344.5 Z"/></g>
<g><path style="opacity:1" fill="#49a829" d="M 357.5,343.5 C 383.481,349.995 409.481,356.495 435.5,363C 436.728,364.49 436.728,365.99 435.5,367.5C 410.173,361.168 384.84,354.835 359.5,348.5C 358.559,346.95 357.893,345.284 357.5,343.5 Z"/></g>
<g><path style="opacity:1" fill="#6d5f25" d="M 331.5,346.5 C 331.842,345.662 332.508,345.328 333.5,345.5C 335.5,346.5 337.5,347.5 339.5,348.5C 336.659,348.44 333.993,347.774 331.5,346.5 Z"/></g>
<g><path style="opacity:1" fill="#46a829" d="M 331.5,346.5 C 333.993,347.774 336.659,348.44 339.5,348.5C 367.344,357.335 395.344,366.001 423.5,374.5C 428.884,374.986 429.55,376.653 425.5,379.5C 410.482,374.827 395.482,370.16 380.5,365.5C 394.538,371.462 408.872,376.962 423.5,382C 426.132,383.778 425.965,385.278 423,386.5C 394.77,375.591 366.603,364.591 338.5,353.5C 334.657,352.245 330.99,350.412 327.5,348C 328.563,346.812 329.897,346.312 331.5,346.5 Z"/></g>
<g><path style="opacity:1" fill="#46ab29" d="M 338.5,344.5 C 343.779,346.037 349.112,347.371 354.5,348.5C 356.167,349.167 357.833,349.833 359.5,350.5C 384.29,356.11 408.623,362.777 432.5,370.5C 430.955,373.767 428.622,374.434 425.5,372.5C 397.095,363.926 368.428,355.926 339.5,348.5C 337.5,347.5 335.5,346.5 333.5,345.5C 334.919,344.549 336.585,344.216 338.5,344.5 Z"/></g>
<g><path style="opacity:1" fill="#ae2f2b" d="M 359.5,348.5 C 384.84,354.835 410.173,361.168 435.5,367.5C 434.5,368.5 433.5,369.5 432.5,370.5C 408.623,362.777 384.29,356.11 359.5,350.5C 359.5,349.833 359.5,349.167 359.5,348.5 Z"/></g>
<g><path style="opacity:1" fill="#7b5127" d="M 380.5,365.5 C 377.689,365.174 375.022,364.341 372.5,363C 375.539,362.736 378.206,363.569 380.5,365.5 Z"/></g>
<g><path style="opacity:1" fill="#b12e2b" d="M 339.5,348.5 C 368.428,355.926 397.095,363.926 425.5,372.5C 423.007,372.131 422.34,372.797 423.5,374.5C 395.344,366.001 367.344,357.335 339.5,348.5 Z"/></g>
<g><path style="opacity:1" fill="#4caa29" d="M 330.5,362.5 C 337.46,363.146 343.127,366.146 347.5,371.5C 341.667,368.751 336.001,365.751 330.5,362.5 Z"/></g>
<g><path style="opacity:1" fill="#47aa29" d="M 343.5,357.5 C 370.158,367.935 396.492,378.935 422.5,390.5C 421.833,391.833 420.833,392.833 419.5,393.5C 413.26,390.545 406.927,387.878 400.5,385.5C 383.455,377.649 366.121,370.315 348.5,363.5C 346.844,361.54 345.177,359.54 343.5,357.5 Z"/></g>
<g><path style="opacity:1" fill="#a33529" d="M 348.5,364.5 C 348.5,364.167 348.5,363.833 348.5,363.5C 366.121,370.315 383.455,377.649 400.5,385.5C 399.508,385.328 398.842,385.662 398.5,386.5C 382.073,378.62 365.406,371.286 348.5,364.5 Z"/></g>
<g><path style="opacity:1" fill="#45ab29" d="M 350.5,370.5 C 372.09,380.628 393.423,391.295 414.5,402.5C 413.833,403.833 412.833,404.833 411.5,405.5C 390.982,395.075 370.649,384.409 350.5,373.5C 350.5,372.5 350.5,371.5 350.5,370.5 Z"/></g>
<g><path style="opacity:1" fill="#46aa29" d="M 348.5,364.5 C 365.406,371.286 382.073,378.62 398.5,386.5C 405.145,389.488 411.812,392.488 418.5,395.5C 419.59,396.391 419.59,397.391 418.5,398.5C 417.635,399.583 416.635,399.749 415.5,399C 393.6,388.216 371.6,377.716 349.5,367.5C 348.89,366.609 348.557,365.609 348.5,364.5 Z"/></g>
</svg>
