<?xml version="1.0" encoding="UTF-8"?>
<!DOCTYPE svg PUBLIC "-//W3C//DTD SVG 1.1//EN" "http://www.w3.org/Graphics/SVG/1.1/DTD/svg11.dtd">
<svg xmlns="http://www.w3.org/2000/svg" version="1.1" width="500px" height="500px" style="shape-rendering:geometricPrecision; text-rendering:geometricPrecision; image-rendering:optimizeQuality; fill-rule:evenodd; clip-rule:evenodd" xmlns:xlink="http://www.w3.org/1999/xlink">
<g><path style="opacity:0.997" fill="#fefefe" d="M 225.5,-0.5 C 241.5,-0.5 257.5,-0.5 273.5,-0.5C 293.711,1.80256 313.378,6.46923 332.5,13.5C 332.5,170.833 332.5,328.167 332.5,485.5C 323.9,489.198 314.9,492.031 305.5,494C 295.064,496.071 284.73,497.905 274.5,499.5C 257.833,499.5 241.167,499.5 224.5,499.5C 204.6,497.253 185.267,492.586 166.5,485.5C 166.5,328.167 166.5,170.833 166.5,13.5C 185.622,6.46923 205.289,1.80256 225.5,-0.5 Z"/></g>
<g><path style="opacity:0.993" fill="#4997d0" d="M 166.5,13.5 C 166.5,170.833 166.5,328.167 166.5,485.5C 84.513,455.009 31.3463,397.676 7,313.5C 3.72528,300.168 1.22528,286.834 -0.5,273.5C -0.5,257.5 -0.5,241.5 -0.5,225.5C 11.4543,135.075 57.4543,68.242 137.5,25C 146.845,20.2755 156.512,16.4422 166.5,13.5 Z"/></g>
<g><path style="opacity:0.993" fill="#4997d0" d="M 332.5,13.5 C 412.881,43.3844 465.714,99.3844 491,181.5C 494.695,195.808 497.529,210.141 499.5,224.5C 499.5,241.167 499.5,257.833 499.5,274.5C 486.192,370.295 435.858,438.795 348.5,480C 343.244,482.141 337.91,483.974 332.5,485.5C 332.5,328.167 332.5,170.833 332.5,13.5 Z"/></g>
<g><path style="opacity:1" fill="#b7c0a9" d="M 213.5,210.5 C 212.631,212.717 212.298,215.05 212.5,217.5C 210.38,218.403 210.046,219.737 211.5,221.5C 208.905,224.636 207.572,227.969 207.5,231.5C 206.094,231.973 205.427,232.973 205.5,234.5C 204.508,234.672 203.842,234.338 203.5,233.5C 204.931,232.22 205.598,230.553 205.5,228.5C 206.339,226.219 207.339,223.885 208.5,221.5C 208.376,220.893 208.043,220.56 207.5,220.5C 208.388,217.946 208.721,215.279 208.5,212.5C 208.833,212.5 209.167,212.5 209.5,212.5C 209.343,213.873 209.51,215.207 210,216.5C 211.252,213.986 211.752,211.32 211.5,208.5C 211.435,208.062 211.601,207.728 212,207.5C 212.232,208.737 212.732,209.737 213.5,210.5 Z"/></g>
<g><path style="opacity:1" fill="#517434" d="M 288.5,212.5 C 289.626,213.858 289.626,215.192 288.5,216.5C 286.918,214.985 285.584,213.319 284.5,211.5C 284.185,209.774 284.019,208.107 284,206.5C 286.102,208.095 287.602,210.095 288.5,212.5 Z"/></g>
<g><path style="opacity:1" fill="#537c2d" d="M 211.5,208.5 C 211.752,211.32 211.252,213.986 210,216.5C 209.51,215.207 209.343,213.873 209.5,212.5C 209.66,210.847 210.326,209.514 211.5,208.5 Z"/></g>
<g><path style="opacity:1" fill="#801d11" d="M 245.5,209.5 C 247.799,212.466 250.466,215.132 253.5,217.5C 252.5,217.5 251.5,217.5 250.5,217.5C 247.203,215.867 245.536,213.2 245.5,209.5 Z"/></g>
<g><path style="opacity:1" fill="#5c803a" d="M 208.5,212.5 C 208.721,215.279 208.388,217.946 207.5,220.5C 205.073,217.19 204.907,213.523 207,209.5C 207.232,210.737 207.732,211.737 208.5,212.5 Z"/></g>
<g><path style="opacity:1" fill="#628641" d="M 212.5,217.5 C 212.298,215.05 212.631,212.717 213.5,210.5C 214.031,208.456 215.198,206.789 217,205.5C 217.24,207.977 216.406,210.144 214.5,212C 216.95,210.793 219.617,210.127 222.5,210C 219.631,213.204 216.465,216.037 213,218.5C 212.601,218.272 212.435,217.938 212.5,217.5 Z"/></g>
<g><path style="opacity:1" fill="#4f742f" d="M 291.5,209.5 C 294.201,213.403 295.034,217.737 294,222.5C 293.617,223.056 293.117,223.389 292.5,223.5C 292.259,220.103 291.593,216.769 290.5,213.5C 290.511,211.955 290.844,210.622 291.5,209.5 Z"/></g>
<g><path style="opacity:1" fill="#f7eead" d="M 250.5,217.5 C 251.5,217.5 252.5,217.5 253.5,217.5C 254.167,217.5 254.5,217.833 254.5,218.5C 254.611,219.117 254.944,219.617 255.5,220C 249.224,221.424 242.891,221.758 236.5,221C 235.619,220.292 234.953,219.458 234.5,218.5C 239.805,217.806 245.138,217.472 250.5,217.5 Z"/></g>
<g><path style="opacity:1" fill="#bec6af" d="M 291.5,209.5 C 290.844,210.622 290.511,211.955 290.5,213.5C 291.593,216.769 292.259,220.103 292.5,223.5C 292.577,224.75 293.244,225.583 294.5,226C 293.209,227.292 293.209,228.458 294.5,229.5C 294.804,231.796 295.804,232.129 297.5,230.5C 297.833,230.5 298.167,230.5 298.5,230.5C 297.167,232.167 295.833,233.833 294.5,235.5C 292.027,235.396 291.361,234.396 292.5,232.5C 291.687,231.186 290.687,230.019 289.5,229C 290.308,228.692 290.975,228.192 291.5,227.5C 289.753,222.356 287.087,217.356 283.5,212.5C 284.167,212.5 284.5,212.167 284.5,211.5C 285.584,213.319 286.918,214.985 288.5,216.5C 289.626,215.192 289.626,213.858 288.5,212.5C 289.161,211.282 289.828,209.949 290.5,208.5C 291.107,208.624 291.44,208.957 291.5,209.5 Z"/></g>
<g><path style="opacity:1" fill="#ebefea" d="M 263.5,221.5 C 264.833,222.167 265.833,223.167 266.5,224.5C 264.5,225.833 262.833,227.5 261.5,229.5C 260.026,228.564 259.026,227.23 258.5,225.5C 259.76,223.633 261.427,222.3 263.5,221.5 Z"/></g>
<g><path style="opacity:1" fill="#e2d284" d="M 234.5,218.5 C 234.953,219.458 235.619,220.292 236.5,221C 242.891,221.758 249.224,221.424 255.5,220C 254.944,219.617 254.611,219.117 254.5,218.5C 257.746,219.054 260.746,220.054 263.5,221.5C 261.427,222.3 259.76,223.633 258.5,225.5C 250.107,225.428 241.774,225.595 233.5,226C 235.211,224.867 235.711,223.367 235,221.5C 233.226,222.965 231.392,224.298 229.5,225.5C 227.499,220.81 229.165,218.476 234.5,218.5 Z"/></g>
<g><path style="opacity:1" fill="#6b8e4a" d="M 205.5,228.5 C 203.589,228.426 202.422,227.426 202,225.5C 200.502,222.535 200.335,219.535 201.5,216.5C 203.828,220.15 205.161,224.15 205.5,228.5 Z"/></g>
<g><path style="opacity:1" fill="#f6eca6" d="M 258.5,225.5 C 259.026,227.23 260.026,228.564 261.5,229.5C 261.5,229.833 261.5,230.167 261.5,230.5C 264.202,235.241 266.369,240.241 268,245.5C 268.801,248.367 268.634,251.034 267.5,253.5C 267.5,252.5 267.5,251.5 267.5,250.5C 264.439,250.413 261.773,249.413 259.5,247.5C 258.006,247.709 256.839,248.376 256,249.5C 255.667,248.833 255.333,248.167 255,247.5C 254.51,248.793 254.343,250.127 254.5,251.5C 256.527,251.338 258.527,251.505 260.5,252C 253.449,252.444 246.449,253.277 239.5,254.5C 238.502,257.028 237.669,257.028 237,254.5C 236.517,255.448 236.351,256.448 236.5,257.5C 234.833,257.5 233.167,257.5 231.5,257.5C 229.451,251.209 231.784,248.542 238.5,249.5C 238.477,247.073 237.977,244.74 237,242.5C 234.488,236.812 231.988,231.145 229.5,225.5C 231.392,224.298 233.226,222.965 235,221.5C 235.711,223.367 235.211,224.867 233.5,226C 241.774,225.595 250.107,225.428 258.5,225.5 Z"/></g>
<g><path style="opacity:1" fill="#f8f9f6" d="M 266.5,225.5 C 269.607,228.04 271.44,231.373 272,235.5C 272.992,242.102 272.159,248.435 269.5,254.5C 268.512,255.795 267.512,257.128 266.5,258.5C 265.833,258.5 265.5,258.167 265.5,257.5C 266.6,256.395 267.267,255.062 267.5,253.5C 268.634,251.034 268.801,248.367 268,245.5C 266.369,240.241 264.202,235.241 261.5,230.5C 263.5,229.167 265.167,227.5 266.5,225.5 Z"/></g>
<g><path style="opacity:1" fill="#507531" d="M 207.5,231.5 C 207.572,227.969 208.905,224.636 211.5,221.5C 212.815,220.524 214.148,219.524 215.5,218.5C 215.833,218.667 216.167,218.833 216.5,219C 214.912,220.987 214.079,223.154 214,225.5C 214.837,223.993 216.004,223.493 217.5,224C 215.418,228.258 212.085,230.758 207.5,231.5 Z"/></g>
<g><path style="opacity:1" fill="#86655c" d="M 266.5,224.5 C 266.5,224.833 266.5,225.167 266.5,225.5C 265.167,227.5 263.5,229.167 261.5,230.5C 261.5,230.167 261.5,229.833 261.5,229.5C 262.833,227.5 264.5,225.833 266.5,224.5 Z"/></g>
<g><path style="opacity:1" fill="#4a6e2c" d="M 297.5,230.5 C 295.804,232.129 294.804,231.796 294.5,229.5C 299.538,216.033 300.538,216.366 297.5,230.5 Z"/></g>
<g><path style="opacity:1" fill="#e5d07d" d="M 244.5,230.5 C 248.682,230.67 252.682,230.67 256.5,230.5C 258.904,231.008 259.571,232.175 258.5,234C 256.167,234.333 253.833,234.667 251.5,235C 252.759,235.923 254.092,236.757 255.5,237.5C 256.641,238.425 256.641,239.259 255.5,240C 254.065,239.689 252.732,239.855 251.5,240.5C 250.483,237.972 249.316,237.972 248,240.5C 247.333,237.833 246.667,237.833 246,240.5C 244.164,238.038 244.997,236.538 248.5,236C 245.118,235.824 241.785,235.324 238.5,234.5C 237.41,233.391 237.41,232.391 238.5,231.5C 239.192,232.025 239.692,232.692 240,233.5C 241.31,232.103 242.81,231.103 244.5,230.5 Z"/></g>
<g><path style="opacity:1" fill="#4a6d2d" d="M 296.5,248.5 C 296.5,247.167 295.833,246.5 294.5,246.5C 296.063,243.751 297.063,240.751 297.5,237.5C 297.457,236.584 297.124,235.917 296.5,235.5C 295.833,235.5 295.167,235.5 294.5,235.5C 295.833,233.833 297.167,232.167 298.5,230.5C 299.387,228.265 300.387,227.765 301.5,229C 298.759,232.743 297.925,236.909 299,241.5C 300.065,239.604 300.898,239.437 301.5,241C 301.129,244.509 299.463,247.009 296.5,248.5 Z"/></g>
<g><path style="opacity:1" fill="#61863f" d="M 283.5,212.5 C 287.087,217.356 289.753,222.356 291.5,227.5C 290.975,228.192 290.308,228.692 289.5,229C 290.687,230.019 291.687,231.186 292.5,232.5C 291.361,234.396 292.027,235.396 294.5,235.5C 292.016,236.964 292.016,238.631 294.5,240.5C 295.95,239.15 296.617,237.484 296.5,235.5C 297.124,235.917 297.457,236.584 297.5,237.5C 297.063,240.751 296.063,243.751 294.5,246.5C 293.685,245.571 292.852,244.571 292,243.5C 292.374,245.769 292.374,248.102 292,250.5C 291.617,249.944 291.117,249.611 290.5,249.5C 288.559,246.072 287.726,242.405 288,238.5C 290.31,240.918 290.976,240.252 290,236.5C 288.833,235.333 287.667,234.167 286.5,233C 287.167,232.667 287.833,232.333 288.5,232C 286.649,230.316 284.982,228.483 283.5,226.5C 283.833,226.167 284.167,225.833 284.5,225.5C 285.62,226.833 286.953,227.333 288.5,227C 285.55,221.984 282.883,216.818 280.5,211.5C 280.667,211.167 280.833,210.833 281,210.5C 281.708,211.381 282.542,212.047 283.5,212.5 Z"/></g>
<g><path style="opacity:1" fill="#aabb9d" d="M 294.5,235.5 C 295.167,235.5 295.833,235.5 296.5,235.5C 296.617,237.484 295.95,239.15 294.5,240.5C 292.016,238.631 292.016,236.964 294.5,235.5 Z"/></g>
<g><path style="opacity:1" fill="#d7bb5f" d="M 246.5,242.5 C 252.833,242.5 259.167,242.5 265.5,242.5C 265.5,243.5 265.5,244.5 265.5,245.5C 261.121,245.292 256.787,245.625 252.5,246.5C 251.353,246.182 250.519,245.516 250,244.5C 249.309,246.891 248.309,246.891 247,244.5C 244.357,247.182 241.857,247.016 239.5,244C 242.036,243.814 244.369,243.314 246.5,242.5 Z"/></g>
<g><path style="opacity:1" fill="#628641" d="M 195.5,246.5 C 198.764,248.094 201.431,250.427 203.5,253.5C 199.18,253.54 196.513,251.207 195.5,246.5 Z"/></g>
<g><path style="opacity:1" fill="#bcc2ac" d="M 294.5,246.5 C 295.833,246.5 296.5,247.167 296.5,248.5C 295.903,248.735 295.57,249.235 295.5,250C 296.056,251.011 296.722,251.844 297.5,252.5C 296.859,253.482 296.193,254.482 295.5,255.5C 295.957,256.298 296.624,256.631 297.5,256.5C 299.604,256.201 301.604,256.534 303.5,257.5C 303.376,258.107 303.043,258.44 302.5,258.5C 299.77,257.183 296.937,257.183 294,258.5C 293.281,255.26 292.115,252.26 290.5,249.5C 291.117,249.611 291.617,249.944 292,250.5C 292.374,248.102 292.374,245.769 292,243.5C 292.852,244.571 293.685,245.571 294.5,246.5 Z"/></g>
<g><path style="opacity:1" fill="#587b3a" d="M 297.5,256.5 C 296.624,256.631 295.957,256.298 295.5,255.5C 296.193,254.482 296.859,253.482 297.5,252.5C 299.175,250.998 301.008,249.665 303,248.5C 302.614,252.07 300.781,254.737 297.5,256.5 Z"/></g>
<g><path style="opacity:1" fill="#e0c974" d="M 267.5,253.5 C 267.267,255.062 266.6,256.395 265.5,257.5C 264.5,257.5 263.5,257.5 262.5,257.5C 260.833,257.5 259.167,257.5 257.5,257.5C 256.5,257.5 255.5,257.5 254.5,257.5C 251.287,257.19 248.287,257.523 245.5,258.5C 244.833,258.5 244.167,258.5 243.5,258.5C 240.5,258.5 237.5,258.5 234.5,258.5C 233.5,258.5 232.5,258.5 231.5,258.5C 231.5,258.167 231.5,257.833 231.5,257.5C 233.167,257.5 234.833,257.5 236.5,257.5C 236.351,256.448 236.517,255.448 237,254.5C 237.669,257.028 238.502,257.028 239.5,254.5C 246.449,253.277 253.449,252.444 260.5,252C 258.527,251.505 256.527,251.338 254.5,251.5C 254.343,250.127 254.51,248.793 255,247.5C 255.333,248.167 255.667,248.833 256,249.5C 256.839,248.376 258.006,247.709 259.5,247.5C 261.773,249.413 264.439,250.413 267.5,250.5C 267.5,251.5 267.5,252.5 267.5,253.5 Z"/></g>
<g><path style="opacity:1" fill="#f8f8f7" d="M 257.5,257.5 C 259.167,257.5 260.833,257.5 262.5,257.5C 263.748,259.649 265.248,261.649 267,263.5C 267.383,262.944 267.883,262.611 268.5,262.5C 267.025,266.783 265.025,270.783 262.5,274.5C 258.521,271.188 254.854,267.521 251.5,263.5C 253.215,261.118 255.215,259.118 257.5,257.5 Z"/></g>
<g><path style="opacity:1" fill="#6d3d27" d="M 262.5,257.5 C 263.5,257.5 264.5,257.5 265.5,257.5C 265.5,258.167 265.833,258.5 266.5,258.5C 267.6,259.605 268.267,260.938 268.5,262.5C 267.883,262.611 267.383,262.944 267,263.5C 265.248,261.649 263.748,259.649 262.5,257.5 Z"/></g>
<g><path style="opacity:1" fill="#587b39" d="M 290.5,249.5 C 292.115,252.26 293.281,255.26 294,258.5C 296.937,257.183 299.77,257.183 302.5,258.5C 298.974,259.69 295.974,261.69 293.5,264.5C 292.325,264.719 291.325,264.386 290.5,263.5C 289.652,261.591 289.318,259.591 289.5,257.5C 289.194,254.615 289.527,251.948 290.5,249.5 Z"/></g>
<g><path style="opacity:1" fill="#edeae0" d="M 254.5,257.5 C 251.774,262.069 248.774,262.402 245.5,258.5C 248.287,257.523 251.287,257.19 254.5,257.5 Z"/></g>
<g><path style="opacity:1" fill="#497f2d" d="M 273.5,262.5 C 271.847,265.131 270.181,267.797 268.5,270.5C 267.5,272.5 266.5,274.5 265.5,276.5C 263.973,276.573 262.973,275.906 262.5,274.5C 265.025,270.783 267.025,266.783 268.5,262.5C 271.485,259.966 271.818,257.299 269.5,254.5C 272.159,248.435 272.992,242.102 272,235.5C 271.44,231.373 269.607,228.04 266.5,225.5C 266.5,225.167 266.5,224.833 266.5,224.5C 265.833,223.167 264.833,222.167 263.5,221.5C 260.746,220.054 257.746,219.054 254.5,218.5C 254.5,217.833 254.167,217.5 253.5,217.5C 250.466,215.132 247.799,212.466 245.5,209.5C 245.616,207.425 246.116,205.425 247,203.5C 250.552,202.028 252.218,203.362 252,207.5C 261.978,214.125 269.645,222.792 275,233.5C 277.223,243.314 276.723,252.98 273.5,262.5 Z"/></g>
<g><path style="opacity:1" fill="#97ac86" d="M 287.5,255.5 C 288.167,256.167 288.833,256.833 289.5,257.5C 289.318,259.591 289.652,261.591 290.5,263.5C 291.325,264.386 292.325,264.719 293.5,264.5C 292.737,265.268 291.737,265.768 290.5,266C 289.512,268.167 288.179,270 286.5,271.5C 287.562,269.766 287.562,268.099 286.5,266.5C 288.026,265.508 288.693,264.008 288.5,262C 288.212,259.813 287.878,257.646 287.5,255.5 Z"/></g>
<g><path style="opacity:1" fill="#5c7f3c" d="M 203.5,233.5 C 203.842,234.338 204.508,234.672 205.5,234.5C 208.148,233.327 210.815,232.494 213.5,232C 212.333,233.167 211.167,234.333 210,235.5C 211.693,242.001 210.193,247.667 205.5,252.5C 207.485,252.396 208.985,251.063 210,248.5C 209.747,251.133 209.747,253.8 210,256.5C 210.317,254.699 210.984,254.366 212,255.5C 214.193,260.009 215.86,264.676 217,269.5C 217.664,265.907 218.831,265.907 220.5,269.5C 219.055,271.063 217.389,272.396 215.5,273.5C 214.034,270.753 213.201,267.753 213,264.5C 211.442,265.345 210.442,264.679 210,262.5C 209.722,263.416 209.222,264.082 208.5,264.5C 208.631,263.761 208.464,263.094 208,262.5C 206.951,263.517 205.784,263.684 204.5,263C 201.629,261.065 198.629,259.399 195.5,258C 197.402,257.801 198.902,256.967 200,255.5C 201.441,256.87 203.108,257.87 205,258.5C 204.954,255.2 204.788,251.866 204.5,248.5C 202.61,248.703 201.11,248.037 200,246.5C 197.964,243.398 196.964,240.065 197,236.5C 198.574,237.984 199.907,239.651 201,241.5C 201.482,236.712 201.148,232.045 200,227.5C 201.947,229.063 203.114,231.063 203.5,233.5 Z"/></g>
<g><path style="opacity:1" fill="#f8f8f6" d="M 234.5,258.5 C 237.5,258.5 240.5,258.5 243.5,258.5C 244.81,260.148 246.143,261.814 247.5,263.5C 242.027,268.674 237.027,273.341 232.5,277.5C 230.565,276.85 228.565,276.517 226.5,276.5C 226.567,275.041 226.234,273.708 225.5,272.5C 225.167,271.833 224.833,271.167 224.5,270.5C 227.797,270.671 228.131,270.005 225.5,268.5C 227.19,266.481 228.856,264.481 230.5,262.5C 232.167,261.5 233.5,260.167 234.5,258.5 Z"/></g>
<g><path style="opacity:1" fill="#a1b896" d="M 269.5,254.5 C 271.818,257.299 271.485,259.966 268.5,262.5C 268.267,260.938 267.6,259.605 266.5,258.5C 267.512,257.128 268.512,255.795 269.5,254.5 Z"/></g>
<g><path style="opacity:1" fill="#6c311d" d="M 231.5,258.5 C 232.5,258.5 233.5,258.5 234.5,258.5C 233.5,260.167 232.167,261.5 230.5,262.5C 229.167,261.5 229.167,260.5 230.5,259.5C 231.167,259.5 231.5,259.167 231.5,258.5 Z"/></g>
<g><path style="opacity:1" fill="#588035" d="M 287.5,255.5 C 287.878,257.646 288.212,259.813 288.5,262C 288.693,264.008 288.026,265.508 286.5,266.5C 285.077,262.46 285.243,258.46 287,254.5C 287.399,254.728 287.565,255.062 287.5,255.5 Z"/></g>
<g><path style="opacity:1" fill="#b8baa5" d="M 215.5,273.5 C 214.126,273.208 212.793,272.875 211.5,272.5C 211.938,272.565 212.272,272.399 212.5,272C 211.011,270.532 209.677,269.032 208.5,267.5C 209.625,266.652 209.625,265.652 208.5,264.5C 209.222,264.082 209.722,263.416 210,262.5C 210.442,264.679 211.442,265.345 213,264.5C 213.201,267.753 214.034,270.753 215.5,273.5 Z"/></g>
<g><path style="opacity:1" fill="#598036" d="M 208.5,267.5 C 205.107,267.938 202.107,267.105 199.5,265C 203.071,264.141 206.071,264.974 208.5,267.5 Z"/></g>
<g><path style="opacity:1" fill="#fbfbfa" d="M 260.5,276.5 C 257.514,281.152 253.847,285.152 249.5,288.5C 245.076,289.618 240.743,289.284 236.5,287.5C 237.189,286.226 238.023,286.226 239,287.5C 239.976,283.673 239.143,280.34 236.5,277.5C 240.177,272.99 244.343,268.99 249,265.5C 253.323,268.656 257.156,272.323 260.5,276.5 Z"/></g>
<g><path style="opacity:1" fill="#aeb2b5" d="M 230.5,259.5 C 229.167,260.5 229.167,261.5 230.5,262.5C 228.856,264.481 227.19,266.481 225.5,268.5C 228.131,270.005 227.797,270.671 224.5,270.5C 224.5,269.167 223.833,268.5 222.5,268.5C 223.044,263.623 225.71,260.623 230.5,259.5 Z"/></g>
<g><path style="opacity:1" fill="#9da4a7" d="M 254.5,257.5 C 255.5,257.5 256.5,257.5 257.5,257.5C 255.215,259.118 253.215,261.118 251.5,263.5C 254.854,267.521 258.521,271.188 262.5,274.5C 262.973,275.906 263.973,276.573 265.5,276.5C 265.5,276.833 265.5,277.167 265.5,277.5C 265.5,278.167 265.833,278.5 266.5,278.5C 266.027,279.906 265.027,280.573 263.5,280.5C 263.5,279.167 262.833,278.5 261.5,278.5C 261.672,277.508 261.338,276.842 260.5,276.5C 257.156,272.323 253.323,268.656 249,265.5C 244.343,268.99 240.177,272.99 236.5,277.5C 235.5,277.833 234.833,278.5 234.5,279.5C 233.167,279.5 232.5,278.833 232.5,277.5C 237.027,273.341 242.027,268.674 247.5,263.5C 246.143,261.814 244.81,260.148 243.5,258.5C 244.167,258.5 244.833,258.5 245.5,258.5C 248.774,262.402 251.774,262.069 254.5,257.5 Z"/></g>
<g><path style="opacity:1" fill="#b5b8b9" d="M 273.5,262.5 C 274.015,264.894 274.681,267.228 275.5,269.5C 274.167,269.5 273.5,270.167 273.5,271.5C 271.784,271.371 270.117,271.038 268.5,270.5C 270.181,267.797 271.847,265.131 273.5,262.5 Z"/></g>
<g><path style="opacity:1" fill="#507432" d="M 295.5,265.5 C 297.527,265.338 299.527,265.505 301.5,266C 298.326,269.194 294.659,270.027 290.5,268.5C 292.145,267.304 293.811,266.304 295.5,265.5 Z"/></g>
<g><path style="opacity:1" fill="#5d823b" d="M 281.5,274.5 C 280.5,274.167 279.833,273.5 279.5,272.5C 281.624,269.094 283.124,265.427 284,261.5C 284.667,264.833 284.667,268.167 284,271.5C 283.667,271.167 283.333,270.833 283,270.5C 282.59,271.901 282.09,273.234 281.5,274.5 Z"/></g>
<g><path style="opacity:1" fill="#4e6a24" d="M 278.5,272.5 C 277.5,272.167 276.833,271.5 276.5,270.5C 277.222,270.082 277.722,269.416 278,268.5C 278.49,269.793 278.657,271.127 278.5,272.5 Z"/></g>
<g><path style="opacity:1" fill="#6c331f" d="M 222.5,268.5 C 223.833,268.5 224.5,269.167 224.5,270.5C 223.069,271.78 222.402,273.447 222.5,275.5C 220.981,278.021 219.314,280.521 217.5,283C 215.19,283.497 212.857,283.663 210.5,283.5C 209.167,282.167 209.167,280.833 210.5,279.5C 211.5,279.167 212.167,278.5 212.5,277.5C 212.5,277.167 212.5,276.833 212.5,276.5C 214.144,276.19 215.144,275.19 215.5,273.5C 217.389,272.396 219.055,271.063 220.5,269.5C 221.167,269.167 221.833,268.833 222.5,268.5 Z"/></g>
<g><path style="opacity:1" fill="#e5eade" d="M 268.5,270.5 C 270.117,271.038 271.784,271.371 273.5,271.5C 273.5,271.833 273.5,272.167 273.5,272.5C 272.448,276.426 271.782,280.426 271.5,284.5C 270.5,284.167 269.833,283.5 269.5,282.5C 269.557,281.391 269.89,280.391 270.5,279.5C 270.5,279.167 270.5,278.833 270.5,278.5C 271.855,275.203 271.355,274.87 269,277.5C 268.667,276.833 268.333,276.167 268,275.5C 267.292,276.381 266.458,277.047 265.5,277.5C 265.5,277.167 265.5,276.833 265.5,276.5C 266.5,274.5 267.5,272.5 268.5,270.5 Z"/></g>
<g><path style="opacity:1" fill="#6c3320" d="M 275.5,269.5 C 276.167,269.5 276.5,269.833 276.5,270.5C 276.833,271.5 277.5,272.167 278.5,272.5C 278.833,272.5 279.167,272.5 279.5,272.5C 279.833,273.5 280.5,274.167 281.5,274.5C 281.5,275.167 281.833,275.5 282.5,275.5C 282.932,276.71 283.599,277.71 284.5,278.5C 285.167,279.833 286.167,280.833 287.5,281.5C 287.567,282.959 287.234,284.292 286.5,285.5C 284.139,285.326 281.806,284.993 279.5,284.5C 279.5,283.833 279.167,283.5 278.5,283.5C 276.63,279.874 274.963,276.208 273.5,272.5C 273.5,272.167 273.5,271.833 273.5,271.5C 273.5,270.167 274.167,269.5 275.5,269.5 Z"/></g>
<g><path style="opacity:1" fill="#5c7f3d" d="M 284.5,278.5 C 283.599,277.71 282.932,276.71 282.5,275.5C 283.473,273.861 284.806,272.527 286.5,271.5C 286.369,272.239 286.536,272.906 287,273.5C 288.987,271.912 291.154,271.079 293.5,271C 290.798,273.995 287.798,276.495 284.5,278.5 Z"/></g>
<g><path style="opacity:1" fill="#648643" d="M 211.5,272.5 C 212.793,272.875 214.126,273.208 215.5,273.5C 215.144,275.19 214.144,276.19 212.5,276.5C 209.755,275.263 207.422,273.43 205.5,271C 207.695,270.591 209.695,271.091 211.5,272.5 Z"/></g>
<g><path style="opacity:1" fill="#8b9b72" d="M 212.5,277.5 C 212.167,278.5 211.5,279.167 210.5,279.5C 209.711,279.217 209.044,278.717 208.5,278C 209.793,277.51 211.127,277.343 212.5,277.5 Z"/></g>
<g><path style="opacity:1" fill="#a3b495" d="M 224.5,270.5 C 224.833,271.167 225.167,271.833 225.5,272.5C 224.518,275.962 224.185,279.629 224.5,283.5C 223.325,283.719 222.325,283.386 221.5,282.5C 222.374,280.253 222.708,277.92 222.5,275.5C 222.402,273.447 223.069,271.78 224.5,270.5 Z"/></g>
<g><path style="opacity:1" fill="#617d2f" d="M 270.5,278.5 C 269.167,278.5 267.833,278.5 266.5,278.5C 265.833,278.5 265.5,278.167 265.5,277.5C 266.458,277.047 267.292,276.381 268,275.5C 268.333,276.167 268.667,276.833 269,277.5C 271.355,274.87 271.855,275.203 270.5,278.5 Z"/></g>
<g><path style="opacity:1" fill="#688949" d="M 284.5,278.5 C 286.857,278.337 289.19,278.503 291.5,279C 290.307,280.095 288.973,280.928 287.5,281.5C 286.167,280.833 285.167,279.833 284.5,278.5 Z"/></g>
<g><path style="opacity:1" fill="#cdd2ac" d="M 227.5,282.5 C 227.5,281.167 227.5,279.833 227.5,278.5C 228.472,277.249 229.139,277.582 229.5,279.5C 229.547,281.038 228.88,282.038 227.5,282.5 Z"/></g>
<g><path style="opacity:1" fill="#5b7235" d="M 270.5,279.5 C 269.89,280.391 269.557,281.391 269.5,282.5C 266.952,280.987 267.285,279.987 270.5,279.5 Z"/></g>
<g><path style="opacity:1" fill="#e7ac26" d="M 226.5,276.5 C 228.565,276.517 230.565,276.85 232.5,277.5C 232.5,278.833 233.167,279.5 234.5,279.5C 235.043,279.56 235.376,279.893 235.5,280.5C 234.051,281.172 232.718,281.839 231.5,282.5C 230.5,282.833 229.833,283.5 229.5,284.5C 225.755,285.812 225.089,285.146 227.5,282.5C 228.88,282.038 229.547,281.038 229.5,279.5C 229.139,277.582 228.472,277.249 227.5,278.5C 225.323,279.504 224.989,278.838 226.5,276.5 Z"/></g>
<g><path style="opacity:1" fill="#628f4b" d="M 260.5,276.5 C 261.338,276.842 261.672,277.508 261.5,278.5C 258.484,282.515 254.817,285.848 250.5,288.5C 250.167,288.5 249.833,288.5 249.5,288.5C 253.847,285.152 257.514,281.152 260.5,276.5 Z"/></g>
<g><path style="opacity:1" fill="#ecf2ea" d="M 261.5,278.5 C 259.75,282.335 257.75,286.001 255.5,289.5C 253.45,289.961 251.45,290.628 249.5,291.5C 249.167,291.167 248.833,290.833 248.5,290.5C 249.243,289.818 249.909,289.151 250.5,288.5C 254.817,285.848 258.484,282.515 261.5,278.5 Z"/></g>
<g><path style="opacity:1" fill="#5c8740" d="M 261.5,278.5 C 262.833,278.5 263.5,279.167 263.5,280.5C 262.475,280.897 262.308,281.563 263,282.5C 264.302,283.085 265.469,283.751 266.5,284.5C 265.104,287.822 262.937,288.155 260,285.5C 258.628,286.91 257.795,288.577 257.5,290.5C 256.356,292.1 255.189,293.767 254,295.5C 253.805,294.181 253.972,292.847 254.5,291.5C 255.338,291.158 255.672,290.492 255.5,289.5C 257.75,286.001 259.75,282.335 261.5,278.5 Z"/></g>
<g><path style="opacity:1" fill="#dee2d7" d="M 278.5,283.5 C 279.167,283.5 279.5,283.833 279.5,284.5C 277.473,284.662 275.473,284.495 273.5,284C 274.191,282.933 274.691,281.766 275,280.5C 275.72,282.056 276.887,283.056 278.5,283.5 Z"/></g>
<g><path style="opacity:1" fill="#537532" d="M 236.5,277.5 C 239.143,280.34 239.976,283.673 239,287.5C 238.023,286.226 237.189,286.226 236.5,287.5C 236.5,287.833 236.5,288.167 236.5,288.5C 235.833,288.167 235.167,287.833 234.5,287.5C 233.89,285.566 232.89,283.899 231.5,282.5C 232.718,281.839 234.051,281.172 235.5,280.5C 235.376,279.893 235.043,279.56 234.5,279.5C 234.833,278.5 235.5,277.833 236.5,277.5 Z"/></g>
<g><path style="opacity:1" fill="#c9bfae" d="M 231.5,282.5 C 232.89,283.899 233.89,285.566 234.5,287.5C 235.354,289.035 235.354,290.368 234.5,291.5C 232.987,290.691 231.32,290.524 229.5,291C 231.607,289.736 232.607,287.903 232.5,285.5C 231.209,285.737 230.209,285.404 229.5,284.5C 229.833,283.5 230.5,282.833 231.5,282.5 Z"/></g>
<g><path style="opacity:1" fill="#e3ac2b" d="M 266.5,278.5 C 267.833,278.5 269.167,278.5 270.5,278.5C 270.5,278.833 270.5,279.167 270.5,279.5C 267.285,279.987 266.952,280.987 269.5,282.5C 269.833,283.5 270.5,284.167 271.5,284.5C 272.914,286.598 272.248,287.598 269.5,287.5C 268.833,286.167 267.833,285.167 266.5,284.5C 265.469,283.751 264.302,283.085 263,282.5C 262.308,281.563 262.475,280.897 263.5,280.5C 265.027,280.573 266.027,279.906 266.5,278.5 Z"/></g>
<g><path style="opacity:1" fill="#5d7f39" d="M 273.5,272.5 C 274.963,276.208 276.63,279.874 278.5,283.5C 276.887,283.056 275.72,282.056 275,280.5C 274.691,281.766 274.191,282.933 273.5,284C 275.473,284.495 277.473,284.662 279.5,284.5C 281.806,284.993 284.139,285.326 286.5,285.5C 285.909,286.151 285.243,286.818 284.5,287.5C 281.553,288.321 278.553,288.821 275.5,289C 280.958,292.064 280.624,293.064 274.5,292C 276.918,294.31 276.252,294.976 272.5,294C 270.807,293.153 269.14,292.32 267.5,291.5C 266.209,289.41 266.876,288.076 269.5,287.5C 272.248,287.598 272.914,286.598 271.5,284.5C 271.782,280.426 272.448,276.426 273.5,272.5 Z"/></g>
<g><path style="opacity:1" fill="#cbcdbd" d="M 266.5,284.5 C 267.833,285.167 268.833,286.167 269.5,287.5C 266.876,288.076 266.209,289.41 267.5,291.5C 266.833,291.5 266.5,291.833 266.5,292.5C 265.085,291.711 263.585,291.044 262,290.5C 260.97,290.836 260.47,291.503 260.5,292.5C 259.778,291.449 258.778,290.782 257.5,290.5C 257.795,288.577 258.628,286.91 260,285.5C 262.937,288.155 265.104,287.822 266.5,284.5 Z"/></g>
<g><path style="opacity:1" fill="#98ac89" d="M 236.5,287.5 C 240.743,289.284 245.076,289.618 249.5,288.5C 249.833,288.5 250.167,288.5 250.5,288.5C 249.909,289.151 249.243,289.818 248.5,290.5C 248.833,290.833 249.167,291.167 249.5,291.5C 251.45,290.628 253.45,289.961 255.5,289.5C 255.672,290.492 255.338,291.158 254.5,291.5C 253.448,291.351 252.448,291.517 251.5,292C 252.451,292.718 252.617,293.551 252,294.5C 250.333,291.833 248.667,291.833 247,294.5C 246.383,293.551 246.549,292.718 247.5,292C 243.616,291.136 239.949,289.97 236.5,288.5C 236.5,288.167 236.5,287.833 236.5,287.5 Z"/></g>
<g><path style="opacity:1" fill="#577935" d="M 225.5,272.5 C 226.234,273.708 226.567,275.041 226.5,276.5C 224.989,278.838 225.323,279.504 227.5,278.5C 227.5,279.833 227.5,281.167 227.5,282.5C 225.089,285.146 225.755,285.812 229.5,284.5C 230.209,285.404 231.209,285.737 232.5,285.5C 232.607,287.903 231.607,289.736 229.5,291C 231.32,290.524 232.987,290.691 234.5,291.5C 231.808,294.343 228.474,295.509 224.5,295C 225.96,294.189 226.293,293.355 225.5,292.5C 217.997,293.726 217.997,292.559 225.5,289C 224.167,288.667 222.833,288.333 221.5,288C 222.672,287.581 223.672,286.915 224.5,286C 220.974,286.046 217.474,286.546 214,287.5C 212.624,286.295 211.458,284.962 210.5,283.5C 212.857,283.663 215.19,283.497 217.5,283C 219.314,280.521 220.981,278.021 222.5,275.5C 222.708,277.92 222.374,280.253 221.5,282.5C 222.325,283.386 223.325,283.719 224.5,283.5C 224.185,279.629 224.518,275.962 225.5,272.5 Z"/></g>
<g><path style="opacity:1" fill="#5a7c3e" d="M 266.5,292.5 C 268.138,293.657 269.804,294.824 271.5,296C 267.298,296.568 263.631,295.401 260.5,292.5C 260.47,291.503 260.97,290.836 262,290.5C 263.585,291.044 265.085,291.711 266.5,292.5 Z"/></g>
</svg>
