<?xml version="1.0" encoding="UTF-8"?>
<!DOCTYPE svg PUBLIC "-//W3C//DTD SVG 1.1//EN" "http://www.w3.org/Graphics/SVG/1.1/DTD/svg11.dtd">
<svg xmlns="http://www.w3.org/2000/svg" version="1.1" width="500px" height="500px" style="shape-rendering:geometricPrecision; text-rendering:geometricPrecision; image-rendering:optimizeQuality; fill-rule:evenodd; clip-rule:evenodd" xmlns:xlink="http://www.w3.org/1999/xlink">
<g><path style="opacity:0.995" fill="#cd1125" d="M 225.5,-0.5 C 233.5,-0.5 241.5,-0.5 249.5,-0.5C 249.5,82.8333 249.5,166.167 249.5,249.5C 249.5,332.833 249.5,416.167 249.5,499.5C 241.167,499.5 232.833,499.5 224.5,499.5C 132.596,487.072 65.4294,439.739 23,357.5C 10.7506,330.604 2.91724,302.604 -0.5,273.5C -0.5,257.5 -0.5,241.5 -0.5,225.5C 11.4543,135.075 57.4543,68.242 137.5,25C 165.514,11.5012 194.847,3.00119 225.5,-0.5 Z"/></g>
<g><path style="opacity:0.995" fill="#fbd016" d="M 249.5,-0.5 C 257.5,-0.5 265.5,-0.5 273.5,-0.5C 362.269,10.9489 428.436,55.6156 472,133.5C 486.559,162.333 495.726,192.666 499.5,224.5C 499.5,232.833 499.5,241.167 499.5,249.5C 416.167,249.5 332.833,249.5 249.5,249.5C 249.5,166.167 249.5,82.8333 249.5,-0.5 Z"/></g>
<g><path style="opacity:1" fill="#040000" d="M 82.5,167.5 C 89.3974,185.522 95.7308,203.855 101.5,222.5C 121.492,223.333 141.492,223.833 161.5,224C 146.833,234.667 132.167,245.333 117.5,256C 115.878,257.295 114.545,258.795 113.5,260.5C 119.869,279.102 125.703,297.769 131,316.5C 115.098,304.466 98.9317,292.799 82.5,281.5C 66.526,292.974 50.6927,304.64 35,316.5C 39.9977,297.501 45.831,278.668 52.5,260C 36.5308,248.009 20.5308,236.009 4.5,224C 24.4972,223.5 44.4972,223.333 64.5,223.5C 70.2997,204.767 76.2997,186.101 82.5,167.5 Z"/></g>
<g><path style="opacity:0.995" fill="#009d48" d="M 249.5,249.5 C 332.833,249.5 416.167,249.5 499.5,249.5C 499.5,257.833 499.5,266.167 499.5,274.5C 487.764,361.841 443.764,427.341 367.5,471C 338.093,486.083 307.093,495.583 274.5,499.5C 266.167,499.5 257.833,499.5 249.5,499.5C 249.5,416.167 249.5,332.833 249.5,249.5 Z"/></g>
</svg>
