<?xml version="1.0" encoding="UTF-8"?>
<!DOCTYPE svg PUBLIC "-//W3C//DTD SVG 1.1//EN" "http://www.w3.org/Graphics/SVG/1.1/DTD/svg11.dtd">
<svg xmlns="http://www.w3.org/2000/svg" version="1.1" width="500px" height="500px" style="shape-rendering:geometricPrecision; text-rendering:geometricPrecision; image-rendering:optimizeQuality; fill-rule:evenodd; clip-rule:evenodd" xmlns:xlink="http://www.w3.org/1999/xlink">
<g><path style="opacity:0.992" fill="#019e49" d="M 225.5,-0.5 C 241.5,-0.5 257.5,-0.5 273.5,-0.5C 358.119,10.3302 422.619,51.9969 467,124.5C 480.086,147.342 489.253,171.676 494.5,197.5C 353.824,156.271 213.491,114.271 73.5,71.5C 115.832,30.3383 166.498,6.33828 225.5,-0.5 Z"/></g>
<g><path style="opacity:0.997" fill="#fefefc" d="M 73.5,71.5 C 213.491,114.271 353.824,156.271 494.5,197.5C 496.368,205.04 497.701,212.706 498.5,220.5C 351.25,177.272 204.25,133.272 57.5,88.5C 62.1477,82.2189 67.4811,76.5522 73.5,71.5 Z"/></g>
<g><path style="opacity:0.999" fill="#fbd016" d="M 57.5,88.5 C 204.25,133.272 351.25,177.272 498.5,220.5C 498.232,222.099 498.566,223.432 499.5,224.5C 499.5,241.167 499.5,257.833 499.5,274.5C 498.566,275.568 498.232,276.901 498.5,278.5C 351.353,322.036 204.353,366.036 57.5,410.5C 49.0902,400.415 41.4235,389.748 34.5,378.5C 106.138,336.014 177.471,293.014 248.5,249.5C 177.442,206.307 106.109,163.641 34.5,121.5C 40.9726,109.69 48.6393,98.6896 57.5,88.5 Z"/></g>
<g><path style="opacity:0.997" fill="#020100" d="M 34.5,121.5 C 106.109,163.641 177.442,206.307 248.5,249.5C 177.471,293.014 106.138,336.014 34.5,378.5C 30.5,371.167 26.5,363.833 22.5,356.5C 82.1373,321.348 141.471,285.681 200.5,249.5C 142.167,214.333 83.8333,179.167 25.5,144C 24.552,143.517 23.552,143.351 22.5,143.5C 25.9933,135.843 29.9933,128.51 34.5,121.5 Z"/></g>
<g><path style="opacity:0.994" fill="#cd1025" d="M 22.5,143.5 C 23.552,143.351 24.552,143.517 25.5,144C 83.8333,179.167 142.167,214.333 200.5,249.5C 141.471,285.681 82.1373,321.348 22.5,356.5C 10.5238,329.921 2.85718,302.255 -0.5,273.5C -0.5,257.5 -0.5,241.5 -0.5,225.5C 2.66256,196.998 10.3292,169.665 22.5,143.5 Z"/></g>
<g><path style="opacity:0.997" fill="#fefefc" d="M 498.5,278.5 C 497.906,286.329 496.573,293.995 494.5,301.5C 354.02,343.036 213.687,385.036 73.5,427.5C 67.4623,422.463 62.1289,416.797 57.5,410.5C 204.353,366.036 351.353,322.036 498.5,278.5 Z"/></g>
<g><path style="opacity:0.992" fill="#019e49" d="M 494.5,301.5 C 479.23,369.578 442.563,422.744 384.5,461C 350.659,482.096 313.992,494.929 274.5,499.5C 257.833,499.5 241.167,499.5 224.5,499.5C 173.539,493.463 128.205,474.296 88.5,442C 83.0407,437.611 78.0407,432.778 73.5,427.5C 213.687,385.036 354.02,343.036 494.5,301.5 Z"/></g>
</svg>
