<?xml version="1.0" encoding="UTF-8"?>
<!DOCTYPE svg PUBLIC "-//W3C//DTD SVG 1.1//EN" "http://www.w3.org/Graphics/SVG/1.1/DTD/svg11.dtd">
<svg xmlns="http://www.w3.org/2000/svg" version="1.1" width="500px" height="500px" style="shape-rendering:geometricPrecision; text-rendering:geometricPrecision; image-rendering:optimizeQuality; fill-rule:evenodd; clip-rule:evenodd" xmlns:xlink="http://www.w3.org/1999/xlink">
<g><path style="opacity:0.994" fill="#001f9e" d="M 225.5,-0.5 C 241.5,-0.5 257.5,-0.5 273.5,-0.5C 362.269,10.9489 428.436,55.6156 472,133.5C 486.559,162.333 495.726,192.666 499.5,224.5C 499.5,232.833 499.5,241.167 499.5,249.5C 442.5,249.5 385.5,249.5 328.5,249.5C 328.5,228.5 328.5,207.5 328.5,186.5C 275.833,186.5 223.167,186.5 170.5,186.5C 170.5,207.5 170.5,228.5 170.5,249.5C 113.5,249.5 56.5,249.5 -0.5,249.5C -0.5,241.5 -0.5,233.5 -0.5,225.5C 11.4543,135.075 57.4543,68.242 137.5,25C 165.514,11.5012 194.847,3.00119 225.5,-0.5 Z"/></g>
<g><path style="opacity:1" fill="#ccd2eb" d="M 328.5,249.5 C 327.503,229.007 327.169,208.34 327.5,187.5C 275.5,187.5 223.5,187.5 171.5,187.5C 171.831,208.34 171.497,229.007 170.5,249.5C 170.5,228.5 170.5,207.5 170.5,186.5C 223.167,186.5 275.833,186.5 328.5,186.5C 328.5,207.5 328.5,228.5 328.5,249.5 Z"/></g>
<g><path style="opacity:1" fill="#f9f9f9" d="M 328.5,249.5 C 328.5,264.833 328.5,280.167 328.5,295.5C 326.703,294.27 324.703,293.604 322.5,293.5C 322.918,292.778 323.584,292.278 324.5,292C 322.599,289.387 320.265,287.72 317.5,287C 318.582,288.33 319.249,289.83 319.5,291.5C 314.472,290.795 309.805,289.128 305.5,286.5C 306.911,284.086 308.911,282.419 311.5,281.5C 312.806,279.527 314.473,277.861 316.5,276.5C 317.5,276.5 318.5,276.5 319.5,276.5C 319.5,277.5 319.5,278.5 319.5,279.5C 321.857,279.663 324.19,279.497 326.5,279C 324.754,278.529 323.087,277.862 321.5,277C 322.8,275.421 322.466,274.255 320.5,273.5C 320.103,272.475 319.437,272.308 318.5,273C 315.577,275.446 312.577,277.613 309.5,279.5C 307.833,281.833 305.833,283.833 303.5,285.5C 301.102,285.741 299.102,285.074 297.5,283.5C 297.5,283.167 297.5,282.833 297.5,282.5C 298.268,280.285 298.935,277.952 299.5,275.5C 301.5,275.5 303.5,275.5 305.5,275.5C 305.552,273.097 305.219,270.764 304.5,268.5C 301.929,265.165 301.929,261.832 304.5,258.5C 304.62,259.586 305.287,260.253 306.5,260.5C 307.416,260.457 308.083,260.124 308.5,259.5C 309.473,257.708 308.806,256.375 306.5,255.5C 305.596,254.791 305.263,253.791 305.5,252.5C 316.51,244.803 315.51,243.47 302.5,248.5C 300.517,248.157 299.183,248.824 298.5,250.5C 298.5,251.5 298.5,252.5 298.5,253.5C 297.391,253.557 296.391,253.89 295.5,254.5C 296.207,251.214 296.54,247.881 296.5,244.5C 297.268,245.263 297.768,246.263 298,247.5C 298.995,246.934 299.828,246.267 300.5,245.5C 301.043,245.44 301.376,245.107 301.5,244.5C 300.143,242.814 298.81,241.148 297.5,239.5C 298.679,237.02 300.679,234.52 303.5,232C 299.869,232.316 296.535,233.482 293.5,235.5C 291.821,235.285 290.821,235.952 290.5,237.5C 289.375,238.348 289.375,239.348 290.5,240.5C 289.395,241.6 288.062,242.267 286.5,242.5C 286.5,240.833 286.5,239.167 286.5,237.5C 287.167,237.167 287.833,236.833 288.5,236.5C 288.96,233.905 287.626,232.238 284.5,231.5C 284.5,231.167 284.5,230.833 284.5,230.5C 286.576,227.898 288.576,225.064 290.5,222C 286.956,222.779 283.956,224.613 281.5,227.5C 279.302,227.12 277.635,227.787 276.5,229.5C 276.733,231.062 277.4,232.395 278.5,233.5C 275.5,235.833 272.833,238.5 270.5,241.5C 269.957,241.44 269.624,241.107 269.5,240.5C 273.714,228.937 272.881,228.603 267,239.5C 266.282,240.451 265.449,240.617 264.5,240C 265.982,235.59 266.816,231.09 267,226.5C 265.167,230.167 263.333,233.833 261.5,237.5C 260.351,234.522 260.351,231.522 261.5,228.5C 261.518,226.627 261.018,226.294 260,227.5C 259.005,231.145 258.172,234.812 257.5,238.5C 255.554,241.398 254.221,244.731 253.5,248.5C 253.167,248.5 252.833,248.5 252.5,248.5C 252.451,241.151 252.118,233.817 251.5,226.5C 252.441,229.125 253.607,229.125 255,226.5C 255.333,227.833 255.667,229.167 256,230.5C 257.009,228.975 257.509,227.308 257.5,225.5C 258.833,223.833 260.167,222.167 261.5,220.5C 261.435,220.938 261.601,221.272 262,221.5C 262.881,219.726 264.047,219.06 265.5,219.5C 264.627,217.587 263.627,215.753 262.5,214C 263.793,213.51 265.127,213.343 266.5,213.5C 266.5,214.5 266.5,215.5 266.5,216.5C 269.649,216.789 272.649,216.289 275.5,215C 274.944,214.617 274.611,214.117 274.5,213.5C 275.167,213.5 275.833,213.5 276.5,213.5C 277.688,212.316 278.855,212.316 280,213.5C 280.667,212.5 280.667,211.5 280,210.5C 277.325,207.609 274.158,205.443 270.5,204C 274.322,204.502 278.322,205.002 282.5,205.5C 283.293,204.645 282.96,203.811 281.5,203C 280.167,202.333 278.833,201.667 277.5,201C 271.806,200.616 266.14,200.616 260.5,201C 264.388,199.622 268.388,198.622 272.5,198C 273.833,197.333 273.833,196.667 272.5,196C 268.594,194.566 264.594,194.233 260.5,195C 256.968,196.928 253.634,199.095 250.5,201.5C 250.5,200.167 250.5,198.833 250.5,197.5C 251.5,197.5 252.5,197.5 253.5,197.5C 253.5,196.5 253.5,195.5 253.5,194.5C 254.168,189.839 252.168,187.839 247.5,188.5C 247.5,189.833 247.5,191.167 247.5,192.5C 245.977,194.586 246.31,196.252 248.5,197.5C 248.5,198.833 248.5,200.167 248.5,201.5C 242.849,196.173 236.183,194.006 228.5,195C 226.321,195.442 225.655,196.442 226.5,198C 230.305,198.534 233.971,199.534 237.5,201C 232.203,200.562 226.87,200.562 221.5,201C 218.977,201.518 216.977,202.852 215.5,205C 218.117,204.957 220.95,205.123 224,205.5C 225.067,203.717 226.567,203.217 228.5,204C 226.044,205.711 223.377,207.044 220.5,208C 218.964,209.599 218.464,211.433 219,213.5C 220.533,213.056 222.033,212.723 223.5,212.5C 224.281,211.271 224.781,209.938 225,208.5C 225.333,209.167 225.667,209.833 226,210.5C 226.816,209.177 227.983,208.511 229.5,208.5C 230.791,208.263 231.791,208.596 232.5,209.5C 229.139,210.684 226.139,212.517 223.5,215C 226.885,217.074 229.885,216.907 232.5,214.5C 233.5,214.5 234.5,214.5 235.5,214.5C 235.08,216.094 234.414,217.594 233.5,219C 233.667,219.5 233.833,220 234,220.5C 235.461,220.063 236.628,220.063 237.5,220.5C 238.833,222.167 240.167,223.833 241.5,225.5C 241.947,231.176 242.781,231.509 244,226.5C 244.708,227.381 245.542,228.047 246.5,228.5C 245.812,234.134 245.312,239.801 245,245.5C 244.392,243.846 243.892,242.179 243.5,240.5C 241.071,236.167 239.238,231.501 238,226.5C 238.497,230.321 238.331,233.987 237.5,237.5C 237.167,237.5 236.833,237.5 236.5,237.5C 235.269,234.039 233.769,230.706 232,227.5C 232.128,231.756 232.961,235.922 234.5,240C 233.004,240.507 231.837,240.007 231,238.5C 229.92,236.004 228.586,233.67 227,231.5C 227.29,234.551 228.123,237.551 229.5,240.5C 229.376,241.107 229.043,241.44 228.5,241.5C 226.167,238.5 223.5,235.833 220.5,233.5C 221.6,232.395 222.267,231.062 222.5,229.5C 221.365,227.787 219.698,227.12 217.5,227.5C 216.652,226.375 215.652,226.375 214.5,227.5C 213.375,228.652 213.375,229.652 214.5,230.5C 214.167,231.167 213.833,231.833 213.5,232.5C 210.668,232.942 209.668,234.275 210.5,236.5C 211.167,236.833 211.833,237.167 212.5,237.5C 212.5,239.167 212.5,240.833 212.5,242.5C 210.938,242.267 209.605,241.6 208.5,240.5C 209.625,239.348 209.625,238.348 208.5,237.5C 208.027,236.094 207.027,235.427 205.5,235.5C 202.331,233.833 198.998,232.666 195.5,232C 197.085,234.744 199.085,236.911 201.5,238.5C 201.5,238.833 201.5,239.167 201.5,239.5C 200.542,240.962 199.376,242.295 198,243.5C 197.308,244.437 197.475,245.103 198.5,245.5C 198.735,246.097 199.235,246.43 200,246.5C 201.011,245.944 201.844,245.278 202.5,244.5C 202.5,247.5 202.5,250.5 202.5,253.5C 201.833,253.5 201.167,253.5 200.5,253.5C 200.5,252.167 200.5,250.833 200.5,249.5C 199.432,248.566 198.099,248.232 196.5,248.5C 184.989,244.932 183.989,246.265 193.5,252.5C 193.5,252.833 193.5,253.167 193.5,253.5C 191.946,254.914 190.612,256.581 189.5,258.5C 189.855,259.522 190.522,260.189 191.5,260.5C 192.791,260.737 193.791,260.404 194.5,259.5C 195.117,259.611 195.617,259.944 196,260.5C 196.497,263.146 196.664,265.813 196.5,268.5C 194.771,269.953 193.771,271.953 193.5,274.5C 195.396,275.466 197.396,275.799 199.5,275.5C 200.299,278.43 200.632,281.43 200.5,284.5C 198.784,284.629 197.117,284.962 195.5,285.5C 193.167,283.833 191.167,281.833 189.5,279.5C 186.423,277.613 183.423,275.446 180.5,273C 179.563,272.308 178.897,272.475 178.5,273.5C 176.534,274.255 176.2,275.421 177.5,277C 175.608,277.973 173.608,278.64 171.5,279C 174.146,279.497 176.813,279.664 179.5,279.5C 179.285,277.821 179.952,276.821 181.5,276.5C 184.115,277.45 186.115,279.117 187.5,281.5C 190.109,282.443 192.109,284.11 193.5,286.5C 185.97,289.413 178.303,292.079 170.5,294.5C 170.5,279.5 170.5,264.5 170.5,249.5C 171.497,229.007 171.831,208.34 171.5,187.5C 223.5,187.5 275.5,187.5 327.5,187.5C 327.169,208.34 327.503,229.007 328.5,249.5 Z"/></g>
<g><path style="opacity:1" fill="#27398f" d="M 253.5,194.5 C 251.858,192.919 249.858,192.253 247.5,192.5C 247.5,191.167 247.5,189.833 247.5,188.5C 252.168,187.839 254.168,189.839 253.5,194.5 Z"/></g>
<g><path style="opacity:1" fill="#c8101c" d="M 247.5,192.5 C 249.858,192.253 251.858,192.919 253.5,194.5C 253.5,195.5 253.5,196.5 253.5,197.5C 252.5,197.5 251.5,197.5 250.5,197.5C 249.833,196.167 249.167,196.167 248.5,197.5C 246.31,196.252 245.977,194.586 247.5,192.5 Z"/></g>
<g><path style="opacity:1" fill="#105c18" d="M 248.5,201.5 C 249.167,208.167 249.833,208.167 250.5,201.5C 253.634,199.095 256.968,196.928 260.5,195C 264.594,194.233 268.594,194.566 272.5,196C 273.833,196.667 273.833,197.333 272.5,198C 268.388,198.622 264.388,199.622 260.5,201C 266.14,200.616 271.806,200.616 277.5,201C 278.833,201.667 280.167,202.333 281.5,203C 282.96,203.811 283.293,204.645 282.5,205.5C 278.322,205.002 274.322,204.502 270.5,204C 274.158,205.443 277.325,207.609 280,210.5C 280.667,211.5 280.667,212.5 280,213.5C 278.855,212.316 277.688,212.316 276.5,213.5C 275.168,212.17 274.335,210.503 274,208.5C 273.667,209.167 273.333,209.833 273,210.5C 272.097,209.299 270.931,208.465 269.5,208C 266.204,207.543 263.037,206.709 260,205.5C 259.409,206.483 259.743,207.15 261,207.5C 265.729,209.117 270.229,211.117 274.5,213.5C 274.611,214.117 274.944,214.617 275.5,215C 272.649,216.289 269.649,216.789 266.5,216.5C 266.5,215.5 266.5,214.5 266.5,213.5C 262.097,212.296 258.263,209.963 255,206.5C 254.308,207.025 253.808,207.692 253.5,208.5C 254.428,209.768 254.595,211.101 254,212.5C 253.333,209.833 252.667,209.833 252,212.5C 249.686,208.547 247.853,208.88 246.5,213.5C 247.574,216.118 246.907,218.285 244.5,220C 245.711,221.578 247.045,221.745 248.5,220.5C 247.529,219.038 247.862,217.705 249.5,216.5C 250.287,217.242 250.953,218.075 251.5,219C 250.289,220.113 250.289,221.28 251.5,222.5C 249.286,223.041 247.12,223.374 245,223.5C 244.026,221.122 243.359,221.456 243,224.5C 241.731,223.095 241.231,221.429 241.5,219.5C 242.953,218.175 242.619,217.342 240.5,217C 242.625,215.263 243.458,213.096 243,210.5C 240.875,213.601 239.042,216.935 237.5,220.5C 236.628,220.063 235.461,220.063 234,220.5C 233.833,220 233.667,219.5 233.5,219C 234.414,217.594 235.08,216.094 235.5,214.5C 237.317,213.781 237.984,212.781 237.5,211.5C 235.241,211.784 233.574,212.784 232.5,214.5C 229.885,216.907 226.885,217.074 223.5,215C 226.139,212.517 229.139,210.684 232.5,209.5C 234.267,208.744 236.1,208.077 238,207.5C 239.257,207.15 239.591,206.483 239,205.5C 235.687,206.32 232.521,207.32 229.5,208.5C 227.983,208.511 226.816,209.177 226,210.5C 225.667,209.833 225.333,209.167 225,208.5C 224.781,209.938 224.281,211.271 223.5,212.5C 222.033,212.723 220.533,213.056 219,213.5C 218.464,211.433 218.964,209.599 220.5,208C 223.377,207.044 226.044,205.711 228.5,204C 226.567,203.217 225.067,203.717 224,205.5C 220.95,205.123 218.117,204.957 215.5,205C 216.977,202.852 218.977,201.518 221.5,201C 226.87,200.562 232.203,200.562 237.5,201C 233.971,199.534 230.305,198.534 226.5,198C 225.655,196.442 226.321,195.442 228.5,195C 236.183,194.006 242.849,196.173 248.5,201.5 Z"/></g>
<g><path style="opacity:1" fill="#5b695c" d="M 232.5,209.5 C 231.791,208.596 230.791,208.263 229.5,208.5C 232.521,207.32 235.687,206.32 239,205.5C 239.591,206.483 239.257,207.15 238,207.5C 236.1,208.077 234.267,208.744 232.5,209.5 Z"/></g>
<g><path style="opacity:1" fill="#a78118" d="M 250.5,197.5 C 250.5,198.833 250.5,200.167 250.5,201.5C 249.833,208.167 249.167,208.167 248.5,201.5C 248.5,200.167 248.5,198.833 248.5,197.5C 249.167,196.167 249.833,196.167 250.5,197.5 Z"/></g>
<g><path style="opacity:1" fill="#aaafaa" d="M 276.5,213.5 C 275.833,213.5 275.167,213.5 274.5,213.5C 270.229,211.117 265.729,209.117 261,207.5C 259.743,207.15 259.409,206.483 260,205.5C 263.037,206.709 266.204,207.543 269.5,208C 270.931,208.465 272.097,209.299 273,210.5C 273.333,209.833 273.667,209.167 274,208.5C 274.335,210.503 275.168,212.17 276.5,213.5 Z"/></g>
<g><path style="opacity:1" fill="#124d16" d="M 266.5,213.5 C 265.127,213.343 263.793,213.51 262.5,214C 263.627,215.753 264.627,217.587 265.5,219.5C 264.047,219.06 262.881,219.726 262,221.5C 261.601,221.272 261.435,220.938 261.5,220.5C 259.958,216.935 258.125,213.601 256,210.5C 255.542,213.096 256.375,215.263 258.5,217C 257.833,217.333 257.167,217.667 256.5,218C 258.715,220.242 259.048,222.742 257.5,225.5C 257.509,227.308 257.009,228.975 256,230.5C 255.667,229.167 255.333,227.833 255,226.5C 253.607,229.125 252.441,229.125 251.5,226.5C 248.833,223.803 247.166,224.469 246.5,228.5C 245.542,228.047 244.708,227.381 244,226.5C 242.781,231.509 241.947,231.176 241.5,225.5C 240.258,223.389 240.258,221.389 241.5,219.5C 241.231,221.429 241.731,223.095 243,224.5C 243.359,221.456 244.026,221.122 245,223.5C 247.12,223.374 249.286,223.041 251.5,222.5C 250.289,221.28 250.289,220.113 251.5,219C 250.953,218.075 250.287,217.242 249.5,216.5C 247.862,217.705 247.529,219.038 248.5,220.5C 247.045,221.745 245.711,221.578 244.5,220C 246.907,218.285 247.574,216.118 246.5,213.5C 247.853,208.88 249.686,208.547 252,212.5C 252.667,209.833 253.333,209.833 254,212.5C 254.595,211.101 254.428,209.768 253.5,208.5C 253.808,207.692 254.308,207.025 255,206.5C 258.263,209.963 262.097,212.296 266.5,213.5 Z"/></g>
<g><path style="opacity:1" fill="#5b615b" d="M 235.5,214.5 C 234.5,214.5 233.5,214.5 232.5,214.5C 233.574,212.784 235.241,211.784 237.5,211.5C 237.984,212.781 237.317,213.781 235.5,214.5 Z"/></g>
<g><path style="opacity:1" fill="#626963" d="M 241.5,219.5 C 240.258,221.389 240.258,223.389 241.5,225.5C 240.167,223.833 238.833,222.167 237.5,220.5C 239.042,216.935 240.875,213.601 243,210.5C 243.458,213.096 242.625,215.263 240.5,217C 242.619,217.342 242.953,218.175 241.5,219.5 Z"/></g>
<g><path style="opacity:1" fill="#686f69" d="M 261.5,220.5 C 260.167,222.167 258.833,223.833 257.5,225.5C 259.048,222.742 258.715,220.242 256.5,218C 257.167,217.667 257.833,217.333 258.5,217C 256.375,215.263 255.542,213.096 256,210.5C 258.125,213.601 259.958,216.935 261.5,220.5 Z"/></g>
<g><path style="opacity:1" fill="#ca9820" d="M 214.5,227.5 C 211.773,226.633 209.773,224.799 208.5,222C 210.417,222.027 212.084,222.861 213.5,224.5C 214.386,225.325 214.719,226.325 214.5,227.5 Z"/></g>
<g><path style="opacity:1" fill="#c5972c" d="M 284.5,230.5 C 283.5,229.833 282.5,229.167 281.5,228.5C 281.5,228.167 281.5,227.833 281.5,227.5C 283.956,224.613 286.956,222.779 290.5,222C 288.576,225.064 286.576,227.898 284.5,230.5 Z"/></g>
<g><path style="opacity:1" fill="#e7ac11" d="M 217.5,227.5 C 217.5,227.833 217.5,228.167 217.5,228.5C 216.5,229.167 215.5,229.833 214.5,230.5C 213.375,229.652 213.375,228.652 214.5,227.5C 215.652,226.375 216.652,226.375 217.5,227.5 Z"/></g>
<g><path style="opacity:1" fill="#453f89" d="M 217.5,227.5 C 219.698,227.12 221.365,227.787 222.5,229.5C 220.414,231.023 218.748,230.69 217.5,228.5C 217.5,228.167 217.5,227.833 217.5,227.5 Z"/></g>
<g><path style="opacity:1" fill="#443d86" d="M 281.5,227.5 C 281.5,227.833 281.5,228.167 281.5,228.5C 280.252,230.69 278.586,231.023 276.5,229.5C 277.635,227.787 279.302,227.12 281.5,227.5 Z"/></g>
<g><path style="opacity:1" fill="#cf1b1b" d="M 217.5,228.5 C 218.748,230.69 220.414,231.023 222.5,229.5C 222.267,231.062 221.6,232.395 220.5,233.5C 220.167,233.5 219.833,233.5 219.5,233.5C 218.735,233.077 217.902,232.743 217,232.5C 215.287,234.043 213.787,235.709 212.5,237.5C 211.833,237.167 211.167,236.833 210.5,236.5C 211.5,235.167 212.5,233.833 213.5,232.5C 213.833,231.833 214.167,231.167 214.5,230.5C 215.5,229.833 216.5,229.167 217.5,228.5 Z"/></g>
<g><path style="opacity:1" fill="#d11416" d="M 281.5,228.5 C 282.5,229.167 283.5,229.833 284.5,230.5C 284.5,230.833 284.5,231.167 284.5,231.5C 285.833,233.167 287.167,234.833 288.5,236.5C 287.833,236.833 287.167,237.167 286.5,237.5C 285.213,235.709 283.713,234.043 282,232.5C 281.098,232.743 280.265,233.077 279.5,233.5C 279.167,233.5 278.833,233.5 278.5,233.5C 277.4,232.395 276.733,231.062 276.5,229.5C 278.586,231.023 280.252,230.69 281.5,228.5 Z"/></g>
<g><path style="opacity:1" fill="#54498c" d="M 284.5,231.5 C 287.626,232.238 288.96,233.905 288.5,236.5C 287.167,234.833 285.833,233.167 284.5,231.5 Z"/></g>
<g><path style="opacity:1" fill="#53286a" d="M 213.5,232.5 C 212.5,233.833 211.5,235.167 210.5,236.5C 209.668,234.275 210.668,232.942 213.5,232.5 Z"/></g>
<g><path style="opacity:1" fill="#c79725" d="M 205.5,235.5 C 205.5,236.167 205.167,236.5 204.5,236.5C 203.5,237.167 202.5,237.833 201.5,238.5C 199.085,236.911 197.085,234.744 195.5,232C 198.998,232.666 202.331,233.833 205.5,235.5 Z"/></g>
<g><path style="opacity:1" fill="#152f83" d="M 219.5,233.5 C 223.46,238.795 227.793,243.795 232.5,248.5C 230.233,251.2 229.9,254.2 231.5,257.5C 224.855,252.85 218.522,247.85 212.5,242.5C 212.5,240.833 212.5,239.167 212.5,237.5C 213.787,235.709 215.287,234.043 217,232.5C 217.902,232.743 218.735,233.077 219.5,233.5 Z"/></g>
<g><path style="opacity:1" fill="#162f84" d="M 286.5,237.5 C 286.5,239.167 286.5,240.833 286.5,242.5C 280.146,248.183 273.48,253.516 266.5,258.5C 267.156,256.516 267.822,254.516 268.5,252.5C 268.248,250.927 267.582,249.594 266.5,248.5C 271.207,243.795 275.54,238.795 279.5,233.5C 280.265,233.077 281.098,232.743 282,232.5C 283.713,234.043 285.213,235.709 286.5,237.5 Z"/></g>
<g><path style="opacity:1" fill="#c09225" d="M 297.5,239.5 C 297.167,239.5 296.833,239.5 296.5,239.5C 296.5,238.167 295.833,237.5 294.5,237.5C 294.167,236.833 293.833,236.167 293.5,235.5C 296.535,233.482 299.869,232.316 303.5,232C 300.679,234.52 298.679,237.02 297.5,239.5 Z"/></g>
<g><path style="opacity:1" fill="#9a958c" d="M 243.5,240.5 C 242.105,238.946 241.439,239.279 241.5,241.5C 242.596,245.134 243.096,248.801 243,252.5C 241.457,247.367 239.623,242.367 237.5,237.5C 238.331,233.987 238.497,230.321 238,226.5C 239.238,231.501 241.071,236.167 243.5,240.5 Z"/></g>
<g><path style="opacity:1" fill="#542a6e" d="M 205.5,235.5 C 207.027,235.427 208.027,236.094 208.5,237.5C 208.083,238.124 207.416,238.457 206.5,238.5C 205.287,238.253 204.62,237.586 204.5,236.5C 205.167,236.5 205.5,236.167 205.5,235.5 Z"/></g>
<g><path style="opacity:1" fill="#542d72" d="M 293.5,235.5 C 293.833,236.167 294.167,236.833 294.5,237.5C 293.167,238.833 291.833,238.833 290.5,237.5C 290.821,235.952 291.821,235.285 293.5,235.5 Z"/></g>
<g><path style="opacity:1" fill="#cf1f21" d="M 204.5,236.5 C 204.62,237.586 205.287,238.253 206.5,238.5C 207.416,238.457 208.083,238.124 208.5,237.5C 209.625,238.348 209.625,239.348 208.5,240.5C 207.833,240.5 207.5,240.833 207.5,241.5C 205.64,240.929 203.973,240.929 202.5,241.5C 202.672,240.508 202.338,239.842 201.5,239.5C 201.5,239.167 201.5,238.833 201.5,238.5C 202.5,237.833 203.5,237.167 204.5,236.5 Z"/></g>
<g><path style="opacity:1" fill="#d21d18" d="M 290.5,237.5 C 291.833,238.833 293.167,238.833 294.5,237.5C 295.833,237.5 296.5,238.167 296.5,239.5C 296.5,240.167 296.5,240.833 296.5,241.5C 294.612,240.725 292.612,240.725 290.5,241.5C 290.5,241.167 290.5,240.833 290.5,240.5C 289.375,239.348 289.375,238.348 290.5,237.5 Z"/></g>
<g><path style="opacity:1" fill="#143084" d="M 207.5,241.5 C 214.48,246.484 221.146,251.817 227.5,257.5C 225.787,258.635 225.12,260.302 225.5,262.5C 225.179,264.048 224.179,264.715 222.5,264.5C 215.504,261.337 208.838,257.671 202.5,253.5C 202.5,250.5 202.5,247.5 202.5,244.5C 202.5,243.5 202.5,242.5 202.5,241.5C 203.973,240.929 205.64,240.929 207.5,241.5 Z"/></g>
<g><path style="opacity:1" fill="#adaba7" d="M 236.5,237.5 C 237.856,244.057 239.689,250.39 242,256.5C 239.26,252.024 236.76,247.357 234.5,242.5C 233.998,241.479 233.332,241.312 232.5,242C 233.638,243.734 234.138,245.568 234,247.5C 231.96,245.63 230.127,243.63 228.5,241.5C 229.043,241.44 229.376,241.107 229.5,240.5C 228.123,237.551 227.29,234.551 227,231.5C 228.586,233.67 229.92,236.004 231,238.5C 231.837,240.007 233.004,240.507 234.5,240C 232.961,235.922 232.128,231.756 232,227.5C 233.769,230.706 235.269,234.039 236.5,237.5 Z"/></g>
<g><path style="opacity:1" fill="#a6a39e" d="M 270.5,241.5 C 268.873,243.63 267.04,245.63 265,247.5C 264.862,245.568 265.362,243.734 266.5,242C 265.668,241.312 265.002,241.479 264.5,242.5C 262.24,247.357 259.74,252.024 257,256.5C 257.897,252.474 259.231,248.474 261,244.5C 261.667,242.5 261.667,240.5 261,238.5C 258.948,242.613 257.448,246.946 256.5,251.5C 256.167,251.5 255.833,251.5 255.5,251.5C 256.327,247.193 256.993,242.86 257.5,238.5C 258.172,234.812 259.005,231.145 260,227.5C 261.018,226.294 261.518,226.627 261.5,228.5C 260.351,231.522 260.351,234.522 261.5,237.5C 263.333,233.833 265.167,230.167 267,226.5C 266.816,231.09 265.982,235.59 264.5,240C 265.449,240.617 266.282,240.451 267,239.5C 272.881,228.603 273.714,228.937 269.5,240.5C 269.624,241.107 269.957,241.44 270.5,241.5 Z"/></g>
<g><path style="opacity:1" fill="#102f86" d="M 296.5,241.5 C 296.5,242.5 296.5,243.5 296.5,244.5C 296.54,247.881 296.207,251.214 295.5,254.5C 293.167,255.833 290.833,257.167 288.5,258.5C 287.833,258.5 287.5,258.833 287.5,259.5C 282.792,261.524 278.126,263.524 273.5,265.5C 273.663,263.143 273.497,260.81 273,258.5C 272.617,257.944 272.117,257.611 271.5,257.5C 277.833,252.167 284.167,246.833 290.5,241.5C 292.612,240.725 294.612,240.725 296.5,241.5 Z"/></g>
<g><path style="opacity:1" fill="#6c295f" d="M 201.5,239.5 C 202.338,239.842 202.672,240.508 202.5,241.5C 200.833,242.5 199.5,243.833 198.5,245.5C 197.475,245.103 197.308,244.437 198,243.5C 199.376,242.295 200.542,240.962 201.5,239.5 Z"/></g>
<g><path style="opacity:1" fill="#5d326e" d="M 296.5,239.5 C 296.833,239.5 297.167,239.5 297.5,239.5C 298.81,241.148 300.143,242.814 301.5,244.5C 301.376,245.107 301.043,245.44 300.5,245.5C 299.5,243.833 298.167,242.5 296.5,241.5C 296.5,240.833 296.5,240.167 296.5,239.5 Z"/></g>
<g><path style="opacity:1" fill="#d40b16" d="M 202.5,241.5 C 202.5,242.5 202.5,243.5 202.5,244.5C 201.844,245.278 201.011,245.944 200,246.5C 199.235,246.43 198.735,246.097 198.5,245.5C 199.5,243.833 200.833,242.5 202.5,241.5 Z"/></g>
<g><path style="opacity:1" fill="#d71219" d="M 296.5,241.5 C 298.167,242.5 299.5,243.833 300.5,245.5C 299.828,246.267 298.995,246.934 298,247.5C 297.768,246.263 297.268,245.263 296.5,244.5C 296.5,243.5 296.5,242.5 296.5,241.5 Z"/></g>
<g><path style="opacity:1" fill="#cb9817" d="M 257.5,238.5 C 256.993,242.86 256.327,247.193 255.5,251.5C 254.732,252.263 254.232,253.263 254,254.5C 253.505,252.527 253.338,250.527 253.5,248.5C 254.221,244.731 255.554,241.398 257.5,238.5 Z"/></g>
<g><path style="opacity:1" fill="#c49522" d="M 196.5,248.5 C 196.167,249.167 195.833,249.833 195.5,250.5C 194.5,250.833 193.833,251.5 193.5,252.5C 183.989,246.265 184.989,244.932 196.5,248.5 Z"/></g>
<g><path style="opacity:1" fill="#c19429" d="M 305.5,252.5 C 304.728,251.306 303.728,250.306 302.5,249.5C 302.5,249.167 302.5,248.833 302.5,248.5C 315.51,243.47 316.51,244.803 305.5,252.5 Z"/></g>
<g><path style="opacity:1" fill="#2c368b" d="M 302.5,248.5 C 302.5,248.833 302.5,249.167 302.5,249.5C 301.432,250.434 300.099,250.768 298.5,250.5C 299.183,248.824 300.517,248.157 302.5,248.5 Z"/></g>
<g><path style="opacity:1" fill="#21398e" d="M 196.5,248.5 C 198.099,248.232 199.432,248.566 200.5,249.5C 198.958,250.301 197.292,250.634 195.5,250.5C 195.833,249.833 196.167,249.167 196.5,248.5 Z"/></g>
<g><path style="opacity:1" fill="#bf9013" d="M 278.5,233.5 C 278.833,233.5 279.167,233.5 279.5,233.5C 275.54,238.795 271.207,243.795 266.5,248.5C 262.528,252.807 258.528,257.141 254.5,261.5C 253.355,260.207 253.689,259.041 255.5,258C 255.043,257.586 254.709,257.086 254.5,256.5C 255.456,254.925 256.123,253.258 256.5,251.5C 257.448,246.946 258.948,242.613 261,238.5C 261.667,240.5 261.667,242.5 261,244.5C 259.231,248.474 257.897,252.474 257,256.5C 259.74,252.024 262.24,247.357 264.5,242.5C 265.002,241.479 265.668,241.312 266.5,242C 265.362,243.734 264.862,245.568 265,247.5C 267.04,245.63 268.873,243.63 270.5,241.5C 272.833,238.5 275.5,235.833 278.5,233.5 Z"/></g>
<g><path style="opacity:0.995" fill="#d11034" d="M -0.5,249.5 C 56.5,249.5 113.5,249.5 170.5,249.5C 170.5,264.5 170.5,279.5 170.5,294.5C 170.5,300.5 170.5,306.5 170.5,312.5C 223.167,312.5 275.833,312.5 328.5,312.5C 328.5,306.833 328.5,301.167 328.5,295.5C 328.5,280.167 328.5,264.833 328.5,249.5C 385.5,249.5 442.5,249.5 499.5,249.5C 499.5,257.833 499.5,266.167 499.5,274.5C 487.764,361.841 443.764,427.341 367.5,471C 338.093,486.083 307.093,495.583 274.5,499.5C 257.833,499.5 241.167,499.5 224.5,499.5C 132.596,487.072 65.4294,439.739 23,357.5C 10.7506,330.604 2.91724,302.604 -0.5,273.5C -0.5,265.5 -0.5,257.5 -0.5,249.5 Z"/></g>
<g><path style="opacity:1" fill="#c7161f" d="M 200.5,249.5 C 200.5,250.833 200.5,252.167 200.5,253.5C 199.833,253.5 199.5,253.833 199.5,254.5C 197.833,254.5 196.167,254.5 194.5,254.5C 194.5,256.167 194.5,257.833 194.5,259.5C 193.791,260.404 192.791,260.737 191.5,260.5C 191.878,258.079 192.545,255.746 193.5,253.5C 193.5,253.167 193.5,252.833 193.5,252.5C 193.833,251.5 194.5,250.833 195.5,250.5C 197.292,250.634 198.958,250.301 200.5,249.5 Z"/></g>
<g><path style="opacity:1" fill="#bf1312" d="M 232.5,248.5 C 236.138,252.474 239.805,256.474 243.5,260.5C 245.976,263.057 245.976,265.391 243.5,267.5C 239.5,264.167 235.5,260.833 231.5,257.5C 229.9,254.2 230.233,251.2 232.5,248.5 Z"/></g>
<g><path style="opacity:1" fill="#bb8d17" d="M 251.5,226.5 C 252.118,233.817 252.451,241.151 252.5,248.5C 252.5,252.167 252.5,255.833 252.5,259.5C 250.5,259.5 248.5,259.5 246.5,259.5C 246.762,258.022 246.429,256.689 245.5,255.5C 244.83,257.291 244.163,258.958 243.5,260.5C 239.805,256.474 236.138,252.474 232.5,248.5C 227.793,243.795 223.46,238.795 219.5,233.5C 219.833,233.5 220.167,233.5 220.5,233.5C 223.5,235.833 226.167,238.5 228.5,241.5C 230.127,243.63 231.96,245.63 234,247.5C 234.138,245.568 233.638,243.734 232.5,242C 233.332,241.312 233.998,241.479 234.5,242.5C 236.76,247.357 239.26,252.024 242,256.5C 239.689,250.39 237.856,244.057 236.5,237.5C 236.833,237.5 237.167,237.5 237.5,237.5C 239.623,242.367 241.457,247.367 243,252.5C 243.096,248.801 242.596,245.134 241.5,241.5C 241.439,239.279 242.105,238.946 243.5,240.5C 243.892,242.179 244.392,243.846 245,245.5C 245.312,239.801 245.812,234.134 246.5,228.5C 247.166,224.469 248.833,223.803 251.5,226.5 Z"/></g>
<g><path style="opacity:1" fill="#bf0d12" d="M 266.5,248.5 C 267.582,249.594 268.248,250.927 268.5,252.5C 267.822,254.516 267.156,256.516 266.5,258.5C 263.28,260.603 260.28,262.936 257.5,265.5C 252.404,268.022 251.404,266.689 254.5,261.5C 258.528,257.141 262.528,252.807 266.5,248.5 Z"/></g>
<g><path style="opacity:1" fill="#c71621" d="M 302.5,249.5 C 303.728,250.306 304.728,251.306 305.5,252.5C 305.263,253.791 305.596,254.791 306.5,255.5C 306.66,257.153 307.326,258.486 308.5,259.5C 308.083,260.124 307.416,260.457 306.5,260.5C 305.287,260.253 304.62,259.586 304.5,258.5C 304.5,257.167 304.5,255.833 304.5,254.5C 302.833,254.5 301.167,254.5 299.5,254.5C 299.5,253.833 299.167,253.5 298.5,253.5C 298.5,252.5 298.5,251.5 298.5,250.5C 300.099,250.768 301.432,250.434 302.5,249.5 Z"/></g>
<g><path style="opacity:1" fill="#c29418" d="M 290.5,240.5 C 290.5,240.833 290.5,241.167 290.5,241.5C 284.167,246.833 277.833,252.167 271.5,257.5C 266.929,259.738 262.929,262.738 259.5,266.5C 259.167,266.5 258.833,266.5 258.5,266.5C 257.833,266.5 257.5,266.167 257.5,265.5C 260.28,262.936 263.28,260.603 266.5,258.5C 273.48,253.516 280.146,248.183 286.5,242.5C 288.062,242.267 289.395,241.6 290.5,240.5 Z"/></g>
<g><path style="opacity:1" fill="#5a3f81" d="M 193.5,253.5 C 192.545,255.746 191.878,258.079 191.5,260.5C 190.522,260.189 189.855,259.522 189.5,258.5C 190.612,256.581 191.946,254.914 193.5,253.5 Z"/></g>
<g><path style="opacity:1" fill="#122f85" d="M 199.5,254.5 C 203.201,256.012 206.534,258.012 209.5,260.5C 209.738,262.404 210.738,263.738 212.5,264.5C 213.167,266.167 213.833,267.833 214.5,269.5C 208.264,271.114 202.264,270.781 196.5,268.5C 196.664,265.813 196.497,263.146 196,260.5C 195.617,259.944 195.117,259.611 194.5,259.5C 194.5,257.833 194.5,256.167 194.5,254.5C 196.167,254.5 197.833,254.5 199.5,254.5 Z"/></g>
<g><path style="opacity:1" fill="#a9801b" d="M 298.5,253.5 C 299.167,253.5 299.5,253.833 299.5,254.5C 296.167,256.167 292.833,257.833 289.5,259.5C 288.833,259.5 288.5,259.167 288.5,258.5C 290.833,257.167 293.167,255.833 295.5,254.5C 296.391,253.89 297.391,253.557 298.5,253.5 Z"/></g>
<g><path style="opacity:1" fill="#163084" d="M 299.5,254.5 C 301.167,254.5 302.833,254.5 304.5,254.5C 304.5,255.833 304.5,257.167 304.5,258.5C 301.929,261.832 301.929,265.165 304.5,268.5C 300.228,269.49 295.894,270.156 291.5,270.5C 289.236,269.781 286.903,269.448 284.5,269.5C 285.075,267.589 286.075,265.922 287.5,264.5C 288.942,263.18 289.608,261.514 289.5,259.5C 292.833,257.833 296.167,256.167 299.5,254.5 Z"/></g>
<g><path style="opacity:1" fill="#3f3d88" d="M 306.5,255.5 C 308.806,256.375 309.473,257.708 308.5,259.5C 307.326,258.486 306.66,257.153 306.5,255.5 Z"/></g>
<g><path style="opacity:1" fill="#bf1314" d="M 227.5,257.5 C 230.833,259.833 234.167,262.167 237.5,264.5C 237.5,265.5 237.5,266.5 237.5,267.5C 236.957,267.56 236.624,267.893 236.5,268.5C 237.531,269.7 238.365,271.034 239,272.5C 239.816,271.177 240.983,270.511 242.5,270.5C 242.785,272.288 242.452,273.955 241.5,275.5C 237.966,273.234 234.3,271.234 230.5,269.5C 230.989,265.513 229.322,263.18 225.5,262.5C 225.12,260.302 225.787,258.635 227.5,257.5 Z"/></g>
<g><path style="opacity:1" fill="#c11513" d="M 271.5,257.5 C 272.117,257.611 272.617,257.944 273,258.5C 273.497,260.81 273.663,263.143 273.5,265.5C 268.248,268.892 262.748,272.226 257,275.5C 256.506,273.866 256.34,272.199 256.5,270.5C 258.017,270.511 259.184,271.177 260,272.5C 262.014,270.03 261.847,268.03 259.5,266.5C 262.929,262.738 266.929,259.738 271.5,257.5 Z"/></g>
<g><path style="opacity:1" fill="#c9c9c9" d="M 209.5,260.5 C 211.153,260.66 212.486,261.326 213.5,262.5C 213.5,263.167 213.5,263.833 213.5,264.5C 213.167,264.5 212.833,264.5 212.5,264.5C 210.738,263.738 209.738,262.404 209.5,260.5 Z"/></g>
<g><path style="opacity:1" fill="#ae7f13" d="M 287.5,259.5 C 286.833,260.5 286.167,261.5 285.5,262.5C 282.242,263.908 279.076,265.574 276,267.5C 275.771,270.502 277.271,271.835 280.5,271.5C 282.448,273.443 281.782,275.11 278.5,276.5C 278.631,275.761 278.464,275.094 278,274.5C 276.334,275.34 276.167,274.84 277.5,273C 274.965,272.383 272.632,272.883 270.5,274.5C 269.549,273.674 268.549,273.508 267.5,274C 268.337,275.011 268.67,276.178 268.5,277.5C 270.857,277.337 273.19,277.503 275.5,278C 273.753,278.352 272.086,278.852 270.5,279.5C 269.687,278.347 268.687,278.347 267.5,279.5C 266.614,278.675 266.281,277.675 266.5,276.5C 264.549,276.773 263.049,276.107 262,274.5C 260.846,275.743 259.512,276.743 258,277.5C 257.502,280.482 257.335,283.482 257.5,286.5C 258.5,286.5 259.5,286.5 260.5,286.5C 259.891,282.995 261.058,280.328 264,278.5C 264.813,280.436 265.313,282.436 265.5,284.5C 265.539,285.756 265.039,286.756 264,287.5C 263.667,285.833 263.333,284.167 263,282.5C 262.749,284.433 262.249,286.266 261.5,288C 262.056,288.383 262.389,288.883 262.5,289.5C 259.547,289.15 257.213,290.15 255.5,292.5C 255.179,290.952 254.179,290.285 252.5,290.5C 253.047,285.937 254.214,285.604 256,289.5C 256.718,286.593 256.218,283.926 254.5,281.5C 255.289,281.217 255.956,280.717 256.5,280C 256.989,278.448 256.322,277.281 254.5,276.5C 254.833,274.5 255.167,272.5 255.5,270.5C 255.833,270.5 256.167,270.5 256.5,270.5C 256.34,272.199 256.506,273.866 257,275.5C 262.748,272.226 268.248,268.892 273.5,265.5C 278.126,263.524 282.792,261.524 287.5,259.5 Z"/></g>
<g><path style="opacity:1" fill="#c29618" d="M 207.5,241.5 C 207.5,240.833 207.833,240.5 208.5,240.5C 209.605,241.6 210.938,242.267 212.5,242.5C 218.522,247.85 224.855,252.85 231.5,257.5C 235.5,260.833 239.5,264.167 243.5,267.5C 242.833,267.5 242.167,267.5 241.5,267.5C 240.167,266.5 238.833,265.5 237.5,264.5C 234.167,262.167 230.833,259.833 227.5,257.5C 221.146,251.817 214.48,246.484 207.5,241.5 Z"/></g>
<g><path style="opacity:1" fill="#b88b1b" d="M 199.5,254.5 C 199.5,253.833 199.833,253.5 200.5,253.5C 201.167,253.5 201.833,253.5 202.5,253.5C 208.838,257.671 215.504,261.337 222.5,264.5C 223.11,265.391 223.443,266.391 223.5,267.5C 220.14,265.82 216.807,264.153 213.5,262.5C 212.486,261.326 211.153,260.66 209.5,260.5C 206.534,258.012 203.201,256.012 199.5,254.5 Z"/></g>
<g><path style="opacity:1" fill="#bdbab5" d="M 288.5,258.5 C 288.5,259.167 288.833,259.5 289.5,259.5C 289.608,261.514 288.942,263.18 287.5,264.5C 286.833,264.5 286.167,264.5 285.5,264.5C 285.5,263.833 285.5,263.167 285.5,262.5C 286.167,261.5 286.833,260.5 287.5,259.5C 287.5,258.833 287.833,258.5 288.5,258.5 Z"/></g>
<g><path style="opacity:1" fill="#2e1e10" d="M 212.5,264.5 C 212.833,264.5 213.167,264.5 213.5,264.5C 214.833,266.5 216.167,268.5 217.5,270.5C 216.209,270.737 215.209,270.404 214.5,269.5C 213.833,267.833 213.167,266.167 212.5,264.5 Z"/></g>
<g><path style="opacity:1" fill="#152b7d" d="M 213.5,262.5 C 216.807,264.153 220.14,265.82 223.5,267.5C 223.5,268.833 223.5,270.167 223.5,271.5C 221.833,271.5 220.167,271.5 218.5,271.5C 217.833,271.5 217.5,271.167 217.5,270.5C 216.167,268.5 214.833,266.5 213.5,264.5C 213.5,263.833 213.5,263.167 213.5,262.5 Z"/></g>
<g><path style="opacity:1" fill="#0e2d82" d="M 285.5,262.5 C 285.5,263.167 285.5,263.833 285.5,264.5C 284.079,267.009 282.412,269.343 280.5,271.5C 277.271,271.835 275.771,270.502 276,267.5C 279.076,265.574 282.242,263.908 285.5,262.5 Z"/></g>
<g><path style="opacity:1" fill="#6e342d" d="M 237.5,264.5 C 238.833,265.5 240.167,266.5 241.5,267.5C 240.368,268.354 239.035,268.354 237.5,267.5C 237.5,266.5 237.5,265.5 237.5,264.5 Z"/></g>
<g><path style="opacity:1" fill="#332315" d="M 285.5,264.5 C 286.167,264.5 286.833,264.5 287.5,264.5C 286.075,265.922 285.075,267.589 284.5,269.5C 283.486,270.674 282.153,271.34 280.5,271.5C 282.412,269.343 284.079,267.009 285.5,264.5 Z"/></g>
<g><path style="opacity:1" fill="#c2bdbe" d="M 237.5,267.5 C 239.035,268.354 240.368,268.354 241.5,267.5C 242.167,267.5 242.833,267.5 243.5,267.5C 243.918,268.222 244.584,268.722 245.5,269C 244.944,269.383 244.611,269.883 244.5,270.5C 244.167,270.5 243.833,270.5 243.5,270.5C 243.167,270.5 242.833,270.5 242.5,270.5C 240.983,270.511 239.816,271.177 239,272.5C 238.365,271.034 237.531,269.7 236.5,268.5C 236.624,267.893 236.957,267.56 237.5,267.5 Z"/></g>
<g><path style="opacity:1" fill="#7b5019" d="M 252.5,248.5 C 252.833,248.5 253.167,248.5 253.5,248.5C 253.338,250.527 253.505,252.527 254,254.5C 254.232,253.263 254.732,252.263 255.5,251.5C 255.833,251.5 256.167,251.5 256.5,251.5C 256.123,253.258 255.456,254.925 254.5,256.5C 254.709,257.086 255.043,257.586 255.5,258C 253.689,259.041 253.355,260.207 254.5,261.5C 251.404,266.689 252.404,268.022 257.5,265.5C 257.5,266.167 257.833,266.5 258.5,266.5C 256.739,267.313 255.072,268.313 253.5,269.5C 251.433,267.488 249.1,267.154 246.5,268.5C 247.275,271.484 247.941,274.484 248.5,277.5C 246.447,277.402 244.78,278.069 243.5,279.5C 243.5,280.167 243.5,280.833 243.5,281.5C 242.662,281.842 242.328,282.508 242.5,283.5C 242.167,283.5 241.833,283.5 241.5,283.5C 241.5,281.5 241.5,279.5 241.5,277.5C 242.71,277.068 243.71,276.401 244.5,275.5C 247.048,273.962 247.048,272.296 244.5,270.5C 244.611,269.883 244.944,269.383 245.5,269C 244.584,268.722 243.918,268.222 243.5,267.5C 245.976,265.391 245.976,263.057 243.5,260.5C 244.163,258.958 244.83,257.291 245.5,255.5C 246.429,256.689 246.762,258.022 246.5,259.5C 248.5,259.5 250.5,259.5 252.5,259.5C 252.5,255.833 252.5,252.167 252.5,248.5 Z"/></g>
<g><path style="opacity:1" fill="#daa514" d="M 246.5,260.5 C 248.604,260.201 250.604,260.534 252.5,261.5C 251.691,263.071 251.357,264.738 251.5,266.5C 249.833,266.5 248.167,266.5 246.5,266.5C 246.5,264.5 246.5,262.5 246.5,260.5 Z"/></g>
<g><path style="opacity:1" fill="#72925b" d="M 225.5,262.5 C 229.322,263.18 230.989,265.513 230.5,269.5C 230.586,270.496 230.252,271.329 229.5,272C 225.642,272.81 221.976,272.643 218.5,271.5C 220.167,271.5 221.833,271.5 223.5,271.5C 223.5,270.167 223.5,268.833 223.5,267.5C 223.443,266.391 223.11,265.391 222.5,264.5C 224.179,264.715 225.179,264.048 225.5,262.5 Z"/></g>
<g><path style="opacity:1" fill="#aca4a5" d="M 258.5,266.5 C 258.833,266.5 259.167,266.5 259.5,266.5C 261.847,268.03 262.014,270.03 260,272.5C 259.184,271.177 258.017,270.511 256.5,270.5C 256.167,270.5 255.833,270.5 255.5,270.5C 255.167,270.5 254.833,270.5 254.5,270.5C 254.5,269.833 254.167,269.5 253.5,269.5C 255.072,268.313 256.739,267.313 258.5,266.5 Z"/></g>
<g><path style="opacity:1" fill="#b48712" d="M 196.5,268.5 C 202.264,270.781 208.264,271.114 214.5,269.5C 215.209,270.404 216.209,270.737 217.5,270.5C 217.5,271.167 217.833,271.5 218.5,271.5C 221.976,272.643 225.642,272.81 229.5,272C 230.252,271.329 230.586,270.496 230.5,269.5C 234.3,271.234 237.966,273.234 241.5,275.5C 242.452,273.955 242.785,272.288 242.5,270.5C 242.833,270.5 243.167,270.5 243.5,270.5C 243.629,272.216 243.962,273.883 244.5,275.5C 243.71,276.401 242.71,277.068 241.5,277.5C 239.205,275.227 237.038,275.227 235,277.5C 234.586,277.043 234.086,276.709 233.5,276.5C 232.833,277.5 232.167,278.5 231.5,279.5C 230.313,278.347 229.313,278.347 228.5,279.5C 225.993,279.165 223.826,278.165 222,276.5C 221.661,279.88 221.161,283.213 220.5,286.5C 220.426,288.411 219.426,289.578 217.5,290C 214.854,290.497 212.187,290.664 209.5,290.5C 205.954,289.615 203.288,287.615 201.5,284.5C 201.223,281.552 201.556,278.719 202.5,276C 201.552,275.517 200.552,275.351 199.5,275.5C 197.396,275.799 195.396,275.466 193.5,274.5C 193.771,271.953 194.771,269.953 196.5,268.5 Z"/></g>
<g><path style="opacity:1" fill="#f1b517" d="M 209.5,272.5 C 217.658,271.823 221.158,275.49 220,283.5C 215.486,289.747 210.486,290.08 205,284.5C 203.309,279.131 204.809,275.131 209.5,272.5 Z"/></g>
<g><path style="opacity:1" fill="#b08616" d="M 253.5,269.5 C 254.167,269.5 254.5,269.833 254.5,270.5C 252.241,271.344 251.241,273.011 251.5,275.5C 250.662,275.842 250.328,276.508 250.5,277.5C 249.833,277.5 249.167,277.5 248.5,277.5C 247.941,274.484 247.275,271.484 246.5,268.5C 249.1,267.154 251.433,267.488 253.5,269.5 Z"/></g>
<g><path style="opacity:1" fill="#b50c10" d="M 254.5,270.5 C 254.833,270.5 255.167,270.5 255.5,270.5C 255.167,272.5 254.833,274.5 254.5,276.5C 253.609,275.89 252.609,275.557 251.5,275.5C 251.241,273.011 252.241,271.344 254.5,270.5 Z"/></g>
<g><path style="opacity:1" fill="#efb317" d="M 284.5,269.5 C 286.903,269.448 289.236,269.781 291.5,270.5C 292.463,271.363 292.463,272.03 291.5,272.5C 288.897,271.438 286.23,271.272 283.5,272C 294.66,272.779 297.327,277.779 291.5,287C 286.527,289.394 282.194,288.56 278.5,284.5C 278.5,281.833 278.5,279.167 278.5,276.5C 281.782,275.11 282.448,273.443 280.5,271.5C 282.153,271.34 283.486,270.674 284.5,269.5 Z"/></g>
<g><path style="opacity:1" fill="#bb0610" d="M 243.5,270.5 C 243.833,270.5 244.167,270.5 244.5,270.5C 247.048,272.296 247.048,273.962 244.5,275.5C 243.962,273.883 243.629,272.216 243.5,270.5 Z"/></g>
<g><path style="opacity:1" fill="#4a3a30" d="M 178.5,273.5 C 178.897,272.475 179.563,272.308 180.5,273C 183.423,275.446 186.423,277.613 189.5,279.5C 188.167,279.5 187.5,280.167 187.5,281.5C 186.115,279.117 184.115,277.45 181.5,276.5C 180.833,275.167 179.833,274.167 178.5,273.5 Z"/></g>
<g><path style="opacity:1" fill="#4c3930" d="M 320.5,273.5 C 319.128,274.512 317.795,275.512 316.5,276.5C 314.473,277.861 312.806,279.527 311.5,281.5C 311.5,280.167 310.833,279.5 309.5,279.5C 312.577,277.613 315.577,275.446 318.5,273C 319.437,272.308 320.103,272.475 320.5,273.5 Z"/></g>
<g><path style="opacity:1" fill="#d62928" d="M 178.5,273.5 C 179.833,274.167 180.833,275.167 181.5,276.5C 179.952,276.821 179.285,277.821 179.5,279.5C 176.813,279.664 174.146,279.497 171.5,279C 173.608,278.64 175.608,277.973 177.5,277C 176.2,275.421 176.534,274.255 178.5,273.5 Z"/></g>
<g><path style="opacity:1" fill="#eaecf1" d="M 248.5,277.5 C 249.167,277.5 249.833,277.5 250.5,277.5C 252.179,277.285 253.179,277.952 253.5,279.5C 251.373,280.149 249.373,280.483 247.5,280.5C 246.041,280.567 244.708,280.234 243.5,279.5C 244.78,278.069 246.447,277.402 248.5,277.5 Z"/></g>
<g><path style="opacity:1" fill="#d72b2a" d="M 320.5,273.5 C 322.466,274.255 322.8,275.421 321.5,277C 323.087,277.862 324.754,278.529 326.5,279C 324.19,279.497 321.857,279.663 319.5,279.5C 319.5,278.5 319.5,277.5 319.5,276.5C 318.5,276.5 317.5,276.5 316.5,276.5C 317.795,275.512 319.128,274.512 320.5,273.5 Z"/></g>
<g><path style="opacity:1" fill="#a61710" d="M 241.5,277.5 C 241.5,279.5 241.5,281.5 241.5,283.5C 241.5,284.5 241.5,285.5 241.5,286.5C 240.167,286.5 238.833,286.5 237.5,286.5C 237.856,283.436 237.023,280.769 235,278.5C 234.434,280.723 233.6,282.723 232.5,284.5C 230.478,283.493 229.145,281.826 228.5,279.5C 229.313,278.347 230.313,278.347 231.5,279.5C 232.167,278.5 232.833,277.5 233.5,276.5C 234.086,276.709 234.586,277.043 235,277.5C 237.038,275.227 239.205,275.227 241.5,277.5 Z"/></g>
<g><path style="opacity:1" fill="#5d5c7d" d="M 251.5,275.5 C 252.609,275.557 253.609,275.89 254.5,276.5C 256.322,277.281 256.989,278.448 256.5,280C 255.956,280.717 255.289,281.217 254.5,281.5C 254.672,280.508 254.338,279.842 253.5,279.5C 253.179,277.952 252.179,277.285 250.5,277.5C 250.328,276.508 250.662,275.842 251.5,275.5 Z"/></g>
<g><path style="opacity:1" fill="#b38716" d="M 304.5,268.5 C 305.219,270.764 305.552,273.097 305.5,275.5C 303.5,275.5 301.5,275.5 299.5,275.5C 298.448,275.351 297.448,275.517 296.5,276C 297.423,278.041 297.756,280.208 297.5,282.5C 297.5,282.833 297.5,283.167 297.5,283.5C 296.263,284.965 295.263,286.632 294.5,288.5C 290.424,290.442 286.091,290.942 281.5,290C 279.574,289.578 278.574,288.411 278.5,286.5C 278.5,285.833 278.5,285.167 278.5,284.5C 282.194,288.56 286.527,289.394 291.5,287C 297.327,277.779 294.66,272.779 283.5,272C 286.23,271.272 288.897,271.438 291.5,272.5C 292.463,272.03 292.463,271.363 291.5,270.5C 295.894,270.156 300.228,269.49 304.5,268.5 Z"/></g>
<g><path style="opacity:1" fill="#f2b515" d="M 298.5,270.5 C 299.833,270.5 301.167,270.5 302.5,270.5C 302.5,271.833 302.5,273.167 302.5,274.5C 301.167,274.5 299.833,274.5 298.5,274.5C 298.5,273.167 298.5,271.833 298.5,270.5 Z"/></g>
<g><path style="opacity:1" fill="#77736e" d="M 199.5,275.5 C 200.552,275.351 201.552,275.517 202.5,276C 201.556,278.719 201.223,281.552 201.5,284.5C 201.167,284.5 200.833,284.5 200.5,284.5C 200.632,281.43 200.299,278.43 199.5,275.5 Z"/></g>
<g><path style="opacity:1" fill="#ad1d10" d="M 270.5,279.5 C 269.811,282.189 268.144,283.856 265.5,284.5C 265.313,282.436 264.813,280.436 264,278.5C 261.058,280.328 259.891,282.995 260.5,286.5C 259.5,286.5 258.5,286.5 257.5,286.5C 257.335,283.482 257.502,280.482 258,277.5C 259.512,276.743 260.846,275.743 262,274.5C 263.049,276.107 264.549,276.773 266.5,276.5C 266.281,277.675 266.614,278.675 267.5,279.5C 268.687,278.347 269.687,278.347 270.5,279.5 Z"/></g>
<g><path style="opacity:1" fill="#ce9b13" d="M 278.5,276.5 C 278.5,279.167 278.5,281.833 278.5,284.5C 278.5,285.167 278.5,285.833 278.5,286.5C 277.5,286.167 276.833,285.5 276.5,284.5C 275.852,282.914 275.352,281.247 275,279.5C 273.404,282.369 271.57,285.036 269.5,287.5C 266.058,287.824 265.058,289.491 266.5,292.5C 265.167,293.833 263.833,293.833 262.5,292.5C 263.653,291.313 263.653,290.313 262.5,289.5C 262.389,288.883 262.056,288.383 261.5,288C 262.249,286.266 262.749,284.433 263,282.5C 263.333,284.167 263.667,285.833 264,287.5C 265.039,286.756 265.539,285.756 265.5,284.5C 268.144,283.856 269.811,282.189 270.5,279.5C 272.086,278.852 273.753,278.352 275.5,278C 273.19,277.503 270.857,277.337 268.5,277.5C 268.67,276.178 268.337,275.011 267.5,274C 268.549,273.508 269.549,273.674 270.5,274.5C 272.632,272.883 274.965,272.383 277.5,273C 276.167,274.84 276.334,275.34 278,274.5C 278.464,275.094 278.631,275.761 278.5,276.5 Z"/></g>
<g><path style="opacity:1" fill="#78747d" d="M 299.5,275.5 C 298.935,277.952 298.268,280.285 297.5,282.5C 297.756,280.208 297.423,278.041 296.5,276C 297.448,275.517 298.448,275.351 299.5,275.5 Z"/></g>
<g><path style="opacity:1" fill="#07237b" d="M 243.5,279.5 C 244.708,280.234 246.041,280.567 247.5,280.5C 246.791,281.404 245.791,281.737 244.5,281.5C 244.167,281.5 243.833,281.5 243.5,281.5C 243.5,280.833 243.5,280.167 243.5,279.5 Z"/></g>
<g><path style="opacity:1" fill="#a27a1e" d="M 189.5,279.5 C 191.167,281.833 193.167,283.833 195.5,285.5C 195.158,286.338 194.492,286.672 193.5,286.5C 192.109,284.11 190.109,282.443 187.5,281.5C 187.5,280.167 188.167,279.5 189.5,279.5 Z"/></g>
<g><path style="opacity:1" fill="#644936" d="M 253.5,279.5 C 254.338,279.842 254.672,280.508 254.5,281.5C 252.236,282.219 249.903,282.552 247.5,282.5C 246.209,282.737 245.209,282.404 244.5,281.5C 245.791,281.737 246.791,281.404 247.5,280.5C 249.373,280.483 251.373,280.149 253.5,279.5 Z"/></g>
<g><path style="opacity:1" fill="#3f2e06" d="M 276.5,284.5 C 274.205,285.136 272.539,286.469 271.5,288.5C 271.167,289.167 270.833,289.833 270.5,290.5C 269.761,290.631 269.094,290.464 268.5,290C 269.252,289.329 269.586,288.496 269.5,287.5C 271.57,285.036 273.404,282.369 275,279.5C 275.352,281.247 275.852,282.914 276.5,284.5 Z"/></g>
<g><path style="opacity:1" fill="#e6ae16" d="M 228.5,279.5 C 229.145,281.826 230.478,283.493 232.5,284.5C 232.737,285.791 232.404,286.791 231.5,287.5C 230.833,287.5 230.167,287.5 229.5,287.5C 227.43,285.036 225.596,282.369 224,279.5C 223.648,281.247 223.148,282.914 222.5,284.5C 222.167,285.5 221.5,286.167 220.5,286.5C 221.161,283.213 221.661,279.88 222,276.5C 223.826,278.165 225.993,279.165 228.5,279.5 Z"/></g>
<g><path style="opacity:1" fill="#a2780e" d="M 309.5,279.5 C 310.833,279.5 311.5,280.167 311.5,281.5C 308.911,282.419 306.911,284.086 305.5,286.5C 304.508,286.672 303.842,286.338 303.5,285.5C 305.833,283.833 307.833,281.833 309.5,279.5 Z"/></g>
<g><path style="opacity:1" fill="#3f2e06" d="M 229.5,287.5 C 229.414,288.496 229.748,289.329 230.5,290C 229.906,290.464 229.239,290.631 228.5,290.5C 227.5,287.5 225.5,285.5 222.5,284.5C 223.148,282.914 223.648,281.247 224,279.5C 225.596,282.369 227.43,285.036 229.5,287.5 Z"/></g>
<g><path style="opacity:1" fill="#ab7f10" d="M 241.5,283.5 C 241.833,283.5 242.167,283.5 242.5,283.5C 242.767,285.965 243.434,288.299 244.5,290.5C 243.167,290.5 242.5,291.167 242.5,292.5C 240.286,289.984 237.619,289.317 234.5,290.5C 236.891,291.809 236.891,292.809 234.5,293.5C 232.289,293.005 231.955,291.838 233.5,290C 232.944,288.989 232.278,288.156 231.5,287.5C 232.404,286.791 232.737,285.791 232.5,284.5C 233.6,282.723 234.434,280.723 235,278.5C 237.023,280.769 237.856,283.436 237.5,286.5C 238.833,286.5 240.167,286.5 241.5,286.5C 241.5,285.5 241.5,284.5 241.5,283.5 Z"/></g>
<g><path style="opacity:1" fill="#0e6517" d="M 297.5,283.5 C 299.102,285.074 301.102,285.741 303.5,285.5C 303.842,286.338 304.508,286.672 305.5,286.5C 309.805,289.128 314.472,290.795 319.5,291.5C 321.14,292.79 321.64,294.457 321,296.5C 316.752,294.626 312.585,292.626 308.5,290.5C 307.833,290.833 307.167,291.167 306.5,291.5C 306.894,294.135 308.061,294.801 310,293.5C 314.338,294.585 318.171,296.585 321.5,299.5C 324.975,297.916 325.308,295.916 322.5,293.5C 324.703,293.604 326.703,294.27 328.5,295.5C 328.5,301.167 328.5,306.833 328.5,312.5C 275.833,312.5 223.167,312.5 170.5,312.5C 170.5,306.5 170.5,300.5 170.5,294.5C 178.303,292.079 185.97,289.413 193.5,286.5C 194.492,286.672 195.158,286.338 195.5,285.5C 197.117,284.962 198.784,284.629 200.5,284.5C 200.833,284.5 201.167,284.5 201.5,284.5C 203.288,287.615 205.954,289.615 209.5,290.5C 210.305,292.213 211.305,293.879 212.5,295.5C 213.971,294.619 214.804,293.286 215,291.5C 215.5,293.333 216.667,294.5 218.5,295C 216.942,295.21 215.609,295.71 214.5,296.5C 212.973,296.427 211.973,297.094 211.5,298.5C 207.832,299.556 204.165,300.722 200.5,302C 196.833,302.333 193.167,302.667 189.5,303C 190.345,304.558 189.679,305.558 187.5,306C 196.217,307.192 204.55,306.025 212.5,302.5C 226.453,306.96 240.786,308.627 255.5,307.5C 259.371,307.815 263.038,307.482 266.5,306.5C 266.833,306.5 267.167,306.5 267.5,306.5C 273.814,306.04 279.814,304.707 285.5,302.5C 285.735,301.903 286.235,301.57 287,301.5C 294.693,305.902 302.86,307.235 311.5,305.5C 310.5,304.833 309.5,304.167 308.5,303.5C 309.025,302.808 309.692,302.308 310.5,302C 305.833,301.667 301.167,301.333 296.5,301C 295.263,300.768 294.263,300.268 293.5,299.5C 293.389,298.883 293.056,298.383 292.5,298C 295.695,297.819 298.695,297.319 301.5,296.5C 301.167,295.167 300.833,293.833 300.5,292.5C 300.196,291.85 299.863,291.183 299.5,290.5C 297.709,289.83 296.042,289.163 294.5,288.5C 295.263,286.632 296.263,284.965 297.5,283.5 Z"/></g>
<g><path style="opacity:1" fill="#d13813" d="M 243.5,281.5 C 244.316,286.053 245.649,286.387 247.5,282.5C 249.903,282.552 252.236,282.219 254.5,281.5C 256.218,283.926 256.718,286.593 256,289.5C 254.214,285.604 253.047,285.937 252.5,290.5C 252.5,291.5 252.5,292.5 252.5,293.5C 251.833,293.5 251.167,293.5 250.5,293.5C 250.5,292.833 250.5,292.167 250.5,291.5C 248.746,285.045 247.412,285.045 246.5,291.5C 245.833,291.5 245.167,291.5 244.5,291.5C 244.5,291.167 244.5,290.833 244.5,290.5C 243.434,288.299 242.767,285.965 242.5,283.5C 242.328,282.508 242.662,281.842 243.5,281.5 Z"/></g>
<g><path style="opacity:1" fill="#f4af15" d="M 243.5,281.5 C 243.833,281.5 244.167,281.5 244.5,281.5C 245.209,282.404 246.209,282.737 247.5,282.5C 245.649,286.387 244.316,286.053 243.5,281.5 Z"/></g>
<g><path style="opacity:1" fill="#8b6a0f" d="M 300.5,292.5 C 300.833,293.833 301.167,295.167 301.5,296.5C 298.102,296.82 294.768,296.487 291.5,295.5C 292.956,293.554 294.623,291.887 296.5,290.5C 297.867,291.225 299.2,291.892 300.5,292.5 Z"/></g>
<g><path style="opacity:1" fill="#81630e" d="M 199.5,290.5 C 201.288,290.215 202.955,290.548 204.5,291.5C 205.115,293.116 206.115,294.449 207.5,295.5C 204.167,296.833 200.833,296.833 197.5,295.5C 198.456,293.925 199.123,292.258 199.5,290.5 Z"/></g>
<g><path style="opacity:1" fill="#ce9613" d="M 181.5,296.5 C 184.684,295.488 187.517,293.821 190,291.5C 191.44,292.93 191.774,294.597 191,296.5C 187.905,295.605 184.738,295.605 181.5,296.5 Z"/></g>
<g><path style="opacity:1" fill="#205a14" d="M 222.5,284.5 C 225.5,285.5 227.5,287.5 228.5,290.5C 229.239,290.631 229.906,290.464 230.5,290C 229.748,289.329 229.414,288.496 229.5,287.5C 230.167,287.5 230.833,287.5 231.5,287.5C 232.278,288.156 232.944,288.989 233.5,290C 231.955,291.838 232.289,293.005 234.5,293.5C 236.891,292.809 236.891,291.809 234.5,290.5C 237.619,289.317 240.286,289.984 242.5,292.5C 243.492,292.672 244.158,292.338 244.5,291.5C 245.167,291.5 245.833,291.5 246.5,291.5C 247.183,293.176 248.517,293.843 250.5,293.5C 251.167,293.5 251.833,293.5 252.5,293.5C 253.609,293.443 254.609,293.11 255.5,292.5C 257.213,290.15 259.547,289.15 262.5,289.5C 263.653,290.313 263.653,291.313 262.5,292.5C 263.833,293.833 265.167,293.833 266.5,292.5C 265.058,289.491 266.058,287.824 269.5,287.5C 269.586,288.496 269.252,289.329 268.5,290C 269.094,290.464 269.761,290.631 270.5,290.5C 270.5,291.5 270.5,292.5 270.5,293.5C 272.527,293.662 274.527,293.495 276.5,293C 276.957,292.586 277.291,292.086 277.5,291.5C 272.938,290.86 272.604,289.694 276.5,288C 274.803,287.616 273.137,287.782 271.5,288.5C 272.539,286.469 274.205,285.136 276.5,284.5C 276.833,285.5 277.5,286.167 278.5,286.5C 278.574,288.411 279.574,289.578 281.5,290C 286.091,290.942 290.424,290.442 294.5,288.5C 296.042,289.163 297.709,289.83 299.5,290.5C 299.863,291.183 300.196,291.85 300.5,292.5C 299.2,291.892 297.867,291.225 296.5,290.5C 294.623,291.887 292.956,293.554 291.5,295.5C 294.768,296.487 298.102,296.82 301.5,296.5C 298.695,297.319 295.695,297.819 292.5,298C 293.056,298.383 293.389,298.883 293.5,299.5C 290.478,298.074 287.312,297.074 284,296.5C 282.319,296.608 281.152,297.275 280.5,298.5C 280.5,299.167 280.167,299.5 279.5,299.5C 278.757,296.43 276.757,294.764 273.5,294.5C 273.737,295.791 273.404,296.791 272.5,297.5C 271.159,295.88 269.326,294.88 267,294.5C 262.548,295.141 258.048,295.808 253.5,296.5C 259.463,297.496 265.463,297.829 271.5,297.5C 265.355,298.49 259.022,298.823 252.5,298.5C 252.5,297.167 252.5,295.833 252.5,294.5C 250.5,294.5 248.5,294.5 246.5,294.5C 246.5,295.833 246.5,297.167 246.5,298.5C 238.826,298.334 231.159,298.5 223.5,299C 224.416,299.278 225.082,299.778 225.5,300.5C 223.139,300.326 220.806,299.993 218.5,299.5C 218.5,298.5 218.5,297.5 218.5,296.5C 217.167,296.5 215.833,296.5 214.5,296.5C 215.609,295.71 216.942,295.21 218.5,295C 216.667,294.5 215.5,293.333 215,291.5C 214.804,293.286 213.971,294.619 212.5,295.5C 211.305,293.879 210.305,292.213 209.5,290.5C 212.187,290.664 214.854,290.497 217.5,290C 219.426,289.578 220.426,288.411 220.5,286.5C 221.5,286.167 222.167,285.5 222.5,284.5 Z"/></g>
<g><path style="opacity:1" fill="#06277f" d="M 246.5,291.5 C 247.833,291.5 249.167,291.5 250.5,291.5C 250.5,292.167 250.5,292.833 250.5,293.5C 248.517,293.843 247.183,293.176 246.5,291.5 Z"/></g>
<g><path style="opacity:1" fill="#2d316c" d="M 252.5,290.5 C 254.179,290.285 255.179,290.952 255.5,292.5C 254.609,293.11 253.609,293.443 252.5,293.5C 252.5,292.5 252.5,291.5 252.5,290.5 Z"/></g>
<g><path style="opacity:1" fill="#202b5f" d="M 244.5,290.5 C 244.5,290.833 244.5,291.167 244.5,291.5C 244.158,292.338 243.492,292.672 242.5,292.5C 242.5,291.167 243.167,290.5 244.5,290.5 Z"/></g>
<g><path style="opacity:1" fill="#d5d6d5" d="M 270.5,290.5 C 270.833,289.833 271.167,289.167 271.5,288.5C 273.137,287.782 274.803,287.616 276.5,288C 272.604,289.694 272.938,290.86 277.5,291.5C 277.291,292.086 276.957,292.586 276.5,293C 274.527,293.495 272.527,293.662 270.5,293.5C 270.5,292.5 270.5,291.5 270.5,290.5 Z"/></g>
<g><path style="opacity:1" fill="#dedede" d="M 228.5,290.5 C 228.441,292.722 227.275,293.722 225,293.5C 220.73,292.633 220.564,291.3 224.5,289.5C 223.975,288.808 223.308,288.308 222.5,288C 223,287.833 223.5,287.667 224,287.5C 225.643,288.315 227.143,289.315 228.5,290.5 Z"/></g>
<g><path style="opacity:1" fill="#e9ab1b" d="M 250.5,291.5 C 249.167,291.5 247.833,291.5 246.5,291.5C 247.412,285.045 248.746,285.045 250.5,291.5 Z"/></g>
<g><path style="opacity:1" fill="#73540a" d="M 230.5,294.5 C 235.488,295.065 240.488,295.731 245.5,296.5C 239.167,297.833 232.833,297.833 226.5,296.5C 227.949,295.828 229.282,295.161 230.5,294.5 Z"/></g>
<g><path style="opacity:1" fill="#ca9617" d="M 322.5,293.5 C 325.308,295.916 324.975,297.916 321.5,299.5C 318.171,296.585 314.338,294.585 310,293.5C 308.061,294.801 306.894,294.135 306.5,291.5C 307.167,291.167 307.833,290.833 308.5,290.5C 312.585,292.626 316.752,294.626 321,296.5C 321.64,294.457 321.14,292.79 319.5,291.5C 319.249,289.83 318.582,288.33 317.5,287C 320.265,287.72 322.599,289.387 324.5,292C 323.584,292.278 322.918,292.778 322.5,293.5 Z"/></g>
<g><path style="opacity:1" fill="#e3e3e3" d="M 293.5,299.5 C 294.263,300.268 295.263,300.768 296.5,301C 301.167,301.333 305.833,301.667 310.5,302C 309.692,302.308 309.025,302.808 308.5,303.5C 309.5,304.167 310.5,304.833 311.5,305.5C 302.86,307.235 294.693,305.902 287,301.5C 286.235,301.57 285.735,301.903 285.5,302.5C 284.127,302.657 282.793,302.49 281.5,302C 282.833,301.333 282.833,300.667 281.5,300C 286.642,297.636 286.309,297.136 280.5,298.5C 281.152,297.275 282.319,296.608 284,296.5C 287.312,297.074 290.478,298.074 293.5,299.5 Z"/></g>
<g><path style="opacity:1" fill="#eeedee" d="M 211.5,298.5 C 212.434,299.568 212.768,300.901 212.5,302.5C 204.55,306.025 196.217,307.192 187.5,306C 189.679,305.558 190.345,304.558 189.5,303C 193.167,302.667 196.833,302.333 200.5,302C 204.165,300.722 207.832,299.556 211.5,298.5 Z"/></g>
<g><path style="opacity:1" fill="#016915" d="M 271.5,297.5 C 271.833,297.5 272.167,297.5 272.5,297.5C 273.404,296.791 273.737,295.791 273.5,294.5C 276.757,294.764 278.757,296.43 279.5,299.5C 275.13,300.102 270.797,300.769 266.5,301.5C 256.833,301.5 247.167,301.5 237.5,301.5C 233.434,301.693 229.434,301.36 225.5,300.5C 225.082,299.778 224.416,299.278 223.5,299C 231.159,298.5 238.826,298.334 246.5,298.5C 246.5,297.167 246.5,295.833 246.5,294.5C 248.5,294.5 250.5,294.5 252.5,294.5C 252.5,295.833 252.5,297.167 252.5,298.5C 259.022,298.823 265.355,298.49 271.5,297.5 Z"/></g>
<g><path style="opacity:1" fill="#72540a" d="M 272.5,297.5 C 272.167,297.5 271.833,297.5 271.5,297.5C 265.463,297.829 259.463,297.496 253.5,296.5C 258.048,295.808 262.548,295.141 267,294.5C 269.326,294.88 271.159,295.88 272.5,297.5 Z"/></g>
<g><path style="opacity:1" fill="#b48811" d="M 181.5,296.5 C 180.602,297.158 179.602,297.824 178.5,298.5C 180.624,299.149 182.624,299.983 184.5,301C 183.5,301.5 182.5,302 181.5,302.5C 179.235,301.021 176.901,299.687 174.5,298.5C 175.552,295.265 177.552,293.431 180.5,293C 176.244,295.723 176.578,296.89 181.5,296.5 Z"/></g>
<g><path style="opacity:1" fill="#9c9c9c" d="M 285.5,302.5 C 279.814,304.707 273.814,306.04 267.5,306.5C 267.5,305.167 266.833,304.5 265.5,304.5C 265.389,303.883 265.056,303.383 264.5,303C 265.416,302.722 266.082,302.222 266.5,301.5C 270.797,300.769 275.13,300.102 279.5,299.5C 280.167,299.5 280.5,299.167 280.5,298.5C 286.309,297.136 286.642,297.636 281.5,300C 282.833,300.667 282.833,301.333 281.5,302C 282.793,302.49 284.127,302.657 285.5,302.5 Z"/></g>
<g><path style="opacity:1" fill="#f0eff0" d="M 265.5,304.5 C 266.833,304.5 267.5,305.167 267.5,306.5C 267.167,306.5 266.833,306.5 266.5,306.5C 263.722,306.978 261.722,305.978 260.5,303.5C 261.325,302.614 262.325,302.281 263.5,302.5C 263.281,303.675 263.614,304.675 264.5,305.5C 265.107,305.376 265.44,305.043 265.5,304.5 Z"/></g>
<g><path style="opacity:1" fill="#6c796e" d="M 237.5,301.5 C 247.167,301.5 256.833,301.5 266.5,301.5C 266.082,302.222 265.416,302.722 264.5,303C 265.056,303.383 265.389,303.883 265.5,304.5C 265.44,305.043 265.107,305.376 264.5,305.5C 263.614,304.675 263.281,303.675 263.5,302.5C 262.325,302.281 261.325,302.614 260.5,303.5C 261.722,305.978 263.722,306.978 266.5,306.5C 263.038,307.482 259.371,307.815 255.5,307.5C 255.331,302.959 255.998,302.626 257.5,306.5C 258.415,305.672 259.081,304.672 259.5,303.5C 254.533,302.338 249.533,302.171 244.5,303C 242.776,303.448 242.109,304.282 242.5,305.5C 241.614,304.675 241.281,303.675 241.5,302.5C 239.901,302.768 238.568,302.434 237.5,301.5 Z"/></g>
<g><path style="opacity:1" fill="#a7a7a6" d="M 214.5,296.5 C 215.833,296.5 217.167,296.5 218.5,296.5C 218.5,297.5 218.5,298.5 218.5,299.5C 220.806,299.993 223.139,300.326 225.5,300.5C 229.434,301.36 233.434,301.693 237.5,301.5C 238.568,302.434 239.901,302.768 241.5,302.5C 241.281,303.675 241.614,304.675 242.5,305.5C 242.109,304.282 242.776,303.448 244.5,303C 249.533,302.171 254.533,302.338 259.5,303.5C 259.081,304.672 258.415,305.672 257.5,306.5C 255.998,302.626 255.331,302.959 255.5,307.5C 240.786,308.627 226.453,306.96 212.5,302.5C 212.768,300.901 212.434,299.568 211.5,298.5C 211.973,297.094 212.973,296.427 214.5,296.5 Z"/></g>
</svg>
