<?xml version="1.0" encoding="UTF-8"?>
<!DOCTYPE svg PUBLIC "-//W3C//DTD SVG 1.1//EN" "http://www.w3.org/Graphics/SVG/1.1/DTD/svg11.dtd">
<svg xmlns="http://www.w3.org/2000/svg" version="1.1" width="500px" height="500px" style="shape-rendering:geometricPrecision; text-rendering:geometricPrecision; image-rendering:optimizeQuality; fill-rule:evenodd; clip-rule:evenodd" xmlns:xlink="http://www.w3.org/1999/xlink">
<g><path style="opacity:0.993" fill="#0173cf" d="M 225.5,-0.5 C 241.5,-0.5 257.5,-0.5 273.5,-0.5C 362.269,10.9489 428.436,55.6156 472,133.5C 477.625,144.077 482.125,155.077 485.5,166.5C 328.167,166.5 170.833,166.5 13.5,166.5C 43.991,84.513 101.324,31.3463 185.5,7C 198.832,3.72528 212.166,1.22528 225.5,-0.5 Z"/></g>
<g><path style="opacity:0.997" fill="#fefefe" d="M 13.5,166.5 C 170.833,166.5 328.167,166.5 485.5,166.5C 492.586,185.267 497.253,204.6 499.5,224.5C 499.5,241.167 499.5,257.833 499.5,274.5C 498.1,284.764 496.267,295.098 494,305.5C 492.031,314.9 489.198,323.9 485.5,332.5C 328.167,332.5 170.833,332.5 13.5,332.5C 6.28469,313.42 1.61802,293.754 -0.5,273.5C -0.5,257.5 -0.5,241.5 -0.5,225.5C 1.61802,205.246 6.28469,185.58 13.5,166.5 Z"/></g>
<g><path style="opacity:1" fill="#1476d0" d="M 110.5,178.5 C 113.471,184.079 115.471,190.079 116.5,196.5C 123.175,196.334 129.842,196.5 136.5,197C 131.667,200.5 126.833,204 122,207.5C 122.65,213.469 124.15,219.302 126.5,225C 126.167,225.5 125.833,226 125.5,226.5C 120.633,222.905 115.633,219.571 110.5,216.5C 105.219,219.938 100.053,223.605 95,227.5C 95.9912,221.183 97.8245,215.016 100.5,209C 95.5554,204.523 90.222,200.523 84.5,197C 91.1915,196.831 97.8581,196.331 104.5,195.5C 106.111,189.665 108.111,183.998 110.5,178.5 Z"/></g>
<g><path style="opacity:1" fill="#1375d0" d="M 387.5,178.5 C 388.497,178.47 389.164,178.97 389.5,180C 391.477,185.428 393.143,190.928 394.5,196.5C 401.175,196.334 407.842,196.5 414.5,197C 408.778,200.523 403.445,204.523 398.5,209C 401.171,215.006 403.005,221.172 404,227.5C 399.233,223.206 394.066,219.539 388.5,216.5C 382.934,219.539 377.767,223.206 373,227.5C 374.333,220.833 375.667,214.167 377,207.5C 372.167,204 367.333,200.5 362.5,197C 369.158,196.5 375.825,196.334 382.5,196.5C 384.167,190.5 385.833,184.5 387.5,178.5 Z"/></g>
<g><path style="opacity:1" fill="#1776d0" d="M 225.5,242.5 C 231.5,241.833 237.5,241.167 243.5,240.5C 244.899,234.304 246.899,228.304 249.5,222.5C 252.101,228.304 254.101,234.304 255.5,240.5C 262.175,240.334 268.842,240.5 275.5,241C 269.999,245.007 264.666,249.173 259.5,253.5C 262.269,259.301 264.102,265.301 265,271.5C 259.972,267.639 254.806,263.972 249.5,260.5C 244.194,263.972 239.028,267.639 234,271.5C 234.894,265.311 236.727,259.311 239.5,253.5C 234.815,249.81 230.148,246.143 225.5,242.5 Z"/></g>
<g><path style="opacity:1" fill="#66aae2" d="M 243.5,240.5 C 237.5,241.167 231.5,241.833 225.5,242.5C 224.711,242.217 224.044,241.717 223.5,241C 230.158,240.5 236.825,240.334 243.5,240.5 Z"/></g>
<g><path style="opacity:1" fill="#1576d0" d="M 86.5,281.5 C 92.5,280.833 98.5,280.167 104.5,279.5C 106.177,273.299 108.344,267.299 111,261.5C 113.143,267.428 114.977,273.428 116.5,279.5C 123.175,279.334 129.842,279.5 136.5,280C 131.051,283.711 126.051,287.878 121.5,292.5C 123.647,298.422 125.147,304.422 126,310.5C 120.972,306.639 115.806,302.972 110.5,299.5C 105.194,302.972 100.028,306.639 95,310.5C 95.9973,304.167 97.8306,298 100.5,292C 95.6734,288.668 91.0067,285.168 86.5,281.5 Z"/></g>
<g><path style="opacity:1" fill="#1475cf" d="M 394.5,279.5 C 400.5,280.167 406.5,280.833 412.5,281.5C 407.993,285.168 403.327,288.668 398.5,292C 401.169,298 403.003,304.167 404,310.5C 398.972,306.639 393.806,302.972 388.5,299.5C 383.194,302.972 378.028,306.639 373,310.5C 374.058,304.64 375.558,298.806 377.5,293C 377.167,292.167 376.833,291.333 376.5,290.5C 372.432,287.479 368.432,284.479 364.5,281.5C 370.5,280.833 376.5,280.167 382.5,279.5C 383.899,273.304 385.899,267.304 388.5,261.5C 391.101,267.304 393.101,273.304 394.5,279.5 Z"/></g>
<g><path style="opacity:1" fill="#58a3df" d="M 104.5,279.5 C 98.5,280.167 92.5,280.833 86.5,281.5C 85.7109,281.217 85.0442,280.717 84.5,280C 91.1583,279.5 97.825,279.334 104.5,279.5 Z"/></g>
<g><path style="opacity:1" fill="#56a2df" d="M 382.5,279.5 C 376.5,280.167 370.5,280.833 364.5,281.5C 363.711,281.217 363.044,280.717 362.5,280C 369.158,279.5 375.825,279.334 382.5,279.5 Z"/></g>
<g><path style="opacity:1" fill="#57a2df" d="M 394.5,279.5 C 401.175,279.334 407.842,279.5 414.5,280C 413.956,280.717 413.289,281.217 412.5,281.5C 406.5,280.833 400.5,280.167 394.5,279.5 Z"/></g>
<g><path style="opacity:0.997" fill="#387fd3" d="M 13.5,332.5 C 170.833,332.5 328.167,332.5 485.5,332.5C 485.5,333.167 485.5,333.833 485.5,334.5C 328.167,334.5 170.833,334.5 13.5,334.5C 13.5,333.833 13.5,333.167 13.5,332.5 Z"/></g>
<g><path style="opacity:0.993" fill="#0072cf" d="M 13.5,334.5 C 170.833,334.5 328.167,334.5 485.5,334.5C 458.205,405.629 409.205,455.462 338.5,484C 317.652,491.713 296.319,496.88 274.5,499.5C 257.833,499.5 241.167,499.5 224.5,499.5C 136.144,487.759 70.3107,443.092 27,365.5C 21.9351,355.374 17.4351,345.041 13.5,334.5 Z"/></g>
</svg>
