<?xml version="1.0" encoding="UTF-8"?>
<!DOCTYPE svg PUBLIC "-//W3C//DTD SVG 1.1//EN" "http://www.w3.org/Graphics/SVG/1.1/DTD/svg11.dtd">
<svg xmlns="http://www.w3.org/2000/svg" version="1.1" width="500px" height="500px" style="shape-rendering:geometricPrecision; text-rendering:geometricPrecision; image-rendering:optimizeQuality; fill-rule:evenodd; clip-rule:evenodd" xmlns:xlink="http://www.w3.org/1999/xlink">
<g><path style="opacity:0.994" fill="#df2507" d="M 225.5,-0.5 C 241.5,-0.5 257.5,-0.5 273.5,-0.5C 362.269,10.9489 428.436,55.6156 472,133.5C 486.559,162.333 495.726,192.666 499.5,224.5C 499.5,241.167 499.5,257.833 499.5,274.5C 487.763,362.843 443.097,428.676 365.5,472C 336.667,486.559 306.334,495.726 274.5,499.5C 257.833,499.5 241.167,499.5 224.5,499.5C 132.595,487.071 65.4284,439.737 23,357.5C 10.7506,330.604 2.91724,302.604 -0.5,273.5C -0.5,257.5 -0.5,241.5 -0.5,225.5C 12.3703,130.238 62.0369,61.7383 148.5,20C 173.332,9.544 198.998,2.71067 225.5,-0.5 Z"/></g>
<g><path style="opacity:1" fill="#fefcfb" d="M 242.5,242.5 C 233.692,235.233 228.192,225.9 226,214.5C 223.42,199.547 225.92,185.547 233.5,172.5C 232.998,171.479 232.332,171.312 231.5,172C 217.961,197.938 220.628,222.105 239.5,244.5C 205.714,225.238 193.547,196.571 203,158.5C 216.923,121.241 243.756,103.075 283.5,104C 270.803,111.56 266.636,122.393 271,136.5C 282.84,154.448 281.84,171.781 268,188.5C 262.923,192.624 257.423,196.124 251.5,199C 237.614,211.129 234.614,225.629 242.5,242.5 Z"/></g>
<g><path style="opacity:1" fill="#e02d10" d="M 238.5,151.5 C 242.121,156.396 246.287,156.729 251,152.5C 250.52,155.165 249.687,157.831 248.5,160.5C 249.406,162.747 250.739,164.747 252.5,166.5C 249.893,167.318 247.226,167.818 244.5,168C 240.173,175.479 238.173,174.645 238.5,165.5C 229.262,165.023 228.595,163.023 236.5,159.5C 237.167,156.833 237.833,154.167 238.5,151.5 Z"/></g>
<g><path style="opacity:1" fill="#ee8776" d="M 238.5,151.5 C 237.833,154.167 237.167,156.833 236.5,159.5C 236.183,156.428 236.516,153.428 237.5,150.5C 238.107,150.624 238.44,150.957 238.5,151.5 Z"/></g>
<g><path style="opacity:1" fill="#fefcfb" d="M 120.5,172.5 C 122.917,176.142 125.083,180.142 127,184.5C 130.414,189.252 134.914,192.419 140.5,194C 148.557,194.025 156.557,193.192 164.5,191.5C 177.949,193.477 188.449,200.144 196,211.5C 199.44,219.598 202.107,227.931 204,236.5C 212.877,252.129 226.044,257.629 243.5,253C 223.336,264.625 203.336,264.292 183.5,252C 179.322,248.487 175.155,244.987 171,241.5C 170.5,241.667 170,241.833 169.5,242C 189.961,263.449 213.961,268.783 241.5,258C 213.344,283.124 183.011,286.124 150.5,267C 118.355,242.599 108.355,211.099 120.5,172.5 Z"/></g>
<g><path style="opacity:1" fill="#fefcfb" d="M 312.5,177.5 C 350.505,175.24 378.005,190.906 395,224.5C 396.167,228 397.333,231.5 398.5,235C 398.167,235.5 397.833,236 397.5,236.5C 386.481,226.599 375.148,226.099 363.5,235C 351.119,251.434 335.119,256.101 315.5,249C 309.264,245.433 303.597,241.1 298.5,236C 282.175,225.896 267.342,227.73 254,241.5C 259.354,228.145 268.854,218.645 282.5,213C 294.408,208.841 306.408,207.674 318.5,209.5C 289.858,203.111 267.691,212.445 252,237.5C 255.849,213.301 268.683,195.468 290.5,184C 297.685,180.878 305.018,178.711 312.5,177.5 Z"/></g>
<g><path style="opacity:1" fill="#e34026" d="M 242.5,242.5 C 246.387,245.73 246.053,246.064 241.5,243.5C 241.5,244.5 241.5,245.5 241.5,246.5C 240.478,246.145 239.811,245.478 239.5,244.5C 220.628,222.105 217.961,197.938 231.5,172C 232.332,171.312 232.998,171.479 233.5,172.5C 225.92,185.547 223.42,199.547 226,214.5C 228.192,225.9 233.692,235.233 242.5,242.5 Z"/></g>
<g><path style="opacity:1" fill="#e02d11" d="M 325.5,204.5 C 327.628,206.403 329.961,208.069 332.5,209.5C 335.174,208.31 337.84,207.476 340.5,207C 339.039,209.421 337.706,211.921 336.5,214.5C 338.167,216.5 339.833,218.5 341.5,220.5C 335.481,219.907 331.314,222.24 329,227.5C 328.229,224.81 327.396,222.144 326.5,219.5C 323.772,218.855 321.105,218.021 318.5,217C 320.336,215.581 322.336,214.414 324.5,213.5C 325.484,210.572 325.817,207.572 325.5,204.5 Z"/></g>
<g><path style="opacity:1" fill="#e02d11" d="M 158.5,218.5 C 160.537,220.53 162.87,222.196 165.5,223.5C 168.037,221.93 170.704,221.097 173.5,221C 172.039,223.421 170.706,225.921 169.5,228.5C 171.358,230.524 173.025,232.691 174.5,235C 172.134,235.562 169.801,235.396 167.5,234.5C 165.283,236.566 163.283,238.9 161.5,241.5C 160.686,239.234 160.186,236.9 160,234.5C 157.376,232.965 154.543,231.798 151.5,231C 153.754,229.623 155.92,228.123 158,226.5C 158.497,223.854 158.664,221.187 158.5,218.5 Z"/></g>
<g><path style="opacity:1" fill="#fefcfb" d="M 263.5,246.5 C 313.425,246.092 340.425,270.759 344.5,320.5C 344.331,349.514 332.164,371.848 308,387.5C 308.965,382.61 309.799,377.61 310.5,372.5C 309.851,366.035 307.184,360.535 302.5,356C 295.706,352.517 289.04,348.851 282.5,345C 272.38,333.247 268.88,319.747 272,304.5C 277.488,295.217 279.821,285.217 279,274.5C 276.027,262.859 268.86,255.026 257.5,251C 279.761,253.246 295.261,264.746 304,285.5C 305.817,291.085 307.317,296.752 308.5,302.5C 308.383,285.098 301.383,270.931 287.5,260C 278.937,253.475 269.27,249.475 258.5,248C 260.382,247.802 262.048,247.302 263.5,246.5 Z"/></g>
<g><path style="opacity:1" fill="#fefbfb" d="M 137.5,348.5 C 139.833,347.833 142.167,347.167 144.5,346.5C 154.976,345.86 161.809,340.526 165,330.5C 165.555,309.543 175.721,295.709 195.5,289C 202.848,288.363 210.181,288.53 217.5,289.5C 238.019,288.149 249.186,277.149 251,256.5C 255.739,286.355 244.573,308.021 217.5,321.5C 218.365,322.583 219.365,322.749 220.5,322C 239.171,313.323 250.338,298.823 254,278.5C 254.333,272.167 254.667,265.833 255,259.5C 268.594,288.664 265.261,315.664 245,340.5C 217.605,366.81 186.438,372.644 151.5,358C 146.631,355.071 141.965,351.904 137.5,348.5 Z"/></g>
<g><path style="opacity:1" fill="#e02e11" d="M 303.5,306.5 C 305.148,307.81 306.814,309.143 308.5,310.5C 310.915,309.695 313.249,308.695 315.5,307.5C 315.833,307.833 316.167,308.167 316.5,308.5C 312.173,313.7 312.84,318.2 318.5,322C 315.486,322.128 312.486,322.128 309.5,322C 308,324.167 306.5,326.333 305,328.5C 303.921,325.937 303.421,323.271 303.5,320.5C 300.375,320.135 297.375,319.302 294.5,318C 296.898,316.476 299.231,314.976 301.5,313.5C 302.167,311.167 302.833,308.833 303.5,306.5 Z"/></g>
<g><path style="opacity:1" fill="#ec7763" d="M 303.5,306.5 C 302.833,308.833 302.167,311.167 301.5,313.5C 301.335,310.482 301.502,307.482 302,304.5C 302.717,305.044 303.217,305.711 303.5,306.5 Z"/></g>
<g><path style="opacity:1" fill="#e02c10" d="M 198.5,313.5 C 200.296,314.793 201.963,316.293 203.5,318C 206.304,318.46 208.971,317.96 211.5,316.5C 212.034,319.107 211.367,321.607 209.5,324C 210.928,326.185 212.595,328.185 214.5,330C 208.698,329.349 204.531,331.516 202,336.5C 201.04,334.02 200.207,331.52 199.5,329C 196.81,328.229 194.144,327.396 191.5,326.5C 193.583,325.041 195.75,323.708 198,322.5C 198.498,319.518 198.665,316.518 198.5,313.5 Z"/></g>
<g><path style="opacity:1" fill="#ed816f" d="M 144.5,346.5 C 142.167,347.167 139.833,347.833 137.5,348.5C 136.957,348.44 136.624,348.107 136.5,347.5C 139.086,346.52 141.753,346.187 144.5,346.5 Z"/></g>
</svg>
