<?xml version="1.0" encoding="UTF-8"?>
<!DOCTYPE svg PUBLIC "-//W3C//DTD SVG 1.1//EN" "http://www.w3.org/Graphics/SVG/1.1/DTD/svg11.dtd">
<svg xmlns="http://www.w3.org/2000/svg" version="1.1" width="500px" height="500px" style="shape-rendering:geometricPrecision; text-rendering:geometricPrecision; image-rendering:optimizeQuality; fill-rule:evenodd; clip-rule:evenodd" xmlns:xlink="http://www.w3.org/1999/xlink">
<g><path style="opacity:0.995" fill="#003797" d="M 225.5,-0.5 C 241.5,-0.5 257.5,-0.5 273.5,-0.5C 358.119,10.3302 422.619,51.9969 467,124.5C 479.075,145.891 487.909,168.557 493.5,192.5C 398.833,192.5 304.167,192.5 209.5,192.5C 209.5,129.167 209.5,65.8333 209.5,2.5C 214.811,1.35471 220.144,0.354713 225.5,-0.5 Z"/></g>
<g><path style="opacity:0.997" fill="#fefffe" d="M 207.5,2.5 C 207.5,66.5 207.5,130.5 207.5,194.5C 303.167,194.5 398.833,194.5 494.5,194.5C 496.158,203.45 497.492,212.45 498.5,221.5C 392.5,221.5 286.5,221.5 180.5,221.5C 180.5,150.5 180.5,79.5 180.5,8.5C 189.378,5.99085 198.378,3.99085 207.5,2.5 Z"/></g>
<g><path style="opacity:0.998" fill="#d72a29" d="M 180.5,8.5 C 180.5,79.5 180.5,150.5 180.5,221.5C 286.5,221.5 392.5,221.5 498.5,221.5C 498.263,222.791 498.596,223.791 499.5,224.5C 499.5,241.167 499.5,257.833 499.5,274.5C 498.596,275.209 498.263,276.209 498.5,277.5C 392.5,277.5 286.5,277.5 180.5,277.5C 180.5,348.5 180.5,419.5 180.5,490.5C 160.655,485.005 141.989,477.005 124.5,466.5C 124.5,403.5 124.5,340.5 124.5,277.5C 83.1667,277.5 41.8333,277.5 0.5,277.5C 0.767809,275.901 0.434475,274.568 -0.5,273.5C -0.5,257.5 -0.5,241.5 -0.5,225.5C 0.434475,224.432 0.767809,223.099 0.5,221.5C 41.8333,221.5 83.1667,221.5 124.5,221.5C 124.5,158.5 124.5,95.5 124.5,32.5C 141.989,21.9954 160.655,13.9954 180.5,8.5 Z"/></g>
<g><path style="opacity:0.995" fill="#fcfcfd" d="M 124.5,32.5 C 124.5,95.5 124.5,158.5 124.5,221.5C 83.1667,221.5 41.8333,221.5 0.5,221.5C 1.32238,211.89 2.98905,202.557 5.5,193.5C 35.8333,193.5 66.1667,193.5 96.5,193.5C 96.5,146.167 96.5,98.8333 96.5,51.5C 105.104,44.1899 114.437,37.8566 124.5,32.5 Z"/></g>
<g><path style="opacity:0.995" fill="#002f92" d="M 96.5,51.5 C 96.5,98.8333 96.5,146.167 96.5,193.5C 66.1667,193.5 35.8333,193.5 5.5,193.5C 5.5,193.167 5.5,192.833 5.5,192.5C 35.5,192.5 65.5,192.5 95.5,192.5C 95.5,145.833 95.5,99.1667 95.5,52.5C 95.5,51.8333 95.8333,51.5 96.5,51.5 Z"/></g>
<g><path style="opacity:0.986" fill="#003797" d="M 95.5,52.5 C 95.5,99.1667 95.5,145.833 95.5,192.5C 65.5,192.5 35.5,192.5 5.5,192.5C 19.0816,134.988 49.0816,88.3208 95.5,52.5 Z"/></g>
<g><path style="opacity:0.999" fill="#002c90" d="M 208.5,2.5 C 208.833,2.5 209.167,2.5 209.5,2.5C 209.5,65.8333 209.5,129.167 209.5,192.5C 304.167,192.5 398.833,192.5 493.5,192.5C 493.5,192.833 493.5,193.167 493.5,193.5C 398.5,193.5 303.5,193.5 208.5,193.5C 208.5,129.833 208.5,66.1667 208.5,2.5 Z"/></g>
<g><path style="opacity:1" fill="#829dcb" d="M 207.5,2.5 C 207.833,2.5 208.167,2.5 208.5,2.5C 208.5,66.1667 208.5,129.833 208.5,193.5C 303.5,193.5 398.5,193.5 493.5,193.5C 494.167,193.5 494.5,193.833 494.5,194.5C 398.833,194.5 303.167,194.5 207.5,194.5C 207.5,130.5 207.5,66.5 207.5,2.5 Z"/></g>
<g><path style="opacity:0.995" fill="#fcfcfd" d="M 0.5,277.5 C 41.8333,277.5 83.1667,277.5 124.5,277.5C 124.5,340.5 124.5,403.5 124.5,466.5C 114.437,461.143 105.104,454.81 96.5,447.5C 96.5,400.167 96.5,352.833 96.5,305.5C 66.1667,305.5 35.8333,305.5 5.5,305.5C 2.98905,296.443 1.32238,287.11 0.5,277.5 Z"/></g>
<g><path style="opacity:0.997" fill="#fffefe" d="M 498.5,277.5 C 497.684,286.58 496.351,295.58 494.5,304.5C 398.833,304.5 303.167,304.5 207.5,304.5C 207.5,368.5 207.5,432.5 207.5,496.5C 198.305,495.261 189.305,493.261 180.5,490.5C 180.5,419.5 180.5,348.5 180.5,277.5C 286.5,277.5 392.5,277.5 498.5,277.5 Z"/></g>
<g><path style="opacity:0.999" fill="#002d91" d="M 493.5,305.5 C 493.5,305.833 493.5,306.167 493.5,306.5C 398.833,306.5 304.167,306.5 209.5,306.5C 209.5,369.833 209.5,433.167 209.5,496.5C 209.167,496.5 208.833,496.5 208.5,496.5C 208.5,432.833 208.5,369.167 208.5,305.5C 303.5,305.5 398.5,305.5 493.5,305.5 Z"/></g>
<g><path style="opacity:0.986" fill="#003797" d="M 5.5,306.5 C 35.5,306.5 65.5,306.5 95.5,306.5C 95.5,353.167 95.5,399.833 95.5,446.5C 49.0816,410.679 19.0816,364.012 5.5,306.5 Z"/></g>
<g><path style="opacity:0.996" fill="#002f92" d="M 5.5,306.5 C 5.5,306.167 5.5,305.833 5.5,305.5C 35.8333,305.5 66.1667,305.5 96.5,305.5C 96.5,352.833 96.5,400.167 96.5,447.5C 95.8333,447.5 95.5,447.167 95.5,446.5C 95.5,399.833 95.5,353.167 95.5,306.5C 65.5,306.5 35.5,306.5 5.5,306.5 Z"/></g>
<g><path style="opacity:0.998" fill="#7895c7" d="M 494.5,304.5 C 494.5,305.167 494.167,305.5 493.5,305.5C 398.5,305.5 303.5,305.5 208.5,305.5C 208.5,369.167 208.5,432.833 208.5,496.5C 208.167,496.5 207.833,496.5 207.5,496.5C 207.5,432.5 207.5,368.5 207.5,304.5C 303.167,304.5 398.833,304.5 494.5,304.5 Z"/></g>
<g><path style="opacity:0.995" fill="#003797" d="M 493.5,306.5 C 472.943,387.556 424.61,445.389 348.5,480C 324.625,489.967 299.958,496.467 274.5,499.5C 257.833,499.5 241.167,499.5 224.5,499.5C 219.463,498.718 214.463,497.718 209.5,496.5C 209.5,433.167 209.5,369.833 209.5,306.5C 304.167,306.5 398.833,306.5 493.5,306.5 Z"/></g>
</svg>
