<?xml version="1.0" encoding="UTF-8"?>
<!DOCTYPE svg PUBLIC "-//W3C//DTD SVG 1.1//EN" "http://www.w3.org/Graphics/SVG/1.1/DTD/svg11.dtd">
<svg xmlns="http://www.w3.org/2000/svg" version="1.1" width="500px" height="500px" style="shape-rendering:geometricPrecision; text-rendering:geometricPrecision; image-rendering:optimizeQuality; fill-rule:evenodd; clip-rule:evenodd" xmlns:xlink="http://www.w3.org/1999/xlink">
<g><path style="opacity:0.993" fill="#ff9933" d="M 225.5,-0.5 C 241.5,-0.5 257.5,-0.5 273.5,-0.5C 362.269,10.9489 428.436,55.6156 472,133.5C 477.625,144.077 482.125,155.077 485.5,166.5C 328.167,166.5 170.833,166.5 13.5,166.5C 43.991,84.513 101.324,31.3463 185.5,7C 198.832,3.72528 212.166,1.22528 225.5,-0.5 Z"/></g>
<g><path style="opacity:0.997" fill="#fefefe" d="M 13.5,166.5 C 170.833,166.5 328.167,166.5 485.5,166.5C 492.586,185.267 497.253,204.6 499.5,224.5C 499.5,241.167 499.5,257.833 499.5,274.5C 498.1,284.764 496.267,295.098 494,305.5C 492.031,314.9 489.198,323.9 485.5,332.5C 328.167,332.5 170.833,332.5 13.5,332.5C 6.28469,313.42 1.61802,293.754 -0.5,273.5C -0.5,257.5 -0.5,241.5 -0.5,225.5C 1.61802,205.246 6.28469,185.58 13.5,166.5 Z"/></g>
<g><path style="opacity:1" fill="#120a8a" d="M 242.5,182.5 C 285.927,182.932 310.593,204.599 316.5,247.5C 313.167,290.167 290.167,313.167 247.5,316.5C 207.921,311.587 186.254,289.254 182.5,249.5C 185.728,211.99 205.728,189.656 242.5,182.5 Z"/></g>
<g><path style="opacity:1" fill="#f4f4fa" d="M 244.5,191.5 C 249.175,190.93 253.342,191.93 257,194.5C 262.596,191.364 267.096,192.531 270.5,198C 277.241,196.866 281.574,199.533 283.5,206C 284.899,206.595 286.232,206.428 287.5,205.5C 291.928,207.684 293.761,211.017 293,215.5C 294.825,216.103 296.659,216.77 298.5,217.5C 299.083,219.002 299.916,220.335 301,221.5C 301.155,223.856 301.155,226.189 301,228.5C 302.11,230.037 303.61,230.703 305.5,230.5C 307.162,234.562 306.828,238.395 304.5,242C 306.422,244.025 307.422,246.525 307.5,249.5C 307.422,252.475 306.422,254.975 304.5,257C 306.822,260.306 306.988,263.806 305,267.5C 300.489,269.027 299.656,271.527 302.5,275C 300.968,277.034 299.635,279.201 298.5,281.5C 296.659,282.23 294.825,282.897 293,283.5C 293.761,287.983 291.928,291.316 287.5,293.5C 286.232,292.572 284.899,292.405 283.5,293C 282.897,294.825 282.23,296.659 281.5,298.5C 279.201,299.635 277.034,300.968 275,302.5C 271.527,299.656 269.027,300.489 267.5,305C 263.806,306.988 260.306,306.822 257,304.5C 254.975,306.422 252.475,307.422 249.5,307.5C 246.525,307.422 244.025,306.422 242,304.5C 238.395,306.828 234.562,307.162 230.5,305.5C 230.703,303.61 230.037,302.11 228.5,301C 226.189,301.155 223.856,301.155 221.5,301C 220.335,299.916 219.002,299.083 217.5,298.5C 216.77,296.659 216.103,294.825 215.5,293C 211.017,293.761 207.684,291.928 205.5,287.5C 206.428,286.232 206.595,284.899 206,283.5C 199.533,281.574 196.866,277.241 198,270.5C 192.531,267.096 191.364,262.596 194.5,257C 192.578,254.975 191.578,252.475 191.5,249.5C 191.578,246.525 192.578,244.025 194.5,242C 191.364,236.404 192.531,231.904 198,228.5C 196.866,221.759 199.533,217.426 206,215.5C 206.595,214.101 206.428,212.768 205.5,211.5C 207.684,207.072 211.017,205.239 215.5,206C 216.103,204.175 216.77,202.341 217.5,200.5C 219.002,199.917 220.335,199.084 221.5,198C 226.093,199.803 229.426,198.469 231.5,194C 235.173,191.853 238.673,192.019 242,194.5C 243.749,194.252 244.582,193.252 244.5,191.5 Z"/></g>
<g><path style="opacity:1" fill="#9695cd" d="M 201.5,261.5 C 201.5,262.167 201.833,262.5 202.5,262.5C 200.086,263.933 197.419,264.433 194.5,264C 196.808,263.009 199.141,262.176 201.5,261.5 Z"/></g>
<g><path style="opacity:1" fill="#5952ad" d="M 293.5,260.5 C 296.179,261.226 298.846,262.059 301.5,263C 297.929,263.448 294.596,262.948 291.5,261.5C 292.492,261.672 293.158,261.338 293.5,260.5 Z"/></g>
<g><path style="opacity:1" fill="#6f6ebb" d="M 294.5,248.5 C 297.397,248.125 300.063,248.625 302.5,250C 300.866,250.494 299.199,250.66 297.5,250.5C 296.5,249.833 295.5,249.167 294.5,248.5 Z"/></g>
<g><path style="opacity:1" fill="#4843a7" d="M 207.5,248.5 C 206.833,249.167 206.167,249.833 205.5,250.5C 202.15,250.665 198.817,250.498 195.5,250C 199.363,248.646 203.363,248.146 207.5,248.5 Z"/></g>
<g><path style="opacity:1" fill="#1e158d" d="M 248.5,198.5 C 249.167,198.5 249.833,198.5 250.5,198.5C 250.805,211.563 251.138,224.563 251.5,237.5C 253.818,225.213 257.151,213.213 261.5,201.5C 262.167,201.5 262.5,201.833 262.5,202.5C 260.64,214.47 257.64,226.137 253.5,237.5C 254.167,238.833 254.833,238.833 255.5,237.5C 260.979,225.873 267.479,214.873 275,204.5C 270.446,216.937 264.28,228.604 256.5,239.5C 266.544,230.074 277.044,220.407 288,210.5C 279.722,222.123 269.889,232.623 258.5,242C 270.339,235.075 282.672,228.575 295.5,222.5C 285.163,230.896 273.497,238.23 260.5,244.5C 260.833,244.833 261.167,245.167 261.5,245.5C 274.402,240.354 287.736,237.188 301.5,236C 288.354,240.549 275.021,244.383 261.5,247.5C 272.441,247.427 283.441,247.76 294.5,248.5C 295.5,249.167 296.5,249.833 297.5,250.5C 285.437,250.953 273.437,251.287 261.5,251.5C 272.399,253.689 283.065,256.689 293.5,260.5C 293.158,261.338 292.492,261.672 291.5,261.5C 281.083,260.321 271.083,257.655 261.5,253.5C 261.167,253.833 260.833,254.167 260.5,254.5C 272.836,260.437 283.836,267.437 293.5,275.5C 281.338,269.758 269.671,263.592 258.5,257C 268.102,264.765 276.435,273.598 283.5,283.5C 273.598,276.435 264.765,268.102 257,258.5C 263.592,269.671 269.758,281.338 275.5,293.5C 275.154,294.696 274.654,294.696 274,293.5C 266.87,282.871 260.37,271.871 254.5,260.5C 254.167,260.833 253.833,261.167 253.5,261.5C 257.416,271.164 260.083,281.164 261.5,291.5C 261.672,292.492 261.338,293.158 260.5,293.5C 256.69,283.069 253.69,272.402 251.5,261.5C 251.177,273.431 250.844,285.431 250.5,297.5C 249.833,296.5 249.167,295.5 248.5,294.5C 248.095,283.425 247.761,272.425 247.5,261.5C 244.383,275.021 240.549,288.354 236,301.5C 237.126,287.877 240.293,274.71 245.5,262C 245.167,261.5 244.833,261 244.5,260.5C 238.23,273.497 230.896,285.163 222.5,295.5C 228.575,282.672 235.075,270.339 242,258.5C 233.962,268.039 225.128,276.706 215.5,284.5C 215.167,284.5 214.833,284.5 214.5,284.5C 221.772,274.227 230.438,265.227 240.5,257.5C 236.766,257.947 233.433,259.781 230.5,263C 222.167,267.167 213.833,271.333 205.5,275.5C 215.164,267.437 226.164,260.437 238.5,254.5C 226.829,257.506 214.829,260.173 202.5,262.5C 201.833,262.5 201.5,262.167 201.5,261.5C 213.213,257.151 225.213,253.818 237.5,251.5C 226.879,251.538 216.213,251.205 205.5,250.5C 206.167,249.833 206.833,249.167 207.5,248.5C 217.518,247.659 227.518,247.326 237.5,247.5C 223.865,244.789 210.532,240.956 197.5,236C 211.064,237.381 224.231,240.547 237,245.5C 237.5,245.167 238,244.833 238.5,244.5C 227.129,238.63 216.129,232.13 205.5,225C 204.304,224.346 204.304,223.846 205.5,223.5C 217.693,229.256 229.36,235.423 240.5,242C 232.627,235.627 225.627,228.461 219.5,220.5C 219.5,219.833 219.833,219.5 220.5,219.5C 228.461,225.627 235.627,232.627 242,240.5C 240.978,236.76 238.978,233.426 236,230.5C 231.392,221.96 227.392,213.293 224,204.5C 231.601,215.368 238.434,226.701 244.5,238.5C 244.833,238 245.167,237.5 245.5,237C 243.608,233.325 242.108,229.491 241,225.5C 239.109,216.15 237.442,206.817 236,197.5C 240.956,210.532 244.789,223.865 247.5,237.5C 247.536,224.555 247.869,211.555 248.5,198.5 Z"/></g>
<g><path style="opacity:1" fill="#6157ae" d="M 220.5,219.5 C 219.833,219.5 219.5,219.833 219.5,220.5C 216.521,218.188 213.854,215.521 211.5,212.5C 212.002,211.479 212.668,211.312 213.5,212C 216.039,214.37 218.372,216.87 220.5,219.5 Z"/></g>
<g><path style="opacity:1" fill="#827fc4" d="M 262.5,202.5 C 262.5,201.833 262.167,201.5 261.5,201.5C 262.176,199.141 263.009,196.808 264,194.5C 264.433,197.419 263.933,200.086 262.5,202.5 Z"/></g>
<g><path style="opacity:1" fill="#a3a3d4" d="M 250.5,198.5 C 249.833,198.5 249.167,198.5 248.5,198.5C 249.167,190.5 249.833,190.5 250.5,198.5 Z"/></g>
<g><path style="opacity:1" fill="#7566b7" d="M 283.5,283.5 C 285.337,283.639 285.67,284.306 284.5,285.5C 283.702,285.043 283.369,284.376 283.5,283.5 Z"/></g>
<g><path style="opacity:1" fill="#908bca" d="M 214.5,284.5 C 214.833,284.5 215.167,284.5 215.5,284.5C 214.438,286.757 212.772,287.923 210.5,288C 211.705,286.624 213.038,285.458 214.5,284.5 Z"/></g>
<g><path style="opacity:1" fill="#5851ae" d="M 261.5,291.5 C 262.948,294.596 263.448,297.929 263,301.5C 262.059,298.846 261.226,296.179 260.5,293.5C 261.338,293.158 261.672,292.492 261.5,291.5 Z"/></g>
<g><path style="opacity:1" fill="#a6a4d5" d="M 248.5,294.5 C 249.167,295.5 249.833,296.5 250.5,297.5C 250.817,300.572 250.484,303.572 249.5,306.5C 248.509,302.555 248.176,298.555 248.5,294.5 Z"/></g>
<g><path style="opacity:0.993" fill="#138808" d="M 13.5,332.5 C 170.833,332.5 328.167,332.5 485.5,332.5C 459.059,404.776 410.059,455.276 338.5,484C 317.652,491.713 296.319,496.88 274.5,499.5C 257.833,499.5 241.167,499.5 224.5,499.5C 136.144,487.759 70.3107,443.092 27,365.5C 21.3753,354.923 16.8753,343.923 13.5,332.5 Z"/></g>
</svg>
