<?xml version="1.0" encoding="UTF-8"?>
<!DOCTYPE svg PUBLIC "-//W3C//DTD SVG 1.1//EN" "http://www.w3.org/Graphics/SVG/1.1/DTD/svg11.dtd">
<svg xmlns="http://www.w3.org/2000/svg" version="1.1" width="500px" height="500px" style="shape-rendering:geometricPrecision; text-rendering:geometricPrecision; image-rendering:optimizeQuality; fill-rule:evenodd; clip-rule:evenodd" xmlns:xlink="http://www.w3.org/1999/xlink">
<g><path style="opacity:0.992" fill="#249f40" d="M 225.5,-0.5 C 241.5,-0.5 257.5,-0.5 273.5,-0.5C 364.463,11.4596 431.463,57.7929 474.5,138.5C 464.5,138.5 454.5,138.5 444.5,138.5C 444.5,140.167 444.5,141.833 444.5,143.5C 455.167,143.5 465.833,143.5 476.5,143.5C 477.11,144.391 477.443,145.391 477.5,146.5C 474.167,146.5 470.833,146.5 467.5,146.5C 467.5,148.167 467.5,149.833 467.5,151.5C 470.247,151.187 472.914,151.52 475.5,152.5C 472.232,153.487 468.898,153.82 465.5,153.5C 465.5,151.167 465.5,148.833 465.5,146.5C 458.5,146.5 451.5,146.5 444.5,146.5C 444.5,150.833 444.5,155.167 444.5,159.5C 446.167,159.5 447.833,159.5 449.5,159.5C 449.5,156.833 449.5,154.167 449.5,151.5C 453.167,151.5 456.833,151.5 460.5,151.5C 460.5,153.833 460.5,156.167 460.5,158.5C 467.167,158.5 473.833,158.5 480.5,158.5C 480.5,156.833 480.5,155.167 480.5,153.5C 482.204,156.256 483.537,159.256 484.5,162.5C 483.566,163.568 483.232,164.901 483.5,166.5C 482.5,166.5 481.5,166.5 480.5,166.5C 480.5,165.5 480.5,164.5 480.5,163.5C 468.678,162.505 456.678,162.172 444.5,162.5C 443.833,166.5 443.167,166.5 442.5,162.5C 430.167,162.5 417.833,162.5 405.5,162.5C 404.833,166.5 404.167,166.5 403.5,162.5C 391.5,162.5 379.5,162.5 367.5,162.5C 367.5,161.5 367.5,160.5 367.5,159.5C 369.415,159.784 371.081,159.451 372.5,158.5C 372.5,156.167 372.5,153.833 372.5,151.5C 375.833,151.5 379.167,151.5 382.5,151.5C 382.5,153.833 382.5,156.167 382.5,158.5C 389.5,158.5 396.5,158.5 403.5,158.5C 403.5,154.5 403.5,150.5 403.5,146.5C 399.167,146.5 394.833,146.5 390.5,146.5C 390.5,148.167 390.5,149.833 390.5,151.5C 393.247,151.187 395.914,151.52 398.5,152.5C 394.893,153.489 391.226,153.823 387.5,153.5C 387.5,151.167 387.5,148.833 387.5,146.5C 381.013,145.672 374.346,145.172 367.5,145C 384.672,144.832 401.672,144.332 418.5,143.5C 418.5,141.833 418.5,140.167 418.5,138.5C 401.5,138.5 384.5,138.5 367.5,138.5C 366.657,140.487 365.99,142.654 365.5,145C 366.586,149.792 366.753,154.625 366,159.5C 365.617,158.944 365.117,158.611 364.5,158.5C 364.5,151.833 364.5,145.167 364.5,138.5C 362.833,138.5 361.167,138.5 359.5,138.5C 359.5,143.833 359.5,149.167 359.5,154.5C 358.5,154.5 357.5,154.5 356.5,154.5C 356.5,149.167 356.5,143.833 356.5,138.5C 354.833,138.5 353.167,138.5 351.5,138.5C 351.5,143.5 351.5,148.5 351.5,153.5C 349.859,148.749 348.859,143.749 348.5,138.5C 347.167,138.5 345.833,138.5 344.5,138.5C 343.532,140.607 343.198,142.941 343.5,145.5C 338.305,145.179 333.305,145.513 328.5,146.5C 327.676,150.312 327.176,154.312 327,158.5C 326.824,154.312 326.324,150.312 325.5,146.5C 321.167,146.5 316.833,146.5 312.5,146.5C 312.5,148.167 312.5,149.833 312.5,151.5C 315.247,151.187 317.914,151.52 320.5,152.5C 317.232,153.487 313.898,153.82 310.5,153.5C 310.5,151.167 310.5,148.833 310.5,146.5C 303.5,146.5 296.5,146.5 289.5,146.5C 289.5,150.833 289.5,155.167 289.5,159.5C 291.167,159.5 292.833,159.5 294.5,159.5C 294.5,156.833 294.5,154.167 294.5,151.5C 298.167,151.5 301.833,151.5 305.5,151.5C 305.5,153.833 305.5,156.167 305.5,158.5C 311.979,159.491 318.646,159.824 325.5,159.5C 325.5,160.5 325.5,161.5 325.5,162.5C 313.5,162.5 301.5,162.5 289.5,162.5C 288.833,166.5 288.167,166.5 287.5,162.5C 275.167,162.5 262.833,162.5 250.5,162.5C 249.833,167.833 249.167,167.833 248.5,162.5C 236.299,162.16 224.299,161.16 212.5,159.5C 214.167,159.5 215.833,159.5 217.5,159.5C 217.5,156.833 217.5,154.167 217.5,151.5C 220.833,151.5 224.167,151.5 227.5,151.5C 227.5,153.833 227.5,156.167 227.5,158.5C 234.313,159.491 241.313,159.825 248.5,159.5C 248.5,155.167 248.5,150.833 248.5,146.5C 244.353,145.675 240.019,145.175 235.5,145C 245.009,144.83 254.342,144.33 263.5,143.5C 263.5,141.833 263.5,140.167 263.5,138.5C 246.5,138.5 229.5,138.5 212.5,138.5C 211.657,140.487 210.99,142.654 210.5,145C 211.586,149.792 211.753,154.625 211,159.5C 210.617,158.944 210.117,158.611 209.5,158.5C 209.5,151.833 209.5,145.167 209.5,138.5C 207.833,138.5 206.167,138.5 204.5,138.5C 204.5,143.833 204.5,149.167 204.5,154.5C 203.5,154.5 202.5,154.5 201.5,154.5C 201.5,149.167 201.5,143.833 201.5,138.5C 199.833,138.5 198.167,138.5 196.5,138.5C 196.5,143.5 196.5,148.5 196.5,153.5C 194.859,148.749 193.859,143.749 193.5,138.5C 192.167,138.5 190.833,138.5 189.5,138.5C 188.532,140.607 188.198,142.941 188.5,145.5C 183.489,145.666 178.489,145.499 173.5,145C 178.019,144.825 182.353,144.325 186.5,143.5C 186.5,141.833 186.5,140.167 186.5,138.5C 169.167,138.5 151.833,138.5 134.5,138.5C 134.5,140.167 134.5,141.833 134.5,143.5C 141.321,144.329 148.321,144.829 155.5,145C 148.321,145.171 141.321,145.671 134.5,146.5C 134.5,150.833 134.5,155.167 134.5,159.5C 136.167,159.5 137.833,159.5 139.5,159.5C 139.5,156.833 139.5,154.167 139.5,151.5C 143.167,151.5 146.833,151.5 150.5,151.5C 150.5,153.833 150.5,156.167 150.5,158.5C 156.979,159.491 163.646,159.824 170.5,159.5C 170.5,160.5 170.5,161.5 170.5,162.5C 158.5,162.5 146.5,162.5 134.5,162.5C 134.5,163.833 134.5,165.167 134.5,166.5C 133.5,166.5 132.5,166.5 131.5,166.5C 131.5,165.167 131.5,163.833 131.5,162.5C 119.5,162.5 107.5,162.5 95.5,162.5C 94.8333,167.833 94.1667,167.833 93.5,162.5C 81.5,162.5 69.5,162.5 57.5,162.5C 57.5858,161.504 57.2524,160.671 56.5,160C 58.4727,159.505 60.4727,159.338 62.5,159.5C 62.5,156.833 62.5,154.167 62.5,151.5C 65.8333,151.5 69.1667,151.5 72.5,151.5C 72.5,153.833 72.5,156.167 72.5,158.5C 79.3134,159.491 86.3134,159.825 93.5,159.5C 93.8182,154.968 93.4849,150.634 92.5,146.5C 88.5,146.5 84.5,146.5 80.5,146.5C 80.5,148.167 80.5,149.833 80.5,151.5C 82.8333,151.5 85.1667,151.5 87.5,151.5C 84.6627,153.402 81.3293,154.069 77.5,153.5C 77.5,151.167 77.5,148.833 77.5,146.5C 71.0126,145.672 64.346,145.172 57.5,145C 74.6716,144.832 91.6716,144.332 108.5,143.5C 108.5,141.833 108.5,140.167 108.5,138.5C 91.5,138.5 74.5,138.5 57.5,138.5C 55.2463,142.892 54.9129,147.559 56.5,152.5C 56.4609,154.952 55.7943,156.952 54.5,158.5C 54.5,151.833 54.5,145.167 54.5,138.5C 52.8333,138.5 51.1667,138.5 49.5,138.5C 49.5,143.833 49.5,149.167 49.5,154.5C 48.5,154.5 47.5,154.5 46.5,154.5C 46.5,149.167 46.5,143.833 46.5,138.5C 44.8333,138.5 43.1667,138.5 41.5,138.5C 41.5,143.5 41.5,148.5 41.5,153.5C 39.8587,148.749 38.8587,143.749 38.5,138.5C 36.8333,138.5 35.1667,138.5 33.5,138.5C 33.5,141.167 33.5,143.833 33.5,146.5C 29.5,146.5 25.5,146.5 21.5,146.5C 21.5569,145.391 21.8902,144.391 22.5,143.5C 25.5,143.5 28.5,143.5 31.5,143.5C 31.5,141.833 31.5,140.167 31.5,138.5C 29.1667,138.5 26.8333,138.5 24.5,138.5C 67.6908,58.0106 134.691,11.6773 225.5,-0.5 Z"/></g>
<g><path style="opacity:0.904" fill="#f6fbf7" d="M 24.5,138.5 C 26.8333,138.5 29.1667,138.5 31.5,138.5C 31.5,140.167 31.5,141.833 31.5,143.5C 28.5,143.5 25.5,143.5 22.5,143.5C 23.4408,141.95 24.1075,140.284 24.5,138.5 Z"/></g>
<g><path style="opacity:0.96" fill="#fafcfb" d="M 474.5,138.5 C 475.441,140.05 476.107,141.716 476.5,143.5C 465.833,143.5 455.167,143.5 444.5,143.5C 444.5,141.833 444.5,140.167 444.5,138.5C 454.5,138.5 464.5,138.5 474.5,138.5 Z"/></g>
<g><path style="opacity:0.986" fill="#f8fcf9" d="M 38.5,138.5 C 38.5,143.833 38.5,149.167 38.5,154.5C 39.791,154.737 40.791,154.404 41.5,153.5C 41.5,148.5 41.5,143.5 41.5,138.5C 43.1667,138.5 44.8333,138.5 46.5,138.5C 46.5,143.833 46.5,149.167 46.5,154.5C 47.5,154.5 48.5,154.5 49.5,154.5C 49.5,149.167 49.5,143.833 49.5,138.5C 51.1667,138.5 52.8333,138.5 54.5,138.5C 54.5,145.167 54.5,151.833 54.5,158.5C 47.8333,158.5 41.1667,158.5 34.5,158.5C 34.8016,155.941 34.4682,153.607 33.5,151.5C 29.6707,150.931 26.3373,151.598 23.5,153.5C 25.6074,154.468 27.9407,154.802 30.5,154.5C 30.5,155.833 30.5,157.167 30.5,158.5C 26.5,158.5 22.5,158.5 18.5,158.5C 18.5,156.833 18.5,155.167 18.5,153.5C 18.7073,150.759 19.7073,148.426 21.5,146.5C 25.5,146.5 29.5,146.5 33.5,146.5C 33.5,143.833 33.5,141.167 33.5,138.5C 35.1667,138.5 36.8333,138.5 38.5,138.5 Z"/></g>
<g><path style="opacity:1" fill="#fbfdfc" d="M 57.5,138.5 C 74.5,138.5 91.5,138.5 108.5,138.5C 108.5,140.167 108.5,141.833 108.5,143.5C 91.5,143.5 74.5,143.5 57.5,143.5C 57.5,141.833 57.5,140.167 57.5,138.5 Z"/></g>
<g><path style="opacity:1" fill="#f7fbf8" d="M 116.5,153.5 C 117.209,154.404 118.209,154.737 119.5,154.5C 119.5,149.167 119.5,143.833 119.5,138.5C 121.167,138.5 122.833,138.5 124.5,138.5C 125.167,158.5 125.833,158.5 126.5,138.5C 128.167,138.5 129.833,138.5 131.5,138.5C 131.5,145.167 131.5,151.833 131.5,158.5C 124.833,158.5 118.167,158.5 111.5,158.5C 111.5,156.167 111.5,153.833 111.5,151.5C 108.038,150.518 104.371,150.185 100.5,150.5C 100.5,151.833 100.5,153.167 100.5,154.5C 103.167,154.5 105.833,154.5 108.5,154.5C 108.5,155.833 108.5,157.167 108.5,158.5C 104.5,158.5 100.5,158.5 96.5,158.5C 96.5,154.5 96.5,150.5 96.5,146.5C 101.5,146.5 106.5,146.5 111.5,146.5C 111.5,143.833 111.5,141.167 111.5,138.5C 113.167,138.5 114.833,138.5 116.5,138.5C 116.5,143.5 116.5,148.5 116.5,153.5 Z"/></g>
<g><path style="opacity:1" fill="#fafcfa" d="M 186.5,143.5 C 169.167,143.5 151.833,143.5 134.5,143.5C 134.5,141.833 134.5,140.167 134.5,138.5C 151.833,138.5 169.167,138.5 186.5,138.5C 186.5,140.167 186.5,141.833 186.5,143.5 Z"/></g>
<g><path style="opacity:1" fill="#fbfdfc" d="M 212.5,138.5 C 229.5,138.5 246.5,138.5 263.5,138.5C 263.5,140.167 263.5,141.833 263.5,143.5C 246.5,143.5 229.5,143.5 212.5,143.5C 212.5,141.833 212.5,140.167 212.5,138.5 Z"/></g>
<g><path style="opacity:1" fill="#fafcfa" d="M 271.5,153.5 C 272.209,154.404 273.209,154.737 274.5,154.5C 274.5,149.167 274.5,143.833 274.5,138.5C 276.167,138.5 277.833,138.5 279.5,138.5C 279.5,143.5 279.5,148.5 279.5,153.5C 280.5,153.5 281.5,153.5 282.5,153.5C 282.5,148.5 282.5,143.5 282.5,138.5C 283.833,138.5 285.167,138.5 286.5,138.5C 286.5,145.167 286.5,151.833 286.5,158.5C 279.833,158.5 273.167,158.5 266.5,158.5C 266.5,156.167 266.5,153.833 266.5,151.5C 263.038,150.518 259.371,150.185 255.5,150.5C 255.5,151.833 255.5,153.167 255.5,154.5C 258.167,154.5 260.833,154.5 263.5,154.5C 263.5,155.833 263.5,157.167 263.5,158.5C 259.5,158.5 255.5,158.5 251.5,158.5C 251.5,154.5 251.5,150.5 251.5,146.5C 256.5,146.5 261.5,146.5 266.5,146.5C 266.5,143.833 266.5,141.167 266.5,138.5C 268.167,138.5 269.833,138.5 271.5,138.5C 271.5,143.5 271.5,148.5 271.5,153.5 Z"/></g>
<g><path style="opacity:1" fill="#70c082" d="M 274.5,138.5 C 274.5,143.833 274.5,149.167 274.5,154.5C 273.209,154.737 272.209,154.404 271.5,153.5C 273.141,148.749 274.141,143.749 274.5,138.5 Z"/></g>
<g><path style="opacity:1" fill="#fafcfa" d="M 289.5,138.5 C 306.833,138.5 324.167,138.5 341.5,138.5C 341.5,140.167 341.5,141.833 341.5,143.5C 324.167,143.5 306.833,143.5 289.5,143.5C 289.5,141.833 289.5,140.167 289.5,138.5 Z"/></g>
<g><path style="opacity:1" fill="#f7fbf8" d="M 344.5,138.5 C 345.833,138.5 347.167,138.5 348.5,138.5C 348.5,143.833 348.5,149.167 348.5,154.5C 349.791,154.737 350.791,154.404 351.5,153.5C 351.5,148.5 351.5,143.5 351.5,138.5C 353.167,138.5 354.833,138.5 356.5,138.5C 356.5,143.833 356.5,149.167 356.5,154.5C 357.5,154.5 358.5,154.5 359.5,154.5C 359.5,149.167 359.5,143.833 359.5,138.5C 361.167,138.5 362.833,138.5 364.5,138.5C 364.5,145.167 364.5,151.833 364.5,158.5C 357.833,158.5 351.167,158.5 344.5,158.5C 344.802,155.941 344.468,153.607 343.5,151.5C 340.102,151.18 336.768,151.513 333.5,152.5C 336.086,153.48 338.753,153.813 341.5,153.5C 341.5,155.167 341.5,156.833 341.5,158.5C 337.167,158.5 332.833,158.5 328.5,158.5C 328.5,154.5 328.5,150.5 328.5,146.5C 333.833,146.5 339.167,146.5 344.5,146.5C 344.5,143.833 344.5,141.167 344.5,138.5 Z"/></g>
<g><path style="opacity:1" fill="#87ca96" d="M 348.5,138.5 C 348.859,143.749 349.859,148.749 351.5,153.5C 350.791,154.404 349.791,154.737 348.5,154.5C 348.5,149.167 348.5,143.833 348.5,138.5 Z"/></g>
<g><path style="opacity:1" fill="#fbfdfc" d="M 367.5,138.5 C 384.5,138.5 401.5,138.5 418.5,138.5C 418.5,140.167 418.5,141.833 418.5,143.5C 401.5,143.5 384.5,143.5 367.5,143.5C 367.5,141.833 367.5,140.167 367.5,138.5 Z"/></g>
<g><path style="opacity:1" fill="#f7fbf8" d="M 421.5,151.5 C 418.038,150.518 414.371,150.185 410.5,150.5C 410.5,151.833 410.5,153.167 410.5,154.5C 413.167,154.5 415.833,154.5 418.5,154.5C 418.5,155.833 418.5,157.167 418.5,158.5C 414.5,158.5 410.5,158.5 406.5,158.5C 406.5,154.5 406.5,150.5 406.5,146.5C 411.5,146.5 416.5,146.5 421.5,146.5C 421.5,143.833 421.5,141.167 421.5,138.5C 423.167,138.5 424.833,138.5 426.5,138.5C 426.5,143.833 426.5,149.167 426.5,154.5C 427.5,154.5 428.5,154.5 429.5,154.5C 429.5,149.167 429.5,143.833 429.5,138.5C 431.167,138.5 432.833,138.5 434.5,138.5C 435.167,158.5 435.833,158.5 436.5,138.5C 438.167,138.5 439.833,138.5 441.5,138.5C 441.5,145.167 441.5,151.833 441.5,158.5C 434.833,158.5 428.167,158.5 421.5,158.5C 421.5,156.167 421.5,153.833 421.5,151.5 Z"/></g>
<g><path style="opacity:1" fill="#7bc58d" d="M 38.5,138.5 C 38.8587,143.749 39.8587,148.749 41.5,153.5C 40.791,154.404 39.791,154.737 38.5,154.5C 38.5,149.167 38.5,143.833 38.5,138.5 Z"/></g>
<g><path style="opacity:1" fill="#7bc58d" d="M 119.5,138.5 C 119.5,143.833 119.5,149.167 119.5,154.5C 118.209,154.737 117.209,154.404 116.5,153.5C 118.141,148.749 119.141,143.749 119.5,138.5 Z"/></g>
<g><path style="opacity:1" fill="#4bae5f" d="M 57.5,138.5 C 57.5,140.167 57.5,141.833 57.5,143.5C 74.5,143.5 91.5,143.5 108.5,143.5C 91.6716,144.332 74.6716,144.832 57.5,145C 64.346,145.172 71.0126,145.672 77.5,146.5C 70.8333,146.5 64.1667,146.5 57.5,146.5C 57.5,150.5 57.5,154.5 57.5,158.5C 58.8333,158.5 60.1667,158.5 61.5,158.5C 61.1984,155.941 61.5318,153.607 62.5,151.5C 62.5,154.167 62.5,156.833 62.5,159.5C 60.4727,159.338 58.4727,159.505 56.5,160C 57.2524,160.671 57.5858,161.504 57.5,162.5C 57.5,163.833 57.5,165.167 57.5,166.5C 56.5,166.5 55.5,166.5 54.5,166.5C 54.5,165.167 54.5,163.833 54.5,162.5C 54.5,161.5 54.5,160.5 54.5,159.5C 54.5,159.167 54.5,158.833 54.5,158.5C 55.7943,156.952 56.4609,154.952 56.5,152.5C 54.9129,147.559 55.2463,142.892 57.5,138.5 Z"/></g>
<g><path style="opacity:1" fill="#42ab59" d="M 367.5,138.5 C 367.5,140.167 367.5,141.833 367.5,143.5C 384.5,143.5 401.5,143.5 418.5,143.5C 401.672,144.332 384.672,144.832 367.5,145C 374.346,145.172 381.013,145.672 387.5,146.5C 380.833,146.5 374.167,146.5 367.5,146.5C 367.5,150.5 367.5,154.5 367.5,158.5C 369.167,158.5 370.833,158.5 372.5,158.5C 371.081,159.451 369.415,159.784 367.5,159.5C 367.5,160.5 367.5,161.5 367.5,162.5C 367.5,162.833 367.5,163.167 367.5,163.5C 367.5,164.5 367.5,165.5 367.5,166.5C 366.5,166.5 365.5,166.5 364.5,166.5C 364.5,165.167 364.5,163.833 364.5,162.5C 364.5,161.5 364.5,160.5 364.5,159.5C 364.5,159.167 364.5,158.833 364.5,158.5C 365.117,158.611 365.617,158.944 366,159.5C 366.753,154.625 366.586,149.792 365.5,145C 365.99,142.654 366.657,140.487 367.5,138.5 Z"/></g>
<g><path style="opacity:1" fill="#6ebf7f" d="M 344.5,138.5 C 344.5,141.167 344.5,143.833 344.5,146.5C 339.167,146.5 333.833,146.5 328.5,146.5C 333.305,145.513 338.305,145.179 343.5,145.5C 343.198,142.941 343.532,140.607 344.5,138.5 Z"/></g>
<g><path style="opacity:1" fill="#fafdfb" d="M 77.5,146.5 C 77.5,148.833 77.5,151.167 77.5,153.5C 80.9619,154.482 84.6286,154.815 88.5,154.5C 88.7373,153.209 88.404,152.209 87.5,151.5C 85.1667,151.5 82.8333,151.5 80.5,151.5C 80.5,149.833 80.5,148.167 80.5,146.5C 84.5,146.5 88.5,146.5 92.5,146.5C 92.5,150.5 92.5,154.5 92.5,158.5C 85.8333,158.5 79.1667,158.5 72.5,158.5C 72.5,156.167 72.5,153.833 72.5,151.5C 69.1667,151.5 65.8333,151.5 62.5,151.5C 61.5318,153.607 61.1984,155.941 61.5,158.5C 60.1667,158.5 58.8333,158.5 57.5,158.5C 57.5,154.5 57.5,150.5 57.5,146.5C 64.1667,146.5 70.8333,146.5 77.5,146.5 Z"/></g>
<g><path style="opacity:1" fill="#f2f9f4" d="M 134.5,146.5 C 141.5,146.5 148.5,146.5 155.5,146.5C 155.5,148.833 155.5,151.167 155.5,153.5C 158.898,153.82 162.232,153.487 165.5,152.5C 162.914,151.52 160.247,151.187 157.5,151.5C 157.5,149.833 157.5,148.167 157.5,146.5C 161.833,146.5 166.167,146.5 170.5,146.5C 170.5,150.5 170.5,154.5 170.5,158.5C 163.833,158.5 157.167,158.5 150.5,158.5C 150.5,156.167 150.5,153.833 150.5,151.5C 146.833,151.5 143.167,151.5 139.5,151.5C 139.5,154.167 139.5,156.833 139.5,159.5C 137.833,159.5 136.167,159.5 134.5,159.5C 134.5,155.167 134.5,150.833 134.5,146.5 Z"/></g>
<g><path style="opacity:1" fill="#fafdfb" d="M 232.5,153.5 C 235.962,154.482 239.629,154.815 243.5,154.5C 243.737,153.209 243.404,152.209 242.5,151.5C 240.167,151.5 237.833,151.5 235.5,151.5C 235.5,149.833 235.5,148.167 235.5,146.5C 239.5,146.5 243.5,146.5 247.5,146.5C 247.5,150.5 247.5,154.5 247.5,158.5C 240.833,158.5 234.167,158.5 227.5,158.5C 227.5,156.167 227.5,153.833 227.5,151.5C 224.167,151.5 220.833,151.5 217.5,151.5C 216.532,153.607 216.198,155.941 216.5,158.5C 215.167,158.5 213.833,158.5 212.5,158.5C 212.5,154.5 212.5,150.5 212.5,146.5C 219.167,146.5 225.833,146.5 232.5,146.5C 232.5,148.833 232.5,151.167 232.5,153.5 Z"/></g>
<g><path style="opacity:1" fill="#f2f9f4" d="M 325.5,146.5 C 325.5,150.5 325.5,154.5 325.5,158.5C 318.833,158.5 312.167,158.5 305.5,158.5C 305.5,156.167 305.5,153.833 305.5,151.5C 301.833,151.5 298.167,151.5 294.5,151.5C 294.5,154.167 294.5,156.833 294.5,159.5C 292.833,159.5 291.167,159.5 289.5,159.5C 289.5,155.167 289.5,150.833 289.5,146.5C 296.5,146.5 303.5,146.5 310.5,146.5C 310.5,148.833 310.5,151.167 310.5,153.5C 313.898,153.82 317.232,153.487 320.5,152.5C 317.914,151.52 315.247,151.187 312.5,151.5C 312.5,149.833 312.5,148.167 312.5,146.5C 316.833,146.5 321.167,146.5 325.5,146.5 Z"/></g>
<g><path style="opacity:1" fill="#f4faf5" d="M 387.5,146.5 C 387.5,148.833 387.5,151.167 387.5,153.5C 391.226,153.823 394.893,153.489 398.5,152.5C 395.914,151.52 393.247,151.187 390.5,151.5C 390.5,149.833 390.5,148.167 390.5,146.5C 394.833,146.5 399.167,146.5 403.5,146.5C 403.5,150.5 403.5,154.5 403.5,158.5C 396.5,158.5 389.5,158.5 382.5,158.5C 382.5,156.167 382.5,153.833 382.5,151.5C 379.167,151.5 375.833,151.5 372.5,151.5C 372.5,153.833 372.5,156.167 372.5,158.5C 370.833,158.5 369.167,158.5 367.5,158.5C 367.5,154.5 367.5,150.5 367.5,146.5C 374.167,146.5 380.833,146.5 387.5,146.5 Z"/></g>
<g><path style="opacity:0.982" fill="#f2f9f3" d="M 477.5,146.5 C 479.293,148.426 480.293,150.759 480.5,153.5C 480.5,155.167 480.5,156.833 480.5,158.5C 473.833,158.5 467.167,158.5 460.5,158.5C 460.5,156.167 460.5,153.833 460.5,151.5C 456.833,151.5 453.167,151.5 449.5,151.5C 449.5,154.167 449.5,156.833 449.5,159.5C 447.833,159.5 446.167,159.5 444.5,159.5C 444.5,155.167 444.5,150.833 444.5,146.5C 451.5,146.5 458.5,146.5 465.5,146.5C 465.5,148.833 465.5,151.167 465.5,153.5C 468.898,153.82 472.232,153.487 475.5,152.5C 472.914,151.52 470.247,151.187 467.5,151.5C 467.5,149.833 467.5,148.167 467.5,146.5C 470.833,146.5 474.167,146.5 477.5,146.5 Z"/></g>
<g><path style="opacity:1" fill="#95d0a3" d="M 87.5,151.5 C 88.404,152.209 88.7373,153.209 88.5,154.5C 84.6286,154.815 80.9619,154.482 77.5,153.5C 81.3293,154.069 84.6627,153.402 87.5,151.5 Z"/></g>
<g><path style="opacity:1" fill="#a7d8b2" d="M 111.5,151.5 C 108.102,151.18 104.768,151.513 101.5,152.5C 103.969,153.168 106.302,153.835 108.5,154.5C 105.833,154.5 103.167,154.5 100.5,154.5C 100.5,153.167 100.5,151.833 100.5,150.5C 104.371,150.185 108.038,150.518 111.5,151.5 Z"/></g>
<g><path style="opacity:1" fill="#93d0a1" d="M 242.5,151.5 C 243.404,152.209 243.737,153.209 243.5,154.5C 239.629,154.815 235.962,154.482 232.5,153.5C 236.329,154.069 239.663,153.402 242.5,151.5 Z"/></g>
<g><path style="opacity:1" fill="#a7d8b2" d="M 266.5,151.5 C 263.102,151.18 259.768,151.513 256.5,152.5C 258.969,153.168 261.302,153.835 263.5,154.5C 260.833,154.5 258.167,154.5 255.5,154.5C 255.5,153.167 255.5,151.833 255.5,150.5C 259.371,150.185 263.038,150.518 266.5,151.5 Z"/></g>
<g><path style="opacity:1" fill="#a8d9b3" d="M 421.5,151.5 C 418.102,151.18 414.768,151.513 411.5,152.5C 413.969,153.168 416.302,153.835 418.5,154.5C 415.833,154.5 413.167,154.5 410.5,154.5C 410.5,153.167 410.5,151.833 410.5,150.5C 414.371,150.185 418.038,150.518 421.5,151.5 Z"/></g>
<g><path style="opacity:1" fill="#edf7ef" d="M 142.5,153.5 C 144.167,153.5 145.833,153.5 147.5,153.5C 147.5,155.167 147.5,156.833 147.5,158.5C 145.833,158.5 144.167,158.5 142.5,158.5C 142.5,156.833 142.5,155.167 142.5,153.5 Z"/></g>
<g><path style="opacity:1" fill="#fefffe" d="M 224.5,154.5 C 224.5,155.833 224.5,157.167 224.5,158.5C 223.167,158.5 221.833,158.5 220.5,158.5C 220.5,157.167 220.5,155.833 220.5,154.5C 221.833,154.5 223.167,154.5 224.5,154.5 Z"/></g>
<g><path style="opacity:1" fill="#e7f4ea" d="M 297.5,153.5 C 299.167,153.5 300.833,153.5 302.5,153.5C 302.5,155.5 302.5,157.5 302.5,159.5C 300.833,159.5 299.167,159.5 297.5,159.5C 297.5,157.5 297.5,155.5 297.5,153.5 Z"/></g>
<g><path style="opacity:1" fill="#e8f5ea" d="M 452.5,153.5 C 454.167,153.5 455.833,153.5 457.5,153.5C 457.5,155.5 457.5,157.5 457.5,159.5C 455.833,159.5 454.167,159.5 452.5,159.5C 452.5,157.5 452.5,155.5 452.5,153.5 Z"/></g>
<g><path style="opacity:1" fill="#91cf9f" d="M 64.5,153.5 C 66.5,153.5 68.5,153.5 70.5,153.5C 70.5,155.5 70.5,157.5 70.5,159.5C 68.5,159.5 66.5,159.5 64.5,159.5C 64.5,157.5 64.5,155.5 64.5,153.5 Z"/></g>
<g><path style="opacity:1" fill="#fefffe" d="M 65.5,154.5 C 66.8333,154.5 68.1667,154.5 69.5,154.5C 69.5,155.833 69.5,157.167 69.5,158.5C 68.1667,158.5 66.8333,158.5 65.5,158.5C 65.5,157.167 65.5,155.833 65.5,154.5 Z"/></g>
<g><path style="opacity:1" fill="#98d2a5" d="M 224.5,154.5 C 223.167,154.5 221.833,154.5 220.5,154.5C 220.5,155.833 220.5,157.167 220.5,158.5C 221.833,158.5 223.167,158.5 224.5,158.5C 223.081,159.451 221.415,159.784 219.5,159.5C 219.5,157.5 219.5,155.5 219.5,153.5C 221.415,153.216 223.081,153.549 224.5,154.5 Z"/></g>
<g><path style="opacity:1" fill="#8acc99" d="M 379.5,158.5 C 378.081,159.451 376.415,159.784 374.5,159.5C 374.5,157.5 374.5,155.5 374.5,153.5C 376.5,153.5 378.5,153.5 380.5,153.5C 380.784,155.415 380.451,157.081 379.5,158.5 Z"/></g>
<g><path style="opacity:1" fill="#fefffe" d="M 379.5,158.5 C 378.167,158.5 376.833,158.5 375.5,158.5C 375.5,157.167 375.5,155.833 375.5,154.5C 376.833,154.5 378.167,154.5 379.5,154.5C 379.5,155.833 379.5,157.167 379.5,158.5 Z"/></g>
<g><path style="opacity:1" fill="#8fce9e" d="M 33.5,151.5 C 34.4682,153.607 34.8016,155.941 34.5,158.5C 41.1667,158.5 47.8333,158.5 54.5,158.5C 54.5,158.833 54.5,159.167 54.5,159.5C 47.5,159.5 40.5,159.5 33.5,159.5C 33.5,156.833 33.5,154.167 33.5,151.5 Z"/></g>
<g><path style="opacity:1" fill="#91cfa0" d="M 92.5,146.5 C 93.4849,150.634 93.8182,154.968 93.5,159.5C 86.3134,159.825 79.3134,159.491 72.5,158.5C 79.1667,158.5 85.8333,158.5 92.5,158.5C 92.5,154.5 92.5,150.5 92.5,146.5 Z"/></g>
<g><path style="opacity:1" fill="#93d0a1" d="M 96.5,146.5 C 96.5,150.5 96.5,154.5 96.5,158.5C 100.5,158.5 104.5,158.5 108.5,158.5C 104.366,159.485 100.032,159.818 95.5,159.5C 95.1818,154.968 95.5151,150.634 96.5,146.5 Z"/></g>
<g><path style="opacity:1" fill="#98d2a5" d="M 217.5,151.5 C 217.5,154.167 217.5,156.833 217.5,159.5C 215.833,159.5 214.167,159.5 212.5,159.5C 212.5,159.167 212.5,158.833 212.5,158.5C 213.833,158.5 215.167,158.5 216.5,158.5C 216.198,155.941 216.532,153.607 217.5,151.5 Z"/></g>
<g><path style="opacity:1" fill="#95d0a3" d="M 247.5,146.5 C 247.833,146.5 248.167,146.5 248.5,146.5C 248.5,150.833 248.5,155.167 248.5,159.5C 241.313,159.825 234.313,159.491 227.5,158.5C 234.167,158.5 240.833,158.5 247.5,158.5C 247.5,154.5 247.5,150.5 247.5,146.5 Z"/></g>
<g><path style="opacity:1" fill="#91cf9f" d="M 251.5,146.5 C 251.5,150.5 251.5,154.5 251.5,158.5C 255.5,158.5 259.5,158.5 263.5,158.5C 259.366,159.485 255.032,159.818 250.5,159.5C 250.182,154.968 250.515,150.634 251.5,146.5 Z"/></g>
<g><path style="opacity:1" fill="#8dcd9c" d="M 286.5,138.5 C 287.491,145.313 287.825,152.313 287.5,159.5C 280.313,159.825 273.313,159.491 266.5,158.5C 273.167,158.5 279.833,158.5 286.5,158.5C 286.5,151.833 286.5,145.167 286.5,138.5 Z"/></g>
<g><path style="opacity:1" fill="#8ccc9b" d="M 343.5,151.5 C 344.468,153.607 344.802,155.941 344.5,158.5C 351.167,158.5 357.833,158.5 364.5,158.5C 364.5,158.833 364.5,159.167 364.5,159.5C 357.5,159.5 350.5,159.5 343.5,159.5C 343.5,156.833 343.5,154.167 343.5,151.5 Z"/></g>
<g><path style="opacity:1" fill="#8ece9d" d="M 406.5,146.5 C 406.5,150.5 406.5,154.5 406.5,158.5C 410.5,158.5 414.5,158.5 418.5,158.5C 414.366,159.485 410.032,159.818 405.5,159.5C 405.182,154.968 405.515,150.634 406.5,146.5 Z"/></g>
<g><path style="opacity:1" fill="#5bb56c" d="M 325.5,146.5 C 326.324,150.312 326.824,154.312 327,158.5C 327.176,154.312 327.676,150.312 328.5,146.5C 328.5,150.5 328.5,154.5 328.5,158.5C 332.833,158.5 337.167,158.5 341.5,158.5C 337.366,159.485 333.032,159.818 328.5,159.5C 328.5,160.5 328.5,161.5 328.5,162.5C 328.5,163.833 328.5,165.167 328.5,166.5C 327.5,166.5 326.5,166.5 325.5,166.5C 325.5,165.167 325.5,163.833 325.5,162.5C 325.5,161.5 325.5,160.5 325.5,159.5C 318.646,159.824 311.979,159.491 305.5,158.5C 312.167,158.5 318.833,158.5 325.5,158.5C 325.5,154.5 325.5,150.5 325.5,146.5 Z"/></g>
<g><path style="opacity:1" fill="#229e3e" d="M 33.5,151.5 C 33.5,154.167 33.5,156.833 33.5,159.5C 40.5,159.5 47.5,159.5 54.5,159.5C 54.5,160.5 54.5,161.5 54.5,162.5C 42.5,162.5 30.5,162.5 18.5,162.5C 18.5,163.833 18.5,165.167 18.5,166.5C 17.5,166.5 16.5,166.5 15.5,166.5C 15.7678,164.901 15.4345,163.568 14.5,162.5C 15.5969,159.314 16.9303,156.314 18.5,153.5C 18.5,155.167 18.5,156.833 18.5,158.5C 22.6344,159.485 26.9677,159.818 31.5,159.5C 31.5,157.5 31.5,155.5 31.5,153.5C 28.8333,153.5 26.1667,153.5 23.5,153.5C 26.3373,151.598 29.6707,150.931 33.5,151.5 Z"/></g>
<g><path style="opacity:1" fill="#8dcd9c" d="M 23.5,153.5 C 26.1667,153.5 28.8333,153.5 31.5,153.5C 31.5,155.5 31.5,157.5 31.5,159.5C 26.9677,159.818 22.6344,159.485 18.5,158.5C 22.5,158.5 26.5,158.5 30.5,158.5C 30.5,157.167 30.5,155.833 30.5,154.5C 27.9407,154.802 25.6074,154.468 23.5,153.5 Z"/></g>
<g><path style="opacity:1" fill="#1f9d3c" d="M 343.5,151.5 C 343.5,154.167 343.5,156.833 343.5,159.5C 350.5,159.5 357.5,159.5 364.5,159.5C 364.5,160.5 364.5,161.5 364.5,162.5C 352.5,162.5 340.5,162.5 328.5,162.5C 328.5,161.5 328.5,160.5 328.5,159.5C 333.032,159.818 337.366,159.485 341.5,158.5C 341.5,156.833 341.5,155.167 341.5,153.5C 338.753,153.813 336.086,153.48 333.5,152.5C 336.768,151.513 340.102,151.18 343.5,151.5 Z"/></g>
<g><path style="opacity:1" fill="#38a64e" d="M 189.5,138.5 C 189.5,141.167 189.5,143.833 189.5,146.5C 184.167,146.5 178.833,146.5 173.5,146.5C 173.5,150.5 173.5,154.5 173.5,158.5C 177.634,159.485 181.968,159.818 186.5,159.5C 186.5,157.5 186.5,155.5 186.5,153.5C 183.833,153.5 181.167,153.5 178.5,153.5C 181.337,151.598 184.671,150.931 188.5,151.5C 188.5,154.167 188.5,156.833 188.5,159.5C 195.687,159.825 202.687,159.491 209.5,158.5C 210.117,158.611 210.617,158.944 211,159.5C 211.753,154.625 211.586,149.792 210.5,145C 210.99,142.654 211.657,140.487 212.5,138.5C 212.5,140.167 212.5,141.833 212.5,143.5C 229.5,143.5 246.5,143.5 263.5,143.5C 254.342,144.33 245.009,144.83 235.5,145C 240.019,145.175 244.353,145.675 248.5,146.5C 248.167,146.5 247.833,146.5 247.5,146.5C 243.5,146.5 239.5,146.5 235.5,146.5C 235.5,148.167 235.5,149.833 235.5,151.5C 237.833,151.5 240.167,151.5 242.5,151.5C 239.663,153.402 236.329,154.069 232.5,153.5C 232.5,151.167 232.5,148.833 232.5,146.5C 225.833,146.5 219.167,146.5 212.5,146.5C 212.5,150.5 212.5,154.5 212.5,158.5C 212.5,158.833 212.5,159.167 212.5,159.5C 224.299,161.16 236.299,162.16 248.5,162.5C 236.5,162.5 224.5,162.5 212.5,162.5C 212.5,163.833 212.5,165.167 212.5,166.5C 211.5,166.5 210.5,166.5 209.5,166.5C 209.5,165.167 209.5,163.833 209.5,162.5C 197.5,162.5 185.5,162.5 173.5,162.5C 173.5,163.833 173.5,165.167 173.5,166.5C 172.5,166.5 171.5,166.5 170.5,166.5C 170.5,165.167 170.5,163.833 170.5,162.5C 170.5,161.5 170.5,160.5 170.5,159.5C 163.646,159.824 156.979,159.491 150.5,158.5C 157.167,158.5 163.833,158.5 170.5,158.5C 170.5,154.5 170.5,150.5 170.5,146.5C 166.167,146.5 161.833,146.5 157.5,146.5C 157.5,148.167 157.5,149.833 157.5,151.5C 160.247,151.187 162.914,151.52 165.5,152.5C 162.232,153.487 158.898,153.82 155.5,153.5C 155.5,151.167 155.5,148.833 155.5,146.5C 148.5,146.5 141.5,146.5 134.5,146.5C 141.321,145.671 148.321,145.171 155.5,145C 148.321,144.829 141.321,144.329 134.5,143.5C 151.833,143.5 169.167,143.5 186.5,143.5C 182.353,144.325 178.019,144.825 173.5,145C 178.489,145.499 183.489,145.666 188.5,145.5C 188.198,142.941 188.532,140.607 189.5,138.5 Z"/></g>
<g><path style="opacity:1" fill="#8dcd9c" d="M 188.5,151.5 C 189.468,153.607 189.802,155.941 189.5,158.5C 196.167,158.5 202.833,158.5 209.5,158.5C 202.687,159.491 195.687,159.825 188.5,159.5C 188.5,156.833 188.5,154.167 188.5,151.5 Z"/></g>
<g><path style="opacity:1" fill="#8fce9d" d="M 178.5,153.5 C 181.167,153.5 183.833,153.5 186.5,153.5C 186.5,155.5 186.5,157.5 186.5,159.5C 181.968,159.818 177.634,159.485 173.5,158.5C 177.5,158.5 181.5,158.5 185.5,158.5C 185.5,157.167 185.5,155.833 185.5,154.5C 182.941,154.802 180.607,154.468 178.5,153.5 Z"/></g>
<g><path style="opacity:1" fill="#fafcfa" d="M 189.5,138.5 C 190.833,138.5 192.167,138.5 193.5,138.5C 193.5,143.833 193.5,149.167 193.5,154.5C 194.791,154.737 195.791,154.404 196.5,153.5C 196.5,148.5 196.5,143.5 196.5,138.5C 198.167,138.5 199.833,138.5 201.5,138.5C 201.5,143.833 201.5,149.167 201.5,154.5C 202.5,154.5 203.5,154.5 204.5,154.5C 204.5,149.167 204.5,143.833 204.5,138.5C 206.167,138.5 207.833,138.5 209.5,138.5C 209.5,145.167 209.5,151.833 209.5,158.5C 202.833,158.5 196.167,158.5 189.5,158.5C 189.802,155.941 189.468,153.607 188.5,151.5C 184.671,150.931 181.337,151.598 178.5,153.5C 180.607,154.468 182.941,154.802 185.5,154.5C 185.5,155.833 185.5,157.167 185.5,158.5C 181.5,158.5 177.5,158.5 173.5,158.5C 173.5,154.5 173.5,150.5 173.5,146.5C 178.833,146.5 184.167,146.5 189.5,146.5C 189.5,143.833 189.5,141.167 189.5,138.5 Z"/></g>
<g><path style="opacity:1" fill="#81c791" d="M 193.5,138.5 C 193.859,143.749 194.859,148.749 196.5,153.5C 195.791,154.404 194.791,154.737 193.5,154.5C 193.5,149.167 193.5,143.833 193.5,138.5 Z"/></g>
<g><path style="opacity:0.997" fill="#fefefe" d="M 14.5,162.5 C 15.4345,163.568 15.7678,164.901 15.5,166.5C 16.5,166.5 17.5,166.5 18.5,166.5C 18.5,165.167 18.5,163.833 18.5,162.5C 30.5,162.5 42.5,162.5 54.5,162.5C 54.5,163.833 54.5,165.167 54.5,166.5C 55.5,166.5 56.5,166.5 57.5,166.5C 57.5,165.167 57.5,163.833 57.5,162.5C 69.5,162.5 81.5,162.5 93.5,162.5C 94.1667,167.833 94.8333,167.833 95.5,162.5C 107.5,162.5 119.5,162.5 131.5,162.5C 131.5,163.833 131.5,165.167 131.5,166.5C 132.5,166.5 133.5,166.5 134.5,166.5C 134.5,165.167 134.5,163.833 134.5,162.5C 146.5,162.5 158.5,162.5 170.5,162.5C 170.5,163.833 170.5,165.167 170.5,166.5C 171.5,166.5 172.5,166.5 173.5,166.5C 173.5,165.167 173.5,163.833 173.5,162.5C 185.5,162.5 197.5,162.5 209.5,162.5C 209.5,163.833 209.5,165.167 209.5,166.5C 210.5,166.5 211.5,166.5 212.5,166.5C 212.5,165.167 212.5,163.833 212.5,162.5C 224.5,162.5 236.5,162.5 248.5,162.5C 249.167,167.833 249.833,167.833 250.5,162.5C 262.833,162.5 275.167,162.5 287.5,162.5C 288.167,166.5 288.833,166.5 289.5,162.5C 301.5,162.5 313.5,162.5 325.5,162.5C 325.5,163.833 325.5,165.167 325.5,166.5C 326.5,166.5 327.5,166.5 328.5,166.5C 328.5,165.167 328.5,163.833 328.5,162.5C 340.5,162.5 352.5,162.5 364.5,162.5C 364.5,163.833 364.5,165.167 364.5,166.5C 365.5,166.5 366.5,166.5 367.5,166.5C 367.5,165.5 367.5,164.5 367.5,163.5C 379.167,163.5 390.833,163.5 402.5,163.5C 402.5,164.5 402.5,165.5 402.5,166.5C 403.833,166.5 405.167,166.5 406.5,166.5C 406.5,165.5 406.5,164.5 406.5,163.5C 418.167,163.5 429.833,163.5 441.5,163.5C 441.5,164.5 441.5,165.5 441.5,166.5C 442.833,166.5 444.167,166.5 445.5,166.5C 445.5,165.5 445.5,164.5 445.5,163.5C 457.167,163.5 468.833,163.5 480.5,163.5C 480.5,164.5 480.5,165.5 480.5,166.5C 481.5,166.5 482.5,166.5 483.5,166.5C 483.232,164.901 483.566,163.568 484.5,162.5C 492.04,182.659 497.04,203.325 499.5,224.5C 499.5,241.167 499.5,257.833 499.5,274.5C 497.038,295.685 492.038,316.351 484.5,336.5C 483.566,335.432 483.232,334.099 483.5,332.5C 482.5,332.5 481.5,332.5 480.5,332.5C 480.5,333.5 480.5,334.5 480.5,335.5C 468.833,335.5 457.167,335.5 445.5,335.5C 445.5,334.5 445.5,333.5 445.5,332.5C 444.167,332.5 442.833,332.5 441.5,332.5C 441.5,333.5 441.5,334.5 441.5,335.5C 429.833,335.5 418.167,335.5 406.5,335.5C 406.5,334.5 406.5,333.5 406.5,332.5C 405.167,332.5 403.833,332.5 402.5,332.5C 402.5,333.5 402.5,334.5 402.5,335.5C 390.833,335.5 379.167,335.5 367.5,335.5C 367.5,334.5 367.5,333.5 367.5,332.5C 366.5,332.5 365.5,332.5 364.5,332.5C 364.5,333.833 364.5,335.167 364.5,336.5C 352.5,336.5 340.5,336.5 328.5,336.5C 328.5,335.167 328.5,333.833 328.5,332.5C 327.5,332.5 326.5,332.5 325.5,332.5C 325.5,333.5 325.5,334.5 325.5,335.5C 313.833,335.5 302.167,335.5 290.5,335.5C 290.5,334.5 290.5,333.5 290.5,332.5C 289.167,332.5 287.833,332.5 286.5,332.5C 286.5,333.5 286.5,334.5 286.5,335.5C 274.833,335.5 263.167,335.5 251.5,335.5C 251.5,334.5 251.5,333.5 251.5,332.5C 250.167,332.5 248.833,332.5 247.5,332.5C 247.5,333.833 247.5,335.167 247.5,336.5C 235.833,336.5 224.167,336.5 212.5,336.5C 212.5,335.167 212.5,333.833 212.5,332.5C 211.5,332.5 210.5,332.5 209.5,332.5C 209.5,333.833 209.5,335.167 209.5,336.5C 197.5,336.5 185.5,336.5 173.5,336.5C 173.5,335.167 173.5,333.833 173.5,332.5C 172.5,332.5 171.5,332.5 170.5,332.5C 170.5,333.833 170.5,335.167 170.5,336.5C 158.5,336.5 146.5,336.5 134.5,336.5C 134.5,335.167 134.5,333.833 134.5,332.5C 133.5,332.5 132.5,332.5 131.5,332.5C 131.5,333.833 131.5,335.167 131.5,336.5C 119.833,336.5 108.167,336.5 96.5,336.5C 96.5,335.167 96.5,333.833 96.5,332.5C 95.1667,332.5 93.8333,332.5 92.5,332.5C 92.5,333.833 92.5,335.167 92.5,336.5C 80.8333,336.5 69.1667,336.5 57.5,336.5C 57.5,335.167 57.5,333.833 57.5,332.5C 56.5,332.5 55.5,332.5 54.5,332.5C 54.5,333.833 54.5,335.167 54.5,336.5C 42.5,336.5 30.5,336.5 18.5,336.5C 18.5,335.167 18.5,333.833 18.5,332.5C 17.5,332.5 16.5,332.5 15.5,332.5C 15.7678,334.099 15.4345,335.432 14.5,336.5C 6.81051,316.033 1.81051,295.033 -0.5,273.5C -0.5,257.5 -0.5,241.5 -0.5,225.5C 1.81051,203.967 6.81051,182.967 14.5,162.5 Z"/></g>
<g><path style="opacity:1" fill="#dff1e2" d="M 367.5,163.5 C 367.5,163.167 367.5,162.833 367.5,162.5C 379.5,162.5 391.5,162.5 403.5,162.5C 404.167,166.5 404.833,166.5 405.5,162.5C 417.833,162.5 430.167,162.5 442.5,162.5C 443.167,166.5 443.833,166.5 444.5,162.5C 456.678,162.172 468.678,162.505 480.5,163.5C 468.833,163.5 457.167,163.5 445.5,163.5C 445.5,164.5 445.5,165.5 445.5,166.5C 444.167,166.5 442.833,166.5 441.5,166.5C 441.5,165.5 441.5,164.5 441.5,163.5C 429.833,163.5 418.167,163.5 406.5,163.5C 406.5,164.5 406.5,165.5 406.5,166.5C 405.167,166.5 403.833,166.5 402.5,166.5C 402.5,165.5 402.5,164.5 402.5,163.5C 390.833,163.5 379.167,163.5 367.5,163.5 Z"/></g>
<g><path style="opacity:1" fill="#dc1e15" d="M 233.5,191.5 C 235.63,193.127 237.63,194.96 239.5,197C 243.295,197.979 246.628,197.146 249.5,194.5C 255.69,199.162 260.856,198.162 265,191.5C 266.216,198.621 263.216,202.621 256,203.5C 253.752,202.771 251.585,201.771 249.5,200.5C 239.536,205.85 234.203,202.85 233.5,191.5 Z"/></g>
<g><path style="opacity:1" fill="#da0e07" d="M 255.5,283.5 C 254.207,285.364 254.207,287.364 255.5,289.5C 256.107,289.376 256.44,289.043 256.5,288.5C 281.13,266.013 286.13,239.68 271.5,209.5C 271.5,208.833 271.833,208.5 272.5,208.5C 288.359,226.29 292.525,246.623 285,269.5C 279.71,281.458 271.543,290.958 260.5,298C 263.21,299.747 266.21,300.747 269.5,301C 273.5,301.333 277.5,301.667 281.5,302C 272.928,304.494 264.261,304.994 255.5,303.5C 253.139,305.194 251.139,307.194 249.5,309.5C 247.779,306.779 245.446,304.779 242.5,303.5C 234.004,305.167 225.671,304.667 217.5,302C 224.706,301.633 231.706,300.3 238.5,298C 212.262,279.901 204.428,255.734 215,225.5C 217.245,220.003 220.245,215.003 224,210.5C 225.684,208.76 227.518,207.594 229.5,207C 212.422,237.665 216.755,264.831 242.5,288.5C 242.56,289.043 242.893,289.376 243.5,289.5C 244.803,286.355 244.803,283.355 243.5,280.5C 242.369,256.166 242.369,231.833 243.5,207.5C 245.5,205.833 247.5,204.167 249.5,202.5C 251.5,204.167 253.5,205.833 255.5,207.5C 256.544,232.831 256.544,258.164 255.5,283.5 Z"/></g>
<g><path style="opacity:1" fill="#db140b" d="M 220.5,205.5 C 221.239,205.369 221.906,205.536 222.5,206C 197.45,231.318 193.617,259.484 211,290.5C 190.538,274.893 184.538,254.893 193,230.5C 199.205,218.829 208.372,210.496 220.5,205.5 Z"/></g>
<g><path style="opacity:1" fill="#ee807a" d="M 272.5,208.5 C 271.833,208.5 271.5,208.833 271.5,209.5C 270.733,208.828 270.066,207.995 269.5,207C 270.998,206.415 271.998,206.915 272.5,208.5 Z"/></g>
<g><path style="opacity:1" fill="#db150c" d="M 275.5,204.5 C 305.261,216.358 315.427,237.691 306,268.5C 302.18,277.966 296.014,285.132 287.5,290C 305.597,258.288 301.597,229.788 275.5,204.5 Z"/></g>
<g><path style="opacity:1" fill="#eb7472" d="M 243.5,280.5 C 244.803,283.355 244.803,286.355 243.5,289.5C 242.893,289.376 242.56,289.043 242.5,288.5C 243.473,286.052 243.806,283.385 243.5,280.5 Z"/></g>
<g><path style="opacity:1" fill="#ec7b7a" d="M 255.5,283.5 C 255.216,285.415 255.549,287.081 256.5,288.5C 256.44,289.043 256.107,289.376 255.5,289.5C 254.207,287.364 254.207,285.364 255.5,283.5 Z"/></g>
<g><path style="opacity:0.993" fill="#da0402" d="M 92.5,336.5 C 93.1577,335.602 93.8243,334.602 94.5,333.5C 95.1757,334.602 95.8423,335.602 96.5,336.5C 108.167,336.5 119.833,336.5 131.5,336.5C 131.5,335.167 131.5,333.833 131.5,332.5C 132.5,332.5 133.5,332.5 134.5,332.5C 134.5,333.833 134.5,335.167 134.5,336.5C 146.5,336.5 158.5,336.5 170.5,336.5C 170.5,335.167 170.5,333.833 170.5,332.5C 171.5,332.5 172.5,332.5 173.5,332.5C 173.5,333.833 173.5,335.167 173.5,336.5C 185.5,336.5 197.5,336.5 209.5,336.5C 209.5,335.167 209.5,333.833 209.5,332.5C 210.5,332.5 211.5,332.5 212.5,332.5C 212.5,333.833 212.5,335.167 212.5,336.5C 224.167,336.5 235.833,336.5 247.5,336.5C 248.158,335.602 248.824,334.602 249.5,333.5C 250.176,334.602 250.842,335.602 251.5,336.5C 263.5,336.5 275.5,336.5 287.5,336.5C 288.167,332.5 288.833,332.5 289.5,336.5C 301.678,336.828 313.678,336.495 325.5,335.5C 325.5,334.5 325.5,333.5 325.5,332.5C 326.5,332.5 327.5,332.5 328.5,332.5C 328.5,333.833 328.5,335.167 328.5,336.5C 340.5,336.5 352.5,336.5 364.5,336.5C 364.5,335.167 364.5,333.833 364.5,332.5C 365.5,332.5 366.5,332.5 367.5,332.5C 367.5,333.5 367.5,334.5 367.5,335.5C 379.322,336.495 391.322,336.828 403.5,336.5C 404.167,332.5 404.833,332.5 405.5,336.5C 417.833,336.5 430.167,336.5 442.5,336.5C 443.167,332.5 443.833,332.5 444.5,336.5C 456.678,336.828 468.678,336.495 480.5,335.5C 480.5,334.5 480.5,333.5 480.5,332.5C 481.5,332.5 482.5,332.5 483.5,332.5C 483.232,334.099 483.566,335.432 484.5,336.5C 484.443,337.609 484.11,338.609 483.5,339.5C 470.5,339.5 457.5,339.5 444.5,339.5C 444.5,341.5 444.5,343.5 444.5,345.5C 456.5,345.5 468.5,345.5 480.5,345.5C 480.5,346.167 480.5,346.833 480.5,347.5C 476.167,347.5 471.833,347.5 467.5,347.5C 467.216,349.415 467.549,351.081 468.5,352.5C 470.833,352.5 473.167,352.5 475.5,352.5C 475.5,353.5 475.5,354.5 475.5,355.5C 472.167,355.5 468.833,355.5 465.5,355.5C 465.5,352.833 465.5,350.167 465.5,347.5C 458.5,347.5 451.5,347.5 444.5,347.5C 444.182,352.032 444.515,356.366 445.5,360.5C 446.833,360.5 448.167,360.5 449.5,360.5C 450.468,358.393 450.802,356.059 450.5,353.5C 453.5,353.5 456.5,353.5 459.5,353.5C 459.198,356.059 459.532,358.393 460.5,360.5C 465.167,360.5 469.833,360.5 474.5,360.5C 431.705,440.919 365.038,487.252 274.5,499.5C 257.833,499.5 241.167,499.5 224.5,499.5C 133.95,487.248 67.2833,440.915 24.5,360.5C 26.5,360.5 28.5,360.5 30.5,360.5C 31.4511,359.081 31.7845,357.415 31.5,355.5C 28.8333,355.5 26.1667,355.5 23.5,355.5C 23.5,354.833 23.5,354.167 23.5,353.5C 26.8333,353.5 30.1667,353.5 33.5,353.5C 33.1984,356.059 33.5318,358.393 34.5,360.5C 41.1667,360.5 47.8333,360.5 54.5,360.5C 54.5,353.833 54.5,347.167 54.5,340.5C 52.8333,340.5 51.1667,340.5 49.5,340.5C 49.5,345.5 49.5,350.5 49.5,355.5C 48.5,355.5 47.5,355.5 46.5,355.5C 46.5,350.5 46.5,345.5 46.5,340.5C 44.8333,340.5 43.1667,340.5 41.5,340.5C 41.5,345.5 41.5,350.5 41.5,355.5C 40.5,355.5 39.5,355.5 38.5,355.5C 38.5,350.5 38.5,345.5 38.5,340.5C 37.0813,339.549 35.4147,339.216 33.5,339.5C 33.5,342.167 33.5,344.833 33.5,347.5C 28.5,347.5 23.5,347.5 18.5,347.5C 18.5,346.833 18.5,346.167 18.5,345.5C 22.8333,345.5 27.1667,345.5 31.5,345.5C 31.5,343.5 31.5,341.5 31.5,339.5C 26.1667,339.5 20.8333,339.5 15.5,339.5C 14.8902,338.609 14.5569,337.609 14.5,336.5C 15.4345,335.432 15.7678,334.099 15.5,332.5C 16.5,332.5 17.5,332.5 18.5,332.5C 18.5,333.833 18.5,335.167 18.5,336.5C 30.5,336.5 42.5,336.5 54.5,336.5C 54.5,335.167 54.5,333.833 54.5,332.5C 55.5,332.5 56.5,332.5 57.5,332.5C 57.5,333.833 57.5,335.167 57.5,336.5C 69.1667,336.5 80.8333,336.5 92.5,336.5 Z"/></g>
<g><path style="opacity:1" fill="#f19a99" d="M 96.5,336.5 C 95.8423,335.602 95.1757,334.602 94.5,333.5C 93.8243,334.602 93.1577,335.602 92.5,336.5C 92.5,335.167 92.5,333.833 92.5,332.5C 93.8333,332.5 95.1667,332.5 96.5,332.5C 96.5,333.833 96.5,335.167 96.5,336.5 Z"/></g>
<g><path style="opacity:1" fill="#f09593" d="M 251.5,335.5 C 251.5,335.833 251.5,336.167 251.5,336.5C 250.842,335.602 250.176,334.602 249.5,333.5C 248.824,334.602 248.158,335.602 247.5,336.5C 247.5,335.167 247.5,333.833 247.5,332.5C 248.833,332.5 250.167,332.5 251.5,332.5C 251.5,333.5 251.5,334.5 251.5,335.5 Z"/></g>
<g><path style="opacity:1" fill="#fbdfde" d="M 325.5,335.5 C 313.678,336.495 301.678,336.828 289.5,336.5C 288.833,332.5 288.167,332.5 287.5,336.5C 275.5,336.5 263.5,336.5 251.5,336.5C 251.5,336.167 251.5,335.833 251.5,335.5C 263.167,335.5 274.833,335.5 286.5,335.5C 286.5,334.5 286.5,333.5 286.5,332.5C 287.833,332.5 289.167,332.5 290.5,332.5C 290.5,333.5 290.5,334.5 290.5,335.5C 302.167,335.5 313.833,335.5 325.5,335.5 Z"/></g>
<g><path style="opacity:1" fill="#fbdcdb" d="M 480.5,335.5 C 468.678,336.495 456.678,336.828 444.5,336.5C 443.833,332.5 443.167,332.5 442.5,336.5C 430.167,336.5 417.833,336.5 405.5,336.5C 404.833,332.5 404.167,332.5 403.5,336.5C 391.322,336.828 379.322,336.495 367.5,335.5C 379.167,335.5 390.833,335.5 402.5,335.5C 402.5,334.5 402.5,333.5 402.5,332.5C 403.833,332.5 405.167,332.5 406.5,332.5C 406.5,333.5 406.5,334.5 406.5,335.5C 418.167,335.5 429.833,335.5 441.5,335.5C 441.5,334.5 441.5,333.5 441.5,332.5C 442.833,332.5 444.167,332.5 445.5,332.5C 445.5,333.5 445.5,334.5 445.5,335.5C 457.167,335.5 468.833,335.5 480.5,335.5 Z"/></g>
<g><path style="opacity:0.953" fill="#fefffe" d="M 16.5,340.5 C 21.1667,340.5 25.8333,340.5 30.5,340.5C 30.5,341.833 30.5,343.167 30.5,344.5C 26.1667,344.5 21.8333,344.5 17.5,344.5C 16.7659,343.292 16.4326,341.959 16.5,340.5 Z"/></g>
<g><path style="opacity:0.988" fill="#fef6f6" d="M 38.5,340.5 C 38.5,345.5 38.5,350.5 38.5,355.5C 39.5,355.5 40.5,355.5 41.5,355.5C 41.5,350.5 41.5,345.5 41.5,340.5C 43.1667,340.5 44.8333,340.5 46.5,340.5C 46.5,345.5 46.5,350.5 46.5,355.5C 47.5,355.5 48.5,355.5 49.5,355.5C 49.5,350.5 49.5,345.5 49.5,340.5C 51.1667,340.5 52.8333,340.5 54.5,340.5C 54.5,347.167 54.5,353.833 54.5,360.5C 47.8333,360.5 41.1667,360.5 34.5,360.5C 34.5,357.833 34.5,355.167 34.5,352.5C 30.6286,352.185 26.9619,352.518 23.5,353.5C 23.5,354.167 23.5,354.833 23.5,355.5C 25.6074,356.468 27.9407,356.802 30.5,356.5C 30.5,357.833 30.5,359.167 30.5,360.5C 28.5,360.5 26.5,360.5 24.5,360.5C 22.7737,356.047 20.7737,351.714 18.5,347.5C 23.5,347.5 28.5,347.5 33.5,347.5C 34.4682,345.393 34.8016,343.059 34.5,340.5C 35.8333,340.5 37.1667,340.5 38.5,340.5 Z"/></g>
<g><path style="opacity:1" fill="#feeceb" d="M 57.5,340.5 C 74.5,340.5 91.5,340.5 108.5,340.5C 108.5,342.167 108.5,343.833 108.5,345.5C 91.5,345.5 74.5,345.5 57.5,345.5C 57.5,343.833 57.5,342.167 57.5,340.5 Z"/></g>
<g><path style="opacity:1" fill="#fefbfb" d="M 119.5,340.5 C 120.833,340.5 122.167,340.5 123.5,340.5C 123.179,345.695 123.513,350.695 124.5,355.5C 125.167,355.5 125.833,355.5 126.5,355.5C 127.487,350.695 127.821,345.695 127.5,340.5C 128.833,340.5 130.167,340.5 131.5,340.5C 131.5,347.167 131.5,353.833 131.5,360.5C 124.833,360.5 118.167,360.5 111.5,360.5C 111.5,358.167 111.5,355.833 111.5,353.5C 108.038,352.518 104.371,352.185 100.5,352.5C 100.263,353.791 100.596,354.791 101.5,355.5C 103.833,355.5 106.167,355.5 108.5,355.5C 108.5,357.167 108.5,358.833 108.5,360.5C 104.5,360.5 100.5,360.5 96.5,360.5C 96.5,356.5 96.5,352.5 96.5,348.5C 101.695,348.821 106.695,348.487 111.5,347.5C 111.5,345.167 111.5,342.833 111.5,340.5C 113.167,340.5 114.833,340.5 116.5,340.5C 116.5,345.5 116.5,350.5 116.5,355.5C 117.5,355.5 118.5,355.5 119.5,355.5C 119.5,350.5 119.5,345.5 119.5,340.5 Z"/></g>
<g><path style="opacity:1" fill="#fefefe" d="M 134.5,340.5 C 151.5,340.5 168.5,340.5 185.5,340.5C 185.5,341.833 185.5,343.167 185.5,344.5C 168.5,344.5 151.5,344.5 134.5,344.5C 134.5,343.167 134.5,341.833 134.5,340.5 Z"/></g>
<g><path style="opacity:1" fill="#fef7f6" d="M 193.5,340.5 C 193.5,345.5 193.5,350.5 193.5,355.5C 194.5,355.5 195.5,355.5 196.5,355.5C 197.487,350.695 197.821,345.695 197.5,340.5C 198.833,340.5 200.167,340.5 201.5,340.5C 201.5,345.5 201.5,350.5 201.5,355.5C 202.5,355.5 203.5,355.5 204.5,355.5C 204.5,350.5 204.5,345.5 204.5,340.5C 206.167,340.5 207.833,340.5 209.5,340.5C 209.5,347.167 209.5,353.833 209.5,360.5C 202.833,360.5 196.167,360.5 189.5,360.5C 189.5,357.833 189.5,355.167 189.5,352.5C 185.629,352.185 181.962,352.518 178.5,353.5C 180.635,355.369 183.302,356.036 186.5,355.5C 186.5,357.167 186.5,358.833 186.5,360.5C 182.167,360.5 177.833,360.5 173.5,360.5C 173.5,356.167 173.5,351.833 173.5,347.5C 178.5,347.5 183.5,347.5 188.5,347.5C 189.468,345.393 189.802,343.059 189.5,340.5C 190.833,340.5 192.167,340.5 193.5,340.5 Z"/></g>
<g><path style="opacity:1" fill="#feeceb" d="M 212.5,340.5 C 229.5,340.5 246.5,340.5 263.5,340.5C 263.5,342.167 263.5,343.833 263.5,345.5C 246.5,345.5 229.5,345.5 212.5,345.5C 212.5,343.833 212.5,342.167 212.5,340.5 Z"/></g>
<g><path style="opacity:1" fill="#fef6f6" d="M 274.5,340.5 C 275.833,340.5 277.167,340.5 278.5,340.5C 278.179,345.695 278.513,350.695 279.5,355.5C 280.5,355.5 281.5,355.5 282.5,355.5C 282.5,350.5 282.5,345.5 282.5,340.5C 284.167,340.5 285.833,340.5 287.5,340.5C 287.5,347.167 287.5,353.833 287.5,360.5C 280.5,360.5 273.5,360.5 266.5,360.5C 266.5,358.167 266.5,355.833 266.5,353.5C 263.038,352.518 259.371,352.185 255.5,352.5C 255.263,353.791 255.596,354.791 256.5,355.5C 258.833,355.5 261.167,355.5 263.5,355.5C 263.5,357.167 263.5,358.833 263.5,360.5C 259.5,360.5 255.5,360.5 251.5,360.5C 251.5,356.5 251.5,352.5 251.5,348.5C 256.695,348.821 261.695,348.487 266.5,347.5C 266.5,345.167 266.5,342.833 266.5,340.5C 268.167,340.5 269.833,340.5 271.5,340.5C 271.5,345.5 271.5,350.5 271.5,355.5C 272.5,355.5 273.5,355.5 274.5,355.5C 274.5,350.5 274.5,345.5 274.5,340.5 Z"/></g>
<g><path style="opacity:1" fill="#fefdfd" d="M 289.5,340.5 C 306.5,340.5 323.5,340.5 340.5,340.5C 340.5,341.833 340.5,343.167 340.5,344.5C 323.5,344.5 306.5,344.5 289.5,344.5C 289.5,343.167 289.5,341.833 289.5,340.5 Z"/></g>
<g><path style="opacity:1" fill="#fef5f5" d="M 351.5,355.5 C 352.487,350.695 352.821,345.695 352.5,340.5C 353.833,340.5 355.167,340.5 356.5,340.5C 356.5,345.5 356.5,350.5 356.5,355.5C 357.5,355.5 358.5,355.5 359.5,355.5C 359.5,350.5 359.5,345.5 359.5,340.5C 361.167,340.5 362.833,340.5 364.5,340.5C 364.5,347.167 364.5,353.833 364.5,360.5C 357.833,360.5 351.167,360.5 344.5,360.5C 344.5,357.833 344.5,355.167 344.5,352.5C 340.629,352.185 336.962,352.518 333.5,353.5C 335.635,355.369 338.302,356.036 341.5,355.5C 341.5,357.167 341.5,358.833 341.5,360.5C 337.167,360.5 332.833,360.5 328.5,360.5C 328.5,356.167 328.5,351.833 328.5,347.5C 333.5,347.5 338.5,347.5 343.5,347.5C 343.5,345.167 343.5,342.833 343.5,340.5C 345.167,340.5 346.833,340.5 348.5,340.5C 348.5,345.5 348.5,350.5 348.5,355.5C 349.5,355.5 350.5,355.5 351.5,355.5 Z"/></g>
<g><path style="opacity:1" fill="#feeceb" d="M 367.5,340.5 C 384.5,340.5 401.5,340.5 418.5,340.5C 418.5,342.167 418.5,343.833 418.5,345.5C 401.5,345.5 384.5,345.5 367.5,345.5C 367.5,343.833 367.5,342.167 367.5,340.5 Z"/></g>
<g><path style="opacity:1" fill="#fef8f8" d="M 429.5,340.5 C 430.833,340.5 432.167,340.5 433.5,340.5C 433.179,345.695 433.513,350.695 434.5,355.5C 436.442,350.944 437.108,345.944 436.5,340.5C 438.167,340.5 439.833,340.5 441.5,340.5C 441.5,347.167 441.5,353.833 441.5,360.5C 434.833,360.5 428.167,360.5 421.5,360.5C 421.5,358.167 421.5,355.833 421.5,353.5C 418.038,352.518 414.371,352.185 410.5,352.5C 410.263,353.791 410.596,354.791 411.5,355.5C 413.833,355.5 416.167,355.5 418.5,355.5C 418.5,357.167 418.5,358.833 418.5,360.5C 414.5,360.5 410.5,360.5 406.5,360.5C 406.5,356.5 406.5,352.5 406.5,348.5C 411.695,348.821 416.695,348.487 421.5,347.5C 421.5,345.167 421.5,342.833 421.5,340.5C 423.167,340.5 424.833,340.5 426.5,340.5C 426.5,345.5 426.5,350.5 426.5,355.5C 427.5,355.5 428.5,355.5 429.5,355.5C 429.5,350.5 429.5,345.5 429.5,340.5 Z"/></g>
<g><path style="opacity:0.979" fill="#fefffe" d="M 483.5,340.5 C 482.833,341.833 482.167,343.167 481.5,344.5C 469.5,344.5 457.5,344.5 445.5,344.5C 445.5,343.167 445.5,341.833 445.5,340.5C 458.167,340.5 470.833,340.5 483.5,340.5 Z"/></g>
<g><path style="opacity:1" fill="#ef908f" d="M 38.5,340.5 C 37.1667,340.5 35.8333,340.5 34.5,340.5C 34.8016,343.059 34.4682,345.393 33.5,347.5C 33.5,344.833 33.5,342.167 33.5,339.5C 35.4147,339.216 37.0813,339.549 38.5,340.5 Z"/></g>
<g><path style="opacity:1" fill="#f09493" d="M 119.5,340.5 C 120.919,339.549 122.585,339.216 124.5,339.5C 124.5,344.833 124.5,350.167 124.5,355.5C 123.513,350.695 123.179,345.695 123.5,340.5C 122.167,340.5 120.833,340.5 119.5,340.5 Z"/></g>
<g><path style="opacity:1" fill="#f09494" d="M 131.5,340.5 C 130.167,340.5 128.833,340.5 127.5,340.5C 127.821,345.695 127.487,350.695 126.5,355.5C 126.5,350.167 126.5,344.833 126.5,339.5C 128.415,339.216 130.081,339.549 131.5,340.5 Z"/></g>
<g><path style="opacity:1" fill="#ee8b8a" d="M 193.5,340.5 C 192.167,340.5 190.833,340.5 189.5,340.5C 189.802,343.059 189.468,345.393 188.5,347.5C 188.5,344.833 188.5,342.167 188.5,339.5C 190.415,339.216 192.081,339.549 193.5,340.5 Z"/></g>
<g><path style="opacity:1" fill="#f6b7b6" d="M 201.5,340.5 C 200.167,340.5 198.833,340.5 197.5,340.5C 197.821,345.695 197.487,350.695 196.5,355.5C 196.5,350.167 196.5,344.833 196.5,339.5C 198.415,339.216 200.081,339.549 201.5,340.5 Z"/></g>
<g><path style="opacity:1" fill="#f2a1a0" d="M 274.5,340.5 C 275.919,339.549 277.585,339.216 279.5,339.5C 279.5,344.833 279.5,350.167 279.5,355.5C 278.513,350.695 278.179,345.695 278.5,340.5C 277.167,340.5 275.833,340.5 274.5,340.5 Z"/></g>
<g><path style="opacity:1" fill="#f4aead" d="M 356.5,340.5 C 355.167,340.5 353.833,340.5 352.5,340.5C 352.821,345.695 352.487,350.695 351.5,355.5C 351.5,350.167 351.5,344.833 351.5,339.5C 353.415,339.216 355.081,339.549 356.5,340.5 Z"/></g>
<g><path style="opacity:1" fill="#f4adac" d="M 429.5,340.5 C 430.919,339.549 432.585,339.216 434.5,339.5C 434.5,344.833 434.5,350.167 434.5,355.5C 433.513,350.695 433.179,345.695 433.5,340.5C 432.167,340.5 430.833,340.5 429.5,340.5 Z"/></g>
<g><path style="opacity:1" fill="#ee8584" d="M 15.5,339.5 C 20.8333,339.5 26.1667,339.5 31.5,339.5C 31.5,341.5 31.5,343.5 31.5,345.5C 27.1667,345.5 22.8333,345.5 18.5,345.5C 17.8333,345.5 17.5,345.167 17.5,344.5C 21.8333,344.5 26.1667,344.5 30.5,344.5C 30.5,343.167 30.5,341.833 30.5,340.5C 25.8333,340.5 21.1667,340.5 16.5,340.5C 15.8333,340.5 15.5,340.167 15.5,339.5 Z"/></g>
<g><path style="opacity:1" fill="#ed8585" d="M 134.5,340.5 C 151.659,339.503 168.992,339.17 186.5,339.5C 186.5,341.5 186.5,343.5 186.5,345.5C 168.992,345.83 151.659,345.497 134.5,344.5C 151.5,344.5 168.5,344.5 185.5,344.5C 185.5,343.167 185.5,341.833 185.5,340.5C 168.5,340.5 151.5,340.5 134.5,340.5 Z"/></g>
<g><path style="opacity:1" fill="#ee8686" d="M 289.5,340.5 C 306.659,339.503 323.992,339.17 341.5,339.5C 341.5,341.5 341.5,343.5 341.5,345.5C 323.992,345.83 306.659,345.497 289.5,344.5C 306.5,344.5 323.5,344.5 340.5,344.5C 340.5,343.167 340.5,341.833 340.5,340.5C 323.5,340.5 306.5,340.5 289.5,340.5 Z"/></g>
<g><path style="opacity:1" fill="#ee8887" d="M 483.5,339.5 C 483.5,339.833 483.5,340.167 483.5,340.5C 470.833,340.5 458.167,340.5 445.5,340.5C 445.5,341.833 445.5,343.167 445.5,344.5C 457.5,344.5 469.5,344.5 481.5,344.5C 481.5,345.167 481.167,345.5 480.5,345.5C 468.5,345.5 456.5,345.5 444.5,345.5C 444.5,343.5 444.5,341.5 444.5,339.5C 457.5,339.5 470.5,339.5 483.5,339.5 Z"/></g>
<g><path style="opacity:1" fill="#ef8d8b" d="M 77.5,348.5 C 70.8333,348.5 64.1667,348.5 57.5,348.5C 57.5,352.5 57.5,356.5 57.5,360.5C 56.5151,356.366 56.1818,352.032 56.5,347.5C 63.6866,347.175 70.6866,347.509 77.5,348.5 Z"/></g>
<g><path style="opacity:1" fill="#f09c9c" d="M 111.5,347.5 C 106.695,348.487 101.695,348.821 96.5,348.5C 96.5,352.5 96.5,356.5 96.5,360.5C 95.5151,356.366 95.1818,352.032 95.5,347.5C 100.833,347.5 106.167,347.5 111.5,347.5 Z"/></g>
<g><path style="opacity:1" fill="#f09b9a" d="M 134.5,348.5 C 141.313,347.509 148.313,347.175 155.5,347.5C 155.5,350.167 155.5,352.833 155.5,355.5C 154.532,353.393 154.198,351.059 154.5,348.5C 147.833,348.5 141.167,348.5 134.5,348.5 Z"/></g>
<g><path style="opacity:1" fill="#ef8d8b" d="M 170.5,348.5 C 166.5,348.5 162.5,348.5 158.5,348.5C 158.5,349.833 158.5,351.167 158.5,352.5C 161.059,352.198 163.393,352.532 165.5,353.5C 162.833,353.5 160.167,353.5 157.5,353.5C 157.5,351.5 157.5,349.5 157.5,347.5C 162.032,347.182 166.366,347.515 170.5,348.5 Z"/></g>
<g><path style="opacity:1" fill="#f09a9a" d="M 266.5,347.5 C 261.695,348.487 256.695,348.821 251.5,348.5C 251.5,352.5 251.5,356.5 251.5,360.5C 250.515,356.366 250.182,352.032 250.5,347.5C 255.833,347.5 261.167,347.5 266.5,347.5 Z"/></g>
<g><path style="opacity:1" fill="#f2a7a6" d="M 310.5,355.5 C 309.532,353.393 309.198,351.059 309.5,348.5C 303.167,348.5 296.833,348.5 290.5,348.5C 290.5,352.5 290.5,356.5 290.5,360.5C 289.515,356.366 289.182,352.032 289.5,347.5C 296.5,347.5 303.5,347.5 310.5,347.5C 310.5,350.167 310.5,352.833 310.5,355.5 Z"/></g>
<g><path style="opacity:1" fill="#ef8b8a" d="M 325.5,348.5 C 321.5,348.5 317.5,348.5 313.5,348.5C 313.5,349.833 313.5,351.167 313.5,352.5C 316.059,352.198 318.393,352.532 320.5,353.5C 317.833,353.5 315.167,353.5 312.5,353.5C 312.5,351.5 312.5,349.5 312.5,347.5C 317.032,347.182 321.366,347.515 325.5,348.5 Z"/></g>
<g><path style="opacity:1" fill="#f09999" d="M 421.5,347.5 C 416.695,348.487 411.695,348.821 406.5,348.5C 406.5,352.5 406.5,356.5 406.5,360.5C 405.515,356.366 405.182,352.032 405.5,347.5C 410.833,347.5 416.167,347.5 421.5,347.5 Z"/></g>
<g><path style="opacity:1" fill="#f2a8a7" d="M 465.5,355.5 C 464.532,353.393 464.198,351.059 464.5,348.5C 458.167,348.5 451.833,348.5 445.5,348.5C 445.5,352.5 445.5,356.5 445.5,360.5C 444.515,356.366 444.182,352.032 444.5,347.5C 451.5,347.5 458.5,347.5 465.5,347.5C 465.5,350.167 465.5,352.833 465.5,355.5 Z"/></g>
<g><path style="opacity:0.911" fill="#f09a99" d="M 480.5,347.5 C 480.5,348.167 480.167,348.5 479.5,348.5C 475.833,348.5 472.167,348.5 468.5,348.5C 468.5,349.833 468.5,351.167 468.5,352.5C 467.549,351.081 467.216,349.415 467.5,347.5C 471.833,347.5 476.167,347.5 480.5,347.5 Z"/></g>
<g><path style="opacity:1" fill="#fefbfb" d="M 77.5,348.5 C 77.5,350.833 77.5,353.167 77.5,355.5C 80.8333,355.5 84.1667,355.5 87.5,355.5C 88.404,354.791 88.7373,353.791 88.5,352.5C 85.8333,352.5 83.1667,352.5 80.5,352.5C 80.5,351.167 80.5,349.833 80.5,348.5C 84.5,348.5 88.5,348.5 92.5,348.5C 92.5,352.5 92.5,356.5 92.5,360.5C 85.8333,360.5 79.1667,360.5 72.5,360.5C 72.5,358.167 72.5,355.833 72.5,353.5C 69.0381,352.518 65.3714,352.185 61.5,352.5C 61.5,355.167 61.5,357.833 61.5,360.5C 60.1667,360.5 58.8333,360.5 57.5,360.5C 57.5,356.5 57.5,352.5 57.5,348.5C 64.1667,348.5 70.8333,348.5 77.5,348.5 Z"/></g>
<g><path style="opacity:1" fill="#fefafa" d="M 134.5,348.5 C 141.167,348.5 147.833,348.5 154.5,348.5C 154.198,351.059 154.532,353.393 155.5,355.5C 159.329,356.069 162.663,355.402 165.5,353.5C 163.393,352.532 161.059,352.198 158.5,352.5C 158.5,351.167 158.5,349.833 158.5,348.5C 162.5,348.5 166.5,348.5 170.5,348.5C 170.5,352.5 170.5,356.5 170.5,360.5C 163.833,360.5 157.167,360.5 150.5,360.5C 150.5,357.833 150.5,355.167 150.5,352.5C 146.629,352.185 142.962,352.518 139.5,353.5C 139.5,355.833 139.5,358.167 139.5,360.5C 137.833,360.5 136.167,360.5 134.5,360.5C 134.5,356.5 134.5,352.5 134.5,348.5 Z"/></g>
<g><path style="opacity:1" fill="#fef4f3" d="M 242.5,355.5 C 243.404,354.791 243.737,353.791 243.5,352.5C 240.833,352.5 238.167,352.5 235.5,352.5C 235.5,351.167 235.5,349.833 235.5,348.5C 239.5,348.5 243.5,348.5 247.5,348.5C 247.5,352.5 247.5,356.5 247.5,360.5C 240.833,360.5 234.167,360.5 227.5,360.5C 227.5,357.833 227.5,355.167 227.5,352.5C 224.167,352.5 220.833,352.5 217.5,352.5C 217.5,355.167 217.5,357.833 217.5,360.5C 215.833,360.5 214.167,360.5 212.5,360.5C 212.5,356.167 212.5,351.833 212.5,347.5C 219.167,347.5 225.833,347.5 232.5,347.5C 232.5,350.167 232.5,352.833 232.5,355.5C 235.833,355.5 239.167,355.5 242.5,355.5 Z"/></g>
<g><path style="opacity:1" fill="#fefcfc" d="M 310.5,355.5 C 314.329,356.069 317.663,355.402 320.5,353.5C 318.393,352.532 316.059,352.198 313.5,352.5C 313.5,351.167 313.5,349.833 313.5,348.5C 317.5,348.5 321.5,348.5 325.5,348.5C 325.5,352.5 325.5,356.5 325.5,360.5C 318.833,360.5 312.167,360.5 305.5,360.5C 305.5,357.833 305.5,355.167 305.5,352.5C 301.629,352.185 297.962,352.518 294.5,353.5C 294.5,355.833 294.5,358.167 294.5,360.5C 293.167,360.5 291.833,360.5 290.5,360.5C 290.5,356.5 290.5,352.5 290.5,348.5C 296.833,348.5 303.167,348.5 309.5,348.5C 309.198,351.059 309.532,353.393 310.5,355.5 Z"/></g>
<g><path style="opacity:1" fill="#fef4f3" d="M 397.5,355.5 C 398.404,354.791 398.737,353.791 398.5,352.5C 395.833,352.5 393.167,352.5 390.5,352.5C 390.5,351.167 390.5,349.833 390.5,348.5C 394.5,348.5 398.5,348.5 402.5,348.5C 402.5,352.5 402.5,356.5 402.5,360.5C 395.833,360.5 389.167,360.5 382.5,360.5C 382.5,357.833 382.5,355.167 382.5,352.5C 379.167,352.5 375.833,352.5 372.5,352.5C 372.5,355.167 372.5,357.833 372.5,360.5C 370.833,360.5 369.167,360.5 367.5,360.5C 367.5,356.167 367.5,351.833 367.5,347.5C 374.167,347.5 380.833,347.5 387.5,347.5C 387.5,350.167 387.5,352.833 387.5,355.5C 390.833,355.5 394.167,355.5 397.5,355.5 Z"/></g>
<g><path style="opacity:0.981" fill="#fefbfb" d="M 465.5,355.5 C 468.833,355.5 472.167,355.5 475.5,355.5C 475.5,354.5 475.5,353.5 475.5,352.5C 473.167,352.5 470.833,352.5 468.5,352.5C 468.5,351.167 468.5,349.833 468.5,348.5C 472.167,348.5 475.833,348.5 479.5,348.5C 478.222,352.667 476.556,356.667 474.5,360.5C 469.833,360.5 465.167,360.5 460.5,360.5C 460.5,357.833 460.5,355.167 460.5,352.5C 456.833,352.5 453.167,352.5 449.5,352.5C 449.5,355.167 449.5,357.833 449.5,360.5C 448.167,360.5 446.833,360.5 445.5,360.5C 445.5,356.5 445.5,352.5 445.5,348.5C 451.833,348.5 458.167,348.5 464.5,348.5C 464.198,351.059 464.532,353.393 465.5,355.5 Z"/></g>
<g><path style="opacity:1" fill="#f09d9c" d="M 80.5,348.5 C 84.6344,347.515 88.9677,347.182 93.5,347.5C 93.8182,352.032 93.4849,356.366 92.5,360.5C 92.5,356.5 92.5,352.5 92.5,348.5C 88.5,348.5 84.5,348.5 80.5,348.5 Z"/></g>
<g><path style="opacity:1" fill="#f2a7a7" d="M 235.5,348.5 C 239.634,347.515 243.968,347.182 248.5,347.5C 248.818,352.032 248.485,356.366 247.5,360.5C 247.5,356.5 247.5,352.5 247.5,348.5C 243.5,348.5 239.5,348.5 235.5,348.5 Z"/></g>
<g><path style="opacity:1" fill="#f3b2b1" d="M 390.5,348.5 C 394.634,347.515 398.968,347.182 403.5,347.5C 403.818,352.032 403.485,356.366 402.5,360.5C 402.5,356.5 402.5,352.5 402.5,348.5C 398.5,348.5 394.5,348.5 390.5,348.5 Z"/></g>
<g><path style="opacity:1" fill="#e96665" d="M 80.5,352.5 C 83.1667,352.5 85.8333,352.5 88.5,352.5C 88.7373,353.791 88.404,354.791 87.5,355.5C 85.4922,353.917 83.1589,352.917 80.5,352.5 Z"/></g>
<g><path style="opacity:1" fill="#e86564" d="M 111.5,353.5 C 107.671,352.931 104.337,353.598 101.5,355.5C 100.596,354.791 100.263,353.791 100.5,352.5C 104.371,352.185 108.038,352.518 111.5,353.5 Z"/></g>
<g><path style="opacity:1" fill="#e86565" d="M 139.5,353.5 C 142.962,352.518 146.629,352.185 150.5,352.5C 150.5,355.167 150.5,357.833 150.5,360.5C 149.532,358.393 149.198,356.059 149.5,353.5C 146.167,353.5 142.833,353.5 139.5,353.5 Z"/></g>
<g><path style="opacity:1" fill="#e86261" d="M 235.5,352.5 C 238.167,352.5 240.833,352.5 243.5,352.5C 243.737,353.791 243.404,354.791 242.5,355.5C 240.492,353.917 238.159,352.917 235.5,352.5 Z"/></g>
<g><path style="opacity:1" fill="#e86564" d="M 266.5,353.5 C 262.671,352.931 259.337,353.598 256.5,355.5C 255.596,354.791 255.263,353.791 255.5,352.5C 259.371,352.185 263.038,352.518 266.5,353.5 Z"/></g>
<g><path style="opacity:1" fill="#e86160" d="M 294.5,353.5 C 297.962,352.518 301.629,352.185 305.5,352.5C 305.5,355.167 305.5,357.833 305.5,360.5C 304.532,358.393 304.198,356.059 304.5,353.5C 301.167,353.5 297.833,353.5 294.5,353.5 Z"/></g>
<g><path style="opacity:1" fill="#e85f5e" d="M 390.5,352.5 C 393.167,352.5 395.833,352.5 398.5,352.5C 398.737,353.791 398.404,354.791 397.5,355.5C 395.492,353.917 393.159,352.917 390.5,352.5 Z"/></g>
<g><path style="opacity:1" fill="#e96766" d="M 421.5,353.5 C 417.671,352.931 414.337,353.598 411.5,355.5C 410.596,354.791 410.263,353.791 410.5,352.5C 414.371,352.185 418.038,352.518 421.5,353.5 Z"/></g>
<g><path style="opacity:1" fill="#e75755" d="M 460.5,360.5 C 459.532,358.393 459.198,356.059 459.5,353.5C 456.5,353.5 453.5,353.5 450.5,353.5C 450.802,356.059 450.468,358.393 449.5,360.5C 449.5,357.833 449.5,355.167 449.5,352.5C 453.167,352.5 456.833,352.5 460.5,352.5C 460.5,355.167 460.5,357.833 460.5,360.5 Z"/></g>
<g><path style="opacity:1" fill="#ef8a89" d="M 23.5,353.5 C 26.9619,352.518 30.6286,352.185 34.5,352.5C 34.5,355.167 34.5,357.833 34.5,360.5C 33.5318,358.393 33.1984,356.059 33.5,353.5C 30.1667,353.5 26.8333,353.5 23.5,353.5 Z"/></g>
<g><path style="opacity:1" fill="#ef8a89" d="M 72.5,353.5 C 69.1667,353.5 65.8333,353.5 62.5,353.5C 62.8016,356.059 62.4682,358.393 61.5,360.5C 62.4682,358.393 62.8016,356.059 62.5,353.5C 65.8333,353.5 69.1667,353.5 72.5,353.5 Z"/></g>
<g><path style="opacity:1" fill="#ee8584" d="M 178.5,353.5 C 181.962,352.518 185.629,352.185 189.5,352.5C 189.5,355.167 189.5,357.833 189.5,360.5C 188.532,358.393 188.198,356.059 188.5,353.5C 185.167,353.5 181.833,353.5 178.5,353.5 Z"/></g>
<g><path style="opacity:1" fill="#ed807f" d="M 333.5,353.5 C 336.962,352.518 340.629,352.185 344.5,352.5C 344.5,355.167 344.5,357.833 344.5,360.5C 343.532,358.393 343.198,356.059 343.5,353.5C 340.167,353.5 336.833,353.5 333.5,353.5 Z"/></g>
<g><path style="opacity:1" fill="#fdf0ef" d="M 142.5,355.5 C 144.167,355.5 145.833,355.5 147.5,355.5C 147.5,357.167 147.5,358.833 147.5,360.5C 145.833,360.5 144.167,360.5 142.5,360.5C 142.5,358.833 142.5,357.167 142.5,355.5 Z"/></g>
<g><path style="opacity:1" fill="#fde5e5" d="M 219.5,355.5 C 221.167,355.5 222.833,355.5 224.5,355.5C 224.5,357.167 224.5,358.833 224.5,360.5C 222.833,360.5 221.167,360.5 219.5,360.5C 219.5,358.833 219.5,357.167 219.5,355.5 Z"/></g>
<g><path style="opacity:1" fill="#fdf2f2" d="M 297.5,355.5 C 299.167,355.5 300.833,355.5 302.5,355.5C 302.5,357.167 302.5,358.833 302.5,360.5C 300.833,360.5 299.167,360.5 297.5,360.5C 297.5,358.833 297.5,357.167 297.5,355.5 Z"/></g>
<g><path style="opacity:1" fill="#fde4e3" d="M 374.5,355.5 C 376.167,355.5 377.833,355.5 379.5,355.5C 379.5,357.167 379.5,358.833 379.5,360.5C 377.833,360.5 376.167,360.5 374.5,360.5C 374.5,358.833 374.5,357.167 374.5,355.5 Z"/></g>
<g><path style="opacity:1" fill="#fdf3f3" d="M 452.5,355.5 C 454.167,355.5 455.833,355.5 457.5,355.5C 457.5,357.167 457.5,358.833 457.5,360.5C 455.833,360.5 454.167,360.5 452.5,360.5C 452.5,358.833 452.5,357.167 452.5,355.5 Z"/></g>
<g><path style="opacity:1" fill="#f3adac" d="M 23.5,355.5 C 26.1667,355.5 28.8333,355.5 31.5,355.5C 31.7845,357.415 31.4511,359.081 30.5,360.5C 30.5,359.167 30.5,357.833 30.5,356.5C 27.9407,356.802 25.6074,356.468 23.5,355.5 Z"/></g>
<g><path style="opacity:1" fill="#f29f9e" d="M 69.5,360.5 C 69.5,359.167 69.5,357.833 69.5,356.5C 68.1667,356.5 66.8333,356.5 65.5,356.5C 65.5,357.833 65.5,359.167 65.5,360.5C 64.5489,359.081 64.2155,357.415 64.5,355.5C 66.5,355.5 68.5,355.5 70.5,355.5C 70.7845,357.415 70.4511,359.081 69.5,360.5 Z"/></g>
<g><path style="opacity:1" fill="#fefffe" d="M 69.5,360.5 C 68.1667,360.5 66.8333,360.5 65.5,360.5C 65.5,359.167 65.5,357.833 65.5,356.5C 66.8333,356.5 68.1667,356.5 69.5,356.5C 69.5,357.833 69.5,359.167 69.5,360.5 Z"/></g>
</svg>
