<?xml version="1.0" encoding="UTF-8"?>
<!DOCTYPE svg PUBLIC "-//W3C//DTD SVG 1.1//EN" "http://www.w3.org/Graphics/SVG/1.1/DTD/svg11.dtd">
<svg xmlns="http://www.w3.org/2000/svg" version="1.1" width="500px" height="500px" style="shape-rendering:geometricPrecision; text-rendering:geometricPrecision; image-rendering:optimizeQuality; fill-rule:evenodd; clip-rule:evenodd" xmlns:xlink="http://www.w3.org/1999/xlink">
<g><path style="opacity:0.993" fill="#ce1126" d="M 225.5,-0.5 C 241.5,-0.5 257.5,-0.5 273.5,-0.5C 362.269,10.9489 428.436,55.6156 472,133.5C 477.625,144.077 482.125,155.077 485.5,166.5C 328.167,166.5 170.833,166.5 13.5,166.5C 43.991,84.513 101.324,31.3463 185.5,7C 198.832,3.72528 212.166,1.22528 225.5,-0.5 Z"/></g>
<g><path style="opacity:0.997" fill="#fefefe" d="M 13.5,166.5 C 170.833,166.5 328.167,166.5 485.5,166.5C 492.586,185.267 497.253,204.6 499.5,224.5C 499.5,241.167 499.5,257.833 499.5,274.5C 498.1,284.764 496.267,295.098 494,305.5C 492.031,314.9 489.198,323.9 485.5,332.5C 328.167,332.5 170.833,332.5 13.5,332.5C 6.28469,313.42 1.61802,293.754 -0.5,273.5C -0.5,257.5 -0.5,241.5 -0.5,225.5C 1.61802,205.246 6.28469,185.58 13.5,166.5 Z"/></g>
<g><path style="opacity:1" fill="#1c8045" d="M 324.5,185.5 C 326.911,185.137 328.411,186.137 329,188.5C 331.755,199.471 330.422,200.138 325,190.5C 324.506,188.866 324.34,187.199 324.5,185.5 Z"/></g>
<g><path style="opacity:1" fill="#067b3e" d="M 142.5,256.5 C 155.99,257.496 169.656,257.829 183.5,257.5C 183.5,252.833 183.5,248.167 183.5,243.5C 184.091,240.386 185.758,237.886 188.5,236C 192.265,233.369 196.098,230.869 200,228.5C 204.964,231.961 209.798,235.627 214.5,239.5C 215.499,256.487 215.833,273.487 215.5,290.5C 174.82,289.839 134.486,290.506 94.5,292.5C 92.9433,305.906 85.61,311.406 72.5,309C 68.3735,306.9 65.8735,303.733 65,299.5C 78.2601,305.593 84.5934,301.259 84,286.5C 82.1505,283.323 80.3172,280.157 78.5,277C 82.1824,273.975 85.1824,270.309 87.5,266C 88.3317,265.312 88.9984,265.479 89.5,266.5C 91.839,270.184 93.1723,274.184 93.5,278.5C 98.1785,278.666 102.845,278.499 107.5,278C 105.701,274.924 104.534,271.757 104,268.5C 109.379,264.788 113.713,260.121 117,254.5C 117.494,256.134 117.66,257.801 117.5,259.5C 117.5,265.833 117.5,272.167 117.5,278.5C 146.5,278.5 175.5,278.5 204.5,278.5C 204.828,266.655 204.495,254.988 203.5,243.5C 200.471,240.877 197.638,241.21 195,244.5C 194.5,252.827 194.334,261.16 194.5,269.5C 170.491,269.833 146.491,269.5 122.5,268.5C 141.138,240.696 159.971,213.03 179,185.5C 179.667,184.167 180.333,184.167 181,185.5C 182.07,190.872 183.237,196.205 184.5,201.5C 181.675,201.081 179.509,202.081 178,204.5C 165.946,221.714 154.112,239.047 142.5,256.5 Z"/></g>
<g><path style="opacity:1" fill="#0d7c3f" d="M 367.5,193.5 C 367.5,225.5 367.5,257.5 367.5,289.5C 343.167,289.5 318.833,289.5 294.5,289.5C 294.334,283.158 294.5,276.825 295,270.5C 298.162,260.495 304.995,256.495 315.5,258.5C 315.665,254.818 315.499,251.152 315,247.5C 313.702,246.44 312.535,245.274 311.5,244C 316.281,239.384 320.948,234.55 325.5,229.5C 326.499,245.486 326.833,261.486 326.5,277.5C 329.625,278.479 332.958,278.813 336.5,278.5C 336.83,261.658 336.497,244.992 335.5,228.5C 333.891,227.102 333.058,225.435 333,223.5C 337.348,218.985 341.848,214.651 346.5,210.5C 347.5,232.823 347.833,255.157 347.5,277.5C 350.5,277.5 353.5,277.5 356.5,277.5C 356.667,254.498 356.5,231.498 356,208.5C 354.764,207.601 353.93,206.434 353.5,205C 357.799,201.031 361.799,196.698 365.5,192C 366.816,191.472 367.483,191.972 367.5,193.5 Z"/></g>
<g><path style="opacity:1" fill="#1c8045" d="M 344.5,196.5 C 348.634,200.104 348.301,203.604 343.5,207C 340.798,207.607 338.132,207.44 335.5,206.5C 333.394,207.43 331.394,208.596 329.5,210C 325.467,211.04 321.801,210.374 318.5,208C 321.167,207.667 323.833,207.333 326.5,207C 329.011,205.152 331.511,203.319 334,201.5C 340.151,205.26 343.651,203.593 344.5,196.5 Z"/></g>
<g><path style="opacity:1" fill="#02793c" d="M 376.5,211.5 C 381.406,214.898 385.906,218.898 390,223.5C 389.517,225.537 388.684,227.537 387.5,229.5C 386.504,245.658 386.17,261.991 386.5,278.5C 391.032,278.818 395.366,278.485 399.5,277.5C 401.757,277.038 403.757,276.038 405.5,274.5C 405.833,274.833 406.167,275.167 406.5,275.5C 404.237,279.888 403.237,284.555 403.5,289.5C 394.5,289.5 385.5,289.5 376.5,289.5C 376.5,263.5 376.5,237.5 376.5,211.5 Z"/></g>
<g><path style="opacity:1" fill="#1a7f45" d="M 223.5,211.5 C 228.479,215.812 233.146,220.479 237.5,225.5C 236.855,226.646 236.022,227.646 235,228.5C 234.5,245.163 234.333,261.83 234.5,278.5C 240.81,279.144 246.81,278.144 252.5,275.5C 252.833,275.833 253.167,276.167 253.5,276.5C 251.04,280.844 250.04,285.511 250.5,290.5C 241.167,290.5 231.833,290.5 222.5,290.5C 222.176,264.092 222.51,237.759 223.5,211.5 Z"/></g>
<g><path style="opacity:1" fill="#89c1a5" d="M 387.5,229.5 C 387.5,245.5 387.5,261.5 387.5,277.5C 391.5,277.5 395.5,277.5 399.5,277.5C 395.366,278.485 391.032,278.818 386.5,278.5C 386.17,261.991 386.504,245.658 387.5,229.5 Z"/></g>
<g><path style="opacity:1" fill="#8ec4a9" d="M 335.5,228.5 C 336.497,244.992 336.83,261.658 336.5,278.5C 332.958,278.813 329.625,278.479 326.5,277.5C 329.5,277.5 332.5,277.5 335.5,277.5C 335.5,261.167 335.5,244.833 335.5,228.5 Z"/></g>
<g><path style="opacity:1" fill="#d7eae1" d="M 183.5,243.5 C 183.5,248.167 183.5,252.833 183.5,257.5C 169.656,257.829 155.99,257.496 142.5,256.5C 155.833,256.5 169.167,256.5 182.5,256.5C 182.182,251.968 182.515,247.634 183.5,243.5 Z"/></g>
<g><path style="opacity:1" fill="#f6faf8" d="M 309.5,268.5 C 311.5,268.5 313.5,268.5 315.5,268.5C 315.5,271.5 315.5,274.5 315.5,277.5C 312.167,277.5 308.833,277.5 305.5,277.5C 305.34,275.801 305.506,274.134 306,272.5C 307.376,271.295 308.542,269.962 309.5,268.5 Z"/></g>
<g><path style="opacity:1" fill="#daece3" d="M 203.5,243.5 C 204.495,254.988 204.828,266.655 204.5,278.5C 175.5,278.5 146.5,278.5 117.5,278.5C 117.5,272.167 117.5,265.833 117.5,259.5C 118.49,265.31 118.823,271.31 118.5,277.5C 146.833,277.5 175.167,277.5 203.5,277.5C 203.5,266.167 203.5,254.833 203.5,243.5 Z"/></g>
<g><path style="opacity:1" fill="#5eab84" d="M 367.5,193.5 C 368.498,225.662 368.832,257.996 368.5,290.5C 343.661,290.831 318.994,290.498 294.5,289.5C 318.833,289.5 343.167,289.5 367.5,289.5C 367.5,257.5 367.5,225.5 367.5,193.5 Z"/></g>
<g><path style="opacity:1" fill="#6eb28f" d="M 376.5,211.5 C 376.5,237.5 376.5,263.5 376.5,289.5C 385.5,289.5 394.5,289.5 403.5,289.5C 394.348,290.494 385.015,290.827 375.5,290.5C 375.169,263.995 375.502,237.661 376.5,211.5 Z"/></g>
<g><path style="opacity:1" fill="#cee5da" d="M 215.5,290.5 C 175.264,291.172 134.931,291.839 94.5,292.5C 134.486,290.506 174.82,289.839 215.5,290.5 Z"/></g>
<g><path style="opacity:1" fill="#127d41" d="M 106.5,297.5 C 109.812,300.146 112.812,303.146 115.5,306.5C 112.827,309.672 109.994,312.672 107,315.5C 104.052,312.716 101.219,309.716 98.5,306.5C 101.189,303.48 103.856,300.48 106.5,297.5 Z"/></g>
<g><path style="opacity:0.993" fill="#010101" d="M 13.5,332.5 C 170.833,332.5 328.167,332.5 485.5,332.5C 459.059,404.776 410.059,455.276 338.5,484C 317.652,491.713 296.319,496.88 274.5,499.5C 257.833,499.5 241.167,499.5 224.5,499.5C 136.144,487.759 70.3107,443.092 27,365.5C 21.3753,354.923 16.8753,343.923 13.5,332.5 Z"/></g>
</svg>
