<?xml version="1.0" encoding="UTF-8"?>
<!DOCTYPE svg PUBLIC "-//W3C//DTD SVG 1.1//EN" "http://www.w3.org/Graphics/SVG/1.1/DTD/svg11.dtd">
<svg xmlns="http://www.w3.org/2000/svg" version="1.1" width="500px" height="500px" style="shape-rendering:geometricPrecision; text-rendering:geometricPrecision; image-rendering:optimizeQuality; fill-rule:evenodd; clip-rule:evenodd" xmlns:xlink="http://www.w3.org/1999/xlink">
<g><path style="opacity:0.998" fill="#fefffe" d="M 225.5,-0.5 C 241.5,-0.5 257.5,-0.5 273.5,-0.5C 293.711,1.80256 313.378,6.46923 332.5,13.5C 332.5,170.833 332.5,328.167 332.5,485.5C 323.9,489.198 314.9,492.031 305.5,494C 295.064,496.071 284.73,497.905 274.5,499.5C 257.833,499.5 241.167,499.5 224.5,499.5C 204.6,497.253 185.267,492.586 166.5,485.5C 166.5,328.167 166.5,170.833 166.5,13.5C 185.622,6.46923 205.289,1.80256 225.5,-0.5 Z"/></g>
<g><path style="opacity:0.993" fill="#019b48" d="M 166.5,13.5 C 166.5,170.833 166.5,328.167 166.5,485.5C 84.513,455.009 31.3463,397.676 7,313.5C 3.72528,300.168 1.22528,286.834 -0.5,273.5C -0.5,257.5 -0.5,241.5 -0.5,225.5C 11.4543,135.075 57.4543,68.242 137.5,25C 146.845,20.2755 156.512,16.4422 166.5,13.5 Z"/></g>
<g><path style="opacity:0.997" fill="#ff862b" d="M 332.5,13.5 C 333.167,13.5 333.833,13.5 334.5,13.5C 334.5,170.833 334.5,328.167 334.5,485.5C 333.833,485.5 333.167,485.5 332.5,485.5C 332.5,328.167 332.5,170.833 332.5,13.5 Z"/></g>
<g><path style="opacity:0.993" fill="#fe7900" d="M 334.5,13.5 C 413.732,44.234 465.899,100.234 491,181.5C 494.695,195.808 497.529,210.141 499.5,224.5C 499.5,241.167 499.5,257.833 499.5,274.5C 487.764,361.841 443.764,427.341 367.5,471C 356.709,476.398 345.709,481.231 334.5,485.5C 334.5,328.167 334.5,170.833 334.5,13.5 Z"/></g>
</svg>
