<?xml version="1.0" encoding="UTF-8"?>
<!DOCTYPE svg PUBLIC "-//W3C//DTD SVG 1.1//EN" "http://www.w3.org/Graphics/SVG/1.1/DTD/svg11.dtd">
<svg xmlns="http://www.w3.org/2000/svg" version="1.1" width="500px" height="500px" style="shape-rendering:geometricPrecision; text-rendering:geometricPrecision; image-rendering:optimizeQuality; fill-rule:evenodd; clip-rule:evenodd" xmlns:xlink="http://www.w3.org/1999/xlink">
<g><path style="opacity:0.98" fill="#fdfefe" d="M 225.5,-0.5 C 241.5,-0.5 257.5,-0.5 273.5,-0.5C 313.311,4.04877 350.311,16.8821 384.5,38C 388.597,40.3696 392.264,43.2029 395.5,46.5C 298.167,46.5 200.833,46.5 103.5,46.5C 139.812,19.8353 180.479,4.16867 225.5,-0.5 Z"/></g>
<g><path style="opacity:0.995" fill="#0038b8" d="M 103.5,46.5 C 200.833,46.5 298.167,46.5 395.5,46.5C 425.126,67.0931 448.793,93.0931 466.5,124.5C 321.833,124.5 177.167,124.5 32.5,124.5C 47.1468,99.428 65.4802,77.2613 87.5,58C 92.7155,53.9026 98.0489,50.0693 103.5,46.5 Z"/></g>
<g><path style="opacity:0.997" fill="#fefefe" d="M 32.5,124.5 C 177.167,124.5 321.833,124.5 466.5,124.5C 484.306,155.584 495.306,188.918 499.5,224.5C 499.5,241.167 499.5,257.833 499.5,274.5C 495.581,310.178 484.581,343.512 466.5,374.5C 321.833,374.5 177.167,374.5 32.5,374.5C 14.4864,343.126 3.4864,309.459 -0.5,273.5C -0.5,257.5 -0.5,241.5 -0.5,225.5C 3.4864,189.541 14.4864,155.874 32.5,124.5 Z"/></g>
<g><path style="opacity:1" fill="#0739b8" d="M 280.5,196.5 C 300.167,197.167 319.833,197.833 339.5,198.5C 330.11,215.608 320.444,232.608 310.5,249.5C 320.444,266.392 330.11,283.392 339.5,300.5C 319.833,301.167 300.167,301.833 280.5,302.5C 270.193,319.77 259.859,337.103 249.5,354.5C 239.073,337.408 229.073,320.075 219.5,302.5C 199.5,301.833 179.5,301.167 159.5,300.5C 168.902,283.365 178.568,266.365 188.5,249.5C 178.568,232.635 168.902,215.635 159.5,198.5C 179.5,197.833 199.5,197.167 219.5,196.5C 229.073,178.925 239.073,161.592 249.5,144.5C 259.859,161.897 270.193,179.23 280.5,196.5 Z"/></g>
<g><path style="opacity:1" fill="#f8f9fd" d="M 262.5,195.5 C 253.833,196.833 245.167,196.833 236.5,195.5C 240.806,188.184 245.139,180.851 249.5,173.5C 253.861,180.851 258.194,188.184 262.5,195.5 Z"/></g>
<g><path style="opacity:1" fill="#416ac9" d="M 219.5,196.5 C 199.5,197.167 179.5,197.833 159.5,198.5C 158.957,198.44 158.624,198.107 158.5,197.5C 178.822,196.5 199.156,196.167 219.5,196.5 Z"/></g>
<g><path style="opacity:1" fill="#4069c9" d="M 236.5,195.5 C 245.167,196.833 253.833,196.833 262.5,195.5C 263.043,195.56 263.376,195.893 263.5,196.5C 254.167,197.833 244.833,197.833 235.5,196.5C 235.624,195.893 235.957,195.56 236.5,195.5 Z"/></g>
<g><path style="opacity:1" fill="#416ac9" d="M 280.5,196.5 C 300.511,196.167 320.511,196.5 340.5,197.5C 340.376,198.107 340.043,198.44 339.5,198.5C 319.833,197.833 300.167,197.167 280.5,196.5 Z"/></g>
<g><path style="opacity:1" fill="#3a64c7" d="M 315.5,211.5 C 306.651,211.174 297.984,211.507 289.5,212.5C 288.957,212.44 288.624,212.107 288.5,211.5C 297.658,210.178 306.658,210.178 315.5,211.5 Z"/></g>
<g><path style="opacity:1" fill="#f9fafd" d="M 183.5,212.5 C 192.324,211.343 201.324,211.176 210.5,212C 205.874,219.417 201.374,226.917 197,234.5C 192.726,226.936 188.226,219.602 183.5,212.5 Z"/></g>
<g><path style="opacity:1" fill="#fdfdfe" d="M 227.5,211.5 C 242.515,211.167 257.515,211.501 272.5,212.5C 279.753,224.671 286.753,237.004 293.5,249.5C 286.753,261.996 279.753,274.329 272.5,286.5C 257.167,287.833 241.833,287.833 226.5,286.5C 219.753,274.004 212.753,261.671 205.5,249.5C 212.845,236.806 220.178,224.139 227.5,211.5 Z"/></g>
<g><path style="opacity:1" fill="#f9fafd" d="M 315.5,211.5 C 311.516,219.468 307.016,227.135 302,234.5C 297.568,227.302 293.402,219.968 289.5,212.5C 297.984,211.507 306.651,211.174 315.5,211.5 Z"/></g>
<g><path style="opacity:1" fill="#f9fafd" d="M 209.5,286.5 C 201.016,287.493 192.349,287.826 183.5,287.5C 187.988,279.861 192.488,272.194 197,264.5C 201.444,271.726 205.61,279.059 209.5,286.5 Z"/></g>
<g><path style="opacity:1" fill="#f8fafd" d="M 315.5,287.5 C 306.651,287.826 297.984,287.493 289.5,286.5C 293.402,279.032 297.568,271.698 302,264.5C 307.016,271.865 311.516,279.532 315.5,287.5 Z"/></g>
<g><path style="opacity:1" fill="#6285d3" d="M 209.5,286.5 C 210.043,286.56 210.376,286.893 210.5,287.5C 201.342,288.822 192.342,288.822 183.5,287.5C 192.349,287.826 201.016,287.493 209.5,286.5 Z"/></g>
<g><path style="opacity:1" fill="#6184d3" d="M 289.5,286.5 C 297.984,287.493 306.651,287.826 315.5,287.5C 306.658,288.822 297.658,288.822 288.5,287.5C 288.624,286.893 288.957,286.56 289.5,286.5 Z"/></g>
<g><path style="opacity:1" fill="#2a58c3" d="M 159.5,300.5 C 179.5,301.167 199.5,301.833 219.5,302.5C 199.156,302.833 178.822,302.5 158.5,301.5C 158.624,300.893 158.957,300.56 159.5,300.5 Z"/></g>
<g><path style="opacity:1" fill="#2c5ac4" d="M 262.5,303.5 C 253.833,302.167 245.167,302.167 236.5,303.5C 235.957,303.44 235.624,303.107 235.5,302.5C 244.833,301.167 254.167,301.167 263.5,302.5C 263.376,303.107 263.043,303.44 262.5,303.5 Z"/></g>
<g><path style="opacity:1" fill="#2a58c3" d="M 339.5,300.5 C 340.043,300.56 340.376,300.893 340.5,301.5C 320.511,302.5 300.511,302.833 280.5,302.5C 300.167,301.833 319.833,301.167 339.5,300.5 Z"/></g>
<g><path style="opacity:1" fill="#f9fafd" d="M 262.5,303.5 C 258.194,310.816 253.861,318.149 249.5,325.5C 245.155,318.139 240.822,310.806 236.5,303.5C 245.167,302.167 253.833,302.167 262.5,303.5 Z"/></g>
<g><path style="opacity:0.995" fill="#0038b8" d="M 32.5,374.5 C 177.167,374.5 321.833,374.5 466.5,374.5C 449.167,406.171 425.5,432.171 395.5,452.5C 298.167,452.5 200.833,452.5 103.5,452.5C 73.874,431.907 50.2073,405.907 32.5,374.5 Z"/></g>
<g><path style="opacity:0.98" fill="#fdfdfe" d="M 103.5,452.5 C 200.833,452.5 298.167,452.5 395.5,452.5C 368.551,472.468 338.551,486.301 305.5,494C 295.064,496.071 284.73,497.905 274.5,499.5C 257.833,499.5 241.167,499.5 224.5,499.5C 185.067,494.744 148.4,481.91 114.5,461C 110.403,458.63 106.736,455.797 103.5,452.5 Z"/></g>
</svg>
