<?xml version="1.0" encoding="UTF-8"?>
<!DOCTYPE svg PUBLIC "-//W3C//DTD SVG 1.1//EN" "http://www.w3.org/Graphics/SVG/1.1/DTD/svg11.dtd">
<svg xmlns="http://www.w3.org/2000/svg" version="1.1" width="500px" height="500px" style="shape-rendering:geometricPrecision; text-rendering:geometricPrecision; image-rendering:optimizeQuality; fill-rule:evenodd; clip-rule:evenodd" xmlns:xlink="http://www.w3.org/1999/xlink">
<g><path style="opacity:0.997" fill="#fefefe" d="M 225.5,-0.5 C 241.5,-0.5 257.5,-0.5 273.5,-0.5C 309.459,3.4864 343.126,14.4864 374.5,32.5C 374.5,177.167 374.5,321.833 374.5,466.5C 343.513,484.581 310.18,495.581 274.5,499.5C 257.833,499.5 241.167,499.5 224.5,499.5C 188.918,495.306 155.584,484.306 124.5,466.5C 124.5,321.833 124.5,177.167 124.5,32.5C 155.874,14.4864 189.541,3.4864 225.5,-0.5 Z"/></g>
<g><path style="opacity:0.991" fill="#f77f00" d="M 124.5,32.5 C 124.5,177.167 124.5,321.833 124.5,466.5C 51.8732,422.481 10.2065,358.148 -0.5,273.5C -0.5,257.5 -0.5,241.5 -0.5,225.5C 10.2065,140.852 51.8732,76.5185 124.5,32.5 Z"/></g>
<g><path style="opacity:0.991" fill="#009e60" d="M 374.5,32.5 C 446.765,76.3133 488.432,140.313 499.5,224.5C 499.5,241.167 499.5,257.833 499.5,274.5C 490.258,350.173 454.925,410.339 393.5,455C 387.471,459.347 381.138,463.18 374.5,466.5C 374.5,321.833 374.5,177.167 374.5,32.5 Z"/></g>
</svg>
