<?xml version="1.0" encoding="UTF-8"?>
<!DOCTYPE svg PUBLIC "-//W3C//DTD SVG 1.1//EN" "http://www.w3.org/Graphics/SVG/1.1/DTD/svg11.dtd">
<svg xmlns="http://www.w3.org/2000/svg" version="1.1" width="500px" height="500px" style="shape-rendering:geometricPrecision; text-rendering:geometricPrecision; image-rendering:optimizeQuality; fill-rule:evenodd; clip-rule:evenodd" xmlns:xlink="http://www.w3.org/1999/xlink">
<g><path style="opacity:0.993" fill="#000000" d="M 225.5,-0.5 C 241.5,-0.5 257.5,-0.5 273.5,-0.5C 362.269,10.9489 428.436,55.6156 472,133.5C 477.625,144.077 482.125,155.077 485.5,166.5C 407.5,166.5 329.5,166.5 251.5,166.5C 190.516,136.675 129.849,106.341 69.5,75.5C 112.456,32.0239 164.456,6.69061 225.5,-0.5 Z"/></g>
<g><path style="opacity:0.997" fill="#cd1126" d="M 69.5,75.5 C 129.849,106.341 190.516,136.675 251.5,166.5C 306.106,194.137 360.772,221.803 415.5,249.5C 361.09,277.372 306.423,304.705 251.5,331.5C 250.127,331.343 248.793,331.51 247.5,332C 214.833,348.333 182.167,364.667 149.5,381C 148.748,381.671 148.414,382.504 148.5,383.5C 121.977,396.595 95.6433,409.928 69.5,423.5C 29.4761,381.492 6.1428,331.492 -0.5,273.5C -0.5,257.5 -0.5,241.5 -0.5,225.5C 6.16319,167.517 29.4965,117.517 69.5,75.5 Z"/></g>
<g><path style="opacity:0.996" fill="#fefefe" d="M 251.5,166.5 C 329.5,166.5 407.5,166.5 485.5,166.5C 492.586,185.267 497.253,204.6 499.5,224.5C 499.5,241.167 499.5,257.833 499.5,274.5C 498.1,284.764 496.267,295.098 494,305.5C 492.031,314.9 489.198,323.9 485.5,332.5C 407.5,332.5 329.5,332.5 251.5,332.5C 251.5,332.167 251.5,331.833 251.5,331.5C 306.423,304.705 361.09,277.372 415.5,249.5C 360.772,221.803 306.106,194.137 251.5,166.5 Z"/></g>
<g><path style="opacity:1" fill="#fef9f9" d="M 70.5,216.5 C 73.0693,223.029 75.5693,229.696 78,236.5C 84.31,233.508 90.81,231.341 97.5,230C 93.4612,235.242 89.7945,240.742 86.5,246.5C 91.7838,250.815 97.4505,254.649 103.5,258C 96.854,258.831 90.1874,259.331 83.5,259.5C 83.7619,266.572 84.2619,273.572 85,280.5C 80.3186,275.651 75.4852,270.985 70.5,266.5C 66.2095,271.292 61.7095,275.959 57,280.5C 56.79,273.463 57.29,266.463 58.5,259.5C 51.4673,259.497 44.4673,258.997 37.5,258C 43.7059,254.403 49.7059,250.569 55.5,246.5C 51.8333,241.167 48.1667,235.833 44.5,230.5C 44.8333,230.167 45.1667,229.833 45.5,229.5C 51.5,231.833 57.5,234.167 63.5,236.5C 66.1417,229.929 68.475,223.262 70.5,216.5 Z"/></g>
<g><path style="opacity:0.993" fill="#017a3d" d="M 251.5,332.5 C 329.5,332.5 407.5,332.5 485.5,332.5C 459.059,404.776 410.059,455.276 338.5,484C 317.652,491.713 296.319,496.88 274.5,499.5C 257.833,499.5 241.167,499.5 224.5,499.5C 163.667,492.468 112.001,467.134 69.5,423.5C 95.6433,409.928 121.977,396.595 148.5,383.5C 182.705,366.231 217.039,349.231 251.5,332.5 Z"/></g>
<g><path style="opacity:1" fill="#c31f27" d="M 251.5,331.5 C 251.5,331.833 251.5,332.167 251.5,332.5C 217.039,349.231 182.705,366.231 148.5,383.5C 148.414,382.504 148.748,381.671 149.5,381C 182.167,364.667 214.833,348.333 247.5,332C 248.793,331.51 250.127,331.343 251.5,331.5 Z"/></g>
</svg>
