<?xml version="1.0" encoding="UTF-8"?>
<!DOCTYPE svg PUBLIC "-//W3C//DTD SVG 1.1//EN" "http://www.w3.org/Graphics/SVG/1.1/DTD/svg11.dtd">
<svg xmlns="http://www.w3.org/2000/svg" version="1.1" width="500px" height="500px" style="shape-rendering:geometricPrecision; text-rendering:geometricPrecision; image-rendering:optimizeQuality; fill-rule:evenodd; clip-rule:evenodd" xmlns:xlink="http://www.w3.org/1999/xlink">
<g><path style="opacity:0.995" fill="#06afc9" d="M 225.5,-0.5 C 241.5,-0.5 257.5,-0.5 273.5,-0.5C 362.269,10.9489 428.436,55.6156 472,133.5C 486.559,162.333 495.726,192.666 499.5,224.5C 499.5,231.833 499.5,239.167 499.5,246.5C 498.625,248.568 497.459,250.568 496,252.5C 497.102,245.25 497.436,237.917 497,230.5C 495.612,229.446 494.112,229.28 492.5,230C 476.905,288.59 438.905,320.924 378.5,327C 372.801,332.365 367.467,338.031 362.5,344C 354.667,348.95 346.334,352.95 337.5,356C 335.963,357.11 335.297,358.61 335.5,360.5C 334.833,360.5 334.5,360.833 334.5,361.5C 330.004,363.422 328.837,366.422 331,370.5C 332.614,367.398 334.447,367.064 336.5,369.5C 342.359,367.767 348.359,367.1 354.5,367.5C 364.839,367.666 375.172,367.5 385.5,367C 379.477,366.641 373.477,366.141 367.5,365.5C 364.695,364.236 361.862,364.236 359,365.5C 357.596,365.491 356.43,364.991 355.5,364C 356.687,362.981 357.687,361.814 358.5,360.5C 357.975,359.808 357.308,359.308 356.5,359C 357.833,358 359.167,357 360.5,356C 356.416,355.882 352.416,356.549 348.5,358C 347.061,358.991 346.061,360.324 345.5,362C 344.207,362.49 342.873,362.657 341.5,362.5C 340.833,361.833 340.167,361.167 339.5,360.5C 353.787,354.358 366.787,346.191 378.5,336C 392.112,333.055 405.779,330.389 419.5,328C 423.485,322.506 428.485,318.172 434.5,315C 442.912,310.923 451.246,306.756 459.5,302.5C 465.357,289.972 474.691,281.306 487.5,276.5C 490.082,276.025 492.082,276.692 493.5,278.5C 492.904,282.358 491.238,285.691 488.5,288.5C 489.7,289.292 491.033,289.292 492.5,288.5C 494.179,288.285 495.179,288.952 495.5,290.5C 494.118,293.394 492.118,295.894 489.5,298C 490.759,298.923 492.092,299.757 493.5,300.5C 489.043,303.901 484.377,307.068 479.5,310C 480.308,310.308 480.975,310.808 481.5,311.5C 478.328,313.252 475.328,315.252 472.5,317.5C 473.326,318.451 473.492,319.451 473,320.5C 470.455,321.522 467.955,322.688 465.5,324C 467.394,325.079 467.727,326.413 466.5,328C 464.655,329.128 462.655,329.628 460.5,329.5C 461.041,332.652 460.041,335.152 457.5,337C 450.909,341.868 443.576,345.201 435.5,347C 449.337,347.887 461.671,344.054 472.5,335.5C 470.51,334.502 468.51,333.502 466.5,332.5C 465.167,331.833 465.167,331.167 466.5,330.5C 472.474,329.075 478.474,327.741 484.5,326.5C 481.025,325.92 477.691,325.087 474.5,324C 479.533,322.894 484.533,321.727 489.5,320.5C 471.838,380.324 436.838,427.157 384.5,461C 350.659,482.096 313.992,494.929 274.5,499.5C 257.833,499.5 241.167,499.5 224.5,499.5C 185.067,494.744 148.4,481.91 114.5,461C 110.403,458.63 106.736,455.797 103.5,452.5C 106.115,447.481 106.948,442.147 106,436.5C 104.743,434.321 103.243,432.321 101.5,430.5C 102.981,429.52 104.315,428.353 105.5,427C 104.315,425.647 102.981,424.48 101.5,423.5C 104.861,420.412 106.195,416.578 105.5,412C 104.614,405.832 103.614,399.665 102.5,393.5C 102.649,389.383 103.983,385.717 106.5,382.5C 101.477,382.848 98.4773,385.848 97.5,391.5C 97.6799,392.554 98.0133,393.554 98.5,394.5C 97.1667,394.833 95.8333,395.167 94.5,395.5C 96.4745,397.545 96.4745,399.212 94.5,400.5C 94.7093,401.086 95.0426,401.586 95.5,402C 86.2205,404.215 84.2205,409.215 89.5,417C 91.4405,417.304 93.1072,418.137 94.5,419.5C 95.2485,417.668 96.2485,416.001 97.5,414.5C 96.316,412.954 95.316,411.287 94.5,409.5C 93.6143,410.325 93.281,411.325 93.5,412.5C 90.0791,412.762 89.0791,411.428 90.5,408.5C 98.4811,406.317 101.314,409.317 99,417.5C 96.3981,421.212 92.8981,422.378 88.5,421C 83.9315,418.459 82.4315,414.625 84,409.5C 91.0613,394.377 98.3946,379.377 106,364.5C 109.576,358.074 110.243,351.407 108,344.5C 105.713,341.538 102.88,339.371 99.5,338C 103.499,337.332 106.332,335.165 108,331.5C 109.457,327.259 109.791,322.926 109,318.5C 103.872,308.27 99.0382,297.937 94.5,287.5C 94.4346,287.062 94.6012,286.728 95,286.5C 95.3333,287.167 95.6667,287.833 96,288.5C 96.21,286.942 96.71,285.609 97.5,284.5C 98.3653,289.862 101.365,293.029 106.5,294C 104.073,290.554 102.74,286.72 102.5,282.5C 103.365,276.043 104.699,269.709 106.5,263.5C 106.314,259.295 104.648,255.795 101.5,253C 106.833,250.667 106.833,248.333 101.5,246C 104.705,243.06 106.371,239.393 106.5,235C 104.471,228.666 103.138,222.166 102.5,215.5C 102.847,211.637 104.18,208.137 106.5,205C 99.8221,206.342 97.1554,210.342 98.5,217C 97.9056,217.464 97.2389,217.631 96.5,217.5C 95.6977,216.115 95.0311,216.282 94.5,218C 94.5699,218.765 94.9033,219.265 95.5,219.5C 94.4639,221.391 94.4639,223.224 95.5,225C 86.5014,226.397 84.1681,231.064 88.5,239C 90.4595,239.931 92.4595,240.764 94.5,241.5C 95.063,239.291 96.3964,237.791 98.5,237C 96.5676,235.648 95.2343,233.815 94.5,231.5C 93.5713,232.689 93.238,234.022 93.5,235.5C 89.1798,235.041 88.5132,233.208 91.5,230C 99.4853,230.095 101.652,233.928 98,241.5C 92.6512,245.943 87.9845,245.276 84,239.5C 83.3333,237.167 83.3333,234.833 84,232.5C 92,215.833 100,199.167 108,182.5C 112.242,171.831 109.076,164.664 98.5,161C 108.007,157.853 111.507,151.353 109,141.5C 100.394,123.954 92.0603,106.288 84,88.5C 82.9995,79.8365 86.8329,76.3365 95.5,78C 100.446,82.3003 100.779,86.967 96.5,92C 92.0022,93.4767 89.8355,91.9767 90,87.5C 91.0113,86.6634 92.1779,86.33 93.5,86.5C 93.281,87.675 93.6143,88.675 94.5,89.5C 95.063,87.2908 96.3964,85.7908 98.5,85C 96.5676,83.6482 95.2343,81.8149 94.5,79.5C 91.7493,80.8091 89.2493,82.4758 87,84.5C 85.2429,91.8249 88.0763,95.9915 95.5,97C 95.4022,98.618 95.4022,100.118 95.5,101.5C 94.596,102.209 94.2627,103.209 94.5,104.5C 95.5,104.5 96.5,104.5 97.5,104.5C 97.2155,106.415 97.5489,108.081 98.5,109.5C 99.542,114.24 102.209,116.574 106.5,116.5C 103.983,113.283 102.649,109.617 102.5,105.5C 103.215,98.6947 104.548,92.028 106.5,85.5C 106.435,81.3705 104.769,78.0371 101.5,75.5C 106.863,72.6584 106.53,70.4918 100.5,69C 107.344,62.4275 108.344,54.9275 103.5,46.5C 139.812,19.8353 180.479,4.16867 225.5,-0.5 Z"/></g>
<g><path style="opacity:0.997" fill="#f5c418" d="M 103.5,46.5 C 108.344,54.9275 107.344,62.4275 100.5,69C 106.53,70.4918 106.863,72.6584 101.5,75.5C 104.769,78.0371 106.435,81.3705 106.5,85.5C 104.548,92.028 103.215,98.6947 102.5,105.5C 102.649,109.617 103.983,113.283 106.5,116.5C 102.209,116.574 99.542,114.24 98.5,109.5C 98.5,107.5 98.5,105.5 98.5,103.5C 96.8212,103.715 95.8212,103.048 95.5,101.5C 95.4022,100.118 95.4022,98.618 95.5,97C 88.0763,95.9915 85.2429,91.8249 87,84.5C 89.2493,82.4758 91.7493,80.8091 94.5,79.5C 95.2343,81.8149 96.5676,83.6482 98.5,85C 96.3964,85.7908 95.063,87.2908 94.5,89.5C 93.6143,88.675 93.281,87.675 93.5,86.5C 92.1779,86.33 91.0113,86.6634 90,87.5C 89.8355,91.9767 92.0022,93.4767 96.5,92C 100.779,86.967 100.446,82.3003 95.5,78C 86.8329,76.3365 82.9995,79.8365 84,88.5C 92.0603,106.288 100.394,123.954 109,141.5C 111.507,151.353 108.007,157.853 98.5,161C 109.076,164.664 112.242,171.831 108,182.5C 100,199.167 92,215.833 84,232.5C 83.3333,234.833 83.3333,237.167 84,239.5C 87.9845,245.276 92.6512,245.943 98,241.5C 101.652,233.928 99.4853,230.095 91.5,230C 88.5132,233.208 89.1798,235.041 93.5,235.5C 93.238,234.022 93.5713,232.689 94.5,231.5C 95.2343,233.815 96.5676,235.648 98.5,237C 96.3964,237.791 95.063,239.291 94.5,241.5C 92.4595,240.764 90.4595,239.931 88.5,239C 84.1681,231.064 86.5014,226.397 95.5,225C 94.4639,223.224 94.4639,221.391 95.5,219.5C 95.3284,218.508 95.6618,217.842 96.5,217.5C 97.2389,217.631 97.9056,217.464 98.5,217C 97.1554,210.342 99.8221,206.342 106.5,205C 104.18,208.137 102.847,211.637 102.5,215.5C 103.138,222.166 104.471,228.666 106.5,235C 106.371,239.393 104.705,243.06 101.5,246C 106.833,248.333 106.833,250.667 101.5,253C 104.648,255.795 106.314,259.295 106.5,263.5C 104.699,269.709 103.365,276.043 102.5,282.5C 102.74,286.72 104.073,290.554 106.5,294C 101.365,293.029 98.3653,289.862 97.5,284.5C 98.8689,281.869 98.2022,281.202 95.5,282.5C 95.1667,282 94.8333,281.5 94.5,281C 94.9655,278.814 95.2989,276.648 95.5,274.5C 87.0714,272.479 84.7381,267.645 88.5,260C 90.7801,259.788 92.7801,258.955 94.5,257.5C 95.316,259.287 96.316,260.954 97.5,262.5C 96.273,263.59 95.4396,264.924 95,266.5C 93.3097,262.809 91.4763,262.643 89.5,266C 92.2975,270.483 95.4641,270.649 99,266.5C 100.441,256.935 96.6079,253.435 87.5,256C 83.7882,258.602 82.6215,262.102 84,266.5C 87.0331,273.788 90.5331,280.788 94.5,287.5C 99.0382,297.937 103.872,308.27 109,318.5C 109.791,322.926 109.457,327.259 108,331.5C 106.332,335.165 103.499,337.332 99.5,338C 102.88,339.371 105.713,341.538 108,344.5C 110.243,351.407 109.576,358.074 106,364.5C 98.3946,379.377 91.0613,394.377 84,409.5C 82.4315,414.625 83.9315,418.459 88.5,421C 92.8981,422.378 96.3981,421.212 99,417.5C 101.314,409.317 98.4811,406.317 90.5,408.5C 89.0791,411.428 90.0791,412.762 93.5,412.5C 93.281,411.325 93.6143,410.325 94.5,409.5C 95.316,411.287 96.316,412.954 97.5,414.5C 96.2485,416.001 95.2485,417.668 94.5,419.5C 93.1072,418.137 91.4405,417.304 89.5,417C 84.2205,409.215 86.2205,404.215 95.5,402C 95.0426,401.586 94.7093,401.086 94.5,400.5C 96.4745,399.212 96.4745,397.545 94.5,395.5C 95.8333,395.167 97.1667,394.833 98.5,394.5C 98.0133,393.554 97.6799,392.554 97.5,391.5C 98.4773,385.848 101.477,382.848 106.5,382.5C 103.983,385.717 102.649,389.383 102.5,393.5C 103.614,399.665 104.614,405.832 105.5,412C 106.195,416.578 104.861,420.412 101.5,423.5C 102.981,424.48 104.315,425.647 105.5,427C 104.315,428.353 102.981,429.52 101.5,430.5C 103.243,432.321 104.743,434.321 106,436.5C 106.948,442.147 106.115,447.481 103.5,452.5C 100.467,450.984 97.8003,448.984 95.5,446.5C 100.725,443.9 101.725,440.067 98.5,435C 95.4536,432.826 92.1202,432.159 88.5,433C 86.249,433.748 84.9156,435.248 84.5,437.5C 82.0905,436.299 80.0905,434.633 78.5,432.5C 81.3333,430.522 84.3333,428.689 87.5,427C 84.421,425.752 81.7543,423.919 79.5,421.5C 77.4268,423.58 75.0934,425.246 72.5,426.5C 70.8333,425.5 69.5,424.167 68.5,422.5C 74.3578,420.118 76.5244,415.785 75,409.5C 67,392.833 59,376.167 51,359.5C 46.8053,349.474 49.6386,342.307 59.5,338C 50.9556,334.748 47.789,328.581 50,319.5C 55.4524,308.264 60.6191,296.931 65.5,285.5C 71.1642,277.668 74.3309,269.001 75,259.5C 69.818,252.91 64.818,252.91 60,259.5C 58.1759,266.328 60.6759,269.494 67.5,269C 70.1047,267.069 70.1047,265.236 67.5,263.5C 66.2807,264.263 65.2807,265.263 64.5,266.5C 63.6461,265.052 62.6461,263.719 61.5,262.5C 62.684,260.954 63.684,259.287 64.5,257.5C 67.0063,258.892 69.5063,260.225 72,261.5C 73.9062,268.923 71.0729,273.089 63.5,274C 63.4124,276.789 63.7457,279.622 64.5,282.5C 60.9523,280.975 59.9523,281.975 61.5,285.5C 60.1767,290.329 57.1767,293.163 52.5,294C 55.1362,290.258 56.4695,286.091 56.5,281.5C 55.4673,275.102 54.134,268.769 52.5,262.5C 52.9799,258.707 54.6466,255.54 57.5,253C 52.1667,250.667 52.1667,248.333 57.5,246C 54.5093,243.352 52.8426,240.019 52.5,236C 53.8436,229.631 55.1769,223.298 56.5,217C 56.7558,212.434 55.4225,208.434 52.5,205C 59.1779,206.342 61.8446,210.342 60.5,217C 61.7839,217.684 62.9505,217.517 64,216.5C 64.5946,217.899 64.4279,219.232 63.5,220.5C 66.0443,221.937 66.0443,223.437 63.5,225C 72.4971,226.47 74.8304,231.137 70.5,239C 68.2199,239.212 66.2199,240.045 64.5,241.5C 63.937,239.291 62.6036,237.791 60.5,237C 62.2429,235.89 63.5762,234.39 64.5,232.5C 65.3857,233.325 65.719,234.325 65.5,235.5C 69.8202,235.041 70.4868,233.208 67.5,230C 60.6759,229.506 58.1759,232.672 60,239.5C 64.818,246.09 69.818,246.09 75,239.5C 75.6667,236.833 75.6667,234.167 75,231.5C 66.1216,214.41 57.7882,197.077 50,179.5C 47.789,170.419 50.9556,164.252 59.5,161C 51.1294,157.091 47.9627,150.591 50,141.5C 58.6064,123.954 66.9397,106.288 75,88.5C 76.2188,82.601 74.0521,78.601 68.5,76.5C 69.5,74.8333 70.8333,73.5 72.5,72.5C 75.0934,73.7536 77.4268,75.4202 79.5,77.5C 81.7543,75.0811 84.421,73.2477 87.5,72C 84.3333,70.3112 81.3333,68.4779 78.5,66.5C 80.4602,64.8437 82.4602,63.177 84.5,61.5C 84.8588,63.371 85.8588,64.871 87.5,66C 97.5792,67.9232 101.413,64.0899 99,54.5C 98.1841,53.1772 97.0174,52.5106 95.5,52.5C 97.8003,50.016 100.467,48.016 103.5,46.5 Z"/></g>
<g><path style="opacity:1" fill="#44b1b7" d="M 95.5,52.5 C 97.0174,52.5106 98.1841,53.1772 99,54.5C 101.413,64.0899 97.5792,67.9232 87.5,66C 85.8588,64.871 84.8588,63.371 84.5,61.5C 85.1667,60.1667 86.1667,59.1667 87.5,58.5C 87.427,60.0269 88.0937,61.0269 89.5,61.5C 91.2307,62.2066 92.8974,63.2066 94.5,64.5C 95.1067,64.3764 95.44,64.0431 95.5,63.5C 95.5,62.5 95.5,61.5 95.5,60.5C 99.5,59.8333 99.5,59.1667 95.5,58.5C 95.3781,54.1617 95.0447,53.8284 94.5,57.5C 92.901,57.7678 91.5676,57.4345 90.5,56.5C 91.5846,54.4131 93.2512,53.0798 95.5,52.5 Z"/></g>
<g><path style="opacity:1" fill="#f8c510" d="M 95.5,63.5 C 93.8863,61.9254 91.8863,61.2587 89.5,61.5C 88.0937,61.0269 87.427,60.0269 87.5,58.5C 88.2905,57.5987 89.2905,56.9321 90.5,56.5C 91.5676,57.4345 92.901,57.7678 94.5,57.5C 95.0447,53.8284 95.3781,54.1617 95.5,58.5C 99.5,59.1667 99.5,59.8333 95.5,60.5C 95.5,61.5 95.5,62.5 95.5,63.5 Z"/></g>
<g><path style="opacity:1" fill="#9abc5a" d="M 89.5,61.5 C 91.8863,61.2587 93.8863,61.9254 95.5,63.5C 95.44,64.0431 95.1067,64.3764 94.5,64.5C 92.8974,63.2066 91.2307,62.2066 89.5,61.5 Z"/></g>
<g><path style="opacity:0.816" fill="#a1bd5a" d="M 78.5,66.5 C 78.5,68.5 77.5,69.5 75.5,69.5C 76.1667,68.1667 77.1667,67.1667 78.5,66.5 Z"/></g>
<g><path style="opacity:0.97" fill="#26afc2" d="M 78.5,66.5 C 81.3333,68.4779 84.3333,70.3112 87.5,72C 84.421,73.2477 81.7543,75.0811 79.5,77.5C 77.4268,75.4202 75.0934,73.7536 72.5,72.5C 73.1667,71.1667 74.1667,70.1667 75.5,69.5C 77.5,69.5 78.5,68.5 78.5,66.5 Z"/></g>
<g><path style="opacity:1" fill="#40b0ba" d="M 61.5,84.5 C 62.6801,86.0145 63.6801,87.6812 64.5,89.5C 65.3857,88.675 65.719,87.675 65.5,86.5C 69.8202,86.9592 70.4868,88.7925 67.5,92C 62.8271,93.1681 60.1605,91.3347 59.5,86.5C 59.8333,85.5 60.5,84.8333 61.5,84.5 Z"/></g>
<g><path style="opacity:0.975" fill="#f6c415" d="M 65.5,79.5 C 67.6397,80.9683 69.8064,82.635 72,84.5C 73.7625,91.8114 70.9291,95.9781 63.5,97C 63.5978,98.618 63.5978,100.118 63.5,101.5C 63.1788,103.048 62.1788,103.715 60.5,103.5C 60.5,105.5 60.5,107.5 60.5,109.5C 59.458,114.24 56.7913,116.574 52.5,116.5C 55.3928,113.213 56.7261,109.38 56.5,105C 56.23,100.758 55.5633,96.591 54.5,92.5C 56.177,90.4602 57.8437,88.4602 59.5,86.5C 60.1605,91.3347 62.8271,93.1681 67.5,92C 70.4868,88.7925 69.8202,86.9592 65.5,86.5C 65.719,87.675 65.3857,88.675 64.5,89.5C 63.6801,87.6812 62.6801,86.0145 61.5,84.5C 62.8637,82.8089 64.197,81.1423 65.5,79.5 Z"/></g>
<g><path style="opacity:0.982" fill="#09afc9" d="M 68.5,76.5 C 74.0521,78.601 76.2188,82.601 75,88.5C 66.9397,106.288 58.6064,123.954 50,141.5C 47.9627,150.591 51.1294,157.091 59.5,161C 50.9556,164.252 47.789,170.419 50,179.5C 57.7882,197.077 66.1216,214.41 75,231.5C 75.6667,234.167 75.6667,236.833 75,239.5C 69.818,246.09 64.818,246.09 60,239.5C 58.1759,232.672 60.6759,229.506 67.5,230C 70.4868,233.208 69.8202,235.041 65.5,235.5C 65.719,234.325 65.3857,233.325 64.5,232.5C 63.5762,234.39 62.2429,235.89 60.5,237C 62.6036,237.791 63.937,239.291 64.5,241.5C 66.2199,240.045 68.2199,239.212 70.5,239C 74.8304,231.137 72.4971,226.47 63.5,225C 66.0443,223.437 66.0443,221.937 63.5,220.5C 64.4279,219.232 64.5946,217.899 64,216.5C 62.9505,217.517 61.7839,217.684 60.5,217C 61.8446,210.342 59.1779,206.342 52.5,205C 55.4225,208.434 56.7558,212.434 56.5,217C 55.1769,223.298 53.8436,229.631 52.5,236C 52.8426,240.019 54.5093,243.352 57.5,246C 52.1667,248.333 52.1667,250.667 57.5,253C 54.6466,255.54 52.9799,258.707 52.5,262.5C 54.134,268.769 55.4673,275.102 56.5,281.5C 56.4695,286.091 55.1362,290.258 52.5,294C 57.1767,293.163 60.1767,290.329 61.5,285.5C 59.9523,281.975 60.9523,280.975 64.5,282.5C 65.404,283.209 65.7373,284.209 65.5,285.5C 60.6191,296.931 55.4524,308.264 50,319.5C 47.789,328.581 50.9556,334.748 59.5,338C 49.6386,342.307 46.8053,349.474 51,359.5C 59,376.167 67,392.833 75,409.5C 76.5244,415.785 74.3578,420.118 68.5,422.5C 67.1667,421.833 66.1667,420.833 65.5,419.5C 67.1507,417.876 69.1507,416.543 71.5,415.5C 74.5618,408.114 72.2285,403.78 64.5,402.5C 64.6399,400.876 63.9733,399.71 62.5,399C 63.2931,397.915 63.9598,396.748 64.5,395.5C 63.1667,395.167 61.8333,394.833 60.5,394.5C 61.6978,388.245 59.1978,383.912 53,381.5C 53.6425,383.807 54.6425,386.141 56,388.5C 56.7324,394.61 56.2324,400.61 54.5,406.5C 23.2564,367.658 4.92302,323.325 -0.5,273.5C -0.5,257.5 -0.5,241.5 -0.5,225.5C 5.17451,175.78 23.5078,131.446 54.5,92.5C 55.5633,96.591 56.23,100.758 56.5,105C 56.7261,109.38 55.3928,113.213 52.5,116.5C 56.7913,116.574 59.458,114.24 60.5,109.5C 61.4511,108.081 61.7845,106.415 61.5,104.5C 62.5,104.5 63.5,104.5 64.5,104.5C 64.7373,103.209 64.404,102.209 63.5,101.5C 63.5978,100.118 63.5978,98.618 63.5,97C 70.9291,95.9781 73.7625,91.8114 72,84.5C 69.8064,82.635 67.6397,80.9683 65.5,79.5C 66.1667,78.1667 67.1667,77.1667 68.5,76.5 Z"/></g>
<g><path style="opacity:1" fill="#a6bd55" d="M 63.5,101.5 C 64.404,102.209 64.7373,103.209 64.5,104.5C 63.5,104.5 62.5,104.5 61.5,104.5C 61.7845,106.415 61.4511,108.081 60.5,109.5C 60.5,107.5 60.5,105.5 60.5,103.5C 62.1788,103.715 63.1788,103.048 63.5,101.5 Z"/></g>
<g><path style="opacity:1" fill="#96bb60" d="M 95.5,101.5 C 95.8212,103.048 96.8212,103.715 98.5,103.5C 98.5,105.5 98.5,107.5 98.5,109.5C 97.5489,108.081 97.2155,106.415 97.5,104.5C 96.5,104.5 95.5,104.5 94.5,104.5C 94.2627,103.209 94.596,102.209 95.5,101.5 Z"/></g>
<g><path style="opacity:1" fill="#f1c41e" d="M 372.5,105.5 C 375.329,112.299 377.329,119.466 378.5,127C 376.972,134.04 373.472,135.206 368,130.5C 368.124,121.948 369.624,113.615 372.5,105.5 Z"/></g>
<g><path style="opacity:1" fill="#f5c417" d="M 352.5,107.5 C 356.163,113.494 359.33,119.827 362,126.5C 363.176,133.194 360.343,135.694 353.5,134C 352.874,133.25 352.374,132.416 352,131.5C 351.302,123.472 351.468,115.472 352.5,107.5 Z"/></g>
<g><path style="opacity:1" fill="#f6c416" d="M 392.5,107.5 C 393.302,108.952 393.802,110.618 394,112.5C 394.667,118.833 394.667,125.167 394,131.5C 392.334,134.379 389.834,135.212 386.5,134C 383.797,132.18 382.964,129.68 384,126.5C 386.845,120.145 389.679,113.812 392.5,107.5 Z"/></g>
<g><path style="opacity:1" fill="#f5c418" d="M 411.5,114.5 C 412.24,122.133 411.406,129.799 409,137.5C 405.466,140.201 402.133,139.867 399,136.5C 398.333,135.167 398.333,133.833 399,132.5C 402.93,126.297 407.097,120.297 411.5,114.5 Z"/></g>
<g><path style="opacity:1" fill="#f5c417" d="M 333.5,114.5 C 338.897,119.403 343.397,125.07 347,131.5C 347.881,137.286 345.381,139.786 339.5,139C 338.333,138.5 337.5,137.667 337,136.5C 334.948,129.303 333.781,121.97 333.5,114.5 Z"/></g>
<g><path style="opacity:1" fill="#1eafc6" d="M 78.5,93.5 C 79.3764,93.3691 80.0431,93.7025 80.5,94.5C 88.2732,110.379 95.7732,126.379 103,142.5C 104.33,152.167 100.164,156.001 90.5,154C 87.7928,152.136 86.9595,149.636 88,146.5C 89.6995,145.594 91.5328,145.261 93.5,145.5C 94.082,151.843 95.582,151.843 98,145.5C 102.77,143.448 102.603,142.114 97.5,141.5C 96.6575,134.724 94.9908,134.224 92.5,140C 89.3408,140.011 86.5074,140.845 84,142.5C 83.3333,137.5 83.3333,132.5 84,127.5C 86.4728,126.88 88.9728,126.214 91.5,125.5C 89.7411,121.778 86.7411,119.778 82.5,119.5C 85.4257,114.818 84.7591,110.651 80.5,107C 79.8333,106.333 79.1667,106.333 78.5,107C 74.1961,110.654 73.5294,114.821 76.5,119.5C 72.2589,119.778 69.2589,121.778 67.5,125.5C 70.0865,126.48 72.7531,126.813 75.5,126.5C 75.666,131.844 75.4994,137.177 75,142.5C 72.4039,140.98 69.5706,140.147 66.5,140C 65.9103,138.491 65.2436,136.991 64.5,135.5C 62.4601,138.214 60.1268,140.714 57.5,143C 60.384,145.048 62.7173,147.548 64.5,150.5C 65.4519,148.955 65.7852,147.288 65.5,145.5C 70.6752,144.507 72.5086,146.507 71,151.5C 65.7157,155.728 60.7157,155.395 56,150.5C 55.3333,147.833 55.3333,145.167 56,142.5C 63.7957,126.269 71.2957,109.936 78.5,93.5 Z"/></g>
<g><path style="opacity:1" fill="#f7c415" d="M 429.5,123.5 C 428.942,130.696 426.775,137.696 423,144.5C 420,148.5 417,148.5 414,144.5C 413.333,142.5 413.333,140.5 414,138.5C 419.062,133.269 424.229,128.269 429.5,123.5 Z"/></g>
<g><path style="opacity:1" fill="#f4c41a" d="M 315.5,123.5 C 319.625,126.453 323.625,129.619 327.5,133C 331.115,135.733 332.948,139.233 333,143.5C 329.982,148.265 326.649,148.598 323,144.5C 320,137.666 317.5,130.666 315.5,123.5 Z"/></g>
<g><path style="opacity:1" fill="#f5c418" d="M 444.5,136.5 C 445.239,136.369 445.906,136.536 446.5,137C 443.126,142.916 439.626,148.75 436,154.5C 431.239,158.8 427.739,157.967 425.5,152C 425.625,150.373 426.125,148.873 427,147.5C 432.813,143.683 438.647,140.017 444.5,136.5 Z"/></g>
<g><path style="opacity:1" fill="#f5c418" d="M 299.5,135.5 C 306.559,139.448 313.392,143.781 320,148.5C 320.937,156.246 317.937,158.579 311,155.5C 306.89,148.942 303.057,142.275 299.5,135.5 Z"/></g>
<g><path style="opacity:1" fill="#fdc40d" d="M 364.5,142.5 C 400.942,141.134 425.442,157.468 438,191.5C 445.053,228.38 431.886,255.213 398.5,272C 364.372,283.333 336.872,274.5 316,245.5C 298.794,212.939 303.294,183.772 329.5,158C 339.833,149.619 351.5,144.452 364.5,142.5 Z"/></g>
<g><path style="opacity:1" fill="#f4c41a" d="M 457.5,151.5 C 459.028,151.517 459.528,152.184 459,153.5C 454.133,158.032 449.633,162.866 445.5,168C 440.117,170.961 436.784,169.461 435.5,163.5C 435.876,161.617 436.876,160.117 438.5,159C 444.893,156.375 451.227,153.875 457.5,151.5 Z"/></g>
<g><path style="opacity:1" fill="#21afc4" d="M 78.5,152.5 C 81.8386,156.026 85.8386,158.859 90.5,161C 85.8096,162.525 82.1429,165.359 79.5,169.5C 76.733,164.948 72.733,162.115 67.5,161C 72.3637,159.584 76.0303,156.751 78.5,152.5 Z"/></g>
<g><path style="opacity:1" fill="#f9c411" d="M 286.5,152.5 C 293.412,153.852 300.412,156.018 307.5,159C 311.5,162.333 311.5,165.667 307.5,169C 305.833,169.667 304.167,169.667 302.5,169C 296.936,163.605 291.603,158.105 286.5,152.5 Z"/></g>
<g><path style="opacity:1" fill="#f6c417" d="M 276.5,170.5 C 284.867,169.909 293.2,171.075 301.5,174C 304.328,181.164 301.995,184.164 294.5,183C 288.645,178.577 282.645,174.41 276.5,170.5 Z"/></g>
<g><path style="opacity:1" fill="#f4c419" d="M 463.5,169.5 C 465.527,169.338 467.527,169.505 469.5,170C 463.779,174.721 457.779,179.054 451.5,183C 446.594,184.756 443.927,183.089 443.5,178C 443.643,175.849 444.643,174.182 446.5,173C 452.285,171.777 457.952,170.61 463.5,169.5 Z"/></g>
<g><path style="opacity:1" fill="#f0c41f" d="M 282.5,187.5 C 287.267,187.191 291.934,187.691 296.5,189C 298.988,191.627 299.155,194.46 297,197.5C 294.263,198.61 291.429,198.777 288.5,198C 282.221,195.527 276.221,192.527 270.5,189C 274.688,188.824 278.688,188.324 282.5,187.5 Z"/></g>
<g><path style="opacity:1" fill="#eec423" d="M 451.5,187.5 C 459.505,187.857 467.505,188.357 475.5,189C 468.41,192.976 461.077,196.476 453.5,199.5C 449.833,199.167 447.833,197.167 447.5,193.5C 448.073,190.938 449.407,188.938 451.5,187.5 Z"/></g>
<g><path style="opacity:1" fill="#1cafc6" d="M 83.5,193.5 C 83.1805,188.637 83.5139,183.97 84.5,179.5C 87.1226,181.265 90.1226,181.932 93.5,181.5C 93.2148,183.288 93.5481,184.955 94.5,186.5C 96.9783,185.278 97.9783,183.278 97.5,180.5C 99.3464,180.778 100.68,180.111 101.5,178.5C 98.577,176.253 96.077,173.587 94,170.5C 94.6121,175.083 92.7787,176.916 88.5,176C 88.2588,166.323 92.5922,163.989 101.5,169C 103.393,171.917 103.893,175.084 103,178.5C 95.6958,195.108 87.8625,211.441 79.5,227.5C 71.1375,211.441 63.3042,195.108 56,178.5C 54.3365,169.833 57.8365,166 66.5,167C 71.13,168.59 72.4633,171.59 70.5,176C 66.7072,177.052 64.7072,175.552 64.5,171.5C 62.5816,173.416 60.7483,175.416 59,177.5C 60.2892,180.236 61.7892,183.069 63.5,186C 63.8333,186.167 64.1667,186.333 64.5,186.5C 65.4519,184.955 65.7852,183.288 65.5,181.5C 68.8826,181.743 72.0492,181.076 75,179.5C 75.6667,184.5 75.6667,189.5 75,194.5C 72.595,195.274 70.095,195.774 67.5,196C 69.298,199.737 72.298,201.737 76.5,202C 73.6734,206.719 74.3401,211.053 78.5,215C 81.4939,214.642 83.3272,212.808 84,209.5C 84.9439,206.653 84.4439,204.153 82.5,202C 86.4621,201.688 89.4621,199.855 91.5,196.5C 89.2338,195.686 86.9005,195.186 84.5,195C 83.944,194.617 83.6107,194.117 83.5,193.5 Z"/></g>
<g><path style="opacity:1" fill="#a1bd54" d="M 84.5,179.5 C 83.5139,183.97 83.1805,188.637 83.5,193.5C 82.1863,188.652 82.1863,183.652 83.5,178.5C 84.1067,178.624 84.44,178.957 84.5,179.5 Z"/></g>
<g><path style="opacity:1" fill="#f5c418" d="M 284.5,204.5 C 287.85,204.335 291.183,204.502 294.5,205C 297.167,208 297.167,211 294.5,214C 285.861,214.257 277.527,212.757 269.5,209.5C 274.544,207.663 279.544,205.997 284.5,204.5 Z"/></g>
<g><path style="opacity:1" fill="#f7c415" d="M 451.5,204.5 C 460.169,204.555 468.502,206.222 476.5,209.5C 468.453,212.764 460.119,214.264 451.5,214C 448.888,210.836 448.888,207.669 451.5,204.5 Z"/></g>
<g><path style="opacity:1" fill="#89ba69" d="M 96.5,217.5 C 95.6618,217.842 95.3284,218.508 95.5,219.5C 94.9033,219.265 94.5699,218.765 94.5,218C 95.0311,216.282 95.6977,216.115 96.5,217.5 Z"/></g>
<g><path style="opacity:1" fill="#eec422" d="M 288.5,220.5 C 291.448,220.223 294.281,220.556 297,221.5C 299.155,224.54 298.988,227.373 296.5,230C 287.892,231.811 279.225,231.811 270.5,230C 276.657,227.089 282.657,223.922 288.5,220.5 Z"/></g>
<g><path style="opacity:1" fill="#f0c41f" d="M 449.5,220.5 C 458.852,221.671 467.519,224.838 475.5,230C 467.514,230.999 459.514,231.333 451.5,231C 447.098,228.224 446.431,224.724 449.5,220.5 Z"/></g>
<g><path style="opacity:1" fill="#f6c416" d="M 248.5,250.5 C 248.987,251.473 249.487,252.473 250,253.5C 250.78,251.613 250.613,249.946 249.5,248.5C 248.47,242.537 248.303,236.537 249,230.5C 250.667,229.167 252.333,229.167 254,230.5C 262.784,270.944 285.95,299.778 323.5,317C 338.517,323.37 354.184,326.87 370.5,327.5C 369.087,330.661 367.42,333.661 365.5,336.5C 361.634,333.614 357.3,331.78 352.5,331C 343.384,330.869 334.384,329.869 325.5,328C 318.905,323.409 312.905,318.076 307.5,312C 299.665,309.416 292.332,305.749 285.5,301C 278.578,294.082 272.411,286.582 267,278.5C 263.799,274.964 260.299,271.797 256.5,269C 253.292,269.717 249.959,270.383 246.5,271C 249.737,274.972 251.737,279.472 252.5,284.5C 250.396,284.201 248.396,284.534 246.5,285.5C 249.021,289.099 252.021,292.266 255.5,295C 253.744,295.202 252.078,295.702 250.5,296.5C 254.147,300.156 258.481,302.49 263.5,303.5C 263.5,305.5 263.5,307.5 263.5,309.5C 265.103,309.312 266.437,309.812 267.5,311C 265.789,312.133 265.289,313.633 266,315.5C 268.202,316.402 270.368,317.402 272.5,318.5C 271.687,319.814 270.687,320.981 269.5,322C 273.072,324.637 277.072,326.303 281.5,327C 280.016,328.574 278.349,329.907 276.5,331C 288.474,337.65 301.141,342.65 314.5,346C 308.453,345.661 302.453,344.661 296.5,343C 286.236,339.2 276.236,334.866 266.5,330C 268.392,329.027 270.392,328.36 272.5,328C 272.167,327.667 271.833,327.333 271.5,327C 266.448,326.87 261.781,325.537 257.5,323C 259.635,321.619 261.968,320.619 264.5,320C 259.684,318.809 255.018,317.309 250.5,315.5C 254.255,314.775 257.922,313.775 261.5,312.5C 256.596,311.012 251.596,309.845 246.5,309C 245.016,308.338 243.683,307.504 242.5,306.5C 244.265,305.539 246.265,305.205 248.5,305.5C 251.187,305.664 253.854,305.497 256.5,305C 246.608,301.14 237.774,295.64 230,288.5C 229.5,287.5 229,286.5 228.5,285.5C 229.167,285.167 229.833,284.833 230.5,284.5C 233.6,285.758 236.6,287.258 239.5,289C 241.167,289.667 242.833,289.667 244.5,289C 235.333,281.167 226.833,272.667 219,263.5C 217.872,261.655 217.372,259.655 217.5,257.5C 219.199,257.34 220.866,257.506 222.5,258C 227.167,262.667 231.833,267.333 236.5,272C 238.691,273.919 241.024,275.253 243.5,276C 233.61,265.951 225.944,254.451 220.5,241.5C 220.608,240.558 220.941,239.725 221.5,239C 223.167,238.333 224.833,238.333 226.5,239C 232.308,246.976 238.308,254.809 244.5,262.5C 243.403,258.253 241.57,253.92 239,249.5C 237.333,244.5 235.667,239.5 234,234.5C 233.333,230.167 233.333,225.833 234,221.5C 235.444,219.845 237.278,219.178 239.5,219.5C 241.646,230.113 244.646,240.447 248.5,250.5 Z"/></g>
<g><path style="opacity:0.985" fill="#f7c415" d="M 499.5,246.5 C 499.5,255.833 499.5,265.167 499.5,274.5C 498.645,279.856 497.645,285.189 496.5,290.5C 496.5,289.5 496.5,288.5 496.5,287.5C 494.901,287.232 493.568,287.566 492.5,288.5C 491.033,289.292 489.7,289.292 488.5,288.5C 491.238,285.691 492.904,282.358 493.5,278.5C 494.404,277.791 494.737,276.791 494.5,275.5C 491.941,275.198 489.607,275.532 487.5,276.5C 474.691,281.306 465.357,289.972 459.5,302.5C 451.246,306.756 442.912,310.923 434.5,315C 428.485,318.172 423.485,322.506 419.5,328C 405.779,330.389 392.112,333.055 378.5,336C 366.787,346.191 353.787,354.358 339.5,360.5C 338.298,361.405 336.964,361.405 335.5,360.5C 335.297,358.61 335.963,357.11 337.5,356C 346.334,352.95 354.667,348.95 362.5,344C 367.467,338.031 372.801,332.365 378.5,327C 438.905,320.924 476.905,288.59 492.5,230C 494.112,229.28 495.612,229.446 497,230.5C 497.436,237.917 497.102,245.25 496,252.5C 497.459,250.568 498.625,248.568 499.5,246.5 Z"/></g>
<g><path style="opacity:1" fill="#f7c414" d="M 294.5,235.5 C 301.993,234.829 304.326,237.995 301.5,245C 293.644,247.42 285.644,248.754 277.5,249C 283.236,244.481 288.903,239.981 294.5,235.5 Z"/></g>
<g><path style="opacity:1" fill="#f6c416" d="M 445.5,235.5 C 448.32,235.248 450.986,235.748 453.5,237C 458.833,241 464.167,245 469.5,249C 461.773,248.754 454.107,247.754 446.5,246C 442.842,242.862 442.509,239.362 445.5,235.5 Z"/></g>
<g><path style="opacity:1" fill="#1fafc5" d="M 78.5,244.5 C 81.1318,246.113 83.7984,247.78 86.5,249.5C 83.9906,250.921 81.6572,252.588 79.5,254.5C 77.1604,252.329 74.4937,250.662 71.5,249.5C 74.42,248.55 76.7533,246.884 78.5,244.5 Z"/></g>
<g><path style="opacity:1" fill="#f8c412" d="M 302.5,249.5 C 308.326,249.157 310.826,251.824 310,257.5C 308.786,259.049 307.286,260.215 305.5,261C 299.262,263.637 292.929,265.637 286.5,267C 291.671,260.997 297.004,255.163 302.5,249.5 Z"/></g>
<g><path style="opacity:1" fill="#f4c418" d="M 438.5,249.5 C 441.564,249.144 444.231,249.977 446.5,252C 450.833,257 455.167,262 459.5,267C 452.327,265.498 445.327,263.164 438.5,260C 434.565,256.504 434.565,253.004 438.5,249.5 Z"/></g>
<g><path style="opacity:1" fill="#82b971" d="M 249.5,248.5 C 250.613,249.946 250.78,251.613 250,253.5C 249.487,252.473 248.987,251.473 248.5,250.5C 249.338,250.158 249.672,249.492 249.5,248.5 Z"/></g>
<g><path style="opacity:1" fill="#f5c417" d="M 313.5,261.5 C 319.303,261.81 321.47,264.81 320,270.5C 313.504,275.082 306.837,279.416 300,283.5C 301.733,278.7 304.066,274.034 307,269.5C 308.957,266.54 311.124,263.874 313.5,261.5 Z"/></g>
<g><path style="opacity:1" fill="#f4c418" d="M 429.5,261.5 C 432.099,261.549 434.266,262.549 436,264.5C 440.183,270.538 443.516,276.872 446,283.5C 439.667,279.5 433.333,275.5 427,271.5C 424.489,267.2 425.322,263.867 429.5,261.5 Z"/></g>
<g><path style="opacity:1" fill="#35b0be" d="M 97.5,284.5 C 96.71,285.609 96.21,286.942 96,288.5C 95.6667,287.833 95.3333,287.167 95,286.5C 94.6012,286.728 94.4346,287.062 94.5,287.5C 90.5331,280.788 87.0331,273.788 84,266.5C 82.6215,262.102 83.7882,258.602 87.5,256C 96.6079,253.435 100.441,256.935 99,266.5C 95.4641,270.649 92.2975,270.483 89.5,266C 91.4763,262.643 93.3097,262.809 95,266.5C 95.4396,264.924 96.273,263.59 97.5,262.5C 96.316,260.954 95.316,259.287 94.5,257.5C 92.7801,258.955 90.7801,259.788 88.5,260C 84.7381,267.645 87.0714,272.479 95.5,274.5C 95.2989,276.648 94.9655,278.814 94.5,281C 94.8333,281.5 95.1667,282 95.5,282.5C 98.2022,281.202 98.8689,281.869 97.5,284.5 Z"/></g>
<g><path style="opacity:1" fill="#f5c418" d="M 415.5,272.5 C 418.97,271.875 421.804,272.875 424,275.5C 426.769,282.474 429.102,289.474 431,296.5C 424.979,291.477 419.312,286.144 414,280.5C 413.109,277.502 413.609,274.836 415.5,272.5 Z"/></g>
<g><path style="opacity:1" fill="#f2c41c" d="M 324.5,272.5 C 330.337,271.518 333.17,273.851 333,279.5C 327.732,285.723 321.899,291.39 315.5,296.5C 316.842,288.17 319.842,280.17 324.5,272.5 Z"/></g>
<g><path style="opacity:1" fill="#30b0be" d="M 65.5,285.5 C 65.7373,284.209 65.404,283.209 64.5,282.5C 63.7457,279.622 63.4124,276.789 63.5,274C 71.0729,273.089 73.9062,268.923 72,261.5C 69.5063,260.225 67.0063,258.892 64.5,257.5C 63.684,259.287 62.684,260.954 61.5,262.5C 62.6461,263.719 63.6461,265.052 64.5,266.5C 65.2807,265.263 66.2807,264.263 67.5,263.5C 70.1047,265.236 70.1047,267.069 67.5,269C 60.6759,269.494 58.1759,266.328 60,259.5C 64.818,252.91 69.818,252.91 75,259.5C 74.3309,269.001 71.1642,277.668 65.5,285.5 Z"/></g>
<g><path style="opacity:1" fill="#20afc5" d="M 75.5,305.5 C 75.8195,310.363 75.4861,315.03 74.5,319.5C 71.8291,317.882 68.8291,317.215 65.5,317.5C 65.7852,315.712 65.4519,314.045 64.5,312.5C 62.4972,315.118 60.4972,317.785 58.5,320.5C 60.5007,322.863 62.5007,325.196 64.5,327.5C 64.7072,323.448 66.7072,321.948 70.5,323C 72.2547,326.876 71.2547,329.876 67.5,332C 58.4275,333.383 54.5941,329.55 56,320.5C 63.3042,303.892 71.1375,287.559 79.5,271.5C 87.5895,287.346 95.4229,303.346 103,319.5C 105.02,329.145 101.186,333.312 91.5,332C 87.9904,330.093 86.8238,327.26 88,323.5C 92.5472,321.697 94.5472,323.363 94,328.5C 96.2554,325.87 98.422,323.203 100.5,320.5C 98.5028,317.785 96.5028,315.118 94.5,312.5C 93.5481,314.045 93.2148,315.712 93.5,317.5C 90.0703,317.107 86.9036,317.773 84,319.5C 83.3333,314.5 83.3333,309.5 84,304.5C 93.3866,302.319 92.8866,299.819 82.5,297C 85.3266,292.281 84.6599,287.947 80.5,284C 79.8333,283.333 79.1667,283.333 78.5,284C 74.3401,287.947 73.6734,292.281 76.5,297C 72.5379,297.312 69.5379,299.145 67.5,302.5C 69.7662,303.314 72.0995,303.814 74.5,304C 75.056,304.383 75.3893,304.883 75.5,305.5 Z"/></g>
<g><path style="opacity:1" fill="#60b687" d="M 487.5,276.5 C 489.607,275.532 491.941,275.198 494.5,275.5C 494.737,276.791 494.404,277.791 493.5,278.5C 492.082,276.692 490.082,276.025 487.5,276.5 Z"/></g>
<g><path style="opacity:1" fill="#f4c418" d="M 339.5,279.5 C 345.377,279.206 347.877,281.872 347,287.5C 343.054,293.779 338.721,299.779 334,305.5C 333.677,298.43 334.343,291.43 336,284.5C 336.997,282.677 338.164,281.01 339.5,279.5 Z"/></g>
<g><path style="opacity:1" fill="#f6c417" d="M 412.5,300.5 C 412.768,302.099 412.434,303.432 411.5,304.5C 406.589,298.415 402.256,291.915 398.5,285C 401.562,278.442 405.395,277.942 410,283.5C 410.835,289.177 411.669,294.844 412.5,300.5 Z"/></g>
<g><path style="opacity:1" fill="#f6c415" d="M 354.5,284.5 C 358.942,283.705 361.609,285.372 362.5,289.5C 360.171,297.162 357.004,304.495 353,311.5C 351.558,303.548 351.225,295.548 352,287.5C 353.045,286.627 353.878,285.627 354.5,284.5 Z"/></g>
<g><path style="opacity:1" fill="#f7c414" d="M 386.5,284.5 C 389.695,283.961 392.195,284.961 394,287.5C 394.775,295.548 394.442,303.548 393,311.5C 389.005,304.511 385.838,297.178 383.5,289.5C 384.092,287.577 385.092,285.911 386.5,284.5 Z"/></g>
<g><path style="opacity:1" fill="#f7c414" d="M 369.5,286.5 C 371.857,286.337 374.19,286.503 376.5,287C 377.944,288.126 378.61,289.626 378.5,291.5C 377.294,298.991 375.461,306.325 373,313.5C 370.852,306.24 369.018,298.907 367.5,291.5C 367.437,289.486 368.103,287.819 369.5,286.5 Z"/></g>
<g><path style="opacity:0.898" fill="#77b875" d="M 492.5,288.5 C 493.568,287.566 494.901,287.232 496.5,287.5C 496.5,288.5 496.5,289.5 496.5,290.5C 496.167,290.5 495.833,290.5 495.5,290.5C 495.179,288.952 494.179,288.285 492.5,288.5 Z"/></g>
<g><path style="opacity:0.975" fill="#f6c416" d="M 495.5,290.5 C 495.833,290.5 496.167,290.5 496.5,290.5C 495.707,298.473 494.041,306.14 491.5,313.5C 488.444,314.296 485.444,315.296 482.5,316.5C 485.086,317.48 487.753,317.813 490.5,317.5C 490.737,318.791 490.404,319.791 489.5,320.5C 484.533,321.727 479.533,322.894 474.5,324C 477.691,325.087 481.025,325.92 484.5,326.5C 478.474,327.741 472.474,329.075 466.5,330.5C 465.167,331.167 465.167,331.833 466.5,332.5C 468.51,333.502 470.51,334.502 472.5,335.5C 461.671,344.054 449.337,347.887 435.5,347C 443.576,345.201 450.909,341.868 457.5,337C 460.041,335.152 461.041,332.652 460.5,329.5C 462.655,329.628 464.655,329.128 466.5,328C 467.727,326.413 467.394,325.079 465.5,324C 467.955,322.688 470.455,321.522 473,320.5C 473.492,319.451 473.326,318.451 472.5,317.5C 475.328,315.252 478.328,313.252 481.5,311.5C 480.975,310.808 480.308,310.308 479.5,310C 484.377,307.068 489.043,303.901 493.5,300.5C 492.092,299.757 490.759,298.923 489.5,298C 492.118,295.894 494.118,293.394 495.5,290.5 Z"/></g>
<g><path style="opacity:1" fill="#79b975" d="M 412.5,300.5 C 413.622,302.288 413.789,304.288 413,306.5C 412.283,305.956 411.783,305.289 411.5,304.5C 412.434,303.432 412.768,302.099 412.5,300.5 Z"/></g>
<g><path style="opacity:1" fill="#9fbd53" d="M 248.5,305.5 C 246.265,305.205 244.265,305.539 242.5,306.5C 241.957,306.44 241.624,306.107 241.5,305.5C 243.973,304.203 246.307,304.203 248.5,305.5 Z"/></g>
<g><path style="opacity:1" fill="#8dbb62" d="M 75.5,305.5 C 76.8137,310.348 76.8137,315.348 75.5,320.5C 74.8933,320.376 74.56,320.043 74.5,319.5C 75.4861,315.03 75.8195,310.363 75.5,305.5 Z"/></g>
<g><path style="opacity:1" fill="#36b0ba" d="M 491.5,313.5 C 491.768,315.099 491.434,316.432 490.5,317.5C 487.753,317.813 485.086,317.48 482.5,316.5C 485.444,315.296 488.444,314.296 491.5,313.5 Z"/></g>
<g><path style="opacity:1" fill="#20afc5" d="M 78.5,329.5 C 81.7668,333.251 85.7668,336.084 90.5,338C 86.0327,339.889 82.3661,342.722 79.5,346.5C 76.6339,342.722 72.9673,339.889 68.5,338C 73.2731,336.718 76.6065,333.884 78.5,329.5 Z"/></g>
<g><path style="opacity:1" fill="#f3c419" d="M 367.5,365.5 C 363.167,366.167 358.833,366.833 354.5,367.5C 348.359,367.1 342.359,367.767 336.5,369.5C 334.447,367.064 332.614,367.398 331,370.5C 328.837,366.422 330.004,363.422 334.5,361.5C 336.764,362.219 339.097,362.552 341.5,362.5C 342.873,362.657 344.207,362.49 345.5,362C 346.061,360.324 347.061,358.991 348.5,358C 352.416,356.549 356.416,355.882 360.5,356C 359.167,357 357.833,358 356.5,359C 357.308,359.308 357.975,359.808 358.5,360.5C 357.687,361.814 356.687,362.981 355.5,364C 356.43,364.991 357.596,365.491 359,365.5C 361.862,364.236 364.695,364.236 367.5,365.5 Z"/></g>
<g><path style="opacity:1" fill="#f7c415" d="M 387.5,383.5 C 387.808,381.076 387.474,378.743 386.5,376.5C 385.893,376.624 385.56,376.957 385.5,377.5C 383.833,379.833 381.833,381.833 379.5,383.5C 378.5,383.5 377.5,383.5 376.5,383.5C 376.795,381.265 376.461,379.265 375.5,377.5C 373.037,379.461 370.703,381.628 368.5,384C 367.552,384.483 366.552,384.649 365.5,384.5C 365.663,382.143 365.497,379.81 365,377.5C 361.028,380.737 356.528,382.737 351.5,383.5C 352.544,377.953 355.877,374.453 361.5,373C 373.452,371.775 385.452,371.109 397.5,371C 403.415,370.541 408.415,368.208 412.5,364C 412.043,363.586 411.709,363.086 411.5,362.5C 412.914,361.376 414.414,360.376 416,359.5C 416.483,358.552 416.649,357.552 416.5,356.5C 419.136,356.036 421.803,355.703 424.5,355.5C 435.476,356.831 446.476,357.831 457.5,358.5C 457.598,364.236 454.765,367.236 449,367.5C 446.516,367.174 444.349,366.174 442.5,364.5C 441.114,374.256 436.781,375.923 429.5,369.5C 427.957,372.086 426.291,374.586 424.5,377C 421.671,377.689 420.004,376.522 419.5,373.5C 417.83,376.035 415.83,378.201 413.5,380C 412.5,380.667 411.5,380.667 410.5,380C 409.646,378.978 408.646,378.145 407.5,377.5C 405.465,379.372 403.298,381.039 401,382.5C 399.056,381.312 397.556,379.646 396.5,377.5C 394.973,379.193 393.64,381.027 392.5,383C 390.866,383.494 389.199,383.66 387.5,383.5 Z"/></g>
<g><path style="opacity:1" fill="#89bb64" d="M 334.5,361.5 C 334.5,360.833 334.833,360.5 335.5,360.5C 336.964,361.405 338.298,361.405 339.5,360.5C 340.167,361.167 340.833,361.833 341.5,362.5C 339.097,362.552 336.764,362.219 334.5,361.5 Z"/></g>
<g><path style="opacity:1" fill="#bbbf44" d="M 367.5,365.5 C 373.477,366.141 379.477,366.641 385.5,367C 375.172,367.5 364.839,367.666 354.5,367.5C 358.833,366.833 363.167,366.167 367.5,365.5 Z"/></g>
<g><path style="opacity:1" fill="#21afc5" d="M 74.5,357.5 C 75.4861,361.97 75.8195,366.637 75.5,371.5C 72.9723,372.166 70.3056,372.832 67.5,373.5C 69.2589,377.222 72.2589,379.222 76.5,379.5C 73.542,384.628 74.542,388.961 79.5,392.5C 84.4473,389.006 85.4473,384.673 82.5,379.5C 86.7411,379.222 89.7411,377.222 91.5,373.5C 88.6944,372.832 86.0277,372.166 83.5,371.5C 83.1805,366.637 83.5139,361.97 84.5,357.5C 87.0795,358.228 89.7462,358.728 92.5,359C 93.0897,360.509 93.7564,362.009 94.5,363.5C 96.4094,360.619 98.7428,358.119 101.5,356C 98.5957,354.018 96.2623,351.518 94.5,348.5C 93.5481,350.045 93.2148,351.712 93.5,353.5C 88.3248,354.493 86.4914,352.493 88,347.5C 93.2093,343.356 98.2093,343.689 103,348.5C 103.667,350.833 103.667,353.167 103,355.5C 95.6423,372.415 87.8089,389.081 79.5,405.5C 71.4098,388.985 63.5765,372.318 56,355.5C 55.1727,346.338 59.3394,342.838 68.5,345C 71.2072,346.864 72.0405,349.364 71,352.5C 69.3005,353.406 67.4672,353.739 65.5,353.5C 65.7852,351.712 65.4519,350.045 64.5,348.5C 62.7282,351.56 60.3948,354.06 57.5,356C 60.1268,358.286 62.4601,360.786 64.5,363.5C 65.2436,362.009 65.9103,360.509 66.5,359C 69.2538,358.728 71.9205,358.228 74.5,357.5 Z"/></g>
<g><path style="opacity:1" fill="#92bb60" d="M 84.5,357.5 C 83.5139,361.97 83.1805,366.637 83.5,371.5C 82.1863,366.652 82.1863,361.652 83.5,356.5C 84.1067,356.624 84.44,356.957 84.5,357.5 Z"/></g>
<g><path style="opacity:1" fill="#87ba66" d="M 74.5,357.5 C 74.56,356.957 74.8933,356.624 75.5,356.5C 76.8137,361.652 76.8137,366.652 75.5,371.5C 75.8195,366.637 75.4861,361.97 74.5,357.5 Z"/></g>
<g><path style="opacity:1" fill="#afbe4c" d="M 375.5,377.5 C 376.461,379.265 376.795,381.265 376.5,383.5C 377.5,383.5 378.5,383.5 379.5,383.5C 378.432,384.434 377.099,384.768 375.5,384.5C 375.5,382.167 375.5,379.833 375.5,377.5 Z"/></g>
<g><path style="opacity:1" fill="#9abc58" d="M 385.5,377.5 C 385.56,376.957 385.893,376.624 386.5,376.5C 387.474,378.743 387.808,381.076 387.5,383.5C 386.833,381.5 386.167,379.5 385.5,377.5 Z"/></g>
<g><path style="opacity:0.971" fill="#f3c41a" d="M 65.5,419.5 C 63.9373,418.055 62.604,416.389 61.5,414.5C 62.6801,412.986 63.6801,411.319 64.5,409.5C 65.3857,410.325 65.719,411.325 65.5,412.5C 66.8333,412.5 68.1667,412.5 69.5,412.5C 68.2666,406.034 65.1,405.034 60,409.5C 59.5172,410.448 59.3505,411.448 59.5,412.5C 57.3674,410.909 55.7007,408.909 54.5,406.5C 56.2324,400.61 56.7324,394.61 56,388.5C 54.6425,386.141 53.6425,383.807 53,381.5C 59.1978,383.912 61.6978,388.245 60.5,394.5C 61.8333,394.833 63.1667,395.167 64.5,395.5C 63.9598,396.748 63.2931,397.915 62.5,399C 63.9733,399.71 64.6399,400.876 64.5,402.5C 72.2285,403.78 74.5618,408.114 71.5,415.5C 69.1507,416.543 67.1507,417.876 65.5,419.5 Z"/></g>
<g><path style="opacity:1" fill="#42b1b8" d="M 61.5,414.5 C 60.5,414.167 59.8333,413.5 59.5,412.5C 59.3505,411.448 59.5172,410.448 60,409.5C 65.1,405.034 68.2666,406.034 69.5,412.5C 68.1667,412.5 66.8333,412.5 65.5,412.5C 65.719,411.325 65.3857,410.325 64.5,409.5C 63.6801,411.319 62.6801,412.986 61.5,414.5 Z"/></g>
<g><path style="opacity:0.976" fill="#25afc4" d="M 78.5,432.5 C 78.5,430.5 77.5,429.5 75.5,429.5C 74.1667,428.833 73.1667,427.833 72.5,426.5C 75.0934,425.246 77.4268,423.58 79.5,421.5C 81.7543,423.919 84.421,425.752 87.5,427C 84.3333,428.689 81.3333,430.522 78.5,432.5 Z"/></g>
<g><path style="opacity:0.831" fill="#adbe5a" d="M 75.5,429.5 C 77.5,429.5 78.5,430.5 78.5,432.5C 77.1667,431.833 76.1667,430.833 75.5,429.5 Z"/></g>
<g><path style="opacity:0.996" fill="#36b0bd" d="M 95.5,446.5 C 93.2512,445.92 91.5846,444.587 90.5,442.5C 92.665,441.065 94.165,441.731 95,444.5C 95.9277,442.693 97.0944,441.026 98.5,439.5C 97.675,438.614 96.675,438.281 95.5,438.5C 95.5,437.5 95.5,436.5 95.5,435.5C 95.44,434.957 95.1067,434.624 94.5,434.5C 92.8974,435.793 91.2307,436.793 89.5,437.5C 88.0937,437.973 87.427,438.973 87.5,440.5C 86.1667,439.833 85.1667,438.833 84.5,437.5C 84.9156,435.248 86.249,433.748 88.5,433C 92.1202,432.159 95.4536,432.826 98.5,435C 101.725,440.067 100.725,443.9 95.5,446.5 Z"/></g>
<g><path style="opacity:1" fill="#8dbb63" d="M 95.5,435.5 C 93.8863,437.075 91.8863,437.741 89.5,437.5C 91.2307,436.793 92.8974,435.793 94.5,434.5C 95.1067,434.624 95.44,434.957 95.5,435.5 Z"/></g>
<g><path style="opacity:0.981" fill="#f1c41b" d="M 95.5,435.5 C 95.5,436.5 95.5,437.5 95.5,438.5C 96.675,438.281 97.675,438.614 98.5,439.5C 97.0944,441.026 95.9277,442.693 95,444.5C 94.165,441.731 92.665,441.065 90.5,442.5C 88.9731,442.573 87.9731,441.906 87.5,440.5C 87.427,438.973 88.0937,437.973 89.5,437.5C 91.8863,437.741 93.8863,437.075 95.5,435.5 Z"/></g>
</svg>
