<?xml version="1.0" encoding="UTF-8"?>
<!DOCTYPE svg PUBLIC "-//W3C//DTD SVG 1.1//EN" "http://www.w3.org/Graphics/SVG/1.1/DTD/svg11.dtd">
<svg xmlns="http://www.w3.org/2000/svg" version="1.1" width="500px" height="500px" style="shape-rendering:geometricPrecision; text-rendering:geometricPrecision; image-rendering:optimizeQuality; fill-rule:evenodd; clip-rule:evenodd" xmlns:xlink="http://www.w3.org/1999/xlink">
<g><path style="opacity:0.978" fill="#cd1325" d="M 225.5,-0.5 C 241.5,-0.5 257.5,-0.5 273.5,-0.5C 305.156,2.91489 335.156,11.9149 363.5,26.5C 337.835,31.0612 311.835,33.5612 285.5,34C 266.888,36.3012 251.888,44.8012 240.5,59.5C 235.851,53.02 229.851,48.1867 222.5,45C 200.264,41.4091 177.93,38.4091 155.5,36C 146.362,34.6302 137.362,32.7969 128.5,30.5C 158.708,13.5417 191.042,3.20837 225.5,-0.5 Z"/></g>
<g><path style="opacity:0.995" fill="#cd1225" d="M 369.5,29.5 C 444.655,73.0391 487.988,138.039 499.5,224.5C 499.5,236.5 499.5,248.5 499.5,260.5C 487.169,264.868 474.502,268.035 461.5,270C 446.564,271.434 431.898,270.101 417.5,266C 401.466,260.831 385.466,255.998 369.5,251.5C 373.39,250.445 377.39,250.279 381.5,251C 377.89,246.194 373.223,242.861 367.5,241C 362.682,239.964 358.015,238.631 353.5,237C 359.611,233.945 365.944,231.445 372.5,229.5C 372.5,228.5 372.5,227.5 372.5,226.5C 364.804,226.831 357.138,226.497 349.5,225.5C 353.142,220.39 357.142,215.557 361.5,211C 365.035,208.233 369.035,206.566 373.5,206C 370.508,203.89 367.175,202.557 363.5,202C 356.461,201.495 349.461,201.495 342.5,202C 347.982,197.685 352.982,192.851 357.5,187.5C 357,187.167 356.5,186.833 356,186.5C 348.777,189.257 341.61,191.257 334.5,192.5C 336.846,185.629 339.679,178.962 343,172.5C 345.383,169.727 348.217,167.561 351.5,166C 346.833,165.333 342.167,165.333 337.5,166C 331.578,168.141 325.912,170.474 320.5,173C 324.215,167.073 327.548,160.906 330.5,154.5C 330.167,154.167 329.833,153.833 329.5,153.5C 323.191,157.975 317.025,162.641 311,167.5C 310.333,160.167 310.333,152.833 311,145.5C 312.198,142.274 314.031,139.441 316.5,137C 312.486,136.495 308.819,137.495 305.5,140C 300.366,144.133 295.532,148.633 291,153.5C 291.082,147.835 291.582,142.168 292.5,136.5C 292.167,135.167 291.833,133.833 291.5,132.5C 287.58,138.674 283.413,144.674 279,150.5C 275.414,143.576 272.914,136.243 271.5,128.5C 272.086,125.267 272.919,122.267 274,119.5C 264.949,126.061 258.782,134.728 255.5,145.5C 253.427,138.971 251.927,132.304 251,125.5C 250.586,125.043 250.086,124.709 249.5,124.5C 246.909,132.05 244.742,139.717 243,147.5C 238.62,142.789 234.62,137.789 231,132.5C 229.109,128.389 228.109,124.056 228,119.5C 220.988,128.199 217.988,138.199 219,149.5C 215.329,143.674 211.496,138.007 207.5,132.5C 207.167,133.5 206.833,134.5 206.5,135.5C 207.993,142.109 208.493,148.776 208,155.5C 200.459,152.064 193.792,147.398 188,141.5C 187,139.167 186,136.833 185,134.5C 183.442,138.007 182.608,141.673 182.5,145.5C 183.316,152.748 184.816,159.748 187,166.5C 181.308,161.974 175.474,157.641 169.5,153.5C 169.167,153.833 168.833,154.167 168.5,154.5C 172.294,161.254 175.961,168.087 179.5,175C 170.67,175.166 162.336,173.166 154.5,169C 152.641,167.442 151.141,165.609 150,163.5C 149.634,174.939 153.801,184.439 162.5,192C 155.902,190.805 149.402,188.971 143,186.5C 142.5,186.833 142,187.167 141.5,187.5C 146.684,193.517 152.35,199.017 158.5,204C 152.072,205.395 145.572,206.228 139,206.5C 134.425,206.774 130.258,205.941 126.5,204C 128.592,210.101 132.259,215.101 137.5,219C 141.336,221.084 145.003,223.417 148.5,226C 141.174,226.5 133.841,226.666 126.5,226.5C 126.5,227.5 126.5,228.5 126.5,229.5C 133.725,231.779 140.725,234.612 147.5,238C 138.869,245.766 128.869,249.099 117.5,248C 119.373,249.704 121.04,251.537 122.5,253.5C 108.63,256.956 94.9634,261.123 81.5,266C 64.3826,270.658 47.0492,271.658 29.5,269C 19.4766,266.229 9.47663,263.396 -0.5,260.5C -0.5,248.833 -0.5,237.167 -0.5,225.5C 10.3724,140.377 52.3724,75.7098 125.5,31.5C 127.004,33.8356 129.004,35.669 131.5,37C 137.264,40.2159 143.264,42.8825 149.5,45C 163.982,48.8584 178.648,51.8584 193.5,54C 204.704,56.397 215.037,60.7303 224.5,67C 223.667,67.1667 222.833,67.3333 222,67.5C 215.161,63.1098 207.661,60.9431 199.5,61C 196.554,61.8061 193.888,63.1395 191.5,65C 185.5,65.3333 179.5,65.6667 173.5,66C 172.362,69.7255 173.695,72.3921 177.5,74C 184.5,74.3333 191.5,74.6667 198.5,75C 213.342,90.5018 231.342,96.1685 252.5,92C 260.381,89.9287 268.048,87.262 275.5,84C 287.181,83.8325 298.848,83.3325 310.5,82.5C 307.267,77.3848 302.6,75.2182 296.5,76C 302.577,73.8925 308.577,71.7259 314.5,69.5C 298.5,68.8333 282.5,68.1667 266.5,67.5C 269.273,63.2233 272.607,59.39 276.5,56C 309.27,52.8953 340.27,44.062 369.5,29.5 Z"/></g>
<g><path style="opacity:1" fill="#c09e08" d="M 363.5,26.5 C 365.483,27.4706 367.483,28.4706 369.5,29.5C 340.27,44.062 309.27,52.8953 276.5,56C 272.607,59.39 269.273,63.2233 266.5,67.5C 282.5,68.1667 298.5,68.8333 314.5,69.5C 308.577,71.7259 302.577,73.8925 296.5,76C 302.6,75.2182 307.267,77.3848 310.5,82.5C 298.848,83.3325 287.181,83.8325 275.5,84C 268.048,87.262 260.381,89.9287 252.5,92C 231.342,96.1685 213.342,90.5018 198.5,75C 191.5,74.6667 184.5,74.3333 177.5,74C 173.695,72.3921 172.362,69.7255 173.5,66C 179.5,65.6667 185.5,65.3333 191.5,65C 193.888,63.1395 196.554,61.8061 199.5,61C 207.661,60.9431 215.161,63.1098 222,67.5C 222.833,67.3333 223.667,67.1667 224.5,67C 215.037,60.7303 204.704,56.397 193.5,54C 178.648,51.8584 163.982,48.8584 149.5,45C 143.264,42.8825 137.264,40.2159 131.5,37C 129.004,35.669 127.004,33.8356 125.5,31.5C 126.391,30.8902 127.391,30.5569 128.5,30.5C 137.362,32.7969 146.362,34.6302 155.5,36C 177.93,38.4091 200.264,41.4091 222.5,45C 229.851,48.1867 235.851,53.02 240.5,59.5C 251.888,44.8012 266.888,36.3012 285.5,34C 311.835,33.5612 337.835,31.0612 363.5,26.5 Z"/></g>
<g><path style="opacity:1" fill="#f8ce15" d="M 137.5,38.5 C 158.201,41.769 179.201,44.9357 200.5,48C 211.454,49.1344 219.788,54.3011 225.5,63.5C 225.167,63.8333 224.833,64.1667 224.5,64.5C 217.341,59.921 209.674,56.421 201.5,54C 186.484,51.0813 171.484,48.0813 156.5,45C 149.984,43.328 143.65,41.1613 137.5,38.5 Z"/></g>
<g><path style="opacity:1" fill="#f9cf15" d="M 360.5,30.5 C 361.552,30.3505 362.552,30.5172 363.5,31C 335.783,43.2149 306.783,50.8816 276.5,54C 270.337,59.6646 264.671,65.8313 259.5,72.5C 253.393,79.5568 245.726,82.7235 236.5,82C 234.321,80.7433 232.321,79.2433 230.5,77.5C 229.479,78.0016 229.312,78.6683 230,79.5C 232.408,83.0374 235.741,84.704 240,84.5C 249.752,83.4291 257.586,78.9291 263.5,71C 277.167,70.3333 290.833,70.3333 304.5,71C 290.289,75.7718 276.289,81.1051 262.5,87C 238.43,96.229 217.43,91.729 199.5,73.5C 192.189,72.6687 184.856,72.1687 177.5,72C 177.167,71.6667 176.833,71.3333 176.5,71C 183.191,70.8309 189.858,70.3309 196.5,69.5C 189.167,68.8333 181.833,68.1667 174.5,67.5C 180.807,66.6694 187.141,66.1694 193.5,66C 196.281,63.8502 199.447,62.6835 203,62.5C 208.513,63.3377 213.679,65.1711 218.5,68C 223.833,68.6667 229.167,68.6667 234.5,68C 241.864,60.302 249.53,52.9687 257.5,46C 262.774,42.5302 268.44,39.8636 274.5,38C 297.856,36.3128 321.19,34.1461 344.5,31.5C 345.5,31.6667 346.5,31.8333 347.5,32C 329.755,36.1346 311.755,38.1346 293.5,38C 282.187,38.4093 271.853,41.7427 262.5,48C 253.932,55.7371 244.932,62.9038 235.5,69.5C 236,69.8333 236.5,70.1667 237,70.5C 246.602,63.9419 255.769,56.7752 264.5,49C 269.551,46.0915 274.884,43.7582 280.5,42C 295.775,40.1131 311.108,38.7798 326.5,38C 338.219,36.6452 349.552,34.1452 360.5,30.5 Z"/></g>
<g><path style="opacity:1" fill="#f8cd15" d="M 136.5,35.5 C 137.097,34.8614 137.93,34.528 139,34.5C 146.805,36.1618 154.638,37.6618 162.5,39C 180.561,40.4727 198.561,42.4727 216.5,45C 226.316,47.332 233.65,52.832 238.5,61.5C 236.684,62.8149 235.017,64.3149 233.5,66C 231.527,66.4955 229.527,66.6621 227.5,66.5C 225.567,57.7269 220.234,51.8936 211.5,49C 195.764,44.8655 179.764,42.1988 163.5,41C 154.434,39.4868 145.434,37.6534 136.5,35.5 Z"/></g>
<g><path style="opacity:1" fill="#c3a109" d="M 200.5,64.5 C 204.138,63.7366 205.638,65.0699 205,68.5C 200.415,70.4126 198.915,69.0793 200.5,64.5 Z"/></g>
<g><path style="opacity:1" fill="#fad015" d="M 289.5,78.5 C 294.511,78.3341 299.511,78.5007 304.5,79C 305.167,79.6667 305.833,80.3333 306.5,81C 298.833,81.6667 291.167,81.6667 283.5,81C 285.611,80.1553 287.611,79.322 289.5,78.5 Z"/></g>
<g><path style="opacity:1" fill="#c19f08" d="M 276.5,75.5 C 278.337,75.6395 278.67,76.3061 277.5,77.5C 263.608,86.0577 248.608,89.391 232.5,87.5C 248.329,87.3285 262.995,83.3285 276.5,75.5 Z"/></g>
<g><path style="opacity:1" fill="#fbd016" d="M 316.5,254.5 C 302.097,259.465 287.431,263.965 272.5,268C 258.222,270.85 243.889,271.183 229.5,269C 214.006,265.001 198.672,260.501 183.5,255.5C 181.389,223.752 194.722,200.918 223.5,187C 253.339,176.752 279.172,182.919 301,205.5C 313.042,219.601 318.208,235.934 316.5,254.5 Z"/></g>
<g><path style="opacity:1" fill="#bf9d09" d="M 369.5,251.5 C 367.265,251.795 365.265,251.461 363.5,250.5C 366.814,249.336 370.148,248.17 373.5,247C 366.027,242.962 358.027,240.462 349.5,239.5C 340.399,241.718 331.732,245.051 323.5,249.5C 324.577,250.705 325.91,251.372 327.5,251.5C 324.063,252.945 320.397,253.945 316.5,254.5C 318.208,235.934 313.042,219.601 301,205.5C 279.172,182.919 253.339,176.752 223.5,187C 194.722,200.918 181.389,223.752 183.5,255.5C 178.737,254.096 174.071,252.762 169.5,251.5C 171.696,251.435 173.696,250.768 175.5,249.5C 167.585,245.973 159.585,242.639 151.5,239.5C 142.729,244.722 133.729,249.055 124.5,252.5C 123.833,252.833 123.167,253.167 122.5,253.5C 121.04,251.537 119.373,249.704 117.5,248C 128.869,249.099 138.869,245.766 147.5,238C 140.725,234.612 133.725,231.779 126.5,229.5C 126.5,228.5 126.5,227.5 126.5,226.5C 133.841,226.666 141.174,226.5 148.5,226C 145.003,223.417 141.336,221.084 137.5,219C 132.259,215.101 128.592,210.101 126.5,204C 130.258,205.941 134.425,206.774 139,206.5C 145.572,206.228 152.072,205.395 158.5,204C 152.35,199.017 146.684,193.517 141.5,187.5C 142,187.167 142.5,186.833 143,186.5C 149.402,188.971 155.902,190.805 162.5,192C 153.801,184.439 149.634,174.939 150,163.5C 151.141,165.609 152.641,167.442 154.5,169C 162.336,173.166 170.67,175.166 179.5,175C 175.961,168.087 172.294,161.254 168.5,154.5C 168.833,154.167 169.167,153.833 169.5,153.5C 175.474,157.641 181.308,161.974 187,166.5C 184.816,159.748 183.316,152.748 182.5,145.5C 182.608,141.673 183.442,138.007 185,134.5C 186,136.833 187,139.167 188,141.5C 193.792,147.398 200.459,152.064 208,155.5C 208.493,148.776 207.993,142.109 206.5,135.5C 206.833,134.5 207.167,133.5 207.5,132.5C 211.496,138.007 215.329,143.674 219,149.5C 217.988,138.199 220.988,128.199 228,119.5C 228.109,124.056 229.109,128.389 231,132.5C 234.62,137.789 238.62,142.789 243,147.5C 244.742,139.717 246.909,132.05 249.5,124.5C 250.086,124.709 250.586,125.043 251,125.5C 251.927,132.304 253.427,138.971 255.5,145.5C 258.782,134.728 264.949,126.061 274,119.5C 272.919,122.267 272.086,125.267 271.5,128.5C 272.914,136.243 275.414,143.576 279,150.5C 283.413,144.674 287.58,138.674 291.5,132.5C 291.833,133.833 292.167,135.167 292.5,136.5C 291.582,142.168 291.082,147.835 291,153.5C 295.532,148.633 300.366,144.133 305.5,140C 308.819,137.495 312.486,136.495 316.5,137C 314.031,139.441 312.198,142.274 311,145.5C 310.333,152.833 310.333,160.167 311,167.5C 317.025,162.641 323.191,157.975 329.5,153.5C 329.833,153.833 330.167,154.167 330.5,154.5C 327.548,160.906 324.215,167.073 320.5,173C 325.912,170.474 331.578,168.141 337.5,166C 342.167,165.333 346.833,165.333 351.5,166C 348.217,167.561 345.383,169.727 343,172.5C 339.679,178.962 336.846,185.629 334.5,192.5C 341.61,191.257 348.777,189.257 356,186.5C 356.5,186.833 357,187.167 357.5,187.5C 352.982,192.851 347.982,197.685 342.5,202C 349.461,201.495 356.461,201.495 363.5,202C 367.175,202.557 370.508,203.89 373.5,206C 369.035,206.566 365.035,208.233 361.5,211C 357.142,215.557 353.142,220.39 349.5,225.5C 357.138,226.497 364.804,226.831 372.5,226.5C 372.5,227.5 372.5,228.5 372.5,229.5C 365.944,231.445 359.611,233.945 353.5,237C 358.015,238.631 362.682,239.964 367.5,241C 373.223,242.861 377.89,246.194 381.5,251C 377.39,250.279 373.39,250.445 369.5,251.5 Z"/></g>
<g><path style="opacity:1" fill="#f9cf15" d="M 349.5,190.5 C 351.842,190.775 351.842,191.608 349.5,193C 338.018,202.981 326.684,213.148 315.5,223.5C 311.87,217.237 308.537,210.904 305.5,204.5C 320.44,200.408 335.106,195.741 349.5,190.5 Z"/></g>
<g><path style="opacity:1" fill="#facf15" d="M 147.5,191.5 C 163.068,195.515 178.735,200.348 194.5,206C 190.208,211.412 186.541,217.245 183.5,223.5C 171.778,212.44 159.778,201.773 147.5,191.5 Z"/></g>
<g><path style="opacity:1" fill="#facf15" d="M 152.5,170.5 C 161.319,174.707 170.652,177.374 180.5,178.5C 185.087,186.004 189.42,193.671 193.5,201.5C 193,201.833 192.5,202.167 192,202.5C 184.357,199.397 176.524,196.897 168.5,195C 160.765,188.353 155.432,180.187 152.5,170.5 Z"/></g>
<g><path style="opacity:1" fill="#fad015" d="M 339.5,167.5 C 341.199,167.34 342.866,167.506 344.5,168C 342.291,169.873 340.458,172.04 339,174.5C 336.402,180.794 333.902,187.127 331.5,193.5C 322.978,197.064 314.311,199.897 305.5,202C 309.539,194.087 313.706,186.254 318,178.5C 324.91,174.129 332.077,170.463 339.5,167.5 Z"/></g>
<g><path style="opacity:1" fill="#facf15" d="M 323.5,159.5 C 324.239,159.369 324.906,159.536 325.5,160C 317.54,174.086 309.706,188.253 302,202.5C 297.588,197.582 292.755,193.249 287.5,189.5C 299.531,179.492 311.531,169.492 323.5,159.5 Z"/></g>
<g><path style="opacity:1" fill="#facf15" d="M 173.5,160.5 C 173.897,159.475 174.563,159.308 175.5,160C 187.833,169.833 200.167,179.667 212.5,189.5C 206.602,192.893 201.435,197.226 197,202.5C 189.392,188.276 181.559,174.276 173.5,160.5 Z"/></g>
<g><path style="opacity:1" fill="#facf15" d="M 288.5,140.5 C 289.147,141.274 289.48,142.274 289.5,143.5C 287.721,158.292 285.387,172.959 282.5,187.5C 276.286,184.706 269.952,182.206 263.5,180C 272.057,166.949 280.391,153.783 288.5,140.5 Z"/></g>
<g><path style="opacity:1" fill="#facf15" d="M 209.5,140.5 C 218.516,153.345 227.182,166.511 235.5,180C 228.742,181.419 222.409,183.919 216.5,187.5C 213.595,171.924 211.261,156.258 209.5,140.5 Z"/></g>
<g><path style="opacity:1" fill="#fad015" d="M 185.5,143.5 C 192.698,149.689 200.531,155.022 209,159.5C 210.984,168.086 211.984,176.753 212,185.5C 205.076,180.287 198.243,174.954 191.5,169.5C 187.291,161.332 185.291,152.665 185.5,143.5 Z"/></g>
<g><path style="opacity:1" fill="#facf15" d="M 308.5,140.5 C 309.376,140.369 310.043,140.702 310.5,141.5C 309.568,143.795 308.735,146.129 308,148.5C 307.667,155.833 307.333,163.167 307,170.5C 300.154,175.257 293.488,180.257 287,185.5C 286.873,176.388 287.873,167.388 290,158.5C 295.4,151.598 301.567,145.598 308.5,140.5 Z"/></g>
<g><path style="opacity:1" fill="#facf15" d="M 248.5,132.5 C 253.317,147.638 256.984,163.305 259.5,179.5C 252.833,179.5 246.167,179.5 239.5,179.5C 242.628,163.86 245.628,148.193 248.5,132.5 Z"/></g>
<g><path style="opacity:1" fill="#fad015" d="M 268.5,126.5 C 270.36,135.578 273.026,144.578 276.5,153.5C 272.588,161.664 267.921,169.331 262.5,176.5C 260.092,168.273 258.092,159.94 256.5,151.5C 258.651,142.2 262.651,133.866 268.5,126.5 Z"/></g>
<g><path style="opacity:1" fill="#facf15" d="M 225.5,126.5 C 226.954,129.408 228.454,132.408 230,135.5C 234.42,140.693 238.587,146.027 242.5,151.5C 240.475,160.127 238.641,168.794 237,177.5C 232,169.833 227,162.167 222,154.5C 220.617,144.794 221.783,135.461 225.5,126.5 Z"/></g>
<g><path style="opacity:1" fill="#facf15" d="M 349.5,203.5 C 354.93,203.161 360.264,203.661 365.5,205C 358.126,210.706 351.793,217.373 346.5,225C 337.149,225.832 327.816,225.665 318.5,224.5C 324.99,218.178 331.657,212.011 338.5,206C 342.347,205.367 346.014,204.533 349.5,203.5 Z"/></g>
<g><path style="opacity:1" fill="#fad015" d="M 155.5,206.5 C 157.527,206.338 159.527,206.505 161.5,207C 167.833,212.667 174.167,218.333 180.5,224C 171.188,225.166 161.854,225.499 152.5,225C 144.164,221.342 137.164,216.008 131.5,209C 139.689,209.614 147.689,208.781 155.5,206.5 Z"/></g>
<g><path style="opacity:1" fill="#facf15" d="M 156.5,227.5 C 165.173,227.334 173.84,227.5 182.5,228C 180.156,234.261 179.156,240.761 179.5,247.5C 164.22,242.018 149.22,235.851 134.5,229C 142.011,228.829 149.345,228.329 156.5,227.5 Z"/></g>
<g><path style="opacity:1" fill="#facf15" d="M 316.5,228.5 C 320.319,227.834 324.319,227.501 328.5,227.5C 340.5,228 352.5,228.5 364.5,229C 349.979,235.425 335.312,241.592 320.5,247.5C 319.655,240.936 318.322,234.602 316.5,228.5 Z"/></g>
<g><path style="opacity:1" fill="#fad01a" d="M 169.5,251.5 C 154.43,248.644 139.43,248.977 124.5,252.5C 133.729,249.055 142.729,244.722 151.5,239.5C 159.585,242.639 167.585,245.973 175.5,249.5C 173.696,250.768 171.696,251.435 169.5,251.5 Z"/></g>
<g><path style="opacity:1" fill="#fad017" d="M 363.5,250.5 C 351.455,249.081 339.455,249.415 327.5,251.5C 325.91,251.372 324.577,250.705 323.5,249.5C 331.732,245.051 340.399,241.718 349.5,239.5C 358.027,240.462 366.027,242.962 373.5,247C 370.148,248.17 366.814,249.336 363.5,250.5 Z"/></g>
<g><path style="opacity:0.997" fill="#fdfdfd" d="M 169.5,251.5 C 174.071,252.762 178.737,254.096 183.5,255.5C 198.672,260.501 214.006,265.001 229.5,269C 243.889,271.183 258.222,270.85 272.5,268C 287.431,263.965 302.097,259.465 316.5,254.5C 320.397,253.945 324.063,252.945 327.5,251.5C 339.455,249.415 351.455,249.081 363.5,250.5C 365.265,251.461 367.265,251.795 369.5,251.5C 385.466,255.998 401.466,260.831 417.5,266C 431.898,270.101 446.564,271.434 461.5,270C 474.502,268.035 487.169,264.868 499.5,260.5C 499.5,265.167 499.5,269.833 499.5,274.5C 498.366,282.077 497.033,289.744 495.5,297.5C 483.74,301.273 471.74,304.106 459.5,306C 451.5,306.667 443.5,306.667 435.5,306C 414.028,300.505 392.695,294.505 371.5,288C 356.472,284.755 341.472,284.755 326.5,288C 306.554,293.871 286.554,299.538 266.5,305C 254.49,306.945 242.49,306.945 230.5,305C 210.721,299.74 191.054,294.074 171.5,288C 156.472,284.755 141.472,284.755 126.5,288C 110.774,292.464 95.1071,297.131 79.5,302C 65.0921,306.101 50.4254,307.434 35.5,306C 24.6645,303.734 13.9978,300.901 3.5,297.5C 2.05911,289.394 0.725773,281.394 -0.5,273.5C -0.5,269.167 -0.5,264.833 -0.5,260.5C 9.47663,263.396 19.4766,266.229 29.5,269C 47.0492,271.658 64.3826,270.658 81.5,266C 94.9634,261.123 108.63,256.956 122.5,253.5C 123.167,253.167 123.833,252.833 124.5,252.5C 139.43,248.977 154.43,248.644 169.5,251.5 Z"/></g>
<g><path style="opacity:0.997" fill="#033f87" d="M 495.5,297.5 C 493.228,310.923 489.562,323.923 484.5,336.5C 462.962,343.601 441.295,344.101 419.5,338C 402.893,332.798 386.226,327.798 369.5,323C 355.838,319.721 342.172,319.721 328.5,323C 308.818,328.673 289.151,334.339 269.5,340C 252.656,343.794 235.989,343.127 219.5,338C 202.893,332.798 186.226,327.798 169.5,323C 155.838,319.721 142.172,319.721 128.5,323C 107.278,329.407 85.9447,335.407 64.5,341C 47.4145,343.888 30.7478,342.388 14.5,336.5C 9.74686,323.823 6.0802,310.823 3.5,297.5C 13.9978,300.901 24.6645,303.734 35.5,306C 50.4254,307.434 65.0921,306.101 79.5,302C 95.1071,297.131 110.774,292.464 126.5,288C 141.472,284.755 156.472,284.755 171.5,288C 191.054,294.074 210.721,299.74 230.5,305C 242.49,306.945 254.49,306.945 266.5,305C 286.554,299.538 306.554,293.871 326.5,288C 341.472,284.755 356.472,284.755 371.5,288C 392.695,294.505 414.028,300.505 435.5,306C 443.5,306.667 451.5,306.667 459.5,306C 471.74,304.106 483.74,301.273 495.5,297.5 Z"/></g>
<g><path style="opacity:0.996" fill="#fdfdfe" d="M 484.5,336.5 C 479.751,350.661 473.418,363.994 465.5,376.5C 454.867,377.596 444.2,377.763 433.5,377C 413.597,372.143 393.93,366.477 374.5,360C 357.5,355.333 340.5,355.333 323.5,360C 305.344,365.941 287.01,371.274 268.5,376C 256.877,377.527 245.21,377.861 233.5,377C 213.597,372.143 193.93,366.477 174.5,360C 157.505,355.334 140.505,355.334 123.5,360C 105.344,365.941 87.0102,371.274 68.5,376C 57.2148,377.356 45.8815,377.856 34.5,377.5C 25.9959,364.823 19.3292,351.157 14.5,336.5C 30.7478,342.388 47.4145,343.888 64.5,341C 85.9447,335.407 107.278,329.407 128.5,323C 142.172,319.721 155.838,319.721 169.5,323C 186.226,327.798 202.893,332.798 219.5,338C 235.989,343.127 252.656,343.794 269.5,340C 289.151,334.339 308.818,328.673 328.5,323C 342.172,319.721 355.838,319.721 369.5,323C 386.226,327.798 402.893,332.798 419.5,338C 441.295,344.101 462.962,343.601 484.5,336.5 Z"/></g>
<g><path style="opacity:0.996" fill="#044087" d="M 465.5,376.5 C 457.711,389.758 448.711,402.091 438.5,413.5C 416.025,408.46 393.691,402.294 371.5,395C 357.908,392.095 344.241,391.761 330.5,394C 310.833,399.667 291.167,405.333 271.5,411C 256.149,414.308 240.816,414.308 225.5,411C 204.117,403.983 182.45,397.983 160.5,393C 146.234,391.618 132.234,392.951 118.5,397C 99.3002,403.462 79.9669,408.962 60.5,413.5C 50.3664,402.569 41.6997,390.569 34.5,377.5C 45.8815,377.856 57.2148,377.356 68.5,376C 87.0102,371.274 105.344,365.941 123.5,360C 140.505,355.334 157.505,355.334 174.5,360C 193.93,366.477 213.597,372.143 233.5,377C 245.21,377.861 256.877,377.527 268.5,376C 287.01,371.274 305.344,365.941 323.5,360C 340.5,355.333 357.5,355.333 374.5,360C 393.93,366.477 413.597,372.143 433.5,377C 444.2,377.763 454.867,377.596 465.5,376.5 Z"/></g>
<g><path style="opacity:0.996" fill="#fcfdfd" d="M 438.5,413.5 C 429.774,424.56 419.774,434.227 408.5,442.5C 389.721,434.54 370.054,429.874 349.5,428.5C 341.388,428.286 333.388,429.119 325.5,431C 311.047,434.929 296.713,439.262 282.5,444C 264.061,449.898 245.394,450.898 226.5,447C 212.307,443.269 198.307,438.936 184.5,434C 158.628,426.187 132.961,426.854 107.5,436C 101.539,437.704 95.872,439.871 90.5,442.5C 79.2256,434.227 69.2256,424.56 60.5,413.5C 79.9669,408.962 99.3002,403.462 118.5,397C 132.234,392.951 146.234,391.618 160.5,393C 182.45,397.983 204.117,403.983 225.5,411C 240.816,414.308 256.149,414.308 271.5,411C 291.167,405.333 310.833,399.667 330.5,394C 344.241,391.761 357.908,392.095 371.5,395C 393.691,402.294 416.025,408.46 438.5,413.5 Z"/></g>
<g><path style="opacity:0.985" fill="#013f87" d="M 408.5,442.5 C 382.031,465.408 351.698,481.575 317.5,491C 303.192,494.695 288.859,497.529 274.5,499.5C 257.833,499.5 241.167,499.5 224.5,499.5C 185.067,494.744 148.4,481.91 114.5,461C 105.89,455.539 97.8898,449.373 90.5,442.5C 95.872,439.871 101.539,437.704 107.5,436C 132.961,426.854 158.628,426.187 184.5,434C 198.307,438.936 212.307,443.269 226.5,447C 245.394,450.898 264.061,449.898 282.5,444C 296.713,439.262 311.047,434.929 325.5,431C 333.388,429.119 341.388,428.286 349.5,428.5C 370.054,429.874 389.721,434.54 408.5,442.5 Z"/></g>
</svg>
