<?xml version="1.0" encoding="UTF-8"?>
<!DOCTYPE svg PUBLIC "-//W3C//DTD SVG 1.1//EN" "http://www.w3.org/Graphics/SVG/1.1/DTD/svg11.dtd">
<svg xmlns="http://www.w3.org/2000/svg" version="1.1" width="500px" height="500px" style="shape-rendering:geometricPrecision; text-rendering:geometricPrecision; image-rendering:optimizeQuality; fill-rule:evenodd; clip-rule:evenodd" xmlns:xlink="http://www.w3.org/1999/xlink">
<g><path style="opacity:0.994" fill="#fefefe" d="M 225.5,-0.5 C 241.5,-0.5 257.5,-0.5 273.5,-0.5C 362.269,10.9489 428.436,55.6156 472,133.5C 486.559,162.333 495.726,192.666 499.5,224.5C 499.5,241.167 499.5,257.833 499.5,274.5C 487.764,361.841 443.764,427.341 367.5,471C 338.093,486.083 307.093,495.583 274.5,499.5C 257.833,499.5 241.167,499.5 224.5,499.5C 132.596,487.072 65.4294,439.739 23,357.5C 10.7506,330.604 2.91724,302.604 -0.5,273.5C -0.5,257.5 -0.5,241.5 -0.5,225.5C 11.4543,135.075 57.4543,68.242 137.5,25C 165.514,11.5012 194.847,3.00119 225.5,-0.5 Z"/></g>
<g><path style="opacity:1" fill="#070707" d="M 121.5,115.5 C 125.957,116.936 129.957,119.27 133.5,122.5C 118.415,145.672 103.081,168.672 87.5,191.5C 83.6183,189.066 79.9516,186.399 76.5,183.5C 91.5259,160.816 106.526,138.149 121.5,115.5 Z"/></g>
<g><path style="opacity:1" fill="#070707" d="M 374.5,115.5 C 375.822,115.33 376.989,115.663 378,116.5C 384.5,126.333 391,136.167 397.5,146C 394.18,148.994 390.513,151.494 386.5,153.5C 379.142,143.463 372.142,133.13 365.5,122.5C 368.75,120.388 371.75,118.055 374.5,115.5 Z"/></g>
<g><path style="opacity:1" fill="#040404" d="M 139.5,126.5 C 143.707,128.435 147.373,131.102 150.5,134.5C 135.333,157.5 120.167,180.5 105,203.5C 102.094,200.963 98.927,198.796 95.5,197C 94.4829,195.951 94.3162,194.784 95,193.5C 110.055,171.285 124.889,148.951 139.5,126.5 Z"/></g>
<g><path style="opacity:1" fill="#070707" d="M 358.5,126.5 C 374.499,149.185 390.166,172.185 405.5,195.5C 402.003,198.083 398.336,200.416 394.5,202.5C 378.685,180.216 363.351,157.549 348.5,134.5C 351.564,131.43 354.897,128.763 358.5,126.5 Z"/></g>
<g><path style="opacity:1" fill="#040404" d="M 156.5,138.5 C 160.948,140.227 164.948,142.727 168.5,146C 153.291,168.92 137.957,191.753 122.5,214.5C 118.264,212.555 114.597,209.888 111.5,206.5C 126.526,183.816 141.526,161.149 156.5,138.5 Z"/></g>
<g><path style="opacity:1" fill="#070707" d="M 340.5,138.5 C 341.496,138.414 342.329,138.748 343,139.5C 349.63,149.264 356.13,159.098 362.5,169C 359.287,171.877 355.787,174.377 352,176.5C 344.474,166.627 337.308,156.46 330.5,146C 333.734,143.252 337.068,140.752 340.5,138.5 Z"/></g>
<g><path style="opacity:1" fill="#080808" d="M 400.5,152.5 C 408.495,162.195 415.829,172.528 422.5,183.5C 419.048,186.399 415.382,189.066 411.5,191.5C 404.253,181.34 397.253,171.006 390.5,160.5C 393.864,157.825 397.197,155.158 400.5,152.5 Z"/></g>
<g><path style="opacity:1" fill="#c50d30" d="M 323.5,287.5 C 330.182,263.374 322.515,245.541 300.5,234C 276.442,226.778 257.942,233.944 245,255.5C 228.459,269.319 210.626,271.153 191.5,261C 176.461,249.06 170.794,233.56 174.5,214.5C 185.806,189.705 204.806,174.205 231.5,168C 276.708,161.849 308.874,179.349 328,220.5C 333.635,238.378 333.968,256.378 329,274.5C 327.666,279.154 325.833,283.487 323.5,287.5 Z"/></g>
<g><path style="opacity:1" fill="#080808" d="M 365.5,175.5 C 366.496,175.414 367.329,175.748 368,176.5C 374.697,186.365 381.197,196.365 387.5,206.5C 384.451,209.711 380.951,212.377 377,214.5C 369.833,204.167 362.667,193.833 355.5,183.5C 359.165,181.159 362.499,178.493 365.5,175.5 Z"/></g>
<g><path style="opacity:1" fill="#033477" d="M 174.5,214.5 C 170.794,233.56 176.461,249.06 191.5,261C 210.626,271.153 228.459,269.319 245,255.5C 257.942,233.944 276.442,226.778 300.5,234C 322.515,245.541 330.182,263.374 323.5,287.5C 310.152,312.993 289.152,327.827 260.5,332C 214.87,334.701 184.37,314.534 169,271.5C 164.832,253.512 165.832,235.845 172,218.5C 172.608,216.934 173.442,215.6 174.5,214.5 Z"/></g>
<g><path style="opacity:1" fill="#040404" d="M 121.5,284.5 C 137.761,306.833 153.428,329.666 168.5,353C 165.18,355.994 161.513,358.494 157.5,360.5C 141.808,338.13 126.475,315.463 111.5,292.5C 114.564,289.43 117.897,286.763 121.5,284.5 Z"/></g>
<g><path style="opacity:1" fill="#080808" d="M 376.5,284.5 C 380.707,286.435 384.373,289.102 387.5,292.5C 380.858,303.13 373.858,313.463 366.5,323.5C 362.833,320.833 359.167,318.167 355.5,315.5C 362.758,305.311 369.758,294.978 376.5,284.5 Z"/></g>
<g><path style="opacity:1" fill="#090909" d="M 103.5,296.5 C 105.017,296.511 106.184,297.177 107,298.5C 113.182,308.01 119.349,317.51 125.5,327C 122.287,329.877 118.787,332.377 115,334.5C 107.35,324.545 100.184,314.212 93.5,303.5C 96.8998,301.144 100.233,298.811 103.5,296.5 Z"/></g>
<g><path style="opacity:1" fill="#080808" d="M 393.5,296.5 C 397.773,298.305 401.773,300.639 405.5,303.5C 398.816,314.212 391.65,324.545 384,334.5C 380.213,332.377 376.713,329.877 373.5,327C 380.047,316.736 386.713,306.569 393.5,296.5 Z"/></g>
<g><path style="opacity:1" fill="#070707" d="M 86.5,307.5 C 102.863,329.848 118.529,352.848 133.5,376.5C 130.5,378.667 127.5,380.833 124.5,383C 123.216,383.684 122.049,383.517 121,382.5C 106.333,360.5 91.6667,338.5 77,316.5C 76.3828,315.551 76.5494,314.718 77.5,314C 80.921,312.301 83.921,310.135 86.5,307.5 Z"/></g>
<g><path style="opacity:1" fill="#080808" d="M 410.5,307.5 C 414.824,309.663 418.824,312.33 422.5,315.5C 415.747,326.006 408.747,336.34 401.5,346.5C 397.618,344.066 393.952,341.399 390.5,338.5C 397.437,328.28 404.104,317.947 410.5,307.5 Z"/></g>
<g><path style="opacity:1" fill="#070707" d="M 350.5,322.5 C 355.12,323.942 359.12,326.442 362.5,330C 356.11,340.622 349.11,350.788 341.5,360.5C 337.487,358.494 333.82,355.994 330.5,353C 337.56,343.033 344.227,332.866 350.5,322.5 Z"/></g>
<g><path style="opacity:1" fill="#090909" d="M 129.5,333.5 C 136.97,343.821 144.304,354.321 151.5,365C 147.696,367.305 144.03,369.805 140.5,372.5C 132.89,362.788 125.89,352.622 119.5,342C 122.376,338.624 125.709,335.791 129.5,333.5 Z"/></g>
<g><path style="opacity:1" fill="#080808" d="M 368.5,333.5 C 372.921,335.429 376.588,338.263 379.5,342C 373.044,352.409 366.211,362.575 359,372.5C 355.049,370.377 351.549,367.711 348.5,364.5C 355.193,354.149 361.86,343.816 368.5,333.5 Z"/></g>
<g><path style="opacity:1" fill="#070707" d="M 385.5,345.5 C 389.948,347.227 393.948,349.727 397.5,353C 390.672,363.522 383.505,373.688 376,383.5C 372.374,381.378 368.874,379.045 365.5,376.5C 372.193,366.149 378.86,355.816 385.5,345.5 Z"/></g>
</svg>
