<?xml version="1.0" encoding="UTF-8"?>
<!DOCTYPE svg PUBLIC "-//W3C//DTD SVG 1.1//EN" "http://www.w3.org/Graphics/SVG/1.1/DTD/svg11.dtd">
<svg xmlns="http://www.w3.org/2000/svg" version="1.1" width="500px" height="500px" style="shape-rendering:geometricPrecision; text-rendering:geometricPrecision; image-rendering:optimizeQuality; fill-rule:evenodd; clip-rule:evenodd" xmlns:xlink="http://www.w3.org/1999/xlink">
<g><path style="opacity:0.988" fill="#014ea1" d="M 225.5,-0.5 C 241.5,-0.5 257.5,-0.5 273.5,-0.5C 328.71,5.7761 377.043,27.2761 418.5,64C 424.763,69.757 430.43,75.9237 435.5,82.5C 311.5,82.5 187.5,82.5 63.5,82.5C 77.4724,66.0266 93.4724,51.86 111.5,40C 146.398,17.646 184.398,4.146 225.5,-0.5 Z"/></g>
<g><path style="opacity:0.996" fill="#f8fafc" d="M 63.5,82.5 C 187.5,82.5 311.5,82.5 435.5,82.5C 440.437,86.3816 444.437,91.0482 447.5,96.5C 315.5,96.5 183.5,96.5 51.5,96.5C 55.0365,91.4206 59.0365,86.7539 63.5,82.5 Z"/></g>
<g><path style="opacity:0.996" fill="#ed1c27" d="M 51.5,96.5 C 183.5,96.5 315.5,96.5 447.5,96.5C 476.738,134.188 494.071,176.855 499.5,224.5C 499.5,241.167 499.5,257.833 499.5,274.5C 494.295,322.223 476.962,364.889 447.5,402.5C 315.5,402.5 183.5,402.5 51.5,402.5C 22.0547,364.522 4.72141,321.522 -0.5,273.5C -0.5,257.5 -0.5,241.5 -0.5,225.5C 4.97089,177.58 22.3042,134.58 51.5,96.5 Z"/></g>
<g><path style="opacity:1" fill="#fffdfd" d="M 153.5,138.5 C 210.915,136.272 250.415,161.605 272,214.5C 286.037,269.404 269.87,312.904 223.5,345C 190.884,362.881 157.218,365.215 122.5,352C 74.0444,327.941 51.8777,288.774 56,234.5C 66.916,180.416 99.416,148.416 153.5,138.5 Z"/></g>
<g><path style="opacity:1" fill="#ed1e28" d="M 190.5,215.5 C 216.167,216.167 241.833,216.833 267.5,217.5C 246.299,231.934 225.633,247.101 205.5,263C 213.969,287.403 221.802,311.903 229,336.5C 208.391,321.12 187.558,306.12 166.5,291.5C 145.246,306.078 124.246,321.078 103.5,336.5C 110.183,312.935 117.683,289.268 126,265.5C 126.667,264.167 126.667,262.833 126,261.5C 105.765,246.299 85.2653,231.466 64.5,217C 90.4979,216.5 116.498,216.333 142.5,216.5C 149.621,191.637 157.454,166.97 166,142.5C 174.461,166.718 182.628,191.051 190.5,215.5 Z"/></g>
<g><path style="opacity:1" fill="#fac9cb" d="M 190.5,215.5 C 216.509,215.167 242.509,215.5 268.5,216.5C 268.376,217.107 268.043,217.44 267.5,217.5C 241.833,216.833 216.167,216.167 190.5,215.5 Z"/></g>
<g><path style="opacity:0.996" fill="#fbfcfd" d="M 51.5,402.5 C 183.5,402.5 315.5,402.5 447.5,402.5C 444.21,408.087 440.21,413.087 435.5,417.5C 311.668,416.5 187.668,416.167 63.5,416.5C 58.5629,412.618 54.5629,407.952 51.5,402.5 Z"/></g>
<g><path style="opacity:0.988" fill="#014ea1" d="M 63.5,416.5 C 187.668,416.167 311.668,416.5 435.5,417.5C 392.107,464.697 338.441,492.031 274.5,499.5C 257.833,499.5 241.167,499.5 224.5,499.5C 169.704,492.931 121.704,471.431 80.5,435C 74.2369,429.243 68.5702,423.076 63.5,416.5 Z"/></g>
</svg>
