<?xml version="1.0" encoding="UTF-8"?>
<!DOCTYPE svg PUBLIC "-//W3C//DTD SVG 1.1//EN" "http://www.w3.org/Graphics/SVG/1.1/DTD/svg11.dtd">
<svg xmlns="http://www.w3.org/2000/svg" version="1.1" width="500px" height="500px" style="shape-rendering:geometricPrecision; text-rendering:geometricPrecision; image-rendering:optimizeQuality; fill-rule:evenodd; clip-rule:evenodd" xmlns:xlink="http://www.w3.org/1999/xlink">
<g><path style="opacity:0.994" fill="#004794" d="M 225.5,-0.5 C 241.5,-0.5 257.5,-0.5 273.5,-0.5C 362.801,10.9605 429.134,55.9605 472.5,134.5C 464.14,134.831 455.807,134.498 447.5,133.5C 445.099,125.797 442.599,118.13 440,110.5C 437.073,118.446 434.24,126.446 431.5,134.5C 423.14,134.169 414.807,134.502 406.5,135.5C 406.624,136.107 406.957,136.44 407.5,136.5C 413.976,141.142 420.31,145.976 426.5,151C 424.025,158.758 421.359,166.425 418.5,174C 419.167,174.667 419.833,174.667 420.5,174C 426.581,168.878 433.081,164.378 440,160.5C 446.825,164.915 453.491,169.581 460,174.5C 458.273,166.639 456.107,158.805 453.5,151C 453.759,149.739 454.426,148.739 455.5,148C 461.59,144.301 467.257,140.134 472.5,135.5C 486.955,163.53 495.955,193.197 499.5,224.5C 499.5,241.167 499.5,257.833 499.5,274.5C 487.764,361.841 443.764,427.341 367.5,471C 338.093,486.083 307.093,495.583 274.5,499.5C 257.833,499.5 241.167,499.5 224.5,499.5C 132.596,487.072 65.4294,439.739 23,357.5C 10.7506,330.604 2.91724,302.604 -0.5,273.5C -0.5,257.5 -0.5,241.5 -0.5,225.5C 3.02168,194.428 11.6883,164.762 25.5,136.5C 32.3728,140.193 38.8728,144.526 45,149.5C 43.6793,157.476 41.5127,165.31 38.5,173C 38.8333,173.5 39.1667,174 39.5,174.5C 45.7526,169.46 52.2526,164.793 59,160.5C 65.9187,164.378 72.4187,168.878 78.5,174C 79.1667,174.667 79.8333,174.667 80.5,174C 77.6413,166.425 74.9747,158.758 72.5,151C 78.6904,145.976 85.0238,141.142 91.5,136.5C 92.2891,136.217 92.9558,135.717 93.5,135C 84.8397,134.5 76.1731,134.334 67.5,134.5C 65.3569,126.57 62.5235,118.903 59,111.5C 56.2003,118.733 53.7003,126.066 51.5,133.5C 43.5277,134.498 35.5277,134.831 27.5,134.5C 62.5623,68.0959 116.562,25.2625 189.5,6C 201.543,3.27253 213.543,1.10586 225.5,-0.5 Z"/></g>
<g><path style="opacity:1" fill="#f5f8fb" d="M 210.5,76.5 C 213.739,84.2161 216.405,92.2161 218.5,100.5C 227.173,100.334 235.84,100.5 244.5,101C 237.359,105.974 230.359,111.14 223.5,116.5C 226.638,124.411 229.138,132.411 231,140.5C 224.078,135.622 217.245,130.622 210.5,125.5C 204.024,130.142 197.691,134.975 191.5,140C 190.668,140.688 190.002,140.521 189.5,139.5C 192.167,131.833 194.833,124.167 197.5,116.5C 190.664,111.172 183.664,106.005 176.5,101C 185.494,100.5 194.494,100.334 203.5,100.5C 205.026,92.2551 207.36,84.2551 210.5,76.5 Z"/></g>
<g><path style="opacity:1" fill="#f5f8fb" d="M 287.5,76.5 C 288.497,76.4701 289.164,76.9701 289.5,78C 291.641,85.4221 293.974,92.7555 296.5,100C 305.167,100.333 313.833,100.667 322.5,101C 315.336,106.005 308.336,111.172 301.5,116.5C 304.163,124.156 306.83,131.822 309.5,139.5C 309.167,139.833 308.833,140.167 308.5,140.5C 301.833,135.5 295.167,130.5 288.5,125.5C 281.755,130.622 274.922,135.622 268,140.5C 269.962,132.441 272.462,124.441 275.5,116.5C 268.641,111.14 261.641,105.974 254.5,101C 263.186,100.832 271.852,100.332 280.5,99.5C 283.04,91.8805 285.374,84.2139 287.5,76.5 Z"/></g>
<g><path style="opacity:1" fill="#f7f9fb" d="M 144.5,111.5 C 152.5,112.167 160.5,112.833 168.5,113.5C 162.45,117.947 156.283,122.28 150,126.5C 151.796,134.887 153.796,143.221 156,151.5C 149.026,146.693 142.193,141.693 135.5,136.5C 128.833,141.5 122.167,146.5 115.5,151.5C 117.211,143.832 119.544,135.999 122.5,128C 116.109,122.619 109.443,117.452 102.5,112.5C 111.141,111.502 119.808,111.169 128.5,111.5C 130.306,103.251 132.806,95.2505 136,87.5C 138.565,95.7006 141.398,103.701 144.5,111.5 Z"/></g>
<g><path style="opacity:1" fill="#f6f8fb" d="M 362.5,88.5 C 363.79,89.0577 364.623,90.0577 365,91.5C 367.147,98.1049 368.981,104.772 370.5,111.5C 379.506,111.334 388.506,111.5 397.5,112C 390.336,117.005 383.336,122.172 376.5,127.5C 379.523,135.642 381.856,143.642 383.5,151.5C 377.085,146.41 370.419,141.743 363.5,137.5C 356.581,141.743 349.915,146.41 343.5,151.5C 344.142,144.708 345.975,138.041 349,131.5C 349.667,129.833 349.667,128.167 349,126.5C 342.922,121.878 336.755,117.378 330.5,113C 338.827,112.5 347.16,112.334 355.5,112.5C 357.426,104.389 359.759,96.3888 362.5,88.5 Z"/></g>
<g><path style="opacity:1" fill="#769bc5" d="M 144.5,111.5 C 152.86,111.169 161.193,111.502 169.5,112.5C 169.376,113.107 169.043,113.44 168.5,113.5C 160.5,112.833 152.5,112.167 144.5,111.5 Z"/></g>
<g><path style="opacity:1" fill="#f6f8fb" d="M 67.5,134.5 C 75.5,135.167 83.5,135.833 91.5,136.5C 85.0238,141.142 78.6904,145.976 72.5,151C 74.9747,158.758 77.6413,166.425 80.5,174C 79.8333,174.667 79.1667,174.667 78.5,174C 72.4187,168.878 65.9187,164.378 59,160.5C 52.2526,164.793 45.7526,169.46 39.5,174.5C 39.1667,174 38.8333,173.5 38.5,173C 41.5127,165.31 43.6793,157.476 45,149.5C 38.8728,144.526 32.3728,140.193 25.5,136.5C 25.8333,135.5 26.5,134.833 27.5,134.5C 35.5277,134.831 43.5277,134.498 51.5,133.5C 53.7003,126.066 56.2003,118.733 59,111.5C 62.5235,118.903 65.3569,126.57 67.5,134.5 Z"/></g>
<g><path style="opacity:1" fill="#f6f8fb" d="M 472.5,134.5 C 472.5,134.833 472.5,135.167 472.5,135.5C 467.257,140.134 461.59,144.301 455.5,148C 454.426,148.739 453.759,149.739 453.5,151C 456.107,158.805 458.273,166.639 460,174.5C 453.491,169.581 446.825,164.915 440,160.5C 433.081,164.378 426.581,168.878 420.5,174C 419.833,174.667 419.167,174.667 418.5,174C 421.359,166.425 424.025,158.758 426.5,151C 420.31,145.976 413.976,141.142 407.5,136.5C 415.5,135.833 423.5,135.167 431.5,134.5C 434.24,126.446 437.073,118.446 440,110.5C 442.599,118.13 445.099,125.797 447.5,133.5C 455.807,134.498 464.14,134.831 472.5,134.5 Z"/></g>
<g><path style="opacity:1" fill="#7fa2c9" d="M 67.5,134.5 C 76.1731,134.334 84.8397,134.5 93.5,135C 92.9558,135.717 92.2891,136.217 91.5,136.5C 83.5,135.833 75.5,135.167 67.5,134.5 Z"/></g>
<g><path style="opacity:1" fill="#7da1c8" d="M 431.5,134.5 C 423.5,135.167 415.5,135.833 407.5,136.5C 406.957,136.44 406.624,136.107 406.5,135.5C 414.807,134.502 423.14,134.169 431.5,134.5 Z"/></g>
<g><path style="opacity:1" fill="#fbc702" d="M 340.5,284.5 C 341.926,285.341 343.26,286.341 344.5,287.5C 346.649,290.334 347.649,290.001 347.5,286.5C 350.56,284.684 353.726,284.018 357,284.5C 360.45,286.503 361.783,289.503 361,293.5C 360.586,293.957 360.086,294.291 359.5,294.5C 358.01,299.458 356.677,304.458 355.5,309.5C 354.522,309.977 353.689,310.643 353,311.5C 352.667,313.5 352.333,315.5 352,317.5C 349.56,320.818 346.727,323.818 343.5,326.5C 344.757,329.823 344.757,333.156 343.5,336.5C 338.871,336.96 335.038,338.96 332,342.5C 331.333,343.833 331.333,345.167 332,346.5C 341.844,355.366 340.011,359.699 326.5,359.5C 326.026,355.843 324.693,355.676 322.5,359C 318.379,359.982 314.379,361.315 310.5,363C 307.621,366.15 305.621,369.816 304.5,374C 304.493,375.812 305.16,377.312 306.5,378.5C 302.893,379.489 299.226,379.823 295.5,379.5C 294.002,375.693 293.002,371.693 292.5,367.5C 289.412,367.803 287.746,366.47 287.5,363.5C 285.167,363.5 282.833,363.5 280.5,363.5C 280.67,364.822 280.337,365.989 279.5,367C 275.802,369.17 271.802,370.67 267.5,371.5C 266.833,372.5 266.167,373.5 265.5,374.5C 262.757,374.928 260.424,376.095 258.5,378C 254.427,378.512 250.427,379.345 246.5,380.5C 244.588,384.66 242.421,388.66 240,392.5C 240.284,399.591 240.951,406.591 242,413.5C 239.833,415 238,416.833 236.5,419C 233.833,419.333 231.167,419.667 228.5,420C 226.836,423.136 224.169,424.303 220.5,423.5C 219.519,418.871 219.352,414.204 220,409.5C 223.305,407.408 224.139,404.741 222.5,401.5C 222.5,396.833 222.5,392.167 222.5,387.5C 221.5,387.5 220.5,387.5 219.5,387.5C 218.954,383.172 218.287,378.838 217.5,374.5C 213.893,370.843 212.393,366.51 213,361.5C 208.36,356.763 202.86,353.429 196.5,351.5C 196.309,348.015 195.309,344.849 193.5,342C 189.5,341.667 185.5,341.333 181.5,341C 179.005,338.084 177.838,334.584 178,330.5C 175.866,327.059 174.366,323.393 173.5,319.5C 172.167,319.5 170.833,319.5 169.5,319.5C 169.649,318.448 169.483,317.448 169,316.5C 164.029,313.584 163.196,309.751 166.5,305C 166.327,299.816 163.827,296.316 159,294.5C 158.088,291.018 157.255,287.518 156.5,284C 158.379,275.538 162.712,273.705 169.5,278.5C 169.5,279.5 169.5,280.5 169.5,281.5C 174.032,281.818 178.366,281.485 182.5,280.5C 184.217,277.155 184.884,273.489 184.5,269.5C 186.833,269.5 189.167,269.5 191.5,269.5C 191.5,267.833 191.5,266.167 191.5,264.5C 194.786,264.071 197.953,264.071 201,264.5C 204.596,262.287 208.096,259.954 211.5,257.5C 210.826,255.483 209.659,253.817 208,252.5C 206.043,246.957 207.876,243.79 213.5,243C 216.564,240.793 218.564,237.959 219.5,234.5C 221.143,234.48 222.476,235.147 223.5,236.5C 224.478,236.023 225.311,235.357 226,234.5C 227.127,231.623 227.794,228.623 228,225.5C 229.022,224.646 229.855,223.646 230.5,222.5C 228.516,219.12 226.183,215.953 223.5,213C 222.552,212.517 221.552,212.351 220.5,212.5C 220.5,211.5 220.5,210.5 220.5,209.5C 220.5,207.833 220.5,206.167 220.5,204.5C 223.713,204.81 226.713,204.477 229.5,203.5C 231.138,202.343 232.804,201.176 234.5,200C 238.439,199.243 242.106,197.743 245.5,195.5C 249.471,197.471 252.471,200.471 254.5,204.5C 248.814,205.719 248.148,208.219 252.5,212C 255.117,212.822 257.784,213.322 260.5,213.5C 260.179,216.88 261.179,217.713 263.5,216C 268.006,214.662 271.673,215.829 274.5,219.5C 275.548,218.617 276.715,217.95 278,217.5C 280.234,218.701 282.401,220.035 284.5,221.5C 285.826,226.469 286.992,231.469 288,236.5C 289.604,237.649 291.27,237.649 293,236.5C 294.261,236.759 295.261,237.426 296,238.5C 296.524,243.319 297.524,247.986 299,252.5C 299.915,253.328 300.581,254.328 301,255.5C 301.956,254.106 303.289,253.439 305,253.5C 309.262,257.051 314.096,259.718 319.5,261.5C 319.209,267.15 317.876,272.484 315.5,277.5C 317.283,279.061 319.116,279.395 321,278.5C 326.707,280.184 332.54,280.851 338.5,280.5C 338.229,282.38 338.896,283.713 340.5,284.5 Z"/></g>
<g><path style="opacity:1" fill="#9a953c" d="M 229.5,203.5 C 226.713,204.477 223.713,204.81 220.5,204.5C 220.5,206.167 220.5,207.833 220.5,209.5C 219.539,207.735 219.205,205.735 219.5,203.5C 222.833,203.5 226.167,203.5 229.5,203.5 Z"/></g>
<g><path style="opacity:1" fill="#758251" d="M 169.5,278.5 C 173.514,280.334 177.847,281.001 182.5,280.5C 178.366,281.485 174.032,281.818 169.5,281.5C 169.5,280.5 169.5,279.5 169.5,278.5 Z"/></g>
<g><path style="opacity:1" fill="#6a7b58" d="M 340.5,284.5 C 341.833,284.5 343.167,284.5 344.5,284.5C 344.5,285.5 344.5,286.5 344.5,287.5C 343.26,286.341 341.926,285.341 340.5,284.5 Z"/></g>
<g><path style="opacity:1" fill="#3c6275" d="M 219.5,387.5 C 220.5,387.5 221.5,387.5 222.5,387.5C 222.5,392.167 222.5,396.833 222.5,401.5C 222.047,396.721 221.047,392.054 219.5,387.5 Z"/></g>
</svg>
