<?xml version="1.0" encoding="UTF-8"?>
<!DOCTYPE svg PUBLIC "-//W3C//DTD SVG 1.1//EN" "http://www.w3.org/Graphics/SVG/1.1/DTD/svg11.dtd">
<svg xmlns="http://www.w3.org/2000/svg" version="1.1" width="500px" height="500px" style="shape-rendering:geometricPrecision; text-rendering:geometricPrecision; image-rendering:optimizeQuality; fill-rule:evenodd; clip-rule:evenodd" xmlns:xlink="http://www.w3.org/1999/xlink">
<g><path style="opacity:0.994" fill="#007a3d" d="M 225.5,-0.5 C 241.5,-0.5 257.5,-0.5 273.5,-0.5C 362.269,10.9489 428.436,55.6156 472,133.5C 477.625,144.077 482.125,155.077 485.5,166.5C 379.167,166.5 272.833,166.5 166.5,166.5C 129.42,141.415 92.0868,116.748 54.5,92.5C 98.9389,38.7742 155.939,7.77419 225.5,-0.5 Z"/></g>
<g><path style="opacity:0.995" fill="#000000" d="M 54.5,92.5 C 92.0868,116.748 129.42,141.415 166.5,166.5C 166.5,221.833 166.5,277.167 166.5,332.5C 129.204,357.142 92.2038,382.142 55.5,407.5C 23.6745,368.494 5.00784,323.827 -0.5,273.5C -0.5,257.5 -0.5,241.5 -0.5,225.5C 5.17451,175.78 23.5078,131.446 54.5,92.5 Z"/></g>
<g><path style="opacity:0.998" fill="#fefffe" d="M 166.5,166.5 C 272.833,166.5 379.167,166.5 485.5,166.5C 492.586,185.267 497.253,204.6 499.5,224.5C 499.5,241.167 499.5,257.833 499.5,274.5C 498.1,284.764 496.267,295.098 494,305.5C 492.031,314.9 489.198,323.9 485.5,332.5C 379.167,332.5 272.833,332.5 166.5,332.5C 166.5,277.167 166.5,221.833 166.5,166.5 Z"/></g>
<g><path style="opacity:0.994" fill="#ce1226" d="M 166.5,332.5 C 272.833,332.5 379.167,332.5 485.5,332.5C 459.059,404.776 410.059,455.276 338.5,484C 317.652,491.713 296.319,496.88 274.5,499.5C 257.833,499.5 241.167,499.5 224.5,499.5C 161.048,492.025 107.548,465.025 64,418.5C 60.9514,414.957 58.1181,411.291 55.5,407.5C 92.2038,382.142 129.204,357.142 166.5,332.5 Z"/></g>
</svg>
