<?xml version="1.0" encoding="UTF-8"?>
<!DOCTYPE svg PUBLIC "-//W3C//DTD SVG 1.1//EN" "http://www.w3.org/Graphics/SVG/1.1/DTD/svg11.dtd">
<svg xmlns="http://www.w3.org/2000/svg" version="1.1" width="500px" height="500px" style="shape-rendering:geometricPrecision; text-rendering:geometricPrecision; image-rendering:optimizeQuality; fill-rule:evenodd; clip-rule:evenodd" xmlns:xlink="http://www.w3.org/1999/xlink">
<g><path style="opacity:0.993" fill="#e8132c" d="M 225.5,-0.5 C 241.5,-0.5 257.5,-0.5 273.5,-0.5C 362.269,10.9489 428.436,55.6156 472,133.5C 486.559,162.333 495.726,192.666 499.5,224.5C 499.5,241.167 499.5,257.833 499.5,274.5C 487.764,361.841 443.764,427.341 367.5,471C 338.093,486.083 307.093,495.583 274.5,499.5C 257.833,499.5 241.167,499.5 224.5,499.5C 132.596,487.072 65.4294,439.739 23,357.5C 10.7506,330.604 2.91724,302.604 -0.5,273.5C -0.5,257.5 -0.5,241.5 -0.5,225.5C 11.4543,135.075 57.4543,68.242 137.5,25C 165.514,11.5012 194.847,3.00119 225.5,-0.5 Z"/></g>
<g><path style="opacity:1" fill="#feec01" d="M 250.5,113.5 C 251.167,109.833 251.833,106.167 252.5,102.5C 254.18,104.527 255.347,106.861 256,109.5C 255.86,125.18 256.027,140.846 256.5,156.5C 257.254,152.059 258.421,147.725 260,143.5C 264.551,134.399 268.551,125.065 272,115.5C 272.912,111.205 273.579,106.872 274,102.5C 275.527,104.221 276.527,106.221 277,108.5C 277.932,120.515 276.265,132.181 272,143.5C 270.738,148.787 270.404,154.12 271,159.5C 275.67,147.507 282.004,136.507 290,126.5C 292.925,120.725 295.258,114.725 297,108.5C 298.563,113.718 298.896,119.051 298,124.5C 294.277,134.944 290.277,145.278 286,155.5C 284.81,158.194 284.644,160.861 285.5,163.5C 287.458,159.709 289.625,156.042 292,152.5C 298.333,145.5 304.667,138.5 311,131.5C 313.861,127.112 316.194,122.446 318,117.5C 319.965,122.86 319.632,128.193 317,133.5C 313.171,141.163 308.837,148.496 304,155.5C 301.56,160.047 299.393,164.713 297.5,169.5C 301.965,165.549 306.631,161.049 311.5,156C 322.333,149.167 331.167,140.333 338,129.5C 338.946,135.671 337.612,141.338 334,146.5C 328.374,153.794 322.374,160.794 316,167.5C 313.833,171 311.667,174.5 309.5,178C 309.833,178.167 310.167,178.333 310.5,178.5C 314.399,174.431 318.733,170.931 323.5,168C 331.828,163.838 339.828,159.171 347.5,154C 350.704,151.131 353.537,147.965 356,144.5C 356.073,149.192 354.74,153.525 352,157.5C 346.096,164.074 339.596,169.908 332.5,175C 327.799,179.366 323.466,184.033 319.5,189C 324.829,185.83 330.496,182.83 336.5,180C 345.821,177.115 354.821,173.449 363.5,169C 366.295,167.207 368.795,165.04 371,162.5C 369.805,168.697 366.638,173.864 361.5,178C 349.807,184.511 338.807,192.011 328.5,200.5C 328.833,200.833 329.167,201.167 329.5,201.5C 333.776,198.529 338.442,196.363 343.5,195C 351.528,193.461 359.528,191.794 367.5,190C 373.141,188.429 378.307,185.929 383,182.5C 381.856,188.006 378.689,192.172 373.5,195C 365.064,199.218 356.398,202.885 347.5,206C 342.623,207.937 338.79,210.77 336,214.5C 338.93,212.745 342.097,211.578 345.5,211C 355.476,210.001 365.476,209.334 375.5,209C 381.39,208.109 387.057,206.776 392.5,205C 390.113,209.053 386.78,212.053 382.5,214C 372.669,217.291 362.669,219.958 352.5,222C 347.777,223.196 343.443,225.196 339.5,228C 343.51,227.06 347.677,226.56 352,226.5C 361.79,227.869 371.623,228.869 381.5,229.5C 386.944,229.404 392.277,228.904 397.5,228C 394.348,231.154 390.681,233.487 386.5,235C 374.906,236.871 363.239,238.204 351.5,239C 348.21,239.253 345.21,240.253 342.5,242C 346.833,242.333 351.167,242.667 355.5,243C 365.663,246.291 375.996,248.791 386.5,250.5C 390.167,251.167 393.833,251.833 397.5,252.5C 395.104,254.138 392.438,255.304 389.5,256C 377.996,256.455 366.496,256.288 355,255.5C 350.326,255.36 345.826,255.86 341.5,257C 347.351,257.546 353.018,258.879 358.5,261C 367.924,265.586 377.591,269.586 387.5,273C 390.833,273.333 394.167,273.667 397.5,274C 393.49,276.875 388.99,278.042 384,277.5C 372.611,276.528 361.444,274.361 350.5,271C 346.833,270.333 343.167,270.333 339.5,271C 344.728,272.41 349.728,274.41 354.5,277C 365.55,286.025 377.883,292.692 391.5,297C 386.254,298.506 380.921,298.839 375.5,298C 365.953,294.894 356.62,291.227 347.5,287C 343.596,285.469 339.596,284.802 335.5,285C 340.997,287.245 345.997,290.245 350.5,294C 359.492,304.337 370.158,312.337 382.5,318C 377.861,319.932 373.194,319.932 368.5,318C 359.005,313.422 350.005,308.089 341.5,302C 337.402,299.632 333.069,298.299 328.5,298C 338.654,305.156 347.154,313.989 354,324.5C 358.629,330.135 364.129,334.635 370.5,338C 365.106,339.033 360.106,338.033 355.5,335C 346.916,329.087 338.916,322.42 331.5,315C 328.107,312.466 324.441,310.799 320.5,310C 323.886,312.263 326.719,315.097 329,318.5C 334.497,328.831 340.497,338.831 347,348.5C 349.537,351.372 352.37,353.872 355.5,356C 350.295,356.074 345.628,354.407 341.5,351C 333.981,342.982 326.648,334.816 319.5,326.5C 316.48,323.645 313.313,320.979 310,318.5C 309.333,319.167 309.333,319.833 310,320.5C 313.401,323.635 316.067,327.302 318,331.5C 321.609,341.659 325.609,351.659 330,361.5C 332.139,364.939 334.639,368.106 337.5,371C 331.765,369.979 326.932,367.146 323,362.5C 317.667,353.833 312.333,345.167 307,336.5C 304.872,333.37 302.372,330.537 299.5,328C 298.833,327.333 298.167,327.333 297.5,328C 300.567,331.297 302.733,335.131 304,339.5C 306.159,350.961 308.825,362.294 312,373.5C 313.455,376.912 315.288,380.079 317.5,383C 317.167,383.167 316.833,383.333 316.5,383.5C 312.267,381.308 308.767,378.308 306,374.5C 301.859,367.214 298.525,359.547 296,351.5C 293.423,345.34 290.09,339.673 286,334.5C 288.246,340.166 289.58,346.166 290,352.5C 290.333,360.5 290.667,368.5 291,376.5C 291.902,381.538 293.402,386.372 295.5,391C 290.421,388.91 286.921,385.076 285,379.5C 282.353,370.246 280.02,360.913 278,351.5C 271.816,334.272 270.316,334.439 273.5,352C 272.573,362.008 271.573,372.008 270.5,382C 270.555,387.216 271.555,392.216 273.5,397C 273.167,397.167 272.833,397.333 272.5,397.5C 268.75,394.345 266.25,390.345 265,385.5C 263.005,375.612 262.005,365.612 262,355.5C 258.554,337.215 256.887,337.215 257,355.5C 254.87,364.224 252.536,372.89 250,381.5C 249.667,387.167 249.333,392.833 249,398.5C 246.558,395.952 244.892,392.952 244,389.5C 243.213,377.444 243.713,365.444 245.5,353.5C 245.703,348.899 244.87,344.566 243,340.5C 242.798,345.989 241.798,351.322 240,356.5C 235.61,365.669 231.61,375.003 228,384.5C 227.088,388.795 226.421,393.128 226,397.5C 222.603,390.564 221.603,383.231 223,375.5C 225.158,367.203 227.158,358.87 229,350.5C 229.667,346.5 229.667,342.5 229,338.5C 225.573,351.243 219.573,362.576 211,372.5C 207.761,378.305 205.095,384.305 203,390.5C 201.508,385.589 201.174,380.589 202,375.5C 205.804,365.088 209.804,354.755 214,344.5C 215.124,341.558 215.458,338.558 215,335.5C 212.768,340.965 209.768,345.965 206,350.5C 195.663,359.492 187.663,370.158 182,382.5C 180.008,377.078 180.341,371.744 183,366.5C 187.27,358.57 191.936,350.903 197,343.5C 200.182,338.494 202.182,333.161 203,327.5C 199.882,332.286 196.382,336.786 192.5,341C 183.414,347.415 174.914,354.582 167,362.5C 165.333,365.167 163.667,367.833 162,370.5C 160.967,365.106 161.967,360.106 165,355.5C 171.19,347.131 177.857,339.131 185,331.5C 188.005,327.877 190.005,323.877 191,319.5C 188.5,323.333 185.333,326.5 181.5,329C 170.666,334.581 160.332,340.914 150.5,348C 148.291,349.873 146.458,352.04 145,354.5C 144.508,349.64 145.842,345.306 149,341.5C 156.537,334.294 164.371,327.46 172.5,321C 175.5,317.333 178.5,313.667 181.5,310C 180.833,309.333 180.167,309.333 179.5,310C 177.043,313.058 174.043,315.392 170.5,317C 159.606,320.78 148.94,325.114 138.5,330C 135.577,332.045 132.743,334.212 130,336.5C 130.406,331.524 132.573,327.357 136.5,324C 145.331,318.083 154.331,312.417 163.5,307C 166.63,304.872 169.463,302.372 172,299.5C 172.667,298.833 172.667,298.167 172,297.5C 170.269,299.617 168.102,301.117 165.5,302C 155.656,304.969 145.656,307.302 135.5,309C 128.649,310.94 122.315,313.606 116.5,317C 118.743,312.752 121.743,309.086 125.5,306C 133.451,301.526 141.784,297.859 150.5,295C 155.997,292.755 160.997,289.755 165.5,286C 151.894,289.776 137.894,291.443 123.5,291C 118.336,291.499 113.503,292.999 109,295.5C 111.09,290.421 114.924,286.921 120.5,285C 129.411,282.348 138.411,280.014 147.5,278C 152.529,276.771 157.196,274.771 161.5,272C 157.114,272.736 152.614,273.236 148,273.5C 137.667,272.5 127.333,271.5 117,270.5C 112.045,270.357 107.378,271.357 103,273.5C 102.833,273.167 102.667,272.833 102.5,272.5C 106.33,268.413 110.997,265.579 116.5,264C 125.463,262.902 134.463,262.235 143.5,262C 163.174,258.522 163.174,256.855 143.5,257C 134.828,254.666 126.162,252.332 117.5,250C 112.167,249.667 106.833,249.333 101.5,249C 104.286,246.274 107.619,244.607 111.5,244C 127.173,244.42 142.839,244.253 158.5,243.5C 153.369,242.875 148.369,241.708 143.5,240C 135.284,236.059 126.951,232.392 118.5,229C 113.322,227.202 107.989,226.202 102.5,226C 109.436,222.603 116.769,221.603 124.5,223C 136.24,226.94 148.24,228.94 160.5,229C 155.172,227.837 150.172,225.837 145.5,223C 134.449,214.126 122.115,207.626 108.5,203.5C 109.025,202.808 109.692,202.308 110.5,202C 115.167,201.333 119.833,201.333 124.5,202C 134.659,205.609 144.659,209.609 154.5,214C 157.768,215.213 161.101,215.546 164.5,215C 160.673,213.254 157.007,211.254 153.5,209C 145.463,201.295 137.13,193.961 128.5,187C 124.952,185.059 121.286,183.393 117.5,182C 122.86,180.035 128.193,180.368 133.5,183C 142.331,187.245 150.664,192.245 158.5,198C 162.327,200.165 166.327,201.498 170.5,202C 161.251,194.753 153.417,186.253 147,176.5C 142.041,170.535 136.208,165.702 129.5,162C 135.671,161.054 141.338,162.388 146.5,166C 153.794,171.626 160.794,177.626 167.5,184C 171.058,187.113 175.058,189.113 179.5,190C 174.917,186.088 171.083,181.588 168,176.5C 164.253,169.337 160.253,162.337 156,155.5C 153.167,151.333 149.667,147.833 145.5,145C 150.36,144.508 154.694,145.842 158.5,149C 164.41,154.239 169.577,160.072 174,166.5C 178.699,171.534 183.699,176.2 189,180.5C 186.162,175.838 183.496,170.838 181,165.5C 177.828,155.49 173.828,145.824 169,136.5C 167.542,134.04 165.709,131.873 163.5,130C 168.959,130.485 173.459,132.985 177,137.5C 182.917,146.331 188.583,155.331 194,164.5C 195.711,167.255 197.878,169.589 200.5,171.5C 200.833,171.167 201.167,170.833 201.5,170.5C 198.862,166.889 197.029,162.889 196,158.5C 194.012,146.552 191.012,134.885 187,123.5C 185.623,121.246 184.123,119.08 182.5,117C 188.006,118.144 192.172,121.311 195,126.5C 199.218,134.936 202.885,143.602 206,152.5C 207.906,156.899 210.406,160.899 213.5,164.5C 213.833,164.167 214.167,163.833 214.5,163.5C 213.028,160.283 211.862,156.949 211,153.5C 210.101,142.514 209.434,131.514 209,120.5C 207.825,115.986 206.492,111.652 205,107.5C 209.265,110.681 212.599,114.681 215,119.5C 217.87,129.777 220.537,140.111 223,150.5C 223.973,153.779 225.473,156.779 227.5,159.5C 227.833,159.333 228.167,159.167 228.5,159C 227.056,155.341 226.39,151.508 226.5,147.5C 227.46,137.653 228.46,127.819 229.5,118C 229.963,112.653 228.963,107.653 226.5,103C 228.387,102.837 229.887,103.671 231,105.5C 232.861,107.888 234.194,110.554 235,113.5C 236.954,125.082 238.287,136.748 239,148.5C 239.547,151.702 240.547,154.702 242,157.5C 242.333,153.167 242.667,148.833 243,144.5C 245.976,134.262 248.476,123.929 250.5,113.5 Z"/></g>
<g><path style="opacity:1" fill="#f79b12" d="M 252.5,102.5 C 251.833,106.167 251.167,109.833 250.5,113.5C 250.334,109.154 250.501,104.821 251,100.5C 251.717,101.044 252.217,101.711 252.5,102.5 Z"/></g>
<g><path style="opacity:1" fill="#e81b2c" d="M 239.5,163.5 C 281.029,161.168 310.863,178.501 329,215.5C 342.148,253.404 334.315,286.238 305.5,314C 279.063,334.128 250.063,338.795 218.5,328C 184.513,312.57 166.513,286.07 164.5,248.5C 168.718,201.626 193.718,173.292 239.5,163.5 Z"/></g>
<g><path style="opacity:1" fill="#feec01" d="M 241.5,177.5 C 258.605,176.483 274.272,180.65 288.5,190C 275.266,191.017 262.432,193.85 250,198.5C 237.566,193.88 224.733,191.047 211.5,190C 220.728,183.764 230.728,179.597 241.5,177.5 Z"/></g>
<g><path style="opacity:1" fill="#fee703" d="M 204.5,195.5 C 217.265,195.753 229.598,198.253 241.5,203C 240.226,204.221 238.726,205.054 237,205.5C 226.17,201.334 215.003,198.501 203.5,197C 204.056,196.617 204.389,196.117 204.5,195.5 Z"/></g>
<g><path style="opacity:1" fill="#fee903" d="M 282.5,195.5 C 287.361,195.063 292.028,195.563 296.5,197C 284.909,198.189 273.743,201.023 263,205.5C 261.274,205.054 259.774,204.221 258.5,203C 266.399,199.753 274.399,197.253 282.5,195.5 Z"/></g>
<g><path style="opacity:1" fill="#fee803" d="M 291.5,202.5 C 295.226,202.177 298.893,202.511 302.5,203.5C 296.621,205.316 290.621,206.816 284.5,208C 280.492,209.113 276.659,210.613 273,212.5C 272.097,211.299 270.931,210.465 269.5,210C 276.675,206.776 284.009,204.276 291.5,202.5 Z"/></g>
<g><path style="opacity:1" fill="#feeb02" d="M 198.5,202.5 C 209.618,203.038 220.284,205.538 230.5,210C 229.421,210.956 228.255,211.789 227,212.5C 217.521,208.452 207.687,205.618 197.5,204C 198.056,203.617 198.389,203.117 198.5,202.5 Z"/></g>
<g><path style="opacity:1" fill="#fee903" d="M 247.5,207.5 C 249.977,207.051 251.977,207.717 253.5,209.5C 251.167,212.167 248.833,212.167 246.5,209.5C 246.863,208.817 247.196,208.15 247.5,207.5 Z"/></g>
<g><path style="opacity:1" fill="#feed00" d="M 193.5,209.5 C 203.397,209.952 212.73,212.452 221.5,217C 205.721,230.458 194.221,246.958 187,266.5C 180.648,246.44 182.815,227.44 193.5,209.5 Z"/></g>
<g><path style="opacity:1" fill="#feed00" d="M 297.5,209.5 C 300.898,209.18 304.232,209.513 307.5,210.5C 317.249,228.706 319.083,247.706 313,267.5C 306.07,247.45 294.57,230.616 278.5,217C 284.712,213.989 291.046,211.489 297.5,209.5 Z"/></g>
<g><path style="opacity:1" fill="#feea02" d="M 238.5,213.5 C 243.001,214.765 243.334,216.432 239.5,218.5C 234.808,217.231 234.475,215.564 238.5,213.5 Z"/></g>
<g><path style="opacity:1" fill="#fee903" d="M 260.5,213.5 C 265.749,215.095 265.749,216.761 260.5,218.5C 256.596,216.758 256.596,215.091 260.5,213.5 Z"/></g>
<g><path style="opacity:1" fill="#feeb01" d="M 229.5,220.5 C 231.2,221.016 232.533,222.016 233.5,223.5C 214.995,241.027 203.329,262.36 198.5,287.5C 195.844,285.506 194.51,282.84 194.5,279.5C 199.787,255.906 211.454,236.24 229.5,220.5 Z"/></g>
<g><path style="opacity:1" fill="#feec02" d="M 249.5,220.5 C 254.452,221.912 254.619,223.579 250,225.5C 248.566,225.07 247.399,224.236 246.5,223C 247.942,222.623 248.942,221.79 249.5,220.5 Z"/></g>
<g><path style="opacity:1" fill="#feea02" d="M 269.5,220.5 C 275.772,224.937 281.272,230.27 286,236.5C 295.783,249.736 302.616,264.403 306.5,280.5C 305.233,282.944 303.733,285.277 302,287.5C 297.306,262.43 285.64,241.43 267,224.5C 267.193,222.918 268.026,221.584 269.5,220.5 Z"/></g>
<g><path style="opacity:1" fill="#feea02" d="M 239.5,228.5 C 241.681,228.284 243.347,229.117 244.5,231C 224.74,250.251 214.24,273.751 213,301.5C 209.582,300.092 207.749,297.592 207.5,294C 210.85,268.469 221.516,246.636 239.5,228.5 Z"/></g>
<g><path style="opacity:1" fill="#feea02" d="M 258.5,228.5 C 265.146,232.98 270.646,238.647 275,245.5C 286.082,261.078 291.748,278.411 292,297.5C 290.333,298.833 288.667,300.167 287,301.5C 285.997,274.504 275.997,251.504 257,232.5C 256.516,230.807 257.016,229.473 258.5,228.5 Z"/></g>
<g><path style="opacity:1" fill="#feee00" d="M 249.5,236.5 C 268.947,255.656 278.114,278.989 277,306.5C 258.982,314.498 240.982,314.498 223,306.5C 222.093,279.377 230.926,256.044 249.5,236.5 Z"/></g>
<g><path style="opacity:1" fill="#f79e11" d="M 386.5,250.5 C 390.846,250.334 395.179,250.501 399.5,251C 398.956,251.717 398.289,252.217 397.5,252.5C 393.833,251.833 390.167,251.167 386.5,250.5 Z"/></g>
</svg>
