<?xml version="1.0" encoding="UTF-8"?>
<!DOCTYPE svg PUBLIC "-//W3C//DTD SVG 1.1//EN" "http://www.w3.org/Graphics/SVG/1.1/DTD/svg11.dtd">
<svg xmlns="http://www.w3.org/2000/svg" version="1.1" width="500px" height="500px" style="shape-rendering:geometricPrecision; text-rendering:geometricPrecision; image-rendering:optimizeQuality; fill-rule:evenodd; clip-rule:evenodd" xmlns:xlink="http://www.w3.org/1999/xlink">
<g><path style="opacity:0.991" fill="#cd1126" d="M 225.5,-0.5 C 241.5,-0.5 257.5,-0.5 273.5,-0.5C 358.148,10.2065 422.481,51.8732 466.5,124.5C 321.833,124.5 177.167,124.5 32.5,124.5C 76.5662,51.9426 140.9,10.2759 225.5,-0.5 Z"/></g>
<g><path style="opacity:0.996" fill="#002868" d="M 32.5,124.5 C 177.167,124.5 321.833,124.5 466.5,124.5C 484.306,155.584 495.306,188.918 499.5,224.5C 499.5,241.167 499.5,257.833 499.5,274.5C 495.581,310.178 484.581,343.512 466.5,374.5C 321.833,374.5 177.167,374.5 32.5,374.5C 14.4864,343.126 3.4864,309.459 -0.5,273.5C -0.5,257.5 -0.5,241.5 -0.5,225.5C 3.4864,189.541 14.4864,155.874 32.5,124.5 Z"/></g>
<g><path style="opacity:1" fill="#fefefe" d="M 238.5,149.5 C 288.837,147.57 324.003,169.57 344,215.5C 356.562,258.424 346.729,295.257 314.5,326C 285.742,348.351 253.742,354.685 218.5,345C 170.609,325.749 147.776,290.249 150,238.5C 159.013,188.321 188.513,158.654 238.5,149.5 Z"/></g>
<g><path style="opacity:0.992" fill="#cd1126" d="M 32.5,374.5 C 177.167,374.5 321.833,374.5 466.5,374.5C 429.657,436.628 375.99,476.461 305.5,494C 295.064,496.071 284.73,497.905 274.5,499.5C 257.833,499.5 241.167,499.5 224.5,499.5C 140.313,488.432 76.3133,446.765 32.5,374.5 Z"/></g>
</svg>
