<?xml version="1.0" encoding="UTF-8"?>
<!DOCTYPE svg PUBLIC "-//W3C//DTD SVG 1.1//EN" "http://www.w3.org/Graphics/SVG/1.1/DTD/svg11.dtd">
<svg xmlns="http://www.w3.org/2000/svg" version="1.1" width="500px" height="500px" style="shape-rendering:geometricPrecision; text-rendering:geometricPrecision; image-rendering:optimizeQuality; fill-rule:evenodd; clip-rule:evenodd" xmlns:xlink="http://www.w3.org/1999/xlink">
<g><path style="opacity:0.994" fill="#9e3039" d="M 225.5,-0.5 C 241.5,-0.5 257.5,-0.5 273.5,-0.5C 358.119,10.3302 422.619,51.9969 467,124.5C 480.345,148.035 489.845,173.035 495.5,199.5C 331.5,199.5 167.5,199.5 3.5,199.5C 27.6541,100.845 88.3207,36.6785 185.5,7C 198.832,3.72528 212.166,1.22528 225.5,-0.5 Z"/></g>
<g><path style="opacity:0.998" fill="#fefefe" d="M 3.5,199.5 C 167.5,199.5 331.5,199.5 495.5,199.5C 496.748,207.982 498.081,216.315 499.5,224.5C 499.5,241.167 499.5,257.833 499.5,274.5C 498.183,282.703 496.85,291.036 495.5,299.5C 331.5,299.5 167.5,299.5 3.5,299.5C 2.24244,290.687 0.909111,282.02 -0.5,273.5C -0.5,257.5 -0.5,241.5 -0.5,225.5C 0.909111,216.98 2.24244,208.313 3.5,199.5 Z"/></g>
<g><path style="opacity:0.994" fill="#9e3039" d="M 3.5,299.5 C 167.5,299.5 331.5,299.5 495.5,299.5C 471.951,396.55 412.618,460.384 317.5,491C 303.192,494.695 288.859,497.529 274.5,499.5C 257.833,499.5 241.167,499.5 224.5,499.5C 140.318,488.345 76.1509,446.678 32,374.5C 18.6548,350.965 9.15477,325.965 3.5,299.5 Z"/></g>
</svg>
