<?xml version="1.0" encoding="UTF-8"?>
<!DOCTYPE svg PUBLIC "-//W3C//DTD SVG 1.1//EN" "http://www.w3.org/Graphics/SVG/1.1/DTD/svg11.dtd">
<svg xmlns="http://www.w3.org/2000/svg" version="1.1" width="500px" height="500px" style="shape-rendering:geometricPrecision; text-rendering:geometricPrecision; image-rendering:optimizeQuality; fill-rule:evenodd; clip-rule:evenodd" xmlns:xlink="http://www.w3.org/1999/xlink">
<g><path style="opacity:0.991" fill="#ed1c24" d="M 225.5,-0.5 C 241.5,-0.5 257.5,-0.5 273.5,-0.5C 358.148,10.2065 422.481,51.8732 466.5,124.5C 393.167,124.5 319.833,124.5 246.5,124.5C 246.167,124.5 245.833,124.5 245.5,124.5C 174.5,124.5 103.5,124.5 32.5,124.5C 76.5662,51.9426 140.9,10.2759 225.5,-0.5 Z"/></g>
<g><path style="opacity:0.996" fill="#fefefe" d="M 32.5,124.5 C 103.5,124.5 174.5,124.5 245.5,124.5C 243.945,127.94 242.112,131.273 240,134.5C 231.025,141.751 222.525,149.585 214.5,158C 218.212,157.715 221.879,156.882 225.5,155.5C 226.932,155.733 227.432,156.4 227,157.5C 222.108,162.7 216.275,166.534 209.5,169C 205.569,171.132 202.236,173.965 199.5,177.5C 200.333,177.833 201.167,178.167 202,178.5C 208.206,176.051 210.872,178.051 210,184.5C 206.334,185.087 202.834,186.254 199.5,188C 195.928,191.815 192.595,195.815 189.5,200C 179.265,204.095 170.265,209.929 162.5,217.5C 162.709,218.086 163.043,218.586 163.5,219C 170.38,219.935 177.047,219.102 183.5,216.5C 187.465,219.097 189.299,222.764 189,227.5C 185.917,232.588 182.083,237.088 177.5,241C 172.079,242.027 167.079,244.027 162.5,247C 156.591,253.414 150.258,259.247 143.5,264.5C 146.402,267.946 150.069,269.112 154.5,268C 159.958,265.505 165.125,262.672 170,259.5C 172.881,260.043 174.881,261.709 176,264.5C 176.667,266.5 176.667,268.5 176,270.5C 161.406,278.753 148.239,288.92 136.5,301C 132.768,302.969 128.768,303.969 124.5,304C 126.716,307.523 129.883,309.357 134,309.5C 148.338,306.723 161.505,301.223 173.5,293C 178.109,291.926 182.276,292.76 186,295.5C 186.28,299.578 184.447,302.411 180.5,304C 167.328,310.447 153.661,315.613 139.5,319.5C 138.366,322.916 139.699,325.083 143.5,326C 150.634,326.822 157.634,326.155 164.5,324C 177.52,318.821 190.52,313.654 203.5,308.5C 215.67,310.799 220.17,317.799 217,329.5C 211.985,341.066 204.485,350.566 194.5,358C 185.002,359.711 177.169,364.211 171,371.5C 170.517,372.448 170.351,373.448 170.5,374.5C 124.5,374.5 78.5,374.5 32.5,374.5C 14.4864,343.126 3.4864,309.459 -0.5,273.5C -0.5,257.5 -0.5,241.5 -0.5,225.5C 3.4864,189.541 14.4864,155.874 32.5,124.5 Z"/></g>
<g><path style="opacity:0.997" fill="#fefefe" d="M 246.5,124.5 C 319.833,124.5 393.167,124.5 466.5,124.5C 484.306,155.584 495.306,188.918 499.5,224.5C 499.5,241.167 499.5,257.833 499.5,274.5C 495.581,310.178 484.581,343.512 466.5,374.5C 412.833,374.5 359.167,374.5 305.5,374.5C 306.303,373.577 306.47,372.577 306,371.5C 297.287,364.299 288.954,356.632 281,348.5C 278.566,345.205 276.899,341.538 276,337.5C 275.333,328.5 275.333,319.5 276,310.5C 277.529,306.969 280.196,304.969 284,304.5C 290.068,307.113 296.234,309.613 302.5,312C 314.833,312.333 327.167,312.667 339.5,313C 348.761,317.935 357.761,323.268 366.5,329C 371.986,330.825 374.486,328.992 374,323.5C 372.542,321.04 370.709,318.873 368.5,317C 356.166,308.831 343.499,301.164 330.5,294C 327.068,291.633 326.735,288.966 329.5,286C 332.055,284.556 334.721,283.389 337.5,282.5C 342.949,284.724 348.282,287.224 353.5,290C 357.636,290.671 361.636,290.171 365.5,288.5C 355.055,280.224 345.055,271.391 335.5,262C 329.874,259.121 323.874,257.788 317.5,258C 314.751,255.81 315.085,254.143 318.5,253C 330.213,252.102 341.88,250.935 353.5,249.5C 353.439,246.95 352.106,245.45 349.5,245C 338.144,241.873 326.977,238.373 316,234.5C 315.316,233.216 315.483,232.049 316.5,231C 323.584,230.447 330.584,230.947 337.5,232.5C 339.833,232.167 342.167,231.833 344.5,231.5C 343.687,230.186 342.687,229.019 341.5,228C 325.83,220.328 311.83,210.328 299.5,198C 295.25,195.626 291.084,193.126 287,190.5C 286.316,189.216 286.483,188.049 287.5,187C 289.034,186.077 290.701,185.577 292.5,185.5C 297.025,186.428 301.358,187.928 305.5,190C 310.5,190.667 315.5,190.667 320.5,190C 310.855,185.504 302.188,179.671 294.5,172.5C 299.467,171.671 304.467,171.171 309.5,171C 300.894,163.063 291.227,156.73 280.5,152C 262.796,150.803 251.463,141.637 246.5,124.5 Z"/></g>
<g><path style="opacity:1" fill="#09a652" d="M 245.5,124.5 C 245.833,124.5 246.167,124.5 246.5,124.5C 251.463,141.637 262.796,150.803 280.5,152C 291.227,156.73 300.894,163.063 309.5,171C 304.467,171.171 299.467,171.671 294.5,172.5C 302.188,179.671 310.855,185.504 320.5,190C 315.5,190.667 310.5,190.667 305.5,190C 301.358,187.928 297.025,186.428 292.5,185.5C 290.701,185.577 289.034,186.077 287.5,187C 286.483,188.049 286.316,189.216 287,190.5C 291.084,193.126 295.25,195.626 299.5,198C 311.83,210.328 325.83,220.328 341.5,228C 342.687,229.019 343.687,230.186 344.5,231.5C 342.167,231.833 339.833,232.167 337.5,232.5C 330.584,230.947 323.584,230.447 316.5,231C 315.483,232.049 315.316,233.216 316,234.5C 326.977,238.373 338.144,241.873 349.5,245C 352.106,245.45 353.439,246.95 353.5,249.5C 341.88,250.935 330.213,252.102 318.5,253C 315.085,254.143 314.751,255.81 317.5,258C 323.874,257.788 329.874,259.121 335.5,262C 345.055,271.391 355.055,280.224 365.5,288.5C 361.636,290.171 357.636,290.671 353.5,290C 348.282,287.224 342.949,284.724 337.5,282.5C 334.721,283.389 332.055,284.556 329.5,286C 326.735,288.966 327.068,291.633 330.5,294C 343.499,301.164 356.166,308.831 368.5,317C 370.709,318.873 372.542,321.04 374,323.5C 374.486,328.992 371.986,330.825 366.5,329C 357.761,323.268 348.761,317.935 339.5,313C 327.167,312.667 314.833,312.333 302.5,312C 296.234,309.613 290.068,307.113 284,304.5C 280.196,304.969 277.529,306.969 276,310.5C 275.333,319.5 275.333,328.5 276,337.5C 276.899,341.538 278.566,345.205 281,348.5C 288.954,356.632 297.287,364.299 306,371.5C 306.47,372.577 306.303,373.577 305.5,374.5C 303.5,374.5 301.5,374.5 299.5,374.5C 295.669,369.836 291.336,365.67 286.5,362C 279.588,360.428 272.588,359.594 265.5,359.5C 266.202,362.578 267.202,365.578 268.5,368.5C 268.167,369.167 267.833,369.833 267.5,370.5C 261.811,365.643 255.978,360.977 250,356.5C 249.088,354.341 248.255,352.175 247.5,350C 243.845,349.359 240.345,349.859 237,351.5C 233.876,350.354 230.71,349.354 227.5,348.5C 220.917,350.461 215.25,353.961 210.5,359C 201.877,364.156 192.543,366.822 182.5,367C 178.687,368.385 176.021,370.885 174.5,374.5C 173.167,374.5 171.833,374.5 170.5,374.5C 170.351,373.448 170.517,372.448 171,371.5C 177.169,364.211 185.002,359.711 194.5,358C 204.485,350.566 211.985,341.066 217,329.5C 220.17,317.799 215.67,310.799 203.5,308.5C 190.52,313.654 177.52,318.821 164.5,324C 157.634,326.155 150.634,326.822 143.5,326C 139.699,325.083 138.366,322.916 139.5,319.5C 153.661,315.613 167.328,310.447 180.5,304C 184.447,302.411 186.28,299.578 186,295.5C 182.276,292.76 178.109,291.926 173.5,293C 161.505,301.223 148.338,306.723 134,309.5C 129.883,309.357 126.716,307.523 124.5,304C 128.768,303.969 132.768,302.969 136.5,301C 148.239,288.92 161.406,278.753 176,270.5C 176.667,268.5 176.667,266.5 176,264.5C 174.881,261.709 172.881,260.043 170,259.5C 165.125,262.672 159.958,265.505 154.5,268C 150.069,269.112 146.402,267.946 143.5,264.5C 150.258,259.247 156.591,253.414 162.5,247C 167.079,244.027 172.079,242.027 177.5,241C 182.083,237.088 185.917,232.588 189,227.5C 189.299,222.764 187.465,219.097 183.5,216.5C 177.047,219.102 170.38,219.935 163.5,219C 163.043,218.586 162.709,218.086 162.5,217.5C 170.265,209.929 179.265,204.095 189.5,200C 192.595,195.815 195.928,191.815 199.5,188C 202.834,186.254 206.334,185.087 210,184.5C 210.872,178.051 208.206,176.051 202,178.5C 201.167,178.167 200.333,177.833 199.5,177.5C 202.236,173.965 205.569,171.132 209.5,169C 216.275,166.534 222.108,162.7 227,157.5C 227.432,156.4 226.932,155.733 225.5,155.5C 221.879,156.882 218.212,157.715 214.5,158C 222.525,149.585 231.025,141.751 240,134.5C 242.112,131.273 243.945,127.94 245.5,124.5 Z"/></g>
<g><path style="opacity:1" fill="#f7fcf9" d="M 215.5,172.5 C 217.924,172.192 220.257,172.526 222.5,173.5C 220.833,175.833 218.833,177.833 216.5,179.5C 215.526,177.257 215.192,174.924 215.5,172.5 Z"/></g>
<g><path style="opacity:1" fill="#ebf8f1" d="M 256.5,176.5 C 258.527,176.338 260.527,176.505 262.5,177C 263.554,178.388 263.72,179.888 263,181.5C 257.1,184.001 254.933,182.334 256.5,176.5 Z"/></g>
<g><path style="opacity:1" fill="#f5fbf8" d="M 244.5,177.5 C 249.675,176.507 251.509,178.507 250,183.5C 245.503,186 240.67,187.333 235.5,187.5C 235.343,186.127 235.51,184.793 236,183.5C 238.637,181.109 241.47,179.109 244.5,177.5 Z"/></g>
<g><path style="opacity:1" fill="#f6fcf9" d="M 271.5,177.5 C 273.5,177.5 275.5,177.5 277.5,177.5C 278.167,183.5 275.5,186.167 269.5,185.5C 269.107,182.487 269.774,179.82 271.5,177.5 Z"/></g>
<g><path style="opacity:1" fill="#f4fbf7" d="M 226.5,185.5 C 228.635,185.147 229.968,185.98 230.5,188C 227.948,194.946 222.948,198.446 215.5,198.5C 215.491,196.692 215.991,195.025 217,193.5C 219.775,190.22 222.942,187.554 226.5,185.5 Z"/></g>
<g><path style="opacity:1" fill="#eef9f3" d="M 262.5,201.5 C 263.496,201.414 264.329,201.748 265,202.5C 266.127,209.372 263.293,211.706 256.5,209.5C 258.171,206.508 260.171,203.841 262.5,201.5 Z"/></g>
<g><path style="opacity:1" fill="#ebf8f1" d="M 246.5,202.5 C 248.199,202.34 249.866,202.506 251.5,203C 252.833,204.333 252.833,205.667 251.5,207C 247.296,209.077 243.296,208.744 239.5,206C 241.925,204.787 244.259,203.621 246.5,202.5 Z"/></g>
<g><path style="opacity:1" fill="#f6fcf8" d="M 275.5,206.5 C 279.342,206.239 283.009,206.906 286.5,208.5C 287.647,210.765 287.814,213.098 287,215.5C 285.701,216.98 284.034,217.646 282,217.5C 278.731,217.077 275.564,216.244 272.5,215C 271.446,213.612 271.28,212.112 272,210.5C 273.376,209.295 274.542,207.962 275.5,206.5 Z"/></g>
<g><path style="opacity:1" fill="#f3fbf7" d="M 209.5,207.5 C 212.518,207.335 215.518,207.502 218.5,208C 218.957,208.414 219.291,208.914 219.5,209.5C 217.547,213.12 214.881,216.12 211.5,218.5C 207.458,215.3 206.791,211.634 209.5,207.5 Z"/></g>
<g><path style="opacity:1" fill="#f6fcf8" d="M 192.5,210.5 C 195.32,210.248 197.986,210.748 200.5,212C 202.417,214.498 204.084,217.165 205.5,220C 197.627,225.388 192.627,223.221 190.5,213.5C 190.942,212.261 191.609,211.261 192.5,210.5 Z"/></g>
<g><path style="opacity:1" fill="#f5fbf8" d="M 295.5,226.5 C 302.208,225.534 304.541,228.201 302.5,234.5C 298.779,236.186 295.613,235.519 293,232.5C 292.972,230.213 293.805,228.213 295.5,226.5 Z"/></g>
<g><path style="opacity:1" fill="#eff9f3" d="M 238.5,234.5 C 240.948,234.085 242.281,235.085 242.5,237.5C 241.051,243.441 239.385,243.774 237.5,238.5C 237.623,237.075 237.957,235.742 238.5,234.5 Z"/></g>
<g><path style="opacity:1" fill="#f0faf5" d="M 219.5,238.5 C 224.213,238.242 227.047,240.242 228,244.5C 226.951,245.517 225.784,245.684 224.5,245C 222.21,243.223 220.543,241.056 219.5,238.5 Z"/></g>
<g><path style="opacity:1" fill="#f6fcf8" d="M 250.5,239.5 C 255.839,241.483 258.172,245.483 257.5,251.5C 248.485,251.332 246.152,247.332 250.5,239.5 Z"/></g>
<g><path style="opacity:1" fill="#f2faf6" d="M 261.5,245.5 C 265.646,247.035 266.48,249.702 264,253.5C 261.797,251.331 260.964,248.665 261.5,245.5 Z"/></g>
<g><path style="opacity:1" fill="#f8fcfa" d="M 181.5,252.5 C 189.279,252.068 196.946,252.568 204.5,254C 205.727,255.587 205.394,256.921 203.5,258C 197.059,262.433 190.059,264.266 182.5,263.5C 180.579,260.404 179.246,257.07 178.5,253.5C 179.791,253.737 180.791,253.404 181.5,252.5 Z"/></g>
<g><path style="opacity:1" fill="#f6fbf8" d="M 294.5,267.5 C 297.909,267.249 301.242,267.583 304.5,268.5C 305.776,273.444 303.776,276.611 298.5,278C 284.661,278.397 283.328,274.897 294.5,267.5 Z"/></g>
<g><path style="opacity:1" fill="#f7fcf9" d="M 318.5,272.5 C 329.45,272.581 331.117,276.414 323.5,284C 308.384,285.467 306.717,281.634 318.5,272.5 Z"/></g>
<g><path style="opacity:1" fill="#f3faf6" d="M 209.5,278.5 C 212.961,278.146 215.461,279.479 217,282.5C 217.667,286.167 217.667,289.833 217,293.5C 216.586,293.957 216.086,294.291 215.5,294.5C 210.953,290.2 208.953,284.866 209.5,278.5 Z"/></g>
<g><path style="opacity:1" fill="#f8fcfa" d="M 241.5,281.5 C 245.315,281.282 248.648,282.282 251.5,284.5C 249.527,287.64 247.36,290.64 245,293.5C 243.21,289.673 242.044,285.673 241.5,281.5 Z"/></g>
<g><path style="opacity:1" fill="#f2faf6" d="M 226.5,284.5 C 232.144,284.297 234.144,286.797 232.5,292C 231.004,292.507 229.837,292.007 229,290.5C 227.878,288.593 227.045,286.593 226.5,284.5 Z"/></g>
<g><path style="opacity:1" fill="#fcfdfc" d="M 299.5,374.5 C 257.833,374.5 216.167,374.5 174.5,374.5C 176.021,370.885 178.687,368.385 182.5,367C 192.543,366.822 201.877,364.156 210.5,359C 215.25,353.961 220.917,350.461 227.5,348.5C 230.71,349.354 233.876,350.354 237,351.5C 240.345,349.859 243.845,349.359 247.5,350C 248.255,352.175 249.088,354.341 250,356.5C 255.978,360.977 261.811,365.643 267.5,370.5C 267.833,369.833 268.167,369.167 268.5,368.5C 267.202,365.578 266.202,362.578 265.5,359.5C 272.588,359.594 279.588,360.428 286.5,362C 291.336,365.67 295.669,369.836 299.5,374.5 Z"/></g>
<g><path style="opacity:0.992" fill="#ed1c24" d="M 32.5,374.5 C 78.5,374.5 124.5,374.5 170.5,374.5C 171.833,374.5 173.167,374.5 174.5,374.5C 216.167,374.5 257.833,374.5 299.5,374.5C 301.5,374.5 303.5,374.5 305.5,374.5C 359.167,374.5 412.833,374.5 466.5,374.5C 429.657,436.628 375.99,476.461 305.5,494C 295.064,496.071 284.73,497.905 274.5,499.5C 257.833,499.5 241.167,499.5 224.5,499.5C 140.313,488.432 76.3133,446.765 32.5,374.5 Z"/></g>
</svg>
