<?xml version="1.0" encoding="UTF-8"?>
<!DOCTYPE svg PUBLIC "-//W3C//DTD SVG 1.1//EN" "http://www.w3.org/Graphics/SVG/1.1/DTD/svg11.dtd">
<svg xmlns="http://www.w3.org/2000/svg" version="1.1" width="500px" height="500px" style="shape-rendering:geometricPrecision; text-rendering:geometricPrecision; image-rendering:optimizeQuality; fill-rule:evenodd; clip-rule:evenodd" xmlns:xlink="http://www.w3.org/1999/xlink">
<g><path style="opacity:0.993" fill="#02209f" d="M 225.5,-0.5 C 241.5,-0.5 257.5,-0.5 273.5,-0.5C 369.336,12.3982 438.003,62.3982 479.5,149.5C 326.167,149.5 172.833,149.5 19.5,149.5C 60.997,62.3982 129.664,12.3982 225.5,-0.5 Z"/></g>
<g><path style="opacity:0.997" fill="#fefefe" d="M 19.5,149.5 C 172.833,149.5 326.167,149.5 479.5,149.5C 489.783,173.637 496.449,198.637 499.5,224.5C 499.5,241.167 499.5,257.833 499.5,274.5C 496.447,300.373 489.78,325.373 479.5,349.5C 326.167,349.5 172.833,349.5 19.5,349.5C 9.05745,325.058 2.39079,299.725 -0.5,273.5C -0.5,257.5 -0.5,241.5 -0.5,225.5C 2.39079,199.275 9.05745,173.942 19.5,149.5 Z"/></g>
<g><path style="opacity:1" fill="#050505" d="M 246.5,158.5 C 250.495,157.883 253.828,159.049 256.5,162C 270.413,164.914 278.58,173.414 281,187.5C 281.667,195.167 281.667,202.833 281,210.5C 278.033,221.394 274.7,232.06 271,242.5C 284.006,259.667 297.173,276.667 310.5,293.5C 312.707,291.69 315.041,291.357 317.5,292.5C 321.667,300.833 325.833,309.167 330,317.5C 330.749,318.635 330.583,319.635 329.5,320.5C 309.633,331.636 288.299,338.136 265.5,340C 231.313,343.899 199.313,337.399 169.5,320.5C 173.365,310.436 178.032,300.77 183.5,291.5C 187.704,294.574 191.204,293.908 194,289.5C 205.693,273.974 217.193,258.307 228.5,242.5C 221.922,228.355 217.922,213.521 216.5,198C 216.593,186.379 220.593,176.379 228.5,168C 234.653,165.017 240.653,161.85 246.5,158.5 Z"/></g>
<g><path style="opacity:1" fill="#f7f7f7" d="M 255.5,170.5 C 265.556,172.204 271.389,178.204 273,188.5C 274.684,204.399 271.851,219.399 264.5,233.5C 262.476,231.31 260.643,228.977 259,226.5C 258.5,219.842 258.334,213.175 258.5,206.5C 261.554,207.321 264.554,207.321 267.5,206.5C 263.542,203.043 259.708,199.377 256,195.5C 255.5,187.173 255.334,178.84 255.5,170.5 Z"/></g>
<g><path style="opacity:1" fill="#f6f6f6" d="M 239.5,170.5 C 240.5,170.5 241.5,170.5 242.5,170.5C 243.052,178.834 243.219,187.168 243,195.5C 239.131,199.034 235.631,202.867 232.5,207C 235.146,207.497 237.813,207.664 240.5,207.5C 240.935,213.842 241.102,220.175 241,226.5C 239.023,229.312 236.856,231.978 234.5,234.5C 226.576,219.717 223.743,204.051 226,187.5C 228.146,179.865 232.646,174.198 239.5,170.5 Z"/></g>
<g><path style="opacity:1" fill="#eeeeee" d="M 306.5,301.5 C 308.977,301.051 310.977,301.717 312.5,303.5C 311.231,307.054 309.231,310.054 306.5,312.5C 304.628,310.465 302.961,308.298 301.5,306C 302.761,304.038 304.428,302.538 306.5,301.5 Z"/></g>
<g><path style="opacity:1" fill="#e9e9e9" d="M 186.5,304.5 C 188.461,306.119 189.794,308.286 190.5,311C 188.17,312.345 185.837,312.512 183.5,311.5C 184.788,309.261 185.788,306.928 186.5,304.5 Z"/></g>
<g><path style="opacity:1" fill="#efefef" d="M 195.5,304.5 C 201.201,304.514 205.534,306.847 208.5,311.5C 208.291,312.086 207.957,312.586 207.5,313C 204.479,313.849 201.479,314.683 198.5,315.5C 197.703,311.777 196.703,308.11 195.5,304.5 Z"/></g>
<g><path style="opacity:1" fill="#ebebeb" d="M 290.5,307.5 C 293.278,307.022 295.278,308.022 296.5,310.5C 293.81,313.185 290.81,315.518 287.5,317.5C 285.844,315.54 284.177,313.54 282.5,311.5C 285.148,309.962 287.815,308.628 290.5,307.5 Z"/></g>
<g><path style="opacity:1" fill="#ededed" d="M 215.5,310.5 C 219.463,310.089 223.13,310.922 226.5,313C 228.037,314.11 228.703,315.61 228.5,317.5C 225.167,318.5 221.833,319.5 218.5,320.5C 217.901,317.037 216.901,313.704 215.5,310.5 Z"/></g>
<g><path style="opacity:1" fill="#eaeaea" d="M 313.5,309.5 C 319.474,314.426 318.474,317.426 310.5,318.5C 310.129,314.997 311.129,311.997 313.5,309.5 Z"/></g>
<g><path style="opacity:1" fill="#e9e9e9" d="M 267.5,311.5 C 271.539,310.66 274.539,311.993 276.5,315.5C 273.081,317.626 269.581,319.626 266,321.5C 264.303,319.301 262.803,316.968 261.5,314.5C 263.282,313.016 265.282,312.016 267.5,311.5 Z"/></g>
<g><path style="opacity:1" fill="#f4f4f4" d="M 235.5,312.5 C 241.471,313.241 247.471,313.575 253.5,313.5C 253.714,315.144 253.38,316.644 252.5,318C 248.492,319.113 244.659,320.613 241,322.5C 238.381,319.594 236.547,316.261 235.5,312.5 Z"/></g>
<g><path style="opacity:1" fill="#e0e0e0" d="M 189.5,314.5 C 190.5,314.5 191.5,314.5 192.5,314.5C 192.357,316.262 192.691,317.929 193.5,319.5C 190.21,320.244 187.21,319.411 184.5,317C 186.491,316.626 188.158,315.793 189.5,314.5 Z"/></g>
<g><path style="opacity:1" fill="#f5f5f5" d="M 296.5,315.5 C 300.012,316.005 302.345,318.005 303.5,321.5C 299.744,323.607 295.744,324.44 291.5,324C 290.483,322.951 290.316,321.784 291,320.5C 292.812,318.7 294.645,317.033 296.5,315.5 Z"/></g>
<g><path style="opacity:1" fill="#efefef" d="M 207.5,316.5 C 208.675,316.281 209.675,316.614 210.5,317.5C 215.888,327.151 213.222,329.151 202.5,323.5C 201.691,321.929 201.357,320.262 201.5,318.5C 203.786,318.405 205.786,317.738 207.5,316.5 Z"/></g>
<g><path style="opacity:1" fill="#f4f4f4" d="M 276.5,319.5 C 280.159,320.315 282.826,322.481 284.5,326C 279.709,328.199 274.709,328.866 269.5,328C 268.253,326.506 268.253,325.006 269.5,323.5C 272.059,322.392 274.392,321.059 276.5,319.5 Z"/></g>
<g><path style="opacity:1" fill="#ebebeb" d="M 229.5,320.5 C 230.496,320.414 231.329,320.748 232,321.5C 233.709,324.418 235.542,327.252 237.5,330C 232.345,330.297 227.345,329.464 222.5,327.5C 221.355,326.109 221.355,324.776 222.5,323.5C 225.016,322.67 227.35,321.67 229.5,320.5 Z"/></g>
<g><path style="opacity:1" fill="#f1f1f1" d="M 254.5,320.5 C 255.675,320.281 256.675,320.614 257.5,321.5C 259.167,324.167 260.833,326.833 262.5,329.5C 256.863,330.663 251.196,330.83 245.5,330C 244.235,328.663 243.735,327.163 244,325.5C 247.628,323.912 251.128,322.246 254.5,320.5 Z"/></g>
<g><path style="opacity:0.993" fill="#009543" d="M 19.5,349.5 C 172.833,349.5 326.167,349.5 479.5,349.5C 438.245,436.313 369.912,486.313 274.5,499.5C 257.833,499.5 241.167,499.5 224.5,499.5C 129.076,486.309 60.7428,436.309 19.5,349.5 Z"/></g>
</svg>
