<?xml version="1.0" encoding="UTF-8"?>
<!DOCTYPE svg PUBLIC "-//W3C//DTD SVG 1.1//EN" "http://www.w3.org/Graphics/SVG/1.1/DTD/svg11.dtd">
<svg xmlns="http://www.w3.org/2000/svg" version="1.1" width="500px" height="500px" style="shape-rendering:geometricPrecision; text-rendering:geometricPrecision; image-rendering:optimizeQuality; fill-rule:evenodd; clip-rule:evenodd" xmlns:xlink="http://www.w3.org/1999/xlink">
<g><path style="opacity:0.982" fill="#be092f" d="M 226.5,-0.5 C 242.167,-0.5 257.833,-0.5 273.5,-0.5C 313.311,4.04877 350.311,16.8821 384.5,38C 388.597,40.3696 392.264,43.2029 395.5,46.5C 339.167,46.5 282.833,46.5 226.5,46.5C 226.5,30.8333 226.5,15.1667 226.5,-0.5 Z"/></g>
<g><path style="opacity:0.993" fill="#002868" d="M 225.5,-0.5 C 225.833,-0.5 226.167,-0.5 226.5,-0.5C 226.5,15.1667 226.5,30.8333 226.5,46.5C 226.5,60.5 226.5,74.5 226.5,88.5C 226.5,104.833 226.5,121.167 226.5,137.5C 226.5,151.5 226.5,165.5 226.5,179.5C 226.5,195.167 226.5,210.833 226.5,226.5C 150.833,226.5 75.1667,226.5 -0.5,226.5C -0.5,226.167 -0.5,225.833 -0.5,225.5C 4.04877,185.689 16.8821,148.689 38,114.5C 42.3686,107.738 47.2019,101.405 52.5,95.5C 64.7612,103.755 76.7612,112.421 88.5,121.5C 83.4048,136.285 78.4048,151.119 73.5,166C 73.8333,166.5 74.1667,167 74.5,167.5C 87.3236,157.921 100.324,148.588 113.5,139.5C 126.245,148.956 139.078,158.289 152,167.5C 148.14,152.242 143.64,137.076 138.5,122C 150.702,111.976 163.369,102.476 176.5,93.5C 177.043,93.44 177.376,93.1067 177.5,92.5C 161.18,91.5006 144.847,91.1672 128.5,91.5C 123.623,76.0349 118.456,60.7015 113,45.5C 107.828,61.0165 102.661,76.5165 97.5,92C 83.1705,92.4999 68.8372,92.6666 54.5,92.5C 98.9389,38.7742 155.939,7.77419 225.5,-0.5 Z"/></g>
<g><path style="opacity:0.995" fill="#fefefe" d="M 395.5,46.5 C 412.987,57.9804 428.321,71.9804 441.5,88.5C 370.167,88.5 298.833,88.5 227.5,88.5C 227.5,74.8333 227.5,61.1667 227.5,47.5C 283.669,47.8323 339.669,47.499 395.5,46.5 Z"/></g>
<g><path style="opacity:1" fill="#fbfbfc" d="M 128.5,91.5 C 144.5,92.1667 160.5,92.8333 176.5,93.5C 163.369,102.476 150.702,111.976 138.5,122C 143.64,137.076 148.14,152.242 152,167.5C 139.078,158.289 126.245,148.956 113.5,139.5C 100.324,148.588 87.3236,157.921 74.5,167.5C 74.1667,167 73.8333,166.5 73.5,166C 78.4048,151.119 83.4048,136.285 88.5,121.5C 76.7612,112.421 64.7612,103.755 52.5,95.5C 52.427,93.9731 53.0937,92.9731 54.5,92.5C 68.8372,92.6666 83.1705,92.4999 97.5,92C 102.661,76.5165 107.828,61.0165 113,45.5C 118.456,60.7015 123.623,76.0349 128.5,91.5 Z"/></g>
<g><path style="opacity:1" fill="#c5acbe" d="M 226.5,46.5 C 282.833,46.5 339.167,46.5 395.5,46.5C 339.669,47.499 283.669,47.8323 227.5,47.5C 227.5,61.1667 227.5,74.8333 227.5,88.5C 227.167,88.5 226.833,88.5 226.5,88.5C 226.5,74.5 226.5,60.5 226.5,46.5 Z"/></g>
<g><path style="opacity:0.997" fill="#be0a30" d="M 226.5,88.5 C 226.833,88.5 227.167,88.5 227.5,88.5C 298.833,88.5 370.167,88.5 441.5,88.5C 454.403,103.288 465.07,119.621 473.5,137.5C 391.167,137.5 308.833,137.5 226.5,137.5C 226.5,121.167 226.5,104.833 226.5,88.5 Z"/></g>
<g><path style="opacity:1" fill="#7086aa" d="M 128.5,91.5 C 144.847,91.1672 161.18,91.5006 177.5,92.5C 177.376,93.1067 177.043,93.44 176.5,93.5C 160.5,92.8333 144.5,92.1667 128.5,91.5 Z"/></g>
<g><path style="opacity:0.998" fill="#fefefe" d="M 474.5,138.5 C 480.665,151.832 485.998,165.499 490.5,179.5C 402.833,179.5 315.167,179.5 227.5,179.5C 227.5,165.833 227.5,152.167 227.5,138.5C 309.833,138.5 392.167,138.5 474.5,138.5 Z"/></g>
<g><path style="opacity:1" fill="#c7b2c3" d="M 226.5,137.5 C 308.833,137.5 391.167,137.5 473.5,137.5C 474.167,137.5 474.5,137.833 474.5,138.5C 392.167,138.5 309.833,138.5 227.5,138.5C 227.5,152.167 227.5,165.833 227.5,179.5C 227.167,179.5 226.833,179.5 226.5,179.5C 226.5,165.5 226.5,151.5 226.5,137.5 Z"/></g>
<g><path style="opacity:0.997" fill="#bd0a30" d="M 226.5,179.5 C 226.833,179.5 227.167,179.5 227.5,179.5C 315.167,179.5 402.833,179.5 490.5,179.5C 494.422,194.441 497.422,209.441 499.5,224.5C 499.5,225.833 499.5,227.167 499.5,228.5C 332.833,228.5 166.167,228.5 -0.5,228.5C -0.5,227.833 -0.5,227.167 -0.5,226.5C 75.1667,226.5 150.833,226.5 226.5,226.5C 226.5,210.833 226.5,195.167 226.5,179.5 Z"/></g>
<g><path style="opacity:0.999" fill="#fefcfc" d="M -0.5,228.5 C 166.167,228.5 332.833,228.5 499.5,228.5C 499.5,242.5 499.5,256.5 499.5,270.5C 332.833,270.5 166.167,270.5 -0.5,270.5C -0.5,256.5 -0.5,242.5 -0.5,228.5 Z"/></g>
<g><path style="opacity:0.997" fill="#be0a30" d="M -0.5,270.5 C 166.167,270.5 332.833,270.5 499.5,270.5C 499.5,271.833 499.5,273.167 499.5,274.5C 497.422,289.557 494.422,304.557 490.5,319.5C 329.833,319.5 169.167,319.5 8.5,319.5C 4.44887,304.247 1.44887,288.914 -0.5,273.5C -0.5,272.5 -0.5,271.5 -0.5,270.5 Z"/></g>
<g><path style="opacity:0.997" fill="#fefcfd" d="M 8.5,319.5 C 169.167,319.5 329.833,319.5 490.5,319.5C 486.382,334.201 480.715,348.201 473.5,361.5C 324.167,361.5 174.833,361.5 25.5,361.5C 18.6787,348.052 13.0121,334.052 8.5,319.5 Z"/></g>
<g><path style="opacity:0.996" fill="#bf0a30" d="M 25.5,361.5 C 174.833,361.5 324.167,361.5 473.5,361.5C 465.07,379.379 454.403,395.712 441.5,410.5C 313.5,410.5 185.5,410.5 57.5,410.5C 44.5971,395.712 33.9304,379.379 25.5,361.5 Z"/></g>
<g><path style="opacity:0.994" fill="#fefdfd" d="M 57.5,410.5 C 185.5,410.5 313.5,410.5 441.5,410.5C 428.321,427.02 412.987,441.02 395.5,452.5C 298.167,452.5 200.833,452.5 103.5,452.5C 86.0127,441.02 70.6794,427.02 57.5,410.5 Z"/></g>
<g><path style="opacity:0.98" fill="#be092f" d="M 103.5,452.5 C 200.833,452.5 298.167,452.5 395.5,452.5C 368.551,472.468 338.551,486.301 305.5,494C 295.064,496.071 284.73,497.905 274.5,499.5C 257.833,499.5 241.167,499.5 224.5,499.5C 185.067,494.744 148.4,481.91 114.5,461C 110.403,458.63 106.736,455.797 103.5,452.5 Z"/></g>
</svg>
