<?xml version="1.0" encoding="UTF-8"?>
<!DOCTYPE svg PUBLIC "-//W3C//DTD SVG 1.1//EN" "http://www.w3.org/Graphics/SVG/1.1/DTD/svg11.dtd">
<svg xmlns="http://www.w3.org/2000/svg" version="1.1" width="500px" height="500px" style="shape-rendering:geometricPrecision; text-rendering:geometricPrecision; image-rendering:optimizeQuality; fill-rule:evenodd; clip-rule:evenodd" xmlns:xlink="http://www.w3.org/1999/xlink">
<g><path style="opacity:0.991" fill="#e60012" d="M 225.5,-0.5 C 241.5,-0.5 257.5,-0.5 273.5,-0.5C 358.148,10.2065 422.481,51.8732 466.5,124.5C 321.833,124.5 177.167,124.5 32.5,124.5C 76.5662,51.9426 140.9,10.2759 225.5,-0.5 Z"/></g>
<g><path style="opacity:0.997" fill="#000000" d="M 32.5,124.5 C 177.167,124.5 321.833,124.5 466.5,124.5C 484.306,155.584 495.306,188.918 499.5,224.5C 499.5,241.167 499.5,257.833 499.5,274.5C 495.581,310.178 484.581,343.512 466.5,374.5C 321.833,374.5 177.167,374.5 32.5,374.5C 14.4864,343.126 3.4864,309.459 -0.5,273.5C -0.5,257.5 -0.5,241.5 -0.5,225.5C 3.4864,189.541 14.4864,155.874 32.5,124.5 Z"/></g>
<g><path style="opacity:1" fill="#f8f8f8" d="M 245.5,186.5 C 262.936,186.366 278.27,191.866 291.5,203C 257.218,187.205 230.718,195.705 212,228.5C 204.239,251.696 208.739,272.196 225.5,290C 240.066,302.474 256.733,306.474 275.5,302C 281.145,300.347 286.478,298.347 291.5,296C 272.164,311.947 250.497,315.947 226.5,308C 193.785,291.566 181.618,265.399 190,229.5C 200.263,204.39 218.763,190.057 245.5,186.5 Z"/></g>
<g><path style="opacity:1" fill="#f6f6f6" d="M 311.5,205.5 C 318.733,214.289 325.733,223.289 332.5,232.5C 342.296,229.068 352.13,225.735 362,222.5C 362.5,222.833 363,223.167 363.5,223.5C 357.167,232.167 350.833,240.833 344.5,249.5C 350.956,258.245 357.289,267.079 363.5,276C 353.027,273.567 342.694,270.4 332.5,266.5C 325.678,275.462 318.845,284.462 312,293.5C 311.5,282.172 311.333,270.838 311.5,259.5C 300.912,256.971 290.579,253.637 280.5,249.5C 290.717,245.761 301.051,242.427 311.5,239.5C 311.5,228.167 311.5,216.833 311.5,205.5 Z"/></g>
<g><path style="opacity:0.992" fill="#229d45" d="M 32.5,374.5 C 177.167,374.5 321.833,374.5 466.5,374.5C 429.657,436.628 375.99,476.461 305.5,494C 295.064,496.071 284.73,497.905 274.5,499.5C 257.833,499.5 241.167,499.5 224.5,499.5C 140.313,488.432 76.3133,446.765 32.5,374.5 Z"/></g>
</svg>
