<?xml version="1.0" encoding="UTF-8"?>
<!DOCTYPE svg PUBLIC "-//W3C//DTD SVG 1.1//EN" "http://www.w3.org/Graphics/SVG/1.1/DTD/svg11.dtd">
<svg xmlns="http://www.w3.org/2000/svg" version="1.1" width="500px" height="500px" style="shape-rendering:geometricPrecision; text-rendering:geometricPrecision; image-rendering:optimizeQuality; fill-rule:evenodd; clip-rule:evenodd" xmlns:xlink="http://www.w3.org/1999/xlink">
<g><path style="opacity:0.994" fill="#002a7e" d="M 225.5,-0.5 C 241.5,-0.5 257.5,-0.5 273.5,-0.5C 362.269,10.9489 428.436,55.6156 472,133.5C 486.559,162.333 495.726,192.666 499.5,224.5C 499.5,232.833 499.5,241.167 499.5,249.5C 332.833,249.5 166.167,249.5 -0.5,249.5C -0.5,241.5 -0.5,233.5 -0.5,225.5C 11.4543,135.075 57.4543,68.242 137.5,25C 165.514,11.5012 194.847,3.00119 225.5,-0.5 Z"/></g>
<g><path style="opacity:1" fill="#131010" d="M 249.5,180.5 C 248.833,180.5 248.167,180.5 247.5,180.5C 253.592,166.899 260.259,153.565 267.5,140.5C 266.312,138.738 264.645,137.738 262.5,137.5C 262.5,136.167 262.5,134.833 262.5,133.5C 264.729,131.901 265.062,129.901 263.5,127.5C 263.5,126.5 263.5,125.5 263.5,124.5C 265.377,123.341 265.877,121.674 265,119.5C 259.906,117.763 258.406,119.429 260.5,124.5C 260.179,126.048 259.179,126.715 257.5,126.5C 257.5,125.5 257.5,124.5 257.5,123.5C 258.912,103.609 249.746,93.2753 230,92.5C 219.015,93.2476 208.182,94.9142 197.5,97.5C 196.167,97.5 195.5,96.8333 195.5,95.5C 195.36,90.2527 193.194,89.2527 189,92.5C 188.421,93.9285 188.588,95.2618 189.5,96.5C 188.5,96.5 187.5,96.5 186.5,96.5C 186.912,94.0274 185.912,92.6941 183.5,92.5C 182.761,92.631 182.094,92.4643 181.5,92C 183.382,91.8019 185.048,91.3019 186.5,90.5C 188.229,89.8825 189.729,88.8825 191,87.5C 191.528,86.184 191.028,85.5173 189.5,85.5C 190.5,84.8333 191.5,84.1667 192.5,83.5C 192.586,82.5041 192.252,81.6708 191.5,81C 189.866,80.5065 188.199,80.3398 186.5,80.5C 186.5,78.8333 186.5,77.1667 186.5,75.5C 185.167,75.5 183.833,75.5 182.5,75.5C 182.5,77.1667 182.5,78.8333 182.5,80.5C 180.5,80.5 178.5,80.5 176.5,80.5C 176.5,81.5 176.5,82.5 176.5,83.5C 177.5,84.1667 178.5,84.8333 179.5,85.5C 178.167,85.5 177.5,86.1667 177.5,87.5C 177.443,88.609 177.11,89.609 176.5,90.5C 173.916,91.0483 172.916,92.715 173.5,95.5C 173.294,97.5492 172.461,97.8825 171,96.5C 171.559,94.3618 171.392,92.3618 170.5,90.5C 169.341,88.6231 167.674,88.1231 165.5,89C 164.663,90.0113 164.33,91.1779 164.5,92.5C 161.266,95.2328 160.266,94.5661 161.5,90.5C 161.003,85.5072 158.836,84.5072 155,87.5C 154.517,88.448 154.351,89.448 154.5,90.5C 153.5,93.1667 152.5,93.1667 151.5,90.5C 152.508,85.3327 150.675,83.666 146,85.5C 145.51,86.7932 145.343,88.1266 145.5,89.5C 145.38,90.5862 144.713,91.2528 143.5,91.5C 142.287,91.2528 141.62,90.5862 141.5,89.5C 143.594,84.4294 142.094,82.7627 137,84.5C 136.51,85.7932 136.343,87.1266 136.5,88.5C 136.5,89.5 136.5,90.5 136.5,91.5C 135.209,91.2627 134.209,91.596 133.5,92.5C 117.606,95.6001 110.439,105.267 112,121.5C 112.496,126.133 113.663,130.467 115.5,134.5C 113.5,135.167 111.5,135.833 109.5,136.5C 106.273,136.78 103.607,138.113 101.5,140.5C 104.956,145.078 107.622,150.078 109.5,155.5C 109.5,155.833 109.5,156.167 109.5,156.5C 106.673,150.658 103.006,145.325 98.5,140.5C 100.794,138.678 103.128,136.844 105.5,135C 103.271,132.447 102.938,129.614 104.5,126.5C 100.905,123.576 100.572,120.243 103.5,116.5C 100.4,112.498 101.067,109.331 105.5,107C 102.332,102.166 103.665,99.333 109.5,98.5C 108.337,92.6665 110.671,89.9998 116.5,90.5C 117.238,85.6627 119.904,84.3293 124.5,86.5C 127.104,82.1125 130.438,81.4458 134.5,84.5C 137.833,80.5 141.167,80.5 144.5,84.5C 148.393,81.5977 151.56,82.2644 154,86.5C 157.864,83.5064 161.031,84.1731 163.5,88.5C 167.347,85.585 170.514,86.2516 173,90.5C 173.903,89.2986 175.069,88.4652 176.5,88C 174.242,82.2305 175.576,77.5638 180.5,74C 179.978,73.4387 179.645,72.772 179.5,72C 180.62,70.2626 181.62,68.4292 182.5,66.5C 181.421,64.1236 180.088,63.957 178.5,66C 174.454,66.6583 171.121,65.325 168.5,62C 172.533,57.2596 177.2,56.4262 182.5,59.5C 182.193,56.7201 181.193,54.2201 179.5,52C 182.833,40.6667 186.167,40.6667 189.5,52C 188.764,54.1394 187.764,56.1394 186.5,58C 187.025,58.6924 187.692,59.1924 188.5,59.5C 193.068,56.9209 197.068,57.7542 200.5,62C 197.231,66.6526 193.231,67.4859 188.5,64.5C 187.5,64.8333 186.833,65.5 186.5,66.5C 188.87,68.6883 189.537,71.1883 188.5,74C 190.57,74.9476 192.07,76.4476 193,78.5C 193.752,81.8936 193.585,85.227 192.5,88.5C 193.628,89.2621 194.795,89.9288 196,90.5C 198.486,86.2516 201.653,85.585 205.5,88.5C 207.941,84.1788 211.107,83.5121 215,86.5C 217.44,82.2644 220.607,81.5977 224.5,84.5C 227.833,80.5 231.167,80.5 234.5,84.5C 238.562,81.4458 241.896,82.1125 244.5,86.5C 249.096,84.3293 251.762,85.6627 252.5,90.5C 258.329,89.9998 260.663,92.6665 259.5,98.5C 265.335,99.333 266.668,102.166 263.5,107C 267.933,109.331 268.6,112.498 265.5,116.5C 268.313,120.114 267.979,123.448 264.5,126.5C 266.015,129.737 265.681,132.737 263.5,135.5C 266.047,136.934 268.381,138.6 270.5,140.5C 268.105,142.944 265.938,145.61 264,148.5C 259.426,159.312 254.593,169.978 249.5,180.5 Z"/></g>
<g><path style="opacity:1" fill="#e1c638" d="M 104.5,108.5 C 109.493,108.997 110.493,111.164 107.5,115C 102.382,114.824 101.382,112.658 104.5,108.5 Z"/></g>
<g><path style="opacity:1" fill="#e6c838" d="M 261.5,108.5 C 266.493,108.997 267.493,111.164 264.5,115C 259.382,114.824 258.382,112.658 261.5,108.5 Z"/></g>
<g><path style="opacity:1" fill="#e6c938" d="M 107.5,99.5 C 111.473,100.075 112.473,102.242 110.5,106C 105.148,106.175 104.148,104.009 107.5,99.5 Z"/></g>
<g><path style="opacity:1" fill="#1a1608" d="M 177.5,87.5 C 179.888,90.0762 182.888,91.0762 186.5,90.5C 185.048,91.3019 183.382,91.8019 181.5,92C 182.094,92.4643 182.761,92.631 183.5,92.5C 181.732,96.2923 182.732,97.6257 186.5,96.5C 187.5,96.5 188.5,96.5 189.5,96.5C 191.621,96.6747 193.621,96.3414 195.5,95.5C 195.5,96.8333 196.167,97.5 197.5,97.5C 196.791,98.404 195.791,98.7373 194.5,98.5C 194.5,99.8333 194.5,101.167 194.5,102.5C 200.962,101.606 207.295,100.106 213.5,98C 247.04,91.5289 258.54,104.362 248,136.5C 249.897,134.984 252.064,134.317 254.5,134.5C 254.742,130.521 255.742,126.854 257.5,123.5C 257.5,124.5 257.5,125.5 257.5,126.5C 259.179,126.715 260.179,126.048 260.5,124.5C 261.5,124.5 262.5,124.5 263.5,124.5C 263.5,125.5 263.5,126.5 263.5,127.5C 258.333,126.492 256.666,128.325 258.5,133C 259.793,133.49 261.127,133.657 262.5,133.5C 262.5,134.833 262.5,136.167 262.5,137.5C 257.461,136.07 252.461,136.236 247.5,138C 243.538,141.123 240.538,144.957 238.5,149.5C 238.982,140.963 235.649,134.463 228.5,130C 226.527,129.505 224.527,129.338 222.5,129.5C 214.926,134.071 208.592,140.071 203.5,147.5C 203.209,139.054 199.209,133.221 191.5,130C 184.424,128.644 177.757,129.644 171.5,133C 168.059,136.811 166.059,141.311 165.5,146.5C 161.009,141.176 156.009,136.343 150.5,132C 142.869,128.56 137.035,130.393 133,137.5C 132.058,141.468 131.225,145.468 130.5,149.5C 126.788,139.812 119.788,135.479 109.5,136.5C 111.5,135.833 113.5,135.167 115.5,134.5C 117.582,134.472 119.416,135.139 121,136.5C 120.338,132.517 119.338,128.517 118,124.5C 114.102,106.573 121.268,97.24 139.5,96.5C 151.306,97.7282 162.973,99.7282 174.5,102.5C 174.5,101.167 174.5,99.8333 174.5,98.5C 165.556,96.515 156.556,94.6816 147.5,93C 142.845,92.5008 138.179,92.3342 133.5,92.5C 134.209,91.596 135.209,91.2627 136.5,91.5C 136.5,90.5 136.5,89.5 136.5,88.5C 138.042,89.3007 139.708,89.634 141.5,89.5C 141.62,90.5862 142.287,91.2528 143.5,91.5C 144.713,91.2528 145.38,90.5862 145.5,89.5C 147.379,90.3414 149.379,90.6747 151.5,90.5C 152.5,93.1667 153.5,93.1667 154.5,90.5C 156.833,93.1667 159.167,93.1667 161.5,90.5C 160.266,94.5661 161.266,95.2328 164.5,92.5C 165.659,94.3769 167.326,94.8769 169.5,94C 170.337,92.9887 170.67,91.8221 170.5,90.5C 171.392,92.3618 171.559,94.3618 171,96.5C 172.461,97.8825 173.294,97.5492 173.5,95.5C 175.67,96.768 177.837,96.768 180,95.5C 180.64,92.6318 179.473,90.9651 176.5,90.5C 177.11,89.609 177.443,88.609 177.5,87.5 Z"/></g>
<g><path style="opacity:1" fill="#e5c638" d="M 188.5,98.5 C 189.833,98.5 191.167,98.5 192.5,98.5C 192.554,109.11 194.221,119.444 197.5,129.5C 193.453,130.612 191.287,128.946 191,124.5C 189.704,115.873 188.871,107.207 188.5,98.5 Z"/></g>
<g><path style="opacity:1" fill="#f4d33b" d="M 182.5,112.5 C 187.159,112.015 188.492,113.848 186.5,118C 181.728,118.81 180.395,116.977 182.5,112.5 Z"/></g>
<g><path style="opacity:1" fill="#ebca39" d="M 176.5,98.5 C 177.833,98.5 179.167,98.5 180.5,98.5C 180.114,108.644 178.781,118.644 176.5,128.5C 174.831,129.89 173.164,130.223 171.5,129.5C 174.694,119.426 176.361,109.093 176.5,98.5 Z"/></g>
<g><path style="opacity:1" fill="#edcf3a" d="M 167.5,109.5 C 168.458,109.953 169.292,110.619 170,111.5C 170.667,117.167 170.667,122.833 170,128.5C 169.333,129.167 168.667,129.833 168,130.5C 167.5,123.508 167.334,116.508 167.5,109.5 Z"/></g>
<g><path style="opacity:1" fill="#e7cb39" d="M 200.5,109.5 C 201.491,116.313 201.825,123.313 201.5,130.5C 200.542,130.047 199.708,129.381 199,128.5C 198.333,122.833 198.333,117.167 199,111.5C 199.717,110.956 200.217,110.289 200.5,109.5 Z"/></g>
<g><path style="opacity:1" fill="#504413" d="M 203.5,107.5 C 203.5,115.5 203.5,123.5 203.5,131.5C 202.833,131.167 202.167,130.833 201.5,130.5C 201.825,123.313 201.491,116.313 200.5,109.5C 201.29,108.599 202.29,107.932 203.5,107.5 Z"/></g>
<g><path style="opacity:1" fill="#71601b" d="M 204.5,106.5 C 204.56,105.957 204.893,105.624 205.5,105.5C 206.498,114.475 206.832,123.475 206.5,132.5C 205.209,132.737 204.209,132.404 203.5,131.5C 204.825,127.724 205.491,123.557 205.5,119C 205.499,114.653 205.166,110.486 204.5,106.5 Z"/></g>
<g><path style="opacity:1" fill="#fde540" d="M 204.5,106.5 C 205.166,110.486 205.499,114.653 205.5,119C 205.491,123.557 204.825,127.724 203.5,131.5C 203.5,123.5 203.5,115.5 203.5,107.5C 203.5,106.833 203.833,106.5 204.5,106.5 Z"/></g>
<g><path style="opacity:1" fill="#e6c939" d="M 182.5,105.5 C 186.138,104.737 187.638,106.07 187,109.5C 182.415,111.413 180.915,110.079 182.5,105.5 Z"/></g>
<g><path style="opacity:1" fill="#fde440" d="M 164.5,106.5 C 165.493,114.65 165.826,122.983 165.5,131.5C 164.175,127.724 163.509,123.557 163.5,119C 163.501,114.653 163.834,110.486 164.5,106.5 Z"/></g>
<g><path style="opacity:1" fill="#77651c" d="M 164.5,106.5 C 163.834,110.486 163.501,114.653 163.5,119C 163.509,123.557 164.175,127.724 165.5,131.5C 164.791,132.404 163.791,132.737 162.5,132.5C 162.168,123.475 162.502,114.475 163.5,105.5C 164.107,105.624 164.44,105.957 164.5,106.5 Z"/></g>
<g><path style="opacity:1" fill="#eecc39" d="M 245.5,103.5 C 246.458,103.953 247.292,104.619 248,105.5C 248.667,113.5 248.667,121.5 248,129.5C 247.529,131.246 246.862,132.913 246,134.5C 245.5,124.172 245.334,113.839 245.5,103.5 Z"/></g>
<g><path style="opacity:1" fill="#efd03b" d="M 208.5,103.5 C 210.472,112.44 211.139,121.773 210.5,131.5C 209.5,131.5 208.5,131.5 207.5,131.5C 207.195,122.083 207.528,112.75 208.5,103.5 Z"/></g>
<g><path style="opacity:1" fill="#eace3a" d="M 158.5,103.5 C 159.496,103.414 160.329,103.748 161,104.5C 161.5,113.494 161.666,122.494 161.5,131.5C 160.5,131.5 159.5,131.5 158.5,131.5C 158.5,122.167 158.5,112.833 158.5,103.5 Z"/></g>
<g><path style="opacity:1" fill="#eecc39" d="M 122.5,103.5 C 123.659,113.658 123.825,123.992 123,134.5C 122.138,132.913 121.471,131.246 121,129.5C 120.333,121.5 120.333,113.5 121,105.5C 121.717,104.956 122.217,104.289 122.5,103.5 Z"/></g>
<g><path style="opacity:1" fill="#efcc39" d="M 211.5,101.5 C 212.5,101.5 213.5,101.5 214.5,101.5C 214.5,111.167 214.5,120.833 214.5,130.5C 213.5,130.5 212.5,130.5 211.5,130.5C 211.5,120.833 211.5,111.167 211.5,101.5 Z"/></g>
<g><path style="opacity:1" fill="#edcf3a" d="M 241.5,100.5 C 242.15,100.804 242.817,101.137 243.5,101.5C 244.499,113.148 244.832,124.814 244.5,136.5C 243.5,136.5 242.5,136.5 241.5,136.5C 241.5,124.5 241.5,112.5 241.5,100.5 Z"/></g>
<g><path style="opacity:1" fill="#eccb39" d="M 154.5,101.5 C 155.5,101.5 156.5,101.5 157.5,101.5C 157.832,111.522 157.499,121.522 156.5,131.5C 155.914,131.291 155.414,130.957 155,130.5C 154.5,120.839 154.334,111.172 154.5,101.5 Z"/></g>
<g><path style="opacity:1" fill="#efce3a" d="M 257.5,100.5 C 262.123,99.4082 263.956,101.075 263,105.5C 258.325,107.334 256.492,105.667 257.5,100.5 Z"/></g>
<g><path style="opacity:1" fill="#6b5a19" d="M 239.5,99.5 C 240.825,111.673 240.825,124.006 239.5,136.5C 238.893,136.376 238.56,136.043 238.5,135.5C 239.495,123.678 239.828,111.678 239.5,99.5 Z"/></g>
<g><path style="opacity:1" fill="#a48b27" d="M 216.5,100.5 C 216.173,110.348 216.506,120.014 217.5,129.5C 217.44,130.043 217.107,130.376 216.5,130.5C 215.177,120.341 215.177,110.341 216.5,100.5 Z"/></g>
<g><path style="opacity:1" fill="#edcf3a" d="M 150.5,99.5 C 151.496,99.4142 152.329,99.7476 153,100.5C 153.5,110.161 153.666,119.828 153.5,129.5C 152.5,129.5 151.5,129.5 150.5,129.5C 150.5,119.5 150.5,109.5 150.5,99.5 Z"/></g>
<g><path style="opacity:1" fill="#514513" d="M 129.5,99.5 C 129.172,111.678 129.505,123.678 130.5,135.5C 129.791,136.404 128.791,136.737 127.5,136.5C 127.5,124.5 127.5,112.5 127.5,100.5C 128.167,100.167 128.833,99.8333 129.5,99.5 Z"/></g>
<g><path style="opacity:1" fill="#e8cc39" d="M 127.5,100.5 C 127.5,112.5 127.5,124.5 127.5,136.5C 126.5,136.5 125.5,136.5 124.5,136.5C 124.168,124.814 124.501,113.148 125.5,101.5C 126.183,101.137 126.85,100.804 127.5,100.5 Z"/></g>
<g><path style="opacity:1" fill="#fde440" d="M 238.5,99.5 C 238.833,99.5 239.167,99.5 239.5,99.5C 239.828,111.678 239.495,123.678 238.5,135.5C 237.833,135.5 237.5,135.167 237.5,134.5C 237.172,122.655 237.505,110.988 238.5,99.5 Z"/></g>
<g><path style="opacity:1" fill="#4f4313" d="M 235.5,98.5 C 236.791,98.2627 237.791,98.596 238.5,99.5C 237.505,110.988 237.172,122.655 237.5,134.5C 236.29,134.068 235.29,133.401 234.5,132.5C 235.495,121.346 235.828,110.012 235.5,98.5 Z"/></g>
<g><path style="opacity:1" fill="#eacd3a" d="M 235.5,98.5 C 235.828,110.012 235.495,121.346 234.5,132.5C 232.556,121.42 231.889,110.087 232.5,98.5C 233.5,98.5 234.5,98.5 235.5,98.5 Z"/></g>
<g><path style="opacity:1" fill="#fee540" d="M 220.5,98.5 C 222.474,108.111 223.141,118.111 222.5,128.5C 220.526,118.889 219.859,108.889 220.5,98.5 Z"/></g>
<g><path style="opacity:1" fill="#fce03f" d="M 218.5,99.5 C 218.5,109.5 218.5,119.5 218.5,129.5C 218.167,129.5 217.833,129.5 217.5,129.5C 216.506,120.014 216.173,110.348 216.5,100.5C 216.842,99.6618 217.508,99.3284 218.5,99.5 Z"/></g>
<g><path style="opacity:1" fill="#f1d33c" d="M 183.5,98.5 C 186.084,99.0483 187.084,100.715 186.5,103.5C 185.167,103.5 183.833,103.5 182.5,103.5C 182.366,101.708 182.699,100.042 183.5,98.5 Z"/></g>
<g><path style="opacity:1" fill="#fde440" d="M 146.5,98.5 C 147.828,103.119 148.494,108.119 148.5,113.5C 148.494,118.881 147.828,123.881 146.5,128.5C 146.5,118.5 146.5,108.5 146.5,98.5 Z"/></g>
<g><path style="opacity:1" fill="#efce3a" d="M 133.5,98.5 C 134.5,98.5 135.5,98.5 136.5,98.5C 136.832,109.52 136.499,120.52 135.5,131.5C 134.914,131.709 134.414,132.043 134,132.5C 133.5,121.172 133.333,109.838 133.5,98.5 Z"/></g>
<g><path style="opacity:1" fill="#73611b" d="M 130.5,99.5 C 130.56,98.9569 130.893,98.6236 131.5,98.5C 132.825,110.66 132.825,122.66 131.5,134.5C 131.828,122.655 131.495,110.988 130.5,99.5 Z"/></g>
<g><path style="opacity:1" fill="#fde540" d="M 129.5,99.5 C 129.833,99.5 130.167,99.5 130.5,99.5C 131.495,110.988 131.828,122.655 131.5,134.5C 131.5,135.167 131.167,135.5 130.5,135.5C 129.505,123.678 129.172,111.678 129.5,99.5 Z"/></g>
<g><path style="opacity:1" fill="#f4d33b" d="M 228.5,98.5 C 229.5,98.5 230.5,98.5 231.5,98.5C 231.832,108.855 231.499,119.188 230.5,129.5C 229.914,129.291 229.414,128.957 229,128.5C 228.5,118.506 228.334,108.506 228.5,98.5 Z"/></g>
<g><path style="opacity:1" fill="#bc9f2c" d="M 226.5,98.5 C 227.494,108.319 227.827,118.319 227.5,128.5C 226.209,128.737 225.209,128.404 224.5,127.5C 226.473,118.225 227.14,108.558 226.5,98.5 Z"/></g>
<g><path style="opacity:1" fill="#ffe13f" d="M 226.5,98.5 C 227.14,108.558 226.473,118.225 224.5,127.5C 223.86,117.442 224.527,107.775 226.5,98.5 Z"/></g>
<g><path style="opacity:1" fill="#4f4313" d="M 220.5,98.5 C 219.859,108.889 220.526,118.889 222.5,128.5C 222.5,128.833 222.5,129.167 222.5,129.5C 221.167,129.5 219.833,129.5 218.5,129.5C 218.5,119.5 218.5,109.5 218.5,99.5C 219.167,99.1667 219.833,98.8333 220.5,98.5 Z"/></g>
<g><path style="opacity:1" fill="#534714" d="M 144.5,98.5 C 145.167,98.5 145.833,98.5 146.5,98.5C 146.5,108.5 146.5,118.5 146.5,128.5C 145.833,128.5 145.167,128.5 144.5,128.5C 144.5,128.167 144.5,127.833 144.5,127.5C 144.5,117.833 144.5,108.167 144.5,98.5 Z"/></g>
<g><path style="opacity:1" fill="#ffe240" d="M 142.5,98.5 C 143.167,98.5 143.833,98.5 144.5,98.5C 144.5,108.167 144.5,117.833 144.5,127.5C 142.527,118.225 141.86,108.558 142.5,98.5 Z"/></g>
<g><path style="opacity:1" fill="#a68d28" d="M 142.5,98.5 C 141.86,108.558 142.527,118.225 144.5,127.5C 144.5,127.833 144.5,128.167 144.5,128.5C 143.5,128.5 142.5,128.5 141.5,128.5C 141.173,118.319 141.506,108.319 142.5,98.5 Z"/></g>
<g><path style="opacity:1" fill="#f7d53c" d="M 137.5,98.5 C 138.5,98.5 139.5,98.5 140.5,98.5C 140.666,108.506 140.5,118.506 140,128.5C 139.586,128.957 139.086,129.291 138.5,129.5C 137.501,119.188 137.168,108.855 137.5,98.5 Z"/></g>
<g><path style="opacity:1" fill="#e6c838" d="M 253.5,92.5 C 258.159,92.0146 259.492,93.848 257.5,98C 251.546,99.2271 250.212,97.3938 253.5,92.5 Z"/></g>
<g><path style="opacity:1" fill="#eace3a" d="M 183.5,92.5 C 185.912,92.6941 186.912,94.0274 186.5,96.5C 182.732,97.6257 181.732,96.2923 183.5,92.5 Z"/></g>
<g><path style="opacity:1" fill="#edcd3a" d="M 257.5,123.5 C 255.742,126.854 254.742,130.521 254.5,134.5C 252.064,134.317 249.897,134.984 248,136.5C 258.54,104.362 247.04,91.5289 213.5,98C 207.295,100.106 200.962,101.606 194.5,102.5C 194.5,101.167 194.5,99.8333 194.5,98.5C 195.791,98.7373 196.791,98.404 197.5,97.5C 208.182,94.9142 219.015,93.2476 230,92.5C 249.746,93.2753 258.912,103.609 257.5,123.5 Z"/></g>
<g><path style="opacity:1" fill="#e6c939" d="M 195.5,95.5 C 193.621,96.3414 191.621,96.6747 189.5,96.5C 188.588,95.2618 188.421,93.9285 189,92.5C 193.194,89.2527 195.36,90.2527 195.5,95.5 Z"/></g>
<g><path style="opacity:1" fill="#eccc39" d="M 133.5,92.5 C 138.179,92.3342 142.845,92.5008 147.5,93C 156.556,94.6816 165.556,96.515 174.5,98.5C 174.5,99.8333 174.5,101.167 174.5,102.5C 162.973,99.7282 151.306,97.7282 139.5,96.5C 121.268,97.24 114.102,106.573 118,124.5C 119.338,128.517 120.338,132.517 121,136.5C 119.416,135.139 117.582,134.472 115.5,134.5C 113.663,130.467 112.496,126.133 112,121.5C 110.439,105.267 117.606,95.6001 133.5,92.5 Z"/></g>
<g><path style="opacity:1" fill="#ebcc39" d="M 111.5,92.5 C 115.509,92.0136 117.342,93.6803 117,97.5C 111.42,99.7516 109.587,98.0849 111.5,92.5 Z"/></g>
<g><path style="opacity:1" fill="#e5c838" d="M 246.5,86.5 C 250.473,87.0755 251.473,89.2421 249.5,93C 244.148,93.1754 243.148,91.0087 246.5,86.5 Z"/></g>
<g><path style="opacity:1" fill="#e9cb39" d="M 176.5,90.5 C 179.473,90.9651 180.64,92.6318 180,95.5C 177.837,96.768 175.67,96.768 173.5,95.5C 172.916,92.715 173.916,91.0483 176.5,90.5 Z"/></g>
<g><path style="opacity:1" fill="#e8cb39" d="M 161.5,90.5 C 159.167,93.1667 156.833,93.1667 154.5,90.5C 154.351,89.448 154.517,88.448 155,87.5C 158.836,84.5072 161.003,85.5072 161.5,90.5 Z"/></g>
<g><path style="opacity:1" fill="#edcf3a" d="M 209.5,85.5 C 213.473,86.0755 214.473,88.2421 212.5,92C 207.382,91.8242 206.382,89.6576 209.5,85.5 Z"/></g>
<g><path style="opacity:1" fill="#f5d43b" d="M 199.5,88.5 C 204.159,88.0146 205.492,89.848 203.5,94C 198.728,94.8104 197.395,92.9771 199.5,88.5 Z"/></g>
<g><path style="opacity:1" fill="#f4d33b" d="M 170.5,90.5 C 170.67,91.8221 170.337,92.9887 169.5,94C 167.326,94.8769 165.659,94.3769 164.5,92.5C 164.33,91.1779 164.663,90.0113 165.5,89C 167.674,88.1231 169.341,88.6231 170.5,90.5 Z"/></g>
<g><path style="opacity:1" fill="#e3c738" d="M 237.5,83.5 C 242.493,83.997 243.493,86.1637 240.5,90C 235.382,89.8242 234.382,87.6576 237.5,83.5 Z"/></g>
<g><path style="opacity:1" fill="#edcd3a" d="M 118.5,87.5 C 123.123,86.4082 124.956,88.0748 124,92.5C 119.325,94.334 117.492,92.6673 118.5,87.5 Z"/></g>
<g><path style="opacity:1" fill="#f5d43c" d="M 179.5,85.5 C 182.833,85.5 186.167,85.5 189.5,85.5C 191.028,85.5173 191.528,86.184 191,87.5C 189.729,88.8825 188.229,89.8825 186.5,90.5C 182.888,91.0762 179.888,90.0762 177.5,87.5C 177.5,86.1667 178.167,85.5 179.5,85.5 Z"/></g>
<g><path style="opacity:1" fill="#e0c537" d="M 128.5,83.5 C 133.493,83.997 134.493,86.1637 131.5,90C 126.382,89.8242 125.382,87.6576 128.5,83.5 Z"/></g>
<g><path style="opacity:1" fill="#efcf3a" d="M 151.5,90.5 C 149.379,90.6747 147.379,90.3414 145.5,89.5C 145.343,88.1266 145.51,86.7932 146,85.5C 150.675,83.666 152.508,85.3327 151.5,90.5 Z"/></g>
<g><path style="opacity:1" fill="#efce3a" d="M 218.5,84.5 C 223.159,84.0146 224.492,85.848 222.5,90C 217.221,90.5848 215.888,88.7514 218.5,84.5 Z"/></g>
<g><path style="opacity:1" fill="#635418" d="M 176.5,83.5 C 181.833,83.5 187.167,83.5 192.5,83.5C 191.5,84.1667 190.5,84.8333 189.5,85.5C 186.167,85.5 182.833,85.5 179.5,85.5C 178.5,84.8333 177.5,84.1667 176.5,83.5 Z"/></g>
<g><path style="opacity:1" fill="#f3d23b" d="M 227.5,83.5 C 232.159,83.0146 233.492,84.848 231.5,89C 226.728,89.8104 225.395,87.9771 227.5,83.5 Z"/></g>
<g><path style="opacity:1" fill="#f5d43c" d="M 141.5,89.5 C 139.708,89.634 138.042,89.3007 136.5,88.5C 136.343,87.1266 136.51,85.7932 137,84.5C 142.094,82.7627 143.594,84.4294 141.5,89.5 Z"/></g>
<g><path style="opacity:1" fill="#d9bd35" d="M 192.5,83.5 C 187.167,83.5 181.833,83.5 176.5,83.5C 176.5,82.5 176.5,81.5 176.5,80.5C 178.5,80.5 180.5,80.5 182.5,80.5C 182.5,78.8333 182.5,77.1667 182.5,75.5C 183.833,75.5 185.167,75.5 186.5,75.5C 186.5,77.1667 186.5,78.8333 186.5,80.5C 188.199,80.3398 189.866,80.5065 191.5,81C 192.252,81.6708 192.586,82.5041 192.5,83.5 Z"/></g>
<g><path style="opacity:1" fill="#edd03a" d="M 187.5,75.5 C 192.195,78.0251 192.195,79.3585 187.5,79.5C 187.5,78.1667 187.5,76.8333 187.5,75.5 Z"/></g>
<g><path style="opacity:1" fill="#efd43b" d="M 180.5,75.5 C 181.434,76.5676 181.768,77.901 181.5,79.5C 180.127,79.6567 178.793,79.49 177.5,79C 178.71,77.9609 179.71,76.7942 180.5,75.5 Z"/></g>
<g><path style="opacity:1" fill="#e8c938" d="M 183.5,66.5 C 186.083,67.985 187.416,70.3183 187.5,73.5C 185.5,73.5 183.5,73.5 181.5,73.5C 181.878,71.079 182.545,68.7457 183.5,66.5 Z"/></g>
<g><path style="opacity:1" fill="#eccf3a" d="M 183.5,59.5 C 186.084,60.0483 187.084,61.715 186.5,64.5C 185.167,64.5 183.833,64.5 182.5,64.5C 182.366,62.7085 182.699,61.0418 183.5,59.5 Z"/></g>
<g><path style="opacity:1" fill="#ebcd3a" d="M 175.5,58.5 C 181.762,60.5608 181.929,62.8941 176,65.5C 174.229,64.6959 172.729,63.5292 171.5,62C 172.731,60.5952 174.064,59.4286 175.5,58.5 Z"/></g>
<g><path style="opacity:1" fill="#eacd3a" d="M 192.5,58.5 C 198.762,60.5608 198.929,62.8941 193,65.5C 191.229,64.6959 189.729,63.5292 188.5,62C 189.731,60.5952 191.064,59.4286 192.5,58.5 Z"/></g>
<g><path style="opacity:1" fill="#f0cf3a" d="M 183.5,46.5 C 188.297,49.6163 188.631,53.283 184.5,57.5C 183.112,55.891 182.112,54.0577 181.5,52C 182.32,50.1997 182.986,48.3664 183.5,46.5 Z"/></g>
<g><path style="opacity:1" fill="#f3d23b" d="M 104.5,118.5 C 109.159,118.015 110.492,119.848 108.5,124C 103.728,124.81 102.395,122.977 104.5,118.5 Z"/></g>
<g><path style="opacity:1" fill="#f6d53c" d="M 263.5,124.5 C 262.5,124.5 261.5,124.5 260.5,124.5C 258.406,119.429 259.906,117.763 265,119.5C 265.877,121.674 265.377,123.341 263.5,124.5 Z"/></g>
<g><path style="opacity:1" fill="#eccc3a" d="M 182.5,120.5 C 188.016,120.473 189.349,122.64 186.5,127C 180.738,127.418 179.404,125.251 182.5,120.5 Z"/></g>
<g><path style="opacity:1" fill="#e1c237" d="M 263.5,127.5 C 265.062,129.901 264.729,131.901 262.5,133.5C 261.127,133.657 259.793,133.49 258.5,133C 256.666,128.325 258.333,126.492 263.5,127.5 Z"/></g>
<g><path style="opacity:1" fill="#dfc136" d="M 105.5,127.5 C 110.123,126.408 111.956,128.075 111,132.5C 105.42,134.752 103.587,133.085 105.5,127.5 Z"/></g>
<g><path style="opacity:1" fill="#f5d13b" d="M 222.5,129.5 C 224.527,129.338 226.527,129.505 228.5,130C 235.649,134.463 238.982,140.963 238.5,149.5C 240.538,144.957 243.538,141.123 247.5,138C 252.461,136.236 257.461,136.07 262.5,137.5C 264.645,137.738 266.312,138.738 267.5,140.5C 260.259,153.565 253.592,166.899 247.5,180.5C 245.583,179.884 244.416,178.55 244,176.5C 242.582,179.001 241.582,178.668 241,175.5C 240.612,176.428 239.945,177.095 239,177.5C 237.323,176.509 235.657,175.509 234,174.5C 233.29,175.973 232.124,176.64 230.5,176.5C 230.719,175.325 230.386,174.325 229.5,173.5C 228.476,174.853 227.143,175.52 225.5,175.5C 225.631,174.761 225.464,174.094 225,173.5C 224.29,174.973 223.124,175.64 221.5,175.5C 220.996,171.665 219.996,171.665 218.5,175.5C 217.004,171.665 216.004,171.665 215.5,175.5C 214.5,175.5 213.5,175.5 212.5,175.5C 212.671,172.203 212.005,171.869 210.5,174.5C 209.004,170.665 208.004,170.665 207.5,174.5C 206.5,174.5 205.5,174.5 204.5,174.5C 204.167,170.5 203.833,170.5 203.5,174.5C 202.5,174.5 201.5,174.5 200.5,174.5C 200.167,170.5 199.833,170.5 199.5,174.5C 198.5,174.5 197.5,174.5 196.5,174.5C 196.167,170.5 195.833,170.5 195.5,174.5C 194.167,174.5 192.833,174.5 191.5,174.5C 191.167,170.5 190.833,170.5 190.5,174.5C 188.833,174.5 187.167,174.5 185.5,174.5C 184.833,169.167 184.167,169.167 183.5,174.5C 181.833,174.5 180.167,174.5 178.5,174.5C 178.167,169.167 177.833,169.167 177.5,174.5C 176.167,174.5 174.833,174.5 173.5,174.5C 173.167,170.5 172.833,170.5 172.5,174.5C 171.5,174.5 170.5,174.5 169.5,174.5C 169.167,170.5 168.833,170.5 168.5,174.5C 167.5,174.5 166.5,174.5 165.5,174.5C 165.167,170.5 164.833,170.5 164.5,174.5C 163.5,174.5 162.5,174.5 161.5,174.5C 160.996,170.665 159.996,170.665 158.5,174.5C 156.995,171.869 156.329,172.203 156.5,175.5C 155.5,175.5 154.5,175.5 153.5,175.5C 152.996,171.665 151.996,171.665 150.5,175.5C 149.004,171.665 148.004,171.665 147.5,175.5C 145.876,175.64 144.71,174.973 144,173.5C 143.536,174.094 143.369,174.761 143.5,175.5C 141.857,175.52 140.524,174.853 139.5,173.5C 138.614,174.325 138.281,175.325 138.5,176.5C 136.876,176.64 135.71,175.973 135,174.5C 133.471,175.583 131.971,176.583 130.5,177.5C 129.522,177.023 128.689,176.357 128,175.5C 127.418,178.668 126.418,179.001 125,176.5C 124.585,178.291 123.585,179.624 122,180.5C 117.276,172.385 113.109,164.051 109.5,155.5C 107.622,150.078 104.956,145.078 101.5,140.5C 103.607,138.113 106.273,136.78 109.5,136.5C 119.788,135.479 126.788,139.812 130.5,149.5C 131.225,145.468 132.058,141.468 133,137.5C 137.035,130.393 142.869,128.56 150.5,132C 156.009,136.343 161.009,141.176 165.5,146.5C 166.059,141.311 168.059,136.811 171.5,133C 177.757,129.644 184.424,128.644 191.5,130C 199.209,133.221 203.209,139.054 203.5,147.5C 208.592,140.071 214.926,134.071 222.5,129.5 Z"/></g>
<g><path style="opacity:1" fill="#493e15" d="M 227.5,136.5 C 228.776,137.386 228.776,138.386 227.5,139.5C 226.913,138.767 226.913,137.767 227.5,136.5 Z"/></g>
<g><path style="opacity:1" fill="#322b0f" d="M 213.5,137.5 C 214.043,137.56 214.376,137.893 214.5,138.5C 213.902,139.795 213.402,141.128 213,142.5C 212.36,140.735 212.527,139.068 213.5,137.5 Z"/></g>
<g><path style="opacity:1" fill="#3d3411" d="M 154.5,137.5 C 156.377,138.659 156.877,140.326 156,142.5C 154.991,140.975 154.491,139.308 154.5,137.5 Z"/></g>
<g><path style="opacity:1" fill="#493e16" d="M 140.5,136.5 C 141.267,137.172 141.934,138.005 142.5,139C 140.939,139.188 140.272,138.355 140.5,136.5 Z"/></g>
<g><path style="opacity:1" fill="#2f280f" d="M 217.5,135.5 C 218.621,137.089 218.454,138.756 217,140.5C 216.36,138.735 216.527,137.068 217.5,135.5 Z"/></g>
<g><path style="opacity:1" fill="#544716" d="M 191.5,134.5 C 192.586,134.62 193.253,135.287 193.5,136.5C 193.167,137.167 192.833,137.833 192.5,138.5C 191.571,137.311 191.238,135.978 191.5,134.5 Z"/></g>
<g><path style="opacity:1" fill="#574a17" d="M 175.5,134.5 C 176.586,134.62 177.253,135.287 177.5,136.5C 177.167,137.167 176.833,137.833 176.5,138.5C 175.571,137.311 175.238,135.978 175.5,134.5 Z"/></g>
<g><path style="opacity:1" fill="#2d260f" d="M 150.5,135.5 C 152.377,136.659 152.877,138.326 152,140.5C 150.991,138.975 150.491,137.308 150.5,135.5 Z"/></g>
<g><path style="opacity:1" fill="#372f12" d="M 224.5,134.5 C 226.62,135.85 226.453,137.517 224,139.5C 224.019,137.893 224.185,136.226 224.5,134.5 Z"/></g>
<g><path style="opacity:1" fill="#352d11" d="M 221.5,134.5 C 222.797,135.849 222.63,137.182 221,138.5C 220.421,137.072 220.588,135.738 221.5,134.5 Z"/></g>
<g><path style="opacity:1" fill="#332c11" d="M 146.5,134.5 C 148.273,135.314 148.773,136.648 148,138.5C 146.812,137.437 146.312,136.103 146.5,134.5 Z"/></g>
<g><path style="opacity:1" fill="#31290e" d="M 142.5,134.5 C 144.609,135.052 145.442,136.386 145,138.5C 143.519,137.529 142.685,136.196 142.5,134.5 Z"/></g>
<g><path style="opacity:1" fill="#221e0c" d="M 171.5,138.5 C 173.344,139.204 173.844,140.537 173,142.5C 172.209,141.255 171.709,139.922 171.5,138.5 Z"/></g>
<g><path style="opacity:1" fill="#141104" d="M 195.5,138.5 C 196.239,138.369 196.906,138.536 197.5,139C 196.118,143.705 195.451,143.539 195.5,138.5 Z"/></g>
<g><path style="opacity:1" fill="#27210d" d="M 137.5,138.5 C 139.273,139.314 139.773,140.648 139,142.5C 138.209,141.255 137.709,139.922 137.5,138.5 Z"/></g>
<g><path style="opacity:1" fill="#352d11" d="M 230.5,138.5 C 231.797,139.849 231.63,141.182 230,142.5C 229.421,141.072 229.588,139.738 230.5,138.5 Z"/></g>
<g><path style="opacity:1" fill="#221c0b" d="M 110.5,142.5 C 112.496,141.312 113.329,141.979 113,144.5C 112.292,143.619 111.458,142.953 110.5,142.5 Z"/></g>
<g><path style="opacity:1" fill="#141005" d="M 183.5,139.5 C 185.024,141.408 186.357,143.575 187.5,146C 189.256,146.14 190.922,145.64 192.5,144.5C 192.833,144.833 193.167,145.167 193.5,145.5C 188.036,151.43 185.036,158.43 184.5,166.5C 183.964,158.43 180.964,151.43 175.5,145.5C 175.833,145.167 176.167,144.833 176.5,144.5C 181.674,147.356 184.007,145.689 183.5,139.5 Z"/></g>
<g><path style="opacity:1" fill="#26200d" d="M 257.5,140.5 C 258.559,142.07 258.059,143.403 256,144.5C 255.7,142.934 256.2,141.601 257.5,140.5 Z"/></g>
<g><path style="opacity:1" fill="#2b250c" d="M 107.5,143.5 C 109.496,142.312 110.329,142.979 110,145.5C 109.292,144.619 108.458,143.953 107.5,143.5 Z"/></g>
<g><path style="opacity:1" fill="#352d11" d="M 114.5,141.5 C 116.908,142.315 117.741,143.981 117,146.5C 115.906,144.922 115.072,143.255 114.5,141.5 Z"/></g>
<g><path style="opacity:1" fill="#3f3512" d="M 197.5,142.5 C 198.376,142.369 199.043,142.702 199.5,143.5C 197.993,147.355 197.326,147.021 197.5,142.5 Z"/></g>
<g><path style="opacity:1" fill="#332c11" d="M 252.5,141.5 C 253.376,141.369 254.043,141.702 254.5,142.5C 251.708,147.835 251.042,147.502 252.5,141.5 Z"/></g>
<g><path style="opacity:1" fill="#28220c" d="M 259.5,142.5 C 261.657,143.053 261.49,144.053 259,145.5C 258.53,144.423 258.697,143.423 259.5,142.5 Z"/></g>
<g><path style="opacity:1" fill="#3e3512" d="M 119.5,143.5 C 121.344,144.204 121.844,145.537 121,147.5C 120.209,146.255 119.709,144.922 119.5,143.5 Z"/></g>
<g><path style="opacity:1" fill="#473c12" d="M 135.5,142.5 C 137.446,143.254 138.279,144.588 138,146.5C 136.519,145.529 135.685,144.196 135.5,142.5 Z"/></g>
<g><path style="opacity:1" fill="#2d2610" d="M 169.5,142.5 C 171.344,143.204 171.844,144.537 171,146.5C 170.209,145.255 169.709,143.922 169.5,142.5 Z"/></g>
<g><path style="opacity:1" fill="#423811" d="M 232.5,142.5 C 233.559,144.07 233.059,145.403 231,146.5C 230.7,144.934 231.2,143.601 232.5,142.5 Z"/></g>
<g><path style="opacity:1" fill="#71601e" d="M 244.5,144.5 C 246.97,145.36 247.137,146.694 245,148.5C 244.51,147.207 244.343,145.873 244.5,144.5 Z"/></g>
<g><path style="opacity:1" fill="#4c4015" d="M 247.5,143.5 C 249.97,144.36 250.137,145.694 248,147.5C 247.51,146.207 247.343,144.873 247.5,143.5 Z"/></g>
<g><path style="opacity:1" fill="#1a1608" d="M 144.5,142.5 C 145.077,141.227 145.743,141.227 146.5,142.5C 147.373,144.413 148.373,146.247 149.5,148C 150.996,148.507 152.163,148.007 153,146.5C 153.167,146.833 153.333,147.167 153.5,147.5C 152.078,149.787 151.411,152.287 151.5,155C 152.073,158.176 152.24,161.343 152,164.5C 149.827,158.506 146.327,153.506 141.5,149.5C 141.667,149.167 141.833,148.833 142,148.5C 144.197,150.949 145.697,150.783 146.5,148C 146.299,145.889 145.633,144.055 144.5,142.5 Z"/></g>
<g><path style="opacity:1" fill="#181307" d="M 222.5,141.5 C 223.239,141.369 223.906,141.536 224.5,142C 223.009,144.621 222.342,147.455 222.5,150.5C 224.39,150.703 225.89,150.037 227,148.5C 227.167,148.833 227.333,149.167 227.5,149.5C 222.673,153.506 219.173,158.506 217,164.5C 216.895,161.527 217.062,158.527 217.5,155.5C 217.614,152.622 216.948,149.956 215.5,147.5C 215.667,147.167 215.833,146.833 216,146.5C 216.837,148.007 218.004,148.507 219.5,148C 221.219,146.13 222.219,143.963 222.5,141.5 Z"/></g>
<g><path style="opacity:1" fill="#231d09" d="M 233.5,146.5 C 235.657,147.053 235.49,148.053 233,149.5C 232.53,148.423 232.697,147.423 233.5,146.5 Z"/></g>
<g><path style="opacity:1" fill="#1f1a07" d="M 134.5,146.5 C 136.085,147.002 136.585,148.002 136,149.5C 134.961,148.756 134.461,147.756 134.5,146.5 Z"/></g>
<g><path style="opacity:1" fill="#1d1809" d="M 116.5,150.5 C 116.897,149.475 117.563,149.308 118.5,150C 120.48,152.503 122.813,154.336 125.5,155.5C 125.281,154.325 125.614,153.325 126.5,152.5C 126.833,152.833 127.167,153.167 127.5,153.5C 126.905,155.44 126.572,157.44 126.5,159.5C 126.731,162.973 127.231,166.306 128,169.5C 124.167,164.333 119.667,159.833 114.5,156C 116.107,156.019 117.774,156.185 119.5,156.5C 119.539,153.911 118.539,151.911 116.5,150.5 Z"/></g>
<g><path style="opacity:1" fill="#1d1809" d="M 250.5,149.5 C 251.239,149.369 251.906,149.536 252.5,150C 250.549,151.734 249.549,153.901 249.5,156.5C 251.226,156.185 252.893,156.019 254.5,156C 249.333,159.833 244.833,164.333 241,169.5C 241.889,166.685 242.389,163.685 242.5,160.5C 242.396,158.291 242.063,156.124 241.5,154C 241.833,153.5 242.167,153 242.5,152.5C 243.386,153.325 243.719,154.325 243.5,155.5C 246.387,154.29 248.72,152.29 250.5,149.5 Z"/></g>
<g><path style="opacity:1" fill="#504313" d="M 185.5,174.5 C 184.833,174.5 184.167,174.5 183.5,174.5C 184.167,169.167 184.833,169.167 185.5,174.5 Z"/></g>
<g><path style="opacity:1" fill="#050402" d="M 109.5,155.5 C 113.109,164.051 117.276,172.385 122,180.5C 123.585,179.624 124.585,178.291 125,176.5C 126.418,179.001 127.418,178.668 128,175.5C 128.689,176.357 129.522,177.023 130.5,177.5C 131.971,176.583 133.471,175.583 135,174.5C 135.71,175.973 136.876,176.64 138.5,176.5C 140.415,176.784 142.081,176.451 143.5,175.5C 143.369,174.761 143.536,174.094 144,173.5C 144.71,174.973 145.876,175.64 147.5,175.5C 148.004,171.665 149.004,171.665 150.5,175.5C 151.996,171.665 152.996,171.665 153.5,175.5C 154.5,175.5 155.5,175.5 156.5,175.5C 156.329,172.203 156.995,171.869 158.5,174.5C 159.996,170.665 160.996,170.665 161.5,174.5C 162.5,174.5 163.5,174.5 164.5,174.5C 164.833,170.5 165.167,170.5 165.5,174.5C 166.5,174.5 167.5,174.5 168.5,174.5C 168.833,170.5 169.167,170.5 169.5,174.5C 170.5,174.5 171.5,174.5 172.5,174.5C 172.833,170.5 173.167,170.5 173.5,174.5C 174.833,174.5 176.167,174.5 177.5,174.5C 177.833,169.167 178.167,169.167 178.5,174.5C 180.167,174.5 181.833,174.5 183.5,174.5C 184.167,174.5 184.833,174.5 185.5,174.5C 187.167,174.5 188.833,174.5 190.5,174.5C 190.833,170.5 191.167,170.5 191.5,174.5C 192.833,174.5 194.167,174.5 195.5,174.5C 195.833,170.5 196.167,170.5 196.5,174.5C 197.5,174.5 198.5,174.5 199.5,174.5C 199.833,170.5 200.167,170.5 200.5,174.5C 201.5,174.5 202.5,174.5 203.5,174.5C 203.833,170.5 204.167,170.5 204.5,174.5C 205.5,174.5 206.5,174.5 207.5,174.5C 208.004,170.665 209.004,170.665 210.5,174.5C 212.005,171.869 212.671,172.203 212.5,175.5C 213.5,175.5 214.5,175.5 215.5,175.5C 216.004,171.665 217.004,171.665 218.5,175.5C 219.996,171.665 220.996,171.665 221.5,175.5C 223.124,175.64 224.29,174.973 225,173.5C 225.464,174.094 225.631,174.761 225.5,175.5C 226.919,176.451 228.585,176.784 230.5,176.5C 232.124,176.64 233.29,175.973 234,174.5C 235.657,175.509 237.323,176.509 239,177.5C 239.945,177.095 240.612,176.428 241,175.5C 241.582,178.668 242.582,179.001 244,176.5C 244.416,178.55 245.583,179.884 247.5,180.5C 248.167,180.5 248.833,180.5 249.5,180.5C 247.053,183.899 243.72,186.065 239.5,187C 205.955,193.418 172.288,194.085 138.5,189C 131.311,188.816 125.144,186.316 120,181.5C 115.418,173.578 111.918,165.245 109.5,156.5C 109.5,156.167 109.5,155.833 109.5,155.5 Z"/></g>
<g><path style="opacity:1" fill="#544815" d="M 143.5,175.5 C 142.081,176.451 140.415,176.784 138.5,176.5C 138.281,175.325 138.614,174.325 139.5,173.5C 140.524,174.853 141.857,175.52 143.5,175.5 Z"/></g>
<g><path style="opacity:1" fill="#524614" d="M 230.5,176.5 C 228.585,176.784 226.919,176.451 225.5,175.5C 227.143,175.52 228.476,174.853 229.5,173.5C 230.386,174.325 230.719,175.325 230.5,176.5 Z"/></g>
<g><path style="opacity:0.995" fill="#cd1126" d="M -0.5,249.5 C 166.167,249.5 332.833,249.5 499.5,249.5C 499.5,257.833 499.5,266.167 499.5,274.5C 487.764,361.841 443.764,427.341 367.5,471C 338.093,486.083 307.093,495.583 274.5,499.5C 257.833,499.5 241.167,499.5 224.5,499.5C 132.596,487.072 65.4294,439.739 23,357.5C 10.7506,330.604 2.91724,302.604 -0.5,273.5C -0.5,265.5 -0.5,257.5 -0.5,249.5 Z"/></g>
</svg>
