<?xml version="1.0" encoding="UTF-8"?>
<!DOCTYPE svg PUBLIC "-//W3C//DTD SVG 1.1//EN" "http://www.w3.org/Graphics/SVG/1.1/DTD/svg11.dtd">
<svg xmlns="http://www.w3.org/2000/svg" version="1.1" width="500px" height="500px" style="shape-rendering:geometricPrecision; text-rendering:geometricPrecision; image-rendering:optimizeQuality; fill-rule:evenodd; clip-rule:evenodd" xmlns:xlink="http://www.w3.org/1999/xlink">
<g><path style="opacity:0.994" fill="#01785e" d="M 225.5,-0.5 C 241.5,-0.5 257.5,-0.5 273.5,-0.5C 362.269,10.9489 428.436,55.6156 472,133.5C 486.559,162.333 495.726,192.666 499.5,224.5C 499.5,241.167 499.5,257.833 499.5,274.5C 487.763,362.843 443.097,428.676 365.5,472C 336.667,486.559 306.334,495.726 274.5,499.5C 257.833,499.5 241.167,499.5 224.5,499.5C 132.595,487.071 65.4284,439.737 23,357.5C 10.7506,330.604 2.91724,302.604 -0.5,273.5C -0.5,257.5 -0.5,241.5 -0.5,225.5C 12.3703,130.238 62.0369,61.7383 148.5,20C 173.332,9.544 198.998,2.71067 225.5,-0.5 Z"/></g>
<g><path style="opacity:1" fill="#f4cf19" d="M 248.5,94.5 C 251.105,100.131 253.438,105.964 255.5,112C 261.833,112.333 268.167,112.667 274.5,113C 269.192,116.645 264.192,120.645 259.5,125C 261.012,130.38 262.678,135.713 264.5,141C 264.167,141.5 263.833,142 263.5,142.5C 258.737,139.037 253.903,135.704 249,132.5C 243.764,135.233 238.931,138.566 234.5,142.5C 234.76,136.61 236.093,130.777 238.5,125C 233.808,120.645 228.808,116.645 223.5,113C 229.833,112.667 236.167,112.333 242.5,112C 244.402,106.129 246.402,100.295 248.5,94.5 Z"/></g>
<g><path style="opacity:1" fill="#f4cf18" d="M 170.5,127.5 C 174.377,129.692 178.211,132.025 182,134.5C 185.756,131.881 189.589,129.714 193.5,128C 191.638,131.919 189.971,135.919 188.5,140C 191.99,142.911 195.656,145.578 199.5,148C 194.798,148.172 190.132,148.672 185.5,149.5C 184.293,153.287 182.793,156.954 181,160.5C 179.523,156.57 178.356,152.57 177.5,148.5C 172.821,148.666 168.155,148.499 163.5,148C 167.567,145.639 171.233,142.806 174.5,139.5C 173.36,135.414 172.027,131.414 170.5,127.5 Z"/></g>
<g><path style="opacity:1" fill="#f5cf18" d="M 305.5,127.5 C 309.072,130.205 312.905,132.539 317,134.5C 320.491,132.419 323.825,130.085 327,127.5C 325.866,131.718 325.2,136.051 325,140.5C 328.167,143 331.333,145.5 334.5,148C 330.167,148.333 325.833,148.667 321.5,149C 320.005,152.817 318.505,156.65 317,160.5C 315.495,156.65 313.995,152.817 312.5,149C 308.167,148.667 303.833,148.333 299.5,148C 303.059,145.394 306.393,142.56 309.5,139.5C 307.961,135.55 306.628,131.55 305.5,127.5 Z"/></g>
<g><path style="opacity:1" fill="#fcfdfd" d="M 304.5,307.5 C 300.154,307.334 295.821,307.501 291.5,308C 293.74,308.977 296.073,309.477 298.5,309.5C 323.012,310.053 344.512,302.386 363,286.5C 366.066,287.713 369.233,288.547 372.5,289C 345.451,316.343 313.784,323.343 277.5,310C 266.892,305.452 257.392,299.285 249,291.5C 221.864,315.324 191.031,321.824 156.5,311C 144.585,305.878 134.252,298.544 125.5,289C 128.311,288.089 131.144,287.256 134,286.5C 144.118,293.812 154.951,299.979 166.5,305C 176.82,308.892 187.487,310.392 198.5,309.5C 201.839,309.11 205.173,308.61 208.5,308C 203.177,307.501 197.844,307.334 192.5,307.5C 168.699,305.684 149.532,295.351 135,276.5C 130.074,269.654 125.908,262.321 122.5,254.5C 124.153,252.879 126.153,251.712 128.5,251C 147.736,244.139 167.069,243.806 186.5,250C 196.651,253.255 206.318,257.255 215.5,262C 197.426,247.419 176.759,239.752 153.5,239C 151.167,236 148.833,233 146.5,230C 171.985,228.717 194.485,236.217 214,252.5C 208.817,239.425 205.65,225.759 204.5,211.5C 204.904,196.55 208.737,182.55 216,169.5C 219.079,173.324 221.912,177.324 224.5,181.5C 214.87,203.5 214.037,225.833 222,248.5C 214.068,213.633 223.068,183.966 249,159.5C 273.733,182.7 283.067,211.033 277,244.5C 283.765,223.071 282.598,202.071 273.5,181.5C 276.153,177.539 278.819,173.539 281.5,169.5C 291.338,186.2 294.838,204.2 292,223.5C 290.306,233.562 287.639,243.229 284,252.5C 303.398,235.812 325.898,228.312 351.5,230C 348.683,232.638 346.35,235.638 344.5,239C 321.065,239.391 300.399,247.058 282.5,262C 296.685,253.933 312.019,248.6 328.5,246C 344.896,244.524 360.563,247.191 375.5,254C 363.715,282.123 343.048,299.79 313.5,307C 310.518,307.498 307.518,307.665 304.5,307.5 Z"/></g>
<g><path style="opacity:1" fill="#f4cf18" d="M 143.5,171.5 C 144.586,171.62 145.253,172.287 145.5,173.5C 146.276,177.159 146.943,180.825 147.5,184.5C 151.897,184.425 156.23,184.925 160.5,186C 157.327,188.087 153.994,189.921 150.5,191.5C 150.4,195.866 150.4,200.2 150.5,204.5C 147.5,201.833 144.5,199.167 141.5,196.5C 137.775,199.2 133.775,201.033 129.5,202C 131.55,198.519 133.217,194.852 134.5,191C 131.566,188.066 128.566,185.066 125.5,182C 130.107,182.31 134.773,182.476 139.5,182.5C 140.548,178.736 141.881,175.069 143.5,171.5 Z"/></g>
<g><path style="opacity:1" fill="#f2ce19" d="M 353.5,171.5 C 355.765,174.735 357.765,178.235 359.5,182C 363.826,181.907 368.159,181.907 372.5,182C 369.5,185 366.5,188 363.5,191C 365.022,194.545 366.689,198.045 368.5,201.5C 368.167,201.833 367.833,202.167 367.5,202.5C 364.081,200.374 360.581,198.374 357,196.5C 353.478,199.266 350.145,202.266 347,205.5C 346.967,201.647 347.467,197.814 348.5,194C 345.495,190.641 341.828,187.974 337.5,186C 341.749,184.874 346.082,184.208 350.5,184C 351.445,179.841 352.445,175.674 353.5,171.5 Z"/></g>
<g><path style="opacity:1" fill="#f9fcfb" d="M 248.5,299.5 C 261.756,310.96 277.089,318.46 294.5,322C 320.833,322.333 347.167,322.667 373.5,323C 371.5,325.667 369.5,328.333 367.5,331C 342.5,331.667 317.5,331.667 292.5,331C 276.245,329.196 261.912,323.03 249.5,312.5C 238.252,321.289 225.586,327.122 211.5,330C 184.531,331.603 157.531,331.936 130.5,331C 128.257,328.512 126.257,325.846 124.5,323C 149.833,322.667 175.167,322.333 200.5,322C 219.27,320.112 235.27,312.612 248.5,299.5 Z"/></g>
<g><path style="opacity:1" fill="#a7d0c7" d="M 304.5,307.5 C 302.5,308.167 300.5,308.833 298.5,309.5C 296.073,309.477 293.74,308.977 291.5,308C 295.821,307.501 300.154,307.334 304.5,307.5 Z"/></g>
<g><path style="opacity:1" fill="#9dcac0" d="M 192.5,307.5 C 197.844,307.334 203.177,307.501 208.5,308C 205.173,308.61 201.839,309.11 198.5,309.5C 196.5,308.833 194.5,308.167 192.5,307.5 Z"/></g>
<g><path style="opacity:1" fill="#1b866f" d="M 137.5,339.5 C 211.668,338.168 286.001,338.168 360.5,339.5C 360.376,340.107 360.043,340.44 359.5,340.5C 285.669,339.501 211.669,339.167 137.5,339.5 Z"/></g>
<g><path style="opacity:1" fill="#f3f8f7" d="M 137.5,339.5 C 211.669,339.167 285.669,339.501 359.5,340.5C 358.71,341.794 357.71,342.961 356.5,344C 284.833,344.667 213.167,344.667 141.5,344C 139.959,342.629 138.625,341.129 137.5,339.5 Z"/></g>
<g><path style="opacity:1" fill="#35947f" d="M 346.5,353.5 C 281.5,352.167 216.5,352.167 151.5,353.5C 150.957,353.44 150.624,353.107 150.5,352.5C 216.167,351.167 281.833,351.167 347.5,352.5C 347.376,353.107 347.043,353.44 346.5,353.5 Z"/></g>
<g><path style="opacity:1" fill="#fefefe" d="M 151.5,353.5 C 216.5,352.167 281.5,352.167 346.5,353.5C 344.05,354.777 341.717,356.277 339.5,358C 278.833,358.667 218.167,358.667 157.5,358C 155.649,356.248 153.649,354.748 151.5,353.5 Z"/></g>
<g><path style="opacity:1" fill="#51a391" d="M 327.5,366.5 C 274.833,365.167 222.167,365.167 169.5,366.5C 168.957,366.44 168.624,366.107 168.5,365.5C 221.833,364.167 275.167,364.167 328.5,365.5C 328.376,366.107 328.043,366.44 327.5,366.5 Z"/></g>
<g><path style="opacity:1" fill="#f8fbfb" d="M 169.5,366.5 C 222.167,365.167 274.833,365.167 327.5,366.5C 323.367,368.4 319.367,370.567 315.5,373C 271.167,373.667 226.833,373.667 182.5,373C 178.114,370.807 173.78,368.64 169.5,366.5 Z"/></g>
<g><path style="opacity:1" fill="#f9fcfb" d="M 194.5,378.5 C 230.664,377.336 266.998,377.169 303.5,378C 267.191,390.428 230.858,390.595 194.5,378.5 Z"/></g>
</svg>
