<?xml version="1.0" encoding="UTF-8"?>
<!DOCTYPE svg PUBLIC "-//W3C//DTD SVG 1.1//EN" "http://www.w3.org/Graphics/SVG/1.1/DTD/svg11.dtd">
<svg xmlns="http://www.w3.org/2000/svg" version="1.1" width="500px" height="500px" style="shape-rendering:geometricPrecision; text-rendering:geometricPrecision; image-rendering:optimizeQuality; fill-rule:evenodd; clip-rule:evenodd" xmlns:xlink="http://www.w3.org/1999/xlink">
<g><path style="opacity:0.996" fill="#fc3c31" d="M 225.5,-0.5 C 241.5,-0.5 257.5,-0.5 273.5,-0.5C 362.269,10.9489 428.436,55.6156 472,133.5C 486.559,162.333 495.726,192.666 499.5,224.5C 499.5,232.5 499.5,240.5 499.5,248.5C 402.5,248.5 305.5,248.5 208.5,248.5C 208.5,166.5 208.5,84.5 208.5,2.5C 214.251,1.42275 219.918,0.422754 225.5,-0.5 Z"/></g>
<g><path style="opacity:0.994" fill="#fefffe" d="M 207.5,2.5 C 207.5,84.8333 207.5,167.167 207.5,249.5C 207.5,331.833 207.5,414.167 207.5,496.5C 123.353,480.031 61.8528,433.698 23,357.5C 10.7506,330.604 2.91724,302.604 -0.5,273.5C -0.5,257.5 -0.5,241.5 -0.5,225.5C 13.3537,124.821 67.0204,54.6542 160.5,15C 175.776,9.29576 191.443,5.12909 207.5,2.5 Z"/></g>
<g><path style="opacity:1" fill="#f15a4a" d="M 207.5,2.5 C 207.833,2.5 208.167,2.5 208.5,2.5C 208.5,84.5 208.5,166.5 208.5,248.5C 305.5,248.5 402.5,248.5 499.5,248.5C 499.5,248.833 499.5,249.167 499.5,249.5C 402.167,249.5 304.833,249.5 207.5,249.5C 207.5,167.167 207.5,84.8333 207.5,2.5 Z"/></g>
<g><path style="opacity:0.996" fill="#017e3a" d="M 207.5,249.5 C 304.833,249.5 402.167,249.5 499.5,249.5C 499.5,257.833 499.5,266.167 499.5,274.5C 487.764,361.841 443.764,427.341 367.5,471C 338.093,486.083 307.093,495.583 274.5,499.5C 257.833,499.5 241.167,499.5 224.5,499.5C 218.944,498.578 213.277,497.578 207.5,496.5C 207.5,414.167 207.5,331.833 207.5,249.5 Z"/></g>
</svg>
