<?xml version="1.0" encoding="UTF-8"?>
<!DOCTYPE svg PUBLIC "-//W3C//DTD SVG 1.1//EN" "http://www.w3.org/Graphics/SVG/1.1/DTD/svg11.dtd">
<svg xmlns="http://www.w3.org/2000/svg" version="1.1" width="500px" height="500px" style="shape-rendering:geometricPrecision; text-rendering:geometricPrecision; image-rendering:optimizeQuality; fill-rule:evenodd; clip-rule:evenodd" xmlns:xlink="http://www.w3.org/1999/xlink">
<g><path style="opacity:0.989" fill="#040000" d="M 225.5,-0.5 C 241.5,-0.5 257.5,-0.5 273.5,-0.5C 362.269,10.9489 428.436,55.6156 472,133.5C 477.625,144.077 482.125,155.077 485.5,166.5C 328.167,166.5 170.833,166.5 13.5,166.5C 43.991,84.513 101.324,31.3463 185.5,7C 198.832,3.72528 212.166,1.22528 225.5,-0.5 Z"/></g>
<g><path style="opacity:1" fill="#c31024" d="M 232.5,20.5 C 234.467,20.2606 236.301,20.5939 238,21.5C 239.75,24.2464 240.75,27.2464 241,30.5C 241.845,43.2451 241.178,55.9118 239,68.5C 233.367,54.0045 230.7,39.0045 231,23.5C 231.513,22.4734 232.013,21.4734 232.5,20.5 Z"/></g>
<g><path style="opacity:1" fill="#c71024" d="M 247.5,19.5 C 250.808,18.9738 252.974,20.3072 254,23.5C 255.516,38.1533 254.016,52.4867 249.5,66.5C 245.608,52.7568 244.108,38.7568 245,24.5C 245.366,22.5483 246.199,20.8816 247.5,19.5 Z"/></g>
<g><path style="opacity:1" fill="#c51024" d="M 261.5,20.5 C 267.178,20.2906 269.512,23.1239 268.5,29C 267.01,42.7917 264.177,56.2917 260,69.5C 257.666,54.8484 257.333,40.1818 259,25.5C 259.847,23.8068 260.68,22.1401 261.5,20.5 Z"/></g>
<g><path style="opacity:1" fill="#c91025" d="M 228.5,47.5 C 228.825,55.0191 228.492,62.3524 227.5,69.5C 224.777,60.8317 221.944,52.165 219,43.5C 217.716,38.9121 216.882,34.2455 216.5,29.5C 216.627,22.1011 219.461,20.7678 225,25.5C 227.786,32.5532 228.953,39.8865 228.5,47.5 Z"/></g>
<g><path style="opacity:1" fill="#c91025" d="M 276.5,22.5 C 278.722,22.178 280.556,22.8446 282,24.5C 282.667,28.1667 282.667,31.8333 282,35.5C 278.94,47.0144 275.273,58.3477 271,69.5C 269.878,55.3903 270.545,41.3903 273,27.5C 273.997,25.6769 275.164,24.0103 276.5,22.5 Z"/></g>
<g><path style="opacity:1" fill="#c71024" d="M 217.5,63.5 C 217.795,65.7354 217.461,67.7354 216.5,69.5C 210.732,58.7007 206.232,47.3673 203,35.5C 201.996,32.0074 202.496,28.8408 204.5,26C 208.18,25.3184 210.68,26.8184 212,30.5C 215.74,41.1816 217.574,52.1816 217.5,63.5 Z"/></g>
<g><path style="opacity:1" fill="#c71024" d="M 282.5,70.5 C 281.549,69.0813 281.216,67.4147 281.5,65.5C 281.454,53.5382 283.287,41.8715 287,30.5C 288.869,25.4569 291.869,24.4569 296,27.5C 296.667,30.5 296.667,33.5 296,36.5C 292.324,48.1816 287.824,59.515 282.5,70.5 Z"/></g>
<g><path style="opacity:1" fill="#c61024" d="M 190.5,29.5 C 193.325,29.0807 195.491,30.0807 197,32.5C 203.342,46.5199 207.008,61.1865 208,76.5C 199.75,63.5002 193.25,49.6669 188.5,35C 188.758,32.9907 189.425,31.1573 190.5,29.5 Z"/></g>
<g><path style="opacity:1" fill="#c61024" d="M 304.5,29.5 C 309.805,30.0767 311.638,33.0767 310,38.5C 305.054,51.0577 299.054,63.0577 292,74.5C 292.4,62.1664 294.733,50.1664 299,38.5C 300.343,35.1381 302.176,32.1381 304.5,29.5 Z"/></g>
<g><path style="opacity:1" fill="#c61024" d="M 176.5,35.5 C 180.273,34.8224 183.106,36.1558 185,39.5C 191.567,52.2003 195.901,65.5337 198,79.5C 190.586,69.6769 183.919,59.3436 178,48.5C 175.737,44.2804 175.237,39.9471 176.5,35.5 Z"/></g>
<g><path style="opacity:1" fill="#c61024" d="M 317.5,35.5 C 319.467,35.2606 321.301,35.5939 323,36.5C 323.546,39.8992 323.213,43.2325 322,46.5C 316.248,58.3464 309.248,69.3464 301,79.5C 303.161,65.5473 307.494,52.2139 314,39.5C 315.376,38.2949 316.542,36.9616 317.5,35.5 Z"/></g>
<g><path style="opacity:1" fill="#c51024" d="M 164.5,41.5 C 166.308,41.4914 167.975,41.9914 169.5,43C 172.388,46.2216 174.888,49.7216 177,53.5C 182.182,63.8381 186.182,74.5048 189,85.5C 180.231,75.3991 172.231,64.7324 165,53.5C 162.201,49.4481 162.035,45.4481 164.5,41.5 Z"/></g>
<g><path style="opacity:1" fill="#c61024" d="M 331.5,41.5 C 333.39,41.2965 334.89,41.9632 336,43.5C 336.584,46.2567 336.25,48.9234 335,51.5C 327.825,63.6765 319.492,75.0099 310,85.5C 313.509,71.3247 319.175,57.9914 327,45.5C 328.397,43.9297 329.897,42.5964 331.5,41.5 Z"/></g>
<g><path style="opacity:1" fill="#c91025" d="M 152.5,49.5 C 154.308,49.4914 155.975,49.9914 157.5,51C 167.423,62.3515 174.59,75.1848 179,89.5C 169.222,80.7275 160.555,71.0609 153,60.5C 150.08,56.8188 149.913,53.1521 152.5,49.5 Z"/></g>
<g><path style="opacity:1" fill="#c91025" d="M 343.5,49.5 C 346.585,49.418 348.252,50.918 348.5,54C 346.594,60.2363 343.427,65.7363 339,70.5C 332.667,76.8333 326.333,83.1667 320,89.5C 324.507,74.1448 332.34,60.8115 343.5,49.5 Z"/></g>
<g><path style="opacity:1" fill="#39050a" d="M 228.5,47.5 C 229.82,55.0098 229.82,62.6765 228.5,70.5C 227.893,70.3764 227.56,70.0431 227.5,69.5C 228.492,62.3524 228.825,55.0191 228.5,47.5 Z"/></g>
<g><path style="opacity:1" fill="#c91025" d="M 140.5,58.5 C 142.655,58.372 144.655,58.872 146.5,60C 157.19,70.6505 165.357,82.8171 171,96.5C 160.679,88.1781 151.012,79.1781 142,69.5C 139.532,66.0365 139.032,62.3698 140.5,58.5 Z"/></g>
<g><path style="opacity:1" fill="#c81025" d="M 354.5,58.5 C 359.213,58.4676 360.713,60.8009 359,65.5C 355.298,72.2079 350.465,78.0412 344.5,83C 338.908,87.3804 333.408,91.8804 328,96.5C 334.093,82.0016 342.926,69.335 354.5,58.5 Z"/></g>
<g><path style="opacity:1" fill="#780a17" d="M 217.5,63.5 C 218.638,66.3035 218.805,69.3035 218,72.5C 216.961,71.7562 216.461,70.7562 216.5,69.5C 217.461,67.7354 217.795,65.7354 217.5,63.5 Z"/></g>
<g><path style="opacity:1" fill="#c81025" d="M 129.5,68.5 C 135.705,69.5022 140.871,72.5022 145,77.5C 150.911,84.9886 156.577,92.6553 162,100.5C 162.688,101.332 162.521,101.998 161.5,102.5C 150.951,95.7881 141.118,88.1214 132,79.5C 128.793,76.2905 127.96,72.6238 129.5,68.5 Z"/></g>
<g><path style="opacity:1" fill="#c91025" d="M 364.5,68.5 C 369.675,67.5071 371.509,69.5071 370,74.5C 366.211,80.6232 361.378,85.7898 355.5,90C 349.362,93.9718 343.362,98.1384 337.5,102.5C 336.479,101.998 336.312,101.332 337,100.5C 344.558,88.3359 353.725,77.6692 364.5,68.5 Z"/></g>
<g><path style="opacity:1" fill="#650813" d="M 281.5,65.5 C 281.216,67.4147 281.549,69.0813 282.5,70.5C 282.013,71.4734 281.513,72.4734 281,73.5C 280.199,70.633 280.366,67.9664 281.5,65.5 Z"/></g>
<g><path style="opacity:1" fill="#c91025" d="M 119.5,79.5 C 121.527,79.3379 123.527,79.5045 125.5,80C 129.11,81.944 132.443,84.2774 135.5,87C 142.873,94.7038 149.873,102.704 156.5,111C 142.817,105.357 130.65,97.19 120,86.5C 118.336,84.2144 118.17,81.8811 119.5,79.5 Z"/></g>
<g><path style="opacity:1" fill="#c91025" d="M 373.5,79.5 C 380.118,78.275 381.951,80.6084 379,86.5C 368.35,97.19 356.183,105.357 342.5,111C 351.634,99.1502 361.967,88.6502 373.5,79.5 Z"/></g>
<g><path style="opacity:1" fill="#cd1025" d="M 350.5,152.5 C 283.335,153.499 216.002,153.832 148.5,153.5C 163.47,114.712 191.47,91.2124 232.5,83C 281.337,77.9135 318.503,96.0802 344,137.5C 346.729,142.288 348.896,147.288 350.5,152.5 Z"/></g>
<g><path style="opacity:1" fill="#c91025" d="M 111.5,90.5 C 117.194,91.0124 122.194,93.1791 126.5,97C 134.47,103.969 142.136,111.302 149.5,119C 137.445,114.972 126.112,109.306 115.5,102C 113.291,100.127 111.458,97.96 110,95.5C 109.387,93.5048 109.887,91.8381 111.5,90.5 Z"/></g>
<g><path style="opacity:1" fill="#ca1025" d="M 382.5,90.5 C 385.885,89.7896 388.219,90.9563 389.5,94C 386.02,100.25 381.02,104.916 374.5,108C 366.407,112.554 358.073,116.221 349.5,119C 359.218,107.766 370.218,98.2658 382.5,90.5 Z"/></g>
<g><path style="opacity:1" fill="#c51024" d="M 103.5,102.5 C 109.114,102.649 114.114,104.482 118.5,108C 127.681,114.758 136.681,121.758 145.5,129C 133.835,125.846 122.501,121.513 111.5,116C 106.821,113.987 103.487,110.654 101.5,106C 101.978,104.697 102.645,103.531 103.5,102.5 Z"/></g>
<g><path style="opacity:1" fill="#c81025" d="M 390.5,102.5 C 393.885,101.79 396.219,102.956 397.5,106C 396.624,108.879 394.958,111.213 392.5,113C 380.717,119.589 368.384,124.589 355.5,128C 366.205,118 377.872,109.5 390.5,102.5 Z"/></g>
<g><path style="opacity:1" fill="#c71024" d="M 96.5,115.5 C 102.942,115.813 108.942,117.647 114.5,121C 123.007,126.419 131.34,132.086 139.5,138C 125.534,135.901 112.2,131.567 99.5,125C 95.67,122.658 94.67,119.492 96.5,115.5 Z"/></g>
<g><path style="opacity:1" fill="#c91025" d="M 395.5,115.5 C 404.489,115.221 405.822,118.388 399.5,125C 386.67,131.166 373.336,135.5 359.5,138C 370.756,129.211 382.756,121.711 395.5,115.5 Z"/></g>
<g><path style="opacity:1" fill="#c61024" d="M 92.5,128.5 C 98.0809,129.082 103.414,130.582 108.5,133C 118.085,137.598 127.418,142.598 136.5,148C 122.418,147.05 108.751,144.05 95.5,139C 91.509,137.379 89.6757,134.546 90,130.5C 90.9947,129.934 91.828,129.267 92.5,128.5 Z"/></g>
<g><path style="opacity:1" fill="#c91025" d="M 401.5,128.5 C 409.612,128.062 411.279,130.895 406.5,137C 392.757,143.212 378.424,146.879 363.5,148C 375.55,140.143 388.216,133.643 401.5,128.5 Z"/></g>
<g><path style="opacity:1" fill="#c91025" d="M 121.5,152.5 C 113.35,153.493 105.017,153.826 96.5,153.5C 92.3046,153.319 88.8046,151.653 86,148.5C 85.2397,143.926 87.2397,141.926 92,142.5C 102.275,144.536 112.109,147.87 121.5,152.5 Z"/></g>
<g><path style="opacity:1" fill="#c91025" d="M 402.5,153.5 C 393.983,153.826 385.65,153.493 377.5,152.5C 388.2,146.827 399.533,143.66 411.5,143C 414.543,147.131 413.543,150.131 408.5,152C 406.482,152.505 404.482,153.005 402.5,153.5 Z"/></g>
<g><path style="opacity:1" fill="#35040a" d="M 121.5,152.5 C 122.376,152.369 123.043,152.702 123.5,153.5C 114.342,154.822 105.342,154.822 96.5,153.5C 105.017,153.826 113.35,153.493 121.5,152.5 Z"/></g>
<g><path style="opacity:1" fill="#340409" d="M 350.5,152.5 C 351.043,152.56 351.376,152.893 351.5,153.5C 283.668,154.832 216.001,154.832 148.5,153.5C 216.002,153.832 283.335,153.499 350.5,152.5 Z"/></g>
<g><path style="opacity:1" fill="#36040a" d="M 377.5,152.5 C 385.65,153.493 393.983,153.826 402.5,153.5C 393.991,154.821 385.325,154.821 376.5,153.5C 376.624,152.893 376.957,152.56 377.5,152.5 Z"/></g>
<g><path style="opacity:0.998" fill="#ce1025" d="M 13.5,166.5 C 170.833,166.5 328.167,166.5 485.5,166.5C 492.586,185.267 497.253,204.6 499.5,224.5C 499.5,241.167 499.5,257.833 499.5,274.5C 498.1,284.764 496.267,295.098 494,305.5C 492.031,314.9 489.198,323.9 485.5,332.5C 328.167,332.5 170.833,332.5 13.5,332.5C 6.28469,313.42 1.61802,293.754 -0.5,273.5C -0.5,257.5 -0.5,241.5 -0.5,225.5C 1.61802,205.246 6.28469,185.58 13.5,166.5 Z"/></g>
<g><path style="opacity:0.997" fill="#4e9133" d="M 13.5,332.5 C 170.833,332.5 328.167,332.5 485.5,332.5C 485.5,333.167 485.5,333.833 485.5,334.5C 328.167,334.5 170.833,334.5 13.5,334.5C 13.5,333.833 13.5,333.167 13.5,332.5 Z"/></g>
<g><path style="opacity:0.993" fill="#339e34" d="M 13.5,334.5 C 170.833,334.5 328.167,334.5 485.5,334.5C 458.205,405.629 409.205,455.462 338.5,484C 317.652,491.713 296.319,496.88 274.5,499.5C 257.833,499.5 241.167,499.5 224.5,499.5C 136.144,487.759 70.3107,443.092 27,365.5C 21.9351,355.374 17.4351,345.041 13.5,334.5 Z"/></g>
</svg>
