<?xml version="1.0" encoding="UTF-8"?>
<!DOCTYPE svg PUBLIC "-//W3C//DTD SVG 1.1//EN" "http://www.w3.org/Graphics/SVG/1.1/DTD/svg11.dtd">
<svg xmlns="http://www.w3.org/2000/svg" version="1.1" width="500px" height="500px" style="shape-rendering:geometricPrecision; text-rendering:geometricPrecision; image-rendering:optimizeQuality; fill-rule:evenodd; clip-rule:evenodd" xmlns:xlink="http://www.w3.org/1999/xlink">
<g><path style="opacity:0.994" fill="#fefefe" d="M 225.5,-0.5 C 233.5,-0.5 241.5,-0.5 249.5,-0.5C 249.5,166.167 249.5,332.833 249.5,499.5C 241.167,499.5 232.833,499.5 224.5,499.5C 132.596,487.072 65.4294,439.739 23,357.5C 10.7506,330.604 2.91724,302.604 -0.5,273.5C -0.5,257.5 -0.5,241.5 -0.5,225.5C 11.4543,135.075 57.4543,68.242 137.5,25C 165.514,11.5012 194.847,3.00119 225.5,-0.5 Z"/></g>
<g><path style="opacity:0.995" fill="#cf142b" d="M 249.5,-0.5 C 257.5,-0.5 265.5,-0.5 273.5,-0.5C 362.269,10.9489 428.436,55.6156 472,133.5C 486.559,162.333 495.726,192.666 499.5,224.5C 499.5,241.167 499.5,257.833 499.5,274.5C 487.764,361.841 443.764,427.341 367.5,471C 338.093,486.083 307.093,495.583 274.5,499.5C 266.167,499.5 257.833,499.5 249.5,499.5C 249.5,332.833 249.5,166.167 249.5,-0.5 Z"/></g>
<g><path style="opacity:1" fill="#e71f33" d="M 176.5,98.5 C 176.5,99.8333 176.5,101.167 176.5,102.5C 189.167,102.5 201.833,102.5 214.5,102.5C 214.5,114.833 214.5,127.167 214.5,139.5C 202.167,139.5 189.833,139.5 177.5,139.5C 177.453,144.173 175.453,147.506 171.5,149.5C 172.657,147.862 173.824,146.196 175,144.5C 175.687,142.432 175.52,140.432 174.5,138.5C 187.149,137.501 199.816,137.168 212.5,137.5C 213.495,126.346 213.828,115.012 213.5,103.5C 200.456,104.147 187.789,103.48 175.5,101.5C 175.023,94.6907 171.356,91.3574 164.5,91.5C 162.52,79.2108 161.853,66.5441 162.5,53.5C 151.321,53.1721 140.321,53.5054 129.5,54.5C 129.5,66.8333 129.5,79.1667 129.5,91.5C 128.5,91.5 127.5,91.5 126.5,91.5C 125.833,90.8333 125.167,90.1667 124.5,89.5C 126.48,77.2108 127.147,64.5441 126.5,51.5C 139.167,51.5 151.833,51.5 164.5,51.5C 164.5,64.1667 164.5,76.8333 164.5,89.5C 170.744,89.6119 174.744,92.6119 176.5,98.5 Z"/></g>
<g><path style="opacity:1" fill="#aa6061" d="M 129.5,54.5 C 140.321,53.5054 151.321,53.1721 162.5,53.5C 161.853,66.5441 162.52,79.2108 164.5,91.5C 163.791,92.404 162.791,92.7373 161.5,92.5C 161.5,79.8333 161.5,67.1667 161.5,54.5C 150.833,54.5 140.167,54.5 129.5,54.5 Z"/></g>
<g><path style="opacity:1" fill="#9d8c84" d="M 129.5,54.5 C 140.167,54.5 150.833,54.5 161.5,54.5C 161.5,67.1667 161.5,79.8333 161.5,92.5C 162.791,92.7373 163.791,92.404 164.5,91.5C 171.356,91.3574 175.023,94.6907 175.5,101.5C 174.596,102.209 174.263,103.209 174.5,104.5C 187.167,104.5 199.833,104.5 212.5,104.5C 212.5,115.5 212.5,126.5 212.5,137.5C 199.816,137.168 187.149,137.501 174.5,138.5C 175.52,140.432 175.687,142.432 175,144.5C 173.824,146.196 172.657,147.862 171.5,149.5C 168.827,150.703 166.16,150.703 163.5,149.5C 162.501,162.149 162.168,174.816 162.5,187.5C 151.5,187.5 140.5,187.5 129.5,187.5C 129.5,174.833 129.5,162.167 129.5,149.5C 128.209,149.263 127.209,149.596 126.5,150.5C 119.691,150.023 116.357,146.356 116.5,139.5C 117.338,139.158 117.672,138.492 117.5,137.5C 117.833,137.5 118.167,137.5 118.5,137.5C 119.978,137.238 121.311,137.571 122.5,138.5C 121.52,139.981 120.353,141.315 119,142.5C 118.333,143.167 118.333,143.833 119,144.5C 121.016,142.316 123.183,140.316 125.5,138.5C 127.636,139.472 128.803,141.139 129,143.5C 130.411,157.783 130.911,172.116 130.5,186.5C 140.5,186.5 150.5,186.5 160.5,186.5C 159.849,172.036 160.682,157.703 163,143.5C 164.667,145.167 166.333,146.833 168,148.5C 168.667,147.833 168.667,147.167 168,146.5C 166.108,144.946 164.608,143.112 163.5,141C 164.032,138.98 165.365,138.147 167.5,138.5C 169.369,137.835 171.369,137.169 173.5,136.5C 186.149,135.501 198.816,135.168 211.5,135.5C 211.5,125.5 211.5,115.5 211.5,105.5C 197.116,105.911 182.783,105.411 168.5,104C 170,102.5 171.5,101 173,99.5C 173.688,98.6683 173.521,98.0016 172.5,97.5C 170.833,99.8333 168.833,101.833 166.5,103.5C 165.086,102.376 163.586,101.376 162,100.5C 161,102.167 160,103.833 159,105.5C 158.667,104.5 158.333,103.5 158,102.5C 157.346,103.696 156.846,103.696 156.5,102.5C 159.898,100.61 161.898,97.7763 162.5,94C 160.531,81.4155 159.864,68.5821 160.5,55.5C 150.5,55.5 140.5,55.5 130.5,55.5C 130.911,69.8839 130.411,84.2172 129,98.5C 121.158,91.9203 120.825,92.2537 128,99.5C 128.667,100.167 128.667,100.833 128,101.5C 125.242,103.643 122.076,104.81 118.5,105C 105.838,105.5 93.1711,105.667 80.5,105.5C 80.1667,105.5 79.8333,105.5 79.5,105.5C 79.5,105.167 79.5,104.833 79.5,104.5C 91.8333,104.5 104.167,104.5 116.5,104.5C 116.5,103.5 116.5,102.5 116.5,101.5C 116.879,95.1209 120.212,91.7875 126.5,91.5C 127.5,91.5 128.5,91.5 129.5,91.5C 129.5,79.1667 129.5,66.8333 129.5,54.5 Z"/></g>
<g><path style="opacity:1" fill="#d83747" d="M 124.5,89.5 C 125.167,90.1667 125.833,90.8333 126.5,91.5C 120.212,91.7875 116.879,95.1209 116.5,101.5C 115.833,100.833 115.167,100.167 114.5,99.5C 116.167,94.5 119.5,91.1667 124.5,89.5 Z"/></g>
<g><path style="opacity:1" fill="#ee5a6f" d="M 176.5,98.5 C 177.404,99.209 177.737,100.209 177.5,101.5C 190.167,101.5 202.833,101.5 215.5,101.5C 215.829,114.344 215.495,127.011 214.5,139.5C 214.5,127.167 214.5,114.833 214.5,102.5C 201.833,102.5 189.167,102.5 176.5,102.5C 176.5,101.167 176.5,99.8333 176.5,98.5 Z"/></g>
<g><path style="opacity:1" fill="#d02d41" d="M 175.5,101.5 C 187.789,103.48 200.456,104.147 213.5,103.5C 213.828,115.012 213.495,126.346 212.5,137.5C 212.5,126.5 212.5,115.5 212.5,104.5C 199.833,104.5 187.167,104.5 174.5,104.5C 174.263,103.209 174.596,102.209 175.5,101.5 Z"/></g>
<g><path style="opacity:1" fill="#cacaca" d="M 167.5,138.5 C 165.365,138.147 164.032,138.98 163.5,141C 164.608,143.112 166.108,144.946 168,146.5C 168.667,147.167 168.667,147.833 168,148.5C 166.333,146.833 164.667,145.167 163,143.5C 160.682,157.703 159.849,172.036 160.5,186.5C 150.5,186.5 140.5,186.5 130.5,186.5C 130.911,172.116 130.411,157.783 129,143.5C 128.803,141.139 127.636,139.472 125.5,138.5C 123.183,140.316 121.016,142.316 119,144.5C 118.333,143.833 118.333,143.167 119,142.5C 120.353,141.315 121.52,139.981 122.5,138.5C 121.311,137.571 119.978,137.238 118.5,137.5C 106.211,135.52 93.5441,134.853 80.5,135.5C 80.5,125.5 80.5,115.5 80.5,105.5C 93.1711,105.667 105.838,105.5 118.5,105C 122.076,104.81 125.242,103.643 128,101.5C 128.667,100.833 128.667,100.167 128,99.5C 120.825,92.2537 121.158,91.9203 129,98.5C 130.411,84.2172 130.911,69.8839 130.5,55.5C 140.5,55.5 150.5,55.5 160.5,55.5C 159.864,68.5821 160.531,81.4155 162.5,94C 161.898,97.7763 159.898,100.61 156.5,102.5C 156.846,103.696 157.346,103.696 158,102.5C 158.333,103.5 158.667,104.5 159,105.5C 160,103.833 161,102.167 162,100.5C 163.586,101.376 165.086,102.376 166.5,103.5C 168.833,101.833 170.833,99.8333 172.5,97.5C 173.521,98.0016 173.688,98.6683 173,99.5C 171.5,101 170,102.5 168.5,104C 182.783,105.411 197.116,105.911 211.5,105.5C 211.5,115.5 211.5,125.5 211.5,135.5C 198.816,135.168 186.149,135.501 173.5,136.5C 171.369,137.169 169.369,137.835 167.5,138.5 Z"/></g>
<g><path style="opacity:1" fill="#979593" d="M 137.5,102.5 C 137.877,95.5105 139.877,94.8439 143.5,100.5C 144.167,98.8333 144.833,97.1667 145.5,95.5C 146.281,96.7287 146.781,98.062 147,99.5C 147.333,99.1667 147.667,98.8333 148,98.5C 149.686,101.022 151.019,100.689 152,97.5C 152.318,99.0609 153.151,100.228 154.5,101C 148.801,101.312 143.134,101.812 137.5,102.5 Z"/></g>
<g><path style="opacity:1" fill="#a5a2a1" d="M 163.5,117.5 C 163.5,117.167 163.5,116.833 163.5,116.5C 165.294,114.203 167.294,112.037 169.5,110C 168.466,107.336 166.8,107.169 164.5,109.5C 164.167,109.167 163.833,108.833 163.5,108.5C 164.098,107.205 164.598,105.872 165,104.5C 165.221,107.943 166.221,108.276 168,105.5C 171.581,109.909 172.915,114.909 172,120.5C 171,121.833 170,121.833 169,120.5C 165.312,124.806 166.145,126.64 171.5,126C 170.333,126.5 169.5,127.333 169,128.5C 167.667,127.167 166.333,127.167 165,128.5C 165.008,126.402 165.175,124.235 165.5,122C 165.431,120.014 164.765,118.514 163.5,117.5 Z"/></g>
<g><path style="opacity:1" fill="#a4a2a0" d="M 137.5,102.5 C 137.557,103.609 137.89,104.609 138.5,105.5C 134.242,106.028 130.909,108.361 128.5,112.5C 127.883,112.611 127.383,112.944 127,113.5C 126.495,118.884 126.495,124.218 127,129.5C 125.573,127.213 123.739,126.88 121.5,128.5C 118.689,125.645 119.189,124.979 123,126.5C 124.28,126.387 125.113,125.72 125.5,124.5C 123.249,123.182 121.249,121.516 119.5,119.5C 120.966,117.343 122.8,117.01 125,118.5C 125.915,116.08 125.082,114.747 122.5,114.5C 121.353,114.818 120.519,115.484 120,116.5C 119.754,112.824 120.754,109.491 123,106.5C 121.88,111.039 123.547,112.372 128,110.5C 129.308,108.359 130.808,106.359 132.5,104.5C 129.408,100.922 130.075,99.0889 134.5,99C 135.163,100.518 136.163,101.685 137.5,102.5 Z"/></g>
<g><path style="opacity:1" fill="#8c8078" d="M 163.5,116.5 C 163.5,116.833 163.5,117.167 163.5,117.5C 161.742,117.123 160.075,116.456 158.5,115.5C 157.713,116.242 157.047,117.075 156.5,118C 163.31,121.528 164.31,125.862 159.5,131C 162.028,131.669 162.028,132.502 159.5,133.5C 156.151,132.17 155.818,132.67 158.5,135C 158.167,135.333 157.833,135.667 157.5,136C 150.167,136.667 142.833,136.667 135.5,136C 134.833,135.333 134.167,134.667 133.5,134C 136.702,133.802 139.702,132.969 142.5,131.5C 140.136,128.137 137.136,125.471 133.5,123.5C 132.962,124.556 132.962,125.889 133.5,127.5C 133.304,129.286 132.471,130.619 131,131.5C 130.13,130.892 129.63,130.059 129.5,129C 130.322,126.566 130.656,124.066 130.5,121.5C 133.337,123.261 135.67,122.761 137.5,120C 135.538,117.502 133.205,116.502 130.5,117C 128.963,115.89 128.297,114.39 128.5,112.5C 130.909,108.361 134.242,106.028 138.5,105.5C 141.154,104.878 143.654,103.878 146,102.5C 147.596,103.497 149.096,104.663 150.5,106C 152.134,106.494 153.801,106.66 155.5,106.5C 155.297,108.638 154.297,110.305 152.5,111.5C 153.392,115.629 155.226,116.296 158,113.5C 160.085,114.124 161.918,115.124 163.5,116.5 Z"/></g>
<g><path style="opacity:1" fill="#c9caca" d="M 137.5,113.5 C 139.701,113.858 141.035,115.192 141.5,117.5C 139.182,118.834 137.515,118.168 136.5,115.5C 136.863,114.817 137.196,114.15 137.5,113.5 Z"/></g>
<g><path style="opacity:1" fill="#a9a9a1" d="M 79.5,105.5 C 79.8333,105.5 80.1667,105.5 80.5,105.5C 80.5,115.5 80.5,125.5 80.5,135.5C 93.5441,134.853 106.211,135.52 118.5,137.5C 118.167,137.5 117.833,137.5 117.5,137.5C 105.011,136.505 92.3443,136.171 79.5,136.5C 79.5,126.167 79.5,115.833 79.5,105.5 Z"/></g>
<g><path style="opacity:1" fill="#a96262" d="M 79.5,104.5 C 79.5,104.833 79.5,105.167 79.5,105.5C 79.5,115.833 79.5,126.167 79.5,136.5C 92.3443,136.171 105.011,136.505 117.5,137.5C 117.672,138.492 117.338,139.158 116.5,139.5C 104.211,137.52 91.5441,136.853 78.5,137.5C 78.1721,126.321 78.5054,115.321 79.5,104.5 Z"/></g>
<g><path style="opacity:1" fill="#e71d31" d="M 114.5,99.5 C 115.167,100.167 115.833,100.833 116.5,101.5C 116.5,102.5 116.5,103.5 116.5,104.5C 104.167,104.5 91.8333,104.5 79.5,104.5C 78.5054,115.321 78.1721,126.321 78.5,137.5C 91.5441,136.853 104.211,137.52 116.5,139.5C 116.357,146.356 119.691,150.023 126.5,150.5C 128.48,162.789 129.147,175.456 128.5,188.5C 140.012,188.828 151.346,188.495 162.5,187.5C 162.168,174.816 162.501,162.149 163.5,149.5C 166.16,150.703 168.827,150.703 171.5,149.5C 169.68,151.448 167.346,152.448 164.5,152.5C 164.5,164.833 164.5,177.167 164.5,189.5C 152.167,189.5 139.833,189.5 127.5,189.5C 127.5,176.833 127.5,164.167 127.5,151.5C 126.167,151.5 124.833,151.5 123.5,151.5C 117.612,149.744 114.612,145.744 114.5,139.5C 101.833,139.5 89.1667,139.5 76.5,139.5C 76.5,126.833 76.5,114.167 76.5,101.5C 89.5441,102.147 102.211,101.48 114.5,99.5 Z"/></g>
<g><path style="opacity:1" fill="#0e0e0e" d="M 134.5,141.5 C 136.337,141.639 136.67,142.306 135.5,143.5C 134.702,143.043 134.369,142.376 134.5,141.5 Z"/></g>
<g><path style="opacity:1" fill="#c3c1bf" d="M 167.5,138.5 C 169.652,140.078 171.986,141.412 174.5,142.5C 173.284,143.096 171.951,143.263 170.5,143C 171.451,143.718 171.617,144.551 171,145.5C 169.295,143.423 168.128,141.09 167.5,138.5 Z"/></g>
<g><path style="opacity:1" fill="#242424" d="M 145.5,141.5 C 146.66,142.611 147.993,143.611 149.5,144.5C 148.066,145.23 146.9,146.23 146,147.5C 145.1,146.23 143.934,145.23 142.5,144.5C 143.993,143.859 144.993,142.859 145.5,141.5 Z"/></g>
<g><path style="opacity:1" fill="#383838" d="M 154.5,141.5 C 155.675,141.281 156.675,141.614 157.5,142.5C 155.948,143.798 154.948,143.465 154.5,141.5 Z"/></g>
<g><path style="opacity:1" fill="#c6c4c2" d="M 126.5,142.5 C 126.973,144.97 126.139,147.304 124,149.5C 124,148.167 124,146.833 124,145.5C 123.282,146.451 122.449,146.617 121.5,146C 123.233,144.811 124.9,143.644 126.5,142.5 Z"/></g>
<g><path style="opacity:1" fill="#ee5a6f" d="M 123.5,151.5 C 124.833,151.5 126.167,151.5 127.5,151.5C 127.5,164.167 127.5,176.833 127.5,189.5C 139.833,189.5 152.167,189.5 164.5,189.5C 152.011,190.495 139.344,190.829 126.5,190.5C 126.5,177.833 126.5,165.167 126.5,152.5C 125.209,152.737 124.209,152.404 123.5,151.5 Z"/></g>
<g><path style="opacity:1" fill="#d02d41" d="M 126.5,150.5 C 127.209,149.596 128.209,149.263 129.5,149.5C 129.5,162.167 129.5,174.833 129.5,187.5C 140.5,187.5 151.5,187.5 162.5,187.5C 151.346,188.495 140.012,188.828 128.5,188.5C 129.147,175.456 128.48,162.789 126.5,150.5 Z"/></g>
</svg>
