<?xml version="1.0" encoding="UTF-8"?>
<!DOCTYPE svg PUBLIC "-//W3C//DTD SVG 1.1//EN" "http://www.w3.org/Graphics/SVG/1.1/DTD/svg11.dtd">
<svg xmlns="http://www.w3.org/2000/svg" version="1.1" width="500px" height="500px" style="shape-rendering:geometricPrecision; text-rendering:geometricPrecision; image-rendering:optimizeQuality; fill-rule:evenodd; clip-rule:evenodd" xmlns:xlink="http://www.w3.org/1999/xlink">
<g><path style="opacity:0.995" fill="#01285d" d="M 225.5,-0.5 C 241.5,-0.5 257.5,-0.5 273.5,-0.5C 358.119,10.3302 422.619,51.9969 467,124.5C 480.379,147.593 489.546,172.26 494.5,198.5C 486.732,201.216 479.066,204.216 471.5,207.5C 469.473,207.338 467.473,207.505 465.5,208C 427.479,225.676 389.145,242.676 350.5,259C 349.027,259.71 348.36,260.876 348.5,262.5C 321.171,274.497 293.838,286.497 266.5,298.5C 264.473,298.338 262.473,298.505 260.5,299C 222.479,316.676 184.145,333.676 145.5,350C 144.027,350.71 143.36,351.876 143.5,353.5C 111.083,367.639 78.7501,381.972 46.5,396.5C 20.0056,359.69 4.33895,318.69 -0.5,273.5C -0.5,257.5 -0.5,241.5 -0.5,225.5C 1.08976,211.964 3.75643,198.63 7.5,185.5C 26.7689,187.401 46.1022,188.901 65.5,190C 47.0618,197.385 28.7285,205.052 10.5,213C 30.2053,210.851 49.872,208.518 69.5,206C 53.1667,218.333 36.8333,230.667 20.5,243C 20.8333,243.167 21.1667,243.333 21.5,243.5C 40.3422,234.951 59.3422,227.117 78.5,220C 65.194,235.059 53.194,250.559 42.5,266.5C 57.7576,254.62 72.9243,242.62 88,230.5C 80.0567,249.387 72.39,268.387 65,287.5C 77.3333,271.5 89.6667,255.5 102,239.5C 99.481,259.135 97.1477,278.801 95,298.5C 102.391,280.052 110.057,261.718 118,243.5C 120.413,274.54 123.08,305.54 126,336.5C 128.193,308.163 130.359,279.829 132.5,251.5C 133.167,249.167 133.833,246.833 134.5,244.5C 141.987,262.812 149.487,281.145 157,299.5C 154.239,279.171 151.572,258.838 149,238.5C 161.667,255.167 174.333,271.833 187,288.5C 180.146,269.967 172.479,251.634 164,233.5C 163.333,232.5 163.333,231.5 164,230.5C 179.667,243.167 195.333,255.833 211,268.5C 211.667,267.833 211.667,267.167 211,266.5C 198.62,250.909 186.12,235.409 173.5,220C 192.617,227.215 211.617,235.048 230.5,243.5C 215.608,231.201 199.941,219.035 183.5,207C 186.5,206.333 189.5,206.333 192.5,207C 205.76,209.402 219.093,211.236 232.5,212.5C 236.3,213.779 240.3,214.279 244.5,214C 242.512,213.062 240.512,212.228 238.5,211.5C 221.036,204.624 203.702,197.457 186.5,190C 216.463,187.246 246.463,185.08 276.5,183.5C 278.288,183.785 279.955,183.452 281.5,182.5C 280.675,181.614 279.675,181.281 278.5,181.5C 250.159,179.602 221.826,177.602 193.5,175.5C 191.5,174.833 189.5,174.167 187.5,173.5C 206.489,166.007 225.489,158.507 244.5,151C 224.167,153.333 203.833,155.667 183.5,158C 199.833,145.667 216.167,133.333 232.5,121C 216.463,127.244 200.463,133.911 184.5,141C 181.258,142.639 177.924,143.639 174.5,144C 187.542,127.995 200.042,111.828 212,95.5C 196.075,108.214 180.242,121.047 164.5,134C 163.833,134.667 163.167,134.667 162.5,134C 171.136,114.911 179.302,95.7441 187,76.5C 174.333,93.1667 161.667,109.833 149,126.5C 151.665,105.842 154.332,85.1757 157,64.5C 149.21,83.075 141.71,101.742 134.5,120.5C 133.833,117.5 133.167,114.5 132.5,111.5C 130.347,84.8466 128.347,58.1799 126.5,31.5C 157.291,14.014 190.291,3.34735 225.5,-0.5 Z"/></g>
<g><path style="opacity:1" fill="#fafafb" d="M 126.5,31.5 C 128.347,58.1799 130.347,84.8466 132.5,111.5C 132.18,114.898 132.513,118.232 133.5,121.5C 134.107,121.376 134.44,121.043 134.5,120.5C 141.71,101.742 149.21,83.075 157,64.5C 154.332,85.1757 151.665,105.842 149,126.5C 161.667,109.833 174.333,93.1667 187,76.5C 179.302,95.7441 171.136,114.911 162.5,134C 163.167,134.667 163.833,134.667 164.5,134C 180.242,121.047 196.075,108.214 212,95.5C 200.042,111.828 187.542,127.995 174.5,144C 177.924,143.639 181.258,142.639 184.5,141C 200.463,133.911 216.463,127.244 232.5,121C 216.167,133.333 199.833,145.667 183.5,158C 203.833,155.667 224.167,153.333 244.5,151C 225.489,158.507 206.489,166.007 187.5,173.5C 186.711,173.783 186.044,174.283 185.5,175C 188.146,175.497 190.813,175.664 193.5,175.5C 221.826,177.602 250.159,179.602 278.5,181.5C 277.833,182.167 277.167,182.833 276.5,183.5C 246.463,185.08 216.463,187.246 186.5,190C 203.702,197.457 221.036,204.624 238.5,211.5C 236.735,212.461 234.735,212.795 232.5,212.5C 219.093,211.236 205.76,209.402 192.5,207C 189.5,206.333 186.5,206.333 183.5,207C 199.941,219.035 215.608,231.201 230.5,243.5C 211.617,235.048 192.617,227.215 173.5,220C 186.12,235.409 198.62,250.909 211,266.5C 211.667,267.167 211.667,267.833 211,268.5C 195.333,255.833 179.667,243.167 164,230.5C 163.333,231.5 163.333,232.5 164,233.5C 172.479,251.634 180.146,269.967 187,288.5C 174.333,271.833 161.667,255.167 149,238.5C 151.572,258.838 154.239,279.171 157,299.5C 149.487,281.145 141.987,262.812 134.5,244.5C 134.44,243.957 134.107,243.624 133.5,243.5C 132.52,246.086 132.187,248.753 132.5,251.5C 130.359,279.829 128.193,308.163 126,336.5C 123.08,305.54 120.413,274.54 118,243.5C 110.057,261.718 102.391,280.052 95,298.5C 97.1477,278.801 99.481,259.135 102,239.5C 89.6667,255.5 77.3333,271.5 65,287.5C 72.39,268.387 80.0567,249.387 88,230.5C 72.9243,242.62 57.7576,254.62 42.5,266.5C 53.194,250.559 65.194,235.059 78.5,220C 59.3422,227.117 40.3422,234.951 21.5,243.5C 21.1667,243.333 20.8333,243.167 20.5,243C 36.8333,230.667 53.1667,218.333 69.5,206C 49.872,208.518 30.2053,210.851 10.5,213C 28.7285,205.052 47.0618,197.385 65.5,190C 46.1022,188.901 26.7689,187.401 7.5,185.5C 7.72148,182.933 8.38815,180.599 9.5,178.5C 27.6182,177.837 45.6182,176.337 63.5,174C 48.2584,167.544 32.925,161.377 17.5,155.5C 17.5569,154.391 17.8902,153.391 18.5,152.5C 35.1711,154.573 51.8378,156.406 68.5,158C 55.6036,148.257 42.6036,138.757 29.5,129.5C 30.1667,128.167 30.8333,126.833 31.5,125.5C 46.5788,132.253 61.7454,138.92 77,145.5C 67.5074,131.243 57.0074,117.577 45.5,104.5C 45.8333,103.833 46.1667,103.167 46.5,102.5C 60.724,112.545 74.5573,123.211 88,134.5C 81.0149,116.066 73.5149,97.7328 65.5,79.5C 78.3498,94.1482 90.5165,109.481 102,125.5C 99.7044,104.766 97.0377,84.0991 94,63.5C 101.991,82.7994 109.991,102.133 118,121.5C 120.499,91.8524 122.665,62.1857 124.5,32.5C 124.842,31.6618 125.508,31.3284 126.5,31.5 Z"/></g>
<g><path style="opacity:0.978" fill="#02285d" d="M 124.5,32.5 C 122.665,62.1857 120.499,91.8524 118,121.5C 109.991,102.133 101.991,82.7994 94,63.5C 97.0377,84.0991 99.7044,104.766 102,125.5C 90.5165,109.481 78.3498,94.1482 65.5,79.5C 82.5486,60.4411 102.215,44.7744 124.5,32.5 Z"/></g>
<g><path style="opacity:0.976" fill="#062a5e" d="M 65.5,79.5 C 73.5149,97.7328 81.0149,116.066 88,134.5C 74.5573,123.211 60.724,112.545 46.5,102.5C 52.4858,94.5172 58.8191,86.8506 65.5,79.5 Z"/></g>
<g><path style="opacity:0.971" fill="#072a5e" d="M 45.5,104.5 C 57.0074,117.577 67.5074,131.243 77,145.5C 61.7454,138.92 46.5788,132.253 31.5,125.5C 35.4356,117.947 40.1023,110.947 45.5,104.5 Z"/></g>
<g><path style="opacity:1" fill="#8b9cb5" d="M 132.5,111.5 C 133.167,114.5 133.833,117.5 134.5,120.5C 134.44,121.043 134.107,121.376 133.5,121.5C 132.513,118.232 132.18,114.898 132.5,111.5 Z"/></g>
<g><path style="opacity:0.973" fill="#05295e" d="M 29.5,129.5 C 42.6036,138.757 55.6036,148.257 68.5,158C 51.8378,156.406 35.1711,154.573 18.5,152.5C 21.9124,144.676 25.5791,137.01 29.5,129.5 Z"/></g>
<g><path style="opacity:0.973" fill="#03285d" d="M 17.5,155.5 C 32.925,161.377 48.2584,167.544 63.5,174C 45.6182,176.337 27.6182,177.837 9.5,178.5C 11.3754,170.54 14.0421,162.873 17.5,155.5 Z"/></g>
<g><path style="opacity:1" fill="#536c90" d="M 187.5,173.5 C 189.5,174.167 191.5,174.833 193.5,175.5C 190.813,175.664 188.146,175.497 185.5,175C 186.044,174.283 186.711,173.783 187.5,173.5 Z"/></g>
<g><path style="opacity:1" fill="#6c82a1" d="M 278.5,181.5 C 279.675,181.281 280.675,181.614 281.5,182.5C 279.955,183.452 278.288,183.785 276.5,183.5C 277.167,182.833 277.833,182.167 278.5,181.5 Z"/></g>
<g><path style="opacity:0.998" fill="#f5971c" d="M 494.5,198.5 C 496.599,207.093 498.265,215.759 499.5,224.5C 499.5,236.833 499.5,249.167 499.5,261.5C 498.005,261.989 496.671,262.655 495.5,263.5C 492.458,263.733 489.792,264.733 487.5,266.5C 485.214,266.595 483.214,267.262 481.5,268.5C 477.463,269.065 473.797,270.399 470.5,272.5C 465.466,273.398 460.799,275.065 456.5,277.5C 454.214,277.595 452.214,278.262 450.5,279.5C 448.447,279.402 446.78,280.069 445.5,281.5C 439.468,282.731 433.801,284.731 428.5,287.5C 425.215,287.928 422.215,288.928 419.5,290.5C 416.458,290.733 413.792,291.733 411.5,293.5C 409.214,293.595 407.214,294.262 405.5,295.5C 401.463,296.065 397.797,297.399 394.5,299.5C 392.214,299.595 390.214,300.262 388.5,301.5C 385.458,301.733 382.792,302.733 380.5,304.5C 378.214,304.595 376.214,305.262 374.5,306.5C 370.463,307.065 366.797,308.399 363.5,310.5C 358.466,311.398 353.799,313.065 349.5,315.5C 347.214,315.595 345.214,316.262 343.5,317.5C 340.458,317.733 337.792,318.733 335.5,320.5C 333.214,320.595 331.214,321.262 329.5,322.5C 325.463,323.065 321.797,324.399 318.5,326.5C 316.214,326.595 314.214,327.262 312.5,328.5C 309.458,328.733 306.792,329.733 304.5,331.5C 302.214,331.595 300.214,332.262 298.5,333.5C 295.458,333.733 292.792,334.733 290.5,336.5C 288.214,336.595 286.214,337.262 284.5,338.5C 280.463,339.065 276.797,340.399 273.5,342.5C 271.214,342.595 269.214,343.262 267.5,344.5C 263.463,345.065 259.797,346.399 256.5,348.5C 251.466,349.398 246.799,351.065 242.5,353.5C 240.214,353.595 238.214,354.262 236.5,355.5C 233.458,355.733 230.792,356.733 228.5,358.5C 226.214,358.595 224.214,359.262 222.5,360.5C 218.463,361.065 214.797,362.399 211.5,364.5C 209.214,364.595 207.214,365.262 205.5,366.5C 202.458,366.733 199.792,367.733 197.5,369.5C 195.214,369.595 193.214,370.262 191.5,371.5C 187.463,372.065 183.797,373.399 180.5,375.5C 178.214,375.595 176.214,376.262 174.5,377.5C 171.458,377.733 168.792,378.733 166.5,380.5C 164.214,380.595 162.214,381.262 160.5,382.5C 156.463,383.065 152.797,384.399 149.5,386.5C 144.466,387.398 139.799,389.065 135.5,391.5C 133.214,391.595 131.214,392.262 129.5,393.5C 126.458,393.733 123.792,394.733 121.5,396.5C 119.214,396.595 117.214,397.262 115.5,398.5C 111.463,399.065 107.797,400.399 104.5,402.5C 102.214,402.595 100.214,403.262 98.5,404.5C 95.4582,404.733 92.7916,405.733 90.5,407.5C 88.2143,407.595 86.2143,408.262 84.5,409.5C 80.4632,410.065 76.7966,411.399 73.5,413.5C 70.0321,414.101 66.6988,415.101 63.5,416.5C 57.1126,410.446 51.4459,403.779 46.5,396.5C 78.7501,381.972 111.083,367.639 143.5,353.5C 184.656,335.344 225.656,317.011 266.5,298.5C 293.838,286.497 321.171,274.497 348.5,262.5C 389.656,244.344 430.656,226.011 471.5,207.5C 479.066,204.216 486.732,201.216 494.5,198.5 Z"/></g>
<g><path style="opacity:1" fill="#b2bdce" d="M 238.5,211.5 C 240.512,212.228 242.512,213.062 244.5,214C 240.3,214.279 236.3,213.779 232.5,212.5C 234.735,212.795 236.735,212.461 238.5,211.5 Z"/></g>
<g><path style="opacity:1" fill="#778ba8" d="M 134.5,244.5 C 133.833,246.833 133.167,249.167 132.5,251.5C 132.187,248.753 132.52,246.086 133.5,243.5C 134.107,243.624 134.44,243.957 134.5,244.5 Z"/></g>
<g><path style="opacity:1" fill="#091e46" d="M 471.5,207.5 C 430.656,226.011 389.656,244.344 348.5,262.5C 348.36,260.876 349.027,259.71 350.5,259C 389.145,242.676 427.479,225.676 465.5,208C 467.473,207.505 469.473,207.338 471.5,207.5 Z"/></g>
<g><path style="opacity:0.737" fill="#685544" d="M 499.5,261.5 C 499.5,262.167 499.5,262.833 499.5,263.5C 498.167,263.5 496.833,263.5 495.5,263.5C 496.671,262.655 498.005,261.989 499.5,261.5 Z"/></g>
<g><path style="opacity:0.996" fill="#fefefe" d="M 495.5,263.5 C 496.833,263.5 498.167,263.5 499.5,263.5C 499.5,267.167 499.5,270.833 499.5,274.5C 498.1,284.764 496.267,295.098 494,305.5C 492.031,314.9 489.198,323.9 485.5,332.5C 476.934,334.388 468.601,336.722 460.5,339.5C 452.899,340.898 445.566,342.898 438.5,345.5C 425.569,348.231 412.902,351.565 400.5,355.5C 395.278,356.387 390.278,357.721 385.5,359.5C 378.946,360.721 372.612,362.387 366.5,364.5C 358.899,365.898 351.566,367.898 344.5,370.5C 339.191,371.076 334.191,372.409 329.5,374.5C 310.243,378.926 291.243,383.926 272.5,389.5C 267.278,390.387 262.278,391.721 257.5,393.5C 249.899,394.898 242.566,396.898 235.5,399.5C 230.191,400.076 225.191,401.409 220.5,403.5C 201.243,407.926 182.243,412.926 163.5,418.5C 150.944,421.387 138.611,424.72 126.5,428.5C 112.799,431.256 99.4658,434.922 86.5,439.5C 78.2007,432.868 70.5341,425.535 63.5,417.5C 66.4535,416.572 69.4535,415.739 72.5,415C 73.056,414.617 73.3893,414.117 73.5,413.5C 77.5368,412.935 81.2034,411.601 84.5,409.5C 87.0101,409.946 89.0101,409.28 90.5,407.5C 93.5418,407.267 96.2084,406.267 98.5,404.5C 101.01,404.946 103.01,404.28 104.5,402.5C 108.537,401.935 112.203,400.601 115.5,398.5C 118.01,398.946 120.01,398.28 121.5,396.5C 124.542,396.267 127.208,395.267 129.5,393.5C 132.01,393.946 134.01,393.28 135.5,391.5C 140.579,390.588 145.245,388.921 149.5,386.5C 153.537,385.935 157.203,384.601 160.5,382.5C 163.01,382.946 165.01,382.28 166.5,380.5C 169.542,380.267 172.208,379.267 174.5,377.5C 177.01,377.946 179.01,377.28 180.5,375.5C 184.537,374.935 188.203,373.601 191.5,371.5C 194.01,371.946 196.01,371.28 197.5,369.5C 200.542,369.267 203.208,368.267 205.5,366.5C 208.01,366.946 210.01,366.28 211.5,364.5C 215.537,363.935 219.203,362.601 222.5,360.5C 225.01,360.946 227.01,360.28 228.5,358.5C 231.542,358.267 234.208,357.267 236.5,355.5C 239.01,355.946 241.01,355.28 242.5,353.5C 247.579,352.588 252.245,350.921 256.5,348.5C 260.537,347.935 264.203,346.601 267.5,344.5C 270.01,344.946 272.01,344.28 273.5,342.5C 277.537,341.935 281.203,340.601 284.5,338.5C 287.01,338.946 289.01,338.28 290.5,336.5C 293.649,336.585 296.316,335.585 298.5,333.5C 301.01,333.946 303.01,333.28 304.5,331.5C 307.542,331.267 310.208,330.267 312.5,328.5C 315.01,328.946 317.01,328.28 318.5,326.5C 322.537,325.935 326.203,324.601 329.5,322.5C 332.01,322.946 334.01,322.28 335.5,320.5C 338.649,320.585 341.316,319.585 343.5,317.5C 346.01,317.946 348.01,317.28 349.5,315.5C 354.579,314.588 359.245,312.921 363.5,310.5C 367.537,309.935 371.203,308.601 374.5,306.5C 377.01,306.946 379.01,306.28 380.5,304.5C 383.542,304.267 386.208,303.267 388.5,301.5C 391.01,301.946 393.01,301.28 394.5,299.5C 398.537,298.935 402.203,297.601 405.5,295.5C 408.01,295.946 410.01,295.28 411.5,293.5C 414.542,293.267 417.208,292.267 419.5,290.5C 422.992,290.554 425.992,289.554 428.5,287.5C 434.577,286.255 440.243,284.255 445.5,281.5C 447.553,281.598 449.22,280.931 450.5,279.5C 453.01,279.946 455.01,279.28 456.5,277.5C 461.579,276.588 466.245,274.921 470.5,272.5C 474.537,271.935 478.203,270.601 481.5,268.5C 484.01,268.946 486.01,268.28 487.5,266.5C 490.542,266.267 493.208,265.267 495.5,263.5 Z"/></g>
<g><path style="opacity:1" fill="#54412e" d="M 495.5,263.5 C 493.208,265.267 490.542,266.267 487.5,266.5C 489.792,264.733 492.458,263.733 495.5,263.5 Z"/></g>
<g><path style="opacity:1" fill="#82766b" d="M 487.5,266.5 C 486.01,268.28 484.01,268.946 481.5,268.5C 483.214,267.262 485.214,266.595 487.5,266.5 Z"/></g>
<g><path style="opacity:1" fill="#5a4837" d="M 481.5,268.5 C 478.203,270.601 474.537,271.935 470.5,272.5C 473.797,270.399 477.463,269.065 481.5,268.5 Z"/></g>
<g><path style="opacity:1" fill="#66574a" d="M 470.5,272.5 C 466.245,274.921 461.579,276.588 456.5,277.5C 460.799,275.065 465.466,273.398 470.5,272.5 Z"/></g>
<g><path style="opacity:1" fill="#82756a" d="M 456.5,277.5 C 455.01,279.28 453.01,279.946 450.5,279.5C 452.214,278.262 454.214,277.595 456.5,277.5 Z"/></g>
<g><path style="opacity:1" fill="#453525" d="M 450.5,279.5 C 449.22,280.931 447.553,281.598 445.5,281.5C 446.78,280.069 448.447,279.402 450.5,279.5 Z"/></g>
<g><path style="opacity:1" fill="#66574a" d="M 445.5,281.5 C 440.243,284.255 434.577,286.255 428.5,287.5C 433.801,284.731 439.468,282.731 445.5,281.5 Z"/></g>
<g><path style="opacity:1" fill="#6d5e51" d="M 428.5,287.5 C 425.992,289.554 422.992,290.554 419.5,290.5C 422.215,288.928 425.215,287.928 428.5,287.5 Z"/></g>
<g><path style="opacity:1" fill="#54422f" d="M 419.5,290.5 C 417.208,292.267 414.542,293.267 411.5,293.5C 413.792,291.733 416.458,290.733 419.5,290.5 Z"/></g>
<g><path style="opacity:1" fill="#83766c" d="M 411.5,293.5 C 410.01,295.28 408.01,295.946 405.5,295.5C 407.214,294.262 409.214,293.595 411.5,293.5 Z"/></g>
<g><path style="opacity:1" fill="#5a4938" d="M 405.5,295.5 C 402.203,297.601 398.537,298.935 394.5,299.5C 397.797,297.399 401.463,296.065 405.5,295.5 Z"/></g>
<g><path style="opacity:1" fill="#817367" d="M 394.5,299.5 C 393.01,301.28 391.01,301.946 388.5,301.5C 390.214,300.262 392.214,299.595 394.5,299.5 Z"/></g>
<g><path style="opacity:1" fill="#54412e" d="M 388.5,301.5 C 386.208,303.267 383.542,304.267 380.5,304.5C 382.792,302.733 385.458,301.733 388.5,301.5 Z"/></g>
<g><path style="opacity:1" fill="#82766b" d="M 380.5,304.5 C 379.01,306.28 377.01,306.946 374.5,306.5C 376.214,305.262 378.214,304.595 380.5,304.5 Z"/></g>
<g><path style="opacity:1" fill="#5a4837" d="M 374.5,306.5 C 371.203,308.601 367.537,309.935 363.5,310.5C 366.797,308.399 370.463,307.065 374.5,306.5 Z"/></g>
<g><path style="opacity:1" fill="#665749" d="M 363.5,310.5 C 359.245,312.921 354.579,314.588 349.5,315.5C 353.799,313.065 358.466,311.398 363.5,310.5 Z"/></g>
<g><path style="opacity:1" fill="#827569" d="M 349.5,315.5 C 348.01,317.28 346.01,317.946 343.5,317.5C 345.214,316.262 347.214,315.595 349.5,315.5 Z"/></g>
<g><path style="opacity:1" fill="#70655c" d="M 343.5,317.5 C 341.316,319.585 338.649,320.585 335.5,320.5C 337.792,318.733 340.458,317.733 343.5,317.5 Z"/></g>
<g><path style="opacity:1" fill="#83776d" d="M 335.5,320.5 C 334.01,322.28 332.01,322.946 329.5,322.5C 331.214,321.262 333.214,320.595 335.5,320.5 Z"/></g>
<g><path style="opacity:1" fill="#5a4939" d="M 329.5,322.5 C 326.203,324.601 322.537,325.935 318.5,326.5C 321.797,324.399 325.463,323.065 329.5,322.5 Z"/></g>
<g><path style="opacity:1" fill="#817468" d="M 318.5,326.5 C 317.01,328.28 315.01,328.946 312.5,328.5C 314.214,327.262 316.214,326.595 318.5,326.5 Z"/></g>
<g><path style="opacity:1" fill="#091e47" d="M 266.5,298.5 C 225.656,317.011 184.656,335.344 143.5,353.5C 143.36,351.876 144.027,350.71 145.5,350C 184.145,333.676 222.479,316.676 260.5,299C 262.473,298.505 264.473,298.338 266.5,298.5 Z"/></g>
<g><path style="opacity:1" fill="#54412f" d="M 312.5,328.5 C 310.208,330.267 307.542,331.267 304.5,331.5C 306.792,329.733 309.458,328.733 312.5,328.5 Z"/></g>
<g><path style="opacity:1" fill="#82766c" d="M 304.5,331.5 C 303.01,333.28 301.01,333.946 298.5,333.5C 300.214,332.262 302.214,331.595 304.5,331.5 Z"/></g>
<g><path style="opacity:1" fill="#72675f" d="M 298.5,333.5 C 296.316,335.585 293.649,336.585 290.5,336.5C 292.792,334.733 295.458,333.733 298.5,333.5 Z"/></g>
<g><path style="opacity:0.991" fill="#00275c" d="M 485.5,332.5 C 459.059,404.776 410.059,455.276 338.5,484C 317.652,491.713 296.319,496.88 274.5,499.5C 257.833,499.5 241.167,499.5 224.5,499.5C 172.18,493.63 126.18,473.63 86.5,439.5C 99.4658,434.922 112.799,431.256 126.5,428.5C 131.149,427.935 135.816,427.435 140.5,427C 140.167,426.667 139.833,426.333 139.5,426C 143.293,426.092 146.627,425.092 149.5,423C 154.184,422.565 158.851,422.065 163.5,421.5C 163.5,420.5 163.5,419.5 163.5,418.5C 182.243,412.926 201.243,407.926 220.5,403.5C 225.809,402.924 230.809,401.591 235.5,399.5C 243.648,398.847 250.981,397.847 257.5,396.5C 257.5,395.5 257.5,394.5 257.5,393.5C 262.278,391.721 267.278,390.387 272.5,389.5C 276.879,389.708 281.213,389.375 285.5,388.5C 286.91,388.132 287.91,387.299 288.5,386C 301.93,383.16 315.264,379.993 328.5,376.5C 328.863,375.817 329.196,375.15 329.5,374.5C 334.191,372.409 339.191,371.076 344.5,370.5C 351.861,369.627 359.194,368.627 366.5,367.5C 366.5,366.5 366.5,365.5 366.5,364.5C 373.61,364.826 379.944,363.159 385.5,359.5C 390.278,357.721 395.278,356.387 400.5,355.5C 408.282,353.852 416.282,352.519 424.5,351.5C 425.91,351.132 426.91,350.299 427.5,349C 430.882,348.824 434.215,348.324 437.5,347.5C 437.863,346.817 438.196,346.15 438.5,345.5C 445.861,344.627 453.194,343.627 460.5,342.5C 460.5,341.5 460.5,340.5 460.5,339.5C 468.601,336.722 476.934,334.388 485.5,332.5 Z"/></g>
<g><path style="opacity:1" fill="#83766c" d="M 290.5,336.5 C 289.01,338.28 287.01,338.946 284.5,338.5C 286.214,337.262 288.214,336.595 290.5,336.5 Z"/></g>
<g><path style="opacity:1" fill="#594939" d="M 284.5,338.5 C 281.203,340.601 277.537,341.935 273.5,342.5C 276.797,340.399 280.463,339.065 284.5,338.5 Z"/></g>
<g><path style="opacity:1" fill="#82756b" d="M 273.5,342.5 C 272.01,344.28 270.01,344.946 267.5,344.5C 269.214,343.262 271.214,342.595 273.5,342.5 Z"/></g>
<g><path style="opacity:1" fill="#1b2442" d="M 460.5,339.5 C 460.5,340.5 460.5,341.5 460.5,342.5C 453.194,343.627 445.861,344.627 438.5,345.5C 445.566,342.898 452.899,340.898 460.5,339.5 Z"/></g>
<g><path style="opacity:1" fill="#5a4837" d="M 267.5,344.5 C 264.203,346.601 260.537,347.935 256.5,348.5C 259.797,346.399 263.463,345.065 267.5,344.5 Z"/></g>
<g><path style="opacity:1" fill="#665749" d="M 256.5,348.5 C 252.245,350.921 247.579,352.588 242.5,353.5C 246.799,351.065 251.466,349.398 256.5,348.5 Z"/></g>
<g><path style="opacity:1" fill="#192446" d="M 438.5,345.5 C 438.196,346.15 437.863,346.817 437.5,347.5C 434.215,348.324 430.882,348.824 427.5,349C 426.91,350.299 425.91,351.132 424.5,351.5C 416.282,352.519 408.282,353.852 400.5,355.5C 412.902,351.565 425.569,348.231 438.5,345.5 Z"/></g>
<g><path style="opacity:1" fill="#817569" d="M 242.5,353.5 C 241.01,355.28 239.01,355.946 236.5,355.5C 238.214,354.262 240.214,353.595 242.5,353.5 Z"/></g>
<g><path style="opacity:1" fill="#544230" d="M 236.5,355.5 C 234.208,357.267 231.542,358.267 228.5,358.5C 230.792,356.733 233.458,355.733 236.5,355.5 Z"/></g>
<g><path style="opacity:1" fill="#83776d" d="M 228.5,358.5 C 227.01,360.28 225.01,360.946 222.5,360.5C 224.214,359.262 226.214,358.595 228.5,358.5 Z"/></g>
<g><path style="opacity:1" fill="#5a4939" d="M 222.5,360.5 C 219.203,362.601 215.537,363.935 211.5,364.5C 214.797,362.399 218.463,361.065 222.5,360.5 Z"/></g>
<g><path style="opacity:1" fill="#1e2541" d="M 385.5,359.5 C 379.944,363.159 373.61,364.826 366.5,364.5C 372.612,362.387 378.946,360.721 385.5,359.5 Z"/></g>
<g><path style="opacity:1" fill="#817468" d="M 211.5,364.5 C 210.01,366.28 208.01,366.946 205.5,366.5C 207.214,365.262 209.214,364.595 211.5,364.5 Z"/></g>
<g><path style="opacity:1" fill="#54412f" d="M 205.5,366.5 C 203.208,368.267 200.542,369.267 197.5,369.5C 199.792,367.733 202.458,366.733 205.5,366.5 Z"/></g>
<g><path style="opacity:1" fill="#1b2442" d="M 366.5,364.5 C 366.5,365.5 366.5,366.5 366.5,367.5C 359.194,368.627 351.861,369.627 344.5,370.5C 351.566,367.898 358.899,365.898 366.5,364.5 Z"/></g>
<g><path style="opacity:1" fill="#83766c" d="M 197.5,369.5 C 196.01,371.28 194.01,371.946 191.5,371.5C 193.214,370.262 195.214,369.595 197.5,369.5 Z"/></g>
<g><path style="opacity:1" fill="#5a4838" d="M 191.5,371.5 C 188.203,373.601 184.537,374.935 180.5,375.5C 183.797,373.399 187.463,372.065 191.5,371.5 Z"/></g>
<g><path style="opacity:1" fill="#817367" d="M 180.5,375.5 C 179.01,377.28 177.01,377.946 174.5,377.5C 176.214,376.262 178.214,375.595 180.5,375.5 Z"/></g>
<g><path style="opacity:1" fill="#54412e" d="M 174.5,377.5 C 172.208,379.267 169.542,380.267 166.5,380.5C 168.792,378.733 171.458,377.733 174.5,377.5 Z"/></g>
<g><path style="opacity:1" fill="#1a2545" d="M 329.5,374.5 C 329.196,375.15 328.863,375.817 328.5,376.5C 315.264,379.993 301.93,383.16 288.5,386C 287.91,387.299 286.91,388.132 285.5,388.5C 281.213,389.375 276.879,389.708 272.5,389.5C 291.243,383.926 310.243,378.926 329.5,374.5 Z"/></g>
<g><path style="opacity:1" fill="#82766a" d="M 166.5,380.5 C 165.01,382.28 163.01,382.946 160.5,382.5C 162.214,381.262 164.214,380.595 166.5,380.5 Z"/></g>
<g><path style="opacity:1" fill="#594737" d="M 160.5,382.5 C 157.203,384.601 153.537,385.935 149.5,386.5C 152.797,384.399 156.463,383.065 160.5,382.5 Z"/></g>
<g><path style="opacity:1" fill="#655547" d="M 149.5,386.5 C 145.245,388.921 140.579,390.588 135.5,391.5C 139.799,389.065 144.466,387.398 149.5,386.5 Z"/></g>
<g><path style="opacity:1" fill="#817469" d="M 135.5,391.5 C 134.01,393.28 132.01,393.946 129.5,393.5C 131.214,392.262 133.214,391.595 135.5,391.5 Z"/></g>
<g><path style="opacity:1" fill="#544230" d="M 129.5,393.5 C 127.208,395.267 124.542,396.267 121.5,396.5C 123.792,394.733 126.458,393.733 129.5,393.5 Z"/></g>
<g><path style="opacity:1" fill="#83776d" d="M 121.5,396.5 C 120.01,398.28 118.01,398.946 115.5,398.5C 117.214,397.262 119.214,396.595 121.5,396.5 Z"/></g>
<g><path style="opacity:1" fill="#1b2542" d="M 257.5,393.5 C 257.5,394.5 257.5,395.5 257.5,396.5C 250.981,397.847 243.648,398.847 235.5,399.5C 242.566,396.898 249.899,394.898 257.5,393.5 Z"/></g>
<g><path style="opacity:1" fill="#5a4939" d="M 115.5,398.5 C 112.203,400.601 108.537,401.935 104.5,402.5C 107.797,400.399 111.463,399.065 115.5,398.5 Z"/></g>
<g><path style="opacity:1" fill="#292c35" d="M 235.5,399.5 C 230.809,401.591 225.809,402.924 220.5,403.5C 225.191,401.409 230.191,400.076 235.5,399.5 Z"/></g>
<g><path style="opacity:1" fill="#817468" d="M 104.5,402.5 C 103.01,404.28 101.01,404.946 98.5,404.5C 100.214,403.262 102.214,402.595 104.5,402.5 Z"/></g>
<g><path style="opacity:1" fill="#54412f" d="M 98.5,404.5 C 96.2084,406.267 93.5418,407.267 90.5,407.5C 92.7916,405.733 95.4582,404.733 98.5,404.5 Z"/></g>
<g><path style="opacity:1" fill="#82766b" d="M 90.5,407.5 C 89.0101,409.28 87.0101,409.946 84.5,409.5C 86.2143,408.262 88.2143,407.595 90.5,407.5 Z"/></g>
<g><path style="opacity:1" fill="#5a4838" d="M 84.5,409.5 C 81.2034,411.601 77.5368,412.935 73.5,413.5C 76.7966,411.399 80.4632,410.065 84.5,409.5 Z"/></g>
<g><path style="opacity:1" fill="#6a5d52" d="M 73.5,413.5 C 73.3893,414.117 73.056,414.617 72.5,415C 69.4535,415.739 66.4535,416.572 63.5,417.5C 63.5,417.167 63.5,416.833 63.5,416.5C 66.6988,415.101 70.0321,414.101 73.5,413.5 Z"/></g>
<g><path style="opacity:1" fill="#1a2442" d="M 163.5,418.5 C 163.5,419.5 163.5,420.5 163.5,421.5C 158.851,422.065 154.184,422.565 149.5,423C 146.627,425.092 143.293,426.092 139.5,426C 139.833,426.333 140.167,426.667 140.5,427C 135.816,427.435 131.149,427.935 126.5,428.5C 138.611,424.72 150.944,421.387 163.5,418.5 Z"/></g>
</svg>
