<?xml version="1.0" encoding="UTF-8"?>
<!DOCTYPE svg PUBLIC "-//W3C//DTD SVG 1.1//EN" "http://www.w3.org/Graphics/SVG/1.1/DTD/svg11.dtd">
<svg xmlns="http://www.w3.org/2000/svg" version="1.1" width="500px" height="500px" style="shape-rendering:geometricPrecision; text-rendering:geometricPrecision; image-rendering:optimizeQuality; fill-rule:evenodd; clip-rule:evenodd" xmlns:xlink="http://www.w3.org/1999/xlink">
<g><path style="opacity:0.987" fill="#cc2a3d" d="M 225.5,-0.5 C 241.5,-0.5 257.5,-0.5 273.5,-0.5C 334.033,6.60227 385.7,31.6023 428.5,74.5C 309.332,74.8329 190.332,74.4995 71.5,73.5C 114.172,31.1667 165.505,6.50001 225.5,-0.5 Z"/></g>
<g><path style="opacity:0.996" fill="#006232" d="M 71.5,73.5 C 190.332,74.4995 309.332,74.8329 428.5,74.5C 468.79,116.422 492.457,166.422 499.5,224.5C 499.5,241.167 499.5,257.833 499.5,274.5C 493.008,332.809 469.342,382.809 428.5,424.5C 309.332,424.167 190.332,424.5 71.5,425.5C 30.0738,383.286 6.07376,332.619 -0.5,273.5C -0.5,257.5 -0.5,241.5 -0.5,225.5C 6.33828,166.498 30.3383,115.832 71.5,73.5 Z"/></g>
<g><path style="opacity:1" fill="#fcc300" d="M 248.5,118.5 C 249.497,118.47 250.164,118.97 250.5,120C 254.936,133.141 259.269,146.308 263.5,159.5C 278.155,160.333 292.822,160.833 307.5,161C 295.558,169.786 283.891,178.786 272.5,188C 277.508,201.681 281.675,215.515 285,229.5C 273.255,220.711 261.422,212.044 249.5,203.5C 237.807,212.36 225.974,221.027 214,229.5C 217.325,215.515 221.492,201.681 226.5,188C 215.109,178.786 203.442,169.786 191.5,161C 206.178,160.833 220.845,160.333 235.5,159.5C 240.04,145.882 244.373,132.215 248.5,118.5 Z"/></g>
<g><path style="opacity:1" fill="#78901b" d="M 93.5,188.5 C 92.8333,187.5 92.1667,186.5 91.5,185.5C 91.281,184.325 91.6143,183.325 92.5,182.5C 93.4656,184.396 93.7989,186.396 93.5,188.5 Z"/></g>
<g><path style="opacity:1" fill="#85951a" d="M 407.5,184.5 C 406.833,186.833 406.167,189.167 405.5,191.5C 405.183,188.428 405.516,185.428 406.5,182.5C 407.298,182.957 407.631,183.624 407.5,184.5 Z"/></g>
<g><path style="opacity:1" fill="#fdc300" d="M 407.5,184.5 C 419.811,258.141 395.477,315.974 334.5,358C 285.78,385.535 235.447,388.869 183.5,368C 122.587,337.877 90.9207,288.71 88.5,220.5C 88.1166,208.697 89.1166,197.031 91.5,185.5C 92.1667,186.5 92.8333,187.5 93.5,188.5C 98.3168,239.993 121.983,280.16 164.5,309C 209.537,336.044 256.87,340.711 306.5,323C 364.678,298.298 397.678,254.465 405.5,191.5C 406.167,189.167 406.833,186.833 407.5,184.5 Z"/></g>
<g><path style="opacity:0.987" fill="#cc2a3d" d="M 428.5,424.5 C 386.197,467.65 334.863,492.65 274.5,499.5C 257.833,499.5 241.167,499.5 224.5,499.5C 164.798,492.401 113.798,467.734 71.5,425.5C 190.332,424.5 309.332,424.167 428.5,424.5 Z"/></g>
</svg>
