<?xml version="1.0" encoding="UTF-8"?>
<!DOCTYPE svg PUBLIC "-//W3C//DTD SVG 1.1//EN" "http://www.w3.org/Graphics/SVG/1.1/DTD/svg11.dtd">
<svg xmlns="http://www.w3.org/2000/svg" version="1.1" width="500px" height="500px" style="shape-rendering:geometricPrecision; text-rendering:geometricPrecision; image-rendering:optimizeQuality; fill-rule:evenodd; clip-rule:evenodd" xmlns:xlink="http://www.w3.org/1999/xlink">
<g><path style="opacity:0.991" fill="#e92739" d="M 225.5,-0.5 C 241.5,-0.5 257.5,-0.5 273.5,-0.5C 358.148,10.2065 422.481,51.8732 466.5,124.5C 321.833,124.5 177.167,124.5 32.5,124.5C 76.5662,51.9426 140.9,10.2759 225.5,-0.5 Z"/></g>
<g><path style="opacity:0.997" fill="#1a206c" d="M 32.5,124.5 C 177.167,124.5 321.833,124.5 466.5,124.5C 484.306,155.584 495.306,188.918 499.5,224.5C 499.5,232.833 499.5,241.167 499.5,249.5C 332.833,249.5 166.167,249.5 -0.5,249.5C -0.5,241.5 -0.5,233.5 -0.5,225.5C 3.4864,189.541 14.4864,155.874 32.5,124.5 Z"/></g>
<g><path style="opacity:0.997" fill="#fed400" d="M -0.5,249.5 C 166.167,249.5 332.833,249.5 499.5,249.5C 499.5,257.833 499.5,266.167 499.5,274.5C 495.581,310.178 484.581,343.512 466.5,374.5C 321.833,374.5 177.167,374.5 32.5,374.5C 14.4864,343.126 3.4864,309.459 -0.5,273.5C -0.5,265.5 -0.5,257.5 -0.5,249.5 Z"/></g>
<g><path style="opacity:0.992" fill="#00a550" d="M 32.5,374.5 C 177.167,374.5 321.833,374.5 466.5,374.5C 429.657,436.628 375.99,476.461 305.5,494C 295.064,496.071 284.73,497.905 274.5,499.5C 257.833,499.5 241.167,499.5 224.5,499.5C 140.313,488.432 76.3133,446.765 32.5,374.5 Z"/></g>
</svg>
