<?xml version="1.0" encoding="UTF-8"?>
<!DOCTYPE svg PUBLIC "-//W3C//DTD SVG 1.1//EN" "http://www.w3.org/Graphics/SVG/1.1/DTD/svg11.dtd">
<svg xmlns="http://www.w3.org/2000/svg" version="1.1" width="500px" height="500px" style="shape-rendering:geometricPrecision; text-rendering:geometricPrecision; image-rendering:optimizeQuality; fill-rule:evenodd; clip-rule:evenodd" xmlns:xlink="http://www.w3.org/1999/xlink">
<g><path style="opacity:0.995" fill="#75b2dd" d="M 225.5,-0.5 C 241.5,-0.5 257.5,-0.5 273.5,-0.5C 362.269,10.9489 428.436,55.6156 472,133.5C 486.559,162.333 495.726,192.666 499.5,224.5C 499.5,241.167 499.5,257.833 499.5,274.5C 487.764,361.841 443.764,427.341 367.5,471C 338.093,486.083 307.093,495.583 274.5,499.5C 257.833,499.5 241.167,499.5 224.5,499.5C 132.596,487.072 65.4294,439.739 23,357.5C 10.7506,330.604 2.91724,302.604 -0.5,273.5C -0.5,257.5 -0.5,241.5 -0.5,225.5C 11.4543,135.075 57.4543,68.242 137.5,25C 165.514,11.5012 194.847,3.00119 225.5,-0.5 Z"/></g>
<g><path style="opacity:1" fill="#fcfdfe" d="M 260.5,83.5 C 272.167,84.1667 283.833,84.8333 295.5,85.5C 286.784,91.9465 277.951,98.2798 269,104.5C 271.593,116.278 274.593,127.945 278,139.5C 268.411,132.622 258.911,125.622 249.5,118.5C 240.089,125.622 230.589,132.622 221,139.5C 223.671,128.15 227.171,116.983 231.5,106C 222.315,98.913 212.981,92.0797 203.5,85.5C 215.167,84.8333 226.833,84.1667 238.5,83.5C 241.968,72.4292 245.635,61.4292 249.5,50.5C 253.768,61.3035 257.435,72.3035 260.5,83.5 Z"/></g>
<g><path style="opacity:1" fill="#b2d4ec" d="M 238.5,83.5 C 226.833,84.1667 215.167,84.8333 203.5,85.5C 202.957,85.44 202.624,85.1067 202.5,84.5C 214.482,83.501 226.482,83.1677 238.5,83.5 Z"/></g>
<g><path style="opacity:1" fill="#b2d4ec" d="M 260.5,83.5 C 272.518,83.1677 284.518,83.501 296.5,84.5C 296.376,85.1067 296.043,85.44 295.5,85.5C 283.833,84.8333 272.167,84.1667 260.5,83.5 Z"/></g>
<g><path style="opacity:1" fill="#fcfdfe" d="M 85.5,203.5 C 91.9465,212.216 98.2798,221.049 104.5,230C 106.167,230.667 107.833,230.667 109.5,230C 119.408,226.361 129.408,223.361 139.5,221C 132.451,230.277 125.784,239.777 119.5,249.5C 125.784,259.223 132.451,268.723 139.5,278C 127.945,274.593 116.278,271.593 104.5,269C 98.2798,277.951 91.9465,286.784 85.5,295.5C 84.8333,283.833 84.1667,272.167 83.5,260.5C 72.3035,257.435 61.3035,253.768 50.5,249.5C 61.4081,245.545 72.4081,241.879 83.5,238.5C 84.1667,226.833 84.8333,215.167 85.5,203.5 Z"/></g>
<g><path style="opacity:1" fill="#b2d4ec" d="M 85.5,203.5 C 84.8333,215.167 84.1667,226.833 83.5,238.5C 83.1677,226.482 83.501,214.482 84.5,202.5C 85.1067,202.624 85.44,202.957 85.5,203.5 Z"/></g>
<g><path style="opacity:1" fill="#fdfefe" d="M 413.5,203.5 C 414.167,215.167 414.833,226.833 415.5,238.5C 426.159,242.164 436.826,245.831 447.5,249.5C 436.953,253.571 426.286,257.238 415.5,260.5C 414.833,272.167 414.167,283.833 413.5,295.5C 407.054,286.784 400.72,277.951 394.5,269C 392.833,268.333 391.167,268.333 389.5,269C 379.461,272.239 369.461,275.239 359.5,278C 366.378,268.411 373.378,258.911 380.5,249.5C 373.378,240.089 366.378,230.589 359.5,221C 369.189,223.561 378.856,226.561 388.5,230C 390.5,230.667 392.5,230.667 394.5,230C 401.211,221.402 407.544,212.568 413.5,203.5 Z"/></g>
<g><path style="opacity:1" fill="#b6d6ed" d="M 413.5,203.5 C 413.56,202.957 413.893,202.624 414.5,202.5C 415.499,214.482 415.832,226.482 415.5,238.5C 414.833,226.833 414.167,215.167 413.5,203.5 Z"/></g>
<g><path style="opacity:1" fill="#b2d4ec" d="M 83.5,260.5 C 84.1667,272.167 84.8333,283.833 85.5,295.5C 85.44,296.043 85.1067,296.376 84.5,296.5C 83.501,284.518 83.1677,272.518 83.5,260.5 Z"/></g>
<g><path style="opacity:1" fill="#b6d6ed" d="M 415.5,260.5 C 415.832,272.518 415.499,284.518 414.5,296.5C 413.893,296.376 413.56,296.043 413.5,295.5C 414.167,283.833 414.833,272.167 415.5,260.5 Z"/></g>
<g><path style="opacity:1" fill="#fdfefe" d="M 295.5,413.5 C 283.833,414.167 272.167,414.833 260.5,415.5C 257.238,426.286 253.571,436.953 249.5,447.5C 245.524,436.923 241.857,426.256 238.5,415.5C 226.833,414.833 215.167,414.167 203.5,413.5C 212.568,407.544 221.402,401.211 230,394.5C 230.667,392.5 230.667,390.5 230,388.5C 226.561,378.856 223.561,369.189 221,359.5C 230.589,366.378 240.089,373.378 249.5,380.5C 258.911,373.378 268.411,366.378 278,359.5C 275.239,369.461 272.239,379.461 269,389.5C 268.333,391.167 268.333,392.833 269,394.5C 277.951,400.72 286.784,407.054 295.5,413.5 Z"/></g>
<g><path style="opacity:1" fill="#b6d6ed" d="M 203.5,413.5 C 215.167,414.167 226.833,414.833 238.5,415.5C 226.482,415.832 214.482,415.499 202.5,414.5C 202.624,413.893 202.957,413.56 203.5,413.5 Z"/></g>
<g><path style="opacity:1" fill="#b6d6ed" d="M 295.5,413.5 C 296.043,413.56 296.376,413.893 296.5,414.5C 284.518,415.499 272.518,415.832 260.5,415.5C 272.167,414.833 283.833,414.167 295.5,413.5 Z"/></g>
</svg>
