<?xml version="1.0" encoding="UTF-8"?>
<!DOCTYPE svg PUBLIC "-//W3C//DTD SVG 1.1//EN" "http://www.w3.org/Graphics/SVG/1.1/DTD/svg11.dtd">
<svg xmlns="http://www.w3.org/2000/svg" version="1.1" width="500px" height="500px" style="shape-rendering:geometricPrecision; text-rendering:geometricPrecision; image-rendering:optimizeQuality; fill-rule:evenodd; clip-rule:evenodd" xmlns:xlink="http://www.w3.org/1999/xlink">
<g><path style="opacity:0.997" fill="#fed100" d="M 225.5,-0.5 C 241.5,-0.5 257.5,-0.5 273.5,-0.5C 293.711,1.80256 313.378,6.46923 332.5,13.5C 332.5,170.833 332.5,328.167 332.5,485.5C 323.9,489.198 314.9,492.031 305.5,494C 295.064,496.071 284.73,497.905 274.5,499.5C 257.833,499.5 241.167,499.5 224.5,499.5C 204.6,497.253 185.267,492.586 166.5,485.5C 166.5,328.167 166.5,170.833 166.5,13.5C 185.622,6.46923 205.289,1.80256 225.5,-0.5 Z"/></g>
<g><path style="opacity:0.993" fill="#0246ad" d="M 166.5,13.5 C 166.5,170.833 166.5,328.167 166.5,485.5C 84.513,455.009 31.3463,397.676 7,313.5C 3.72528,300.168 1.22528,286.834 -0.5,273.5C -0.5,257.5 -0.5,241.5 -0.5,225.5C 11.4543,135.075 57.4543,68.242 137.5,25C 146.845,20.2755 156.512,16.4422 166.5,13.5 Z"/></g>
<g><path style="opacity:0.993" fill="#cc0a2e" d="M 332.5,13.5 C 412.881,43.3844 465.714,99.3844 491,181.5C 494.695,195.808 497.529,210.141 499.5,224.5C 499.5,241.167 499.5,257.833 499.5,274.5C 486.192,370.295 435.858,438.795 348.5,480C 343.244,482.141 337.91,483.974 332.5,485.5C 332.5,328.167 332.5,170.833 332.5,13.5 Z"/></g>
<g><path style="opacity:1" fill="#9a6f49" d="M 254.5,184.5 C 255.582,185.594 256.248,186.927 256.5,188.5C 255.731,191.115 255.397,193.781 255.5,196.5C 255.423,200.215 255.756,203.881 256.5,207.5C 256.225,209.842 255.392,209.842 254,207.5C 253.821,204.447 253.321,201.447 252.5,198.5C 252.167,200 251.833,201.5 251.5,203C 251.642,206.015 252.142,208.849 253,211.5C 252.333,210.833 251.667,210.167 251,209.5C 250.494,194.878 249.66,194.878 248.5,209.5C 247.34,194.878 246.506,194.878 246,209.5C 245.333,210.167 244.667,210.833 244,211.5C 245.297,206.262 244.297,205.596 241,209.5C 240.536,208.906 240.369,208.239 240.5,207.5C 241.222,207.082 241.722,206.416 242,205.5C 242.781,200.446 242.614,195.446 241.5,190.5C 242.716,189.904 244.049,189.737 245.5,190C 242.444,187.127 242.944,185.627 247,185.5C 249.402,185.685 251.569,186.185 253.5,187C 252.833,186.333 252.167,185.667 251.5,185C 247.867,184.851 244.534,184.018 241.5,182.5C 241.5,182.167 241.5,181.833 241.5,181.5C 246.286,180.446 250.62,181.446 254.5,184.5 Z"/></g>
<g><path style="opacity:1" fill="#b09500" d="M 241.5,181.5 C 241.5,181.833 241.5,182.167 241.5,182.5C 238.487,182.764 236.154,184.097 234.5,186.5C 234.855,187.522 235.522,188.189 236.5,188.5C 237.787,191.43 237.287,193.763 235,195.5C 234.667,195.167 234.333,194.833 234,194.5C 233.501,190.514 233.334,186.514 233.5,182.5C 232.167,182.5 230.833,182.5 229.5,182.5C 229.105,179.477 230.105,178.477 232.5,179.5C 233.281,178.271 233.781,176.938 234,175.5C 234.333,176.167 234.667,176.833 235,177.5C 235.423,176.044 236.256,175.544 237.5,176C 236.269,177.183 236.269,178.349 237.5,179.5C 238.167,179.167 238.833,178.833 239.5,178.5C 240.176,179.602 240.842,180.602 241.5,181.5 Z"/></g>
<g><path style="opacity:1" fill="#2f2315" d="M 254.5,184.5 C 255.5,184.5 256.5,184.5 257.5,184.5C 257.62,186.199 257.954,187.865 258.5,189.5C 257.345,191.895 256.345,194.229 255.5,196.5C 255.397,193.781 255.731,191.115 256.5,188.5C 256.248,186.927 255.582,185.594 254.5,184.5 Z"/></g>
<g><path style="opacity:1" fill="#18130b" d="M 225.5,206.5 C 224.791,207.404 223.791,207.737 222.5,207.5C 222.297,209.39 222.963,210.89 224.5,212C 223.833,212.667 223.167,212.667 222.5,212C 221.789,210.745 220.956,209.579 220,208.5C 218.625,211.61 216.458,212.61 213.5,211.5C 212.167,213.167 212.167,214.833 213.5,216.5C 216.053,216.055 218.72,216.055 221.5,216.5C 221.5,216.833 221.5,217.167 221.5,217.5C 220.221,218.968 218.554,219.635 216.5,219.5C 216.17,236.009 216.504,252.342 217.5,268.5C 216.699,270.042 216.366,271.708 216.5,273.5C 215.442,272.4 214.608,271.066 214,269.5C 214.096,267.619 213.929,265.953 213.5,264.5C 214.511,262.598 214.678,260.598 214,258.5C 213.667,258.833 213.333,259.167 213,259.5C 211.506,255.696 210.672,256.029 210.5,260.5C 209.31,258.645 207.977,256.812 206.5,255C 208.107,253.951 208.773,252.451 208.5,250.5C 207.968,247.752 206.968,245.752 205.5,244.5C 204.596,245.209 204.263,246.209 204.5,247.5C 203.728,246.306 202.728,245.306 201.5,244.5C 200.222,243.251 199.222,241.751 198.5,240C 199.449,239.383 200.282,239.549 201,240.5C 201.743,238.559 201.576,236.726 200.5,235C 202.464,224.088 203.131,212.922 202.5,201.5C 204.396,196.6 207.729,192.934 212.5,190.5C 219.647,193.611 222.98,198.945 222.5,206.5C 223.5,206.5 224.5,206.5 225.5,206.5 Z"/></g>
<g><path style="opacity:1" fill="#a77850" d="M 211.5,193.5 C 217.977,195.26 220.644,199.26 219.5,205.5C 217.703,203.869 216.536,201.869 216,199.5C 214.929,203.041 213.263,203.708 211,201.5C 210.915,199.915 210.749,198.582 210.5,197.5C 209.784,199.482 208.617,201.149 207,202.5C 205.244,200.941 205.244,199.274 207,197.5C 208.667,196.267 210.167,194.933 211.5,193.5 Z"/></g>
<g><path style="opacity:1" fill="#1b150b" d="M 295.5,247.5 C 295.675,249.621 295.341,251.621 294.5,253.5C 293.669,242.007 293.169,230.341 293,218.5C 291.667,221.167 290.333,221.167 289,218.5C 288.5,233.83 288.333,249.163 288.5,264.5C 288.5,264.833 288.5,265.167 288.5,265.5C 287.833,249.995 287.167,234.328 286.5,218.5C 285.483,221.028 284.316,221.028 283,218.5C 282.171,237.005 282.338,255.338 283.5,273.5C 282.833,274.833 281.833,275.833 280.5,276.5C 279.262,274.786 278.595,272.786 278.5,270.5C 279.167,270.5 279.5,270.833 279.5,271.5C 279.56,272.043 279.893,272.376 280.5,272.5C 281.833,254.5 281.833,236.5 280.5,218.5C 279.893,218.624 279.56,218.957 279.5,219.5C 278.041,219.567 276.708,219.234 275.5,218.5C 275.5,217.833 275.5,217.167 275.5,216.5C 277.977,216.949 279.977,216.283 281.5,214.5C 280.192,212.359 278.692,210.359 277,208.5C 275.092,211.332 274.259,210.999 274.5,207.5C 273.209,207.737 272.209,207.404 271.5,206.5C 272.5,206.5 273.5,206.5 274.5,206.5C 274.02,198.945 277.353,193.611 284.5,190.5C 288.475,192.642 291.642,195.642 294,199.5C 295.47,215.404 295.97,231.404 295.5,247.5 Z"/></g>
<g><path style="opacity:1" fill="#a87951" d="M 283.5,193.5 C 287.386,194.383 290.053,196.717 291.5,200.5C 291.192,201.308 290.692,201.975 290,202.5C 288.383,201.149 287.216,199.482 286.5,197.5C 287.023,199.718 286.19,201.718 284,203.5C 282.615,202.449 281.615,201.116 281,199.5C 277.466,207.723 276.299,207.389 277.5,198.5C 279.941,197.291 281.941,195.624 283.5,193.5 Z"/></g>
<g><path style="opacity:1" fill="#3c2614" d="M 241.5,182.5 C 244.534,184.018 247.867,184.851 251.5,185C 252.167,185.667 252.833,186.333 253.5,187C 251.569,186.185 249.402,185.685 247,185.5C 242.944,185.627 242.444,187.127 245.5,190C 244.049,189.737 242.716,189.904 241.5,190.5C 242.614,195.446 242.781,200.446 242,205.5C 241.722,206.416 241.222,207.082 240.5,207.5C 241.496,202.537 241.663,197.537 241,192.5C 240.338,191.016 239.504,189.683 238.5,188.5C 237.833,188.5 237.167,188.5 236.5,188.5C 235.522,188.189 234.855,187.522 234.5,186.5C 236.154,184.097 238.487,182.764 241.5,182.5 Z"/></g>
<g><path style="opacity:1" fill="#ab8605" d="M 238.5,188.5 C 238.082,187.778 237.416,187.278 236.5,187C 238.259,186.202 239.926,186.369 241.5,187.5C 240.675,188.386 239.675,188.719 238.5,188.5 Z"/></g>
<g><path style="opacity:1" fill="#7b593b" d="M 214.5,203.5 C 218.66,205.133 219.16,207.466 216,210.5C 212.056,208.845 211.556,206.512 214.5,203.5 Z"/></g>
<g><path style="opacity:1" fill="#5f452f" d="M 203.5,202.5 C 204.735,202.721 205.735,203.388 206.5,204.5C 209.603,201.719 211.27,202.552 211.5,207C 211.401,209.548 210.068,211.048 207.5,211.5C 209.165,214.177 208.665,216.177 206,217.5C 204.558,216.788 203.725,215.621 203.5,214C 203.818,210.273 203.818,206.44 203.5,202.5 Z"/></g>
<g><path style="opacity:1" fill="#64492f" d="M 271.5,206.5 C 272.209,207.404 273.209,207.737 274.5,207.5C 274.259,210.999 275.092,211.332 277,208.5C 278.692,210.359 280.192,212.359 281.5,214.5C 279.977,216.283 277.977,216.949 275.5,216.5C 275.953,215.542 276.619,214.708 277.5,214C 270.174,213.5 262.841,213.334 255.5,213.5C 255.369,212.624 255.702,211.957 256.5,211.5C 257.995,212.705 259.328,212.705 260.5,211.5C 264.559,210.636 268.226,208.97 271.5,206.5 Z"/></g>
<g><path style="opacity:1" fill="#5d442e" d="M 286.5,202.5 C 288.044,202.703 289.378,203.37 290.5,204.5C 291.167,203.833 291.833,203.167 292.5,202.5C 293.185,206.384 293.518,210.217 293.5,214C 292.517,217.83 290.684,218.33 288,215.5C 287.228,215.645 286.561,215.978 286,216.5C 286.258,211.807 286.425,207.14 286.5,202.5 Z"/></g>
<g><path style="opacity:1" fill="#36281b" d="M 256.5,207.5 C 257.833,208.833 259.167,210.167 260.5,211.5C 259.328,212.705 257.995,212.705 256.5,211.5C 255.702,211.957 255.369,212.624 255.5,213.5C 254.833,213.5 254.167,213.5 253.5,213.5C 252.312,212.636 251.145,211.636 250,210.5C 249,213.167 248,213.167 247,210.5C 245.591,211.781 244.091,212.781 242.5,213.5C 239.833,213.5 237.167,213.5 234.5,213.5C 234.167,212.833 233.833,212.167 233.5,211.5C 234.873,211.657 236.207,211.49 237.5,211C 238.163,209.482 239.163,208.315 240.5,207.5C 240.369,208.239 240.536,208.906 241,209.5C 244.297,205.596 245.297,206.262 244,211.5C 244.667,210.833 245.333,210.167 246,209.5C 246.506,194.878 247.34,194.878 248.5,209.5C 249.66,194.878 250.494,194.878 251,209.5C 251.667,210.167 252.333,210.833 253,211.5C 252.142,208.849 251.642,206.015 251.5,203C 251.833,201.5 252.167,200 252.5,198.5C 253.321,201.447 253.821,204.447 254,207.5C 255.392,209.842 256.225,209.842 256.5,207.5 Z"/></g>
<g><path style="opacity:1" fill="#b18150" d="M 253.5,213.5 C 249.833,213.5 246.167,213.5 242.5,213.5C 244.091,212.781 245.591,211.781 247,210.5C 248,213.167 249,213.167 250,210.5C 251.145,211.636 252.312,212.636 253.5,213.5 Z"/></g>
<g><path style="opacity:1" fill="#ac7c53" d="M 210.5,211.5 C 211.613,212.946 211.78,214.613 211,216.5C 209.212,214.977 209.045,213.31 210.5,211.5 Z"/></g>
<g><path style="opacity:1" fill="#7b5939" d="M 225.5,206.5 C 228.203,208.181 230.869,209.847 233.5,211.5C 233.833,212.167 234.167,212.833 234.5,213.5C 229.489,213.334 224.489,213.501 219.5,214C 220.381,214.708 221.047,215.542 221.5,216.5C 218.72,216.055 216.053,216.055 213.5,216.5C 212.167,214.833 212.167,213.167 213.5,211.5C 216.458,212.61 218.625,211.61 220,208.5C 220.956,209.579 221.789,210.745 222.5,212C 223.167,212.667 223.833,212.667 224.5,212C 222.963,210.89 222.297,209.39 222.5,207.5C 223.791,207.737 224.791,207.404 225.5,206.5 Z"/></g>
<g><path style="opacity:1" fill="#533b28" d="M 279.5,219.5 C 279.56,218.957 279.893,218.624 280.5,218.5C 281.833,236.5 281.833,254.5 280.5,272.5C 279.893,272.376 279.56,272.043 279.5,271.5C 280.833,254.167 280.833,236.833 279.5,219.5 Z"/></g>
<g><path style="opacity:1" fill="#a4764f" d="M 205.5,244.5 C 205.539,243.244 205.039,242.244 204,241.5C 203.333,233.833 203.333,226.167 204,218.5C 205.333,221.167 206.667,221.167 208,218.5C 208.5,227.16 208.666,235.827 208.5,244.5C 207.5,244.5 206.5,244.5 205.5,244.5 Z"/></g>
<g><path style="opacity:1" fill="#644830" d="M 211.5,219.5 C 210.505,230.988 210.172,242.655 210.5,254.5C 209.175,242.66 209.175,230.66 210.5,218.5C 211.107,218.624 211.44,218.957 211.5,219.5 Z"/></g>
<g><path style="opacity:1" fill="#b28056" d="M 210.5,254.5 C 210.172,242.655 210.505,230.988 211.5,219.5C 212.496,219.586 213.329,219.252 214,218.5C 214.667,231.167 214.667,243.833 214,256.5C 213.29,255.027 212.124,254.36 210.5,254.5 Z"/></g>
<g><path style="opacity:1" fill="#a5784b" d="M 221.5,217.5 C 221.344,236.835 221.344,255.835 221.5,274.5C 220.963,271.964 219.63,269.964 217.5,268.5C 216.504,252.342 216.17,236.009 216.5,219.5C 218.554,219.635 220.221,218.968 221.5,217.5 Z"/></g>
<g><path style="opacity:1" fill="#b07f54" d="M 275.5,218.5 C 276.708,219.234 278.041,219.567 279.5,219.5C 280.833,236.833 280.833,254.167 279.5,271.5C 279.5,270.833 279.167,270.5 278.5,270.5C 277.073,268.852 276.24,266.852 276,264.5C 275.5,249.17 275.333,233.837 275.5,218.5 Z"/></g>
<g><path style="opacity:1" fill="#a4774f" d="M 288.5,265.5 C 287.32,268.54 285.653,271.206 283.5,273.5C 282.338,255.338 282.171,237.005 283,218.5C 284.316,221.028 285.483,221.028 286.5,218.5C 287.167,234.328 287.833,249.995 288.5,265.5 Z"/></g>
<g><path style="opacity:1" fill="#a3764e" d="M 294.5,253.5 C 292.738,257.362 290.738,261.028 288.5,264.5C 288.333,249.163 288.5,233.83 289,218.5C 290.333,221.167 291.667,221.167 293,218.5C 293.169,230.341 293.669,242.007 294.5,253.5 Z"/></g>
<g><path style="opacity:1" fill="#26341b" d="M 202.5,201.5 C 203.131,212.922 202.464,224.088 200.5,235C 201.576,236.726 201.743,238.559 201,240.5C 200.282,239.549 199.449,239.383 198.5,240C 199.222,241.751 200.222,243.251 201.5,244.5C 200.518,245.141 199.518,245.807 198.5,246.5C 197.289,245.726 197.289,244.893 198.5,244C 196.981,242.649 195.648,241.149 194.5,239.5C 195.167,238.833 195.833,238.167 196.5,237.5C 195.164,233.56 195.997,232.894 199,235.5C 199.308,234.692 199.808,234.025 200.5,233.5C 201.167,222.674 201.833,212.008 202.5,201.5 Z"/></g>
<g><path style="opacity:1" fill="#8d7801" d="M 298.5,249.5 C 298.5,248.167 297.833,247.5 296.5,247.5C 297.299,244.57 297.632,241.57 297.5,238.5C 298.833,238.5 300.167,238.5 301.5,238.5C 301.45,236.41 302.45,235.077 304.5,234.5C 305.848,236.611 305.515,238.445 303.5,240C 304.357,240.689 305.023,241.522 305.5,242.5C 302.785,244.548 300.452,246.882 298.5,249.5 Z"/></g>
<g><path style="opacity:1" fill="#143d2a" d="M 205.5,244.5 C 206.968,245.752 207.968,247.752 208.5,250.5C 207.078,251.925 205.411,252.925 203.5,253.5C 203.167,253.5 202.833,253.5 202.5,253.5C 202.167,253.5 201.833,253.5 201.5,253.5C 199.456,252.969 197.789,251.802 196.5,250C 198.779,246.852 201.279,246.686 204,249.5C 204.464,248.906 204.631,248.239 204.5,247.5C 204.263,246.209 204.596,245.209 205.5,244.5 Z"/></g>
<g><path style="opacity:1" fill="#5b4625" d="M 208.5,250.5 C 208.773,252.451 208.107,253.951 206.5,255C 207.977,256.812 209.31,258.645 210.5,260.5C 210.671,263.797 210.005,264.131 208.5,261.5C 207.264,260.754 205.93,260.421 204.5,260.5C 203.957,260.44 203.624,260.107 203.5,259.5C 204.167,258.833 204.833,258.167 205.5,257.5C 204.147,256.476 203.48,255.143 203.5,253.5C 205.411,252.925 207.078,251.925 208.5,250.5 Z"/></g>
<g><path style="opacity:1" fill="#0b0803" d="M 202.5,253.5 C 202.833,253.5 203.167,253.5 203.5,253.5C 203.48,255.143 204.147,256.476 205.5,257.5C 204.833,258.167 204.167,258.833 203.5,259.5C 203.624,260.107 203.957,260.44 204.5,260.5C 203.438,262.234 203.438,263.901 204.5,265.5C 203.345,272.655 203.178,279.988 204,287.5C 205.713,286.122 207.047,284.455 208,282.5C 208.029,279.674 208.195,277.007 208.5,274.5C 209.326,276.109 210.326,277.776 211.5,279.5C 210.503,279.47 209.836,279.97 209.5,281C 210.056,282.011 210.722,282.844 211.5,283.5C 208.395,285.694 205.728,288.36 203.5,291.5C 202.505,279.011 202.171,266.344 202.5,253.5 Z"/></g>
<g><path style="opacity:1" fill="#342a00" d="M 201.5,253.5 C 201.833,253.5 202.167,253.5 202.5,253.5C 202.171,266.344 202.505,279.011 203.5,291.5C 202.998,293.085 201.998,293.585 200.5,293C 201.489,279.913 201.823,266.746 201.5,253.5 Z"/></g>
<g><path style="opacity:1" fill="#153c2a" d="M 213.5,264.5 C 212.517,265.85 211.184,266.85 209.5,267.5C 210.441,267.489 211.108,267.989 211.5,269C 210.978,269.95 210.311,270.784 209.5,271.5C 211.55,273.547 213.883,275.214 216.5,276.5C 215.656,278.759 213.989,279.759 211.5,279.5C 210.326,277.776 209.326,276.109 208.5,274.5C 208.195,272.081 208.195,269.414 208.5,266.5C 207.041,266.567 205.708,266.234 204.5,265.5C 203.438,263.901 203.438,262.234 204.5,260.5C 205.93,260.421 207.264,260.754 208.5,261.5C 210.005,264.131 210.671,263.797 210.5,260.5C 210.672,256.029 211.506,255.696 213,259.5C 213.333,259.167 213.667,258.833 214,258.5C 214.678,260.598 214.511,262.598 213.5,264.5 Z"/></g>
<g><path style="opacity:1" fill="#a57750" d="M 293.5,260.5 C 293.666,269.506 293.5,278.506 293,287.5C 291.287,286.122 289.953,284.455 289,282.5C 288.501,278.179 288.334,273.846 288.5,269.5C 289.774,266.24 291.44,263.24 293.5,260.5 Z"/></g>
<g><path style="opacity:1" fill="#a4764f" d="M 204.5,265.5 C 205.708,266.234 207.041,266.567 208.5,266.5C 208.195,269.414 208.195,272.081 208.5,274.5C 208.195,277.007 208.029,279.674 208,282.5C 207.047,284.455 205.713,286.122 204,287.5C 203.178,279.988 203.345,272.655 204.5,265.5 Z"/></g>
<g><path style="opacity:1" fill="#c0a701" d="M 295.5,247.5 C 295.833,247.5 296.167,247.5 296.5,247.5C 297.833,247.5 298.5,248.167 298.5,249.5C 298.008,251.819 297.008,253.819 295.5,255.5C 294.069,256.78 293.402,258.447 293.5,260.5C 291.44,263.24 289.774,266.24 288.5,269.5C 287.662,269.842 287.328,270.508 287.5,271.5C 286.342,274.566 284.675,277.399 282.5,280C 283.381,280.708 284.047,281.542 284.5,282.5C 283.833,282.5 283.167,282.5 282.5,282.5C 281.833,282.5 281.167,282.5 280.5,282.5C 279.081,281.549 277.415,281.216 275.5,281.5C 275.5,281.167 275.5,280.833 275.5,280.5C 278.95,281.244 280.616,279.91 280.5,276.5C 281.833,275.833 282.833,274.833 283.5,273.5C 285.653,271.206 287.32,268.54 288.5,265.5C 288.5,265.167 288.5,264.833 288.5,264.5C 290.738,261.028 292.738,257.362 294.5,253.5C 295.341,251.621 295.675,249.621 295.5,247.5 Z"/></g>
<g><path style="opacity:1" fill="#161102" d="M 295.5,255.5 C 295.832,267.851 295.499,280.185 294.5,292.5C 291.951,288.716 288.951,285.383 285.5,282.5C 287.414,279.316 288.08,275.649 287.5,271.5C 287.328,270.508 287.662,269.842 288.5,269.5C 288.334,273.846 288.501,278.179 289,282.5C 289.953,284.455 291.287,286.122 293,287.5C 293.5,278.506 293.666,269.506 293.5,260.5C 293.402,258.447 294.069,256.78 295.5,255.5 Z"/></g>
<g><path style="opacity:1" fill="#2a1e0c" d="M 227.5,270.5 C 229.25,271.473 230.75,272.807 232,274.5C 233.045,273.627 233.878,272.627 234.5,271.5C 235.239,271.369 235.906,271.536 236.5,272C 232.269,276.062 228.269,280.229 224.5,284.5C 225.735,281.042 227.735,278.042 230.5,275.5C 228.631,273.016 226.964,273.016 225.5,275.5C 225.12,273.302 225.787,271.635 227.5,270.5 Z"/></g>
<g><path style="opacity:1" fill="#7c5f2d" d="M 213.5,264.5 C 213.929,265.953 214.096,267.619 214,269.5C 214.608,271.066 215.442,272.4 216.5,273.5C 216.5,274.5 216.5,275.5 216.5,276.5C 213.883,275.214 211.55,273.547 209.5,271.5C 210.311,270.784 210.978,269.95 211.5,269C 211.108,267.989 210.441,267.489 209.5,267.5C 211.184,266.85 212.517,265.85 213.5,264.5 Z"/></g>
<g><path style="opacity:1" fill="#f2cc04" d="M 234.5,213.5 C 237.167,213.5 239.833,213.5 242.5,213.5C 246.167,213.5 249.833,213.5 253.5,213.5C 254.167,213.5 254.833,213.5 255.5,213.5C 262.841,213.334 270.174,213.5 277.5,214C 276.619,214.708 275.953,215.542 275.5,216.5C 275.5,217.167 275.5,217.833 275.5,218.5C 275.333,233.837 275.5,249.17 276,264.5C 276.24,266.852 277.073,268.852 278.5,270.5C 278.595,272.786 279.262,274.786 280.5,276.5C 280.616,279.91 278.95,281.244 275.5,280.5C 273.472,277.098 271.472,273.765 269.5,270.5C 269.631,269.624 269.298,268.957 268.5,268.5C 266.473,269.513 264.473,270.513 262.5,271.5C 261.475,271.897 261.308,272.563 262,273.5C 263.451,275.464 265.284,276.797 267.5,277.5C 268.786,280.117 270.453,282.45 272.5,284.5C 273.063,287.295 274.396,289.628 276.5,291.5C 276.804,292.15 277.137,292.817 277.5,293.5C 275.694,295.507 273.694,297.174 271.5,298.5C 264.464,292.122 259.131,284.456 255.5,275.5C 254.743,274.227 254.077,274.227 253.5,275.5C 251.695,276.237 250.029,277.237 248.5,278.5C 246.971,277.237 245.305,276.237 243.5,275.5C 242.923,274.227 242.257,274.227 241.5,275.5C 237.393,284.738 232.059,293.072 225.5,300.5C 224.074,299.198 222.741,297.698 221.5,296C 221.728,295.601 222.062,295.435 222.5,295.5C 225.106,297.088 226.44,296.255 226.5,293C 225.756,291.145 224.756,289.479 223.5,288C 223.989,286.862 224.322,285.695 224.5,284.5C 228.269,280.229 232.269,276.062 236.5,272C 235.906,271.536 235.239,271.369 234.5,271.5C 232.527,270.513 230.527,269.513 228.5,268.5C 227.702,268.957 227.369,269.624 227.5,270.5C 225.787,271.635 225.12,273.302 225.5,275.5C 224.094,275.973 223.427,276.973 223.5,278.5C 221.973,278.573 220.973,277.906 220.5,276.5C 221.338,276.158 221.672,275.492 221.5,274.5C 221.344,255.835 221.344,236.835 221.5,217.5C 221.5,217.167 221.5,216.833 221.5,216.5C 221.047,215.542 220.381,214.708 219.5,214C 224.489,213.501 229.489,213.334 234.5,213.5 Z"/></g>
<g><path style="opacity:1" fill="#9f734e" d="M 269.5,270.5 C 267.75,271.473 266.25,272.807 265,274.5C 263.955,273.627 263.122,272.627 262.5,271.5C 264.473,270.513 266.473,269.513 268.5,268.5C 269.298,268.957 269.631,269.624 269.5,270.5 Z"/></g>
<g><path style="opacity:1" fill="#a3754f" d="M 234.5,271.5 C 233.878,272.627 233.045,273.627 232,274.5C 230.75,272.807 229.25,271.473 227.5,270.5C 227.369,269.624 227.702,268.957 228.5,268.5C 230.527,269.513 232.527,270.513 234.5,271.5 Z"/></g>
<g><path style="opacity:1" fill="#2142a9" d="M 262.5,243.5 C 264.423,245.19 266.423,245.523 268.5,244.5C 270.284,244.107 271.95,243.441 273.5,242.5C 273.833,242.5 274.167,242.5 274.5,242.5C 274.925,249.615 274.425,256.615 273,263.5C 264.986,268.116 256.819,272.45 248.5,276.5C 240.181,272.45 232.014,268.116 224,263.5C 222.575,256.615 222.075,249.615 222.5,242.5C 222.833,242.5 223.167,242.5 223.5,242.5C 224.391,243.11 225.391,243.443 226.5,243.5C 229.08,245.994 231.747,245.994 234.5,243.5C 237.337,241.828 238.004,242.494 236.5,245.5C 237.689,246.429 239.022,246.762 240.5,246.5C 240.579,247.93 240.246,249.264 239.5,250.5C 240.716,251.096 242.049,251.263 243.5,251C 244.791,252.292 244.791,253.458 243.5,254.5C 242.053,253.115 241.053,253.448 240.5,255.5C 239.331,262.076 240.998,267.576 245.5,272C 247.387,272.78 249.054,272.613 250.5,271.5C 250.833,270.5 251.5,269.833 252.5,269.5C 253.583,269.461 254.583,269.127 255.5,268.5C 256.492,264.217 256.826,259.884 256.5,255.5C 255.947,253.448 254.947,253.115 253.5,254.5C 252.218,253.292 252.218,251.958 253.5,250.5C 255.263,251.954 256.597,251.62 257.5,249.5C 256.624,248.749 255.624,248.249 254.5,248C 255.056,247.617 255.389,247.117 255.5,246.5C 256.9,245.9 257.9,244.9 258.5,243.5C 258.369,242.761 258.536,242.094 259,241.5C 259.816,242.823 260.983,243.489 262.5,243.5 Z"/></g>
<g><path style="opacity:1" fill="#29201c" d="M 240.5,246.5 C 241.822,246.33 242.989,246.663 244,247.5C 245.555,252.382 245.888,257.382 245,262.5C 243.647,263.685 242.48,265.019 241.5,266.5C 242.687,266.554 244.02,266.887 245.5,267.5C 244.332,268.906 244.665,270.072 246.5,271C 247.793,271.49 249.127,271.657 250.5,271.5C 249.054,272.613 247.387,272.78 245.5,272C 240.998,267.576 239.331,262.076 240.5,255.5C 241.314,257.631 241.814,259.964 242,262.5C 243.375,260.063 243.875,257.397 243.5,254.5C 244.791,253.458 244.791,252.292 243.5,251C 242.049,251.263 240.716,251.096 239.5,250.5C 240.246,249.264 240.579,247.93 240.5,246.5 Z"/></g>
<g><path style="opacity:1" fill="#ccaf09" d="M 237.5,259.5 C 237.178,260.858 237.178,262.525 237.5,264.5C 234.794,264.575 232.127,264.908 229.5,265.5C 229.5,264.167 229.5,262.833 229.5,261.5C 234.571,263.594 236.237,262.094 234.5,257C 235.448,256.517 236.448,256.351 237.5,256.5C 237.5,257.5 237.5,258.5 237.5,259.5 Z"/></g>
<g><path style="opacity:1" fill="#e1c300" d="M 262.5,261.5 C 261.609,262.11 260.609,262.443 259.5,262.5C 259.329,257.506 261.662,255.672 266.5,257C 264.249,257.748 262.916,259.248 262.5,261.5 Z"/></g>
<g><path style="opacity:1" fill="#2d231f" d="M 255.5,246.5 C 255.389,247.117 255.056,247.617 254.5,248C 255.624,248.249 256.624,248.749 257.5,249.5C 256.597,251.62 255.263,251.954 253.5,250.5C 252.218,251.958 252.218,253.292 253.5,254.5C 253.125,257.397 253.625,260.063 255,262.5C 255.186,259.964 255.686,257.631 256.5,255.5C 256.826,259.884 256.492,264.217 255.5,268.5C 254.583,269.127 253.583,269.461 252.5,269.5C 252.196,268.85 251.863,268.183 251.5,267.5C 252.98,266.887 254.313,266.554 255.5,266.5C 254.52,265.019 253.353,263.685 252,262.5C 251.333,258.167 251.333,253.833 252,249.5C 252.759,247.937 253.926,246.937 255.5,246.5 Z"/></g>
<g><path style="opacity:1" fill="#dbbc00" d="M 243.5,254.5 C 243.875,257.397 243.375,260.063 242,262.5C 241.814,259.964 241.314,257.631 240.5,255.5C 241.053,253.448 242.053,253.115 243.5,254.5 Z"/></g>
<g><path style="opacity:1" fill="#22191f" d="M 262.5,261.5 C 262.916,259.248 264.249,257.748 266.5,257C 261.662,255.672 259.329,257.506 259.5,262.5C 258.036,256.155 260.703,253.988 267.5,256C 268.308,256.308 268.975,256.808 269.5,257.5C 266.703,258.105 264.37,259.438 262.5,261.5 Z"/></g>
<g><path style="opacity:1" fill="#c0a300" d="M 256.5,255.5 C 255.686,257.631 255.186,259.964 255,262.5C 253.625,260.063 253.125,257.397 253.5,254.5C 254.947,253.115 255.947,253.448 256.5,255.5 Z"/></g>
<g><path style="opacity:1" fill="#5a490c" d="M 233.5,255.5 C 235.167,255.5 236.833,255.5 238.5,255.5C 238.768,257.099 238.434,258.432 237.5,259.5C 237.5,258.5 237.5,257.5 237.5,256.5C 236.448,256.351 235.448,256.517 234.5,257C 236.237,262.094 234.571,263.594 229.5,261.5C 229.263,260.209 229.596,259.209 230.5,258.5C 231.306,257.272 232.306,256.272 233.5,255.5 Z"/></g>
<g><path style="opacity:1" fill="#efcc00" d="M 230.5,258.5 C 231.978,258.238 233.311,258.571 234.5,259.5C 232.537,262.194 231.203,261.861 230.5,258.5 Z"/></g>
<g><path style="opacity:1" fill="#ad920c" d="M 233.5,255.5 C 232.306,256.272 231.306,257.272 230.5,258.5C 229.596,259.209 229.263,260.209 229.5,261.5C 228.5,261.5 227.5,261.5 226.5,261.5C 226.5,260.167 226.5,258.833 226.5,257.5C 227.5,257.5 228.5,257.5 229.5,257.5C 229.5,256.167 229.5,254.833 229.5,253.5C 231.483,253.157 232.817,253.824 233.5,255.5 Z"/></g>
<g><path style="opacity:1" fill="#2f1f15" d="M 269.5,240.5 C 271.153,240.66 272.486,241.326 273.5,242.5C 271.95,243.441 270.284,244.107 268.5,244.5C 270.138,243.295 270.471,241.962 269.5,240.5 Z"/></g>
<g><path style="opacity:1" fill="#291e0f" d="M 227.5,240.5 C 226.89,241.391 226.557,242.391 226.5,243.5C 225.391,243.443 224.391,243.11 223.5,242.5C 224.514,241.326 225.847,240.66 227.5,240.5 Z"/></g>
<g><path style="opacity:1" fill="#e6c300" d="M 267.5,239.5 C 267.842,240.338 268.508,240.672 269.5,240.5C 270.471,241.962 270.138,243.295 268.5,244.5C 266.423,245.523 264.423,245.19 262.5,243.5C 263.129,241.003 264.796,239.67 267.5,239.5 Z"/></g>
<g><path style="opacity:1" fill="#debc05" d="M 229.5,239.5 C 231.593,240.045 233.593,240.878 235.5,242C 234.944,242.383 234.611,242.883 234.5,243.5C 231.747,245.994 229.08,245.994 226.5,243.5C 226.557,242.391 226.89,241.391 227.5,240.5C 228.492,240.672 229.158,240.338 229.5,239.5 Z"/></g>
<g><path style="opacity:1" fill="#311b18" d="M 235.5,238.5 C 240.078,239.172 241.078,241.172 238.5,244.5C 239.243,245.182 239.909,245.849 240.5,246.5C 239.022,246.762 237.689,246.429 236.5,245.5C 238.004,242.494 237.337,241.828 234.5,243.5C 234.611,242.883 234.944,242.383 235.5,242C 233.593,240.878 231.593,240.045 229.5,239.5C 229.783,238.711 230.283,238.044 231,237.5C 232.242,238.872 233.742,239.872 235.5,240.5C 236.463,240.03 236.463,239.363 235.5,238.5 Z"/></g>
<g><path style="opacity:1" fill="#f1ca00" d="M 236.5,232.5 C 236.511,234.017 237.177,235.184 238.5,236C 240.218,236.346 241.885,236.846 243.5,237.5C 246.833,237.5 250.167,237.5 253.5,237.5C 255.026,237.006 256.359,236.339 257.5,235.5C 259.411,235.426 260.578,234.426 261,232.5C 261.679,227.978 261.346,223.644 260,219.5C 265.561,223.738 266.894,229.072 264,235.5C 261.766,237.7 259.266,239.533 256.5,241C 257.066,241.995 257.733,242.828 258.5,243.5C 257.9,244.9 256.9,245.9 255.5,246.5C 253.926,246.937 252.759,247.937 252,249.5C 251.333,253.833 251.333,258.167 252,262.5C 253.353,263.685 254.52,265.019 255.5,266.5C 254.313,266.554 252.98,266.887 251.5,267.5C 251.863,268.183 252.196,268.85 252.5,269.5C 251.5,269.833 250.833,270.5 250.5,271.5C 249.127,271.657 247.793,271.49 246.5,271C 244.665,270.072 244.332,268.906 245.5,267.5C 244.02,266.887 242.687,266.554 241.5,266.5C 242.48,265.019 243.647,263.685 245,262.5C 245.888,257.382 245.555,252.382 244,247.5C 242.989,246.663 241.822,246.33 240.5,246.5C 239.909,245.849 239.243,245.182 238.5,244.5C 241.078,241.172 240.078,239.172 235.5,238.5C 229.803,231.727 230.303,225.394 237,219.5C 236.142,222.151 235.642,224.985 235.5,228C 235.508,229.707 235.842,231.207 236.5,232.5 Z"/></g>
<g><path style="opacity:1" fill="#cb1726" d="M 274.5,242.5 C 274.167,242.5 273.833,242.5 273.5,242.5C 272.486,241.326 271.153,240.66 269.5,240.5C 268.508,240.672 267.842,240.338 267.5,239.5C 265.987,238.691 264.32,238.524 262.5,239C 270.012,229.891 268.512,222.391 258,216.5C 258.395,220.371 259.229,224.205 260.5,228C 260.452,230.922 259.452,233.422 257.5,235.5C 252.308,235.096 247.142,235.096 242,235.5C 239.808,235.137 237.974,234.137 236.5,232.5C 236.477,226.94 237.311,221.607 239,216.5C 230.346,221.112 228.012,227.779 232,236.5C 232.816,237.823 233.983,238.489 235.5,238.5C 236.463,239.363 236.463,240.03 235.5,240.5C 233.742,239.872 232.242,238.872 231,237.5C 230.283,238.044 229.783,238.711 229.5,239.5C 229.158,240.338 228.492,240.672 227.5,240.5C 225.847,240.66 224.514,241.326 223.5,242.5C 223.167,242.5 222.833,242.5 222.5,242.5C 222.5,233.167 222.5,223.833 222.5,214.5C 239.833,214.5 257.167,214.5 274.5,214.5C 274.5,223.833 274.5,233.167 274.5,242.5 Z"/></g>
<g><path style="opacity:1" fill="#41270b" d="M 236.5,232.5 C 237.974,234.137 239.808,235.137 242,235.5C 247.142,235.096 252.308,235.096 257.5,235.5C 256.359,236.339 255.026,237.006 253.5,237.5C 250.167,237.5 246.833,237.5 243.5,237.5C 241.885,236.846 240.218,236.346 238.5,236C 237.177,235.184 236.511,234.017 236.5,232.5 Z"/></g>
<g><path style="opacity:1" fill="#401c0e" d="M 243.5,225.5 C 245.5,226.167 246.833,227.5 247.5,229.5C 245.774,229.815 244.107,229.981 242.5,230C 244.036,228.532 244.37,227.032 243.5,225.5 Z"/></g>
<g><path style="opacity:1" fill="#321a0c" d="M 267.5,239.5 C 264.796,239.67 263.129,241.003 262.5,243.5C 260.983,243.489 259.816,242.823 259,241.5C 258.536,242.094 258.369,242.761 258.5,243.5C 257.733,242.828 257.066,241.995 256.5,241C 259.266,239.533 261.766,237.7 264,235.5C 266.894,229.072 265.561,223.738 260,219.5C 261.346,223.644 261.679,227.978 261,232.5C 260.578,234.426 259.411,235.426 257.5,235.5C 259.452,233.422 260.452,230.922 260.5,228C 259.229,224.205 258.395,220.371 258,216.5C 268.512,222.391 270.012,229.891 262.5,239C 264.32,238.524 265.987,238.691 267.5,239.5 Z"/></g>
<g><path style="opacity:1" fill="#e2bd00" d="M 247.5,220.5 C 248.167,220.5 248.833,220.5 249.5,220.5C 250.778,221.749 251.778,223.249 252.5,225C 251.252,226.4 250.252,227.9 249.5,229.5C 248.833,229.5 248.167,229.5 247.5,229.5C 246.833,227.5 245.5,226.167 243.5,225.5C 244.833,223.833 246.167,222.167 247.5,220.5 Z"/></g>
<g><path style="opacity:1" fill="#35250a" d="M 249.5,229.5 C 250.252,227.9 251.252,226.4 252.5,225C 251.778,223.249 250.778,221.749 249.5,220.5C 250.822,220.67 251.989,220.337 253,219.5C 251.74,222.155 252.574,223.988 255.5,225C 251.833,226 251.5,227.667 254.5,230C 252.893,229.981 251.226,229.815 249.5,229.5 Z"/></g>
<g><path style="opacity:1" fill="#31210a" d="M 247.5,220.5 C 246.167,222.167 244.833,223.833 243.5,225.5C 242.448,225.649 241.448,225.483 240.5,225C 241.759,224.077 243.092,223.243 244.5,222.5C 244.167,221.833 243.833,221.167 243.5,220.5C 244.7,219.708 246.033,219.708 247.5,220.5 Z"/></g>
<g><path style="opacity:1" fill="#2d1b09" d="M 236.5,232.5 C 235.842,231.207 235.508,229.707 235.5,228C 235.642,224.985 236.142,222.151 237,219.5C 230.303,225.394 229.803,231.727 235.5,238.5C 233.983,238.489 232.816,237.823 232,236.5C 228.012,227.779 230.346,221.112 239,216.5C 237.311,221.607 236.477,226.94 236.5,232.5 Z"/></g>
<g><path style="opacity:1" fill="#134834" d="M 217.5,268.5 C 219.63,269.964 220.963,271.964 221.5,274.5C 221.672,275.492 221.338,276.158 220.5,276.5C 219.167,277.833 217.833,277.833 216.5,276.5C 216.5,275.5 216.5,274.5 216.5,273.5C 216.366,271.708 216.699,270.042 217.5,268.5 Z"/></g>
<g><path style="opacity:1" fill="#32220e" d="M 269.5,270.5 C 271.472,273.765 273.472,277.098 275.5,280.5C 275.5,280.833 275.5,281.167 275.5,281.5C 273.171,279.159 271.171,276.492 269.5,273.5C 268.5,274 267.5,274.5 266.5,275C 267.252,275.671 267.586,276.504 267.5,277.5C 265.284,276.797 263.451,275.464 262,273.5C 261.308,272.563 261.475,271.897 262.5,271.5C 263.122,272.627 263.955,273.627 265,274.5C 266.25,272.807 267.75,271.473 269.5,270.5 Z"/></g>
<g><path style="opacity:1" fill="#674b32" d="M 287.5,271.5 C 288.08,275.649 287.414,279.316 285.5,282.5C 285.167,282.5 284.833,282.5 284.5,282.5C 284.047,281.542 283.381,280.708 282.5,280C 284.675,277.399 286.342,274.566 287.5,271.5 Z"/></g>
<g><path style="opacity:1" fill="#9e1220" d="M 275.5,281.5 C 277.415,281.216 279.081,281.549 280.5,282.5C 280.789,284.525 281.122,286.525 281.5,288.5C 281.167,289.5 280.5,290.167 279.5,290.5C 278.005,290.585 277.005,289.919 276.5,288.5C 277.5,287.167 278.5,285.833 279.5,284.5C 278.277,283.386 276.944,283.219 275.5,284C 276.28,285.073 276.113,286.24 275,287.5C 274.623,286.058 273.79,285.058 272.5,284.5C 270.453,282.45 268.786,280.117 267.5,277.5C 267.586,276.504 267.252,275.671 266.5,275C 267.5,274.5 268.5,274 269.5,273.5C 271.171,276.492 273.171,279.159 275.5,281.5 Z"/></g>
<g><path style="opacity:1" fill="#bd0825" d="M 224.5,284.5 C 223.179,286.42 221.846,286.587 220.5,285C 220.833,284.667 221.167,284.333 221.5,284C 219.443,283.695 217.443,283.695 215.5,284C 217.285,282.837 219.285,282.17 221.5,282C 222.823,281.184 223.489,280.017 223.5,278.5C 223.427,276.973 224.094,275.973 225.5,275.5C 226.964,273.016 228.631,273.016 230.5,275.5C 227.735,278.042 225.735,281.042 224.5,284.5 Z"/></g>
<g><path style="opacity:1" fill="#31220b" d="M 216.5,276.5 C 217.833,277.833 219.167,277.833 220.5,276.5C 220.973,277.906 221.973,278.573 223.5,278.5C 223.489,280.017 222.823,281.184 221.5,282C 219.285,282.17 217.285,282.837 215.5,284C 217.443,283.695 219.443,283.695 221.5,284C 221.167,284.333 220.833,284.667 220.5,285C 221.846,286.587 223.179,286.42 224.5,284.5C 224.322,285.695 223.989,286.862 223.5,288C 224.756,289.479 225.756,291.145 226.5,293C 226.44,296.255 225.106,297.088 222.5,295.5C 221.852,293.914 221.352,292.247 221,290.5C 219.085,291.916 217.585,291.582 216.5,289.5C 219.039,291.121 220.206,290.454 220,287.5C 217.76,284.707 216.26,285.04 215.5,288.5C 214.305,288.134 213.639,287.301 213.5,286C 215.204,280.608 214.537,279.774 211.5,283.5C 210.722,282.844 210.056,282.011 209.5,281C 209.836,279.97 210.503,279.47 211.5,279.5C 213.989,279.759 215.656,278.759 216.5,276.5 Z"/></g>
<g><path style="opacity:1" fill="#190e04" d="M 280.5,282.5 C 281.167,282.5 281.833,282.5 282.5,282.5C 284.138,284.955 283.805,286.955 281.5,288.5C 281.122,286.525 280.789,284.525 280.5,282.5 Z"/></g>
<g><path style="opacity:1" fill="#200e05" d="M 279.5,290.5 C 278.791,291.404 277.791,291.737 276.5,291.5C 274.396,289.628 273.063,287.295 272.5,284.5C 273.79,285.058 274.623,286.058 275,287.5C 276.113,286.24 276.28,285.073 275.5,284C 276.944,283.219 278.277,283.386 279.5,284.5C 278.5,285.833 277.5,287.167 276.5,288.5C 277.005,289.919 278.005,290.585 279.5,290.5 Z"/></g>
<g><path style="opacity:1" fill="#90091c" d="M 216.5,289.5 C 215.833,289.5 215.5,289.167 215.5,288.5C 216.26,285.04 217.76,284.707 220,287.5C 220.206,290.454 219.039,291.121 216.5,289.5 Z"/></g>
<g><path style="opacity:1" fill="#e8cd01" d="M 222.5,291.5 C 223.5,291.5 224.5,291.5 225.5,291.5C 224.754,295.31 223.754,295.31 222.5,291.5 Z"/></g>
<g><path style="opacity:1" fill="#161106" d="M 243.5,275.5 C 240.1,283.972 235.433,291.639 229.5,298.5C 231.416,301.575 233.583,301.909 236,299.5C 239.779,294.277 242.779,288.61 245,282.5C 245.013,289.621 243.513,296.454 240.5,303C 242.671,305.66 245.337,307.827 248.5,309.5C 251.663,307.827 254.329,305.66 256.5,303C 253.485,296.446 251.985,289.612 252,282.5C 254.221,288.61 257.221,294.277 261,299.5C 263.518,301.028 265.685,300.694 267.5,298.5C 261.567,291.639 256.9,283.972 253.5,275.5C 254.077,274.227 254.743,274.227 255.5,275.5C 259.131,284.456 264.464,292.122 271.5,298.5C 271.631,299.376 271.298,300.043 270.5,300.5C 267.921,301.706 265.421,303.039 263,304.5C 260.425,301.681 258.092,298.681 256,295.5C 256.508,299.022 258.008,302.188 260.5,305C 256.318,307.926 252.318,311.093 248.5,314.5C 244.858,311.013 240.858,308.013 236.5,305.5C 238.869,302.439 240.369,299.106 241,295.5C 238.908,298.681 236.575,301.681 234,304.5C 231.341,302.754 228.508,301.42 225.5,300.5C 232.059,293.072 237.393,284.738 241.5,275.5C 242.257,274.227 242.923,274.227 243.5,275.5 Z"/></g>
<g><path style="opacity:1" fill="#aa7b52" d="M 243.5,275.5 C 245.305,276.237 246.971,277.237 248.5,278.5C 250.029,277.237 251.695,276.237 253.5,275.5C 256.9,283.972 261.567,291.639 267.5,298.5C 265.685,300.694 263.518,301.028 261,299.5C 257.221,294.277 254.221,288.61 252,282.5C 251.985,289.612 253.485,296.446 256.5,303C 254.329,305.66 251.663,307.827 248.5,309.5C 245.337,307.827 242.671,305.66 240.5,303C 243.513,296.454 245.013,289.621 245,282.5C 242.779,288.61 239.779,294.277 236,299.5C 233.583,301.909 231.416,301.575 229.5,298.5C 235.433,291.639 240.1,283.972 243.5,275.5 Z"/></g>
</svg>
