<?xml version="1.0" encoding="UTF-8"?>
<!DOCTYPE svg PUBLIC "-//W3C//DTD SVG 1.1//EN" "http://www.w3.org/Graphics/SVG/1.1/DTD/svg11.dtd">
<svg xmlns="http://www.w3.org/2000/svg" version="1.1" width="500px" height="500px" style="shape-rendering:geometricPrecision; text-rendering:geometricPrecision; image-rendering:optimizeQuality; fill-rule:evenodd; clip-rule:evenodd" xmlns:xlink="http://www.w3.org/1999/xlink">
<g><path style="opacity:0.998" fill="#055096" d="M 225.5,-0.5 C 241.5,-0.5 257.5,-0.5 273.5,-0.5C 293.917,1.93595 313.917,6.60261 333.5,13.5C 333.5,170.833 333.5,328.167 333.5,485.5C 314.288,492.472 294.621,497.139 274.5,499.5C 257.833,499.5 241.167,499.5 224.5,499.5C 204.6,497.253 185.267,492.586 166.5,485.5C 166.5,328.167 166.5,170.833 166.5,13.5C 185.622,6.46923 205.289,1.80256 225.5,-0.5 Z"/></g>
<g><path style="opacity:0.992" fill="#c3282f" d="M 166.5,13.5 C 166.5,170.833 166.5,328.167 166.5,485.5C 84.513,455.009 31.3463,397.676 7,313.5C 3.72528,300.168 1.22528,286.834 -0.5,273.5C -0.5,257.5 -0.5,241.5 -0.5,225.5C 11.4543,135.075 57.4543,68.242 137.5,25C 146.845,20.2755 156.512,16.4422 166.5,13.5 Z"/></g>
<g><path style="opacity:0.993" fill="#c4262e" d="M 333.5,13.5 C 413.314,43.816 465.814,99.816 491,181.5C 494.695,195.808 497.529,210.141 499.5,224.5C 499.5,241.167 499.5,257.833 499.5,274.5C 487.764,361.841 443.764,427.341 367.5,471C 356.493,476.672 345.159,481.506 333.5,485.5C 333.5,328.167 333.5,170.833 333.5,13.5 Z"/></g>
<g><path style="opacity:1" fill="#f8cd03" d="M 82.5,152.5 C 84.0981,154.698 85.4314,157.031 86.5,159.5C 86.7609,163.342 86.0942,167.009 84.5,170.5C 85.6197,172.596 87.1197,172.93 89,171.5C 89.0178,169.203 88.8511,166.869 88.5,164.5C 89.0899,163.234 89.5899,161.901 90,160.5C 90.3333,162.833 90.6667,165.167 91,167.5C 94.1212,171.486 93.9546,175.486 90.5,179.5C 86.1557,182.793 81.489,183.293 76.5,181C 74.2241,178.615 72.8908,175.781 72.5,172.5C 73.9286,169.04 74.7619,165.373 75,161.5C 75.3333,161.167 75.6667,160.833 76,160.5C 76.704,162.278 77.204,164.112 77.5,166C 75.3814,169.854 76.3814,172.02 80.5,172.5C 79.4879,168.13 79.4879,163.797 80.5,159.5C 81.1667,157.167 81.8333,154.833 82.5,152.5 Z"/></g>
<g><path style="opacity:1" fill="#d96c1f" d="M 82.5,152.5 C 81.8333,154.833 81.1667,157.167 80.5,159.5C 80.1826,156.428 80.5159,153.428 81.5,150.5C 82.2975,150.957 82.6309,151.624 82.5,152.5 Z"/></g>
<g><path style="opacity:1" fill="#ce4c2a" d="M 86.5,159.5 C 87.1667,161.167 87.8333,162.833 88.5,164.5C 88.8511,166.869 89.0178,169.203 89,171.5C 87.1197,172.93 85.6197,172.596 84.5,170.5C 86.0942,167.009 86.7609,163.342 86.5,159.5 Z"/></g>
<g><path style="opacity:1" fill="#f8cd02" d="M 76.5,187.5 C 91.837,185.681 99.337,192.347 99,207.5C 93.7215,220.384 84.8882,223.55 72.5,217C 63.4741,205.759 64.8074,195.925 76.5,187.5 Z"/></g>
<g><path style="opacity:1" fill="#f8cb03" d="M 104.5,211.5 C 103.864,225.292 96.3638,232.292 82,232.5C 69.4084,231.573 62.4084,224.906 61,212.5C 70.9018,225.47 83.0685,227.97 97.5,220C 100.423,217.584 102.757,214.75 104.5,211.5 Z"/></g>
<g><path style="opacity:1" fill="#df7c18" d="M 101.5,238.5 C 89.1667,237.167 76.8333,237.167 64.5,238.5C 63.7109,238.217 63.0442,237.717 62.5,237C 76.1667,236.333 89.8333,236.333 103.5,237C 102.956,237.717 102.289,238.217 101.5,238.5 Z"/></g>
<g><path style="opacity:1" fill="#fcd900" d="M 37.5,237.5 C 44.1667,237.5 50.8333,237.5 57.5,237.5C 57.5,270.5 57.5,303.5 57.5,336.5C 50.8333,336.5 44.1667,336.5 37.5,336.5C 37.5,303.5 37.5,270.5 37.5,237.5 Z"/></g>
<g><path style="opacity:1" fill="#f8cf01" d="M 38.5,238.5 C 44.5,238.5 50.5,238.5 56.5,238.5C 56.5,270.833 56.5,303.167 56.5,335.5C 50.5,335.5 44.5,335.5 38.5,335.5C 38.5,303.167 38.5,270.833 38.5,238.5 Z"/></g>
<g><path style="opacity:1" fill="#f8ce03" d="M 64.5,238.5 C 76.8333,237.167 89.1667,237.167 101.5,238.5C 95.4274,242.288 89.2607,245.955 83,249.5C 76.7393,245.955 70.5726,242.288 64.5,238.5 Z"/></g>
<g><path style="opacity:1" fill="#e38914" d="M 128.5,237.5 C 121.833,237.5 115.167,237.5 108.5,237.5C 108.5,270.5 108.5,303.5 108.5,336.5C 115.167,336.5 121.833,336.5 128.5,336.5C 121.687,337.491 114.687,337.825 107.5,337.5C 107.5,303.833 107.5,270.167 107.5,236.5C 114.687,236.175 121.687,236.509 128.5,237.5 Z"/></g>
<g><path style="opacity:1" fill="#f9cf01" d="M 128.5,237.5 C 128.5,270.5 128.5,303.5 128.5,336.5C 121.833,336.5 115.167,336.5 108.5,336.5C 108.5,303.5 108.5,270.5 108.5,237.5C 115.167,237.5 121.833,237.5 128.5,237.5 Z"/></g>
<g><path style="opacity:1" fill="#e99e10" d="M 103.5,254.5 C 89.8333,254.5 76.1667,254.5 62.5,254.5C 62.5,256.833 62.5,259.167 62.5,261.5C 61.5269,259.052 61.1936,256.385 61.5,253.5C 75.6766,253.171 89.6766,253.504 103.5,254.5 Z"/></g>
<g><path style="opacity:1" fill="#f9d101" d="M 103.5,254.5 C 103.5,256.833 103.5,259.167 103.5,261.5C 89.8333,261.5 76.1667,261.5 62.5,261.5C 62.5,259.167 62.5,256.833 62.5,254.5C 76.1667,254.5 89.8333,254.5 103.5,254.5 Z"/></g>
<g><path style="opacity:1" fill="#f8cd02" d="M 92.5,274.5 C 92.157,282.67 87.8237,286.503 79.5,286C 71.3669,289.738 69.0336,295.572 72.5,303.5C 72.1034,304.525 71.4368,304.692 70.5,304C 61.7324,295.314 60.2324,285.48 66,274.5C 71.9901,266.913 79.4901,264.746 88.5,268C 90.7337,269.638 92.067,271.805 92.5,274.5 Z"/></g>
<g><path style="opacity:1" fill="#e89815" d="M 96.5,271.5 C 95.8333,274.167 95.1667,276.833 94.5,279.5C 94.5,279.167 94.5,278.833 94.5,278.5C 94.7261,275.751 94.3928,273.084 93.5,270.5C 94.8595,269.335 95.8595,269.668 96.5,271.5 Z"/></g>
<g><path style="opacity:1" fill="#c52e2e" d="M 81.5,271.5 C 85.9757,271.822 87.4757,274.156 86,278.5C 82.5046,281.336 80.0046,280.503 78.5,276C 78.9567,274.06 79.9567,272.56 81.5,271.5 Z"/></g>
<g><path style="opacity:1" fill="#f8cc03" d="M 96.5,271.5 C 103.066,276.999 105.232,283.999 103,292.5C 98.8345,303.984 90.6679,308.817 78.5,307C 77.2949,305.624 75.9616,304.458 74.5,303.5C 71.918,297.102 73.5846,292.269 79.5,289C 83.3767,288.743 87.0433,287.743 90.5,286C 92.7337,284.362 94.067,282.195 94.5,279.5C 95.1667,276.833 95.8333,274.167 96.5,271.5 Z"/></g>
<g><path style="opacity:1" fill="#c8382d" d="M 92.5,274.5 C 93.1667,275.833 93.8333,277.167 94.5,278.5C 94.5,278.833 94.5,279.167 94.5,279.5C 94.067,282.195 92.7337,284.362 90.5,286C 87.0433,287.743 83.3767,288.743 79.5,289C 73.5846,292.269 71.918,297.102 74.5,303.5C 73.8333,303.5 73.1667,303.5 72.5,303.5C 69.0336,295.572 71.3669,289.738 79.5,286C 87.8237,286.503 92.157,282.67 92.5,274.5 Z"/></g>
<g><path style="opacity:1" fill="#c52d2e" d="M 81.5,293.5 C 85.9757,293.822 87.4757,296.156 86,300.5C 82.456,303.32 79.956,302.486 78.5,298C 79.3146,296.357 80.3146,294.857 81.5,293.5 Z"/></g>
<g><path style="opacity:1" fill="#f9d001" d="M 62.5,312.5 C 76.1667,312.5 89.8333,312.5 103.5,312.5C 103.5,314.833 103.5,317.167 103.5,319.5C 89.8333,319.5 76.1667,319.5 62.5,319.5C 62.5,317.167 62.5,314.833 62.5,312.5 Z"/></g>
<g><path style="opacity:1" fill="#edab0d" d="M 62.5,312.5 C 62.5,314.833 62.5,317.167 62.5,319.5C 76.1667,319.5 89.8333,319.5 103.5,319.5C 89.6766,320.496 75.6766,320.829 61.5,320.5C 61.1936,317.615 61.5269,314.948 62.5,312.5 Z"/></g>
<g><path style="opacity:1" fill="#f8cd02" d="M 62.5,325.5 C 75.6603,324.34 88.9936,324.173 102.5,325C 96.0662,328.966 89.5662,332.799 83,336.5C 76.049,332.943 69.2157,329.276 62.5,325.5 Z"/></g>
</svg>
