<?xml version="1.0" encoding="UTF-8"?>
<!DOCTYPE svg PUBLIC "-//W3C//DTD SVG 1.1//EN" "http://www.w3.org/Graphics/SVG/1.1/DTD/svg11.dtd">
<svg xmlns="http://www.w3.org/2000/svg" version="1.1" width="500px" height="500px" style="shape-rendering:geometricPrecision; text-rendering:geometricPrecision; image-rendering:optimizeQuality; fill-rule:evenodd; clip-rule:evenodd" xmlns:xlink="http://www.w3.org/1999/xlink">
<g><path style="opacity:0.995" fill="#c0272d" d="M 225.5,-0.5 C 241.5,-0.5 257.5,-0.5 273.5,-0.5C 362.269,10.9489 428.436,55.6156 472,133.5C 486.559,162.333 495.726,192.666 499.5,224.5C 499.5,241.167 499.5,257.833 499.5,274.5C 487.764,361.841 443.764,427.341 367.5,471C 338.093,486.083 307.093,495.583 274.5,499.5C 257.833,499.5 241.167,499.5 224.5,499.5C 132.596,487.072 65.4294,439.739 23,357.5C 10.7506,330.604 2.91724,302.604 -0.5,273.5C -0.5,257.5 -0.5,241.5 -0.5,225.5C 11.4543,135.075 57.4543,68.242 137.5,25C 165.514,11.5012 194.847,3.00119 225.5,-0.5 Z"/></g>
<g><path style="opacity:1" fill="#0e6032" d="M 248.5,167.5 C 249.497,167.47 250.164,167.97 250.5,169C 256.509,187.027 262.509,205.027 268.5,223C 288.5,223.333 308.5,223.667 328.5,224C 313.678,235.244 298.678,246.244 283.5,257C 282.101,258.062 281.101,259.395 280.5,261C 286.773,279.811 292.606,298.644 298,317.5C 282.27,305.432 266.27,293.766 250,282.5C 233.12,293.376 216.787,305.043 201,317.5C 206.495,298.508 212.328,279.508 218.5,260.5C 217.455,258.795 216.122,257.295 214.5,256C 199.833,245.333 185.167,234.667 170.5,224C 190.831,223.5 211.164,223.333 231.5,223.5C 237.164,204.839 242.831,186.173 248.5,167.5 Z"/></g>
<g><path style="opacity:1" fill="#bf282d" d="M 255.5,223.5 C 251.629,223.815 247.962,223.482 244.5,222.5C 245.565,217.304 247.232,212.304 249.5,207.5C 251.702,212.775 253.702,218.108 255.5,223.5 Z"/></g>
<g><path style="opacity:1" fill="#504930" d="M 244.5,222.5 C 247.962,223.482 251.629,223.815 255.5,223.5C 251.649,224.809 247.649,224.809 243.5,223.5C 243.624,222.893 243.957,222.56 244.5,222.5 Z"/></g>
<g><path style="opacity:1" fill="#bf282d" d="M 208.5,237.5 C 214.346,236.183 220.346,236.183 226.5,237.5C 225.235,240.796 224.068,244.129 223,247.5C 218.37,243.777 213.536,240.443 208.5,237.5 Z"/></g>
<g><path style="opacity:1" fill="#bf282d" d="M 239.5,236.5 C 246.175,236.334 252.842,236.5 259.5,237C 261.892,243.081 263.725,249.248 265,255.5C 259.921,259.29 254.755,262.956 249.5,266.5C 243.86,262.853 238.527,258.853 233.5,254.5C 235.711,248.535 237.711,242.535 239.5,236.5 Z"/></g>
<g><path style="opacity:1" fill="#be292d" d="M 272.5,237.5 C 278.319,236.347 284.319,236.181 290.5,237C 285.97,240.362 281.303,243.529 276.5,246.5C 274.76,243.588 273.427,240.588 272.5,237.5 Z"/></g>
<g><path style="opacity:1" fill="#bc2a2d" d="M 229.5,267.5 C 232.621,269.448 235.621,271.615 238.5,274C 234.286,277.882 229.786,281.382 225,284.5C 225.97,278.746 227.47,273.079 229.5,267.5 Z"/></g>
<g><path style="opacity:1" fill="#bd292d" d="M 268.5,267.5 C 270.648,270.403 272.148,273.736 273,277.5C 273.837,279.821 274.17,282.155 274,284.5C 269.214,281.382 264.714,277.882 260.5,274C 263.355,271.969 266.022,269.803 268.5,267.5 Z"/></g>
</svg>
