<?xml version="1.0" encoding="UTF-8"?>
<!DOCTYPE svg PUBLIC "-//W3C//DTD SVG 1.1//EN" "http://www.w3.org/Graphics/SVG/1.1/DTD/svg11.dtd">
<svg xmlns="http://www.w3.org/2000/svg" version="1.1" width="500px" height="500px" style="shape-rendering:geometricPrecision; text-rendering:geometricPrecision; image-rendering:optimizeQuality; fill-rule:evenodd; clip-rule:evenodd" xmlns:xlink="http://www.w3.org/1999/xlink">
<g><path style="opacity:0.993" fill="#007067" d="M 225.5,-0.5 C 241.5,-0.5 257.5,-0.5 273.5,-0.5C 358.119,10.3302 422.619,51.9969 467,124.5C 472.922,134.343 477.755,144.676 481.5,155.5C 389.167,155.5 296.833,155.5 204.5,155.5C 163.858,124.852 123.524,93.852 83.5,62.5C 123.903,26.3069 171.236,5.30692 225.5,-0.5 Z"/></g>
<g><path style="opacity:0.995" fill="#d11033" d="M 83.5,62.5 C 123.524,93.852 163.858,124.852 204.5,155.5C 211.548,161.213 218.881,166.546 226.5,171.5C 259.917,197.722 293.584,223.722 327.5,249.5C 293.791,275.555 260.124,301.555 226.5,327.5C 218.926,332.073 211.926,337.406 205.5,343.5C 164.259,373.74 123.593,404.74 83.5,436.5C 47.3855,405.317 22.5522,366.65 9,320.5C 4.58894,304.943 1.42227,289.277 -0.5,273.5C -0.5,257.5 -0.5,241.5 -0.5,225.5C 5.86259,169.784 27.6959,121.117 65,79.5C 70.7368,73.2589 76.9035,67.5922 83.5,62.5 Z"/></g>
<g><path style="opacity:0.998" fill="#f8faf9" d="M 204.5,155.5 C 296.833,155.5 389.167,155.5 481.5,155.5C 484.068,160.525 486.068,165.859 487.5,171.5C 400.5,171.5 313.5,171.5 226.5,171.5C 218.881,166.546 211.548,161.213 204.5,155.5 Z"/></g>
<g><path style="opacity:1" fill="#f9dd01" d="M 126.5,209.5 C 123.538,212.964 120.371,216.297 117,219.5C 116.667,219.167 116.333,218.833 116,218.5C 113.984,220.684 111.817,222.684 109.5,224.5C 105,219.5 100.5,214.5 96,209.5C 94.0972,207.559 93.2639,205.226 93.5,202.5C 98.6486,187.275 103.815,171.941 109,156.5C 114.942,174.158 120.775,191.825 126.5,209.5 Z"/></g>
<g><path style="opacity:0.997" fill="#000000" d="M 226.5,171.5 C 313.5,171.5 400.5,171.5 487.5,171.5C 493.303,188.86 497.303,206.527 499.5,224.5C 499.5,241.167 499.5,257.833 499.5,274.5C 497.288,292.556 493.288,310.222 487.5,327.5C 400.5,327.5 313.5,327.5 226.5,327.5C 260.124,301.555 293.791,275.555 327.5,249.5C 293.584,223.722 259.917,197.722 226.5,171.5 Z"/></g>
<g><path style="opacity:1" fill="#090504" d="M 129.5,222.5 C 126.22,225.043 123.387,228.043 121,231.5C 120.209,232.745 119.709,234.078 119.5,235.5C 120.167,236.167 120.833,236.833 121.5,237.5C 131.491,249.489 141.824,261.156 152.5,272.5C 152.435,272.938 152.601,273.272 153,273.5C 153.278,272.584 153.778,271.918 154.5,271.5C 154.34,273.199 154.506,274.866 155,276.5C 157.733,279.062 160.233,281.729 162.5,284.5C 162.842,285.338 163.508,285.672 164.5,285.5C 168.382,291.561 172.882,297.227 178,302.5C 178.861,305.994 177.528,308.327 174,309.5C 169.5,304.5 165,299.5 160.5,294.5C 159.051,293.828 157.718,293.161 156.5,292.5C 157.239,292.631 157.906,292.464 158.5,292C 155.96,289.795 153.793,287.295 152,284.5C 150.89,282.963 149.39,282.297 147.5,282.5C 148.506,281.604 148.506,280.938 147.5,280.5C 136.75,266.911 125.417,253.744 113.5,241C 112.552,240.517 111.552,240.351 110.5,240.5C 110.5,247.167 110.5,253.833 110.5,260.5C 113.807,261.051 117.14,261.384 120.5,261.5C 120.666,265.514 120.499,269.514 120,273.5C 117.281,274.444 114.448,274.777 111.5,274.5C 110.791,273.596 109.791,273.263 108.5,273.5C 100.46,270.647 92.7929,266.98 85.5,262.5C 84.2199,264.724 84.5532,266.724 86.5,268.5C 84.517,270.984 82.3504,273.317 80,275.5C 79.3224,277.598 79.4891,279.598 80.5,281.5C 80.5,281.833 80.5,282.167 80.5,282.5C 84.0194,287.046 83.0194,290.046 77.5,291.5C 77.1667,291.5 76.8333,291.5 76.5,291.5C 75.2601,288.976 74.0934,286.309 73,283.5C 69.7908,282.146 66.6241,282.313 63.5,284C 61.6664,286.663 59.6664,289.163 57.5,291.5C 56.6618,291.842 56.3284,292.508 56.5,293.5C 51.1567,298.681 46.3233,304.348 42,310.5C 39.7328,311.935 37.7328,311.602 36,309.5C 32.9754,305.976 30.1421,302.309 27.5,298.5C 32.4578,293.676 37.4578,288.842 42.5,284C 44.8082,282.133 47.4749,281.133 50.5,281C 53.3489,277.984 56.3489,275.15 59.5,272.5C 60.4841,269.572 60.8174,266.572 60.5,263.5C 61.2905,262.599 62.2905,261.932 63.5,261.5C 64.4916,261.672 65.1583,261.338 65.5,260.5C 67.69,259.626 68.69,257.959 68.5,255.5C 69.6522,256.625 70.6522,256.625 71.5,255.5C 78.1313,250.204 84.4646,244.537 90.5,238.5C 91.5,237.5 92.5,236.5 93.5,235.5C 95.6572,233.588 97.9906,231.921 100.5,230.5C 100.595,233.272 101.929,235.272 104.5,236.5C 108.522,233.848 108.188,233.014 103.5,234C 101.627,233.047 101.294,231.88 102.5,230.5C 103.525,230.103 103.692,229.437 103,228.5C 98.9679,223.639 94.8012,218.972 90.5,214.5C 90.3893,213.883 90.056,213.383 89.5,213C 87.1667,212.667 84.8333,212.333 82.5,212C 80.6487,210.316 78.982,208.483 77.5,206.5C 76.6764,209.785 76.1764,213.118 76,216.5C 72.9514,220.043 70.1181,223.709 67.5,227.5C 60.8423,234.831 54.5089,242.498 48.5,250.5C 43.8632,244.858 39.1966,239.191 34.5,233.5C 36.2516,231.754 37.5849,229.754 38.5,227.5C 45.4975,218.487 52.1642,209.153 58.5,199.5C 63.1196,198.507 67.7863,198.173 72.5,198.5C 72.6566,191.912 75.99,189.412 82.5,191C 87.0447,194.044 90.7113,197.877 93.5,202.5C 93.2639,205.226 94.0972,207.559 96,209.5C 100.5,214.5 105,219.5 109.5,224.5C 111.817,222.684 113.984,220.684 116,218.5C 116.333,218.833 116.667,219.167 117,219.5C 120.371,216.297 123.538,212.964 126.5,209.5C 136.332,209.684 142.165,205.017 144,195.5C 147.018,198.629 150.518,199.296 154.5,197.5C 154.343,198.873 154.51,200.207 155,201.5C 166.667,193.167 178.333,184.833 190,176.5C 180.361,187.473 169.861,197.973 158.5,208C 156.833,208.333 155.167,208.667 153.5,209C 147.833,214 142.167,219 136.5,224C 134.533,223.76 132.7,222.927 131,221.5C 130.235,221.57 129.735,221.903 129.5,222.5 Z"/></g>
<g><path style="opacity:1" fill="#cd1132" d="M 90.5,214.5 C 88.3902,218.502 87.0569,222.835 86.5,227.5C 80.1667,227.5 73.8333,227.5 67.5,227.5C 70.1181,223.709 72.9514,220.043 76,216.5C 76.1764,213.118 76.6764,209.785 77.5,206.5C 78.982,208.483 80.6487,210.316 82.5,212C 84.8333,212.333 87.1667,212.667 89.5,213C 90.056,213.383 90.3893,213.883 90.5,214.5 Z"/></g>
<g><path style="opacity:1" fill="#f7dc00" d="M 90.5,214.5 C 94.8012,218.972 98.9679,223.639 103,228.5C 103.692,229.437 103.525,230.103 102.5,230.5C 101.833,230.5 101.167,230.5 100.5,230.5C 97.9906,231.921 95.6572,233.588 93.5,235.5C 86.884,236.097 80.5506,237.431 74.5,239.5C 72.5956,239.738 71.2623,240.738 70.5,242.5C 69.1667,243.167 68.1667,244.167 67.5,245.5C 64.9389,250.411 63.6056,255.744 63.5,261.5C 62.2905,261.932 61.2905,262.599 60.5,263.5C 44.1961,251.676 27.8627,239.843 11.5,228C 20.4938,227.5 29.4938,227.334 38.5,227.5C 37.5849,229.754 36.2516,231.754 34.5,233.5C 39.1966,239.191 43.8632,244.858 48.5,250.5C 54.5089,242.498 60.8423,234.831 67.5,227.5C 73.8333,227.5 80.1667,227.5 86.5,227.5C 87.0569,222.835 88.3902,218.502 90.5,214.5 Z"/></g>
<g><path style="opacity:1" fill="#fadf00" d="M 129.5,222.5 C 130.931,223.78 131.598,225.447 131.5,227.5C 156.502,227.333 181.502,227.5 206.5,228C 190.459,240.011 174.126,251.511 157.5,262.5C 155.905,257.548 154.405,252.548 153,247.5C 152.34,245.676 151.173,244.343 149.5,243.5C 148.833,242.167 147.833,241.167 146.5,240.5C 144.044,238.132 141.044,237.132 137.5,237.5C 131.739,235.943 125.739,235.276 119.5,235.5C 119.709,234.078 120.209,232.745 121,231.5C 123.387,228.043 126.22,225.043 129.5,222.5 Z"/></g>
<g><path style="opacity:1" fill="#b5a300" d="M 116.5,224.5 C 117.525,224.897 117.692,225.563 117,226.5C 116.163,228.007 114.996,228.507 113.5,228C 114.71,226.961 115.71,225.794 116.5,224.5 Z"/></g>
<g><path style="opacity:1" fill="#827400" d="M 100.5,230.5 C 101.167,230.5 101.833,230.5 102.5,230.5C 101.294,231.88 101.627,233.047 103.5,234C 108.188,233.014 108.522,233.848 104.5,236.5C 101.929,235.272 100.595,233.272 100.5,230.5 Z"/></g>
<g><path style="opacity:1" fill="#564e36" d="M 119.5,235.5 C 125.739,235.276 131.739,235.943 137.5,237.5C 132.167,237.5 126.833,237.5 121.5,237.5C 120.833,236.833 120.167,236.167 119.5,235.5 Z"/></g>
<g><path style="opacity:1" fill="#f2f2f3" d="M 90.5,238.5 C 84.4646,244.537 78.1313,250.204 71.5,255.5C 70.8761,255.083 70.5427,254.416 70.5,253.5C 71.4148,248.608 72.7482,243.941 74.5,239.5C 79.0114,238.975 83.5114,238.308 88,237.5C 89.0698,237.528 89.9032,237.861 90.5,238.5 Z"/></g>
<g><path style="opacity:1" fill="#4e4835" d="M 93.5,235.5 C 92.5,236.5 91.5,237.5 90.5,238.5C 89.9032,237.861 89.0698,237.528 88,237.5C 83.5114,238.308 79.0114,238.975 74.5,239.5C 80.5506,237.431 86.884,236.097 93.5,235.5 Z"/></g>
<g><path style="opacity:1" fill="#f7f7f8" d="M 121.5,237.5 C 126.833,237.5 132.167,237.5 137.5,237.5C 140.215,239.072 143.215,240.072 146.5,240.5C 147.008,244.736 148.008,248.736 149.5,252.5C 149.581,257.477 150.581,262.143 152.5,266.5C 152.5,268.5 152.5,270.5 152.5,272.5C 141.824,261.156 131.491,249.489 121.5,237.5 Z"/></g>
<g><path style="opacity:1" fill="#4e4834" d="M 137.5,237.5 C 141.044,237.132 144.044,238.132 146.5,240.5C 143.215,240.072 140.215,239.072 137.5,237.5 Z"/></g>
<g><path style="opacity:1" fill="#f8f8f8" d="M 147.5,280.5 C 141.5,280.5 135.5,280.5 129.5,280.5C 126.273,280.676 123.273,281.343 120.5,282.5C 117.123,282.959 113.789,283.626 110.5,284.5C 110.187,280.958 110.521,277.625 111.5,274.5C 114.448,274.777 117.281,274.444 120,273.5C 120.499,269.514 120.666,265.514 120.5,261.5C 117.14,261.384 113.807,261.051 110.5,260.5C 110.5,253.833 110.5,247.167 110.5,240.5C 111.552,240.351 112.552,240.517 113.5,241C 125.417,253.744 136.75,266.911 147.5,280.5 Z"/></g>
<g><path style="opacity:1" fill="#3a3b3c" d="M 146.5,240.5 C 147.833,241.167 148.833,242.167 149.5,243.5C 149.094,246.281 149.094,249.281 149.5,252.5C 148.008,248.736 147.008,244.736 146.5,240.5 Z"/></g>
<g><path style="opacity:1" fill="#e2e2e4" d="M 70.5,242.5 C 71.0967,242.735 71.4301,243.235 71.5,244C 70.4177,247.83 69.4177,251.663 68.5,255.5C 68.69,257.959 67.69,259.626 65.5,260.5C 64.8761,260.083 64.5427,259.416 64.5,258.5C 65.7146,254.196 66.7146,249.862 67.5,245.5C 68.1667,244.167 69.1667,243.167 70.5,242.5 Z"/></g>
<g><path style="opacity:1" fill="#e8e8e8" d="M 97.5,243.5 C 99.4509,244.716 100.951,246.382 102,248.5C 104.257,246.954 106.424,245.288 108.5,243.5C 109.495,248.792 109.828,254.125 109.5,259.5C 104.481,259.412 99.8141,258.078 95.5,255.5C 94.3861,254.277 94.2195,252.944 95,251.5C 96.3513,249.981 97.8513,248.648 99.5,247.5C 98.3698,246.378 97.7031,245.044 97.5,243.5 Z"/></g>
<g><path style="opacity:1" fill="#453d2d" d="M 149.5,243.5 C 151.173,244.343 152.34,245.676 153,247.5C 154.405,252.548 155.905,257.548 157.5,262.5C 158.301,264.042 158.634,265.708 158.5,267.5C 155.509,259.531 152.509,251.531 149.5,243.5 Z"/></g>
<g><path style="opacity:1" fill="#ebecec" d="M 149.5,243.5 C 152.509,251.531 155.509,259.531 158.5,267.5C 158.171,270.228 158.837,272.562 160.5,274.5C 160.547,277.969 161.213,281.302 162.5,284.5C 160.233,281.729 157.733,279.062 155,276.5C 154.506,274.866 154.34,273.199 154.5,271.5C 154.204,269.597 153.537,267.93 152.5,266.5C 152.735,261.454 151.735,256.787 149.5,252.5C 149.094,249.281 149.094,246.281 149.5,243.5 Z"/></g>
<g><path style="opacity:1" fill="#484848" d="M 74.5,239.5 C 72.7482,243.941 71.4148,248.608 70.5,253.5C 70.5427,254.416 70.8761,255.083 71.5,255.5C 70.6522,256.625 69.6522,256.625 68.5,255.5C 69.4177,251.663 70.4177,247.83 71.5,244C 71.4301,243.235 71.0967,242.735 70.5,242.5C 71.2623,240.738 72.5956,239.738 74.5,239.5 Z"/></g>
<g><path style="opacity:1" fill="#433d2a" d="M 67.5,245.5 C 66.7146,249.862 65.7146,254.196 64.5,258.5C 64.5427,259.416 64.8761,260.083 65.5,260.5C 65.1583,261.338 64.4916,261.672 63.5,261.5C 63.6056,255.744 64.9389,250.411 67.5,245.5 Z"/></g>
<g><path style="opacity:1" fill="#797979" d="M 84.5,252.5 C 86.2023,249.605 88.5356,247.772 91.5,247C 89.5588,249.454 87.2254,251.287 84.5,252.5 Z"/></g>
<g><path style="opacity:1" fill="#525252" d="M 149.5,252.5 C 151.735,256.787 152.735,261.454 152.5,266.5C 150.581,262.143 149.581,257.477 149.5,252.5 Z"/></g>
<g><path style="opacity:1" fill="#d6d6d6" d="M 84.5,252.5 C 76.9493,258.871 69.4493,265.537 62,272.5C 61.3698,270.097 62.2031,268.263 64.5,267C 69.3506,263.406 74.0173,259.572 78.5,255.5C 80.528,254.451 82.528,253.451 84.5,252.5 Z"/></g>
<g><path style="opacity:1" fill="#f8f8f8" d="M 108.5,273.5 C 108.666,277.514 108.499,281.514 108,285.5C 104.41,283.642 100.576,282.476 96.5,282C 91.1771,281.501 85.8437,281.334 80.5,281.5C 79.4891,279.598 79.3224,277.598 80,275.5C 82.3504,273.317 84.517,270.984 86.5,268.5C 84.5532,266.724 84.2199,264.724 85.5,262.5C 92.7929,266.98 100.46,270.647 108.5,273.5 Z"/></g>
<g><path style="opacity:1" fill="#e5e5e5" d="M 79.5,266.5 C 81.9701,267.36 82.1368,268.694 80,270.5C 78.2317,269.318 78.0651,267.985 79.5,266.5 Z"/></g>
<g><path style="opacity:1" fill="#7e7e7e" d="M 152.5,266.5 C 153.537,267.93 154.204,269.597 154.5,271.5C 153.778,271.918 153.278,272.584 153,273.5C 152.601,273.272 152.435,272.938 152.5,272.5C 152.5,270.5 152.5,268.5 152.5,266.5 Z"/></g>
<g><path style="opacity:1" fill="#443533" d="M 158.5,267.5 C 159.924,269.515 160.59,271.848 160.5,274.5C 158.837,272.562 158.171,270.228 158.5,267.5 Z"/></g>
<g><path style="opacity:1" fill="#d1d1d1" d="M 72.5,272.5 C 73.2389,272.369 73.9056,272.536 74.5,273C 72.8333,274.667 71.1667,276.333 69.5,278C 70.5,279 71.5,280 72.5,281C 69.8333,281.667 67.1667,281.667 64.5,281C 67.3714,278.297 70.0381,275.464 72.5,272.5 Z"/></g>
<g><path style="opacity:1" fill="#5a4544" d="M 160.5,274.5 C 162.204,277.939 163.538,281.605 164.5,285.5C 163.508,285.672 162.842,285.338 162.5,284.5C 161.213,281.302 160.547,277.969 160.5,274.5 Z"/></g>
<g><path style="opacity:1" fill="#555555" d="M 129.5,280.5 C 135.5,280.5 141.5,280.5 147.5,280.5C 148.506,280.938 148.506,281.604 147.5,282.5C 145.5,282.5 143.5,282.5 141.5,282.5C 137.5,281.833 133.5,281.167 129.5,280.5 Z"/></g>
<g><path style="opacity:1" fill="#9a9a9a" d="M 129.5,280.5 C 133.5,281.167 137.5,281.833 141.5,282.5C 134.789,282.287 128.123,282.62 121.5,283.5C 121.5,282.833 121.167,282.5 120.5,282.5C 123.273,281.343 126.273,280.676 129.5,280.5 Z"/></g>
<g><path style="opacity:1" fill="#f9f9f9" d="M 80.5,282.5 C 89.4613,282.161 98.1279,283.494 106.5,286.5C 104.376,288.121 102.376,289.954 100.5,292C 92.6554,292.822 84.9887,292.656 77.5,291.5C 83.0194,290.046 84.0194,287.046 80.5,282.5 Z"/></g>
<g><path style="opacity:1" fill="#f7f7f7" d="M 141.5,282.5 C 143.5,282.5 145.5,282.5 147.5,282.5C 149.39,282.297 150.89,282.963 152,284.5C 153.793,287.295 155.96,289.795 158.5,292C 157.906,292.464 157.239,292.631 156.5,292.5C 153.091,291.097 149.425,290.43 145.5,290.5C 144.833,290.5 144.167,290.5 143.5,290.5C 140.686,289.835 137.686,289.502 134.5,289.5C 130.203,289.278 126.203,289.945 122.5,291.5C 121.178,291.33 120.011,291.663 119,292.5C 117.549,290.536 115.716,289.203 113.5,288.5C 112.438,287.425 112.438,286.425 113.5,285.5C 116.096,284.518 118.762,283.851 121.5,283.5C 128.123,282.62 134.789,282.287 141.5,282.5 Z"/></g>
<g><path style="opacity:1" fill="#f5f5f5" d="M 76.5,291.5 C 70.1667,292.833 63.8333,292.833 57.5,291.5C 59.6664,289.163 61.6664,286.663 63.5,284C 66.6241,282.313 69.7908,282.146 73,283.5C 74.0934,286.309 75.2601,288.976 76.5,291.5 Z"/></g>
<g><path style="opacity:1" fill="#f8f8f8" d="M 113.5,288.5 C 114.625,290.129 115.959,291.629 117.5,293C 116.429,293.852 115.429,294.685 114.5,295.5C 110.818,295.665 107.152,295.499 103.5,295C 102.692,294.692 102.025,294.192 101.5,293.5C 104.419,288.85 108.419,287.184 113.5,288.5 Z"/></g>
<g><path style="opacity:1" fill="#383429" d="M 143.5,290.5 C 136.465,290.326 129.465,290.659 122.5,291.5C 126.203,289.945 130.203,289.278 134.5,289.5C 137.686,289.502 140.686,289.835 143.5,290.5 Z"/></g>
<g><path style="opacity:1" fill="#463e27" d="M 145.5,290.5 C 149.425,290.43 153.091,291.097 156.5,292.5C 155.5,292.5 154.5,292.5 153.5,292.5C 150.572,292.435 147.905,291.768 145.5,290.5 Z"/></g>
<g><path style="opacity:1" fill="#3c3931" d="M 113.5,288.5 C 115.716,289.203 117.549,290.536 119,292.5C 120.011,291.663 121.178,291.33 122.5,291.5C 120.109,293.362 117.442,294.696 114.5,295.5C 115.429,294.685 116.429,293.852 117.5,293C 115.959,291.629 114.625,290.129 113.5,288.5 Z"/></g>
<g><path style="opacity:1" fill="#434345" d="M 108.5,273.5 C 109.791,273.263 110.791,273.596 111.5,274.5C 110.521,277.625 110.187,280.958 110.5,284.5C 113.789,283.626 117.123,282.959 120.5,282.5C 121.167,282.5 121.5,282.833 121.5,283.5C 118.762,283.851 116.096,284.518 113.5,285.5C 112.438,286.425 112.438,287.425 113.5,288.5C 108.419,287.184 104.419,288.85 101.5,293.5C 102.025,294.192 102.692,294.692 103.5,295C 107.152,295.499 110.818,295.665 114.5,295.5C 109.272,298.448 104.272,297.948 99.5,294C 87.8381,293.5 76.1714,293.333 64.5,293.5C 61.8333,293.5 59.1667,293.5 56.5,293.5C 56.3284,292.508 56.6618,291.842 57.5,291.5C 63.8333,292.833 70.1667,292.833 76.5,291.5C 76.8333,291.5 77.1667,291.5 77.5,291.5C 84.9887,292.656 92.6554,292.822 100.5,292C 102.376,289.954 104.376,288.121 106.5,286.5C 98.1279,283.494 89.4613,282.161 80.5,282.5C 80.5,282.167 80.5,281.833 80.5,281.5C 85.8437,281.334 91.1771,281.501 96.5,282C 100.576,282.476 104.41,283.642 108,285.5C 108.499,281.514 108.666,277.514 108.5,273.5 Z"/></g>
<g><path style="opacity:1" fill="#fade00" d="M 143.5,290.5 C 144.167,290.5 144.833,290.5 145.5,290.5C 147.905,291.768 150.572,292.435 153.5,292.5C 158.426,308.945 163.759,325.278 169.5,341.5C 169.167,341.833 168.833,342.167 168.5,342.5C 148.807,327.64 128.974,312.974 109,298.5C 89,313.167 69,327.833 49,342.5C 53.4411,326.007 58.6078,309.673 64.5,293.5C 76.1714,293.333 87.8381,293.5 99.5,294C 104.272,297.948 109.272,298.448 114.5,295.5C 117.442,294.696 120.109,293.362 122.5,291.5C 129.465,290.659 136.465,290.326 143.5,290.5 Z"/></g>
<g><path style="opacity:0.997" fill="#fefdfa" d="M 226.5,327.5 C 313.5,327.5 400.5,327.5 487.5,327.5C 486.071,333.129 484.071,338.463 481.5,343.5C 389.5,343.5 297.5,343.5 205.5,343.5C 211.926,337.406 218.926,332.073 226.5,327.5 Z"/></g>
<g><path style="opacity:0.993" fill="#fbe000" d="M 205.5,343.5 C 297.5,343.5 389.5,343.5 481.5,343.5C 453.53,410.302 405.864,457.136 338.5,484C 317.652,491.713 296.319,496.88 274.5,499.5C 257.833,499.5 241.167,499.5 224.5,499.5C 175.815,493.82 132.148,475.987 93.5,446C 89.6659,443.332 86.3325,440.165 83.5,436.5C 123.593,404.74 164.259,373.74 205.5,343.5 Z"/></g>
</svg>
