<?xml version="1.0" encoding="UTF-8"?>
<!DOCTYPE svg PUBLIC "-//W3C//DTD SVG 1.1//EN" "http://www.w3.org/Graphics/SVG/1.1/DTD/svg11.dtd">
<svg xmlns="http://www.w3.org/2000/svg" version="1.1" width="500px" height="500px" style="shape-rendering:geometricPrecision; text-rendering:geometricPrecision; image-rendering:optimizeQuality; fill-rule:evenodd; clip-rule:evenodd" xmlns:xlink="http://www.w3.org/1999/xlink">
<g><path style="opacity:0.993" fill="#fdca00" d="M 225.5,-0.5 C 241.5,-0.5 257.5,-0.5 273.5,-0.5C 362.269,10.9489 428.436,55.6156 472,133.5C 477.625,144.077 482.125,155.077 485.5,166.5C 416.167,166.5 346.833,166.5 277.5,166.5C 267.998,139.329 258.665,111.996 249.5,84.5C 240.1,111.7 231.1,139.034 222.5,166.5C 152.833,166.5 83.1667,166.5 13.5,166.5C 43.991,84.513 101.324,31.3463 185.5,7C 198.832,3.72528 212.166,1.22528 225.5,-0.5 Z"/></g>
<g><path style="opacity:1" fill="#fefefe" d="M 277.5,166.5 C 281.625,180.876 285.958,195.21 290.5,209.5C 334.833,210.167 379.167,210.833 423.5,211.5C 387.764,236.79 352.264,262.457 317,288.5C 321.137,303.411 325.97,318.077 331.5,332.5C 339.555,359.998 348.221,387.332 357.5,414.5C 357.167,414.833 356.833,415.167 356.5,415.5C 320.833,389.5 285.167,363.5 249.5,337.5C 213.833,363.5 178.167,389.5 142.5,415.5C 142.167,415.167 141.833,414.833 141.5,414.5C 150.509,387.139 159.509,359.805 168.5,332.5C 173.13,317.783 177.63,303.116 182,288.5C 146.736,262.457 111.236,236.79 75.5,211.5C 119.833,210.833 164.167,210.167 208.5,209.5C 212.769,195.027 217.436,180.693 222.5,166.5C 231.1,139.034 240.1,111.7 249.5,84.5C 258.665,111.996 267.998,139.329 277.5,166.5 Z"/></g>
<g><path style="opacity:0.996" fill="#34b233" d="M 13.5,166.5 C 83.1667,166.5 152.833,166.5 222.5,166.5C 217.436,180.693 212.769,195.027 208.5,209.5C 163.828,209.167 119.162,209.5 74.5,210.5C 74.6236,211.107 74.9569,211.44 75.5,211.5C 111.236,236.79 146.736,262.457 182,288.5C 177.63,303.116 173.13,317.783 168.5,332.5C 116.833,332.5 65.1667,332.5 13.5,332.5C 6.28469,313.42 1.61802,293.754 -0.5,273.5C -0.5,257.5 -0.5,241.5 -0.5,225.5C 1.61802,205.246 6.28469,185.58 13.5,166.5 Z"/></g>
<g><path style="opacity:0.996" fill="#33b233" d="M 277.5,166.5 C 346.833,166.5 416.167,166.5 485.5,166.5C 492.586,185.267 497.253,204.6 499.5,224.5C 499.5,241.167 499.5,257.833 499.5,274.5C 498.1,284.764 496.267,295.098 494,305.5C 492.031,314.9 489.198,323.9 485.5,332.5C 434.167,332.5 382.833,332.5 331.5,332.5C 325.97,318.077 321.137,303.411 317,288.5C 352.264,262.457 387.764,236.79 423.5,211.5C 424.043,211.44 424.376,211.107 424.5,210.5C 379.838,209.5 335.172,209.167 290.5,209.5C 285.958,195.21 281.625,180.876 277.5,166.5 Z"/></g>
<g><path style="opacity:1" fill="#75ca74" d="M 208.5,209.5 C 164.167,210.167 119.833,210.833 75.5,211.5C 74.9569,211.44 74.6236,211.107 74.5,210.5C 119.162,209.5 163.828,209.167 208.5,209.5 Z"/></g>
<g><path style="opacity:1" fill="#75ca74" d="M 290.5,209.5 C 335.172,209.167 379.838,209.5 424.5,210.5C 424.376,211.107 424.043,211.44 423.5,211.5C 379.167,210.833 334.833,210.167 290.5,209.5 Z"/></g>
<g><path style="opacity:0.992" fill="#e92839" d="M 13.5,332.5 C 65.1667,332.5 116.833,332.5 168.5,332.5C 159.509,359.805 150.509,387.139 141.5,414.5C 141.833,414.833 142.167,415.167 142.5,415.5C 178.167,389.5 213.833,363.5 249.5,337.5C 285.167,363.5 320.833,389.5 356.5,415.5C 356.833,415.167 357.167,414.833 357.5,414.5C 348.221,387.332 339.555,359.998 331.5,332.5C 382.833,332.5 434.167,332.5 485.5,332.5C 459.059,404.776 410.059,455.276 338.5,484C 317.652,491.713 296.319,496.88 274.5,499.5C 257.833,499.5 241.167,499.5 224.5,499.5C 136.144,487.759 70.3107,443.092 27,365.5C 21.3753,354.923 16.8753,343.923 13.5,332.5 Z"/></g>
</svg>
