<?xml version="1.0" encoding="UTF-8"?>
<!DOCTYPE svg PUBLIC "-//W3C//DTD SVG 1.1//EN" "http://www.w3.org/Graphics/SVG/1.1/DTD/svg11.dtd">
<svg xmlns="http://www.w3.org/2000/svg" version="1.1" width="500px" height="500px" style="shape-rendering:geometricPrecision; text-rendering:geometricPrecision; image-rendering:optimizeQuality; fill-rule:evenodd; clip-rule:evenodd" xmlns:xlink="http://www.w3.org/1999/xlink">
<g><path style="opacity:0.995" fill="#002a7f" d="M 225.5,-0.5 C 241.5,-0.5 257.5,-0.5 273.5,-0.5C 362.269,10.9489 428.436,55.6156 472,133.5C 486.559,162.333 495.726,192.666 499.5,224.5C 499.5,225.833 499.5,227.167 499.5,228.5C 332.833,228.5 166.167,228.5 -0.5,228.5C -0.5,227.5 -0.5,226.5 -0.5,225.5C 11.4543,135.075 57.4543,68.242 137.5,25C 165.514,11.5012 194.847,3.00119 225.5,-0.5 Z"/></g>
<g><path style="opacity:0.999" fill="#fcc41f" d="M -0.5,228.5 C 166.167,228.5 332.833,228.5 499.5,228.5C 499.5,242.5 499.5,256.5 499.5,270.5C 332.833,270.5 166.167,270.5 -0.5,270.5C -0.5,256.5 -0.5,242.5 -0.5,228.5 Z"/></g>
<g><path style="opacity:0.994" fill="#002b7f" d="M -0.5,270.5 C 166.167,270.5 332.833,270.5 499.5,270.5C 499.5,271.833 499.5,273.167 499.5,274.5C 487.764,361.841 443.764,427.341 367.5,471C 338.093,486.083 307.093,495.583 274.5,499.5C 257.833,499.5 241.167,499.5 224.5,499.5C 132.596,487.072 65.4294,439.739 23,357.5C 10.7506,330.604 2.91724,302.604 -0.5,273.5C -0.5,272.5 -0.5,271.5 -0.5,270.5 Z"/></g>
<g><path style="opacity:1" fill="#fbfbfd" d="M 165.5,271.5 C 166.117,271.611 166.617,271.944 167,272.5C 170.196,285.951 173.696,299.284 177.5,312.5C 187.125,302.374 196.958,292.374 207,282.5C 203.363,296.048 199.863,309.714 196.5,323.5C 210.11,319.514 223.777,316.014 237.5,313C 227.626,323.042 217.626,332.875 207.5,342.5C 221.211,346.178 234.878,350.011 248.5,354C 234.699,357.034 221.032,360.534 207.5,364.5C 217.349,375.182 227.682,385.349 238.5,395C 224.601,391.648 210.767,387.814 197,383.5C 200.333,397.5 203.667,411.5 207,425.5C 197.349,415.015 187.516,404.682 177.5,394.5C 173.514,408.107 169.681,421.774 166,435.5C 162.788,421.646 159.121,407.98 155,394.5C 145.364,405.137 135.364,415.471 125,425.5C 128.087,411.723 131.921,398.056 136.5,384.5C 136,384.167 135.5,383.833 135,383.5C 121.859,387.441 108.693,390.941 95.5,394C 105.196,383.97 115.196,374.303 125.5,365C 111.385,361.472 97.3854,357.639 83.5,353.5C 97.5,349.833 111.5,346.167 125.5,342.5C 115.318,332.484 104.985,322.651 94.5,313C 106.874,315.845 119.207,319.178 131.5,323C 133.167,323.667 134.833,323.667 136.5,323C 132.193,309.242 128.36,295.409 125,281.5C 134.636,292.137 144.636,302.471 155,312.5C 158.973,298.942 162.473,285.276 165.5,271.5 Z"/></g>
</svg>
