<?xml version="1.0" encoding="UTF-8"?>
<!DOCTYPE svg PUBLIC "-//W3C//DTD SVG 1.1//EN" "http://www.w3.org/Graphics/SVG/1.1/DTD/svg11.dtd">
<svg xmlns="http://www.w3.org/2000/svg" version="1.1" width="500px" height="500px" style="shape-rendering:geometricPrecision; text-rendering:geometricPrecision; image-rendering:optimizeQuality; fill-rule:evenodd; clip-rule:evenodd" xmlns:xlink="http://www.w3.org/1999/xlink">
<g><path style="opacity:0.938" fill="#093792" d="M 499.5,225.5 C 499.5,232.833 499.5,240.167 499.5,247.5C 401.166,247.333 302.833,247.5 204.5,248C 270.333,313.833 336.167,379.667 402,445.5C 402.667,446.5 402.667,447.5 402,448.5C 399.287,450.72 396.454,452.72 393.5,454.5C 321.473,382.14 249.473,309.806 177.5,237.5C 282.667,236.833 388.001,236.167 493.5,235.5C 493.376,234.893 493.043,234.56 492.5,234.5C 378.127,163.32 264.127,91.6529 150.5,19.5C 154.439,17.3518 158.605,15.6851 163,14.5C 275.599,84.2123 387.766,154.546 499.5,225.5 Z"/></g>
<g><path style="opacity:0.997" fill="#dc143c" d="M 150.5,19.5 C 264.127,91.6529 378.127,163.32 492.5,234.5C 387.333,235.167 281.999,235.833 176.5,236.5C 176.624,237.107 176.957,237.44 177.5,237.5C 249.473,309.806 321.473,382.14 393.5,454.5C 357.704,479.546 318.038,494.546 274.5,499.5C 257.833,499.5 241.167,499.5 224.5,499.5C 202.482,496.996 181.149,491.662 160.5,483.5C 163.88,473.746 168.047,464.413 173,455.5C 183.323,463.152 193.656,470.819 204,478.5C 203.249,465.488 202.083,452.488 200.5,439.5C 213.541,440.59 226.541,441.756 239.5,443C 231.819,432.656 224.152,422.323 216.5,412C 217.444,410.523 218.777,409.523 220.5,409C 231.097,405.033 241.431,400.533 251.5,395.5C 239.64,390.276 227.973,384.776 216.5,379C 224.152,368.677 231.819,358.344 239.5,348C 226.488,348.751 213.488,349.917 200.5,351.5C 201.922,338.472 203.089,325.472 204,312.5C 193.882,319.616 184.049,327.116 174.5,335C 173.552,335.483 172.552,335.649 171.5,335.5C 167.053,323.272 162.053,311.272 156.5,299.5C 151.155,311.522 145.821,323.522 140.5,335.5C 129.885,328.219 119.551,320.552 109.5,312.5C 109.167,313.333 108.833,314.167 108.5,315C 110.09,327.062 111.757,339.062 113.5,351C 100.094,350.656 86.7611,349.656 73.5,348C 81.6596,357.994 89.3263,368.327 96.5,379C 85.027,384.776 73.3604,390.276 61.5,395.5C 73.3921,401.022 85.3921,406.355 97.5,411.5C 91.5802,419.018 85.9135,426.685 80.5,434.5C 66.6344,421.978 54.6344,407.978 44.5,392.5C 44.5,297.167 44.5,201.833 44.5,106.5C 71.3686,67.3083 106.702,38.3083 150.5,19.5 Z"/></g>
<g><path style="opacity:0.96" fill="#1d378f" d="M 44.5,106.5 C 44.5,201.833 44.5,297.167 44.5,392.5C 40.1947,387.245 36.3613,381.578 33,375.5C 32.3333,291.5 32.3333,207.5 33,123.5C 36.3613,117.422 40.1947,111.755 44.5,106.5 Z"/></g>
<g><path style="opacity:1" fill="#fefdfd" d="M 244.5,133.5 C 245.461,135.265 245.795,137.265 245.5,139.5C 239.179,181.323 215.512,207.489 174.5,218C 138.671,223.95 109.171,213.117 86,185.5C 73.813,169.939 67.813,152.273 68,132.5C 76.5926,151.373 89.5926,166.373 107,177.5C 109.644,175.69 112.144,173.69 114.5,171.5C 109.833,167.833 105.167,164.167 100.5,160.5C 106.351,158.884 112.017,156.884 117.5,154.5C 114.375,149.751 111.375,144.917 108.5,140C 114.475,140.382 120.475,140.882 126.5,141.5C 126.314,135.394 125.814,129.394 125,123.5C 130,126.5 135,129.5 140,132.5C 141.682,126.77 143.515,121.104 145.5,115.5C 149.156,120.128 152.822,124.794 156.5,129.5C 160.167,124.833 163.833,120.167 167.5,115.5C 169.187,121.222 171.187,126.888 173.5,132.5C 178.249,129.375 183.083,126.375 188,123.5C 187.37,129.434 186.87,135.434 186.5,141.5C 192.512,140.758 198.512,140.258 204.5,140C 201.5,145 198.5,150 195.5,155C 200.973,157.288 206.639,159.121 212.5,160.5C 207.872,164.156 203.206,167.822 198.5,171.5C 200.856,173.69 203.356,175.69 206,177.5C 223.682,166.991 236.515,152.324 244.5,133.5 Z"/></g>
<g><path style="opacity:1" fill="#f2a5b3" d="M 245.5,139.5 C 245.795,137.265 245.461,135.265 244.5,133.5C 244.987,132.527 245.487,131.527 246,130.5C 246.805,133.696 246.638,136.696 245.5,139.5 Z"/></g>
<g><path style="opacity:1" fill="#3f2d79" d="M 492.5,234.5 C 493.043,234.56 493.376,234.893 493.5,235.5C 388.001,236.167 282.667,236.833 177.5,237.5C 176.957,237.44 176.624,237.107 176.5,236.5C 281.999,235.833 387.333,235.167 492.5,234.5 Z"/></g>
<g><path style="opacity:0.999" fill="#fefdfd" d="M 160.5,483.5 C 157.426,482.698 154.426,481.698 151.5,480.5C 148.414,471.908 144.747,463.574 140.5,455.5C 134.836,458.848 129.836,462.848 125.5,467.5C 120.797,464.486 116.13,461.486 111.5,458.5C 111.437,453.797 111.771,449.13 112.5,444.5C 113.461,442.735 113.795,440.735 113.5,438.5C 112.209,438.263 111.209,438.596 110.5,439.5C 103.239,439.614 96.2392,440.614 89.5,442.5C 86.4744,439.805 83.4744,437.138 80.5,434.5C 85.9135,426.685 91.5802,419.018 97.5,411.5C 85.3921,406.355 73.3921,401.022 61.5,395.5C 73.3604,390.276 85.027,384.776 96.5,379C 89.3263,368.327 81.6596,357.994 73.5,348C 86.7611,349.656 100.094,350.656 113.5,351C 111.757,339.062 110.09,327.062 108.5,315C 108.833,314.167 109.167,313.333 109.5,312.5C 119.551,320.552 129.885,328.219 140.5,335.5C 145.821,323.522 151.155,311.522 156.5,299.5C 162.053,311.272 167.053,323.272 171.5,335.5C 172.552,335.649 173.552,335.483 174.5,335C 184.049,327.116 193.882,319.616 204,312.5C 203.089,325.472 201.922,338.472 200.5,351.5C 213.488,349.917 226.488,348.751 239.5,348C 231.819,358.344 224.152,368.677 216.5,379C 227.973,384.776 239.64,390.276 251.5,395.5C 241.431,400.533 231.097,405.033 220.5,409C 218.777,409.523 217.444,410.523 216.5,412C 224.152,422.323 231.819,432.656 239.5,443C 226.541,441.756 213.541,440.59 200.5,439.5C 202.083,452.488 203.249,465.488 204,478.5C 193.656,470.819 183.323,463.152 173,455.5C 168.047,464.413 163.88,473.746 160.5,483.5 Z"/></g>
<g><path style="opacity:0.918" fill="#dc1b3e" d="M 110.5,439.5 C 112.256,440.552 112.923,442.219 112.5,444.5C 111.771,449.13 111.437,453.797 111.5,458.5C 103.887,453.553 96.5533,448.22 89.5,442.5C 96.2392,440.614 103.239,439.614 110.5,439.5 Z"/></g>
<g><path style="opacity:1" fill="#ed8598" d="M 110.5,439.5 C 111.209,438.596 112.209,438.263 113.5,438.5C 113.795,440.735 113.461,442.735 112.5,444.5C 112.923,442.219 112.256,440.552 110.5,439.5 Z"/></g>
<g><path style="opacity:0.922" fill="#dc1b3e" d="M 151.5,480.5 C 142.554,476.694 133.888,472.361 125.5,467.5C 129.836,462.848 134.836,458.848 140.5,455.5C 144.747,463.574 148.414,471.908 151.5,480.5 Z"/></g>
</svg>
