<?xml version="1.0" encoding="UTF-8"?>
<!DOCTYPE svg PUBLIC "-//W3C//DTD SVG 1.1//EN" "http://www.w3.org/Graphics/SVG/1.1/DTD/svg11.dtd">
<svg xmlns="http://www.w3.org/2000/svg" version="1.1" width="500px" height="500px" style="shape-rendering:geometricPrecision; text-rendering:geometricPrecision; image-rendering:optimizeQuality; fill-rule:evenodd; clip-rule:evenodd" xmlns:xlink="http://www.w3.org/1999/xlink">
<g><path style="opacity:0.99" fill="#cc182c" d="M 225.5,-0.5 C 233.167,-0.5 240.833,-0.5 248.5,-0.5C 212.356,18.072 176.023,36.4054 139.5,54.5C 131.648,54.8254 123.982,54.492 116.5,53.5C 151.69,36.072 186.69,18.4054 221.5,0.5C 223.099,0.767809 224.432,0.434475 225.5,-0.5 Z"/></g>
<g><path style="opacity:0.996" fill="#00247d" d="M 249.5,-0.5 C 257.5,-0.5 265.5,-0.5 273.5,-0.5C 325.084,5.2383 370.75,24.5716 410.5,57.5C 404.132,57.1703 397.798,57.5037 391.5,58.5C 391.624,59.1067 391.957,59.44 392.5,59.5C 397.592,62.4238 402.258,65.9238 406.5,70C 403.768,75.3224 402.434,80.8224 402.5,86.5C 406.888,82.7786 411.555,79.4453 416.5,76.5C 421.244,80.2881 426.077,83.9547 431,87.5C 430.371,82.7651 429.205,78.0984 427.5,73.5C 445.575,90.9753 460.241,110.975 471.5,133.5C 469.892,136.263 469.059,139.263 469,142.5C 470.774,141.035 472.608,139.702 474.5,138.5C 487.728,165.84 496.062,194.507 499.5,224.5C 499.5,241.167 499.5,257.833 499.5,274.5C 487.764,361.841 443.764,427.341 367.5,471C 338.093,486.083 307.093,495.583 274.5,499.5C 257.833,499.5 241.167,499.5 224.5,499.5C 132.596,487.072 65.4294,439.739 23,357.5C 10.7506,330.604 2.91724,302.604 -0.5,273.5C -0.5,257.5 -0.5,241.5 -0.5,225.5C 3.34735,190.291 14.014,157.291 31.5,126.5C 38.8333,123.167 46.1667,119.833 53.5,116.5C 54.1667,133.167 54.8333,149.833 55.5,166.5C 59.1667,166.5 62.8333,166.5 66.5,166.5C 77.5,166.5 88.5,166.5 99.5,166.5C 103.167,166.5 106.833,166.5 110.5,166.5C 111.167,149.833 111.833,133.167 112.5,116.5C 145.372,133.103 178.372,149.436 211.5,165.5C 224.167,166.833 236.833,166.833 249.5,165.5C 249.5,161.5 249.5,157.5 249.5,153.5C 249.756,151.208 249.423,149.041 248.5,147C 225.473,135.487 202.473,123.987 179.5,112.5C 202.833,111.833 226.167,111.167 249.5,110.5C 249.5,107.167 249.5,103.833 249.5,100.5C 249.5,100.167 249.5,99.8333 249.5,99.5C 249.5,88.5 249.5,77.5 249.5,66.5C 249.5,62.8333 249.5,59.1667 249.5,55.5C 225.833,54.8333 202.167,54.1667 178.5,53.5C 201.838,41.8324 225.172,30.1657 248.5,18.5C 249.496,12.2015 249.83,5.86818 249.5,-0.5 Z"/></g>
<g><path style="opacity:0.995" fill="#fdfafa" d="M 248.5,-0.5 C 248.833,-0.5 249.167,-0.5 249.5,-0.5C 249.83,5.86818 249.496,12.2015 248.5,18.5C 225.172,30.1657 201.838,41.8324 178.5,53.5C 177.711,53.7828 177.044,54.2828 176.5,55C 200.831,55.5 225.164,55.6666 249.5,55.5C 249.5,59.1667 249.5,62.8333 249.5,66.5C 199.5,66.5 149.5,66.5 99.5,66.5C 99.5,60.8333 99.5,55.1667 99.5,49.5C 102.627,46.1021 106.293,43.4354 110.5,41.5C 110.5,44.1667 110.5,46.8333 110.5,49.5C 141.898,34.9679 172.898,19.6345 203.5,3.5C 209.28,1.95694 215.28,0.956938 221.5,0.5C 186.69,18.4054 151.69,36.072 116.5,53.5C 115.711,53.7828 115.044,54.2828 114.5,55C 123.01,55.8232 131.344,55.6566 139.5,54.5C 176.023,36.4054 212.356,18.072 248.5,-0.5 Z"/></g>
<g><path style="opacity:0.907" fill="#09267e" d="M 203.5,3.5 C 172.898,19.6345 141.898,34.9679 110.5,49.5C 110.5,46.8333 110.5,44.1667 110.5,41.5C 138.535,21.9953 169.535,9.32859 203.5,3.5 Z"/></g>
<g><path style="opacity:0.994" fill="#cb142b" d="M 99.5,49.5 C 99.5,55.1667 99.5,60.8333 99.5,66.5C 149.5,66.5 199.5,66.5 249.5,66.5C 249.5,77.5 249.5,88.5 249.5,99.5C 199.5,99.5 149.5,99.5 99.5,99.5C 99.5,121.167 99.5,142.833 99.5,164.5C 99.5,165.167 99.5,165.833 99.5,166.5C 88.5,166.5 77.5,166.5 66.5,166.5C 66.8308,143.994 66.4974,121.66 65.5,99.5C 60.1667,99.5 54.8333,99.5 49.5,99.5C 63.1667,79.8333 79.8333,63.1667 99.5,49.5 Z"/></g>
<g><path style="opacity:1" fill="#e27b88" d="M 116.5,53.5 C 123.982,54.492 131.648,54.8254 139.5,54.5C 131.344,55.6566 123.01,55.8232 114.5,55C 115.044,54.2828 115.711,53.7828 116.5,53.5 Z"/></g>
<g><path style="opacity:1" fill="#6f83b5" d="M 178.5,53.5 C 202.167,54.1667 225.833,54.8333 249.5,55.5C 225.164,55.6666 200.831,55.5 176.5,55C 177.044,54.2828 177.711,53.7828 178.5,53.5 Z"/></g>
<g><path style="opacity:1" fill="#8798c2" d="M 410.5,57.5 C 404.5,58.1667 398.5,58.8333 392.5,59.5C 391.957,59.44 391.624,59.1067 391.5,58.5C 397.798,57.5037 404.132,57.1703 410.5,57.5 Z"/></g>
<g><path style="opacity:0.981" fill="#efecf1" d="M 410.5,57.5 C 411.5,57.8333 412.167,58.5 412.5,59.5C 408.647,60.1663 404.647,60.833 400.5,61.5C 403.246,63.6229 406.079,65.6229 409,67.5C 408.816,71.0745 407.982,74.5745 406.5,78C 406.833,78.5 407.167,79 407.5,79.5C 409.928,76.902 412.761,74.902 416,73.5C 419.599,75.4292 422.933,77.7625 426,80.5C 425.304,76.8859 424.47,73.2193 423.5,69.5C 425.167,70.5 426.5,71.8333 427.5,73.5C 429.205,78.0984 430.371,82.7651 431,87.5C 426.077,83.9547 421.244,80.2881 416.5,76.5C 411.555,79.4453 406.888,82.7786 402.5,86.5C 402.434,80.8224 403.768,75.3224 406.5,70C 402.258,65.9238 397.592,62.4238 392.5,59.5C 398.5,58.8333 404.5,58.1667 410.5,57.5 Z"/></g>
<g><path style="opacity:0.947" fill="#ce2332" d="M 412.5,59.5 C 416.775,62.1421 420.442,65.4754 423.5,69.5C 424.47,73.2193 425.304,76.8859 426,80.5C 422.933,77.7625 419.599,75.4292 416,73.5C 412.761,74.902 409.928,76.902 407.5,79.5C 407.167,79 406.833,78.5 406.5,78C 407.982,74.5745 408.816,71.0745 409,67.5C 406.079,65.6229 403.246,63.6229 400.5,61.5C 404.647,60.833 408.647,60.1663 412.5,59.5 Z"/></g>
<g><path style="opacity:1" fill="#faedef" d="M 249.5,99.5 C 249.5,99.8333 249.5,100.167 249.5,100.5C 199.833,100.5 150.167,100.5 100.5,100.5C 100.831,122.007 100.497,143.34 99.5,164.5C 99.5,142.833 99.5,121.167 99.5,99.5C 149.5,99.5 199.5,99.5 249.5,99.5 Z"/></g>
<g><path style="opacity:0.984" fill="#fefdfe" d="M 49.5,99.5 C 54.8333,99.5 60.1667,99.5 65.5,99.5C 65.5,121.5 65.5,143.5 65.5,165.5C 62.1667,165.5 58.8333,165.5 55.5,165.5C 55.8328,148.82 55.4995,132.153 54.5,115.5C 53.8933,115.624 53.56,115.957 53.5,116.5C 46.1667,119.833 38.8333,123.167 31.5,126.5C 32.6693,123.489 34.336,120.822 36.5,118.5C 41.4734,116.013 46.4734,113.513 51.5,111C 48.1832,110.502 44.8499,110.335 41.5,110.5C 43.4354,106.293 46.1021,102.627 49.5,99.5 Z"/></g>
<g><path style="opacity:1" fill="#ebc2ca" d="M 65.5,99.5 C 66.4974,121.66 66.8308,143.994 66.5,166.5C 62.8333,166.5 59.1667,166.5 55.5,166.5C 55.5,166.167 55.5,165.833 55.5,165.5C 58.8333,165.5 62.1667,165.5 65.5,165.5C 65.5,143.5 65.5,121.5 65.5,99.5 Z"/></g>
<g><path style="opacity:1" fill="#fcfcfc" d="M 249.5,100.5 C 249.5,103.833 249.5,107.167 249.5,110.5C 225.164,110.333 200.831,110.5 176.5,111C 177.527,111.513 178.527,112.013 179.5,112.5C 202.473,123.987 225.473,135.487 248.5,147C 249.423,149.041 249.756,151.208 249.5,153.5C 220.91,139.872 192.577,125.705 164.5,111C 156.167,110.333 147.833,110.333 139.5,111C 174.91,129.372 210.577,147.205 246.5,164.5C 235.012,165.495 223.345,165.828 211.5,165.5C 178.372,149.436 145.372,133.103 112.5,116.5C 112.44,115.957 112.107,115.624 111.5,115.5C 110.501,132.487 110.167,149.487 110.5,166.5C 106.833,166.5 103.167,166.5 99.5,166.5C 99.5,165.833 99.5,165.167 99.5,164.5C 100.497,143.34 100.831,122.007 100.5,100.5C 150.167,100.5 199.833,100.5 249.5,100.5 Z"/></g>
<g><path style="opacity:1" fill="#365299" d="M 249.5,110.5 C 226.167,111.167 202.833,111.833 179.5,112.5C 178.527,112.013 177.527,111.513 176.5,111C 200.831,110.5 225.164,110.333 249.5,110.5 Z"/></g>
<g><path style="opacity:0.698" fill="#cf2937" d="M 41.5,110.5 C 44.8499,110.335 48.1832,110.502 51.5,111C 46.4734,113.513 41.4734,116.013 36.5,118.5C 37.3833,115.296 39.0499,112.629 41.5,110.5 Z"/></g>
<g><path style="opacity:1" fill="#cd1d2e" d="M 249.5,153.5 C 249.5,157.5 249.5,161.5 249.5,165.5C 248.391,165.443 247.391,165.11 246.5,164.5C 210.577,147.205 174.91,129.372 139.5,111C 147.833,110.333 156.167,110.333 164.5,111C 192.577,125.705 220.91,139.872 249.5,153.5 Z"/></g>
<g><path style="opacity:1" fill="#6f83b5" d="M 53.5,116.5 C 53.56,115.957 53.8933,115.624 54.5,115.5C 55.4995,132.153 55.8328,148.82 55.5,165.5C 55.5,165.833 55.5,166.167 55.5,166.5C 54.8333,149.833 54.1667,133.167 53.5,116.5 Z"/></g>
<g><path style="opacity:1" fill="#375299" d="M 112.5,116.5 C 111.833,133.167 111.167,149.833 110.5,166.5C 110.167,149.487 110.501,132.487 111.5,115.5C 112.107,115.624 112.44,115.957 112.5,116.5 Z"/></g>
<g><path style="opacity:1" fill="#ede8ee" d="M 338.5,118.5 C 339.79,119.058 340.623,120.058 341,121.5C 342.119,126.149 343.619,130.649 345.5,135C 351.5,135.333 357.5,135.667 363.5,136C 359.09,139.621 354.59,143.121 350,146.5C 350.959,152.226 352.459,157.893 354.5,163.5C 354.167,163.833 353.833,164.167 353.5,164.5C 349.069,160.566 344.236,157.233 339,154.5C 334.097,157.704 329.263,161.037 324.5,164.5C 325.042,158.837 326.708,153.171 329.5,147.5C 324.666,143.506 319.666,139.673 314.5,136C 320.825,135.5 327.158,135.334 333.5,135.5C 334.964,129.775 336.631,124.108 338.5,118.5 Z"/></g>
<g><path style="opacity:1" fill="#cd202f" d="M 338.5,127.5 C 340.624,130.665 342.291,134.165 343.5,138C 347.167,138.333 350.833,138.667 354.5,139C 351.329,141.341 348.329,143.841 345.5,146.5C 347.603,150.102 348.603,153.769 348.5,157.5C 345.681,154.925 342.681,152.592 339.5,150.5C 336.193,152.64 333.026,154.974 330,157.5C 329.879,153.678 330.713,150.011 332.5,146.5C 329.671,143.841 326.671,141.341 323.5,139C 327.486,138.501 331.486,138.334 335.5,138.5C 336.297,134.777 337.297,131.11 338.5,127.5 Z"/></g>
<g><path style="opacity:0.747" fill="#e0e3ef" d="M 471.5,133.5 C 472.737,134.965 473.737,136.632 474.5,138.5C 472.608,139.702 470.774,141.035 469,142.5C 469.059,139.263 469.892,136.263 471.5,133.5 Z"/></g>
<g><path style="opacity:1" fill="#bcc2d9" d="M 246.5,164.5 C 247.391,165.11 248.391,165.443 249.5,165.5C 236.833,166.833 224.167,166.833 211.5,165.5C 223.345,165.828 235.012,165.495 246.5,164.5 Z"/></g>
<g><path style="opacity:1" fill="#edebf1" d="M 422.5,256.5 C 429.167,257.167 435.833,257.833 442.5,258.5C 436.904,261.792 431.904,265.792 427.5,270.5C 429.301,276.568 431.301,282.568 433.5,288.5C 433.167,288.833 432.833,289.167 432.5,289.5C 426.86,285.693 421.36,281.693 416,277.5C 410.667,281.5 405.333,285.5 400,289.5C 400.796,282.77 402.629,276.27 405.5,270C 400.288,265.948 394.955,262.115 389.5,258.5C 396.167,257.833 402.833,257.167 409.5,256.5C 411.358,250.094 413.524,243.761 416,237.5C 418.858,243.574 421.025,249.908 422.5,256.5 Z"/></g>
<g><path style="opacity:1" fill="#cd1f2f" d="M 420.5,259.5 C 424.833,260.167 429.167,260.833 433.5,261.5C 430.044,263.783 426.71,266.283 423.5,269C 425.65,273.581 426.983,278.081 427.5,282.5C 423.911,279.458 420.078,276.791 416,274.5C 412.064,276.765 408.397,279.432 405,282.5C 405.423,278.05 406.59,273.716 408.5,269.5C 405.54,266.355 402.207,263.688 398.5,261.5C 402.833,260.833 407.167,260.167 411.5,259.5C 412.842,255.142 414.342,250.808 416,246.5C 418.191,250.573 419.691,254.906 420.5,259.5 Z"/></g>
<g><path style="opacity:1" fill="#6f83b5" d="M 409.5,256.5 C 402.833,257.167 396.167,257.833 389.5,258.5C 388.957,258.44 388.624,258.107 388.5,257.5C 395.468,256.503 402.468,256.17 409.5,256.5 Z"/></g>
<g><path style="opacity:1" fill="#7386b7" d="M 422.5,256.5 C 429.532,256.17 436.532,256.503 443.5,257.5C 443.376,258.107 443.043,258.44 442.5,258.5C 435.833,257.833 429.167,257.167 422.5,256.5 Z"/></g>
<g><path style="opacity:1" fill="#df6e7c" d="M 411.5,259.5 C 407.167,260.167 402.833,260.833 398.5,261.5C 397.957,261.44 397.624,261.107 397.5,260.5C 402.12,259.507 406.786,259.173 411.5,259.5 Z"/></g>
<g><path style="opacity:1" fill="#de6b79" d="M 420.5,259.5 C 425.511,259.334 430.511,259.501 435.5,260C 434.956,260.717 434.289,261.217 433.5,261.5C 429.167,260.833 424.833,260.167 420.5,259.5 Z"/></g>
</svg>
