<?xml version="1.0" encoding="UTF-8"?>
<!DOCTYPE svg PUBLIC "-//W3C//DTD SVG 1.1//EN" "http://www.w3.org/Graphics/SVG/1.1/DTD/svg11.dtd">
<svg xmlns="http://www.w3.org/2000/svg" version="1.1" width="500px" height="500px" style="shape-rendering:geometricPrecision; text-rendering:geometricPrecision; image-rendering:optimizeQuality; fill-rule:evenodd; clip-rule:evenodd" xmlns:xlink="http://www.w3.org/1999/xlink">
<g><path style="opacity:0.993" fill="#01339f" d="M 225.5,-0.5 C 241.5,-0.5 257.5,-0.5 273.5,-0.5C 362.269,10.9489 428.436,55.6156 472,133.5C 477.625,144.077 482.125,155.077 485.5,166.5C 454.167,166.5 422.833,166.5 391.5,166.5C 361.924,118.524 318.924,91.5244 262.5,85.5C 258.03,84.5139 253.363,84.1805 248.5,84.5C 246.585,84.2155 244.919,84.5489 243.5,85.5C 183.892,88.9548 138.559,115.955 107.5,166.5C 76.1667,166.5 44.8333,166.5 13.5,166.5C 39.9152,94.2492 88.9152,43.7492 160.5,15C 181.742,7.4378 203.409,2.27113 225.5,-0.5 Z"/></g>
<g><path style="opacity:1" fill="#fbe200" d="M 243.5,85.5 C 244.833,85.5 246.167,85.5 247.5,85.5C 247.811,96.9143 247.477,108.248 246.5,119.5C 242.562,120.219 239.062,121.885 236,124.5C 235.368,129.717 234.201,134.717 232.5,139.5C 237.703,139.488 242.536,138.154 247,135.5C 247.667,139.167 247.667,142.833 247,146.5C 230.488,153.184 225.155,164.851 231,181.5C 242.608,193.141 254.608,193.474 267,182.5C 274.378,165.258 269.212,153.591 251.5,147.5C 251.173,142.456 251.506,137.456 252.5,132.5C 258.613,129.053 262.946,124.053 265.5,117.5C 261.507,116.387 257.507,116.387 253.5,117.5C 251.524,107.219 250.857,96.5524 251.5,85.5C 255.167,85.5 258.833,85.5 262.5,85.5C 318.924,91.5244 361.924,118.524 391.5,166.5C 414.323,206.481 419.823,248.815 408,293.5C 404.122,307.249 398.622,320.249 391.5,332.5C 391.5,332.833 391.5,333.167 391.5,333.5C 370.03,368.63 339.696,392.63 300.5,405.5C 294.232,378.573 277.232,364.24 249.5,362.5C 221.805,364.198 204.805,378.532 198.5,405.5C 170.191,396.26 146.024,380.593 126,358.5C 119.584,350.265 113.418,341.932 107.5,333.5C 107.5,333.167 107.5,332.833 107.5,332.5C 84.789,292.148 79.289,249.482 91,204.5C 95.1564,191.193 100.656,178.527 107.5,166.5C 138.559,115.955 183.892,88.9548 243.5,85.5 Z"/></g>
<g><path style="opacity:1" fill="#050401" d="M 248.5,84.5 C 253.363,84.1805 258.03,84.5139 262.5,85.5C 258.833,85.5 255.167,85.5 251.5,85.5C 250.505,96.3206 250.172,107.321 250.5,118.5C 251.791,118.737 252.791,118.404 253.5,117.5C 257.507,116.387 261.507,116.387 265.5,117.5C 262.946,124.053 258.613,129.053 252.5,132.5C 251.506,137.456 251.173,142.456 251.5,147.5C 269.212,153.591 274.378,165.258 267,182.5C 254.608,193.474 242.608,193.141 231,181.5C 225.155,164.851 230.488,153.184 247,146.5C 247.667,142.833 247.667,139.167 247,135.5C 242.536,138.154 237.703,139.488 232.5,139.5C 234.201,134.717 235.368,129.717 236,124.5C 239.062,121.885 242.562,120.219 246.5,119.5C 248.478,108.215 249.145,96.5479 248.5,84.5 Z"/></g>
<g><path style="opacity:1" fill="#766b0c" d="M 243.5,85.5 C 244.919,84.5489 246.585,84.2155 248.5,84.5C 249.145,96.5479 248.478,108.215 246.5,119.5C 247.477,108.248 247.811,96.9143 247.5,85.5C 246.167,85.5 244.833,85.5 243.5,85.5 Z"/></g>
<g><path style="opacity:1" fill="#928400" d="M 251.5,85.5 C 250.857,96.5524 251.524,107.219 253.5,117.5C 252.791,118.404 251.791,118.737 250.5,118.5C 250.172,107.321 250.505,96.3206 251.5,85.5 Z"/></g>
<g><path style="opacity:1" fill="#ee3340" d="M 13.5,166.5 C 44.8333,166.5 76.1667,166.5 107.5,166.5C 100.656,178.527 95.1564,191.193 91,204.5C 79.289,249.482 84.789,292.148 107.5,332.5C 76.1667,332.5 44.8333,332.5 13.5,332.5C 7.01312,316.548 3.01312,299.882 1.5,282.5C 1.17748,272.658 0.510812,262.992 -0.5,253.5C -0.5,248.5 -0.5,243.5 -0.5,238.5C 0.965249,226.983 2.29858,215.317 3.5,203.5C 5.23837,190.636 8.5717,178.302 13.5,166.5 Z"/></g>
<g><path style="opacity:1" fill="#ee3340" d="M 391.5,166.5 C 422.833,166.5 454.167,166.5 485.5,166.5C 492.584,185.257 497.251,204.59 499.5,224.5C 499.5,241.5 499.5,258.5 499.5,275.5C 497.079,294.271 492.745,312.604 486.5,330.5C 455.057,332.481 423.39,333.148 391.5,332.5C 398.622,320.249 404.122,307.249 408,293.5C 419.823,248.815 414.323,206.481 391.5,166.5 Z"/></g>
<g><path style="opacity:1" fill="#0f0c01" d="M 218.5,176.5 C 220.775,180.413 222.608,184.746 224,189.5C 226.1,192.467 228.934,194.3 232.5,195C 245.672,197.425 258.672,196.758 271.5,193C 272.667,191.833 273.833,190.667 275,189.5C 276.354,185.727 277.854,182.06 279.5,178.5C 285.104,194.454 279.437,202.621 262.5,203C 250.053,204.083 237.72,203.416 225.5,201C 220.782,199.613 218.282,196.446 218,191.5C 217.749,186.499 217.916,181.499 218.5,176.5 Z"/></g>
<g><path style="opacity:1" fill="#090700" d="M 245.5,208.5 C 255.224,209.878 264.89,211.711 274.5,214C 264.687,217.098 254.687,218.764 244.5,219C 237.464,217.491 230.464,215.824 223.5,214C 231.012,212.337 238.345,210.504 245.5,208.5 Z"/></g>
<g><path style="opacity:0.978" fill="#be3453" d="M 3.5,203.5 C 2.29858,215.317 0.965249,226.983 -0.5,238.5C -0.5,234.167 -0.5,229.833 -0.5,225.5C 0.554197,218.122 1.88753,210.789 3.5,203.5 Z"/></g>
<g><path style="opacity:1" fill="#040300" d="M 243.5,223.5 C 262.354,222.192 271.521,230.858 271,249.5C 267.395,262.435 258.895,268.269 245.5,267C 231.717,262.942 225.884,253.775 228,239.5C 229.54,235.581 231.707,232.081 234.5,229C 237.564,227.141 240.564,225.308 243.5,223.5 Z"/></g>
<g><path style="opacity:0.647" fill="#bf3353" d="M -0.5,253.5 C 0.510812,262.992 1.17748,272.658 1.5,282.5C 0.833333,279.5 0.166667,276.5 -0.5,273.5C -0.5,266.833 -0.5,260.167 -0.5,253.5 Z"/></g>
<g><path style="opacity:1" fill="#0e0b01" d="M 248.5,273.5 C 257.106,275.521 265.773,277.355 274.5,279C 265.288,281.866 255.954,283.866 246.5,285C 239.26,283.624 232.26,281.624 225.5,279C 233.149,276.707 240.816,274.874 248.5,273.5 Z"/></g>
<g><path style="opacity:1" fill="#0a0801" d="M 231.5,290.5 C 243.505,290.333 255.505,290.5 267.5,291C 270.5,292 273.5,293 276.5,294C 278.81,295.637 280.31,297.804 281,300.5C 281.909,306.094 281.242,311.427 279,316.5C 278.338,310.68 276.172,305.513 272.5,301C 264.607,298.161 256.44,296.994 248,297.5C 240.519,296.916 233.352,298.082 226.5,301C 223.118,305.265 220.952,310.098 220,315.5C 218.43,309.947 218.097,304.281 219,298.5C 222.015,293.916 226.182,291.249 231.5,290.5 Z"/></g>
<g><path style="opacity:1" fill="#020100" d="M 242.5,302.5 C 264.069,300.567 273.569,310.234 271,331.5C 270.275,333.949 269.275,336.283 268,338.5C 261.839,344.155 258.339,351.155 257.5,359.5C 252.167,359.5 246.833,359.5 241.5,359.5C 241.579,356.729 241.079,354.063 240,351.5C 236.582,345.663 232.916,339.996 229,334.5C 223.979,319.564 228.479,308.897 242.5,302.5 Z"/></g>
<g><path style="opacity:1" fill="#5a7242" d="M 13.5,332.5 C 44.8333,332.5 76.1667,332.5 107.5,332.5C 107.5,332.833 107.5,333.167 107.5,333.5C 76.1487,332.841 45.1487,333.508 14.5,335.5C 13.596,334.791 13.2627,333.791 13.5,332.5 Z"/></g>
<g><path style="opacity:1" fill="#5c7143" d="M 486.5,330.5 C 486.598,332.553 485.931,334.22 484.5,335.5C 453.851,333.508 422.851,332.841 391.5,333.5C 391.5,333.167 391.5,332.833 391.5,332.5C 423.39,333.148 455.057,332.481 486.5,330.5 Z"/></g>
<g><path style="opacity:1" fill="#039944" d="M 107.5,333.5 C 113.418,341.932 119.584,350.265 126,358.5C 146.024,380.593 170.191,396.26 198.5,405.5C 213.922,410.959 229.922,413.626 246.5,413.5C 265.134,414.243 283.134,411.576 300.5,405.5C 339.696,392.63 370.03,368.63 391.5,333.5C 422.851,332.841 453.851,333.508 484.5,335.5C 458.053,405.115 410.387,454.282 341.5,483C 319.697,491.201 297.364,496.701 274.5,499.5C 257.833,499.5 241.167,499.5 224.5,499.5C 137.157,487.763 71.6573,443.763 28,367.5C 22.654,357.147 18.154,346.48 14.5,335.5C 45.1487,333.508 76.1487,332.841 107.5,333.5 Z"/></g>
<g><path style="opacity:1" fill="#010100" d="M 300.5,405.5 C 283.134,411.576 265.134,414.243 246.5,413.5C 229.922,413.626 213.922,410.959 198.5,405.5C 204.805,378.532 221.805,364.198 249.5,362.5C 277.232,364.24 294.232,378.573 300.5,405.5 Z"/></g>
</svg>
