<?xml version="1.0" encoding="UTF-8"?>
<!DOCTYPE svg PUBLIC "-//W3C//DTD SVG 1.1//EN" "http://www.w3.org/Graphics/SVG/1.1/DTD/svg11.dtd">
<svg xmlns="http://www.w3.org/2000/svg" version="1.1" width="500px" height="500px" style="shape-rendering:geometricPrecision; text-rendering:geometricPrecision; image-rendering:optimizeQuality; fill-rule:evenodd; clip-rule:evenodd" xmlns:xlink="http://www.w3.org/1999/xlink">
<g><path style="opacity:0.993" fill="#013876" d="M 225.5,-0.5 C 241.5,-0.5 257.5,-0.5 273.5,-0.5C 362.269,10.9489 428.436,55.6156 472,133.5C 477.625,144.077 482.125,155.077 485.5,166.5C 328.167,166.5 170.833,166.5 13.5,166.5C 43.991,84.513 101.324,31.3463 185.5,7C 198.832,3.72528 212.166,1.22528 225.5,-0.5 Z"/></g>
<g><path style="opacity:0.997" fill="#fefefe" d="M 13.5,166.5 C 170.833,166.5 328.167,166.5 485.5,166.5C 492.586,185.267 497.253,204.6 499.5,224.5C 499.5,241.167 499.5,257.833 499.5,274.5C 498.1,284.764 496.267,295.098 494,305.5C 492.031,314.9 489.198,323.9 485.5,332.5C 328.167,332.5 170.833,332.5 13.5,332.5C 6.28469,313.42 1.61802,293.754 -0.5,273.5C -0.5,257.5 -0.5,241.5 -0.5,225.5C 1.61802,205.246 6.28469,185.58 13.5,166.5 Z"/></g>
<g><path style="opacity:1" fill="#ffd257" d="M 236.5,176.5 C 244.474,175.952 246.474,179.119 242.5,186C 240.866,186.494 239.199,186.66 237.5,186.5C 237.167,183.167 236.833,179.833 236.5,176.5 Z"/></g>
<g><path style="opacity:1" fill="#fff8e7" d="M 238.5,177.5 C 242.225,177.78 243.392,179.78 242,183.5C 241.586,183.957 241.086,184.291 240.5,184.5C 238.829,182.49 238.162,180.157 238.5,177.5 Z"/></g>
<g><path style="opacity:1" fill="#ffd667" d="M 248.5,175.5 C 251.247,175.187 253.914,175.52 256.5,176.5C 254.833,177.167 253.167,177.833 251.5,178.5C 252.833,179.167 254.167,179.833 255.5,180.5C 248.833,181.833 248.833,183.167 255.5,184.5C 253.257,185.474 250.924,185.808 248.5,185.5C 248.5,182.167 248.5,178.833 248.5,175.5 Z"/></g>
<g><path style="opacity:1" fill="#ffd156" d="M 267.5,178.5 C 270.346,178.809 271.846,180.475 272,183.5C 272.309,182.234 272.809,181.067 273.5,180C 274.332,179.312 274.998,179.479 275.5,180.5C 274.164,183.51 272.831,186.51 271.5,189.5C 270.515,187.228 269.681,184.895 269,182.5C 268.02,184.059 267.187,185.726 266.5,187.5C 266.167,186.833 265.833,186.167 265.5,185.5C 266.173,183.149 266.84,180.816 267.5,178.5 Z"/></g>
<g><path style="opacity:1" fill="#ffd052" d="M 278.5,182.5 C 279.552,182.351 280.552,182.517 281.5,183C 279.959,185.916 278.293,188.749 276.5,191.5C 276.167,191.167 275.833,190.833 275.5,190.5C 276.9,187.965 277.9,185.298 278.5,182.5 Z"/></g>
<g><path style="opacity:1" fill="#ffd259" d="M 284.5,186.5 C 289.123,185.408 290.956,187.075 290,191.5C 289.388,188.968 287.888,188.135 285.5,189C 283.963,190.11 283.297,191.61 283.5,193.5C 285.288,193.215 286.955,193.548 288.5,194.5C 282.916,196.34 281.083,194.34 283,188.5C 283.717,187.956 284.217,187.289 284.5,186.5 Z"/></g>
<g><path style="opacity:1" fill="#ffd45f" d="M 220.5,181.5 C 223.744,183.071 226.411,185.405 228.5,188.5C 226.979,188.88 225.313,189.046 223.5,189C 222.953,189.925 222.287,190.758 221.5,191.5C 220.513,188.232 220.18,184.898 220.5,181.5 Z"/></g>
<g><path style="opacity:1" fill="#2a4f83" d="M 250.5,192.5 C 249.833,192.5 249.167,192.5 248.5,192.5C 249.167,189.833 249.833,189.833 250.5,192.5 Z"/></g>
<g><path style="opacity:1" fill="#ffd053" d="M 202.5,192.5 C 206.059,194.315 207.725,196.982 207.5,200.5C 204.945,198.301 203.279,195.634 202.5,192.5 Z"/></g>
<g><path style="opacity:1" fill="#ffd564" d="M 210.5,186.5 C 215.833,187.167 215.833,187.833 210.5,188.5C 211.141,195.177 213.141,195.844 216.5,190.5C 217.557,194.615 215.891,196.449 211.5,196C 208.122,193.036 207.789,189.869 210.5,186.5 Z"/></g>
<g><path style="opacity:1" fill="#ad9a58" d="M 248.5,192.5 C 249.167,192.5 249.833,192.5 250.5,192.5C 250.328,193.492 250.662,194.158 251.5,194.5C 251.5,195.167 251.5,195.833 251.5,196.5C 250.85,196.196 250.183,195.863 249.5,195.5C 248.712,196.77 247.712,197.77 246.5,198.5C 246.833,197.167 247.167,195.833 247.5,194.5C 247.328,193.508 247.662,192.842 248.5,192.5 Z"/></g>
<g><path style="opacity:1" fill="#405d7c" d="M 247.5,194.5 C 247.167,195.833 246.833,197.167 246.5,198.5C 245.833,198.833 245.167,199.167 244.5,199.5C 244.75,197.326 245.75,195.659 247.5,194.5 Z"/></g>
<g><path style="opacity:1" fill="#415c7b" d="M 251.5,194.5 C 252.906,194.973 253.573,195.973 253.5,197.5C 252.833,197.167 252.167,196.833 251.5,196.5C 251.5,195.833 251.5,195.167 251.5,194.5 Z"/></g>
<g><path style="opacity:1" fill="#c2a84d" d="M 251.5,196.5 C 252.167,196.833 252.833,197.167 253.5,197.5C 253.328,198.492 253.662,199.158 254.5,199.5C 254.5,200.167 254.5,200.833 254.5,201.5C 253.833,201.167 253.167,200.833 252.5,200.5C 252.167,199.167 251.833,197.833 251.5,196.5 Z"/></g>
<g><path style="opacity:1" fill="#bda54e" d="M 246.5,198.5 C 246.5,199.167 246.5,199.833 246.5,200.5C 245.728,201.694 244.728,202.694 243.5,203.5C 243.833,202.167 244.167,200.833 244.5,199.5C 245.167,199.167 245.833,198.833 246.5,198.5 Z"/></g>
<g><path style="opacity:1" fill="#ffd35c" d="M 296.5,193.5 C 297.995,193.415 298.995,194.081 299.5,195.5C 298.253,198.329 296.753,200.995 295,203.5C 294.644,200.271 292.81,198.771 289.5,199C 291.903,197.147 294.236,195.314 296.5,193.5 Z"/></g>
<g><path style="opacity:1" fill="#ffd155" d="M 194.5,199.5 C 197.075,200.728 199.408,202.395 201.5,204.5C 202.62,203.167 203.953,202.667 205.5,203C 204.275,204.563 202.775,205.73 201,206.5C 197.939,204.941 195.773,202.608 194.5,199.5 Z"/></g>
<g><path style="opacity:1" fill="#3f5e81" d="M 244.5,199.5 C 244.167,200.833 243.833,202.167 243.5,203.5C 242.833,203.833 242.167,204.167 241.5,204.5C 241.75,202.326 242.75,200.659 244.5,199.5 Z"/></g>
<g><path style="opacity:1" fill="#f8fafc" d="M 248.5,217.5 C 248.167,217.5 247.833,217.5 247.5,217.5C 246.78,211.862 246.447,206.196 246.5,200.5C 247.117,200.389 247.617,200.056 248,199.5C 248.499,205.491 248.666,211.491 248.5,217.5 Z"/></g>
<g><path style="opacity:1" fill="#445f7d" d="M 254.5,199.5 C 256.25,200.659 257.25,202.326 257.5,204.5C 256.833,204.167 256.167,203.833 255.5,203.5C 255.672,202.508 255.338,201.842 254.5,201.5C 254.5,200.833 254.5,200.167 254.5,199.5 Z"/></g>
<g><path style="opacity:1" fill="#a9c6e4" d="M 251.5,196.5 C 251.833,197.833 252.167,199.167 252.5,200.5C 252.5,200.833 252.5,201.167 252.5,201.5C 251.542,206.658 250.875,211.991 250.5,217.5C 249.833,217.5 249.167,217.5 248.5,217.5C 248.666,211.491 248.499,205.491 248,199.5C 247.617,200.056 247.117,200.389 246.5,200.5C 246.5,199.833 246.5,199.167 246.5,198.5C 247.712,197.77 248.712,196.77 249.5,195.5C 250.183,195.863 250.85,196.196 251.5,196.5 Z"/></g>
<g><path style="opacity:1" fill="#bea64d" d="M 243.5,203.5 C 243.25,205.674 242.25,207.341 240.5,208.5C 240.5,207.833 240.5,207.167 240.5,206.5C 241.338,206.158 241.672,205.492 241.5,204.5C 242.167,204.167 242.833,203.833 243.5,203.5 Z"/></g>
<g><path style="opacity:1" fill="#b9a34f" d="M 255.5,203.5 C 256.167,203.833 256.833,204.167 257.5,204.5C 257.833,205.833 258.167,207.167 258.5,208.5C 256.75,207.341 255.75,205.674 255.5,203.5 Z"/></g>
<g><path style="opacity:1" fill="#ffd25a" d="M 303.5,200.5 C 307.264,201.423 308.764,203.756 308,207.5C 305.821,208.396 303.988,209.729 302.5,211.5C 301.406,210.132 301.74,208.965 303.5,208C 301.565,206.762 299.565,206.262 297.5,206.5C 299.827,204.839 301.827,202.839 303.5,200.5 Z"/></g>
<g><path style="opacity:1" fill="#fffdfa" d="M 303.5,203.5 C 304.995,203.415 305.995,204.081 306.5,205.5C 304.604,206.639 303.604,205.973 303.5,203.5 Z"/></g>
<g><path style="opacity:1" fill="#436183" d="M 257.5,204.5 C 259.25,205.659 260.25,207.326 260.5,209.5C 259.833,209.167 259.167,208.833 258.5,208.5C 258.167,207.167 257.833,205.833 257.5,204.5 Z"/></g>
<g><path style="opacity:1" fill="#425f7d" d="M 240.5,206.5 C 240.5,207.167 240.5,207.833 240.5,208.5C 239.833,208.833 239.167,209.167 238.5,209.5C 238.427,207.973 239.094,206.973 240.5,206.5 Z"/></g>
<g><path style="opacity:1" fill="#ffd25a" d="M 190.5,205.5 C 193.774,206.14 196.441,207.807 198.5,210.5C 197.876,212.754 196.543,214.421 194.5,215.5C 191.772,214.14 189.439,212.307 187.5,210C 188.315,208.357 189.315,206.857 190.5,205.5 Z"/></g>
<g><path style="opacity:1" fill="#bba44e" d="M 240.5,208.5 C 240.167,209.833 239.833,211.167 239.5,212.5C 238.075,214.031 237.409,213.698 237.5,211.5C 238.338,211.158 238.672,210.492 238.5,209.5C 239.167,209.167 239.833,208.833 240.5,208.5 Z"/></g>
<g><path style="opacity:1" fill="#baa44e" d="M 258.5,208.5 C 259.167,208.833 259.833,209.167 260.5,209.5C 260.328,210.492 260.662,211.158 261.5,211.5C 261.5,212.167 261.5,212.833 261.5,213.5C 259.75,212.341 258.75,210.674 258.5,208.5 Z"/></g>
<g><path style="opacity:1" fill="#ffe5a2" d="M 190.5,207.5 C 192.711,207.967 194.711,208.967 196.5,210.5C 193.852,213.262 191.519,212.929 189.5,209.5C 189.863,208.817 190.196,208.15 190.5,207.5 Z"/></g>
<g><path style="opacity:1" fill="#e6eff9" d="M 252.5,201.5 C 254.021,204.609 254.854,207.942 255,211.5C 255.333,210.5 255.667,209.5 256,208.5C 257.216,210.962 257.882,213.629 258,216.5C 260.566,214.216 261.066,214.883 259.5,218.5C 256.518,218.037 253.518,217.704 250.5,217.5C 250.875,211.991 251.542,206.658 252.5,201.5 Z"/></g>
<g><path style="opacity:1" fill="#5c6b7f" d="M 237.5,211.5 C 237.409,213.698 238.075,214.031 239.5,212.5C 239.25,214.674 238.25,216.341 236.5,217.5C 236.591,215.302 235.925,214.969 234.5,216.5C 234.75,214.326 235.75,212.659 237.5,211.5 Z"/></g>
<g><path style="opacity:1" fill="#45607c" d="M 261.5,211.5 C 262.906,211.973 263.573,212.973 263.5,214.5C 262.833,214.167 262.167,213.833 261.5,213.5C 261.5,212.833 261.5,212.167 261.5,211.5 Z"/></g>
<g><path style="opacity:1" fill="#c3d7eb" d="M 246.5,200.5 C 246.447,206.196 246.78,211.862 247.5,217.5C 243.751,217.751 240.085,218.417 236.5,219.5C 236.5,218.833 236.5,218.167 236.5,217.5C 238.25,216.341 239.25,214.674 239.5,212.5C 239.833,211.167 240.167,209.833 240.5,208.5C 242.25,207.341 243.25,205.674 243.5,203.5C 244.728,202.694 245.728,201.694 246.5,200.5 Z"/></g>
<g><path style="opacity:1" fill="#bba44d" d="M 261.5,213.5 C 262.167,213.833 262.833,214.167 263.5,214.5C 263.328,215.492 263.662,216.158 264.5,216.5C 264.631,217.239 264.464,217.906 264,218.5C 262.628,217.09 261.795,215.423 261.5,213.5 Z"/></g>
<g><path style="opacity:1" fill="#ffd668" d="M 310.5,212.5 C 311.833,212.5 313.167,212.5 314.5,212.5C 313.392,216.131 311.226,219.131 308,221.5C 308.107,218.443 306.94,216.109 304.5,214.5C 306.631,213.831 308.631,213.165 310.5,212.5 Z"/></g>
<g><path style="opacity:1" fill="#b5a14f" d="M 236.5,217.5 C 235.728,218.694 234.728,219.694 233.5,220.5C 233.833,219.167 234.167,217.833 234.5,216.5C 235.925,214.969 236.591,215.302 236.5,217.5 Z"/></g>
<g><path style="opacity:1" fill="#ffd257" d="M 184.5,214.5 C 187.052,215.693 189.552,217.027 192,218.5C 192.685,222.347 191.185,224.18 187.5,224C 185.336,223.086 183.336,221.919 181.5,220.5C 181.833,220.167 182.167,219.833 182.5,219.5C 184.5,220.5 186.5,221.5 188.5,222.5C 190.488,221.711 190.821,220.545 189.5,219C 187.5,218 185.5,217 183.5,216C 184.056,215.617 184.389,215.117 184.5,214.5 Z"/></g>
<g><path style="opacity:1" fill="#436183" d="M 234.5,216.5 C 234.167,217.833 233.833,219.167 233.5,220.5C 232.637,221.463 231.97,221.463 231.5,220.5C 232.035,218.739 233.035,217.406 234.5,216.5 Z"/></g>
<g><path style="opacity:1" fill="#f26f64" d="M 247.5,217.5 C 247.833,217.5 248.167,217.5 248.5,217.5C 249.167,217.5 249.833,217.5 250.5,217.5C 253.518,217.704 256.518,218.037 259.5,218.5C 259.5,218.833 259.5,219.167 259.5,219.5C 258.167,219.5 256.833,219.5 255.5,219.5C 248.655,217.941 241.988,218.607 235.5,221.5C 235.833,220.833 236.167,220.167 236.5,219.5C 240.085,218.417 243.751,217.751 247.5,217.5 Z"/></g>
<g><path style="opacity:1" fill="#879bb8" d="M 252.5,200.5 C 253.167,200.833 253.833,201.167 254.5,201.5C 255.338,201.842 255.672,202.508 255.5,203.5C 255.75,205.674 256.75,207.341 258.5,208.5C 258.75,210.674 259.75,212.341 261.5,213.5C 261.795,215.423 262.628,217.09 264,218.5C 264.464,217.906 264.631,217.239 264.5,216.5C 266.25,217.659 267.25,219.326 267.5,221.5C 266.075,219.969 265.409,220.302 265.5,222.5C 264.833,222.167 264.167,221.833 263.5,221.5C 262.713,219.896 261.38,219.229 259.5,219.5C 259.5,219.167 259.5,218.833 259.5,218.5C 261.066,214.883 260.566,214.216 258,216.5C 257.882,213.629 257.216,210.962 256,208.5C 255.667,209.5 255.333,210.5 255,211.5C 254.854,207.942 254.021,204.609 252.5,201.5C 252.5,201.167 252.5,200.833 252.5,200.5 Z"/></g>
<g><path style="opacity:1" fill="#534f80" d="M 236.5,217.5 C 236.5,218.167 236.5,218.833 236.5,219.5C 236.167,220.167 235.833,220.833 235.5,221.5C 234.833,221.833 234.167,222.167 233.5,222.5C 233.5,221.833 233.5,221.167 233.5,220.5C 234.728,219.694 235.728,218.694 236.5,217.5 Z"/></g>
<g><path style="opacity:1" fill="#b9c74b" d="M 255.5,220.5 C 255.5,220.167 255.5,219.833 255.5,219.5C 256.833,219.5 258.167,219.5 259.5,219.5C 260.514,220.674 261.847,221.34 263.5,221.5C 264.167,221.833 264.833,222.167 265.5,222.5C 265.5,223.167 265.5,223.833 265.5,224.5C 262.397,222.616 259.063,221.282 255.5,220.5 Z"/></g>
<g><path style="opacity:1" fill="#fc6c4b" d="M 259.5,219.5 C 261.38,219.229 262.713,219.896 263.5,221.5C 261.847,221.34 260.514,220.674 259.5,219.5 Z"/></g>
<g><path style="opacity:1" fill="#9dc660" d="M 255.5,219.5 C 255.5,219.833 255.5,220.167 255.5,220.5C 250.821,220.334 246.155,220.501 241.5,221C 238.692,221.598 236.192,222.765 234,224.5C 233.536,223.906 233.369,223.239 233.5,222.5C 234.167,222.167 234.833,221.833 235.5,221.5C 241.988,218.607 248.655,217.941 255.5,219.5 Z"/></g>
<g><path style="opacity:1" fill="#40599e" d="M 255.5,220.5 C 259.063,221.282 262.397,222.616 265.5,224.5C 267.857,224.659 269.19,226.325 269.5,229.5C 260.936,222.928 251.27,220.761 240.5,223C 236.476,224.674 232.809,226.841 229.5,229.5C 229.833,228.167 230.167,226.833 230.5,225.5C 231.728,224.694 232.728,223.694 233.5,222.5C 233.369,223.239 233.536,223.906 234,224.5C 236.192,222.765 238.692,221.598 241.5,221C 246.155,220.501 250.821,220.334 255.5,220.5 Z"/></g>
<g><path style="opacity:1" fill="#898669" d="M 267.5,221.5 C 271.56,226.778 274.893,232.444 277.5,238.5C 277.591,240.698 276.925,241.031 275.5,239.5C 275.25,237.326 274.25,235.659 272.5,234.5C 272.25,232.326 271.25,230.659 269.5,229.5C 269.19,226.325 267.857,224.659 265.5,224.5C 265.5,223.833 265.5,223.167 265.5,222.5C 265.409,220.302 266.075,219.969 267.5,221.5 Z"/></g>
<g><path style="opacity:1" fill="#46627f" d="M 230.5,225.5 C 229.833,225.833 229.167,226.167 228.5,226.5C 229.032,223.54 229.699,223.207 230.5,225.5 Z"/></g>
<g><path style="opacity:1" fill="#e9f0f8" d="M 269.5,229.5 C 265.858,231.917 261.858,234.083 257.5,236C 262.423,235.321 267.423,234.821 272.5,234.5C 267.871,236.273 262.871,237.607 257.5,238.5C 263.463,239.496 269.463,239.829 275.5,239.5C 276.167,241.167 276.833,242.833 277.5,244.5C 271.116,243.423 264.783,242.09 258.5,240.5C 257.537,240.97 257.537,241.637 258.5,242.5C 256.158,242.775 256.158,243.608 258.5,245C 257.262,244.923 256.262,245.089 255.5,245.5C 258.186,247.856 260.853,250.189 263.5,252.5C 263.5,252.833 263.5,253.167 263.5,253.5C 262.833,254.833 262.167,256.167 261.5,257.5C 260.03,255.849 258.697,254.015 257.5,252C 256.552,251.517 255.552,251.351 254.5,251.5C 252.466,252.591 251.132,254.257 250.5,256.5C 249.863,253.544 249.363,250.544 249,247.5C 249.03,250.361 248.197,252.695 246.5,254.5C 245.5,254.167 244.833,253.5 244.5,252.5C 246.302,251.685 247.302,250.185 247.5,248C 245.799,247.042 244.299,245.209 243,242.5C 242.517,241.552 242.351,240.552 242.5,239.5C 236.5,239.5 230.5,239.5 224.5,239.5C 226.196,236.15 227.863,232.817 229.5,229.5C 232.809,226.841 236.476,224.674 240.5,223C 251.27,220.761 260.936,222.928 269.5,229.5 Z"/></g>
<g><path style="opacity:1" fill="#ffd157" d="M 312.5,222.5 C 319.175,221.328 321.009,223.661 318,229.5C 319.286,225.451 317.786,223.951 313.5,225C 312.253,226.494 312.253,227.994 313.5,229.5C 314.5,226.833 315.5,226.833 316.5,229.5C 312.875,232.719 310.875,231.886 310.5,227C 310.519,225.167 311.185,223.667 312.5,222.5 Z"/></g>
<g><path style="opacity:1" fill="#ffd35b" d="M 180.5,225.5 C 184.707,225.694 186.04,227.694 184.5,231.5C 185.5,232.167 186.5,232.833 187.5,233.5C 184.568,234.062 181.735,233.396 179,231.5C 178.252,229.16 178.752,227.16 180.5,225.5 Z"/></g>
<g><path style="opacity:1" fill="#fffaed" d="M 180.5,227.5 C 181.5,227.5 182.5,227.5 183.5,227.5C 183.5,228.5 183.5,229.5 183.5,230.5C 182.5,230.5 181.5,230.5 180.5,230.5C 180.5,229.5 180.5,228.5 180.5,227.5 Z"/></g>
<g><path style="opacity:1" fill="#f05150" d="M 246.5,231.5 C 252.831,231.11 255.164,234.11 253.5,240.5C 252.167,240.5 250.833,240.5 249.5,240.5C 249.719,241.675 249.386,242.675 248.5,243.5C 246.332,241.196 245.499,238.529 246,235.5C 246.75,234.874 247.584,234.374 248.5,234C 247.244,233.583 246.577,232.75 246.5,231.5 Z"/></g>
<g><path style="opacity:1" fill="#b1ceea" d="M 269.5,229.5 C 271.25,230.659 272.25,232.326 272.5,234.5C 267.423,234.821 262.423,235.321 257.5,236C 261.858,234.083 265.858,231.917 269.5,229.5 Z"/></g>
<g><path style="opacity:1" fill="#4d657b" d="M 223.5,237.5 C 222.833,237.833 222.167,238.167 221.5,238.5C 222.032,235.54 222.699,235.207 223.5,237.5 Z"/></g>
<g><path style="opacity:1" fill="#a4c2e1" d="M 272.5,234.5 C 274.25,235.659 275.25,237.326 275.5,239.5C 269.463,239.829 263.463,239.496 257.5,238.5C 262.871,237.607 267.871,236.273 272.5,234.5 Z"/></g>
<g><path style="opacity:1" fill="#5f7184" d="M 277.5,238.5 C 279.25,239.659 280.25,241.326 280.5,243.5C 279.075,241.969 278.409,242.302 278.5,244.5C 278.167,244.5 277.833,244.5 277.5,244.5C 276.833,242.833 276.167,241.167 275.5,239.5C 276.925,241.031 277.591,240.698 277.5,238.5 Z"/></g>
<g><path style="opacity:1" fill="#ffce49" d="M 318.5,233.5 C 319.978,233.238 321.311,233.571 322.5,234.5C 319.92,235.549 317.254,236.216 314.5,236.5C 314.5,237.5 314.5,238.5 314.5,239.5C 317.187,239.336 319.854,239.503 322.5,240C 319.671,241.509 316.838,241.675 314,240.5C 312.568,236.12 314.068,233.787 318.5,233.5 Z"/></g>
<g><path style="opacity:1" fill="#ffd157" d="M 176.5,236.5 C 177.999,237.678 178.999,239.345 179.5,241.5C 180.167,240.167 180.833,238.833 181.5,237.5C 182.59,238.391 182.59,239.391 181.5,240.5C 182.325,241.386 183.325,241.719 184.5,241.5C 184.238,240.022 184.571,238.689 185.5,237.5C 186.466,239.396 186.799,241.396 186.5,243.5C 183.421,243.74 180.421,243.407 177.5,242.5C 176.534,240.604 176.201,238.604 176.5,236.5 Z"/></g>
<g><path style="opacity:1" fill="#b5d3ee" d="M 277.5,244.5 C 277.833,244.5 278.167,244.5 278.5,244.5C 278.5,246.167 278.5,247.833 278.5,249.5C 271.844,247.174 265.177,244.84 258.5,242.5C 257.537,241.637 257.537,240.97 258.5,240.5C 264.783,242.09 271.116,243.423 277.5,244.5 Z"/></g>
<g><path style="opacity:1" fill="#ad9c51" d="M 280.5,243.5 C 280.833,244.833 281.167,246.167 281.5,247.5C 280.272,246.694 279.272,245.694 278.5,244.5C 278.409,242.302 279.075,241.969 280.5,243.5 Z"/></g>
<g><path style="opacity:1" fill="#d2e2f1" d="M 224.5,239.5 C 230.5,239.5 236.5,239.5 242.5,239.5C 242.351,240.552 242.517,241.552 243,242.5C 244.299,245.209 245.799,247.042 247.5,248C 247.302,250.185 246.302,251.685 244.5,252.5C 243.432,251.566 242.099,251.232 240.5,251.5C 238.833,254.167 237.167,256.833 235.5,259.5C 232.462,257.112 230.129,254.112 228.5,250.5C 227.833,250.167 227.167,249.833 226.5,249.5C 225.287,249.747 224.62,250.414 224.5,251.5C 223.512,252.795 222.512,254.128 221.5,255.5C 220.518,252.038 220.185,248.371 220.5,244.5C 221.136,242.205 222.469,240.539 224.5,239.5 Z"/></g>
<g><path style="opacity:1" fill="#4b6885" d="M 280.5,243.5 C 281.965,244.406 282.965,245.739 283.5,247.5C 283.03,248.463 282.363,248.463 281.5,247.5C 281.167,246.167 280.833,244.833 280.5,243.5 Z"/></g>
<g><path style="opacity:1" fill="#f2f3fa" d="M 258.5,242.5 C 265.177,244.84 271.844,247.174 278.5,249.5C 279.139,250.097 279.472,250.93 279.5,252C 279.316,253.376 278.649,254.209 277.5,254.5C 271.335,250.25 265.002,246.25 258.5,242.5 Z"/></g>
<g><path style="opacity:1" fill="#ffd669" d="M 314.5,245.5 C 317.402,246.578 320.402,247.244 323.5,247.5C 323.5,248.833 323.5,250.167 323.5,251.5C 320.52,251.62 317.687,252.287 315,253.5C 315.81,250.843 315.644,248.177 314.5,245.5 Z"/></g>
<g><path style="opacity:1" fill="#bfd8ee" d="M 258.5,242.5 C 265.002,246.25 271.335,250.25 277.5,254.5C 276.167,254.5 274.833,254.5 273.5,254.5C 272.094,254.973 271.427,255.973 271.5,257.5C 270.504,257.586 269.671,257.252 269,256.5C 268.693,253.124 266.86,251.79 263.5,252.5C 260.853,250.189 258.186,247.856 255.5,245.5C 256.262,245.089 257.262,244.923 258.5,245C 256.158,243.608 256.158,242.775 258.5,242.5 Z"/></g>
<g><path style="opacity:1" fill="#2c4c93" d="M 278.5,244.5 C 279.272,245.694 280.272,246.694 281.5,247.5C 281.5,248.167 281.5,248.833 281.5,249.5C 280.258,251.389 280.258,253.389 281.5,255.5C 280.5,255.5 279.5,255.5 278.5,255.5C 277.833,255.5 277.5,255.167 277.5,254.5C 278.649,254.209 279.316,253.376 279.5,252C 279.472,250.93 279.139,250.097 278.5,249.5C 278.5,247.833 278.5,246.167 278.5,244.5 Z"/></g>
<g><path style="opacity:1" fill="#efde2a" d="M 235.5,259.5 C 237.124,262.79 239.457,265.457 242.5,267.5C 241.5,267.5 240.5,267.5 239.5,267.5C 237.909,265.367 235.909,263.701 233.5,262.5C 234.08,264.749 235.413,266.415 237.5,267.5C 236.652,268.625 235.652,268.625 234.5,267.5C 229.948,262.944 226.615,257.611 224.5,251.5C 224.62,250.414 225.287,249.747 226.5,249.5C 227.167,249.833 227.833,250.167 228.5,250.5C 230.129,254.112 232.462,257.112 235.5,259.5 Z"/></g>
<g><path style="opacity:1" fill="#ffd25b" d="M 176.5,247.5 C 179.572,247.183 182.572,247.516 185.5,248.5C 184.311,249.429 182.978,249.762 181.5,249.5C 181.5,250.5 181.5,251.5 181.5,252.5C 182.978,252.238 184.311,252.571 185.5,253.5C 182.232,254.487 178.898,254.82 175.5,254.5C 175.298,252.05 175.631,249.717 176.5,247.5 Z"/></g>
<g><path style="opacity:1" fill="#1cae8e" d="M 254.5,251.5 C 255.552,251.351 256.552,251.517 257.5,252C 258.697,254.015 260.03,255.849 261.5,257.5C 262.452,258.452 263.452,259.452 264.5,260.5C 265.298,258.019 264.965,255.686 263.5,253.5C 263.5,253.167 263.5,252.833 263.5,252.5C 266.86,251.79 268.693,253.124 269,256.5C 269.671,257.252 270.504,257.586 271.5,257.5C 272.707,257.622 273.374,256.622 273.5,254.5C 274.833,254.5 276.167,254.5 277.5,254.5C 277.5,255.167 277.833,255.5 278.5,255.5C 279.931,259.723 282.931,261.723 287.5,261.5C 287.833,261.5 288.167,261.5 288.5,261.5C 288.427,263.027 289.094,264.027 290.5,264.5C 290.833,264.5 291.167,264.5 291.5,264.5C 291.5,265.167 291.5,265.833 291.5,266.5C 291.5,267.833 290.833,268.5 289.5,268.5C 282.588,267.538 275.588,267.205 268.5,267.5C 265.272,266.586 261.939,266.253 258.5,266.5C 256.364,265.597 254.364,264.431 252.5,263C 253.928,259.526 253.428,259.026 251,261.5C 251.832,258.144 252.999,254.811 254.5,251.5 Z"/></g>
<g><path style="opacity:1" fill="#828268" d="M 290.5,264.5 C 289.094,264.027 288.427,263.027 288.5,261.5C 287.167,258.5 285.833,255.5 284.5,252.5C 284.369,251.761 284.536,251.094 285,250.5C 288.651,254.426 290.485,259.093 290.5,264.5 Z"/></g>
<g><path style="opacity:1" fill="#18ad8f" d="M 224.5,251.5 C 226.615,257.611 229.948,262.944 234.5,267.5C 230.298,267.183 226.298,267.517 222.5,268.5C 217.269,268.556 212.269,267.889 207.5,266.5C 208.935,265.087 209.935,263.42 210.5,261.5C 215.206,261.315 218.873,259.315 221.5,255.5C 222.512,254.128 223.512,252.795 224.5,251.5 Z"/></g>
<g><path style="opacity:1" fill="#85846b" d="M 230.5,225.5 C 230.167,226.833 229.833,228.167 229.5,229.5C 227.863,232.817 226.196,236.15 224.5,239.5C 222.469,240.539 221.136,242.205 220.5,244.5C 219.521,245.765 218.521,247.099 217.5,248.5C 218.724,250.839 218.724,253.172 217.5,255.5C 216.719,254.271 216.219,252.938 216,251.5C 213.888,254.727 212.055,258.06 210.5,261.5C 209.935,263.42 208.935,265.087 207.5,266.5C 206.11,267.899 205.11,269.566 204.5,271.5C 203.728,272.694 202.728,273.694 201.5,274.5C 201.343,273.127 201.51,271.793 202,270.5C 208.286,259.575 214.786,248.908 221.5,238.5C 222.167,238.167 222.833,237.833 223.5,237.5C 224.309,235.708 224.809,233.708 225,231.5C 226.14,229.721 227.307,228.054 228.5,226.5C 229.167,226.167 229.833,225.833 230.5,225.5 Z"/></g>
<g><path style="opacity:1" fill="#6377a5" d="M 220.5,244.5 C 220.185,248.371 220.518,252.038 221.5,255.5C 218.873,259.315 215.206,261.315 210.5,261.5C 212.055,258.06 213.888,254.727 216,251.5C 216.219,252.938 216.719,254.271 217.5,255.5C 218.724,253.172 218.724,250.839 217.5,248.5C 218.521,247.099 219.521,245.765 220.5,244.5 Z"/></g>
<g><path style="opacity:1" fill="#c0d04b" d="M 263.5,253.5 C 264.965,255.686 265.298,258.019 264.5,260.5C 263.452,259.452 262.452,258.452 261.5,257.5C 262.167,256.167 262.833,254.833 263.5,253.5 Z"/></g>
<g><path style="opacity:1" fill="#2faf88" d="M 240.5,251.5 C 241.173,256.851 242.839,261.851 245.5,266.5C 244.391,266.557 243.391,266.89 242.5,267.5C 239.457,265.457 237.124,262.79 235.5,259.5C 237.167,256.833 238.833,254.167 240.5,251.5 Z"/></g>
<g><path style="opacity:1" fill="#9db2c7" d="M 250.5,256.5 C 248.246,259.004 246.912,258.337 246.5,254.5C 248.197,252.695 249.03,250.361 249,247.5C 249.363,250.544 249.863,253.544 250.5,256.5 Z"/></g>
<g><path style="opacity:1" fill="#68bf64" d="M 233.5,262.5 C 231.243,261.438 230.077,259.772 230,257.5C 231.802,258.789 232.969,260.456 233.5,262.5 Z"/></g>
<g><path style="opacity:1" fill="#eedf2b" d="M 240.5,251.5 C 242.099,251.232 243.432,251.566 244.5,252.5C 244.833,253.5 245.5,254.167 246.5,254.5C 246.912,258.337 248.246,259.004 250.5,256.5C 251.132,254.257 252.466,252.591 254.5,251.5C 252.999,254.811 251.832,258.144 251,261.5C 253.428,259.026 253.928,259.526 252.5,263C 254.364,264.431 256.364,265.597 258.5,266.5C 257.081,267.451 255.415,267.784 253.5,267.5C 250.562,265.066 247.729,262.399 245,259.5C 244.333,260.167 244.333,260.833 245,261.5C 247.04,263.37 248.873,265.37 250.5,267.5C 249.167,267.5 247.833,267.5 246.5,267.5C 246.5,266.833 246.167,266.5 245.5,266.5C 242.839,261.851 241.173,256.851 240.5,251.5 Z"/></g>
<g><path style="opacity:1" fill="#eddc29" d="M 273.5,254.5 C 273.374,256.622 272.707,257.622 271.5,257.5C 271.427,255.973 272.094,254.973 273.5,254.5 Z"/></g>
<g><path style="opacity:1" fill="#afc1d4" d="M 278.5,255.5 C 279.5,255.5 280.5,255.5 281.5,255.5C 285.311,255.596 285.311,256.262 281.5,257.5C 281.667,257.833 281.833,258.167 282,258.5C 285.033,257.001 286.866,258.001 287.5,261.5C 282.931,261.723 279.931,259.723 278.5,255.5 Z"/></g>
<g><path style="opacity:1" fill="#728794" d="M 281.5,249.5 C 282.728,250.306 283.728,251.306 284.5,252.5C 285.833,255.5 287.167,258.5 288.5,261.5C 288.167,261.5 287.833,261.5 287.5,261.5C 286.866,258.001 285.033,257.001 282,258.5C 281.833,258.167 281.667,257.833 281.5,257.5C 285.311,256.262 285.311,255.596 281.5,255.5C 280.258,253.389 280.258,251.389 281.5,249.5 Z"/></g>
<g><path style="opacity:1" fill="#65b96d" d="M 233.5,262.5 C 235.909,263.701 237.909,265.367 239.5,267.5C 238.833,267.5 238.167,267.5 237.5,267.5C 235.413,266.415 234.08,264.749 233.5,262.5 Z"/></g>
<g><path style="opacity:1" fill="#536b81" d="M 291.5,264.5 C 291.747,262.025 292.413,262.025 293.5,264.5C 293.03,265.463 292.363,265.463 291.5,264.5 Z"/></g>
<g><path style="opacity:1" fill="#3bb17d" d="M 253.5,267.5 C 252.5,267.5 251.5,267.5 250.5,267.5C 248.873,265.37 247.04,263.37 245,261.5C 244.333,260.833 244.333,260.167 245,259.5C 247.729,262.399 250.562,265.066 253.5,267.5 Z"/></g>
<g><path style="opacity:1" fill="#ffd154" d="M 181.5,266.5 C 182.5,266.5 183.5,266.5 184.5,266.5C 184.5,267.5 184.5,268.5 184.5,269.5C 183.5,269.5 182.5,269.5 181.5,269.5C 181.5,268.5 181.5,267.5 181.5,266.5 Z"/></g>
<g><path style="opacity:1" fill="#d9ecec" d="M 268.5,267.5 C 275.588,267.205 282.588,267.538 289.5,268.5C 285.39,268.745 281.056,268.745 276.5,268.5C 273.615,268.806 270.948,268.473 268.5,267.5 Z"/></g>
<g><path style="opacity:1" fill="#ffd050" d="M 314.5,266.5 C 315.5,266.5 316.5,266.5 317.5,266.5C 317.5,267.5 317.5,268.5 317.5,269.5C 316.5,269.5 315.5,269.5 314.5,269.5C 314.5,268.5 314.5,267.5 314.5,266.5 Z"/></g>
<g><path style="opacity:1" fill="#9fb3cb" d="M 207.5,266.5 C 212.269,267.889 217.269,268.556 222.5,268.5C 220.031,269.317 217.365,269.817 214.5,270C 216,270.167 217.5,270.333 219,270.5C 226.319,270.075 233.485,269.742 240.5,269.5C 242.302,268.542 244.302,267.875 246.5,267.5C 247.833,267.5 249.167,267.5 250.5,267.5C 251.5,267.5 252.5,267.5 253.5,267.5C 255.415,267.784 257.081,267.451 258.5,266.5C 261.939,266.253 265.272,266.586 268.5,267.5C 270.948,268.473 273.615,268.806 276.5,268.5C 273.731,269.972 270.731,271.139 267.5,272C 268.623,273.044 269.956,273.71 271.5,274C 268.508,275.574 265.508,275.741 262.5,274.5C 251.077,275.698 241.743,275.698 234.5,274.5C 224.342,275.659 214.008,275.825 203.5,275C 204.337,273.989 204.67,272.822 204.5,271.5C 205.11,269.566 206.11,267.899 207.5,266.5 Z"/></g>
<g><path style="opacity:1" fill="#4f739f" d="M 222.5,268.5 C 228.5,268.833 234.5,269.167 240.5,269.5C 233.485,269.742 226.319,270.075 219,270.5C 217.5,270.333 216,270.167 214.5,270C 217.365,269.817 220.031,269.317 222.5,268.5 Z"/></g>
<g><path style="opacity:1" fill="#eaf5f3" d="M 245.5,266.5 C 246.167,266.5 246.5,266.833 246.5,267.5C 244.302,267.875 242.302,268.542 240.5,269.5C 234.5,269.167 228.5,268.833 222.5,268.5C 226.298,267.517 230.298,267.183 234.5,267.5C 235.652,268.625 236.652,268.625 237.5,267.5C 238.167,267.5 238.833,267.5 239.5,267.5C 240.5,267.5 241.5,267.5 242.5,267.5C 243.391,266.89 244.391,266.557 245.5,266.5 Z"/></g>
<g><path style="opacity:1" fill="#36588d" d="M 211.5,271.5 C 216.822,273.127 222.156,273.96 227.5,274C 220.159,274.222 212.826,273.889 205.5,273C 207.708,272.809 209.708,272.309 211.5,271.5 Z"/></g>
<g><path style="opacity:1" fill="#6280a9" d="M 291.5,266.5 C 292.728,267.306 293.728,268.306 294.5,269.5C 294.833,270.833 295.167,272.167 295.5,273.5C 296.478,273.811 297.145,274.478 297.5,275.5C 285.852,276.499 274.186,276.832 262.5,276.5C 262.5,275.833 262.5,275.167 262.5,274.5C 265.508,275.741 268.508,275.574 271.5,274C 269.956,273.71 268.623,273.044 267.5,272C 270.731,271.139 273.731,269.972 276.5,268.5C 281.056,268.745 285.39,268.745 289.5,268.5C 290.833,268.5 291.5,267.833 291.5,266.5 Z"/></g>
<g><path style="opacity:1" fill="#9bb0c9" d="M 295.5,273.5 C 293.19,274.164 290.69,274.497 288,274.5C 283.976,273.041 278.476,272.207 271.5,272C 275.838,271.537 280.171,271.037 284.5,270.5C 290.448,270.8 294.114,271.8 295.5,273.5 Z"/></g>
<g><path style="opacity:1" fill="#3f699d" d="M 204.5,271.5 C 204.67,272.822 204.337,273.989 203.5,275C 214.008,275.825 224.342,275.659 234.5,274.5C 236.179,274.285 237.179,274.952 237.5,276.5C 225.12,277.146 213.12,276.479 201.5,274.5C 202.728,273.694 203.728,272.694 204.5,271.5 Z"/></g>
<g><path style="opacity:1" fill="#063578" d="M 262.5,274.5 C 262.5,275.167 262.5,275.833 262.5,276.5C 254.167,276.5 245.833,276.5 237.5,276.5C 237.179,274.952 236.179,274.285 234.5,274.5C 241.743,275.698 251.077,275.698 262.5,274.5 Z"/></g>
<g><path style="opacity:1" fill="#b19f50" d="M 298.5,274.5 C 298.414,275.496 298.748,276.329 299.5,277C 266.167,277.667 232.833,277.667 199.5,277C 200.252,276.329 200.586,275.496 200.5,274.5C 200.833,274.5 201.167,274.5 201.5,274.5C 213.12,276.479 225.12,277.146 237.5,276.5C 245.833,276.5 254.167,276.5 262.5,276.5C 274.186,276.832 285.852,276.499 297.5,275.5C 297.145,274.478 296.478,273.811 295.5,273.5C 295.167,272.167 294.833,270.833 294.5,269.5C 294.393,267.621 294.893,267.288 296,268.5C 296.585,270.661 297.418,272.661 298.5,274.5 Z"/></g>
<g><path style="opacity:1" fill="#758da0" d="M 200.5,274.5 C 200.586,275.496 200.252,276.329 199.5,277C 232.833,277.667 266.167,277.667 299.5,277C 298.748,276.329 298.414,275.496 298.5,274.5C 299.965,275.406 300.965,276.739 301.5,278.5C 266.833,279.833 232.167,279.833 197.5,278.5C 198.035,276.739 199.035,275.406 200.5,274.5 Z"/></g>
<g><path style="opacity:1" fill="#ffd259" d="M 305.5,280.5 C 308.406,281.787 311.406,282.787 314.5,283.5C 314.281,282.325 314.614,281.325 315.5,280.5C 316.607,282.978 315.941,284.978 313.5,286.5C 311.167,285.333 308.833,284.167 306.5,283C 305.748,282.329 305.414,281.496 305.5,280.5 Z"/></g>
<g><path style="opacity:1" fill="#ffd563" d="M 189.5,282.5 C 191.167,282.5 192.833,282.5 194.5,282.5C 193.344,286.002 191.344,289.002 188.5,291.5C 187.904,290.284 187.737,288.951 188,287.5C 186.795,286.929 185.628,286.262 184.5,285.5C 185.947,284.065 187.614,283.065 189.5,282.5 Z"/></g>
<g><path style="opacity:1" fill="#ffd35d" d="M 301.5,287.5 C 305.074,287.691 308.407,288.691 311.5,290.5C 308.316,291.203 306.816,293.203 307,296.5C 304.474,293.833 302.641,290.833 301.5,287.5 Z"/></g>
<g><path style="opacity:1" fill="#ffce49" d="M 196.5,294.5 C 196.631,293.761 196.464,293.094 196,292.5C 194.667,293.833 193.333,295.167 192,296.5C 192.97,292.7 195.47,290.367 199.5,289.5C 199.727,291.933 198.727,293.599 196.5,294.5 Z"/></g>
<g><path style="opacity:1" fill="#ffd154" d="M 196.5,294.5 C 196.369,295.239 196.536,295.906 197,296.5C 198.667,295.5 200.333,294.5 202,293.5C 202.692,294.025 203.192,294.692 203.5,295.5C 201.833,297.833 199.833,299.833 197.5,301.5C 196.406,300.132 196.74,298.965 198.5,298C 196.775,298.409 195.108,298.242 193.5,297.5C 194.188,296.145 195.188,295.145 196.5,294.5 Z"/></g>
<g><path style="opacity:1" fill="#ffd259" d="M 295.5,294.5 C 299.216,294.721 301.883,296.554 303.5,300C 303.333,300.5 303.167,301 303,301.5C 301.921,299.606 300.587,299.273 299,300.5C 298.493,301.996 298.993,303.163 300.5,304C 300,304.5 299.5,305 299,305.5C 296.65,303.317 294.483,300.984 292.5,298.5C 293.524,297.148 294.524,295.815 295.5,294.5 Z"/></g>
<g><path style="opacity:1" fill="#fffaee" d="M 295.5,296.5 C 298.957,296.667 299.29,297.667 296.5,299.5C 295.614,298.675 295.281,297.675 295.5,296.5 Z"/></g>
<g><path style="opacity:1" fill="#ffd35e" d="M 205.5,298.5 C 208.859,298.698 210.692,300.365 211,303.5C 206.175,300.761 205.675,301.261 209.5,305C 209,305.5 208.5,306 208,306.5C 206.759,304.579 205.259,304.246 203.5,305.5C 204.242,306.287 205.075,306.953 206,307.5C 206.688,308.332 206.521,308.998 205.5,309.5C 203.833,308.5 202.5,307.167 201.5,305.5C 202.889,303.132 204.222,300.799 205.5,298.5 Z"/></g>
<g><path style="opacity:1" fill="#ffd45f" d="M 288.5,300.5 C 290.758,300.775 291.092,301.775 289.5,303.5C 294.498,312.322 293.664,312.655 287,304.5C 286.107,305.711 285.274,305.711 284.5,304.5C 286.188,303.479 287.521,302.145 288.5,300.5 Z"/></g>
<g><path style="opacity:1" fill="#ffd155" d="M 213.5,304.5 C 216.585,304.542 218.919,305.875 220.5,308.5C 218.649,310.776 216.982,313.109 215.5,315.5C 215.277,314.033 214.944,312.533 214.5,311C 212.887,310.911 211.72,311.745 211,313.5C 210.833,312.833 210.667,312.167 210.5,311.5C 211.767,309.297 212.767,306.963 213.5,304.5 Z"/></g>
<g><path style="opacity:1" fill="#fff7e1" d="M 214.5,306.5 C 219.639,307.941 219.639,308.941 214.5,309.5C 214.5,308.5 214.5,307.5 214.5,306.5 Z"/></g>
<g><path style="opacity:1" fill="#ffd35c" d="M 280.5,306.5 C 283.806,308.767 285.14,311.767 284.5,315.5C 282.503,314.253 280.503,313.419 278.5,313C 280.014,314.439 280.347,315.939 279.5,317.5C 277.47,315.103 275.803,312.437 274.5,309.5C 276.588,308.511 278.588,308.844 280.5,310.5C 280.906,309.443 280.906,308.109 280.5,306.5 Z"/></g>
<g><path style="opacity:1" fill="#ffd050" d="M 222.5,309.5 C 223.497,309.47 224.164,309.97 224.5,311C 223.519,313.62 222.353,316.12 221,318.5C 220.861,315.425 221.361,312.425 222.5,309.5 Z"/></g>
<g><path style="opacity:1" fill="#ffd35d" d="M 229.5,311.5 C 233.138,310.737 234.638,312.07 234,315.5C 229.942,312.411 228.275,313.411 229,318.5C 230.652,319.217 232.152,319.55 233.5,319.5C 229.937,322.521 227.604,321.687 226.5,317C 226.863,314.808 227.863,312.974 229.5,311.5 Z"/></g>
<g><path style="opacity:1" fill="#ffd156" d="M 268.5,310.5 C 273.694,310.942 273.694,311.942 268.5,313.5C 269.833,314.167 271.167,314.833 272.5,315.5C 271.675,316.386 270.675,316.719 269.5,316.5C 269.281,317.675 269.614,318.675 270.5,319.5C 271.768,318.572 273.101,318.405 274.5,319C 272.612,320.699 270.612,321.199 268.5,320.5C 267.5,317.833 266.5,315.167 265.5,312.5C 266.602,311.824 267.602,311.158 268.5,310.5 Z"/></g>
<g><path style="opacity:1" fill="#ffd25a" d="M 240.5,313.5 C 242.124,313.36 243.29,314.027 244,315.5C 244.287,317.891 244.787,320.224 245.5,322.5C 245.167,322.833 244.833,323.167 244.5,323.5C 242.5,320.833 240.5,320.833 238.5,323.5C 238.167,323 237.833,322.5 237.5,322C 238.939,319.295 239.939,316.462 240.5,313.5 Z"/></g>
<g><path style="opacity:1" fill="#ffd461" d="M 257.5,313.5 C 259.467,313.261 261.301,313.594 263,314.5C 263.688,315.332 263.521,315.998 262.5,316.5C 261.264,315.754 259.93,315.421 258.5,315.5C 258.051,317.977 258.717,319.977 260.5,321.5C 261.478,321.023 262.311,320.357 263,319.5C 263.544,321.845 262.544,323.179 260,323.5C 258.739,323.241 257.739,322.574 257,321.5C 256.278,318.739 256.445,316.073 257.5,313.5 Z"/></g>
<g><path style="opacity:0.997" fill="#2c4881" d="M 13.5,332.5 C 170.833,332.5 328.167,332.5 485.5,332.5C 485.5,333.167 485.5,333.833 485.5,334.5C 328.167,334.5 170.833,334.5 13.5,334.5C 13.5,333.833 13.5,333.167 13.5,332.5 Z"/></g>
<g><path style="opacity:0.993" fill="#003776" d="M 13.5,334.5 C 170.833,334.5 328.167,334.5 485.5,334.5C 458.205,405.629 409.205,455.462 338.5,484C 317.652,491.713 296.319,496.88 274.5,499.5C 257.833,499.5 241.167,499.5 224.5,499.5C 136.144,487.759 70.3107,443.092 27,365.5C 21.9351,355.374 17.4351,345.041 13.5,334.5 Z"/></g>
</svg>
