<?xml version="1.0" encoding="UTF-8"?>
<!DOCTYPE svg PUBLIC "-//W3C//DTD SVG 1.1//EN" "http://www.w3.org/Graphics/SVG/1.1/DTD/svg11.dtd">
<svg xmlns="http://www.w3.org/2000/svg" version="1.1" width="500px" height="500px" style="shape-rendering:geometricPrecision; text-rendering:geometricPrecision; image-rendering:optimizeQuality; fill-rule:evenodd; clip-rule:evenodd" xmlns:xlink="http://www.w3.org/1999/xlink">
<g><path style="opacity:0.986" fill="#015a9a" d="M 225.5,-0.5 C 241.5,-0.5 257.5,-0.5 273.5,-0.5C 292.099,1.72948 310.433,5.72948 328.5,11.5C 288.846,32.3275 248.846,52.6609 208.5,72.5C 207.502,49.3393 207.169,26.006 207.5,2.5C 213.622,1.49308 219.622,0.493078 225.5,-0.5 Z"/></g>
<g><path style="opacity:0.996" fill="#fefbfb" d="M 206.5,2.5 C 206.167,26.1761 206.5,49.8427 207.5,73.5C 208.107,73.3764 208.44,73.0431 208.5,72.5C 248.846,52.6609 288.846,32.3275 328.5,11.5C 332.912,12.9704 337.245,14.6371 341.5,16.5C 298.484,38.6745 255.151,60.3412 211.5,81.5C 210.957,81.56 210.624,81.8933 210.5,82.5C 223.994,83.8254 237.327,83.8254 250.5,82.5C 288.18,63.9942 325.513,44.9942 362.5,25.5C 371.665,30.5814 380.665,35.9148 389.5,41.5C 389.631,42.3764 389.298,43.0431 388.5,43.5C 362.935,56.4496 337.268,69.1162 311.5,81.5C 310.957,81.56 310.624,81.8933 310.5,82.5C 345.494,83.4999 380.494,83.8332 415.5,83.5C 415.5,89.1667 415.5,94.8333 415.5,100.5C 344.167,100.5 272.833,100.5 201.5,100.5C 198.167,96.5 194.5,92.8333 190.5,89.5C 190.5,61.5 190.5,33.5 190.5,5.5C 195.832,4.50045 201.165,3.50045 206.5,2.5 Z"/></g>
<g><path style="opacity:0.991" fill="#aecadf" d="M 206.5,2.5 C 206.833,2.5 207.167,2.5 207.5,2.5C 207.169,26.006 207.502,49.3393 208.5,72.5C 208.44,73.0431 208.107,73.3764 207.5,73.5C 206.5,49.8427 206.167,26.1761 206.5,2.5 Z"/></g>
<g><path style="opacity:0.988" fill="#eb1d2d" d="M 190.5,5.5 C 190.5,33.5 190.5,61.5 190.5,89.5C 175.02,80.5896 159.354,80.2563 143.5,88.5C 142.503,67.0064 142.169,45.3398 142.5,23.5C 157.754,15.7455 173.754,9.74546 190.5,5.5 Z"/></g>
<g><path style="opacity:0.994" fill="#ec202f" d="M 341.5,16.5 C 348.62,19.2271 355.62,22.2271 362.5,25.5C 325.513,44.9942 288.18,63.9942 250.5,82.5C 237.323,82.8288 224.323,82.4955 211.5,81.5C 255.151,60.3412 298.484,38.6745 341.5,16.5 Z"/></g>
<g><path style="opacity:0.986" fill="#fefcfc" d="M 141.5,23.5 C 141.5,45.5 141.5,67.5 141.5,89.5C 138.167,93.1667 134.833,96.8333 131.5,100.5C 103.833,100.5 76.1667,100.5 48.5,100.5C 52.4413,94.2264 57.1079,88.5597 62.5,83.5C 69.1998,83.83 75.8665,83.4967 82.5,82.5C 82.3764,81.8933 82.0431,81.56 81.5,81.5C 77.1822,80.0078 73.1822,78.0078 69.5,75.5C 75.5779,68.0859 82.5779,61.7526 90.5,56.5C 101.598,62.383 112.932,67.7163 124.5,72.5C 124.5,59.1667 124.5,45.8333 124.5,32.5C 130.005,29.2468 135.672,26.2468 141.5,23.5 Z"/></g>
<g><path style="opacity:1" fill="#f1636f" d="M 141.5,23.5 C 141.833,23.5 142.167,23.5 142.5,23.5C 142.169,45.3398 142.503,67.0064 143.5,88.5C 143.158,89.3382 142.492,89.6716 141.5,89.5C 141.5,67.5 141.5,45.5 141.5,23.5 Z"/></g>
<g><path style="opacity:1" fill="#feed01" d="M 165.5,24.5 C 167.438,28.1254 169.105,31.9587 170.5,36C 174.5,36.3333 178.5,36.6667 182.5,37C 179.667,39.1667 176.833,41.3333 174,43.5C 174.462,47.8787 175.129,52.2121 176,56.5C 172.933,53.7625 169.599,51.4292 166,49.5C 162.509,51.5814 159.175,53.9147 156,56.5C 156.625,52.4457 157.792,48.4457 159.5,44.5C 156.384,41.7683 153.051,39.2683 149.5,37C 153.821,36.501 158.154,36.3343 162.5,36.5C 163.5,32.5007 164.5,28.5007 165.5,24.5 Z"/></g>
<g><path style="opacity:0.96" fill="#155e9c" d="M 124.5,32.5 C 124.5,45.8333 124.5,59.1667 124.5,72.5C 112.932,67.7163 101.598,62.383 90.5,56.5C 100.978,47.3661 112.311,39.3661 124.5,32.5 Z"/></g>
<g><path style="opacity:0.991" fill="#02599a" d="M 389.5,41.5 C 398.77,47.7718 407.437,54.7718 415.5,62.5C 415.5,69.1667 415.5,75.8333 415.5,82.5C 380.663,82.8317 345.996,82.4984 311.5,81.5C 337.268,69.1162 362.935,56.4496 388.5,43.5C 389.298,43.0431 389.631,42.3764 389.5,41.5 Z"/></g>
<g><path style="opacity:0.994" fill="#fef000" d="M 415.5,62.5 C 452.229,94.5788 477.396,134.245 491,181.5C 494.695,195.808 497.529,210.141 499.5,224.5C 499.5,241.167 499.5,257.833 499.5,274.5C 487.764,361.841 443.764,427.341 367.5,471C 338.093,486.083 307.093,495.583 274.5,499.5C 257.833,499.5 241.167,499.5 224.5,499.5C 132.596,487.072 65.4294,439.739 23,357.5C 10.7506,330.604 2.91724,302.604 -0.5,273.5C -0.5,265.5 -0.5,257.5 -0.5,249.5C 41.1667,249.5 82.8333,249.5 124.5,249.5C 130.167,249.5 135.833,249.5 141.5,249.5C 157.833,249.5 174.167,249.5 190.5,249.5C 196.167,249.5 201.833,249.5 207.5,249.5C 256.167,249.5 304.833,249.5 353.5,249.5C 373.833,249.5 394.167,249.5 414.5,249.5C 415.491,243.021 415.824,236.354 415.5,229.5C 415.5,225.833 415.5,222.167 415.5,218.5C 415.5,201.167 415.5,183.833 415.5,166.5C 415.5,166.167 415.5,165.833 415.5,165.5C 415.5,160.167 415.5,154.833 415.5,149.5C 415.5,149.167 415.5,148.833 415.5,148.5C 415.5,132.5 415.5,116.5 415.5,100.5C 415.5,94.8333 415.5,89.1667 415.5,83.5C 415.5,83.1667 415.5,82.8333 415.5,82.5C 415.5,75.8333 415.5,69.1667 415.5,62.5 Z"/></g>
<g><path style="opacity:0.878" fill="#ec212e" d="M 69.5,75.5 C 73.1822,78.0078 77.1822,80.0078 81.5,81.5C 75.69,82.4896 69.69,82.8229 63.5,82.5C 64.7805,79.5526 66.7805,77.2193 69.5,75.5 Z"/></g>
<g><path style="opacity:1" fill="#f7a1a9" d="M 81.5,81.5 C 82.0431,81.56 82.3764,81.8933 82.5,82.5C 75.8665,83.4967 69.1998,83.83 62.5,83.5C 62.5,82.8333 62.8333,82.5 63.5,82.5C 69.69,82.8229 75.69,82.4896 81.5,81.5 Z"/></g>
<g><path style="opacity:1" fill="#0d5999" d="M 190.5,89.5 C 194.5,92.8333 198.167,96.5 201.5,100.5C 210.785,116.119 210.785,131.786 201.5,147.5C 200.662,147.842 200.328,148.508 200.5,149.5C 196.833,152.5 193.5,155.833 190.5,159.5C 173.892,169.146 157.559,168.812 141.5,158.5C 137.833,155.5 134.5,152.167 131.5,148.5C 124.897,138.115 122.73,126.782 125,114.5C 126.377,109.416 128.543,104.749 131.5,100.5C 134.833,96.8333 138.167,93.1667 141.5,89.5C 142.492,89.6716 143.158,89.3382 143.5,88.5C 159.354,80.2563 175.02,80.5896 190.5,89.5 Z"/></g>
<g><path style="opacity:1" fill="#f7a2aa" d="M 211.5,81.5 C 224.323,82.4955 237.323,82.8288 250.5,82.5C 237.327,83.8254 223.994,83.8254 210.5,82.5C 210.624,81.8933 210.957,81.56 211.5,81.5 Z"/></g>
<g><path style="opacity:1" fill="#a5c4db" d="M 311.5,81.5 C 345.996,82.4984 380.663,82.8317 415.5,82.5C 415.5,82.8333 415.5,83.1667 415.5,83.5C 380.494,83.8332 345.494,83.4999 310.5,82.5C 310.624,81.8933 310.957,81.56 311.5,81.5 Z"/></g>
<g><path style="opacity:1" fill="#f6ec0f" d="M 165.5,87.5 C 169.455,95.3557 172.455,103.689 174.5,112.5C 183.506,112.334 192.506,112.5 201.5,113C 195.779,117.721 189.779,122.054 183.5,126C 182.101,127.062 181.101,128.395 180.5,130C 183.176,138.027 185.842,146.027 188.5,154C 187.833,154.667 187.167,154.667 186.5,154C 179.913,148.792 173.08,143.959 166,139.5C 159.011,144.485 152.011,149.485 145,154.5C 146.361,145.909 148.861,137.576 152.5,129.5C 145.308,123.808 137.975,118.308 130.5,113C 139.5,112.667 148.5,112.333 157.5,112C 160.264,103.874 162.931,95.7073 165.5,87.5 Z"/></g>
<g><path style="opacity:0.994" fill="#eb1b2d" d="M 48.5,100.5 C 76.1667,100.5 103.833,100.5 131.5,100.5C 128.543,104.749 126.377,109.416 125,114.5C 122.73,126.782 124.897,138.115 131.5,148.5C 94.5,148.5 57.5,148.5 20.5,148.5C 21.9302,144.646 23.5969,140.979 25.5,137.5C 27.2292,138.117 28.7292,139.117 30,140.5C 30.0448,137.78 29.5448,135.114 28.5,132.5C 29.4097,129.008 31.0764,126.008 33.5,123.5C 36.2165,122.322 36.5499,121.322 34.5,120.5C 38.6868,113.446 43.3534,106.779 48.5,100.5 Z"/></g>
<g><path style="opacity:1" fill="#eb1c2d" d="M 201.5,100.5 C 272.833,100.5 344.167,100.5 415.5,100.5C 415.5,116.5 415.5,132.5 415.5,148.5C 343.998,148.833 272.665,148.499 201.5,147.5C 210.785,131.786 210.785,116.119 201.5,100.5 Z"/></g>
<g><path style="opacity:1" fill="#feec01" d="M 311.5,108.5 C 313.74,112.098 315.074,116.098 315.5,120.5C 319.846,120.334 324.179,120.501 328.5,121C 325.135,123.675 321.802,126.342 318.5,129C 320.305,132.741 321.472,136.574 322,140.5C 318.825,137.915 315.491,135.581 312,133.5C 308.509,135.581 305.175,137.915 302,140.5C 302.625,136.446 303.792,132.446 305.5,128.5C 302.025,126.192 298.692,123.692 295.5,121C 299.821,120.501 304.154,120.334 308.5,120.5C 309.09,116.397 310.09,112.397 311.5,108.5 Z"/></g>
<g><path style="opacity:0.929" fill="#fee803" d="M 34.5,120.5 C 36.5499,121.322 36.2165,122.322 33.5,123.5C 33.5569,122.391 33.8902,121.391 34.5,120.5 Z"/></g>
<g><path style="opacity:1" fill="#fee504" d="M 28.5,132.5 C 29.5448,135.114 30.0448,137.78 30,140.5C 28.7292,139.117 27.2292,138.117 25.5,137.5C 26.1103,135.566 27.1103,133.899 28.5,132.5 Z"/></g>
<g><path style="opacity:1" fill="#f69aa2" d="M 201.5,147.5 C 272.665,148.499 343.998,148.833 415.5,148.5C 415.5,148.833 415.5,149.167 415.5,149.5C 343.833,149.5 272.167,149.5 200.5,149.5C 200.328,148.508 200.662,147.842 201.5,147.5 Z"/></g>
<g><path style="opacity:0.993" fill="#fefbfc" d="M 20.5,148.5 C 57.5,148.5 94.5,148.5 131.5,148.5C 134.5,152.167 137.833,155.5 141.5,158.5C 141.5,188.833 141.5,219.167 141.5,249.5C 135.833,249.5 130.167,249.5 124.5,249.5C 124.831,224.994 124.498,200.661 123.5,176.5C 82.1667,196.833 40.8333,217.167 -0.5,237.5C -0.5,234.167 -0.5,230.833 -0.5,227.5C 39.9613,207.769 80.2946,187.769 120.5,167.5C 121.376,167.631 122.043,167.298 122.5,166.5C 109.006,165.175 95.6726,165.175 82.5,166.5C 56.072,180.048 29.4054,193.048 2.5,205.5C 4.71765,193.629 7.71765,181.963 11.5,170.5C 14.2622,169.62 16.9289,168.454 19.5,167C 17.5273,166.505 15.5273,166.338 13.5,166.5C 15.3138,160.22 17.6472,154.22 20.5,148.5 Z"/></g>
<g><path style="opacity:1" fill="#fdfdfd" d="M 200.5,149.5 C 272.167,149.5 343.833,149.5 415.5,149.5C 415.5,154.833 415.5,160.167 415.5,165.5C 380.494,165.167 345.494,165.5 310.5,166.5C 310.624,167.107 310.957,167.44 311.5,167.5C 346.167,184.5 380.833,201.5 415.5,218.5C 415.5,222.167 415.5,225.833 415.5,229.5C 373.5,208.5 331.5,187.5 289.5,166.5C 276.327,165.175 262.994,165.175 249.5,166.5C 249.957,167.298 250.624,167.631 251.5,167.5C 306.023,194.595 360.356,221.928 414.5,249.5C 394.167,249.5 373.833,249.5 353.5,249.5C 352.71,248.599 351.71,247.932 350.5,247.5C 303.073,223.703 255.573,200.036 208,176.5C 207.5,200.498 207.333,224.498 207.5,248.5C 207.5,248.833 207.5,249.167 207.5,249.5C 201.833,249.5 196.167,249.5 190.5,249.5C 190.5,219.5 190.5,189.5 190.5,159.5C 193.5,155.833 196.833,152.5 200.5,149.5 Z"/></g>
<g><path style="opacity:1" fill="#ec202f" d="M 141.5,158.5 C 157.559,168.812 173.892,169.146 190.5,159.5C 190.5,189.5 190.5,219.5 190.5,249.5C 174.167,249.5 157.833,249.5 141.5,249.5C 141.5,219.167 141.5,188.833 141.5,158.5 Z"/></g>
<g><path style="opacity:1" fill="#f9b5ba" d="M 82.5,166.5 C 95.6726,165.175 109.006,165.175 122.5,166.5C 122.043,167.298 121.376,167.631 120.5,167.5C 108.011,166.505 95.3443,166.171 82.5,166.5 Z"/></g>
<g><path style="opacity:1" fill="#f9b6bb" d="M 289.5,166.5 C 276.656,166.171 263.989,166.505 251.5,167.5C 250.624,167.631 249.957,167.298 249.5,166.5C 262.994,165.175 276.327,165.175 289.5,166.5 Z"/></g>
<g><path style="opacity:1" fill="#bcd3e4" d="M 415.5,165.5 C 415.5,165.833 415.5,166.167 415.5,166.5C 380.663,166.168 345.996,166.502 311.5,167.5C 310.957,167.44 310.624,167.107 310.5,166.5C 345.494,165.5 380.494,165.167 415.5,165.5 Z"/></g>
<g><path style="opacity:0.987" fill="#045697" d="M 13.5,166.5 C 15.5273,166.338 17.5273,166.505 19.5,167C 16.9289,168.454 14.2622,169.62 11.5,170.5C 11.9887,169.005 12.6554,167.671 13.5,166.5 Z"/></g>
<g><path style="opacity:0.993" fill="#ec202f" d="M 82.5,166.5 C 95.3443,166.171 108.011,166.505 120.5,167.5C 80.2946,187.769 39.9613,207.769 -0.5,227.5C -0.5,226.833 -0.5,226.167 -0.5,225.5C 0.66853,218.994 1.66853,212.327 2.5,205.5C 29.4054,193.048 56.072,180.048 82.5,166.5 Z"/></g>
<g><path style="opacity:1" fill="#ec1f2f" d="M 251.5,167.5 C 263.989,166.505 276.656,166.171 289.5,166.5C 331.5,187.5 373.5,208.5 415.5,229.5C 415.824,236.354 415.491,243.021 414.5,249.5C 360.356,221.928 306.023,194.595 251.5,167.5 Z"/></g>
<g><path style="opacity:1" fill="#02599a" d="M 311.5,167.5 C 345.996,166.502 380.663,166.168 415.5,166.5C 415.5,183.833 415.5,201.167 415.5,218.5C 380.833,201.5 346.167,184.5 311.5,167.5 Z"/></g>
<g><path style="opacity:1" fill="#025a9a" d="M 123.5,176.5 C 123.5,200.5 123.5,224.5 123.5,248.5C 82.1667,248.5 40.8333,248.5 -0.5,248.5C -0.5,244.833 -0.5,241.167 -0.5,237.5C 40.8333,217.167 82.1667,196.833 123.5,176.5 Z"/></g>
<g><path style="opacity:1" fill="#025a9a" d="M 350.5,247.5 C 303.003,248.499 255.336,248.832 207.5,248.5C 207.333,224.498 207.5,200.498 208,176.5C 255.573,200.036 303.073,223.703 350.5,247.5 Z"/></g>
<g><path style="opacity:1" fill="#feed01" d="M 165.5,191.5 C 167.438,195.125 169.105,198.959 170.5,203C 174.5,203.333 178.5,203.667 182.5,204C 179.308,206.692 175.975,209.192 172.5,211.5C 174.605,215.307 175.772,219.307 176,223.5C 172.933,220.763 169.599,218.429 166,216.5C 162.401,218.429 159.067,220.763 156,223.5C 156.625,219.446 157.792,215.446 159.5,211.5C 156.384,208.768 153.051,206.268 149.5,204C 153.821,203.501 158.154,203.334 162.5,203.5C 163.188,199.416 164.188,195.416 165.5,191.5 Z"/></g>
<g><path style="opacity:0.999" fill="#39779f" d="M 123.5,176.5 C 124.498,200.661 124.831,224.994 124.5,249.5C 82.8333,249.5 41.1667,249.5 -0.5,249.5C -0.5,249.167 -0.5,248.833 -0.5,248.5C 40.8333,248.5 82.1667,248.5 123.5,248.5C 123.5,224.5 123.5,200.5 123.5,176.5 Z"/></g>
<g><path style="opacity:1" fill="#12658f" d="M 350.5,247.5 C 351.71,247.932 352.71,248.599 353.5,249.5C 304.833,249.5 256.167,249.5 207.5,249.5C 207.5,249.167 207.5,248.833 207.5,248.5C 255.336,248.832 303.003,248.499 350.5,247.5 Z"/></g>
</svg>
