<?xml version="1.0" encoding="UTF-8"?>
<!DOCTYPE svg PUBLIC "-//W3C//DTD SVG 1.1//EN" "http://www.w3.org/Graphics/SVG/1.1/DTD/svg11.dtd">
<svg xmlns="http://www.w3.org/2000/svg" version="1.1" width="500px" height="500px" style="shape-rendering:geometricPrecision; text-rendering:geometricPrecision; image-rendering:optimizeQuality; fill-rule:evenodd; clip-rule:evenodd" xmlns:xlink="http://www.w3.org/1999/xlink">
<g><path style="opacity:1" fill="#cb0101" d="M 225.5,-0.5 C 238.167,-0.5 250.833,-0.5 263.5,-0.5C 273.985,1.18538 284.651,2.51872 295.5,3.5C 296.833,3.5 298.167,3.5 299.5,3.5C 299.5,23.1667 299.5,42.8333 299.5,62.5C 294.882,61.9491 292.049,63.9491 291,68.5C 291.538,62.0328 288.704,59.5328 282.5,61C 281.299,61.9025 280.465,63.0692 280,64.5C 275.421,61.3548 271.921,62.3548 269.5,67.5C 265.851,65.749 263.185,66.749 261.5,70.5C 260.5,70 259.5,69.5 258.5,69C 259.814,66.3953 259.814,63.8953 258.5,61.5C 258.573,59.9731 257.906,58.9731 256.5,58.5C 256.262,56.5956 255.262,55.2623 253.5,54.5C 251.833,50.8333 252.833,49.8333 256.5,51.5C 257.122,52.6266 257.955,53.6266 259,54.5C 259.667,49.5 259.667,44.5 259,39.5C 258.283,40.0442 257.783,40.7109 257.5,41.5C 250.581,43.8322 249.915,42.3322 255.5,37C 251.459,36.1735 247.459,36.3401 243.5,37.5C 244.188,38.8549 245.188,39.8549 246.5,40.5C 244.731,44.3551 242.564,44.3551 240,40.5C 239.333,45.1667 239.333,49.8333 240,54.5C 241.167,53.3333 242.333,52.1667 243.5,51C 244.635,50.2506 245.635,50.4173 246.5,51.5C 244.116,54.8694 241.783,58.2027 239.5,61.5C 239.5,63.5 239.5,65.5 239.5,67.5C 239.213,69.1207 238.213,70.1207 236.5,70.5C 234.429,67.3011 231.429,65.6344 227.5,65.5C 225.152,62.3818 222.152,61.7151 218.5,63.5C 210.356,58.0486 207.023,60.0486 208.5,69.5C 207.032,67.3603 205.365,65.1936 203.5,63C 202.207,62.51 200.873,62.3433 199.5,62.5C 199.5,42.8333 199.5,23.1667 199.5,3.5C 208.313,2.24244 216.98,0.909111 225.5,-0.5 Z"/></g>
<g><path style="opacity:0.607" fill="#d73634" d="M 263.5,-0.5 C 266.833,-0.5 270.167,-0.5 273.5,-0.5C 280.878,0.554197 288.211,1.88753 295.5,3.5C 284.651,2.51872 273.985,1.18538 263.5,-0.5 Z"/></g>
<g><path style="opacity:0.993" fill="#fefefe" d="M 199.5,3.5 C 199.5,23.1667 199.5,42.8333 199.5,62.5C 197.863,63.9744 196.863,65.8077 196.5,68C 197.476,70.2404 198.309,72.407 199,74.5C 195.952,70.9905 192.619,70.6572 189,73.5C 187.756,78.3401 189.589,81.3401 194.5,82.5C 194.333,82.8333 194.167,83.1667 194,83.5C 191.599,82.3977 189.099,82.231 186.5,83C 183.595,86.3742 183.928,89.3742 187.5,92C 189.761,92.2395 191.761,92.4062 193.5,92.5C 188.335,93.4797 186.168,96.4797 187,101.5C 188.126,102.944 189.626,103.61 191.5,103.5C 193.512,103.16 195.512,102.827 197.5,102.5C 196.253,104.178 194.586,105.511 192.5,106.5C 190.895,109.58 191.562,112.08 194.5,114C 196.744,114.05 198.411,114.883 199.5,116.5C 199.5,141.5 199.5,166.5 199.5,191.5C 182.338,190.191 165.172,188.857 148,187.5C 146.167,187.833 144.333,188.167 142.5,188.5C 145.104,192.054 147.438,195.721 149.5,199.5C 100.833,199.5 52.1667,199.5 3.5,199.5C 24.3193,111.181 76.6526,49.6809 160.5,15C 173.307,10.3831 186.307,6.54975 199.5,3.5 Z"/></g>
<g><path style="opacity:0.993" fill="#fefefe" d="M 299.5,3.5 C 387.844,24.3474 449.344,76.6807 484,160.5C 488.618,173.312 492.451,186.312 495.5,199.5C 446.833,199.5 398.167,199.5 349.5,199.5C 351.573,195.692 353.906,192.026 356.5,188.5C 354.5,188.167 352.5,187.833 350.5,187.5C 333.493,188.834 316.493,190.167 299.5,191.5C 299.5,169.5 299.5,147.5 299.5,125.5C 299.335,122.15 299.502,118.817 300,115.5C 302.484,114.114 304.817,112.447 307,110.5C 307.678,108.402 307.511,106.402 306.5,104.5C 307.5,103.833 308.5,103.167 309.5,102.5C 312.332,100.593 313.166,97.9268 312,94.5C 310.055,93.1367 307.888,92.3034 305.5,92C 313.208,92.0011 315.541,88.6678 312.5,82C 309.833,81.6667 307.167,81.3333 304.5,81C 311.085,78.7235 312.085,75.0568 307.5,70C 305.866,69.5065 304.199,69.3398 302.5,69.5C 302.85,66.5466 301.85,64.2133 299.5,62.5C 299.5,42.8333 299.5,23.1667 299.5,3.5 Z"/></g>
<g><path style="opacity:1" fill="#1b0b01" d="M 257.5,41.5 C 255.964,44.0922 253.631,45.0922 250.5,44.5C 250.104,41.9556 250.771,39.7889 252.5,38C 250.167,37.3333 247.833,37.3333 245.5,38C 246.252,38.6708 246.586,39.5041 246.5,40.5C 245.188,39.8549 244.188,38.8549 243.5,37.5C 247.459,36.3401 251.459,36.1735 255.5,37C 249.915,42.3322 250.581,43.8322 257.5,41.5 Z"/></g>
<g><path style="opacity:1" fill="#110901" d="M 256.5,51.5 C 257.777,50.3064 258.444,48.6397 258.5,46.5C 258.493,44.6307 258.16,42.964 257.5,41.5C 257.783,40.7109 258.283,40.0442 259,39.5C 259.667,44.5 259.667,49.5 259,54.5C 257.955,53.6266 257.122,52.6266 256.5,51.5 Z"/></g>
<g><path style="opacity:1" fill="#eac000" d="M 257.5,41.5 C 258.16,42.964 258.493,44.6307 258.5,46.5C 258.444,48.6397 257.777,50.3064 256.5,51.5C 255.089,49.461 253.089,48.461 250.5,48.5C 250.461,51.089 251.461,53.089 253.5,54.5C 253.44,55.0431 253.107,55.3764 252.5,55.5C 250.556,54.8108 248.556,54.3108 246.5,54C 247.406,52.3005 247.739,50.4672 247.5,48.5C 244.675,48.0807 242.509,49.0807 241,51.5C 240.333,48.8333 240.333,46.1667 241,43.5C 242.897,45.0163 245.064,45.683 247.5,45.5C 247.784,43.5853 247.451,41.9187 246.5,40.5C 246.586,39.5041 246.252,38.6708 245.5,38C 247.833,37.3333 250.167,37.3333 252.5,38C 250.771,39.7889 250.104,41.9556 250.5,44.5C 253.631,45.0922 255.964,44.0922 257.5,41.5 Z"/></g>
<g><path style="opacity:1" fill="#231504" d="M 256.5,51.5 C 252.833,49.8333 251.833,50.8333 253.5,54.5C 251.461,53.089 250.461,51.089 250.5,48.5C 253.089,48.461 255.089,49.461 256.5,51.5 Z"/></g>
<g><path style="opacity:1" fill="#291e0e" d="M 246.5,40.5 C 247.451,41.9187 247.784,43.5853 247.5,45.5C 245.064,45.683 242.897,45.0163 241,43.5C 240.333,46.1667 240.333,48.8333 241,51.5C 242.509,49.0807 244.675,48.0807 247.5,48.5C 247.739,50.4672 247.406,52.3005 246.5,54C 248.556,54.3108 250.556,54.8108 252.5,55.5C 253.107,55.3764 253.44,55.0431 253.5,54.5C 255.262,55.2623 256.262,56.5956 256.5,58.5C 249.926,55.0253 244.26,56.0253 239.5,61.5C 241.783,58.2027 244.116,54.8694 246.5,51.5C 245.635,50.4173 244.635,50.2506 243.5,51C 242.333,52.1667 241.167,53.3333 240,54.5C 239.333,49.8333 239.333,45.1667 240,40.5C 242.564,44.3551 244.731,44.3551 246.5,40.5 Z"/></g>
<g><path style="opacity:1" fill="#fac900" d="M 256.5,58.5 C 256.427,60.0269 257.094,61.0269 258.5,61.5C 258.978,65.3375 257.978,68.6709 255.5,71.5C 254.29,71.9321 253.29,72.5987 252.5,73.5C 246.699,74.4302 242.366,72.4302 239.5,67.5C 239.5,65.5 239.5,63.5 239.5,61.5C 244.26,56.0253 249.926,55.0253 256.5,58.5 Z"/></g>
<g><path style="opacity:1" fill="#2b2415" d="M 256.5,58.5 C 257.906,58.9731 258.573,59.9731 258.5,61.5C 257.094,61.0269 256.427,60.0269 256.5,58.5 Z"/></g>
<g><path style="opacity:1" fill="#242222" d="M 299.5,62.5 C 301.85,64.2133 302.85,66.5466 302.5,69.5C 304.199,69.3398 305.866,69.5065 307.5,70C 312.085,75.0568 311.085,78.7235 304.5,81C 307.167,81.3333 309.833,81.6667 312.5,82C 315.541,88.6678 313.208,92.0011 305.5,92C 307.888,92.3034 310.055,93.1367 312,94.5C 313.166,97.9268 312.332,100.593 309.5,102.5C 307.097,102.552 304.764,102.219 302.5,101.5C 305.912,92.3319 305.078,83.6653 300,75.5C 295.282,70.2614 289.449,68.4281 282.5,70C 277.38,72.06 272.38,74.3933 267.5,77C 263.986,78.5617 260.319,79.395 256.5,79.5C 256.5,80.8333 256.5,82.1667 256.5,83.5C 256.167,83.5 255.833,83.5 255.5,83.5C 255.5,80.1667 255.5,76.8333 255.5,73.5C 255.5,72.8333 255.5,72.1667 255.5,71.5C 257.978,68.6709 258.978,65.3375 258.5,61.5C 259.814,63.8953 259.814,66.3953 258.5,69C 259.5,69.5 260.5,70 261.5,70.5C 263.185,66.749 265.851,65.749 269.5,67.5C 271.921,62.3548 275.421,61.3548 280,64.5C 280.465,63.0692 281.299,61.9025 282.5,61C 288.704,59.5328 291.538,62.0328 291,68.5C 292.049,63.9491 294.882,61.9491 299.5,62.5 Z"/></g>
<g><path style="opacity:1" fill="#c5c7c9" d="M 265.5,70.5 C 266.833,70.5 268.167,70.5 269.5,70.5C 269.778,72.3464 269.111,73.6798 267.5,74.5C 265.889,73.6798 265.222,72.3464 265.5,70.5 Z"/></g>
<g><path style="opacity:1" fill="#e4e6e8" d="M 295.5,66.5 C 296.5,66.5 297.5,66.5 298.5,66.5C 298.5,67.5 298.5,68.5 298.5,69.5C 297.5,69.5 296.5,69.5 295.5,69.5C 295.5,68.5 295.5,67.5 295.5,66.5 Z"/></g>
<g><path style="opacity:1" fill="#cdd0d3" d="M 274.5,66.5 C 275.5,66.5 276.5,66.5 277.5,66.5C 277.5,67.8333 277.5,69.1667 277.5,70.5C 276.5,70.5 275.5,70.5 274.5,70.5C 274.5,69.1667 274.5,67.8333 274.5,66.5 Z"/></g>
<g><path style="opacity:1" fill="#dadde0" d="M 284.5,64.5 C 285.5,64.5 286.5,64.5 287.5,64.5C 287.5,65.5 287.5,66.5 287.5,67.5C 286.5,67.5 285.5,67.5 284.5,67.5C 284.5,66.5 284.5,65.5 284.5,64.5 Z"/></g>
<g><path style="opacity:1" fill="#201e1e" d="M 239.5,67.5 C 242.366,72.4302 246.699,74.4302 252.5,73.5C 252.174,82.3494 252.507,91.0161 253.5,99.5C 253.5,99.8333 253.5,100.167 253.5,100.5C 250.833,100.5 248.167,100.5 245.5,100.5C 245.5,100.167 245.5,99.8333 245.5,99.5C 245.666,91.16 245.5,82.8267 245,74.5C 244.586,74.0426 244.086,73.7093 243.5,73.5C 242.511,77.1073 242.177,80.774 242.5,84.5C 242.167,84.5 241.833,84.5 241.5,84.5C 238.603,83.871 235.936,82.871 233.5,81.5C 236.206,81.5751 238.873,81.9084 241.5,82.5C 241.5,81.5 241.5,80.5 241.5,79.5C 238.784,79.3215 236.117,78.8215 233.5,78C 225.919,72.8619 217.585,70.0286 208.5,69.5C 207.023,60.0486 210.356,58.0486 218.5,63.5C 222.152,61.7151 225.152,62.3818 227.5,65.5C 231.429,65.6344 234.429,67.3011 236.5,70.5C 238.213,70.1207 239.213,69.1207 239.5,67.5 Z"/></g>
<g><path style="opacity:1" fill="#e3e5e7" d="M 229.5,70.5 C 230.5,70.5 231.5,70.5 232.5,70.5C 232.5,71.5 232.5,72.5 232.5,73.5C 231.5,73.5 230.5,73.5 229.5,73.5C 229.5,72.5 229.5,71.5 229.5,70.5 Z"/></g>
<g><path style="opacity:1" fill="#ced0d1" d="M 221.5,65.5 C 223.912,65.6941 224.912,67.0274 224.5,69.5C 221.046,69.7332 220.046,68.3999 221.5,65.5 Z"/></g>
<g><path style="opacity:1" fill="#ced0d2" d="M 211.5,63.5 C 212.5,63.5 213.5,63.5 214.5,63.5C 214.5,64.8333 214.5,66.1667 214.5,67.5C 213.5,67.5 212.5,67.5 211.5,67.5C 211.5,66.1667 211.5,64.8333 211.5,63.5 Z"/></g>
<g><path style="opacity:1" fill="#e9c003" d="M 302.5,101.5 C 301.833,101.5 301.5,101.833 301.5,102.5C 300.585,104.754 299.252,106.754 297.5,108.5C 296.5,108.167 295.833,107.5 295.5,106.5C 296.63,105.378 297.297,104.044 297.5,102.5C 301.198,97.1206 302.365,91.1206 301,84.5C 300.392,82.9336 299.558,81.6002 298.5,80.5C 297.388,77.0536 295.055,75.0536 291.5,74.5C 289.205,72.615 286.538,72.115 283.5,73C 278.827,74.6699 274.493,76.8366 270.5,79.5C 267.458,79.7329 264.792,80.7329 262.5,82.5C 260.901,82.2322 259.568,82.5655 258.5,83.5C 257.833,83.5 257.167,83.5 256.5,83.5C 256.5,82.1667 256.5,80.8333 256.5,79.5C 260.319,79.395 263.986,78.5617 267.5,77C 272.38,74.3933 277.38,72.06 282.5,70C 289.449,68.4281 295.282,70.2614 300,75.5C 305.078,83.6653 305.912,92.3319 302.5,101.5 Z"/></g>
<g><path style="opacity:1" fill="#ccced0" d="M 257.5,73.5 C 258.5,73.5 259.5,73.5 260.5,73.5C 260.5,74.8333 260.5,76.1667 260.5,77.5C 259.5,77.5 258.5,77.5 257.5,77.5C 257.5,76.1667 257.5,74.8333 257.5,73.5 Z"/></g>
<g><path style="opacity:1" fill="#c50402" d="M 228.5,79.5 C 229.78,80.9313 231.447,81.5979 233.5,81.5C 235.936,82.871 238.603,83.871 241.5,84.5C 241.664,87.1873 241.497,89.854 241,92.5C 238.779,91.5941 236.612,90.5941 234.5,89.5C 233.432,88.5655 232.099,88.2322 230.5,88.5C 226.645,85.2529 222.645,84.9196 218.5,87.5C 216.436,87.7619 215.103,88.9286 214.5,91C 211.167,91.3333 207.833,91.6667 204.5,92C 203.211,93.8022 201.544,94.9688 199.5,95.5C 198.167,92.1667 198.167,88.8333 199.5,85.5C 200.814,82.8721 202.147,80.2054 203.5,77.5C 206.306,75.5222 209.472,74.5222 213,74.5C 218.305,75.7356 223.472,77.4023 228.5,79.5 Z"/></g>
<g><path style="opacity:1" fill="#3e3311" d="M 255.5,71.5 C 255.5,72.1667 255.5,72.8333 255.5,73.5C 253.53,81.7688 252.864,90.4355 253.5,99.5C 252.507,91.0161 252.174,82.3494 252.5,73.5C 253.29,72.5987 254.29,71.9321 255.5,71.5 Z"/></g>
<g><path style="opacity:1" fill="#3b2515" d="M 291.5,74.5 C 288.15,74.335 284.817,74.5017 281.5,75C 278.029,77.0719 274.362,78.5719 270.5,79.5C 274.493,76.8366 278.827,74.6699 283.5,73C 286.538,72.115 289.205,72.615 291.5,74.5 Z"/></g>
<g><path style="opacity:1" fill="#c60201" d="M 291.5,74.5 C 293.808,76.4707 296.142,78.4707 298.5,80.5C 299.442,85.8054 299.609,91.1387 299,96.5C 298.215,94.714 297.049,93.214 295.5,92C 292.5,91.6667 289.5,91.3333 286.5,91C 285.022,87.3446 282.356,85.5113 278.5,85.5C 271.225,86.9688 264.225,89.3021 257.5,92.5C 256.085,89.205 256.419,86.205 258.5,83.5C 259.568,82.5655 260.901,82.2322 262.5,82.5C 265.542,82.2671 268.208,81.2671 270.5,79.5C 274.362,78.5719 278.029,77.0719 281.5,75C 284.817,74.5017 288.15,74.335 291.5,74.5 Z"/></g>
<g><path style="opacity:1" fill="#331713" d="M 291.5,74.5 C 295.055,75.0536 297.388,77.0536 298.5,80.5C 296.142,78.4707 293.808,76.4707 291.5,74.5 Z"/></g>
<g><path style="opacity:1" fill="#d2d4d6" d="M 303.5,73.5 C 304.833,73.5 306.167,73.5 307.5,73.5C 307.5,74.5 307.5,75.5 307.5,76.5C 306.167,76.5 304.833,76.5 303.5,76.5C 303.5,75.5 303.5,74.5 303.5,73.5 Z"/></g>
<g><path style="opacity:1" fill="#c3c6c8" d="M 237.5,73.5 C 238.833,73.5 240.167,73.5 241.5,73.5C 241.778,75.3464 241.111,76.6798 239.5,77.5C 237.889,76.6798 237.222,75.3464 237.5,73.5 Z"/></g>
<g><path style="opacity:1" fill="#cfab05" d="M 245.5,99.5 C 244.5,99.5 243.5,99.5 242.5,99.5C 242.5,94.5 242.5,89.5 242.5,84.5C 242.177,80.774 242.511,77.1073 243.5,73.5C 244.086,73.7093 244.586,74.0426 245,74.5C 245.5,82.8267 245.666,91.16 245.5,99.5 Z"/></g>
<g><path style="opacity:1" fill="#e2ba04" d="M 208.5,69.5 C 217.585,70.0286 225.919,72.8619 233.5,78C 236.117,78.8215 238.784,79.3215 241.5,79.5C 241.5,80.5 241.5,81.5 241.5,82.5C 238.873,81.9084 236.206,81.5751 233.5,81.5C 232.22,80.0687 230.553,79.4021 228.5,79.5C 222.486,74.1737 215.486,72.3404 207.5,74C 205.676,74.66 204.343,75.8267 203.5,77.5C 200.593,79.3145 199.259,81.9812 199.5,85.5C 198.167,88.8333 198.167,92.1667 199.5,95.5C 199.402,97.5529 200.069,99.2196 201.5,100.5C 202.051,103.267 203.384,105.6 205.5,107.5C 204.167,108.833 202.833,108.833 201.5,107.5C 200.113,105.79 198.779,104.123 197.5,102.5C 191.288,87.9728 194.955,76.9728 208.5,69.5 Z"/></g>
<g><path style="opacity:1" fill="#331b13" d="M 228.5,79.5 C 223.472,77.4023 218.305,75.7356 213,74.5C 209.472,74.5222 206.306,75.5222 203.5,77.5C 204.343,75.8267 205.676,74.66 207.5,74C 215.486,72.3404 222.486,74.1737 228.5,79.5 Z"/></g>
<g><path style="opacity:1" fill="#371813" d="M 203.5,77.5 C 202.147,80.2054 200.814,82.8721 199.5,85.5C 199.259,81.9812 200.593,79.3145 203.5,77.5 Z"/></g>
<g><path style="opacity:1" fill="#2a1914" d="M 228.5,79.5 C 230.553,79.4021 232.22,80.0687 233.5,81.5C 231.447,81.5979 229.78,80.9313 228.5,79.5 Z"/></g>
<g><path style="opacity:1" fill="#2f1c14" d="M 270.5,79.5 C 268.208,81.2671 265.542,82.2671 262.5,82.5C 264.792,80.7329 267.458,79.7329 270.5,79.5 Z"/></g>
<g><path style="opacity:1" fill="#242424" d="M 199.5,62.5 C 200.873,62.3433 202.207,62.51 203.5,63C 205.365,65.1936 207.032,67.3603 208.5,69.5C 194.955,76.9728 191.288,87.9728 197.5,102.5C 195.512,102.827 193.512,103.16 191.5,103.5C 189.626,103.61 188.126,102.944 187,101.5C 186.168,96.4797 188.335,93.4797 193.5,92.5C 191.761,92.4062 189.761,92.2395 187.5,92C 183.928,89.3742 183.595,86.3742 186.5,83C 189.099,82.231 191.599,82.3977 194,83.5C 194.167,83.1667 194.333,82.8333 194.5,82.5C 189.589,81.3401 187.756,78.3401 189,73.5C 192.619,70.6572 195.952,70.9905 199,74.5C 198.309,72.407 197.476,70.2404 196.5,68C 196.863,65.8077 197.863,63.9744 199.5,62.5 Z"/></g>
<g><path style="opacity:1" fill="#d0d2d4" d="M 192.5,74.5 C 193.5,74.5 194.5,74.5 195.5,74.5C 195.5,75.8333 195.5,77.1667 195.5,78.5C 194.5,78.5 193.5,78.5 192.5,78.5C 192.5,77.1667 192.5,75.8333 192.5,74.5 Z"/></g>
<g><path style="opacity:1" fill="#c5c9cc" d="M 200.5,66.5 C 201.5,66.5 202.5,66.5 203.5,66.5C 203.5,67.8333 203.5,69.1667 203.5,70.5C 202.5,70.5 201.5,70.5 200.5,70.5C 200.5,69.1667 200.5,67.8333 200.5,66.5 Z"/></g>
<g><path style="opacity:1" fill="#cca905" d="M 255.5,73.5 C 255.5,76.8333 255.5,80.1667 255.5,83.5C 256.113,89.2709 255.446,94.6042 253.5,99.5C 252.864,90.4355 253.53,81.7688 255.5,73.5 Z"/></g>
<g><path style="opacity:1" fill="#d5d7d8" d="M 307.5,84.5 C 308.5,84.5 309.5,84.5 310.5,84.5C 310.5,85.8333 310.5,87.1667 310.5,88.5C 309.5,88.5 308.5,88.5 307.5,88.5C 307.5,87.1667 307.5,85.8333 307.5,84.5 Z"/></g>
<g><path style="opacity:1" fill="#cfd1d3" d="M 189.5,85.5 C 192.861,86.2032 193.194,87.5365 190.5,89.5C 188.358,88.5629 188.024,87.2296 189.5,85.5 Z"/></g>
<g><path style="opacity:1" fill="#220703" d="M 230.5,88.5 C 226.548,87.7279 222.548,87.3946 218.5,87.5C 222.645,84.9196 226.645,85.2529 230.5,88.5 Z"/></g>
<g><path style="opacity:1" fill="#a8211e" d="M 218.5,87.5 C 222.548,87.3946 226.548,87.7279 230.5,88.5C 232.099,88.2322 233.432,88.5655 234.5,89.5C 232.621,89.3932 232.288,89.8932 233.5,91C 236.292,91.8966 238.959,93.0633 241.5,94.5C 241.167,94.8333 240.833,95.1667 240.5,95.5C 238.172,94.7827 236.005,93.7827 234,92.5C 229.02,93.763 228.353,96.0964 232,99.5C 234.02,98.9681 234.853,97.6348 234.5,95.5C 234.741,94.3743 237.074,94.7076 241.5,96.5C 241.52,98.143 240.853,99.4763 239.5,100.5C 239.957,101.298 240.624,101.631 241.5,101.5C 243.14,103.169 244.474,105.169 245.5,107.5C 243.905,108.434 242.239,108.434 240.5,107.5C 237.834,103.743 234.334,102.409 230,103.5C 226.967,98.8394 224.467,94.0061 222.5,89C 221.833,88.3333 221.167,88.3333 220.5,89C 222.037,90.1096 222.703,91.6096 222.5,93.5C 220.5,93.5 218.5,93.5 216.5,93.5C 216.253,91.1417 216.919,89.1417 218.5,87.5 Z"/></g>
<g><path style="opacity:1" fill="#ac221f" d="M 258.5,106.5 C 258.5,106.833 258.5,107.167 258.5,107.5C 258.167,107.5 257.833,107.5 257.5,107.5C 253.598,108.83 252.598,107.497 254.5,103.5C 255.962,102.542 257.295,101.376 258.5,100C 256.75,98.2458 256.083,96.0792 256.5,93.5C 263.168,91.4442 269.835,89.2775 276.5,87C 280.873,86.0145 283.873,87.6811 285.5,92C 282.31,94.262 279.644,93.762 277.5,90.5C 275.96,94.2135 273.793,97.5468 271,100.5C 270.51,101.793 270.343,103.127 270.5,104.5C 267.552,104.223 264.719,104.556 262,105.5C 260.485,103.095 259.318,103.428 258.5,106.5 Z"/></g>
<g><path style="opacity:1" fill="#979a9d" d="M 248.5,87.5 C 249.5,87.5 250.5,87.5 251.5,87.5C 251.5,88.5 251.5,89.5 251.5,90.5C 250.5,90.5 249.5,90.5 248.5,90.5C 248.5,89.5 248.5,88.5 248.5,87.5 Z"/></g>
<g><path style="opacity:1" fill="#180f0b" d="M 298.5,80.5 C 299.558,81.6002 300.392,82.9336 301,84.5C 302.365,91.1206 301.198,97.1206 297.5,102.5C 297.297,104.044 296.63,105.378 295.5,106.5C 295.833,107.5 296.5,108.167 297.5,108.5C 299.252,106.754 300.585,104.754 301.5,102.5C 303.167,103.167 304.833,103.833 306.5,104.5C 307.511,106.402 307.678,108.402 307,110.5C 304.817,112.447 302.484,114.114 300,115.5C 299.502,118.817 299.335,122.15 299.5,125.5C 297.947,127.385 295.947,128.385 293.5,128.5C 293.371,130.216 293.038,131.883 292.5,133.5C 292.167,133.5 291.833,133.5 291.5,133.5C 291.5,132.833 291.5,132.167 291.5,131.5C 292.686,130.039 292.686,128.705 291.5,127.5C 291.5,127.167 291.5,126.833 291.5,126.5C 296.982,122.415 296.649,121.748 290.5,124.5C 287.595,123.299 284.595,123.466 281.5,125C 280.748,125.671 280.414,126.504 280.5,127.5C 277.588,126.571 274.921,125.238 272.5,123.5C 272.565,123.062 272.399,122.728 272,122.5C 270.871,124.141 269.371,125.141 267.5,125.5C 263.936,126.423 260.269,126.756 256.5,126.5C 256.167,125.833 255.833,125.167 255.5,124.5C 258.445,125.468 261.445,125.634 264.5,125C 260.958,124.879 257.958,123.713 255.5,121.5C 261.441,123.52 262.441,122.52 258.5,118.5C 259.794,116.952 260.461,114.952 260.5,112.5C 260.461,110.048 259.794,108.048 258.5,106.5C 259.318,103.428 260.485,103.095 262,105.5C 264.719,104.556 267.552,104.223 270.5,104.5C 270.343,103.127 270.51,101.793 271,100.5C 273.793,97.5468 275.96,94.2135 277.5,90.5C 279.644,93.762 282.31,94.262 285.5,92C 283.873,87.6811 280.873,86.0145 276.5,87C 269.835,89.2775 263.168,91.4442 256.5,93.5C 256.083,96.0792 256.75,98.2458 258.5,100C 257.295,101.376 255.962,102.542 254.5,103.5C 254.414,102.504 254.748,101.671 255.5,101C 254.906,100.536 254.239,100.369 253.5,100.5C 253.5,100.167 253.5,99.8333 253.5,99.5C 255.446,94.6042 256.113,89.2709 255.5,83.5C 255.833,83.5 256.167,83.5 256.5,83.5C 257.167,83.5 257.833,83.5 258.5,83.5C 256.419,86.205 256.085,89.205 257.5,92.5C 264.225,89.3021 271.225,86.9688 278.5,85.5C 282.356,85.5113 285.022,87.3446 286.5,91C 289.5,91.3333 292.5,91.6667 295.5,92C 297.049,93.214 298.215,94.714 299,96.5C 299.609,91.1387 299.442,85.8054 298.5,80.5 Z"/></g>
<g><path style="opacity:1" fill="#140b06" d="M 218.5,87.5 C 216.919,89.1417 216.253,91.1417 216.5,93.5C 218.5,93.5 220.5,93.5 222.5,93.5C 222.703,91.6096 222.037,90.1096 220.5,89C 221.167,88.3333 221.833,88.3333 222.5,89C 224.467,94.0061 226.967,98.8394 230,103.5C 234.334,102.409 237.834,103.743 240.5,107.5C 239.213,108.871 238.547,110.705 238.5,113C 238.547,115.295 239.213,117.129 240.5,118.5C 239.71,119.794 238.71,120.961 237.5,122C 238.793,122.49 240.127,122.657 241.5,122.5C 241.158,123.338 240.492,123.672 239.5,123.5C 238.167,123.5 236.833,123.5 235.5,123.5C 232.61,123.722 229.943,123.055 227.5,121.5C 225.448,122.611 224.114,124.277 223.5,126.5C 222.167,126.833 220.833,127.167 219.5,127.5C 218.745,125.534 217.579,125.2 216,126.5C 214.266,124.549 212.099,123.549 209.5,123.5C 209.5,124.5 209.5,125.5 209.5,126.5C 207.856,125.634 206.189,125.134 204.5,125C 205.823,125.816 206.489,126.983 206.5,128.5C 206.5,128.833 206.5,129.167 206.5,129.5C 204.417,128.971 202.583,127.971 201,126.5C 200.821,122.975 200.321,119.641 199.5,116.5C 198.411,114.883 196.744,114.05 194.5,114C 191.562,112.08 190.895,109.58 192.5,106.5C 194.586,105.511 196.253,104.178 197.5,102.5C 198.779,104.123 200.113,105.79 201.5,107.5C 202.833,108.833 204.167,108.833 205.5,107.5C 203.384,105.6 202.051,103.267 201.5,100.5C 200.069,99.2196 199.402,97.5529 199.5,95.5C 201.544,94.9688 203.211,93.8022 204.5,92C 207.833,91.6667 211.167,91.3333 214.5,91C 215.103,88.9286 216.436,87.7619 218.5,87.5 Z"/></g>
<g><path style="opacity:1" fill="#a8211e" d="M 208.5,116.5 C 207.637,117.463 206.97,117.463 206.5,116.5C 207.309,114.929 207.643,113.262 207.5,111.5C 207.328,110.508 207.662,109.842 208.5,109.5C 211.467,106.891 211.133,106.225 207.5,107.5C 205.585,105.929 204.585,103.929 204.5,101.5C 203.391,101.443 202.391,101.11 201.5,100.5C 202.458,93.402 206.458,90.902 213.5,93C 215.597,94.6104 217.93,95.7771 220.5,96.5C 218.816,99.6124 218.15,102.946 218.5,106.5C 216.037,106.781 213.87,107.781 212,109.5C 211.667,109.167 211.333,108.833 211,108.5C 209.659,111.022 208.826,113.689 208.5,116.5 Z"/></g>
<g><path style="opacity:1" fill="#a9211f" d="M 297.5,102.5 C 296.188,103.145 295.188,104.145 294.5,105.5C 293.311,106.429 291.978,106.762 290.5,106.5C 290.402,108.553 291.069,110.22 292.5,111.5C 292.519,113.06 292.852,114.56 293.5,116C 292.824,117.683 291.824,117.85 290.5,116.5C 289.864,110.18 286.53,106.514 280.5,105.5C 280.448,101.802 280.114,98.1352 279.5,94.5C 284.313,92.9419 289.313,92.4419 294.5,93C 297.186,95.5463 298.186,98.713 297.5,102.5 Z"/></g>
<g><path style="opacity:1" fill="#2c0d0a" d="M 241.5,84.5 C 241.833,84.5 242.167,84.5 242.5,84.5C 242.5,89.5 242.5,94.5 242.5,99.5C 243.5,99.5 244.5,99.5 245.5,99.5C 245.5,99.8333 245.5,100.167 245.5,100.5C 243.901,100.232 242.568,100.566 241.5,101.5C 240.624,101.631 239.957,101.298 239.5,100.5C 240.853,99.4763 241.52,98.143 241.5,96.5C 237.074,94.7076 234.741,94.3743 234.5,95.5C 234.853,97.6348 234.02,98.9681 232,99.5C 228.353,96.0964 229.02,93.763 234,92.5C 236.005,93.7827 238.172,94.7827 240.5,95.5C 240.833,95.1667 241.167,94.8333 241.5,94.5C 238.959,93.0633 236.292,91.8966 233.5,91C 232.288,89.8932 232.621,89.3932 234.5,89.5C 236.612,90.5941 238.779,91.5941 241,92.5C 241.497,89.854 241.664,87.1873 241.5,84.5 Z"/></g>
<g><path style="opacity:1" fill="#d6d9da" d="M 247.5,95.5 C 248.833,95.5 250.167,95.5 251.5,95.5C 251.5,96.5 251.5,97.5 251.5,98.5C 249.027,98.9118 247.694,97.9118 247.5,95.5 Z"/></g>
<g><path style="opacity:1" fill="#cbcdcf" d="M 305.5,96.5 C 306.833,96.5 308.167,96.5 309.5,96.5C 308.304,101.757 306.97,101.757 305.5,96.5 Z"/></g>
<g><path style="opacity:1" fill="#2d0d08" d="M 204.5,101.5 C 205.014,99.5613 206.347,98.5613 208.5,98.5C 210.266,99.0909 211.933,99.9242 213.5,101C 210.452,100.422 207.452,100.589 204.5,101.5 Z"/></g>
<g><path style="opacity:1" fill="#e5e7e8" d="M 190.5,97.5 C 191.5,97.5 192.5,97.5 193.5,97.5C 193.5,98.5 193.5,99.5 193.5,100.5C 192.5,100.5 191.5,100.5 190.5,100.5C 190.5,99.5 190.5,98.5 190.5,97.5 Z"/></g>
<g><path style="opacity:1" fill="#745d02" d="M 275.5,100.5 C 275.56,99.9569 275.893,99.6236 276.5,99.5C 277.793,101.636 277.793,103.636 276.5,105.5C 276.784,103.585 276.451,101.919 275.5,100.5 Z"/></g>
<g><path style="opacity:1" fill="#f1c500" d="M 241.5,101.5 C 242.568,100.566 243.901,100.232 245.5,100.5C 248.167,100.5 250.833,100.5 253.5,100.5C 254.239,100.369 254.906,100.536 255.5,101C 254.748,101.671 254.414,102.504 254.5,103.5C 252.461,104.911 251.461,106.911 251.5,109.5C 254.01,109.946 256.01,109.28 257.5,107.5C 257.833,107.5 258.167,107.5 258.5,107.5C 259.833,110.833 259.833,114.167 258.5,117.5C 257.791,116.596 256.791,116.263 255.5,116.5C 253.972,115.691 252.306,115.024 250.5,114.5C 250.53,113.503 250.03,112.836 249,112.5C 246.477,114.675 243.643,116.342 240.5,117.5C 239.167,114.5 239.167,111.5 240.5,108.5C 242.379,109.341 244.379,109.675 246.5,109.5C 246.837,105.495 245.17,102.828 241.5,101.5 Z"/></g>
<g><path style="opacity:1" fill="#7b7978" d="M 301.5,102.5 C 301.5,101.833 301.833,101.5 302.5,101.5C 304.764,102.219 307.097,102.552 309.5,102.5C 308.5,103.167 307.5,103.833 306.5,104.5C 304.833,103.833 303.167,103.167 301.5,102.5 Z"/></g>
<g><path style="opacity:1" fill="#f0c700" d="M 225.5,103.5 C 225.806,106.385 225.473,109.052 224.5,111.5C 222.831,107.649 222.331,103.649 223,99.5C 224.481,100.471 225.315,101.804 225.5,103.5 Z"/></g>
<g><path style="opacity:1" fill="#371a0b" d="M 254.5,103.5 C 252.598,107.497 253.598,108.83 257.5,107.5C 256.01,109.28 254.01,109.946 251.5,109.5C 251.461,106.911 252.461,104.911 254.5,103.5 Z"/></g>
<g><path style="opacity:1" fill="#e5be00" d="M 230.5,106.5 C 234.419,105.746 235.753,107.08 234.5,110.5C 232.958,109.253 231.458,109.253 230,110.5C 229.805,109.181 229.972,107.847 230.5,106.5 Z"/></g>
<g><path style="opacity:1" fill="#d8b000" d="M 275.5,100.5 C 276.451,101.919 276.784,103.585 276.5,105.5C 275.97,107.924 275.136,110.257 274,112.5C 272.994,108.198 273.494,104.198 275.5,100.5 Z"/></g>
<g><path style="opacity:1" fill="#c8cbcc" d="M 300.5,106.5 C 301.833,106.5 303.167,106.5 304.5,106.5C 304.778,108.346 304.111,109.68 302.5,110.5C 300.889,109.68 300.222,108.346 300.5,106.5 Z"/></g>
<g><path style="opacity:1" fill="#d0d2d4" d="M 196.5,107.5 C 200.123,108.411 200.29,109.745 197,111.5C 195.232,110.318 195.065,108.985 196.5,107.5 Z"/></g>
<g><path style="opacity:1" fill="#34170c" d="M 241.5,101.5 C 245.17,102.828 246.837,105.495 246.5,109.5C 244.379,109.675 242.379,109.341 240.5,108.5C 240.5,108.167 240.5,107.833 240.5,107.5C 242.239,108.434 243.905,108.434 245.5,107.5C 244.474,105.169 243.14,103.169 241.5,101.5 Z"/></g>
<g><path style="opacity:1" fill="#dbb400" d="M 279.5,109.5 C 283.677,108.842 285.177,110.508 284,114.5C 282.4,113.134 280.567,112.134 278.5,111.5C 278.863,110.817 279.196,110.15 279.5,109.5 Z"/></g>
<g><path style="opacity:1" fill="#c19e00" d="M 264.5,107.5 C 266.912,107.244 268.579,108.244 269.5,110.5C 264.246,113.957 262.58,112.957 264.5,107.5 Z"/></g>
<g><path style="opacity:1" fill="#ebc000" d="M 208.5,109.5 C 207.662,109.842 207.328,110.508 207.5,111.5C 206.883,111.611 206.383,111.944 206,112.5C 205.333,115.167 205.333,117.833 206,120.5C 207.481,119.529 208.315,118.196 208.5,116.5C 209.793,115.158 210.626,113.491 211,111.5C 212.096,115.623 213.096,119.623 214,123.5C 210.551,122.39 207.051,122.39 203.5,123.5C 203.032,119.556 201.699,115.889 199.5,112.5C 202.044,110.981 204.711,109.648 207.5,108.5C 208.107,108.624 208.44,108.957 208.5,109.5 Z"/></g>
<g><path style="opacity:1" fill="#493a02" d="M 225.5,103.5 C 226.803,106.355 226.803,109.355 225.5,112.5C 224.893,112.376 224.56,112.043 224.5,111.5C 225.473,109.052 225.806,106.385 225.5,103.5 Z"/></g>
<g><path style="opacity:1" fill="#e7b602" d="M 292.5,111.5 C 292.5,110.5 292.5,109.5 292.5,108.5C 295.927,108.588 298.26,110.255 299.5,113.5C 298.988,116.351 297.321,117.684 294.5,117.5C 294.741,115.102 294.074,113.102 292.5,111.5 Z"/></g>
<g><path style="opacity:1" fill="#d2af00" d="M 215.5,110.5 C 217.827,110.247 219.827,110.914 221.5,112.5C 219.433,113.134 217.6,114.134 216,115.5C 214.212,113.977 214.045,112.31 215.5,110.5 Z"/></g>
<g><path style="opacity:1" fill="#7a6201" d="M 240.5,107.5 C 240.5,107.833 240.5,108.167 240.5,108.5C 239.167,111.5 239.167,114.5 240.5,117.5C 240.5,117.833 240.5,118.167 240.5,118.5C 239.213,117.129 238.547,115.295 238.5,113C 238.547,110.705 239.213,108.871 240.5,107.5 Z"/></g>
<g><path style="opacity:1" fill="#776000" d="M 258.5,107.5 C 258.5,107.167 258.5,106.833 258.5,106.5C 259.794,108.048 260.461,110.048 260.5,112.5C 260.461,114.952 259.794,116.952 258.5,118.5C 258.5,118.167 258.5,117.833 258.5,117.5C 259.833,114.167 259.833,110.833 258.5,107.5 Z"/></g>
<g><path style="opacity:1" fill="#301f09" d="M 250.5,114.5 C 249.883,114.389 249.383,114.056 249,113.5C 247.879,117.794 245.379,120.794 241.5,122.5C 242.81,120.852 244.143,119.186 245.5,117.5C 245.167,117.167 244.833,116.833 244.5,116.5C 243.378,117.63 242.044,118.297 240.5,118.5C 240.5,118.167 240.5,117.833 240.5,117.5C 243.643,116.342 246.477,114.675 249,112.5C 250.03,112.836 250.53,113.503 250.5,114.5 Z"/></g>
<g><path style="opacity:1" fill="#221506" d="M 250.5,114.5 C 252.306,115.024 253.972,115.691 255.5,116.5C 254.448,116.351 253.448,116.517 252.5,117C 253.252,117.671 253.586,118.504 253.5,119.5C 251.75,118.341 250.75,116.674 250.5,114.5 Z"/></g>
<g><path style="opacity:1" fill="#241606" d="M 207.5,111.5 C 207.643,113.262 207.309,114.929 206.5,116.5C 206.97,117.463 207.637,117.463 208.5,116.5C 208.315,118.196 207.481,119.529 206,120.5C 205.333,117.833 205.333,115.167 206,112.5C 206.383,111.944 206.883,111.611 207.5,111.5 Z"/></g>
<g><path style="opacity:1" fill="#d3b11c" d="M 250.5,114.5 C 250.75,116.674 251.75,118.341 253.5,119.5C 253.833,120.5 254.5,121.167 255.5,121.5C 257.958,123.713 260.958,124.879 264.5,125C 261.445,125.634 258.445,125.468 255.5,124.5C 253.481,122.81 251.481,121.144 249.5,119.5C 249.167,119.5 248.833,119.5 248.5,119.5C 246.704,120.793 245.037,122.293 243.5,124C 242.207,124.49 240.873,124.657 239.5,124.5C 239.5,124.167 239.5,123.833 239.5,123.5C 240.492,123.672 241.158,123.338 241.5,122.5C 245.379,120.794 247.879,117.794 249,113.5C 249.383,114.056 249.883,114.389 250.5,114.5 Z"/></g>
<g><path style="opacity:1" fill="#e7b601" d="M 290.5,116.5 C 292.199,121.062 290.533,123.062 285.5,122.5C 285.929,119.637 286.929,116.971 288.5,114.5C 289.182,115.243 289.849,115.909 290.5,116.5 Z"/></g>
<g><path style="opacity:1" fill="#af2220" d="M 241.5,122.5 C 240.127,122.657 238.793,122.49 237.5,122C 238.71,120.961 239.71,119.794 240.5,118.5C 242.044,118.297 243.378,117.63 244.5,116.5C 244.833,116.833 245.167,117.167 245.5,117.5C 244.143,119.186 242.81,120.852 241.5,122.5 Z"/></g>
<g><path style="opacity:1" fill="#9c211d" d="M 255.5,116.5 C 256.791,116.263 257.791,116.596 258.5,117.5C 258.5,117.833 258.5,118.167 258.5,118.5C 262.441,122.52 261.441,123.52 255.5,121.5C 254.5,121.167 253.833,120.5 253.5,119.5C 253.586,118.504 253.252,117.671 252.5,117C 253.448,116.517 254.448,116.351 255.5,116.5 Z"/></g>
<g><path style="opacity:1" fill="#54450d" d="M 235.5,123.5 C 234.486,124.674 233.153,125.34 231.5,125.5C 229.075,123.881 227.075,124.214 225.5,126.5C 224.849,127.091 224.182,127.757 223.5,128.5C 222.537,128.03 222.537,127.363 223.5,126.5C 224.114,124.277 225.448,122.611 227.5,121.5C 229.943,123.055 232.61,123.722 235.5,123.5 Z"/></g>
<g><path style="opacity:1" fill="#9e1d1d" d="M 219.5,127.5 C 216.098,127.658 212.764,127.324 209.5,126.5C 209.5,125.5 209.5,124.5 209.5,123.5C 212.099,123.549 214.266,124.549 216,126.5C 217.579,125.2 218.745,125.534 219.5,127.5 Z"/></g>
<g><path style="opacity:1" fill="#e9c21d" d="M 272.5,123.5 C 273.028,124.721 273.695,125.887 274.5,127C 273.552,127.483 272.552,127.649 271.5,127.5C 270.167,126.833 268.833,126.167 267.5,125.5C 269.371,125.141 270.871,124.141 272,122.5C 272.399,122.728 272.565,123.062 272.5,123.5 Z"/></g>
<g><path style="opacity:1" fill="#90201a" d="M 290.5,124.5 C 289.564,125.974 288.23,126.974 286.5,127.5C 284.5,127.5 282.5,127.5 280.5,127.5C 280.414,126.504 280.748,125.671 281.5,125C 284.595,123.466 287.595,123.299 290.5,124.5 Z"/></g>
<g><path style="opacity:1" fill="#f0c91e" d="M 231.5,125.5 C 230.003,126.306 228.336,126.972 226.5,127.5C 225.893,127.376 225.56,127.043 225.5,126.5C 227.075,124.214 229.075,123.881 231.5,125.5 Z"/></g>
<g><path style="opacity:1" fill="#5b4a0d" d="M 248.5,119.5 C 247.797,121.716 246.464,123.549 244.5,125C 247.833,125.667 251.167,125.667 254.5,125C 251.921,123.924 250.254,122.091 249.5,119.5C 251.481,121.144 253.481,122.81 255.5,124.5C 255.833,125.167 256.167,125.833 256.5,126.5C 249.159,126.666 241.826,126.5 234.5,126C 236.382,125.802 238.048,125.302 239.5,124.5C 240.873,124.657 242.207,124.49 243.5,124C 245.037,122.293 246.704,120.793 248.5,119.5 Z"/></g>
<g><path style="opacity:1" fill="#efc61e" d="M 248.5,119.5 C 248.833,119.5 249.167,119.5 249.5,119.5C 250.254,122.091 251.921,123.924 254.5,125C 251.167,125.667 247.833,125.667 244.5,125C 246.464,123.549 247.797,121.716 248.5,119.5 Z"/></g>
<g><path style="opacity:1" fill="#dab91b" d="M 291.5,126.5 C 290.193,127.153 288.86,127.82 287.5,128.5C 286.893,128.376 286.56,128.043 286.5,127.5C 288.23,126.974 289.564,125.974 290.5,124.5C 296.649,121.748 296.982,122.415 291.5,126.5 Z"/></g>
<g><path style="opacity:1" fill="#5c470e" d="M 209.5,126.5 C 212.764,127.324 216.098,127.658 219.5,127.5C 219.918,128.222 220.584,128.722 221.5,129C 217.425,130.083 213.425,131.416 209.5,133C 208.244,133.417 207.577,134.25 207.5,135.5C 206.539,133.735 206.205,131.735 206.5,129.5C 207.866,131.351 209.533,131.684 211.5,130.5C 210.15,129.05 208.484,128.383 206.5,128.5C 206.489,126.983 205.823,125.816 204.5,125C 206.189,125.134 207.856,125.634 209.5,126.5 Z"/></g>
<g><path style="opacity:1" fill="#c90201" d="M 199.5,116.5 C 200.321,119.641 200.821,122.975 201,126.5C 202.583,127.971 204.417,128.971 206.5,129.5C 206.205,131.735 206.539,133.735 207.5,135.5C 207.898,137.711 208.064,140.044 208,142.5C 209.417,143.078 210.25,144.078 210.5,145.5C 210.5,145.833 210.5,146.167 210.5,146.5C 210.565,149.428 211.232,152.095 212.5,154.5C 213.93,155.537 215.597,156.204 217.5,156.5C 221.042,157.675 224.709,158.341 228.5,158.5C 229.718,159.161 231.051,159.828 232.5,160.5C 227.228,170.711 222.228,181.044 217.5,191.5C 211.52,192.413 205.52,192.413 199.5,191.5C 199.5,166.5 199.5,141.5 199.5,116.5 Z"/></g>
<g><path style="opacity:1" fill="#a2840d" d="M 235.5,123.5 C 236.833,123.5 238.167,123.5 239.5,123.5C 239.5,123.833 239.5,124.167 239.5,124.5C 238.048,125.302 236.382,125.802 234.5,126C 241.826,126.5 249.159,126.666 256.5,126.5C 260.269,126.756 263.936,126.423 267.5,125.5C 268.833,126.167 270.167,126.833 271.5,127.5C 278.257,128.861 284.924,130.861 291.5,133.5C 291.833,133.5 292.167,133.5 292.5,133.5C 292.218,134.778 291.551,135.778 290.5,136.5C 290.167,136.5 289.833,136.5 289.5,136.5C 287.615,134.689 285.281,133.522 282.5,133C 257.903,126.519 233.569,127.353 209.5,135.5C 208.833,135.5 208.167,135.5 207.5,135.5C 207.577,134.25 208.244,133.417 209.5,133C 213.425,131.416 217.425,130.083 221.5,129C 220.584,128.722 219.918,128.222 219.5,127.5C 220.833,127.167 222.167,126.833 223.5,126.5C 222.537,127.363 222.537,128.03 223.5,128.5C 224.182,127.757 224.849,127.091 225.5,126.5C 225.56,127.043 225.893,127.376 226.5,127.5C 228.336,126.972 230.003,126.306 231.5,125.5C 233.153,125.34 234.486,124.674 235.5,123.5 Z"/></g>
<g><path style="opacity:1" fill="#6d5a0e" d="M 272.5,123.5 C 274.921,125.238 277.588,126.571 280.5,127.5C 282.5,127.5 284.5,127.5 286.5,127.5C 286.56,128.043 286.893,128.376 287.5,128.5C 288.86,127.82 290.193,127.153 291.5,126.5C 291.5,126.833 291.5,127.167 291.5,127.5C 290.4,128.558 289.066,129.392 287.5,130C 288.563,131.188 289.897,131.688 291.5,131.5C 291.5,132.167 291.5,132.833 291.5,133.5C 284.924,130.861 278.257,128.861 271.5,127.5C 272.552,127.649 273.552,127.483 274.5,127C 273.695,125.887 273.028,124.721 272.5,123.5 Z"/></g>
<g><path style="opacity:1" fill="#ca0101" d="M 299.5,125.5 C 299.5,147.5 299.5,169.5 299.5,191.5C 293.472,192.306 287.472,192.306 281.5,191.5C 276.208,180.587 271.208,169.587 266.5,158.5C 270.545,157.714 274.545,156.714 278.5,155.5C 280.698,155.125 282.698,154.458 284.5,153.5C 285.583,153.461 286.583,153.127 287.5,152.5C 288.466,150.604 288.799,148.604 288.5,146.5C 289.733,145.024 290.733,143.357 291.5,141.5C 290.954,139.865 290.62,138.199 290.5,136.5C 291.551,135.778 292.218,134.778 292.5,133.5C 293.038,131.883 293.371,130.216 293.5,128.5C 295.947,128.385 297.947,127.385 299.5,125.5 Z"/></g>
<g><path style="opacity:1" fill="#e5bf1d" d="M 206.5,129.5 C 206.5,129.167 206.5,128.833 206.5,128.5C 208.484,128.383 210.15,129.05 211.5,130.5C 209.533,131.684 207.866,131.351 206.5,129.5 Z"/></g>
<g><path style="opacity:1" fill="#f0c81e" d="M 291.5,127.5 C 292.686,128.705 292.686,130.039 291.5,131.5C 289.897,131.688 288.563,131.188 287.5,130C 289.066,129.392 290.4,128.558 291.5,127.5 Z"/></g>
<g><path style="opacity:1" fill="#eec115" d="M 289.5,136.5 C 288.328,137.705 286.995,137.705 285.5,136.5C 284.119,137 283.453,138 283.5,139.5C 284.942,141.847 286.276,144.18 287.5,146.5C 283.167,145.833 278.833,145.167 274.5,144.5C 271.997,143.629 269.33,142.963 266.5,142.5C 263.14,142.384 259.807,142.051 256.5,141.5C 255.432,140.566 254.099,140.232 252.5,140.5C 246.409,140.211 240.409,140.545 234.5,141.5C 227.03,142.244 219.697,143.577 212.5,145.5C 212.685,143.804 213.519,142.471 215,141.5C 215.756,139.191 215.256,137.191 213.5,135.5C 212.005,136.705 210.672,136.705 209.5,135.5C 233.569,127.353 257.903,126.519 282.5,133C 285.281,133.522 287.615,134.689 289.5,136.5 Z"/></g>
<g><path style="opacity:1" fill="#28583c" d="M 225.5,132.5 C 228.187,132.336 230.854,132.503 233.5,133C 234.89,135.994 233.89,137.994 230.5,139C 223.561,140.574 221.894,138.407 225.5,132.5 Z"/></g>
<g><path style="opacity:1" fill="#0b0a14" d="M 243.5,130.5 C 247.167,130.5 250.833,130.5 254.5,130.5C 254.5,132.5 254.5,134.5 254.5,136.5C 250.833,136.5 247.167,136.5 243.5,136.5C 243.5,134.5 243.5,132.5 243.5,130.5 Z"/></g>
<g><path style="opacity:1" fill="#1f2c83" d="M 244.5,131.5 C 247.5,131.5 250.5,131.5 253.5,131.5C 253.5,132.833 253.5,134.167 253.5,135.5C 250.5,135.5 247.5,135.5 244.5,135.5C 244.5,134.167 244.5,132.833 244.5,131.5 Z"/></g>
<g><path style="opacity:1" fill="#7b2710" d="M 207.5,135.5 C 208.167,135.5 208.833,135.5 209.5,135.5C 210.672,136.705 212.005,136.705 213.5,135.5C 215.256,137.191 215.756,139.191 215,141.5C 213.519,142.471 212.685,143.804 212.5,145.5C 211.833,145.5 211.167,145.5 210.5,145.5C 210.25,144.078 209.417,143.078 208,142.5C 208.064,140.044 207.898,137.711 207.5,135.5 Z"/></g>
<g><path style="opacity:1" fill="#2c3f24" d="M 265.5,131.5 C 268.32,131.248 270.986,131.748 273.5,133C 275.211,134.133 275.711,135.633 275,137.5C 272.263,138.61 269.429,138.777 266.5,138C 264.316,136.102 263.983,133.936 265.5,131.5 Z"/></g>
<g><path style="opacity:1" fill="#186a4a" d="M 266.5,132.5 C 268.124,132.36 269.29,133.027 270,134.5C 272.658,133.306 273.824,134.306 273.5,137.5C 270.092,138.172 267.425,137.172 265.5,134.5C 265.863,133.817 266.196,133.15 266.5,132.5 Z"/></g>
<g><path style="opacity:1" fill="#892211" d="M 289.5,136.5 C 289.833,136.5 290.167,136.5 290.5,136.5C 290.62,138.199 290.954,139.865 291.5,141.5C 290.733,143.357 289.733,145.024 288.5,146.5C 288.167,146.5 287.833,146.5 287.5,146.5C 286.276,144.18 284.942,141.847 283.5,139.5C 283.453,138 284.119,137 285.5,136.5C 286.995,137.705 288.328,137.705 289.5,136.5 Z"/></g>
<g><path style="opacity:1" fill="#e0dfd9" d="M 252.5,140.5 C 252.5,141.5 252.5,142.5 252.5,143.5C 251.448,143.351 250.448,143.517 249.5,144C 251.027,145.632 252.693,145.799 254.5,144.5C 254.942,143.261 255.609,142.261 256.5,141.5C 259.807,142.051 263.14,142.384 266.5,142.5C 267.895,143.648 267.728,144.648 266,145.5C 264.612,144.446 263.112,144.28 261.5,145C 262.5,145.333 263.5,145.667 264.5,146C 267.75,145.43 271.084,144.93 274.5,144.5C 278.833,145.167 283.167,145.833 287.5,146.5C 287.833,146.5 288.167,146.5 288.5,146.5C 288.799,148.604 288.466,150.604 287.5,152.5C 286.583,153.127 285.583,153.461 284.5,153.5C 277.202,152.24 269.869,151.24 262.5,150.5C 261.833,150.5 261.167,150.5 260.5,150.5C 253.167,149.167 245.833,149.167 238.5,150.5C 237.833,150.5 237.167,150.5 236.5,150.5C 228.387,151.195 220.387,152.529 212.5,154.5C 211.232,152.095 210.565,149.428 210.5,146.5C 213.81,146.339 216.81,146.339 219.5,146.5C 218.282,147.161 216.949,147.828 215.5,148.5C 217.396,149.466 219.396,149.799 221.5,149.5C 221.433,148.041 221.766,146.708 222.5,145.5C 226.5,144.167 230.5,142.833 234.5,141.5C 240.409,140.545 246.409,140.211 252.5,140.5 Z"/></g>
<g><path style="opacity:1" fill="#a8a396" d="M 234.5,141.5 C 230.5,142.833 226.5,144.167 222.5,145.5C 221.391,145.557 220.391,145.89 219.5,146.5C 216.81,146.339 213.81,146.339 210.5,146.5C 210.5,146.167 210.5,145.833 210.5,145.5C 211.167,145.5 211.833,145.5 212.5,145.5C 219.697,143.577 227.03,142.244 234.5,141.5 Z"/></g>
<g><path style="opacity:1" fill="#696865" d="M 252.5,140.5 C 254.099,140.232 255.432,140.566 256.5,141.5C 255.609,142.261 254.942,143.261 254.5,144.5C 252.693,145.799 251.027,145.632 249.5,144C 250.448,143.517 251.448,143.351 252.5,143.5C 252.5,142.5 252.5,141.5 252.5,140.5 Z"/></g>
<g><path style="opacity:1" fill="#444443" d="M 237.5,142.5 C 239.942,142.119 240.609,142.786 239.5,144.5C 238.277,145.614 236.944,145.781 235.5,145C 236.756,144.583 237.423,143.75 237.5,142.5 Z"/></g>
<g><path style="opacity:1" fill="#41403d" d="M 266.5,142.5 C 269.33,142.963 271.997,143.629 274.5,144.5C 271.084,144.93 267.75,145.43 264.5,146C 263.5,145.667 262.5,145.333 261.5,145C 263.112,144.28 264.612,144.446 266,145.5C 267.728,144.648 267.895,143.648 266.5,142.5 Z"/></g>
<g><path style="opacity:1" fill="#444442" d="M 222.5,145.5 C 221.766,146.708 221.433,148.041 221.5,149.5C 219.396,149.799 217.396,149.466 215.5,148.5C 216.949,147.828 218.282,147.161 219.5,146.5C 220.391,145.89 221.391,145.557 222.5,145.5 Z"/></g>
<g><path style="opacity:1" fill="#848380" d="M 260.5,150.5 C 260.5,150.833 260.5,151.167 260.5,151.5C 253.217,150.278 245.884,150.278 238.5,151.5C 238.5,151.167 238.5,150.833 238.5,150.5C 245.833,149.167 253.167,149.167 260.5,150.5 Z"/></g>
<g><path style="opacity:1" fill="#8f8d8a" d="M 262.5,151.5 C 262.5,151.167 262.5,150.833 262.5,150.5C 269.869,151.24 277.202,152.24 284.5,153.5C 282.698,154.458 280.698,155.125 278.5,155.5C 278.389,154.883 278.056,154.383 277.5,154C 272.526,152.949 267.526,152.115 262.5,151.5 Z"/></g>
<g><path style="opacity:1" fill="#8b8a87" d="M 236.5,150.5 C 236.5,150.833 236.5,151.167 236.5,151.5C 230.984,152.336 225.484,153.336 220,154.5C 218.624,154.684 217.791,155.351 217.5,156.5C 215.597,156.204 213.93,155.537 212.5,154.5C 220.387,152.529 228.387,151.195 236.5,150.5 Z"/></g>
<g><path style="opacity:1" fill="#deddd6" d="M 236.5,151.5 C 236.134,156.624 233.468,158.957 228.5,158.5C 224.709,158.341 221.042,157.675 217.5,156.5C 217.791,155.351 218.624,154.684 220,154.5C 225.484,153.336 230.984,152.336 236.5,151.5 Z"/></g>
<g><path style="opacity:1" fill="#e6e6df" d="M 262.5,151.5 C 267.526,152.115 272.526,152.949 277.5,154C 278.056,154.383 278.389,154.883 278.5,155.5C 274.545,156.714 270.545,157.714 266.5,158.5C 264.929,156.365 263.596,154.032 262.5,151.5 Z"/></g>
<g><path style="opacity:1" fill="#cb0100" d="M 3.5,199.5 C 52.1667,199.5 100.833,199.5 149.5,199.5C 161.319,215.794 172.652,232.46 183.5,249.5C 172.652,266.54 161.319,283.206 149.5,299.5C 100.833,299.5 52.1667,299.5 3.5,299.5C 2.24244,290.687 0.909111,282.02 -0.5,273.5C -0.5,257.5 -0.5,241.5 -0.5,225.5C 0.909111,216.98 2.24244,208.313 3.5,199.5 Z"/></g>
<g><path style="opacity:1" fill="#cb0100" d="M 349.5,199.5 C 398.167,199.5 446.833,199.5 495.5,199.5C 496.85,207.964 498.183,216.297 499.5,224.5C 499.5,241.5 499.5,258.5 499.5,275.5C 498.089,283.356 496.756,291.356 495.5,299.5C 446.833,299.5 398.167,299.5 349.5,299.5C 337.681,283.206 326.348,266.54 315.5,249.5C 326.466,232.543 337.799,215.876 349.5,199.5 Z"/></g>
<g><path style="opacity:1" fill="#221b1b" d="M 236.5,150.5 C 237.167,150.5 237.833,150.5 238.5,150.5C 238.5,150.833 238.5,151.167 238.5,151.5C 231.845,165.478 225.178,179.478 218.5,193.5C 216.667,193.833 214.833,194.167 213,194.5C 190.505,192.539 168.005,191.039 145.5,190C 159.29,209.746 172.957,229.58 186.5,249.5C 172.957,269.42 159.29,289.254 145.5,309C 167.658,307.809 189.825,306.309 212,304.5C 214.167,304.833 216.333,305.167 218.5,305.5C 228.577,326.654 238.911,347.654 249.5,368.5C 260.089,347.654 270.423,326.654 280.5,305.5C 282.667,305.167 284.833,304.833 287,304.5C 309.166,306.405 331.333,307.905 353.5,309C 339.544,289.551 326.211,269.718 313.5,249.5C 326.211,229.282 339.544,209.449 353.5,190C 330.821,190.962 308.154,192.462 285.5,194.5C 283.833,194.167 282.167,193.833 280.5,193.5C 273.803,179.443 267.137,165.443 260.5,151.5C 260.5,151.167 260.5,150.833 260.5,150.5C 261.167,150.5 261.833,150.5 262.5,150.5C 262.5,150.833 262.5,151.167 262.5,151.5C 263.596,154.032 264.929,156.365 266.5,158.5C 271.208,169.587 276.208,180.587 281.5,191.5C 287.472,192.306 293.472,192.306 299.5,191.5C 316.493,190.167 333.493,188.834 350.5,187.5C 352.5,187.833 354.5,188.167 356.5,188.5C 353.906,192.026 351.573,195.692 349.5,199.5C 337.799,215.876 326.466,232.543 315.5,249.5C 326.348,266.54 337.681,283.206 349.5,299.5C 351.573,303.308 353.906,306.974 356.5,310.5C 355,310.833 353.5,311.167 352,311.5C 334.505,310.039 317.005,308.705 299.5,307.5C 293.492,306.422 287.492,306.422 281.5,307.5C 270.829,329.509 260.162,351.509 249.5,373.5C 238.838,351.509 228.171,329.509 217.5,307.5C 211.508,306.422 205.508,306.422 199.5,307.5C 180.5,309 161.5,310.167 142.5,311C 145.086,307.264 147.419,303.43 149.5,299.5C 161.319,283.206 172.652,266.54 183.5,249.5C 172.652,232.46 161.319,215.794 149.5,199.5C 147.438,195.721 145.104,192.054 142.5,188.5C 144.333,188.167 146.167,187.833 148,187.5C 165.172,188.857 182.338,190.191 199.5,191.5C 205.52,192.413 211.52,192.413 217.5,191.5C 222.228,181.044 227.228,170.711 232.5,160.5C 231.051,159.828 229.718,159.161 228.5,158.5C 233.468,158.957 236.134,156.624 236.5,151.5C 236.5,151.167 236.5,150.833 236.5,150.5 Z"/></g>
<g><path style="opacity:1" fill="#fcfcfc" d="M 260.5,151.5 C 267.137,165.443 273.803,179.443 280.5,193.5C 282.167,193.833 283.833,194.167 285.5,194.5C 308.154,192.462 330.821,190.962 353.5,190C 339.544,209.449 326.211,229.282 313.5,249.5C 326.211,269.718 339.544,289.551 353.5,309C 331.333,307.905 309.166,306.405 287,304.5C 284.833,304.833 282.667,305.167 280.5,305.5C 270.423,326.654 260.089,347.654 249.5,368.5C 238.911,347.654 228.577,326.654 218.5,305.5C 216.333,305.167 214.167,304.833 212,304.5C 189.825,306.309 167.658,307.809 145.5,309C 159.29,289.254 172.957,269.42 186.5,249.5C 172.957,229.58 159.29,209.746 145.5,190C 168.005,191.039 190.505,192.539 213,194.5C 214.833,194.167 216.667,193.833 218.5,193.5C 225.178,179.478 231.845,165.478 238.5,151.5C 245.884,150.278 253.217,150.278 260.5,151.5 Z"/></g>
<g><path style="opacity:1" fill="#595b5b" d="M 235.5,194.5 C 235.83,201.2 235.497,207.866 234.5,214.5C 233.508,210.217 233.174,205.884 233.5,201.5C 234.167,199.167 234.833,196.833 235.5,194.5 Z"/></g>
<g><path style="opacity:1" fill="#a3a2a2" d="M 257.5,187.5 C 258.167,189.167 258.833,190.833 259.5,192.5C 258.728,196.75 258.228,201.083 258,205.5C 257.501,199.509 257.334,193.509 257.5,187.5 Z"/></g>
<g><path style="opacity:0.993" fill="#fefefe" d="M 3.5,299.5 C 52.1667,299.5 100.833,299.5 149.5,299.5C 147.419,303.43 145.086,307.264 142.5,311C 161.5,310.167 180.5,309 199.5,307.5C 199.5,370.167 199.5,432.833 199.5,495.5C 111.156,474.653 49.6565,422.319 15,338.5C 10.3821,325.688 6.54873,312.688 3.5,299.5 Z"/></g>
<g><path style="opacity:0.993" fill="#fefefe" d="M 349.5,299.5 C 398.167,299.5 446.833,299.5 495.5,299.5C 474.662,387.835 422.329,449.335 338.5,484C 325.729,488.759 312.729,492.592 299.5,495.5C 299.5,432.833 299.5,370.167 299.5,307.5C 317.005,308.705 334.505,310.039 352,311.5C 353.5,311.167 355,310.833 356.5,310.5C 353.906,306.974 351.573,303.308 349.5,299.5 Z"/></g>
<g><path style="opacity:1" fill="#271b1a" d="M 257.5,187.5 C 257.334,193.509 257.501,199.509 258,205.5C 258.228,201.083 258.728,196.75 259.5,192.5C 261.053,189.746 263.386,188.913 266.5,190C 268.235,192.192 269.402,194.692 270,197.5C 270.333,210.5 270.667,223.5 271,236.5C 271.186,238.9 271.686,241.234 272.5,243.5C 274.919,238.915 277.919,234.748 281.5,231C 285.358,228.46 288.024,229.293 289.5,233.5C 285.054,245.56 281.554,257.894 279,270.5C 277.174,275.165 274.174,278.832 270,281.5C 269.564,289.602 268.398,297.435 266.5,305C 256.152,305.266 245.818,305.766 235.5,306.5C 233.307,306.674 231.473,306.007 230,304.5C 229.667,296.833 229.333,289.167 229,281.5C 223.068,273.536 220.235,264.536 220.5,254.5C 223.36,236.932 225.193,219.265 226,201.5C 228.707,198.941 231.207,198.941 233.5,201.5C 233.174,205.884 233.508,210.217 234.5,214.5C 235.497,207.866 235.83,201.2 235.5,194.5C 235.924,188.197 238.757,186.531 244,189.5C 245.244,198.091 245.911,206.758 246,215.5C 246.333,205.5 246.667,195.5 247,185.5C 248.691,181.787 251.525,180.621 255.5,182C 256.861,183.584 257.528,185.418 257.5,187.5 Z"/></g>
<g><path style="opacity:1" fill="#c80000" d="M 250.5,182.5 C 252.981,182.323 254.814,183.323 256,185.5C 256.017,199.569 256.85,213.569 258.5,227.5C 259.281,226.271 259.781,224.938 260,223.5C 260.333,213.167 260.667,202.833 261,192.5C 264.763,189.539 267.096,190.539 268,195.5C 268.333,208.167 268.667,220.833 269,233.5C 270.106,237.122 270.439,240.789 270,244.5C 265.86,247.134 263.526,250.801 263,255.5C 264.608,251.957 266.942,248.957 270,246.5C 271,247.833 272,247.833 273,246.5C 275.545,241.239 278.712,236.406 282.5,232C 284.134,231.506 285.801,231.34 287.5,231.5C 283.621,245.478 279.788,259.478 276,273.5C 272.466,277.369 268.633,280.869 264.5,284C 260.5,284.333 256.5,284.667 252.5,285C 255.972,286.58 259.638,286.913 263.5,286C 265.329,285.727 266.829,284.893 268,283.5C 267.623,290.107 267.456,296.774 267.5,303.5C 255.523,303.47 243.523,303.637 231.5,304C 230.524,297.924 230.19,291.758 230.5,285.5C 234.703,285.924 238.703,285.424 242.5,284C 238.579,283.797 234.745,283.297 231,282.5C 223.412,271.661 220.746,259.661 223,246.5C 225.691,232.298 227.025,217.964 227,203.5C 227.928,200.965 229.762,199.965 232.5,200.5C 231.93,210.788 233.097,220.788 236,230.5C 236.333,217.833 236.667,205.167 237,192.5C 238.037,189.616 239.871,188.95 242.5,190.5C 242.929,203.249 244.262,215.916 246.5,228.5C 247.333,214.512 247.833,200.512 248,186.5C 248.662,185.016 249.496,183.683 250.5,182.5 Z"/></g>
<g><path style="opacity:1" fill="#2b130f" d="M 261.5,239.5 C 263.604,239.201 265.604,239.534 267.5,240.5C 257.147,242.344 247.147,245.344 237.5,249.5C 237.167,249.167 236.833,248.833 236.5,248.5C 244.697,244.881 253.03,241.881 261.5,239.5 Z"/></g>
<g><path style="opacity:1" fill="#cb0000" d="M 299.5,307.5 C 299.5,370.167 299.5,432.833 299.5,495.5C 291.018,496.748 282.685,498.081 274.5,499.5C 257.833,499.5 241.167,499.5 224.5,499.5C 216.315,498.081 207.982,496.748 199.5,495.5C 199.5,432.833 199.5,370.167 199.5,307.5C 205.508,306.422 211.508,306.422 217.5,307.5C 228.171,329.509 238.838,351.509 249.5,373.5C 260.162,351.509 270.829,329.509 281.5,307.5C 287.492,306.422 293.492,306.422 299.5,307.5 Z"/></g>
</svg>
