<?xml version="1.0" encoding="UTF-8"?>
<!DOCTYPE svg PUBLIC "-//W3C//DTD SVG 1.1//EN" "http://www.w3.org/Graphics/SVG/1.1/DTD/svg11.dtd">
<svg xmlns="http://www.w3.org/2000/svg" version="1.1" width="500px" height="500px" style="shape-rendering:geometricPrecision; text-rendering:geometricPrecision; image-rendering:optimizeQuality; fill-rule:evenodd; clip-rule:evenodd" xmlns:xlink="http://www.w3.org/1999/xlink">
<g><path style="opacity:0.995" fill="#fee500" d="M 225.5,-0.5 C 241.5,-0.5 257.5,-0.5 273.5,-0.5C 281.704,0.817038 290.037,2.15037 298.5,3.5C 286.016,56.4377 273.683,109.438 261.5,162.5C 253.5,161.167 245.5,161.167 237.5,162.5C 225.486,109.41 213.153,56.4099 200.5,3.5C 208.963,2.15037 217.296,0.817038 225.5,-0.5 Z"/></g>
<g><path style="opacity:0.994" fill="#d20200" d="M 200.5,3.5 C 213.153,56.4099 225.486,109.41 237.5,162.5C 245.5,161.167 253.5,161.167 261.5,162.5C 273.683,109.438 286.016,56.4377 298.5,3.5C 362.139,16.8726 413.139,49.5393 451.5,101.5C 406.989,132.503 362.322,163.336 317.5,194C 321.06,198.563 324.227,203.396 327,208.5C 328.049,209.517 329.216,209.684 330.5,209C 378.193,185.153 425.86,161.32 473.5,137.5C 487.68,164.719 496.013,193.719 498.5,224.5C 444.841,229.899 391.174,235.233 337.5,240.5C 337.5,246.5 337.5,252.5 337.5,258.5C 391.19,263.636 444.857,268.969 498.5,274.5C 496.01,305.291 487.676,334.291 473.5,361.5C 425.86,337.68 378.193,313.847 330.5,290C 329.216,289.316 328.049,289.483 327,290.5C 324.227,295.604 321.06,300.437 317.5,305C 362.322,335.664 406.989,366.497 451.5,397.5C 413.132,449.471 362.132,482.138 298.5,495.5C 286.485,442.772 274.152,390.105 261.5,337.5C 260.833,337.167 260.167,336.833 259.5,336.5C 252.66,337.815 245.826,337.815 239,336.5C 238.055,336.905 237.388,337.572 237,338.5C 224.828,390.883 212.662,443.216 200.5,495.5C 136.861,482.127 85.8607,449.461 47.5,397.5C 92.3118,366.923 136.978,336.09 181.5,305C 177.94,300.437 174.773,295.604 172,290.5C 170.951,289.483 169.784,289.316 168.5,290C 120.807,313.847 73.1401,337.68 25.5,361.5C 11.4342,334.251 3.10086,305.251 0.5,274.5C 54.1254,268.837 107.792,263.504 161.5,258.5C 161.36,252.464 161.693,246.464 162.5,240.5C 108.489,235.632 54.4892,230.632 0.5,225.5C 2.94065,194.391 11.274,165.058 25.5,137.5C 74.051,161.692 122.551,186.026 171,210.5C 173.876,204.577 177.376,199.077 181.5,194C 136.678,163.336 92.0111,132.503 47.5,101.5C 86.1604,49.9786 137.16,17.3119 200.5,3.5 Z"/></g>
<g><path style="opacity:0.995" fill="#fee500" d="M 47.5,101.5 C 92.0111,132.503 136.678,163.336 181.5,194C 177.376,199.077 173.876,204.577 171,210.5C 122.551,186.026 74.051,161.692 25.5,137.5C 31.6505,124.704 38.9839,112.704 47.5,101.5 Z"/></g>
<g><path style="opacity:0.995" fill="#fee500" d="M 451.5,101.5 C 460.016,112.704 467.349,124.704 473.5,137.5C 425.86,161.32 378.193,185.153 330.5,209C 329.216,209.684 328.049,209.517 327,208.5C 324.227,203.396 321.06,198.563 317.5,194C 362.322,163.336 406.989,132.503 451.5,101.5 Z"/></g>
<g><path style="opacity:1" fill="#fee500" d="M 238.5,176.5 C 272.469,174.033 297.969,187.367 315,216.5C 329.029,250.02 323.196,279.52 297.5,305C 271.746,324.809 244.079,327.809 214.5,314C 183.317,294.117 171.484,265.95 179,229.5C 188.947,200.628 208.78,182.961 238.5,176.5 Z"/></g>
<g><path style="opacity:0.996" fill="#fee500" d="M -0.5,225.5 C -0.166667,225.5 0.166667,225.5 0.5,225.5C 54.4892,230.632 108.489,235.632 162.5,240.5C 161.693,246.464 161.36,252.464 161.5,258.5C 107.792,263.504 54.1254,268.837 0.5,274.5C 0.5,273.833 0.166667,273.5 -0.5,273.5C -0.5,257.5 -0.5,241.5 -0.5,225.5 Z"/></g>
<g><path style="opacity:0.997" fill="#fee500" d="M 498.5,224.5 C 498.833,224.5 499.167,224.5 499.5,224.5C 499.5,241.167 499.5,257.833 499.5,274.5C 499.167,274.5 498.833,274.5 498.5,274.5C 444.857,268.969 391.19,263.636 337.5,258.5C 337.5,252.5 337.5,246.5 337.5,240.5C 391.174,235.233 444.841,229.899 498.5,224.5 Z"/></g>
<g><path style="opacity:0.994" fill="#fee500" d="M 47.5,397.5 C 38.9839,386.296 31.6505,374.296 25.5,361.5C 73.1401,337.68 120.807,313.847 168.5,290C 169.784,289.316 170.951,289.483 172,290.5C 174.773,295.604 177.94,300.437 181.5,305C 136.978,336.09 92.3118,366.923 47.5,397.5 Z"/></g>
<g><path style="opacity:0.995" fill="#fee500" d="M 473.5,361.5 C 467.669,374.509 460.336,386.509 451.5,397.5C 406.989,366.497 362.322,335.664 317.5,305C 321.06,300.437 324.227,295.604 327,290.5C 328.049,289.483 329.216,289.316 330.5,290C 378.193,313.847 425.86,337.68 473.5,361.5 Z"/></g>
<g><path style="opacity:0.995" fill="#fee500" d="M 298.5,495.5 C 290.371,496.855 282.371,498.188 274.5,499.5C 257.833,499.5 241.167,499.5 224.5,499.5C 216.629,498.188 208.629,496.855 200.5,495.5C 212.662,443.216 224.828,390.883 237,338.5C 237.388,337.572 238.055,336.905 239,336.5C 245.826,337.815 252.66,337.815 259.5,336.5C 260.167,336.833 260.833,337.167 261.5,337.5C 274.152,390.105 286.485,442.772 298.5,495.5 Z"/></g>
</svg>
