<?xml version="1.0" encoding="UTF-8"?>
<!DOCTYPE svg PUBLIC "-//W3C//DTD SVG 1.1//EN" "http://www.w3.org/Graphics/SVG/1.1/DTD/svg11.dtd">
<svg xmlns="http://www.w3.org/2000/svg" version="1.1" width="500px" height="500px" style="shape-rendering:geometricPrecision; text-rendering:geometricPrecision; image-rendering:optimizeQuality; fill-rule:evenodd; clip-rule:evenodd" xmlns:xlink="http://www.w3.org/1999/xlink">
<g><path style="opacity:0.994" fill="#ee2a2c" d="M 225.5,-0.5 C 241.5,-0.5 257.5,-0.5 273.5,-0.5C 369.813,12.3931 438.646,62.7264 480,150.5C 484.672,162.352 488.839,174.352 492.5,186.5C 401.167,186.5 309.833,186.5 218.5,186.5C 218.5,124.5 218.5,62.5 218.5,0.5C 221.059,0.801552 223.393,0.468218 225.5,-0.5 Z"/></g>
<g><path style="opacity:0.997" fill="#fffcfc" d="M 218.5,0.5 C 218.5,62.5 218.5,124.5 218.5,186.5C 309.833,186.5 401.167,186.5 492.5,186.5C 494.758,196.789 496.758,207.122 498.5,217.5C 394.833,217.5 291.167,217.5 187.5,217.5C 187.5,147.167 187.5,76.8333 187.5,6.5C 197.735,3.98624 208.069,1.98624 218.5,0.5 Z"/></g>
<g><path style="opacity:0.998" fill="#002767" d="M 186.5,6.5 C 186.5,77.1667 186.5,147.833 186.5,218.5C 290.5,218.5 394.5,218.5 498.5,218.5C 498.205,220.735 498.539,222.735 499.5,224.5C 499.5,241.167 499.5,257.833 499.5,274.5C 498.539,276.265 498.205,278.265 498.5,280.5C 394.5,280.5 290.5,280.5 186.5,280.5C 186.5,351.167 186.5,421.833 186.5,492.5C 164.599,486.543 143.933,477.876 124.5,466.5C 124.5,404.5 124.5,342.5 124.5,280.5C 83.1667,280.5 41.8333,280.5 0.5,280.5C 0.801552,277.941 0.468218,275.607 -0.5,273.5C -0.5,257.5 -0.5,241.5 -0.5,225.5C 0.468218,223.393 0.801552,221.059 0.5,218.5C 41.8333,218.5 83.1667,218.5 124.5,218.5C 124.5,156.5 124.5,94.5 124.5,32.5C 143.933,21.1235 164.599,12.4569 186.5,6.5 Z"/></g>
<g><path style="opacity:0.994" fill="#fdfcfd" d="M 124.5,32.5 C 124.5,94.5 124.5,156.5 124.5,218.5C 83.1667,218.5 41.8333,218.5 0.5,218.5C 2.11309,207.767 4.11309,197.101 6.5,186.5C 35.5,186.5 64.5,186.5 93.5,186.5C 93.5,142.167 93.5,97.8333 93.5,53.5C 102.99,45.3592 113.323,38.3592 124.5,32.5 Z"/></g>
<g><path style="opacity:0.985" fill="#ef2b2d" d="M 93.5,53.5 C 93.5,97.8333 93.5,142.167 93.5,186.5C 64.5,186.5 35.5,186.5 6.5,186.5C 21.2389,132.65 50.2389,88.3169 93.5,53.5 Z"/></g>
<g><path style="opacity:0.997" fill="#b3bfd2" d="M 186.5,6.5 C 186.833,6.5 187.167,6.5 187.5,6.5C 187.5,76.8333 187.5,147.167 187.5,217.5C 291.167,217.5 394.833,217.5 498.5,217.5C 498.5,217.833 498.5,218.167 498.5,218.5C 394.5,218.5 290.5,218.5 186.5,218.5C 186.5,147.833 186.5,77.1667 186.5,6.5 Z"/></g>
<g><path style="opacity:0.994" fill="#fdfdfd" d="M 0.5,280.5 C 41.8333,280.5 83.1667,280.5 124.5,280.5C 124.5,342.5 124.5,404.5 124.5,466.5C 113.323,460.641 102.99,453.641 93.5,445.5C 93.5,400.833 93.5,356.167 93.5,311.5C 64.5,311.5 35.5,311.5 6.5,311.5C 3.98624,301.265 1.98624,290.931 0.5,280.5 Z"/></g>
<g><path style="opacity:0.997" fill="#fffcfc" d="M 498.5,281.5 C 496.758,291.876 494.758,302.209 492.5,312.5C 401.167,312.5 309.833,312.5 218.5,312.5C 218.5,374.5 218.5,436.5 218.5,498.5C 208.061,497.012 197.727,495.012 187.5,492.5C 187.5,422.167 187.5,351.833 187.5,281.5C 291.167,281.5 394.833,281.5 498.5,281.5 Z"/></g>
<g><path style="opacity:0.996" fill="#8b9dba" d="M 498.5,280.5 C 498.5,280.833 498.5,281.167 498.5,281.5C 394.833,281.5 291.167,281.5 187.5,281.5C 187.5,351.833 187.5,422.167 187.5,492.5C 187.167,492.5 186.833,492.5 186.5,492.5C 186.5,421.833 186.5,351.167 186.5,280.5C 290.5,280.5 394.5,280.5 498.5,280.5 Z"/></g>
<g><path style="opacity:0.985" fill="#ee2a2c" d="M 6.5,312.5 C 35.1667,312.5 63.8333,312.5 92.5,312.5C 92.5,356.5 92.5,400.5 92.5,444.5C 49.8129,409.833 21.1462,365.833 6.5,312.5 Z"/></g>
<g><path style="opacity:0.993" fill="#f46a69" d="M 6.5,312.5 C 6.5,312.167 6.5,311.833 6.5,311.5C 35.5,311.5 64.5,311.5 93.5,311.5C 93.5,356.167 93.5,400.833 93.5,445.5C 92.8333,445.5 92.5,445.167 92.5,444.5C 92.5,400.5 92.5,356.5 92.5,312.5C 63.8333,312.5 35.1667,312.5 6.5,312.5 Z"/></g>
<g><path style="opacity:0.994" fill="#ee2a2c" d="M 492.5,312.5 C 465.662,402.838 407.329,462.338 317.5,491C 303.192,494.695 288.859,497.529 274.5,499.5C 257.833,499.5 241.167,499.5 224.5,499.5C 222.735,498.539 220.735,498.205 218.5,498.5C 218.5,436.5 218.5,374.5 218.5,312.5C 309.833,312.5 401.167,312.5 492.5,312.5 Z"/></g>
</svg>
