<?xml version="1.0" encoding="UTF-8"?>
<!DOCTYPE svg PUBLIC "-//W3C//DTD SVG 1.1//EN" "http://www.w3.org/Graphics/SVG/1.1/DTD/svg11.dtd">
<svg xmlns="http://www.w3.org/2000/svg" version="1.1" width="500px" height="500px" style="shape-rendering:geometricPrecision; text-rendering:geometricPrecision; image-rendering:optimizeQuality; fill-rule:evenodd; clip-rule:evenodd" xmlns:xlink="http://www.w3.org/1999/xlink">
<g><path style="opacity:0.996" fill="#db161b" d="M 225.5,-0.5 C 233.5,-0.5 241.5,-0.5 249.5,-0.5C 249.5,55.1667 249.5,110.833 249.5,166.5C 328.167,166.5 406.833,166.5 485.5,166.5C 492.586,185.267 497.253,204.6 499.5,224.5C 499.5,241.167 499.5,257.833 499.5,274.5C 498.1,284.764 496.267,295.098 494,305.5C 492.031,314.9 489.198,323.9 485.5,332.5C 406.833,332.5 328.167,332.5 249.5,332.5C 249.5,388.167 249.5,443.833 249.5,499.5C 241.167,499.5 232.833,499.5 224.5,499.5C 132.596,487.072 65.4294,439.739 23,357.5C 10.7506,330.604 2.91724,302.604 -0.5,273.5C -0.5,257.5 -0.5,241.5 -0.5,225.5C 5.21366,176.332 23.2137,132.332 53.5,93.5C 54.2052,96.2281 54.8719,99.0614 55.5,102C 65.5,102.667 75.5,102.667 85.5,102C 86.8009,100.384 86.8009,98.8845 85.5,97.5C 85.5,97.1667 85.5,96.8333 85.5,96.5C 87.5,96.5 89.5,96.5 91.5,96.5C 92.6068,98.9311 94.6068,99.9311 97.5,99.5C 100.514,99.7415 103.014,98.7415 105,96.5C 107.205,97.4118 109.038,98.7451 110.5,100.5C 112.382,101.237 113.048,102.404 112.5,104C 112.026,105.729 111.026,106.895 109.5,107.5C 108.209,107.263 107.209,107.596 106.5,108.5C 98.8926,108.493 91.2259,108.493 83.5,108.5C 80.9655,110.731 78.2988,110.731 75.5,108.5C 74.8933,108.624 74.56,108.957 74.5,109.5C 72.8762,109.36 71.7096,110.027 71,111.5C 68.2043,110.321 65.3709,110.321 62.5,111.5C 57.3421,113.59 57.3421,115.924 62.5,118.5C 65.7536,120.029 69.087,121.362 72.5,122.5C 81.486,124.498 90.486,126.498 99.5,128.5C 91.1412,135.862 82.8079,143.196 74.5,150.5C 73.5272,151.791 72.5272,151.791 71.5,150.5C 65.7371,155.596 60.4038,160.929 55.5,166.5C 54.8333,166.833 54.1667,167.167 53.5,167.5C 52.3536,169.559 53.1869,170.559 56,170.5C 61.5153,169.645 66.3487,167.645 70.5,164.5C 75.6654,162.662 79.9987,159.662 83.5,155.5C 84.2719,154.306 85.2719,153.306 86.5,152.5C 87.5,152.167 88.1667,151.5 88.5,150.5C 96.4921,143.841 104.159,136.841 111.5,129.5C 116.019,128.637 120.685,127.803 125.5,127C 127.043,125.122 128.876,123.622 131,122.5C 131.399,122.728 131.565,123.062 131.5,123.5C 135.63,128.131 139.963,132.631 144.5,137C 150.749,143.09 157.416,148.59 164.5,153.5C 164.859,155.371 165.859,156.871 167.5,158C 170.892,160.694 174.559,162.86 178.5,164.5C 183.278,166.759 188.278,168.426 193.5,169.5C 194.5,169.333 195.5,169.167 196.5,169C 195.29,167.961 194.29,166.794 193.5,165.5C 189.193,161.528 184.859,157.528 180.5,153.5C 180.047,152.542 179.381,151.708 178.5,151C 177.041,151.355 175.707,151.189 174.5,150.5C 161.859,138.862 149.193,127.195 136.5,115.5C 135.174,113.18 135.174,110.513 136.5,107.5C 136.11,104.025 136.11,101.025 136.5,98.5C 137.251,99.376 137.751,100.376 138,101.5C 139.309,99.0243 141.142,97.0243 143.5,95.5C 145.855,100.105 149.522,101.605 154.5,100C 156.119,99.7645 157.119,98.9311 157.5,97.5C 159.167,97.5 160.833,97.5 162.5,97.5C 162.286,99.1439 162.62,100.644 163.5,102C 173.675,102.825 183.675,102.658 193.5,101.5C 194.488,96.3595 194.821,91.0262 194.5,85.5C 183.986,85.1724 173.653,85.5058 163.5,86.5C 162.566,87.5676 162.232,88.901 162.5,90.5C 161.167,90.5 159.833,90.5 158.5,90.5C 158.631,89.6236 158.298,88.9569 157.5,88.5C 155.49,87.4981 153.49,86.4981 151.5,85.5C 159.89,71.3859 167.224,56.7192 173.5,41.5C 173.457,40.5836 173.124,39.9169 172.5,39.5C 175.338,37.6941 175.005,36.6941 171.5,36.5C 171.5,35.5 171.5,34.5 171.5,33.5C 164.291,41.5618 157.791,50.2285 152,59.5C 148,66.1667 144,72.8333 140,79.5C 139.53,80.5768 139.697,81.5768 140.5,82.5C 140.046,84.2589 140.046,86.2589 140.5,88.5C 138.181,87.833 135.847,87.6664 133.5,88C 132.748,88.6708 132.414,89.5041 132.5,90.5C 128.202,91.1995 123.869,91.5328 119.5,91.5C 118.833,90.5 118.167,89.5 117.5,88.5C 117.038,87.1201 116.038,86.4534 114.5,86.5C 112.896,86.9391 111.396,87.6057 110,88.5C 109.235,88.4301 108.735,88.0967 108.5,87.5C 109.494,85.6656 109.494,83.9989 108.5,82.5C 109.686,80.8058 109.519,79.1392 108,77.5C 102.893,69.6106 98.0595,61.6106 93.5,53.5C 100.606,47.4399 108.272,42.1066 116.5,37.5C 116.856,39.1898 117.856,40.1898 119.5,40.5C 123.43,42.0478 127.097,41.7145 130.5,39.5C 131.995,39.5852 132.995,38.9185 133.5,37.5C 132.233,35.6293 132.233,33.7959 133.5,32C 132.922,30.583 131.922,29.7496 130.5,29.5C 160.125,13.0695 191.792,3.06948 225.5,-0.5 Z"/></g>
<g><path style="opacity:0.993" fill="#fefefe" d="M 249.5,-0.5 C 257.5,-0.5 265.5,-0.5 273.5,-0.5C 362.269,10.9489 428.436,55.6156 472,133.5C 477.625,144.077 482.125,155.077 485.5,166.5C 406.833,166.5 328.167,166.5 249.5,166.5C 249.5,110.833 249.5,55.1667 249.5,-0.5 Z"/></g>
<g><path style="opacity:1" fill="#f3a8a9" d="M 171.5,33.5 C 172.763,31.5696 174.43,29.9029 176.5,28.5C 177.645,29.7757 177.645,31.109 176.5,32.5C 174.872,32.5786 173.205,32.9119 171.5,33.5 Z"/></g>
<g><path style="opacity:0.922" fill="#dc2423" d="M 126.5,31.5 C 127.942,32.8195 128.608,34.4862 128.5,36.5C 126.167,37.8333 123.833,37.8333 121.5,36.5C 121.5,35.8333 121.5,35.1667 121.5,34.5C 121.842,33.6618 122.508,33.3284 123.5,33.5C 123.973,32.0937 124.973,31.427 126.5,31.5 Z"/></g>
<g><path style="opacity:1" fill="#fbdada" d="M 123.5,33.5 C 124.5,33.5 125.5,33.5 126.5,33.5C 126.5,34.5 126.5,35.5 126.5,36.5C 125.5,36.5 124.5,36.5 123.5,36.5C 123.5,35.5 123.5,34.5 123.5,33.5 Z"/></g>
<g><path style="opacity:1" fill="#f6bcbc" d="M 130.5,29.5 C 131.922,29.7496 132.922,30.583 133.5,32C 132.233,33.7959 132.233,35.6293 133.5,37.5C 132.995,38.9185 131.995,39.5852 130.5,39.5C 129.599,38.7095 128.932,37.7095 128.5,36.5C 128.608,34.4862 127.942,32.8195 126.5,31.5C 127.514,30.3263 128.847,29.6596 130.5,29.5 Z"/></g>
<g><path style="opacity:1" fill="#fbe1e1" d="M 134.5,33.5 C 136.465,33.9483 136.798,34.9483 135.5,36.5C 133.481,35.8671 133.147,34.8671 134.5,33.5 Z"/></g>
<g><path style="opacity:1" fill="#f4a9aa" d="M 121.5,34.5 C 121.5,35.1667 121.5,35.8333 121.5,36.5C 121.267,38.0618 120.6,39.3951 119.5,40.5C 117.856,40.1898 116.856,39.1898 116.5,37.5C 117.899,36.1103 119.566,35.1103 121.5,34.5 Z"/></g>
<g><path style="opacity:1" fill="#fce8e8" d="M 121.5,36.5 C 123.833,37.8333 126.167,37.8333 128.5,36.5C 128.932,37.7095 129.599,38.7095 130.5,39.5C 127.097,41.7145 123.43,42.0478 119.5,40.5C 120.6,39.3951 121.267,38.0618 121.5,36.5 Z"/></g>
<g><path style="opacity:1" fill="#fadadb" d="M 128.5,50.5 C 128.5,51.8333 128.5,53.1667 128.5,54.5C 125.833,54.5 123.167,54.5 120.5,54.5C 121.162,50.5341 121.495,46.5341 121.5,42.5C 123.833,42.5 126.167,42.5 128.5,42.5C 128.5,45.1667 128.5,47.8333 128.5,50.5 Z"/></g>
<g><path style="opacity:0.971" fill="#fefbfb" d="M 92.5,54.5 C 94.9693,60.1025 97.9693,65.4358 101.5,70.5C 98.7886,72.8565 95.7886,73.5231 92.5,72.5C 89.678,68.524 87.678,64.1906 86.5,59.5C 88.4602,57.8437 90.4602,56.177 92.5,54.5 Z"/></g>
<g><path style="opacity:1" fill="#fefefe" d="M 120.5,55.5 C 123.167,55.5 125.833,55.5 128.5,55.5C 128.5,56.5 128.5,57.5 128.5,58.5C 125.833,58.5 123.167,58.5 120.5,58.5C 120.5,57.5 120.5,56.5 120.5,55.5 Z"/></g>
<g><path style="opacity:1" fill="#ed8183" d="M 128.5,50.5 C 129.477,53.2869 129.81,56.2869 129.5,59.5C 126.5,59.5 123.5,59.5 120.5,59.5C 120.5,59.1667 120.5,58.8333 120.5,58.5C 123.167,58.5 125.833,58.5 128.5,58.5C 128.5,57.5 128.5,56.5 128.5,55.5C 125.833,55.5 123.167,55.5 120.5,55.5C 120.5,55.1667 120.5,54.8333 120.5,54.5C 123.167,54.5 125.833,54.5 128.5,54.5C 128.5,53.1667 128.5,51.8333 128.5,50.5 Z"/></g>
<g><path style="opacity:0.948" fill="#db191c" d="M 84.5,61.5 C 88.6943,69.3866 93.0276,77.22 97.5,85C 96.944,85.3826 96.6107,85.8826 96.5,86.5C 93.3386,87.9762 90.0053,88.9762 86.5,89.5C 86.67,88.1779 86.3366,87.0113 85.5,86C 77.1733,85.5003 68.84,85.3336 60.5,85.5C 67.5,76.5 75.5,68.5 84.5,61.5 Z"/></g>
<g><path style="opacity:1" fill="#fad2d3" d="M 120.5,59.5 C 123.5,59.5 126.5,59.5 129.5,59.5C 129.229,61.8211 129.896,63.8211 131.5,65.5C 131.167,66.5 130.5,67.1667 129.5,67.5C 126.37,64.887 123.204,64.887 120,67.5C 119.25,66.8742 118.416,66.3742 117.5,66C 118.926,63.9546 119.926,61.7879 120.5,59.5 Z"/></g>
<g><path style="opacity:1" fill="#fcdede" d="M 123.5,66.5 C 128.218,67.3189 128.552,68.9855 124.5,71.5C 122.296,70.218 121.962,68.5514 123.5,66.5 Z"/></g>
<g><path style="opacity:1" fill="#fbd2d2" d="M 115.5,68.5 C 116.978,68.238 118.311,68.5713 119.5,69.5C 117.537,72.1939 116.203,71.8606 115.5,68.5 Z"/></g>
<g><path style="opacity:1" fill="#fce0df" d="M 130.5,68.5 C 133.957,68.6672 134.29,69.6672 131.5,71.5C 130.614,70.675 130.281,69.675 130.5,68.5 Z"/></g>
<g><path style="opacity:1" fill="#fce2e2" d="M 112.5,68.5 C 114.465,68.9483 114.798,69.9483 113.5,71.5C 112.614,70.675 112.281,69.675 112.5,68.5 Z"/></g>
<g><path style="opacity:1" fill="#f6a4a1" d="M 134.5,68.5 C 136.465,68.9483 136.798,69.9483 135.5,71.5C 134.614,70.675 134.281,69.675 134.5,68.5 Z"/></g>
<g><path style="opacity:1" fill="#f09a9b" d="M 93.5,53.5 C 98.0595,61.6106 102.893,69.6106 108,77.5C 109.519,79.1392 109.686,80.8058 108.5,82.5C 106.426,83.5139 104.426,84.5139 102.5,85.5C 100.621,86.3414 98.6208,86.6747 96.5,86.5C 96.6107,85.8826 96.944,85.3826 97.5,85C 93.0276,77.22 88.6943,69.3866 84.5,61.5C 84.8333,60.5 85.5,59.8333 86.5,59.5C 87.678,64.1906 89.678,68.524 92.5,72.5C 95.7886,73.5231 98.7886,72.8565 101.5,70.5C 97.9693,65.4358 94.9693,60.1025 92.5,54.5C 92.5,53.8333 92.8333,53.5 93.5,53.5 Z"/></g>
<g><path style="opacity:1" fill="#f19d9e" d="M 171.5,33.5 C 171.5,34.5 171.5,35.5 171.5,36.5C 175.005,36.6941 175.338,37.6941 172.5,39.5C 173.124,39.9169 173.457,40.5836 173.5,41.5C 167.224,56.7192 159.89,71.3859 151.5,85.5C 153.49,86.4981 155.49,87.4981 157.5,88.5C 158.298,88.9569 158.631,89.6236 158.5,90.5C 157.5,90.5 156.5,90.5 155.5,90.5C 154.99,93.3878 155.656,95.7211 157.5,97.5C 157.119,98.9311 156.119,99.7645 154.5,100C 149.522,101.605 145.855,100.105 143.5,95.5C 141.142,97.0243 139.309,99.0243 138,101.5C 137.751,100.376 137.251,99.376 136.5,98.5C 136.11,101.025 136.11,104.025 136.5,107.5C 135.691,106.531 134.691,105.698 133.5,105C 134.073,101.895 134.406,98.7283 134.5,95.5C 135.648,96.895 136.648,96.7284 137.5,95C 140.482,94.502 143.482,94.3354 146.5,94.5C 146.088,96.9726 147.088,98.3059 149.5,98.5C 153.49,99.1762 155.157,97.5095 154.5,93.5C 153.913,88.3726 151.58,87.3726 147.5,90.5C 146.167,90.5 144.833,90.5 143.5,90.5C 144.625,88.8712 145.959,87.3712 147.5,86C 145.14,84.8201 142.807,83.6534 140.5,82.5C 139.697,81.5768 139.53,80.5768 140,79.5C 144,72.8333 148,66.1667 152,59.5C 157.791,50.2285 164.291,41.5618 171.5,33.5 Z"/></g>
<g><path style="opacity:1" fill="#fefbfb" d="M 172.5,39.5 C 168.231,50.0416 163.397,60.3749 158,70.5C 154.559,74.1303 151.059,73.9636 147.5,70C 153.667,60.5 159.833,51 166,41.5C 167.621,38.6793 169.788,38.0126 172.5,39.5 Z"/></g>
<g><path style="opacity:1" fill="#f3b3b4" d="M 112.5,80.5 C 120.527,81.4876 128.527,81.8209 136.5,81.5C 135.975,82.1924 135.308,82.6924 134.5,83C 128.167,83.6667 121.833,83.6667 115.5,83C 113.881,82.7645 112.881,81.9311 112.5,80.5 Z"/></g>
<g><path style="opacity:1" fill="#fdf1f1" d="M 108.5,82.5 C 109.494,83.9989 109.494,85.6656 108.5,87.5C 106.102,87.7406 104.102,87.0739 102.5,85.5C 104.426,84.5139 106.426,83.5139 108.5,82.5 Z"/></g>
<g><path style="opacity:1" fill="#fdf2f2" d="M 140.5,82.5 C 142.807,83.6534 145.14,84.8201 147.5,86C 145.959,87.3712 144.625,88.8712 143.5,90.5C 141.821,90.7148 140.821,90.0481 140.5,88.5C 140.046,86.2589 140.046,84.2589 140.5,82.5 Z"/></g>
<g><path style="opacity:1" fill="#ed8586" d="M 163.5,86.5 C 173.653,85.5058 183.986,85.1724 194.5,85.5C 194.821,91.0262 194.488,96.3595 193.5,101.5C 193.5,101.167 193.5,100.833 193.5,100.5C 193.666,96.1539 193.499,91.8206 193,87.5C 192.658,89.6192 191.825,89.9526 190.5,88.5C 182.5,88.5 174.5,88.5 166.5,88.5C 165.778,87.4489 164.778,86.7822 163.5,86.5 Z"/></g>
<g><path style="opacity:1" fill="#e76467" d="M 58.5,88.5 C 58.1667,88.5 57.8333,88.5 57.5,88.5C 57.5,87.8333 57.8333,87.5 58.5,87.5C 62.7842,86.8953 67.1175,86.562 71.5,86.5C 75.6787,86.364 79.6787,86.864 83.5,88C 75.1733,88.4997 66.84,88.6664 58.5,88.5 Z"/></g>
<g><path style="opacity:0.98" fill="#fefbfb" d="M 57.5,88.5 C 57.8333,88.5 58.1667,88.5 58.5,88.5C 60.9686,89.3171 63.6353,89.8171 66.5,90C 65.6872,91.3139 64.6872,92.4805 63.5,93.5C 64.5627,95.821 66.0627,96.821 68,96.5C 68.5,97 69,97.5 69.5,98C 65.6437,98.1773 61.977,98.6773 58.5,99.5C 57.8501,99.8039 57.1835,100.137 56.5,100.5C 55.8324,97.6944 55.1657,95.0277 54.5,92.5C 55.5,91.1667 56.5,89.8333 57.5,88.5 Z"/></g>
<g><path style="opacity:1" fill="#fefcfc" d="M 85.5,97.5 C 85.5875,100.598 85.0875,100.932 84,98.5C 83.6174,99.056 83.1174,99.3893 82.5,99.5C 79.023,98.6773 75.3563,98.1773 71.5,98C 72.448,97.5172 73.448,97.3505 74.5,97.5C 76.4119,93.8248 75.4119,91.3248 71.5,90C 75.1516,89.5014 78.8183,89.3347 82.5,89.5C 82.5,92.1667 82.5,94.8333 82.5,97.5C 83.5,97.5 84.5,97.5 85.5,97.5 Z"/></g>
<g><path style="opacity:1" fill="#fdf5f5" d="M 149.5,98.5 C 147.774,96.1799 147.107,93.5133 147.5,90.5C 151.58,87.3726 153.913,88.3726 154.5,93.5C 155.157,97.5095 153.49,99.1762 149.5,98.5 Z"/></g>
<g><path style="opacity:1" fill="#fef9f9" d="M 163.5,86.5 C 164.778,86.7822 165.778,87.4489 166.5,88.5C 169.977,89.3227 173.644,89.8227 177.5,90C 173.165,91.5067 172.498,94.0067 175.5,97.5C 176.675,96.1451 177.675,96.3117 178.5,98C 174.312,98.1762 170.312,98.6762 166.5,99.5C 162.89,100.364 162.723,99.6977 166,97.5C 166.167,96.3333 166.333,95.1667 166.5,94C 166.088,91.1824 165.088,88.6824 163.5,86.5 Z"/></g>
<g><path style="opacity:1" fill="#fefcfc" d="M 193.5,100.5 C 189.132,98.8115 184.465,97.9782 179.5,98C 180.253,96.513 181.086,96.3463 182,97.5C 186.752,94.1916 186.252,91.6916 180.5,90C 184.025,89.8213 187.359,89.3213 190.5,88.5C 191.825,89.9526 192.658,89.6192 193,87.5C 193.499,91.8206 193.666,96.1539 193.5,100.5 Z"/></g>
<g><path style="opacity:1" fill="#f4b0b0" d="M 60.5,85.5 C 68.84,85.3336 77.1733,85.5003 85.5,86C 86.3366,87.0113 86.67,88.1779 86.5,89.5C 90.0053,88.9762 93.3386,87.9762 96.5,86.5C 98.6208,86.6747 100.621,86.3414 102.5,85.5C 104.102,87.0739 106.102,87.7406 108.5,87.5C 108.735,88.0967 109.235,88.4301 110,88.5C 111.396,87.6057 112.896,86.9391 114.5,86.5C 116.038,86.4534 117.038,87.1201 117.5,88.5C 118.167,89.5 118.833,90.5 119.5,91.5C 119.5,92.5 119.5,93.5 119.5,94.5C 122.167,94.5 124.833,94.5 127.5,94.5C 124.695,95.3195 121.695,95.8195 118.5,96C 116.86,97.3946 115.36,98.8946 114,100.5C 112.908,98.0688 111.741,98.0688 110.5,100.5C 109.038,98.7451 107.205,97.4118 105,96.5C 103.014,98.7415 100.514,99.7415 97.5,99.5C 94.6068,99.9311 92.6068,98.9311 91.5,96.5C 93.3079,95.0821 93.9746,93.0821 93.5,90.5C 90.1667,90.5 86.8333,90.5 83.5,90.5C 83.0254,93.0821 83.6921,95.0821 85.5,96.5C 85.5,96.8333 85.5,97.1667 85.5,97.5C 84.5,97.5 83.5,97.5 82.5,97.5C 82.5,94.8333 82.5,92.1667 82.5,89.5C 78.8183,89.3347 75.1516,89.5014 71.5,90C 75.4119,91.3248 76.4119,93.8248 74.5,97.5C 73.448,97.3505 72.448,97.5172 71.5,98C 75.3563,98.1773 79.023,98.6773 82.5,99.5C 74.5,99.5 66.5,99.5 58.5,99.5C 61.977,98.6773 65.6437,98.1773 69.5,98C 69,97.5 68.5,97 68,96.5C 66.0627,96.821 64.5627,95.821 63.5,93.5C 64.6872,92.4805 65.6872,91.3139 66.5,90C 63.6353,89.8171 60.9686,89.3171 58.5,88.5C 66.84,88.6664 75.1733,88.4997 83.5,88C 79.6787,86.864 75.6787,86.364 71.5,86.5C 67.1175,86.562 62.7842,86.8953 58.5,87.5C 58.8333,86.5 59.5,85.8333 60.5,85.5 Z"/></g>
<g><path style="opacity:1" fill="#fefcfc" d="M 91.5,96.5 C 89.5,96.5 87.5,96.5 85.5,96.5C 83.6921,95.0821 83.0254,93.0821 83.5,90.5C 86.8333,90.5 90.1667,90.5 93.5,90.5C 93.9746,93.0821 93.3079,95.0821 91.5,96.5 Z"/></g>
<g><path style="opacity:1" fill="#fdf4f4" d="M 117.5,88.5 C 116.94,90.8008 116.44,93.1341 116,95.5C 114.989,96.3366 113.822,96.67 112.5,96.5C 112.337,94.1432 112.503,91.8098 113,89.5C 114.564,89.0879 116.064,88.7546 117.5,88.5 Z"/></g>
<g><path style="opacity:1" fill="#fefdfd" d="M 95.5,88.5 C 97.1667,88.5 98.8333,88.5 100.5,88.5C 100.5,91.5 100.5,94.5 100.5,97.5C 98.8333,97.5 97.1667,97.5 95.5,97.5C 95.5,94.5 95.5,91.5 95.5,88.5 Z"/></g>
<g><path style="opacity:1" fill="#fdf2f2" d="M 101.5,90.5 C 103.167,90.5 104.833,90.5 106.5,90.5C 106.5,92.1667 106.5,93.8333 106.5,95.5C 104.833,95.5 103.167,95.5 101.5,95.5C 101.5,93.8333 101.5,92.1667 101.5,90.5 Z"/></g>
<g><path style="opacity:1" fill="#fef3f3" d="M 132.5,90.5 C 133.451,91.9187 133.784,93.5853 133.5,95.5C 131.379,95.6747 129.379,95.3414 127.5,94.5C 124.833,94.5 122.167,94.5 119.5,94.5C 119.5,93.5 119.5,92.5 119.5,91.5C 123.869,91.5328 128.202,91.1995 132.5,90.5 Z"/></g>
<g><path style="opacity:1" fill="#fef6f6" d="M 158.5,90.5 C 159.833,90.5 161.167,90.5 162.5,90.5C 163.725,91.1522 164.392,92.3189 164.5,94C 164.392,95.6811 163.725,96.8478 162.5,97.5C 160.833,97.5 159.167,97.5 157.5,97.5C 155.656,95.7211 154.99,93.3878 155.5,90.5C 156.5,90.5 157.5,90.5 158.5,90.5 Z"/></g>
<g><path style="opacity:1" fill="#e03935" d="M 68.5,91.5 C 71.1662,91.0658 72.3329,92.0658 72,94.5C 68.4034,96.0661 67.2368,95.0661 68.5,91.5 Z"/></g>
<g><path style="opacity:1" fill="#f5bdbe" d="M 166.5,88.5 C 174.5,88.5 182.5,88.5 190.5,88.5C 187.359,89.3213 184.025,89.8213 180.5,90C 186.252,91.6916 186.752,94.1916 182,97.5C 181.086,96.3463 180.253,96.513 179.5,98C 184.465,97.9782 189.132,98.8115 193.5,100.5C 193.5,100.833 193.5,101.167 193.5,101.5C 192.448,101.649 191.448,101.483 190.5,101C 190.833,100.667 191.167,100.333 191.5,100C 183.173,99.5003 174.84,99.3336 166.5,99.5C 170.312,98.6762 174.312,98.1762 178.5,98C 177.675,96.3117 176.675,96.1451 175.5,97.5C 172.498,94.0067 173.165,91.5067 177.5,90C 173.644,89.8227 169.977,89.3227 166.5,88.5 Z"/></g>
<g><path style="opacity:1" fill="#e03832" d="M 177.5,91.5 C 180.166,91.0658 181.333,92.0658 181,94.5C 177.403,96.0661 176.237,95.0661 177.5,91.5 Z"/></g>
<g><path style="opacity:1" fill="#ec8385" d="M 53.5,93.5 C 53.5,92.8333 53.8333,92.5 54.5,92.5C 55.1657,95.0277 55.8324,97.6944 56.5,100.5C 57.1835,100.137 57.8501,99.8039 58.5,99.5C 66.5,99.5 74.5,99.5 82.5,99.5C 83.1174,99.3893 83.6174,99.056 84,98.5C 85.0875,100.932 85.5875,100.598 85.5,97.5C 86.8009,98.8845 86.8009,100.384 85.5,102C 75.5,102.667 65.5,102.667 55.5,102C 54.8719,99.0614 54.2052,96.2281 53.5,93.5 Z"/></g>
<g><path style="opacity:1" fill="#ec8283" d="M 163.5,86.5 C 165.088,88.6824 166.088,91.1824 166.5,94C 166.333,95.1667 166.167,96.3333 166,97.5C 162.723,99.6977 162.89,100.364 166.5,99.5C 174.84,99.3336 183.173,99.5003 191.5,100C 191.167,100.333 190.833,100.667 190.5,101C 191.448,101.483 192.448,101.649 193.5,101.5C 183.675,102.658 173.675,102.825 163.5,102C 162.62,100.644 162.286,99.1439 162.5,97.5C 163.725,96.8478 164.392,95.6811 164.5,94C 164.392,92.3189 163.725,91.1522 162.5,90.5C 162.232,88.901 162.566,87.5676 163.5,86.5 Z"/></g>
<g><path style="opacity:1" fill="#fef7f7" d="M 109.5,107.5 C 109.5,114.5 109.5,121.5 109.5,128.5C 108.5,128.5 107.5,128.5 106.5,128.5C 106.5,126.833 106.5,125.167 106.5,123.5C 106.5,118.5 106.5,113.5 106.5,108.5C 107.209,107.596 108.209,107.263 109.5,107.5 Z"/></g>
<g><path style="opacity:1" fill="#fce3e3" d="M 74.5,109.5 C 74.98,112.166 75.98,114.666 77.5,117C 75.8078,118.401 75.1412,120.234 75.5,122.5C 74.5,122.5 73.5,122.5 72.5,122.5C 69.087,121.362 65.7536,120.029 62.5,118.5C 64.7456,117.045 66.7456,115.212 68.5,113C 67.0039,112.493 65.8373,112.993 65,114.5C 63.955,113.627 63.1217,112.627 62.5,111.5C 65.3709,110.321 68.2043,110.321 71,111.5C 71.7096,110.027 72.8762,109.36 74.5,109.5 Z"/></g>
<g><path style="opacity:1" fill="#f6b7b7" d="M 62.5,111.5 C 63.1217,112.627 63.955,113.627 65,114.5C 65.8373,112.993 67.0039,112.493 68.5,113C 66.7456,115.212 64.7456,117.045 62.5,118.5C 57.3421,115.924 57.3421,113.59 62.5,111.5 Z"/></g>
<g><path style="opacity:1" fill="#ef8e8e" d="M 140.5,88.5 C 140.821,90.0481 141.821,90.7148 143.5,90.5C 144.833,90.5 146.167,90.5 147.5,90.5C 147.107,93.5133 147.774,96.1799 149.5,98.5C 147.088,98.3059 146.088,96.9726 146.5,94.5C 146.5,93.5 146.5,92.5 146.5,91.5C 142.543,91.9916 138.877,91.3249 135.5,89.5C 134.534,91.396 134.201,93.396 134.5,95.5C 134.406,98.7283 134.073,101.895 133.5,105C 134.691,105.698 135.691,106.531 136.5,107.5C 135.174,110.513 135.174,113.18 136.5,115.5C 136.297,117.044 135.63,118.378 134.5,119.5C 135.246,120.736 135.579,122.07 135.5,123.5C 134.778,123.082 134.278,122.416 134,121.5C 133.292,122.381 132.458,123.047 131.5,123.5C 131.565,123.062 131.399,122.728 131,122.5C 128.876,123.622 127.043,125.122 125.5,127C 120.685,127.803 116.019,128.637 111.5,129.5C 108.167,129.5 104.833,129.5 101.5,129.5C 102.748,128.431 104.082,127.431 105.5,126.5C 105.471,124.971 104.804,123.804 103.5,123C 104.833,119.667 104.833,116.333 103.5,113C 103.833,112.833 104.167,112.667 104.5,112.5C 105.167,116.313 105.834,119.979 106.5,123.5C 106.5,125.167 106.5,126.833 106.5,128.5C 107.5,128.5 108.5,128.5 109.5,128.5C 109.5,121.5 109.5,114.5 109.5,107.5C 111.026,106.895 112.026,105.729 112.5,104C 113.048,102.404 112.382,101.237 110.5,100.5C 111.741,98.0688 112.908,98.0688 114,100.5C 115.36,98.8946 116.86,97.3946 118.5,96C 121.695,95.8195 124.695,95.3195 127.5,94.5C 129.379,95.3414 131.379,95.6747 133.5,95.5C 133.784,93.5853 133.451,91.9187 132.5,90.5C 132.414,89.5041 132.748,88.6708 133.5,88C 135.847,87.6664 138.181,87.833 140.5,88.5 Z"/></g>
<g><path style="opacity:1" fill="#fef6f6" d="M 146.5,94.5 C 143.482,94.3354 140.482,94.502 137.5,95C 136.648,96.7284 135.648,96.895 134.5,95.5C 134.201,93.396 134.534,91.396 135.5,89.5C 138.877,91.3249 142.543,91.9916 146.5,91.5C 146.5,92.5 146.5,93.5 146.5,94.5 Z"/></g>
<g><path style="opacity:1" fill="#f5b8b9" d="M 106.5,108.5 C 106.5,113.5 106.5,118.5 106.5,123.5C 105.834,119.979 105.167,116.313 104.5,112.5C 104.167,112.667 103.833,112.833 103.5,113C 104.833,116.333 104.833,119.667 103.5,123C 104.804,123.804 105.471,124.971 105.5,126.5C 104.082,127.431 102.748,128.431 101.5,129.5C 100.833,129.167 100.167,128.833 99.5,128.5C 90.486,126.498 81.486,124.498 72.5,122.5C 73.5,122.5 74.5,122.5 75.5,122.5C 75.1412,120.234 75.8078,118.401 77.5,117C 75.98,114.666 74.98,112.166 74.5,109.5C 74.56,108.957 74.8933,108.624 75.5,108.5C 78.2988,110.731 80.9655,110.731 83.5,108.5C 91.2259,108.493 98.8926,108.493 106.5,108.5 Z"/></g>
<g><path style="opacity:1" fill="#fdf3f3" d="M 136.5,115.5 C 149.193,127.195 161.859,138.862 174.5,150.5C 171.564,152.883 169.231,152.55 167.5,149.5C 162.838,151.014 161.838,149.848 164.5,146C 162.803,145.616 161.137,145.782 159.5,146.5C 160.778,147.749 161.778,149.249 162.5,151C 164.167,151.333 165.833,151.667 167.5,152C 166.756,153.039 165.756,153.539 164.5,153.5C 157.416,148.59 150.749,143.09 144.5,137C 139.963,132.631 135.63,128.131 131.5,123.5C 132.458,123.047 133.292,122.381 134,121.5C 134.278,122.416 134.778,123.082 135.5,123.5C 135.579,122.07 135.246,120.736 134.5,119.5C 135.63,118.378 136.297,117.044 136.5,115.5 Z"/></g>
<g><path style="opacity:1" fill="#ef9294" d="M 135.5,123.5 C 140.052,124.089 144.386,125.922 148.5,129C 147.833,129.167 147.167,129.333 146.5,129.5C 142.8,127.502 139.133,125.502 135.5,123.5 Z"/></g>
<g><path style="opacity:1" fill="#fdeded" d="M 99.5,128.5 C 100.167,128.833 100.833,129.167 101.5,129.5C 104.833,129.5 108.167,129.5 111.5,129.5C 104.159,136.841 96.4921,143.841 88.5,150.5C 87.596,149.791 87.2627,148.791 87.5,147.5C 89.9288,147.415 91.9288,146.415 93.5,144.5C 91.2881,141.758 89.9548,142.258 89.5,146C 87.8739,145.805 86.2072,145.805 84.5,146C 87.1624,149.848 86.1624,151.014 81.5,149.5C 79.7694,152.55 77.4361,152.883 74.5,150.5C 82.8079,143.196 91.1412,135.862 99.5,128.5 Z"/></g>
<g><path style="opacity:1" fill="#ef9799" d="M 144.5,131.5 C 146.264,130.288 147.93,130.621 149.5,132.5C 150.429,133.689 150.762,135.022 150.5,136.5C 153.885,135.79 156.219,136.956 157.5,140C 157.37,141.059 156.87,141.892 156,142.5C 155.727,140.899 155.227,139.399 154.5,138C 152.423,137.808 150.423,137.308 148.5,136.5C 148.833,135.833 149.167,135.167 149.5,134.5C 148.06,133.048 146.394,132.048 144.5,131.5 Z"/></g>
<g><path style="opacity:1" fill="#ee8f91" d="M 98.5,133.5 C 99.3909,134.261 100.058,135.261 100.5,136.5C 98.5787,137.641 96.5787,137.808 94.5,137C 95.7932,136.51 97.1266,136.343 98.5,136.5C 98.5,135.5 98.5,134.5 98.5,133.5 Z"/></g>
<g><path style="opacity:1" fill="#ee8e90" d="M 159.5,146.5 C 155.368,145.949 154.868,144.616 158,142.5C 158.41,143.901 158.91,145.234 159.5,146.5 Z"/></g>
<g><path style="opacity:1" fill="#f2a3a4" d="M 174.5,150.5 C 175.707,151.189 177.041,151.355 178.5,151C 179.381,151.708 180.047,152.542 180.5,153.5C 180.5,154.167 180.5,154.833 180.5,155.5C 183.343,156.921 184.676,158.921 184.5,161.5C 183.686,163.273 182.352,163.773 180.5,163C 181.38,161.644 181.714,160.144 181.5,158.5C 178.755,158.373 176.755,159.54 175.5,162C 176.942,162.377 177.942,163.21 178.5,164.5C 174.559,162.86 170.892,160.694 167.5,158C 165.859,156.871 164.859,155.371 164.5,153.5C 165.756,153.539 166.756,153.039 167.5,152C 165.833,151.667 164.167,151.333 162.5,151C 161.778,149.249 160.778,147.749 159.5,146.5C 161.137,145.782 162.803,145.616 164.5,146C 161.838,149.848 162.838,151.014 167.5,149.5C 169.231,152.55 171.564,152.883 174.5,150.5 Z"/></g>
<g><path style="opacity:1" fill="#fdf5f5" d="M 180.5,155.5 C 180.611,157.648 179.944,157.981 178.5,156.5C 177.201,157.09 176.368,158.09 176,159.5C 175.1,158.23 173.934,157.23 172.5,156.5C 174.256,156.64 175.922,156.14 177.5,155C 175.833,154.667 174.167,154.333 172.5,154C 175.498,153.109 178.164,153.609 180.5,155.5 Z"/></g>
<g><path style="opacity:1" fill="#fdf4f4" d="M 67.5,158.5 C 70.245,158.373 72.245,159.54 73.5,162C 72.0577,162.377 71.0577,163.21 70.5,164.5C 67.2278,165.758 63.8944,166.925 60.5,168C 57.9615,168.796 55.6282,168.629 53.5,167.5C 54.1667,167.167 54.8333,166.833 55.5,166.5C 57.1288,165.375 58.6288,164.041 60,162.5C 60.658,164.108 60.158,165.275 58.5,166C 59.5,166.667 60.5,166.667 61.5,166C 61.9662,164.701 61.9662,163.201 61.5,161.5C 62.5,161.5 63.5,161.5 64.5,161.5C 65.3143,163.273 66.6476,163.773 68.5,163C 67.6198,161.644 67.2865,160.144 67.5,158.5 Z"/></g>
<g><path style="opacity:1" fill="#ed898a" d="M 83.5,155.5 C 79.9987,159.662 75.6654,162.662 70.5,164.5C 71.0577,163.21 72.0577,162.377 73.5,162C 72.245,159.54 70.245,158.373 67.5,158.5C 69.8276,155.568 71.661,155.902 73,159.5C 73.7253,157.842 74.892,157.342 76.5,158C 74.7295,158.535 74.3961,159.369 75.5,160.5C 77.8429,158.656 80.0096,156.656 82,154.5C 82.3826,155.056 82.8826,155.389 83.5,155.5 Z"/></g>
<g><path style="opacity:1" fill="#facece" d="M 86.5,152.5 C 85.2719,153.306 84.2719,154.306 83.5,155.5C 82.8826,155.389 82.3826,155.056 82,154.5C 80.0096,156.656 77.8429,158.656 75.5,160.5C 74.3961,159.369 74.7295,158.535 76.5,158C 74.892,157.342 73.7253,157.842 73,159.5C 71.661,155.902 69.8276,155.568 67.5,158.5C 67.2865,160.144 67.6198,161.644 68.5,163C 66.6476,163.773 65.3143,163.273 64.5,161.5C 64.3893,160.883 64.056,160.383 63.5,160C 67.2657,155.436 71.7657,152.936 77,152.5C 77.3879,153.428 78.0546,154.095 79,154.5C 80.4788,153.244 82.1454,152.244 84,151.5C 85.0698,151.528 85.9032,151.861 86.5,152.5 Z"/></g>
<g><path style="opacity:1" fill="#eb797b" d="M 180.5,153.5 C 184.859,157.528 189.193,161.528 193.5,165.5C 191.629,165.141 190.129,164.141 189,162.5C 188.342,164.108 188.842,165.275 190.5,166C 189.552,166.483 188.552,166.649 187.5,166.5C 187.5,164.833 187.5,163.167 187.5,161.5C 186.5,161.5 185.5,161.5 184.5,161.5C 184.676,158.921 183.343,156.921 180.5,155.5C 180.5,154.833 180.5,154.167 180.5,153.5 Z"/></g>
<g><path style="opacity:1" fill="#ed8688" d="M 88.5,150.5 C 88.1667,151.5 87.5,152.167 86.5,152.5C 85.9032,151.861 85.0698,151.528 84,151.5C 82.1454,152.244 80.4788,153.244 79,154.5C 78.0546,154.095 77.3879,153.428 77,152.5C 71.7657,152.936 67.2657,155.436 63.5,160C 64.056,160.383 64.3893,160.883 64.5,161.5C 63.5,161.5 62.5,161.5 61.5,161.5C 61.9662,163.201 61.9662,164.701 61.5,166C 60.5,166.667 59.5,166.667 58.5,166C 60.158,165.275 60.658,164.108 60,162.5C 58.6288,164.041 57.1288,165.375 55.5,166.5C 60.4038,160.929 65.7371,155.596 71.5,150.5C 72.5272,151.791 73.5272,151.791 74.5,150.5C 77.4361,152.883 79.7694,152.55 81.5,149.5C 86.1624,151.014 87.1624,149.848 84.5,146C 86.2072,145.805 87.8739,145.805 89.5,146C 89.9548,142.258 91.2881,141.758 93.5,144.5C 91.9288,146.415 89.9288,147.415 87.5,147.5C 87.2627,148.791 87.596,149.791 88.5,150.5 Z"/></g>
<g><path style="opacity:1" fill="#fdeeee" d="M 184.5,161.5 C 185.5,161.5 186.5,161.5 187.5,161.5C 187.5,163.167 187.5,164.833 187.5,166.5C 188.552,166.649 189.552,166.483 190.5,166C 188.842,165.275 188.342,164.108 189,162.5C 190.129,164.141 191.629,165.141 193.5,165.5C 194.29,166.794 195.29,167.961 196.5,169C 195.5,169.167 194.5,169.333 193.5,169.5C 188.278,168.426 183.278,166.759 178.5,164.5C 177.942,163.21 176.942,162.377 175.5,162C 176.755,159.54 178.755,158.373 181.5,158.5C 181.714,160.144 181.38,161.644 180.5,163C 182.352,163.773 183.686,163.273 184.5,161.5 Z"/></g>
<g><path style="opacity:1" fill="#e86564" d="M 70.5,164.5 C 66.3487,167.645 61.5153,169.645 56,170.5C 53.1869,170.559 52.3536,169.559 53.5,167.5C 55.6282,168.629 57.9615,168.796 60.5,168C 63.8944,166.925 67.2278,165.758 70.5,164.5 Z"/></g>
<g><path style="opacity:0.993" fill="#027f00" d="M 485.5,332.5 C 459.059,404.776 410.059,455.276 338.5,484C 317.652,491.713 296.319,496.88 274.5,499.5C 266.167,499.5 257.833,499.5 249.5,499.5C 249.5,443.833 249.5,388.167 249.5,332.5C 328.167,332.5 406.833,332.5 485.5,332.5 Z"/></g>
</svg>
