<?xml version="1.0" encoding="UTF-8"?>
<!DOCTYPE svg PUBLIC "-//W3C//DTD SVG 1.1//EN" "http://www.w3.org/Graphics/SVG/1.1/DTD/svg11.dtd">
<svg xmlns="http://www.w3.org/2000/svg" version="1.1" width="500px" height="500px" style="shape-rendering:geometricPrecision; text-rendering:geometricPrecision; image-rendering:optimizeQuality; fill-rule:evenodd; clip-rule:evenodd" xmlns:xlink="http://www.w3.org/1999/xlink">
<g><path style="opacity:0.996" fill="#01411c" d="M 225.5,-0.5 C 241.5,-0.5 257.5,-0.5 273.5,-0.5C 362.269,10.9489 428.436,55.6156 472,133.5C 476.123,142.075 479.956,150.742 483.5,159.5C 479.521,161.334 475.521,162.834 471.5,164C 464.372,155.203 456.872,146.703 449,138.5C 449.004,149.377 449.837,160.211 451.5,171C 451.167,171.833 450.833,172.667 450.5,173.5C 439.791,178.236 429.125,183.07 418.5,188C 430.453,190.825 442.453,193.325 454.5,195.5C 454.571,205.213 455.238,214.879 456.5,224.5C 456.192,226.924 456.526,229.257 457.5,231.5C 458.107,231.376 458.44,231.043 458.5,230.5C 463.821,221.194 469.155,211.861 474.5,202.5C 475.5,202.167 476.5,201.833 477.5,201.5C 483.822,202.723 490.156,203.723 496.5,204.5C 497.307,211.331 498.307,217.997 499.5,224.5C 499.5,241.167 499.5,257.833 499.5,274.5C 496.788,298.349 490.788,321.349 481.5,343.5C 423.646,363.114 373.146,351.448 330,308.5C 293.691,265.275 285.024,216.942 304,163.5C 313.277,141.561 327.111,123.061 345.5,108C 301.517,122.976 270.684,152.142 253,195.5C 233.704,252.743 243.371,304.41 282,350.5C 324.036,393.951 374.536,408.451 433.5,394C 443.128,391.181 452.462,387.681 461.5,383.5C 416.864,450.336 354.53,489.002 274.5,499.5C 257.833,499.5 241.167,499.5 224.5,499.5C 184.122,494.707 146.789,481.374 112.5,459.5C 112.5,319.5 112.5,179.5 112.5,39.5C 147.079,17.4184 184.745,4.08509 225.5,-0.5 Z"/></g>
<g><path style="opacity:0.991" fill="#fdfdfd" d="M 112.5,39.5 C 112.5,179.5 112.5,319.5 112.5,459.5C 46.8268,414.762 9.16012,352.762 -0.5,273.5C -0.5,257.5 -0.5,241.5 -0.5,225.5C 9.16012,146.238 46.8268,84.2375 112.5,39.5 Z"/></g>
<g><path style="opacity:0.998" fill="#fdfdfd" d="M 481.5,343.5 C 476.413,357.675 469.746,371.008 461.5,383.5C 452.462,387.681 443.128,391.181 433.5,394C 374.536,408.451 324.036,393.951 282,350.5C 243.371,304.41 233.704,252.743 253,195.5C 270.684,152.142 301.517,122.976 345.5,108C 327.111,123.061 313.277,141.561 304,163.5C 285.024,216.942 293.691,265.275 330,308.5C 373.146,351.448 423.646,363.114 481.5,343.5 Z"/></g>
<g><path style="opacity:0.99" fill="#fafbfb" d="M 483.5,159.5 C 485.898,165.696 487.898,172.029 489.5,178.5C 486.805,181.45 487.471,183.783 491.5,185.5C 493.535,191.651 495.202,197.984 496.5,204.5C 490.156,203.723 483.822,202.723 477.5,201.5C 476.5,201.833 475.5,202.167 474.5,202.5C 469.155,211.861 463.821,221.194 458.5,230.5C 457.833,228.5 457.167,226.5 456.5,224.5C 455.238,214.879 454.571,205.213 454.5,195.5C 442.453,193.325 430.453,190.825 418.5,188C 429.125,183.07 439.791,178.236 450.5,173.5C 450.833,172.667 451.167,171.833 451.5,171C 449.837,160.211 449.004,149.377 449,138.5C 456.872,146.703 464.372,155.203 471.5,164C 475.521,162.834 479.521,161.334 483.5,159.5 Z"/></g>
<g><path style="opacity:0.468" fill="#104622" d="M 489.5,178.5 C 490.924,180.515 491.59,182.848 491.5,185.5C 487.471,183.783 486.805,181.45 489.5,178.5 Z"/></g>
<g><path style="opacity:1" fill="#92ad9d" d="M 456.5,224.5 C 457.167,226.5 457.833,228.5 458.5,230.5C 458.44,231.043 458.107,231.376 457.5,231.5C 456.526,229.257 456.192,226.924 456.5,224.5 Z"/></g>
</svg>
