<?xml version="1.0" encoding="UTF-8"?>
<!DOCTYPE svg PUBLIC "-//W3C//DTD SVG 1.1//EN" "http://www.w3.org/Graphics/SVG/1.1/DTD/svg11.dtd">
<svg xmlns="http://www.w3.org/2000/svg" version="1.1" width="500px" height="500px" style="shape-rendering:geometricPrecision; text-rendering:geometricPrecision; image-rendering:optimizeQuality; fill-rule:evenodd; clip-rule:evenodd" xmlns:xlink="http://www.w3.org/1999/xlink">
<g><path style="opacity:0.992" fill="#4aadd5" d="M 225.5,-0.5 C 241.5,-0.5 257.5,-0.5 273.5,-0.5C 362.269,10.9489 428.436,55.6156 472,133.5C 486.559,162.333 495.726,192.666 499.5,224.5C 499.5,241.167 499.5,257.833 499.5,274.5C 487.764,361.841 443.764,427.341 367.5,471C 338.093,486.083 307.093,495.583 274.5,499.5C 257.833,499.5 241.167,499.5 224.5,499.5C 132.596,487.072 65.4294,439.739 23,357.5C 10.7506,330.604 2.91724,302.604 -0.5,273.5C -0.5,257.5 -0.5,241.5 -0.5,225.5C 11.4543,135.075 57.4543,68.242 137.5,25C 165.514,11.5012 194.847,3.00119 225.5,-0.5 Z"/></g>
<g><path style="opacity:1" fill="#fedd01" d="M 183.5,99.5 C 248.076,96.3621 297.243,122.029 331,176.5C 359.805,235.058 355.138,290.725 317,343.5C 274.072,392.029 220.905,408.862 157.5,394C 94.5568,372.385 58.7235,328.552 50,262.5C 47.4039,198.186 73.5706,149.686 128.5,117C 146.019,108.214 164.353,102.381 183.5,99.5 Z"/></g>
</svg>
