<?xml version="1.0" encoding="UTF-8"?>
<!DOCTYPE svg PUBLIC "-//W3C//DTD SVG 1.1//EN" "http://www.w3.org/Graphics/SVG/1.1/DTD/svg11.dtd">
<svg xmlns="http://www.w3.org/2000/svg" version="1.1" width="500px" height="500px" style="shape-rendering:geometricPrecision; text-rendering:geometricPrecision; image-rendering:optimizeQuality; fill-rule:evenodd; clip-rule:evenodd" xmlns:xlink="http://www.w3.org/1999/xlink">
<g><path style="opacity:0.993" fill="#000000" d="M 225.5,-0.5 C 241.5,-0.5 257.5,-0.5 273.5,-0.5C 362.269,10.9489 428.436,55.6156 472,133.5C 477.625,144.077 482.125,155.077 485.5,166.5C 397.833,166.5 310.167,166.5 222.5,166.5C 176.167,131.833 129.833,97.1667 83.5,62.5C 123.903,26.3069 171.236,5.30692 225.5,-0.5 Z"/></g>
<g><path style="opacity:0.996" fill="#cd1126" d="M 83.5,62.5 C 129.833,97.1667 176.167,131.833 222.5,166.5C 259.124,194.111 295.791,221.778 332.5,249.5C 295.791,277.222 259.124,304.889 222.5,332.5C 176.167,367.167 129.833,401.833 83.5,436.5C 47.3855,405.317 22.5522,366.65 9,320.5C 4.58894,304.943 1.42227,289.277 -0.5,273.5C -0.5,257.5 -0.5,241.5 -0.5,225.5C 5.86259,169.784 27.6959,121.117 65,79.5C 70.7368,73.2589 76.9035,67.5922 83.5,62.5 Z"/></g>
<g><path style="opacity:0.997" fill="#fefefe" d="M 222.5,166.5 C 310.167,166.5 397.833,166.5 485.5,166.5C 492.586,185.267 497.253,204.6 499.5,224.5C 499.5,241.167 499.5,257.833 499.5,274.5C 498.1,284.764 496.267,295.098 494,305.5C 492.031,314.9 489.198,323.9 485.5,332.5C 397.833,332.5 310.167,332.5 222.5,332.5C 259.124,304.889 295.791,277.222 332.5,249.5C 295.791,221.778 259.124,194.111 222.5,166.5 Z"/></g>
<g><path style="opacity:0.993" fill="#017a3d" d="M 222.5,332.5 C 310.167,332.5 397.833,332.5 485.5,332.5C 459.059,404.776 410.059,455.276 338.5,484C 317.652,491.713 296.319,496.88 274.5,499.5C 257.833,499.5 241.167,499.5 224.5,499.5C 175.815,493.82 132.148,475.987 93.5,446C 89.6659,443.332 86.3325,440.165 83.5,436.5C 129.833,401.833 176.167,367.167 222.5,332.5 Z"/></g>
</svg>
