<?xml version="1.0" encoding="UTF-8"?>
<!DOCTYPE svg PUBLIC "-//W3C//DTD SVG 1.1//EN" "http://www.w3.org/Graphics/SVG/1.1/DTD/svg11.dtd">
<svg xmlns="http://www.w3.org/2000/svg" version="1.1" width="500px" height="500px" style="shape-rendering:geometricPrecision; text-rendering:geometricPrecision; image-rendering:optimizeQuality; fill-rule:evenodd; clip-rule:evenodd" xmlns:xlink="http://www.w3.org/1999/xlink">
<g><path style="opacity:0.994" fill="#fefefe" d="M 225.5,-0.5 C 233.5,-0.5 241.5,-0.5 249.5,-0.5C 249.5,82.8333 249.5,166.167 249.5,249.5C 166.167,249.5 82.8333,249.5 -0.5,249.5C -0.5,241.5 -0.5,233.5 -0.5,225.5C 11.4543,135.075 57.4543,68.242 137.5,25C 165.514,11.5012 194.847,3.00119 225.5,-0.5 Z"/></g>
<g><path style="opacity:0.995" fill="#d10f33" d="M 250.5,-0.5 C 258.167,-0.5 265.833,-0.5 273.5,-0.5C 362.269,10.9489 428.436,55.6156 472,133.5C 486.559,162.333 495.726,192.666 499.5,224.5C 499.5,232.5 499.5,240.5 499.5,248.5C 416.5,248.5 333.5,248.5 250.5,248.5C 250.5,165.5 250.5,82.5 250.5,-0.5 Z"/></g>
<g><path style="opacity:1" fill="#065393" d="M 125.5,121.5 C 140.167,122.167 154.833,122.833 169.5,123.5C 158.491,131.669 147.324,139.669 136,147.5C 135.333,148.833 135.333,150.167 136,151.5C 140.433,164.791 144.433,178.124 148,191.5C 136.16,182.583 124.16,173.916 112,165.5C 99.8405,173.916 87.8405,182.583 76,191.5C 79.3582,178.417 83.3582,165.417 88,152.5C 88.6667,150.833 88.6667,149.167 88,147.5C 76.8922,139.368 65.7255,131.368 54.5,123.5C 69.1667,122.833 83.8333,122.167 98.5,121.5C 102.292,107.291 106.792,93.2915 112,79.5C 117.195,93.2538 121.695,107.254 125.5,121.5 Z"/></g>
<g><path style="opacity:1" fill="#6093bb" d="M 98.5,121.5 C 83.8333,122.167 69.1667,122.833 54.5,123.5C 53.9569,123.44 53.6236,123.107 53.5,122.5C 68.4852,121.501 83.4852,121.167 98.5,121.5 Z"/></g>
<g><path style="opacity:1" fill="#6194bc" d="M 125.5,121.5 C 140.837,121.333 156.17,121.5 171.5,122C 170.956,122.717 170.289,123.217 169.5,123.5C 154.833,122.833 140.167,122.167 125.5,121.5 Z"/></g>
<g><path style="opacity:1" fill="#d52142" d="M 249.5,-0.5 C 249.833,-0.5 250.167,-0.5 250.5,-0.5C 250.5,82.5 250.5,165.5 250.5,248.5C 333.5,248.5 416.5,248.5 499.5,248.5C 499.5,248.833 499.5,249.167 499.5,249.5C 416.167,249.5 332.833,249.5 249.5,249.5C 249.5,166.167 249.5,82.8333 249.5,-0.5 Z"/></g>
<g><path style="opacity:0.995" fill="#fefefe" d="M 249.5,249.5 C 332.833,249.5 416.167,249.5 499.5,249.5C 499.5,257.833 499.5,266.167 499.5,274.5C 487.764,361.841 443.764,427.341 367.5,471C 338.093,486.083 307.093,495.583 274.5,499.5C 266.167,499.5 257.833,499.5 249.5,499.5C 249.5,416.167 249.5,332.833 249.5,249.5 Z"/></g>
<g><path style="opacity:0.995" fill="#005192" d="M -0.5,250.5 C 82.5,250.5 165.5,250.5 248.5,250.5C 248.5,333.5 248.5,416.5 248.5,499.5C 240.5,499.5 232.5,499.5 224.5,499.5C 132.596,487.072 65.4294,439.739 23,357.5C 10.7506,330.604 2.91724,302.604 -0.5,273.5C -0.5,265.833 -0.5,258.167 -0.5,250.5 Z"/></g>
<g><path style="opacity:1" fill="#125e9a" d="M -0.5,250.5 C -0.5,250.167 -0.5,249.833 -0.5,249.5C 82.8333,249.5 166.167,249.5 249.5,249.5C 249.5,332.833 249.5,416.167 249.5,499.5C 249.167,499.5 248.833,499.5 248.5,499.5C 248.5,416.5 248.5,333.5 248.5,250.5C 165.5,250.5 82.5,250.5 -0.5,250.5 Z"/></g>
<g><path style="opacity:1" fill="#d21635" d="M 386.5,296.5 C 388.468,298.939 389.801,301.773 390.5,305C 394.146,316.102 397.479,327.268 400.5,338.5C 415.504,338.333 430.504,338.5 445.5,339C 434.267,347.866 422.767,356.366 411,364.5C 414.428,378.626 418.595,392.626 423.5,406.5C 422.998,407.521 422.332,407.688 421.5,407C 410.247,398.459 398.747,390.293 387,382.5C 374.487,390.426 362.487,399.093 351,408.5C 354.563,395.135 358.563,381.801 363,368.5C 363.667,367.167 363.667,365.833 363,364.5C 351.589,355.878 340.089,347.378 328.5,339C 343.496,338.5 358.496,338.333 373.5,338.5C 377.432,324.37 381.766,310.37 386.5,296.5 Z"/></g>
</svg>
