<?xml version="1.0" encoding="UTF-8"?>
<!DOCTYPE svg PUBLIC "-//W3C//DTD SVG 1.1//EN" "http://www.w3.org/Graphics/SVG/1.1/DTD/svg11.dtd">
<svg xmlns="http://www.w3.org/2000/svg" version="1.1" width="500px" height="500px" style="shape-rendering:geometricPrecision; text-rendering:geometricPrecision; image-rendering:optimizeQuality; fill-rule:evenodd; clip-rule:evenodd" xmlns:xlink="http://www.w3.org/1999/xlink">
<g><path style="opacity:0.994" fill="#ce1225" d="M 225.5,-0.5 C 241.5,-0.5 257.5,-0.5 273.5,-0.5C 362.269,10.9489 428.436,55.6156 472,133.5C 486.559,162.333 495.726,192.666 499.5,224.5C 499.5,241.167 499.5,257.833 499.5,274.5C 494.387,321.19 477.72,363.19 449.5,400.5C 316.563,299.692 183.23,199.359 49.5,99.5C 75.8596,63.6346 109.526,36.8012 150.5,19C 174.691,8.87002 199.691,2.37002 225.5,-0.5 Z"/></g>
<g><path style="opacity:1" fill="#fbd016" d="M 426.5,300.5 C 430.167,299.833 433.833,299.167 437.5,298.5C 455.306,296.861 465.472,287.194 468,269.5C 469.674,259.213 468.007,249.547 463,240.5C 456.667,262.923 441.833,273.423 418.5,272C 413.214,270.359 408.547,267.692 404.5,264C 430.038,269.776 446.871,260.276 455,235.5C 455.667,232.167 455.667,228.833 455,225.5C 444.648,212.314 432.815,200.648 419.5,190.5C 418.614,191.325 418.281,192.325 418.5,193.5C 417.127,193.657 415.793,193.49 414.5,193C 409.715,189.941 404.715,187.441 399.5,185.5C 400.635,190.236 401.968,194.903 403.5,199.5C 402.07,199.579 400.736,199.246 399.5,198.5C 398.417,199.365 398.251,200.365 399,201.5C 402.231,207.399 406.231,212.732 411,217.5C 410.813,219.801 409.646,220.135 407.5,218.5C 406.417,219.365 406.251,220.365 407,221.5C 410.444,227.276 414.277,232.776 418.5,238C 415.937,238.154 413.437,237.654 411,236.5C 410.5,236.833 410,237.167 409.5,237.5C 411.869,240.561 413.369,243.894 414,247.5C 397.574,241.37 383.407,231.87 371.5,219C 370.4,218.568 369.733,219.068 369.5,220.5C 369.68,221.554 370.013,222.554 370.5,223.5C 370,223.833 369.5,224.167 369,224.5C 364.705,222.032 360.871,219.032 357.5,215.5C 357.44,214.957 357.107,214.624 356.5,214.5C 355.52,217.086 355.187,219.753 355.5,222.5C 355.44,223.043 355.107,223.376 354.5,223.5C 345.588,217.093 337.421,209.759 330,201.5C 325.648,193.741 323.314,185.408 323,176.5C 319.703,181.628 315.87,186.294 311.5,190.5C 311.218,186.963 311.218,183.296 311.5,179.5C 310.448,179.351 309.448,179.517 308.5,180C 304.667,183.833 300.833,187.667 297,191.5C 296.892,187.823 296.892,184.157 297,180.5C 292.685,183.981 288.518,187.647 284.5,191.5C 283.772,188.198 283.605,184.865 284,181.5C 281.021,183.644 278.188,185.978 275.5,188.5C 275.167,185.833 274.833,183.167 274.5,180.5C 270.664,182.584 266.997,184.917 263.5,187.5C 263.167,187 262.833,186.5 262.5,186C 263.791,183.95 264.291,181.783 264,179.5C 260.958,183.454 257.458,186.121 253.5,187.5C 259.439,172.442 267.772,158.942 278.5,147C 283.876,141.978 290.21,139.144 297.5,138.5C 300.903,138.561 304.236,139.061 307.5,140C 312.966,142.735 318.633,144.901 324.5,146.5C 331.723,144.081 332.39,140.247 326.5,135C 321.705,132.287 316.705,129.954 311.5,128C 310.167,125.333 308.167,123.333 305.5,122C 300.084,119.861 294.751,117.528 289.5,115C 294.869,114.838 300.202,115.338 305.5,116.5C 309.299,116.268 312.966,115.435 316.5,114C 319.5,113.333 322.5,113.333 325.5,114C 329.833,117.667 334.167,121.333 338.5,125C 341.819,127.505 345.486,128.505 349.5,128C 352.06,124.104 353.394,119.77 353.5,115C 350.434,101.484 352.6,88.9835 360,77.5C 368.296,66.8708 378.629,58.8708 391,53.5C 391.5,53.8333 392,54.1667 392.5,54.5C 390.5,58.5 388.5,62.5 386.5,66.5C 388.045,67.4519 389.712,67.7852 391.5,67.5C 391.244,69.9372 390.577,72.2706 389.5,74.5C 391.851,75.0118 393.851,76.0118 395.5,77.5C 393.833,80.1667 392.167,82.8333 390.5,85.5C 393.119,85.9756 395.119,87.3089 396.5,89.5C 394.192,91.4707 391.858,93.4707 389.5,95.5C 390.48,96.9814 391.647,98.3147 393,99.5C 393.667,100.5 393.667,101.5 393,102.5C 389.167,106.333 385.333,110.167 381.5,114C 398.32,105.364 415.32,105.364 432.5,114C 428.888,115.139 425.554,116.806 422.5,119C 432.035,123.273 440.368,129.273 447.5,137C 445.833,137.333 444.167,137.667 442.5,138C 450.182,145.864 456.516,154.697 461.5,164.5C 460.167,164.5 458.833,164.5 457.5,164.5C 462.832,172.12 465.499,180.454 465.5,189.5C 462.167,187.167 458.833,184.833 455.5,182.5C 455.872,185.391 455.872,188.391 455.5,191.5C 453.503,190.253 451.503,189.419 449.5,189C 458.45,200.171 463.283,213.005 464,227.5C 474.326,240.811 478.326,255.811 476,272.5C 471.585,292.401 459.085,302.735 438.5,303.5C 434.272,303.311 430.272,302.311 426.5,300.5 Z"/></g>
<g><path style="opacity:0.995" fill="#000000" d="M 49.5,99.5 C 183.23,199.359 316.563,299.692 449.5,400.5C 405.002,457.592 346.669,490.592 274.5,499.5C 257.833,499.5 241.167,499.5 224.5,499.5C 170.013,493.084 122.346,471.75 81.5,435.5C 81.7828,434.711 82.2828,434.044 83,433.5C 89.0248,438.359 95.1915,443.025 101.5,447.5C 101.833,447 102.167,446.5 102.5,446C 99.8151,438.631 97.9817,431.131 97,423.5C 102.711,418.949 108.544,414.616 114.5,410.5C 115.043,410.44 115.376,410.107 115.5,409.5C 107.193,408.502 98.8599,408.169 90.5,408.5C 88.3025,400.368 85.8025,392.368 83,384.5C 79.9874,392.702 77.4874,401.036 75.5,409.5C 69.1667,409.5 62.8333,409.5 56.5,409.5C 30.4032,378.302 13.0699,342.635 4.5,302.5C 5.4959,302.586 6.32924,302.252 7,301.5C 13.3333,306.5 19.6667,311.5 26,316.5C 24.6687,308.497 22.502,300.663 19.5,293C 25.8333,288 32.1667,283 38.5,278C 30.5,277.667 22.5,277.333 14.5,277C 12.0831,268.839 9.58309,260.672 7,252.5C 4.77887,259.007 2.27887,265.34 -0.5,271.5C -0.5,256.167 -0.5,240.833 -0.5,225.5C 3.5777,189.764 14.411,156.097 32,124.5C 36.9179,115.434 42.7512,107.1 49.5,99.5 Z"/></g>
<g><path style="opacity:1" fill="#f7f7f7" d="M 82.5,155.5 C 83.1174,155.611 83.6174,155.944 84,156.5C 86.4779,164.098 88.6446,171.764 90.5,179.5C 98.84,179.334 107.173,179.5 115.5,180C 109.243,184.713 103.076,189.546 97,194.5C 98.8709,202.449 100.538,210.449 102,218.5C 95.9372,213.433 89.6038,208.766 83,204.5C 76.3962,208.766 70.0628,213.433 64,218.5C 65.3703,210.696 67.5369,203.029 70.5,195.5C 64.3364,190.174 58.0031,185.008 51.5,180C 59.4931,179.5 67.4931,179.334 75.5,179.5C 77.8331,171.501 80.1664,163.501 82.5,155.5 Z"/></g>
<g><path style="opacity:1" fill="#d02225" d="M 419.5,181.5 C 424.636,184.07 429.969,186.07 435.5,187.5C 435.312,185.897 435.812,184.563 437,183.5C 445.586,192.346 451.252,202.68 454,214.5C 443.528,203.202 432.028,193.202 419.5,184.5C 418.438,183.575 418.438,182.575 419.5,181.5 Z"/></g>
<g><path style="opacity:1" fill="#e6741e" d="M 357.5,215.5 C 356.833,217.833 356.167,220.167 355.5,222.5C 355.187,219.753 355.52,217.086 356.5,214.5C 357.107,214.624 357.44,214.957 357.5,215.5 Z"/></g>
<g><path style="opacity:1" fill="#f7f7f7" d="M 166.5,269.5 C 174.5,270.167 182.5,270.833 190.5,271.5C 183.885,275.783 177.885,280.783 172.5,286.5C 175.034,294.367 177.034,302.033 178.5,309.5C 172.304,304.577 165.971,299.91 159.5,295.5C 153.111,299.047 147.111,303.214 141.5,308C 140.668,308.688 140.002,308.521 139.5,307.5C 141.679,300.452 144.012,293.452 146.5,286.5C 140.573,280.865 134.24,275.699 127.5,271C 135.493,270.5 143.493,270.334 151.5,270.5C 153.379,262.321 155.879,254.321 159,246.5C 161.991,253.974 164.491,261.641 166.5,269.5 Z"/></g>
<g><path style="opacity:0.975" fill="#f7f7f7" d="M 4.5,302.5 C 2.54057,292.759 0.873905,283.092 -0.5,273.5C -0.5,272.833 -0.5,272.167 -0.5,271.5C 2.27887,265.34 4.77887,259.007 7,252.5C 9.58309,260.672 12.0831,268.839 14.5,277C 22.5,277.333 30.5,277.667 38.5,278C 32.1667,283 25.8333,288 19.5,293C 22.502,300.663 24.6687,308.497 26,316.5C 19.6667,311.5 13.3333,306.5 7,301.5C 6.32924,302.252 5.4959,302.586 4.5,302.5 Z"/></g>
<g><path style="opacity:1" fill="#434343" d="M 166.5,269.5 C 174.86,269.169 183.193,269.502 191.5,270.5C 191.376,271.107 191.043,271.44 190.5,271.5C 182.5,270.833 174.5,270.167 166.5,269.5 Z"/></g>
<g><path style="opacity:1" fill="#e8801d" d="M 437.5,298.5 C 433.833,299.167 430.167,299.833 426.5,300.5C 425.711,300.217 425.044,299.717 424.5,299C 428.821,298.501 433.154,298.334 437.5,298.5 Z"/></g>
<g><path style="opacity:1" fill="#f1f1f1" d="M 116.5,332.5 C 119.19,335.547 120.524,339.213 120.5,343.5C 124.514,343.334 128.514,343.501 132.5,344C 130.093,346.285 127.593,348.451 125,350.5C 125.333,354.5 125.667,358.5 126,362.5C 123.281,360.271 120.447,358.271 117.5,356.5C 114.352,357.579 111.685,359.412 109.5,362C 108.668,362.688 108.002,362.521 107.5,361.5C 108.879,357.884 109.713,354.217 110,350.5C 107.167,348.333 104.333,346.167 101.5,344C 105.486,343.501 109.486,343.334 113.5,343.5C 114.297,339.777 115.297,336.11 116.5,332.5 Z"/></g>
<g><path style="opacity:0.979" fill="#f9f9f9" d="M 90.5,408.5 C 98.5,409.167 106.5,409.833 114.5,410.5C 108.544,414.616 102.711,418.949 97,423.5C 97.9817,431.131 99.8151,438.631 102.5,446C 102.167,446.5 101.833,447 101.5,447.5C 95.1915,443.025 89.0248,438.359 83,433.5C 82.2828,434.044 81.7828,434.711 81.5,435.5C 72.466,427.467 64.1326,418.8 56.5,409.5C 62.8333,409.5 69.1667,409.5 75.5,409.5C 77.4874,401.036 79.9874,392.702 83,384.5C 85.8025,392.368 88.3025,400.368 90.5,408.5 Z"/></g>
<g><path style="opacity:1" fill="#606060" d="M 90.5,408.5 C 98.8599,408.169 107.193,408.502 115.5,409.5C 115.376,410.107 115.043,410.44 114.5,410.5C 106.5,409.833 98.5,409.167 90.5,408.5 Z"/></g>
</svg>
