<?xml version="1.0" encoding="UTF-8"?>
<!DOCTYPE svg PUBLIC "-//W3C//DTD SVG 1.1//EN" "http://www.w3.org/Graphics/SVG/1.1/DTD/svg11.dtd">
<svg xmlns="http://www.w3.org/2000/svg" version="1.1" width="500px" height="500px" style="shape-rendering:geometricPrecision; text-rendering:geometricPrecision; image-rendering:optimizeQuality; fill-rule:evenodd; clip-rule:evenodd" xmlns:xlink="http://www.w3.org/1999/xlink">
<g><path style="opacity:0.993" fill="#d52b1e" d="M 225.5,-0.5 C 241.5,-0.5 257.5,-0.5 273.5,-0.5C 362.269,10.9489 428.436,55.6156 472,133.5C 477.625,144.077 482.125,155.077 485.5,166.5C 328.167,166.5 170.833,166.5 13.5,166.5C 43.991,84.513 101.324,31.3463 185.5,7C 198.832,3.72528 212.166,1.22528 225.5,-0.5 Z"/></g>
<g><path style="opacity:0.997" fill="#fefefe" d="M 13.5,166.5 C 170.833,166.5 328.167,166.5 485.5,166.5C 492.586,185.267 497.253,204.6 499.5,224.5C 499.5,241.167 499.5,257.833 499.5,274.5C 498.1,284.764 496.267,295.098 494,305.5C 492.031,314.9 489.198,323.9 485.5,332.5C 328.167,332.5 170.833,332.5 13.5,332.5C 6.28469,313.42 1.61802,293.754 -0.5,273.5C -0.5,257.5 -0.5,241.5 -0.5,225.5C 1.61802,205.246 6.28469,185.58 13.5,166.5 Z"/></g>
<g><path style="opacity:1" fill="#191919" d="M 239.5,184.5 C 276.503,182.372 301.003,198.705 313,233.5C 318.926,270.158 305.093,295.991 271.5,311C 238.361,320.29 212.194,310.79 193,282.5C 176.598,247.686 183.431,218.52 213.5,195C 221.599,189.807 230.266,186.307 239.5,184.5 Z"/></g>
<g><path style="opacity:1" fill="#f6f6f6" d="M 243.5,186.5 C 281.054,186.559 303.888,204.892 312,241.5C 313.186,279.961 295.019,303.461 257.5,312C 223.557,313.451 200.723,298.285 189,266.5C 182.443,231.782 194.943,206.615 226.5,191C 232.175,189 237.842,187.5 243.5,186.5 Z"/></g>
<g><path style="opacity:1" fill="#919191" d="M 240.5,197.5 C 240.842,196.662 241.508,196.328 242.5,196.5C 246.833,197.167 251.167,197.833 255.5,198.5C 253.167,198.5 250.833,198.5 248.5,198.5C 246.167,198.5 243.833,198.5 241.5,198.5C 241.5,197.833 241.167,197.5 240.5,197.5 Z"/></g>
<g><path style="opacity:1" fill="#eaeaea" d="M 241.5,198.5 C 243.833,198.5 246.167,198.5 248.5,198.5C 248.5,201.5 248.5,204.5 248.5,207.5C 250.924,207.808 253.257,207.474 255.5,206.5C 248.833,205.167 248.833,203.833 255.5,202.5C 254.271,201.719 252.938,201.219 251.5,201C 253.437,200.878 254.77,200.045 255.5,198.5C 256.5,198.5 257.5,198.5 258.5,198.5C 257.865,201.493 257.699,204.493 258,207.5C 259.441,208.26 260.941,208.926 262.5,209.5C 263.386,208.675 263.719,207.675 263.5,206.5C 262.5,206.5 261.5,206.5 260.5,206.5C 260.033,203.62 260.866,201.287 263,199.5C 267.224,200.51 271.057,202.177 274.5,204.5C 271.498,205.619 269.498,207.786 268.5,211C 270.07,212.836 271.57,212.67 273,210.5C 274.995,212.076 276.495,211.743 277.5,209.5C 278.167,208.833 278.833,208.167 279.5,207.5C 281.138,208.657 282.804,209.824 284.5,211C 281.221,211.973 278.221,213.473 275.5,215.5C 276.949,216.172 278.282,216.839 279.5,217.5C 279.5,218.5 279.5,219.5 279.5,220.5C 262.111,206.139 243.778,204.806 224.5,216.5C 224.5,216.167 224.5,215.833 224.5,215.5C 224.719,214.325 224.386,213.325 223.5,212.5C 222.148,213.518 221.148,214.851 220.5,216.5C 216.428,213.942 216.762,211.942 221.5,210.5C 219.905,209.566 218.239,209.566 216.5,210.5C 221.8,204.927 228.3,201.261 236,199.5C 236.945,199.905 237.612,200.572 238,201.5C 238.497,203.81 238.663,206.143 238.5,208.5C 243.9,208.929 246.4,206.596 246,201.5C 243.834,199.879 241.334,199.045 238.5,199C 239.448,198.517 240.448,198.351 241.5,198.5 Z"/></g>
<g><path style="opacity:1" fill="#1e1e1e" d="M 248.5,198.5 C 250.833,198.5 253.167,198.5 255.5,198.5C 254.77,200.045 253.437,200.878 251.5,201C 252.938,201.219 254.271,201.719 255.5,202.5C 248.833,203.833 248.833,205.167 255.5,206.5C 253.257,207.474 250.924,207.808 248.5,207.5C 248.5,204.5 248.5,201.5 248.5,198.5 Z"/></g>
<g><path style="opacity:1" fill="#2a2a2a" d="M 242.5,196.5 C 255.793,194.952 267.793,197.952 278.5,205.5C 277.167,205.167 275.833,204.833 274.5,204.5C 271.057,202.177 267.224,200.51 263,199.5C 260.866,201.287 260.033,203.62 260.5,206.5C 261.5,206.5 262.5,206.5 263.5,206.5C 263.719,207.675 263.386,208.675 262.5,209.5C 260.941,208.926 259.441,208.26 258,207.5C 257.699,204.493 257.865,201.493 258.5,198.5C 257.5,198.5 256.5,198.5 255.5,198.5C 251.167,197.833 246.833,197.167 242.5,196.5 Z"/></g>
<g><path style="opacity:1" fill="#242424" d="M 240.5,197.5 C 241.167,197.5 241.5,197.833 241.5,198.5C 240.448,198.351 239.448,198.517 238.5,199C 241.334,199.045 243.834,199.879 246,201.5C 246.4,206.596 243.9,208.929 238.5,208.5C 238.663,206.143 238.497,203.81 238,201.5C 237.612,200.572 236.945,199.905 236,199.5C 228.3,201.261 221.8,204.927 216.5,210.5C 213.5,211.5 211.5,213.5 210.5,216.5C 202.081,225.732 197.748,236.732 197.5,249.5C 198.114,255.903 199.114,262.236 200.5,268.5C 191.528,241.915 198.528,220.415 221.5,204C 227.346,200.329 233.68,198.163 240.5,197.5 Z"/></g>
<g><path style="opacity:1" fill="#d4d4d4" d="M 240.5,201.5 C 241.5,201.5 242.5,201.5 243.5,201.5C 243.5,202.833 243.5,204.167 243.5,205.5C 242.5,205.5 241.5,205.5 240.5,205.5C 240.5,204.167 240.5,202.833 240.5,201.5 Z"/></g>
<g><path style="opacity:1" fill="#191919" d="M 274.5,204.5 C 276.279,205.67 277.279,207.336 277.5,209.5C 276.495,211.743 274.995,212.076 273,210.5C 271.57,212.67 270.07,212.836 268.5,211C 269.498,207.786 271.498,205.619 274.5,204.5 Z"/></g>
<g><path style="opacity:1" fill="#838383" d="M 274.5,204.5 C 275.833,204.833 277.167,205.167 278.5,205.5C 278.833,206.167 279.167,206.833 279.5,207.5C 278.833,208.167 278.167,208.833 277.5,209.5C 277.279,207.336 276.279,205.67 274.5,204.5 Z"/></g>
<g><path style="opacity:1" fill="#232323" d="M 225.5,204.5 C 228.658,205.313 231.324,206.98 233.5,209.5C 232.895,211.481 231.895,211.815 230.5,210.5C 229.305,212.297 227.638,213.297 225.5,213.5C 225.5,210.5 225.5,207.5 225.5,204.5 Z"/></g>
<g><path style="opacity:1" fill="#222222" d="M 278.5,205.5 C 289.455,212.311 296.955,221.978 301,234.5C 303.471,246.362 302.804,258.029 299,269.5C 297.643,272.898 295.81,275.898 293.5,278.5C 293.539,277.417 293.873,276.417 294.5,275.5C 293.675,274.614 292.675,274.281 291.5,274.5C 292.263,273.732 293.263,273.232 294.5,273C 292.618,272.802 290.952,272.302 289.5,271.5C 291.857,271.663 294.19,271.497 296.5,271C 297.252,270.329 297.586,269.496 297.5,268.5C 298.573,267.749 298.74,266.749 298,265.5C 295.205,266.783 292.372,266.783 289.5,265.5C 291.636,264.148 291.97,262.482 290.5,260.5C 290.808,259.692 291.308,259.025 292,258.5C 294.333,260.5 296.667,262.5 299,264.5C 299.662,262.187 300.162,259.854 300.5,257.5C 298.143,257.663 295.81,257.497 293.5,257C 290.833,254.667 290.833,252.333 293.5,250C 295.81,249.503 298.143,249.337 300.5,249.5C 300.5,250.5 300.5,251.5 300.5,252.5C 298.076,252.192 295.743,252.526 293.5,253.5C 293.624,254.107 293.957,254.44 294.5,254.5C 296.556,255.216 298.723,255.883 301,256.5C 301.667,252.167 301.667,247.833 301,243.5C 300.085,244.328 299.419,245.328 299,246.5C 298.667,244.833 298.333,243.167 298,241.5C 294.667,239.833 293.333,240.833 294,244.5C 294.308,243.692 294.808,243.025 295.5,242.5C 296.429,243.689 296.762,245.022 296.5,246.5C 291.346,245.732 290.346,243.232 293.5,239C 296.025,238.104 298.192,238.604 300,240.5C 300.138,237.379 299.471,234.379 298,231.5C 295.984,233.684 293.817,235.684 291.5,237.5C 291.072,234.478 289.739,231.978 287.5,230C 290.482,229.502 293.482,229.335 296.5,229.5C 296.496,227.158 295.663,225.158 294,223.5C 292.556,225.155 290.722,225.822 288.5,225.5C 288.506,228.548 287.506,229.048 285.5,227C 288.471,223.088 288.138,222.255 284.5,224.5C 284.167,224 283.833,223.5 283.5,223C 285.615,221.047 287.615,218.881 289.5,216.5C 288.52,215.019 287.353,213.685 286,212.5C 284.472,215.417 283.139,218.417 282,221.5C 281.066,220.142 280.232,218.808 279.5,217.5C 278.282,216.839 276.949,216.172 275.5,215.5C 278.221,213.473 281.221,211.973 284.5,211C 282.804,209.824 281.138,208.657 279.5,207.5C 279.167,206.833 278.833,206.167 278.5,205.5 Z"/></g>
<g><path style="opacity:1" fill="#9a9a9a" d="M 273.5,207.5 C 275.337,207.639 275.67,208.306 274.5,209.5C 273.702,209.043 273.369,208.376 273.5,207.5 Z"/></g>
<g><path style="opacity:1" fill="#f4f5f5" d="M 210.5,251.5 C 210.5,249.5 210.5,247.5 210.5,245.5C 215.984,219.576 231.984,208.076 258.5,211C 281.715,218.917 291.548,235.083 288,259.5C 278.7,283.235 261.534,292.402 236.5,287C 220.386,280.599 211.719,268.766 210.5,251.5 Z"/></g>
<g><path style="opacity:1" fill="#1c1c1c" d="M 224.5,215.5 C 217.712,220.377 215.046,218.71 216.5,210.5C 218.239,209.566 219.905,209.566 221.5,210.5C 216.762,211.942 216.428,213.942 220.5,216.5C 221.148,214.851 222.148,213.518 223.5,212.5C 224.386,213.325 224.719,214.325 224.5,215.5 Z"/></g>
<g><path style="opacity:1" fill="#212121" d="M 279.5,220.5 C 290.864,233.889 293.531,248.889 287.5,265.5C 277.772,284.7 262.105,292.867 240.5,290C 230.512,287.19 222.512,281.69 216.5,273.5C 212.944,268.381 210.444,262.714 209,256.5C 207.698,257.085 206.531,257.751 205.5,258.5C 203.5,258.5 201.5,258.5 199.5,258.5C 199.5,256.167 199.5,253.833 199.5,251.5C 202.95,250.756 204.616,252.09 204.5,255.5C 205.833,255.5 207.167,255.5 208.5,255.5C 208.5,252.5 208.5,249.5 208.5,246.5C 209.167,248.167 209.833,249.833 210.5,251.5C 211.719,268.766 220.386,280.599 236.5,287C 261.534,292.402 278.7,283.235 288,259.5C 291.548,235.083 281.715,218.917 258.5,211C 231.984,208.076 215.984,219.576 210.5,245.5C 209.566,244.432 209.232,243.099 209.5,241.5C 210.15,239.565 210.483,237.565 210.5,235.5C 213.934,228.316 218.601,221.982 224.5,216.5C 243.778,204.806 262.111,206.139 279.5,220.5 Z"/></g>
<g><path style="opacity:1" fill="#a5a5a5" d="M 280.5,214.5 C 282.337,214.639 282.67,215.306 281.5,216.5C 280.702,216.043 280.369,215.376 280.5,214.5 Z"/></g>
<g><path style="opacity:1" fill="#8b948e" d="M 244.5,220.5 C 241.486,220.015 238.486,219.681 235.5,219.5C 238.464,217.082 241.798,216.915 245.5,219C 244.944,219.383 244.611,219.883 244.5,220.5 Z"/></g>
<g><path style="opacity:1" fill="#7c8d82" d="M 235.5,219.5 C 235.5,219.833 235.5,220.167 235.5,220.5C 233.299,221.739 231.132,223.072 229,224.5C 228.768,223.263 228.268,222.263 227.5,221.5C 229.979,219.546 232.646,218.88 235.5,219.5 Z"/></g>
<g><path style="opacity:1" fill="#1e4728" d="M 235.5,219.5 C 238.486,219.681 241.486,220.015 244.5,220.5C 249.592,220.497 249.592,221.33 244.5,223C 244.833,223.333 245.167,223.667 245.5,224C 242.763,225.076 240.096,226.243 237.5,227.5C 237.414,226.504 237.748,225.671 238.5,225C 236.624,224.082 235.624,222.582 235.5,220.5C 235.5,220.167 235.5,219.833 235.5,219.5 Z"/></g>
<g><path style="opacity:1" fill="#e5e5e5" d="M 288.5,222.5 C 289.077,221.227 289.743,221.227 290.5,222.5C 290.03,223.463 289.363,223.463 288.5,222.5 Z"/></g>
<g><path style="opacity:1" fill="#a4aca7" d="M 227.5,222.5 C 227.229,224.43 226.229,225.764 224.5,226.5C 223.533,227.806 222.199,228.473 220.5,228.5C 220.633,231.925 219.967,232.258 218.5,229.5C 220.255,227.012 222.255,224.678 224.5,222.5C 225.527,221.209 226.527,221.209 227.5,222.5 Z"/></g>
<g><path style="opacity:1" fill="#095d25" d="M 235.5,220.5 C 235.624,222.582 236.624,224.082 238.5,225C 237.748,225.671 237.414,226.504 237.5,227.5C 235.77,228.026 234.436,229.026 233.5,230.5C 231.16,231.086 228.993,232.086 227,233.5C 226.292,232.619 225.458,231.953 224.5,231.5C 225.071,230.027 225.071,228.36 224.5,226.5C 226.229,225.764 227.229,224.43 227.5,222.5C 227.5,222.167 227.5,221.833 227.5,221.5C 228.268,222.263 228.768,223.263 229,224.5C 231.132,223.072 233.299,221.739 235.5,220.5 Z"/></g>
<g><path style="opacity:1" fill="#dcdcdc" d="M 216.5,210.5 C 215.046,218.71 217.712,220.377 224.5,215.5C 224.5,215.833 224.5,216.167 224.5,216.5C 218.601,221.982 213.934,228.316 210.5,235.5C 210.483,237.565 210.15,239.565 209.5,241.5C 208.833,241.833 208.167,242.167 207.5,242.5C 206.508,240.974 205.008,240.307 203,240.5C 201.833,240.833 200.667,241.167 199.5,241.5C 201.396,242.466 203.396,242.799 205.5,242.5C 205.5,243.5 205.5,244.5 205.5,245.5C 203.5,245.5 201.5,245.5 199.5,245.5C 199.5,246.5 199.5,247.5 199.5,248.5C 201.857,248.663 204.19,248.497 206.5,248C 207.056,247.617 207.389,247.117 207.5,246.5C 207.833,246.5 208.167,246.5 208.5,246.5C 208.5,249.5 208.5,252.5 208.5,255.5C 207.167,255.5 205.833,255.5 204.5,255.5C 204.616,252.09 202.95,250.756 199.5,251.5C 199.5,253.833 199.5,256.167 199.5,258.5C 201.5,258.5 203.5,258.5 205.5,258.5C 206.492,258.328 207.158,258.662 207.5,259.5C 209.175,264.676 208.341,265.343 205,261.5C 204.456,266.518 203.289,266.518 201.5,261.5C 200.879,263.998 201.545,266.332 203.5,268.5C 205.729,267.423 208.063,266.756 210.5,266.5C 210.5,266.833 210.5,267.167 210.5,267.5C 209.656,269.759 207.989,270.759 205.5,270.5C 205.287,273.451 205.954,276.118 207.5,278.5C 207.5,278.833 207.5,279.167 207.5,279.5C 204.917,276.003 202.584,272.336 200.5,268.5C 199.114,262.236 198.114,255.903 197.5,249.5C 197.748,236.732 202.081,225.732 210.5,216.5C 211.5,213.5 213.5,211.5 216.5,210.5 Z"/></g>
<g><path style="opacity:1" fill="#191919" d="M 213.5,223.5 C 214.376,223.369 215.043,223.702 215.5,224.5C 212.815,230.835 209.482,231.169 205.5,225.5C 207.588,224.511 209.588,224.844 211.5,226.5C 212.425,225.643 213.092,224.643 213.5,223.5 Z"/></g>
<g><path style="opacity:1" fill="#171717" d="M 210.5,216.5 C 213.655,216.984 215.988,218.651 217.5,221.5C 213.943,221.99 211.609,220.323 210.5,216.5 Z"/></g>
<g><path style="opacity:1" fill="#d9d9d9" d="M 294.5,254.5 C 297.082,254.975 299.082,254.308 300.5,252.5C 300.5,251.5 300.5,250.5 300.5,249.5C 298.143,249.337 295.81,249.503 293.5,250C 290.833,252.333 290.833,254.667 293.5,257C 295.81,257.497 298.143,257.663 300.5,257.5C 300.162,259.854 299.662,262.187 299,264.5C 296.667,262.5 294.333,260.5 292,258.5C 291.308,259.025 290.808,259.692 290.5,260.5C 291.97,262.482 291.636,264.148 289.5,265.5C 292.372,266.783 295.205,266.783 298,265.5C 298.74,266.749 298.573,267.749 297.5,268.5C 294.037,267.989 290.704,266.989 287.5,265.5C 293.531,248.889 290.864,233.889 279.5,220.5C 279.5,219.5 279.5,218.5 279.5,217.5C 280.232,218.808 281.066,220.142 282,221.5C 283.139,218.417 284.472,215.417 286,212.5C 287.353,213.685 288.52,215.019 289.5,216.5C 287.615,218.881 285.615,221.047 283.5,223C 283.833,223.5 284.167,224 284.5,224.5C 288.138,222.255 288.471,223.088 285.5,227C 287.506,229.048 288.506,228.548 288.5,225.5C 290.722,225.822 292.556,225.155 294,223.5C 295.663,225.158 296.496,227.158 296.5,229.5C 293.482,229.335 290.482,229.502 287.5,230C 289.739,231.978 291.072,234.478 291.5,237.5C 293.817,235.684 295.984,233.684 298,231.5C 299.471,234.379 300.138,237.379 300,240.5C 298.192,238.604 296.025,238.104 293.5,239C 290.346,243.232 291.346,245.732 296.5,246.5C 296.762,245.022 296.429,243.689 295.5,242.5C 294.808,243.025 294.308,243.692 294,244.5C 293.333,240.833 294.667,239.833 298,241.5C 298.333,243.167 298.667,244.833 299,246.5C 299.419,245.328 300.085,244.328 301,243.5C 301.667,247.833 301.667,252.167 301,256.5C 298.723,255.883 296.556,255.216 294.5,254.5 Z"/></g>
<g><path style="opacity:1" fill="#151515" d="M 210.5,235.5 C 208.57,238.962 205.904,239.462 202.5,237C 201.049,233.972 201.716,231.472 204.5,229.5C 205.478,229.977 206.311,230.643 207,231.5C 207.718,230.549 208.551,230.383 209.5,231C 210.38,232.356 210.714,233.856 210.5,235.5 Z"/></g>
<g><path style="opacity:1" fill="#2d8644" d="M 279.5,230.5 C 281.934,231.354 281.767,232.354 279,233.5C 278.53,232.423 278.697,231.423 279.5,230.5 Z"/></g>
<g><path style="opacity:1" fill="#aeaeae" d="M 203.5,232.5 C 205.337,232.639 205.67,233.306 204.5,234.5C 203.702,234.043 203.369,233.376 203.5,232.5 Z"/></g>
<g><path style="opacity:1" fill="#dedede" d="M 206.5,233.5 C 208.337,233.639 208.67,234.306 207.5,235.5C 206.702,235.043 206.369,234.376 206.5,233.5 Z"/></g>
<g><path style="opacity:1" fill="#486451" d="M 224.5,226.5 C 225.071,228.36 225.071,230.027 224.5,231.5C 224.167,231.5 223.833,231.5 223.5,231.5C 223.154,229.295 222.487,229.128 221.5,231C 219.556,234.221 217.889,237.555 216.5,241C 217.883,242.461 217.549,243.294 215.5,243.5C 214.957,243.44 214.624,243.107 214.5,242.5C 216.173,238.184 217.507,233.851 218.5,229.5C 219.967,232.258 220.633,231.925 220.5,228.5C 222.199,228.473 223.533,227.806 224.5,226.5 Z"/></g>
<g><path style="opacity:1" fill="#827a4e" d="M 250.5,238.5 C 249.833,238.5 249.167,238.5 248.5,238.5C 249.167,235.833 249.833,235.833 250.5,238.5 Z"/></g>
<g><path style="opacity:1" fill="#154822" d="M 233.5,230.5 C 227.929,234.648 225.262,240.314 225.5,247.5C 226.174,250.842 226.84,254.175 227.5,257.5C 223.757,255.209 222.757,251.709 224.5,247C 224.333,244.833 224.167,242.667 224,240.5C 223.346,241.696 222.846,241.696 222.5,240.5C 224.272,239.73 225.272,238.397 225.5,236.5C 224.954,234.865 224.62,233.199 224.5,231.5C 225.458,231.953 226.292,232.619 227,233.5C 228.993,232.086 231.16,231.086 233.5,230.5 Z"/></g>
<g><path style="opacity:1" fill="#1a1a1a" d="M 207.5,242.5 C 207.5,243.833 207.5,245.167 207.5,246.5C 207.389,247.117 207.056,247.617 206.5,248C 204.19,248.497 201.857,248.663 199.5,248.5C 199.5,247.5 199.5,246.5 199.5,245.5C 201.5,245.5 203.5,245.5 205.5,245.5C 205.5,244.5 205.5,243.5 205.5,242.5C 203.396,242.799 201.396,242.466 199.5,241.5C 200.667,241.167 201.833,240.833 203,240.5C 205.008,240.307 206.508,240.974 207.5,242.5 Z"/></g>
<g><path style="opacity:1" fill="#636363" d="M 209.5,241.5 C 209.232,243.099 209.566,244.432 210.5,245.5C 210.5,247.5 210.5,249.5 210.5,251.5C 209.833,249.833 209.167,248.167 208.5,246.5C 208.167,246.5 207.833,246.5 207.5,246.5C 207.5,245.167 207.5,243.833 207.5,242.5C 208.167,242.167 208.833,241.833 209.5,241.5 Z"/></g>
<g><path style="opacity:1" fill="#155126" d="M 223.5,231.5 C 221.688,234.368 220.021,237.368 218.5,240.5C 219.833,242.5 221.167,244.5 222.5,246.5C 221.047,246.06 219.881,246.726 219,248.5C 218.202,243.635 217.368,243.969 216.5,249.5C 215.522,249.189 214.855,248.522 214.5,247.5C 215.167,247.167 215.833,246.833 216.5,246.5C 215.873,245.583 215.539,244.583 215.5,243.5C 217.549,243.294 217.883,242.461 216.5,241C 217.889,237.555 219.556,234.221 221.5,231C 222.487,229.128 223.154,229.295 223.5,231.5 Z"/></g>
<g><path style="opacity:1" fill="#ecd108" d="M 248.5,238.5 C 249.167,238.5 249.833,238.5 250.5,238.5C 251.363,240.421 252.029,242.421 252.5,244.5C 254.833,245.167 257.167,245.833 259.5,246.5C 257.548,247.785 255.882,249.451 254.5,251.5C 255.752,253.735 256.252,256.069 256,258.5C 253.914,256.751 251.581,255.417 249,254.5C 247.697,254.978 246.531,255.645 245.5,256.5C 244.167,256.5 243.5,255.833 243.5,254.5C 243.539,253.417 243.873,252.417 244.5,251.5C 243.118,249.451 241.452,247.785 239.5,246.5C 241.833,245.833 244.167,245.167 246.5,244.5C 247.738,242.786 248.405,240.786 248.5,238.5 Z"/></g>
<g><path style="opacity:1" fill="#928d75" d="M 246.5,244.5 C 244.167,245.167 241.833,245.833 239.5,246.5C 238.624,246.631 237.957,246.298 237.5,245.5C 240.428,244.516 243.428,244.183 246.5,244.5 Z"/></g>
<g><path style="opacity:1" fill="#908a6f" d="M 252.5,244.5 C 255.572,244.183 258.572,244.516 261.5,245.5C 261.043,246.298 260.376,246.631 259.5,246.5C 257.167,245.833 254.833,245.167 252.5,244.5 Z"/></g>
<g><path style="opacity:1" fill="#4e845e" d="M 281.5,243.5 C 281.389,244.117 281.056,244.617 280.5,245C 282.002,245.583 283.335,246.416 284.5,247.5C 284.376,248.107 284.043,248.44 283.5,248.5C 280.996,248.186 278.996,247.186 277.5,245.5C 278.577,244.295 279.91,243.628 281.5,243.5 Z"/></g>
<g><path style="opacity:1" fill="#188437" d="M 281.5,243.5 C 279.91,243.628 278.577,244.295 277.5,245.5C 278.996,247.186 280.996,248.186 283.5,248.5C 282.847,249.807 282.18,251.14 281.5,252.5C 285.081,253.356 285.247,254.356 282,255.5C 280.462,254.251 279.295,254.418 278.5,256C 279.736,256.326 281.07,257.326 282.5,259C 280.973,261.69 278.973,263.857 276.5,265.5C 272.674,266.48 272.674,267.313 276.5,268C 276.167,268.333 275.833,268.667 275.5,269C 276.308,269.308 276.975,269.808 277.5,270.5C 273.507,272.72 269.174,273.886 264.5,274C 264.167,274.333 263.833,274.667 263.5,275C 265.886,275.284 266.552,276.284 265.5,278C 261.775,278.76 258.108,278.593 254.5,277.5C 253.692,277.808 253.025,278.308 252.5,279C 255.77,280.66 259.103,280.994 262.5,280C 258.958,284.343 255.125,284.51 251,280.5C 248.551,281.641 246.051,282.641 243.5,283.5C 241.583,283.246 240.249,282.246 239.5,280.5C 242.462,280.828 245.462,280.328 248.5,279C 247.022,276.961 245.022,276.128 242.5,276.5C 241.127,276.657 239.793,276.49 238.5,276C 239.167,275.667 239.833,275.333 240.5,275C 235.63,273.915 235.964,272.748 241.5,271.5C 244.73,274.448 248.396,276.282 252.5,277C 255.022,272.966 258.022,269.299 261.5,266C 262.742,265.689 263.742,266.189 264.5,267.5C 265.921,264.991 267.588,262.657 269.5,260.5C 270.086,260.709 270.586,261.043 271,261.5C 271.333,259.167 271.667,256.833 272,254.5C 272.9,253.23 274.066,252.23 275.5,251.5C 273.85,248.652 274.184,246.152 276.5,244C 274.981,242.649 273.648,241.149 272.5,239.5C 273.025,238.808 273.692,238.308 274.5,238C 273.322,237.033 271.989,236.533 270.5,236.5C 271.025,235.808 271.692,235.308 272.5,235C 270.983,233.315 269.316,231.815 267.5,230.5C 265.659,228.488 264.659,226.155 264.5,223.5C 257.665,224.398 255.998,222.398 259.5,217.5C 261.5,219.167 263.5,220.833 265.5,222.5C 266.768,221.572 268.101,221.405 269.5,222C 270.515,224.265 271.682,226.099 273,227.5C 274.049,225.893 275.549,225.227 277.5,225.5C 277.335,229.182 277.501,232.848 278,236.5C 278.324,234.431 279.158,234.098 280.5,235.5C 281.314,237.766 281.814,240.1 282,242.5C 282.893,241.289 283.726,241.289 284.5,242.5C 283.675,243.386 282.675,243.719 281.5,243.5 Z"/></g>
<g><path style="opacity:1" fill="#f0f0f0" d="M 300.5,252.5 C 299.082,254.308 297.082,254.975 294.5,254.5C 293.957,254.44 293.624,254.107 293.5,253.5C 295.743,252.526 298.076,252.192 300.5,252.5 Z"/></g>
<g><path style="opacity:1" fill="#0b6127" d="M 223.5,231.5 C 223.833,231.5 224.167,231.5 224.5,231.5C 224.62,233.199 224.954,234.865 225.5,236.5C 225.272,238.397 224.272,239.73 222.5,240.5C 222.846,241.696 223.346,241.696 224,240.5C 224.167,242.667 224.333,244.833 224.5,247C 222.757,251.709 223.757,255.209 227.5,257.5C 229.081,259.674 230.581,262.007 232,264.5C 235.609,266.282 238.776,268.615 241.5,271.5C 235.964,272.748 235.63,273.915 240.5,275C 239.833,275.333 239.167,275.667 238.5,276C 239.793,276.49 241.127,276.657 242.5,276.5C 241.828,277.267 240.995,277.934 240,278.5C 237.407,277.254 234.907,275.921 232.5,274.5C 230.574,273.514 228.574,272.514 226.5,271.5C 225.395,270.4 224.062,269.733 222.5,269.5C 222.649,267.649 222.649,265.816 222.5,264C 221.756,262.961 220.756,262.461 219.5,262.5C 218.833,262.5 218.5,262.167 218.5,261.5C 218.783,260.784 219.116,259.951 219.5,259C 218.445,256.051 217.445,253.218 216.5,250.5C 216.5,250.167 216.5,249.833 216.5,249.5C 217.368,243.969 218.202,243.635 219,248.5C 219.881,246.726 221.047,246.06 222.5,246.5C 221.167,244.5 219.833,242.5 218.5,240.5C 220.021,237.368 221.688,234.368 223.5,231.5 Z"/></g>
<g><path style="opacity:1" fill="#a1aea6" d="M 216.5,250.5 C 217.445,253.218 218.445,256.051 219.5,259C 219.116,259.951 218.783,260.784 218.5,261.5C 216.621,261.607 216.288,261.107 217.5,260C 216.272,259.221 215.272,258.221 214.5,257C 215.412,254.466 216.078,252.299 216.5,250.5 Z"/></g>
<g><path style="opacity:1" fill="#9b8b2c" d="M 243.5,254.5 C 243.5,255.833 244.167,256.5 245.5,256.5C 241.164,260.523 240.497,259.856 243.5,254.5 Z"/></g>
<g><path style="opacity:1" fill="#111111" d="M 207.5,259.5 C 209.065,261.509 210.065,263.843 210.5,266.5C 208.063,266.756 205.729,267.423 203.5,268.5C 201.545,266.332 200.879,263.998 201.5,261.5C 203.289,266.518 204.456,266.518 205,261.5C 208.341,265.343 209.175,264.676 207.5,259.5 Z"/></g>
<g><path style="opacity:1" fill="#b1b1b1" d="M 216.5,273.5 C 216.167,273.5 215.833,273.5 215.5,273.5C 213.894,272.641 212.227,272.474 210.5,273C 212.863,270.916 212.863,269.083 210.5,267.5C 210.5,267.167 210.5,266.833 210.5,266.5C 210.065,263.843 209.065,261.509 207.5,259.5C 207.158,258.662 206.492,258.328 205.5,258.5C 206.531,257.751 207.698,257.085 209,256.5C 210.444,262.714 212.944,268.381 216.5,273.5 Z"/></g>
<g><path style="opacity:1" fill="#809486" d="M 219.5,262.5 C 220.756,262.461 221.756,262.961 222.5,264C 222.649,265.816 222.649,267.649 222.5,269.5C 220.974,268.895 219.974,267.729 219.5,266C 220.171,265.014 220.171,263.847 219.5,262.5 Z"/></g>
<g><path style="opacity:1" fill="#20873e" d="M 276.5,265.5 C 277.978,265.238 279.311,265.571 280.5,266.5C 278.969,267.421 277.635,267.088 276.5,265.5 Z"/></g>
<g><path style="opacity:1" fill="#ccd1ce" d="M 261.5,269.5 C 263.337,269.639 263.67,270.306 262.5,271.5C 261.702,271.043 261.369,270.376 261.5,269.5 Z"/></g>
<g><path style="opacity:1" fill="#151515" d="M 289.5,271.5 C 290.952,272.302 292.618,272.802 294.5,273C 293.263,273.232 292.263,273.732 291.5,274.5C 291.749,279.706 290.916,279.706 289,274.5C 284.39,271.983 284.557,270.983 289.5,271.5 Z"/></g>
<g><path style="opacity:1" fill="#f7f7f7" d="M 287.5,265.5 C 290.704,266.989 294.037,267.989 297.5,268.5C 297.586,269.496 297.252,270.329 296.5,271C 294.19,271.497 291.857,271.663 289.5,271.5C 284.557,270.983 284.39,271.983 289,274.5C 290.916,279.706 291.749,279.706 291.5,274.5C 292.675,274.281 293.675,274.614 294.5,275.5C 293.873,276.417 293.539,277.417 293.5,278.5C 273.876,301.821 250.209,306.988 222.5,294C 216.336,290.335 211.336,285.502 207.5,279.5C 207.5,279.167 207.5,278.833 207.5,278.5C 210.511,277.331 213.178,275.664 215.5,273.5C 215.833,273.5 216.167,273.5 216.5,273.5C 222.512,281.69 230.512,287.19 240.5,290C 262.105,292.867 277.772,284.7 287.5,265.5 Z"/></g>
<g><path style="opacity:1" fill="#181818" d="M 210.5,267.5 C 212.863,269.083 212.863,270.916 210.5,273C 212.227,272.474 213.894,272.641 215.5,273.5C 213.178,275.664 210.511,277.331 207.5,278.5C 205.954,276.118 205.287,273.451 205.5,270.5C 207.989,270.759 209.656,269.759 210.5,267.5 Z"/></g>
<g><path style="opacity:1" fill="#839c8c" d="M 226.5,271.5 C 228.574,272.514 230.574,273.514 232.5,274.5C 229.68,274.752 227.014,274.252 224.5,273C 225.416,272.722 226.082,272.222 226.5,271.5 Z"/></g>
<g><path style="opacity:1" fill="#9e9e9e" d="M 207.5,272.5 C 209.332,273.14 209.665,274.14 208.5,275.5C 207.614,274.675 207.281,273.675 207.5,272.5 Z"/></g>
<g><path style="opacity:1" fill="#20883b" d="M 267.5,275.5 C 269.07,274.441 270.403,274.941 271.5,277C 269.807,277.484 268.473,276.984 267.5,275.5 Z"/></g>
<g><path style="opacity:1" fill="#b3bfb6" d="M 232.5,274.5 C 234.907,275.921 237.407,277.254 240,278.5C 240.995,277.934 241.828,277.267 242.5,276.5C 245.022,276.128 247.022,276.961 248.5,279C 245.462,280.328 242.462,280.828 239.5,280.5C 236.125,280.355 232.792,279.188 229.5,277C 230.571,276.148 231.571,275.315 232.5,274.5 Z"/></g>
<g><path style="opacity:1" fill="#252525" d="M 200.5,268.5 C 202.584,272.336 204.917,276.003 207.5,279.5C 211.336,285.502 216.336,290.335 222.5,294C 250.209,306.988 273.876,301.821 293.5,278.5C 288.167,288.324 280.167,295.157 269.5,299C 242.362,307.668 220.528,300.501 204,277.5C 202.259,274.691 201.092,271.691 200.5,268.5 Z"/></g>
<g><path style="opacity:0.997" fill="#3349af" d="M 13.5,332.5 C 170.833,332.5 328.167,332.5 485.5,332.5C 485.5,333.167 485.5,333.833 485.5,334.5C 328.167,334.5 170.833,334.5 13.5,334.5C 13.5,333.833 13.5,333.167 13.5,332.5 Z"/></g>
<g><path style="opacity:0.993" fill="#0037a8" d="M 13.5,334.5 C 170.833,334.5 328.167,334.5 485.5,334.5C 458.205,405.629 409.205,455.462 338.5,484C 317.652,491.713 296.319,496.88 274.5,499.5C 257.833,499.5 241.167,499.5 224.5,499.5C 136.144,487.759 70.3107,443.092 27,365.5C 21.9351,355.374 17.4351,345.041 13.5,334.5 Z"/></g>
</svg>
