<?xml version="1.0" encoding="UTF-8"?>
<!DOCTYPE svg PUBLIC "-//W3C//DTD SVG 1.1//EN" "http://www.w3.org/Graphics/SVG/1.1/DTD/svg11.dtd">
<svg xmlns="http://www.w3.org/2000/svg" version="1.1" width="500px" height="500px" style="shape-rendering:geometricPrecision; text-rendering:geometricPrecision; image-rendering:optimizeQuality; fill-rule:evenodd; clip-rule:evenodd" xmlns:xlink="http://www.w3.org/1999/xlink">
<g><path style="opacity:0.993" fill="#0038a8" d="M 225.5,-0.5 C 241.5,-0.5 257.5,-0.5 273.5,-0.5C 362.269,10.9489 428.436,55.6156 472,133.5C 486.559,162.333 495.726,192.666 499.5,224.5C 499.5,232.833 499.5,241.167 499.5,249.5C 476.833,249.5 454.167,249.5 431.5,249.5C 319.726,184.441 207.726,119.608 95.5,55C 94.7476,54.3292 94.4142,53.4959 94.5,52.5C 133.095,22.5186 176.762,4.85194 225.5,-0.5 Z"/></g>
<g><path style="opacity:0.996" fill="#fefefd" d="M 94.5,52.5 C 94.4142,53.4959 94.7476,54.3292 95.5,55C 207.726,119.608 319.726,184.441 431.5,249.5C 319.092,315.233 206.425,380.566 93.5,445.5C 39.1992,400.911 7.86583,343.578 -0.5,273.5C -0.5,257.5 -0.5,241.5 -0.5,225.5C 7.95761,154.905 39.6243,97.2386 94.5,52.5 Z"/></g>
<g><path style="opacity:1" fill="#fcd11e" d="M 154.5,144.5 C 158.725,146.055 161.058,149.055 161.5,153.5C 160.168,168.814 159.168,184.147 158.5,199.5C 159.5,199.5 160.5,199.5 161.5,199.5C 163.251,184.744 165.417,170.078 168,155.5C 170.111,157.102 171.611,159.102 172.5,161.5C 170.166,173.501 167.833,185.501 165.5,197.5C 165.57,198.772 165.903,199.938 166.5,201C 172.373,202.787 178.04,204.787 183.5,207C 190.791,196.252 197.958,185.419 205,174.5C 207.466,173.223 209.966,173.223 212.5,174.5C 203.833,186.167 195.167,197.833 186.5,209.5C 186.808,210.308 187.308,210.975 188,211.5C 198.833,199.333 209.667,187.167 220.5,175C 223.482,174.502 226.482,174.335 229.5,174.5C 229.665,177.85 229.498,181.183 229,184.5C 218.26,194.118 207.427,203.618 196.5,213C 194.393,214.264 193.393,216.097 193.5,218.5C 194.552,218.649 195.552,218.483 196.5,218C 207.139,209.016 218.139,200.516 229.5,192.5C 230.777,195.034 230.777,197.534 229.5,200C 218.456,206.85 207.789,214.183 197.5,222C 200.243,227.984 203.076,233.817 206,239.5C 218.522,236.896 231.022,234.229 243.5,231.5C 245.65,233.149 247.65,234.982 249.5,237C 236.833,238.667 224.167,240.333 211.5,242C 209.059,242.036 207.059,242.869 205.5,244.5C 208.167,244.833 210.833,245.167 213.5,245.5C 227.484,244.251 241.484,243.751 255.5,244C 257.351,245.684 259.018,247.517 260.5,249.5C 259.018,251.483 257.351,253.316 255.5,255C 238.505,254.691 221.505,254.191 204.5,253.5C 204.5,254.5 204.5,255.5 204.5,256.5C 219.538,257.93 234.538,259.764 249.5,262C 247.65,264.018 245.65,265.851 243.5,267.5C 230.243,264.449 216.91,261.782 203.5,259.5C 202.603,265.691 200.603,271.525 197.5,277C 207.789,284.817 218.456,292.15 229.5,299C 230.61,301.737 230.777,304.571 230,307.5C 218.333,298.5 206.667,289.5 195,280.5C 194.308,281.025 193.808,281.692 193.5,282.5C 205.158,293.323 216.992,303.99 229,314.5C 229.498,317.817 229.665,321.15 229.5,324.5C 226.482,324.665 223.482,324.498 220.5,324C 209.667,311.833 198.833,299.667 188,287.5C 186.635,288.593 186.301,289.926 187,291.5C 195.984,302.139 204.484,313.139 212.5,324.5C 209.966,325.777 207.466,325.777 205,324.5C 197.958,313.581 190.791,302.748 183.5,292C 177.811,294.622 171.811,296.789 165.5,298.5C 167.895,311.311 170.229,324.145 172.5,337C 171.838,339.676 170.338,341.843 168,343.5C 165.506,328.886 163.34,314.219 161.5,299.5C 160.5,299.5 159.5,299.5 158.5,299.5C 159.667,316.168 160.5,332.834 161,349.5C 159.281,351.557 157.281,353.224 155,354.5C 150.566,352.579 148.4,349.245 148.5,344.5C 149.721,329.511 150.721,314.511 151.5,299.5C 150.5,299.5 149.5,299.5 148.5,299.5C 146.632,314.18 144.632,328.846 142.5,343.5C 139.621,341.966 137.955,339.633 137.5,336.5C 140.168,324.157 142.835,311.824 145.5,299.5C 139.221,297.409 133.221,294.743 127.5,291.5C 120.086,301.994 112.919,312.661 106,323.5C 103.445,325.65 100.612,325.983 97.5,324.5C 106.092,312.986 114.925,301.652 124,290.5C 124.27,289.068 123.604,288.068 122,287.5C 111.167,299.667 100.333,311.833 89.5,324C 86.5184,324.498 83.5184,324.665 80.5,324.5C 80.335,321.15 80.5017,317.817 81,314.5C 92.6667,304.167 104.333,293.833 116,283.5C 116.167,283 116.333,282.5 116.5,282C 116.15,280.743 115.483,280.409 114.5,281C 103,289.833 91.5,298.667 80,307.5C 79.2228,304.571 79.3895,301.737 80.5,299C 91.772,292.059 102.772,284.726 113.5,277C 109.502,271.841 107.169,266.008 106.5,259.5C 93.0399,261.525 79.7066,264.192 66.5,267.5C 64.5,266.167 62.8333,264.5 61.5,262.5C 76.0166,259.519 90.6833,257.519 105.5,256.5C 105.5,255.167 105.5,253.833 105.5,252.5C 88.5308,254.093 71.5308,254.927 54.5,255C 52.6487,253.316 50.982,251.483 49.5,249.5C 52.5917,244.079 57.2584,242.079 63.5,243.5C 77.5363,244.236 91.5363,245.236 105.5,246.5C 105.5,245.167 105.5,243.833 105.5,242.5C 90.3718,241.648 75.3718,239.815 60.5,237C 62.3501,234.982 64.3501,233.149 66.5,231.5C 79.757,234.551 93.0903,237.218 106.5,239.5C 107.169,232.992 109.502,227.159 113.5,222C 102.672,214.419 91.672,207.085 80.5,200C 79.3895,197.263 79.2228,194.429 80,191.5C 91.6913,200.692 103.525,209.692 115.5,218.5C 116.583,217.635 116.749,216.635 116,215.5C 104.333,205.167 92.6667,194.833 81,184.5C 80.5017,181.183 80.335,177.85 80.5,174.5C 83.5184,174.335 86.5184,174.502 89.5,175C 100.344,187.342 111.344,199.508 122.5,211.5C 124.101,210.965 124.601,209.965 124,208.5C 114.925,197.348 106.092,186.014 97.5,174.5C 100.612,173.017 103.445,173.35 106,175.5C 112.919,186.339 120.086,197.006 127.5,207.5C 133.097,204.031 139.097,201.698 145.5,200.5C 143.155,187.607 140.488,174.774 137.5,162C 138.185,159.14 139.852,156.973 142.5,155.5C 145.154,170.091 147.154,184.758 148.5,199.5C 149.5,199.5 150.5,199.5 151.5,199.5C 150.421,182.827 149.588,166.16 149,149.5C 150.73,147.598 152.563,145.931 154.5,144.5 Z"/></g>
<g><path style="opacity:1" fill="#fcd11d" d="M 362.5,223.5 C 363.328,229.653 363.828,235.987 364,242.5C 369.786,244.929 375.62,247.263 381.5,249.5C 375.62,251.737 369.786,254.071 364,256.5C 363.667,262.833 363.333,269.167 363,275.5C 359.287,270.576 355.454,265.742 351.5,261C 345.116,262.129 338.782,263.462 332.5,265C 336.361,259.972 340.028,254.806 343.5,249.5C 340.028,244.194 336.361,239.028 332.5,234C 338.782,235.538 345.116,236.871 351.5,238C 355.767,233.574 359.433,228.741 362.5,223.5 Z"/></g>
<g><path style="opacity:0.993" fill="#ce1126" d="M 431.5,249.5 C 454.167,249.5 476.833,249.5 499.5,249.5C 499.5,257.833 499.5,266.167 499.5,274.5C 487.764,361.841 443.764,427.341 367.5,471C 338.093,486.083 307.093,495.583 274.5,499.5C 257.833,499.5 241.167,499.5 224.5,499.5C 175.59,493.868 131.924,475.868 93.5,445.5C 206.425,380.566 319.092,315.233 431.5,249.5 Z"/></g>
</svg>
