<?xml version="1.0" encoding="UTF-8"?>
<!DOCTYPE svg PUBLIC "-//W3C//DTD SVG 1.1//EN" "http://www.w3.org/Graphics/SVG/1.1/DTD/svg11.dtd">
<svg xmlns="http://www.w3.org/2000/svg" version="1.1" width="500px" height="500px" style="shape-rendering:geometricPrecision; text-rendering:geometricPrecision; image-rendering:optimizeQuality; fill-rule:evenodd; clip-rule:evenodd" xmlns:xlink="http://www.w3.org/1999/xlink">
<g><path style="opacity:1" fill="#ec1d24" d="M 225.5,-0.5 C 241.5,-0.5 257.5,-0.5 273.5,-0.5C 337.366,6.68279 391.199,33.6828 435,80.5C 439.456,85.1102 443.29,90.1102 446.5,95.5C 446.414,96.4959 446.748,97.3292 447.5,98C 356.834,98.5 266.167,98.6667 175.5,98.5C 148.005,83.9224 121.005,68.5891 94.5,52.5C 133.095,22.5186 176.762,4.85194 225.5,-0.5 Z"/></g>
<g><path style="opacity:1" fill="#3c5ea9" d="M 94.5,52.5 C 121.005,68.5891 148.005,83.9224 175.5,98.5C 175.842,99.3382 176.508,99.6716 177.5,99.5C 235.14,132.991 293.14,165.991 351.5,198.5C 352.29,199.401 353.29,200.068 354.5,200.5C 382.968,216.235 411.301,232.235 439.5,248.5C 411.131,265.351 382.465,281.685 353.5,297.5C 352.5,297.833 351.833,298.5 351.5,299.5C 292.502,331.997 233.835,364.997 175.5,398.5C 174.833,398.5 174.5,398.833 174.5,399.5C 147.005,414.078 120.005,429.411 93.5,445.5C 39.1942,400.9 7.86083,343.567 -0.5,273.5C -0.5,257.5 -0.5,241.5 -0.5,225.5C 7.95262,154.916 39.6193,97.2495 94.5,52.5 Z"/></g>
<g><path style="opacity:1" fill="#ef454c" d="M 446.5,95.5 C 448.262,96.2623 449.262,97.5956 449.5,99.5C 358.833,99.5 268.167,99.5 177.5,99.5C 176.508,99.6716 175.842,99.3382 175.5,98.5C 266.167,98.6667 356.834,98.5 447.5,98C 446.748,97.3292 446.414,96.4959 446.5,95.5 Z"/></g>
<g><path style="opacity:1" fill="#fefefe" d="M 177.5,99.5 C 268.167,99.5 358.833,99.5 449.5,99.5C 466.719,120.925 479.552,144.925 488,171.5C 490.957,180.326 493.123,189.326 494.5,198.5C 446.833,198.5 399.167,198.5 351.5,198.5C 293.14,165.991 235.14,132.991 177.5,99.5 Z"/></g>
<g><path style="opacity:1" fill="#fcfcfd" d="M 160.5,233.5 C 179.167,234.167 197.833,234.833 216.5,235.5C 202.186,246.97 187.686,258.303 173,269.5C 177.892,287.52 183.225,305.52 189,323.5C 189.667,324.833 189.667,326.167 189,327.5C 173.41,315.955 157.91,304.288 142.5,292.5C 126.857,304.309 111.357,316.309 96,328.5C 101.061,309.304 106.561,290.137 112.5,271C 112.241,269.739 111.574,268.739 110.5,268C 95.6536,257.076 80.9869,245.909 66.5,234.5C 85.8218,233.5 105.155,233.167 124.5,233.5C 129.624,214.628 135.457,195.961 142,177.5C 149.057,195.838 155.224,214.505 160.5,233.5 Z"/></g>
<g><path style="opacity:1" fill="#f8b5b8" d="M 351.5,198.5 C 399.167,198.5 446.833,198.5 494.5,198.5C 495.167,198.5 495.5,198.833 495.5,199.5C 448.33,199.168 401.33,199.501 354.5,200.5C 353.29,200.068 352.29,199.401 351.5,198.5 Z"/></g>
<g><path style="opacity:1" fill="#eb1c24" d="M 354.5,200.5 C 401.33,199.501 448.33,199.168 495.5,199.5C 496.85,207.964 498.183,216.297 499.5,224.5C 499.5,241.5 499.5,258.5 499.5,275.5C 498.181,283.04 496.848,290.707 495.5,298.5C 447.997,298.832 400.664,298.499 353.5,297.5C 382.465,281.685 411.131,265.351 439.5,248.5C 411.301,232.235 382.968,216.235 354.5,200.5 Z"/></g>
<g><path style="opacity:1" fill="#d1d8ea" d="M 160.5,233.5 C 179.836,233.333 199.17,233.5 218.5,234C 217.956,234.717 217.289,235.217 216.5,235.5C 197.833,234.833 179.167,234.167 160.5,233.5 Z"/></g>
<g><path style="opacity:1" fill="#f69a9e" d="M 353.5,297.5 C 400.664,298.499 447.997,298.832 495.5,298.5C 495.672,299.492 495.338,300.158 494.5,300.5C 447.003,299.501 399.336,299.168 351.5,299.5C 351.833,298.5 352.5,297.833 353.5,297.5 Z"/></g>
<g><path style="opacity:1" fill="#fefefe" d="M 351.5,299.5 C 399.336,299.168 447.003,299.501 494.5,300.5C 489.02,329.459 478.52,356.459 463,381.5C 459.301,387.59 455.134,393.257 450.5,398.5C 358.833,398.5 267.167,398.5 175.5,398.5C 233.835,364.997 292.502,331.997 351.5,299.5 Z"/></g>
<g><path style="opacity:1" fill="#f26166" d="M 174.5,399.5 C 174.5,398.833 174.833,398.5 175.5,398.5C 267.167,398.5 358.833,398.5 450.5,398.5C 450.672,399.492 450.338,400.158 449.5,400.5C 358.002,399.501 266.335,399.167 174.5,399.5 Z"/></g>
<g><path style="opacity:1" fill="#ec1d24" d="M 174.5,399.5 C 266.335,399.167 358.002,399.501 449.5,400.5C 405.002,457.592 346.669,490.592 274.5,499.5C 257.833,499.5 241.167,499.5 224.5,499.5C 175.59,493.868 131.924,475.868 93.5,445.5C 120.005,429.411 147.005,414.078 174.5,399.5 Z"/></g>
</svg>
