<?xml version="1.0" encoding="UTF-8"?>
<!DOCTYPE svg PUBLIC "-//W3C//DTD SVG 1.1//EN" "http://www.w3.org/Graphics/SVG/1.1/DTD/svg11.dtd">
<svg xmlns="http://www.w3.org/2000/svg" version="1.1" width="500px" height="500px" style="shape-rendering:geometricPrecision; text-rendering:geometricPrecision; image-rendering:optimizeQuality; fill-rule:evenodd; clip-rule:evenodd" xmlns:xlink="http://www.w3.org/1999/xlink">
<g><path style="opacity:0.996" fill="#8d1b3d" d="M 225.5,-0.5 C 241.5,-0.5 257.5,-0.5 273.5,-0.5C 362.269,10.9489 428.436,55.6156 472,133.5C 486.559,162.333 495.726,192.666 499.5,224.5C 499.5,241.167 499.5,257.833 499.5,274.5C 487.764,361.841 443.764,427.341 367.5,471C 338.093,486.083 307.093,495.583 274.5,499.5C 257.833,499.5 241.167,499.5 224.5,499.5C 202.278,496.862 180.612,491.528 159.5,483.5C 172.169,479.004 185.169,475.171 198.5,472C 165.155,462.664 131.822,453.331 98.5,444C 131.822,434.669 165.155,425.336 198.5,416C 165.067,407.142 131.734,397.975 98.5,388.5C 131.739,379.023 165.072,369.857 198.5,361C 165.233,351.681 131.9,342.348 98.5,333C 131.822,323.669 165.155,314.336 198.5,305C 165.425,295.964 132.425,286.631 99.5,277C 132.167,267.833 164.833,258.667 197.5,249.5C 164.617,240.021 131.617,230.855 98.5,222C 131.688,212.368 165.021,203.035 198.5,194C 165.326,185.124 132.326,175.791 99.5,166C 132.483,156.672 165.483,147.505 198.5,138.5C 165.349,129.63 132.349,120.296 99.5,110.5C 132.403,101.033 165.403,91.8665 198.5,83C 165.067,73.9753 131.733,64.642 98.5,55C 131.628,45.8426 164.628,36.5093 197.5,27C 184.531,23.7636 171.864,19.9303 159.5,15.5C 180.956,7.4797 202.956,2.14637 225.5,-0.5 Z"/></g>
<g><path style="opacity:0.992" fill="#fefefe" d="M 159.5,15.5 C 171.864,19.9303 184.531,23.7636 197.5,27C 164.628,36.5093 131.628,45.8426 98.5,55C 131.733,64.642 165.067,73.9753 198.5,83C 165.403,91.8665 132.403,101.033 99.5,110.5C 132.349,120.296 165.349,129.63 198.5,138.5C 165.483,147.505 132.483,156.672 99.5,166C 132.326,175.791 165.326,185.124 198.5,194C 165.021,203.035 131.688,212.368 98.5,222C 131.617,230.855 164.617,240.021 197.5,249.5C 164.833,258.667 132.167,267.833 99.5,277C 132.425,286.631 165.425,295.964 198.5,305C 165.155,314.336 131.822,323.669 98.5,333C 131.9,342.348 165.233,351.681 198.5,361C 165.072,369.857 131.739,379.023 98.5,388.5C 131.734,397.975 165.067,407.142 198.5,416C 165.155,425.336 131.822,434.669 98.5,444C 131.822,453.331 165.155,462.664 198.5,472C 185.169,475.171 172.169,479.004 159.5,483.5C 94.571,457.406 47.7376,412.406 19,348.5C 8.87002,324.309 2.37002,299.309 -0.5,273.5C -0.5,257.5 -0.5,241.5 -0.5,225.5C 13.278,125.243 66.6114,55.2431 159.5,15.5 Z"/></g>
</svg>
