<?xml version="1.0" encoding="UTF-8"?>
<!DOCTYPE svg PUBLIC "-//W3C//DTD SVG 1.1//EN" "http://www.w3.org/Graphics/SVG/1.1/DTD/svg11.dtd">
<svg xmlns="http://www.w3.org/2000/svg" version="1.1" width="500px" height="500px" style="shape-rendering:geometricPrecision; text-rendering:geometricPrecision; image-rendering:optimizeQuality; fill-rule:evenodd; clip-rule:evenodd" xmlns:xlink="http://www.w3.org/1999/xlink">
<g><path style="opacity:0.994" fill="#03a1dd" d="M 225.5,-0.5 C 241.5,-0.5 257.5,-0.5 273.5,-0.5C 362.269,10.9489 428.436,55.6156 472,133.5C 486.559,162.333 495.726,192.666 499.5,224.5C 499.5,232.833 499.5,241.167 499.5,249.5C 332.833,249.5 166.167,249.5 -0.5,249.5C -0.5,241.5 -0.5,233.5 -0.5,225.5C 11.4543,135.075 57.4543,68.242 137.5,25C 165.514,11.5012 194.847,3.00119 225.5,-0.5 Z"/></g>
<g><path style="opacity:1" fill="#77af73" d="M 366.5,65.5 C 365.833,63.1667 365.167,60.8333 364.5,58.5C 364.336,55.8127 364.503,53.146 365,50.5C 366.05,55.4482 366.55,60.4482 366.5,65.5 Z"/></g>
<g><path style="opacity:1" fill="#58aa95" d="M 402.5,66.5 C 402.5,66.1667 402.5,65.8333 402.5,65.5C 402.709,64.0783 403.209,62.745 404,61.5C 404.654,60.3044 405.154,60.3044 405.5,61.5C 404.725,63.3964 403.725,65.063 402.5,66.5 Z"/></g>
<g><path style="opacity:1" fill="#6eae7c" d="M 328.5,66.5 C 328.5,66.8333 328.5,67.1667 328.5,67.5C 327.275,66.063 326.275,64.3964 325.5,62.5C 325.846,61.3044 326.346,61.3044 327,62.5C 327.791,63.745 328.291,65.0783 328.5,66.5 Z"/></g>
<g><path style="opacity:1" fill="#6bad7f" d="M 417.5,78.5 C 417.5,78.1667 417.5,77.8333 417.5,77.5C 418.517,75.4005 419.85,74.4005 421.5,74.5C 420.479,76.188 419.145,77.5213 417.5,78.5 Z"/></g>
<g><path style="opacity:1" fill="#debd18" d="M 364.5,58.5 C 365.167,60.8333 365.833,63.1667 366.5,65.5C 366.482,73.851 366.815,82.1844 367.5,90.5C 367.5,95.1667 367.5,99.8333 367.5,104.5C 365.833,104.5 364.167,104.5 362.5,104.5C 362.5,103.167 362.5,101.833 362.5,100.5C 362.815,86.481 363.482,72.481 364.5,58.5 Z"/></g>
<g><path style="opacity:1" fill="#dbbc1e" d="M 360.5,101.5 C 360.833,102.833 361.167,104.167 361.5,105.5C 354.033,106.488 348.199,110.154 344,116.5C 342.132,119.605 340.965,122.938 340.5,126.5C 339.167,126.167 337.833,125.833 336.5,125.5C 321.696,121.176 307.029,116.343 292.5,111C 308.149,113.797 323.815,116.463 339.5,119C 326.595,110.725 313.929,102.225 301.5,93.5C 301.833,93.5 302.167,93.5 302.5,93.5C 316.011,100.591 329.678,107.091 343.5,113C 333.352,101.351 323.018,89.8509 312.5,78.5C 313.002,77.479 313.668,77.3123 314.5,78C 325.367,88.5358 336.534,98.7025 348,108.5C 342.091,94.6778 335.591,81.0111 328.5,67.5C 328.5,67.1667 328.5,66.8333 328.5,66.5C 337.225,78.9287 345.725,91.5953 354,104.5C 351.463,88.8155 348.797,73.1488 346,57.5C 351.339,72.0181 356.173,86.6847 360.5,101.5 Z"/></g>
<g><path style="opacity:1" fill="#70ae7c" d="M 302.5,93.5 C 302.167,93.5 301.833,93.5 301.5,93.5C 300.078,93.2914 298.745,92.7914 297.5,92C 296.304,91.3457 296.304,90.8457 297.5,90.5C 299.396,91.2745 301.063,92.2745 302.5,93.5 Z"/></g>
<g><path style="opacity:1" fill="#91b25c" d="M 367.5,90.5 C 368.167,94.5 368.833,98.5 369.5,102.5C 369.5,103.5 369.5,104.5 369.5,105.5C 366.833,105.5 364.167,105.5 361.5,105.5C 361.167,104.167 360.833,102.833 360.5,101.5C 361.167,101.167 361.833,100.833 362.5,100.5C 362.5,101.833 362.5,103.167 362.5,104.5C 364.167,104.5 365.833,104.5 367.5,104.5C 367.5,99.8333 367.5,95.1667 367.5,90.5 Z"/></g>
<g><path style="opacity:1" fill="#dcbd1b" d="M 402.5,65.5 C 402.5,65.8333 402.5,66.1667 402.5,66.5C 395.847,79.8068 389.18,93.1401 382.5,106.5C 382.833,106.833 383.167,107.167 383.5,107.5C 394.556,97.1057 405.89,87.1057 417.5,77.5C 417.5,77.8333 417.5,78.1667 417.5,78.5C 407.004,89.8309 396.67,101.331 386.5,113C 401.167,106.333 415.833,99.6667 430.5,93C 416.833,102 403.167,111 389.5,120C 404.074,117.097 418.741,114.264 433.5,111.5C 434.167,111.5 434.5,111.833 434.5,112.5C 420.773,116.631 407.106,120.965 393.5,125.5C 392.036,126.405 390.702,126.405 389.5,125.5C 387.19,114.524 380.524,107.857 369.5,105.5C 369.5,104.5 369.5,103.5 369.5,102.5C 374.161,86.6847 379.327,71.018 385,55.5C 381.59,71.7387 378.59,88.072 376,104.5C 384.856,91.4342 393.69,78.4342 402.5,65.5 Z"/></g>
<g><path style="opacity:1" fill="#2fa2d4" d="M 361.5,105.5 C 364.167,105.5 366.833,105.5 369.5,105.5C 380.524,107.857 387.19,114.524 389.5,125.5C 389.5,128.5 389.5,131.5 389.5,134.5C 386.454,147.373 378.288,154.373 365,155.5C 359.47,154.811 354.303,153.144 349.5,150.5C 344.947,146.064 341.947,140.73 340.5,134.5C 340.5,131.833 340.5,129.167 340.5,126.5C 340.965,122.938 342.132,119.605 344,116.5C 348.199,110.154 354.033,106.488 361.5,105.5 Z"/></g>
<g><path style="opacity:1" fill="#e3bd06" d="M 359.5,107.5 C 372.708,106.017 381.875,111.35 387,123.5C 388.33,146.169 377.83,155.335 355.5,151C 342.566,142.625 339.399,131.459 346,117.5C 349.802,113.037 354.302,109.703 359.5,107.5 Z"/></g>
<g><path style="opacity:1" fill="#89b167" d="M 434.5,112.5 C 434.5,111.833 434.167,111.5 433.5,111.5C 435.914,110.067 438.581,109.567 441.5,110C 439.192,110.991 436.859,111.824 434.5,112.5 Z"/></g>
<g><path style="opacity:1" fill="#debd18" d="M 335.5,127.5 C 336.833,127.5 338.167,127.5 339.5,127.5C 339.5,129.167 339.5,130.833 339.5,132.5C 334.833,132.5 330.167,132.5 325.5,132.5C 317.184,131.815 308.851,131.482 300.5,131.5C 298.5,130.833 296.5,130.167 294.5,129.5C 308.144,128.443 321.811,127.776 335.5,127.5 Z"/></g>
<g><path style="opacity:1" fill="#66ad83" d="M 389.5,125.5 C 390.702,126.405 392.036,126.405 393.5,125.5C 394.5,126.167 395.5,126.833 396.5,127.5C 394.5,127.5 392.5,127.5 390.5,127.5C 390.802,130.059 390.468,132.393 389.5,134.5C 389.5,131.5 389.5,128.5 389.5,125.5 Z"/></g>
<g><path style="opacity:1" fill="#7fb06f" d="M 294.5,129.5 C 296.5,130.167 298.5,130.833 300.5,131.5C 295.768,131.622 291.102,131.122 286.5,130C 289.146,129.503 291.813,129.336 294.5,129.5 Z"/></g>
<g><path style="opacity:1" fill="#95b358" d="M 336.5,125.5 C 337.833,125.833 339.167,126.167 340.5,126.5C 340.5,129.167 340.5,131.833 340.5,134.5C 339.5,134.5 338.5,134.5 337.5,134.5C 333.5,133.833 329.5,133.167 325.5,132.5C 330.167,132.5 334.833,132.5 339.5,132.5C 339.5,130.833 339.5,129.167 339.5,127.5C 338.167,127.5 336.833,127.5 335.5,127.5C 335.833,126.833 336.167,126.167 336.5,125.5 Z"/></g>
<g><path style="opacity:1" fill="#dabc20" d="M 337.5,134.5 C 338.5,134.5 339.5,134.5 340.5,134.5C 341.947,140.73 344.947,146.064 349.5,150.5C 337.5,161.167 325.5,171.833 313.5,182.5C 313.167,182.5 312.833,182.5 312.5,182.5C 322.106,170.89 332.106,159.556 342.5,148.5C 342.167,148.167 341.833,147.833 341.5,147.5C 327.934,154.45 314.267,161.117 300.5,167.5C 313.596,158.442 326.93,149.609 340.5,141C 324.864,143.794 309.197,146.46 293.5,149C 308.165,144.056 322.832,139.223 337.5,134.5 Z"/></g>
<g><path style="opacity:1" fill="#7fb06e" d="M 433.5,147.5 C 435.859,148.176 438.192,149.009 440.5,150C 437.28,150.32 434.28,149.82 431.5,148.5C 432.492,148.672 433.158,148.338 433.5,147.5 Z"/></g>
<g><path style="opacity:1" fill="#dbbc1e" d="M 396.5,127.5 C 410.524,127.884 424.524,128.717 438.5,130C 423.113,131.039 407.78,132.372 392.5,134C 406.018,139.006 419.685,143.506 433.5,147.5C 433.158,148.338 432.492,148.672 431.5,148.5C 417.744,146.14 404.077,143.64 390.5,141C 403.833,149.667 417.167,158.333 430.5,167C 431.696,167.654 431.696,168.154 430.5,168.5C 415.811,160.987 401.144,153.82 386.5,147C 396.399,158.058 406.065,169.225 415.5,180.5C 404.225,171.065 393.058,161.399 382,151.5C 388.82,166.144 395.987,180.811 403.5,195.5C 403.154,196.696 402.654,196.696 402,195.5C 393.333,182.167 384.667,168.833 376,155.5C 378.05,167.461 380.216,179.461 382.5,191.5C 382.737,192.791 382.404,193.791 381.5,194.5C 377.44,181.82 373.273,169.153 369,156.5C 367.255,169.091 366.421,181.758 366.5,194.5C 365.833,196.833 365.167,199.167 364.5,201.5C 363.774,186.484 362.774,171.484 361.5,156.5C 356.233,171.802 351.066,187.135 346,202.5C 345.833,201.833 345.667,201.167 345.5,200.5C 348.693,185.078 351.859,169.745 355,154.5C 346.333,167.833 337.667,181.167 329,194.5C 328.346,195.696 327.846,195.696 327.5,194.5C 334.86,179.78 342.193,165.114 349.5,150.5C 354.303,153.144 359.47,154.811 365,155.5C 378.288,154.373 386.454,147.373 389.5,134.5C 390.468,132.393 390.802,130.059 390.5,127.5C 392.5,127.5 394.5,127.5 396.5,127.5 Z"/></g>
<g><path style="opacity:1" fill="#68ad85" d="M 300.5,167.5 C 299.998,169.085 298.998,169.585 297.5,169C 298.244,167.961 299.244,167.461 300.5,167.5 Z"/></g>
<g><path style="opacity:1" fill="#95b171" d="M 415.5,180.5 C 417.337,180.639 417.67,181.306 416.5,182.5C 415.702,182.043 415.369,181.376 415.5,180.5 Z"/></g>
<g><path style="opacity:1" fill="#53aa98" d="M 312.5,182.5 C 312.833,182.5 313.167,182.5 313.5,182.5C 312.438,184.757 310.772,185.923 308.5,186C 309.705,184.624 311.038,183.458 312.5,182.5 Z"/></g>
<g><path style="opacity:1" fill="#9eb455" d="M 382.5,191.5 C 384.154,195.943 384.987,200.609 385,205.5C 383.677,201.873 382.511,198.207 381.5,194.5C 382.404,193.791 382.737,192.791 382.5,191.5 Z"/></g>
<g><path style="opacity:1" fill="#6bad80" d="M 366.5,194.5 C 366.55,199.552 366.05,204.552 365,209.5C 364.503,206.854 364.336,204.187 364.5,201.5C 365.167,199.167 365.833,196.833 366.5,194.5 Z"/></g>
<g><path style="opacity:0.997" fill="#f9d101" d="M -0.5,249.5 C 166.167,249.5 332.833,249.5 499.5,249.5C 499.5,257.833 499.5,266.167 499.5,274.5C 495.581,310.178 484.581,343.512 466.5,374.5C 321.833,374.5 177.167,374.5 32.5,374.5C 14.4864,343.126 3.4864,309.459 -0.5,273.5C -0.5,265.5 -0.5,257.5 -0.5,249.5 Z"/></g>
<g><path style="opacity:0.992" fill="#20603c" d="M 32.5,374.5 C 177.167,374.5 321.833,374.5 466.5,374.5C 429.657,436.628 375.99,476.461 305.5,494C 295.064,496.071 284.73,497.905 274.5,499.5C 257.833,499.5 241.167,499.5 224.5,499.5C 140.313,488.432 76.3133,446.765 32.5,374.5 Z"/></g>
</svg>
