<?xml version="1.0" encoding="UTF-8"?>
<!DOCTYPE svg PUBLIC "-//W3C//DTD SVG 1.1//EN" "http://www.w3.org/Graphics/SVG/1.1/DTD/svg11.dtd">
<svg xmlns="http://www.w3.org/2000/svg" version="1.1" width="500px" height="500px" style="shape-rendering:geometricPrecision; text-rendering:geometricPrecision; image-rendering:optimizeQuality; fill-rule:evenodd; clip-rule:evenodd" xmlns:xlink="http://www.w3.org/1999/xlink">
<g><path style="opacity:0.99" fill="#dc181d" d="M 225.5,-0.5 C 233.167,-0.5 240.833,-0.5 248.5,-0.5C 172.129,51.1921 95.462,102.525 18.5,153.5C 46.4966,87.6719 93.83,41.5052 160.5,15C 181.742,7.4378 203.409,2.27113 225.5,-0.5 Z"/></g>
<g><path style="opacity:0.99" fill="#dc181d" d="M 250.5,-0.5 C 258.167,-0.5 265.833,-0.5 273.5,-0.5C 358.119,10.3302 422.619,51.9969 467,124.5C 472.595,133.688 477.095,143.354 480.5,153.5C 403.538,102.525 326.871,51.1921 250.5,-0.5 Z"/></g>
<g><path style="opacity:1" fill="#fefefe" d="M 248.5,-0.5 C 249.167,-0.5 249.833,-0.5 250.5,-0.5C 326.871,51.1921 403.538,102.525 480.5,153.5C 486.271,164.812 490.271,176.812 492.5,189.5C 492.294,192.495 492.96,195.162 494.5,197.5C 495.675,201.042 496.341,204.709 496.5,208.5C 496.28,213.1 496.946,217.433 498.5,221.5C 498.263,222.791 498.596,223.791 499.5,224.5C 499.5,241.5 499.5,258.5 499.5,275.5C 497.652,289.556 494.819,303.556 491,317.5C 488.555,327.348 485.055,336.681 480.5,345.5C 403.538,396.475 326.871,447.808 250.5,499.5C 249.833,499.5 249.167,499.5 248.5,499.5C 172.129,447.808 95.462,396.475 18.5,345.5C 11.842,331.225 7.17537,316.225 4.5,300.5C 4.78472,297.171 4.11805,294.171 2.5,291.5C 2.5,290.833 2.5,290.167 2.5,289.5C 1.45935,277.688 0.459348,266.022 -0.5,254.5C -0.5,247.167 -0.5,239.833 -0.5,232.5C 1.38611,225.084 2.38611,217.417 2.5,209.5C 2.5,208.833 2.5,208.167 2.5,207.5C 4.11805,204.829 4.78472,201.829 4.5,198.5C 4.5,198.167 4.5,197.833 4.5,197.5C 6.03954,195.162 6.70621,192.495 6.5,189.5C 9.12812,176.949 13.1281,164.949 18.5,153.5C 95.462,102.525 172.129,51.1921 248.5,-0.5 Z"/></g>
<g><path style="opacity:1" fill="#f9d913" d="M 116.5,206.5 C 150.85,207.16 184.85,206.493 218.5,204.5C 228.431,172.373 238.765,140.373 249.5,108.5C 260.469,140.574 271.136,172.741 281.5,205C 315.5,205.333 349.5,205.667 383.5,206C 358.113,225.053 332.447,243.72 306.5,262C 304.534,263.46 302.868,265.127 301.5,267C 311.912,298.815 322.245,330.649 332.5,362.5C 332.167,362.833 331.833,363.167 331.5,363.5C 304.48,343.33 277.146,323.664 249.5,304.5C 221.854,323.664 194.52,343.33 167.5,363.5C 176.543,332.189 186.377,300.856 197,269.5C 197.667,268.167 197.667,266.833 197,265.5C 169.984,245.97 143.151,226.303 116.5,206.5 Z"/></g>
<g><path style="opacity:0.478" fill="#f1b2b5" d="M 6.5,189.5 C 6.70621,192.495 6.03954,195.162 4.5,197.5C 4.56513,194.572 5.2318,191.905 6.5,189.5 Z"/></g>
<g><path style="opacity:0.522" fill="#f2b8ba" d="M 492.5,189.5 C 493.768,191.905 494.435,194.572 494.5,197.5C 492.96,195.162 492.294,192.495 492.5,189.5 Z"/></g>
<g><path style="opacity:0.11" fill="#eda8ac" d="M 4.5,198.5 C 4.78472,201.829 4.11805,204.829 2.5,207.5C 2.67615,204.273 3.34281,201.273 4.5,198.5 Z"/></g>
<g><path style="opacity:1" fill="#fbe55e" d="M 218.5,204.5 C 184.85,206.493 150.85,207.16 116.5,206.5C 149.833,205.82 183.833,205.154 218.5,204.5 Z"/></g>
<g><path style="opacity:0.82" fill="#f7c4c6" d="M 496.5,208.5 C 497.709,212.618 498.376,216.951 498.5,221.5C 496.946,217.433 496.28,213.1 496.5,208.5 Z"/></g>
<g><path style="opacity:0.953" fill="#f5c9ca" d="M 2.5,209.5 C 2.38611,217.417 1.38611,225.084 -0.5,232.5C -0.5,230.167 -0.5,227.833 -0.5,225.5C 0.354713,220.144 1.35471,214.811 2.5,209.5 Z"/></g>
<g><path style="opacity:0.62" fill="#d2c0d0" d="M -0.5,254.5 C 0.459348,266.022 1.45935,277.688 2.5,289.5C 1.35471,284.189 0.354713,278.856 -0.5,273.5C -0.5,267.167 -0.5,260.833 -0.5,254.5 Z"/></g>
<g><path style="opacity:0.275" fill="#bfa4ba" d="M 2.5,291.5 C 4.11805,294.171 4.78472,297.171 4.5,300.5C 3.34281,297.727 2.67615,294.727 2.5,291.5 Z"/></g>
<g><path style="opacity:1" fill="#0c2a86" d="M 480.5,345.5 C 452.478,411.354 405.145,457.521 338.5,484C 317.652,491.713 296.319,496.88 274.5,499.5C 266.5,499.5 258.5,499.5 250.5,499.5C 326.871,447.808 403.538,396.475 480.5,345.5 Z"/></g>
<g><path style="opacity:1" fill="#0a2a86" d="M 18.5,345.5 C 95.462,396.475 172.129,447.808 248.5,499.5C 240.5,499.5 232.5,499.5 224.5,499.5C 140.318,488.345 76.1509,446.678 32,374.5C 26.4052,365.312 21.9052,355.646 18.5,345.5 Z"/></g>
</svg>
