<?xml version="1.0" encoding="UTF-8"?>
<!DOCTYPE svg PUBLIC "-//W3C//DTD SVG 1.1//EN" "http://www.w3.org/Graphics/SVG/1.1/DTD/svg11.dtd">
<svg xmlns="http://www.w3.org/2000/svg" version="1.1" width="500px" height="500px" style="shape-rendering:geometricPrecision; text-rendering:geometricPrecision; image-rendering:optimizeQuality; fill-rule:evenodd; clip-rule:evenodd" xmlns:xlink="http://www.w3.org/1999/xlink">
<g><path style="opacity:0.994" fill="#66ccff" d="M 225.5,-0.5 C 241.5,-0.5 257.5,-0.5 273.5,-0.5C 362.269,10.9489 428.436,55.6156 472,133.5C 486.559,162.333 495.726,192.666 499.5,224.5C 499.5,241.167 499.5,257.833 499.5,274.5C 491.606,341.964 461.939,397.631 410.5,441.5C 356.832,309.495 303.165,177.495 249.5,45.5C 195.823,177.517 142.156,309.517 88.5,441.5C 37.1877,397.132 7.52107,341.132 -0.5,273.5C -0.5,257.5 -0.5,241.5 -0.5,225.5C 11.4543,135.075 57.4543,68.242 137.5,25C 165.514,11.5012 194.847,3.00119 225.5,-0.5 Z"/></g>
<g><path style="opacity:1" fill="#fcfdfd" d="M 410.5,441.5 C 409.205,442.488 407.872,443.488 406.5,444.5C 393.915,428.976 381.581,413.309 369.5,397.5C 330.283,298.182 290.283,199.182 249.5,100.5C 208.882,200.066 168.549,299.733 128.5,399.5C 116.5,414.5 104.5,429.5 92.5,444.5C 91.1283,443.488 89.795,442.488 88.5,441.5C 142.156,309.517 195.823,177.517 249.5,45.5C 303.165,177.495 356.832,309.495 410.5,441.5 Z"/></g>
<g><path style="opacity:1" fill="#020201" d="M 369.5,397.5 C 329.175,348.5 289.175,299.167 249.5,249.5C 209.113,299.544 168.78,349.544 128.5,399.5C 168.549,299.733 208.882,200.066 249.5,100.5C 290.283,199.182 330.283,298.182 369.5,397.5 Z"/></g>
<g><path style="opacity:0.999" fill="#fbd017" d="M 369.5,397.5 C 381.581,413.309 393.915,428.976 406.5,444.5C 401.563,448.975 396.23,452.975 390.5,456.5C 296.5,456.5 202.5,456.5 108.5,456.5C 102.86,452.853 97.5266,448.853 92.5,444.5C 104.5,429.5 116.5,414.5 128.5,399.5C 168.78,349.544 209.113,299.544 249.5,249.5C 289.175,299.167 329.175,348.5 369.5,397.5 Z"/></g>
<g><path style="opacity:0.979" fill="#65ccfe" d="M 108.5,456.5 C 202.5,456.5 296.5,456.5 390.5,456.5C 355.407,480.311 316.741,494.644 274.5,499.5C 257.833,499.5 241.167,499.5 224.5,499.5C 182.248,494.641 143.581,480.307 108.5,456.5 Z"/></g>
</svg>
