<?xml version="1.0" encoding="UTF-8"?>
<!DOCTYPE svg PUBLIC "-//W3C//DTD SVG 1.1//EN" "http://www.w3.org/Graphics/SVG/1.1/DTD/svg11.dtd">
<svg xmlns="http://www.w3.org/2000/svg" version="1.1" width="500px" height="500px" style="shape-rendering:geometricPrecision; text-rendering:geometricPrecision; image-rendering:optimizeQuality; fill-rule:evenodd; clip-rule:evenodd" xmlns:xlink="http://www.w3.org/1999/xlink">
<g><path style="opacity:0.997" fill="#fbd016" d="M 225.5,-0.5 C 241.5,-0.5 257.5,-0.5 273.5,-0.5C 309.459,3.4864 343.126,14.4864 374.5,32.5C 374.5,177.167 374.5,321.833 374.5,466.5C 343.513,484.581 310.18,495.581 274.5,499.5C 257.833,499.5 241.167,499.5 224.5,499.5C 188.918,495.306 155.584,484.306 124.5,466.5C 124.5,321.833 124.5,177.167 124.5,32.5C 155.874,14.4864 189.541,3.4864 225.5,-0.5 Z"/></g>
<g><path style="opacity:0.991" fill="#0072c5" d="M 124.5,32.5 C 124.5,177.167 124.5,321.833 124.5,466.5C 51.8732,422.481 10.2065,358.148 -0.5,273.5C -0.5,257.5 -0.5,241.5 -0.5,225.5C 10.2065,140.852 51.8732,76.5185 124.5,32.5 Z"/></g>
<g><path style="opacity:0.992" fill="#009e5f" d="M 374.5,32.5 C 446.765,76.3133 488.432,140.313 499.5,224.5C 499.5,241.167 499.5,257.833 499.5,274.5C 490.258,350.173 454.925,410.339 393.5,455C 387.471,459.347 381.138,463.18 374.5,466.5C 374.5,321.833 374.5,177.167 374.5,32.5 Z"/></g>
<g><path style="opacity:1" fill="#039e5f" d="M 214.5,194.5 C 224.059,212.616 233.392,230.95 242.5,249.5C 233.333,267.833 224.167,286.167 215,304.5C 205.304,286.44 196.137,268.107 187.5,249.5C 196.239,231.022 205.239,212.689 214.5,194.5 Z"/></g>
<g><path style="opacity:1" fill="#039e5f" d="M 283.5,194.5 C 293.553,212.271 302.887,230.604 311.5,249.5C 302.77,267.96 293.77,286.293 284.5,304.5C 274.911,286.323 265.578,267.989 256.5,249.5C 265.783,231.268 274.783,212.934 283.5,194.5 Z"/></g>
<g><path style="opacity:1" fill="#039e5f" d="M 248.5,264.5 C 249.376,264.369 250.043,264.702 250.5,265.5C 259.38,283.427 268.38,301.26 277.5,319C 268.302,337.229 258.969,355.396 249.5,373.5C 240.039,355.412 230.706,337.245 221.5,319C 230.911,301.012 239.911,282.845 248.5,264.5 Z"/></g>
</svg>
