<?xml version="1.0" encoding="UTF-8"?>
<!DOCTYPE svg PUBLIC "-//W3C//DTD SVG 1.1//EN" "http://www.w3.org/Graphics/SVG/1.1/DTD/svg11.dtd">
<svg xmlns="http://www.w3.org/2000/svg" version="1.1" width="500px" height="500px" style="shape-rendering:geometricPrecision; text-rendering:geometricPrecision; image-rendering:optimizeQuality; fill-rule:evenodd; clip-rule:evenodd" xmlns:xlink="http://www.w3.org/1999/xlink">
<g><path style="opacity:0.993" fill="#019e48" d="M 225.5,-0.5 C 241.5,-0.5 257.5,-0.5 273.5,-0.5C 313.54,3.95702 350.54,16.957 384.5,38.5C 257.716,124.277 130.383,209.277 2.5,293.5C 1.66853,286.673 0.66853,280.006 -0.5,273.5C -0.5,257.5 -0.5,241.5 -0.5,225.5C 11.4543,135.075 57.4543,68.242 137.5,25C 165.514,11.5012 194.847,3.00119 225.5,-0.5 Z"/></g>
<g><path style="opacity:0.997" fill="#f9cf16" d="M 384.5,38.5 C 392.226,43.3561 399.559,48.6894 406.5,54.5C 274.185,143.327 141.519,231.66 8.5,319.5C 6.18481,310.906 4.18481,302.239 2.5,293.5C 130.383,209.277 257.716,124.277 384.5,38.5 Z"/></g>
<g><path style="opacity:0.997" fill="#010100" d="M 406.5,54.5 C 447.177,87.4847 475.177,129.151 490.5,179.5C 357.481,267.34 224.815,355.673 92.5,444.5C 51.8225,411.515 23.8225,369.849 8.5,319.5C 141.519,231.66 274.185,143.327 406.5,54.5 Z"/></g>
<g><path style="opacity:1" fill="#fbfbfb" d="M 353.5,96.5 C 366.803,106.825 380.137,117.158 393.5,127.5C 407.573,117.847 421.573,108.847 435.5,100.5C 429.409,115.515 423.742,130.681 418.5,146C 419.748,148.257 421.415,150.257 423.5,152C 434.787,160.286 445.787,168.952 456.5,178C 439.84,177.709 423.173,177.709 406.5,178C 400.858,193.262 395.025,208.428 389,223.5C 384.692,207.581 380.192,191.748 375.5,176C 358.835,174.973 342.169,173.973 325.5,173C 339.087,163.957 352.587,154.79 366,145.5C 366.328,142.793 365.995,140.126 365,137.5C 360.98,123.905 357.146,110.238 353.5,96.5 Z"/></g>
<g><path style="opacity:0.997" fill="#facf16" d="M 490.5,179.5 C 492.815,188.095 494.815,196.761 496.5,205.5C 368.786,290.017 241.452,375.017 114.5,460.5C 106.774,455.644 99.4411,450.311 92.5,444.5C 224.815,355.673 357.481,267.34 490.5,179.5 Z"/></g>
<g><path style="opacity:0.993" fill="#ce1125" d="M 496.5,205.5 C 497.415,211.981 498.415,218.315 499.5,224.5C 499.5,241.167 499.5,257.833 499.5,274.5C 487.764,361.841 443.764,427.341 367.5,471C 338.093,486.083 307.093,495.583 274.5,499.5C 257.833,499.5 241.167,499.5 224.5,499.5C 184.838,494.835 148.171,481.835 114.5,460.5C 241.452,375.017 368.786,290.017 496.5,205.5 Z"/></g>
<g><path style="opacity:1" fill="#fbfbfb" d="M 68.5,286.5 C 81.8032,296.825 95.1366,307.158 108.5,317.5C 122.573,307.847 136.573,298.847 150.5,290.5C 144.535,305.564 138.868,320.731 133.5,336C 134.748,338.257 136.415,340.257 138.5,342C 149.787,350.286 160.787,358.952 171.5,368C 154.84,367.709 138.173,367.709 121.5,368C 115.858,383.262 110.025,398.428 104,413.5C 99.6923,397.581 95.1923,381.748 90.5,366C 73.8355,364.973 57.1688,363.973 40.5,363C 54.0866,353.957 67.5866,344.79 81,335.5C 81.3283,332.793 80.995,330.126 80,327.5C 75.9796,313.905 72.1462,300.238 68.5,286.5 Z"/></g>
</svg>
