<?xml version="1.0" encoding="UTF-8"?>
<!DOCTYPE svg PUBLIC "-//W3C//DTD SVG 1.1//EN" "http://www.w3.org/Graphics/SVG/1.1/DTD/svg11.dtd">
<svg xmlns="http://www.w3.org/2000/svg" version="1.1" width="500px" height="500px" style="shape-rendering:geometricPrecision; text-rendering:geometricPrecision; image-rendering:optimizeQuality; fill-rule:evenodd; clip-rule:evenodd" xmlns:xlink="http://www.w3.org/1999/xlink">
<g><path style="opacity:0.996" fill="#002b7e" d="M 225.5,-0.5 C 241.5,-0.5 257.5,-0.5 273.5,-0.5C 322.586,4.91444 366.586,22.7478 405.5,53C 409.668,56.002 413.335,59.502 416.5,63.5C 416.5,125.5 416.5,187.5 416.5,249.5C 277.5,249.5 138.5,249.5 -0.5,249.5C -0.5,241.5 -0.5,233.5 -0.5,225.5C 11.4543,135.075 57.4543,68.242 137.5,25C 146.325,20.6724 155.325,16.839 164.5,13.5C 163.14,18.9433 161.473,24.2766 159.5,29.5C 152.492,29.3337 145.492,29.5004 138.5,30C 139.044,30.7172 139.711,31.2172 140.5,31.5C 145.648,34.9131 150.648,38.5798 155.5,42.5C 152.926,48.7097 151.093,55.0431 150,61.5C 155.069,57.428 160.402,53.7613 166,50.5C 171.43,53.5936 176.596,57.0936 181.5,61C 182.167,61.6667 182.833,61.6667 183.5,61C 181.506,55.0165 179.506,49.0165 177.5,43C 177.759,41.7387 178.426,40.7387 179.5,40C 183.742,37.3904 187.742,34.5571 191.5,31.5C 192.289,31.2172 192.956,30.7172 193.5,30C 186.508,29.5004 179.508,29.3337 172.5,29.5C 171.036,23.7748 169.369,18.1081 167.5,12.5C 186.522,6.24143 205.856,1.9081 225.5,-0.5 Z"/></g>
<g><path style="opacity:1" fill="#f6f8fa" d="M 167.5,12.5 C 169.369,18.1081 171.036,23.7748 172.5,29.5C 178.833,30.1667 185.167,30.8333 191.5,31.5C 187.742,34.5571 183.742,37.3904 179.5,40C 178.426,40.7387 177.759,41.7387 177.5,43C 179.506,49.0165 181.506,55.0165 183.5,61C 182.833,61.6667 182.167,61.6667 181.5,61C 176.596,57.0936 171.43,53.5936 166,50.5C 160.402,53.7613 155.069,57.428 150,61.5C 151.093,55.0431 152.926,48.7097 155.5,42.5C 150.648,38.5798 145.648,34.9131 140.5,31.5C 146.833,30.8333 153.167,30.1667 159.5,29.5C 161.473,24.2766 163.14,18.9433 164.5,13.5C 165.609,13.4431 166.609,13.1098 167.5,12.5 Z"/></g>
<g><path style="opacity:1" fill="#a4b3d1" d="M 159.5,29.5 C 153.167,30.1667 146.833,30.8333 140.5,31.5C 139.711,31.2172 139.044,30.7172 138.5,30C 145.492,29.5004 152.492,29.3337 159.5,29.5 Z"/></g>
<g><path style="opacity:1" fill="#a8b7d3" d="M 172.5,29.5 C 179.508,29.3337 186.508,29.5004 193.5,30C 192.956,30.7172 192.289,31.2172 191.5,31.5C 185.167,30.8333 178.833,30.1667 172.5,29.5 Z"/></g>
<g><path style="opacity:1" fill="#f5f6fa" d="M 243.5,63.5 C 244.79,64.0577 245.623,65.0577 246,66.5C 247.401,70.8708 248.901,75.2041 250.5,79.5C 256.807,80.3306 263.141,80.8306 269.5,81C 264.334,84.6728 259.334,88.5061 254.5,92.5C 257.068,98.4987 258.735,104.499 259.5,110.5C 254.678,106.589 249.678,102.922 244.5,99.5C 239.194,102.972 234.028,106.639 229,110.5C 229.898,104.301 231.731,98.3005 234.5,92.5C 229.343,88.4215 224.01,84.5882 218.5,81C 225.158,80.5004 231.825,80.3337 238.5,80.5C 239.964,74.7748 241.631,69.1081 243.5,63.5 Z"/></g>
<g><path style="opacity:0.994" fill="#cd1126" d="M 416.5,63.5 C 452.643,95.3987 477.476,134.732 491,181.5C 494.695,195.808 497.529,210.141 499.5,224.5C 499.5,241.167 499.5,257.833 499.5,274.5C 487.764,361.841 443.764,427.341 367.5,471C 338.093,486.083 307.093,495.583 274.5,499.5C 257.833,499.5 241.167,499.5 224.5,499.5C 132.596,487.072 65.4294,439.739 23,357.5C 10.7506,330.604 2.91724,302.604 -0.5,273.5C -0.5,265.5 -0.5,257.5 -0.5,249.5C 138.5,249.5 277.5,249.5 416.5,249.5C 416.5,187.5 416.5,125.5 416.5,63.5 Z"/></g>
<g><path style="opacity:1" fill="#f6f7fa" d="M 63.5,93.5 C 70.1667,92.8333 76.8333,92.1667 83.5,91.5C 85.2964,85.4441 87.2964,79.4441 89.5,73.5C 92.2161,79.3089 94.5494,85.3089 96.5,91.5C 103.142,92.3309 109.809,92.8309 116.5,93C 111.167,97 105.833,101 100.5,105C 103.353,111.027 105.02,117.194 105.5,123.5C 100.167,119.833 94.8333,116.167 89.5,112.5C 83.8678,116.91 78.2011,120.577 72.5,123.5C 74.6995,117.568 76.6995,111.568 78.5,105.5C 74.0957,100.792 69.0957,96.7925 63.5,93.5 Z"/></g>
<g><path style="opacity:1" fill="#355699" d="M 83.5,91.5 C 76.8333,92.1667 70.1667,92.8333 63.5,93.5C 62.9569,93.44 62.6236,93.1067 62.5,92.5C 69.4684,91.503 76.4684,91.1697 83.5,91.5 Z"/></g>
<g><path style="opacity:1" fill="#edf0f6" d="M 203.5,127.5 C 204.497,127.47 205.164,127.97 205.5,129C 206.401,131.871 207.401,134.704 208.5,137.5C 212.796,138.328 217.129,138.828 221.5,139C 217.941,141.606 214.607,144.44 211.5,147.5C 213.287,151.011 214.121,154.678 214,158.5C 210.922,156.045 207.756,153.711 204.5,151.5C 201.244,153.711 198.078,156.045 195,158.5C 194.879,154.678 195.713,151.011 197.5,147.5C 194.339,144.509 191.005,141.675 187.5,139C 191.821,138.501 196.154,138.334 200.5,138.5C 201.297,134.777 202.297,131.11 203.5,127.5 Z"/></g>
<g><path style="opacity:1" fill="#f8f9fb" d="M 174.5,197.5 C 182.833,198.167 191.167,198.833 199.5,199.5C 192.825,204.503 186.158,209.503 179.5,214.5C 183.125,222.367 185.458,230.367 186.5,238.5C 180.085,233.41 173.419,228.743 166.5,224.5C 159.446,228.782 152.613,233.449 146,238.5C 147.796,230.113 149.796,221.779 152,213.5C 145.559,208.701 139.059,204.035 132.5,199.5C 141.167,198.833 149.833,198.167 158.5,197.5C 160.691,189.427 163.191,181.427 166,173.5C 169.328,181.317 172.161,189.317 174.5,197.5 Z"/></g>
<g><path style="opacity:1" fill="#395a9b" d="M 158.5,197.5 C 149.833,198.167 141.167,198.833 132.5,199.5C 131.957,199.44 131.624,199.107 131.5,198.5C 140.475,197.502 149.475,197.168 158.5,197.5 Z"/></g>
<g><path style="opacity:1" fill="#3a5a9b" d="M 174.5,197.5 C 183.192,197.169 191.859,197.502 200.5,198.5C 200.376,199.107 200.043,199.44 199.5,199.5C 191.167,198.833 182.833,198.167 174.5,197.5 Z"/></g>
</svg>
