<?xml version="1.0" encoding="UTF-8"?>
<!DOCTYPE svg PUBLIC "-//W3C//DTD SVG 1.1//EN" "http://www.w3.org/Graphics/SVG/1.1/DTD/svg11.dtd">
<svg xmlns="http://www.w3.org/2000/svg" version="1.1" width="500px" height="500px" style="shape-rendering:geometricPrecision; text-rendering:geometricPrecision; image-rendering:optimizeQuality; fill-rule:evenodd; clip-rule:evenodd" xmlns:xlink="http://www.w3.org/1999/xlink">
<g><path style="opacity:0.994" fill="#016c35" d="M 225.5,-0.5 C 241.5,-0.5 257.5,-0.5 273.5,-0.5C 362.269,10.9489 428.436,55.6156 472,133.5C 486.559,162.333 495.726,192.666 499.5,224.5C 499.5,241.167 499.5,257.833 499.5,274.5C 487.764,361.841 443.764,427.341 367.5,471C 338.093,486.083 307.093,495.583 274.5,499.5C 257.833,499.5 241.167,499.5 224.5,499.5C 132.596,487.072 65.4294,439.739 23,357.5C 10.7506,330.604 2.91724,302.604 -0.5,273.5C -0.5,257.5 -0.5,241.5 -0.5,225.5C 11.4543,135.075 57.4543,68.242 137.5,25C 165.514,11.5012 194.847,3.00119 225.5,-0.5 Z"/></g>
<g><path style="opacity:1" fill="#e8f1ec" d="M 196.5,117.5 C 197.497,117.47 198.164,117.97 198.5,119C 196.513,121.476 195.513,124.31 195.5,127.5C 196.5,127.5 197.5,127.5 198.5,127.5C 197.908,132.262 195.408,133.596 191,131.5C 190.333,129.167 190.333,126.833 191,124.5C 192.666,122.004 194.5,119.671 196.5,117.5 Z"/></g>
<g><path style="opacity:1" fill="#f5f9f7" d="M 257.5,129.5 C 258.234,130.708 258.567,132.041 258.5,133.5C 257.081,134.451 255.415,134.784 253.5,134.5C 254.681,140.235 256.181,145.901 258,151.5C 259.126,152.944 260.626,153.61 262.5,153.5C 265.012,153.006 267.345,152.006 269.5,150.5C 270.5,150.833 271.167,151.5 271.5,152.5C 270.281,155.667 268.781,158.667 267,161.5C 265.211,163.229 263.044,163.896 260.5,163.5C 260.421,162.07 260.754,160.736 261.5,159.5C 260.833,159.167 260.167,158.833 259.5,158.5C 256.591,160.793 254.258,163.627 252.5,167C 245.451,170.276 240.117,168.61 236.5,162C 234.833,161.333 233.167,161.333 231.5,162C 229.167,164.333 226.833,166.667 224.5,169C 217.884,172.067 212.717,170.567 209,164.5C 207.014,158.683 206.014,152.683 206,146.5C 205.333,147.167 204.667,147.833 204,148.5C 202.764,154.449 200.764,160.116 198,165.5C 191.452,167.668 187.118,165.335 185,158.5C 181.358,150.41 180.691,142.076 183,133.5C 183.423,132.044 184.256,131.544 185.5,132C 187.039,138.447 188.539,144.947 190,151.5C 190.436,154.284 191.936,155.45 194.5,155C 196.448,145.104 200.781,136.437 207.5,129C 210.528,127.86 212.695,128.694 214,131.5C 214.333,138.833 214.667,146.167 215,153.5C 217.566,157.409 221.066,158.409 225.5,156.5C 228.928,152.886 230.262,148.553 229.5,143.5C 229.333,140.833 229.167,138.167 229,135.5C 225.231,128.78 226.231,122.78 232,117.5C 233.586,119.67 234.92,122.004 236,124.5C 236.376,132.858 237.043,141.191 238,149.5C 239.277,157.315 242.944,158.981 249,154.5C 249.667,151.5 249.667,148.5 249,145.5C 246.984,141.469 244.984,137.469 243,133.5C 241.631,128.563 242.797,124.396 246.5,121C 252.244,120.889 255.911,123.722 257.5,129.5 Z"/></g>
<g><path style="opacity:1" fill="#eff5f2" d="M 220.5,118.5 C 221.496,118.414 222.329,118.748 223,119.5C 223.438,124.755 222.438,129.755 220,134.5C 218.989,135.337 217.822,135.67 216.5,135.5C 215.818,129.22 217.151,123.554 220.5,118.5 Z"/></g>
<g><path style="opacity:1" fill="#f9fbfa" d="M 296.5,185.5 C 296.217,184.711 295.717,184.044 295,183.5C 294.182,189.349 294.348,195.015 295.5,200.5C 295.666,209.506 295.5,218.506 295,227.5C 293.844,231.825 291.344,235.158 287.5,237.5C 288.257,213.461 287.09,189.461 284,165.5C 276.157,154.471 268.324,143.471 260.5,132.5C 259.976,130.694 259.309,129.028 258.5,127.5C 258.065,118.587 261.399,117.087 268.5,123C 271.36,125.86 274.194,128.694 277,131.5C 277.333,129.167 277.667,126.833 278,124.5C 278.637,122.697 279.803,121.364 281.5,120.5C 287.636,127.1 291.969,134.767 294.5,143.5C 294.57,145.666 293.904,145.999 292.5,144.5C 292.167,145.167 291.833,145.833 291.5,146.5C 292.114,152.533 292.947,158.533 294,164.5C 303.579,178.327 311.579,192.994 318,208.5C 318.667,212.5 318.667,216.5 318,220.5C 317.107,221.711 316.274,221.711 315.5,220.5C 309.54,208.564 303.207,196.897 296.5,185.5 Z"/></g>
<g><path style="opacity:1" fill="#f2f7f5" d="M 71.5,121.5 C 74.6516,120.959 77.1516,121.959 79,124.5C 79.6667,127.833 79.6667,131.167 79,134.5C 78.8038,136.286 77.9705,137.619 76.5,138.5C 75.6546,132.507 73.9879,126.841 71.5,121.5 Z"/></g>
<g><path style="opacity:1" fill="#f7faf9" d="M 424.5,215.5 C 424.5,218.5 424.5,221.5 424.5,224.5C 424.719,225.675 424.386,226.675 423.5,227.5C 419.135,220.966 414.969,214.3 411,207.5C 410.667,211.833 410.333,216.167 410,220.5C 408.046,224.282 405.546,227.615 402.5,230.5C 401.679,217.166 400.846,203.832 400,190.5C 397.333,186.5 394.667,182.5 392,178.5C 391.667,194.167 391.333,209.833 391,225.5C 388.822,232.341 384.155,236.341 377,237.5C 371.777,235.462 367.277,232.296 363.5,228C 360.196,226.958 358.029,228.125 357,231.5C 356.046,236.604 354.713,241.604 353,246.5C 347.522,251.824 342.189,251.491 337,245.5C 330.551,235.881 329.884,225.881 335,215.5C 334.594,223.323 336.261,230.656 340,237.5C 342.423,239.994 344.756,239.994 347,237.5C 350.261,229.143 354.427,221.31 359.5,214C 361.833,212 364.167,212 366.5,214C 368.458,216.748 370.291,219.582 372,222.5C 374.667,225.167 377.333,225.167 380,222.5C 380.667,219.833 381.333,217.167 382,214.5C 382.034,197.152 381.368,179.819 380,162.5C 372.948,153.782 366.281,144.782 360,135.5C 359.333,130.833 359.333,126.167 360,121.5C 360.718,120.549 361.551,120.383 362.5,121C 366.667,125.167 370.833,129.333 375,133.5C 373.702,128.921 374.536,124.755 377.5,121C 378.167,120.333 378.833,120.333 379.5,121C 384.281,127.609 387.947,134.776 390.5,142.5C 389.167,142.5 387.833,142.5 386.5,142.5C 386.25,147.58 386.75,152.58 388,157.5C 391,162.167 394,166.833 397,171.5C 395.886,159.14 394.219,146.806 392,134.5C 390.195,128.599 391.695,123.932 396.5,120.5C 400.009,124.176 402.509,128.509 404,133.5C 405.31,137.07 406.143,140.737 406.5,144.5C 405.5,144.5 404.5,144.5 403.5,144.5C 405.168,158.843 407.001,173.176 409,187.5C 413.636,194.813 418.302,202.146 423,209.5C 424.128,211.345 424.628,213.345 424.5,215.5 Z"/></g>
<g><path style="opacity:1" fill="#f6faf8" d="M 425.5,226.5 C 426.833,219.833 426.833,213.167 425.5,206.5C 423.914,183.728 421.414,161.061 418,138.5C 417.333,134.5 417.333,130.5 418,126.5C 418.687,124.445 419.854,122.779 421.5,121.5C 425,126.5 428.5,131.5 432,136.5C 432.49,137.793 432.657,139.127 432.5,140.5C 429.757,140.077 428.424,141.244 428.5,144C 434.076,171.903 435.91,200.07 434,228.5C 430.753,245.888 420.253,253.721 402.5,252C 401.978,251.439 401.645,250.772 401.5,250C 402.439,248.056 403.773,246.389 405.5,245C 409.993,242.921 414.326,240.588 418.5,238C 421.484,234.527 423.817,230.694 425.5,226.5 Z"/></g>
<g><path style="opacity:1" fill="#f3f8f5" d="M 106.5,122.5 C 107.5,122.5 108.5,122.5 109.5,122.5C 110.167,126.5 110.833,126.5 111.5,122.5C 112.5,122.5 113.5,122.5 114.5,122.5C 115.167,126.5 115.833,126.5 116.5,122.5C 117.5,122.5 118.5,122.5 119.5,122.5C 121.328,129.031 118.995,132.364 112.5,132.5C 106.43,131.702 104.43,128.369 106.5,122.5 Z"/></g>
<g><path style="opacity:1" fill="#f3f8f5" d="M 169.5,122.5 C 179.741,121.387 182.074,125.053 176.5,133.5C 177.313,134.814 178.313,135.981 179.5,137C 173.833,144 167.5,150.333 160.5,156C 156.789,156.825 153.122,156.659 149.5,155.5C 156.72,149.294 163.887,142.961 171,136.5C 169.613,133.955 168.113,131.289 166.5,128.5C 166.984,126.199 167.984,124.199 169.5,122.5 Z"/></g>
<g><path style="opacity:1" fill="#f8fbf9" d="M 341.5,231.5 C 340.833,224.167 340.167,216.833 339.5,209.5C 336.869,185.344 333.202,161.344 328.5,137.5C 328.616,133.78 329.116,130.113 330,126.5C 330.26,124.382 331.26,122.716 333,121.5C 337.119,128.741 340.953,136.074 344.5,143.5C 341.739,142.915 340.073,143.915 339.5,146.5C 344.557,171.282 347.057,196.282 347,221.5C 346.371,225.607 344.537,228.94 341.5,231.5 Z"/></g>
<g><path style="opacity:1" fill="#f6faf8" d="M 100.5,139.5 C 100.187,143.042 100.521,146.375 101.5,149.5C 100.981,153.756 102.147,157.423 105,160.5C 105.333,160.167 105.667,159.833 106,159.5C 105.168,155.474 104.001,151.474 102.5,147.5C 102.5,143.833 102.5,140.167 102.5,136.5C 103.109,133.034 104.942,132.034 108,133.5C 110.146,136.126 111.479,139.126 112,142.5C 112.333,147.167 112.667,151.833 113,156.5C 116.087,160.122 119.92,162.122 124.5,162.5C 124.663,160.143 124.497,157.81 124,155.5C 119.057,149.3 116.724,142.3 117,134.5C 119.332,131.209 122.165,130.709 125.5,133C 128.653,135.805 130.319,139.305 130.5,143.5C 129.325,143.281 128.325,143.614 127.5,144.5C 131.081,152.292 131.914,160.292 130,168.5C 124.094,175.155 117.594,175.989 110.5,171C 108.866,170.506 107.199,170.34 105.5,170.5C 106.266,181.16 106.433,191.827 106,202.5C 105.152,205.56 104.152,208.56 103,211.5C 101.89,213.037 100.39,213.703 98.5,213.5C 97.9279,202.841 97.4279,192.175 97,181.5C 96.1667,180.667 95.3333,179.833 94.5,179C 89.753,179.378 86.253,177.545 84,173.5C 83.8315,165.812 83.3315,158.145 82.5,150.5C 81.2011,151.09 80.3678,152.09 80,153.5C 79.6667,158.167 79.3333,162.833 79,167.5C 78.6894,173.824 75.5228,176.324 69.5,175C 66.7692,172.374 64.9358,169.207 64,165.5C 63.1684,157.479 63.3351,149.479 64.5,141.5C 65.9705,142.381 66.8038,143.714 67,145.5C 70.695,169.485 74.3617,169.485 78,145.5C 79.5378,141.375 82.2045,138.375 86,136.5C 87.987,137.154 89.3203,138.487 90,140.5C 90.3969,147.523 90.3969,154.523 90,161.5C 90.5885,163.863 92.0885,164.863 94.5,164.5C 93.545,151.45 92.3783,138.45 91,125.5C 92.7328,123.398 94.7328,123.065 97,124.5C 99.5825,129.164 100.749,134.164 100.5,139.5 Z"/></g>
<g><path style="opacity:1" fill="#f7faf9" d="M 145.5,144.5 C 143.833,144.5 142.167,144.5 140.5,144.5C 140.216,146.415 140.549,148.081 141.5,149.5C 142.516,159.633 144.182,169.633 146.5,179.5C 151.493,178.046 153.493,180.046 152.5,185.5C 156.158,186.128 158.658,184.794 160,181.5C 164.187,177.089 167.021,177.755 168.5,183.5C 169.5,183.5 170.5,183.5 171.5,183.5C 171.018,178.318 173.351,175.651 178.5,175.5C 178.076,181.224 177.243,186.89 176,192.5C 171.637,196.131 166.97,196.464 162,193.5C 157.326,198.5 151.993,199.5 146,196.5C 149.68,224.127 138.18,241.627 111.5,249C 91.6681,254.113 81.3347,246.613 80.5,226.5C 80.6667,223.5 80.8333,220.5 81,217.5C 81.1968,215.139 82.3635,213.472 84.5,212.5C 85.1924,213.025 85.6924,213.692 86,214.5C 84.3643,233.535 92.8643,241.369 111.5,238C 130.415,231.584 139.081,218.418 137.5,198.5C 136.914,198.709 136.414,199.043 136,199.5C 134.398,212.218 128.564,222.384 118.5,230C 109.01,235.26 100.177,234.427 92,227.5C 86.6339,218.437 86.1339,209.104 90.5,199.5C 91.365,198.417 92.365,198.251 93.5,199C 92.5388,221.679 101.539,227.012 120.5,215C 125.419,211.324 128.419,206.49 129.5,200.5C 113.904,208.416 108.071,203.749 112,186.5C 115.538,179.142 121.038,176.975 128.5,180C 129.976,182.643 131.976,184.81 134.5,186.5C 135.478,186.023 136.311,185.357 137,184.5C 137.667,181.167 137.667,177.833 137,174.5C 133.821,158.581 131.488,142.581 130,126.5C 132.271,123.537 135.104,122.87 138.5,124.5C 142.514,130.888 144.848,137.554 145.5,144.5 Z"/></g>
<g><path style="opacity:1" fill="#f3f8f5" d="M 297.5,123.5 C 302.092,122.916 304.925,124.916 306,129.5C 307.171,135.026 306.171,140.026 303,144.5C 303.707,138.099 301.707,132.766 297,128.5C 296.36,126.735 296.527,125.068 297.5,123.5 Z"/></g>
<g><path style="opacity:1" fill="#f6faf8" d="M 316.5,122.5 C 319.176,124.026 321.009,126.36 322,129.5C 324.653,133.803 325.82,138.469 325.5,143.5C 324.5,143.5 323.5,143.5 322.5,143.5C 323.86,157.185 325.36,170.851 327,184.5C 327.667,197.5 327.667,210.5 327,223.5C 323.86,235.293 317.027,244.126 306.5,250C 301.605,252.394 297.105,251.894 293,248.5C 292.219,247.056 292.386,245.723 293.5,244.5C 303.965,239.533 312.798,232.533 320,223.5C 318.826,194.076 316.326,164.743 312.5,135.5C 312.632,130.773 313.965,126.44 316.5,122.5 Z"/></g>
<g><path style="opacity:1" fill="#1c713c" d="M 171.5,127.5 C 174.297,127.967 175.631,129.633 175.5,132.5C 172.09,132.616 170.756,130.95 171.5,127.5 Z"/></g>
<g><path style="opacity:1" fill="#64a583" d="M 258.5,127.5 C 259.309,129.028 259.976,130.694 260.5,132.5C 259.833,132.833 259.167,133.167 258.5,133.5C 258.567,132.041 258.234,130.708 257.5,129.5C 258.338,129.158 258.672,128.492 258.5,127.5 Z"/></g>
<g><path style="opacity:1" fill="#f1f7f4" d="M 408.5,133.5 C 409.822,133.33 410.989,133.663 412,134.5C 416.338,141.816 416.505,149.15 412.5,156.5C 411.676,153.215 411.176,149.882 411,146.5C 408.97,143.774 407.47,140.774 406.5,137.5C 406.752,135.927 407.418,134.594 408.5,133.5 Z"/></g>
<g><path style="opacity:1" fill="#2e7b4a" d="M 372.5,135.5 C 375.944,136.045 377.111,138.045 376,141.5C 374.558,139.609 373.391,137.609 372.5,135.5 Z"/></g>
<g><path style="opacity:1" fill="#207440" d="M 275.5,137.5 C 278.633,137.761 279.8,139.428 279,142.5C 277.198,141.211 276.031,139.544 275.5,137.5 Z"/></g>
<g><path style="opacity:1" fill="#4c966d" d="M 102.5,136.5 C 102.5,140.167 102.5,143.833 102.5,147.5C 101.662,147.842 101.328,148.508 101.5,149.5C 100.521,146.375 100.187,143.042 100.5,139.5C 101.167,138.5 101.833,137.5 102.5,136.5 Z"/></g>
<g><path style="opacity:1" fill="#a2c9b5" d="M 145.5,144.5 C 144.432,145.434 143.099,145.768 141.5,145.5C 141.5,146.833 141.5,148.167 141.5,149.5C 140.549,148.081 140.216,146.415 140.5,144.5C 142.167,144.5 143.833,144.5 145.5,144.5 Z"/></g>
<g><path style="opacity:1" fill="#f1f7f4" d="M 297.5,152.5 C 298.5,152.5 299.5,152.5 300.5,152.5C 301.004,156.335 302.004,156.335 303.5,152.5C 304.799,153.09 305.632,154.09 306,155.5C 306.589,153.137 308.089,152.137 310.5,152.5C 311.84,161.187 308.174,164.353 299.5,162C 296.42,159.355 295.753,156.188 297.5,152.5 Z"/></g>
<g><path style="opacity:1" fill="#1e723d" d="M 102.5,147.5 C 104.001,151.474 105.168,155.474 106,159.5C 105.667,159.833 105.333,160.167 105,160.5C 102.147,157.423 100.981,153.756 101.5,149.5C 101.328,148.508 101.662,147.842 102.5,147.5 Z"/></g>
<g><path style="opacity:1" fill="#e9f2ed" d="M 168.5,153.5 C 169.5,153.5 170.5,153.5 171.5,153.5C 170.737,156.141 170.57,158.808 171,161.5C 171.414,161.957 171.914,162.291 172.5,162.5C 176.938,158.115 178.104,158.781 176,164.5C 172.952,168.01 169.619,168.343 166,165.5C 163.696,160.855 164.529,156.855 168.5,153.5 Z"/></g>
<g><path style="opacity:1" fill="#f7faf9" d="M 370.5,159.5 C 370.5,160.833 370.5,162.167 370.5,163.5C 369.209,163.263 368.209,163.596 367.5,164.5C 366.732,165.263 366.232,166.263 366,167.5C 365.501,171.152 365.335,174.818 365.5,178.5C 359.716,176.562 355.216,172.896 352,167.5C 350.175,162.014 352.008,159.514 357.5,160C 358.308,161.706 359.641,162.539 361.5,162.5C 360.333,156.504 362.666,154.004 368.5,155C 369.582,156.33 370.249,157.83 370.5,159.5 Z"/></g>
<g><path style="opacity:1" fill="#77af92" d="M 370.5,159.5 C 371.451,160.919 371.784,162.585 371.5,164.5C 370.167,164.5 368.833,164.5 367.5,164.5C 368.209,163.596 369.209,163.263 370.5,163.5C 370.5,162.167 370.5,160.833 370.5,159.5 Z"/></g>
<g><path style="opacity:1" fill="#f9fbfa" d="M 203.5,167.5 C 205.371,167.859 206.871,168.859 208,170.5C 213.679,181.357 217.179,192.691 218.5,204.5C 222.72,198.129 228.553,193.795 236,191.5C 239.708,190.113 243.541,189.279 247.5,189C 248.3,184.92 248.8,180.753 249,176.5C 253.804,167.782 260.304,166.282 268.5,172C 272.32,178.356 272.487,184.856 269,191.5C 267.062,194.106 264.562,195.939 261.5,197C 256.505,198.564 251.505,200.064 246.5,201.5C 258.82,202.333 271.153,202.833 283.5,203C 283.833,203.333 284.167,203.667 284.5,204C 281.548,208.021 279.882,212.521 279.5,217.5C 268.284,220.203 256.951,222.37 245.5,224C 241.99,225.907 240.824,228.74 242,232.5C 245.667,234.833 249.333,237.167 253,239.5C 253.536,241.567 253.036,243.401 251.5,245C 235.755,246.043 223.255,240.21 214,227.5C 208.566,232.934 203.066,238.434 197.5,244C 190.674,249.837 183.007,251.504 174.5,249C 170.231,246.403 167.065,242.903 165,238.5C 156.664,242.084 148.164,245.25 139.5,248C 137.5,248.667 135.5,248.667 133.5,248C 143.627,239.101 154.627,231.435 166.5,225C 167.793,219.247 170.293,214.081 174,209.5C 173.686,212.546 173.853,215.546 174.5,218.5C 179.479,214.689 184.312,210.689 189,206.5C 191.374,203.199 192.04,199.533 191,195.5C 188.814,191.802 186.147,188.468 183,185.5C 182.333,182.5 182.333,179.5 183,176.5C 185.287,172.47 188.454,171.636 192.5,174C 196.339,177.481 198.005,181.648 197.5,186.5C 196.549,185.674 195.549,185.508 194.5,186C 198.326,192.304 199.493,199.137 198,206.5C 193.93,217.41 186.764,225.743 176.5,231.5C 175.301,235.661 176.968,237.994 181.5,238.5C 193.461,235.048 202.294,227.715 208,216.5C 208.848,209.101 208.515,201.767 207,194.5C 203.127,187.231 201.127,179.565 201,171.5C 201.662,170.016 202.496,168.683 203.5,167.5 Z"/></g>
<g><path style="opacity:1" fill="#f7faf8" d="M 227.5,173.5 C 229.024,174.174 230.358,175.174 231.5,176.5C 232.833,172.5 234.167,172.5 235.5,176.5C 236.386,175.675 236.719,174.675 236.5,173.5C 237.833,173.5 239.167,173.5 240.5,173.5C 242.328,180.031 239.995,183.364 233.5,183.5C 226.925,183.025 224.925,179.691 227.5,173.5 Z"/></g>
<g><path style="opacity:1" fill="#f3f8f5" d="M 375.5,178.5 C 376.725,179.152 377.392,180.319 377.5,182C 377.333,183.167 377.167,184.333 377,185.5C 370.84,191.823 363.673,196.489 355.5,199.5C 355.338,197.473 355.505,195.473 356,193.5C 362.479,188.359 368.979,183.359 375.5,178.5 Z"/></g>
<g><path style="opacity:1" fill="#277744" d="M 255.5,180.5 C 259.192,180.324 261.192,181.991 261.5,185.5C 257.651,185.981 255.651,184.314 255.5,180.5 Z"/></g>
<g><path style="opacity:1" fill="#f7faf8" d="M 84.5,184.5 C 87.5184,184.335 90.5184,184.502 93.5,185C 95.2112,186.133 95.7112,187.633 95,189.5C 85.454,194.023 75.954,198.689 66.5,203.5C 65.432,201.813 65.5986,200.146 67,198.5C 71.8676,192.449 77.7009,187.782 84.5,184.5 Z"/></g>
<g><path style="opacity:1" fill="#156e38" d="M 119.5,188.5 C 123.151,188.162 124.817,189.828 124.5,193.5C 122.5,193.5 120.5,193.5 118.5,193.5C 118.629,191.784 118.962,190.117 119.5,188.5 Z"/></g>
<g><path style="opacity:1" fill="#eff6f2" d="M 371.5,192.5 C 375.453,193.015 377.619,195.348 378,199.5C 378.667,202.833 378.667,206.167 378,209.5C 377.588,211.997 376.422,213.997 374.5,215.5C 373.676,212.215 373.176,208.882 373,205.5C 371.734,202.534 370.567,199.534 369.5,196.5C 369.752,194.927 370.418,193.594 371.5,192.5 Z"/></g>
<g><path style="opacity:1" fill="#c2dbce" d="M 296.5,185.5 C 295.513,190.305 295.179,195.305 295.5,200.5C 294.348,195.015 294.182,189.349 295,183.5C 295.717,184.044 296.217,184.711 296.5,185.5 Z"/></g>
<g><path style="opacity:1" fill="#ecf4f0" d="M 157.5,202.5 C 161.73,201.563 164.23,203.229 165,207.5C 165.968,211.902 165.135,215.902 162.5,219.5C 161.679,216.553 161.179,213.553 161,210.5C 160.385,208.884 159.385,207.551 158,206.5C 157.51,205.207 157.343,203.873 157.5,202.5 Z"/></g>
<g><path style="opacity:1" fill="#0a6d37" d="M 220.5,211.5 C 227.596,211.341 234.596,212.008 241.5,213.5C 242.583,214.365 242.749,215.365 242,216.5C 234.439,218.239 231.606,222.905 233.5,230.5C 223.922,227.612 219.588,221.278 220.5,211.5 Z"/></g>
<g><path style="opacity:1" fill="#63a481" d="M 425.5,206.5 C 426.833,213.167 426.833,219.833 425.5,226.5C 425.672,225.508 425.338,224.842 424.5,224.5C 424.5,221.5 424.5,218.5 424.5,215.5C 425.477,212.713 425.81,209.713 425.5,206.5 Z"/></g>
<g><path style="opacity:1" fill="#f1f7f4" d="M 66.5,218.5 C 66.644,224.943 66.644,231.61 66.5,238.5C 68.9948,237.801 71.3281,236.801 73.5,235.5C 74.4294,240.765 73.0961,245.265 69.5,249C 66.2106,249.746 63.7106,248.58 62,245.5C 59.6153,235.808 61.1153,226.808 66.5,218.5 Z"/></g>
<g><path style="opacity:1" fill="#62a481" d="M 339.5,209.5 C 340.167,216.833 340.833,224.167 341.5,231.5C 341.44,232.043 341.107,232.376 340.5,232.5C 339.503,224.862 339.169,217.196 339.5,209.5 Z"/></g>
<g><path style="opacity:1" fill="#f1f7f4" d="M 266.5,229.5 C 267.496,229.414 268.329,229.748 269,230.5C 269.497,233.146 269.664,235.813 269.5,238.5C 273.661,236.937 277.995,236.271 282.5,236.5C 282.67,237.822 282.337,238.989 281.5,240C 276.21,241.821 270.877,243.321 265.5,244.5C 265.662,242.473 265.495,240.473 265,238.5C 263.644,237.62 262.144,237.286 260.5,237.5C 261.345,233.985 263.345,231.319 266.5,229.5 Z"/></g>
<g><path style="opacity:1" fill="#eff6f2" d="M 392.5,234.5 C 394.92,234.292 397.253,234.626 399.5,235.5C 399.833,236 400.167,236.5 400.5,237C 399.144,238.567 398.477,240.4 398.5,242.5C 400.167,242.5 401.833,242.5 403.5,242.5C 403.703,244.39 403.037,245.89 401.5,247C 398.11,249.245 394.443,250.245 390.5,250C 390.043,249.586 389.709,249.086 389.5,248.5C 391.372,246.465 393.039,244.298 394.5,242C 393.523,240.503 392.523,239.003 391.5,237.5C 391.685,236.416 392.018,235.416 392.5,234.5 Z"/></g>
<g><path style="opacity:1" fill="#fafcfb" d="M 338.5,366.5 C 339.043,366.44 339.376,366.107 339.5,365.5C 272.17,364.5 204.837,364.167 137.5,364.5C 127.599,364.216 119.599,360.216 113.5,352.5C 157.819,352.314 202.152,352.314 246.5,352.5C 277.331,353.664 308.331,353.831 339.5,353C 338.934,352.005 338.267,351.172 337.5,350.5C 336.68,346.855 338.013,344.522 341.5,343.5C 342.695,345.297 344.362,346.297 346.5,346.5C 346.756,348.792 346.423,350.959 345.5,353C 356.333,354.422 367.167,354.589 378,353.5C 383.309,354.809 386.643,358.143 388,363.5C 389.089,368.561 388.256,373.228 385.5,377.5C 381.881,380.105 378.548,379.938 375.5,377C 365.5,376.333 355.5,376.333 345.5,377C 344.892,377.87 344.059,378.37 343,378.5C 339.1,375.545 337.6,371.545 338.5,366.5 Z"/></g>
<g><path style="opacity:1" fill="#2a8355" d="M 337.5,350.5 C 338.267,351.172 338.934,352.005 339.5,353C 308.331,353.831 277.331,353.664 246.5,352.5C 277.185,353.159 307.518,352.492 337.5,350.5 Z"/></g>
<g><path style="opacity:1" fill="#67a786" d="M 137.5,364.5 C 204.837,364.167 272.17,364.5 339.5,365.5C 339.376,366.107 339.043,366.44 338.5,366.5C 271.5,365.833 204.5,365.167 137.5,364.5 Z"/></g>
<g><path style="opacity:1" fill="#247541" d="M 345.5,365.5 C 354.833,365.5 364.167,365.5 373.5,365.5C 373.5,367.167 373.5,368.833 373.5,370.5C 369.092,370.884 364.925,370.217 361,368.5C 356.064,370.29 350.898,370.957 345.5,370.5C 345.5,368.833 345.5,367.167 345.5,365.5 Z"/></g>
</svg>
