<?xml version="1.0" encoding="UTF-8"?>
<!DOCTYPE svg PUBLIC "-//W3C//DTD SVG 1.1//EN" "http://www.w3.org/Graphics/SVG/1.1/DTD/svg11.dtd">
<svg xmlns="http://www.w3.org/2000/svg" version="1.1" width="500px" height="500px" style="shape-rendering:geometricPrecision; text-rendering:geometricPrecision; image-rendering:optimizeQuality; fill-rule:evenodd; clip-rule:evenodd" xmlns:xlink="http://www.w3.org/1999/xlink">
<g><path style="opacity:0.994" fill="#005cb9" d="M 225.5,-0.5 C 241.5,-0.5 257.5,-0.5 273.5,-0.5C 324.838,5.32976 370.505,24.4964 410.5,57C 416.337,61.6704 421.67,66.837 426.5,72.5C 367.48,112.833 308.147,152.833 248.5,192.5C 189.262,153.058 130.262,113.391 71.5,73.5C 114.145,31.1808 165.478,6.5141 225.5,-0.5 Z"/></g>
<g><path style="opacity:0.997" fill="#fefdfc" d="M 426.5,72.5 C 449.689,95.1858 467.689,121.519 480.5,151.5C 431.64,183.427 383.307,216.093 335.5,249.5C 383.579,282.251 431.912,314.585 480.5,346.5C 468.047,376.429 450.38,402.762 427.5,425.5C 367.936,385.465 308.103,345.798 248,306.5C 188.69,345.648 129.523,384.981 70.5,424.5C 47.601,401.915 30.2677,375.581 18.5,345.5C 66.3474,313.745 114.014,281.745 161.5,249.5C 114.359,216.759 66.6922,184.759 18.5,153.5C 30.6063,123.077 48.273,96.4103 71.5,73.5C 130.262,113.391 189.262,153.058 248.5,192.5C 308.147,152.833 367.48,112.833 426.5,72.5 Z"/></g>
<g><path style="opacity:0.993" fill="#015cb9" d="M 480.5,151.5 C 490.145,175.083 496.478,199.416 499.5,224.5C 499.5,241.167 499.5,257.833 499.5,274.5C 496.626,299.325 490.293,323.325 480.5,346.5C 431.912,314.585 383.579,282.251 335.5,249.5C 383.307,216.093 431.64,183.427 480.5,151.5 Z"/></g>
<g><path style="opacity:0.993" fill="#015cb9" d="M 18.5,153.5 C 66.6922,184.759 114.359,216.759 161.5,249.5C 114.014,281.745 66.3474,313.745 18.5,345.5C 8.41076,322.476 2.07743,298.476 -0.5,273.5C -0.5,257.5 -0.5,241.5 -0.5,225.5C 2.07743,200.524 8.41076,176.524 18.5,153.5 Z"/></g>
<g><path style="opacity:0.994" fill="#005cb9" d="M 427.5,425.5 C 385.341,468.077 334.341,492.744 274.5,499.5C 257.833,499.5 241.167,499.5 224.5,499.5C 164.233,492.434 112.9,467.434 70.5,424.5C 129.523,384.981 188.69,345.648 248,306.5C 308.103,345.798 367.936,385.465 427.5,425.5 Z"/></g>
</svg>
