<?xml version="1.0" encoding="UTF-8"?>
<!DOCTYPE svg PUBLIC "-//W3C//DTD SVG 1.1//EN" "http://www.w3.org/Graphics/SVG/1.1/DTD/svg11.dtd">
<svg xmlns="http://www.w3.org/2000/svg" version="1.1" width="500px" height="500px" style="shape-rendering:geometricPrecision; text-rendering:geometricPrecision; image-rendering:optimizeQuality; fill-rule:evenodd; clip-rule:evenodd" xmlns:xlink="http://www.w3.org/1999/xlink">
<g><path style="opacity:0.997" fill="#fcef42" d="M 225.5,-0.5 C 241.5,-0.5 257.5,-0.5 273.5,-0.5C 293.711,1.80256 313.378,6.46923 332.5,13.5C 332.5,170.833 332.5,328.167 332.5,485.5C 323.9,489.198 314.9,492.031 305.5,494C 295.064,496.071 284.73,497.905 274.5,499.5C 257.833,499.5 241.167,499.5 224.5,499.5C 204.6,497.253 185.267,492.586 166.5,485.5C 166.5,328.167 166.5,170.833 166.5,13.5C 185.622,6.46923 205.289,1.80256 225.5,-0.5 Z"/></g>
<g><path style="opacity:0.993" fill="#01853f" d="M 166.5,13.5 C 166.5,170.833 166.5,328.167 166.5,485.5C 84.513,455.009 31.3463,397.676 7,313.5C 3.72528,300.168 1.22528,286.834 -0.5,273.5C -0.5,257.5 -0.5,241.5 -0.5,225.5C 11.4543,135.075 57.4543,68.242 137.5,25C 146.845,20.2755 156.512,16.4422 166.5,13.5 Z"/></g>
<g><path style="opacity:0.993" fill="#e31c23" d="M 332.5,13.5 C 412.881,43.3844 465.714,99.3844 491,181.5C 494.695,195.808 497.529,210.141 499.5,224.5C 499.5,241.167 499.5,257.833 499.5,274.5C 486.192,370.295 435.858,438.795 348.5,480C 343.244,482.141 337.91,483.974 332.5,485.5C 332.5,328.167 332.5,170.833 332.5,13.5 Z"/></g>
<g><path style="opacity:1" fill="#09863f" d="M 261.5,231.5 C 274.833,232.167 288.167,232.833 301.5,233.5C 291.212,240.615 281.045,247.948 271,255.5C 270.333,256.833 270.333,258.167 271,259.5C 274.702,270.271 278.202,281.105 281.5,292C 281.167,292.5 280.833,293 280.5,293.5C 270.303,285.908 259.969,278.575 249.5,271.5C 239.031,278.575 228.697,285.908 218.5,293.5C 220.73,280.949 224.397,268.616 229.5,256.5C 218.815,248.808 208.148,241.142 197.5,233.5C 210.833,232.833 224.167,232.167 237.5,231.5C 241.094,219.05 245.094,206.717 249.5,194.5C 253.901,206.702 257.901,219.035 261.5,231.5 Z"/></g>
<g><path style="opacity:1" fill="#cbda41" d="M 237.5,231.5 C 224.167,232.167 210.833,232.833 197.5,233.5C 196.957,233.44 196.624,233.107 196.5,232.5C 210.15,231.501 223.817,231.167 237.5,231.5 Z"/></g>
<g><path style="opacity:1" fill="#cbda41" d="M 261.5,231.5 C 275.183,231.167 288.85,231.501 302.5,232.5C 302.376,233.107 302.043,233.44 301.5,233.5C 288.167,232.833 274.833,232.167 261.5,231.5 Z"/></g>
</svg>
