<?xml version="1.0" encoding="UTF-8"?>
<!DOCTYPE svg PUBLIC "-//W3C//DTD SVG 1.1//EN" "http://www.w3.org/Graphics/SVG/1.1/DTD/svg11.dtd">
<svg xmlns="http://www.w3.org/2000/svg" version="1.1" width="500px" height="500px" style="shape-rendering:geometricPrecision; text-rendering:geometricPrecision; image-rendering:optimizeQuality; fill-rule:evenodd; clip-rule:evenodd" xmlns:xlink="http://www.w3.org/1999/xlink">
<g><path style="opacity:0.991" fill="#003f86" d="M 225.5,-0.5 C 233.5,-0.5 241.5,-0.5 249.5,-0.5C 172.487,114.87 95.4869,230.204 18.5,345.5C 8.41076,322.476 2.07743,298.476 -0.5,273.5C -0.5,257.5 -0.5,241.5 -0.5,225.5C 11.4543,135.075 57.4543,68.242 137.5,25C 165.514,11.5012 194.847,3.00119 225.5,-0.5 Z"/></g>
<g><path style="opacity:0.997" fill="#fbd756" d="M 249.5,-0.5 C 257.5,-0.5 265.5,-0.5 273.5,-0.5C 341.119,7.64869 397.286,37.3154 442,88.5C 445.015,91.8777 447.515,95.5444 449.5,99.5C 316.167,199.5 182.833,299.5 49.5,399.5C 36.1045,383.39 25.7711,365.39 18.5,345.5C 95.4869,230.204 172.487,114.87 249.5,-0.5 Z"/></g>
<g><path style="opacity:0.997" fill="#d62828" d="M 449.5,99.5 C 468.825,123.813 482.658,151.147 491,181.5C 494.695,195.808 497.529,210.141 499.5,224.5C 499.5,241.167 499.5,257.833 499.5,274.5C 498.041,285.472 496.041,296.472 493.5,307.5C 358.475,351.73 223.809,396.73 89.5,442.5C 74.0256,430.03 60.6922,415.697 49.5,399.5C 182.833,299.5 316.167,199.5 449.5,99.5 Z"/></g>
<g><path style="opacity:0.995" fill="#fefefe" d="M 493.5,307.5 C 484.148,347.21 466.148,382.21 439.5,412.5C 333.617,429.647 227.951,447.314 122.5,465.5C 110.672,459.002 99.6716,451.335 89.5,442.5C 223.809,396.73 358.475,351.73 493.5,307.5 Z"/></g>
<g><path style="opacity:0.984" fill="#027a3d" d="M 439.5,412.5 C 395.934,462.787 340.934,491.787 274.5,499.5C 257.833,499.5 241.167,499.5 224.5,499.5C 188.204,495.179 154.204,483.846 122.5,465.5C 227.951,447.314 333.617,429.647 439.5,412.5 Z"/></g>
</svg>
