<?xml version="1.0" encoding="UTF-8"?>
<!DOCTYPE svg PUBLIC "-//W3C//DTD SVG 1.1//EN" "http://www.w3.org/Graphics/SVG/1.1/DTD/svg11.dtd">
<svg xmlns="http://www.w3.org/2000/svg" version="1.1" width="500px" height="500px" style="shape-rendering:geometricPrecision; text-rendering:geometricPrecision; image-rendering:optimizeQuality; fill-rule:evenodd; clip-rule:evenodd" xmlns:xlink="http://www.w3.org/1999/xlink">
<g><path style="opacity:0.994" fill="#ed2939" d="M 225.5,-0.5 C 241.5,-0.5 257.5,-0.5 273.5,-0.5C 362.269,10.9489 428.436,55.6156 472,133.5C 486.559,162.333 495.726,192.666 499.5,224.5C 499.5,232.833 499.5,241.167 499.5,249.5C 332.833,249.5 166.167,249.5 -0.5,249.5C -0.5,241.5 -0.5,233.5 -0.5,225.5C 11.4543,135.075 57.4543,68.242 137.5,25C 165.514,11.5012 194.847,3.00119 225.5,-0.5 Z"/></g>
<g><path style="opacity:1" fill="#fffcfc" d="M 190.5,34.5 C 189.833,35.1667 189.167,35.8333 188.5,36.5C 152.85,41.312 128.016,60.312 114,93.5C 102.038,132.27 110.871,165.437 140.5,193C 153.576,203.862 168.576,210.362 185.5,212.5C 187.5,213.167 189.5,213.833 191.5,214.5C 143.39,226.183 106.223,211.183 80,169.5C 62.0315,132.382 65.3648,97.3816 90,64.5C 117.39,34.2047 150.89,24.2047 190.5,34.5 Z"/></g>
<g><path style="opacity:1" fill="#f68b92" d="M 190.5,34.5 C 191.756,34.4614 192.756,34.9614 193.5,36C 191.866,36.4935 190.199,36.6602 188.5,36.5C 189.167,35.8333 189.833,35.1667 190.5,34.5 Z"/></g>
<g><path style="opacity:1" fill="#fff6f6" d="M 192.5,65.5 C 197.167,64.8333 201.833,64.1667 206.5,63.5C 208.135,58.937 209.801,54.2704 211.5,49.5C 213.931,54.2151 215.598,59.2151 216.5,64.5C 221.511,64.3341 226.511,64.5007 231.5,65C 227.279,67.9369 223.279,71.1035 219.5,74.5C 221.941,79.3138 223.441,84.3138 224,89.5C 220.272,86.101 216.272,83.101 212,80.5C 207.896,82.9332 204.063,85.7665 200.5,89C 199.833,89.6667 199.167,89.6667 198.5,89C 200.359,84.4259 202.025,79.7592 203.5,75C 200.318,71.3218 196.652,68.1551 192.5,65.5 Z"/></g>
<g><path style="opacity:1" fill="#f4868f" d="M 206.5,63.5 C 201.833,64.1667 197.167,64.8333 192.5,65.5C 191.957,65.44 191.624,65.1067 191.5,64.5C 196.456,63.5059 201.456,63.1725 206.5,63.5 Z"/></g>
<g><path style="opacity:1" fill="#fff6f7" d="M 266.5,100.5 C 271.5,101.167 276.5,101.833 281.5,102.5C 277.876,104.951 274.376,107.617 271,110.5C 271.801,115.893 272.801,121.226 274,126.5C 270.161,123.251 266.161,120.251 262,117.5C 257.728,120.101 253.728,123.101 250,126.5C 250.314,121.537 251.481,116.704 253.5,112C 250.318,108.322 246.652,105.155 242.5,102.5C 247.5,101.833 252.5,101.167 257.5,100.5C 258.388,95.6058 259.888,90.9392 262,86.5C 263.811,91.0792 265.311,95.7458 266.5,100.5 Z"/></g>
<g><path style="opacity:1" fill="#fff7f8" d="M 142.5,102.5 C 147.167,101.833 151.833,101.167 156.5,100.5C 158.018,95.7917 159.851,91.125 162,86.5C 163.81,91.4287 165.31,96.4287 166.5,101.5C 171.511,101.334 176.511,101.501 181.5,102C 177.279,104.937 173.279,108.104 169.5,111.5C 171.807,116.038 172.807,120.705 172.5,125.5C 169.01,122.589 165.344,119.922 161.5,117.5C 157.5,120.5 153.5,123.5 149.5,126.5C 150.202,121.837 151.536,117.003 153.5,112C 150.318,108.322 146.652,105.155 142.5,102.5 Z"/></g>
<g><path style="opacity:1" fill="#f15a66" d="M 156.5,100.5 C 151.833,101.167 147.167,101.833 142.5,102.5C 141.957,102.44 141.624,102.107 141.5,101.5C 146.456,100.506 151.456,100.173 156.5,100.5 Z"/></g>
<g><path style="opacity:1" fill="#f15d69" d="M 257.5,100.5 C 252.5,101.167 247.5,101.833 242.5,102.5C 241.957,102.44 241.624,102.107 241.5,101.5C 246.792,100.505 252.125,100.172 257.5,100.5 Z"/></g>
<g><path style="opacity:1" fill="#f15b67" d="M 266.5,100.5 C 271.875,100.172 277.208,100.505 282.5,101.5C 282.376,102.107 282.043,102.44 281.5,102.5C 276.5,101.833 271.5,101.167 266.5,100.5 Z"/></g>
<g><path style="opacity:1" fill="#fff7f8" d="M 184.5,159.5 C 189.056,161.442 194.056,162.108 199.5,161.5C 195.873,164.657 192.206,167.824 188.5,171C 190.519,175.704 191.686,180.537 192,185.5C 188.257,182.379 184.424,179.379 180.5,176.5C 176.691,179.142 173.024,181.975 169.5,185C 168.833,185.667 168.167,185.667 167.5,185C 169.013,180.284 170.68,175.617 172.5,171C 168.957,167.951 165.291,165.118 161.5,162.5C 166.167,161.833 170.833,161.167 175.5,160.5C 176.897,155.809 178.397,151.143 180,146.5C 182.57,150.44 184.07,154.773 184.5,159.5 Z"/></g>
<g><path style="opacity:1" fill="#fff7f7" d="M 247.5,160.5 C 252.167,161.167 256.833,161.833 261.5,162.5C 257.538,164.795 254.205,167.795 251.5,171.5C 252.835,175.839 254.169,180.172 255.5,184.5C 255.167,184.833 254.833,185.167 254.5,185.5C 250.576,182.621 246.743,179.621 243,176.5C 239.31,179.691 235.477,182.691 231.5,185.5C 231.167,185.167 230.833,184.833 230.5,184.5C 232.784,179.702 233.951,174.702 234,169.5C 230.893,167.035 227.726,164.702 224.5,162.5C 229.167,161.833 233.833,161.167 238.5,160.5C 239.694,155.418 241.194,150.418 243,145.5C 245.211,150.298 246.711,155.298 247.5,160.5 Z"/></g>
<g><path style="opacity:1" fill="#f9b9be" d="M 175.5,160.5 C 170.833,161.167 166.167,161.833 161.5,162.5C 160.957,162.44 160.624,162.107 160.5,161.5C 165.456,160.506 170.456,160.173 175.5,160.5 Z"/></g>
<g><path style="opacity:1" fill="#f9bec3" d="M 184.5,159.5 C 190.179,160.079 195.179,160.745 199.5,161.5C 194.056,162.108 189.056,161.442 184.5,159.5 Z"/></g>
<g><path style="opacity:1" fill="#f9bbc0" d="M 238.5,160.5 C 233.833,161.167 229.167,161.833 224.5,162.5C 223.711,162.217 223.044,161.717 222.5,161C 227.823,160.501 233.156,160.334 238.5,160.5 Z"/></g>
<g><path style="opacity:1" fill="#f9bcc1" d="M 247.5,160.5 C 252.844,160.334 258.177,160.501 263.5,161C 262.956,161.717 262.289,162.217 261.5,162.5C 256.833,161.833 252.167,161.167 247.5,160.5 Z"/></g>
<g><path style="opacity:1" fill="#f68a91" d="M 185.5,212.5 C 187.924,212.192 190.257,212.526 192.5,213.5C 192.376,214.107 192.043,214.44 191.5,214.5C 189.5,213.833 187.5,213.167 185.5,212.5 Z"/></g>
<g><path style="opacity:0.995" fill="#fefefe" d="M -0.5,249.5 C 166.167,249.5 332.833,249.5 499.5,249.5C 499.5,257.833 499.5,266.167 499.5,274.5C 487.764,361.841 443.764,427.341 367.5,471C 338.093,486.083 307.093,495.583 274.5,499.5C 257.833,499.5 241.167,499.5 224.5,499.5C 132.596,487.072 65.4294,439.739 23,357.5C 10.7506,330.604 2.91724,302.604 -0.5,273.5C -0.5,265.5 -0.5,257.5 -0.5,249.5 Z"/></g>
</svg>
