<?xml version="1.0" encoding="UTF-8"?>
<!DOCTYPE svg PUBLIC "-//W3C//DTD SVG 1.1//EN" "http://www.w3.org/Graphics/SVG/1.1/DTD/svg11.dtd">
<svg xmlns="http://www.w3.org/2000/svg" version="1.1" width="500px" height="500px" style="shape-rendering:geometricPrecision; text-rendering:geometricPrecision; image-rendering:optimizeQuality; fill-rule:evenodd; clip-rule:evenodd" xmlns:xlink="http://www.w3.org/1999/xlink">
<g><path style="opacity:0.993" fill="#fefefe" d="M 225.5,-0.5 C 241.5,-0.5 257.5,-0.5 273.5,-0.5C 362.269,10.9489 428.436,55.6156 472,133.5C 477.34,143.842 481.84,154.509 485.5,165.5C 422.167,165.5 358.833,165.5 295.5,165.5C 295.176,172.354 295.509,179.021 296.5,185.5C 296.667,208.169 296.5,230.836 296,253.5C 292.706,283.592 281.206,309.926 261.5,332.5C 240.802,355.354 216.302,373.021 188,385.5C 159.674,372.988 135.174,355.322 114.5,332.5C 94.86,309.872 83.36,283.538 80,253.5C 79.5,230.836 79.3334,208.169 79.5,185.5C 80.4907,179.021 80.824,172.354 80.5,165.5C 58.1667,165.5 35.8333,165.5 13.5,165.5C 44.4855,84.1583 101.819,31.3249 185.5,7C 198.832,3.72528 212.166,1.22528 225.5,-0.5 Z"/></g>
<g><path style="opacity:1" fill="#ee1d25" d="M 268.5,307.5 C 264.773,302.265 260.44,297.432 255.5,293C 241.266,285.518 229.432,288.351 220,301.5C 216.045,292.877 210.545,285.377 203.5,279C 201.114,277.807 198.78,276.64 196.5,275.5C 196.5,262.167 196.5,248.833 196.5,235.5C 213.757,234.859 230.757,236.526 247.5,240.5C 247.56,241.043 247.893,241.376 248.5,241.5C 249.499,231.522 249.832,221.522 249.5,211.5C 248.209,211.263 247.209,211.596 246.5,212.5C 235.683,215.247 224.683,216.58 213.5,216.5C 208.167,216.5 202.833,216.5 197.5,216.5C 197.5,207.833 197.5,199.167 197.5,190.5C 210.783,190.119 223.783,191.785 236.5,195.5C 236.56,196.043 236.893,196.376 237.5,196.5C 238.499,186.522 238.832,176.522 238.5,166.5C 237.209,166.263 236.209,166.596 235.5,167.5C 227.614,169.471 219.614,170.804 211.5,171.5C 206.833,171.5 202.167,171.5 197.5,171.5C 197.5,170.5 197.5,169.5 197.5,168.5C 197.862,156.967 199.529,145.633 202.5,134.5C 195.542,133.993 188.542,133.993 181.5,134.5C 178.976,133.2 176.309,133.2 173.5,134.5C 173.624,135.107 173.957,135.44 174.5,135.5C 175.942,144.484 177.275,153.484 178.5,162.5C 178.5,165.5 178.5,168.5 178.5,171.5C 173.5,171.5 168.5,171.5 163.5,171.5C 154.921,170.794 146.588,169.127 138.5,166.5C 137.177,176.341 137.177,186.341 138.5,196.5C 139.107,196.376 139.44,196.043 139.5,195.5C 152.2,191.686 165.2,190.019 178.5,190.5C 178.5,199.167 178.5,207.833 178.5,216.5C 172.5,216.5 166.5,216.5 160.5,216.5C 149.305,216.99 138.471,215.323 128,211.5C 127.5,221.161 127.334,230.828 127.5,240.5C 136.698,238.301 146.031,236.967 155.5,236.5C 163.167,236.5 170.833,236.5 178.5,236.5C 178.5,249.5 178.5,262.5 178.5,275.5C 174.283,277.877 170.449,280.877 167,284.5C 162.586,289.656 158.919,295.323 156,301.5C 146.605,288.367 134.772,285.533 120.5,293C 115.533,297.124 111.533,301.958 108.5,307.5C 104.27,302.056 100.77,296.056 98,289.5C 93.9017,278.107 90.9017,266.44 89,254.5C 87.878,211.121 88.7113,167.788 91.5,124.5C 155.833,124.5 220.167,124.5 284.5,124.5C 287.704,164.768 288.871,205.101 288,245.5C 286.729,267.948 280.229,288.614 268.5,307.5 Z"/></g>
<g><path style="opacity:1" fill="#f9a7aa" d="M 181.5,134.5 C 178.941,134.198 176.607,134.532 174.5,135.5C 173.957,135.44 173.624,135.107 173.5,134.5C 176.309,133.2 178.976,133.2 181.5,134.5 Z"/></g>
<g><path style="opacity:1" fill="#fefdfd" d="M 197.5,168.5 C 196.566,169.568 196.232,170.901 196.5,172.5C 201.695,172.821 206.695,172.487 211.5,171.5C 219.614,170.804 227.614,169.471 235.5,167.5C 236.827,171.783 237.493,176.449 237.5,181.5C 237.499,186.346 237.166,191.012 236.5,195.5C 223.783,191.785 210.783,190.119 197.5,190.5C 196.507,199.318 196.173,208.318 196.5,217.5C 202.358,217.822 208.025,217.489 213.5,216.5C 224.683,216.58 235.683,215.247 246.5,212.5C 247.827,216.783 248.493,221.449 248.5,226.5C 248.499,231.346 248.166,236.012 247.5,240.5C 230.757,236.526 213.757,234.859 196.5,235.5C 196.5,248.833 196.5,262.167 196.5,275.5C 190.816,272.838 185.149,272.838 179.5,275.5C 179.5,262.167 179.5,248.833 179.5,235.5C 171.316,235.174 163.316,235.508 155.5,236.5C 146.031,236.967 136.698,238.301 127.5,240.5C 127.334,230.828 127.5,221.161 128,211.5C 138.471,215.323 149.305,216.99 160.5,216.5C 166.645,217.49 172.978,217.823 179.5,217.5C 179.827,208.318 179.493,199.318 178.5,190.5C 165.2,190.019 152.2,191.686 139.5,195.5C 138.506,186.014 138.173,176.348 138.5,166.5C 146.588,169.127 154.921,170.794 163.5,171.5C 168.64,172.488 173.974,172.821 179.5,172.5C 179.813,168.958 179.479,165.625 178.5,162.5C 177.275,153.484 175.942,144.484 174.5,135.5C 176.607,134.532 178.941,134.198 181.5,134.5C 188.542,133.993 195.542,133.993 202.5,134.5C 199.529,145.633 197.862,156.967 197.5,168.5 Z"/></g>
<g><path style="opacity:1" fill="#bacde4" d="M 13.5,166.5 C 13.5,166.167 13.5,165.833 13.5,165.5C 35.8333,165.5 58.1667,165.5 80.5,165.5C 80.824,172.354 80.4907,179.021 79.5,185.5C 79.5,179.167 79.5,172.833 79.5,166.5C 57.5,166.5 35.5,166.5 13.5,166.5 Z"/></g>
<g><path style="opacity:0.999" fill="#c0d1e7" d="M 485.5,165.5 C 485.5,165.833 485.5,166.167 485.5,166.5C 422.5,166.5 359.5,166.5 296.5,166.5C 296.5,172.833 296.5,179.167 296.5,185.5C 295.509,179.021 295.176,172.354 295.5,165.5C 358.833,165.5 422.167,165.5 485.5,165.5 Z"/></g>
<g><path style="opacity:0.992" fill="#0c4ea2" d="M 13.5,166.5 C 35.5,166.5 57.5,166.5 79.5,166.5C 79.5,172.833 79.5,179.167 79.5,185.5C 79.3334,208.169 79.5,230.836 80,253.5C 83.36,283.538 94.86,309.872 114.5,332.5C 80.8333,332.5 47.1667,332.5 13.5,332.5C 6.28469,313.42 1.61802,293.754 -0.5,273.5C -0.5,257.5 -0.5,241.5 -0.5,225.5C 1.61802,205.246 6.28469,185.58 13.5,166.5 Z"/></g>
<g><path style="opacity:0.997" fill="#0b4ea2" d="M 485.5,166.5 C 492.586,185.267 497.253,204.6 499.5,224.5C 499.5,241.167 499.5,257.833 499.5,274.5C 498.1,284.764 496.267,295.098 494,305.5C 492.031,314.9 489.198,323.9 485.5,332.5C 410.833,332.5 336.167,332.5 261.5,332.5C 281.206,309.926 292.706,283.592 296,253.5C 296.5,230.836 296.667,208.169 296.5,185.5C 296.5,179.167 296.5,172.833 296.5,166.5C 359.5,166.5 422.5,166.5 485.5,166.5 Z"/></g>
<g><path style="opacity:1" fill="#f78a8d" d="M 178.5,162.5 C 179.479,165.625 179.813,168.958 179.5,172.5C 173.974,172.821 168.64,172.488 163.5,171.5C 168.5,171.5 173.5,171.5 178.5,171.5C 178.5,168.5 178.5,165.5 178.5,162.5 Z"/></g>
<g><path style="opacity:1" fill="#f68084" d="M 197.5,168.5 C 197.5,169.5 197.5,170.5 197.5,171.5C 202.167,171.5 206.833,171.5 211.5,171.5C 206.695,172.487 201.695,172.821 196.5,172.5C 196.232,170.901 196.566,169.568 197.5,168.5 Z"/></g>
<g><path style="opacity:1" fill="#f56f73" d="M 235.5,167.5 C 236.209,166.596 237.209,166.263 238.5,166.5C 238.832,176.522 238.499,186.522 237.5,196.5C 236.893,196.376 236.56,196.043 236.5,195.5C 237.166,191.012 237.499,186.346 237.5,181.5C 237.493,176.449 236.827,171.783 235.5,167.5 Z"/></g>
<g><path style="opacity:1" fill="#f24c51" d="M 138.5,166.5 C 138.173,176.348 138.506,186.014 139.5,195.5C 139.44,196.043 139.107,196.376 138.5,196.5C 137.177,186.341 137.177,176.341 138.5,166.5 Z"/></g>
<g><path style="opacity:1" fill="#f14d53" d="M 178.5,190.5 C 179.493,199.318 179.827,208.318 179.5,217.5C 172.978,217.823 166.645,217.49 160.5,216.5C 166.5,216.5 172.5,216.5 178.5,216.5C 178.5,207.833 178.5,199.167 178.5,190.5 Z"/></g>
<g><path style="opacity:1" fill="#f35e62" d="M 197.5,190.5 C 197.5,199.167 197.5,207.833 197.5,216.5C 202.833,216.5 208.167,216.5 213.5,216.5C 208.025,217.489 202.358,217.822 196.5,217.5C 196.173,208.318 196.507,199.318 197.5,190.5 Z"/></g>
<g><path style="opacity:1" fill="#f45c5f" d="M 246.5,212.5 C 247.209,211.596 248.209,211.263 249.5,211.5C 249.832,221.522 249.499,231.522 248.5,241.5C 247.893,241.376 247.56,241.043 247.5,240.5C 248.166,236.012 248.499,231.346 248.5,226.5C 248.493,221.449 247.827,216.783 246.5,212.5 Z"/></g>
<g><path style="opacity:1" fill="#f1494e" d="M 155.5,236.5 C 163.316,235.508 171.316,235.174 179.5,235.5C 179.5,248.833 179.5,262.167 179.5,275.5C 179.167,275.5 178.833,275.5 178.5,275.5C 178.5,262.5 178.5,249.5 178.5,236.5C 170.833,236.5 163.167,236.5 155.5,236.5 Z"/></g>
<g><path style="opacity:1" fill="#104ea1" d="M 196.5,275.5 C 198.78,276.64 201.114,277.807 203.5,279C 210.545,285.377 216.045,292.877 220,301.5C 229.432,288.351 241.266,285.518 255.5,293C 260.44,297.432 264.773,302.265 268.5,307.5C 254.998,328.502 237.665,345.668 216.5,359C 207.224,364.555 197.724,369.722 188,374.5C 155.977,360.139 129.644,338.806 109,310.5C 108.517,309.552 108.351,308.552 108.5,307.5C 111.533,301.958 115.533,297.124 120.5,293C 134.772,285.533 146.605,288.367 156,301.5C 158.919,295.323 162.586,289.656 167,284.5C 170.449,280.877 174.283,277.877 178.5,275.5C 178.833,275.5 179.167,275.5 179.5,275.5C 185.149,272.838 190.816,272.838 196.5,275.5 Z"/></g>
<g><path style="opacity:0.993" fill="#ed1c25" d="M 13.5,332.5 C 47.1667,332.5 80.8333,332.5 114.5,332.5C 135.174,355.322 159.674,372.988 188,385.5C 216.302,373.021 240.802,355.354 261.5,332.5C 336.167,332.5 410.833,332.5 485.5,332.5C 459.059,404.776 410.059,455.276 338.5,484C 317.652,491.713 296.319,496.88 274.5,499.5C 257.833,499.5 241.167,499.5 224.5,499.5C 136.144,487.759 70.3107,443.092 27,365.5C 21.3753,354.923 16.8753,343.923 13.5,332.5 Z"/></g>
</svg>
