<?xml version="1.0" encoding="UTF-8"?>
<!DOCTYPE svg PUBLIC "-//W3C//DTD SVG 1.1//EN" "http://www.w3.org/Graphics/SVG/1.1/DTD/svg11.dtd">
<svg xmlns="http://www.w3.org/2000/svg" version="1.1" width="500px" height="500px" style="shape-rendering:geometricPrecision; text-rendering:geometricPrecision; image-rendering:optimizeQuality; fill-rule:evenodd; clip-rule:evenodd" xmlns:xlink="http://www.w3.org/1999/xlink">
<g><path style="opacity:0.995" fill="#0051ba" d="M 225.5,-0.5 C 241.5,-0.5 257.5,-0.5 273.5,-0.5C 369.813,12.3931 438.646,62.7264 480,150.5C 484.334,161.336 488.167,172.336 491.5,183.5C 490.127,183.343 488.793,183.51 487.5,184C 426.167,214.667 364.833,245.333 303.5,276C 302.748,276.671 302.414,277.504 302.5,278.5C 294.293,282.77 285.96,286.77 277.5,290.5C 276.883,290.389 276.383,290.056 276,289.5C 234.578,310.461 193.078,331.295 151.5,352C 150.748,352.671 150.414,353.504 150.5,354.5C 117.833,370.833 85.1667,387.167 52.5,403.5C 30.7833,377.069 15.6167,347.069 7,313.5C 3.72528,300.168 1.22528,286.834 -0.5,273.5C -0.5,268.5 -0.5,263.5 -0.5,258.5C 6.29466,263.736 13.2947,268.736 20.5,273.5C 20.8333,273 21.1667,272.5 21.5,272C 17.4903,261.315 14.3237,250.482 12,239.5C 20.8988,232.301 30.0655,225.468 39.5,219C 27.5046,218.5 15.5046,218.333 3.5,218.5C 3.59794,216.447 2.93127,214.78 1.5,213.5C 17.4805,122.706 67.1471,57.8729 150.5,19C 174.691,8.87002 199.691,2.37002 225.5,-0.5 Z"/></g>
<g><path style="opacity:1" fill="#fafbfd" d="M 189.5,15.5 C 193.971,26.406 197.971,37.5726 201.5,49C 213.167,49.3333 224.833,49.6667 236.5,50C 226.948,56.9358 217.614,64.1024 208.5,71.5C 211.559,81.1767 214.725,90.8433 218,100.5C 218.667,101.833 218.667,103.167 218,104.5C 208.656,97.8187 199.323,91.152 190,84.5C 179.997,91.0048 170.33,98.0048 161,105.5C 163.759,94.0479 167.259,82.7146 171.5,71.5C 162.386,64.1024 153.052,56.9358 143.5,50C 155.181,49.8325 166.848,49.3325 178.5,48.5C 182.377,37.5347 186.044,26.5347 189.5,15.5 Z"/></g>
<g><path style="opacity:1" fill="#fafbfd" d="M 102.5,133.5 C 114.167,134.167 125.833,134.833 137.5,135.5C 127.745,141.755 118.412,148.588 109.5,156C 113.805,167.144 117.138,178.31 119.5,189.5C 110.405,182.235 100.905,175.568 91,169.5C 81.5077,175.916 72.1744,182.582 63,189.5C 64.9601,179.278 67.9601,169.278 72,159.5C 72.6667,157.833 72.6667,156.167 72,154.5C 63.0091,148.336 54.1758,142.002 45.5,135.5C 57.1667,134.833 68.8333,134.167 80.5,133.5C 83.2911,122.292 86.7911,111.292 91,100.5C 95.3234,111.302 99.1567,122.302 102.5,133.5 Z"/></g>
<g><path style="opacity:1" fill="#739fd8" d="M 80.5,133.5 C 68.8333,134.167 57.1667,134.833 45.5,135.5C 44.9569,135.44 44.6236,135.107 44.5,134.5C 56.4815,133.501 68.4815,133.168 80.5,133.5 Z"/></g>
<g><path style="opacity:1" fill="#6f9dd7" d="M 102.5,133.5 C 114.518,133.168 126.518,133.501 138.5,134.5C 138.376,135.107 138.043,135.44 137.5,135.5C 125.833,134.833 114.167,134.167 102.5,133.5 Z"/></g>
<g><path style="opacity:0.997" fill="#fad016" d="M 491.5,184.5 C 495.04,197.762 497.707,211.095 499.5,224.5C 499.5,228.5 499.5,232.5 499.5,236.5C 362.372,304.564 225.372,372.897 88.5,441.5C 74.734,430.404 62.734,417.737 52.5,403.5C 85.1667,387.167 117.833,370.833 150.5,354.5C 193.023,333.405 235.356,312.072 277.5,290.5C 285.96,286.77 294.293,282.77 302.5,278.5C 365.372,246.897 428.372,215.564 491.5,184.5 Z"/></g>
<g><path style="opacity:1" fill="#f9fafd" d="M 189.5,184.5 C 193.939,195.486 197.605,206.819 200.5,218.5C 212.505,218.333 224.505,218.5 236.5,219C 227.423,225.955 218.256,232.788 209,239.5C 211.361,249.592 214.361,259.592 218,269.5C 218.667,270.833 218.667,272.167 218,273.5C 208.656,266.819 199.323,260.152 190,253.5C 180.344,260.485 170.677,267.485 161,274.5C 163.861,263.078 167.361,251.745 171.5,240.5C 161.998,233.172 152.331,226.005 142.5,219C 154.514,218.833 166.514,218.333 178.5,217.5C 182.372,206.55 186.039,195.55 189.5,184.5 Z"/></g>
<g><path style="opacity:0.98" fill="#f8fafd" d="M 1.5,213.5 C 2.93127,214.78 3.59794,216.447 3.5,218.5C 15.5046,218.333 27.5046,218.5 39.5,219C 30.0655,225.468 20.8988,232.301 12,239.5C 14.3237,250.482 17.4903,261.315 21.5,272C 21.1667,272.5 20.8333,273 20.5,273.5C 13.2947,268.736 6.29466,263.736 -0.5,258.5C -0.5,247.5 -0.5,236.5 -0.5,225.5C 0.377659,221.664 1.04433,217.664 1.5,213.5 Z"/></g>
<g><path style="opacity:1" fill="#2f57b1" d="M 491.5,183.5 C 491.5,183.833 491.5,184.167 491.5,184.5C 428.372,215.564 365.372,246.897 302.5,278.5C 302.414,277.504 302.748,276.671 303.5,276C 364.833,245.333 426.167,214.667 487.5,184C 488.793,183.51 490.127,183.343 491.5,183.5 Z"/></g>
<g><path style="opacity:0.993" fill="#215b33" d="M 499.5,236.5 C 499.5,249.167 499.5,261.833 499.5,274.5C 487.764,361.841 443.764,427.341 367.5,471C 338.093,486.083 307.093,495.583 274.5,499.5C 257.833,499.5 241.167,499.5 224.5,499.5C 173.293,493.555 127.96,474.221 88.5,441.5C 225.372,372.897 362.372,304.564 499.5,236.5 Z"/></g>
<g><path style="opacity:1" fill="#2f57b1" d="M 277.5,290.5 C 235.356,312.072 193.023,333.405 150.5,354.5C 150.414,353.504 150.748,352.671 151.5,352C 193.078,331.295 234.578,310.461 276,289.5C 276.383,290.056 276.883,290.389 277.5,290.5 Z"/></g>
</svg>
