<?xml version="1.0" encoding="UTF-8"?>
<!DOCTYPE svg PUBLIC "-//W3C//DTD SVG 1.1//EN" "http://www.w3.org/Graphics/SVG/1.1/DTD/svg11.dtd">
<svg xmlns="http://www.w3.org/2000/svg" version="1.1" width="500px" height="500px" style="shape-rendering:geometricPrecision; text-rendering:geometricPrecision; image-rendering:optimizeQuality; fill-rule:evenodd; clip-rule:evenodd" xmlns:xlink="http://www.w3.org/1999/xlink">
<g><path style="opacity:0.995" fill="#4189dd" d="M 225.5,-0.5 C 241.5,-0.5 257.5,-0.5 273.5,-0.5C 362.269,10.9489 428.436,55.6156 472,133.5C 486.559,162.333 495.726,192.666 499.5,224.5C 499.5,241.167 499.5,257.833 499.5,274.5C 487.764,361.841 443.764,427.341 367.5,471C 338.093,486.083 307.093,495.583 274.5,499.5C 257.833,499.5 241.167,499.5 224.5,499.5C 132.596,487.072 65.4294,439.739 23,357.5C 10.7506,330.604 2.91724,302.604 -0.5,273.5C -0.5,257.5 -0.5,241.5 -0.5,225.5C 11.4543,135.075 57.4543,68.242 137.5,25C 165.514,11.5012 194.847,3.00119 225.5,-0.5 Z"/></g>
<g><path style="opacity:1" fill="#fdfefe" d="M 136.5,213.5 C 165.167,212.833 193.833,212.167 222.5,211.5C 231.296,184.445 240.296,157.445 249.5,130.5C 259.292,157.542 268.292,184.875 276.5,212.5C 305.502,212.333 334.502,212.5 363.5,213C 339.721,229.619 316.388,246.786 293.5,264.5C 302.881,291.96 311.547,319.293 319.5,346.5C 296.167,329.5 272.833,312.5 249.5,295.5C 226.13,313.082 202.463,329.916 178.5,346C 187.593,318.887 196.593,291.72 205.5,264.5C 182.787,247.121 159.787,230.121 136.5,213.5 Z"/></g>
<g><path style="opacity:1" fill="#669fe4" d="M 222.5,211.5 C 193.833,212.167 165.167,212.833 136.5,213.5C 135.957,213.44 135.624,213.107 135.5,212.5C 164.492,211.5 193.492,211.167 222.5,211.5 Z"/></g>
</svg>
