<?xml version="1.0" encoding="UTF-8"?>
<!DOCTYPE svg PUBLIC "-//W3C//DTD SVG 1.1//EN" "http://www.w3.org/Graphics/SVG/1.1/DTD/svg11.dtd">
<svg xmlns="http://www.w3.org/2000/svg" version="1.1" width="500px" height="500px" style="shape-rendering:geometricPrecision; text-rendering:geometricPrecision; image-rendering:optimizeQuality; fill-rule:evenodd; clip-rule:evenodd" xmlns:xlink="http://www.w3.org/1999/xlink">
<g><path style="opacity:0.991" fill="#de3831" d="M 225.5,-0.5 C 241.5,-0.5 257.5,-0.5 273.5,-0.5C 362.269,10.9489 428.436,55.6156 472,133.5C 477.625,144.077 482.125,155.077 485.5,166.5C 442.832,166.667 400.165,166.5 357.5,166C 285.929,118.391 214.595,70.558 143.5,22.5C 169.665,10.3292 196.998,2.66256 225.5,-0.5 Z"/></g>
<g><path style="opacity:0.997" fill="#fefefd" d="M 143.5,22.5 C 214.595,70.558 285.929,118.391 357.5,166C 400.165,166.5 442.832,166.667 485.5,166.5C 489.903,177.099 493.237,188.099 495.5,199.5C 446.166,199.667 396.832,199.5 347.5,199C 268.185,146.864 189.518,94.0304 111.5,40.5C 121.516,33.4882 132.182,27.4882 143.5,22.5 Z"/></g>
<g><path style="opacity:0.997" fill="#017a4d" d="M 111.5,40.5 C 189.518,94.0304 268.185,146.864 347.5,199C 396.832,199.5 446.166,199.667 495.5,199.5C 496.748,207.982 498.081,216.315 499.5,224.5C 499.5,241.167 499.5,257.833 499.5,274.5C 498.183,282.703 496.85,291.036 495.5,299.5C 446.166,299.333 396.832,299.5 347.5,300C 268.471,352.51 189.471,405.01 110.5,457.5C 81.4541,438.788 57.7875,414.788 39.5,385.5C 106.805,340.177 174.138,294.843 241.5,249.5C 174.329,203.748 106.662,158.748 38.5,114.5C 57.4546,84.5452 81.788,59.8786 111.5,40.5 Z"/></g>
<g><path style="opacity:0.997" fill="#fdb512" d="M 38.5,114.5 C 106.662,158.748 174.329,203.748 241.5,249.5C 174.138,294.843 106.805,340.177 39.5,385.5C 34.3777,378.693 30.0444,371.36 26.5,363.5C 83.1667,325.833 139.833,288.167 196.5,250.5C 197.791,249.458 197.791,248.292 196.5,247C 145.328,213.248 94.328,179.248 43.5,145C 42.5632,144.308 41.8966,144.475 41.5,145.5C 36.5,142.167 31.5,138.833 26.5,135.5C 29.7566,127.976 33.7566,120.976 38.5,114.5 Z"/></g>
<g><path style="opacity:0.994" fill="#000000" d="M 26.5,135.5 C 31.5,138.833 36.5,142.167 41.5,145.5C 92.6797,179.837 144.013,214.004 195.5,248C 196.252,248.671 196.586,249.504 196.5,250.5C 139.833,288.167 83.1667,325.833 26.5,363.5C 11.9149,335.156 2.91489,305.156 -0.5,273.5C -0.5,257.5 -0.5,241.5 -0.5,225.5C 2.91489,193.844 11.9149,163.844 26.5,135.5 Z"/></g>
<g><path style="opacity:1" fill="#e9ac11" d="M 41.5,145.5 C 41.8966,144.475 42.5632,144.308 43.5,145C 94.328,179.248 145.328,213.248 196.5,247C 197.791,248.292 197.791,249.458 196.5,250.5C 196.586,249.504 196.252,248.671 195.5,248C 144.013,214.004 92.6797,179.837 41.5,145.5 Z"/></g>
<g><path style="opacity:0.997" fill="#fcfdfd" d="M 495.5,299.5 C 493.235,310.912 489.901,321.912 485.5,332.5C 442.832,332.333 400.165,332.5 357.5,333C 286.262,381.088 214.929,428.922 143.5,476.5C 131.68,471.429 120.68,465.095 110.5,457.5C 189.471,405.01 268.471,352.51 347.5,300C 396.832,299.5 446.166,299.333 495.5,299.5 Z"/></g>
<g><path style="opacity:0.992" fill="#012395" d="M 485.5,332.5 C 459.059,404.776 410.059,455.276 338.5,484C 317.652,491.713 296.319,496.88 274.5,499.5C 257.833,499.5 241.167,499.5 224.5,499.5C 196.307,496.365 169.307,488.699 143.5,476.5C 214.929,428.922 286.262,381.088 357.5,333C 400.165,332.5 442.832,332.333 485.5,332.5 Z"/></g>
</svg>
