<?xml version="1.0" encoding="UTF-8"?>
<!DOCTYPE svg PUBLIC "-//W3C//DTD SVG 1.1//EN" "http://www.w3.org/Graphics/SVG/1.1/DTD/svg11.dtd">
<svg xmlns="http://www.w3.org/2000/svg" version="1.1" width="500px" height="500px" style="shape-rendering:geometricPrecision; text-rendering:geometricPrecision; image-rendering:optimizeQuality; fill-rule:evenodd; clip-rule:evenodd" xmlns:xlink="http://www.w3.org/1999/xlink">
<g><path style="opacity:0.991" fill="#c60b1d" d="M 225.5,-0.5 C 241.5,-0.5 257.5,-0.5 273.5,-0.5C 358.148,10.2065 422.481,51.8732 466.5,124.5C 321.833,124.5 177.167,124.5 32.5,124.5C 76.5662,51.9426 140.9,10.2759 225.5,-0.5 Z"/></g>
<g><path style="opacity:0.997" fill="#fec300" d="M 32.5,124.5 C 177.167,124.5 321.833,124.5 466.5,124.5C 484.306,155.584 495.306,188.918 499.5,224.5C 499.5,241.167 499.5,257.833 499.5,274.5C 495.581,310.178 484.581,343.512 466.5,374.5C 321.833,374.5 177.167,374.5 32.5,374.5C 14.4864,343.126 3.4864,309.459 -0.5,273.5C -0.5,257.5 -0.5,241.5 -0.5,225.5C 3.4864,189.541 14.4864,155.874 32.5,124.5 Z"/></g>
<g><path style="opacity:1" fill="#b79c06" d="M 177.5,163.5 C 175.952,163.821 175.285,164.821 175.5,166.5C 176.791,166.737 177.791,166.404 178.5,165.5C 179.404,166.209 179.737,167.209 179.5,168.5C 179.167,168.5 178.833,168.5 178.5,168.5C 175.612,167.99 173.279,168.656 171.5,170.5C 171.167,170.5 170.833,170.5 170.5,170.5C 169.506,168.666 169.506,166.999 170.5,165.5C 171.209,166.404 172.209,166.737 173.5,166.5C 173.737,165.209 173.404,164.209 172.5,163.5C 173.914,161.402 173.248,160.402 170.5,160.5C 170.5,159.167 170.5,157.833 170.5,156.5C 172.2,156.374 173.7,155.707 175,154.5C 178.612,156.337 179.112,158.671 176.5,161.5C 176.863,162.183 177.196,162.85 177.5,163.5 Z"/></g>
<g><path style="opacity:1" fill="#1e4f89" d="M 172.5,163.5 C 173.404,164.209 173.737,165.209 173.5,166.5C 172.209,166.737 171.209,166.404 170.5,165.5C 170.833,164.5 171.5,163.833 172.5,163.5 Z"/></g>
<g><path style="opacity:1" fill="#2f558a" d="M 177.5,163.5 C 177.833,164.167 178.167,164.833 178.5,165.5C 177.791,166.404 176.791,166.737 175.5,166.5C 175.285,164.821 175.952,163.821 177.5,163.5 Z"/></g>
<g><path style="opacity:1" fill="#a11a17" d="M 166.5,182.5 C 170.157,182.12 171.157,183.453 169.5,186.5C 169.876,188.383 170.876,189.883 172.5,191C 171.483,192.049 171.316,193.216 172,194.5C 173.699,195.406 175.533,195.739 177.5,195.5C 177.33,194.178 177.663,193.011 178.5,192C 176.291,191.043 176.457,189.876 179,188.5C 179.495,186.527 179.662,184.527 179.5,182.5C 184.309,182.869 188.976,183.869 193.5,185.5C 194.609,186.29 195.942,186.79 197.5,187C 196.14,188.938 196.473,190.604 198.5,192C 196.323,193.186 195.323,195.019 195.5,197.5C 198.635,197.548 200.302,199.215 200.5,202.5C 203.084,203.788 204.584,203.122 205,200.5C 203.693,199.228 202.193,198.228 200.5,197.5C 201.484,195.402 201.151,193.402 199.5,191.5C 201.817,187.91 205.151,186.577 209.5,187.5C 213.325,188.441 216.991,189.774 220.5,191.5C 220.327,193.875 220.827,196.208 222,198.5C 219.602,198.958 217.936,200.292 217,202.5C 214.911,200.041 212.745,200.041 210.5,202.5C 212.236,205.653 214.736,206.32 218,204.5C 219.03,204.836 219.53,205.503 219.5,206.5C 219.158,207.338 218.492,207.672 217.5,207.5C 216.883,207.389 216.383,207.056 216,206.5C 213.695,208.93 210.862,209.93 207.5,209.5C 208.676,202.09 207.676,201.757 204.5,208.5C 200.399,208.57 197.899,206.57 197,202.5C 193.516,207.367 189.682,207.7 185.5,203.5C 184.482,204.193 183.482,204.859 182.5,205.5C 181.167,205.5 179.833,205.5 178.5,205.5C 176.468,204.439 175.134,202.772 174.5,200.5C 172.226,205.796 168.726,206.796 164,203.5C 159.767,207.711 155.934,207.378 152.5,202.5C 151.825,207.353 149.158,209.187 144.5,208C 143.95,206.155 142.95,204.655 141.5,203.5C 141.08,205.326 141.08,207.326 141.5,209.5C 138.245,209.986 135.578,208.986 133.5,206.5C 132.893,206.624 132.56,206.957 132.5,207.5C 130.5,207.5 129.5,206.5 129.5,204.5C 133.402,206.491 136.735,205.824 139.5,202.5C 137.07,200.087 134.737,200.087 132.5,202.5C 131.797,199.316 129.797,197.816 126.5,198C 128.58,196.039 128.914,193.872 127.5,191.5C 131.574,189.295 135.907,187.962 140.5,187.5C 142.527,187.338 144.527,187.505 146.5,188C 147.376,189.585 148.709,190.585 150.5,191C 149.939,192.676 148.939,194.009 147.5,195C 148.305,196.113 148.972,197.279 149.5,198.5C 150.708,197.766 152.041,197.433 153.5,197.5C 151.54,193.987 150.873,190.321 151.5,186.5C 156.414,184.878 161.414,183.545 166.5,182.5 Z"/></g>
<g><path style="opacity:1" fill="#a38b1f" d="M 170.5,170.5 C 170.833,170.5 171.167,170.5 171.5,170.5C 173.527,170.662 175.527,170.495 177.5,170C 178.056,169.617 178.389,169.117 178.5,168.5C 178.833,168.5 179.167,168.5 179.5,168.5C 182.506,168.941 185.506,168.941 188.5,168.5C 189.251,169.376 189.751,170.376 190,171.5C 190.388,170.572 191.055,169.905 192,169.5C 197.534,172.442 203.2,174.776 209,176.5C 209.388,175.572 210.055,174.905 211,174.5C 212.011,174.892 212.511,175.559 212.5,176.5C 213.216,175.689 214.05,175.022 215,174.5C 228.689,179.788 232.356,188.788 226,201.5C 224.601,202.227 223.101,202.727 221.5,203C 220.915,204.302 220.249,205.469 219.5,206.5C 219.53,205.503 219.03,204.836 218,204.5C 214.736,206.32 212.236,205.653 210.5,202.5C 212.745,200.041 214.911,200.041 217,202.5C 217.936,200.292 219.602,198.958 222,198.5C 220.827,196.208 220.327,193.875 220.5,191.5C 223.169,187.964 222.503,184.797 218.5,182C 214.116,179.792 209.449,178.959 204.5,179.5C 204.756,181.792 204.423,183.959 203.5,186C 205.708,186.191 207.708,186.691 209.5,187.5C 205.151,186.577 201.817,187.91 199.5,191.5C 201.151,193.402 201.484,195.402 200.5,197.5C 202.193,198.228 203.693,199.228 205,200.5C 204.584,203.122 203.084,203.788 200.5,202.5C 200.302,199.215 198.635,197.548 195.5,197.5C 195.323,195.019 196.323,193.186 198.5,192C 196.473,190.604 196.14,188.938 197.5,187C 195.942,186.79 194.609,186.29 193.5,185.5C 195.167,185.5 196.833,185.5 198.5,185.5C 199.116,177.776 195.449,173.776 187.5,173.5C 185.116,174.012 182.783,174.679 180.5,175.5C 179.526,177.743 179.192,180.076 179.5,182.5C 179.662,184.527 179.495,186.527 179,188.5C 176.457,189.876 176.291,191.043 178.5,192C 177.663,193.011 177.33,194.178 177.5,195.5C 175.533,195.739 173.699,195.406 172,194.5C 171.316,193.216 171.483,192.049 172.5,191C 170.876,189.883 169.876,188.383 169.5,186.5C 171.157,183.453 170.157,182.12 166.5,182.5C 167.209,181.596 168.209,181.263 169.5,181.5C 170.232,175.928 167.732,173.262 162,173.5C 152.909,173.728 149.409,178.062 151.5,186.5C 150.873,190.321 151.54,193.987 153.5,197.5C 152.041,197.433 150.708,197.766 149.5,198.5C 148.972,197.279 148.305,196.113 147.5,195C 148.939,194.009 149.939,192.676 150.5,191C 148.709,190.585 147.376,189.585 146.5,188C 144.527,187.505 142.527,187.338 140.5,187.5C 141.952,186.698 143.618,186.198 145.5,186C 144.167,184 144.167,182 145.5,180C 138.755,178.298 132.922,179.798 128,184.5C 126.336,186.786 126.17,189.119 127.5,191.5C 128.914,193.872 128.58,196.039 126.5,198C 129.797,197.816 131.797,199.316 132.5,202.5C 134.737,200.087 137.07,200.087 139.5,202.5C 136.735,205.824 133.402,206.491 129.5,204.5C 127.858,202.919 125.858,202.253 123.5,202.5C 122.652,198.981 121.319,195.648 119.5,192.5C 123.311,191.262 123.311,190.596 119.5,190.5C 121.656,181.342 127.323,176.008 136.5,174.5C 137.994,174.709 139.161,175.376 140,176.5C 141.77,174.582 143.937,174.082 146.5,175C 145.304,175.654 145.304,176.154 146.5,176.5C 148.693,172.822 151.86,170.489 156,169.5C 157.326,169.755 158.326,170.422 159,171.5C 159.483,170.552 159.649,169.552 159.5,168.5C 161.604,168.201 163.604,168.534 165.5,169.5C 164.494,170.396 164.494,171.062 165.5,171.5C 166.88,169.335 168.547,169.001 170.5,170.5 Z"/></g>
<g><path style="opacity:1" fill="#b5b5b2" d="M 173.5,183.5 C 174.675,183.281 175.675,183.614 176.5,184.5C 175.67,186.135 175.503,187.802 176,189.5C 174.697,188.888 173.53,188.554 172.5,188.5C 173.026,186.735 173.359,185.068 173.5,183.5 Z"/></g>
<g><path style="opacity:1" fill="#fac200" d="M 220.5,191.5 C 216.991,189.774 213.325,188.441 209.5,187.5C 207.708,186.691 205.708,186.191 203.5,186C 204.423,183.959 204.756,181.792 204.5,179.5C 209.449,178.959 214.116,179.792 218.5,182C 222.503,184.797 223.169,187.964 220.5,191.5 Z"/></g>
<g><path style="opacity:1" fill="#fac200" d="M 140.5,187.5 C 135.907,187.962 131.574,189.295 127.5,191.5C 126.17,189.119 126.336,186.786 128,184.5C 132.922,179.798 138.755,178.298 145.5,180C 144.167,182 144.167,184 145.5,186C 143.618,186.198 141.952,186.698 140.5,187.5 Z"/></g>
<g><path style="opacity:1" fill="#fbc300" d="M 193.5,185.5 C 188.976,183.869 184.309,182.869 179.5,182.5C 179.192,180.076 179.526,177.743 180.5,175.5C 182.783,174.679 185.116,174.012 187.5,173.5C 195.449,173.776 199.116,177.776 198.5,185.5C 196.833,185.5 195.167,185.5 193.5,185.5 Z"/></g>
<g><path style="opacity:1" fill="#fbc200" d="M 166.5,182.5 C 161.414,183.545 156.414,184.878 151.5,186.5C 149.409,178.062 152.909,173.728 162,173.5C 167.732,173.262 170.232,175.928 169.5,181.5C 168.209,181.263 167.209,181.596 166.5,182.5 Z"/></g>
<g><path style="opacity:1" fill="#1450a3" d="M 178.5,168.5 C 178.389,169.117 178.056,169.617 177.5,170C 175.527,170.495 173.527,170.662 171.5,170.5C 173.279,168.656 175.612,167.99 178.5,168.5 Z"/></g>
<g><path style="opacity:1" fill="#b5a100" d="M 167.5,195.5 C 169.948,195.01 171.615,195.843 172.5,198C 171.831,199.847 170.497,201.014 168.5,201.5C 167.315,200.147 165.981,198.98 164.5,198C 165.571,197.148 166.571,196.315 167.5,195.5 Z"/></g>
<g><path style="opacity:1" fill="#bfad00" d="M 178.5,195.5 C 186.36,197.712 186.026,199.379 177.5,200.5C 177.366,198.708 177.699,197.042 178.5,195.5 Z"/></g>
<g><path style="opacity:1" fill="#b4a200" d="M 155.5,196.5 C 157.312,196.771 158.978,197.438 160.5,198.5C 159.012,200.577 157.012,201.577 154.5,201.5C 154.366,199.708 154.699,198.042 155.5,196.5 Z"/></g>
<g><path style="opacity:1" fill="#b5a001" d="M 195.5,197.5 C 195.5,198.833 195.5,200.167 195.5,201.5C 192.579,201.854 190.246,200.854 188.5,198.5C 190.712,196.636 193.045,196.303 195.5,197.5 Z"/></g>
<g><path style="opacity:1" fill="#b5a200" d="M 149.5,198.5 C 149.653,203.757 147.653,204.757 143.5,201.5C 144.722,199.022 146.722,198.022 149.5,198.5 Z"/></g>
<g><path style="opacity:1" fill="#a99505" d="M 178.5,205.5 C 172.75,206.919 166.75,207.753 160.5,208C 169.833,208.667 179.167,208.667 188.5,208C 187.391,207.362 186.225,206.862 185,206.5C 183.211,207.409 181.377,207.576 179.5,207C 180.737,206.768 181.737,206.268 182.5,205.5C 183.482,204.859 184.482,204.193 185.5,203.5C 189.682,207.7 193.516,207.367 197,202.5C 197.899,206.57 200.399,208.57 204.5,208.5C 201.345,209.965 198.511,209.299 196,206.5C 195.075,207.047 194.242,207.713 193.5,208.5C 196.441,209.522 199.441,210.355 202.5,211C 200.833,211.333 199.167,211.667 197.5,212C 198.167,212.333 198.833,212.667 199.5,213C 198.663,214.011 198.33,215.178 198.5,216.5C 199.5,216.5 200.5,216.5 201.5,216.5C 201.5,215.5 201.5,214.5 201.5,213.5C 203.199,213.34 204.866,213.506 206.5,214C 203.156,214.57 202.823,215.736 205.5,217.5C 204.624,218.251 203.624,218.751 202.5,219C 203.766,219.309 204.933,219.809 206,220.5C 206.399,220.272 206.565,219.938 206.5,219.5C 207.774,220.189 207.774,221.023 206.5,222C 203.996,222.698 201.663,223.531 199.5,224.5C 195.298,224.817 191.298,224.483 187.5,223.5C 207.461,221.821 207.461,220.154 187.5,218.5C 174.574,216.96 161.574,217.46 148.5,220C 147.833,220.333 147.167,220.667 146.5,221C 152.722,222.704 159.055,223.537 165.5,223.5C 160.36,224.488 155.026,224.821 149.5,224.5C 147.611,223.678 145.611,222.845 143.5,222C 142.167,221 142.167,220 143.5,219C 142.228,217.693 141.228,216.193 140.5,214.5C 137.386,212.62 134.72,210.287 132.5,207.5C 132.56,206.957 132.893,206.624 133.5,206.5C 135.578,208.986 138.245,209.986 141.5,209.5C 141.08,207.326 141.08,205.326 141.5,203.5C 142.95,204.655 143.95,206.155 144.5,208C 149.158,209.187 151.825,207.353 152.5,202.5C 155.934,207.378 159.767,207.711 164,203.5C 168.726,206.796 172.226,205.796 174.5,200.5C 175.134,202.772 176.468,204.439 178.5,205.5 Z"/></g>
<g><path style="opacity:1" fill="#75200f" d="M 152.5,206.5 C 153.756,206.461 154.756,206.961 155.5,208C 154.07,209.44 152.403,209.774 150.5,209C 151.381,208.292 152.047,207.458 152.5,206.5 Z"/></g>
<g><path style="opacity:1" fill="#7e5907" d="M 178.5,205.5 C 179.833,205.5 181.167,205.5 182.5,205.5C 181.737,206.268 180.737,206.768 179.5,207C 181.377,207.576 183.211,207.409 185,206.5C 186.225,206.862 187.391,207.362 188.5,208C 179.167,208.667 169.833,208.667 160.5,208C 166.75,207.753 172.75,206.919 178.5,205.5 Z"/></g>
<g><path style="opacity:1" fill="#821a12" d="M 170.5,211.5 C 173.572,211.183 176.572,211.516 179.5,212.5C 178,212.833 176.5,213.167 175,213.5C 173.014,213.431 171.514,212.765 170.5,211.5 Z"/></g>
<g><path style="opacity:1" fill="#137057" d="M 154.5,212.5 C 156.924,212.192 159.257,212.526 161.5,213.5C 160.333,213.833 159.167,214.167 158,214.5C 156.319,214.392 155.152,213.725 154.5,212.5 Z"/></g>
<g><path style="opacity:1" fill="#1a7258" d="M 187.5,212.5 C 189.924,212.192 192.257,212.526 194.5,213.5C 193.333,213.833 192.167,214.167 191,214.5C 189.319,214.392 188.152,213.725 187.5,212.5 Z"/></g>
<g><path style="opacity:1" fill="#967a15" d="M 217.5,207.5 C 214.853,210.823 211.519,213.156 207.5,214.5C 207.371,216.216 207.038,217.883 206.5,219.5C 206.565,219.938 206.399,220.272 206,220.5C 204.933,219.809 203.766,219.309 202.5,219C 203.624,218.751 204.624,218.251 205.5,217.5C 202.823,215.736 203.156,214.57 206.5,214C 204.866,213.506 203.199,213.34 201.5,213.5C 201.5,214.5 201.5,215.5 201.5,216.5C 200.5,216.5 199.5,216.5 198.5,216.5C 198.33,215.178 198.663,214.011 199.5,213C 198.833,212.667 198.167,212.333 197.5,212C 199.167,211.667 200.833,211.333 202.5,211C 199.441,210.355 196.441,209.522 193.5,208.5C 194.242,207.713 195.075,207.047 196,206.5C 198.511,209.299 201.345,209.965 204.5,208.5C 207.676,201.757 208.676,202.09 207.5,209.5C 210.862,209.93 213.695,208.93 216,206.5C 216.383,207.056 216.883,207.389 217.5,207.5 Z"/></g>
<g><path style="opacity:1" fill="#932213" d="M 101.5,213.5 C 102.959,213.433 104.292,213.766 105.5,214.5C 101.721,220.117 100.388,219.783 101.5,213.5 Z"/></g>
<g><path style="opacity:1" fill="#952413" d="M 91.5,215.5 C 92.9953,215.415 93.9953,216.081 94.5,217.5C 93.1667,218.5 93.1667,219.5 94.5,220.5C 93.675,221.386 92.675,221.719 91.5,221.5C 87.6042,219.241 87.6042,217.241 91.5,215.5 Z"/></g>
<g><path style="opacity:1" fill="#85300f" d="M 109.5,215.5 C 111.377,216.659 111.877,218.326 111,220.5C 110.329,221.252 109.496,221.586 108.5,221.5C 107.325,221.719 106.325,221.386 105.5,220.5C 106.098,219.205 106.598,217.872 107,216.5C 107.671,215.748 108.504,215.414 109.5,215.5 Z"/></g>
<g><path style="opacity:1" fill="#64190e" d="M 187.5,218.5 C 180.5,218.5 173.5,218.5 166.5,218.5C 166.5,220.167 166.5,221.833 166.5,223.5C 166.167,223.5 165.833,223.5 165.5,223.5C 159.055,223.537 152.722,222.704 146.5,221C 147.167,220.667 147.833,220.333 148.5,220C 161.574,217.46 174.574,216.96 187.5,218.5 Z"/></g>
<g><path style="opacity:1" fill="#a21517" d="M 187.5,218.5 C 207.461,220.154 207.461,221.821 187.5,223.5C 185.167,223.5 182.833,223.5 180.5,223.5C 175.833,223.5 171.167,223.5 166.5,223.5C 166.5,221.833 166.5,220.167 166.5,218.5C 173.5,218.5 180.5,218.5 187.5,218.5 Z"/></g>
<g><path style="opacity:1" fill="#7d310e" d="M 240.5,221.5 C 239.833,221.167 239.167,220.833 238.5,220.5C 238.36,218.876 239.027,217.71 240.5,217C 243.227,216.182 245.894,216.348 248.5,217.5C 247.359,218.425 247.359,219.259 248.5,220C 245.832,220.567 243.166,221.067 240.5,221.5 Z"/></g>
<g><path style="opacity:1" fill="#7a350e" d="M 260.5,217.5 C 260.912,219.973 259.912,221.306 257.5,221.5C 254.834,221.067 252.168,220.567 249.5,220C 251.569,219.676 251.902,218.842 250.5,217.5C 253.837,216.334 257.17,216.334 260.5,217.5 Z"/></g>
<g><path style="opacity:1" fill="#7b6305" d="M 260.5,217.5 C 257.17,216.334 253.837,216.334 250.5,217.5C 251.902,218.842 251.569,219.676 249.5,220C 252.168,220.567 254.834,221.067 257.5,221.5C 255.814,224.537 256.814,225.87 260.5,225.5C 260.5,226.167 260.167,226.5 259.5,226.5C 253.833,226.5 248.167,226.5 242.5,226.5C 242.5,226.167 242.5,225.833 242.5,225.5C 241.833,224.167 241.167,222.833 240.5,221.5C 243.166,221.067 245.832,220.567 248.5,220C 247.359,219.259 247.359,218.425 248.5,217.5C 245.894,216.348 243.227,216.182 240.5,217C 239.027,217.71 238.36,218.876 238.5,220.5C 237.193,218.777 237.193,216.943 238.5,215C 241.529,214.461 244.529,213.794 247.5,213C 249.181,209.534 250.181,209.7 250.5,213.5C 254.653,213.235 257.987,214.569 260.5,217.5 Z"/></g>
<g><path style="opacity:1" fill="#714405" d="M 165.5,223.5 C 165.833,223.5 166.167,223.5 166.5,223.5C 171.167,223.5 175.833,223.5 180.5,223.5C 178.5,224.167 176.5,224.833 174.5,225.5C 157.833,225.5 141.167,225.5 124.5,225.5C 132.65,224.507 140.983,224.174 149.5,224.5C 155.026,224.821 160.36,224.488 165.5,223.5 Z"/></g>
<g><path style="opacity:1" fill="#796932" d="M 180.5,223.5 C 182.833,223.5 185.167,223.5 187.5,223.5C 191.298,224.483 195.298,224.817 199.5,224.5C 208.167,224.5 216.833,224.5 225.5,224.5C 225.5,235.5 225.5,246.5 225.5,257.5C 225.5,260.833 225.5,264.167 225.5,267.5C 225.5,271.833 225.5,276.167 225.5,280.5C 225.167,280.5 224.833,280.5 224.5,280.5C 224.5,262.167 224.5,243.833 224.5,225.5C 208.167,225.5 191.833,225.5 175.5,225.5C 175.167,225.5 174.833,225.5 174.5,225.5C 176.5,224.833 178.5,224.167 180.5,223.5 Z"/></g>
<g><path style="opacity:1" fill="#786204" d="M 101.5,213.5 C 100.388,219.783 101.721,220.117 105.5,214.5C 107.099,214.232 108.432,214.566 109.5,215.5C 108.504,215.414 107.671,215.748 107,216.5C 106.598,217.872 106.098,219.205 105.5,220.5C 106.325,221.386 107.325,221.719 108.5,221.5C 106.814,224.537 107.814,225.87 111.5,225.5C 111.802,228.059 111.468,230.393 110.5,232.5C 110.5,232.167 110.5,231.833 110.5,231.5C 110.5,229.833 110.5,228.167 110.5,226.5C 104.833,226.5 99.1667,226.5 93.5,226.5C 93.6716,225.508 93.3382,224.842 92.5,224.5C 92.4431,223.391 92.1098,222.391 91.5,221.5C 92.675,221.719 93.675,221.386 94.5,220.5C 93.1667,219.5 93.1667,218.5 94.5,217.5C 93.9953,216.081 92.9953,215.415 91.5,215.5C 91.9731,214.094 92.9731,213.427 94.5,213.5C 95.714,215.149 97.0473,216.815 98.5,218.5C 99.0522,216.997 99.0522,215.331 98.5,213.5C 100.001,208.362 101.001,208.362 101.5,213.5 Z"/></g>
<g><path style="opacity:1" fill="#9c2015" d="M 94.5,213.5 C 95.8333,213.5 97.1667,213.5 98.5,213.5C 99.0522,215.331 99.0522,216.997 98.5,218.5C 97.0473,216.815 95.714,215.149 94.5,213.5 Z"/></g>
<g><path style="opacity:1" fill="#c6b000" d="M 93.5,226.5 C 99.1667,226.5 104.833,226.5 110.5,226.5C 110.5,228.167 110.5,229.833 110.5,231.5C 103.5,231.5 96.5,231.5 89.5,231.5C 89.5,229.833 89.5,228.167 89.5,226.5C 90.8333,226.5 92.1667,226.5 93.5,226.5 Z"/></g>
<g><path style="opacity:1" fill="#c7c7c7" d="M 175.5,225.5 C 191.833,225.5 208.167,225.5 224.5,225.5C 224.5,243.833 224.5,262.167 224.5,280.5C 213.5,280.5 202.5,280.5 191.5,280.5C 191.795,278.265 191.461,276.265 190.5,274.5C 188.55,268.009 184.217,264.009 177.5,262.5C 175.551,250.416 174.884,238.083 175.5,225.5 Z"/></g>
<g><path style="opacity:1" fill="#6c5b5c" d="M 174.5,225.5 C 174.833,225.5 175.167,225.5 175.5,225.5C 174.884,238.083 175.551,250.416 177.5,262.5C 176.5,262.5 175.5,262.5 174.5,262.5C 174.5,250.167 174.5,237.833 174.5,225.5 Z"/></g>
<g><path style="opacity:1" fill="#937e0c" d="M 92.5,224.5 C 93.3382,224.842 93.6716,225.508 93.5,226.5C 92.1667,226.5 90.8333,226.5 89.5,226.5C 89.5,228.167 89.5,229.833 89.5,231.5C 96.5,231.5 103.5,231.5 110.5,231.5C 110.5,231.833 110.5,232.167 110.5,232.5C 109.522,232.811 108.855,233.478 108.5,234.5C 109.807,235.865 109.807,237.198 108.5,238.5C 103.167,238.5 97.8333,238.5 92.5,238.5C 92.5,244.833 92.5,251.167 92.5,257.5C 92.5,258.167 92.1667,258.5 91.5,258.5C 91.3933,250.379 91.3933,242.379 91.5,234.5C 89.0412,232.073 88.0412,229.073 88.5,225.5C 90.099,225.768 91.4324,225.434 92.5,224.5 Z"/></g>
<g><path style="opacity:1" fill="#6f6639" d="M 212.5,236.5 C 211.167,236.5 209.833,236.5 208.5,236.5C 207.078,235.075 205.411,234.075 203.5,233.5C 203.5,232.833 203.167,232.5 202.5,232.5C 202.343,231.127 202.51,229.793 203,228.5C 206.917,230.361 210.083,233.028 212.5,236.5 Z"/></g>
<g><path style="opacity:1" fill="#9d8304" d="M 242.5,225.5 C 242.5,225.833 242.5,226.167 242.5,226.5C 241.167,226.5 239.833,226.5 238.5,226.5C 238.5,228.167 238.5,229.833 238.5,231.5C 245.5,231.5 252.5,231.5 259.5,231.5C 259.5,229.833 259.5,228.167 259.5,226.5C 260.167,226.5 260.5,226.167 260.5,225.5C 261.468,227.607 261.802,229.941 261.5,232.5C 257.487,232.52 256.82,233.853 259.5,236.5C 258.535,243.776 258.201,251.109 258.5,258.5C 258.167,258.5 257.833,258.5 257.5,258.5C 257.5,251.833 257.5,245.167 257.5,238.5C 252.167,238.5 246.833,238.5 241.5,238.5C 241.5,244.5 241.5,250.5 241.5,256.5C 238.833,256.5 236.167,256.5 233.5,256.5C 235.607,255.532 237.941,255.198 240.5,255.5C 240.375,248.379 240.375,241.379 240.5,234.5C 238.041,232.073 237.041,229.073 237.5,225.5C 239.167,225.5 240.833,225.5 242.5,225.5 Z"/></g>
<g><path style="opacity:1" fill="#c6af00" d="M 242.5,226.5 C 248.167,226.5 253.833,226.5 259.5,226.5C 259.5,228.167 259.5,229.833 259.5,231.5C 252.5,231.5 245.5,231.5 238.5,231.5C 238.5,229.833 238.5,228.167 238.5,226.5C 239.833,226.5 241.167,226.5 242.5,226.5 Z"/></g>
<g><path style="opacity:1" fill="#7d464b" d="M 202.5,232.5 C 203.167,232.5 203.5,232.833 203.5,233.5C 203.12,234.133 202.787,234.8 202.5,235.5C 201.109,234.355 199.776,234.355 198.5,235.5C 199.853,236.524 200.52,237.857 200.5,239.5C 199.5,239.5 198.5,239.5 197.5,239.5C 195.622,238.792 193.955,237.626 192.5,236C 193.899,235.405 195.232,235.572 196.5,236.5C 197.386,235.675 197.719,234.675 197.5,233.5C 199.292,233.634 200.958,233.301 202.5,232.5 Z"/></g>
<g><path style="opacity:1" fill="#bebebf" d="M 108.5,238.5 C 108.5,244.167 108.5,249.833 108.5,255.5C 103.319,256.315 97.9858,256.982 92.5,257.5C 92.5,251.167 92.5,244.833 92.5,238.5C 97.8333,238.5 103.167,238.5 108.5,238.5 Z"/></g>
<g><path style="opacity:1" fill="#bcbcbd" d="M 257.5,258.5 C 252.304,256.913 246.97,256.246 241.5,256.5C 241.5,250.5 241.5,244.5 241.5,238.5C 246.833,238.5 252.167,238.5 257.5,238.5C 257.5,245.167 257.5,251.833 257.5,258.5 Z"/></g>
<g><path style="opacity:1" fill="#a31f16" d="M 233.5,256.5 C 236.167,256.5 238.833,256.5 241.5,256.5C 246.97,256.246 252.304,256.913 257.5,258.5C 257.833,258.5 258.167,258.5 258.5,258.5C 263.242,259.529 266.909,262.029 269.5,266C 268.136,269.227 266.636,272.394 265,275.5C 262.745,277.055 260.245,278.055 257.5,278.5C 257.5,274.833 257.5,271.167 257.5,267.5C 252.227,266.399 246.894,265.733 241.5,265.5C 236.031,265.246 230.697,265.913 225.5,267.5C 225.5,264.167 225.5,260.833 225.5,257.5C 228.096,256.735 230.763,256.401 233.5,256.5 Z"/></g>
<g><path style="opacity:1" fill="#c0760c" d="M 244.5,258.5 C 246.517,257.126 248.517,257.293 250.5,259C 248.564,260.362 247.231,262.195 246.5,264.5C 245.831,262.369 245.165,260.369 244.5,258.5 Z"/></g>
<g><path style="opacity:1" fill="#c59f04" d="M 252.5,259.5 C 253.1,262.625 254.267,262.958 256,260.5C 256.122,262.169 255.788,263.835 255,265.5C 253.684,262.972 252.517,262.972 251.5,265.5C 250.531,263.383 250.864,261.383 252.5,259.5 Z"/></g>
<g><path style="opacity:1" fill="#c28907" d="M 230.5,258.5 C 232.074,258.937 233.241,259.937 234,261.5C 234.915,260.672 235.581,259.672 236,258.5C 236.442,260.684 235.942,262.684 234.5,264.5C 232.663,262.824 231.33,260.824 230.5,258.5 Z"/></g>
<g><path style="opacity:1" fill="#d26696" d="M 197.5,239.5 C 198.5,239.5 199.5,239.5 200.5,239.5C 200.52,237.857 199.853,236.524 198.5,235.5C 199.776,234.355 201.109,234.355 202.5,235.5C 202.787,234.8 203.12,234.133 203.5,233.5C 205.411,234.075 207.078,235.075 208.5,236.5C 208.162,239.011 208.162,241.345 208.5,243.5C 208,244.5 207.5,245.5 207,246.5C 206.667,246.167 206.333,245.833 206,245.5C 203.725,249.687 204.559,253.187 208.5,256C 210.134,256.494 211.801,256.66 213.5,256.5C 212.861,249.852 212.527,243.186 212.5,236.5C 213.404,235.791 213.737,234.791 213.5,233.5C 215.288,233.215 216.955,233.548 218.5,234.5C 217.359,235.425 217.359,236.259 218.5,237C 216.058,239.225 214.391,241.892 213.5,245C 215.215,248.675 215.715,252.508 215,256.5C 213.559,257.87 211.892,258.87 210,259.5C 209.506,261.134 209.34,262.801 209.5,264.5C 210.5,264.5 211.5,264.5 212.5,264.5C 211.08,267.261 210.413,270.261 210.5,273.5C 209.234,272.91 207.901,272.41 206.5,272C 207.598,271.23 207.598,270.397 206.5,269.5C 207.376,269.631 208.043,269.298 208.5,268.5C 204.15,268.122 202.483,265.789 203.5,261.5C 202.5,261.5 201.5,261.5 200.5,261.5C 200.5,263.5 200.5,265.5 200.5,267.5C 198.585,267.216 196.919,267.549 195.5,268.5C 194.069,267.918 192.736,267.085 191.5,266C 192.691,265.302 193.691,264.469 194.5,263.5C 195.251,264.573 196.251,264.74 197.5,264C 195.398,262.267 195.065,260.267 196.5,258C 198.833,257.667 201.167,257.333 203.5,257C 200.438,255.939 197.938,254.106 196,251.5C 193.728,252.791 191.561,253.457 189.5,253.5C 188.416,254.665 187.583,255.998 187,257.5C 186.021,255.68 184.521,254.513 182.5,254C 185.655,253.019 185.988,251.685 183.5,250C 185.035,249.504 186.535,249.67 188,250.5C 189.395,250.22 190.562,249.553 191.5,248.5C 190.176,247.065 188.51,246.065 186.5,245.5C 185.754,244.264 185.421,242.93 185.5,241.5C 184.127,241.657 182.793,241.49 181.5,241C 182.747,239.542 182.747,238.042 181.5,236.5C 182.651,235.269 183.817,235.269 185,236.5C 188.013,232.758 188.846,233.425 187.5,238.5C 190.332,242.339 193.999,243.339 198.5,241.5C 198.137,240.817 197.804,240.15 197.5,239.5 Z"/></g>
<g><path style="opacity:1" fill="#bbbbbb" d="M 208.5,236.5 C 209.833,236.5 211.167,236.5 212.5,236.5C 212.527,243.186 212.861,249.852 213.5,256.5C 211.801,256.66 210.134,256.494 208.5,256C 204.559,253.187 203.725,249.687 206,245.5C 206.333,245.833 206.667,246.167 207,246.5C 207.5,245.5 208,244.5 208.5,243.5C 208.162,241.345 208.162,239.011 208.5,236.5 Z"/></g>
<g><path style="opacity:1" fill="#c48407" d="M 239.5,257.5 C 240.913,259.496 242.246,261.663 243.5,264C 242.207,264.49 240.873,264.657 239.5,264.5C 239.5,262.167 239.5,259.833 239.5,257.5 Z"/></g>
<g><path style="opacity:1" fill="#bebebe" d="M 108.5,265.5 C 108.5,267.5 108.5,269.5 108.5,271.5C 108.777,274.448 108.444,277.281 107.5,280C 102.731,282.718 97.7313,284.885 92.5,286.5C 92.5,280.5 92.5,274.5 92.5,268.5C 94.1484,267.073 96.1484,266.24 98.5,266C 101.817,265.502 105.15,265.335 108.5,265.5 Z"/></g>
<g><path style="opacity:1" fill="#bebfbf" d="M 241.5,265.5 C 246.894,265.733 252.227,266.399 257.5,267.5C 257.5,271.167 257.5,274.833 257.5,278.5C 257.5,281.5 257.5,284.5 257.5,287.5C 251.995,285.497 246.828,282.831 242,279.5C 241.503,276.854 241.336,274.187 241.5,271.5C 241.5,269.5 241.5,267.5 241.5,265.5 Z"/></g>
<g><path style="opacity:1" fill="#c1830a" d="M 262.5,262.5 C 263.797,264.693 263.797,267.027 262.5,269.5C 261.614,268.675 261.281,267.675 261.5,266.5C 260.127,266.657 258.793,266.49 257.5,266C 259.346,264.97 261.013,263.804 262.5,262.5 Z"/></g>
<g><path style="opacity:1" fill="#745458" d="M 194.5,263.5 C 193.691,264.469 192.691,265.302 191.5,266C 192.736,267.085 194.069,267.918 195.5,268.5C 195.217,269.289 194.717,269.956 194,270.5C 192.89,268.757 191.39,267.424 189.5,266.5C 190.09,265.201 191.09,264.368 192.5,264C 192.167,263.667 191.833,263.333 191.5,263C 192.749,262.26 193.749,262.427 194.5,263.5 Z"/></g>
<g><path style="opacity:1" fill="#7c411e" d="M 92.5,268.5 C 92.5,274.5 92.5,280.5 92.5,286.5C 92.5,287.167 92.1667,287.5 91.5,287.5C 91.5,284.167 91.5,280.833 91.5,277.5C 91.5,275.167 91.5,272.833 91.5,270.5C 88.1884,270.149 85.855,271.482 84.5,274.5C 83.6618,274.158 83.3284,273.492 83.5,272.5C 85.9368,270.017 88.9368,268.683 92.5,268.5 Z"/></g>
<g><path style="opacity:1" fill="#a71417" d="M 91.5,277.5 C 89.8008,277.66 88.1341,277.494 86.5,277C 85.244,276.583 84.5774,275.75 84.5,274.5C 85.855,271.482 88.1884,270.149 91.5,270.5C 91.5,272.833 91.5,275.167 91.5,277.5 Z"/></g>
<g><path style="opacity:1" fill="#6f464b" d="M 206.5,269.5 C 207.598,270.397 207.598,271.23 206.5,272C 207.901,272.41 209.234,272.91 210.5,273.5C 210.225,275.842 209.392,275.842 208,273.5C 207.586,273.957 207.086,274.291 206.5,274.5C 205.646,273.052 204.646,271.719 203.5,270.5C 204.325,269.614 205.325,269.281 206.5,269.5 Z"/></g>
<g><path style="opacity:1" fill="#a21a17" d="M 108.5,271.5 C 113.7,271.698 116.034,274.365 115.5,279.5C 115.333,281.167 115.167,282.833 115,284.5C 112.948,286.058 110.781,287.392 108.5,288.5C 106.127,289.839 103.793,291.172 101.5,292.5C 98.4214,293.304 95.4214,294.304 92.5,295.5C 91.8333,295.5 91.5,295.833 91.5,296.5C 90.5041,296.414 89.6708,296.748 89,297.5C 88.7083,299.326 88.875,301.159 89.5,303C 89.4907,304.404 88.9907,305.57 88,306.5C 83.1581,302.299 81.6581,297.132 83.5,291C 86.0711,289.546 88.7378,288.38 91.5,287.5C 92.1667,287.5 92.5,287.167 92.5,286.5C 97.7313,284.885 102.731,282.718 107.5,280C 108.444,277.281 108.777,274.448 108.5,271.5 Z"/></g>
<g><path style="opacity:1" fill="#a11917" d="M 241.5,271.5 C 241.336,274.187 241.503,276.854 242,279.5C 246.828,282.831 251.995,285.497 257.5,287.5C 260.516,288.562 263.516,289.729 266.5,291C 267.664,294.887 267.33,298.72 265.5,302.5C 263.803,303.364 262.637,304.697 262,306.5C 260.196,303.986 260.03,301.319 261.5,298.5C 260.643,297.575 259.643,296.908 258.5,296.5C 258.167,296.5 257.833,296.5 257.5,296.5C 252.244,294.185 246.91,291.852 241.5,289.5C 241.5,288.833 241.167,288.5 240.5,288.5C 233.164,285.515 231.498,280.515 235.5,273.5C 237.53,272.828 239.53,272.162 241.5,271.5 Z"/></g>
<g><path style="opacity:1" fill="#6b5310" d="M 146.5,281.5 C 146.833,281.5 147.167,281.5 147.5,281.5C 147.5,300.167 147.5,318.833 147.5,337.5C 149.167,337.5 150.833,337.5 152.5,337.5C 150.833,338.167 149.167,338.833 147.5,339.5C 145.847,339.34 144.514,338.674 143.5,337.5C 143.833,337.5 144.167,337.5 144.5,337.5C 146.487,319.197 147.154,300.53 146.5,281.5 Z"/></g>
<g><path style="opacity:1" fill="#776600" d="M 141.5,280.5 C 141.5,280.833 141.5,281.167 141.5,281.5C 139.833,281.5 138.167,281.5 136.5,281.5C 136.333,298.837 136.5,316.17 137,333.5C 138.33,334.582 139.83,335.249 141.5,335.5C 141.5,336.167 141.5,336.833 141.5,337.5C 139.118,336.649 137.118,335.316 135.5,333.5C 135.5,315.833 135.5,298.167 135.5,280.5C 137.5,280.5 139.5,280.5 141.5,280.5 Z"/></g>
<g><path style="opacity:1" fill="#c4af00" d="M 141.5,281.5 C 141.5,299.5 141.5,317.5 141.5,335.5C 139.83,335.249 138.33,334.582 137,333.5C 136.5,316.17 136.333,298.837 136.5,281.5C 138.167,281.5 139.833,281.5 141.5,281.5 Z"/></g>
<g><path style="opacity:1" fill="#a31b17" d="M 124.5,225.5 C 141.167,225.5 157.833,225.5 174.5,225.5C 174.5,237.833 174.5,250.167 174.5,262.5C 175.5,262.5 176.5,262.5 177.5,262.5C 184.217,264.009 188.55,268.009 190.5,274.5C 190.563,279.203 190.229,283.87 189.5,288.5C 189.791,289.649 190.624,290.316 192,290.5C 194.089,289.555 196.089,289.555 198,290.5C 197.668,294.753 197.835,299.086 198.5,303.5C 195.762,302.337 194.762,300.503 195.5,298C 193.442,295.555 190.942,293.722 188,292.5C 187.986,294.471 188.319,296.471 189,298.5C 192.246,299.913 195.08,301.913 197.5,304.5C 197.5,304.833 197.5,305.167 197.5,305.5C 195.633,305.045 193.8,304.378 192,303.5C 189.924,304.612 187.757,305.112 185.5,305C 184.778,301.898 184.611,298.732 185,295.5C 184.085,296.328 183.419,297.328 183,298.5C 182.107,297.289 181.274,297.289 180.5,298.5C 180.582,303.67 180.582,308.837 180.5,314C 181.229,316.248 182.229,318.415 183.5,320.5C 182.129,323.326 183.129,324.826 186.5,325C 187.772,326.307 188.772,327.807 189.5,329.5C 193.193,329.997 196.693,330.997 200,332.5C 202.912,330.934 206.079,330.101 209.5,330C 210.727,326.724 213.06,324.891 216.5,324.5C 215.901,320.426 216.901,316.926 219.5,314C 216.974,311.427 216.974,308.927 219.5,306.5C 216.908,303.417 216.908,300.25 219.5,297C 218.946,295.449 218.28,293.949 217.5,292.5C 220.875,285.875 219.208,284.208 212.5,287.5C 209.629,284.941 206.795,284.941 204,287.5C 202.667,286.833 201.333,286.167 200,285.5C 198.667,286.167 197.333,286.833 196,287.5C 194.7,286.293 193.2,285.626 191.5,285.5C 191.5,284.167 191.5,282.833 191.5,281.5C 202.5,281.5 213.5,281.5 224.5,281.5C 224.5,293.5 224.5,305.5 224.5,317.5C 222.986,328.682 216.653,335.348 205.5,337.5C 189.92,339.55 179.586,333.217 174.5,318.5C 174.5,311.833 174.5,305.167 174.5,298.5C 172.833,298.5 171.167,298.5 169.5,298.5C 169.5,308.167 169.5,317.833 169.5,327.5C 168.92,329.749 167.587,331.415 165.5,332.5C 164.17,320.098 164.17,307.598 165.5,295C 164.956,294.283 164.289,293.783 163.5,293.5C 161.127,291.421 159.794,288.754 159.5,285.5C 159.372,281.119 159.705,276.785 160.5,272.5C 161.758,270.313 162.758,267.98 163.5,265.5C 166.588,263.625 169.922,262.292 173.5,261.5C 173.5,249.833 173.5,238.167 173.5,226.5C 157.5,226.5 141.5,226.5 125.5,226.5C 125.5,244.167 125.5,261.833 125.5,279.5C 136.755,280.109 147.755,279.442 158.5,277.5C 158.5,278.5 158.5,279.5 158.5,280.5C 152.833,280.5 147.167,280.5 141.5,280.5C 139.5,280.5 137.5,280.5 135.5,280.5C 135.5,298.167 135.5,315.833 135.5,333.5C 133.973,333.573 132.973,332.906 132.5,331.5C 131.5,331.167 130.833,330.5 130.5,329.5C 130.5,313.167 130.5,296.833 130.5,280.5C 128.5,280.5 126.5,280.5 124.5,280.5C 124.5,276.167 124.5,271.833 124.5,267.5C 119.256,266.185 113.923,265.518 108.5,265.5C 105.15,265.335 101.817,265.502 98.5,266C 96.1484,266.24 94.1484,267.073 92.5,268.5C 88.9368,268.683 85.9368,270.017 83.5,272.5C 81.3622,269.913 80.5289,266.913 81,263.5C 84.0619,260.885 87.5619,259.219 91.5,258.5C 92.1667,258.5 92.5,258.167 92.5,257.5C 97.9858,256.982 103.319,256.315 108.5,255.5C 113.894,255.733 119.227,256.399 124.5,257.5C 124.5,246.833 124.5,236.167 124.5,225.5 Z"/></g>
<g><path style="opacity:1" fill="#b01419" d="M 132.5,331.5 C 131.529,314.881 131.195,298.214 131.5,281.5C 132.5,281.5 133.5,281.5 134.5,281.5C 135.152,298.534 134.485,315.2 132.5,331.5 Z"/></g>
<g><path style="opacity:1" fill="#114fa6" d="M 170.5,267.5 C 182.762,266.598 187.928,272.264 186,284.5C 183.439,292.057 178.273,294.89 170.5,293C 164.412,288.748 162.246,282.915 164,275.5C 165.305,272.039 167.471,269.372 170.5,267.5 Z"/></g>
<g><path style="opacity:1" fill="#9d8c10" d="M 179.5,271.5 C 180.932,273.14 182.265,274.974 183.5,277C 183.095,277.945 182.428,278.612 181.5,279C 182.361,281.321 181.361,282.487 178.5,282.5C 178.33,281.178 178.663,280.011 179.5,279C 178.376,278.751 177.376,278.251 176.5,277.5C 177.883,275.68 178.883,273.68 179.5,271.5 Z"/></g>
<g><path style="opacity:1" fill="#988919" d="M 168.5,271.5 C 170.605,272.987 172.272,274.987 173.5,277.5C 172.624,278.251 171.624,278.751 170.5,279C 171.337,280.011 171.67,281.178 171.5,282.5C 168.639,282.487 167.639,281.321 168.5,279C 167.572,278.612 166.905,277.945 166.5,277C 167.885,275.403 168.551,273.57 168.5,271.5 Z"/></g>
<g><path style="opacity:1" fill="#1a37de" d="M 152.5,267.5 C 152.5,269.5 152.5,271.5 152.5,273.5C 150.5,273.5 148.5,273.5 146.5,273.5C 145.164,267.496 147.164,265.496 152.5,267.5 Z"/></g>
<g><path style="opacity:1" fill="#c49208" d="M 90.5,259.5 C 92.2517,259.418 93.2517,260.251 93.5,262C 92.2576,263.651 91.4243,265.485 91,267.5C 88.4186,264.738 88.252,262.072 90.5,259.5 Z"/></g>
<g><path style="opacity:1" fill="#c49306" d="M 101.5,257.5 C 103.624,258.031 105.124,259.365 106,261.5C 106.333,260.833 106.667,260.167 107,259.5C 107.624,261.464 107.124,263.131 105.5,264.5C 103.89,262.275 102.557,259.941 101.5,257.5 Z"/></g>
<g><path style="opacity:1" fill="#7e6f02" d="M 155.5,241.5 C 156.222,241.918 156.722,242.584 157,243.5C 157.333,242.833 157.667,242.167 158,241.5C 158.71,242.973 159.876,243.64 161.5,243.5C 161.5,245.833 161.5,248.167 161.5,250.5C 160.513,255.305 160.179,260.305 160.5,265.5C 161.5,265.5 162.5,265.5 163.5,265.5C 162.758,267.98 161.758,270.313 160.5,272.5C 158.167,272.5 155.833,272.5 153.5,272.5C 153.784,270.585 153.451,268.919 152.5,267.5C 147.164,265.496 145.164,267.496 146.5,273.5C 142.833,273.5 139.167,273.5 135.5,273.5C 135.5,270.833 135.5,268.167 135.5,265.5C 136.833,265.5 138.167,265.5 139.5,265.5C 139.446,257.767 138.78,250.101 137.5,242.5C 139.993,242.869 140.66,242.203 139.5,240.5C 141.833,240.5 144.167,240.5 146.5,240.5C 147.755,239.295 147.922,236.295 147,231.5C 148.903,231.694 150.737,231.694 152.5,231.5C 152.833,232.167 153.167,232.833 153.5,233.5C 151.881,236.642 151.215,239.975 151.5,243.5C 153.483,243.843 154.817,243.176 155.5,241.5 Z"/></g>
<g><path style="opacity:1" fill="#c8b201" d="M 111.5,258.5 C 112.474,259.635 113.641,260.635 115,261.5C 115.667,262.167 115.667,262.833 115,263.5C 112.828,262.491 111.662,260.824 111.5,258.5 Z"/></g>
<g><path style="opacity:1" fill="#aa1418" d="M 163.5,265.5 C 162.5,265.5 161.5,265.5 160.5,265.5C 160.179,260.305 160.513,255.305 161.5,250.5C 162.473,248.052 162.806,245.385 162.5,242.5C 161.448,242.649 160.448,242.483 159.5,242C 160.38,240.644 160.714,239.144 160.5,237.5C 158.167,237.5 155.833,237.5 153.5,237.5C 153.527,239.199 154.194,240.533 155.5,241.5C 154.817,243.176 153.483,243.843 151.5,243.5C 151.215,239.975 151.881,236.642 153.5,233.5C 153.167,232.833 152.833,232.167 152.5,231.5C 150.737,231.694 148.903,231.694 147,231.5C 147.922,236.295 147.755,239.295 146.5,240.5C 146.5,239.5 146.5,238.5 146.5,237.5C 144.167,237.5 141.833,237.5 139.5,237.5C 139.5,238.5 139.5,239.5 139.5,240.5C 140.66,242.203 139.993,242.869 137.5,242.5C 138.78,250.101 139.446,257.767 139.5,265.5C 138.167,265.5 136.833,265.5 135.5,265.5C 135.5,268.167 135.5,270.833 135.5,273.5C 139.167,273.5 142.833,273.5 146.5,273.5C 148.5,273.5 150.5,273.5 152.5,273.5C 154.857,273.337 157.19,273.503 159.5,274C 158.663,275.011 158.33,276.178 158.5,277.5C 147.755,279.442 136.755,280.109 125.5,279.5C 125.5,261.833 125.5,244.167 125.5,226.5C 141.5,226.5 157.5,226.5 173.5,226.5C 173.5,238.167 173.5,249.833 173.5,261.5C 169.922,262.292 166.588,263.625 163.5,265.5 Z"/></g>
<g><path style="opacity:1" fill="#324172" d="M 154.5,254.5 C 154.5,256.167 154.5,257.833 154.5,259.5C 155.5,259.5 156.5,259.5 157.5,259.5C 157.5,257.833 157.5,256.167 157.5,254.5C 158.461,256.265 158.795,258.265 158.5,260.5C 156.833,260.5 155.167,260.5 153.5,260.5C 153.205,258.265 153.539,256.265 154.5,254.5 Z"/></g>
<g><path style="opacity:1" fill="#324058" d="M 145.5,254.5 C 146.461,256.265 146.795,258.265 146.5,260.5C 144.585,260.784 142.919,260.451 141.5,259.5C 142.833,259.5 144.167,259.5 145.5,259.5C 145.5,257.833 145.5,256.167 145.5,254.5 Z"/></g>
<g><path style="opacity:1" fill="#0139fa" d="M 157.5,254.5 C 157.5,256.167 157.5,257.833 157.5,259.5C 156.5,259.5 155.5,259.5 154.5,259.5C 154.5,257.833 154.5,256.167 154.5,254.5C 155.5,253.167 156.5,253.167 157.5,254.5 Z"/></g>
<g><path style="opacity:1" fill="#073bee" d="M 145.5,254.5 C 145.5,256.167 145.5,257.833 145.5,259.5C 144.167,259.5 142.833,259.5 141.5,259.5C 141.34,257.801 141.506,256.134 142,254.5C 143.292,253.209 144.458,253.209 145.5,254.5 Z"/></g>
<g><path style="opacity:1" fill="#684d05" d="M 161.5,250.5 C 161.5,248.167 161.5,245.833 161.5,243.5C 159.876,243.64 158.71,242.973 158,241.5C 157.667,242.167 157.333,242.833 157,243.5C 156.722,242.584 156.222,241.918 155.5,241.5C 154.194,240.533 153.527,239.199 153.5,237.5C 155.833,237.5 158.167,237.5 160.5,237.5C 160.714,239.144 160.38,240.644 159.5,242C 160.448,242.483 161.448,242.649 162.5,242.5C 162.806,245.385 162.473,248.052 161.5,250.5 Z"/></g>
<g><path style="opacity:1" fill="#837600" d="M 146.5,240.5 C 144.167,240.5 141.833,240.5 139.5,240.5C 139.5,239.5 139.5,238.5 139.5,237.5C 141.833,237.5 144.167,237.5 146.5,237.5C 146.5,238.5 146.5,239.5 146.5,240.5 Z"/></g>
<g><path style="opacity:1" fill="#621d10" d="M 190.5,274.5 C 191.461,276.265 191.795,278.265 191.5,280.5C 202.5,280.5 213.5,280.5 224.5,280.5C 224.833,280.5 225.167,280.5 225.5,280.5C 225.829,293.011 225.495,305.345 224.5,317.5C 224.5,305.5 224.5,293.5 224.5,281.5C 213.5,281.5 202.5,281.5 191.5,281.5C 191.5,282.833 191.5,284.167 191.5,285.5C 190.308,286.566 190.641,287.399 192.5,288C 191.552,288.483 190.552,288.649 189.5,288.5C 190.229,283.87 190.563,279.203 190.5,274.5 Z"/></g>
<g><path style="opacity:1" fill="#998918" d="M 174.5,280.5 C 176.007,282.289 177.34,284.289 178.5,286.5C 176.995,287.842 176.328,289.508 176.5,291.5C 173.306,291.824 172.306,290.658 173.5,288C 172.572,287.612 171.905,286.945 171.5,286C 172.848,284.317 173.848,282.483 174.5,280.5 Z"/></g>
<g><path style="opacity:1" fill="#c5b000" d="M 159.5,285.5 C 159.794,288.754 161.127,291.421 163.5,293.5C 163.5,307.167 163.5,320.833 163.5,334.5C 162.167,334.833 160.833,335.167 159.5,335.5C 158.167,318.833 158.167,302.167 159.5,285.5 Z"/></g>
<g><path style="opacity:1" fill="#9c9b99" d="M 108.5,288.5 C 108.5,298.167 108.5,307.833 108.5,317.5C 106.833,317.5 105.167,317.5 103.5,317.5C 104.135,308.766 103.468,300.433 101.5,292.5C 103.793,291.172 106.127,289.839 108.5,288.5 Z"/></g>
<g><path style="opacity:1" fill="#c2c2c3" d="M 241.5,289.5 C 246.91,291.852 252.244,294.185 257.5,296.5C 257.5,303.5 257.5,310.5 257.5,317.5C 252.167,317.5 246.833,317.5 241.5,317.5C 241.5,308.167 241.5,298.833 241.5,289.5 Z"/></g>
<g><path style="opacity:1" fill="#c8c8c9" d="M 101.5,292.5 C 103.468,300.433 104.135,308.766 103.5,317.5C 99.8333,317.5 96.1667,317.5 92.5,317.5C 92.5,310.167 92.5,302.833 92.5,295.5C 95.4214,294.304 98.4214,293.304 101.5,292.5 Z"/></g>
<g><path style="opacity:1" fill="#5f250c" d="M 163.5,293.5 C 164.289,293.783 164.956,294.283 165.5,295C 164.17,307.598 164.17,320.098 165.5,332.5C 165.167,333.5 164.5,334.167 163.5,334.5C 163.5,320.833 163.5,307.167 163.5,293.5 Z"/></g>
<g><path style="opacity:1" fill="#c7a505" d="M 198.5,303.5 C 198.5,304.167 198.167,304.5 197.5,304.5C 195.08,301.913 192.246,299.913 189,298.5C 188.319,296.471 187.986,294.471 188,292.5C 190.942,293.722 193.442,295.555 195.5,298C 194.762,300.503 195.762,302.337 198.5,303.5 Z"/></g>
<g><path style="opacity:1" fill="#746201" d="M 124.5,280.5 C 126.5,280.5 128.5,280.5 130.5,280.5C 130.5,296.833 130.5,313.167 130.5,329.5C 127.676,327.2 125.843,324.2 125,320.5C 124.5,307.171 124.333,293.837 124.5,280.5 Z"/></g>
<g><path style="opacity:1" fill="#ceb700" d="M 125.5,281.5 C 126.833,281.5 128.167,281.5 129.5,281.5C 129.667,296.504 129.5,311.504 129,326.5C 127.725,324.283 126.725,321.949 126,319.5C 125.5,306.838 125.333,294.171 125.5,281.5 Z"/></g>
<g><path style="opacity:1" fill="#bfac00" d="M 174.5,318.5 C 173.396,321.81 171.729,324.81 169.5,327.5C 169.5,317.833 169.5,308.167 169.5,298.5C 171.167,298.5 172.833,298.5 174.5,298.5C 174.5,305.167 174.5,311.833 174.5,318.5 Z"/></g>
<g><path style="opacity:1" fill="#63210e" d="M 152.5,267.5 C 153.451,268.919 153.784,270.585 153.5,272.5C 155.833,272.5 158.167,272.5 160.5,272.5C 159.705,276.785 159.372,281.119 159.5,285.5C 158.167,302.167 158.167,318.833 159.5,335.5C 159.158,336.338 158.492,336.672 157.5,336.5C 156.081,337.451 154.415,337.784 152.5,337.5C 152.5,318.833 152.5,300.167 152.5,281.5C 150.833,281.5 149.167,281.5 147.5,281.5C 147.167,281.5 146.833,281.5 146.5,281.5C 145.167,281.5 143.833,281.5 142.5,281.5C 141.866,300.402 142.533,319.069 144.5,337.5C 144.167,337.5 143.833,337.5 143.5,337.5C 142.833,337.5 142.167,337.5 141.5,337.5C 141.5,336.833 141.5,336.167 141.5,335.5C 141.5,317.5 141.5,299.5 141.5,281.5C 141.5,281.167 141.5,280.833 141.5,280.5C 147.167,280.5 152.833,280.5 158.5,280.5C 158.5,279.5 158.5,278.5 158.5,277.5C 158.33,276.178 158.663,275.011 159.5,274C 157.19,273.503 154.857,273.337 152.5,273.5C 152.5,271.5 152.5,269.5 152.5,267.5 Z"/></g>
<g><path style="opacity:1" fill="#ad1319" d="M 157.5,336.5 C 156.167,336.5 154.833,336.5 153.5,336.5C 153.5,318.167 153.5,299.833 153.5,281.5C 154.833,281.5 156.167,281.5 157.5,281.5C 157.5,299.833 157.5,318.167 157.5,336.5 Z"/></g>
<g><path style="opacity:1" fill="#c2b300" d="M 147.5,281.5 C 149.167,281.5 150.833,281.5 152.5,281.5C 152.5,300.167 152.5,318.833 152.5,337.5C 150.833,337.5 149.167,337.5 147.5,337.5C 147.5,318.833 147.5,300.167 147.5,281.5 Z"/></g>
<g><path style="opacity:1" fill="#ab1219" d="M 146.5,281.5 C 147.154,300.53 146.487,319.197 144.5,337.5C 142.533,319.069 141.866,300.402 142.5,281.5C 143.833,281.5 145.167,281.5 146.5,281.5 Z"/></g>
<g><path style="opacity:1" fill="#9f860a" d="M 240.5,288.5 C 241.167,288.5 241.5,288.833 241.5,289.5C 241.5,298.833 241.5,308.167 241.5,317.5C 246.833,317.5 252.167,317.5 257.5,317.5C 257.5,310.5 257.5,303.5 257.5,296.5C 257.833,296.5 258.167,296.5 258.5,296.5C 258.602,304.954 258.602,313.287 258.5,321.5C 261.172,323.425 262.172,326.092 261.5,329.5C 253.493,330.703 245.493,330.703 237.5,329.5C 236.875,326.03 237.875,323.196 240.5,321C 240.434,310.317 240.434,299.483 240.5,288.5 Z"/></g>
<g><path style="opacity:1" fill="#9b8610" d="M 92.5,295.5 C 92.5,302.833 92.5,310.167 92.5,317.5C 96.1667,317.5 99.8333,317.5 103.5,317.5C 105.167,317.5 106.833,317.5 108.5,317.5C 108.897,319.963 110.064,321.963 112,323.5C 112.494,325.134 112.66,326.801 112.5,328.5C 113.833,328.5 115.167,328.5 116.5,328.5C 116.5,333.167 116.5,337.833 116.5,342.5C 114.901,342.768 113.568,342.434 112.5,341.5C 114.179,341.715 115.179,341.048 115.5,339.5C 115.5,338.833 115.5,338.167 115.5,337.5C 115.5,336.5 115.5,335.5 115.5,334.5C 115.5,333.833 115.5,333.167 115.5,332.5C 115.119,331.069 114.119,330.236 112.5,330C 104.492,330.699 96.4918,330.533 88.5,329.5C 88.268,325.543 89.1013,321.876 91,318.5C 91.4997,311.174 91.6663,303.841 91.5,296.5C 91.5,295.833 91.8333,295.5 92.5,295.5 Z"/></g>
<g><path style="opacity:1" fill="#c6a304" d="M 191.5,285.5 C 193.2,285.626 194.7,286.293 196,287.5C 197.333,286.833 198.667,286.167 200,285.5C 201.333,286.167 202.667,286.833 204,287.5C 206.795,284.941 209.629,284.941 212.5,287.5C 219.208,284.208 220.875,285.875 217.5,292.5C 218.28,293.949 218.946,295.449 219.5,297C 216.908,300.25 216.908,303.417 219.5,306.5C 216.974,308.927 216.974,311.427 219.5,314C 216.901,316.926 215.901,320.426 216.5,324.5C 213.06,324.891 210.727,326.724 209.5,330C 206.079,330.101 202.912,330.934 200,332.5C 196.693,330.997 193.193,329.997 189.5,329.5C 188.772,327.807 187.772,326.307 186.5,325C 183.129,324.826 182.129,323.326 183.5,320.5C 182.229,318.415 181.229,316.248 180.5,314C 180.582,308.837 180.582,303.67 180.5,298.5C 181.274,297.289 182.107,297.289 183,298.5C 183.419,297.328 184.085,296.328 185,295.5C 184.611,298.732 184.778,301.898 185.5,305C 187.757,305.112 189.924,304.612 192,303.5C 193.8,304.378 195.633,305.045 197.5,305.5C 197.5,306.167 197.5,306.833 197.5,307.5C 195.633,307.955 193.8,308.622 192,309.5C 190.135,309.294 188.468,308.628 187,307.5C 186.127,307.735 185.293,308.069 184.5,308.5C 185.669,311.955 185.669,315.622 184.5,319.5C 187.998,319.522 189.331,318.022 188.5,315C 191.343,312.562 194.343,310.396 197.5,308.5C 198.391,309.11 199.391,309.443 200.5,309.5C 200.354,312.826 201.021,315.993 202.5,319C 200.933,321.685 200.433,324.518 201,327.5C 201.561,328.022 202.228,328.355 203,328.5C 204.394,326.612 206.227,325.279 208.5,324.5C 210.378,325.661 211.378,324.994 211.5,322.5C 211.278,320.945 210.611,319.611 209.5,318.5C 207.433,317.866 205.6,316.866 204,315.5C 203.383,314.551 203.549,313.718 204.5,313C 203.29,311.961 202.29,310.794 201.5,309.5C 201.5,308.833 201.833,308.5 202.5,308.5C 204.802,310.438 207.302,312.105 210,313.5C 210.163,315.676 210.996,317.509 212.5,319C 213.965,319.601 214.965,319.101 215.5,317.5C 212.929,315.056 212.929,312.556 215.5,310C 215.355,309.228 215.022,308.561 214.5,308C 212.224,307.703 210.057,308.203 208,309.5C 206.2,308.622 204.367,307.955 202.5,307.5C 202.5,306.833 202.5,306.167 202.5,305.5C 206.49,304.471 210.49,304.304 214.5,305C 215.629,302.257 215.295,299.591 213.5,297C 214.797,294.943 215.297,292.776 215,290.5C 212.15,292.865 210.316,295.865 209.5,299.5C 208.271,300.281 206.938,300.781 205.5,301C 204.837,302.518 203.837,303.685 202.5,304.5C 201.833,304.5 201.5,304.167 201.5,303.5C 203.7,301.738 204.867,299.404 205,296.5C 208.153,295.214 210.819,293.214 213,290.5C 213.591,289.517 213.257,288.85 212,288.5C 210.78,289.388 209.447,290.055 208,290.5C 205.592,289.464 203.259,289.464 201,290.5C 201.255,291.915 201.755,293.415 202.5,295C 201.105,297.679 200.439,300.512 200.5,303.5C 199.833,303.5 199.167,303.5 198.5,303.5C 197.835,299.086 197.668,294.753 198,290.5C 196.089,289.555 194.089,289.555 192,290.5C 190.624,290.316 189.791,289.649 189.5,288.5C 190.552,288.649 191.552,288.483 192.5,288C 190.641,287.399 190.308,286.566 191.5,285.5 Z"/></g>
<g><path style="opacity:1" fill="#ae2118" d="M 200.5,309.5 C 200.833,309.5 201.167,309.5 201.5,309.5C 202.29,310.794 203.29,311.961 204.5,313C 203.549,313.718 203.383,314.551 204,315.5C 205.6,316.866 207.433,317.866 209.5,318.5C 210.611,319.611 211.278,320.945 211.5,322.5C 211.378,324.994 210.378,325.661 208.5,324.5C 206.227,325.279 204.394,326.612 203,328.5C 202.228,328.355 201.561,328.022 201,327.5C 200.433,324.518 200.933,321.685 202.5,319C 201.021,315.993 200.354,312.826 200.5,309.5 Z"/></g>
<g><path style="opacity:1" fill="#ae2218" d="M 196.5,310.5 C 197.693,310.97 198.36,311.97 198.5,313.5C 197.689,318.472 197.689,323.472 198.5,328.5C 195.489,328.173 192.989,326.839 191,324.5C 190.586,324.957 190.086,325.291 189.5,325.5C 188.359,323.579 188.192,321.579 189,319.5C 191,318.167 193,316.833 195,315.5C 195.352,313.753 195.852,312.086 196.5,310.5 Z"/></g>
<g><path style="opacity:1" fill="#ad1c18" d="M 202.5,308.5 C 202.5,308.167 202.5,307.833 202.5,307.5C 204.367,307.955 206.2,308.622 208,309.5C 210.057,308.203 212.224,307.703 214.5,308C 215.022,308.561 215.355,309.228 215.5,310C 212.929,312.556 212.929,315.056 215.5,317.5C 214.965,319.101 213.965,319.601 212.5,319C 210.996,317.509 210.163,315.676 210,313.5C 207.302,312.105 204.802,310.438 202.5,308.5 Z"/></g>
<g><path style="opacity:1" fill="#af2718" d="M 197.5,307.5 C 197.5,307.833 197.5,308.167 197.5,308.5C 194.343,310.396 191.343,312.562 188.5,315C 189.331,318.022 187.998,319.522 184.5,319.5C 185.669,315.622 185.669,311.955 184.5,308.5C 185.293,308.069 186.127,307.735 187,307.5C 188.468,308.628 190.135,309.294 192,309.5C 193.8,308.622 195.633,307.955 197.5,307.5 Z"/></g>
<g><path style="opacity:1" fill="#319065" d="M 198.5,303.5 C 199.167,303.5 199.833,303.5 200.5,303.5C 200.833,303.5 201.167,303.5 201.5,303.5C 201.5,304.167 201.833,304.5 202.5,304.5C 202.5,304.833 202.5,305.167 202.5,305.5C 202.5,306.167 202.5,306.833 202.5,307.5C 202.5,307.833 202.5,308.167 202.5,308.5C 201.833,308.5 201.5,308.833 201.5,309.5C 201.167,309.5 200.833,309.5 200.5,309.5C 199.391,309.443 198.391,309.11 197.5,308.5C 197.5,308.167 197.5,307.833 197.5,307.5C 197.5,306.833 197.5,306.167 197.5,305.5C 197.5,305.167 197.5,304.833 197.5,304.5C 198.167,304.5 198.5,304.167 198.5,303.5 Z"/></g>
<g><path style="opacity:1" fill="#af2b17" d="M 202.5,305.5 C 202.5,305.167 202.5,304.833 202.5,304.5C 203.837,303.685 204.837,302.518 205.5,301C 206.938,300.781 208.271,300.281 209.5,299.5C 210.316,295.865 212.15,292.865 215,290.5C 215.297,292.776 214.797,294.943 213.5,297C 215.295,299.591 215.629,302.257 214.5,305C 210.49,304.304 206.49,304.471 202.5,305.5 Z"/></g>
<g><path style="opacity:1" fill="#af2517" d="M 201.5,303.5 C 201.167,303.5 200.833,303.5 200.5,303.5C 200.439,300.512 201.105,297.679 202.5,295C 201.755,293.415 201.255,291.915 201,290.5C 203.259,289.464 205.592,289.464 208,290.5C 209.447,290.055 210.78,289.388 212,288.5C 213.257,288.85 213.591,289.517 213,290.5C 210.819,293.214 208.153,295.214 205,296.5C 204.867,299.404 203.7,301.738 201.5,303.5 Z"/></g>
<g><path style="opacity:1" fill="#cab300" d="M 238.5,324.5 C 245.833,324.5 253.167,324.5 260.5,324.5C 260.5,325.833 260.5,327.167 260.5,328.5C 253.167,328.5 245.833,328.5 238.5,328.5C 238.5,327.167 238.5,325.833 238.5,324.5 Z"/></g>
<g><path style="opacity:1" fill="#ccb500" d="M 89.5,324.5 C 96.8333,324.5 104.167,324.5 111.5,324.5C 111.5,325.833 111.5,327.167 111.5,328.5C 104.167,328.5 96.8333,328.5 89.5,328.5C 89.5,327.167 89.5,325.833 89.5,324.5 Z"/></g>
<g><path style="opacity:1" fill="#134da8" d="M 88.5,329.5 C 96.4918,330.533 104.492,330.699 112.5,330C 114.119,330.236 115.119,331.069 115.5,332.5C 110.341,331.21 105.174,331.21 100,332.5C 97.2571,332.128 94.5904,331.461 92,330.5C 89.7298,331.86 87.2298,332.527 84.5,332.5C 85.2114,330.799 86.5447,329.799 88.5,329.5 Z"/></g>
<g><path style="opacity:1" fill="#174ea7" d="M 236.5,329.5 C 236.833,329.5 237.167,329.5 237.5,329.5C 245.493,330.703 253.493,330.703 261.5,329.5C 261.833,329.5 262.167,329.5 262.5,329.5C 263.551,330.222 264.218,331.222 264.5,332.5C 254.989,332.265 245.489,332.265 236,332.5C 235.5,332.167 235,331.833 234.5,331.5C 235.243,330.818 235.909,330.151 236.5,329.5 Z"/></g>
<g><path style="opacity:1" fill="#646137" d="M 262.5,329.5 C 263.5,329.5 264.5,329.5 265.5,329.5C 265.5,333.833 265.5,338.167 265.5,342.5C 263.901,342.768 262.568,342.434 261.5,341.5C 263.179,341.715 264.179,341.048 264.5,339.5C 264.5,338.833 264.5,338.167 264.5,337.5C 264.5,336.5 264.5,335.5 264.5,334.5C 264.5,333.833 264.5,333.167 264.5,332.5C 264.218,331.222 263.551,330.222 262.5,329.5 Z"/></g>
<g><path style="opacity:1" fill="#b4b3b3" d="M 115.5,332.5 C 115.5,333.167 115.5,333.833 115.5,334.5C 105.167,334.5 94.8333,334.5 84.5,334.5C 84.5,333.833 84.5,333.167 84.5,332.5C 87.2298,332.527 89.7298,331.86 92,330.5C 94.5904,331.461 97.2571,332.128 100,332.5C 105.174,331.21 110.341,331.21 115.5,332.5 Z"/></g>
<g><path style="opacity:1" fill="#29529c" d="M 115.5,334.5 C 115.5,335.5 115.5,336.5 115.5,337.5C 112.844,336.842 110.178,336.175 107.5,335.5C 105.083,336.404 102.583,337.071 100,337.5C 94.8259,336.21 89.6592,336.21 84.5,337.5C 84.5,336.5 84.5,335.5 84.5,334.5C 94.8333,334.5 105.167,334.5 115.5,334.5 Z"/></g>
<g><path style="opacity:1" fill="#2352a6" d="M 264.5,334.5 C 264.5,335.5 264.5,336.5 264.5,337.5C 254.622,337.37 244.789,337.37 235,337.5C 234.517,336.552 234.351,335.552 234.5,334.5C 244.491,334.428 254.491,334.428 264.5,334.5 Z"/></g>
<g><path style="opacity:1" fill="#b5b4b3" d="M 174.5,318.5 C 179.586,333.217 189.92,339.55 205.5,337.5C 203.142,339.129 200.476,340.295 197.5,341C 180.687,344.694 164.021,344.194 147.5,339.5C 149.167,338.833 150.833,338.167 152.5,337.5C 154.415,337.784 156.081,337.451 157.5,336.5C 158.492,336.672 159.158,336.338 159.5,335.5C 160.833,335.167 162.167,334.833 163.5,334.5C 164.5,334.167 165.167,333.5 165.5,332.5C 167.587,331.415 168.92,329.749 169.5,327.5C 171.729,324.81 173.396,321.81 174.5,318.5 Z"/></g>
<g><path style="opacity:1" fill="#e4c684" d="M 177.5,336.5 C 177.167,336.5 176.833,336.5 176.5,336.5C 176.808,334.076 176.474,331.743 175.5,329.5C 173.717,331.023 173.051,333.023 173.5,335.5C 173.565,335.938 173.399,336.272 173,336.5C 169.374,332.664 170.04,329.664 175,327.5C 177.513,328.679 179.346,330.513 180.5,333C 180.022,334.642 179.022,335.809 177.5,336.5 Z"/></g>
<g><path style="opacity:1" fill="#832117" d="M 176.5,336.5 C 175.833,336.5 175.167,336.5 174.5,336.5C 174.5,335.833 174.167,335.5 173.5,335.5C 173.051,333.023 173.717,331.023 175.5,329.5C 176.474,331.743 176.808,334.076 176.5,336.5 Z"/></g>
<g><path style="opacity:1" fill="#1a4da2" d="M 115.5,339.5 C 115.179,341.048 114.179,341.715 112.5,341.5C 108.222,340.128 104.056,340.461 100,342.5C 97.5396,341.687 95.0396,341.02 92.5,340.5C 89.8222,341.175 87.1555,341.842 84.5,342.5C 84.5,341.5 84.5,340.5 84.5,339.5C 94.8278,339.418 105.161,339.418 115.5,339.5 Z"/></g>
<g><path style="opacity:1" fill="#b3b1b0" d="M 115.5,337.5 C 115.5,338.167 115.5,338.833 115.5,339.5C 105.161,339.418 94.8278,339.418 84.5,339.5C 84.5,338.833 84.5,338.167 84.5,337.5C 89.6592,336.21 94.8259,336.21 100,337.5C 102.583,337.071 105.083,336.404 107.5,335.5C 110.178,336.175 112.844,336.842 115.5,337.5 Z"/></g>
<g><path style="opacity:1" fill="#a5a5a2" d="M 236.5,329.5 C 235.909,330.151 235.243,330.818 234.5,331.5C 235,331.833 235.5,332.167 236,332.5C 245.489,332.265 254.989,332.265 264.5,332.5C 264.5,333.167 264.5,333.833 264.5,334.5C 254.491,334.428 244.491,334.428 234.5,334.5C 234.351,335.552 234.517,336.552 235,337.5C 244.789,337.37 254.622,337.37 264.5,337.5C 264.5,338.167 264.5,338.833 264.5,339.5C 256.84,339.082 249.173,338.749 241.5,338.5C 238.943,338.442 236.61,339.109 234.5,340.5C 234.957,341.298 235.624,341.631 236.5,341.5C 235.791,342.404 234.791,342.737 233.5,342.5C 233.5,338.167 233.5,333.833 233.5,329.5C 234.5,329.5 235.5,329.5 236.5,329.5 Z"/></g>
<g><path style="opacity:1" fill="#27614f" d="M 174.5,336.5 C 175.167,336.5 175.833,336.5 176.5,336.5C 176.833,336.5 177.167,336.5 177.5,336.5C 176.537,337.363 176.537,338.03 177.5,338.5C 180.817,336.216 184.15,336.049 187.5,338C 183.373,339.697 179.206,341.197 175,342.5C 170.923,341.285 167.09,339.451 163.5,337C 166.685,336.265 169.685,336.765 172.5,338.5C 173.713,338.253 174.38,337.586 174.5,336.5 Z"/></g>
<g><path style="opacity:1" fill="#194fa7" d="M 264.5,339.5 C 264.179,341.048 263.179,341.715 261.5,341.5C 253.192,342.823 244.859,342.823 236.5,341.5C 235.624,341.631 234.957,341.298 234.5,340.5C 236.61,339.109 238.943,338.442 241.5,338.5C 249.173,338.749 256.84,339.082 264.5,339.5 Z"/></g>
<g><path style="opacity:0.992" fill="#c60b1d" d="M 32.5,374.5 C 177.167,374.5 321.833,374.5 466.5,374.5C 429.657,436.628 375.99,476.461 305.5,494C 295.064,496.071 284.73,497.905 274.5,499.5C 257.833,499.5 241.167,499.5 224.5,499.5C 140.313,488.432 76.3133,446.765 32.5,374.5 Z"/></g>
</svg>
