<?xml version="1.0" encoding="UTF-8"?>
<!DOCTYPE svg PUBLIC "-//W3C//DTD SVG 1.1//EN" "http://www.w3.org/Graphics/SVG/1.1/DTD/svg11.dtd">
<svg xmlns="http://www.w3.org/2000/svg" version="1.1" width="500px" height="500px" style="shape-rendering:geometricPrecision; text-rendering:geometricPrecision; image-rendering:optimizeQuality; fill-rule:evenodd; clip-rule:evenodd" xmlns:xlink="http://www.w3.org/1999/xlink">
<g><path style="opacity:0.977" fill="#feb500" d="M 225.5,-0.5 C 241.5,-0.5 257.5,-0.5 273.5,-0.5C 314.833,4.05419 352.833,17.7209 387.5,40.5C 295.5,41.8333 203.5,41.8333 111.5,40.5C 146.167,17.7209 184.167,4.05419 225.5,-0.5 Z"/></g>
<g><path style="opacity:0.998" fill="#8c2028" d="M 111.5,40.5 C 203.5,41.8333 295.5,41.8333 387.5,40.5C 415.456,58.7893 438.789,81.7893 457.5,109.5C 448.24,112.949 441.24,118.949 436.5,127.5C 437.991,121.894 438.824,116.228 439,110.5C 436.167,113.333 433.333,116.167 430.5,119C 427.298,120.483 423.964,120.817 420.5,120C 415.052,113.416 408.219,110.583 400,111.5C 399.647,114.539 398.48,117.205 396.5,119.5C 391.952,114.388 386.285,111.055 379.5,109.5C 377.617,109.876 376.117,110.876 375,112.5C 374.503,115.146 374.336,117.813 374.5,120.5C 370.897,118.699 367.231,116.865 363.5,115C 356.797,114.287 350.13,114.454 343.5,115.5C 343.724,117.787 344.391,119.953 345.5,122C 340.292,129.751 332.959,132.751 323.5,131C 318.324,132.859 312.991,134.026 307.5,134.5C 307.99,126.657 304.323,122.657 296.5,122.5C 288.731,122.69 285.064,126.69 285.5,134.5C 286.061,140.074 287.561,145.407 290,150.5C 296.167,157.333 302.333,164.167 308.5,171C 311.329,172.247 313.995,173.747 316.5,175.5C 317.298,173.922 317.798,172.256 318,170.5C 322.338,175.149 325.338,174.482 327,168.5C 329.783,172.951 332.95,177.117 336.5,181C 332.789,181.439 329.122,181.106 325.5,180C 314.297,176.599 303.297,172.599 292.5,168C 287.504,167.336 285.67,169.502 287,174.5C 288.308,176.641 289.808,178.641 291.5,180.5C 288.054,187.165 285.388,194.165 283.5,201.5C 284,201.833 284.5,202.167 285,202.5C 290.137,201.41 295.304,200.91 300.5,201C 299.292,203.25 297.959,205.417 296.5,207.5C 301.305,207.433 306.139,206.433 311,204.5C 312.96,205.292 314.46,206.625 315.5,208.5C 318.622,210.117 321.122,209.45 323,206.5C 324.123,209.249 325.623,211.749 327.5,214C 329.473,214.495 331.473,214.662 333.5,214.5C 333.943,211.376 335.61,209.043 338.5,207.5C 340.384,208.693 340.884,210.359 340,212.5C 332.589,218.122 325.089,223.622 317.5,229C 300.489,244.356 292.656,263.523 294,286.5C 284.833,277.333 275.667,268.167 266.5,259C 277.156,248.395 275.49,240.561 261.5,235.5C 260.127,194.734 261.627,154.067 266,113.5C 266.795,103.686 269.295,94.3526 273.5,85.5C 273.135,84.0981 272.301,83.0981 271,82.5C 254.813,91.7061 244.146,105.373 239,123.5C 235.609,136.959 233.609,150.626 233,164.5C 232.5,188.498 232.333,212.498 232.5,236.5C 218.746,237.672 215.246,244.338 222,256.5C 225.062,259.115 228.562,260.781 232.5,261.5C 232.662,263.527 232.495,265.527 232,267.5C 228.808,271.628 229.308,275.462 233.5,279C 232.409,281.064 232.242,283.231 233,285.5C 233.821,289.776 235.321,293.776 237.5,297.5C 237.167,298.167 236.833,298.833 236.5,299.5C 231.576,296.37 228.242,297.703 226.5,303.5C 228.282,308.558 231.949,310.891 237.5,310.5C 235.628,312.535 233.961,314.702 232.5,317C 234.811,320.122 236.144,323.622 236.5,327.5C 236.596,329.926 235.93,332.093 234.5,334C 232.301,333.255 229.967,332.421 227.5,331.5C 223.368,333.096 221.868,336.096 223,340.5C 225.708,344.104 229.208,346.604 233.5,348C 230.833,350 228.167,352 225.5,354C 229.5,355 233.5,356 237.5,357C 239.154,361.154 241.654,364.654 245,367.5C 248.19,364.455 250.357,360.788 251.5,356.5C 255.19,355.806 258.857,354.972 262.5,354C 260.291,351.622 257.958,349.455 255.5,347.5C 259.025,346.488 262.192,344.821 265,342.5C 268.183,336.489 266.516,332.823 260,331.5C 257.849,331.643 256.182,332.643 255,334.5C 252.523,331.276 251.857,327.61 253,323.5C 254.555,321.557 255.722,319.39 256.5,317C 254.848,314.677 253.181,312.344 251.5,310C 255.432,311.212 258.932,310.379 262,307.5C 263.176,303.74 262.01,300.907 258.5,299C 259.275,297.77 260.275,297.437 261.5,298C 262.667,299.167 263.833,300.333 265,301.5C 265.108,308.911 265.775,316.245 267,323.5C 270.51,326.586 272.677,325.919 273.5,321.5C 276.226,321.264 278.559,322.097 280.5,324C 285.241,329.412 290.574,334.079 296.5,338C 307.384,338.801 315.884,334.634 322,325.5C 328.376,330.606 335.543,333.939 343.5,335.5C 346.094,344.119 348.594,352.786 351,361.5C 353.037,370.591 349.871,377.091 341.5,381C 333.729,381.066 326.062,381.733 318.5,383C 312.513,387.808 309.347,393.975 309,401.5C 309.804,402.804 310.971,403.471 312.5,403.5C 315.051,402.641 317.551,401.641 320,400.5C 325.5,404.258 331.166,404.258 337,400.5C 342.97,404.423 348.97,404.423 355,400.5C 359.541,403.088 364.374,403.921 369.5,403C 372.734,401.056 374.9,398.222 376,394.5C 376.023,388.785 376.189,383.118 376.5,377.5C 386.047,375.767 393.214,370.767 398,362.5C 398.781,361.056 398.614,359.723 397.5,358.5C 393.981,357.068 390.314,356.234 386.5,356C 383.936,354.938 382.269,353.104 381.5,350.5C 384.329,342.676 388.329,335.509 393.5,329C 411.05,322.559 428.383,315.559 445.5,308C 452.986,305.669 460.653,304.502 468.5,304.5C 467.965,310.521 469.132,316.187 472,321.5C 475.663,327.321 479.497,332.988 483.5,338.5C 464.459,388.874 432.459,428.874 387.5,458.5C 295.5,457.167 203.5,457.167 111.5,458.5C 109.77,457.974 108.436,456.974 107.5,455.5C 107.5,318.167 107.5,180.833 107.5,43.5C 108.436,42.0256 109.77,41.0256 111.5,40.5 Z"/></g>
<g><path style="opacity:0.995" fill="#ffb700" d="M 107.5,43.5 C 107.5,180.833 107.5,318.167 107.5,455.5C 92.3573,445.701 78.6907,434.034 66.5,420.5C 66.8328,306.665 66.4995,192.999 65.5,79.5C 78.0027,65.6572 92.0027,53.6572 107.5,43.5 Z"/></g>
<g><path style="opacity:1" fill="#130802" d="M 133.5,45.5 C 145.07,43.6987 153.237,48.0321 158,58.5C 158.947,72.4082 161.28,86.0749 165,99.5C 165.667,103.5 165.667,107.5 165,111.5C 161.238,104.742 156.405,98.9087 150.5,94C 142.037,90.7168 133.37,88.0501 124.5,86C 111.876,80.0047 109.042,70.8381 116,58.5C 116.498,55.5184 116.665,52.5184 116.5,49.5C 122.842,50.4267 128.509,49.0934 133.5,45.5 Z"/></g>
<g><path style="opacity:1" fill="#f8b300" d="M 132.5,47.5 C 144.845,45.0841 153.012,49.7508 157,61.5C 158.315,76.7258 160.648,91.7258 164,106.5C 161.252,101.748 157.752,97.5813 153.5,94C 144.759,90.2312 135.759,87.2312 126.5,85C 113.056,79.6667 110.223,70.8333 118,58.5C 118.497,55.854 118.664,53.1873 118.5,50.5C 121.85,50.665 125.183,50.4983 128.5,50C 130.066,49.3918 131.4,48.5585 132.5,47.5 Z"/></g>
<g><path style="opacity:0.985" fill="#ff5b00" d="M 65.5,79.5 C 66.4995,192.999 66.8328,306.665 66.5,420.5C 28.2352,378.957 5.9019,329.957 -0.5,273.5C -0.5,257.5 -0.5,241.5 -0.5,225.5C 5.81517,169.551 27.8152,120.884 65.5,79.5 Z"/></g>
<g><path style="opacity:0.983" fill="#f8b300" d="M 458.5,111.5 C 463.255,118.004 467.255,125.004 470.5,132.5C 465.648,125.528 459.648,124.695 452.5,130C 446.214,138.534 447.548,145.7 456.5,151.5C 461.165,144.27 467.831,141.27 476.5,142.5C 476.893,144.284 477.559,145.95 478.5,147.5C 468.502,151.367 466.835,157.7 473.5,166.5C 476.52,163.811 479.52,161.144 482.5,158.5C 485.872,166.275 488.872,174.275 491.5,182.5C 488.813,182.664 486.146,182.497 483.5,182C 475.328,179.498 467.161,176.998 459,174.5C 456.855,174.396 455.021,175.063 453.5,176.5C 451.883,179.28 450.716,182.28 450,185.5C 442.409,178.367 441.576,170.534 447.5,162C 429.931,140.54 433.598,123.706 458.5,111.5 Z"/></g>
<g><path style="opacity:0.999" fill="#fcb500" d="M 405.5,169.5 C 407.168,171.34 408.668,173.34 410,175.5C 410.333,175.167 410.667,174.833 411,174.5C 412.215,169.949 412.881,165.282 413,160.5C 414.667,165.5 416.333,170.5 418,175.5C 420.703,178.538 423.703,181.205 427,183.5C 427.481,189.277 428.981,194.777 431.5,200C 431.167,200.5 430.833,201 430.5,201.5C 427.394,199.048 424.061,197.048 420.5,195.5C 423.85,198.311 425.35,201.978 425,206.5C 426.247,209.329 427.747,211.995 429.5,214.5C 427.604,215.466 425.604,215.799 423.5,215.5C 420.706,214.079 417.706,213.079 414.5,212.5C 416.849,214.341 419.515,215.674 422.5,216.5C 426.532,216.186 429.865,217.519 432.5,220.5C 434.237,222.55 436.237,224.383 438.5,226C 433.537,227.747 428.537,227.913 423.5,226.5C 423.5,230.5 423.5,234.5 423.5,238.5C 417.672,237.947 412.172,236.28 407,233.5C 403.882,235.615 401.048,238.115 398.5,241C 397.207,241.49 395.873,241.657 394.5,241.5C 394.128,237.703 392.794,234.37 390.5,231.5C 391.825,235.81 393.158,240.143 394.5,244.5C 399.096,242.067 403.263,239.067 407,235.5C 412.992,237.887 419.158,239.554 425.5,240.5C 425.5,236.5 425.5,232.5 425.5,228.5C 430.599,228.825 435.599,228.325 440.5,227C 440.833,226.667 441.167,226.333 441.5,226C 438.833,224 436.167,222 433.5,220C 434.793,219.51 436.127,219.343 437.5,219.5C 457.962,221.404 478.296,220.738 498.5,217.5C 498.198,220.059 498.532,222.393 499.5,224.5C 499.5,241.167 499.5,257.833 499.5,274.5C 498.243,284.965 496.243,295.298 493.5,305.5C 490.211,304.626 486.877,303.959 483.5,303.5C 479.366,302.515 475.032,302.182 470.5,302.5C 455.099,302.748 440.433,306.248 426.5,313C 416.246,318.084 405.746,322.584 395,326.5C 393.97,326.164 393.47,325.497 393.5,324.5C 389.863,329.658 386.363,334.991 383,340.5C 379.97,344.387 378.97,348.72 380,353.5C 381.167,354.667 382.333,355.833 383.5,357C 387.821,358.166 392.155,359.333 396.5,360.5C 394.062,364.442 391.062,367.942 387.5,371C 382.903,372.642 378.403,374.476 374,376.5C 373.868,382.507 373.868,388.507 374,394.5C 369.362,402.859 363.195,403.859 355.5,397.5C 349.278,402.8 343.111,402.8 337,397.5C 331.41,402.712 325.91,402.712 320.5,397.5C 317.852,399.658 314.852,400.992 311.5,401.5C 311.606,394.787 314.273,389.287 319.5,385C 327.062,383.733 334.729,383.066 342.5,383C 347.333,380.833 350.833,377.333 353,372.5C 353.646,365.72 352.979,359.053 351,352.5C 348.226,344.01 345.393,335.677 342.5,327.5C 342.261,329.467 342.594,331.301 343.5,333C 338.524,332.527 333.858,330.86 329.5,328C 314.638,319.14 304.138,306.64 298,290.5C 294.099,267.537 300.599,248.037 317.5,232C 323.313,226.925 329.646,222.592 336.5,219C 338.333,217.167 340.167,215.333 342,213.5C 343.825,208.014 341.992,205.514 336.5,206C 333.704,207.419 331.704,209.585 330.5,212.5C 327.261,209.017 324.261,205.35 321.5,201.5C 320.988,203.851 319.988,205.851 318.5,207.5C 316.119,205.615 313.953,203.615 312,201.5C 308.643,203.58 305.143,204.247 301.5,203.5C 302.747,201.677 303.414,199.677 303.5,197.5C 298.196,198.384 292.863,199.051 287.5,199.5C 288.016,193.118 290.016,187.285 293.5,182C 294.448,181.517 295.448,181.351 296.5,181.5C 300.14,183.662 304.14,185.162 308.5,186C 314.485,186.799 320.485,187.465 326.5,188C 326.833,188.333 327.167,188.667 327.5,189C 326.128,190.242 325.128,191.742 324.5,193.5C 331.129,194.775 337.795,195.275 344.5,195C 345.345,190.501 344.012,186.668 340.5,183.5C 335.469,177.128 330.803,170.461 326.5,163.5C 324.829,165.51 324.162,167.843 324.5,170.5C 320.464,169.98 317.297,167.98 315,164.5C 314.667,166.833 314.333,169.167 314,171.5C 305.721,164.554 298.054,156.888 291,148.5C 289.513,143.88 288.346,139.213 287.5,134.5C 288.477,125.004 293.477,122.171 302.5,126C 305.231,128.897 306.231,132.397 305.5,136.5C 316.189,135.102 326.855,133.602 337.5,132C 345.079,129.299 348.079,124.132 346.5,116.5C 352.176,116.334 357.843,116.501 363.5,117C 366.319,119.491 369.486,121.324 373,122.5C 374.107,122.415 375.107,122.081 376,121.5C 376.333,118.833 376.667,116.167 377,113.5C 380.146,112.451 383.312,112.617 386.5,114C 390.011,116.847 393.511,119.68 397,122.5C 399.746,119.775 401.246,116.442 401.5,112.5C 409.264,113.382 415.597,116.882 420.5,123C 426.951,124.028 432.118,121.861 436,116.5C 435.735,125.03 432.235,132.03 425.5,137.5C 427.532,140.368 429.365,143.368 431,146.5C 431.667,157.5 431.667,168.5 431,179.5C 430.781,180.938 430.281,182.271 429.5,183.5C 426.241,180.952 423.074,178.286 420,175.5C 418.168,171.679 416.834,167.679 416,163.5C 414.77,160.268 412.77,157.601 410,155.5C 411.204,160.363 411.537,165.363 411,170.5C 410.586,170.957 410.086,171.291 409.5,171.5C 408.378,170.37 407.044,169.703 405.5,169.5 Z"/></g>
<g><path style="opacity:0.98" fill="#8a1f28" d="M 472.5,134.5 C 473.5,136.5 474.5,138.5 475.5,140.5C 467.627,139.605 461.294,142.272 456.5,148.5C 448.192,141.872 448.525,135.705 457.5,130C 460.167,129.333 462.833,129.333 465.5,130C 466.548,133.456 468.881,134.956 472.5,134.5 Z"/></g>
<g><path style="opacity:1" fill="#140a02" d="M 470.5,132.5 C 471.5,132.833 472.167,133.5 472.5,134.5C 468.881,134.956 466.548,133.456 465.5,130C 462.833,129.333 460.167,129.333 457.5,130C 448.525,135.705 448.192,141.872 456.5,148.5C 461.294,142.272 467.627,139.605 475.5,140.5C 475.833,141.167 476.167,141.833 476.5,142.5C 467.831,141.27 461.165,144.27 456.5,151.5C 447.548,145.7 446.214,138.534 452.5,130C 459.648,124.695 465.648,125.528 470.5,132.5 Z"/></g>
<g><path style="opacity:0.934" fill="#881f27" d="M 479.5,149.5 C 480.305,151.915 481.305,154.249 482.5,156.5C 479.25,158.243 476.416,160.577 474,163.5C 469.466,156.338 471.3,151.672 479.5,149.5 Z"/></g>
<g><path style="opacity:0.992" fill="#8c1f28" d="M 436.5,127.5 C 434.624,133.006 434.124,138.672 435,144.5C 437.405,150.98 440.572,156.98 444.5,162.5C 439.541,171.714 440.875,179.88 448.5,187C 449.793,187.49 451.127,187.657 452.5,187.5C 452.933,184.834 453.433,182.168 454,179.5C 455.182,177.643 456.849,176.643 459,176.5C 467.124,179.146 475.291,181.646 483.5,184C 486.146,184.497 488.813,184.664 491.5,184.5C 494.521,194.607 496.521,204.94 497.5,215.5C 476.572,217.554 455.572,218.054 434.5,217C 429.513,213.37 427.346,208.537 428,202.5C 431.111,204.272 432.944,203.439 433.5,200C 432.596,196.456 431.596,192.956 430.5,189.5C 431.079,187.385 431.912,185.385 433,183.5C 433.542,175.169 434.042,166.836 434.5,158.5C 435.208,150.826 433.208,143.993 428.5,138C 431.414,134.6 434.08,131.1 436.5,127.5 Z"/></g>
<g><path style="opacity:1" fill="#160d02" d="M 478.5,147.5 C 478.833,148.167 479.167,148.833 479.5,149.5C 471.3,151.672 469.466,156.338 474,163.5C 476.416,160.577 479.25,158.243 482.5,156.5C 482.5,157.167 482.5,157.833 482.5,158.5C 479.52,161.144 476.52,163.811 473.5,166.5C 466.835,157.7 468.502,151.367 478.5,147.5 Z"/></g>
<g><path style="opacity:1" fill="#170c03" d="M 457.5,109.5 C 457.833,110.167 458.167,110.833 458.5,111.5C 433.598,123.706 429.931,140.54 447.5,162C 441.576,170.534 442.409,178.367 450,185.5C 450.716,182.28 451.883,179.28 453.5,176.5C 455.021,175.063 456.855,174.396 459,174.5C 467.161,176.998 475.328,179.498 483.5,182C 486.146,182.497 488.813,182.664 491.5,182.5C 491.5,183.167 491.5,183.833 491.5,184.5C 488.813,184.664 486.146,184.497 483.5,184C 475.291,181.646 467.124,179.146 459,176.5C 456.849,176.643 455.182,177.643 454,179.5C 453.433,182.168 452.933,184.834 452.5,187.5C 451.127,187.657 449.793,187.49 448.5,187C 440.875,179.88 439.541,171.714 444.5,162.5C 440.572,156.98 437.405,150.98 435,144.5C 434.124,138.672 434.624,133.006 436.5,127.5C 441.24,118.949 448.24,112.949 457.5,109.5 Z"/></g>
<g><path style="opacity:1" fill="#291e05" d="M 391.5,216.5 C 392.847,217.171 394.014,217.171 395,216.5C 396.908,210.051 395.075,205.051 389.5,201.5C 388.305,203.297 386.638,204.297 384.5,204.5C 383.98,200.464 381.98,197.297 378.5,195C 377.365,194.251 376.365,194.417 375.5,195.5C 372.554,201.869 369.554,201.869 366.5,195.5C 368.394,196.048 370.06,197.048 371.5,198.5C 373.849,196.796 374.849,194.463 374.5,191.5C 379.699,193.528 383.533,197.195 386,202.5C 386.923,201.241 387.757,199.908 388.5,198.5C 392.593,202.929 397.259,206.596 402.5,209.5C 403.919,207.664 405.086,205.664 406,203.5C 406.48,212.426 403.48,213.759 397,207.5C 396.667,210.833 396.333,214.167 396,217.5C 394.337,222.436 392.837,222.103 391.5,216.5 Z"/></g>
<g><path style="opacity:1" fill="#271c03" d="M 390.5,231.5 C 389.136,229.78 388.136,227.78 387.5,225.5C 386.575,224.438 385.575,224.438 384.5,225.5C 384.525,222.821 385.858,221.488 388.5,221.5C 388.959,224.877 389.626,228.211 390.5,231.5 Z"/></g>
<g><path style="opacity:1" fill="#150e00" d="M 340.5,232.5 C 341.937,231.275 343.604,230.275 345.5,229.5C 346.966,232.021 347.466,234.688 347,237.5C 345.991,235.975 345.491,234.308 345.5,232.5C 343.833,232.5 342.167,232.5 340.5,232.5 Z"/></g>
<g><path style="opacity:1" fill="#281d04" d="M 384.5,225.5 C 384.53,230.913 382.696,235.579 379,239.5C 377.311,236.109 375.144,233.109 372.5,230.5C 371.642,232.901 370.309,234.901 368.5,236.5C 369.517,232.947 371.017,229.614 373,226.5C 374.337,230.498 376.67,233.832 380,236.5C 381.361,232.657 382.861,228.991 384.5,225.5 Z"/></g>
<g><path style="opacity:1" fill="#291e04" d="M 340.5,232.5 C 338.205,234.385 335.538,234.885 332.5,234C 335.89,229.502 338.723,224.668 341,219.5C 340.033,223.899 338.533,228.232 336.5,232.5C 337.557,232.906 338.891,232.906 340.5,232.5 Z"/></g>
<g><path style="opacity:1" fill="#2a1f04" d="M 368.5,236.5 C 363.958,244.911 361.292,244.244 360.5,234.5C 358.692,238.649 355.692,241.315 351.5,242.5C 356.484,239.219 359.484,234.553 360.5,228.5C 362.095,232.117 363.595,235.783 365,239.5C 366.039,238.29 367.206,237.29 368.5,236.5 Z"/></g>
<g><path style="opacity:1" fill="#291e04" d="M 437.5,219.5 C 436.127,219.343 434.793,219.51 433.5,220C 436.167,222 438.833,224 441.5,226C 441.167,226.333 440.833,226.667 440.5,227C 435.599,228.325 430.599,228.825 425.5,228.5C 425.5,232.5 425.5,236.5 425.5,240.5C 419.158,239.554 412.992,237.887 407,235.5C 403.263,239.067 399.096,242.067 394.5,244.5C 393.158,240.143 391.825,235.81 390.5,231.5C 392.794,234.37 394.128,237.703 394.5,241.5C 395.873,241.657 397.207,241.49 398.5,241C 401.048,238.115 403.882,235.615 407,233.5C 412.172,236.28 417.672,237.947 423.5,238.5C 423.5,234.5 423.5,230.5 423.5,226.5C 428.537,227.913 433.537,227.747 438.5,226C 436.237,224.383 434.237,222.55 432.5,220.5C 432.791,219.351 433.624,218.684 435,218.5C 436.07,218.528 436.903,218.861 437.5,219.5 Z"/></g>
<g><path style="opacity:1" fill="#1c1402" d="M 351.5,242.5 C 350.855,243.812 349.855,244.812 348.5,245.5C 347.353,243.235 347.186,240.902 348,238.5C 348.498,240.544 349.665,241.878 351.5,242.5 Z"/></g>
<g><path style="opacity:1" fill="#281d04" d="M 398.5,314.5 C 402.889,303.609 405.389,292.276 406,280.5C 407.57,283.633 407.903,286.967 407,290.5C 405.227,298.993 402.394,306.993 398.5,314.5 Z"/></g>
<g><path style="opacity:0.954" fill="#fcb600" d="M 482.5,304.5 C 486.309,305.035 489.976,306.035 493.5,307.5C 491.27,317.187 488.27,326.52 484.5,335.5C 478.067,328.633 473.733,320.633 471.5,311.5C 471.5,308.833 471.5,306.167 471.5,303.5C 475.215,303.423 478.881,303.756 482.5,304.5 Z"/></g>
<g><path style="opacity:1" fill="#2e2203" d="M 482.5,304.5 C 482.5,303.833 482.833,303.5 483.5,303.5C 486.877,303.959 490.211,304.626 493.5,305.5C 493.5,306.167 493.5,306.833 493.5,307.5C 489.976,306.035 486.309,305.035 482.5,304.5 Z"/></g>
<g><path style="opacity:1" fill="#876201" d="M 470.5,302.5 C 475.032,302.182 479.366,302.515 483.5,303.5C 482.833,303.5 482.5,303.833 482.5,304.5C 478.881,303.756 475.215,303.423 471.5,303.5C 471.5,306.167 471.5,308.833 471.5,311.5C 470.523,308.713 470.19,305.713 470.5,302.5 Z"/></g>
<g><path style="opacity:1" fill="#332504" d="M 342.5,327.5 C 340.96,322.935 340.293,318.102 340.5,313C 340.667,309.5 340.833,306 341,302.5C 341.216,300.616 341.883,298.949 343,297.5C 342.388,302.258 341.888,307.091 341.5,312C 342.018,317.158 342.351,322.325 342.5,327.5 Z"/></g>
<g><path style="opacity:1" fill="#1b1003" d="M 436.5,127.5 C 434.08,131.1 431.414,134.6 428.5,138C 433.208,143.993 435.208,150.826 434.5,158.5C 434.042,166.836 433.542,175.169 433,183.5C 431.912,185.385 431.079,187.385 430.5,189.5C 431.596,192.956 432.596,196.456 433.5,200C 432.944,203.439 431.111,204.272 428,202.5C 427.346,208.537 429.513,213.37 434.5,217C 455.572,218.054 476.572,217.554 497.5,215.5C 498.338,215.842 498.672,216.508 498.5,217.5C 478.296,220.738 457.962,221.404 437.5,219.5C 436.903,218.861 436.07,218.528 435,218.5C 433.624,218.684 432.791,219.351 432.5,220.5C 429.865,217.519 426.532,216.186 422.5,216.5C 422.5,215.833 422.833,215.5 423.5,215.5C 425.604,215.799 427.604,215.466 429.5,214.5C 427.747,211.995 426.247,209.329 425,206.5C 425.35,201.978 423.85,198.311 420.5,195.5C 424.061,197.048 427.394,199.048 430.5,201.5C 430.833,201 431.167,200.5 431.5,200C 428.981,194.777 427.481,189.277 427,183.5C 423.703,181.205 420.703,178.538 418,175.5C 416.333,170.5 414.667,165.5 413,160.5C 412.881,165.282 412.215,169.949 411,174.5C 410.667,174.833 410.333,175.167 410,175.5C 408.668,173.34 407.168,171.34 405.5,169.5C 407.044,169.703 408.378,170.37 409.5,171.5C 410.086,171.291 410.586,170.957 411,170.5C 411.537,165.363 411.204,160.363 410,155.5C 412.77,157.601 414.77,160.268 416,163.5C 416.834,167.679 418.168,171.679 420,175.5C 423.074,178.286 426.241,180.952 429.5,183.5C 430.281,182.271 430.781,180.938 431,179.5C 431.667,168.5 431.667,157.5 431,146.5C 429.365,143.368 427.532,140.368 425.5,137.5C 432.235,132.03 435.735,125.03 436,116.5C 432.118,121.861 426.951,124.028 420.5,123C 415.597,116.882 409.264,113.382 401.5,112.5C 401.246,116.442 399.746,119.775 397,122.5C 393.511,119.68 390.011,116.847 386.5,114C 383.312,112.617 380.146,112.451 377,113.5C 376.667,116.167 376.333,118.833 376,121.5C 375.107,122.081 374.107,122.415 373,122.5C 369.486,121.324 366.319,119.491 363.5,117C 357.843,116.501 352.176,116.334 346.5,116.5C 348.079,124.132 345.079,129.299 337.5,132C 326.855,133.602 316.189,135.102 305.5,136.5C 306.231,132.397 305.231,128.897 302.5,126C 293.477,122.171 288.477,125.004 287.5,134.5C 288.346,139.213 289.513,143.88 291,148.5C 298.054,156.888 305.721,164.554 314,171.5C 314.333,169.167 314.667,166.833 315,164.5C 317.297,167.98 320.464,169.98 324.5,170.5C 324.162,167.843 324.829,165.51 326.5,163.5C 330.803,170.461 335.469,177.128 340.5,183.5C 340.167,183.5 339.833,183.5 339.5,183.5C 331.978,183.402 324.644,182.235 317.5,180C 308.611,176.638 299.777,173.138 291,169.5C 288.812,170.059 288.146,171.393 289,173.5C 290.715,176.717 293.215,179.05 296.5,180.5C 296.5,180.833 296.5,181.167 296.5,181.5C 295.448,181.351 294.448,181.517 293.5,182C 290.016,187.285 288.016,193.118 287.5,199.5C 292.863,199.051 298.196,198.384 303.5,197.5C 303.414,199.677 302.747,201.677 301.5,203.5C 305.143,204.247 308.643,203.58 312,201.5C 313.953,203.615 316.119,205.615 318.5,207.5C 319.988,205.851 320.988,203.851 321.5,201.5C 324.261,205.35 327.261,209.017 330.5,212.5C 331.704,209.585 333.704,207.419 336.5,206C 341.992,205.514 343.825,208.014 342,213.5C 340.167,215.333 338.333,217.167 336.5,219C 329.646,222.592 323.313,226.925 317.5,232C 300.599,248.037 294.099,267.537 298,290.5C 304.138,306.64 314.638,319.14 329.5,328C 333.858,330.86 338.524,332.527 343.5,333C 342.594,331.301 342.261,329.467 342.5,327.5C 345.393,335.677 348.226,344.01 351,352.5C 352.979,359.053 353.646,365.72 353,372.5C 350.833,377.333 347.333,380.833 342.5,383C 334.729,383.066 327.062,383.733 319.5,385C 314.273,389.287 311.606,394.787 311.5,401.5C 314.852,400.992 317.852,399.658 320.5,397.5C 325.91,402.712 331.41,402.712 337,397.5C 343.111,402.8 349.278,402.8 355.5,397.5C 363.195,403.859 369.362,402.859 374,394.5C 373.868,388.507 373.868,382.507 374,376.5C 378.403,374.476 382.903,372.642 387.5,371C 391.062,367.942 394.062,364.442 396.5,360.5C 392.155,359.333 387.821,358.166 383.5,357C 382.333,355.833 381.167,354.667 380,353.5C 378.97,348.72 379.97,344.387 383,340.5C 386.363,334.991 389.863,329.658 393.5,324.5C 393.47,325.497 393.97,326.164 395,326.5C 405.746,322.584 416.246,318.084 426.5,313C 440.433,306.248 455.099,302.748 470.5,302.5C 470.19,305.713 470.523,308.713 471.5,311.5C 473.733,320.633 478.067,328.633 484.5,335.5C 484.737,336.791 484.404,337.791 483.5,338.5C 479.497,332.988 475.663,327.321 472,321.5C 469.132,316.187 467.965,310.521 468.5,304.5C 460.653,304.502 452.986,305.669 445.5,308C 428.383,315.559 411.05,322.559 393.5,329C 388.329,335.509 384.329,342.676 381.5,350.5C 382.269,353.104 383.936,354.938 386.5,356C 390.314,356.234 393.981,357.068 397.5,358.5C 398.614,359.723 398.781,361.056 398,362.5C 393.214,370.767 386.047,375.767 376.5,377.5C 376.189,383.118 376.023,388.785 376,394.5C 374.9,398.222 372.734,401.056 369.5,403C 364.374,403.921 359.541,403.088 355,400.5C 348.97,404.423 342.97,404.423 337,400.5C 331.166,404.258 325.5,404.258 320,400.5C 317.551,401.641 315.051,402.641 312.5,403.5C 310.971,403.471 309.804,402.804 309,401.5C 309.347,393.975 312.513,387.808 318.5,383C 326.062,381.733 333.729,381.066 341.5,381C 349.871,377.091 353.037,370.591 351,361.5C 348.594,352.786 346.094,344.119 343.5,335.5C 335.543,333.939 328.376,330.606 322,325.5C 315.884,334.634 307.384,338.801 296.5,338C 290.574,334.079 285.241,329.412 280.5,324C 278.559,322.097 276.226,321.264 273.5,321.5C 272.677,325.919 270.51,326.586 267,323.5C 265.775,316.245 265.108,308.911 265,301.5C 263.833,300.333 262.667,299.167 261.5,298C 260.275,297.437 259.275,297.77 258.5,299C 262.01,300.907 263.176,303.74 262,307.5C 258.932,310.379 255.432,311.212 251.5,310C 253.181,312.344 254.848,314.677 256.5,317C 255.722,319.39 254.555,321.557 253,323.5C 251.857,327.61 252.523,331.276 255,334.5C 256.182,332.643 257.849,331.643 260,331.5C 266.516,332.823 268.183,336.489 265,342.5C 262.192,344.821 259.025,346.488 255.5,347.5C 257.958,349.455 260.291,351.622 262.5,354C 258.857,354.972 255.19,355.806 251.5,356.5C 250.357,360.788 248.19,364.455 245,367.5C 241.654,364.654 239.154,361.154 237.5,357C 233.5,356 229.5,355 225.5,354C 228.167,352 230.833,350 233.5,348C 229.208,346.604 225.708,344.104 223,340.5C 221.868,336.096 223.368,333.096 227.5,331.5C 229.967,332.421 232.301,333.255 234.5,334C 235.93,332.093 236.596,329.926 236.5,327.5C 236.144,323.622 234.811,320.122 232.5,317C 233.961,314.702 235.628,312.535 237.5,310.5C 231.949,310.891 228.282,308.558 226.5,303.5C 228.242,297.703 231.576,296.37 236.5,299.5C 236.833,298.833 237.167,298.167 237.5,297.5C 235.321,293.776 233.821,289.776 233,285.5C 232.242,283.231 232.409,281.064 233.5,279C 229.308,275.462 228.808,271.628 232,267.5C 232.495,265.527 232.662,263.527 232.5,261.5C 228.562,260.781 225.062,259.115 222,256.5C 215.246,244.338 218.746,237.672 232.5,236.5C 232.333,212.498 232.5,188.498 233,164.5C 233.609,150.626 235.609,136.959 239,123.5C 244.146,105.373 254.813,91.7061 271,82.5C 272.301,83.0981 273.135,84.0981 273.5,85.5C 269.295,94.3526 266.795,103.686 266,113.5C 261.627,154.067 260.127,194.734 261.5,235.5C 275.49,240.561 277.156,248.395 266.5,259C 275.667,268.167 284.833,277.333 294,286.5C 292.656,263.523 300.489,244.356 317.5,229C 325.089,223.622 332.589,218.122 340,212.5C 340.884,210.359 340.384,208.693 338.5,207.5C 335.61,209.043 333.943,211.376 333.5,214.5C 331.473,214.662 329.473,214.495 327.5,214C 325.623,211.749 324.123,209.249 323,206.5C 321.122,209.45 318.622,210.117 315.5,208.5C 314.46,206.625 312.96,205.292 311,204.5C 306.139,206.433 301.305,207.433 296.5,207.5C 297.959,205.417 299.292,203.25 300.5,201C 295.304,200.91 290.137,201.41 285,202.5C 284.5,202.167 284,201.833 283.5,201.5C 285.388,194.165 288.054,187.165 291.5,180.5C 289.808,178.641 288.308,176.641 287,174.5C 285.67,169.502 287.504,167.336 292.5,168C 303.297,172.599 314.297,176.599 325.5,180C 329.122,181.106 332.789,181.439 336.5,181C 332.95,177.117 329.783,172.951 327,168.5C 325.338,174.482 322.338,175.149 318,170.5C 317.798,172.256 317.298,173.922 316.5,175.5C 313.995,173.747 311.329,172.247 308.5,171C 302.333,164.167 296.167,157.333 290,150.5C 287.561,145.407 286.061,140.074 285.5,134.5C 285.064,126.69 288.731,122.69 296.5,122.5C 304.323,122.657 307.99,126.657 307.5,134.5C 312.991,134.026 318.324,132.859 323.5,131C 332.959,132.751 340.292,129.751 345.5,122C 344.391,119.953 343.724,117.787 343.5,115.5C 350.13,114.454 356.797,114.287 363.5,115C 367.231,116.865 370.897,118.699 374.5,120.5C 374.336,117.813 374.503,115.146 375,112.5C 376.117,110.876 377.617,109.876 379.5,109.5C 386.285,111.055 391.952,114.388 396.5,119.5C 398.48,117.205 399.647,114.539 400,111.5C 408.219,110.583 415.052,113.416 420.5,120C 423.964,120.817 427.298,120.483 430.5,119C 433.333,116.167 436.167,113.333 439,110.5C 438.824,116.228 437.991,121.894 436.5,127.5 Z"/></g>
<g><path style="opacity:1" fill="#1f1602" d="M 398.5,314.5 C 397.873,318.42 396.207,321.753 393.5,324.5C 394.659,320.849 396.326,317.515 398.5,314.5 Z"/></g>
<g><path style="opacity:1" fill="#f6b200" d="M 243.5,296.5 C 245.859,297.337 247.859,298.837 249.5,301C 252.5,301.333 255.5,301.667 258.5,302C 260.527,303.396 260.86,305.062 259.5,307C 255.797,307.579 252.131,307.412 248.5,306.5C 249.363,310.558 251.03,314.224 253.5,317.5C 251.622,320.593 250.289,323.927 249.5,327.5C 249.97,331.777 251.97,335.111 255.5,337.5C 256.762,335.619 258.429,334.286 260.5,333.5C 262.833,333.833 264.167,335.167 264.5,337.5C 262.22,342.646 258.22,345.313 252.5,345.5C 253.143,348.988 255.143,351.488 258.5,353C 255.377,353.206 252.377,353.873 249.5,355C 246.167,366.333 242.833,366.333 239.5,355C 236.638,354.73 233.972,353.896 231.5,352.5C 234.39,350.957 236.057,348.624 236.5,345.5C 231.047,345.276 227.047,342.776 224.5,338C 224.785,334.699 226.452,333.365 229.5,334C 233.002,338.696 235.836,338.196 238,332.5C 239.131,327.105 238.298,322.105 235.5,317.5C 236.43,315.394 237.596,313.394 239,311.5C 239.49,310.207 239.657,308.873 239.5,307.5C 236.813,307.664 234.146,307.497 231.5,307C 228.591,304.161 228.925,301.994 232.5,300.5C 234.782,301.223 237.116,301.557 239.5,301.5C 239.5,299.833 239.5,298.167 239.5,296.5C 240.833,296.5 242.167,296.5 243.5,296.5 Z"/></g>
<g><path style="opacity:1" fill="#f2b300" d="M 260.5,289.5 C 263.998,289.565 264.498,290.899 262,293.5C 260.414,294.376 258.914,295.376 257.5,296.5C 256.417,295.635 256.251,294.635 257,293.5C 258.376,292.295 259.542,290.962 260.5,289.5 Z"/></g>
<g><path style="opacity:1" fill="#f2b100" d="M 243.5,296.5 C 241.18,295.582 239.013,294.248 237,292.5C 236.51,291.207 236.343,289.873 236.5,288.5C 242.815,287.871 248.648,289.204 254,292.5C 254.684,293.784 254.517,294.951 253.5,296C 250.183,296.498 246.85,296.665 243.5,296.5 Z"/></g>
<g><path style="opacity:1" fill="#f6b300" d="M 235.5,279.5 C 242.259,279.214 248.426,280.881 254,284.5C 254.86,287.478 253.693,288.812 250.5,288.5C 245.158,287.642 239.992,286.309 235,284.5C 234.36,282.735 234.527,281.068 235.5,279.5 Z"/></g>
<g><path style="opacity:1" fill="#f3b100" d="M 232.5,269.5 C 239.824,270.274 246.824,272.274 253.5,275.5C 255.178,278.474 254.345,280.141 251,280.5C 245.563,279.066 240.063,277.899 234.5,277C 231.853,274.91 231.186,272.41 232.5,269.5 Z"/></g>
<g><path style="opacity:1" fill="#e3a800" d="M 260.5,265.5 C 261.675,265.281 262.675,265.614 263.5,266.5C 262.167,269.833 259.833,272.167 256.5,273.5C 255.417,272.635 255.251,271.635 256,270.5C 257.193,268.503 258.693,266.836 260.5,265.5 Z"/></g>
<g><path style="opacity:1" fill="#f9b400" d="M 262.5,277.5 C 260.637,279.705 258.303,281.039 255.5,281.5C 255.351,280.448 255.517,279.448 256,278.5C 260.93,274.635 263.764,269.635 264.5,263.5C 260.969,265.038 257.303,266.038 253.5,266.5C 252.71,265.206 251.71,264.039 250.5,263C 255.171,261.6 259.838,260.6 264.5,260C 275,270.5 285.5,281 296,291.5C 298.476,296.59 301.143,301.59 304,306.5C 309.18,312.345 314.346,318.178 319.5,324C 315.261,331.035 309.094,335.202 301,336.5C 299.033,336.458 297.199,335.958 295.5,335C 289.5,329.667 283.5,324.333 277.5,319C 273.916,318.463 271.583,319.963 270.5,323.5C 269.667,322.5 268.833,321.5 268,320.5C 267.667,313.833 267.333,307.167 267,300.5C 265.315,298.983 263.815,297.316 262.5,295.5C 264.499,290.353 264.999,285.019 264,279.5C 263.703,285.141 260.87,288.475 255.5,289.5C 255.943,286.376 257.61,284.043 260.5,282.5C 261.562,280.978 262.229,279.312 262.5,277.5 Z"/></g>
<g><path style="opacity:1" fill="#0f0a00" d="M 262.5,277.5 C 263.76,270.589 264.26,270.255 264,276.5C 263.617,277.056 263.117,277.389 262.5,277.5 Z"/></g>
<g><path style="opacity:1" fill="#f0af00" d="M 253.5,266.5 C 254.301,268.042 254.634,269.708 254.5,271.5C 248.192,271.897 242.192,270.73 236.5,268C 233.507,264.811 234.174,262.978 238.5,262.5C 243.731,263.078 248.731,264.411 253.5,266.5 Z"/></g>
<g><path style="opacity:1" fill="#f7b300" d="M 235.5,239.5 C 236.15,241.435 236.483,243.435 236.5,245.5C 232.564,247.941 232.898,250.108 237.5,252C 243.902,252.818 250.235,252.484 256.5,251C 257.357,250.311 258.023,249.478 258.5,248.5C 255.463,246.02 254.797,243.02 256.5,239.5C 267.83,236.999 272.33,241.332 270,252.5C 267.635,255.869 264.468,258.036 260.5,259C 250.487,260.972 240.487,260.972 230.5,259C 223.582,256.449 220.415,251.616 221,244.5C 224.331,238.704 229.164,237.037 235.5,239.5 Z"/></g>
<g><path style="opacity:1" fill="#2c2004" d="M 256.5,239.5 C 254.797,243.02 255.463,246.02 258.5,248.5C 258.023,249.478 257.357,250.311 256.5,251C 250.235,252.484 243.902,252.818 237.5,252C 232.898,250.108 232.564,247.941 236.5,245.5C 236.5,247.167 236.5,248.833 236.5,250.5C 243.438,251.983 250.104,251.316 256.5,248.5C 253.9,245.349 253.9,242.349 256.5,239.5 Z"/></g>
<g><path style="opacity:1" fill="#1d1401" d="M 235.5,239.5 C 236.947,240.134 237.613,241.301 237.5,243C 237.472,244.07 237.139,244.903 236.5,245.5C 236.483,243.435 236.15,241.435 235.5,239.5 Z"/></g>
<g><path style="opacity:1" fill="#553e07" d="M 414.5,212.5 C 417.706,213.079 420.706,214.079 423.5,215.5C 422.833,215.5 422.5,215.833 422.5,216.5C 419.515,215.674 416.849,214.341 414.5,212.5 Z"/></g>
<g><path style="opacity:1" fill="#332404" d="M 386.5,212.5 C 388.749,213.08 390.415,214.413 391.5,216.5C 389.251,215.92 387.585,214.587 386.5,212.5 Z"/></g>
<g><path style="opacity:1" fill="#2d2102" d="M 411.5,210.5 C 413.027,210.427 414.027,211.094 414.5,212.5C 412.973,212.573 411.973,211.906 411.5,210.5 Z"/></g>
<g><path style="opacity:1" fill="#2e2105" d="M 386.5,212.5 C 384.742,212.123 383.075,211.456 381.5,210.5C 380.442,213.769 378.942,216.769 377,219.5C 375.123,215.072 372.29,211.405 368.5,208.5C 365.84,211.993 362.673,214.993 359,217.5C 358.899,214.3 358.232,211.3 357,208.5C 356.34,210.324 355.173,211.657 353.5,212.5C 354.38,209.738 355.546,207.071 357,204.5C 357.915,205.328 358.581,206.328 359,207.5C 359.333,210.167 359.667,212.833 360,215.5C 363.044,212.625 365.877,209.625 368.5,206.5C 372.212,209.048 375.045,212.382 377,216.5C 377.97,213.556 378.804,210.556 379.5,207.5C 382.154,208.836 384.487,210.503 386.5,212.5 Z"/></g>
<g><path style="opacity:1" fill="#342607" d="M 353.5,212.5 C 353.001,215.389 351.501,216.056 349,214.5C 346.748,203.123 347.581,202.789 351.5,213.5C 352.183,213.137 352.85,212.804 353.5,212.5 Z"/></g>
<g><path style="opacity:1" fill="#281d01" d="M 411.5,210.5 C 408.999,210.174 407.832,208.841 408,206.5C 409.376,207.705 410.542,209.038 411.5,210.5 Z"/></g>
<g><path style="opacity:1" fill="#251a04" d="M 420.5,195.5 C 415.972,193.319 411.972,190.319 408.5,186.5C 407.653,188.872 406.319,190.872 404.5,192.5C 402.5,190.833 400.5,189.167 398.5,187.5C 396.833,190.167 395.167,192.833 393.5,195.5C 390.833,192.5 388.167,189.5 385.5,186.5C 385.667,186.167 385.833,185.833 386,185.5C 388.349,188.017 390.849,190.35 393.5,192.5C 394.705,191.423 395.372,190.09 395.5,188.5C 396.167,187.167 396.833,185.833 397.5,184.5C 399.771,186.266 401.937,188.266 404,190.5C 405.421,187.991 407.088,185.657 409,183.5C 412.364,188.029 416.197,192.029 420.5,195.5 Z"/></g>
<g><path style="opacity:1" fill="#372806" d="M 366.5,195.5 C 364.33,194.162 362.664,192.328 361.5,190C 363.897,190.906 365.563,192.74 366.5,195.5 Z"/></g>
<g><path style="opacity:1" fill="#715100" d="M 397.5,184.5 C 396.833,185.833 396.167,187.167 395.5,188.5C 395.338,186.473 395.505,184.473 396,182.5C 396.717,183.044 397.217,183.711 397.5,184.5 Z"/></g>
<g><path style="opacity:1" fill="#342605" d="M 296.5,180.5 C 307.144,184.221 318.144,186.554 329.5,187.5C 328.872,189.258 327.872,190.758 326.5,192C 332.177,192.835 337.844,193.669 343.5,194.5C 343.564,190.301 342.231,186.634 339.5,183.5C 339.833,183.5 340.167,183.5 340.5,183.5C 344.012,186.668 345.345,190.501 344.5,195C 337.795,195.275 331.129,194.775 324.5,193.5C 325.128,191.742 326.128,190.242 327.5,189C 327.167,188.667 326.833,188.333 326.5,188C 320.485,187.465 314.485,186.799 308.5,186C 304.14,185.162 300.14,183.662 296.5,181.5C 296.5,181.167 296.5,180.833 296.5,180.5 Z"/></g>
<g><path style="opacity:1" fill="#271c04" d="M 396.5,171.5 C 396.539,172.756 396.039,173.756 395,174.5C 393.49,172.792 391.99,171.126 390.5,169.5C 389.015,171.934 387.348,174.267 385.5,176.5C 384.667,175.5 383.833,174.5 383,173.5C 381.957,175.701 381.123,178.034 380.5,180.5C 377.5,178.5 374.5,176.5 371.5,174.5C 369.437,176.561 367.77,178.894 366.5,181.5C 361.099,178.968 357.932,174.968 357,169.5C 358.898,173.569 361.731,176.903 365.5,179.5C 367.919,177.246 369.752,174.579 371,171.5C 373.46,172.958 375.627,174.791 377.5,177C 378.448,177.483 379.448,177.649 380.5,177.5C 380.483,174.08 380.317,170.746 380,167.5C 382.046,169.376 383.879,171.376 385.5,173.5C 387.111,170.78 387.944,167.78 388,164.5C 390.436,167.447 393.269,169.78 396.5,171.5 Z"/></g>
<g><path style="opacity:1" fill="#f5b200" d="M 339.5,183.5 C 342.231,186.634 343.564,190.301 343.5,194.5C 337.844,193.669 332.177,192.835 326.5,192C 327.872,190.758 328.872,189.258 329.5,187.5C 318.144,186.554 307.144,184.221 296.5,180.5C 293.215,179.05 290.715,176.717 289,173.5C 288.146,171.393 288.812,170.059 291,169.5C 299.777,173.138 308.611,176.638 317.5,180C 324.644,182.235 331.978,183.402 339.5,183.5 Z"/></g>
<g><path style="opacity:1" fill="#181101" d="M 396.5,171.5 C 396.998,168.513 397.498,165.513 398,162.5C 398.927,165.863 398.427,168.863 396.5,171.5 Z"/></g>
<g><path style="opacity:1" fill="#3a2a07" d="M 405.5,169.5 C 403.606,168.952 401.94,167.952 400.5,166.5C 402.733,165.984 404.4,166.984 405.5,169.5 Z"/></g>
<g><path style="opacity:1" fill="#332402" d="M 421.5,155.5 C 421.897,154.475 422.563,154.308 423.5,155C 425.833,157.333 428.167,159.667 430.5,162C 429.833,162.667 429.167,162.667 428.5,162C 426.297,159.628 423.963,157.461 421.5,155.5 Z"/></g>
<g><path style="opacity:1" fill="#302306" d="M 345.5,142.5 C 342.928,149.414 345.095,152.081 352,150.5C 352.428,147.927 352.094,145.594 351,143.5C 355.063,145.599 355.563,148.433 352.5,152C 346.984,153.925 343.651,152.091 342.5,146.5C 342.754,144.583 343.754,143.249 345.5,142.5 Z"/></g>
<g><path style="opacity:1" fill="#4b3606" d="M 384.5,146.5 C 385.492,146.672 386.158,146.338 386.5,145.5C 391.511,145.666 396.511,145.499 401.5,145C 399.833,143.333 398.167,141.667 396.5,140C 399.093,140.546 401.26,142.046 403,144.5C 403.688,145.332 403.521,145.998 402.5,146.5C 396.371,147.809 390.371,147.809 384.5,146.5 Z"/></g>
<g><path style="opacity:1" fill="#271d04" d="M 386.5,145.5 C 386.158,146.338 385.492,146.672 384.5,146.5C 377.55,144.52 376.883,145.687 382.5,150C 372.717,151.237 364.05,148.737 356.5,142.5C 362.937,145.38 369.604,147.713 376.5,149.5C 377.167,149.167 377.833,148.833 378.5,148.5C 376.978,145.808 375.811,143.141 375,140.5C 378.099,143.812 381.933,145.479 386.5,145.5 Z"/></g>
<g><path style="opacity:1" fill="#463305" d="M 356.5,142.5 C 352.816,141.272 349.15,141.272 345.5,142.5C 346.317,140.522 347.817,139.522 350,139.5C 352.546,139.859 354.713,140.859 356.5,142.5 Z"/></g>
<g><path style="opacity:1" fill="#372805" d="M 416.5,133.5 C 415.158,134.793 413.491,135.626 411.5,136C 406.142,136.694 400.809,137.527 395.5,138.5C 393.431,138.176 393.098,137.342 394.5,136C 401.935,135.85 409.268,135.017 416.5,133.5 Z"/></g>
<g><path style="opacity:1" fill="#2d2105" d="M 416.5,133.5 C 419.206,131.265 422.206,129.765 425.5,129C 423.024,131.571 420.024,133.071 416.5,133.5 Z"/></g>
<g><path style="opacity:1" fill="#fbb500" d="M 256.5,239.5 C 253.9,242.349 253.9,245.349 256.5,248.5C 250.104,251.316 243.438,251.983 236.5,250.5C 236.5,248.833 236.5,247.167 236.5,245.5C 237.139,244.903 237.472,244.07 237.5,243C 237.613,241.301 236.947,240.134 235.5,239.5C 234.374,216.19 234.208,192.857 235,169.5C 234.402,146.482 239.402,124.815 250,104.5C 255.023,96.6433 261.523,90.31 269.5,85.5C 269.833,86 270.167,86.5 270.5,87C 265.448,101.007 262.615,115.507 262,130.5C 259.691,166.843 257.858,203.176 256.5,239.5 Z"/></g>
<g><path style="opacity:1" fill="#1b1004" d="M 164.5,387.5 C 165.645,391.311 165.812,395.311 165,399.5C 161.18,412.909 158.846,426.576 158,440.5C 152.975,451.428 144.475,455.595 132.5,453C 127.608,449.941 122.275,448.775 116.5,449.5C 116.665,446.482 116.498,443.482 116,440.5C 109.032,428.131 111.866,418.964 124.5,413C 134.046,410.615 143.379,407.615 152.5,404C 157.492,399.182 161.492,393.682 164.5,387.5 Z"/></g>
<g><path style="opacity:1" fill="#fab400" d="M 162.5,394.5 C 162.869,401.526 161.702,408.526 159,415.5C 158.453,422.179 157.787,428.845 157,435.5C 155.551,446.306 149.384,451.639 138.5,451.5C 132.064,449.299 125.397,448.299 118.5,448.5C 118.664,445.813 118.497,443.146 118,440.5C 110.207,428.213 113.041,419.379 126.5,414C 135.364,411.951 144.03,409.284 152.5,406C 156.416,402.59 159.749,398.757 162.5,394.5 Z"/></g>
<g><path style="opacity:0.978" fill="#fdb500" d="M 387.5,458.5 C 353.111,481.075 315.445,494.742 274.5,499.5C 257.833,499.5 241.167,499.5 224.5,499.5C 183.544,494.738 145.877,481.072 111.5,458.5C 203.5,457.167 295.5,457.167 387.5,458.5 Z"/></g>
</svg>
