<?xml version="1.0" encoding="UTF-8"?>
<!DOCTYPE svg PUBLIC "-//W3C//DTD SVG 1.1//EN" "http://www.w3.org/Graphics/SVG/1.1/DTD/svg11.dtd">
<svg xmlns="http://www.w3.org/2000/svg" version="1.1" width="500px" height="500px" style="shape-rendering:geometricPrecision; text-rendering:geometricPrecision; image-rendering:optimizeQuality; fill-rule:evenodd; clip-rule:evenodd" xmlns:xlink="http://www.w3.org/1999/xlink">
<g><path style="opacity:0.996" fill="#da181e" d="M 225.5,-0.5 C 241.5,-0.5 257.5,-0.5 273.5,-0.5C 296.044,2.14637 318.044,7.4797 339.5,15.5C 313.005,16.4979 286.339,16.8312 259.5,16.5C 259.167,52.1729 259.5,87.8396 260.5,123.5C 329.294,161.8 397.961,200.3 466.5,239C 477.495,239.5 488.495,239.667 499.5,239.5C 499.5,246.167 499.5,252.833 499.5,259.5C 488.495,259.333 477.495,259.5 466.5,260C 397.995,298.753 329.328,337.253 260.5,375.5C 259.5,411.16 259.167,446.827 259.5,482.5C 286.339,482.169 313.005,482.502 339.5,483.5C 318.388,491.528 296.722,496.862 274.5,499.5C 257.833,499.5 241.167,499.5 224.5,499.5C 202.277,496.861 180.61,491.528 159.5,483.5C 185.995,482.502 212.661,482.169 239.5,482.5C 239.833,446.827 239.5,411.16 238.5,375.5C 169.672,337.253 101.005,298.753 32.5,260C 21.505,259.5 10.505,259.333 -0.5,259.5C -0.5,252.833 -0.5,246.167 -0.5,239.5C 10.505,239.667 21.505,239.5 32.5,239C 101.039,200.3 169.706,161.8 238.5,123.5C 239.5,87.8396 239.833,52.1729 239.5,16.5C 212.661,16.8312 185.995,16.4979 159.5,15.5C 180.995,7.62537 202.995,2.29203 225.5,-0.5 Z"/></g>
<g><path style="opacity:1" fill="#032986" d="M 339.5,15.5 C 416.291,46.7926 466.791,102.126 491,181.5C 494.696,195.809 497.529,210.142 499.5,224.5C 499.5,229.5 499.5,234.5 499.5,239.5C 488.495,239.667 477.495,239.5 466.5,239C 397.961,200.3 329.294,161.8 260.5,123.5C 259.5,87.8396 259.167,52.1729 259.5,16.5C 286.339,16.8312 313.005,16.4979 339.5,15.5 Z"/></g>
<g><path style="opacity:1" fill="#032986" d="M 159.5,15.5 C 185.995,16.4979 212.661,16.8312 239.5,16.5C 239.833,52.1729 239.5,87.8396 238.5,123.5C 169.706,161.8 101.039,200.3 32.5,239C 21.505,239.5 10.505,239.667 -0.5,239.5C -0.5,234.833 -0.5,230.167 -0.5,225.5C 13.278,125.243 66.6114,55.2431 159.5,15.5 Z"/></g>
<g><path style="opacity:1" fill="#fefefd" d="M 409.5,269.5 C 390.417,254.112 371.084,238.945 351.5,224C 344.524,221.119 338.524,222.452 333.5,228C 327.195,230.715 321.861,229.382 317.5,224C 310.827,221.567 304.493,222.234 298.5,226C 281.234,245.935 263.234,265.269 244.5,284C 227.5,284.667 210.5,284.667 193.5,284C 188.423,281.905 183.09,280.905 177.5,281C 175.754,280.529 174.087,279.862 172.5,279C 165.1,270.93 157.1,263.596 148.5,257C 136.031,254.23 127.697,258.73 123.5,270.5C 115.735,269.609 111.068,272.942 109.5,280.5C 91.8605,270.679 74.1939,260.845 56.5,251C 55.5494,250.282 55.3828,249.449 56,248.5C 120.419,212.373 184.919,176.373 249.5,140.5C 314.167,176.5 378.833,212.5 443.5,248.5C 444.833,249.167 444.833,249.833 443.5,250.5C 432.139,256.845 420.806,263.179 409.5,269.5 Z"/></g>
<g><path style="opacity:1" fill="#f9d91c" d="M 248.5,166.5 C 249.497,166.47 250.164,166.97 250.5,168C 252.509,174.027 254.509,180.027 256.5,186C 263.5,186.333 270.5,186.667 277.5,187C 271.622,191.1 265.956,195.433 260.5,200C 263.377,206.286 265.21,212.786 266,219.5C 260.64,215.307 255.14,211.307 249.5,207.5C 243.86,211.307 238.36,215.307 233,219.5C 233.79,212.786 235.623,206.286 238.5,200C 233.044,195.433 227.378,191.1 221.5,187C 228.5,186.667 235.5,186.333 242.5,186C 245.204,179.721 247.204,173.221 248.5,166.5 Z"/></g>
<g><path style="opacity:1" fill="#038830" d="M 409.5,269.5 C 383.483,283.862 357.483,298.195 331.5,312.5C 276.833,312.5 222.167,312.5 167.5,312.5C 147.93,302.263 128.596,291.596 109.5,280.5C 111.068,272.942 115.735,269.609 123.5,270.5C 127.697,258.73 136.031,254.23 148.5,257C 157.1,263.596 165.1,270.93 172.5,279C 174.087,279.862 175.754,280.529 177.5,281C 183.09,280.905 188.423,281.905 193.5,284C 210.5,284.667 227.5,284.667 244.5,284C 263.234,265.269 281.234,245.935 298.5,226C 304.493,222.234 310.827,221.567 317.5,224C 321.861,229.382 327.195,230.715 333.5,228C 338.524,222.452 344.524,221.119 351.5,224C 371.084,238.945 390.417,254.112 409.5,269.5 Z"/></g>
<g><path style="opacity:1" fill="#042986" d="M -0.5,259.5 C 10.505,259.333 21.505,259.5 32.5,260C 101.005,298.753 169.672,337.253 238.5,375.5C 239.5,411.16 239.833,446.827 239.5,482.5C 212.661,482.169 185.995,482.502 159.5,483.5C 94.571,457.406 47.7376,412.406 19,348.5C 8.87274,324.32 2.37274,299.32 -0.5,273.5C -0.5,268.833 -0.5,264.167 -0.5,259.5 Z"/></g>
<g><path style="opacity:1" fill="#042986" d="M 499.5,259.5 C 499.5,264.833 499.5,270.167 499.5,275.5C 487.471,362.429 443.471,427.595 367.5,471C 358.259,475.456 348.925,479.622 339.5,483.5C 313.005,482.502 286.339,482.169 259.5,482.5C 259.167,446.827 259.5,411.16 260.5,375.5C 329.328,337.253 397.995,298.753 466.5,260C 477.495,259.5 488.495,259.333 499.5,259.5 Z"/></g>
<g><path style="opacity:1" fill="#fafbfa" d="M 167.5,312.5 C 222.167,312.5 276.833,312.5 331.5,312.5C 304.515,328.329 277.182,343.662 249.5,358.5C 221.818,343.662 194.485,328.329 167.5,312.5 Z"/></g>
</svg>
