<?xml version="1.0" encoding="UTF-8"?>
<!DOCTYPE svg PUBLIC "-//W3C//DTD SVG 1.1//EN" "http://www.w3.org/Graphics/SVG/1.1/DTD/svg11.dtd">
<svg xmlns="http://www.w3.org/2000/svg" version="1.1" width="500px" height="500px" style="shape-rendering:geometricPrecision; text-rendering:geometricPrecision; image-rendering:optimizeQuality; fill-rule:evenodd; clip-rule:evenodd" xmlns:xlink="http://www.w3.org/1999/xlink">
<g><path style="opacity:1" fill="#db171d" d="M 225.5,-0.5 C 238.167,-0.5 250.833,-0.5 263.5,-0.5C 273.985,1.18538 284.651,2.51872 295.5,3.5C 377.812,20.6578 437.979,66.6578 476,141.5C 488.211,167.694 496.045,195.027 499.5,223.5C 499.5,232.167 499.5,240.833 499.5,249.5C 443.833,249.5 388.167,249.5 332.5,249.5C 250.684,187.863 168.684,126.363 86.5,65C 85.1772,64.1841 84.5106,63.0174 84.5,61.5C 124.743,25.8873 171.743,5.22064 225.5,-0.5 Z"/></g>
<g><path style="opacity:0.553" fill="#bb3346" d="M 263.5,-0.5 C 266.833,-0.5 270.167,-0.5 273.5,-0.5C 280.878,0.554197 288.211,1.88753 295.5,3.5C 284.651,2.51872 273.985,1.18538 263.5,-0.5 Z"/></g>
<g><path style="opacity:1" fill="#fdfcfc" d="M 84.5,61.5 C 84.5106,63.0174 85.1772,64.1841 86.5,65C 168.684,126.363 250.684,187.863 332.5,249.5C 249.807,312.187 166.807,374.52 83.5,436.5C 34.6489,393.136 6.64892,338.803 -0.5,273.5C -0.5,257.5 -0.5,241.5 -0.5,225.5C 6.73929,159.682 35.0726,105.015 84.5,61.5 Z"/></g>
<g><path style="opacity:1" fill="#f2d217" d="M 159.5,164.5 C 153.024,165.854 146.357,166.854 139.5,167.5C 138.263,167.444 137.263,166.944 136.5,166C 142.614,165.487 148.614,164.487 154.5,163C 144.461,159.992 134.295,159.158 124,160.5C 123.44,163.96 124.94,166.127 128.5,167C 127.833,167.167 127.167,167.333 126.5,167.5C 123.019,165.76 119.352,164.593 115.5,164C 109.319,163.828 103.319,163.328 97.5,162.5C 97.4142,161.504 97.7476,160.671 98.5,160C 107.655,156.214 116.988,153.047 126.5,150.5C 133.303,153.1 140.303,155.267 147.5,157C 149.359,158.981 151.692,159.981 154.5,160C 155.445,162.446 157.111,163.946 159.5,164.5 Z"/></g>
<g><path style="opacity:1" fill="#bd735e" d="M 159.5,164.5 C 168.048,165.803 176.048,168.636 183.5,173C 177.175,173.102 170.842,172.935 164.5,172.5C 160.486,172.334 156.486,172.501 152.5,173C 149.688,174.549 146.688,175.382 143.5,175.5C 143.863,177.911 142.863,179.411 140.5,180C 131.813,179.83 123.146,179.996 114.5,180.5C 110.326,179.139 105.993,178.139 101.5,177.5C 104.633,175.454 107.966,173.788 111.5,172.5C 103.862,171.503 96.1955,171.169 88.5,171.5C 84.7123,171.388 80.7123,171.221 76.5,171C 77.8782,169.287 79.5448,167.953 81.5,167C 86.8158,165.306 92.1491,163.806 97.5,162.5C 103.319,163.328 109.319,163.828 115.5,164C 119.352,164.593 123.019,165.76 126.5,167.5C 127.167,167.333 127.833,167.167 128.5,167C 124.94,166.127 123.44,163.96 124,160.5C 134.295,159.158 144.461,159.992 154.5,163C 148.614,164.487 142.614,165.487 136.5,166C 137.263,166.944 138.263,167.444 139.5,167.5C 146.357,166.854 153.024,165.854 159.5,164.5 Z"/></g>
<g><path style="opacity:1" fill="#f5d415" d="M 88.5,171.5 C 96.1955,171.169 103.862,171.503 111.5,172.5C 107.966,173.788 104.633,175.454 101.5,177.5C 105.993,178.139 110.326,179.139 114.5,180.5C 123.146,179.996 131.813,179.83 140.5,180C 142.863,179.411 143.863,177.911 143.5,175.5C 146.688,175.382 149.688,174.549 152.5,173C 156.486,172.501 160.486,172.334 164.5,172.5C 164.685,174.196 165.519,175.529 167,176.5C 167.497,178.81 167.663,181.143 167.5,183.5C 155.514,181.297 143.514,181.13 131.5,183C 129.833,183.833 128.167,184.667 126.5,185.5C 120.542,182.428 114.209,181.094 107.5,181.5C 100.073,181.73 92.7398,182.396 85.5,183.5C 85.3367,181.143 85.5034,178.81 86,176.5C 87.883,175.347 88.7163,173.681 88.5,171.5 Z"/></g>
<g><path style="opacity:1" fill="#db1e20" d="M 85.5,183.5 C 92.7398,182.396 100.073,181.73 107.5,181.5C 114.209,181.094 120.542,182.428 126.5,185.5C 128.167,184.667 129.833,183.833 131.5,183C 143.514,181.13 155.514,181.297 167.5,183.5C 177.723,185.194 187.556,183.527 197,178.5C 195.607,188.809 193.941,199.142 192,209.5C 190.567,219.797 190.233,230.131 191,240.5C 193.409,249.733 195.409,259.066 197,268.5C 201.174,291.014 192.007,303.848 169.5,307C 157.999,307.651 146.665,309.317 135.5,312C 132.368,313.635 129.368,315.468 126.5,317.5C 123.834,315.165 120.834,313.331 117.5,312C 105.321,309.213 92.9874,307.546 80.5,307C 63.9963,303.171 55.6629,292.837 55.5,276C 57.0234,264.05 59.19,252.216 62,240.5C 62.9839,219.821 60.8172,199.488 55.5,179.5C 55.8333,179.167 56.1667,178.833 56.5,178.5C 65.6432,183.002 75.3099,184.669 85.5,183.5 Z"/></g>
<g><path style="opacity:1" fill="#63acdd" d="M 181.5,221.5 C 179.112,218.462 176.112,216.129 172.5,214.5C 171.667,209.5 170.833,204.5 170,199.5C 168,195.5 166,195.5 164,199.5C 163.411,204.545 162.578,209.545 161.5,214.5C 158.19,216.482 155.19,218.815 152.5,221.5C 162.144,222.498 171.81,222.832 181.5,222.5C 180.605,235.25 182.438,247.583 187,259.5C 187.667,266.167 187.667,272.833 187,279.5C 185.847,285.843 182.347,290.176 176.5,292.5C 176.5,292.167 176.5,291.833 176.5,291.5C 176.5,289.167 176.5,286.833 176.5,284.5C 174.167,284.5 171.833,284.5 169.5,284.5C 169.368,275.809 169.701,267.142 170.5,258.5C 169.5,258.5 168.5,258.5 167.5,258.5C 166.899,251.711 167.566,245.211 169.5,239C 159.833,232.667 150.167,226.333 140.5,220C 139.549,216.943 139.216,213.777 139.5,210.5C 140.873,210.657 142.207,210.49 143.5,210C 141.609,208.558 139.609,207.391 137.5,206.5C 134.184,203.053 130.351,200.387 126,198.5C 123.331,199.577 121.164,201.243 119.5,203.5C 115.798,205.024 112.464,207.19 109.5,210C 110.793,210.49 112.127,210.657 113.5,210.5C 113.784,213.777 113.451,216.943 112.5,220C 102.833,226.333 93.1667,232.667 83.5,239C 85.4343,245.211 86.101,251.711 85.5,258.5C 84.5,258.5 83.5,258.5 82.5,258.5C 82.2053,260.735 82.5386,262.735 83.5,264.5C 83.5,271.167 83.5,277.833 83.5,284.5C 81.5,284.5 79.5,284.5 77.5,284.5C 77.5,286.833 77.5,289.167 77.5,291.5C 77.5,291.833 77.5,292.167 77.5,292.5C 70.8026,289.803 66.9692,284.803 66,277.5C 65.4238,265.533 67.0905,253.867 71,242.5C 72.3726,225.148 70.5393,208.148 65.5,191.5C 65.8333,191.167 66.1667,190.833 66.5,190.5C 70.3517,192.173 74.3517,193.339 78.5,194C 88.7199,194.634 98.8865,194.134 109,192.5C 115,192.533 120.833,193.533 126.5,195.5C 131.371,193.859 136.371,192.859 141.5,192.5C 156.637,195.42 171.637,195.086 186.5,191.5C 185.245,201.696 183.578,211.696 181.5,221.5 Z"/></g>
<g><path style="opacity:1" fill="#158a35" d="M 83.5,199.5 C 83.1788,201.048 82.1788,201.715 80.5,201.5C 80.5,203.167 80.5,204.833 80.5,206.5C 79.5,206.5 78.5,206.5 77.5,206.5C 77.5,207.5 77.5,208.5 77.5,209.5C 79.1788,209.285 80.1788,209.952 80.5,211.5C 78.281,210.12 76.281,210.454 74.5,212.5C 73.2622,209.832 73.2622,207.166 74.5,204.5C 71.8103,202.807 69.8103,200.473 68.5,197.5C 69.6878,196.16 71.1878,195.493 73,195.5C 76.8154,196.164 80.3154,197.497 83.5,199.5 Z"/></g>
<g><path style="opacity:1" fill="#97b72b" d="M 91.5,201.5 C 92.0906,202.151 92.7573,202.818 93.5,203.5C 91.8955,205.179 91.2289,207.179 91.5,209.5C 92.9778,209.238 94.3112,209.571 95.5,210.5C 93.2756,211.78 91.2756,211.447 89.5,209.5C 89.7877,211.048 89.7877,212.715 89.5,214.5C 88.2739,212.637 86.9406,211.637 85.5,211.5C 86.2427,210.818 86.9094,210.151 87.5,209.5C 86.1653,207.203 84.3319,205.203 82,203.5C 81.7679,204.737 81.2679,205.737 80.5,206.5C 80.5,204.833 80.5,203.167 80.5,201.5C 82.1788,201.715 83.1788,201.048 83.5,199.5C 83.56,198.957 83.8933,198.624 84.5,198.5C 86.7639,199.869 89.0972,200.869 91.5,201.5 Z"/></g>
<g><path style="opacity:1" fill="#777879" d="M 137.5,206.5 C 138.441,211.07 138.774,215.737 138.5,220.5C 137.518,217.038 137.185,213.371 137.5,209.5C 134.725,206.395 131.392,204.062 127.5,202.5C 124.884,203.48 122.551,204.98 120.5,207C 124.486,207.499 128.486,207.666 132.5,207.5C 128.9,208.787 124.566,208.787 119.5,207.5C 118.975,206.808 118.308,206.308 117.5,206C 118.381,205.292 119.047,204.458 119.5,203.5C 121.164,201.243 123.331,199.577 126,198.5C 130.351,200.387 134.184,203.053 137.5,206.5 Z"/></g>
<g><path style="opacity:1" fill="#efefef" d="M 127.5,202.5 C 128.973,204.395 130.64,206.061 132.5,207.5C 128.486,207.666 124.486,207.499 120.5,207C 122.551,204.98 124.884,203.48 127.5,202.5 Z"/></g>
<g><path style="opacity:1" fill="#ead610" d="M 87.5,209.5 C 85.0706,209.884 82.7373,210.551 80.5,211.5C 80.1788,209.952 79.1788,209.285 77.5,209.5C 77.5,208.5 77.5,207.5 77.5,206.5C 78.5,206.5 79.5,206.5 80.5,206.5C 81.2679,205.737 81.7679,204.737 82,203.5C 84.3319,205.203 86.1653,207.203 87.5,209.5 Z"/></g>
<g><path style="opacity:1" fill="#218c38" d="M 80.5,211.5 C 82.7373,210.551 85.0706,209.884 87.5,209.5C 86.9094,210.151 86.2427,210.818 85.5,211.5C 86.9406,211.637 88.2739,212.637 89.5,214.5C 89.7877,212.715 89.7877,211.048 89.5,209.5C 91.2756,211.447 93.2756,211.78 95.5,210.5C 94.3112,209.571 92.9778,209.238 91.5,209.5C 91.2289,207.179 91.8955,205.179 93.5,203.5C 92.7573,202.818 92.0906,202.151 91.5,201.5C 95.7536,200.354 100.087,199.687 104.5,199.5C 104.854,202.421 103.854,204.754 101.5,206.5C 102.929,208.331 103.429,210.331 103,212.5C 101.667,213.833 100.333,213.833 99,212.5C 97.4117,214.808 95.4117,215.475 93,214.5C 92.7586,217.289 92.092,219.956 91,222.5C 89.9887,223.337 88.8221,223.67 87.5,223.5C 87.322,219.898 86.322,219.898 84.5,223.5C 83.5224,223.023 82.6891,222.357 82,221.5C 80.6755,218.164 80.1755,214.831 80.5,211.5 Z"/></g>
<g><path style="opacity:1" fill="#252c31" d="M 181.5,221.5 C 181.5,221.833 181.5,222.167 181.5,222.5C 171.81,222.832 162.144,222.498 152.5,221.5C 155.19,218.815 158.19,216.482 161.5,214.5C 162.578,209.545 163.411,204.545 164,199.5C 166,195.5 168,195.5 170,199.5C 170.833,204.5 171.667,209.5 172.5,214.5C 176.112,216.129 179.112,218.462 181.5,221.5 Z"/></g>
<g><path style="opacity:1" fill="#f5f5f5" d="M 166.5,197.5 C 168.067,198.681 168.901,200.347 169,202.5C 169.333,206.5 169.667,210.5 170,214.5C 173.089,215.96 175.922,217.793 178.5,220C 171.167,220.667 163.833,220.667 156.5,220C 158.556,217.556 161.056,215.723 164,214.5C 164.048,208.656 164.881,202.989 166.5,197.5 Z"/></g>
<g><path style="opacity:1" fill="#f2d414" d="M 43.5,269.5 C 41.4848,267.324 39.8181,264.824 38.5,262C 35.854,261.503 33.1873,261.336 30.5,261.5C 30.5,259.833 30.5,258.167 30.5,256.5C 30.8478,252.443 31.5145,248.443 32.5,244.5C 37.0974,246.032 41.764,247.365 46.5,248.5C 45.8886,255.557 44.8886,262.557 43.5,269.5 Z"/></g>
<g><path style="opacity:1" fill="#f2d213" d="M 222.5,256.5 C 222.5,258.167 222.5,259.833 222.5,261.5C 217.645,260.517 214.312,262.183 212.5,266.5C 213.681,268.198 213.681,269.865 212.5,271.5C 211.735,270.388 210.735,269.721 209.5,269.5C 207.958,262.582 206.958,255.582 206.5,248.5C 210.345,247.608 214.179,246.608 218,245.5C 218.833,245.833 219.667,246.167 220.5,246.5C 221.551,249.757 222.218,253.09 222.5,256.5 Z"/></g>
<g><path style="opacity:1" fill="#022a87" d="M 332.5,249.5 C 388.167,249.5 443.833,249.5 499.5,249.5C 499.5,258.167 499.5,266.833 499.5,275.5C 489.198,354.917 450.865,416.751 384.5,461C 350.657,482.097 313.991,494.93 274.5,499.5C 257.833,499.5 241.167,499.5 224.5,499.5C 175.815,493.82 132.148,475.987 93.5,446C 89.6659,443.332 86.3325,440.165 83.5,436.5C 166.807,374.52 249.807,312.187 332.5,249.5 Z"/></g>
<g><path style="opacity:1" fill="#181a1c" d="M 127.5,202.5 C 131.392,204.062 134.725,206.395 137.5,209.5C 129.833,209.5 122.167,209.5 114.5,209.5C 114.665,213.182 114.499,216.848 114,220.5C 105.504,226.415 96.8375,232.082 88,237.5C 87.5004,244.492 87.3337,251.492 87.5,258.5C 94.8333,258.5 102.167,258.5 109.5,258.5C 109.5,255.833 109.5,253.167 109.5,250.5C 110.5,250.5 111.5,250.5 112.5,250.5C 112.5,247.167 112.5,243.833 112.5,240.5C 116.833,240.5 121.167,240.5 125.5,240.5C 125.5,243.833 125.5,247.167 125.5,250.5C 126.5,250.5 127.5,250.5 128.5,250.5C 128.5,247.167 128.5,243.833 128.5,240.5C 132.833,240.5 137.167,240.5 141.5,240.5C 141.5,243.833 141.5,247.167 141.5,250.5C 142.5,250.5 143.5,250.5 144.5,250.5C 144.5,253.167 144.5,255.833 144.5,258.5C 151.5,258.5 158.5,258.5 165.5,258.5C 165.666,251.492 165.5,244.492 165,237.5C 156.054,231.947 147.22,226.281 138.5,220.5C 138.774,215.737 138.441,211.07 137.5,206.5C 139.609,207.391 141.609,208.558 143.5,210C 142.207,210.49 140.873,210.657 139.5,210.5C 139.216,213.777 139.549,216.943 140.5,220C 150.167,226.333 159.833,232.667 169.5,239C 167.566,245.211 166.899,251.711 167.5,258.5C 168.5,258.5 169.5,258.5 170.5,258.5C 169.701,267.142 169.368,275.809 169.5,284.5C 171.833,284.5 174.167,284.5 176.5,284.5C 176.5,286.833 176.5,289.167 176.5,291.5C 176.167,291.5 175.833,291.5 175.5,291.5C 175.5,291.167 175.5,290.833 175.5,290.5C 175.5,289.167 175.5,287.833 175.5,286.5C 173.167,285.833 170.833,285.167 168.5,284.5C 168.5,277.833 168.5,271.167 168.5,264.5C 167.5,264.5 166.5,264.5 165.5,264.5C 165.5,271.167 165.5,277.833 165.5,284.5C 165.167,285.833 164.833,285.833 164.5,284.5C 164.5,277.5 164.5,270.5 164.5,263.5C 166.167,263.5 167.833,263.5 169.5,263.5C 169.5,262.5 169.5,261.5 169.5,260.5C 161.35,259.507 153.017,259.174 144.5,259.5C 144.5,268.167 144.5,276.833 144.5,285.5C 132.833,285.5 121.167,285.5 109.5,285.5C 109.5,276.833 109.5,268.167 109.5,259.5C 100.651,259.174 91.9839,259.507 83.5,260.5C 83.5,261.5 83.5,262.5 83.5,263.5C 85.1667,263.5 86.8333,263.5 88.5,263.5C 88.5,264.167 88.1667,264.5 87.5,264.5C 86.8333,264.5 86.1667,264.5 85.5,264.5C 84.8333,264.5 84.1667,264.5 83.5,264.5C 82.5386,262.735 82.2053,260.735 82.5,258.5C 83.5,258.5 84.5,258.5 85.5,258.5C 86.101,251.711 85.4343,245.211 83.5,239C 93.1667,232.667 102.833,226.333 112.5,220C 113.451,216.943 113.784,213.777 113.5,210.5C 112.127,210.657 110.793,210.49 109.5,210C 112.464,207.19 115.798,205.024 119.5,203.5C 119.047,204.458 118.381,205.292 117.5,206C 118.308,206.308 118.975,206.808 119.5,207.5C 124.566,208.787 128.9,208.787 132.5,207.5C 130.64,206.061 128.973,204.395 127.5,202.5 Z"/></g>
<g><path style="opacity:1" fill="#f1f1f1" d="M 137.5,209.5 C 137.185,213.371 137.518,217.038 138.5,220.5C 147.22,226.281 156.054,231.947 165,237.5C 165.5,244.492 165.666,251.492 165.5,258.5C 158.5,258.5 151.5,258.5 144.5,258.5C 144.5,255.833 144.5,253.167 144.5,250.5C 143.5,250.5 142.5,250.5 141.5,250.5C 141.5,247.167 141.5,243.833 141.5,240.5C 137.167,240.5 132.833,240.5 128.5,240.5C 128.5,243.833 128.5,247.167 128.5,250.5C 127.5,250.5 126.5,250.5 125.5,250.5C 125.5,247.167 125.5,243.833 125.5,240.5C 121.167,240.5 116.833,240.5 112.5,240.5C 112.5,243.833 112.5,247.167 112.5,250.5C 111.5,250.5 110.5,250.5 109.5,250.5C 109.5,253.167 109.5,255.833 109.5,258.5C 102.167,258.5 94.8333,258.5 87.5,258.5C 87.3337,251.492 87.5004,244.492 88,237.5C 96.8375,232.082 105.504,226.415 114,220.5C 114.499,216.848 114.665,213.182 114.5,209.5C 122.167,209.5 129.833,209.5 137.5,209.5 Z"/></g>
<g><path style="opacity:1" fill="#373737" d="M 90.5,240.5 C 95.1667,240.5 99.8333,240.5 104.5,240.5C 104.666,245.511 104.499,250.511 104,255.5C 99.5986,256.467 95.0986,256.8 90.5,256.5C 90.5,251.167 90.5,245.833 90.5,240.5 Z"/></g>
<g><path style="opacity:1" fill="#dbdbdb" d="M 129.5,241.5 C 133.167,241.5 136.833,241.5 140.5,241.5C 140.817,244.572 140.484,247.572 139.5,250.5C 138.526,248.257 138.192,245.924 138.5,243.5C 136.473,243.338 134.473,243.505 132.5,244C 131.887,246.147 131.221,248.314 130.5,250.5C 129.516,247.572 129.183,244.572 129.5,241.5 Z"/></g>
<g><path style="opacity:1" fill="#dedede" d="M 133.5,244.5 C 137.068,244.759 138.401,246.759 137.5,250.5C 136.167,250.5 134.833,250.5 133.5,250.5C 133.5,248.5 133.5,246.5 133.5,244.5 Z"/></g>
<g><path style="opacity:1" fill="#e6e6e6" d="M 113.5,241.5 C 116.833,241.5 120.167,241.5 123.5,241.5C 123.665,244.518 123.498,247.518 123,250.5C 122.503,248.19 122.337,245.857 122.5,243.5C 120.167,243.5 117.833,243.5 115.5,243.5C 115.808,245.924 115.474,248.257 114.5,250.5C 113.516,247.572 113.183,244.572 113.5,241.5 Z"/></g>
<g><path style="opacity:1" fill="#d2d2d2" d="M 116.5,244.5 C 117.833,244.5 119.167,244.5 120.5,244.5C 120.5,246.5 120.5,248.5 120.5,250.5C 119.167,250.5 117.833,250.5 116.5,250.5C 116.5,248.5 116.5,246.5 116.5,244.5 Z"/></g>
<g><path style="opacity:1" fill="#d4d4d4" d="M 92.5,241.5 C 95.8333,241.5 99.1667,241.5 102.5,241.5C 102.5,246.167 102.5,250.833 102.5,255.5C 99.1667,255.5 95.8333,255.5 92.5,255.5C 92.5,250.833 92.5,246.167 92.5,241.5 Z"/></g>
<g><path style="opacity:1" fill="#161616" d="M 94.5,243.5 C 96.5,243.5 98.5,243.5 100.5,243.5C 100.5,246.833 100.5,250.167 100.5,253.5C 98.5,253.5 96.5,253.5 94.5,253.5C 94.5,250.167 94.5,246.833 94.5,243.5 Z"/></g>
<g><path style="opacity:1" fill="#f1f1f1" d="M 95.5,244.5 C 96.8333,244.5 98.1667,244.5 99.5,244.5C 99.5,246.833 99.5,249.167 99.5,251.5C 98.1667,251.5 96.8333,251.5 95.5,251.5C 95.5,249.167 95.5,246.833 95.5,244.5 Z"/></g>
<g><path style="opacity:1" fill="#0f0f0f" d="M 160.5,255.5 C 156.702,256.483 152.702,256.817 148.5,256.5C 148.5,251.167 148.5,245.833 148.5,240.5C 152.833,240.5 157.167,240.5 161.5,240.5C 161.821,245.695 161.487,250.695 160.5,255.5 Z"/></g>
<g><path style="opacity:1" fill="#171717" d="M 114.5,222.5 C 122.507,222.334 130.507,222.5 138.5,223C 144.359,227.692 150.359,232.192 156.5,236.5C 136.175,237.666 115.842,237.833 95.5,237C 101.902,232.146 108.235,227.313 114.5,222.5 Z"/></g>
<g><path style="opacity:1" fill="#f4f4f4" d="M 115.5,223.5 C 122.841,223.334 130.174,223.5 137.5,224C 142.833,228 148.167,232 153.5,236C 135.5,236.667 117.5,236.667 99.5,236C 105.02,231.97 110.353,227.803 115.5,223.5 Z"/></g>
<g><path style="opacity:1" fill="#3a3a3a" d="M 116.5,210.5 C 123.167,210.5 129.833,210.5 136.5,210.5C 136.5,213.833 136.5,217.167 136.5,220.5C 129.833,220.5 123.167,220.5 116.5,220.5C 116.5,217.167 116.5,213.833 116.5,210.5 Z"/></g>
<g><path style="opacity:1" fill="#cfcfcf" d="M 117.5,212.5 C 118.833,212.5 120.167,212.5 121.5,212.5C 121.5,214.5 121.5,216.5 121.5,218.5C 124.833,218.5 128.167,218.5 131.5,218.5C 131.5,216.5 131.5,214.5 131.5,212.5C 132.5,212.5 133.5,212.5 134.5,212.5C 134.5,214.833 134.5,217.167 134.5,219.5C 128.833,219.5 123.167,219.5 117.5,219.5C 117.5,217.167 117.5,214.833 117.5,212.5 Z"/></g>
<g><path style="opacity:1" fill="#d9d9d9" d="M 122.5,214.5 C 124.833,214.5 127.167,214.5 129.5,214.5C 129.5,215.5 129.5,216.5 129.5,217.5C 127.473,217.662 125.473,217.495 123.5,217C 122.748,216.329 122.414,215.496 122.5,214.5 Z"/></g>
<g><path style="opacity:1" fill="#a8a8a8" d="M 159.5,242.5 C 160.485,246.634 160.818,250.968 160.5,255.5C 156.833,255.5 153.167,255.5 149.5,255.5C 149.5,250.833 149.5,246.167 149.5,241.5C 153.042,241.187 156.375,241.521 159.5,242.5 Z"/></g>
<g><path style="opacity:1" fill="#fbfbfb" d="M 159.5,242.5 C 159.5,246.5 159.5,250.5 159.5,254.5C 156.5,254.5 153.5,254.5 150.5,254.5C 150.5,250.5 150.5,246.5 150.5,242.5C 153.5,242.5 156.5,242.5 159.5,242.5 Z"/></g>
<g><path style="opacity:1" fill="#333333" d="M 151.5,243.5 C 153.833,243.5 156.167,243.5 158.5,243.5C 158.5,246.833 158.5,250.167 158.5,253.5C 156.167,253.5 153.833,253.5 151.5,253.5C 151.5,250.167 151.5,246.833 151.5,243.5 Z"/></g>
<g><path style="opacity:1" fill="#dfdfdf" d="M 152.5,244.5 C 153.833,244.5 155.167,244.5 156.5,244.5C 156.5,247.167 156.5,249.833 156.5,252.5C 155.167,252.5 153.833,252.5 152.5,252.5C 152.5,249.833 152.5,247.167 152.5,244.5 Z"/></g>
<g><path style="opacity:1" fill="#d7d7d7" d="M 114.5,251.5 C 116.344,253.279 117.01,255.612 116.5,258.5C 117.5,258.5 118.5,258.5 119.5,258.5C 120.167,250.5 120.833,250.5 121.5,258.5C 122.5,258.5 123.5,258.5 124.5,258.5C 124.5,256.5 124.5,254.5 124.5,252.5C 125.5,252.5 126.5,252.5 127.5,252.5C 127.5,254.5 127.5,256.5 127.5,258.5C 128.833,258.5 130.167,258.5 131.5,258.5C 132.167,250.5 132.833,250.5 133.5,258.5C 134.5,258.5 135.5,258.5 136.5,258.5C 137.63,249.365 138.297,249.365 138.5,258.5C 139.833,258.5 141.167,258.5 142.5,258.5C 142.338,256.473 142.505,254.473 143,252.5C 143.497,255.146 143.664,257.813 143.5,260.5C 132.48,260.832 121.48,260.499 110.5,259.5C 111.689,258.571 113.022,258.238 114.5,258.5C 114.5,256.167 114.5,253.833 114.5,251.5 Z"/></g>
<g><path style="opacity:1" fill="#fafafa" d="M 83.5,260.5 C 91.8333,260.5 100.167,260.5 108.5,260.5C 108.5,268.5 108.5,276.5 108.5,284.5C 102.167,284.5 95.8333,284.5 89.5,284.5C 89.8245,277.313 89.4912,270.313 88.5,263.5C 86.8333,263.5 85.1667,263.5 83.5,263.5C 83.5,262.5 83.5,261.5 83.5,260.5 Z"/></g>
<g><path style="opacity:1" fill="#f4f4f4" d="M 169.5,260.5 C 169.5,261.5 169.5,262.5 169.5,263.5C 167.833,263.5 166.167,263.5 164.5,263.5C 164.5,270.5 164.5,277.5 164.5,284.5C 158.167,284.5 151.833,284.5 145.5,284.5C 145.5,276.5 145.5,268.5 145.5,260.5C 153.5,260.5 161.5,260.5 169.5,260.5 Z"/></g>
<g><path style="opacity:1" fill="#fdfdfd" d="M 85.5,264.5 C 86.1667,264.5 86.8333,264.5 87.5,264.5C 88.1255,271.584 87.4589,278.25 85.5,284.5C 85.5,277.833 85.5,271.167 85.5,264.5 Z"/></g>
<g><path style="opacity:1" fill="#ba9515" d="M 30.5,256.5 C 30.5,258.167 30.5,259.833 30.5,261.5C 33.1873,261.336 35.854,261.503 38.5,262C 39.8181,264.824 41.4848,267.324 43.5,269.5C 43.5,270.5 43.5,271.5 43.5,272.5C 41.901,272.232 40.5676,272.566 39.5,273.5C 38.8018,270.103 38.1352,266.603 37.5,263C 33.0804,262.232 28.7471,262.398 24.5,263.5C 25.5521,261.744 27.2188,261.077 29.5,261.5C 29.2155,259.585 29.5489,257.919 30.5,256.5 Z"/></g>
<g><path style="opacity:1" fill="#b79930" d="M 222.5,256.5 C 223.451,257.919 223.784,259.585 223.5,261.5C 225.5,261.5 227.5,261.5 229.5,261.5C 229.821,267.026 229.488,272.36 228.5,277.5C 228.5,272.5 228.5,267.5 228.5,262.5C 224.167,262.5 219.833,262.5 215.5,262.5C 215.31,267.37 214.644,272.036 213.5,276.5C 213.5,275.167 213.5,273.833 213.5,272.5C 212.167,272.5 210.833,272.5 209.5,272.5C 209.5,271.5 209.5,270.5 209.5,269.5C 210.735,269.721 211.735,270.388 212.5,271.5C 213.681,269.865 213.681,268.198 212.5,266.5C 214.312,262.183 217.645,260.517 222.5,261.5C 222.5,259.833 222.5,258.167 222.5,256.5 Z"/></g>
<g><path style="opacity:1" fill="#d9d9d9" d="M 168.5,284.5 C 167.5,284.5 166.5,284.5 165.5,284.5C 165.5,277.833 165.5,271.167 165.5,264.5C 166.5,264.5 167.5,264.5 168.5,264.5C 168.5,271.167 168.5,277.833 168.5,284.5 Z"/></g>
<g><path style="opacity:1" fill="#161616" d="M 148.5,264.5 C 152.833,264.5 157.167,264.5 161.5,264.5C 161.5,269.833 161.5,275.167 161.5,280.5C 157.167,280.5 152.833,280.5 148.5,280.5C 148.5,275.167 148.5,269.833 148.5,264.5 Z"/></g>
<g><path style="opacity:1" fill="#a6a6a6" d="M 149.5,265.5 C 153.167,265.5 156.833,265.5 160.5,265.5C 160.5,270.167 160.5,274.833 160.5,279.5C 156.833,279.5 153.167,279.5 149.5,279.5C 149.5,274.833 149.5,270.167 149.5,265.5 Z"/></g>
<g><path style="opacity:1" fill="#fcfcfc" d="M 150.5,266.5 C 153.5,266.5 156.5,266.5 159.5,266.5C 159.5,270.5 159.5,274.5 159.5,278.5C 156.5,278.5 153.5,278.5 150.5,278.5C 150.5,274.5 150.5,270.5 150.5,266.5 Z"/></g>
<g><path style="opacity:1" fill="#313131" d="M 151.5,267.5 C 153.833,267.5 156.167,267.5 158.5,267.5C 158.5,270.833 158.5,274.167 158.5,277.5C 156.167,277.5 153.833,277.5 151.5,277.5C 151.5,274.167 151.5,270.833 151.5,267.5 Z"/></g>
<g><path style="opacity:1" fill="#e1e1e1" d="M 152.5,268.5 C 153.833,268.5 155.167,268.5 156.5,268.5C 156.5,270.833 156.5,273.167 156.5,275.5C 155.167,275.5 153.833,275.5 152.5,275.5C 152.5,273.167 152.5,270.833 152.5,268.5 Z"/></g>
<g><path style="opacity:1" fill="#868686" d="M 83.5,260.5 C 91.9839,259.507 100.651,259.174 109.5,259.5C 109.5,268.167 109.5,276.833 109.5,285.5C 121.167,285.5 132.833,285.5 144.5,285.5C 144.5,276.833 144.5,268.167 144.5,259.5C 153.017,259.174 161.35,259.507 169.5,260.5C 161.5,260.5 153.5,260.5 145.5,260.5C 145.5,268.5 145.5,276.5 145.5,284.5C 151.833,284.5 158.167,284.5 164.5,284.5C 164.833,285.833 165.167,285.833 165.5,284.5C 166.5,284.5 167.5,284.5 168.5,284.5C 170.833,285.167 173.167,285.833 175.5,286.5C 143.5,286.5 111.5,286.5 79.5,286.5C 79.5,287.833 79.5,289.167 79.5,290.5C 78.5489,289.081 78.2155,287.415 78.5,285.5C 81.0593,285.802 83.3926,285.468 85.5,284.5C 87.4589,278.25 88.1255,271.584 87.5,264.5C 88.1667,264.5 88.5,264.167 88.5,263.5C 89.4912,270.313 89.8245,277.313 89.5,284.5C 95.8333,284.5 102.167,284.5 108.5,284.5C 108.5,276.5 108.5,268.5 108.5,260.5C 100.167,260.5 91.8333,260.5 83.5,260.5 Z"/></g>
<g><path style="opacity:1" fill="#e3e3e3" d="M 140.5,261.5 C 141.5,261.5 142.5,261.5 143.5,261.5C 143.5,269.167 143.5,276.833 143.5,284.5C 142.5,284.5 141.5,284.5 140.5,284.5C 140.5,276.833 140.5,269.167 140.5,261.5 Z"/></g>
<g><path style="opacity:1" fill="#414141" d="M 90.5,264.5 C 95.1667,264.5 99.8333,264.5 104.5,264.5C 104.5,269.833 104.5,275.167 104.5,280.5C 99.8333,280.5 95.1667,280.5 90.5,280.5C 90.5,275.167 90.5,269.833 90.5,264.5 Z"/></g>
<g><path style="opacity:1" fill="#ececec" d="M 92.5,265.5 C 95.8333,265.5 99.1667,265.5 102.5,265.5C 102.5,269.833 102.5,274.167 102.5,278.5C 99.1667,278.5 95.8333,278.5 92.5,278.5C 92.5,274.167 92.5,269.833 92.5,265.5 Z"/></g>
<g><path style="opacity:1" fill="#3d3d3d" d="M 94.5,267.5 C 96.8333,267.5 99.1667,267.5 101.5,267.5C 101.5,270.833 101.5,274.167 101.5,277.5C 99.1667,277.5 96.8333,277.5 94.5,277.5C 94.5,274.167 94.5,270.833 94.5,267.5 Z"/></g>
<g><path style="opacity:1" fill="#f1f1f1" d="M 95.5,268.5 C 96.8333,268.5 98.1667,268.5 99.5,268.5C 99.5,270.833 99.5,273.167 99.5,275.5C 98.1667,275.5 96.8333,275.5 95.5,275.5C 95.5,273.167 95.5,270.833 95.5,268.5 Z"/></g>
<g><path style="opacity:1" fill="#d5d5d5" d="M 110.5,261.5 C 111.5,261.5 112.5,261.5 113.5,261.5C 113.5,269.167 113.5,276.833 113.5,284.5C 112.5,284.5 111.5,284.5 110.5,284.5C 110.5,276.833 110.5,269.167 110.5,261.5 Z"/></g>
<g><path style="opacity:1" fill="#f9f9f9" d="M 114.5,261.5 C 122.833,261.5 131.167,261.5 139.5,261.5C 139.5,269.167 139.5,276.833 139.5,284.5C 131.167,284.5 122.833,284.5 114.5,284.5C 114.5,276.833 114.5,269.167 114.5,261.5 Z"/></g>
<g><path style="opacity:1" fill="#fefefe" d="M 175.5,286.5 C 175.5,287.833 175.5,289.167 175.5,290.5C 143.5,290.5 111.5,290.5 79.5,290.5C 79.5,289.167 79.5,287.833 79.5,286.5C 111.5,286.5 143.5,286.5 175.5,286.5 Z"/></g>
<g><path style="opacity:1" fill="#373433" d="M 83.5,264.5 C 84.1667,264.5 84.8333,264.5 85.5,264.5C 85.5,271.167 85.5,277.833 85.5,284.5C 83.3926,285.468 81.0593,285.802 78.5,285.5C 78.2155,287.415 78.5489,289.081 79.5,290.5C 111.5,290.5 143.5,290.5 175.5,290.5C 175.5,290.833 175.5,291.167 175.5,291.5C 142.833,291.5 110.167,291.5 77.5,291.5C 77.5,289.167 77.5,286.833 77.5,284.5C 79.5,284.5 81.5,284.5 83.5,284.5C 83.5,277.833 83.5,271.167 83.5,264.5 Z"/></g>
<g><path style="opacity:1" fill="#264b64" d="M 77.5,291.5 C 110.167,291.5 142.833,291.5 175.5,291.5C 175.833,291.5 176.167,291.5 176.5,291.5C 176.5,291.833 176.5,292.167 176.5,292.5C 176.5,293.167 176.167,293.5 175.5,293.5C 143.167,292.167 110.833,292.167 78.5,293.5C 77.8333,293.5 77.5,293.167 77.5,292.5C 77.5,292.167 77.5,291.833 77.5,291.5 Z"/></g>
<g><path style="opacity:1" fill="#68addf" d="M 78.5,293.5 C 110.833,292.167 143.167,292.167 175.5,293.5C 163.704,296.43 151.704,298.263 139.5,299C 134.699,299.984 130.532,302.15 127,305.5C 116.109,299.096 104.276,296.262 91.5,297C 86.9146,296.604 82.5813,295.438 78.5,293.5 Z"/></g>
<g><path style="opacity:1" fill="#f2d414" d="M 39.5,273.5 C 44.3069,303.639 61.9736,319.306 92.5,320.5C 92.5,321.5 92.5,322.5 92.5,323.5C 91.5176,327.316 90.8509,331.316 90.5,335.5C 84.4707,335.575 78.4707,335.241 72.5,334.5C 49.7665,330.605 34.9332,317.605 28,295.5C 25.0295,285.039 23.8628,274.372 24.5,263.5C 28.7471,262.398 33.0804,262.232 37.5,263C 38.1352,266.603 38.8018,270.103 39.5,273.5 Z"/></g>
<g><path style="opacity:1" fill="#394574" d="M 35.5,289.5 C 39.8008,289.233 41.6342,291.233 41,295.5C 40.1004,293.602 38.9337,291.936 37.5,290.5C 36.7189,291.729 36.2189,293.062 36,294.5C 35.1824,290.677 34.0157,290.51 32.5,294C 33.1868,295.162 33.3534,296.328 33,297.5C 31.8855,296 31.0521,294.333 30.5,292.5C 32.1446,291.304 33.8113,290.304 35.5,289.5 Z"/></g>
<g><path style="opacity:1" fill="#4a556a" d="M 29.5,279.5 C 29.6227,281.208 29.9561,283.041 30.5,285C 30.8333,285.167 31.1667,285.333 31.5,285.5C 32.2978,283.922 32.7978,282.256 33,280.5C 36.914,278.961 38.5807,280.294 38,284.5C 37.2825,285.451 36.4491,285.617 35.5,285C 36.7472,283.506 36.7472,282.006 35.5,280.5C 34.7696,282.341 34.1029,284.175 33.5,286C 28.5705,286.427 27.2372,284.26 29.5,279.5 Z"/></g>
<g><path style="opacity:1" fill="#57586a" d="M 38.5,304.5 C 38.6309,303.624 38.2975,302.957 37.5,302.5C 36.549,303.326 35.549,303.492 34.5,303C 37.0048,301.247 39.6714,299.747 42.5,298.5C 42.6479,301.099 41.3145,303.099 38.5,304.5 Z"/></g>
<g><path style="opacity:1" fill="#4d536b" d="M 38.5,304.5 C 41.0266,304.647 43.6933,304.98 46.5,305.5C 44.0556,308.059 41.3889,309.393 38.5,309.5C 39.6651,308.416 40.9984,307.583 42.5,307C 40.5,306.667 38.5,306.333 36.5,306C 37.0442,305.283 37.7109,304.783 38.5,304.5 Z"/></g>
<g><path style="opacity:1" fill="#424972" d="M 50.5,310.5 C 48.5,310.5 47.5,311.5 47.5,313.5C 45.856,314.366 44.1893,314.866 42.5,315C 44.6667,312.833 46.8333,310.667 49,308.5C 49.7172,309.044 50.2172,309.711 50.5,310.5 Z"/></g>
<g><path style="opacity:1" fill="#ebd31b" d="M 50.5,310.5 C 52.0741,314.009 51.0741,315.009 47.5,313.5C 47.5,311.5 48.5,310.5 50.5,310.5 Z"/></g>
<g><path style="opacity:1" fill="#454a71" d="M 50.5,310.5 C 52.2132,311.635 52.8799,313.302 52.5,315.5C 50.2188,315.923 48.5521,315.256 47.5,313.5C 51.0741,315.009 52.0741,314.009 50.5,310.5 Z"/></g>
<g><path style="opacity:1" fill="#404c6f" d="M 56.5,320.5 C 57.7562,320.461 58.7562,320.961 59.5,322C 58.0024,322.585 57.0024,322.085 56.5,320.5 Z"/></g>
<g><path style="opacity:1" fill="#3e4574" d="M 56.5,320.5 C 54.5,320.5 53.5,321.5 53.5,323.5C 52.6236,323.631 51.9569,323.298 51.5,322.5C 53.3333,320.167 55.1667,317.833 57,315.5C 58.918,316.542 60.7513,317.708 62.5,319C 60.7445,319.14 59.0778,318.64 57.5,317.5C 55.4807,318.133 55.1474,319.133 56.5,320.5 Z"/></g>
<g><path style="opacity:1" fill="#4b506d" d="M 53.5,323.5 C 55.8004,323.522 56.967,324.522 57,326.5C 55.4815,325.837 54.3149,324.837 53.5,323.5 Z"/></g>
<g><path style="opacity:1" fill="#3c4773" d="M 70.5,322.5 C 69.1779,322.67 68.0113,322.337 67,321.5C 66.3076,322.025 65.8076,322.692 65.5,323.5C 66.8498,324.95 68.5165,325.617 70.5,325.5C 70.13,331.261 69.13,331.594 67.5,326.5C 65.4154,325.353 63.9154,326.02 63,328.5C 63.3594,325.888 63.8594,323.221 64.5,320.5C 66.8984,320.259 68.8984,320.926 70.5,322.5 Z"/></g>
<g><path style="opacity:1" fill="#d3b740" d="M 70.5,322.5 C 71.8333,323.5 71.8333,324.5 70.5,325.5C 68.5165,325.617 66.8498,324.95 65.5,323.5C 65.8076,322.692 66.3076,322.025 67,321.5C 68.0113,322.337 69.1779,322.67 70.5,322.5 Z"/></g>
<g><path style="opacity:1" fill="#efd117" d="M 228.5,277.5 C 226.716,308.616 210.716,327.949 180.5,335.5C 179.833,337.167 179.167,338.833 178.5,340.5C 161.76,346.655 144.427,349.655 126.5,349.5C 116.783,349.238 107.117,348.405 97.5,347C 90.3948,346.328 83.7282,344.494 77.5,341.5C 77.3893,340.883 77.056,340.383 76.5,340C 81.4313,338.683 86.4313,337.85 91.5,337.5C 92.2949,333.215 92.6282,328.881 92.5,324.5C 93.5,324.5 94.5,324.5 95.5,324.5C 117.243,330.004 138.91,329.671 160.5,323.5C 160.5,322.5 160.5,321.5 160.5,320.5C 189.791,319.523 207.457,304.856 213.5,276.5C 214.644,272.036 215.31,267.37 215.5,262.5C 219.833,262.5 224.167,262.5 228.5,262.5C 228.5,267.5 228.5,272.5 228.5,277.5 Z"/></g>
<g><path style="opacity:1" fill="#384673" d="M 186.5,320.5 C 187.251,319.427 188.251,319.26 189.5,320C 190.567,322.098 191.067,324.265 191,326.5C 189.419,324.425 187.585,324.425 185.5,326.5C 186.326,327.451 186.492,328.451 186,329.5C 184.744,327.246 183.577,324.912 182.5,322.5C 183.32,320.889 184.654,320.222 186.5,320.5 Z"/></g>
<g><path style="opacity:1" fill="#474e6e" d="M 196.5,322.5 C 197.702,323.405 199.036,323.405 200.5,322.5C 198.998,325.022 197.665,325.022 196.5,322.5 Z"/></g>
<g><path style="opacity:1" fill="#44516c" d="M 200.5,322.5 C 201.002,320.915 202.002,320.415 203.5,321C 202.756,322.039 201.756,322.539 200.5,322.5 Z"/></g>
<g><path style="opacity:1" fill="#dac729" d="M 186.5,320.5 C 187.995,320.415 188.995,321.081 189.5,322.5C 188.15,323.95 186.484,324.617 184.5,324.5C 184.527,322.801 185.194,321.467 186.5,320.5 Z"/></g>
<g><path style="opacity:1" fill="#324276" d="M 194.5,319.5 C 195.5,319.5 196.5,319.5 197.5,319.5C 196.89,320.391 196.557,321.391 196.5,322.5C 195.094,322.027 194.427,321.027 194.5,319.5 Z"/></g>
<g><path style="opacity:1" fill="#44516c" d="M 197.5,319.5 C 198.002,317.915 199.002,317.415 200.5,318C 199.756,319.039 198.756,319.539 197.5,319.5 Z"/></g>
<g><path style="opacity:1" fill="#3f4872" d="M 194.5,319.5 C 191.812,317.775 192.145,316.442 195.5,315.5C 195.833,315.667 196.167,315.833 196.5,316C 195.177,316.816 194.511,317.983 194.5,319.5 Z"/></g>
<g><path style="opacity:1" fill="#f8db10" d="M 204.5,314.5 C 203.4,313.395 202.733,312.062 202.5,310.5C 207.414,308.599 209.414,310.099 208.5,315C 207.181,315.195 205.847,315.028 204.5,314.5 Z"/></g>
<g><path style="opacity:1" fill="#3f3e79" d="M 202.5,310.5 C 202.733,312.062 203.4,313.395 204.5,314.5C 202.804,314.315 201.471,313.481 200.5,312C 201.044,311.283 201.711,310.783 202.5,310.5 Z"/></g>
<g><path style="opacity:1" fill="#595a67" d="M 204.5,314.5 C 205.847,315.028 207.181,315.195 208.5,315C 209.414,310.099 207.414,308.599 202.5,310.5C 203.191,308.978 204.358,307.978 206,307.5C 212.424,310.211 212.924,313.544 207.5,317.5C 206.145,316.812 205.145,315.812 204.5,314.5 Z"/></g>
<g><path style="opacity:1" fill="#313c7b" d="M 212.5,305.5 C 213.756,305.461 214.756,305.961 215.5,307C 214.002,307.585 213.002,307.085 212.5,305.5 Z"/></g>
<g><path style="opacity:1" fill="#3a4674" d="M 212.5,305.5 C 210.577,305.205 208.91,304.372 207.5,303C 209.668,302.751 211.335,303.584 212.5,305.5 Z"/></g>
<g><path style="opacity:1" fill="#364773" d="M 215.5,300.5 C 217.802,299.538 219.802,298.372 221.5,297C 220.458,298.918 219.292,300.751 218,302.5C 217.005,301.934 216.172,301.267 215.5,300.5 Z"/></g>
<g><path style="opacity:1" fill="#1f357f" d="M 215.5,300.5 C 214.209,300.737 213.209,300.404 212.5,299.5C 213.75,299.423 214.583,298.756 215,297.5C 215.483,298.448 215.649,299.448 215.5,300.5 Z"/></g>
<g><path style="opacity:1" fill="#434873" d="M 212.5,299.5 C 210.19,297.722 210.356,295.722 213,293.5C 213.265,295.163 212.765,296.663 211.5,298C 212.056,298.383 212.389,298.883 212.5,299.5 Z"/></g>
<g><path style="opacity:1" fill="#454d6f" d="M 215.5,282.5 C 225.39,283.972 225.724,286.138 216.5,289C 217.5,289.333 218.5,289.667 219.5,290C 217.421,290.808 215.421,290.641 213.5,289.5C 215.416,287.683 217.749,286.516 220.5,286C 218.404,285.263 216.737,284.097 215.5,282.5 Z"/></g>
<g><path style="opacity:1" fill="#51546a" d="M 217.5,272.5 C 217.724,274.046 218.057,275.713 218.5,277.5C 219.556,275.354 221.056,273.688 223,272.5C 223.772,272.645 224.439,272.978 225,273.5C 225.667,275.167 225.667,276.833 225,278.5C 224.51,277.207 224.343,275.873 224.5,274.5C 223.5,274.5 222.5,274.5 221.5,274.5C 221.707,277.127 220.54,278.793 218,279.5C 214.897,277.363 214.73,275.03 217.5,272.5 Z"/></g>
<g><path style="opacity:1" fill="#4e536b" d="M 173.5,322.5 C 175.665,322.116 177.332,322.783 178.5,324.5C 178.333,324.833 178.167,325.167 178,325.5C 176.333,322.833 174.667,322.833 173,325.5C 172.057,329.719 173.557,331.385 177.5,330.5C 178.113,329.02 178.446,327.687 178.5,326.5C 180.217,327.668 180.884,329.335 180.5,331.5C 171.793,333.459 169.459,330.459 173.5,322.5 Z"/></g>
<g><path style="opacity:1" fill="#424b71" d="M 134.5,333.5 C 140.589,334.701 141.923,337.867 138.5,343C 133.057,344.873 130.557,343.04 131,337.5C 131.69,335.65 132.856,334.316 134.5,333.5 Z"/></g>
<g><path style="opacity:1" fill="#21377d" d="M 113.5,334.5 C 115.527,334.338 117.527,334.505 119.5,335C 120.833,336.333 120.833,337.667 119.5,339C 117.866,339.494 116.199,339.66 114.5,339.5C 114.649,340.552 114.483,341.552 114,342.5C 113.503,339.854 113.336,337.187 113.5,334.5 Z"/></g>
<g><path style="opacity:1" fill="#213a7b" d="M 128.5,338.5 C 129.473,340.068 129.64,341.735 129,343.5C 128.693,340.124 126.86,338.79 123.5,339.5C 123.657,340.873 123.49,342.207 123,343.5C 122.502,340.518 122.335,337.518 122.5,334.5C 124.527,334.338 126.527,334.505 128.5,335C 129.791,336.292 129.791,337.458 128.5,338.5 Z"/></g>
<g><path style="opacity:1" fill="#e8cf1d" d="M 128.5,338.5 C 126.833,338.5 125.167,338.5 123.5,338.5C 123.5,337.5 123.5,336.5 123.5,335.5C 126.285,334.916 127.952,335.916 128.5,338.5 Z"/></g>
<g><path style="opacity:1" fill="#f3d614" d="M 133.5,335.5 C 138.328,335.385 139.661,337.552 137.5,342C 132.57,342.427 131.237,340.26 133.5,335.5 Z"/></g>
<g><path style="opacity:1" fill="#d1bf27" d="M 114.5,335.5 C 121.167,336.5 121.167,337.5 114.5,338.5C 114.5,337.5 114.5,336.5 114.5,335.5 Z"/></g>
<g><path style="opacity:1" fill="#bda611" d="M 92.5,323.5 C 93.791,323.263 94.791,323.596 95.5,324.5C 94.5,324.5 93.5,324.5 92.5,324.5C 92.6282,328.881 92.2949,333.215 91.5,337.5C 86.4313,337.85 81.4313,338.683 76.5,340C 77.056,340.383 77.3893,340.883 77.5,341.5C 76.5041,341.586 75.6708,341.252 75,340.5C 74.7635,338.155 73.9302,336.155 72.5,334.5C 78.4707,335.241 84.4707,335.575 90.5,335.5C 90.8509,331.316 91.5176,327.316 92.5,323.5 Z"/></g>
</svg>
