<?xml version="1.0" encoding="UTF-8"?>
<!DOCTYPE svg PUBLIC "-//W3C//DTD SVG 1.1//EN" "http://www.w3.org/Graphics/SVG/1.1/DTD/svg11.dtd">
<svg xmlns="http://www.w3.org/2000/svg" version="1.1" width="500px" height="500px" style="shape-rendering:geometricPrecision; text-rendering:geometricPrecision; image-rendering:optimizeQuality; fill-rule:evenodd; clip-rule:evenodd" xmlns:xlink="http://www.w3.org/1999/xlink">
<g><path style="opacity:0.994" fill="#fefefe" d="M 225.5,-0.5 C 241.5,-0.5 257.5,-0.5 273.5,-0.5C 328.71,5.7761 377.043,27.2761 418.5,64C 426.072,71.0685 433.072,78.5685 439.5,86.5C 376.524,124.993 313.19,162.993 249.5,200.5C 185.81,162.993 122.476,124.993 59.5,86.5C 103.587,36.4525 158.921,7.45247 225.5,-0.5 Z"/></g>
<g><path style="opacity:0.997" fill="#bf0100" d="M 59.5,86.5 C 122.476,124.993 185.81,162.993 249.5,200.5C 313.19,162.993 376.524,124.993 439.5,86.5C 458.405,107.622 472.738,131.622 482.5,158.5C 432.064,188.556 381.731,218.889 331.5,249.5C 381.695,280.096 432.028,310.429 482.5,340.5C 472.738,367.378 458.405,391.378 439.5,412.5C 376.629,374.142 313.463,336.142 250,298.5C 186.039,335.89 122.539,373.89 59.5,412.5C 40.6001,391.39 26.2668,367.39 16.5,340.5C 66.9716,310.429 117.305,280.096 167.5,249.5C 117.269,218.889 66.9358,188.556 16.5,158.5C 24.0526,138.059 34.2193,119.059 47,101.5C 51.1851,96.4293 55.3518,91.4293 59.5,86.5 Z"/></g>
<g><path style="opacity:0.993" fill="#fefefe" d="M 16.5,158.5 C 66.9358,188.556 117.269,218.889 167.5,249.5C 117.305,280.096 66.9716,310.429 16.5,340.5C 7.6588,318.957 1.99213,296.623 -0.5,273.5C -0.5,257.5 -0.5,241.5 -0.5,225.5C 1.99213,202.377 7.6588,180.043 16.5,158.5 Z"/></g>
<g><path style="opacity:0.993" fill="#fefefe" d="M 482.5,158.5 C 491.302,179.709 496.969,201.709 499.5,224.5C 499.5,241.167 499.5,257.833 499.5,274.5C 497.529,288.859 494.695,303.192 491,317.5C 489.026,325.601 486.192,333.268 482.5,340.5C 432.028,310.429 381.695,280.096 331.5,249.5C 381.731,218.889 432.064,188.556 482.5,158.5 Z"/></g>
<g><path style="opacity:0.994" fill="#fefefe" d="M 439.5,412.5 C 395.893,462.699 340.893,491.699 274.5,499.5C 257.833,499.5 241.167,499.5 224.5,499.5C 158.106,491.698 103.106,462.698 59.5,412.5C 122.539,373.89 186.039,335.89 250,298.5C 313.463,336.142 376.629,374.142 439.5,412.5 Z"/></g>
</svg>
