<?xml version="1.0" encoding="UTF-8"?>
<!DOCTYPE svg PUBLIC "-//W3C//DTD SVG 1.1//EN" "http://www.w3.org/Graphics/SVG/1.1/DTD/svg11.dtd">
<svg xmlns="http://www.w3.org/2000/svg" version="1.1" width="500px" height="500px" style="shape-rendering:geometricPrecision; text-rendering:geometricPrecision; image-rendering:optimizeQuality; fill-rule:evenodd; clip-rule:evenodd" xmlns:xlink="http://www.w3.org/1999/xlink">
<g><path style="opacity:0.994" fill="#d21034" d="M 225.5,-0.5 C 241.5,-0.5 257.5,-0.5 273.5,-0.5C 362.269,10.9489 428.436,55.6156 472,133.5C 477.625,144.077 482.125,155.077 485.5,166.5C 370.167,166.5 254.833,166.5 139.5,166.5C 109.5,144.167 79.5,121.833 49.5,99.5C 75.8596,63.6346 109.526,36.8012 150.5,19C 174.691,8.87002 199.691,2.37002 225.5,-0.5 Z"/></g>
<g><path style="opacity:0.995" fill="#007129" d="M 49.5,99.5 C 79.5,121.833 109.5,144.167 139.5,166.5C 175.983,193.915 212.317,221.582 248.5,249.5C 212.317,277.418 175.983,305.085 139.5,332.5C 109.5,354.833 79.5,377.167 49.5,399.5C 27.9017,371.624 13.0683,340.291 5,305.5C 2.82502,294.747 0.991684,284.08 -0.5,273.5C -0.5,257.5 -0.5,241.5 -0.5,225.5C 3.5777,189.764 14.411,156.097 32,124.5C 36.9179,115.434 42.7512,107.1 49.5,99.5 Z"/></g>
<g><path style="opacity:0.998" fill="#fefefe" d="M 139.5,166.5 C 254.833,166.5 370.167,166.5 485.5,166.5C 492.586,185.267 497.253,204.6 499.5,224.5C 499.5,241.167 499.5,257.833 499.5,274.5C 498.1,284.764 496.267,295.098 494,305.5C 492.031,314.9 489.198,323.9 485.5,332.5C 370.167,332.5 254.833,332.5 139.5,332.5C 175.983,305.085 212.317,277.418 248.5,249.5C 212.317,221.582 175.983,193.915 139.5,166.5 Z"/></g>
<g><path style="opacity:0.994" fill="#000000" d="M 139.5,332.5 C 254.833,332.5 370.167,332.5 485.5,332.5C 459.059,404.776 410.059,455.276 338.5,484C 317.652,491.713 296.319,496.88 274.5,499.5C 257.833,499.5 241.167,499.5 224.5,499.5C 157.332,491.001 101.499,461.335 57,410.5C 53.9854,407.122 51.4854,403.456 49.5,399.5C 79.5,377.167 109.5,354.833 139.5,332.5 Z"/></g>
</svg>
