<?xml version="1.0" encoding="UTF-8"?>
<!DOCTYPE svg PUBLIC "-//W3C//DTD SVG 1.1//EN" "http://www.w3.org/Graphics/SVG/1.1/DTD/svg11.dtd">
<svg xmlns="http://www.w3.org/2000/svg" version="1.1" width="500px" height="500px" style="shape-rendering:geometricPrecision; text-rendering:geometricPrecision; image-rendering:optimizeQuality; fill-rule:evenodd; clip-rule:evenodd" xmlns:xlink="http://www.w3.org/1999/xlink">
<g><path style="opacity:0.99" fill="#377e3f" d="M 225.5,-0.5 C 241.5,-0.5 257.5,-0.5 273.5,-0.5C 341.119,7.64869 397.286,37.3154 442,88.5C 445.015,91.8777 447.515,95.5444 449.5,99.5C 316.167,99.5 182.833,99.5 49.5,99.5C 75.8596,63.6346 109.526,36.8012 150.5,19C 174.691,8.87002 199.691,2.37002 225.5,-0.5 Z"/></g>
<g><path style="opacity:0.997" fill="#fefefe" d="M 49.5,99.5 C 182.833,99.5 316.167,99.5 449.5,99.5C 453.798,104.071 457.631,109.071 461,114.5C 467.704,125.909 473.87,137.575 479.5,149.5C 326.167,149.5 172.833,149.5 19.5,149.5C 27.4891,131.504 37.4891,114.837 49.5,99.5 Z"/></g>
<g><path style="opacity:0.997" fill="#b40a2d" d="M 19.5,149.5 C 172.833,149.5 326.167,149.5 479.5,149.5C 489.783,173.637 496.449,198.637 499.5,224.5C 499.5,241.167 499.5,257.833 499.5,274.5C 496.447,300.373 489.78,325.373 479.5,349.5C 326.167,349.5 172.833,349.5 19.5,349.5C 9.05745,325.058 2.39079,299.725 -0.5,273.5C -0.5,257.5 -0.5,241.5 -0.5,225.5C 2.39079,199.275 9.05745,173.942 19.5,149.5 Z"/></g>
<g><path style="opacity:1" fill="#ebc71d" d="M 271.5,227.5 C 295.5,228.167 319.5,228.833 343.5,229.5C 326.713,241.114 310.046,252.947 293.5,265C 290.487,266.679 288.154,269.013 286.5,272C 293.95,294.714 300.95,317.214 307.5,339.5C 288.446,325.113 269.113,311.113 249.5,297.5C 230.146,310.844 211.146,324.677 192.5,339C 191.833,339.667 191.167,339.667 190.5,339C 198.429,316.879 205.763,294.546 212.5,272C 212.167,271.167 211.833,270.333 211.5,269.5C 193.094,255.754 174.427,242.42 155.5,229.5C 179.5,228.833 203.5,228.167 227.5,227.5C 234.433,205.034 241.766,182.701 249.5,160.5C 257.234,182.701 264.567,205.035 271.5,227.5 Z"/></g>
<g><path style="opacity:1" fill="#c64728" d="M 227.5,227.5 C 203.5,228.167 179.5,228.833 155.5,229.5C 154.957,229.44 154.624,229.107 154.5,228.5C 178.824,227.5 203.158,227.167 227.5,227.5 Z"/></g>
<g><path style="opacity:1" fill="#c64728" d="M 271.5,227.5 C 295.842,227.167 320.176,227.5 344.5,228.5C 344.376,229.107 344.043,229.44 343.5,229.5C 319.5,228.833 295.5,228.167 271.5,227.5 Z"/></g>
<g><path style="opacity:0.996" fill="#fefefe" d="M 19.5,349.5 C 172.833,349.5 326.167,349.5 479.5,349.5C 471.867,367.444 462.2,384.111 450.5,399.5C 316.833,399.5 183.167,399.5 49.5,399.5C 45.2023,394.929 41.369,389.929 38,384.5C 31.2963,373.091 25.1296,361.425 19.5,349.5 Z"/></g>
<g><path style="opacity:0.99" fill="#377e3f" d="M 49.5,399.5 C 183.167,399.5 316.833,399.5 450.5,399.5C 405.854,457.166 347.187,490.499 274.5,499.5C 257.833,499.5 241.167,499.5 224.5,499.5C 157.332,491.001 101.499,461.335 57,410.5C 53.9854,407.122 51.4854,403.456 49.5,399.5 Z"/></g>
</svg>
