<?xml version="1.0" encoding="UTF-8"?>
<!DOCTYPE svg PUBLIC "-//W3C//DTD SVG 1.1//EN" "http://www.w3.org/Graphics/SVG/1.1/DTD/svg11.dtd">
<svg xmlns="http://www.w3.org/2000/svg" version="1.1" width="500px" height="500px" style="shape-rendering:geometricPrecision; text-rendering:geometricPrecision; image-rendering:optimizeQuality; fill-rule:evenodd; clip-rule:evenodd" xmlns:xlink="http://www.w3.org/1999/xlink">
<g><path style="opacity:0.995" fill="#005193" d="M 225.5,-0.5 C 241.5,-0.5 257.5,-0.5 273.5,-0.5C 358.119,10.3302 422.619,51.9969 467,124.5C 480.379,147.593 489.546,172.26 494.5,198.5C 396.5,198.5 298.5,198.5 200.5,198.5C 200.5,133.5 200.5,68.5 200.5,3.5C 208.963,2.15037 217.296,0.817038 225.5,-0.5 Z"/></g>
<g><path style="opacity:0.997" fill="#fdca00" d="M 199.5,3.5 C 199.5,68.8333 199.5,134.167 199.5,199.5C 298.167,199.5 396.833,199.5 495.5,199.5C 496.748,207.982 498.081,216.315 499.5,224.5C 499.5,241.167 499.5,257.833 499.5,274.5C 498.183,282.703 496.85,291.036 495.5,299.5C 396.833,299.5 298.167,299.5 199.5,299.5C 199.5,364.833 199.5,430.167 199.5,495.5C 162.5,487.66 129.167,472.326 99.5,449.5C 99.5,399.5 99.5,349.5 99.5,299.5C 67.5,299.5 35.5,299.5 3.5,299.5C 2.24244,290.687 0.909111,282.02 -0.5,273.5C -0.5,257.5 -0.5,241.5 -0.5,225.5C 0.909111,216.98 2.24244,208.313 3.5,199.5C 35.5,199.5 67.5,199.5 99.5,199.5C 99.5,149.5 99.5,99.5 99.5,49.5C 129.167,26.6736 162.5,11.3403 199.5,3.5 Z"/></g>
<g><path style="opacity:0.997" fill="#125b88" d="M 98.5,49.5 C 98.8333,49.5 99.1667,49.5 99.5,49.5C 99.5,99.5 99.5,149.5 99.5,199.5C 67.5,199.5 35.5,199.5 3.5,199.5C 3.5,198.833 3.83333,198.5 4.5,198.5C 35.8333,198.5 67.1667,198.5 98.5,198.5C 98.5,148.833 98.5,99.1667 98.5,49.5 Z"/></g>
<g><path style="opacity:0.987" fill="#005193" d="M 98.5,49.5 C 98.5,99.1667 98.5,148.833 98.5,198.5C 67.1667,198.5 35.8333,198.5 4.5,198.5C 17.4017,136.993 48.735,87.326 98.5,49.5 Z"/></g>
<g><path style="opacity:1" fill="#125b88" d="M 199.5,3.5 C 199.833,3.5 200.167,3.5 200.5,3.5C 200.5,68.5 200.5,133.5 200.5,198.5C 298.5,198.5 396.5,198.5 494.5,198.5C 495.167,198.5 495.5,198.833 495.5,199.5C 396.833,199.5 298.167,199.5 199.5,199.5C 199.5,134.167 199.5,68.8333 199.5,3.5 Z"/></g>
<g><path style="opacity:1" fill="#125b88" d="M 495.5,299.5 C 495.5,300.167 495.167,300.5 494.5,300.5C 396.5,300.5 298.5,300.5 200.5,300.5C 200.5,365.5 200.5,430.5 200.5,495.5C 200.167,495.5 199.833,495.5 199.5,495.5C 199.5,430.167 199.5,364.833 199.5,299.5C 298.167,299.5 396.833,299.5 495.5,299.5 Z"/></g>
<g><path style="opacity:0.987" fill="#005193" d="M 4.5,300.5 C 35.8333,300.5 67.1667,300.5 98.5,300.5C 98.5,350.167 98.5,399.833 98.5,449.5C 48.735,411.674 17.4017,362.007 4.5,300.5 Z"/></g>
<g><path style="opacity:0.998" fill="#125b88" d="M 3.5,299.5 C 35.5,299.5 67.5,299.5 99.5,299.5C 99.5,349.5 99.5,399.5 99.5,449.5C 99.1667,449.5 98.8333,449.5 98.5,449.5C 98.5,399.833 98.5,350.167 98.5,300.5C 67.1667,300.5 35.8333,300.5 4.5,300.5C 3.83333,300.5 3.5,300.167 3.5,299.5 Z"/></g>
<g><path style="opacity:0.995" fill="#005193" d="M 494.5,300.5 C 479.517,368.999 442.85,422.499 384.5,461C 350.659,482.096 313.992,494.929 274.5,499.5C 257.833,499.5 241.167,499.5 224.5,499.5C 216.629,498.188 208.629,496.855 200.5,495.5C 200.5,430.5 200.5,365.5 200.5,300.5C 298.5,300.5 396.5,300.5 494.5,300.5 Z"/></g>
</svg>
