<?xml version="1.0" encoding="UTF-8"?>
<!DOCTYPE svg PUBLIC "-//W3C//DTD SVG 1.1//EN" "http://www.w3.org/Graphics/SVG/1.1/DTD/svg11.dtd">
<svg xmlns="http://www.w3.org/2000/svg" version="1.1" width="500px" height="500px" style="shape-rendering:geometricPrecision; text-rendering:geometricPrecision; image-rendering:optimizeQuality; fill-rule:evenodd; clip-rule:evenodd" xmlns:xlink="http://www.w3.org/1999/xlink">
<g><path style="opacity:0.993" fill="#ff0000" d="M 225.5,-0.5 C 241.5,-0.5 257.5,-0.5 273.5,-0.5C 362.269,10.9489 428.436,55.6156 472,133.5C 486.559,162.333 495.726,192.666 499.5,224.5C 499.5,241.167 499.5,257.833 499.5,274.5C 487.764,361.841 443.764,427.341 367.5,471C 338.093,486.083 307.093,495.583 274.5,499.5C 257.833,499.5 241.167,499.5 224.5,499.5C 132.596,487.072 65.4294,439.739 23,357.5C 10.7506,330.604 2.91724,302.604 -0.5,273.5C -0.5,257.5 -0.5,241.5 -0.5,225.5C 11.4543,135.075 57.4543,68.242 137.5,25C 165.514,11.5012 194.847,3.00119 225.5,-0.5 Z"/></g>
<g><path style="opacity:1" fill="#fffefe" d="M 202.5,93.5 C 233.833,93.5 265.167,93.5 296.5,93.5C 296.5,129.833 296.5,166.167 296.5,202.5C 332.833,202.5 369.167,202.5 405.5,202.5C 405.5,233.833 405.5,265.167 405.5,296.5C 369.167,296.5 332.833,296.5 296.5,296.5C 296.5,332.833 296.5,369.167 296.5,405.5C 265.167,405.5 233.833,405.5 202.5,405.5C 202.5,369.167 202.5,332.833 202.5,296.5C 166.167,296.5 129.833,296.5 93.5,296.5C 93.5,265.167 93.5,233.833 93.5,202.5C 129.833,202.5 166.167,202.5 202.5,202.5C 202.5,166.167 202.5,129.833 202.5,93.5 Z"/></g>
</svg>
