<?xml version="1.0" encoding="UTF-8"?>
<!DOCTYPE svg PUBLIC "-//W3C//DTD SVG 1.1//EN" "http://www.w3.org/Graphics/SVG/1.1/DTD/svg11.dtd">
<svg xmlns="http://www.w3.org/2000/svg" version="1.1" width="500px" height="500px" style="shape-rendering:geometricPrecision; text-rendering:geometricPrecision; image-rendering:optimizeQuality; fill-rule:evenodd; clip-rule:evenodd" xmlns:xlink="http://www.w3.org/1999/xlink">
<g><path style="opacity:0.993" fill="#ce1126" d="M 225.5,-0.5 C 241.5,-0.5 257.5,-0.5 273.5,-0.5C 362.269,10.9489 428.436,55.6156 472,133.5C 477.625,144.077 482.125,155.077 485.5,166.5C 328.167,166.5 170.833,166.5 13.5,166.5C 43.991,84.513 101.324,31.3463 185.5,7C 198.832,3.72528 212.166,1.22528 225.5,-0.5 Z"/></g>
<g><path style="opacity:0.997" fill="#fefefe" d="M 13.5,166.5 C 170.833,166.5 328.167,166.5 485.5,166.5C 492.586,185.267 497.253,204.6 499.5,224.5C 499.5,241.167 499.5,257.833 499.5,274.5C 498.1,284.764 496.267,295.098 494,305.5C 492.031,314.9 489.198,323.9 485.5,332.5C 328.167,332.5 170.833,332.5 13.5,332.5C 6.28469,313.42 1.61802,293.754 -0.5,273.5C -0.5,257.5 -0.5,241.5 -0.5,225.5C 1.61802,205.246 6.28469,185.58 13.5,166.5 Z"/></g>
<g><path style="opacity:1" fill="#087b3f" d="M 111.5,232.5 C 123.833,233.167 136.167,233.833 148.5,234.5C 138.684,241.582 129.017,248.915 119.5,256.5C 123.74,268.376 127.24,280.376 130,292.5C 119.973,284.973 109.806,277.64 99.5,270.5C 89.1937,277.64 79.027,284.973 69,292.5C 71.7602,280.376 75.2602,268.376 79.5,256.5C 69.983,248.915 60.3164,241.582 50.5,234.5C 62.8333,233.833 75.1667,233.167 87.5,232.5C 90.8988,220.304 94.8988,208.304 99.5,196.5C 104.101,208.304 108.101,220.304 111.5,232.5 Z"/></g>
<g><path style="opacity:1" fill="#087b3f" d="M 411.5,232.5 C 423.833,233.167 436.167,233.833 448.5,234.5C 438.684,241.582 429.017,248.915 419.5,256.5C 423.74,268.376 427.24,280.376 430,292.5C 419.973,284.973 409.806,277.64 399.5,270.5C 388.86,277.973 378.36,285.64 368,293.5C 371.497,281.169 375.33,268.836 379.5,256.5C 369.983,248.915 360.316,241.582 350.5,234.5C 362.833,233.833 375.167,233.167 387.5,232.5C 390.899,220.304 394.899,208.304 399.5,196.5C 404.101,208.304 408.101,220.304 411.5,232.5 Z"/></g>
<g><path style="opacity:1" fill="#50a47a" d="M 87.5,232.5 C 75.1667,233.167 62.8333,233.833 50.5,234.5C 49.7109,234.217 49.0442,233.717 48.5,233C 61.4957,232.5 74.4957,232.333 87.5,232.5 Z"/></g>
<g><path style="opacity:1" fill="#50a479" d="M 111.5,232.5 C 124.504,232.333 137.504,232.5 150.5,233C 149.956,233.717 149.289,234.217 148.5,234.5C 136.167,233.833 123.833,233.167 111.5,232.5 Z"/></g>
<g><path style="opacity:1" fill="#50a47a" d="M 387.5,232.5 C 375.167,233.167 362.833,233.833 350.5,234.5C 349.711,234.217 349.044,233.717 348.5,233C 361.496,232.5 374.496,232.333 387.5,232.5 Z"/></g>
<g><path style="opacity:1" fill="#50a479" d="M 411.5,232.5 C 424.504,232.333 437.504,232.5 450.5,233C 449.956,233.717 449.289,234.217 448.5,234.5C 436.167,233.833 423.833,233.167 411.5,232.5 Z"/></g>
<g><path style="opacity:0.993" fill="#010101" d="M 13.5,332.5 C 170.833,332.5 328.167,332.5 485.5,332.5C 459.059,404.776 410.059,455.276 338.5,484C 317.652,491.713 296.319,496.88 274.5,499.5C 257.833,499.5 241.167,499.5 224.5,499.5C 136.144,487.759 70.3107,443.092 27,365.5C 21.3753,354.923 16.8753,343.923 13.5,332.5 Z"/></g>
</svg>
