<?xml version="1.0" encoding="UTF-8"?>
<!DOCTYPE svg PUBLIC "-//W3C//DTD SVG 1.1//EN" "http://www.w3.org/Graphics/SVG/1.1/DTD/svg11.dtd">
<svg xmlns="http://www.w3.org/2000/svg" version="1.1" width="500px" height="500px" style="shape-rendering:geometricPrecision; text-rendering:geometricPrecision; image-rendering:optimizeQuality; fill-rule:evenodd; clip-rule:evenodd" xmlns:xlink="http://www.w3.org/1999/xlink">
<g><path style="opacity:0.993" fill="#12ac2a" d="M 225.5,-0.5 C 241.5,-0.5 257.5,-0.5 273.5,-0.5C 366.325,11.687 433.992,59.3537 476.5,142.5C 476.167,142.5 475.833,142.5 475.5,142.5C 336.833,142.5 198.167,142.5 59.5,142.5C 51.5,134.833 43.5,127.167 35.5,119.5C 79.8566,49.8728 143.19,9.87285 225.5,-0.5 Z"/></g>
<g><path style="opacity:0.993" fill="#d20f34" d="M 35.5,119.5 C 43.5,127.167 51.5,134.833 59.5,142.5C 60.1667,143.833 61.1667,144.833 62.5,145.5C 96.8122,180.146 131.146,214.812 165.5,249.5C 130.146,285.188 94.8122,320.854 59.5,356.5C 51.5,364.167 43.5,371.833 35.5,379.5C 15.7211,346.83 3.72112,311.497 -0.5,273.5C -0.5,257.5 -0.5,241.5 -0.5,225.5C 3.72112,187.503 15.7211,152.17 35.5,119.5 Z"/></g>
<g><path style="opacity:1" fill="#eecb03" d="M 59.5,142.5 C 198.167,142.5 336.833,142.5 475.5,142.5C 337.664,142.834 199.997,143.834 62.5,145.5C 61.1667,144.833 60.1667,143.833 59.5,142.5 Z"/></g>
<g><path style="opacity:0.998" fill="#fecd00" d="M 475.5,142.5 C 475.833,142.5 476.167,142.5 476.5,142.5C 488.549,168.708 496.216,196.041 499.5,224.5C 499.5,241.167 499.5,257.833 499.5,274.5C 496.212,302.974 488.546,330.307 476.5,356.5C 337.5,356.5 198.5,356.5 59.5,356.5C 94.8122,320.854 130.146,285.188 165.5,249.5C 131.146,214.812 96.8122,180.146 62.5,145.5C 199.997,143.834 337.664,142.834 475.5,142.5 Z"/></g>
<g><path style="opacity:1" fill="#040300" d="M 415.5,179.5 C 416.117,179.611 416.617,179.944 417,180.5C 422.176,196.027 427.342,211.527 432.5,227C 449.5,227.333 466.5,227.667 483.5,228C 469.911,237.711 456.411,247.544 443,257.5C 447.869,273.775 452.536,290.108 457,306.5C 443.667,296.336 430.001,286.669 416,277.5C 402.371,286.958 388.871,296.625 375.5,306.5C 379.21,290.354 384.21,274.354 390.5,258.5C 376.833,248.333 363.167,238.167 349.5,228C 366.497,227.5 383.497,227.333 400.5,227.5C 405.096,211.379 410.096,195.379 415.5,179.5 Z"/></g>
<g><path style="opacity:0.993" fill="#13ad2a" d="M 59.5,356.5 C 198.5,356.5 337.5,356.5 476.5,356.5C 434.115,439.192 366.782,486.859 274.5,499.5C 257.833,499.5 241.167,499.5 224.5,499.5C 142.482,489.015 79.4816,449.015 35.5,379.5C 43.5,371.833 51.5,364.167 59.5,356.5 Z"/></g>
</svg>
