<?xml version="1.0" encoding="UTF-8"?>
<!DOCTYPE svg PUBLIC "-//W3C//DTD SVG 1.1//EN" "http://www.w3.org/Graphics/SVG/1.1/DTD/svg11.dtd">
<svg xmlns="http://www.w3.org/2000/svg" version="1.1" width="500px" height="500px" style="shape-rendering:geometricPrecision; text-rendering:geometricPrecision; image-rendering:optimizeQuality; fill-rule:evenodd; clip-rule:evenodd" xmlns:xlink="http://www.w3.org/1999/xlink">
<g><path style="opacity:0.992" fill="#cc0000" d="M 225.5,-0.5 C 241.5,-0.5 257.5,-0.5 273.5,-0.5C 366.325,11.687 433.992,59.3537 476.5,142.5C 325.5,142.5 174.5,142.5 23.5,142.5C 52.2448,81.9253 97.9115,39.4253 160.5,15C 181.712,7.32938 203.379,2.16271 225.5,-0.5 Z"/></g>
<g><path style="opacity:0.997" fill="#fefefe" d="M 23.5,142.5 C 174.5,142.5 325.5,142.5 476.5,142.5C 488.549,168.708 496.216,196.041 499.5,224.5C 499.5,241.167 499.5,257.833 499.5,274.5C 496.212,302.974 488.546,330.307 476.5,356.5C 325.167,356.5 173.833,356.5 22.5,356.5C 10.5238,329.921 2.85718,302.255 -0.5,273.5C -0.5,257.5 -0.5,241.5 -0.5,225.5C 2.6308,196.439 10.6308,168.773 23.5,142.5 Z"/></g>
<g><path style="opacity:1" fill="#f8c519" d="M 248.5,153.5 C 249.497,153.47 250.164,153.97 250.5,155C 251.578,158.149 252.578,161.316 253.5,164.5C 257.459,165.327 261.459,165.827 265.5,166C 262.667,168.167 259.833,170.333 257,172.5C 257.184,176.075 258.018,179.575 259.5,183C 259.167,183.5 258.833,184 258.5,184.5C 255.737,182.371 252.904,180.371 250,178.5C 246.597,180.119 243.43,182.119 240.5,184.5C 240.167,184 239.833,183.5 239.5,183C 240.982,179.575 241.816,176.075 242,172.5C 239.167,170.333 236.333,168.167 233.5,166C 237.541,165.827 241.541,165.327 245.5,164.5C 247.117,160.986 248.117,157.319 248.5,153.5 Z"/></g>
<g><path style="opacity:1" fill="#f8c61f" d="M 198.5,167.5 C 199.497,167.47 200.164,167.97 200.5,169C 201.401,171.871 202.401,174.704 203.5,177.5C 207.796,178.328 212.129,178.828 216.5,179C 212.77,181.195 209.437,183.862 206.5,187C 208.189,190.713 209.023,194.546 209,198.5C 205.974,195.974 202.807,193.64 199.5,191.5C 196.193,193.64 193.026,195.974 190,198.5C 190.285,194.788 191.118,191.121 192.5,187.5C 190.146,184.149 187.146,181.482 183.5,179.5C 187.5,178.833 191.5,178.167 195.5,177.5C 196.909,174.273 197.909,170.94 198.5,167.5 Z"/></g>
<g><path style="opacity:1" fill="#f8c61e" d="M 298.5,167.5 C 299.497,167.47 300.164,167.97 300.5,169C 301.401,171.871 302.401,174.704 303.5,177.5C 307.796,178.328 312.129,178.828 316.5,179C 312.77,181.195 309.437,183.862 306.5,187C 308.189,190.713 309.023,194.546 309,198.5C 305.974,195.974 302.807,193.64 299.5,191.5C 296.193,193.64 293.026,195.974 290,198.5C 290.285,194.788 291.118,191.121 292.5,187.5C 290.146,184.149 287.146,181.482 283.5,179.5C 287.5,178.833 291.5,178.167 295.5,177.5C 296.909,174.273 297.909,170.94 298.5,167.5 Z"/></g>
<g><path style="opacity:1" fill="#f8c51a" d="M 162.5,203.5 C 164.806,207.085 166.139,211.085 166.5,215.5C 170.846,215.334 175.179,215.501 179.5,216C 175.988,218.257 172.654,220.757 169.5,223.5C 171.208,227.446 172.375,231.446 173,235.5C 169.933,232.763 166.599,230.429 163,228.5C 159.401,230.429 156.067,232.763 153,235.5C 153.224,231.318 154.391,227.318 156.5,223.5C 153.346,220.757 150.012,218.257 146.5,216C 150.5,215.667 154.5,215.333 158.5,215C 160.131,211.272 161.465,207.439 162.5,203.5 Z"/></g>
<g><path style="opacity:1" fill="#f8c51a" d="M 335.5,203.5 C 337.427,207.08 339.094,210.913 340.5,215C 344.5,215.333 348.5,215.667 352.5,216C 349.667,218.167 346.833,220.333 344,222.5C 344.462,226.879 345.129,231.212 346,235.5C 342.933,232.763 339.599,230.429 336,228.5C 332.401,230.429 329.067,232.763 326,235.5C 326.625,231.446 327.792,227.446 329.5,223.5C 326.346,220.757 323.012,218.257 319.5,216C 323.821,215.501 328.154,215.334 332.5,215.5C 333.5,211.501 334.5,207.501 335.5,203.5 Z"/></g>
<g><path style="opacity:1" fill="#f8c415" d="M 242.5,215.5 C 262.65,213.649 271.65,222.649 269.5,242.5C 263.812,236.873 258.645,237.206 254,243.5C 253.333,253.5 253.333,263.5 254,273.5C 257.929,285.923 266.429,292.59 279.5,293.5C 286.51,292.942 292.843,290.608 298.5,286.5C 308.674,303.921 322.674,307.921 340.5,298.5C 340.475,307.624 335.808,313.124 326.5,315C 311.412,316.253 301.246,309.753 296,295.5C 289.674,305.058 280.841,308.558 269.5,306C 259.563,301.895 252.896,294.729 249.5,284.5C 243.701,300.56 232.368,307.726 215.5,306C 209.933,303.642 205.767,299.809 203,294.5C 198.056,310.56 187.223,317.393 170.5,315C 162.685,312.473 159.018,307.306 159.5,299.5C 177.106,307.409 190.772,303.075 200.5,286.5C 215.142,296.816 228.642,295.482 241,282.5C 243.455,278.469 245.121,274.136 246,269.5C 246.667,261.167 246.667,252.833 246,244.5C 241.47,237.412 236.137,236.745 230,242.5C 226.568,230.028 230.735,221.028 242.5,215.5 Z"/></g>
<g><path style="opacity:1" fill="#fffdf8" d="M 244.5,220.5 C 255.226,218.85 261.893,223.183 264.5,233.5C 261.813,233.336 259.146,233.503 256.5,234C 254.023,235.643 251.69,237.476 249.5,239.5C 245.637,234.766 240.637,232.766 234.5,233.5C 235.599,227.406 238.932,223.073 244.5,220.5 Z"/></g>
<g><path style="opacity:1" fill="#f8c51b" d="M 148.5,253.5 C 149.497,253.47 150.164,253.97 150.5,255C 151.578,258.149 152.578,261.316 153.5,264.5C 157.459,265.327 161.459,265.827 165.5,266C 162.667,268.167 159.833,270.333 157,272.5C 157.184,276.075 158.018,279.575 159.5,283C 159.167,283.5 158.833,284 158.5,284.5C 155.737,282.371 152.904,280.371 150,278.5C 146.374,280.622 142.874,282.955 139.5,285.5C 139.167,285.333 138.833,285.167 138.5,285C 140.025,281.427 141.358,277.76 142.5,274C 139.86,271.033 136.86,268.366 133.5,266C 137.541,265.827 141.541,265.327 145.5,264.5C 147.117,260.986 148.117,257.319 148.5,253.5 Z"/></g>
<g><path style="opacity:1" fill="#f8c51a" d="M 348.5,253.5 C 349.497,253.47 350.164,253.97 350.5,255C 351.578,258.149 352.578,261.316 353.5,264.5C 357.459,265.327 361.459,265.827 365.5,266C 362.667,268.167 359.833,270.333 357,272.5C 357.184,276.075 358.018,279.575 359.5,283C 359.167,283.5 358.833,284 358.5,284.5C 355.737,282.371 352.904,280.371 350,278.5C 346.374,280.622 342.874,282.955 339.5,285.5C 339.167,285.333 338.833,285.167 338.5,285C 340.025,281.427 341.358,277.76 342.5,274C 339.86,271.033 336.86,268.366 333.5,266C 337.541,265.827 341.541,265.327 345.5,264.5C 347.117,260.986 348.117,257.319 348.5,253.5 Z"/></g>
<g><path style="opacity:1" fill="#f8c413" d="M 248.5,302.5 C 252.209,304.223 254.209,307.223 254.5,311.5C 263.613,311.245 264.613,313.745 257.5,319C 249.431,323.301 242.597,321.801 237,314.5C 236.409,313.517 236.743,312.85 238,312.5C 240.099,311.713 242.266,311.38 244.5,311.5C 245.023,308.122 246.356,305.122 248.5,302.5 Z"/></g>
<g><path style="opacity:1" fill="#f8c51d" d="M 204.5,305.5 C 207.79,306.789 210.123,309.123 211.5,312.5C 220.273,312.506 221.607,315.506 215.5,321.5C 207.829,327.225 200.829,326.392 194.5,319C 196.336,317.581 198.336,316.414 200.5,315.5C 201.644,312.064 202.977,308.73 204.5,305.5 Z"/></g>
<g><path style="opacity:1" fill="#f8c51d" d="M 292.5,305.5 C 293.496,305.414 294.329,305.748 295,306.5C 296.6,309.334 297.766,312.334 298.5,315.5C 305.191,316.971 305.857,319.471 300.5,323C 291.158,327.338 284.158,324.838 279.5,315.5C 281.972,314.104 284.638,313.27 287.5,313C 288.805,310.213 290.472,307.713 292.5,305.5 Z"/></g>
<g><path style="opacity:1" fill="#f8c40f" d="M 227.5,324.5 C 254.814,322.929 281.814,325.096 308.5,331C 312.768,331.896 316.768,333.396 320.5,335.5C 319.085,339.409 318.085,343.409 317.5,347.5C 272.175,334.187 226.842,334.187 181.5,347.5C 180.915,343.409 179.915,339.409 178.5,335.5C 178.709,334.914 179.043,334.414 179.5,334C 195.401,329.632 211.401,326.465 227.5,324.5 Z"/></g>
<g><path style="opacity:0.997" fill="#1d6e19" d="M 22.5,356.5 C 173.833,356.5 325.167,356.5 476.5,356.5C 476.167,357.167 475.833,357.833 475.5,358.5C 324.833,358.5 174.167,358.5 23.5,358.5C 23.1667,357.833 22.8333,357.167 22.5,356.5 Z"/></g>
<g><path style="opacity:0.992" fill="#006600" d="M 23.5,358.5 C 174.167,358.5 324.833,358.5 475.5,358.5C 433.046,440.247 366.046,487.247 274.5,499.5C 257.833,499.5 241.167,499.5 224.5,499.5C 132.942,487.243 65.9424,440.243 23.5,358.5 Z"/></g>
</svg>
