<?xml version="1.0" encoding="UTF-8"?>
<!DOCTYPE svg PUBLIC "-//W3C//DTD SVG 1.1//EN" "http://www.w3.org/Graphics/SVG/1.1/DTD/svg11.dtd">
<svg xmlns="http://www.w3.org/2000/svg" version="1.1" width="500px" height="500px" style="shape-rendering:geometricPrecision; text-rendering:geometricPrecision; image-rendering:optimizeQuality; fill-rule:evenodd; clip-rule:evenodd" xmlns:xlink="http://www.w3.org/1999/xlink">
<g><path style="opacity:0.993" fill="#1eb539" d="M 225.5,-0.5 C 241.5,-0.5 257.5,-0.5 273.5,-0.5C 313.311,4.04877 350.311,16.8821 384.5,38C 388.597,40.3696 392.264,43.2029 395.5,46.5C 265.852,133.66 135.852,220.327 5.5,306.5C 2.9457,295.499 0.945698,284.499 -0.5,273.5C -0.5,257.5 -0.5,241.5 -0.5,225.5C 11.4543,135.075 57.4543,68.242 137.5,25C 165.514,11.5012 194.847,3.00119 225.5,-0.5 Z"/></g>
<g><path style="opacity:0.997" fill="#f9cf15" d="M 395.5,46.5 C 403.374,51.0362 410.374,56.7029 416.5,63.5C 281.872,152.808 147.538,242.474 13.5,332.5C 9.92264,324.211 7.25597,315.544 5.5,306.5C 135.852,220.327 265.852,133.66 395.5,46.5 Z"/></g>
<g><path style="opacity:0.997" fill="#000000" d="M 416.5,63.5 C 448.867,91.9059 472.2,126.573 486.5,167.5C 351.862,256.823 217.195,346.156 82.5,435.5C 75.9237,430.43 69.757,424.763 64,418.5C 41.2715,393.388 24.4382,364.721 13.5,332.5C 147.538,242.474 281.872,152.808 416.5,63.5 Z"/></g>
<g><path style="opacity:0.997" fill="#f9d018" d="M 486.5,167.5 C 489.442,175.66 491.776,183.994 493.5,192.5C 363.205,278.808 233.205,365.474 103.5,452.5C 95.6258,447.964 88.6258,442.297 82.5,435.5C 217.195,346.156 351.862,256.823 486.5,167.5 Z"/></g>
<g><path style="opacity:0.993" fill="#00a3dc" d="M 493.5,192.5 C 495.945,203.185 497.945,213.852 499.5,224.5C 499.5,241.167 499.5,257.833 499.5,274.5C 487.764,361.841 443.764,427.341 367.5,471C 338.093,486.083 307.093,495.583 274.5,499.5C 257.833,499.5 241.167,499.5 224.5,499.5C 185.067,494.744 148.4,481.91 114.5,461C 110.403,458.63 106.736,455.797 103.5,452.5C 233.205,365.474 363.205,278.808 493.5,192.5 Z"/></g>
</svg>
