<?xml version="1.0" encoding="UTF-8"?>
<!DOCTYPE svg PUBLIC "-//W3C//DTD SVG 1.1//EN" "http://www.w3.org/Graphics/SVG/1.1/DTD/svg11.dtd">
<svg xmlns="http://www.w3.org/2000/svg" version="1.1" width="500px" height="500px" style="shape-rendering:geometricPrecision; text-rendering:geometricPrecision; image-rendering:optimizeQuality; fill-rule:evenodd; clip-rule:evenodd" xmlns:xlink="http://www.w3.org/1999/xlink">
<g><path style="opacity:0.995" fill="#d21034" d="M 225.5,-0.5 C 241.5,-0.5 257.5,-0.5 273.5,-0.5C 277.657,0.44894 281.99,1.11561 286.5,1.5C 286.5,34.1667 286.5,66.8333 286.5,99.5C 286.5,132.833 286.5,166.167 286.5,199.5C 286.5,232.833 286.5,266.167 286.5,299.5C 192.167,299.5 97.8333,299.5 3.5,299.5C 2.24244,290.687 0.909111,282.02 -0.5,273.5C -0.5,257.5 -0.5,241.5 -0.5,225.5C 11.4543,135.075 57.4543,68.242 137.5,25C 165.514,11.5012 194.847,3.00119 225.5,-0.5 Z"/></g>
<g><path style="opacity:0.988" fill="#03694d" d="M 286.5,1.5 C 354.245,12.512 408.578,45.1787 449.5,99.5C 395.167,99.5 340.833,99.5 286.5,99.5C 286.5,66.8333 286.5,34.1667 286.5,1.5 Z"/></g>
<g><path style="opacity:1" fill="#fefdfd" d="M 158.5,119.5 C 180.833,120.167 203.167,120.833 225.5,121.5C 207.213,134.455 189.213,147.788 171.5,161.5C 178.883,182.961 185.549,204.294 191.5,225.5C 173.462,212.291 155.295,199.291 137,186.5C 118.705,199.291 100.538,212.291 82.5,225.5C 82.1667,225 81.8333,224.5 81.5,224C 88.4048,203.119 95.4048,182.285 102.5,161.5C 84.7065,147.435 66.3732,134.102 47.5,121.5C 70.1667,120.833 92.8333,120.167 115.5,119.5C 122.372,98.0508 129.539,76.7175 137,55.5C 144.1,76.9679 151.267,98.3012 158.5,119.5 Z"/></g>
<g><path style="opacity:0.996" fill="#fecd00" d="M 286.5,99.5 C 340.833,99.5 395.167,99.5 449.5,99.5C 472.326,129.167 487.66,162.5 495.5,199.5C 425.833,199.5 356.167,199.5 286.5,199.5C 286.5,166.167 286.5,132.833 286.5,99.5 Z"/></g>
<g><path style="opacity:1" fill="#df5b74" d="M 115.5,119.5 C 92.8333,120.167 70.1667,120.833 47.5,121.5C 46.9569,121.44 46.6236,121.107 46.5,120.5C 69.4903,119.5 92.4903,119.167 115.5,119.5 Z"/></g>
<g><path style="opacity:1" fill="#e05d75" d="M 158.5,119.5 C 181.176,119.167 203.843,119.5 226.5,120.5C 226.376,121.107 226.043,121.44 225.5,121.5C 203.167,120.833 180.833,120.167 158.5,119.5 Z"/></g>
<g><path style="opacity:0.998" fill="#01694d" d="M 286.5,199.5 C 356.167,199.5 425.833,199.5 495.5,199.5C 496.748,207.982 498.081,216.315 499.5,224.5C 499.5,241.167 499.5,257.833 499.5,274.5C 498.183,282.703 496.85,291.036 495.5,299.5C 425.833,299.5 356.167,299.5 286.5,299.5C 286.5,266.167 286.5,232.833 286.5,199.5 Z"/></g>
<g><path style="opacity:0.997" fill="#fecd00" d="M 3.5,299.5 C 97.8333,299.5 192.167,299.5 286.5,299.5C 356.167,299.5 425.833,299.5 495.5,299.5C 487.515,336.125 472.515,369.458 450.5,399.5C 316.833,399.5 183.167,399.5 49.5,399.5C 26.6736,369.833 11.3403,336.5 3.5,299.5 Z"/></g>
<g><path style="opacity:0.99" fill="#006a4d" d="M 49.5,399.5 C 183.167,399.5 316.833,399.5 450.5,399.5C 405.854,457.166 347.187,490.499 274.5,499.5C 257.833,499.5 241.167,499.5 224.5,499.5C 157.332,491.001 101.499,461.335 57,410.5C 53.9854,407.122 51.4854,403.456 49.5,399.5 Z"/></g>
</svg>
