<?xml version="1.0" encoding="UTF-8"?>
<!DOCTYPE svg PUBLIC "-//W3C//DTD SVG 1.1//EN" "http://www.w3.org/Graphics/SVG/1.1/DTD/svg11.dtd">
<svg xmlns="http://www.w3.org/2000/svg" version="1.1" width="500px" height="500px" style="shape-rendering:geometricPrecision; text-rendering:geometricPrecision; image-rendering:optimizeQuality; fill-rule:evenodd; clip-rule:evenodd" xmlns:xlink="http://www.w3.org/1999/xlink">
<g><path style="opacity:0.995" fill="#fefefe" d="M 225.5,-0.5 C 241.5,-0.5 257.5,-0.5 273.5,-0.5C 312.787,3.81741 349.121,16.4841 382.5,37.5C 382.5,108.167 382.5,178.833 382.5,249.5C 254.833,249.5 127.167,249.5 -0.5,249.5C -0.5,241.5 -0.5,233.5 -0.5,225.5C 11.4543,135.075 57.4543,68.242 137.5,25C 165.514,11.5012 194.847,3.00119 225.5,-0.5 Z"/></g>
<g><path style="opacity:1" fill="#c10100" d="M 143.5,30.5 C 164.167,30.5 184.833,30.5 205.5,30.5C 205.5,51.5 205.5,72.5 205.5,93.5C 226.5,93.5 247.5,93.5 268.5,93.5C 268.5,114.167 268.5,134.833 268.5,155.5C 247.5,155.5 226.5,155.5 205.5,155.5C 205.5,176.5 205.5,197.5 205.5,218.5C 184.833,218.5 164.167,218.5 143.5,218.5C 143.5,197.5 143.5,176.5 143.5,155.5C 122.5,155.5 101.5,155.5 80.5,155.5C 80.5,134.833 80.5,114.167 80.5,93.5C 101.5,93.5 122.5,93.5 143.5,93.5C 143.5,72.5 143.5,51.5 143.5,30.5 Z"/></g>
<g><path style="opacity:0.995" fill="#c10000" d="M 382.5,37.5 C 440.254,74.475 477.421,126.475 494,193.5C 496.071,203.936 497.905,214.27 499.5,224.5C 499.5,241.167 499.5,257.833 499.5,274.5C 487.764,361.841 443.764,427.341 367.5,471C 338.093,486.083 307.093,495.583 274.5,499.5C 257.833,499.5 241.167,499.5 224.5,499.5C 132.596,487.072 65.4294,439.739 23,357.5C 10.7506,330.604 2.91724,302.604 -0.5,273.5C -0.5,265.5 -0.5,257.5 -0.5,249.5C 127.167,249.5 254.833,249.5 382.5,249.5C 382.5,178.833 382.5,108.167 382.5,37.5 Z"/></g>
<g><path style="opacity:1" fill="#f3cccc" d="M 143.5,30.5 C 143.5,51.5 143.5,72.5 143.5,93.5C 122.5,93.5 101.5,93.5 80.5,93.5C 100.993,92.5028 121.66,92.1695 142.5,92.5C 142.169,71.6599 142.503,50.9933 143.5,30.5 Z"/></g>
<g><path style="opacity:1" fill="#efc0bf" d="M 205.5,30.5 C 206.497,50.9933 206.831,71.6599 206.5,92.5C 227.34,92.1695 248.007,92.5028 268.5,93.5C 247.5,93.5 226.5,93.5 205.5,93.5C 205.5,72.5 205.5,51.5 205.5,30.5 Z"/></g>
<g><path style="opacity:1" fill="#f2c8c7" d="M 80.5,155.5 C 101.5,155.5 122.5,155.5 143.5,155.5C 143.5,176.5 143.5,197.5 143.5,218.5C 142.503,198.007 142.169,177.34 142.5,156.5C 121.66,156.831 100.993,156.497 80.5,155.5 Z"/></g>
<g><path style="opacity:1" fill="#ebaeae" d="M 268.5,155.5 C 248.007,156.497 227.34,156.831 206.5,156.5C 206.831,177.34 206.497,198.007 205.5,218.5C 205.5,197.5 205.5,176.5 205.5,155.5C 226.5,155.5 247.5,155.5 268.5,155.5 Z"/></g>
</svg>
