<?xml version="1.0" encoding="UTF-8"?>
<!DOCTYPE svg PUBLIC "-//W3C//DTD SVG 1.1//EN" "http://www.w3.org/Graphics/SVG/1.1/DTD/svg11.dtd">
<svg xmlns="http://www.w3.org/2000/svg" version="1.1" width="500px" height="500px" style="shape-rendering:geometricPrecision; text-rendering:geometricPrecision; image-rendering:optimizeQuality; fill-rule:evenodd; clip-rule:evenodd" xmlns:xlink="http://www.w3.org/1999/xlink">
<g><path style="opacity:0.993" fill="#ce1126" d="M 225.5,-0.5 C 241.5,-0.5 257.5,-0.5 273.5,-0.5C 362.269,10.9489 428.436,55.6156 472,133.5C 486.559,162.333 495.726,192.666 499.5,224.5C 499.5,241.167 499.5,257.833 499.5,274.5C 496.709,297.002 491.375,319.002 483.5,340.5C 363.571,238.241 244.238,135.241 125.5,31.5C 156.777,14.1846 190.11,3.51794 225.5,-0.5 Z"/></g>
<g><path style="opacity:0.997" fill="#fdfcfc" d="M 125.5,31.5 C 244.238,135.241 363.571,238.241 483.5,340.5C 479.73,349.832 475.397,358.832 470.5,367.5C 347.5,260.833 224.5,154.167 101.5,47.5C 109.119,41.6837 117.119,36.3503 125.5,31.5 Z"/></g>
<g><path style="opacity:0.997" fill="#000000" d="M 101.5,47.5 C 224.5,154.167 347.5,260.833 470.5,367.5C 452.623,401.048 428.29,429.048 397.5,451.5C 274.82,344.822 151.82,238.489 28.5,132.5C 45.9632,98.3625 70.2966,70.0292 101.5,47.5 Z"/></g>
<g><path style="opacity:0.997" fill="#fdfcfc" d="M 28.5,132.5 C 151.82,238.489 274.82,344.822 397.5,451.5C 389.881,457.316 381.881,462.65 373.5,467.5C 254.821,364.156 135.821,261.156 16.5,158.5C 19.4592,149.254 23.4592,140.588 28.5,132.5 Z"/></g>
<g><path style="opacity:0.993" fill="#ce1126" d="M 16.5,158.5 C 135.821,261.156 254.821,364.156 373.5,467.5C 342.586,484.808 309.586,495.474 274.5,499.5C 257.833,499.5 241.167,499.5 224.5,499.5C 132.596,487.072 65.4294,439.739 23,357.5C 10.7506,330.604 2.91724,302.604 -0.5,273.5C -0.5,257.5 -0.5,241.5 -0.5,225.5C 1.87148,202.348 7.53814,180.014 16.5,158.5 Z"/></g>
</svg>
