<?xml version="1.0" encoding="UTF-8"?>
<!DOCTYPE svg PUBLIC "-//W3C//DTD SVG 1.1//EN" "http://www.w3.org/Graphics/SVG/1.1/DTD/svg11.dtd">
<svg xmlns="http://www.w3.org/2000/svg" version="1.1" width="500px" height="500px" style="shape-rendering:geometricPrecision; text-rendering:geometricPrecision; image-rendering:optimizeQuality; fill-rule:evenodd; clip-rule:evenodd" xmlns:xlink="http://www.w3.org/1999/xlink">
<g><path style="opacity:0.993" fill="#e70013" d="M 225.5,-0.5 C 241.5,-0.5 257.5,-0.5 273.5,-0.5C 362.269,10.9489 428.436,55.6156 472,133.5C 486.559,162.333 495.726,192.666 499.5,224.5C 499.5,241.167 499.5,257.833 499.5,274.5C 487.764,361.841 443.764,427.341 367.5,471C 338.093,486.083 307.093,495.583 274.5,499.5C 257.833,499.5 241.167,499.5 224.5,499.5C 132.596,487.072 65.4294,439.739 23,357.5C 10.7506,330.604 2.91724,302.604 -0.5,273.5C -0.5,257.5 -0.5,241.5 -0.5,225.5C 11.4543,135.075 57.4543,68.242 137.5,25C 165.514,11.5012 194.847,3.00119 225.5,-0.5 Z"/></g>
<g><path style="opacity:1" fill="#fffdfd" d="M 236.5,124.5 C 290.891,122.272 332.058,144.272 360,190.5C 379.256,229.803 379.256,269.137 360,308.5C 331.838,356.002 290.005,377.835 234.5,374C 181.187,365.023 146.021,334.856 129,283.5C 116.683,229.783 131.517,185.283 173.5,150C 192.294,135.933 213.294,127.433 236.5,124.5 Z"/></g>
<g><path style="opacity:1" fill="#e70715" d="M 322.5,190.5 C 322.5,190.833 322.5,191.167 322.5,191.5C 291.52,169.458 260.187,168.958 228.5,190C 200.919,213.822 193.085,242.989 205,277.5C 216.055,302.876 235.222,318.376 262.5,324C 285.784,326.68 306.284,320.513 324,305.5C 313.85,319.946 300.35,330.446 283.5,337C 233.811,352.227 194.978,338.06 167,294.5C 149.808,259.428 152.141,225.761 174,193.5C 205.136,156.84 243.302,147.007 288.5,164C 301.737,170.406 313.071,179.239 322.5,190.5 Z"/></g>
<g><path style="opacity:1" fill="#f69298" d="M 322.5,190.5 C 324.085,191.002 324.585,192.002 324,193.5C 323.283,192.956 322.783,192.289 322.5,191.5C 322.5,191.167 322.5,190.833 322.5,190.5 Z"/></g>
<g><path style="opacity:1" fill="#f59da5" d="M 258.5,197.5 C 257.833,210.5 257.167,223.5 256.5,236.5C 256.167,223.15 256.501,209.817 257.5,196.5C 258.107,196.624 258.44,196.957 258.5,197.5 Z"/></g>
<g><path style="opacity:1" fill="#e70915" d="M 258.5,197.5 C 265.615,207.788 272.948,217.955 280.5,228C 293.354,225.107 306.021,221.273 318.5,216.5C 318.833,216.833 319.167,217.167 319.5,217.5C 311.833,228.167 304.167,238.833 296.5,249.5C 304.167,260.167 311.833,270.833 319.5,281.5C 307.041,278.583 294.541,274.917 282,270.5C 273.643,280.367 265.81,290.701 258.5,301.5C 257.833,288.5 257.167,275.5 256.5,262.5C 244.191,258.395 231.857,254.062 219.5,249.5C 231.857,244.938 244.191,240.605 256.5,236.5C 257.167,223.5 257.833,210.5 258.5,197.5 Z"/></g>
<g><path style="opacity:1" fill="#f59da5" d="M 256.5,262.5 C 257.167,275.5 257.833,288.5 258.5,301.5C 258.44,302.043 258.107,302.376 257.5,302.5C 256.501,289.183 256.167,275.85 256.5,262.5 Z"/></g>
</svg>
