<?xml version="1.0" encoding="UTF-8"?>
<!DOCTYPE svg PUBLIC "-//W3C//DTD SVG 1.1//EN" "http://www.w3.org/Graphics/SVG/1.1/DTD/svg11.dtd">
<svg xmlns="http://www.w3.org/2000/svg" version="1.1" width="500px" height="500px" style="shape-rendering:geometricPrecision; text-rendering:geometricPrecision; image-rendering:optimizeQuality; fill-rule:evenodd; clip-rule:evenodd" xmlns:xlink="http://www.w3.org/1999/xlink">
<g><path style="opacity:0.998" fill="#fdfcfd" d="M 230.5,-0.5 C 238.167,-0.5 245.833,-0.5 253.5,-0.5C 204.561,24.3033 155.561,49.1366 106.5,74C 121.167,74.6667 135.833,74.6667 150.5,74C 198.05,50.3922 245.383,26.5588 292.5,2.5C 294.806,2.99255 297.139,3.32588 299.5,3.5C 299.5,13.5 299.5,23.5 299.5,33.5C 273.039,46.2305 246.706,59.2305 220.5,72.5C 219.527,72.9867 218.527,73.4867 217.5,74C 244.831,74.5 272.165,74.6666 299.5,74.5C 299.5,81.1667 299.5,87.8333 299.5,94.5C 226.167,94.5 152.833,94.5 79.5,94.5C 79.5,84.8333 79.5,75.1667 79.5,65.5C 85.7928,59.6885 92.4595,54.3552 99.5,49.5C 99.1718,54.8746 99.5052,60.2079 100.5,65.5C 144.206,43.9811 187.539,21.9811 230.5,-0.5 Z"/></g>
<g><path style="opacity:0.993" fill="#cf172c" d="M 253.5,-0.5 C 260.167,-0.5 266.833,-0.5 273.5,-0.5C 279.689,0.576605 286.023,1.57661 292.5,2.5C 245.383,26.5588 198.05,50.3922 150.5,74C 135.833,74.6667 121.167,74.6667 106.5,74C 155.561,49.1366 204.561,24.3033 253.5,-0.5 Z"/></g>
<g><path style="opacity:0.953" fill="#03247d" d="M 225.5,-0.5 C 227.167,-0.5 228.833,-0.5 230.5,-0.5C 187.539,21.9811 144.206,43.9811 100.5,65.5C 99.5052,60.2079 99.1718,54.8746 99.5,49.5C 136.755,21.2173 178.755,4.55066 225.5,-0.5 Z"/></g>
<g><path style="opacity:0.995" fill="#5b97b0" d="M 299.5,3.5 C 396.55,27.0489 460.384,86.3822 491,181.5C 494.695,195.808 497.529,210.141 499.5,224.5C 499.5,241.167 499.5,257.833 499.5,274.5C 497.261,291.686 493.594,308.686 488.5,325.5C 482.543,321.543 476.877,317.21 471.5,312.5C 474.995,303.476 477.661,294.476 479.5,285.5C 471.793,291.044 463.96,296.377 456,301.5C 448.068,296.571 440.401,291.238 433,285.5C 435.062,294.365 437.562,303.198 440.5,312C 440.167,312.833 439.833,313.667 439.5,314.5C 431.833,320 424.167,325.5 416.5,331C 426.828,331.5 437.161,331.666 447.5,331.5C 450.019,340.906 452.853,350.24 456,359.5C 459.373,350.381 462.54,341.214 465.5,332C 472.492,331.5 479.492,331.334 486.5,331.5C 478.14,356.226 466.14,378.893 450.5,399.5C 444.711,395.551 439.044,391.384 433.5,387C 432.833,386.333 432.167,386.333 431.5,387C 434.426,395.287 437.426,403.454 440.5,411.5C 436.873,416.794 432.54,421.461 427.5,425.5C 424.053,427.397 420.72,429.563 417.5,432C 418.416,432.278 419.082,432.778 419.5,433.5C 401.39,450.59 381.057,464.59 358.5,475.5C 357.212,468.802 355.212,462.302 352.5,456C 360.469,450.009 368.469,444.009 376.5,438C 366.506,437.5 356.506,437.334 346.5,437.5C 344.025,427.909 340.859,418.575 337,409.5C 333.857,418.427 331.024,427.427 328.5,436.5C 318.145,436.168 307.812,436.501 297.5,437.5C 297.624,438.107 297.957,438.44 298.5,438.5C 306.121,443.614 313.621,448.947 321,454.5C 318.667,464.167 316.333,473.833 314,483.5C 321.694,477.64 329.527,471.973 337.5,466.5C 342.352,470.42 347.352,474.087 352.5,477.5C 327.728,489.193 301.728,496.526 274.5,499.5C 257.833,499.5 241.167,499.5 224.5,499.5C 132.596,487.072 65.4294,439.739 23,357.5C 10.7506,330.604 2.91724,302.604 -0.5,273.5C -0.5,265.5 -0.5,257.5 -0.5,249.5C 6.16667,249.5 12.8333,249.5 19.5,249.5C 39.5,249.5 59.5,249.5 79.5,249.5C 79.8333,249.5 80.1667,249.5 80.5,249.5C 86.8333,249.5 93.1667,249.5 99.5,249.5C 143.337,249.832 187.003,249.499 230.5,248.5C 253.092,249.489 275.758,249.822 298.5,249.5C 299.492,242.018 299.825,234.352 299.5,226.5C 299.5,222.833 299.5,219.167 299.5,215.5C 299.5,201.833 299.5,188.167 299.5,174.5C 299.5,168.167 299.5,161.833 299.5,155.5C 299.5,155.167 299.5,154.833 299.5,154.5C 299.5,134.5 299.5,114.5 299.5,94.5C 299.5,87.8333 299.5,81.1667 299.5,74.5C 299.5,74.1667 299.5,73.8333 299.5,73.5C 299.5,60.1667 299.5,46.8333 299.5,33.5C 299.5,23.5 299.5,13.5 299.5,3.5 Z"/></g>
<g><path style="opacity:1" fill="#02247d" d="M 299.5,33.5 C 299.5,46.8333 299.5,60.1667 299.5,73.5C 272.995,73.8312 246.661,73.4978 220.5,72.5C 246.706,59.2305 273.039,46.2305 299.5,33.5 Z"/></g>
<g><path style="opacity:0.997" fill="#ce142b" d="M 79.5,65.5 C 79.5,75.1667 79.5,84.8333 79.5,94.5C 152.331,95.4992 225.331,95.8326 298.5,95.5C 298.5,114.833 298.5,134.167 298.5,153.5C 225.331,153.167 152.331,153.501 79.5,154.5C 79.5,186.167 79.5,217.833 79.5,249.5C 59.5,249.5 39.5,249.5 19.5,249.5C 20.1593,217.482 19.4926,185.816 17.5,154.5C 31.9063,120.435 52.573,90.7679 79.5,65.5 Z"/></g>
<g><path style="opacity:1" fill="#193989" d="M 220.5,72.5 C 246.661,73.4978 272.995,73.8312 299.5,73.5C 299.5,73.8333 299.5,74.1667 299.5,74.5C 272.165,74.6666 244.831,74.5 217.5,74C 218.527,73.4867 219.527,72.9867 220.5,72.5 Z"/></g>
<g><path style="opacity:1" fill="#d02338" d="M 79.5,94.5 C 152.833,94.5 226.167,94.5 299.5,94.5C 299.5,114.5 299.5,134.5 299.5,154.5C 226.167,154.5 152.833,154.5 79.5,154.5C 152.331,153.501 225.331,153.167 298.5,153.5C 298.5,134.167 298.5,114.833 298.5,95.5C 225.331,95.8326 152.331,95.4992 79.5,94.5 Z"/></g>
<g><path style="opacity:1" fill="#fbedef" d="M 79.5,154.5 C 152.833,154.5 226.167,154.5 299.5,154.5C 299.5,154.833 299.5,155.167 299.5,155.5C 226.5,155.5 153.5,155.5 80.5,155.5C 80.5,186.833 80.5,218.167 80.5,249.5C 80.1667,249.5 79.8333,249.5 79.5,249.5C 79.5,217.833 79.5,186.167 79.5,154.5 Z"/></g>
<g><path style="opacity:0.954" fill="#fefdfd" d="M 17.5,154.5 C 19.4926,185.816 20.1593,217.482 19.5,249.5C 12.8333,249.5 6.16667,249.5 -0.5,249.5C -0.5,241.5 -0.5,233.5 -0.5,225.5C 2.18315,201.102 8.18315,177.435 17.5,154.5 Z"/></g>
<g><path style="opacity:1" fill="#fefdfd" d="M 299.5,155.5 C 299.5,161.833 299.5,168.167 299.5,174.5C 272.165,174.333 244.831,174.5 217.5,175C 244.732,188.783 272.065,202.283 299.5,215.5C 299.5,219.167 299.5,222.833 299.5,226.5C 264.732,209.616 230.065,192.449 195.5,175C 180.5,174.333 165.5,174.333 150.5,175C 200.05,199.608 249.383,224.441 298.5,249.5C 275.758,249.822 253.092,249.489 230.5,248.5C 187.193,226.847 143.86,205.18 100.5,183.5C 99.5003,205.49 99.167,227.49 99.5,249.5C 93.1667,249.5 86.8333,249.5 80.5,249.5C 80.5,218.167 80.5,186.833 80.5,155.5C 153.5,155.5 226.5,155.5 299.5,155.5 Z"/></g>
<g><path style="opacity:1" fill="#cf182c" d="M 299.5,226.5 C 299.825,234.352 299.492,242.018 298.5,249.5C 249.383,224.441 200.05,199.608 150.5,175C 165.5,174.333 180.5,174.333 195.5,175C 230.065,192.449 264.732,209.616 299.5,226.5 Z"/></g>
<g><path style="opacity:1" fill="#04257d" d="M 299.5,174.5 C 299.5,188.167 299.5,201.833 299.5,215.5C 272.065,202.283 244.732,188.783 217.5,175C 244.831,174.5 272.165,174.333 299.5,174.5 Z"/></g>
<g><path style="opacity:1" fill="#03257d" d="M 230.5,248.5 C 187.003,249.499 143.337,249.832 99.5,249.5C 99.167,227.49 99.5003,205.49 100.5,183.5C 143.86,205.18 187.193,226.847 230.5,248.5 Z"/></g>
<g><path style="opacity:0.999" fill="#fbcd08" d="M 488.5,325.5 C 488.029,327.579 487.363,329.579 486.5,331.5C 479.492,331.334 472.492,331.5 465.5,332C 462.54,341.214 459.373,350.381 456,359.5C 452.853,350.24 450.019,340.906 447.5,331.5C 437.161,331.666 426.828,331.5 416.5,331C 424.167,325.5 431.833,320 439.5,314.5C 439.833,313.667 440.167,312.833 440.5,312C 437.562,303.198 435.062,294.365 433,285.5C 440.401,291.238 448.068,296.571 456,301.5C 463.96,296.377 471.793,291.044 479.5,285.5C 477.661,294.476 474.995,303.476 471.5,312.5C 476.877,317.21 482.543,321.543 488.5,325.5 Z"/></g>
<g><path style="opacity:0.938" fill="#facc0d" d="M 450.5,399.5 C 447.514,403.817 444.18,407.817 440.5,411.5C 437.426,403.454 434.426,395.287 431.5,387C 432.167,386.333 432.833,386.333 433.5,387C 439.044,391.384 444.711,395.551 450.5,399.5 Z"/></g>
<g><path style="opacity:0.998" fill="#fccd08" d="M 358.5,475.5 C 356.579,476.363 354.579,477.029 352.5,477.5C 347.352,474.087 342.352,470.42 337.5,466.5C 329.527,471.973 321.694,477.64 314,483.5C 316.333,473.833 318.667,464.167 321,454.5C 313.621,448.947 306.121,443.614 298.5,438.5C 308.5,437.833 318.5,437.167 328.5,436.5C 331.024,427.427 333.857,418.427 337,409.5C 340.859,418.575 344.025,427.909 346.5,437.5C 356.506,437.334 366.506,437.5 376.5,438C 368.469,444.009 360.469,450.009 352.5,456C 355.212,462.302 357.212,468.802 358.5,475.5 Z"/></g>
<g><path style="opacity:0.92" fill="#f3cc17" d="M 427.5,425.5 C 425.167,428.5 422.5,431.167 419.5,433.5C 419.082,432.778 418.416,432.278 417.5,432C 420.72,429.563 424.053,427.397 427.5,425.5 Z"/></g>
<g><path style="opacity:1" fill="#709e9a" d="M 328.5,436.5 C 318.5,437.167 308.5,437.833 298.5,438.5C 297.957,438.44 297.624,438.107 297.5,437.5C 307.812,436.501 318.145,436.168 328.5,436.5 Z"/></g>
</svg>
