<?xml version="1.0" encoding="UTF-8"?>
<!DOCTYPE svg PUBLIC "-//W3C//DTD SVG 1.1//EN" "http://www.w3.org/Graphics/SVG/1.1/DTD/svg11.dtd">
<svg xmlns="http://www.w3.org/2000/svg" version="1.1" width="500px" height="500px" style="shape-rendering:geometricPrecision; text-rendering:geometricPrecision; image-rendering:optimizeQuality; fill-rule:evenodd; clip-rule:evenodd" xmlns:xlink="http://www.w3.org/1999/xlink">
<g><path style="opacity:0.988" fill="#000000" d="M 225.5,-0.5 C 241.5,-0.5 257.5,-0.5 273.5,-0.5C 328.71,5.7761 377.043,27.2761 418.5,64C 424.763,69.757 430.43,75.9237 435.5,82.5C 311.5,82.5 187.5,82.5 63.5,82.5C 77.4724,66.0266 93.4724,51.86 111.5,40C 146.398,17.646 184.398,4.146 225.5,-0.5 Z"/></g>
<g><path style="opacity:0.997" fill="#ddc703" d="M 63.5,82.5 C 187.5,82.5 311.5,82.5 435.5,82.5C 436.5,82.8333 437.167,83.5 437.5,84.5C 312.167,84.5 186.833,84.5 61.5,84.5C 61.8333,83.5 62.5,82.8333 63.5,82.5 Z"/></g>
<g><path style="opacity:0.997" fill="#fbdb03" d="M 61.5,84.5 C 186.833,84.5 312.167,84.5 437.5,84.5C 455.394,103.918 469.561,125.918 480,150.5C 482.141,155.756 483.974,161.09 485.5,166.5C 328.167,166.5 170.833,166.5 13.5,166.5C 23.8816,135.717 39.8816,108.383 61.5,84.5 Z"/></g>
<g><path style="opacity:0.997" fill="#d80000" d="M 13.5,166.5 C 170.833,166.5 328.167,166.5 485.5,166.5C 492.586,185.267 497.253,204.6 499.5,224.5C 499.5,232.833 499.5,241.167 499.5,249.5C 442.167,249.5 384.833,249.5 327.5,249.5C 325.973,216.257 310.306,192.424 280.5,178C 241.948,164.3 210.115,173.466 185,205.5C 176.167,218.833 171.667,233.499 171.5,249.5C 114.167,249.5 56.8333,249.5 -0.5,249.5C -0.5,241.5 -0.5,233.5 -0.5,225.5C 1.61802,205.246 6.28469,185.58 13.5,166.5 Z"/></g>
<g><path style="opacity:1" fill="#fcfbfb" d="M 327.5,249.5 C 325.951,283.793 309.617,307.959 278.5,322C 238.774,334.869 206.941,324.369 183,290.5C 175.65,277.806 171.817,264.139 171.5,249.5C 171.667,233.499 176.167,218.833 185,205.5C 210.115,173.466 241.948,164.3 280.5,178C 310.306,192.424 325.973,216.257 327.5,249.5 Z"/></g>
<g><path style="opacity:1" fill="#513b2f" d="M 246.5,177.5 C 244.833,177.5 243.167,177.5 241.5,177.5C 241.5,180.5 241.5,183.5 241.5,186.5C 241.167,186.5 240.833,186.5 240.5,186.5C 240.5,183.5 240.5,180.5 240.5,177.5C 237.779,177.963 235.112,178.629 232.5,179.5C 233.347,178.034 234.68,177.2 236.5,177C 240.027,176.192 243.36,176.359 246.5,177.5 Z"/></g>
<g><path style="opacity:1" fill="#f1d503" d="M 246.5,177.5 C 246.833,177.5 247.167,177.5 247.5,177.5C 249.509,179.065 251.843,180.065 254.5,180.5C 255.6,181.605 256.267,182.938 256.5,184.5C 255.094,184.973 254.427,185.973 254.5,187.5C 253.662,187.842 253.328,188.508 253.5,189.5C 249.615,188.095 245.615,187.095 241.5,186.5C 241.5,183.5 241.5,180.5 241.5,177.5C 243.167,177.5 244.833,177.5 246.5,177.5 Z"/></g>
<g><path style="opacity:1" fill="#d40000" d="M 240.5,186.5 C 238.672,188.115 236.672,188.448 234.5,187.5C 233.914,185.16 232.914,182.993 231.5,181C 232.056,180.617 232.389,180.117 232.5,179.5C 235.112,178.629 237.779,177.963 240.5,177.5C 240.5,180.5 240.5,183.5 240.5,186.5 Z"/></g>
<g><path style="opacity:1" fill="#5d553b" d="M 247.5,177.5 C 250.346,177.552 252.68,178.552 254.5,180.5C 251.843,180.065 249.509,179.065 247.5,177.5 Z"/></g>
<g><path style="opacity:1" fill="#554b45" d="M 254.5,180.5 C 256.71,180.894 258.043,182.227 258.5,184.5C 257.833,184.5 257.167,184.5 256.5,184.5C 256.267,182.938 255.6,181.605 254.5,180.5 Z"/></g>
<g><path style="opacity:1" fill="#4d2305" d="M 256.5,184.5 C 256.573,186.027 255.906,187.027 254.5,187.5C 254.427,185.973 255.094,184.973 256.5,184.5 Z"/></g>
<g><path style="opacity:1" fill="#56241c" d="M 258.5,184.5 C 259.906,184.973 260.573,185.973 260.5,187.5C 259.094,187.027 258.427,186.027 258.5,184.5 Z"/></g>
<g><path style="opacity:1" fill="#d30200" d="M 256.5,184.5 C 257.167,184.5 257.833,184.5 258.5,184.5C 258.427,186.027 259.094,187.027 260.5,187.5C 261.15,189.435 261.483,191.435 261.5,193.5C 259.708,193.366 258.042,193.699 256.5,194.5C 254.259,193.7 253.259,192.034 253.5,189.5C 253.328,188.508 253.662,187.842 254.5,187.5C 255.906,187.027 256.573,186.027 256.5,184.5 Z"/></g>
<g><path style="opacity:1" fill="#0b0a0a" d="M 240.5,186.5 C 240.833,186.5 241.167,186.5 241.5,186.5C 245.615,187.095 249.615,188.095 253.5,189.5C 253.259,192.034 254.259,193.7 256.5,194.5C 256.5,194.833 256.5,195.167 256.5,195.5C 254.883,201.382 251.717,206.382 247,210.5C 244.392,217.128 243.892,223.795 245.5,230.5C 245.167,231.167 244.833,231.833 244.5,232.5C 241.476,241.265 243.81,248.432 251.5,254C 254.418,255.15 257.418,255.983 260.5,256.5C 264.447,258.482 268.114,260.982 271.5,264C 273.415,266.4 275.081,268.9 276.5,271.5C 271.881,270.686 267.214,270.353 262.5,270.5C 263.951,275.402 265.951,280.069 268.5,284.5C 268.392,285.442 268.059,286.275 267.5,287C 262.914,287.197 258.414,287.697 254,288.5C 253.892,295.493 254.059,302.493 254.5,309.5C 259.391,309.519 263.724,311.019 267.5,314C 256.686,313.107 247.019,315.94 238.5,322.5C 237.598,319.44 238.598,316.94 241.5,315C 238.118,314.824 234.785,314.324 231.5,313.5C 233.795,311.52 236.461,310.353 239.5,310C 243.152,309.501 246.818,309.335 250.5,309.5C 250.491,302.751 249.824,296.084 248.5,289.5C 243.224,288.154 237.891,287.654 232.5,288C 230.709,290.414 229.043,292.914 227.5,295.5C 226.416,294.335 225.583,293.002 225,291.5C 224.027,293.392 223.36,295.392 223,297.5C 222.333,296.167 221.667,294.833 221,293.5C 220.261,295.221 219.427,296.887 218.5,298.5C 216.356,292.3 218.022,287.466 223.5,284C 224.793,283.51 226.127,283.343 227.5,283.5C 234.833,283.5 242.167,283.5 249.5,283.5C 249.815,279.629 249.482,275.962 248.5,272.5C 245.814,267.133 241.481,263.633 235.5,262C 231.966,258.131 228.133,254.631 224,251.5C 220.247,244.46 219.58,237.126 222,229.5C 225.106,222.935 228.939,216.935 233.5,211.5C 239.358,210.113 239.858,207.779 235,204.5C 234.617,205.056 234.117,205.389 233.5,205.5C 232.432,204.566 231.099,204.232 229.5,204.5C 228.761,204.631 228.094,204.464 227.5,204C 230.043,203.86 232.377,203.194 234.5,202C 231.202,201.458 228.035,201.958 225,203.5C 224.235,203.43 223.735,203.097 223.5,202.5C 226.614,201.072 229.781,199.739 233,198.5C 233.548,194.83 234.048,191.163 234.5,187.5C 236.672,188.448 238.672,188.115 240.5,186.5 Z"/></g>
<g><path style="opacity:1" fill="#7c6865" d="M 260.5,187.5 C 262.448,189.32 263.448,191.654 263.5,194.5C 261.097,194.448 258.764,194.781 256.5,195.5C 256.5,195.167 256.5,194.833 256.5,194.5C 258.042,193.699 259.708,193.366 261.5,193.5C 261.483,191.435 261.15,189.435 260.5,187.5 Z"/></g>
<g><path style="opacity:1" fill="#ebebeb" d="M 238.5,196.5 C 240.465,196.948 240.798,197.948 239.5,199.5C 238.614,198.675 238.281,197.675 238.5,196.5 Z"/></g>
<g><path style="opacity:1" fill="#949d94" d="M 247.5,191.5 C 252.836,196.105 252.503,200.605 246.5,205C 245.167,205.667 243.833,205.667 242.5,205C 241.549,204.282 241.383,203.449 242,202.5C 246.477,200.214 248.31,196.547 247.5,191.5 Z"/></g>
<g><path style="opacity:1" fill="#7e7e7e" d="M 229.5,204.5 C 227.712,205.622 225.712,205.789 223.5,205C 222.226,204.023 222.226,203.189 223.5,202.5C 223.735,203.097 224.235,203.43 225,203.5C 228.035,201.958 231.202,201.458 234.5,202C 232.377,203.194 230.043,203.86 227.5,204C 228.094,204.464 228.761,204.631 229.5,204.5 Z"/></g>
<g><path style="opacity:1" fill="#ca0001" d="M 233.5,211.5 C 232.833,211.5 232.5,211.167 232.5,210.5C 232.629,208.784 232.962,207.117 233.5,205.5C 234.117,205.389 234.617,205.056 235,204.5C 239.858,207.779 239.358,210.113 233.5,211.5 Z"/></g>
<g><path style="opacity:1" fill="#471f1c" d="M 233.5,205.5 C 232.962,207.117 232.629,208.784 232.5,210.5C 231.07,208.545 231.403,206.879 233.5,205.5 Z"/></g>
<g><path style="opacity:1" fill="#96a096" d="M 240.5,209.5 C 241.043,209.56 241.376,209.893 241.5,210.5C 237.231,218.242 236.565,226.242 239.5,234.5C 235.994,238.415 233.161,242.082 231,245.5C 228.6,240.804 227.934,235.804 229,230.5C 231.293,222.574 235.127,215.574 240.5,209.5 Z"/></g>
<g><path style="opacity:1" fill="#98a298" d="M 244.5,232.5 C 250.207,233.347 255.54,235.347 260.5,238.5C 261.833,239.5 261.833,240.5 260.5,241.5C 259.167,240.833 257.833,240.167 256.5,239.5C 255.893,239.624 255.56,239.957 255.5,240.5C 254.167,240.5 252.833,240.5 251.5,240.5C 252.263,239.732 253.263,239.232 254.5,239C 249.672,238.317 248.006,240.15 249.5,244.5C 249.414,245.496 249.748,246.329 250.5,247C 255.215,249.027 259.215,252.027 262.5,256C 261.906,256.464 261.239,256.631 260.5,256.5C 257.418,255.983 254.418,255.15 251.5,254C 243.81,248.432 241.476,241.265 244.5,232.5 Z"/></g>
<g><path style="opacity:1" fill="#f0f1f1" d="M 251.5,240.5 C 252.833,240.5 254.167,240.5 255.5,240.5C 261.762,243.963 268.429,246.297 275.5,247.5C 276.5,247.833 277.167,248.5 277.5,249.5C 277.631,250.239 277.464,250.906 277,251.5C 276.329,250.748 275.496,250.414 274.5,250.5C 274.167,250.5 273.833,250.5 273.5,250.5C 272.473,249.152 271.14,248.652 269.5,249C 270.373,250.045 271.373,250.878 272.5,251.5C 272.5,251.833 272.5,252.167 272.5,252.5C 272.158,253.338 271.492,253.672 270.5,253.5C 270.167,253.5 269.833,253.5 269.5,253.5C 267.956,252.086 266.289,251.753 264.5,252.5C 265.357,253.425 266.357,254.092 267.5,254.5C 266.399,255.598 265.066,255.765 263.5,255C 259.34,250.761 254.673,247.261 249.5,244.5C 249.229,242.62 249.896,241.287 251.5,240.5 Z"/></g>
<g><path style="opacity:1" fill="#3c403c" d="M 251.5,240.5 C 249.896,241.287 249.229,242.62 249.5,244.5C 248.006,240.15 249.672,238.317 254.5,239C 253.263,239.232 252.263,239.732 251.5,240.5 Z"/></g>
<g><path style="opacity:1" fill="#4c4e4b" d="M 245.5,230.5 C 253.59,233.379 261.257,237.046 268.5,241.5C 273.086,242.46 277.086,244.46 280.5,247.5C 278.742,247.123 277.075,246.456 275.5,245.5C 274.537,245.97 274.537,246.637 275.5,247.5C 268.429,246.297 261.762,243.963 255.5,240.5C 255.56,239.957 255.893,239.624 256.5,239.5C 257.833,240.167 259.167,240.833 260.5,241.5C 261.833,240.5 261.833,239.5 260.5,238.5C 255.54,235.347 250.207,233.347 244.5,232.5C 244.833,231.833 245.167,231.167 245.5,230.5 Z"/></g>
<g><path style="opacity:1" fill="#99a399" d="M 268.5,241.5 C 269.765,242.479 271.099,243.479 272.5,244.5C 268.889,245.09 265.555,244.09 262.5,241.5C 264.55,241.701 266.55,241.701 268.5,241.5 Z"/></g>
<g><path style="opacity:1" fill="#6f5855" d="M 280.5,247.5 C 282.698,247.12 284.365,247.787 285.5,249.5C 283.597,249.204 281.93,248.537 280.5,247.5 Z"/></g>
<g><path style="opacity:1" fill="#d30100" d="M 280.5,247.5 C 281.93,248.537 283.597,249.204 285.5,249.5C 285.842,250.338 286.508,250.672 287.5,250.5C 287.973,251.906 288.973,252.573 290.5,252.5C 291.5,254.167 292.833,255.5 294.5,256.5C 294.427,258.027 295.094,259.027 296.5,259.5C 297.338,259.842 297.672,260.508 297.5,261.5C 298.229,266.13 298.563,270.797 298.5,275.5C 298.567,276.959 298.234,278.292 297.5,279.5C 295.992,281.181 294.992,283.181 294.5,285.5C 293.094,285.973 292.427,286.973 292.5,288.5C 290.5,289.833 288.833,291.5 287.5,293.5C 286.5,294.167 285.5,294.833 284.5,295.5C 283.508,295.672 282.842,295.338 282.5,294.5C 282.5,293.833 282.833,293.5 283.5,293.5C 284.267,292.828 284.934,291.995 285.5,291C 284.002,290.415 283.002,290.915 282.5,292.5C 282.167,292.5 281.833,292.5 281.5,292.5C 281.414,291.504 281.748,290.671 282.5,290C 281.563,289.308 280.897,289.475 280.5,290.5C 280.167,290.5 279.833,290.5 279.5,290.5C 277.952,290.179 277.285,289.179 277.5,287.5C 279.196,285.475 280.863,283.475 282.5,281.5C 283.338,281.158 283.672,280.492 283.5,279.5C 284.867,275.895 284.7,272.229 283,268.5C 282.505,270.473 282.338,272.473 282.5,274.5C 282.167,275.167 281.833,275.833 281.5,276.5C 278.678,268.067 273.344,261.567 265.5,257C 266.833,256.667 268.167,256.333 269.5,256C 268.956,255.283 268.289,254.783 267.5,254.5C 267.842,253.662 268.508,253.328 269.5,253.5C 269.833,253.5 270.167,253.5 270.5,253.5C 271.601,254.598 272.934,254.765 274.5,254C 273.956,253.283 273.289,252.783 272.5,252.5C 272.5,252.167 272.5,251.833 272.5,251.5C 272.5,250.833 272.833,250.5 273.5,250.5C 273.833,250.5 274.167,250.5 274.5,250.5C 276.216,252.447 278.383,253.781 281,254.5C 280.923,252.228 279.757,250.562 277.5,249.5C 277.167,248.5 276.5,247.833 275.5,247.5C 274.537,246.637 274.537,245.97 275.5,245.5C 277.075,246.456 278.742,247.123 280.5,247.5 Z"/></g>
<g><path style="opacity:1" fill="#28191a" d="M 273.5,250.5 C 272.833,250.5 272.5,250.833 272.5,251.5C 271.373,250.878 270.373,250.045 269.5,249C 271.14,248.652 272.473,249.152 273.5,250.5 Z"/></g>
<g><path style="opacity:0.997" fill="#000000" d="M -0.5,249.5 C 56.8333,249.5 114.167,249.5 171.5,249.5C 171.817,264.139 175.65,277.806 183,290.5C 206.941,324.369 238.774,334.869 278.5,322C 309.617,307.959 325.951,283.793 327.5,249.5C 384.833,249.5 442.167,249.5 499.5,249.5C 499.5,257.833 499.5,266.167 499.5,274.5C 498.1,284.764 496.267,295.098 494,305.5C 492.031,314.9 489.198,323.9 485.5,332.5C 328.167,332.5 170.833,332.5 13.5,332.5C 6.28469,313.42 1.61802,293.754 -0.5,273.5C -0.5,265.5 -0.5,257.5 -0.5,249.5 Z"/></g>
<g><path style="opacity:1" fill="#574744" d="M 277.5,249.5 C 279.757,250.562 280.923,252.228 281,254.5C 278.383,253.781 276.216,252.447 274.5,250.5C 275.496,250.414 276.329,250.748 277,251.5C 277.464,250.906 277.631,250.239 277.5,249.5 Z"/></g>
<g><path style="opacity:1" fill="#51413e" d="M 287.5,250.5 C 289.027,250.427 290.027,251.094 290.5,252.5C 288.973,252.573 287.973,251.906 287.5,250.5 Z"/></g>
<g><path style="opacity:1" fill="#2c2424" d="M 269.5,253.5 C 268.508,253.328 267.842,253.662 267.5,254.5C 266.357,254.092 265.357,253.425 264.5,252.5C 266.289,251.753 267.956,252.086 269.5,253.5 Z"/></g>
<g><path style="opacity:1" fill="#3a2624" d="M 272.5,252.5 C 273.289,252.783 273.956,253.283 274.5,254C 272.934,254.765 271.601,254.598 270.5,253.5C 271.492,253.672 272.158,253.338 272.5,252.5 Z"/></g>
<g><path style="opacity:1" fill="#939d93" d="M 245.5,253.5 C 248.631,256.129 251.631,258.962 254.5,262C 251.538,261.308 248.538,261.474 245.5,262.5C 245.5,259.5 245.5,256.5 245.5,253.5 Z"/></g>
<g><path style="opacity:1" fill="#4f1e19" d="M 294.5,256.5 C 295.906,256.973 296.573,257.973 296.5,259.5C 295.094,259.027 294.427,258.027 294.5,256.5 Z"/></g>
<g><path style="opacity:1" fill="#504943" d="M 249.5,244.5 C 254.673,247.261 259.34,250.761 263.5,255C 265.066,255.765 266.399,255.598 267.5,254.5C 268.289,254.783 268.956,255.283 269.5,256C 268.167,256.333 266.833,256.667 265.5,257C 273.344,261.567 278.678,268.067 281.5,276.5C 281.5,276.833 281.5,277.167 281.5,277.5C 278.967,281.574 278.301,281.408 279.5,277C 278.368,275.235 277.368,273.402 276.5,271.5C 275.081,268.9 273.415,266.4 271.5,264C 268.114,260.982 264.447,258.482 260.5,256.5C 261.239,256.631 261.906,256.464 262.5,256C 259.215,252.027 255.215,249.027 250.5,247C 249.748,246.329 249.414,245.496 249.5,244.5 Z"/></g>
<g><path style="opacity:1" fill="#521613" d="M 297.5,261.5 C 299.047,263.807 299.713,266.473 299.5,269.5C 299.495,271.696 299.162,273.696 298.5,275.5C 298.563,270.797 298.229,266.13 297.5,261.5 Z"/></g>
<g><path style="opacity:1" fill="#410d0d" d="M 283.5,279.5 C 283.784,277.585 283.451,275.919 282.5,274.5C 282.338,272.473 282.505,270.473 283,268.5C 284.7,272.229 284.867,275.895 283.5,279.5 Z"/></g>
<g><path style="opacity:1" fill="#f7f7f7" d="M 253.5,273.5 C 258.105,275.766 260.105,279.433 259.5,284.5C 257.5,284.5 255.5,284.5 253.5,284.5C 253.5,280.833 253.5,277.167 253.5,273.5 Z"/></g>
<g><path style="opacity:1" fill="#817e7d" d="M 282.5,274.5 C 283.451,275.919 283.784,277.585 283.5,279.5C 283.672,280.492 283.338,281.158 282.5,281.5C 282.768,279.901 282.434,278.568 281.5,277.5C 281.5,277.167 281.5,276.833 281.5,276.5C 281.833,275.833 282.167,275.167 282.5,274.5 Z"/></g>
<g><path style="opacity:1" fill="#7f7f7f" d="M 248.5,272.5 C 249.482,275.962 249.815,279.629 249.5,283.5C 242.167,283.5 234.833,283.5 227.5,283.5C 234.313,282.509 241.313,282.175 248.5,282.5C 248.5,279.167 248.5,275.833 248.5,272.5 Z"/></g>
<g><path style="opacity:1" fill="#968c8a" d="M 297.5,279.5 C 297.969,282.393 296.969,284.393 294.5,285.5C 294.992,283.181 295.992,281.181 297.5,279.5 Z"/></g>
<g><path style="opacity:1" fill="#553f3c" d="M 294.5,285.5 C 294.573,287.027 293.906,288.027 292.5,288.5C 292.427,286.973 293.094,285.973 294.5,285.5 Z"/></g>
<g><path style="opacity:1" fill="#411916" d="M 277.5,287.5 C 277.285,289.179 277.952,290.179 279.5,290.5C 278.469,291.249 277.302,291.915 276,292.5C 276.311,291.065 276.145,289.732 275.5,288.5C 275.957,287.702 276.624,287.369 277.5,287.5 Z"/></g>
<g><path style="opacity:1" fill="#1b0f0f" d="M 281.5,292.5 C 280.662,292.158 280.328,291.492 280.5,290.5C 280.897,289.475 281.563,289.308 282.5,290C 281.748,290.671 281.414,291.504 281.5,292.5 Z"/></g>
<g><path style="opacity:1" fill="#250f09" d="M 283.5,293.5 C 283.5,292.833 283.167,292.5 282.5,292.5C 283.002,290.915 284.002,290.415 285.5,291C 284.934,291.995 284.267,292.828 283.5,293.5 Z"/></g>
<g><path style="opacity:1" fill="#6d6463" d="M 292.5,288.5 C 291.833,291.167 290.167,292.833 287.5,293.5C 288.833,291.5 290.5,289.833 292.5,288.5 Z"/></g>
<g><path style="opacity:1" fill="#2e2322" d="M 282.5,294.5 C 282.842,295.338 283.508,295.672 284.5,295.5C 283.614,296.776 282.614,296.776 281.5,295.5C 281.624,294.893 281.957,294.56 282.5,294.5 Z"/></g>
<g><path style="opacity:0.997" fill="#ddc703" d="M 13.5,332.5 C 170.833,332.5 328.167,332.5 485.5,332.5C 485.5,333.167 485.5,333.833 485.5,334.5C 328.167,334.5 170.833,334.5 13.5,334.5C 13.5,333.833 13.5,333.167 13.5,332.5 Z"/></g>
<g><path style="opacity:0.996" fill="#fbdb03" d="M 13.5,334.5 C 170.833,334.5 328.167,334.5 485.5,334.5C 474.253,365.014 457.92,392.347 436.5,416.5C 312.167,416.5 187.833,416.5 63.5,416.5C 41.2726,392.741 24.6059,365.407 13.5,334.5 Z"/></g>
<g><path style="opacity:0.988" fill="#d80000" d="M 63.5,416.5 C 187.833,416.5 312.167,416.5 436.5,416.5C 392.954,464.274 338.954,491.941 274.5,499.5C 257.833,499.5 241.167,499.5 224.5,499.5C 169.704,492.931 121.704,471.431 80.5,435C 74.2369,429.243 68.5702,423.076 63.5,416.5 Z"/></g>
</svg>
