<?xml version="1.0" encoding="UTF-8"?>
<!DOCTYPE svg PUBLIC "-//W3C//DTD SVG 1.1//EN" "http://www.w3.org/Graphics/SVG/1.1/DTD/svg11.dtd">
<svg xmlns="http://www.w3.org/2000/svg" version="1.1" width="500px" height="500px" style="shape-rendering:geometricPrecision; text-rendering:geometricPrecision; image-rendering:optimizeQuality; fill-rule:evenodd; clip-rule:evenodd" xmlns:xlink="http://www.w3.org/1999/xlink">
<g><path style="opacity:0.996" fill="#3c3b6e" d="M 225.5,-0.5 C 241.5,-0.5 257.5,-0.5 273.5,-0.5C 297.903,2.18569 321.569,8.18569 344.5,17.5C 344.461,18.5832 344.127,19.5832 343.5,20.5C 340.215,21.3236 336.882,21.8236 333.5,22C 336.312,23.9773 338.978,26.144 341.5,28.5C 339.578,31.8967 338.578,35.23 338.5,38.5C 341.263,36.3714 344.096,34.3714 347,32.5C 349.397,34.2847 351.897,35.9514 354.5,37.5C 354.833,37 355.167,36.5 355.5,36C 354.732,33.8636 354.066,31.6969 353.5,29.5C 354.432,27.2345 355.765,25.2345 357.5,23.5C 365.161,26.9955 372.495,30.9955 379.5,35.5C 379.5,36.1667 379.5,36.8333 379.5,37.5C 379.5,50.5 379.5,63.5 379.5,76.5C 379.5,89.1667 379.5,101.833 379.5,114.5C 379.5,127.5 379.5,140.5 379.5,153.5C 379.5,166.167 379.5,178.833 379.5,191.5C 379.5,204.5 379.5,217.5 379.5,230.5C 379.5,243.167 379.5,255.833 379.5,268.5C 252.833,268.5 126.167,268.5 -0.5,268.5C -0.5,254.167 -0.5,239.833 -0.5,225.5C 2.91489,193.844 11.9149,163.844 26.5,135.5C 27.0431,135.56 27.3764,135.893 27.5,136.5C 25.525,139.374 24.8584,142.374 25.5,145.5C 27.7588,143.455 30.2588,141.789 33,140.5C 35.3972,142.285 37.8972,143.951 40.5,145.5C 40.8333,145 41.1667,144.5 41.5,144C 39.7749,140.907 39.4416,137.74 40.5,134.5C 42.3586,132.808 44.3586,131.308 46.5,130C 43.1832,129.502 39.8499,129.335 36.5,129.5C 36.4484,126.654 35.4484,124.32 33.5,122.5C 58.6468,79.8535 93.3134,47.3535 137.5,25C 139.854,24.1529 142.188,23.3195 144.5,22.5C 147.431,24.0908 150.098,26.0908 152.5,28.5C 151.065,31.643 149.732,34.8096 148.5,38C 149.167,38.6667 149.833,38.6667 150.5,38C 152.928,36.0391 155.428,34.2058 158,32.5C 160.397,34.2847 162.897,35.9514 165.5,37.5C 165.833,37 166.167,36.5 166.5,36C 165.139,33.2704 164.639,30.4371 165,27.5C 167.074,25.5479 169.241,23.7146 171.5,22C 168.118,21.8236 164.785,21.3236 161.5,20.5C 160.691,18.9291 160.357,17.2624 160.5,15.5C 181.499,7.36776 203.166,2.03443 225.5,-0.5 Z"/></g>
<g><path style="opacity:1" fill="#f3f3f6" d="M 220.5,11.5 C 222.573,14.0432 223.906,17.0432 224.5,20.5C 227.785,21.3236 231.118,21.8236 234.5,22C 232.241,23.7146 230.074,25.5479 228,27.5C 227.639,30.4371 228.139,33.2704 229.5,36C 229.167,36.5 228.833,37 228.5,37.5C 225.897,35.9514 223.397,34.2847 221,32.5C 218.096,34.3714 215.263,36.3714 212.5,38.5C 212.578,35.23 213.578,31.8967 215.5,28.5C 212.978,26.144 210.312,23.9773 207.5,22C 210.882,21.8236 214.215,21.3236 217.5,20.5C 218.705,17.5504 219.705,14.5504 220.5,11.5 Z"/></g>
<g><path style="opacity:1" fill="#f3f3f6" d="M 283.5,11.5 C 285.785,14.335 287.118,17.6684 287.5,21.5C 290.85,21.335 294.183,21.5017 297.5,22C 295.241,23.7146 293.074,25.5479 291,27.5C 290.336,30.5159 290.836,33.3492 292.5,36C 292.167,36.5 291.833,37 291.5,37.5C 288.897,35.9514 286.397,34.2847 284,32.5C 281.428,34.2058 278.928,36.0391 276.5,38C 275.833,38.6667 275.167,38.6667 274.5,38C 275.732,34.8096 277.065,31.643 278.5,28.5C 275.978,26.144 273.312,23.9773 270.5,22C 273.882,21.8236 277.215,21.3236 280.5,20.5C 281.705,17.5504 282.705,14.5504 283.5,11.5 Z"/></g>
<g><path style="opacity:0.989" fill="#f3f3f6" d="M 160.5,15.5 C 160.357,17.2624 160.691,18.9291 161.5,20.5C 164.785,21.3236 168.118,21.8236 171.5,22C 169.241,23.7146 167.074,25.5479 165,27.5C 164.639,30.4371 165.139,33.2704 166.5,36C 166.167,36.5 165.833,37 165.5,37.5C 162.897,35.9514 160.397,34.2847 158,32.5C 155.428,34.2058 152.928,36.0391 150.5,38C 149.833,38.6667 149.167,38.6667 148.5,38C 149.732,34.8096 151.065,31.643 152.5,28.5C 150.098,26.0908 147.431,24.0908 144.5,22.5C 145.29,21.5987 146.29,20.9321 147.5,20.5C 149.693,21.7969 152.027,21.7969 154.5,20.5C 155.127,19.5832 155.461,18.5832 155.5,17.5C 156.93,16.4625 158.597,15.7959 160.5,15.5 Z"/></g>
<g><path style="opacity:0.974" fill="#f4f4f7" d="M 344.5,17.5 C 348.953,19.2263 353.286,21.2263 357.5,23.5C 355.765,25.2345 354.432,27.2345 353.5,29.5C 354.066,31.6969 354.732,33.8636 355.5,36C 355.167,36.5 354.833,37 354.5,37.5C 351.897,35.9514 349.397,34.2847 347,32.5C 344.096,34.3714 341.263,36.3714 338.5,38.5C 338.578,35.23 339.578,31.8967 341.5,28.5C 338.978,26.144 336.312,23.9773 333.5,22C 336.882,21.8236 340.215,21.3236 343.5,20.5C 344.127,19.5832 344.461,18.5832 344.5,17.5 Z"/></g>
<g><path style="opacity:0.649" fill="#413f71" d="M 155.5,17.5 C 155.461,18.5832 155.127,19.5832 154.5,20.5C 152.027,21.7969 149.693,21.7969 147.5,20.5C 150.007,19.1084 152.673,18.1084 155.5,17.5 Z"/></g>
<g><path style="opacity:0.137" fill="#a91123" d="M 379.5,35.5 C 380.71,35.9321 381.71,36.5987 382.5,37.5C 381.5,37.5 380.5,37.5 379.5,37.5C 379.5,36.8333 379.5,36.1667 379.5,35.5 Z"/></g>
<g><path style="opacity:0.963" fill="#fefdfd" d="M 379.5,37.5 C 380.5,37.5 381.5,37.5 382.5,37.5C 400.245,48.2341 416.245,61.2341 430.5,76.5C 413.5,76.5 396.5,76.5 379.5,76.5C 379.5,63.5 379.5,50.5 379.5,37.5 Z"/></g>
<g><path style="opacity:1" fill="#f4f3f6" d="M 125.5,38.5 C 128.16,41.113 129.493,44.4463 129.5,48.5C 133.182,48.3347 136.848,48.5014 140.5,49C 138,50.8333 135.5,52.6667 133,54.5C 133.824,58.1296 134.49,61.7963 135,65.5C 132.305,63.3056 129.472,61.3056 126.5,59.5C 123.528,61.3056 120.695,63.3056 118,65.5C 118.387,62.3188 119.22,59.1521 120.5,56C 118.308,53.2198 115.641,50.8865 112.5,49C 116.152,48.5014 119.818,48.3347 123.5,48.5C 123.959,45.1226 124.626,41.7893 125.5,38.5 Z"/></g>
<g><path style="opacity:1" fill="#f4f3f6" d="M 188.5,38.5 C 191.16,41.113 192.493,44.4463 192.5,48.5C 196.182,48.3347 199.848,48.5014 203.5,49C 201,50.8333 198.5,52.6667 196,54.5C 196.824,58.1296 197.49,61.7963 198,65.5C 195.305,63.3056 192.472,61.3056 189.5,59.5C 186.528,61.3056 183.695,63.3056 181,65.5C 181.387,62.3188 182.22,59.1521 183.5,56C 181.308,53.2198 178.641,50.8865 175.5,49C 179.152,48.5014 182.818,48.3347 186.5,48.5C 186.959,45.1226 187.626,41.7893 188.5,38.5 Z"/></g>
<g><path style="opacity:1" fill="#f4f3f6" d="M 251.5,38.5 C 254.16,41.113 255.493,44.4463 255.5,48.5C 259.182,48.3347 262.848,48.5014 266.5,49C 264,50.8333 261.5,52.6667 259,54.5C 259.824,58.1296 260.49,61.7963 261,65.5C 258.305,63.3056 255.472,61.3056 252.5,59.5C 249.528,61.3056 246.695,63.3056 244,65.5C 244.387,62.3188 245.22,59.1521 246.5,56C 244.308,53.2198 241.641,50.8865 238.5,49C 242.152,48.5014 245.818,48.3347 249.5,48.5C 249.959,45.1226 250.626,41.7893 251.5,38.5 Z"/></g>
<g><path style="opacity:1" fill="#f4f3f6" d="M 314.5,38.5 C 317.16,41.113 318.493,44.4463 318.5,48.5C 322.182,48.3347 325.848,48.5014 329.5,49C 327,50.8333 324.5,52.6667 322,54.5C 322.824,58.1296 323.49,61.7963 324,65.5C 321.305,63.3056 318.472,61.3056 315.5,59.5C 312.528,61.3056 309.695,63.3056 307,65.5C 307.387,62.3188 308.22,59.1521 309.5,56C 307.308,53.2198 304.641,50.8865 301.5,49C 305.152,48.5014 308.818,48.3347 312.5,48.5C 312.959,45.1226 313.626,41.7893 314.5,38.5 Z"/></g>
<g><path style="opacity:1" fill="#f3f2f6" d="M 94.5,65.5 C 96.5728,68.0432 97.9062,71.0432 98.5,74.5C 101.785,75.3236 105.118,75.8236 108.5,76C 106.241,77.7146 104.074,79.5479 102,81.5C 101.639,84.4371 102.139,87.2704 103.5,90C 103.167,90.5 102.833,91 102.5,91.5C 99.8972,89.9514 97.3972,88.2847 95,86.5C 92.096,88.3714 89.2627,90.3714 86.5,92.5C 86.578,89.23 87.578,85.8967 89.5,82.5C 86.9783,80.144 84.3116,77.9773 81.5,76C 84.8818,75.8236 88.2152,75.3236 91.5,74.5C 92.7054,71.5504 93.7054,68.5504 94.5,65.5 Z"/></g>
<g><path style="opacity:1" fill="#f3f2f6" d="M 157.5,65.5 C 159.573,68.0432 160.906,71.0432 161.5,74.5C 164.785,75.3236 168.118,75.8236 171.5,76C 169.241,77.7146 167.074,79.5479 165,81.5C 164.639,84.4371 165.139,87.2704 166.5,90C 166.167,90.5 165.833,91 165.5,91.5C 162.897,89.9514 160.397,88.2847 158,86.5C 155.096,88.3714 152.263,90.3714 149.5,92.5C 149.578,89.23 150.578,85.8967 152.5,82.5C 149.978,80.144 147.312,77.9773 144.5,76C 147.882,75.8236 151.215,75.3236 154.5,74.5C 155.705,71.5504 156.705,68.5504 157.5,65.5 Z"/></g>
<g><path style="opacity:1" fill="#f3f2f6" d="M 220.5,65.5 C 222.573,68.0432 223.906,71.0432 224.5,74.5C 227.785,75.3236 231.118,75.8236 234.5,76C 232.241,77.7146 230.074,79.5479 228,81.5C 227.639,84.4371 228.139,87.2704 229.5,90C 229.167,90.5 228.833,91 228.5,91.5C 225.897,89.9514 223.397,88.2847 221,86.5C 218.096,88.3714 215.263,90.3714 212.5,92.5C 212.578,89.23 213.578,85.8967 215.5,82.5C 212.978,80.144 210.312,77.9773 207.5,76C 210.882,75.8236 214.215,75.3236 217.5,74.5C 218.705,71.5504 219.705,68.5504 220.5,65.5 Z"/></g>
<g><path style="opacity:1" fill="#f3f3f6" d="M 283.5,65.5 C 285.785,68.335 287.118,71.6684 287.5,75.5C 290.85,75.335 294.183,75.5017 297.5,76C 295.241,77.7146 293.074,79.5479 291,81.5C 290.336,84.5159 290.836,87.3492 292.5,90C 292.167,90.5 291.833,91 291.5,91.5C 289.241,89.4552 286.741,87.7885 284,86.5C 281.428,88.2058 278.928,90.0391 276.5,92C 275.833,92.6667 275.167,92.6667 274.5,92C 275.732,88.8096 277.065,85.643 278.5,82.5C 275.978,80.144 273.312,77.9773 270.5,76C 273.882,75.8236 277.215,75.3236 280.5,74.5C 281.705,71.5504 282.705,68.5504 283.5,65.5 Z"/></g>
<g><path style="opacity:1" fill="#f3f2f6" d="M 346.5,65.5 C 348.573,68.0432 349.906,71.0432 350.5,74.5C 353.785,75.3236 357.118,75.8236 360.5,76C 358.241,77.7146 356.074,79.5479 354,81.5C 353.639,84.4371 354.139,87.2704 355.5,90C 355.167,90.5 354.833,91 354.5,91.5C 351.897,89.9514 349.397,88.2847 347,86.5C 344.096,88.3714 341.263,90.3714 338.5,92.5C 338.578,89.23 339.578,85.8967 341.5,82.5C 338.978,80.144 336.312,77.9773 333.5,76C 336.882,75.8236 340.215,75.3236 343.5,74.5C 344.705,71.5504 345.705,68.5504 346.5,65.5 Z"/></g>
<g><path style="opacity:0.987" fill="#b12133" d="M 379.5,76.5 C 396.5,76.5 413.5,76.5 430.5,76.5C 441.935,88.0369 451.935,100.704 460.5,114.5C 433.5,114.5 406.5,114.5 379.5,114.5C 379.5,101.833 379.5,89.1667 379.5,76.5 Z"/></g>
<g><path style="opacity:1" fill="#f4f4f7" d="M 63.5,92.5 C 65.7851,95.335 67.1184,98.6684 67.5,102.5C 71.1817,102.335 74.8484,102.501 78.5,103C 76,104.833 73.5,106.667 71,108.5C 70.9467,111.202 71.4467,113.869 72.5,116.5C 72.1667,117.167 71.8333,117.833 71.5,118.5C 69.3428,116.588 67.0094,114.921 64.5,113.5C 61.528,115.306 58.6947,117.306 56,119.5C 56.0865,116.056 56.9198,112.723 58.5,109.5C 56.0029,107.174 53.3362,105.007 50.5,103C 53.8333,102.667 57.1667,102.333 60.5,102C 62.0015,98.9953 63.0015,95.8286 63.5,92.5 Z"/></g>
<g><path style="opacity:1" fill="#f4f3f6" d="M 126.5,92.5 C 128.785,95.335 130.118,98.6684 130.5,102.5C 134.182,102.335 137.848,102.501 141.5,103C 139,104.833 136.5,106.667 134,108.5C 133.947,111.202 134.447,113.869 135.5,116.5C 135.167,117.167 134.833,117.833 134.5,118.5C 132.343,116.588 130.009,114.921 127.5,113.5C 124.528,115.306 121.695,117.306 119,119.5C 119.086,116.056 119.92,112.723 121.5,109.5C 119.003,107.174 116.336,105.007 113.5,103C 116.833,102.667 120.167,102.333 123.5,102C 125.002,98.9953 126.002,95.8286 126.5,92.5 Z"/></g>
<g><path style="opacity:1" fill="#f4f3f6" d="M 189.5,92.5 C 191.785,95.335 193.118,98.6684 193.5,102.5C 197.182,102.335 200.848,102.501 204.5,103C 202,104.833 199.5,106.667 197,108.5C 196.947,111.202 197.447,113.869 198.5,116.5C 198.167,117.167 197.833,117.833 197.5,118.5C 195.343,116.588 193.009,114.921 190.5,113.5C 187.528,115.306 184.695,117.306 182,119.5C 182.086,116.056 182.92,112.723 184.5,109.5C 182.003,107.174 179.336,105.007 176.5,103C 179.833,102.667 183.167,102.333 186.5,102C 188.002,98.9953 189.002,95.8286 189.5,92.5 Z"/></g>
<g><path style="opacity:1" fill="#f4f3f6" d="M 252.5,92.5 C 254.785,95.335 256.118,98.6684 256.5,102.5C 260.182,102.335 263.848,102.501 267.5,103C 265,104.833 262.5,106.667 260,108.5C 259.947,111.202 260.447,113.869 261.5,116.5C 261.167,117.167 260.833,117.833 260.5,118.5C 258.343,116.588 256.009,114.921 253.5,113.5C 250.528,115.306 247.695,117.306 245,119.5C 245.086,116.056 245.92,112.723 247.5,109.5C 245.003,107.174 242.336,105.007 239.5,103C 242.833,102.667 246.167,102.333 249.5,102C 251.002,98.9953 252.002,95.8286 252.5,92.5 Z"/></g>
<g><path style="opacity:1" fill="#f4f3f6" d="M 315.5,92.5 C 317.785,95.335 319.118,98.6684 319.5,102.5C 323.182,102.335 326.848,102.501 330.5,103C 328,104.833 325.5,106.667 323,108.5C 322.947,111.202 323.447,113.869 324.5,116.5C 324.167,117.167 323.833,117.833 323.5,118.5C 321.343,116.588 319.009,114.921 316.5,113.5C 313.528,115.306 310.695,117.306 308,119.5C 308.086,116.056 308.92,112.723 310.5,109.5C 308.003,107.174 305.336,105.007 302.5,103C 305.833,102.667 309.167,102.333 312.5,102C 314.002,98.9953 315.002,95.8286 315.5,92.5 Z"/></g>
<g><path style="opacity:0.992" fill="#fdfbfb" d="M 379.5,114.5 C 406.5,114.5 433.5,114.5 460.5,114.5C 468.853,126.552 475.52,139.552 480.5,153.5C 446.833,153.5 413.167,153.5 379.5,153.5C 379.5,140.5 379.5,127.5 379.5,114.5 Z"/></g>
<g><path style="opacity:1" fill="#f4f4f7" d="M 95.5,119.5 C 97.2714,122.154 98.6047,125.154 99.5,128.5C 102.785,129.324 106.118,129.824 109.5,130C 106.461,131.705 104.128,134.039 102.5,137C 102.963,139.389 103.63,141.723 104.5,144C 104.167,144.5 103.833,145 103.5,145.5C 100.897,143.951 98.3972,142.285 96,140.5C 93.2588,141.789 90.7588,143.455 88.5,145.5C 87.8584,142.374 88.525,139.374 90.5,136.5C 88.0029,134.174 85.3362,132.007 82.5,130C 85.8818,129.824 89.2152,129.324 92.5,128.5C 93.6594,125.519 94.6594,122.519 95.5,119.5 Z"/></g>
<g><path style="opacity:1" fill="#f4f4f7" d="M 158.5,119.5 C 160.271,122.154 161.605,125.154 162.5,128.5C 165.785,129.324 169.118,129.824 172.5,130C 169.461,131.705 167.128,134.039 165.5,137C 165.963,139.389 166.63,141.723 167.5,144C 167.167,144.5 166.833,145 166.5,145.5C 163.897,143.951 161.397,142.285 159,140.5C 156.259,141.789 153.759,143.455 151.5,145.5C 150.858,142.374 151.525,139.374 153.5,136.5C 151.003,134.174 148.336,132.007 145.5,130C 148.882,129.824 152.215,129.324 155.5,128.5C 156.659,125.519 157.659,122.519 158.5,119.5 Z"/></g>
<g><path style="opacity:1" fill="#f4f4f7" d="M 221.5,119.5 C 223.271,122.154 224.605,125.154 225.5,128.5C 228.785,129.324 232.118,129.824 235.5,130C 232.461,131.705 230.128,134.039 228.5,137C 228.963,139.389 229.63,141.723 230.5,144C 230.167,144.5 229.833,145 229.5,145.5C 226.897,143.951 224.397,142.285 222,140.5C 219.259,141.789 216.759,143.455 214.5,145.5C 213.858,142.374 214.525,139.374 216.5,136.5C 214.003,134.174 211.336,132.007 208.5,130C 211.882,129.824 215.215,129.324 218.5,128.5C 219.659,125.519 220.659,122.519 221.5,119.5 Z"/></g>
<g><path style="opacity:1" fill="#f4f4f7" d="M 284.5,119.5 C 286.785,122.335 288.118,125.668 288.5,129.5C 291.85,129.335 295.183,129.502 298.5,130C 295.461,131.705 293.128,134.039 291.5,137C 291.963,139.389 292.63,141.723 293.5,144C 293.167,144.5 292.833,145 292.5,145.5C 290.241,143.455 287.741,141.789 285,140.5C 282.603,142.285 280.103,143.951 277.5,145.5C 276.858,142.374 277.525,139.374 279.5,136.5C 277.003,134.174 274.336,132.007 271.5,130C 274.882,129.824 278.215,129.324 281.5,128.5C 282.705,125.55 283.705,122.55 284.5,119.5 Z"/></g>
<g><path style="opacity:1" fill="#f4f4f7" d="M 347.5,119.5 C 349.271,122.154 350.605,125.154 351.5,128.5C 354.785,129.324 358.118,129.824 361.5,130C 358.461,131.705 356.128,134.039 354.5,137C 354.963,139.389 355.63,141.723 356.5,144C 356.167,144.5 355.833,145 355.5,145.5C 352.897,143.951 350.397,142.285 348,140.5C 345.259,141.789 342.759,143.455 340.5,145.5C 339.858,142.374 340.525,139.374 342.5,136.5C 340.003,134.174 337.336,132.007 334.5,130C 337.882,129.824 341.215,129.324 344.5,128.5C 345.659,125.519 346.659,122.519 347.5,119.5 Z"/></g>
<g><path style="opacity:0.959" fill="#f5f5f8" d="M 33.5,122.5 C 35.4484,124.32 36.4484,126.654 36.5,129.5C 39.8499,129.335 43.1832,129.502 46.5,130C 44.3586,131.308 42.3586,132.808 40.5,134.5C 39.4416,137.74 39.7749,140.907 41.5,144C 41.1667,144.5 40.8333,145 40.5,145.5C 37.8972,143.951 35.3972,142.285 33,140.5C 30.2588,141.789 27.7588,143.455 25.5,145.5C 24.8584,142.374 25.525,139.374 27.5,136.5C 27.3764,135.893 27.0431,135.56 26.5,135.5C 28.579,131.007 30.9123,126.674 33.5,122.5 Z"/></g>
<g><path style="opacity:1" fill="#f3f3f6" d="M 63.5,145.5 C 66.1596,148.113 67.4929,151.446 67.5,155.5C 71.1817,155.335 74.8484,155.501 78.5,156C 76,157.833 73.5,159.667 71,161.5C 71.4674,165.226 72.1341,168.892 73,172.5C 70.3053,170.306 67.472,168.306 64.5,166.5C 61.8037,167.851 59.4704,169.684 57.5,172C 56.6683,172.688 56.0016,172.521 55.5,171.5C 56.5986,168.704 57.5986,165.871 58.5,163C 56.192,160.365 53.5254,158.032 50.5,156C 54.1516,155.501 57.8183,155.335 61.5,155.5C 61.9595,152.123 62.6261,148.789 63.5,145.5 Z"/></g>
<g><path style="opacity:1" fill="#f2f2f5" d="M 126.5,145.5 C 129.16,148.113 130.493,151.446 130.5,155.5C 134.182,155.335 137.848,155.501 141.5,156C 139,157.833 136.5,159.667 134,161.5C 134.467,165.226 135.134,168.892 136,172.5C 133.305,170.306 130.472,168.306 127.5,166.5C 124.804,167.851 122.47,169.684 120.5,172C 119.668,172.688 119.002,172.521 118.5,171.5C 119.599,168.704 120.599,165.871 121.5,163C 119.192,160.365 116.525,158.032 113.5,156C 117.152,155.501 120.818,155.335 124.5,155.5C 124.959,152.123 125.626,148.789 126.5,145.5 Z"/></g>
<g><path style="opacity:1" fill="#f2f2f5" d="M 189.5,145.5 C 192.16,148.113 193.493,151.446 193.5,155.5C 197.182,155.335 200.848,155.501 204.5,156C 202,157.833 199.5,159.667 197,161.5C 197.467,165.226 198.134,168.892 199,172.5C 196.305,170.306 193.472,168.306 190.5,166.5C 187.804,167.851 185.47,169.684 183.5,172C 182.668,172.688 182.002,172.521 181.5,171.5C 182.599,168.704 183.599,165.871 184.5,163C 182.192,160.365 179.525,158.032 176.5,156C 180.152,155.501 183.818,155.335 187.5,155.5C 187.959,152.123 188.626,148.789 189.5,145.5 Z"/></g>
<g><path style="opacity:1" fill="#f2f2f5" d="M 252.5,145.5 C 255.16,148.113 256.493,151.446 256.5,155.5C 260.182,155.335 263.848,155.501 267.5,156C 265,157.833 262.5,159.667 260,161.5C 260.467,165.226 261.134,168.892 262,172.5C 259.305,170.306 256.472,168.306 253.5,166.5C 250.804,167.851 248.47,169.684 246.5,172C 245.668,172.688 245.002,172.521 244.5,171.5C 245.599,168.704 246.599,165.871 247.5,163C 245.192,160.365 242.525,158.032 239.5,156C 243.152,155.501 246.818,155.335 250.5,155.5C 250.959,152.123 251.626,148.789 252.5,145.5 Z"/></g>
<g><path style="opacity:1" fill="#f2f2f5" d="M 315.5,145.5 C 318.16,148.113 319.493,151.446 319.5,155.5C 323.182,155.335 326.848,155.501 330.5,156C 328,157.833 325.5,159.667 323,161.5C 323.467,165.226 324.134,168.892 325,172.5C 322.305,170.306 319.472,168.306 316.5,166.5C 313.804,167.851 311.47,169.684 309.5,172C 308.668,172.688 308.002,172.521 307.5,171.5C 308.599,168.704 309.599,165.871 310.5,163C 308.192,160.365 305.525,158.032 302.5,156C 306.152,155.501 309.818,155.335 313.5,155.5C 313.959,152.123 314.626,148.789 315.5,145.5 Z"/></g>
<g><path style="opacity:0.994" fill="#b12133" d="M 379.5,153.5 C 413.167,153.5 446.833,153.5 480.5,153.5C 486.001,165.667 490.334,178.333 493.5,191.5C 455.5,191.5 417.5,191.5 379.5,191.5C 379.5,178.833 379.5,166.167 379.5,153.5 Z"/></g>
<g><path style="opacity:1" fill="#f3f2f6" d="M 32.5,172.5 C 35.1596,175.113 36.4929,178.446 36.5,182.5C 40.1817,182.335 43.8484,182.501 47.5,183C 44.6638,185.007 41.9971,187.174 39.5,189.5C 40.9821,192.761 41.8154,196.095 42,199.5C 39.3053,197.306 36.472,195.306 33.5,193.5C 30.528,195.306 27.6947,197.306 25,199.5C 25.3869,196.319 26.2203,193.152 27.5,190C 25.308,187.22 22.6413,184.886 19.5,183C 23.1516,182.501 26.8183,182.335 30.5,182.5C 30.9595,179.123 31.6261,175.789 32.5,172.5 Z"/></g>
<g><path style="opacity:1" fill="#f2f2f6" d="M 95.5,172.5 C 98.1596,175.113 99.4929,178.446 99.5,182.5C 103.182,182.335 106.848,182.501 110.5,183C 107.664,185.007 104.997,187.174 102.5,189.5C 103.982,192.761 104.815,196.095 105,199.5C 102.305,197.306 99.472,195.306 96.5,193.5C 93.528,195.306 90.6947,197.306 88,199.5C 88.3869,196.319 89.2203,193.152 90.5,190C 88.308,187.22 85.6413,184.886 82.5,183C 86.1516,182.501 89.8183,182.335 93.5,182.5C 93.9595,179.123 94.6261,175.789 95.5,172.5 Z"/></g>
<g><path style="opacity:1" fill="#f3f3f6" d="M 158.5,172.5 C 161.16,175.113 162.493,178.446 162.5,182.5C 166.182,182.335 169.848,182.501 173.5,183C 170.664,185.007 167.997,187.174 165.5,189.5C 166.982,192.761 167.815,196.095 168,199.5C 165.305,197.306 162.472,195.306 159.5,193.5C 156.528,195.306 153.695,197.306 151,199.5C 151.387,196.319 152.22,193.152 153.5,190C 151.308,187.22 148.641,184.886 145.5,183C 149.152,182.501 152.818,182.335 156.5,182.5C 156.959,179.123 157.626,175.789 158.5,172.5 Z"/></g>
<g><path style="opacity:1" fill="#f2f2f6" d="M 221.5,172.5 C 224.16,175.113 225.493,178.446 225.5,182.5C 229.182,182.335 232.848,182.501 236.5,183C 233.664,185.007 230.997,187.174 228.5,189.5C 229.982,192.761 230.815,196.095 231,199.5C 228.305,197.306 225.472,195.306 222.5,193.5C 219.528,195.306 216.695,197.306 214,199.5C 214.387,196.319 215.22,193.152 216.5,190C 214.308,187.22 211.641,184.886 208.5,183C 212.152,182.501 215.818,182.335 219.5,182.5C 219.959,179.123 220.626,175.789 221.5,172.5 Z"/></g>
<g><path style="opacity:1" fill="#f3f3f6" d="M 284.5,172.5 C 285.497,172.47 286.164,172.97 286.5,174C 287.308,176.761 288.308,179.428 289.5,182C 292.833,182.333 296.167,182.667 299.5,183C 296.664,185.007 293.997,187.174 291.5,189.5C 292.982,192.761 293.815,196.095 294,199.5C 291.305,197.306 288.472,195.306 285.5,193.5C 282.528,195.306 279.695,197.306 277,199.5C 277.387,196.319 278.22,193.152 279.5,190C 277.308,187.22 274.641,184.886 271.5,183C 275.152,182.501 278.818,182.335 282.5,182.5C 283.374,179.211 284.041,175.877 284.5,172.5 Z"/></g>
<g><path style="opacity:1" fill="#f2f2f6" d="M 347.5,172.5 C 350.16,175.113 351.493,178.446 351.5,182.5C 355.182,182.335 358.848,182.501 362.5,183C 359.664,185.007 356.997,187.174 354.5,189.5C 355.982,192.761 356.815,196.095 357,199.5C 354.305,197.306 351.472,195.306 348.5,193.5C 345.528,195.306 342.695,197.306 340,199.5C 340.387,196.319 341.22,193.152 342.5,190C 340.308,187.22 337.641,184.886 334.5,183C 338.152,182.501 341.818,182.335 345.5,182.5C 345.959,179.123 346.626,175.789 347.5,172.5 Z"/></g>
<g><path style="opacity:0.994" fill="#fdfbfb" d="M 379.5,191.5 C 417.5,191.5 455.5,191.5 493.5,191.5C 495.842,202.563 497.842,213.563 499.5,224.5C 499.5,226.5 499.5,228.5 499.5,230.5C 459.5,230.5 419.5,230.5 379.5,230.5C 379.5,217.5 379.5,204.5 379.5,191.5 Z"/></g>
<g><path style="opacity:1" fill="#f4f4f7" d="M 63.5,199.5 C 66.0319,202.236 67.3653,205.57 67.5,209.5C 70.8499,209.335 74.1832,209.502 77.5,210C 74.4875,211.679 72.1541,214.013 70.5,217C 71.7797,220.152 72.6131,223.319 73,226.5C 70.2615,224.093 67.2615,222.093 64,220.5C 61.1719,222.251 58.5052,224.251 56,226.5C 56.0865,223.056 56.9198,219.723 58.5,216.5C 56.0562,214.105 53.3895,211.938 50.5,210C 53.8333,209.667 57.1667,209.333 60.5,209C 61.8852,205.961 62.8852,202.794 63.5,199.5 Z"/></g>
<g><path style="opacity:1" fill="#f4f4f7" d="M 126.5,199.5 C 128.785,202.335 130.118,205.668 130.5,209.5C 133.85,209.335 137.183,209.502 140.5,210C 137.487,211.679 135.154,214.013 133.5,217C 134.78,220.152 135.613,223.319 136,226.5C 133.262,224.093 130.262,222.093 127,220.5C 124.172,222.251 121.505,224.251 119,226.5C 119.086,223.056 119.92,219.723 121.5,216.5C 119.056,214.105 116.39,211.938 113.5,210C 116.833,209.667 120.167,209.333 123.5,209C 124.885,205.961 125.885,202.794 126.5,199.5 Z"/></g>
<g><path style="opacity:1" fill="#f4f4f7" d="M 189.5,199.5 C 191.785,202.335 193.118,205.668 193.5,209.5C 196.85,209.335 200.183,209.502 203.5,210C 200.487,211.679 198.154,214.013 196.5,217C 197.78,220.152 198.613,223.319 199,226.5C 196.262,224.093 193.262,222.093 190,220.5C 187.172,222.251 184.505,224.251 182,226.5C 182.086,223.056 182.92,219.723 184.5,216.5C 182.056,214.105 179.39,211.938 176.5,210C 179.833,209.667 183.167,209.333 186.5,209C 187.885,205.961 188.885,202.794 189.5,199.5 Z"/></g>
<g><path style="opacity:1" fill="#f4f4f6" d="M 252.5,199.5 C 255.032,202.236 256.365,205.57 256.5,209.5C 259.85,209.335 263.183,209.502 266.5,210C 263.487,211.679 261.154,214.013 259.5,217C 260.78,220.152 261.613,223.319 262,226.5C 259.262,224.093 256.262,222.093 253,220.5C 250.172,222.251 247.505,224.251 245,226.5C 245.086,223.056 245.92,219.723 247.5,216.5C 245.056,214.105 242.39,211.938 239.5,210C 242.833,209.667 246.167,209.333 249.5,209C 250.885,205.961 251.885,202.794 252.5,199.5 Z"/></g>
<g><path style="opacity:1" fill="#f4f4f6" d="M 315.5,199.5 C 318.032,202.236 319.365,205.57 319.5,209.5C 322.85,209.335 326.183,209.502 329.5,210C 326.487,211.679 324.154,214.013 322.5,217C 323.78,220.152 324.613,223.319 325,226.5C 322.262,224.093 319.262,222.093 316,220.5C 313.172,222.251 310.505,224.251 308,226.5C 308.086,223.056 308.92,219.723 310.5,216.5C 308.056,214.105 305.39,211.938 302.5,210C 305.833,209.667 309.167,209.333 312.5,209C 313.885,205.961 314.885,202.794 315.5,199.5 Z"/></g>
<g><path style="opacity:1" fill="#f4f3f6" d="M 36.5,235.5 C 39.8333,236.167 43.1667,236.833 46.5,237.5C 43.6884,239.076 41.0217,240.91 38.5,243C 40.3704,246.061 41.037,249.227 40.5,252.5C 38.2412,250.455 35.7412,248.789 33,247.5C 30.0777,248.755 27.411,250.422 25,252.5C 24.7399,249.423 25.2399,246.423 26.5,243.5C 24.7748,240.802 22.4414,238.802 19.5,237.5C 22.8333,236.833 26.1667,236.167 29.5,235.5C 30.1792,232.293 31.3459,229.293 33,226.5C 34.2727,229.489 35.4394,232.489 36.5,235.5 Z"/></g>
<g><path style="opacity:1" fill="#f3f3f6" d="M 99.5,235.5 C 102.833,236.167 106.167,236.833 109.5,237.5C 106.688,239.076 104.022,240.91 101.5,243C 103.37,246.061 104.037,249.227 103.5,252.5C 101.241,250.455 98.7412,248.789 96,247.5C 93.0777,248.755 90.411,250.422 88,252.5C 87.7399,249.423 88.2399,246.423 89.5,243.5C 87.7748,240.802 85.4414,238.802 82.5,237.5C 85.8333,236.833 89.1667,236.167 92.5,235.5C 93.1792,232.293 94.3459,229.293 96,226.5C 97.2727,229.489 98.4394,232.489 99.5,235.5 Z"/></g>
<g><path style="opacity:1" fill="#f3f3f6" d="M 162.5,235.5 C 165.833,236.167 169.167,236.833 172.5,237.5C 169.688,239.076 167.022,240.91 164.5,243C 166.37,246.061 167.037,249.227 166.5,252.5C 164.241,250.455 161.741,248.789 159,247.5C 156.078,248.755 153.411,250.422 151,252.5C 150.74,249.423 151.24,246.423 152.5,243.5C 150.775,240.802 148.441,238.802 145.5,237.5C 148.833,236.833 152.167,236.167 155.5,235.5C 156.179,232.293 157.346,229.293 159,226.5C 160.273,229.489 161.439,232.489 162.5,235.5 Z"/></g>
<g><path style="opacity:1" fill="#f3f3f6" d="M 225.5,235.5 C 228.833,236.167 232.167,236.833 235.5,237.5C 232.688,239.076 230.022,240.91 227.5,243C 229.37,246.061 230.037,249.227 229.5,252.5C 227.241,250.455 224.741,248.789 222,247.5C 219.078,248.755 216.411,250.422 214,252.5C 213.74,249.423 214.24,246.423 215.5,243.5C 213.775,240.802 211.441,238.802 208.5,237.5C 211.833,236.833 215.167,236.167 218.5,235.5C 219.179,232.293 220.346,229.293 222,226.5C 223.273,229.489 224.439,232.489 225.5,235.5 Z"/></g>
<g><path style="opacity:1" fill="#f4f3f6" d="M 288.5,235.5 C 291.833,236.167 295.167,236.833 298.5,237.5C 295.467,239.016 292.8,241.016 290.5,243.5C 292.475,246.374 293.142,249.374 292.5,252.5C 290.241,250.455 287.741,248.789 285,247.5C 282.182,248.91 279.515,250.577 277,252.5C 276.74,249.423 277.24,246.423 278.5,243.5C 276.775,240.802 274.441,238.802 271.5,237.5C 274.833,236.833 278.167,236.167 281.5,235.5C 282.179,232.293 283.346,229.293 285,226.5C 286.273,229.489 287.439,232.489 288.5,235.5 Z"/></g>
<g><path style="opacity:1" fill="#f3f3f6" d="M 351.5,235.5 C 354.833,236.167 358.167,236.833 361.5,237.5C 358.688,239.076 356.022,240.91 353.5,243C 355.37,246.061 356.037,249.227 355.5,252.5C 353.241,250.455 350.741,248.789 348,247.5C 345.078,248.755 342.411,250.422 340,252.5C 339.74,249.423 340.24,246.423 341.5,243.5C 339.775,240.802 337.441,238.802 334.5,237.5C 337.833,236.833 341.167,236.167 344.5,235.5C 345.179,232.293 346.346,229.293 348,226.5C 349.273,229.489 350.439,232.489 351.5,235.5 Z"/></g>
<g><path style="opacity:0.998" fill="#b12133" d="M 379.5,230.5 C 419.5,230.5 459.5,230.5 499.5,230.5C 499.5,243.167 499.5,255.833 499.5,268.5C 459.5,268.5 419.5,268.5 379.5,268.5C 379.5,255.833 379.5,243.167 379.5,230.5 Z"/></g>
<g><path style="opacity:1" fill="#7c7b9d" d="M 29.5,235.5 C 26.1667,236.167 22.8333,236.833 19.5,237.5C 18.9569,237.44 18.6236,237.107 18.5,236.5C 22.1073,235.511 25.774,235.177 29.5,235.5 Z"/></g>
<g><path style="opacity:1" fill="#767599" d="M 36.5,235.5 C 40.226,235.177 43.8927,235.511 47.5,236.5C 47.3764,237.107 47.0431,237.44 46.5,237.5C 43.1667,236.833 39.8333,236.167 36.5,235.5 Z"/></g>
<g><path style="opacity:1" fill="#7c7b9d" d="M 92.5,235.5 C 89.1667,236.167 85.8333,236.833 82.5,237.5C 81.9569,237.44 81.6236,237.107 81.5,236.5C 85.1073,235.511 88.774,235.177 92.5,235.5 Z"/></g>
<g><path style="opacity:1" fill="#767599" d="M 99.5,235.5 C 103.226,235.177 106.893,235.511 110.5,236.5C 110.376,237.107 110.043,237.44 109.5,237.5C 106.167,236.833 102.833,236.167 99.5,235.5 Z"/></g>
<g><path style="opacity:1" fill="#7b7a9d" d="M 155.5,235.5 C 152.167,236.167 148.833,236.833 145.5,237.5C 144.957,237.44 144.624,237.107 144.5,236.5C 148.107,235.511 151.774,235.177 155.5,235.5 Z"/></g>
<g><path style="opacity:1" fill="#767599" d="M 162.5,235.5 C 166.226,235.177 169.893,235.511 173.5,236.5C 173.376,237.107 173.043,237.44 172.5,237.5C 169.167,236.833 165.833,236.167 162.5,235.5 Z"/></g>
<g><path style="opacity:1" fill="#7c7b9d" d="M 218.5,235.5 C 215.167,236.167 211.833,236.833 208.5,237.5C 207.957,237.44 207.624,237.107 207.5,236.5C 211.107,235.511 214.774,235.177 218.5,235.5 Z"/></g>
<g><path style="opacity:1" fill="#767599" d="M 225.5,235.5 C 229.226,235.177 232.893,235.511 236.5,236.5C 236.376,237.107 236.043,237.44 235.5,237.5C 232.167,236.833 228.833,236.167 225.5,235.5 Z"/></g>
<g><path style="opacity:1" fill="#7b7a9d" d="M 281.5,235.5 C 278.167,236.167 274.833,236.833 271.5,237.5C 270.957,237.44 270.624,237.107 270.5,236.5C 274.107,235.511 277.774,235.177 281.5,235.5 Z"/></g>
<g><path style="opacity:1" fill="#767599" d="M 288.5,235.5 C 292.226,235.177 295.893,235.511 299.5,236.5C 299.376,237.107 299.043,237.44 298.5,237.5C 295.167,236.833 291.833,236.167 288.5,235.5 Z"/></g>
<g><path style="opacity:1" fill="#7c7b9d" d="M 344.5,235.5 C 341.167,236.167 337.833,236.833 334.5,237.5C 333.957,237.44 333.624,237.107 333.5,236.5C 337.107,235.511 340.774,235.177 344.5,235.5 Z"/></g>
<g><path style="opacity:1" fill="#767599" d="M 351.5,235.5 C 355.226,235.177 358.893,235.511 362.5,236.5C 362.376,237.107 362.043,237.44 361.5,237.5C 358.167,236.833 354.833,236.167 351.5,235.5 Z"/></g>
<g><path style="opacity:0.997" fill="#fdfbfc" d="M -0.5,268.5 C 126.167,268.5 252.833,268.5 379.5,268.5C 419.5,268.5 459.5,268.5 499.5,268.5C 499.5,270.5 499.5,272.5 499.5,274.5C 498.041,285.472 496.041,296.472 493.5,307.5C 330.833,307.5 168.167,307.5 5.5,307.5C 3.04906,296.121 1.04906,284.787 -0.5,273.5C -0.5,271.833 -0.5,270.167 -0.5,268.5 Z"/></g>
<g><path style="opacity:0.997" fill="#b12133" d="M 5.5,307.5 C 168.167,307.5 330.833,307.5 493.5,307.5C 490.686,320.79 486.353,333.457 480.5,345.5C 326.5,345.5 172.5,345.5 18.5,345.5C 12.9992,333.333 8.66588,320.667 5.5,307.5 Z"/></g>
<g><path style="opacity:0.997" fill="#fdfbfb" d="M 18.5,345.5 C 172.5,345.5 326.5,345.5 480.5,345.5C 475.653,359.53 468.986,372.53 460.5,384.5C 319.833,384.5 179.167,384.5 38.5,384.5C 30.1465,372.448 23.4798,359.448 18.5,345.5 Z"/></g>
<g><path style="opacity:0.996" fill="#b12133" d="M 38.5,384.5 C 179.167,384.5 319.833,384.5 460.5,384.5C 451.935,398.296 441.935,410.963 430.5,422.5C 309.999,422.167 189.666,422.5 69.5,423.5C 57.4933,411.814 47.16,398.814 38.5,384.5 Z"/></g>
<g><path style="opacity:0.994" fill="#fefbfb" d="M 430.5,422.5 C 416.245,437.766 400.245,450.766 382.5,461.5C 293.833,461.5 205.167,461.5 116.5,461.5C 99.091,451.102 83.4243,438.435 69.5,423.5C 189.666,422.5 309.999,422.167 430.5,422.5 Z"/></g>
<g><path style="opacity:0.976" fill="#b12133" d="M 116.5,461.5 C 205.167,461.5 293.833,461.5 382.5,461.5C 349.528,482.647 313.528,495.314 274.5,499.5C 257.833,499.5 241.167,499.5 224.5,499.5C 185.59,494.975 149.59,482.308 116.5,461.5 Z"/></g>
</svg>
