<?xml version="1.0" encoding="UTF-8"?>
<!DOCTYPE svg PUBLIC "-//W3C//DTD SVG 1.1//EN" "http://www.w3.org/Graphics/SVG/1.1/DTD/svg11.dtd">
<svg xmlns="http://www.w3.org/2000/svg" version="1.1" width="500px" height="500px" style="shape-rendering:geometricPrecision; text-rendering:geometricPrecision; image-rendering:optimizeQuality; fill-rule:evenodd; clip-rule:evenodd" xmlns:xlink="http://www.w3.org/1999/xlink">
<g><path style="opacity:0.994" fill="#019e49" d="M 225.5,-0.5 C 241.5,-0.5 257.5,-0.5 273.5,-0.5C 362.269,10.9489 428.436,55.6156 472,133.5C 477.625,144.077 482.125,155.077 485.5,166.5C 379.167,166.5 272.833,166.5 166.5,166.5C 166.5,115.5 166.5,64.5 166.5,13.5C 185.622,6.46923 205.289,1.80256 225.5,-0.5 Z"/></g>
<g><path style="opacity:0.993" fill="#cd1126" d="M 166.5,13.5 C 166.5,64.5 166.5,115.5 166.5,166.5C 166.5,221.833 166.5,277.167 166.5,332.5C 166.5,383.5 166.5,434.5 166.5,485.5C 84.513,455.009 31.3463,397.676 7,313.5C 3.72528,300.168 1.22528,286.834 -0.5,273.5C -0.5,257.5 -0.5,241.5 -0.5,225.5C 11.4543,135.075 57.4543,68.242 137.5,25C 146.845,20.2755 156.512,16.4422 166.5,13.5 Z"/></g>
<g><path style="opacity:0.998" fill="#fefffe" d="M 166.5,166.5 C 272.833,166.5 379.167,166.5 485.5,166.5C 492.586,185.267 497.253,204.6 499.5,224.5C 499.5,241.167 499.5,257.833 499.5,274.5C 498.1,284.764 496.267,295.098 494,305.5C 492.031,314.9 489.198,323.9 485.5,332.5C 379.167,332.5 272.833,332.5 166.5,332.5C 166.5,277.167 166.5,221.833 166.5,166.5 Z"/></g>
<g><path style="opacity:0.994" fill="#010101" d="M 166.5,332.5 C 272.833,332.5 379.167,332.5 485.5,332.5C 459.059,404.776 410.059,455.276 338.5,484C 317.652,491.713 296.319,496.88 274.5,499.5C 257.833,499.5 241.167,499.5 224.5,499.5C 204.6,497.253 185.267,492.586 166.5,485.5C 166.5,434.5 166.5,383.5 166.5,332.5 Z"/></g>
</svg>
