<?xml version="1.0" encoding="UTF-8"?>
<!DOCTYPE svg PUBLIC "-//W3C//DTD SVG 1.1//EN" "http://www.w3.org/Graphics/SVG/1.1/DTD/svg11.dtd">
<svg xmlns="http://www.w3.org/2000/svg" version="1.1" width="500px" height="500px" style="shape-rendering:geometricPrecision; text-rendering:geometricPrecision; image-rendering:optimizeQuality; fill-rule:evenodd; clip-rule:evenodd" xmlns:xlink="http://www.w3.org/1999/xlink">
<g><path style="opacity:0.995" fill="#fcfcfd" d="M 225.5,-0.5 C 241.5,-0.5 257.5,-0.5 273.5,-0.5C 323.325,4.92302 367.658,23.2564 406.5,54.5C 363.67,55.4987 320.67,55.832 277.5,55.5C 277.5,73.8333 277.5,92.1667 277.5,110.5C 337.5,110.5 397.5,110.5 457.5,110.5C 469.983,127.465 479.316,146.132 485.5,166.5C 416.167,166.5 346.833,166.5 277.5,166.5C 277.5,184.833 277.5,203.167 277.5,221.5C 351.167,221.5 424.833,221.5 498.5,221.5C 498.263,222.791 498.596,223.791 499.5,224.5C 499.5,241.167 499.5,257.833 499.5,274.5C 498.596,275.209 498.263,276.209 498.5,277.5C 332.5,277.5 166.5,277.5 0.5,277.5C 0.767809,275.901 0.434475,274.568 -0.5,273.5C -0.5,257.5 -0.5,241.5 -0.5,225.5C 4.16867,180.479 19.8353,139.812 46.5,103.5C 47.0256,105.23 48.0256,106.564 49.5,107.5C 50.9258,111.26 53.5925,113.593 57.5,114.5C 59.5145,115.924 61.8478,116.59 64.5,116.5C 72.7232,118.944 80.0566,122.944 86.5,128.5C 86.5,128.833 86.5,129.167 86.5,129.5C 82.9219,129.549 79.5885,130.215 76.5,131.5C 72.5752,131.43 68.9085,132.097 65.5,133.5C 61.5752,133.43 57.9085,134.097 54.5,135.5C 50.076,135.652 45.7426,136.319 41.5,137.5C 36.1667,138.167 36.1667,138.833 41.5,139.5C 43.861,139.674 46.1944,140.007 48.5,140.5C 48.8333,140.5 49.1667,140.5 49.5,140.5C 60.5578,143.344 71.8911,145.344 83.5,146.5C 85.0764,147.143 86.4097,148.143 87.5,149.5C 75.3408,154.475 65.6741,162.641 58.5,174C 56.5932,175.122 54.5932,175.955 52.5,176.5C 51.5,176.5 50.5,176.5 49.5,176.5C 43.4347,176.756 43.7681,177.756 50.5,179.5C 51.1667,179.5 51.8333,179.5 52.5,179.5C 54.9664,180.634 57.633,180.801 60.5,180C 65.5531,177.473 70.5531,174.973 75.5,172.5C 79.767,171.744 83.767,170.411 87.5,168.5C 88.5,168.5 89.5,168.5 90.5,168.5C 92.1992,168.34 93.8659,168.506 95.5,169C 89.1089,177.631 83.1089,186.465 77.5,195.5C 75.4776,197.531 73.8109,199.865 72.5,202.5C 65.6223,210.745 66.2889,211.411 74.5,204.5C 75.5,204.167 76.1667,203.5 76.5,202.5C 88.5286,194.49 100.529,186.49 112.5,178.5C 110.975,180.216 109.975,182.216 109.5,184.5C 108.076,186.515 107.41,188.848 107.5,191.5C 105.386,198.184 105.053,204.851 106.5,211.5C 108.113,219.597 105.779,226.263 99.5,231.5C 103.628,230.927 107.294,228.927 110.5,225.5C 112.241,223.023 113.741,220.356 115,217.5C 116.351,206.799 120.851,197.799 128.5,190.5C 128.833,190.5 129.167,190.5 129.5,190.5C 130.927,196.394 131.927,202.394 132.5,208.5C 132.565,211.428 133.232,214.095 134.5,216.5C 134.5,217.5 134.5,218.5 134.5,219.5C 134.565,222.428 135.232,225.095 136.5,227.5C 136.833,229.5 137.167,231.5 137.5,233.5C 137.71,239.966 138.377,239.966 139.5,233.5C 140.15,231.565 140.483,229.565 140.5,227.5C 140.5,227.167 140.5,226.833 140.5,226.5C 141.924,224.485 142.59,222.152 142.5,219.5C 142.652,215.076 143.319,210.743 144.5,206.5C 145.525,203.026 146.192,199.36 146.5,195.5C 146.43,191.575 147.097,187.909 148.5,184.5C 151.405,194.812 156.738,203.645 164.5,211C 168.458,213.234 171.958,216.067 175,219.5C 176.252,222.014 176.752,224.68 176.5,227.5C 177.116,232.341 178.116,232.008 179.5,226.5C 180.527,222.554 180.694,218.554 180,214.5C 176.745,208.992 173.745,203.325 171,197.5C 169.028,192.313 168.361,186.98 169,181.5C 178.935,188.88 189.101,195.88 199.5,202.5C 209.833,210.833 210.833,209.833 202.5,199.5C 200.975,196.437 198.975,193.77 196.5,191.5C 191.585,183.246 186.251,175.246 180.5,167.5C 180.5,166.833 180.833,166.5 181.5,166.5C 191.147,170.099 201.147,171.433 211.5,170.5C 215.182,170.335 218.848,170.501 222.5,171C 224.97,171.989 227.303,173.155 229.5,174.5C 229.976,176.066 230.643,176.4 231.5,175.5C 231.058,174.261 230.391,173.261 229.5,172.5C 229.34,170.847 228.674,169.514 227.5,168.5C 226.833,165.833 225.167,164.167 222.5,163.5C 221.609,162.89 220.609,162.557 219.5,162.5C 208.064,161.257 198.397,156.59 190.5,148.5C 190.842,147.662 191.508,147.328 192.5,147.5C 197.45,147.23 202.117,146.23 206.5,144.5C 210.743,143.319 215.076,142.652 219.5,142.5C 222.152,142.59 224.485,141.924 226.5,140.5C 226.833,140.5 227.167,140.5 227.5,140.5C 229.5,140.167 231.5,139.833 233.5,139.5C 239.966,138.377 239.966,137.71 233.5,137.5C 231.5,137.167 229.5,136.833 227.5,136.5C 225.095,135.232 222.428,134.565 219.5,134.5C 218.5,134.5 217.5,134.5 216.5,134.5C 214.095,133.232 211.428,132.565 208.5,132.5C 207.5,132.5 206.5,132.5 205.5,132.5C 200.562,130.053 195.228,129.053 189.5,129.5C 189.167,128.833 188.833,128.167 188.5,127.5C 193.73,125.214 198.73,122.381 203.5,119C 209.199,113.635 214.533,107.969 219.5,102C 220.745,101.209 222.078,100.709 223.5,100.5C 235.231,100.549 235.231,99.5492 223.5,97.5C 220.696,96.3622 217.696,96.1955 214.5,97C 209.647,99.2581 204.981,101.758 200.5,104.5C 197.603,105.129 194.936,106.129 192.5,107.5C 188.822,108.586 185.155,108.586 181.5,107.5C 188.843,96.8045 196.177,86.1378 203.5,75.5C 204.974,74.5637 205.974,73.2303 206.5,71.5C 208.377,70.4288 209.044,69.0955 208.5,67.5C 206.79,68.8872 205.123,70.2206 203.5,71.5C 200.527,73.1468 197.86,75.1468 195.5,77.5C 186.357,83.2417 177.357,89.2417 168.5,95.5C 167.897,93.3743 167.897,91.0409 168.5,88.5C 168.5,88.1667 168.5,87.8333 168.5,87.5C 169.927,85.8516 170.76,83.8516 171,81.5C 171.818,75.6513 171.652,69.9846 170.5,64.5C 169.035,60.1254 169.369,55.7921 171.5,51.5C 177.933,44.3921 176.933,43.7254 168.5,49.5C 166.871,50.6253 165.371,51.9586 164,53.5C 161.54,59.6696 159.54,66.0029 158,72.5C 155.394,77.5951 152.228,82.2618 148.5,86.5C 147.833,85.5 147.167,84.5 146.5,83.5C 145.344,71.8911 143.344,60.5578 140.5,49.5C 140.5,49.1667 140.5,48.8333 140.5,48.5C 140.167,46.5 139.833,44.5 139.5,42.5C 138.833,35.8333 138.167,35.8333 137.5,42.5C 136.659,44.3792 136.325,46.3792 136.5,48.5C 135.539,50.2646 135.205,52.2646 135.5,54.5C 134.097,57.9085 133.43,61.5752 133.5,65.5C 132.097,68.9085 131.43,72.5752 131.5,76.5C 130.097,79.9085 129.43,83.5752 129.5,87.5C 128.833,87.8333 128.167,88.1667 127.5,88.5C 123.467,77.4638 116.467,68.7972 106.5,62.5C 102.315,58.7947 100.315,54.1281 100.5,48.5C 137.588,20.8002 179.255,4.46686 225.5,-0.5 Z"/></g>
<g><path style="opacity:1" fill="#574f35" d="M 139.5,42.5 C 138.833,42.5 138.167,42.5 137.5,42.5C 138.167,35.8333 138.833,35.8333 139.5,42.5 Z"/></g>
<g><path style="opacity:1" fill="#917817" d="M 171.5,51.5 C 171.062,50.4937 170.396,50.4937 169.5,51.5C 169.672,50.5084 169.338,49.8417 168.5,49.5C 176.933,43.7254 177.933,44.3921 171.5,51.5 Z"/></g>
<g><path style="opacity:1" fill="#bc9c10" d="M 140.5,48.5 C 140.5,48.8333 140.5,49.1667 140.5,49.5C 139.503,67.6591 139.17,85.9924 139.5,104.5C 138.338,85.3377 138.171,66.0044 139,46.5C 139.278,47.4158 139.778,48.0825 140.5,48.5 Z"/></g>
<g><path style="opacity:0.968" fill="#f4f4f3" d="M 96.5,51.5 C 96.19,54.7131 96.5233,57.7131 97.5,60.5C 101.373,68.2505 104.707,76.2505 107.5,84.5C 107.665,87.5184 107.498,90.5184 107,93.5C 106.329,92.7476 105.496,92.4142 104.5,92.5C 93.911,85.917 83.5777,78.917 73.5,71.5C 80.5501,64.1161 88.2167,57.4494 96.5,51.5 Z"/></g>
<g><path style="opacity:1" fill="#bb9c18" d="M 100.5,48.5 C 100.315,54.1281 102.315,58.7947 106.5,62.5C 105.394,63.1494 104.394,63.4827 103.5,63.5C 106.29,66.922 106.123,67.5887 103,65.5C 100.158,61.6437 98.4913,57.3103 98,52.5C 97.5026,55.146 97.3359,57.8127 97.5,60.5C 96.5233,57.7131 96.19,54.7131 96.5,51.5C 97.4363,50.0256 98.7697,49.0256 100.5,48.5 Z"/></g>
<g><path style="opacity:0.994" fill="#0037a7" d="M 406.5,54.5 C 427.072,70.0647 444.072,88.7313 457.5,110.5C 397.5,110.5 337.5,110.5 277.5,110.5C 277.5,92.1667 277.5,73.8333 277.5,55.5C 320.67,55.832 363.67,55.4987 406.5,54.5 Z"/></g>
<g><path style="opacity:1" fill="#f9d016" d="M 136.5,48.5 C 137.497,66.9925 137.83,85.6592 137.5,104.5C 133.628,104.242 129.961,104.909 126.5,106.5C 127.629,100.188 128.629,93.855 129.5,87.5C 131.217,84.1552 131.884,80.4885 131.5,76.5C 133.217,73.1552 133.884,69.4885 133.5,65.5C 135.217,62.1552 135.884,58.4885 135.5,54.5C 135.205,52.2646 135.539,50.2646 136.5,48.5 Z"/></g>
<g><path style="opacity:1" fill="#f3cb1a" d="M 140.5,49.5 C 143.344,60.5578 145.344,71.8911 146.5,83.5C 147.501,90.8359 148.501,98.1692 149.5,105.5C 146.214,104.793 142.881,104.46 139.5,104.5C 139.17,85.9924 139.503,67.6591 140.5,49.5 Z"/></g>
<g><path style="opacity:1" fill="#b7992d" d="M 135.5,54.5 C 135.884,58.4885 135.217,62.1552 133.5,65.5C 133.43,61.5752 134.097,57.9085 135.5,54.5 Z"/></g>
<g><path style="opacity:1" fill="#f1c916" d="M 168.5,49.5 C 169.338,49.8417 169.672,50.5084 169.5,51.5C 170.396,50.4937 171.062,50.4937 171.5,51.5C 169.369,55.7921 169.035,60.1254 170.5,64.5C 170.868,72.2805 170.202,79.9471 168.5,87.5C 168.5,87.8333 168.5,88.1667 168.5,88.5C 166.928,91.2154 165.928,94.2154 165.5,97.5C 162.63,98.4333 160.296,100.1 158.5,102.5C 157.417,102.539 156.417,102.873 155.5,103.5C 154.808,102.975 154.308,102.308 154,101.5C 153.581,102.672 152.915,103.672 152,104.5C 150.082,98.6582 148.915,92.6582 148.5,86.5C 152.228,82.2618 155.394,77.5951 158,72.5C 159.54,66.0029 161.54,59.6696 164,53.5C 165.371,51.9586 166.871,50.6253 168.5,49.5 Z"/></g>
<g><path style="opacity:1" fill="#9f840e" d="M 169.5,51.5 C 166.746,64.624 163.58,77.624 160,90.5C 162.049,78.5095 164.383,66.5095 167,54.5C 167.377,53.0577 168.21,52.0577 169.5,51.5 Z"/></g>
<g><path style="opacity:1" fill="#5a4c21" d="M 206.5,71.5 C 205.5,71.5 204.5,71.5 203.5,71.5C 205.123,70.2206 206.79,68.8872 208.5,67.5C 209.044,69.0955 208.377,70.4288 206.5,71.5 Z"/></g>
<g><path style="opacity:1" fill="#b6992e" d="M 133.5,65.5 C 133.884,69.4885 133.217,73.1552 131.5,76.5C 131.43,72.5752 132.097,68.9085 133.5,65.5 Z"/></g>
<g><path style="opacity:0.971" fill="#f7f7f6" d="M 71.5,73.5 C 80.5829,85.9102 89.2496,98.5768 97.5,111.5C 92.0656,109.246 86.3989,107.58 80.5,106.5C 71.9962,105.5 63.3295,105.5 54.5,106.5C 53.391,106.443 52.391,106.11 51.5,105.5C 50.1667,104.167 48.8333,102.833 47.5,101.5C 54.4061,91.2582 62.4061,81.9248 71.5,73.5 Z"/></g>
<g><path style="opacity:1" fill="#ba9c11" d="M 203.5,71.5 C 204.5,71.5 205.5,71.5 206.5,71.5C 205.974,73.2303 204.974,74.5637 203.5,75.5C 191.059,87.4352 178.393,99.9352 165.5,113C 164.906,113.464 164.239,113.631 163.5,113.5C 174.465,102.035 185.631,90.7016 197,79.5C 197.528,78.184 197.028,77.5173 195.5,77.5C 197.86,75.1468 200.527,73.1468 203.5,71.5 Z"/></g>
<g><path style="opacity:1" fill="#edc614" d="M 106.5,62.5 C 116.467,68.7972 123.467,77.4638 127.5,88.5C 127.63,93.3509 126.796,98.0175 125,102.5C 124.197,99.7558 123.197,97.0891 122,94.5C 122.196,98.1016 123.029,101.602 124.5,105C 122.699,105.317 122.366,105.984 123.5,107C 122.619,107.708 121.953,108.542 121.5,109.5C 121.027,110.906 120.027,111.573 118.5,111.5C 114.833,112.5 112.5,114.833 111.5,118.5C 111.573,120.027 110.906,121.027 109.5,121.5C 108.542,121.953 107.708,122.619 107,123.5C 106.292,122.619 105.458,121.953 104.5,121.5C 104.573,119.973 103.906,118.973 102.5,118.5C 102.573,116.973 101.906,115.973 100.5,115.5C 100.262,113.596 99.2624,112.262 97.5,111.5C 89.2496,98.5768 80.5829,85.9102 71.5,73.5C 71.8333,72.5 72.5,71.8333 73.5,71.5C 83.5777,78.917 93.911,85.917 104.5,92.5C 105.315,93.8366 106.482,94.8366 108,95.5C 108.81,91.6425 108.643,87.9758 107.5,84.5C 104.707,76.2505 101.373,68.2505 97.5,60.5C 97.3359,57.8127 97.5026,55.146 98,52.5C 98.4913,57.3103 100.158,61.6437 103,65.5C 106.123,67.5887 106.29,66.922 103.5,63.5C 104.394,63.4827 105.394,63.1494 106.5,62.5 Z"/></g>
<g><path style="opacity:1" fill="#b7992d" d="M 131.5,76.5 C 131.884,80.4885 131.217,84.1552 129.5,87.5C 129.43,83.5752 130.097,79.9085 131.5,76.5 Z"/></g>
<g><path style="opacity:1" fill="#998b63" d="M 170.5,64.5 C 171.652,69.9846 171.818,75.6513 171,81.5C 170.76,83.8516 169.927,85.8516 168.5,87.5C 170.202,79.9471 170.868,72.2805 170.5,64.5 Z"/></g>
<g><path style="opacity:1" fill="#ada89e" d="M 107.5,84.5 C 108.643,87.9758 108.81,91.6425 108,95.5C 106.482,94.8366 105.315,93.8366 104.5,92.5C 105.496,92.4142 106.329,92.7476 107,93.5C 107.498,90.5184 107.665,87.5184 107.5,84.5 Z"/></g>
<g><path style="opacity:1" fill="#98853c" d="M 129.5,87.5 C 128.629,93.855 127.629,100.188 126.5,106.5C 126.5,106.833 126.5,107.167 126.5,107.5C 124.95,108.441 123.284,109.107 121.5,109.5C 121.953,108.542 122.619,107.708 123.5,107C 122.366,105.984 122.699,105.317 124.5,105C 123.029,101.602 122.196,98.1016 122,94.5C 123.197,97.0891 124.197,99.7558 125,102.5C 126.796,98.0175 127.63,93.3509 127.5,88.5C 128.167,88.1667 128.833,87.8333 129.5,87.5 Z"/></g>
<g><path style="opacity:1" fill="#a19881" d="M 168.5,88.5 C 167.897,91.0409 167.897,93.3743 168.5,95.5C 168.027,96.9063 167.027,97.573 165.5,97.5C 165.928,94.2154 166.928,91.2154 168.5,88.5 Z"/></g>
<g><path style="opacity:1" fill="#927c33" d="M 223.5,97.5 C 235.231,99.5492 235.231,100.549 223.5,100.5C 222.391,99.71 221.058,99.21 219.5,99C 221.058,98.79 222.391,98.29 223.5,97.5 Z"/></g>
<g><path style="opacity:1" fill="#93854e" d="M 165.5,97.5 C 163.704,99.9 161.37,101.567 158.5,102.5C 160.296,100.1 162.63,98.4333 165.5,97.5 Z"/></g>
<g><path style="opacity:1" fill="#967d14" d="M 47.5,101.5 C 48.8333,102.833 50.1667,104.167 51.5,105.5C 50.2617,105.81 50.2617,106.31 51.5,107C 50.9056,107.464 50.2389,107.631 49.5,107.5C 48.0256,106.564 47.0256,105.23 46.5,103.5C 46.3284,102.508 46.6618,101.842 47.5,101.5 Z"/></g>
<g><path style="opacity:1" fill="#948243" d="M 80.5,106.5 C 71.6544,107.013 62.9877,107.013 54.5,106.5C 63.3295,105.5 71.9962,105.5 80.5,106.5 Z"/></g>
<g><path style="opacity:1" fill="#f4cb15" d="M 203.5,75.5 C 196.177,86.1378 188.843,96.8045 181.5,107.5C 185.155,108.586 188.822,108.586 192.5,107.5C 195.716,107.655 198.383,106.655 200.5,104.5C 204.981,101.758 209.647,99.2581 214.5,97C 217.696,96.1955 220.696,96.3622 223.5,97.5C 222.391,98.29 221.058,98.79 219.5,99C 221.058,99.21 222.391,99.71 223.5,100.5C 222.078,100.709 220.745,101.209 219.5,102C 214.533,107.969 209.199,113.635 203.5,119C 198.73,122.381 193.73,125.214 188.5,127.5C 183.565,127.803 178.899,126.97 174.5,125C 177.476,124.295 180.142,123.129 182.5,121.5C 178.207,122.656 173.874,123.656 169.5,124.5C 169.232,126.099 169.566,127.432 170.5,128.5C 172.109,136.688 171.442,144.688 168.5,152.5C 170.507,154.533 172.507,156.533 174.5,158.5C 174.427,160.027 175.094,161.027 176.5,161.5C 177.34,163.853 178.674,165.853 180.5,167.5C 186.251,175.246 191.585,183.246 196.5,191.5C 195.542,191.953 194.708,192.619 194,193.5C 184.276,182.942 174.109,172.942 163.5,163.5C 164.366,161.856 164.866,160.189 165,158.5C 162.628,160.703 160.461,163.037 158.5,165.5C 156.566,166.11 154.899,167.11 153.5,168.5C 145.342,171.349 137.009,172.016 128.5,170.5C 124.453,169.507 121.119,170.84 118.5,174.5C 116.973,174.427 115.973,175.094 115.5,176.5C 113.973,176.427 112.973,177.094 112.5,178.5C 100.529,186.49 88.5286,194.49 76.5,202.5C 76.0618,202.565 75.7284,202.399 75.5,202C 77.0414,200.629 78.3747,199.129 79.5,197.5C 91.0801,187.423 102.247,176.757 113,165.5C 113.464,164.906 113.631,164.239 113.5,163.5C 115.144,164.366 116.811,164.866 118.5,165C 116.297,162.628 113.963,160.461 111.5,158.5C 111.573,156.973 110.906,155.973 109.5,155.5C 104.167,144.167 104.167,132.833 109.5,121.5C 110.906,121.027 111.573,120.027 111.5,118.5C 114.167,116.5 116.5,114.167 118.5,111.5C 120.027,111.573 121.027,110.906 121.5,109.5C 123.284,109.107 124.95,108.441 126.5,107.5C 136.095,104.411 145.428,105.077 154.5,109.5C 155.293,108.645 154.96,107.811 153.5,107C 155.618,105.951 157.284,104.451 158.5,102.5C 161.37,101.567 163.704,99.9 165.5,97.5C 167.027,97.573 168.027,96.9063 168.5,95.5C 177.357,89.2417 186.357,83.2417 195.5,77.5C 197.028,77.5173 197.528,78.184 197,79.5C 185.631,90.7016 174.465,102.035 163.5,113.5C 164.239,113.631 164.906,113.464 165.5,113C 178.393,99.9352 191.059,87.4352 203.5,75.5 Z"/></g>
<g><path style="opacity:1" fill="#9c8217" d="M 137.5,42.5 C 138.167,42.5 138.833,42.5 139.5,42.5C 139.833,44.5 140.167,46.5 140.5,48.5C 139.778,48.0825 139.278,47.4158 139,46.5C 138.171,66.0044 138.338,85.3377 139.5,104.5C 142.881,104.46 146.214,104.793 149.5,105.5C 148.501,98.1692 147.501,90.8359 146.5,83.5C 147.167,84.5 147.833,85.5 148.5,86.5C 148.915,92.6582 150.082,98.6582 152,104.5C 152.915,103.672 153.581,102.672 154,101.5C 154.308,102.308 154.808,102.975 155.5,103.5C 156.417,102.873 157.417,102.539 158.5,102.5C 157.284,104.451 155.618,105.951 153.5,107C 154.96,107.811 155.293,108.645 154.5,109.5C 145.428,105.077 136.095,104.411 126.5,107.5C 126.5,107.167 126.5,106.833 126.5,106.5C 129.961,104.909 133.628,104.242 137.5,104.5C 137.83,85.6592 137.497,66.9925 136.5,48.5C 136.325,46.3792 136.659,44.3792 137.5,42.5 Z"/></g>
<g><path style="opacity:1" fill="#9f8836" d="M 200.5,104.5 C 198.383,106.655 195.716,107.655 192.5,107.5C 194.936,106.129 197.603,105.129 200.5,104.5 Z"/></g>
<g><path style="opacity:1" fill="#f3cb17" d="M 51.5,105.5 C 52.391,106.11 53.391,106.443 54.5,106.5C 62.9877,107.013 71.6544,107.013 80.5,106.5C 86.3989,107.58 92.0656,109.246 97.5,111.5C 97.7376,113.404 98.7376,114.738 100.5,115.5C 100.427,117.027 101.094,118.027 102.5,118.5C 102.427,120.027 103.094,121.027 104.5,121.5C 104.44,122.043 104.107,122.376 103.5,122.5C 100.36,120.594 97.0266,119.26 93.5,118.5C 97.2784,120.892 101.278,123.059 105.5,125C 99.1969,126.384 92.8635,127.55 86.5,128.5C 80.0566,122.944 72.7232,118.944 64.5,116.5C 62.4855,115.076 60.1522,114.41 57.5,114.5C 53.5925,113.593 50.9258,111.26 49.5,107.5C 50.2389,107.631 50.9056,107.464 51.5,107C 50.2617,106.31 50.2617,105.81 51.5,105.5 Z"/></g>
<g><path style="opacity:1" fill="#987f0d" d="M 53.5,109.5 C 53.7352,108.903 54.2352,108.57 55,108.5C 60.1067,109.921 65.2734,111.088 70.5,112C 64.6616,112.399 58.9949,111.566 53.5,109.5 Z"/></g>
<g><path style="opacity:1" fill="#977e0d" d="M 93.5,118.5 C 86.2653,116.358 78.9319,114.525 71.5,113C 79.4319,112.704 86.7652,114.538 93.5,118.5 Z"/></g>
<g><path style="opacity:1" fill="#9e9161" d="M 97.5,111.5 C 99.2624,112.262 100.262,113.596 100.5,115.5C 98.7376,114.738 97.7376,113.404 97.5,111.5 Z"/></g>
<g><path style="opacity:1" fill="#9a8643" d="M 57.5,114.5 C 60.1522,114.41 62.4855,115.076 64.5,116.5C 61.8478,116.59 59.5145,115.924 57.5,114.5 Z"/></g>
<g><path style="opacity:1" fill="#8a720c" d="M 118.5,111.5 C 116.5,114.167 114.167,116.5 111.5,118.5C 112.5,114.833 114.833,112.5 118.5,111.5 Z"/></g>
<g><path style="opacity:1" fill="#8d750c" d="M 163.5,113.5 C 164.366,115.144 164.866,116.811 165,118.5C 162.833,116.333 160.667,114.167 158.5,112C 160.189,112.134 161.856,112.634 163.5,113.5 Z"/></g>
<g><path style="opacity:1" fill="#91780c" d="M 179.5,109.5 C 179.577,112.025 178.41,114.358 176,116.5C 176.579,114.008 177.746,111.675 179.5,109.5 Z"/></g>
<g><path style="opacity:1" fill="#998c5f" d="M 100.5,115.5 C 101.906,115.973 102.573,116.973 102.5,118.5C 101.094,118.027 100.427,117.027 100.5,115.5 Z"/></g>
<g><path style="opacity:1" fill="#977e0d" d="M 182.5,121.5 C 186.829,118.501 191.496,116.334 196.5,115C 192.192,117.988 187.525,120.155 182.5,121.5 Z"/></g>
<g><path style="opacity:1" fill="#9d9163" d="M 102.5,118.5 C 103.906,118.973 104.573,119.973 104.5,121.5C 103.094,121.027 102.427,120.027 102.5,118.5 Z"/></g>
<g><path style="opacity:1" fill="#1e1805" d="M 120.5,120.5 C 126.386,119.313 131.052,121.146 134.5,126C 131.393,124.237 127.893,123.404 124,123.5C 121.065,123.334 118.398,124.001 116,125.5C 115.5,125.167 115,124.833 114.5,124.5C 116.565,123.143 118.565,121.81 120.5,120.5 Z"/></g>
<g><path style="opacity:1" fill="#1f1906" d="M 148.5,120.5 C 153.884,119.906 158.55,121.406 162.5,125C 159.152,124.145 155.652,123.645 152,123.5C 148.595,123.054 145.761,124.054 143.5,126.5C 143.167,126.333 142.833,126.167 142.5,126C 144.396,123.932 146.396,122.099 148.5,120.5 Z"/></g>
<g><path style="opacity:1" fill="#9d8836" d="M 182.5,121.5 C 180.142,123.129 177.476,124.295 174.5,125C 178.899,126.97 183.565,127.803 188.5,127.5C 188.833,128.167 189.167,128.833 189.5,129.5C 183.411,129.016 177.411,128.016 171.5,126.5C 170.702,126.957 170.369,127.624 170.5,128.5C 169.566,127.432 169.232,126.099 169.5,124.5C 173.874,123.656 178.207,122.656 182.5,121.5 Z"/></g>
<g><path style="opacity:1" fill="#1a1504" d="M 120.5,126.5 C 123.85,126.335 127.183,126.502 130.5,127C 133.186,130.476 132.853,130.976 129.5,128.5C 128.738,129.628 128.071,130.795 127.5,132C 128.549,132.492 129.549,132.326 130.5,131.5C 131.696,131.846 131.696,132.346 130.5,133C 127.134,134.879 123.8,134.879 120.5,133C 121.167,132.667 121.833,132.333 122.5,132C 121.809,130.933 121.309,129.766 121,128.5C 116.622,129.67 116.455,129.004 120.5,126.5 Z"/></g>
<g><path style="opacity:1" fill="#1b1604" d="M 146.5,126.5 C 149.85,126.335 153.183,126.502 156.5,127C 159.277,129.173 159.11,129.673 156,128.5C 155.691,129.766 155.191,130.933 154.5,132C 155.167,132.333 155.833,132.667 156.5,133C 152.586,135.18 148.919,134.846 145.5,132C 146.833,132 148.167,132 149.5,132C 148.299,131.097 147.465,129.931 147,128.5C 146.189,129.96 145.355,130.293 144.5,129.5C 145.193,128.482 145.859,127.482 146.5,126.5 Z"/></g>
<g><path style="opacity:1" fill="#f8d017" d="M 54.5,135.5 C 58.4885,135.884 62.1552,135.217 65.5,133.5C 69.4885,133.884 73.1552,133.217 76.5,131.5C 79.5885,130.215 82.9219,129.549 86.5,129.5C 92.8211,128.724 99.1545,128.058 105.5,127.5C 104.793,130.786 104.46,134.119 104.5,137.5C 87.1635,137.667 69.8301,137.5 52.5,137C 53.4158,136.722 54.0825,136.222 54.5,135.5 Z"/></g>
<g><path style="opacity:1" fill="#f8cf14" d="M 189.5,129.5 C 194.716,130.493 200.049,131.493 205.5,132.5C 206.5,132.5 207.5,132.5 208.5,132.5C 210.838,134.04 213.505,134.706 216.5,134.5C 217.5,134.5 218.5,134.5 219.5,134.5C 221.838,136.04 224.505,136.706 227.5,136.5C 209.341,137.497 191.008,137.83 172.5,137.5C 172.785,134.171 172.118,131.171 170.5,128.5C 170.369,127.624 170.702,126.957 171.5,126.5C 177.411,128.016 183.411,129.016 189.5,129.5 Z"/></g>
<g><path style="opacity:1" fill="#b0a790" d="M 189.5,129.5 C 195.228,129.053 200.562,130.053 205.5,132.5C 200.049,131.493 194.716,130.493 189.5,129.5 Z"/></g>
<g><path style="opacity:1" fill="#b99b2d" d="M 76.5,131.5 C 73.1552,133.217 69.4885,133.884 65.5,133.5C 68.9085,132.097 72.5752,131.43 76.5,131.5 Z"/></g>
<g><path style="opacity:1" fill="#968960" d="M 208.5,132.5 C 211.428,132.565 214.095,133.232 216.5,134.5C 213.505,134.706 210.838,134.04 208.5,132.5 Z"/></g>
<g><path style="opacity:1" fill="#b99b2d" d="M 65.5,133.5 C 62.1552,135.217 58.4885,135.884 54.5,135.5C 57.9085,134.097 61.5752,133.43 65.5,133.5 Z"/></g>
<g><path style="opacity:1" fill="#968960" d="M 219.5,134.5 C 222.428,134.565 225.095,135.232 227.5,136.5C 224.505,136.706 221.838,136.04 219.5,134.5 Z"/></g>
<g><path style="opacity:1" fill="#5c584c" d="M 41.5,137.5 C 41.5,138.167 41.5,138.833 41.5,139.5C 36.1667,138.833 36.1667,138.167 41.5,137.5 Z"/></g>
<g><path style="opacity:1" fill="#b59610" d="M 227.5,136.5 C 229.5,136.833 231.5,137.167 233.5,137.5C 233.5,138.167 233.5,138.833 233.5,139.5C 231.5,139.833 229.5,140.167 227.5,140.5C 209.341,139.503 191.008,139.17 172.5,139.5C 172.5,138.833 172.5,138.167 172.5,137.5C 191.008,137.83 209.341,137.497 227.5,136.5 Z"/></g>
<g><path style="opacity:1" fill="#554e39" d="M 233.5,137.5 C 239.966,137.71 239.966,138.377 233.5,139.5C 233.5,138.833 233.5,138.167 233.5,137.5 Z"/></g>
<g><path style="opacity:1" fill="#f7ce15" d="M 172.5,139.5 C 191.008,139.17 209.341,139.503 227.5,140.5C 227.167,140.5 226.833,140.5 226.5,140.5C 223.848,140.41 221.515,141.076 219.5,142.5C 215.076,142.652 210.743,143.319 206.5,144.5C 201.817,145.074 197.15,145.74 192.5,146.5C 185.519,147.608 178.519,148.608 171.5,149.5C 172.051,146.193 172.384,142.86 172.5,139.5 Z"/></g>
<g><path style="opacity:1" fill="#f2ca1a" d="M 103.5,139.5 C 104.434,142.656 105.101,145.989 105.5,149.5C 102.833,149.5 100.167,149.5 97.5,149.5C 93.0886,147.87 88.422,146.87 83.5,146.5C 71.8911,145.344 60.5578,143.344 49.5,140.5C 67.3256,139.503 85.3256,139.17 103.5,139.5 Z"/></g>
<g><path style="opacity:1" fill="#9e8419" d="M 93.5,118.5 C 97.0266,119.26 100.36,120.594 103.5,122.5C 104.107,122.376 104.44,122.043 104.5,121.5C 105.458,121.953 106.292,122.619 107,123.5C 107.708,122.619 108.542,121.953 109.5,121.5C 104.167,132.833 104.167,144.167 109.5,155.5C 108.295,153.862 106.962,153.529 105.5,154.5C 105.631,153.624 105.298,152.957 104.5,152.5C 102.929,153.309 101.262,153.643 99.5,153.5C 100.263,152.732 101.263,152.232 102.5,152C 100.685,151.243 99.0188,150.41 97.5,149.5C 100.167,149.5 102.833,149.5 105.5,149.5C 105.101,145.989 104.434,142.656 103.5,139.5C 84.6711,138.338 65.6711,138.171 46.5,139C 47.4158,139.278 48.0825,139.778 48.5,140.5C 46.1944,140.007 43.861,139.674 41.5,139.5C 41.5,138.833 41.5,138.167 41.5,137.5C 45.7426,136.319 50.076,135.652 54.5,135.5C 54.0825,136.222 53.4158,136.722 52.5,137C 69.8301,137.5 87.1635,137.667 104.5,137.5C 104.46,134.119 104.793,130.786 105.5,127.5C 99.1545,128.058 92.8211,128.724 86.5,129.5C 86.5,129.167 86.5,128.833 86.5,128.5C 92.8635,127.55 99.1969,126.384 105.5,125C 101.278,123.059 97.2784,120.892 93.5,118.5 Z"/></g>
<g><path style="opacity:1" fill="#bc9c10" d="M 103.5,139.5 C 85.3256,139.17 67.3256,139.503 49.5,140.5C 49.1667,140.5 48.8333,140.5 48.5,140.5C 48.0825,139.778 47.4158,139.278 46.5,139C 65.6711,138.171 84.6711,138.338 103.5,139.5 Z"/></g>
<g><path style="opacity:1" fill="#9e957a" d="M 226.5,140.5 C 224.485,141.924 222.152,142.59 219.5,142.5C 221.515,141.076 223.848,140.41 226.5,140.5 Z"/></g>
<g><path style="opacity:1" fill="#272107" d="M 132.5,140.5 C 133.653,141.313 133.653,142.313 132.5,143.5C 136.5,146.167 140.5,146.167 144.5,143.5C 143.674,142.549 143.508,141.549 144,140.5C 145.044,141.623 145.71,142.956 146,144.5C 147.609,145.147 149.109,145.98 150.5,147C 142.863,147.32 135.197,147.486 127.5,147.5C 127.167,147.333 126.833,147.167 126.5,147C 129.697,145.926 131.697,143.76 132.5,140.5 Z"/></g>
<g><path style="opacity:1" fill="#b4b1a8" d="M 206.5,144.5 C 202.117,146.23 197.45,147.23 192.5,147.5C 192.5,147.167 192.5,146.833 192.5,146.5C 197.15,145.74 201.817,145.074 206.5,144.5 Z"/></g>
<g><path style="opacity:1" fill="#9d8e55" d="M 83.5,146.5 C 88.422,146.87 93.0886,147.87 97.5,149.5C 94.1667,149.5 90.8333,149.5 87.5,149.5C 86.4097,148.143 85.0764,147.143 83.5,146.5 Z"/></g>
<g><path style="opacity:1" fill="#f7ce15" d="M 190.5,148.5 C 198.397,156.59 208.064,161.257 219.5,162.5C 220.604,164.596 219.77,165.596 217,165.5C 204.865,164.007 193.031,161.34 181.5,157.5C 178.389,155.441 175.056,153.608 171.5,152C 177.69,150.129 184.024,148.962 190.5,148.5 Z"/></g>
<g><path style="opacity:1" fill="#9a811a" d="M 170.5,128.5 C 172.118,131.171 172.785,134.171 172.5,137.5C 172.5,138.167 172.5,138.833 172.5,139.5C 172.384,142.86 172.051,146.193 171.5,149.5C 178.519,148.608 185.519,147.608 192.5,146.5C 192.5,146.833 192.5,147.167 192.5,147.5C 191.508,147.328 190.842,147.662 190.5,148.5C 184.024,148.962 177.69,150.129 171.5,152C 175.056,153.608 178.389,155.441 181.5,157.5C 178.646,157.076 175.979,156.076 173.5,154.5C 173.167,154.667 172.833,154.833 172.5,155C 173.823,155.816 174.489,156.983 174.5,158.5C 172.507,156.533 170.507,154.533 168.5,152.5C 171.442,144.688 172.109,136.688 170.5,128.5 Z"/></g>
<g><path style="opacity:1" fill="#e2bd17" d="M 87.5,149.5 C 90.8333,149.5 94.1667,149.5 97.5,149.5C 99.0188,150.41 100.685,151.243 102.5,152C 101.263,152.232 100.263,152.732 99.5,153.5C 95.8685,155.921 91.8685,157.754 87.5,159C 86.8742,159.75 86.3742,160.584 86,161.5C 85.2825,160.549 84.4491,160.383 83.5,161C 75.6135,166.437 67.6135,171.604 59.5,176.5C 56.9952,177.417 54.6618,177.417 52.5,176.5C 54.5932,175.955 56.5932,175.122 58.5,174C 65.6741,162.641 75.3408,154.475 87.5,149.5 Z"/></g>
<g><path style="opacity:1" fill="#f6cd15" d="M 105.5,154.5 C 102.034,158.074 99.0342,162.074 96.5,166.5C 94.3691,167.169 92.3691,167.835 90.5,168.5C 89.5,168.5 88.5,168.5 87.5,168.5C 83.0845,168.861 79.0845,170.194 75.5,172.5C 70.5531,174.973 65.5531,177.473 60.5,180C 57.633,180.801 54.9664,180.634 52.5,179.5C 54.9752,178.869 57.3085,177.869 59.5,176.5C 67.6135,171.604 75.6135,166.437 83.5,161C 84.4491,160.383 85.2825,160.549 86,161.5C 86.3742,160.584 86.8742,159.75 87.5,159C 91.8685,157.754 95.8685,155.921 99.5,153.5C 101.262,153.643 102.929,153.309 104.5,152.5C 105.298,152.957 105.631,153.624 105.5,154.5 Z"/></g>
<g><path style="opacity:1" fill="#e8c217" d="M 109.5,155.5 C 110.906,155.973 111.573,156.973 111.5,158.5C 112.167,160.167 112.833,161.833 113.5,163.5C 101.833,174.5 90.5,185.833 79.5,197.5C 78.1667,197.5 77.5,196.833 77.5,195.5C 83.1089,186.465 89.1089,177.631 95.5,169C 93.8659,168.506 92.1992,168.34 90.5,168.5C 92.3691,167.835 94.3691,167.169 96.5,166.5C 99.0342,162.074 102.034,158.074 105.5,154.5C 106.962,153.529 108.295,153.862 109.5,155.5 Z"/></g>
<g><path style="opacity:1" fill="#1c1706" d="M 129.5,151.5 C 135.176,151.334 140.843,151.501 146.5,152C 148.715,152.17 150.715,152.837 152.5,154C 143.101,159.958 133.768,159.958 124.5,154C 126.175,153.015 127.842,152.181 129.5,151.5 Z"/></g>
<g><path style="opacity:1" fill="#e5c815" d="M 134.5,154.5 C 138.702,154.183 142.702,154.517 146.5,155.5C 140.812,156.878 135.145,156.712 129.5,155C 131.134,154.506 132.801,154.34 134.5,154.5 Z"/></g>
<g><path style="opacity:1" fill="#67560a" d="M 134.5,154.5 C 138.683,153.189 143.016,153.189 147.5,154.5C 147.376,155.107 147.043,155.44 146.5,155.5C 142.702,154.517 138.702,154.183 134.5,154.5 Z"/></g>
<g><path style="opacity:1" fill="#f6cd17" d="M 181.5,157.5 C 184.437,159.656 187.771,161.156 191.5,162C 201.408,164.373 211.408,166.207 221.5,167.5C 221.611,168.117 221.944,168.617 222.5,169C 218.644,169.177 214.977,169.677 211.5,170.5C 201.147,171.433 191.147,170.099 181.5,166.5C 180.061,164.64 178.395,162.973 176.5,161.5C 176.573,159.973 175.906,158.973 174.5,158.5C 174.489,156.983 173.823,155.816 172.5,155C 172.833,154.833 173.167,154.667 173.5,154.5C 175.979,156.076 178.646,157.076 181.5,157.5 Z"/></g>
<g><path style="opacity:1" fill="#a08510" d="M 181.5,157.5 C 193.031,161.34 204.865,164.007 217,165.5C 219.77,165.596 220.604,164.596 219.5,162.5C 220.609,162.557 221.609,162.89 222.5,163.5C 222.5,163.833 222.5,164.167 222.5,164.5C 220.519,165.105 220.185,166.105 221.5,167.5C 211.408,166.207 201.408,164.373 191.5,162C 187.771,161.156 184.437,159.656 181.5,157.5 Z"/></g>
<g><path style="opacity:1" fill="#8f814f" d="M 174.5,158.5 C 175.906,158.973 176.573,159.973 176.5,161.5C 175.094,161.027 174.427,160.027 174.5,158.5 Z"/></g>
<g><path style="opacity:1" fill="#927a0d" d="M 163.5,163.5 C 161.833,164.167 160.167,164.833 158.5,165.5C 160.461,163.037 162.628,160.703 165,158.5C 164.866,160.189 164.366,161.856 163.5,163.5 Z"/></g>
<g><path style="opacity:1" fill="#8e760c" d="M 111.5,158.5 C 113.963,160.461 116.297,162.628 118.5,165C 116.811,164.866 115.144,164.366 113.5,163.5C 112.833,161.833 112.167,160.167 111.5,158.5 Z"/></g>
<g><path style="opacity:1" fill="#93844f" d="M 176.5,161.5 C 178.395,162.973 180.061,164.64 181.5,166.5C 180.833,166.5 180.5,166.833 180.5,167.5C 178.674,165.853 177.34,163.853 176.5,161.5 Z"/></g>
<g><path style="opacity:1" fill="#a1957b" d="M 222.5,164.5 C 222.5,164.167 222.5,163.833 222.5,163.5C 225.167,164.167 226.833,165.833 227.5,168.5C 225.833,167.167 224.167,165.833 222.5,164.5 Z"/></g>
<g><path style="opacity:1" fill="#f4ce12" d="M 222.5,164.5 C 224.167,165.833 225.833,167.167 227.5,168.5C 227.44,169.043 227.107,169.376 226.5,169.5C 225.15,168.05 223.484,167.383 221.5,167.5C 220.185,166.105 220.519,165.105 222.5,164.5 Z"/></g>
<g><path style="opacity:0.997" fill="#0037a7" d="M 485.5,166.5 C 492.481,184.094 496.814,202.428 498.5,221.5C 424.833,221.5 351.167,221.5 277.5,221.5C 277.5,203.167 277.5,184.833 277.5,166.5C 346.833,166.5 416.167,166.5 485.5,166.5 Z"/></g>
<g><path style="opacity:1" fill="#a09473" d="M 87.5,168.5 C 83.767,170.411 79.767,171.744 75.5,172.5C 79.0845,170.194 83.0845,168.861 87.5,168.5 Z"/></g>
<g><path style="opacity:1" fill="#a28a2f" d="M 221.5,167.5 C 223.484,167.383 225.15,168.05 226.5,169.5C 227.107,169.376 227.44,169.043 227.5,168.5C 228.674,169.514 229.34,170.847 229.5,172.5C 229.5,173.167 229.5,173.833 229.5,174.5C 227.303,173.155 224.97,171.989 222.5,171C 218.848,170.501 215.182,170.335 211.5,170.5C 214.977,169.677 218.644,169.177 222.5,169C 221.944,168.617 221.611,168.117 221.5,167.5 Z"/></g>
<g><path style="opacity:1" fill="#f7ce14" d="M 148.5,184.5 C 147.097,187.909 146.43,191.575 146.5,195.5C 144.783,198.845 144.116,202.511 144.5,206.5C 143.319,210.743 142.652,215.076 142.5,219.5C 141.076,221.515 140.41,223.848 140.5,226.5C 140.5,226.833 140.5,227.167 140.5,227.5C 139.503,209.341 139.17,191.008 139.5,172.5C 142.86,172.384 146.193,172.051 149.5,171.5C 149.261,175.842 148.927,180.176 148.5,184.5 Z"/></g>
<g><path style="opacity:1" fill="#f7ce15" d="M 128.5,170.5 C 131.171,172.118 134.171,172.785 137.5,172.5C 137.83,191.008 137.497,209.341 136.5,227.5C 136.706,224.505 136.04,221.838 134.5,219.5C 134.5,218.5 134.5,217.5 134.5,216.5C 134.706,213.505 134.04,210.838 132.5,208.5C 131.927,202.394 130.927,196.394 129.5,190.5C 129.452,184.54 128.452,178.873 126.5,173.5C 126.285,171.821 126.952,170.821 128.5,170.5 Z"/></g>
<g><path style="opacity:1" fill="#e7c117" d="M 163.5,163.5 C 174.109,172.942 184.276,182.942 194,193.5C 194.708,192.619 195.542,191.953 196.5,191.5C 198.975,193.77 200.975,196.437 202.5,199.5C 202.082,200.222 201.416,200.722 200.5,201C 201.712,202.107 201.379,202.607 199.5,202.5C 189.101,195.88 178.935,188.88 169,181.5C 168.361,186.98 169.028,192.313 171,197.5C 173.745,203.325 176.745,208.992 180,214.5C 180.694,218.554 180.527,222.554 179.5,226.5C 178.609,227.11 177.609,227.443 176.5,227.5C 176.752,224.68 176.252,222.014 175,219.5C 171.958,216.067 168.458,213.234 164.5,211C 156.738,203.645 151.405,194.812 148.5,184.5C 149.222,184.082 149.722,183.416 150,182.5C 150.333,179.5 150.667,176.5 151,173.5C 152.992,178.133 154.992,182.799 157,187.5C 156.04,182.444 154.54,177.444 152.5,172.5C 153.025,171.808 153.692,171.308 154.5,171C 153.748,170.329 153.414,169.496 153.5,168.5C 154.899,167.11 156.566,166.11 158.5,165.5C 160.167,164.833 161.833,164.167 163.5,163.5 Z"/></g>
<g><path style="opacity:1" fill="#a98e18" d="M 153.5,168.5 C 153.414,169.496 153.748,170.329 154.5,171C 153.692,171.308 153.025,171.808 152.5,172.5C 154.54,177.444 156.04,182.444 157,187.5C 154.992,182.799 152.992,178.133 151,173.5C 150.667,176.5 150.333,179.5 150,182.5C 149.722,183.416 149.222,184.082 148.5,184.5C 148.927,180.176 149.261,175.842 149.5,171.5C 146.193,172.051 142.86,172.384 139.5,172.5C 139.17,191.008 139.503,209.341 140.5,227.5C 140.483,229.565 140.15,231.565 139.5,233.5C 138.833,233.5 138.167,233.5 137.5,233.5C 137.167,231.5 136.833,229.5 136.5,227.5C 137.497,209.341 137.83,191.008 137.5,172.5C 134.171,172.785 131.171,172.118 128.5,170.5C 137.009,172.016 145.342,171.349 153.5,168.5 Z"/></g>
<g><path style="opacity:1" fill="#372f1a" d="M 229.5,172.5 C 230.391,173.261 231.058,174.261 231.5,175.5C 230.643,176.4 229.976,176.066 229.5,174.5C 229.5,173.833 229.5,173.167 229.5,172.5 Z"/></g>
<g><path style="opacity:1" fill="#a59b6c" d="M 118.5,174.5 C 118.027,175.906 117.027,176.573 115.5,176.5C 115.973,175.094 116.973,174.427 118.5,174.5 Z"/></g>
<g><path style="opacity:1" fill="#f7ce15" d="M 126.5,173.5 C 126.907,179.199 127.573,184.866 128.5,190.5C 120.851,197.799 116.351,206.799 115,217.5C 113.741,220.356 112.241,223.023 110.5,225.5C 109.624,225.631 108.957,225.298 108.5,224.5C 109.609,222.615 110.443,220.615 111,218.5C 112.673,206.633 115.173,194.967 118.5,183.5C 120.892,179.722 123.059,175.722 125,171.5C 125.278,172.416 125.778,173.082 126.5,173.5 Z"/></g>
<g><path style="opacity:1" fill="#f2ca1b" d="M 118.5,183.5 C 116.538,186.865 115.038,190.532 114,194.5C 112.241,203.149 110.574,211.816 109,220.5C 108.667,221.167 108.333,221.833 108,222.5C 107.823,218.644 107.323,214.977 106.5,211.5C 105.053,204.851 105.386,198.184 107.5,191.5C 108.924,189.485 109.59,187.152 109.5,184.5C 109.975,182.216 110.975,180.216 112.5,178.5C 114.027,178.573 115.027,177.906 115.5,176.5C 117.027,176.573 118.027,175.906 118.5,174.5C 120.017,174.489 121.184,173.823 122,172.5C 122.167,172.833 122.333,173.167 122.5,173.5C 120.594,176.64 119.26,179.973 118.5,183.5 Z"/></g>
<g><path style="opacity:1" fill="#9c810d" d="M 49.5,176.5 C 50.5,176.5 51.5,176.5 52.5,176.5C 54.6618,177.417 56.9952,177.417 59.5,176.5C 57.3085,177.869 54.9752,178.869 52.5,179.5C 51.8333,179.5 51.1667,179.5 50.5,179.5C 49.8902,178.609 49.5569,177.609 49.5,176.5 Z"/></g>
<g><path style="opacity:1" fill="#9a9062" d="M 115.5,176.5 C 115.027,177.906 114.027,178.573 112.5,178.5C 112.973,177.094 113.973,176.427 115.5,176.5 Z"/></g>
<g><path style="opacity:1" fill="#675f45" d="M 49.5,176.5 C 49.5569,177.609 49.8902,178.609 50.5,179.5C 43.7681,177.756 43.4347,176.756 49.5,176.5 Z"/></g>
<g><path style="opacity:1" fill="#99801e" d="M 128.5,170.5 C 126.952,170.821 126.285,171.821 126.5,173.5C 125.778,173.082 125.278,172.416 125,171.5C 123.059,175.722 120.892,179.722 118.5,183.5C 119.26,179.973 120.594,176.64 122.5,173.5C 122.333,173.167 122.167,172.833 122,172.5C 121.184,173.823 120.017,174.489 118.5,174.5C 121.119,170.84 124.453,169.507 128.5,170.5 Z"/></g>
<g><path style="opacity:1" fill="#967d0f" d="M 126.5,173.5 C 128.452,178.873 129.452,184.54 129.5,190.5C 129.167,190.5 128.833,190.5 128.5,190.5C 127.573,184.866 126.907,179.199 126.5,173.5 Z"/></g>
<g><path style="opacity:1" fill="#bfa011" d="M 113.5,163.5 C 113.631,164.239 113.464,164.906 113,165.5C 102.247,176.757 91.0801,187.423 79.5,197.5C 90.5,185.833 101.833,174.5 113.5,163.5 Z"/></g>
<g><path style="opacity:1" fill="#9e841e" d="M 118.5,183.5 C 115.173,194.967 112.673,206.633 111,218.5C 110.443,220.615 109.609,222.615 108.5,224.5C 108.957,225.298 109.624,225.631 110.5,225.5C 107.294,228.927 103.628,230.927 99.5,231.5C 105.779,226.263 108.113,219.597 106.5,211.5C 107.323,214.977 107.823,218.644 108,222.5C 108.333,221.833 108.667,221.167 109,220.5C 110.574,211.816 112.241,203.149 114,194.5C 115.038,190.532 116.538,186.865 118.5,183.5 Z"/></g>
<g><path style="opacity:1" fill="#9f883b" d="M 109.5,184.5 C 109.59,187.152 108.924,189.485 107.5,191.5C 107.41,188.848 108.076,186.515 109.5,184.5 Z"/></g>
<g><path style="opacity:1" fill="#988021" d="M 202.5,199.5 C 210.833,209.833 209.833,210.833 199.5,202.5C 201.379,202.607 201.712,202.107 200.5,201C 201.416,200.722 202.082,200.222 202.5,199.5 Z"/></g>
<g><path style="opacity:1" fill="#a5904c" d="M 146.5,195.5 C 146.192,199.36 145.525,203.026 144.5,206.5C 144.116,202.511 144.783,198.845 146.5,195.5 Z"/></g>
<g><path style="opacity:1" fill="#b59810" d="M 77.5,195.5 C 77.5,196.833 78.1667,197.5 79.5,197.5C 78.3747,199.129 77.0414,200.629 75.5,202C 75.7284,202.399 76.0618,202.565 76.5,202.5C 76.1667,203.5 75.5,204.167 74.5,204.5C 73.5,204.167 72.8333,203.5 72.5,202.5C 73.8109,199.865 75.4776,197.531 77.5,195.5 Z"/></g>
<g><path style="opacity:1" fill="#695820" d="M 72.5,202.5 C 72.8333,203.5 73.5,204.167 74.5,204.5C 66.2889,211.411 65.6223,210.745 72.5,202.5 Z"/></g>
<g><path style="opacity:1" fill="#95885f" d="M 132.5,208.5 C 134.04,210.838 134.706,213.505 134.5,216.5C 133.232,214.095 132.565,211.428 132.5,208.5 Z"/></g>
<g><path style="opacity:1" fill="#95885c" d="M 142.5,219.5 C 142.59,222.152 141.924,224.485 140.5,226.5C 140.41,223.848 141.076,221.515 142.5,219.5 Z"/></g>
<g><path style="opacity:1" fill="#95885f" d="M 134.5,219.5 C 136.04,221.838 136.706,224.505 136.5,227.5C 135.232,225.095 134.565,222.428 134.5,219.5 Z"/></g>
<g><path style="opacity:1" fill="#5f5741" d="M 179.5,226.5 C 178.116,232.008 177.116,232.341 176.5,227.5C 177.609,227.443 178.609,227.11 179.5,226.5 Z"/></g>
<g><path style="opacity:1" fill="#544c39" d="M 137.5,233.5 C 138.167,233.5 138.833,233.5 139.5,233.5C 138.377,239.966 137.71,239.966 137.5,233.5 Z"/></g>
<g><path style="opacity:0.997" fill="#0037a7" d="M 0.5,277.5 C 166.5,277.5 332.5,277.5 498.5,277.5C 496.811,296.582 492.478,314.915 485.5,332.5C 328.167,332.5 170.833,332.5 13.5,332.5C 6.51979,314.907 2.18646,296.573 0.5,277.5 Z"/></g>
<g><path style="opacity:0.997" fill="#fcfdfe" d="M 13.5,332.5 C 170.833,332.5 328.167,332.5 485.5,332.5C 479.316,352.868 469.983,371.535 457.5,388.5C 318.833,388.5 180.167,388.5 41.5,388.5C 29.0174,371.535 19.684,352.868 13.5,332.5 Z"/></g>
<g><path style="opacity:0.995" fill="#0037a7" d="M 41.5,388.5 C 180.167,388.5 318.833,388.5 457.5,388.5C 444.072,410.269 427.072,428.935 406.5,444.5C 301.833,443.167 197.167,443.167 92.5,444.5C 71.9281,428.935 54.9281,410.269 41.5,388.5 Z"/></g>
<g><path style="opacity:0.983" fill="#fcfcfd" d="M 406.5,444.5 C 367.902,475.456 323.902,493.79 274.5,499.5C 257.833,499.5 241.167,499.5 224.5,499.5C 175.088,493.784 131.088,475.45 92.5,444.5C 197.167,443.167 301.833,443.167 406.5,444.5 Z"/></g>
</svg>
