<?xml version="1.0" encoding="UTF-8"?>
<!DOCTYPE svg PUBLIC "-//W3C//DTD SVG 1.1//EN" "http://www.w3.org/Graphics/SVG/1.1/DTD/svg11.dtd">
<svg xmlns="http://www.w3.org/2000/svg" version="1.1" width="500px" height="500px" style="shape-rendering:geometricPrecision; text-rendering:geometricPrecision; image-rendering:optimizeQuality; fill-rule:evenodd; clip-rule:evenodd" xmlns:xlink="http://www.w3.org/1999/xlink">
<g><path style="opacity:0.993" fill="#0299b5" d="M 225.5,-0.5 C 241.5,-0.5 257.5,-0.5 273.5,-0.5C 305.352,3.0504 335.685,12.0504 364.5,26.5C 362.031,27.3171 359.365,27.8171 356.5,28C 358.241,29.6196 360.075,31.1196 362,32.5C 362.252,34.9313 361.752,37.2646 360.5,39.5C 360.833,39.8333 361.167,40.1667 361.5,40.5C 363.204,38.9587 365.037,37.6254 367,36.5C 369.155,37.5792 371.155,38.9126 373,40.5C 373.617,37.9649 373.117,35.6316 371.5,33.5C 371.863,32.8165 372.196,32.1499 372.5,31.5C 424.452,61.1244 461.452,103.791 483.5,159.5C 327.5,159.5 171.5,159.5 15.5,159.5C 29.7395,122.291 51.7395,90.624 81.5,64.5C 75.6873,96.7079 87.354,120.208 116.5,135C 126.143,138.928 136.143,140.261 146.5,139C 109.582,126.01 94.7484,100.177 102,61.5C 104.985,52.8509 109.485,45.1842 115.5,38.5C 138.001,23.1504 162.668,12.3171 189.5,6C 201.543,3.27253 213.543,1.10586 225.5,-0.5 Z"/></g>
<g><path style="opacity:1" fill="#ecf7f9" d="M 270.5,20.5 C 272.448,22.3204 273.448,24.6538 273.5,27.5C 276.518,27.3354 279.518,27.502 282.5,28C 279.999,29.6733 277.666,31.5067 275.5,33.5C 277.117,35.6316 277.617,37.9649 277,40.5C 275.155,38.9126 273.155,37.5792 271,36.5C 269.037,37.6254 267.204,38.9587 265.5,40.5C 265.167,40.1667 264.833,39.8333 264.5,39.5C 265.752,37.2646 266.252,34.9313 266,32.5C 264.075,31.1196 262.241,29.6196 260.5,28C 266.993,29.3385 270.327,26.8385 270.5,20.5 Z"/></g>
<g><path style="opacity:1" fill="#ecf7f9" d="M 318.5,20.5 C 320.448,22.3204 321.448,24.6538 321.5,27.5C 324.518,27.3354 327.518,27.502 330.5,28C 327.999,29.6733 325.666,31.5067 323.5,33.5C 325.117,35.6316 325.617,37.9649 325,40.5C 323.155,38.9126 321.155,37.5792 319,36.5C 317.037,37.6254 315.204,38.9587 313.5,40.5C 313.167,40.1667 312.833,39.8333 312.5,39.5C 313.752,37.2646 314.252,34.9313 314,32.5C 312.075,31.1196 310.241,29.6196 308.5,28C 314.993,29.3385 318.327,26.8385 318.5,20.5 Z"/></g>
<g><path style="opacity:0.949" fill="#eff8fa" d="M 364.5,26.5 C 367.203,28.1807 369.869,29.8474 372.5,31.5C 372.196,32.1499 371.863,32.8165 371.5,33.5C 373.117,35.6316 373.617,37.9649 373,40.5C 371.155,38.9126 369.155,37.5792 367,36.5C 365.037,37.6254 363.204,38.9587 361.5,40.5C 361.167,40.1667 360.833,39.8333 360.5,39.5C 361.752,37.2646 362.252,34.9313 362,32.5C 360.075,31.1196 358.241,29.6196 356.5,28C 359.365,27.8171 362.031,27.3171 364.5,26.5 Z"/></g>
<g><path style="opacity:0.985" fill="#fbfdfe" d="M 115.5,38.5 C 109.485,45.1842 104.985,52.8509 102,61.5C 94.7484,100.177 109.582,126.01 146.5,139C 136.143,140.261 126.143,138.928 116.5,135C 87.354,120.208 75.6873,96.7079 81.5,64.5C 91.405,53.9236 102.738,45.2569 115.5,38.5 Z"/></g>
<g><path style="opacity:1" fill="#eff8fa" d="M 223.5,68.5 C 224.864,70.22 225.864,72.22 226.5,74.5C 229.167,75.1667 231.833,75.8333 234.5,76.5C 232.46,78.177 230.46,79.8437 228.5,81.5C 229.752,83.7354 230.252,86.0687 230,88.5C 228.155,86.9126 226.155,85.5792 224,84.5C 222.01,85.8182 220.01,87.1515 218,88.5C 218.532,85.8865 218.865,83.2198 219,80.5C 217.075,79.1196 215.241,77.6196 213.5,76C 219.597,76.8604 222.931,74.3604 223.5,68.5 Z"/></g>
<g><path style="opacity:1" fill="#eef8fa" d="M 271.5,68.5 C 272.864,70.22 273.864,72.22 274.5,74.5C 277.447,75.3214 280.447,75.8214 283.5,76C 280.999,77.6733 278.666,79.5067 276.5,81.5C 277.752,83.7354 278.252,86.0687 278,88.5C 276.155,86.9126 274.155,85.5792 272,84.5C 270.01,85.8182 268.01,87.1515 266,88.5C 266.532,85.8865 266.865,83.2198 267,80.5C 265.075,79.1196 263.241,77.6196 261.5,76C 267.597,76.8604 270.931,74.3604 271.5,68.5 Z"/></g>
<g><path style="opacity:1" fill="#eff8fa" d="M 319.5,68.5 C 320.864,70.22 321.864,72.22 322.5,74.5C 325.167,75.1667 327.833,75.8333 330.5,76.5C 328.46,78.177 326.46,79.8437 324.5,81.5C 325.752,83.7354 326.252,86.0687 326,88.5C 324.155,86.9126 322.155,85.5792 320,84.5C 318.01,85.8182 316.01,87.1515 314,88.5C 314.532,85.8865 314.865,83.2198 315,80.5C 313.075,79.1196 311.241,77.6196 309.5,76C 315.597,76.8604 318.931,74.3604 319.5,68.5 Z"/></g>
<g><path style="opacity:1" fill="#eff8fa" d="M 367.5,68.5 C 368.864,70.22 369.864,72.22 370.5,74.5C 373.167,75.1667 375.833,75.8333 378.5,76.5C 376.46,78.177 374.46,79.8437 372.5,81.5C 373.752,83.7354 374.252,86.0687 374,88.5C 372.155,86.9126 370.155,85.5792 368,84.5C 366.01,85.8182 364.01,87.1515 362,88.5C 362.532,85.8865 362.865,83.2198 363,80.5C 361.075,79.1196 359.241,77.6196 357.5,76C 363.597,76.8604 366.931,74.3604 367.5,68.5 Z"/></g>
<g><path style="opacity:1" fill="#ebf6f9" d="M 174.5,116.5 C 176.821,118.09 177.821,120.423 177.5,123.5C 180.518,123.335 183.518,123.502 186.5,124C 180.383,126.482 179.049,130.482 182.5,136C 182.167,136.167 181.833,136.333 181.5,136.5C 179.772,134.774 177.772,133.441 175.5,132.5C 173.177,134.065 170.844,135.232 168.5,136C 171.951,130.482 170.617,126.482 164.5,124C 167.482,123.502 170.482,123.335 173.5,123.5C 173.674,121.139 174.007,118.806 174.5,116.5 Z"/></g>
<g><path style="opacity:1" fill="#ebf6f9" d="M 222.5,116.5 C 224.821,118.09 225.821,120.423 225.5,123.5C 228.518,123.335 231.518,123.502 234.5,124C 228.383,126.482 227.049,130.482 230.5,136C 230.167,136.167 229.833,136.333 229.5,136.5C 227.772,134.774 225.772,133.441 223.5,132.5C 221.177,134.065 218.844,135.232 216.5,136C 219.951,130.482 218.617,126.482 212.5,124C 215.482,123.502 218.482,123.335 221.5,123.5C 221.674,121.139 222.007,118.806 222.5,116.5 Z"/></g>
<g><path style="opacity:1" fill="#ebf6f9" d="M 270.5,116.5 C 272.821,118.09 273.821,120.423 273.5,123.5C 276.518,123.335 279.518,123.502 282.5,124C 276.383,126.482 275.049,130.482 278.5,136C 278.167,136.167 277.833,136.333 277.5,136.5C 275.772,134.774 273.772,133.441 271.5,132.5C 269.177,134.065 266.844,135.232 264.5,136C 267.951,130.482 266.617,126.482 260.5,124C 263.482,123.502 266.482,123.335 269.5,123.5C 269.674,121.139 270.007,118.806 270.5,116.5 Z"/></g>
<g><path style="opacity:1" fill="#ebf6f9" d="M 318.5,116.5 C 320.821,118.09 321.821,120.423 321.5,123.5C 324.518,123.335 327.518,123.502 330.5,124C 324.383,126.482 323.049,130.482 326.5,136C 326.167,136.167 325.833,136.333 325.5,136.5C 323.772,134.774 321.772,133.441 319.5,132.5C 317.177,134.065 314.844,135.232 312.5,136C 315.951,130.482 314.617,126.482 308.5,124C 311.482,123.502 314.482,123.335 317.5,123.5C 317.674,121.139 318.007,118.806 318.5,116.5 Z"/></g>
<g><path style="opacity:1" fill="#ebf6f9" d="M 366.5,116.5 C 368.821,118.09 369.821,120.423 369.5,123.5C 372.518,123.335 375.518,123.502 378.5,124C 372.383,126.482 371.049,130.482 374.5,136C 374.167,136.167 373.833,136.333 373.5,136.5C 371.772,134.774 369.772,133.441 367.5,132.5C 365.177,134.065 362.844,135.232 360.5,136C 363.951,130.482 362.617,126.482 356.5,124C 359.482,123.502 362.482,123.335 365.5,123.5C 365.674,121.139 366.007,118.806 366.5,116.5 Z"/></g>
<g><path style="opacity:0.997" fill="#cd1327" d="M 15.5,159.5 C 171.5,159.5 327.5,159.5 483.5,159.5C 484.899,162.699 485.899,166.032 486.5,169.5C 328.5,169.5 170.5,169.5 12.5,169.5C 13.1009,166.032 14.1009,162.699 15.5,159.5 Z"/></g>
<g><path style="opacity:0.998" fill="#fefefe" d="M 12.5,169.5 C 170.5,169.5 328.5,169.5 486.5,169.5C 493,187.336 497.333,205.67 499.5,224.5C 499.5,241.167 499.5,257.833 499.5,274.5C 497.055,293.049 493.055,311.382 487.5,329.5C 329.167,329.5 170.833,329.5 12.5,329.5C 5.87065,311.351 1.53732,292.684 -0.5,273.5C -0.5,257.5 -0.5,241.5 -0.5,225.5C 1.53732,206.316 5.87065,187.649 12.5,169.5 Z"/></g>
<g><path style="opacity:0.997" fill="#cd1327" d="M 12.5,329.5 C 170.833,329.5 329.167,329.5 487.5,329.5C 485.971,332.754 484.638,336.087 483.5,339.5C 327.5,339.5 171.5,339.5 15.5,339.5C 14.1009,336.301 13.1009,332.968 12.5,329.5 Z"/></g>
<g><path style="opacity:0.993" fill="#1eb439" d="M 15.5,339.5 C 171.5,339.5 327.5,339.5 483.5,339.5C 455.654,408.18 407.32,456.346 338.5,484C 317.652,491.713 296.319,496.88 274.5,499.5C 257.833,499.5 241.167,499.5 224.5,499.5C 136.144,487.759 70.3107,443.092 27,365.5C 22.8774,356.925 19.0441,348.258 15.5,339.5 Z"/></g>
</svg>
