<?xml version="1.0" encoding="UTF-8"?>
<!DOCTYPE svg PUBLIC "-//W3C//DTD SVG 1.1//EN" "http://www.w3.org/Graphics/SVG/1.1/DTD/svg11.dtd">
<svg xmlns="http://www.w3.org/2000/svg" version="1.1" width="500px" height="500px" style="shape-rendering:geometricPrecision; text-rendering:geometricPrecision; image-rendering:optimizeQuality; fill-rule:evenodd; clip-rule:evenodd" xmlns:xlink="http://www.w3.org/1999/xlink">
<g><path style="opacity:0.998" fill="#d11033" d="M 225.5,-0.5 C 241.5,-0.5 257.5,-0.5 273.5,-0.5C 361.268,10.9488 427.101,54.9488 471,131.5C 483.984,156.436 492.818,182.769 497.5,210.5C 449.832,210.667 402.166,210.5 354.5,210C 261.352,163.243 168.352,116.41 75.5,69.5C 117.544,29.4822 167.544,6.14882 225.5,-0.5 Z"/></g>
<g><path style="opacity:0.999" fill="#020100" d="M 75.5,69.5 C 168.352,116.41 261.352,163.243 354.5,210C 402.166,210.5 449.832,210.667 497.5,210.5C 497.813,215.353 498.479,220.02 499.5,224.5C 499.5,229.5 499.5,234.5 499.5,239.5C 450.166,239.667 400.832,239.5 351.5,239C 252.935,189.551 154.268,140.384 55.5,91.5C 61.2418,83.3686 67.9085,76.0353 75.5,69.5 Z"/></g>
<g><path style="opacity:1" fill="#f9cb11" d="M 55.5,91.5 C 154.268,140.384 252.935,189.551 351.5,239C 400.832,239.5 450.166,239.667 499.5,239.5C 499.5,246.833 499.5,254.167 499.5,261.5C 448.832,261.333 398.166,261.5 347.5,262C 250.195,310.819 152.862,359.319 55.5,407.5C 50.8144,402.142 46.4811,396.475 42.5,390.5C 42.3691,389.624 42.7025,388.957 43.5,388.5C 135.469,342.182 227.469,295.849 319.5,249.5C 227.655,203.078 135.655,156.911 43.5,111C 42.7476,110.329 42.4142,109.496 42.5,108.5C 46.4811,102.525 50.8144,96.8581 55.5,91.5 Z"/></g>
<g><path style="opacity:0.998" fill="#010100" d="M 42.5,108.5 C 42.4142,109.496 42.7476,110.329 43.5,111C 135.655,156.911 227.655,203.078 319.5,249.5C 227.469,295.849 135.469,342.182 43.5,388.5C 42.7025,388.957 42.3691,389.624 42.5,390.5C 18.4854,355.129 4.15204,316.129 -0.5,273.5C -0.5,257.5 -0.5,241.5 -0.5,225.5C 4.15204,182.871 18.4854,143.871 42.5,108.5 Z"/></g>
<g><path style="opacity:1" fill="#f9cb11" d="M 87.5,183.5 C 119.565,180.44 142.731,193.107 157,221.5C 158.578,224.657 159.578,227.991 160,231.5C 165.811,275.756 147.311,303.589 104.5,315C 101.518,315.498 98.5184,315.665 95.5,315.5C 95.5,307.167 95.5,298.833 95.5,290.5C 117.03,288.808 130.53,277.475 136,256.5C 141.713,233.761 134.213,216.928 113.5,206C 90.7126,198.471 73.5459,205.304 62,226.5C 57.2008,256.695 70.0341,271.862 100.5,272C 116.768,269.732 126.602,260.565 130,244.5C 130.286,268.556 118.286,281.556 94,283.5C 53.2804,278.776 37.6137,256.443 47,216.5C 55.2674,199.065 68.7674,188.065 87.5,183.5 Z"/></g>
<g><path style="opacity:1" fill="#d2ae0f" d="M 114.5,221.5 C 113.5,221.5 112.5,221.5 111.5,221.5C 111.5,220.5 111.5,219.5 111.5,218.5C 113.243,216.564 115.243,216.23 117.5,217.5C 116.098,218.842 116.431,219.676 118.5,220C 117.437,221.188 116.103,221.688 114.5,221.5 Z"/></g>
<g><path style="opacity:1" fill="#c6a40e" d="M 81.5,217.5 C 82.2341,218.708 82.5674,220.041 82.5,221.5C 81.1667,221.5 79.8333,221.5 78.5,221.5C 74.5443,220.947 74.5443,220.114 78.5,219C 77.6919,218.692 77.0253,218.192 76.5,217.5C 78.1877,217.458 79.8543,217.458 81.5,217.5 Z"/></g>
<g><path style="opacity:1" fill="#514208" d="M 109.5,218.5 C 110.167,217.167 110.833,217.167 111.5,218.5C 111.5,219.5 111.5,220.5 111.5,221.5C 112.5,221.5 113.5,221.5 114.5,221.5C 114.5,222.167 114.5,222.833 114.5,223.5C 112.833,223.5 111.167,223.5 109.5,223.5C 110.096,221.602 110.096,219.935 109.5,218.5 Z"/></g>
<g><path style="opacity:1" fill="#453908" d="M 81.5,217.5 C 82.791,217.263 83.791,217.596 84.5,218.5C 83.9035,219.935 83.9035,221.602 84.5,223.5C 82.8333,223.5 81.1667,223.5 79.5,223.5C 79.1667,222.833 78.8333,222.167 78.5,221.5C 79.8333,221.5 81.1667,221.5 82.5,221.5C 82.5674,220.041 82.2341,218.708 81.5,217.5 Z"/></g>
<g><path style="opacity:1" fill="#625108" d="M 83.5,225.5 C 82.209,225.737 81.209,225.404 80.5,224.5C 82.5,224.5 84.5,224.5 86.5,224.5C 86.4592,220.757 87.1259,220.59 88.5,224C 87.0953,225.269 85.4286,225.769 83.5,225.5 Z"/></g>
<g><path style="opacity:1" fill="#be9e0e" d="M 109.5,218.5 C 110.096,219.935 110.096,221.602 109.5,223.5C 111.167,223.5 112.833,223.5 114.5,223.5C 112.66,225.669 110.326,227.002 107.5,227.5C 106.167,227.5 104.833,227.5 103.5,227.5C 103.433,226.041 103.766,224.708 104.5,223.5C 104.369,222.761 104.536,222.094 105,221.5C 106.751,220.778 108.251,219.778 109.5,218.5 Z"/></g>
<g><path style="opacity:1" fill="#77610a" d="M 103.5,223.5 C 103.833,223.5 104.167,223.5 104.5,223.5C 103.766,224.708 103.433,226.041 103.5,227.5C 104.833,227.5 106.167,227.5 107.5,227.5C 107.5,227.833 107.5,228.167 107.5,228.5C 105.856,228.286 104.356,228.62 103,229.5C 101.507,227.437 101.674,225.437 103.5,223.5 Z"/></g>
<g><path style="opacity:1" fill="#655309" d="M 86.5,228.5 C 86.5,228.167 86.5,227.833 86.5,227.5C 87.8333,227.5 89.1667,227.5 90.5,227.5C 90.4592,223.757 91.1259,223.59 92.5,227C 91.8742,227.75 91.3742,228.584 91,229.5C 89.6439,228.62 88.1439,228.286 86.5,228.5 Z"/></g>
<g><path style="opacity:1" fill="#e3bd10" d="M 84.5,218.5 C 86.706,219.74 88.5394,221.407 90,223.5C 91,222.167 92,222.167 93,223.5C 93.1705,225.715 93.8372,227.715 95,229.5C 95.3333,228.167 95.6667,226.833 96,225.5C 96.6667,226.833 97.3333,226.833 98,225.5C 98.2492,226.624 98.7492,227.624 99.5,228.5C 100.298,226.922 100.798,225.256 101,223.5C 101.977,222.226 102.811,222.226 103.5,223.5C 101.674,225.437 101.507,227.437 103,229.5C 104.356,228.62 105.856,228.286 107.5,228.5C 105.974,230.13 103.974,230.963 101.5,231C 103.119,231.236 104.119,232.069 104.5,233.5C 104.5,235.5 104.5,237.5 104.5,239.5C 102.435,239.483 100.435,239.15 98.5,238.5C 97.5,238.5 96.5,238.5 95.5,238.5C 93.5648,239.15 91.5648,239.483 89.5,239.5C 89.5,237.5 89.5,235.5 89.5,233.5C 89.4142,232.504 89.7476,231.671 90.5,231C 88.6803,230.8 87.347,229.966 86.5,228.5C 88.1439,228.286 89.6439,228.62 91,229.5C 91.3742,228.584 91.8742,227.75 92.5,227C 91.1259,223.59 90.4592,223.757 90.5,227.5C 89.1667,227.5 87.8333,227.5 86.5,227.5C 84.8212,227.715 83.8212,227.048 83.5,225.5C 85.4286,225.769 87.0953,225.269 88.5,224C 87.1259,220.59 86.4592,220.757 86.5,224.5C 84.5,224.5 82.5,224.5 80.5,224.5C 79.8333,224.5 79.5,224.167 79.5,223.5C 81.1667,223.5 82.8333,223.5 84.5,223.5C 83.9035,221.602 83.9035,219.935 84.5,218.5 Z"/></g>
<g><path style="opacity:1" fill="#5b4a0e" d="M 91.5,233.5 C 92.7965,234.849 92.6298,236.182 91,237.5C 90.805,236.181 90.9717,234.847 91.5,233.5 Z"/></g>
<g><path style="opacity:1" fill="#5a490d" d="M 101.5,233.5 C 102.848,234.527 103.348,235.86 103,237.5C 101.812,236.437 101.312,235.103 101.5,233.5 Z"/></g>
<g><path style="opacity:1" fill="#f6cc11" d="M 107.5,235.5 C 108.11,236.391 108.443,237.391 108.5,238.5C 108.785,240.288 108.452,241.955 107.5,243.5C 106.713,242.758 106.047,241.925 105.5,241C 106.109,239.052 106.776,237.218 107.5,235.5 Z"/></g>
<g><path style="opacity:1" fill="#6d590a" d="M 89.5,233.5 C 89.5,235.5 89.5,237.5 89.5,239.5C 91.5648,239.483 93.5648,239.15 95.5,238.5C 95.1667,239.167 94.8333,239.833 94.5,240.5C 92.4176,240.472 90.5843,241.139 89,242.5C 88.0977,240.073 87.2644,237.74 86.5,235.5C 87.2905,234.599 88.2905,233.932 89.5,233.5 Z"/></g>
<g><path style="opacity:1" fill="#ecc611" d="M 99.5,240.5 C 101.842,240.504 103.842,241.337 105.5,243C 104.906,243.464 104.239,243.631 103.5,243.5C 101.77,242.974 100.436,241.974 99.5,240.5 Z"/></g>
<g><path style="opacity:1" fill="#92780c" d="M 104.5,233.5 C 105.71,233.932 106.71,234.599 107.5,235.5C 106.776,237.218 106.109,239.052 105.5,241C 106.047,241.925 106.713,242.758 107.5,243.5C 108.452,241.955 108.785,240.288 108.5,238.5C 108.833,238.5 109.167,238.5 109.5,238.5C 109.263,241.212 109.263,243.712 109.5,246C 107.981,245.669 106.648,245.836 105.5,246.5C 104.094,246.027 103.427,245.027 103.5,243.5C 104.239,243.631 104.906,243.464 105.5,243C 103.842,241.337 101.842,240.504 99.5,240.5C 99.1667,239.833 98.8333,239.167 98.5,238.5C 100.435,239.15 102.435,239.483 104.5,239.5C 104.5,237.5 104.5,235.5 104.5,233.5 Z"/></g>
<g><path style="opacity:1" fill="#a88a0c" d="M 77.5,245.5 C 77.8417,244.662 78.5084,244.328 79.5,244.5C 79.687,246.564 80.187,248.564 81,250.5C 81.9643,251.202 83.7976,251.202 86.5,250.5C 86.7373,251.791 86.404,252.791 85.5,253.5C 83.623,252.375 81.7897,252.709 80,254.5C 79.3828,253.551 79.5494,252.718 80.5,252C 79.0082,250.009 78.0082,247.842 77.5,245.5 Z"/></g>
<g><path style="opacity:1" fill="#e7bf10" d="M 86.5,235.5 C 87.2644,237.74 88.0977,240.073 89,242.5C 90.5843,241.139 92.4176,240.472 94.5,240.5C 92.0319,243.558 89.0319,246.058 85.5,248C 88.7982,248.299 89.1315,249.133 86.5,250.5C 83.7976,251.202 81.9643,251.202 81,250.5C 80.187,248.564 79.687,246.564 79.5,244.5C 79.281,243.325 79.6143,242.325 80.5,241.5C 81.3078,243.423 81.8078,245.423 82,247.5C 82.1786,244.447 82.6786,241.447 83.5,238.5C 84.3078,240.423 84.8078,242.423 85,244.5C 85.2589,241.413 85.7589,238.413 86.5,235.5 Z"/></g>
<g><path style="opacity:1" fill="#d4b00f" d="M 109.5,238.5 C 111.237,241.008 112.07,244.008 112,247.5C 112.192,245.423 112.692,243.423 113.5,241.5C 117.488,244.886 118.488,249.053 116.5,254C 118.029,255.582 118.529,257.415 118,259.5C 115.535,256.498 112.368,254.498 108.5,253.5C 107.772,251.807 106.772,250.307 105.5,249C 109.333,248.396 109.333,247.563 105.5,246.5C 106.648,245.836 107.981,245.669 109.5,246C 109.263,243.712 109.263,241.212 109.5,238.5 Z"/></g>
<g><path style="opacity:1" fill="#efc911" d="M 77.5,245.5 C 78.0082,247.842 79.0082,250.009 80.5,252C 79.5494,252.718 79.3828,253.551 80,254.5C 81.7897,252.709 83.623,252.375 85.5,253.5C 81.3915,254.132 78.2249,256.132 76,259.5C 76.8722,254.907 77.3722,250.24 77.5,245.5 Z"/></g>
<g><path style="opacity:0.999" fill="#010100" d="M 499.5,261.5 C 499.5,265.833 499.5,270.167 499.5,274.5C 498.479,278.98 497.813,283.647 497.5,288.5C 449.664,288.168 401.997,288.501 354.5,289.5C 261.342,335.912 168.342,382.579 75.5,429.5C 67.7538,423.09 61.0871,415.757 55.5,407.5C 152.862,359.319 250.195,310.819 347.5,262C 398.166,261.5 448.832,261.333 499.5,261.5 Z"/></g>
<g><path style="opacity:1" fill="#007c37" d="M 354.5,289.5 C 401.997,288.501 449.664,288.168 497.5,288.5C 497.672,289.492 497.338,290.158 496.5,290.5C 449.336,289.501 402.003,289.168 354.5,289.5 Z"/></g>
<g><path style="opacity:0.998" fill="#009442" d="M 354.5,289.5 C 402.003,289.168 449.336,289.501 496.5,290.5C 483.358,363.43 446.024,420.264 384.5,461C 350.6,481.91 313.933,494.744 274.5,499.5C 257.833,499.5 241.167,499.5 224.5,499.5C 166.93,492.543 117.263,469.21 75.5,429.5C 168.342,382.579 261.342,335.912 354.5,289.5 Z"/></g>
</svg>
