<?xml version="1.0" encoding="UTF-8"?>
<!DOCTYPE svg PUBLIC "-//W3C//DTD SVG 1.1//EN" "http://www.w3.org/Graphics/SVG/1.1/DTD/svg11.dtd">
<svg xmlns="http://www.w3.org/2000/svg" version="1.1" width="500px" height="500px" style="shape-rendering:geometricPrecision; text-rendering:geometricPrecision; image-rendering:optimizeQuality; fill-rule:evenodd; clip-rule:evenodd" xmlns:xlink="http://www.w3.org/1999/xlink">
<g><path style="opacity:0.995" fill="#ffe000" d="M 225.5,-0.5 C 233.5,-0.5 241.5,-0.5 249.5,-0.5C 249.5,166.167 249.5,332.833 249.5,499.5C 241.167,499.5 232.833,499.5 224.5,499.5C 132.596,487.072 65.4294,439.739 23,357.5C 10.7506,330.604 2.91724,302.604 -0.5,273.5C -0.5,257.5 -0.5,241.5 -0.5,225.5C 11.4543,135.075 57.4543,68.242 137.5,25C 165.514,11.5012 194.847,3.00119 225.5,-0.5 Z"/></g>
<g><path style="opacity:0.994" fill="#fefefe" d="M 249.5,-0.5 C 257.5,-0.5 265.5,-0.5 273.5,-0.5C 362.269,10.9489 428.436,55.6156 472,133.5C 486.559,162.333 495.726,192.666 499.5,224.5C 499.5,241.167 499.5,257.833 499.5,274.5C 487.764,361.841 443.764,427.341 367.5,471C 338.093,486.083 307.093,495.583 274.5,499.5C 266.167,499.5 257.833,499.5 249.5,499.5C 249.5,332.833 249.5,166.167 249.5,-0.5 Z"/></g>
<g><path style="opacity:1" fill="#e9ae0a" d="M 376.5,143.5 C 377.167,143.5 377.833,143.5 378.5,143.5C 378.5,144.5 378.5,145.5 378.5,146.5C 377.5,146.5 376.5,146.5 375.5,146.5C 375.216,148.415 375.549,150.081 376.5,151.5C 377.404,152.209 377.737,153.209 377.5,154.5C 375.5,154.5 373.5,154.5 371.5,154.5C 371.263,153.209 371.596,152.209 372.5,151.5C 373.451,150.081 373.784,148.415 373.5,146.5C 372.5,146.5 371.5,146.5 370.5,146.5C 370.5,145.5 370.5,144.5 370.5,143.5C 371.5,143.5 372.5,143.5 373.5,143.5C 373.281,142.325 373.614,141.325 374.5,140.5C 375.176,141.602 375.842,142.602 376.5,143.5 Z"/></g>
<g><path style="opacity:1" fill="#bcaa7e" d="M 376.5,143.5 C 375.842,142.602 375.176,141.602 374.5,140.5C 373.614,141.325 373.281,142.325 373.5,143.5C 372.5,143.5 371.5,143.5 370.5,143.5C 370.5,144.5 370.5,145.5 370.5,146.5C 371.5,146.5 372.5,146.5 373.5,146.5C 373.784,148.415 373.451,150.081 372.5,151.5C 372.5,150.167 372.5,148.833 372.5,147.5C 371.5,147.5 370.5,147.5 369.5,147.5C 369.5,145.833 369.5,144.167 369.5,142.5C 370.5,142.5 371.5,142.5 372.5,142.5C 372.5,141.5 372.5,140.5 372.5,139.5C 373.833,139.5 375.167,139.5 376.5,139.5C 376.5,140.833 376.5,142.167 376.5,143.5 Z"/></g>
<g><path style="opacity:1" fill="#bfaa73" d="M 378.5,143.5 C 379.434,144.568 379.768,145.901 379.5,147.5C 378.5,147.5 377.5,147.5 376.5,147.5C 376.5,148.833 376.5,150.167 376.5,151.5C 376.5,150.167 376.5,148.833 376.5,147.5C 377.5,147.5 378.5,147.5 379.5,147.5C 379.768,145.901 379.434,144.568 378.5,143.5 Z"/></g>
<g><path style="opacity:1" fill="#c49515" d="M 380.5,165.5 C 380.143,168.965 378.477,169.965 375.5,168.5C 375.843,166.517 375.176,165.183 373.5,164.5C 372.549,165.919 372.216,167.585 372.5,169.5C 369.858,169.512 368.525,168.179 368.5,165.5C 370.223,163.258 372.223,161.258 374.5,159.5C 376.521,161.521 378.521,163.521 380.5,165.5 Z"/></g>
<g><path style="opacity:1" fill="#b12325" d="M 346.5,170.5 C 349.5,170.167 350.833,171.5 350.5,174.5C 348.167,174.167 346.833,172.833 346.5,170.5 Z"/></g>
<g><path style="opacity:1" fill="#aa1123" d="M 401.5,170.5 C 401.912,172.973 400.912,174.306 398.5,174.5C 398.088,172.027 399.088,170.694 401.5,170.5 Z"/></g>
<g><path style="opacity:1" fill="#953830" d="M 397.5,178.5 C 397.672,179.492 397.338,180.158 396.5,180.5C 395.243,179.377 395.576,178.711 397.5,178.5 Z"/></g>
<g><path style="opacity:1" fill="#c69510" d="M 366.5,165.5 C 367.398,168.465 366.065,169.799 362.5,169.5C 362.5,168.167 362.5,166.833 362.5,165.5C 361.5,165.5 360.5,165.5 359.5,165.5C 359.5,166.833 359.5,168.167 359.5,169.5C 359.189,170.478 358.522,171.145 357.5,171.5C 356.742,170.189 355.742,169.689 354.5,170C 353.167,170.667 353.167,171.333 354.5,172C 353.672,172.915 352.672,173.581 351.5,174C 353.479,174.684 355.146,174.184 356.5,172.5C 358.834,173.841 360.501,173.174 361.5,170.5C 363.828,172.8 365.995,172.8 368,170.5C 369.65,173.106 371.15,173.106 372.5,170.5C 373.391,169.89 374.391,169.557 375.5,169.5C 376.732,172.78 378.399,173.114 380.5,170.5C 382.833,173.167 385.167,173.167 387.5,170.5C 388.499,173.174 390.166,173.841 392.5,172.5C 393.62,173.833 394.953,174.333 396.5,174C 395.228,172.693 394.228,171.193 393.5,169.5C 392.476,170.853 391.143,171.52 389.5,171.5C 389.5,170.5 389.5,169.5 389.5,168.5C 389.5,167.5 389.5,166.5 389.5,165.5C 388.5,165.5 387.5,165.5 386.5,165.5C 386.5,166.833 386.5,168.167 386.5,169.5C 383.454,169.817 381.787,168.484 381.5,165.5C 384.157,164.116 386.657,162.45 389,160.5C 391.147,161.596 391.647,163.096 390.5,165C 394.338,169.489 398.505,169.655 403,165.5C 403.613,167.495 403.113,169.162 401.5,170.5C 399.088,170.694 398.088,172.027 398.5,174.5C 396.255,175.292 395.922,176.625 397.5,178.5C 395.576,178.711 395.243,179.377 396.5,180.5C 396.5,181.167 396.5,181.833 396.5,182.5C 381.815,179.912 367.148,179.912 352.5,182.5C 351.957,179.782 351.291,177.115 350.5,174.5C 350.833,171.5 349.5,170.167 346.5,170.5C 343.569,165.266 344.569,164.433 349.5,168C 351.167,168.667 352.833,168.667 354.5,168C 356.482,165.693 358.149,163.193 359.5,160.5C 360.736,161.246 362.07,161.579 363.5,161.5C 363.468,163.619 364.468,164.952 366.5,165.5 Z"/></g>
<g><path style="opacity:1" fill="#286941" d="M 384.5,176.5 C 385.675,176.281 386.675,176.614 387.5,177.5C 385.948,178.798 384.948,178.465 384.5,176.5 Z"/></g>
<g><path style="opacity:1" fill="#346637" d="M 360.5,176.5 C 361.978,176.238 363.311,176.571 364.5,177.5C 363.833,177.833 363.167,178.167 362.5,178.5C 361.287,178.253 360.62,177.586 360.5,176.5 Z"/></g>
<g><path style="opacity:1" fill="#9a713e" d="M 373.5,164.5 C 373.157,166.483 373.824,167.817 375.5,168.5C 375.5,168.833 375.5,169.167 375.5,169.5C 374.391,169.557 373.391,169.89 372.5,170.5C 372.5,170.167 372.5,169.833 372.5,169.5C 372.216,167.585 372.549,165.919 373.5,164.5 Z"/></g>
<g><path style="opacity:1" fill="#bfbaae" d="M 366.5,165.5 C 367.167,165.5 367.833,165.5 368.5,165.5C 368.525,168.179 369.858,169.512 372.5,169.5C 372.5,169.833 372.5,170.167 372.5,170.5C 371.15,173.106 369.65,173.106 368,170.5C 365.995,172.8 363.828,172.8 361.5,170.5C 360.501,173.174 358.834,173.841 356.5,172.5C 355.146,174.184 353.479,174.684 351.5,174C 352.672,173.581 353.672,172.915 354.5,172C 353.167,171.333 353.167,170.667 354.5,170C 355.742,169.689 356.742,170.189 357.5,171.5C 358.522,171.145 359.189,170.478 359.5,169.5C 360.5,169.5 361.5,169.5 362.5,169.5C 366.065,169.799 367.398,168.465 366.5,165.5 Z"/></g>
<g><path style="opacity:1" fill="#0f745f" d="M 389.5,168.5 C 388.609,169.11 387.609,169.443 386.5,169.5C 386.5,168.167 386.5,166.833 386.5,165.5C 387.5,165.5 388.5,165.5 389.5,165.5C 389.5,166.5 389.5,167.5 389.5,168.5 Z"/></g>
<g><path style="opacity:1" fill="#c3beb1" d="M 380.5,165.5 C 380.833,165.5 381.167,165.5 381.5,165.5C 381.787,168.484 383.454,169.817 386.5,169.5C 387.609,169.443 388.609,169.11 389.5,168.5C 389.5,169.5 389.5,170.5 389.5,171.5C 391.143,171.52 392.476,170.853 393.5,169.5C 394.228,171.193 395.228,172.693 396.5,174C 394.953,174.333 393.62,173.833 392.5,172.5C 390.166,173.841 388.499,173.174 387.5,170.5C 385.167,173.167 382.833,173.167 380.5,170.5C 378.399,173.114 376.732,172.78 375.5,169.5C 375.5,169.167 375.5,168.833 375.5,168.5C 378.477,169.965 380.143,168.965 380.5,165.5 Z"/></g>
<g><path style="opacity:1" fill="#217359" d="M 362.5,169.5 C 361.5,169.5 360.5,169.5 359.5,169.5C 359.5,168.167 359.5,166.833 359.5,165.5C 360.5,165.5 361.5,165.5 362.5,165.5C 362.5,166.833 362.5,168.167 362.5,169.5 Z"/></g>
<g><path style="opacity:1" fill="#b60725" d="M 373.5,164.5 C 375.176,165.183 375.843,166.517 375.5,168.5C 373.824,167.817 373.157,166.483 373.5,164.5 Z"/></g>
<g><path style="opacity:1" fill="#e8e7e6" d="M 396.5,182.5 C 396.575,185.206 396.908,187.873 397.5,190.5C 396.325,190.719 395.325,190.386 394.5,189.5C 393.369,186.745 391.702,184.411 389.5,182.5C 387.45,183.077 386.45,184.41 386.5,186.5C 384.516,186.383 382.85,187.05 381.5,188.5C 379.294,186.02 376.961,183.686 374.5,181.5C 372.292,184.054 369.959,186.554 367.5,189C 368.802,191.022 370.468,192.522 372.5,193.5C 372.5,194.167 372.167,194.5 371.5,194.5C 369.136,193.471 366.803,193.471 364.5,194.5C 362.962,194.547 361.962,193.88 361.5,192.5C 361.328,191.508 361.662,190.842 362.5,190.5C 364.292,192.984 365.625,192.484 366.5,189C 365.968,186.98 364.635,186.147 362.5,186.5C 362.55,184.41 361.55,183.077 359.5,182.5C 357.248,185.368 355.082,188.368 353,191.5C 351.989,190.663 350.822,190.33 349.5,190.5C 351.662,188.358 352.662,185.691 352.5,182.5C 367.148,179.912 381.815,179.912 396.5,182.5 Z"/></g>
<g><path style="opacity:1" fill="#d2a227" d="M 426.5,189.5 C 426.167,189.5 425.833,189.5 425.5,189.5C 424.308,187.122 422.641,185.122 420.5,183.5C 419.713,184.242 419.047,185.075 418.5,186C 420.455,186.953 422.122,188.287 423.5,190C 422.725,191.23 421.725,191.563 420.5,191C 419.012,188.238 417.012,187.404 414.5,188.5C 414.158,187.662 413.492,187.328 412.5,187.5C 413.953,186.175 413.619,185.342 411.5,185C 412.865,183.318 414.365,183.151 416,184.5C 416.456,183.256 415.956,182.423 414.5,182C 420.899,180.698 424.899,183.198 426.5,189.5 Z"/></g>
<g><path style="opacity:1" fill="#d6a422" d="M 336.5,184.5 C 336.082,185.222 335.416,185.722 334.5,186C 335.598,186.77 335.598,187.603 334.5,188.5C 331.405,187.676 329.238,189.01 328,192.5C 327.167,191.667 326.333,190.833 325.5,190C 326.878,188.287 328.545,186.953 330.5,186C 329.892,185.13 329.059,184.63 328,184.5C 326.048,185.72 324.548,187.387 323.5,189.5C 323.167,189.5 322.833,189.5 322.5,189.5C 323.888,183.606 327.555,181.106 333.5,182C 332.549,182.718 332.383,183.551 333,184.5C 334.292,183.209 335.458,183.209 336.5,184.5 Z"/></g>
<g><path style="opacity:1" fill="#e2ac23" d="M 312.5,189.5 C 310.57,189.771 309.236,190.771 308.5,192.5C 305.09,190.778 304.757,188.611 307.5,186C 310.368,185.36 312.035,186.527 312.5,189.5 Z"/></g>
<g><path style="opacity:1" fill="#b2b1af" d="M 439.5,193.5 C 439.854,190.506 438.854,189.506 436.5,190.5C 436.997,185.507 439.164,184.507 443,187.5C 444.122,190.872 442.955,192.872 439.5,193.5 Z"/></g>
<g><path style="opacity:1" fill="#e2e0db" d="M 425.5,189.5 C 423.833,191.833 421.833,193.833 419.5,195.5C 418.221,192.888 416.555,190.555 414.5,188.5C 417.012,187.404 419.012,188.238 420.5,191C 421.725,191.563 422.725,191.23 423.5,190C 422.122,188.287 420.455,186.953 418.5,186C 419.047,185.075 419.713,184.242 420.5,183.5C 422.641,185.122 424.308,187.122 425.5,189.5 Z"/></g>
<g><path style="opacity:1" fill="#e3e1dd" d="M 334.5,188.5 C 332.42,190.573 330.754,192.907 329.5,195.5C 327.167,193.833 325.167,191.833 323.5,189.5C 324.548,187.387 326.048,185.72 328,184.5C 329.059,184.63 329.892,185.13 330.5,186C 328.545,186.953 326.878,188.287 325.5,190C 326.333,190.833 327.167,191.667 328,192.5C 329.238,189.01 331.405,187.676 334.5,188.5 Z"/></g>
<g><path style="opacity:1" fill="#c19215" d="M 362.5,190.5 C 362.017,188.13 360.851,187.463 359,188.5C 358.558,190.614 359.391,191.948 361.5,192.5C 361.962,193.88 362.962,194.547 364.5,194.5C 366.803,193.471 369.136,193.471 371.5,194.5C 371.918,195.222 372.584,195.722 373.5,196C 372.5,196.333 371.5,196.667 370.5,197C 372.577,197.192 374.577,197.692 376.5,198.5C 377.641,199.425 377.641,200.259 376.5,201C 373.741,201.977 371.741,201.144 370.5,198.5C 369.833,199.833 369.167,201.167 368.5,202.5C 367.253,200.994 367.253,199.494 368.5,198C 366.924,197.56 365.59,196.727 364.5,195.5C 363.304,195.846 363.304,196.346 364.5,197C 359.206,197.818 359.206,198.318 364.5,198.5C 364.5,199.833 364.5,201.167 364.5,202.5C 362.901,202.232 361.568,202.566 360.5,203.5C 357.949,204.484 355.282,205.484 352.5,206.5C 351.124,203.607 350.124,200.607 349.5,197.5C 349.817,194.454 348.484,192.787 345.5,192.5C 342.616,186.76 343.949,186.093 349.5,190.5C 350.822,190.33 351.989,190.663 353,191.5C 355.082,188.368 357.248,185.368 359.5,182.5C 361.55,183.077 362.55,184.41 362.5,186.5C 364.635,186.147 365.968,186.98 366.5,189C 365.625,192.484 364.292,192.984 362.5,190.5 Z"/></g>
<g><path style="opacity:1" fill="#f5f5f4" d="M 410.5,189.5 C 409.867,196.445 409.2,203.445 408.5,210.5C 406.354,206.897 405.354,207.563 405.5,212.5C 405.167,212.5 404.833,212.5 404.5,212.5C 404.334,206.491 404.501,200.491 405,194.5C 405.437,191.228 407.27,189.561 410.5,189.5 Z"/></g>
<g><path style="opacity:1" fill="#20755e" d="M 362.5,190.5 C 361.662,190.842 361.328,191.508 361.5,192.5C 359.391,191.948 358.558,190.614 359,188.5C 360.851,187.463 362.017,188.13 362.5,190.5 Z"/></g>
<g><path style="opacity:1" fill="#c29319" d="M 397.5,190.5 C 400.073,189.781 402.573,188.781 405,187.5C 405.464,188.094 405.631,188.761 405.5,189.5C 404.833,190.5 404.167,191.5 403.5,192.5C 400.703,192.967 399.369,194.633 399.5,197.5C 399.082,198.222 398.416,198.722 397.5,199C 398.725,201.629 398.392,204.129 396.5,206.5C 392.559,205.131 388.559,204.131 384.5,203.5C 384.5,202.833 384.5,202.167 384.5,201.5C 389.833,200.833 389.833,200.167 384.5,199.5C 387.365,199.008 389.365,198.008 390.5,196.5C 392.117,195.962 393.784,195.629 395.5,195.5C 395.719,194.325 395.386,193.325 394.5,192.5C 392.801,193.815 391.135,193.815 389.5,192.5C 391.087,190.381 390.754,188.714 388.5,187.5C 387.702,187.957 387.369,188.624 387.5,189.5C 386.596,190.209 386.263,191.209 386.5,192.5C 384.362,192.297 382.695,191.297 381.5,189.5C 380.019,191.149 378.352,192.482 376.5,193.5C 375.662,193.158 375.328,192.492 375.5,191.5C 374.833,184.833 374.167,184.833 373.5,191.5C 373.672,192.492 373.338,193.158 372.5,193.5C 370.468,192.522 368.802,191.022 367.5,189C 369.959,186.554 372.292,184.054 374.5,181.5C 376.961,183.686 379.294,186.02 381.5,188.5C 382.85,187.05 384.516,186.383 386.5,186.5C 386.45,184.41 387.45,183.077 389.5,182.5C 391.702,184.411 393.369,186.745 394.5,189.5C 395.325,190.386 396.325,190.719 397.5,190.5 Z"/></g>
<g><path style="opacity:1" fill="#127760" d="M 389.5,192.5 C 389.167,192.5 388.833,192.5 388.5,192.5C 388.167,192.5 387.833,192.5 387.5,192.5C 387.5,191.5 387.5,190.5 387.5,189.5C 387.369,188.624 387.702,187.957 388.5,187.5C 390.754,188.714 391.087,190.381 389.5,192.5 Z"/></g>
<g><path style="opacity:1" fill="#b90e26" d="M 375.5,191.5 C 374.833,191.5 374.167,191.5 373.5,191.5C 374.167,184.833 374.833,184.833 375.5,191.5 Z"/></g>
<g><path style="opacity:1" fill="#daa71b" d="M 439.5,193.5 C 439.167,193.5 438.833,193.5 438.5,193.5C 437.094,193.027 436.427,192.027 436.5,190.5C 438.854,189.506 439.854,190.506 439.5,193.5 Z"/></g>
<g><path style="opacity:1" fill="#b5a781" d="M 412.5,187.5 C 413.492,187.328 414.158,187.662 414.5,188.5C 412.901,188.232 411.568,188.566 410.5,189.5C 407.27,189.561 405.437,191.228 405,194.5C 404.501,200.491 404.334,206.491 404.5,212.5C 403.833,208.167 403.167,203.833 402.5,199.5C 402.833,198.167 403.167,196.833 403.5,195.5C 403.5,194.5 403.5,193.5 403.5,192.5C 404.167,191.5 404.833,190.5 405.5,189.5C 407.588,188.061 409.921,187.394 412.5,187.5 Z"/></g>
<g><path style="opacity:1" fill="#a4a19d" d="M 312.5,189.5 C 312.5,190.167 312.833,190.5 313.5,190.5C 312.833,191.833 311.833,192.833 310.5,193.5C 309.508,193.672 308.842,193.338 308.5,192.5C 309.236,190.771 310.57,189.771 312.5,189.5 Z"/></g>
<g><path style="opacity:1" fill="#cbc7bc" d="M 387.5,189.5 C 387.5,190.5 387.5,191.5 387.5,192.5C 385.987,195.927 383.987,196.261 381.5,193.5C 379.684,194.735 378.017,194.735 376.5,193.5C 378.352,192.482 380.019,191.149 381.5,189.5C 382.695,191.297 384.362,192.297 386.5,192.5C 386.263,191.209 386.596,190.209 387.5,189.5 Z"/></g>
<g><path style="opacity:1" fill="#aca9a4" d="M 436.5,190.5 C 436.427,192.027 437.094,193.027 438.5,193.5C 439.841,195.834 439.174,197.501 436.5,198.5C 436.288,195.288 434.621,193.288 431.5,192.5C 432.635,190.787 434.302,190.12 436.5,190.5 Z"/></g>
<g><path style="opacity:1" fill="#7c5e15" d="M 322.5,189.5 C 322.833,189.5 323.167,189.5 323.5,189.5C 325.167,191.833 327.167,193.833 329.5,195.5C 329.833,195.5 330.167,195.5 330.5,195.5C 330.205,197.423 329.372,199.09 328,200.5C 325.667,198.167 323.333,195.833 321,193.5C 320.227,191.648 320.727,190.314 322.5,189.5 Z"/></g>
<g><path style="opacity:1" fill="#beb6a3" d="M 388.5,192.5 C 388.833,192.5 389.167,192.5 389.5,192.5C 391.135,193.815 392.801,193.815 394.5,192.5C 395.386,193.325 395.719,194.325 395.5,195.5C 393.784,195.629 392.117,195.962 390.5,196.5C 389.833,195.167 389.167,193.833 388.5,192.5 Z"/></g>
<g><path style="opacity:1" fill="#ddaa11" d="M 431.5,192.5 C 434.621,193.288 436.288,195.288 436.5,198.5C 434.548,197.215 432.882,195.549 431.5,193.5C 431.5,193.167 431.5,192.833 431.5,192.5 Z"/></g>
<g><path style="opacity:1" fill="#e4ab0e" d="M 313.5,190.5 C 314.791,190.263 315.791,190.596 316.5,191.5C 314.481,193.19 312.481,194.856 310.5,196.5C 310.5,195.5 310.5,194.5 310.5,193.5C 311.833,192.833 312.833,191.833 313.5,190.5 Z"/></g>
<g><path style="opacity:1" fill="#af2727" d="M 345.5,192.5 C 348.484,192.787 349.817,194.454 349.5,197.5C 347.938,197.267 346.605,196.6 345.5,195.5C 345.5,195.167 345.5,194.833 345.5,194.5C 345.5,193.833 345.5,193.167 345.5,192.5 Z"/></g>
<g><path style="opacity:1" fill="#d39e0c" d="M 373.5,191.5 C 374.167,191.5 374.833,191.5 375.5,191.5C 375.328,192.492 375.662,193.158 376.5,193.5C 378.017,194.735 379.684,194.735 381.5,193.5C 383.987,196.261 385.987,195.927 387.5,192.5C 387.833,192.5 388.167,192.5 388.5,192.5C 389.167,193.833 389.833,195.167 390.5,196.5C 389.365,198.008 387.365,199.008 384.5,199.5C 384.5,200.167 384.5,200.833 384.5,201.5C 384.5,202.167 384.5,202.833 384.5,203.5C 376.5,203.5 368.5,203.5 360.5,203.5C 361.568,202.566 362.901,202.232 364.5,202.5C 364.5,201.167 364.5,199.833 364.5,198.5C 359.206,198.318 359.206,197.818 364.5,197C 363.304,196.346 363.304,195.846 364.5,195.5C 365.59,196.727 366.924,197.56 368.5,198C 367.253,199.494 367.253,200.994 368.5,202.5C 369.167,201.167 369.833,199.833 370.5,198.5C 371.741,201.144 373.741,201.977 376.5,201C 377.641,200.259 377.641,199.425 376.5,198.5C 374.577,197.692 372.577,197.192 370.5,197C 371.5,196.667 372.5,196.333 373.5,196C 372.584,195.722 371.918,195.222 371.5,194.5C 372.167,194.5 372.5,194.167 372.5,193.5C 373.338,193.158 373.672,192.492 373.5,191.5 Z"/></g>
<g><path style="opacity:1" fill="#7b5e17" d="M 425.5,189.5 C 425.833,189.5 426.167,189.5 426.5,189.5C 427.391,190.261 428.058,191.261 428.5,192.5C 426.183,195.317 423.683,197.984 421,200.5C 419.628,199.09 418.795,197.423 418.5,195.5C 418.833,195.5 419.167,195.5 419.5,195.5C 421.833,193.833 423.833,191.833 425.5,189.5 Z"/></g>
<g><path style="opacity:1" fill="#cbc9c4" d="M 353.5,192.5 C 355.435,193.15 357.435,193.483 359.5,193.5C 359.5,194.5 359.5,195.5 359.5,196.5C 358.07,196.579 356.736,196.246 355.5,195.5C 354.146,197.184 352.479,197.684 350.5,197C 352.863,196.411 353.863,194.911 353.5,192.5 Z"/></g>
<g><path style="opacity:1" fill="#a4282a" d="M 403.5,192.5 C 403.5,193.5 403.5,194.5 403.5,195.5C 402.395,196.6 401.062,197.267 399.5,197.5C 399.369,194.633 400.703,192.967 403.5,192.5 Z"/></g>
<g><path style="opacity:1" fill="#a8a299" d="M 316.5,191.5 C 317.5,192.5 318.5,193.5 319.5,194.5C 316.288,194.712 314.288,196.379 313.5,199.5C 312.167,198.833 311.167,197.833 310.5,196.5C 312.481,194.856 314.481,193.19 316.5,191.5 Z"/></g>
<g><path style="opacity:1" fill="#daa619" d="M 319.5,194.5 C 320.338,194.842 320.672,195.508 320.5,196.5C 318.246,197.415 316.246,198.748 314.5,200.5C 313.833,200.5 313.5,200.167 313.5,199.5C 314.288,196.379 316.288,194.712 319.5,194.5 Z"/></g>
<g><path style="opacity:1" fill="#aaa8a4" d="M 431.5,193.5 C 432.882,195.549 434.548,197.215 436.5,198.5C 436.144,200.19 435.144,201.19 433.5,201.5C 432.833,198.833 431.167,197.167 428.5,196.5C 428.5,194.5 429.5,193.5 431.5,193.5 Z"/></g>
<g><path style="opacity:1" fill="#abaaaa" d="M 320.5,196.5 C 321.833,197.167 322.833,198.167 323.5,199.5C 325.024,203.202 327.19,206.536 330,209.5C 330.692,210.437 330.525,211.103 329.5,211.5C 325.54,208.708 322.04,205.375 319,201.5C 317.978,202.354 317.145,203.354 316.5,204.5C 319.019,206.641 319.019,208.641 316.5,210.5C 315.186,209.687 314.019,208.687 313,207.5C 310.65,209.683 308.483,212.016 306.5,214.5C 310.21,216.241 310.376,218.241 307,220.5C 304.976,216.881 302.809,216.714 300.5,220C 304,223.5 307.5,227 311,230.5C 313.37,227.961 315.87,225.628 318.5,223.5C 319.598,224.601 319.765,225.934 319,227.5C 316.833,229.667 314.667,231.833 312.5,234C 313.928,234.579 315.262,234.412 316.5,233.5C 318.649,238.33 321.982,242.33 326.5,245.5C 329.191,243.002 328.858,240.835 325.5,239C 326.354,237.978 327.354,237.145 328.5,236.5C 329.916,238.139 331.583,238.973 333.5,239C 335.351,237.316 337.018,235.483 338.5,233.5C 337.5,232.167 336.5,230.833 335.5,229.5C 335.855,228.478 336.522,227.811 337.5,227.5C 338.167,228.833 338.833,230.167 339.5,231.5C 340.515,234.846 342.515,237.513 345.5,239.5C 346.222,239.918 346.722,240.584 347,241.5C 347.383,240.944 347.883,240.611 348.5,240.5C 348.651,244.314 350.651,245.981 354.5,245.5C 353.5,246.167 352.5,246.833 351.5,247.5C 347.853,244.189 344.187,240.855 340.5,237.5C 337.786,240.215 334.786,242.549 331.5,244.5C 328.55,249.119 324.883,253.119 320.5,256.5C 316.515,253.016 312.682,249.349 309,245.5C 308.667,243.167 308.333,240.833 308,238.5C 306.867,240.211 305.367,240.711 303.5,240C 300.333,236.833 297.167,233.667 294,230.5C 293.333,227.167 293.333,223.833 294,220.5C 295.734,219.751 297.567,219.251 299.5,219C 303.473,215.027 307.473,211.027 311.5,207C 312.448,206.517 313.448,206.351 314.5,206.5C 315.275,204.388 315.275,202.388 314.5,200.5C 316.246,198.748 318.246,197.415 320.5,196.5 Z"/></g>
<g><path style="opacity:1" fill="#f0efee" d="M 345.5,195.5 C 346.605,196.6 347.938,197.267 349.5,197.5C 350.124,200.607 351.124,203.607 352.5,206.5C 355.282,205.484 357.949,204.484 360.5,203.5C 368.5,203.5 376.5,203.5 384.5,203.5C 388.559,204.131 392.559,205.131 396.5,206.5C 398.392,204.129 398.725,201.629 397.5,199C 398.416,198.722 399.082,198.222 399.5,197.5C 401.062,197.267 402.395,196.6 403.5,195.5C 403.167,196.833 402.833,198.167 402.5,199.5C 402.666,207.507 402.5,215.507 402,223.5C 401.283,224.044 400.783,224.711 400.5,225.5C 399.5,226.167 398.5,226.833 397.5,227.5C 395.738,228.262 394.738,229.596 394.5,231.5C 393.833,231.5 393.5,231.833 393.5,232.5C 391.367,230.909 389.701,228.909 388.5,226.5C 390.553,226.598 392.22,225.931 393.5,224.5C 394.167,222.167 394.833,219.833 395.5,217.5C 397.912,217.306 398.912,215.973 398.5,213.5C 400.273,212.686 400.773,211.352 400,209.5C 398.324,210.061 396.991,211.061 396,212.5C 395.15,211.576 394.15,211.576 393,212.5C 392.228,212.355 391.561,212.022 391,211.5C 390.163,209.649 389.329,207.816 388.5,206C 387.207,205.51 385.873,205.343 384.5,205.5C 383.554,209.335 381.221,210.335 377.5,208.5C 376.852,206.851 375.852,205.518 374.5,204.5C 372.333,206.33 370.333,208.33 368.5,210.5C 366.167,208.833 363.833,207.167 361.5,205.5C 360.11,208.123 358.276,210.456 356,212.5C 354.85,211.576 353.85,211.576 353,212.5C 352.009,211.061 350.676,210.061 349,209.5C 348.227,211.352 348.727,212.686 350.5,213.5C 350.088,215.973 351.088,217.306 353.5,217.5C 354.205,220.354 355.205,223.021 356.5,225.5C 357.209,226.404 358.209,226.737 359.5,226.5C 359.25,228.674 358.25,230.341 356.5,231.5C 355.833,231.167 355.167,230.833 354.5,230.5C 354.167,229.5 353.5,228.833 352.5,228.5C 351.5,226.833 350.167,225.5 348.5,224.5C 348.217,223.711 347.717,223.044 347,222.5C 346.749,213.467 346.249,204.467 345.5,195.5 Z"/></g>
<g><path style="opacity:1" fill="#3e6a35" d="M 384.5,199.5 C 389.833,200.167 389.833,200.833 384.5,201.5C 384.5,200.833 384.5,200.167 384.5,199.5 Z"/></g>
<g><path style="opacity:1" fill="#3b6d3a" d="M 359.5,199.5 C 360.978,199.238 362.311,199.571 363.5,200.5C 362.833,200.833 362.167,201.167 361.5,201.5C 360.287,201.253 359.62,200.586 359.5,199.5 Z"/></g>
<g><path style="opacity:1" fill="#aea89a" d="M 395.5,195.5 C 396.473,195.987 397.473,196.487 398.5,197C 396.843,197.725 395.843,197.225 395.5,195.5 Z"/></g>
<g><path style="opacity:1" fill="#bd8e16" d="M 398.5,213.5 C 396.088,213.694 395.088,215.027 395.5,217.5C 394.833,219.833 394.167,222.167 393.5,224.5C 391.738,224.643 390.071,224.309 388.5,223.5C 387.438,224.425 387.438,225.425 388.5,226.5C 389.701,228.909 391.367,230.909 393.5,232.5C 393.167,233.5 392.5,234.167 391.5,234.5C 390.588,232.405 389.421,230.405 388,228.5C 387.617,229.056 387.117,229.389 386.5,229.5C 386.737,228.209 386.404,227.209 385.5,226.5C 386.706,225.12 386.373,223.953 384.5,223C 377.115,221.342 375.615,223.509 380,229.5C 380.383,228.944 380.883,228.611 381.5,228.5C 381.5,229.5 381.5,230.5 381.5,231.5C 382.399,234.395 383.733,237.062 385.5,239.5C 384.833,239.5 384.167,239.5 383.5,239.5C 381.5,235.5 379.5,231.5 377.5,227.5C 376.962,225.883 376.629,224.216 376.5,222.5C 374.446,222.365 372.779,223.032 371.5,224.5C 368.634,221.952 365.634,222.119 362.5,225C 363.056,225.383 363.389,225.883 363.5,226.5C 362.596,227.209 362.263,228.209 362.5,229.5C 361.883,229.389 361.383,229.056 361,228.5C 359.907,230.349 358.574,232.016 357,233.5C 356.536,232.906 356.369,232.239 356.5,231.5C 358.25,230.341 359.25,228.674 359.5,226.5C 361.625,225.632 361.791,224.632 360,223.5C 358.541,223.808 357.374,224.475 356.5,225.5C 355.205,223.021 354.205,220.354 353.5,217.5C 353.912,215.027 352.912,213.694 350.5,213.5C 348.727,212.686 348.227,211.352 349,209.5C 350.676,210.061 352.009,211.061 353,212.5C 353.85,211.576 354.85,211.576 356,212.5C 358.276,210.456 360.11,208.123 361.5,205.5C 363.833,207.167 366.167,208.833 368.5,210.5C 370.333,208.33 372.333,206.33 374.5,204.5C 375.852,205.518 376.852,206.851 377.5,208.5C 381.221,210.335 383.554,209.335 384.5,205.5C 385.873,205.343 387.207,205.51 388.5,206C 389.329,207.816 390.163,209.649 391,211.5C 391.561,212.022 392.228,212.355 393,212.5C 394.15,211.576 395.15,211.576 396,212.5C 396.991,211.061 398.324,210.061 400,209.5C 400.773,211.352 400.273,212.686 398.5,213.5 Z"/></g>
<g><path style="opacity:1" fill="#397353" d="M 364.5,213.5 C 364.5,213.833 364.5,214.167 364.5,214.5C 363.833,214.167 363.167,213.833 362.5,213.5C 362.167,213.5 361.833,213.5 361.5,213.5C 361.238,212.022 361.571,210.689 362.5,209.5C 364.111,210.32 364.778,211.654 364.5,213.5 Z"/></g>
<g><path style="opacity:1" fill="#a90d24" d="M 375.5,212.5 C 374.833,212.5 374.167,212.5 373.5,212.5C 374.167,207.167 374.833,207.167 375.5,212.5 Z"/></g>
<g><path style="opacity:1" fill="#bebbb4" d="M 384.5,213.5 C 384.833,213.5 385.167,213.5 385.5,213.5C 385.134,214.695 384.301,215.361 383,215.5C 381.144,214.264 379.311,214.264 377.5,215.5C 376.081,214.995 375.415,213.995 375.5,212.5C 377.187,213.726 378.687,213.392 380,211.5C 381.3,212.707 382.8,213.374 384.5,213.5 Z"/></g>
<g><path style="opacity:1" fill="#307456" d="M 387.5,213.5 C 387.167,213.5 386.833,213.5 386.5,213.5C 386.167,213.5 385.833,213.5 385.5,213.5C 385.167,213.5 384.833,213.5 384.5,213.5C 384.222,211.654 384.889,210.32 386.5,209.5C 387.429,210.689 387.762,212.022 387.5,213.5 Z"/></g>
<g><path style="opacity:1" fill="#e3ab1f" d="M 343.5,212.5 C 344.625,213.652 344.625,214.652 343.5,215.5C 342.691,217.292 342.191,219.292 342,221.5C 340.625,219.063 340.125,216.397 340.5,213.5C 340.557,212.391 340.89,211.391 341.5,210.5C 341.351,209.448 341.517,208.448 342,207.5C 342.198,209.382 342.698,211.048 343.5,212.5 Z"/></g>
<g><path style="opacity:1" fill="#bdbdbc" d="M 361.5,213.5 C 361.833,213.5 362.167,213.5 362.5,213.5C 362.199,216.317 360.866,216.984 358.5,215.5C 357.742,216.811 356.742,217.311 355.5,217C 356.071,215.795 356.738,214.628 357.5,213.5C 358.995,214.705 360.328,214.705 361.5,213.5 Z"/></g>
<g><path style="opacity:1" fill="#bfbbb3" d="M 373.5,212.5 C 373.585,213.995 372.919,214.995 371.5,215.5C 369.035,215.057 366.702,214.724 364.5,214.5C 364.5,214.167 364.5,213.833 364.5,213.5C 366.2,213.374 367.7,212.707 369,211.5C 370.313,213.392 371.813,213.726 373.5,212.5 Z"/></g>
<g><path style="opacity:1" fill="#b3913b" d="M 336.5,184.5 C 338.986,185.462 338.986,186.295 336.5,187C 338.384,187.216 340.051,187.883 341.5,189C 340.5,189.333 339.5,189.667 338.5,190C 338.822,197.162 339.822,203.995 341.5,210.5C 340.89,211.391 340.557,212.391 340.5,213.5C 339.51,219.31 339.177,225.31 339.5,231.5C 338.833,230.167 338.167,228.833 337.5,227.5C 337.665,224.15 337.498,220.817 337,217.5C 336.667,217.833 336.333,218.167 336,218.5C 333.628,216.297 331.461,213.963 329.5,211.5C 330.525,211.103 330.692,210.437 330,209.5C 327.19,206.536 325.024,203.202 323.5,199.5C 325.861,201.194 327.861,203.194 329.5,205.5C 331.458,208.792 333.791,211.792 336.5,214.5C 337.107,214.376 337.44,214.043 337.5,213.5C 338.799,206.141 338.799,198.641 337.5,191C 337.15,189.743 336.483,189.409 335.5,190C 333.598,191.73 331.931,193.563 330.5,195.5C 330.167,195.5 329.833,195.5 329.5,195.5C 330.754,192.907 332.42,190.573 334.5,188.5C 335.598,187.603 335.598,186.77 334.5,186C 335.416,185.722 336.082,185.222 336.5,184.5 Z"/></g>
<g><path style="opacity:1" fill="#9f9d9b" d="M 329.5,205.5 C 332.452,207.785 335.118,210.452 337.5,213.5C 337.44,214.043 337.107,214.376 336.5,214.5C 333.791,211.792 331.458,208.792 329.5,205.5 Z"/></g>
<g><path style="opacity:1" fill="#f4f3f1" d="M 340.5,213.5 C 340.125,216.397 340.625,219.063 342,221.5C 342.191,219.292 342.691,217.292 343.5,215.5C 344.413,223.429 345.08,231.429 345.5,239.5C 342.515,237.513 340.515,234.846 339.5,231.5C 339.177,225.31 339.51,219.31 340.5,213.5 Z"/></g>
<g><path style="opacity:1" fill="#a01f1d" d="M 350.5,213.5 C 352.912,213.694 353.912,215.027 353.5,217.5C 351.088,217.306 350.088,215.973 350.5,213.5 Z"/></g>
<g><path style="opacity:1" fill="#e3a807" d="M 408.5,213.5 C 407.683,215.969 407.183,218.635 407,221.5C 406.809,219.292 406.309,217.292 405.5,215.5C 404.596,214.791 404.263,213.791 404.5,212.5C 404.833,212.5 405.167,212.5 405.5,212.5C 407.196,210.871 408.196,211.204 408.5,213.5 Z"/></g>
<g><path style="opacity:1" fill="#b68e29" d="M 414.5,188.5 C 416.555,190.555 418.221,192.888 419.5,195.5C 419.167,195.5 418.833,195.5 418.5,195.5C 417.069,193.563 415.402,191.73 413.5,190C 412.256,189.544 411.423,190.044 411,191.5C 410.169,198.856 410.335,206.189 411.5,213.5C 414.548,211.118 417.215,208.452 419.5,205.5C 418.178,209.415 415.512,212.915 411.5,216C 412.416,216.278 413.082,216.778 413.5,217.5C 410.928,221.504 410.928,225.504 413.5,229.5C 412.113,231.21 410.779,232.877 409.5,234.5C 409.167,234.5 408.833,234.5 408.5,234.5C 409.738,227.358 409.738,220.358 408.5,213.5C 408.196,211.204 407.196,210.871 405.5,212.5C 405.354,207.563 406.354,206.897 408.5,210.5C 409.2,203.445 409.867,196.445 410.5,189.5C 411.568,188.566 412.901,188.232 414.5,188.5 Z"/></g>
<g><path style="opacity:1" fill="#9c978f" d="M 426.5,199.5 C 424.217,202.956 421.717,206.29 419,209.5C 418.829,212.915 416.995,215.582 413.5,217.5C 413.082,216.778 412.416,216.278 411.5,216C 415.512,212.915 418.178,209.415 419.5,205.5C 421.239,202.757 423.573,200.757 426.5,199.5 Z"/></g>
<g><path style="opacity:1" fill="#b9b2a2" d="M 386.5,213.5 C 386.833,213.5 387.167,213.5 387.5,213.5C 388.672,214.705 390.005,214.705 391.5,213.5C 392.23,214.934 393.23,216.1 394.5,217C 392.155,217.17 389.821,216.837 387.5,216C 386.748,215.329 386.414,214.496 386.5,213.5 Z"/></g>
<g><path style="opacity:1" fill="#9c181c" d="M 398.5,213.5 C 398.912,215.973 397.912,217.306 395.5,217.5C 395.088,215.027 396.088,213.694 398.5,213.5 Z"/></g>
<g><path style="opacity:1" fill="#f2f0e9" d="M 408.5,213.5 C 409.738,220.358 409.738,227.358 408.5,234.5C 407.236,236.27 405.736,237.937 404,239.5C 403.536,238.906 403.369,238.239 403.5,237.5C 404.051,230.111 404.718,222.778 405.5,215.5C 406.309,217.292 406.809,219.292 407,221.5C 407.183,218.635 407.683,215.969 408.5,213.5 Z"/></g>
<g><path style="opacity:1" fill="#bcbcbd" d="M 329.5,211.5 C 331.461,213.963 333.628,216.297 336,218.5C 336.333,218.167 336.667,217.833 337,217.5C 337.498,220.817 337.665,224.15 337.5,227.5C 336.522,227.811 335.855,228.478 335.5,229.5C 336.5,230.833 337.5,232.167 338.5,233.5C 337.018,235.483 335.351,237.316 333.5,239C 331.583,238.973 329.916,238.139 328.5,236.5C 327.354,237.145 326.354,237.978 325.5,239C 328.858,240.835 329.191,243.002 326.5,245.5C 321.982,242.33 318.649,238.33 316.5,233.5C 318.146,231.188 320.146,229.188 322.5,227.5C 323.855,228.188 324.855,229.188 325.5,230.5C 323.962,232.551 324.296,234.218 326.5,235.5C 329.5,233.167 332.167,230.5 334.5,227.5C 333.38,225.404 331.88,225.07 330,226.5C 326.697,224.603 326.864,222.936 330.5,221.5C 331.086,221.709 331.586,222.043 332,222.5C 335.148,218.951 334.315,216.784 329.5,216C 333.326,218.861 333.326,220.027 329.5,219.5C 328.5,218.833 327.5,218.167 326.5,217.5C 326.67,216.178 326.337,215.011 325.5,214C 327.932,212.913 327.598,212.413 324.5,212.5C 324.33,213.822 324.663,214.989 325.5,216C 323.5,219.333 321.5,219.333 319.5,216C 320.337,214.989 320.67,213.822 320.5,212.5C 318.897,212.312 317.563,212.812 316.5,214C 318.891,214.691 318.891,215.691 316.5,217C 316.728,217.399 317.062,217.565 317.5,217.5C 317.047,218.458 316.381,219.292 315.5,220C 316.71,221.039 317.71,222.206 318.5,223.5C 315.87,225.628 313.37,227.961 311,230.5C 307.5,227 304,223.5 300.5,220C 302.809,216.714 304.976,216.881 307,220.5C 310.376,218.241 310.21,216.241 306.5,214.5C 308.483,212.016 310.65,209.683 313,207.5C 314.019,208.687 315.186,209.687 316.5,210.5C 319.019,208.641 319.019,206.641 316.5,204.5C 317.145,203.354 317.978,202.354 319,201.5C 322.04,205.375 325.54,208.708 329.5,211.5 Z"/></g>
<g><path style="opacity:1" fill="#989898" d="M 326.5,217.5 C 326.405,220.272 325.071,222.272 322.5,223.5C 320.028,222.04 318.361,220.04 317.5,217.5C 317.062,217.565 316.728,217.399 316.5,217C 318.891,215.691 318.891,214.691 316.5,214C 317.563,212.812 318.897,212.312 320.5,212.5C 320.67,213.822 320.337,214.989 319.5,216C 321.5,219.333 323.5,219.333 325.5,216C 324.663,214.989 324.33,213.822 324.5,212.5C 327.598,212.413 327.932,212.913 325.5,214C 326.337,215.011 326.67,216.178 326.5,217.5 Z"/></g>
<g><path style="opacity:1" fill="#305e31" d="M 362.5,219.5 C 363.675,219.281 364.675,219.614 365.5,220.5C 363.948,221.798 362.948,221.465 362.5,219.5 Z"/></g>
<g><path style="opacity:1" fill="#346131" d="M 383.5,219.5 C 384.675,219.281 385.675,219.614 386.5,220.5C 384.948,221.798 383.948,221.465 383.5,219.5 Z"/></g>
<g><path style="opacity:1" fill="#b79540" d="M 402.5,199.5 C 403.167,203.833 403.833,208.167 404.5,212.5C 404.263,213.791 404.596,214.791 405.5,215.5C 404.718,222.778 404.051,230.111 403.5,237.5C 402.549,236.081 402.216,234.415 402.5,232.5C 403.01,229.612 402.344,227.279 400.5,225.5C 400.783,224.711 401.283,224.044 402,223.5C 402.5,215.507 402.666,207.507 402.5,199.5 Z"/></g>
<g><path style="opacity:1" fill="#f5f5f5" d="M 317.5,217.5 C 318.361,220.04 320.028,222.04 322.5,223.5C 325.071,222.272 326.405,220.272 326.5,217.5C 327.5,218.167 328.5,218.833 329.5,219.5C 325.555,223.336 325.555,227.169 329.5,231C 328.667,231.833 327.833,232.667 327,233.5C 326.768,232.263 326.268,231.263 325.5,230.5C 324.855,229.188 323.855,228.188 322.5,227.5C 320.146,229.188 318.146,231.188 316.5,233.5C 315.262,234.412 313.928,234.579 312.5,234C 314.667,231.833 316.833,229.667 319,227.5C 319.765,225.934 319.598,224.601 318.5,223.5C 317.71,222.206 316.71,221.039 315.5,220C 316.381,219.292 317.047,218.458 317.5,217.5 Z"/></g>
<g><path style="opacity:1" fill="#d6cebb" d="M 371.5,224.5 C 370.579,225.981 369.412,227.314 368,228.5C 366.714,227.65 366.881,226.483 368.5,225C 366.67,224.818 365.003,225.318 363.5,226.5C 363.389,225.883 363.056,225.383 362.5,225C 365.634,222.119 368.634,221.952 371.5,224.5 Z"/></g>
<g><path style="opacity:1" fill="#d5ccb5" d="M 385.5,226.5 C 384.244,226.096 383.077,225.429 382,224.5C 380.274,225.648 380.441,226.815 382.5,228C 382.272,228.399 381.938,228.565 381.5,228.5C 380.883,228.611 380.383,228.944 380,229.5C 375.615,223.509 377.115,221.342 384.5,223C 386.373,223.953 386.706,225.12 385.5,226.5 Z"/></g>
<g><path style="opacity:1" fill="#b8082f" d="M 377.5,227.5 C 375.5,227.5 373.5,227.5 371.5,227.5C 371.5,226.5 371.5,225.5 371.5,224.5C 372.779,223.032 374.446,222.365 376.5,222.5C 376.629,224.216 376.962,225.883 377.5,227.5 Z"/></g>
<g><path style="opacity:1" fill="#ac2b2d" d="M 359.5,226.5 C 358.209,226.737 357.209,226.404 356.5,225.5C 357.374,224.475 358.541,223.808 360,223.5C 361.791,224.632 361.625,225.632 359.5,226.5 Z"/></g>
<g><path style="opacity:1" fill="#ad1c2c" d="M 393.5,224.5 C 392.22,225.931 390.553,226.598 388.5,226.5C 387.438,225.425 387.438,224.425 388.5,223.5C 390.071,224.309 391.738,224.643 393.5,224.5 Z"/></g>
<g><path style="opacity:1" fill="#fabb01" d="M 454.5,229.5 C 451.833,232.833 448.833,235.833 445.5,238.5C 444.387,237.054 444.22,235.387 445,233.5C 448,230.5 451,227.5 454,224.5C 454.494,226.134 454.66,227.801 454.5,229.5 Z"/></g>
<g><path style="opacity:1" fill="#f1b503" d="M 400.5,225.5 C 402.344,227.279 403.01,229.612 402.5,232.5C 400.5,231.167 398.833,229.5 397.5,227.5C 398.5,226.833 399.5,226.167 400.5,225.5 Z"/></g>
<g><path style="opacity:1" fill="#efb408" d="M 428.5,196.5 C 431.167,197.167 432.833,198.833 433.5,201.5C 432.957,201.56 432.624,201.893 432.5,202.5C 433.95,203.85 434.617,205.516 434.5,207.5C 439.968,209.138 443.135,212.804 444,218.5C 445.836,216.088 447.336,216.422 448.5,219.5C 445.204,223.298 441.704,226.964 438,230.5C 436.333,228.833 434.667,227.167 433,225.5C 433.448,228.301 435.115,230.301 438,231.5C 442.121,228.382 445.954,224.882 449.5,221C 450.167,220.333 450.833,220.333 451.5,221C 448.333,224.167 445.167,227.333 442,230.5C 442.344,232.258 442.844,234.091 443.5,236C 443.316,237.376 442.649,238.209 441.5,238.5C 441.217,237.711 440.717,237.044 440,236.5C 439.502,239.482 439.335,242.482 439.5,245.5C 435.853,248.811 432.187,252.145 428.5,255.5C 424.111,251.595 420.278,247.928 417,244.5C 414.63,241.961 412.13,239.628 409.5,237.5C 409.5,236.5 409.5,235.5 409.5,234.5C 410.779,232.877 412.113,231.21 413.5,229.5C 410.928,225.504 410.928,221.504 413.5,217.5C 416.995,215.582 418.829,212.915 419,209.5C 421.717,206.29 424.217,202.956 426.5,199.5C 427.167,198.5 427.833,197.5 428.5,196.5 Z"/></g>
<g><path style="opacity:1" fill="#e8e6e2" d="M 431.5,217.5 C 435.229,219.408 435.062,221.408 431,223.5C 430.333,225.167 430.333,226.833 431,228.5C 433.016,230.684 435.183,232.684 437.5,234.5C 436.167,235.833 434.833,235.833 433.5,234.5C 431.5,231.833 429.167,229.5 426.5,227.5C 424.378,229.451 422.878,231.785 422,234.5C 421.292,233.619 420.458,232.953 419.5,232.5C 419.685,230.804 420.519,229.471 422,228.5C 422.789,226.288 422.622,224.288 421.5,222.5C 420.833,222.5 420.5,222.167 420.5,221.5C 419.024,219.77 419.358,218.437 421.5,217.5C 424.965,225.417 428.298,225.417 431.5,217.5 Z"/></g>
<g><path style="opacity:1" fill="#cc990f" d="M 431.5,217.5 C 428.298,225.417 424.965,225.417 421.5,217.5C 419.358,218.437 419.024,219.77 420.5,221.5C 419.178,221.33 418.011,221.663 417,222.5C 416.167,221.667 415.333,220.833 414.5,220C 416.833,217.667 419.167,215.333 421.5,213C 425.3,212.438 425.967,213.438 423.5,216C 425.5,219.333 427.5,219.333 429.5,216C 428.179,214.455 428.512,213.289 430.5,212.5C 433.167,213.5 433.167,214.5 430.5,215.5C 430.863,216.183 431.196,216.85 431.5,217.5 Z"/></g>
<g><path style="opacity:1" fill="#ca9709" d="M 421.5,222.5 C 422.622,224.288 422.789,226.288 422,228.5C 420.519,229.471 419.685,230.804 419.5,232.5C 417.521,231.188 415.855,229.521 414.5,227.5C 415.62,225.404 417.12,225.07 419,226.5C 420.481,225.529 421.315,224.196 421.5,222.5 Z"/></g>
<g><path style="opacity:1" fill="#f7f7f6" d="M 371.5,227.5 C 373.5,227.5 375.5,227.5 377.5,227.5C 379.5,231.5 381.5,235.5 383.5,239.5C 381.5,242.167 379.5,244.833 377.5,247.5C 375.668,245.043 374.001,245.043 372.5,247.5C 370.478,245.469 368.811,243.135 367.5,240.5C 366.89,239.609 366.557,238.609 366.5,237.5C 368.167,234.167 369.833,230.833 371.5,227.5 Z"/></g>
<g><path style="opacity:1" fill="#e6ae17" d="M 385.5,226.5 C 386.404,227.209 386.737,228.209 386.5,229.5C 386.062,229.435 385.728,229.601 385.5,230C 388.089,231.922 388.589,234.089 387,236.5C 385.916,235.335 385.083,234.002 384.5,232.5C 383.675,231.614 382.675,231.281 381.5,231.5C 381.5,230.5 381.5,229.5 381.5,228.5C 381.938,228.565 382.272,228.399 382.5,228C 380.441,226.815 380.274,225.648 382,224.5C 383.077,225.429 384.244,226.096 385.5,226.5 Z"/></g>
<g><path style="opacity:1" fill="#cc990c" d="M 448.5,219.5 C 451.044,219.104 453.211,219.771 455,221.5C 455.801,224.367 455.634,227.034 454.5,229.5C 454.66,227.801 454.494,226.134 454,224.5C 451,227.5 448,230.5 445,233.5C 444.22,235.387 444.387,237.054 445.5,238.5C 444.167,241.167 442.833,241.167 441.5,238.5C 442.649,238.209 443.316,237.376 443.5,236C 442.844,234.091 442.344,232.258 442,230.5C 445.167,227.333 448.333,224.167 451.5,221C 450.833,220.333 450.167,220.333 449.5,221C 445.954,224.882 442.121,228.382 438,231.5C 435.115,230.301 433.448,228.301 433,225.5C 434.667,227.167 436.333,228.833 438,230.5C 441.704,226.964 445.204,223.298 448.5,219.5 Z"/></g>
<g><path style="opacity:1" fill="#dfa914" d="M 394.5,231.5 C 398.009,232.301 399.342,234.301 398.5,237.5C 399.09,238.799 400.09,239.632 401.5,240C 401.272,240.399 400.938,240.565 400.5,240.5C 398.863,239.782 397.197,239.616 395.5,240C 394.167,241.333 392.833,242.667 391.5,244C 392.044,244.717 392.711,245.217 393.5,245.5C 394.5,246.167 395.5,246.833 396.5,247.5C 394.856,247.714 393.356,247.38 392,246.5C 389.287,248.72 386.454,250.72 383.5,252.5C 381.5,252.5 379.5,252.5 377.5,252.5C 377.5,250.833 377.5,249.167 377.5,247.5C 379.5,244.833 381.5,242.167 383.5,239.5C 384.167,239.5 384.833,239.5 385.5,239.5C 387.5,237.833 389.5,236.167 391.5,234.5C 392.5,234.167 393.167,233.5 393.5,232.5C 393.5,231.833 393.833,231.5 394.5,231.5 Z"/></g>
<g><path style="opacity:1" fill="#bfbebd" d="M 348.5,224.5 C 350.167,225.5 351.5,226.833 352.5,228.5C 348.23,229.543 347.063,231.877 349,235.5C 350.704,233.627 352.537,231.96 354.5,230.5C 355.167,230.833 355.833,231.167 356.5,231.5C 356.369,232.239 356.536,232.906 357,233.5C 358.574,232.016 359.907,230.349 361,228.5C 361.383,229.056 361.883,229.389 362.5,229.5C 362.938,229.435 363.272,229.601 363.5,230C 360.911,231.922 360.411,234.089 362,236.5C 363.102,234.619 364.435,232.952 366,231.5C 366.5,231.833 367,232.167 367.5,232.5C 366.559,234.772 365.226,236.772 363.5,238.5C 363.833,238.833 364.167,239.167 364.5,239.5C 365.182,238.757 365.849,238.091 366.5,237.5C 366.557,238.609 366.89,239.609 367.5,240.5C 365.147,241.34 363.147,242.674 361.5,244.5C 363.14,247.468 365.14,250.135 367.5,252.5C 366.833,252.833 366.167,253.167 365.5,253.5C 363.025,250.759 360.025,248.759 356.5,247.5C 357.091,246.849 357.757,246.182 358.5,245.5C 358.376,244.893 358.043,244.56 357.5,244.5C 356.089,242.086 354.089,240.419 351.5,239.5C 352.463,238.637 352.463,237.97 351.5,237.5C 350.252,238.04 349.085,238.707 348,239.5C 346.943,236.793 346.443,233.96 346.5,231C 346.533,228.39 347.2,226.223 348.5,224.5 Z"/></g>
<g><path style="opacity:1" fill="#e2ac12" d="M 352.5,228.5 C 353.5,228.833 354.167,229.5 354.5,230.5C 352.537,231.96 350.704,233.627 349,235.5C 347.063,231.877 348.23,229.543 352.5,228.5 Z"/></g>
<g><path style="opacity:1" fill="#dca71d" d="M 371.5,224.5 C 371.5,225.5 371.5,226.5 371.5,227.5C 369.833,230.833 368.167,234.167 366.5,237.5C 365.849,238.091 365.182,238.757 364.5,239.5C 364.167,239.167 363.833,238.833 363.5,238.5C 365.226,236.772 366.559,234.772 367.5,232.5C 367,232.167 366.5,231.833 366,231.5C 364.435,232.952 363.102,234.619 362,236.5C 360.411,234.089 360.911,231.922 363.5,230C 363.272,229.601 362.938,229.435 362.5,229.5C 362.263,228.209 362.596,227.209 363.5,226.5C 365.003,225.318 366.67,224.818 368.5,225C 366.881,226.483 366.714,227.65 368,228.5C 369.412,227.314 370.579,225.981 371.5,224.5 Z"/></g>
<g><path style="opacity:1" fill="#e1dfdb" d="M 391.5,234.5 C 389.5,236.167 387.5,237.833 385.5,239.5C 383.733,237.062 382.399,234.395 381.5,231.5C 382.675,231.281 383.675,231.614 384.5,232.5C 385.083,234.002 385.916,235.335 387,236.5C 388.589,234.089 388.089,231.922 385.5,230C 385.728,229.601 386.062,229.435 386.5,229.5C 387.117,229.389 387.617,229.056 388,228.5C 389.421,230.405 390.588,232.405 391.5,234.5 Z"/></g>
<g><path style="opacity:1" fill="#999999" d="M 325.5,230.5 C 326.268,231.263 326.768,232.263 327,233.5C 327.833,232.667 328.667,231.833 329.5,231C 325.555,227.169 325.555,223.336 329.5,219.5C 333.326,220.027 333.326,218.861 329.5,216C 334.315,216.784 335.148,218.951 332,222.5C 331.586,222.043 331.086,221.709 330.5,221.5C 326.864,222.936 326.697,224.603 330,226.5C 331.88,225.07 333.38,225.404 334.5,227.5C 332.167,230.5 329.5,233.167 326.5,235.5C 324.296,234.218 323.962,232.551 325.5,230.5 Z"/></g>
<g><path style="opacity:1" fill="#b59749" d="M 345.5,194.5 C 345.5,194.833 345.5,195.167 345.5,195.5C 346.249,204.467 346.749,213.467 347,222.5C 347.717,223.044 348.217,223.711 348.5,224.5C 347.2,226.223 346.533,228.39 346.5,231C 346.443,233.96 346.943,236.793 348,239.5C 349.085,238.707 350.252,238.04 351.5,237.5C 352.463,237.97 352.463,238.637 351.5,239.5C 350.609,240.11 349.609,240.443 348.5,240.5C 347.883,240.611 347.383,240.944 347,241.5C 346.722,240.584 346.222,239.918 345.5,239.5C 345.08,231.429 344.413,223.429 343.5,215.5C 344.625,214.652 344.625,213.652 343.5,212.5C 344.167,206.5 344.833,200.5 345.5,194.5 Z"/></g>
<g><path style="opacity:1" fill="#fbfbfb" d="M 351.5,239.5 C 354.089,240.419 356.089,242.086 357.5,244.5C 356.609,245.11 355.609,245.443 354.5,245.5C 350.651,245.981 348.651,244.314 348.5,240.5C 349.609,240.443 350.609,240.11 351.5,239.5 Z"/></g>
<g><path style="opacity:1" fill="#f8f8f9" d="M 400.5,240.5 C 400.185,244.8 397.851,246.467 393.5,245.5C 392.711,245.217 392.044,244.717 391.5,244C 392.833,242.667 394.167,241.333 395.5,240C 397.197,239.616 398.863,239.782 400.5,240.5 Z"/></g>
<g><path style="opacity:1" fill="#bea665" d="M 441.5,238.5 C 440.833,240.833 440.167,243.167 439.5,245.5C 439.335,242.482 439.502,239.482 440,236.5C 440.717,237.044 441.217,237.711 441.5,238.5 Z"/></g>
<g><path style="opacity:1" fill="#9f9c9c" d="M 367.5,240.5 C 368.811,243.135 370.478,245.469 372.5,247.5C 373.038,249.117 373.371,250.784 373.5,252.5C 371.5,252.5 369.5,252.5 367.5,252.5C 365.14,250.135 363.14,247.468 361.5,244.5C 363.147,242.674 365.147,241.34 367.5,240.5 Z"/></g>
<g><path style="opacity:1" fill="#b9b3a5" d="M 397.5,227.5 C 398.833,229.5 400.5,231.167 402.5,232.5C 402.216,234.415 402.549,236.081 403.5,237.5C 403.369,238.239 403.536,238.906 404,239.5C 405.736,237.937 407.236,236.27 408.5,234.5C 408.833,234.5 409.167,234.5 409.5,234.5C 409.5,235.5 409.5,236.5 409.5,237.5C 404.948,240.603 400.614,243.936 396.5,247.5C 395.5,246.833 394.5,246.167 393.5,245.5C 397.851,246.467 400.185,244.8 400.5,240.5C 400.938,240.565 401.272,240.399 401.5,240C 400.09,239.632 399.09,238.799 398.5,237.5C 399.342,234.301 398.009,232.301 394.5,231.5C 394.738,229.596 395.738,228.262 397.5,227.5 Z"/></g>
<g><path style="opacity:1" fill="#bc9530" d="M 357.5,244.5 C 358.043,244.56 358.376,244.893 358.5,245.5C 357.757,246.182 357.091,246.849 356.5,247.5C 354.833,247.5 353.167,247.5 351.5,247.5C 352.5,246.833 353.5,246.167 354.5,245.5C 355.609,245.443 356.609,245.11 357.5,244.5 Z"/></g>
<g><path style="opacity:1" fill="#aa180e" d="M 377.5,247.5 C 377.5,249.167 377.5,250.833 377.5,252.5C 379.5,252.5 381.5,252.5 383.5,252.5C 384.686,253.961 384.686,255.295 383.5,256.5C 381.5,256.5 379.5,256.5 377.5,256.5C 377.5,258.833 377.5,261.167 377.5,263.5C 376.185,265.599 374.518,265.933 372.5,264.5C 373.265,261.904 373.599,259.237 373.5,256.5C 371.05,256.298 368.717,256.631 366.5,257.5C 365.722,256.844 365.056,256.011 364.5,255C 364.57,254.235 364.903,253.735 365.5,253.5C 366.167,253.167 366.833,252.833 367.5,252.5C 369.5,252.5 371.5,252.5 373.5,252.5C 373.371,250.784 373.038,249.117 372.5,247.5C 374.001,245.043 375.668,245.043 377.5,247.5 Z"/></g>
<g><path style="opacity:1" fill="#efb406" d="M 372.5,264.5 C 372.167,265.167 371.833,265.833 371.5,266.5C 368.543,270.792 365.21,274.792 361.5,278.5C 356.63,277.916 355.963,276.416 359.5,274C 358.551,273.383 357.718,273.549 357,274.5C 356.333,271.833 355.667,271.833 355,274.5C 353.117,273.347 352.284,271.681 352.5,269.5C 356.794,265.026 361.461,261.026 366.5,257.5C 368.717,256.631 371.05,256.298 373.5,256.5C 373.599,259.237 373.265,261.904 372.5,264.5 Z"/></g>
<g><path style="opacity:1" fill="#b0b0af" d="M 383.5,256.5 C 390.131,261.463 396.131,267.13 401.5,273.5C 397.434,276.563 394.101,280.229 391.5,284.5C 387.194,279.189 382.861,273.856 378.5,268.5C 377.962,266.883 377.629,265.216 377.5,263.5C 377.5,261.167 377.5,258.833 377.5,256.5C 379.5,256.5 381.5,256.5 383.5,256.5 Z"/></g>
<g><path style="opacity:1" fill="#f6f5f5" d="M 371.5,266.5 C 371.5,269.5 371.5,272.5 371.5,275.5C 369.437,286.706 365.437,297.039 359.5,306.5C 359.819,301.637 359.486,296.97 358.5,292.5C 358.029,290.421 357.363,288.421 356.5,286.5C 357.6,285.395 358.267,284.062 358.5,282.5C 359.147,280.859 360.147,279.526 361.5,278.5C 365.21,274.792 368.543,270.792 371.5,266.5 Z"/></g>
<g><path style="opacity:1" fill="#f9f8f8" d="M 378.5,268.5 C 382.861,273.856 387.194,279.189 391.5,284.5C 392.167,284.5 392.5,284.833 392.5,285.5C 391.955,287.593 391.122,289.593 390,291.5C 389.825,296.019 389.325,300.353 388.5,304.5C 383.759,296.019 380.426,287.019 378.5,277.5C 378.5,274.5 378.5,271.5 378.5,268.5 Z"/></g>
<g><path style="opacity:1" fill="#951613" d="M 377.5,263.5 C 377.629,265.216 377.962,266.883 378.5,268.5C 378.5,271.5 378.5,274.5 378.5,277.5C 377.71,276.391 377.21,275.058 377,273.5C 376.192,275.423 375.692,277.423 375.5,279.5C 376.432,284.625 377.765,289.625 379.5,294.5C 378.504,308.657 378.171,322.99 378.5,337.5C 379.833,337.5 381.167,337.5 382.5,337.5C 381.081,338.451 379.415,338.784 377.5,338.5C 377.333,274.503 376.833,274.503 376,338.5C 375.667,320.167 375.333,301.833 375,283.5C 373.856,286.08 373.022,288.747 372.5,291.5C 372.167,291.5 371.833,291.5 371.5,291.5C 372.958,284.875 374.292,278.209 375.5,271.5C 375.167,270.167 374.833,268.833 374.5,267.5C 373.083,270.092 372.083,272.759 371.5,275.5C 371.5,272.5 371.5,269.5 371.5,266.5C 371.833,265.833 372.167,265.167 372.5,264.5C 374.518,265.933 376.185,265.599 377.5,263.5 Z"/></g>
<g><path style="opacity:1" fill="#e8b00f" d="M 401.5,273.5 C 402.167,273.5 402.5,273.833 402.5,274.5C 399.217,278.121 395.884,281.787 392.5,285.5C 392.5,284.833 392.167,284.5 391.5,284.5C 394.101,280.229 397.434,276.563 401.5,273.5 Z"/></g>
<g><path style="opacity:1" fill="#ca2c2a" d="M 315.5,277.5 C 314.833,279.167 314.167,280.833 313.5,282.5C 309.513,282.348 308.013,280.348 309,276.5C 311.552,274.98 313.718,275.313 315.5,277.5 Z"/></g>
<g><path style="opacity:1" fill="#d19d10" d="M 352.5,269.5 C 352.284,271.681 353.117,273.347 355,274.5C 355.667,271.833 356.333,271.833 357,274.5C 357.718,273.549 358.551,273.383 359.5,274C 355.963,276.416 356.63,277.916 361.5,278.5C 360.147,279.526 359.147,280.859 358.5,282.5C 354.564,280.234 351.231,277.234 348.5,273.5C 349.5,271.833 350.833,270.5 352.5,269.5 Z"/></g>
<g><path style="opacity:1" fill="#c9302c" d="M 437.5,282.5 C 435.833,281.5 434.5,280.167 433.5,278.5C 435.805,273.179 438.139,273.179 440.5,278.5C 440.246,280.417 439.246,281.751 437.5,282.5 Z"/></g>
<g><path style="opacity:1" fill="#b0b0b0" d="M 348.5,273.5 C 351.231,277.234 354.564,280.234 358.5,282.5C 358.267,284.062 357.6,285.395 356.5,286.5C 353.833,281.833 350.167,278.167 345.5,275.5C 346.222,274.449 347.222,273.782 348.5,273.5 Z"/></g>
<g><path style="opacity:1" fill="#9b9b9c" d="M 319.5,277.5 C 317.525,279.137 315.525,280.804 313.5,282.5C 314.167,280.833 314.833,279.167 315.5,277.5C 316.964,276.595 318.298,276.595 319.5,277.5 Z"/></g>
<g><path style="opacity:1" fill="#c4951f" d="M 430.5,276.5 C 431.5,277.167 432.5,277.833 433.5,278.5C 434.5,280.167 435.833,281.5 437.5,282.5C 437.5,283.5 437.5,284.5 437.5,285.5C 434.791,282.792 432.458,279.792 430.5,276.5 Z"/></g>
<g><path style="opacity:1" fill="#b3110d" d="M 382.5,337.5 C 390.55,335.644 397.55,331.977 403.5,326.5C 405.543,325.421 406.876,323.754 407.5,321.5C 408.401,320.71 409.068,319.71 409.5,318.5C 408.103,316.621 406.437,314.954 404.5,313.5C 407.778,311.893 410.778,312.227 413.5,314.5C 413.774,319.612 412.108,323.945 408.5,327.5C 401.531,334.487 393.198,339.154 383.5,341.5C 382.167,341.5 380.833,341.5 379.5,341.5C 379.216,343.415 379.549,345.081 380.5,346.5C 380.5,347.167 380.5,347.833 380.5,348.5C 379.448,348.649 378.448,348.483 377.5,348C 378.102,346.096 377.602,344.263 376,342.5C 376.195,344.126 376.195,345.793 376,347.5C 370.013,348.731 370.18,349.565 376.5,350C 373.766,352.124 371.766,351.624 370.5,348.5C 370.261,346.533 370.594,344.699 371.5,343C 359.501,341.001 349.168,335.834 340.5,327.5C 339.167,325.5 337.833,323.5 336.5,321.5C 335.85,319.565 335.517,317.565 335.5,315.5C 336.267,314.828 336.934,313.995 337.5,313C 340.192,312.57 342.859,312.737 345.5,313.5C 343.901,315.309 341.901,316.642 339.5,317.5C 339.863,318.183 340.196,318.85 340.5,319.5C 340.5,320.167 340.833,320.5 341.5,320.5C 342.604,322.389 343.937,324.055 345.5,325.5C 351.597,332.383 359.264,336.383 368.5,337.5C 369.568,338.434 370.901,338.768 372.5,338.5C 372.5,322.833 372.5,307.167 372.5,291.5C 373.022,288.747 373.856,286.08 375,283.5C 375.333,301.833 375.667,320.167 376,338.5C 376.833,274.503 377.333,274.503 377.5,338.5C 379.415,338.784 381.081,338.451 382.5,337.5 Z"/></g>
<g><path style="opacity:1" fill="#be8e03" d="M 337.5,273.5 C 339.786,273.595 341.786,274.262 343.5,275.5C 342.448,275.351 341.448,275.517 340.5,276C 357.407,284.557 361.241,297.057 352,313.5C 349.039,316.724 345.539,319.058 341.5,320.5C 340.833,320.5 340.5,320.167 340.5,319.5C 354.705,312.612 358.538,301.945 352,287.5C 349.104,283.939 345.604,281.106 341.5,279C 336.266,279.199 330.933,279.199 325.5,279C 315.852,284.296 311.852,292.296 313.5,303C 315.493,314.337 322.159,319.671 333.5,319C 334.985,317.244 334.652,316.077 332.5,315.5C 333.5,314.167 334.5,314.167 335.5,315.5C 335.517,317.565 335.85,319.565 336.5,321.5C 321.089,321.769 312.423,314.103 310.5,298.5C 313.377,282.468 323.044,274.635 339.5,275C 338.584,274.722 337.918,274.222 337.5,273.5 Z"/></g>
<g><path style="opacity:1" fill="#ebb20b" d="M 340.5,319.5 C 340.196,318.85 339.863,318.183 339.5,317.5C 341.901,316.642 343.901,315.309 345.5,313.5C 350.706,310.145 352.039,305.812 349.5,300.5C 351.792,294.183 349.792,289.35 343.5,286C 340.169,283.99 337.002,284.157 334,286.5C 332.832,285.491 331.665,284.491 330.5,283.5C 323.457,285.045 318.79,289.212 316.5,296C 319.049,299.355 319.049,302.688 316.5,306C 319.113,311.78 323.446,315.613 329.5,317.5C 331.038,317.547 332.038,316.88 332.5,315.5C 334.652,316.077 334.985,317.244 333.5,319C 322.159,319.671 315.493,314.337 313.5,303C 311.852,292.296 315.852,284.296 325.5,279C 330.933,279.199 336.266,279.199 341.5,279C 345.604,281.106 349.104,283.939 352,287.5C 358.538,301.945 354.705,312.612 340.5,319.5 Z"/></g>
<g><path style="opacity:1" fill="#fafaf9" d="M 345.5,313.5 C 342.859,312.737 340.192,312.57 337.5,313C 336.934,313.995 336.267,314.828 335.5,315.5C 334.5,314.167 333.5,314.167 332.5,315.5C 332.038,316.88 331.038,317.547 329.5,317.5C 323.446,315.613 319.113,311.78 316.5,306C 319.049,302.688 319.049,299.355 316.5,296C 318.79,289.212 323.457,285.045 330.5,283.5C 331.665,284.491 332.832,285.491 334,286.5C 337.002,284.157 340.169,283.99 343.5,286C 349.792,289.35 351.792,294.183 349.5,300.5C 352.039,305.812 350.706,310.145 345.5,313.5 Z"/></g>
<g><path style="opacity:1" fill="#a44342" d="M 371.5,291.5 C 371.833,291.5 372.167,291.5 372.5,291.5C 372.5,307.167 372.5,322.833 372.5,338.5C 370.901,338.768 369.568,338.434 368.5,337.5C 369.5,337.5 370.5,337.5 371.5,337.5C 371.829,322.657 371.496,307.99 370.5,293.5C 370.328,292.508 370.662,291.842 371.5,291.5 Z"/></g>
<g><path style="opacity:1" fill="#f8f8f8" d="M 370.5,293.5 C 371.496,307.99 371.829,322.657 371.5,337.5C 370.5,337.5 369.5,337.5 368.5,337.5C 359.264,336.383 351.597,332.383 345.5,325.5C 345.842,324.662 346.508,324.328 347.5,324.5C 347.56,325.043 347.893,325.376 348.5,325.5C 349.518,324.807 350.518,324.141 351.5,323.5C 354.397,326.363 356.731,325.863 358.5,322C 358.022,320.697 357.355,319.531 356.5,318.5C 356.5,317.5 356.5,316.5 356.5,315.5C 363.173,309.496 367.84,302.163 370.5,293.5 Z"/></g>
<g><path style="opacity:1" fill="#f7f6f6" d="M 379.5,294.5 C 381.382,299.265 383.548,303.932 386,308.5C 388.09,311.428 390.59,313.761 393.5,315.5C 393.5,316.5 393.5,317.5 393.5,318.5C 389.35,321.399 389.684,323.733 394.5,325.5C 396.038,325.547 397.038,324.88 397.5,323.5C 398.833,323.833 400.167,324.167 401.5,324.5C 402.833,324.5 403.5,325.167 403.5,326.5C 397.55,331.977 390.55,335.644 382.5,337.5C 381.167,337.5 379.833,337.5 378.5,337.5C 378.171,322.99 378.504,308.657 379.5,294.5 Z"/></g>
<g><path style="opacity:1" fill="#b3140f" d="M 371.5,291.5 C 370.662,291.842 370.328,292.508 370.5,293.5C 367.84,302.163 363.173,309.496 356.5,315.5C 356.5,315.167 356.5,314.833 356.5,314.5C 357.501,311.828 358.501,309.162 359.5,306.5C 365.437,297.039 369.437,286.706 371.5,275.5C 372.083,272.759 373.083,270.092 374.5,267.5C 374.833,268.833 375.167,270.167 375.5,271.5C 374.292,278.209 372.958,284.875 371.5,291.5 Z"/></g>
<g><path style="opacity:1" fill="#b11811" d="M 378.5,277.5 C 380.426,287.019 383.759,296.019 388.5,304.5C 389.871,308.003 391.538,311.336 393.5,314.5C 393.5,314.833 393.5,315.167 393.5,315.5C 390.59,313.761 388.09,311.428 386,308.5C 383.548,303.932 381.382,299.265 379.5,294.5C 377.765,289.625 376.432,284.625 375.5,279.5C 375.692,277.423 376.192,275.423 377,273.5C 377.21,275.058 377.71,276.391 378.5,277.5 Z"/></g>
<g><path style="opacity:1" fill="#c69617" d="M 358.5,292.5 C 359.486,296.97 359.819,301.637 359.5,306.5C 358.501,309.162 357.501,311.828 356.5,314.5C 355.833,314.167 355.167,313.833 354.5,313.5C 357.968,307 359.301,300 358.5,292.5 Z"/></g>
<g><path style="opacity:1" fill="#edb40a" d="M 343.5,275.5 C 344.167,275.5 344.833,275.5 345.5,275.5C 350.167,278.167 353.833,281.833 356.5,286.5C 357.363,288.421 358.029,290.421 358.5,292.5C 359.301,300 357.968,307 354.5,313.5C 352.854,315.812 350.854,317.812 348.5,319.5C 347.548,321.045 347.215,322.712 347.5,324.5C 346.508,324.328 345.842,324.662 345.5,325.5C 343.937,324.055 342.604,322.389 341.5,320.5C 345.539,319.058 349.039,316.724 352,313.5C 361.241,297.057 357.407,284.557 340.5,276C 341.448,275.517 342.448,275.351 343.5,275.5 Z"/></g>
<g><path style="opacity:1" fill="#b3b3b3" d="M 430.5,276.5 C 432.458,279.792 434.791,282.792 437.5,285.5C 442.818,295.239 442.818,304.906 437.5,314.5C 437.103,313.475 436.437,313.308 435.5,314C 431.614,316.674 429.28,320.174 428.5,324.5C 422.173,327.833 415.506,328.833 408.5,327.5C 412.108,323.945 413.774,319.612 413.5,314.5C 422.474,317.601 428.808,314.601 432.5,305.5C 429.833,302.167 429.833,298.833 432.5,295.5C 429.917,289.716 425.583,286.049 419.5,284.5C 418.167,285.167 416.833,285.833 415.5,286.5C 411.759,283.942 408.093,284.109 404.5,287C 401.402,289.428 399.069,292.428 397.5,296C 400.379,297.666 401.212,300.166 400,303.5C 399.25,304.126 398.416,304.626 397.5,305C 398.943,308.606 401.276,311.439 404.5,313.5C 406.437,314.954 408.103,316.621 409.5,318.5C 402.365,316.871 397.531,312.538 395,305.5C 392.891,284.292 402.391,275.458 423.5,279C 430.136,281.962 434.136,286.962 435.5,294C 437.665,308.815 431.332,317.648 416.5,320.5C 430.176,319.655 437.51,312.155 438.5,298C 437.403,287.141 431.736,279.808 421.5,276C 406.341,273.663 396.508,279.83 392,294.5C 391.51,306.865 396.677,315.865 407.5,321.5C 406.876,323.754 405.543,325.421 403.5,326.5C 403.5,325.167 402.833,324.5 401.5,324.5C 401.66,322.801 401.494,321.134 401,319.5C 398.372,317.874 396.039,315.874 394,313.5C 393.601,313.728 393.435,314.062 393.5,314.5C 391.538,311.336 389.871,308.003 388.5,304.5C 389.325,300.353 389.825,296.019 390,291.5C 391.122,289.593 391.955,287.593 392.5,285.5C 395.884,281.787 399.217,278.121 402.5,274.5C 403.117,274.611 403.617,274.944 404,275.5C 407.315,273.285 410.982,272.285 415,272.5C 420.416,272.917 425.582,274.251 430.5,276.5 Z"/></g>
<g><path style="opacity:1" fill="#8d8d8d" d="M 409.5,318.5 C 409.068,319.71 408.401,320.71 407.5,321.5C 396.677,315.865 391.51,306.865 392,294.5C 396.508,279.83 406.341,273.663 421.5,276C 431.736,279.808 437.403,287.141 438.5,298C 437.51,312.155 430.176,319.655 416.5,320.5C 431.332,317.648 437.665,308.815 435.5,294C 434.136,286.962 430.136,281.962 423.5,279C 402.391,275.458 392.891,284.292 395,305.5C 397.531,312.538 402.365,316.871 409.5,318.5 Z"/></g>
<g><path style="opacity:1" fill="#fdfdfd" d="M 413.5,314.5 C 410.778,312.227 407.778,311.893 404.5,313.5C 401.276,311.439 398.943,308.606 397.5,305C 398.416,304.626 399.25,304.126 400,303.5C 401.212,300.166 400.379,297.666 397.5,296C 399.069,292.428 401.402,289.428 404.5,287C 408.093,284.109 411.759,283.942 415.5,286.5C 416.833,285.833 418.167,285.167 419.5,284.5C 425.583,286.049 429.917,289.716 432.5,295.5C 429.833,298.833 429.833,302.167 432.5,305.5C 428.808,314.601 422.474,317.601 413.5,314.5 Z"/></g>
<g><path style="opacity:1" fill="#999692" d="M 320.5,324.5 C 320.44,325.043 320.107,325.376 319.5,325.5C 318.482,324.807 317.482,324.141 316.5,323.5C 316.5,320.167 314.833,318.5 311.5,318.5C 311.5,317.167 311.5,315.833 311.5,314.5C 312.117,314.389 312.617,314.056 313,313.5C 315.333,315.833 317.667,318.167 320,320.5C 320.49,321.793 320.657,323.127 320.5,324.5 Z"/></g>
<g><path style="opacity:1" fill="#9a9798" d="M 354.5,313.5 C 355.167,313.833 355.833,314.167 356.5,314.5C 356.5,314.833 356.5,315.167 356.5,315.5C 356.5,316.5 356.5,317.5 356.5,318.5C 352.5,317.833 350.833,319.5 351.5,323.5C 350.518,324.141 349.518,324.807 348.5,325.5C 347.893,325.376 347.56,325.043 347.5,324.5C 347.215,322.712 347.548,321.045 348.5,319.5C 350.854,317.812 352.854,315.812 354.5,313.5 Z"/></g>
<g><path style="opacity:1" fill="#cb940c" d="M 401.5,324.5 C 400.167,324.167 398.833,323.833 397.5,323.5C 398.244,320.05 396.91,318.384 393.5,318.5C 393.5,317.5 393.5,316.5 393.5,315.5C 393.5,315.167 393.5,314.833 393.5,314.5C 393.435,314.062 393.601,313.728 394,313.5C 396.039,315.874 398.372,317.874 401,319.5C 401.494,321.134 401.66,322.801 401.5,324.5 Z"/></g>
<g><path style="opacity:1" fill="#c69411" d="M 437.5,314.5 C 437.5,315.833 437.5,317.167 437.5,318.5C 434.167,318.5 432.5,320.167 432.5,323.5C 431.292,324.234 429.959,324.567 428.5,324.5C 429.28,320.174 431.614,316.674 435.5,314C 436.437,313.308 437.103,313.475 437.5,314.5 Z"/></g>
<g><path style="opacity:1" fill="#c9312d" d="M 311.5,318.5 C 314.833,318.5 316.5,320.167 316.5,323.5C 314.989,325.441 312.989,325.941 310.5,325C 308.98,322.448 309.313,320.282 311.5,318.5 Z"/></g>
<g><path style="opacity:1" fill="#cd2b29" d="M 356.5,318.5 C 357.355,319.531 358.022,320.697 358.5,322C 356.731,325.863 354.397,326.363 351.5,323.5C 350.833,319.5 352.5,317.833 356.5,318.5 Z"/></g>
<g><path style="opacity:1" fill="#cc2d2c" d="M 393.5,318.5 C 396.91,318.384 398.244,320.05 397.5,323.5C 397.038,324.88 396.038,325.547 394.5,325.5C 389.684,323.733 389.35,321.399 393.5,318.5 Z"/></g>
<g><path style="opacity:1" fill="#ca2e2c" d="M 437.5,318.5 C 439.441,320.011 439.941,322.011 439,324.5C 436.586,325.856 434.419,325.522 432.5,323.5C 432.5,320.167 434.167,318.5 437.5,318.5 Z"/></g>
<g><path style="opacity:1" fill="#ebb20d" d="M 337.5,273.5 C 337.918,274.222 338.584,274.722 339.5,275C 323.044,274.635 313.377,282.468 310.5,298.5C 312.423,314.103 321.089,321.769 336.5,321.5C 337.833,323.5 339.167,325.5 340.5,327.5C 333.502,328.196 326.835,327.196 320.5,324.5C 320.657,323.127 320.49,321.793 320,320.5C 317.667,318.167 315.333,315.833 313,313.5C 312.617,314.056 312.117,314.389 311.5,314.5C 306.973,303.459 307.639,292.792 313.5,282.5C 315.525,280.804 317.525,279.137 319.5,277.5C 324.951,273.967 330.951,272.634 337.5,273.5 Z"/></g>
<g><path style="opacity:1" fill="#b59392" d="M 383.5,341.5 C 382.791,342.404 381.791,342.737 380.5,342.5C 380.5,343.833 380.5,345.167 380.5,346.5C 379.549,345.081 379.216,343.415 379.5,341.5C 380.833,341.5 382.167,341.5 383.5,341.5 Z"/></g>
<g><path style="opacity:1" fill="#7f120e" d="M 380.5,348.5 C 381.661,354.341 379.494,358.007 374,359.5C 372.289,359.561 370.956,358.894 370,357.5C 369.195,354.304 369.362,351.304 370.5,348.5C 371.766,351.624 373.766,352.124 376.5,350C 370.18,349.565 370.013,348.731 376,347.5C 376.195,345.793 376.195,344.126 376,342.5C 377.602,344.263 378.102,346.096 377.5,348C 378.448,348.483 379.448,348.649 380.5,348.5 Z"/></g>
</svg>
