<?xml version="1.0" encoding="UTF-8"?>
<!DOCTYPE svg PUBLIC "-//W3C//DTD SVG 1.1//EN" "http://www.w3.org/Graphics/SVG/1.1/DTD/svg11.dtd">
<svg xmlns="http://www.w3.org/2000/svg" version="1.1" width="500px" height="500px" style="shape-rendering:geometricPrecision; text-rendering:geometricPrecision; image-rendering:optimizeQuality; fill-rule:evenodd; clip-rule:evenodd" xmlns:xlink="http://www.w3.org/1999/xlink">
<g><path style="opacity:0.993" fill="#fecb00" d="M 225.5,-0.5 C 241.5,-0.5 257.5,-0.5 273.5,-0.5C 362.269,10.9489 428.436,55.6156 472,133.5C 477.625,144.077 482.125,155.077 485.5,166.5C 328.167,166.5 170.833,166.5 13.5,166.5C 43.991,84.513 101.324,31.3463 185.5,7C 198.832,3.72528 212.166,1.22528 225.5,-0.5 Z"/></g>
<g><path style="opacity:0.997" fill="#04247c" d="M 13.5,166.5 C 170.833,166.5 328.167,166.5 485.5,166.5C 492.586,185.267 497.253,204.6 499.5,224.5C 499.5,241.167 499.5,257.833 499.5,274.5C 497.139,294.62 492.473,314.287 485.5,333.5C 328.167,333.5 170.833,333.5 13.5,333.5C 6.39611,313.964 1.72945,293.964 -0.5,273.5C -0.5,257.5 -0.5,241.5 -0.5,225.5C 1.61802,205.246 6.28469,185.58 13.5,166.5 Z"/></g>
<g><path style="opacity:1" fill="#f2f3f8" d="M 219.5,181.5 C 222.184,185.02 224.518,188.853 226.5,193C 231.262,193.485 235.929,192.985 240.5,191.5C 238.231,195.346 235.231,199.179 231.5,203C 233.581,207.164 235.914,211.164 238.5,215C 233.867,213.782 229.367,211.948 225,209.5C 221.667,212.833 218.333,216.167 215,219.5C 215.175,214.785 215.508,210.118 216,205.5C 211.912,203.206 207.745,201.039 203.5,199C 208.017,197.414 212.684,196.58 217.5,196.5C 218.353,191.53 219.02,186.53 219.5,181.5 Z"/></g>
<g><path style="opacity:1" fill="#f1f3f8" d="M 278.5,181.5 C 280.322,186.205 281.322,191.205 281.5,196.5C 286.237,196.881 290.904,197.714 295.5,199C 292.123,201.3 288.456,203.133 284.5,204.5C 283.775,209.479 283.608,214.479 284,219.5C 280.915,215.907 277.415,212.907 273.5,210.5C 269.719,211.89 266.053,213.557 262.5,215.5C 262.929,211.268 264.596,207.268 267.5,203.5C 264.516,200.015 261.349,196.682 258,193.5C 257.333,192.833 257.333,192.167 258,191.5C 262.252,192.711 266.586,193.711 271,194.5C 274.126,190.538 276.626,186.204 278.5,181.5 Z"/></g>
<g><path style="opacity:1" fill="#f2f4f8" d="M 164.5,202.5 C 168.32,205.253 171.986,208.253 175.5,211.5C 179.7,208.733 184.034,206.566 188.5,205C 186.236,208.861 184.236,212.861 182.5,217C 184.967,220.634 187.967,223.801 191.5,226.5C 186.833,227.167 182.167,227.833 177.5,228.5C 175.756,232.246 173.923,235.912 172,239.5C 170.714,234.904 169.881,230.237 169.5,225.5C 164.377,225.709 159.377,225.042 154.5,223.5C 158.417,221.292 162.25,218.959 166,216.5C 165.838,211.831 165.338,207.165 164.5,202.5 Z"/></g>
<g><path style="opacity:1" fill="#f5f6fa" d="M 332.5,203.5 C 333.497,203.47 334.164,203.97 334.5,205C 333.285,209.114 332.785,213.281 333,217.5C 336.914,219.54 340.748,221.707 344.5,224C 339.857,224.83 335.19,225.497 330.5,226C 328.703,230.646 327.536,235.48 327,240.5C 324.614,236.396 322.781,232.062 321.5,227.5C 316.456,227.582 311.456,227.749 306.5,228C 309.9,224.6 313.233,221.267 316.5,218C 314.736,214.208 313.069,210.375 311.5,206.5C 311.833,206.167 312.167,205.833 312.5,205.5C 316.044,207.771 319.71,209.771 323.5,211.5C 327.113,209.555 330.113,206.889 332.5,203.5 Z"/></g>
<g><path style="opacity:1" fill="#f6f7fa" d="M 140.5,235.5 C 141.486,239.97 141.819,244.637 141.5,249.5C 157.465,253.245 157.132,255.912 140.5,257.5C 139.911,262.481 139.411,267.481 139,272.5C 136.5,268.667 134,264.833 131.5,261C 126.765,261.353 122.099,262.019 117.5,263C 120.568,259.603 123.235,255.936 125.5,252C 123.778,247.782 121.445,243.948 118.5,240.5C 118.833,240.167 119.167,239.833 119.5,239.5C 123.773,242.483 128.439,243.983 133.5,244C 135.668,241.002 138.001,238.169 140.5,235.5 Z"/></g>
<g><path style="opacity:1" fill="#f3f4f9" d="M 357.5,235.5 C 360.882,238.567 364.048,241.901 367,245.5C 370.76,243.704 374.593,242.038 378.5,240.5C 378.833,240.833 379.167,241.167 379.5,241.5C 377.229,245.044 375.229,248.71 373.5,252.5C 375.942,256.117 378.609,259.617 381.5,263C 377.619,263.158 373.785,262.658 370,261.5C 368.833,261.833 367.667,262.167 366.5,262.5C 364.582,266.004 362.416,269.337 360,272.5C 359.333,267.833 358.667,263.167 358,258.5C 353.476,257.577 348.976,256.41 344.5,255C 348.339,252.884 352.339,251.05 356.5,249.5C 357.493,244.88 357.827,240.214 357.5,235.5 Z"/></g>
<g><path style="opacity:1" fill="#f2f4f8" d="M 108.5,278.5 C 110.689,282.719 112.356,287.219 113.5,292C 118.167,292.333 122.833,292.667 127.5,293C 123.912,295.377 120.412,297.877 117,300.5C 117.18,304.566 118.014,308.566 119.5,312.5C 119.167,313.167 118.833,313.833 118.5,314.5C 115.09,311.712 111.59,309.045 108,306.5C 104.029,308.972 100.195,311.638 96.5,314.5C 97.0169,310.081 98.3503,305.581 100.5,301C 96.8333,298 93.1667,295 89.5,292C 94.1667,291.667 98.8333,291.333 103.5,291C 105.464,286.941 107.13,282.774 108.5,278.5 Z"/></g>
<g><path style="opacity:1" fill="#f1f3f8" d="M 389.5,277.5 C 391.935,281.799 393.602,286.466 394.5,291.5C 399.511,291.334 404.511,291.501 409.5,292C 405.912,294.377 402.412,296.877 399,299.5C 400,304.5 401,309.5 402,314.5C 398.581,311.249 394.747,308.582 390.5,306.5C 386.833,309.167 383.167,311.833 379.5,314.5C 379.654,310.201 380.654,305.867 382.5,301.5C 378.956,297.793 374.956,294.626 370.5,292C 375.533,291.829 380.533,291.329 385.5,290.5C 386.991,286.2 388.324,281.867 389.5,277.5 Z"/></g>
<g><path style="opacity:0.993" fill="#cf132a" d="M 13.5,333.5 C 170.833,333.5 328.167,333.5 485.5,333.5C 458.625,405.209 409.625,455.376 338.5,484C 317.652,491.713 296.319,496.88 274.5,499.5C 257.833,499.5 241.167,499.5 224.5,499.5C 136.144,487.759 70.3107,443.092 27,365.5C 21.6602,355.158 17.1602,344.491 13.5,333.5 Z"/></g>
</svg>
