<?xml version="1.0" encoding="UTF-8"?>
<!DOCTYPE svg PUBLIC "-//W3C//DTD SVG 1.1//EN" "http://www.w3.org/Graphics/SVG/1.1/DTD/svg11.dtd">
<svg xmlns="http://www.w3.org/2000/svg" version="1.1" width="500px" height="500px" style="shape-rendering:geometricPrecision; text-rendering:geometricPrecision; image-rendering:optimizeQuality; fill-rule:evenodd; clip-rule:evenodd" xmlns:xlink="http://www.w3.org/1999/xlink">
<g><path style="opacity:0.995" fill="#da251c" d="M 225.5,-0.5 C 241.5,-0.5 257.5,-0.5 273.5,-0.5C 362.269,10.9489 428.436,55.6156 472,133.5C 486.559,162.333 495.726,192.666 499.5,224.5C 499.5,241.167 499.5,257.833 499.5,274.5C 487.764,361.841 443.764,427.341 367.5,471C 338.093,486.083 307.093,495.583 274.5,499.5C 257.833,499.5 241.167,499.5 224.5,499.5C 132.596,487.072 65.4294,439.739 23,357.5C 10.7506,330.604 2.91724,302.604 -0.5,273.5C -0.5,257.5 -0.5,241.5 -0.5,225.5C 11.4543,135.075 57.4543,68.242 137.5,25C 165.514,11.5012 194.847,3.00119 225.5,-0.5 Z"/></g>
<g><path style="opacity:1" fill="#fefd00" d="M 260.5,207.5 C 287.167,208.167 313.833,208.833 340.5,209.5C 319.544,224.616 298.711,239.949 278,255.5C 284.895,281.024 292.728,306.357 301.5,331.5C 301.167,331.833 300.833,332.167 300.5,332.5C 278.734,317.2 257.234,301.534 236,285.5C 214.026,301.307 192.193,317.307 170.5,333.5C 177.908,308.094 185.908,282.594 194.5,257C 194.241,255.739 193.574,254.739 192.5,254C 171.22,239.053 150.22,223.72 129.5,208C 156.831,207.5 184.165,207.333 211.5,207.5C 218.77,181.858 226.936,156.525 236,131.5C 244.479,156.758 252.646,182.091 260.5,207.5 Z"/></g>
<g><path style="opacity:1" fill="#f3ba08" d="M 260.5,207.5 C 287.835,207.333 315.169,207.5 342.5,208C 341.956,208.717 341.289,209.217 340.5,209.5C 313.833,208.833 287.167,208.167 260.5,207.5 Z"/></g>
</svg>
