<?xml version="1.0" encoding="UTF-8"?>
<!DOCTYPE svg PUBLIC "-//W3C//DTD SVG 1.1//EN" "http://www.w3.org/Graphics/SVG/1.1/DTD/svg11.dtd">
<svg xmlns="http://www.w3.org/2000/svg" version="1.1" width="500px" height="500px" style="shape-rendering:geometricPrecision; text-rendering:geometricPrecision; image-rendering:optimizeQuality; fill-rule:evenodd; clip-rule:evenodd" xmlns:xlink="http://www.w3.org/1999/xlink">
<g><path style="opacity:0.987" fill="#339207" d="M 225.5,-0.5 C 241.5,-0.5 257.5,-0.5 273.5,-0.5C 331.992,6.25065 382.325,29.9173 424.5,70.5C 321.335,71.4995 218.001,71.8328 114.5,71.5C 108.384,67.5995 102.384,63.4328 96.5,59C 94.8082,57.6927 93.4749,56.1927 92.5,54.5C 131.342,23.2564 175.675,4.92302 225.5,-0.5 Z"/></g>
<g><path style="opacity:0.998" fill="#040201" d="M 92.5,54.5 C 93.4749,56.1927 94.8082,57.6927 96.5,59C 102.384,63.4328 108.384,67.5995 114.5,71.5C 145.436,95.6411 176.77,119.308 208.5,142.5C 239.65,166.137 270.983,189.637 302.5,213C 367.499,213.5 432.499,213.667 497.5,213.5C 498.026,217.312 498.693,220.979 499.5,224.5C 499.5,241.167 499.5,257.833 499.5,274.5C 498.693,278.021 498.026,281.688 497.5,285.5C 432.499,285.333 367.499,285.5 302.5,286C 271.073,309.035 240.073,332.535 209.5,356.5C 177.134,380.016 145.134,404.016 113.5,428.5C 105.926,433.073 98.9261,438.406 92.5,444.5C 88.8797,442.547 85.8797,439.881 83.5,436.5C 166.788,374.544 249.788,312.211 332.5,249.5C 249.649,186.914 166.649,124.581 83.5,62.5C 85.8949,59.1385 88.8949,56.4719 92.5,54.5 Z"/></g>
<g><path style="opacity:0.994" fill="#fefdfd" d="M 83.5,62.5 C 166.649,124.581 249.649,186.914 332.5,249.5C 249.788,312.211 166.788,374.544 83.5,436.5C 47.3855,405.317 22.5522,366.65 9,320.5C 4.58894,304.943 1.42227,289.277 -0.5,273.5C -0.5,257.5 -0.5,241.5 -0.5,225.5C 5.86259,169.784 27.6959,121.117 65,79.5C 70.7368,73.2589 76.9035,67.5922 83.5,62.5 Z"/></g>
<g><path style="opacity:0.997" fill="#fed100" d="M 424.5,70.5 C 446.061,91.4026 463.395,115.403 476.5,142.5C 387.167,142.5 297.833,142.5 208.5,142.5C 176.77,119.308 145.436,95.6411 114.5,71.5C 218.001,71.8328 321.335,71.4995 424.5,70.5 Z"/></g>
<g><path style="opacity:1" fill="#dd2211" d="M 207.5,244.5 C 182.992,226.165 158.326,207.998 133.5,190C 130.628,187.463 128.128,184.63 126,181.5C 122.22,174.937 118.72,168.271 115.5,161.5C 121.295,148.577 127.628,135.91 134.5,123.5C 147.204,147.921 159.537,172.588 171.5,197.5C 199.126,201.923 226.792,206.256 254.5,210.5C 238.792,221.89 223.125,233.223 207.5,244.5 Z"/></g>
<g><path style="opacity:0.997" fill="#dd200f" d="M 208.5,142.5 C 297.833,142.5 387.167,142.5 476.5,142.5C 486.932,165.131 493.932,188.797 497.5,213.5C 432.499,213.667 367.499,213.5 302.5,213C 270.983,189.637 239.65,166.137 208.5,142.5 Z"/></g>
<g><path style="opacity:1" fill="#fdc418" d="M 115.5,161.5 C 118.72,168.271 122.22,174.937 126,181.5C 128.128,184.63 130.628,187.463 133.5,190C 158.326,207.998 182.992,226.165 207.5,244.5C 211.792,247.457 215.792,250.79 219.5,254.5C 190.082,252.93 161.082,248.097 132.5,240C 135.089,241.197 137.756,242.197 140.5,243C 141.191,244.067 141.691,245.234 142,246.5C 142.519,245.484 143.353,244.818 144.5,244.5C 146.453,245.156 148.453,245.489 150.5,245.5C 147.608,253.024 148.442,253.357 153,246.5C 155.041,247.423 157.208,247.756 159.5,247.5C 159.5,248.5 159.5,249.5 159.5,250.5C 160.156,249.722 160.989,249.056 162,248.5C 178.336,252.024 194.836,254.524 211.5,256C 212.756,256.417 213.423,257.25 213.5,258.5C 211.788,268.013 209.455,277.346 206.5,286.5C 171.027,281.419 135.361,278.752 99.5,278.5C 100.747,276.503 101.581,274.503 102,272.5C 99.7621,274.309 98.5954,276.642 98.5,279.5C 93.8333,279.5 89.1667,279.5 84.5,279.5C 84.3359,276.813 84.5026,274.146 85,271.5C 86.2893,269.945 86.956,268.279 87,266.5C 83.2673,270.191 82.1006,274.524 83.5,279.5C 80.1631,280.666 76.8298,280.666 73.5,279.5C 72.42,276.257 72.2534,272.924 73,269.5C 74.5692,264.7 76.4026,260.034 78.5,255.5C 88.8203,238.231 92.4869,219.564 89.5,199.5C 88.8531,190.237 86.3531,181.571 82,173.5C 76.5963,169.344 70.4296,167.344 63.5,167.5C 65.5,163.5 68.5,160.5 72.5,158.5C 78.9058,142.554 89.5725,139.054 104.5,148C 108.409,152.399 112.076,156.899 115.5,161.5 Z"/></g>
<g><path style="opacity:1" fill="#59460b" d="M 86.5,153.5 C 88.4888,152.113 90.3221,152.447 92,154.5C 92.692,157.771 91.3587,159.771 88,160.5C 84.1375,158.731 83.6375,156.397 86.5,153.5 Z"/></g>
<g><path style="opacity:1" fill="#f7c517" d="M 86.5,153.5 C 89.9103,153.384 91.2436,155.05 90.5,158.5C 86.0706,159.083 84.7372,157.416 86.5,153.5 Z"/></g>
<g><path style="opacity:1" fill="#dd2311" d="M 89.5,199.5 C 92.4869,219.564 88.8203,238.231 78.5,255.5C 56.8745,241.011 35.5412,226.011 14.5,210.5C 39.4321,206.367 64.4321,202.7 89.5,199.5 Z"/></g>
<g><path style="opacity:1" fill="#d3a518" d="M 219.5,254.5 C 220.289,254.783 220.956,255.283 221.5,256C 218.496,256.117 215.829,256.951 213.5,258.5C 213.423,257.25 212.756,256.417 211.5,256C 194.836,254.524 178.336,252.024 162,248.5C 160.989,249.056 160.156,249.722 159.5,250.5C 159.5,249.5 159.5,248.5 159.5,247.5C 157.208,247.756 155.041,247.423 153,246.5C 148.442,253.357 147.608,253.024 150.5,245.5C 148.453,245.489 146.453,245.156 144.5,244.5C 143.353,244.818 142.519,245.484 142,246.5C 141.691,245.234 141.191,244.067 140.5,243C 137.756,242.197 135.089,241.197 132.5,240C 161.082,248.097 190.082,252.93 219.5,254.5 Z"/></g>
<g><path style="opacity:1" fill="#dcab14" d="M 159.5,250.5 C 157.565,254.657 154.231,257.157 149.5,258C 142.011,258.501 134.678,258.501 127.5,258C 129.167,256.833 130.833,255.667 132.5,254.5C 133.696,254.846 133.696,255.346 132.5,256C 134,256.167 135.5,256.333 137,256.5C 141.759,256.105 146.592,255.938 151.5,256C 154.597,254.727 157.264,252.893 159.5,250.5 Z"/></g>
<g><path style="opacity:1" fill="#d6a614" d="M 120.5,260.5 C 122.873,262.143 126.206,262.976 130.5,263C 152.313,263.534 173.98,265.534 195.5,269C 173.899,267.046 152.232,265.546 130.5,264.5C 125.167,264.667 119.833,264.833 114.5,265C 112.833,265.833 111.167,266.667 109.5,267.5C 108.304,267.154 108.304,266.654 109.5,266C 113.259,264.121 116.925,262.287 120.5,260.5 Z"/></g>
<g><path style="opacity:1" fill="#3c2f08" d="M 140.5,268.5 C 136.167,268.167 134.167,270.167 134.5,274.5C 132.568,270.726 133.735,268.393 138,267.5C 139.07,267.528 139.903,267.861 140.5,268.5 Z"/></g>
<g><path style="opacity:1" fill="#4d3d0c" d="M 153.5,270.5 C 155.065,268.281 157.065,267.948 159.5,269.5C 162.653,273.888 161.653,276.888 156.5,278.5C 153.5,278.167 151.833,276.5 151.5,273.5C 151.453,271.962 152.12,270.962 153.5,270.5 Z"/></g>
<g><path style="opacity:1" fill="#f5c217" d="M 140.5,268.5 C 142.833,274.833 140.833,276.833 134.5,274.5C 134.167,270.167 136.167,268.167 140.5,268.5 Z"/></g>
<g><path style="opacity:1" fill="#eebe17" d="M 153.5,270.5 C 158.318,268.992 160.318,270.658 159.5,275.5C 156.411,278.143 154.078,277.476 152.5,273.5C 153.127,272.583 153.461,271.583 153.5,270.5 Z"/></g>
<g><path style="opacity:1" fill="#604b0c" d="M 140.5,268.5 C 144.807,272.295 144.14,275.295 138.5,277.5C 136.347,277.439 135.014,276.439 134.5,274.5C 140.833,276.833 142.833,274.833 140.5,268.5 Z"/></g>
<g><path style="opacity:1" fill="#d2a414" d="M 206.5,286.5 C 206.737,287.791 206.404,288.791 205.5,289.5C 203.974,287.87 201.974,287.037 199.5,287C 197.231,286.242 195.064,286.409 193,287.5C 192.072,285.665 190.906,285.332 189.5,286.5C 184.005,284.537 178.338,283.704 172.5,284C 174.638,285.422 175.805,287.255 176,289.5C 172.104,284.718 166.937,282.385 160.5,282.5C 157.833,282.667 155.167,282.833 152.5,283C 153.451,283.718 153.617,284.551 153,285.5C 151.981,284.313 150.814,283.313 149.5,282.5C 147.833,283.833 146.167,285.167 144.5,286.5C 144.167,286.333 143.833,286.167 143.5,286C 148.424,281.811 147.09,280.311 139.5,281.5C 136.833,281.833 134.167,282.167 131.5,282.5C 132.506,283.396 132.506,284.062 131.5,284.5C 130.719,283.263 129.719,282.263 128.5,281.5C 126.408,283.605 124.075,285.272 121.5,286.5C 120.48,288.352 118.98,289.685 117,290.5C 113.714,288.218 110.714,285.551 108,282.5C 107.503,285.146 107.336,287.813 107.5,290.5C 107.167,290.5 106.833,290.5 106.5,290.5C 105.949,287.193 105.616,283.86 105.5,280.5C 98.3174,280.457 91.1508,280.79 84,281.5C 81.3897,281.533 79.223,282.2 77.5,283.5C 76.1667,282.167 74.8333,280.833 73.5,279.5C 76.8298,280.666 80.1631,280.666 83.5,279.5C 82.1006,274.524 83.2673,270.191 87,266.5C 86.956,268.279 86.2893,269.945 85,271.5C 84.5026,274.146 84.3359,276.813 84.5,279.5C 89.1667,279.5 93.8333,279.5 98.5,279.5C 98.5954,276.642 99.7621,274.309 102,272.5C 101.581,274.503 100.747,276.503 99.5,278.5C 135.361,278.752 171.027,281.419 206.5,286.5 Z"/></g>
<g><path style="opacity:1" fill="#fdc518" d="M 106.5,290.5 C 109.118,293.785 112.118,296.785 115.5,299.5C 113.105,300.814 110.605,300.814 108,299.5C 108.091,307.231 108.925,314.898 110.5,322.5C 102.193,323.498 93.8599,323.831 85.5,323.5C 83.74,314.357 81.74,305.357 79.5,296.5C 78.5755,292.21 77.9088,287.876 77.5,283.5C 79.223,282.2 81.3897,281.533 84,281.5C 91.1508,280.79 98.3174,280.457 105.5,280.5C 105.616,283.86 105.949,287.193 106.5,290.5 Z"/></g>
<g><path style="opacity:1" fill="#fdc618" d="M 121.5,286.5 C 119.629,286.859 118.129,287.859 117,289.5C 114.167,286.667 111.333,283.833 108.5,281C 114.5,280.333 120.5,280.333 126.5,281C 124.627,282.704 122.96,284.537 121.5,286.5 Z"/></g>
<g><path style="opacity:1" fill="#f9c317" d="M 205.5,289.5 C 204.671,293.486 203.837,297.486 203,301.5C 202.764,303.119 201.931,304.119 200.5,304.5C 198.1,301.097 195.1,298.43 191.5,296.5C 190.001,294.198 188.668,294.531 187.5,297.5C 185.596,297.738 184.262,298.738 183.5,300.5C 181.956,300.703 180.622,301.37 179.5,302.5C 177.481,300.81 175.481,299.144 173.5,297.5C 172.969,295.456 171.802,293.789 170,292.5C 169.283,293.044 168.783,293.711 168.5,294.5C 165.911,295.419 163.911,297.086 162.5,299.5C 160.983,299.511 159.816,300.177 159,301.5C 155.651,297.984 152.151,294.651 148.5,291.5C 145.479,293.854 142.812,296.521 140.5,299.5C 139.504,299.414 138.671,299.748 138,300.5C 134.667,297.167 131.333,293.833 128,290.5C 124.667,293.833 121.333,297.167 118,300.5C 117.617,299.944 117.117,299.611 116.5,299.5C 113.833,296.167 110.833,293.167 107.5,290.5C 107.336,287.813 107.503,285.146 108,282.5C 110.714,285.551 113.714,288.218 117,290.5C 118.98,289.685 120.48,288.352 121.5,286.5C 124.075,285.272 126.408,283.605 128.5,281.5C 129.719,282.263 130.719,283.263 131.5,284.5C 132.506,284.062 132.506,283.396 131.5,282.5C 134.167,282.167 136.833,281.833 139.5,281.5C 147.09,280.311 148.424,281.811 143.5,286C 143.833,286.167 144.167,286.333 144.5,286.5C 146.167,285.167 147.833,283.833 149.5,282.5C 150.814,283.313 151.981,284.313 153,285.5C 153.617,284.551 153.451,283.718 152.5,283C 155.167,282.833 157.833,282.667 160.5,282.5C 166.937,282.385 172.104,284.718 176,289.5C 175.805,287.255 174.638,285.422 172.5,284C 178.338,283.704 184.005,284.537 189.5,286.5C 190.906,285.332 192.072,285.665 193,287.5C 195.064,286.409 197.231,286.242 199.5,287C 201.974,287.037 203.974,287.87 205.5,289.5 Z"/></g>
<g><path style="opacity:0.997" fill="#dd1f10" d="M 497.5,285.5 C 493.926,310.217 486.926,333.884 476.5,356.5C 387.5,356.5 298.5,356.5 209.5,356.5C 240.073,332.535 271.073,309.035 302.5,286C 367.499,285.5 432.499,285.333 497.5,285.5 Z"/></g>
<g><path style="opacity:1" fill="#4e3d0b" d="M 106.5,290.5 C 106.833,290.5 107.167,290.5 107.5,290.5C 110.833,293.167 113.833,296.167 116.5,299.5C 116.167,299.5 115.833,299.5 115.5,299.5C 112.118,296.785 109.118,293.785 106.5,290.5 Z"/></g>
<g><path style="opacity:1" fill="#3b2d09" d="M 173.5,297.5 C 172.078,296.075 170.411,295.075 168.5,294.5C 168.783,293.711 169.283,293.044 170,292.5C 171.802,293.789 172.969,295.456 173.5,297.5 Z"/></g>
<g><path style="opacity:1" fill="#443509" d="M 162.5,299.5 C 161.594,301.914 159.928,302.747 157.5,302C 154.651,298.984 151.651,296.15 148.5,293.5C 146.079,295.934 143.412,297.934 140.5,299.5C 142.812,296.521 145.479,293.854 148.5,291.5C 152.151,294.651 155.651,297.984 159,301.5C 159.816,300.177 160.983,299.511 162.5,299.5 Z"/></g>
<g><path style="opacity:1" fill="#3f310b" d="M 191.5,296.5 C 190.167,296.833 188.833,297.167 187.5,297.5C 188.668,294.531 190.001,294.198 191.5,296.5 Z"/></g>
<g><path style="opacity:1" fill="#43340a" d="M 140.5,299.5 C 139.686,301.273 138.352,301.773 136.5,301C 133.667,298.167 130.833,295.333 128,292.5C 124.815,296.541 120.981,299.541 116.5,301.5C 116.5,300.833 116.5,300.167 116.5,299.5C 117.117,299.611 117.617,299.944 118,300.5C 121.333,297.167 124.667,293.833 128,290.5C 131.333,293.833 134.667,297.167 138,300.5C 138.671,299.748 139.504,299.414 140.5,299.5 Z"/></g>
<g><path style="opacity:1" fill="#48380c" d="M 191.5,296.5 C 195.1,298.43 198.1,301.097 200.5,304.5C 196.9,302.57 193.9,299.903 191.5,296.5 Z"/></g>
<g><path style="opacity:1" fill="#fcc417" d="M 140.5,299.5 C 143.412,297.934 146.079,295.934 148.5,293.5C 151.651,296.15 154.651,298.984 157.5,302C 159.928,302.747 161.594,301.914 162.5,299.5C 165.089,298.581 167.089,296.914 168.5,294.5C 170.411,295.075 172.078,296.075 173.5,297.5C 174.734,300.407 176.734,302.741 179.5,304.5C 181.188,303.479 182.521,302.145 183.5,300.5C 185.404,300.262 186.738,299.262 187.5,297.5C 188.833,297.167 190.167,296.833 191.5,296.5C 193.9,299.903 196.9,302.57 200.5,304.5C 200.687,310.249 199.687,315.916 197.5,321.5C 169.059,323.479 140.392,324.146 111.5,323.5C 110.887,316.438 109.887,309.438 108.5,302.5C 111.086,301.52 113.753,301.187 116.5,301.5C 120.981,299.541 124.815,296.541 128,292.5C 130.833,295.333 133.667,298.167 136.5,301C 138.352,301.773 139.686,301.273 140.5,299.5 Z"/></g>
<g><path style="opacity:1" fill="#46360b" d="M 173.5,297.5 C 175.481,299.144 177.481,300.81 179.5,302.5C 180.622,301.37 181.956,300.703 183.5,300.5C 182.521,302.145 181.188,303.479 179.5,304.5C 176.734,302.741 174.734,300.407 173.5,297.5 Z"/></g>
<g><path style="opacity:1" fill="#41330a" d="M 187.5,297.5 C 186.738,299.262 185.404,300.262 183.5,300.5C 184.262,298.738 185.596,297.738 187.5,297.5 Z"/></g>
<g><path style="opacity:1" fill="#5b470f" d="M 168.5,294.5 C 167.089,296.914 165.089,298.581 162.5,299.5C 163.911,297.086 165.911,295.419 168.5,294.5 Z"/></g>
<g><path style="opacity:1" fill="#dc2b16" d="M 79.5,296.5 C 81.74,305.357 83.74,314.357 85.5,323.5C 87.6074,324.468 89.9407,324.802 92.5,324.5C 86.0062,328.804 79.3396,332.97 72.5,337C 71.3999,337.432 70.7332,336.932 70.5,335.5C 73.059,322.273 76.059,309.273 79.5,296.5 Z"/></g>
<g><path style="opacity:1" fill="#dcab17" d="M 115.5,299.5 C 115.833,299.5 116.167,299.5 116.5,299.5C 116.5,300.167 116.5,300.833 116.5,301.5C 113.753,301.187 111.086,301.52 108.5,302.5C 109.887,309.438 110.887,316.438 111.5,323.5C 140.392,324.146 169.059,323.479 197.5,321.5C 197.737,322.791 197.404,323.791 196.5,324.5C 189.833,324.5 183.167,324.5 176.5,324.5C 148.5,324.5 120.5,324.5 92.5,324.5C 89.9407,324.802 87.6074,324.468 85.5,323.5C 93.8599,323.831 102.193,323.498 110.5,322.5C 108.925,314.898 108.091,307.231 108,299.5C 110.605,300.814 113.105,300.814 115.5,299.5 Z"/></g>
<g><path style="opacity:1" fill="#dd2715" d="M 176.5,324.5 C 183.167,324.5 189.833,324.5 196.5,324.5C 196.411,328.3 197.078,331.966 198.5,335.5C 198.167,336.167 197.833,336.833 197.5,337.5C 190.268,333.392 183.268,329.059 176.5,324.5 Z"/></g>
<g><path style="opacity:0.997" fill="#fdd100" d="M 209.5,356.5 C 298.5,356.5 387.5,356.5 476.5,356.5C 463.395,383.597 446.061,407.597 424.5,428.5C 320.833,428.5 217.167,428.5 113.5,428.5C 145.134,404.016 177.134,380.016 209.5,356.5 Z"/></g>
<g><path style="opacity:0.987" fill="#309107" d="M 113.5,428.5 C 217.167,428.5 320.833,428.5 424.5,428.5C 382.667,469.02 332.667,492.687 274.5,499.5C 257.833,499.5 241.167,499.5 224.5,499.5C 175.088,493.784 131.088,475.45 92.5,444.5C 98.9261,438.406 105.926,433.073 113.5,428.5 Z"/></g>
</svg>
