<svg xmlns="http://www.w3.org/2000/svg" width="500" height="500" viewBox="0 0 500 500"><g fill="none"><path d="M0 0h500v500h-500z"/><path fill="#0B162A" d="M164.744 123.547c-50.183 20.767-73.005 52.27-83.287 75.029-6.612 14.79-13.102 25.886-20.425 34.943-7.509 7.818-21.236 16.441-29.26 19.481l-1.499.568-.272 5.467 2.073.411c10.392 2.067 23.337 9.88 27.535 15.23 5.396 5.426 9.153 9.179 18.619 25.967.133.203 4.846 7.667 4.846 7.667 3.068 5.166 6.241 10.511 14.74 19.921 6.536 9.185 37.84 38.076 71.905 50.504 23.934 11.866 55.365 17.732 95.845 17.842 59.452.342 104.454-12.665 145.906-42.147 17.189-13.319 22.747-18.682 37.238-35.899 9.709-11.478 20.263-31.718 20.715-54.077l.058-2.502-84.109-.093-.463 1.865c-6.837 27.455-34.488 44.579-50.363 52.345-41.424 17.616-93.593 17.831-132.782.486-36.636-18.363-56.112-43.201-54.739-69.892 1.395-27.206 24.553-53.214 58.989-66.244 66.608-24.415 130.634-3.423 154.816 19.29l.706.66 98.004-.093-1.326-3.347c-20.159-51.106-93.06-79.916-125.209-85.858-71.969-16.481-134.125-4.366-168.259 12.474"/><path fill="#FFFFFE" d="M76.021 226.118c5.118-8.09 7.15-12.653 9.946-18.977l2.999-6.637c9.026-19.209 24.212-36.814 43.902-50.903 19.244-12.897 40.561-23.228 58.427-28.318 77.643-22.562 157.028-3.197 191.452 15.323 13.605 6.243 50.421 28.104 65.311 56.497h-82.934c-57.75-44.939-135.653-33.513-174.072-14.756-15.522 8.623-24.542 15.578-35.837 27.623-17.536 21.23-26.967 57.395 3.862 89.808 13.935 13.557 27.871 22.741 45.239 29.864 40.167 16.649 96.534 14.796 137.06-4.517 25.891-13.511 43.079-31.434 50.033-51.905h69.96c-2.478 17.773-7.654 36.154-34.181 61.843l-2.953 2.647c-12.847 11.599-30.453 27.496-64.842 40.051-58.659 22.765-146.387 20.135-195.609-5.837-.029-.012-3.092-1.558-3.092-1.558-11.058-5.536-26.209-13.111-45.297-30.866-13.322-12.231-22.602-24.317-34.274-44.597-12.725-23.292-28.658-31.787-37.226-35.395 7.468-3.764 22.064-12.723 32.126-29.39"/><path fill="#C83803" d="M79.054 239.003c8.314-9.202 14.879-32.847 28.021-50.805 18.659-26.309 43.357-40.086 61.733-48.876 42.026-20.587 102.451-26.454 161.561-12.265 21.45 5.085 42.906 12.706 58.225 22.689 15.331 9.109 33.278 22.249 43.352 35.036h-63.14c-18.735-14.976-39.316-22.249-57.704-26.193-20.576-5.252-52.979-8.055-91.508 1.147-22.77 5.687-38.529 13.568-53.854 24.519-30.204 21.462-63.482 77.866-4.377 126.922 19.267 16.284 35.461 21.548 53.414 27.768 33.278 9.631 74.875 7.795 98.954 1.222 36.341-9.636 49.911-22.336 61.733-32.407 10.948-10.511 20.142-23.216 22.683-29.783l51.839-.087c-3.595 19.359-17.606 35.123-31.176 48.263-15.545 14.657-27.147 22.336-50.091 33.814-53.674 25.747-132.486 24.873-181.083 7.268-24.958-9.115-31.964-13.227-50.791-26.28-15.325-12.347-25.398-20.495-39.843-42.831-6.565-10.951-9.634-17.078-17.073-27.148-5.257-5.698-8.759-10.957-17.953-15.335 8.429-5.907 13.021-10.291 17.079-16.638"/></g></svg>