<svg width="500" height="500" viewBox="0 0 500 500" fill="none" xmlns="http://www.w3.org/2000/svg">
<g id="Clubs / CLE / Mark / Primary">
<g id="Clubs / CLE / Mark / Primary-Raw">
<g id="CLE_Keyline_Primary 1" clip-path="url(#clip0)">
<path id="Vector" d="M455 368.078V367.734C453.155 342.789 447.579 317.558 437.944 290.588L437.829 290.317L437.722 290.047L436.599 287.365L436.73 287.661C432.712 277.23 424.332 272.728 411.991 274.262L406.439 274.869L404.176 275.065C394.656 275.943 380.986 277.165 368.916 276.041L353.943 240.601C356.967 238.778 359.5 236.245 361.323 233.221C362.593 230.883 363.494 228.363 363.996 225.751C368.575 225.188 372.82 223.065 376.017 219.74C380.568 214.771 383.151 205.8 376.714 195.632L377.042 196.165L356.985 159.962L345.12 165.005C297.56 88.3351 207.064 76.5927 140.275 105.407C79.6938 131.557 21.0146 200.527 54.9954 308.964C58.6441 320.485 63.2154 331.692 68.6648 342.478C68.3205 345.871 68.5394 349.299 69.3126 352.621V352.801L69.37 352.982C71.1084 359.542 72.691 363.871 76.75 372.9C76.563 379.041 78.8223 385.004 83.0312 389.48C89.706 396.663 100.3 399.476 112.1 397.196L111.534 397.278C127.114 395.089 137.282 390.513 142.596 387.438C165.982 403.838 196.552 411.12 223.694 406.61C241.381 403.674 255.674 396.024 265.514 384.388C270.741 384.702 275.985 384.548 281.184 383.929C288.985 383.437 296.653 381.67 303.882 378.697C313.91 390.398 327.473 398.787 343.75 403.092C362.75 408.102 384.299 407.766 404.799 402.272C408.466 402.533 412.139 401.841 415.459 400.263C436.992 395.343 441.798 393.285 444.979 390.562C445.026 390.531 445.067 390.492 445.102 390.448C452.777 385.216 455.278 375.36 455 368.078ZM400.986 389.48C382.807 394.154 363.324 394.4 346.924 390.095C332.024 386.159 314.419 377.533 304.636 355.876C304.034 354.761 303.524 353.598 303.111 352.4C303.111 352.4 308.105 352.498 311.385 352.219C326.563 384.732 365.677 390.759 399.199 382.207C399.199 382.207 402.265 381.682 403.126 380.755C403.823 379.115 403.75 375.015 403.75 375.015C403.709 374.072 402.93 354.056 399.24 340.739C399.094 339.789 398.704 338.894 398.108 338.14C397.557 337.907 396.973 337.757 396.378 337.697C394.984 337.701 393.594 337.844 392.229 338.123C371.556 343.043 339.576 347.143 314.329 349.685C314.279 349.685 312.344 349.981 308.933 350.128L306.202 350.202C299.461 350.224 292.729 349.675 286.08 348.562C286.08 348.562 191.911 333.244 192.304 333.228L197.339 326.332L288.007 341.223C301.832 343.298 308.252 342.305 308.425 342.264C332.852 340.903 378.018 334.212 388.94 331.301C388.94 331.301 394.844 329.899 395.591 329.144C396.074 328.661 394.853 324.224 394.853 324.224C394.803 324.077 390.384 309.604 388.17 304.028V304.143C388.112 303.913 387.153 300.822 386.136 300.354H385.398C385.398 300.354 384.094 300.6 382.503 300.961C361.183 304.831 322.332 310.268 299.478 311.621C301.455 311.498 290.229 312.023 281.504 311.416C269.089 310.719 255.264 307.636 241.595 292.753C241.447 292.605 226.277 278.149 220.168 271.433C219.517 270.545 219.244 269.435 219.41 268.347C219.576 267.259 220.167 266.281 221.054 265.627C222.185 264.725 224.424 264.315 225.678 265.783C228.36 269.366 243.718 285.217 251.271 292.302C259.684 298.862 265.719 302.281 277.453 303.61C282.18 304.084 286.93 304.303 291.68 304.266C307.137 304.659 363.479 297.771 380.043 294.499C381.189 294.365 382.316 294.107 383.405 293.729V293.409L383.504 292.712C383.979 292.129 384.598 291.68 385.3 291.408C386.148 291.009 387.092 290.86 388.022 290.979C388.951 291.098 389.828 291.48 390.548 292.08C402.364 313.86 414.032 354.31 411.335 384.863C411.331 385.586 411.14 386.295 410.781 386.921C410.421 387.548 409.906 388.07 409.285 388.439C408.416 388.788 407.483 388.952 406.547 388.921C405.611 388.89 404.692 388.664 403.848 388.258C403.848 388.258 403.93 388.48 400.986 389.48ZM375.41 344.044C376.96 343.757 383.323 342.346 383.323 342.346C390.056 352.465 400.871 359.763 400.871 359.763C401.15 362.305 401.38 368.783 401.38 368.783C384.398 360.452 375.41 344.027 375.41 344.027V344.044ZM315.673 356.631C315.091 355.68 314.525 354.696 314.033 353.687L313.213 352.096C314.525 351.949 315.263 351.826 315.263 351.826L319.503 351.383C318.362 353.222 317.082 354.971 315.673 356.614V356.631ZM186.605 333.482C185.719 333.429 184.86 333.156 184.105 332.69C183.349 332.224 182.721 331.577 182.276 330.809C182.072 330.399 181.991 329.939 182.042 329.484C182.093 329.028 182.274 328.598 182.563 328.242L194.354 310.202C195.101 311.621 201.021 315.18 201.021 315.18C198.561 318.853 189.672 332.047 189.656 332.055C189.327 332.549 188.868 332.942 188.33 333.191C187.791 333.44 187.195 333.535 186.605 333.466V333.482ZM218.118 272.728C219.876 275.008 221.829 277.128 223.956 279.067L214.936 293.392C213.723 294.36 211.164 293.392 209.574 291.834C209.205 291.482 207.458 289.678 208.508 288.415L208.565 288.349L208.606 288.267C208.721 288.03 210.681 284.774 218.118 272.712V272.728ZM232.583 305.528C229.344 303.355 216.716 294.942 216.716 294.942L218.052 293.647C223.792 297.32 231.238 302.232 234.452 304.692C240.25 309.087 237.117 314.384 237.117 314.384C237.7 311.195 236.281 308.021 232.583 305.52V305.528ZM215.035 295.926L231.566 306.996C234.026 308.776 236.486 311.826 235.035 315.959C234.821 312.088 230.024 309.038 230.024 309.038C230.024 309.038 212.28 298.567 206.81 295.18C203.694 293.22 204.014 290.514 205.646 289.096C205.408 293.335 211.943 296.763 215.035 295.918V295.926ZM205.826 296.631C211.32 300.084 222.882 307.078 226.22 308.931C229.795 310.924 230.516 311.875 230.516 311.875C234.666 315.819 233.87 319.739 231.853 322.478C229.549 325.553 225.145 327.521 221.472 325.085L216.486 322.002L214.674 320.92L199.16 311.383H199.11C199.11 311.383 196.527 310.186 195.88 307.808C195.445 306.168 195.953 304.364 197.388 302.347C200.668 297.738 202.259 295.098 202.956 293.876C203.661 295.36 205.826 296.623 205.826 296.623V296.631ZM203.046 316.221C210.336 320.575 220.685 327.004 220.685 327.004C227.81 331.539 233.304 325.02 235.043 322.707C236.388 320.903 240.537 315.327 240.397 310.547C240.25 305.906 236.691 303.413 233.509 301.322L218.7 291.597L225.637 280.363C232.296 287.013 239.946 294.303 240.012 294.376C244.023 298.793 248.672 302.585 253.804 305.627C254.895 306.266 255.986 306.84 257.084 307.382C260.036 316.402 263.251 324.364 264.645 330.243C263.521 323.396 261.48 316.065 259.479 308.489C267.367 311.892 275.059 312.941 282.144 313.335L283.136 313.392L283.603 314.425C280.807 321.879 275.592 329.874 268.843 334.745C268.843 335.13 268.892 335.524 268.909 335.918L262.775 334.942L258.011 334.179L255.707 333.818L197.438 324.536L203.046 316.221ZM377.747 331.194C376.485 331.752 370.31 332.646 370.31 332.646C368.834 329.841 359.494 306.972 359.494 306.972C360.609 306.832 366.874 305.807 366.874 305.807C370.044 314.455 373.674 322.926 377.747 331.186V331.194ZM379.584 330.629L376.772 324.159C386.177 324.315 392.967 324.216 392.967 324.216C394.09 328.382 390.203 328.529 390.203 328.529L379.584 330.629ZM326.842 315.467L326.891 316.631L363.693 322.945C364.39 324.962 367.022 330.924 367.022 330.924L326.965 324.11C326.965 324.511 326.965 324.93 326.965 325.356C326.743 329.817 326.053 334.242 324.907 338.558C323.135 338.747 321.356 338.919 319.552 339.091C322.16 330.44 322.479 320.772 321.34 311.473C323.021 311.293 324.726 311.113 326.448 310.916C326.596 312.441 326.735 313.95 326.842 315.459V315.467ZM305.948 340.28C303.141 340.692 300.293 340.755 297.469 340.469C294.944 335.696 292.156 329.194 285.03 313.589C287.861 313.911 290.719 313.911 293.55 313.589L305.948 340.28ZM246.088 229.58C246.037 230.91 246.319 232.232 246.908 233.426C247.728 235.017 249.311 239.01 249.311 239.01C249.581 238.748 245.711 243.561 243.571 246.956L230.549 268.325L227.048 264.471C227.048 264.471 225.547 262.683 224.145 262.683C230.959 251.622 237.175 241.79 239.282 238.633C241.392 235.51 243.669 232.505 246.105 229.629L246.088 229.58ZM325.267 203.094C326.276 202.922 327.312 203.138 328.167 203.7C329.023 204.261 329.633 205.126 329.876 206.12C330.097 207.637 329.318 209.4 326.407 209.884L325.046 210.154C307.186 213.721 286.957 217.772 270.04 224.644C264.719 226.571 261.881 228.186 258.897 230.449C258.897 230.449 257.257 226.882 256.658 225.841C255.715 224.201 255.584 224.004 254.797 223.561C257.951 221.597 261.288 219.941 264.76 218.617C277.166 213.41 302.972 206.743 325.284 203.143L325.267 203.094ZM317.174 179.117C316.133 182.479 318.109 187.662 318.109 187.662L322.98 201.151L320.454 201.626C320.454 201.626 317.33 192.992 315.354 187.014C313.861 182.463 314.935 180.257 314.935 180.257L317.174 179.117ZM319.158 178.174L321.676 176.87C321.676 176.87 321.889 176.731 321.881 176.772C321.788 177.077 321.749 177.396 321.766 177.715C321.717 178.609 321.766 179.052 322.693 181.618C324.185 185.636 331.95 201.757 332.852 204.103C337.346 215.771 325.735 217.928 324.529 212.77C336.879 211.835 331.86 198.912 324.857 200.732C322.184 194.172 320.077 187.522 320.077 187.522C320.077 187.522 317.354 180.38 319.175 178.223L319.158 178.174ZM361.733 203.553H361.823H361.913C363.389 203.766 364.267 205.669 364.119 207.243C364.037 208.063 363.529 210.015 360.626 210.015C357.994 209.441 351.114 208.785 347.588 208.449C347.588 205.505 345.776 201.282 345.776 201.282C349.695 201.757 359.675 202.914 361.749 203.602L361.733 203.553ZM332.754 215.205C332.754 215.205 335.288 213.475 335.427 211.647C335.427 211.647 341.331 211.647 344.324 211.696C344.341 211.745 342.135 215.911 332.77 215.255L332.754 215.205ZM252.665 225.783C253.274 225.774 253.879 225.897 254.436 226.144L288.663 301.937C285.841 302.046 283.016 301.859 280.233 301.379C265.645 269.473 248.565 232.089 248.548 232.048C248.199 231.486 248.014 230.837 248.014 230.175C248.014 229.512 248.199 228.863 248.548 228.301C248.992 227.591 249.598 226.997 250.317 226.568C251.035 226.138 251.846 225.886 252.681 225.833L252.665 225.783ZM254.911 251.203L256.273 254.213C250.139 265.693 250.221 278.542 252.591 290.727L251.992 290.26C251.262 289.579 250.451 288.809 249.622 288.013C244.137 282.741 236.814 275.295 231.894 270.047C238.807 258.87 245.465 248.219 245.465 248.227C247.277 245.398 249.188 242.487 250.237 240.912L254.911 251.203ZM257.453 256.804L277.691 301.412C269.782 300.705 262.219 297.837 255.83 293.122C253.501 280.961 252.82 268.571 257.47 256.82L257.453 256.804ZM430.309 382.658C426.341 383.781 413.458 387.168 413.458 387.168C413.911 384.52 414.101 381.833 414.024 379.148C438.878 373.81 415.287 371.563 415.287 371.563C420.773 373.252 420.617 375.212 420.617 375.212C418.231 375.351 414.057 374.089 414.057 374.089C414.196 372.539 413.778 366.217 413.778 366.217C420.24 369.029 421.265 368.226 427.964 369.726C434.828 371.276 431.466 374.089 431.466 374.089C427.964 378.451 415.066 380.271 415.066 380.271C436.681 377.459 434.746 371.563 434.746 371.563C443.52 377.328 434.795 381.395 430.309 382.658ZM426.849 330.719C426.849 330.719 423.626 332.359 408.727 335.024C408.727 335.024 407.522 330.383 406.964 328.005C406.964 328.005 419.551 325.381 424.455 323.544C424.455 323.544 424.364 321.904 421.937 321.953C421.937 321.953 409.162 325.233 406.21 325.471L405.513 323.503C405.513 323.503 416.451 321.395 420.109 320.551C420.109 320.551 427.833 317.886 429.514 323.79C429.514 323.79 431.22 328.89 426.849 330.719V330.719ZM440.42 374.556C440.42 372.867 437.804 369.726 433.302 368.816C433.354 367.537 433.341 366.256 433.261 364.978C432.138 353.498 428.022 332.752 428.022 332.752C434.385 330.686 433.819 317.673 422.962 317.746C421.35 310.53 419.206 303.442 416.55 296.541C422.454 293.31 419.69 287.874 416.451 286.882C416.451 286.882 422.355 285.619 425.07 295.828C434.951 323.503 442.618 361.436 440.42 374.556V374.556ZM417.173 291.269C417.22 292.081 416.963 292.882 416.452 293.515C415.941 294.148 415.213 294.569 414.41 294.696L413.483 294.893C411.179 295.615 406.57 296.697 401.954 297.566C400.218 297.952 398.464 298.25 396.698 298.46C396.091 297.123 395.673 295.746 393.918 292.343C399.338 291.455 404.708 290.286 410.006 288.841C411.337 288.509 412.687 288.257 414.049 288.087C414.862 288.161 415.623 288.521 416.195 289.104C416.768 289.687 417.114 290.454 417.173 291.269V291.269ZM392.212 290.26C391.363 289.552 390.32 289.118 389.219 289.014C392.975 289.276 404.151 288.194 404.151 288.194C402.044 288.989 392.212 290.26 392.212 290.26ZM381.265 291.818C376.206 293.081 364.513 294.36 364.513 294.36L362.118 288.874C369.199 289.896 376.371 290.133 383.504 289.579C382.934 289.638 382.401 289.889 381.994 290.292C381.587 290.694 381.33 291.224 381.265 291.793V291.818ZM353.139 216.304C353.451 219.97 353.197 224.504 351.319 227.924C349.121 231.917 346.104 234.484 340.347 235.517C340.208 235.517 339.896 235.566 339.527 235.591L338.961 235.664C338.535 235.664 338.141 235.73 337.723 235.787C343.521 249.539 362.577 294.672 362.577 294.672C358.912 295.336 354.894 295.606 354.894 295.606L330.819 239.149C330.368 239.598 329.959 240.087 329.597 240.609C329.367 240.888 329.13 241.15 328.884 241.429C325.144 246.111 322.865 252.138 321.586 258.542C321.487 258.961 321.348 259.608 321.192 260.478C332.565 277.96 347.85 284.52 347.85 284.52L351.68 293.761C336.501 289.35 323.8 275.582 320.274 271.457C320.274 271.835 320.274 272.22 320.274 272.597C320.209 279.362 320.924 286.111 322.406 292.712C323.127 294.981 323.767 297.257 324.324 299.542L319.134 300.067C318.029 295.732 316.606 291.484 314.878 287.357C306.301 267.054 282.898 276.345 284.538 288.563L264.702 244.791C268.591 240.574 273.015 236.886 277.863 233.819C274.781 235.242 271.904 237.074 269.311 239.264C267.52 240.638 265.819 242.125 264.218 243.717L262.964 241.06C261.578 237.993 260.34 235.279 259.315 232.999C262.808 230.753 266.367 228.448 270.86 226.825C283.874 221.536 298.904 217.928 313.287 214.918L315.69 214.426C316.124 221.601 312.492 224.34 306.235 225.644C302.135 226.464 298.855 226.62 297.166 227.186L301.045 227.317C304.607 227.177 308.125 226.486 311.475 225.267C315.378 223.815 318.322 221.167 317.067 214.139L319.076 213.729C320.134 220.429 319.15 226.915 306.145 228.17C308.367 229.703 328.613 225.947 340.798 228.744C341.093 228.875 346.202 230.638 340.364 233.188C351.671 230.671 352.295 219.404 350.146 211.048L350.605 211.105C352.401 211.234 354.189 211.461 355.96 211.786C355.96 211.786 355.96 211.786 355.96 211.786C357.051 211.901 358.363 212.048 359.724 212.229C368.145 213.049 367.366 203.11 362.946 201.831C361.289 201.295 359.588 200.909 357.862 200.675L356.682 200.544L346.177 177.125L351.991 174.427L367.022 201.544C374 212.622 362.43 217.19 356.05 213.844C354.887 214.393 353.884 215.231 353.139 216.28V216.304ZM279.725 372.842C279.725 372.842 269.065 374.277 260.463 372.522C238.971 405.388 180.775 403.182 145.187 375.417C144.531 374.925 143.859 374.433 143.17 373.949C140.71 375.811 130.255 383.092 110.181 386.192C93.314 389.472 86.3522 378.492 88.3694 371.063C83.392 360.075 82.0144 356.262 80.3662 350.071C79.6113 346.984 79.6113 343.761 80.3662 340.674C74.5005 329.441 69.6355 317.713 65.8276 305.627C5.18043 112.017 257.38 30.9433 339.216 177.231C340.815 177.371 341.774 177.748 342.274 178.781L344.521 177.879L354.361 200.175C353.139 199.929 349.769 199.642 348.941 199.576C348.944 199.614 348.944 199.653 348.941 199.691L347.26 199.535L346.44 199.494C344.3 192.885 341.52 184.48 339.576 179.56C338.41 179.375 337.231 179.282 336.05 179.281C336.05 179.339 336.108 179.371 336.132 179.421C337.633 182.225 342.192 196.329 343.709 200.175C345.808 205.513 345.661 208.514 345.661 208.514L335.862 208.326C335.706 205.464 332.992 200.085 332.992 200.085L329.343 192.705L328.351 190.597L324.62 182.635C324.001 181.233 323.571 179.755 323.34 178.24C322.684 173.09 327.752 173.09 327.883 173.09C330.515 173.139 332.664 174.107 334.788 177.092H336.141C333.09 171.007 331.368 169.13 329.343 165.768C291.229 111.5 227.909 95.4281 172.1 108.991C242.784 98.6425 296.74 129.056 323.603 174.517C321.348 175.632 317.625 177.494 315.895 178.428C315.116 178.428 312.229 178.355 311.262 178.428C309.581 178.568 307.982 178.65 309.154 182.651C309.672 184.507 310.282 186.335 310.983 188.129C311.803 190.318 314.345 196.928 316.215 202.553L314.238 202.93C313.894 201.93 313.517 200.888 313.09 199.789C310.893 194.197 308.244 186.94 307.473 184.472C307.072 183.201 306.481 180.765 307.195 178.666C307.195 178.666 304.521 180.765 306.908 186.44L312.943 203.176L310.483 203.66C292.172 207.333 274.247 212.188 264.177 216.403C264.177 216.403 256.633 219.133 251.287 223.496C251.137 223.594 251.027 223.742 250.975 223.914C249.384 224.404 247.991 225.389 246.998 226.726C245.84 227.601 244.745 228.554 243.718 229.58C241.603 232.04 239.75 234.18 237.388 237.427C235.322 240.511 227.892 252.261 221.267 262.995C220.674 263.21 220.12 263.52 219.627 263.913C218.701 264.637 217.984 265.594 217.552 266.687C217.119 267.78 216.986 268.968 217.167 270.129C211.796 278.829 208.639 283.88 207.327 285.988C206.391 286.068 205.486 286.367 204.687 286.861C203.888 287.356 203.216 288.031 202.727 288.833C201.431 291.433 195.789 300.682 194.773 301.707C194.139 302.537 193.69 303.491 193.455 304.508C193.221 305.525 193.206 306.58 193.411 307.603L192.903 308.603L180.513 327.086C179.997 327.763 179.679 328.57 179.595 329.417C179.511 330.264 179.664 331.118 180.037 331.883C180.652 333.015 181.544 333.973 182.629 334.665C183.715 335.358 184.959 335.764 186.245 335.844C187.572 335.955 188.897 335.602 189.992 334.843L255.904 345.823L259.126 346.356L264.284 347.217L268.458 347.914C267.971 354.853 266.159 361.633 263.12 367.889L264.276 368.045C282.463 369.521 295.436 366.29 304.407 360.206C305.177 361.674 305.997 363.101 306.867 364.47C299.823 369.103 290.868 372.08 279.725 372.818V372.842ZM443.61 391.522L443.438 391.62C443.618 391.522 443.774 391.374 443.954 391.259L443.61 391.522Z" fill="white"/>
<path id="Vector_2" d="M240.791 386.692C247.589 383.228 253.403 378.103 257.691 371.792H257.65C259.537 369.123 261.046 366.207 262.136 363.125C258.041 373.264 250.476 381.617 240.791 386.692Z" fill="white"/>
<path id="Vector_3" d="M231.911 270.063C236.831 275.311 244.154 282.757 249.64 288.03C248.393 280.141 248.098 272.023 249.73 264.52C250.741 259.839 252.493 255.349 254.92 251.22L250.246 240.929C249.197 242.503 247.286 245.414 245.474 248.243C245.482 248.235 238.824 258.887 231.911 270.063Z" fill="#FF3C00"/>
<path id="Vector_4" d="M249.565 308.841C253.381 316.916 256.214 325.421 258.003 334.171L262.767 334.934C262.267 332.474 261.742 330.268 261.324 328.374C260.463 324.397 256.929 315.942 253.805 305.627C248.671 302.58 244.022 298.782 240.012 294.36C239.947 294.286 232.296 286.98 225.638 280.346L218.7 291.58L233.51 301.305C236.691 303.396 240.25 305.889 240.398 310.53C240.537 315.311 236.388 320.887 235.043 322.691C233.305 325.003 227.811 331.522 220.685 326.988C220.685 326.988 210.336 320.559 203.047 316.205L197.43 324.52L255.74 333.81C254.444 324.593 251.402 316.18 249.565 308.841Z" fill="#FF3C00"/>
<path id="Vector_5" d="M273.862 232.86C282.374 228.26 287.614 225.767 301.094 224.037L304.456 223.569C306.752 223.233 311.131 222.315 312.386 220.035C313.146 218.443 313.458 216.674 313.288 214.918C298.905 217.928 283.874 221.536 270.861 226.825C266.367 228.465 262.809 230.753 259.315 232.999C260.34 235.279 261.579 237.993 262.964 241.06C265.803 238.323 268.945 235.919 272.329 233.893C272.813 233.541 273.862 232.86 273.862 232.86Z" fill="#FF3C00"/>
<path id="Vector_6" d="M304.383 178.494C304.803 177.882 305.366 177.381 306.023 177.035C283.735 139.315 230.328 100.324 160.981 112.132C93.782 133.681 41.3594 199.158 64.6802 292.491C74.4136 327.906 85.787 346.684 98.1362 364.29C98.1362 364.29 97.5786 372.834 112.322 368.39C125.672 364.347 133.814 364.044 147.754 374.433C172.051 392.539 213.863 400.755 240.808 386.733C250.487 381.649 258.043 373.291 262.128 363.15C263.86 358.042 264.611 352.653 264.342 347.267L259.184 346.406C258.036 368.439 236.224 389.661 197.118 387.217C180.833 386.61 163.449 378.689 153.076 373.039C148.304 369.841 134.856 362.297 128.402 360.87C134.011 361.174 148.082 368.513 153.921 371.916C165.983 378.123 182.809 384.093 197.127 384.691C223.211 387.151 252.805 373.769 255.962 345.873L190.058 334.852C188.963 335.61 187.638 335.964 186.311 335.852C185.025 335.772 183.781 335.366 182.695 334.674C181.61 333.981 180.718 333.023 180.103 331.892C179.73 331.126 179.577 330.273 179.661 329.426C179.745 328.579 180.063 327.771 180.579 327.095L192.969 308.612L193.478 307.611C193.272 306.588 193.287 305.533 193.521 304.516C193.756 303.5 194.205 302.545 194.839 301.716C195.856 300.691 201.497 291.441 202.793 288.842C203.279 288.044 203.946 287.371 204.739 286.877C205.532 286.383 206.43 286.081 207.36 285.996C208.672 283.889 211.829 278.838 217.2 270.137C217.02 268.976 217.153 267.788 217.585 266.695C218.018 265.602 218.734 264.645 219.66 263.922C220.153 263.528 220.707 263.218 221.3 263.003C227.926 252.27 235.355 240.519 237.421 237.436C239.783 234.156 241.636 232.024 243.752 229.588C244.778 228.563 245.874 227.609 247.032 226.735C248.024 225.397 249.417 224.412 251.009 223.922C251.06 223.75 251.171 223.602 251.32 223.504C256.667 219.142 264.211 216.411 264.211 216.411C274.28 212.196 292.206 207.342 310.516 203.668C309.237 199.962 305.162 188.244 305.162 188.244C304.981 187.76 302.152 181.963 304.383 178.494ZM221.997 341.674C223.782 341.682 225.51 342.304 226.89 343.436C228.269 344.568 229.217 346.141 229.573 347.89C229.93 349.639 229.672 351.457 228.845 353.039C228.018 354.62 226.671 355.869 225.031 356.574C224.468 357.173 223.764 357.624 222.984 357.887C222.204 358.149 221.371 358.215 220.56 358.078C219.748 357.941 218.983 357.605 218.333 357.101C217.682 356.597 217.166 355.939 216.831 355.188C215.66 354.141 214.834 352.763 214.465 351.236C214.095 349.709 214.199 348.106 214.762 346.639C215.325 345.173 216.321 343.912 217.618 343.025C218.915 342.139 220.451 341.667 222.022 341.674H221.997ZM160.94 366.192C159.75 367.115 158.243 367.528 156.75 367.34C155.011 368.431 152.305 367.824 150.37 365.79C148.583 363.896 148.05 361.395 148.927 359.706C148.55 356.959 149.394 354.228 151.338 352.859C154.282 350.793 158.718 352.039 161.293 355.688C163.867 359.337 163.728 363.872 160.94 366.192ZM199.16 345.331C186.155 359.099 160.366 359.009 145.713 340.231C170.509 363.24 193.633 348.037 199.16 345.331ZM175.643 328.931C174.038 329.462 172.356 329.722 170.665 329.702C168.217 329.647 165.804 329.103 163.568 328.104C161.332 327.104 159.318 325.668 157.644 323.88C150.739 316.656 150.264 305.504 156.643 299.042C158.069 297.595 159.774 296.452 161.654 295.683C163.534 294.913 165.551 294.533 167.582 294.565C170.033 294.625 172.447 295.173 174.683 296.179C176.92 297.184 178.932 298.626 180.604 300.42C184.001 303.958 185.954 308.637 186.081 313.54L175.643 328.931Z" fill="#FF3C00"/>
<path id="Vector_7" d="M255.74 333.81L258.044 334.171C256.255 325.421 253.422 316.917 249.606 308.841C251.402 316.18 254.444 324.593 255.74 333.81Z" fill="#311D00"/>
<path id="Vector_8" d="M197.134 384.65C182.817 384.052 165.974 378.09 153.929 371.875C148.049 368.472 134.019 361.133 128.41 360.829C134.864 362.256 148.32 369.8 153.084 372.998C163.457 378.648 180.841 386.569 197.126 387.176C236.191 389.636 258.044 368.398 259.192 346.365L255.969 345.832C252.812 373.728 223.219 387.102 197.134 384.65Z" fill="#311D00"/>
<path id="Vector_9" d="M167.582 294.557C165.551 294.524 163.534 294.905 161.654 295.674C159.774 296.444 158.069 297.587 156.643 299.034C150.288 305.495 150.739 316.647 157.644 323.872C159.314 325.667 161.327 327.11 163.563 328.117C165.799 329.124 168.214 329.674 170.665 329.735C172.356 329.755 174.038 329.494 175.643 328.964L186.081 313.523C185.954 308.62 184.001 303.941 180.604 300.403C178.932 298.611 176.919 297.17 174.683 296.166C172.446 295.162 170.032 294.615 167.582 294.557V294.557Z" fill="#311D00"/>
<path id="Vector_10" d="M145.712 340.231C160.365 359.009 186.154 359.091 199.16 345.331C193.633 348.037 170.509 363.24 145.712 340.231Z" fill="#311D00"/>
<path id="Vector_11" d="M216.806 355.179C217.141 355.931 217.657 356.588 218.308 357.092C218.958 357.597 219.723 357.932 220.535 358.069C221.346 358.207 222.179 358.141 222.959 357.879C223.739 357.616 224.443 357.165 225.006 356.565C226.564 355.914 227.869 354.775 228.723 353.319C229.577 351.862 229.935 350.167 229.743 348.49C229.551 346.812 228.819 345.243 227.657 344.017C226.495 342.792 224.967 341.977 223.302 341.696C221.637 341.414 219.926 341.682 218.426 342.457C216.926 343.233 215.719 344.475 214.986 345.996C214.253 347.517 214.034 349.235 214.363 350.892C214.691 352.548 215.548 354.053 216.806 355.179V355.179ZM221.341 357.262C220.494 357.274 219.663 357.033 218.953 356.571C218.243 356.109 217.686 355.446 217.354 354.667C217.021 353.888 216.928 353.027 217.086 352.195C217.243 351.363 217.645 350.596 218.239 349.993C218.834 349.389 219.594 348.976 220.424 348.806C221.253 348.635 222.115 348.715 222.899 349.035C223.683 349.356 224.354 349.902 224.827 350.605C225.3 351.307 225.554 352.135 225.556 352.982C225.56 353.54 225.454 354.093 225.245 354.61C225.035 355.127 224.726 355.597 224.335 355.995C223.943 356.392 223.477 356.709 222.964 356.926C222.45 357.144 221.899 357.258 221.341 357.262V357.262ZM224.695 348.693C223.604 347.471 220.857 346.906 219.283 347.955C218.569 348.398 217.839 347.824 218.741 346.906C219.217 346.511 219.768 346.218 220.36 346.043C220.953 345.868 221.575 345.816 222.188 345.888C222.802 345.961 223.394 346.158 223.929 346.467C224.464 346.776 224.931 347.19 225.301 347.685C226.089 348.824 225.285 349.595 224.695 348.693V348.693ZM222.185 343.06C223.425 343.091 224.629 343.485 225.648 344.193C226.667 344.9 227.456 345.89 227.919 347.041C228.382 348.192 228.498 349.453 228.253 350.669C228.008 351.885 227.412 353.002 226.54 353.884C228.368 349.956 226.868 344.954 222.046 344.741C217.036 344.544 215.371 349.571 216.24 352.203C214.551 350.612 215.133 343.093 222.185 343.06V343.06Z" fill="#311D00"/>
<path id="Vector_12" d="M218.741 346.906C217.839 347.824 218.569 348.398 219.283 347.955C220.857 346.906 223.604 347.472 224.695 348.693C225.285 349.595 226.089 348.825 225.326 347.685C224.956 347.186 224.488 346.769 223.95 346.458C223.413 346.147 222.818 345.949 222.202 345.876C221.585 345.803 220.96 345.857 220.365 346.034C219.77 346.211 219.218 346.508 218.741 346.906V346.906Z" fill="white"/>
<path id="Vector_13" d="M222.046 344.741C226.868 344.954 228.368 349.956 226.54 353.884C227.412 353.002 228.008 351.884 228.253 350.669C228.498 349.453 228.382 348.192 227.919 347.041C227.456 345.89 226.667 344.9 225.648 344.192C224.629 343.485 223.425 343.091 222.185 343.06C215.133 343.06 214.551 350.612 216.24 352.203C215.371 349.57 217.036 344.544 222.046 344.741Z" fill="white"/>
<path id="Vector_14" d="M225.556 352.982C225.545 352.149 225.287 351.338 224.816 350.651C224.345 349.964 223.681 349.431 222.908 349.121C222.135 348.81 221.287 348.735 220.471 348.905C219.656 349.075 218.909 349.483 218.324 350.076C217.74 350.67 217.344 351.423 217.186 352.241C217.029 353.06 217.117 353.906 217.44 354.674C217.762 355.442 218.305 356.098 218.999 356.558C219.693 357.019 220.508 357.264 221.341 357.262C221.899 357.259 222.451 357.146 222.965 356.929C223.48 356.712 223.946 356.395 224.338 355.998C224.729 355.6 225.038 355.129 225.247 354.611C225.457 354.094 225.561 353.54 225.556 352.982V352.982ZM221.3 356.328C220.635 356.324 219.985 356.124 219.433 355.752C218.881 355.38 218.452 354.853 218.199 354.238C217.946 353.622 217.881 352.945 218.013 352.293C218.144 351.64 218.465 351.041 218.936 350.571C219.408 350.101 220.007 349.781 220.66 349.652C221.313 349.522 221.989 349.589 222.604 349.843C223.219 350.097 223.745 350.528 224.116 351.081C224.487 351.634 224.685 352.284 224.687 352.949C224.688 353.394 224.601 353.834 224.431 354.245C224.261 354.656 224.012 355.029 223.697 355.343C223.382 355.657 223.008 355.906 222.597 356.075C222.186 356.244 221.745 356.33 221.3 356.328V356.328Z" fill="white"/>
<path id="Vector_15" d="M221.3 349.587C220.634 349.59 219.984 349.791 219.431 350.164C218.879 350.536 218.45 351.064 218.197 351.681C217.945 352.297 217.881 352.975 218.014 353.628C218.146 354.281 218.469 354.88 218.942 355.349C219.415 355.818 220.016 356.137 220.67 356.265C221.324 356.393 222.001 356.324 222.616 356.067C223.23 355.81 223.755 355.377 224.124 354.822C224.492 354.267 224.688 353.615 224.687 352.949C224.687 352.505 224.599 352.066 224.428 351.657C224.258 351.247 224.008 350.875 223.693 350.563C223.378 350.25 223.005 350.003 222.594 349.836C222.183 349.668 221.744 349.584 221.3 349.587V349.587ZM218.84 353.064C218.938 352.637 219.135 352.851 219.234 353.179C220.152 354.63 222.71 354.745 223.481 353.621C223.883 353.056 223.875 353.835 223.875 353.835C222.235 357.008 218.561 355.04 218.84 353.064V353.064Z" fill="#311D00"/>
<path id="Vector_16" d="M223.449 353.622C222.678 354.745 220.12 354.63 219.201 353.179C219.103 352.851 218.906 352.638 218.808 353.064C218.562 354.999 222.235 357.008 223.842 353.835C223.842 353.835 223.851 353.056 223.449 353.622Z" fill="white"/>
<path id="Vector_17" d="M151.338 352.859C149.394 354.228 148.55 356.959 148.927 359.706C148.049 361.395 148.582 363.896 150.37 365.79C152.305 367.824 155.011 368.431 156.75 367.34C158.243 367.527 159.75 367.115 160.94 366.192C163.728 363.871 163.851 359.329 161.292 355.688C158.734 352.047 154.281 350.792 151.338 352.859ZM150.87 365.159C149.058 363.256 148.746 360.616 150.173 359.255C151.6 357.894 154.216 358.353 156.028 360.263C157.84 362.174 158.152 364.823 156.725 366.167C155.298 367.512 152.682 367.078 150.87 365.167V365.159ZM157.824 360.542C157.144 359.303 156.045 358.347 154.724 357.844C153.781 357.664 154.142 356.139 155.265 356.524C156.469 357.066 157.524 357.89 158.34 358.927C159.374 360.641 158.275 361.502 157.824 360.55V360.542ZM159.103 365.856C164.285 359.115 154.183 351.268 150.231 357.5C153.543 347.332 166.909 360.116 159.103 365.864V365.856Z" fill="#311D00"/>
<path id="Vector_18" d="M155.265 356.532C154.142 356.147 153.781 357.672 154.724 357.853C156.045 358.355 157.144 359.311 157.824 360.55C158.275 361.502 159.374 360.641 158.34 358.91C157.521 357.883 156.466 357.067 155.265 356.532Z" fill="white"/>
<path id="Vector_19" d="M150.23 357.5C154.207 351.268 164.285 359.14 159.103 365.856C166.909 360.116 153.543 347.332 150.23 357.5Z" fill="white"/>
<path id="Vector_20" d="M156.028 360.272C154.215 358.361 151.6 357.918 150.173 359.263C148.746 360.608 149.058 363.265 150.87 365.167C152.682 367.069 155.306 367.537 156.725 366.176C158.143 364.814 157.84 362.182 156.028 360.272ZM155.978 365.766C154.789 366.643 152.789 365.921 151.321 364.577C149.853 363.232 149.615 360.887 150.698 359.829C151.919 358.656 154.084 359.394 155.38 360.87C156.429 362.084 157.34 364.741 155.978 365.766Z" fill="white"/>
<path id="Vector_21" d="M150.698 359.829C149.615 360.886 149.738 363.109 151.321 364.576C152.903 366.044 154.789 366.643 155.978 365.765C157.331 364.74 156.429 362.084 155.38 360.845C154.06 359.394 151.919 358.656 150.698 359.829ZM154.978 365.183C152.518 365.413 150.37 362.469 151.263 361.165C151.263 361.165 151.936 360.247 152.083 361.091C152.277 361.878 152.673 362.599 153.231 363.186C153.789 363.773 154.49 364.204 155.265 364.437C155.593 364.527 155.7 365.052 154.978 365.183V365.183Z" fill="#311D00"/>
<path id="Vector_22" d="M152.06 361.091C151.937 360.271 151.24 361.165 151.24 361.165C150.346 362.469 152.527 365.413 154.954 365.183C155.676 365.052 155.569 364.527 155.217 364.437C154.446 364.2 153.75 363.768 153.196 363.181C152.643 362.595 152.251 361.875 152.06 361.091V361.091Z" fill="white"/>
<path id="Vector_23" d="M139.906 373.629C140.382 373.301 140.882 372.932 141.268 372.653C134.626 368.414 126.385 365.642 112.986 370.062L112.387 370.251C115.602 369.603 120.054 368.857 122.834 369.045C126.376 369.308 131.583 369.816 136.512 372.94L134.052 374.285C125.577 378.522 116.375 381.113 106.934 381.919C101.457 382.313 102.514 379.115 106.114 377.295C108.099 376.286 109.771 374.367 110.509 370.849C109.911 371.161 109.911 371.03 109.033 371.194H108.935C107.738 379.804 90.895 378.91 92.7646 367.2C92.7646 367.2 90.3046 362.223 88.9516 359.337C88.9516 359.451 88.6072 357.524 88.7958 357.475C88.7958 357.475 92.8958 364.15 94.6096 366.266C92.3382 374.261 104.023 377.598 107.156 371.579C96.8564 373.498 96.4956 368.225 96.6186 366.462C96.5366 366.208 96.4792 365.921 96.4136 365.642C94.6178 363.814 88.7794 356.065 82.1374 343.896C81.2518 350.989 89.2878 367.397 89.952 369.013L90.6408 370.71C88.1808 377.434 95.2 386.241 107.754 384.215C120.112 383.059 133.986 377.885 139.906 373.629Z" fill="white"/>
<path id="Vector_24" d="M313.189 352.08L314.009 353.67C314.542 354.679 315.108 355.663 315.649 356.614C317.05 354.965 318.322 353.21 319.454 351.366L315.215 351.809C315.215 351.809 314.501 351.932 313.189 352.08Z" fill="#311D00"/>
<path id="Vector_25" d="M319.544 339.083C321.348 338.911 323.127 338.739 324.899 338.55C326.045 334.234 326.735 329.809 326.957 325.348C326.957 324.93 326.957 324.528 326.957 324.102L367.014 330.916C367.014 330.916 364.382 324.954 363.685 322.937L326.883 316.623L326.834 315.459C326.727 313.95 326.588 312.441 326.399 310.916C324.677 311.113 322.972 311.293 321.291 311.474C322.48 320.772 322.16 330.44 319.544 339.083Z" fill="#311D00"/>
<path id="Vector_26" d="M249.639 288.03C250.459 288.85 251.279 289.596 252.009 290.276L252.608 290.744C250.238 278.559 250.148 265.726 256.29 254.229L254.92 251.22C252.49 255.348 250.735 259.838 249.721 264.52C248.098 272.023 248.36 280.141 249.639 288.03Z" fill="#311D00"/>
<path id="Vector_27" d="M262.768 334.934L268.901 335.909C268.901 335.516 268.86 335.089 268.836 334.737C275.584 329.866 280.799 321.871 283.596 314.417L283.128 313.384L282.136 313.327C275.076 312.933 267.376 311.883 259.471 308.48C261.472 316.057 263.514 323.388 264.637 330.235C263.243 324.356 260.029 316.377 257.077 307.373C255.986 306.832 254.896 306.258 253.797 305.619C256.921 315.934 260.455 324.388 261.316 328.365C261.743 330.268 262.3 332.482 262.768 334.934Z" fill="#311D00"/>
<path id="Vector_28" d="M317.142 278.911C314.682 267.62 317.29 246.628 325.522 240.642C313.755 242.068 310.483 271.556 317.142 278.911Z" fill="white"/>
<path id="Vector_29" d="M277.707 301.428L257.47 256.82C252.82 268.571 253.501 280.961 255.83 293.138C262.224 297.856 269.793 300.724 277.707 301.428V301.428Z" fill="#311D00"/>
<path id="Vector_30" d="M356.067 213.893C362.446 217.222 374.017 212.655 367.038 201.593L352.008 174.459L346.194 177.157L356.698 200.576L357.879 200.708C359.605 200.941 361.306 201.328 362.963 201.864C367.383 203.143 368.162 213.098 359.74 212.261C358.379 212.081 357.067 211.933 355.976 211.819C354.205 211.494 352.418 211.266 350.622 211.138L350.163 211.081C352.311 219.453 351.688 230.72 340.38 233.221C346.218 230.67 341.11 228.907 340.815 228.776C328.629 225.98 308.384 229.736 306.161 228.202C319.167 226.948 320.151 220.461 319.093 213.762L317.084 214.172C318.338 221.224 315.395 223.848 311.491 225.299C308.142 226.518 304.623 227.21 301.061 227.349L297.182 227.218C298.863 226.652 302.184 226.513 306.252 225.677C312.508 224.373 316.141 221.634 315.706 214.459L313.304 214.951C313.473 216.707 313.162 218.476 312.402 220.068C311.147 222.347 306.768 223.266 304.472 223.602L301.11 224.069C287.629 225.8 282.39 228.292 273.878 232.893C273.878 232.893 272.828 233.557 272.345 233.926C268.957 235.94 265.81 238.333 262.964 241.06L264.161 243.7C265.761 242.109 267.462 240.621 269.253 239.248C271.847 237.057 274.723 235.226 277.806 233.803C272.958 236.869 268.533 240.558 264.645 244.774L284.481 288.546C282.841 276.328 306.268 267.037 314.821 287.341C316.549 291.467 317.971 295.715 319.076 300.051L324.267 299.526C323.72 297.246 323.081 294.969 322.348 292.695C320.867 286.095 320.152 279.345 320.216 272.581C320.216 272.203 320.216 271.818 320.216 271.441C323.75 275.541 336.444 289.333 351.622 293.745L347.85 284.52C347.85 284.52 332.565 277.96 321.208 260.527C321.364 259.657 321.504 259.01 321.602 258.591C322.881 252.187 325.161 246.16 328.9 241.478C329.146 241.166 329.384 240.904 329.613 240.658C329.976 240.136 330.385 239.647 330.835 239.198L354.91 295.655C354.91 295.655 358.928 295.385 362.594 294.721C362.594 294.721 343.537 249.621 337.74 235.836C338.133 235.779 338.56 235.746 338.978 235.713L339.544 235.64C339.896 235.64 340.208 235.59 340.364 235.566C346.104 234.533 349.138 231.966 351.335 227.973C353.213 224.545 353.467 220.019 353.156 216.353C353.898 215.296 354.9 214.448 356.067 213.893V213.893ZM317.141 278.911C310.483 271.531 313.755 242.068 325.522 240.642C317.289 246.628 314.714 267.62 317.141 278.911V278.911Z" fill="#311D00"/>
<path id="Vector_31" d="M216.683 318.353C216.916 318.943 217.19 319.515 217.503 320.067V320.067C218.026 320.963 218.768 321.711 219.66 322.24C226.17 326.11 229.762 321.182 229.795 321.141C229.828 321.1 232.788 317.23 228.458 312.941C227.587 312.198 226.576 311.638 225.484 311.293C224.393 310.948 223.243 310.825 222.103 310.932C221.666 309.268 220.661 307.81 219.263 306.808C217.865 305.806 216.16 305.325 214.444 305.446H214.371C210.049 305.741 209.041 308.078 208.549 309.423C208.241 310.329 208.128 311.29 208.219 312.243C208.309 313.195 208.601 314.118 209.073 314.95C209.057 315.065 211.156 319.206 216.683 318.353ZM222.382 312.105C227.245 311.957 231.041 316.82 228.598 320.387L227.712 320.534C223.473 321.092 221.086 319.411 220.373 315.614C221.453 314.732 222.168 313.482 222.382 312.105V312.105ZM216.699 306.906C219.11 307.677 220.865 309.792 220.75 311.965H221.021C220.824 313.548 219.159 315.696 215.765 315.18C215.613 314.479 215.533 313.764 215.527 313.048C216.12 313.249 216.746 313.341 217.372 313.318C217.374 312.986 217.396 312.655 217.437 312.326C216.767 312.251 216.115 312.059 215.51 311.76C215.537 310.073 215.943 308.414 216.699 306.906ZM211.074 307.955C211.544 307.498 212.109 307.15 212.728 306.935C213.347 306.719 214.006 306.642 214.658 306.709C213.965 308.041 213.605 309.521 213.608 311.022C213.272 310.743 213.009 310.735 212.673 310.383V311.58C212.886 311.957 213.223 312.072 213.649 312.4C213.633 313.227 213.718 314.053 213.903 314.86C213.682 314.786 213.559 314.606 213.321 314.491C209.951 312.572 211.074 307.955 211.074 307.955V307.955ZM209.82 309.44C209.254 316.459 215.658 317.484 219.258 316.155C220.037 321.838 224.998 321.986 227.376 321.608C226.439 322.115 225.396 322.393 224.331 322.419C223.267 322.445 222.211 322.218 221.251 321.757C220.291 321.296 219.454 320.614 218.808 319.768C218.162 318.921 217.726 317.933 217.536 316.885C213.034 318.263 207.909 314.622 209.82 309.44Z" fill="white"/>
<path id="Vector_32" d="M330.917 184.988C329.49 184.07 327.317 180.937 327.637 178.387C330.991 178.436 332 183.307 330.917 184.988Z" fill="#311D00"/>
<path id="Vector_33" d="M334.386 194.09C332.699 192.461 331.719 190.235 331.655 187.891C334.32 188.432 335.927 191.737 334.386 194.09Z" fill="#311D00"/>
<path id="Vector_34" d="M320.094 187.571C320.094 187.571 322.201 194.181 324.874 200.782C331.877 198.961 336.895 211.884 324.546 212.819C325.752 217.977 337.363 215.82 332.869 204.152C331.967 201.807 324.202 185.685 322.709 181.667C321.766 179.101 321.734 178.658 321.783 177.764C321.766 177.446 321.805 177.127 321.898 176.821L321.693 176.92L319.175 178.223C317.355 180.38 320.094 187.571 320.094 187.571Z" fill="#311D00"/>
<path id="Vector_35" d="M315.313 187.014C317.289 192.992 320.413 201.626 320.413 201.626L322.939 201.151L318.125 187.711C318.125 187.711 316.149 182.529 317.191 179.167L314.895 180.257C314.895 180.257 313.82 182.463 315.313 187.014Z" fill="#311D00"/>
<path id="Vector_36" d="M332.771 215.255C342.135 215.911 344.341 211.745 344.341 211.745C341.348 211.696 335.444 211.696 335.444 211.696C335.28 213.524 332.771 215.255 332.771 215.255Z" fill="#311D00"/>
<path id="Vector_37" d="M224.153 262.733C225.556 262.733 227.056 264.52 227.056 264.52L230.558 268.374L243.579 247.005C245.744 243.61 249.614 238.805 249.319 239.059C249.319 239.059 247.679 235.066 246.917 233.475C246.327 232.282 246.045 230.96 246.097 229.629C243.663 232.51 241.389 235.522 239.282 238.649C237.183 241.88 230.968 251.671 224.153 262.733Z" fill="#311D00"/>
<path id="Vector_38" d="M389.22 288.989C390.32 289.093 391.364 289.527 392.213 290.235C392.213 290.235 402.053 288.989 404.152 288.136C404.16 288.136 392.975 289.251 389.22 288.989Z" fill="#311D00"/>
<path id="Vector_39" d="M392.967 324.208C392.967 324.208 386.178 324.306 376.772 324.15L379.585 330.62L390.245 328.521C390.245 328.521 394.091 328.373 392.967 324.208Z" fill="#311D00"/>
<path id="Vector_40" d="M366.883 305.84C366.883 305.84 360.61 306.865 359.503 307.004C359.503 307.004 368.843 329.874 370.319 332.678C370.319 332.678 376.493 331.785 377.756 331.227C373.682 322.964 370.052 314.49 366.883 305.84Z" fill="#311D00"/>
<path id="Vector_41" d="M383.324 342.33C383.324 342.33 376.961 343.74 375.411 344.027C375.411 344.027 384.431 360.427 401.381 368.75C401.381 368.75 401.151 362.289 400.872 359.73C400.88 359.747 390.056 352.449 383.324 342.33Z" fill="#311D00"/>
<path id="Vector_42" d="M434.664 371.563C434.664 371.563 436.632 377.459 414.984 380.272C414.984 380.272 427.899 378.451 431.384 374.089C431.384 374.089 434.746 371.276 427.883 369.726C421.183 368.226 420.158 369.029 413.697 366.217C413.697 366.217 414.115 372.539 413.976 374.089C413.976 374.089 418.182 375.352 420.536 375.212C420.536 375.212 420.691 373.252 415.206 371.563C415.206 371.563 438.797 373.81 413.943 379.148C414.019 381.834 413.83 384.52 413.377 387.168C413.377 387.168 426.259 383.781 430.228 382.658C434.795 381.395 443.52 377.328 434.664 371.563Z" fill="#311D00"/>
<path id="Vector_43" d="M285.03 313.614C292.156 329.194 294.944 335.754 297.47 340.493C300.293 340.78 303.141 340.717 305.949 340.305L293.55 313.655C290.718 313.963 287.86 313.949 285.03 313.614V313.614Z" fill="#311D00"/>
<path id="Vector_44" d="M248.582 228.35C248.232 228.912 248.047 229.561 248.047 230.224C248.047 230.886 248.232 231.535 248.582 232.097C248.582 232.138 265.679 269.522 280.266 301.428C283.049 301.908 285.874 302.095 288.696 301.986L254.469 226.193C253.912 225.946 253.308 225.823 252.698 225.833C251.861 225.894 251.051 226.155 250.335 226.593C249.619 227.031 249.018 227.633 248.582 228.35V228.35Z" fill="#311D00"/>
<path id="Vector_45" d="M409.26 388.439C409.881 388.07 410.397 387.548 410.756 386.921C411.115 386.294 411.306 385.586 411.31 384.863C414.008 354.31 402.339 313.86 390.523 292.08C389.803 291.48 388.927 291.098 387.997 290.979C387.067 290.859 386.123 291.008 385.275 291.408C384.572 291.7 383.958 292.173 383.496 292.777L383.397 293.474V293.794C382.308 294.172 381.18 294.43 380.035 294.565C363.471 297.845 307.129 304.725 291.672 304.331C286.921 304.369 282.172 304.15 277.445 303.675C265.711 302.347 259.676 298.927 251.262 292.367C243.694 285.283 228.352 269.407 225.67 265.849C224.416 264.381 222.177 264.791 221.045 265.693C220.159 266.346 219.568 267.324 219.402 268.412C219.236 269.501 219.509 270.611 220.16 271.498C226.269 278.19 241.439 292.646 241.586 292.818C255.289 307.701 269.081 310.785 281.496 311.482C290.221 312.088 301.446 311.564 299.47 311.687C322.324 310.309 361.208 304.872 382.495 301.027C384.086 300.666 385.39 300.42 385.39 300.42H386.128C387.145 300.887 388.104 303.979 388.161 304.208V304.093C390.375 309.669 394.795 324.142 394.844 324.29C394.844 324.29 396.066 328.726 395.582 329.21C394.836 329.964 388.932 331.367 388.932 331.367C378.01 334.278 332.844 340.969 308.416 342.33C308.244 342.371 301.856 343.363 287.998 341.289L197.331 326.34L192.296 333.236C191.903 333.236 286.071 348.57 286.071 348.57C292.725 349.67 299.459 350.205 306.202 350.169L308.933 350.095C312.344 349.948 314.279 349.653 314.329 349.653C339.576 347.094 371.556 343.01 392.229 338.09C393.594 337.811 394.984 337.668 396.378 337.664C396.973 337.724 397.557 337.874 398.108 338.107C398.704 338.861 399.094 339.756 399.24 340.706C402.93 354.023 403.709 374.039 403.75 374.982C403.75 374.982 403.823 379.132 403.126 380.722C402.265 381.649 399.199 382.174 399.199 382.174C365.677 390.751 326.563 384.699 311.385 352.186C308.105 352.465 303.111 352.367 303.111 352.367C303.524 353.565 304.034 354.728 304.636 355.844C314.419 377.5 332.024 386.126 346.924 390.062C363.324 394.4 382.807 394.121 400.986 389.447C403.93 388.463 403.823 388.242 403.823 388.242C404.666 388.65 405.585 388.879 406.521 388.913C407.457 388.947 408.39 388.785 409.26 388.439V388.439Z" fill="#311D00"/>
<path id="Vector_46" d="M202.949 293.811C202.252 295.032 200.661 297.673 197.381 302.281C195.946 304.298 195.438 306.135 195.872 307.742C196.52 310.12 199.078 311.309 199.103 311.318H199.152L214.642 320.821L216.454 321.904L221.44 324.987C225.113 327.447 229.517 325.454 231.821 322.379C233.838 319.641 234.633 315.721 230.484 311.777C230.484 311.777 229.763 310.826 226.187 308.833C222.85 306.988 211.288 299.993 205.794 296.533C205.827 296.623 203.662 295.36 202.949 293.811ZM208.508 309.497C209 308.152 210.009 305.815 214.33 305.52H214.404C216.12 305.399 217.824 305.88 219.223 306.882C220.621 307.884 221.626 309.342 222.063 311.006C223.203 310.899 224.352 311.022 225.444 311.367C226.535 311.712 227.547 312.272 228.418 313.015C232.747 317.271 229.779 321.133 229.754 321.215C229.73 321.297 226.13 326.143 219.66 322.24C218.766 321.698 218.027 320.936 217.512 320.026V320.026C217.199 319.475 216.925 318.902 216.692 318.312C211.165 319.132 209.066 315.032 209.041 314.983C208.573 314.157 208.283 313.242 208.192 312.297C208.1 311.352 208.208 310.398 208.508 309.497V309.497Z" fill="#311D00"/>
<path id="Vector_47" d="M234.477 304.684C231.238 302.224 223.751 297.304 218.077 293.638L216.74 294.934C216.74 294.934 229.368 303.347 232.607 305.52C236.305 308.021 237.749 311.194 237.166 314.376C237.142 314.376 240.274 309.12 234.477 304.684Z" fill="#311D00"/>
<path id="Vector_48" d="M206.81 295.18C212.263 298.591 230.025 309.055 230.025 309.055C230.025 309.055 234.822 312.105 235.035 315.975C236.486 311.875 234.043 308.792 231.566 307.013L215.035 295.943C211.944 296.763 205.408 293.36 205.646 289.096C204.014 290.49 203.694 293.196 206.81 295.18Z" fill="#311D00"/>
<path id="Vector_49" d="M220.373 315.623C221.086 319.411 223.473 321.092 227.712 320.543L228.598 320.395C231.058 316.828 227.245 311.966 222.382 312.113C222.168 313.491 221.453 314.741 220.373 315.623V315.623Z" fill="#311D00"/>
<path id="Vector_50" d="M217.561 316.886C217.751 317.933 218.187 318.921 218.833 319.768C219.479 320.615 220.316 321.297 221.276 321.757C222.236 322.218 223.292 322.445 224.357 322.419C225.421 322.393 226.465 322.116 227.401 321.609C225.007 321.986 220.021 321.838 219.283 316.156C215.683 317.484 209.279 316.459 209.845 309.44C207.91 314.622 213.035 318.263 217.561 316.886Z" fill="#311D00"/>
<path id="Vector_51" d="M410.006 288.858C404.708 290.302 399.338 291.471 393.918 292.359C395.673 295.762 396.091 297.14 396.698 298.477C398.464 298.261 400.218 297.957 401.954 297.566C406.571 296.697 411.179 295.615 413.483 294.893L414.41 294.696C415.213 294.57 415.941 294.148 416.452 293.515C416.963 292.882 417.22 292.081 417.173 291.269C417.111 290.457 416.762 289.694 416.19 289.114C415.619 288.535 414.86 288.177 414.049 288.104C412.687 288.273 411.338 288.525 410.006 288.858V288.858Z" fill="#311D00"/>
<path id="Vector_52" d="M420.109 320.551C416.452 321.371 405.513 323.503 405.513 323.503L406.21 325.471C409.162 325.192 421.937 321.953 421.937 321.953C424.397 321.953 424.455 323.544 424.455 323.544C419.535 325.38 406.964 328.004 406.964 328.004C407.522 330.382 408.727 335.024 408.727 335.024C423.627 332.359 426.849 330.719 426.849 330.719C431.195 328.89 429.514 323.79 429.514 323.79C427.833 317.886 420.109 320.551 420.109 320.551Z" fill="#311D00"/>
<path id="Vector_53" d="M425.07 295.811C422.356 285.602 416.46 286.865 416.46 286.865C419.699 287.857 422.462 293.294 416.558 296.525C419.215 303.426 421.358 310.513 422.971 317.73C433.828 317.656 434.393 330.669 428.03 332.736C428.03 332.736 432.13 353.523 433.27 364.962C433.349 366.24 433.363 367.52 433.311 368.8C437.813 369.726 440.429 372.9 440.429 374.54C442.618 361.436 434.951 323.503 425.07 295.811Z" fill="#311D00"/>
<path id="Vector_54" d="M362.118 288.85L364.513 294.335C364.513 294.335 376.206 293.056 381.265 291.793C381.324 291.22 381.579 290.684 381.987 290.277C382.395 289.869 382.93 289.614 383.504 289.555C376.371 290.108 369.199 289.872 362.118 288.85V288.85Z" fill="#311D00"/>
<path id="Vector_55" d="M201.021 315.196C201.021 315.196 195.101 311.637 194.354 310.219L182.563 328.259C182.274 328.614 182.093 329.045 182.042 329.5C181.991 329.955 182.072 330.415 182.276 330.825C182.721 331.594 183.349 332.24 184.105 332.706C184.86 333.173 185.719 333.445 186.605 333.499C187.193 333.569 187.789 333.477 188.327 333.231C188.865 332.985 189.325 332.595 189.656 332.105C189.656 332.105 198.536 318.87 201.021 315.196Z" fill="#311D00"/>
<path id="Vector_56" d="M254.813 223.61C255.633 224.053 255.732 224.225 256.675 225.89C257.265 226.931 258.913 230.498 258.913 230.498C261.898 228.235 264.735 226.62 270.057 224.693C286.974 217.821 307.203 213.77 325.063 210.203L326.424 209.933C329.335 209.465 330.114 207.686 329.893 206.169C329.65 205.175 329.039 204.31 328.184 203.749C327.329 203.187 326.293 202.971 325.284 203.143C302.972 206.743 277.167 213.41 264.727 218.617C261.27 219.96 257.95 221.632 254.813 223.61V223.61Z" fill="#311D00"/>
<path id="Vector_57" d="M208.549 288.333L208.492 288.398C207.442 289.661 209.188 291.465 209.557 291.818C211.148 293.359 213.707 294.344 214.92 293.376L223.94 279.051C221.813 277.112 219.86 274.991 218.102 272.712C210.665 284.774 208.705 288.03 208.574 288.292L208.549 288.333Z" fill="#311D00"/>
<path id="Vector_58" d="M345.792 201.38C345.792 201.38 347.604 205.603 347.604 208.547C351.13 208.883 358.01 209.539 360.642 210.113C363.545 210.113 364.053 208.186 364.135 207.342C364.283 205.767 363.406 203.865 361.93 203.652H361.839H361.749C359.675 202.914 349.695 201.758 345.792 201.38Z" fill="#311D00"/>
<path id="Vector_59" d="M217.372 313.351C216.746 313.374 216.121 313.282 215.527 313.081C215.534 313.798 215.613 314.512 215.765 315.213C219.16 315.729 220.824 313.573 221.021 311.998H220.751C220.865 309.825 219.111 307.71 216.7 306.939C215.934 308.467 215.527 310.15 215.511 311.859C216.115 312.158 216.767 312.349 217.438 312.425C217.399 312.732 217.377 313.042 217.372 313.351V313.351Z" fill="#311D00"/>
<path id="Vector_60" d="M213.321 314.467C213.559 314.581 213.682 314.762 213.903 314.836C213.718 314.029 213.633 313.203 213.649 312.376C213.223 312.08 212.886 311.966 212.673 311.556V310.383C213.009 310.736 213.272 310.744 213.608 311.023C213.605 309.521 213.965 308.041 214.658 306.709C214.006 306.643 213.347 306.72 212.728 306.935C212.109 307.15 211.544 307.499 211.074 307.956C211.074 307.956 209.951 312.572 213.321 314.467Z" fill="#311D00"/>
<path id="Vector_61" d="M354.386 200.175L344.546 177.871L342.307 178.773C341.791 177.764 340.831 177.379 339.24 177.223C257.38 30.9513 5.18052 112.025 65.8605 305.61C69.6648 317.698 74.5299 329.426 80.3991 340.657C79.6361 343.74 79.6361 346.963 80.3991 350.046C82.0391 356.245 83.4167 360.05 88.4105 371.03C86.3687 378.476 93.3305 389.414 110.214 386.167C130.28 383.059 140.768 375.794 143.203 373.941C143.875 374.408 144.548 374.9 145.22 375.392C180.8 403.149 238.995 405.363 260.496 372.506C269.057 374.252 279.749 372.817 279.749 372.817C290.885 372.079 299.856 369.103 306.859 364.478C306.039 363.092 305.178 361.682 304.399 360.206C295.379 366.29 282.455 369.529 264.268 368.053L263.112 367.897C266.168 361.643 268.005 354.864 268.524 347.922C267.179 347.701 265.793 347.455 264.358 347.234C264.622 352.619 263.863 358.006 262.119 363.109C261.043 366.19 259.538 369.105 257.65 371.768C257.65 371.768 257.65 371.768 257.691 371.768C253.403 378.08 247.586 383.203 240.783 386.659C213.854 400.706 172.034 392.497 147.738 374.408C133.798 364.002 125.647 364.314 112.314 368.34C97.5535 372.818 98.1357 364.24 98.1357 364.24C85.7619 346.692 74.4049 327.906 64.6797 292.482C41.3671 199.142 93.7979 133.681 160.956 112.14C230.32 100.332 283.726 139.314 306.006 177.026C305.348 177.379 304.786 177.885 304.366 178.502C302.152 181.963 304.973 187.735 305.186 188.252C305.186 188.252 309.286 199.97 310.532 203.66L312.992 203.192L306.957 186.44C304.563 180.782 307.244 178.683 307.244 178.683C306.531 180.782 307.113 183.201 307.515 184.472C308.294 186.932 310.934 194.205 313.123 199.789C313.55 200.888 313.943 201.938 314.288 202.946C314.936 202.815 315.583 202.676 316.256 202.569C314.378 196.928 311.803 190.335 311.024 188.137C310.352 186.309 310.04 185.612 309.187 182.66C308.048 178.658 309.614 178.56 311.311 178.437C312.279 178.363 315.165 178.437 315.92 178.437C317.666 177.494 321.405 175.64 323.636 174.517C296.74 129.048 242.825 98.6505 172.141 108.983C227.901 95.4279 291.221 111.492 329.335 165.792C331.344 169.171 333.066 171.032 336.1 177.1H334.739C332.615 174.099 330.466 173.139 327.851 173.09C327.711 173.09 322.635 173.09 323.283 178.24C323.517 179.759 323.952 181.24 324.579 182.643V182.643L328.359 190.605L329.368 192.729L333.008 200.109C333.008 200.109 335.714 205.496 335.87 208.358L345.669 208.539C345.669 208.539 345.825 205.546 343.726 200.199C342.201 196.354 337.641 182.258 336.141 179.445C336.122 179.397 336.1 179.351 336.075 179.306C337.251 179.305 338.425 179.404 339.585 179.601C341.512 184.521 344.308 192.91 346.456 199.527L347.276 199.568L348.974 199.707C348.974 199.707 348.974 199.642 348.933 199.593C349.802 199.634 353.172 199.929 354.386 200.175ZM82.1457 343.896C88.7877 356.09 94.6179 363.83 96.4137 365.659C96.4793 365.954 96.5449 366.241 96.6105 366.479C96.4793 368.25 96.8565 373.523 107.172 371.604C104.015 377.615 92.3383 374.285 94.6015 366.282C92.9205 364.183 88.8041 357.5 88.8041 357.5C88.6073 357.541 88.9845 359.493 88.9599 359.353L92.7647 367.225C90.9197 378.943 107.73 379.82 108.96 371.235C109.009 371.235 109.025 371.235 109.05 371.186C109.919 371.03 109.944 371.186 110.526 370.85C109.788 374.359 108.132 376.286 106.139 377.295C102.523 379.107 101.465 382.321 106.959 381.92C112.453 381.518 122.391 379.952 134.085 374.269L136.545 372.932C131.625 369.816 126.418 369.308 122.859 369.037C120.087 368.857 115.635 369.595 112.412 370.243L113.019 370.07C126.418 365.642 134.667 368.43 141.309 372.662C140.907 372.932 140.415 373.285 139.948 373.621C134.019 377.893 120.128 383.059 107.787 384.224C95.2329 386.257 88.2383 377.451 90.6737 370.735L89.9767 369.037C89.2797 367.406 81.2437 351.014 82.1457 343.896ZM337.609 191.786C338.502 195.681 335.682 197.78 332.885 194.558C331.846 193.346 331.093 191.917 330.68 190.376L330.589 190.13C330.303 188.914 330.22 187.658 330.343 186.415C329.06 185.271 328.024 183.875 327.301 182.315C325.661 177.395 327.301 176.296 328.039 176.034C330.745 175.362 334.525 179.388 334.255 185.423C335.755 186.94 336.846 188.342 337.609 191.786V191.786Z" fill="#311D00"/>
<path id="Vector_62" d="M337.609 191.786C336.846 188.342 335.755 186.932 334.255 185.431C334.525 179.396 330.745 175.37 328.039 176.042C327.301 176.305 325.645 177.428 327.301 182.324C328.024 183.884 329.06 185.279 330.344 186.424C330.22 187.667 330.303 188.922 330.589 190.138L330.68 190.384C331.093 191.926 331.846 193.355 332.885 194.566C335.682 197.781 338.502 195.681 337.609 191.786ZM330.917 184.989C329.491 184.07 327.318 180.938 327.637 178.388C330.991 178.437 332 183.308 330.917 184.989V184.989ZM334.386 194.091C332.699 192.461 331.719 190.236 331.655 187.891C334.32 188.433 335.928 191.737 334.386 194.091V194.091Z" fill="white"/>
</g>
</g>
</g>
<defs>
<clipPath id="clip0">
<rect width="410" height="316.938" fill="white" transform="translate(45 91)"/>
</clipPath>
</defs>
</svg>
