<svg xmlns="http://www.w3.org/2000/svg" width="500" height="500" viewBox="0 0 500 500"><g fill="none"><path d="M0 0h500v500h-500z"/><path fill="#FFB612" d="M248.689 102.258c-121.249.011-223.689 67.942-223.689 148.351 0 83.703 96.171 146.82 223.689 146.82 74.424 0 144.985-26.149 188.756-69.942 24.094-24.102 37.344-51.413 37.318-76.878-.032-39.647-23.362-76.883-65.691-104.863-42.44-28.048-99.392-43.488-160.383-43.488"/><path fill="#203731" d="M92.26 348.926c-38.902-25.938-60.332-60.865-60.332-98.317 0-75.331 101.293-141.416 216.762-141.426 120.775-.005 219.078 63.438 219.152 141.426.021 23.628-12.513 49.187-35.296 71.984-42.497 42.52-111.226 67.911-183.855 67.911-60.68 0-116.238-14.771-156.429-41.578"/><path fill="#FFFFFE" d="M345.728 211.757c-17.414-25.928-55.542-43.909-100.44-43.909-61.622 0-111.589 33.884-111.589 75.678 0 41.788 35.27 78.483 111.589 78.441 45.83-.021 82.679-19.808 99.892-45.798l-130.177.226-.4-33.805 225.969-.079c.305 2.71.621 5.352.621 8.099 0 65.069-86.19 117.814-192.504 117.814-106.309 0-192.494-52.745-192.494-117.814 0-65.069 91.301-119.808 192.494-120.203 84.226-.321 155.824 34.468 181.934 81.298l-84.895.053"/></g></svg>