<svg xmlns="http://www.w3.org/2000/svg" width="500" height="500" viewBox="0 0 500 500"><g fill="none"><path d="M0 0h500v500h-500z"/><path fill="#FFFFFE" d="M249.659 439.348c-36.435.163-64.374-10.241-77.746-17.299-26.199-13.752-47.785-31.959-66.37-57.229-26.709-36.226-31.879-65.395-34.007-81.28-1.251-8.271-2.738-28.15.053-45.984 3.158-25.732 9.006-38.549 13.189-51.092 3.253-8.917 13.746-30.378 19.973-40.22 5.291-7.714 14.954-21.928 18.895-26.946 1.077-1.576-.321-.83-.914-.814-1.445.352-2.191.441-3.305.352-.835 0-2.506-.279-3.436-.557-5.202-1.109-12.637-6.873-11.707-16.91-.184-2.228 2.228-21.36 4.088-27.309 2.417-8.355 7.43-12.259 16.352-13.005 4.456 0 23.22-.373 31.743.956 17.067 1.697 29.562 6.663 36.992 21.713 5.948 13.189 3.909 33.814-4.267 49.605-2.79 5.386-8.36 15.423-13.194 21.923-4.456 6.5-6.316 9.853-10.22 17.094-3.899 7.614-16.904 36.042-21.36 54.618-8.481 34.671-3.72 54.623 12.627 81.753 12.08 18.018 26.199 31.029 37.16 36.972 18.023 11.329 42.635 14.493 55.457 14.493 12.821 0 37.433-3.163 55.462-14.493 10.956-5.943 25.075-18.954 37.15-36.972 16.352-27.13 21.113-47.082 12.637-81.753-4.456-18.575-17.466-47.004-21.365-54.618-3.899-7.241-5.759-10.594-10.22-17.094-4.824-6.5-10.404-16.537-13.194-21.923-8.171-15.79-10.21-36.415-4.267-49.605 7.425-15.05 19.931-20.015 36.992-21.713 8.518-1.329 27.287-.956 31.743-.956 8.922.746 13.94 4.65 16.352 13.005 1.855 5.948 4.277 25.081 4.088 27.309.93 10.037-6.5 15.801-11.707 16.91-.92.279-2.601.557-3.436.557-1.114.089-1.855 0-3.305-.352-.594-.016-1.991-.762-.914.814 3.941 5.018 13.599 19.232 18.901 26.946 6.221 9.842 16.72 31.302 19.967 40.22 4.183 12.543 10.031 25.359 13.189 51.092 2.79 17.835 1.303 37.713.058 45.984-2.133 15.885-7.293 45.054-34.013 81.28-18.585 25.27-40.171 43.478-66.365 57.229-13.373 7.057-41.311 17.13-77.752 17.299"/><path fill="#002C5F" d="M249.459 403.537c2.412 0 4.372-1.955 4.372-4.367 0-2.417-1.96-4.377-4.372-4.377-2.417 0-4.372 1.96-4.372 4.377 0 2.412 1.955 4.367 4.372 4.367zm-116.378-55.364c2.417 0 4.372-1.955 4.372-4.372s-1.955-4.377-4.372-4.377c-2.412 0-4.372 1.96-4.372 4.377s1.96 4.372 4.372 4.372zm-26.005-101.064c2.412 0 4.372-1.96 4.372-4.372 0-2.422-1.96-4.377-4.372-4.377-2.417 0-4.372 1.955-4.372 4.377 0 2.412 1.955 4.372 4.372 4.372zm51.274-118.909c2.417 0 4.372-1.955 4.372-4.372s-1.955-4.372-4.372-4.372-4.377 1.955-4.377 4.372 1.96 4.372 4.377 4.372zm212.295 215.602c0-2.417-1.96-4.377-4.372-4.377s-4.377 1.96-4.377 4.377 1.965 4.372 4.377 4.372 4.372-1.955 4.372-4.372zm26.01-101.064c0-2.422-1.96-4.377-4.377-4.377-2.412 0-4.372 1.955-4.372 4.377 0 2.412 1.96 4.372 4.372 4.372 2.417 0 4.377-1.96 4.377-4.372zm-51.274-118.909c0-2.417-1.96-4.372-4.377-4.372s-4.372 1.955-4.372 4.372 1.955 4.372 4.372 4.372 4.377-1.955 4.377-4.372zm-177.189 285.952c-23.777-14.114-45.331-31.949-66.139-66.278-9.29-16.952-30.839-52.994-20.214-115.788 12.259-57.413 36.94-86.398 51.059-106.277 6.684-9.658-.189-15.233-5.58-13.189-4.514 1.713-7.614 1.823-7.614 1.823-7.987-1.082-6.873-6.279-5.386-19.847l1.86-11.145c1.666-9.847 6.127-9.663 17.829-9.437 18.58.368 21.922.52 31.958 2.375 13.378 2.974 30.839 16.353 17.093 53.136-8.549 19.695-17.466 26.379-27.129 46.82-10.404 22.669-35.668 73.572-18.575 117.049 23.409 58.338 68.74 79.147 111.843 79.893 43.103-.562 92.89-26.016 112.805-79.893 17.093-43.478-8.171-94.38-18.58-117.049-9.658-20.441-18.575-27.125-27.124-46.82-13.746-36.783 3.72-50.162 17.093-53.136 10.031-1.855 13.378-2.007 31.958-2.375 11.702-.226 16.168-.41 17.839 9.437l1.855 11.145c1.482 13.568 2.601 18.765-5.386 19.847 0 0-3.1-.11-7.619-1.823-5.391-2.044-12.269 3.531-5.58 13.189 14.124 19.879 38.794 48.864 51.059 106.277 10.625 62.794-10.924 98.836-20.214 115.788-20.803 34.329-42.357 52.164-66.139 66.278-32.552 22.674-93.484 21.366-81.782 20.63 12.264.93-44.774 2.412-81.188-20.63z"/></g></svg>