<svg xmlns="http://www.w3.org/2000/svg" width="500" height="500" viewBox="0 0 500 500"><g fill="none"><path d="M0 0h500v500h-500z"/><path fill="#000" d="M177.992 248.869c.977.762 4.691 3.049 5.452 3.811 0 0 2.499-1.638 4.463-2.07 0 0-4.248 3.049-5.224 4.698 0 0 1.851-.978 3.157-.978 0 0 3.373 2.07 5.542 2.07 2.181 0 6.315-.66 6.315-.66s2.396-1.627 5.02-1.854c0 0-2.737 1.854-3.384 2.73 0 0 1.09-.114 1.749.33.647.432 2.828.865 4.793.102 1.953-.762 3.907-1.524 3.805-3.925-.114-2.4-1.522-5.233-1.522-5.233s2.567-2.15 3.986-2.821c-.341.046-3.123.466-4.861 1.183 0 0-2.169-4.368-4.463-5.779-2.294-1.411-4.577-1.638-7.076-.546-2.51 1.092-6.224 2.15-6.224 2.15s-3.43 1.649-3.884 2.309c.068-.159.693-1.456 1.613-2.173 0 0-3.146.011-5.452.114-2.283.102-4.781.33-5.111 2.503-.318 2.184.329 3.276 1.306 4.038zm32.539 26.71c-2.385-2.48-4.713-3.299-6.11-1.923 0 0-.704-2.639-2.317-3.356-1.624-.717-2.726-.58-2.726-.58s-6.315 1.263-8.916 2.867c.511-.33 4.691-3.037 6.178-3.993l-3.509.808s-3.691.011-7.121-.262c-3.419-.262-11.323-1.081-12.788-.796 0 0 .988-.683 1.579-1.035-.159 0-2.748.023-4.463 1.411 0 0-5.258.546-6.269 4.095-1.022 3.561 1.59 6.086 2.351 6.643 0 0 1.056-1.661 3.191-2.707 0 0-1.215 1.968-1.17 3.606 0 0 4.486 2.378 13.436 3.618 8.961 1.24 8.314.58 11.46 2.537 0 0 3.328-2.355 5.168-2.912 0 0-2.589 3.686-2.828 5.062 0 0 4.157 3.549 7.587 3.811 3.441.273 6.383-1.058 6.019-4.607l1.238-1.524-2.192.159.636-1.194s-.102-1.809-1.102-3.208c.17.091 1.885 1.024 3.509.58l-.477.899s1.874-.216 3.26-2.594l-1.136-.307s-.091-2.616-2.487-5.096zm143.795 77.924c-2.465 4.653-5.486 9.01-9.006 12.923-6.008 6.678-13.402 11.967-21.499 15.778-8.416 3.959-18.013 6.837-27.371 7.201 1.67-1.786 3.339-3.561 4.986-5.335-9.211 1.604-18.762 1.866-27.984.046 1.124-.83 2.647-2.093 2.817-3.572-.636-.057-1.317-.364-1.908-.569-1.579-.557-3.112-1.229-4.611-1.968-5.531-2.707-10.63-6.302-15.287-10.329-8.155-7.053-15.026-15.539-20.795-24.64-3.487-5.495-6.303-11.399-10.165-16.643-3.316-4.493-7.166-8.577-11.403-12.195-6.621-5.688-14.185-10.204-22.147-13.708-12.857-5.642-25.611-11.74-37.684-18.941-3.396-2.025-6.724-4.164-9.983-6.416-6.917-4.823-13.663-10.227-19.398-16.415l-.386-.421c.159-.137 1.374-1.183 1.999-1.695 1.079-.865 2.203-1.672 3.35-2.446 1.079-.739 3.578-2.07 3.578-2.07l.034-.023v.034c-.034.353-.045.728-.011 1.16 0 0 1.249-1.365 2.408-2.002 0 0-1.885 2.946-2.101 5.153 0 0-.42 3.674 3.044 5.563 3.453 1.888 8.609 3.367 10.074 4.516 0 0 2.624-1.888 4.089-2.514 0 0-3.464 3.356-4.407 6.507 0 0 2.101-1.991 3.26-2.412 0 0 3.248 2.412 5.236 2.196 1.988-.205 4.827-.102 5.974-2.73 1.158-2.616.943-3.037 1.476-3.879 0 0-1.897 1.16-3.26 2.412 0 0 .636-2.616 3.26-4.619 2.612-1.991 3.884-2.309 3.884-2.309s6.19-8.202-1.045-12.195c0 0 3.555-1.786 5.554-3.037 0 0-5.781 1.467-7.666 2.093 0 0-4.293-.842-6.599-.842-2.317 0-6.292-.307-8.075-.842-1.783-.523-3.566-1.149-3.566-1.149s1.045-.626 1.885-.842c0 0-4.066-.307-6.474 3.515l-.034-.011c.011-.307.148-1.786 1.261-3.185 0 0-2.135.978-3.339 2.332l-.034-.011c-.795-.296-1.601-.546-2.408-.796-1.283-.387-2.589-.728-3.896-1.035-.863-.205-1.738-.41-2.624-.58 6.814-4.516 14.356-7.883 22.113-10.511 2.589-.876 8.086-2.446 8.086-2.446 1.102 1.047 2.215 1.843 2.215 1.843s3.691-.887 5.463-1.581c0 0-3.702 2.605-6.587 3.856 0 0 4.395-.148 5.906-.421l-.681 1.524s1.919 1.502 6.44.819c4.52-.683 7.405-1.649 7.405-3.993 0-2.332-.557-3.435.136-5.768 0 0-1.647.273-2.885 0 0 0 2.612-1.513 3.566-3.151 0 0-.239-1.479-.954-2.946l-.011-.011c3.623-.387 7.269-.705 10.892-.921-.454-.535-.943-1.035-1.465-1.513-3.646-3.367-8.745-5.529-13.322-6.996 9.109-1.217 18.319-1.581 27.485-1.9 5.247-.193 10.494-.319 15.73-.375-1.102-.921-2.624-1.456-3.941-1.979 3.078-.353 6.292-.057 9.37.171-2.624-1.32-5.599-2.07-8.404-2.901-1.976-.58-3.964-1.138-5.951-1.661l.239.011.227.023.045.011c7.223.956 14.889 2.173 23.283 3.674 53.811 9.613 89.314 24.162 104.783 31.454 4.089 1.854 6.871 3.265 8.291 4.004 1.283.375 3.066.58 3.964-.728.17-.239.295-.489.386-.728l.011-.023c.159.023.284.034.375.023 3.373-.205 6.667-.535 9.938-1.433.92-.25 1.829-.535 2.737-.842 1.851-.637 3.646-1.388 5.417-2.207-.091 0-2.998-3.777-3.339-4.152-2.612-2.935-5.542-5.608-8.768-7.883.432-.125.897-.262 1.363-.375.466-.114.954-.182 1.42-.171-2.589-2.571-5.792-4.619-8.836-6.53-1.124-.728-2.283-1.411-3.43-2.082l-.988-.592-.704-.421c-1.317-.762-2.646-1.513-3.986-2.23 8.223 2.798 16.378 6.006 24.373 9.453.613.262 1.215.523 1.817.785 6.678 2.901 13.447 6.018 19.466 10.113 1.329.899 2.589 1.888 3.737 2.98l.125.114c2.362 1.786 3.998 4.471 5.043 7.212.5 1.331.875 2.73 1.056 4.141.068.478.25 5.199-.068 5.187-.432-.023-.863-.034-1.295-.046-3.43-.046-6.86.319-10.222.978-6.008 1.194-11.607 3.47-17.32 5.597-4.134 1.547-8.075 3.595-12.277 5.005-5.951 2.002-12.232 2.969-18.524 2.491-6.496-.489-12.845-2.343-18.319-5.915-4.145-2.707-7.712-6.211-10.733-10.102-2.157-2.787-4.055-5.768-5.656-8.907 8.257 2.98 14.753 5.665 19.432 7.747 4.134 1.763 6.951 3.106 8.382 3.811 1.283.353 3.078.512 3.952-.808 1.817-2.753-1.511-4.948-1.511-4.948s-40.875-19.987-115.799-28.235c-8.802-.967-16.957-1.649-24.475-2.116 7.394.796 15.378 1.832 23.998 3.174 13.163 2.048 25.247 4.425 36.219 6.928-1.204.159-2.385.387-3.555.694-2.26.603-4.418 1.524-6.428 2.742-3.737 2.275-6.758 5.574-9.052 9.271-4.634 7.463-6.826 16.688-7.144 25.402-.386 10.853 2.351 21.614 5.872 31.784 4.18 12.058 9.574 23.673 16.275 34.537 3.328 5.404 6.962 10.625 11.062 15.448 4.35 5.096 9.324 10.056 15.322 13.15 6.382 3.288 13.457 3.265 20.374 2.218 4.872-.739 9.597-2.685 14.231-4.277 10.892-3.731 22.294-7.747 33.993-6.484 3.861.421 7.973 1.217 11.448 3.037.534.25.466.273.17.842zm85.18-147.806s-6.655-14.629-25.599-27.097c4.747-6.097 6.587-13.423 4.395-19.214-2.271-6.018-18.217-17.007-24.225-20.124-6.008-3.106-14.299-7.679-14.299-7.679s-21.306-12.946-38.047-20.26c-20.182-8.805-56.537-20.533-96.072-12.172 0 0-23.725-7.792-66.622 5.483-15.003 4.129-40.478 10.909-54.765 13.298-21.17 3.538-42.647 3.902-59.285 5.665-8.768.933-14.606-1.012-17.456 3.936-12.527 21.739 24.827 58.529 38.365 64.342-4.009 22.604 1.079 49.348 24.77 76.07 25.758 29.077 61.398 34.594 82.295 50.054 23.453 17.348 28.314 39.258 47.905 59.757 18.024 18.861 53.255 34.946 84.817 19.544 34.231-16.711 40.443-44.605 41.681-49.837.409-2.673-1.136-5.381-4.577-7.042-.579-.273-1.726-.842-3.237-1.638 1.363-5.46 4.838-21.887 1.408-36.209 0 0-9.676 14.186-16.991 22.035-2.044-1.923-11.437-11.444-9.881-22.729 4.293-1.706 9.279-4.038 13.084-6.905 2.192-1.661 4.134-3.31 5.894-4.926 19.262-5.529 23.589-13.503 23.589-13.503.716 1.957 3.146 4.459 3.146 4.459 2.839-1.604 6.621-4.459 6.621-4.459.363 2.321.318 6.427.318 6.427 1.431-.535 2.828-.66 2.828-.66-1.431 7.133-9.767 19.225-9.767 19.225 29.222-8.384 41.522-29.998 41.522-29.998l-.011-.114c1.102-.228 1.874-.523 1.874-.523s19.614-5.586 28.62-24.845-7.28-37.927-12.3-40.361zm-252.258 36.516s-3.146.011-5.452.114c-2.283.102-4.781.33-5.111 2.503-.318 2.184.329 3.276 1.306 4.038.977.762 4.691 3.049 5.452 3.811 0 0 2.499-1.638 4.463-2.07 0 0-4.248 3.049-5.224 4.698 0 0 1.851-.978 3.157-.978 0 0 3.373 2.07 5.542 2.07 2.181 0 6.315-.66 6.315-.66s2.396-1.627 5.02-1.854c0 0-2.737 1.854-3.384 2.73 0 0 1.09-.114 1.749.33.647.432 2.828.865 4.793.102 1.953-.762 3.907-1.524 3.805-3.925-.114-2.4-1.522-5.233-1.522-5.233s2.567-2.15 3.986-2.821c-.341.046-3.123.466-4.861 1.183 0 0-2.169-4.368-4.463-5.779-2.294-1.411-4.577-1.638-7.076-.546-2.51 1.092-6.224 2.15-6.224 2.15s-3.43 1.649-3.884 2.309c.068-.159.693-1.456 1.613-2.173zm23.283 33.365c-2.385-2.48-4.713-3.299-6.11-1.923 0 0-.704-2.639-2.317-3.356-1.624-.717-2.726-.58-2.726-.58s-6.315 1.263-8.916 2.867c.511-.33 4.691-3.037 6.178-3.993l-3.509.808s-3.691.011-7.121-.262c-3.419-.262-11.323-1.081-12.788-.796 0 0 .988-.683 1.579-1.035-.159 0-2.748.023-4.463 1.411 0 0-5.258.546-6.269 4.095-1.022 3.561 1.59 6.086 2.351 6.643 0 0 1.056-1.661 3.191-2.707 0 0-1.215 1.968-1.17 3.606 0 0 4.486 2.378 13.436 3.618 8.961 1.24 8.314.58 11.46 2.537 0 0 3.328-2.355 5.168-2.912 0 0-2.589 3.686-2.828 5.062 0 0 4.157 3.549 7.587 3.811 3.441.273 6.383-1.058 6.019-4.607l1.238-1.524-2.192.159.636-1.194s-.102-1.809-1.102-3.208c.17.091 1.885 1.024 3.509.58l-.477.899s1.874-.216 3.26-2.594l-1.136-.307s-.091-2.616-2.487-5.096zm211.451-77.447s-5.781 7.144-8.643 4.948c-2.873-2.196 1.499-5.13.579-10.853-.909-5.711-19.614-24.959-43.237-39.156 0 0 10.926 4.528 21.488 10.136l.25.125c2.328 1.183 4.793 2.594 7.098 4.027 3.169 1.934 6.019 3.891 8.143 5.768 0 0 4.293-5.244 1.726-11.364-.136-.341-.318-.694-.511-1.047l-.08-.137c-.398-.694-.875-1.399-1.42-2.116-.477-.319-1.158-.717-1.919-1.012-1.488-.569-2.896-.808-3.884-1.297 0 0-2.271-2.309-3.032-3.413 0 0-.239 1.012.386 2.207 0 0-1.749-1.536-3.35-1.877-1.601-.33-3.532-.978-4.032-1.354-.488-.375-1.476-1.24-1.476-1.24s.045.785.284 1.365c0 0-1.647-.125-1.931-1.854-.284-1.729 1.068-2.434 1.068-2.434s-.125-.489 0-1.103c0 0 1.476 1.638 2.181 2.059 0 0 .318-1.047-.284-2.844l-.545-.307c-.545-.296-1.079-.569-1.579-.796-.42-.193-24.759-14.015-36.298-19.817-.852-.08-2.022-.262-3.26-.683 0 0-1.931-.899-2.249-1.82 0 0-.136.478.148 1.001.488.887 1.522 1.832 1.829 3.06 0 0-1.919-1.138-3.498-1.957-1.386-.717-4.293-1.547-5.94-2.776-.341-.25-.602-.512-.784-.762l-.182-.228c-.17-.25-.273-.501-.341-.717l-.068-.284-.023-.125-.023-.307.011-.216.091.068.08.068.114.091c.693.592 1.431 1.251 2.294 1.49l.216.057-.08-.102-.091-.102-.216-.25c-.442-.489-1.056-1.274-1.567-2.275-9.427-4.675-20.693-9.647-35.935-12.65-21.931-4.334-36.65-.683-36.65-.683s4.327.262 13.345 3.424c.568-.182 1.329-.489 1.999-.967 1.296-.933 2.135-1.115 2.692-1.115.557 0 2.953 2.867 2.953 2.867s-.261-2.218-.727-4.084c0 0 2.362-.205 3.26 0 1.317.307 2.408.751 2.873.751.467 0 .659-.557.659-.557s.829.546.829 1.206c0 0 1.863 1.297 1.863 2.514 0 1.206-.284 2.787 0 3.538 0 0-.466.273-1.215-.933 0 0-1.204 1.024-2.408 1.024-.568 0-1.079.137-1.476.296 4.157 1.866 8.859 4.152 14.151 6.985 0 0 .602.421 1.045.751 0 0 .432-1.763.716-2.036 0 0 .545.489.659.774 0 0 .102-.774-.057-1.649 0 0 1.476-1.206 2.624-1.32 1.158-.114 1.601-.114 1.976-.33 0 0 .261-.921-.125-1.911 0 0 1.931 1.126 2.317 2.571 0 0 .17-.876.114-1.763 0 0 2.022-.33 3.509.057 1.476.375 2.476.887 2.805 1.433.329.546 1.249 2.389.738 2.787-.522.398-1.454.557-1.738 1.001-.273.432-.375.819-.761 1.092-.375.273-.886.341-.886.341s-.102 1.524.284 2.298c0 0-.784-.102-1.17-1.035 0 0 .182.865-.375 1.479-.545.603-.92.978-1.464 1.138 0 0-1.353-1.285-1.466-1.786 0 0 .148 3.037-.375 2.469 0 0-2.851-2.525-3.419-2.833 0 0-1.227.182-1.715.125-.5-.046-2.192-.705-2.521-1.263 0 0-.057.66.875 1.32 0 0-.84-.137-1.158-.284 0 0-.488.557-1.363.785 0 0 .875.99 1.261 1.365 0 0-1.726-.307-2.51-1.138 0 0-.999.046-2.101-.284-1.09-.33-1.76-.216-2.748-.057-.988.159-1.147.057-1.863-.114-.716-.159-2.68-1.263-2.68-1.263s.329.876.659 1.16c0 0-.169.717-1.76.273-1.59-.444-1.647-.933-2.465-1.433-.829-.489-1.374-1.206-1.204-1.809.159-.603.659-1.047.659-1.047s.488.444 1.363.83c0 0-1.476-1.866-1.647-2.525 0 0 .772.159 1.158.216 0 0 .273-1.047 2.578-1.536.772-.171 1.42-.273 1.942-.353-6.349-1.991-15.219-4.471-25.463-6.53-.17.193-.307.387-.432.592-.148.239-.273.489-.398.751-.375.774-.659 1.558-1.261 2.07 0 0-4.758-1.49-6.292-2.252 0 0 2.408 1.979 4.09 2.878 0 0-1.444 2.4-6.486 1.843 0 0-2.328 1.012-4.157.819-1.817-.193-4.588-1.399-5.156-2.332-.568-.956-.5-2.912 1.454-4.05 0 0 2.669 1.627 3.986 2.378 0 0-2.351-2.935-2.169-3.879 0 0 .84-.694 1.84-1.297-1.17-.159-2.351-.307-3.543-.432-10.778-1.217-20.307-1.399-28.95-.91.681.99.545 1.911 1.09 2.901.659 1.206-.307 1.752-.307 1.752-.727-.592-3.725-1.866-3.725-1.866 1.136 1.081 2.112 2.582 2.112 2.582-.727.421-2.635.796-4.691.899-2.056.091-4.975 1.797-4.975 1.797-1.227-.364-2.271-1.615-3.305-2.571l-.511-.444-.136-.114-.08-.068-.102-.068c.045.046.091.216.125.33l.011.034.011.034.204.523c.148.341.307.694.488 1.024.522 1.001 1.147 1.945 1.772 2.878l.034.057c.261.421.5.808.704 1.126.091.125.17.239.239.364l.045.08.08.125.091.137.045.08.057.091c-.261-.33-1.079-.489-1.476-.626l-.068-.023c-.681-.273-1.317-.626-1.942-1.024l-.034-.023c-.284-.205-1.113-.956-1.454-.83l-.204.068-.136.034-.261.08-.329.08-.341.08-.488.091c-.295.046-.579.08-.875.102h-.045c-.363.011-.772.023-1.181.011-2.112-.125-4.691-1.923-6.485-3.743-.647-.637-.852-1.342-.863-1.991-1.874.444-3.714.91-5.508 1.399-2.68.626-17.263 3.891-32.164 7.246.091 1.035-.341 2.15-.341 2.73 0 1.035.829 1.82.829 1.82-1.704.137-4.713-1.001-4.713-1.001.852 1.217 3.305 2.616 3.305 2.616s-.352 1.354-1.476 1.82c-1.124.466-1.976.284-3.373.182-1.408-.091-2.624.569-4.407.66-1.783.091-3.964-1.012-3.964-1.012 1.965.182 3.43-1.149 3.43-1.149-2.521-.284-3.305-1.217-3.589-1.775-.204-.41-.829-.967-1.408-1.376-10.937 2.446-19.398 4.346-19.398 4.346-6.939.933-12.539 1.638-12.539 1.638-2.056.148-4.123.273-6.178.387-11.323.603-22.658.341-33.958 1.035-1.681.102-3.339.148-5.02.148h-.068c.92.205 1.84.455 2.748.705 1.238.33 2.465.683 3.691 1.058 4.134 1.24 8.234 2.639 12.277 4.209 1.999.774 3.986 1.593 5.951 2.446 2.09.921 4.157 1.888 6.19 2.912.557-.853 3.066-.853 3.066-.853l-.318-.66s.704.444 1.579.387l.17-.023.636-.239c.284-.182.522-.432 1.079-.614.931-.33 2.226-.193 2.226-.193.352-.637 1.908-1.251 1.908-1.251-.307-.284-.681-.592-.681-.592.625-.102 2.056.193 2.658.262.409-.034.738-.068.863-.137l.057-.034c.17-.137.284-.421.125-.671-.295-.273-.954-.478-1.408-.683-.522-.239-.579-.58-.591-.683l-.023-.046c-.545.114-1.794-.421-1.794-.421s1.045-.057 1.317-.239c.125-.068.375-.193.693-.307.386-.182.875-.341 1.329-.398.829-.102 1.817.66 1.817.66s.875.159 1.749-.171c.897-.307 2.726-.273 2.635-.25-.568.102-1.136.489-1.681.489.443 0 1.045.307 1.397.557 1.624 1.103-.432 2.537-1.488 3.049-1.613-.182-2.612.455-2.612.455s2.078 0 1.976.603c-.114.603-1.045.99-2.033 1.206-.988.216-1.76 1.206-1.76 1.206.443.057.829.489.829.489s-1.045.114-1.204.228c-.17.102-.716 1.32-1.158 1.866-.432.546-1.965.933-1.965.933.704.387 2.953.66 2.953.66-1.238.444-2.692.523-3.191.546.352.216 3.782 2.4 3.907 2.48l.023.011c.182.125 2.976 1.877 3.941 2.446 4.066 2.4 8.257 4.584 12.686 6.234 1.34.444 2.669.956 4.02 1.376 1.499.466 3.021.865 4.543 1.217 1.397.319 2.817.569 4.225.785 2.521.375 5.088.523 7.632.455 2.567-.057 5.122-.41 7.655-.876 2.93-.546 5.838-1.183 8.7-2.014.477-.125.943-.273 1.408-.41 3.952-1.217 7.78-2.969 11.471-4.857.965-.478 1.931-.967 2.873-1.479l.068-.046.068-.023c-.057.068-6.86 5.722-10.199 7.77-.727.444-1.465.887-2.215 1.32-1.215.694-2.465 1.354-3.714 1.991-1.068.557-2.135 1.069-3.214 1.547-.568.25-1.136.489-1.715.717l-.091.046c-7.087 2.821-14.31 3.788-21.942 4.334-6.565.466-16.127.728-25.906-.489-16.082-2.014-24.577-7.428-24.577-7.428 14.685 2.582 22.453 2.127 25.986 1.536-5.361-3.413-9.972-7.713-15.968-11.478-14.333-8.964-27.882-14.584-42.533-13.23 0 0 4.804 1.183 8.189 5.722-1.056 4.459 4.713 14.356 13.413 21.933 1.511 1.32 3.146 2.742 4.929 4.164-1.567-.034-6.553-.148-6.553-.148 4.611 2.992 16.832 7.019 16.832 7.019-2.68.899-7.291 1.638-7.291 1.638.295.341 9.12 4.926 25.565 5.608 9.018.364 17.99-1.217 26.304-4.744l.193-.091.261-.148.068-.023c-.023.023-.227.25-.659.637-4.997 4.584-11.38 7.36-17.876 9.146-3.498.956-7.076 1.649-10.676 2.093-.557.068-1.102.125-1.67.182-.227.08-.386.182-.443.307-1.772 5.54-1.829 11.524-1.522 17.28.17 3.094.545 6.177 1.102 9.237l.011.046c.398-.398.875-.83 1.42-1.274 0 0 1.647-1.365 4.52-1.786l-.125-.114-.125-.114c-.613-.523-1.556-.785-2.385-.91-.227-.057-.443-.08-.636-.102l.545-.091c1.794-.375 3.918-.705 5.656-.33l.125.023c1.056.239 1.988.944 2.555 1.854l.148.284c.068.125.125.25.17.375l.034.091c.045.125.091.262.114.387l.08.375.011.08.023.387c0 .466-.091.933-.295 1.376-.681 1.513-1.919 4.402-1.919 5.495 0 .501-2.578 2.298-3.271 3.003l-.114.125.216-.011.17-.023c.761-.068 1.511-.205 2.271-.284.42-.034.806-.068 1.113-.068h.034s1.772 3.299 3.146 4.402c1.374 1.092 2.601 3.424 3.021 5.21l.045.011c.17.011.363-.046.568-.125l.068-.023.239-.102.511-.239c.261-.102.511-.216.772-.33l.738-.375.068-.034s-2.589 3.822-5.611 5.62c.193.034 2.601.387 3.793-.125l.034-.011s.204 4.562-4.236 9.476c-.307.341 3.305 4.63 5.52 7.144l.25.296.193.228.466.512.295.341c.159-.137 1.374-1.183 1.999-1.695 1.079-.865 2.203-1.672 3.35-2.446 1.079-.739 3.578-2.07 3.578-2.07l.034-.023v.034c-.034.353-.045.728-.011 1.16 0 0 1.249-1.365 2.408-2.002 0 0-1.885 2.946-2.101 5.153 0 0-.42 3.674 3.044 5.563 3.453 1.888 8.609 3.367 10.074 4.516 0 0 2.624-1.888 4.089-2.514 0 0-3.464 3.356-4.407 6.507 0 0 2.101-1.991 3.26-2.412 0 0 3.248 2.412 5.236 2.196 1.988-.205 4.827-.102 5.974-2.73 1.158-2.616.943-3.037 1.476-3.879 0 0-1.897 1.16-3.26 2.412 0 0 .636-2.616 3.26-4.619 2.612-1.991 3.884-2.309 3.884-2.309s6.19-8.202-1.045-12.195c0 0 3.555-1.786 5.554-3.037 0 0-5.781 1.467-7.666 2.093 0 0-4.293-.842-6.599-.842-2.317 0-6.292-.307-8.075-.842-1.783-.523-3.566-1.149-3.566-1.149s1.045-.626 1.885-.842c0 0-4.066-.307-6.474 3.515l-.034-.011c.011-.307.148-1.786 1.261-3.185 0 0-2.135.978-3.339 2.332l-.034-.011c-.795-.296-1.601-.546-2.408-.796-1.283-.387-2.589-.728-3.896-1.035-.863-.205-1.738-.41-2.624-.58 6.814-4.516 14.356-7.883 22.113-10.511 2.589-.876 8.086-2.446 8.086-2.446 1.102 1.047 2.215 1.843 2.215 1.843s3.691-.887 5.463-1.581c0 0-3.702 2.605-6.587 3.856 0 0 4.395-.148 5.906-.421l-.681 1.524s1.919 1.502 6.44.819c4.52-.683 7.405-1.649 7.405-3.993 0-2.332-.557-3.435.136-5.768 0 0-1.647.273-2.885 0 0 0 2.612-1.513 3.566-3.151 0 0-.239-1.479-.954-2.946l-.011-.011c3.623-.387 7.269-.705 10.892-.921-.454-.535-.943-1.035-1.465-1.513-3.646-3.367-8.745-5.529-13.322-6.996 9.109-1.217 18.319-1.581 27.485-1.9 5.247-.193 10.494-.319 15.73-.375-1.102-.921-2.624-1.456-3.941-1.979 3.078-.353 6.292-.057 9.37.171-2.624-1.32-5.599-2.07-8.404-2.901-1.976-.58-3.964-1.138-5.951-1.661l.239.011.227.023.045.011c7.223.956 14.889 2.173 23.283 3.674 53.811 9.613 89.314 24.162 104.783 31.454 4.089 1.854 6.871 3.265 8.291 4.004 1.283.375 3.066.58 3.964-.728.17-.239.295-.489.386-.728l.011-.023c.159.023.284.034.375.023 3.373-.205 6.667-.535 9.938-1.433.92-.25 1.829-.535 2.737-.842 1.851-.637 3.646-1.388 5.417-2.207-.091 0-2.998-3.777-3.339-4.152-2.612-2.935-5.542-5.608-8.768-7.883.432-.125.897-.262 1.363-.375.466-.114.954-.182 1.42-.171-2.589-2.571-5.792-4.619-8.836-6.53-1.124-.728-2.283-1.411-3.43-2.082l-.988-.592-.704-.421c-1.317-.762-2.646-1.513-3.986-2.23l-.045-.023.057-.011h.17c4.839 0 9.733-.205 14.594-.08.545.011 5.349.228 5.611.25 1.408.091 2.806.193 4.202.319 3.032.273 6.065.614 9.075 1.047l2.249.33c3.827.58 7.643 1.331 11.425 2.173l.114.034c2.078.694 4.373 1.001 6.496 1.547 1.193.319 2.385.626 3.578.956 2.624.717 5.224 1.479 7.802 2.321 1.647.535 3.295 1.081 4.929 1.672.432.148 2.476 1.194 2.771.978.818-.58 5.406-3.777 8.995-4.471 3.952-.762 7.655-2.252 7.655-6.712-.386-4.653-4.055-9.476-8.052-12.695zm-40.796 19.18c-4.6-.421-8.234 1.649-8.234 1.649s13.504 0 18.433 4.277c4.94 4.289 3.623 7.588 3.623 7.588s4.929 7.918 6.258 11.205c0 0 9.211-8.566 9.87-14.504 0 0-17.888-9.112-29.949-10.215zm-56.083 105.215l.693 7.645 5.304 3.458c1.522-6.177-5.997-11.103-5.997-11.103zm-25.723-54.638c-5.044-15.869-23.761-18.941-23.761-18.941s15.332 6.268 15.741 50.634c.136 14.925 4.691 21.239 4.691 21.239-7.734-4.129-9.767-19.362-10.46-31.158-.352-5.995-2.783-35.208-25.088-42.42-13.549-4.391-20.057-.66-20.057-.66s10.449 2.503 16.344 13.264c8.903 16.188 2.566 44.809 9.21 60.098 8.211 18.907 23.237 24.003 23.237 24.003 19.705-10.602 23.93-27.086 23.93-27.086-16.866-8.759-8.757-33.092-13.787-48.973zm57.478 47.198s-11.948 19.168-17.331 23.127c0 0-1.295-3.128-2.873-4.687 0 0-6.553 4.437-7.859 6.871.136-.25-1.181-2.07-1.317-2.309-.738-1.217-1.488-2.412-2.396-3.504-2.612 1.547-5.645 3.8-7.019 6.564 1.102-2.218 1.931-4.493 2.544-6.894.363-1.479.613-2.992.772-4.505.534-5.21-.135-10.511-1.817-15.46 0 0-6.201 15.221-13.345 22.672-7.155 7.44-11.062 9.34-11.516 10.397-.454 1.035-.545 4.812 7.848 3.743 8.382-1.092 14.299-7.349 14.299-7.349s11.482-2.139 21.568-.762c0 0 2.805 3.049 6.792 2.764 3.986-.273 12.277-15.915 11.653-30.669zm-18.217-42.671c1.317 13.503-10.653 25.698-10.653 25.698 19.41-5.46 29.598-21.091 32.732-26.71.329-.83.579-1.513.727-1.957-7.235 1.729-15.23 3.049-22.806 2.969zm71.142-12.047c-2.805-.648-6.258 1.194-8.188 2.434-.365-.762-1.057-1.433-2.363-1.888-3.941-1.331-8.802 2.423-8.802 2.423.409-2.867-3.509-2.048-3.668-2.025-1.158.091-6.019 1.638-8.904 3.253-4.259 1.49-9.881 3.299-16.093 4.801 1.17 6.643.806 11.308.806 11.308 6.599-3.424 12.061-10.466 15.389-15.539.716 3.413 3.589 8.031 3.589 8.031 4.622-2.878 8.734-7.042 8.734-7.042 1.42 2.571 1.181 7.974 1.181 7.974 3.248-1.058 6.157-3.162 8.03-4.744-2.078 11.023-8.734 21.716-8.734 21.716 7.791-2.935 22.669-18.793 23.635-23.116.943-4.311-.477-6.655-4.611-7.588zm28.053-20.613l-.307.046c-1.17.182-3.453-.171-3.146-1.832.182-1.024 1.59-1.888 2.476-2.252 2.521-1.024 4.986-1.991 7.246-3.515.818-.546 1.59-1.138 2.294-1.832.193-.182 1.227-1.012 1.194-1.32-.308-2.548-.978-4.778-1.796-6.678-.273.637-.716 1.49-1.34 2.434-1.386 2.366-3.101 3.458-3.725 3.8-.909.512-2.68 1.047-3.487-.523-.818-1.558 1.431-2.901 1.431-2.901 3.328-2.4 4.668-4.835 5.213-6.427-1.783-2.764-3.498-4.22-3.498-4.22s-4.77 11.933-17.275 18.008c-8.972 4.368-17.206 9.442-22.476 15.482-.738.865-1.431 1.752-2.067 2.662l.102.011c12.675 1.411 18.899 6.78 20.943 9.385.149.182.261.341.363.489l.045-.011c.784-.137 13.504-2.434 21.375-11.126-.284.011-.568.011-.852 0-1.942-.08-9.37.125-7.496-3.618.626-1.251 2.851-.91 3.964-.842 1.908.114 3.805.319 5.713.216 2.635-.148 3.123-2.537 3.782-4.721.625-2.116.999-4.107 1.17-5.984-2.907 3.709-8.132 4.96-9.847 5.267z"/><path fill="#FFFFFE" d="M195.744 239.928c2.499-1.092 4.781-.865 7.076.546 2.294 1.411 4.463 5.779 4.463 5.779 1.738-.717 4.52-1.138 4.861-1.183-1.42.671-3.986 2.821-3.986 2.821s1.408 2.833 1.522 5.233c.102 2.4-1.851 3.162-3.805 3.925-1.965.762-4.145.33-4.793-.102-.659-.444-1.749-.33-1.749-.33.647-.876 3.384-2.73 3.384-2.73-2.624.228-5.02 1.854-5.02 1.854s-4.134.66-6.315.66c-2.169 0-5.542-2.07-5.542-2.07-1.306 0-3.157.978-3.157.978.977-1.649 5.224-4.698 5.224-4.698-1.965.432-4.463 2.07-4.463 2.07-.761-.762-4.475-3.049-5.452-3.811-.977-.762-1.624-1.854-1.306-4.038.329-2.173 2.828-2.4 5.111-2.503 2.306-.102 5.452-.114 5.452-.114-.92.717-1.545 2.014-1.613 2.173.454-.66 3.884-2.309 3.884-2.309s3.714-1.058 6.224-2.15zm18.41 41.055c-1.386 2.378-3.26 2.594-3.26 2.594l.477-.899c-1.624.444-3.339-.489-3.509-.58.999 1.399 1.102 3.208 1.102 3.208l-.636 1.194 2.192-.159-1.238 1.524c.363 3.549-2.578 4.88-6.019 4.607-3.43-.262-7.587-3.811-7.587-3.811.239-1.376 2.828-5.062 2.828-5.062-1.84.557-5.168 2.912-5.168 2.912-3.146-1.957-2.499-1.297-11.46-2.537-8.95-1.24-13.436-3.618-13.436-3.618-.045-1.638 1.17-3.606 1.17-3.606-2.135 1.047-3.191 2.707-3.191 2.707-.761-.557-3.373-3.083-2.351-6.643 1.011-3.549 6.269-4.095 6.269-4.095 1.715-1.388 4.304-1.411 4.463-1.411-.591.353-1.579 1.035-1.579 1.035 1.465-.284 9.37.535 12.788.796 3.43.273 7.121.262 7.121.262l3.509-.808c-1.488.956-5.667 3.663-6.178 3.993 2.601-1.604 8.916-2.867 8.916-2.867s1.102-.137 2.726.58c1.613.717 2.317 3.356 2.317 3.356 1.397-1.376 3.725-.557 6.11 1.923 2.396 2.48 2.487 5.096 2.487 5.096l1.136.307zm181.82-35.686c.068.478.25 5.199-.068 5.187-.432-.023-.863-.034-1.295-.046-3.43-.046-6.86.319-10.222.978-6.008 1.194-11.607 3.47-17.32 5.597-4.134 1.547-8.075 3.595-12.277 5.005-5.951 2.002-12.232 2.969-18.524 2.491-6.496-.489-12.845-2.343-18.319-5.915-4.145-2.707-7.712-6.211-10.733-10.102-2.157-2.787-4.055-5.768-5.656-8.907 8.257 2.98 14.753 5.665 19.432 7.747 4.134 1.763 6.951 3.106 8.382 3.811 1.283.353 3.078.512 3.952-.808 1.817-2.753-1.511-4.948-1.511-4.948s-40.875-19.987-115.799-28.235c-8.802-.967-16.957-1.649-24.475-2.116 7.394.796 15.378 1.832 23.998 3.174 13.163 2.048 25.247 4.425 36.219 6.928-1.204.159-2.385.387-3.555.694-2.26.603-4.418 1.524-6.428 2.742-3.737 2.275-6.758 5.574-9.052 9.271-4.634 7.463-6.826 16.688-7.144 25.402-.386 10.853 2.351 21.614 5.872 31.784 4.18 12.058 9.574 23.673 16.275 34.537 3.328 5.404 6.962 10.625 11.062 15.448 4.35 5.096 9.324 10.056 15.322 13.15 6.382 3.288 13.457 3.265 20.374 2.218 4.872-.739 9.597-2.685 14.231-4.277 10.892-3.731 22.294-7.747 33.993-6.484 3.861.421 7.973 1.217 11.448 3.037.534.25.466.273.17.842-2.465 4.653-5.486 9.01-9.006 12.923-6.008 6.678-13.402 11.967-21.499 15.778-8.416 3.959-18.013 6.837-27.371 7.201 1.67-1.786 3.339-3.561 4.986-5.335-9.211 1.604-18.762 1.866-27.984.046 1.124-.83 2.647-2.093 2.817-3.572-.636-.057-1.317-.364-1.908-.569-1.579-.557-3.112-1.229-4.611-1.968-5.531-2.707-10.63-6.302-15.287-10.329-8.155-7.053-15.026-15.539-20.795-24.64-3.487-5.495-6.303-11.399-10.165-16.643-3.316-4.493-7.166-8.577-11.403-12.195-6.621-5.688-14.185-10.204-22.147-13.708-12.857-5.642-25.611-11.74-37.684-18.941-3.396-2.025-6.724-4.164-9.983-6.416-6.917-4.823-13.663-10.227-19.398-16.415l-.386-.421c.159-.137 1.374-1.183 1.999-1.695 1.079-.865 2.203-1.672 3.35-2.446 1.079-.739 3.578-2.07 3.578-2.07l.034-.023v.034c-.034.353-.045.728-.011 1.16 0 0 1.249-1.365 2.408-2.002 0 0-1.885 2.946-2.101 5.153 0 0-.42 3.674 3.044 5.563 3.453 1.888 8.609 3.367 10.074 4.516 0 0 2.624-1.888 4.089-2.514 0 0-3.464 3.356-4.407 6.507 0 0 2.101-1.991 3.26-2.412 0 0 3.248 2.412 5.236 2.196 1.988-.205 4.827-.102 5.974-2.73 1.158-2.616.943-3.037 1.476-3.879 0 0-1.897 1.16-3.26 2.412 0 0 .636-2.616 3.26-4.619 2.612-1.991 3.884-2.309 3.884-2.309s6.19-8.202-1.045-12.195c0 0 3.555-1.786 5.554-3.037 0 0-5.781 1.467-7.666 2.093 0 0-4.293-.842-6.599-.842-2.317 0-6.292-.307-8.075-.842-1.783-.523-3.566-1.149-3.566-1.149s1.045-.626 1.885-.842c0 0-4.066-.307-6.474 3.515l-.034-.011c.011-.307.148-1.786 1.261-3.185 0 0-2.135.978-3.339 2.332l-.034-.011c-.795-.296-1.601-.546-2.408-.796-1.283-.387-2.589-.728-3.896-1.035-.863-.205-1.738-.41-2.624-.58 6.814-4.516 14.356-7.883 22.113-10.511 2.589-.876 8.086-2.446 8.086-2.446 1.102 1.047 2.215 1.843 2.215 1.843s3.691-.887 5.463-1.581c0 0-3.702 2.605-6.587 3.856 0 0 4.395-.148 5.906-.421l-.681 1.524s1.919 1.502 6.44.819c4.52-.683 7.405-1.649 7.405-3.993 0-2.332-.557-3.435.136-5.768 0 0-1.647.273-2.885 0 0 0 2.612-1.513 3.566-3.151 0 0-.239-1.479-.954-2.946l-.011-.011c3.623-.387 7.269-.705 10.892-.921-.454-.535-.943-1.035-1.465-1.513-3.646-3.367-8.745-5.529-13.322-6.996 9.109-1.217 18.319-1.581 27.485-1.9 5.247-.193 10.494-.319 15.73-.375-1.102-.921-2.624-1.456-3.941-1.979 3.078-.353 6.292-.057 9.37.171-2.624-1.32-5.599-2.07-8.404-2.901-1.976-.58-3.964-1.138-5.951-1.661l.239.011.227.023.045.011c7.223.956 14.889 2.173 23.283 3.674 53.811 9.613 89.314 24.162 104.783 31.454 4.089 1.854 6.871 3.265 8.291 4.004 1.283.375 3.066.58 3.964-.728.17-.239.295-.489.386-.728l.011-.023c.159.023.284.034.375.023 3.373-.205 6.667-.535 9.938-1.433.92-.25 1.829-.535 2.737-.842 1.851-.637 3.646-1.388 5.417-2.207-.091 0-2.998-3.777-3.339-4.152-2.612-2.935-5.542-5.608-8.768-7.883.432-.125.897-.262 1.363-.375.466-.114.954-.182 1.42-.171-2.589-2.571-5.792-4.619-8.836-6.53-1.124-.728-2.283-1.411-3.43-2.082l-.988-.592-.704-.421c-1.317-.762-2.646-1.513-3.986-2.23 8.223 2.798 16.378 6.006 24.373 9.453.613.262 1.215.523 1.817.785 6.678 2.901 13.447 6.018 19.466 10.113 1.329.899 2.589 1.888 3.737 2.98l.125.114c2.362 1.786 3.998 4.471 5.043 7.212.5 1.331.875 2.73 1.056 4.141zm-286.786-109.168c.159.251.045.536-.125.672l-.057.034c-.124.068-.453.102-.864.138-.601-.069-2.033-.364-2.658-.262 0 0 .375.306.681.592 0 0-1.557.614-1.909 1.251 0 0-1.295-.137-2.227.193-.545.182-.785.433-1.069.614l-.636.24-.17.022c-.875.057-1.581-.386-1.581-.386l.319.659s-2.512 0-3.068.854c-2.034-1.024-4.102-1.992-6.193-2.913-1.966-.854-3.956-1.672-5.956-2.447-4.033-1.56-8.136-2.961-12.272-4.2-1.228-.377-2.455-.729-3.695-1.059-.909-.25-1.829-.502-2.75-.706h.068c1.681 0 3.342-.044 5.023-.148 11.307-.695 22.636-.433 33.955-1.035 2.057-.114 4.125-.239 6.183-.388-.342.422-.797 1.116-.206 1.322 0 0 1.147.375 2.578.478 1.354.091 2.864 0 2.864 0s-5.534 2.585-6.203 2.767c-.67.192-1.536 1.057-1.536 1.057l-.044.035-.102.09-.057.046-.102.104c-.318.125-.569.25-.694.317-.271.173-1.32.229-1.32.229s1.252.535 1.797.432l.022.044c.014.092.069.435.592.672.454.206 1.114.411 1.409.683zm47.866 28.445l-.898.468c-1.953 1.218-3.955 2.356-6.046 3.334l-.091.047c-.693.329-1.387.648-2.091.954l-.045.023-.058.023c-1.898.83-3.841 1.582-5.772 2.277-1.522.535-3.068 1.036-4.636 1.479-11.103 3.244-17.864 3.165-17.864 3.165.748.341 1.76.648 2.681.853 3.341.752 11.341 1.457 11.716 1.571l-.261.148-.194.092c-8.318 3.528-17.284 5.109-26.308 4.745-16.442-.681-25.261-5.269-25.567-5.612 0 0 4.613-.739 7.296-1.637 0 0-12.218-4.029-16.832-7.013 0 0 4.99.115 6.558.148-1.784-1.422-3.421-2.846-4.932-4.165-8.704-7.581-14.467-17.472-13.408-21.935-3.387-4.54-8.193-5.725-8.193-5.725 14.646-1.354 28.205 4.269 42.534 13.239 6.001 3.755 10.602 8.057 15.966 11.473-3.534.592-11.296 1.047-25.99-1.537 0 0 8.502 5.419 24.581 7.434 9.784 1.216 19.342.954 25.911.488 7.636-.546 14.852-1.513 21.944-4.336zm290.632 69.91c-.174 1.879-.546 3.871-1.172 5.987-.66 2.185-1.146 4.576-3.784 4.724-1.907.102-3.805-.102-5.715-.216-1.105-.068-3.33-.41-3.955.842-1.879 3.746 5.554 3.54 7.488 3.62.283.011.568.011.853 0-7.864 8.685-20.591 10.983-21.376 11.122l-.047.01-.352-.489c-2.044-2.608-8.273-7.969-20.953-9.38l-.093-.011c.626-.909 1.319-1.797 2.068-2.662 5.262-6.045 13.499-11.121 22.468-15.481 12.509-6.078 17.273-18.018 17.273-18.018s1.715 1.457 3.5 4.224c-.546 1.593-1.888 4.029-5.206 6.432 0 0-2.25 1.341-1.432 2.901.808 1.571 2.579 1.036 3.487.524.616-.342 2.332-1.436 3.72-3.803.625-.945 1.068-1.799 1.339-2.436.82 1.901 1.488 4.132 1.797 6.682.035.306-.999 1.138-1.193 1.32-.705.695-1.48 1.287-2.298 1.833-2.26 1.525-4.726 2.482-7.239 3.506-.885.364-2.293 1.229-2.476 2.254-.308 1.662 1.977 2.015 3.148 1.833l.296-.046c1.716-.306 6.943-1.56 9.852-5.27zm-102.483 111.274c-3.988.284-6.783-2.765-6.783-2.765-10.09-1.378-21.569.762-21.569.762s-5.921 6.261-14.307 7.343c-8.386 1.08-8.297-2.698-7.841-3.735.454-1.059 4.363-2.96 11.511-10.403 7.148-7.444 13.343-22.672 13.343-22.672 1.682 4.951 2.351 10.255 1.818 15.468-.149 1.513-.41 3.017-.773 4.497-.602 2.4-1.432 4.678-2.535 6.896 1.375-2.765 4.4-5.019 7.011-6.567.911 1.092 1.659 2.289 2.4 3.505.136.239 1.454 2.062 1.319 2.312 1.306-2.434 7.865-6.864 7.865-6.864 1.576 1.549 2.863 4.678 2.863 4.678 5.385-3.959 17.342-23.128 17.342-23.128.625 14.764-7.672 30.403-11.663 30.675zm69.196-77.798c-.965 4.315-15.84 20.181-23.637 23.117 0 0 6.659-10.698 8.739-21.715-1.875 1.581-4.785 3.677-8.033 4.735 0 0 .237-5.396-1.185-7.969 0 0-4.112 4.167-8.727 7.035 0 0-2.873-4.611-3.59-8.024-3.329 5.077-8.794 12.112-15.398 15.536 0 0 .363-4.665-.806-11.303 6.215-1.502 11.841-3.311 16.101-4.802 2.876-1.617 7.74-3.166 8.9-3.257.159-.022 4.08-.842 3.67 2.027 0 0 4.864-3.755 8.797-2.425 1.306.456 1.999 1.128 2.363 1.891 1.931-1.241 5.385-3.084 8.192-2.436 4.139.933 5.558 3.279 4.613 7.591zm-52.955 1.493c-.149.443-.398 1.126-.727 1.956-3.126 5.614-13.319 21.252-32.727 26.704 0 0 11.976-12.19 10.649-25.7 7.579.09 15.579-1.23 22.806-2.959z"/><path fill="#D7A22A" d="M372.012 145.703c.942-.24 1.397-.24 1.762-.205 0 0 .045-.57-.41-1.07 0 0 2.672 1.605 3.91 2.891l-.332-1.16s2.137.535 3.126 1.49c.989.945 1.478 2.016 1.773 2.505.283.501 1.07 2.151.739 2.64-.332.501-.819.501-.819.501s-2.967-1.775-3.749-2.151c0 0 1.487 2.312 1.692 2.846 0 0-2.555-.377-3.216-1.275 0 0-2.876-.705-3.908-1.4-1.024-.705-1.854-1.776-1.854-2.356 0 0 1.649.786 2.478 1.161 0 0-2.227-2.686-2.921-3.335 0 0 .773-.83 1.729-1.081zm-2.522-3.701s-2.377-2.094-3.206-2.821c0 0 1.16 2.754 1.341 3.344 0 0-2.239.08-3.455-.863-1.216-.944-2.964-2.06-2.512-2.06 0 0 .546.033 1.002.102 0 0-1.387-1.673-3.762-1.811 0 0-1.445.331-3.105-.512-1.658-.853-2.349-1.719-2.349-1.719s-.91-1.011-1.081-2.31c0 0 1.626 1.139 2.423 1.457 0 0-1.434-2.049-1.434-3.266 0 0 1.023-.206 2.307.284 1.297.489 1.65.102 1.65.102s-.559-.729-.773-1.469c0 0 1.635 1.366 2.331 1.673 0 0 2.023-.626 3.556.033 1.531.661 3.271 2.367 3.545 2.686.261.298 1.296 1.083 1.422 1.174-.103-.138-.909-1.218-1.128-2.072.126.08 1.138.739 1.595.967.485.251 1.421 1.229 1.603 1.854.168.628-.843 1.64-.843 1.64s1.328 1.708 1.328 2.403c0 .693-.452 1.182-.452 1.182zm-11.808 9.892s-1.749-.728-3.282-.728c0 0-.685 1.035-2.308.693-1.626-.329-3.216-1.569-3.216-1.569s1.455.066 2.611.066c0 0-.51-.58-1.885-.875-1.383-.284-2.203-.524-3.181-1.288 0 0-.239.775.41 1.288 0 0-2.183.58-2.546-1.605s-1.603-2.037-.727-3.643c.863-1.582 2.67-1.593 2.727-1.593 0 0-1.558-.957-2.579-1.538 0 0 3.567.945 6.327 2.618 0 0-.214-1.092-.871-1.672 0 0 1.897-.581 4.009.877 2.101 1.456 2.182 2.765 3.785 3.858 1.603 1.093.647 2.777-.08 3.21 0 0 .512 1.309.806 1.901zm-15.068-18.303c-.078 1.012-.808 1.821-2.047 1.968-1.239.138-1.966-.363-2.396.217-.433.58-1.091 1.16-1.751 1.308 0 0-4.216-2.618-6.047-3.573 0 0 1.537 1.969 1.898 2.776 0 0-2.543.217-4.295-.511-1.748-.728-2.919-1.343-4.148-1.879-1.237-.523-2.545-2.276-2.545-2.276s2.036.945 3.127 1.242c0 0-1.818-2.05-1.888-2.698 0 0 1.374-.365 2.033-1.173.616-.751 2.419-1.241 3.785-1.308h.294c1.388 0 4.81 1.821 6.478 3.061 0 0-1.455-2.037-2.545-3.061 0 0 2.614 0 3.273-.216.66-.229 2.182-.377 3.273.137 1.021.478 1.603 1.536 1.67 1.672-.136-.056-1.216-.513-2.033-.717 0 0 0 .877 1.749 2.117 1.751 1.229 2.182 1.89 2.115 2.914zm-12.172 14.956s1.911 1.743 2.41 2.687c0 0-.988.808-1.306 1.388-.308.57-1.16 1.89-2.115 2.254 0 0-1.013 1.309-2.103 1.39-1.09.067-1.829-.183-2.555-.217-.718-.034-3.637 0-5.817-2.186 0 0 3.123.435 3.93.435 0 0-2.773-2.039-3.352-2.914 0 0 .808-.513.726-1.241-.068-.728-.293-1.389.444-2.185 0 0 2.546.877 4.069 1.092 0 0-1.671-1.685-3.341-3.061 0 0 1.035-.104 2.261.386 0 0 .502-.102 1.668-1.045 1.16-.945 3.422-.696 4.728.171 1.308.852 2.547 2.607 2.547 2.607s1.533.796 2.545 2.469c0 0-2.647-1.73-4.739-2.026zm-15.931-13.204s-1.514-.374-2.102-.58c.112.172 1.012 1.467 1.227 2.174 0 0-1.375.911-2.432 1.151-1.056.238-1.354.534-1.932 1.182-.581.661-2.047 1.457-3.501 1.241-1.398-.205-4.181-1.025-4.419-1.082.159.149 1.398 1.366 1.943 2.323 0 0-1.59.795-4.218 1.173 0 0-2.396 0-3.419-.297-1.023-.296-1.966-.809-2.035-1.457-.08-.66.502-1.388.502-1.388s2.112.808 3.353 1.024c0 0-3.128-2.914-4.229-3.722 0 0 2.193.364 3.5.808 0 0-.148-.808-.66-1.685-.509-.865.444-1.74.877-1.967.442-.218 2.475-1.014 2.987-1.378 0 0-1.306-1.093-2.773-1.901 0 0 2.843.295 4.298.728 0 0 1.171.08 2.409-.433 1.238-.512 1.671-.512 2.692-.364 1.012.149 1.137.433 1.809.501.67.081 1.317.013 1.317.013s-.432-.593-1.523-1.025c0 0 2.331.296 3.421 1.025 0 0 1.884.33 2.977 1.399 1.104 1.07-.067 2.538-.067 2.538zm-31.15-7.513c-1.227 1.012-2.726 1.606-2.726 1.606s.181 1.263.897 1.992c0 0-1.375-.125-2.525-.786 0 0-1.021 1.149-1.136 1.628-.124.479-1.624 2.403-2.522 3.061-.898.66-2.761 1.379-2.761 1.379s1.66 2.389 3.035 3.357c-.353-.149-4.977-2.175-6.875-4.132 0 0-.182 1.445.295 2.163 0 0-2.274 1.024-4.853.42-2.432-.568-4.864-2.31-5.136-2.515.284.047 2.533.468 3.988.468 0 0-3.296-1.618-3.897-3.243-.604-1.617-.42-3.483 1.384-4.326 1.797-.842 3.354-.717 3.354-.717s4.328 2.036 6.839 2.639c0 0-3.294-2.163-4.135-3.549 0 0 2.341.068 2.999-.354.658-.422 1.136-1.503 2.398-1.924 1.262-.421 2.582-.546 2.582-.546s-1.195-.661-1.5-1.025c0 0 2.465.66 3.249.66 0 0 2.158.125 3.113.251.965.114 2.762-.49 4.262-.011 1.5.49.896 2.481-.33 3.505zm-40.966-3.3c-.149 1.069-.909 3.813-2.352 4.429-1.456.602-1.842.716-1.842.716v3.176s-2.159-1.935-2.612-2.55c0 0-.58.024-2.103-.204-1.523-.228-3.353 2.367-6.17 2.141 0 0-4.638-.992-5.399-2.904-.76-1.901-.465-3.505-.157-4.04 0 0 1.601 2.059 2.737 2.662 0 0-1.056-2.434-1.056-3.96 0 0 .91-.683 1.056-1.378.159-.683 1.911-1.753 2.978-1.981 1.068-.229 2.114.228 2.114.228s1.25 2.846 2.16 3.916c0 0-.387-5.589.067-7.569 0 0 1.16 2.573 1.774 3.414 0 0 1.272-.135 3.102-.443 1.831-.307 3.421-.149 4.488.91 1.068 1.07 1.375 2.367 1.216 3.438zm-42.683 2.891c-.227 1.969-2.751 3.711-3.432 4.154-.671.456-1.931 1.354-2.307 2.619-.375 1.274-1.716 2.093-2.546 2.174-.817.067-1.931 1.263-1.931 1.263 1.171.286 2.818-.215 3.035-.284-.171.149-1.591 1.298-2.218 1.787-.669.523-2.907 1.048-3.725.968l-4.183-.068c-2.544-.081-5.454-.307-6.329-1.912-.829-1.527-1.182-1.572-1.216-1.572-1.794.82-5.522.787-5.522.787 3.591-1.491 6.659-4.861 6.659-4.861-1.932.82-4.125 1.149-4.125 1.149-.308-.523-.365-1.069-.295-2.196.081-1.115 1.124-1.72 1.124-1.72s.069-.59.818-1.571c.751-.967 3.285-2.309 4.706-2.39 1.42-.08 3.203-.818 4.181-1.49.967-.672 4.398-2.094 6.114-1.948 1.715.149 2.399.445 2.399.445.967-.068 3.124-.445 3.124-.445-2.829 2.243-4.625 3.064-4.625 3.064 3.283-.377 6.124-1.719 6.124-1.719 3.354.228 4.399 1.799 4.172 3.767zm-53.921 9.071s1.375.775 1.455 2.641c.08 1.868-.376 2.686.08 3.961.443 1.274-.308 2.163-2.091 3.21 0 0-1.797.375-3.591.228 0 0 1.352.671 1.943.751 0 0-1.943 1.639-4.704.967 0 0-3.353 2.017-5.898 1.652-2.535-.375-3.126-1.423-3.126-1.423s3.023-.547 5.181-.841c0 0-3.943-.911-5.215-1.652 0 0 .396-1.844 1.227-2.663.819-.832.626-1.037.626-1.037s-3.238-.761-4.432-1.205c0 0 3.806-.582 5-1.025 0 0-.453-.923 1.045-2.117 1.49-1.196 2.762-2.391 3.353-3.074.603-.671 3.512-.739 5.148-.297 1.647.456 1.637.456 2.534.456.898 0 4.716-.374 4.716-.374s-.75 1.183-3.249 1.842zm276.188 61.636c4 3.222 7.67 8.047 8.056 12.702 0 4.451-3.702 5.943-7.659 6.705-3.59.695-8.169 3.894-8.989 4.473-.293.215-2.34-.83-2.772-.979-1.637-.592-3.283-1.138-4.93-1.672-2.58-.843-5.182-1.606-7.797-2.322-1.194-.331-2.385-.638-3.58-.957-2.124-.546-4.42-.854-6.5-1.548l-.112-.034c-3.785-.832-7.592-1.582-11.421-2.163 0 0-2.638-2.39-3.888-4.335-1.25-1.96-1.137-4.03-1.137-4.03 3.16-.193 4.99-1.651 5.457-3.505.555-2.232-1.91-4.052-1.91-4.052l-.149-.057c-3.431-3.064-14.896-5.43-23.091-5.327-2.829.033-5.908.511-8.967 1.229h-.022c4.613-2.197 17.999-3.516 20.624-3.301 2.637.229 6.149.661 6.149-.876s-1.534-7.035-5.705-15.379c-2.772-5.542-7.261-10.185-9.988-12.69-.91-.945-1.91-1.879-3.047-2.846l.069.137.111.205.092.195.126.226.228.479.135.284.271.614c.284.661.603 1.456.91 2.346.308.888.592 1.855.83 2.879.08.341.148.683.204 1.035l.056.388c.455 2.788.365 5.816-1.021 8.411-.092.195-.206.387-.318.569v.011c-.204.307-.422.604-.65.899-.24.297-.5.581-.781.854l-.241.206h-.01c-4.251 1.57-8.808 2.083-13.173.579-.723-.249-1.475-.511-2.201-.819-.275-.114-.537-.239-.808-.375-4.377-2.197-8.34-5.384-12.218-8.354-6.647-5.1-13.6-9.595-21.328-12.839.396-.274.67-.422.67-.422-.024-.206-.059-.432-.102-.671-.057-.273-.112-.557-.181-.796l-.047-.172-.044-.192-.069-.217-.057-.217c.659.457 1.124 1.026 1.386 1.424l.126.182.159.286c1.306-.446 3.612-1.857 4.045-2.778.419-.923 1.055-3.209.853-3.951-.217-.738-2.535-1.946-3.821-2.083-1.283-.135-3.011.719-3.011.719-1.271-.433-2.999-.662-2.999-.662s-7.556-.853-12.933 3.04l.444.274.148.09.308.206.145.09.319.217.101.068.4.273.023.01.304.218.116.09.148.102.1.069.024.022c-1.739-.536-3.478-1.036-5.228-1.525-.057-.489-.202-1.059-.544-1.218-.592-.284-2.454-1.457-2.785-1.615-.328-.171-1.648-.832-2.387-.661-.736.16-.659.957-.818 1.32-.158.321-.363.388-.396.4-3.183-.763-6.387-1.47-9.581-2.084-12.966-2.527-26.239-3.495-39.42-3.984-2.353-.091-4.704-.148-7.056-.148 1.783.776 3.26 2.356 4.239 4.018-2.625-.192-5.252-.342-7.876-.454-1.59-.547-3.83-1.105-6.182-1.025-1.271.044-2.193.444-2.909.909-6.524.125-13.035.742-19.456 2.255-10.239 2.414-20.443 4.963-30.658 7.478l-.251.067c1.729-1.081 3.228-2.606 4.601-4.108-3.021.751-6.089 1.376-9.17 1.912-5.021.887-10.191 1.661-15.305 1.365-8.466-.488-16.922-2.423-25.172-4.324l-2.182-.514-.022-.009c-.125-.081-3.558-2.266-3.91-2.483.501-.022 1.953-.101 3.194-.546 0 0-2.251-.272-2.955-.66 0 0 1.533-.387 1.967-.934.443-.546.988-1.764 1.16-1.867.157-.114 1.204-.228 1.204-.228s-.387-.432-.83-.488c0 0 .773-.991 1.763-1.208.988-.215 1.919-.603 2.033-1.206.102-.603-1.977-.603-1.977-.603s1.002-.638 2.614-.456c1.055-.512 3.113-1.946 1.488-3.05-.352-.25-.955-.556-1.398-.556.546 0 1.114-.388 1.682-.48.091-.022-1.739-.066-2.636.251-.875.33-1.75.169-1.75.169s-.988-.772-1.818-.66c-.454.057-.942.217-1.329.388l.102-.104.057-.046.102-.09.044-.035s.865-.865 1.536-1.057c.669-.182 6.203-2.767 6.203-2.767s-1.511.091-2.864 0c-1.431-.102-2.578-.478-2.578-.478-.592-.206-.136-.9.206-1.322 0 0 5.603-.705 12.533-1.639 0 0 8.466-1.9 19.41-4.348.568.411 1.194.967 1.398 1.378.284.557 1.068 1.491 3.59 1.777 0 0-1.464 1.331-3.431 1.148 0 0 2.182 1.106 3.966 1.015 1.784-.092 2.999-.753 4.409-.661 1.397.102 2.25.284 3.374-.182 1.127-.468 1.479-1.821 1.479-1.821s-2.454-1.4-3.307-2.619c0 0 3.011 1.139 4.716 1.002 0 0-.829-.785-.829-1.821 0-.58.432-1.695.342-2.731 14.897-3.347 29.477-6.614 32.158-7.24 1.796-.49 3.637-.956 5.512-1.399.011.648.217 1.355.863 1.991 1.797 1.811 4.375 3.608 6.478 3.735.408.022.818.01 1.181-.011h.047c.294-.023.578-.047.873-.104l.488-.091.342-.068.33-.09.26-.069.137-.046.204-.068c.34-.125 1.171.637 1.455.832l.033.022c.625.399 1.263.752 1.943 1.025l.069.023c.398.137 1.215.296 1.475.627l-.056-.091-.045-.081-.091-.137-.08-.125-.047-.081-.237-.364c-.206-.317-.443-.705-.704-1.125l-.034-.047c-.626-.934-1.25-1.878-1.773-2.879-.182-.33-.342-.684-.487-1.025l-.207-.523-.011-.034-.011-.035c-.033-.113-.078-.283-.125-.328l.103.067.078.068.135.114.513.444c1.035.956 2.08 2.207 3.307 2.572 0 0 2.921-1.705 4.977-1.799 2.057-.102 3.966-.477 4.683-.899 0 0-.967-1.502-2.103-2.583 0 0 2.999 1.274 3.716 1.867 0 0 .965-.547.307-1.753-.546-.991-.408-1.912-1.091-2.902 8.647-.49 18.182-.308 28.956.91 1.193.126 2.376.273 3.545.432-1.001.603-1.841 1.298-1.841 1.298-.181.944 2.17 3.881 2.17 3.881-1.317-.751-3.986-2.38-3.986-2.38-1.956 1.139-2.024 3.095-1.455 4.042.569.944 3.341 2.14 5.156 2.332 1.832.196 4.16-.818 4.16-.818 5.034.568 6.478-1.834 6.478-1.834-1.682-.898-4.089-2.878-4.089-2.878 1.532.761 6.294 2.251 6.294 2.251.601-.511.886-1.296 1.261-2.07.126-.262.25-.512.399-.751.124-.205.26-.398.432-.593 10.249 2.06 19.113 4.542 25.468 6.523-.524.08-1.172.182-1.946.353-2.307.489-2.578 1.535-2.578 1.535-.387-.056-1.16-.215-1.16-.215.17.661 1.646 2.527 1.646 2.527-.873-.386-1.362-.83-1.362-.83s-.5.445-.658 1.048c-.173.604.374 1.321 1.202 1.809.818.501.877.99 2.468 1.434 1.589.445 1.762-.272 1.762-.272-.33-.284-.661-1.163-.661-1.163s1.966 1.105 2.683 1.265c.716.169.877.272 1.863.113.988-.159 1.65-.273 2.751.057 1.094.331 2.091.284 2.091.284.785.832 2.513 1.139 2.513 1.139-.386-.375-1.263-1.366-1.263-1.366.877-.226 1.365-.786 1.365-.786.317.149 1.157.284 1.157.284-.932-.659-.873-1.32-.873-1.32.328.559 2.024 1.218 2.524 1.264.486.056 1.713-.125 1.713-.125.568.307 3.423 2.834 3.423 2.834.522.57.374-2.47.374-2.47.112.502 1.465 1.788 1.465 1.788.545-.159.922-.536 1.467-1.14.555-.614.375-1.479.375-1.479.386.933 1.17 1.035 1.17 1.035-.386-.772-.284-2.299-.284-2.299s.501-.068.876-.341c.387-.273.5-.661.772-1.093.273-.444 1.205-.602 1.727-1.001.512-.397-.408-2.242-.738-2.788-.33-.546-1.319-1.048-2.796-1.433-1.488-.388-3.512-.058-3.512-.058.057.888-.115 1.764-.115 1.764-.384-1.434-2.317-2.561-2.317-2.561.386.978.124 1.901.124 1.901-.373.226-.815.215-1.976.33-1.147.114-2.625 1.318-2.625 1.318.159.878.057 1.653.057 1.653-.112-.284-.658-.775-.658-.775-.285.273-.718 2.036-.718 2.036-.443-.329-1.045-.751-1.045-.751-5.286-2.834-9.99-5.12-14.149-6.978.398-.159.909-.295 1.479-.295 1.206 0 2.409-1.025 2.409-1.025.75 1.207 1.216.934 1.216.934-.285-.752 0-2.333 0-3.54 0-1.217-1.864-2.515-1.864-2.515 0-.661-.831-1.208-.831-1.208s-.191.559-.658.559c-.466 0-1.556-.443-2.876-.751-.898-.205-3.262 0-3.262 0 .466 1.867.728 4.086.728 4.086s-2.398-2.869-2.955-2.869c-.555 0-1.396.183-2.693 1.116-.671.479-1.421.786-1.99.968-9.021-3.165-13.353-3.426-13.353-3.426s14.728-3.654 36.649.683c15.25 3.005 26.513 7.979 35.944 12.644.502 1.003 1.115 1.789 1.557 2.279l.218.25.09.102.078.102-.214-.058c-.864-.239-1.603-.899-2.285-1.49l-.116-.091-.089-.068-.08-.068-.012.216.023.307.023.125.069.284c.066.216.168.468.341.718l.171.229c.192.249.443.511.784.762 1.656 1.229 4.555 2.06 5.943 2.777 1.576.819 3.498 1.959 3.498 1.959-.307-1.231-1.34-2.176-1.829-3.064-.283-.523-.148-1.001-.148-1.001.32.921 2.251 1.821 2.251 1.821 1.238.421 2.407.604 3.26.683 11.536 5.805 35.877 19.622 36.296 19.818.501.226 1.035.501 1.581.795l.544.307c.604 1.799.285 2.846.285 2.846-.703-.421-2.182-2.06-2.182-2.06-.125.615 0 1.105 0 1.105s-1.352.705-1.068 2.436c.285 1.73 1.931 1.855 1.931 1.855-.239-.581-.284-1.366-.284-1.366s.988.866 1.478 1.241c.499.375 2.433 1.024 4.033 1.354 1.604.332 3.353 1.868 3.353 1.868-.625-1.196-.385-2.198-.385-2.198.751 1.103 3.022 3.403 3.022 3.403.989.49 2.396.729 3.888 1.299.761.296 1.441.693 1.917 1.012.549.718 1.026 1.424 1.422 2.116-.692 1.39-3.716 4.759-16.625 2.631-10.558-5.613-21.49-10.131-21.49-10.131 23.627 14.194 42.33 33.441 43.243 39.154.919 5.715-3.456 8.652-.583 10.848 2.865 2.198 8.638-4.951 8.638-4.951zm-54.353 36.804c-1.772.819-3.566 1.57-5.417 2.207-.909.307-1.817.592-2.737.842-3.271.899-6.565 1.229-9.938 1.433-.091.011-.216 0-.375-.023l.08-.25c.034-.159.068-.307.08-.444.204-2.025-1.952-3.526-1.952-3.526l-.069-.034-.193-.091-.08-.034c-1.397-.66-2.805-1.297-4.214-1.934-2.453-1.103-4.918-2.161-7.405-3.174l-1.431-.58c-.352-.148-.704-.296-1.056-.432-5.712-2.264-11.505-4.323-17.365-6.211-3.532-1.138-7.076-2.207-10.63-3.219l-1.704-.489c-5.985-1.729-12.55-3.47-19.682-5.187-4.679-4.402-9.29-8.816-14.242-12.866 32.902 8.771 55.424 18.463 66.872 23.992 4.077 1.9 6.848 3.333 8.257 4.095 1.272.387 3.055.603 3.975-.694 1.897-2.685-1.352-4.994-1.352-4.994s-28.859-15.278-83.022-26.437c-5.338-3.8-10.994-6.973-16.548-10.409-1.919-1.183-3.896-2.423-5.542-3.982-.84-.785-1.738-1.775-1.851-2.98-.023-.228-.023-.466 0-.694l.011-.046c.011-.148.034-.296.068-.444l.034-.137.034-.102.125-.375.091-.216c.488-1.138 1.363-2.173 2.237-2.901l.386-.341.273-.228.352-.296.375-.319.023-.011.136-.114.08-.068.023-.023.102-.091.057-.034.057-.011h.011l.011-.011.341-.08.488-.125c2.317-.58 4.77-1.172 7.257-1.57.829-.137 1.67-.239 2.499-.33.897 2.912 4.872 7.224 4.872 7.224-1.885.137-4.304-.535-4.304-.535 3.498 4.71 13.186 10.636 20.716 12.115 7.541 1.479 14.39 1.206 14.39 1.206-1.068.546-2.817 1.217-2.817 1.217s2.953-.137 6.985.671c.522.102 1.09.239 1.704.41 2.681.694 5.985 1.797 7.927 2.48.227.068.443.148.625.216l.034.011.023.011c.603.398 1.181.785 1.749 1.183 3.362 2.241 6.565 4.732 9.62 7.372.886.762 1.76 1.536 2.612 2.321 1.387 1.274 2.635 2.651 3.998 3.936-.114-.102-.136-.626-.182-.785-.08-.296-.193-.592-.307-.887-.25-.614-.477-1.24-.738-1.843-.511-1.217-1.09-2.412-1.715-3.572-1.261-2.332-2.703-4.562-4.282-6.7-.886-1.194-1.817-2.378-2.783-3.526-.704-.819-1.442-1.615-2.181-2.423-.591-.648-1.306-1.82-2.181-2.105l-.023-.011-.045-.023c.716.023 1.386.08 2.033.159.216.023.421.046.625.08.284.034.545.08.818.137.716.125 1.374.296 1.999.489.239.068.466.148.693.228.227.08.443.159.659.25.432.171.84.364 1.227.557.193.091.386.193.568.296l.534.319.511.33.477.341.273.205c.182.137.363.284.534.432.204.171.386.341.568.523.114.091.216.193.308.296.817.83 1.453 1.695 1.941 2.503l.261.466c.613 1.092.954 2.048 1.136 2.651l.069.239.112.455c8.382-.307 14.481 8.407 16.105 10.602h.068l-.057.011.045.023c1.34.717 2.669 1.467 3.986 2.23l.704.421.988.592c1.147.671 2.306 1.354 3.43 2.082 3.044 1.911 6.247 3.959 8.836 6.53-.466-.011-.954.057-1.42.171-.466.114-.931.25-1.363.375 3.225 2.275 6.156 4.948 8.768 7.883.341.375 3.248 4.152 3.339 4.152z"/><path fill="#0A0B09" d="M375.488 198.892c-2.023 4.178-12.762-1.434-24.284-2.47-11.512-1.035-27.01 3.438-27.01 3.438l.373-.296c1.102-.819 2.308-1.481 3.536-2.094 1.011-.512 2.044-.99 3.089-1.446 3.66-1.582 7.491-2.846 11.377-3.768h.022c3.059-.718 6.138-1.196 8.967-1.229 8.194-.102 19.66 2.264 23.091 5.327.91.808 1.262 1.661.842 2.537zm-27.09 29.425c-.923 1.298-2.708 1.081-3.98.693-1.408-.761-4.18-2.197-8.249-4.098-11.455-5.531-33.98-15.217-66.879-23.994-11.316-3.016-23.839-5.93-37.578-8.525-8.58-1.617-16.525-2.925-23.887-3.961 7.511.718 15.624 1.662 24.397 2.913 11.421 1.639 22.013 3.519 31.798 5.533 54.169 11.165 83.021 26.44 83.021 26.44s3.254 2.312 1.356 4.999zm.919 10.383c-.011.137-.045.284-.08.444l-.08.25-.011.023c-.091.239-.216.489-.386.728-.897 1.308-2.68 1.103-3.964.728-1.42-.739-4.202-2.15-8.291-4.004-15.469-7.292-50.972-21.842-104.783-31.454-8.393-1.502-16.059-2.719-23.283-3.674l-.045-.011-.227-.023-.102-.023c1.34.114 2.714.239 4.089.375.227.011.443.034.659.057 7.848.83 15.673 1.718 23.476 2.798 9.847 1.365 19.637 3.026 29.381 4.96 8.87 1.763 17.717 3.947 26.485 6.154 3.702.933 7.382 1.911 11.062 2.946l1.704.489c3.555 1.012 7.098 2.082 10.63 3.219 5.86 1.888 11.654 3.947 17.365 6.211.352.137.704.284 1.056.432l1.431.58c2.487 1.012 4.952 2.07 7.405 3.174 1.408.637 2.817 1.274 4.214 1.934l.08.034.193.091.069.034s2.157 1.502 1.952 3.526zm4.331-78.689c13.407 13.885 3.942 25.735 3.942 25.735s-16.887-3.506-29.705-2.788c-6.115.352-13.33 3.129-19.217 5.93l.16.022.09.035c.876.286 1.592 1.456 2.182 2.106.739.809 1.478 1.604 2.182 2.424.968 1.149 1.898 2.322 2.786 3.516 1.578 2.141 3.011 4.371 4.273 6.705.624 1.16 1.205 2.356 1.714 3.573.262.604.5 1.23.742 1.844.111.297.225.593.306.887.043.162.067.684.179.786-1.352-1.285-2.611-2.664-3.986-3.938-.862-.785-1.729-1.56-2.614-2.322-3.056-2.641-6.261-5.133-9.624-7.376l-1.806-1.205c-.935-.625-1.876-1.242-2.842-1.822-1.977-1.241-4.694-2.88-7.206-4.2-3.806-2.015-7.715-3.892-11.725-5.487-2.502-1.274-4.957-2.618-7.378-4.018-3.271-1.901-6.523-3.904-9.613-6.101-1.466-1.035-3.17-1.902-4.443-3.175-.082-.081-.183-.171-.261-.182-.795-.125-1.592-.184-2.342-.206-1.01-.034-2.034 0-3.045.068-.08.013-1.238.138-1.238.126-.831.09-1.672.193-2.501.329-2.488.399-4.943.992-7.263 1.571l-.487.126-.341.078c.296-.249 3.272-2.81 5.089-3.823 2.647-1.48 5.604-2.391 8.491-3.268 2.999-.898 6.511-1.604 9.624-1.9 10.546-1.001 20.979.762 30.764 4.085 9.522 3.234 18.284 8.185 28.045 10.802 1.244.334 2.496.635 3.755.902l.701.143.012.002c4.072.842 8.392 1.523 12.477.501 2.455-.614 5.141-1.832 7.062-3.558l.279-.243c.832-.804 1.525-1.779 2.001-2.837 1.172-2.591 1.012-5.161.769-7.907l-.056-.388c-.057-.353-.125-.694-.204-1.035-.239-1.024-.522-1.991-.83-2.879-.307-.89-.626-1.685-.91-2.346-.102-.216-.192-.421-.271-.614l-.135-.284-.228-.479-.126-.226-.092-.195-.111-.205-.069-.137c1.137.967 2.137 1.901 3.047 2.846z"/><path fill="#9F792C" d="M371.249 203.969s-.114 2.07 1.137 4.03c1.249 1.945 3.888 4.335 3.888 4.335-.751-.113-1.501-.229-2.252-.33-3.011-.431-6.046-.775-9.078-1.048-1.397-.125-2.796-.228-4.203-.317-.262-.023-5.059-.239-5.605-.251-4.862-.126-9.76.08-14.6.08h-.24c-1.625-2.196-7.718-10.914-16.101-10.608 0 0 15.498-4.473 27.01-3.438 11.522 1.035 22.262 6.648 24.284 2.47.42-.876.068-1.729-.842-2.537l.149.057s2.466 1.82 1.91 4.052c-.467 1.854-2.298 3.311-5.457 3.505zm-87.713 9.817c7.132 1.718 13.697 3.458 19.682 5.187-3.68-1.035-7.36-2.014-11.062-2.946-8.768-2.207-17.615-4.391-26.485-6.154-9.745-1.934-19.535-3.595-29.381-4.96-7.802-1.081-15.628-1.968-23.476-2.798-.216-.023-.432-.046-.659-.057-1.374-.137-2.748-.262-4.089-.375l.102.023-.239-.011c1.988.523 3.975 1.081 5.951 1.661 2.805.83 5.781 1.581 8.404 2.901-3.078-.228-6.292-.523-9.37-.171 1.317.523 2.839 1.058 3.941 1.979-5.236.057-10.483.182-15.73.375-9.165.319-18.376.683-27.485 1.9 4.577 1.467 9.676 3.629 13.322 6.996.522.478 1.011.978 1.465 1.513-3.623.216-7.269.535-10.892.921-.454-.944-1.124-1.9-2.044-2.423-.307-.182-.636-.319-.999-.398l-.602-.137c-.398-.08-.818-.182-1.238-.296-.647-.171-1.317-.387-1.976-.66-.227-.091-.443-.193-.659-.296-.227-.091-.443-.205-.647-.341-.534-.307-1.045-.671-1.522-1.092l-.034-.023c-1.034-.967-1.908-2.252-2.465-4.027 0 0-.965-2.742-3.021-3.435l-.045-.011c-.716-.239-1.715-.546-2.76-.83-.284-.08-.568-.148-.852-.216-.602-.148-1.193-.262-1.738-.341-.965-.137-1.772-.137-2.158.125-1.034.694-1.204 2.082-1.227 2.23v.011s2.385-.137 3.759-.398l.068-.011s-2.601 1.923-7.802 2.605l.011.011c.182.046.875.239 1.67.341.466.068.965.102 1.42.057h.045s-.545 1.934-.818 3.162c-.273 1.24.273 3.572 1.635 4.664l.011.011s2.294-.137 4.736-.671l.057-.011s-.818 1.365-1.919 2.196c0 0 1.238.683.545 1.786-.681 1.092-2.328 3.982-1.363 5.904.386.785 1.147 1.627 1.919 2.343 0 0-5.497 1.57-8.086 2.446-7.757 2.628-15.298 5.995-22.113 10.511.886.171 1.76.375 2.624.58 1.306.307 2.612.648 3.896 1.035.806.25 1.613.501 2.408.796l.034.011s-.579.648-.761 1.342c-.102.41-.216.751-.341 1.035l-.114.273-.159.307-.136.216c-.08.114-.159.205-.239.284-.227.25-.466.387-.681.512-.522.307-1.158.421-1.579.944-.318.398-.693 1.047-.818 2.173l-.034.023s-2.499 1.331-3.578 2.07c-1.147.774-2.271 1.581-3.35 2.446-.625.512-1.84 1.558-1.999 1.695l-.295-.341-.466-.512-.193-.228-.25-.296c-2.215-2.514-5.826-6.803-5.52-7.144 4.441-4.914 4.236-9.476 4.236-9.476l-.034.011c-1.193.512-3.6.159-3.793.125 3.021-1.797 5.611-5.62 5.611-5.62l-.068.034-.738.375c-.261.114-.511.228-.772.33l-.511.239-.239.102-.068.023c-.204.08-.398.137-.568.125l-.045-.011c-.42-1.786-1.647-4.118-3.021-5.21-1.374-1.103-3.146-4.402-3.146-4.402h-.034c-.307 0-.693.034-1.113.068-.761.08-1.511.216-2.271.284l-.17.023-.216.011.114-.125c.693-.705 3.271-2.503 3.271-3.003 0-1.092 1.238-3.982 1.919-5.495.204-.444.295-.91.295-1.376l-.023-.387-.011-.08-.08-.375c-.023-.125-.068-.262-.114-.387l-.034-.091c-.045-.125-.102-.25-.17-.375l-.148-.284c-.568-.91-1.499-1.615-2.555-1.854l-.125-.023c-1.738-.375-3.861-.046-5.656.33l-.545.091c.193.023.409.046.636.102.829.125 1.772.387 2.385.91l.125.114.125.114c-2.873.421-4.52 1.786-4.52 1.786-.545.444-1.022.876-1.42 1.274l-.011-.046c-.557-3.06-.931-6.143-1.102-9.237-.307-5.756-.25-11.74 1.522-17.28.057-.125.216-.228.443-.307.568-.057 1.113-.114 1.67-.182 3.6-.444 7.178-1.138 10.676-2.093 6.496-1.786 12.879-4.562 17.876-9.146.432-.387.636-.614.659-.637l-.068.023c-.375-.114-8.37-.819-11.709-1.57-.931-.205-1.942-.512-2.692-.853 0 0 6.769.08 17.865-3.174 1.567-.432 3.112-.944 4.645-1.479 1.919-.694 3.873-1.445 5.77-2.275l.057-.023.045-.023c.704-.307 1.397-.626 2.09-.956l.091-.046c2.09-.978 4.089-2.116 6.042-3.333l.897-.466.091-.046c.579-.228 1.147-.466 1.715-.717 1.079-.478 2.147-.99 3.214-1.547 1.249-.637 2.499-1.297 3.714-1.991.75-.432 1.488-.876 2.215-1.32 3.339-2.048 10.142-7.701 10.199-7.77l-.068.023-.068.046c-.943.512-1.908 1.001-2.873 1.479-3.691 1.888-7.519 3.64-11.471 4.857-.466.137-.931.284-1.408.41-2.862.83-5.77 1.467-8.7 2.014-2.533.466-5.088.819-7.655.876-2.544.068-5.111-.08-7.632-.455-1.408-.216-2.828-.466-4.225-.785-1.522-.353-3.044-.751-4.543-1.217-1.352-.421-2.68-.933-4.02-1.376-4.429-1.649-8.62-3.834-12.686-6.234-.965-.569-3.759-2.321-3.941-2.446l2.181.512c8.245 1.9 16.707 3.834 25.168 4.323 5.122.296 10.29-.478 15.31-1.365 3.078-.535 6.144-1.16 9.165-1.911-1.374 1.502-2.873 3.026-4.6 4.107l.25-.068c10.222-2.514 20.42-5.062 30.665-7.474 6.417-1.513 12.925-2.127 19.455-2.252-.488.319-.875.683-1.181.967-.75.705-2.362.99-2.362.99-.886.08-3.237.193-3.237.193 3.373.944 4.327 2.105 6.383 2.889-1.885-.284-5.202-.921-5.202-.921-.443 1.854-1.76 2.446-2.748 3.185-.988.751-1.068 1.32-1.068 1.32 1.76.375 6.247 2.912 6.247 2.912-1.647-.455-6.247-.466-6.247-.466-.25.819-.454.819.863 2.343 1.306 1.524 1.193 2.15.738 2.639-.454.489-1.488 1.729.488 3.299 1.988 1.558 5.69 1.274 6.883 1.103 1.193-.159 2.351.102 2.351.102-.897-.66-2.306-2.082-2.306-2.082.909.08 3.861.751 3.861.751s-.909-.91-.329-1.57c.568-.66 2.385-.41 3.737-1.479 1.363-1.069 1.068-3.504 1.363-4.038.284-.535 1.681-1.354 1.681-1.354.534-.046 1.363 0 1.363 0-1.238-.751-5.315-2.73-5.315-2.73 1.476.034 3.998.239 3.998.239-.125-.66-.954-2.503-1.238-3.333-.284-.819-.034-1.558.08-2.059.125-.489.045-1.354.045-1.354-.409-.455-1.147-.865-1.147-.865 1.476.034 3.657.364 3.657.364-.216-.102-1.056-.512-2.271-.933 2.624.114 5.258.262 7.882.455-.988-1.661-2.453-3.242-4.248-4.016 2.362 0 4.713.057 7.064.148 13.175.489 26.451 1.456 39.421 3.982 3.191.614 6.394 1.32 9.574 2.082.819.648 2.056 1.274 2.351 1.411-.818-.296-3.578-.387-3.578-.387-.409.33-.602 1.285-.193 2.935l.034.171c-1.227-.273-4.418-.83-6.962.068 0 0 2.306 1.49 4.259 4.232 0 0-18.899 3.47-26.451 17.041l-.307.626-.102.091-.023.023-.08.068-.136.114-.023.011-.375.319-.352.296-.273.228-.386.341c-.875.728-1.749 1.763-2.237 2.901l-.091.216-.125.375-.034.102-.034.137c-.034.148-.057.296-.068.444l-.011.046c-.023.228-.023.466 0 .694.114 1.206 1.011 2.196 1.851 2.98 1.647 1.558 3.623 2.798 5.542 3.982 5.554 3.435 11.21 6.609 16.548 10.409-9.789-2.014-20.375-3.902-31.801-5.54-8.768-1.251-16.888-2.196-24.396-2.912 7.36 1.035 15.31 2.343 23.884 3.959 13.742 2.605 26.258 5.517 37.581 8.532 4.952 4.05 9.563 8.464 14.242 12.866zm85.805-25.707c0 1.537-3.512 1.105-6.149.876-2.625-.215-16.01 1.105-20.624 3.301-3.885.921-7.716 2.185-11.377 3.768-1.045.456-2.078.934-3.089 1.446-1.228.613-2.434 1.275-3.536 2.094l-.373.296s-.605-3.324-3.524-6.306c-.159-.173-.329-.341-.513-.501-.35-.331-.736-.648-1.158-.957-1.238-.921-2.784-1.742-4.671-2.321-.622-.196-1.294-.355-1.998-.49-1.068-.206-2.218-.331-3.478-.377h-.023l-.16-.022c5.887-2.801 13.102-5.579 19.217-5.93 12.818-.718 29.705 2.788 29.705 2.788s9.465-11.85-3.942-25.735c2.727 2.505 7.215 7.147 9.988 12.69 4.17 8.344 5.705 13.842 5.705 15.379zm-25.818-7.581c-4.085 1.023-8.406.341-12.477-.501-.97-.268-2.237-.664-3.355-1.105-1.533-.604-3.068-1.263-4.237-1.82-.275-.126-.533-.25-.775-.388-3.781-2.094-6.248-4.941-7.385-6.829 0 0-.182 1.706.191 3.027 0 0-7.762-3.415-11.93-6.829-3.216-2.629-4.727-7.012-4.727-9.105v-.172c.727-.716 1.521-1.308 2.057-1.684 7.728 3.243 14.68 7.739 21.328 12.839 3.879 2.97 7.841 6.158 12.218 8.354.27.137.533.262.808.375.726.308 1.478.57 2.201.819 4.366 1.504 8.922.991 13.173-.579l-.033.033.005.005c-1.921 1.727-4.607 2.944-7.062 3.558zm64.135-7.364c-2.124-1.878-4.976-3.836-8.136-5.772-2.307-1.433-4.77-2.844-7.101-4.029l-.251-.124c12.909 2.127 15.933-1.241 16.625-2.631l.08.138c.194.353.377.706.512 1.048 2.569 6.122-1.729 11.371-1.729 11.371z"/><path fill="#006778" d="M331.103 333.627l-5.31-3.451-.692-7.648s7.522 4.93 6.001 11.099zm-17.933-16.769s-4.228 16.484-23.933 27.091c0 0-15.023-5.101-23.238-24.006-6.637-15.287-.308-43.911-9.206-60.098-5.897-10.756-16.341-13.26-16.341-13.26s6.501-3.734 20.047.66c22.307 7.216 24.737 36.423 25.092 42.422.694 11.792 2.727 27.022 10.466 31.153 0 0-4.559-6.315-4.694-21.237-.407-44.369-15.738-50.629-15.738-50.629s18.716 3.073 23.752 18.941c5.032 15.878-3.07 40.215 13.795 48.965zm97.97-89.326c-.662 5.93-9.877 14.5-9.877 14.5-1.32-3.29-6.251-11.201-6.251-11.201s1.319-3.299-3.625-7.591c-4.931-4.28-18.432-4.28-18.432-4.28s3.637-2.072 8.228-1.652c12.069 1.106 29.957 10.223 29.957 10.223zm-94.584-47.08s-11.681 7.366-20.137 5.181c-8.466-2.186-22.977-13.682-22.977-13.682s5.555-.728 14.74.808l.237.047c1.671.374 3.455 1.73 4.794 2.673.82.581 1.557 1.265 2.343 1.879.159.124 2.203 1.376 2.295 1.376l-.033.456c0 2.151 1.748 3.904 3.907 3.904 2.149 0 3.898-1.753 3.898-3.904 0-.854-.273-1.639-.738-2.279 7.705 2.2 11.671 3.54 11.671 3.54z"/><path fill="#0A0B09" d="M369.489 142.003s-2.377-2.094-3.206-2.821c0 0 1.16 2.754 1.341 3.344 0 0-2.239.08-3.455-.863-1.216-.944-2.964-2.06-2.512-2.06 0 0 .546.033 1.002.102 0 0-1.387-1.673-3.762-1.811 0 0-1.445.331-3.105-.512-1.658-.853-2.349-1.719-2.349-1.719s-.91-1.011-1.081-2.31c0 0 1.626 1.139 2.423 1.457 0 0-1.434-2.049-1.434-3.266 0 0 1.023-.206 2.307.284 1.297.489 1.65.102 1.65.102s-.559-.729-.773-1.469c0 0 1.635 1.366 2.331 1.673 0 0 2.023-.626 3.556.033 1.531.661 3.271 2.367 3.545 2.686.261.298 1.296 1.083 1.422 1.174-.103-.138-.909-1.218-1.128-2.072.126.08 1.138.739 1.595.967.485.251 1.421 1.229 1.603 1.854.168.628-.843 1.64-.843 1.64s1.328 1.708 1.328 2.403c0 .693-.452 1.182-.452 1.182zm13.09 10.791c-.332.501-.819.501-.819.501s-2.967-1.775-3.749-2.151c0 0 1.487 2.312 1.692 2.846 0 0-2.555-.377-3.216-1.275 0 0-2.876-.705-3.908-1.4-1.024-.705-1.854-1.776-1.854-2.356 0 0 1.649.786 2.478 1.161 0 0-2.227-2.686-2.921-3.335 0 0 .773-.83 1.729-1.081.942-.24 1.397-.24 1.762-.205 0 0 .045-.57-.41-1.07 0 0 2.672 1.605 3.91 2.891l-.332-1.16s2.137.535 3.126 1.49c.989.945 1.478 2.016 1.773 2.505.283.501 1.07 2.151.739 2.64zm-97.49 10.096s-1.592-1.024-2.49-1.274c.181.182 2 2.049.978 2.287 0 0-.909-1.057-2.558-1.797-1.648-.741-4.681-2.232-5.59-3.05-.853-.775-1.409-2.414-1.466-2.619.101.137.603.808 1.055.887.457.08 1.796.945 1.967 1.059-.057-.135-.522-1.264-1.068-1.718-.569-.502-1.966-1.163-2.706-2.061l.819-.25s.228-1.617-.135-3.21l-.033-.171c-.41-1.649-.219-2.605.192-2.936 0 0 2.76.091 3.58.387-.296-.137-1.536-.762-2.352-1.411.033-.013.239-.08.396-.4.159-.363.082-1.159.818-1.32.739-.171 2.059.49 2.387.661.33.158 2.193 1.331 2.785 1.615.342.159.487.729.544 1.218 1.75.489 3.489.99 5.228 1.525l.102.081.023.01.057.046c-1.035-.251-3.17-.546-4.169-.684-.298.297-.955.956-1.229 1.298 0 0-.601.786-.954 2.8-.112.65.25 2.141.91 2.722.658.569 2.716 2.47 3.045 3.367.332.911-.271 2.323-.135 2.937zm-1.729-35.058c-1.227 1.012-2.726 1.606-2.726 1.606s.181 1.263.897 1.992c0 0-1.375-.125-2.525-.786 0 0-1.021 1.149-1.136 1.628-.124.479-1.624 2.403-2.522 3.061-.898.66-2.761 1.379-2.761 1.379s1.66 2.389 3.035 3.357c-.353-.149-4.977-2.175-6.875-4.132 0 0-.182 1.445.295 2.163 0 0-2.274 1.024-4.853.42-2.432-.568-4.864-2.31-5.136-2.515.284.047 2.533.468 3.988.468 0 0-3.296-1.618-3.897-3.243-.604-1.617-.42-3.483 1.384-4.326 1.797-.842 3.354-.717 3.354-.717s4.328 2.036 6.839 2.639c0 0-3.294-2.163-4.135-3.549 0 0 2.341.068 2.999-.354.658-.422 1.136-1.503 2.398-1.924 1.262-.421 2.582-.546 2.582-.546s-1.195-.661-1.5-1.025c0 0 2.465.66 3.249.66 0 0 2.158.125 3.113.251.965.114 2.762-.49 4.262-.011 1.5.49.896 2.481-.33 3.505zm23.411 23.688c-.434.921-2.739 2.332-4.045 2.778l-.159-.286-.126-.182c-.261-.398-.727-.967-1.386-1.424l.057.217.069.217.044.192.047.172c.068.239.124.523.181.796.043.239.078.465.102.671 0 0-.274.148-.67.422-.536.375-1.33.968-2.057 1.684-.568.546-1.091 1.161-1.444 1.821-1.148 2.117-1.059 3.722-1.059 3.722s-.989-.421-1.884-1.115c0 0 .453 1.911 2.068 2.72 0 0 .92 1.218.522 2.139 0 0-2.829-.226-3.49-.761-.659-.547-2.761-1.309-2.761-1.309s.704-.115 1.455-.068c0 0-.761-1.854-1.488-2.48-.728-.617-2.195-1.743-1.865-3.177 0 0 1.727.124 2.555.455 0 0-2.726-2.367-4.396-2.743l2.285-.124s-.309-1.618 2.591-3.029c2.91-1.412 3.806-2.31 4.421-3.22.601-.911.852-1.844 1.613-2.39 0 0 1.422.808 2.545 1.661 0 0-.647-1.924-2.704-3.335 0 0 1.729.229 2.999.662 0 0 1.727-.854 3.011-.719 1.286.137 3.604 1.345 3.821 2.083.202.742-.434 3.028-.853 3.951zm7.739-16.175s-1.514-.374-2.102-.58c.112.172 1.012 1.467 1.227 2.174 0 0-1.375.911-2.432 1.151-1.056.238-1.354.534-1.932 1.182-.581.661-2.047 1.457-3.501 1.241-1.398-.205-4.181-1.025-4.419-1.082.159.149 1.398 1.366 1.943 2.323 0 0-1.59.795-4.218 1.173 0 0-2.396 0-3.419-.297-1.023-.296-1.966-.809-2.035-1.457-.08-.66.502-1.388.502-1.388s2.112.808 3.353 1.024c0 0-3.128-2.914-4.229-3.722 0 0 2.193.364 3.5.808 0 0-.148-.808-.66-1.685-.509-.865.444-1.74.877-1.967.442-.218 2.475-1.014 2.987-1.378 0 0-1.306-1.093-2.773-1.901 0 0 2.843.295 4.298.728 0 0 1.171.08 2.409-.433 1.238-.512 1.671-.512 2.692-.364 1.012.149 1.137.433 1.809.501.67.081 1.317.013 1.317.013s-.432-.593-1.523-1.025c0 0 2.331.296 3.421 1.025 0 0 1.884.33 2.977 1.399 1.104 1.07-.067 2.538-.067 2.538zm42.364 14.65s.512 1.309.806 1.901c0 0-1.749-.728-3.282-.728 0 0-.685 1.035-2.308.693-1.626-.329-3.216-1.569-3.216-1.569s1.455.066 2.611.066c0 0-.51-.58-1.885-.875-1.383-.284-2.203-.524-3.181-1.288 0 0-.239.775.41 1.288 0 0-2.183.58-2.546-1.605s-1.603-2.037-.727-3.643c.863-1.582 2.67-1.593 2.727-1.593 0 0-1.558-.957-2.579-1.538 0 0 3.567.945 6.327 2.618 0 0-.214-1.092-.871-1.672 0 0 1.897-.581 4.009.877 2.101 1.456 2.182 2.765 3.785 3.858 1.603 1.093.647 2.777-.08 3.21zm-24.023 1.241s-.988.808-1.306 1.388c-.308.57-1.16 1.89-2.115 2.254 0 0-1.013 1.309-2.103 1.39-1.09.067-1.829-.183-2.555-.217-.718-.034-3.637 0-5.817-2.186 0 0 3.123.435 3.93.435 0 0-2.773-2.039-3.352-2.914 0 0 .808-.513.726-1.241-.068-.728-.293-1.389.444-2.185 0 0 2.546.877 4.069 1.092 0 0-1.671-1.685-3.341-3.061 0 0 1.035-.104 2.261.386 0 0 .502-.102 1.668-1.045 1.16-.945 3.422-.696 4.728.171 1.308.852 2.547 2.607 2.547 2.607s1.533.796 2.545 2.469c0 0-2.647-1.73-4.739-2.026 0 0 1.911 1.743 2.41 2.687zm9.762-17.643c-.078 1.012-.808 1.821-2.047 1.968-1.239.138-1.966-.363-2.396.217-.433.58-1.091 1.16-1.751 1.308 0 0-4.216-2.618-6.047-3.573 0 0 1.537 1.969 1.898 2.776 0 0-2.543.217-4.295-.511-1.748-.728-2.919-1.343-4.148-1.879-1.237-.523-2.545-2.276-2.545-2.276s2.036.945 3.127 1.242c0 0-1.818-2.05-1.888-2.698 0 0 1.374-.365 2.033-1.173.616-.751 2.419-1.241 3.785-1.308h.294c1.388 0 4.81 1.821 6.478 3.061 0 0-1.455-2.037-2.545-3.061 0 0 2.614 0 3.273-.216.66-.229 2.182-.377 3.273.137 1.021.478 1.603 1.536 1.67 1.672-.136-.056-1.216-.513-2.033-.717 0 0 0 .877 1.749 2.117 1.751 1.229 2.182 1.89 2.115 2.914zm-134.456 114.298s1.408 2.833 1.522 5.233c.102 2.4-1.851 3.162-3.805 3.925-1.965.762-4.145.33-4.793-.102-.659-.444-1.749-.33-1.749-.33.647-.876 3.384-2.73 3.384-2.73-2.624.228-5.02 1.854-5.02 1.854s-4.134.66-6.315.66c-2.169 0-5.542-2.07-5.542-2.07-1.306 0-3.157.978-3.157.978.977-1.649 5.224-4.698 5.224-4.698-1.965.432-4.463 2.07-4.463 2.07-.761-.762-4.475-3.049-5.452-3.811-.977-.762-1.624-1.854-1.306-4.038.329-2.173 2.828-2.4 5.111-2.503 2.306-.102 5.452-.114 5.452-.114-.92.717-1.545 2.014-1.613 2.173.454-.66 3.884-2.309 3.884-2.309s3.714-1.058 6.224-2.15c2.499-1.092 4.781-.865 7.076.546 2.294 1.411 4.463 5.779 4.463 5.779 1.738-.717 4.52-1.138 4.861-1.183-1.42.671-3.986 2.821-3.986 2.821zm-53.31-56.363c-.886.58-.965 1.194-1.648 2.072-.693.887-4.896 1.081-4.896 1.081-2.546-.887-5.864-.887-5.864-.887 1.659.489 3.907 1.184 3.907 1.184s-2.351.386-4.306.192c-1.956-.192-3.035-2.356-4.102-3.825-1.08-1.467.193-3.721.193-3.721-.591-.398-1.273-.594-1.273-.594 2.148-.191 6.159.104 6.159.104-1.851-.592-3.953-1-3.953-1s.239-1.06.727-2.142c.49-1.069 2.84-.785 3.818-.683.977.102 2.25-1.082 2.954-1.307.705-.24 2.92.523 4.091.92 1.17.387 1.272 1.274 1.272 1.274-1.079-.101-2.647.196-2.647.196l3.818 1.069s2.545 1.275 2.932 2.549c.398 1.275-.285 2.947-1.182 3.517zm22.975 34.35c-.693 2.332-.136 3.435-.136 5.768 0 2.343-2.885 3.31-7.405 3.993-4.52.683-6.44-.819-6.44-.819l.681-1.524c-1.511.273-5.906.421-5.906.421 2.885-1.251 6.587-3.856 6.587-3.856-1.772.694-5.463 1.581-5.463 1.581s-1.113-.796-2.215-1.843c-.772-.717-1.533-1.558-1.919-2.343-.965-1.923.681-4.812 1.363-5.904.693-1.103-.545-1.786-.545-1.786 1.102-.83 1.919-2.196 1.919-2.196l-.057.011c-2.442.535-4.736.671-4.736.671l-.011-.011c-1.363-1.092-1.908-3.424-1.635-4.664.273-1.229.818-3.162.818-3.162h-.045c-.454.046-.954.011-1.42-.057-.795-.102-1.488-.296-1.67-.341l-.011-.011c5.202-.683 7.802-2.605 7.802-2.605l-.068.011c-1.374.262-3.759.398-3.759.398v-.011c.023-.148.193-1.536 1.227-2.23.386-.262 1.193-.262 2.158-.125.545.08 1.136.193 1.738.341.284.068.568.137.852.216 1.045.284 2.044.592 2.76.83l.045.011c2.056.694 3.021 3.435 3.021 3.435.557 1.775 1.431 3.06 2.465 4.027l.034.023c.477.421.988.785 1.522 1.092.204.137.42.25.647.341.216.102.432.205.659.296.659.273 1.329.489 1.976.66.42.114.84.216 1.238.296l.602.137c.363.08.693.216.999.398.92.523 1.59 1.479 2.044 2.423l.011.011c.716 1.467.954 2.946.954 2.946-.954 1.638-3.566 3.151-3.566 3.151 1.238.273 2.885 0 2.885 0zm-32.031-89.385s1.375.775 1.455 2.641c.08 1.868-.376 2.686.08 3.961.443 1.274-.308 2.163-2.091 3.21 0 0-1.797.375-3.591.228 0 0 1.352.671 1.943.751 0 0-1.943 1.639-4.704.967 0 0-3.353 2.017-5.898 1.652-2.535-.375-3.126-1.423-3.126-1.423s3.023-.547 5.181-.841c0 0-3.943-.911-5.215-1.652 0 0 .396-1.844 1.227-2.663.819-.832.626-1.037.626-1.037s-3.238-.761-4.432-1.205c0 0 3.806-.582 5-1.025 0 0-.453-.923 1.045-2.117 1.49-1.196 2.762-2.391 3.353-3.074.603-.671 3.512-.739 5.148-.297 1.647.456 1.637.456 2.534.456.898 0 4.716-.374 4.716-.374s-.75 1.183-3.249 1.842zm56.046 66.236c-.954 1.457-4.808 1.957-6.875 1.708 0 0-3.863 1.74-6.069 1.445-2.193-.296-6.193-1.799-6.193-1.799s1.228-.638 2.433-.83c0 0-.74-1.48-2.535-3.175-1.796-1.709-4.102-3.803-4.5-5.214 0 0 2.363-.992 4.068-1.389 0 0-2.851.08-4.454-.615 0 0-.114-2.994.488-4.199.602-1.196 1.001-2.198 1.001-2.801 0-.604-.114-.557.784-.854.897-.296 5.216-1.047 5.216-1.047s-.399-.99-3.103-1.4c0 0 2.399-.899 5.103-.501 2.693.398 4.487 3.597 5.387 5.305.91 1.695 2.602 3.596 3.704 4.404 1.103.797 5.238-.204 5.238-.204s-2.612 2.595-4.271 2.47c0 0 .83 3.038 2.227 4.247 1.398 1.193 3.306 2.994 2.352 4.45zm-62.559 18.814c-1.227.967-4.387 3.574-6.033 5.498-1.649 1.924-3.421 3.983-7.126 3.016-3.705-.957-4.262-6.317-4.262-6.317.967-1.366 5.354-3.425 5.354-3.425-2.329 0-5.286.523-5.286.523.058-1.116.216-4.372.216-6.99 0-2.605-1.374-5.076-1.374-5.076.955-.967 3.295-2.196 3.295-2.196-4.534.683-6.862.137-6.862.137 1.238 0 3.021-.967 3.021-.967-.271-1.367.275-3.291.955-3.985.681-.684 2.751-3.29 3.706-3.984.954-.684 3.431-.273 5.897.138 2.467.408 2.876 1.924 2.876 1.924 1.237.272 2.477.135 2.477.135-1.511 1.103-5.353 2.333-5.353 2.333 1.784.284 3.297.284 3.297.284s1.09 3.985 1.646 6.045c.24.887.694 1.626 1.273 2.332-1.068.638-2.896 1.652-4.432 2.198 0 0 2.649-.08 5.478-1.06.545.547 1.148 1.106 1.796 1.742 1.921 1.925.683 6.74-.558 7.696zm110.389-70.32s1.081 1.194.886 2.424c-.191 1.229-.613 1.467-.965 2.276-.34.808-1.374 1.502-2.455 2.002 0 0 1.399.604 2.854 1.458-.341-.035-3.069-.388-3.852-.49 0 0-1.546.923-2.239 1.959-.694 1.047-1.922 1.968-3.693 2.048 0 0-2.227-.661-3.114-.852 0 0 1.16 1 1.613 1.502 0 0-1.261.501-2.5.238-1.227-.273-4.034-1.433-4.887-1.695 0 0 2.047.147 2.661.228 0 0-4.081-3.279-4.694-4.008 0 0 1.763.297 2.546.49-.285-.171-2.592-1.582-2.66-3.425-.044-1.116.727-1.958 1.648-2.458.932-.502 1.965-.547 2.352-1.242.386-.695.454-1.536.454-1.536s3.035.579 4.375.887c0 0-1.193-1.776-1.966-2.083 0 0 .251-.695 1.25-1.161 1.001-.454 2.727-.921 3.773-1.729 1.034-.808 2.193-.581 2.968-.421.76.148 2.26 1.081 4.032 1.617 0 0-.921-.775-1.228-1.424 0 0 1.923.115 2.888.536.954.421 1.453 1.422.998 2.163-.466.728-1.045.809-1.079 1.308-.045.502 1.307 1.39 1.886 1.891 0 0-.852-.274-1.852-.501zm-85.281 107.918s-1.272.319-3.884 2.309c-2.624 2.002-3.26 4.619-3.26 4.619 1.363-1.251 3.26-2.412 3.26-2.412-.534.842-.318 1.263-1.476 3.879-1.147 2.628-3.986 2.525-5.974 2.73-1.988.216-5.236-2.196-5.236-2.196-1.158.421-3.26 2.412-3.26 2.412.943-3.151 4.407-6.507 4.407-6.507-1.465.626-4.089 2.514-4.089 2.514-1.465-1.149-6.621-2.628-10.074-4.516-3.464-1.888-3.044-5.563-3.044-5.563.216-2.207 2.101-5.153 2.101-5.153-1.158.637-2.408 2.002-2.408 2.002-.034-.432-.023-.808.011-1.16v-.034c.125-1.126.5-1.775.818-2.173.42-.523 1.056-.637 1.579-.944.216-.125.454-.262.681-.512.08-.08.159-.171.239-.284l.136-.216.159-.307.114-.273c.125-.284.239-.626.341-1.035.182-.694.761-1.342.761-1.342 1.204-1.354 3.339-2.332 3.339-2.332-1.113 1.399-1.249 2.878-1.261 3.185l.034.011c2.408-3.822 6.474-3.515 6.474-3.515-.84.216-1.885.842-1.885.842s1.783.626 3.566 1.149c1.783.535 5.758.842 8.075.842 2.306 0 6.599.842 6.599.842 1.885-.626 7.666-2.093 7.666-2.093-1.999 1.251-5.554 3.037-5.554 3.037 7.235 3.993 1.045 12.195 1.045 12.195zm49.768 21.842c-1.386 2.378-3.26 2.594-3.26 2.594l.477-.899c-1.624.444-3.339-.489-3.509-.58.999 1.399 1.102 3.208 1.102 3.208l-.636 1.194 2.192-.159-1.238 1.524c.363 3.549-2.578 4.88-6.019 4.607-3.43-.262-7.587-3.811-7.587-3.811.239-1.376 2.828-5.062 2.828-5.062-1.84.557-5.168 2.912-5.168 2.912-3.146-1.957-2.499-1.297-11.46-2.537-8.95-1.24-13.436-3.618-13.436-3.618-.045-1.638 1.17-3.606 1.17-3.606-2.135 1.047-3.191 2.707-3.191 2.707-.761-.557-3.373-3.083-2.351-6.643 1.011-3.549 6.269-4.095 6.269-4.095 1.715-1.388 4.304-1.411 4.463-1.411-.591.353-1.579 1.035-1.579 1.035 1.465-.284 9.37.535 12.788.796 3.43.273 7.121.262 7.121.262l3.509-.808c-1.488.956-5.667 3.663-6.178 3.993 2.601-1.604 8.916-2.867 8.916-2.867s1.102-.137 2.726.58c1.613.717 2.317 3.356 2.317 3.356 1.397-1.376 3.725-.557 6.11 1.923 2.396 2.48 2.487 5.096 2.487 5.096l1.136.307zm-1.692-128.679s4.08 1.969 5.32 2.721c0 0-.831-.047-1.366 0 0 0-1.396.818-1.68 1.354-.298.535 0 2.97-1.365 4.041-1.35 1.07-3.17.82-3.738 1.48-.579.66.329 1.571.329 1.571s-2.954-.671-3.864-.752c0 0 1.408 1.422 2.308 2.083 0 0-1.16-.262-2.353-.101-1.195.169-4.897.454-6.875-1.106-1.977-1.57-.944-2.811-.488-3.301.453-.489.569-1.114-.739-2.639-1.319-1.527-1.113-1.527-.863-2.345 0 0 4.591.01 6.239.466 0 0-4.478-2.527-6.239-2.903 0 0 .078-.569 1.069-1.321.987-.738 2.295-1.331 2.739-3.185 0 0 3.315.635 5.203.92-2.056-.785-3.012-1.946-6.374-2.891 0 0 2.34-.113 3.237-.192 0 0 1.604-.286 2.353-.991.306-.286.693-.648 1.182-.969.716-.465 1.638-.865 2.909-.909 2.352-.08 4.592.478 6.182 1.025 1.215.42 2.056.83 2.273.932 0 0-2.182-.33-3.658-.364 0 0 .738.41 1.147.866 0 0 .08.865-.044 1.355-.116.499-.365 1.241-.08 2.059.284.832 1.113 2.674 1.238 3.334 0 0-2.524-.204-4.001-.238zm17.808 29.424c-1.865-.387-5.09-.66-5.09-.66 2.408.934 4.214 1.638 4.214 1.638s-.327.286-.76.331c-.443.057-1.216-.433-1.865-.331-.658.113-1.16 1.218-1.874 1.821-.705.603-1.637.432-1.637.432s-.228.888-.93 1.436c-.718.546-1.876.272-3.354.056-1.476-.229-1.978-3.357-1.978-3.357-1.534-1.366-3.886-2.63-3.886-2.63.99.046 2.251.273 2.251.273-.499-.832-3.408-2.196-3.408-2.196-.49-.229-1.98-1.048-1.98-1.048 1.49.114 6.036 1.15 6.036 1.15-1.479-.934-4.443-2.083-4.443-2.083.226-.502.5-.877 1.215-.877.704 0 2.193.215 2.68-.171.501-.386.604-1.378 1.489-1.924.877-.547 2.467-.102 3.889.273 1.431.387 3.18 1.047 3.18 1.047-1.647.114-3.34.114-3.34.114 2.022.49 4.001 1.481 5.863 2.63 1.909 1.183 1.16 2.312 2.751 2.914 1.59.603.978 1.16.978 1.16zm-30.558-54.306c-.227 1.969-2.751 3.711-3.432 4.154-.671.456-1.931 1.354-2.307 2.619-.375 1.274-1.716 2.093-2.546 2.174-.817.067-1.931 1.263-1.931 1.263 1.171.286 2.818-.215 3.035-.284-.171.149-1.591 1.298-2.218 1.787-.669.523-2.907 1.048-3.725.968l-4.183-.068c-2.544-.081-5.454-.307-6.329-1.912-.829-1.527-1.182-1.572-1.216-1.572-1.794.82-5.522.787-5.522.787 3.591-1.491 6.659-4.861 6.659-4.861-1.932.82-4.125 1.149-4.125 1.149-.308-.523-.365-1.069-.295-2.196.081-1.115 1.124-1.72 1.124-1.72s.069-.59.818-1.571c.751-.967 3.285-2.309 4.706-2.39 1.42-.08 3.203-.818 4.181-1.49.967-.672 4.398-2.094 6.114-1.948 1.715.149 2.399.445 2.399.445.967-.068 3.124-.445 3.124-.445-2.829 2.243-4.625 3.064-4.625 3.064 3.283-.377 6.124-1.719 6.124-1.719 3.354.228 4.399 1.799 4.172 3.767zm42.683-2.891c-.149 1.069-.909 3.813-2.352 4.429-1.456.602-1.842.716-1.842.716v3.176s-2.159-1.935-2.612-2.55c0 0-.58.024-2.103-.204-1.523-.228-3.353 2.367-6.17 2.141 0 0-4.638-.992-5.399-2.904-.76-1.901-.465-3.505-.157-4.04 0 0 1.601 2.059 2.737 2.662 0 0-1.056-2.434-1.056-3.96 0 0 .91-.683 1.056-1.378.159-.683 1.911-1.753 2.978-1.981 1.068-.229 2.114.228 2.114.228s1.25 2.846 2.16 3.916c0 0-.387-5.589.067-7.569 0 0 1.16 2.573 1.774 3.414 0 0 1.272-.135 3.102-.443 1.831-.307 3.421-.149 4.488.91 1.068 1.07 1.375 2.367 1.216 3.438zm-58.035 43.812c-.433-.035-2.934-.24-4.433-.047 0 0-.932.934-1.977.99-1.045.057-1.261.832-1.045 1.434.227.602 1.272 2.801-.047 4.338-1.317 1.536-4.385 1.012-4.385 1.012s-3.08 2.288-6.454 1.787c-3.377-.501-6.058-1.787-6.058-1.787s-3.068-.695-4.762-1.594c0 0 4.172.398 7.444.205 0 0-3.512-1.081-4.535-2.333 0 0 1.194-.751.979-1.843-.228-1.106-.558-2.643-.057-3.519 0 0 3.069 1.48 4.602 1.867 0 0-1.967-1.651-2.683-3.131 0 0 1.319 0 2.524-.99 1.204-.99 2.49-2.765 4.728-2.731 0 0 1.035-1.059 2.08-1.287 1.034-.216 1.908-.216 1.908-.216s1.215.546 3.295.933c0 0-2.794-1.867-3.455-2.685 0 0 1.263.432 2.308.375 0 0 1.147-.33 3.011.171 1.865.489 3.126 1.924 3.126 3.129 0 1.208-1.693 2.801-1.09 3.847.558.957 4.419 1.935 4.978 2.073z"/><path fill="#FFFFFE" d="M300.544 177.095c-.069 1.127-.819 1.811-1.817 1.811-.285 0-.592-.069-.876-.172-.092 0-2.136-1.252-2.295-1.376-.786-.614-1.523-1.298-2.343-1.879-1.339-.943-3.111-2.288-4.784-2.673 1.024.193 5.026.978 7.374 1.604 1.185.308 2.285.614 3.365.911 0 0 1.445.637 1.375 1.775zm-5.341 12.828c2.512 1.32 5.229 2.959 7.206 4.2.965.58 1.907 1.198 2.842 1.822l-.626-.217c-1.944-.683-5.249-1.787-7.922-2.471-.614-.169-1.182-.306-1.705-.408-4.034-.809-6.989-.672-6.989-.672s1.75-.672 2.82-1.218c0 0-6.853.274-14.387-1.206-7.534-1.48-17.217-7.41-20.717-12.122 0 0 2.421.671 4.308.535 0 0-3.977-4.302-4.875-7.216 0 .011 1.158-.114 1.238-.126 1.011-.068 2.035-.102 3.045-.068.75.022 1.547.081 2.342.206.078.011.179.101.261.182 1.273 1.273 2.977 2.14 4.443 3.175 3.09 2.197 6.342 4.2 9.613 6.101 2.42 1.4 4.876 2.744 7.378 4.018 4.01 1.595 7.919 3.472 11.725 5.487zm-37.057-23.961c-2.887.877-5.843 1.788-8.491 3.268-1.817 1.014-4.793 3.574-5.089 3.823l-.011.013h-.012l-.055.011-.161.124.102-.101.308-.626c7.557-13.569 26.454-17.04 26.454-17.04-1.952-2.732-4.261-4.224-4.261-4.224 2.546-.899 5.739-.341 6.968-.068.363 1.594.135 3.21.135 3.21l-.819.25c.74.899 2.137 1.56 2.706 2.061.545.454 1.011 1.582 1.068 1.718-.171-.114-1.511-.979-1.967-1.059-.452-.08-.954-.751-1.055-.887.057.205.613 1.844 1.466 2.619.909.818 3.942 2.309 5.59 3.05 1.649.741 2.558 1.797 2.558 1.797 1.022-.238-.797-2.105-.978-2.287.897.25 2.49 1.274 2.49 1.274-.136-.614.467-2.026.135-2.937-.329-.898-2.387-2.798-3.045-3.367-.66-.581-1.022-2.073-.91-2.722.353-2.014.954-2.8.954-2.8.274-.342.931-1.001 1.229-1.298.999.138 3.135.432 4.169.684l-.057-.046-.023-.01-.102-.081-.024-.022-.1-.069-.148-.102-.116-.09-.304-.218-.023-.01-.4-.273-.101-.068-.319-.217-.145-.09-.308-.206-.148-.09-.444-.274c5.377-3.893 12.933-3.04 12.933-3.04 2.057 1.412 2.704 3.335 2.704 3.335-1.123-.853-2.545-1.661-2.545-1.661-.761.546-1.012 1.479-1.613 2.39-.616.91-1.512 1.809-4.421 3.22-2.9 1.412-2.591 3.029-2.591 3.029l-2.285.124c1.671.375 4.396 2.743 4.396 2.743-.828-.331-2.555-.455-2.555-.455-.33 1.434 1.137 2.561 1.865 3.177.727.626 1.488 2.48 1.488 2.48-.751-.047-1.455.068-1.455.068s2.102.762 2.761 1.309c.661.535 3.49.761 3.49.761.398-.92-.522-2.139-.522-2.139-1.615-.809-2.068-2.72-2.068-2.72.895.694 1.884 1.115 1.884 1.115s-.09-1.605 1.059-3.722c.352-.66.876-1.275 1.444-1.821v.172c0 2.093 1.511 6.476 4.727 9.105 4.168 3.414 11.93 6.829 11.93 6.829-.373-1.321-.191-3.027-.191-3.027 1.137 1.888 3.604 4.735 7.385 6.829.242.138.5.262.775.388 1.17.557 2.704 1.216 4.237 1.82 1.114.439 2.374.834 3.342 1.102l-.701-.143c-1.258-.267-2.511-.568-3.755-.902-9.76-2.618-18.523-7.568-28.045-10.802-9.784-3.323-20.217-5.086-30.764-4.085-3.113.296-6.625 1.002-9.624 1.9z"/></g></svg>