<svg xmlns="http://www.w3.org/2000/svg" width="500" height="500" viewBox="0 0 500 500">
  <g fill="none" fill-rule="evenodd">
    <polygon points="0 0 500 0 500 500 0 500"/>
    <g transform="translate(10 144)">
      <path fill="#FFF" d="M478.715844,211.524156 C452.11761,175.702442 405.693506,131.94639 350.386286,107.38161 L361.68187,133.407584 C314.651844,109.721766 262.374234,92.7185455 203.112312,92.9878442 L215.741922,106.662234 C106.273247,110.949818 42.0517403,165.233455 1.63709046e-13,211.524156 C0.983688312,148.844883 45.8942338,92.241039 105.061403,57.6847792 L92.8831169,46.3804675 C136.917195,15.9035844 198.676364,7.3521039 250.80187,13.3726753 L243.389922,-7.63975549e-13 C416.065247,12.8315844 489.204779,141.69974 478.715844,211.524156"/>
      <path fill="#0080C6" d="M202.304416,101.368519 L189.037714,87.0034286 C239.315532,85.3315325 290.144416,92.9018182 349.272935,120.693195 L338.380052,95.5935584 C382.895377,112.839896 432.216935,145.032312 473.574234,194.966026 C469.932468,119.357922 393.575065,21.3855584 254.692987,7.37579221 L262.415377,21.307013 C206.282805,11.7705974 143.212052,21.6947532 103.074078,47.2881039 L115.62639,58.9377662 C55.2087273,91.3396364 15.5208312,142.881662 7.00176623,194.966026 C56.8681558,142.881662 121.699325,106.907844 202.304416,101.368519"/>
      <path fill="#FFC20E" d="M451.900675,154.375481 C428.366961,91.0291948 357.583792,36.4139221 278.124468,23.3392208 L287.457662,39.9721558 C239.599792,25.1682078 170.053403,26.0646234 124.337455,49.9187532 L137.450805,62.0908052 C95.5499221,80.0465455 51.3375584,118.500156 33.8381299,153.833143 C62.5371429,127.945558 124.977039,97.9810909 176.199896,91.6139221 L163.471792,77.8323117 C212.701091,68.073974 278.312727,77.7325714 325.088416,96.7256104 L316.014545,75.8163117 C350.464831,82.8779221 414.486857,113.659013 451.900675,154.375481"/>
    </g>
  </g>
</svg>
