<svg xmlns="http://www.w3.org/2000/svg" width="500" height="500" viewBox="0 0 500 500"><g fill="none"><path d="M0 0h500v500h-500z"/><path fill="#FFFFFE" d="M444.095 242.87c-14.67 1.989-40.306 12.596-35.435 18.292 4.87 5.689 19.072 13.511 21.089 14.499-6.769 0-29.018 2.298-31.501 8.599-2.492 6.301 32.193 27.424 44.893 32.389-15.798-4.445-53.474-11.859-55.978-6.782-2.504 5.077 4.007 20.767 9.959 25.436-4.357-1.304-27.113-7.77-30.764.639-4.013 9.251 18.229 43.188 20.753 49.528-10.254-10.166-38.341-32.955-42.322-30.348-3.981 2.607-2.999 15.309-1.965 21.768-3.855-4.695-10.478-12.221-16.199-9.969-5.72 2.252-5.015 24.06-5.384 33.35-4.719-10.93-12.422-32.936-19.553-32.132-7.131.803-15.131 15.776-16.653 21.498-1.088-5.728-5.754-18.325-12.812-18.325s-23.468 33.337-28.43 44.169c-.02-8.382 1.99-49.278-2.459-51.306-4.448-2.028-19.46 7.296-22.684 11.536 1.193-5.373 2.208-23.533-1.793-25.726-4.007-2.199-15.421-2.891-36.061 16.178 3.426-7.315 9.068-15.276 10.439-22.993 8.547-.441 17.009-1.409 25.543-3.075 18.624 13.465 41.519 21.413 66.265 21.413 62.502 0 113.168-50.621 113.168-113.069 0-4.892-.316-9.712-.916-14.433 4.192-3.944 8.211-7.763 11.955-11.325-.857 2.048-1.331 4.517-1.252 7.559.244 9.534 24.964 11.569 38.098 12.629zm-281.457 40.639c-3.565-1.929-20.146-2.693-20.146-2.693s18.67-12.537 18.235-21.604c-.436-9.06-30.21-13.702-41.981-16.31 10.386-2.186 44.023-9.778 45.467-16.54 1.45-6.756-10.512-11.556-15.54-13.913 5.634.072 19.915 2.463 21.839-4.504 2.201-7.987-32.964-28.787-40.978-31.671 1.793.421 35.285 8.231 47.53 5.584 9.114-1.975-1.509-14.229-3.263-15.678 2.689 1.31 18.044 4.471 22.44-2.812 4.396-7.282-10.518-36.287-18.868-48.58 7.414 7.388 41.275 31.454 46.323 27.358 5.055-4.096 1.193-17.324-1.515-21.689 5.457 5.103 10.827 11.924 17.761 11.78 3.472-.072 7.842-11.543 8.56-37.466 4.699 14.525 15.915 34.266 24.153 33.067 8.244-1.192 11.059-13.419 12.199-18.627.95 5.59 5.279 19.958 10.776 20.484 6.748 1.054 19.659-28.952 24.358-42.509.712 6.696-4.205 41.087 3.07 43.945 7.269 2.864 19.29-11.615 26.111-19.727-4.138 7.849-12.225 26.832-7.407 31.375 4.817 4.543 21.471-.217 27.962-5.564-1.818 3.977-2.207 7.157-1.713 10.147-7.402 1.449-15.039 3.575-22.928 6.512-17.82-11.687-39.134-18.496-62.041-18.496-62.495 0-113.161 50.621-113.161 113.062 0 15.032 2.939 29.373 8.271 42.49-6.439 4.767-12.607 8.547-18.927 11.464 4.62-5.498 8.633-16.066 3.414-18.884zm317.166-126.22c-.076-1.716-.403-2.735-.403-2.735l-.005-.009c-2.089-7.292-9.543-11.797-19.692-11.797-1.079 0-2.177.055-3.262.163-7.777.771-21.606 5.451-25.711 6.884-12.891-3.255-24.974-4.839-36.901-4.839-6.165-.001-12.295.436-18.411 1.289l.009-.004-2.523.34s-.983-3.19 1.586-10.638c1.331-3.862 3.156-7.415 3.156-7.415s-28.071 14.578-31.577 9.925c-3.505-4.653 12.192-41.647 12.192-41.647s-27.062 30.042-32.377 28.709c-2.084-.522-2.283-11.403-2.386-23.112-.14-15.855.412-33.992.412-33.992s-22.284 55.351-27.721 55.063c-4.715-.25-11.574-29.795-11.574-29.795s-4.303 25.46-12.037 28.574c-7.734 3.114-27.628-44.5-27.628-44.5s-.919 47.656-6.453 48.726c-5.533 1.069-23.15-16.742-23.15-16.742s8.258 23.738 5.462 26.865c-1.67 1.866-18.614-8.601-36.243-21.235-10.184-7.299-18.7-13.416-18.7-13.416s9.936 16.488 17.836 33.722c5.438 11.865 8.738 23.251 7.315 25.468-3.488 5.436-29.654-2.312-29.654-2.312s14.873 14.315 13.913 18.002c-.465 1.789-15.256.497-30.286-1.556-15.943-2.178-32.166-5.182-32.166-5.182s53.096 30.843 51.43 36.394c-1.319 4.392-34.364.795-34.364.795s28.731 13.115 28.614 17.449c-.115 4.334-56.237 18.521-56.237 18.521s50.827 10.623 51.799 16.286c.972 5.664-20.046 23.836-20.046 23.836s24.469 2.209 25.684 5.41c1.215 3.201-5.947 15.846-12.162 17.851-7.682 2.478-14.675 4.054-23.192 4.054-1.225 0-2.423-.035-3.594-.098.421-.545.838-1.106 1.2-1.641 2.095-3.065 3.655-6.341 4.505-9.466l.009-.032.008-.033c.436-1.717.66-3.426.668-5.081l.001-.071-.003-.072c-.059-1.881-.671-3.485-1.781-4.576-2.081-1.813-4.022-1.597-5.414-.978l-4.828 2.365c-.359.158-.764.311-1.255.458-.925.277-2.873.607-6.911.607-3.828 0-8.385-.284-12.791-.56 0 0-2.706-.151-3.229-.151-5.256 0-8.765 1.672-10.879 3.201l-1.15-.605c-10.75-5.705-23.262-8.013-31.075-9.453-.607-.113-1.187-.215-1.733-.322-8.629-1.691-13.353-6.808-13.737-7.223-.731-.791-1.683-1.814-2.925-2.53 0 0-2.246-1.4-5.574-.376-2.171.762-3.089 2.454-3.089 2.454-1.861 3.089-.085 7.624 2.257 12.74 2.664 5.811 11.014 20.324 31.001 29.589 6.543 3.036 15.152 5.198 25.586 6.422 7.854.922 14.486 1.038 17.129 1.043 2.544 1.238 10.376 4.855 22.021 8.491 12.784 3.992 32.761 8.738 55.649 8.845 0 0 8.122.103 12.508-.176.442 1.827-2.731 8.358-6.543 16.015-4.517 9.072-10.314 19.804-10.314 19.804s10.473-9.247 20.232-16.102c9.823-6.9 20.827-12.444 23.428-9.249 4.916 6.036-.33 30.947-.33 30.947s19.845-17.545 24.447-15.169c2.106 1.088 2.318 14.198 2.326 28.008.011 16.365-.412 33.745-.412 33.745s27.336-55.262 33.022-53.683c5.686 1.578 11.911 26.775 11.911 26.775s10.385-30.697 16.731-29.952c2.537-.311 7.988 9.645 12.833 19.823 5.31 11.154 9.858 22.058 9.858 22.058s.111-11.399.906-23.046c.719-10.523 2.057-20.795 4.373-21.365 4.877-1.2 19.023 17.743 19.023 17.743s-5.002-26.403-1.083-28.64c3.919-2.237 51.004 38.434 51.004 38.434s-30.899-57.202-27.141-61.57c3.758-4.368 36.76 4.543 36.76 4.543s-4.917-5.802-9.125-12.356c-4.398-6.853-8.061-14.512-6.34-16.353 1.563-1.673 18.77.068 36.546 3.513 20.496 3.972 33.829 6.804 33.829 6.804s-12.072-6.528-29.875-17.23c-15.415-9.266-28.974-19.696-28.396-21.388 1.247-3.646 38.061-7.145 38.061-7.145s-6.178-3.631-12.817-7.687c-7.207-4.403-14.903-9.885-14.903-11.893 0-1.754 9.231-6.102 21.406-9.844 14.596-4.484 28.098-7.49 28.098-7.49s-50.187-4.026-53.322-11.175c-2.14-4.883 1.791-11.25 4.672-15.363 2.882-4.113 7.006-7.845 7.006-7.845 13.712-12.65 31.163-24.297 36.739-27.722l1.154-.72s12.874-9.496 14.197-10.606c1.153-.967 4.098-4.053 4.759-7.98 0 0 .231-1.083.156-2.814z"/><path fill="#FC4C02" d="M387.162 309.867c-2.504 5.077 4.007 20.767 9.959 25.436-4.357-1.304-27.113-7.77-30.764.639-4.013 9.251 18.229 43.188 20.753 49.528-10.254-10.166-38.341-32.955-42.322-30.348-3.981 2.607-2.999 15.309-1.965 21.768-3.855-4.695-10.478-12.221-16.199-9.969-5.72 2.252-5.015 24.06-5.384 33.35-4.719-10.93-12.422-32.936-19.553-32.132-7.131.803-15.131 15.776-16.653 21.498-1.088-5.728-5.754-18.325-12.812-18.325s-23.468 33.337-28.43 44.169c-.02-8.382 1.99-49.278-2.459-51.306-4.448-2.028-19.46 7.296-22.684 11.536 1.193-5.373 2.208-23.533-1.793-25.726-4.007-2.199-15.421-2.891-36.061 16.178 3.426-7.315 9.068-15.276 10.439-22.993 8.547-.441 17.009-1.409 25.543-3.075 18.624 13.465 41.519 21.413 66.265 21.413 62.502 0 113.168-50.621 113.168-113.069 0-4.892-.316-9.712-.916-14.433 4.192-3.944 8.211-7.763 11.955-11.325-.857 2.048-1.331 4.517-1.252 7.559.244 9.534 24.964 11.569 38.098 12.629-14.67 1.989-40.306 12.596-35.435 18.292 4.87 5.689 19.072 13.511 21.089 14.499-6.769 0-29.018 2.298-31.501 8.599-2.492 6.301 32.193 27.424 44.893 32.389-15.798-4.445-53.474-11.859-55.978-6.782zm-19.151-162.505c-7.402 1.449-15.039 3.575-22.928 6.512-17.82-11.687-39.134-18.496-62.041-18.496-62.495 0-113.161 50.621-113.161 113.062 0 15.032 2.939 29.373 8.271 42.49-6.439 4.767-12.607 8.547-18.927 11.464 4.62-5.498 8.633-16.066 3.414-18.884-3.565-1.929-20.146-2.693-20.146-2.693s18.67-12.537 18.235-21.604c-.436-9.06-30.21-13.702-41.981-16.31 10.386-2.186 44.023-9.778 45.467-16.54 1.45-6.756-10.512-11.556-15.54-13.913 5.634.072 19.915 2.463 21.839-4.504 2.201-7.987-32.964-28.787-40.978-31.671 1.793.421 35.285 8.231 47.53 5.584 9.114-1.975-1.509-14.229-3.263-15.678 2.689 1.31 18.044 4.471 22.44-2.812 4.396-7.282-10.518-36.287-18.868-48.58 7.414 7.388 41.275 31.454 46.323 27.358 5.055-4.096 1.193-17.324-1.515-21.689 5.457 5.103 10.827 11.924 17.761 11.78 3.472-.072 7.842-11.543 8.56-37.466 4.699 14.525 15.915 34.266 24.153 33.067 8.244-1.192 11.059-13.419 12.199-18.627.95 5.59 5.279 19.958 10.776 20.484 6.748 1.054 19.659-28.952 24.358-42.509.712 6.696-4.205 41.087 3.07 43.945 7.269 2.864 19.29-11.615 26.111-19.727-4.138 7.849-12.225 26.832-7.407 31.375 4.817 4.543 21.471-.217 27.962-5.564-1.818 3.977-2.207 7.157-1.713 10.147z"/><path fill="#008E97" d="M105.216 296.006c-4.035-.075-8.592-.384-12.922-.651-6.307-.388-9.634 1.982-10.986 3.299 3.941 2.239 16.648 9.62 27.501 11.707v-.007c-.362-.494 17.181-12.372 12.429-18.153h-.007c-1.648.217-2.378 1.896-6.228 3.049-2.241.672-5.753.831-9.788.756 4.035.075 7.547-.085 9.788-.756 3.849-1.152 4.58-2.831 6.228-3.049h.007c.264-.04 1.878-.402 1.957 2.12-.006 1.35-.191 2.726-.547 4.128-.652 2.397-1.918 5.294-3.96 8.283-1.24 1.824-3.282 4.128-3.308 4.155-.337.02-1.911.086-3.236-.046-1.331-.132-2.748-.369-3.335-.481-10.853-2.087-23.56-9.468-27.501-11.707 1.352-1.317 4.679-3.687 10.986-3.299 4.33.267 8.887.576 12.922.651zm351.618-149.164c8.508-.849 17.227 2.041 18.914 9.31h-.006c-4.027-6.308-42.271 6.38-53.144 10.752-2.952 1.192-21.147 9.389-39.733 19.99l-.007.007h-.013l-.244.119c-10.998 3.832-32.483 15.632-40.655 23.27-19.303 18.022-23.666 41.186-51.121 75.023-12.218 15.059-22.776 25.62-31.105 32.56-5.319 4.484-9.997 7.645-13.438 9.468-.132-.421-.165-.751-.165-.751-.019-.119-.026-.25-.026-.395 0-3.009 3.816-10.206 6.532-15.921 1.839-3.865 3.103-7.019 3.103-7.026 4.224-10.476 6.472-20.484 7.098-23.474.956-3.779 3.407-14.459 3.407-14.459s-44.142 39.619-89.898 52.886c-15.586 4.517-32.378 8.191-44.886 8.454 0 0-10.722-.461-11.434-.685-10.867-1.811-23.804-6.822-35.185-18.963-1.456-1.152-2.913-2.357-4.369-3.621.449.461 5.734 8.316 12.146 13.946-2.036.151-5.503.639-16.403-.909-38.138-5.419-50.145-35.247-50.455-38.822-.513.145-.962.303-1.284.599.322-.303.771-.461 1.284-.606 2.003-.566 3.355 1.949 5.115 3.444 1.759 1.495 6.267 5.478 14.512 7.026 8.244 1.547 23.613 4.003 35.198 11.431l.007-.013c9.549 5.735 33.392 25.179 75.715 8.626 19.507-7.625 36.938-22.888 62.837-48.488 4.211-4.155 8.383-8.52 12.634-13.024-.607-3.035-2.268-8.527-5.925-10.799-5.674-3.542-14.274-3.681-19.949-3.266-5.681.421-8.673 1.198-10.61-.356-.844-.672-.89-1.771-.428-3.022 3.572-4.346 9.872-9.877 26.097-12.01 20.502-2.693 27.126 1.956 42.046-3.016 2.952-2.983 6.399-6.091 9.088-8.514 6.215-5.623 12.877-11.227 20.127-16.731 7.257-5.505 15.098-10.904 23.679-16.125 45.973-27.951 83.445-27.029 115.026-18.838 0 0 17.292-6.222 25.919-7.078zm-82.055 99.794c-3.248 10.008-8.238 23.691-14.346 35.266-7.263 13.755-16.832 23.256-21.874 26.904-.837-.507-1.153-1.574-1.18-2.673-.039-1.962 4.271-12.076 5.964-33.364 5.444-4.089 10.334-7.98 14.657-11.569 5.496-4.57 11.157-9.515 16.779-14.565z"/><path fill="#005778" d="M417.438 160.227c3.471-.837 4.947-1.899 5.144-1.436.198.462-1.711 1.546-7.685 3.992-4.371 1.79-8.389 2.882-14.868 4.491-2.99.9-7.211 2.256-7.211 2.256l-.057-.083.001-.001c-.08-.109-.143-.219-.196-.329l-.019-.036c-.376-.826-.043-1.669.348-2.268-11.783-.865-17.549 5.781-17.549 5.781-.426.322-.936.931-1.477 1.692 1.708-2.611 5.527-7.572 11.201-10.047 7.914-3.454 13.065-2.912 16.709-2.912 3.646-.001 12.189-.263 15.66-1.101zm-151.208 105.09s-2.451 10.68-3.407 14.459c-16.41 11.036-42.066 26.582-68.156 36.103-31.917 11.964-60.986 10.825-63.221 10.779 12.508-.263 29.301-3.938 44.886-8.454 45.756-13.268 89.898-52.886 89.898-52.886zm-143.035 29.005c-.006 1.35-.191 2.726-.547 4.128-.652 2.397-1.918 5.294-3.96 8.283-1.24 1.824-3.282 4.128-3.308 4.155-.337.02-1.911.086-3.236-.046-1.331-.132-2.748-.369-3.335-.481v-.007c-.362-.494 17.181-12.372 12.429-18.153.264-.04 1.878-.402 1.957 2.12zm350.299-130.57l-.006.007s-.706 1.04-3.065 3.101c-2.353 2.061-6.359 5.129-12.956 9.185-6.313 3.878-23.909 15.77-37.419 28.247-.502.461-36.623 34.522-37.526 35.359-.099.316-4.784 17.752-15.975 40.429-7.842 15.888-19.547 25.818-23.699 28.089-.263.138-2.675 1.666-4.29.639 5.042-3.648 14.611-13.149 21.874-26.904 6.109-11.575 11.098-25.258 14.346-35.266-5.621 5.05-11.283 9.995-16.779 14.565-4.323 3.589-9.213 7.48-14.657 11.569 0 .02-11.704 8.599-18.321 12.998l-.006.007c-3.704 2.456-20.674 13.024-30.968 18.634-8.738 4.767-27.04 13.432-27.093 13.459h-.007c-9.53 8.04-16.996 11.793-18.993 11.292-1.225-.303-1.648-1.745-1.674-1.817 3.441-1.824 8.119-4.984 13.438-9.468 8.329-6.94 18.888-17.502 31.106-32.56 27.454-33.838 31.817-57.002 51.12-75.023 8.172-7.638 29.656-19.437 40.655-23.27l.244-.119c-12.588 7.177-25.346 15.454-33.67 23.388-16.127 15.059-21.643 32.646-37.617 56.673l-.403.626c53.823-40.784 95.414-88.015 138.416-103.106 1.371-.481 2.668-.928 3.914-1.35l.152-.053c14.636-4.945 20.554-5.715 20.983-2.963.191 1.198-.771 2.983-1.127 3.635zm-252.544 53.391c-16.234 2.134-22.53 7.671-26.106 12.02.071-.195.529-1.267 1.18-2.172.947-1.317 1.637-2.037 2.538-2.869 2.985-2.756 13.635-9.886 36.405-12.879 14.493-1.902 19.563-1.541 26.55-2.92 3.076-.545 6.339-1.35 10.562-2.706-2.688 2.425-6.134 5.529-9.083 8.51-14.921 4.973-21.548.325-42.047 3.016zm31.671 93.133c-2.715 5.715-6.53 12.912-6.53 15.921 0 .145.007.277.026.395-34.717 13.551-63.029 12.912-63.135 12.919-47.74 2.258-85.304-17.159-85.304-17.159l-.007-.007-.764.007c-4.481 0-26.651-.342-41.209-7.098-15.922-7.381-25.083-18.95-29.069-27.648-2.966-6.479-3.111-8.547-2.168-9.403l.263-.198.007-.007c.283-.171.633-.29 1.015-.395.31 3.575 12.317 33.403 50.455 38.822 10.9 1.547 14.367 1.06 16.403.909-6.412-5.63-11.697-13.485-12.146-13.946 1.456 1.264 2.913 2.469 4.369 3.621 11.381 12.142 24.319 17.153 35.185 18.963l.047.013h.006l.046.013.613.198c4.672 1.528 31.943 10.18 74.523.204 21.623-5.063 45.526-15.223 60.479-23.151 0 .007-1.265 3.161-3.104 7.026z"/><path fill="#FFFFFE" d="M375.345 172.595s5.766-6.646 17.549-5.781c-.391.599-.724 1.441-.348 2.268l.019.036c.052.111.117.221.196.33-7.321 2.49-19.702 7.398-23.63 13.212 0 0 2.613-5.383 4.737-8.373.541-.761 1.05-1.37 1.477-1.692zm-112.521 107.181c-.626 2.989-2.873 12.998-7.098 23.474-14.953 7.928-38.856 18.088-60.479 23.151-42.58 9.975-69.85 1.323-74.523-.204l-.665-.211c1.041.224 11.387.672 11.387.672 2.235.046 31.304 1.185 63.221-10.779 26.09-9.521 51.746-25.067 68.156-36.103z"/></g></svg>