<svg xmlns="http://www.w3.org/2000/svg" width="500" height="500" viewBox="0 0 500 500"><g fill="none"><path d="M0 0h500v500h-500z"/><g fill-rule="nonzero"><path fill="#115740" d="M475.917 237.13c-8.155-27.043-43.449-59.167-94.521-86.006-45.202-23.753-98.48-32.156-130.666-32.156h-1.541c-32.199 0-85.492 8.403-130.691 32.156-51.079 26.84-86.373 58.963-94.525 86.007-.707 3.93-1.041 7.919-.999 11.912v.135c-.044 3.994.29 7.982.995 11.913 8.153 27.044 43.449 59.166 94.52 86.006 45.464 23.89 99.094 32.263 131.24 32.155h.965c32.2 0 85.498-8.403 130.697-32.156 51.071-26.837 86.367-58.962 94.521-86.005.705-3.932 1.038-7.922.994-11.916v-.131c.045-3.994-.287-7.983-.991-11.914z"/><path fill="#FFF" d="M320.778 203.791l3.928-7.446h1.963c1.259 0 1.889.482 1.889 1.445-.031.55-.197 1.084-.482 1.556l-2.366 4.445h13.781l1.89-3.449c.507-.829.8-1.771.853-2.742 0-1.407-1.087-2.456-3.26-3.148 1.178-.166 2.334-.464 3.445-.889.982-.469 1.873-1.108 2.631-1.889 1.542-1.494 2.397-3.558 2.365-5.705.079-1.238-.351-2.456-1.189-3.371-1.087-1.086-3.051-1.63-5.89-1.63h-21.11l-12.155 22.823h13.708zm8.892-17.04h2.037c.937 0 1.405.37 1.405 1.111-.02.444-.147.876-.371 1.26l-.556 1.037c-.476 1.139-1.576 1.893-2.81 1.926h-2.631l2.925-5.334zm-130.039 17.04l7.484-8.854-2.111 8.854h13.706l20.377-22.818h-12.41l-8.225 10.705 3.038-10.705h-12.97l-7.854 10.632 2.702-10.632h-13.147l-4.297 22.818h13.708zm76.798-11.671c-.964 1.756-1.52 3.707-1.626 5.707-.009 2.166 1.338 4.105 3.371 4.853 2.371 1.136 6.15 1.704 11.337 1.703 7.286 0 12.399-1.469 15.338-4.408 1.996-2.172 3.634-4.648 4.853-7.334.966-1.754 1.524-3.704 1.631-5.704.014-2.156-1.316-4.093-3.334-4.853-2.396-1.136-6.187-1.704-11.373-1.704-7.287 0-12.399 1.469-15.338 4.408-2 2.171-3.641 4.647-4.863 7.334l.004-.002zm12.596 2.801l3.113-5.818c.404-.846.963-1.608 1.648-2.247.603-.482 1.359-.73 2.13-.699 1.236 0 1.853.515 1.853 1.546-.049.755-.278 1.487-.667 2.135l-3.112 5.818c-.393.827-.933 1.576-1.593 2.21-.617.499-1.393.76-2.186.736-1.234 0-1.852-.515-1.853-1.546.05-.754.278-1.485.667-2.133v-.002zm-29.126 8.87l3.783-7.075 18.266-15.743h-12.787l-7.003 7.075.186-7.075h-13.893l1.001 15.336-3.999 7.483h14.446zm-83.911 0l3.075-5.778h-14.375l1.594-2.89h12.892l2.964-5.594h-12.93l1.556-2.778h13.893l3.076-5.778h-27.157l-12.153 22.818h27.564zm181.845 0l5.372-10.113.667 10.113h13.56l-1.445-11.671 12.634-11.149h-12.782l-11.374 10.337 5.521-10.334h-14.079l-12.146 22.818h14.073zm-11.204 19.321h-79.332l-8.461 15.809h21.047l-16.517 30.942c7.456 1.308 14.673 3.729 21.41 7.182 3.667 1.909 7.202 4.062 10.58 6.445l23.789-44.569h19.029l8.455-15.809zm-217.758-29.915l2.297 10.59h11.929l12.153-22.818h-11.116l-5.039 9.779-2.149-9.779h-12.521l-12.152 22.821h11.115l5.483-10.594zm359.739 41.234l-.156-.648c-9.079-30.859-45.899-65.173-101.025-94.142-47.296-24.85-103.04-33.641-136.694-33.641h-1.557c-33.669 0-89.431 8.796-136.723 33.644-55.121 28.969-91.947 63.283-101.024 94.142l-.153.643c-.897 4.841-1.324 9.758-1.274 14.682-.049 4.923.378 9.84 1.274 14.681l.153.643c9.079 30.859 45.899 65.173 101.024 94.142 47.296 24.855 103.053 33.644 136.71 33.644h1.535c33.671 0 89.435-8.793 136.723-33.644 55.121-28.968 91.948-63.281 101.025-94.142l.156-.648c.897-4.839 1.327-9.754 1.282-14.675.047-4.923-.38-9.839-1.275-14.68zm-11.694 14.745c.044 3.995-.289 7.984-.994 11.916-8.155 27.043-43.449 59.167-94.521 86.005-45.2 23.753-98.498 32.156-130.697 32.156h-.974c-32.146.108-85.776-8.265-131.24-32.155-51.074-26.839-86.368-58.962-94.52-86.006-.706-3.931-1.038-7.92-.994-11.914v-.135c-.044-3.993.289-7.982.995-11.912 8.151-27.044 43.449-59.166 94.52-86.007 45.206-23.753 98.496-32.156 130.698-32.156h1.546c32.186 0 85.466 8.403 130.67 32.156 51.072 26.838 86.367 58.963 94.521 86.006.705 3.932 1.038 7.921.994 11.915l-.004.131zm-208.15 49.494l.917.769c.321 1.436.541 2.893.66 4.359 2.779.045 5.558.094 8.336.186 8.971.236 17.948.586 26.922 1.21l1.621-1.952-.108-.672c-2.034-6.888-10.615-15.115-24.102-22.184-10.218-5.117-21.455-7.873-32.882-8.064h-.358c-11.457.2-22.721 2.98-32.955 8.133-13.471 7.097-22.035 15.345-24.055 22.235l-.084.54 1.634 1.964c8.971-.625 17.933-.973 26.9-1.21 3.103-.103 6.207-.152 9.311-.201.119-1.461.339-2.912.658-4.343l.917-.769c.888-.035 1.775-.066 2.662-.095l.603.732c-.812 4.66-.812 9.426 0 14.086l-.603.731c-.887-.029-1.774-.061-2.662-.095l-.917-.769c-.32-1.431-.539-2.882-.658-4.343-3.104-.049-6.208-.098-9.311-.201-8.971-.235-17.934-.586-26.9-1.21l-1.513 1.814c2.079 6.87 10.617 15.064 24.016 22.122 10.234 5.153 21.498 7.933 32.955 8.133h.358c11.426-.191 22.664-2.946 32.882-8.064 13.485-7.068 22.066-15.296 24.102-22.184l-1.513-1.823c-8.971.625-17.948.973-26.922 1.21-2.779.092-5.558.14-8.336.186-.119 1.467-.34 2.923-.66 4.359l-.917.769c-.888.035-1.775.066-2.662.095l-.603-.731c.812-4.66.812-9.426 0-14.086l.603-.732 2.66.098.004-.004zm-24.817 14.895l-.682.763c-.888-.013-1.775-.029-2.662-.048l-.839-.782c-.575-4.748-.575-9.549 0-14.297l.839-.782c.888-.018 1.775-.034 2.662-.048l.682.763c-.352 4.805-.353 9.63-.004 14.435l.004-.004zm8.577.036l-.757.779h-2.662l-.757-.779c-.112-4.834-.112-9.668 0-14.501l.757-.78h2.662l.757.78c.11 4.837.108 9.672-.004 14.506l.004-.004zm8.578-.103l-.839.782c-.887.018-1.774.034-2.662.048l-.682-.763c.35-4.804.35-9.627 0-14.431l.682-.763c.888.013 1.775.029 2.662.048l.839.782c.574 4.75.572 9.552-.004 14.301l.004-.004zm127.02-91.997c-22.958 0-32.424 3.626-39.269 10.471-4.833 4.828-7.45 10.669-7.45 15.401 0 7.049 3.722 9.566 16.814 12.887 13.992 3.524 16.712 4.226 16.712 7.249 0 3.319-3.12 5.231-8.46 5.231-4.829 0-7.143-1.513-7.143-3.925.005-1.792.452-3.556 1.303-5.133h-31.103c-1.444 2.766-2.204 5.838-2.218 8.959 0 9.566 8.054 14.097 35.841 14.097 23.454 0 32.925-3.933 39.266-10.266 5.032-5.036 7.648-10.973 7.648-16.809 0-7.153-4.724-10.071-17.92-13.192-13.196-3.121-15.705-3.927-15.705-6.142 0-2.515 2.822-4.833 8.359-4.833 4.431 0 6.947 1.613 6.947 3.828-.017 1.633-.471 3.232-1.314 4.631h30.512c1.26-2.743 1.88-5.736 1.811-8.753 0-9.669-9.263-13.7-34.633-13.7zm-207.353 1.611h-38.261l-20.752 39.562c-2.82 5.231-4.936 8.051-9.163 8.051-2.817 0-3.926-1.609-3.926-3.823.197-1.985.814-3.905 1.809-5.633l8.106-15.497h-32.629l-3.967 7.541c-3.423 6.241-4.837 10.369-4.837 16.102 0 11.275 10.47 17.319 35.643 17.319 18.123 0 30.306-3.729 37.652-11.078 4.933-4.934 8.056-10.166 12.989-19.425l17.333-33.118zm11.997 86.1l.017.048-.029-.13.012.082zm22.291-32.096c6.933-3.568 14.375-6.047 22.064-7.349l.184-.344h-39.068l4.332-7.851h38.039l8.054-15.203h-38.141l4.225-7.547h37.759l8.361-15.705h-73.8l-33.023 62.012h48.36c3.982-3.025 8.214-5.706 12.65-8.015l.004.002z"/></g></g></svg>