<svg xmlns="http://www.w3.org/2000/svg" width="500" height="500" viewBox="0 0 500 500">
  <g fill="none" fill-rule="evenodd">
    <polygon points="0 0 500 0 500 500 0 500"/>
    <g transform="translate(35 59)">
      <path fill="#B1BABF" d="M331.436214,279.882222 C321.686008,294.631399 312.41358,308.23037 304.866461,319.13963 C313.599177,326.359383 313.07716,335.454856 313.07716,337.180165 C312.909053,346.851626 307.759671,354.070494 303.043827,358.290864 C297.177778,363.289835 289.161728,365.714115 280.703292,365.776049 C280.455556,365.776049 274.403704,365.590247 272.324486,365.112469 C271.430864,366.421934 269.705556,368.014527 266.900823,369.155885 C266.592037,370.040658 266.166461,370.925432 265.609053,371.765967 C263.299794,375.23428 259.468724,377.163086 255.566872,377.163086 C255.566872,377.163086 251.611934,377.048066 248.877984,375.164383 C245.37428,372.854239 243.445473,369.014321 243.445473,365.103621 L243.445473,364.997449 C243.454321,363.130576 243.905556,361.23716 244.808025,359.5207 C244.401029,358.556296 242.976543,352.79642 242.976543,352.79642 L246.70144,349.513909 C247.002263,349.336955 247.922428,347.94786 248.957613,344.399918 C250.054733,340.940453 251.364198,335.799918 254.106996,329.81 C257.601852,322.200947 262.450412,314.326461 265.989506,308.876255 C265.644444,307.133251 263.812963,306.328107 262.49465,306.009588 C261.017078,305.61144 259.194444,304.75321 257.7443,303.063292 C256.221605,301.293745 255.054588,298.798683 255.708436,295.578107 C256.354321,292.40177 258.345062,290.110206 260.672016,289.03963 L260.672016,289.030782 C263.308642,287.659383 266.564609,288.314115 266.564609,288.314115 C274.324074,289.030782 280.057407,296.23284 280.057407,296.23284 C287.781481,285.456296 305.751235,258.727284 306.131687,258.143333 C282.579012,262.646831 258.247737,263.257325 238.039506,259.904033 C201.294856,253.807942 173.026337,234.245597 154.764609,225.327078 C136.502881,216.417407 101.71358,207.286543 65.8271605,216.417407 C29.9495885,225.548272 6.25534979,258.603416 6.25534979,258.603416 C16.9699588,183.114527 63.7302469,170.391481 68.2160494,169.117407 C75.0288066,162.738189 83.9650206,143.273169 62.8012346,130.143128 C55.5726337,125.657325 49.5030864,119.977078 49.5030864,119.977078 C53.9358025,120.499095 64.331893,119.127695 70.1006173,116.844979 C77.0283951,114.111029 83.3987654,113.199712 83.3987654,113.199712 C77.9308642,107.988395 69.5786008,105.378313 69.5786008,105.378313 C77.9220165,104.856296 90.9635802,101.98963 99.0415638,98.3355144 C107.119547,94.6902469 111.552263,88.169465 110.242798,85.3027984 C108.942181,82.427284 101.642798,84.0021811 101.642798,84.0021811 C104.252881,80.0914815 110.50823,78.5254321 110.50823,78.5254321 C92.5207819,77.4813992 79.417284,87.2758436 79.417284,87.2758436 C81.4168724,82.9846914 87.9907407,75.269465 87.9907407,75.269465 C85.495679,76.0923045 78.5855967,78.2511523 78.1520576,78.3838683 C106.314403,56.6361317 137.750412,37.5161728 181.794444,37.2330453 C225.82963,36.94107 268.732305,56.6803704 297.319342,65.82893 C325.924074,74.9774897 341.098827,79.5960082 371.985391,75.0305761 C386.769959,72.8363374 399.715082,66.7756379 409.198971,61.0953909 C409.198971,61.0953909 415.834774,44.2227572 416.339979,19.9976543 C416.339979,19.9976543 424.29321,34.2602058 424.328601,56.4680247 C424.40823,132.682428 387.477778,188.343539 375.674897,208.605741 C364.394033,228.538807 349.565226,252.41 331.436214,279.882222 Z M412.649588,0.00176954732 C412.649588,0.00176954732 413.650267,18.3254321 410.189918,35.1007407 C406.845473,51.3097942 405.005144,57.4855144 405.005144,57.4855144 C397.926955,61.6351029 386.469136,66.7402469 369.72037,69.527284 C338.461317,74.7386008 310.095473,66.3420988 279.128395,54.1853086 C248.152469,42.0285185 206.709671,28.9338683 168.257407,33.3488889 C130.973045,37.6311934 104.297119,52.7342798 90.1141975,62.5818107 C75.9312757,72.4204938 73.3211934,75.0217284 61.1644033,78.4988889 C61.1644033,78.4988889 70.7199588,82.259177 75.6393004,82.259177 C75.6393004,82.259177 73.3211934,91.8235802 74.1882716,94.9999177 C74.1882716,94.9999177 94.4495885,85.7363374 96.7676955,90.0805761 C99.0858025,94.4248148 89.5302469,97.3268724 82.876749,99.0521811 C76.223251,100.795185 58.8462963,100.494362 58.8462963,100.494362 C58.8462963,100.494362 66.9950617,106.802798 69.8705761,111.182428 C69.8705761,111.182428 54.5109053,117.871317 37.4259259,115.55321 C37.4259259,115.55321 36.8596708,121.879342 50.9010288,132.240041 C47.9104938,133.310617 44.1236626,135.044774 41.7790123,137.548683 C41.7790123,137.548683 56.4927984,134.513909 65.7386831,144.812675 C68.1718107,147.865144 68.968107,150.599095 68.6938272,154.049712 C68.1895062,160.305062 65.7917695,162.693951 59.899177,166.586955 C56.5281893,167.958354 52.944856,169.674815 49.4853909,171.789424 C33.2144033,181.787366 21.3141975,197.005473 12.9619342,214.391276 C9.34320988,221.9207 6.45,230.671111 4.40617284,238.607531 C2.36234568,246.588189 1.61028807,253.675226 1.13251029,258.099095 C0.65473251,262.514115 0,276.431605 0,276.431605 C0,276.431605 7.29938272,266.203621 10.7234568,261.301975 C14.1298354,256.418025 35.7183128,229.273169 67.1631687,221.407531 C77.2230453,218.850535 87.2386831,217.779959 96.8119342,217.779959 C119.824897,217.762263 140.378189,224.008765 152.543827,229.963292 C170.203909,238.510206 199.215638,258.683045 237.252058,264.991481 C246.206852,266.469053 255.858848,267.203416 265.865638,267.203416 C275.465432,267.203416 285.40144,266.504444 295.328601,265.150741 C289.719136,273.5207 284.339712,281.342099 279.22572,288.588395 C274.040947,283.651358 267.006996,283.138189 267.006996,283.138189 C258.477778,282.333045 254.205206,287.526667 254.205206,287.526667 C252.479012,289.393539 251.187243,291.817819 250.682922,294.675638 C250.081276,297.321111 250.797942,300.401008 251.2943,301.966173 C252.921399,307.133251 257.33642,309.486749 259.052881,310.238807 C246.58642,326.846008 242.967695,345.966852 242.967695,345.974815 L237.278601,350.991481 L239.331276,359.308354 C236.163786,369.509794 241.136214,377.163086 247.586214,380.330576 C254.133539,383.551152 260.247325,381.68428 260.247325,381.68428 C264.096091,380.604856 267.582099,378.180576 269.953292,374.623786 C270.316934,374.084074 270.634568,373.535514 270.917695,372.986955 C272.244856,372.270288 273.386214,371.465144 274.359465,370.598066 C276.155556,370.801564 280.756379,370.943128 280.756379,370.943128 C290.188066,370.863498 299.407407,368.191481 306.441358,362.219259 C311.980041,357.264527 318.076132,348.814938 318.288477,337.268642 C318.288477,335.100947 318.686626,326.359383 311.466872,318.741481 C357.024753,251.852593 386.601852,208.790658 405.482922,164.976667 C455.508025,48.8412757 412.835391,0.417613169 412.649588,0.00176954732 L412.649588,0.00176954732 Z"/>
      <path fill="#000" d="M262.485802,339.887572 C262.476955,339.905267 262.468107,339.931811 262.459259,339.949506 C262.450412,339.958354 262.450412,339.967202 262.450412,339.976049 C262.459259,339.958354 262.468107,339.940658 262.476955,339.922963 C262.476955,339.905267 262.485802,339.89642 262.485802,339.887572 Z M353.475926,235.183457 C333.426955,244.526667 287.163025,260.019053 241.091975,251.419053 C225.059877,248.428519 203.958025,243.4207 176.052263,226.503827 C157.746296,215.417613 137.980453,204.818025 91.9014403,205.021523 C53.7323045,205.207325 29.2152263,222.50465 21.4115226,228.936955 C42.1240741,161.357942 103.350412,171.240864 103.350412,171.240864 C92.1757202,165.879136 78.7625514,167.931811 78.7625514,167.931811 C97.9444444,137.752181 67.0393004,123.622346 67.0393004,123.622346 C69.640535,123.622346 81.3726337,120.233663 87.3625514,118.145597 C93.3613169,116.066379 104.367901,114.624198 104.367901,114.624198 C100.527984,111.093951 88.6631687,108.244979 88.6631687,108.244979 C99.873251,108.244979 110.021605,102.812469 117.082099,95.46 C119.54177,92.9030041 126.274897,80.1003292 118.6393,75.136749 C111.614198,70.5713169 97.6790123,75.64107 97.6701646,75.6499177 C97.6878601,75.6322222 139.387243,30.7034156 225.440329,49.9030041 C266.263786,59.0161728 312.280864,82.9227572 354.767695,83.1793416 C369.047942,83.2678189 400.554733,78.6316049 419.356173,59.7062963 C418.365226,95.6634979 411.66749,146.024815 353.475926,235.183457 Z M299.310082,314.299918 C299.256996,314.255679 299.177366,314.202593 299.133128,314.167202 C298.044856,313.176255 296.638951,311.981811 295.080864,310.681193 C297.620165,307.062469 326.711523,263.805885 335.240741,250.392716 C338.223313,249.339835 341.124486,248.18963 343.991152,246.986337 C338.223313,256.108354 306.751029,303.532222 299.310082,314.299918 Z M297.788272,352.16823 C293.842181,355.61 287.135597,357.804239 280.128189,357.671523 C273.881687,357.547654 269.49321,356.539012 265.520576,354.380165 C265.502881,354.424403 265.494033,354.459794 265.48607,354.512881 C265.175514,354.778313 264.547325,356.220494 259.956235,356.90177 C256.876337,357.406091 255.089979,356.786749 254.903292,356.724815 C260.318107,362.201564 265.219753,358.750947 265.219753,358.750947 C265.450679,359.706502 265.786008,360.387778 265.786008,360.387778 C265.786008,360.387778 264.158909,362.777551 259.203292,361.953827 C258.601646,361.856502 258.088477,361.688395 257.584156,361.502593 C257.681481,361.555679 257.769959,361.59107 257.867284,361.653004 C259.769547,362.900535 260.282716,365.457531 259.03607,367.350947 C257.769959,369.25321 255.221811,369.766379 253.320432,368.518848 C251.426132,367.262469 250.904115,364.705473 252.160494,362.812058 C253.186831,361.254856 255.062551,360.644362 256.752469,361.148683 C253.03642,359.36144 252.080864,355.627695 252.080864,355.627695 C256.832099,351.416173 256.681687,343.789424 261.530247,333.189835 C261.75144,332.70321 261.999177,332.207737 262.238066,331.712263 C262.238066,331.729959 262.229218,331.747654 262.22037,331.76535 C261.16749,334.401975 260.158848,338.932016 260.574691,342.232222 C260.663169,342.948889 260.805617,343.603621 260.97284,344.240658 L260.97284,344.249506 C261.043621,344.541481 262.671605,351.133045 267.122016,350.062469 C267.077778,350.159794 266.431893,351.610823 266.423045,351.628519 C268.369547,352.840658 272.828807,354.955267 280.420165,355.052593 C291.081687,355.194156 296.912346,348.178786 298.513786,342.957737 C299.771049,338.896626 297.823663,334.38428 293.80679,330.429342 C294.983539,329.06679 295.700206,327.165412 294.912757,324.545597 C295.275514,325.757737 293.001646,327.916584 290.603909,327.704239 C290.382716,327.686543 290.17037,327.651152 289.949177,327.589218 C286.330453,326.580576 282.207407,322.174403 278.712551,319.564321 C275.235391,316.954239 274.217901,312.910823 274.288683,310.044156 C274.34177,307.17749 273.368519,303.779959 270.634568,301.205267 C267.900617,298.631461 265.450679,298.38284 264.671193,298.179342 C263.883745,297.967881 263.662551,297.48037 263.742181,296.958354 C263.902325,296.100123 265.008292,296.259383 265.008292,296.259383 C271.644095,297.586543 276.49177,304.161296 277.562346,306.089218 C278.553292,307.858765 289.029012,316.042922 293.081276,319.626255 C294.974691,321.006502 303.176543,327.297243 304.645267,333.747243 C306.388272,341.444774 301.726399,348.735309 297.788272,352.16823 Z M285.967695,334.667407 C287.268313,335.313292 289.135185,336.578519 290.011111,338.41 C290.241152,338.896626 290.347325,339.365556 290.347325,339.887572 C290.480926,342.028724 287.976132,345.160823 285.75535,345.983663 C284.145062,346.647243 282.012757,346.974609 279.951235,346.965761 C279.296502,346.965761 278.650617,346.939218 278.022428,346.877284 C278.606379,345.895185 279.314198,344.700741 280.101646,343.417819 C281.871193,340.524609 284.066317,337.153621 285.967695,334.667407 Z M267.493621,321.935514 C269.246358,318.962675 271.085802,316.042922 272.952675,313.140864 C273.041152,313.009033 273.12963,312.875432 273.218107,312.742716 C273.138477,313.35321 272.926132,316.671111 274.040947,319.962469 C274.686831,321.537366 275.713169,323.129959 277.332305,324.616379 C278.783333,325.952387 279.995473,327.022963 281.004115,327.863498 C276.103354,334.198477 269.156996,346.045597 269.156996,346.045597 C266.184156,346.222551 264.697737,345.240453 263.017551,341.657119 C262.777778,341.143951 262.591975,340.577695 262.450412,339.984897 L262.450412,339.976049 C261.565638,336.286543 262.370782,331.535309 262.389362,331.402593 C262.512346,331.154856 265.812551,324.784486 267.493621,321.935514 Z M316.465844,255.922551 C320.535802,254.931605 324.561523,253.852181 328.516461,252.613498 C328.631481,252.578107 328.747387,252.542716 328.861523,252.498477 C324.818107,258.629959 292.983951,304.178107 290.789712,307.133251 C290.612757,306.991687 285.144856,302.311235 284.951091,302.143128 C293.06358,290.871111 316.005761,256.621523 316.465844,255.922551 Z M416.339979,19.9976543 C415.834774,44.2227572 409.198971,61.0953909 409.198971,61.0953909 C399.715082,66.7756379 386.769959,72.8363374 371.985391,75.0305761 C341.098827,79.5960082 325.924074,74.9774897 297.319342,65.82893 C268.732305,56.6803704 225.82963,36.94107 181.794444,37.2330453 C137.750412,37.5161728 106.314403,56.6361317 78.1520576,78.3838683 C78.5855967,78.2511523 85.495679,76.0923045 87.9907407,75.269465 C87.9907407,75.269465 81.4168724,82.9846914 79.417284,87.2758436 C79.417284,87.2758436 92.5207819,77.4813992 110.50823,78.5254321 C110.50823,78.5254321 104.252881,80.0914815 101.642798,84.0021811 C101.642798,84.0021811 108.942181,82.427284 110.242798,85.3027984 C111.552263,88.169465 107.119547,94.6902469 99.0415638,98.3355144 C90.9635802,101.98963 77.9220165,104.856296 69.5786008,105.378313 C69.5786008,105.378313 77.9308642,107.988395 83.3987654,113.199712 C83.3987654,113.199712 77.0283951,114.111029 70.1006173,116.844979 C64.331893,119.127695 53.9358025,120.499095 49.5030864,119.977078 C49.5030864,119.977078 55.5726337,125.657325 62.8012346,130.143128 C83.9650206,143.273169 75.0288066,162.738189 68.2160494,169.117407 C63.7302469,170.391481 16.9699588,183.114527 6.25534979,258.603416 C6.25534979,258.603416 29.9495885,225.548272 65.8271605,216.417407 C101.71358,207.286543 136.502881,216.417407 154.764609,225.327078 C173.026337,234.245597 201.294856,253.807942 238.039506,259.904033 C258.247737,263.257325 282.579012,262.646831 306.131687,258.143333 C305.751235,258.727284 287.781481,285.456296 280.057407,296.23284 C280.057407,296.23284 274.324074,289.030782 266.564609,288.314115 C266.564609,288.314115 263.308642,287.659383 260.672016,289.030782 L260.672016,289.03963 C258.345062,290.110206 256.354321,292.40177 255.708436,295.578107 C255.054588,298.798683 256.221605,301.293745 257.7443,303.063292 C259.194444,304.75321 261.017078,305.61144 262.49465,306.009588 C263.812963,306.328107 265.644444,307.133251 265.989506,308.876255 C262.450412,314.326461 257.601852,322.200947 254.106996,329.81 C251.364198,335.799918 250.054733,340.940453 248.957613,344.399918 C247.922428,347.94786 247.002263,349.336955 246.70144,349.513909 L242.976543,352.79642 C242.976543,352.79642 244.401029,358.556296 244.808025,359.5207 C243.905556,361.23716 243.454321,363.130576 243.445473,364.997449 L243.445473,365.103621 C243.445473,369.014321 245.37428,372.854239 248.877984,375.164383 C251.611934,377.048066 255.566872,377.163086 255.566872,377.163086 C259.468724,377.163086 263.299794,375.23428 265.609053,371.765967 C266.166461,370.925432 266.592037,370.040658 266.900823,369.155885 C269.705556,368.014527 271.430864,366.421934 272.324486,365.112469 C274.403704,365.590247 280.455556,365.776049 280.703292,365.776049 C289.161728,365.714115 297.177778,363.289835 303.043827,358.290864 C307.759671,354.070494 312.909053,346.851626 313.07716,337.180165 C313.07716,335.454856 313.599177,326.359383 304.866461,319.13963 C312.41358,308.23037 321.686008,294.631399 331.436214,279.882222 C349.565226,252.41 364.394033,228.538807 375.674897,208.605741 C387.477778,188.343539 424.40823,132.682428 424.328601,56.4680247 C424.29321,34.2602058 416.339979,19.9976543 416.339979,19.9976543 Z M262.459259,339.949506 C262.450412,339.958354 262.450412,339.967202 262.450412,339.976049 C262.459259,339.958354 262.468107,339.940658 262.476955,339.922963 C262.476955,339.905267 262.485802,339.89642 262.485802,339.887572 C262.476955,339.905267 262.468107,339.931811 262.459259,339.949506 L262.459259,339.949506 Z"/>
      <path fill="#A71930" d="M323.18216,186.166996 C302.583745,200.739218 270.333745,205.18963 270.333745,205.18963 C269.970988,206.587572 267.838683,208.056296 267.838683,208.056296 C267.838683,208.056296 271.138889,209.277284 279.243416,215.373374 C287.339095,221.469465 285.144856,221.168642 287.728395,222.911646 C290.311934,224.645802 291.780658,224.159177 291.780658,224.159177 C292.559259,225.725226 292.657469,228.052181 292.657469,228.052181 C293.736008,229.069671 299.018107,234.112881 294.107613,239.333045 C289.188272,244.55321 283.508025,239.70465 283.508025,239.70465 C281.499588,240.129342 279.544239,239.465761 279.544239,239.465761 C279.544239,239.465761 269.033128,246.083868 258.593683,238.872963 C250.098971,233.015761 250.61214,226.070288 251.108498,223.672551 C248.240947,225.31823 245.161934,226.601152 242.004177,227.592099 C233.482922,230.264115 222.609053,231.370082 211.805967,227.777901 C204.710082,225.389012 198.835185,221.248272 194.198971,216.656296 C189.553909,212.055473 186.120988,206.976872 183.88251,202.402593 C183.546296,201.703621 183.227778,201.013498 182.94465,200.34107 C182.20144,202.110617 178.64465,208.826934 167.629218,208.348272 C154.950412,207.799712 150.553086,196.182634 150.553086,196.182634 C150.553086,196.182634 148.597737,195.527901 147.252881,193.988395 C147.252881,193.988395 139.803086,194.430782 139.024486,187.299506 C138.254733,180.16823 145.518724,179.336543 146.996296,179.177284 C146.996296,179.177284 148.465021,177.372346 150.03107,176.593745 C150.03107,176.593745 150.915844,177.876667 154.021399,178.044774 C157.126955,178.212881 155.198148,177.124609 165.337654,177.151152 C175.47716,177.168848 178.8393,178.195185 178.8393,178.195185 C178.8393,178.195185 178.025309,175.735514 178.582716,174.399506 C178.582716,174.399506 155.552058,151.395391 147.916461,127.347243 C140.280864,103.299095 142.616667,94.3805761 151.889095,69.022963 C151.889095,69.022963 158.763786,112.226461 179.865638,139.371317 C191.907407,154.863704 205.453292,166.940864 214.876132,174.46144 C215.088477,174.46144 215.309671,174.470288 215.522016,174.470288 C213.51358,172.231811 211.982922,169.604033 211.222016,166.595802 C209.337449,159.163704 206.249588,152.253621 204.833951,146.750329 C203.418313,141.238189 206.568107,130.222757 206.568107,130.222757 C202.338889,123.445391 204.400412,112.288395 204.400412,112.288395 C204.400412,112.288395 206.691975,111.200123 208.434979,109.085514 C210.169136,106.962058 209.56749,100.69786 210.983128,91.4785185 C212.398765,82.259177 218.397531,72.7213169 231.686831,67.2976543 C244.90535,61.900535 264.759671,68.9787243 264.936626,69.0406584 C265.11358,69.0937449 285.224486,75.4198765 292.515021,87.700535 C299.840947,100.043128 298.867695,111.279753 294.434979,119.481605 C290.003148,127.692305 285.737654,132.319671 285.852675,135.062469 C285.958848,137.79642 287.135597,140.043745 287.135597,140.043745 C287.135597,140.043745 282.056996,150.192099 274.580658,153.058765 C274.580658,153.058765 270.448765,163.737984 265.989506,167.277078 C261.547942,170.816173 254.91214,174.46144 248.922222,179.256914 C246.559877,181.150329 243.843621,182.31823 240.950412,182.911029 C241.145062,183.052593 241.330864,183.194156 241.525514,183.33572 C253.567284,183.017202 271.581276,181.557325 290.435802,176.487572 C323.641358,167.551358 355.183539,137.239012 355.183539,137.239012 C347.292243,163.056708 343.769959,171.585926 323.18216,186.166996 Z M354.767695,83.1793416 C312.280864,82.9227572 266.263786,59.0161728 225.440329,49.9030041 C139.387243,30.7034156 97.6878601,75.6322222 97.6701646,75.6499177 C97.6790123,75.64107 111.614198,70.5713169 118.6393,75.136749 C126.274897,80.1003292 119.54177,92.9030041 117.082099,95.46 C110.021605,102.812469 99.873251,108.244979 88.6631687,108.244979 C88.6631687,108.244979 100.527984,111.093951 104.367901,114.624198 C104.367901,114.624198 93.3613169,116.066379 87.3625514,118.145597 C81.3726337,120.233663 69.640535,123.622346 67.0393004,123.622346 C67.0393004,123.622346 97.9444444,137.752181 78.7625514,167.931811 C78.7625514,167.931811 92.1757202,165.879136 103.350412,171.240864 C103.350412,171.240864 42.1240741,161.357942 21.4115226,228.936955 C29.2152263,222.50465 53.7323045,205.207325 91.9014403,205.021523 C137.980453,204.818025 157.746296,215.417613 176.052263,226.503827 C203.958025,243.4207 225.059877,248.428519 241.091975,251.419053 C287.163025,260.019053 333.426955,244.526667 353.475926,235.183457 C411.66749,146.024815 418.365226,95.6634979 419.356173,59.7062963 C400.554733,78.6316049 369.047942,83.2678189 354.767695,83.1793416 L354.767695,83.1793416 Z"/>
      <path fill="#FFF" d="M262.237181,331.711379 C262.237181,331.729074 262.228333,331.74677 262.219486,331.764465 C261.16572,334.401091 260.157963,338.930247 260.572922,342.232222 C260.661399,342.948004 260.803848,343.603621 260.971955,344.239774 L260.971955,344.249506 C258.484856,355.671934 253.671687,355.857737 252.397613,355.68963 C252.194115,355.662202 252.079095,355.626811 252.079095,355.626811 C256.829444,351.416173 256.679033,343.789424 261.528477,333.188951 C261.749671,332.702325 261.998292,332.206852 262.237181,331.711379 Z M273.217222,312.740947 C273.142901,313.352325 272.923477,316.668457 274.040062,319.9607 C274.031214,319.968663 267.897963,327.987366 262.449527,339.984012 C262.536235,339.75751 262.489342,339.868107 262.456605,339.95216 C262.453066,339.960123 262.450412,339.967202 262.447757,339.975165 C261.565638,336.286543 262.369897,331.534424 262.387593,331.401708 C262.510576,331.153971 265.810782,324.783601 267.492737,321.93286 C269.244588,318.960905 271.084918,316.041152 272.952675,313.139095 C273.041152,313.006379 273.128745,312.873663 273.217222,312.740947 Z M328.860638,252.502016 C324.817222,258.633498 292.981296,304.175453 290.787942,307.130597 C290.610103,306.989033 285.142202,302.30858 284.948436,302.140473 C293.062695,290.868457 316.003992,256.625062 316.464074,255.926091 C320.534918,254.935144 324.561523,253.85572 328.515576,252.617037 C328.631481,252.581646 328.747387,252.546255 328.860638,252.502016 Z M276.142284,219.335391 C276.142284,219.335391 277.924218,220.7643 278.07286,220.876667 C278.750597,221.389835 280.203395,222.733807 280.872284,223.391193 C281.423498,223.935329 281.974712,224.479465 282.519733,225.029794 C282.920535,225.435905 284.578601,227.000185 285.140432,227.418683 C285.566008,227.735432 285.997778,228.015021 286.445473,228.234444 C286.855123,228.435288 287.279815,228.593663 287.72928,228.70249 L287.72928,228.70249 L287.687695,228.732572 C286.764877,229.424465 285.680144,229.878354 284.513128,229.878354 C284.112325,229.878354 283.677901,229.819074 283.289486,229.725288 C282.74535,229.592572 282.224218,229.394383 281.726091,229.137798 C281.411996,228.974115 281.104095,228.79893 280.80858,228.600741 C280.627202,228.479527 280.444053,228.347695 280.257366,228.207016 C280.253827,228.201708 280.246749,228.187551 280.24321,228.184012 C280.295412,227.944239 280.336996,227.688539 280.353807,227.401872 C280.416626,226.363148 280.201626,225.170473 279.81321,224.208724 C279.164671,222.508189 276.206872,219.389362 276.142284,219.335391 Z M265.439177,212.681008 C265.586049,212.764177 265.725844,212.836728 265.878025,212.922551 C266.59823,213.327778 267.321091,213.72858 268.035988,214.14 C269.543642,215.009733 271.031831,215.912202 272.496132,216.852716 C273.541934,217.524259 274.578889,218.213498 275.588416,218.938128 C275.717593,219.033683 275.845885,219.128354 275.973292,219.223025 C276.959815,220.321029 277.965802,221.732243 278.432078,223.042593 C278.981523,224.552901 279.019568,225.949074 278.823148,226.971872 C275.615844,223.885782 268.872099,218.92928 266.974259,217.946296 C267.159177,215.679506 266.222202,213.817942 265.439177,212.681008 Z M211.577695,186.239547 C212.601379,186.371379 213.601173,186.52179 214.579733,186.686358 C214.02321,187.449033 213.491461,188.234712 212.986255,189.040741 C214.070988,189.238045 215.169877,189.462778 216.281152,189.713169 C216.734156,188.884136 217.205741,188.071029 217.692366,187.279156 C218.625802,187.48 219.545082,187.695885 220.448436,187.926811 C220.033477,188.746996 219.627366,189.586646 219.230103,190.439568 C220.264403,190.715617 221.304897,191.01644 222.351584,191.342922 C222.68072,190.466111 223.011626,189.600802 223.341646,188.75142 C224.219342,189.02393 225.089959,189.315021 225.954383,189.626461 C225.703992,190.503272 225.446523,191.391584 225.180206,192.28963 C226.211852,192.656811 227.222263,193.042572 228.214979,193.441605 C228.411399,192.525864 228.592778,191.616317 228.755576,190.716502 C229.620885,191.07572 230.48,191.456173 231.347963,191.862284 C231.258601,192.778909 231.14535,193.702613 231.009095,194.628086 C232.04428,195.090823 233.054691,195.567716 234.03856,196.056111 C234.117305,195.124444 234.165967,194.192778 234.181893,193.265535 C235.064897,193.723848 235.95144,194.208704 236.847716,194.720103 C236.8893,195.655309 236.891955,196.58963 236.853025,197.521296 C237.394506,197.816811 237.924486,198.114095 238.446502,198.414033 C238.451811,198.560021 238.45358,198.706008 238.457119,198.852881 C238.4757,199.674835 238.465082,200.502099 238.427922,201.333786 C238.417305,201.572675 238.404918,201.813333 238.391646,202.053107 C237.765226,201.735473 237.131728,201.418724 236.486728,201.105514 C236.248724,202.546811 235.897469,203.969527 235.417037,205.364815 C234.465021,204.811831 233.49177,204.280967 232.512325,203.771337 C232.94321,202.434444 233.281193,201.081626 233.538663,199.719959 C232.490206,199.243951 231.418745,198.77679 230.326049,198.320247 C230.037613,199.612901 229.691667,200.904671 229.287325,202.191132 C228.283992,201.72751 227.270041,201.282469 226.250782,200.864856 C226.64893,199.613786 227.009918,198.363601 227.338169,197.119609 C226.268477,196.707305 225.181091,196.306502 224.076008,195.918971 C223.699095,197.126687 223.308909,198.34679 222.904568,199.573971 C221.864959,199.200597 220.824465,198.849342 219.771584,198.52286 C220.188313,197.300103 220.612119,196.092387 221.04035,194.902366 C219.925535,194.547572 218.816029,194.214012 217.712716,193.899918 C217.225206,195.088169 216.75893,196.299424 216.323621,197.535453 C215.261008,197.25144 214.182469,196.994856 213.104815,196.757737 C213.553395,195.495165 214.055947,194.264444 214.600967,193.063807 C213.451646,192.772716 212.312058,192.501975 211.186626,192.253354 C210.576132,193.486728 210.035535,194.760802 209.577222,196.077346 C208.488951,195.888889 207.391831,195.72963 206.295597,195.593374 C206.748601,194.206934 207.321934,192.87358 207.991708,191.594198 C207.283889,191.458827 206.582263,191.33142 205.889486,191.211091 C206.039897,190.983704 206.192963,190.758086 206.347798,190.534239 C206.826461,189.841461 207.323704,189.169918 207.841296,188.521379 C207.901461,188.445288 207.959856,188.367428 208.02179,188.293107 C208.622551,188.363889 209.230391,188.443519 209.844424,188.531111 C210.387675,187.743663 210.966317,186.979218 211.577695,186.239547 Z M344.973251,152.758827 C344.807798,153.144588 338.248086,168.212284 310.963436,180.048786 C309.750412,180.575226 308.512613,181.099012 307.215535,181.610412 C301.668889,183.696708 289.989877,187.643683 274.544383,190.43249 C268.300535,191.559691 261.983251,192.32856 255.663313,192.859424 C255.157222,192.901008 251.493374,193.169979 251.493374,193.169979 C250.344053,191.696831 249.084136,190.244918 247.705658,188.818663 C256.080041,188.448827 264.678272,187.618025 273.117243,186.101523 C307.935741,179.844403 329.318951,165.282798 339.571708,157.186235 C340.508683,156.444794 341.334177,155.773251 342.088004,155.15214 C343.846934,153.72677 344.940514,152.8243 344.973251,152.758827 Z M164.611255,182.218251 C164.921811,182.216481 165.541152,182.228868 165.494259,182.234177 C163.871584,182.323539 161.303971,182.918992 159.668909,183.901091 C159.660062,183.90463 159.651214,183.913477 159.641481,183.919671 C158.706276,184.464691 157.708251,185.380432 157.199506,186.342181 C157.165885,186.405 156.980082,186.75537 156.92965,186.811996 C151.606852,186.811996 150.654835,182.781852 150.63537,182.7093 C151.075103,182.896872 151.521914,183.026049 151.981996,183.112757 L151.981996,183.112757 L152.348168,183.171926 C152.717575,183.221529 153.096811,183.243261 153.486996,183.244588 C155.122058,183.25963 156.819053,182.950844 158.586831,182.704877 C160.581996,182.426173 162.595741,182.227984 164.611255,182.218251 Z M165.737572,182.231523 C166.434774,182.245679 167.131091,182.266914 167.827407,182.30142 C168.926296,182.354506 170.0243,182.433251 171.120535,182.531461 C173.32716,182.728765 175.895658,183.021626 178.084588,183.368457 C176.7707,183.80465 174.959568,184.66465 173.739465,186.594342 C173.722654,186.611152 173.704959,186.628848 173.691687,186.644774 C171.576193,186.279362 163.208004,186.16965 158.791214,186.691667 C159.250412,185.759115 160.121914,184.668189 161.469424,183.793148 C162.631132,183.030473 164.290967,182.511111 165.737572,182.231523 Z M150.789321,87.5925926 C152.694239,95.608642 158.354136,125.453827 187.983436,157.550761 C193.845062,163.900782 200.256132,169.789835 206.762757,175.171029 C204.79856,175.489547 202.90072,175.899198 201.093128,176.392901 C196.540038,172.379833 186.009336,162.004776 185.459405,161.46475 L185.437058,161.442881 C176.622058,152.568601 170.041111,144.042037 165.089918,136.114465 C164.058272,134.426317 163.256667,133.035453 162.616975,131.994959 L162.616975,131.994959 L161.636646,130.23249 C147.970432,105.201358 150.789321,87.5925926 150.789321,87.5925926 Z M210.193909,141.947778 C211.579465,140.78784 214.699177,141.328436 214.699177,141.328436 C214.699177,141.328436 216.098889,142.799815 216.428909,143.900473 C216.750082,145.00821 216.418292,151.044136 218.802757,155.197263 L218.802757,155.197263 L218.802757,155.099053 C218.802757,155.099053 218.920432,154.660206 219.426523,153.906379 C219.937037,153.151667 220.928868,152.08286 221.523436,152.504897 C222.118004,152.926049 222.038374,154.112531 222.024218,155.383951 C222.014486,156.654486 221.58537,158.012613 221.264198,158.39749 C221.264198,158.39749 221.758786,159.410556 223.104527,160.052016 C223.104527,160.052016 223.047901,159.568045 223.146111,158.877922 C223.358457,157.659588 223.97072,156.654486 224.362675,155.546749 C224.482119,155.159218 224.860802,154.760185 225.425288,155.062778 C225.435905,155.062778 226.548951,155.643189 227.535473,156.136008 C227.649609,156.219177 228.335309,156.742078 227.969012,157.725947 C227.952202,157.762222 227.948663,157.782572 227.938045,157.81 C227.923889,157.855123 227.903539,157.893169 227.889383,157.938292 C227.519547,158.86642 227.205453,159.714918 226.732099,160.694362 C226.732099,160.694362 226.489671,161.598601 226.064979,161.636646 C226.064979,161.636646 226.894012,162.180782 227.267387,162.338272 C227.838066,162.579815 228.548539,162.885947 228.898909,162.972654 C228.898909,162.972654 228.520226,162.386934 228.615782,161.549938 C228.843169,160.357263 229.196193,158.716008 229.497016,157.341955 C229.600535,157.019012 229.890741,156.473107 230.554321,156.681914 C231.30107,156.989815 232.061091,157.28179 232.821996,157.559609 C233.460802,157.827695 233.455494,158.458539 233.429835,158.670885 C233.081235,160.188272 232.690165,162.006481 232.275206,163.458395 C232.180535,163.679588 232.047819,163.990144 231.937222,164.10428 C231.937222,164.10428 232.621152,164.584712 233.081235,164.705926 C233.536893,164.82537 234.404856,165.00144 234.404856,165.00144 C234.404856,165.00144 234.238519,164.413951 234.449095,163.788416 C234.452634,163.776029 234.452634,163.765412 234.452634,163.75037 C234.791502,162.780658 235.13214,161.807407 235.476317,160.828848 C235.558601,160.578457 235.801029,160.025473 235.939053,159.666255 C236.013374,159.484877 236.308889,158.928354 236.985741,159.071687 C237.878477,159.339774 238.775638,159.586626 239.677222,159.811358 C240.344342,160.008663 239.962119,161.031461 239.962119,161.031461 C239.962119,161.031461 238.995062,163.407963 238.369527,164.938621 L238.369527,164.938621 C238.362449,164.935967 238.151872,165.474794 237.805926,165.757922 C237.805926,165.757922 238.427037,166.033086 238.893313,166.125988 C239.875412,166.319753 240.459362,166.301173 240.705329,166.317984 C240.705329,166.317984 240.402737,165.585391 240.758416,164.709465 C240.77965,164.673189 240.789383,164.628066 240.803539,164.588251 C241.102593,163.895473 241.414033,163.202695 241.7007,162.507263 C241.784753,162.310844 241.859074,162.113539 241.936934,161.914465 C242.037798,161.613642 242.514691,161.121708 243.30037,161.261502 C243.326914,161.263272 243.343724,161.259733 243.368498,161.263272 C243.994918,161.380947 244.621337,161.486235 245.248642,161.582675 L245.248642,161.582675 C245.254835,161.589753 246.376728,161.819794 245.967078,162.870905 C245.399938,164.129938 244.799177,165.393395 244.124979,166.66393 C244.824835,166.718786 245.53177,166.758601 246.238704,166.778066 C246.238704,166.778066 246.150226,166.715247 246.440432,165.929568 C246.730638,165.144774 247.580905,163.471667 247.665844,163.223045 C247.750782,162.977963 248.075494,162.006481 248.483374,161.957819 C248.894794,161.914465 250.496235,163.197387 250.079506,165.672099 C254.481255,163.791955 257.84251,158.790329 258.767099,158.109053 C259.575782,157.512716 261.191379,157.189774 261.59749,157.115453 C262.276996,157.506523 264.250041,158.743436 264.58537,160.200658 C264.58537,160.200658 261.269239,163.252243 257.186008,165.050988 C253.097469,166.850617 246.913786,170.74893 244.477119,172.373374 C243.5543,172.987407 242.299691,173.517387 240.714177,173.809362 C239.725,172.045123 236.285,169.867695 231.876173,168.386584 C227.267387,166.83823 223.035514,166.539177 221.309321,167.498272 C220.051173,166.209156 219.283189,164.921811 218.889465,163.786646 C217.93037,161.022613 215.343292,154.179774 213.172942,150.282346 C210.999053,146.382263 210.193909,141.947778 210.193909,141.947778 Z M223.546914,91.2042387 C223.635391,86.6122634 228.492798,67.7134979 253.682305,72.0046502 C258.327366,72.9690535 262.052263,74.092716 263.025514,74.4023868 C263.12284,74.4377778 263.211317,74.464321 263.308642,74.4997119 C263.78642,74.6501235 264.441152,74.8624691 265.229486,75.1544444 C265.458642,75.2429218 265.697531,75.3313992 265.945267,75.4287243 C266.272634,75.5525926 266.617695,75.6853086 266.980453,75.8357202 C267.45823,76.0303704 267.962551,76.242716 268.493416,76.4727572 C269.015432,76.7116461 269.563992,76.9593827 270.131132,77.2336626 C271.360082,77.8264609 272.669547,78.5254321 273.98786,79.3217284 C274.120576,79.3925103 274.253292,79.4721399 274.37716,79.5517695 C274.421399,79.569465 274.45679,79.5960082 274.492181,79.6225514 C284.746708,85.8602058 287.560288,93.478107 287.560288,99.7776955 C287.560288,105.316379 285.383745,109.84642 284.1893,111.518642 C282.50823,113.854444 280.995267,115.455885 280.216667,116.632634 C279.287654,114.969259 278.570988,113.199712 278.296708,111.430165 L278.296885,111.436475 L278.298424,111.456953 C278.333294,111.979425 278.932121,120.014775 283.022725,124.141453 L283.233745,124.34786 C283.233745,124.34786 280.853704,129.66535 280.35823,132.894774 C279.871605,136.133045 281.127984,139.539424 281.127984,139.539424 C281.127984,139.539424 280.809465,140.052593 280.349383,140.760412 C277.83751,143.724403 273.4393,146.290247 271.076955,145.856708 C268.396091,145.361235 261.937243,143.166996 258.19465,143.936749 C255.124486,144.573786 253.275309,146.307942 252.257819,148.059794 C252.257819,148.059794 252.266667,148.050947 252.275514,148.050947 C252.001235,148.378313 251.74465,148.74107 251.567695,149.165761 C251.567695,149.165761 250.771399,150.554856 250.550206,152.412881 C250.002531,152.173992 249.532716,151.988189 249.532716,151.988189 C249.541564,152.085514 249.541564,152.21823 249.515021,152.359794 C249.47963,152.634074 249.355761,153.076461 249.338951,153.138395 C249.329218,153.23572 249.32037,153.306502 249.30356,153.333045 C249.240741,153.580782 249.169959,153.828519 249.108025,154.076255 C248.861173,154.978724 248.639979,155.713086 248.355967,156.59786 C248.347119,156.606708 248.329424,156.633251 248.320576,156.659794 C248.037449,157.500329 247.188066,157.226049 247.188066,157.226049 C247.179218,157.226049 247.091626,157.190658 247.091626,157.190658 C246.471399,156.880988 245.790123,156.553621 245.082305,156.217407 C245.082305,156.217407 244.286008,155.801564 244.409877,154.978724 C244.401029,154.961029 244.409877,154.943333 244.418724,154.91679 C244.427572,154.881399 244.418724,154.854856 244.437305,154.828313 C244.462963,154.757531 244.480658,154.669053 244.507202,154.607119 C244.728395,153.810823 245.197325,152.10321 245.259259,151.705062 C245.338889,151.236132 245.64856,150.377901 245.84321,150.041687 C245.710494,149.908971 245.37428,149.546214 245.082305,149.40465 C244.834568,149.280782 244.569136,149.227695 244.206379,149.254239 C244.073663,149.369259 243.852469,149.714321 243.843621,149.900123 C243.834774,150.006296 243.552531,150.89107 243.241975,151.864321 C242.924342,152.84642 242.5607,153.925844 242.40144,154.412469 C242.22537,154.943333 241.844033,155.058354 241.534362,155.058354 C241.341924,155.058354 241.179347,155.013562 241.110086,154.991166 L241.07428,154.978724 C240.455823,154.730988 239.614403,154.430165 238.950823,154.182428 C238.907469,154.17358 238.871193,154.147037 238.826955,154.138189 C238.030658,153.837366 238.083745,153.156091 238.136831,152.881811 C238.481893,151.855473 238.92428,150.554856 239.260494,149.537366 C239.331276,149.298477 239.419753,149.059588 239.490535,148.811852 C239.490535,148.803004 239.499383,148.794156 239.50823,148.776461 C239.534774,148.670288 239.835597,147.909383 240.295679,147.679342 C239.994856,147.4493 239.39321,147.210412 238.94286,147.051152 C238.402263,146.874198 237.43786,146.706091 237.384774,146.697243 C237.544033,147.042305 237.580309,147.643951 237.499794,147.944774 C237.384774,148.342922 236.323045,152.050123 236.278807,152.191687 C236.22572,152.333251 236.039918,152.775638 235.747942,152.881811 C235.464815,152.987984 234.668519,152.731399 234.668519,152.731399 C234.615432,152.722551 234.580041,152.713704 234.535802,152.704856 C233.863374,152.501358 232.907819,152.350947 232.271667,152.173992 C232.271667,152.173992 231.226749,151.873169 231.554115,150.917613 C231.554115,150.917613 232.235391,148.422551 232.571605,147.236955 C232.571605,147.210412 232.580453,147.166173 232.5893,147.130782 C232.615844,147.042305 232.766255,146.546831 232.819342,145.794774 C232.872428,145.042716 232.368107,144.865761 231.996502,144.865761 C231.643477,144.865761 231.253292,145.502798 231.1657,145.874403 C231.06749,146.272551 230.846296,146.936132 230.846296,146.936132 L230.846296,146.936132 L230.819753,146.998066 C230.79321,147.06 230.766667,147.121934 230.748971,147.175021 C230.386214,148.139424 230.103086,148.93572 229.77572,149.900123 C229.467772,150.715512 228.620093,150.652598 228.445046,150.630318 L228.413169,150.625638 C227.652263,150.466379 226.917901,150.315967 226.236626,150.192099 C226.227778,150.192099 226.1393,150.165556 226.1393,150.156708 C226.1393,150.156708 225.289918,149.864733 225.573045,149.024198 C225.573045,148.997654 225.573045,148.971111 225.590741,148.944568 C225.892449,148.068642 226.148148,147.360823 226.502058,146.484897 C226.599383,146.254856 226.953292,145.414321 227.15679,145.086955 C227.369136,144.759588 227.652263,144.582634 227.652263,144.582634 C227.661996,144.387984 227.369136,144.025226 226.838272,143.839424 C226.777222,143.821728 226.705556,143.804033 226.625926,143.786337 C226.935597,143.016584 227.324897,141.954856 227.5107,141.061235 C228.09465,138.893539 228.023868,135.84107 225.511111,132.965556 C222.989506,130.090041 216.504115,127.948889 214.079835,126.727901 C211.646708,125.506914 209.461317,119.640864 209.753292,115.588601 C209.753292,115.588601 212.805761,113.624403 214.362963,110.748889 C215.93786,107.882222 217.22963,102.210823 217.22963,102.210823 C223.113374,101.547243 228.616667,95.2830453 228.953765,94.8937449 C227.493004,96.300535 225.581893,97.3534156 223.6,98.1674074 C223.706173,96.8225514 223.484979,94.5575309 223.546914,91.2042387 Z"/>
      <path fill="#B1BABF" d="M263.740412,296.9557 C263.90144,296.097469 265.007407,296.256728 265.007407,296.256728 C271.64321,297.583889 276.49177,304.157757 277.561461,306.086564 C278.553292,307.856996 289.029012,316.041152 293.081276,319.624486 C294.975576,321.004733 303.177428,327.296358 304.645267,333.746358 C306.389156,341.443889 301.726399,348.734424 297.788272,352.16823 C293.842181,355.61 287.134712,357.803354 280.127305,357.671523 C273.880802,357.54677 269.492325,356.539012 265.520576,354.380165 C265.501111,354.424403 265.492263,354.459794 265.4843,354.512881 C265.17463,354.777428 264.545556,356.219609 259.954465,356.90177 C256.874568,357.406091 255.08821,356.786749 254.901523,356.724815 C260.317222,362.202449 265.217984,358.750947 265.217984,358.750947 C265.449794,359.707387 265.784239,360.387778 265.784239,360.387778 C265.784239,360.387778 264.15714,362.777551 259.202407,361.954712 C258.599877,361.856502 258.086708,361.68928 257.583272,361.503477 C257.679712,361.556564 257.768189,361.591955 257.865514,361.653889 C259.768663,362.90142 260.280947,365.458416 259.0343,367.350947 C257.768189,369.254095 255.220926,369.767263 253.318663,368.519733 C251.424362,367.263354 250.902346,364.706358 252.158724,362.812942 C253.185062,361.255741 255.059897,360.644362 256.7507,361.149568 C253.03465,359.362325 252.079095,355.626811 252.079095,355.626811 C252.079095,355.626811 252.194115,355.662202 252.397613,355.68963 C253.671687,355.857737 258.484856,355.671934 260.971955,344.249506 C261.042737,344.541481 262.67072,351.13216 267.121132,350.061584 C267.076893,350.159794 266.431008,351.609938 266.42216,351.628519 C268.367778,352.840658 272.827922,354.955267 280.41928,355.052593 C291.081687,355.194156 296.912346,348.177901 298.514671,342.957737 C299.771049,338.895741 297.824547,334.383395 293.80679,330.428457 C294.983539,329.065905 295.701091,327.163642 294.912757,324.543827 C295.275514,325.756852 293.001646,327.9157 290.603025,327.703354 C290.381831,327.684774 290.171255,327.649383 289.950062,327.588333 C286.330453,326.578807 282.206523,322.172634 278.712551,319.562551 C275.235391,316.952469 274.217901,312.909053 274.288683,310.042387 C274.34,307.174835 273.367634,303.777305 270.633683,301.202613 C267.899733,298.627922 265.449794,298.380185 264.670309,298.176687 C263.881975,297.964342 263.660782,297.477716 263.740412,296.9557 Z M285.965041,334.666523 C287.265658,335.312407 289.132531,336.577634 290.008457,338.409115 C290.238498,338.895741 290.345556,339.364671 290.345556,339.885802 C290.479156,342.02784 287.974362,345.159938 285.752695,345.983663 C284.142407,346.647243 282.009218,346.974609 279.947695,346.964877 C279.292963,346.964877 278.648848,346.939218 278.019774,346.877284 C278.603724,345.8943 279.312428,344.700741 280.098107,343.417819 C281.867654,340.523724 284.063663,337.152737 285.965041,334.666523 Z M274.040062,319.9607 C274.685947,321.535597 275.712284,323.128189 277.33142,324.614609 C278.783333,325.950617 279.994588,327.021193 281.004115,327.862613 C276.102469,334.197593 269.156111,346.044712 269.156111,346.044712 C266.184156,346.222551 264.695967,345.240453 263.015782,341.656235 C262.776008,341.142181 262.591091,340.576811 262.449527,339.984012 C267.897963,327.987366 274.031214,319.968663 274.040062,319.9607 Z M343.992037,246.989877 C338.223313,256.111893 306.750144,303.529568 299.307428,314.298148 C299.256111,314.253909 299.174712,314.200823 299.131358,314.165432 C298.042202,313.174486 296.636296,311.979156 295.079095,310.679424 C297.61751,307.059815 326.711523,263.801461 335.240741,250.396255 C338.223313,249.34249 341.12537,248.193169 343.992037,246.989877 Z M265.147202,202.111502 C265.147202,202.111502 265.663909,201.72928 265.972695,202.119465 C266.154074,202.360123 266.175309,202.672449 265.832901,202.987428 C265.497572,203.305062 264.324362,204.088086 263.629815,206.12749 C262.933498,208.180165 263.365267,210.163827 264.166872,211.602469 C264.911852,212.937593 265.228601,214.546996 264.972016,216.059074 C264.884424,216.596132 264.719856,217.134074 264.4907,217.626893 C263.92179,218.842572 263.475864,220.113107 262.960926,221.352675 C262.397325,222.703724 261.77179,223.961872 260.966646,224.727202 C260.073025,225.5757 258.630844,225.313807 257.746955,224.599794 C257.710679,224.569712 257.66644,224.551132 257.631934,224.520165 C258.004424,226.117181 259.005103,226.755988 260.042058,226.986029 C259.556317,230.172099 260.687058,232.491091 264.523436,234.373004 C268.448292,236.295617 275.256626,236.289424 280.340535,231.43644 C279.83179,230.863992 279.222181,230.444609 278.629383,229.969486 C278.620535,229.962407 278.611687,229.95356 278.603724,229.950905 C278.999218,229.83677 279.508848,229.62 279.83356,229.215658 C280.014938,228.990041 280.14323,228.618436 280.236132,228.191091 L280.236132,228.191091 L280.257366,228.207016 C280.444053,228.347695 280.627202,228.479527 280.80858,228.600741 C281.104095,228.79893 281.411996,228.974115 281.726091,229.137798 C282.224218,229.394383 282.74535,229.592572 283.289486,229.725288 C283.677901,229.819074 284.112325,229.878354 284.513128,229.878354 C285.680144,229.878354 286.764877,229.424465 287.687695,228.732572 C287.698313,228.724609 287.7107,228.7193 287.719547,228.711337 C287.72928,228.714877 287.80714,229.276708 287.812449,229.400576 C287.850494,230.126975 287.770864,231.28249 287.088704,232.409691 C287.791214,231.873519 288.773313,231.759383 289.605885,232.214156 C290.736626,232.82465 291.157778,234.241173 290.54286,235.368374 C289.932366,236.49823 288.517613,236.921152 287.386872,236.306235 C286.295062,235.713436 285.89072,234.382737 286.414506,233.27677 C286.233128,233.463457 286.059712,233.653683 285.832325,233.831523 C284.492778,234.85963 283.446975,235.018889 282.795782,234.979074 C282.333045,234.949877 282.064959,234.821584 282.064959,234.821584 C282.064959,234.821584 282.092387,234.52784 281.96144,234.039444 C281.943745,233.973086 281.933128,233.914691 281.909239,233.84037 C282.068498,233.854527 282.364012,233.858951 282.732078,233.807634 C283.865473,233.646605 285.718189,232.928169 286.606502,230.01107 C286.606502,230.01107 286.388848,230.294198 286.015473,230.660494 C285.199712,231.465638 283.519527,232.6707 281.207613,232.499053 C280.098107,233.450185 273.229609,238.909239 265.000329,235.996564 C256.013683,232.814033 255.944671,227.266502 256.169403,225.454486 C256.316276,224.270658 256.948889,222.321502 256.979856,222.226831 C257.710679,219.954733 261.417881,211.751111 261.436461,210.480576 C261.457695,209.210041 262.138086,204.572058 265.147202,202.111502 Z M266.974259,217.946296 C268.872099,218.92928 275.615844,223.885782 278.823148,226.971872 C278.722284,227.485926 278.58072,227.931852 278.377222,228.19286 C278.058704,228.591893 277.595967,228.811317 277.198704,228.944918 C274.378045,227.013457 270.092202,224.48035 265.573663,222.446255 C265.852366,221.748169 266.173539,220.881091 266.554877,219.80786 C266.79642,219.117737 266.974259,217.946296 266.974259,217.946296 Z M184.027613,174.623354 C184.511584,174.495947 184.696502,175.115288 184.696502,175.115288 C185.608704,178.891502 183.355185,183.001276 182.608436,184.027613 C181.858148,185.050412 179.861214,193.83179 179.072881,196.088848 C179.072881,196.088848 178.142984,198.4043 177.773148,199.151049 C176.957387,200.782572 173.456337,205.114424 164.369712,202.227407 C156.046646,199.586358 153.820556,191.098724 153.509115,189.678663 C150.671646,187.85249 150.751276,184.421337 150.751276,184.421337 C149.355103,188.222325 151.650206,189.962675 152.189033,190.311276 C152.127099,190.270576 151.650206,190.768704 151.594465,190.834177 C151.585617,190.843909 151.479444,190.996091 151.470597,190.994321 C151.470597,190.994321 150.654835,190.84037 149.904547,189.780412 C149.592222,189.338025 149.28786,188.755844 149.064897,187.936543 C148.983498,187.641029 148.931296,187.355247 148.901214,187.080967 C148.897675,187.112819 148.89679,187.142901 148.892366,187.173868 C148.698601,188.45856 147.496193,189.339794 146.213272,189.147798 C144.931235,188.954033 144.042922,187.750741 144.236687,186.466049 C144.429568,185.179588 145.63286,184.296584 146.914897,184.493889 C147.927078,184.645185 148.691523,185.425556 148.874671,186.381111 C148.946337,184.065658 150.63537,182.7093 150.63537,182.7093 C150.654835,182.781852 151.606852,186.811996 156.92965,186.811996 C156.744733,187.211029 156.623519,187.583519 156.630597,187.87284 C156.648292,188.392202 156.920802,188.870864 157.173848,189.200885 L157.173848,189.200885 L156.912418,189.200782 C156.324268,189.201745 154.889952,189.214894 154.888477,189.338025 C156.014794,196.279074 161.443765,200.389733 165.731379,201.22142 C169.919897,202.035412 172.222078,200.871934 173.751852,198.048621 C174.721564,198.491008 175.913354,198.568868 177.175926,197.523066 C175.327634,197.601811 174.526029,196.481687 174.386235,195.672119 C174.019053,193.546008 175.34356,190.325432 175.858498,187.879918 C176.380514,185.433519 178.238539,183.935597 179.747078,183.274671 C181.260926,182.61286 182.795123,181.288354 183.479938,179.233909 C184.162099,177.188313 183.694053,175.854959 183.617963,175.397531 C183.538333,174.939218 183.738292,174.703868 184.027613,174.623354 Z M344.973251,152.758827 C344.97679,152.757058 344.811337,153.241029 344.811337,153.241029 C342.779012,159.100885 339.015185,164.551975 334.894794,169.129794 C331.899835,172.458313 328.635021,175.489547 325.150782,178.301358 C319.807634,182.61286 313.731893,186.109486 307.536708,189.034547 C301.382222,191.940144 294.930453,194.247634 288.376049,196.065844 C278.123292,198.908621 267.275082,200.399465 256.555165,201.001111 C255.737634,199.412942 254.762613,197.790267 253.660185,196.153436 C288.113272,193.686687 310.790905,180.186811 310.790905,180.186811 L310.790905,180.186811 L310.963436,180.048786 C338.248086,168.212284 344.807798,153.144588 344.973251,152.758827 Z M158.791214,186.691667 C163.208004,186.16965 171.576193,186.279362 173.691687,186.644774 C173.704959,186.628848 173.722654,186.611152 173.739465,186.595226 C173.411214,187.115473 173.1157,187.69323 172.898045,188.3807 C172.549444,189.461008 172.286667,190.349321 172.084053,191.073951 C166.993066,189.676893 158.894733,189.245123 158.894733,189.245123 C158.662922,188.904486 158.424918,188.446173 158.410761,187.937428 C158.403683,187.604753 158.561173,187.163251 158.791214,186.691667 Z M150.789321,87.5925926 C150.789321,87.5925926 147.970432,105.201358 161.636646,130.23249 L161.595148,130.157008 L161.558786,130.091811 C161.558786,130.091811 171.298802,154.184302 196.844101,176.780125 L197.623045,177.464362 C195.756173,178.114671 194.000782,178.82249 192.394033,179.588704 C192.137449,179.710802 189.560988,177.144959 189.245123,176.864486 C186.670432,174.585309 184.161214,172.23358 181.729856,169.802222 C176.065535,164.137016 170.841831,158.017922 166.263128,151.442284 C162.544424,146.104444 159.205288,140.482593 156.504959,134.560802 C153.865679,128.775267 151.713909,122.780041 150.368169,116.557428 C149.101173,110.700226 148.539342,104.676687 148.856091,98.6885391 C149.042778,95.1494444 149.473663,91.4696708 150.61856,88.0977984 C150.61856,88.0960288 150.789321,87.5925926 150.789321,87.5925926 Z M212.28463,131.016399 C212.28463,131.016399 214.68679,132.181646 215.435309,132.618724 C215.435309,132.618724 215.43,132.644383 215.422922,132.696584 C215.332675,133.369012 214.699177,138.160947 214.66644,140.466667 C214.662901,140.820576 214.669095,141.116091 214.699177,141.328436 C214.699177,141.328436 211.579465,140.78784 210.193909,141.947778 C210.193909,141.947778 210.999053,146.382263 213.172942,150.282346 C215.343292,154.179774 217.93037,161.022613 218.889465,163.786646 C219.283189,164.921811 220.051173,166.209156 221.309321,167.498272 C223.035514,166.539177 227.267387,166.83823 231.876173,168.386584 C236.285,169.867695 239.725,172.045123 240.714177,173.809362 C242.299691,173.517387 243.5543,172.987407 244.477119,172.373374 C246.913786,170.74893 253.097469,166.850617 257.186008,165.050988 C261.269239,163.252243 264.58537,160.200658 264.58537,160.200658 C264.250041,158.743436 262.276996,157.506523 261.59749,157.115453 C261.657654,157.104835 261.69216,157.100412 261.69216,157.100412 C262.82644,155.95286 265.939959,150.460185 266.324835,149.779794 C266.352263,149.732901 266.36465,149.709012 266.36465,149.709012 C267.228189,149.8143 269.839156,150.329239 269.839156,150.329239 C269.839156,150.329239 267.119362,156.654486 265.508189,159.377819 C263.902325,162.090535 262.59463,163.014239 261.02858,164.120206 C259.465185,165.222634 252.561296,169.784527 250.733354,171.072757 C248.911605,172.361872 244.063045,176.71142 239.829403,177.462593 C237.729835,177.834198 235.908086,177.879321 234.180123,177.685556 C232.45216,177.490905 230.81356,177.058251 229.085597,176.479609 C229.074979,176.47784 229.064362,176.472531 229.05463,176.467222 C229.040473,176.463683 229.027202,176.461914 229.020123,176.459259 C225.563313,175.295782 222.76035,173.887222 219.857407,170.759547 C217.297757,168.002593 216.028107,162.762078 215.296399,160.068827 C215.191111,159.683951 215.09821,159.350391 215.011502,159.084074 C214.33465,156.957078 211.583004,149.154259 210.999053,147.330741 C210.411564,145.504568 209.927593,143.980988 210.286811,140.84535 C210.62214,137.899938 212.084671,131.839239 212.267819,131.09249 C212.277551,131.042058 212.28463,131.016399 212.28463,131.016399 Z M251.571235,149.1693 C251.571235,149.1693 253.137284,148.063333 255.941132,148.196934 C255.941132,148.196934 255.924321,148.213745 255.924321,148.222593 L255.924321,148.222593 L255.941132,148.213745 C255.862387,148.426091 255.226235,150.169095 255.056358,151.699753 C254.959918,152.646461 254.499835,155.036235 254.499835,155.05393 C253.676996,157.920597 250.916502,159.503457 250.667881,159.345082 C250.375905,159.15928 249.996337,158.460309 251.234136,154.495638 C251.234136,154.301872 251.872058,154.071831 252.013621,154.080679 C252.269321,154.03644 252.525905,154.001049 252.78249,153.956811 C252.78249,153.956811 252.711708,153.806399 252.446276,153.425947 C252.331255,153.239259 252.031317,153.124239 251.845514,153.018066 C251.632284,152.903045 250.553745,152.425267 250.553745,152.41642 C250.756505,150.714041 251.442512,149.404208 251.555439,149.197724 Z M209.754177,115.59037 C209.462202,119.642634 211.647593,125.509568 214.08072,126.730556 C216.505,127.950658 222.990391,130.091811 225.513765,132.96821 C228.026523,135.843724 228.097305,138.897078 227.513354,141.064774 C227.326667,141.95751 226.937366,143.020123 226.62858,143.789877 C226.458704,143.745638 226.282634,143.719095 226.106564,143.701399 C225.593395,143.639465 224.778519,143.585494 224.609527,144.223416 C224.601564,144.249074 224.592716,144.267654 224.592716,144.267654 C224.672346,144.541049 224.73428,144.878148 224.698889,145.063951 C224.653765,145.267449 224.583868,145.453251 224.548477,145.542613 C223.159383,149.444465 222.425021,149.779794 222.079959,149.753251 C221.787984,149.73644 220.540453,146.798992 221.611029,144.019033 C221.618992,144.002222 221.62784,143.984527 221.62784,143.966831 C222.176399,142.727263 222.698416,141.824794 223.185926,141.010802 C224.044156,139.595165 224.592716,137.676091 224.592716,137.676091 L224.592716,137.676091 L224.609527,137.711481 L224.609527,137.684053 C225.327078,138.171564 225.936687,138.764362 226.503827,139.409362 C226.520638,139.427942 226.529486,139.43679 226.529486,139.445638 C226.786955,139.870329 227.184218,140.196811 227.414259,140.64893 C227.477078,140.780761 227.521317,140.905514 227.521317,141.001955 C227.715082,140.258745 227.689424,139.35716 227.405412,138.631646 C227.388601,138.605103 227.388601,138.577675 227.379753,138.552016 C226.327757,135.675617 223.60177,133.9857 221.070432,132.552366 C219.380514,131.596811 217.619815,130.764239 215.84142,129.986523 C210.630103,127.694959 210.550473,126.173148 209.851502,123.766564 C209.771872,123.464856 209.701091,123.110947 209.648004,122.721646 C209.550679,121.952778 209.524136,121.031728 209.524136,120.120412 C209.524136,117.846543 209.754177,115.59037 209.754177,115.59037 Z M280.344959,140.763951 C280.328148,140.799342 280.308683,140.825885 280.283025,140.860391 C279.238992,142.7193 277.833086,144.710041 276.114856,146.001811 C274.115267,147.505926 273.134053,148.664979 267.586523,147.35463 C265.409979,146.833498 263.206008,146.364568 260.986111,146.090288 C258.145103,145.727531 254.384815,145.630206 252.314444,148.01821 C252.304712,148.03679 252.295864,148.03679 252.279053,148.054486 C252.260473,148.054486 252.25251,148.072181 252.243663,148.081029 C253.27,146.320329 255.119177,144.577325 258.198189,143.940288 C261.941667,143.16965 268.39963,145.363889 271.081379,145.860247 C273.443724,146.293786 277.833086,143.727058 280.344959,140.763951 Z M246.088292,126.455391 C248.088765,127.256111 249.200041,129.264547 248.59751,131.065947 C248.217058,132.216152 248.305535,133.136317 248.393128,134.357305 L248.393128,134.357305 L248.403745,134.392695 L248.403745,134.411276 C248.447099,135.39249 248.668292,135.914506 248.906296,136.586934 C249.146955,137.216008 249.43893,138.215802 249.067325,139.241255 L249.067325,139.241255 L248.59751,140.639198 C247.970206,142.52465 245.7043,143.453663 243.546337,142.736996 L243.546337,142.736996 C243.546337,142.727263 244.995597,142.356543 245.466296,140.967449 C245.474259,140.949753 245.483107,140.931173 245.483107,140.914362 C246.376728,140.780761 247.156214,140.250782 247.437572,139.401399 L247.437572,139.401399 L247.93393,137.941523 C248.429403,136.446255 247.323436,135.772942 247.261502,133.35751 C247.173025,132.109979 247.085432,130.896955 247.571173,129.455658 C247.961358,128.286872 247.308395,126.992449 246.088292,126.455391 Z M240.792922,128.438169 C241.405185,126.650926 243.501214,125.704218 245.60786,126.297016 C244.306358,125.968765 242.988045,126.615535 242.598745,127.783436 C242.112119,129.234465 241.28928,130.136934 240.475288,131.074794 C238.962325,132.96821 237.669671,132.835494 237.175082,134.331646 L237.175082,134.331646 L236.679609,135.790638 C236.395597,136.632058 236.69642,137.516831 237.316646,138.162716 C237.307798,138.180412 237.298066,138.20607 237.298066,138.22465 C236.830021,139.622593 237.766996,140.789609 237.766996,140.789609 C235.617881,140.064979 234.378313,137.959218 235.005617,136.082613 L235.005617,136.082613 L235.476317,134.684671 C235.802798,133.639753 236.624753,133.012449 237.210473,132.658539 C237.811235,132.269239 238.298745,131.986111 238.926934,131.234053 L238.926934,131.234053 L238.952593,131.197778 C239.777202,130.278498 240.413354,129.588374 240.792922,128.438169 Z M278.647078,123.961214 L278.725823,123.969177 C278.725823,123.969177 277.619856,131.437551 275.797222,134.366152 C273.973704,137.304486 272.232469,140.011893 267.700658,139.764156 C267.700658,139.764156 270.328436,139.003251 269.488786,136.940844 C269.426852,136.791317 269.382613,136.640905 269.347222,136.481646 C270.559362,135.80037 271.647634,135.287202 272.63858,134.252016 C273.956893,132.879733 275.000041,131.18893 275.752099,129.455658 C276.08035,128.685021 276.355514,127.898457 276.576708,127.093313 C276.576708,127.093313 277.160658,124.411564 278.292284,124.0143 C278.417037,123.996605 278.531173,123.978025 278.647078,123.961214 L278.647078,123.961214 Z M243.138457,116.660947 C244.10286,118.75786 251.703066,121.306008 253.783169,120.235432 C253.773436,120.279671 253.579671,123.013621 253.587634,124.641605 C253.596481,126.279321 254.154774,132.605453 256.925,134.260864 L256.925,134.260864 C256.933848,134.260864 256.241955,135.082819 257.126728,137.658395 C256.914383,137.587613 253.44607,136.304691 252.199424,133.499074 C250.907654,130.613827 252.164033,122.86321 247.527819,121.244074 C242.854444,119.731996 239.183519,126.677469 236.40356,128.19928 C233.635988,129.720206 229.954444,128.543457 229.954444,128.543457 C232.089888,127.120655 232.173459,126.091968 232.175353,125.965156 L232.175226,125.951955 C235.377222,126.305864 239.62679,121.597984 240.6257,120.288519 C241.617531,118.988786 243.138457,116.660947 243.138457,116.660947 Z M220.990802,104.591749 L221.044774,104.62714 L221.062469,104.635988 C221.141214,104.715617 221.230576,104.804095 221.310206,104.892572 C221.973786,105.892366 220.82358,108.379465 220.82358,108.379465 C220.531605,109.104979 220.300679,109.848189 220.106029,110.600247 C219.442449,113.174938 219.194712,116.368971 220.25644,118.934815 C220.300679,119.023292 220.973992,120.191193 220.938601,120.226584 C220.876667,120.279671 220.813848,120.332757 220.743066,120.376996 C220.672284,120.430082 220.602387,120.475206 220.531605,120.51856 C218.690391,121.597984 220.133457,123.668354 220.248477,123.827613 C216.496152,121.306008 216.726193,118.09428 217.05356,114.65251 C217.372078,111.218704 220.990802,104.591749 220.990802,104.591749 L220.990802,104.591749 Z M270.131132,77.2336626 L271.156584,77.6672016 C297.531687,90.354856 291.718724,110.394979 290.205761,114.226049 C288.834362,117.667819 286.109259,121.06535 284.9157,123.003004 C283.516872,121.472346 281.633189,119.18963 280.216667,116.632634 C280.995267,115.455885 282.50823,113.854444 284.1893,111.518642 C285.383745,109.84642 287.560288,105.316379 287.560288,99.7776955 C287.560288,93.478107 284.746708,85.8602058 274.492181,79.6225514 C274.45679,79.5960082 274.421399,79.569465 274.37716,79.5517695 C274.253292,79.4721399 274.120576,79.3925103 273.98786,79.3217284 C272.669547,78.5254321 271.360082,77.8264609 270.131132,77.2336626 Z M229.220082,99.9466872 C233.62714,98.8495679 240.784959,105.520761 244.995597,109.034198 C248.579815,112.201687 250.146749,112.50251 250.465267,112.590988 C250.791749,112.714856 252.216235,113.42179 256.968354,113.050185 C262.454835,112.794486 272.187346,111.785844 275.045165,115.324938 C275.045165,115.422263 268.126235,114.643663 263.461708,115.39572 C258.825494,116.377819 252.243663,117.006893 249.323025,115.988519 C246.385576,115.040926 241.510473,110.564856 238.413765,106.99037 C235.166646,103.600802 229.220082,100.061708 229.220082,99.9466872 Z M244.197531,70.9960082 C246.31214,70.9960082 248.57716,71.1464198 251.010288,71.4914815 C251.886214,71.641893 252.735597,71.81 253.558436,71.978107 L253.682305,72.0046502 L253.682305,72.0046502 C228.492798,67.7134979 223.635391,86.6122634 223.546914,91.2042387 C223.484979,94.5575309 223.706173,96.8225514 223.6,98.1674074 C219.937037,99.6980658 216.01749,100.255473 216.01749,100.255473 C216.229835,98.1320165 216.220988,93.442716 217.132305,89.7443621 C217.990535,86.2672016 223.79465,71.0844856 244.197531,70.9960082 Z"/>
      <path fill="#0A0B09" d="M231.686831,67.2976543 C244.90535,61.900535 264.759671,68.9787243 264.936626,69.0406584 C265.11358,69.0937449 285.224486,75.4198765 292.515021,87.700535 C299.840947,100.043128 298.867695,111.279753 294.434979,119.481605 C290.003148,127.692305 285.737654,132.319671 285.852675,135.062469 C285.958848,137.79642 287.135597,140.043745 287.135597,140.043745 C287.135597,140.043745 282.056996,150.192099 274.580658,153.058765 C274.580658,153.058765 270.448765,163.737984 265.989506,167.277078 C261.547942,170.816173 254.91214,174.46144 248.922222,179.256914 C246.559877,181.150329 243.843621,182.31823 240.950412,182.911029 C241.145062,183.052593 241.330864,183.194156 241.525514,183.33572 C253.567284,183.017202 271.581276,181.557325 290.435802,176.487572 C323.641358,167.551358 355.183539,137.239012 355.183539,137.239012 C347.292243,163.056708 343.769959,171.585926 323.18216,186.166996 C302.583745,200.739218 270.333745,205.18963 270.333745,205.18963 C269.970988,206.587572 267.838683,208.056296 267.838683,208.056296 C267.838683,208.056296 271.138889,209.277284 279.243416,215.373374 C287.339095,221.469465 285.144856,221.168642 287.728395,222.911646 C290.155356,224.540702 291.598536,224.210005 291.764553,224.163937 L291.780658,224.159177 C292.559259,225.725226 292.657469,228.052181 292.657469,228.052181 C293.736008,229.069671 299.018107,234.112881 294.107613,239.333045 C289.188272,244.55321 283.508025,239.70465 283.508025,239.70465 C281.499588,240.129342 279.544239,239.465761 279.544239,239.465761 C279.544239,239.465761 269.033128,246.083868 258.593683,238.872963 C250.098971,233.015761 250.61214,226.070288 251.108498,223.672551 C248.240947,225.31823 245.161934,226.601152 242.004177,227.592099 C233.482922,230.264115 222.609053,231.370082 211.805967,227.777901 C204.710082,225.389012 198.835185,221.248272 194.198971,216.656296 C189.553909,212.055473 186.120988,206.976872 183.88251,202.402593 C183.546296,201.703621 183.227778,201.013498 182.94465,200.34107 C182.20144,202.110617 178.64465,208.826934 167.629218,208.348272 C154.950412,207.799712 150.553086,196.182634 150.553086,196.182634 C150.553086,196.182634 148.597737,195.527901 147.252881,193.988395 C147.252881,193.988395 139.803086,194.430782 139.024486,187.299506 C138.254733,180.16823 145.518724,179.336543 146.996296,179.177284 C146.996296,179.177284 148.465021,177.372346 150.03107,176.593745 C150.03107,176.593745 150.915844,177.876667 154.021399,178.044774 C157.126955,178.212881 155.198148,177.124609 165.337654,177.151152 C175.47716,177.168848 178.8393,178.195185 178.8393,178.195185 C178.8393,178.195185 178.025309,175.735514 178.582716,174.399506 C178.582716,174.399506 155.552058,151.395391 147.916461,127.347243 C140.280864,103.299095 142.616667,94.3805761 151.889095,69.022963 C151.889095,69.022963 158.763786,112.226461 179.865638,139.371317 C191.907407,154.863704 205.453292,166.940864 214.876132,174.46144 C215.088477,174.46144 215.309671,174.470288 215.522016,174.470288 C213.51358,172.231811 211.982922,169.604033 211.222016,166.595802 C209.337449,159.163704 206.249588,152.253621 204.833951,146.750329 C203.418313,141.238189 206.568107,130.222757 206.568107,130.222757 C202.338889,123.445391 204.400412,112.288395 204.400412,112.288395 C204.400412,112.288395 206.691975,111.200123 208.434979,109.085514 C210.169136,106.962058 209.56749,100.69786 210.983128,91.4785185 C212.398765,82.259177 218.397531,72.7213169 231.686831,67.2976543 Z M265.971811,202.119465 C265.66214,201.730165 265.148971,202.110617 265.148971,202.110617 C262.140741,204.570288 261.459465,209.206502 261.432922,210.480576 C261.415226,211.75465 257.708909,219.956502 256.98251,222.23037 C256.947119,222.319733 256.31893,224.274198 256.168519,225.450947 C255.947325,227.264733 256.018107,232.812263 264.99856,235.997449 C273.22784,238.909239 280.101646,233.4493 281.207613,232.502593 C283.516872,232.6707 285.197942,231.467407 286.011934,230.662263 C286.348148,230.334897 286.551646,230.078313 286.595885,230.016379 C285.719959,232.927284 283.861934,233.643951 282.729424,233.80321 C282.366667,233.856296 282.065844,233.856296 281.906584,233.838601 C281.933128,233.91823 281.941975,233.971317 281.959671,234.042984 C282.092387,234.528724 282.065844,234.8207 282.065844,234.8207 C282.065844,234.8207 282.331276,234.953416 282.791358,234.979959 C283.446091,235.01535 284.490123,234.856091 285.835864,233.829753 C286.057058,233.652798 286.233128,233.466996 286.410082,233.281193 C285.888066,234.38716 286.295062,235.714321 287.384218,236.307119 C288.515844,236.918498 289.931481,236.50177 290.541975,235.370144 C291.161317,234.245597 290.736626,232.821111 289.604115,232.210617 C288.772428,231.759383 287.791214,231.874403 287.091358,232.405267 C287.772634,231.281605 287.852263,230.122551 287.808025,229.397922 C287.808025,229.273169 287.728395,228.715761 287.719547,228.715761 C287.728395,228.706914 287.728395,228.706914 287.728395,228.706914 C287.27716,228.591893 286.852469,228.432634 286.445473,228.237984 C285.994239,228.01679 285.569547,227.733663 285.144856,227.415144 C284.578601,226.9993 282.924959,225.433251 282.517963,225.026255 C281.977366,224.477695 281.419959,223.937984 280.871399,223.389424 C280.207819,222.734691 278.747942,221.389835 278.075514,220.876667 C277.942798,220.771379 276.447531,219.584897 276.190947,219.381399 C276.571399,219.7707 279.208025,222.610823 279.809671,224.212263 C280.198971,225.167819 280.420165,226.362263 280.35823,227.397449 C280.340535,227.689424 280.296296,227.946008 280.24321,228.184897 C280.24321,228.184897 280.252058,228.202593 280.260905,228.202593 C280.252058,228.202593 280.24321,228.193745 280.234362,228.193745 C280.145885,228.618436 280.013169,228.990041 279.836214,229.220082 C279.508848,229.619115 278.995679,229.840309 278.606379,229.954444 C278.615226,229.954444 278.624074,229.963292 278.632922,229.97214 C279.22572,230.44107 279.836214,230.865761 280.340535,231.440864 C275.253086,236.289424 268.449177,236.298272 264.520782,234.369465 C260.689712,232.49463 259.557202,230.175638 260.043827,226.981605 C259.008642,226.760412 258.008848,226.114527 257.628395,224.521934 C257.663786,224.548477 257.708909,224.566173 257.7443,224.601564 C258.629074,225.31823 260.07037,225.574815 260.963992,224.725432 C261.769136,223.964527 262.397325,222.708148 262.96358,221.354444 C263.476749,220.115761 263.919136,218.841687 264.494239,217.629547 C264.72428,217.134074 264.883539,216.594362 264.972016,216.063498 C265.229486,214.550535 264.910082,212.940247 264.166872,211.604239 C263.361728,210.162058 262.937037,208.180165 263.62716,206.12749 C264.326132,204.083663 265.494033,203.305062 265.830247,202.986543 C266.175309,202.676872 266.157613,202.358354 265.971811,202.119465 Z M265.440947,212.683663 C266.219547,213.816173 267.157407,215.68393 266.971605,217.948066 C266.971605,217.948066 266.79465,219.115967 266.556646,219.806091 C266.175309,220.876667 265.847942,221.743745 265.573663,222.442716 C270.095741,224.477695 274.37716,227.016996 277.199588,228.945802 C277.597737,228.813086 278.058704,228.591893 278.376337,228.193745 C278.579835,227.928313 278.722284,227.485926 278.818724,226.972757 C279.022222,225.94642 278.978868,224.548477 278.429424,223.044362 C277.969342,221.734897 276.9607,220.319259 275.969753,219.223025 C275.84677,219.124815 275.713169,219.036337 275.5893,218.939012 C274.580658,218.213498 273.545473,217.523374 272.492593,216.850947 C271.032716,215.913086 269.546296,215.010617 268.033333,214.143539 C267.316667,213.727695 266.6,213.329547 265.874486,212.922551 C265.724074,212.834074 265.58251,212.763292 265.440947,212.683663 Z M227.35144,181.309588 C209.815226,175.425844 190.792593,184.123169 186.616461,189.405267 C186.439506,189.617613 186.280247,189.838807 186.147531,190.077695 C186.129835,190.104239 186.120988,190.157325 186.094444,190.175021 C186.094444,190.175021 185.988272,190.33428 185.873251,190.661646 C184.209877,195.634074 194.287449,216.762469 213.310082,223.150535 C232.350412,229.538601 252.930247,219.328313 254.788272,213.78963 C254.920988,213.391481 254.947531,213.064115 254.947531,213.064115 C255.133333,211.75465 254.841358,209.887778 254.115844,207.702387 C251.284568,199.297037 241.870576,186.184691 227.35144,181.309588 Z M238.457119,198.852881 C245.13893,202.769774 250.111358,206.986605 252.646235,210.006337 C248.93107,207.266193 244.101091,204.223457 238.427922,201.333786 C238.465082,200.502099 238.4757,199.674835 238.457119,198.852881 Z M184.131085,174.604687 L184.024074,174.6207 C183.740947,174.700329 183.537449,174.939218 183.617078,175.3993 C183.696708,175.850535 184.165638,177.186543 183.475514,179.23037 C182.794239,181.291893 181.26358,182.610206 179.750617,183.273786 C178.237654,183.937366 176.37963,185.432634 175.857613,187.883457 C175.344444,190.325432 174.017284,193.546008 174.388889,195.669465 C174.521605,196.483457 175.326749,197.598272 177.175926,197.52749 C175.9107,198.571523 174.725103,198.491893 173.751852,198.049506 C172.221193,200.871934 169.920782,202.030988 165.726955,201.216996 C161.44465,200.394156 156.01214,196.279959 154.888477,189.334486 C154.888477,189.216516 156.326235,189.202998 156.913012,189.20177 L157.171193,189.20177 C156.923457,188.874403 156.649177,188.387778 156.631481,187.874609 C156.622634,187.582634 156.746502,187.211029 156.932305,186.812881 C156.976543,186.750947 157.162346,186.405885 157.197737,186.343951 C157.710905,185.379547 158.701852,184.46823 159.639712,183.919671 C159.64856,183.910823 159.657407,183.901975 159.666255,183.901975 C161.303086,182.919877 163.86893,182.327078 165.496914,182.238601 C165.541152,182.229753 164.921811,182.212058 164.61214,182.220905 C162.594856,182.229753 160.58642,182.424403 158.586831,182.707531 C156.817284,182.955267 155.118519,183.256091 153.490535,183.247243 C152.968519,183.238395 152.464198,183.203004 151.977572,183.114527 C151.526337,183.026049 151.075103,182.893333 150.632716,182.707531 C150.632716,182.707531 148.942798,184.061235 148.872016,186.379342 C148.695062,185.423786 147.925309,184.645185 146.916667,184.494774 C145.633745,184.300123 144.430453,185.176049 144.235802,186.467819 C144.041152,187.750741 144.934774,188.954033 146.217695,189.148683 C147.49177,189.343333 148.695062,188.45856 148.889712,187.175638 C148.89856,187.140247 148.89856,187.113704 148.89856,187.078313 C148.933951,187.352593 148.987037,187.644568 149.066667,187.936543 C149.28786,188.759383 149.588683,189.334486 149.907202,189.776872 C150.650412,190.838601 151.473251,190.99786 151.473251,190.99786 C151.482099,190.99786 151.588272,190.847449 151.597119,190.829753 C151.650206,190.767819 152.092593,190.307737 152.18107,190.307737 C151.63251,189.944979 149.36749,188.201975 150.747737,184.423992 C150.747737,184.423992 150.668107,187.856914 153.50823,189.679547 C153.817901,191.095185 156.047531,199.589012 164.373251,202.225638 C173.459877,205.118848 176.954733,200.783457 177.777572,199.146626 C178.140329,198.403416 179.069342,196.085309 179.069342,196.085309 C179.85679,193.829136 181.856379,185.052181 182.608436,184.025844 C183.351646,182.999506 185.607819,178.894156 184.696502,175.116173 C184.696502,175.116173 184.5107,174.496831 184.024074,174.6207 Z M344.973251,152.757942 C344.93786,152.828724 343.849588,153.731193 342.088889,155.155679 C341.336831,155.775021 340.505144,156.447449 339.567284,157.190658 C329.321605,165.286337 307.936626,179.840864 273.120782,186.105062 C264.680041,187.618025 256.080041,188.449712 247.701235,188.821317 C249.082366,190.245802 250.346708,191.696831 251.496914,193.174403 C251.496914,193.174403 255.159877,192.901008 255.664198,192.855885 C261.981481,192.325021 268.298765,191.564115 274.545267,190.431605 C289.993416,187.644568 301.672428,183.698477 307.211111,181.610412 C308.511728,181.097243 309.750412,180.575226 310.962551,180.044362 L310.962551,180.044362 L310.795329,180.185926 C310.795329,180.185926 288.108848,193.687572 253.664609,196.156091 C254.761728,197.792922 255.734979,199.412058 256.557819,201.00465 C267.272428,200.403004 278.119753,198.907737 288.37428,196.067613 C294.930453,194.244979 301.380453,191.944568 307.538477,189.033663 C313.731893,186.113909 319.810288,182.610206 325.154321,178.301358 C328.631481,175.487778 331.896296,172.461852 334.895679,169.126255 C339.018724,164.551975 342.779012,159.10177 344.813992,153.244568 L344.813992,153.244568 L344.964403,152.784486 Z M165.735802,182.229753 C164.293621,182.512881 162.630247,183.026049 161.471193,183.795802 C160.11749,184.671728 159.250412,185.76 158.790329,186.689012 C158.560288,187.16679 158.401029,187.609177 158.409877,187.936543 C158.427572,188.449712 158.666461,188.900947 158.896502,189.246008 C158.896502,189.246008 166.992181,189.679547 172.088477,191.07749 C172.283128,190.351975 172.54856,189.458354 172.893621,188.37893 C173.114815,187.688807 173.415638,187.113704 173.743004,186.591687 C174.963992,184.662881 176.76893,183.80465 178.087243,183.371111 C175.893004,183.017202 173.32716,182.725226 171.124074,182.530576 C170.026955,182.433251 168.929835,182.353621 167.823868,182.300535 C167.133745,182.265144 166.434774,182.247449 165.735802,182.229753 Z M189.27786,188.862016 C193.20714,187.98963 199.926111,187.579095 207.841296,188.521379 C207.323704,189.169918 206.826461,189.841461 206.347798,190.534239 C199.887181,189.381379 194.020247,188.903601 189.27786,188.862016 Z M150.791975,87.5943621 L150.615021,88.0986831 C149.473663,91.4696708 149.040123,95.1503292 148.854321,98.6894239 C148.535802,104.679342 149.102058,110.70465 150.367284,116.553004 C151.71214,122.781811 153.86214,128.771728 156.507613,134.558148 C159.206173,140.486132 162.54177,146.104444 166.266667,151.43963 C170.840947,158.013498 176.069959,164.136132 181.73251,169.798683 C184.15679,172.231811 186.669547,174.585309 189.244239,176.868025 C189.562757,177.142305 192.137449,179.708148 192.394033,179.593128 C194.004321,178.823374 195.756173,178.115556 197.623045,177.460823 C171.902675,155.031811 161.878189,130.859794 161.568519,130.107737 L161.568519,130.107737 L161.6393,130.231605 C161.957819,130.815556 162.276337,131.399506 162.621399,131.992305 C163.258436,133.036337 164.054733,134.425432 165.089918,136.11535 C170.04465,144.042922 176.618519,152.57214 185.439712,161.44642 C185.466255,161.472963 196.419753,172.276049 201.091358,176.390247 C202.905144,175.894774 204.79856,175.487778 206.762757,175.169259 C200.259671,169.789835 193.845062,163.897243 187.979012,157.553416 C158.35679,125.453827 152.694239,95.6104115 150.791975,87.5943621 L150.791975,87.5943621 Z M212.283745,131.019053 C212.283745,131.019053 212.274897,131.045597 212.266049,131.089835 C212.080247,131.841893 210.62037,137.902593 210.284156,140.848889 C210.239918,141.238189 210.213374,141.600947 210.195679,141.946008 C210.054115,144.36144 210.478807,145.73284 211.000823,147.33428 C211.584774,149.156914 214.33642,156.960617 215.008848,159.084074 C215.097325,159.349506 215.19465,159.68572 215.300823,160.066173 C216.026337,162.764733 217.300412,168.002593 219.857407,170.763086 C222.76035,173.886337 225.564198,175.293128 229.023663,176.461029 C229.023663,176.461029 229.041358,176.461029 229.050206,176.469877 C229.067901,176.469877 229.076749,176.478724 229.085597,176.478724 C230.810905,177.062675 232.447737,177.487366 234.181893,177.682016 C235.907202,177.876667 237.729835,177.832428 239.827634,177.460823 C244.064815,176.708765 248.913374,172.364527 250.736008,171.072757 C252.558642,169.780988 259.468724,165.224403 261.026811,164.118436 C262.591975,163.012469 263.902325,162.092305 265.511728,159.376049 C267.122016,156.650947 269.838272,150.324815 269.838272,150.324815 C269.838272,150.324815 267.228189,149.811646 266.361111,149.705473 C266.361111,149.705473 266.352263,149.732016 266.32572,149.776255 C265.93642,150.457531 262.822016,155.951975 261.690391,157.102181 C261.690391,157.102181 261.654115,157.102181 261.601029,157.119877 C261.194033,157.190658 259.574897,157.509177 258.769753,158.110823 C257.840741,158.792099 254.478601,163.79107 250.081276,165.675638 C250.497119,163.198272 248.896564,161.91535 248.479835,161.959588 C248.07284,162.003827 247.755206,162.977078 247.665844,163.224815 C247.577366,163.472551 246.727984,165.144774 246.444856,165.932222 C246.152881,166.719671 246.242243,166.781605 246.242243,166.781605 C245.533539,166.755062 244.82572,166.719671 244.126749,166.666584 C244.799177,165.39251 245.400823,164.127284 245.967078,162.870905 C246.335313,161.918299 245.457802,161.639264 245.287317,161.594755 L245.259259,161.587984 L245.250412,161.579136 C244.622222,161.481811 243.994918,161.384486 243.366728,161.260617 L243.366728,161.260617 L243.303909,161.260617 C242.516461,161.119053 242.039568,161.614527 241.941358,161.91535 C241.861728,162.11 241.782984,162.313498 241.702469,162.508148 C241.410494,163.198272 241.100823,163.897243 240.8,164.587366 C240.791152,164.631605 240.782305,164.675844 240.755761,164.711235 C240.401852,165.58716 240.702675,166.321523 240.702675,166.321523 C240.463786,166.303827 239.879835,166.321523 238.888889,166.126872 C238.428807,166.029547 237.809465,165.755267 237.809465,165.755267 C238.154527,165.47214 238.366872,164.932428 238.366872,164.932428 C238.995062,163.40177 239.959465,161.030576 239.959465,161.030576 C239.959465,161.030576 240.339918,160.004239 239.676337,159.809588 C238.773868,159.588395 237.880247,159.340658 236.986626,159.075226 C236.30535,158.924815 236.013374,159.482222 235.942593,159.668025 C235.801029,160.021934 235.56214,160.579342 235.473663,160.827078 C235.128601,161.809177 234.792387,162.782428 234.456173,163.746831 C234.456173,163.764527 234.456173,163.773374 234.447325,163.79107 C234.234979,164.410412 234.403086,165.00321 234.403086,165.00321 C234.403086,165.00321 233.536008,164.826255 233.084774,164.702387 C232.624691,164.587366 231.934568,164.100741 231.934568,164.100741 C232.050473,163.994568 232.182305,163.676049 232.27963,163.454856 C232.686626,162.003827 233.084774,160.190041 233.429835,158.66823 C233.456379,158.455885 233.465226,157.827695 232.819342,157.562263 C232.058436,157.279136 231.297531,156.98716 230.554321,156.67749 C229.890741,156.473992 229.598765,157.022551 229.492593,157.34107 C229.19177,158.712469 228.846708,160.358148 228.616667,161.552593 C228.519342,162.38428 228.899794,162.96823 228.899794,162.96823 C228.54677,162.888601 227.838066,162.57893 227.271811,162.340041 C226.891358,162.180782 226.068519,161.632222 226.068519,161.632222 C226.49321,161.596831 226.732099,160.694362 226.732099,160.694362 C227.201029,159.712263 227.519547,158.862881 227.891152,157.933868 C227.9,157.88963 227.926543,157.854239 227.935391,157.81 C227.944239,157.783457 227.953086,157.765761 227.970782,157.721523 C228.333539,156.739424 227.652263,156.217407 227.537243,156.137778 C226.546296,155.642305 225.431481,155.058354 225.422634,155.058354 C224.856379,154.757531 224.484774,155.155679 224.360905,155.544979 C223.971605,156.650947 223.361111,157.659588 223.148765,158.880576 C223.05144,159.5707 223.104527,160.048477 223.104527,160.048477 C221.759671,159.41144 221.264198,158.393951 221.264198,158.393951 C221.582716,158.013498 222.016255,156.650947 222.025103,155.38572 C222.033951,154.111646 222.11358,152.926049 221.520782,152.501358 C220.927984,152.085514 219.937037,153.147243 219.423868,153.908148 C218.919547,154.660206 218.804527,155.102593 218.804527,155.102593 L218.804527,155.102593 L218.804527,155.199918 C216.415638,151.041481 216.751852,145.007325 216.424486,143.901358 C216.097119,142.795391 214.699177,141.326667 214.699177,141.326667 C214.672634,141.114321 214.663786,140.822346 214.663786,140.468436 C214.699177,138.159177 215.336214,133.372551 215.424691,132.700123 C215.433539,132.647037 215.433539,132.620494 215.433539,132.620494 C214.690329,132.178107 212.283745,131.019053 212.283745,131.019053 Z M244.197531,70.9960082 C223.79465,71.0844856 217.990535,86.2672016 217.132305,89.7443621 C216.220988,93.442716 216.229835,98.1320165 216.01749,100.255473 C216.01749,100.255473 219.937037,99.6980658 223.6,98.1674074 C225.581893,97.3534156 227.493004,96.300535 228.953765,94.8937449 C228.616667,95.2830453 223.113374,101.547243 217.22963,102.210823 C217.22963,102.210823 215.93786,107.882222 214.362963,110.748889 C212.805761,113.624403 209.753292,115.588601 209.753292,115.588601 C209.753292,115.588601 209.523251,117.844774 209.523251,120.118642 C209.523251,121.029959 209.549794,121.950123 209.647119,122.719877 C209.700206,123.109177 209.770988,123.463086 209.850617,123.763909 C210.549588,126.170494 210.629218,127.692305 215.840535,129.983868 C217.61893,130.762469 219.37963,131.594156 221.069547,132.549712 C223.6,133.983045 226.325103,135.672963 227.377984,138.548477 C227.386831,138.575021 227.386831,138.601564 227.405412,138.628107 C227.687654,139.353621 227.714198,140.256091 227.519547,140.9993 C227.519547,140.901975 227.475309,140.778107 227.413374,140.645391 C227.184218,140.194156 226.785185,139.86679 226.528601,139.442099 C226.528601,139.433251 226.520638,139.424403 226.502058,139.406708 C225.935802,138.760823 225.325309,138.168025 224.608642,137.681399 L224.608642,137.681399 L224.608642,137.707942 L224.590947,137.672551 C224.590947,137.672551 224.042387,139.59251 223.184156,141.008148 C222.697531,141.82214 222.175514,142.724609 221.626955,143.963292 C221.626955,143.980988 221.618107,143.998683 221.609259,144.016379 C220.538683,146.794568 221.786214,149.732016 222.078189,149.749712 C222.423251,149.776255 223.157613,149.440041 224.546708,145.538189 C224.582099,145.449712 224.652881,145.263909 224.697119,145.060412 C224.73251,144.874609 224.670576,144.538395 224.590947,144.264115 C224.590947,144.264115 224.599794,144.24642 224.608642,144.219877 C224.776749,143.58284 225.590741,143.635926 226.103909,143.69786 C226.280864,143.715556 226.457819,143.742099 226.625926,143.786337 C226.705556,143.804033 226.777222,143.821728 226.838272,143.839424 C227.369136,144.025226 227.661996,144.387984 227.652263,144.582634 C227.652263,144.582634 227.369136,144.759588 227.15679,145.086955 C226.953292,145.414321 226.599383,146.254856 226.502058,146.484897 C226.148148,147.360823 225.892449,148.068642 225.590741,148.944568 C225.573045,148.971111 225.573045,148.997654 225.573045,149.024198 C225.323227,149.765846 225.955121,150.080415 226.107259,150.144166 L226.1393,150.156708 C226.1393,150.165556 226.227778,150.192099 226.236626,150.192099 C226.917901,150.315967 227.652263,150.466379 228.413169,150.625638 C228.413169,150.625638 229.431543,150.81144 229.77572,149.900123 C230.103086,148.93572 230.386214,148.139424 230.748971,147.175021 C230.766667,147.121934 230.79321,147.06 230.819753,147.006914 L230.819753,147.006914 L230.819753,146.998066 L230.846296,146.936132 C230.846296,146.936132 231.06749,146.272551 231.1657,145.874403 C231.253292,145.502798 231.643477,144.865761 231.996502,144.865761 C232.368107,144.865761 232.872428,145.042716 232.819342,145.794774 C232.766255,146.546831 232.615844,147.042305 232.5893,147.130782 C232.580453,147.166173 232.571605,147.210412 232.571605,147.236955 C232.235391,148.422551 231.554115,150.917613 231.554115,150.917613 C231.226749,151.873169 232.271667,152.173992 232.271667,152.173992 C232.907819,152.350947 233.863374,152.501358 234.535802,152.704856 C234.580041,152.713704 234.615432,152.722551 234.668519,152.731399 C234.668519,152.731399 235.464815,152.987984 235.747942,152.881811 C236.039918,152.775638 236.22572,152.333251 236.278807,152.191687 C236.323045,152.050123 237.384774,148.342922 237.499794,147.944774 C237.580309,147.643951 237.544033,147.042305 237.384774,146.697243 C237.43786,146.706091 238.402263,146.874198 238.94286,147.051152 C239.39321,147.210412 239.994856,147.4493 240.295679,147.679342 C239.835597,147.909383 239.534774,148.670288 239.50823,148.776461 C239.499383,148.794156 239.490535,148.803004 239.490535,148.811852 C239.419753,149.059588 239.331276,149.298477 239.260494,149.537366 C238.92428,150.554856 238.481893,151.855473 238.136831,152.881811 C238.083745,153.156091 238.030658,153.837366 238.826955,154.138189 L238.826955,154.138189 L238.950823,154.182428 C239.614403,154.430165 240.455823,154.730988 241.07428,154.978724 C241.07428,154.978724 241.277778,155.058354 241.534362,155.058354 C241.844033,155.058354 242.22537,154.943333 242.40144,154.412469 C242.5607,153.925844 242.924342,152.84642 243.241975,151.864321 C243.552531,150.89107 243.834774,150.006296 243.843621,149.900123 C243.852469,149.714321 244.073663,149.369259 244.206379,149.254239 C244.569136,149.227695 244.834568,149.280782 245.082305,149.40465 C245.37428,149.546214 245.710494,149.908971 245.84321,150.041687 C245.64856,150.377901 245.338889,151.236132 245.259259,151.705062 C245.197325,152.10321 244.728395,153.810823 244.507202,154.607119 C244.480658,154.669053 244.462963,154.757531 244.437305,154.828313 C244.418724,154.854856 244.427572,154.881399 244.418724,154.91679 C244.409877,154.943333 244.401029,154.961029 244.409877,154.978724 C244.286008,155.801564 245.082305,156.217407 245.082305,156.217407 C245.790123,156.553621 246.471399,156.880988 247.091626,157.190658 C247.091626,157.190658 247.179218,157.226049 247.188066,157.226049 C247.188066,157.226049 248.037449,157.500329 248.320576,156.659794 C248.329424,156.633251 248.347119,156.606708 248.355967,156.59786 C248.639979,155.713086 248.861173,154.978724 249.108025,154.076255 C249.169959,153.828519 249.240741,153.580782 249.30356,153.333045 C249.32037,153.306502 249.329218,153.23572 249.338951,153.138395 C249.355761,153.076461 249.47963,152.634074 249.515021,152.359794 C249.541564,152.21823 249.541564,152.085514 249.532716,151.988189 C249.532716,151.988189 250.002531,152.173992 250.550206,152.412881 C250.550206,152.421728 251.62963,152.899506 251.841975,153.014527 C252.027778,153.1207 252.328601,153.23572 252.443621,153.43037 C252.709053,153.801975 252.779835,153.952387 252.779835,153.952387 L252.779835,153.952387 L252.010082,154.076255 C251.868519,154.067407 251.231481,154.297449 251.231481,154.492099 C249.992798,158.455885 250.373251,159.154856 250.666111,159.340658 C250.912963,159.499918 253.673457,157.925021 254.496296,155.058354 C254.496296,155.031811 254.956379,152.642922 255.054588,151.696214 C255.221811,150.165556 255.858848,148.422551 255.939362,148.210206 L255.939362,148.210206 L255.920782,148.219053 C255.920782,148.210206 255.939362,148.19251 255.939362,148.19251 C253.133745,148.059794 251.567695,149.165761 251.567695,149.165761 C251.74465,148.74107 252.001235,148.378313 252.275514,148.050947 C252.29321,148.033251 252.302058,148.033251 252.310905,148.015556 C254.381276,145.626667 258.141564,145.723992 260.981687,146.086749 C263.202469,146.361029 265.405556,146.829959 267.582099,147.351975 C273.138477,148.66144 274.112613,147.502387 276.111317,145.998272 C277.83751,144.706502 279.243416,142.715761 280.287449,140.857737 C280.306029,140.822346 280.331687,140.795802 280.349383,140.760412 C280.809465,140.052593 281.127984,139.539424 281.127984,139.539424 C281.127984,139.539424 279.871605,136.133045 280.35823,132.894774 C280.853704,129.66535 283.233745,124.34786 283.233745,124.34786 C278.809877,120.154033 278.296708,111.430165 278.296708,111.430165 C278.570988,113.199712 279.287654,114.969259 280.216667,116.632634 C281.633189,119.18963 283.516872,121.472346 284.9157,123.003004 C286.109259,121.06535 288.834362,117.667819 290.205761,114.226049 C291.718724,110.394979 297.531687,90.354856 271.156584,77.6672016 L271.156584,77.6672016 L270.131132,77.2336626 C269.563992,76.9593827 269.015432,76.7116461 268.493416,76.4727572 C267.962551,76.2338683 267.45823,76.0215226 266.980453,75.8357202 C266.617695,75.6853086 266.272634,75.5525926 265.945267,75.4287243 C265.688683,75.3313992 265.450679,75.2429218 265.229486,75.1544444 C264.441152,74.8624691 263.78642,74.6501235 263.308642,74.4997119 C263.211317,74.464321 263.12284,74.4377778 263.025514,74.4023868 C262.052263,74.092716 258.327366,72.9690535 253.682305,72.0046502 L253.682305,72.0046502 L253.558436,71.978107 C252.735597,71.81 251.886214,71.641893 251.010288,71.4914815 C248.57716,71.1464198 246.31214,70.9960082 244.197531,70.9960082 Z M242.598745,127.783436 C242.988045,126.615535 244.306358,125.968765 245.60786,126.297016 C245.68749,126.314712 245.766235,126.331523 245.837901,126.358951 C245.923724,126.387263 246.005123,126.42177 246.088292,126.455391 C247.308395,126.992449 247.961358,128.286872 247.571173,129.455658 C247.085432,130.896955 247.173025,132.109979 247.261502,133.35751 C247.323436,135.772942 248.429403,136.446255 247.93393,137.941523 L247.93393,137.941523 L247.437572,139.401399 C247.156214,140.250782 246.376728,140.780761 245.483107,140.914362 C245.066379,140.967449 244.623992,140.967449 244.181605,140.825885 C242.811975,140.365802 242.041337,138.966975 242.466029,137.720329 C242.536811,137.507984 242.412058,137.277942 242.190864,137.197428 C241.969671,137.127531 241.740514,137.241667 241.669733,137.446049 C241.254774,138.702428 239.794012,139.348313 238.413765,138.88823 C237.971379,138.737819 237.617469,138.472387 237.316646,138.162716 C236.69642,137.516831 236.395597,136.632058 236.679609,135.790638 L236.679609,135.790638 L237.175082,134.331646 C237.669671,132.835494 238.962325,132.96821 240.475288,131.074794 C241.28928,130.136934 242.112119,129.234465 242.598745,127.783436 Z M253.783169,120.235432 C253.783169,120.235432 253.817675,120.279671 253.836255,120.306214 C253.968971,120.500864 254.587428,121.359979 255.535021,122.270412 L255.535021,122.270412 C255.703128,122.438519 255.879198,122.597778 256.065885,122.757922 C256.074733,122.765885 256.091543,122.774733 256.100391,122.792428 C256.791399,123.367531 257.605391,123.898395 258.544136,124.208951 C261.400185,125.173354 265.568354,124.491193 270.036461,123.677202 C270.426646,123.616152 270.806214,123.563066 271.187551,123.517942 C275.195576,123.058745 278.71786,123.943519 278.71786,123.943519 L278.71786,123.943519 L278.725823,123.969177 L278.647078,123.961214 C278.531173,123.978025 278.417037,123.996605 278.292284,124.0143 C277.160658,124.411564 276.576708,127.093313 276.576708,127.093313 C276.355514,127.898457 276.08035,128.685021 275.752099,129.455658 C275.000041,131.18893 273.956893,132.879733 272.63858,134.252016 C271.647634,135.287202 270.559362,135.80037 269.347222,136.481646 C269.33749,136.472798 269.33749,136.472798 269.33749,136.472798 C269.320679,136.472798 268.638519,136.685144 268.276646,136.728498 C265.532078,137.065597 259.764239,136.180823 256.995782,134.286523 C256.968354,134.277675 256.950658,134.268827 256.933848,134.260864 L256.933848,134.260864 C254.154774,132.605453 253.596481,126.279321 253.587634,124.641605 C253.579671,123.013621 253.773436,120.279671 253.783169,120.235432 Z M221.01823,104.591749 C221.220844,104.671379 224.432572,106.078169 227.263848,108.776728 C227.54786,109.043045 227.82214,109.317325 228.088457,109.599568 C231.1657,112.944897 234.078374,116.006214 236.936193,116.96177 C237.865206,117.27144 238.84642,117.342222 239.740926,117.298868 C239.749774,117.298868 239.766584,117.298868 239.786049,117.289136 C240.032901,117.280288 240.27179,117.262593 240.500947,117.236049 L240.500947,117.236049 C241.969671,117.050247 243.138457,116.660947 243.138457,116.660947 C243.138457,116.660947 241.617531,118.988786 240.6257,120.288519 C239.62679,121.597984 235.377222,126.305864 232.175226,125.951955 C232.149568,125.951955 232.12214,125.934259 232.095597,125.934259 C228.74142,125.766152 223.60177,122.995926 221.618992,121.075967 C221.354444,120.810535 220.947449,120.235432 220.938601,120.235432 C220.876667,120.288519 220.813848,120.332757 220.743066,120.376996 C220.813848,120.332757 220.876667,120.279671 220.938601,120.226584 C220.973992,120.191193 220.300679,119.023292 220.25644,118.934815 C219.194712,116.368971 219.442449,113.174938 220.106029,110.600247 C220.300679,109.848189 220.531605,109.104979 220.82358,108.379465 C220.82358,108.379465 221.973786,105.892366 221.310206,104.892572 C221.230576,104.804095 221.141214,104.715617 221.062469,104.635988 L221.062469,104.635988 L221.044774,104.62714 C221.044774,104.619177 221.035041,104.610329 221.01823,104.591749 Z"/>
      <path fill="#C2242B" d="M252.84,214.910638 C245.791893,219.353086 230.061502,223.46286 214.912407,218.381605 C200.043786,213.388827 190.164403,200.679053 187.000453,192.940823 C186.629733,192.137449 186.533292,189.968868 188.705412,188.963765 C188.705412,188.963765 187.333128,189.1593 186.097099,190.173251 C186.097099,190.173251 185.988272,190.333395 185.87679,190.665185 C184.212531,195.62965 194.288333,216.762469 213.312737,223.148765 C232.347757,229.537716 252.934671,219.327428 254.792695,213.793169 C254.920103,213.390597 254.945761,213.06677 254.945761,213.06677 C254.513992,211.712181 253.687613,210.868107 253.687613,210.868107 C254.745802,212.865041 253.660185,214.329342 252.84,214.910638"/>
      <path fill="#DC4405" d="M238.427922,201.333786 C238.417305,201.572675 238.404918,201.813333 238.391646,202.053107 C237.765226,201.735473 237.131728,201.418724 236.486728,201.105514 C236.248724,202.546811 235.897469,203.969527 235.417037,205.364815 C234.465021,204.811831 233.49177,204.280967 232.512325,203.771337 C232.94321,202.434444 233.281193,201.081626 233.538663,199.719959 C232.490206,199.243951 231.418745,198.77679 230.326049,198.320247 C230.037613,199.612901 229.691667,200.904671 229.287325,202.191132 C228.283992,201.72751 227.270041,201.282469 226.250782,200.864856 C226.64893,199.613786 227.009918,198.363601 227.338169,197.119609 C226.268477,196.707305 225.181091,196.306502 224.076008,195.918971 C223.699095,197.126687 223.308909,198.34679 222.904568,199.573971 C221.864959,199.200597 220.824465,198.849342 219.771584,198.52286 C220.188313,197.300103 220.612119,196.092387 221.04035,194.902366 C219.925535,194.547572 218.816029,194.214012 217.712716,193.899918 C217.225206,195.088169 216.75893,196.299424 216.323621,197.535453 C215.261008,197.25144 214.182469,196.994856 213.104815,196.757737 C213.553395,195.495165 214.055947,194.264444 214.600967,193.063807 C213.451646,192.772716 212.312058,192.501975 211.186626,192.253354 C210.576132,193.486728 210.035535,194.760802 209.577222,196.077346 C208.488951,195.888889 207.391831,195.72963 206.295597,195.593374 C206.748601,194.206934 207.321934,192.87358 207.991708,191.594198 C207.283889,191.458827 206.582263,191.33142 205.889486,191.211091 C206.039897,190.983704 206.192963,190.758086 206.347798,190.534239 C199.887181,189.381379 194.020247,188.903601 189.27786,188.862016 C193.20714,187.98963 199.926111,187.579095 207.841296,188.521379 C207.901461,188.445288 207.959856,188.367428 208.02179,188.293107 C208.622551,188.363889 209.230391,188.443519 209.844424,188.531111 C210.387675,187.743663 210.966317,186.979218 211.577695,186.239547 C212.601379,186.371379 213.601173,186.52179 214.579733,186.686358 C214.02321,187.449033 213.491461,188.234712 212.986255,189.040741 C214.070988,189.238045 215.169877,189.462778 216.281152,189.713169 C216.734156,188.884136 217.205741,188.071029 217.692366,187.279156 C218.625802,187.48 219.545082,187.695885 220.448436,187.926811 C220.033477,188.746996 219.627366,189.586646 219.230103,190.439568 C220.264403,190.715617 221.304897,191.01644 222.351584,191.342922 C222.68072,190.466111 223.011626,189.600802 223.341646,188.75142 C224.219342,189.02393 225.089959,189.315021 225.954383,189.626461 C225.703992,190.503272 225.446523,191.391584 225.180206,192.28963 C226.211852,192.656811 227.222263,193.042572 228.214979,193.441605 C228.411399,192.525864 228.592778,191.616317 228.755576,190.716502 C229.620885,191.07572 230.48,191.456173 231.347963,191.862284 C231.258601,192.778909 231.14535,193.702613 231.009095,194.628086 C232.04428,195.090823 233.054691,195.567716 234.03856,196.056111 C234.117305,195.124444 234.165967,194.192778 234.181893,193.265535 C235.064897,193.723848 235.95144,194.208704 236.847716,194.720103 C236.8893,195.655309 236.891955,196.58963 236.853025,197.521296 C237.394506,197.816811 237.924486,198.114095 238.446502,198.414033 C238.451811,198.560021 238.45358,198.706008 238.457119,198.852881 C245.13893,202.769774 250.111358,206.986605 252.646235,210.006337 C248.93107,207.266193 244.101091,204.223457 238.427922,201.333786 Z M227.35321,181.310473 C209.81965,175.428498 190.795247,184.11963 186.612922,189.401728 C186.443045,189.616728 186.282901,189.842346 186.148416,190.08035 C186.134259,190.105123 186.117449,190.154671 186.097099,190.173251 C187.333128,189.1593 188.705412,188.963765 188.705412,188.963765 C186.533292,189.968868 186.629733,192.137449 187.000453,192.940823 C190.164403,200.679053 200.043786,213.388827 214.912407,218.381605 C230.061502,223.46286 245.791893,219.353086 252.84,214.910638 C253.660185,214.329342 254.745802,212.865041 253.687613,210.868107 C253.687613,210.868107 254.513992,211.712181 254.945761,213.06677 C255.128909,211.751111 254.842243,209.887778 254.11142,207.706811 C251.286337,199.300576 241.871461,186.182037 227.35321,181.310473 L227.35321,181.310473 Z"/>
    </g>
  </g>
</svg>
