<svg id="Layer_1" data-name="Layer 1" xmlns="http://www.w3.org/2000/svg" viewBox="0 0 100 100"><defs><style>.cls-1{fill:#ecb429;}.cls-2{fill:#254476;}.cls-3{fill:#6b5123;}.cls-4{fill:#fff;}</style></defs><path class="cls-1" d="M35,40.71l-3.08.7a10.38,10.38,0,0,1,2.09.12l2.81-.63C36.18,40.82,35.56,40.76,35,40.71Z"/><path class="cls-1" d="M18.63,44a12.73,12.73,0,0,1,1.7-1l.39-.57A5.22,5.22,0,0,0,18.63,44Z"/><path class="cls-1" d="M44.63,21.8c-13.26-.93-23.83,2.63-30.56,9.44l.13,1.51c6.49-7.38,17.08-11.43,30.55-10.81Z"/><path class="cls-1" d="M8.53,61.93c.09.76,1.8,2.76,4.75,4.77,3.8,2.59,5.76,3,6.49,3a40.93,40.93,0,0,1-6.41-3.6A23,23,0,0,1,8.53,61.93Z"/><path class="cls-1" d="M89.23,51.88a3.24,3.24,0,0,1-1.83.27,6,6,0,0,1-2.44-.3,7.49,7.49,0,0,0,1.3-.12,5.5,5.5,0,0,1-2.62-.86,6,6,0,0,1-1.13,0,16.45,16.45,0,0,1,2.72,2.75A42.5,42.5,0,0,1,88,57.27s-1.65-1.84-2.51-2.71a31.94,31.94,0,0,0-5.77-4.29c-3.94-2-5.24-2.58-8.09-2.64s-5.47,1.57-6.22,3.44a6.17,6.17,0,0,0,.42,3.77l0-.46c0,.13.95,3.6,6.12,5a17.14,17.14,0,0,0,11.56-1.08A14.32,14.32,0,0,0,82.56,57l-.39.19a12,12,0,0,1-9.37.63,4.89,4.89,0,0,1-3-2.15,3.29,3.29,0,0,1-1-2.16l-.16,0,0,.05a6.1,6.1,0,0,1,.06-.74c.63-2,3-3,6-2.21A18.45,18.45,0,0,1,85,58.16,15.94,15.94,0,0,1,86.42,61a7.43,7.43,0,0,1,0,5.41,6.75,6.75,0,0,1-3.78,3,12.42,12.42,0,0,0,3.71-.21,7.83,7.83,0,0,0,5.81-4.17,10.72,10.72,0,0,0,.48-1.3C93.5,58.7,89.69,51.67,89.23,51.88Z"/><path class="cls-1" d="M43.18,46.74c-.08-.71-2.11-2-4.82-3A12.93,12.93,0,0,0,33,42.66a32.14,32.14,0,0,1,4.76,1.43A23,23,0,0,1,43.18,46.74Z"/><path class="cls-1" d="M80.05,46.46l.67,1.22h.13c-.24-.42-.46-.8-.7-1.14Z"/><path class="cls-1" d="M90.09,48.43a3,3,0,0,0-1.76-1.69l0,1.71s-.39-1.48-.61-2.2a20.83,20.83,0,0,0-5.51-8.19,2.2,2.2,0,0,1,.29,1,54.06,54.06,0,0,0-5.33-4.91l.48,1.49s-.26-.34-.54-.68C74.45,31.86,67.21,28.1,65,27l1,1.56-.72-.38,1,1.66-5.1-2.4,2.75.08c-.78-.36-1.71-.77-2.74-1.19a56.89,56.89,0,0,0-8.58-2.22c-.58-.11-1.18-.21-1.78-.29a24.45,24.45,0,0,1,1.92,2c-10.78-1.51-19.65-.77-26.6,1.86A35.5,35.5,0,0,0,13.45,37.83l-.12-.65a0,0,0,0,0,0,0l-.38-2.13a25.88,25.88,0,0,0-4,7.66s-.05.2-.05.22a12.85,12.85,0,0,0-.26,5.64A23.14,23.14,0,0,0,11,54.44l-.24,0,.37.68L10,54.84a33.93,33.93,0,0,0,8.56,8.95,21.73,21.73,0,0,1-4.83-7.45l.12,0-.25-.66,1.64.33c-.12-.45-.22-.9-.31-1.36a16.57,16.57,0,0,1,.4-9.3,14.64,14.64,0,0,1,9.23-7.84l-.78,1.2c.34-.1.69-.18,1.05-.26l-1.24,1.65c4.35-1.81,10.51-2.42,18-.22l-.75.1c.23.08.45.18.65.27l-1.28.32c2.27.55,5.1,1.36,6.37,1.8a37.68,37.68,0,0,1,4.62,2.08L50.52,44a35.72,35.72,0,0,1,6.11,2.51L56.34,46a22.53,22.53,0,0,1,5.14,3.74l0,0a16.77,16.77,0,0,1,3,3.12A7,7,0,0,0,65,55c-.75-3.42,0-4.42.3-5a2.13,2.13,0,0,1,.31-.47c1.13-1.73,3.68-2.7,5.87-2.62a13.58,13.58,0,0,1,6.67,2,1.65,1.65,0,0,1-.29-1.56c0-.07,0-.13.07-.19A1.6,1.6,0,0,1,78,46.7a1.23,1.23,0,0,1,.64-.57,2.44,2.44,0,0,0-2-1.77,1.66,1.66,0,0,0-1.26.23,1.7,1.7,0,0,1,.71-.65,3.14,3.14,0,0,0-1.61,0,2.89,2.89,0,0,1,2.71-.51,5,5,0,0,1,.87.4c-.23-.32-.37-.51-.38-.51a3,3,0,0,1,2.07,1.74c.14.32.52,1.13.72,1.56a10.79,10.79,0,0,0,1.83,2.65,5.26,5.26,0,0,0,4,1.65,2.31,2.31,0,0,0,2.11-1.07A2.05,2.05,0,0,1,88,51.14a2.29,2.29,0,0,0,.88-.93,2.16,2.16,0,0,0-.1-1.42c.07.09,1,1,.85,1.83a1.7,1.7,0,0,1-.21.54l.5.34-.27-.38.87.5C90.88,51.25,90.8,49.83,90.09,48.43Z"/><path class="cls-1" d="M7.65,54.65,9,54.92C6.89,50.5,6.13,47,7,42.9c1-4.6,3.63-8.17,5.6-10.64l-.15-1.69C10.59,33,7,37,5.8,42.65c-.84,4.08-.07,7.59,2.05,12l-.19,0A.06.06,0,0,0,7.65,54.65Z"/><path class="cls-1" d="M26.91,71C17.45,67.4,11,61.49,7.45,54.61l.2,0a.06.06,0,0,1,0,0l-1.34-.27c3.6,6.86,10,12.76,19.41,16.37a40.32,40.32,0,0,0,4.81,1.56C29.51,72,28.33,71.57,26.91,71Z"/><path class="cls-2" d="M84.75,44.78,84.24,44c-1.84-2.72-4-3.49-4.65-3.53,1,.38,2.39,1.27,4.13,3.85l.5.77a3.92,3.92,0,0,0,2.32,2C85.74,46.93,85.43,45.83,84.75,44.78Z"/><path class="cls-3" d="M78.69,46.23a2.45,2.45,0,0,0-2-1.87,1.68,1.68,0,0,0-1.26.23,1.7,1.7,0,0,1,.71-.65,3.14,3.14,0,0,0-1.61,0,2.89,2.89,0,0,1,2.71-.51,4.67,4.67,0,0,1,.87.4c-.23-.32-.37-.51-.38-.51a3,3,0,0,1,2.07,1.74c.15.32.52,1.13.73,1.56a10.74,10.74,0,0,0,1.82,2.65,5.2,5.2,0,0,0,3.37,1.62c-.66-.17-1.1-.56-1-1,.94.4,1.85.56,2.31-.55s.23-4.87-4.15-9.66A6,6,0,0,1,83,40.93a30.18,30.18,0,0,0-4.89-5.17c.06.29.3,1.24.41,1.64-.76-.8-2.9-2.62-2.9-2.62L76,36.14s-.24-.31-.5-.62c-2.39-2.84-9-6.27-11-7.31l.88,1.42-.66-.34.89,1.51L61,28.61l2.51.07C62.79,28.36,62,28,61,27.59a52.19,52.19,0,0,0-7.83-2c-.54-.1-1.09-.19-1.63-.26A13.37,13.37,0,0,1,53.11,27a72.46,72.46,0,0,0-12.91-.72c7.43,0,20.89,3.82,26.36,7.56,4.54,3.11,3.79,3.83-1.08,1.66a57.44,57.44,0,0,0-19.59-5.11l-6,3.63s10.07,1.32,17,5c6,3.2,3.94,3.37-2,1.24-8.93-3.19-18.56-3.76-23-3.18,3.94.14,10.86,1,13.56,1.95-.68.21-2.43,1-3.27,1.18,1.5-.1,18.2,5,22.77,11a4.86,4.86,0,0,1,.09-.6c.54-2.48,3.73-3.91,6.38-3.83a13.73,13.73,0,0,1,6.67,2,1.65,1.65,0,0,1-.29-1.56,1.09,1.09,0,0,1,.55-.75A1.42,1.42,0,0,1,78.69,46.23Z"/><path class="cls-1" d="M86.54,47.12a3.87,3.87,0,0,1-2.32-2l-.5-.77c-1.74-2.58-3.09-3.48-4.13-3.85.69,0,2.81.81,4.65,3.53l.51.78C85.43,45.83,85.74,46.93,86.54,47.12Z"/><path class="cls-2" d="M86,47.35a3.89,3.89,0,0,1-2.32-2l-.51-.77c-1.74-2.58-3.08-3.47-4.12-3.85.68,0,2.8.81,4.64,3.53l.52.79C84.89,46.06,85.19,47.15,86,47.35Z"/><path class="cls-2" d="M78.63,49.15a2,2,0,0,1-.23-2.62c-.16,0-.43.33-.56.75a1.66,1.66,0,0,0,.3,1.56,13.64,13.64,0,0,0-6.67-2c-2.66-.09-5.84,1.34-6.39,3.82a5,5,0,0,0,0,1.94,7.73,7.73,0,0,1,.18-.94c.39-2.09,3.2-4.08,6.39-4,2.88.06,4.18.64,8.22,2.71l.64.15A19,19,0,0,0,78.63,49.15Z"/><path class="cls-2" d="M88.81,48.79a2.15,2.15,0,0,1,.11,1.42,2.36,2.36,0,0,1-.88.93,2.12,2.12,0,0,0,.42-1.29,2.34,2.34,0,0,1-2.12,1.07,5.28,5.28,0,0,1-4-1.65,10.74,10.74,0,0,1-1.82-2.65c-.21-.43-.58-1.24-.73-1.56a3,3,0,0,0-2.07-1.74,4.72,4.72,0,0,1,.38.51,4.88,4.88,0,0,0-.86-.4,2.9,2.9,0,0,0-2.72.51,3.14,3.14,0,0,1,1.61,0,1.64,1.64,0,0,0-.71.65,1.74,1.74,0,0,1,1.26-.23,2.47,2.47,0,0,1,2.06,1.93c.53-.32,1.24.1,1.45.24.24.34.46.72.7,1.14a.61.61,0,0,0-.41.13,3.07,3.07,0,0,1,.44.61l-.71-.1A1.07,1.07,0,0,0,81,49.4a1.29,1.29,0,0,0,.91,0,8.33,8.33,0,0,0,.67.66,1.33,1.33,0,0,1-1.08.46l.56.4a24.54,24.54,0,0,1,3.71,3.47,13.24,13.24,0,0,0-3.23-3.55,6,6,0,0,0,1.13,0,5.5,5.5,0,0,0,2.62.86,6.46,6.46,0,0,1-1.3.12,5.19,5.19,0,0,0,3.75-.08,1.58,1.58,0,0,0,1-1.15C89.87,49.75,88.89,48.88,88.81,48.79Z"/><path class="cls-3" d="M63.32,33.5l.47-.36a48.12,48.12,0,0,0-13.31-4.42c-1.53-.28-4.13-.69-5.68-.84,1.37.19,2.93.44,4,.63A46.39,46.39,0,0,1,63.32,33.5Z"/><path class="cls-1" d="M66.64,47.62l.9-.21a51.69,51.69,0,0,0-12.67-6.93c-1.45-.55-3.93-1.43-5.43-1.86,1.31.43,2.8,1,3.8,1.35A46.67,46.67,0,0,1,66.64,47.62Z"/><path class="cls-1" d="M52.63,36.12l.74-.51A52.77,52.77,0,0,0,39,33.1c-1.56-.05-4.19-.06-5.74,0,1.38,0,3,0,4,0A47.58,47.58,0,0,1,52.63,36.12Z"/><path class="cls-2" d="M47.57,32.86a6.1,6.1,0,0,1,.7-.55c-6.49-2.37-17.64-2-24.54.63,1.57-.5,2.92-.82,4-1.06,5.18-1.11,15.61-.52,19.8,1Z"/><path class="cls-1" d="M49,41.05l.66-.65A51.78,51.78,0,0,0,35.41,38c-1.56,0-4.18-.07-5.74,0,1.38,0,3,0,4,0A47.36,47.36,0,0,1,49,41.05Z"/><path class="cls-2" d="M11.49,29.36c-1.93,2.46-5.17,6.16-6.22,11.33l.08,1.66A36.47,36.47,0,0,1,11.49,29.36Z"/><path class="cls-2" d="M91.68,52.73a9,9,0,0,1-.07-1.07c2.44-1.41,0-5.23-3.2-7.37-.44-2.44-1.85-4.94-4.65-7.9-2.38-2.52-5.71-4.87-9.36-8.41.12.36.73,2.33.68,2.28-1.87-1.9-9.63-6-14-7.75.36.47,1.19,1.59,1.8,2.49-3.62-1.87-11.14-3.59-13.7-3.93a44.64,44.64,0,0,0-5.32-.42c.76.51,1.81,1.34,2.4,1.82-13-1.46-25.12,3.11-32.12,11.06L14,32l-.19-2.17c-.33.43-.73.92-1.17,1.46-2,2.48-4.6,6-5.59,10.65C6.2,46,7,49.56,9.06,54l-1.54-.31c3.59,6.87,10,12.79,19.46,16.42,1.42.54,2.59.93,3.62,1.23a31.18,31.18,0,0,0,3.13.74C24.36,68.65,18.61,63.32,16,57.48l1.64.33c-1.24-3.14-1.53-7.77-.88-10A10.79,10.79,0,0,1,18.63,44a7.46,7.46,0,0,1,2.18-1.77l-.48.75-1.54,2.22c2.45-2.3,9.07-5,16.17-4.51.6,0,1.21.1,1.82.19L34,41.53l-.68.15a14.76,14.76,0,0,1,3.21.29,68.5,68.5,0,0,1,12.76,3.9,50.15,50.15,0,0,1,8.4,4.57c-.38-.69-.7-1.39-1.07-2,1.8,1.36,4,3.13,4.51,3.68,1.22,1.29,2.29,2.55,2.24,3.3s-1.65.68-1.73.76c2,.63,3.65.63,4.29.23a5.84,5.84,0,0,1-1.4-3.54c-.63-.9-4.44-5.9-14-8.85l1.87,1.37A60.3,60.3,0,0,0,46.67,43c-1.55-.54-5.43-1.63-7.76-2.12l2.54-.63c-4.54-2.21-14.17-1.43-18.56.72l1.92-2.52A12.49,12.49,0,0,0,15.43,46a17.18,17.18,0,0,0,0,10.67l-1.7-.34c1.18,3.26,3.33,6.06,6.35,9A33,33,0,0,1,9.67,54.77l1.49.3c-2.32-4.26-3.46-7.58-2.3-12.13,0,0,.05-.19.05-.21A26,26,0,0,1,13,35l.49,2.79C23.37,25.62,35.82,22.9,50.68,25.5a18.86,18.86,0,0,0-1.9-2.39c6.16,0,15.48,4.46,17.2,5.41l-1.35-2.19C69.24,28.39,74,31,77,33.68c-.16-.43-.43-1.42-.54-1.71.52.41,4.4,3.72,6.52,5.7a20.47,20.47,0,0,1,5.49,8.69A11,11,0,0,0,88.38,45c1.78,1.81,3.71,4.35,2.52,6.44-.05.09-.11.17-.17.26l-1-.6.27.39c.52.75,5,7.45,2.25,13.55a7.8,7.8,0,0,1-5.81,4.16,12.46,12.46,0,0,1-3.71.22,6.71,6.71,0,0,0,3.77-3,7.38,7.38,0,0,0,0-5.41A15.62,15.62,0,0,0,85,58.16a18.45,18.45,0,0,0-10.36-7.48c-3.07-.75-5.4.19-6,2.2a6.33,6.33,0,0,0-.06.75l0-.05a3.85,3.85,0,0,1,.9-.09,16.79,16.79,0,0,1,2,.13c1,.11,2.82.45,3.69.61a16.7,16.7,0,0,0-3.87-1.13l-.39,0a6.61,6.61,0,0,0-1.39,0l.09,0,.24-.31c1-1.06,2.87-1.14,4.49-.74a16.6,16.6,0,0,1,7.73,4.65A13.42,13.42,0,0,1,73.1,57c-3.4-1.12-3.59-3.19-3.58-3.28,0,.12-.88,2.83,3.28,4.19a12,12,0,0,0,9.37-.64l.39-.18a14.32,14.32,0,0,1,.91,1.22,17.14,17.14,0,0,1-11.56,1.08c-5.17-1.36-6.46-4.86-6.48-5l0,.49c0,.16.34,4.21,6.2,5.74A17.78,17.78,0,0,0,84,59.08c1.1,1.92,2.07,4.5,1.55,6.65-.33,1.35-2,2.88-3.76,3.79a7.9,7.9,0,0,0,1.37.35c3.65.62,8.74-.14,10.64-4.33C96.24,60.11,93.32,54.88,91.68,52.73Z"/><path class="cls-4" d="M76.53,41.07a4.14,4.14,0,0,0-3.38,1.45,2.5,2.5,0,0,0-.3,2.53h0A2.62,2.62,0,0,1,73.56,43a4.15,4.15,0,0,1,3-1.2,4.77,4.77,0,0,1,3.87,1.54h0A4.15,4.15,0,0,0,76.53,41.07Z"/><path class="cls-1" d="M76.69,41.3a4.31,4.31,0,0,0-3.5,1.5,2.57,2.57,0,0,0-.3,2.62h0a2.71,2.71,0,0,1,.73-2.13A4.33,4.33,0,0,1,76.71,42a5,5,0,0,1,4,1.6h0A4.31,4.31,0,0,0,76.69,41.3Z"/><path class="cls-2" d="M68.53,76.06H66.94l1.37-2.67Zm-3.09,2.85.65-1.26h2.64l.06,1.26h2.36l-1.09-7.45H67.51L63.1,78.91Z"/><path class="cls-1" d="M68.53,75.78H66.94l.25.41,1.37-2.67L68,73.41l.21,2.67Zm-.47-2.52-1.37,2.67-.2.41h2.34l0-.3-.21-2.67-.08-1Z"/><path class="cls-1" d="M65.69,79l.65-1.27-.25.15h2.64l-.27-.26.05,1.26v.27h3l0-.32-1.08-7.45,0-.24h-3l-.08.14-4.41,7.45-.24.42h3Zm-2.35,0,4.41-7.45-.24.14h2.55l-.27-.24L70.87,79l.28-.32H68.79l.28.27L69,77.64v-.27H65.92l-.07.15-.66,1.26.25-.15H63.1Z"/><polygon class="cls-2" points="71.08 73.24 71.5 71.46 84.17 71.46 83.84 73.01 79.99 73.01 79.72 74.27 83.27 74.27 82.93 75.71 79.37 75.71 79.09 77.17 83.08 77.17 82.7 78.91 76.48 78.91 77.72 73.24 75.64 73.24 74.45 78.91 72.16 78.91 73.36 73.24 71.08 73.24"/><path class="cls-1" d="M71.35,73.3l.42-1.77-.27.21H84.17l-.27-.33L83.57,73l.27-.21H79.77l0,.21-.27,1.26-.08.34h3.9L83,74.2l-.34,1.45.27-.21H79.14l0,.22-.29,1.46-.06.33h4.33l-.27-.33-.38,1.73.27-.22H76.48l.27.34L78,73.29l.07-.33H75.42l0,.22-1.19,5.67.27-.22H72.16l.27.34,1.2-5.68L73.7,73H71.08Zm1.73-.12-1.19,5.68-.07.33h2.85l0-.22,1.2-5.68-.27.22h2.07l-.28-.34-1.23,5.68-.07.34h6.78L83,79l.38-1.74.07-.34H79.09l.27.34.29-1.47-.27.23h3.77l0-.22.34-1.44.08-.34h-3.9l.27.33.27-1.25-.27.21h4.07l0-.21.33-1.55.08-.34H71.28l0,.22-.42,1.77-.08.34h2.63Z"/><path class="cls-2" d="M56.78,73.23a.4.4,0,0,0-.24-.43,1.19,1.19,0,0,0-.6-.13.81.81,0,0,0-.87.52c-.38,1.23,4.24.32,3.61,3.25-.38,1.73-1.93,2.63-4,2.63s-3.05-1.22-2.81-2.56h2.34a1.16,1.16,0,0,0,.27.83,1.12,1.12,0,0,0,.66.19c.61,0,1.1-.2,1.2-.55.52-1.87-4.14-.65-3.52-3.49.35-1.59,1.74-2.19,3.6-2.19,1.55,0,2.23.35,2.44,1.07l.21-.91h6.83l-.42,1.78H63.24l-1.19,5.67H59.76L61,73.24Z"/><path class="cls-1" d="M57.05,73.25a.66.66,0,0,0-.36-.69,1.54,1.54,0,0,0-.75-.17,1.1,1.1,0,0,0-1.14.72.61.61,0,0,0,.05.52c.2.37.74.5,1.42.66,1.44.34,2.44.69,2.13,2.09s-1.68,2.41-3.69,2.41A2.75,2.75,0,0,1,52.54,78a1.66,1.66,0,0,1-.37-1.39l-.27.23h2.34L54,76.5a1.11,1.11,0,0,0,1.2,1.31c.78,0,1.35-.29,1.48-.75a1.06,1.06,0,0,0-.07-.81c-.27-.48-.93-.65-1.62-.83-1.31-.36-2.09-.65-1.83-1.87s1.4-2,3.33-2c1.69,0,2,.44,2.17.86l.29,1,.24-1,.22-.9-.27.21h6.83l-.27-.34-.43,1.77L65.5,73H63l0,.22-1.2,5.68.27-.22H59.75L60,79l1.2-5.68.07-.33H56.77Zm3.63-.07-1.19,5.68-.07.33h2.85l0-.22,1.2-5.68-.28.22h2.49l0-.21.42-1.77.08-.35h-7.4l-.05.22-.21.9h.53c-.31-1.12-1.61-1.27-2.7-1.27-2.77,0-3.63,1.31-3.87,2.41-.4,1.82,1.12,2.23,2.23,2.52.55.15,1.12.3,1.27.57a.47.47,0,0,1,0,.39c-.05.17-.38.34-.93.34a.86.86,0,0,1-.49-.13,1,1,0,0,1-.16-.6v-.29H51.67l0,.23a2.23,2.23,0,0,0,.48,1.85,3.3,3.3,0,0,0,2.6,1c2.27,0,3.85-1.07,4.24-2.85.44-2-1.36-2.47-2.55-2.75-.44-.11-1-.23-1.07-.39a.23.23,0,0,1,0-.09c.07-.21.28-.33.61-.33a.92.92,0,0,1,.46.1c.11.06.11.06.1.17v.3H61Z"/><path class="cls-2" d="M42.25,71.46l-.85,4.17-2-4.17H28.19L25.51,74l.63-2.55H23.72L22,78.91h2.43L24.84,77l1.39-1.1.83,3H37.89l.86-4.13,1.94,4.13h2.16l1.23-5.67h2l-1.19,5.67h2.29l1.19-5.67h2.27l.42-1.78ZM29.74,78.23l-1.43-3.94,2.81-2.42Zm6.34-1.06H32.19l.3-1.46H36l.34-1.44H32.82L33.1,73H37Z"/><path class="cls-1" d="M42,71.41l-.85,4.16.52-.06-2-4.17-.07-.15H28.08l-.08.07-2.68,2.55.46.26.62-2.54.09-.34h-3l-.05.21-1.72,7.45-.08.34h3l0-.22L25.12,77l-.1.16,1.39-1.1L26,75.94l.83,3,.05.21H38.12l0-.22L39,74.84l-.52.06L40.43,79l.08.16h2.56l0-.22,1.23-5.68-.27.22h2l-.27-.33-1.19,5.68-.07.33h2.85l0-.22,1.19-5.68-.27.22h2.49l0-.21.42-1.77.08-.35H42Zm8.8,0-.42,1.77.27-.21H48.14l0,.22L46.9,78.86l.27-.23H44.88l.27.34,1.2-5.68.07-.33H43.86l0,.22-1.23,5.67.27-.22H40.69l.25.16L39,74.66l-.35-.75-.17.81-.86,4.14.27-.23H27.07l.26.21-.83-3-.11-.41-.33.26-1.39,1.1-.08.07,0,.09-.41,1.94.27-.22H22l.27.34L24,71.52l-.27.22h2.42l-.27-.34-.63,2.54-.23.92.69-.65,2.68-2.55-.19.08H39.44l-.25-.16,2,4.17.36.75.16-.82.85-4.16-.27.22h8.8Z"/><path class="cls-1" d="M30,78.14l-1.43-4-.08.31,2.81-2.42-.46-.27-1.38,6.37Zm.93-6.48-2.8,2.42L28,74.2l.07.18,1.42,4,.33.91.21-.95,1.38-6.36.17-.81Z"/><path class="cls-1" d="M36.08,76.9H32.19l.27.33.3-1.46-.27.22h3.76l0-.21.35-1.45.08-.34H32.82l.27.33.28-1.25-.28.22H37L36.71,73l-.9,4.17ZM37,72.73H32.87l0,.22-.27,1.26-.07.34h3.89l-.27-.35-.34,1.45.27-.21H32.26l0,.22-.3,1.46-.07.33h4.46l0-.22.91-4.16.07-.34Z"/><path class="cls-4" d="M64.88,41.09l5.93,0,1.58-8.69-40.7.12L30.1,41.19h2.14L27.82,60.6H26.06l-2.38,8.82H65.16l2.37-8.82H62.34C61.73,59.08,57.18,48,57.18,48Z"/><path class="cls-2" d="M64.88,41.62h6.37l.08-.44,1.59-8.69.11-.64h-.64L31.68,32h-.44l-.08.43-1.59,8.7-.11.63h2.78l-.52-.65L27.3,60.49l.52-.42H25.64l-.1.4-2.37,8.81L23,70H65.57l.11-.39,2.37-8.82.18-.67H62.34l.5.33L57.68,47.76l-.14.6,7.69-6.87Zm-8.19,6.55h0l5.16,12.64.13.33h5.56L67,60.47l-2.37,8.81.51-.39H23.68l.52.67,2.37-8.82-.51.4h2.19l.09-.42,4.42-19.41.15-.66H30.1l.53.63,1.58-8.69-.52.43,40.71-.12-.53-.63L70.28,41l.53-.44-5.94,0h-.2l-.15.13-7.69,6.88-.28.25Z"/><polygon class="cls-2" points="69.29 39.74 70.31 34.04 50.55 34.04 49.14 39.74 50.51 39.74 43.9 45.4 45.27 39.74 47.15 39.74 48.56 34.04 33.16 34.04 32.13 39.74 34.59 39.74 29.16 62.18 27.32 62.18 25.74 67.99 41.2 67.99 42.64 62.14 39.85 62.15 40.26 60.42 46.09 55.44 48.86 62.12 45.1 62.13 43.65 67.99 63.62 67.99 65.21 62.07 61.05 62.09 55.07 47.52 64.58 39.74 69.29 39.74"/><path class="cls-1" d="M69.68,39.81l1-5.7.08-.47H50.23l-.07.3-1.41,5.7-.13.5h1.89l-.26-.7L43.64,45.1l.65.39,1.37-5.66-.39.31h2.2l.07-.3L49,34.13l.12-.49H32.82l-.06.33-1,5.7-.09.47h2.94l-.39-.49L28.77,62.09l.39-.31H27l-.08.3-1.57,5.8-.14.51H41.51l.08-.31L43,62.24l.12-.5h-3.3l.39.49.41-1.72-.12.21,5.82-5-.63-.15,2.77,6.69.37-.56H44.78l-.07.31-1.45,5.85-.12.5H63.93l.08-.3,1.59-5.91.13-.51h-.52l-4.16,0,.37.24-6-14.56-.12.46,9.52-7.78-.25.09h5Zm-5.35-.38-9.52,7.78-.23.19.12.27,6,14.57.1.25h.27l4.16,0-.39-.5-1.59,5.91.39-.29h-20l.39.49,1.45-5.85-.39.3h4.36L49.23,62l-2.77-6.69-.21-.51-.42.36-5.83,5-.09.08,0,.13-.41,1.72-.12.5h3.3l-.39-.49-1.44,5.84.39-.3H25.74l.39.5,1.58-5.8-.39.3h2.16l.07-.3L35,39.84l.12-.49h-3l.4.47,1-5.71-.4.33H48.56l-.39-.5-1.41,5.71.39-.31H45l-.07.31-1.37,5.66-.29,1.2.94-.8,6.61-5.66.83-.71H49.13l.39.5,1.41-5.71-.39.31H70.31L69.92,34l-1,5.7.39-.33H64.44Z"/><path class="cls-2" d="M68.46,68.64h-.35l-.22.65-.23-.65h-.35v1.1h.22v-.89h0l.29.89H68l.28-.89h0v.89h.22v-1.1Zm-1.27,0h-.85v.21h.32v.89h.21v-.89h.32Z"/><path class="cls-2" d="M84.63,78.92a.78.78,0,0,0,0-1.55.78.78,0,1,0,0,1.55Zm0-.19a.59.59,0,0,1,0-1.17.59.59,0,0,1,0,1.17Zm.17-.52c.15,0,.23-.08.23-.23s-.11-.25-.33-.25h-.4v.83h.18v-.36h.14l.19.35H85Zm-.32-.12v-.23h.18c.09,0,.2,0,.2.1s-.06.13-.15.12Z"/></svg>